<svg xmlns="http://www.w3.org/2000/svg" viewBox="0 0 300 200"><title>als-set-policy-schedule</title><path d="M223.956,133.545l-.273.137c-3.818,3.682-5.591,7.363-5.591,10.909,0,3.682,2.046,7.364,6.273,11.182A17.376,17.376,0,0,1,230.5,169H199.683a17.793,17.793,0,0,1,6.273-13.364c4.091-3.818,6.136-7.5,6.136-11.181s-1.773-7.228-5.591-10.91l-.273-.136A17.3,17.3,0,0,1,199.683,121H230.5A17.108,17.108,0,0,1,223.956,133.545Z" fill="#fff"/><path d="M231.78,171.862V172H197.927a2.328,2.328,0,0,1,.963-1.651l14.862-10.872a2.477,2.477,0,0,1,3.028,0l14.037,11.009A2.327,2.327,0,0,1,231.78,171.862Zm-20.266-30.44a4.2,4.2,0,0,0,7.294,0c1.513-2.752,9.771-11.422,9.771-11.422H200.505S210.413,139.5,211.514,141.422Zm3.44,4.541a2.064,2.064,0,1,0,2.065,2.064A2.064,2.064,0,0,0,214.954,145.963Zm0,6.468a2.065,2.065,0,1,0,2.065,2.064A2.064,2.064,0,0,0,214.954,152.431Z" fill="#ffcb40"/><path d="M261.468,105H152.78v67.248a3.019,3.019,0,0,1-4.384,2.461,2.8,2.8,0,0,1-1.616-2.6V105H38.673a2.8,2.8,0,0,1-2.6-1.616A3.018,3.018,0,0,1,38.532,99H146.78V27.893a2.8,2.8,0,0,1,1.616-2.6,3.018,3.018,0,0,1,4.384,2.461V99H261.328a2.8,2.8,0,0,1,2.6,1.617A3.019,3.019,0,0,1,261.468,105Z" fill="#69afe5"/><path d="M122.546,26.018,101.491,49h31.1A31.044,31.044,0,0,0,122.546,26.018Z" fill="#ffcb40"/><path d="M115.046,57a31.1,31.1,0,1,1-10.093-22.933L83.945,57Z" fill="#666"/><path d="M101.78,127v48h-18V127Zm-62,48h18V141h-18Z" fill="#666"/><path d="M79.78,117v58h-18V117Z" fill="#ffcb40"/><path d="M123.78,145v30h-18V145Z" fill="#69afe5"/><path d="M236.128,121h3.517a2.5,2.5,0,0,0,0-5H191.333a2.593,2.593,0,0,0-2.595,2.595,2.546,2.546,0,0,0,2.732,2.6l3-.137a22.542,22.542,0,0,0,8.469,16.255c2.732,2.6,3.961,5.054,3.961,7.1,0,2.186-1.5,4.645-4.371,7.377A22.9,22.9,0,0,0,194.475,169h-1.76a2.511,2.511,0,0,0-2.514,3.008A2.643,2.643,0,0,0,192.754,174h46.184a2.5,2.5,0,0,0,0-5h-2.262a22.368,22.368,0,0,0-7.954-17.143c-3.017-2.743-4.526-5.211-4.526-7.543,0-2.194,1.234-4.525,3.977-7.131A23.561,23.561,0,0,0,236.128,121Zm-12.172,12.545-.273.137c-3.818,3.682-5.591,7.363-5.591,10.909,0,3.682,2.046,7.364,6.273,11.182A17.376,17.376,0,0,1,230.5,169H199.683a17.793,17.793,0,0,1,6.273-13.364c4.091-3.818,6.136-7.5,6.136-11.181s-1.773-7.228-5.591-10.91l-.273-.136A17.3,17.3,0,0,1,199.683,121H230.5A17.108,17.108,0,0,1,223.956,133.545Z" fill="#666"/><path d="M248.78,28h-66V42h66Z" fill="#ffcb40"/><path d="M181,26V85h71V26Zm4,5h63v8H185Zm0,50V43h63V81Z" fill="#666"/><rect x="185" y="43" width="63" height="38" fill="#fff"/><path d="M198,23h-4V35h4Z" fill="#666"/><path d="M238,23h-4V35h4Z" fill="#666"/><path d="M213.78,62h-8v8h8Z" fill="#ffcb40"/><path d="M197.78,47h-4v4h4Z" fill="#69afe5"/><path d="M197.78,55h-4v4h4Z" fill="#69afe5"/><path d="M197.78,64h-4v4h4Z" fill="#69afe5"/><path d="M211.78,47h-4v4h4Z" fill="#69afe5"/><path d="M211.78,55h-4v4h4Z" fill="#69afe5"/><path d="M211.78,72h-4v4h4Z" fill="#69afe5"/><path d="M225.78,47h-4v4h4Z" fill="#69afe5"/><path d="M225.78,55h-4v4h4Z" fill="#69afe5"/><path d="M225.78,64h-4v4h4Z" fill="#69afe5"/><path d="M225.78,72h-4v4h4Z" fill="#69afe5"/><path d="M239.78,55h-4v4h4Z" fill="#69afe5"/><path d="M239.78,64h-4v4h4Z" fill="#69afe5"/><path d="M239.78,72h-4v4h4Z" fill="#69afe5"/></svg>