<svg width="300" height="200" viewBox="0 0 300 200" fill="none" xmlns="http://www.w3.org/2000/svg">
<path d="M193.847 74.4041H174.804V91.9699H193.847V74.4041Z" fill="#C2C2C2"/>
<path d="M209.382 91.468H157.933V95.8176H209.382V91.468Z" fill="#C2C2C2"/>
<path d="M60.0472 185.152C58.7109 185.152 57.5416 183.981 57.3745 182.643L54.3678 105.353C54.3678 103.848 55.5371 102.677 57.0405 102.677H63.0539C64.5573 102.677 65.7266 103.848 65.7266 105.353L62.7199 182.643C62.5528 184.149 61.3835 185.152 60.0472 185.152Z" fill="#939393"/>
<path d="M65.5595 110.874L65.7265 102.677H54.2007L54.5348 110.874H65.5595Z" fill="#505050"/>
<path d="M238.28 185.152H243.292L246.465 102.509H234.939L238.28 185.152Z" fill="#939393"/>
<path d="M246.298 110.874L246.632 102.677H235.106L235.44 110.874H246.298Z" fill="#505050"/>
<path d="M234.271 11H132.543V80.2594H234.271V11Z" fill="#E6E6E6"/>
<path d="M228.091 16.5207H138.39V74.5714H228.091V16.5207Z" stroke="#737373" stroke-miterlimit="10" stroke-dasharray="2 2"/>
<path d="M262 95.4831H39V103.513H262V95.4831Z" fill="#939393"/>
<path d="M183.156 53.1579C183.491 53.4925 183.658 53.8271 183.825 54.1616C183.992 54.4962 184.159 54.9981 183.992 55.3327C183.992 55.8346 183.992 56.1692 183.825 56.5038C183.658 56.8383 183.491 57.1729 183.156 57.5075C182.488 58.0094 181.486 58.344 180.651 58.344C179.816 58.344 178.813 58.0094 178.145 57.5075C177.811 57.1729 177.644 56.8383 177.477 56.5038C177.31 56.1692 177.143 55.6673 177.143 55.3327C177.143 54.8308 177.143 54.4962 177.477 54.1616C177.644 53.8271 177.978 53.4925 178.145 53.1579C178.813 52.4887 179.816 52.3214 180.651 52.3214C181.653 52.1541 182.488 52.4887 183.156 53.1579ZM188.502 34.2538C188.168 33.4173 187.5 32.7481 186.831 32.0789C185.996 31.5771 185.161 31.0752 184.159 30.9079C183.156 30.5733 181.987 30.5733 180.818 30.5733C179.649 30.5733 178.479 30.7406 177.31 31.0752C176.141 31.4098 175.138 31.7444 174.136 32.4135V38.1015C174.971 37.265 175.974 36.5959 177.143 36.2613C178.145 35.9267 179.147 35.5921 180.15 35.5921C180.651 35.5921 180.985 35.5921 181.319 35.7594C181.653 35.9267 181.987 36.094 182.321 36.2613C182.655 36.4286 182.822 36.7632 182.989 37.0977C183.156 37.4323 183.156 37.7669 183.156 38.1015C183.156 38.6034 183.156 38.938 182.989 39.2725C182.822 39.6071 182.655 39.9417 182.488 40.2763C182.154 40.6109 181.987 40.9455 181.653 41.2801C181.319 41.6147 180.818 41.9492 180.317 42.4511C179.816 42.7857 179.482 43.1203 179.147 43.6222C178.813 43.9568 178.479 44.4586 178.312 44.7932C178.145 45.2951 177.978 45.6297 177.811 46.1316C177.644 46.8007 177.644 47.4699 177.644 47.9718C177.644 48.3064 177.644 48.8083 177.811 49.1428C177.811 49.4774 177.978 49.812 178.145 50.3139H183.156C182.822 49.9793 182.655 49.6447 182.655 49.4774C182.655 49.1429 182.488 48.8083 182.488 48.4737C182.488 48.1391 182.488 47.6372 182.655 47.3026C182.822 46.968 182.989 46.6335 183.156 46.2989C183.323 45.9643 183.658 45.6297 183.992 45.2951C184.326 44.9605 184.66 44.6259 185.161 44.2913C185.829 43.7895 186.33 43.2876 186.831 42.7857C187.332 42.2838 187.667 41.7819 188.168 41.1128C188.502 40.6109 188.836 39.9417 189.003 39.2725C189.17 38.6034 189.337 37.9342 189.337 37.265C189.17 36.2613 189.003 35.2575 188.502 34.2538Z" fill="#666666"/>
<path d="M113.5 16.1861C113.5 16.1861 114.336 25.3873 113.166 30.2388C111.997 35.0903 108.99 35.5922 108.322 35.9267C107.654 36.094 107.32 41.9493 107.32 41.9493L99.6359 43.4549C99.6359 43.4549 98.1325 27.0602 96.9632 24.5508C95.7939 22.0414 99.97 18.8628 103.478 17.0226C106.986 15.1824 113.5 16.1861 113.5 16.1861Z" fill="#FAA430"/>
<path d="M138.055 56.3365C138.055 56.3365 145.238 45.797 146.073 45.1278C147.41 44.2913 148.913 43.9568 150.416 43.7895C151.586 43.6222 152.755 43.2876 153.757 42.953C153.757 43.1203 153.924 43.1203 153.924 43.2876C153.924 43.4549 153.924 43.6222 153.924 43.6222C153.924 43.7895 153.757 43.9568 153.757 43.9568C153.59 44.1241 153.59 44.1241 153.423 44.2913C152.588 44.7932 151.586 45.2951 150.584 45.797C150.584 45.797 153.59 46.2989 154.76 46.6335C155.929 46.8007 157.265 45.9643 157.933 45.6297C158.1 45.6297 158.267 45.4624 158.434 45.4624C158.601 45.4624 158.769 45.4624 158.936 45.4624C159.103 45.4624 159.27 45.6297 159.27 45.6297C159.437 45.797 159.437 45.797 159.604 45.9643C159.604 45.9643 155.261 48.8083 154.76 49.1429C154.258 49.4774 148.078 50.1466 147.577 50.3139C146.909 50.4812 146.407 50.9831 145.906 51.9868C145.238 53.3252 142.566 58.8459 142.566 58.8459L138.055 56.3365Z" fill="#FAA430"/>
<path d="M67.2299 56.1692C67.2299 56.1692 60.2142 45.797 59.379 45.1278C58.0426 44.2913 56.5393 43.9568 55.0359 43.7895C53.8666 43.6222 52.6973 43.2876 51.6951 42.953C51.6951 43.1203 51.528 43.1203 51.528 43.2876C51.528 43.4549 51.528 43.6222 51.528 43.6222C51.528 43.7895 51.6951 43.9568 51.6951 43.9568C51.6951 44.1241 51.8621 44.1241 52.0292 44.2913C52.8644 44.7932 53.8666 45.2951 54.8689 45.797C54.8689 45.797 51.8621 46.2989 50.6928 46.6335C49.5235 46.8007 48.1872 45.9643 47.519 45.6297C47.352 45.6297 47.185 45.4624 47.0179 45.4624C46.8509 45.4624 46.6838 45.4624 46.5168 45.4624C46.3498 45.4624 46.1827 45.6297 46.1827 45.6297C46.0157 45.797 46.0157 45.797 45.8486 45.9643C45.8486 45.9643 50.1917 48.8083 50.6928 49.1429C51.194 49.4774 57.3745 50.1466 57.8756 50.3139C58.5438 50.4812 59.0449 50.9831 59.546 51.9868C60.2142 53.3252 62.8868 58.6786 62.8868 58.6786L67.2299 56.1692Z" fill="#FAA430"/>
<path d="M104.981 176.955L103.645 187.494H118.846C118.846 187.494 120.015 184.818 117.676 184.316C115.338 183.814 110.327 178.795 110.327 178.795L104.981 176.955Z" fill="#69AFE5"/>
<path d="M71.7399 174.947L67.731 184.818L82.4306 189.167C82.4306 189.167 84.268 186.993 82.0965 185.821C79.925 184.65 76.4171 178.461 76.4171 178.461L71.7399 174.947Z" fill="#69AFE5"/>
<path d="M89.1123 85.2782C82.4306 102.342 91.7849 121.414 90.6156 126.6C89.4464 132.12 73.0763 168.088 70.9048 176.955C73.7445 180.468 77.2523 179.799 77.2523 179.799C77.2523 179.799 98.6336 144.667 102.309 134.295C103.979 129.444 104.814 122.919 104.146 113.383C103.979 111.543 104.814 110.707 105.315 113.383C106.15 139.816 104.981 174.947 104.48 179.799C106.986 181.639 111.83 179.297 111.83 179.297C111.83 179.297 131.708 118.904 114.503 85.4455H89.1123V85.2782Z" fill="#505050"/>
<path d="M138.556 55.5L132.209 63.3628C128.868 58.5113 125.861 53.4925 123.189 48.3064C119.347 40.9455 111.663 40.7782 108.489 40.7782H107.654C107.32 40.7782 102.643 43.4549 97.1303 40.7782C95.1258 40.7782 86.6067 39.9418 82.2636 48.3064C79.5909 53.4925 76.5842 58.5113 73.2434 63.3628L66.8958 55.5L61.7175 58.6786C61.7175 58.6786 66.8958 68.5489 68.5662 71.5602C70.5707 75.2406 74.5797 75.7425 77.7535 70.7237C79.2569 68.5489 82.7647 63.6974 86.2726 59.0132C90.1145 72.7312 90.2816 79.7576 89.2793 85.4455H114.503L114.168 83.6053C113.834 77.9173 115.004 71.5602 118.512 60.5188C122.019 65.2031 125.527 69.0508 127.699 70.891C132.209 74.7388 134.882 75.0734 136.886 71.5602C138.556 68.5489 144.069 58.6786 144.069 58.6786L138.556 55.5Z" fill="#69AFE5"/>
<path d="M146.062 53.6966L141.433 51.0199L140.765 52.1789L145.394 54.8556L146.062 53.6966Z" fill="#666666"/>
<path d="M113.834 12.0038C113.834 12.0038 119.18 14.5132 111.162 22.7105C103.144 30.9079 106.986 35.2575 105.482 39.6072C102.81 47.4699 88.9453 46.2989 88.9453 46.2989C88.9453 46.2989 93.9566 40.2763 92.7873 31.2425C91.618 22.5433 95.2929 8.65792 113.834 12.0038Z" fill="#505050"/>
</svg>
