<svg width="300" height="200" viewBox="0 0 300 200" fill="none" xmlns="http://www.w3.org/2000/svg">
<path d="M107.413 175.379C107.413 177.083 107.055 178.977 106.516 180.492C105.799 182.197 104.902 183.523 103.826 184.849C102.57 186.174 101.314 187.121 99.6995 187.689C98.085 188.447 96.4705 188.636 94.856 188.636H32.7865C28.6605 188.636 24.5344 186.932 21.6642 183.712C18.6145 180.871 17 176.705 17 172.159C17 167.803 18.6145 163.447 21.6642 160.417C24.7138 157.197 28.6605 155.492 32.7865 155.492H32.9659C33.1452 150.947 34.5804 146.591 37.2713 142.992C39.9621 139.394 43.7293 136.932 47.8554 135.795C51.9814 134.659 56.4662 135.038 60.4128 136.742C64.3594 138.447 67.7678 141.667 69.9205 145.455C72.6114 143.371 76.0198 142.235 79.4283 142.235C83.5543 142.235 87.6803 143.939 90.5506 147.159C93.6002 150.189 95.2147 154.545 95.2147 158.902C95.2147 160.038 95.0353 160.985 94.856 162.121C98.085 162.121 101.314 163.636 103.646 166.099C105.978 168.75 107.234 171.97 107.413 175.379ZM268.507 76.7046C268.686 75.3788 268.866 74.2424 268.866 72.9167C268.866 69.3182 267.789 65.7197 265.996 62.6894C264.202 59.6591 261.511 57.197 258.461 55.4924C255.411 53.7879 252.003 53.2197 248.595 53.4091C245.186 53.7879 241.957 54.9243 239.087 57.0076C236.575 52.4621 232.629 48.8637 227.965 46.7803C223.3 44.697 218.098 44.3182 213.254 45.644C208.411 46.9697 203.926 50 200.876 54.1667C197.647 58.3334 195.853 63.447 195.853 68.75H195.674C190.83 68.75 186.166 70.8334 182.578 74.4318C179.17 78.0303 177.197 82.9546 177.197 88.2576C177.197 93.5606 179.17 98.2955 182.578 102.083C185.987 105.682 190.651 107.765 195.674 107.765H268.148C272.095 107.765 275.862 106.25 278.553 103.22C281.244 100.379 282.858 96.4015 283.038 92.2349C283.038 88.0682 281.603 84.0909 278.912 81.25C276.221 78.4091 272.454 76.7046 268.507 76.7046Z" fill="#DDDDDD"/>
<path d="M215.407 200H84.4512C82.8367 200 81.4016 199.242 80.1458 198.106C79.0695 196.97 78.3519 195.265 78.3519 193.561V25.1894C78.3519 24.4318 78.5313 23.4848 78.8901 22.7273C79.2489 21.9697 79.6077 21.2121 80.1458 20.6439C80.684 20.0758 81.4016 19.5076 82.1191 19.3182C82.8367 19.1288 83.5543 18.75 84.4512 18.75H215.586C217.201 18.75 218.636 19.5076 219.892 20.6439C220.968 21.7803 221.686 23.4848 221.686 25.1894V193.371C221.686 195.076 220.968 196.78 219.892 197.917C218.636 199.242 217.022 200 215.407 200Z" fill="#A4D9F7"/>
<path d="M165.536 170.644H136.475C132.887 170.644 129.299 169.129 126.788 166.288C124.276 163.636 122.662 159.849 122.662 156.061C122.662 152.273 124.097 148.485 126.788 145.833C129.299 143.182 132.887 141.477 136.475 141.477H165.716C169.303 141.477 172.891 142.992 175.403 145.833C177.914 148.674 179.349 152.273 179.349 156.25C179.349 160.038 177.914 163.826 175.223 166.477C172.712 169.129 169.303 170.644 165.536 170.644Z" fill="#FAA430" stroke="white" stroke-width="3" stroke-miterlimit="10"/>
<path d="M149.75 164.394L143.83 157.386L146.521 154.735L149.75 158.712L157.822 148.864L160.513 151.515L149.75 164.394Z" fill="#666666"/>
<path d="M177.017 194.318C176.658 194.318 176.12 194.129 175.762 193.939C175.403 193.75 175.044 193.371 174.865 192.992L171.636 184.47L166.433 190.909C166.254 191.098 166.074 191.288 165.716 191.288C165.536 191.288 165.177 191.288 164.998 191.288C164.819 191.288 164.46 191.098 164.28 190.909C164.101 190.72 163.922 190.53 163.922 190.152L163.742 160.038C163.742 159.659 163.922 159.47 164.101 159.091C164.28 158.901 164.46 158.902 164.46 158.712C164.639 158.712 164.819 158.523 164.998 158.523C165.357 158.523 165.716 158.712 166.074 158.902L186.525 181.629C186.704 181.818 186.884 182.008 186.884 182.197C186.884 182.386 186.884 182.765 186.704 182.955C186.525 183.144 186.346 183.333 186.166 183.523C185.987 183.712 185.807 183.712 185.449 183.712H185.269L177.735 182.197L180.964 190.53C181.143 190.72 181.143 191.098 181.143 191.288C181.143 191.477 181.143 191.856 180.964 192.045C180.785 192.235 180.605 192.424 180.426 192.614C180.246 192.803 179.888 192.803 179.708 192.992L177.555 193.75C177.376 194.129 177.197 194.318 177.017 194.318Z" fill="#505050"/>
<path d="M223.659 1.70455L217.201 12.5L216.304 0L223.659 1.70455ZM236.934 17.803L226.35 22.9167L238.19 25.5682L236.934 17.803ZM231.373 6.43939L222.942 16.2879L236.396 12.5L231.373 6.43939Z" fill="#FAA430"/>
<path d="M112.078 121.023H188.857V129.924H112.078V121.023ZM112.078 102.273V111.174H188.857V102.273H112.078ZM127.864 91.0985H171.994C173.071 91.0985 174.147 90.7197 175.044 89.7727C175.762 89.0152 176.3 87.8788 176.3 86.553V39.9621C176.3 38.8258 175.941 37.6894 175.044 36.7424C174.326 35.9849 173.25 35.4167 171.994 35.4167H127.864C126.788 35.4167 125.711 35.7955 124.814 36.7424C124.097 37.5 123.559 38.6364 123.559 39.9621V86.553C123.559 87.6894 123.917 88.8258 124.814 89.7727C125.711 90.7197 126.788 91.0985 127.864 91.0985Z" fill="#409AE1"/>
<path d="M169.124 76.7045H142.574L158.719 73.6742C158.181 72.9166 157.643 72.3484 157.284 71.7803L150.647 63.2575C150.467 63.0681 150.467 63.0681 150.467 62.8788C150.467 62.6894 150.467 62.5 150.467 62.5C151.902 58.3333 153.338 54.356 154.593 50.1894C154.593 50.1894 154.593 50 154.773 49.8106L169.124 76.7045ZM151.544 51.7045L153.338 47.5378C153.158 47.7272 152.979 47.7272 152.979 47.9166C150.109 50.5681 147.238 53.2197 144.189 55.8712C143.471 56.4394 142.933 57.0075 142.574 57.7651C140.242 62.1212 137.91 66.4772 135.578 70.8333C135.04 71.5909 134.681 72.5378 134.143 73.4848H134.86C137.013 73.4848 139.345 73.4848 141.677 73.4848C141.857 73.4848 142.036 73.4848 142.215 73.2954C142.395 73.106 142.574 72.9166 142.574 72.7272C145.444 65.7197 148.494 58.7121 151.544 51.7045Z" fill="white"/>
</svg>
