<svg width="300" height="200" viewBox="0 0 300 200" fill="none" xmlns="http://www.w3.org/2000/svg">
<path d="M150.406 199C205.38 199 249.812 154.38 249.812 99.5941C250 44.6197 205.38 0 150.406 0C95.4314 0 51 44.6197 51 99.4059C51 154.38 95.6197 199 150.406 199Z" fill="#A4D9F7"/>
<path d="M51.3765 91.6869C51.1883 94.1344 51 96.7701 51 99.4059C51 154.38 95.6197 198.812 150.406 198.812C205.192 198.812 249.812 154.192 249.812 99.4059C249.812 96.7701 249.623 94.1344 249.435 91.4986H51.3765V91.6869Z" fill="#87C4EE"/>
<path d="M234.938 151.933H98.2554C93.9252 151.933 90.5364 155.51 90.5364 159.652C90.5364 163.982 94.1135 167.371 98.2554 167.371H223.078C227.596 162.664 231.55 157.393 234.938 151.933Z" fill="#666666"/>
<path d="M195.214 150.05C194.461 151.368 193.519 152.309 192.201 153.062C190.884 153.816 189.566 154.192 188.06 154.192H113.505C112.187 154.192 110.681 153.816 109.552 153.251C108.234 152.498 107.292 151.556 106.727 150.238C106.163 149.297 105.786 148.167 105.786 147.038C105.786 145.908 105.974 144.779 106.539 143.837C110.116 138.377 139.674 90.369 139.863 89.9924L140.239 89.2393V42.5487H160.572V88.6745L160.949 89.4276C161.137 89.8041 186.93 131.035 194.649 143.272C195.402 144.214 195.779 145.343 195.967 146.661C195.967 147.791 195.779 148.921 195.214 150.05Z" fill="white"/>
<path d="M163.585 67.0237H138.357V88.8629C138.357 88.8629 108.422 137.248 105.598 142.708C102.585 148.167 104.845 157.393 116.329 157.393H187.683C195.402 157.393 202.933 151.18 195.967 139.319C188.813 127.646 163.773 87.545 163.773 87.545L163.585 67.0237Z" fill="#FFCB40"/>
<path d="M158.125 116.727C161.702 116.727 164.714 113.714 164.714 110.137C164.714 106.56 161.702 103.548 158.125 103.548C154.548 103.548 151.535 106.56 151.535 110.137C151.535 113.714 154.359 116.727 158.125 116.727Z" fill="white"/>
<path d="M141.934 125.952C144.946 125.952 147.582 123.504 147.582 120.304C147.582 117.291 145.134 114.656 141.934 114.656C138.733 114.656 136.286 117.103 136.286 120.304C136.286 123.316 138.733 125.952 141.934 125.952Z" fill="white"/>
<path d="M155.113 143.084C156.995 143.084 158.69 141.578 158.69 139.507C158.69 137.624 157.183 135.93 155.113 135.93C153.23 135.93 151.535 137.436 151.535 139.507C151.535 141.578 153.042 143.084 155.113 143.084Z" fill="white"/>
<path d="M148.9 84.1561C150.783 84.1561 152.477 82.65 152.477 80.579C152.477 78.6963 150.971 77.0019 148.9 77.0019C147.017 77.0019 145.323 78.508 145.323 80.579C145.323 82.65 147.017 84.1561 148.9 84.1561Z" fill="white"/>
<path d="M199.92 140.072C192.766 128.776 170.174 92.6282 166.785 86.9802V42.5487H172.621C172.998 42.5487 173.375 42.3605 173.563 42.1722C173.751 41.9839 173.939 41.6074 173.939 41.2309V37.6538C173.939 37.2772 173.751 36.9007 173.563 36.7124C173.375 36.5241 172.998 36.3359 172.621 36.3359H128.378C128.002 36.3359 127.625 36.5241 127.437 36.7124C127.249 36.9007 127.06 37.2772 127.06 37.6538V41.4191C127.06 41.7957 127.249 42.1722 127.437 42.3605C127.625 42.5487 128.002 42.737 128.378 42.737H134.215V87.7332C130.449 93.7578 104.468 135.742 101.268 140.825C100.138 142.708 99.5732 144.967 99.5732 147.038C99.5732 149.297 100.138 151.368 101.268 153.439C102.397 155.698 104.28 157.393 106.351 158.711C108.422 160.028 111.058 160.593 113.505 160.593H188.248C190.695 160.593 193.331 159.84 195.402 158.522C197.661 157.204 199.356 155.322 200.674 153.251C201.803 151.18 202.18 148.921 202.18 146.661C201.991 144.026 201.238 141.955 199.92 140.072ZM195.214 150.05C194.461 151.368 193.519 152.309 192.201 153.062C190.884 153.816 189.566 154.192 188.06 154.192H113.505C112.187 154.192 110.681 153.816 109.551 153.251C108.234 152.498 107.292 151.556 106.727 150.238C106.163 149.297 105.786 148.167 105.786 147.038C105.786 145.908 105.974 144.779 106.539 143.837C110.116 138.378 139.674 90.369 139.863 89.9925L140.239 89.2394V42.5487H160.572V88.6746L160.949 89.4277C161.137 89.8042 186.93 131.035 194.649 143.272C195.402 144.214 195.779 145.343 195.967 146.661C195.967 147.791 195.779 148.921 195.214 150.05Z" fill="#666666"/>
<path d="M195.214 150.05C194.461 151.368 193.519 152.309 192.201 153.062C190.884 153.816 189.566 154.192 188.06 154.192H113.505C112.187 154.192 110.681 153.816 109.552 153.251C108.234 152.498 107.292 151.556 106.727 150.238C106.163 149.297 105.786 148.167 105.786 147.038C105.786 145.908 105.974 144.779 106.539 143.837C110.116 138.377 139.674 90.369 139.863 89.9924L140.239 89.2393V42.5487H160.572V88.6745L160.949 89.4276C161.137 89.8041 186.93 131.035 194.649 143.272C195.402 144.214 195.779 145.343 195.967 146.661C195.967 147.791 195.779 148.921 195.214 150.05Z" fill="white"/>
<path d="M165.468 92.0634H135.156L104.845 142.143C100.891 148.544 105.598 156.828 113.129 156.828H186.93C195.214 157.393 200.674 148.356 196.155 141.202L165.468 92.0634Z" fill="#FFCB40"/>
<path d="M199.92 140.072C192.766 128.776 170.174 92.6282 166.785 86.9802V42.5487H172.621C172.998 42.5487 173.375 42.3605 173.563 42.1722C173.751 41.9839 173.939 41.6074 173.939 41.2309V37.6538C173.939 37.2772 173.751 36.9007 173.563 36.7124C173.375 36.5241 172.998 36.3359 172.621 36.3359H128.378C128.002 36.3359 127.625 36.5241 127.437 36.7124C127.249 36.9007 127.06 37.2772 127.06 37.6538V41.4191C127.06 41.7957 127.249 42.1722 127.437 42.3605C127.625 42.5487 128.002 42.737 128.378 42.737H134.215V87.7332C130.449 93.7578 104.468 135.742 101.268 140.825C100.138 142.708 99.5732 144.967 99.5732 147.038C99.5732 149.297 100.138 151.368 101.268 153.439C102.397 155.698 104.28 157.393 106.351 158.711C108.422 160.028 111.058 160.593 113.505 160.593H188.248C190.695 160.593 193.331 159.84 195.402 158.522C197.661 157.204 199.356 155.322 200.674 153.251C201.803 151.18 202.18 148.921 202.18 146.661C201.991 144.026 201.238 141.955 199.92 140.072Z" fill="#FAA430"/>
<path d="M141.934 125.952C144.946 125.952 147.582 123.504 147.582 120.304C147.582 117.291 145.134 114.656 141.934 114.656C138.733 114.656 136.286 117.103 136.286 120.304C136.286 123.316 138.733 125.952 141.934 125.952Z" fill="white"/>
<path d="M158.125 116.727C161.702 116.727 164.714 113.714 164.714 110.137C164.714 106.56 161.702 103.548 158.125 103.548C154.548 103.548 151.535 106.56 151.535 110.137C151.535 113.714 154.359 116.727 158.125 116.727Z" fill="white"/>
<path d="M155.113 143.084C156.995 143.084 158.69 141.578 158.69 139.507C158.69 137.624 157.183 135.93 155.113 135.93C153.23 135.93 151.535 137.436 151.535 139.507C151.535 141.578 153.042 143.084 155.113 143.084Z" fill="white"/>
<path d="M128.378 42.5487H134.215V87.545C133.65 88.298 132.897 89.6159 131.767 91.4986H169.421C168.103 89.2394 167.162 87.7332 166.597 86.7919V42.5487H172.433C172.81 42.5487 173.186 42.3605 173.375 42.1722C173.563 41.9839 173.751 41.6074 173.751 41.2309V37.6538C173.751 37.2772 173.563 36.9007 173.375 36.7124C173.186 36.5241 172.81 36.3359 172.433 36.3359H128.378C128.002 36.3359 127.625 36.5241 127.437 36.7124C127.249 36.9007 127.061 37.2772 127.061 37.6538V41.4191C127.061 41.7957 127.249 42.1722 127.437 42.3605C127.814 42.5487 128.002 42.5487 128.378 42.5487Z" fill="white"/>
<path d="M173.375 36.9006C173.186 36.7124 172.81 36.5241 172.433 36.5241H162.267V46.3141H158.501V87.5449L160.572 91.4986H169.609C168.291 89.2393 167.162 87.7332 166.597 86.7918V42.5487H172.433C172.81 42.5487 173.186 42.3604 173.375 42.1722C173.563 41.9839 173.751 41.6074 173.751 41.2308V37.6537C173.751 37.4655 173.751 37.0889 173.375 36.9006Z" fill="#C2C2C2"/>
<path d="M166.597 42.737H133.838V48.3851H166.597V42.737Z" fill="#666666"/>
<path d="M199.921 140.072C193.896 130.47 176.764 103.171 169.609 91.4986H160.572L193.143 143.272C195.967 147.603 192.766 153.439 187.495 153.439H101.268C102.397 155.51 104.28 157.393 106.351 158.522C108.422 159.84 111.058 160.405 113.505 160.405H188.248C190.695 160.405 193.331 159.652 195.402 158.334C197.661 157.016 199.356 155.133 200.674 153.062C201.803 150.992 202.18 148.732 202.18 146.473C201.992 144.026 201.238 141.955 199.921 140.072Z" fill="#F08400"/>
</svg>
