<svg width="300" height="200" viewBox="0 0 300 200" fill="none" xmlns="http://www.w3.org/2000/svg">
<path d="M185.997 76.4094V179.897C185.997 181.015 185.195 181.813 184.073 181.813H29.6634C28.541 181.813 27.7393 181.015 27.7393 179.897V76.4094C27.7393 75.2914 28.541 74.4929 29.6634 74.4929H183.912C185.035 74.4929 185.997 75.2914 185.997 76.4094Z" fill="#505050"/>
<path d="M179.102 81.3601H36.5581V171.432H179.102V81.3601Z" fill="#DDDDDD"/>
<path d="M6.89471 183.57H205.719C209.086 183.57 211.812 181.494 211.812 179.098V176.703H0V178.938C0 181.494 2.72582 183.57 6.093 183.57" fill="#737373"/>
<path d="M178.942 139.811V81.3601H120.256L178.942 139.811Z" fill="white"/>
<path d="M110.155 114.419L100.053 138.374H102.779L112.72 114.419H110.155Z" fill="#737373"/>
<path d="M86.4242 121.605C87.0656 121.605 87.707 121.445 88.188 120.966C88.669 120.487 88.9897 120.008 88.9897 119.369C88.9897 118.731 88.669 118.251 88.3483 117.772C87.3863 116.974 85.9432 116.974 84.9812 117.772C84.5001 118.251 84.1794 118.731 84.1794 119.369C84.1794 120.008 84.5001 120.487 84.8208 120.966C85.3018 121.286 85.7829 121.605 86.4242 121.605Z" fill="#737373"/>
<path d="M86.4242 134.381C87.0656 134.381 87.707 134.222 88.188 133.743C88.669 133.263 88.9897 132.784 88.9897 132.146C88.9897 131.507 88.669 131.028 88.3483 130.549C87.3863 129.75 85.9432 129.75 84.9812 130.549C84.5001 131.028 84.1794 131.507 84.1794 132.146C84.1794 132.784 84.5001 133.263 84.8208 133.743C85.3018 134.062 85.7829 134.381 86.4242 134.381Z" fill="#737373"/>
<path d="M100.053 114.419L90.1121 138.374H92.6775L102.779 114.419H100.053Z" fill="#737373"/>
<path d="M79.3695 117.613H56.9216V133.583H79.3695V117.613Z" fill="#409AE1"/>
<path d="M161.144 117.613H117.851V133.583H161.144V117.613Z" fill="#409AE1"/>
<path d="M235.222 37.4419L240.834 41.2748L241.315 49.739L241.636 58.5227L298.717 17.7985L243.399 33.2897L235.222 37.4419Z" fill="#666666"/>
<path d="M234.741 29.6165L235.222 37.6016L270.016 26.7419L235.703 42.8718L236.344 56.1271L300 17L234.741 29.6165Z" fill="#FAA430"/>
<path d="M141.101 136.457C141.101 154.664 185.997 158.017 219.348 153.546C277.552 145.88 300 101.163 248.53 88.0676C218.386 80.4019 206.841 57.7241 234.099 44.9479" stroke="#939393" stroke-miterlimit="10" stroke-dasharray="2 2"/>
</svg>
