<svg xmlns="http://www.w3.org/2000/svg" viewBox="0 0 300 200"><defs><style>.cls-1{fill:#a4d9f7;}.cls-2{fill:#666;}.cls-3{fill:#fff;}.cls-4{fill:#ffcb40;}.cls-5{fill:#87c4ee;}</style></defs><title>als-waiting-beaker</title><g id="Layer_1" data-name="Layer 1"><circle class="cls-1" cx="150.211" cy="100.5" r="98"/><path class="cls-2" d="M150.211,8.5a92,92,0,1,1-92,92,92.1,92.1,0,0,1,92-92m0-6a98,98,0,1,0,98,98,98,98,0,0,0-98-98Z"/><path class="cls-3" d="M194.272,150.353a8.294,8.294,0,0,1-6.993,4.147H113.821a7.5,7.5,0,0,1-6.832-3.859,6.345,6.345,0,0,1-.108-6.3c3.454-5.463,32.585-52.588,32.879-53.063l.451-.73V44.5h20V89.882l.456.733c.255.408,25.506,40.954,33.115,53.028A6.346,6.346,0,0,1,194.272,150.353Z"/><path class="cls-4" d="M163.058,68.5H138.211V90.081s-29.424,47.611-32.366,53S105.191,157.5,116.47,157.5h70.29c7.683,0,15.1-6.19,8.124-17.733s-31.673-51.024-31.673-51.024Z"/><circle class="cls-3" cx="157.711" cy="111" r="6.5"/><circle class="cls-3" cx="141.711" cy="121" r="5.5"/><circle class="cls-3" cx="154.711" cy="140" r="3.5"/><circle class="cls-3" cx="148.711" cy="82" r="3.5"/><path class="cls-2" d="M198.9,140.41c-7.044-11.159-29.221-46.7-32.692-52.262V44.5h5.723a1.277,1.277,0,0,0,1.277-1.277V39.777a1.277,1.277,0,0,0-1.277-1.277H128.488a1.277,1.277,0,0,0-1.277,1.277v3.446a1.277,1.277,0,0,0,1.277,1.277h5.723V88.822c-3.726,6.017-29.239,47.213-32.446,52.275a12.268,12.268,0,0,0-.089,12.425,13.5,13.5,0,0,0,12.089,6.978h73.572a14.336,14.336,0,0,0,12.248-7.262A12.365,12.365,0,0,0,198.9,140.41Zm-4.631,9.943a8.294,8.294,0,0,1-6.993,4.147H113.821a7.5,7.5,0,0,1-6.832-3.859,6.345,6.345,0,0,1-.108-6.3c3.454-5.463,32.585-52.588,32.879-53.063l.451-.73V44.5h20V89.882l.456.733c.255.408,25.506,40.954,33.115,53.028A6.346,6.346,0,0,1,194.272,150.353Z"/><circle class="cls-1" cx="150.211" cy="100.5" r="98"/><path class="cls-2" d="M150.211,8.5a92,92,0,1,1-92,92,92.1,92.1,0,0,1,92-92m0-6a98,98,0,1,0,98,98,98,98,0,0,0-98-98Z"/><path class="cls-3" d="M194.272,150.353a8.294,8.294,0,0,1-6.993,4.147H113.821a7.5,7.5,0,0,1-6.832-3.859,6.345,6.345,0,0,1-.108-6.3c3.454-5.463,32.585-52.588,32.879-53.063l.451-.73V44.5h20V89.882l.456.733c.255.408,25.506,40.954,33.115,53.028A6.346,6.346,0,0,1,194.272,150.353Z"/><rect class="cls-4" x="97.211" y="60.5" width="107" height="109"/><path class="cls-2" d="M198.9,140.41c-7.044-11.159-29.221-46.7-32.692-52.262V44.5h5.723a1.277,1.277,0,0,0,1.277-1.277V39.777a1.277,1.277,0,0,0-1.277-1.277H128.488a1.277,1.277,0,0,0-1.277,1.277v3.446a1.277,1.277,0,0,0,1.277,1.277h5.723V88.822c-3.726,6.017-29.239,47.213-32.446,52.275a12.268,12.268,0,0,0-.089,12.425,13.5,13.5,0,0,0,12.089,6.978h73.572a14.336,14.336,0,0,0,12.248-7.262A12.365,12.365,0,0,0,198.9,140.41Zm-4.631,9.943a8.294,8.294,0,0,1-6.993,4.147H113.821a7.5,7.5,0,0,1-6.832-3.859,6.345,6.345,0,0,1-.108-6.3c3.454-5.463,32.585-52.588,32.879-53.063l.451-.73V44.5h20V89.882l.456.733c.255.408,25.506,40.954,33.115,53.028A6.346,6.346,0,0,1,194.272,150.353Z"/><circle class="cls-3" cx="141.711" cy="121" r="5.5"/><circle class="cls-3" cx="148.711" cy="82" r="3.5"/><circle class="cls-3" cx="157.711" cy="111" r="6.5"/><circle class="cls-3" cx="154.711" cy="140" r="3.5"/><path class="cls-5" d="M149.77,2.485a97.981,97.981,0,1,0,97.98,97.981A97.981,97.981,0,0,0,149.77,2.485Zm44.5,147.868a8.294,8.294,0,0,1-6.993,4.147H113.821a7.5,7.5,0,0,1-6.832-3.859,6.345,6.345,0,0,1-.108-6.3c3.454-5.463,32.585-52.588,32.879-53.063l.451-.73V44.5h20V89.882l.456.733c.255.408,25.506,40.954,33.115,53.028A6.346,6.346,0,0,1,194.272,150.353Z"/><path class="cls-2" d="M198.9,140.41c-7.044-11.159-29.221-46.7-32.692-52.262V44.5h5.723a1.277,1.277,0,0,0,1.277-1.277V39.777a1.277,1.277,0,0,0-1.277-1.277H128.488a1.277,1.277,0,0,0-1.277,1.277v3.446a1.277,1.277,0,0,0,1.277,1.277h5.723V88.822c-3.726,6.017-29.239,47.213-32.446,52.275a12.268,12.268,0,0,0-.089,12.425,13.5,13.5,0,0,0,12.089,6.978h73.572a14.336,14.336,0,0,0,12.248-7.262A12.365,12.365,0,0,0,198.9,140.41Zm-4.631,9.943a8.294,8.294,0,0,1-6.993,4.147H113.821a7.5,7.5,0,0,1-6.832-3.859,6.345,6.345,0,0,1-.108-6.3c3.454-5.463,32.585-52.588,32.879-53.063l.451-.73V44.5h20V89.882l.456.733c.255.408,25.506,40.954,33.115,53.028A6.346,6.346,0,0,1,194.272,150.353Z"/><path class="cls-2" d="M150.211,8.5a92,92,0,1,1-92,92,92.1,92.1,0,0,1,92-92m0-6a98,98,0,1,0,98,98,98,98,0,0,0-98-98Z"/></g></svg>