<svg xmlns="http://www.w3.org/2000/svg" viewBox="0 0 300 200"><defs><style>.cls-1{fill:#ffcb40;}.cls-2{fill:#fff;}.cls-3{fill:#666;}.cls-4{fill:#69afe5;}.cls-5{fill:#b2b2b2;}</style></defs><title>als-take-notes</title><g id="Layer_1" data-name="Layer 1"><path class="cls-1" d="M162.515,27.785H71.469A3.069,3.069,0,0,0,68.4,30.853V172.327a3.069,3.069,0,0,0,3.069,3.069H204.432a3.069,3.069,0,0,0,3.069-3.069V72.77Z"/><polygon class="cls-2" points="164.413 29.5 161.5 29.5 161.5 74.5 209.579 74.5 164.413 29.5"/><path class="cls-3" d="M163.96,24.5H67.732A3.232,3.232,0,0,0,64.5,27.732V176.268a3.232,3.232,0,0,0,3.232,3.232H208.268a3.232,3.232,0,0,0,3.232-3.232V71.843ZM70.5,172.5V30.5h90.242L204.5,74.06V172.5Z"/><rect class="cls-2" x="83.5" y="86.5" width="84" height="25"/><rect class="cls-2" x="83.5" y="130.5" width="112" height="25"/><polygon class="cls-4" points="84.5 111.5 80.5 111.5 80.5 84.5 167.5 84.5 167.5 87.5 84.5 87.5 84.5 111.5"/><polygon class="cls-4" points="84.5 155.5 80.5 155.5 80.5 128.5 195.5 128.5 195.5 131.5 84.5 131.5 84.5 155.5"/><path class="cls-3" d="M121.875,106.418a2.881,2.881,0,0,1-.728-.089,3.839,3.839,0,0,1-2.28-2.209c-.7-1.264-1.014-1.843-2.878-1.144-4.057,1.519-6.373,1.613-7.508.3s-.737-3.489,1.252-7.106c.636-1.155.555-1.619.47-1.7-1.221-1.176-10.48,1.54-20.762,7.709a1,1,0,0,1-1.029-1.715c4.939-2.964,19.8-10.691,23.179-7.435.933.9.9,2.281-.1,4.105-2.144,3.9-1.565,4.751-1.492,4.835s.86.8,5.293-.866c3.48-1.3,4.639.8,5.331,2.05.39.707.654,1.143,1.027,1.239.306.084,1.072.046,2.8-1.043,7.386-4.665,12.144-.435,12.344-.251a1,1,0,0,1-1.352,1.474c-.15-.134-3.876-3.351-9.924.468A7.2,7.2,0,0,1,121.875,106.418Z"/><path class="cls-3" d="M158.387,106.278a3.152,3.152,0,0,1-1.953-.611c-1.747-1.318-1.773-4.426-1.569-7.291.029-.4.047-1.34-.39-1.539-1-.466-4.567,1.079-9.4,5.909a1,1,0,0,1-1.414-1.414c1.873-1.873,8.244-7.869,11.643-6.314.8.364,1.714,1.266,1.554,3.5-.223,3.126.039,4.994.779,5.552.415.314,1.153.28,2.192-.1a1,1,0,1,1,.684,1.879A6.307,6.307,0,0,1,158.387,106.278Z"/><path class="cls-5" d="M92.943,149.421a3.283,3.283,0,0,1-1.129-.189,3.013,3.013,0,0,1-1.922-2.483c-.8-4.184,1.793-8.379,1.9-8.556a1,1,0,0,1,1.695,1.062c-.023.037-2.284,3.717-1.634,7.119.154.8.519.935.64.979.4.145,1.981.357,5.923-2.871,8.289-6.786,10.718-7.032,12.106-6.289,1.506.806,1.3,2.859,1.238,3.533a1.973,1.973,0,0,0,.5,1.722c1.034,1,3.4.931,4.224.817a1,1,0,0,1,.272,1.981c-.4.057-3.966.486-5.88-1.353a3.913,3.913,0,0,1-1.11-3.363c.113-1.146-.1-1.524-.192-1.574-.352-.185-2.1-.3-9.895,6.073C96.931,148.285,94.67,149.421,92.943,149.421Z"/><path class="cls-5" d="M118.242,150.537a1,1,0,0,1-.315-1.949,24.462,24.462,0,0,0,3.775-1.62,4.452,4.452,0,0,1-1.631-4.1,6.729,6.729,0,0,1,7.427-5.281c2.544.249,3.074,1.628,3.163,2.428.212,1.894-1.763,4.452-4.775,6.675.085.018.172.035.26.051,6.73,1.243,10.1-3.03,12.555-6.152l.125-.158a1,1,0,1,1,1.571,1.236l-.125.159c-2.614,3.324-6.565,8.354-14.49,6.882a11.338,11.338,0,0,1-2.075-.577,26.818,26.818,0,0,1-5.15,2.357A.989.989,0,0,1,118.242,150.537Zm8.569-10.986c-2.465,0-4.508,1.81-4.76,3.595a2.641,2.641,0,0,0,1.524,2.713c3.265-2.134,5.217-4.563,5.1-5.624-.051-.463-.881-.612-1.37-.66C127.137,139.56,126.973,139.551,126.811,139.551Z"/><path class="cls-5" d="M153.4,149.1a3.8,3.8,0,0,1-2.967-1.3c-.926-1.108-1.608-3.293.4-7.414.378-.775.3-1.061.3-1.064a4.2,4.2,0,0,0-1.257.25c-2.135.745-6.05,3.631-8.087,8.529a1,1,0,0,1-1.847-.767c2.615-6.287,7.849-9.658,10.563-9.956a2.272,2.272,0,0,1,2.279.821c.525.746.473,1.776-.155,3.064-1.186,2.428-1.428,4.343-.667,5.253a2.194,2.194,0,0,0,2.278.458,12.157,12.157,0,0,0,5.168-3.386,1,1,0,0,1,1.525,1.294,14,14,0,0,1-6.147,4.015A5.089,5.089,0,0,1,153.4,149.1Z"/><path class="cls-3" d="M162.1,143.99l2.13-3.367-2.2-1.419-2.153,3.489a1.244,1.244,0,0,0,.338,1.748h0A1.332,1.332,0,0,0,162.1,143.99Z"/><polygon class="cls-4" points="227.433 23.917 235.688 29.055 239.766 31.611 175.031 134.808 170.83 132.241 162.698 127.114 227.433 23.917"/><polygon class="cls-1" points="240.906 26.922 238.49 30.766 228.718 24.642 231.257 20.821 240.906 26.922"/><polygon class="cls-1" points="159.916 140.739 162.698 127.114 175.031 134.808 163.88 143.166 159.916 140.739"/><polygon class="cls-3" points="239.766 31.611 175.031 134.808 170.83 132.241 235.688 29.055 239.766 31.611"/><path class="cls-4" d="M234.393,12.873a2.083,2.083,0,0,1,2.882-.742l4.654,2.988c.465.285,1.162.711,1.859,1.14.589.3,1.286.722,1.751,1.007l.578.419a2.15,2.15,0,0,1,.61,2.87l-4.545,7.212-4.059-2.679-8.14-5.125Z"/><path class="cls-3" d="M238.408,24.623l4.976-7.909a.806.806,0,0,1,.873-.169,11.673,11.673,0,0,0,1.282.721h0a2.967,2.967,0,0,1,.893,3.878L242.6,27.193c-.274.341-.647.433-.869.169L238.7,25.507A.675.675,0,0,1,238.408,24.623Z"/></g></svg>