<svg xmlns="http://www.w3.org/2000/svg" viewBox="0 0 300 200"><title>als-decide-user-count</title><path d="M157.254,89.5h88.4a.8.8,0,0,1,.8.8v57.2h-90V90.3A.8.8,0,0,1,157.254,89.5Z" fill="#fff"/><path d="M189.452,112.5l-7.326,11.129,7.24,10.871h-6.009l-3.683-6.486q-.348-.593-.818-1.514h-.082q-.083.185-.86,1.514L174.17,134.5h-5.987l7.476-10.785-7.09-11.215h5.684l3.9,7.328q.441.813.859,1.672h.065l5.04-9Zm4,20.3v-4.5a11.6,11.6,0,0,0,6.218,1.919,8.124,8.124,0,0,0,5.108-1.5,4.852,4.852,0,0,0,1.935-4.02,4.409,4.409,0,0,0-1.978-3.838,9.734,9.734,0,0,0-5.63-1.374q-1.261,0-5.109.242l1.109-15.232h15.347v4H199.3l-.522,7.253q1.5-.081,2.718-.081,4.956,0,7.652,2.363a8.122,8.122,0,0,1,2.717,6.465,8.566,8.566,0,0,1-3.108,6.909Q205.67,134,200.257,134A15,15,0,0,1,193.452,132.8Zm32.738,2.406a8.627,8.627,0,0,1-7.519-3.932q-2.686-3.931-2.686-11.365,0-8.165,2.815-12.353a9.187,9.187,0,0,1,8.121-4.19q10.163,0,10.162,15.791,0,7.821-2.879,11.946A9.211,9.211,0,0,1,226.19,135.209Zm.494-27.865q-5.607,0-5.607,12.353,0,11.559,5.5,11.559,5.413,0,5.414-11.752Q231.991,107.344,226.684,107.344Z" fill="#69afe5"/><path d="M267.847,166.875l-14.395-12.937V90.712a7.211,7.211,0,0,0-7.211-7.212H157.664a7.212,7.212,0,0,0-7.212,7.212v63.066l-14.394,12.937a4.889,4.889,0,0,0-1.44,5.111c.8,2.237,3.359,3.674,6.4,3.674H262.888c3.039,0,5.439-1.437,6.4-3.674A4.853,4.853,0,0,0,267.847,166.875ZM157.254,89.5h88.4a.8.8,0,0,1,.8.8v57.2h-90V90.3A.8.8,0,0,1,157.254,89.5Z" fill="#666"/><path d="M268.452,129.347c.685,3.525-2.2,6.57-6,6.891V72.616c.275-.481-.045-.8-.526-1.116H165.932a7.1,7.1,0,0,1,7.212-6h88.622a6.392,6.392,0,0,1,6.686,7.276Zm16-74.2c.711-4.006-2.654-7.372-6.66-7.648H189.01c-3.686.276-6.731,3-7.212,6h95.994c.48.687.8,1.007.66,1.488V118.61c3.667-.321,6.551-3.366,6-6.891Z" fill="#69afe5"/><path d="M76.385,132a10,10,0,1,1,10-10A10,10,0,0,1,76.385,132Zm0,0a16,16,0,0,0-16,16h32A16,16,0,0,0,76.385,132Z" fill="#ffcb40"/><path d="M83.637,131.539a12,12,0,1,0-14.5,0A18.016,18.016,0,0,0,58.385,148h4a14,14,0,1,1,28,0h4A18.016,18.016,0,0,0,83.637,131.539ZM68.385,122a8,8,0,1,1,8,8A8.009,8.009,0,0,1,68.385,122Z" fill="#666"/><path d="M50,83.778a8.889,8.889,0,1,1,8.889-8.889A8.889,8.889,0,0,1,50,83.778Zm0,0A14.221,14.221,0,0,0,35.778,98H64.222A14.221,14.221,0,0,0,50,83.778Z" fill="#ffcb40"/><path d="M56.446,83.368a10.667,10.667,0,1,0-12.892,0A16.014,16.014,0,0,0,34,98h3.556a12.444,12.444,0,0,1,24.888,0H66A16.014,16.014,0,0,0,56.446,83.368ZM42.889,74.889A7.111,7.111,0,1,1,50,82,7.119,7.119,0,0,1,42.889,74.889Z" fill="#666"/><path d="M103,83.778a8.889,8.889,0,1,1,8.889-8.889A8.889,8.889,0,0,1,103,83.778Zm0,0A14.221,14.221,0,0,0,88.778,98h28.444A14.221,14.221,0,0,0,103,83.778Z" fill="#ffcb40"/><path d="M109.446,83.368a10.667,10.667,0,1,0-12.892,0A16.014,16.014,0,0,0,87,98h3.556a12.444,12.444,0,0,1,24.888,0H119A16.014,16.014,0,0,0,109.446,83.368ZM95.889,74.889A7.111,7.111,0,1,1,103,82,7.119,7.119,0,0,1,95.889,74.889Z" fill="#666"/><path d="M27.8,40.211a7.369,7.369,0,1,1,7.368-7.369A7.369,7.369,0,0,1,27.8,40.211Zm0,0A11.79,11.79,0,0,0,16.013,52H39.592A11.789,11.789,0,0,0,27.8,40.211Z" fill="#ffcb40"/><path d="M33.146,39.871a8.842,8.842,0,1,0-10.687,0A13.276,13.276,0,0,0,14.539,52h2.948a10.316,10.316,0,1,1,20.631,0h2.948A13.274,13.274,0,0,0,33.146,39.871ZM21.908,32.842a5.895,5.895,0,1,1,5.9,5.9A5.9,5.9,0,0,1,21.908,32.842Z" fill="#666"/><path d="M76.385,40.211a7.369,7.369,0,1,1,7.368-7.369A7.369,7.369,0,0,1,76.385,40.211Zm0,0A11.79,11.79,0,0,0,64.6,52H88.174A11.789,11.789,0,0,0,76.385,40.211Z" fill="#ffcb40"/><path d="M81.728,39.871a8.842,8.842,0,1,0-10.687,0A13.275,13.275,0,0,0,63.122,52h2.947A10.316,10.316,0,1,1,86.7,52h2.947A13.274,13.274,0,0,0,81.728,39.871ZM70.49,32.842a5.895,5.895,0,1,1,5.9,5.9A5.9,5.9,0,0,1,70.49,32.842Z" fill="#666"/><path d="M125.737,40.211a7.369,7.369,0,1,1,7.368-7.369A7.369,7.369,0,0,1,125.737,40.211Zm0,0A11.79,11.79,0,0,0,113.947,52h23.579A11.789,11.789,0,0,0,125.737,40.211Z" fill="#ffcb40"/><path d="M131.08,39.871a8.842,8.842,0,1,0-10.687,0A13.275,13.275,0,0,0,112.474,52h2.947a10.316,10.316,0,0,1,20.632,0H139A13.274,13.274,0,0,0,131.08,39.871Zm-11.238-7.029a5.895,5.895,0,1,1,5.895,5.9A5.9,5.9,0,0,1,119.842,32.842Z" fill="#666"/></svg>