<svg xmlns="http://www.w3.org/2000/svg" viewBox="0 0 300 200"><title>als-get-azure-subscription</title><path d="M109.5,167.9A12.019,12.019,0,0,1,97.44,180H38.667a15,15,0,1,1,0-30h.17A18.864,18.864,0,0,1,74,140.966a14.955,14.955,0,0,1,9-2.9,15.142,15.142,0,0,1,15.118,15,16.84,16.84,0,0,1-.34,2.9A12.024,12.024,0,0,1,109.5,167.9ZM262.7,78.96a19.574,19.574,0,0,0,.4-3.38,17.853,17.853,0,0,0-28.3-14.12A22.16,22.16,0,0,0,193.537,72h-.2a17.5,17.5,0,1,0,0,35H262.3a14.022,14.022,0,0,0,.4-28.04Z" fill="#69afe5"/><path d="M212.149,190H87.753a5.728,5.728,0,0,1-5.728-5.728V32.742A5.741,5.741,0,0,1,87.766,27H212.3a5.729,5.729,0,0,1,5.728,5.728v151.4A5.894,5.894,0,0,1,212.149,190Z" fill="#fff"/><path d="M212.148,192H87.753a7.737,7.737,0,0,1-7.729-7.729V32.742A7.751,7.751,0,0,1,87.767,25H212.3a7.736,7.736,0,0,1,7.727,7.728v151.4A7.885,7.885,0,0,1,212.148,192ZM87.767,29a3.747,3.747,0,0,0-3.743,3.742V184.271A3.733,3.733,0,0,0,87.753,188h124.4a3.879,3.879,0,0,0,3.876-3.876V32.728A3.731,3.731,0,0,0,212.3,29Z" fill="#666"/><path d="M163.171,162h-24.28a11.5,11.5,0,0,1,0-23H163.3a11.5,11.5,0,1,1-.133,23Z" fill="#ffcb40"/><path d="M163.171,164h-24.28a13.5,13.5,0,0,1,0-27H163.3a13.5,13.5,0,1,1-.133,27Zm-24.28-23a9.5,9.5,0,0,0,0,19h24.28a9.5,9.5,0,1,0,.133-19Z" fill="#666"/><path d="M149.731,158l-5.706-6.26,2.573-2.39,3.133,3.528,7.72-8.878,2.574,2.39Z" fill="#666"/><path d="M177.85,179.748a2.034,2.034,0,0,1-1.89-1.175l-3.122-7.706-5.013,5.872a1.331,1.331,0,0,1-2.3-.661l-.165-27.156a1.442,1.442,0,0,1,.329-.807,1.236,1.236,0,0,1,.9-.367,1.442,1.442,0,0,1,.986.367l19.474,20.477a1.02,1.02,0,0,1,.164,1.247,1.413,1.413,0,0,1-1.15.661h-.247l-7.231-1.321,3.041,7.56a1.684,1.684,0,0,1-1.233,2.275l-1.972.66C178.261,179.674,178.1,179.748,177.85,179.748Z" fill="#fff"/><path d="M177.85,181.248a3.554,3.554,0,0,1-3.259-2.061l-2.216-5.468-3.409,3.993a2.823,2.823,0,0,1-4.942-1.634l-.164-27.147a2.85,2.85,0,0,1,.624-1.711,2.712,2.712,0,0,1,2.109-.972,2.941,2.941,0,0,1,1.983.745l.09.088,19.474,20.478a2.535,2.535,0,0,1,.385,3.014l-.063.1a2.909,2.909,0,0,1-2.4,1.323l-.515-.024L181,171.144l2.025,5.035a3.014,3.014,0,0,1-.062,2.517,3.369,3.369,0,0,1-2.163,1.764l-2.127.714H178.5A3.208,3.208,0,0,1,177.85,181.248ZM173.3,168.015l4.05,10a.533.533,0,0,0,.481.238c.1-.02.19-.036.271-.048l1.819-.609c.225-.065.307-.141.333-.194l-.017-.1-4.056-10.084,9.067,1.657-18.385-19.332.157,25.832Zm-6.277,8.048v0Zm-.346-.291,0,0Z" fill="#666"/><path d="M220.037,11.469l-6.128,9.748L212.977,10Zm12.656,14.554L222.7,30.7l11.323,2.4Zm-5.329-10.148-7.993,8.813,12.788-3.338Z" fill="#ffcb40"/><path d="M114.024,119h73v8h-73Zm0-17v8h73v-8Zm15-10h42a4,4,0,0,0,4-4V46a4,4,0,0,0-4-4h-42a4,4,0,0,0-4,4V88A4,4,0,0,0,129.024,92Z" fill="#69afe5"/><path d="M168.251,79H143.025v-.049l15.314-2.743c-.5-.611-.941-1.15-1.382-1.688l-6.305-7.63a.646.646,0,0,1-.217-.339.66.66,0,0,1,.023-.405c1.334-3.674,2.646-7.358,3.962-11.04.023-.066.051-.127.12-.3ZM151.543,56.539l1.685-3.688c-.206.154-.288.211-.363.27q-4.148,3.54-8.293,7.087a6.2,6.2,0,0,0-1.543,1.632c-2.207,3.947-4.453,7.872-6.682,11.8-.431.762-.856,1.528-1.322,2.355h.6c2.128,0,4.257-.017,6.394.013a.818.818,0,0,0,.549-.121.848.848,0,0,0,.346-.453Q147.2,65.979,151.543,56.539Z" fill="#fff"/></svg>