<svg xmlns="http://www.w3.org/2000/svg" viewBox="0 0 300 200"><title>als-create-lab</title><path d="M202.5,133v15h-5V138h-40v10h-5V138h-41v10h-5V138h-40v10h-5V133h68V121h5v12Z" fill="#666"/><path d="M76.238,165.814A1.488,1.488,0,0,1,74.75,167.3H52.745a1.514,1.514,0,0,1-1.507-1.481V149.782a1.513,1.513,0,0,1,1.507-1.48H74.73a1.515,1.515,0,0,1,1.508,1.48Z" fill="#ffcb40"/><path d="M74.75,168.8H52.745a3,3,0,0,1-3.008-2.981V149.782a3,3,0,0,1,3.008-2.98H74.729a3,3,0,0,1,3.008,2.98v16.032A2.991,2.991,0,0,1,74.75,168.8Zm-.013-19.02-21.992.02-.008,16.019,22-.019Z" fill="#666"/><path d="M79.572,176.8H47.907a2.862,2.862,0,0,1-2.536-1.471,3.032,3.032,0,0,1,.06-3.011l4.286-6.518H77.761L82,172.239a3.067,3.067,0,0,1,.112,3.091A2.86,2.86,0,0,1,79.572,176.8Z" fill="#666"/><path d="M121.571,165.814a1.488,1.488,0,0,1-1.488,1.488h-22a1.515,1.515,0,0,1-1.507-1.481V149.782a1.513,1.513,0,0,1,1.507-1.48h21.985a1.515,1.515,0,0,1,1.508,1.48Z" fill="#ffcb40"/><path d="M120.083,168.8h-22a3,3,0,0,1-3.007-2.981V149.782a3,3,0,0,1,3.007-2.98h21.985a3,3,0,0,1,3.008,2.98v16.032A2.991,2.991,0,0,1,120.083,168.8Zm-.012-19.02-21.993.02-.007,16.019,22-.019Z" fill="#666"/><path d="M124.906,176.8H93.24a2.863,2.863,0,0,1-2.536-1.471,3.032,3.032,0,0,1,.061-3.011L95.05,165.8h28.044l4.235,6.437a3.069,3.069,0,0,1,.113,3.091A2.862,2.862,0,0,1,124.906,176.8Z" fill="#666"/><path d="M166.9,165.814a1.488,1.488,0,0,1-1.487,1.488h-22a1.515,1.515,0,0,1-1.508-1.481V149.782a1.513,1.513,0,0,1,1.508-1.48H165.4a1.515,1.515,0,0,1,1.507,1.48Z" fill="#ffcb40"/><path d="M165.417,168.8h-22a3,3,0,0,1-3.008-2.981V149.782a3,3,0,0,1,3.008-2.98H165.4a3,3,0,0,1,3.008,2.98v16.032A2.991,2.991,0,0,1,165.417,168.8Zm-.013-19.02-21.992.02-.008,16.019,22-.019Z" fill="#666"/><path d="M170.239,176.8H138.573a2.864,2.864,0,0,1-2.536-1.471,3.035,3.035,0,0,1,.061-3.011l4.286-6.518h28.044l4.234,6.437a3.064,3.064,0,0,1,.113,3.091A2.86,2.86,0,0,1,170.239,176.8Z" fill="#666"/><path d="M212.238,165.814a1.488,1.488,0,0,1-1.488,1.488h-22a1.514,1.514,0,0,1-1.507-1.481V149.782a1.513,1.513,0,0,1,1.507-1.48H210.73a1.515,1.515,0,0,1,1.508,1.48Z" fill="#ffcb40"/><path d="M210.75,168.8h-22a3,3,0,0,1-3.008-2.981V149.782a3,3,0,0,1,3.008-2.98h21.984a3,3,0,0,1,3.008,2.98v16.032A2.991,2.991,0,0,1,210.75,168.8Zm-.013-19.02-21.992.02-.008,16.019,22-.019Z" fill="#666"/><path d="M215.572,176.8H183.907a2.862,2.862,0,0,1-2.536-1.471,3.032,3.032,0,0,1,.06-3.011l4.286-6.518h28.044L218,172.239a3.067,3.067,0,0,1,.112,3.091A2.86,2.86,0,0,1,215.572,176.8Z" fill="#666"/><path d="M162.5,100.8H99.952a4.215,4.215,0,0,1-4.214-4.215V50.017A4.215,4.215,0,0,1,99.952,45.8h62.571a4.215,4.215,0,0,1,4.215,4.215v46.66A4.186,4.186,0,0,1,162.5,100.8Z" fill="#fff"/><path d="M162.5,102.8H99.952a6.222,6.222,0,0,1-6.215-6.215V50.017A6.222,6.222,0,0,1,99.952,43.8h62.57a6.222,6.222,0,0,1,6.215,6.215v46.66A6.191,6.191,0,0,1,162.5,102.8Zm-62.543-55a2.217,2.217,0,0,0-2.215,2.215v46.57A2.217,2.217,0,0,0,99.952,98.8H162.5a2.188,2.188,0,0,0,2.242-2.125V50.017a2.217,2.217,0,0,0-2.215-2.215Z" fill="#666"/><path d="M174.485,121.8H87.61a4.547,4.547,0,0,1-4.032-2.448,4.409,4.409,0,0,1,.263-4.566L94.277,98.8h73.277l10.718,16.012a4.6,4.6,0,0,1,.12,4.686A4.428,4.428,0,0,1,174.485,121.8Z" fill="#666"/><path d="M147.861,75.8H135.738v12h-7v-13h-13v-7h12v-13h7v14h13v7Z" fill="#ffcb40"/><path d="M287.853,131.579l-21.61-33.613a3.458,3.458,0,0,1-.506-1.483V68.8h2.389a1.616,1.616,0,0,0,1.611-1.612V64.414a1.616,1.616,0,0,0-1.611-1.612H240.349a1.616,1.616,0,0,0-1.612,1.611V67.19a1.616,1.616,0,0,0,1.612,1.612h2.388V96.359a2.343,2.343,0,0,1-.5,1.484l-21.61,33.736a8.429,8.429,0,0,0-.253,8.774,8.758,8.758,0,0,0,7.709,4.449H280.4a8.66,8.66,0,0,0,7.709-4.449A8.16,8.16,0,0,0,287.853,131.579Zm-4.829,5.485a3.288,3.288,0,0,1-2.939,1.738H229.39a3.288,3.288,0,0,1-2.939-1.738,3.242,3.242,0,0,1,.123-3.475l20.939-33.763a7.5,7.5,0,0,0,1.224-4.344V67.8h12v27.68a8.066,8.066,0,0,0,1.225,4.344l20.94,33.763A3.25,3.25,0,0,1,283.024,137.064ZM262.6,108.8H247.431l-16.275,24.9a1.334,1.334,0,0,0,1.11,2.1h44.878a1.394,1.394,0,0,0,1.109-2.1Zm-18.3,20.239a1.98,1.98,0,0,1-1.736.992,2,2,0,0,1-1.116-.372,2.172,2.172,0,0,1-.62-2.975l8.926-13.884h4.959Z" fill="#69afe5"/><path d="M19.167,185.711l-1.239,3.471a11.166,11.166,0,0,1-7.191-8.8l3.72-.5A6.986,6.986,0,0,0,19.167,185.711ZM14.737,163.8h-4v10h4Zm0-32h-4v10h4Zm0,16h-4v10h4ZM11.729,28.149l3.347,1.612a7.658,7.658,0,0,1,6.2-4.215l-.124-3.719A11.018,11.018,0,0,0,11.729,28.149ZM40.737,189.8h10v-4h-10Zm3-164h10v-4h-10Zm-16,0h10v-4h-10Zm-13,90h-4v10h4Zm10,74h10v-4h-10Zm-10-155h-4v10h4Zm0,65h-4v10h4Zm242,46h-4v10h4Zm-4-112.942V35.8h4V32.86a11.484,11.484,0,0,0-3.149-7.686l-2.6,2.6A5.721,5.721,0,0,1,252.737,32.86Zm4,24.942h-4v10h4Zm-4,114h4v-10h-4Zm-238-88h-4v10h4Zm0-17h-4v10h4Zm242-25h-4v10h4Zm-200,148h10v-4h-10Zm-42-139h-4v10h4Zm187,139h10v-4h-10Zm-16,0h10v-4h-10Zm-16,0h10v-4h-10Zm-13-164h10v-4h-10Zm-16,0h10v-4h-10Zm13,164h10v-4h-10Zm83-168v1.164L233.382,33.38l-5.331-19.463-3.595.124-3.843,17.976-6.2-21.7-3.471-.124-4.835,12.149-3.223-7.066-3.471.248-5.579,18.843-5.7-21.446-3.471-.5L179.684,21.8h-6.947v4H181.4l.292.14.076-.14h.84l.493-2.464,2.681-4.958,6.2,23.306,3.471.124,6.2-20.455L204.5,27.8h3.471l4.339-11.157L219.125,40.2l3.6-.124,3.842-17.727L231.4,40.322l3.595.124L239.805,25.8h7.332l.4-3.867A4.545,4.545,0,0,0,246.2,21.8Zm12.141,162.546,2.107,3.1a13.755,13.755,0,0,0,5.827-9.67l-3.719-.371A9.842,9.842,0,0,1,248.878,184.348ZM217.737,189.8h10v-4h-10Zm26.734-4h-9.734v4h10.8l-.267-4ZM107.737,25.8h10v-4h-10Zm-32,0h10v-4h-10Zm13,164h10v-4h-10Zm49,0h10v-4h-10Zm-65,0h10v-4h-10Zm19-164h10v-4h-10Zm14,164h10v-4h-10Zm16,0h10v-4h-10Zm2-164h10v-4h-10Zm-64,0h10v-4h-10Z" fill="#69afe5"/></svg>