<svg width="300" height="200" viewBox="0 0 300 200" fill="none" xmlns="http://www.w3.org/2000/svg">
<path d="M151.77 54.469C150.077 54.469 148.538 54.0083 147.152 53.0869C146.075 52.3191 148.692 49.2479 149.307 49.7086C150.385 50.3228 151.616 50.63 152.848 50.3228C154.849 49.8622 156.234 48.0194 156.234 45.8696C156.234 44.0268 155.003 42.6448 152.694 41.877C151.001 41.2627 149.769 39.5735 149.769 37.7308V26.2137H153.771V37.7308C153.771 37.8844 153.925 38.0379 153.925 38.0379C157.773 39.2664 159.928 42.0305 160.082 45.716C160.236 49.8622 157.619 53.2405 153.617 54.1619C153.002 54.469 152.386 54.469 151.77 54.469Z" fill="#C2C2C2"/>
<path d="M238.432 67.2146V177.932C238.432 179.007 237.508 179.929 236.431 179.929H70.4959C69.4184 179.929 68.4949 179.007 68.4949 177.932V67.2146C68.4949 66.1397 69.4184 65.2183 70.4959 65.2183H236.277C237.508 65.2183 238.432 66.1397 238.432 67.2146Z" fill="#505050"/>
<path d="M229.812 71.6679H77.115V169.179H229.812V71.6679Z" fill="#DDDDDD"/>
<path d="M44.7899 183H258.904C262.599 183 265.523 180.697 265.523 177.625V174.708H38.325V177.472C38.325 180.543 41.2496 183 44.7899 183Z" fill="#737373"/>
<path d="M229.812 130.636V71.6679H170.549L229.812 130.636Z" fill="white"/>
<path d="M37.8632 54.469C36.1699 54.469 34.6307 54.0083 33.2453 53.0869C32.1678 52.3191 34.7846 49.2479 35.4003 49.7086C36.4778 50.3228 37.7092 50.63 38.9406 50.3228C40.9417 49.8622 42.3271 48.0194 42.3271 45.8696C42.3271 44.0268 41.0956 42.6448 38.7867 41.877C37.0935 41.2627 35.8621 39.5735 35.8621 37.7308V26.2137H39.8642V37.7308C39.8642 37.8844 40.0181 38.0379 40.0181 38.0379C43.8664 39.2664 46.0214 42.0305 46.1753 45.716C46.3292 49.8622 43.7124 53.2405 39.7103 54.1619C39.0946 54.469 38.4789 54.469 37.8632 54.469Z" fill="#C2C2C2"/>
<path d="M43.8665 18.3821H31.8601V27.7493H43.8665V18.3821Z" fill="#666666"/>
<path d="M157.774 18.3821H145.767V27.7493H157.774V18.3821Z" fill="#666666"/>
<path d="M268.756 54.469C267.063 54.469 265.523 54.0083 264.138 53.0869C263.06 52.3191 265.677 49.2479 266.293 49.7086C267.37 50.3228 268.602 50.63 269.833 50.3228C271.834 49.8622 273.22 48.0194 273.22 45.8696C273.22 44.0268 271.988 42.6448 269.679 41.877C267.986 41.2627 266.755 39.5735 266.755 37.7308V26.2137H270.757V37.7308C270.757 37.8844 270.911 38.0379 270.911 38.0379C274.759 39.2664 276.914 42.0305 277.068 45.716C277.222 49.8622 274.605 53.2405 270.603 54.1619C269.987 54.469 269.371 54.469 268.756 54.469Z" fill="#C2C2C2"/>
<path d="M274.759 18.3821H262.752V27.7493H274.759V18.3821Z" fill="#666666"/>
<path d="M269.371 50.4764C268.91 50.4764 268.294 50.4764 267.678 50.4764C265.677 50.0157 264.292 48.173 264.292 46.1767V44.9482H260.29V46.1767C260.29 50.1693 262.906 53.5476 266.755 54.469C267.37 54.6226 268.14 54.6226 268.756 54.6226C268.91 54.6226 269.063 54.6226 269.371 54.6226V50.4764Z" fill="#C2C2C2"/>
<path d="M152.386 50.4764C151.924 50.4764 151.308 50.4764 150.693 50.4764C148.692 50.0157 147.306 48.173 147.306 46.1767V44.9482H143.304V46.1767C143.304 50.1693 145.921 53.5476 149.769 54.469C150.385 54.6226 151.155 54.6226 151.77 54.6226C151.924 54.6226 152.078 54.6226 152.386 54.6226V50.4764Z" fill="#C2C2C2"/>
<path d="M111.903 114.512V136.778L132.067 149.677V127.411L111.903 114.512Z" fill="#69AFE5"/>
<path d="M111.903 114.512L132.067 101.766L152.232 114.512L132.067 127.411L111.903 114.512Z" fill="#A2C6DB"/>
<path d="M152.232 114.512L152.386 136.778L132.068 149.677V127.411L152.232 114.512Z" fill="#106EBE"/>
<path d="M151.924 114.512V136.778L172.089 149.677V127.411L151.924 114.512Z" fill="#69AFE5"/>
<path d="M151.924 114.512L172.089 101.766L192.253 114.512L172.089 127.411L151.924 114.512Z" fill="#A2C6DB"/>
<path d="M192.253 114.512L192.407 136.778L172.089 149.677V127.411L192.253 114.512Z" fill="#106EBE"/>
<path d="M132.067 107.448V129.561L152.386 142.46V120.193L132.067 107.448Z" fill="#FAA430"/>
<path d="M132.067 107.448L152.386 94.5486L172.551 107.448L152.232 120.193L132.067 107.448Z" fill="#FFCB40"/>
<path d="M172.551 107.448V129.561L152.386 142.46V120.193L172.551 107.448Z" fill="#F08400"/>
<path d="M151.924 90.4024V58.4616" stroke="#C2C2C2" stroke-miterlimit="10"/>
<path d="M157.773 93.0129V74.2784" stroke="#C2C2C2" stroke-miterlimit="10"/>
<path d="M142.227 95.3164V67.5217" stroke="#C2C2C2" stroke-miterlimit="10"/>
<path d="M291.383 22.3747H8.61678C7.23143 22.3747 6 21.1462 6 19.6105C6 18.2285 7.23143 17 8.61678 17H291.229C292.769 17 293.846 18.2285 293.846 19.6105C294 21.1462 292.769 22.3747 291.383 22.3747Z" fill="#C2C2C2"/>
<path d="M17.6987 57.6938V79.8067L37.8633 92.7058V70.4394L17.6987 57.6938Z" fill="#FAA430"/>
<path d="M17.6987 57.6938L37.8633 44.7946L58.028 57.6938L37.8633 70.4394L17.6987 57.6938Z" fill="#FFCB40"/>
<path d="M58.0281 57.6938V79.8067L37.8635 92.7058V70.4394L58.0281 57.6938Z" fill="#F08400"/>
<path d="M38.4787 50.4764C38.017 50.4764 37.4012 50.4764 36.7855 50.4764C34.7845 50.0157 33.3991 48.173 33.3991 46.1767V44.9482H29.397V46.1767C29.397 50.1693 32.0138 53.5476 35.862 54.469C36.4777 54.6226 37.2473 54.6226 37.863 54.6226C38.017 54.6226 38.1709 54.6226 38.4787 54.6226V50.4764Z" fill="#C2C2C2"/>
</svg>
