<svg xmlns="http://www.w3.org/2000/svg" viewBox="0 0 300 200"><title>als-lab-empty-state</title><polygon points="63.896 192.373 58.694 192.373 55.349 112.919 67.241 112.919 63.896 192.373" fill="#69afe5"/><polygon points="244.688 192.373 249.891 192.373 253.235 112.919 241.344 112.919 244.688 192.373" fill="#69afe5"/><rect x="137" y="43" width="5" height="9" fill="#666"/><rect x="137" y="28" width="5" height="9" fill="#666"/><polygon points="142 21 137 21 137 14 144 14 144 19 142 19 142 21" fill="#666"/><path d="M226,19h-9V14h9Zm-17,0h-9V14h9Zm-16,0h-9V14h9Zm-16,0h-9V14h9Zm-16,0h-9V14h9Z" fill="#666"/><path d="M226,84h-9V79h9Zm-17,0h-9V79h9Zm-16,0h-9V79h9Zm-16,0h-9V79h9Zm-16,0h-9V79h9Z" fill="#666"/><polygon points="240 21 235 21 235 19 233 19 233 14 240 14 240 21" fill="#666"/><path d="M240,70h-5V61h5Zm0-17h-5V44h5Zm0-16h-5V28h5Z" fill="#666"/><polygon points="240 84 233 84 233 79 235 79 235 77 240 77 240 84" fill="#666"/><polygon points="137 84 144 84 144 79 142 79 142 77 137 77 137 84" fill="#666"/><path d="M181,98h-3V97h3Zm0-5h-3V88h3Z" fill="#666"/><path d="M201,98h-3V97h3Zm0-5h-3V88h3Z" fill="#666"/><rect x="39.667" y="100.278" width="229.333" height="12.64" fill="#69afe5"/><path d="M107.868,29.747,97.05,28.915,95.9,42.952h0l0,.011c-.176,2.293,2.1,5.022,5.087,5.252s5.556-2.127,5.732-4.419v-.012h0Z" fill="#ffcb40"/><path d="M112.387,21.088c2.859,11.775.075,16.252-1.167,17.794-1.217,1.513-5.342.828-5.342.828s-.451-15.688-.3-16.1S112.387,21.088,112.387,21.088Z" fill="#ffcb40"/><path d="M135.958,190.5c.688-.085,1.159-.3.6-.485-3.726-1.278-8.175-9.122-9.276-14.793s-3.02-34.86-3.02-34.86l-6.584-6.612-6.535,4.3s9.292,36.83,9.857,39.652.281,8.978.415,9.51C121.417,187.678,135.958,190.5,135.958,190.5Z" fill="#ffcb40"/><path d="M139.831,56.883s5.615-7.688,6.51-8.377a10.26,10.26,0,0,1,4.5-1.379,13.382,13.382,0,0,0,3.437-.94,1.048,1.048,0,0,1-.394,1.438,15.438,15.438,0,0,1-3,1.461s3.137.571,4.283.8,2.534-.7,3.32-.964a1.206,1.206,0,0,1,1.629.595s-4.478,2.9-4.978,3.234-6.939,1.075-7.313,1.157c-.68.149-1.137.663-1.707,1.705-.757,1.384-2,3.867-2,3.867Z" fill="#ffcb40"/><polyline points="91.656 179.732 85.689 139.572 88.539 134.588 99.165 134.588 98.038 179.732 92.034 179.732" fill="#ffcb40"/><path d="M87.665,82.221l-3.764,9a43.775,43.775,0,0,0-2.735,24.407l4.253,24.375h39.168l-1.3-19.467a101.617,101.617,0,0,0-6.714-30.146l-3.185-8.171Z" fill="#666"/><path d="M138.608,59.146l-6.533,8.108a151.883,151.883,0,0,1-9.341-15.481c-3.961-7.6-11.911-7.691-15.125-7.675l-.9.028,0,.005c-.353,0-5.161,2.8-10.757-.033-2-.028-10.838-.866-15.286,7.675a151.991,151.991,0,0,1-9.342,15.481l-6.533-8.108-5.312,3.179s5.387,10.214,7.041,13.292c1.991,3.706,6.138,4.27,9.519-.89,1.493-2.279,5.139-7.231,8.744-12.05l3.069,21.349h25.4l5.2-21.575c3.66,4.89,7.4,9.961,8.913,12.276,3.381,5.16,7.528,4.6,9.52.89,1.653-3.078,7.409-13.179,7.409-13.179Z" fill="#69afe5"/><path d="M97.9,176.949a54.516,54.516,0,0,0,.676,10.676c0,1.137-8.466,3.275-8.466,3.275-.674.18-1.7-.191-1.147-.475,2.365-1.278,3.068-4.824,2.617-11.671Z" fill="#ffcb40"/><path d="M121.274,187.211l-.142,4.274c.142,1.136.984,1.489,2.432,1.7,6.131.909,18.1,1,18.1,1,2.371.022,2.123-1.739.836-2.145a57.762,57.762,0,0,1-5.871-2.01C132.608,189.808,121.274,187.211,121.274,187.211Z" fill="#666"/><path d="M98.67,187.625c.792,3.616,1.248,5.145-1.454,5.978a22.665,22.665,0,0,1-5.325,1.043,26.7,26.7,0,0,1-6.164-.044,1.139,1.139,0,0,1-.53-2.145,34.783,34.783,0,0,0,5.107-3.395C94.442,190.642,98.67,187.625,98.67,187.625Z" fill="#666"/><path d="M105.285,10.8c-3.032-.279-11.914.579-14.523,9.753a9.057,9.057,0,0,0-.437,1.578c-1.353,7.664.225,17.122.225,17.122s9.74,1.829,13.19,0,5.261-6.157,3.767-11.3c-.89-3.061,1.733-3.527,2.152,0,.685-.137,1.352-1.28,1.429-5.123,1.957-1.337,2.367-2.4,2.624-5.194C114.011,14.4,110.012,11.238,105.285,10.8Z" fill="#666"/><path d="M63.62,56.883s-5.615-7.688-6.511-8.377a10.256,10.256,0,0,0-4.5-1.379,13.4,13.4,0,0,1-3.437-.94,1.048,1.048,0,0,0,.4,1.438,15.411,15.411,0,0,0,3,1.461s-3.136.571-4.283.8-2.534-.7-3.32-.964a1.2,1.2,0,0,0-1.628.595s4.477,2.9,4.977,3.234,6.939,1.075,7.313,1.157c.68.149,1.138.663,1.708,1.705.757,1.384,2,3.867,2,3.867Z" fill="#ffcb40"/><rect x="162" y="96" width="53" height="3" fill="#666"/><path d="M187.983,56.713a2.9,2.9,0,0,1,1.008,2.27A3,3,0,0,1,188,61.291a4.043,4.043,0,0,1-5.14-.02,3.043,3.043,0,0,1-1.029-2.288,2.91,2.91,0,0,1,1.029-2.27,3.742,3.742,0,0,1,2.579-.911A3.648,3.648,0,0,1,187.983,56.713Zm5.5-19.407a5.886,5.886,0,0,0-1.8-2.183,7.754,7.754,0,0,0-2.706-1.251,13.5,13.5,0,0,0-3.356-.4,14.8,14.8,0,0,0-3.647.446,12.107,12.107,0,0,0-3.259,1.338V41.1a10.245,10.245,0,0,1,3.085-1.91,8.7,8.7,0,0,1,3.142-.631,3.6,3.6,0,0,1,1.271.214,2.874,2.874,0,0,1,.97.582,2.515,2.515,0,0,1,.611.881A2.89,2.89,0,0,1,188,41.351a3.954,3.954,0,0,1-.194,1.27,4.131,4.131,0,0,1-.582,1.106,8.176,8.176,0,0,1-.941,1.066q-.552.534-1.289,1.154a11.415,11.415,0,0,0-1.223,1.174,6.626,6.626,0,0,0-.873,1.241,5.719,5.719,0,0,0-.524,1.387,7.105,7.105,0,0,0-.174,1.63,7.185,7.185,0,0,0,.107,1.193,5.949,5.949,0,0,0,.3,1.135h5.1a2.785,2.785,0,0,1-.339-.815,3.769,3.769,0,0,1-.126-.951,3.905,3.905,0,0,1,.174-1.212,3.738,3.738,0,0,1,.514-1.008,6.6,6.6,0,0,1,.854-.961q.513-.483,1.192-1.047a23.841,23.841,0,0,0,1.785-1.62,9.165,9.165,0,0,0,1.3-1.639,7.213,7.213,0,0,0,.8-1.813,7.884,7.884,0,0,0,.272-2.144A7.2,7.2,0,0,0,193.482,37.306Z" fill="#666"/></svg>