<svg width="300" height="200" viewBox="0 0 300 200" fill="none" xmlns="http://www.w3.org/2000/svg">
<path d="M183.795 140.917V127.594H39.7395V140.114" stroke="#939393" stroke-miterlimit="10"/>
<path d="M111.367 104.48V127.594" stroke="#939393" stroke-miterlimit="10"/>
<path d="M136.204 127.594V140.435" stroke="#939393" stroke-miterlimit="10"/>
<path d="M88.6127 127.754V141.398" stroke="#939393" stroke-miterlimit="10"/>
<path d="M249.654 182.65H246.449V181.045H249.654V182.65ZM243.244 182.65H240.04V181.045H243.244V182.65ZM236.835 182.65H233.63V181.045H236.835V182.65ZM230.425 182.65H227.22V181.045H230.425V182.65ZM224.016 182.65H220.811V181.045H224.016V182.65ZM217.606 182.65H214.401V181.045H217.606V182.65ZM211.196 182.65H207.992V181.045H211.196V182.65ZM204.787 182.65H201.582V181.045H204.787V182.65ZM198.377 182.65H195.172V181.045H198.377V182.65ZM191.968 182.65H188.763V181.045H191.968V182.65ZM185.558 182.65H182.353V181.045H185.558V182.65ZM179.148 182.65H175.944V181.045H179.148V182.65ZM172.739 182.65H169.534V181.045H172.739V182.65ZM166.329 182.65H163.124V181.045H166.329V182.65ZM159.92 182.65H156.715V181.045H159.92V182.65ZM153.51 182.65H150.305V181.045H153.51V182.65ZM147.1 182.65H143.896V181.045H147.1V182.65ZM140.691 182.65H137.486V181.045H140.691V182.65ZM134.281 182.65H131.076V181.045H134.281V182.65ZM127.872 182.65H124.667V181.045H127.872V182.65ZM121.462 182.65H118.257V181.045H121.462V182.65ZM115.052 182.65H111.848V181.045H115.052V182.65ZM108.643 182.65H105.438V181.045H108.643V182.65ZM102.233 182.65H99.0283V181.045H102.233V182.65ZM95.8235 182.65H92.6187V181.045H95.8235V182.65ZM89.4139 182.65H86.2091V181.045H89.4139V182.65ZM83.0043 182.65H79.7995V181.045H83.0043V182.65ZM76.5947 182.65H73.3899V181.045H76.5947V182.65ZM70.1851 182.65H66.9803V181.045H70.1851V182.65ZM63.7755 182.65H60.5707V181.045H63.7755V182.65ZM57.3659 182.65H54.1611V181.045H57.3659V182.65ZM50.9563 182.65H47.7515V181.045H50.9563V182.65ZM44.5467 182.65H41.3419V181.045H44.5467V182.65ZM38.1371 182.65H34.9323V181.045H38.1371V182.65ZM31.7275 182.65H28.5227V181.045H31.7275V182.65ZM25.3179 182.65H22.1131V181.045H25.3179V182.65ZM18.9083 182.65H15.7035V181.045H18.9083V182.65ZM12.4987 182.65H11.0566C10.4156 182.65 9.77464 182.65 9.29392 182.49L9.6144 180.884C10.0951 181.045 10.7361 181.045 11.2168 181.045H12.659V182.65H12.4987ZM250.295 182.65L250.135 181.045C251.096 181.045 252.058 180.724 253.019 180.403L253.66 181.848C252.699 182.329 251.577 182.49 250.295 182.65ZM5.92888 181.366C4.96744 180.885 4.006 180.082 3.2048 179.279L4.32648 178.156C4.96744 178.798 5.76864 179.44 6.73008 179.921L5.92888 181.366ZM256.704 180.082L255.743 178.798C256.544 178.156 257.185 177.353 257.666 176.551L258.948 177.353C258.307 178.477 257.506 179.44 256.704 180.082ZM1.12168 176.551C0.64096 175.588 0.32048 174.464 0.16024 173.18L1.76264 173.019C1.92288 173.982 2.24336 174.945 2.56384 175.909L1.12168 176.551ZM260.39 174.303L258.788 173.982C258.948 173.18 259.108 172.377 259.108 171.575V170.933H260.71V171.575C260.71 172.538 260.55 173.501 260.39 174.303ZM1.6024 169.97H0V166.759H1.6024V169.97ZM260.71 167.722H259.108V164.512H260.71V167.722ZM1.6024 163.549H0V160.339H1.6024V163.549ZM260.71 161.302H259.108V158.092H260.71V161.302ZM1.6024 157.128H0V153.918H1.6024V157.128ZM1.6024 150.708H0V147.498H1.6024V150.708ZM1.6024 144.287H0V141.077H1.6024V144.287ZM1.6024 137.867H0V134.657H1.6024V137.867ZM1.6024 131.446H0V128.236H1.6024V131.446ZM1.6024 125.026H0V121.815H1.6024V125.026ZM1.6024 118.605H0V115.395H1.6024V118.605ZM1.6024 112.185H0V108.974H1.6024V112.185ZM1.6024 105.764H0V102.554H1.6024V105.764ZM1.6024 99.3435H0V96.1333H1.6024V99.3435ZM1.6024 92.923H0V89.7127H1.6024V92.923ZM1.6024 86.5024H0V83.2922H1.6024V86.5024ZM1.6024 80.0819H0V76.8716H1.6024V80.0819ZM1.6024 73.6614H0V70.4511H1.6024V73.6614ZM1.6024 67.2408H0V64.0305H1.6024V67.2408ZM1.6024 60.8203H0V57.61H1.6024V60.8203ZM1.6024 54.3997H0V51.1894H1.6024V54.3997ZM260.71 52.1525H259.108V48.9422H260.71V52.1525ZM1.6024 47.9792H0V44.7689H1.6024V47.9792ZM260.71 45.732H259.108V42.5217H260.71V45.732ZM1.6024 41.5586H0V39.6325C0 39.1509 0 38.6694 0.16024 38.1878L1.76264 38.3483C1.76264 38.6694 1.76264 39.1509 1.76264 39.4719V41.5586H1.6024ZM259.108 39.3114C259.108 38.3483 258.948 37.3853 258.627 36.4222L260.07 35.9406C260.39 37.0642 260.71 38.1878 260.71 39.3114H259.108ZM2.56384 35.6196L1.12168 34.9776C1.6024 33.854 2.24336 32.8909 3.04456 32.0883L4.16624 33.2119C3.52528 33.854 2.88432 34.6565 2.56384 35.6196ZM257.185 33.854C256.544 33.0514 255.903 32.4093 255.102 31.7673L256.064 30.4832C257.025 31.1252 257.826 31.9278 258.627 32.8909L257.185 33.854ZM6.4096 31.2857L5.76864 30.0016C6.73008 29.5201 7.85176 29.0385 8.97344 28.878L9.29392 30.4832C8.33248 30.4832 7.37104 30.8042 6.4096 31.2857ZM252.378 30.4832C251.577 30.1621 250.615 30.1621 249.654 30.1621H249.494V28.557H249.654C250.776 28.557 251.737 28.7175 252.859 29.0385L252.378 30.4832ZM246.289 30.1621H243.084V28.557H246.289V30.1621ZM239.879 30.1621H236.674V28.557H239.879V30.1621ZM182.193 30.1621H178.988V28.557H182.193V30.1621ZM175.783 30.1621H172.578V28.557H175.783V30.1621ZM169.374 30.1621H166.169V28.557H169.374V30.1621ZM162.964 30.1621H159.759V28.557H162.964V30.1621ZM156.554 30.1621H153.35V28.557H156.554V30.1621ZM150.145 30.1621H146.94V28.557H150.145V30.1621ZM143.735 30.1621H140.53V28.557H143.735V30.1621ZM137.326 30.1621H134.121V28.557H137.326V30.1621ZM130.916 30.1621H127.711V28.557H130.916V30.1621ZM124.506 30.1621H121.302V28.557H124.506V30.1621ZM118.097 30.1621H114.892V28.557H118.097V30.1621ZM111.687 30.1621H108.482V28.557H111.687V30.1621ZM105.278 30.1621H102.073V28.557H105.278V30.1621ZM98.8681 30.1621H95.6633V28.557H98.8681V30.1621ZM92.4585 30.1621H89.2537V28.557H92.4585V30.1621ZM86.0489 30.1621H82.8441V28.557H86.0489V30.1621ZM79.6393 30.1621H76.4345V28.557H79.6393V30.1621ZM73.2297 30.1621H70.0249V28.557H73.2297V30.1621ZM66.8201 30.1621H63.6153V28.557H66.8201V30.1621ZM60.4105 30.1621H57.2057V28.557H60.4105V30.1621ZM54.0009 30.1621H50.7961V28.557H54.0009V30.1621ZM47.5913 30.1621H44.3865V28.557H47.5913V30.1621ZM41.1817 30.1621H37.9769V28.557H41.1817V30.1621ZM34.7721 30.1621H31.5673V28.557H34.7721V30.1621ZM28.3625 30.1621H25.1577V28.557H28.3625V30.1621ZM21.9529 30.1621H18.7481V28.557H21.9529V30.1621ZM15.5433 30.1621H12.3385V28.557H15.5433V30.1621Z" fill="#939393"/>
<path d="M294.681 144.929C294.201 145.892 293.399 146.695 292.438 147.337C291.477 147.979 290.355 148.3 289.233 148.3H231.547C230.425 148.3 229.303 148.14 228.502 147.498C227.541 147.016 226.74 146.214 226.259 145.25C225.778 144.448 225.618 143.645 225.618 142.843C225.618 142.04 225.778 141.077 226.259 140.275C228.983 135.941 251.897 98.862 252.058 98.541L252.378 97.8989V61.6228H268.082V97.2568L268.402 97.8989C268.562 98.2199 288.432 130.162 294.521 139.632C295.002 140.435 295.483 141.238 295.483 142.201C295.322 143.164 295.162 144.127 294.681 144.929Z" fill="white"/>
<path d="M270.165 80.5635H250.615V97.5779C250.615 97.5779 227.541 135.138 225.137 139.311C222.894 143.485 224.656 150.708 233.47 150.708H288.753C294.842 150.708 300.61 145.893 295.162 136.743C289.714 127.594 270.325 96.6148 270.325 96.6148L270.165 80.5635Z" fill="#FFCB40"/>
<path d="M265.998 119.087C268.883 119.087 271.126 116.84 271.126 113.95C271.126 111.061 268.883 108.814 265.998 108.814C263.114 108.814 260.871 111.061 260.871 113.95C260.871 116.84 263.114 119.087 265.998 119.087Z" fill="white"/>
<path d="M253.339 126.149C255.743 126.149 257.666 124.223 257.666 121.816C257.666 119.408 255.743 117.482 253.339 117.482C250.936 117.482 249.013 119.408 249.013 121.816C249.013 124.223 250.936 126.149 253.339 126.149Z" fill="white"/>
<path d="M263.595 139.633C265.037 139.633 266.319 138.348 266.319 136.904C266.319 135.459 265.037 134.175 263.595 134.175C262.153 134.175 260.871 135.459 260.871 136.904C260.871 138.348 262.153 139.633 263.595 139.633Z" fill="white"/>
<path d="M298.367 137.064C292.758 128.236 275.453 100.307 272.728 95.9728V61.6229H277.215C277.536 61.6229 277.696 61.4623 277.856 61.3018C278.016 61.1413 278.177 60.8203 278.177 60.6598V57.931C278.177 57.61 278.016 57.4495 277.856 57.289C277.696 57.1285 277.375 56.968 277.215 56.968H243.084C242.764 56.968 242.603 57.1285 242.443 57.289C242.283 57.4495 242.123 57.7705 242.123 57.931V60.6598C242.123 60.9808 242.283 61.1413 242.443 61.3018C242.603 61.4623 242.924 61.6229 243.084 61.6229H247.571V96.6148C244.687 101.43 224.657 133.854 222.093 137.867C221.291 139.311 220.811 141.077 220.65 142.682C220.65 144.448 221.131 146.053 221.932 147.658C222.894 149.424 224.176 150.708 225.938 151.671C227.541 152.634 229.464 153.116 231.387 153.116H289.233C291.156 153.116 293.079 152.474 294.842 151.511C296.604 150.547 297.886 149.103 298.848 147.337C299.649 145.732 300.13 143.966 299.969 142.201C299.969 140.275 299.328 138.669 298.367 137.064ZM294.681 144.929C294.201 145.893 293.399 146.695 292.438 147.337C291.477 147.979 290.355 148.3 289.233 148.3H231.547C230.425 148.3 229.303 148.14 228.502 147.498C227.541 147.016 226.74 146.214 226.259 145.25C225.778 144.448 225.618 143.645 225.618 142.843C225.618 142.04 225.778 141.077 226.259 140.275C228.983 135.941 251.897 98.862 252.058 98.541L252.378 97.899V61.6229H268.082V97.2569L268.402 97.899C268.562 98.22 288.432 130.162 294.521 139.633C295.002 140.435 295.483 141.238 295.483 142.201C295.322 143.164 295.162 144.127 294.681 144.929Z" fill="#666666"/>
<path d="M294.681 144.929C294.201 145.892 293.399 146.695 292.438 147.337C291.477 147.979 290.355 148.3 289.233 148.3H231.547C230.425 148.3 229.303 148.14 228.502 147.498C227.541 147.016 226.74 146.214 226.259 145.25C225.778 144.448 225.618 143.645 225.618 142.843C225.618 142.04 225.778 141.077 226.259 140.275C228.983 135.941 251.897 98.862 252.058 98.541L252.378 97.8989V61.6228H268.082V97.2568L268.402 97.8989C268.562 98.2199 288.432 130.162 294.521 139.632C295.002 140.435 295.483 141.238 295.483 142.201C295.322 143.164 295.162 144.127 294.681 144.929Z" fill="white"/>
<path d="M271.767 99.9856H248.212L224.656 138.83C221.612 143.806 225.297 150.226 231.066 150.226H288.272C294.681 150.547 298.848 143.645 295.483 138.188L271.767 99.9856Z" fill="#FFCB40"/>
<path d="M298.367 137.064C292.758 128.236 275.453 100.307 272.728 95.9728V61.6229H277.215C277.536 61.6229 277.696 61.4623 277.856 61.3018C278.016 61.1413 278.177 60.8203 278.177 60.6598V57.931C278.177 57.61 278.016 57.4495 277.856 57.289C277.696 57.1285 277.375 56.968 277.215 56.968H243.084C242.764 56.968 242.603 57.1285 242.443 57.289C242.283 57.4495 242.123 57.7705 242.123 57.931V60.6598C242.123 60.9808 242.283 61.1413 242.443 61.3018C242.603 61.4623 242.924 61.6229 243.084 61.6229H247.571V96.6148C244.687 101.43 224.657 133.854 222.093 137.867C221.291 139.311 220.811 141.077 220.65 142.682C220.65 144.448 221.131 146.053 221.932 147.658C222.894 149.424 224.176 150.708 225.938 151.671C227.541 152.634 229.464 153.116 231.387 153.116H289.233C291.156 153.116 293.079 152.474 294.842 151.511C296.604 150.547 297.886 149.103 298.848 147.337C299.649 145.732 300.13 143.966 299.969 142.201C299.969 140.275 299.328 138.669 298.367 137.064Z" fill="#FAA430"/>
<path d="M253.339 126.149C255.743 126.149 257.666 124.223 257.666 121.816C257.666 119.408 255.743 117.482 253.339 117.482C250.936 117.482 249.013 119.408 249.013 121.816C249.013 124.223 250.936 126.149 253.339 126.149Z" fill="white"/>
<path d="M265.998 119.087C268.883 119.087 271.126 116.84 271.126 113.95C271.126 111.061 268.883 108.814 265.998 108.814C263.114 108.814 260.871 111.061 260.871 113.95C260.871 116.84 263.114 119.087 265.998 119.087Z" fill="white"/>
<path d="M263.595 139.633C265.037 139.633 266.319 138.348 266.319 136.904C266.319 135.459 265.037 134.175 263.595 134.175C262.153 134.175 260.871 135.459 260.871 136.904C260.871 138.348 262.153 139.633 263.595 139.633Z" fill="white"/>
<path d="M242.924 61.6229H247.411V96.6148C247.09 97.2569 246.449 98.22 245.488 99.6646H274.651C273.53 97.8989 272.889 96.7754 272.408 95.9728V61.6229H276.895C277.215 61.6229 277.375 61.4623 277.536 61.3018C277.696 61.1413 277.856 60.8203 277.856 60.6598V57.931C277.856 57.61 277.696 57.4495 277.536 57.289C277.375 57.1285 277.055 56.968 276.895 56.968H242.764C242.443 56.968 242.283 57.1285 242.123 57.289C241.962 57.4495 241.802 57.7705 241.802 57.931V60.6598C241.802 60.9808 241.962 61.1413 242.123 61.3018C242.443 61.4623 242.764 61.6229 242.924 61.6229Z" fill="#DDDDDD"/>
<path d="M277.856 57.1285C277.696 56.9679 277.375 56.8074 277.215 56.8074H269.363V64.5121H266.479V96.4543L268.082 99.5041H274.972C273.85 97.7384 273.049 96.6148 272.728 95.8123V61.6228H277.215C277.536 61.6228 277.696 61.4623 277.856 61.3018C278.016 61.1413 278.177 60.8203 278.177 60.6598V57.931C278.177 57.61 278.016 57.289 277.856 57.1285Z" fill="#C2C2C2"/>
<path d="M272.568 61.6228H247.25V65.9567H272.568V61.6228Z" fill="#666666"/>
<path d="M298.367 137.064C293.72 129.681 280.58 108.493 274.972 99.5041H268.082L293.399 139.633C295.483 143.003 293.079 147.498 289.073 147.498H222.093C223.054 149.103 224.336 150.547 225.938 151.511C227.541 152.474 229.464 152.955 231.387 152.955H289.233C291.156 152.955 293.079 152.313 294.842 151.35C296.604 150.387 297.886 148.942 298.848 147.177C299.649 145.572 300.13 143.806 299.969 142.04C299.969 140.275 299.328 138.669 298.367 137.064Z" fill="#F08400"/>
<path d="M154.952 49.4238V107.69C154.952 108.332 154.471 108.814 153.83 108.814H67.6213C66.9803 108.814 66.4996 108.332 66.4996 107.69V49.4238C66.4996 48.7818 66.9803 48.3002 67.6213 48.3002H153.991C154.471 48.3002 154.952 48.7818 154.952 49.4238Z" fill="#505050"/>
<path d="M151.106 52.1525H71.467V102.714H151.106V52.1525Z" fill="#DDDDDD"/>
<path d="M54.9623 109.616H166.169C168.092 109.616 169.694 108.493 169.694 107.048V105.604H51.1166V106.888C51.1166 108.332 52.719 109.456 54.4816 109.456" fill="#737373"/>
<path d="M151.106 85.0578V52.1525H118.257L151.106 85.0578Z" fill="white"/>
<path d="M125.949 78.7978H114.091V90.6758H107.842V78.7978H95.6633V72.3772H107.681V60.4992H113.931V72.5377H125.788L125.949 78.7978Z" fill="#F08400"/>
<path d="M55.9238 138.027V161.623C55.9238 161.783 55.7635 162.104 55.6033 162.104H23.8758C23.7155 162.104 23.5553 161.944 23.5553 161.623V138.027C23.5553 137.867 23.7155 137.546 23.8758 137.546H55.6033C55.7635 137.546 55.9238 137.706 55.9238 138.027Z" fill="#505050"/>
<path d="M54.6418 139.151H25.3179V159.697H54.6418V139.151Z" fill="#69AFE5"/>
<path d="M19.2288 162.425H60.09C60.731 162.425 61.3719 161.944 61.3719 161.462V160.981H17.7866V161.462C17.7866 162.104 18.4276 162.586 19.0686 162.586" fill="#737373"/>
<path d="M54.6418 152.474V139.151H42.4636L54.6418 152.474Z" fill="#81C4F2"/>
<path d="M103.996 138.027V161.623C103.996 161.783 103.836 162.104 103.675 162.104H71.9478C71.7875 162.104 71.6273 161.944 71.6273 161.623V138.027C71.6273 137.867 71.7875 137.546 71.9478 137.546H103.675C103.836 137.546 103.996 137.706 103.996 138.027Z" fill="#505050"/>
<path d="M102.714 139.151H73.3899V159.697H102.714V139.151Z" fill="#69AFE5"/>
<path d="M67.3008 162.425H108.162C108.803 162.425 109.444 161.944 109.444 161.462V160.981H65.8586V161.462C65.8586 162.104 66.4996 162.586 67.1406 162.586" fill="#737373"/>
<path d="M102.714 152.474V139.151H90.5356L102.714 152.474Z" fill="#81C4F2"/>
<path d="M152.068 138.027V161.623C152.068 161.783 151.908 162.104 151.747 162.104H120.02C119.86 162.104 119.699 161.944 119.699 161.623V138.027C119.699 137.867 119.86 137.546 120.02 137.546H151.747C151.908 137.546 152.068 137.706 152.068 138.027Z" fill="#505050"/>
<path d="M150.786 139.151H121.462V159.697H150.786V139.151Z" fill="#69AFE5"/>
<path d="M115.373 162.425H156.234C156.875 162.425 157.516 161.944 157.516 161.462V160.981H113.931V161.462C113.931 162.104 114.572 162.586 115.213 162.586" fill="#737373"/>
<path d="M150.786 152.474V139.151H138.608L150.786 152.474Z" fill="#81C4F2"/>
<path d="M200.14 138.027V161.623C200.14 161.783 199.98 162.104 199.819 162.104H168.092C167.932 162.104 167.771 161.944 167.771 161.623V138.027C167.771 137.867 167.932 137.546 168.092 137.546H199.819C199.98 137.546 200.14 137.706 200.14 138.027Z" fill="#505050"/>
<path d="M198.858 139.151H169.534V159.697H198.858V139.151Z" fill="#69AFE5"/>
<path d="M163.445 162.425H204.306C204.947 162.425 205.588 161.944 205.588 161.462V160.981H162.003V161.462C162.003 162.104 162.644 162.586 163.285 162.586" fill="#737373"/>
<path d="M198.858 152.474V139.151H186.68L198.858 152.474Z" fill="#81C4F2"/>
<path d="M194.852 45.732H193.249L186.68 21.1734L181.872 30.3226L180.43 29.5201L186.199 18.6051L187.641 18.7657L194.051 42.6822L201.422 21.6549H202.864L205.588 29.6806L211.517 17L212.959 17.1605L219.048 41.0771C224.977 20.2103 225.618 20.0498 226.259 19.8892L227.06 20.0498C227.22 20.2103 227.701 20.6918 232.829 40.9165L236.674 28.557L238.117 29.0385L233.309 43.8058H231.707C229.944 37.0642 227.381 26.6308 226.099 22.618C224.656 26.6308 221.452 37.3852 219.529 44.2873H217.926L211.677 19.7287L206.229 32.2488H204.787L202.063 24.3836L194.852 45.732Z" fill="#939393"/>
</svg>
