<svg xmlns="http://www.w3.org/2000/svg" viewBox="0 0 300 200"><title>als-add-lab-account</title><path d="M118.878,107.474A25.08,25.08,0,1,0,93.8,82.394,25.08,25.08,0,0,0,118.878,107.474Z" fill="#69afe5"/><path d="M84.108,179.753a38.647,38.647,0,1,0-38.646-38.646A38.646,38.646,0,0,0,84.108,179.753Z" fill="#69afe5"/><path d="M225.468,178.156a29.071,29.071,0,1,0-29.07-29.071A29.071,29.071,0,0,0,225.468,178.156Z" fill="#69afe5"/><path d="M173.94,175.99a19.153,19.153,0,1,0-19.152-19.153A19.153,19.153,0,0,0,173.94,175.99Z" fill="#69afe5"/><path d="M185.34,131.871a31.008,31.008,0,1,0-31.008-31.008A31.008,31.008,0,0,0,185.34,131.871Z" fill="#69afe5"/><path d="M136.89,175.988A14.592,14.592,0,1,0,122.3,161.4,14.592,14.592,0,0,0,136.89,175.988Z" fill="#69afe5"/><path d="M144.3,145.666a20.749,20.749,0,1,0-20.748-20.749A20.749,20.749,0,0,0,144.3,145.666Z" fill="#69afe5"/><path d="M165.048,129.021a48.336,48.336,0,1,0-48.336-48.336A48.336,48.336,0,0,0,165.048,129.021Z" fill="#fff"/><path d="M165.048,131.021a50.336,50.336,0,1,1,50.336-50.335A50.393,50.393,0,0,1,165.048,131.021Zm0-96.672a46.336,46.336,0,1,0,46.336,46.337A46.389,46.389,0,0,0,165.048,34.349Z" fill="#666"/><path d="M110.586,40.247H98.462v13h-7v-13h-13v-7h12v-13h7v13h13v7Z" fill="#ffcb40"/><path d="M173.8,75.52l15.993,25.665a6.767,6.767,0,0,1,.336,6.671,6.525,6.525,0,0,1-5.705,3.391H145.614a6.273,6.273,0,0,1-5.705-3.391,6.759,6.759,0,0,1,.224-6.671L156.127,75.52a1.928,1.928,0,0,0,.335-1.13V53.247h-2.841a1.125,1.125,0,0,1-1.159-1.08V50.328a1.123,1.123,0,0,1,1.159-1.081H175.3a1.127,1.127,0,0,1,1.159,1.081v1.839a1.121,1.121,0,0,1-1.159,1.08h-1.841V74.39A2.194,2.194,0,0,0,173.8,75.52Zm10.261,31.727a2.623,2.623,0,0,0,2.195-1.355,2.278,2.278,0,0,0-.219-2.6L170.34,77.649a6.966,6.966,0,0,1-.878-3.276V53.247h-9V74.373a6.954,6.954,0,0,1-.878,3.276l-15.695,25.644a2.468,2.468,0,0,0-.109,2.6,2.4,2.4,0,0,0,2.194,1.355h38.085Z" fill="#666"/><path d="M182.952,103.64,170.788,84.248H159.083L146.46,103.64a1.031,1.031,0,0,0,.918,1.608h34.77A1.019,1.019,0,0,0,182.952,103.64Zm-26.226-3.967a1.626,1.626,0,0,1-1.368.685,1.224,1.224,0,0,1-.912-.229,1.5,1.5,0,0,1-.342-2.166l6.84-10.715h3.763Z" fill="#ffcb40"/><path d="M105.4,135.217a9.711,9.711,0,0,0-2.622.456l-4.446-7.067a5.421,5.421,0,0,0,.453-6.587,5.835,5.835,0,0,0-3.766-2.668,5.625,5.625,0,0,0-6.377,3.9H76.56a4.472,4.472,0,0,0-4.2-2.849,4.616,4.616,0,0,0-4.333,3.106,4.472,4.472,0,0,0,2.494,5.558l-.57,14.135a10.243,10.243,0,1,0,11.505,9.7l.009-.013,17.1-5.7a7.944,7.944,0,0,0,10.64,2.876,8.042,8.042,0,0,0,4.077-5.695A7.9,7.9,0,0,0,105.4,135.217Zm-5.334,2.125-9.234-4.788,1.824-2.622a4.726,4.726,0,0,0,1.824.342,5.722,5.722,0,0,0,1.368-.228l4.446,7.068C100.182,137.228,100.068,137.228,100.068,137.342Zm-22.458,7.41a10.873,10.873,0,0,0-3.876-1.71l.57-14.25a4.049,4.049,0,0,0,1.026-.456L85.7,133.694Zm1.14-18.505H89.01a11.505,11.505,0,0,0,.8,1.71l-2.166,2.964Zm.928,20.9,8.664-11.97,9.576,4.9a7.505,7.505,0,0,0-.408,3.226l-.048.08L81.1,149.061Z" fill="#fff"/><path d="M237.462,145.248v16h-6v-16Zm-14,16h6v-10h-6Zm-8,0h6v-6h-6Zm4.648-22.994,4.332.342-11.97,8.664L214.41,150l12.084-8.663-.912,4.445,3.306.684,2.166-10.488-10.488-1.026Z" fill="#fff"/><path d="M171.547,167.928c0,.342.342.57.57.684l1.6.342a.833.833,0,0,0,.8-.684l.57-1.938c.228-.684.456-.912,1.026-1.026a3.623,3.623,0,0,1,1.026-.342,1.566,1.566,0,0,1,1.254.456l1.482,1.6a.915.915,0,0,0,.912.114l1.482-1.026a.817.817,0,0,0,0-1.026l-1.026-1.824a1,1,0,0,1,.114-1.254l-.114-.114c.342-.228.57-.456.57-.8.114-.456.456-.912,1.368-.8l1.938.114c.57-.114.8-.456.8-.684l.228-1.71c.114-.228-.228-.684-.57-.684l-1.938-.57c-.684-.228-1.026-.684-1.026-1.026a3.629,3.629,0,0,1-.342-1.027,2.934,2.934,0,0,1,.342-1.481l1.482-1.255a1.125,1.125,0,0,0,.228-1.14l-1.14-1.254a.632.632,0,0,0-.912-.228l-1.71,1.254a1.377,1.377,0,0,1-1.482,0,2.245,2.245,0,0,0-.912-.456l-.114-.114a1.263,1.263,0,0,1-.684-1.254l.228-2.166c0-.342-.342-.57-.57-.684l-1.71-.228c-.228-.114-.684.228-.684.57l-.684,2.052c-.228.684-.456.912-.912.912a3.623,3.623,0,0,1-1.026.342,1.488,1.488,0,0,1-1.482-.342l-1.368-1.71a.855.855,0,0,0-1.026,0l-1.482,1.026a1.065,1.065,0,0,0,0,1.026l1.026,1.824c.342.57.342,1.027-.114,1.255a4.457,4.457,0,0,0-.456,1.025c-.228.342-.456.684-1.368.57h-2.052c-.342,0-.57.342-.684.57l-.228,1.711c-.114.228.228.684.456.8l2.052.456c.684.228.912.456.912.912a11.04,11.04,0,0,1,.342,1.254,1.243,1.243,0,0,1-.228,1.368l-1.71,1.368a.855.855,0,0,0,0,1.026l.912,1.254a.632.632,0,0,0,.912.228l1.71-1.254a1.377,1.377,0,0,1,1.482,0l1.026.684c.456.114.684.456.684,1.254Zm7.3-10.634a4.451,4.451,0,0,1-4.9,3.648,4.253,4.253,0,1,1,4.9-3.648Z" fill="#fff"/></svg>