<svg xmlns="http://www.w3.org/2000/svg" viewBox="0 0 300 200"><title>als-install-artifacts-to-vm</title><path d="M89.341,56.506,70,68.839V89.862l19.761,11.212L107,89.862V68.139Z" fill="#fff"/><polygon points="122 88 99 102.567 99 148 201 148 201 88 122 88" fill="#fff"/><path d="M151.568,67h-4V78h4Z" fill="#69afe5"/><path d="M168.449,96.224l-18.881,12.168L130.687,96.364l-21.119,13.427v23.356l21.119,13.427,18.881-12.168,18.881,12.028,21.119-13.427V109.651Zm15.368,14.651-14.874,9.542-14.874-9.542,14.874-9.542Zm-13.249,29.536v-16.3l15-9.519v16.3Zm-19-25.817,15,9.519v16.3l-15-9.519Zm-4,.744V130.7l-14,8.971V124.309Zm-1.637-4.463-14.874,9.542-14.874-9.542,14.874-9.542Zm-17.363,13.238v16.3l-15-9.519v-16.3Z" fill="#69afe5"/><path d="M90.844,47.348a.3.3,0,0,1-.276-.281V35H86.43l.138,11.927a4.506,4.506,0,0,0,3.035,4.21c2.344.842,3.585,2.245,3.585,4.209a4.522,4.522,0,0,1-3.448,4.631,3.722,3.722,0,0,1-.74.163v4.318a8.226,8.226,0,0,0,1.568-.132,8.781,8.781,0,0,0,6.62-8.98C97.051,51.558,94.706,48.751,90.844,47.348Z" fill="#69afe5"/><path d="M95.568,33.334A2.667,2.667,0,0,1,92.9,36h-7.59a2.728,2.728,0,0,1-2.744-2.714V28.714A2.728,2.728,0,0,1,85.312,26h7.512a2.728,2.728,0,0,1,2.744,2.714Z" fill="#666"/><path d="M149.568,62a7.57,7.57,0,0,1-4.533-1.4,8.661,8.661,0,0,1-2.8-3.087,2.11,2.11,0,0,1,1.333-3.087,2.145,2.145,0,0,1,2.133.982,4.38,4.38,0,0,0,1.467,1.684,3.854,3.854,0,0,0,3.467.561,4.5,4.5,0,0,0,3.333-4.63,4.1,4.1,0,0,0-2.8-3.929,6.317,6.317,0,0,1-3.6-5.894V34.786a2.292,2.292,0,0,1,.79-1.8,1.988,1.988,0,0,1,3.21,1.649V43.2a3.031,3.031,0,0,0,1.333,2.245A8.882,8.882,0,0,1,151.568,62Z" fill="#69afe5"/><path d="M155.568,33.334A2.667,2.667,0,0,1,152.9,36h-7.59a2.728,2.728,0,0,1-2.744-2.714V28.714A2.728,2.728,0,0,1,145.312,26h7.512a2.728,2.728,0,0,1,2.744,2.714Z" fill="#666"/><path d="M209.568,61.553a7.844,7.844,0,0,1-4.533-1.334,8.4,8.4,0,0,1-2.8-2.933,1.982,1.982,0,0,1,1.333-2.933,2.19,2.19,0,0,1,2.133.933,4.234,4.234,0,0,0,1.467,1.6,4.014,4.014,0,0,0,3.467.533,4.308,4.308,0,0,0,3.333-4.4c0-1.734-.933-2.934-2.8-3.734a6.032,6.032,0,0,1-3.6-5.733V35.664a2.252,2.252,0,0,1,1.107-2.016,2,2,0,0,1,2.893,1.772v8.133a2.861,2.861,0,0,0,1.333,2.133,8.24,8.24,0,0,1,5.067,7.2,8.367,8.367,0,0,1-6.4,8.534A10.116,10.116,0,0,1,209.568,61.553Z" fill="#69afe5"/><path d="M216.568,33.334A2.667,2.667,0,0,1,213.9,36h-7.59a2.728,2.728,0,0,1-2.744-2.714V28.714A2.728,2.728,0,0,1,206.312,26h7.512a2.728,2.728,0,0,1,2.744,2.714Z" fill="#666"/><path d="M249.626,31H50.524a2.91,2.91,0,0,1-2.785-1.945A2.992,2.992,0,0,1,50.375,25h199.1a2.909,2.909,0,0,1,2.784,1.945A2.991,2.991,0,0,1,249.626,31Z" fill="#69afe5"/><polygon points="132.452 81 114.568 81 114.568 88 121.543 88 132.452 81" fill="#666"/><path d="M225.351,169.25,209,154.625V89.152A8.152,8.152,0,0,0,200.848,81H166.685l10.908,7h22.5a.907.907,0,0,1,.907.907V148H99V102.66l-7,4.45v47.334L75.649,169.069a5.508,5.508,0,0,0-1.635,5.778c.908,2.528,3.815,4.153,7.267,4.153H219.719c3.452,0,6.177-1.625,7.266-4.153A5.469,5.469,0,0,0,225.351,169.25Z" fill="#666"/><path d="M89.568,53.989l-21,13.351V90.565l21,13.351,21-13.351V67.34ZM104.4,68.5,89.523,78.041,74.649,68.5l14.874-9.542ZM72.568,88.372V72.218l15,9.519v16.3Zm34-16.154v16.3l-15,9.519v-16.3Z" fill="#666"/><path d="M149.909,77.506,130.568,89.839v21.023l19.761,11.212,17.239-11.212V89.139Z" fill="#ffcb40"/><path d="M149.568,74.756l-21,13.351v23.225l21,13.351,21-13.351V88.107Zm14.885,14.369L149.58,98.667l-14.874-9.542,15.014-9.4Zm-31.885,20.017v-16.3l15,9.52v16.3Zm34-16.3v16.3l-15,9.52v-16.3Z" fill="#666"/><path d="M89,60.14a4.3,4.3,0,0,1-2.846-.725,4.429,4.429,0,0,1-1.517-1.684,2.041,2.041,0,0,0-2.069-.982,2.209,2.209,0,0,0-1.517,3.228,7.323,7.323,0,0,0,2.759,3.086,8.012,8.012,0,0,0,4.689,1.4c.167,0,.334-.007.5-.009Z" fill="#69afe5"/></svg>