<svg width="300" height="200" viewBox="0 0 300 200" fill="none" xmlns="http://www.w3.org/2000/svg">
<path d="M139.055 13H31.5766C30.6825 13 29.7883 13.3577 29.073 14.073C28.3577 14.7883 28 15.6824 28 16.5766V183.423C28 184.318 28.3577 185.391 29.073 185.927C29.7883 186.642 30.6825 187 31.5766 187H188.412C189.307 187 190.38 186.642 190.916 185.927C191.631 185.212 191.989 184.318 191.989 183.423V66.112L139.055 13Z" fill="#FFCB40"/>
<path d="M144.956 82.2065H45.8833V111.713H144.956V82.2065Z" fill="white"/>
<path d="M177.861 134.067H45.8833V163.573H178.04V134.067H177.861Z" fill="white"/>
<path d="M46.9563 111.713H42.3066V79.8818H144.956V83.4584H46.9563V111.713Z" fill="#C2C2C2"/>
<path d="M46.9563 163.573H42.3066V131.742H177.861V135.319H46.9563V163.573Z" fill="#C2C2C2"/>
<path d="M91.1279 105.812C90.7702 105.812 90.5914 105.812 90.2337 105.633C89.6972 105.454 88.9819 105.097 88.6242 104.56C88.0877 104.024 87.73 103.487 87.5512 102.951C86.6571 101.52 86.2994 100.805 84.1534 101.52C79.3249 103.308 76.6425 103.487 75.2118 101.878C73.96 100.268 74.3176 97.7646 76.6425 93.4728C77.3578 92.0421 77.3578 91.5057 77.1789 91.5057C75.7483 90.075 64.8395 93.2939 52.6789 100.626C52.5001 100.805 52.1424 100.805 51.7848 100.805C51.4271 100.805 51.2483 100.447 51.0695 100.268C50.8906 100.089 50.8906 99.7318 50.8906 99.3741C50.8906 99.0164 51.2483 98.8376 51.4271 98.6588C57.3286 95.0822 74.8541 85.962 78.7884 89.8962C79.8614 90.9692 79.8614 92.5786 78.6096 94.7246C76.106 99.3741 76.8213 100.268 76.8213 100.447C76.8213 100.626 77.8943 101.341 83.0804 99.3741C87.1936 97.7646 88.6242 100.268 89.3395 101.878C89.876 102.772 90.0549 103.308 90.5914 103.308C90.949 103.487 91.8432 103.308 93.8103 102.057C102.573 96.5128 108.117 101.52 108.296 101.699C108.475 101.878 108.653 102.235 108.653 102.593C108.653 102.951 108.475 103.129 108.296 103.487C108.117 103.845 107.759 103.845 107.402 103.845C107.044 103.845 106.865 103.666 106.507 103.487C106.329 103.308 101.858 99.5529 94.8833 104.024C94.168 105.097 92.5585 105.633 91.1279 105.812Z" fill="#666666"/>
<path d="M134.048 105.633C133.153 105.633 132.438 105.454 131.723 104.918C129.577 103.308 129.577 99.7318 129.934 96.334C129.934 95.7975 129.934 94.7246 129.398 94.5457C128.146 94.0092 124.033 95.7975 118.31 101.52C118.131 101.699 117.774 101.878 117.416 101.878C117.058 101.878 116.88 101.699 116.522 101.52C116.343 101.341 116.164 100.984 116.164 100.626C116.164 100.268 116.343 100.089 116.522 99.7318C118.668 97.5858 126.179 90.4327 130.292 92.221C131.186 92.5786 132.259 93.6516 132.08 96.334C131.902 100.089 132.08 102.235 132.975 102.951C133.511 103.308 134.405 103.308 135.478 102.772C135.657 102.772 135.836 102.772 136.015 102.772C136.194 102.772 136.372 102.772 136.551 102.951C136.73 102.951 136.909 103.129 136.909 103.308C137.088 103.487 137.088 103.487 137.088 103.666C137.088 103.845 137.088 104.024 137.088 104.202C137.088 104.381 137.088 104.56 136.909 104.739C136.909 104.918 136.73 105.097 136.551 105.097C136.372 105.275 136.372 105.275 136.194 105.275C135.836 105.454 134.942 105.454 134.048 105.633Z" fill="#666666"/>
<path d="M56.9709 156.42C56.4344 156.42 56.0767 156.42 55.719 156.242C55.1825 156.063 54.646 155.526 54.1095 155.169C53.7519 154.632 53.3942 154.096 53.3942 153.38C52.5001 148.373 55.5402 143.545 55.719 143.366C55.719 143.187 55.8979 143.187 56.0767 143.008C56.2555 142.829 56.4344 142.829 56.4344 142.829C56.6132 142.829 56.792 142.829 56.9709 142.829C57.1497 142.829 57.3285 142.829 57.3285 143.008C57.5073 143.008 57.5074 143.187 57.6862 143.366C57.865 143.545 57.865 143.724 57.865 143.724C57.865 143.902 57.865 144.081 57.865 144.26C57.865 144.439 57.865 144.618 57.6862 144.618C57.6862 144.618 55.0037 149.088 55.719 153.023C55.8979 153.917 56.2555 154.096 56.4344 154.096C56.9709 154.274 58.7592 154.453 63.4088 150.698C73.2446 142.651 76.1059 142.472 77.7154 143.366C79.5037 144.26 79.3249 146.764 79.146 147.479C79.146 147.837 79.146 148.194 79.146 148.552C79.146 148.91 79.5037 149.267 79.6825 149.446C80.9344 150.698 83.6168 150.519 84.6898 150.34C85.0475 150.34 85.2263 150.34 85.584 150.519C85.7628 150.698 85.9417 151.056 85.9417 151.234C85.9417 151.592 85.9417 151.771 85.7628 152.129C85.584 152.307 85.2263 152.486 85.0475 152.665C84.511 152.665 80.3979 153.201 78.073 151.056C77.5365 150.519 77.1789 149.983 77 149.267C76.8212 148.552 76.6424 147.837 76.8212 147.121C77 145.691 76.6424 145.333 76.6424 145.333C76.2847 145.154 74.1387 144.975 65.0183 152.486C61.6205 155.169 58.938 156.42 56.9709 156.42Z" fill="#B2B2B2"/>
<path d="M86.8357 157.672C86.478 157.672 86.2992 157.493 86.1204 157.314C85.9415 157.136 85.7627 156.957 85.7627 156.599C85.7627 156.242 85.7627 156.063 85.9415 155.884C86.1204 155.705 86.2992 155.526 86.6569 155.347C88.2663 154.811 89.697 154.274 91.1277 153.38C90.4123 152.844 89.8758 152.128 89.5182 151.234C89.1605 150.34 88.9817 149.446 89.1605 148.552C89.5182 146.585 90.77 144.797 92.3795 143.724C93.989 142.651 95.9561 142.114 97.9233 142.293C100.963 142.651 101.5 144.26 101.679 145.154C101.858 147.3 99.5328 150.34 96.135 153.023C96.3138 153.023 96.3138 153.023 96.4926 153.023C104.361 154.453 108.474 149.446 111.336 145.691L111.515 145.512C111.693 145.333 111.693 145.333 111.872 145.154C112.051 145.154 112.23 144.975 112.23 144.975C112.409 144.975 112.588 144.975 112.766 144.975C112.945 144.975 113.124 145.154 113.124 145.154C113.303 145.333 113.303 145.333 113.482 145.512C113.482 145.691 113.661 145.869 113.661 146.048C113.661 146.227 113.661 146.406 113.661 146.585C113.661 146.764 113.482 146.942 113.482 146.942L113.303 147.121C110.263 151.055 105.613 156.957 96.135 155.169C95.2408 154.99 94.5255 154.811 93.6313 154.453C91.6642 155.526 89.697 156.599 87.551 157.314C87.0145 157.672 86.8357 157.672 86.8357 157.672ZM96.8503 144.797C93.989 144.797 91.4853 146.942 91.3065 149.088C91.3065 149.804 91.3065 150.34 91.6642 151.055C92.0218 151.592 92.5583 152.128 93.0948 152.307C97.0291 149.804 99.1751 146.942 99.1751 145.691C99.1751 145.154 98.1021 144.975 97.5656 144.975C97.208 144.797 97.0291 144.797 96.8503 144.797Z" fill="#B2B2B2"/>
<path d="M128.325 156.063C127.61 156.063 127.073 155.884 126.358 155.705C125.821 155.526 125.285 154.99 124.748 154.632C123.675 153.38 122.781 150.698 125.285 145.869C125.642 144.975 125.642 144.618 125.642 144.618C125.106 144.618 124.569 144.797 124.212 144.975C121.708 145.869 117.058 149.267 114.734 154.99C114.555 155.347 114.376 155.526 114.018 155.705C113.661 155.884 113.482 155.884 113.124 155.705C112.766 155.526 112.588 155.347 112.409 154.99C112.23 154.632 112.23 154.453 112.409 154.096C115.449 146.764 121.708 142.651 124.927 142.293C125.464 142.114 126 142.293 126.358 142.472C126.894 142.651 127.252 143.008 127.61 143.366C128.146 144.26 128.146 145.512 127.431 146.942C126 149.804 125.821 152.128 126.715 153.201C127.073 153.559 127.431 153.738 127.967 153.917C128.504 154.096 128.861 153.917 129.398 153.738C131.723 153.023 133.869 151.592 135.478 149.804C135.657 149.625 136.015 149.446 136.193 149.446C136.551 149.446 136.73 149.446 137.088 149.804C137.266 149.983 137.445 150.34 137.445 150.519C137.445 150.877 137.445 151.055 137.088 151.413C135.12 153.559 132.617 155.169 129.756 156.063C129.398 156.063 128.861 156.063 128.325 156.063Z" fill="#B2B2B2"/>
<path d="M139.055 150.34L142.452 147.121L140.306 144.797L136.73 148.194C136.551 148.373 136.372 148.552 136.372 148.731C136.372 148.91 136.193 149.088 136.193 149.267C136.193 149.446 136.193 149.625 136.193 149.804C136.193 149.983 136.372 150.161 136.551 150.34C136.73 150.519 136.909 150.698 137.088 150.698C137.266 150.698 137.445 150.877 137.624 150.877C137.803 150.877 137.982 150.877 138.161 150.698C138.697 150.519 138.876 150.34 139.055 150.34Z" fill="#666666"/>
<path d="M249.215 32.4923L257.084 40.7184L261.018 44.8315L156.58 143.545L152.467 139.432L144.777 131.206L249.215 32.4923Z" fill="#69AFE5"/>
<path d="M263.701 40.0031L259.766 43.7585L250.467 33.9229L254.58 30.3464L263.701 40.0031Z" fill="#FFCB40"/>
<path d="M137.624 145.87L144.777 131.206L156.58 143.724L141.38 149.983L137.624 145.87Z" fill="#B2B2B2"/>
<path d="M261.018 45.0103L156.58 143.545L152.467 139.432L257.084 40.7184L261.018 45.0103Z" fill="#666666"/>
<path d="M260.482 21.9414C260.66 21.7626 261.018 21.5838 261.197 21.405C261.555 21.2261 261.733 21.2261 262.091 21.2261C262.449 21.2261 262.806 21.2261 262.985 21.405C263.343 21.5838 263.522 21.7626 263.701 21.9414L268.171 26.7698C268.529 27.3063 269.244 27.8428 269.96 28.5581C270.496 29.0946 271.212 29.8099 271.748 30.1676L272.285 30.8829C272.642 31.4194 273 31.9558 272.821 32.6712C272.821 33.3865 272.463 33.9229 272.106 34.2806L264.774 41.2549L261.018 36.963L253.328 28.7369L260.482 21.9414Z" fill="#69AFE5"/>
<path d="M261.555 36.6054L269.602 29.0946C269.781 28.9158 269.96 28.9158 270.139 28.9158C270.317 28.9158 270.496 28.9158 270.675 29.0946C271.033 29.4523 271.569 29.9887 271.927 30.3464C272.463 31.0617 272.821 31.777 272.821 32.6712C272.821 33.5653 272.463 34.2806 271.927 34.9959L265.847 40.7184C265.489 41.0761 264.953 41.0761 264.774 40.7184L261.912 37.6784C261.734 37.4995 261.734 37.3207 261.734 37.1419C261.376 36.963 261.376 36.7842 261.555 36.6054Z" fill="#666666"/>
<path d="M191.989 66.112L143.883 17.8284V65.3967C143.883 68.0791 146.029 70.4039 148.891 70.4039H191.989V66.112Z" fill="#FAA430"/>
<path d="M143.883 66.4697H192.705L139.234 13H139.055V61.4625C139.055 64.3237 141.201 66.4697 143.883 66.4697Z" fill="#E6E6E6"/>
</svg>
