<svg width="300" height="200" viewBox="0 0 300 200" fill="none" xmlns="http://www.w3.org/2000/svg">
<path d="M154.167 170.01V146.701H147.5V170.01H49.8334C48 170.01 46.3334 171.509 46.3334 173.507C46.3334 175.338 47.8334 176.67 49.5 176.67H251.333C253.167 176.67 254.667 175.172 254.667 173.34V173.174C254.667 171.342 253.167 169.844 251.333 169.844H154.167V170.01Z" fill="#69AFE5"/>
<path d="M158 166.68V158.356H143V166.68H129.667V180H171.333V166.68H158Z" fill="#666666"/>
<path d="M243.667 21.1644V141.207C243.667 142.372 242.667 143.371 241.5 143.371H61.8334C60.6667 143.371 59.6667 142.372 59.6667 141.207V21.1644C59.6667 19.999 60.6667 19 61.8334 19H241.333C242.667 19 243.667 19.999 243.667 21.1644Z" fill="#505050"/>
<path d="M234.333 25.9927H69V131.717H234.333V25.9927Z" fill="#DDDDDD"/>
<path d="M34 146.701H265.833C269.833 146.701 273 144.204 273 140.874V137.71H27V140.707C27 144.037 30.1667 146.701 34 146.701Z" fill="#737373"/>
<path d="M133.833 74.1096C134 74.6091 134.5 74.7756 134.833 74.9421H137.167C137.667 74.7756 138 74.4426 138.167 73.7766L138.333 70.9462C138.333 69.9473 138.833 69.6143 139.5 69.2813C139.833 68.9483 140.333 68.7818 140.833 68.4488C141.333 68.2823 142 68.1158 142.833 68.7818L145.5 70.4468C146 70.6132 146.5 70.4468 146.833 70.2803L148.5 68.4488C148.667 68.2823 148.667 67.6164 148.167 66.9504L146.167 64.7859C145.5 64.12 145.667 63.454 145.833 62.9545L145.667 62.788C146 62.455 146.167 61.9555 146.333 61.6226C146.333 60.9566 146.833 60.2906 148 60.1241L150.667 59.7911C151.333 59.4581 151.667 58.9586 151.667 58.6257L151.167 55.6288C151.167 55.2958 150.667 54.7963 150.167 54.7963L147.333 54.6298C146.333 54.6298 145.833 53.9638 145.667 53.4643C145.333 53.1313 145.167 52.6319 144.833 52.1324C144.667 51.6329 144.5 50.9669 145 49.968L146.667 47.8035C147 47.1376 146.833 46.6381 146.5 46.1386L144.667 44.8066C144.333 44.4736 143.667 44.4736 143.167 44.8066L141.167 46.9711C140.5 47.637 139.667 47.637 139.167 47.4705C138.667 47.304 138.167 47.1376 137.833 46.9711L137.667 46.8046C137.167 46.6381 136.667 46.4716 136.333 45.3061L136 42.3092C135.833 41.8097 135.333 41.6432 135 41.4767L132.5 41.6432C132.167 41.6432 131.667 42.1427 131.667 42.6422L131.333 45.6391C131.333 46.6381 130.833 46.9711 130.333 47.1376C130 47.4705 129.5 47.637 129 47.97C128.333 48.303 127.667 48.4695 126.833 47.8035L124.5 45.9721C124 45.8056 123.5 45.9721 123 46.3051L121.333 48.1365C121.333 48.4695 121.167 48.969 121.667 49.635L123.667 51.7994C124.333 52.4654 124.5 53.1313 124 53.6308C124 53.9638 123.833 54.4633 123.667 55.2958C123.5 55.7953 123.333 56.2947 122 56.4612L119 57.2937C118.5 57.4602 118.333 57.9597 118.167 58.2927L118.333 60.7901C118.333 61.1231 118.833 61.6226 119.167 61.7891H122.167C123.167 61.7891 123.5 62.2885 123.667 62.788C124 63.454 124.333 63.9535 124.5 64.453C125 64.9524 125 65.7849 124.667 66.4509L122.833 68.7818C122.667 69.2813 122.833 69.7808 123.167 70.2803L124.833 71.7787C125.167 72.1117 125.833 72.1117 126.333 71.7787L128.333 69.6143C129 68.9483 129.833 68.9483 130.333 69.1148C130.833 69.2813 131.333 69.4478 131.833 69.7808C132.5 69.7808 132.833 70.1138 133.167 71.2792L133.833 74.1096ZM140.833 56.9607C141 60.1241 138.667 63.121 135.167 63.454C131.833 63.787 128.833 61.4561 128.667 57.7932C128.5 54.6298 130.833 51.6329 134.167 51.4664C137.5 51.1334 140.5 53.6308 140.833 56.9607Z" fill="#75BBEA"/>
<path d="M148.833 77.1065C148.5 77.4395 147.833 77.4395 147.833 77.273C147.667 77.4395 147.5 76.94 147.333 76.4405L146.833 74.9421C146.667 74.4426 146.167 74.4426 146 74.7756L144.833 75.9411C144.5 76.4405 144 76.607 143.833 76.607L143.167 75.9411L142 74.7756C141.667 74.4426 141.167 74.4426 141.167 74.9421L140.5 76.607C140.333 76.94 140 77.4395 140 77.606C140 77.606 139.667 77.4395 139.167 77.1065L137.667 76.4405C137.167 76.1075 136.833 76.4405 136.833 76.94V78.605C137 78.9379 136.667 79.4374 136.5 79.6039C136.5 79.6039 136.167 79.7704 135.667 79.7704H134.167C133.667 79.7704 133.333 79.9369 133.667 80.4364L134.333 81.9348C134.5 82.2678 134.5 82.9338 134.5 82.9338C134.333 83.1003 134 83.1003 133.5 83.2668L132 83.9328C131.667 84.0993 131.5 84.4323 131.833 84.7653L133 85.9307C133.167 86.2637 133.667 86.9297 133.667 86.9297C133.5 87.0962 133.333 87.4292 133 87.7621L131.5 88.9276C131.167 89.0941 131.333 89.5936 131.667 89.7601L133.167 90.4261C133.5 90.5926 134 90.9255 134 91.092C134 91.092 134 91.5915 133.833 91.9245L133 93.423C132.833 93.7559 133.167 94.0889 133.5 94.2554H135.167C135.667 94.2554 136.167 94.2554 136.333 94.4219C136.5 94.5884 136.5 94.9214 136.5 95.2544V97.0858C136.5 97.5853 136.833 97.7518 137.167 97.5853L138.667 96.7528C139.167 96.5863 139.667 96.5863 139.833 96.7528C140 96.5863 140 97.0858 140.333 97.5853L140.833 99.0838C141 99.5832 141.5 99.4167 141.667 99.2503L142.833 98.0848C143.167 97.5853 143.667 97.4188 143.833 97.4188L144.5 98.0848L145.667 99.2503C146 99.5832 146.5 99.5832 146.5 99.0838L147.167 97.2523C147.333 96.9193 147.667 96.5863 147.833 96.4198C147.833 96.4198 148.167 96.5863 148.667 96.9193L150.167 97.5853C150.667 97.9183 151 97.5853 151 97.0858L150.833 95.5874C150.833 95.0879 151 94.4219 151.167 94.2554C151.167 94.2554 151.667 94.2554 152.167 94.2554H153.667C154.167 94.2554 154.333 93.9224 154.167 93.5894L153.667 91.9245C153.5 91.5915 153.5 90.9255 153.5 90.9255C153.667 90.759 153.833 90.5926 154.333 90.4261L156 89.9266C156.333 89.7601 156.5 89.4271 156.167 89.0941L155 87.9286C154.667 87.5957 154.333 86.9297 154.333 86.9297C154.167 86.7632 154.667 86.4302 154.833 86.2637L156.167 85.0982C156.5 84.9317 156.333 84.4323 156 84.2658L154.5 83.5998C154.167 83.4333 153.5 83.1003 153.667 82.9338C153.5 82.7673 153.667 82.4343 153.833 82.1013L154.667 80.6029C154.833 80.2699 154.5 79.9369 154 79.9369H152.5C152 79.9369 151.333 79.7704 151.333 79.7704C151.167 79.6039 151.167 79.2709 151.167 78.7715L151.333 77.1065C151.333 76.607 151 76.4405 150.667 76.607L148.833 77.1065ZM145.667 85.7642C146.333 86.7632 146 88.0951 145 88.7611C144 89.4271 142.667 89.0941 142 88.0951C141.333 87.0962 141.667 85.7642 142.833 85.0982C143.667 84.5988 145 84.7652 145.667 85.7642Z" fill="#F08400"/>
<path d="M121.333 70.9463C121.833 70.6133 121.667 69.7808 121.333 69.6143L119.5 67.6164C119.167 67.2834 118.667 67.2834 118.167 67.6164L115 69.6143C114.333 69.1148 113.5 68.6153 112.833 68.1159L113.833 64.2865C114 63.9535 113.667 63.2875 113.333 63.121L111 62.1221C110.5 61.7891 109.833 62.1221 109.667 62.4551L107.5 65.7849C106.667 65.4519 105.833 65.119 105 65.119L104.667 61.2896C104.667 60.7901 104.333 60.2906 103.667 60.2906H101C100.667 60.1241 100.167 60.4571 100 60.9566L99.1667 64.9525C98.3334 64.9525 97.5 65.119 96.6667 65.4519L94.6667 61.9556C94.3334 61.6226 93.8334 61.2896 93.5 61.4561L91.1667 62.2886C90.6667 62.4551 90.5 62.9545 90.5 63.2875L91.3334 67.1169C90.6667 67.4499 89.8334 68.1159 89.1667 68.6153L86.1667 66.1179C85.8334 65.7849 85.3334 65.7849 84.8334 66.1179L83 67.7829C82.5 68.1159 82.5 68.7818 82.8334 68.9483L85 72.2782C84.3334 73.1107 83.6667 73.7767 83.3334 74.6091L79.5 73.2772C79 73.2772 78.5 73.4437 78.1667 73.9432L77.1667 76.2741C77 76.6071 77.1667 77.4395 77.6667 77.606L80.8334 79.7705C80.5 80.6029 80.5 81.4354 80.1667 82.2679L76.3334 82.6009C75.8334 82.7674 75.5 83.1003 75.5 83.5998L75.3334 86.0972C75.3334 86.5967 75.6667 87.0962 76.1667 87.2627L80.1667 87.9287C80.3334 88.9276 80.3334 89.9266 80.6667 90.7591L77 92.5905C76.5 92.757 76.3334 93.2565 76.5 93.756L77.3334 96.0869C77.5 96.5864 78 96.7529 78.5 96.7529L82.3334 95.9204C83 96.9194 83 96.9194 83.6667 98.0848L81.1667 101.082C81 101.415 81 102.081 81.1667 102.414L83 104.412C83.3334 104.745 84 104.911 84.1667 104.578L87.5 102.414C88.1667 102.913 89 103.413 89.6667 103.912L88.6667 107.741C88.5 108.074 88.8334 108.74 89.1667 108.907L91.6667 110.072C92 110.239 92.5 110.072 93 109.739L95.1667 106.576C96 106.576 96.8334 106.909 97.6667 106.909L97.8334 110.905C98 111.404 98.3334 111.737 98.8334 111.737L101.5 112.07C102 111.904 102.333 111.571 102.5 111.071L103.167 107.242C104.167 107.076 105 106.909 106 106.743L107.833 110.072C108.167 110.572 108.667 110.738 109 110.572L111.333 109.739C111.833 109.406 112.167 108.907 112.167 108.574L111.333 104.745C112 104.412 112.833 103.912 113.5 103.246L116.5 105.744C116.833 106.243 117.5 106.243 117.833 105.744L119.667 104.079C120.167 103.746 120.167 103.08 119.667 102.747L117.5 99.4168C118.167 98.7508 118.667 98.0848 119.167 97.0859L123 98.4178C123.333 98.5843 124 98.2513 124.167 97.9183L125.333 95.4209C125.5 95.0879 125.167 94.422 125 94.089L121.667 91.9245C122 91.0921 122.167 90.4261 122.167 89.5936L126.167 89.0941C126.667 88.9276 127 88.5947 127 88.2617L127.167 85.4313C127.167 84.9318 126.833 84.4323 126.167 84.4323L122.333 83.7663C122.167 82.7674 122.333 81.9349 122 81.1024L125.333 79.1045C125.833 78.7715 126.167 78.272 126 77.7725L125.333 75.7746C125.167 75.2751 124.667 75.1086 124.167 75.2751L120.333 75.9411C119.667 74.9421 119.667 74.9421 119.167 73.9432L121.333 70.9463ZM104.333 83.7663C106 85.4313 105.833 87.9287 104 89.5936C102.333 91.0921 99.8334 90.9256 98.3334 89.2606C96.8334 87.5957 96.8334 85.0983 98.5 83.5998C100.167 81.9349 102.833 82.2679 104.333 83.7663Z" fill="#FAA430"/>
<path d="M234.333 104.079V25.9927H156.167L234.333 104.079Z" fill="white"/>
<path d="M165.167 83.5998C173.333 91.758 186.333 91.758 194.5 83.5998C202.666 75.4416 202.666 62.455 194.5 54.2968C186.333 46.1386 173.333 46.1386 165.167 54.2968C157 62.455 157 75.6081 165.167 83.5998Z" fill="#69AFE5"/>
<path d="M225.5 107.409L205.5 87.5957C205 87.0962 204.166 87.0962 203.833 87.5957L203 88.4281L198.333 83.7663C205.667 74.4426 205.166 60.9566 196.5 52.4654C187.333 43.3082 172.333 43.3082 163.167 52.4654C154 61.6226 154 76.607 163.167 85.7642C171.666 94.2554 185.333 94.9214 194.5 87.5957L199.167 92.2575L198.333 93.09C197.833 93.5895 197.833 94.4219 198.333 94.7549L218.166 114.568C218.666 115.067 219.5 115.067 219.833 114.568L225.5 108.907C226 108.574 226 107.908 225.5 107.409ZM166.5 82.2679C159.167 74.9421 159.167 63.121 166.5 55.9617C173.833 48.636 185.667 48.636 192.833 55.9617C200.166 63.2875 200.166 75.1086 192.833 82.2679C185.667 89.4271 173.833 89.4271 166.5 82.2679Z" fill="#666666"/>
<path d="M176.167 62.6215C178 64.453 181.167 64.453 183.167 62.6215C185 60.7901 185 57.6267 183.167 55.6288C181.333 53.7973 178.167 53.7973 176.167 55.6288C174.167 57.6267 174.167 60.7901 176.167 62.6215Z" fill="white"/>
<path d="M198.167 93.09L201 90.2596L220.5 109.739C220.667 109.906 221 109.906 221.167 109.739L224.5 106.41L225.5 107.408C226 107.908 226 108.574 225.5 109.073L219.833 114.734C219.333 115.234 218.667 115.234 218.167 114.734L198.167 94.7549C197.667 94.2554 197.667 93.5895 198.167 93.09Z" fill="#3C3C3C"/>
</svg>
