<svg xmlns="http://www.w3.org/2000/svg" viewBox="0 0 300 200"><title>als-confirm-vm-specs</title><rect x="85" y="31" width="129" height="84" fill="#fff"/><path d="M153,166V147h-6v19H65.353c-1.542.589-2.944,1.851-2.944,3.533A2.388,2.388,0,0,0,65.072,172H234.839a2.538,2.538,0,0,0,2.8-2.607,3.928,3.928,0,0,0-2.8-3.393Z" fill="#69afe5"/><path d="M156,164v-7H144v7H131v11h37V164Z" fill="#666"/><path d="M142.377,75.683a1.083,1.083,0,0,0-.981-1.122l-2.523-.14a1.723,1.723,0,0,1-1.4-1.122c-.14-.42-.561-1.542-.561-1.542a1.585,1.585,0,0,1,.28-1.682l1.823-1.962a.849.849,0,0,0,0-1.122l-1.4-1.4a1.048,1.048,0,0,0-1.262,0l-2.243,1.4c-.7.561-.981.421-1.682.28a13.272,13.272,0,0,1-1.262-.42,1.417,1.417,0,0,1-1.121-1.542v-2.8a1.042,1.042,0,0,0-.841-.841l-2.384-.14a1.18,1.18,0,0,0-.981.981l-.42,2.663c-.141.842-.421.982-1.122,1.262-.28.141-.7.421-1.262.7-.42.14-.841.281-1.822-.42l-2.1-1.683a1.071,1.071,0,0,0-1.122,0l-1.542,1.543c-.28.28-.56.841-.28,1.121l1.682,2.1a1.341,1.341,0,0,1,.281,1.542,8.235,8.235,0,0,1-.7,1.542c-.28.7-.561,1.121-1.262,1.121h-2.8a1.265,1.265,0,0,0-.84.842l-.141,2.242c0,.421.281.982.7.982l2.664.14a1.727,1.727,0,0,1,1.4,1.121c.14.421.28.982.42,1.4.28.7.28.982-.28,1.823l-1.122,2.383a1.069,1.069,0,0,0,0,1.121l1.4,1.543a1.063,1.063,0,0,0,1.4,0l2.1-1.543a1.517,1.517,0,0,1,1.822-.28c.421.14.982.28,1.4.421a1.879,1.879,0,0,1,.981,1.542l.281,2.663a1.023,1.023,0,0,0,.981.841l1.963.141a1.025,1.025,0,0,0,.981-.842l.42-2.8a1.353,1.353,0,0,1,1.122-1.262,6.857,6.857,0,0,0,1.4-.561c.56-.28.981-.42,1.822.281l1.823,1.682c.56.561,1.121.14,1.4,0l1.542-1.542a1.048,1.048,0,0,0,0-1.262l-1.542-2.1a2.118,2.118,0,0,1-.14-1.822l.42-1.262a1.417,1.417,0,0,1,1.542-1.121l2.664-.141a.9.9,0,0,0,.841-.981Zm-11.115,4.971a5.64,5.64,0,0,1-7.71-.141,5.26,5.26,0,0,1,.14-7.71,5.454,5.454,0,0,1,7.57,7.851Zm-17.65-17.36.286-2.12c.143-.706.429-.848.857-.848a5.176,5.176,0,0,0,1-.424c.429-.282.714-.282,1.429.283l1.428,1.272a.677.677,0,0,0,1,0l1.143-1.131a.878.878,0,0,0,0-.847l-1.143-1.555a1.655,1.655,0,0,1-.143-1.413,8.875,8.875,0,0,0,.286-.989c.286-.565.429-.848,1.143-.848l2-.141c.571-.141.571-.424.714-.707l-.143-1.554c0-.565-.285-.707-.714-.848l-1.857-.141c-.714-.141-1-.424-1.143-.848s-.429-1.13-.429-1.13a1.157,1.157,0,0,1,.286-1.272l1.429-1.554c.285-.283.143-.566,0-.848l-1.286-.848a.539.539,0,0,0-.857,0l-1.714,1.13c-.572.424-.715.283-1.286.142a9.393,9.393,0,0,1-1-.283c-.429-.282-.857-.424-.857-1.13V42.663c-.143-.423-.286-.565-.572-.565l-1.857-.141c-.285,0-.571.283-.714.706l-.286,1.979c-.143.706-.285.706-.857.989a7.114,7.114,0,0,1-1,.424c-.428.141-.714.141-1.286-.424L105.9,44.359a.65.65,0,0,0-.857,0L103.9,45.49c-.143.141-.429.706-.143.847l1.286,1.555c.428.565.286.706.143,1.13a8.276,8.276,0,0,0-.572,1.131c-.285.423-.428.847-1,.847h-2c-.428.142-.571.283-.571.707v1.554c0,.283.286.707.571.707l2,.141c.715.141,1,.424,1.143.848a3.291,3.291,0,0,1,.286,1.13c.143.565.286.707-.143,1.272L103.755,59.2a.633.633,0,0,0,0,.848l1,1.13a.7.7,0,0,0,1,0l1.572-1.13a1.108,1.108,0,0,1,1.428-.142,2.659,2.659,0,0,0,1,.283c.429.141.572.424.714,1.13l.286,1.979a.761.761,0,0,0,.714.706H112.9A.663.663,0,0,0,113.612,63.294Zm-4.218-7.733A3.965,3.965,0,1,1,115,49.954a4.019,4.019,0,0,1,.14,5.747A4.3,4.3,0,0,1,109.394,55.561Z" fill="#69afe5"/><path d="M203.317,77.851A20.245,20.245,0,0,0,166.168,62.29a19.769,19.769,0,0,0-1.682,15.421A20.213,20.213,0,0,0,183.972,92.43a19.416,19.416,0,0,0,5.607-.841,20.184,20.184,0,0,0,11.5-8.551l28.878,15.981,2.664-4.906Zm-6.588,1.4a15.207,15.207,0,0,1-8.832,7.009A14.289,14.289,0,0,1,176.682,85a15.2,15.2,0,0,1-7.009-8.832,14.287,14.287,0,0,1,1.262-11.214,14.842,14.842,0,0,1,12.9-7.57,14.143,14.143,0,0,1,7.009,1.822A14.814,14.814,0,0,1,196.729,79.253Z" fill="#69afe5"/><path d="M242.8,144.892c-1.049,2.55-4.049,4.108-7.8,4.108H65c-3.75,0-6.9-1.558-7.95-4.108a4.528,4.528,0,0,1,1.5-5.384L80,121.233v-16.15l6,2.834V115H214V96.158l6,3.117v21.958l21.448,18.417A4.272,4.272,0,0,1,242.8,144.892ZM85,33.8A2.813,2.813,0,0,1,87.8,31H211.269s2.8.869,2.731,2.411V78.832l6,3.084V33.551A9.064,9.064,0,0,0,211.269,25H87.411A8.436,8.436,0,0,0,79,33.411V60.7l6-2.1Z" fill="#666"/><circle cx="86.389" cy="81.91" r="26" fill="#fff"/><path d="M108.689,80.719a1.818,1.818,0,0,0-1.4-1.683l-3.925-.14a2.5,2.5,0,0,1-2.243-1.682c-.28-.7-.7-2.383-.7-2.383a2.246,2.246,0,0,1,.421-2.524l2.8-3.084a1.155,1.155,0,0,0-.14-1.682l-2.244-2.383a1.308,1.308,0,0,0-1.822,0l-3.365,2.383c-.981.841-1.4.7-2.523.28a10.892,10.892,0,0,1-1.962-.7A2.486,2.486,0,0,1,89.9,64.737l-.14-4.206c-.28-.7-.561-1.121-1.261-1.261H84.858c-.7,0-1.262.561-1.4,1.542L82.9,64.877c-.14,1.4-.561,1.542-1.542,1.963l-1.963.981c-.7.281-1.4.281-2.663-.7L73.643,64.6a1.47,1.47,0,0,0-1.683.14L69.437,66.98c-.421.421-.841,1.262-.281,1.822l2.664,3.225a2.016,2.016,0,0,1,.421,2.383,12.809,12.809,0,0,1-1.122,2.383,3.134,3.134,0,0,1-1.963,1.823l-4.205.14a1.83,1.83,0,0,0-1.262,1.4l-.14,3.364a1.388,1.388,0,0,0,1.122,1.542l4.065.281a2.5,2.5,0,0,1,2.243,1.682c.28.7.421,1.4.7,2.243.42,1.121.42,1.4-.421,2.664l-2.383,2.8a1.442,1.442,0,0,0,.14,1.682l2.1,2.383a1.674,1.674,0,0,0,2.1,0l3.084-2.383a2.349,2.349,0,0,1,2.8-.42c.7.14,1.4.561,2.1.7.7.28,1.261.841,1.4,2.243l.421,4.065a1.485,1.485,0,0,0,1.4,1.4l2.944.14a1.413,1.413,0,0,0,1.542-1.4l.561-4.2c.14-1.4.981-1.542,1.682-1.823,0,0,1.542-.56,2.1-.841.981-.56,1.542-.7,2.8.561l2.8,2.523a1.639,1.639,0,0,0,2.1,0l2.383-2.243a1.469,1.469,0,0,0,0-1.822l-2.383-3.084a2.919,2.919,0,0,1-.28-2.8c.28-.7.42-1.262.7-1.962a2.355,2.355,0,0,1,2.383-1.683l4.065-.14c1.122-.14,1.262-.7,1.4-1.4Zm-16.682,7.5a8.658,8.658,0,0,1-11.776-.28,8.024,8.024,0,0,1,.281-11.776,8.334,8.334,0,0,1,11.5,12.056Z" fill="#ffcb40"/></svg>