<svg width="300" height="200" viewBox="0 0 300 200" fill="none" xmlns="http://www.w3.org/2000/svg">
<path d="M242.111 156.972C233.497 149.376 234.16 143.927 241.78 137.651C248.075 132.367 250.892 123.45 250.892 115.523H225.876V181.413H250.726C250.726 181.413 252.714 166.385 242.111 156.972Z" fill="#C7E0F4"/>
<path d="M212.126 133.688C215.44 136.495 219.747 140.624 221.238 143.927C222.895 147.395 228.361 147.395 230.018 143.927C231.84 140.128 235.816 136.33 238.964 133.523H212.126V133.688Z" fill="#FAA430"/>
<path d="M269.777 18.2569H183.633V89.2661H269.777V18.2569Z" fill="#DDDDDD"/>
<path d="M269.777 18.2569H183.633V35.5963H269.777V18.2569Z" fill="#737373"/>
<path d="M71.8103 18.5872C51.5995 18.5872 35.0332 34.9358 35.0332 55.2477C35.0332 75.3945 51.4338 91.9083 71.8103 91.9083C92.1868 91.9083 108.587 75.5596 108.587 55.2477H71.8103V18.5872Z" fill="#939393"/>
<path d="M96.8254 28.4954C90.1989 22.3853 81.4187 18.7523 71.8103 18.7523C51.5995 18.7523 35.0332 35.1009 35.0332 55.4129C35.0332 75.5597 51.4338 92.0734 71.8103 92.0734C92.1868 92.0734 108.587 75.7248 108.587 55.4129H71.8103L96.8254 28.4954Z" fill="#C2C2C2"/>
<path d="M71.8103 18.5872C51.5995 18.5872 35.0332 34.9358 35.0332 55.2477C35.0332 75.3945 51.4338 91.9083 71.8103 91.9083C92.1868 91.9083 108.587 75.5596 108.587 55.2477H71.8103V18.5872Z" fill="#737373"/>
<path d="M108.422 56.7339L71.8103 55.2477L90.5302 86.789C100.801 80.5137 107.925 69.4495 108.422 56.7339Z" fill="#69AFE5"/>
<path d="M248.572 179.431C248.407 178.771 248.075 176.459 247.413 175.963L228.03 160.771C226.871 159.78 225.048 159.78 223.723 160.606L203.181 175.468C202.352 176.128 201.855 178.606 201.855 179.431H248.572Z" fill="#FAA430"/>
<path d="M225.048 59.5413H196.885V71.1009H225.048V59.5413Z" fill="white"/>
<path d="M205.169 16.6055H200.199V28.1652H205.169V16.6055Z" fill="#69AFE5"/>
<path d="M253.211 16.6055H248.241V28.1652H253.211V16.6055Z" fill="#69AFE5"/>
<path d="M205.169 43.0275H200.199V47.9817H205.169V43.0275Z" fill="#69AFE5"/>
<path d="M205.169 52.9358H200.199V57.8899H205.169V52.9358Z" fill="#69AFE5"/>
<path d="M205.169 62.8441H200.199V67.7982H205.169V62.8441Z" fill="#F08400"/>
<path d="M221.735 43.0275H216.765V47.9817H221.735V43.0275Z" fill="#69AFE5"/>
<path d="M221.735 52.9358H216.765V57.8899H221.735V52.9358Z" fill="#69AFE5"/>
<path d="M221.735 62.8441H216.765V67.7982H221.735V62.8441Z" fill="#F08400"/>
<path d="M221.735 72.7523H216.765V77.7065H221.735V72.7523Z" fill="#69AFE5"/>
<path d="M238.301 43.0275H233.331V47.9817H238.301V43.0275Z" fill="#69AFE5"/>
<path d="M238.301 52.9358H233.331V57.8899H238.301V52.9358Z" fill="#69AFE5"/>
<path d="M238.301 62.8441H233.331V67.7982H238.301V62.8441Z" fill="#69AFE5"/>
<path d="M238.301 72.7523H233.331V77.7065H238.301V72.7523Z" fill="#69AFE5"/>
<path d="M254.868 52.9358H249.898V57.8899H254.868V52.9358Z" fill="#69AFE5"/>
<path d="M254.868 62.8441H249.898V67.7982H254.868V62.8441Z" fill="#69AFE5"/>
<path d="M254.868 72.7523H249.898V77.7065H254.868V72.7523Z" fill="#69AFE5"/>
<path d="M69.6568 114.037H54.0845C52.4278 114.037 51.1025 115.358 51.1025 117.009V180.422C51.1025 182.073 52.4278 183.394 54.0845 183.394H69.6568C71.3134 183.394 72.6387 182.073 72.6387 180.422V117.009C72.6387 115.358 71.3134 114.037 69.6568 114.037Z" fill="#FAA430"/>
<path d="M57.729 114.037H54.0845C52.4278 114.037 51.1025 115.358 51.1025 117.009V180.422C51.1025 182.073 52.4278 183.394 54.0845 183.394H57.729V114.037Z" fill="#F08400"/>
<path d="M43.1507 142.11H27.5784C25.9217 142.11 24.5964 143.431 24.5964 145.083V180.422C24.5964 182.073 25.9217 183.394 27.5784 183.394H43.1507C44.8073 183.394 46.1326 182.073 46.1326 180.422V145.083C46.1326 143.431 44.8073 142.11 43.1507 142.11Z" fill="#FAA430"/>
<path d="M31.2229 142.11H27.5784C25.9217 142.11 24.5964 143.431 24.5964 145.083V180.422C24.5964 182.073 25.9217 183.394 27.5784 183.394H31.2229V142.11Z" fill="#F08400"/>
<path d="M96.1626 125.596H80.5903C78.9337 125.596 77.6084 126.917 77.6084 128.569V180.422C77.6084 182.073 78.9337 183.394 80.5903 183.394H96.1626C97.8192 183.394 99.1445 182.073 99.1445 180.422V128.569C99.1445 126.917 97.8192 125.596 96.1626 125.596Z" fill="#FAA430"/>
<path d="M84.2349 125.596H80.5903C78.9337 125.596 77.6084 126.917 77.6084 128.569V180.422C77.6084 182.073 78.9337 183.394 80.5903 183.394H84.2349V125.596Z" fill="#F08400"/>
<path d="M122.669 147.064H107.096C105.44 147.064 104.115 148.385 104.115 150.037V180.422C104.115 182.073 105.44 183.394 107.096 183.394H122.669C124.325 183.394 125.651 182.073 125.651 180.422V150.037C125.651 148.385 124.325 147.064 122.669 147.064Z" fill="#FAA430"/>
<path d="M110.741 147.064H107.096C105.44 147.064 104.115 148.385 104.115 150.037V180.422C104.115 182.073 105.44 183.394 107.096 183.394H110.741V147.064Z" fill="#F08400"/>
<path d="M13 102.477H288" stroke="#C2C2C2" stroke-miterlimit="10"/>
<path d="M150.5 10V190" stroke="#C2C2C2" stroke-miterlimit="10"/>
<path d="M106.765 24.0367L82.2471 51.2844H119.024C119.024 40.3853 114.22 30.6422 106.765 24.0367Z" fill="#F08400"/>
<path d="M108.587 55.2477H71.8103L105.44 69.9449C107.428 65.4862 108.587 60.5321 108.587 55.2477Z" fill="#409AE1"/>
<path d="M245.425 120.312C244.596 125.266 242.443 130.385 238.467 133.688C235.154 136.33 230.846 140.789 230.681 146.569C230.515 152.679 235.154 157.468 238.633 160.44C245.093 167.046 245.425 174.807 245.756 179.266H205.334C205.666 174.972 205.997 166.22 212.458 160.44C215.937 157.468 220.41 152.679 220.41 146.569C220.244 140.624 215.937 136.33 212.624 133.688C208.648 130.385 206.494 125.101 205.666 120.312H245.425ZM250.892 115.358H200.53C200.53 123.284 203.346 132.367 209.642 137.486C217.262 143.761 218.09 149.211 209.31 156.807C198.542 166.22 200.696 181.248 200.696 181.248H250.726C250.726 181.248 252.714 166.22 242.111 156.807C233.497 149.211 234.16 143.761 241.78 137.486C248.075 132.367 250.892 123.45 250.892 115.358Z" fill="#69AFE5"/>
<path d="M256.193 118.826H195.395C194.732 118.826 194.069 118.33 194.069 117.505V113.706C194.069 113.046 194.566 112.385 195.395 112.385H256.193C256.855 112.385 257.518 112.881 257.518 113.706V117.505C257.518 118.33 256.855 118.826 256.193 118.826Z" fill="#737373"/>
<path d="M256.193 184.881H195.395C194.732 184.881 194.069 184.385 194.069 183.56V179.761C194.069 179.101 194.566 178.44 195.395 178.44H256.193C256.855 178.44 257.518 178.936 257.518 179.761V183.56C257.518 184.22 256.855 184.881 256.193 184.881Z" fill="#737373"/>
</svg>
