<svg xmlns="http://www.w3.org/2000/svg" viewBox="0 0 300 200"><title>als-publish-vm</title><path d="M54.568,67H166.376a1.152,1.152,0,0,1,1.169,1.168V140h-114V68.168A1.034,1.034,0,0,1,54.568,67Z" fill="#fff"/><path d="M195.433,163.738l-20.888-16.526V67.174A9.174,9.174,0,0,0,165.371,58H53.719a9.174,9.174,0,0,0-9.174,9.175v80.037L26.432,163.593a5.989,5.989,0,0,0-1.753,6.581C25.7,173.1,28.915,175,32.859,175h156c3.8,0,7.01-1.9,8.18-4.68A5.93,5.93,0,0,0,195.433,163.738ZM54.568,67H166.376a1.152,1.152,0,0,1,1.169,1.168V140h-114V68.168A1.034,1.034,0,0,1,54.568,67Z" fill="#666"/><path d="M91.319,107.574a2.833,2.833,0,0,1-.145,4.223,3.579,3.579,0,0,1-2.185.729,2.964,2.964,0,0,1-2.184-.874,2.643,2.643,0,0,1-.874-2.039,3.063,3.063,0,0,1,1.019-2.039A3.5,3.5,0,0,1,91.319,107.574ZM110.556,93l-9.093,22h5.28l9.239-22ZM86.95,98.837a3.059,3.059,0,0,0-1.019,2.039,2.643,2.643,0,0,0,.874,2.039,4.4,4.4,0,0,0,2.33.728,3.573,3.573,0,0,0,2.184-.728,2.875,2.875,0,0,0,.874-2.039,2.642,2.642,0,0,0-.874-2.039A3.5,3.5,0,0,0,86.95,98.837ZM101.381,93l-9.094,22h5.28l9.241-22Z" fill="#69afe5"/><path d="M62.545,96h20v15h-20Zm55,0v15h39V96Z" fill="#ffcb40"/><path d="M216.854,43.641l5.1,3.5.437,7.719.437,8.009,51.7-37.135L224.281,39.855Z" fill="#666"/><path d="M216.417,36.505l.437,7.281,31.6-9.9L217.29,48.592l.583,12.088L275.688,25Z" fill="#ffcb40"/><path d="M202.728,136.451q-1.668,0-3.309-.028l.051-3c1.639.029,3.316.044,4.946.012l.057,3Q203.609,136.45,202.728,136.451Zm-8.351-.185c-1.689-.077-3.385-.178-5.038-.3l.226-2.992c1.623.123,3.288.223,4.947.3Zm15.178-.079-.239-2.991c1.653-.132,3.288-.317,4.864-.551l.441,2.966C212.979,135.856,211.274,136.05,209.555,136.187Zm-25.247-.687c-1.7-.186-3.389-.4-5.016-.642l.437-2.968c1.591.235,3.241.446,4.9.628Zm35.34-.833-.671-2.924c1.618-.372,3.195-.807,4.686-1.295l.932,2.852C223.019,133.814,221.354,134.274,219.648,134.667Zm-45.352-.655c-1.72-.332-3.39-.7-4.963-1.09l.725-2.912c1.521.379,3.139.734,4.806,1.056Zm-9.87-2.48c-1.7-.547-3.326-1.144-4.819-1.777l1.172-2.762c1.409.6,2.944,1.163,4.563,1.682Zm64.978-.079-1.224-2.738a39.578,39.578,0,0,0,4.269-2.221L234,129.063A42.526,42.526,0,0,1,229.4,131.453Zm-74.442-4.01a25.664,25.664,0,0,1-4.294-3.106l2.02-2.219a22.693,22.693,0,0,0,3.791,2.737Zm83.3-1.38-1.906-2.316a27.3,27.3,0,0,0,3.388-3.3l2.278,1.953A30.4,30.4,0,0,1,238.259,126.063Zm-91-6.021a11.692,11.692,0,0,1-1.369-5.479h3a8.714,8.714,0,0,0,1.025,4.086Zm97.788-2-2.633-1.44a18.7,18.7,0,0,0,1.712-4.284l2.9.75A21.692,21.692,0,0,1,245.045,118.047Zm-.4-10.252a14.92,14.92,0,0,0-.822-4.448l2.834-.987a17.918,17.918,0,0,1,.986,5.343Zm-2.933-8.469A17.886,17.886,0,0,0,238.534,96l1.9-2.326a20.868,20.868,0,0,1,3.7,3.889Zm-7.1-5.853a27.449,27.449,0,0,0-4.4-1.757l.879-2.869a30.632,30.632,0,0,1,4.875,1.95Zm-9.21-3.09c-1.666-.506-3.294-1.073-4.837-1.689l1.109-2.787c1.467.584,3.014,1.123,4.6,1.605Zm-9.523-3.818a43.739,43.739,0,0,1-4.454-2.635l1.683-2.483a40.4,40.4,0,0,0,4.148,2.452ZM207.323,80.7a26.411,26.411,0,0,1-3.527-3.944L206.229,75a23.492,23.492,0,0,0,3.129,3.493Zm-6.071-8.712a14.916,14.916,0,0,1-.891-5.012c0-.146,0-.292.007-.437l3,.09c0,.115-.005.23-.005.347a11.949,11.949,0,0,0,.717,4.006Zm3.116-9.627-2.738-1.224a18,18,0,0,1,2.978-4.542l2.248,1.986A15.03,15.03,0,0,0,204.368,62.363Zm5.959-6.916-1.787-2.41a36.658,36.658,0,0,1,4.408-2.777l1.424,2.64A33.743,33.743,0,0,0,210.327,55.447Z" fill="#69afe5"/></svg>