<svg width="300" height="200" viewBox="0 0 300 200" fill="none" xmlns="http://www.w3.org/2000/svg">
<path d="M113.951 104.468C119.645 104.468 125.177 102.843 129.895 99.5939C134.613 96.507 138.355 91.958 140.47 86.7591C142.585 81.5603 143.236 75.7115 142.097 70.1877C140.958 64.6639 138.193 59.465 134.288 55.5659C130.221 51.5042 125.177 48.9048 119.645 47.7675C114.114 46.6303 108.257 47.2801 103.05 49.3922C97.8441 51.5042 93.2886 55.2409 90.1974 59.9524C87.1062 64.6639 85.3165 70.1877 85.3165 75.874C85.3165 83.5098 88.4077 90.8208 93.7767 96.1821C98.983 101.381 106.304 104.468 113.951 104.468Z" fill="#C2C2C2"/>
<path d="M74.2532 187C83.0388 187 91.499 184.401 98.8203 179.527C106.142 174.653 111.673 167.829 115.09 159.706C118.506 151.583 119.32 142.81 117.53 134.199C115.903 125.588 111.673 117.79 105.491 111.616C99.3084 105.443 91.499 101.218 82.8761 99.5938C74.2532 97.9692 65.4677 98.7815 57.3329 102.031C49.1981 105.443 42.3649 110.966 37.484 118.277C32.6031 125.588 30 134.199 30 142.81C30 148.658 31.1389 154.345 33.4166 159.706C35.6943 165.067 38.9483 169.941 43.0157 174.003C51.1504 182.288 62.5391 187 74.2532 187Z" fill="#A4D9F7"/>
<path d="M235.81 185.213C242.318 185.213 248.826 183.263 254.357 179.689C259.889 176.115 264.119 170.916 266.56 164.742C269 158.731 269.813 152.07 268.512 145.571C267.21 139.073 264.119 133.224 259.401 128.513C254.683 123.801 248.826 120.714 242.318 119.415C235.81 118.115 229.14 118.765 223.12 121.364C217.1 123.801 211.894 128.188 208.152 133.549C204.572 139.073 202.62 145.409 202.62 152.07C202.62 160.843 206.199 169.291 212.382 175.465C218.564 181.639 227.025 185.213 235.81 185.213Z" fill="#A4D9F7"/>
<path d="M176.914 182.776C181.307 182.776 185.537 181.476 189.116 179.039C192.696 176.602 195.462 173.19 197.251 169.291C198.878 165.23 199.366 160.843 198.553 156.619C197.739 152.395 195.624 148.496 192.533 145.409C189.442 142.322 185.537 140.21 181.307 139.398C177.077 138.585 172.684 138.91 168.617 140.697C164.549 142.322 161.133 145.084 158.855 148.821C156.415 152.395 155.113 156.619 155.113 161.006C155.113 166.854 157.391 172.378 161.458 176.44C165.526 180.339 171.057 182.776 176.914 182.776Z" fill="#FAA430"/>
<path d="M189.93 132.412C196.926 132.412 203.759 130.3 209.616 126.401C215.473 122.501 220.029 116.978 222.632 110.479C225.235 103.98 226.048 96.8319 224.584 90.0084C223.283 83.1849 219.866 76.8487 214.822 71.8123C209.941 66.9384 203.596 63.5266 196.6 62.0644C189.767 60.7647 182.609 61.4145 176.101 64.014C169.593 66.6134 164.061 71.1625 160.157 77.0112C156.252 82.8599 154.137 89.6835 154.137 96.6695C154.137 106.092 157.879 115.028 164.549 121.689C171.545 128.675 180.494 132.412 189.93 132.412Z" fill="#FFCB40"/>
<path d="M134.613 182.776C137.867 182.776 141.121 181.801 143.887 180.014C146.653 178.227 148.768 175.627 150.069 172.541C151.371 169.454 151.696 166.204 151.046 162.955C150.395 159.706 148.768 156.782 146.49 154.345C144.212 151.908 141.121 150.445 137.867 149.796C134.613 149.146 131.197 149.471 128.268 150.77C125.177 152.07 122.574 154.182 120.784 156.944C118.995 159.706 118.018 162.955 118.018 166.204C118.018 170.591 119.808 174.815 122.899 177.902C125.828 180.989 130.058 182.776 134.613 182.776Z" fill="#C2C2C2"/>
<path d="M143.074 148.008C147.792 148.008 152.347 146.546 156.252 143.947C160.157 141.347 163.248 137.611 165.037 133.387C166.827 129 167.315 124.289 166.339 119.739C165.363 115.19 163.085 110.966 159.831 107.555C156.577 104.305 152.347 102.031 147.629 101.056C143.074 100.081 138.193 100.569 133.963 102.356C129.57 104.143 125.99 107.23 123.387 111.129C120.784 115.028 119.32 119.577 119.32 124.289C119.32 130.625 121.76 136.636 126.316 141.022C130.709 145.571 136.728 148.008 143.074 148.008Z" fill="#69AFE5"/>
<path d="M88.2451 35.9076H74.4159V50.6919H66.4439V35.9076H51.6385V27.7843H65.305V13H73.2771V27.7843H88.0824L88.2451 35.9076Z" fill="#FAA430"/>
<path d="M98.4949 136.148C97.5187 136.148 96.5425 136.311 95.5663 136.636L90.5228 128.513C91.499 127.538 91.987 126.238 91.987 124.776C92.1497 123.476 91.6617 122.014 91.0109 120.877C90.5228 120.064 89.872 119.415 89.2212 118.927C88.4077 118.44 87.5943 118.115 86.7808 117.79C85.1538 117.465 83.6896 117.79 82.2253 118.602C80.9237 119.415 79.9476 120.714 79.4595 122.176H65.6303C65.3049 121.202 64.6542 120.389 63.678 119.739C62.8645 119.09 61.7256 118.927 60.7495 118.927C59.6106 118.927 58.6344 119.252 57.6582 119.902C56.8448 120.552 56.0313 121.364 55.7059 122.501C55.2178 123.801 55.3805 125.101 55.8686 126.238C56.3567 127.375 57.3329 128.35 58.4717 128.838L57.8209 144.922C55.5432 145.246 53.4282 146.059 51.6385 147.683C49.8488 149.146 48.71 151.095 48.0592 153.207C47.4084 155.319 47.4084 157.756 48.0592 159.868C48.71 161.98 50.0115 163.93 51.8012 165.392C53.5908 166.854 55.7059 167.829 57.9836 167.992C60.2614 168.317 62.5391 167.829 64.6542 166.854C66.7692 165.88 68.3962 164.255 69.535 162.305C70.6739 160.356 71.3247 158.081 71.162 155.807L90.6855 149.308C91.8243 151.258 93.7767 152.72 96.0544 153.37C98.3322 154.02 100.773 153.695 102.725 152.557C103.864 151.908 105.003 150.933 105.816 149.796C106.63 148.658 107.118 147.359 107.443 146.059C107.606 144.759 107.606 143.459 107.28 142.16C106.955 140.86 106.304 139.723 105.491 138.748C104.677 137.773 103.538 136.961 102.4 136.473C101.098 136.473 99.7964 136.148 98.4949 136.148ZM92.4751 138.585L81.8999 133.062L84.0149 130.137C84.6657 130.462 85.3165 130.462 86.13 130.462C86.6181 130.462 87.1062 130.3 87.757 130.137L92.8005 138.261C92.6378 138.423 92.4751 138.423 92.4751 138.585ZM66.7692 147.034C65.4676 146.059 64.0034 145.409 62.3764 145.084L63.0272 128.838C63.5153 128.675 63.8407 128.513 64.1661 128.35L76.0429 134.524L66.7692 147.034ZM68.0708 125.913H79.7849C80.1103 126.563 80.2729 127.213 80.761 127.863L78.3206 131.275L68.0708 125.913ZM69.0469 149.796L78.9714 136.148L89.872 141.672C89.3839 142.81 89.2212 144.109 89.3839 145.409V145.571L70.6739 152.07L69.0469 149.796Z" fill="white"/>
<path d="M249.477 147.683V165.88H242.643V147.683H249.477ZM233.532 165.88H240.366V154.507H233.532V165.88ZM224.421 165.88H231.255V159.056H224.421V165.88ZM229.628 139.56L234.509 139.885L220.842 149.796L223.12 152.882L236.949 142.972L235.973 148.008L239.715 148.821L242.155 136.798L230.116 135.661L229.628 139.56Z" fill="white"/>
<path d="M174.148 173.515C174.148 173.84 174.474 174.165 174.799 174.328L176.589 174.653C176.752 174.653 177.077 174.49 177.24 174.49C177.402 174.328 177.565 174.165 177.565 174.003L178.216 171.728C178.541 170.916 178.704 170.754 179.355 170.591C179.68 170.429 180.168 170.266 180.494 170.266C180.819 170.266 180.982 170.266 181.307 170.429C181.632 170.591 181.795 170.591 181.958 170.916L183.585 172.703C183.747 172.866 183.91 172.866 184.073 172.866C184.236 172.866 184.398 172.866 184.561 172.866L186.188 171.728C186.351 171.566 186.351 171.403 186.351 171.078C186.351 170.754 186.351 170.591 186.188 170.429L185.049 168.317C184.886 168.154 184.886 167.829 184.886 167.504C184.886 167.179 185.049 167.017 185.212 166.854L185.049 166.692C185.374 166.367 185.7 166.204 185.7 165.717C185.862 165.23 186.188 164.742 187.327 164.742L189.604 164.905C190.255 164.742 190.581 164.417 190.581 164.092L190.906 162.143C191.069 161.818 190.581 161.331 190.255 161.331L187.978 160.681C187.164 160.356 186.839 159.868 186.839 159.543C186.676 159.218 186.513 158.731 186.513 158.406C186.513 157.756 186.676 157.269 186.839 156.782L188.466 155.319C188.628 155.157 188.791 154.994 188.791 154.669C188.791 154.507 188.791 154.182 188.791 154.02L187.489 152.557C187.489 152.395 187.327 152.395 187.327 152.395C187.327 152.395 187.164 152.232 187.001 152.232C186.839 152.232 186.839 152.232 186.676 152.232C186.513 152.232 186.513 152.233 186.351 152.395L184.561 153.695C184.236 153.857 184.073 154.02 183.747 154.02C183.422 154.02 183.097 153.857 182.934 153.695C182.609 153.37 182.283 153.207 181.958 153.207L181.795 153.045C181.47 152.882 181.307 152.72 181.144 152.395C180.982 152.07 180.982 151.908 180.982 151.583L181.307 149.146C181.307 148.821 180.982 148.496 180.656 148.333L178.704 148.008C178.379 147.846 177.89 148.333 177.89 148.658L176.914 151.095C176.589 151.908 176.426 152.07 175.938 152.07C175.613 152.232 175.125 152.395 174.799 152.395C174.474 152.557 174.148 152.557 173.823 152.395C173.498 152.395 173.172 152.233 173.01 151.908L171.383 149.958C171.22 149.796 171.057 149.796 170.732 149.796C170.406 149.796 170.244 149.796 170.081 149.958L168.454 151.095C168.291 151.258 168.291 151.42 168.291 151.745C168.291 151.908 168.291 152.233 168.454 152.395L169.593 154.507C169.918 155.157 169.918 155.644 169.43 155.969C169.268 156.294 169.105 156.782 168.942 157.106C168.617 157.431 168.454 157.919 167.315 157.756H165.037C164.712 157.756 164.387 158.081 164.224 158.406L163.899 160.356C163.736 160.681 164.224 161.168 164.387 161.331L166.664 161.818C167.478 162.143 167.641 162.305 167.641 162.793C167.803 163.28 167.966 163.768 167.966 164.255C168.129 164.58 168.129 164.742 168.129 165.067C168.129 165.392 167.966 165.555 167.803 165.88L165.851 167.504C165.688 167.667 165.688 167.829 165.688 168.154C165.688 168.317 165.688 168.641 165.851 168.804L166.827 170.266C166.827 170.429 166.99 170.429 166.99 170.429C166.99 170.429 167.153 170.591 167.315 170.591C167.478 170.591 167.478 170.591 167.641 170.591C167.803 170.591 167.803 170.591 167.966 170.429L169.918 168.966C170.244 168.804 170.406 168.641 170.732 168.641C171.057 168.641 171.383 168.804 171.545 168.966L172.684 169.779C173.172 169.941 173.498 170.266 173.498 171.241L174.148 173.515ZM182.446 161.331C182.283 162.63 181.47 163.768 180.494 164.58C179.517 165.392 178.216 165.717 176.914 165.555C175.938 165.392 175.125 164.905 174.474 164.255C173.823 163.605 173.335 162.793 173.01 161.818C172.847 160.843 172.847 159.868 173.172 159.056C173.498 158.081 174.148 157.431 174.799 156.782C175.613 156.132 176.426 155.807 177.402 155.807C178.378 155.807 179.355 155.969 180.168 156.457C180.982 156.944 181.632 157.594 182.12 158.569C182.446 159.381 182.609 160.356 182.446 161.331Z" fill="white"/>
<path d="M165.688 127.538C196.763 127.538 221.818 102.356 221.818 71.4874C221.818 40.4566 196.6 15.437 165.688 15.437C134.776 15.437 109.558 40.619 109.558 71.4874C109.558 102.518 134.776 127.538 165.688 127.538Z" fill="#737373"/>
<path d="M192.696 102.031C192.208 102.843 191.557 103.493 190.906 103.818C190.093 104.305 189.279 104.468 188.466 104.468H143.399C142.585 104.468 141.772 104.305 140.958 103.818C140.145 103.331 139.657 102.843 139.169 102.031C138.843 101.381 138.681 100.731 138.681 100.081C138.681 99.4314 138.843 98.7815 139.169 98.1316C141.284 94.7199 159.18 65.9636 159.343 65.6387L159.668 65.1513V37.2073H171.871V64.9888L172.196 65.4762C172.359 65.8011 187.815 90.4958 192.533 97.9692C193.021 98.619 193.184 99.2689 193.346 99.9188C193.184 100.731 193.021 101.381 192.696 102.031Z" fill="white"/>
<path d="M173.66 51.8291H158.367V64.9888C158.367 64.9888 140.308 94.2325 138.518 97.4818C136.728 100.731 138.193 106.255 145.026 106.255H188.14C192.858 106.255 197.414 102.518 193.184 95.3697C188.954 88.2213 173.823 64.1764 173.823 64.1764L173.66 51.8291Z" fill="#FFCB40"/>
<path d="M170.244 81.8852C172.521 81.8852 174.311 80.098 174.311 77.8235C174.311 75.549 172.521 73.7619 170.244 73.7619C167.966 73.7619 166.176 75.549 166.176 77.8235C166.339 80.098 168.129 81.8852 170.244 81.8852Z" fill="white"/>
<path d="M160.482 87.409C162.272 87.409 163.899 85.9468 163.899 83.9972C163.899 82.0476 162.434 80.5854 160.482 80.5854C158.692 80.5854 157.065 82.0476 157.065 83.9972C157.065 85.9468 158.692 87.409 160.482 87.409Z" fill="white"/>
<path d="M168.454 97.8067C169.593 97.8067 170.569 96.8319 170.569 95.6947C170.569 94.5574 169.593 93.5826 168.454 93.5826C167.315 93.5826 166.339 94.5574 166.339 95.6947C166.339 96.8319 167.315 97.8067 168.454 97.8067Z" fill="white"/>
<path d="M164.875 62.3893C166.014 62.3893 166.99 61.4145 166.99 60.2773C166.99 59.14 166.014 58.1652 164.875 58.1652C163.736 58.1652 162.76 59.14 162.76 60.2773C162.597 61.4145 163.573 62.3893 164.875 62.3893Z" fill="white"/>
<path d="M195.624 96.0196C191.231 89.196 177.728 67.4257 175.613 64.014V37.2072H179.192C179.355 37.2072 179.68 37.0448 179.68 37.0448C179.843 36.8823 179.843 36.7198 179.843 36.5574V34.4453C179.843 34.2829 179.68 33.9579 179.68 33.9579C179.517 33.7955 179.355 33.7955 179.192 33.7955H152.347C152.184 33.7955 151.859 33.9579 151.859 33.9579C151.696 34.1204 151.696 34.2829 151.696 34.4453V36.5574C151.696 36.7198 151.859 37.0448 151.859 37.0448C152.022 37.2072 152.184 37.2072 152.347 37.2072H155.926V64.3389C153.649 68.0756 138.03 93.2577 136.078 96.3445C135.427 97.4817 135.101 98.7815 134.939 100.081C134.939 101.381 135.264 102.681 135.915 103.818C136.566 105.118 137.705 106.255 139.006 107.067C140.308 107.88 141.772 108.204 143.236 108.204H188.303C189.767 108.204 191.394 107.717 192.696 106.905C193.997 106.092 195.136 104.955 195.787 103.655C196.438 102.356 196.763 101.056 196.6 99.5938C196.763 98.4565 196.438 97.1568 195.624 96.0196ZM192.696 102.031C192.208 102.843 191.557 103.493 190.906 103.818C190.093 104.305 189.279 104.468 188.466 104.468H143.399C142.585 104.468 141.772 104.305 140.958 103.818C140.145 103.33 139.657 102.843 139.169 102.031C138.843 101.381 138.681 100.731 138.681 100.081C138.681 99.4313 138.843 98.7815 139.169 98.1316C141.284 94.7198 159.18 65.9635 159.343 65.6386L159.668 65.1512V37.2072H171.871V64.9888L172.196 65.4761C172.359 65.8011 187.815 90.4958 192.533 97.9691C193.021 98.619 193.184 99.2689 193.346 99.9187C193.184 100.731 193.021 101.381 192.696 102.031Z" fill="#666666"/>
<path d="M192.696 102.031C192.208 102.843 191.557 103.493 190.906 103.818C190.093 104.305 189.279 104.468 188.466 104.468H143.399C142.585 104.468 141.772 104.305 140.958 103.818C140.145 103.331 139.657 102.843 139.169 102.031C138.843 101.381 138.681 100.731 138.681 100.081C138.681 99.4314 138.843 98.7815 139.169 98.1316C141.284 94.7199 159.18 65.9636 159.343 65.6387L159.668 65.1513V37.2073H171.871V64.9888L172.196 65.4762C172.359 65.8011 187.815 90.4958 192.533 97.9692C193.021 98.619 193.184 99.2689 193.346 99.9188C193.184 100.731 193.021 101.381 192.696 102.031Z" fill="white"/>
<path d="M174.799 67.1008H156.415L138.03 97.3193C135.59 101.218 138.518 106.255 143.074 106.255H187.652C192.696 106.58 195.95 101.056 193.347 96.8319L174.799 67.1008Z" fill="#FFCB40"/>
<path d="M195.624 96.0196C191.231 89.196 177.728 67.4257 175.613 64.014V37.2072H179.192C179.355 37.2072 179.68 37.0448 179.68 37.0448C179.843 36.8823 179.843 36.7198 179.843 36.5574V34.4453C179.843 34.2829 179.68 33.9579 179.68 33.9579C179.517 33.7955 179.355 33.7955 179.192 33.7955H152.347C152.184 33.7955 151.859 33.9579 151.859 33.9579C151.696 34.1204 151.696 34.2829 151.696 34.4453V36.5574C151.696 36.7198 151.859 37.0448 151.859 37.0448C152.022 37.2072 152.184 37.2072 152.347 37.2072H155.926V64.3389C153.649 68.0756 138.03 93.2577 136.078 96.3445C135.427 97.4817 135.101 98.7815 134.939 100.081C134.939 101.381 135.264 102.681 135.915 103.818C136.566 105.118 137.705 106.255 139.006 107.067C140.308 107.88 141.772 108.204 143.236 108.204H188.303C189.767 108.204 191.394 107.717 192.696 106.905C193.997 106.092 195.136 104.955 195.787 103.655C196.438 102.356 196.763 101.056 196.6 99.5938C196.763 98.4565 196.438 97.1568 195.624 96.0196Z" fill="#FAA430"/>
<path d="M160.482 87.409C162.272 87.409 163.899 85.9468 163.899 83.9972C163.899 82.0476 162.434 80.5854 160.482 80.5854C158.692 80.5854 157.065 82.0476 157.065 83.9972C157.065 85.9468 158.692 87.409 160.482 87.409Z" fill="white"/>
<path d="M170.244 81.8852C172.521 81.8852 174.311 80.098 174.311 77.8235C174.311 75.549 172.521 73.7619 170.244 73.7619C167.966 73.7619 166.176 75.549 166.176 77.8235C166.339 80.098 168.129 81.8852 170.244 81.8852Z" fill="white"/>
<path d="M168.454 97.8067C169.593 97.8067 170.569 96.8319 170.569 95.6947C170.569 94.5574 169.593 93.5826 168.454 93.5826C167.315 93.5826 166.339 94.5574 166.339 95.6947C166.339 96.8319 167.315 97.8067 168.454 97.8067Z" fill="white"/>
<path d="M152.347 37.2072H155.926V64.3389C155.601 64.8263 155.113 65.6386 154.462 66.7759H177.24C176.426 65.4761 175.938 64.5014 175.45 64.014V37.2072H179.029C179.192 37.2072 179.517 37.0448 179.517 37.0448C179.68 36.8823 179.68 36.7198 179.68 36.5574V34.4453C179.68 34.2829 179.517 33.9579 179.517 33.9579C179.355 33.7955 179.192 33.7955 179.029 33.7955H152.347C152.184 33.7955 151.859 33.9579 151.859 33.9579C151.696 34.1204 151.696 34.2829 151.696 34.4453V36.5574C151.696 36.7198 151.859 37.0448 151.859 37.0448C152.022 37.0448 152.184 37.2072 152.347 37.2072Z" fill="white"/>
<path d="M179.517 33.7955C179.355 33.6331 179.192 33.6331 179.029 33.6331H172.847V39.6443H170.569V64.5014L171.871 66.9384H177.24C176.426 65.6387 175.775 64.6639 175.45 64.1765V37.2073H179.029C179.192 37.2073 179.517 37.0448 179.517 37.0448C179.68 36.8824 179.68 36.7199 179.68 36.5574V34.4454C179.843 34.1205 179.68 33.958 179.517 33.7955Z" fill="#C2C2C2"/>
<path d="M175.45 37.2073H155.601V40.619H175.45V37.2073Z" fill="#666666"/>
<path d="M195.624 96.0196C192.045 90.1708 181.632 73.7619 177.24 66.7759H171.871L191.557 97.9692C193.184 100.569 191.394 104.143 188.14 104.143H136.078C136.728 105.443 137.867 106.417 139.169 107.23C140.47 108.042 141.935 108.367 143.399 108.367H188.466C189.93 108.367 191.557 107.88 192.858 107.067C194.16 106.255 195.299 105.118 195.95 103.818C196.6 102.518 196.926 101.218 196.763 99.7563C196.763 98.4566 196.438 97.1568 195.624 96.0196Z" fill="#F08400"/>
</svg>
