<svg width="300" height="200" viewBox="0 0 300 200" fill="none" xmlns="http://www.w3.org/2000/svg">
<path d="M271.025 77.708V174.598C271.025 175.57 270.214 176.38 269.24 176.38H125.081C124.107 176.38 123.295 175.57 123.295 174.598V77.708C123.295 76.7358 124.107 75.9257 125.081 75.9257H269.24C270.376 75.9257 271.025 76.7358 271.025 77.708Z" fill="#505050"/>
<path d="M264.532 82.4066H131.412V166.658H264.532V82.4066Z" fill="#DDDDDD"/>
<path d="M103.814 178H289.695C292.942 178 295.377 176.056 295.377 173.787V171.519H97.3203V173.625C97.3203 176.056 99.9178 178 103.002 178" fill="#737373"/>
<path d="M264.532 137.008V82.4066H209.823L264.532 137.008Z" fill="white"/>
<path d="M179.79 112.867L170.536 126.963L179.79 140.735H172.484L167.614 132.148C167.289 131.662 166.965 131.013 166.478 130.203H166.315C166.315 130.365 165.828 131.013 165.179 132.148L160.146 140.735H152.841L162.419 127.125L153.49 112.867H160.796L165.666 121.94C165.991 122.588 166.315 123.236 166.802 124.046H166.965L173.296 112.867H179.79Z" fill="#409AE1"/>
<path d="M184.66 139.763V133.606C187.257 135.388 189.855 136.198 192.452 136.198C195.05 136.198 197.323 135.55 198.946 134.092C200.569 132.796 201.381 131.013 201.381 128.745C201.381 126.477 200.569 124.857 198.946 123.56C197.323 122.264 194.887 121.778 191.803 121.778C190.667 121.778 188.556 121.94 185.309 122.102L186.77 101.525H205.927V106.872H191.965L191.316 116.593C192.615 116.593 193.751 116.431 194.725 116.431C198.946 116.431 202.03 117.566 204.303 119.672C206.576 121.778 207.712 124.695 207.712 128.421C207.712 132.31 206.414 135.388 203.816 137.656C201.219 139.925 197.647 141.221 193.102 141.221C189.368 141.383 186.446 140.897 184.66 139.763Z" fill="#409AE1"/>
<path d="M226.544 141.383C222.485 141.383 219.239 139.763 216.966 136.36C214.693 132.958 213.557 128.259 213.557 121.94C213.557 114.973 214.693 109.788 217.128 106.224C219.563 102.659 222.972 100.877 227.518 100.877C236.122 100.877 240.505 107.52 240.505 120.968C240.505 127.611 239.369 132.634 236.934 136.036C234.336 139.601 230.927 141.383 226.544 141.383ZM227.193 106.062C222.485 106.062 220.05 111.247 220.05 121.778C220.05 131.499 222.323 136.36 227.031 136.36C231.577 136.36 233.849 131.337 233.849 121.454C233.849 111.085 231.577 106.062 227.193 106.062Z" fill="#409AE1"/>
<path d="M134.172 65.0702V69.2828H277.682V160.502H281.578C283.039 160.502 284.175 159.367 284.175 157.909V69.4448V65.8803C284.175 64.2601 282.876 62.9639 281.253 62.9639H136.282C135.146 62.9639 134.172 63.936 134.172 65.0702Z" fill="#C2C2C2"/>
<path d="M147.159 52.1084V56.321H290.669V147.54H294.565C296.026 147.54 297.162 146.406 297.162 144.947V56.483V52.9185C297.162 51.2983 295.864 50.0021 294.24 50.0021H149.27C148.133 50.0021 147.159 50.9742 147.159 52.1084Z" fill="#C2C2C2"/>
<path d="M69.0729 130.365C69.0729 130.365 66.9625 117.241 65.1767 108.816C63.391 100.391 57.222 99.581 54.1375 99.581H53.8128C50.8907 99.581 44.5594 100.391 42.7736 108.816C40.9879 117.241 38.8774 130.365 38.8774 130.365L50.079 130.527V130.851L69.0729 130.365Z" fill="#282828"/>
<path d="M57.8714 121.778C57.8714 123.074 58.1961 128.421 58.1961 128.421C59.8195 128.745 62.2546 129.231 62.2546 129.231C70.047 131.661 62.7416 138.628 52.8388 138.304C42.6113 137.98 42.936 129.393 43.423 129.231C43.0983 129.231 48.6179 128.259 48.6179 128.259C48.9426 126.639 49.105 121.454 49.105 121.454L57.8714 121.778Z" fill="#BB9167"/>
<path d="M43.7477 111.085C43.0984 111.085 42.6113 111.571 42.6113 112.219V114.163C42.6113 115.297 43.5854 116.269 44.7218 116.269H45.0464V112.219C44.8841 111.571 44.3971 111.085 43.7477 111.085Z" fill="#AB845F"/>
<path d="M54.3 102.173H53.1637C48.4558 102.173 44.5596 106.062 44.5596 110.761V116.269C44.5596 119.996 46.9947 123.236 50.4039 124.37L57.7092 124.046C60.7937 122.75 62.9041 119.672 62.9041 116.269V110.761C62.9041 106.062 59.0079 102.173 54.3 102.173Z" fill="#BB9167"/>
<path d="M50.4038 124.208V124.857L50.7285 126.963C51.3779 128.583 55.4364 131.661 61.1183 133.768L63.2288 129.393C63.2288 129.393 59.8196 128.745 58.3585 128.583C58.1962 126.315 58.1962 124.046 58.1962 124.046C61.1183 122.75 63.0664 119.834 63.0664 116.431C64.2028 116.431 65.1769 115.459 65.1769 114.325V112.381C65.1769 111.733 64.6898 111.247 64.0405 111.247C63.7158 111.247 63.3911 111.409 63.0664 111.733V110.923C63.0664 110.599 63.0664 110.274 63.0664 110.112C62.9041 109.95 62.9041 109.788 62.9041 109.788L55.7611 104.442L54.9494 106.872C54.9494 106.872 55.9234 110.112 58.6832 111.895C58.0338 111.895 57.3845 112.057 56.8975 112.219L56.5728 112.381C55.9234 112.543 55.5987 113.191 55.5987 113.677L55.7611 117.079C55.7611 117.728 55.4364 117.89 54.787 117.89C54.4623 117.89 54.1377 118.214 54.1377 118.538L54.6247 120.644L54.1377 121.292C53.1636 122.264 52.8389 123.722 53.326 125.181C52.1896 124.694 51.2155 124.532 50.4038 124.208Z" fill="#AB845F"/>
<path d="M50.5662 118.862C51.0532 120.158 52.3519 120.968 53.813 120.968C55.2741 120.968 56.4104 120.158 57.0598 118.862H50.5662Z" fill="white"/>
<path d="M54.4624 100.553C49.1051 100.229 44.7219 104.442 44.5596 109.626C44.5596 109.95 44.5596 110.274 44.5596 110.599H49.1051C49.7545 108.978 52.1896 103.632 52.1896 103.632V110.599H63.2288V110.112C63.5535 105.09 59.6573 100.715 54.4624 100.553Z" fill="#282828"/>
<path d="M72.9692 134.416C71.9952 131.499 71.1835 130.527 68.4237 130.041C65.8262 129.555 62.9041 129.231 62.9041 129.231C62.9041 129.231 61.2807 137.494 54.3 138.142C53.9753 138.142 53.813 138.142 53.4883 138.142C53.1636 138.142 53.0012 138.142 52.6766 138.142C45.6959 137.494 44.0725 129.231 44.0725 129.231C44.0725 129.231 41.3127 129.555 38.5529 130.041C35.9554 130.527 34.9814 131.499 34.0073 134.416C33.0333 137.332 30.7605 149.322 30.7605 149.322H76.216C76.216 149.322 73.9433 137.332 72.9692 134.416Z" fill="#FAA430"/>
<path d="M66.1508 41.5769C66.1508 41.5769 64.6898 32.8277 63.5534 27.3189C62.417 21.8101 58.1961 21.162 56.248 21.162H56.0857C54.1376 21.162 49.9167 21.6481 48.7803 27.3189C47.6439 32.8277 46.1829 41.5769 46.1829 41.5769L53.6506 41.7389V42.063L66.1508 41.5769Z" fill="#282828"/>
<path d="M58.6829 35.9061C58.6829 36.8782 58.8452 40.4427 58.8452 40.4427C59.9816 40.6048 61.605 40.9288 61.605 40.9288C66.8 42.549 61.9297 47.0857 55.4361 46.9236C48.6177 46.7616 48.7801 40.9288 49.2671 40.9288C49.1048 40.9288 52.6763 40.2807 52.6763 40.2807C52.8386 39.1466 53.0009 35.7441 53.0009 35.7441L58.6829 35.9061Z" fill="#BB9167"/>
<path d="M49.2673 28.7771C48.7802 28.7771 48.4556 29.1011 48.4556 29.5872V30.8834C48.4556 31.6935 49.1049 32.1796 49.7543 32.1796H50.079V29.5872C50.079 29.1011 49.592 28.7771 49.2673 28.7771Z" fill="#AB845F"/>
<path d="M56.2478 22.7823H55.4361C52.3516 22.7823 49.7542 25.3747 49.7542 28.4531V32.0176C49.7542 34.4479 51.3776 36.5542 53.6503 37.3643L58.5206 37.2023C60.4687 36.3922 61.9297 34.2859 61.9297 32.0176V28.4531C61.9297 25.3747 59.3323 22.7823 56.2478 22.7823Z" fill="#BB9167"/>
<path d="M53.6504 37.5263V37.8504L53.8127 39.1466C54.2998 40.2807 56.8972 42.225 60.6311 43.6832L62.0921 40.7668C62.0921 40.7668 59.8194 40.2807 58.8453 40.1187C58.8453 38.6605 58.683 37.0403 58.683 37.0403C60.6311 36.2302 61.9298 34.2859 61.9298 32.0176C62.7415 32.0176 63.2285 31.3695 63.2285 30.7214V29.5872C63.2285 29.1012 62.9038 28.7771 62.4168 28.7771C62.0921 28.7771 61.9298 28.9391 61.7674 29.1012V28.4531C61.7674 28.291 61.7674 28.129 61.7674 27.805C61.6051 27.643 61.6051 27.643 61.6051 27.643L57.0596 24.2405L56.5725 25.8607C56.5725 25.8607 57.2219 27.967 59.17 29.1012C58.683 29.1012 58.1959 29.1012 57.8713 29.2632H57.7089C57.3842 29.4252 57.0596 29.7492 57.0596 30.2353L57.2219 32.5036C57.2219 32.9897 57.0596 32.9897 56.5725 32.9897C56.2478 32.9897 56.0855 33.1517 56.2478 33.4758L56.5725 34.934L56.2478 35.258C55.5985 35.9061 55.4361 36.8782 55.7608 37.8504C54.9491 37.8504 54.2998 37.6884 53.6504 37.5263Z" fill="#AB845F"/>
<path d="M53.8127 33.9619C54.1374 34.772 54.9491 35.258 55.9232 35.258C56.8972 35.258 57.7089 34.772 58.0336 33.9619H53.8127Z" fill="white"/>
<path d="M56.4104 21.8101C52.8389 21.6481 49.9167 24.4025 49.9167 27.805C49.9167 27.967 49.9167 28.2911 49.9167 28.4531H52.8389C53.3259 27.3189 54.9493 23.9164 54.9493 23.9164V28.4531H62.2547V28.129C62.417 24.7266 59.8196 21.9722 56.4104 21.8101Z" fill="#282828"/>
<path d="M68.5859 44.3313C67.9365 42.387 67.2871 41.7389 65.6637 41.4149C63.878 41.0909 62.0922 40.9288 62.0922 40.9288C62.0922 40.9288 60.9558 46.4376 56.4103 46.9237C56.2479 46.9237 56.0856 46.9237 55.9232 46.9237C55.7609 46.9237 55.5986 46.9237 55.4362 46.9237C50.8907 46.4376 49.7543 40.9288 49.7543 40.9288C49.7543 40.9288 47.8062 41.2529 46.1828 41.4149C44.397 41.7389 43.91 42.387 43.2606 44.3313C42.6113 46.2756 41.6372 54.2147 41.6372 54.2147H70.6963C70.3716 54.2147 69.2352 46.2756 68.5859 44.3313Z" fill="#FAA430"/>
<path d="M33.3578 54.0527C32.0591 50.9742 31.5721 44.8174 27.5135 42.387C21.6692 38.8225 14.0392 39.6326 10.143 41.0908C5.59746 42.549 3.48702 50.0021 3 54.0527H33.3578Z" fill="#69AFE5"/>
<path d="M12.2533 30.2353C12.578 30.2353 12.7403 30.2353 12.9027 30.3973L12.7403 28.7771C12.4157 25.0506 15.1755 21.6481 19.0717 21.324C22.9678 21 26.2147 23.7544 26.7017 27.6429L27.3511 34.6099C27.6757 37.5263 25.5653 39.9566 22.8055 40.4427C22.4808 40.7668 22.1561 41.2528 21.9938 41.7389L21.1821 43.8452C21.0197 44.4933 20.0457 44.9793 18.747 44.9793C17.4482 44.8173 16.3119 44.3313 15.6625 43.3591C15.0131 42.387 14.8508 41.0908 15.3378 39.9566L15.6625 38.9845C14.5261 38.0124 13.7144 36.5542 13.3897 34.9339C12.4157 34.9339 11.604 34.2858 11.2793 33.3137L10.9546 31.8555C10.9546 31.0454 11.4416 30.3973 12.2533 30.2353Z" fill="#CE9C5F"/>
<path d="M15.6625 38.9845C16.9613 40.1187 18.9094 40.7667 20.8575 40.6047C20.8575 40.6047 19.234 44.1692 15.5002 42.873C15.0132 41.9009 15.0132 40.9288 15.3379 39.9566L15.6625 38.9845Z" fill="#D8B07F"/>
<path d="M23.7794 25.3746C24.1041 24.5645 25.2405 23.9164 25.2405 23.9164C25.2405 23.9164 26.8639 25.2126 26.7016 28.7771L27.1886 34.4479C27.5133 37.3643 25.2405 39.9566 22.3183 40.2807C23.9418 37.8503 22.156 34.7719 22.156 34.7719L23.6171 34.6099C24.1041 34.6099 24.2664 34.1238 24.2664 33.7998L23.6171 31.0454C23.4547 30.2353 23.7794 29.4252 24.4288 28.9391C24.4288 28.9391 24.5911 26.3467 23.7794 25.3746Z" fill="#D8B07F"/>
<path d="M20.0457 36.8782L24.7536 36.3922L23.9418 37.0402C23.1301 37.5263 22.1561 37.6883 21.182 37.3643L20.0457 36.8782Z" fill="white"/>
<path d="M14.8506 32.8277L13.7143 32.9897L13.5519 31.5315C13.5519 30.8834 12.9025 30.3973 12.2532 30.3973C12.2532 29.4252 12.2532 28.453 12.0908 27.967C11.6038 23.2683 15.3377 21.324 17.9351 21.162C19.0715 21 20.0456 21.162 20.5326 21.324C21.3443 21.4861 22.156 21.4861 22.9677 21.324L24.4288 21L24.1041 22.2962H24.2664C24.9158 22.6202 25.7275 22.4582 26.3769 22.2962L25.0781 24.4025C24.4288 25.3746 23.4547 26.0227 22.156 26.1847L21.182 26.3467C20.8573 26.3467 20.6949 26.3467 20.3702 26.1847L18.4222 25.5366C17.2858 25.0506 15.987 25.5366 15.1753 26.3467L14.3636 27.3189C14.0389 27.6429 13.8766 28.129 14.0389 28.6151L14.8506 32.8277Z" fill="#737373"/>
<path d="M108.522 54.0527C107.223 50.9742 106.736 44.8174 102.678 42.387C96.8333 38.8225 89.2033 39.6326 85.3071 41.0908C80.7615 42.549 78.6511 50.0021 78.1641 54.0527H108.522Z" fill="#69AFE5"/>
<path d="M87.4174 30.2353C87.7421 30.2353 87.9044 30.2353 88.0667 30.3973L87.9044 28.7771C87.5797 24.8886 90.3395 21.6481 94.2357 21.162C98.1319 20.838 101.379 23.5924 101.866 27.4809L102.515 34.4479C102.84 37.3643 100.729 39.7947 97.9696 40.2807C97.6449 40.6048 97.3202 41.0908 97.1579 41.5769L96.3462 43.6832C96.1838 44.3313 95.2098 44.8174 93.911 44.8174C92.6123 44.6553 91.4759 44.1693 90.8265 43.1971C90.1772 42.225 90.0148 40.9288 90.5019 39.7947L90.8265 38.8225C89.6902 37.8504 88.8785 36.3922 88.5538 34.7719C87.5797 34.7719 86.768 34.1239 86.4433 33.1517L86.1187 31.6935C86.1187 31.0454 86.6057 30.3973 87.4174 30.2353Z" fill="#CE9C5F"/>
<path d="M90.8266 38.9845C92.1253 40.1187 94.0734 40.7667 96.0215 40.6047C96.0215 40.6047 94.3981 44.1692 90.6643 42.873C90.1772 41.9009 90.1772 40.9288 90.5019 39.9566L90.8266 38.9845Z" fill="#D8B07F"/>
<path d="M98.9435 25.3746C99.2682 24.5645 100.405 24.0784 100.405 24.0784C100.405 24.0784 102.028 25.3746 101.866 28.9391L102.353 34.6099C102.677 37.5263 100.405 40.1187 97.4824 40.4427C99.1058 38.0124 97.3201 34.934 97.3201 34.934L98.7811 34.7719C99.2682 34.7719 99.4305 34.2859 99.4305 33.9618L98.7811 31.2074C98.6188 30.3973 98.9435 29.5872 99.5928 29.1011C99.5928 29.1011 99.7552 26.3467 98.9435 25.3746Z" fill="#D8B07F"/>
<path d="M95.2097 36.8782L99.9176 36.3922L99.1059 37.0402C98.2942 37.5263 97.3202 37.6883 96.3461 37.3643L95.2097 36.8782Z" fill="white"/>
<path d="M90.1773 32.8277L89.0409 32.9897L88.8786 31.5315C88.8786 30.8834 88.2292 30.3973 87.5798 30.3973C87.5798 29.4252 87.4175 28.453 87.4175 27.967C86.9305 23.2683 90.6643 21.324 93.2618 21.162C94.3982 21 95.3722 21.162 95.8592 21.324C96.671 21.4861 97.4827 21.4861 98.2944 21.324L99.5931 21L99.2684 22.2962H99.4308C100.08 22.4582 100.892 22.4582 101.541 22.1342L100.242 24.2405C99.5931 25.2126 98.619 25.8607 97.3203 26.0227L96.3463 26.1847C96.0216 26.1847 95.8592 26.1847 95.5346 26.0227L93.5865 25.3746C92.4501 24.8885 91.1514 25.3746 90.3396 26.1847L89.5279 26.9948C89.2033 27.3189 89.0409 27.967 89.2033 28.453L90.1773 32.8277Z" fill="#737373"/>
<path d="M102.84 102.173C101.216 98.7709 100.729 91.6419 96.1839 88.8875C89.5279 84.8369 80.9238 85.8091 76.3783 87.4293C71.1834 89.2115 68.9106 97.6367 68.2612 102.173H102.84Z" fill="#69AFE5"/>
<path d="M78.8135 75.1156C79.1382 75.1156 79.3005 75.1156 79.6252 75.2776L79.4629 73.4953C79.1382 69.1207 82.2227 65.2322 86.6059 64.9081C90.9891 64.5841 94.8853 67.6625 95.21 72.0371L95.8594 79.9763C96.184 83.2167 93.7489 86.1331 90.6644 86.6192C90.3398 86.9432 90.0151 87.4293 89.6904 88.0774L89.041 90.5077C88.7163 91.3178 87.9046 91.8039 86.2812 91.6419C84.8201 91.4799 83.5214 90.8318 82.8721 89.6976C82.0603 88.5635 81.898 87.1052 82.385 85.9711L82.7097 84.999C81.411 83.8648 80.4369 82.2446 80.1122 80.4623C78.9759 80.4623 78.0018 79.6522 77.8395 78.518L77.5148 76.8978C77.3524 75.9257 78.0018 75.1156 78.8135 75.1156Z" fill="#CE9C5F"/>
<path d="M82.7096 84.999C84.333 86.2951 86.2811 87.1053 88.5539 86.7812C88.5539 86.7812 86.6058 90.8318 82.5472 89.3736C82.0602 88.4014 81.8979 87.1053 82.3849 85.9711L82.7096 84.999Z" fill="#D8B07F"/>
<path d="M91.963 69.6068C92.2877 68.7967 93.7488 67.9866 93.7488 67.9866C93.7488 67.9866 95.5345 69.4448 95.5345 73.4953L96.1839 79.9763C96.5086 83.3787 94.0735 86.2951 90.6643 86.6192C92.45 83.8648 90.502 80.3003 90.502 80.3003L92.1254 80.1383C92.6124 80.1383 92.9371 79.6522 92.7747 79.1661L91.963 76.0877C91.8007 75.1156 92.1254 74.1434 92.9371 73.6574C92.9371 73.6574 92.9371 70.5789 91.963 69.6068Z" fill="#D8B07F"/>
<path d="M87.7422 82.5686L93.0995 82.0826L92.1254 82.7307C91.1514 83.3788 90.015 83.5408 89.0409 83.0547L87.7422 82.5686Z" fill="white"/>
<path d="M81.898 78.032L80.5993 78.194L80.437 76.4118C80.437 75.6017 79.7876 75.1156 78.9759 75.1156C78.8136 74.1434 78.8136 73.0093 78.8136 72.5232C78.3265 67.0144 82.5474 65.0702 85.4696 64.7461C86.7683 64.5841 87.7423 64.7461 88.3917 64.9082C89.3657 65.0702 90.1775 65.0702 91.1515 64.9082L92.6126 64.5841L92.2879 66.0423H92.4502C93.2619 66.2043 94.0736 66.2043 94.723 65.8803L93.2619 68.3106C92.6126 69.4448 91.3138 70.2549 90.0151 70.4169L89.0411 70.5789C88.7164 70.5789 88.3917 70.5789 88.2294 70.4169L86.1189 69.6068C84.8202 69.1207 83.1968 69.6068 82.3851 70.5789L81.5734 71.5511C81.2487 72.0372 81.0863 72.5232 81.0863 73.1713L81.898 78.032Z" fill="#737373"/>
<path d="M39.0398 86.4571C39.0398 86.4571 37.4164 76.5738 36.1176 70.2549C34.8189 63.936 30.111 63.2879 27.8382 63.2879H27.5136C25.2408 63.2879 20.5329 63.936 19.2342 70.2549C17.9354 76.5738 16.312 86.4571 16.312 86.4571L24.7538 86.6192V86.9432L39.0398 86.4571Z" fill="#282828"/>
<path d="M30.598 79.9763C30.598 80.9484 30.7604 84.999 30.7604 84.999C31.8968 85.161 33.8449 85.6471 33.8449 85.6471C39.6892 87.4293 34.1696 92.7761 26.8642 92.452C19.0718 92.29 19.3965 85.8091 19.7212 85.8091C19.3965 85.8091 23.6174 85.161 23.6174 85.161C23.7797 83.8648 23.9421 80.1383 23.9421 80.1383L30.598 79.9763Z" fill="#BB9167"/>
<path d="M19.8835 72.0371C19.3964 72.0371 18.9094 72.3612 18.9094 73.0092V74.4675C18.9094 75.2776 19.5588 76.0877 20.5328 76.0877H20.8575V73.0092C20.6952 72.5232 20.3705 72.0371 19.8835 72.0371Z" fill="#AB845F"/>
<path d="M27.8383 65.3942H27.0266C23.4551 65.3942 20.533 68.3106 20.533 71.8751V75.9256C20.533 78.68 22.3187 81.1104 24.9162 81.9205L30.4358 81.7585C32.7085 80.7863 34.332 78.518 34.332 75.9256V71.8751C34.332 68.3106 31.4098 65.3942 27.8383 65.3942Z" fill="#BB9167"/>
<path d="M24.916 81.9205V82.4066L25.0784 83.8648C25.5654 85.161 28.6499 87.4293 32.8707 89.0495L34.4941 85.8091C34.4941 85.8091 31.8967 85.323 30.7603 85.161C30.598 83.5408 30.598 81.7585 30.598 81.7585C32.8707 80.7864 34.1695 78.6801 34.3318 76.0877C35.1435 76.0877 35.9552 75.4396 35.9552 74.4675V73.0093C35.9552 72.5232 35.6305 72.0371 34.9812 72.0371C34.6565 72.0371 34.4941 72.1992 34.3318 72.3612V71.7131C34.3318 71.5511 34.3318 71.227 34.3318 71.065C34.1695 70.903 34.1695 70.903 34.1695 70.903L28.8122 66.8524L28.3252 68.6347C28.3252 68.6347 28.9745 71.065 31.2473 72.3612C30.7603 72.3612 30.2733 72.5232 29.7863 72.6852H29.6239C29.1369 72.8473 28.9745 73.1713 28.9745 73.6574L29.1369 76.2497C29.1369 76.7358 28.8122 76.7358 28.4875 76.7358C28.1628 76.7358 28.0005 77.0598 28.0005 77.2219L28.3252 78.8421L27.6758 79.3282C27.0265 80.1383 26.7018 81.2724 27.0265 82.2446C26.2147 82.2446 25.5654 82.0825 24.916 81.9205Z" fill="#AB845F"/>
<path d="M25.0784 77.8699C25.5654 78.8421 26.3771 79.4902 27.5135 79.4902C28.6499 79.4902 29.4616 78.8421 29.9486 77.8699H25.0784Z" fill="white"/>
<path d="M28.0007 64.098C24.1045 63.936 20.6953 67.0144 20.533 70.903C20.533 71.227 20.533 71.3891 20.533 71.7131H23.9421C24.4291 70.4169 26.2149 66.5284 26.2149 66.5284V71.7131H34.4943V71.3891C34.819 67.5005 31.8968 64.2601 28.0007 64.098Z" fill="#282828"/>
<path d="M41.7996 89.5356C41.1503 87.2673 40.3386 86.6192 38.3905 86.2951C36.4424 85.9711 34.3319 85.647 34.3319 85.647C34.3319 85.647 33.1955 91.8039 27.8383 92.29C27.6759 92.29 27.5136 92.29 27.1889 92.29C27.0266 92.29 26.7019 92.29 26.5396 92.29C21.3446 91.8039 20.0459 85.647 20.0459 85.647C20.0459 85.647 17.9355 85.9711 15.9874 86.2951C14.0393 86.6192 13.3899 87.4293 12.5782 89.5356C11.9288 91.8039 10.4678 100.715 10.4678 100.715H43.7477C43.9101 100.715 42.6113 91.8039 41.7996 89.5356Z" fill="#FAA430"/>
</svg>
