<svg xmlns="http://www.w3.org/2000/svg" xmlns:xlink="http://www.w3.org/1999/xlink" viewBox="0 0 2500 250"><defs><clipPath id="a"><rect x="-0.66" y="-269.903" width="2500.046" height="250.028" fill="none"/></clipPath><clipPath id="b"><rect x="-2519.876" y="0.125" width="2500" height="250" fill="none"/></clipPath><clipPath id="c"><rect width="2500" height="250" fill="none"/></clipPath><clipPath id="d"><rect x="2520.075" y="0.125" width="2500" height="250" fill="none"/></clipPath></defs><title>banner-triangulation-purple</title><g clip-path="url(#a)"><ellipse cx="774.445" cy="6.033" rx="2.641" ry="2.604" fill="#b4009e"/><ellipse cx="776.982" cy="15.027" rx="2.287" ry="2.255" fill="#b4009e"/><ellipse cx="779.303" cy="23.169" rx="1.995" ry="1.968" fill="#b4009e"/><ellipse cx="781.343" cy="30.477" rx="1.663" ry="1.64" fill="#b4009e"/><ellipse cx="783.25" cy="37.071" rx="1.419" ry="1.399" fill="#b4009e"/><ellipse cx="784.827" cy="42.744" rx="1.197" ry="1.181" fill="#b4009e"/><ellipse cx="786.469" cy="48.284" rx="0.96" ry="0.947" fill="#b4009e"/><ellipse cx="787.749" cy="52.731" rx="0.764" ry="0.754" fill="#b4009e"/><ellipse cx="857.967" cy="-1.952" rx="3.755" ry="3.703" fill="#b4009e"/><ellipse cx="861.002" cy="8.698" rx="3.379" ry="3.332" fill="#b4009e"/><ellipse cx="863.839" cy="18.524" rx="2.987" ry="2.945" fill="#b4009e"/><ellipse cx="866.618" cy="28.199" rx="2.641" ry="2.604" fill="#b4009e"/><ellipse cx="869.155" cy="37.193" rx="2.287" ry="2.255" fill="#b4009e"/><ellipse cx="871.476" cy="45.335" rx="1.995" ry="1.968" fill="#b4009e"/><ellipse cx="873.516" cy="52.642" rx="1.663" ry="1.64" fill="#b4009e"/><ellipse cx="875.423" cy="59.236" rx="1.419" ry="1.399" fill="#b4009e"/><ellipse cx="877" cy="64.91" rx="1.197" ry="1.181" fill="#b4009e"/><ellipse cx="878.642" cy="70.45" rx="0.96" ry="0.947" fill="#b4009e"/><ellipse cx="879.922" cy="74.897" rx="0.764" ry="0.754" fill="#b4009e"/><ellipse cx="845.169" cy="4.502" rx="3.379" ry="3.332" fill="#b4009e"/><ellipse cx="848.006" cy="14.328" rx="2.987" ry="2.945" fill="#b4009e"/><ellipse cx="850.784" cy="24.003" rx="2.641" ry="2.604" fill="#b4009e"/><ellipse cx="853.321" cy="32.996" rx="2.287" ry="2.255" fill="#b4009e"/><ellipse cx="855.642" cy="41.139" rx="1.995" ry="1.968" fill="#b4009e"/><ellipse cx="857.682" cy="48.446" rx="1.663" ry="1.64" fill="#b4009e"/><ellipse cx="859.59" cy="55.04" rx="1.419" ry="1.399" fill="#b4009e"/><ellipse cx="861.167" cy="60.713" rx="1.197" ry="1.181" fill="#b4009e"/><ellipse cx="862.808" cy="66.253" rx="0.96" ry="0.947" fill="#b4009e"/><ellipse cx="864.088" cy="70.701" rx="0.764" ry="0.754" fill="#b4009e"/><ellipse cx="829.923" cy="1.047" rx="3.379" ry="3.332" fill="#b4009e"/><ellipse cx="832.76" cy="10.873" rx="2.987" ry="2.945" fill="#b4009e"/><ellipse cx="835.539" cy="20.548" rx="2.641" ry="2.604" fill="#b4009e"/><ellipse cx="838.076" cy="29.542" rx="2.287" ry="2.255" fill="#b4009e"/><ellipse cx="840.397" cy="37.684" rx="1.995" ry="1.968" fill="#b4009e"/><ellipse cx="842.437" cy="44.991" rx="1.663" ry="1.64" fill="#b4009e"/><ellipse cx="844.344" cy="51.585" rx="1.419" ry="1.399" fill="#b4009e"/><ellipse cx="845.921" cy="57.258" rx="1.197" ry="1.181" fill="#b4009e"/><ellipse cx="847.563" cy="62.799" rx="0.96" ry="0.947" fill="#b4009e"/><ellipse cx="848.843" cy="67.246" rx="0.764" ry="0.754" fill="#b4009e"/><ellipse cx="815.019" cy="-2.505" rx="3.379" ry="3.332" fill="#b4009e"/><ellipse cx="817.856" cy="7.321" rx="2.987" ry="2.945" fill="#b4009e"/><ellipse cx="820.634" cy="16.996" rx="2.641" ry="2.604" fill="#b4009e"/><ellipse cx="823.171" cy="25.989" rx="2.287" ry="2.255" fill="#b4009e"/><ellipse cx="825.492" cy="34.132" rx="1.995" ry="1.968" fill="#b4009e"/><ellipse cx="827.532" cy="41.439" rx="1.663" ry="1.64" fill="#b4009e"/><ellipse cx="829.44" cy="48.033" rx="1.419" ry="1.399" fill="#b4009e"/><ellipse cx="831.017" cy="53.706" rx="1.197" ry="1.181" fill="#b4009e"/><ellipse cx="832.659" cy="59.246" rx="0.96" ry="0.947" fill="#b4009e"/><ellipse cx="833.938" cy="63.694" rx="0.764" ry="0.754" fill="#b4009e"/><ellipse cx="802.611" cy="3.866" rx="2.987" ry="2.945" fill="#b4009e"/><ellipse cx="805.389" cy="13.541" rx="2.641" ry="2.604" fill="#b4009e"/><ellipse cx="807.926" cy="22.535" rx="2.287" ry="2.255" fill="#b4009e"/><ellipse cx="810.247" cy="30.677" rx="1.995" ry="1.968" fill="#b4009e"/><ellipse cx="812.287" cy="37.984" rx="1.663" ry="1.64" fill="#b4009e"/><ellipse cx="814.195" cy="44.578" rx="1.419" ry="1.399" fill="#b4009e"/><ellipse cx="815.772" cy="50.251" rx="1.197" ry="1.181" fill="#b4009e"/><ellipse cx="817.413" cy="55.792" rx="0.96" ry="0.947" fill="#b4009e"/><ellipse cx="818.693" cy="60.239" rx="0.764" ry="0.754" fill="#b4009e"/><ellipse cx="787.266" cy="0.076" rx="2.987" ry="2.945" fill="#b4009e"/><ellipse cx="790.045" cy="9.75" rx="2.641" ry="2.604" fill="#b4009e"/><ellipse cx="792.582" cy="18.744" rx="2.287" ry="2.255" fill="#b4009e"/><ellipse cx="794.902" cy="26.887" rx="1.995" ry="1.968" fill="#b4009e"/><ellipse cx="796.943" cy="34.194" rx="1.663" ry="1.64" fill="#b4009e"/><ellipse cx="798.85" cy="40.788" rx="1.419" ry="1.399" fill="#b4009e"/><ellipse cx="800.427" cy="46.461" rx="1.197" ry="1.181" fill="#b4009e"/><ellipse cx="802.069" cy="52.001" rx="0.96" ry="0.947" fill="#b4009e"/><ellipse cx="803.348" cy="56.449" rx="0.764" ry="0.754" fill="#b4009e"/><ellipse cx="970.596" cy="-0.058" rx="0.764" ry="0.754" fill="#b4009e"/><ellipse cx="1056.364" cy="-0.147" rx="1.663" ry="1.64" fill="#b4009e"/><ellipse cx="1058.271" cy="6.447" rx="1.419" ry="1.399" fill="#b4009e"/><ellipse cx="1059.848" cy="12.12" rx="1.197" ry="1.181" fill="#b4009e"/><ellipse cx="1061.49" cy="17.66" rx="0.96" ry="0.947" fill="#b4009e"/><ellipse cx="1062.769" cy="22.108" rx="0.764" ry="0.754" fill="#b4009e"/><ellipse cx="1042.437" cy="2.251" rx="1.419" ry="1.399" fill="#b4009e"/><ellipse cx="1044.014" cy="7.924" rx="1.197" ry="1.181" fill="#b4009e"/><ellipse cx="1045.656" cy="13.464" rx="0.96" ry="0.947" fill="#b4009e"/><ellipse cx="1046.935" cy="17.911" rx="0.764" ry="0.754" fill="#b4009e"/><ellipse cx="1027.192" cy="-1.204" rx="1.419" ry="1.399" fill="#b4009e"/><ellipse cx="1028.769" cy="4.469" rx="1.197" ry="1.181" fill="#b4009e"/><ellipse cx="1030.411" cy="10.009" rx="0.96" ry="0.947" fill="#b4009e"/><ellipse cx="1031.69" cy="14.457" rx="0.764" ry="0.754" fill="#b4009e"/><ellipse cx="1013.864" cy="0.917" rx="1.197" ry="1.181" fill="#b4009e"/><ellipse cx="1015.506" cy="6.457" rx="0.96" ry="0.947" fill="#b4009e"/><ellipse cx="1016.786" cy="10.904" rx="0.764" ry="0.754" fill="#b4009e"/><ellipse cx="1000.261" cy="3.002" rx="0.96" ry="0.947" fill="#b4009e"/><ellipse cx="1001.54" cy="7.449" rx="0.764" ry="0.754" fill="#b4009e"/><ellipse cx="984.917" cy="-0.788" rx="0.96" ry="0.947" fill="#b4009e"/><ellipse cx="986.196" cy="3.659" rx="0.764" ry="0.754" fill="#b4009e"/><ellipse cx="901.666" cy="50.9" rx="4.152" ry="4.094" fill="#b4009e"/><ellipse cx="910.094" cy="42.28" rx="3.668" ry="3.617" fill="#b4009e"/><ellipse cx="917.642" cy="34.445" rx="3.3" ry="3.254" fill="#b4009e"/><ellipse cx="924.586" cy="27.186" rx="2.917" ry="2.877" fill="#b4009e"/><ellipse cx="931.431" cy="20.05" rx="2.58" ry="2.544" fill="#b4009e"/><ellipse cx="937.818" cy="13.456" rx="2.234" ry="2.203" fill="#b4009e"/><ellipse cx="943.587" cy="7.466" rx="1.949" ry="1.922" fill="#b4009e"/><ellipse cx="948.787" cy="2.125" rx="1.624" ry="1.602" fill="#b4009e"/><ellipse cx="897.202" cy="35.788" rx="4.152" ry="4.094" fill="#b4009e"/><ellipse cx="905.63" cy="27.167" rx="3.668" ry="3.617" fill="#b4009e"/><ellipse cx="913.178" cy="19.332" rx="3.3" ry="3.254" fill="#b4009e"/><ellipse cx="920.122" cy="12.073" rx="2.917" ry="2.877" fill="#b4009e"/><ellipse cx="926.967" cy="4.938" rx="2.58" ry="2.544" fill="#b4009e"/><ellipse cx="933.354" cy="-1.656" rx="2.234" ry="2.203" fill="#b4009e"/><ellipse cx="892.557" cy="21.001" rx="4.152" ry="4.094" fill="#b4009e"/><ellipse cx="900.985" cy="12.38" rx="3.668" ry="3.617" fill="#b4009e"/><ellipse cx="908.533" cy="4.545" rx="3.3" ry="3.254" fill="#b4009e"/><ellipse cx="915.478" cy="-2.714" rx="2.917" ry="2.877" fill="#b4009e"/><ellipse cx="888.498" cy="6.319" rx="4.152" ry="4.094" fill="#b4009e"/><ellipse cx="896.926" cy="-2.302" rx="3.668" ry="3.617" fill="#b4009e"/><ellipse cx="694.374" cy="2.666" rx="1.419" ry="1.399" fill="#b4009e"/><ellipse cx="690.238" cy="6.905" rx="1.197" ry="1.181" fill="#b4009e"/><ellipse cx="686.25" cy="11.131" rx="0.96" ry="0.947" fill="#b4009e"/><ellipse cx="683.03" cy="14.491" rx="0.764" ry="0.754" fill="#b4009e"/><ellipse cx="674.525" cy="2.492" rx="1.197" ry="1.181" fill="#b4009e"/><ellipse cx="670.537" cy="6.718" rx="0.96" ry="0.947" fill="#b4009e"/><ellipse cx="667.317" cy="10.078" rx="0.764" ry="0.754" fill="#b4009e"/><ellipse cx="658.988" cy="-0.697" rx="1.197" ry="1.181" fill="#b4009e"/><ellipse cx="655.001" cy="3.529" rx="0.96" ry="0.947" fill="#b4009e"/><ellipse cx="651.781" cy="6.889" rx="0.764" ry="0.754" fill="#b4009e"/><ellipse cx="640.217" cy="-0.24" rx="0.96" ry="0.947" fill="#b4009e"/><ellipse cx="636.997" cy="3.12" rx="0.764" ry="0.754" fill="#b4009e"/><ellipse cx="621.872" cy="-0.552" rx="0.764" ry="0.754" fill="#b4009e"/><ellipse cx="1460.844" cy="2.864" rx="1.663" ry="1.64" fill="#b4009e"/><ellipse cx="1462.751" cy="9.458" rx="1.419" ry="1.399" fill="#b4009e"/><ellipse cx="1464.328" cy="15.131" rx="1.197" ry="1.181" fill="#b4009e"/><ellipse cx="1465.97" cy="20.671" rx="0.96" ry="0.947" fill="#b4009e"/><ellipse cx="1467.25" cy="25.118" rx="0.764" ry="0.754" fill="#b4009e"/><ellipse cx="1546.119" cy="0.586" rx="2.641" ry="2.604" fill="#b4009e"/><ellipse cx="1548.656" cy="9.58" rx="2.287" ry="2.255" fill="#b4009e"/><ellipse cx="1550.977" cy="17.722" rx="1.995" ry="1.968" fill="#b4009e"/><ellipse cx="1553.017" cy="25.029" rx="1.663" ry="1.64" fill="#b4009e"/><ellipse cx="1554.925" cy="31.623" rx="1.419" ry="1.399" fill="#b4009e"/><ellipse cx="1556.502" cy="37.297" rx="1.197" ry="1.181" fill="#b4009e"/><ellipse cx="1558.143" cy="42.837" rx="0.96" ry="0.947" fill="#b4009e"/><ellipse cx="1559.423" cy="47.284" rx="0.764" ry="0.754" fill="#b4009e"/><ellipse cx="1532.822" cy="5.383" rx="2.287" ry="2.255" fill="#b4009e"/><ellipse cx="1535.143" cy="13.526" rx="1.995" ry="1.968" fill="#b4009e"/><ellipse cx="1537.183" cy="20.833" rx="1.663" ry="1.64" fill="#b4009e"/><ellipse cx="1539.091" cy="27.427" rx="1.419" ry="1.399" fill="#b4009e"/><ellipse cx="1540.668" cy="33.1" rx="1.197" ry="1.181" fill="#b4009e"/><ellipse cx="1542.31" cy="38.641" rx="0.96" ry="0.947" fill="#b4009e"/><ellipse cx="1543.589" cy="43.088" rx="0.764" ry="0.754" fill="#b4009e"/><ellipse cx="1517.577" cy="1.929" rx="2.287" ry="2.255" fill="#b4009e"/><ellipse cx="1519.898" cy="10.071" rx="1.995" ry="1.968" fill="#b4009e"/><ellipse cx="1521.938" cy="17.378" rx="1.663" ry="1.64" fill="#b4009e"/><ellipse cx="1523.846" cy="23.972" rx="1.419" ry="1.399" fill="#b4009e"/><ellipse cx="1525.423" cy="29.646" rx="1.197" ry="1.181" fill="#b4009e"/><ellipse cx="1527.064" cy="35.186" rx="0.96" ry="0.947" fill="#b4009e"/><ellipse cx="1528.344" cy="39.633" rx="0.764" ry="0.754" fill="#b4009e"/><ellipse cx="1502.672" cy="-1.624" rx="2.287" ry="2.255" fill="#b4009e"/><ellipse cx="1504.993" cy="6.519" rx="1.995" ry="1.968" fill="#b4009e"/><ellipse cx="1507.034" cy="13.826" rx="1.663" ry="1.64" fill="#b4009e"/><ellipse cx="1508.941" cy="20.42" rx="1.419" ry="1.399" fill="#b4009e"/><ellipse cx="1510.518" cy="26.093" rx="1.197" ry="1.181" fill="#b4009e"/><ellipse cx="1512.16" cy="31.633" rx="0.96" ry="0.947" fill="#b4009e"/><ellipse cx="1513.439" cy="36.081" rx="0.764" ry="0.754" fill="#b4009e"/><ellipse cx="1489.748" cy="3.064" rx="1.995" ry="1.968" fill="#b4009e"/><ellipse cx="1491.788" cy="10.371" rx="1.663" ry="1.64" fill="#b4009e"/><ellipse cx="1493.696" cy="16.965" rx="1.419" ry="1.399" fill="#b4009e"/><ellipse cx="1495.273" cy="22.638" rx="1.197" ry="1.181" fill="#b4009e"/><ellipse cx="1496.915" cy="28.179" rx="0.96" ry="0.947" fill="#b4009e"/><ellipse cx="1498.194" cy="32.626" rx="0.764" ry="0.754" fill="#b4009e"/><ellipse cx="1474.404" cy="-0.726" rx="1.995" ry="1.968" fill="#b4009e"/><ellipse cx="1476.444" cy="6.581" rx="1.663" ry="1.64" fill="#b4009e"/><ellipse cx="1478.351" cy="13.175" rx="1.419" ry="1.399" fill="#b4009e"/><ellipse cx="1479.928" cy="18.848" rx="1.197" ry="1.181" fill="#b4009e"/><ellipse cx="1481.57" cy="24.388" rx="0.96" ry="0.947" fill="#b4009e"/><ellipse cx="1482.85" cy="28.836" rx="0.764" ry="0.754" fill="#b4009e"/><ellipse cx="1398.32" cy="76.077" rx="4.152" ry="4.094" fill="#b4009e"/><ellipse cx="1406.748" cy="67.456" rx="3.668" ry="3.617" fill="#b4009e"/><ellipse cx="1414.295" cy="59.621" rx="3.3" ry="3.254" fill="#b4009e"/><ellipse cx="1421.24" cy="52.362" rx="2.917" ry="2.877" fill="#b4009e"/><ellipse cx="1428.085" cy="45.227" rx="2.58" ry="2.544" fill="#b4009e"/><ellipse cx="1434.471" cy="38.632" rx="2.234" ry="2.203" fill="#b4009e"/><ellipse cx="1440.241" cy="32.642" rx="1.949" ry="1.922" fill="#b4009e"/><ellipse cx="1445.44" cy="27.301" rx="1.624" ry="1.602" fill="#b4009e"/><ellipse cx="1450.099" cy="22.427" rx="1.386" ry="1.367" fill="#b4009e"/><ellipse cx="1454.139" cy="18.286" rx="1.169" ry="1.153" fill="#b4009e"/><ellipse cx="1458.034" cy="14.158" rx="0.938" ry="0.925" fill="#b4009e"/><ellipse cx="1393.856" cy="60.964" rx="4.152" ry="4.094" fill="#b4009e"/><ellipse cx="1402.284" cy="52.344" rx="3.668" ry="3.617" fill="#b4009e"/><ellipse cx="1409.831" cy="44.509" rx="3.3" ry="3.254" fill="#b4009e"/><ellipse cx="1416.776" cy="37.25" rx="2.917" ry="2.877" fill="#b4009e"/><ellipse cx="1423.621" cy="30.115" rx="2.58" ry="2.544" fill="#b4009e"/><ellipse cx="1430.007" cy="23.52" rx="2.234" ry="2.203" fill="#b4009e"/><ellipse cx="1435.777" cy="17.53" rx="1.949" ry="1.922" fill="#b4009e"/><ellipse cx="1440.976" cy="12.189" rx="1.624" ry="1.602" fill="#b4009e"/><ellipse cx="1445.635" cy="7.314" rx="1.386" ry="1.367" fill="#b4009e"/><ellipse cx="1449.675" cy="3.174" rx="1.169" ry="1.153" fill="#b4009e"/><ellipse cx="1389.211" cy="46.177" rx="4.152" ry="4.094" fill="#b4009e"/><ellipse cx="1397.639" cy="37.557" rx="3.668" ry="3.617" fill="#b4009e"/><ellipse cx="1405.186" cy="29.722" rx="3.3" ry="3.254" fill="#b4009e"/><ellipse cx="1412.131" cy="22.463" rx="2.917" ry="2.877" fill="#b4009e"/><ellipse cx="1418.976" cy="15.327" rx="2.58" ry="2.544" fill="#b4009e"/><ellipse cx="1425.363" cy="8.733" rx="2.234" ry="2.203" fill="#b4009e"/><ellipse cx="1431.132" cy="2.743" rx="1.949" ry="1.922" fill="#b4009e"/><ellipse cx="1385.151" cy="31.495" rx="4.152" ry="4.094" fill="#b4009e"/><ellipse cx="1393.579" cy="22.875" rx="3.668" ry="3.617" fill="#b4009e"/><ellipse cx="1401.127" cy="15.04" rx="3.3" ry="3.254" fill="#b4009e"/><ellipse cx="1408.072" cy="7.78" rx="2.917" ry="2.877" fill="#b4009e"/><ellipse cx="1414.917" cy="0.645" rx="2.58" ry="2.544" fill="#b4009e"/><ellipse cx="1380.985" cy="17.39" rx="4.152" ry="4.094" fill="#b4009e"/><ellipse cx="1389.413" cy="8.77" rx="3.668" ry="3.617" fill="#b4009e"/><ellipse cx="1396.961" cy="0.935" rx="3.3" ry="3.254" fill="#b4009e"/><ellipse cx="1376.266" cy="2.351" rx="4.152" ry="4.094" fill="#b4009e"/><ellipse cx="1083.69" cy="2.984" rx="4.152" ry="4.094" fill="#b4009e"/><ellipse cx="1104.149" cy="0.901" rx="1.663" ry="1.64" fill="#b4009e"/><ellipse cx="1099.379" cy="5.891" rx="1.419" ry="1.399" fill="#b4009e"/><ellipse cx="1095.243" cy="10.13" rx="1.197" ry="1.181" fill="#b4009e"/><ellipse cx="1091.256" cy="14.356" rx="0.96" ry="0.947" fill="#b4009e"/><ellipse cx="1088.036" cy="17.715" rx="0.764" ry="0.754" fill="#b4009e"/><ellipse cx="1220.572" cy="-2.804" rx="2.987" ry="2.945" fill="#b4009e"/><ellipse cx="1213.565" cy="4.501" rx="2.641" ry="2.604" fill="#b4009e"/><ellipse cx="1207.026" cy="11.252" rx="2.287" ry="2.255" fill="#b4009e"/><ellipse cx="1201.119" cy="17.385" rx="1.995" ry="1.968" fill="#b4009e"/><ellipse cx="1195.797" cy="22.853" rx="1.663" ry="1.64" fill="#b4009e"/><ellipse cx="1191.027" cy="27.843" rx="1.419" ry="1.399" fill="#b4009e"/><ellipse cx="1186.891" cy="32.082" rx="1.197" ry="1.181" fill="#b4009e"/><ellipse cx="1182.904" cy="36.308" rx="0.96" ry="0.947" fill="#b4009e"/><ellipse cx="1179.684" cy="39.667" rx="0.764" ry="0.754" fill="#b4009e"/><ellipse cx="1197.851" cy="0.088" rx="2.641" ry="2.604" fill="#b4009e"/><ellipse cx="1191.313" cy="6.839" rx="2.287" ry="2.255" fill="#b4009e"/><ellipse cx="1185.406" cy="12.972" rx="1.995" ry="1.968" fill="#b4009e"/><ellipse cx="1180.084" cy="18.439" rx="1.663" ry="1.64" fill="#b4009e"/><ellipse cx="1175.314" cy="23.43" rx="1.419" ry="1.399" fill="#b4009e"/><ellipse cx="1171.178" cy="27.669" rx="1.197" ry="1.181" fill="#b4009e"/><ellipse cx="1167.191" cy="31.895" rx="0.96" ry="0.947" fill="#b4009e"/><ellipse cx="1163.971" cy="35.254" rx="0.764" ry="0.754" fill="#b4009e"/><ellipse cx="1175.777" cy="3.65" rx="2.287" ry="2.255" fill="#b4009e"/><ellipse cx="1169.87" cy="9.783" rx="1.995" ry="1.968" fill="#b4009e"/><ellipse cx="1164.547" cy="15.25" rx="1.663" ry="1.64" fill="#b4009e"/><ellipse cx="1159.778" cy="20.241" rx="1.419" ry="1.399" fill="#b4009e"/><ellipse cx="1155.642" cy="24.48" rx="1.197" ry="1.181" fill="#b4009e"/><ellipse cx="1151.655" cy="28.706" rx="0.96" ry="0.947" fill="#b4009e"/><ellipse cx="1148.435" cy="32.065" rx="0.764" ry="0.754" fill="#b4009e"/><ellipse cx="1160.993" cy="-0.119" rx="2.287" ry="2.255" fill="#b4009e"/><ellipse cx="1155.086" cy="6.013" rx="1.995" ry="1.968" fill="#b4009e"/><ellipse cx="1149.763" cy="11.481" rx="1.663" ry="1.64" fill="#b4009e"/><ellipse cx="1144.994" cy="16.471" rx="1.419" ry="1.399" fill="#b4009e"/><ellipse cx="1140.858" cy="20.71" rx="1.197" ry="1.181" fill="#b4009e"/><ellipse cx="1136.871" cy="24.936" rx="0.96" ry="0.947" fill="#b4009e"/><ellipse cx="1133.651" cy="28.296" rx="0.764" ry="0.754" fill="#b4009e"/><ellipse cx="1139.962" cy="2.342" rx="1.995" ry="1.968" fill="#b4009e"/><ellipse cx="1134.639" cy="7.81" rx="1.663" ry="1.64" fill="#b4009e"/><ellipse cx="1129.869" cy="12.8" rx="1.419" ry="1.399" fill="#b4009e"/><ellipse cx="1125.733" cy="17.039" rx="1.197" ry="1.181" fill="#b4009e"/><ellipse cx="1121.746" cy="21.265" rx="0.96" ry="0.947" fill="#b4009e"/><ellipse cx="1118.526" cy="24.625" rx="0.764" ry="0.754" fill="#b4009e"/><ellipse cx="1124.667" cy="-1.281" rx="1.995" ry="1.968" fill="#b4009e"/><ellipse cx="1119.344" cy="4.187" rx="1.663" ry="1.64" fill="#b4009e"/><ellipse cx="1114.575" cy="9.177" rx="1.419" ry="1.399" fill="#b4009e"/><ellipse cx="1110.439" cy="13.416" rx="1.197" ry="1.181" fill="#b4009e"/><ellipse cx="1106.451" cy="17.642" rx="0.96" ry="0.947" fill="#b4009e"/><ellipse cx="1103.231" cy="21.002" rx="0.764" ry="0.754" fill="#b4009e"/><ellipse cx="1867.885" cy="0.925" rx="1.663" ry="1.64" fill="#b4009e"/><ellipse cx="1863.116" cy="5.915" rx="1.419" ry="1.399" fill="#b4009e"/><ellipse cx="1858.98" cy="10.154" rx="1.197" ry="1.181" fill="#b4009e"/><ellipse cx="1854.992" cy="14.38" rx="0.96" ry="0.947" fill="#b4009e"/><ellipse cx="1851.772" cy="17.74" rx="0.764" ry="0.754" fill="#b4009e"/><ellipse cx="1847.403" cy="1.502" rx="1.419" ry="1.399" fill="#b4009e"/><ellipse cx="1843.267" cy="5.741" rx="1.197" ry="1.181" fill="#b4009e"/><ellipse cx="1839.279" cy="9.967" rx="0.96" ry="0.947" fill="#b4009e"/><ellipse cx="1836.059" cy="13.326" rx="0.764" ry="0.754" fill="#b4009e"/><ellipse cx="1827.73" cy="2.552" rx="1.197" ry="1.181" fill="#b4009e"/><ellipse cx="1823.743" cy="6.778" rx="0.96" ry="0.947" fill="#b4009e"/><ellipse cx="1820.523" cy="10.137" rx="0.764" ry="0.754" fill="#b4009e"/><ellipse cx="1808.959" cy="3.008" rx="0.96" ry="0.947" fill="#b4009e"/><ellipse cx="1805.739" cy="6.368" rx="0.764" ry="0.754" fill="#b4009e"/><ellipse cx="1793.835" cy="-0.663" rx="0.96" ry="0.947" fill="#b4009e"/><ellipse cx="1790.615" cy="2.697" rx="0.764" ry="0.754" fill="#b4009e"/><ellipse cx="1738.152" cy="0.992" rx="0.764" ry="0.754" fill="#b4009e"/><ellipse cx="1577.049" cy="29.784" rx="4.152" ry="4.094" fill="#b4009e"/><ellipse cx="1585.477" cy="21.164" rx="3.668" ry="3.617" fill="#b4009e"/><ellipse cx="1593.025" cy="13.329" rx="3.3" ry="3.254" fill="#b4009e"/><ellipse cx="1599.969" cy="6.07" rx="2.917" ry="2.877" fill="#b4009e"/><ellipse cx="1606.814" cy="-1.065" rx="2.58" ry="2.544" fill="#b4009e"/><ellipse cx="1572.585" cy="14.672" rx="4.152" ry="4.094" fill="#b4009e"/><ellipse cx="1581.013" cy="6.052" rx="3.668" ry="3.617" fill="#b4009e"/><ellipse cx="1588.561" cy="-1.783" rx="3.3" ry="3.254" fill="#b4009e"/><ellipse cx="1567.94" cy="-0.115" rx="4.152" ry="4.094" fill="#b4009e"/><ellipse cx="1622.283" cy="2.045" rx="2.987" ry="2.945" fill="#b4009e"/><ellipse cx="1615.275" cy="9.35" rx="2.641" ry="2.604" fill="#b4009e"/><ellipse cx="1608.737" cy="16.101" rx="2.287" ry="2.255" fill="#b4009e"/><ellipse cx="1602.83" cy="22.233" rx="1.995" ry="1.968" fill="#b4009e"/><ellipse cx="1597.508" cy="27.701" rx="1.663" ry="1.64" fill="#b4009e"/><ellipse cx="1592.738" cy="32.691" rx="1.419" ry="1.399" fill="#b4009e"/><ellipse cx="1588.602" cy="36.93" rx="1.197" ry="1.181" fill="#b4009e"/><ellipse cx="1584.615" cy="41.157" rx="0.96" ry="0.947" fill="#b4009e"/><ellipse cx="1581.395" cy="44.516" rx="0.764" ry="0.754" fill="#b4009e"/><ellipse cx="1737.396" cy="-0.281" rx="4.25" ry="4.191" fill="#b4009e"/><ellipse cx="1728.768" cy="8.544" rx="3.755" ry="3.703" fill="#b4009e"/><ellipse cx="1721.041" cy="16.565" rx="3.379" ry="3.332" fill="#b4009e"/><ellipse cx="1713.931" cy="23.997" rx="2.987" ry="2.945" fill="#b4009e"/><ellipse cx="1706.924" cy="31.302" rx="2.641" ry="2.604" fill="#b4009e"/><ellipse cx="1700.385" cy="38.053" rx="2.287" ry="2.255" fill="#b4009e"/><ellipse cx="1694.478" cy="44.186" rx="1.995" ry="1.968" fill="#b4009e"/><ellipse cx="1689.156" cy="49.653" rx="1.663" ry="1.64" fill="#b4009e"/><ellipse cx="1684.386" cy="54.644" rx="1.419" ry="1.399" fill="#b4009e"/><ellipse cx="1680.25" cy="58.883" rx="1.197" ry="1.181" fill="#b4009e"/><ellipse cx="1676.263" cy="63.109" rx="0.96" ry="0.947" fill="#b4009e"/><ellipse cx="1673.043" cy="66.468" rx="0.764" ry="0.754" fill="#b4009e"/><ellipse cx="1713.055" cy="4.131" rx="3.755" ry="3.703" fill="#b4009e"/><ellipse cx="1705.328" cy="12.152" rx="3.379" ry="3.332" fill="#b4009e"/><ellipse cx="1698.218" cy="19.584" rx="2.987" ry="2.945" fill="#b4009e"/><ellipse cx="1691.21" cy="26.888" rx="2.641" ry="2.604" fill="#b4009e"/><ellipse cx="1684.672" cy="33.64" rx="2.287" ry="2.255" fill="#b4009e"/><ellipse cx="1678.765" cy="39.772" rx="1.995" ry="1.968" fill="#b4009e"/><ellipse cx="1673.443" cy="45.24" rx="1.663" ry="1.64" fill="#b4009e"/><ellipse cx="1668.673" cy="50.23" rx="1.419" ry="1.399" fill="#b4009e"/><ellipse cx="1664.537" cy="54.469" rx="1.197" ry="1.181" fill="#b4009e"/><ellipse cx="1660.55" cy="58.695" rx="0.96" ry="0.947" fill="#b4009e"/><ellipse cx="1657.33" cy="62.055" rx="0.764" ry="0.754" fill="#b4009e"/><ellipse cx="1697.519" cy="0.942" rx="3.755" ry="3.703" fill="#b4009e"/><ellipse cx="1689.792" cy="8.963" rx="3.379" ry="3.332" fill="#b4009e"/><ellipse cx="1682.682" cy="16.395" rx="2.987" ry="2.945" fill="#b4009e"/><ellipse cx="1675.674" cy="23.7" rx="2.641" ry="2.604" fill="#b4009e"/><ellipse cx="1669.136" cy="30.451" rx="2.287" ry="2.255" fill="#b4009e"/><ellipse cx="1663.229" cy="36.583" rx="1.995" ry="1.968" fill="#b4009e"/><ellipse cx="1657.906" cy="42.051" rx="1.663" ry="1.64" fill="#b4009e"/><ellipse cx="1653.137" cy="47.041" rx="1.419" ry="1.399" fill="#b4009e"/><ellipse cx="1649.001" cy="51.28" rx="1.197" ry="1.181" fill="#b4009e"/><ellipse cx="1645.014" cy="55.507" rx="0.96" ry="0.947" fill="#b4009e"/><ellipse cx="1641.794" cy="58.866" rx="0.764" ry="0.754" fill="#b4009e"/><ellipse cx="1682.735" cy="-2.827" rx="3.755" ry="3.703" fill="#b4009e"/><ellipse cx="1675.008" cy="5.194" rx="3.379" ry="3.332" fill="#b4009e"/><ellipse cx="1667.898" cy="12.625" rx="2.987" ry="2.945" fill="#b4009e"/><ellipse cx="1660.89" cy="19.93" rx="2.641" ry="2.604" fill="#b4009e"/><ellipse cx="1654.352" cy="26.682" rx="2.287" ry="2.255" fill="#b4009e"/><ellipse cx="1648.445" cy="32.814" rx="1.995" ry="1.968" fill="#b4009e"/><ellipse cx="1643.122" cy="38.282" rx="1.663" ry="1.64" fill="#b4009e"/><ellipse cx="1638.353" cy="43.272" rx="1.419" ry="1.399" fill="#b4009e"/><ellipse cx="1634.217" cy="47.511" rx="1.197" ry="1.181" fill="#b4009e"/><ellipse cx="1630.23" cy="51.737" rx="0.96" ry="0.947" fill="#b4009e"/><ellipse cx="1627.01" cy="55.097" rx="0.764" ry="0.754" fill="#b4009e"/><ellipse cx="1659.883" cy="1.522" rx="3.379" ry="3.332" fill="#b4009e"/><ellipse cx="1652.774" cy="8.954" rx="2.987" ry="2.945" fill="#b4009e"/><ellipse cx="1645.766" cy="16.259" rx="2.641" ry="2.604" fill="#b4009e"/><ellipse cx="1639.228" cy="23.01" rx="2.287" ry="2.255" fill="#b4009e"/><ellipse cx="1633.321" cy="29.143" rx="1.995" ry="1.968" fill="#b4009e"/><ellipse cx="1627.998" cy="34.611" rx="1.663" ry="1.64" fill="#b4009e"/><ellipse cx="1623.229" cy="39.601" rx="1.419" ry="1.399" fill="#b4009e"/><ellipse cx="1619.093" cy="43.84" rx="1.197" ry="1.181" fill="#b4009e"/><ellipse cx="1615.105" cy="48.066" rx="0.96" ry="0.947" fill="#b4009e"/><ellipse cx="1611.885" cy="51.425" rx="0.764" ry="0.754" fill="#b4009e"/><ellipse cx="1644.589" cy="-2.1" rx="3.379" ry="3.332" fill="#b4009e"/><ellipse cx="1637.479" cy="5.331" rx="2.987" ry="2.945" fill="#b4009e"/><ellipse cx="1630.471" cy="12.636" rx="2.641" ry="2.604" fill="#b4009e"/><ellipse cx="1623.933" cy="19.387" rx="2.287" ry="2.255" fill="#b4009e"/><ellipse cx="1618.026" cy="25.52" rx="1.995" ry="1.968" fill="#b4009e"/><ellipse cx="1612.703" cy="30.988" rx="1.663" ry="1.64" fill="#b4009e"/><ellipse cx="1607.934" cy="35.978" rx="1.419" ry="1.399" fill="#b4009e"/><ellipse cx="1603.798" cy="40.217" rx="1.197" ry="1.181" fill="#b4009e"/><ellipse cx="1599.811" cy="44.443" rx="0.96" ry="0.947" fill="#b4009e"/><ellipse cx="1596.59" cy="47.803" rx="0.764" ry="0.754" fill="#b4009e"/><ellipse cx="2132.138" cy="-0.689" rx="1.197" ry="1.181" fill="#b4009e"/><ellipse cx="2133.78" cy="4.852" rx="0.96" ry="0.947" fill="#b4009e"/><ellipse cx="2135.06" cy="9.299" rx="0.764" ry="0.754" fill="#b4009e"/><ellipse cx="2218.787" cy="1.903" rx="1.995" ry="1.968" fill="#b4009e"/><ellipse cx="2220.827" cy="9.21" rx="1.663" ry="1.64" fill="#b4009e"/><ellipse cx="2222.734" cy="15.804" rx="1.419" ry="1.399" fill="#b4009e"/><ellipse cx="2224.311" cy="21.477" rx="1.197" ry="1.181" fill="#b4009e"/><ellipse cx="2225.953" cy="27.017" rx="0.96" ry="0.947" fill="#b4009e"/><ellipse cx="2227.233" cy="31.464" rx="0.764" ry="0.754" fill="#b4009e"/><ellipse cx="2204.993" cy="5.013" rx="1.663" ry="1.64" fill="#b4009e"/><ellipse cx="2206.901" cy="11.607" rx="1.419" ry="1.399" fill="#b4009e"/><ellipse cx="2208.478" cy="17.28" rx="1.197" ry="1.181" fill="#b4009e"/><ellipse cx="2210.119" cy="22.821" rx="0.96" ry="0.947" fill="#b4009e"/><ellipse cx="2211.399" cy="27.268" rx="0.764" ry="0.754" fill="#b4009e"/><ellipse cx="2189.748" cy="1.559" rx="1.663" ry="1.64" fill="#b4009e"/><ellipse cx="2191.655" cy="8.153" rx="1.419" ry="1.399" fill="#b4009e"/><ellipse cx="2193.232" cy="13.826" rx="1.197" ry="1.181" fill="#b4009e"/><ellipse cx="2194.874" cy="19.366" rx="0.96" ry="0.947" fill="#b4009e"/><ellipse cx="2196.154" cy="23.813" rx="0.764" ry="0.754" fill="#b4009e"/><ellipse cx="2176.751" cy="4.6" rx="1.419" ry="1.399" fill="#b4009e"/><ellipse cx="2178.328" cy="10.273" rx="1.197" ry="1.181" fill="#b4009e"/><ellipse cx="2179.97" cy="15.814" rx="0.96" ry="0.947" fill="#b4009e"/><ellipse cx="2181.249" cy="20.261" rx="0.764" ry="0.754" fill="#b4009e"/><ellipse cx="2161.506" cy="1.146" rx="1.419" ry="1.399" fill="#b4009e"/><ellipse cx="2163.083" cy="6.819" rx="1.197" ry="1.181" fill="#b4009e"/><ellipse cx="2164.724" cy="12.359" rx="0.96" ry="0.947" fill="#b4009e"/><ellipse cx="2166.004" cy="16.806" rx="0.764" ry="0.754" fill="#b4009e"/><ellipse cx="2147.738" cy="3.028" rx="1.197" ry="1.181" fill="#b4009e"/><ellipse cx="2149.38" cy="8.569" rx="0.96" ry="0.947" fill="#b4009e"/><ellipse cx="2150.66" cy="13.016" rx="0.764" ry="0.754" fill="#b4009e"/><ellipse cx="2066.129" cy="60.257" rx="4.152" ry="4.094" fill="#b4009e"/><ellipse cx="2074.557" cy="51.637" rx="3.668" ry="3.617" fill="#b4009e"/><ellipse cx="2082.105" cy="43.802" rx="3.3" ry="3.254" fill="#b4009e"/><ellipse cx="2089.05" cy="36.543" rx="2.917" ry="2.877" fill="#b4009e"/><ellipse cx="2095.895" cy="29.407" rx="2.58" ry="2.544" fill="#b4009e"/><ellipse cx="2102.281" cy="22.813" rx="2.234" ry="2.203" fill="#b4009e"/><ellipse cx="2108.051" cy="16.823" rx="1.949" ry="1.922" fill="#b4009e"/><ellipse cx="2113.25" cy="11.482" rx="1.624" ry="1.602" fill="#b4009e"/><ellipse cx="2117.909" cy="6.607" rx="1.386" ry="1.367" fill="#b4009e"/><ellipse cx="2121.949" cy="2.467" rx="1.169" ry="1.153" fill="#b4009e"/><ellipse cx="2061.666" cy="45.145" rx="4.152" ry="4.094" fill="#b4009e"/><ellipse cx="2070.094" cy="36.524" rx="3.668" ry="3.617" fill="#b4009e"/><ellipse cx="2077.641" cy="28.689" rx="3.3" ry="3.254" fill="#b4009e"/><ellipse cx="2084.586" cy="21.43" rx="2.917" ry="2.877" fill="#b4009e"/><ellipse cx="2091.431" cy="14.295" rx="2.58" ry="2.544" fill="#b4009e"/><ellipse cx="2097.817" cy="7.7" rx="2.234" ry="2.203" fill="#b4009e"/><ellipse cx="2103.587" cy="1.71" rx="1.949" ry="1.922" fill="#b4009e"/><ellipse cx="2057.021" cy="30.357" rx="4.152" ry="4.094" fill="#b4009e"/><ellipse cx="2065.449" cy="21.737" rx="3.668" ry="3.617" fill="#b4009e"/><ellipse cx="2072.996" cy="13.902" rx="3.3" ry="3.254" fill="#b4009e"/><ellipse cx="2079.941" cy="6.643" rx="2.917" ry="2.877" fill="#b4009e"/><ellipse cx="2086.786" cy="-0.492" rx="2.58" ry="2.544" fill="#b4009e"/><ellipse cx="2052.961" cy="15.675" rx="4.152" ry="4.094" fill="#b4009e"/><ellipse cx="2061.389" cy="7.055" rx="3.668" ry="3.617" fill="#b4009e"/><ellipse cx="2068.937" cy="-0.78" rx="3.3" ry="3.254" fill="#b4009e"/><ellipse cx="2048.795" cy="1.57" rx="4.152" ry="4.094" fill="#b4009e"/><ellipse cx="2248.977" cy="7.468" rx="4.152" ry="4.094" fill="#b4009e"/><ellipse cx="2257.405" cy="-1.153" rx="3.668" ry="3.617" fill="#b4009e"/><ellipse cx="2274.758" cy="-0.083" rx="1.995" ry="1.968" fill="#b4009e"/><ellipse cx="2269.436" cy="5.385" rx="1.663" ry="1.64" fill="#b4009e"/><ellipse cx="2264.666" cy="10.375" rx="1.419" ry="1.399" fill="#b4009e"/><ellipse cx="2260.53" cy="14.614" rx="1.197" ry="1.181" fill="#b4009e"/><ellipse cx="2256.543" cy="18.84" rx="0.96" ry="0.947" fill="#b4009e"/><ellipse cx="2253.323" cy="22.199" rx="0.764" ry="0.754" fill="#b4009e"/><ellipse cx="2385.859" cy="1.68" rx="2.987" ry="2.945" fill="#b4009e"/><ellipse cx="2378.852" cy="8.985" rx="2.641" ry="2.604" fill="#b4009e"/><ellipse cx="2372.313" cy="15.736" rx="2.287" ry="2.255" fill="#b4009e"/><ellipse cx="2366.407" cy="21.869" rx="1.995" ry="1.968" fill="#b4009e"/><ellipse cx="2361.084" cy="27.337" rx="1.663" ry="1.64" fill="#b4009e"/><ellipse cx="2356.314" cy="32.327" rx="1.419" ry="1.399" fill="#b4009e"/><ellipse cx="2352.178" cy="36.566" rx="1.197" ry="1.181" fill="#b4009e"/><ellipse cx="2348.191" cy="40.792" rx="0.96" ry="0.947" fill="#b4009e"/><ellipse cx="2344.971" cy="44.151" rx="0.764" ry="0.754" fill="#b4009e"/><ellipse cx="2370.146" cy="-2.733" rx="2.987" ry="2.945" fill="#b4009e"/><ellipse cx="2363.139" cy="4.572" rx="2.641" ry="2.604" fill="#b4009e"/><ellipse cx="2356.6" cy="11.323" rx="2.287" ry="2.255" fill="#b4009e"/><ellipse cx="2350.693" cy="17.456" rx="1.995" ry="1.968" fill="#b4009e"/><ellipse cx="2345.371" cy="22.923" rx="1.663" ry="1.64" fill="#b4009e"/><ellipse cx="2340.601" cy="27.914" rx="1.419" ry="1.399" fill="#b4009e"/><ellipse cx="2336.465" cy="32.153" rx="1.197" ry="1.181" fill="#b4009e"/><ellipse cx="2332.478" cy="36.379" rx="0.96" ry="0.947" fill="#b4009e"/><ellipse cx="2329.258" cy="39.738" rx="0.764" ry="0.754" fill="#b4009e"/><ellipse cx="2347.602" cy="1.383" rx="2.641" ry="2.604" fill="#b4009e"/><ellipse cx="2341.064" cy="8.134" rx="2.287" ry="2.255" fill="#b4009e"/><ellipse cx="2335.157" cy="14.267" rx="1.995" ry="1.968" fill="#b4009e"/><ellipse cx="2329.834" cy="19.734" rx="1.663" ry="1.64" fill="#b4009e"/><ellipse cx="2325.065" cy="24.725" rx="1.419" ry="1.399" fill="#b4009e"/><ellipse cx="2320.929" cy="28.964" rx="1.197" ry="1.181" fill="#b4009e"/><ellipse cx="2316.942" cy="33.19" rx="0.96" ry="0.947" fill="#b4009e"/><ellipse cx="2313.722" cy="36.549" rx="0.764" ry="0.754" fill="#b4009e"/><ellipse cx="2332.818" cy="-2.387" rx="2.641" ry="2.604" fill="#b4009e"/><ellipse cx="2326.28" cy="4.365" rx="2.287" ry="2.255" fill="#b4009e"/><ellipse cx="2320.373" cy="10.497" rx="1.995" ry="1.968" fill="#b4009e"/><ellipse cx="2315.051" cy="15.965" rx="1.663" ry="1.64" fill="#b4009e"/><ellipse cx="2310.281" cy="20.955" rx="1.419" ry="1.399" fill="#b4009e"/><ellipse cx="2306.145" cy="25.194" rx="1.197" ry="1.181" fill="#b4009e"/><ellipse cx="2302.158" cy="29.42" rx="0.96" ry="0.947" fill="#b4009e"/><ellipse cx="2298.938" cy="32.78" rx="0.764" ry="0.754" fill="#b4009e"/><ellipse cx="2311.156" cy="0.693" rx="2.287" ry="2.255" fill="#b4009e"/><ellipse cx="2305.249" cy="6.826" rx="1.995" ry="1.968" fill="#b4009e"/><ellipse cx="2299.926" cy="12.294" rx="1.663" ry="1.64" fill="#b4009e"/><ellipse cx="2295.157" cy="17.284" rx="1.419" ry="1.399" fill="#b4009e"/><ellipse cx="2291.021" cy="21.523" rx="1.197" ry="1.181" fill="#b4009e"/><ellipse cx="2287.033" cy="25.749" rx="0.96" ry="0.947" fill="#b4009e"/><ellipse cx="2283.813" cy="29.109" rx="0.764" ry="0.754" fill="#b4009e"/><ellipse cx="2289.954" cy="3.203" rx="1.995" ry="1.968" fill="#b4009e"/><ellipse cx="2284.631" cy="8.671" rx="1.663" ry="1.64" fill="#b4009e"/><ellipse cx="2279.862" cy="13.661" rx="1.419" ry="1.399" fill="#b4009e"/><ellipse cx="2275.726" cy="17.9" rx="1.197" ry="1.181" fill="#b4009e"/><ellipse cx="2271.739" cy="22.126" rx="0.96" ry="0.947" fill="#b4009e"/><ellipse cx="2268.518" cy="25.486" rx="0.764" ry="0.754" fill="#b4009e"/><ellipse cx="1946.73" cy="1.955" rx="2.641" ry="2.604" fill="#b4009e"/><ellipse cx="1949.267" cy="10.949" rx="2.287" ry="2.255" fill="#b4009e"/><ellipse cx="1951.588" cy="19.091" rx="1.995" ry="1.968" fill="#b4009e"/><ellipse cx="1953.628" cy="26.398" rx="1.663" ry="1.64" fill="#b4009e"/><ellipse cx="1955.536" cy="32.993" rx="1.419" ry="1.399" fill="#b4009e"/><ellipse cx="1957.113" cy="38.666" rx="1.197" ry="1.181" fill="#b4009e"/><ellipse cx="1958.754" cy="44.206" rx="0.96" ry="0.947" fill="#b4009e"/><ellipse cx="1960.034" cy="48.653" rx="0.764" ry="0.754" fill="#b4009e"/><ellipse cx="2033.288" cy="4.62" rx="3.379" ry="3.332" fill="#b4009e"/><ellipse cx="2036.125" cy="14.446" rx="2.987" ry="2.945" fill="#b4009e"/><ellipse cx="2038.903" cy="24.121" rx="2.641" ry="2.604" fill="#b4009e"/><ellipse cx="2041.44" cy="33.114" rx="2.287" ry="2.255" fill="#b4009e"/><ellipse cx="2043.761" cy="41.257" rx="1.995" ry="1.968" fill="#b4009e"/><ellipse cx="2045.801" cy="48.564" rx="1.663" ry="1.64" fill="#b4009e"/><ellipse cx="2047.709" cy="55.158" rx="1.419" ry="1.399" fill="#b4009e"/><ellipse cx="2049.286" cy="60.831" rx="1.197" ry="1.181" fill="#b4009e"/><ellipse cx="2050.928" cy="66.372" rx="0.96" ry="0.947" fill="#b4009e"/><ellipse cx="2052.207" cy="70.819" rx="0.764" ry="0.754" fill="#b4009e"/><ellipse cx="2017.454" cy="0.424" rx="3.379" ry="3.332" fill="#b4009e"/><ellipse cx="2020.291" cy="10.25" rx="2.987" ry="2.945" fill="#b4009e"/><ellipse cx="2023.07" cy="19.924" rx="2.641" ry="2.604" fill="#b4009e"/><ellipse cx="2025.606" cy="28.918" rx="2.287" ry="2.255" fill="#b4009e"/><ellipse cx="2027.927" cy="37.06" rx="1.995" ry="1.968" fill="#b4009e"/><ellipse cx="2029.968" cy="44.368" rx="1.663" ry="1.64" fill="#b4009e"/><ellipse cx="2031.875" cy="50.962" rx="1.419" ry="1.399" fill="#b4009e"/><ellipse cx="2033.452" cy="56.635" rx="1.197" ry="1.181" fill="#b4009e"/><ellipse cx="2035.094" cy="62.175" rx="0.96" ry="0.947" fill="#b4009e"/><ellipse cx="2036.373" cy="66.622" rx="0.764" ry="0.754" fill="#b4009e"/><ellipse cx="2002.209" cy="-3.031" rx="3.379" ry="3.332" fill="#b4009e"/><ellipse cx="2005.046" cy="6.795" rx="2.987" ry="2.945" fill="#b4009e"/><ellipse cx="2007.824" cy="16.47" rx="2.641" ry="2.604" fill="#b4009e"/><ellipse cx="2010.361" cy="25.463" rx="2.287" ry="2.255" fill="#b4009e"/><ellipse cx="2012.682" cy="33.606" rx="1.995" ry="1.968" fill="#b4009e"/><ellipse cx="2014.722" cy="40.913" rx="1.663" ry="1.64" fill="#b4009e"/><ellipse cx="2016.63" cy="47.507" rx="1.419" ry="1.399" fill="#b4009e"/><ellipse cx="2018.207" cy="53.18" rx="1.197" ry="1.181" fill="#b4009e"/><ellipse cx="2019.849" cy="58.721" rx="0.96" ry="0.947" fill="#b4009e"/><ellipse cx="2021.128" cy="63.168" rx="0.764" ry="0.754" fill="#b4009e"/><ellipse cx="1990.141" cy="3.243" rx="2.987" ry="2.945" fill="#b4009e"/><ellipse cx="1992.92" cy="12.917" rx="2.641" ry="2.604" fill="#b4009e"/><ellipse cx="1995.457" cy="21.911" rx="2.287" ry="2.255" fill="#b4009e"/><ellipse cx="1997.777" cy="30.053" rx="1.995" ry="1.968" fill="#b4009e"/><ellipse cx="1999.818" cy="37.361" rx="1.663" ry="1.64" fill="#b4009e"/><ellipse cx="2001.725" cy="43.955" rx="1.419" ry="1.399" fill="#b4009e"/><ellipse cx="2003.302" cy="49.628" rx="1.197" ry="1.181" fill="#b4009e"/><ellipse cx="2004.944" cy="55.168" rx="0.96" ry="0.947" fill="#b4009e"/><ellipse cx="2006.223" cy="59.615" rx="0.764" ry="0.754" fill="#b4009e"/><ellipse cx="1974.896" cy="-0.212" rx="2.987" ry="2.945" fill="#b4009e"/><ellipse cx="1977.675" cy="9.463" rx="2.641" ry="2.604" fill="#b4009e"/><ellipse cx="1980.211" cy="18.456" rx="2.287" ry="2.255" fill="#b4009e"/><ellipse cx="1982.532" cy="26.599" rx="1.995" ry="1.968" fill="#b4009e"/><ellipse cx="1984.573" cy="33.906" rx="1.663" ry="1.64" fill="#b4009e"/><ellipse cx="1986.48" cy="40.5" rx="1.419" ry="1.399" fill="#b4009e"/><ellipse cx="1988.057" cy="46.173" rx="1.197" ry="1.181" fill="#b4009e"/><ellipse cx="1989.699" cy="51.714" rx="0.96" ry="0.947" fill="#b4009e"/><ellipse cx="1990.978" cy="56.161" rx="0.764" ry="0.754" fill="#b4009e"/><ellipse cx="1962.33" cy="5.672" rx="2.641" ry="2.604" fill="#b4009e"/><ellipse cx="1964.867" cy="14.666" rx="2.287" ry="2.255" fill="#b4009e"/><ellipse cx="1967.188" cy="22.808" rx="1.995" ry="1.968" fill="#b4009e"/><ellipse cx="1969.228" cy="30.116" rx="1.663" ry="1.64" fill="#b4009e"/><ellipse cx="1971.135" cy="36.71" rx="1.419" ry="1.399" fill="#b4009e"/><ellipse cx="1972.712" cy="42.383" rx="1.197" ry="1.181" fill="#b4009e"/><ellipse cx="1974.354" cy="47.923" rx="0.96" ry="0.947" fill="#b4009e"/><ellipse cx="1975.634" cy="52.37" rx="0.764" ry="0.754" fill="#b4009e"/></g><g clip-path="url(#b)"><path d="M12.161,153.826V160.1c0,3.244,1.081,10.382-11.03,10.382H-34.122L-41.928,234.6H-59.663L-55.1,155.34Z" fill="#552786"/><path d="M11.339,125.6a5.948,5.948,0,0,0-7.662-4.187c-.177-.038-.177-.038-.392.1,0,0-32.993,9.941-33.733,10.122l2.988,9.944c.529-.088,34.773-7.917,34.773-7.917C10.7,132.549,12.241,129.126,11.339,125.6Z" fill="#451e7c"/><path d="M11.339,125.6a5.948,5.948,0,0,0-7.662-4.187c-.177-.038-.177-.038-.392.1,0,0-32.993,9.941-33.733,10.122l2.988,9.944c.529-.088,34.773-7.917,34.773-7.917C10.7,132.549,12.241,129.126,11.339,125.6Z" fill="#025b56"/><path d="M-60.83,92.909a7.952,7.952,0,0,1,4.573-6.982c6.943-2.911,17.357-5.5,19.709-6.271a41.247,41.247,0,0,1,12.374-.5S-6.437,83.027-4.118,83.91a7.122,7.122,0,0,1,4.584,4.2S9.713,115.922,11.339,121.2l-45.423,46.7-17.469-4.928S-61.011,96.9-60.83,92.909Z" fill="#683c99"/><polygon points="-68.397 177.439 11.729 177.919 9.186 182.186 -23.522 182.186 -14.636 247.432 -18.023 247.432 -26.495 182.186 -65.15 182.186 -78.444 247.432 -81.872 247.432 -68.397 177.439" fill="#683c99"/><path d="M-27.3,93.143c8.028-.31,21.692,0,27.316,0s8.436.47,9.038,5.645c1.535,13.184,5.825,59.276,6.628,69.861.427,5.623-2.812,9.879-11.649,10.564h-78.9c0-.685,0-8.917,8.838-8.92h25.871s4.452-57.388,5.022-65.389C-34.534,96.436-32.572,93.346-27.3,93.143Z" fill="#552786"/></g><g clip-path="url(#c)"><polygon points="2500 250 -2.23 249.812 -2.23 -1.184 2500 0 2500 250" fill="#5c2d91"/><polyline points="969.298 406.943 66.765 405.544 1008.765 5.146 1327.707 5.791" fill="#7750b3" opacity="0.36"/><polygon points="310.636 403.985 659 -2.841 513.208 -2.841 -97 403.386 189.417 403.81 310.636 403.985" fill="#8b6acc"/><polygon points="1026.474 -2.841 66.512 405.876 -0.583 403.81 -0.583 -1.952 1026.474 -2.841" fill="#5c2d91" opacity="0.8"/><polygon points="1447.633 -3.984 1107.308 -3.984 1268.35 307.951 1447.633 -3.984" fill="#7047aa" opacity="0.44"/><line x1="3120.432" y1="224.884" x2="1670.432" y2="224.884" fill="none"/><line x1="3120.432" y1="111.396" x2="1670.432" y2="111.396" fill="none"/><line x1="2432.144" y1="336.481" x2="2432.144" y2="-3.254" fill="none"/><line x1="2254.552" y1="336.481" x2="2254.552" y2="-3.254" fill="none"/><line x1="2076.961" y1="336.481" x2="2076.961" y2="-3.254" fill="none"/><line x1="1899.369" y1="336.481" x2="1899.369" y2="-3.254" fill="none"/><line x1="1721.777" y1="336.481" x2="1721.777" y2="-3.254" fill="none"/><polygon points="1156.589 403.81 293.153 -1.952 91.883 -2.681 443.683 403.985 1156.589 403.81" fill="#5c2d91"/><polygon points="669 409.363 188.354 -2.841 -0.583 -1.952 -0.583 153.724 547.601 409.249 669 409.363" fill="#7047aa" opacity="0.44"/><polyline points="2035.899 406.943 2938.432 405.544 1996.432 5.146 1677.49 5.791" fill="#7047aa" opacity="0.7"/><polygon points="1672.608 403.81 2536.044 -1.952 2737.315 -2.681 2385.514 403.985 1672.608 403.81" fill="#5c2d91" opacity="0.7"/><polygon points="1976.723 -2.841 2936.685 405.876 3003.78 403.81 3003.78 -1.952 1976.723 -2.841" fill="#5c2d91"/><polygon points="1671.564 -3.984 2011.889 -3.984 1867 307.951 1319 307.951 1671.564 -3.984" fill="#633699" opacity="0.6"/></g><g clip-path="url(#d)"><g opacity="0.25"><polyline points="2647.34 -16.875 2645.34 139.125 2570.34 267.125 2499.34 273.125" fill="none" stroke="#80def8" stroke-miterlimit="10"/></g></g></svg>