<svg xmlns="http://www.w3.org/2000/svg" xmlns:xlink="http://www.w3.org/1999/xlink" viewBox="0 0 2500 250"><defs><clipPath id="a"><rect width="2500" height="250" fill="none"/></clipPath><clipPath id="b"><path d="M986.532,107.407s-11.21,14.021-18.8,22.968c-8.774-1.688-7.916-14.172-7.916-14.172l11.572-16.714Z" fill="none"/></clipPath><clipPath id="c"><rect x="2519.876" y="-0.125" width="2500" height="250" fill="none"/></clipPath></defs><title>banner-people-purple</title><g clip-path="url(#a)"><rect width="2500" height="250" fill="#5c2d91"/><polygon points="1590.039 177.726 1670.031 178.206 1679.35 247.602 1675.848 247.602 1667.064 182.186 1634.84 181.838 1643.671 247.602 1640.298 247.602 1631.513 182.186 1592.804 181.768 1580.13 247.602 1576.587 247.602 1590.039 177.726" fill="#683c99"/><path d="M1643.779,93.694c8.072-.31,21.692,0,27.316,0s8.37.47,8.245,5.645c-.318,13.185-2.506,59.276-3.19,69.861-.364,5.624-4.2,9.88-13.038,10.013h-78.9a10.514,10.514,0,0,1,10-8.92h25.871c0,.554,12.518-56.837,14.212-64.838C1636.085,96.987,1638.481,93.9,1643.779,93.694Z" fill="#552786"/><path d="M1664.236,92.11c-18.664,5.762-31.191-19.04-31.191-19.04V57.036l24.032-.751.256,1.753C1657.333,77.078,1657.333,85.6,1664.236,92.11Z" fill="#552786" fill-rule="evenodd"/><path d="M1582.453,247.929V236.587h-12.209a16.154,16.154,0,0,0-15.2,11.342Z" fill="#552786" fill-rule="evenodd"/><path d="M1570.444,236.587c-6.4,0-10.665,3.025-13.667,7.562h17.42a8.4,8.4,0,0,0,8.256-7.562Z" fill="#683c99" fill-rule="evenodd"/><path d="M1605.775,155.745V156H1588.66c-10.474,0-18.9,10.612-19.159,20.719h0v1.01c0,49.963.112,57.827.131,58.8a.119.119,0,0,0,.122.121c3.743-.022,11.552,0,12.548,0a.119.119,0,0,0,.115-.117c4.057-50.06,4.2-61.644,4.2-62.916a.122.122,0,0,1,.123-.125c11.144,0,29.262.25,29.262.25,10.938,0,19.587-7.069,19.661-17.855a.14.14,0,0,0-.137-.139Z" fill="#552786" fill-rule="evenodd"/><path d="M1624.487,156.634v.256h-14.816c-10.474,0-18.9,10.743-19.159,20.975h0v58.961c5.781.045,13.172.045,13.172.045,3.283-41.767,3.856-56.5,3.94-61.2a2,2,0,0,1,2.022-1.973c6.6.058,27.144.238,27.358.238,10.985,0,19.67-6.3,19.67-17.3Z" fill="#552786" fill-rule="evenodd"/><path d="M1603.745,247.929V236.587h-12.071a16.283,16.283,0,0,0-15.339,11.342Z" fill="#552786" fill-rule="evenodd"/><path d="M1591.29,236.587a16.458,16.458,0,0,0-14.01,7.562h17.9a8.6,8.6,0,0,0,8.563-7.562Z" fill="#683c99" fill-rule="evenodd"/><path d="M1647.432,86.71v-15.3h-15.04l-.259,15.048a1.948,1.948,0,0,1-1.815,1.275h-3.889v31.881h29.3V87.73h-7.26A1.106,1.106,0,0,1,1647.432,86.71Z" fill="#683c99" fill-rule="evenodd"/><path d="M1648.11,89.188c-.259.765-13.125,7.562-17.792-1.458h-3.889v31.881h29.3V87.73h-7.26C1647.95,87.73,1648.11,89.188,1648.11,89.188Z" fill="#5c2d91" fill-rule="evenodd"/><rect x="1614.141" y="151.747" width="42.533" height="7.561" fill="#5c005c"/><path d="M1612.96,156.237s18.382,21.739,44.423,21.739V156.237Z" fill="#683c99" fill-rule="evenodd"/><path d="M1654.772,87.712h-6.636c-5.36,9.36-11.741,18.417-20.164,24.489-1.531-7.59-.766-16.141.766-24.489h-1.276c-9.444,0-17.1,8.3-17.1,17.405v11.638h3.318v39.718h43.732V116.755h13.441v-12.65C1670.6,95.5,1663.45,87.712,1654.772,87.712Z" fill="#683c99" fill-rule="evenodd"/><path d="M1614.141,116.776v39.7h18.9Z" fill="#552786" fill-rule="evenodd"/><path d="M1670.852,115.93H1657.2v8.452a1.654,1.654,0,0,1-1.264,1.529c-5.275,1.833-27.279,8.384-27.279,8.384-18.456,0-19.24,10.482-19.24,10.482,9.245-.151,20.416-3.091,20.416-3.091,13.27-.84,34.446-3.792,34.446-3.792a7.748,7.748,0,0,0,6.574-7.9Z" fill="#5c2d91" fill-rule="evenodd"/><polygon points="1670.852 119.828 1670.852 116.048 1657.619 116.048 1670.852 119.828" fill="#552786" fill-rule="evenodd"/><ellipse cx="1625.956" cy="63.846" rx="5.198" ry="4.726" fill="#683c99"/><circle cx="1622.175" cy="67.154" r="1.418" fill="#552786"/><ellipse cx="1653.366" cy="63.846" rx="5.198" ry="4.726" fill="#683c99"/><circle cx="1657.147" cy="67.154" r="1.418" fill="#552786"/><path d="M1654.784,50.988a18.739,18.739,0,0,0-14.774-6.741c-13.246,0-21.143,14.231-15.793,25.965a21.686,21.686,0,0,0,6.368,9.238,11.467,11.467,0,0,0,3.566,2.5c4.33,1.748,8.151.5,11.717-1.5a55.792,55.792,0,0,0,4.585-3.5,9.16,9.16,0,0,0,3.567-7.241Z" fill="#683c99" fill-rule="evenodd"/><path d="M1640.043,38.326c-9.934,0-18.085,8.749-18.34,19.884,2.292,1.06,3.311,1.59,5.859,1.59,8.151,0,15.028-5.832,17.576-14.051,1.783,5.3,3.821,11.135,10.189,13.786.764.53,1.528-1.856,2.292-1.591C1657.11,47.075,1650.232,38.326,1640.043,38.326Z" fill="#552786" fill-rule="evenodd"/><path d="M1635.88,69.517V61.956c-.708,0-1.181.708-1.417,1.417l-.473,6.144Z" fill="#5c2d91" fill-rule="evenodd"/><path d="M1633.99,69.517a3.188,3.188,0,0,0,2.836,1.89,2.953,2.953,0,0,0,2.835-1.89Z" fill="#5c2d91" fill-rule="evenodd"/><path d="M1637.812,72.353a1.077,1.077,0,0,0-.986,1.017c-.247-.509-.74-1.017-.987-1.017a11.172,11.172,0,0,0-4.684,1.017c.739,3.308,2.958,5.6,5.671,5.6s4.931-2.291,5.671-5.6A11.18,11.18,0,0,0,1637.812,72.353Z" fill="#5c2d91" fill-rule="evenodd"/><path d="M1631.155,74.243a6.143,6.143,0,0,0,11.342,0Z" fill="#552786" fill-rule="evenodd"/><path d="M1631.155,74.243c.739,1.654,2.958,2.835,5.671,2.835s4.931-1.181,5.671-2.835Z" fill="#683c99" fill-rule="evenodd"/><circle cx="1629.737" cy="62.428" r="1.418" fill="#552786"/><circle cx="1643.914" cy="62.428" r="1.418" fill="#552786"/><path d="M1629.155,100.417h-50.463a1.207,1.207,0,0,0-1.294,1.554l6.211,38.587h53.309l-6.211-39.1A1.419,1.419,0,0,0,1629.155,100.417Z" fill="#552786" fill-rule="evenodd"/><path d="M1636.778,143.532h15.929a.485.485,0,0,0,.425-.473v-1.418a.484.484,0,0,0-.425-.472l-15.929-.473Z" fill="#552786" fill-rule="evenodd"/><path d="M1636.587,142.888h-51.645a1.167,1.167,0,0,1-1.284-1.181v-1.654h52.929Z" fill="#683c99" fill-rule="evenodd"/><polygon points="1497.428 237.849 1497.428 229.09 1483.586 231.793 1480.342 241.742 1497.428 237.849" fill="#5c2d91"/><path d="M1342.268,93.143c-8.071-.31-21.692,0-27.316,0s-8.369.47-8.245,5.645c.318,13.184,2.506,59.276,3.191,69.861.363,5.623,4.2,9.879,13.038,9.879h78.9s-1.157-8.232-9.994-8.232h-25.872s-12.518-57.391-14.211-65.392C1349.962,96.436,1347.566,93.346,1342.268,93.143Z" fill="#552786"/><polygon points="1380.988 118.962 1385.859 142.479 1369.733 142.814 1373.261 121.818 1380.988 118.962" fill="#683c99"/><path d="M1368.939,123.19a128.571,128.571,0,0,0,14.9-2.716c-1.82-9.588-4.969-25.263-5.422-27.161-2.55-10.678-13.718-3.92-12.431,2.869C1366.74,100.136,1367.967,112.86,1368.939,123.19Z" fill="#552786"/><polygon points="1406.516 177.726 1316.41 178.195 1305.913 246.115 1309.937 246.115 1319.818 182.186 1356.063 181.846 1346.13 246.115 1349.923 246.115 1359.804 182.186 1403.343 181.777 1417.598 246.115 1421.67 246.115 1406.516 177.726" fill="#683c99"/><polygon points="1391.41 234.62 1392.297 226.059 1405.551 230.104 1407.713 240.156 1391.41 234.62" fill="#5c2d91"/><path d="M1391.169,233.847a69.892,69.892,0,0,0,8.44,2.05c2.536.263,3.7-5.686,8.076-2.687s3.9,4.525,14.142,9.9c3.545,1.863-1.106,4.479-1.106,4.479l-30.753-3.189Z" fill="#552786"/><polygon points="1375.552 237.173 1375.552 228.567 1389.152 231.223 1392.34 240.998 1375.552 237.173" fill="#5c2d91"/><path d="M1393.508,156.531h9.563c4.887,0,14.91,1.664,13.919,13.943-1.456,18.029-9,60.919-9,60.919l-16.753-2.576s5.356-50.824,3.656-52.312-13.281-2.974-13.281-2.974l2.018-17Z" fill="#683c99"/><path d="M1311.975,169.408c.918-10.5,5.818-56.25,7.571-69.335.689-5.136,3.9-5.6,10.325-5.6h9.564s-.637,56.6-.637,64.89c0,7.163,3.336,10.195,8.358,10.886a9.659,9.659,0,0,0,1.894.047s43.482.14,53.5.14,10.014,8.78,10.014,8.78h-92.136C1313.355,179.213,1311.488,174.989,1311.975,169.408Z" fill="#552786"/><path d="M1349.8,81.85c-7.635-.533-11.541-8.7-11.541-8.7a40.617,40.617,0,0,1-3.2-15.269l1.065-11.008,14.028-6.925,14.915,10.831.177,7.1a39.934,39.934,0,0,1-3.2,15.269s-4.261,9.055-12.252,8.7Z" fill="#683c99"/><path d="M1335.91,58.236a1.7,1.7,0,0,0-1.647-.888s-1.647.177-1.1,2.841l.366,1.243.366,1.42.549,1.243.366.888a7.13,7.13,0,0,1,.366,1.6,1.117,1.117,0,0,0,.915,1.243h1.1a78.909,78.909,0,0,1,.183-8.877Z" fill="#683c99"/><path d="M1320.943,87.063c4.885-.974,24.325-4.972,24.325-4.972l9.008.226c2.311.558,4.27.954,19.525,5.2a7.006,7.006,0,0,1,4.493,6.466c.178,3.906-7.291,61.948-7.291,61.948l-48.963-.675-.082-38.724-1.044-22.262S1316.057,88.037,1320.943,87.063Z" fill="#552786"/><path d="M1315.438,91.857l.015,0a7.172,7.172,0,0,1,6.2-4.8c3.906-.355,7.327,7.491,5.944,15.868-1.527,4.432-7.042,20.332-8.462,25.125-6.445-.825-14.662-1.168-14.662-1.168C1306.071,121.561,1314.018,96.118,1315.438,91.857Z" fill="#552786"/><path d="M1350.159,89.9c-4.617,0-8.346-2.43-8.346-6.378V78.363H1358.5v5.162c0,3.948-3.729,6.378-8.345,6.378Z" fill="#683c99"/><path d="M1365.074,50.068V57.7h-1.421V53.8c-6.925,3.728-16.335-8.024-23.793-3.408.533,7.635-2.841,8.379-2.841,8.379h-1.775l-.178-8.7v-.355c.178-7.634,6.392-11.718,13.85-11.718h2.486c7.457,0,13.494,4.084,13.672,11.718v.355Z" fill="#552786"/><path d="M1356.187,68.356c0,.533-.355.888-1.065.888-.178,0-.178.355-.533.532a1.919,1.919,0,0,1-1.243.533,1.612,1.612,0,0,1-1.243-.533c-.355-.177-.533-.532-.71-.532a.839.839,0,0,1-.888-.888h5.682Z" fill="#552786"/><path d="M1353.346,60.544v7.812h-2.841c0-.355,0-.533.355-.71a4.61,4.61,0,0,0,1.066-2.486V61.787c0-.888,1.065-1.243,1.42-1.243Z" fill="#552786"/><path d="M1359.561,72.8a27.785,27.785,0,0,1-12.7,0s2.867,3.018,6.348,3.018S1359.561,72.8,1359.561,72.8Z" fill="#552786"/><path d="M1326.917,133.172l16.917,1.438,8.069-4.154s6.888.773,8.77,1.448a69.935,69.935,0,0,1,7.1,3.833s1.106,3.15-5.532,2c-1.687-.293-2.074,1.255-3.669,1.726s-2.989,1.508-7.626,2.306a32.754,32.754,0,0,1-10.349-.4l-15.286-1.05Z" fill="#683c99"/><path d="M1321.9,154.618v6.163c0,3.187-1.062,10.2,10.838,10.2h34.636l7.225,60.136h17.425l-4.038-75.011Z" fill="#683c99"/><path d="M1375.234,236.429a69.838,69.838,0,0,0,8.606,1.169c2.55,0,4.422-5.846,7.756-3.506s4.349,4.1,15.087,8.393c3.719,1.488-.637,4.569-.637,4.569h-30.919Z" fill="#552786"/><path d="M1552.037,153.826V160.1c0,3.244,1.081,10.382-11.03,10.382h-35.253l-7.806,64.117h-17.735l4.563-79.257Z" fill="#552786"/><path d="M1293.327,146.38v101h4.166s8.333-73.12,9.583-79.786,4.166-9.374,13.54-9.374h270.843c9.374,0,12.29,2.708,13.54,9.374s9.853,79.7,9.853,79.7h4.166l-.27-100.914Z" fill="#552786"/><rect x="1233.878" y="142.045" width="453.448" height="5.947" fill="#552786"/><path d="M1479.7,142.045l-48.964.084c-1.19,0-4.312-2.282-4.312-2.282l-5.885-41.658a1.828,1.828,0,0,1,1.851-2.154h52.022a2.564,2.564,0,0,1,2.457,2.154l5.939,42.078C1482.975,141.456,1480.89,142.045,1479.7,142.045Z" fill="#552786"/><path d="M1478.971,137.585h-49.24a1.459,1.459,0,0,1-1.4-1.217l-5.3-37.708a1.041,1.041,0,0,1,1.058-1.217h49.227a1.474,1.474,0,0,1,1.414,1.229l5.3,37.7A1.041,1.041,0,0,1,1478.971,137.585Z" fill="#683c99"/><polygon points="1472.463 109.337 1428.099 109.337 1426.815 100.417 1471.179 100.417 1472.463 109.337" fill="#5c2d91"/><path d="M1514.616,69.592l1.364,12.489-15.35,5.986-1.862-17.044C1501.717,67.362,1513.224,65.347,1514.616,69.592Z" fill="#683c99"/><path d="M1507.873,35.519c-7.84-.742-17.108,2.021-18.666,5.058s-1.285,22.526,2.992,30.092,16.225,4.095,21.387,3.32c6.937-1.042,8.785-7.664,9.709-13.362s.622-14-1.783-17.647S1514.823,36.176,1507.873,35.519Z" fill="#683c99" fill-rule="evenodd"/><path d="M1523.3,60.627c.923-5.7.622-14-1.783-17.647s-6.689-6.8-13.639-7.461c-7.84-.742-17.108,2.021-18.666,5.058-.454.887-.751,3.178-.84,6.16a11.018,11.018,0,0,1,4.068.752c2.735,1.207,2.988,3.219,4.552,5.662s3.427,2.252,3.427,2.252l-.354-2.772s6.08-.984,6.811,3.606c.588,3.692-3.444,4.817-3.444,4.817s.5,2.759,1.041,7.565c.3,2.606,4.357,5.378,8.642,5.449.158-.026.329-.057.476-.079C1520.523,72.947,1522.371,66.325,1523.3,60.627Z" fill="#552786" fill-rule="evenodd"/><polygon points="1466.284 237.849 1466.284 229.09 1452.443 231.793 1449.199 241.742 1466.284 237.849" fill="#5c2d91"/><path d="M1466.483,236.714a71.078,71.078,0,0,1-8.759,1.19c-2.6,0-4.326-3.569-4.326-3.569h-3.568s-4.427,4.171-15.356,8.543c-3.785,1.514.649,4.65.649,4.65h31.468Z" fill="#552786"/><path d="M1479.153,157.611h-9.733c-4.974,0-10.83,1.149-12.327,13.3-2.055,16.675-7.539,63.852-7.539,63.852h17.735s8.728-55.831,10.458-57.309,32.076-2.954,32.076-2.954l-2.054-16.886Z" fill="#552786"/><path d="M1551.216,125.6a5.949,5.949,0,0,0-7.663-4.187c-.177-.038-.177-.038-.392.1,0,0-32.993,9.941-33.733,10.122l2.989,9.944c.528-.088,34.773-7.917,34.773-7.917C1550.574,132.549,1552.118,129.126,1551.216,125.6Z" fill="#451e7c"/><path d="M1551.216,125.6a5.949,5.949,0,0,0-7.663-4.187c-.177-.038-.177-.038-.392.1,0,0-32.993,9.941-33.733,10.122l2.989,9.944c.528-.088,34.773-7.917,34.773-7.917C1550.574,132.549,1552.118,129.126,1551.216,125.6Z" fill="#025b56"/><path d="M1492.567,140.55a1.5,1.5,0,0,1-1.5,1.495h-62.756c-1.068,0-1.726-.952-1.95-2.052l-.168-.922h66.369Z" fill="#552786"/><path d="M1497.626,236.714a71.078,71.078,0,0,1-8.759,1.19c-2.6,0-4.325-3.569-4.325-3.569h-3.569s-4.426,4.171-15.355,8.543c-3.785,1.514.648,4.65.648,4.65h31.468Z" fill="#552786"/><path d="M1519.093,80.256c-7.743-1.369-22.971,1.479-22.971,1.479s3.365-5.124,11.569-5.812S1517,77.71,1519.093,80.256Z" fill="#552786"/><path d="M1479.046,92.909a7.951,7.951,0,0,1,4.574-6.982c6.942-2.911,17.356-5.5,19.708-6.271a41.252,41.252,0,0,1,12.375-.5s17.736,3.875,20.056,4.758a7.122,7.122,0,0,1,4.583,4.2s9.247,27.814,10.874,33.093l-45.424,46.7-17.469-4.928S1478.866,96.9,1479.046,92.909Z" fill="#683c99"/><polygon points="1471.479 177.439 1551.606 177.919 1560.94 247.432 1557.553 247.432 1549.062 182.186 1516.354 182.186 1525.24 247.432 1521.853 247.432 1513.381 182.186 1474.726 182.186 1461.432 247.432 1458.004 247.432 1471.479 177.439" fill="#683c99"/><path d="M1512.573,93.143c8.028-.31,21.692,0,27.316,0s8.436.47,9.038,5.645c1.536,13.184,5.825,59.276,6.628,69.861.427,5.623-2.811,9.879-11.649,10.564h-78.9c0-.685,0-8.917,8.838-8.92h25.872s4.452-57.388,5.021-65.389C1505.342,96.436,1507.3,93.346,1512.573,93.143Z" fill="#552786"/><path d="M1410.7,139.791l6.272-44.63a1.564,1.564,0,0,0-1.584-1.843h-25.832a2.192,2.192,0,0,0-2.1,1.843l-6.272,44.63Z" fill="#552786"/><path d="M1389.693,96.281a2.192,2.192,0,0,1,2.1-1.843h25.13a1.551,1.551,0,0,0-1.538-1.12h-25.832a2.192,2.192,0,0,0-2.1,1.843l-6.272,44.63h2.4Z" fill="#683c99"/><path d="M1348.355,139.071H1410.8a0,0,0,0,1,0,0v1.408a1.566,1.566,0,0,1-1.566,1.566H1350.38a2.025,2.025,0,0,1-2.025-2.025v-.949A0,0,0,0,1,1348.355,139.071Z" fill="#5c2d91"/><path d="M1342.548,58.413s6.392-1.243,7.635,0Z" fill="#505050"/><path d="M1362.079,58.413s-6.392-1.243-7.635,0Z" fill="#505050"/><path d="M1346.454,61.077a.858.858,0,0,1,0-1.243,1.073,1.073,0,0,1,1.421,0,.858.858,0,0,1,0,1.243c-.533.532-1.066.532-1.421,0Z" fill="#552786"/><path d="M1357.463,61.254a1.08,1.08,0,0,1,0-1.42.857.857,0,0,1,1.243,0,.831.831,0,0,1,0,1.42.859.859,0,0,1-1.243,0Z" fill="#552786"/><polygon points="1468.342 133.296 1474.997 133.296 1471.749 110.675 1464.996 110.675 1468.342 133.296" fill="#5c2d91"/><polygon points="1465.946 133.296 1462.762 110.675 1439.253 110.675 1442.599 133.296 1465.946 133.296" fill="#5c2d91"/><polygon points="1437.023 110.675 1429.535 110.675 1432.782 133.296 1440.207 133.296 1437.023 110.675" fill="#5c2d91"/><path d="M1464.1,133.549l-6.7.5-7.479-4.056a66.842,66.842,0,0,0-8.25,1.181,65.553,65.553,0,0,0-6.732,3.45s-1.1,2.929,5.145,1.985c1.587-.24,1.919,1.218,3.4,1.692a32.233,32.233,0,0,0,7.1,2.316,37.655,37.655,0,0,0,10.17.037l4.87-.4Z" fill="#683c99"/><path d="M1491.906,102.949c.448-11.422-11.439-21.653-13.161-10.39-.457,2.987-5.843,34.477-5.843,34.477l-16.371,6.591,1.544,9.112c-.48.134,16.144-1.978,21.286-4.055,3.137-1.266,6.572-5.222,6.961-8.563C1486.564,128.048,1491.626,110.088,1491.906,102.949Z" fill="#552786"/><path d="M1260.205,140.558h49.461a1.119,1.119,0,0,0,1.107-.954l5.657-39.39a1.119,1.119,0,0,0-1.106-1.284h-49.462a1.12,1.12,0,0,0-1.107.954l-5.657,39.39A1.119,1.119,0,0,0,1260.205,140.558Z" fill="#552786"/><path d="M1262.205,137.678h45.452a.456.456,0,0,0,.451-.389l5.328-34.77a.457.457,0,0,0-.451-.524h-45.452a.458.458,0,0,0-.452.389l-5.328,34.77A.457.457,0,0,0,1262.205,137.678Z" fill="#5c2d91"/><polygon points="1228.667 92.323 1242.757 95.325 1247.625 77.752 1233.534 74.749 1228.667 92.323" fill="#683c99"/><path d="M1243.24,139.071h66.092a1.491,1.491,0,0,1,1.491,1.491v1.482a0,0,0,0,1,0,0h-69.512a0,0,0,0,1,0,0V141A1.928,1.928,0,0,1,1243.24,139.071Z" transform="translate(2552.136 281.116) rotate(-180)" fill="#552786"/><path d="M1241.657,64.546a4.021,4.021,0,1,0-2.141,7.728l2.141-7.728" fill="#a88763"/><path d="M1280.432,238.035l-8.779-6.255h-10.286l-.751,8.585s5.449,3.557,10.556,3.189S1280.432,238.035,1280.432,238.035Z" fill="#683c99"/><path d="M1259.867,247.356h26.607s1.756-2.821.007-4.783c-.839-.941-6.818-5.151-6.818-5.151a11.942,11.942,0,0,0-7.059.736c-1.744.723-4.994,2.207-4.994,2.207l-6.863-3.066Z" fill="#552786"/><path d="M1239.436,238.194l-6.718-8.43-9.889-2.832-3.085,8.047s4.259,4.919,9.27,5.971S1239.436,238.194,1239.436,238.194Z" fill="#683c99"/><path d="M1217.1,241.494l25.579,7.324s2.464-2.228,1.323-4.6c-.547-1.136-5.137-6.829-5.137-6.829a11.942,11.942,0,0,0-6.988-1.236c-1.876.215-5.409.748-5.409.748l-5.754-4.838Z" fill="#552786"/><path d="M1209.511,144.774s-5.556-20.888-7.313-40.222c-1.076-11.83,7.672-16.082,13.9-16.457,6.739-.406,11.084-1,14.7-1.047l4.365.109A130.873,130.873,0,0,1,1253.47,92c5.808,2.017,8.812,5.809,5.082,14.761-4.3,10.324-19.789,38.033-19.789,38.033Z" fill="#683c99" fill-rule="evenodd"/><path d="M1248.461,157.214c-10.5-.778-37.9-2.316-37.9-2.316a12.338,12.338,0,0,0-1.053,5.054c0,5.327,1.895,12.846,8.213,12.846h19.268c1.474,0,3.283.94,2.012,4.955-5.6,17.693-13.438,38.97-18.546,52.632l18.1,5.151c8.511-18.141,21.053-48.376,25.756-60.918C1266.845,167.841,1259.833,158.057,1248.461,157.214Z" fill="#552786"/><path d="M1238.248,172.8h22.743c1.474,0,2.948.421,2.948,4.632,0,3.419-2.358,42.632-3.247,57.28h15.932c1.647-16.249,5.761-56.612,6.479-61.491,1.052-7.16-2.738-15.162-14.11-16-10.5-.778-37.9-2.316-37.9-2.316a12.338,12.338,0,0,0-1.053,5.054C1230.035,165.279,1231.93,172.8,1238.248,172.8Z" fill="#552786"/><path d="M1265.542,134.4s9.572.318,11.293.424,11.4,5.409,12.69,5.833,1.4,2.015-.86,2.015-24.2-.106-24.2-.106Z" fill="#683c99"/><path d="M1258.122,57.77c.752,1.4-.215,8.926-.431,9.572s-1.6,3.879-1.6,3.879a10.132,10.132,0,0,1-.655,5.047c-1.075,2.689-4.3,9.679-5.162,10.539s-5.593,0-7.959-1.935-10.969-9.464-10.969-9.464l8.818-22.37Z" fill="#683c99"/><polygon points="1255.978 104.83 1255.648 121.598 1243.878 153.265 1243.603 172.049 1222.276 172.049 1223.214 141.526 1255.978 104.83" fill="#683c99"/><polygon points="1266.192 178.752 1175.896 176.983 1164.992 247.59 1168.823 247.59 1178.803 182.983 1215.408 182.639 1205.376 247.59 1209.208 247.59 1219.187 182.983 1263.16 182.57 1277.557 247.59 1281.435 247.59 1266.192 178.752" fill="#683c99"/><path d="M1219.708,95.957h-30.953c-6.308,0-9.461.458-10.137,5.5-1.722,12.856-6.532,57.8-7.433,68.119-.479,5.483,3.153,9.633,13.064,9.633h88.442s0-7.434-9.178-7.434h-29.275s-5.032-56.4-5.676-64.264C1227.881,99.193,1225.611,95.957,1219.708,95.957Z" fill="#552786"/><polygon points="1277.527 113.797 1267.857 113.797 1264.761 134.611 1264.762 134.612 1274.277 134.612 1277.527 113.797" fill="#683c99"/><polygon points="1280.491 113.797 1277.221 134.611 1305.986 134.611 1309.074 113.797 1280.491 113.797" fill="#683c99"/><path d="M1253.388,48.285c-.021-.013-.037-.027-.058-.04s-.06-.028-.088-.045c-.225-.123-.457-.239-.692-.354-8.04-4.179-20.642-.811-26.145,6.836-8.036-2.54-19.276-.308-18.764,10.193.672,13.774-5.879,21-5.879,21s13.5,8.047,15.621-8.4c1.258-9.747.9-18.608,6.631-17.914-4.252,13.513,7.16,24.51,7.16,24.51s9.447-.215,10.163-6.244l.077-.025s0-1.463,1.624-8.092c.885-3.608,3.334-3.442,3.98-2.9s-.861,5.162-.861,5.162a8.81,8.81,0,0,0,1.183-.43c.43-.215,2.259-3.979,3.979-4.947s5.82-1.755,7.8-4.6a16.783,16.783,0,0,0,2.313-4.651A20.13,20.13,0,0,0,1253.388,48.285Z" fill="#552786"/><path d="M1248.443,95.264c-10.185,17.847-13.335,28.279-15.128,33.846-1.827,5.67-2.948,13.7,6.739,13.7h29.158l-.22-9.551-20.55-2.155s8.389-19.513,11.495-28.162C1263.084,94.181,1252.081,88.889,1248.443,95.264Z" fill="#552786"/><polygon points="1269.803 104.877 1268.919 110.824 1308.977 110.824 1309.861 104.877 1269.803 104.877" fill="#683c99"/><polygon points="2477.428 237.724 2477.428 228.965 2463.586 231.668 2460.342 241.617 2477.428 237.724" fill="#5c2d91"/><path d="M2322.268,93.018c-8.071-.31-21.692,0-27.316,0s-8.369.47-8.245,5.645c.318,13.184,2.506,59.276,3.191,69.861.363,5.623,4.2,9.879,13.038,9.879h78.9s-1.157-8.232-9.994-8.232h-25.872s-12.518-57.391-14.211-65.392C2329.962,96.311,2327.566,93.221,2322.268,93.018Z" fill="#552786"/><polygon points="2360.988 118.837 2365.859 142.354 2349.733 142.689 2353.261 121.693 2360.988 118.837" fill="#683c99"/><path d="M2348.939,123.065a128.571,128.571,0,0,0,14.9-2.716c-1.82-9.588-4.969-25.263-5.422-27.161-2.55-10.678-13.718-3.92-12.431,2.869C2346.74,100.011,2347.967,112.735,2348.939,123.065Z" fill="#552786"/><polygon points="2386.516 177.601 2296.41 178.07 2285.913 245.99 2289.937 245.99 2299.818 182.061 2336.063 181.721 2326.13 245.99 2329.923 245.99 2339.804 182.061 2383.343 181.652 2397.598 245.99 2401.67 245.99 2386.516 177.601" fill="#683c99"/><polygon points="2371.41 234.495 2372.297 225.934 2385.551 229.979 2387.713 240.031 2371.41 234.495" fill="#5c2d91"/><path d="M2371.169,233.722a69.892,69.892,0,0,0,8.44,2.05c2.536.263,3.7-5.686,8.076-2.687s3.9,4.525,14.142,9.9c3.545,1.863-1.106,4.479-1.106,4.479l-30.753-3.189Z" fill="#552786"/><polygon points="2355.552 237.048 2355.552 228.442 2369.152 231.098 2372.34 240.873 2355.552 237.048" fill="#5c2d91"/><path d="M2373.508,156.406h9.563c4.887,0,14.91,1.664,13.919,13.943-1.456,18.029-9,60.919-9,60.919l-16.753-2.576s5.356-50.824,3.656-52.312-13.281-2.974-13.281-2.974l2.018-17Z" fill="#683c99"/><path d="M2291.975,169.283c.918-10.5,5.818-56.25,7.571-69.335.689-5.136,3.9-5.6,10.325-5.6h9.564s-.637,56.6-.637,64.89c0,7.163,3.336,10.195,8.358,10.886a9.659,9.659,0,0,0,1.894.047s43.482.14,53.5.14,10.014,8.78,10.014,8.78h-92.136C2293.355,179.088,2291.488,174.864,2291.975,169.283Z" fill="#552786"/><path d="M2329.8,81.725c-7.635-.533-11.541-8.7-11.541-8.7a40.617,40.617,0,0,1-3.2-15.269l1.065-11.008,14.028-6.925,14.915,10.831.177,7.1a39.934,39.934,0,0,1-3.2,15.269s-4.261,9.055-12.252,8.7Z" fill="#683c99"/><path d="M2315.91,58.111a1.7,1.7,0,0,0-1.647-.888s-1.647.177-1.1,2.841l.366,1.243.366,1.42.549,1.243.366.888a7.13,7.13,0,0,1,.366,1.6,1.117,1.117,0,0,0,.915,1.243h1.1a78.909,78.909,0,0,1,.183-8.877Z" fill="#683c99"/><path d="M2300.943,86.938c4.885-.974,24.325-4.972,24.325-4.972l9.008.226c2.311.558,4.27.954,19.525,5.2a7.006,7.006,0,0,1,4.493,6.466c.178,3.906-7.291,61.948-7.291,61.948l-48.963-.675-.082-38.724-1.044-22.262S2296.057,87.912,2300.943,86.938Z" fill="#552786"/><path d="M2295.438,91.732l.015,0a7.172,7.172,0,0,1,6.2-4.8c3.906-.355,7.327,7.491,5.944,15.868-1.527,4.432-7.042,20.332-8.462,25.125-6.445-.825-14.662-1.168-14.662-1.168C2286.071,121.436,2294.018,95.993,2295.438,91.732Z" fill="#552786"/><path d="M2330.159,89.778c-4.617,0-8.346-2.43-8.346-6.378V78.238H2338.5V83.4c0,3.948-3.729,6.378-8.345,6.378Z" fill="#683c99"/><path d="M2345.074,49.943v7.635h-1.421V53.672c-6.925,3.728-16.335-8.024-23.793-3.408.533,7.635-2.841,8.379-2.841,8.379h-1.775l-.178-8.7v-.355c.178-7.634,6.392-11.718,13.85-11.718h2.486c7.457,0,13.494,4.084,13.672,11.718v.355Z" fill="#552786"/><path d="M2336.187,68.231c0,.533-.355.888-1.065.888-.178,0-.178.355-.533.532a1.919,1.919,0,0,1-1.243.533,1.612,1.612,0,0,1-1.243-.533c-.355-.177-.533-.532-.71-.532a.839.839,0,0,1-.888-.888h5.682Z" fill="#552786"/><path d="M2333.346,60.419v7.812h-2.841c0-.355,0-.533.355-.71a4.61,4.61,0,0,0,1.066-2.486V61.662c0-.888,1.065-1.243,1.42-1.243Z" fill="#552786"/><path d="M2339.561,72.67a27.785,27.785,0,0,1-12.7,0s2.867,3.018,6.348,3.018S2339.561,72.67,2339.561,72.67Z" fill="#552786"/><path d="M2306.917,133.047l16.917,1.438,8.069-4.154s6.888.773,8.77,1.448a69.935,69.935,0,0,1,7.1,3.833s1.106,3.15-5.532,2c-1.687-.293-2.074,1.255-3.669,1.726s-2.989,1.508-7.626,2.306a32.754,32.754,0,0,1-10.349-.4l-15.286-1.05Z" fill="#683c99"/><path d="M2301.9,154.493v6.163c0,3.187-1.062,10.2,10.838,10.2h34.636l7.225,60.136h17.425l-4.038-75.011Z" fill="#683c99"/><path d="M2355.234,236.3a69.838,69.838,0,0,0,8.606,1.169c2.55,0,4.422-5.846,7.756-3.506s4.349,4.1,15.087,8.393c3.719,1.488-.637,4.569-.637,4.569h-30.919Z" fill="#552786"/><path d="M2532.037,153.7v6.272c0,3.244,1.081,10.382-11.03,10.382h-35.253l-7.806,64.117h-17.735l4.563-79.257Z" fill="#552786"/><path d="M2213.878,141.92h287.5a5.947,5.947,0,0,1,5.947,5.947v0a0,0,0,0,1,0,0H2213.878a0,0,0,0,1,0,0V141.92A0,0,0,0,1,2213.878,141.92Z" fill="#552786"/><path d="M2459.7,141.92l-48.964.084c-1.19,0-4.312-2.282-4.312-2.282l-5.885-41.658a1.828,1.828,0,0,1,1.851-2.154h52.022a2.564,2.564,0,0,1,2.457,2.154l5.939,42.078C2462.975,141.331,2460.89,141.92,2459.7,141.92Z" fill="#552786"/><path d="M2458.971,137.46h-49.24a1.459,1.459,0,0,1-1.4-1.217l-5.3-37.708a1.041,1.041,0,0,1,1.058-1.217h49.227a1.474,1.474,0,0,1,1.414,1.229l5.3,37.7A1.041,1.041,0,0,1,2458.971,137.46Z" fill="#683c99"/><polygon points="2452.463 109.212 2408.099 109.212 2406.815 100.292 2451.179 100.292 2452.463 109.212" fill="#5c2d91"/><path d="M2494.616,69.467l1.364,12.489-15.35,5.986L2478.768,70.9C2481.717,67.237,2493.224,65.222,2494.616,69.467Z" fill="#683c99"/><path d="M2487.873,35.394c-7.84-.742-17.108,2.021-18.666,5.058s-1.285,22.526,2.992,30.092,16.225,4.095,21.387,3.32c6.937-1.042,8.785-7.664,9.709-13.362s.622-14-1.783-17.647S2494.823,36.051,2487.873,35.394Z" fill="#683c99" fill-rule="evenodd"/><path d="M2503.3,60.5c.923-5.7.622-14-1.783-17.647s-6.689-6.8-13.639-7.461c-7.84-.742-17.108,2.021-18.666,5.058-.454.887-.751,3.178-.84,6.16a11.018,11.018,0,0,1,4.068.752c2.735,1.207,2.988,3.219,4.552,5.662s3.427,2.252,3.427,2.252l-.354-2.772s6.08-.984,6.811,3.606c.588,3.692-3.444,4.817-3.444,4.817s.5,2.759,1.041,7.565c.3,2.606,4.357,5.378,8.642,5.449.158-.026.329-.057.476-.079C2500.523,72.822,2502.371,66.2,2503.3,60.5Z" fill="#552786" fill-rule="evenodd"/><polygon points="2446.284 237.724 2446.284 228.965 2432.443 231.668 2429.199 241.617 2446.284 237.724" fill="#5c2d91"/><path d="M2446.483,236.589a71.078,71.078,0,0,1-8.759,1.19c-2.6,0-4.326-3.569-4.326-3.569h-3.568s-4.427,4.171-15.356,8.543c-3.785,1.514.649,4.65.649,4.65h31.468Z" fill="#552786"/><path d="M2459.153,157.486h-9.733c-4.974,0-10.83,1.149-12.327,13.3-2.055,16.675-7.539,63.852-7.539,63.852h17.735s8.728-55.831,10.458-57.309,32.076-2.954,32.076-2.954l-2.054-16.886Z" fill="#552786"/><path d="M2531.216,125.478a5.949,5.949,0,0,0-7.663-4.187c-.177-.038-.177-.038-.392.1,0,0-32.993,9.941-33.733,10.122l2.989,9.944c.528-.088,34.773-7.917,34.773-7.917C2530.574,132.424,2532.118,129,2531.216,125.478Z" fill="#451e7c"/><path d="M2531.216,125.478a5.949,5.949,0,0,0-7.663-4.187c-.177-.038-.177-.038-.392.1,0,0-32.993,9.941-33.733,10.122l2.989,9.944c.528-.088,34.773-7.917,34.773-7.917C2530.574,132.424,2532.118,129,2531.216,125.478Z" fill="#025b56"/><path d="M2472.567,140.425a1.5,1.5,0,0,1-1.495,1.495h-62.756c-1.068,0-1.726-.952-1.95-2.052l-.168-.922h66.369Z" fill="#552786"/><path d="M2477.626,236.589a71.078,71.078,0,0,1-8.759,1.19c-2.6,0-4.325-3.569-4.325-3.569h-3.569s-4.426,4.171-15.355,8.543c-3.785,1.514.648,4.65.648,4.65h31.468Z" fill="#552786"/><path d="M2499.093,80.131c-7.743-1.369-22.971,1.479-22.971,1.479s3.365-5.124,11.569-5.812S2497,77.585,2499.093,80.131Z" fill="#552786"/><path d="M2459.046,92.784a7.951,7.951,0,0,1,4.574-6.982c6.942-2.911,17.356-5.5,19.708-6.271a41.252,41.252,0,0,1,12.375-.5s17.736,3.875,20.056,4.758a7.122,7.122,0,0,1,4.583,4.2c.005,0,9.247,27.814,10.874,33.093l-45.424,46.7-17.469-4.928S2458.866,96.775,2459.046,92.784Z" fill="#683c99"/><polygon points="2451.479 177.314 2531.606 177.794 2529.062 182.061 2496.354 182.061 2505.24 247.307 2501.853 247.307 2493.381 182.061 2454.726 182.061 2441.432 247.307 2438.004 247.307 2451.479 177.314" fill="#683c99"/><path d="M2492.573,93.018c8.028-.31,21.692,0,27.316,0s8.436.47,9.038,5.645c1.536,13.184,5.825,59.276,6.628,69.861.427,5.623-2.811,9.879-11.649,10.564h-78.9c0-.685,0-8.917,8.838-8.92h25.872s4.452-57.388,5.021-65.389C2485.342,96.311,2487.3,93.221,2492.573,93.018Z" fill="#552786"/><path d="M2390.7,139.666l6.272-44.63a1.564,1.564,0,0,0-1.584-1.843h-25.832a2.192,2.192,0,0,0-2.1,1.843l-6.272,44.63Z" fill="#552786"/><path d="M2369.693,96.156a2.192,2.192,0,0,1,2.1-1.843h25.13a1.551,1.551,0,0,0-1.538-1.12h-25.832a2.192,2.192,0,0,0-2.1,1.843l-6.272,44.63h2.4Z" fill="#683c99"/><path d="M2328.355,138.946H2390.8a0,0,0,0,1,0,0v1.408a1.566,1.566,0,0,1-1.566,1.566H2330.38a2.025,2.025,0,0,1-2.025-2.025v-.949A0,0,0,0,1,2328.355,138.946Z" fill="#5c2d91"/><path d="M2322.548,58.288s6.392-1.243,7.635,0Z" fill="#505050"/><path d="M2342.079,58.288s-6.392-1.243-7.635,0Z" fill="#505050"/><path d="M2326.454,60.952a.858.858,0,0,1,0-1.243,1.073,1.073,0,0,1,1.421,0,.858.858,0,0,1,0,1.243c-.533.532-1.066.532-1.421,0Z" fill="#552786"/><path d="M2337.463,61.129a1.08,1.08,0,0,1,0-1.42.857.857,0,0,1,1.243,0,.831.831,0,0,1,0,1.42.859.859,0,0,1-1.243,0Z" fill="#552786"/><polygon points="2448.342 133.171 2454.997 133.171 2451.749 110.55 2444.996 110.55 2448.342 133.171" fill="#5c2d91"/><polygon points="2445.946 133.171 2442.762 110.55 2419.253 110.55 2422.599 133.171 2445.946 133.171" fill="#5c2d91"/><polygon points="2417.023 110.55 2409.535 110.55 2412.782 133.171 2420.207 133.171 2417.023 110.55" fill="#5c2d91"/><path d="M2444.1,133.424l-6.7.5-7.479-4.056a66.842,66.842,0,0,0-8.25,1.181,65.553,65.553,0,0,0-6.732,3.45s-1.1,2.929,5.145,1.985c1.587-.24,1.919,1.218,3.4,1.692a32.233,32.233,0,0,0,7.1,2.316,37.655,37.655,0,0,0,10.17.037l4.87-.4Z" fill="#683c99"/><path d="M2471.906,102.824c.448-11.422-11.439-21.653-13.161-10.39-.457,2.987-5.843,34.477-5.843,34.477l-16.371,6.591,1.544,9.112c-.48.134,16.144-1.978,21.286-4.055,3.137-1.266,6.572-5.222,6.961-8.563C2466.564,127.923,2471.626,109.963,2471.906,102.824Z" fill="#552786"/><path d="M2240.205,140.433h49.461a1.119,1.119,0,0,0,1.107-.954l5.657-39.39a1.119,1.119,0,0,0-1.106-1.284h-49.462a1.12,1.12,0,0,0-1.107.954l-5.657,39.39A1.119,1.119,0,0,0,2240.205,140.433Z" fill="#552786"/><path d="M2242.205,137.553h45.452a.456.456,0,0,0,.451-.389l5.328-34.77a.457.457,0,0,0-.451-.524h-45.452a.458.458,0,0,0-.452.389l-5.328,34.77A.457.457,0,0,0,2242.205,137.553Z" fill="#5c2d91"/><polygon points="2208.667 92.198 2222.757 95.2 2227.625 77.627 2213.534 74.624 2208.667 92.198" fill="#683c99"/><path d="M2223.24,138.946h66.092a1.491,1.491,0,0,1,1.491,1.491v1.482a0,0,0,0,1,0,0h-69.512a0,0,0,0,1,0,0v-1.045A1.928,1.928,0,0,1,2223.24,138.946Z" transform="translate(4512.136 280.866) rotate(-180)" fill="#552786"/><path d="M2221.657,64.421a4.021,4.021,0,1,0-2.141,7.728l2.141-7.728" fill="#a88763"/><path d="M2260.432,237.91l-8.779-6.255h-10.286l-.751,8.585s5.449,3.557,10.556,3.189S2260.432,237.91,2260.432,237.91Z" fill="#683c99"/><path d="M2239.867,247.231h26.607s1.756-2.821.007-4.783c-.839-.941-6.818-5.151-6.818-5.151a11.942,11.942,0,0,0-7.059.736c-1.744.723-4.994,2.207-4.994,2.207l-6.863-3.066Z" fill="#552786"/><path d="M2219.436,238.069l-6.718-8.43-9.889-2.832-3.085,8.047s4.259,4.919,9.27,5.971S2219.436,238.069,2219.436,238.069Z" fill="#683c99"/><path d="M2197.1,241.369l25.579,7.324s2.464-2.228,1.323-4.6c-.547-1.136-5.137-6.829-5.137-6.829a11.942,11.942,0,0,0-6.988-1.236c-1.876.215-5.409.748-5.409.748l-5.754-4.838Z" fill="#552786"/><path d="M2189.511,144.649s-5.556-20.888-7.313-40.222c-1.076-11.83,7.672-16.082,13.9-16.457,6.739-.406,11.084-1,14.7-1.047l4.365.109a130.873,130.873,0,0,1,18.309,4.839c5.808,2.017,8.812,5.809,5.082,14.761-4.3,10.324-19.789,38.033-19.789,38.033Z" fill="#683c99" fill-rule="evenodd"/><path d="M2228.461,157.089c-10.5-.778-37.9-2.316-37.9-2.316a12.338,12.338,0,0,0-1.053,5.054c0,5.327,1.895,12.846,8.213,12.846h19.268c1.474,0,3.283.94,2.012,4.955-5.6,17.693-13.438,38.97-18.546,52.632l18.1,5.151c8.511-18.141,21.053-48.376,25.756-60.918C2246.845,167.716,2239.833,157.932,2228.461,157.089Z" fill="#552786"/><path d="M2218.248,172.673h22.743c1.474,0,2.948.421,2.948,4.632,0,3.419-2.358,42.632-3.247,57.28h15.932c1.647-16.249,5.761-56.612,6.479-61.491,1.052-7.16-2.738-15.162-14.11-16-10.5-.778-37.9-2.316-37.9-2.316a12.338,12.338,0,0,0-1.053,5.054C2210.035,165.154,2211.93,172.673,2218.248,172.673Z" fill="#552786"/><path d="M2245.542,134.27s9.572.318,11.293.424,11.4,5.409,12.69,5.833,1.4,2.015-.86,2.015-24.2-.106-24.2-.106Z" fill="#683c99"/><path d="M2238.122,57.645c.752,1.4-.215,8.926-.431,9.572s-1.6,3.879-1.6,3.879a10.132,10.132,0,0,1-.655,5.047c-1.075,2.689-4.3,9.679-5.162,10.539s-5.593,0-7.959-1.935-10.969-9.464-10.969-9.464l8.818-22.37Z" fill="#683c99"/><polygon points="2235.978 104.705 2235.648 121.473 2223.878 153.14 2223.603 171.924 2202.276 171.924 2203.214 141.401 2235.978 104.705" fill="#683c99"/><polygon points="2246.192 178.627 2155.896 176.858 2144.992 247.465 2148.823 247.465 2158.803 182.858 2195.408 182.514 2185.376 247.465 2189.208 247.465 2199.187 182.858 2243.16 182.445 2257.557 247.465 2261.435 247.465 2246.192 178.627" fill="#683c99"/><path d="M2199.708,95.832h-30.953c-6.308,0-9.461.458-10.137,5.5-1.722,12.856-6.532,57.8-7.433,68.119-.479,5.483,3.153,9.633,13.064,9.633h88.442s0-7.434-9.178-7.434h-29.275s-5.032-56.4-5.676-64.264C2207.881,99.068,2205.611,95.832,2199.708,95.832Z" fill="#552786"/><polygon points="2257.527 113.672 2247.857 113.672 2244.761 134.486 2244.762 134.487 2254.277 134.487 2257.527 113.672" fill="#683c99"/><polygon points="2260.491 113.672 2257.221 134.486 2285.986 134.486 2289.074 113.672 2260.491 113.672" fill="#683c99"/><path d="M2233.388,48.16c-.021-.013-.037-.027-.058-.04s-.06-.028-.088-.045c-.225-.123-.457-.239-.692-.354-8.04-4.179-20.642-.811-26.145,6.836-8.036-2.54-19.276-.308-18.764,10.193.672,13.774-5.879,21-5.879,21s13.5,8.047,15.621-8.4c1.258-9.747.9-18.608,6.631-17.914-4.252,13.513,7.16,24.51,7.16,24.51s9.447-.215,10.163-6.244l.077-.025s0-1.463,1.624-8.092c.885-3.608,3.334-3.442,3.98-2.9s-.861,5.162-.861,5.162a8.81,8.81,0,0,0,1.183-.43c.43-.215,2.259-3.979,3.979-4.947s5.82-1.755,7.8-4.6a16.783,16.783,0,0,0,2.313-4.651A20.13,20.13,0,0,0,2233.388,48.16Z" fill="#552786"/><path d="M2228.443,95.139c-10.185,17.847-13.335,28.279-15.128,33.846-1.827,5.67-2.948,13.7,6.739,13.7h29.158l-.22-9.551-20.55-2.155s8.389-19.513,11.495-28.162C2243.084,94.056,2232.081,88.764,2228.443,95.139Z" fill="#552786"/><polygon points="2249.803 104.752 2248.919 110.699 2288.977 110.699 2289.861 104.752 2249.803 104.752" fill="#683c99"/><polygon points="865.617 249.42 869.893 249.42 872.643 156.748 862.869 156.748 865.617 249.42" fill="#552786"/><path d="M1006.915,229.036l.785-17.778h1.066v-3.53h.763V184.983h6.265v12.159h4.948a6.1,6.1,0,0,1,6.1,6.1v1.574a13.462,13.462,0,0,1,2.329,6.106.644.644,0,0,1-.643.695H1023.2a.646.646,0,0,1-.645-.695,13.5,13.5,0,0,1,2.33-6.106v-1.574a4.141,4.141,0,0,0-4.14-4.135h-4.948v8.625h.763v3.53h1.066l.785,17.778h-1.851V239.1h-7.791V229.036Z" fill="#683c99"/><path d="M1012.781,227.994s24.816.717,39.545,6.246a2.152,2.152,0,0,1,1.316,2.608L1053,239.1h-6.8v-1.329a202.984,202.984,0,0,0-33.416-2.788Z" fill="#683c99"/><path d="M1046.2,240.27V239.1h6.8v6.8h-2.349a4.576,4.576,0,1,1-4.451-5.63" fill="#552786"/><path d="M972.563,240.27V239.1h6.8v6.8h-2.35a4.576,4.576,0,1,1-4.451-5.63" fill="#552786"/><path d="M973.236,234.24c14.728-5.528,39.544-6.245,39.544-6.245l10.055,4.518a3.171,3.171,0,0,1,1.812,3.511l-.421,2.124h-6.4v-1.4l-5.051-1.764a203,203,0,0,0-33.416,2.788V239.1h-6.8l-.645-2.255a2.156,2.156,0,0,1,1.317-2.608" fill="#683c99"/><polygon points="1017.832 240.27 1017.832 238.149 1024.292 238.149 1024.292 240.27 1025.863 240.27 1025.863 249.42 1016.386 249.42 1016.386 240.27 1017.832 240.27" fill="#552786"/><polygon points="931.534 249.42 935.81 249.42 937.899 179.039 935.198 172.433 929.717 188.121 931.534 249.42" fill="#552786"/><polygon points="936.513 231.489 931.712 239.689 947.513 239.689 952.062 230.376 939.605 228.808 936.513 231.489" fill="#683c99"/><path d="M990.436,153.415h-15.07a6.943,6.943,0,0,0-6.946,6.942v24.455a8.557,8.557,0,0,0,3.318,6.767l.808.626a.785.785,0,0,1-.482,1.405h-3.2l-2.625-2.031a8.56,8.56,0,0,1-3.318-6.767V159.18a6.944,6.944,0,0,1,6.947-6.942h26.065a6.08,6.08,0,0,1,6.083,6.149l-.025,3.335a.84.84,0,0,1-.839.829h-3.778a.88.88,0,0,1-.881-.889l.025-2.1a6.082,6.082,0,0,0-6.083-6.15" fill="#552786"/><path d="M1000.446,159.565l-.021,2.3a.681.681,0,0,0,.681.689h-5.437a.75.75,0,0,1-.748-.755l.026-2.232a6.08,6.08,0,0,0-6.082-6.15h5.5a6.082,6.082,0,0,1,6.083,6.15" fill="#737373"/><path d="M968.3,152.237h5.5a6.944,6.944,0,0,0-6.945,6.944V185.6a8.554,8.554,0,0,0,3.318,6.767l1.609,1.248h-4.905a1.738,1.738,0,0,1-1.061-.362l-1.141-.886a8.555,8.555,0,0,1-3.319-6.767V159.181a6.945,6.945,0,0,1,6.946-6.944" fill="#683c99"/><path d="M946.986,238.15a49.558,49.558,0,0,1,2.1,11.271H914.338s1.056-8.163,9.515-8.163,10-8.186,10-8.186a7.563,7.563,0,0,1,4.191,4.63l.144.448Z" fill="#552786"/><path d="M1041.748,168.323l7.112-60.437a3.389,3.389,0,0,0-.887-2.695l-.3-.318a5.672,5.672,0,0,0-4.911-1.758,167.324,167.324,0,0,1-47.181-.391l-14,86.867h56.374a8.664,8.664,0,0,0,7.891-12.252Z" fill="#552786"/><path d="M986.682,166.478V164.91h52.025a82.367,82.367,0,0,1,.263-12.514c-4.156.092-14.3.282-26.219.282-7.817,0-16.39-.083-24.52-.329l.046-1.57c20.687.631,44.226.191,50.842.045l1.332-12.1c-3.953.325-15.931,1.216-28.735,1.216a163.053,163.053,0,0,1-22.792-1.34l.229-1.55c18.025,2.665,45.765.564,51.471.084l1.216-11.019c-3.159.272-15.624,1.266-29.046,1.266a162.254,162.254,0,0,1-22.691-1.339l.229-1.553c18.778,2.776,47.754.381,51.683.037l1.158-10.518c-3.841.333-15.052,1.206-27.255,1.206a158.492,158.492,0,0,1-22.281-1.339l.229-1.551c17.929,2.648,43.92.586,49.482.093l1.021-9.29a4.732,4.732,0,0,1,3.709,1.849,3.384,3.384,0,0,1,.815,2.615l-4.017,47.065a66.7,66.7,0,0,0,1.352,20.192l1.623,7.294a8.137,8.137,0,0,1-7.945,9.9h-29.557a19.675,19.675,0,0,0-8.82,2.087l-1.383.695a2.555,2.555,0,0,1-3-.519,2.362,2.362,0,0,1,.449-3.628,25.319,25.319,0,0,1,13.627-3.978h1.553v-.149l25.682.248a3.2,3.2,0,0,0,3.152-3.925l-.709-3.058H989.039v-1.569h51.519a82.44,82.44,0,0,1-1.737-11.775Z" fill="#683c99"/><path d="M979.405,169.356l-22.445,15a9.888,9.888,0,0,0-4.142,6c-1.909,8.274-10.159,25.281-16.3,41.141,2.7,2.759,12.574,7.669,12.574,7.669,9.281-17.9,17.8-36.647,17.8-36.647l4.477-1.443a83.623,83.623,0,0,0,39.3-26.929l-11.282-19.745Z" fill="#552786"/><path d="M1003.8,161.846l26.053-5.1,4.887,10.195a21.158,21.158,0,0,1-15.5,20.383L991.4,195.7c8.34,17.206,13.493,38.575,13.493,38.575s-3.031,3.469-11.2,3.469c-7.008-11.607-17.727-27.855-26.83-40.743-2.947-4.171-2.977-9.682.886-13.027,12.637-10.948,36.049-22.131,36.049-22.131" fill="#552786"/><path d="M971.391,99.489h0a14.4,14.4,0,0,1,8.291-6.06l14.022-3.854,5.246.941c16.6,2.98,29.327,13.879,33.25,37.8l3.862,42.45s-14.861-10.624-32.6-3.823a45.112,45.112,0,0,1-25.241,2.019l2.9-13.262a22.915,22.915,0,0,0-.678-12.231l-6.706-19.847c-1.16-1.895-5.817,5.981-6.257,6.5-8.774-1.688-7.666-13.92-7.666-13.92Z" fill="#683c99"/><path d="M975.833,102.259l3.227-6.6,3.729,5.8,1.933,8.364-6.091-5.178c-1.12,1.334-2.642,3.219-4.008,5.178-.489-3.2,1.21-7.558,1.21-7.558" fill="#552786"/><path d="M1010.917,129.688H1009.3a3.846,3.846,0,0,1-3.126-1.6l-1.241-1.729,5.786-3.911Z" fill="#552786"/><polygon points="1010.721 125.18 999.368 140.505 960.491 140.505 961.365 133.349 990.612 129.493 994.922 118.507 1001.797 116.82 1009.577 120.936 1010.721 125.18" fill="#5c2d91"/><path d="M980.632,52.258h0a16.382,16.382,0,0,1,17.661,14.988l.3,3.67a3.04,3.04,0,0,1,1.545-.58,3.076,3.076,0,0,1,3.33,3.086l-.02,3.567a4.782,4.782,0,0,1-4.063,4.7,16.375,16.375,0,0,1-15.048,15.962l-3.724.3a12.644,12.644,0,0,1-13.632-11.569L965.635,69.91a16.378,16.378,0,0,1,15-17.652" fill="#683c99"/><path d="M969.163,72.332a4.532,4.532,0,0,1,4.593,4.806l-.3,6.54a1.712,1.712,0,0,0,1.817,1.814l3.367-.274s-2.654,7.636,1.968,12.734l3.726-.3A16.353,16.353,0,0,0,997.3,89.31l.009.01-1.722,6.774-9.458,7.322-1.4,6.4-3-6.794-4.464-5.256A12.637,12.637,0,0,1,966.98,86.383L965.841,72.44Z" fill="#683c99"/><path d="M996.436,90.677a16.507,16.507,0,0,0,1.7-3.06,13.247,13.247,0,0,0,2.136,3.162s.26,13.125-7.848,21.752c-2.774-7.481-6.295-9.115-6.295-9.115s7.578-6.734,10.311-12.739" fill="#552786"/><path d="M983.5,76.329a1.761,1.761,0,1,0,1.613-1.9,1.761,1.761,0,0,0-1.613,1.9" fill="#552786"/><path d="M968.032,77.631a1.761,1.761,0,1,0,1.613-1.9,1.762,1.762,0,0,0-1.613,1.9" fill="#552786"/><path d="M984.722,88.666l-10.885.889,2.225,1.009a6.7,6.7,0,0,0,6.33-.432Z" fill="#552786"/><path d="M969,56.868l.3-.141-1.1-2.986,3.183.019a14.976,14.976,0,0,0,5.531-1.029,21.7,21.7,0,0,1,6.065-1.253c5.968-.487,15.383,2.277,16.3,13.51.1,1.191.271,3.3.444,5.421a3.071,3.071,0,0,0-2.41,3.284l.335,3.557-2.769.226.371-10.024a3.842,3.842,0,0,0-1.406-3.115l-2.076-1.7a7.2,7.2,0,0,0-8.038-.73l-4.175,2.308a4.244,4.244,0,0,1-1.718.52l-2.322.189a8.892,8.892,0,0,1-7.438-3.036l-3.856-4.452A7.544,7.544,0,0,0,969,56.868" fill="#552786"/><path d="M988.531,73.051a.729.729,0,0,0,.454-1.3,6.969,6.969,0,0,0-6.463-1.1.728.728,0,1,0,.53,1.357,5.55,5.55,0,0,1,5.023.88.724.724,0,0,0,.456.161" fill="#552786"/><path d="M971.942,73.593a.728.728,0,0,0,.394-1.341c-3.05-1.959-6.412-.269-6.554-.2a.729.729,0,0,0,.665,1.3c.044-.023,2.776-1.369,5.1.125a.729.729,0,0,0,.394.114" fill="#552786"/><path d="M998.267,78.685a1.62,1.62,0,0,0-.294-2.367l-.345-.244-.089.093-.139-1.478a2.3,2.3,0,1,1,4.6-.2l-.016,2.665a3.576,3.576,0,0,1-3.285,3.544l-.723.059-.082-.872a1.626,1.626,0,0,1,.378-1.2" fill="#683c99"/><path d="M987.824,113.318a1.373,1.373,0,1,1-1.373-1.372,1.373,1.373,0,0,1,1.373,1.372" fill="#552786"/><path d="M996.653,114.009c2.491-6.575,6.949-16.991,13.9-16.527a8.3,8.3,0,0,1,8.22,7.161c1.451,4.68-1.585,12.627-4.295,18.313-1.85-3.554-6.883-10.335-17.822-8.947" fill="#683c99"/><path d="M996.185,115.255c11.629-1.777,16.321,6.113,17.639,9.039-1.583,3.188-2.906,5.4-2.906,5.4s-1.635-12.361-16-11.183c.318-.688.737-1.84,1.264-3.252" fill="#552786"/><path d="M1004.214,159.363l-6.473,3.792a18.843,18.843,0,0,1-17.765.688l-.612-.3Z" fill="#552786"/><path d="M991.4,195.7a41.323,41.323,0,0,0-6.32-6.6c6.324-.849,6.908,4.381,6.32,6.6" fill="#5c2d91"/><path d="M1030.882,153.415h-15.071a6.944,6.944,0,0,0-6.946,6.942v24.455a8.558,8.558,0,0,0,3.319,6.767l.808.626a.785.785,0,0,1-.482,1.405h-3.2l-2.625-2.031a8.561,8.561,0,0,1-3.319-6.767V159.18a6.944,6.944,0,0,1,6.946-6.942h26.067a6.079,6.079,0,0,1,6.082,6.149l-.024,3.335a.839.839,0,0,1-.839.829h-3.778a.88.88,0,0,1-.881-.889l.024-2.1a6.08,6.08,0,0,0-6.082-6.15" fill="#5c2d91"/><path d="M1040.892,159.565l-.021,2.3a.681.681,0,0,0,.681.689h-5.437a.75.75,0,0,1-.748-.755l.026-2.232a6.08,6.08,0,0,0-6.082-6.15h5.5a6.082,6.082,0,0,1,6.083,6.15" fill="#552786"/><path d="M1008.743,152.237h5.5a6.945,6.945,0,0,0-6.946,6.944V185.6a8.555,8.555,0,0,0,3.319,6.767l1.609,1.248h-4.9a1.738,1.738,0,0,1-1.061-.362l-1.141-.886a8.558,8.558,0,0,1-3.319-6.767V159.181a6.946,6.946,0,0,1,6.946-6.944" fill="#683c99"/><path d="M952.418,233.6a144.983,144.983,0,0,1-14.153-8.524l-2.819,7.035a102.584,102.584,0,0,0,13.388,8.161Z" fill="#552786"/><path d="M1007.43,249.42l-.075-1.887a13.866,13.866,0,0,0-1.869-6.434c-1.232-2.123-2.916-4.939-4.336-7.022l-.326-.478h-10.2l-1.783,15.821Z" fill="#552786"/><path d="M1005.069,232.061a39.7,39.7,0,0,0-15.9-.167,57.5,57.5,0,0,1,.553,6.934,39.163,39.163,0,0,1,15.821,1.2Z" fill="#552786"/><path d="M1007.43,249.42H987.243v-1.809a2.94,2.94,0,0,1,.095-.771,7.532,7.532,0,0,1,7.263-5.535h4.2a7.533,7.533,0,0,1,6.8,4.286Z" fill="#552786"/><polygon points="928.786 156.749 929.717 188.122 937.897 179.038 938.56 156.749 928.786 156.749" fill="#552786"/><rect x="846.276" y="142.917" width="175.078" height="13.725" fill="#552786"/><rect x="1021.353" y="142.917" width="74.379" height="13.725" fill="#552786"/><polygon points="997.775 249.42 1002.051 249.42 1004.801 156.748 995.026 156.748 997.775 249.42" fill="#552786"/><polygon points="1071.546 249.42 1075.822 249.42 1078.572 156.748 1068.796 156.748 1071.546 249.42" fill="#552786"/><path d="M900.806,107.59a5.233,5.233,0,0,1,2.859-.849h52.6a5.164,5.164,0,0,1,4.813,3.294l11.206,28.424a1.783,1.783,0,0,0,1.663,1.14h30.49v3.031H970.526l-60.07-3.649-.48-1.236L900.031,108.1Z" fill="#552786"/><path d="M969.107,138.981l.345.887a4.336,4.336,0,0,0,4.041,2.762H911.877l-1.421-3.649Z" fill="#552786"/><path d="M900.7,107.945h53.484a4.159,4.159,0,0,1,3.877,2.652l10.563,27.148H909.976l-10.754-27.637a1.589,1.589,0,0,1,1.481-2.163" fill="#683c99"/><polygon points="1078.571 156.749 1069.078 166.237 1068.797 156.749 1078.571 156.749" fill="#552786"/><polygon points="154.997 85.487 154.976 84.445 156.037 84.445 155.797 85.487 154.997 85.487" fill="#505050"/><path d="M188.48,161.333v85.872h-3.532s-7.063-62.17-8.123-67.837-3.532-7.971-11.479-7.971H-.322c-7.946,0-10.419,2.3-11.479,7.971s-8.352,67.764-8.352,67.764h-3.532l.229-85.8Z" fill="#552786"/><rect x="-38.862" y="157.647" width="244.265" height="5.055" fill="#552786"/><path d="M75.564,236.982l-7.7-2.17L62.8,230.451l14.935-44.47-32.264-.246a8.278,8.278,0,0,1-5.53-2.41L37.99,181.4l.985-8.46,6.727-3.162,43.1.49a7.942,7.942,0,0,1,6.27,3.153,7.8,7.8,0,0,1,.97,7.237Z" fill="#552786"/><path d="M91.932,236.017c-2.4-1.2-15.652-7.255-15.652-7.255a.874.874,0,0,0-.716-.24,1.762,1.762,0,0,0-1.687,1.447,5.527,5.527,0,0,1-5.529,3.877l-5.553-3.4v11.113a1.964,1.964,0,0,0,2.166,2.192L92.413,244s1.7.481,1.7-1.71V238.67s.481-1.206-2.182-2.653" fill="#683c99"/><polygon points="68.104 120.489 64.236 110.556 59.188 108.386 59.188 112.747 68.104 120.489" fill="#552786"/><path d="M38.975,172.938l32.98.481C74.6,157.942,70.994,130.877,69.79,127c-1.205-4.1-4.105-11.353-8.436-14.251a11.783,11.783,0,0,0-7.452-2.672c-2.426,0-.481-3.855-8.916,2.19-8.681,6.027-8.2,42.28-8.2,42.28a62.376,62.376,0,0,0,2.19,18.393" fill="#552786"/><polygon points="64.236 111.782 49.073 106.94 47.867 99.688 61.597 102.839 64.236 111.782" fill="#683c99"/><path d="M66.663,85.918a1.61,1.61,0,0,1-1.458-.238.88.88,0,0,1-.245-.726,1.088,1.088,0,0,1,.481-1.462c.244-.246.244-.246.5-.246a1.363,1.363,0,0,1,1.678.965c.244.743-.236,1.707-.961,1.707" fill="#fbd9bf"/><path d="M74.122,87.364c-.48-.483-4.812-6.044-5.049-7.252a3.017,3.017,0,0,0-.244-1.446,10.228,10.228,0,0,1-7.712-.483,18.448,18.448,0,0,0-3.126,5.309c.235,1.462.479,2.671.479,3.153,0,1.446-2.166,0-2.166,0a23.334,23.334,0,0,0-3.844-2.434c-1.709,1.225-1.22,5.807-.984,7.734a12.087,12.087,0,0,1,.724,1.232s.26,6.747-3.852,7.955c6.271,3.881,14.447,2.916,18.079,2.916,4.088.238,4.088-1.927,4.088-1.927l.553-4.871c-3.126-.726-6.831-4.073-6.831-4.073l1.914.656L71.068,95l.164-4.5c4.812-.962,3.126-2.408,2.89-3.135" fill="#683c99"/><path d="M32.217,69.477a6.5,6.5,0,0,1,2.165.246,18.988,18.988,0,0,1,5.309-5.57,24.657,24.657,0,0,1,8.177-3.374,21.09,21.09,0,0,1,14.446,3.137,8.224,8.224,0,0,1,8.918,7.015,8.958,8.958,0,0,1-2.4,7.734,10.219,10.219,0,0,1-7.712-.482A14.185,14.185,0,0,1,57.03,75.03l1.44,11.614c0,1.446-2.166,0-2.166,0a23.286,23.286,0,0,0-3.844-2.433c-.984-.237-1.945-.237-2.426.506a6.322,6.322,0,0,0,.481,4.581c.236.965.725,1.928.961,2.647a12.023,12.023,0,0,1,.724,1.233s.26,6.509-3.607,7.711c-.245.243-.245.243-.481.243a20.859,20.859,0,0,1-13.249-8.216,4.86,4.86,0,0,1-1.922.262A11.869,11.869,0,0,1,20.657,81.8a12.061,12.061,0,0,1,11.56-12.324" fill="#552786"/><polygon points="44.26 112.265 47.632 105.248 63.519 111.546 64.236 121.452 44.26 112.265" fill="#552786"/><path d="M100.849,155.534h0v.718a1.808,1.808,0,0,1-.481,1.209l-18.534-.238H76.279l-.715-8.942,9.633.482c.961-.727,5.294,0,6.734.237l7.957,1.21a1.825,1.825,0,0,1,1.441,1.927.237.237,0,0,1-.236.244,1.385,1.385,0,0,1,1.442,1.445,1.656,1.656,0,0,1-1.686,1.708" fill="#683c99"/><path d="M76.044,155.534l.236,1.689h5.554l18.534.238a1.808,1.808,0,0,0,.481-1.209v-.718Z" fill="#ba8c57"/><path d="M103.732,176.556a7.441,7.441,0,0,0-5.767-2.418L80.148,173.9l-35.888-.481H38.975c0,2.173-.505,10.871,2.4,15.935,6.49,0,16.367.241,16.848.241h.244l31.06.262L86.4,234.088l12.524,8.2L105.9,182.6a9.235,9.235,0,0,0-2.166-6.042" fill="#552786"/><path d="M115.539,239.634c-2.411-1.446-15.652-7.495-15.652-7.495h-.724a1.8,1.8,0,0,0-1.677,1.2,5.437,5.437,0,0,1-5.554,4.119L86.4,234.089V245.2a1.944,1.944,0,0,0,2.165,2.17l27.452.241s1.677.241,1.677-1.688v-3.638s.489-1.446-2.158-2.653" fill="#683c99"/><path d="M60.873,147.8l-2.4-23.936a5.459,5.459,0,0,0-4.812-6.053,5.626,5.626,0,0,0-6.27,4.606l1.684,30.2a5.377,5.377,0,0,0,1.442,4.606.516.516,0,0,0,.48.482,5.346,5.346,0,0,0,3.625,1.445s28.175.238,28.42.238l-.724-11.109-21.2-.243Z" fill="#683c99"/><path d="M28.372,192.992a6.467,6.467,0,0,0,6.255,5.566h.481l7.71.242s0,.007-14.882,47.2H31.37c2.851-9.082,7.435-23.689,14.812-47.2l13.249.24L73.229,246H76.64c-2.683-9.1-6.975-23.659-13.846-46.961H76.043a6.156,6.156,0,0,0,6.515-6.29,6.488,6.488,0,0,0-6.515-6.533l-35.626-.237-7.232-61.154a6.516,6.516,0,0,0-7.217-5.571,6.73,6.73,0,0,0-5.551,7.261Z" fill="#683c99"/><path d="M42.677,199.249c-.526,1.669-3.009,9.545-14.741,46.751H31.37c2.831-9.023,7.377-23.5,14.671-46.751Z" fill="#552786"/><path d="M59.492,199.249c.31,1.054,2.2,7.488,13.737,46.751H76.64L62.856,199.249Z" fill="#552786"/><path d="M115.4,157.667H79.068a2,2,0,0,1,0-4h34.683l7.687-39.713a2,2,0,1,1,3.928.76l-8,41.333A2,2,0,0,1,115.4,157.667Z" fill="#683c99"/><path d="M65.442,83.492c.243-.246.243-.246.5-.246a1.363,1.363,0,0,1,1.678.965c.244.742-.236,1.707-.961,1.707a1.608,1.608,0,0,1-1.457-.238.879.879,0,0,1-.246-.727,1.086,1.086,0,0,1,.482-1.461" fill="#552786"/><polygon points="2064.997 85.487 2064.976 84.445 2066.037 84.445 2065.797 85.487 2064.997 85.487" fill="#505050"/><path d="M2098.48,161.333v85.872h-3.532s-7.063-62.17-8.123-67.837-3.532-7.971-11.479-7.971H1909.678c-7.946,0-10.419,2.3-11.479,7.971s-8.352,67.764-8.352,67.764h-3.532l.229-85.8Z" fill="#552786"/><rect x="1871.138" y="157.647" width="244.265" height="5.055" fill="#552786"/><path d="M1985.564,236.982l-7.7-2.17-5.073-4.361,14.935-44.47-32.264-.246a8.278,8.278,0,0,1-5.53-2.41l-1.946-1.927.985-8.46,6.727-3.162,43.1.49a7.942,7.942,0,0,1,6.27,3.153,7.8,7.8,0,0,1,.97,7.237Z" fill="#552786"/><path d="M2001.932,236.017c-2.4-1.2-15.652-7.255-15.652-7.255a.874.874,0,0,0-.716-.24,1.762,1.762,0,0,0-1.687,1.447,5.527,5.527,0,0,1-5.529,3.877l-5.553-3.4v11.113a1.964,1.964,0,0,0,2.166,2.192l27.452.241s1.7.481,1.7-1.71V238.67s.481-1.206-2.182-2.653" fill="#683c99"/><polygon points="1978.104 120.489 1974.236 110.556 1969.188 108.386 1969.188 112.747 1978.104 120.489" fill="#552786"/><path d="M1948.975,172.938l32.98.481c2.648-15.477-.961-42.542-2.165-46.421-1.2-4.1-4.105-11.353-8.436-14.251a11.783,11.783,0,0,0-7.452-2.672c-2.426,0-.481-3.855-8.916,2.19-8.681,6.027-8.2,42.28-8.2,42.28a62.376,62.376,0,0,0,2.19,18.393" fill="#552786"/><polygon points="1974.236 111.782 1959.073 106.94 1957.867 99.688 1971.597 102.839 1974.236 111.782" fill="#683c99"/><path d="M1976.663,85.918a1.61,1.61,0,0,1-1.458-.238.88.88,0,0,1-.245-.726,1.088,1.088,0,0,1,.481-1.462c.244-.246.244-.246.5-.246a1.363,1.363,0,0,1,1.678.965c.244.743-.236,1.707-.961,1.707" fill="#fbd9bf"/><path d="M1984.122,87.364c-.48-.483-4.812-6.044-5.049-7.252a3.017,3.017,0,0,0-.244-1.446,10.228,10.228,0,0,1-7.712-.483,18.448,18.448,0,0,0-3.126,5.309c.235,1.462.479,2.671.479,3.153,0,1.446-2.166,0-2.166,0a23.334,23.334,0,0,0-3.844-2.434c-1.709,1.225-1.22,5.807-.984,7.734a12.087,12.087,0,0,1,.724,1.232s.26,6.747-3.852,7.955c6.271,3.881,14.447,2.916,18.079,2.916,4.088.238,4.088-1.927,4.088-1.927l.553-4.871c-3.126-.726-6.831-4.073-6.831-4.073l1.914.656L1981.068,95l.164-4.5c4.812-.962,3.126-2.408,2.89-3.135" fill="#683c99"/><path d="M1942.217,69.477a6.5,6.5,0,0,1,2.165.246,18.988,18.988,0,0,1,5.309-5.57,24.657,24.657,0,0,1,8.177-3.374,21.09,21.09,0,0,1,14.446,3.137,8.224,8.224,0,0,1,8.918,7.015,8.958,8.958,0,0,1-2.4,7.734,10.219,10.219,0,0,1-7.712-.482,14.185,14.185,0,0,1-4.087-3.153l1.44,11.614c0,1.446-2.166,0-2.166,0a23.286,23.286,0,0,0-3.844-2.433c-.984-.237-1.945-.237-2.426.506a6.322,6.322,0,0,0,.481,4.581c.236.965.725,1.928.961,2.647a12.023,12.023,0,0,1,.724,1.233s.26,6.509-3.607,7.711c-.245.243-.245.243-.481.243a20.859,20.859,0,0,1-13.249-8.216,4.86,4.86,0,0,1-1.922.262A11.869,11.869,0,0,1,1930.657,81.8a12.061,12.061,0,0,1,11.56-12.324" fill="#552786"/><polygon points="1954.26 112.265 1957.632 105.248 1973.519 111.546 1974.236 121.452 1954.26 112.265" fill="#552786"/><path d="M2010.849,155.534h0v.718a1.808,1.808,0,0,1-.481,1.209l-18.534-.238h-5.555l-.715-8.942,9.633.482c.961-.727,5.294,0,6.734.237l7.957,1.21a1.825,1.825,0,0,1,1.441,1.927.237.237,0,0,1-.236.244,1.385,1.385,0,0,1,1.442,1.445,1.656,1.656,0,0,1-1.686,1.708" fill="#683c99"/><path d="M1986.044,155.534l.236,1.689h5.554l18.534.238a1.808,1.808,0,0,0,.481-1.209v-.718Z" fill="#ba8c57"/><path d="M2013.732,176.556a7.441,7.441,0,0,0-5.767-2.418l-17.817-.238-35.888-.481h-5.285c0,2.173-.5,10.871,2.4,15.935,6.49,0,16.367.241,16.848.241h.244l31.06.262-3.128,44.231,12.524,8.2L2015.9,182.6a9.235,9.235,0,0,0-2.166-6.042" fill="#552786"/><path d="M2025.539,239.634c-2.411-1.446-15.652-7.495-15.652-7.495h-.724a1.8,1.8,0,0,0-1.677,1.2,5.437,5.437,0,0,1-5.554,4.119l-5.529-3.374V245.2a1.944,1.944,0,0,0,2.165,2.17l27.452.241s1.677.241,1.677-1.688v-3.638s.489-1.446-2.158-2.653" fill="#683c99"/><path d="M1970.873,147.8l-2.4-23.936a5.459,5.459,0,0,0-4.812-6.053,5.626,5.626,0,0,0-6.27,4.606l1.684,30.2a5.377,5.377,0,0,0,1.442,4.606.516.516,0,0,0,.48.482,5.346,5.346,0,0,0,3.625,1.445s28.175.238,28.42.238l-.724-11.109-21.2-.243Z" fill="#683c99"/><path d="M1938.372,192.992a6.467,6.467,0,0,0,6.255,5.566h.481l7.71.242s0,.007-14.882,47.2h3.434c2.851-9.082,7.435-23.689,14.812-47.2l13.249.24,13.8,46.961h3.411c-2.683-9.1-6.975-23.659-13.846-46.961h13.249a6.156,6.156,0,0,0,6.515-6.29,6.488,6.488,0,0,0-6.515-6.533l-35.626-.237-7.232-61.154a6.516,6.516,0,0,0-7.217-5.571,6.73,6.73,0,0,0-5.551,7.261Z" fill="#683c99"/><path d="M1952.677,199.249c-.526,1.669-3.009,9.545-14.741,46.751h3.434c2.831-9.023,7.377-23.5,14.671-46.751Z" fill="#552786"/><path d="M1969.492,199.249c.31,1.054,2.2,7.488,13.737,46.751h3.411l-13.784-46.751Z" fill="#552786"/><path d="M2025.4,157.667h-36.334a2,2,0,0,1,0-4h34.683l7.687-39.713a2,2,0,1,1,3.928.76l-8,41.333A2,2,0,0,1,2025.4,157.667Z" fill="#683c99"/><path d="M1975.442,83.492c.243-.246.243-.246.5-.246a1.363,1.363,0,0,1,1.678.965c.244.742-.236,1.707-.961,1.707a1.608,1.608,0,0,1-1.457-.238.879.879,0,0,1-.246-.727,1.086,1.086,0,0,1,.482-1.461" fill="#552786"/></g><g clip-path="url(#c)"><polygon points="2830.512 403.86 3178.876 -2.966 3033.085 -2.966 2422.876 403.261 2709.294 403.685 2830.512 403.86" fill="#8b6acc"/></g></svg>