<svg xmlns="http://www.w3.org/2000/svg" xmlns:xlink="http://www.w3.org/1999/xlink" viewBox="0 0 2500 250"><defs><clipPath id="a"><rect x="1" width="2500" height="250" fill="none"/></clipPath><clipPath id="b"><rect y="269.972" width="2500.046" height="250.028" fill="none"/></clipPath></defs><title>banner-particle-lines-blue</title><rect width="2500" height="250" fill="#00188e"/><g clip-path="url(#a)"><path d="M-119-23.864c536,429,937-4,1437,153,418.228,131.323,253-322,614-137s571-62,571-62" fill="none" stroke="#0060c4" stroke-miterlimit="10"/><path d="M-120.81-17.722c536,429,939.334-8.095,1439.334,148.905,418.228,131.324,255.666-315.9,616.666-130.9S2503-61.817,2503-61.817" fill="none" stroke="#005ec3" stroke-miterlimit="10"/><path d="M-122.619-11.579c536,429,941.667-12.19,1441.667,144.81,418.228,131.324,258.333-309.81,619.333-124.81S2503-53.769,2503-53.769" fill="none" stroke="#005dc1" stroke-miterlimit="10"/><path d="M-124.429-5.436c536,429,944-16.286,1444,140.714,418.229,131.324,261-303.714,622-118.714S2503-45.722,2503-45.722" fill="none" stroke="#005bc0" stroke-miterlimit="10"/><path d="M-126.238.707c536,429,946.333-20.381,1446.333,136.619,418.229,131.324,263.667-297.619,624.667-112.619S2503-37.674,2503-37.674" fill="none" stroke="#0059bf" stroke-miterlimit="10"/><path d="M-128.048,6.85c536,429,948.667-24.476,1448.667,132.524C1738.848,270.7,1586.952-152.15,1947.952,32.85S2503-29.626,2503-29.626" fill="none" stroke="#0057be" stroke-miterlimit="10"/><path d="M-129.857,12.993c536,429,951-28.572,1451,128.428,418.228,131.324,269-285.428,630-100.428S2503-21.579,2503-21.579" fill="none" stroke="#0056bc" stroke-miterlimit="10"/><path d="M-131.667,19.136c536,429,953.334-32.667,1453.334,124.333,418.228,131.324,271.666-279.333,632.666-94.333S2503-13.531,2503-13.531" fill="none" stroke="#0054bb" stroke-miterlimit="10"/><path d="M-133.476,25.278c536,429,955.666-36.761,1455.666,120.239,418.229,131.323,274.334-273.239,635.334-88.239S2503-5.483,2503-5.483" fill="none" stroke="#0052ba" stroke-miterlimit="10"/><path d="M-135.286,31.421c536,429,958-40.857,1458,116.143,418.229,131.324,277-267.143,638-82.143S2503,2.564,2503,2.564" fill="none" stroke="#0051b8" stroke-miterlimit="10"/><path d="M-137.095,37.564c536,429,960.333-44.952,1460.333,112.048,418.229,131.324,279.667-261.048,640.667-76.048S2503,10.612,2503,10.612" fill="none" stroke="#004fb7" stroke-miterlimit="10"/><path d="M-138.9,43.707c536,429,962.667-49.048,1462.667,107.952C1741.99,282.983,1606.1-103.293,1967.1,81.707S2503,18.659,2503,18.659" fill="none" stroke="#004db6" stroke-miterlimit="10"/><path d="M-140.714,49.85c536,429,965-53.143,1465,103.857,418.228,131.324,285-248.857,646-63.857S2503,26.707,2503,26.707" fill="none" stroke="#004bb5" stroke-miterlimit="10"/><path d="M-142.524,55.993c536,429,967.333-57.238,1467.334,99.762,418.228,131.323,287.666-242.762,648.666-57.762S2503,34.755,2503,34.755" fill="none" stroke="#004ab3" stroke-miterlimit="10"/><path d="M-144.333,62.136c536,429,969.666-61.334,1469.666,95.666,418.229,131.324,290.334-236.666,651.334-51.666S2503,42.8,2503,42.8" fill="none" stroke="#0048b2" stroke-miterlimit="10"/><path d="M-146.143,68.278c536,429,972-65.428,1472,91.572,418.229,131.324,293-230.572,654-45.572S2503,50.85,2503,50.85" fill="none" stroke="#0046b1" stroke-miterlimit="10"/><path d="M-147.952,74.421c536,429,974.333-69.523,1474.333,87.477,418.228,131.323,295.667-224.477,656.667-39.477S2503,58.9,2503,58.9" fill="none" stroke="#0045af" stroke-miterlimit="10"/><path d="M-149.762,80.564c536,429,976.667-73.619,1476.667,83.381,418.228,131.324,298.333-218.381,659.333-33.381S2503,66.945,2503,66.945" fill="none" stroke="#0043ae" stroke-miterlimit="10"/><path d="M-151.571,86.707c536,429,979-77.714,1479,79.286,418.228,131.324,301-212.286,662-27.286S2503,74.993,2503,74.993" fill="none" stroke="#0041ad" stroke-miterlimit="10"/><path d="M-153.381,92.85c536,429,981.333-81.81,1481.333,75.19,418.229,131.324,303.667-206.19,664.667-21.19S2503,83.04,2503,83.04" fill="none" stroke="#003fac" stroke-miterlimit="10"/><path d="M-155.19,98.993c536,429,983.666-85.9,1483.666,71.1,418.229,131.324,306.334-200.095,667.334-15.095S2503,91.088,2503,91.088" fill="none" stroke="#003eaa" stroke-miterlimit="10"/><path d="M-157,105.136c536,429,986-90,1486,67,418.228,131.323,309-194,670-9s504-64,504-64" fill="none" stroke="#003ca9" stroke-miterlimit="10"/><path d="M-203,121.136c656-131,777.135-128.04,886,28,90,129,241,242,445,147,238.469-111.052,351-339,599-357,472.613-34.3,592,242,751,383" fill="none" stroke="#0060c4" stroke-miterlimit="10"/><path d="M-199.25,131.073C444.718,10.581,553.442,17.665,682.25,167.2c108.687,126.174,259.562,221.25,465.031,126.344,237.784-109.955,358.293-319.509,601.281-332.094,453.794-23.5,579,232.375,728.063,364.563" fill="none" stroke="#005ec2" stroke-miterlimit="10"/><path d="M-195.5,141.011c631.936-109.985,728.743-98.856,877,44.25,127.763,123.324,278.125,200.5,485.062,105.687C1403.66,182.09,1532.07-9.143,1770.125-16.239c434.857-12.964,566,222.75,705.125,346.125" fill="none" stroke="#005cc1" stroke-miterlimit="10"/><path d="M-191.75,150.948c619.9-99.478,705.181-84.474,872.5,52.375,147.155,120.358,296.688,179.75,505.094,85.031C1422.256,180.594,1558.488,7.593,1791.688,6.073c415.807-2.71,553,213.125,682.187,327.688" fill="none" stroke="#0059bf" stroke-miterlimit="10"/><path d="M-188,160.886c607.872-88.971,681.9-70.3,868,60.5,166.781,117.222,315.25,159,525.125,64.375C1440.852,179.1,1584.83,24.223,1813.25,28.386c396.651,7.229,540,203.5,659.25,309.25" fill="none" stroke="#0057bd" stroke-miterlimit="10"/><path d="M-184.25,170.823c595.84-78.463,658.8-56.344,863.5,68.625,186.57,113.9,333.812,138.25,545.156,43.719C1459.447,177.6,1611.1,40.726,1834.812,50.7c377.4,16.823,527,193.875,636.313,290.813" fill="none" stroke="#0055bc" stroke-miterlimit="10"/><path d="M-180.5,180.761c583.808-67.956,635.815-42.586,859,76.75,206.464,110.395,352.375,117.5,565.188,23.062C1478.043,176.1,1637.3,57.078,1856.375,73.011c358.064,26.041,514,184.25,613.375,272.375" fill="none" stroke="#0052ba" stroke-miterlimit="10"/><path d="M-176.75,190.7c571.776-57.448,612.9-29,854.5,84.875,226.42,106.722,370.938,96.75,585.219,2.406,233.67-103.372,400.487-204.729,614.969-182.656,338.666,34.853,501,174.625,590.437,253.938" fill="none" stroke="#0050b8" stroke-miterlimit="10"/><path d="M-173,200.636c559.744-46.941,590-15.573,850,93,246.408,102.9,389.5,76,605.25-18.25,232.985-102.276,407.32-186.177,617.25-157.75,319.233,43.227,488,165,567.5,235.5" fill="none" stroke="#004eb7" stroke-miterlimit="10"/><path d="M-169.25,210.573C378.462,174.14,397.867,208.3,676.25,311.7c266.406,98.946,408.062,55.25,625.281-38.906,232.3-101.179,414.142-167.878,619.531-132.844,299.8,51.138,475,155.375,544.563,217.063" fill="none" stroke="#004cb5" stroke-miterlimit="10"/><path d="M-165.5,220.511c535.68-25.926,544.221,10.928,841,109.25,286.4,94.883,426.625,34.5,645.312-59.563,231.614-100.082,420.984-149.88,621.813-107.937,280.4,58.561,462,145.75,521.625,198.625" fill="none" stroke="#004ab3" stroke-miterlimit="10"/><path d="M-161.75,230.448C361.9,215.03,359.557,254.486,674.75,347.823c306.384,90.728,445.188,13.75,665.344-80.219,230.928-98.985,427.894-132.235,624.094-83.031,261.106,65.482,449,136.125,498.687,180.188" fill="none" stroke="#0047b1" stroke-miterlimit="10"/><path d="M-158,240.386c511.616-4.911,498.369,37.076,832,125.5,326.349,86.494,463.75-7,685.375-100.875,230.242-97.888,434.936-115.005,626.375-58.125,241.973,71.894,436,126.5,475.75,161.75" fill="none" stroke="#0045b0" stroke-miterlimit="10"/><path d="M-154.25,250.323c499.584,5.6,475.406,50.054,827.5,133.625,346.294,82.2,482.312-27.75,705.406-121.531,229.557-96.791,442.193-98.252,628.656-33.219,223.089,77.807,423,116.875,452.813,143.313" fill="none" stroke="#0043ae" stroke-miterlimit="10"/><path d="M-150.5,260.261c487.552,16.1,452.417,62.981,823,141.75,366.218,77.84,500.875-48.5,725.438-142.188,228.871-95.694,449.773-82.045,630.937-8.312,204.55,83.25,410,107.25,429.875,124.875" fill="none" stroke="#0041ac" stroke-miterlimit="10"/><path d="M-146.75,270.2c475.52,26.612,429.534,75.174,818.5,149.875,386.25,72.75,519.438-69.25,745.469-162.844,228.185-94.6,457.818-66.446,633.219,16.594,186.476,88.284,397,97.625,406.937,106.438" fill="none" stroke="#003eab" stroke-miterlimit="10"/><path d="M-143,280.136c463.488,37.119,406.361,88.721,814,158,406,69,538-90,765.5-183.5s466.5-51.5,635.5,41.5,384,88,384,88" fill="none" stroke="#003ca9" stroke-miterlimit="10"/><path d="M64-173.864c656-131,802-158,908,0s251,273,423,175c228.562-130.228,351-339,599-357,472.613-34.3,592,242,751,383" fill="none" stroke="#0060c4" stroke-miterlimit="10"/><path d="M60.062-162.842c648.376-126.437,785.063-143.647,909.813,8.79S1238.812,96.261,1414.281-1.458c228.5-127.932,358.293-319.509,601.281-332.094,453.794-23.5,579,232.375,728.063,364.563" fill="none" stroke="#005ec2" stroke-miterlimit="10"/><path d="M56.125-151.819c640.75-121.875,768.125-129.295,911.625,17.58s287.08,228,465.812,130.187c228.694-125.156,365.508-300.091,603.563-307.187,434.857-12.964,566,222.75,705.125,346.125" fill="none" stroke="#005cc1" stroke-miterlimit="10"/><path d="M52.188-140.8c633.124-117.313,751.187-114.943,913.437,26.369S1270.72,91.039,1452.844-6.646c228.72-122.678,372.644-280.761,605.844-282.281,415.807-2.71,553,213.125,682.187,327.688" fill="none" stroke="#0059bf" stroke-miterlimit="10"/><path d="M48.25-129.773C673.75-242.523,782.5-230.364,963.5-94.614S1286.594,88.292,1472.125-9.239c228.724-120.238,379.7-261.538,608.125-257.375,396.651,7.229,540,203.5,659.25,309.25" fill="none" stroke="#0057bd" stroke-miterlimit="10"/><path d="M44.312-118.751C662.188-226.938,761.625-204.989,961.375-74.8S1302.452,85.52,1491.406-11.833C1720.111-129.666,1878.1-254.274,2101.812-244.3c377.4,16.823,527,193.875,636.313,290.813" fill="none" stroke="#0055bc" stroke-miterlimit="10"/><path d="M40.375-107.728C650.625-211.353,740.75-179.614,959.25-54.989s359.044,137.71,551.438,40.562c228.666-115.464,393.616-223.495,612.687-207.562,358.064,26.041,514,184.25,613.375,272.375" fill="none" stroke="#0052ba" stroke-miterlimit="10"/><path d="M36.438-96.7c602.624-99.062,683.437-57.534,920.687,61.528s377,115.072,572.844,18.156c228.61-113.129,400.487-204.729,614.969-182.656,338.666,34.853,501,174.625,590.437,253.938" fill="none" stroke="#0050b8" stroke-miterlimit="10"/><path d="M32.5-85.682c595-94.5,666.5-43.182,922.5,70.318s394.937,92.405,594.25-4.25c228.537-110.828,407.32-186.177,617.25-157.75,319.233,43.227,488,165,567.5,235.5" fill="none" stroke="#004eb7" stroke-miterlimit="10"/><path d="M28.562-74.659C615.938-164.6,678.125-103.489,952.875,4.448s412.862,69.711,615.656-26.656c228.448-108.558,414.142-167.878,619.531-132.844,299.8,51.138,475,155.375,544.563,217.063" fill="none" stroke="#004cb5" stroke-miterlimit="10"/><path d="M24.625-63.637c579.75-85.375,632.625-14.477,926.125,87.9S1381.524,71.248,1587.812-24.8c228.345-106.32,420.984-149.88,621.813-107.937,280.4,58.561,462,145.75,521.625,198.625" fill="none" stroke="#004ab3" stroke-miterlimit="10"/><path d="M20.688-52.614c572.124-80.812,615.687-.125,927.937,96.687S1397.3,68.307,1607.094-27.4c228.228-104.112,427.894-132.235,624.094-83.031,261.106,65.482,449,136.125,498.687,180.188" fill="none" stroke="#0047b1" stroke-miterlimit="10"/><path d="M16.75-41.591C581.25-117.841,615.5-27.364,946.5,63.886s466.562,1.45,679.875-93.875c228.1-101.934,434.936-115,626.375-58.125,241.973,71.894,436,126.5,475.75,161.75" fill="none" stroke="#0045b0" stroke-miterlimit="10"/><path d="M12.812-30.568C569.688-102.256,594.625-1.989,944.375,83.7s484.438-21.364,701.281-116.281c227.964-99.785,442.193-98.252,628.656-33.219,223.089,77.807,423,116.875,452.813,143.313" fill="none" stroke="#0043ae" stroke-miterlimit="10"/><path d="M8.875-19.546C558.125-86.671,573.75,23.386,942.25,103.511s502.125-44.625,722.688-138.688c227.632-98.091,449.773-82.045,630.937-8.312,204.55,83.25,410,107.25,429.875,124.875" fill="none" stroke="#0041ac" stroke-miterlimit="10"/><path d="M4.938-8.523C546.562-71.085,552.875,48.761,940.125,123.323s520.063-67.312,744.094-161.094c227.566-95.795,457.818-66.446,633.219,16.594,186.476,88.284,397,97.625,406.937,106.438" fill="none" stroke="#003eab" stroke-miterlimit="10"/><path d="M1,2.5c534-58,531,71.636,937,140.636s538-90,765.5-183.5,466.5-51.5,635.5,41.5,384,88,384,88" fill="none" stroke="#003ca9" stroke-miterlimit="10"/><path d="M1217.739,167.656l1.457,3.1,3.259.5a.149.149,0,0,1,.081.038.159.159,0,0,1,.05.077.176.176,0,0,1,0,.094.184.184,0,0,1-.044.081l-2.358,2.411.557,3.407a.184.184,0,0,1-.01.093.175.175,0,0,1-.055.073.15.15,0,0,1-.083.032.157.157,0,0,1-.088-.018l-2.914-1.607-2.917,1.609a.165.165,0,0,1-.087.019.167.167,0,0,1-.138-.106.174.174,0,0,1-.01-.093l.559-3.409-2.357-2.411a.167.167,0,0,1-.045-.081.173.173,0,0,1,0-.093.165.165,0,0,1,.049-.077.158.158,0,0,1,.081-.039l3.26-.5,1.457-3.1a.155.155,0,0,1,.06-.069.152.152,0,0,1,.17,0A.155.155,0,0,1,1217.739,167.656Z" fill="#056fcd"/><path d="M1532.335,133.783l3.608,7.28,8.069,1.167a.4.4,0,0,1,.325.271.4.4,0,0,1-.1.41l-5.838,5.665,1.378,8a.4.4,0,0,1-.024.218.416.416,0,0,1-.136.172.4.4,0,0,1-.207.076.411.411,0,0,1-.215-.044l-7.217-3.774-7.223,3.779a.4.4,0,0,1-.216.043.4.4,0,0,1-.342-.248.4.4,0,0,1-.025-.217l1.386-8.008-5.838-5.663a.4.4,0,0,1-.1-.409.408.408,0,0,1,.123-.183.4.4,0,0,1,.2-.089l8.07-1.169,3.609-7.28a.392.392,0,0,1,.148-.162.4.4,0,0,1,.211-.06.4.4,0,0,1,.36.222Z" fill="#056fcd"/><path d="M1692.83,38.941a11.239,11.239,0,0,1-10.381-6.908,11.191,11.191,0,0,1,8.189-15.257,11.256,11.256,0,0,1,11.534,4.758,11.143,11.143,0,0,1-1.4,14.125A11.273,11.273,0,0,1,1692.83,38.941Zm0-19.183a8.026,8.026,0,0,0-7.415,4.934,8,8,0,0,0,5.849,10.9,8.041,8.041,0,0,0,8.239-3.4,8,8,0,0,0-6.673-12.433Z" fill="#056fcd"/><path d="M1410.614,110.561a5,5,0,1,1,4.175-7.778,4.981,4.981,0,0,1-.626,6.312A5.04,5.04,0,0,1,1410.614,110.561Zm0-8.572a3.573,3.573,0,0,0-3.517,4.269,3.583,3.583,0,0,0,2.818,2.806,3.59,3.59,0,0,0,3.681-1.519,3.575,3.575,0,0,0-2.982-5.556Z" fill="#056fcd"/><path d="M2265.443,26.373a6.415,6.415,0,0,1-4.656-4.656.187.187,0,0,0-.067-.112.191.191,0,0,0-.123-.044.194.194,0,0,0-.124.044.2.2,0,0,0-.067.112,6.41,6.41,0,0,1-4.656,4.656.195.195,0,0,0-.112.314.19.19,0,0,0,.112.067,6.416,6.416,0,0,1,4.659,4.651.2.2,0,0,0,.382,0,6.409,6.409,0,0,1,4.655-4.654.193.193,0,0,0,.107-.069.2.2,0,0,0,.041-.121.188.188,0,0,0-.043-.12A.194.194,0,0,0,2265.443,26.373Z" fill="#056fcd"/><path d="M1132.435,189.554a1.6,1.6,0,0,1-1.605-1.6v-4.8a1.605,1.605,0,0,1,3.21,0v4.8a1.6,1.6,0,0,1-1.605,1.6Z" fill="#056fcd"/><path d="M1132.435,207.138a1.6,1.6,0,0,1-1.605-1.6v-4.795a1.605,1.605,0,0,1,3.21,0v4.795a1.6,1.6,0,0,1-1.605,1.6Z" fill="#056fcd"/><path d="M1126.014,195.948H1121.2a1.6,1.6,0,0,1-1.605-1.6,1.6,1.6,0,0,1,1.605-1.6h4.815a1.6,1.6,0,1,1,0,3.2Z" fill="#056fcd"/><path d="M1143.671,195.948h-4.816a1.6,1.6,0,0,1-1.605-1.6,1.6,1.6,0,0,1,1.605-1.6h4.816a1.6,1.6,0,1,1,0,3.2Z" fill="#056fcd"/><path d="M1132.435,195.948a1.6,1.6,0,1,0-1.605-1.6A1.6,1.6,0,0,0,1132.435,195.948Z" fill="#056fcd"/><path d="M2104.615,147.186a.625.625,0,1,0-.628-.625A.626.626,0,0,0,2104.615,147.186Z" fill="#056fcd"/><path d="M1613.615,25.686a.627.627,0,0,1-.628-.625V23.186a.622.622,0,0,1,.184-.442.629.629,0,0,1,.887,0,.622.622,0,0,1,.184.442v1.875a.627.627,0,0,1-.627.625Z" fill="#056fcd"/><path d="M1613.615,32.561a.627.627,0,0,1-.628-.625V30.061a.622.622,0,0,1,.184-.442.629.629,0,0,1,.887,0,.622.622,0,0,1,.184.442v1.875a.627.627,0,0,1-.627.625Z" fill="#056fcd"/><path d="M1611.1,28.186h-1.882a.627.627,0,0,1-.628-.625.622.622,0,0,1,.184-.442.63.63,0,0,1,.444-.183h1.882a.63.63,0,0,1,.444.183.623.623,0,0,1,0,.884A.63.63,0,0,1,1611.1,28.186Z" fill="#056fcd"/><path d="M1618.008,28.186h-1.883a.627.627,0,0,1-.628-.625.622.622,0,0,1,.184-.442.63.63,0,0,1,.444-.183h1.883a.625.625,0,1,1,0,1.25Z" fill="#056fcd"/><path d="M1613.615,28.186a.625.625,0,1,0-.628-.625A.626.626,0,0,0,1613.615,28.186Z" fill="#056fcd"/><path d="M1583.882,67.873a16.431,16.431,0,0,1-11.954-11.912.491.491,0,0,0-.173-.287.5.5,0,0,0-.806.287A16.432,16.432,0,0,1,1559,67.873a.505.505,0,0,0-.289.172.5.5,0,0,0,.289.8,16.434,16.434,0,0,1,11.961,11.9.5.5,0,0,0,.806.287.494.494,0,0,0,.173-.287,16.433,16.433,0,0,1,11.954-11.9.5.5,0,0,0,.379-.486.5.5,0,0,0-.387-.481Z" fill="#056fcd"/><path d="M1077.478,51.374a6.426,6.426,0,0,1-4.672-4.657.2.2,0,0,0-.383,0,6.426,6.426,0,0,1-4.672,4.657.192.192,0,0,0-.113.067.2.2,0,0,0-.044.123.2.2,0,0,0,.044.123.2.2,0,0,0,.113.068,6.421,6.421,0,0,1,4.675,4.65.2.2,0,0,0,.068.112.2.2,0,0,0,.124.044.2.2,0,0,0,.191-.156,6.421,6.421,0,0,1,4.672-4.653.2.2,0,0,0,.108-.07.193.193,0,0,0-.111-.308Z" fill="#056fcd"/><path d="M1658.478,226.374a6.426,6.426,0,0,1-4.672-4.657.2.2,0,0,0-.383,0,6.426,6.426,0,0,1-4.672,4.657.192.192,0,0,0-.113.067.2.2,0,0,0-.044.123.2.2,0,0,0,.044.123.2.2,0,0,0,.113.068,6.421,6.421,0,0,1,4.675,4.65.2.2,0,0,0,.068.112.2.2,0,0,0,.124.044.2.2,0,0,0,.191-.156,6.421,6.421,0,0,1,4.672-4.653.2.2,0,0,0,.108-.07.193.193,0,0,0-.111-.308Z" fill="#056fcd"/><path d="M1982.435,207.138a12.789,12.789,0,1,0-12.841-12.788A12.815,12.815,0,0,0,1982.435,207.138Z" fill="#056fcd"/><path d="M1322.627,89.561a8,8,0,1,0-8.033-8A8.017,8.017,0,0,0,1322.627,89.561Z" fill="#056fcd"/><path d="M1491.594,109.561a2,2,0,1,0-2-2A2,2,0,0,0,1491.594,109.561Z" fill="#056fcd"/><path d="M1611.594,109.561a2,2,0,1,0-2-2A2,2,0,0,0,1611.594,109.561Z" fill="#056fcd"/><path d="M1612.594,188.561a2,2,0,1,0-2-2A2,2,0,0,0,1612.594,188.561Z" fill="#056fcd"/><path d="M2063.594,28.561a2,2,0,1,0-2-2A2,2,0,0,0,2063.594,28.561Z" fill="#056fcd"/><path d="M1487.594,192.561a2,2,0,1,0-2-2A2,2,0,0,0,1487.594,192.561Z" fill="#056fcd"/><path d="M1796.594,223.561a2,2,0,1,0-2-2A2,2,0,0,0,1796.594,223.561Z" fill="#056fcd"/><path d="M1453.594,29.561a2,2,0,1,0-2-2A2,2,0,0,0,1453.594,29.561Z" fill="#056fcd"/><path d="M1737.594,68.561a2,2,0,1,0-2-2A2,2,0,0,0,1737.594,68.561Z" fill="#056fcd"/><path d="M2144.594,109.561a2,2,0,1,0-2-2A2,2,0,0,0,2144.594,109.561Z" fill="#056fcd"/><path d="M1837.594,149.561a2,2,0,1,0-2-2A2,2,0,0,0,1837.594,149.561Z" fill="#056fcd"/><path d="M1694.3,191.56a.609.609,0,0,1-.291-.075l-2.412-1.328-2.413,1.328a.6.6,0,0,1-.335.074.611.611,0,0,1-.323-.124.655.655,0,0,1-.211-.283.679.679,0,0,1-.037-.357l.46-2.815-1.952-1.992a.657.657,0,0,1-.171-.312.683.683,0,0,1,.013-.359.65.65,0,0,1,.192-.3.622.622,0,0,1,.313-.147l2.7-.41,1.2-2.561a.665.665,0,0,1,.237-.248.624.624,0,0,1,.649,0,.659.659,0,0,1,.238.248l1.206,2.561,2.7.41a.612.612,0,0,1,.312.148.661.661,0,0,1,.192.3.684.684,0,0,1,.012.359.657.657,0,0,1-.171.312l-1.951,1.993.46,2.815a.671.671,0,0,1-.013.282.655.655,0,0,1-.125.25.634.634,0,0,1-.214.172.608.608,0,0,1-.264.061Zm-2.7-2.8a.592.592,0,0,1,.29.076l1.584.871-.3-1.846a.677.677,0,0,1,.022-.313.649.649,0,0,1,.158-.266l1.28-1.31-1.769-.269a.62.62,0,0,1-.278-.118.656.656,0,0,1-.193-.24l-.792-1.68-.791,1.682a.645.645,0,0,1-.193.239.611.611,0,0,1-.278.119l-1.769.269,1.28,1.31a.649.649,0,0,1,.158.266.677.677,0,0,1,.022.313l-.3,1.844,1.584-.87A.611.611,0,0,1,1691.594,188.762Z" fill="#056fcd"/><path d="M2229.3,51.56a.609.609,0,0,1-.291-.075l-2.412-1.328-2.413,1.328a.6.6,0,0,1-.335.074.611.611,0,0,1-.323-.124.655.655,0,0,1-.211-.283.679.679,0,0,1-.037-.357l.46-2.815-1.952-1.992a.662.662,0,0,1-.171-.312.687.687,0,0,1,.013-.36.652.652,0,0,1,.192-.3.606.606,0,0,1,.313-.147l2.7-.41,1.2-2.561a.665.665,0,0,1,.237-.248.624.624,0,0,1,.649,0,.659.659,0,0,1,.238.248l1.206,2.561,2.7.41a.612.612,0,0,1,.312.148.655.655,0,0,1,.192.3.684.684,0,0,1,.012.359.657.657,0,0,1-.171.312l-1.951,1.993.46,2.815a.671.671,0,0,1-.013.282.655.655,0,0,1-.125.25.634.634,0,0,1-.214.172.608.608,0,0,1-.264.061Zm-2.7-2.8a.592.592,0,0,1,.29.076l1.584.871-.3-1.846a.677.677,0,0,1,.022-.313.652.652,0,0,1,.158-.267l1.28-1.309-1.769-.27a.6.6,0,0,1-.278-.118.64.64,0,0,1-.193-.24l-.792-1.679-.791,1.681a.64.64,0,0,1-.193.24.6.6,0,0,1-.278.118l-1.769.27,1.28,1.309a.652.652,0,0,1,.158.267.677.677,0,0,1,.022.313l-.3,1.844,1.584-.87A.611.611,0,0,1,2226.594,48.762Z" fill="#056fcd"/><path d="M1382.382,206.979a1.6,1.6,0,0,1-.746-.184l-6.2-3.243-6.2,3.243a1.606,1.606,0,0,1-1.69-.122,1.591,1.591,0,0,1-.639-1.563l1.183-6.874-5.016-4.864a1.6,1.6,0,0,1,.892-2.727l6.93-1,3.093-6.253a1.674,1.674,0,0,1,2.889,0l3.1,6.253,6.929,1a1.6,1.6,0,0,1,1.295,1.089,1.595,1.595,0,0,1-.407,1.638l-5.013,4.866,1.183,6.874a1.6,1.6,0,0,1-1.583,1.868Zm-6.944-6.832a1.593,1.593,0,0,1,.747.183l4.069,2.128-.777-4.508a1.584,1.584,0,0,1,.056-.764,1.6,1.6,0,0,1,.406-.651l3.289-3.2-4.546-.658a1.619,1.619,0,0,1-.712-.289,1.588,1.588,0,0,1-.5-.586l-2.036-4.1-2.032,4.1a1.6,1.6,0,0,1-1.209.874l-4.545.659,3.289,3.2a1.6,1.6,0,0,1,.462,1.415l-.78,4.5,4.069-2.124A1.581,1.581,0,0,1,1375.438,200.147Z" fill="#056fcd"/><path d="M986.615,78.686a.63.63,0,0,1-.444-.183.622.622,0,0,1-.184-.442V76.186a.622.622,0,0,1,.184-.442.629.629,0,0,1,.887,0,.622.622,0,0,1,.184.442v1.875a.627.627,0,0,1-.627.625Z" fill="#056fcd"/><path d="M986.615,85.561a.63.63,0,0,1-.444-.183.622.622,0,0,1-.184-.442V83.061a.622.622,0,0,1,.184-.442.629.629,0,0,1,.887,0,.622.622,0,0,1,.184.442v1.875a.627.627,0,0,1-.627.625Z" fill="#056fcd"/><path d="M984.1,81.186h-1.882a.63.63,0,0,1-.444-.183.623.623,0,0,1,0-.884.63.63,0,0,1,.444-.183H984.1a.63.63,0,0,1,.444.183.623.623,0,0,1,0,.884A.63.63,0,0,1,984.1,81.186Z" fill="#056fcd"/><path d="M991.008,81.186h-1.883a.63.63,0,0,1-.444-.183.623.623,0,0,1,0-.884.63.63,0,0,1,.444-.183h1.883a.625.625,0,1,1,0,1.25Z" fill="#056fcd"/><path d="M61.739,114.656l1.457,3.1,3.259.5a.149.149,0,0,1,.081.038.159.159,0,0,1,.05.077.176.176,0,0,1,0,.094.184.184,0,0,1-.044.081l-2.358,2.411.557,3.407a.184.184,0,0,1-.01.093.175.175,0,0,1-.055.073.15.15,0,0,1-.083.032.157.157,0,0,1-.088-.018l-2.914-1.607-2.917,1.609a.165.165,0,0,1-.087.019.167.167,0,0,1-.138-.106.174.174,0,0,1-.01-.093L59,120.953l-2.357-2.411a.167.167,0,0,1-.045-.081.173.173,0,0,1,0-.093.165.165,0,0,1,.049-.077.158.158,0,0,1,.081-.039l3.26-.5,1.457-3.1a.155.155,0,0,1,.06-.069.152.152,0,0,1,.17,0A.155.155,0,0,1,61.739,114.656Z" fill="#056fcd"/><path d="M166.627,36.561a8,8,0,1,0-8.033-8A8.017,8.017,0,0,0,166.627,36.561Z" fill="#056fcd"/><path d="M868.382,238.979a1.6,1.6,0,0,1-.746-.184l-6.2-3.243-6.2,3.243a1.606,1.606,0,0,1-1.69-.122,1.591,1.591,0,0,1-.639-1.563l1.183-6.874-5.016-4.864a1.6,1.6,0,0,1,.892-2.727l6.93-1,3.093-6.253a1.674,1.674,0,0,1,2.889,0l3.1,6.253,6.929,1a1.6,1.6,0,0,1,1.3,1.089,1.595,1.595,0,0,1-.407,1.638l-5.013,4.866,1.183,6.874a1.6,1.6,0,0,1-1.583,1.868Zm-6.944-6.832a1.593,1.593,0,0,1,.747.183l4.069,2.128-.777-4.508a1.584,1.584,0,0,1,.056-.764,1.6,1.6,0,0,1,.406-.651l3.289-3.2-4.546-.658a1.619,1.619,0,0,1-.712-.289,1.588,1.588,0,0,1-.5-.586l-2.036-4.1-2.032,4.1a1.6,1.6,0,0,1-1.209.874l-4.545.659,3.289,3.2a1.6,1.6,0,0,1,.462,1.415l-.78,4.5,4.069-2.124A1.581,1.581,0,0,1,861.438,232.147Z" fill="#056fcd"/><path d="M730.615,37.186a.625.625,0,1,0-.628-.625A.626.626,0,0,0,730.615,37.186Z" fill="#056fcd"/><path d="M745.805,93.725a19.269,19.269,0,0,1-9.144-5.984,23.86,23.86,0,0,1-5.182-10.55.707.707,0,0,0-.207-.4.538.538,0,0,0-.758,0,.721.721,0,0,0-.208.4,23.849,23.849,0,0,1-5.182,10.55,19.264,19.264,0,0,1-9.142,5.984.586.586,0,0,0-.347.239.776.776,0,0,0,0,.875.591.591,0,0,0,.347.239,19.254,19.254,0,0,1,9.144,5.972,23.836,23.836,0,0,1,5.19,10.54.72.72,0,0,0,.207.4.537.537,0,0,0,.759,0,.714.714,0,0,0,.207-.4,23.846,23.846,0,0,1,5.184-10.544,19.258,19.258,0,0,1,9.142-5.979.6.6,0,0,0,.328-.247.773.773,0,0,0-.006-.855A.589.589,0,0,0,745.805,93.725Z" fill="#056fcd"/><path d="M186.594,165.561a2,2,0,1,0-2-2A2,2,0,0,0,186.594,165.561Z" fill="#056fcd"/><path d="M386.614,104.561a5,5,0,1,1,4.175-7.778,4.981,4.981,0,0,1-.626,6.312A5.04,5.04,0,0,1,386.614,104.561Zm0-8.572a3.573,3.573,0,0,0-3.517,4.269,3.583,3.583,0,0,0,2.818,2.806,3.59,3.59,0,0,0,3.681-1.519,3.575,3.575,0,0,0-2.982-5.556Z" fill="#056fcd"/><path d="M455.882,216.873a16.431,16.431,0,0,1-11.954-11.912.491.491,0,0,0-.173-.287.5.5,0,0,0-.806.287A16.432,16.432,0,0,1,431,216.873a.505.505,0,0,0-.289.172.5.5,0,0,0,.289.8,16.434,16.434,0,0,1,11.961,11.9.5.5,0,0,0,.806.287.494.494,0,0,0,.173-.287,16.433,16.433,0,0,1,11.954-11.9.5.5,0,0,0,.379-.486.5.5,0,0,0-.387-.481Z" fill="#056fcd"/><path d="M634.478,220.374a6.426,6.426,0,0,1-4.672-4.657.2.2,0,0,0-.383,0,6.426,6.426,0,0,1-4.672,4.657.192.192,0,0,0-.113.067.2.2,0,0,0-.044.123.2.2,0,0,0,.044.123.2.2,0,0,0,.113.068,6.421,6.421,0,0,1,4.675,4.65.2.2,0,0,0,.068.112.2.2,0,0,0,.124.044.2.2,0,0,0,.191-.156,6.421,6.421,0,0,1,4.672-4.653.2.2,0,0,0,.108-.07.193.193,0,0,0-.111-.308Z" fill="#056fcd"/><path d="M489.594,199.561a2,2,0,1,0-2-2A2,2,0,0,0,489.594,199.561Z" fill="#056fcd"/><path d="M688.594,48.561a2,2,0,1,0-2-2A2,2,0,0,0,688.594,48.561Z" fill="#056fcd"/><path d="M670.3,185.56a.609.609,0,0,1-.291-.075l-2.412-1.328-2.413,1.328a.6.6,0,0,1-.335.074.611.611,0,0,1-.323-.124.655.655,0,0,1-.211-.283.679.679,0,0,1-.037-.357l.46-2.815-1.952-1.992a.657.657,0,0,1-.171-.312.683.683,0,0,1,.013-.359.65.65,0,0,1,.192-.3.622.622,0,0,1,.313-.147l2.7-.41,1.205-2.561a.665.665,0,0,1,.237-.248.624.624,0,0,1,.649,0,.659.659,0,0,1,.238.248l1.206,2.561,2.7.41a.612.612,0,0,1,.312.148.661.661,0,0,1,.192.3.684.684,0,0,1,.012.359.657.657,0,0,1-.171.312l-1.951,1.993.46,2.815a.671.671,0,0,1-.013.282.655.655,0,0,1-.125.25.634.634,0,0,1-.214.172.608.608,0,0,1-.264.061Zm-2.7-2.8a.592.592,0,0,1,.29.076l1.584.871-.3-1.846a.677.677,0,0,1,.022-.313.649.649,0,0,1,.158-.266l1.28-1.31-1.769-.269a.62.62,0,0,1-.278-.118.656.656,0,0,1-.193-.24l-.792-1.68-.791,1.682a.645.645,0,0,1-.193.239.611.611,0,0,1-.278.119l-1.769.269,1.28,1.31a.649.649,0,0,1,.158.266.677.677,0,0,1,.022.313l-.3,1.844,1.584-.87A.611.611,0,0,1,667.594,182.762Z" fill="#056fcd"/><path d="M2027.435,105.554a1.6,1.6,0,0,1-1.605-1.6v-4.8a1.605,1.605,0,0,1,3.21,0v4.8a1.6,1.6,0,0,1-1.605,1.6Z" fill="#056fcd"/><path d="M2027.435,123.138a1.6,1.6,0,0,1-1.605-1.6v-4.8a1.605,1.605,0,0,1,3.21,0v4.8a1.6,1.6,0,0,1-1.605,1.6Z" fill="#056fcd"/><path d="M2021.014,111.948H2016.2a1.6,1.6,0,0,1-1.605-1.6,1.6,1.6,0,0,1,1.605-1.6h4.815a1.6,1.6,0,1,1,0,3.2Z" fill="#056fcd"/><path d="M2038.671,111.948h-4.816a1.6,1.6,0,0,1-1.605-1.6,1.6,1.6,0,0,1,1.605-1.6h4.816a1.6,1.6,0,1,1,0,3.2Z" fill="#056fcd"/><path d="M2027.435,111.948a1.6,1.6,0,1,0-1.605-1.6A1.6,1.6,0,0,0,2027.435,111.948Z" fill="#056fcd"/><path d="M900.3,178.56a.609.609,0,0,1-.291-.075l-2.412-1.328-2.413,1.328a.6.6,0,0,1-.335.074.611.611,0,0,1-.323-.124.655.655,0,0,1-.211-.283.679.679,0,0,1-.037-.357l.46-2.815-1.952-1.992a.657.657,0,0,1-.171-.312.683.683,0,0,1,.013-.359.65.65,0,0,1,.192-.3.622.622,0,0,1,.313-.147l2.7-.41,1.205-2.561a.665.665,0,0,1,.237-.248.624.624,0,0,1,.649,0,.659.659,0,0,1,.238.248l1.206,2.561,2.7.41a.612.612,0,0,1,.312.148.661.661,0,0,1,.192.3.684.684,0,0,1,.012.359.657.657,0,0,1-.171.312l-1.951,1.993.46,2.815a.671.671,0,0,1-.013.282.655.655,0,0,1-.125.25.634.634,0,0,1-.214.172.608.608,0,0,1-.264.061Zm-2.7-2.8a.592.592,0,0,1,.29.076l1.584.871-.3-1.846a.677.677,0,0,1,.022-.313.649.649,0,0,1,.158-.266l1.28-1.31-1.769-.269a.62.62,0,0,1-.278-.118.656.656,0,0,1-.193-.24l-.792-1.68-.791,1.682a.645.645,0,0,1-.193.239.611.611,0,0,1-.278.119l-1.769.269,1.28,1.31a.649.649,0,0,1,.158.266.677.677,0,0,1,.022.313l-.3,1.844,1.584-.87A.611.611,0,0,1,897.594,175.762Z" fill="#056fcd"/><path d="M2392.882,97.873a16.431,16.431,0,0,1-11.954-11.912.491.491,0,0,0-.173-.287.5.5,0,0,0-.806.287A16.432,16.432,0,0,1,2368,97.873a.505.505,0,0,0-.289.172.5.5,0,0,0,.289.8,16.434,16.434,0,0,1,11.961,11.9.5.5,0,0,0,.806.287.494.494,0,0,0,.173-.287,16.433,16.433,0,0,1,11.954-11.9.5.5,0,0,0,.379-.486.5.5,0,0,0-.387-.481Z" fill="#056fcd"/><path d="M2191.382,236.979a1.6,1.6,0,0,1-.746-.184l-6.2-3.243-6.2,3.243a1.606,1.606,0,0,1-1.69-.122,1.591,1.591,0,0,1-.639-1.563l1.183-6.874-5.016-4.864a1.6,1.6,0,0,1,.892-2.727l6.93-1,3.093-6.253a1.674,1.674,0,0,1,2.889,0l3.1,6.253,6.929,1a1.6,1.6,0,0,1,1.3,1.089,1.595,1.595,0,0,1-.407,1.638l-5.013,4.866,1.183,6.874a1.6,1.6,0,0,1-1.583,1.868Zm-6.944-6.832a1.593,1.593,0,0,1,.747.183l4.069,2.128-.777-4.508a1.584,1.584,0,0,1,.056-.764,1.6,1.6,0,0,1,.406-.651l3.289-3.2-4.546-.658a1.619,1.619,0,0,1-.712-.289,1.588,1.588,0,0,1-.5-.586l-2.036-4.1-2.032,4.1a1.6,1.6,0,0,1-1.209.874l-4.545.659,3.289,3.2a1.6,1.6,0,0,1,.462,1.415l-.78,4.5,4.069-2.124A1.581,1.581,0,0,1,2184.438,230.147Z" fill="#056fcd"/><path d="M241.83,192.941a11.239,11.239,0,0,1-10.381-6.908,11.191,11.191,0,0,1,8.189-15.257,11.256,11.256,0,0,1,11.534,4.758,11.143,11.143,0,0,1-1.4,14.125A11.273,11.273,0,0,1,241.83,192.941Zm0-19.183a8.026,8.026,0,0,0-7.415,4.934,8,8,0,0,0,5.849,10.9,8.041,8.041,0,0,0,8.239-3.4,8,8,0,0,0-6.673-12.433Z" fill="#056fcd"/><path d="M132.882,221.873a16.431,16.431,0,0,1-11.954-11.912.491.491,0,0,0-.173-.287.5.5,0,0,0-.806.287A16.432,16.432,0,0,1,108,221.873a.505.505,0,0,0-.289.172.5.5,0,0,0,.289.8,16.434,16.434,0,0,1,11.961,11.9.5.5,0,0,0,.806.287.494.494,0,0,0,.173-.287,16.433,16.433,0,0,1,11.954-11.9.5.5,0,0,0,.379-.486.5.5,0,0,0-.387-.481Z" fill="#056fcd"/><path d="M911.83,67.941a11.239,11.239,0,0,1-10.381-6.908,11.191,11.191,0,0,1,8.189-15.257,11.256,11.256,0,0,1,11.534,4.758,11.143,11.143,0,0,1-1.4,14.125A11.273,11.273,0,0,1,911.83,67.941Zm0-19.183a8.026,8.026,0,0,0-7.415,4.934,8,8,0,0,0,5.849,10.9,8.041,8.041,0,0,0,8.239-3.4,8,8,0,0,0-6.673-12.433Z" fill="#056fcd"/><rect x="-63.5" y="4.636" width="2500" height="250" fill="none"/></g><g clip-path="url(#b)"><ellipse cx="678.345" cy="203.437" rx="4.25" ry="4.191" fill="#b4009e"/><ellipse cx="681.619" cy="215.263" rx="3.755" ry="3.703" fill="#b4009e"/><ellipse cx="684.654" cy="225.914" rx="3.379" ry="3.332" fill="#b4009e"/><ellipse cx="687.491" cy="235.74" rx="2.987" ry="2.945" fill="#b4009e"/><ellipse cx="690.27" cy="245.414" rx="2.641" ry="2.604" fill="#b4009e"/><ellipse cx="770.518" cy="225.603" rx="4.25" ry="4.191" fill="#b4009e"/><ellipse cx="773.792" cy="237.429" rx="3.755" ry="3.703" fill="#b4009e"/><ellipse cx="776.827" cy="248.079" rx="3.379" ry="3.332" fill="#b4009e"/><ellipse cx="754.684" cy="221.407" rx="4.25" ry="4.191" fill="#b4009e"/><ellipse cx="757.959" cy="233.232" rx="3.755" ry="3.703" fill="#b4009e"/><ellipse cx="760.994" cy="243.883" rx="3.379" ry="3.332" fill="#b4009e"/><ellipse cx="739.439" cy="217.952" rx="4.25" ry="4.191" fill="#b4009e"/><ellipse cx="742.713" cy="229.778" rx="3.755" ry="3.703" fill="#b4009e"/><ellipse cx="745.748" cy="240.428" rx="3.379" ry="3.332" fill="#b4009e"/><ellipse cx="748.585" cy="250.254" rx="2.987" ry="2.945" fill="#b4009e"/><ellipse cx="724.535" cy="214.4" rx="4.25" ry="4.191" fill="#b4009e"/><ellipse cx="727.809" cy="226.225" rx="3.755" ry="3.703" fill="#b4009e"/><ellipse cx="730.844" cy="236.876" rx="3.379" ry="3.332" fill="#b4009e"/><ellipse cx="733.681" cy="246.702" rx="2.987" ry="2.945" fill="#b4009e"/><ellipse cx="709.289" cy="210.945" rx="4.25" ry="4.191" fill="#b4009e"/><ellipse cx="712.564" cy="222.771" rx="3.755" ry="3.703" fill="#b4009e"/><ellipse cx="715.599" cy="233.421" rx="3.379" ry="3.332" fill="#b4009e"/><ellipse cx="718.436" cy="243.247" rx="2.987" ry="2.945" fill="#b4009e"/><ellipse cx="693.945" cy="207.154" rx="4.25" ry="4.191" fill="#b4009e"/><ellipse cx="697.219" cy="218.98" rx="3.755" ry="3.703" fill="#b4009e"/><ellipse cx="700.254" cy="229.631" rx="3.379" ry="3.332" fill="#b4009e"/><ellipse cx="703.091" cy="239.457" rx="2.987" ry="2.945" fill="#b4009e"/><ellipse cx="705.87" cy="249.132" rx="2.641" ry="2.604" fill="#b4009e"/><ellipse cx="668.596" cy="249.714" rx="1.624" ry="1.602" fill="#b4009e"/><ellipse cx="673.255" cy="244.839" rx="1.386" ry="1.367" fill="#b4009e"/><ellipse cx="677.295" cy="240.699" rx="1.169" ry="1.153" fill="#b4009e"/><ellipse cx="681.189" cy="236.571" rx="0.938" ry="0.925" fill="#b4009e"/><ellipse cx="653.461" cy="246.94" rx="2.234" ry="2.203" fill="#b4009e"/><ellipse cx="659.23" cy="240.949" rx="1.949" ry="1.922" fill="#b4009e"/><ellipse cx="664.43" cy="235.609" rx="1.624" ry="1.602" fill="#b4009e"/><ellipse cx="669.088" cy="230.734" rx="1.386" ry="1.367" fill="#b4009e"/><ellipse cx="673.128" cy="226.594" rx="1.169" ry="1.153" fill="#b4009e"/><ellipse cx="677.023" cy="222.466" rx="0.938" ry="0.925" fill="#b4009e"/><ellipse cx="628.565" cy="252.89" rx="3.3" ry="3.254" fill="#b4009e"/><ellipse cx="635.51" cy="245.63" rx="2.917" ry="2.877" fill="#b4009e"/><ellipse cx="642.355" cy="238.495" rx="2.58" ry="2.544" fill="#b4009e"/><ellipse cx="648.741" cy="231.901" rx="2.234" ry="2.203" fill="#b4009e"/><ellipse cx="654.511" cy="225.91" rx="1.949" ry="1.922" fill="#b4009e"/><ellipse cx="659.71" cy="220.569" rx="1.624" ry="1.602" fill="#b4009e"/><ellipse cx="664.369" cy="215.695" rx="1.386" ry="1.367" fill="#b4009e"/><ellipse cx="668.409" cy="211.555" rx="1.169" ry="1.153" fill="#b4009e"/><ellipse cx="672.304" cy="207.427" rx="0.938" ry="0.925" fill="#b4009e"/><ellipse cx="856.942" cy="249.283" rx="1.949" ry="1.922" fill="#b4009e"/><ellipse cx="862.141" cy="243.942" rx="1.624" ry="1.602" fill="#b4009e"/><ellipse cx="866.8" cy="239.068" rx="1.386" ry="1.367" fill="#b4009e"/><ellipse cx="870.84" cy="234.927" rx="1.169" ry="1.153" fill="#b4009e"/><ellipse cx="874.734" cy="230.799" rx="0.938" ry="0.925" fill="#b4009e"/><ellipse cx="840.322" cy="246.755" rx="2.58" ry="2.544" fill="#b4009e"/><ellipse cx="846.708" cy="240.161" rx="2.234" ry="2.203" fill="#b4009e"/><ellipse cx="852.478" cy="234.171" rx="1.949" ry="1.922" fill="#b4009e"/><ellipse cx="857.677" cy="228.83" rx="1.624" ry="1.602" fill="#b4009e"/><ellipse cx="862.336" cy="223.955" rx="1.386" ry="1.367" fill="#b4009e"/><ellipse cx="866.376" cy="219.815" rx="1.169" ry="1.153" fill="#b4009e"/><ellipse cx="870.27" cy="215.687" rx="0.938" ry="0.925" fill="#b4009e"/><ellipse cx="821.887" cy="246.363" rx="3.3" ry="3.254" fill="#b4009e"/><ellipse cx="828.832" cy="239.103" rx="2.917" ry="2.877" fill="#b4009e"/><ellipse cx="835.677" cy="231.968" rx="2.58" ry="2.544" fill="#b4009e"/><ellipse cx="842.063" cy="225.374" rx="2.234" ry="2.203" fill="#b4009e"/><ellipse cx="847.833" cy="219.383" rx="1.949" ry="1.922" fill="#b4009e"/><ellipse cx="853.032" cy="214.043" rx="1.624" ry="1.602" fill="#b4009e"/><ellipse cx="857.691" cy="209.168" rx="1.386" ry="1.367" fill="#b4009e"/><ellipse cx="861.731" cy="205.028" rx="1.169" ry="1.153" fill="#b4009e"/><ellipse cx="865.626" cy="200.9" rx="0.938" ry="0.925" fill="#b4009e"/><ellipse cx="801.852" cy="248.136" rx="4.152" ry="4.094" fill="#b4009e"/><ellipse cx="810.28" cy="239.516" rx="3.668" ry="3.617" fill="#b4009e"/><ellipse cx="817.827" cy="231.681" rx="3.3" ry="3.254" fill="#b4009e"/><ellipse cx="824.772" cy="224.421" rx="2.917" ry="2.877" fill="#b4009e"/><ellipse cx="831.617" cy="217.286" rx="2.58" ry="2.544" fill="#b4009e"/><ellipse cx="838.004" cy="210.692" rx="2.234" ry="2.203" fill="#b4009e"/><ellipse cx="843.773" cy="204.701" rx="1.949" ry="1.922" fill="#b4009e"/><ellipse cx="848.973" cy="199.36" rx="1.624" ry="1.602" fill="#b4009e"/><ellipse cx="853.631" cy="194.486" rx="1.386" ry="1.367" fill="#b4009e"/><ellipse cx="857.671" cy="190.346" rx="1.169" ry="1.153" fill="#b4009e"/><ellipse cx="861.566" cy="186.218" rx="0.938" ry="0.925" fill="#b4009e"/><ellipse cx="797.686" cy="234.031" rx="4.152" ry="4.094" fill="#b4009e"/><ellipse cx="806.114" cy="225.411" rx="3.668" ry="3.617" fill="#b4009e"/><ellipse cx="813.661" cy="217.576" rx="3.3" ry="3.254" fill="#b4009e"/><ellipse cx="820.606" cy="210.316" rx="2.917" ry="2.877" fill="#b4009e"/><ellipse cx="827.451" cy="203.181" rx="2.58" ry="2.544" fill="#b4009e"/><ellipse cx="833.837" cy="196.587" rx="2.234" ry="2.203" fill="#b4009e"/><ellipse cx="839.607" cy="190.596" rx="1.949" ry="1.922" fill="#b4009e"/><ellipse cx="844.806" cy="185.256" rx="1.624" ry="1.602" fill="#b4009e"/><ellipse cx="849.465" cy="180.381" rx="1.386" ry="1.367" fill="#b4009e"/><ellipse cx="853.505" cy="176.241" rx="1.169" ry="1.153" fill="#b4009e"/><ellipse cx="857.4" cy="172.113" rx="0.938" ry="0.925" fill="#b4009e"/><ellipse cx="792.966" cy="218.992" rx="4.152" ry="4.094" fill="#b4009e"/><ellipse cx="801.394" cy="210.372" rx="3.668" ry="3.617" fill="#b4009e"/><ellipse cx="808.942" cy="202.537" rx="3.3" ry="3.254" fill="#b4009e"/><ellipse cx="815.887" cy="195.277" rx="2.917" ry="2.877" fill="#b4009e"/><ellipse cx="822.732" cy="188.142" rx="2.58" ry="2.544" fill="#b4009e"/><ellipse cx="829.118" cy="181.548" rx="2.234" ry="2.203" fill="#b4009e"/><ellipse cx="834.888" cy="175.557" rx="1.949" ry="1.922" fill="#b4009e"/><ellipse cx="840.087" cy="170.216" rx="1.624" ry="1.602" fill="#b4009e"/><ellipse cx="844.746" cy="165.342" rx="1.386" ry="1.367" fill="#b4009e"/><ellipse cx="848.786" cy="161.202" rx="1.169" ry="1.153" fill="#b4009e"/><ellipse cx="852.68" cy="157.074" rx="0.938" ry="0.925" fill="#b4009e"/><ellipse cx="883.719" cy="240.7" rx="4.25" ry="4.191" fill="#b4009e"/><ellipse cx="875.091" cy="249.525" rx="3.755" ry="3.703" fill="#b4009e"/><ellipse cx="929.334" cy="251.281" rx="4.25" ry="4.191" fill="#b4009e"/><ellipse cx="914.21" cy="247.609" rx="4.25" ry="4.191" fill="#b4009e"/><ellipse cx="898.915" cy="243.987" rx="4.25" ry="4.191" fill="#b4009e"/><ellipse cx="890.287" cy="252.812" rx="3.755" ry="3.703" fill="#b4009e"/><ellipse cx="1174.999" cy="228.614" rx="4.25" ry="4.191" fill="#b4009e"/><ellipse cx="1178.273" cy="240.44" rx="3.755" ry="3.703" fill="#b4009e"/><ellipse cx="1181.308" cy="251.09" rx="3.379" ry="3.332" fill="#b4009e"/><ellipse cx="1267.172" cy="250.78" rx="4.25" ry="4.191" fill="#b4009e"/><ellipse cx="1251.338" cy="246.583" rx="4.25" ry="4.191" fill="#b4009e"/><ellipse cx="1236.093" cy="243.128" rx="4.25" ry="4.191" fill="#b4009e"/><ellipse cx="1221.188" cy="239.576" rx="4.25" ry="4.191" fill="#b4009e"/><ellipse cx="1224.462" cy="251.402" rx="3.755" ry="3.703" fill="#b4009e"/><ellipse cx="1205.943" cy="236.121" rx="4.25" ry="4.191" fill="#b4009e"/><ellipse cx="1209.217" cy="247.947" rx="3.755" ry="3.703" fill="#b4009e"/><ellipse cx="1190.599" cy="232.331" rx="4.25" ry="4.191" fill="#b4009e"/><ellipse cx="1193.873" cy="244.157" rx="3.755" ry="3.703" fill="#b4009e"/><ellipse cx="1173.677" cy="247.642" rx="0.938" ry="0.925" fill="#b4009e"/><ellipse cx="1151.165" cy="251.087" rx="1.949" ry="1.922" fill="#b4009e"/><ellipse cx="1156.364" cy="245.746" rx="1.624" ry="1.602" fill="#b4009e"/><ellipse cx="1161.023" cy="240.872" rx="1.386" ry="1.367" fill="#b4009e"/><ellipse cx="1165.063" cy="236.731" rx="1.169" ry="1.153" fill="#b4009e"/><ellipse cx="1168.957" cy="232.603" rx="0.938" ry="0.925" fill="#b4009e"/><ellipse cx="1358.989" cy="249.132" rx="1.386" ry="1.367" fill="#b4009e"/><ellipse cx="1363.029" cy="244.991" rx="1.169" ry="1.153" fill="#b4009e"/><ellipse cx="1366.924" cy="240.863" rx="0.938" ry="0.925" fill="#b4009e"/><ellipse cx="1338.717" cy="250.55" rx="2.234" ry="2.203" fill="#b4009e"/><ellipse cx="1344.487" cy="244.56" rx="1.949" ry="1.922" fill="#b4009e"/><ellipse cx="1349.686" cy="239.219" rx="1.624" ry="1.602" fill="#b4009e"/><ellipse cx="1354.344" cy="234.345" rx="1.386" ry="1.367" fill="#b4009e"/><ellipse cx="1358.384" cy="230.204" rx="1.169" ry="1.153" fill="#b4009e"/><ellipse cx="1362.279" cy="226.076" rx="0.938" ry="0.925" fill="#b4009e"/><ellipse cx="1321.426" cy="249.598" rx="2.917" ry="2.877" fill="#b4009e"/><ellipse cx="1328.271" cy="242.463" rx="2.58" ry="2.544" fill="#b4009e"/><ellipse cx="1334.657" cy="235.868" rx="2.234" ry="2.203" fill="#b4009e"/><ellipse cx="1340.427" cy="229.878" rx="1.949" ry="1.922" fill="#b4009e"/><ellipse cx="1345.626" cy="224.537" rx="1.624" ry="1.602" fill="#b4009e"/><ellipse cx="1350.285" cy="219.663" rx="1.386" ry="1.367" fill="#b4009e"/><ellipse cx="1354.325" cy="215.522" rx="1.169" ry="1.153" fill="#b4009e"/><ellipse cx="1358.22" cy="211.394" rx="0.938" ry="0.925" fill="#b4009e"/><ellipse cx="1302.767" cy="250.587" rx="3.668" ry="3.617" fill="#b4009e"/><ellipse cx="1310.315" cy="242.752" rx="3.3" ry="3.254" fill="#b4009e"/><ellipse cx="1317.26" cy="235.493" rx="2.917" ry="2.877" fill="#b4009e"/><ellipse cx="1324.105" cy="228.358" rx="2.58" ry="2.544" fill="#b4009e"/><ellipse cx="1330.491" cy="221.763" rx="2.234" ry="2.203" fill="#b4009e"/><ellipse cx="1336.261" cy="215.773" rx="1.949" ry="1.922" fill="#b4009e"/><ellipse cx="1341.46" cy="210.432" rx="1.624" ry="1.602" fill="#b4009e"/><ellipse cx="1346.119" cy="205.558" rx="1.386" ry="1.367" fill="#b4009e"/><ellipse cx="1350.159" cy="201.417" rx="1.169" ry="1.153" fill="#b4009e"/><ellipse cx="1354.053" cy="197.289" rx="0.938" ry="0.925" fill="#b4009e"/><ellipse cx="1289.62" cy="244.168" rx="4.152" ry="4.094" fill="#b4009e"/><ellipse cx="1298.048" cy="235.548" rx="3.668" ry="3.617" fill="#b4009e"/><ellipse cx="1305.596" cy="227.713" rx="3.3" ry="3.254" fill="#b4009e"/><ellipse cx="1312.54" cy="220.454" rx="2.917" ry="2.877" fill="#b4009e"/><ellipse cx="1319.385" cy="213.319" rx="2.58" ry="2.544" fill="#b4009e"/><ellipse cx="1325.772" cy="206.724" rx="2.234" ry="2.203" fill="#b4009e"/><ellipse cx="1331.542" cy="200.734" rx="1.949" ry="1.922" fill="#b4009e"/><ellipse cx="1336.741" cy="195.393" rx="1.624" ry="1.602" fill="#b4009e"/><ellipse cx="1341.399" cy="190.519" rx="1.386" ry="1.367" fill="#b4009e"/><ellipse cx="1345.439" cy="186.378" rx="1.169" ry="1.153" fill="#b4009e"/><ellipse cx="1349.334" cy="182.25" rx="0.938" ry="0.925" fill="#b4009e"/><ellipse cx="1561.573" cy="219.584" rx="4.25" ry="4.191" fill="#b4009e"/><ellipse cx="1552.945" cy="228.409" rx="3.755" ry="3.703" fill="#b4009e"/><ellipse cx="1545.218" cy="236.431" rx="3.379" ry="3.332" fill="#b4009e"/><ellipse cx="1538.108" cy="243.862" rx="2.987" ry="2.945" fill="#b4009e"/><ellipse cx="1531.101" cy="251.167" rx="2.641" ry="2.604" fill="#b4009e"/><ellipse cx="1653.221" cy="241.536" rx="4.25" ry="4.191" fill="#b4009e"/><ellipse cx="1644.593" cy="250.361" rx="3.755" ry="3.703" fill="#b4009e"/><ellipse cx="1637.508" cy="237.123" rx="4.25" ry="4.191" fill="#b4009e"/><ellipse cx="1628.88" cy="245.948" rx="3.755" ry="3.703" fill="#b4009e"/><ellipse cx="1621.972" cy="233.934" rx="4.25" ry="4.191" fill="#b4009e"/><ellipse cx="1613.344" cy="242.759" rx="3.755" ry="3.703" fill="#b4009e"/><ellipse cx="1605.617" cy="250.781" rx="3.379" ry="3.332" fill="#b4009e"/><ellipse cx="1607.188" cy="230.165" rx="4.25" ry="4.191" fill="#b4009e"/><ellipse cx="1598.56" cy="238.99" rx="3.755" ry="3.703" fill="#b4009e"/><ellipse cx="1590.833" cy="247.011" rx="3.379" ry="3.332" fill="#b4009e"/><ellipse cx="1592.064" cy="226.493" rx="4.25" ry="4.191" fill="#b4009e"/><ellipse cx="1583.435" cy="235.319" rx="3.755" ry="3.703" fill="#b4009e"/><ellipse cx="1575.708" cy="243.34" rx="3.379" ry="3.332" fill="#b4009e"/><ellipse cx="1568.599" cy="250.771" rx="2.987" ry="2.945" fill="#b4009e"/><ellipse cx="1576.769" cy="222.871" rx="4.25" ry="4.191" fill="#b4009e"/><ellipse cx="1568.141" cy="231.696" rx="3.755" ry="3.703" fill="#b4009e"/><ellipse cx="1560.414" cy="239.717" rx="3.379" ry="3.332" fill="#b4009e"/><ellipse cx="1553.304" cy="247.149" rx="2.987" ry="2.945" fill="#b4009e"/><ellipse cx="1838.985" cy="251.338" rx="1.624" ry="1.602" fill="#b4009e"/><ellipse cx="1843.644" cy="246.463" rx="1.386" ry="1.367" fill="#b4009e"/><ellipse cx="1847.684" cy="242.323" rx="1.169" ry="1.153" fill="#b4009e"/><ellipse cx="1851.579" cy="238.195" rx="0.938" ry="0.925" fill="#b4009e"/><ellipse cx="1823.85" cy="248.564" rx="2.234" ry="2.203" fill="#b4009e"/><ellipse cx="1829.62" cy="242.574" rx="1.949" ry="1.922" fill="#b4009e"/><ellipse cx="1834.819" cy="237.233" rx="1.624" ry="1.602" fill="#b4009e"/><ellipse cx="1839.478" cy="232.359" rx="1.386" ry="1.367" fill="#b4009e"/><ellipse cx="1843.518" cy="228.218" rx="1.169" ry="1.153" fill="#b4009e"/><ellipse cx="1847.412" cy="224.09" rx="0.938" ry="0.925" fill="#b4009e"/><ellipse cx="1805.899" cy="247.255" rx="2.917" ry="2.877" fill="#b4009e"/><ellipse cx="1812.744" cy="240.12" rx="2.58" ry="2.544" fill="#b4009e"/><ellipse cx="1819.131" cy="233.525" rx="2.234" ry="2.203" fill="#b4009e"/><ellipse cx="1824.901" cy="227.535" rx="1.949" ry="1.922" fill="#b4009e"/><ellipse cx="1830.1" cy="222.194" rx="1.624" ry="1.602" fill="#b4009e"/><ellipse cx="1834.758" cy="217.319" rx="1.386" ry="1.367" fill="#b4009e"/><ellipse cx="1838.798" cy="213.179" rx="1.169" ry="1.153" fill="#b4009e"/><ellipse cx="1842.693" cy="209.051" rx="0.938" ry="0.925" fill="#b4009e"/><ellipse cx="2340.286" cy="233.098" rx="4.25" ry="4.191" fill="#b4009e"/><ellipse cx="2343.56" cy="244.924" rx="3.755" ry="3.703" fill="#b4009e"/><ellipse cx="2416.625" cy="251.067" rx="4.25" ry="4.191" fill="#b4009e"/><ellipse cx="2401.38" cy="247.612" rx="4.25" ry="4.191" fill="#b4009e"/><ellipse cx="2386.475" cy="244.06" rx="4.25" ry="4.191" fill="#b4009e"/><ellipse cx="2371.23" cy="240.605" rx="4.25" ry="4.191" fill="#b4009e"/><ellipse cx="2374.504" cy="252.431" rx="3.755" ry="3.703" fill="#b4009e"/><ellipse cx="2355.886" cy="236.815" rx="4.25" ry="4.191" fill="#b4009e"/><ellipse cx="2359.16" cy="248.641" rx="3.755" ry="3.703" fill="#b4009e"/><ellipse cx="2321.651" cy="250.23" rx="1.624" ry="1.602" fill="#b4009e"/><ellipse cx="2326.31" cy="245.356" rx="1.386" ry="1.367" fill="#b4009e"/><ellipse cx="2330.35" cy="241.215" rx="1.169" ry="1.153" fill="#b4009e"/><ellipse cx="2334.245" cy="237.087" rx="0.938" ry="0.925" fill="#b4009e"/><ellipse cx="2029.075" cy="250.863" rx="1.624" ry="1.602" fill="#b4009e"/><ellipse cx="2033.734" cy="245.988" rx="1.386" ry="1.367" fill="#b4009e"/><ellipse cx="2037.774" cy="241.848" rx="1.169" ry="1.153" fill="#b4009e"/><ellipse cx="2041.669" cy="237.72" rx="0.938" ry="0.925" fill="#b4009e"/><ellipse cx="2013.642" cy="247.081" rx="2.234" ry="2.203" fill="#b4009e"/><ellipse cx="2019.412" cy="241.091" rx="1.949" ry="1.922" fill="#b4009e"/><ellipse cx="2024.611" cy="235.75" rx="1.624" ry="1.602" fill="#b4009e"/><ellipse cx="2029.27" cy="230.876" rx="1.386" ry="1.367" fill="#b4009e"/><ellipse cx="2033.31" cy="226.735" rx="1.169" ry="1.153" fill="#b4009e"/><ellipse cx="2037.205" cy="222.607" rx="0.938" ry="0.925" fill="#b4009e"/><ellipse cx="1995.766" cy="246.024" rx="2.917" ry="2.877" fill="#b4009e"/><ellipse cx="2002.611" cy="238.889" rx="2.58" ry="2.544" fill="#b4009e"/><ellipse cx="2008.998" cy="232.294" rx="2.234" ry="2.203" fill="#b4009e"/><ellipse cx="2014.767" cy="226.304" rx="1.949" ry="1.922" fill="#b4009e"/><ellipse cx="2019.967" cy="220.963" rx="1.624" ry="1.602" fill="#b4009e"/><ellipse cx="2024.625" cy="216.089" rx="1.386" ry="1.367" fill="#b4009e"/><ellipse cx="2028.665" cy="211.948" rx="1.169" ry="1.153" fill="#b4009e"/><ellipse cx="2032.56" cy="207.82" rx="0.938" ry="0.925" fill="#b4009e"/><ellipse cx="1977.214" cy="246.436" rx="3.668" ry="3.617" fill="#b4009e"/><ellipse cx="1984.762" cy="238.601" rx="3.3" ry="3.254" fill="#b4009e"/><ellipse cx="1991.707" cy="231.342" rx="2.917" ry="2.877" fill="#b4009e"/><ellipse cx="1998.552" cy="224.207" rx="2.58" ry="2.544" fill="#b4009e"/><ellipse cx="2004.938" cy="217.612" rx="2.234" ry="2.203" fill="#b4009e"/><ellipse cx="2010.708" cy="211.622" rx="1.949" ry="1.922" fill="#b4009e"/><ellipse cx="2015.907" cy="206.281" rx="1.624" ry="1.602" fill="#b4009e"/><ellipse cx="2020.566" cy="201.407" rx="1.386" ry="1.367" fill="#b4009e"/><ellipse cx="2024.606" cy="197.266" rx="1.169" ry="1.153" fill="#b4009e"/><ellipse cx="2028.5" cy="193.138" rx="0.938" ry="0.925" fill="#b4009e"/><ellipse cx="1964.62" cy="240.951" rx="4.152" ry="4.094" fill="#b4009e"/><ellipse cx="1973.048" cy="232.331" rx="3.668" ry="3.617" fill="#b4009e"/><ellipse cx="1980.596" cy="224.496" rx="3.3" ry="3.254" fill="#b4009e"/><ellipse cx="1987.54" cy="217.237" rx="2.917" ry="2.877" fill="#b4009e"/><ellipse cx="1994.385" cy="210.102" rx="2.58" ry="2.544" fill="#b4009e"/><ellipse cx="2000.772" cy="203.507" rx="2.234" ry="2.203" fill="#b4009e"/><ellipse cx="2006.542" cy="197.517" rx="1.949" ry="1.922" fill="#b4009e"/><ellipse cx="2011.741" cy="192.176" rx="1.624" ry="1.602" fill="#b4009e"/><ellipse cx="2016.399" cy="187.302" rx="1.386" ry="1.367" fill="#b4009e"/><ellipse cx="2020.439" cy="183.161" rx="1.169" ry="1.153" fill="#b4009e"/><ellipse cx="2024.334" cy="179.033" rx="0.938" ry="0.925" fill="#b4009e"/><ellipse cx="1959.901" cy="225.912" rx="4.152" ry="4.094" fill="#b4009e"/><ellipse cx="1968.329" cy="217.292" rx="3.668" ry="3.617" fill="#b4009e"/><ellipse cx="1975.876" cy="209.457" rx="3.3" ry="3.254" fill="#b4009e"/><ellipse cx="1982.821" cy="202.198" rx="2.917" ry="2.877" fill="#b4009e"/><ellipse cx="1989.666" cy="195.063" rx="2.58" ry="2.544" fill="#b4009e"/><ellipse cx="1996.053" cy="188.468" rx="2.234" ry="2.203" fill="#b4009e"/><ellipse cx="2001.822" cy="182.478" rx="1.949" ry="1.922" fill="#b4009e"/><ellipse cx="2007.022" cy="177.137" rx="1.624" ry="1.602" fill="#b4009e"/><ellipse cx="2011.68" cy="172.263" rx="1.386" ry="1.367" fill="#b4009e"/><ellipse cx="2015.72" cy="168.122" rx="1.169" ry="1.153" fill="#b4009e"/><ellipse cx="2019.615" cy="163.994" rx="0.938" ry="0.925" fill="#b4009e"/><ellipse cx="2050.654" cy="247.62" rx="4.25" ry="4.191" fill="#b4009e"/><ellipse cx="2065.849" cy="250.907" rx="4.25" ry="4.191" fill="#b4009e"/><ellipse cx="2231.03" cy="197.267" rx="4.25" ry="4.191" fill="#b4009e"/><ellipse cx="2222.402" cy="206.092" rx="3.755" ry="3.703" fill="#b4009e"/><ellipse cx="2214.675" cy="214.114" rx="3.379" ry="3.332" fill="#b4009e"/><ellipse cx="2207.565" cy="221.545" rx="2.987" ry="2.945" fill="#b4009e"/><ellipse cx="2200.558" cy="228.85" rx="2.641" ry="2.604" fill="#b4009e"/><ellipse cx="2194.02" cy="235.601" rx="2.287" ry="2.255" fill="#b4009e"/><ellipse cx="2188.113" cy="241.734" rx="1.995" ry="1.968" fill="#b4009e"/><ellipse cx="2182.79" cy="247.202" rx="1.663" ry="1.64" fill="#b4009e"/><ellipse cx="2322.679" cy="219.219" rx="4.25" ry="4.191" fill="#b4009e"/><ellipse cx="2314.05" cy="228.045" rx="3.755" ry="3.703" fill="#b4009e"/><ellipse cx="2306.323" cy="236.066" rx="3.379" ry="3.332" fill="#b4009e"/><ellipse cx="2299.214" cy="243.498" rx="2.987" ry="2.945" fill="#b4009e"/><ellipse cx="2292.206" cy="250.802" rx="2.641" ry="2.604" fill="#b4009e"/><ellipse cx="2306.965" cy="214.806" rx="4.25" ry="4.191" fill="#b4009e"/><ellipse cx="2298.337" cy="223.631" rx="3.755" ry="3.703" fill="#b4009e"/><ellipse cx="2290.61" cy="231.653" rx="3.379" ry="3.332" fill="#b4009e"/><ellipse cx="2283.5" cy="239.084" rx="2.987" ry="2.945" fill="#b4009e"/><ellipse cx="2276.493" cy="246.389" rx="2.641" ry="2.604" fill="#b4009e"/><ellipse cx="2291.429" cy="211.617" rx="4.25" ry="4.191" fill="#b4009e"/><ellipse cx="2282.801" cy="220.442" rx="3.755" ry="3.703" fill="#b4009e"/><ellipse cx="2275.074" cy="228.464" rx="3.379" ry="3.332" fill="#b4009e"/><ellipse cx="2267.964" cy="235.895" rx="2.987" ry="2.945" fill="#b4009e"/><ellipse cx="2260.957" cy="243.2" rx="2.641" ry="2.604" fill="#b4009e"/><ellipse cx="2254.418" cy="249.951" rx="2.287" ry="2.255" fill="#b4009e"/><ellipse cx="2276.645" cy="207.848" rx="4.25" ry="4.191" fill="#b4009e"/><ellipse cx="2268.017" cy="216.673" rx="3.755" ry="3.703" fill="#b4009e"/><ellipse cx="2260.29" cy="224.694" rx="3.379" ry="3.332" fill="#b4009e"/><ellipse cx="2253.18" cy="232.126" rx="2.987" ry="2.945" fill="#b4009e"/><ellipse cx="2246.173" cy="239.431" rx="2.641" ry="2.604" fill="#b4009e"/><ellipse cx="2239.634" cy="246.182" rx="2.287" ry="2.255" fill="#b4009e"/><ellipse cx="2261.521" cy="204.176" rx="4.25" ry="4.191" fill="#b4009e"/><ellipse cx="2252.893" cy="213.002" rx="3.755" ry="3.703" fill="#b4009e"/><ellipse cx="2245.166" cy="221.023" rx="3.379" ry="3.332" fill="#b4009e"/><ellipse cx="2238.056" cy="228.455" rx="2.987" ry="2.945" fill="#b4009e"/><ellipse cx="2231.048" cy="235.759" rx="2.641" ry="2.604" fill="#b4009e"/><ellipse cx="2224.51" cy="242.511" rx="2.287" ry="2.255" fill="#b4009e"/><ellipse cx="2218.603" cy="248.643" rx="1.995" ry="1.968" fill="#b4009e"/><ellipse cx="2246.226" cy="200.554" rx="4.25" ry="4.191" fill="#b4009e"/><ellipse cx="2237.598" cy="209.379" rx="3.755" ry="3.703" fill="#b4009e"/><ellipse cx="2229.871" cy="217.4" rx="3.379" ry="3.332" fill="#b4009e"/><ellipse cx="2222.761" cy="224.832" rx="2.987" ry="2.945" fill="#b4009e"/><ellipse cx="2215.753" cy="232.137" rx="2.641" ry="2.604" fill="#b4009e"/><ellipse cx="2209.215" cy="238.888" rx="2.287" ry="2.255" fill="#b4009e"/><ellipse cx="2203.308" cy="245.021" rx="1.995" ry="1.968" fill="#b4009e"/><ellipse cx="2197.985" cy="250.489" rx="1.663" ry="1.64" fill="#b4009e"/><ellipse cx="1849.414" cy="189.3" rx="4.25" ry="4.191" fill="#b4009e"/><ellipse cx="1852.688" cy="201.125" rx="3.755" ry="3.703" fill="#b4009e"/><ellipse cx="1855.723" cy="211.776" rx="3.379" ry="3.332" fill="#b4009e"/><ellipse cx="1858.56" cy="221.602" rx="2.987" ry="2.945" fill="#b4009e"/><ellipse cx="1861.339" cy="231.277" rx="2.641" ry="2.604" fill="#b4009e"/><ellipse cx="1863.876" cy="240.271" rx="2.287" ry="2.255" fill="#b4009e"/><ellipse cx="1866.196" cy="248.413" rx="1.995" ry="1.968" fill="#b4009e"/><ellipse cx="1941.587" cy="211.465" rx="4.25" ry="4.191" fill="#b4009e"/><ellipse cx="1944.861" cy="223.291" rx="3.755" ry="3.703" fill="#b4009e"/><ellipse cx="1947.896" cy="233.942" rx="3.379" ry="3.332" fill="#b4009e"/><ellipse cx="1950.733" cy="243.768" rx="2.987" ry="2.945" fill="#b4009e"/><ellipse cx="1925.753" cy="207.269" rx="4.25" ry="4.191" fill="#b4009e"/><ellipse cx="1929.027" cy="219.095" rx="3.755" ry="3.703" fill="#b4009e"/><ellipse cx="1932.062" cy="229.745" rx="3.379" ry="3.332" fill="#b4009e"/><ellipse cx="1934.899" cy="239.571" rx="2.987" ry="2.945" fill="#b4009e"/><ellipse cx="1937.678" cy="249.246" rx="2.641" ry="2.604" fill="#b4009e"/><ellipse cx="1910.508" cy="203.814" rx="4.25" ry="4.191" fill="#b4009e"/><ellipse cx="1913.782" cy="215.64" rx="3.755" ry="3.703" fill="#b4009e"/><ellipse cx="1916.817" cy="226.291" rx="3.379" ry="3.332" fill="#b4009e"/><ellipse cx="1919.654" cy="236.117" rx="2.987" ry="2.945" fill="#b4009e"/><ellipse cx="1922.433" cy="245.792" rx="2.641" ry="2.604" fill="#b4009e"/><ellipse cx="1895.603" cy="200.262" rx="4.25" ry="4.191" fill="#b4009e"/><ellipse cx="1898.878" cy="212.088" rx="3.755" ry="3.703" fill="#b4009e"/><ellipse cx="1901.913" cy="222.738" rx="3.379" ry="3.332" fill="#b4009e"/><ellipse cx="1904.75" cy="232.564" rx="2.987" ry="2.945" fill="#b4009e"/><ellipse cx="1907.528" cy="242.239" rx="2.641" ry="2.604" fill="#b4009e"/><ellipse cx="1910.065" cy="251.233" rx="2.287" ry="2.255" fill="#b4009e"/><ellipse cx="1880.358" cy="196.807" rx="4.25" ry="4.191" fill="#b4009e"/><ellipse cx="1883.632" cy="208.633" rx="3.755" ry="3.703" fill="#b4009e"/><ellipse cx="1886.667" cy="219.284" rx="3.379" ry="3.332" fill="#b4009e"/><ellipse cx="1889.504" cy="229.11" rx="2.987" ry="2.945" fill="#b4009e"/><ellipse cx="1892.283" cy="238.784" rx="2.641" ry="2.604" fill="#b4009e"/><ellipse cx="1894.82" cy="247.778" rx="2.287" ry="2.255" fill="#b4009e"/><ellipse cx="1865.014" cy="193.017" rx="4.25" ry="4.191" fill="#b4009e"/><ellipse cx="1868.288" cy="204.843" rx="3.755" ry="3.703" fill="#b4009e"/><ellipse cx="1871.323" cy="215.493" rx="3.379" ry="3.332" fill="#b4009e"/><ellipse cx="1874.16" cy="225.319" rx="2.987" ry="2.945" fill="#b4009e"/><ellipse cx="1876.939" cy="234.994" rx="2.641" ry="2.604" fill="#b4009e"/><ellipse cx="1879.475" cy="243.988" rx="2.287" ry="2.255" fill="#b4009e"/><ellipse cx="2495.205" cy="249.383" rx="2.58" ry="2.544" fill="#b4009e"/><ellipse cx="2501.592" cy="242.789" rx="2.234" ry="2.203" fill="#b4009e"/><ellipse cx="2477.249" cy="249.673" rx="3.3" ry="3.254" fill="#b4009e"/><ellipse cx="2484.194" cy="242.413" rx="2.917" ry="2.877" fill="#b4009e"/><ellipse cx="2491.039" cy="235.278" rx="2.58" ry="2.544" fill="#b4009e"/><ellipse cx="2497.425" cy="228.684" rx="2.234" ry="2.203" fill="#b4009e"/><ellipse cx="2456.554" cy="251.089" rx="4.152" ry="4.094" fill="#b4009e"/><ellipse cx="2464.982" cy="242.469" rx="3.668" ry="3.617" fill="#b4009e"/><ellipse cx="2472.53" cy="234.633" rx="3.3" ry="3.254" fill="#b4009e"/><ellipse cx="2479.475" cy="227.374" rx="2.917" ry="2.877" fill="#b4009e"/><ellipse cx="2486.32" cy="220.239" rx="2.58" ry="2.544" fill="#b4009e"/><ellipse cx="2492.706" cy="213.645" rx="2.234" ry="2.203" fill="#b4009e"/><ellipse cx="2498.476" cy="207.654" rx="1.949" ry="1.922" fill="#b4009e"/></g></svg>