<svg xmlns="http://www.w3.org/2000/svg" viewBox="0 0 2500 250"><title>banner-bugs-gray</title><rect width="2500" height="250" fill="#464646"/><path d="M1514.046,250.333a69.3,69.3,0,1,0-103.619,0Z" fill="#505050" opacity="0.5"/><path d="M2498.716,45.562a69.254,69.254,0,1,0,0,81.676Z" fill="#505050" opacity="0.5"/><path d="M2043.274,249.826h74.884a69.3,69.3,0,1,0-74.884,0Z" fill="#505050" opacity="0.5"/><path d="M1220.61-.174h-96.621a69.3,69.3,0,1,0,96.621,0Z" fill="#505050" opacity="0.5"/><path d="M171.621-.174H95.811a69.3,69.3,0,1,0,75.81,0Z" fill="#505050" opacity="0.5"/><path d="M699.487,250.182h62.458a69.3,69.3,0,1,0-62.458,0Z" fill="#505050" opacity="0.5"/><path d="M139.6,26.32v9.409a36.676,36.676,0,0,0-8.651-.427l-3.148-7.87a1.769,1.769,0,1,0-3.284,1.314l2.794,6.985c-.9.15-1.81.329-2.72.547-.125.027-.248.06-.371.09l-.323.078c-.018.005-.034.013-.052.018-.385.1-.765.226-1.141.356.11.166.222.327.33.5a36,36,0,0,1,5.044,17.832h29.561v2.829H128.083a36.031,36.031,0,0,1-5.049,17.95c-.15.236-.3.462-.458.689a17.039,17.039,0,0,0,3.874.892.871.871,0,0,0,.357.1l.413.012-2.7,6.76a1.768,1.768,0,1,0,3.284,1.313l3.2-8a57.416,57.416,0,0,0,8.6-.475v9.591a1.769,1.769,0,0,0,3.537,0V76.5a35.331,35.331,0,0,0,7.5-2.985l3.2,9.606a1.769,1.769,0,0,0,3.447-.559A1.793,1.793,0,0,0,157.2,82l-3.419-10.255c5.814-3.569,9.523-8.965,9.523-15.007,0-5.676-3.273-10.782-8.489-14.339l-.009-.007c-.355-.282-.72-.554-1.089-.822L157.2,31.124a1.767,1.767,0,0,0-1.119-2.237,1.768,1.768,0,0,0-2.237,1.119l-3.2,9.6a33.738,33.738,0,0,0-7.5-3.09V26.32a1.769,1.769,0,0,0-3.537,0Z" fill="#595959"/><path d="M109.826,53.066,103.35,46.59a2.5,2.5,0,1,0-1.716,1.785l7.908,7.908c0,.153-.008.3-.008.457v.018l-7.9,7.9a2.5,2.5,0,1,0,1.794,2.4,2.53,2.53,0,0,0-.078-.613l6.418-6.418A20.823,20.823,0,0,0,119.979,75.45c3.238-4.555,5.3-11.3,5.3-18.828,0-7.43-2.006-14.1-5.175-18.656A20.751,20.751,0,0,0,109.826,53.066Zm8.552,13.46a2.418,2.418,0,1,1-2.418-2.417A2.418,2.418,0,0,1,118.378,66.526Zm0-19.808A2.418,2.418,0,1,1,115.96,44.3,2.418,2.418,0,0,1,118.378,46.718Z" fill="#595959"/><path d="M174.716,58.159h95.333a42,42,0,0,1,42,42v76.667a42,42,0,0,0,42,42h36.645a42.017,42.017,0,0,1,40.639,31.356" fill="none" stroke="#595959" stroke-miterlimit="10" stroke-width="2" stroke-dasharray="2 3"/><path d="M726.125,216.806V207.4a36.621,36.621,0,0,0,8.651.427l3.148,7.87a1.768,1.768,0,0,0,3.284-1.313l-2.794-6.986c.9-.149,1.809-.328,2.72-.546.124-.028.247-.06.371-.091.107-.026.215-.05.322-.078.018,0,.035-.013.052-.018.386-.1.765-.226,1.141-.356-.109-.166-.222-.326-.329-.5a35.97,35.97,0,0,1-5.044-17.831H708.085v-2.83h29.556a36.027,36.027,0,0,1,5.05-17.949c.149-.237.3-.463.458-.69a17.035,17.035,0,0,0-3.875-.892.867.867,0,0,0-.357-.1l-.413-.011,2.7-6.76a1.769,1.769,0,1,0-3.284-1.314l-3.2,8.005a57.275,57.275,0,0,0-8.6.475V156.32a1.769,1.769,0,0,0-3.537,0v10.307a35.258,35.258,0,0,0-7.5,2.984l-3.2-9.6a1.768,1.768,0,1,0-3.355,1.118l3.418,10.256c-5.814,3.568-9.522,8.964-9.522,15.006,0,5.676,3.272,10.783,8.489,14.339l.008.007c.355.282.72.555,1.09.822L708.53,212a1.768,1.768,0,1,0,3.355,1.119l3.2-9.6a33.763,33.763,0,0,0,7.5,3.089v10.2a1.769,1.769,0,0,0,3.537,0Z" fill="#595959"/><path d="M755.9,190.061l6.476,6.476a2.467,2.467,0,0,0-.079.612,2.506,2.506,0,1,0,1.795-2.4l-7.908-7.908c0-.152.007-.3.007-.457v-.017l7.9-7.9a2.518,2.518,0,1,0-1.716-1.786l-6.419,6.419a20.824,20.824,0,0,0-10.21-15.425c-3.238,4.556-5.3,11.3-5.3,18.828,0,7.431,2.007,14.1,5.176,18.657A20.757,20.757,0,0,0,755.9,190.061ZM747.347,176.6a2.418,2.418,0,1,1,2.418,2.418A2.418,2.418,0,0,1,747.347,176.6Zm0,19.808a2.418,2.418,0,1,1,2.418,2.418A2.418,2.418,0,0,1,747.347,196.408Z" fill="#595959"/><path d="M2074.832,223.035v-9.409a36.57,36.57,0,0,0,8.651.427l3.148,7.87a1.769,1.769,0,0,0,3.285-1.313l-2.794-6.985c.9-.15,1.809-.329,2.719-.547.125-.028.248-.06.372-.09.107-.027.214-.051.322-.079.018,0,.034-.012.052-.017.386-.1.765-.226,1.141-.357-.11-.165-.222-.326-.329-.5a35.988,35.988,0,0,1-5.045-17.832h-29.561v-2.83h29.556a36.02,36.02,0,0,1,5.05-17.949c.149-.237.3-.463.457-.69a16.984,16.984,0,0,0-3.874-.891.873.873,0,0,0-.357-.1l-.413-.011,2.7-6.76a1.769,1.769,0,0,0-3.285-1.313l-3.2,8a57.416,57.416,0,0,0-8.6.475V162.55a1.769,1.769,0,1,0-3.537,0v10.306a35.226,35.226,0,0,0-7.5,2.985l-3.2-9.606a1.768,1.768,0,1,0-3.355,1.119l3.418,10.255c-5.814,3.568-9.522,8.965-9.522,15.006,0,5.676,3.272,10.783,8.488,14.339l.009.008c.355.281.72.554,1.089.821l-3.482,10.448a1.768,1.768,0,1,0,3.355,1.119l3.2-9.6a33.853,33.853,0,0,0,7.5,3.09v10.2a1.769,1.769,0,1,0,3.537,0Z" fill="#595959"/><path d="M2104.607,196.29l6.476,6.476a2.475,2.475,0,0,0-.079.613,2.506,2.506,0,1,0,1.8-2.4l-7.908-7.908c0-.152.007-.3.007-.457V192.6l7.9-7.9a2.518,2.518,0,1,0-1.716-1.786l-6.419,6.419a20.824,20.824,0,0,0-10.21-15.424c-3.239,4.555-5.3,11.3-5.3,18.827,0,7.431,2.006,14.1,5.175,18.657A20.755,20.755,0,0,0,2104.607,196.29Zm-8.553-13.461a2.418,2.418,0,1,1,2.418,2.418A2.418,2.418,0,0,1,2096.054,182.829Zm0,19.808a2.418,2.418,0,1,1,2.418,2.418A2.418,2.418,0,0,1,2096.054,202.637Z" fill="#595959"/><path d="M2039.716,191.2h-95.333a42,42,0,0,1-42-42V72.53a42,42,0,0,0-42-42h-88a42.019,42.019,0,0,1-40.463-30.7" fill="none" stroke="#595959" stroke-miterlimit="10" stroke-width="2" stroke-dasharray="2 3"/><line x1="2498.372" y1="144.17" x2="2469.005" y2="114.802" fill="none" stroke="#595959" stroke-miterlimit="10" stroke-width="2" stroke-dasharray="2 3"/><path d="M2466.109,69.509l-6.653,6.653a36.622,36.622,0,0,0-5.815-6.419l3.339-7.791a1.769,1.769,0,1,0-3.252-1.394l-2.963,6.915c-.744-.532-1.512-1.047-2.31-1.537-.108-.068-.217-.132-.326-.2s-.188-.116-.284-.173c-.015-.009-.033-.015-.049-.024-.346-.2-.7-.381-1.059-.555-.039.195-.074.388-.118.584a35.99,35.99,0,0,1-9.042,16.176l20.9,20.9-2,2-20.9-20.9a36.023,36.023,0,0,1-16.263,9.121c-.273.062-.542.112-.811.164a17,17,0,0,0,2.109,3.37.887.887,0,0,0,.181.324l.285.3-6.692,2.868a1.768,1.768,0,1,0,1.393,3.251l7.924-3.4a57.4,57.4,0,0,0,6.415,5.743l-6.782,6.782a1.768,1.768,0,1,0,2.5,2.5l7.288-7.287a35.29,35.29,0,0,0,7.414,3.193l-4.528,9.056a1.768,1.768,0,1,0,3.163,1.582l4.835-9.669c6.634,1.588,13.072.394,17.344-3.878,4.014-4.013,5.311-9.938,4.137-16.142v-.011c-.052-.45-.117-.9-.189-1.351l9.85-4.925a1.8,1.8,0,0,0,.461-.331,1.769,1.769,0,0,0-2.042-2.833l-9.052,4.526a33.748,33.748,0,0,0-3.12-7.489l7.21-7.21a1.768,1.768,0,1,0-2.5-2.5Z" fill="#595959"/><path d="M2426.143,67.367V58.208a2.431,2.431,0,0,0,.489-.377,2.506,2.506,0,1,0-2.964.427V69.441c-.109.106-.22.21-.328.318l-.012.013h-11.174a2.5,2.5,0,1,0-.426,2.965,2.536,2.536,0,0,0,.377-.489h9.077a20.821,20.821,0,0,0-3.686,18.126c5.511-.931,11.737-4.248,17.058-9.568,5.254-5.255,8.554-11.392,9.532-16.852A20.753,20.753,0,0,0,2426.143,67.367Zm-3.47,15.565a2.418,2.418,0,1,1,0-3.419A2.419,2.419,0,0,1,2422.673,82.932Zm14.006-14.006a2.418,2.418,0,1,1,0-3.419A2.418,2.418,0,0,1,2436.679,68.926Z" fill="#595959"/><path d="M1432.58,197.247l9.409-.037a36.606,36.606,0,0,0-.392,8.652l-7.858,3.18a1.769,1.769,0,1,0,1.327,3.279l6.974-2.822c.153.9.336,1.808.558,2.717.028.125.061.248.091.371s.052.215.08.322c0,.018.013.034.018.052.106.385.229.764.361,1.14.165-.111.325-.224.5-.332a35.982,35.982,0,0,1,17.811-5.115l-.118-29.562,2.829-.011.119,29.556a36.028,36.028,0,0,1,17.97,4.977c.237.149.463.3.691.455a17.007,17.007,0,0,0,.876-3.878.869.869,0,0,0,.1-.357c0-.14.006-.275.01-.413l6.77,2.676a1.768,1.768,0,0,0,1.3-3.289l-8.018-3.17a57.3,57.3,0,0,0-.509-8.595l9.591-.038a1.769,1.769,0,1,0-.014-3.538l-10.306.042a35.275,35.275,0,0,0-3.015-7.489l9.593-3.24a1.769,1.769,0,0,0-1.132-3.351l-10.242,3.46c-3.591-5.8-9-9.487-15.044-9.462-5.676.022-10.77,3.315-14.305,8.546l-.007.008c-.281.357-.552.723-.818,1.093l-10.462-3.441a1.769,1.769,0,0,0-1.105,3.36l9.614,3.162a33.819,33.819,0,0,0-3.06,7.514l-10.2.041a1.769,1.769,0,0,0,.014,3.537Z" fill="#595959"/><path d="M1459.445,226.914l-6.45,6.5a2.5,2.5,0,1,0,1.792,1.709l7.877-7.94c.152,0,.3.006.457.006h.017l7.933,7.869a2.513,2.513,0,1,0,1.778-1.723l-6.444-6.392a20.824,20.824,0,0,0,15.383-10.273c-4.568-3.22-11.324-5.25-18.849-5.22-7.43.03-14.1,2.063-18.635,5.25A20.752,20.752,0,0,0,1459.445,226.914Zm13.426-8.606a2.418,2.418,0,1,1-2.408,2.427A2.418,2.418,0,0,1,1472.871,218.308Zm-19.808.079a2.418,2.418,0,1,1-2.408,2.428A2.419,2.419,0,0,1,1453.063,218.387Z" fill="#595959"/><path d="M1201.638,61.034h-9.409a36.57,36.57,0,0,0,.427-8.651l7.871-3.148a1.769,1.769,0,0,0-1.314-3.285l-6.985,2.794c-.15-.9-.329-1.809-.547-2.72-.028-.124-.06-.247-.09-.371-.027-.107-.051-.214-.079-.322,0-.018-.012-.034-.017-.052-.1-.386-.226-.765-.357-1.141-.165.11-.326.222-.5.329a35.977,35.977,0,0,1-17.832,5.044V79.073h-2.83V49.517a36.03,36.03,0,0,1-17.949-5.05c-.237-.149-.462-.3-.69-.457a16.984,16.984,0,0,0-.891,3.874.869.869,0,0,0-.1.357c0,.14-.007.275-.011.413l-6.76-2.7a1.769,1.769,0,1,0-1.313,3.285l8,3.2a57.422,57.422,0,0,0,.475,8.6h-9.591a1.769,1.769,0,1,0,0,3.537h10.306a35.331,35.331,0,0,0,2.985,7.5l-9.606,3.2a1.768,1.768,0,1,0,1.119,3.355l10.255-3.418c3.568,5.814,8.965,9.522,15.006,9.522,5.676,0,10.783-3.272,14.34-8.489l.007-.008c.282-.355.554-.72.821-1.089l10.449,3.482a1.768,1.768,0,1,0,1.118-3.355l-9.6-3.2a33.805,33.805,0,0,0,3.09-7.5h10.2a1.769,1.769,0,1,0,0-3.537Z" fill="#595959"/><path d="M1174.893,31.259l6.476-6.476a2.475,2.475,0,0,0,.613.079,2.506,2.506,0,1,0-2.4-1.795l-7.908,7.908c-.152,0-.3-.007-.457-.007h-.017l-7.9-7.9a2.516,2.516,0,1,0-1.785,1.716l6.418,6.419a20.824,20.824,0,0,0-15.424,10.21c4.555,3.239,11.3,5.3,18.827,5.3,7.431,0,14.105-2.006,18.657-5.175A20.752,20.752,0,0,0,1174.893,31.259Zm-13.461,8.552a2.418,2.418,0,1,1,2.418-2.417A2.417,2.417,0,0,1,1161.432,39.811Zm19.808,0a2.418,2.418,0,1,1,2.418-2.417A2.417,2.417,0,0,1,1181.24,39.811Z" fill="#595959"/><path d="M475.1-.674v96.5a51.619,51.619,0,1,0,51.619-51.619V44.2c-44.5,0-76.539,32.98-76.539,72.422s30.536,71.416,68.2,71.416H689.716" fill="none" stroke="#595959" stroke-miterlimit="10" stroke-width="2" stroke-dasharray="2 3"/><path d="M1210,63.326h188c40,0,66,28.341,66,67.007V165" fill="none" stroke="#595959" stroke-miterlimit="10" stroke-width="2.384" stroke-dasharray="2.384 3.576"/><path d="M894.883,250.566V173.247a61.532,61.532,0,1,1,61.531,61.532v.007c-53.045,0-91.237-39.314-91.237-86.33s36.4-85.13,81.3-85.13H1137" fill="none" stroke="#595959" stroke-miterlimit="10" stroke-width="2.384" stroke-dasharray="2.384 3.576"/><path d="M2194.471,102.815a265.1,265.1,0,0,1,108.814,143.369" fill="none" stroke="#595959" stroke-miterlimit="10" stroke-width="2.384" stroke-dasharray="2.384 3.576"/><path d="M1797.468,248.418c32.093-109.907,132.973-188.05,253.248-188.05a264.289,264.289,0,0,1,80.949,12.619" fill="none" stroke="#595959" stroke-miterlimit="10" stroke-width="2.384" stroke-dasharray="2.384 3.576"/><path d="M1865.323,67.381a4.877,4.877,0,1,1,0-9.749,4.82,4.82,0,0,1,4.8,4.764,4.87,4.87,0,0,1-4.8,4.985m20.048-.647-5.01-4.983,4.353-5.638-6.751-1.733,1.092-7.171-6.973,1.953-2.619-6.725-5.01,4.984-5.46-4.33-1.963,6.716-6.973-1.086,1.741,6.958-6.537,2.6,5.01,4.984L1845.7,68.7l6.973,1.953-1.085,6.937,6.752-1.74,2.612,6.724,5.032-5.2,5.667,4.551,1.741-6.938,7.187,1.3-1.955-6.929Z" fill="#505050"/><path d="M82.1,228.439a4.786,4.786,0,0,0,.38,4.113l.013.024,10.671,17.25h21.683l-7.959-12.864.061-.038-8.861-14.192a4.131,4.131,0,0,0-.3-.42c-.037-.046-.08-.087-.119-.131-.074-.083-.148-.167-.228-.244-.052-.05-.108-.095-.161-.141-.074-.065-.148-.13-.226-.189-.062-.048-.128-.091-.193-.135s-.149-.1-.226-.149-.148-.084-.223-.124-.149-.078-.226-.114-.167-.075-.252-.109-.146-.058-.22-.084c-.094-.032-.189-.063-.285-.091-.068-.02-.137-.038-.206-.055-.106-.026-.212-.051-.32-.071-.06-.012-.121-.021-.182-.03-.041-.006-.081-.015-.123-.02A47.932,47.932,0,1,0,82.1,228.439ZM22.386,175.328a41.932,41.932,0,1,1,31.72,50.1A41.8,41.8,0,0,1,22.386,175.328Z" fill="#505050"/><path d="M639.581,39.114c-4.881,2.612-6.7,9.123-3.975,14.222a10.616,10.616,0,0,0,9.3,5.783,10,10,0,0,0,4.728-1.2,10.665,10.665,0,1,0-10.058-18.81ZM653,51.059a8.67,8.67,0,0,1-4.3,5.1,8.359,8.359,0,0,1-11.328-3.768c-2.176-4.07-.7-9.451,3.155-11.514A8.763,8.763,0,0,1,653,51.059Z" fill="#505050"/><path d="M706.609,37.9a2.812,2.812,0,0,0-1.056-2.083,3.2,3.2,0,0,0-2.5-.681l-8.491-.7-1.181-4.067,6.641-5.027a3.211,3.211,0,0,0,1.52-2.111,3.412,3.412,0,0,0-.242-2.313l-3.038-5.682c-.646-1.21-2.28-1.784-4.164-1.458l-7.9,2.73c-.487-.551-1-1.145-1.509-1.74-.545-.634-1.091-1.27-1.612-1.858l4.156-7.493a3.217,3.217,0,0,0-.714-4.169L684.787-.174h-3.159l3.688,3.009a1.241,1.241,0,0,1,.253,1.477l-4.927,8.872.481.531c.648.715,1.352,1.535,2.055,2.352.68.79,1.357,1.578,1.981,2.271l.444.492,8.916-3.1c1.013-.154,1.8.1,1.985.444l3.038,5.681a1.485,1.485,0,0,1,.056.919,1.231,1.231,0,0,1-.59.84L691.081,29.6l1.949,6.709,10.106.836.124-.021a1.236,1.236,0,0,1,1.024.235.871.871,0,0,1,.33.66l.581,6.03a1.19,1.19,0,0,1-.183.921,1.812,1.812,0,0,1-1.19.658l-9.434,2.745.02.769a18.26,18.26,0,0,1-.483,3.97c-.128.657-.26,1.336-.371,2.056l-.114.742,9.026,4.2.131.051a1.285,1.285,0,0,1,.779.612,1.256,1.256,0,0,1,.073.982l-1.873,6.182a2.335,2.335,0,0,1-1.458.636L689.86,67.307l-.245.8a15.643,15.643,0,0,1-2.406,4.728l-.464.655,6.819,7.524a2.456,2.456,0,0,1,.158,1.861l-4.253,4.928a1.249,1.249,0,0,1-1.514.227l-8.708-5.609-.566.674a15.268,15.268,0,0,1-4.741,4.016l-.76.406,3.412,9.582.06.137a1.184,1.184,0,0,1-.536,1.76l-5.279,2.823a1.183,1.183,0,0,1-1.762-.532l-6.154-8.284-.76.406a22.348,22.348,0,0,1-5.484,1.926l-.725.182-.4,9.884c.012.494-.634,1.158-1.509,1.312l-5.884.57c-.9.031-1.4-.3-1.522-1.016l-2.25-9.449-.665-.1c-1.186-.183-2.316-.259-3.41-.333s-2.112-.142-3.2-.307l-.74-.112-4.169,8.927a3,3,0,0,1-1.837,1.022l-5.676-2.048a1.826,1.826,0,0,1-1.21-1.6l1.959-10.08-.864-.261a17.022,17.022,0,0,1-2.553-1.1,18.711,18.711,0,0,0-2.87-1.222l-.549-.166L611.647,95.9c-1.076.542-1.613.322-1.853.157L604.869,91.8a1.23,1.23,0,0,1-.251-1.476l4.922-8.874-.48-.53c-.644-.712-1.344-1.528-2.044-2.341-.682-.794-1.364-1.587-1.992-2.283l-.448-.5-9.407,3.349-.131.059a1.78,1.78,0,0,1-1.36-.747l-3.037-5.681a2.1,2.1,0,0,1,.39-1.725l7.913-5.889-2.223-6.891-9.651-.151c-.886-.31-1.484-.98-1.5-1.5l-.585-6.027a1.255,1.255,0,0,1,.233-1.025.84.84,0,0,1,.6-.329l10.2-2.538-.021-.8a37.99,37.99,0,0,1,.637-6.429l.119-.773-9.36-3.925a1.826,1.826,0,0,1-.655-1.894l1.7-5.605a1.833,1.833,0,0,1,1.618-1.212l9.612,1.473.357-.5a19.854,19.854,0,0,0,1.56-2.756,18.128,18.128,0,0,1,1.392-2.474l.469-.664-6.752-7.265a1.82,1.82,0,0,1-.215-2.132l3.743-4.584a1.8,1.8,0,0,1,2.131-.474L611,12.255l.553-.78a12.951,12.951,0,0,1,3.044-2.693c.595-.431,1.211-.876,1.813-1.37l.542-.445L614.408-.174h-2.122l2.3,6.475c-.387.3-.782.581-1.168.86a18.45,18.45,0,0,0-2.9,2.41l-7.213-4.647-.251-.116a3.859,3.859,0,0,0-4.341,1.03l-3.834,4.695a3.784,3.784,0,0,0,.385,4.747l5.621,6.051c-.42.686-.764,1.38-1.1,2.058s-.67,1.351-1.063,1.98l-8.558-1.311h-.09a3.845,3.845,0,0,0-3.557,2.635l-1.7,5.605a3.838,3.838,0,0,0,1.492,4.167l8.222,3.473a40.5,40.5,0,0,0-.543,5.209l-8.355,2.1a2.838,2.838,0,0,0-1.965,1.056,3.166,3.166,0,0,0-.666,2.555l.57,5.885a4,4,0,0,0,3.04,3.337l8.643.174,1.343,4.164-6.9,5.136-.219.223a4,4,0,0,0-.605,3.948l3.038,5.681c.6,1.124,2.559,2.284,3.983,1.61l8.085-2.88c.489.553,1,1.151,1.517,1.749.541.63,1.083,1.26,1.6,1.844l-4.15,7.492a3.081,3.081,0,0,0-.428,2.221,3,3,0,0,0,1.115,1.933l4.926,4.251A3.711,3.711,0,0,0,612.7,97.6l6.4-5.9a21.87,21.87,0,0,1,2.028.92c.647.319,1.309.646,2,.919l-1.666,8.574,0,.11a3.82,3.82,0,0,0,2.585,3.538l6,2.168.189,0a4.955,4.955,0,0,0,3.632-1.945l3.673-7.827c.9.109,1.774.167,2.623.225.877.058,1.714.115,2.577.221l1.923,8.065a3.177,3.177,0,0,0,3.454,2.615c.048,0,.1,0,.147,0l6.028-.585a3.6,3.6,0,0,0,3.242-3.277l.342-8.325a23.775,23.775,0,0,0,4.444-1.529l5.017,6.739a3.165,3.165,0,0,0,4.43,1.282l5.279-2.823a3.165,3.165,0,0,0,1.393-4.4l-2.816-7.915a16.592,16.592,0,0,0,4-3.4l7.2,4.638a3.206,3.206,0,0,0,4.2-.651L695.3,84.11a4.249,4.249,0,0,0-.017-4.136L689.3,73.331a17.049,17.049,0,0,0,1.966-3.836l8.692,1.075.074.01.074,0c1.343-.035,3.016-.852,3.369-2.012l1.891-6.226a3.221,3.221,0,0,0-2.112-4.068l-7.6-3.537c.075-.425.155-.838.234-1.241a23.863,23.863,0,0,0,.513-3.624l7.816-2.279a3.748,3.748,0,0,0,2.427-1.464,3.108,3.108,0,0,0,.533-2.342Z" fill="#505050"/><path d="M627.795,1.31A24.39,24.39,0,0,0,630.773.265c.387-.155.758-.3,1.128-.439h-5.978l1.225,1.648Z" fill="#505050"/><path d="M670.556,5.508l.655.463L678-.174h-2.98l-3.962,3.587a19.988,19.988,0,0,0-4.038-2.332l.193-1.255H665.19l-.408,2.63.832.251A18.034,18.034,0,0,1,670.556,5.508Z" fill="#505050"/><path d="M1830.735,248.116l-.209.076a4.476,4.476,0,0,0-1.721,1.634h2.614l8.14-1.895.711-.205-.007-.729a16.477,16.477,0,0,1,.464-5.117l.234-.73-8.336-4.37a1.714,1.714,0,0,1-.518-.692c-.041-.111-.1-.312-.014-.427l.1-.139,1.474-5.573a1.116,1.116,0,0,1,1.463-.75l9.167,1.585.242-.753a16.434,16.434,0,0,1,2.628-4.456l.432-.589-6.17-7.056-.145-.133a.766.766,0,0,1-.275-.556,1.206,1.206,0,0,1,.4-.937l3.555-4.207a1.155,1.155,0,0,1,1.432-.156l7.918,4.574.49-.429c.661-.579,1.418-1.207,2.173-1.833.73-.607,1.46-1.212,2.1-1.77l.456-.4-2.679-8.166c-.125-.925.118-1.638.434-1.8l5.221-2.676a1.309,1.309,0,0,1,.838-.037,1.12,1.12,0,0,1,.755.55l5.324,7.312,6.14-1.669.921-9.186-.018-.113a1.13,1.13,0,0,1,.23-.93.789.789,0,0,1,.605-.289l5.5-.434a1.072,1.072,0,0,1,.835.181,1.647,1.647,0,0,1,.581,1.094l2.351,8.632.7-.006a16.086,16.086,0,0,1,3.605.5c.6.127,1.213.257,1.866.37l.674.116,3.969-8.151.048-.12a1.115,1.115,0,0,1,1.466-.751l5.6,1.8a2.136,2.136,0,0,1,.558,1.339l-1.317,9.318.728.237a14.209,14.209,0,0,1,4.265,2.264l.589.434,6.958-6.09a2.223,2.223,0,0,1,1.7-.114l4.419,3.951a1.132,1.132,0,0,1,.183,1.381l-5.244,7.839.6.526a13.886,13.886,0,0,1,3.582,4.379l.357.7,8.778-2.953.125-.053a1.078,1.078,0,0,1,1.594.514l2.488,4.852a1.078,1.078,0,0,1-.512,1.595l-7.64,5.473.358.7a20.435,20.435,0,0,1,1.667,5.025l.154.662,8.992.523h0c.449,0,1.04.6,1.164,1.395l.428,5.368c.007.81-.292,1.266-.949,1.367l-4,.879h6.012a3.431,3.431,0,0,0,.754-2.327l-.437-5.5a3.287,3.287,0,0,0-2.909-3h-.025l-7.573-.442a21.582,21.582,0,0,0-1.321-4.071l6.213-4.461a2.87,2.87,0,0,0,1.239-4.012l-2.488-4.852a2.883,2.883,0,0,0-3.98-1.337l-7.25,2.439a15.127,15.127,0,0,0-3.032-3.695l4.337-6.482a2.919,2.919,0,0,0-.528-3.838l-4.42-3.952a3.866,3.866,0,0,0-3.766-.049l-6.143,5.339a15.441,15.441,0,0,0-3.46-1.85l1.126-7.965V199.7c-.01-1.222-.728-2.758-1.778-3.1l-5.639-1.82a2.931,2.931,0,0,0-3.736,1.858l-3.341,6.862c-.386-.076-.76-.155-1.126-.234a21.71,21.71,0,0,0-3.291-.524l-1.952-7.151a3.41,3.41,0,0,0-1.294-2.234,2.844,2.844,0,0,0-2.124-.521l-5.369.424a2.556,2.556,0,0,0-1.911.926,2.921,2.921,0,0,0-.661,2.262l-.774,7.721-3.72,1.01-4.472-6.125a2.915,2.915,0,0,0-1.9-1.417,3.1,3.1,0,0,0-2.109.182l-5.222,2.676c-1.111.57-1.658,2.05-1.393,3.768l2.361,7.236c-.51.434-1.06.89-1.61,1.347-.585.486-1.172.972-1.715,1.437l-6.712-3.871a2.93,2.93,0,0,0-3.852.553l-3.471,4.108a2.936,2.936,0,0,0-.872,2.309,2.575,2.575,0,0,0,.922,1.807l5.152,5.893a18.251,18.251,0,0,0-2.187,3.64l-7.458-1.282a2.962,2.962,0,0,0-2.218.186,3,3,0,0,0-1.485,1.806l-1.406,5.309a2.236,2.236,0,0,0-.111,1.989,3.54,3.54,0,0,0,1.19,1.549l7.192,3.783a18.414,18.414,0,0,0-.35,4.255Z" fill="#505050"/><path d="M1882.318,242.851a7.685,7.685,0,0,1,10.621,3.427,7.251,7.251,0,0,1,.8,3.548h1.826a9.082,9.082,0,0,0-1.007-4.378,9.7,9.7,0,0,0-18.345,4.378h1.819A7.893,7.893,0,0,1,1882.318,242.851Z" fill="#505050"/><path d="M2168.342,50.143a3.612,3.612,0,0,0,1.384-2.791v-.02l-.07-47.506h-13.909l.054,35.032h-.055l.07,12.619a3.344,3.344,0,0,0,.03.39c.006.044.017.088.025.131.014.084.029.167.05.248.013.052.031.1.047.154.022.071.044.141.07.211.021.055.046.108.07.163s.056.124.087.185.062.112.094.167.064.11.1.163.078.114.119.17.071.095.108.141.1.115.147.171c.035.04.072.078.11.117.058.059.116.116.178.173.033.031.069.06.1.09l.071.062a36.153,36.153,0,1,0,11.115-.071Zm17.314,57.739a31.628,31.628,0,1,1-.53-44.725A31.527,31.527,0,0,1,2185.656,107.882Z" fill="#505050"/><path d="M84.359,177.863l-6.05,3.358a26.9,26.9,0,0,0-2.812-5.715l3.936-4.832a1.3,1.3,0,1,0-2.016-1.643l-3.494,4.289c-.419-.527-.857-1.046-1.322-1.553-.063-.071-.127-.138-.191-.207s-.109-.12-.165-.179c-.01-.01-.021-.018-.03-.027-.2-.211-.419-.412-.637-.607-.067.13-.13.259-.2.389a26.464,26.464,0,0,1-9.665,9.607l10.55,19.006-1.819,1.01-10.548-19a26.48,26.48,0,0,1-13.342,3.159c-.206-.011-.406-.03-.607-.048a12.514,12.514,0,0,0,.809,2.809.643.643,0,0,0,.063.266c.048.091.094.179.14.269l-5.311.674a1.3,1.3,0,0,0,.328,2.581l6.289-.8a42.287,42.287,0,0,0,3.373,5.358l-6.166,3.422a1.3,1.3,0,0,0,1.262,2.275l6.626-3.678a25.989,25.989,0,0,0,4.6,3.757l-5.033,5.486a1.3,1.3,0,1,0,1.916,1.758l5.374-5.857c4.369,2.464,9.162,2.923,13.046.767,3.65-2.026,5.765-5.952,6.19-10.575l0-.008c.054-.329.1-.661.139-.994l7.96-1.49a1.271,1.271,0,0,0,.393-.141,1.3,1.3,0,0,0-.871-2.415L79.756,189.7a24.8,24.8,0,0,0-.691-5.926l6.556-3.639a1.3,1.3,0,0,0-1.262-2.274Z" fill="#595959"/><path d="M56.538,168.265l1.852-6.475a1.8,1.8,0,0,0,.422-.168,1.839,1.839,0,1,0-2.5-.716,1.81,1.81,0,0,0,.318.418l-2.262,7.906c-.1.053-.2.1-.3.159l-.011.006-7.9-2.26a1.871,1.871,0,0,0-.186-.491,1.847,1.847,0,1,0-.35,2.232l6.418,1.836a15.309,15.309,0,0,0-6.273,12.069,24.321,24.321,0,0,0,13.994-3.314,24.432,24.432,0,0,0,10.148-9.986A15.26,15.26,0,0,0,56.538,168.265Zm-5.6,10.3a1.778,1.778,0,1,1,.691-2.417A1.779,1.779,0,0,1,50.936,178.567ZM63.671,171.5a1.778,1.778,0,1,1,.691-2.417A1.779,1.779,0,0,1,63.671,171.5Z" fill="#595959"/><path d="M1078.2,212.1a4.972,4.972,0,0,0-1.9,3.841v.028l.049,33.533h19.142l-.025-16.365h.075l-.1-17.368a4.351,4.351,0,0,0-.041-.537c-.008-.061-.023-.12-.033-.181-.021-.114-.04-.228-.069-.34-.019-.072-.044-.142-.066-.212-.03-.1-.059-.2-.1-.29-.029-.076-.063-.15-.1-.225s-.076-.171-.119-.254-.085-.155-.129-.231-.089-.151-.137-.224-.108-.157-.164-.234-.1-.13-.149-.194c-.065-.08-.132-.158-.2-.235-.049-.055-.1-.108-.152-.161-.079-.081-.16-.161-.244-.238-.047-.043-.1-.084-.144-.125l-.1-.085a49.758,49.758,0,1,0-15.3.1Zm-23.83-79.468a43.53,43.53,0,1,1,.73,61.557A43.389,43.389,0,0,1,1054.372,132.63Z" fill="#505050"/><path d="M1097.381,182.484l-5-5a27.489,27.489,0,0,0,4.82-4.366l5.85,2.507a1.328,1.328,0,0,0,1.046-2.442l-5.192-2.225c.4-.559.786-1.135,1.154-1.734.051-.081.1-.163.149-.245s.087-.141.129-.213c.007-.012.012-.025.019-.037.149-.26.286-.526.416-.8-.146-.03-.291-.056-.438-.089a27.01,27.01,0,0,1-12.146-6.79l-15.7,15.7-1.5-1.5,15.693-15.693a27.056,27.056,0,0,1-6.849-12.212c-.046-.205-.084-.406-.123-.609a12.8,12.8,0,0,0-2.531,1.584.668.668,0,0,0-.243.136l-.225.214-2.154-5.025a1.328,1.328,0,1,0-2.441,1.046l2.55,5.95a43.119,43.119,0,0,0-4.312,4.817l-5.093-5.093a1.328,1.328,0,0,0-1.878,1.879l5.472,5.472a26.537,26.537,0,0,0-2.4,5.567l-6.8-3.4a1.328,1.328,0,1,0-1.187,2.375l7.26,3.63c-1.193,4.982-.3,9.816,2.912,13.024,3.013,3.014,7.462,3.988,12.12,3.106h.009c.338-.039.676-.088,1.014-.142l3.7,7.4a1.328,1.328,0,1,0,2.375-1.187l-3.4-6.8a25.384,25.384,0,0,0,5.623-2.343l5.414,5.414a1.328,1.328,0,0,0,1.878-1.878Z" fill="#595959"/><path d="M1098.99,152.474h6.877a1.877,1.877,0,1,0,.283-2.289,1.9,1.9,0,0,0-.32.43h-8.4c-.079-.082-.157-.165-.239-.247l-.009-.009v-8.39a1.9,1.9,0,0,0,.43-.32,1.889,1.889,0,1,0-2.289.283v6.816a15.636,15.636,0,0,0-13.611-2.768c.7,4.138,3.189,8.813,7.185,12.809a24.955,24.955,0,0,0,12.653,7.158A15.585,15.585,0,0,0,1098.99,152.474Zm-11.688-2.606a1.815,1.815,0,1,1,2.567,0A1.815,1.815,0,0,1,1087.3,149.868Zm10.517,10.517a1.815,1.815,0,1,1,2.567,0A1.815,1.815,0,0,1,1097.819,160.385Z" fill="#595959"/><path d="M1605.911,95.079l6.989,3.889a31.14,31.14,0,0,0-3.893,6.249l-7.147-.914a1.5,1.5,0,1,0-.381,2.983l6.343.811c-.262.732-.5,1.48-.718,2.247-.031.1-.058.208-.086.312s-.051.181-.075.272c0,.015,0,.031-.008.046-.082.33-.149.662-.207.995.168-.013.334-.03.5-.039a30.575,30.575,0,0,1,15.33,3.622l12.218-21.959,2.1,1.17-12.215,21.955a30.619,30.619,0,0,1,11.246,11.169c.114.209.218.417.323.625A14.461,14.461,0,0,0,1638.5,126a.725.725,0,0,0,.222-.223l.179-.3,3.9,4.8a1.5,1.5,0,1,0,2.333-1.9l-4.623-5.687a48.684,48.684,0,0,0,3.2-6.582l7.124,3.964a1.5,1.5,0,1,0,1.462-2.628l-7.656-4.259a29.946,29.946,0,0,0,.883-6.8l8.459,1.591a1.5,1.5,0,1,0,.555-2.955l-9.03-1.7c-.248-5.793-2.724-10.778-7.212-13.275-4.216-2.346-9.362-2.026-14.16.38l-.009,0c-.356.147-.709.306-1.06.47l-6.322-6.906a1.5,1.5,0,0,0-2.218,2.031l5.809,6.345a28.724,28.724,0,0,0-5.4,4.3l-7.574-4.214a1.5,1.5,0,1,0-1.462,2.627Z" fill="#595959"/><path d="M1613.473,128.25l-7.487,2.134a2.125,2.125,0,1,0,.617,2.013l9.143-2.606c.111.065.222.131.336.194l.013.007,2.6,9.134a2.126,2.126,0,1,0,2.523-.342,2.163,2.163,0,0,0-.488-.195l-2.115-7.42a17.7,17.7,0,0,0,15.678-1.21c-2.046-4.288-6.208-8.606-11.8-11.715-5.519-3.071-11.306-4.339-16-3.866A17.641,17.641,0,0,0,1613.473,128.25Zm13.533-.79a2.055,2.055,0,1,1-2.8.8A2.055,2.055,0,0,1,1627.006,127.46Zm-14.714-8.186a2.055,2.055,0,1,1-2.795.8A2.055,2.055,0,0,1,1612.292,119.274Z" fill="#595959"/><path d="M2145.865,82.526h5.37a20.888,20.888,0,0,0-.244,4.937l-4.492,1.8a1.01,1.01,0,0,0,.75,1.875l3.987-1.595q.128.772.312,1.552c.016.071.034.142.051.212s.029.123.045.184l.01.03c.06.22.129.436.2.651.094-.063.186-.127.283-.188a20.529,20.529,0,0,1,10.177-2.879V72.23h1.615V89.1a20.566,20.566,0,0,1,10.245,2.882c.135.085.264.173.394.261a9.712,9.712,0,0,0,.508-2.211.5.5,0,0,0,.058-.2c0-.08,0-.157.006-.236L2179,91.135a1.01,1.01,0,0,0,.75-1.875l-4.569-1.827a32.674,32.674,0,0,0-.27-4.907h5.474a1.01,1.01,0,0,0,0-2.019h-5.882a20.188,20.188,0,0,0-1.7-4.281l5.482-1.827a1.009,1.009,0,1,0-.638-1.915l-5.853,1.951c-2.037-3.319-5.117-5.435-8.565-5.435-3.24,0-6.154,1.868-8.184,4.845l0,0c-.161.2-.317.411-.469.622l-5.963-1.988a1.02,1.02,0,0,0-.32-.052,1.009,1.009,0,0,0-.319,1.967l5.48,1.826a19.327,19.327,0,0,0-1.764,4.282h-5.819a1.01,1.01,0,1,0,0,2.019Z" fill="#595959"/><path d="M2161.13,99.519l-3.7,3.7a1.4,1.4,0,0,0-.35-.045,1.428,1.428,0,1,0,1.427,1.427,1.449,1.449,0,0,0-.058-.4l4.513-4.513c.087,0,.174,0,.261,0h.01l4.509,4.509a1.449,1.449,0,0,0-.058.4,1.428,1.428,0,1,0,1.427-1.427,1.393,1.393,0,0,0-.35.045l-3.663-3.664a11.883,11.883,0,0,0,8.8-5.827,20.639,20.639,0,0,0-21.394-.069A11.843,11.843,0,0,0,2161.13,99.519Zm7.682-4.881a1.38,1.38,0,1,1-1.38,1.38A1.38,1.38,0,0,1,2168.812,94.638Zm-11.3,0a1.38,1.38,0,1,1-1.38,1.38A1.38,1.38,0,0,1,2157.507,94.638Z" fill="#595959"/><path d="M1351,192h-13V122.567a3.567,3.567,0,0,0-3.567-3.567H1230.577a3.578,3.578,0,0,0-3.577,3.577V192h-14v2h-.033a.132.132,0,0,0,.033.067V195h2.115c2.195.567,6.532,1.136,14.964,1h103.953c6.585.136,9.993-.433,11.726-1H1351Z" fill="#505050"/><rect x="1232" y="124" width="101" height="62" fill="#464646"/><path d="M1249,154.381v-.854l19-10.387v3.084l-14,7.608v.083l14,6.716v3.108Z" fill="#505050"/><path d="M1276.636,172h-2.767l15.717-37h2.834Z" fill="#505050"/><path d="M1298,163.739v-2.616l15-7.152v-.111l-15-8.127V143.14l19,10.387v.854Z" fill="#505050"/><path d="M912.044,113.483a75.594,75.594,0,0,1-13.646.937c-6.5,0-12.391-.471-14.217-.942s-3.059-1.565-3.059-3.295V55.405c0-1.761,1.165-2.823,3.14-3.119a125.861,125.861,0,0,1,14.054-.809,95.391,95.391,0,0,1,13.645.806c2.117.335,3.137,1.432,3.137,3.192v54.713C915.1,111.916,914.187,113,912.044,113.483Z" fill="#595959"/><rect x="883.84" y="58.138" width="28.54" height="50.284" fill="#464646"/><circle cx="897.425" cy="54.486" r="0.618" fill="#464646"/><circle cx="887.653" cy="54.975" r="0.496" fill="#464646"/><rect x="200" y="165" width="88" height="63" rx="4.232" transform="translate(488 393) rotate(180)" fill="#505050"/><rect x="205" y="171" width="78" height="52" transform="translate(488 394) rotate(180)" fill="#464646"/><polygon points="204 197.728 201 197.999 201 195.787 204 196.058 204 197.728" fill="#464646"/><path d="M1517.711,82.15a75.691,75.691,0,0,1-13.646.937c-6.5,0-12.392-.472-14.218-.942s-3.059-1.566-3.059-3.3V24.072c0-1.761,1.166-2.823,3.141-3.119a125.8,125.8,0,0,1,14.053-.81,95.518,95.518,0,0,1,13.645.806c2.117.336,3.137,1.433,3.137,3.193V78.855C1520.764,80.582,1519.854,81.667,1517.711,82.15Z" fill="#595959"/><rect x="1489.506" y="26.805" width="28.54" height="50.284" fill="#464646"/><circle cx="1503.092" cy="23.153" r="0.618" fill="#464646"/><circle cx="1493.319" cy="23.641" r="0.496" fill="#464646"/><rect x="1713" y="116" width="88" height="63" rx="4.232" transform="translate(3514 295) rotate(-180)" fill="#505050"/><rect x="1718" y="122" width="78" height="52" transform="translate(3514 296) rotate(180)" fill="#464646"/><polygon points="1717 148.728 1714 148.999 1714 146.787 1717 147.058 1717 148.728" fill="#464646"/><rect x="2249" y="38" width="88" height="63" rx="4.232" transform="translate(4586 139) rotate(180)" fill="#505050"/><rect x="2255" y="43" width="76" height="52" transform="translate(4586 138) rotate(180)" fill="#464646"/><polygon points="2253 70.061 2250 70.332 2250 68.12 2253 68.391 2253 70.061" fill="#464646"/><path d="M1657.494,69.5a5.45,5.45,0,0,0,3.8-2.767.22.22,0,0,1,.015-.026L1696,0h-23.656L1651.39,40.3l-.073-.037L1642.6,57.192a4.875,4.875,0,0,0-.233.543c-.023.063-.038.128-.059.192-.038.122-.077.243-.105.366-.019.079-.03.16-.044.24-.021.109-.041.219-.054.33-.01.089-.015.178-.02.267s-.013.2-.013.308,0,.194.008.29.01.192.02.288.025.207.041.31c.013.088.029.176.046.264.023.11.048.221.077.331.02.078.043.156.066.233.036.119.074.238.117.355.024.066.05.13.077.2.017.044.033.089.051.132a54.55,54.55,0,1,0,14.918,7.665Zm-17.15,89.323a47.723,47.723,0,1,1,30.516-60.2A47.571,47.571,0,0,1,1640.344,158.824Z" fill="#505050"/><path d="M854.1,35.823a7.93,7.93,0,0,0-.848.047,12.9,12.9,0,0,0-21.938-12.892,16.7,16.7,0,0,0-33.126,2.978c0,.143.008.285.011.428a13.014,13.014,0,1,0-3.3,25.631l58.763-.105a8.311,8.311,0,0,0,8.155-8.244A7.736,7.736,0,0,0,854.1,35.823Z" fill="#505050"/><path d="M1633.32,221.745a7.706,7.706,0,0,0-.808.045,12.284,12.284,0,0,0-20.889-12.275,15.9,15.9,0,0,0-31.54,2.836c0,.136.007.271.011.407a12.391,12.391,0,1,0-3.142,24.4l55.95-.1a7.914,7.914,0,0,0,7.765-7.85A7.366,7.366,0,0,0,1633.32,221.745Z" fill="#505050"/><path d="M2354.955,199.915a8.761,8.761,0,0,0-.921.051,14.008,14.008,0,0,0-23.82-14,18.129,18.129,0,0,0-35.967,3.234c0,.155.008.309.012.464a14.13,14.13,0,1,0-3.583,27.829l63.8-.113a9.025,9.025,0,0,0,8.854-8.952A8.4,8.4,0,0,0,2354.955,199.915Z" fill="#505050"/><path d="M507.781,221.823a7.9,7.9,0,0,0-.848.048,12.9,12.9,0,0,0-21.939-12.893,16.7,16.7,0,0,0-33.125,2.978c0,.144.007.285.01.428a13.014,13.014,0,1,0-3.3,25.631l58.762-.1a8.311,8.311,0,0,0,8.155-8.244A7.736,7.736,0,0,0,507.781,221.823Z" fill="#505050"/></svg>