<svg xmlns="http://www.w3.org/2000/svg" xmlns:xlink="http://www.w3.org/1999/xlink" viewBox="0 0 2500 250"><defs><clipPath id="a"><rect x="2521" y="-270" width="2500" height="250" fill="none"/></clipPath><clipPath id="b"><rect x="0.784" y="270" width="2500" height="250" fill="none"/></clipPath><clipPath id="c"><path d="M987.316,377.407s-11.21,14.021-18.8,22.968c-8.773-1.688-7.916-14.172-7.916-14.172l11.572-16.714Z" fill="none"/></clipPath></defs><title>banner-bugs-turquoise</title><g clip-path="url(#a)"><path d="M2364.81-171.007c536,429,983.666-85.9,1483.666,71.1,418.229,131.324,306.334-200.095,667.334-15.095s507.19-63.9,507.19-63.9" fill="none" stroke="#003eaa" stroke-miterlimit="10"/><path d="M2363-164.864c536,429,986-90,1486,67,418.228,131.323,309-194,670-9s504-64,504-64" fill="none" stroke="#003ca9" stroke-miterlimit="10"/><path d="M2317-148.864c656-131,777.135-128.04,886,28,90,129,241,242,445,147,238.469-111.052,351-339,599-357,472.613-34.3,592,242,751,383" fill="none" stroke="#0060c4" stroke-miterlimit="10"/><path d="M2320.75-138.927c643.968-120.492,752.692-113.408,881.5,36.125,108.687,126.174,259.562,221.25,465.031,126.344,237.784-109.955,358.293-319.509,601.281-332.094,453.794-23.5,579,232.375,728.063,364.563" fill="none" stroke="#005ec2" stroke-miterlimit="10"/><path d="M2324.5-128.989c631.936-109.985,728.743-98.856,877,44.25,127.763,123.324,278.125,200.5,485.062,105.687,237.1-108.858,365.508-300.091,603.563-307.187,434.857-12.964,566,222.75,705.125,346.125" fill="none" stroke="#005cc1" stroke-miterlimit="10"/><path d="M2328.25-119.052c619.9-99.478,705.181-84.474,872.5,52.375,147.155,120.358,296.688,179.75,505.094,85.031,236.412-107.76,372.644-280.761,605.844-282.281,415.807-2.71,553,213.125,682.187,327.688" fill="none" stroke="#0059bf" stroke-miterlimit="10"/><path d="M2332-109.114c607.872-88.971,681.9-70.3,868,60.5,166.781,117.222,315.25,159,525.125,64.375C3960.852-90.9,4104.83-245.777,4333.25-241.614c396.651,7.229,540,203.5,659.25,309.25" fill="none" stroke="#0057bd" stroke-miterlimit="10"/><path d="M2335.75-99.177c595.84-78.463,658.8-56.344,863.5,68.625,186.57,113.9,333.812,138.25,545.156,43.719C3979.447-92.4,4131.1-229.274,4354.812-219.3c377.4,16.823,527,193.875,636.313,290.813" fill="none" stroke="#0055bc" stroke-miterlimit="10"/><path d="M2339.5-89.239c583.808-67.956,635.815-42.586,859,76.75,206.464,110.4,352.375,117.5,565.188,23.062C3998.043-93.9,4157.3-212.922,4376.375-196.989c358.064,26.041,514,184.25,613.375,272.375" fill="none" stroke="#0052ba" stroke-miterlimit="10"/><path d="M2343.25-79.3c571.776-57.448,612.9-29,854.5,84.875,226.42,106.722,370.938,96.75,585.219,2.406,233.67-103.372,400.487-204.729,614.969-182.656,338.666,34.853,501,174.625,590.437,253.938" fill="none" stroke="#0050b8" stroke-miterlimit="10"/><path d="M2347-69.364c559.744-46.941,590-15.573,850,93,246.408,102.9,389.5,76,605.25-18.25,232.985-102.276,407.32-186.177,617.25-157.75,319.233,43.227,488,165,567.5,235.5" fill="none" stroke="#004eb7" stroke-miterlimit="10"/><path d="M2350.75-59.427C2898.462-95.86,2917.867-61.7,3196.25,41.7c266.406,98.946,408.062,55.25,625.281-38.906,232.3-101.179,414.142-167.878,619.531-132.844,299.8,51.138,475,155.375,544.563,217.063" fill="none" stroke="#004cb5" stroke-miterlimit="10"/><path d="M2354.5-49.489c535.68-25.926,544.221,10.928,841,109.25,286.4,94.883,426.625,34.5,645.312-59.563,231.614-100.082,420.984-149.88,621.813-107.937,280.4,58.561,462,145.75,521.625,198.625" fill="none" stroke="#004ab3" stroke-miterlimit="10"/><path d="M2358.25-39.552C2881.9-54.97,2879.557-15.514,3194.75,77.823c306.384,90.728,445.188,13.75,665.344-80.219,230.928-98.985,427.894-132.235,624.094-83.031,261.106,65.482,449,136.125,498.687,180.188" fill="none" stroke="#0047b1" stroke-miterlimit="10"/><path d="M2362-29.614c511.616-4.911,498.369,37.076,832,125.5,326.349,86.494,463.75-7,685.375-100.875,230.242-97.888,434.936-115,626.375-58.125,241.973,71.894,436,126.5,475.75,161.75" fill="none" stroke="#0045b0" stroke-miterlimit="10"/><path d="M2365.75-19.677c499.584,5.6,475.406,50.054,827.5,133.625,346.294,82.2,482.312-27.75,705.406-121.531,229.557-96.791,442.193-98.252,628.656-33.219,223.089,77.807,423,116.875,452.813,143.313" fill="none" stroke="#0043ae" stroke-miterlimit="10"/><path d="M2369.5-9.739c487.552,16.1,452.417,62.981,823,141.75,366.218,77.84,500.875-48.5,725.438-142.188,228.871-95.694,449.773-82.045,630.937-8.312,204.55,83.25,410,107.25,429.875,124.875" fill="none" stroke="#0041ac" stroke-miterlimit="10"/><path d="M2373.25.2c475.52,26.612,429.534,75.174,818.5,149.875,386.25,72.75,519.438-69.25,745.469-162.844,228.185-94.6,457.818-66.446,633.219,16.594,186.476,88.284,397,97.625,406.937,106.438" fill="none" stroke="#003eab" stroke-miterlimit="10"/><path d="M2377,10.136c463.488,37.119,406.361,88.721,814,158,406,69,538-90,765.5-183.5s466.5-51.5,635.5,41.5,384,88,384,88" fill="none" stroke="#003ca9" stroke-miterlimit="10"/></g><rect y="-0.12" width="2500" height="250" fill="#002f33"/><path d="M2500,45.616a69.265,69.265,0,1,0,0,81.676Z" fill="#003c40"/><path d="M2044.7,249.88h74.861a69.275,69.275,0,1,0-74.861,0Z" fill="#003c40"/><path d="M1212.3-.12h-96.592a69.275,69.275,0,1,0,96.592,0Z" fill="#003c40"/><path d="M173.633-.12H97.847a69.274,69.274,0,1,0,75.786,0Z" fill="#003c40"/><path d="M701.333,250.235h62.439a69.275,69.275,0,1,0-62.439,0Z" fill="#003c40"/><ellipse cx="1654.45" cy="103.701" rx="69.275" ry="69.296" fill="#003c40"/><path d="M382.444,10.355h-2.4l-27.04,52.384,5.819,5.135h44.5l6.161-5.135Zm2.4,49.3h-7.53V51.1h7.53Zm0-12.667h-7.53V26.447h7.53Z" fill="#003c40"/><path d="M1364.962,129.434a4.876,4.876,0,1,1,0-9.748,4.819,4.819,0,0,1,4.8,4.764,4.87,4.87,0,0,1-4.8,4.984m20.042-.646L1380,123.805l4.351-5.638-6.749-1.733,1.092-7.171-6.971,1.953-2.618-6.725-5.008,4.984-5.459-4.33-1.962,6.716-6.971-1.087,1.74,6.959-6.534,2.6,5.008,4.983-4.574,5.44,6.971,1.953-1.084,6.936,6.749-1.739,2.612,6.724,5.03-5.2,5.665,4.552,1.741-6.938,7.184,1.3-1.954-6.93Z" fill="#003c40"/><path d="M1555.821,206.344l-5.861-5.864a4.267,4.267,0,0,0,.617-1.839h8.325a14.116,14.116,0,0,1-3.081,7.7m-10.174,6.132v-8.6c.617,0,.918-.3,1.233-.3l5.859,5.833a16.73,16.73,0,0,1-7.092,3.066m-12.337-3.066,5.86-5.833c.617.3,1.233.3,1.85.613v8.286a17.005,17.005,0,0,1-7.71-3.066m-2.81-3.066a17.415,17.415,0,0,1-3.383-7.7h8.345c.313.613.616,1.225.929,1.839Zm0-19.367,5.891,5.832a2.251,2.251,0,0,0-.616,1.226h-8.355a13.2,13.2,0,0,1,3.08-7.058m10.52-6.164v8.315c-.617.3-1.233.3-1.85.614l-5.86-5.831a16.915,16.915,0,0,1,7.71-3.1m4.627,17.828a3.372,3.372,0,0,1-4.627,0,2.968,2.968,0,0,1,0-4.3,3.372,3.372,0,0,1,4.627,0,2.968,2.968,0,0,1,0,4.3m7.092-14.73-5.859,5.831c-.315,0-.616-.312-1.233-.614v-8.315a16.614,16.614,0,0,1,7.092,3.1m3.082,3.066a15.93,15.93,0,0,1,3.081,7.058h-8.325c-.3-.312-.3-.924-.617-1.226Zm12.952,11.664v-4.606h-3.385c-.311-1.226-.625-2.453-.928-3.68l3.395-1.539-1.849-4.293-3.4,1.528a12.611,12.611,0,0,0-2.16-3.378l2.465-2.474-3.081-3.378-2.779,2.453c-.92-.613-2.153-1.527-3.082-2.152l1.232-3.366-4.314-1.841-1.231,3.368a18.541,18.541,0,0,0-4.012-.614v-3.681h-4.627v3.681a18.449,18.449,0,0,0-4.012.614l-1.233-3.368-4.345,1.841,1.233,3.366a24.469,24.469,0,0,0-3.7,2.152l-2.162-2.453-3.394,3.378,2.476,2.474a18.483,18.483,0,0,0-2.164,3.076l-3.08-1.226-1.859,4.293,3.092,1.227c-.617,1.227-.617,2.766-.93,3.992h-3.082v4.606h3.082a16.028,16.028,0,0,0,.616,4.012l-2.778,1.226,1.859,4.3,2.768-.924a23.1,23.1,0,0,0,2.476,3.377l-2.476,2.153,3.394,3.367,2.162-2.14c1.233.612,2.466,1.527,3.7,2.14l-1.233,2.765,4.345,1.84,1.233-2.754a15.9,15.9,0,0,0,4.012.613v3.369h4.627v-3.369a9.585,9.585,0,0,0,4.012-.925l1.231,3.066,4.314-1.84-1.232-3.066a26.8,26.8,0,0,0,3.082-1.839l2.465,2.14,3.395-3.067-2.465-2.453c.929-1.225,1.546-2.453,2.465-3.679l3.092,1.527,1.849-4.293-3.395-1.537c.3-1.248.617-2.475.928-4.012Z" fill="#003c40"/><path d="M176.727,58.213h95.3a41.993,41.993,0,0,1,41.987,42V176.88a41.993,41.993,0,0,0,41.987,42h87.973c19.512,0,35.312,11.079,40.023,29.12" fill="none" stroke="#003c40" stroke-miterlimit="10" stroke-width="2" stroke-dasharray="2 3"/><path d="M727.963,216.86v-9.409a36.6,36.6,0,0,0,8.648.427l3.147,7.87a1.769,1.769,0,0,0,3.284-1.314l-2.794-6.985c.9-.15,1.809-.329,2.719-.547.125-.027.248-.059.371-.09s.215-.05.323-.078c.018,0,.034-.013.052-.018.385-.1.765-.226,1.14-.356-.109-.166-.222-.327-.329-.5a35.985,35.985,0,0,1-5.042-17.831H709.929V185.2h29.547a36.03,36.03,0,0,1,5.048-17.95c.149-.236.3-.462.458-.689a17.039,17.039,0,0,0-3.874-.892.867.867,0,0,0-.356-.1l-.414-.011,2.7-6.76a1.769,1.769,0,1,0-3.284-1.314l-3.2,8.005a57.251,57.251,0,0,0-8.594.474v-9.591a1.768,1.768,0,1,0-3.536,0V166.68a35.3,35.3,0,0,0-7.5,2.985l-3.2-9.6a1.768,1.768,0,1,0-3.354,1.118l3.417,10.256c-5.812,3.568-9.519,8.964-9.519,15.006,0,5.676,3.271,10.783,8.486,14.339l.008.007c.355.282.72.554,1.089.822l-3.481,10.448a1.768,1.768,0,1,0,3.354,1.118l3.2-9.6a33.722,33.722,0,0,0,7.5,3.09v10.2a1.768,1.768,0,1,0,3.536,0Z" fill="#002f33"/><path d="M757.728,190.114l6.474,6.476a2.5,2.5,0,1,0,1.715-1.785l-7.905-7.908c0-.152.007-.3.007-.457v-.018l7.9-7.9a2.517,2.517,0,1,0-1.715-1.785l-6.417,6.418a20.823,20.823,0,0,0-10.207-15.424c-3.237,4.555-5.294,11.3-5.294,18.828,0,7.431,2.006,14.1,5.174,18.657A20.757,20.757,0,0,0,757.728,190.114Zm-8.549-13.46a2.417,2.417,0,1,1,2.417,2.418A2.418,2.418,0,0,1,749.179,176.654Zm0,19.808a2.417,2.417,0,1,1,2.417,2.418A2.417,2.417,0,0,1,749.179,196.462Z" fill="#002f33"/><path d="M2076.249,223.089V213.68a36.6,36.6,0,0,0,8.648.427l3.147,7.87a1.768,1.768,0,1,0,3.283-1.313l-2.793-6.986c.9-.149,1.809-.328,2.719-.546.125-.028.248-.06.371-.09s.215-.051.322-.079c.018,0,.035-.013.052-.018.386-.1.765-.226,1.141-.356-.11-.165-.222-.326-.329-.5a35.99,35.99,0,0,1-5.043-17.831h-29.552v-2.83h29.547a36.029,36.029,0,0,1,5.048-17.949c.149-.237.3-.463.457-.69a16.964,16.964,0,0,0-3.873-.891.869.869,0,0,0-.356-.1l-.414-.011,2.7-6.76a1.768,1.768,0,1,0-3.283-1.314l-3.2,8a57.242,57.242,0,0,0-8.594.475V162.6a1.768,1.768,0,1,0-3.536,0V172.91a35.238,35.238,0,0,0-7.5,2.984l-3.2-9.605a1.768,1.768,0,1,0-3.354,1.118l3.417,10.256c-5.812,3.568-9.519,8.964-9.519,15.006,0,5.676,3.271,10.783,8.486,14.339l.008.007c.355.282.72.555,1.089.822l-3.481,10.448a1.768,1.768,0,1,0,3.354,1.119l3.2-9.6a33.767,33.767,0,0,0,7.5,3.089v10.2a1.768,1.768,0,1,0,3.536,0Z" fill="#002f33"/><path d="M2106.014,196.344l6.474,6.476a2.467,2.467,0,0,0-.079.612,2.5,2.5,0,1,0,1.794-2.4l-7.905-7.908c0-.152.007-.3.007-.457v-.017l7.9-7.9a2.518,2.518,0,1,0-1.715-1.786l-6.417,6.419a20.819,20.819,0,0,0-10.207-15.424c-3.238,4.555-5.294,11.3-5.294,18.827,0,7.431,2.006,14.1,5.174,18.657A20.755,20.755,0,0,0,2106.014,196.344Zm-8.55-13.461a2.417,2.417,0,1,1,2.417,2.418A2.418,2.418,0,0,1,2097.464,182.883Zm0,19.808a2.417,2.417,0,1,1,2.417,2.418A2.418,2.418,0,0,1,2097.464,202.691Z" fill="#002f33"/><path d="M2041.144,191.25h-95.3a41.993,41.993,0,0,1-41.987-42V72.583a41.993,41.993,0,0,0-41.987-42h-87.972a42.008,42.008,0,0,1-40.451-30.7" fill="none" stroke="#003c40" stroke-miterlimit="10" stroke-width="2" stroke-dasharray="2 3"/><path d="M2467.4,69.562l-6.651,6.654a36.65,36.65,0,0,0-5.813-6.42l3.338-7.791a1.768,1.768,0,0,0-3.251-1.393l-2.962,6.915c-.744-.532-1.512-1.047-2.309-1.537-.108-.068-.218-.132-.326-.2s-.188-.116-.284-.173c-.016-.009-.033-.015-.049-.024-.346-.2-.7-.381-1.059-.555-.039.195-.073.388-.118.584A35.983,35.983,0,0,1,2438.88,81.8l20.9,20.9-2,2-20.892-20.9a36.016,36.016,0,0,1-16.258,9.122c-.273.062-.542.112-.811.164a17.022,17.022,0,0,0,2.108,3.37.862.862,0,0,0,.182.323l.284.3-6.69,2.868a1.768,1.768,0,1,0,1.393,3.251l7.922-3.4a57.219,57.219,0,0,0,6.413,5.743l-6.78,6.782a1.768,1.768,0,0,0,2.5,2.5l7.285-7.287a35.294,35.294,0,0,0,7.412,3.193l-4.527,9.056a1.768,1.768,0,1,0,3.163,1.582l4.833-9.669c6.632,1.588,13.068.394,17.339-3.878,4.012-4.013,5.309-9.938,4.135-16.142v-.011c-.052-.45-.118-.9-.19-1.351l9.848-4.925a1.769,1.769,0,0,0-1.582-3.164l-9.049,4.526a33.74,33.74,0,0,0-3.118-7.489l7.207-7.21a1.768,1.768,0,1,0-2.5-2.5Z" fill="#002f33"/><path d="M2427.45,67.421V58.262a2.536,2.536,0,0,0,.489-.377,2.5,2.5,0,1,0-3.536,0,2.476,2.476,0,0,0,.572.426V69.5c-.11.106-.22.21-.328.318l-.013.012h-11.17a2.5,2.5,0,1,0-.426,2.965,2.468,2.468,0,0,0,.377-.489h9.075a20.827,20.827,0,0,0-3.686,18.127c5.509-.931,11.734-4.248,17.053-9.569,5.252-5.254,8.551-11.392,9.529-16.851A20.741,20.741,0,0,0,2427.45,67.421Zm-3.47,15.565a2.417,2.417,0,1,1,0-3.419A2.417,2.417,0,0,1,2423.98,82.986Zm14-14.006a2.418,2.418,0,1,1,0-3.42A2.417,2.417,0,0,1,2437.982,68.98Z" fill="#002f33"/><path d="M1663.312,134.629l-4.53-8.245a36.655,36.655,0,0,0,7.785-3.793l6.547,5.381a1.768,1.768,0,0,0,2.245-2.733l-5.812-4.776c.719-.566,1.427-1.159,2.12-1.789.1-.084.188-.171.282-.258s.164-.147.245-.224c.013-.012.023-.027.037-.04.287-.277.561-.567.828-.862-.176-.092-.352-.179-.528-.277a35.976,35.976,0,0,1-13-13.2l-25.9,14.238-1.363-2.48,25.894-14.236a36.033,36.033,0,0,1-4.218-18.162c.016-.279.043-.552.069-.825a17.036,17.036,0,0,0-3.824,1.085.864.864,0,0,0-.361.084l-.368.189-.885-7.227a1.768,1.768,0,1,0-3.51.431l1.049,8.557a57.34,57.34,0,0,0-7.3,4.557l-4.618-8.405a1.768,1.768,0,1,0-3.1,1.7l4.963,9.032a35.291,35.291,0,0,0-5.134,6.228l-7.43-6.876a1.769,1.769,0,0,0-2.751,2.15,1.75,1.75,0,0,0,.35.447l7.932,7.341c-3.375,5.927-4.026,12.442-1.117,17.737,2.733,4.975,8.058,7.874,14.341,8.478l.011,0c.447.076.9.139,1.35.2l1.979,10.834a1.768,1.768,0,1,0,3.479-.636l-1.819-9.956a33.768,33.768,0,0,0,8.06-.9l4.909,8.936a1.768,1.768,0,1,0,3.1-1.7Z" fill="#002f33"/><path d="M1676.52,96.85l8.791,2.556a2.5,2.5,0,1,0,4.609-1.834,2.5,2.5,0,0,0-3.395-.987,2.474,2.474,0,0,0-.57.43l-10.736-3.121c-.07-.135-.14-.27-.213-.4l-.009-.016,3.118-10.729a2.5,2.5,0,1,0-2.727-1.237,2.537,2.537,0,0,0,.364.5l-2.533,8.716a20.814,20.814,0,0,0-16.372-8.6c-.644,5.552.8,12.457,4.426,19.051,3.577,6.512,8.549,11.394,13.517,13.858A20.763,20.763,0,0,0,1676.52,96.85Zm-13.974-7.677a2.417,2.417,0,1,1,3.283.954A2.419,2.419,0,0,1,1662.546,89.173Zm9.537,17.359a2.417,2.417,0,1,1,3.283.954A2.419,2.419,0,0,1,1672.083,106.532Z" fill="#002f33"/><path d="M1135.53,44.946h9.406a36.674,36.674,0,0,0-.427,8.651l-7.867,3.148a1.768,1.768,0,0,0,1.313,3.284l6.983-2.794c.15.9.329,1.809.547,2.72.027.124.059.247.09.371.027.107.05.215.078.322,0,.018.013.034.018.052.1.386.226.765.356,1.141.165-.109.326-.222.5-.329a35.96,35.96,0,0,1,17.826-5.044V26.906h2.829V56.462a36.008,36.008,0,0,1,17.944,5.05c.237.149.462.3.689.458a17.06,17.06,0,0,0,.892-3.875.867.867,0,0,0,.1-.357c0-.14.008-.275.011-.413l6.758,2.7a1.768,1.768,0,0,0,1.313-3.284l-8-3.2a57.285,57.285,0,0,0-.474-8.6H1196a1.769,1.769,0,0,0,0-3.537h-10.3a35.258,35.258,0,0,0-2.984-7.5l9.6-3.2a1.768,1.768,0,1,0-1.118-3.355l-10.253,3.418c-3.567-5.814-8.961-9.522-15-9.522-5.674,0-10.78,3.272-14.335,8.489l-.007.008c-.282.355-.554.72-.822,1.09l-10.444-3.483a1.768,1.768,0,0,0-1.119,3.355l9.6,3.2a33.763,33.763,0,0,0-3.089,7.5H1135.53a1.769,1.769,0,0,0,0,3.537Z" fill="#002f33"/><path d="M1162.267,74.72l-6.474,6.476a2.467,2.467,0,0,0-.612-.079,2.506,2.506,0,1,0,2.4,1.8L1165.484,75c.152,0,.3.007.457.007h.017l7.9,7.9a2.5,2.5,0,1,0,2.4-1.8,2.467,2.467,0,0,0-.612.079l-6.417-6.419a20.814,20.814,0,0,0,15.419-10.21c-4.553-3.239-11.3-5.3-18.821-5.3-7.429,0-14.1,2.007-18.651,5.176A20.748,20.748,0,0,0,1162.267,74.72Zm13.457-8.552a2.418,2.418,0,1,1-2.417,2.418A2.418,2.418,0,0,1,1175.724,66.168Zm-19.8,0a2.418,2.418,0,1,1-2.417,2.418A2.417,2.417,0,0,1,1155.922,66.168Z" fill="#002f33"/><path d="M477.014-.62v96.5a51.6,51.6,0,1,0,51.6-51.619v-.006c-44.486,0-76.515,32.98-76.515,72.422s30.526,71.416,68.181,71.416H691.566" fill="none" stroke="#003c40" stroke-miterlimit="10" stroke-width="2" stroke-dasharray="2 3"/><path d="M1227.755,63.38h94.613c42.987,0,58.858,14.628,73.477,54,13,35,45.237,60.611,89.972,55.871,49.79-5.276,134.958-50.964,134.958-50.964" fill="none" stroke="#003c40" stroke-miterlimit="10" stroke-width="2.384" stroke-dasharray="2.384 3.576"/><path d="M896.668,248.054V173.3a61.513,61.513,0,1,1,61.513,61.531v.008c-53.029,0-91.209-39.314-91.209-86.33s36.388-85.13,81.275-85.13H1165.6" fill="none" stroke="#003c40" stroke-miterlimit="10" stroke-width="2.384" stroke-dasharray="2.384 3.576"/><path d="M1075.559,179.5a36.134,36.134,0,1,0-11.111.071,3.615,3.615,0,0,0-1.384,2.792h0c0,.006,0,.013,0,.019l.079,53.58c.03,2.194,2.25,3.949,4.958,3.921l4.1-.043a5.634,5.634,0,0,0,3-.873l.035-.022c.089-.059.174-.121.258-.185l.083-.062c.072-.058.141-.118.209-.179l.1-.093c.06-.058.117-.117.173-.177.036-.039.072-.078.107-.118.049-.058.1-.116.142-.175s.071-.095.1-.143.078-.114.115-.172.064-.109.095-.164.061-.113.089-.171.056-.124.082-.186.046-.11.066-.165.044-.14.064-.211c.014-.052.031-.1.043-.156.019-.082.031-.165.043-.248.007-.044.016-.088.021-.132a3.17,3.17,0,0,0,.019-.391l-.063-40.961h.055l-.07-12.619a3.378,3.378,0,0,0-.03-.391c-.006-.044-.017-.087-.025-.131-.014-.083-.029-.166-.05-.247-.013-.052-.031-.1-.047-.155-.022-.07-.043-.141-.07-.21s-.046-.109-.07-.163-.055-.125-.087-.185-.061-.113-.094-.168-.064-.109-.1-.163-.078-.114-.12-.17-.07-.094-.108-.14-.1-.115-.146-.171q-.054-.06-.111-.117c-.057-.059-.116-.117-.177-.173-.034-.031-.07-.061-.1-.091S1075.584,179.517,1075.559,179.5Zm-28.42-57.668a31.623,31.623,0,1,1,.53,44.725A31.513,31.513,0,0,1,1047.139,121.829Z" fill="#003c40"/><path d="M1077.779,21a1.44,1.44,0,0,1-1.711-.084c-.259.139-.415-.777-.435-1.435l-.07-2.627c-.157-.917-.952-1.157-1.332-.62l-2.334,1.249a2.226,2.226,0,0,1-1.953.71l-.693-1.3L1068,14.569c-.415-.777-1.074-.759-1.454-.223l-1.778,2.285a6.1,6.1,0,0,1-1.28,1.35,12.1,12.1,0,0,1-1.211-1.019l-2.146-1.519c-.674-.639-1.193-.362-1.434.435l-.588,2.645a2,2,0,0,1-.878,1.471,5.091,5.091,0,0,1-1.455-.223l-2.387-.722c-.794-.241-1.313.036-1.156.952l.468,2.749c.019.658-.084,1.71-.084,1.71a4.914,4.914,0,0,1-1.575.177l-2.748.47c-.657.019-1.038.555-.621,1.332l1.505,2.193a10.418,10.418,0,0,1,.572,1.693,10.22,10.22,0,0,1-1.419,1.093L1046,32.666a.742.742,0,0,0,.037,1.313l2.145,1.519c.537.38,1.211,1.018,1.09,1.416a5.489,5.489,0,0,1-.622,1.333l-1.918,2.025c-.38.537-.1,1.055.434,1.435l2.644.584c.8.24,1.592.482,1.731.741a1.574,1.574,0,0,1-.225,1.452l-.844,2.786c-.242.793.3,1.175.951,1.155l2.61-.728a2.1,2.1,0,0,1,1.852.342c.259-.139.278.52.433,1.435l.07,2.627c.156.916.813.9,1.332.621l2.333-1.248a2.232,2.232,0,0,1,1.955-.712l.694,1.3,1.247,2.332c.414.776,1.071.759,1.45.223l1.643-2.545a4.358,4.358,0,0,1,1.415-1.091A12.227,12.227,0,0,1,1069.671,52l2.145,1.519c.676.638,1.192.363,1.435-.435l.329-2.507a4.4,4.4,0,0,1,1-1.866s.8.238,1.591.48l2.387.723c.8.242,1.176-.3,1.159-.951l-.469-2.749c-.018-.658.085-1.713.085-1.713a3.188,3.188,0,0,1,1.434-.433l2.889-.211c.656-.019,1.036-.554.62-1.333l-1.5-2.194a6.429,6.429,0,0,1-.573-1.694c-.139-.259.64-.676,1.158-.953l2.592-1.388a.742.742,0,0,0-.034-1.312l-2.146-1.518c-.536-.381-1.349-1.28-1.09-1.419-.139-.259.241-.795.621-1.33l1.92-2.026c.378-.536.1-1.055-.694-1.3l-2.386-.723a11.512,11.512,0,0,1-1.731-.741,2.692,2.692,0,0,1,.086-1.711l.983-2.526c.242-.794-.293-1.174-.95-1.157ZM1069.3,33.2a3.577,3.577,0,0,1-6.778,2.291,3.27,3.27,0,0,1,2.381-4.273,3.543,3.543,0,0,1,4.4,1.982" fill="#003c40"/><path d="M1480.839,118.387a47.926,47.926,0,1,0,13.1,6.735,4.785,4.785,0,0,0,3.338-2.432h0l.014-.022,32.765-63.025c1.31-2.6-.223-6.021-3.423-7.649l-4.843-2.464a7.465,7.465,0,0,0-4.06-.815l-.055,0c-.141.015-.28.036-.417.059-.045.008-.091.014-.135.023-.121.023-.239.052-.356.082l-.177.046c-.106.031-.209.065-.312.1-.066.023-.133.048-.2.074-.093.037-.184.076-.274.118-.071.033-.141.067-.21.1s-.162.085-.24.132-.143.089-.213.135-.141.094-.21.145-.141.111-.21.169-.121.1-.178.154-.138.137-.2.208c-.049.053-.1.1-.147.157-.071.084-.137.175-.2.265-.035.048-.073.093-.106.142a4.231,4.231,0,0,0-.262.448l-25.045,48.182-.065-.033-7.655,14.875a4.229,4.229,0,0,0-.205.477c-.02.056-.034.113-.052.17-.033.106-.067.213-.093.321-.016.07-.026.14-.038.211-.018.1-.036.192-.047.29-.009.078-.013.156-.018.235s-.011.18-.012.27,0,.17.008.255.009.168.017.253.022.181.036.272.025.155.041.232c.02.1.042.194.067.291.018.069.038.137.059.2.031.105.064.209.1.312.021.057.044.114.067.171C1480.809,118.31,1480.822,118.349,1480.839,118.387Zm-1.961,85.221a41.931,41.931,0,1,1,26.805-52.894A41.776,41.776,0,0,1,1478.878,203.608Z" fill="#003c40"/><path d="M1133.21,137.355h-2.4l-27.04,52.384,5.819,5.135h44.495l6.161-5.135Zm2.4,49.3h-7.53V178.1h7.53Zm0-12.667h-7.53V153.447h7.53Z" fill="#003c40"/><path d="M1798.971,248.472c32.083-109.907,132.932-188.05,253.169-188.05,118.634,0,219.017,78.164,252.49,185.816" fill="none" stroke="#003c40" stroke-miterlimit="10" stroke-width="2.384" stroke-dasharray="2.384 3.576"/><path d="M3,98C69.979,62,53.765-.12,53.765-.12" fill="none" stroke="#003c40" stroke-miterlimit="10" stroke-width="2.384" stroke-dasharray="2.384 3.576"/><path d="M1989.942,89.355h-2.4l-27.04,52.384,5.819,5.135h44.495l6.161-5.135Zm2.4,49.3h-7.53V130.1h7.53Zm0-12.667h-7.53V105.447h7.53Z" fill="#003c40"/><path d="M2368.355,166.4l-5.8-1.871c-2.176-.7-2.669-1.664-2.926-3.348-.49-.959-.505-2.165-1-3.125a4.267,4.267,0,0,1,1.647-3.876l5.015-4.385a2.891,2.891,0,0,0,.454-2.658l-2.937-4.553c-.246-.481-1.7-.949-3.136-.211l-5.75,2.948a3.1,3.1,0,0,1-3.861-.441l-.48.246a4.124,4.124,0,0,0-2.187-1.911c-1.452-.468-2.67-1.663-2.211-4.318l.658-5.8a3.016,3.016,0,0,0-1.953-2.632l-5.312-.914a1.87,1.87,0,0,0-2.148,1.708l-1.872,5.805c-.7,2.178-2.136,2.914-3.342,2.926-.958.492-2.165.5-3.12.994a6.094,6.094,0,0,1-4.351-1.4l-3.663-4.787a2.752,2.752,0,0,0-3.383-.692l-3.821,3.173a2.319,2.319,0,0,0-.934,2.9l3.431,5.512a3.89,3.89,0,0,1-.2,4.342,11.822,11.822,0,0,0-1.66,2.67l-.481.246a4.008,4.008,0,0,1-3.834,1.966l-6.515-.905a2.362,2.362,0,0,0-2.149,1.708l-.91,5.318a1.874,1.874,0,0,0,1.708,2.151l6.048,2.357c2.174.7,2.667,1.659,2.679,2.865.493.961.5,2.165,1,3.127.258,1.685.268,2.888-1.4,4.352l-5.26,3.908a2.966,2.966,0,0,0-.212,3.135l2.941,4.557c.724.231,1.7.944,3.133.206l5.75-2.948c1.919-.984,3.125-1,3.862.445.725.234,1.7.949,3.149,1.417.969.716,1.941,1.427,1.485,4.083l-.417,6.272a2.376,2.376,0,0,0,1.708,2.156l5.309.911a2.427,2.427,0,0,0,2.4-1.23l1.623-6.284c.7-2.176,1.656-2.665,2.861-2.68a33.812,33.812,0,0,1,3.847-.759,3.418,3.418,0,0,1,4.108.925l3.91,5.266a2.954,2.954,0,0,0,3.13.211l4.069-2.692a2.321,2.321,0,0,0,.936-2.9l-3.431-5.513a3.881,3.881,0,0,1,.194-4.341q1.071-1.455,2.14-2.917c.467-1.45,1.427-1.942,3.835-1.965l6.271.424a2.365,2.365,0,0,0,2.151-1.709l1.156-4.832A2.542,2.542,0,0,0,2368.355,166.4Zm-20.8,1.24a12.442,12.442,0,0,1-15.316,10.275,12.8,12.8,0,0,1-10.029-14.852,12.961,12.961,0,0,1,15.066-10.757A13.407,13.407,0,0,1,2347.555,167.644Z" fill="#003c40"/><path d="M1866.805,67.434a4.876,4.876,0,1,1,0-9.748,4.819,4.819,0,0,1,4.795,4.764,4.87,4.87,0,0,1-4.795,4.984m20.042-.646-5.008-4.983,4.351-5.638-6.749-1.733,1.092-7.171-6.971,1.953-2.618-6.725-5.008,4.984-5.459-4.33-1.962,6.716-6.971-1.087,1.74,6.959-6.534,2.6,5.008,4.983-4.574,5.44,6.971,1.953-1.084,6.936,6.749-1.739,2.612,6.724,5.03-5.2,5.665,4.552,1.741-6.938,7.184,1.3-1.954-6.93Z" fill="#003c40"/><path d="M96.139,228.493a4.792,4.792,0,0,0,.38,4.113l.013.023L107.2,249.88h21.675l-7.956-12.864.061-.038-8.858-14.192a4.131,4.131,0,0,0-.305-.42c-.037-.046-.08-.087-.119-.131-.074-.084-.148-.167-.228-.245-.052-.049-.108-.094-.161-.141-.074-.064-.147-.129-.225-.189-.063-.047-.128-.09-.193-.135s-.149-.1-.227-.148-.148-.084-.223-.124-.149-.079-.225-.115-.168-.074-.253-.108-.146-.058-.22-.084c-.093-.032-.188-.063-.284-.091-.068-.02-.137-.038-.206-.055-.106-.026-.212-.051-.32-.071-.06-.012-.121-.021-.182-.03-.041-.007-.081-.015-.123-.021a47.905,47.905,0,1,0-12.49,7.815Zm-59.7-53.111a41.92,41.92,0,1,1,31.711,50.1A41.8,41.8,0,0,1,36.44,175.382Z" fill="#003c40"/><path d="M213.512,249.88h13.131a25.328,25.328,0,0,1-.847-4.9H242.56a16.63,16.63,0,0,0,2.243,4.9h25.958a29.28,29.28,0,0,0,2.33-4.9h16.781a35.612,35.612,0,0,1-1.065,4.9h12.881c.294-1.465.587-2.932.887-4.389h6.608v-9.609h-6.608c-.518-2.535-1.017-5.616-1.533-8.135l6.109-2.536-3.562-9.095-6.608,3.033a27.987,27.987,0,0,0-4.579-7.092l5.1-5.052-6.608-6.576-5.078,5.071a46.56,46.56,0,0,0-6.611-4.06l2.531-7.108-8.64-3.546-2.531,7.073a23.19,23.19,0,0,0-8.14-1.506v-7.587h-9.69v7.587a20.44,20.44,0,0,0-7.622,1.506l-2.548-7.073-9.139,3.546,3.047,7.108a28.352,28.352,0,0,0-6.611,4.06l-5.593-5.071-6.608,6.576,5.094,5.052a76.616,76.616,0,0,1-4.579,6.578l-6.608-2.519-3.562,8.6,6.608,3.031a23.008,23.008,0,0,0-1.513,8.135H205.97v9.609H213.1A27.133,27.133,0,0,0,213.512,249.88Zm48.411-40.853c7.107.513,13.715,4.059,18.793,9.111a32.588,32.588,0,0,1,9.156,18.755H273.091a15.476,15.476,0,0,0-11.168-11.168Zm2.029,31.41a5.862,5.862,0,0,1-6.092,6.064c-3.562,0-6.66-2.535-6.66-6.064a6.754,6.754,0,0,1,6.66-6.577A6.287,6.287,0,0,1,263.952,240.437Zm-29.017-22.3c5.095-5.052,11.686-8.6,18.295-9.111v16.7a15.75,15.75,0,0,0-10.67,11.168H225.8C226.3,229.768,229.857,223.19,234.935,218.138Z" fill="#003c40"/><path d="M641.447,39.168c-4.88,2.611-6.7,9.123-3.975,14.222a10.615,10.615,0,0,0,9.3,5.783,10,10,0,0,0,4.727-1.2,10.664,10.664,0,1,0-10.055-18.81Zm13.414,11.945a8.672,8.672,0,0,1-4.3,5.1,8.355,8.355,0,0,1-11.324-3.768c-2.175-4.07-.7-9.451,3.154-11.514a8.762,8.762,0,0,1,12.472,10.181Z" fill="#003c40"/><path d="M708.453,37.952a2.813,2.813,0,0,0-1.055-2.083,3.189,3.189,0,0,0-2.494-.681l-8.489-.7-1.181-4.066,6.64-5.027a3.212,3.212,0,0,0,1.519-2.111,3.412,3.412,0,0,0-.242-2.313l-3.037-5.682c-.646-1.21-2.279-1.784-4.163-1.458l-7.9,2.73c-.487-.551-1-1.145-1.509-1.741-.544-.633-1.091-1.269-1.611-1.857l4.154-7.493a3.218,3.218,0,0,0-.713-4.169L686.638-.12H683.48l3.687,3.009a1.243,1.243,0,0,1,.253,1.477l-4.926,8.872.481.531c.648.714,1.352,1.535,2.055,2.352.679.79,1.356,1.578,1.98,2.271l.444.492,8.913-3.1c1.013-.154,1.8.1,1.984.443l3.038,5.682a1.479,1.479,0,0,1,.055.919,1.23,1.23,0,0,1-.589.84l-7.925,5.985,1.948,6.709,10.1.836.124-.021a1.236,1.236,0,0,1,1.024.235.871.871,0,0,1,.33.66l.581,6.03a1.187,1.187,0,0,1-.183.92,1.811,1.811,0,0,1-1.19.659l-9.43,2.745.019.769a18.2,18.2,0,0,1-.483,3.97c-.128.657-.259,1.336-.37,2.056l-.114.742,9.022,4.2.132.051a1.283,1.283,0,0,1,.778.612,1.26,1.26,0,0,1,.074.982l-1.873,6.182a2.34,2.34,0,0,1-1.457.636L691.709,67.36l-.245.8a15.65,15.65,0,0,1-2.405,4.728l-.464.655,6.818,7.523a2.459,2.459,0,0,1,.158,1.862l-4.253,4.927a1.245,1.245,0,0,1-1.512.228L681.1,82.478l-.566.673a15.244,15.244,0,0,1-4.74,4.017l-.759.406,3.41,9.582.06.137a1.183,1.183,0,0,1-.535,1.76l-5.278,2.823a1.184,1.184,0,0,1-1.761-.532l-6.152-8.284-.759.406a22.362,22.362,0,0,1-5.484,1.926l-.724.182-.4,9.884c.013.494-.633,1.158-1.508,1.312l-5.883.57c-.9.031-1.4-.3-1.521-1.016l-2.249-9.449-.664-.1c-1.186-.182-2.317-.258-3.41-.333s-2.111-.141-3.2-.306l-.739-.112-4.168,8.927a3,3,0,0,1-1.837,1.022l-5.674-2.048a1.825,1.825,0,0,1-1.209-1.6l1.958-10.08-.864-.262a17,17,0,0,1-2.552-1.1,18.7,18.7,0,0,0-2.869-1.222l-.549-.166-6.95,6.452c-1.076.542-1.612.321-1.852.156l-4.924-4.251a1.232,1.232,0,0,1-.251-1.475l4.921-8.874-.48-.53c-.644-.712-1.344-1.528-2.043-2.341-.683-.794-1.364-1.587-1.992-2.283l-.448-.5-9.4,3.35-.131.059a1.78,1.78,0,0,1-1.359-.747l-3.037-5.681a2.1,2.1,0,0,1,.391-1.726l7.91-5.888L598.6,58.331l-9.649-.151c-.885-.31-1.483-.98-1.5-1.505l-.585-6.028a1.254,1.254,0,0,1,.233-1.024.84.84,0,0,1,.6-.329l10.2-2.538-.021-.8a38.108,38.108,0,0,1,.636-6.43l.119-.772-9.356-3.925a1.824,1.824,0,0,1-.655-1.894l1.7-5.6a1.832,1.832,0,0,1,1.617-1.212l9.609,1.473.356-.5a19.753,19.753,0,0,0,1.56-2.756,18.094,18.094,0,0,1,1.392-2.475l.469-.664-6.751-7.264a1.822,1.822,0,0,1-.214-2.132L602.1,7.212a1.8,1.8,0,0,1,2.13-.475l8.644,5.572.553-.781a12.964,12.964,0,0,1,3.043-2.692c.6-.431,1.211-.876,1.812-1.37l.543-.445L616.281-.12h-2.122l2.3,6.474c-.387.3-.781.582-1.167.861a18.45,18.45,0,0,0-2.9,2.41l-7.21-4.647-.251-.117a3.859,3.859,0,0,0-4.34,1.031l-3.833,4.695a3.784,3.784,0,0,0,.385,4.747l5.62,6.051c-.421.685-.765,1.38-1.1,2.057s-.67,1.352-1.063,1.981l-8.556-1.312-.089,0a3.844,3.844,0,0,0-3.556,2.635l-1.7,5.605a3.838,3.838,0,0,0,1.491,4.167l8.22,3.473a40.126,40.126,0,0,0-.543,5.209l-8.353,2.1a2.835,2.835,0,0,0-1.964,1.055,3.169,3.169,0,0,0-.666,2.556l.57,5.885a4,4,0,0,0,3.038,3.337l8.641.174,1.343,4.164-6.9,5.135-.219.224a4,4,0,0,0-.605,3.947L593.8,79.46c.6,1.124,2.557,2.284,3.981,1.609l8.083-2.88c.489.554,1,1.152,1.516,1.749.541.63,1.083,1.261,1.6,1.845l-4.148,7.491A3.079,3.079,0,0,0,604.4,91.5a3,3,0,0,0,1.115,1.933l4.924,4.251a3.709,3.709,0,0,0,4.136-.024l6.4-5.9a21.752,21.752,0,0,1,2.028.92c.647.319,1.309.646,2,.919l-1.665,8.574,0,.11a3.818,3.818,0,0,0,2.584,3.537l6,2.168.189,0a4.952,4.952,0,0,0,3.631-1.944l3.671-7.827c.9.108,1.774.167,2.623.225.876.058,1.714.115,2.576.221l1.922,8.065a3.178,3.178,0,0,0,3.453,2.615c.049,0,.1,0,.148,0l6.026-.585a3.6,3.6,0,0,0,3.241-3.277l.342-8.326a23.655,23.655,0,0,0,4.442-1.528l5.015,6.738a3.165,3.165,0,0,0,4.429,1.283l5.278-2.824a3.166,3.166,0,0,0,1.393-4.395l-2.816-7.915a16.571,16.571,0,0,0,4-3.4l7.2,4.639a3.2,3.2,0,0,0,4.2-.651l4.254-4.929a4.251,4.251,0,0,0-.017-4.137l-5.979-6.642a17.043,17.043,0,0,0,1.965-3.836l8.69,1.075.073.01.075,0c1.342-.035,3.015-.852,3.367-2.012l1.891-6.226a3.221,3.221,0,0,0-2.112-4.068L697.5,54.789c.075-.425.155-.838.234-1.241a23.989,23.989,0,0,0,.513-3.624l7.813-2.279a3.746,3.746,0,0,0,2.426-1.464,3.11,3.11,0,0,0,.533-2.342Z" fill="#003c40"/><path d="M629.664,1.364A24.216,24.216,0,0,0,632.641.318c.387-.154.758-.3,1.127-.438h-5.975l1.224,1.647Z" fill="#003c40"/><path d="M672.412,5.562l.654.462L679.851-.12h-2.978l-3.961,3.587a20.035,20.035,0,0,0-4.037-2.332l.193-1.255h-2.02l-.408,2.63.831.251A18,18,0,0,1,672.412,5.562Z" fill="#003c40"/><path d="M776.007,4.509,769.6,2.563C767.451,1.914,766.56.6,766.368-.62h-13.83a14.981,14.981,0,0,1,.515,6.462,14.72,14.72,0,0,1-16.636,11.583C728.44,16.32,723.211,9.053,724.846.8A13.827,13.827,0,0,1,725.19-.62H700.508l-.092.6a2.666,2.666,0,0,0,1.395,2.61l6.93,1.662c2.4.729,2.956,1.769,3,3.092.315,1.845.874,2.89.908,4.211.837,1.567.349,3.168-.938,4.53L706,20.479a3.246,3.246,0,0,0-.173,3.442l3.033,4.417a2.546,2.546,0,0,0,3.205.973l5.986-3.873a4.261,4.261,0,0,1,4.769.13q1.617,1.149,3.243,2.3c1.6.485,2.158,1.53,2.23,4.173l-.347,6.9a2.6,2.6,0,0,0,1.918,2.329l5.326,1.178a2.79,2.79,0,0,0,2.855-2.2l1.944-6.406c.73-2.4,1.775-2.963,3.619-3.278,1.043-.557,2.366-.6,3.411-1.153a4.685,4.685,0,0,1,4.287,1.734l4.909,5.425a3.171,3.171,0,0,0,2.925.449l4.943-3.313c.523-.279,1.009-1.884.171-3.449l-3.345-6.259c-1.117-2.089-.35-3.17.41-4.249l-.279-.524a4.538,4.538,0,0,0,2.057-2.437c.485-1.605,1.774-2.965,4.7-2.512l6.374.613a3.311,3.311,0,0,0,2.851-2.2l.9-5.852A2.054,2.054,0,0,0,776.007,4.509Z" fill="#003c40"/><path d="M1276.725,218.64a4,4,0,0,0,3.038,3.337l8.64.173,1.343,4.163-6.9,5.137-.219.224a3.993,3.993,0,0,0-.605,3.946l3.037,5.682a3.684,3.684,0,0,0,1.671,1.483,2.689,2.689,0,0,0,2.311.126l8.082-2.88c.489.555,1,1.152,1.516,1.75.542.63,1.084,1.261,1.6,1.845l-3.463,6.254h2.281l3.622-6.531-.48-.531c-.644-.712-1.344-1.527-2.043-2.34-.683-.8-1.364-1.588-1.992-2.285l-.448-.5-9.4,3.352-.131.058a1.8,1.8,0,0,1-1.359-.748l-3.037-5.681a2.1,2.1,0,0,1,.39-1.724l7.91-5.89-2.222-6.889-9.648-.152c-.885-.309-1.483-.979-1.5-1.5l-.585-6.028a1.254,1.254,0,0,1,.234-1.023.84.84,0,0,1,.6-.329l10.2-2.538-.021-.8a37.912,37.912,0,0,1,.636-6.43l.119-.772-9.357-3.926a1.823,1.823,0,0,1-.654-1.894l1.7-5.605a1.832,1.832,0,0,1,1.617-1.211l9.609,1.473.357-.5a19.9,19.9,0,0,0,1.56-2.755,18.041,18.041,0,0,1,1.391-2.476l.469-.664-6.749-7.263a1.822,1.822,0,0,1-.215-2.133l3.742-4.583a1.8,1.8,0,0,1,2.129-.476l8.645,5.571.553-.779a12.919,12.919,0,0,1,3.045-2.694c.594-.431,1.209-.875,1.809-1.367l.544-.447-3.355-9.429-.06-.137a.718.718,0,0,1,.011-.58,1.557,1.557,0,0,1,.741-.776l5.278-2.823a1.584,1.584,0,0,1,1.055-.185.719.719,0,0,1,.489.313l6.036,8.125.647-.164a24.335,24.335,0,0,0,2.974-1.045,22.365,22.365,0,0,1,2.737-.968l.724-.181.4-9.886a1.1,1.1,0,0,1,.332-.72,1.141,1.141,0,0,1,.792-.375l6.267-.785c.509-.024,1.212.592,1.556,1.159l2.277,9.068.232.776.8-.021a18.068,18.068,0,0,1,5.63.411l.805.244,4.64-9.238c.381-.5.995-.757,1.22-.6l.154.109,6.143,1.512a1.285,1.285,0,0,1,.778.61,1.266,1.266,0,0,1,.075.984l-1.565,10.1.83.251a18.315,18.315,0,0,1,4.942,2.8l.654.463,7.629-6.909.143-.161a.84.84,0,0,1,.605-.313,1.3,1.3,0,0,1,1.037.423l4.685,3.824a1.243,1.243,0,0,1,.254,1.479l-4.925,8.87.48.531c.647.713,1.349,1.531,2.049,2.346.681.793,1.36,1.584,1.987,2.278l.444.493,8.912-3.1c1.012-.152,1.8.1,1.985.443l3.037,5.682a1.49,1.49,0,0,1-.534,1.759L1384.2,191.5l1.948,6.708,10.1.837.124-.022a1.24,1.24,0,0,1,1.024.236.869.869,0,0,1,.329.659l.581,6.029a1.184,1.184,0,0,1-.183.921,1.8,1.8,0,0,1-1.19.658l-9.43,2.746.02.769a18.235,18.235,0,0,1-.483,3.968c-.128.658-.26,1.338-.37,2.057l-.115.743,9.022,4.2.132.051a1.285,1.285,0,0,1,.779.612,1.258,1.258,0,0,1,.073.981l-1.871,6.182a2.355,2.355,0,0,1-1.459.637l-10.255-1.269-.245.8a15.607,15.607,0,0,1-2.4,4.726l-.464.656,6.817,7.522a2.454,2.454,0,0,1,.158,1.862l-4.253,4.929a.8.8,0,0,1-.216.178h2.7l3.344-3.874a4.254,4.254,0,0,0-.017-4.137l-5.979-6.642a17.037,17.037,0,0,0,1.965-3.835l8.689,1.075.075.01.074,0c1.342-.037,3.015-.853,3.367-2.012l1.89-6.227a3.219,3.219,0,0,0-2.112-4.067l-7.593-3.538c.075-.426.155-.839.233-1.243a23.712,23.712,0,0,0,.513-3.622l7.814-2.28a3.748,3.748,0,0,0,2.426-1.464,3.106,3.106,0,0,0,.532-2.341l-.567-5.887a2.808,2.808,0,0,0-1.055-2.082,3.2,3.2,0,0,0-2.495-.682l-8.489-.7-1.18-4.065,6.639-5.028a3.448,3.448,0,0,0,1.278-4.424l-3.037-5.682c-.647-1.209-2.283-1.781-4.163-1.458l-7.9,2.73c-.488-.553-1-1.15-1.514-1.748-.543-.631-1.087-1.264-1.606-1.85l4.155-7.492a3.22,3.22,0,0,0-.714-4.17l-4.576-3.735a3.223,3.223,0,0,0-2.551-.913,2.836,2.836,0,0,0-1.965,1.046l-6.371,5.771a20.008,20.008,0,0,0-4.038-2.332l1.265-8.213a3.255,3.255,0,0,0-.245-2.433,3.3,3.3,0,0,0-2.013-1.6l-5.853-1.442c-1.313-.755-3,.03-3.865,1.254l-4.015,7.968a20.272,20.272,0,0,0-4.677-.3l-2.115-8.424-.089-.228a4.272,4.272,0,0,0-3.524-2.3l-6.266.785a3.208,3.208,0,0,0-2.972,3.074l-.343,8.348c-.756.238-1.521.545-2.266.843-.727.291-1.422.569-2.088.781l-5.105-6.857a2.714,2.714,0,0,0-1.78-1.25,3.547,3.547,0,0,0-2.429.375l-5.278,2.824a3.544,3.544,0,0,0-1.66,1.812,2.708,2.708,0,0,0,.049,2.175l2.857,8.031c-.385.3-.78.581-1.165.86a18.518,18.518,0,0,0-2.9,2.411l-7.21-4.648-.252-.116a3.85,3.85,0,0,0-4.339,1.031l-3.834,4.695a3.79,3.79,0,0,0,.386,4.748l5.619,6.05c-.42.685-.764,1.38-1.1,2.058s-.669,1.352-1.062,1.981l-8.556-1.312-.089,0a3.844,3.844,0,0,0-3.557,2.634l-1.7,5.6a3.835,3.835,0,0,0,1.491,4.166l8.22,3.475a40.288,40.288,0,0,0-.544,5.209l-8.353,2.1a2.833,2.833,0,0,0-1.963,1.055,3.169,3.169,0,0,0-.667,2.556Z" fill="#003c40"/><path d="M1372.754,246.948l4.551,2.932H1381l-8.63-5.56-.566.674a15.244,15.244,0,0,1-4.74,4.016l-.759.406.165.464h3A17.231,17.231,0,0,0,1372.754,246.948Z" fill="#003c40"/><path d="M1338.04,221.016a9.98,9.98,0,0,0,4.727-1.2,10.663,10.663,0,1,0-10.054-18.808,9.878,9.878,0,0,0-4.846,6.278,10.989,10.989,0,0,0,.872,7.942A10.612,10.612,0,0,0,1338.04,221.016Zm-8.241-13.21a7.9,7.9,0,0,1,3.857-5.032,8.665,8.665,0,1,1,8.169,15.282,8.353,8.353,0,0,1-11.323-3.768A8.966,8.966,0,0,1,1329.8,207.806Z" fill="#003c40"/><path d="M1835.126,241.262V250h47.048a5.714,5.714,0,0,1-1.817-4.184,6.754,6.754,0,0,1,6.66-6.576,6.286,6.286,0,0,1,6.092,6.576,6.069,6.069,0,0,1-1.56,4.184h46.791v-8.738h-6.608c-.518-2.535-1.017-5.616-1.533-8.136l6.109-2.535-3.562-9.095-6.608,3.033a27.987,27.987,0,0,0-4.579-7.092l5.1-5.052-6.608-6.576-5.078,5.07a46.643,46.643,0,0,0-6.611-4.059l2.531-7.109-8.64-3.545-2.53,7.073a23.2,23.2,0,0,0-8.141-1.506v-7.587h-9.69v7.587a20.444,20.444,0,0,0-7.622,1.506l-2.547-7.073-9.14,3.545,3.047,7.109a28.383,28.383,0,0,0-6.611,4.059l-5.593-5.07-6.608,6.576,5.094,5.052a76.393,76.393,0,0,1-4.579,6.578l-6.608-2.519-3.562,8.6,6.608,3.03a23.019,23.019,0,0,0-1.514,8.136Zm55.954-26.856c7.107.514,13.715,4.06,18.794,9.112a32.586,32.586,0,0,1,9.154,18.755h-16.78a15.476,15.476,0,0,0-11.168-11.168Zm-26.988,9.112c5.095-5.052,11.686-8.6,18.295-9.112v16.7a15.747,15.747,0,0,0-10.669,11.168h-16.765C1855.452,235.148,1859.014,228.57,1864.092,223.518Z" fill="#003c40"/><path d="M2319.323,248.17l-.209.076a4.481,4.481,0,0,0-1.72,1.634h2.613l8.138-1.9.71-.2-.007-.729a16.507,16.507,0,0,1,.464-5.117l.234-.73-8.333-4.37a1.721,1.721,0,0,1-.518-.692c-.041-.111-.1-.312-.014-.427l.1-.139,1.474-5.573a1.115,1.115,0,0,1,1.462-.75l9.164,1.585.242-.753a16.394,16.394,0,0,1,2.628-4.456l.431-.589-6.168-7.057-.144-.132a.767.767,0,0,1-.276-.556,1.208,1.208,0,0,1,.4-.938l3.554-4.207a1.155,1.155,0,0,1,1.431-.155l7.916,4.573.49-.428c.661-.579,1.417-1.207,2.172-1.833.73-.607,1.46-1.212,2.1-1.77l.456-.4-2.679-8.166c-.125-.925.118-1.638.434-1.8l5.22-2.676a1.307,1.307,0,0,1,.837-.037,1.117,1.117,0,0,1,.755.55l5.322,7.312,6.138-1.669.921-9.186-.018-.114a1.124,1.124,0,0,1,.231-.929.786.786,0,0,1,.6-.289l5.5-.434a1.068,1.068,0,0,1,.835.181,1.651,1.651,0,0,1,.581,1.094l2.35,8.631.7,0a16.132,16.132,0,0,1,3.6.5c.6.127,1.212.258,1.865.371l.674.116,3.968-8.152.047-.119a1.116,1.116,0,0,1,1.466-.751l5.6,1.8a2.142,2.142,0,0,1,.557,1.339l-1.317,9.318.729.237a14.2,14.2,0,0,1,4.263,2.264l.589.434,6.955-6.09a2.223,2.223,0,0,1,1.7-.114l4.418,3.951a1.135,1.135,0,0,1,.183,1.381l-5.242,7.839.6.526a13.882,13.882,0,0,1,3.581,4.379l.357.7,8.775-2.953.125-.053a1.078,1.078,0,0,1,1.594.514l2.487,4.852a1.079,1.079,0,0,1-.512,1.6l-7.637,5.473.357.7a20.389,20.389,0,0,1,1.666,5.025l.155.662,8.989.523h.005c.449,0,1.04.6,1.164,1.395l.427,5.368c.007.809-.292,1.265-.949,1.367l-4,.879h6.01a3.432,3.432,0,0,0,.754-2.327l-.437-5.5a3.287,3.287,0,0,0-2.909-3h-.024l-7.571-.443a21.5,21.5,0,0,0-1.321-4.07l6.212-4.461a2.872,2.872,0,0,0,1.238-4.013l-2.486-4.851a2.883,2.883,0,0,0-3.98-1.337l-7.247,2.438a15.119,15.119,0,0,0-3.032-3.694l4.336-6.482a2.92,2.92,0,0,0-.527-3.838l-4.419-3.952a3.864,3.864,0,0,0-3.765-.049l-6.141,5.339a15.456,15.456,0,0,0-3.459-1.85l1.126-7.965v-.068c-.011-1.222-.728-2.758-1.778-3.1l-5.637-1.82a2.931,2.931,0,0,0-3.735,1.858l-3.34,6.862c-.385-.077-.759-.156-1.125-.234a21.717,21.717,0,0,0-3.29-.524l-1.952-7.152a3.413,3.413,0,0,0-1.293-2.233,2.844,2.844,0,0,0-2.124-.521l-5.367.423a2.561,2.561,0,0,0-1.911.927,2.929,2.929,0,0,0-.661,2.262l-.773,7.721-3.718,1.01-4.472-6.126a2.917,2.917,0,0,0-1.9-1.417,3.106,3.106,0,0,0-2.108.183l-5.22,2.676c-1.111.57-1.658,2.05-1.393,3.768l2.36,7.236c-.509.434-1.059.89-1.61,1.347-.584.486-1.171.972-1.714,1.437l-6.71-3.871a2.928,2.928,0,0,0-3.85.552l-3.471,4.109a2.941,2.941,0,0,0-.872,2.308,2.585,2.585,0,0,0,.922,1.808l5.151,5.893a18.246,18.246,0,0,0-2.186,3.64l-7.456-1.282a2.958,2.958,0,0,0-2.218.186,3,3,0,0,0-1.484,1.806L2319.1,234.8a2.243,2.243,0,0,0-.111,1.989,3.547,3.547,0,0,0,1.19,1.549l7.19,3.783a18.414,18.414,0,0,0-.35,4.255Z" fill="#003c40"/><path d="M2370.89,242.9a7.683,7.683,0,0,1,10.618,3.428,7.262,7.262,0,0,1,.8,3.548h1.825a9.079,9.079,0,0,0-1.007-4.378,9.7,9.7,0,0,0-18.339,4.378h1.819A7.9,7.9,0,0,1,2370.89,242.9Z" fill="#003c40"/><path d="M1684.692,171.694h-1.64l-18.5,35.851,3.982,3.515h30.452l4.216-3.515Zm1.64,33.742h-5.154v-5.858h5.154Zm0-8.67h-5.154V182.707h5.154Z" fill="#003c40"/><path d="M2169.729,50.2a3.615,3.615,0,0,0,1.384-2.791v-.02l-.07-47.506h-13.9l.054,35.032h-.055l.071,12.619a3.154,3.154,0,0,0,.029.39c.006.044.017.087.025.131.014.083.029.166.05.247.013.053.031.1.047.155.022.07.044.141.07.21s.047.109.07.163.056.125.087.186.062.112.094.167.064.11.1.163.078.114.119.17.071.094.108.141.1.115.147.171c.035.039.072.078.11.116.057.059.116.117.178.173.033.031.069.061.1.091l.071.062a36.134,36.134,0,1,0,11.111-.071Zm17.309,57.739a31.623,31.623,0,1,1-.53-44.725A31.513,31.513,0,0,1,2187.038,107.936Z" fill="#003c40"/><path d="M141.621,26.374v9.409a36.6,36.6,0,0,0-8.648-.427l-3.147-7.87a1.768,1.768,0,1,0-3.283,1.314l2.793,6.985c-.9.15-1.809.329-2.719.547-.124.027-.247.059-.371.09-.107.027-.215.05-.322.078-.018.005-.034.013-.052.018-.386.1-.765.226-1.141.356.11.166.222.327.329.5A35.983,35.983,0,0,1,130.1,55.2h29.552v2.83H130.108a36.03,36.03,0,0,1-5.048,17.95c-.149.236-.3.462-.457.689a17.03,17.03,0,0,0,3.873.892.867.867,0,0,0,.357.1l.413.011-2.7,6.76a1.768,1.768,0,1,0,3.283,1.314l3.2-8.005a57.251,57.251,0,0,0,8.594-.474V86.86a1.768,1.768,0,0,0,3.536,0V76.554a35.325,35.325,0,0,0,7.5-2.985l3.2,9.605a1.768,1.768,0,1,0,3.355-1.118L155.793,71.8c5.813-3.568,9.52-8.964,9.52-15.006,0-5.676-3.271-10.783-8.486-14.339l-.009-.007c-.355-.282-.719-.554-1.089-.822l3.482-10.448a1.768,1.768,0,1,0-3.355-1.118l-3.2,9.6a33.722,33.722,0,0,0-7.5-3.09v-10.2a1.768,1.768,0,0,0-3.536,0Z" fill="#002f33"/><path d="M111.856,53.12l-6.473-6.476a2.53,2.53,0,0,0,.078-.613,2.5,2.5,0,1,0-1.794,2.4l7.906,7.908c0,.152-.008.3-.008.457v.018l-7.9,7.9a2.5,2.5,0,1,0,1.794,2.4,2.523,2.523,0,0,0-.078-.613L111.8,60.08A20.826,20.826,0,0,0,122.006,75.5c3.238-4.555,5.3-11.3,5.3-18.828,0-7.431-2.006-14.1-5.174-18.657A20.758,20.758,0,0,0,111.856,53.12Zm8.55,13.46a2.417,2.417,0,1,1-2.417-2.418A2.418,2.418,0,0,1,120.406,66.58Zm0-19.808a2.417,2.417,0,1,1-2.417-2.418A2.417,2.417,0,0,1,120.406,46.772Z" fill="#002f33"/></svg>