<svg xmlns="http://www.w3.org/2000/svg" xmlns:xlink="http://www.w3.org/1999/xlink" viewBox="0 0 2500 250"><defs><clipPath id="a"><rect x="-2519" y="540" width="2500" height="250" fill="none"/></clipPath></defs><title>banner-arrows-dark-blue</title><rect width="2500" height="250" fill="#00188e"/><path d="M812.894,231.1a24.068,24.068,0,0,0,23.113-17.146l3.175.989a26.581,26.581,0,0,1-3.878,7.935,28.027,28.027,0,0,1-13.716,10.147,27.009,27.009,0,0,1-8.694,1.405,27.387,27.387,0,0,1-6.949-.884,27.765,27.765,0,0,1-6.4-2.55A28.746,28.746,0,0,1,794,226.908a27,27,0,0,1-4.425-5.464v6.323h-3.331V214.446h13.326v3.33h-8.226a24.419,24.419,0,0,0,3.8,5.516,25.067,25.067,0,0,0,5.1,4.189,25.629,25.629,0,0,0,6.014,2.679A23.657,23.657,0,0,0,812.894,231.1ZM839.547,187.8v13.321H826.221V197.8h8.225a24.456,24.456,0,0,0-8.9-9.679,24.245,24.245,0,0,0-6.038-2.68,22.826,22.826,0,0,0-6.612-.962,24.033,24.033,0,0,0-23.113,17.145l-3.175-.989a26.687,26.687,0,0,1,3.878-7.909,27.408,27.408,0,0,1,13.692-10.147,26.789,26.789,0,0,1,8.718-1.431,27.356,27.356,0,0,1,6.95.885,26.573,26.573,0,0,1,6.377,2.576,27.082,27.082,0,0,1,5.57,4.084,26.373,26.373,0,0,1,4.424,5.438V187.8Z" fill="#0038a6"/><path d="M661.161,190a3.3,3.3,0,0,1,2.352.979,3.3,3.3,0,0,1,.525.673,3.32,3.32,0,0,1,.335,2.562,3.3,3.3,0,0,1-.335.8,3.424,3.424,0,0,1-1.2,1.194,3.365,3.365,0,0,1-2.564.338,3.377,3.377,0,0,1-.8-.338,3.542,3.542,0,0,1-.673-.521,3.454,3.454,0,0,1-.521-.673,3.384,3.384,0,0,1-.338-.8,3.324,3.324,0,0,1,.859-3.235,3.365,3.365,0,0,1,.673-.524,3.288,3.288,0,0,1,.8-.335A3.248,3.248,0,0,1,661.161,190Z" fill="#0060c4"/><path d="M961.491,178.486a6.609,6.609,0,0,1,4.7,1.958,6.572,6.572,0,0,1,1.048,1.346,6.629,6.629,0,0,1,.67,5.125,6.566,6.566,0,0,1-.67,1.595,6.825,6.825,0,0,1-1.048,1.346,6.619,6.619,0,0,1-1.347,1.04,6.543,6.543,0,0,1-1.588.676,6.63,6.63,0,0,1-5.133-.676,6.845,6.845,0,0,1-1.347-1.04,6.947,6.947,0,0,1-1.042-1.346,6.743,6.743,0,0,1-.676-1.595,6.649,6.649,0,0,1,1.718-6.471,6.731,6.731,0,0,1,1.347-1.047,6.713,6.713,0,0,1,3.364-.911Z" fill="#0038a6"/><path d="M593.122,37.774V57.755h-19.99v-3.33h14.289l-33.784-33.8,2.343-2.341,33.81,33.77V37.774Z" fill="#0060c4"/><path d="M288.931,37.021H276.437l6.247-12.489Z" fill="#0038a6"/><path d="M865.789,49.854h16.658V66.505h-3.331V55.552L861.547,73.087l-2.342-2.341,17.542-17.562H865.789Zm29.022-9.991h10.957v3.33H889.11V26.542h3.332V37.495l17.569-17.536,2.342,2.342Z" fill="#0038a6"/><path d="M153.795,223.394,133,202.918V250h-3V202.918l-20.5,20.476-2.342-2.341,24.492-24.482,24.492,24.482Z" fill="#0060c4"/><path d="M319,57V69H307V57Z" fill="#0038a6"/><path d="M1069.247,39h-12.493L1063,26.512Z" fill="#0038a6"/><path d="M1099,59V71h-12V59Z" fill="#0038a6"/><path d="M236.912,22.9V39.548h-3.331V28.6l-19.99,19.981-10-9.99L186.027,56.121l-2.342-2.341L203.6,33.85l10,9.991,17.621-17.614H220.254V22.9Z" fill="#0060c4"/><path d="M930.558,183.861V210.5H884.592l15.487,15.481-2.342,2.341-19.522-19.487,19.522-19.487,2.342,2.342-15.487,15.48h42.634V183.861Z" fill="#0060c4"/><path d="M433.225,182.5a6.7,6.7,0,0,1,3.358.911,6.512,6.512,0,0,1,1.347,1.047,6.6,6.6,0,0,1,1.048,1.346,6.629,6.629,0,0,1,.67,5.125,6.55,6.55,0,0,1-.67,1.595,6.825,6.825,0,0,1-1.048,1.346,6.619,6.619,0,0,1-1.347,1.04,6.5,6.5,0,0,1-1.588.676,6.635,6.635,0,0,1-5.134-.676,6.9,6.9,0,0,1-1.347-1.04,6.981,6.981,0,0,1-1.041-1.346,6.725,6.725,0,0,1-.676-1.595,6.6,6.6,0,0,1,.676-5.125,6.786,6.786,0,0,1,2.388-2.393,6.5,6.5,0,0,1,1.6-.669A6.419,6.419,0,0,1,433.225,182.5Z" fill="#0060c4"/><path d="M328.315,223.208,294,189.359V204h-3V184h20v3H296.9l33.757,33.867Z" fill="#0038a6"/><path d="M972.18,128H959.687l6.247-12.489Z" fill="#0060c4"/><path d="M1175.644,21.886a6.457,6.457,0,0,1,1.769.241,6.346,6.346,0,0,1,1.589.67,6.891,6.891,0,0,1,2.394,2.393,6.62,6.62,0,0,1,.669,5.125,6.486,6.486,0,0,1-.669,1.595A6.816,6.816,0,0,1,1179,34.3a6.688,6.688,0,0,1-5.127.676,6.669,6.669,0,0,1-1.6-.676,6.721,6.721,0,0,1-2.387-2.386,6.709,6.709,0,0,1-.677-5.132,6.563,6.563,0,0,1,.677-1.588,6.709,6.709,0,0,1,1.041-1.346,6.782,6.782,0,0,1,1.346-1.047,6.728,6.728,0,0,1,3.365-.911Z" fill="#0060c4"/><path d="M1091.417,133.858l-24.492,24.483-24.492-24.483,2.342-2.341,20.484,20.476v-46.78h3.332v46.78l20.484-20.476Z" fill="#0038a6"/><path d="M659.559,94.356l-24.492,24.483-2.343-2.342L653.209,96H606V93h47.209L632.724,72.215l2.343-2.341Z" fill="#0038a6"/><path d="M722.521,29.755,698.028,54.237,673.536,29.755l2.343-2.342,20.484,20.476V1.109h3.331v46.78l20.484-20.476Z" fill="#0038a6"/><path d="M698.028,87.7a6.655,6.655,0,0,1,3.358.91A6.9,6.9,0,0,1,703.781,91a6.629,6.629,0,0,1,.67,5.125,6.583,6.583,0,0,1-.67,1.595,6.848,6.848,0,0,1-1.048,1.345,6.687,6.687,0,0,1-1.347,1.041,6.583,6.583,0,0,1-1.588.676,6.635,6.635,0,0,1-5.134-.676,6.713,6.713,0,0,1-2.388-2.386,6.8,6.8,0,0,1-.677-1.595,6.656,6.656,0,0,1,1.718-6.471,6.831,6.831,0,0,1,1.347-1.048,6.623,6.623,0,0,1,1.6-.67A6.5,6.5,0,0,1,698.028,87.7Z" fill="#0038a6"/><path d="M791,96H744.514L765,116.5l-2.342,2.342L738.164,94.356l24.492-24.482L765,72.215,744.514,93H791Z" fill="#0038a6"/><path d="M720.178,161.3,700,140.823V188h-3V140.823L675.879,161.3l-2.343-2.341,24.492-24.482,24.493,24.482Z" fill="#0038a6"/><path d="M2207.452,231.1a24.072,24.072,0,0,0,23.113-17.146l3.175.989a26.6,26.6,0,0,1-3.878,7.935,28.035,28.035,0,0,1-13.717,10.147,27,27,0,0,1-8.693,1.405,27.4,27.4,0,0,1-6.95-.884,27.775,27.775,0,0,1-6.4-2.55,28.753,28.753,0,0,1-5.544-4.085,26.961,26.961,0,0,1-4.424-5.464v6.323H2180.8V214.446h13.326v3.33H2185.9a24.415,24.415,0,0,0,3.8,5.516,25.072,25.072,0,0,0,5.1,4.189,25.64,25.64,0,0,0,6.013,2.679A23.664,23.664,0,0,0,2207.452,231.1ZM2234.1,187.8v13.321h-13.326V197.8H2229a24.476,24.476,0,0,0-8.9-9.679,24.235,24.235,0,0,0-6.039-2.68,22.819,22.819,0,0,0-6.611-.962,24.033,24.033,0,0,0-23.113,17.145l-3.175-.989a26.663,26.663,0,0,1,3.878-7.909,27.4,27.4,0,0,1,13.691-10.147,26.791,26.791,0,0,1,8.719-1.431,27.343,27.343,0,0,1,6.949.885,26.557,26.557,0,0,1,6.377,2.576,27.055,27.055,0,0,1,5.57,4.084,26.41,26.41,0,0,1,4.425,5.438V187.8Z" fill="#0038a6"/><path d="M2055.719,190a3.335,3.335,0,0,1,1.679.455,3.309,3.309,0,0,1,.673.524,3.255,3.255,0,0,1,.524.673,3.32,3.32,0,0,1,.335,2.562,3.3,3.3,0,0,1-.335.8,3.394,3.394,0,0,1-.524.673,3.481,3.481,0,0,1-.673.521,3.365,3.365,0,0,1-2.564.338,3.4,3.4,0,0,1-.8-.338,3.574,3.574,0,0,1-.673-.521,3.493,3.493,0,0,1-.521-.673,3.384,3.384,0,0,1-.338-.8,3.324,3.324,0,0,1,.859-3.235,3.394,3.394,0,0,1,.673-.524,3.312,3.312,0,0,1,.8-.335A3.248,3.248,0,0,1,2055.719,190Z" fill="#0060c4"/><path d="M2356.048,178.486a6.669,6.669,0,0,1,3.358.911,6.891,6.891,0,0,1,2.394,2.393,6.629,6.629,0,0,1,.67,5.125,6.527,6.527,0,0,1-.67,1.595,6.825,6.825,0,0,1-1.048,1.346,6.632,6.632,0,0,1-8.068,1.04,6.691,6.691,0,0,1-2.388-2.386,6.746,6.746,0,0,1-.677-1.595,6.656,6.656,0,0,1,1.718-6.471,6.788,6.788,0,0,1,1.347-1.047,6.537,6.537,0,0,1,1.594-.67A6.459,6.459,0,0,1,2356.048,178.486Z" fill="#0038a6"/><path d="M1987.679,37.774V57.755H1967.69v-3.33h14.289l-33.784-33.8,2.342-2.341,33.81,33.77V37.774Z" fill="#0060c4"/><path d="M1683.488,37.021H1671l6.247-12.489Z" fill="#0038a6"/><path d="M2260.347,49.854h16.658V66.505h-3.332V55.552L2256.1,73.087l-2.342-2.341L2271.3,53.184h-10.957Zm29.021-9.991h10.958v3.33h-16.658V26.542H2287V37.495l17.57-17.536,2.342,2.342Z" fill="#0038a6"/><path d="M1828.927,215.129a70.329,70.329,0,0,0,67.535-50.1l9.277,2.89a77.717,77.717,0,0,1-11.331,23.184,81.9,81.9,0,0,1-40.078,29.65,78.891,78.891,0,0,1-25.4,4.107,80,80,0,0,1-20.306-2.584,81.11,81.11,0,0,1-18.709-7.449,84.057,84.057,0,0,1-16.2-11.94,78.831,78.831,0,0,1-12.929-15.963V205.4h-9.734V166.474h38.939v9.731h-24.033a71.122,71.122,0,0,0,11.1,16.114,73.075,73.075,0,0,0,14.906,12.242,75,75,0,0,0,17.568,7.833A69.4,69.4,0,0,0,1828.927,215.129Zm77.878-126.5v38.924h-38.939V117.82H1891.9a71.424,71.424,0,0,0-26.011-28.278,70.728,70.728,0,0,0-17.644-7.834,66.789,66.789,0,0,0-19.319-2.812,70.227,70.227,0,0,0-67.535,50.1l-9.278-2.891A77.913,77.913,0,0,1,1763.445,103a80.093,80.093,0,0,1,40-29.65,78.283,78.283,0,0,1,25.478-4.18,79.963,79.963,0,0,1,20.307,2.584,77.6,77.6,0,0,1,18.632,7.527,79.14,79.14,0,0,1,16.277,11.934,77.169,77.169,0,0,1,12.928,15.891V88.627Z" fill="#0038a6"/><path d="M1548.352,222.894,1528,202.418V249h-3V202.418l-20.948,20.476-2.342-2.341,24.492-24.482,24.493,24.482Z" fill="#0060c4"/><path d="M1713,57V69h-12V57Z" fill="#0060c4"/><path d="M2325,184v26h-45.851l15.487,15.984-2.342,2.341-19.521-19.487,19.521-19.487,2.342,2.342L2279.149,207H2322V184Z" fill="#0060c4"/><path d="M1853.292,148a6.469,6.469,0,0,1,1.77.241,6.347,6.347,0,0,1,1.587.67,6.512,6.512,0,0,1,1.347,1.047,6.6,6.6,0,0,1,1.048,1.346,6.629,6.629,0,0,1,.67,5.125,6.544,6.544,0,0,1-.67,1.595,6.818,6.818,0,0,1-1.048,1.345,6.659,6.659,0,0,1-1.347,1.041,6.553,6.553,0,0,1-1.587.676,6.632,6.632,0,0,1-5.134-.676,6.713,6.713,0,0,1-2.388-2.386,6.722,6.722,0,0,1-.677-1.595,6.656,6.656,0,0,1,1.718-6.471,6.76,6.76,0,0,1,1.347-1.047,6.713,6.713,0,0,1,3.364-.911Z" fill="#0060c4"/><path d="M1703.788,169.284,1670,135.435V150h-3V130h20v3h-14.627l33.757,33.942Z" fill="#0038a6"/><path d="M2389.661,96.683h-12.493l6.247-12.488Z" fill="#0060c4"/><path d="M2461.482,58.59a6.452,6.452,0,0,1,1.769.241,6.346,6.346,0,0,1,1.589.67,6.9,6.9,0,0,1,2.394,2.392,6.377,6.377,0,0,1,.67,1.589,6.682,6.682,0,0,1-.67,5.132,6.81,6.81,0,0,1-1.048,1.345A6.709,6.709,0,0,1,2464.84,71a6.688,6.688,0,0,1-5.127.676,6.709,6.709,0,0,1-1.6-.676,6.721,6.721,0,0,1-2.387-2.386,6.719,6.719,0,0,1-.676-1.595,6.6,6.6,0,0,1,.676-5.126,6.8,6.8,0,0,1,2.387-2.392,6.728,6.728,0,0,1,3.365-.911Z" fill="#0060c4"/><path d="M1576,50v56h-11V69l-66,67.5-33-33.75-58.008,59.237-7.734-7.909L1466,86.751l33,33.75L1557.179,61H1521V50Z" fill="#0038a6"/><path d="M2485.974,133.858l-24.492,24.483-24.492-24.483,2.342-2.341L2460,151.993V105h3v46.993l20.632-20.476Z" fill="#0038a6"/><path d="M2054.116,93.023l-24.492,24.482-2.342-2.341L2047.766,95H2001V92h46.766l-20.484-21.118,2.342-2.342Z" fill="#0038a6"/><path d="M2117.078,28.421,2092.586,52.9l-24.492-24.483,2.342-2.341L2091,46.556V0h3V46.556l20.736-20.476Z" fill="#0038a6"/><path d="M2092.586,86.362a6.5,6.5,0,0,1,1.77.241,6.422,6.422,0,0,1,1.587.67,6.874,6.874,0,0,1,2.395,2.394,6.627,6.627,0,0,1,.67,5.124,6.511,6.511,0,0,1-.67,1.595,6.825,6.825,0,0,1-1.048,1.346,6.659,6.659,0,0,1-1.347,1.041,6.7,6.7,0,0,1-5.127.676,6.712,6.712,0,0,1-1.594-.676,6.7,6.7,0,0,1-2.388-2.387,6.709,6.709,0,0,1-.677-5.132,6.746,6.746,0,0,1,1.718-2.934,6.834,6.834,0,0,1,1.347-1.047,6.713,6.713,0,0,1,3.364-.911Z" fill="#0038a6"/><path d="M2186,95h-46.928l20.484,20.164-2.343,2.341-24.492-24.482,24.492-24.483,2.343,2.342L2139.072,92H2186Z" fill="#0038a6"/><path d="M2114.736,159.966,2094,139.49V186h-3V139.49l-20.564,20.476-2.342-2.341,24.492-24.483,24.492,24.483Z" fill="#0038a6"/><path d="M1166.485,156.276l-24.492,24.482-2.342-2.341L1160.135,158H1113v-3h47.135l-20.484-20.865,2.342-2.341Z" fill="#0038a6"/><path d="M1229.447,91.674l-24.492,24.483-24.492-24.483,2.342-2.341L1203,109.809V63h3v46.809l21.105-20.476Z" fill="#0038a6"/><path d="M1204.955,149.616a6.647,6.647,0,0,1,3.357.91,6.874,6.874,0,0,1,2.4,2.394,6.627,6.627,0,0,1,.67,5.124,6.534,6.534,0,0,1-.67,1.6,6.848,6.848,0,0,1-1.048,1.345,6.659,6.659,0,0,1-1.347,1.041,6.688,6.688,0,0,1-5.127.676,6.712,6.712,0,0,1-1.594-.676,6.713,6.713,0,0,1-2.388-2.386,6.712,6.712,0,0,1-.677-1.6,6.661,6.661,0,0,1,1.718-6.471,6.863,6.863,0,0,1,1.347-1.047,6.576,6.576,0,0,1,1.594-.67A6.5,6.5,0,0,1,1204.955,149.616Z" fill="#0060c4"/><path d="M1298.239,157.941h-46.8l20.484,20.476-2.343,2.341-24.492-24.482,24.492-24.482,2.343,2.341-20.484,20.476h46.8Z" fill="#0038a6"/><path d="M1227.105,223.219l-20.484-20.476v46.78h-3.332v-46.78l-20.484,20.476-2.342-2.341,24.492-24.482,24.492,24.482Z" fill="#0038a6"/><path d="M1965.158,226.35h-12.493l6.247-12.489Z" fill="#0060c4"/><path d="M1395,29V55h-46.228l15.487,15.487-2.343,2.341L1342.4,53.341l19.521-19.487,2.343,2.341L1348.772,52H1392V29Z" fill="#0060c4"/><path d="M100.805,44.345V62.82A77.169,77.169,0,0,0,87.877,46.929,79.108,79.108,0,0,0,71.6,34.994a77.641,77.641,0,0,0-18.632-7.527,80.007,80.007,0,0,0-20.307-2.583A78.282,78.282,0,0,0,7.183,29.063c-2.428.82-4.79,1.755-7.1,2.779V42.5a70.938,70.938,0,0,1,10.066-4.235,69.843,69.843,0,0,1,22.512-3.65A66.79,66.79,0,0,1,51.98,37.427,70.742,70.742,0,0,1,69.624,45.26,68.485,68.485,0,0,1,84.455,57.5a68.506,68.506,0,0,1,11.18,16.041H71.6v9.731h38.939V44.345Z" fill="#0038a6"/><path d="M99.612,121.164a70.109,70.109,0,0,1-67.535,50.1,69.429,69.429,0,0,1-19.393-2.734A75.65,75.65,0,0,1,0,163.425v10.936a81.743,81.743,0,0,0,11.771,4.05A79.955,79.955,0,0,0,32.077,181a78.864,78.864,0,0,0,25.4-4.107,81.9,81.9,0,0,0,40.078-29.65,77.7,77.7,0,0,0,11.332-23.184Z" fill="#0038a6"/><polygon points="459.076 250 474.974 250 524.445 200.549 524.445 237.306 530.208 237.306 535.625 237.306 535.625 181.427 479.724 181.427 479.724 192.603 516.496 192.603 459.076 250" fill="#0038a6"/><polygon points="408.535 250 424.489 234.076 440.419 250 456.318 250 424.489 218.185 392.704 250 408.535 250" fill="#0038a6"/><g clip-path="url(#a)"><path d="M-2456,366.136c656-131,802-158,908,0s251,273,423,175c228.562-130.228,351-339,599-357,472.613-34.3,592,242,751,383" fill="none" stroke="#0060c4" stroke-miterlimit="10"/><path d="M-2459.938,377.158c648.376-126.437,785.063-143.647,909.813,8.79s268.937,250.313,444.406,152.594c228.5-127.932,358.293-319.509,601.281-332.094,453.794-23.5,579,232.375,728.063,364.563" fill="none" stroke="#005ec2" stroke-miterlimit="10"/><path d="M-2463.875,388.181c640.75-121.875,768.125-129.295,911.625,17.58s287.08,228,465.812,130.187C-857.744,410.792-720.93,235.857-482.875,228.761c434.857-12.964,566,222.75,705.125,346.125" fill="none" stroke="#005cc1" stroke-miterlimit="10"/></g></svg>