<svg xmlns="http://www.w3.org/2000/svg" xmlns:xlink="http://www.w3.org/1999/xlink" viewBox="0 0 2500 250"><defs><clipPath id="a"><rect x="2520" width="2500" height="250" fill="none"/></clipPath></defs><title>banner-mix-1-blue</title><rect width="2500" height="250" fill="#0060c4"/><path d="M946,56.544A59.748,59.748,0,0,1,988.017,73.79a59.382,59.382,0,0,1,15.272,26.036,57.7,57.7,0,0,1,2.111,15.656,54.521,54.521,0,0,1-4.639,22.52,61.505,61.505,0,0,1-13.246,18.837,49.992,49.992,0,0,0-10.8,15.32A45.056,45.056,0,0,0,973,190.494v21.432a15.673,15.673,0,0,1-1.264,6.279,16.062,16.062,0,0,1-8.607,8.539A15.992,15.992,0,0,1,956.8,228H935.2a15.992,15.992,0,0,1-6.329-1.256,16.062,16.062,0,0,1-8.607-8.539A15.673,15.673,0,0,1,919,211.926V190.494a44.231,44.231,0,0,0-3.8-18.335,48.821,48.821,0,0,0-10.719-15.32A61.505,61.505,0,0,1,891.239,138a54.521,54.521,0,0,1-4.639-22.52,58.047,58.047,0,0,1,8.1-29.72,58.422,58.422,0,0,1,9.283-11.972,59.68,59.68,0,0,1,11.982-9.209,60.456,60.456,0,0,1,14.256-5.944A59.155,59.155,0,0,1,946,56.544ZM956.667,218a5.164,5.164,0,0,0,3.749-1.559A5,5,0,0,0,962,212.75V197H930v15.75a5,5,0,0,0,1.584,3.691A5.164,5.164,0,0,0,935.333,218Zm5.766-32a55.35,55.35,0,0,1,5.524-19.59A65,65,0,0,1,979.927,150a51.492,51.492,0,0,0,10.635-15.32,44.142,44.142,0,0,0,3.767-18.335,46.242,46.242,0,0,0-3.852-18.753A47.972,47.972,0,0,0,964.86,71.975a47.586,47.586,0,0,0-37.506,0,48.338,48.338,0,0,0-15.318,10.3,49.5,49.5,0,0,0-10.384,15.321,47.076,47.076,0,0,0-3.767,18.753,44.974,44.974,0,0,0,3.686,18.335A52.845,52.845,0,0,0,912.287,150a64.979,64.979,0,0,1,11.97,16.409A55.35,55.35,0,0,1,929.781,186Z" fill="#0071cc"/><path d="M1192.009,220h-17.93l8.965-17.93Z" fill="#0053b6"/><path d="M1113,120h22v41h-72V120h23v-9h27Zm-23-5v5h18v-5Zm41,10h-63v9h13v-5h5v5h26v-5h5v5h14Zm-63,31h63V138h-14v5h-5v-5h-26v5h-5v-5h-13Z" fill="#0053b6"/><path d="M1079,66.743v.625a5.452,5.452,0,0,1,0,1.251v.625l9,5.594-5.523,13.307-10.32-2.363q-.834.9-1.737,1.737l2.362,10.319-13.306,5.524-5.6-9a5.481,5.481,0,0,0-.625.035h-1.249a5.481,5.481,0,0,0-.625-.035l-5.6,9-13.306-5.524,2.362-10.319q-.9-.834-1.737-1.737l-10.319,2.363-5.524-13.307,9-5.594a5.694,5.694,0,0,0-.036-.625V67.368a5.694,5.694,0,0,0,.036-.625l-9-5.594,5.524-13.307,10.319,2.363q.834-.9,1.737-1.737l-2.362-10.319,13.306-5.525,5.6,9h.625a5.589,5.589,0,0,1,1.249,0h.625l5.6-9,13.306,5.525-2.362,10.319q.9.834,1.737,1.737l10.32-2.363L1088,61.149Zm-4.065,4.516q.071-.833.14-1.633c.047-.555.069-1.111.069-1.667,0-.533-.022-1.077-.069-1.633s-.093-1.1-.14-1.633l8.2-5.107-2.989-7.227-9.414,2.189a28.369,28.369,0,0,0-2.224-2.432q-1.113-1.113-2.432-2.224l2.188-9.416-7.227-2.987-5.141,8.2q-.8-.069-1.634-.139c-.556-.046-1.1-.069-1.632-.069q-.834,0-1.668.069c-.534.046-1.076.093-1.632.139l-5.108-8.2L1037,40.476l2.189,9.416a28.357,28.357,0,0,0-2.433,2.224q-1.111,1.111-2.224,2.432l-9.414-2.189-2.989,7.227,8.2,5.141-.14,1.668c-.047.533-.069,1.077-.069,1.633,0,.533.022,1.077.069,1.633s.093,1.1.14,1.633l-8.2,5.107,2.989,7.227,9.414-2.189a32.224,32.224,0,0,0,2.191,2.432q1.146,1.113,2.466,2.224L1037,95.51l7.227,2.988,5.141-8.2,1.634.139c.556.046,1.1.069,1.633.069.555,0,1.1-.023,1.632-.069l1.667-.139,5.108,8.2,7.227-2.988-2.188-9.415a32.624,32.624,0,0,0,2.432-2.189q1.111-1.146,2.224-2.467l9.414,2.189,2.989-7.227Zm-22.3-16.329a12.426,12.426,0,0,1,5.072,1.042,12.776,12.776,0,0,1,6.948,6.949,12.407,12.407,0,0,1,1.043,5.072,12.656,12.656,0,0,1-1.043,5.108,12.949,12.949,0,0,1-2.779,4.134,13.358,13.358,0,0,1-4.169,2.814,12.792,12.792,0,0,1-5.072,1.008,13.05,13.05,0,0,1-5.108-1.008,13.4,13.4,0,0,1-6.949-6.948,13.064,13.064,0,0,1-1.007-5.108,12.806,12.806,0,0,1,1.007-5.072,13.36,13.36,0,0,1,2.815-4.169,13,13,0,0,1,4.134-2.78A12.676,12.676,0,0,1,1052.632,54.93Zm0,22.236a9.2,9.2,0,0,0,3.577-.695,9.443,9.443,0,0,0,2.92-1.98,8.949,8.949,0,0,0,1.946-2.919,9.148,9.148,0,0,0,0-7.157,8.936,8.936,0,0,0-4.866-4.864,9.131,9.131,0,0,0-7.155,0,8.951,8.951,0,0,0-2.92,1.945,9.4,9.4,0,0,0-1.979,2.919,9.547,9.547,0,0,0,0,7.157,9.359,9.359,0,0,0,4.9,4.9A9.209,9.209,0,0,0,1052.632,77.166Z" fill="#0053b6"/><path d="M1054.25,206.875h-14.875a14.618,14.618,0,0,1-9.728-3.653,15.083,15.083,0,0,1-3.288-4.05,14.64,14.64,0,0,1-1.693-5.047H999v-4.25h25.666a14.671,14.671,0,0,1,1.693-5.081,15.848,15.848,0,0,1,3.288-4.05,15.016,15.016,0,0,1,4.449-2.656,14.68,14.68,0,0,1,5.279-.963h14.875v4.25H1067v4.25h-12.75v12.75H1067v4.25h-12.75Zm-4.25-4.25v-21.25h-10.625a10.5,10.5,0,0,0-4.15.831,10.372,10.372,0,0,0-5.645,5.644,10.526,10.526,0,0,0-.83,4.15,10.3,10.3,0,0,0,.83,4.118,10.644,10.644,0,0,0,2.258,3.353,10.784,10.784,0,0,0,3.387,2.291,10.169,10.169,0,0,0,4.15.863Z" fill="#0053b6"/><path d="M640.988,203.6q-.533,1.995-1.094,3.74a28.142,28.142,0,0,1-1.268,3.4,18.782,18.782,0,0,1-1.8,3.15,20.11,20.11,0,0,1-2.531,3.039,22.891,22.891,0,0,1-10.377,5.934,22.473,22.473,0,0,1-5.823.758,23.565,23.565,0,0,1-5.849-.731,23.963,23.963,0,0,1-5.514-2.248,22.826,22.826,0,0,1-4.836-3.713q-.648-.648-1.265-1.377-.592-.7-1.125-1.464H554.17a12.987,12.987,0,0,1-5.146-1.042,13.262,13.262,0,0,1-4.3-2.9,13.049,13.049,0,0,1-2.925-4.387,13.356,13.356,0,0,1,0-10.068,13.059,13.059,0,0,1,2.925-4.387,13.262,13.262,0,0,1,4.3-2.9,12.987,12.987,0,0,1,5.146-1.042h45.337q.531-.759,1.125-1.463c.412-.488.833-.945,1.265-1.377a22.8,22.8,0,0,1,4.836-3.714,23.963,23.963,0,0,1,5.514-2.248,23.565,23.565,0,0,1,5.849-.731,22.473,22.473,0,0,1,5.823.758,22.881,22.881,0,0,1,10.377,5.935,20.056,20.056,0,0,1,2.531,3.038,18.782,18.782,0,0,1,1.8,3.15,28.142,28.142,0,0,1,1.268,3.4q.561,1.743,1.094,3.74H618.827V203.6ZM605.5,213.328a17.239,17.239,0,0,0,5.878,3.909,18.347,18.347,0,0,0,6.694,1.294,18.029,18.029,0,0,0,6.694-1.294,17.151,17.151,0,0,0,5.933-3.909,16.712,16.712,0,0,0,3.29-4.641l-20.22-.028V192.8l20.22-.028a16.712,16.712,0,0,0-3.29-4.641,17.151,17.151,0,0,0-5.933-3.909,18.029,18.029,0,0,0-6.694-1.294,18.347,18.347,0,0,0-6.694,1.294,17.239,17.239,0,0,0-5.878,3.909,14.932,14.932,0,0,0-1.743,2.081q-.761,1.1-1.465,2.25l-48.119.029a8.282,8.282,0,0,0-3.15.619,8.273,8.273,0,0,0-4.5,4.5,8.536,8.536,0,0,0,0,6.242,8.273,8.273,0,0,0,4.5,4.5,8.282,8.282,0,0,0,3.15.619l48.119.029q.705,1.153,1.465,2.25A14.932,14.932,0,0,0,605.5,213.328Z" fill="#0053b6"/><path d="M766.937,11A24.023,24.023,0,0,1,791,35.062,23.847,23.847,0,0,1,787.719,47.2a24.572,24.572,0,0,1-8.647,8.647,24.114,24.114,0,0,1-20.338,1.846,24.637,24.637,0,0,1-7.177-4.137l-26.832,26.8a2.174,2.174,0,1,1-3.075-3.075l26.8-26.832a24.637,24.637,0,0,1-4.137-7.177,24,24,0,0,1,1.846-20.338,24.572,24.572,0,0,1,8.647-8.647A23.847,23.847,0,0,1,766.937,11Zm0,43.75a19.219,19.219,0,0,0,7.657-1.538,20.2,20.2,0,0,0,6.254-4.239,19.728,19.728,0,0,0,4.2-6.254,19.42,19.42,0,0,0,0-15.313,19.587,19.587,0,0,0-10.458-10.458,19.42,19.42,0,0,0-15.313,0,19.728,19.728,0,0,0-6.254,4.2,20.2,20.2,0,0,0-4.239,6.254,19.827,19.827,0,0,0,0,15.313,20.031,20.031,0,0,0,10.493,10.493A19.218,19.218,0,0,0,766.937,54.75Z" fill="#0053b6"/><path d="M2114.466,151.227a9.831,9.831,0,0,1,3.793.907,9.384,9.384,0,0,1,3.121,2.175,10.038,10.038,0,0,1,2.1,3.2,9.76,9.76,0,0,1-.041,7.783,10.2,10.2,0,0,1-2.174,3.2,10.585,10.585,0,0,1-3.2,2.175,10.187,10.187,0,0,1-7.862,0,10.322,10.322,0,0,1-5.376-5.376,9.986,9.986,0,0,1-.789-3.95,10.1,10.1,0,0,1,1.422-5.214,9.918,9.918,0,0,1,3.952-3.714L2098.9,131.432l-10.472,20.9a10.007,10.007,0,0,1,2.253,1.619,9.535,9.535,0,0,1,1.738,2.134,10.769,10.769,0,0,1,1.107,2.528,9.366,9.366,0,0,1,.395,2.726,9.551,9.551,0,0,1-.83,3.95,10.2,10.2,0,0,1-2.174,3.2,10.6,10.6,0,0,1-3.2,2.175,10.187,10.187,0,0,1-7.862,0,10.322,10.322,0,0,1-5.376-5.376,9.986,9.986,0,0,1-.789-3.95,9.666,9.666,0,0,1,.751-3.793,9.954,9.954,0,0,1,2.054-3.16,10.146,10.146,0,0,1,3.042-2.213,10.286,10.286,0,0,1,3.793-.948l12.724-25.525-13.394-26.789L2084.952,92l13.948,27.975L2112.845,92l2.294,6.913L2101.744,125.7Zm-30.66,15.172a4.9,4.9,0,0,0,1.975-.4,5.034,5.034,0,0,0,1.58-1.067,5.18,5.18,0,0,0,1.108-1.621,5.147,5.147,0,0,0,0-3.95,5.579,5.579,0,0,0-2.688-2.688,5.147,5.147,0,0,0-3.95,0,5.209,5.209,0,0,0-1.621,1.108,5.074,5.074,0,0,0-1.067,1.58,5.147,5.147,0,0,0,0,3.95,4.807,4.807,0,0,0,2.688,2.688A4.9,4.9,0,0,0,2083.806,166.4Zm30.344,0a4.9,4.9,0,0,0,1.975-.4,5.034,5.034,0,0,0,1.58-1.067,5.18,5.18,0,0,0,1.108-1.621,5.135,5.135,0,0,0,0-3.95,5.579,5.579,0,0,0-2.688-2.688,5.147,5.147,0,0,0-3.95,0,5.209,5.209,0,0,0-1.621,1.108,5.074,5.074,0,0,0-1.067,1.58,5.147,5.147,0,0,0,0,3.95,4.807,4.807,0,0,0,2.688,2.688A4.906,4.906,0,0,0,2114.15,166.4Z" fill="#0053b6"/><path d="M889.584,177.9a3.081,3.081,0,0,0,0-.7v-.35l5.041-3.133-3.094-7.455-5.781,1.324c-.312-.337-.635-.662-.973-.973l1.323-5.78-7.454-3.095-3.134,5.041h-.35a3.073,3.073,0,0,0-.7,0h-.35l-3.134-5.041-7.453,3.095,1.323,5.78q-.507.467-.973.973l-5.781-1.324L855,173.716l5.041,3.133a3.406,3.406,0,0,1-.02.35v.7a3.438,3.438,0,0,1,.02.35L855,181.384l3.094,7.454,5.781-1.324q.466.507.973.973l-1.323,5.781,7.453,3.094,3.134-5.04a3.171,3.171,0,0,1,.35.019h.7a3.184,3.184,0,0,1,.35-.019l3.134,5.04,7.454-3.094-1.323-5.781c.338-.311.661-.635.973-.973l5.781,1.324,3.094-7.454-5.041-3.134Zm-8.038,2.511a7.26,7.26,0,0,1-1.557,2.316,7.489,7.489,0,0,1-2.335,1.576,7.173,7.173,0,0,1-2.842.564,7.319,7.319,0,0,1-2.861-.564,7.508,7.508,0,0,1-3.892-3.892,7.316,7.316,0,0,1-.565-2.861,7.174,7.174,0,0,1,.565-2.842,7.475,7.475,0,0,1,1.577-2.335,7.261,7.261,0,0,1,2.315-1.557,7.091,7.091,0,0,1,2.861-.584,6.95,6.95,0,0,1,2.842.584,7.159,7.159,0,0,1,3.892,3.892,6.95,6.95,0,0,1,.584,2.842A7.087,7.087,0,0,1,881.546,180.411Z" fill="#0053b6"/><path d="M858.468,89.125a6.7,6.7,0,0,1,2.657.527,6.908,6.908,0,0,1,2.2,1.451,6.768,6.768,0,0,1,1.477,2.162,6.386,6.386,0,0,1,.536,2.61,6.576,6.576,0,0,1-.536,2.637,6.88,6.88,0,0,1-3.677,3.586,6.947,6.947,0,0,1-5.179.052,7.418,7.418,0,0,1-2.122-1.292,7.329,7.329,0,0,1-1.5-1.951,6.357,6.357,0,0,1-.7-2.452L847.6,95.8a10.252,10.252,0,0,1-4.912,5.643l1.558,4.587a1.306,1.306,0,0,1,.241-.026h.241a6.711,6.711,0,0,1,2.658.527,6.908,6.908,0,0,1,2.2,1.451,6.73,6.73,0,0,1,1.475,2.162,6.37,6.37,0,0,1,.537,2.61,6.559,6.559,0,0,1-.537,2.637,6.826,6.826,0,0,1-1.475,2.135,6.908,6.908,0,0,1-2.2,1.451,6.711,6.711,0,0,1-2.658.527,6.891,6.891,0,0,1-2.683-.527,7,7,0,0,1-2.174-1.451,6.863,6.863,0,0,1-1.476-2.135,6.739,6.739,0,0,1,.295-5.88A6.866,6.866,0,0,1,841,107.081l-1.558-4.588-.778.106q-.4.025-.805.026a10.259,10.259,0,0,1-8.319-4.14l-5.582,2.716a6.4,6.4,0,0,1,.16,1.424,6.559,6.559,0,0,1-.537,2.637,6.84,6.84,0,0,1-1.474,2.135,6.924,6.924,0,0,1-2.2,1.451,6.708,6.708,0,0,1-2.658.527,6.891,6.891,0,0,1-2.683-.527,6.98,6.98,0,0,1-2.173-1.451,6.849,6.849,0,0,1-1.477-2.135,6.559,6.559,0,0,1-.537-2.637,6.37,6.37,0,0,1,.537-2.61,6.752,6.752,0,0,1,1.477-2.162,6.98,6.98,0,0,1,2.173-1.451,6.948,6.948,0,0,1,7.862,1.793l5.582-2.742a9.945,9.945,0,0,1,.216-6.565,9.838,9.838,0,0,1,1.958-3.138l-3.247-3.981a6.969,6.969,0,0,1-5.5.079,6.973,6.973,0,0,1-2.174-1.451,6.863,6.863,0,0,1-1.476-2.135,6.559,6.559,0,0,1-.537-2.637,6.37,6.37,0,0,1,.537-2.61,6.765,6.765,0,0,1,1.476-2.162,6.973,6.973,0,0,1,2.174-1.451,6.891,6.891,0,0,1,2.683-.527,6.711,6.711,0,0,1,2.658.527,6.908,6.908,0,0,1,2.2,1.451,6.8,6.8,0,0,1,1.477,2.162,6.369,6.369,0,0,1,.536,2.61,6.488,6.488,0,0,1-1.368,4.034l3.22,3.982a10.806,10.806,0,0,1,2.415-.923,10.054,10.054,0,0,1,2.6-.343,10.392,10.392,0,0,1,4.214.87l4.4-6.486a6.819,6.819,0,0,1-1.289-2.083,6.575,6.575,0,0,1-.456-2.426,6.37,6.37,0,0,1,.537-2.61,6.765,6.765,0,0,1,1.476-2.162,6.973,6.973,0,0,1,2.174-1.451A6.891,6.891,0,0,1,851.6,65.5a6.711,6.711,0,0,1,2.658.527,6.908,6.908,0,0,1,2.2,1.451,6.8,6.8,0,0,1,1.477,2.162,6.369,6.369,0,0,1,.536,2.61,6.559,6.559,0,0,1-.536,2.637,6.88,6.88,0,0,1-3.677,3.586A6.711,6.711,0,0,1,851.6,79a7.223,7.223,0,0,1-2.255-.369l-4.428,6.513a9.716,9.716,0,0,1,2.39,3.348,9.564,9.564,0,0,1,.859,3.982l4.025.659a6.551,6.551,0,0,1,1.046-1.635,6.659,6.659,0,0,1,1.476-1.266,7.377,7.377,0,0,1,1.772-.817A6.876,6.876,0,0,1,858.468,89.125ZM851.6,68.875a3.379,3.379,0,0,0-1.342.264,3.54,3.54,0,0,0-1.1.738,3.377,3.377,0,0,0-.724,1.055,3.375,3.375,0,0,0,0,2.636,3.707,3.707,0,0,0,.724,1.081,3.782,3.782,0,0,0,1.1.712,3.545,3.545,0,0,0,2.685,0,3.467,3.467,0,0,0,1.824-1.793,3.248,3.248,0,0,0-.751-3.691,3.251,3.251,0,0,0-1.073-.738A3.38,3.38,0,0,0,851.6,68.875ZM817.246,106a3.379,3.379,0,0,0,1.342-.264,3.42,3.42,0,0,0,1.073-.712,3.471,3.471,0,0,0,.753-1.081,3.375,3.375,0,0,0,0-2.636,3.748,3.748,0,0,0-1.826-1.793,3.54,3.54,0,0,0-2.683,0,3.527,3.527,0,0,0-1.1.738,3.394,3.394,0,0,0-.724,1.055,3.352,3.352,0,0,0,0,2.636,3.727,3.727,0,0,0,.724,1.081,3.787,3.787,0,0,0,1.1.712A3.374,3.374,0,0,0,817.246,106Zm30.917,6.75a3.232,3.232,0,0,0-.268-1.318,3.18,3.18,0,0,0-.753-1.055,3.216,3.216,0,0,0-1.073-.738,3.54,3.54,0,0,0-2.683,0,3.527,3.527,0,0,0-1.1.738,3.394,3.394,0,0,0-.724,1.055,3.352,3.352,0,0,0,0,2.636,3.727,3.727,0,0,0,.724,1.081,3.787,3.787,0,0,0,1.1.712,3.54,3.54,0,0,0,2.683,0,3.432,3.432,0,0,0,1.073-.712,3.471,3.471,0,0,0,.753-1.081A3.232,3.232,0,0,0,848.163,112.75ZM820.682,75.625a3.215,3.215,0,0,0,.268,1.318,3.707,3.707,0,0,0,.724,1.081,3.8,3.8,0,0,0,1.1.712,3.545,3.545,0,0,0,2.685,0,3.458,3.458,0,0,0,1.824-1.793,3.25,3.25,0,0,0-.75-3.691,3.265,3.265,0,0,0-1.074-.738,3.545,3.545,0,0,0-2.685,0,3.552,3.552,0,0,0-1.1.738,3.377,3.377,0,0,0-.724,1.055A3.215,3.215,0,0,0,820.682,75.625ZM837.857,99.25a6.687,6.687,0,0,0,2.656-.527,6.871,6.871,0,0,0,3.677-3.586,6.559,6.559,0,0,0,.537-2.637,6.37,6.37,0,0,0-.537-2.61,6.749,6.749,0,0,0-1.476-2.162,6.891,6.891,0,0,0-2.2-1.451,6.687,6.687,0,0,0-2.656-.527,6.9,6.9,0,0,0-2.683.527A6.989,6.989,0,0,0,833,87.728a6.762,6.762,0,0,0-1.475,2.162,6.37,6.37,0,0,0-.537,2.61,6.559,6.559,0,0,0,.537,2.637A6.86,6.86,0,0,0,833,97.272a6.989,6.989,0,0,0,2.175,1.451A6.9,6.9,0,0,0,837.857,99.25Zm20.611,0a3.379,3.379,0,0,0,1.342-.264,3.467,3.467,0,0,0,1.824-1.793,3.375,3.375,0,0,0,0-2.636,3.16,3.16,0,0,0-.751-1.055,3.206,3.206,0,0,0-1.073-.738,3.545,3.545,0,0,0-2.685,0,3.535,3.535,0,0,0-1.1.738,3.377,3.377,0,0,0-.724,1.055,3.375,3.375,0,0,0,0,2.636,3.707,3.707,0,0,0,.724,1.081,3.8,3.8,0,0,0,1.1.712A3.38,3.38,0,0,0,858.468,99.25Z" fill="#0053b6"/><path d="M893.079,31V13.07l17.93,8.965Z" fill="#0053b6"/><path d="M183.079,61V43.07l17.93,8.965Z" fill="#0053b6"/><path d="M126.568,73.087a6.431,6.431,0,0,0,0-1.45v-.725L137,64.427,130.6,49l-11.963,2.739q-.966-1.047-2.013-2.014l2.737-11.962-15.424-6.4L97.449,41.792h-.725a6.572,6.572,0,0,0-1.448,0h-.725L88.066,31.361l-15.425,6.4,2.738,11.962q-1.049.966-2.014,2.014L61.4,49,55,64.427l10.432,6.485a6.793,6.793,0,0,1-.042.725v1.45a6.763,6.763,0,0,1,.042.725L55,80.3l6.4,15.426,11.962-2.739Q74.333,94.03,75.379,95l-2.738,11.963,15.425,6.4,6.485-10.431a6.564,6.564,0,0,1,.725.04h1.448a6.551,6.551,0,0,1,.725-.04l6.485,10.431,15.424-6.4L116.621,95q1.049-.966,2.013-2.013L130.6,95.722,137,80.3l-10.432-6.484Zm-16.633,5.195a15.035,15.035,0,0,1-3.223,4.793,15.491,15.491,0,0,1-4.832,3.263A14.843,14.843,0,0,1,96,87.505a15.143,15.143,0,0,1-5.921-1.167,15.541,15.541,0,0,1-8.055-8.056,15.135,15.135,0,0,1-1.168-5.92,14.836,14.836,0,0,1,1.168-5.88,15.506,15.506,0,0,1,3.263-4.834,15.077,15.077,0,0,1,4.792-3.222A14.7,14.7,0,0,1,96,57.218a14.413,14.413,0,0,1,5.88,1.208,14.815,14.815,0,0,1,8.055,8.056,14.374,14.374,0,0,1,1.208,5.88A14.662,14.662,0,0,1,109.935,78.282Z" fill="#0071cc"/><path d="M222.437,153.5a24.047,24.047,0,0,1,20.782,36.2,24.572,24.572,0,0,1-8.647,8.647,24.114,24.114,0,0,1-20.338,1.846,24.637,24.637,0,0,1-7.177-4.137l-26.832,26.8a2.174,2.174,0,1,1-3.075-3.075l26.8-26.832a24.637,24.637,0,0,1-4.137-7.177,24,24,0,0,1,1.846-20.338,24.572,24.572,0,0,1,8.647-8.647,23.847,23.847,0,0,1,12.134-3.281Zm0,43.75a19.219,19.219,0,0,0,7.657-1.538,20.2,20.2,0,0,0,6.254-4.239,19.728,19.728,0,0,0,4.2-6.254,19.42,19.42,0,0,0,0-15.313,19.587,19.587,0,0,0-10.458-10.458,19.42,19.42,0,0,0-15.313,0,19.728,19.728,0,0,0-6.254,4.2,20.2,20.2,0,0,0-4.239,6.254,19.827,19.827,0,0,0,0,15.313,20.031,20.031,0,0,0,10.493,10.493A19.218,19.218,0,0,0,222.437,197.25Z" fill="#0053b6"/><path d="M314.009,225h-17.93l8.965-17.93Z" fill="#0053b6"/><rect x="464" y="15" width="20" height="20" fill="#0071cc"/><rect x="127" y="192" width="24" height="24" fill="#0053b6"/><rect x="684" y="162" width="20" height="20" fill="#0053b6"/><path d="M1797.766,81.637q1.995.532,3.741,1.095a28.018,28.018,0,0,1,3.4,1.267,18.788,18.788,0,0,1,3.15,1.8,20.1,20.1,0,0,1,3.039,2.53,22.891,22.891,0,0,1,5.934,10.377,22.473,22.473,0,0,1,.758,5.823,23.579,23.579,0,0,1-.731,5.85,23.974,23.974,0,0,1-2.248,5.513,22.826,22.826,0,0,1-3.713,4.836q-.648.648-1.377,1.266-.705.591-1.464,1.125v45.337a12.991,12.991,0,0,1-1.042,5.146,13.268,13.268,0,0,1-2.9,4.3,13.04,13.04,0,0,1-4.386,2.925,13.359,13.359,0,0,1-10.069,0,13.044,13.044,0,0,1-4.387-2.925,13.268,13.268,0,0,1-2.9-4.3,12.991,12.991,0,0,1-1.042-5.146V123.119q-.759-.532-1.463-1.125c-.488-.413-.945-.834-1.377-1.266a22.8,22.8,0,0,1-3.714-4.836,23.974,23.974,0,0,1-2.248-5.513,23.625,23.625,0,0,1-.73-5.85,22.473,22.473,0,0,1,.757-5.823,22.881,22.881,0,0,1,5.935-10.377,20.1,20.1,0,0,1,3.038-2.53,18.828,18.828,0,0,1,3.15-1.8,27.971,27.971,0,0,1,3.4-1.267q1.745-.562,3.74-1.095V103.8h5.738Zm9.731,35.491a17.239,17.239,0,0,0,3.909-5.878,18.323,18.323,0,0,0,1.294-6.694,18.029,18.029,0,0,0-1.294-6.694,17.16,17.16,0,0,0-3.909-5.933,16.721,16.721,0,0,0-4.64-3.29l-.029,20.221h-15.861l-.029-20.221a16.707,16.707,0,0,0-4.64,3.29,17.149,17.149,0,0,0-3.91,5.933,18.029,18.029,0,0,0-1.294,6.694,18.344,18.344,0,0,0,1.294,6.694,17.228,17.228,0,0,0,3.91,5.878,14.983,14.983,0,0,0,2.08,1.743q1.1.761,2.25,1.465l.029,48.12a8.281,8.281,0,0,0,.619,3.149,8.273,8.273,0,0,0,4.5,4.5,8.536,8.536,0,0,0,6.242,0,8.273,8.273,0,0,0,4.5-4.5,8.281,8.281,0,0,0,.619-3.149l.029-48.12q1.154-.7,2.25-1.465A14.932,14.932,0,0,0,1807.5,117.128Z" fill="#0053b6"/><path d="M1697,133V115.07l17.93,8.965Z" fill="#0053b6"/><path d="M1506,41h34v61H1432V41h34V28h40Zm-34-6v7h27V35Zm61,13h-94V61h20V55h7v6h40V55h7v6h20Zm-94,47h94V68h-20v7h-7V68h-41v7h-7V68h-19Z" fill="#0053b6"/><path d="M1691.438,37.5a24.047,24.047,0,0,1,20.781,36.2,24.572,24.572,0,0,1-8.647,8.647,24.114,24.114,0,0,1-20.338,1.846,24.637,24.637,0,0,1-7.177-4.137l-26.832,26.8a2.174,2.174,0,1,1-3.075-3.075l26.8-26.832a24.637,24.637,0,0,1-4.137-7.177,24,24,0,0,1,1.846-20.338,24.572,24.572,0,0,1,8.647-8.647,23.847,23.847,0,0,1,12.135-3.281Zm0,43.75a19.218,19.218,0,0,0,7.656-1.538,20.2,20.2,0,0,0,6.254-4.239,19.728,19.728,0,0,0,4.2-6.254,19.42,19.42,0,0,0,0-15.313,19.587,19.587,0,0,0-10.458-10.458,19.42,19.42,0,0,0-15.313,0,19.728,19.728,0,0,0-6.254,4.2,20.2,20.2,0,0,0-4.239,6.254,19.827,19.827,0,0,0,0,15.313,20.031,20.031,0,0,0,10.493,10.493A19.219,19.219,0,0,0,1691.438,81.25Z" fill="#0053b6"/><path d="M1405.009,43.07V61l-17.93-8.965Z" fill="#0053b6"/><path d="M1587.413,156.969a10.714,10.714,0,0,1,4.254.844,11.071,11.071,0,0,1,3.525,2.324,10.835,10.835,0,0,1,2.366,3.463,10.217,10.217,0,0,1,.859,4.181,10.517,10.517,0,0,1-.859,4.224,11.007,11.007,0,0,1-5.891,5.744,11.127,11.127,0,0,1-8.295.085,10.836,10.836,0,0,1-5.8-5.2,10.186,10.186,0,0,1-1.119-3.927L1570,167.654a16.418,16.418,0,0,1-7.869,9.039l2.495,7.349a2.041,2.041,0,0,1,.387-.042h.386a10.738,10.738,0,0,1,4.258.845,11.062,11.062,0,0,1,3.525,2.323,10.851,10.851,0,0,1,2.362,3.463,10.217,10.217,0,0,1,.86,4.181,10.514,10.514,0,0,1-.86,4.224,10.982,10.982,0,0,1-5.887,5.744,10.738,10.738,0,0,1-4.258.845,11.026,11.026,0,0,1-4.3-.845,11.159,11.159,0,0,1-3.481-2.323,10.981,10.981,0,0,1-2.366-3.421,10.8,10.8,0,0,1,.473-9.419,11.007,11.007,0,0,1,3.7-3.885l-2.495-7.349q-.6.084-1.246.169-.645.042-1.289.042a16.438,16.438,0,0,1-13.327-6.631l-8.942,4.35a10.248,10.248,0,0,1,.257,2.281,10.512,10.512,0,0,1-.859,4.223,10.96,10.96,0,0,1-2.363,3.421,11.082,11.082,0,0,1-3.525,2.324,10.729,10.729,0,0,1-4.257.844,11.026,11.026,0,0,1-4.3-.844,11.2,11.2,0,0,1-3.482-2.324,10.966,10.966,0,0,1-2.365-3.421,10.513,10.513,0,0,1-.86-4.223,10.222,10.222,0,0,1,.86-4.182,10.855,10.855,0,0,1,2.365-3.463,11.175,11.175,0,0,1,3.482-2.323,11.132,11.132,0,0,1,12.594,2.872l8.942-4.393a15.911,15.911,0,0,1,.346-10.516,15.716,15.716,0,0,1,3.135-5.027l-5.2-6.377a11.163,11.163,0,0,1-8.812.127,11.191,11.191,0,0,1-3.481-2.324,10.969,10.969,0,0,1-2.366-3.421,10.512,10.512,0,0,1-.859-4.223,10.221,10.221,0,0,1,.859-4.182,10.846,10.846,0,0,1,2.366-3.463,11.171,11.171,0,0,1,3.481-2.323,11.026,11.026,0,0,1,4.3-.845,10.734,10.734,0,0,1,4.258.845,11.062,11.062,0,0,1,3.525,2.323,10.908,10.908,0,0,1,2.365,3.463,10.221,10.221,0,0,1,.859,4.182,10.392,10.392,0,0,1-2.192,6.462l5.158,6.378a17.37,17.37,0,0,1,3.868-1.479,16.153,16.153,0,0,1,4.171-.549,16.644,16.644,0,0,1,6.75,1.394l7.049-10.39a10.935,10.935,0,0,1-2.065-3.337,10.546,10.546,0,0,1-.73-3.885,10.219,10.219,0,0,1,.86-4.182,10.844,10.844,0,0,1,2.365-3.463,11.175,11.175,0,0,1,3.482-2.323,11.023,11.023,0,0,1,4.3-.845,10.729,10.729,0,0,1,4.257.845,11.062,11.062,0,0,1,3.525,2.323,10.892,10.892,0,0,1,2.365,3.463,10.219,10.219,0,0,1,.86,4.182,10.513,10.513,0,0,1-.86,4.223,11,11,0,0,1-5.89,5.744,10.729,10.729,0,0,1-4.257.845,11.569,11.569,0,0,1-3.612-.591l-7.093,10.432a15.572,15.572,0,0,1,3.828,5.364,15.318,15.318,0,0,1,1.376,6.378l6.447,1.056a10.518,10.518,0,0,1,1.676-2.619,10.653,10.653,0,0,1,2.365-2.027,11.751,11.751,0,0,1,2.838-1.31A11.021,11.021,0,0,1,1587.413,156.969Zm-11.007-32.438a5.4,5.4,0,0,0-2.149.423,5.656,5.656,0,0,0-1.763,1.182,5.421,5.421,0,0,0-1.159,1.69,5.4,5.4,0,0,0,0,4.223,5.964,5.964,0,0,0,1.159,1.732,6.056,6.056,0,0,0,1.763,1.14,5.675,5.675,0,0,0,4.3,0,5.54,5.54,0,0,0,2.922-2.872,5.205,5.205,0,0,0-1.2-5.913,5.222,5.222,0,0,0-1.72-1.182A5.41,5.41,0,0,0,1576.406,124.531ZM1521.381,184a5.428,5.428,0,0,0,2.149-.422,5.521,5.521,0,0,0,1.719-1.141,5.58,5.58,0,0,0,1.206-1.732,5.411,5.411,0,0,0,0-4.223,5.088,5.088,0,0,0-1.206-1.689,5.17,5.17,0,0,0-1.719-1.183,5.683,5.683,0,0,0-4.3,0,5.67,5.67,0,0,0-1.763,1.183,5.405,5.405,0,0,0-1.159,1.689,5.365,5.365,0,0,0,0,4.223,5.964,5.964,0,0,0,1.159,1.732,6.093,6.093,0,0,0,1.763,1.141A5.424,5.424,0,0,0,1521.381,184Zm49.524,10.812a5.164,5.164,0,0,0-.43-2.111,5.088,5.088,0,0,0-1.206-1.69,5.164,5.164,0,0,0-1.719-1.183,5.683,5.683,0,0,0-4.3,0,5.683,5.683,0,0,0-1.762,1.183,5.424,5.424,0,0,0-1.16,1.69,5.376,5.376,0,0,0,0,4.223,5.967,5.967,0,0,0,1.16,1.732,6.088,6.088,0,0,0,1.762,1.141,5.683,5.683,0,0,0,4.3,0,5.5,5.5,0,0,0,1.719-1.141,5.563,5.563,0,0,0,1.206-1.732A5.166,5.166,0,0,0,1570.905,194.812Zm-44.021-59.468a5.164,5.164,0,0,0,.43,2.111,5.967,5.967,0,0,0,1.16,1.732,6.088,6.088,0,0,0,1.762,1.141,5.69,5.69,0,0,0,4.3,0,5.555,5.555,0,0,0,2.922-2.873,5.2,5.2,0,0,0-1.2-5.913,5.223,5.223,0,0,0-1.719-1.182,5.69,5.69,0,0,0-4.3,0,5.68,5.68,0,0,0-1.762,1.182,5.424,5.424,0,0,0-1.16,1.69A5.169,5.169,0,0,0,1526.884,135.344Zm27.513,37.844a10.713,10.713,0,0,0,4.255-.845,11.01,11.01,0,0,0,5.89-5.744,10.52,10.52,0,0,0,.859-4.224,10.217,10.217,0,0,0-.859-4.181,10.867,10.867,0,0,0-2.366-3.464,11.053,11.053,0,0,0-3.524-2.323,10.713,10.713,0,0,0-4.255-.845,11.026,11.026,0,0,0-4.3.845,11.206,11.206,0,0,0-3.485,2.323,10.856,10.856,0,0,0-2.362,3.464,10.217,10.217,0,0,0-.86,4.181,10.521,10.521,0,0,0,.86,4.224,11,11,0,0,0,2.362,3.421,11.206,11.206,0,0,0,3.485,2.323A11.026,11.026,0,0,0,1554.4,173.188Zm33.016,0a5.411,5.411,0,0,0,2.149-.423,5.5,5.5,0,0,0,1.719-1.14,5.571,5.571,0,0,0,1.2-1.732,5.4,5.4,0,0,0,0-4.223,5.094,5.094,0,0,0-1.2-1.69,5.184,5.184,0,0,0-1.719-1.183,5.69,5.69,0,0,0-4.3,0,5.707,5.707,0,0,0-1.762,1.183,5.407,5.407,0,0,0-1.16,1.69,5.4,5.4,0,0,0,0,4.223,5.947,5.947,0,0,0,1.16,1.732,6.091,6.091,0,0,0,1.762,1.14A5.415,5.415,0,0,0,1587.413,173.188Z" fill="#0053b6"/><rect x="1601" y="17" width="20" height="20" fill="#0053b6"/><rect x="1272" y="87" width="24" height="24" fill="#0053b6"/><rect x="1919" y="193" width="20" height="20" fill="#0071cc"/><path d="M2195.263,86.085V62.991a22.694,22.694,0,0,1,5.672-15.1,23.387,23.387,0,0,1,6.288-5.1,22.71,22.71,0,0,1,7.835-2.629V.308h6.6V40.155a22.749,22.749,0,0,1,7.888,2.629,24.59,24.59,0,0,1,6.288,5.1,23.36,23.36,0,0,1,4.124,6.908,22.788,22.788,0,0,1,1.495,8.2V86.085h-6.6v19.794h-6.6V86.085H2208.46v19.794h-6.6V86.085Zm6.6-6.6h32.991v-16.5a16.309,16.309,0,0,0-1.29-6.443,16.1,16.1,0,0,0-8.763-8.764,16.328,16.328,0,0,0-6.443-1.288,15.989,15.989,0,0,0-6.394,1.288,16.566,16.566,0,0,0-5.206,3.505,16.78,16.78,0,0,0-3.556,5.259,15.789,15.789,0,0,0-1.339,6.443Z" fill="#0071cc"/><path d="M2420,55.743v.625a5.452,5.452,0,0,1,0,1.251v.625l9,5.594-5.523,13.307-10.32-2.363q-.834.9-1.737,1.737l2.362,10.319-13.306,5.524-5.6-9a5.481,5.481,0,0,0-.625.035h-1.249a5.481,5.481,0,0,0-.625-.035l-5.6,9-13.306-5.524,2.362-10.319q-.9-.834-1.737-1.737l-10.319,2.363-5.524-13.307,9-5.594a5.694,5.694,0,0,0-.036-.625V56.368a5.694,5.694,0,0,0,.036-.625l-9-5.594,5.524-13.307,10.319,2.363q.834-.9,1.737-1.737l-2.362-10.319,13.306-5.525,5.6,9h.625a5.589,5.589,0,0,1,1.249,0h.625l5.6-9,13.306,5.525-2.362,10.319q.9.834,1.737,1.737l10.32-2.363L2429,50.149Zm-4.065,4.516q.071-.832.14-1.633c.047-.555.069-1.111.069-1.667,0-.533-.022-1.077-.069-1.633s-.093-1.1-.14-1.633l8.2-5.107-2.989-7.227-9.414,2.189a28.369,28.369,0,0,0-2.224-2.432q-1.113-1.113-2.432-2.224l2.188-9.416-7.227-2.987-5.141,8.2q-.8-.069-1.634-.139c-.556-.046-1.1-.069-1.632-.069q-.834,0-1.668.069c-.534.046-1.076.093-1.632.139l-5.108-8.2L2378,29.476l2.189,9.416a28.357,28.357,0,0,0-2.433,2.224q-1.111,1.111-2.224,2.432l-9.414-2.189-2.989,7.227,8.2,5.141-.14,1.668c-.047.533-.069,1.077-.069,1.633,0,.533.022,1.077.069,1.633s.093,1.1.14,1.633l-8.2,5.107,2.989,7.227,9.414-2.189a32.224,32.224,0,0,0,2.191,2.432q1.146,1.113,2.466,2.224L2378,84.51l7.227,2.988,5.141-8.2,1.634.139c.556.046,1.1.069,1.633.069.555,0,1.1-.023,1.632-.069l1.667-.139,5.108,8.2,7.227-2.988-2.188-9.415a32.624,32.624,0,0,0,2.432-2.189q1.111-1.146,2.224-2.467l9.414,2.189,2.989-7.227Zm-22.3-16.329a12.426,12.426,0,0,1,5.072,1.042,12.776,12.776,0,0,1,6.948,6.949,12.407,12.407,0,0,1,1.043,5.072,12.656,12.656,0,0,1-1.043,5.108,12.949,12.949,0,0,1-2.779,4.134,13.358,13.358,0,0,1-4.169,2.814,12.792,12.792,0,0,1-5.072,1.008,13.05,13.05,0,0,1-5.108-1.008,13.4,13.4,0,0,1-6.949-6.948,13.064,13.064,0,0,1-1.007-5.108,12.806,12.806,0,0,1,1.007-5.072,13.36,13.36,0,0,1,2.815-4.169,13,13,0,0,1,4.134-2.78A12.676,12.676,0,0,1,2393.632,43.93Zm0,22.236a9.2,9.2,0,0,0,3.577-.695,9.443,9.443,0,0,0,2.92-1.98,8.949,8.949,0,0,0,1.946-2.919,9.148,9.148,0,0,0,0-7.157,8.936,8.936,0,0,0-4.866-4.864,9.131,9.131,0,0,0-7.155,0,8.951,8.951,0,0,0-2.92,1.945,9.4,9.4,0,0,0-1.979,2.919,9.547,9.547,0,0,0,0,7.157,9.359,9.359,0,0,0,4.9,4.9A9.209,9.209,0,0,0,2393.632,66.166Z" fill="#0053b6"/><path d="M2427,179h22v41h-72V179h23v-9h27Zm-23-5v5h18v-5Zm41,10h-63v9h13v-5h5v5h26v-5h5v5h14Zm-63,31h63V197h-14v5h-5v-5h-26v5h-5v-5h-13Z" fill="#0053b6"/><path d="M2148,213V195.07l17.93,8.965Z" fill="#0053b6"/><rect x="2277" y="52" width="20" height="20" fill="#0053b6"/><path d="M2487.009,116h-17.93l8.965-17.93Z" fill="#0053b6"/><path d="M2045,43.07h17.93L2053.965,61Z" fill="#0053b6"/><polygon points="49 143 49 123 0 123 0 133 39 133 39 143 0 143 0 152 88 152 88 172 58 172 58 162 48 162 48 172 0 172 0 182 48 182 48 192 58 192 58 182 88 182 88 221 0 221 0 231 97 231 97 143 49 143" fill="#0053b6"/><path d="M380.192,19.136a11.068,11.068,0,0,0-3.525-2.323,10.714,10.714,0,0,0-4.254-.844,11.021,11.021,0,0,0-3.182.464,11.751,11.751,0,0,0-2.838,1.31,10.653,10.653,0,0,0-2.365,2.027,10.489,10.489,0,0,0-1.676,2.619l-6.447-1.056a15.318,15.318,0,0,0-1.376-6.378A15.572,15.572,0,0,0,350.7,9.591L357.222,0h-6.631l-4.445,6.55A16.636,16.636,0,0,0,339.4,5.156a16.153,16.153,0,0,0-4.171.549,17.37,17.37,0,0,0-3.868,1.479L326.2.806c.2-.264.385-.533.559-.806H308.016a10.977,10.977,0,0,0,1.59,1.989,11.188,11.188,0,0,0,3.481,2.323,11.026,11.026,0,0,0,4.3.844,11.024,11.024,0,0,0,4.514-.971l5.2,6.377a15.716,15.716,0,0,0-3.135,5.027,15.911,15.911,0,0,0-.346,10.516L314.677,30.5a11.108,11.108,0,0,0-3.739-2.745,11.257,11.257,0,0,0-8.855-.127,11.175,11.175,0,0,0-3.482,2.323,10.855,10.855,0,0,0-2.365,3.463,10.222,10.222,0,0,0-.86,4.182,10.513,10.513,0,0,0,.86,4.223,10.982,10.982,0,0,0,2.365,3.422,11.193,11.193,0,0,0,3.482,2.323,11.026,11.026,0,0,0,4.3.844,10.729,10.729,0,0,0,4.257-.844,10.985,10.985,0,0,0,5.888-5.745,10.512,10.512,0,0,0,.859-4.223,10.242,10.242,0,0,0-.257-2.281l8.942-4.35A16.438,16.438,0,0,0,339.4,37.594q.645,0,1.289-.042.645-.086,1.246-.169l2.5,7.349a11,11,0,0,0-3.7,3.885,10.8,10.8,0,0,0-.473,9.419,10.969,10.969,0,0,0,2.366,3.421A11.171,11.171,0,0,0,346.1,63.78a11.026,11.026,0,0,0,4.3.845,10.738,10.738,0,0,0,4.258-.845,10.982,10.982,0,0,0,5.887-5.744,10.514,10.514,0,0,0,.86-4.224,10.217,10.217,0,0,0-.86-4.181,10.851,10.851,0,0,0-2.362-3.463,11.062,11.062,0,0,0-3.525-2.323A10.738,10.738,0,0,0,350.4,43h-.386a2.041,2.041,0,0,0-.387.042l-2.5-7.349A16.421,16.421,0,0,0,355,26.655l6.447,1.055a10.2,10.2,0,0,0,1.119,3.928,11.77,11.77,0,0,0,2.406,3.126,11.842,11.842,0,0,0,3.4,2.069,11.12,11.12,0,0,0,8.295-.084,11.007,11.007,0,0,0,5.891-5.744,10.517,10.517,0,0,0,.859-4.224,10.217,10.217,0,0,0-.859-4.181A10.867,10.867,0,0,0,380.192,19.136Zm-68.737,20.57a5.587,5.587,0,0,1-1.206,1.731,5.521,5.521,0,0,1-1.719,1.141,5.683,5.683,0,0,1-4.3,0,6.093,6.093,0,0,1-1.763-1.141,5.972,5.972,0,0,1-1.159-1.731,5.367,5.367,0,0,1,0-4.224,5.421,5.421,0,0,1,1.159-1.69,5.685,5.685,0,0,1,1.763-1.182,5.683,5.683,0,0,1,4.3,0,5.182,5.182,0,0,1,1.719,1.182,5.1,5.1,0,0,1,1.206,1.69,5.413,5.413,0,0,1,0,4.224Zm36.8,9.123a5.67,5.67,0,0,1,4.3,0,5.147,5.147,0,0,1,1.719,1.182,5.088,5.088,0,0,1,1.206,1.69,5.4,5.4,0,0,1,0,4.223,5.563,5.563,0,0,1-1.206,1.732,5.478,5.478,0,0,1-1.719,1.14,5.67,5.67,0,0,1-4.3,0,6.064,6.064,0,0,1-1.762-1.14,5.967,5.967,0,0,1-1.16-1.732,5.376,5.376,0,0,1,0-4.223,5.424,5.424,0,0,1,1.16-1.69A5.663,5.663,0,0,1,348.252,48.829Zm1.29-23.23a11.007,11.007,0,0,1-5.891,5.744,10.7,10.7,0,0,1-4.254.845,11.026,11.026,0,0,1-4.3-.845,11.19,11.19,0,0,1-3.484-2.323,10.984,10.984,0,0,1-2.363-3.421,10.521,10.521,0,0,1-.86-4.224,10.217,10.217,0,0,1,.86-4.181,10.842,10.842,0,0,1,2.363-3.464,11.19,11.19,0,0,1,3.484-2.323,11.026,11.026,0,0,1,4.3-.845,10.7,10.7,0,0,1,4.254.845,11.046,11.046,0,0,1,3.525,2.323,10.851,10.851,0,0,1,2.366,3.464,10.217,10.217,0,0,1,.859,4.181A10.52,10.52,0,0,1,349.542,25.6Zm27.942,3.294a5.571,5.571,0,0,1-1.2,1.732,5.5,5.5,0,0,1-1.719,1.14,5.678,5.678,0,0,1-4.3,0,6.091,6.091,0,0,1-1.762-1.14,5.947,5.947,0,0,1-1.16-1.732,5.4,5.4,0,0,1,0-4.224,5.4,5.4,0,0,1,1.16-1.689,5.707,5.707,0,0,1,1.762-1.183,5.69,5.69,0,0,1,4.3,0,5.184,5.184,0,0,1,1.719,1.183,5.09,5.09,0,0,1,1.2,1.689,5.4,5.4,0,0,1,0,4.224Z" fill="#0053b6"/><path d="M1367.619,234.743l19.84-4.543q1.6,1.737,3.339,3.34L1387.032,250h33.512l2.052-3.3a11.058,11.058,0,0,1,1.2.066h2.4a11.058,11.058,0,0,1,1.2-.066l2.052,3.3h33.512l-3.767-16.46q1.738-1.6,3.339-3.34l19.841,4.543L1493,209.159l-17.3-10.754v-1.2a10.658,10.658,0,0,0,0-2.4v-1.2l17.3-10.754-10.619-25.584-19.841,4.543q-1.6-1.737-3.339-3.34l4.54-19.839L1438.158,128,1427.4,145.3h-1.2a10.96,10.96,0,0,0-2.4,0h-1.2L1411.84,128l-25.582,10.621,4.54,19.839q-1.737,1.6-3.339,3.34l-19.84-4.543L1357,182.841l17.3,10.754a11.026,11.026,0,0,1-.069,1.2v2.4a11.026,11.026,0,0,1,.069,1.2L1357,209.159Zm34.2-48.495a25.691,25.691,0,0,1,5.412-8.016,24.972,24.972,0,0,1,7.947-5.344,24.371,24.371,0,0,1,9.82-2,23.883,23.883,0,0,1,9.751,2,24.562,24.562,0,0,1,13.36,13.36,23.856,23.856,0,0,1,2.005,9.752,24.335,24.335,0,0,1-2.005,9.82,24.927,24.927,0,0,1-5.344,7.948,25.683,25.683,0,0,1-8.016,5.411,24.582,24.582,0,0,1-9.751,1.937,25.086,25.086,0,0,1-9.82-1.937,25.777,25.777,0,0,1-13.359-13.359,25.1,25.1,0,0,1-1.937-9.82A24.6,24.6,0,0,1,1401.82,186.248Z" fill="#0071cc"/><path d="M1639.7,214.462a34.3,34.3,0,0,1,7.472,10.763,31.282,31.282,0,0,1,2.646,12.881V250h7.529v-8.129h22.585V250h7.529V238.106a31.856,31.856,0,0,1,2.59-12.881,35.11,35.11,0,0,1,7.528-10.763,43.2,43.2,0,0,0,9.234-13.234,38.57,38.57,0,0,0,3.233-15.821,41.463,41.463,0,0,0-52.406-39.937,40.974,40.974,0,0,0-18.29,10.646,41.286,41.286,0,0,0-12.117,29.291,38.57,38.57,0,0,0,3.233,15.821A43.2,43.2,0,0,0,1639.7,214.462Zm-2.293-42.23a34.762,34.762,0,0,1,7.3-10.763,33.944,33.944,0,0,1,10.761-7.235,33.438,33.438,0,0,1,26.35,0,33.712,33.712,0,0,1,18,18,32.483,32.483,0,0,1,2.707,13.175,31.006,31.006,0,0,1-2.647,12.881,36.2,36.2,0,0,1-7.472,10.763,45.681,45.681,0,0,0-8.409,11.528,38.893,38.893,0,0,0-3.881,13.763h-22.939a38.893,38.893,0,0,0-3.881-13.763,45.661,45.661,0,0,0-8.41-11.528,37.121,37.121,0,0,1-7.528-10.763,31.59,31.59,0,0,1-2.59-12.881A33.081,33.081,0,0,1,1637.406,172.232Z" fill="#0053b6"/><path d="M2201.344,179.849a19.529,19.529,0,0,0,4.369,5.86,18.957,18.957,0,0,0,6.257,3.81,17.857,17.857,0,0,0,7.372,1.117,18.384,18.384,0,0,0,6.71-1.628,19.075,19.075,0,0,0,5.632-3.906l18.765,11.347a29.082,29.082,0,0,0-1.814,11.9,28.2,28.2,0,0,0,1.338,7.224,30.4,30.4,0,0,0,2.932,6.612l-10.653,9.578a18.149,18.149,0,0,0-11.471-3.233,17.84,17.84,0,0,0-7.215,1.881,19.014,19.014,0,0,0-5.824,4.442,19.308,19.308,0,0,0-3.73,6.36,18.727,18.727,0,0,0-1.085,7.5c.023.436.079.859.128,1.285h9.556a10.2,10.2,0,0,1-.255-1.778,9.481,9.481,0,0,1,.541-3.792,9.123,9.123,0,0,1,1.905-3.106,9.245,9.245,0,0,1,10.2-2.638,9.7,9.7,0,0,1,5.276,4.834,9.457,9.457,0,0,1,.933,3.714,9.753,9.753,0,0,1-.24,2.766h9.561a20.127,20.127,0,0,0,.109-3.259,19.282,19.282,0,0,0-2.107-7.785l10.649-9.654a27.438,27.438,0,0,0,9.053,5.01,27.791,27.791,0,0,0,18.375-.356l8.478,15.2c-.274.272-.516.565-.771.849h27.814q-.611-.68-1.287-1.3a19.177,19.177,0,0,0-6.182-3.809,18.384,18.384,0,0,0-7.446-1.113,17.882,17.882,0,0,0-3.954.656l-8.4-15.2a28.7,28.7,0,0,0,10.348-23.849q-.058-1.125-.191-2.245c-.137-.745-.274-1.466-.408-2.158l12.59-5.023a19.208,19.208,0,0,0,7.115,6.095,18.86,18.86,0,0,0,16.471-.035,19.187,19.187,0,0,0,5.751-4.438,19.519,19.519,0,0,0,3.734-6.284,19.257,19.257,0,0,0,1.081-7.574,18.758,18.758,0,0,0-1.862-7.349,19.189,19.189,0,0,0-10.556-9.744,18.35,18.35,0,0,0-7.446-1.113,17.84,17.84,0,0,0-7.215,1.881,18.934,18.934,0,0,0-5.824,4.436,19.323,19.323,0,0,0-3.73,6.361,18.744,18.744,0,0,0-1.085,7.5c.013.25.025.477.035.675a3.61,3.61,0,0,0,.109.67l-12.59,5.023a28.684,28.684,0,0,0-16.483-12.9l1.253-11.34a17.829,17.829,0,0,0,6.749-2.311,18.924,18.924,0,0,0,8.531-10.6,19.435,19.435,0,0,0-.9-14.461,19.216,19.216,0,0,0-10.557-9.75,18.377,18.377,0,0,0-7.445-1.113,17.84,17.84,0,0,0-7.215,1.881,18.937,18.937,0,0,0-5.824,4.441,19.34,19.34,0,0,0-3.73,6.361,18.7,18.7,0,0,0-1.085,7.5,19.234,19.234,0,0,0,1.1,5.507,20.567,20.567,0,0,0,2.543,4.831,18.628,18.628,0,0,0,3.752,3.94,18.4,18.4,0,0,0,4.72,2.684l-1.253,11.341a26.752,26.752,0,0,0-11,2.982,27.191,27.191,0,0,0-9.006,7.166l-18.844-11.419a20.169,20.169,0,0,0,.7-6.353,18.749,18.749,0,0,0-1.862-7.348,19.219,19.219,0,0,0-10.557-9.749,18.36,18.36,0,0,0-7.445-1.114,17.873,17.873,0,0,0-7.215,1.881,19.046,19.046,0,0,0-5.825,4.442,19.353,19.353,0,0,0-3.73,6.36,18.746,18.746,0,0,0-1.084,7.5A19.256,19.256,0,0,0,2201.344,179.849Zm122.262,1.57a9.039,9.039,0,0,1,1.906-3.107,8.862,8.862,0,0,1,2.837-2.256,9.43,9.43,0,0,1,7.366-.386,9.728,9.728,0,0,1,5.277,4.839,9.913,9.913,0,0,1,.392,7.5,10.636,10.636,0,0,1-1.828,3.179,10.424,10.424,0,0,1-2.915,2.18,9.373,9.373,0,0,1-7.366.386,9.468,9.468,0,0,1-3.053-1.868,9.947,9.947,0,0,1-2.224-2.966,9.927,9.927,0,0,1-.392-7.5ZM2274.841,153a9.927,9.927,0,0,1-.392-7.5,9.02,9.02,0,0,1,1.906-3.107,8.851,8.851,0,0,1,2.837-2.252,9.43,9.43,0,0,1,7.366-.386,9.7,9.7,0,0,1,5.277,4.834,9.936,9.936,0,0,1,.392,7.5,10.685,10.685,0,0,1-1.828,3.179,10.424,10.424,0,0,1-2.915,2.18,9.431,9.431,0,0,1-7.366.386,9.468,9.468,0,0,1-3.053-1.868A10,10,0,0,1,2274.841,153Zm-15.692,47.36a19.285,19.285,0,0,1,3.73-6.36,18.972,18.972,0,0,1,5.825-4.442,17.868,17.868,0,0,1,7.214-1.881,18.368,18.368,0,0,1,7.446,1.114,19.213,19.213,0,0,1,10.556,9.749,18.69,18.69,0,0,1,1.862,7.343,19.236,19.236,0,0,1-1.081,7.574,19.54,19.54,0,0,1-3.733,6.289,19.174,19.174,0,0,1-5.752,4.434,18.381,18.381,0,0,1-7.288,1.885,17.858,17.858,0,0,1-7.372-1.118,18.954,18.954,0,0,1-6.256-3.8,19.57,19.57,0,0,1-4.37-5.866,19.256,19.256,0,0,1-1.866-7.419A18.714,18.714,0,0,1,2259.149,200.357Zm-49.7-32.212a9.114,9.114,0,0,1,1.906-3.107,9.243,9.243,0,0,1,10.2-2.638,9.694,9.694,0,0,1,5.276,4.835,9.933,9.933,0,0,1,.393,7.5,10.618,10.618,0,0,1-1.828,3.178,10.4,10.4,0,0,1-2.915,2.18,9.431,9.431,0,0,1-7.366.386,9.451,9.451,0,0,1-3.053-1.868,9.922,9.922,0,0,1-2.224-2.966,9.924,9.924,0,0,1-.392-7.5Z" fill="#0053b6"/><g clip-path="url(#a)"><ellipse cx="2610.134" cy="202.681" rx="154.492" ry="153.876" fill="#002e65"/><path d="M2561,234.537l-65-29.527V193.778l65-30.984v16.645l-46,19.606v.414l46,18.437Z" fill="#002050"/></g></svg>