<svg xmlns="http://www.w3.org/2000/svg" xmlns:xlink="http://www.w3.org/1999/xlink" viewBox="0 0 2500 250"><defs><clipPath id="a"><rect x="-2519" y="-270" width="2500" height="250" fill="none"/></clipPath><clipPath id="b"><rect x="-2520" y="-0.028" width="2500.046" height="250.028" fill="none"/></clipPath><clipPath id="c"><rect x="0.735" y="270" width="2500" height="250" fill="none"/></clipPath></defs><title>banner-solid-icons-2-purple-dark</title><g clip-path="url(#b)"><ellipse cx="47.536" cy="111.958" rx="4.25" ry="4.191" fill="#b4009e"/><ellipse cx="50.81" cy="123.784" rx="3.755" ry="3.703" fill="#b4009e"/><ellipse cx="53.845" cy="134.435" rx="3.379" ry="3.332" fill="#b4009e"/><ellipse cx="56.682" cy="144.261" rx="2.987" ry="2.945" fill="#b4009e"/><ellipse cx="59.461" cy="153.935" rx="2.641" ry="2.604" fill="#b4009e"/><ellipse cx="61.997" cy="162.929" rx="2.287" ry="2.255" fill="#b4009e"/><ellipse cx="64.318" cy="171.071" rx="1.995" ry="1.968" fill="#b4009e"/><ellipse cx="66.358" cy="178.379" rx="1.663" ry="1.64" fill="#b4009e"/><ellipse cx="68.266" cy="184.973" rx="1.419" ry="1.399" fill="#b4009e"/><ellipse cx="69.843" cy="190.646" rx="1.197" ry="1.181" fill="#b4009e"/><ellipse cx="71.485" cy="196.186" rx="0.96" ry="0.947" fill="#b4009e"/><ellipse cx="72.764" cy="200.633" rx="0.764" ry="0.754" fill="#b4009e"/><ellipse cx="31.702" cy="107.762" rx="4.25" ry="4.191" fill="#b4009e"/><ellipse cx="34.976" cy="119.588" rx="3.755" ry="3.703" fill="#b4009e"/><ellipse cx="38.011" cy="130.238" rx="3.379" ry="3.332" fill="#b4009e"/><ellipse cx="40.848" cy="140.064" rx="2.987" ry="2.945" fill="#b4009e"/><ellipse cx="43.627" cy="149.739" rx="2.641" ry="2.604" fill="#b4009e"/><ellipse cx="46.163" cy="158.733" rx="2.287" ry="2.255" fill="#b4009e"/><ellipse cx="48.484" cy="166.875" rx="1.995" ry="1.968" fill="#b4009e"/><ellipse cx="50.525" cy="174.182" rx="1.663" ry="1.64" fill="#b4009e"/><ellipse cx="52.432" cy="180.776" rx="1.419" ry="1.399" fill="#b4009e"/><ellipse cx="54.009" cy="186.449" rx="1.197" ry="1.181" fill="#b4009e"/><ellipse cx="55.651" cy="191.99" rx="0.96" ry="0.947" fill="#b4009e"/><ellipse cx="56.93" cy="196.437" rx="0.764" ry="0.754" fill="#b4009e"/><ellipse cx="16.457" cy="104.307" rx="4.25" ry="4.191" fill="#b4009e"/><ellipse cx="19.731" cy="116.133" rx="3.755" ry="3.703" fill="#b4009e"/><ellipse cx="22.766" cy="126.784" rx="3.379" ry="3.332" fill="#b4009e"/><ellipse cx="25.603" cy="136.61" rx="2.987" ry="2.945" fill="#b4009e"/><ellipse cx="28.382" cy="146.284" rx="2.641" ry="2.604" fill="#b4009e"/><ellipse cx="30.918" cy="155.278" rx="2.287" ry="2.255" fill="#b4009e"/><ellipse cx="33.239" cy="163.42" rx="1.995" ry="1.968" fill="#b4009e"/><ellipse cx="35.279" cy="170.728" rx="1.663" ry="1.64" fill="#b4009e"/><ellipse cx="37.187" cy="177.322" rx="1.419" ry="1.399" fill="#b4009e"/><ellipse cx="38.764" cy="182.995" rx="1.197" ry="1.181" fill="#b4009e"/><ellipse cx="40.406" cy="188.535" rx="0.96" ry="0.947" fill="#b4009e"/><ellipse cx="41.685" cy="192.982" rx="0.764" ry="0.754" fill="#b4009e"/><ellipse cx="1.552" cy="100.755" rx="4.25" ry="4.191" fill="#b4009e"/><ellipse cx="4.826" cy="112.58" rx="3.755" ry="3.703" fill="#b4009e"/><ellipse cx="7.861" cy="123.231" rx="3.379" ry="3.332" fill="#b4009e"/><ellipse cx="10.698" cy="133.057" rx="2.987" ry="2.945" fill="#b4009e"/><ellipse cx="13.477" cy="142.732" rx="2.641" ry="2.604" fill="#b4009e"/><ellipse cx="16.014" cy="151.726" rx="2.287" ry="2.255" fill="#b4009e"/><ellipse cx="18.334" cy="159.868" rx="1.995" ry="1.968" fill="#b4009e"/><ellipse cx="20.375" cy="167.175" rx="1.663" ry="1.64" fill="#b4009e"/><ellipse cx="22.282" cy="173.769" rx="1.419" ry="1.399" fill="#b4009e"/><ellipse cx="23.859" cy="179.442" rx="1.197" ry="1.181" fill="#b4009e"/><ellipse cx="25.501" cy="184.983" rx="0.96" ry="0.947" fill="#b4009e"/><ellipse cx="26.78" cy="189.43" rx="0.764" ry="0.754" fill="#b4009e"/><ellipse cx="-1.768" cy="139.277" rx="2.641" ry="2.604" fill="#b4009e"/><ellipse cx="0.768" cy="148.271" rx="2.287" ry="2.255" fill="#b4009e"/><ellipse cx="3.089" cy="156.413" rx="1.995" ry="1.968" fill="#b4009e"/><ellipse cx="5.13" cy="163.721" rx="1.663" ry="1.64" fill="#b4009e"/><ellipse cx="7.037" cy="170.315" rx="1.419" ry="1.399" fill="#b4009e"/><ellipse cx="8.614" cy="175.988" rx="1.197" ry="1.181" fill="#b4009e"/><ellipse cx="10.256" cy="181.528" rx="0.96" ry="0.947" fill="#b4009e"/><ellipse cx="11.535" cy="185.975" rx="0.764" ry="0.754" fill="#b4009e"/><ellipse cx="72.008" cy="199.36" rx="4.25" ry="4.191" fill="#b4009e"/><ellipse cx="63.38" cy="208.186" rx="3.755" ry="3.703" fill="#b4009e"/><ellipse cx="55.653" cy="216.207" rx="3.379" ry="3.332" fill="#b4009e"/><ellipse cx="48.543" cy="223.638" rx="2.987" ry="2.945" fill="#b4009e"/><ellipse cx="41.535" cy="230.943" rx="2.641" ry="2.604" fill="#b4009e"/><ellipse cx="34.997" cy="237.694" rx="2.287" ry="2.255" fill="#b4009e"/><ellipse cx="29.09" cy="243.827" rx="1.995" ry="1.968" fill="#b4009e"/><ellipse cx="23.767" cy="249.295" rx="1.663" ry="1.64" fill="#b4009e"/><ellipse cx="56.295" cy="194.947" rx="4.25" ry="4.191" fill="#b4009e"/><ellipse cx="47.667" cy="203.772" rx="3.755" ry="3.703" fill="#b4009e"/><ellipse cx="39.94" cy="211.794" rx="3.379" ry="3.332" fill="#b4009e"/><ellipse cx="32.83" cy="219.225" rx="2.987" ry="2.945" fill="#b4009e"/><ellipse cx="25.822" cy="226.53" rx="2.641" ry="2.604" fill="#b4009e"/><ellipse cx="19.284" cy="233.281" rx="2.287" ry="2.255" fill="#b4009e"/><ellipse cx="13.377" cy="239.414" rx="1.995" ry="1.968" fill="#b4009e"/><ellipse cx="8.054" cy="244.882" rx="1.663" ry="1.64" fill="#b4009e"/><ellipse cx="3.285" cy="249.872" rx="1.419" ry="1.399" fill="#b4009e"/><ellipse cx="40.759" cy="191.758" rx="4.25" ry="4.191" fill="#b4009e"/><ellipse cx="32.131" cy="200.583" rx="3.755" ry="3.703" fill="#b4009e"/><ellipse cx="24.404" cy="208.605" rx="3.379" ry="3.332" fill="#b4009e"/><ellipse cx="17.294" cy="216.036" rx="2.987" ry="2.945" fill="#b4009e"/><ellipse cx="10.286" cy="223.341" rx="2.641" ry="2.604" fill="#b4009e"/><ellipse cx="3.748" cy="230.092" rx="2.287" ry="2.255" fill="#b4009e"/><ellipse cx="25.975" cy="187.989" rx="4.25" ry="4.191" fill="#b4009e"/><ellipse cx="17.347" cy="196.814" rx="3.755" ry="3.703" fill="#b4009e"/><ellipse cx="9.62" cy="204.835" rx="3.379" ry="3.332" fill="#b4009e"/><ellipse cx="2.51" cy="212.267" rx="2.987" ry="2.945" fill="#b4009e"/><ellipse cx="10.85" cy="184.317" rx="4.25" ry="4.191" fill="#b4009e"/><ellipse cx="2.222" cy="193.143" rx="3.755" ry="3.703" fill="#b4009e"/><ellipse cx="0.53" cy="11.38" rx="1.949" ry="1.922" fill="#b4009e"/><ellipse cx="5.729" cy="6.039" rx="1.624" ry="1.602" fill="#b4009e"/><ellipse cx="10.388" cy="1.165" rx="1.386" ry="1.367" fill="#b4009e"/><ellipse cx="27.307" cy="2.797" rx="4.25" ry="4.191" fill="#b4009e"/><ellipse cx="18.679" cy="11.622" rx="3.755" ry="3.703" fill="#b4009e"/><ellipse cx="10.952" cy="19.643" rx="3.379" ry="3.332" fill="#b4009e"/><ellipse cx="3.842" cy="27.075" rx="2.987" ry="2.945" fill="#b4009e"/><ellipse cx="118.956" cy="24.749" rx="4.25" ry="4.191" fill="#b4009e"/><ellipse cx="110.327" cy="33.574" rx="3.755" ry="3.703" fill="#b4009e"/><ellipse cx="102.6" cy="41.595" rx="3.379" ry="3.332" fill="#b4009e"/><ellipse cx="95.49" cy="49.027" rx="2.987" ry="2.945" fill="#b4009e"/><ellipse cx="88.483" cy="56.332" rx="2.641" ry="2.604" fill="#b4009e"/><ellipse cx="81.945" cy="63.083" rx="2.287" ry="2.255" fill="#b4009e"/><ellipse cx="76.038" cy="69.216" rx="1.995" ry="1.968" fill="#b4009e"/><ellipse cx="70.715" cy="74.684" rx="1.663" ry="1.64" fill="#b4009e"/><ellipse cx="65.945" cy="79.674" rx="1.419" ry="1.399" fill="#b4009e"/><ellipse cx="61.809" cy="83.913" rx="1.197" ry="1.181" fill="#b4009e"/><ellipse cx="57.822" cy="88.139" rx="0.96" ry="0.947" fill="#b4009e"/><ellipse cx="54.602" cy="91.498" rx="0.764" ry="0.754" fill="#b4009e"/><ellipse cx="103.242" cy="20.336" rx="4.25" ry="4.191" fill="#b4009e"/><ellipse cx="94.614" cy="29.161" rx="3.755" ry="3.703" fill="#b4009e"/><ellipse cx="86.887" cy="37.182" rx="3.379" ry="3.332" fill="#b4009e"/><ellipse cx="79.777" cy="44.614" rx="2.987" ry="2.945" fill="#b4009e"/><ellipse cx="72.77" cy="51.919" rx="2.641" ry="2.604" fill="#b4009e"/><ellipse cx="66.231" cy="58.67" rx="2.287" ry="2.255" fill="#b4009e"/><ellipse cx="60.325" cy="64.803" rx="1.995" ry="1.968" fill="#b4009e"/><ellipse cx="55.002" cy="70.27" rx="1.663" ry="1.64" fill="#b4009e"/><ellipse cx="50.232" cy="75.261" rx="1.419" ry="1.399" fill="#b4009e"/><ellipse cx="46.096" cy="79.5" rx="1.197" ry="1.181" fill="#b4009e"/><ellipse cx="42.109" cy="83.726" rx="0.96" ry="0.947" fill="#b4009e"/><ellipse cx="38.889" cy="87.085" rx="0.764" ry="0.754" fill="#b4009e"/><ellipse cx="87.706" cy="17.147" rx="4.25" ry="4.191" fill="#b4009e"/><ellipse cx="79.078" cy="25.972" rx="3.755" ry="3.703" fill="#b4009e"/><ellipse cx="71.351" cy="33.993" rx="3.379" ry="3.332" fill="#b4009e"/><ellipse cx="64.241" cy="41.425" rx="2.987" ry="2.945" fill="#b4009e"/><ellipse cx="57.233" cy="48.73" rx="2.641" ry="2.604" fill="#b4009e"/><ellipse cx="50.695" cy="55.481" rx="2.287" ry="2.255" fill="#b4009e"/><ellipse cx="44.788" cy="61.614" rx="1.995" ry="1.968" fill="#b4009e"/><ellipse cx="39.466" cy="67.082" rx="1.663" ry="1.64" fill="#b4009e"/><ellipse cx="34.696" cy="72.072" rx="1.419" ry="1.399" fill="#b4009e"/><ellipse cx="30.56" cy="76.311" rx="1.197" ry="1.181" fill="#b4009e"/><ellipse cx="26.573" cy="80.537" rx="0.96" ry="0.947" fill="#b4009e"/><ellipse cx="23.353" cy="83.896" rx="0.764" ry="0.754" fill="#b4009e"/><ellipse cx="72.922" cy="13.377" rx="4.25" ry="4.191" fill="#b4009e"/><ellipse cx="64.294" cy="22.203" rx="3.755" ry="3.703" fill="#b4009e"/><ellipse cx="56.567" cy="30.224" rx="3.379" ry="3.332" fill="#b4009e"/><ellipse cx="49.457" cy="37.656" rx="2.987" ry="2.945" fill="#b4009e"/><ellipse cx="42.45" cy="44.96" rx="2.641" ry="2.604" fill="#b4009e"/><ellipse cx="35.911" cy="51.712" rx="2.287" ry="2.255" fill="#b4009e"/><ellipse cx="30.004" cy="57.844" rx="1.995" ry="1.968" fill="#b4009e"/><ellipse cx="24.682" cy="63.312" rx="1.663" ry="1.64" fill="#b4009e"/><ellipse cx="19.912" cy="68.302" rx="1.419" ry="1.399" fill="#b4009e"/><ellipse cx="15.776" cy="72.541" rx="1.197" ry="1.181" fill="#b4009e"/><ellipse cx="11.789" cy="76.767" rx="0.96" ry="0.947" fill="#b4009e"/><ellipse cx="8.569" cy="80.127" rx="0.764" ry="0.754" fill="#b4009e"/><ellipse cx="57.798" cy="9.706" rx="4.25" ry="4.191" fill="#b4009e"/><ellipse cx="49.169" cy="18.531" rx="3.755" ry="3.703" fill="#b4009e"/><ellipse cx="41.443" cy="26.553" rx="3.379" ry="3.332" fill="#b4009e"/><ellipse cx="34.333" cy="33.984" rx="2.987" ry="2.945" fill="#b4009e"/><ellipse cx="27.325" cy="41.289" rx="2.641" ry="2.604" fill="#b4009e"/><ellipse cx="20.787" cy="48.04" rx="2.287" ry="2.255" fill="#b4009e"/><ellipse cx="14.88" cy="54.173" rx="1.995" ry="1.968" fill="#b4009e"/><ellipse cx="9.557" cy="59.641" rx="1.663" ry="1.64" fill="#b4009e"/><ellipse cx="4.788" cy="64.631" rx="1.419" ry="1.399" fill="#b4009e"/><ellipse cx="0.652" cy="68.87" rx="1.197" ry="1.181" fill="#b4009e"/><ellipse cx="42.503" cy="6.083" rx="4.25" ry="4.191" fill="#b4009e"/><ellipse cx="33.875" cy="14.909" rx="3.755" ry="3.703" fill="#b4009e"/><ellipse cx="26.148" cy="22.93" rx="3.379" ry="3.332" fill="#b4009e"/><ellipse cx="19.038" cy="30.362" rx="2.987" ry="2.945" fill="#b4009e"/><ellipse cx="12.03" cy="37.666" rx="2.641" ry="2.604" fill="#b4009e"/><ellipse cx="5.492" cy="44.418" rx="2.287" ry="2.255" fill="#b4009e"/><ellipse cx="-0.415" cy="50.55" rx="1.995" ry="1.968" fill="#b4009e"/></g><polyline points="2290 0 2500 0 2500 250 0 250 0 0 2290 0" fill="#512bd4"/><path d="M168.879,117.623a1.314,1.314,0,0,0,1.229.907l2.757-.086A1.419,1.419,0,0,0,173.991,117l.155-3.4a1.966,1.966,0,0,1,1.365-2.067c.441-.4,1.086-.588,1.528-.994a2.36,2.36,0,0,1,2.317.317l3.081,2.058a1.6,1.6,0,0,0,1.49-.146l2.009-2.249a1.481,1.481,0,0,0-.345-1.72l-2.419-2.663a1.736,1.736,0,0,1-.327-2.143l-.2-.222a2.31,2.31,0,0,0,.7-1.457c.039-.851.5-1.682,1.99-1.825l3.2-.5a1.68,1.68,0,0,0,1.124-1.437l-.286-2.994a1.04,1.04,0,0,0-1.228-.907l-3.382-.155a2.021,2.021,0,0,1-2.056-1.37c-.4-.444-.586-1.092-.988-1.535a3.426,3.426,0,0,1,.115-2.549l2.029-2.675a1.542,1.542,0,0,0-.124-1.923l-2.257-1.591a1.283,1.283,0,0,0-1.691-.078l-2.451,2.656a2.156,2.156,0,0,1-2.354.533,6.477,6.477,0,0,0-1.673-.5l-.2-.222a2.232,2.232,0,0,1-1.613-1.775l-.468-3.641a1.314,1.314,0,0,0-1.228-.907l-2.982.29a1.045,1.045,0,0,0-.9,1.236l-.378,3.6c-.057,1.273-.5,1.679-1.144,1.863-.442.406-1.086.589-1.529,1a2.215,2.215,0,0,1-2.535-.117l-2.863-2.258a1.641,1.641,0,0,0-1.71.345l-2.011,2.253a1.887,1.887,0,0,0,.347,1.718l2.419,2.663c.808.888.99,1.536.325,2.145-.018.425-.26,1.053-.3,1.9-.242.626-.481,1.254-1.97,1.4l-3.42.7a1.326,1.326,0,0,0-.9,1.236l.288,2.993a1.352,1.352,0,0,0,1.008,1.11l3.6-.048c1.268.057,1.67.5,1.854,1.147a18.992,18.992,0,0,1,.969,1.96,1.912,1.912,0,0,1,.1,2.347l-2.25,2.879a1.659,1.659,0,0,0,.345,1.717l2.037,1.8a1.283,1.283,0,0,0,1.691.077l2.452-2.655a2.145,2.145,0,0,1,2.353-.532l1.875.724c.845.039,1.248.484,1.614,1.776l.689,3.435m8.3-19.418a7.468,7.468,0,0,1-6.712,7.784,6.92,6.92,0,0,1-7.74-6.738,7.131,7.131,0,0,1,6.49-7.58,7.206,7.206,0,0,1,7.962,6.534" fill="#5c3bde"/><path d="M291.171,102.766a.993.993,0,0,0,.786-1.612L220.531,11.58a1.506,1.506,0,0,0-1.131-.6c-.7.028-2.4.064-2.4.064l.771,88.917A2.015,2.015,0,0,0,219.765,102ZM266.058,90l-33.133-.355A.936.936,0,0,1,232,88.7l.438-40.817a.445.445,0,0,1,.843-.193l33.142,41.563A.461.461,0,0,1,266.058,90Z" fill="#4325c3"/><path d="M288.457,102.766a.993.993,0,0,0,.787-1.612L217.817,11.58c-.662-.846-1.806-.591-1.817.417l-.943,87.966A2.016,2.016,0,0,0,217.051,102ZM263.058,90l-33.133-.355A.936.936,0,0,1,229,88.7l.438-40.817a.445.445,0,0,1,.843-.193l33.142,41.563A.461.461,0,0,1,263.058,90Z" fill="#5c3bde"/><path d="M428.8,184.228l-36.487.171c-13.135-5.967-21.791-18.338-21.858-32.609-.069-14.937,9.5-28.027,23.259-33.8l-.174-37.18,32.713-.153.174,37.18c14.135,5.64,23.854,18.641,23.924,33.577C450.417,165.687,441.505,178.14,428.8,184.228Z" fill="#5c3bde"/><path d="M393.558,85.153l-.019-3.909,32.713-.153L426.271,85Z" fill="#4325c3"/><path d="M393.713,118.383,393.665,108l32.713-.153.048,10.383c14.135,5.64,23.854,18.64,23.924,33.577.067,14.27-8.846,26.724-21.551,32.812l-36.487.17c-13.135-5.967-21.791-18.338-21.858-32.608C370.385,137.244,379.958,124.153,393.713,118.383Z" fill="#4325c3"/><path d="M386.687,122l46.95-.22c10.125,6.656,16.656,17.587,16.713,29.819.067,14.27-8.846,26.724-21.551,32.812l-36.487.17c-13.135-5.967-21.791-18.338-21.858-32.608C370.4,139.741,376.81,128.75,386.687,122Z" fill="#4325c3"/><path d="M393.418,72.57l34.277-.16a4.324,4.324,0,0,1,4.386,4.095l0,.322c.01,2.225-2,3.814-4.349,3.825l-1.012,0-.33,0h0l-27.9.13-4.037.019-1,0c-2.684.013-4.374-1.559-4.385-3.784v-.322A4.118,4.118,0,0,1,393.418,72.57Z" fill="#5c3bde"/><path d="M428.8,184.228l-36.487.171c-13.135-5.967-21.791-18.338-21.858-32.609a33.893,33.893,0,0,1,6.105-20.048l67.5-.316a36.52,36.52,0,0,1,6.291,19.99C450.417,165.687,441.505,178.14,428.8,184.228Z" fill="#4325c3"/><circle cx="417" cy="167" r="4" fill="#5c3bde"/><circle cx="410" cy="121" r="3" fill="#5c3bde"/><circle cx="404" cy="135" r="6" fill="#5c3bde"/><path d="M1260.006,110.847V65.732c0-1.633-1.485-2.793-3.576-2.793h-14.341c-2.08,0-3.575,1.16-3.575,2.793-.293,37.342-.293,45.115-.293,45.115,0,1.626,1.788,3.031,3.868,3.031h14.341A3.3,3.3,0,0,0,1260.006,110.847Z" fill="#5937db"/><path d="M1238.817,64.564a1.708,1.708,0,0,0-.3,1.168c-.293,37.342-.293,45.115-.293,45.115.293-37.341.293-45.115.293-45.115A1.708,1.708,0,0,1,1238.817,64.564Zm-.6,46.283h0c0,1.626,1.788,3.031,3.868,3.031h0C1240.009,113.878,1238.221,112.473,1238.221,110.847Z" fill="#2b6aa8"/><path d="M1244.776,62.939h-2.687a3.831,3.831,0,0,0-3.272,1.625,1.708,1.708,0,0,0-.3,1.168c-.293,37.342-.293,45.115-.293,45.115h0c0,1.626,1.788,3.031,3.868,3.031h2.687Z" fill="#4325c3"/><path d="M1234.757,110.847V81.515c0-1.634-1.485-2.794-3.575-2.794h-14.341c-2.081,0-3.576,1.16-3.576,2.794,0,13.486-.292,29.332-.292,29.332,0,1.626,1.787,3.031,3.868,3.031h14.341A3.3,3.3,0,0,0,1234.757,110.847Z" fill="#5937db"/><path d="M1219.527,78.721h-2.686a3.833,3.833,0,0,0-3.273,1.626,1.705,1.705,0,0,0-.3,1.168c0,13.157-.292,29.332-.292,29.332h0c0,1.626,1.787,3.031,3.868,3.031h2.686Z" fill="#4325c3"/><path d="M1284.789,110.847V58.977c0-1.649-1.494-3.054-3.605-3.054h-14.311c-2.09,0-3.585,1.405-3.585,2.817v52.107a3.306,3.306,0,0,0,3.585,3.031h14.311C1283.3,113.878,1284.789,112.473,1284.789,110.847Z" fill="#5937db"/><path d="M1263.288,110.847h0a3.306,3.306,0,0,0,3.585,3.031h0A3.306,3.306,0,0,1,1263.288,110.847Z" fill="#2b6aa8"/><path d="M1269.549,55.923h-2.676a3.308,3.308,0,0,0-3.585,3.054v51.87a3.306,3.306,0,0,0,3.585,3.031h2.676Z" fill="#4325c3"/><path d="M1310.432,110.847c.3-57.164.3-64.938.3-64.938,0-1.633-1.8-2.8-3.878-2.8h-14.321c-2.081,0-3.576,1.168-3.576,2.8v64.938a3.3,3.3,0,0,0,3.576,3.031h14.321A3.3,3.3,0,0,0,1310.432,110.847Z" fill="#5937db"/><path d="M1288.96,110.847h0a3.3,3.3,0,0,0,3.576,3.031h0A3.3,3.3,0,0,1,1288.96,110.847Z" fill="#2b6aa8"/><path d="M1295.222,43.108h-2.686c-2.081,0-3.576,1.168-3.576,2.8v64.938a3.3,3.3,0,0,0,3.576,3.031h2.686Z" fill="#4325c3"/><polygon points="1274.619 44.504 1252.297 50.387 1251.918 49.302 1274.326 43.336 1301.406 27.157 1301.406 28.711 1274.619 44.504" fill="#4325c3" stroke="#4325c3" stroke-miterlimit="10" stroke-width="2"/><polygon points="1222.513 68.666 1221.591 67.811 1247.659 50.652 1248.581 51.507 1222.513 68.666" fill="#4325c3" stroke="#4325c3" stroke-miterlimit="10" stroke-width="2"/><circle cx="1222.893" cy="67.579" r="4.397" fill="#5937db"/><circle cx="1250.101" cy="51.255" r="4.397" fill="#5937db"/><circle cx="1274.199" cy="44.259" r="4.397" fill="#5937db"/><circle cx="1299.852" cy="29.489" r="4.397" fill="#5937db"/><path d="M1668.735,170.92H1655.67V101.567A3.573,3.573,0,0,0,1652.092,98H1548.456a3.573,3.573,0,0,0-3.578,3.567V170.92h-14.11v2.04h-.033a.147.147,0,0,0,.033.068v.952h2.157c2.239.578,6.661,1.158,15.26,1.02h106.009c6.715.138,10.19-.442,11.958-1.02h2.583Z" fill="#4325c3"/><rect x="1549.582" y="103.609" width="100.339" height="62.212" fill="#5937db"/><path d="M1566.992,133.672v-.865l19.242-10.52v2.707l-14.988,8.145v.089l14.988,7.191v2.73Z" fill="#4325c3"/><path d="M1594.263,151.582h-2.775l15.762-37.107h2.843Z" fill="#4325c3"/><path d="M1615.665,143.149v-2.73l15.034-7.168v-.112l-15.034-8.145v-2.707l19.242,10.52v.865Z" fill="#4325c3"/><path d="M1389.993,171.052a15.017,15.017,0,0,1-6.672-1.29s-.8-.454-1.288-.693c-6.982-3.419-14.3-4.54-18.288-3.625l-.033-4.893,11.107-.074,7.552-.051,22.212-.148c.039,5.783-8.814,10.735-14.59,10.774" fill="#5c3bde"/><polygon points="1390.812 160.371 1390.853 166.597 1404.583 160.279 1390.812 160.371" fill="#4325c3"/><path d="M1382.314,151.975a14.947,14.947,0,0,1,7.561-2.414c4.431-.154,14.67,4.934,14.708,10.718l-22.212.148-7.552.05-11.107.074-.032-4.892c4,.862,11.994-.08,18.634-3.683" fill="#5c3bde"/><polygon points="1390.812 160.371 1390.77 154.144 1404.583 160.279 1390.812 160.371" fill="#333"/><path d="M1288.305,177.958a3.506,3.506,0,0,1,3.531-3.583c31.54-.211,46.16-6.536,58.123-11.062l.05,7.562c-11.963,4.526-27.473,10.412-58.125,10.616a3.825,3.825,0,0,1-3.579-3.533" fill="#4325c3"/><path d="M1349.926,158.419h0l-.053-8.008c.891.441,2.047.9,2.94,1.343,7.57,3.062,13.541,5.222,21.538,5.168-7.107.048-12.427,1.863-18.191,3.68-2.227-.875-4.006-1.309-6.234-2.183" fill="#5c3bde"/><path d="M1291.661,148.131a3.825,3.825,0,0,1-3.578-3.533,3.507,3.507,0,0,1,3.531-3.583c30.652-.2,46.235,5.029,58.26,9.4l.054,8.006c-12.028-4.813-26.726-10.5-58.267-10.288" fill="#4325c3"/><path d="M1374.351,156.922a3.824,3.824,0,0,1,3.577,3.534,3.506,3.506,0,0,1-3.53,3.583,47.466,47.466,0,0,1-18.237-3.438c5.764-1.816,11.082-3.632,18.19-3.679" fill="#5c3bde"/><path d="M1388.074,149.714l.065,9.784-8,.054s-6.854-1.841-16.454-3.987c4.738,1.059,15.341-1.75,18.382-3.635A14.713,14.713,0,0,1,1388.074,149.714Z" fill="#4325c3"/><polygon points="1390.812 160.371 1390.77 154.144 1404.583 160.279 1390.812 160.371" fill="#4325c3"/><path d="M1384.55,154.186a6.227,6.227,0,0,0,.083,12.453,6.227,6.227,0,0,0-.083-12.453" fill="#5c3bde"/><path d="M1352.666,169.521q-1.328.677-2.657,1.354l-.05-7.563c.442-.447,1.331-.453,1.772-.9l10.686,3.487c-3.1.911-6.207,2.266-9.751,3.624" fill="#5c3bde"/><path d="M1363.283,162.779a33.265,33.265,0,0,1-7.122-2.178s3.115.87,7.122,2.178" fill="#505050"/><path d="M1363.283,162.779c1.78.433,5.336,2,7.611,2.726a34.829,34.829,0,0,0-8.479.392l-10.684-3.487a19.1,19.1,0,0,1,4.43-1.809c1.977.574,4.317,1.218,7.122,2.178" fill="#4325c3"/><path d="M301.908,201.789a16.378,16.378,0,0,0-1.74.1,26.463,26.463,0,0,0-45-26.444,34.246,34.246,0,0,0-67.944,6.109c0,.294.015.584.022.877A26.693,26.693,0,1,0,180.479,235l120.529-.214c9.34,0,16.727-8.026,16.727-16.911A15.867,15.867,0,0,0,301.908,201.789Z" fill="#5c3bde"/><path d="M597.9,73.864a16.314,16.314,0,0,1,1.735.1,26.4,26.4,0,0,1,44.9-26.384,34.169,34.169,0,0,1,67.791,6.095c0,.293-.015.583-.023.875A26.633,26.633,0,1,1,719.055,107L598.8,106.786c-9.319,0-16.689-8.007-16.689-16.872A15.831,15.831,0,0,1,597.9,73.864Z" fill="none" stroke="#5c3bde" stroke-miterlimit="10" stroke-width="5.833"/><circle cx="1391.132" cy="72.064" r="43.603" fill="#4325c3"/><path d="M1422.112,102.745a43.6,43.6,0,0,0-61.661-61.661Z" fill="#4325c3"/><circle cx="1391.132" cy="72.064" r="37.935" fill="#5937db"/><path d="M1369.347,71.731a21.787,21.787,0,0,1,43.569,0H1424.9a33.769,33.769,0,0,0-67.534,0Z" fill="#4325c3" stroke="#4325c3" stroke-miterlimit="10" stroke-width="2"/><path d="M1364.861,50.89a33.59,33.59,0,0,0-7.5,20.841h11.982a21.678,21.678,0,0,1,4.834-13.329Z" fill="none"/><path d="M1410.562,62.22l10.684-5.412a33.759,33.759,0,0,0-63.881,14.923h11.982a21.781,21.781,0,0,1,41.215-9.511Z" fill="#5937db"/><path d="M1412.805,49.64l-.856-.817-19.16,18.32a4.939,4.939,0,1,0,2.852,2.662Z" fill="#4325c3"/><path d="M936.879,108.623a1.314,1.314,0,0,0,1.229.907l2.757-.086A1.419,1.419,0,0,0,941.991,108l.155-3.4a1.966,1.966,0,0,1,1.365-2.067c.441-.4,1.086-.588,1.528-.994a2.36,2.36,0,0,1,2.317.317l3.081,2.058a1.6,1.6,0,0,0,1.49-.146l2.009-2.249a1.481,1.481,0,0,0-.345-1.72l-2.419-2.663A1.736,1.736,0,0,1,950.845,95l-.2-.222a2.31,2.31,0,0,0,.7-1.457c.039-.851.5-1.682,1.99-1.825l3.2-.5a1.68,1.68,0,0,0,1.124-1.437l-.286-2.994a1.04,1.04,0,0,0-1.228-.907l-3.382-.155a2.021,2.021,0,0,1-2.056-1.37c-.4-.444-.586-1.092-.988-1.535a3.426,3.426,0,0,1,.115-2.549l2.029-2.675a1.542,1.542,0,0,0-.124-1.923l-2.257-1.591a1.283,1.283,0,0,0-1.691-.078l-2.451,2.656a2.156,2.156,0,0,1-2.354.533,6.477,6.477,0,0,0-1.673-.5l-.2-.222a2.232,2.232,0,0,1-1.613-1.775l-.468-3.641a1.314,1.314,0,0,0-1.228-.907l-2.982.29a1.045,1.045,0,0,0-.9,1.236l-.378,3.6c-.057,1.273-.5,1.679-1.144,1.863-.442.406-1.086.589-1.529,1a2.215,2.215,0,0,1-2.535-.117l-2.863-2.258a1.641,1.641,0,0,0-1.71.345l-2.011,2.253a1.887,1.887,0,0,0,.347,1.718l2.419,2.663c.808.888.99,1.536.325,2.145-.018.425-.26,1.053-.3,1.9-.242.626-.481,1.254-1.97,1.4l-3.42.7a1.326,1.326,0,0,0-.905,1.236l.288,2.993A1.352,1.352,0,0,0,919.543,94l3.6-.048c1.268.057,1.67.5,1.854,1.147a18.992,18.992,0,0,1,.969,1.96,1.912,1.912,0,0,1,.1,2.347l-2.25,2.879a1.659,1.659,0,0,0,.345,1.717l2.037,1.8a1.283,1.283,0,0,0,1.691.077l2.452-2.655a2.145,2.145,0,0,1,2.353-.532l1.875.724c.845.039,1.248.484,1.614,1.776l.689,3.435m8.3-19.418a7.468,7.468,0,0,1-6.712,7.784,6.92,6.92,0,0,1-7.74-6.738,7.131,7.131,0,0,1,6.49-7.58,7.206,7.206,0,0,1,7.962,6.534" fill="#5937db"/><circle cx="1971.659" cy="71.701" r="38.282" fill="#5937db"/><path d="M1959.535,79.6l-16.055-7.323V69.49l16.055-7.683V65.9l-11.449,4.9v.1l11.449,4.607Z" fill="#4325c3"/><path d="M1979.955,56.031l-12.015,28.74h-4.847l11.963-28.74Z" fill="#4325c3"/><path d="M2000.032,72.052l-16.055,7.322V75.3l11.482-4.59v-.068l-11.482-4.916V61.635l16.055,7.632Z" fill="#4325c3"/><path d="M1244.879,176.623a1.314,1.314,0,0,0,1.229.907l2.757-.086a1.419,1.419,0,0,0,1.126-1.441l.155-3.4a1.966,1.966,0,0,1,1.365-2.067c.441-.4,1.086-.588,1.528-.994a2.36,2.36,0,0,1,2.317.317l3.081,2.058a1.6,1.6,0,0,0,1.49-.146l2.009-2.249a1.481,1.481,0,0,0-.345-1.72l-2.419-2.663a1.736,1.736,0,0,1-.327-2.143l-.2-.222a2.31,2.31,0,0,0,.7-1.457c.039-.851.5-1.682,1.99-1.825l3.2-.5a1.68,1.68,0,0,0,1.124-1.437l-.286-2.994a1.04,1.04,0,0,0-1.228-.907l-3.382-.155a2.021,2.021,0,0,1-2.056-1.37c-.4-.444-.586-1.092-.988-1.535a3.426,3.426,0,0,1,.115-2.549l2.029-2.675a1.542,1.542,0,0,0-.124-1.923l-2.257-1.591a1.283,1.283,0,0,0-1.691-.078l-2.451,2.656a2.156,2.156,0,0,1-2.354.533,6.477,6.477,0,0,0-1.673-.5l-.2-.222a2.232,2.232,0,0,1-1.613-1.775l-.468-3.641a1.314,1.314,0,0,0-1.228-.907l-2.982.29a1.045,1.045,0,0,0-.9,1.236l-.378,3.6c-.057,1.273-.5,1.679-1.144,1.863-.442.406-1.086.589-1.529,1a2.215,2.215,0,0,1-2.535-.117l-2.863-2.258a1.641,1.641,0,0,0-1.71.345l-2.011,2.253a1.887,1.887,0,0,0,.347,1.718l2.419,2.663c.808.888.99,1.536.325,2.145-.018.425-.26,1.053-.3,1.9-.242.626-.481,1.254-1.97,1.4l-3.42.7a1.326,1.326,0,0,0-.9,1.236l.288,2.993a1.352,1.352,0,0,0,1.008,1.11l3.6-.048c1.268.057,1.67.5,1.854,1.147a18.992,18.992,0,0,1,.969,1.96,1.912,1.912,0,0,1,.1,2.347l-2.25,2.879a1.659,1.659,0,0,0,.345,1.717l2.037,1.8a1.283,1.283,0,0,0,1.691.077l2.452-2.655a2.145,2.145,0,0,1,2.353-.532l1.875.724c.845.039,1.248.484,1.614,1.776l.689,3.435m8.3-19.418a7.468,7.468,0,0,1-6.712,7.784,6.92,6.92,0,0,1-7.74-6.738,7.131,7.131,0,0,1,6.49-7.58,7.206,7.206,0,0,1,7.962,6.534" fill="#5937db"/><path d="M1931.623,179.441a1.214,1.214,0,0,0,.072-1.6l-2.123-2.338a1.409,1.409,0,0,0-1.588-.072l-3.615,2.4c-.772-.517-1.7-1.2-2.47-1.714l1.161-4.43a1.092,1.092,0,0,0-.579-1.306l-2.65-1.24a1,1,0,0,0-1.454.413l-2.567,3.885a9.232,9.232,0,0,0-2.832-.768l-.431-4.5a1.091,1.091,0,0,0-1.062-1.169l-3.028.022c-.468-.18-.968.277-1.148.749l-1.008,4.6a9.325,9.325,0,0,0-2.89.508l-2.2-4.1a1.594,1.594,0,0,0-1.409-.544l-2.921,1.147a1.09,1.09,0,0,0-.693,1.249l.915,4.363c-.818.443-1.648,1.2-2.464,1.649l-3.532-2.881a1.026,1.026,0,0,0-1.438.094l-2.162,1.983a1.038,1.038,0,0,0-.225,1.431l2.534,3.8a13.086,13.086,0,0,0-1.874,2.636l-4.392-1.48a1.388,1.388,0,0,0-1.466.733l-1.238,2.667a1.385,1.385,0,0,0,.562,1.625l3.713,2.409c-.361.945-.4,1.9-.768,2.847l-4.479.437a1.394,1.394,0,0,0-1.013,1.234l-.131,2.875a1.39,1.39,0,0,0,.895,1.321l4.588.689a18.9,18.9,0,0,0,.489,3.225l-4.084,2.214a1.011,1.011,0,0,0-.543,1.417l.99,2.766a1.488,1.488,0,0,0,1.393.863l4.51-1.076q.662,1.231,1.321,2.461l-2.871,3.553a1.5,1.5,0,0,0,.094,1.444l2.122,2.338a1.2,1.2,0,0,0,1.423.225l3.782-2.55c.772.517,1.7,1.2,2.47,1.713l-1.158,4.43a1.088,1.088,0,0,0,.577,1.307l2.8,1.409a1.36,1.36,0,0,0,1.453-.416l2.4-3.731c.954.042,1.894.405,2.848.449l.264,4.653a1.386,1.386,0,0,0,1.228,1.016l3.012.3a1.924,1.924,0,0,0,1.164-1.068l.842-4.442c1.12-.111,2.089-.387,3.208-.5l2.051,3.934a1.09,1.09,0,0,0,1.408.545l2.753-1a1.3,1.3,0,0,0,.861-1.4l-.915-4.363a11.416,11.416,0,0,0,2.464-1.65l3.534,2.883a1.06,1.06,0,0,0,1.589.072l2.162-1.983a1.072,1.072,0,0,0,.073-1.6l-2.534-3.8a8,8,0,0,0,1.873-2.634l4.393,1.479a1.079,1.079,0,0,0,1.3-.58l1.4-2.818a1.617,1.617,0,0,0-.41-1.46l-3.865-2.576a8.2,8.2,0,0,0,.6-2.695l4.645-.59c.484-.137.983-.595,1-.915l.146-3.194a1.089,1.089,0,0,0-1.061-1.169l-4.421-.84a17.565,17.565,0,0,0-.337-3.058l3.764-2.23a1.169,1.169,0,0,0,.709-1.567l-.988-2.767a1,1,0,0,0-1.407-.545l-4.5.758q-.661-1.232-1.322-2.461l2.7-3.4m-19.612,14.317a4.653,4.653,0,0,1-.307,6.708,4.552,4.552,0,0,1-6.51-.455,4.627,4.627,0,1,1,6.817-6.253" fill="#5937db"/><path d="M2115.8,126.228l-36.487.171c-13.135-5.967-21.791-18.338-21.858-32.609-.069-14.937,9.5-28.027,23.259-33.8l-.174-37.18,32.713-.153.174,37.18c14.135,5.64,23.854,18.641,23.924,33.577C2137.417,107.687,2128.505,120.14,2115.8,126.228Z" fill="#5937db"/><path d="M2080.558,27.153l-.019-3.909,32.713-.153.019,3.909Z" fill="#4325c3"/><path d="M2080.713,60.383,2080.665,50l32.713-.153.048,10.383c14.135,5.64,23.854,18.64,23.924,33.577.067,14.27-8.846,26.724-21.551,32.812l-36.487.17c-13.135-5.967-21.791-18.338-21.858-32.608C2057.385,79.244,2066.958,66.153,2080.713,60.383Z" fill="#4325c3"/><path d="M2073.687,64l46.95-.22c10.125,6.656,16.656,17.587,16.713,29.819.067,14.27-8.846,26.724-21.551,32.812l-36.487.17c-13.135-5.967-21.791-18.338-21.858-32.608C2057.4,81.741,2063.81,70.75,2073.687,64Z" fill="#4325c3"/><path d="M2080.418,14.57l34.277-.16a4.324,4.324,0,0,1,4.386,4.095l0,.322c.01,2.225-1.995,3.814-4.349,3.825l-1.012,0-.33,0h0l-27.9.13-4.037.019-1,.005c-2.684.013-4.374-1.559-4.385-3.784v-.322A4.118,4.118,0,0,1,2080.418,14.57Z" fill="#5937db"/><path d="M2115.8,126.228l-36.487.171c-13.135-5.967-21.791-18.338-21.858-32.609a33.893,33.893,0,0,1,6.105-20.048l67.5-.316a36.52,36.52,0,0,1,6.291,19.99C2137.417,107.687,2128.505,120.14,2115.8,126.228Z" fill="#4325c3"/><circle cx="2104" cy="109" r="4" fill="#512bd4"/><circle cx="2097" cy="63" r="3" fill="#512bd4"/><circle cx="2091" cy="77" r="6" fill="#512bd4"/><path d="M2424,117h-13V47.567A3.567,3.567,0,0,0,2407.433,44H2303.577A3.578,3.578,0,0,0,2300,47.577V117h-14v2h-.033a.132.132,0,0,0,.033.067V120h2.114c2.194.567,6.528,1.135,14.957,1h103.9c6.582.135,9.988-.433,11.72-1H2424Z" fill="#4325c3"/><rect x="2305" y="50" width="101" height="62" fill="#5937db"/><path d="M2322,79.66v-.854l19-10.387v2.57l-15,8.151v.088l15,7.2v2.593Z" fill="#4325c3"/><path d="M2349.282,98h-2.767l15.717-37h2.834Z" fill="#4325c3"/><path d="M2371,89.018V86.4l15-7.151v-.112l-15-8.126V68.419l19,10.387v.854Z" fill="#4325c3"/><path d="M1784.611,56.3l-4.574-4.338a.413.413,0,0,0-.445-.081l-11.986,5.1a.3.3,0,0,0-.172.329l-.028-.006.142,1.959,1.718-.549a22.33,22.33,0,0,0,6.5,2.935c4.888,1.228,10.785-.095,10.785-.095Z" fill="#4325c3"/><path d="M1811.544,40.167a20.465,20.465,0,0,1-6.277-.341c-2.363-.724-20.754-11.835-20.754-11.835s-5.3-1.462-11.6,3.241c-5.138,3.833-8,10.315-8.882,12.581a.362.362,0,0,0-.014.2l-.047.027.143,1.972,2.131-2.414,11.39-4.667a.5.5,0,0,1,.664.292l8.255,22.335s6.029-5.185,9.394-6.531,11.535-4.481,11.535-4.481l7.352-.868Z" fill="#4325c3"/><path d="M1811.687,42.138a20.471,20.471,0,0,1-6.278-.341c-2.362-.724-20.754-11.835-20.754-11.835s-5.3-1.462-11.6,3.241c-5.138,3.833-8,10.316-8.882,12.581a.378.378,0,0,0,.5.485l13.105-5.369a.5.5,0,0,1,.663.291l8.256,22.336s6.029-5.186,9.394-6.532,11.534-4.48,11.534-4.48l7.353-.869Z" fill="#5937db"/><path d="M1779.736,53.852l-11.987,5.1a.3.3,0,0,0-.075.513,23.784,23.784,0,0,0,8.236,4.155c4.889,1.228,10.786-.094,10.786-.094l-1.943-5.256-4.576-4.34A.408.408,0,0,0,1779.736,53.852Z" fill="#5937db"/><rect x="1787.612" y="43.709" width="11.892" height="10.298" rx="1.832" transform="translate(78.73 576.686) rotate(-18.669)" fill="#4325c3"/><rect x="1789.78" y="44.878" width="7.134" height="7.656" rx="0.438" transform="translate(78.768 576.61) rotate(-18.669)" fill="#5937db"/><path d="M1897.212,50.457a5.331,5.331,0,1,1,.184-7.538A5.331,5.331,0,0,1,1897.212,50.457Z" fill="#512bd4"/><path d="M1893.393,37.8v-.028l-84.767,2.6a.932.932,0,0,0-.892.936l.064,12.528a1.357,1.357,0,0,0,1.3,1.348l83.431,3.109a10.278,10.278,0,1,0,.859-20.5Zm3.829,14.263a5.331,5.331,0,1,1,.183-7.538A5.333,5.333,0,0,1,1897.222,52.064Z" fill="#4325c3"/><rect x="1016" y="137" width="96" height="71" rx="3.927" fill="#4325c3"/><path d="M1108.077,137h-88.154a3.924,3.924,0,0,0-3.923,3.923V146h96v-5.077A3.924,3.924,0,0,0,1108.077,137Z" fill="#5937db"/><rect x="1030" y="155" width="67" height="3" fill="#5937db"/><rect x="1030" y="164" width="67" height="3" fill="#5937db"/><rect x="1038" y="173" width="51" height="3" fill="#5937db"/><rect x="1046" y="182" width="33" height="3" fill="#5937db"/><rect x="1046" y="191" width="52" height="3" fill="#5937db"/><path d="M2456.879,93.623a1.314,1.314,0,0,0,1.229.907l2.757-.086A1.419,1.419,0,0,0,2461.991,93l.155-3.4a1.966,1.966,0,0,1,1.365-2.067c.441-.4,1.086-.588,1.528-.994a2.36,2.36,0,0,1,2.317.317l3.081,2.058a1.6,1.6,0,0,0,1.49-.146l2.009-2.249a1.481,1.481,0,0,0-.345-1.72l-2.419-2.663a1.736,1.736,0,0,1-.327-2.143l-.2-.222a2.31,2.31,0,0,0,.7-1.457c.039-.851.5-1.682,1.99-1.825l3.2-.5a1.68,1.68,0,0,0,1.124-1.437l-.286-2.994a1.04,1.04,0,0,0-1.228-.907l-3.382-.155a2.021,2.021,0,0,1-2.056-1.37c-.4-.444-.586-1.092-.988-1.535a3.426,3.426,0,0,1,.115-2.549l2.029-2.675a1.542,1.542,0,0,0-.124-1.923l-2.257-1.591a1.283,1.283,0,0,0-1.691-.078l-2.451,2.656a2.156,2.156,0,0,1-2.354.533,6.477,6.477,0,0,0-1.673-.5l-.2-.222a2.232,2.232,0,0,1-1.613-1.775l-.468-3.641a1.314,1.314,0,0,0-1.228-.907l-2.982.29a1.045,1.045,0,0,0-.9,1.236l-.378,3.6c-.057,1.273-.5,1.679-1.144,1.863-.442.406-1.086.589-1.529,1a2.215,2.215,0,0,1-2.535-.117l-2.863-2.258a1.641,1.641,0,0,0-1.71.345l-2.011,2.253a1.887,1.887,0,0,0,.347,1.718l2.419,2.663c.808.888.99,1.536.325,2.145-.018.425-.26,1.053-.3,1.9-.242.626-.481,1.254-1.97,1.4l-3.42.7a1.326,1.326,0,0,0-.905,1.236l.288,2.993a1.352,1.352,0,0,0,1.008,1.11l3.6-.048c1.268.057,1.67.5,1.854,1.147a18.992,18.992,0,0,1,.969,1.96,1.912,1.912,0,0,1,.1,2.347l-2.25,2.879a1.659,1.659,0,0,0,.345,1.717l2.037,1.8a1.283,1.283,0,0,0,1.691.077l2.452-2.655a2.145,2.145,0,0,1,2.353-.532l1.875.724c.845.039,1.248.484,1.614,1.776l.689,3.435m8.3-19.418a7.468,7.468,0,0,1-6.712,7.784,6.92,6.92,0,0,1-7.74-6.738,7.131,7.131,0,0,1,6.49-7.58,7.206,7.206,0,0,1,7.962,6.534" fill="#5937db"/><path d="M79.418,12.551,75,11.711a17.565,17.565,0,0,0-.337-3.058l3.763-2.23a1.168,1.168,0,0,0,.71-1.567l-.988-2.767a1,1,0,0,0-1.407-.545l-4.5.758Q71.581,1.071,70.92-.159L71.589-1H31.066A6.338,6.338,0,0,0,29.94.7L25.548-.782a1.387,1.387,0,0,0-1.466.733L22.844,2.618a1.383,1.383,0,0,0,.562,1.625L27.12,6.652c-.362.945-.406,1.9-.769,2.847l-4.479.437a1.394,1.394,0,0,0-1.013,1.234l-.131,2.875a1.39,1.39,0,0,0,.895,1.321l4.588.689A18.9,18.9,0,0,0,26.7,19.28l-4.084,2.214a1.011,1.011,0,0,0-.543,1.417l.99,2.766a1.49,1.49,0,0,0,1.393.864l4.51-1.077q.661,1.232,1.321,2.461l-2.871,3.553a1.5,1.5,0,0,0,.094,1.444l2.122,2.338a1.2,1.2,0,0,0,1.423.225l3.782-2.55c.772.516,1.7,1.2,2.47,1.713l-1.158,4.43a1.088,1.088,0,0,0,.577,1.307l2.8,1.409a1.36,1.36,0,0,0,1.453-.416l2.4-3.731c.954.042,1.894.405,2.848.449l.264,4.653a1.386,1.386,0,0,0,1.228,1.016l3.012.3A1.924,1.924,0,0,0,51.9,42.994l.842-4.442c1.12-.111,2.089-.387,3.208-.495L58,41.991a1.09,1.09,0,0,0,1.408.545l2.753-1a1.3,1.3,0,0,0,.861-1.4l-.915-4.363a11.392,11.392,0,0,0,2.464-1.65L68.1,37.009a1.06,1.06,0,0,0,1.589.072L71.854,35.1a1.072,1.072,0,0,0,.073-1.6l-2.534-3.8a7.988,7.988,0,0,0,1.873-2.635l4.393,1.48a1.079,1.079,0,0,0,1.3-.58l1.4-2.818a1.617,1.617,0,0,0-.41-1.46l-3.865-2.576a8.225,8.225,0,0,0,.6-2.695l4.645-.59c.484-.137.983-.595,1-.915l.146-3.194A1.089,1.089,0,0,0,79.418,12.551ZM53.7,17.466a4.552,4.552,0,0,1-6.51-.455,4.754,4.754,0,0,1,.141-6.558,4.737,4.737,0,0,1,6.676.3A4.653,4.653,0,0,1,53.7,17.466Z" fill="#5c3bde"/><path d="M87.655,250l-.107-65.468c-.049-3.655-3.7-6.579-8.162-6.532l-6.747.071c-4.458.048-8.033,3.049-7.984,6.7L64.761,250Z" fill="#5c3bde"/><circle cx="75.155" cy="127.5" r="49.491" fill="#4325c3"/><polygon points="64.612 185 83 185 83 206 64.75 206.25 64.612 185" fill="#4325c3"/><path d="M38.661,163.3a52.02,52.02,0,1,0-.874-73.562A51.86,51.86,0,0,0,38.661,163.3Zm4.465-4.574a45.628,45.628,0,1,1,64.523-.765A45.68,45.68,0,0,1,43.126,158.725Z" fill="#5c3bde"/><rect x="44" y="106" width="51" height="9" fill="#5c3bde"/><rect x="56" y="122" width="54" height="9" fill="#5c3bde"/><rect x="56" y="139" width="54" height="9" fill="#5c3bde"/><path d="M88,250l-.1-65.59c-.043-3.374-3.05-6.121-6.9-6.5L81.23,250Z" fill="#4325c3"/><path d="M768.25,250V202.318A10.319,10.319,0,0,0,757.932,192H666.568a10.319,10.319,0,0,0-10.318,10.318V250Z" fill="#4325c3"/><rect x="656.25" y="213" width="112" height="37" fill="#5c3bde"/><rect x="681.249" y="213" width="4.001" height="37" fill="#4325c3"/><rect x="745.25" y="201" width="11" height="6" fill="#5c3bde"/><rect x="727.25" y="201" width="11" height="6" fill="#5c3bde"/><path d="M2230.848,248.5V200.922a10.319,10.319,0,0,0-10.319-10.318h-90.976a10.318,10.318,0,0,0-10.318,10.318V248.5Z" fill="#4325c3"/><rect x="2119.235" y="211.28" width="111.613" height="37.22" fill="#5937db"/><rect x="2144.499" y="211.279" width="3.569" height="37.221" fill="#4325c3"/><rect x="2208.814" y="199.681" width="11.094" height="5.547" fill="#5937db"/><rect x="2190.66" y="199.681" width="11.094" height="5.547" fill="#5937db"/><path d="M851.917,187l7.2-.075c4.758-.05,8.572-3.213,8.52-7.064l-.138-83.5c-.053-3.852-3.952-6.934-8.709-6.884l-7.2.075c-4.758.05-8.572,3.213-8.52,7.064l.138,83.5C843.261,183.967,847.16,187.049,851.917,187Z" fill="#5937db"/><path d="M859.888,89.532c4.243.394,7.56,3.283,7.609,6.833l.138,83.5c.048,3.549-3.19,6.507-7.421,6.989" fill="#4325c3"/><path d="M843.371,118.791l-.3-22.171c0-.011,0-.023,0-.034l24.422-.256,0,.035.123,22.16Z" fill="#4325c3"/><path d="M843.072,96.586l16.9-.174.181,22.28-17.033.215L843.07,96.62C843.07,96.609,843.072,96.6,843.072,96.586Z" fill="#4325c3"/><path d="M818.547,0A51.814,51.814,0,1,0,891.37,0Z" fill="#4325c3"/><path d="M887.185,0c.241.226.488.442.726.675a47.994,47.994,0,1,1-67.868.8c.5-.509,1.006-1,1.519-1.479H812.35a54.709,54.709,0,1,0,84.081,0Z" fill="#5937db"/><path d="M849.957,6.9a14.194,14.194,0,0,0-5.838,12.486,14.192,14.192,0,0,0-13.749.963,1.057,1.057,0,1,0,1.175,1.758c5.643-3.774,11.442-1.033,12.972-.181a1.057,1.057,0,0,0,1.467.269c.015-.01.025-.025.039-.036s.033-.013.048-.024a1.043,1.043,0,0,0,.288-.3,1.055,1.055,0,0,0-.012-1.169c-.246-1.735-.721-8.13,4.828-12.042A1.057,1.057,0,0,0,849.957,6.9Z" fill="#5937db"/><path d="M852.637,62.506a1.543,1.543,0,0,1-.147.088,1.48,1.48,0,0,1-2-.615c-2.134-4.027-2.156-8.649-.064-13.366a23.218,23.218,0,0,1,7.21-9.031,1.48,1.48,0,1,1,1.72,2.409c-3.66,2.614-10.317,10.928-6.25,18.6A1.481,1.481,0,0,1,852.637,62.506Z" fill="#5937db"/><path d="M844.191,59.421a1.482,1.482,0,0,1-2.221-.689c-3.349-8.723,1.76-19.887,11.385-24.882a1.48,1.48,0,0,1,1.364,2.627c-8.194,4.253-12.763,13.958-9.986,21.194A1.48,1.48,0,0,1,844.191,59.421Z" fill="#5937db"/><path d="M846.455,37.256l-.052.034c-6.238,3.916-12.323,2.62-16.7-3.555a1.48,1.48,0,1,1,2.416-1.711c2.4,3.391,6.554,6.622,12.706,2.759a1.48,1.48,0,0,1,1.626,2.473Z" fill="#5937db"/><path d="M880.927,43.081a1.636,1.636,0,0,0,.135-.105,1.481,1.481,0,0,0,.145-2.088c-2.992-3.438-7.3-5.119-12.451-4.861a23.222,23.222,0,0,0-11.019,3.484,1.48,1.48,0,0,0,1.63,2.471c3.755-2.477,13.906-5.7,19.607.849A1.48,1.48,0,0,0,880.927,43.081Z" fill="#5937db"/><path d="M881.082,34.091a1.532,1.532,0,0,0,.262-.23,1.48,1.48,0,0,0-.108-2.09c-6.938-6.259-19.191-5.5-27.311,1.687a1.48,1.48,0,0,0,1.962,2.217c6.913-6.12,17.611-6.9,23.366-1.707A1.482,1.482,0,0,0,881.082,34.091Z" fill="#5937db"/><path d="M859.583,28.242l.05-.036c5.895-4.415,6.872-10.56,2.679-16.859a1.48,1.48,0,1,0-2.464,1.64c2.3,3.458,3.825,8.495-1.989,12.85a1.48,1.48,0,0,0,1.724,2.405Z" fill="#5937db"/><ellipse cx="845.925" cy="21.918" rx="7.929" ry="6.601" transform="translate(136.157 482.678) rotate(-34.475)" fill="#5937db"/><ellipse cx="856.722" cy="37.644" rx="14.8" ry="18.394" transform="matrix(0.824, -0.566, 0.566, 0.824, 129.152, 491.551)" fill="#5937db"/><path d="M1571.418,15.551l-4.421-.84a17.469,17.469,0,0,0-.337-3.058l3.763-2.23a1.168,1.168,0,0,0,.71-1.567l-.988-2.767a1,1,0,0,0-1.407-.545l-4.5.758q-.661-1.231-1.322-2.461L1565.178,0h-42.073l.709,1.062A13.086,13.086,0,0,0,1521.94,3.7l-4.392-1.48a1.387,1.387,0,0,0-1.466.733l-1.238,2.667a1.383,1.383,0,0,0,.562,1.625l3.714,2.409c-.362.945-.406,1.9-.769,2.847l-4.479.437a1.394,1.394,0,0,0-1.013,1.234l-.131,2.875a1.39,1.39,0,0,0,.895,1.321l4.588.689a18.9,18.9,0,0,0,.489,3.225l-4.084,2.214a1.011,1.011,0,0,0-.543,1.417l.99,2.766a1.49,1.49,0,0,0,1.393.864l4.51-1.077q.662,1.232,1.322,2.461l-2.872,3.553a1.5,1.5,0,0,0,.094,1.444l2.122,2.338a1.206,1.206,0,0,0,1.424.225l3.781-2.55c.772.516,1.7,1.2,2.47,1.713l-1.158,4.43a1.088,1.088,0,0,0,.577,1.307l2.8,1.409a1.36,1.36,0,0,0,1.453-.416l2.4-3.731c.954.042,1.894.405,2.848.449l.264,4.653a1.386,1.386,0,0,0,1.228,1.016l3.012.3a1.924,1.924,0,0,0,1.164-1.068l.842-4.442c1.12-.111,2.089-.387,3.208-.495L1550,44.991a1.09,1.09,0,0,0,1.408.545l2.753-1a1.3,1.3,0,0,0,.861-1.4l-.915-4.363a11.392,11.392,0,0,0,2.464-1.65l3.534,2.883a1.06,1.06,0,0,0,1.589.072l2.162-1.983a1.073,1.073,0,0,0,.073-1.6l-2.534-3.8a7.988,7.988,0,0,0,1.873-2.635l4.393,1.48a1.079,1.079,0,0,0,1.3-.58l1.4-2.818a1.617,1.617,0,0,0-.41-1.46l-3.865-2.576a8.225,8.225,0,0,0,.6-2.695l4.645-.59c.484-.137.983-.595,1-.915l.146-3.194A1.089,1.089,0,0,0,1571.418,15.551ZM1545.7,20.466a4.552,4.552,0,0,1-6.51-.455,4.627,4.627,0,1,1,6.817-6.253A4.653,4.653,0,0,1,1545.7,20.466Z" fill="#5937db"/><path d="M2019.006,232.847V187.732c0-1.633-1.485-2.793-3.576-2.793h-14.341c-2.08,0-3.575,1.16-3.575,2.793-.293,37.342-.293,45.115-.293,45.115,0,1.626,1.788,3.031,3.868,3.031h14.341A3.3,3.3,0,0,0,2019.006,232.847Z" fill="#5937db"/><path d="M1997.817,186.564a1.708,1.708,0,0,0-.3,1.168c-.293,37.342-.293,45.115-.293,45.115.293-37.341.293-45.115.293-45.115A1.708,1.708,0,0,1,1997.817,186.564Zm-.6,46.283h0c0,1.626,1.788,3.031,3.868,3.031h0C1999.009,235.878,1997.221,234.473,1997.221,232.847Z" fill="#2b6aa8"/><path d="M2003.776,184.939h-2.687a3.831,3.831,0,0,0-3.272,1.625,1.708,1.708,0,0,0-.3,1.168c-.293,37.342-.293,45.115-.293,45.115h0c0,1.626,1.788,3.031,3.868,3.031h2.687Z" fill="#4325c3"/><path d="M1993.757,232.847V203.515c0-1.634-1.485-2.794-3.575-2.794h-14.341c-2.081,0-3.576,1.16-3.576,2.794,0,13.486-.292,29.332-.292,29.332,0,1.626,1.787,3.031,3.868,3.031h14.341A3.3,3.3,0,0,0,1993.757,232.847Z" fill="#5937db"/><path d="M1978.527,200.721h-2.686a3.833,3.833,0,0,0-3.273,1.626,1.705,1.705,0,0,0-.3,1.168c0,13.157-.292,29.332-.292,29.332h0c0,1.626,1.787,3.031,3.868,3.031h2.686Z" fill="#4325c3"/><path d="M2043.789,232.847v-51.87c0-1.649-1.494-3.054-3.605-3.054h-14.311c-2.09,0-3.585,1.405-3.585,2.817v52.107a3.306,3.306,0,0,0,3.585,3.031h14.311C2042.3,235.878,2043.789,234.473,2043.789,232.847Z" fill="#5937db"/><path d="M2022.288,232.847h0a3.306,3.306,0,0,0,3.585,3.031h0A3.306,3.306,0,0,1,2022.288,232.847Z" fill="#2b6aa8"/><path d="M2028.549,177.923h-2.676a3.308,3.308,0,0,0-3.585,3.054v51.87a3.306,3.306,0,0,0,3.585,3.031h2.676Z" fill="#4325c3"/><path d="M2069.432,232.847c.3-57.164.3-64.938.3-64.938,0-1.633-1.8-2.8-3.878-2.8h-14.321c-2.081,0-3.576,1.168-3.576,2.8v64.938a3.3,3.3,0,0,0,3.576,3.031h14.321A3.3,3.3,0,0,0,2069.432,232.847Z" fill="#5937db"/><path d="M2047.96,232.847h0a3.3,3.3,0,0,0,3.576,3.031h0A3.3,3.3,0,0,1,2047.96,232.847Z" fill="#2b6aa8"/><path d="M2054.222,165.108h-2.686c-2.081,0-3.576,1.168-3.576,2.8v64.938a3.3,3.3,0,0,0,3.576,3.031h2.686Z" fill="#4325c3"/><polygon points="2033.619 166.504 2011.297 172.387 2010.918 171.302 2033.326 165.336 2060.406 149.157 2060.406 150.711 2033.619 166.504" fill="#4325c3" stroke="#4325c3" stroke-miterlimit="10" stroke-width="2"/><polygon points="1981.513 190.666 1980.591 189.811 2006.659 172.652 2007.581 173.507 1981.513 190.666" fill="#4325c3" stroke="#4325c3" stroke-miterlimit="10" stroke-width="2"/><circle cx="1981.893" cy="189.579" r="4.397" fill="#5937db"/><circle cx="2009.101" cy="173.255" r="4.397" fill="#5937db"/><circle cx="2033.199" cy="166.259" r="4.397" fill="#5937db"/><circle cx="2058.852" cy="151.489" r="4.397" fill="#5937db"/><path d="M1510.224,249a15.683,15.683,0,0,0-14.316-9.211,16.378,16.378,0,0,0-1.74.1,26.463,26.463,0,0,0-45-26.444,34.246,34.246,0,0,0-67.944,6.109c0,.294.015.584.022.877a26.476,26.476,0,0,0-33.233,25.847,26.991,26.991,0,0,0,.138,2.725Z" fill="#5937db"/><path d="M2499.735,200.031l-90.936-.162a14.049,14.049,0,0,1-13.772-13.955,12.867,12.867,0,0,1,12.875-13.133,13.342,13.342,0,0,1,1.423.079l4.738.512-1.7-4.452a23.486,23.486,0,0,1,39.939-23.467l4,4.765,1.1-6.124a31.228,31.228,0,0,1,42.33-23.443v-6.207a37.071,37.071,0,0,0-46.766,23.486,29.328,29.328,0,0,0-47.252,29.14,18.646,18.646,0,0,0-16.524,18.844,19.961,19.961,0,0,0,19.6,19.789l90.941.162Z" fill="#5937db"/><line x1="637.735" y1="-0.877" x2="642.235" y2="23.5" fill="none" stroke="#683c99" stroke-miterlimit="10" stroke-width="2" stroke-dasharray="2 3"/><line x1="281" y1="66" x2="413.394" y2="0.5" fill="none" stroke="#5c3bde" stroke-miterlimit="10" stroke-width="2" stroke-dasharray="2 3"/><line x1="86.735" y1="39" x2="145.735" y2="79" fill="none" stroke="#5c3bde" stroke-miterlimit="10" stroke-width="2" stroke-dasharray="2 3"/><polyline points="158.735 125 101.735 203 -0.265 186" fill="none" stroke="#5c3bde" stroke-miterlimit="10" stroke-width="2" stroke-dasharray="2 3"/><polyline points="311.735 177 416.735 147 641.735 220" fill="none" stroke="#5c3bde" stroke-miterlimit="10" stroke-width="2" stroke-dasharray="2 3"/><line x1="1208.153" x2="1276.735" y2="29.739" fill="none" stroke="#5c3bde" stroke-miterlimit="10" stroke-width="2" stroke-dasharray="2 3"/><line x1="1075.735" y1="128.739" x2="1151.436" y2="1.423" fill="none" stroke="#5c3bde" stroke-miterlimit="10" stroke-width="2" stroke-dasharray="2 3"/><polyline points="1123.735 178 1334.735 230 1377.735 124" fill="none" stroke="#5c3bde" stroke-miterlimit="10" stroke-width="2" stroke-dasharray="2 3"/><line x1="1434.735" y1="40" x2="1503.735" y2="21" fill="none" stroke="#5c3bde" stroke-miterlimit="10" stroke-width="2" stroke-dasharray="2 3"/><line x1="1434.735" y1="98" x2="1530.735" y2="127" fill="none" stroke="#5c3bde" stroke-miterlimit="10" stroke-width="2" stroke-dasharray="2 3"/><polyline points="1665.735 127 1845.735 66 1991.735 166" fill="none" stroke="#5c3bde" stroke-miterlimit="10" stroke-width="2" stroke-dasharray="2 3"/><line x1="1660.735" y1="127" x2="1865.735" y2="187" fill="none" stroke="#5c3bde" stroke-miterlimit="10" stroke-width="2" stroke-dasharray="2 3"/><line x1="2331.735" y1="-1" x2="2355.735" y2="33" fill="none" stroke="#683c99" stroke-miterlimit="10" stroke-width="2" stroke-dasharray="2 3"/><polyline points="2018.735 83 2103.735 96 2236.389 0" fill="none" stroke="#5c3bde" stroke-miterlimit="10" stroke-width="2" stroke-dasharray="2 3"/><line x1="2141.735" y1="104" x2="2379.735" y2="178" fill="none" stroke="#5c3bde" stroke-miterlimit="10" stroke-width="2" stroke-dasharray="2 3"/><line x1="2167.735" y1="182" x2="2122.735" y2="135" fill="none" stroke="#5c3bde" stroke-miterlimit="10" stroke-width="2" stroke-dasharray="2 3"/><line x1="1537.735" y1="250" x2="1606.735" y2="182" fill="none" stroke="#5c3bde" stroke-miterlimit="10" stroke-width="2" stroke-dasharray="2 3"/><polyline points="780.735 230 1003.735 171 749.735 104.123" fill="none" stroke="#5c3bde" stroke-miterlimit="10" stroke-width="2" stroke-dasharray="2 3"/><g clip-path="url(#c)"><g opacity="0.25"><polyline points="1027 261 1047 296 1119 251 1258 320 1109 351 1248 249 1333 315 1350 261" fill="none" stroke="#80def8" stroke-miterlimit="10"/><path d="M692.951,404.5a59.969,59.969,0,0,0,37.4,39.943,3.413,3.413,0,0,0,6.528,1.909,59.613,59.613,0,0,0,13.514,1.561h73.69a3.4,3.4,0,0,0,6.171,0H954.178a3.4,3.4,0,0,0,6.171,0h76.12a76.165,76.165,0,0,0,25.926-4.524,3.391,3.391,0,0,0,6.134-2.524,76.582,76.582,0,0,0,42.576-86.519,3.4,3.4,0,0,0-1.68-6.158,76.805,76.805,0,0,0-58.962-52.1,3.4,3.4,0,0,0-6.5-.918q-3.7-.363-7.5-.368a75.853,75.853,0,0,0-44.079,13.981,3.409,3.409,0,0,0-1.074-.207A110,110,0,0,0,916.634,232.1a3.406,3.406,0,0,0-6.565-1.74,110.8,110.8,0,0,0-67.629,5.652,3.4,3.4,0,0,0-6.084,2.113,3.443,3.443,0,0,0,.063.622,110.454,110.454,0,0,0-61.379,92.438,3.431,3.431,0,0,0-1.823,1.823,59.183,59.183,0,0,0-22.826-4.544,59.661,59.661,0,0,0-58.848,69.842,3.406,3.406,0,0,0,1.408,6.192ZM1049.627,298.82l56.416,51.294a3.4,3.4,0,0,0-.329,1.352l-81.9,9.75a3.409,3.409,0,0,0-1.509-2.015l24.062-59.316a3.454,3.454,0,0,0,.724.08A3.394,3.394,0,0,0,1049.627,298.82Zm-127.973-22.5-41.008-19.75,30.211-22.658a3.4,3.4,0,0,0,2.323,1Zm.208,1.018L937.9,355.7,915.968,373.56,859.668,272.3,879.9,257.126ZM696.339,399.309l77.612-62.554a3.393,3.393,0,0,0,3.82.691l21.61,47.7a3.4,3.4,0,0,0-.954,2.36,3.355,3.355,0,0,0,.054.534L696.717,400.156A3.382,3.382,0,0,0,696.339,399.309ZM829.5,443.982a3.4,3.4,0,0,0-1.439-.8l2.5-44.276,36.653,14.362Zm124.174,2.281-84.845-33.245,37.4-30.456,17.4,6.459,30.852,55.489a3.391,3.391,0,0,0-.6,1.753Zm153.465-91.915-67.456,40.466-16.972-30.092a3.4,3.4,0,0,0,1.24-2.614c0-.026-.007-.05-.007-.075l81.841-9.743A3.409,3.409,0,0,0,1107.135,354.348Zm-88.92,10.259L983.742,410.46l-36.577-13.578-5.135-25.1,75.165-8.948A3.4,3.4,0,0,0,1018.215,364.607Zm-77.008,7.275,5.046,24.661-22.06-8.19L916.66,374.8Zm-24.419,2.075,21.295-17.342,2.958,14.455Zm-1.015.953,7.229,13-16.037-5.954,8.627-7.026Zm-9.706,6.714-11.337-4.209,19.33-2.3Zm49.768,61.751a3.373,3.373,0,0,0-.772.5L924.81,389.463l21.638,8.033Zm-87.893-30.7L830.6,398.041l.738-13.079,61.593-7.333,12.39,4.6Zm-88.387-77.134L832.2,355.081l-1.643,29.142-25.32,3.015a3.389,3.389,0,0,0-5.188-2.625l-21.568-47.607A3.405,3.405,0,0,0,779.555,335.538Zm50.952,49.523-.714,12.663L805.2,388.088l0-.015Zm2.5-29.679L891.236,377l-59.849,7.125Zm-6.458,87.733-23.718-52.353a3.41,3.41,0,0,0,2.136-1.879l24.776,9.708-2.507,44.469c-.024,0-.047-.007-.071-.007A3.377,3.377,0,0,0,826.55,443.115ZM779.783,334.338a3.386,3.386,0,0,0-.5-1.751l56.572-42.428-3.612,64.059-52.5-19.491A3.306,3.306,0,0,0,779.783,334.338Zm56.938-44.827L859,272.8,915.317,374.09l-.061.05-22.223,2.645-59.977-22.266Zm.061-1.078,2.645-46.922a3.323,3.323,0,0,0,.346.035,3.38,3.38,0,0,0,1.615-.423l17.208,30.95Zm6.178-49.1,36.1,17.389-19.8,14.85-17.2-30.928A3.4,3.4,0,0,0,842.96,239.334ZM922.8,277.786l66.01,31.793a3.4,3.4,0,0,0-.079,4.725l-50.109,40.809Zm95.874,81.461a3.406,3.406,0,0,0-1.548,2.766l-75.259,8.959-3.058-14.946,50.561-41.176a3.374,3.374,0,0,0,4.1-.3Zm89.064-4.3-41.349,83.272a3.2,3.2,0,0,0-2.258-.057l-24.044-42.632Zm-45.466,84.662-59.094-21.938,36.2-21.716,24,42.549A3.418,3.418,0,0,0,1062.269,439.613Zm-60.085-22.306L984.55,410.76l34.339-45.673a3.3,3.3,0,0,0,3.124.086l16.957,30.066Zm-.908.544-40.178,24.1,22.934-30.5Zm-42.059,25.231-.506.3a3.393,3.393,0,0,0-1.448-.332,3.431,3.431,0,0,0-.637.064l-9.266-45.282,35.864,13.314Zm-7.811,3.181H830.562a3.388,3.388,0,0,0-.533-1.649l38.061-31Zm-127.12-1.617-64.134-21.675,39.36-32.977a3.4,3.4,0,0,0,2.332.931c.051,0,.1-.013.148-.015l23.764,52.455A3.41,3.41,0,0,0,824.286,444.646Zm-65.051-21.985-62.4-21.089a3.464,3.464,0,0,0,.044-.435c0-.057-.014-.11-.017-.166L798.7,388.847a3.507,3.507,0,0,0,.28.515Zm-8.844-92.541a57.515,57.515,0,0,1,22.6,4.581,3.391,3.391,0,0,0,.465,1.4L695.815,398.67a3.4,3.4,0,0,0-2.354-.95c-.117,0-.227.023-.34.034a58.026,58.026,0,0,1,57.27-67.634Zm86.723-89.87a3.4,3.4,0,0,0,1.5,1.079l-2.693,47.752-57.13,42.848a3.4,3.4,0,0,0-2.072-.972,108.784,108.784,0,0,1,60.4-90.707Zm47.9-11.1a109,109,0,0,1,24.9,2.872,3.389,3.389,0,0,0,.444,1.227l-30.55,22.913-36.656-17.655a2.5,2.5,0,0,0-.023-.99A108.31,108.31,0,0,1,885.014,229.152Zm104.693,79.793c-.05.025-.1.052-.147.079l-66.971-32.255-8.58-41.935a3.4,3.4,0,0,0,1.926-1.21A108.352,108.352,0,0,1,989.707,308.945Zm46.762-12.485c2.44,0,4.852.121,7.232.35a3.4,3.4,0,0,0,1.89,2.794l-24.04,59.26a3.136,3.136,0,0,0-2.132.028l-25.368-44.98a3.379,3.379,0,0,0-.228-4.12A74.213,74.213,0,0,1,1036.469,296.46Zm71.3,51.979a3.41,3.41,0,0,0-1.272.972l-56.4-51.276a3.414,3.414,0,0,0,.181-.393A75.147,75.147,0,0,1,1107.769,348.439Zm-39.891,90.909a3.408,3.408,0,0,0-.76-.742l41.541-83.659a3.511,3.511,0,0,0,.461.046,3.307,3.307,0,0,0,.425-.043,74.916,74.916,0,0,1-41.667,84.4Zm-31.409,6.915h-75.81a3.391,3.391,0,0,0-1.078-2.291l.2-.264,42.489-25.489,59.659,22.148a3.369,3.369,0,0,0-.178,1.038,3.471,3.471,0,0,0,.045.447A74.552,74.552,0,0,1,1036.469,446.263Zm-286.078,0a57.955,57.955,0,0,1-13.318-1.559,3.383,3.383,0,0,0-.761-1.758l23.1-19.354L823.937,445.4a3.419,3.419,0,0,0-.167.863Zm-55.77-41.925a3.411,3.411,0,0,0,2.016-1.961l61.857,20.9-22.785,19.09a3.371,3.371,0,0,0-4.628.577A58.311,58.311,0,0,1,694.621,404.338Z" fill="#80def8"/><path d="M1801,233l-32-83H1593l129,150-283.765-59.5s17,13,20,17S1653,428,1653,428" fill="none" stroke="#80def8" stroke-miterlimit="10"/><polyline points="2241 144 2295 291 2266 374 2229 359 2294 290 2124 150 2186 149 2376 223 2365 151" fill="none" stroke="#80def8" stroke-miterlimit="10"/><line x1="1199.235" y1="414.5" x2="1819" y2="149" fill="none" stroke="#80def8" stroke-miterlimit="10"/><polyline points="1652.773 423.712 1658.5 152.5 1782.5 150.5 1869 253 1867.5 151.5" fill="none" stroke="#80def8" stroke-miterlimit="10"/><path d="M2233.106,359.869a4.13,4.13,0,0,0-1.814-3.423,72.23,72.23,0,0,0-71.244-84.553,71.62,71.62,0,0,0-27.634,5.5,4.151,4.151,0,0,0-2.207-2.208A133.714,133.714,0,0,0,2055.9,163.278a4.1,4.1,0,0,0-4.06-4.89,4.11,4.11,0,0,0-3.228,1.579,134.152,134.152,0,0,0-81.876-6.843,4.121,4.121,0,0,0-7.947,2.107,133.171,133.171,0,0,0-90.413,92.587,4.117,4.117,0,0,0-1.3.251,91.825,91.825,0,0,0-53.364-16.926q-4.593,0-9.077.445a4.121,4.121,0,0,0-7.864,1.112,92.982,92.982,0,0,0-71.382,63.069,4.114,4.114,0,0,0-2.034,7.455A92.713,92.713,0,0,0,1774.9,407.968a4.121,4.121,0,0,0,7.425,3.055,92.219,92.219,0,0,0,31.387,5.477h92.154a4.117,4.117,0,0,0,7.471,0h150.029a4.117,4.117,0,0,0,7.471,0h89.212a72.158,72.158,0,0,0,16.361-1.89,4.131,4.131,0,0,0,7.9-2.311,72.6,72.6,0,0,0,45.277-48.356A4.125,4.125,0,0,0,2233.106,359.869ZM1800.851,237.386a4.147,4.147,0,0,0,.876-.1l29.131,71.811a4.121,4.121,0,0,0-1.827,2.439l-99.151-11.8a4.092,4.092,0,0,0-.4-1.636l68.3-62.1A4.107,4.107,0,0,0,1800.851,237.386Zm162.118-78.762a4.115,4.115,0,0,0,2.813-1.207l36.575,27.431-49.646,23.911Zm40.289,26.9,24.495,18.371-68.159,122.588-26.547-21.62,19.412-94.873Zm221.769,173.157-123.2-14.666a4.171,4.171,0,0,0,.065-.646,4.118,4.118,0,0,0-1.156-2.858l26.163-57.749a4.108,4.108,0,0,0,4.624-.836l93.961,75.729A4.089,4.089,0,0,0,2225.027,358.681Zm-206.4,15.877L2063,357.171l3.022,53.6a4.126,4.126,0,0,0-1.742.966ZM1913.712,414.5a4.09,4.09,0,0,0-.731-2.123l37.35-67.176,21.063-7.819,45.273,36.87L1913.951,414.5ZM1729.8,300.733l99.08,11.8c0,.031-.009.059-.009.091a4.11,4.11,0,0,0,1.5,3.164l-20.546,36.431-81.666-48.99A4.129,4.129,0,0,0,1729.8,300.733ZM1837.045,313.5l91,10.833-6.217,30.384-44.282,16.439-41.734-55.511A4.123,4.123,0,0,0,1837.045,313.5Zm121.712,14.489-9.12,16.4-26.706,9.915,6.108-29.856Zm-29.517-4.52,3.581-17.5,25.781,21Zm30.81,4.674,10.444,8.506-19.415,7.208,8.751-15.74Zm1.854.221,23.4,2.786-13.725,5.1Zm-39.21,27.1,26.195-9.725-36.625,65.873a4.1,4.1,0,0,0-.934-.606Zm49.787-18.483,15-5.569,74.567,8.877.893,15.834-45.2,17.713Zm153.564-54.749-26.111,57.636a4.1,4.1,0,0,0-6.28,3.177L2063,339.392l-1.99-35.28,63.731-23.66A4.112,4.112,0,0,0,2126.045,282.229Zm-32.355,61.824v.018l-29.77,11.665-.864-15.33Zm-31.7-4.781-72.455-8.626,70.493-26.17Zm5.11,71.341c-.029,0-.056.008-.086.009l-3.035-53.835,30-11.753a4.132,4.132,0,0,0,2.585,2.275l-28.714,63.379A4.156,4.156,0,0,0,2067.1,410.613Zm57.411-131.143-63.561,23.6-4.372-77.552,68.487,51.365a4.1,4.1,0,0,0-.6,2.12A4.044,4.044,0,0,0,2124.512,279.47Zm-64.542,23.961-72.61,26.956-26.9-3.2-.074-.061L2028.561,204.5l26.972,20.229Zm-30.919-99.812,20.833-37.47a4.092,4.092,0,0,0,1.955.512,4.137,4.137,0,0,0,.418-.042l3.2,56.806Zm20.01-38.048-20.818,37.442-23.97-17.978,43.707-21.051A4.124,4.124,0,0,0,2049.061,165.571ZM1932.172,304.15l-60.664-49.4a4.111,4.111,0,0,0-.1-5.721l79.915-38.489Zm-66.4-49.1a4.082,4.082,0,0,0,4.961.359l61.211,49.85-3.7,18.094L1837.132,312.5a4.121,4.121,0,0,0-1.873-3.348Zm-56.44,98.038L1780.226,404.7a3.888,3.888,0,0,0-2.734.069l-50.058-100.812Zm-28.193,52.026,29.051-51.511,43.826,26.29-71.54,26.559A4.148,4.148,0,0,0,1781.141,405.111Zm29.543-52.382,20.528-36.4a4,4,0,0,0,3.783-.1l41.571,55.294-21.347,7.925Zm66.509,19.624,27.765,36.929L1856.317,380.1Zm.978-.363,43.419-16.119-11.217,54.82a4.184,4.184,0,0,0-.772-.078,4.1,4.1,0,0,0-1.753.4l-.612-.367Zm139.386,2.987,46.078,37.526a4.1,4.1,0,0,0-.645,2h-146.3Zm51.251,36.014,28.77-63.5c.06,0,.118.018.179.018a4.112,4.112,0,0,0,2.823-1.127l47.651,39.924-77.643,26.24A4.135,4.135,0,0,0,2068.808,410.991Zm32.416-65.378a4.119,4.119,0,0,0,.339-.623l123.291,14.677c0,.069-.021.133-.021.2a4.146,4.146,0,0,0,.053.526l-75.545,25.532Zm129.127-1.417a70.356,70.356,0,0,1-.97,11.577c-.137-.013-.27-.041-.411-.041a4.115,4.115,0,0,0-2.851,1.15L2132.13,281.13a4.083,4.083,0,0,0,.563-1.691,69.63,69.63,0,0,1,27.355-5.546A70.383,70.383,0,0,1,2230.351,344.2ZM2088.893,189.089a130.633,130.633,0,0,1,39.285,85.817,4.116,4.116,0,0,0-2.509,1.177l-69.164-51.874-3.259-57.81a4.119,4.119,0,0,0,1.812-1.306A131.513,131.513,0,0,1,2088.893,189.089Zm-41.117-27.3a4.189,4.189,0,0,0-.074.739,4.136,4.136,0,0,0,.046.461l-44.377,21.373-36.985-27.739a4.107,4.107,0,0,0,.538-1.486,132.144,132.144,0,0,1,80.852,6.652Zm-88.142-4.715a4.124,4.124,0,0,0,2.333,1.466L1951.579,209.3l-81.078,39.05c-.059-.033-.117-.066-.177-.1A131.173,131.173,0,0,1,1959.634,157.071Zm-94.294,92.211a4.092,4.092,0,0,0-.276,4.989l-30.711,54.454a3.806,3.806,0,0,0-2.582-.034l-29.1-71.742a4.115,4.115,0,0,0,2.288-3.382q4.323-.417,8.755-.424A89.847,89.847,0,0,1,1865.34,249.282ZM1796.988,234.7a4.016,4.016,0,0,0,.22.475l-68.276,62.077a4.135,4.135,0,0,0-1.539-1.176A90.977,90.977,0,0,1,1796.988,234.7Zm-73.944,89.13a90.648,90.648,0,0,1,2.2-19.872,3.96,3.96,0,0,0,.514.052,4.1,4.1,0,0,0,.558-.056l50.291,101.281a4.169,4.169,0,0,0-.92.9A90.792,90.792,0,0,1,1723.044,323.825Zm60.008,85.334a4.185,4.185,0,0,0,.054-.54,4.088,4.088,0,0,0-.215-1.257l72.225-26.813,51.439,30.857.24.32a4.107,4.107,0,0,0-1.305,2.774h-91.779A90.226,90.226,0,0,1,1783.052,409.159Zm288.16,5.341a4.058,4.058,0,0,0-.2-1.045l78.119-26.4,27.964,23.43a4.083,4.083,0,0,0-.921,2.129,70.205,70.205,0,0,1-16.124,1.887Zm112.213-4.012a4.082,4.082,0,0,0-5.6-.7l-27.584-23.11,74.887-25.309a4.125,4.125,0,0,0,2.44,2.374A70.6,70.6,0,0,1,2183.425,410.488Z" fill="#80def8"/><path d="M2293.951,294.5a59.969,59.969,0,0,0,37.4,39.943,3.413,3.413,0,0,0,6.528,1.909,59.613,59.613,0,0,0,13.514,1.561h73.69a3.4,3.4,0,0,0,6.171,0h123.926a3.4,3.4,0,0,0,6.171,0h76.12a76.165,76.165,0,0,0,25.926-4.524,3.391,3.391,0,0,0,6.134-2.524,76.582,76.582,0,0,0,42.576-86.519,3.4,3.4,0,0,0-1.68-6.158,76.805,76.805,0,0,0-58.962-52.1,3.4,3.4,0,0,0-6.5-.918q-3.7-.363-7.5-.368a75.853,75.853,0,0,0-44.079,13.981,3.409,3.409,0,0,0-1.074-.207,110,110,0,0,0-74.682-76.478,3.406,3.406,0,0,0-6.565-1.74,110.8,110.8,0,0,0-67.629,5.652,3.4,3.4,0,0,0-6.084,2.113,3.443,3.443,0,0,0,.063.622,110.454,110.454,0,0,0-61.379,92.438,3.431,3.431,0,0,0-1.823,1.823,59.183,59.183,0,0,0-22.826-4.544,59.661,59.661,0,0,0-58.848,69.842,3.406,3.406,0,0,0,1.408,6.192ZM2650.627,188.82l56.416,51.294a3.4,3.4,0,0,0-.329,1.352l-81.9,9.75a3.409,3.409,0,0,0-1.509-2.015l24.062-59.316a3.454,3.454,0,0,0,.724.08A3.394,3.394,0,0,0,2650.627,188.82Zm-127.973-22.5-41.008-19.75,30.211-22.658a3.4,3.4,0,0,0,2.323,1Zm.208,1.018L2538.9,245.7l-21.928,17.858-56.3-101.259,20.233-15.175ZM2297.339,289.309l77.612-62.554a3.393,3.393,0,0,0,3.82.691l21.61,47.7a3.4,3.4,0,0,0-.954,2.36,3.355,3.355,0,0,0,.054.534l-101.764,12.114A3.382,3.382,0,0,0,2297.339,289.309ZM2430.5,333.982a3.4,3.4,0,0,0-1.439-.8l2.5-44.276,36.653,14.362Zm124.174,2.281-84.845-33.245,37.4-30.456,17.4,6.459,30.852,55.489a3.391,3.391,0,0,0-.6,1.753Zm153.465-91.915-67.456,40.466-16.972-30.092a3.4,3.4,0,0,0,1.24-2.614c0-.026-.007-.05-.007-.075l81.841-9.743A3.409,3.409,0,0,0,2708.135,244.348Zm-88.92,10.259-34.473,45.853-36.577-13.578-5.135-25.1,75.165-8.948A3.4,3.4,0,0,0,2619.215,254.607Zm-77.008,7.275,5.046,24.661-22.06-8.19L2517.66,264.8Zm-24.419,2.075,21.3-17.342,2.958,14.455Zm-1.015.953,7.229,13-16.037-5.954,8.627-7.026Zm-9.706,6.714-11.337-4.209,19.33-2.3Zm49.768,61.751a3.373,3.373,0,0,0-.772.5l-30.253-54.412,21.638,8.033Zm-87.893-30.7-37.34-14.631.738-13.079,61.593-7.333,12.39,4.6Zm-88.387-77.134,52.642,19.543-1.643,29.142-25.32,3.015a3.389,3.389,0,0,0-5.188-2.625l-21.568-47.607A3.405,3.405,0,0,0,2380.555,225.538Zm50.952,49.523-.714,12.663-24.591-9.636,0-.015Zm2.5-29.679L2492.236,267l-59.849,7.125Zm-6.458,87.733-23.718-52.353a3.41,3.41,0,0,0,2.136-1.879l24.776,9.708-2.507,44.469c-.024,0-.047-.007-.071-.007A3.377,3.377,0,0,0,2427.55,333.115Zm-46.767-108.777a3.386,3.386,0,0,0-.5-1.751l56.572-42.428-3.612,64.059-52.5-19.491A3.306,3.306,0,0,0,2380.783,224.338Zm56.938-44.827L2460,162.8l56.316,101.289-.061.05-22.223,2.645-59.977-22.266Zm.061-1.078,2.645-46.922a3.323,3.323,0,0,0,.346.035,3.38,3.38,0,0,0,1.615-.423l17.208,30.95Zm6.178-49.1,36.1,17.389-19.8,14.85-17.195-30.928A3.4,3.4,0,0,0,2443.96,129.334Zm79.837,38.452,66.01,31.793a3.4,3.4,0,0,0-.079,4.725l-50.109,40.809Zm95.874,81.461a3.406,3.406,0,0,0-1.548,2.766l-75.259,8.959-3.058-14.946,50.561-41.176a3.374,3.374,0,0,0,4.1-.3Zm89.064-4.3-41.349,83.272a3.2,3.2,0,0,0-2.258-.057l-24.044-42.632Zm-45.466,84.662-59.094-21.938,36.2-21.716,24,42.549A3.418,3.418,0,0,0,2663.269,329.613Zm-60.085-22.306-17.634-6.547,34.339-45.673a3.3,3.3,0,0,0,3.124.086l16.957,30.066Zm-.908.544-40.178,24.1,22.934-30.5Zm-42.059,25.231-.506.3a3.393,3.393,0,0,0-1.448-.332,3.431,3.431,0,0,0-.637.064l-9.266-45.282,35.864,13.314Zm-7.811,3.181H2431.562a3.388,3.388,0,0,0-.533-1.649l38.061-31Zm-127.12-1.617-64.134-21.675,39.36-32.977a3.4,3.4,0,0,0,2.332.931c.051,0,.1-.013.148-.015l23.764,52.455A3.41,3.41,0,0,0,2425.286,334.646Zm-65.051-21.985-62.4-21.089a3.464,3.464,0,0,0,.044-.435c0-.057-.014-.11-.017-.166L2399.7,278.847a3.507,3.507,0,0,0,.28.515Zm-8.844-92.541a57.515,57.515,0,0,1,22.595,4.581,3.391,3.391,0,0,0,.465,1.4l-77.636,62.572a3.4,3.4,0,0,0-2.354-.95c-.117,0-.227.023-.34.034a58.026,58.026,0,0,1,57.27-67.634Zm86.723-89.87a3.4,3.4,0,0,0,1.5,1.079l-2.693,47.752-57.13,42.848a3.4,3.4,0,0,0-2.072-.972,108.784,108.784,0,0,1,60.4-90.707Zm47.9-11.1a109,109,0,0,1,24.9,2.872,3.389,3.389,0,0,0,.444,1.227l-30.55,22.913-36.656-17.655a2.5,2.5,0,0,0-.023-.99A108.31,108.31,0,0,1,2486.014,119.152Zm104.693,79.793c-.05.025-.1.052-.147.079l-66.971-32.255-8.58-41.935a3.4,3.4,0,0,0,1.926-1.21A108.352,108.352,0,0,1,2590.707,198.945Zm46.762-12.485c2.44,0,4.852.121,7.232.35a3.4,3.4,0,0,0,1.89,2.794l-24.04,59.26a3.136,3.136,0,0,0-2.132.028l-25.368-44.98a3.379,3.379,0,0,0-.228-4.12A74.213,74.213,0,0,1,2637.469,186.46Zm71.3,51.979a3.41,3.41,0,0,0-1.272.972l-56.4-51.276a3.414,3.414,0,0,0,.181-.393A75.147,75.147,0,0,1,2708.769,238.439Zm-39.891,90.909a3.408,3.408,0,0,0-.76-.742l41.541-83.659a3.511,3.511,0,0,0,.461.046,3.307,3.307,0,0,0,.425-.043,74.916,74.916,0,0,1-41.667,84.4Zm-31.409,6.915h-75.81a3.391,3.391,0,0,0-1.078-2.291l.2-.264,42.489-25.489,59.659,22.148a3.369,3.369,0,0,0-.178,1.038,3.471,3.471,0,0,0,.045.447A74.552,74.552,0,0,1,2637.469,336.263Zm-286.078,0a57.955,57.955,0,0,1-13.318-1.559,3.383,3.383,0,0,0-.761-1.758l23.1-19.354,64.526,21.808a3.419,3.419,0,0,0-.167.863Zm-55.77-41.925a3.411,3.411,0,0,0,2.016-1.961l61.857,20.9-22.785,19.09a3.371,3.371,0,0,0-4.628.577A58.311,58.311,0,0,1,2295.621,294.338Z" fill="#80def8"/><rect x="1601.5" y="160.5" width="1438" height="401" fill="none"/><polyline points="1465.235 380.5 1593.235 259.5 1637.235 256.5 1532.235 434.5 1652 427 1727 299 1729 143" fill="none" stroke="#80def8" stroke-miterlimit="10"/></g></g></svg>