<svg xmlns="http://www.w3.org/2000/svg" viewBox="0 0 2500 250"><title>banner-code-1-purple</title><rect width="2500" height="250" fill="#5c2d91"/><path d="M33.06,134.006H10.316a2.27,2.27,0,0,1-2.274-2.264v-22.65a2.269,2.269,0,0,1,2.274-2.265H33.06a2.267,2.267,0,0,1,2.273,2.265v22.65a2.269,2.269,0,0,1-2.273,2.264Zm-20.47-4.53h18.2V111.357H12.59Z" fill="#714aae"/><path d="M236.816,192.141a2.29,2.29,0,0,1-1.321-.421l-15.92-11.326a2.259,2.259,0,0,1,0-3.686l15.92-11.325a2.285,2.285,0,0,1,2.643,0l15.919,11.325a2.258,2.258,0,0,1,0,3.686L238.138,191.72A2.288,2.288,0,0,1,236.816,192.141Zm-12-13.59,12,8.542,12.007-8.542-12.007-8.541Z" fill="#401467"/><path d="M280.291,194.674l-13.646,13.589,13.646,13.59,13.646-13.59Z" fill="#401467"/><path d="M101.673,29.693a3.408,3.408,0,0,1-2.217-.819l-5.749-4.9-5.745,4.9a3.429,3.429,0,0,1-4.441,0l-5.745-4.9-5.749,4.9a3.424,3.424,0,0,1-4.437,0l-7.966-6.8a3.4,3.4,0,0,1-1.275-2.338,3.412,3.412,0,0,1,.141-1.351A3.426,3.426,0,0,1,62.9,16.207a3.437,3.437,0,0,1,1.168.706l5.746,4.9,5.749-4.9a3.414,3.414,0,0,1,4.437,0l5.746,4.9,5.745-4.9a3.414,3.414,0,0,1,4.437,0l5.749,4.9,5.746-4.9a3.437,3.437,0,0,1,1.168-.706,3.437,3.437,0,0,1,2.666.157,3.408,3.408,0,0,1,1.74,2.02,3.412,3.412,0,0,1,.141,1.351,3.328,3.328,0,0,1-.4,1.3,3.37,3.37,0,0,1-.877,1.041l-7.966,6.8A3.406,3.406,0,0,1,101.673,29.693Z" fill="#401467"/><path d="M456.933,37.535a1.954,1.954,0,0,1-1.378-.569l-11.7-11.648a1.935,1.935,0,0,1,0-2.745l11.7-11.648a1.953,1.953,0,0,1,2.756,0l11.7,11.648a1.935,1.935,0,0,1,0,2.745l-11.7,11.648A1.952,1.952,0,0,1,456.933,37.535Zm-8.94-13.59,8.94,8.9,8.941-8.9-8.941-8.9Z" fill="#401467"/><path d="M744.814,221.345H727.755a3.406,3.406,0,0,1-3.411-3.4V200.96a3.412,3.412,0,0,1,6.824,0v13.59h13.646a3.4,3.4,0,1,1,0,6.795Z" fill="#401467"/><path d="M411.5,213.417H388.753a2.269,2.269,0,0,1-2.275-2.264,2.27,2.27,0,0,1,2.275-2.265H411.5a2.265,2.265,0,1,1,0,4.529Z" fill="#401467"/><path d="M400.124,224.743a2.272,2.272,0,0,1-2.275-2.265V199.827a2.275,2.275,0,0,1,4.55,0v22.651a2.274,2.274,0,0,1-2.275,2.265Z" fill="#401467"/><path d="M280.878,32.384v27.18h-8.529V40.878H253.587V32.384Z" fill="#714aae"/><path d="M612.078,168.933a27.234,27.234,0,0,0-27.291,27.18h27.291Z" fill="#714aae"/><path d="M107.775,94.041a2.552,2.552,0,0,1-2.558-2.548V83.849a2.558,2.558,0,0,1,5.116,0v7.644a2.55,2.55,0,0,1-2.558,2.548Z" fill="#401467"/><path d="M107.775,122.07a2.552,2.552,0,0,1-2.558-2.548v-7.644a2.558,2.558,0,0,1,5.116,0v7.644a2.55,2.55,0,0,1-2.558,2.548Z" fill="#401467"/><path d="M107.775,104.233a2.548,2.548,0,1,0-2.558-2.548A2.552,2.552,0,0,0,107.775,104.233Z" fill="#401467"/><path d="M554.012,51.971H532.178a2.718,2.718,0,1,1,0-5.435h21.834a2.734,2.734,0,0,1,1.929.8,2.708,2.708,0,0,1,0,3.843A2.734,2.734,0,0,1,554.012,51.971Z" fill="#714aae"/><path d="M559.47,62.843H537.638a2.718,2.718,0,1,1,0-5.436H559.47a2.718,2.718,0,1,1,0,5.436Z" fill="#714aae"/><path d="M564.929,73.715H543.1a2.734,2.734,0,0,1-1.929-.8,2.709,2.709,0,0,1,0-3.842,2.734,2.734,0,0,1,1.929-.8h21.834a2.718,2.718,0,1,1,0,5.436Z" fill="#714aae"/><path d="M871.86,196.317A13.644,13.644,0,1,0,885.5,182.728,13.616,13.616,0,0,0,871.86,196.317Z" fill="#401467"/><path d="M889.719,74.771H862.431v10.19h27.288Z" fill="#714aae"/><path d="M1028.616,82.905a2.257,2.257,0,0,1,.665,1.6v22.65a2.267,2.267,0,0,1-2.273,2.265h-22.744a2.269,2.269,0,0,1-2.274-2.265V84.505a2.27,2.27,0,0,1,2.274-2.264h22.744A2.275,2.275,0,0,1,1028.616,82.905Zm-22.078,21.985h18.195V86.771h-18.195Z" fill="#401467"/><path d="M1267.618,150.37a13.675,13.675,0,1,1-9.644-3.985A13.569,13.569,0,0,1,1267.618,150.37Zm-2.756,16.465a9.766,9.766,0,1,0-6.888,2.847A9.7,9.7,0,0,0,1264.862,166.835Z" fill="#714aae"/><path d="M1135.763,122.1l3.966,3.386a1.675,1.675,0,0,1,.436.518,1.638,1.638,0,0,1,.2.645,1.675,1.675,0,0,1-.4,1.264,1.654,1.654,0,0,1-.535.415,1.7,1.7,0,0,1-1.909-.274l-2.86-2.439-2.862,2.439a1.7,1.7,0,0,1-2.208,0l-2.86-2.439-2.861,2.439a1.7,1.7,0,0,1-2.208,0l-2.862-2.439-2.86,2.439a1.72,1.72,0,0,1-.582.352,1.712,1.712,0,0,1-1.327-.078,1.664,1.664,0,0,1-.535-.415,1.675,1.675,0,0,1-.4-1.264,1.654,1.654,0,0,1,.2-.645,1.675,1.675,0,0,1,.436-.518l3.966-3.386a1.7,1.7,0,0,1,2.208,0l2.862,2.441,2.86-2.441a1.708,1.708,0,0,1,2.211,0l2.86,2.441,2.862-2.441a1.7,1.7,0,0,1,2.208,0Z" fill="#401467"/><path d="M1101.5,6.282h-31.522l15.761,27.18Z" fill="#401467"/><path d="M1354.82,17.368a2.26,2.26,0,0,1,.667,1.6V41.619a2.276,2.276,0,0,1-4.551,0V18.968a2.276,2.276,0,0,1,3.884-1.6Z" fill="#401467"/><path d="M1215.008,103.989V95.5h18.762V76.81h8.53v27.179Z" fill="#401467"/><path d="M1353.037,203.713a2.706,2.706,0,0,1,0,3.842,2.734,2.734,0,0,1-1.929.8h-21.834a2.718,2.718,0,1,1,0-5.436h21.834A2.734,2.734,0,0,1,1353.037,203.713Z" fill="#401467"/><path d="M1358.5,192.841a2.718,2.718,0,0,1-1.931,4.639h-21.832a2.718,2.718,0,1,1,0-5.436h21.832A2.736,2.736,0,0,1,1358.5,192.841Z" fill="#401467"/><path d="M1363.954,181.969a2.718,2.718,0,0,1-1.929,4.639h-21.834a2.738,2.738,0,0,1-1.929-.8,2.708,2.708,0,0,1,0-3.843,2.738,2.738,0,0,1,1.929-.8h21.834A2.738,2.738,0,0,1,1363.954,181.969Z" fill="#401467"/><path d="M1478.748,221.57a13.644,13.644,0,1,0,13.644-13.59A13.617,13.617,0,0,0,1478.748,221.57Z" fill="#401467"/><path d="M657.512,98.934a2.547,2.547,0,0,1,.748,1.8v7.644a2.558,2.558,0,0,1-5.116,0v-7.644a2.561,2.561,0,0,1,4.368-1.8Z" fill="#401467"/><path d="M657.512,70.905a2.547,2.547,0,0,1,.748,1.8v7.644a2.558,2.558,0,0,1-5.116,0V72.707a2.561,2.561,0,0,1,4.368-1.8Z" fill="#401467"/><path d="M653.144,90.544A2.558,2.558,0,1,0,655.7,88,2.554,2.554,0,0,0,653.144,90.544Z" fill="#401467"/><path d="M1125.826,210.867a9.691,9.691,0,0,1-6.308-2.331l-16.362-13.955-16.351,13.955a9.756,9.756,0,0,1-12.636,0l-16.351-13.955-16.362,13.955a9.743,9.743,0,0,1-12.626,0l-22.67-19.354a9.662,9.662,0,0,1-2.5-2.962,9.469,9.469,0,0,1-1.131-3.691,9.578,9.578,0,0,1,2.292-7.225,9.567,9.567,0,0,1,3.061-2.37,9.782,9.782,0,0,1,7.586-.447,9.8,9.8,0,0,1,3.325,2.011l16.351,13.945,16.361-13.945a9.716,9.716,0,0,1,12.627,0l16.351,13.945,16.351-13.945a9.716,9.716,0,0,1,12.627,0l16.361,13.945,16.351-13.945a9.688,9.688,0,0,1,7.167-2.554,9.7,9.7,0,0,1,3.744.99,9.708,9.708,0,0,1,4.953,5.749,9.678,9.678,0,0,1,.4,3.846,9.469,9.469,0,0,1-1.131,3.691,9.662,9.662,0,0,1-2.5,2.962l-22.67,19.354A9.7,9.7,0,0,1,1125.826,210.867Z" fill="#714aae"/><path d="M1434.461,53.764a7.264,7.264,0,0,1-7.28-7.252V24.758a7.281,7.281,0,0,1,14.561,0V46.512a7.262,7.262,0,0,1-7.281,7.252Z" fill="#714aae"/><path d="M1434.461,133.53a7.264,7.264,0,0,1-7.28-7.252V104.524a7.281,7.281,0,0,1,14.561,0v21.754a7.262,7.262,0,0,1-7.281,7.252Z" fill="#714aae"/><path d="M1434.461,82.769a7.251,7.251,0,1,0-7.28-7.251A7.265,7.265,0,0,0,1434.461,82.769Z" fill="#714aae"/><path d="M126.34,246.789H74.209a5.195,5.195,0,0,1-5.078-4,5.16,5.16,0,0,1,.352-3.395,5.217,5.217,0,0,1,2.4-2.445l32.377-16.12H74.209a5.2,5.2,0,0,1-5.078-4,5.176,5.176,0,0,1,2.748-5.837l32.377-16.12H74.209a5.193,5.193,0,1,1,0-10.385H126.34a5.262,5.262,0,0,1,3.272,1.1,5.179,5.179,0,0,1-.942,8.761l-32.381,16.1H126.34a5.187,5.187,0,0,1,2.33,9.863L96.289,236.405H126.34a5.235,5.235,0,0,1,3.687,1.522,5.192,5.192,0,0,1-3.687,8.862Z" fill="#714aae"/><path d="M1550.677,133.64h-22.744a2.272,2.272,0,0,1-2.274-2.265v-22.65a2.259,2.259,0,0,1,.666-1.6,2.283,2.283,0,0,1,1.608-.663h22.744a2.283,2.283,0,0,1,1.608.663,2.258,2.258,0,0,1,.665,1.6v22.65a2.27,2.27,0,0,1-2.273,2.265Zm-20.47-4.531H1548.4V110.99h-18.195Z" fill="#714aae"/><path d="M1785.968,182.81a2.286,2.286,0,0,1-1.322-.421l-15.919-11.325a2.26,2.26,0,0,1,0-3.687l15.919-11.325a2.285,2.285,0,0,1,2.643,0l15.92,11.325a2.261,2.261,0,0,1,.953,1.844,2.239,2.239,0,0,1-.252,1.036,2.262,2.262,0,0,1-.7.807l-15.92,11.325A2.278,2.278,0,0,1,1785.968,182.81Zm-12.005-13.589,12.005,8.541,12.007-8.541-12.007-8.542Z" fill="#401467"/><path d="M1829.442,185.343l-13.645,13.59,13.645,13.589,13.646-13.589Z" fill="#401467"/><path d="M1619.29,29.326a3.4,3.4,0,0,1-2.216-.819l-5.749-4.9-5.746,4.9a3.428,3.428,0,0,1-4.44,0l-5.746-4.9-5.749,4.9a3.424,3.424,0,0,1-4.437,0l-7.966-6.8a3.384,3.384,0,0,1-.877-1.041,3.327,3.327,0,0,1-.4-1.3,3.416,3.416,0,0,1,4.546-3.529,3.467,3.467,0,0,1,1.169.706l5.745,4.9,5.749-4.9a3.414,3.414,0,0,1,4.437,0l5.746,4.9,5.746-4.9a3.413,3.413,0,0,1,4.436,0l5.749,4.9,5.746-4.9a3.462,3.462,0,0,1,1.168-.706,3.437,3.437,0,0,1,2.666.157,3.384,3.384,0,0,1,1.881,3.372,3.312,3.312,0,0,1-.4,1.3,3.37,3.37,0,0,1-.877,1.041l-7.965,6.8A3.411,3.411,0,0,1,1619.29,29.326Z" fill="#401467"/><path d="M1978.051,38.662a1.956,1.956,0,0,1-1.378-.569l-11.7-11.649a1.935,1.935,0,0,1,0-2.745l11.7-11.648a1.953,1.953,0,0,1,2.756,0l11.7,11.648a1.933,1.933,0,0,1,0,2.745l-11.7,11.649A1.956,1.956,0,0,1,1978.051,38.662Zm-8.94-13.59,8.94,8.9,8.94-8.9-8.94-8.9Z" fill="#401467"/><path d="M2262.431,220.978h-17.058a3.4,3.4,0,0,1-3.411-3.4V200.594a3.412,3.412,0,0,1,6.824,0v13.59h13.645a3.4,3.4,0,1,1,0,6.794Z" fill="#401467"/><path d="M1929.113,213.051H1906.37a2.265,2.265,0,1,1,0-4.529h22.743a2.286,2.286,0,0,1,1.609.662,2.265,2.265,0,0,1-1.609,3.867Z" fill="#401467"/><path d="M1949.275,215.412a2.272,2.272,0,0,1-2.275-2.265V190.5a2.275,2.275,0,0,1,4.55,0v22.65a2.272,2.272,0,0,1-2.275,2.265Z" fill="#401467"/><path d="M1798.5,32.017V59.2h-8.529V40.511H1771.2V32.017Z" fill="#714aae"/><path d="M2192.693,211.891a27.235,27.235,0,0,0-27.292,27.18h27.292Z" fill="#714aae"/><path d="M1625.392,93.674a2.55,2.55,0,0,1-2.558-2.548V83.482a2.559,2.559,0,0,1,5.117,0v7.644a2.55,2.55,0,0,1-2.559,2.548Z" fill="#401467"/><path d="M1625.392,121.7a2.55,2.55,0,0,1-2.558-2.548v-7.644a2.559,2.559,0,0,1,5.117,0v7.644a2.55,2.55,0,0,1-2.559,2.548Z" fill="#401467"/><path d="M1625.392,103.867a2.548,2.548,0,1,0-2.558-2.548A2.554,2.554,0,0,0,1625.392,103.867Z" fill="#401467"/><path d="M2071.63,51.605H2049.8a2.718,2.718,0,1,1,0-5.436h21.834a2.734,2.734,0,0,1,1.929.8,2.709,2.709,0,0,1,0,3.842A2.734,2.734,0,0,1,2071.63,51.605Z" fill="#714aae"/><path d="M2077.087,62.477h-21.832a2.718,2.718,0,1,1,0-5.436h21.832a2.718,2.718,0,1,1,0,5.436Z" fill="#714aae"/><path d="M2082.547,73.348h-21.834a2.736,2.736,0,0,1-1.929-.8,2.708,2.708,0,0,1,0-3.843,2.737,2.737,0,0,1,1.929-.8h21.834a2.718,2.718,0,1,1,0,5.436Z" fill="#714aae"/><path d="M2345.979,163.084a13.644,13.644,0,1,0,13.644-13.59A13.617,13.617,0,0,0,2345.979,163.084Z" fill="#401467"/><path d="M2407.337,74.4h-27.289V84.6h27.289Z" fill="#714aae"/><path d="M2477.089,142.844a2.708,2.708,0,0,1,0,3.843,2.738,2.738,0,0,1-1.929.8h-21.834a2.718,2.718,0,1,1,0-5.436h21.834A2.734,2.734,0,0,1,2477.089,142.844Z" fill="#401467"/><path d="M2482.548,131.972a2.719,2.719,0,0,1-1.93,4.64h-21.832a2.74,2.74,0,0,1-1.931-.8,2.718,2.718,0,0,1,1.931-4.639h21.832A2.735,2.735,0,0,1,2482.548,131.972Z" fill="#401467"/><path d="M2488.006,121.1a2.719,2.719,0,0,1-1.929,4.64h-21.834a2.718,2.718,0,1,1,0-5.436h21.834A2.738,2.738,0,0,1,2488.006,121.1Z" fill="#401467"/><path d="M2175.129,98.567a2.548,2.548,0,0,1,.749,1.8v7.644a2.559,2.559,0,0,1-5.117,0v-7.644a2.561,2.561,0,0,1,4.368-1.8Z" fill="#401467"/><path d="M2175.129,70.538a2.548,2.548,0,0,1,.749,1.8v7.645a2.559,2.559,0,0,1-5.117,0V72.34a2.561,2.561,0,0,1,4.368-1.8Z" fill="#401467"/><path d="M2170.761,90.177a2.559,2.559,0,1,0,2.558-2.548A2.554,2.554,0,0,0,2170.761,90.177Z" fill="#401467"/><path d="M2089.971,156.718a9.7,9.7,0,0,1-6.308-2.33L2067.3,140.432l-16.351,13.956a9.76,9.76,0,0,1-12.636,0l-16.351-13.956L2005.6,154.388a9.746,9.746,0,0,1-12.626,0l-22.67-19.355a9.639,9.639,0,0,1-2.5-2.962,9.469,9.469,0,0,1-1.131-3.691,9.582,9.582,0,0,1,2.292-7.225,9.567,9.567,0,0,1,3.061-2.37,9.776,9.776,0,0,1,7.586-.446,9.81,9.81,0,0,1,3.325,2.01l16.351,13.946,16.361-13.946a9.716,9.716,0,0,1,12.627,0l16.351,13.946,16.351-13.946a9.716,9.716,0,0,1,12.627,0l16.361,13.946,16.351-13.946a9.7,9.7,0,0,1,7.167-2.554,9.7,9.7,0,0,1,3.744.99,9.706,9.706,0,0,1,4.953,5.75,9.691,9.691,0,0,1,.4,3.845,9.469,9.469,0,0,1-1.131,3.691,9.639,9.639,0,0,1-2.5,2.962l-22.67,19.355A9.7,9.7,0,0,1,2089.971,156.718Z" fill="#714aae"/><path d="M1675.492,237.458h-52.131a5.2,5.2,0,0,1-5.079-4,5.167,5.167,0,0,1,.352-3.4,5.223,5.223,0,0,1,2.4-2.445l32.377-16.12h-30.047a5.186,5.186,0,0,1-2.33-9.836l32.377-16.12h-30.047a5.193,5.193,0,1,1,0-10.385h52.131a5.266,5.266,0,0,1,3.272,1.1,5.18,5.18,0,0,1-.943,8.761l-32.38,16.1h30.051a5.187,5.187,0,0,1,2.329,9.863l-32.38,16.093h30.051a5.2,5.2,0,0,1,5.211,5.194,5.2,5.2,0,0,1-5.211,5.19Z" fill="#714aae"/><path d="M2290.189,31.105a5.758,5.758,0,0,0,.052-.732V0h-11.756V30.373a5.768,5.768,0,0,0,.054.745,23.377,23.377,0,0,0-15.892,13.706,23.415,23.415,0,0,0,17.133,31.921,23.552,23.552,0,0,0,24.129-9.955,23.392,23.392,0,0,0-13.72-35.685Zm2.487,30.955a11.772,11.772,0,0,1-19.171-3.8,11.71,11.71,0,0,1,8.566-15.96,11.769,11.769,0,0,1,12.065,4.977,11.664,11.664,0,0,1-1.46,14.78Z" fill="#401467"/><path d="M773.572,33.464a5.761,5.761,0,0,0,.052-.733V1.992H761.868V32.731a5.783,5.783,0,0,0,.054.746A23.377,23.377,0,0,0,746.03,47.183a23.336,23.336,0,0,0,5.1,25.513,23.46,23.46,0,1,0,22.447-39.232Zm2.487,30.955a11.772,11.772,0,0,1-19.171-3.8,11.71,11.71,0,0,1,8.566-15.96,11.769,11.769,0,0,1,12.064,4.977,11.662,11.662,0,0,1-1.459,14.78Z" fill="#401467"/></svg>