<svg xmlns="http://www.w3.org/2000/svg" xmlns:xlink="http://www.w3.org/1999/xlink" viewBox="0 0 2500 250"><defs><clipPath id="a"><rect x="-2519" y="270" width="2500" height="250" fill="none"/></clipPath></defs><title>banner-outline-icons-purple</title><rect width="2500" height="250" fill="#512bd4"/><path d="M2143.336,86.444H2135.2l16.527-55.237h8.135Zm-6.555-1.175h5.681l15.822-52.887H2152.6Z" fill="#6b52e8"/><path d="M2132.284,75.858l-22.33-14.716v-4.81l22.33-13.611v7l-14.963,9.121,14.963,9.861Zm-21.155-15.35,19.98,13.169V69.334L2115.127,58.8l15.982-9.742V44.813l-19.98,12.179Z" fill="#6b52e8"/><path d="M2165.191,75.858V68.7l14.963-9.861-14.963-9.121v-7l22.33,13.611v4.81Zm1.175-6.524v4.343l19.98-13.169V56.992l-19.98-12.179v4.246l15.982,9.742Z" fill="#6b52e8"/><path d="M1863.727,46.029,1853.18,35.481l4.985-4.986,5.562,5.561L1878.1,21.681l4.986,4.985Zm-8.885-10.548,8.885,8.886,17.7-17.7-3.324-3.323-14.376,14.375-5.562-5.561Z" fill="#6b52e8"/><rect x="1843.748" y="17.538" width="31.732" height="1.175" fill="#6b52e8"/><rect x="1843.748" y="24.589" width="22.33" height="1.175" fill="#6b52e8"/><rect x="1843.748" y="10.486" width="38.783" height="1.175" fill="#6b52e8"/><path d="M588.687,63.736a8.24,8.24,0,1,1,8.24-8.24A8.25,8.25,0,0,1,588.687,63.736Zm0-15.279a7.039,7.039,0,1,0,7.039,7.039A7.047,7.047,0,0,0,588.687,48.457Z" fill="#6b52e8"/><path d="M588.687,19.076a8.24,8.24,0,1,1,8.24-8.239A8.249,8.249,0,0,1,588.687,19.076Zm0-15.278a7.039,7.039,0,1,0,7.039,7.039A7.047,7.047,0,0,0,588.687,3.8Z" fill="#6b52e8"/><path d="M621.6,63.736a8.24,8.24,0,1,1,8.239-8.24A8.25,8.25,0,0,1,621.6,63.736Zm0-15.279a7.039,7.039,0,1,0,7.038,7.039A7.047,7.047,0,0,0,621.6,48.457Z" fill="#6b52e8"/><rect x="587.512" y="17.888" width="1.175" height="29.381" fill="#6b52e8"/><path d="M621.6,47.269h-1.176V23.832c0-3.081-1.44-8.294-6.842-8.294h-9.611V14.362h9.641c6.305,0,7.988,5.924,7.988,9.424Z" fill="#6b52e8"/><polygon points="613.05 4.843 613.822 5.671 604.255 14.949 613.955 24.361 613.183 25.189 602.595 14.949 613.05 4.843" fill="#6b52e8"/><polygon points="154.296 16.376 145.1 25.492 145.1 1.733 143.925 1.733 143.925 25.494 134.866 16.509 134.005 17.281 144.511 27.736 155.157 17.148 154.296 16.376" fill="#6b52e8"/><path d="M169.781,66.373H118.069V26.414h7.052V47.568H163.9V26.414h5.877ZM119.245,65.2h49.36V27.589H165.08V48.744H123.946V27.589h-4.7Z" fill="#6b52e8"/><path d="M140.358,60.454h-8.144V52.311h8.144Zm-7.052-1.091h5.959V53.4h-5.959Z" fill="#6b52e8"/><path d="M156.811,60.454h-8.144V52.311h8.144Zm-7.051-1.091h5.959V53.4H149.76Z" fill="#6b52e8"/><path d="M136.873,45.218h-9.4v-9.4h9.4Zm-8.226-1.175H135.7V36.991h-7.051Z" fill="#6b52e8"/><path d="M148.626,45.218h-9.4v-9.4h9.4ZM140.4,44.043h7.052V36.991H140.4Z" fill="#6b52e8"/><path d="M160.379,45.218h-9.4v-9.4h9.4Zm-8.227-1.175H159.2V36.991h-7.051Z" fill="#6b52e8"/><path d="M495.116,56.373H463.134a10.076,10.076,0,0,1-7.886-16.346l15.594-19.612V9.362h-3.526V3.486h23.506V9.362H487.3V20.274L503,40.027a10.076,10.076,0,0,1-7.886,16.346ZM468.492,8.187h3.525V20.825L456.169,40.759A8.9,8.9,0,0,0,463.134,55.2h31.982a8.9,8.9,0,0,0,6.966-14.438L486.121,20.683V8.187h3.525V4.661H468.492Z" fill="#6b52e8"/><path d="M491.492,51.672H466.318a6.7,6.7,0,0,1-5.306-10.8l6.178-8.005h23.43l6.178,8.005a6.7,6.7,0,0,1-5.306,10.8ZM467.769,34.043l-5.827,7.547a5.528,5.528,0,0,0,4.376,8.906h25.174a5.528,5.528,0,0,0,4.376-8.906l-5.827-7.547Z" fill="#6b52e8"/><path d="M479.069,16.445a3.557,3.557,0,1,1,3.557-3.557A3.561,3.561,0,0,1,479.069,16.445Zm0-5.876a2.32,2.32,0,1,0,2.32,2.319A2.322,2.322,0,0,0,479.069,10.569Z" fill="#6b52e8"/><path d="M480.832,28.154a4.1,4.1,0,1,1,4.1-4.1A4.106,4.106,0,0,1,480.832,28.154Zm0-7.051a2.95,2.95,0,1,0,2.949,2.95A2.954,2.954,0,0,0,480.832,21.1Z" fill="#6b52e8"/><path d="M313.059,89.2H215.513V82.146h97.546Zm-96.371-1.175h95.2v-4.7H216.688Z" fill="#6b52e8"/><path d="M284.853,76.269H243.719V70.393h41.134Zm-39.959-1.175h38.783V71.568H244.894Z" fill="#6b52e8"/><polygon points="270.75 70.981 269.574 70.981 269.574 60.991 257.822 60.991 257.822 70.981 256.646 70.981 256.646 59.816 270.75 59.816 270.75 70.981" fill="#6b52e8"/><path d="M304.177,60.991H223.219a3.009,3.009,0,0,1-3-3.006V6.41a3.009,3.009,0,0,1,3-3.006h80.958a3.009,3.009,0,0,1,3,3.006V57.985A3.009,3.009,0,0,1,304.177,60.991ZM223.219,4.579a1.833,1.833,0,0,0-1.83,1.831V57.985a1.833,1.833,0,0,0,1.83,1.831h80.958a1.833,1.833,0,0,0,1.83-1.831V6.41a1.833,1.833,0,0,0-1.83-1.831Z" fill="#6b52e8"/><path d="M302.481,56.29H224.915V8.105h77.566ZM226.09,55.115h75.216V9.28H226.09Z" fill="#6b52e8"/><rect x="271.925" y="8.986" width="1.175" height="46.716" fill="#6b52e8"/><path d="M266.049,22.208H229.616V15.156h36.433Zm-35.258-1.176h34.082v-4.7H230.791Z" fill="#6b52e8"/><path d="M262.523,38.661H229.616V25.733h32.907Zm-31.732-1.175h30.556V26.909H230.791Z" fill="#6b52e8"/><path d="M244.894,48.063H229.616V42.187h15.278Zm-14.1-1.175h12.928V43.362H230.791Z" fill="#6b52e8"/><path d="M1182.347,65.684a8.24,8.24,0,1,1,8.239-8.239A8.249,8.249,0,0,1,1182.347,65.684Zm0-15.278a7.039,7.039,0,1,0,7.039,7.039A7.046,7.046,0,0,0,1182.347,50.406Z" fill="#6b52e8"/><path d="M1182.347,21.024a8.239,8.239,0,1,1,8.239-8.239A8.249,8.249,0,0,1,1182.347,21.024Zm0-15.278a7.039,7.039,0,1,0,7.039,7.039A7.046,7.046,0,0,0,1182.347,5.746Z" fill="#6b52e8"/><path d="M1215.254,65.684a8.24,8.24,0,1,1,8.239-8.239A8.249,8.249,0,0,1,1215.254,65.684Zm0-15.278a7.039,7.039,0,1,0,7.039,7.039A7.046,7.046,0,0,0,1215.254,50.406Z" fill="#6b52e8"/><rect x="1181.171" y="19.837" width="1.175" height="29.381" fill="#6b52e8"/><path d="M1215.254,49.218h-1.175V25.781c0-3.081-1.441-8.295-6.843-8.295h-9.611V16.311h9.641c6.3,0,7.988,5.923,7.988,9.424Z" fill="#6b52e8"/><polygon points="1206.709 6.791 1207.481 7.619 1197.914 16.897 1207.614 26.309 1206.842 27.137 1196.254 16.897 1206.709 6.791" fill="#6b52e8"/><path d="M1321.368,60.022h-8.135L1329.76,4.785h8.135Zm-6.556-1.175h5.681L1336.316,5.96h-5.681Z" fill="#6b52e8"/><path d="M1310.316,49.436l-22.33-14.716V29.91l22.33-13.611v7l-14.963,9.121,14.963,9.86Zm-21.155-15.35,19.979,13.168V42.912l-15.982-10.533,15.982-9.742V18.391l-19.979,12.178Z" fill="#6b52e8"/><path d="M1343.223,49.436V42.278l14.962-9.86L1343.223,23.3v-7l22.33,13.611v4.81Zm1.175-6.524v4.342l19.979-13.168V30.569L1344.4,18.391v4.246l15.982,9.742Z" fill="#6b52e8"/><polygon points="723.635 13.376 714.44 22.492 714.44 0.733 713.265 0.733 713.265 22.494 704.206 13.509 703.345 14.281 713.851 24.736 724.496 14.148 723.635 13.376" fill="#6b52e8"/><path d="M739.12,63.373H687.409V23.414h7.051V44.568h38.784V23.414h5.876ZM688.584,62.2h49.361V24.589h-3.526V45.744H693.285V24.589h-4.7Z" fill="#6b52e8"/><path d="M709.7,57.454h-8.144V49.311H709.7Zm-7.051-1.091h5.959V50.4h-5.959Z" fill="#6b52e8"/><path d="M726.151,57.454h-8.144V49.311h8.144ZM719.1,56.363h5.959V50.4H719.1Z" fill="#6b52e8"/><path d="M706.213,42.218h-9.4v-9.4h9.4Zm-8.227-1.175h7.052V33.991h-7.052Z" fill="#6b52e8"/><path d="M717.966,42.218h-9.4v-9.4h9.4Zm-8.227-1.175h7.051V33.991h-7.051Z" fill="#6b52e8"/><path d="M729.718,42.218h-9.4v-9.4h9.4Zm-8.227-1.175h7.052V33.991h-7.052Z" fill="#6b52e8"/><path d="M955.456,129.146H923.474a10.075,10.075,0,0,1-7.886-16.345l15.594-19.612V82.136h-3.526V76.259h23.5v5.877h-3.526V93.047L963.342,112.8a10.075,10.075,0,0,1-7.886,16.345ZM928.831,80.96h3.526V93.6l-15.849,19.934a8.9,8.9,0,0,0,6.966,14.439h31.982a8.9,8.9,0,0,0,6.965-14.439L946.46,93.457V80.96h3.526V77.435H928.831Z" fill="#6b52e8"/><path d="M951.831,124.445H926.657a6.7,6.7,0,0,1-5.305-10.8l6.178-8h23.429l6.178,8a6.7,6.7,0,0,1-5.306,10.8Zm-23.723-17.629-5.827,7.547a5.528,5.528,0,0,0,4.376,8.906h25.174a5.528,5.528,0,0,0,4.377-8.906l-5.827-7.547Z" fill="#6b52e8"/><path d="M939.409,69.184a2.327,2.327,0,1,1,2.327-2.327A2.33,2.33,0,0,1,939.409,69.184Zm0-3.526a1.2,1.2,0,1,0,1.2,1.2A1.2,1.2,0,0,0,939.409,65.658Z" fill="#6b52e8"/><path d="M939.409,89.218a3.557,3.557,0,1,1,3.556-3.557A3.56,3.56,0,0,1,939.409,89.218Zm0-5.876a2.32,2.32,0,1,0,2.319,2.319A2.322,2.322,0,0,0,939.409,83.342Z" fill="#6b52e8"/><path d="M941.171,100.928a4.1,4.1,0,1,1,4.1-4.1A4.106,4.106,0,0,1,941.171,100.928Zm0-7.052a2.95,2.95,0,1,0,2.95,2.95A2.953,2.953,0,0,0,941.171,93.876Z" fill="#6b52e8"/><path d="M1466.022,61.022H1434.04a10.075,10.075,0,0,1-7.886-16.345l15.594-19.612V14.012h-3.525V8.136h23.505v5.876H1458.2V24.923l15.706,19.754a10.075,10.075,0,0,1-7.886,16.345ZM1439.4,12.837h3.526V25.475l-15.849,19.933a8.9,8.9,0,0,0,6.965,14.439h31.982a8.9,8.9,0,0,0,6.966-14.439l-15.961-20.075v-12.5h3.525V9.311H1439.4Z" fill="#6b52e8"/><path d="M1462.4,56.321h-25.174a6.7,6.7,0,0,1-5.306-10.8l6.178-8h23.43l6.178,8a6.7,6.7,0,0,1-5.306,10.8Zm-23.723-17.629-5.827,7.548a5.528,5.528,0,0,0,4.376,8.906H1462.4a5.528,5.528,0,0,0,4.376-8.906l-5.827-7.548Z" fill="#6b52e8"/><path d="M1449.975,21.094a3.557,3.557,0,1,1,3.557-3.556A3.561,3.561,0,0,1,1449.975,21.094Zm0-5.876a2.32,2.32,0,1,0,2.32,2.32A2.322,2.322,0,0,0,1449.975,15.218Z" fill="#6b52e8"/><path d="M1451.738,32.8a4.1,4.1,0,1,1,4.1-4.1A4.107,4.107,0,0,1,1451.738,32.8Zm0-7.052a2.951,2.951,0,1,0,2.95,2.951A2.954,2.954,0,0,0,1451.738,25.752Z" fill="#6b52e8"/><path d="M881.4,73.95H783.852V66.9H881.4Zm-96.371-1.175h95.2v-4.7h-95.2Z" fill="#6b52e8"/><path d="M853.192,61.022H812.058V55.146h41.134Zm-39.959-1.175h38.784V56.321H813.233Z" fill="#6b52e8"/><polygon points="839.089 55.733 837.914 55.733 837.914 45.744 826.161 45.744 826.161 55.733 824.986 55.733 824.986 44.568 839.089 44.568 839.089 55.733" fill="#6b52e8"/><path d="M834.388,6.96H797.955V-.091h36.433ZM799.13,5.785h34.083v-4.7H799.13Z" fill="#6b52e8"/><path d="M830.862,23.414H797.955V10.486h32.907ZM799.13,22.239h30.557V11.661H799.13Z" fill="#6b52e8"/><path d="M813.233,32.816H797.955V26.94h15.278Zm-14.1-1.175h12.928V28.115H799.13Z" fill="#6b52e8"/><path d="M1636.006,70.249H1538.46V63.2h97.546Zm-96.371-1.175h95.2v-4.7h-95.2Z" fill="#6b52e8"/><path d="M1607.8,57.321h-41.134V51.445H1607.8Zm-39.959-1.175h38.783V52.62h-38.783Z" fill="#6b52e8"/><polygon points="1593.697 52.032 1592.521 52.032 1592.521 42.043 1580.769 42.043 1580.769 52.032 1579.594 52.032 1579.594 40.867 1593.697 40.867 1593.697 52.032" fill="#6b52e8"/><path d="M1585.47,19.713h-32.907V6.785h32.907Zm-31.732-1.175H1584.3V7.96h-30.557Z" fill="#6b52e8"/><path d="M1567.841,29.115h-15.278V23.239h15.278Zm-14.1-1.175h12.928V24.414h-12.928Z" fill="#6b52e8"/><path d="M1871.645,242.362h-70.516v-47.01h70.516Zm-69.34-1.175h68.164v-44.66h-68.164Z" fill="#6b52e8"/><rect x="1810.531" y="195.352" width="1.175" height="47.01" fill="#6b52e8"/><path d="M1864.593,208.28h-48.185v-7.052h48.185Zm-47.01-1.176h45.835v-4.7h-45.835Z" fill="#6b52e8"/><path d="M1865.768,222.383h-28.206v-7.052h28.206Zm-27.03-1.176h25.855v-4.7h-25.855Z" fill="#6b52e8"/><path d="M1864.593,237.661h-11.752v-4.7h11.752Zm-10.577-1.175h9.4v-2.351h-9.4Z" fill="#6b52e8"/><path d="M1846.964,237.661h-11.752v-4.7h11.752Zm-10.577-1.175h9.4v-2.351h-9.4Z" fill="#6b52e8"/><path d="M1828.16,237.661h-11.752v-4.7h11.752Zm-10.577-1.175h9.4v-2.351h-9.4Z" fill="#6b52e8"/><path d="M1832.861,229.434h-15.278V212.981h15.278Zm-14.1-1.175h12.928v-14.1h-12.928Z" fill="#6b52e8"/><path d="M1825.222,223.524a4.08,4.08,0,1,1,4.08-4.08A4.085,4.085,0,0,1,1825.222,223.524Zm0-7.052a2.972,2.972,0,1,0,2.972,2.972A2.975,2.975,0,0,0,1825.222,216.472Z" fill="#6b52e8"/><path d="M1830.511,227.084h-1.175v-2.468a1.06,1.06,0,0,0-1.059-1.058h-6.11a1.059,1.059,0,0,0-1.058,1.058v2.468h-1.176v-2.468a2.236,2.236,0,0,1,2.234-2.233h6.11a2.236,2.236,0,0,1,2.234,2.233Z" fill="#6b52e8"/><path d="M1985.005,165a8.24,8.24,0,1,1,8.24-8.24A8.25,8.25,0,0,1,1985.005,165Zm0-15.279a7.039,7.039,0,1,0,7.039,7.039A7.047,7.047,0,0,0,1985.005,149.725Z" fill="#6b52e8"/><path d="M1985.005,120.344a8.24,8.24,0,1,1,8.24-8.24A8.249,8.249,0,0,1,1985.005,120.344Zm0-15.278a7.039,7.039,0,1,0,7.039,7.038A7.047,7.047,0,0,0,1985.005,105.066Z" fill="#6b52e8"/><path d="M2017.912,165a8.24,8.24,0,1,1,8.24-8.24A8.25,8.25,0,0,1,2017.912,165Zm0-15.279a7.039,7.039,0,1,0,7.039,7.039A7.047,7.047,0,0,0,2017.912,149.725Z" fill="#6b52e8"/><rect x="1983.83" y="119.156" width="1.175" height="29.381" fill="#6b52e8"/><path d="M2017.912,148.537h-1.175V125.1c0-3.081-1.44-8.295-6.842-8.295h-9.611V115.63h9.641c6.3,0,7.987,5.924,7.987,9.424Z" fill="#6b52e8"/><polygon points="2009.368 106.111 2010.139 106.939 2000.573 116.217 2010.272 125.629 2009.501 126.457 1998.913 116.217 2009.368 106.111" fill="#6b52e8"/><path d="M1725.7,61.91a8.239,8.239,0,1,1,8.24-8.239A8.249,8.249,0,0,1,1725.7,61.91Zm0-15.278a7.039,7.039,0,1,0,7.039,7.039A7.046,7.046,0,0,0,1725.7,46.632Z" fill="#6b52e8"/><path d="M1725.7,17.251a8.24,8.24,0,1,1,8.24-8.24A8.25,8.25,0,0,1,1725.7,17.251Zm0-15.279a7.039,7.039,0,1,0,7.039,7.039A7.047,7.047,0,0,0,1725.7,1.972Z" fill="#6b52e8"/><path d="M1758.6,61.91a8.239,8.239,0,1,1,8.239-8.239A8.249,8.249,0,0,1,1758.6,61.91Zm0-15.278a7.039,7.039,0,1,0,7.039,7.039A7.046,7.046,0,0,0,1758.6,46.632Z" fill="#6b52e8"/><rect x="1724.521" y="16.063" width="1.175" height="29.381" fill="#6b52e8"/><path d="M1758.6,45.444h-1.176V22.007c0-3.081-1.44-8.3-6.842-8.3h-9.611V12.537h9.641c6.305,0,7.988,5.923,7.988,9.424Z" fill="#6b52e8"/><polygon points="1750.059 3.018 1750.831 3.846 1741.264 13.124 1750.964 22.535 1750.192 23.364 1739.604 13.124 1750.059 3.018" fill="#6b52e8"/><path d="M1171.358,236.475c1.669,0,1.9-.917,1.9-1.74a14.024,14.024,0,0,0-.188-1.974,13.734,13.734,0,0,1-.189-1.952c0-2.163,1.411-3.08,3.409-3.08h.494v1.293h-.423c-1.387,0-1.858.753-1.858,2.022a10.287,10.287,0,0,0,.165,1.669,10.868,10.868,0,0,1,.165,1.787,2.247,2.247,0,0,1-1.693,2.539v.047a2.26,2.26,0,0,1,1.693,2.563,10.638,10.638,0,0,1-.165,1.787,10.564,10.564,0,0,0-.165,1.692c0,1.317.542,2.046,1.858,2.046h.423v1.293h-.494c-1.951,0-3.409-.846-3.409-3.221a13.389,13.389,0,0,1,.189-1.928,13.061,13.061,0,0,0,.188-1.9c0-.729-.235-1.74-1.9-1.74Z" fill="#6b52e8"/><path d="M1193.358,237.674c-1.668,0-1.9,1.011-1.9,1.74a13.061,13.061,0,0,0,.188,1.9,13.249,13.249,0,0,1,.189,1.928c0,2.375-1.482,3.221-3.41,3.221h-.494v-1.293h.4c1.316-.024,1.881-.729,1.881-2.046a14.29,14.29,0,0,0-.164-1.692,10.686,10.686,0,0,1-.189-1.787,2.3,2.3,0,0,1,1.693-2.563v-.047a2.287,2.287,0,0,1-1.693-2.539,10.952,10.952,0,0,1,.189-1.787,13.916,13.916,0,0,0,.164-1.669c0-1.269-.494-2-1.857-2.022h-.424v-1.293h.471c2,0,3.433.917,3.433,3.08a13.589,13.589,0,0,1-.189,1.952,14.024,14.024,0,0,0-.188,1.974c0,.823.236,1.74,1.9,1.74Z" fill="#6b52e8"/><path d="M2443.522,218.6h-8.135l16.527-55.237h8.135Zm-6.555-1.175h5.681l15.822-52.887h-5.681Z" fill="#6b52e8"/><path d="M2432.47,208.013,2410.14,193.3v-4.81l22.33-13.611v7L2417.507,191l14.963,9.86Zm-21.155-15.35,19.98,13.168v-4.342l-15.982-10.533,15.982-9.742v-4.246l-19.98,12.178Z" fill="#6b52e8"/><path d="M2465.377,208.013v-7.158L2480.34,191l-14.963-9.121v-7l22.33,13.611v4.81Zm1.175-6.524v4.342l19.98-13.168v-3.517l-19.98-12.178v4.246l15.982,9.742Z" fill="#6b52e8"/><polygon points="1604.634 188.912 1595.439 198.028 1595.439 174.269 1594.263 174.269 1594.263 198.03 1585.205 189.045 1584.343 189.816 1594.85 200.272 1605.495 189.683 1604.634 188.912" fill="#6b52e8"/><path d="M1620.119,238.908h-51.711V198.95h7.051V220.1h38.784V198.95h5.876Zm-50.536-1.175h49.361V200.125h-3.526v21.154h-41.134V200.125h-4.7Z" fill="#6b52e8"/><path d="M1590.7,232.99h-8.144v-8.143h8.144Zm-7.051-1.091h5.959v-5.96h-5.959Z" fill="#6b52e8"/><path d="M1607.15,232.99h-8.144v-8.143h8.144ZM1600.1,231.9h5.959v-5.96H1600.1Z" fill="#6b52e8"/><path d="M1587.212,217.754h-9.4v-9.4h9.4Zm-8.227-1.176h7.052v-7.051h-7.052Z" fill="#6b52e8"/><path d="M1598.964,217.754h-9.4v-9.4h9.4Zm-8.226-1.176h7.051v-7.051h-7.051Z" fill="#6b52e8"/><path d="M1610.717,217.754h-9.4v-9.4h9.4Zm-8.227-1.176h7.052v-7.051h-7.052Z" fill="#6b52e8"/><path d="M1914.31,205.465l-.407-.263-4.111-3.09-4.183,3.346-.775-.476.1-.469,1.453-4.962-4.11-3.091.25-.86.472-.035h4.555l1.535-5.239.907-.056.19.442,1.658,4.853h4.732l.324.82-.34.317-3.4,2.717,1.873,5.479Zm-4.144-4.543,3.051,2.294-1.422-4.159.331-.315,2.5-2h-3.593l-.182-.436-1.235-3.612-1.174,4.012-.489.036H1904.6l3.122,2.349-.114.456-1.072,3.663,3.206-2.564.419.279Z" fill="#6b52e8"/><path d="M1931.725,75.445l3.218-10.991L1926.5,58.1h10.3l3.15-10.757,3.679,10.757h9.779l-7.68,6.142,3.827,11.2-9.188-6.908Zm8.622-8.4,6.863,5.16-2.859-8.362,5.709-4.564h-7.269l-2.751-8.047-2.356,8.047h-7.667L1936.3,64l-2.4,8.2Z" fill="#6b52e8"/><path d="M2055.382,77.362H2023.4a10.076,10.076,0,0,1-7.886-16.345l15.594-19.612V30.352h-3.525V24.475h23.505v5.877h-3.526V41.263l15.706,19.754a10.075,10.075,0,0,1-7.886,16.345Zm-26.624-48.186h3.526V41.814l-15.849,19.934a8.9,8.9,0,0,0,6.965,14.439h31.982a8.9,8.9,0,0,0,6.966-14.439l-15.961-20.075v-12.5h3.525V25.651h-21.154Z" fill="#6b52e8"/><path d="M2051.758,72.661h-25.174a6.7,6.7,0,0,1-5.306-10.8l6.178-8h23.43l6.178,8a6.7,6.7,0,0,1-5.306,10.8Zm-23.723-17.629-5.827,7.547a5.529,5.529,0,0,0,4.376,8.907h25.174a5.529,5.529,0,0,0,4.376-8.907l-5.827-7.547Z" fill="#6b52e8"/><path d="M2039.335,17.4a2.327,2.327,0,1,1,2.328-2.327A2.329,2.329,0,0,1,2039.335,17.4Zm0-3.525a1.2,1.2,0,1,0,1.2,1.2A1.2,1.2,0,0,0,2039.335,13.875Z" fill="#6b52e8"/><path d="M2039.335,37.434a3.557,3.557,0,1,1,3.557-3.557A3.561,3.561,0,0,1,2039.335,37.434Zm0-5.876a2.32,2.32,0,1,0,2.32,2.319A2.322,2.322,0,0,0,2039.335,31.558Z" fill="#6b52e8"/><path d="M2041.1,49.144a4.1,4.1,0,1,1,4.1-4.1A4.107,4.107,0,0,1,2041.1,49.144Zm0-7.052a2.951,2.951,0,1,0,2.95,2.95A2.954,2.954,0,0,0,2041.1,42.092Z" fill="#6b52e8"/><path d="M2036.989,249.846h-80.957a3.009,3.009,0,0,1-3.006-3.006V195.265a3.009,3.009,0,0,1,3.006-3.006h80.957a3.009,3.009,0,0,1,3.006,3.006V246.84A3.009,3.009,0,0,1,2036.989,249.846Zm-80.957-56.412a1.833,1.833,0,0,0-1.831,1.831V246.84a1.833,1.833,0,0,0,1.831,1.831h80.957a1.833,1.833,0,0,0,1.831-1.831V195.265a1.833,1.833,0,0,0-1.831-1.831Z" fill="#6b52e8"/><path d="M2035.294,245.145h-77.567V196.96h77.567ZM1958.9,243.97h75.217V198.135H1958.9Z" fill="#6b52e8"/><rect x="2004.737" y="198.135" width="1.175" height="47.01" fill="#6b52e8"/><path d="M1998.861,211.063h-36.433v-7.052h36.433Zm-35.258-1.175h34.083v-4.7H1963.6Z" fill="#6b52e8"/><path d="M1995.335,227.517h-32.907V214.589h32.907Zm-31.732-1.176h30.557V215.764H1963.6Z" fill="#6b52e8"/><path d="M1977.706,236.919h-15.278v-5.877h15.278Zm-14.1-1.176h12.928v-3.525H1963.6Z" fill="#6b52e8"/><path d="M1766.583,170.671h-97.546V163.62h97.546Zm-96.371-1.175h95.2v-4.7h-95.2Z" fill="#6b52e8"/><path d="M1738.377,157.744h-41.134v-5.877h41.134Zm-39.959-1.176H1737.2v-3.525h-38.784Z" fill="#6b52e8"/><polygon points="1724.274 153.043 1723.098 153.043 1723.098 142.465 1711.346 142.465 1711.346 153.043 1710.171 153.043 1710.171 141.29 1724.274 141.29 1724.274 153.043" fill="#6b52e8"/><path d="M1757.7,142.465h-80.957a3.009,3.009,0,0,1-3.006-3.006V87.884a3.009,3.009,0,0,1,3.006-3.006H1757.7a3.009,3.009,0,0,1,3.006,3.006v51.575A3.009,3.009,0,0,1,1757.7,142.465Zm-80.957-56.412a1.833,1.833,0,0,0-1.831,1.831v51.575a1.833,1.833,0,0,0,1.831,1.831H1757.7a1.832,1.832,0,0,0,1.83-1.831V87.884a1.832,1.832,0,0,0-1.83-1.831Z" fill="#6b52e8"/><path d="M1756.006,137.764h-77.567V89.579h77.567Zm-76.392-1.175h75.216V90.754h-75.216Z" fill="#6b52e8"/><rect x="1725.449" y="90.754" width="1.175" height="47.01" fill="#6b52e8"/><path d="M1719.573,103.682H1683.14V96.63h36.433Zm-35.258-1.175H1718.4v-4.7h-34.082Z" fill="#6b52e8"/><path d="M1716.047,120.135H1683.14V107.208h32.907Zm-31.732-1.175h30.557V108.383h-30.557Z" fill="#6b52e8"/><path d="M1698.418,129.537H1683.14v-5.876h15.278Zm-14.1-1.175h12.928v-3.526h-12.928Z" fill="#6b52e8"/><path d="M2125.036,195.771l-10.547-10.548,4.985-4.986,5.562,5.561,14.376-14.375,4.986,4.985Zm-8.885-10.548,8.885,8.886,17.7-17.7-3.324-3.324-14.376,14.376-5.562-5.561Z" fill="#6b52e8"/><path d="M2107.407,147.3h31.732v-9.4h-31.732Zm1.176-8.227h29.381v7.052h-29.381Z" fill="#6b52e8"/><path d="M2143.84,134.372H2137.1a13.874,13.874,0,0,0-27.649,0h-17.32v76.392h63.464V134.372Zm-20.567-11.533a12.721,12.721,0,0,1,12.649,11.533h-25.3A12.722,12.722,0,0,1,2123.273,122.839Zm-19.391,20.935v-8.227h38.783v15.279h-38.783ZM2143.84,152v-8.227h4.7v58.763h-50.536V143.774h4.7V152Zm10.578,57.588H2093.3V135.547h9.4V142.6h-5.876v61.113h52.887V142.6h-5.877v-7.052h10.578Z" fill="#6b52e8"/><rect x="2105.057" y="167.279" width="31.732" height="1.175" fill="#6b52e8"/><rect x="2105.057" y="174.331" width="22.33" height="1.175" fill="#6b52e8"/><rect x="2105.057" y="160.228" width="38.783" height="1.175" fill="#6b52e8"/><path d="M1394.326,249.771l-10.548-10.548,4.986-4.986,5.562,5.561,14.376-14.375,4.985,4.985Zm-8.886-10.548,8.886,8.886,17.7-17.7-3.324-3.323-14.376,14.375-5.562-5.561Z" fill="#6b52e8"/><path d="M1376.7,201.3h31.732v-9.4H1376.7Zm1.175-8.227h29.381v7.052h-29.381Z" fill="#6b52e8"/><rect x="1374.346" y="221.28" width="31.732" height="1.175" fill="#6b52e8"/><rect x="1374.346" y="228.331" width="22.33" height="1.175" fill="#6b52e8"/><rect x="1374.346" y="214.228" width="38.783" height="1.175" fill="#6b52e8"/><path d="M1037.862,213.1l-10.547-10.548,4.985-4.986,5.562,5.561,14.376-14.375,4.986,4.985Zm-8.885-10.548,8.885,8.886,17.7-17.7-3.324-3.323-14.376,14.375-5.562-5.561Z" fill="#6b52e8"/><path d="M1020.233,164.63h31.732v-9.4h-31.732Zm1.176-8.227h29.381v7.052h-29.381Z" fill="#6b52e8"/><path d="M1056.666,151.7h-6.742a13.874,13.874,0,0,0-27.649,0h-17.32v76.392h63.464V151.7ZM1036.1,140.169a12.721,12.721,0,0,1,12.649,11.533h-25.3A12.722,12.722,0,0,1,1036.1,140.169ZM1016.708,161.1v-8.227h38.783v15.279h-38.783Zm39.958,8.227V161.1h4.7v58.763h-50.536V161.1h4.7v8.227Zm10.578,57.588H1006.13V152.877h9.4v7.052h-5.876v61.113h52.887V159.929h-5.877v-7.052h10.578Z" fill="#6b52e8"/><rect x="1017.883" y="184.609" width="31.732" height="1.175" fill="#6b52e8"/><rect x="1017.883" y="191.661" width="22.33" height="1.175" fill="#6b52e8"/><rect x="1017.883" y="177.558" width="38.783" height="1.175" fill="#6b52e8"/><path d="M12.141,69.086a8.24,8.24,0,1,1,8.24-8.24A8.25,8.25,0,0,1,12.141,69.086Zm0-15.279a7.039,7.039,0,1,0,7.039,7.039A7.047,7.047,0,0,0,12.141,53.807Z" fill="#6b52e8"/><path d="M12.141,24.426a8.24,8.24,0,1,1,8.24-8.239A8.249,8.249,0,0,1,12.141,24.426Zm0-15.278a7.039,7.039,0,1,0,7.039,7.039A7.047,7.047,0,0,0,12.141,9.148Z" fill="#6b52e8"/><path d="M45.049,69.086a8.24,8.24,0,1,1,8.239-8.24A8.25,8.25,0,0,1,45.049,69.086Zm0-15.279a7.039,7.039,0,1,0,7.038,7.039A7.047,7.047,0,0,0,45.049,53.807Z" fill="#6b52e8"/><rect x="10.966" y="23.238" width="1.175" height="29.381" fill="#6b52e8"/><path d="M45.049,52.619H43.873V29.182c0-3.081-1.44-8.294-6.842-8.294H27.42V19.712h9.641c6.3,0,7.988,5.924,7.988,9.424Z" fill="#6b52e8"/><polygon points="36.504 10.193 37.275 11.021 27.709 20.299 37.408 29.711 36.637 30.539 26.049 20.299 36.504 10.193" fill="#6b52e8"/><path d="M250.679,148.168c2.755,0,3.143-1.514,3.143-2.872a23.18,23.18,0,0,0-.31-3.26,22.536,22.536,0,0,1-.311-3.222c0-3.571,2.329-5.085,5.627-5.085h.815v2.135h-.7c-2.291,0-3.068,1.242-3.068,3.338a17.024,17.024,0,0,0,.273,2.756,18.018,18.018,0,0,1,.271,2.949c.04,2.484-1.048,3.726-2.8,4.192v.078c1.747.427,2.835,1.747,2.8,4.231a17.624,17.624,0,0,1-.271,2.949,17.5,17.5,0,0,0-.273,2.795c0,2.173.9,3.377,3.068,3.377h.7v2.134h-.815c-3.221,0-5.627-1.4-5.627-5.317a22,22,0,0,1,.311-3.183,21.583,21.583,0,0,0,.31-3.143c0-1.2-.388-2.873-3.143-2.873Z" fill="#6b52e8"/><path d="M287,150.147c-2.755,0-3.143,1.67-3.143,2.873a21.583,21.583,0,0,0,.31,3.143,22,22,0,0,1,.311,3.183c0,3.921-2.446,5.317-5.629,5.317h-.815v-2.134h.659c2.174-.039,3.106-1.2,3.106-3.377a23.761,23.761,0,0,0-.271-2.795,17.633,17.633,0,0,1-.311-2.949c0-2.484,1.086-3.8,2.8-4.231V149.1c-1.709-.466-2.8-1.708-2.8-4.192a18.083,18.083,0,0,1,.311-2.949,23.123,23.123,0,0,0,.271-2.756c0-2.1-.815-3.3-3.066-3.338h-.7v-2.135h.777c3.3,0,5.667,1.514,5.667,5.085a22.536,22.536,0,0,1-.311,3.222,23.18,23.18,0,0,0-.31,3.26c0,1.358.388,2.872,3.143,2.872Z" fill="#6b52e8"/><path d="M229.3,250.115h-8.135l16.527-55.238h8.135Zm-6.556-1.176h5.681l15.823-52.886h-5.681Z" fill="#6b52e8"/><path d="M218.245,239.529l-22.33-14.717V220l22.33-13.611v7l-14.963,9.12,14.963,9.861Zm-21.155-15.35,19.979,13.168V233l-15.982-10.533,15.982-9.741v-4.246L197.09,220.662Z" fill="#6b52e8"/><path d="M251.152,239.529v-7.158l14.962-9.861-14.962-9.12v-7L273.482,220v4.81ZM252.327,233v4.343l19.979-13.168v-3.517l-19.979-12.178v4.246l15.982,9.741Z" fill="#6b52e8"/><polygon points="369.265 88.52 360.069 97.636 360.069 73.878 358.894 73.878 358.894 97.638 349.835 88.653 348.974 89.425 359.48 99.88 370.126 89.292 369.265 88.52" fill="#6b52e8"/><path d="M384.75,138.517H333.038V98.558h7.052v21.155h38.783V98.558h5.877Zm-50.536-1.176h49.36V99.733h-3.525v21.155H338.915V99.733h-4.7Z" fill="#6b52e8"/><path d="M355.327,132.6h-8.144v-8.143h8.144Zm-7.052-1.092h5.959v-5.96h-5.959Z" fill="#6b52e8"/><path d="M371.78,132.6h-8.144v-8.143h8.144Zm-7.051-1.092h5.959v-5.96h-5.959Z" fill="#6b52e8"/><path d="M351.842,117.362h-9.4v-9.4h9.4Zm-8.226-1.175h7.051v-7.052h-7.051Z" fill="#6b52e8"/><path d="M363.6,117.362h-9.4v-9.4h9.4Zm-8.227-1.175h7.052v-7.052h-7.052Z" fill="#6b52e8"/><path d="M375.347,117.362h-9.4v-9.4h9.4Zm-8.226-1.175h7.051v-7.052h-7.051Z" fill="#6b52e8"/><path d="M384.964,48.878l3.218-10.992-8.445-6.349h10.3l3.15-10.757,3.679,10.757h9.779l-7.68,6.141,3.827,11.2-9.188-6.908Zm8.622-8.4,6.863,5.16-2.859-8.361,5.709-4.565H396.03l-2.751-8.046-2.356,8.046h-7.667l6.283,4.724-2.4,8.2Z" fill="#6b52e8"/><path d="M144.538,222.248l-.406-.263-4.111-3.09-4.183,3.346-.775-.476.1-.469,1.453-4.962-4.11-3.091.25-.86.472-.035h4.555l1.534-5.238.908-.057.19.442,1.658,4.853H146.8l.324.82-.34.317-3.4,2.717,1.873,5.48Zm-4.143-4.543L143.446,220l-1.422-4.159.33-.315,2.5-2h-3.592l-.182-.436-1.235-3.613-1.174,4.013-.489.036h-3.353l3.123,2.349-.115.456-1.072,3.663,3.207-2.565.419.279Z" fill="#6b52e8"/><path d="M96.57,132.65H64.588A10.075,10.075,0,0,1,56.7,116.305L72.3,96.693V85.64H68.77V79.764H92.275V85.64H88.75V96.551l15.706,19.754A10.075,10.075,0,0,1,96.57,132.65ZM69.946,84.465h3.525V97.1L57.623,117.036a8.9,8.9,0,0,0,6.965,14.439H96.57a8.9,8.9,0,0,0,6.966-14.439L87.574,96.961v-12.5H91.1V80.939H69.946Z" fill="#6b52e8"/><path d="M92.946,127.949H67.772a6.7,6.7,0,0,1-5.306-10.8l6.178-8H92.073l6.179,8a6.7,6.7,0,0,1-5.306,10.8ZM69.223,110.32,63.4,117.868a5.528,5.528,0,0,0,4.376,8.906H92.946a5.528,5.528,0,0,0,4.376-8.906L91.5,110.32Z" fill="#6b52e8"/><path d="M80.523,72.689a2.327,2.327,0,1,1,2.327-2.327A2.331,2.331,0,0,1,80.523,72.689Zm0-3.526a1.2,1.2,0,1,0,1.2,1.2A1.2,1.2,0,0,0,80.523,69.163Z" fill="#6b52e8"/><path d="M80.523,92.723a3.557,3.557,0,1,1,3.557-3.557A3.561,3.561,0,0,1,80.523,92.723Zm0-5.877a2.32,2.32,0,1,0,2.319,2.32A2.323,2.323,0,0,0,80.523,86.846Z" fill="#6b52e8"/><path d="M82.286,104.432a4.1,4.1,0,1,1,4.1-4.1A4.107,4.107,0,0,1,82.286,104.432Zm0-7.051a2.95,2.95,0,1,0,2.949,2.95A2.953,2.953,0,0,0,82.286,97.381Z" fill="#6b52e8"/><path d="M377.848,237.31H345.866a10.075,10.075,0,0,1-7.886-16.345l15.594-19.612V190.3h-3.525v-5.876h23.5V190.3h-3.526v10.911l15.706,19.754a10.075,10.075,0,0,1-7.886,16.345Zm-26.624-48.185h3.526v12.638L338.9,221.7a8.9,8.9,0,0,0,6.965,14.439h31.982a8.9,8.9,0,0,0,6.966-14.439l-15.961-20.075v-12.5h3.525V185.6H351.224Z" fill="#6b52e8"/><path d="M374.224,232.609H349.05a6.7,6.7,0,0,1-5.306-10.8l6.178-8h23.43l6.178,8a6.7,6.7,0,0,1-5.306,10.8ZM350.5,214.981l-5.827,7.547a5.528,5.528,0,0,0,4.376,8.906h25.174a5.528,5.528,0,0,0,4.376-8.906l-5.827-7.547Z" fill="#6b52e8"/><path d="M361.8,177.349a2.327,2.327,0,1,1,2.328-2.327A2.33,2.33,0,0,1,361.8,177.349Zm0-3.526a1.2,1.2,0,1,0,1.2,1.2A1.2,1.2,0,0,0,361.8,173.823Z" fill="#6b52e8"/><path d="M361.8,197.383a3.557,3.557,0,1,1,3.557-3.557A3.561,3.561,0,0,1,361.8,197.383Zm0-5.877a2.32,2.32,0,1,0,2.32,2.32A2.323,2.323,0,0,0,361.8,191.506Z" fill="#6b52e8"/><path d="M363.564,209.092a4.1,4.1,0,1,1,4.1-4.1A4.107,4.107,0,0,1,363.564,209.092Zm0-7.051a2.95,2.95,0,1,0,2.95,2.95A2.954,2.954,0,0,0,363.564,202.041Z" fill="#6b52e8"/><path d="M161.574,170.678,151.027,160.13l4.986-4.985,5.561,5.561,14.377-14.376,4.985,4.986Zm-8.885-10.548,8.885,8.886,17.7-17.7-3.323-3.324-14.377,14.376-5.561-5.562Z" fill="#6b52e8"/><path d="M143.946,122.208h31.732v-9.4H143.946Zm1.175-8.227H174.5v7.051H145.121Z" fill="#6b52e8"/><path d="M180.379,109.28h-6.743a13.873,13.873,0,0,0-27.649,0h-17.32v76.391h63.464V109.28ZM159.812,97.746a12.723,12.723,0,0,1,12.649,11.534h-25.3A12.723,12.723,0,0,1,159.812,97.746ZM140.42,118.682v-8.227H179.2v15.278H140.42Zm39.959,8.227v-8.227h4.7v58.763H134.544V118.682h4.7v8.227ZM190.956,184.5H129.843V110.455h9.4v7.052h-5.877V178.62h52.887V117.507h-5.876v-7.052h10.577Z" fill="#6b52e8"/><rect x="141.595" y="142.187" width="31.732" height="1.175" fill="#6b52e8"/><rect x="141.595" y="149.238" width="22.33" height="1.175" fill="#6b52e8"/><rect x="141.595" y="135.135" width="38.783" height="1.175" fill="#6b52e8"/><path d="M483.9,249.465H413.389v-47.01H483.9Zm-69.34-1.175h68.165V203.63H414.564Z" fill="#6b52e8"/><rect x="422.791" y="202.455" width="1.175" height="47.01" fill="#6b52e8"/><path d="M476.852,215.383H428.667v-7.052h48.185Zm-47.01-1.176h45.835v-4.7H429.842Z" fill="#6b52e8"/><path d="M478.028,229.486H449.822v-7.052h28.206ZM451,228.31h25.855v-4.7H451Z" fill="#6b52e8"/><path d="M476.852,244.764H465.1v-4.7h11.752Zm-10.577-1.175h9.4v-2.351h-9.4Z" fill="#6b52e8"/><path d="M459.224,244.764H447.471v-4.7h11.753Zm-10.578-1.175h9.4v-2.351h-9.4Z" fill="#6b52e8"/><path d="M440.419,244.764H428.667v-4.7h11.752Zm-10.577-1.175h9.4v-2.351h-9.4Z" fill="#6b52e8"/><path d="M445.121,236.537H429.842V220.084h15.279Zm-14.1-1.174h12.928v-14.1H431.017Z" fill="#6b52e8"/><path d="M437.481,230.627a4.08,4.08,0,1,1,4.08-4.079A4.085,4.085,0,0,1,437.481,230.627Zm0-7.051a2.972,2.972,0,1,0,2.972,2.972A2.974,2.974,0,0,0,437.481,223.576Z" fill="#6b52e8"/><path d="M442.77,234.187H441.6v-2.468a1.06,1.06,0,0,0-1.058-1.058h-6.111a1.06,1.06,0,0,0-1.058,1.058v2.468h-1.175v-2.468a2.236,2.236,0,0,1,2.233-2.233h6.111a2.236,2.236,0,0,1,2.233,2.233Z" fill="#6b52e8"/><path d="M1032.7,55.187H962.182V8.176H1032.7Zm-69.34-1.176h68.165V9.352H963.357Z" fill="#6b52e8"/><rect x="971.584" y="8.176" width="1.175" height="47.01" fill="#6b52e8"/><path d="M1025.646,21.1H977.46V14.053h48.186Zm-47.011-1.175h45.835v-4.7H978.635Z" fill="#6b52e8"/><path d="M1026.821,35.207H998.615V28.156h28.206ZM999.79,34.032h25.856v-4.7H999.79Z" fill="#6b52e8"/><path d="M1025.646,50.486h-11.753v-4.7h11.753Zm-10.578-1.176h9.4V46.96h-9.4Z" fill="#6b52e8"/><path d="M1008.017,50.486H996.264v-4.7h11.753ZM997.439,49.31h9.4V46.96h-9.4Z" fill="#6b52e8"/><path d="M989.213,50.486H977.46v-4.7h11.753ZM978.635,49.31h9.4V46.96h-9.4Z" fill="#6b52e8"/><path d="M993.914,42.258H978.635V25.806h15.279Zm-14.1-1.174h12.927V26.98H979.811Z" fill="#6b52e8"/><path d="M986.275,36.349a4.08,4.08,0,1,1,4.08-4.08A4.085,4.085,0,0,1,986.275,36.349Zm0-7.052a2.972,2.972,0,1,0,2.971,2.972A2.976,2.976,0,0,0,986.275,29.3Z" fill="#6b52e8"/><path d="M991.563,39.908h-1.175V37.441a1.06,1.06,0,0,0-1.058-1.059h-6.111a1.06,1.06,0,0,0-1.058,1.059v2.467h-1.175V37.441a2.236,2.236,0,0,1,2.233-2.234h6.111a2.236,2.236,0,0,1,2.233,2.234Z" fill="#6b52e8"/><path d="M1334.687,133.908h-70.516V86.9h70.516Zm-69.341-1.175h68.165V88.073h-68.165Z" fill="#6b52e8"/><rect x="1273.573" y="86.898" width="1.175" height="47.01" fill="#6b52e8"/><path d="M1327.635,99.826H1279.45V92.774h48.185Zm-47.01-1.175h45.835v-4.7h-45.835Z" fill="#6b52e8"/><path d="M1328.81,113.929H1300.6v-7.052h28.206Zm-27.031-1.175h25.856v-4.7h-25.856Z" fill="#6b52e8"/><path d="M1327.635,129.207h-11.753v-4.7h11.753Zm-10.577-1.175h9.4v-2.35h-9.4Z" fill="#6b52e8"/><path d="M1310.006,129.207h-11.752v-4.7h11.752Zm-10.577-1.175h9.4v-2.35h-9.4Z" fill="#6b52e8"/><path d="M1291.2,129.207H1279.45v-4.7H1291.2Zm-10.577-1.175h9.4v-2.35h-9.4Z" fill="#6b52e8"/><path d="M1295.9,120.98h-15.278V104.528H1295.9Zm-14.1-1.174h12.928V105.7H1281.8Z" fill="#6b52e8"/><path d="M1288.264,115.07a4.08,4.08,0,1,1,4.08-4.079A4.084,4.084,0,0,1,1288.264,115.07Zm0-7.051a2.972,2.972,0,1,0,2.971,2.972A2.975,2.975,0,0,0,1288.264,108.019Z" fill="#6b52e8"/><path d="M1293.553,118.63h-1.176v-2.468a1.06,1.06,0,0,0-1.058-1.058h-6.11a1.06,1.06,0,0,0-1.058,1.058v2.468h-1.176v-2.468a2.236,2.236,0,0,1,2.234-2.233h6.11a2.236,2.236,0,0,1,2.234,2.233Z" fill="#6b52e8"/><path d="M1592.831,153.682h-70.516V106.671h70.516Zm-69.341-1.176h68.165V107.847H1523.49Z" fill="#6b52e8"/><rect x="1531.717" y="106.671" width="1.175" height="47.01" fill="#6b52e8"/><path d="M1585.779,119.6h-48.185v-7.051h48.185Zm-47.01-1.175H1584.6v-4.7h-45.835Z" fill="#6b52e8"/><path d="M1586.954,133.7h-28.206v-7.051h28.206Zm-27.031-1.175h25.856v-4.7h-25.856Z" fill="#6b52e8"/><path d="M1585.779,148.981h-11.753v-4.7h11.753Zm-10.577-1.176h9.4v-2.35h-9.4Z" fill="#6b52e8"/><path d="M1568.15,148.981H1556.4v-4.7h11.752Zm-10.577-1.176h9.4v-2.35h-9.4Z" fill="#6b52e8"/><path d="M1549.346,148.981h-11.752v-4.7h11.752Zm-10.577-1.176h9.4v-2.35h-9.4Z" fill="#6b52e8"/><path d="M1554.047,140.753h-15.278V124.3h15.278Zm-14.1-1.174h12.928v-14.1h-12.928Z" fill="#6b52e8"/><path d="M1546.408,134.844a4.08,4.08,0,1,1,4.08-4.08A4.084,4.084,0,0,1,1546.408,134.844Zm0-7.052a2.972,2.972,0,1,0,2.971,2.972A2.975,2.975,0,0,0,1546.408,127.792Z" fill="#6b52e8"/><path d="M1551.7,138.4h-1.176v-2.467a1.06,1.06,0,0,0-1.058-1.059h-6.11a1.06,1.06,0,0,0-1.058,1.059V138.4h-1.176v-2.467a2.236,2.236,0,0,1,2.234-2.234h6.11a2.236,2.236,0,0,1,2.234,2.234Z" fill="#6b52e8"/><path d="M544.687,249.024a8.24,8.24,0,1,1,8.24-8.239A8.249,8.249,0,0,1,544.687,249.024Zm0-15.278a7.039,7.039,0,1,0,7.039,7.039A7.047,7.047,0,0,0,544.687,233.746Z" fill="#6b52e8"/><path d="M544.687,204.364a8.239,8.239,0,1,1,8.24-8.239A8.249,8.249,0,0,1,544.687,204.364Zm0-15.278a7.039,7.039,0,1,0,7.039,7.039A7.047,7.047,0,0,0,544.687,189.086Z" fill="#6b52e8"/><path d="M577.6,249.024a8.24,8.24,0,1,1,8.239-8.239A8.249,8.249,0,0,1,577.6,249.024Zm0-15.278a7.039,7.039,0,1,0,7.038,7.039A7.046,7.046,0,0,0,577.6,233.746Z" fill="#6b52e8"/><rect x="543.512" y="203.176" width="1.175" height="29.381" fill="#6b52e8"/><path d="M577.6,232.558h-1.176V209.121c0-3.081-1.44-8.3-6.842-8.3h-9.611v-1.175h9.641c6.305,0,7.988,5.923,7.988,9.424Z" fill="#6b52e8"/><polygon points="569.05 190.131 569.822 190.959 560.255 200.237 569.955 209.649 569.183 210.477 558.595 200.237 569.05 190.131" fill="#6b52e8"/><path d="M1292.3,232.653a8.24,8.24,0,1,1,8.239-8.239A8.249,8.249,0,0,1,1292.3,232.653Zm0-15.278a7.039,7.039,0,1,0,7.039,7.039A7.046,7.046,0,0,0,1292.3,217.375Z" fill="#6b52e8"/><path d="M1292.3,187.993a8.239,8.239,0,1,1,8.239-8.239A8.249,8.249,0,0,1,1292.3,187.993Zm0-15.278a7.039,7.039,0,1,0,7.039,7.039A7.046,7.046,0,0,0,1292.3,172.715Z" fill="#6b52e8"/><path d="M1325.2,232.653a8.24,8.24,0,1,1,8.239-8.239A8.248,8.248,0,0,1,1325.2,232.653Zm0-15.278a7.039,7.039,0,1,0,7.039,7.039A7.047,7.047,0,0,0,1325.2,217.375Z" fill="#6b52e8"/><rect x="1291.12" y="186.805" width="1.175" height="29.381" fill="#6b52e8"/><path d="M1325.2,216.187h-1.175V192.75c0-3.081-1.441-8.295-6.843-8.295h-9.611V183.28h9.641c6.305,0,7.988,5.923,7.988,9.424Z" fill="#6b52e8"/><polygon points="1316.658 173.76 1317.429 174.588 1307.862 183.866 1317.562 193.278 1316.791 194.106 1306.202 183.866 1316.658 173.76" fill="#6b52e8"/><path d="M622.246,203.321c2.863,0,3.267-1.574,3.267-2.986a23.985,23.985,0,0,0-.323-3.389,23.576,23.576,0,0,1-.323-3.349c0-3.712,2.421-5.285,5.85-5.285h.847v2.219h-.725c-2.381,0-3.189,1.291-3.189,3.47a17.594,17.594,0,0,0,.284,2.864,18.876,18.876,0,0,1,.281,3.066c.042,2.582-1.089,3.873-2.905,4.358v.08c1.816.444,2.947,1.816,2.905,4.4a18.448,18.448,0,0,1-.281,3.066,18.075,18.075,0,0,0-.284,2.905c0,2.259.93,3.51,3.189,3.51h.725v2.219h-.847c-3.349,0-5.85-1.452-5.85-5.527a23.024,23.024,0,0,1,.323-3.309,22.314,22.314,0,0,0,.323-3.267c0-1.251-.4-2.986-3.267-2.986Z" fill="#6b52e8"/><path d="M660,205.378c-2.864,0-3.267,1.735-3.267,2.986a22.314,22.314,0,0,0,.323,3.267,23.024,23.024,0,0,1,.323,3.309c0,4.075-2.543,5.527-5.852,5.527h-.847v-2.219h.685c2.26-.041,3.229-1.251,3.229-3.51a24.586,24.586,0,0,0-.282-2.905,18.241,18.241,0,0,1-.323-3.066c0-2.582,1.128-3.954,2.9-4.4v-.08c-1.777-.485-2.9-1.776-2.9-4.358a18.72,18.72,0,0,1,.323-3.066,23.939,23.939,0,0,0,.282-2.864c0-2.179-.847-3.429-3.187-3.47h-.727v-2.219h.808c3.429,0,5.891,1.573,5.891,5.285a23.576,23.576,0,0,1-.323,3.349,23.985,23.985,0,0,0-.323,3.389c0,1.412.4,2.986,3.267,2.986Z" fill="#6b52e8"/><path d="M1480.173,202.217c1.669,0,1.9-.917,1.9-1.739a14.024,14.024,0,0,0-.188-1.975,13.718,13.718,0,0,1-.188-1.952c0-2.163,1.41-3.08,3.408-3.08h.494v1.294h-.422c-1.388,0-1.859.752-1.859,2.021a10.3,10.3,0,0,0,.166,1.67,10.967,10.967,0,0,1,.164,1.786,2.249,2.249,0,0,1-1.693,2.54v.047a2.258,2.258,0,0,1,1.693,2.562,10.736,10.736,0,0,1-.164,1.787,10.579,10.579,0,0,0-.166,1.693c0,1.316.542,2.045,1.859,2.045h.422v1.293h-.494c-1.951,0-3.408-.846-3.408-3.221a13.4,13.4,0,0,1,.188-1.928,13.048,13.048,0,0,0,.188-1.9c0-.729-.235-1.74-1.9-1.74Z" fill="#6b52e8"/><path d="M1502.174,203.416c-1.669,0-1.9,1.011-1.9,1.74a13.05,13.05,0,0,0,.189,1.9,13.4,13.4,0,0,1,.188,1.928c0,2.375-1.482,3.221-3.41,3.221h-.493v-1.293h.4c1.316-.024,1.881-.729,1.881-2.045a14.307,14.307,0,0,0-.164-1.693,10.677,10.677,0,0,1-.188-1.787,2.3,2.3,0,0,1,1.693-2.562v-.047a2.288,2.288,0,0,1-1.693-2.54,10.941,10.941,0,0,1,.188-1.786,13.932,13.932,0,0,0,.164-1.67c0-1.269-.493-2-1.857-2.021h-.423v-1.294h.47c2,0,3.433.917,3.433,3.08a13.718,13.718,0,0,1-.188,1.952,14.026,14.026,0,0,0-.189,1.975c0,.822.236,1.739,1.9,1.739Z" fill="#6b52e8"/><path d="M730.893,245.529l-22.329-14.717V226l22.329-13.611v7l-14.962,9.12,14.962,9.861Zm-21.154-15.35,19.979,13.168V239l-15.982-10.533,15.982-9.741v-4.246l-19.979,12.178Z" fill="#6b52e8"/><path d="M763.8,245.529v-7.158l14.962-9.861L763.8,219.39v-7L786.13,226v4.81ZM764.976,239v4.343l19.979-13.168v-3.517l-19.979-12.178v4.246l15.982,9.741Z" fill="#6b52e8"/><path d="M1072.729,124.764h-8.135l16.527-55.237h8.135Zm-6.556-1.175h5.682L1087.677,70.7H1082Z" fill="#6b52e8"/><path d="M1061.677,114.178l-22.33-14.716v-4.81l22.33-13.611v7l-14.963,9.121,14.963,9.861Zm-21.155-15.35L1060.5,112v-4.342L1044.52,97.121l15.981-9.742V83.133l-19.979,12.179Z" fill="#6b52e8"/><path d="M1094.584,114.178v-7.157l14.963-9.861-14.963-9.121v-7l22.33,13.611v4.81Zm1.175-6.524V112l19.979-13.168V95.312l-19.979-12.179v4.246l15.982,9.742Z" fill="#6b52e8"/><polygon points="849.604 113.52 840.409 122.636 840.409 98.878 839.233 98.878 839.233 122.638 830.175 113.653 829.314 114.425 839.82 124.88 850.465 114.292 849.604 113.52" fill="#6b52e8"/><path d="M865.089,163.517H813.378V123.558h7.051v21.155h38.784V123.558h5.876Zm-50.536-1.176h49.361V124.733h-3.526v21.155H819.254V124.733h-4.7Z" fill="#6b52e8"/><path d="M835.666,157.6h-8.144v-8.143h8.144Zm-7.051-1.092h5.959v-5.96h-5.959Z" fill="#6b52e8"/><path d="M852.12,157.6h-8.144v-8.143h8.144Zm-7.052-1.092h5.959v-5.96h-5.959Z" fill="#6b52e8"/><path d="M832.182,142.362h-9.4v-9.4h9.4Zm-8.227-1.175h7.052v-7.052h-7.052Z" fill="#6b52e8"/><path d="M843.935,142.362h-9.4v-9.4h9.4Zm-8.227-1.175h7.051v-7.052h-7.051Z" fill="#6b52e8"/><path d="M855.687,142.362h-9.4v-9.4h9.4Zm-8.227-1.175h7.052v-7.052H847.46Z" fill="#6b52e8"/><path d="M820.912,219.538l3.218-10.992-8.445-6.349H825.99l3.15-10.757,3.678,10.757h9.78l-7.68,6.142,3.827,11.195-9.188-6.908Zm8.622-8.4,6.863,5.16-2.859-8.361,5.709-4.565h-7.269l-2.751-8.046-2.356,8.046H819.2l6.283,4.724-2.4,8.2Z" fill="#6b52e8"/><polygon points="2235.573 114.995 2226.377 124.11 2226.377 100.352 2225.202 100.352 2225.202 124.112 2216.143 115.128 2215.282 115.899 2225.788 126.354 2236.434 115.766 2235.573 114.995" fill="#6b52e8"/><path d="M2251.057,164.991h-51.711V125.032h7.052v21.155h38.783V125.032h5.876Zm-50.536-1.175h49.361V126.208h-3.526v21.154h-41.134V126.208h-4.7Z" fill="#6b52e8"/><path d="M2221.635,159.073h-8.145V150.93h8.145Zm-7.052-1.092h5.959v-5.96h-5.959Z" fill="#6b52e8"/><path d="M2238.088,159.073h-8.144V150.93h8.144Zm-7.051-1.092H2237v-5.96h-5.959Z" fill="#6b52e8"/><path d="M2218.15,143.836h-9.4v-9.4h9.4Zm-8.227-1.175h7.052V135.61h-7.052Z" fill="#6b52e8"/><path d="M2229.9,143.836h-9.4v-9.4h9.4Zm-8.227-1.175h7.051V135.61h-7.051Z" fill="#6b52e8"/><path d="M2241.655,143.836h-9.4v-9.4h9.4Zm-8.226-1.175h7.051V135.61h-7.051Z" fill="#6b52e8"/><path d="M2206.118,233.259l3.218-10.991-8.445-6.349h10.3l3.15-10.758,3.679,10.758h9.78l-7.681,6.141,3.828,11.195-9.189-6.908Zm8.621-8.4,6.863,5.16-2.858-8.362,5.708-4.564h-7.268l-2.751-8.047-2.357,8.047h-7.666l6.282,4.724-2.4,8.2Z" fill="#6b52e8"/><path d="M1219.8,106.228l-.406-.263-4.112-3.09-4.183,3.346-.775-.477.1-.468,1.453-4.963-4.11-3.09.25-.86.472-.035h4.555l1.535-5.239.908-.057.189.442,1.658,4.854h4.732l.324.819-.34.318-3.4,2.717,1.873,5.479Zm-4.143-4.543,3.05,2.294-1.422-4.16.331-.314,2.5-2h-3.592l-.183-.436-1.235-3.612-1.174,4.012-.489.036h-3.352l3.123,2.349-.115.456-1.072,3.663,3.207-2.564.419.279Z" fill="#6b52e8"/><path d="M2392.857,104.991h-31.982a10.075,10.075,0,0,1-7.886-16.345l15.594-19.612V57.981h-3.525V52.1h23.505v5.877h-3.526V68.892l15.706,19.754a10.075,10.075,0,0,1-7.886,16.345Zm-26.624-48.186h3.526V69.444L2353.91,89.377a8.9,8.9,0,0,0,6.965,14.439h31.982a8.9,8.9,0,0,0,6.966-14.439L2383.862,69.3v-12.5h3.525V53.28h-21.154Z" fill="#6b52e8"/><path d="M2389.233,100.29h-25.174a6.7,6.7,0,0,1-5.306-10.8l6.178-8h23.43l6.178,8a6.7,6.7,0,0,1-5.306,10.8ZM2365.51,82.661l-5.827,7.547a5.529,5.529,0,0,0,4.376,8.907h25.174a5.529,5.529,0,0,0,4.376-8.907l-5.827-7.547Z" fill="#6b52e8"/><path d="M2376.81,45.029a2.327,2.327,0,1,1,2.328-2.327A2.329,2.329,0,0,1,2376.81,45.029Zm0-3.525a1.2,1.2,0,1,0,1.2,1.2A1.2,1.2,0,0,0,2376.81,41.5Z" fill="#6b52e8"/><path d="M2376.81,65.063a3.557,3.557,0,1,1,3.557-3.556A3.561,3.561,0,0,1,2376.81,65.063Zm0-5.876a2.32,2.32,0,1,0,2.32,2.32A2.322,2.322,0,0,0,2376.81,59.187Z" fill="#6b52e8"/><path d="M2378.573,76.773a4.1,4.1,0,1,1,4.1-4.1A4.107,4.107,0,0,1,2378.573,76.773Zm0-7.052a2.951,2.951,0,1,0,2.95,2.95A2.954,2.954,0,0,0,2378.573,69.721Z" fill="#6b52e8"/><path d="M524.729,170.146H427.182v-7.052h97.547Zm-96.371-1.176h95.2v-4.7H428.358Z" fill="#6b52e8"/><path d="M496.523,157.218H455.389v-5.877h41.134Zm-39.959-1.175h38.783v-3.526H456.564Z" fill="#6b52e8"/><polygon points="482.419 152.517 481.244 152.517 481.244 141.939 469.492 141.939 469.492 152.517 468.316 152.517 468.316 140.764 482.419 140.764 482.419 152.517" fill="#6b52e8"/><path d="M515.847,141.939H434.889a3.009,3.009,0,0,1-3.006-3.006V87.358a3.009,3.009,0,0,1,3.006-3.006h80.958a3.009,3.009,0,0,1,3,3.006v51.575A3.009,3.009,0,0,1,515.847,141.939ZM434.889,85.527a1.833,1.833,0,0,0-1.83,1.831v51.575a1.833,1.833,0,0,0,1.83,1.831h80.958a1.833,1.833,0,0,0,1.83-1.831V87.358a1.833,1.833,0,0,0-1.83-1.831Z" fill="#6b52e8"/><path d="M514.151,137.238H436.585V89.053h77.566Zm-76.391-1.175h75.216V90.228H437.76Z" fill="#6b52e8"/><rect x="483.595" y="90.228" width="1.175" height="47.01" fill="#6b52e8"/><path d="M477.718,103.156H441.286V96.1h36.432Zm-35.257-1.175h34.082v-4.7H442.461Z" fill="#6b52e8"/><path d="M474.193,119.61H441.286V106.682h32.907Zm-31.732-1.176h30.556V107.857H442.461Z" fill="#6b52e8"/><path d="M456.564,129.012H441.286v-5.877h15.278Zm-14.1-1.176h12.928v-3.525H442.461Z" fill="#6b52e8"/><path d="M1224.79,207.919h-97.546v-7.052h97.546Zm-96.371-1.175h95.2v-4.7h-95.2Z" fill="#6b52e8"/><path d="M1196.584,194.991H1155.45v-5.876h41.134Zm-39.959-1.175h38.783V190.29h-38.783Z" fill="#6b52e8"/><polygon points="1182.481 190.29 1181.305 190.29 1181.305 179.713 1169.553 179.713 1169.553 190.29 1168.377 190.29 1168.377 178.537 1182.481 178.537 1182.481 190.29" fill="#6b52e8"/><path d="M1215.908,179.713H1134.95a3.009,3.009,0,0,1-3.005-3.007V125.132a3.009,3.009,0,0,1,3.005-3.007h80.958a3.01,3.01,0,0,1,3.006,3.007v51.574A3.01,3.01,0,0,1,1215.908,179.713ZM1134.95,123.3a1.834,1.834,0,0,0-1.83,1.832v51.574a1.833,1.833,0,0,0,1.83,1.831h80.958a1.833,1.833,0,0,0,1.83-1.831V125.132a1.834,1.834,0,0,0-1.83-1.832Z" fill="#6b52e8"/><path d="M1214.212,175.012h-77.566V126.826h77.566Zm-76.391-1.176h75.216V128h-75.216Z" fill="#6b52e8"/><rect x="1183.656" y="128.001" width="1.175" height="47.01" fill="#6b52e8"/><path d="M1177.78,140.929h-36.433v-7.051h36.433Zm-35.258-1.175H1176.6v-4.7h-34.082Z" fill="#6b52e8"/><path d="M1174.254,157.383h-32.907V144.455h32.907Zm-31.732-1.175h30.557V145.63h-30.557Z" fill="#6b52e8"/><path d="M1156.625,166.785h-15.278v-5.876h15.278Zm-14.1-1.175h12.928v-3.526h-12.928Z" fill="#6b52e8"/><path d="M720.914,158.678,710.367,148.13l4.985-4.985,5.562,5.561L735.29,134.33l4.986,4.986Zm-8.886-10.548,8.886,8.886,17.7-17.7-3.324-3.324-14.376,14.376-5.562-5.562Z" fill="#6b52e8"/><path d="M703.285,110.208h31.732v-9.4H703.285Zm1.175-8.227h29.382v7.051H704.46Z" fill="#6b52e8"/><path d="M739.718,97.28h-6.743a13.873,13.873,0,0,0-27.648,0h-17.32v76.391h63.464V97.28ZM719.151,85.746A12.722,12.722,0,0,1,731.8,97.28H706.5A12.723,12.723,0,0,1,719.151,85.746Zm-19.392,20.936V98.455h38.784v15.278H699.759Zm39.959,8.227v-8.227h4.7v58.763H693.883V106.682h4.7v8.227ZM750.3,172.5H689.182V98.455h9.4v7.052h-5.876V166.62h52.886V105.507h-5.876V98.455H750.3Z" fill="#6b52e8"/><rect x="700.935" y="130.187" width="31.732" height="1.175" fill="#6b52e8"/><rect x="700.935" y="137.238" width="22.33" height="1.175" fill="#6b52e8"/><rect x="700.935" y="123.135" width="38.783" height="1.175" fill="#6b52e8"/><path d="M2382.129,234.516h-97.546v-7.051h97.546Zm-96.371-1.175h95.2v-4.7h-95.2Z" fill="#6b52e8"/><path d="M2353.923,221.588h-41.134v-5.876h41.134Zm-39.959-1.175h38.784v-3.526h-38.784Z" fill="#6b52e8"/><polygon points="2339.82 216.887 2338.645 216.887 2338.645 206.31 2326.892 206.31 2326.892 216.887 2325.717 216.887 2325.717 205.135 2339.82 205.135 2339.82 216.887" fill="#6b52e8"/><path d="M2373.247,206.31H2292.29a3.009,3.009,0,0,1-3.006-3.006V151.729a3.009,3.009,0,0,1,3.006-3.006h80.957a3.009,3.009,0,0,1,3.006,3.006V203.3A3.009,3.009,0,0,1,2373.247,206.31ZM2292.29,149.9a1.833,1.833,0,0,0-1.831,1.831V203.3a1.833,1.833,0,0,0,1.831,1.831h80.957a1.832,1.832,0,0,0,1.83-1.831V151.729a1.832,1.832,0,0,0-1.83-1.831Z" fill="#6b52e8"/><path d="M2371.552,201.609h-77.567V153.424h77.567Zm-76.392-1.175h75.216V154.6H2295.16Z" fill="#6b52e8"/><rect x="2340.995" y="154.599" width="1.175" height="47.01" fill="#6b52e8"/><path d="M2335.119,167.527h-36.433v-7.052h36.433Zm-35.258-1.176h34.083v-4.7h-34.083Z" fill="#6b52e8"/><path d="M2331.593,183.98h-32.907V171.052h32.907Zm-31.732-1.175h30.557V172.228h-30.557Z" fill="#6b52e8"/><path d="M2313.964,193.382h-15.278v-5.876h15.278Zm-14.1-1.175h12.928v-3.526h-12.928Z" fill="#6b52e8"/><path d="M7.964,135.878l3.218-10.992-8.445-6.349H13.042l3.15-10.757,3.679,10.757H29.65l-7.68,6.141,3.827,11.2-9.188-6.908Zm8.622-8.4,6.863,5.16-2.859-8.361,5.709-4.565H19.03l-2.751-8.046-2.356,8.046H6.256l6.283,4.724-2.4,8.2Z" fill="#6b52e8"/><path d="M1083.246,33.321c2.863,0,3.267-1.574,3.267-2.986a23.985,23.985,0,0,0-.323-3.389,23.576,23.576,0,0,1-.323-3.349c0-3.712,2.421-5.285,5.85-5.285h.847v2.219h-.725c-2.381,0-3.189,1.291-3.189,3.47a17.594,17.594,0,0,0,.284,2.864,18.876,18.876,0,0,1,.281,3.066c.042,2.582-1.089,3.873-2.9,4.358v.08c1.816.444,2.947,1.816,2.9,4.4a18.448,18.448,0,0,1-.281,3.066,18.075,18.075,0,0,0-.284,2.905c0,2.259.93,3.51,3.189,3.51h.725v2.219h-.847c-3.349,0-5.85-1.452-5.85-5.527a23.024,23.024,0,0,1,.323-3.309,22.314,22.314,0,0,0,.323-3.267c0-1.251-.4-2.986-3.267-2.986Z" fill="#6b52e8"/><path d="M1121,35.378c-2.864,0-3.267,1.735-3.267,2.986a22.314,22.314,0,0,0,.323,3.267,23.024,23.024,0,0,1,.323,3.309c0,4.075-2.543,5.527-5.852,5.527h-.847V48.248h.685c2.26-.041,3.229-1.251,3.229-3.51a24.586,24.586,0,0,0-.282-2.905,18.241,18.241,0,0,1-.323-3.066c0-2.582,1.128-3.954,2.9-4.4v-.08c-1.777-.485-2.9-1.776-2.9-4.358a18.72,18.72,0,0,1,.323-3.066,23.939,23.939,0,0,0,.282-2.864c0-2.179-.847-3.429-3.187-3.47h-.727V18.312h.808c3.429,0,5.891,1.573,5.891,5.285a23.576,23.576,0,0,1-.323,3.349,23.985,23.985,0,0,0-.323,3.389c0,1.412.4,2.986,3.267,2.986Z" fill="#6b52e8"/><path d="M1692.368,248.022h-8.135l16.527-55.237h8.135Zm-6.556-1.175h5.681l15.823-52.887h-5.681Z" fill="#6b52e8"/><path d="M1681.316,237.436l-22.33-14.716v-4.81l22.33-13.611v7l-14.963,9.121,14.963,9.86Zm-21.155-15.35,19.979,13.168v-4.342l-15.982-10.533,15.982-9.742v-4.246l-19.979,12.178Z" fill="#6b52e8"/><path d="M1714.223,237.436v-7.158l14.962-9.86-14.962-9.121v-7l22.33,13.611v4.81Zm1.175-6.524v4.342l19.979-13.168v-3.517L1715.4,206.391v4.246l15.982,9.742Z" fill="#6b52e8"/><path d="M2436.7,122.91a8.239,8.239,0,1,1,8.24-8.239A8.249,8.249,0,0,1,2436.7,122.91Zm0-15.278a7.039,7.039,0,1,0,7.039,7.039A7.046,7.046,0,0,0,2436.7,107.632Z" fill="#6b52e8"/><path d="M2436.7,78.251a8.24,8.24,0,1,1,8.24-8.24A8.25,8.25,0,0,1,2436.7,78.251Zm0-15.279a7.039,7.039,0,1,0,7.039,7.039A7.047,7.047,0,0,0,2436.7,62.972Z" fill="#6b52e8"/><path d="M2469.6,122.91a8.239,8.239,0,1,1,8.239-8.239A8.249,8.249,0,0,1,2469.6,122.91Zm0-15.278a7.039,7.039,0,1,0,7.039,7.039A7.046,7.046,0,0,0,2469.6,107.632Z" fill="#6b52e8"/><rect x="2435.521" y="77.063" width="1.175" height="29.381" fill="#6b52e8"/><path d="M2469.6,106.444h-1.176V83.007c0-3.081-1.44-8.3-6.842-8.3h-9.611V73.537h9.641c6.3,0,7.988,5.923,7.988,9.424Z" fill="#6b52e8"/><polygon points="2461.059 64.018 2461.831 64.846 2452.264 74.124 2461.964 83.535 2461.192 84.364 2450.604 74.124 2461.059 64.018" fill="#6b52e8"/><path d="M2453.725,32.445l3.218-10.991L2448.5,15.1h10.3l3.15-10.757,3.679,10.757h9.779l-7.68,6.142,3.827,11.2-9.188-6.908Zm8.622-8.4,6.863,5.16-2.859-8.362,5.709-4.564h-7.269l-2.751-8.047-2.356,8.047h-7.667L2458.3,21l-2.4,8.2Z" fill="#6b52e8"/><path d="M1362.594,250V189.548h9.4V196.6h-5.877V250h1.176V197.774h4.7V206h41.134v-8.227h4.7V250h1.175V196.6h-5.876v-7.051h10.577V250h1.175V188.372h-18.5a13.874,13.874,0,0,0-27.649,0h-17.32V250Zm29.969-73.161a12.723,12.723,0,0,1,12.649,11.533h-25.3A12.722,12.722,0,0,1,1392.563,176.839Zm-19.392,20.935v-8.226h38.784v15.278h-38.784Z" fill="#6b52e8"/><polygon points="736.868 250 751.212 202.053 756.894 202.053 742.549 250 743.775 250 758.473 200.877 750.338 200.877 735.64 250 736.868 250" fill="#6b52e8"/><path d="M874.347,0V42.737a1.833,1.833,0,0,1-1.831,1.831H791.559a1.833,1.833,0,0,1-1.831-1.831V0h-1.175V42.737a3.01,3.01,0,0,0,3.006,3.007h80.957a3.01,3.01,0,0,0,3.006-3.007V0Z" fill="#6b52e8"/><polygon points="869.646 0 869.646 39.867 794.429 39.867 794.429 0 793.254 0 793.254 41.043 870.821 41.043 870.821 0 869.646 0" fill="#6b52e8"/><rect x="840.264" width="1.175" height="40.455" fill="#6b52e8"/><path d="M1628.954,0V39.036a1.832,1.832,0,0,1-1.83,1.831h-80.957a1.833,1.833,0,0,1-1.831-1.831V0h-1.175V39.036a3.01,3.01,0,0,0,3.006,3.007h80.957a3.009,3.009,0,0,0,3-3.007V0Z" fill="#6b52e8"/><polygon points="1624.253 0 1624.253 36.166 1549.037 36.166 1549.037 0 1547.862 0 1547.862 37.342 1625.428 37.342 1625.428 0 1624.253 0" fill="#6b52e8"/><rect x="1594.872" width="1.175" height="36.754" fill="#6b52e8"/><polygon points="1587.82 0 1587.82 2.084 1553.738 2.084 1553.738 0 1552.563 0 1552.563 3.259 1588.996 3.259 1588.996 0 1587.82 0" fill="#6b52e8"/><polygon points="1893.108 0 1893.108 59.847 1831.995 59.847 1831.995 0 1830.82 0 1830.82 59.847 1830.82 61.022 1831.995 61.022 1894.284 61.022 1894.284 59.847 1894.284 0 1893.108 0" fill="#6b52e8"/><polygon points="1882.531 0 1881.356 0 1881.356 1.084 1842.573 1.084 1842.573 0 1841.397 0 1841.397 2.259 1882.531 2.259 1882.531 0" fill="#6b52e8"/><polygon points="1888.407 0 1887.232 0 1887.232 52.795 1836.696 52.795 1836.696 0 1835.521 0 1835.521 53.97 1888.407 53.97 1888.407 0" fill="#6b52e8"/><path d="M78.949,226.256h-25.9a2.554,2.554,0,0,1-2.551-2.551V168.051a2.554,2.554,0,0,1,2.551-2.551h25.9a2.554,2.554,0,0,1,2.551,2.551v55.654A2.554,2.554,0,0,1,78.949,226.256ZM53.051,166.5a1.552,1.552,0,0,0-1.551,1.551v55.654a1.552,1.552,0,0,0,1.551,1.551h25.9a1.552,1.552,0,0,0,1.551-1.551V168.051a1.552,1.552,0,0,0-1.551-1.551Z" fill="#6b52e8"/><path d="M79.006,217.066H52.994V174.58H79.006Zm-24.878-1.132H77.872V175.713H54.128Z" fill="#6b52e8"/><path d="M66.5,172.414a1.914,1.914,0,1,1,1.914-1.914A1.915,1.915,0,0,1,66.5,172.414Zm0-2.828a.914.914,0,1,0,.914.914A.915.915,0,0,0,66.5,169.586Z" fill="#6b52e8"/><path d="M609.949,154.256h-25.9a2.554,2.554,0,0,1-2.551-2.551V96.051a2.554,2.554,0,0,1,2.551-2.551h25.9a2.554,2.554,0,0,1,2.551,2.551v55.654A2.554,2.554,0,0,1,609.949,154.256ZM584.051,94.5a1.552,1.552,0,0,0-1.551,1.551v55.654a1.552,1.552,0,0,0,1.551,1.551h25.9a1.552,1.552,0,0,0,1.551-1.551V96.051a1.552,1.552,0,0,0-1.551-1.551Z" fill="#6b52e8"/><path d="M610.006,145.066H583.994V102.58h26.012Zm-24.878-1.132h23.744V103.713H585.128Z" fill="#6b52e8"/><path d="M597.5,100.414a1.914,1.914,0,1,1,1.914-1.914A1.915,1.915,0,0,1,597.5,100.414Zm0-2.828a.914.914,0,1,0,.914.914A.915.915,0,0,0,597.5,97.586Z" fill="#6b52e8"/><path d="M932.949,230.256h-25.9a2.554,2.554,0,0,1-2.551-2.551V172.051a2.554,2.554,0,0,1,2.551-2.551h25.9a2.554,2.554,0,0,1,2.551,2.551v55.654A2.554,2.554,0,0,1,932.949,230.256Zm-25.9-59.756a1.552,1.552,0,0,0-1.551,1.551v55.654a1.552,1.552,0,0,0,1.551,1.551h25.9a1.552,1.552,0,0,0,1.551-1.551V172.051a1.552,1.552,0,0,0-1.551-1.551Z" fill="#6b52e8"/><path d="M933.006,221.066H906.994V178.58h26.012Zm-24.878-1.132h23.744V179.713H908.128Z" fill="#6b52e8"/><path d="M920.5,176.414a1.914,1.914,0,1,1,1.914-1.914A1.915,1.915,0,0,1,920.5,176.414Zm0-2.828a.914.914,0,1,0,.914.914A.915.915,0,0,0,920.5,173.586Z" fill="#6b52e8"/><path d="M1437.949,146.256h-25.9a2.554,2.554,0,0,1-2.551-2.551V88.051a2.554,2.554,0,0,1,2.551-2.551h25.9a2.554,2.554,0,0,1,2.551,2.551v55.654A2.554,2.554,0,0,1,1437.949,146.256Zm-25.9-59.756a1.552,1.552,0,0,0-1.551,1.551v55.654a1.552,1.552,0,0,0,1.551,1.551h25.9a1.552,1.552,0,0,0,1.551-1.551V88.051a1.552,1.552,0,0,0-1.551-1.551Z" fill="#6b52e8"/><path d="M1438.006,137.066h-26.012V94.58h26.012Zm-24.878-1.132h23.744V95.713h-23.744Z" fill="#6b52e8"/><path d="M1425.5,92.414a1.914,1.914,0,1,1,1.914-1.914A1.915,1.915,0,0,1,1425.5,92.414Zm0-2.828a.914.914,0,1,0,.914.914A.915.915,0,0,0,1425.5,89.586Z" fill="#6b52e8"/><path d="M1860.949,155.256h-25.9a2.554,2.554,0,0,1-2.551-2.551V97.051a2.554,2.554,0,0,1,2.551-2.551h25.9a2.554,2.554,0,0,1,2.551,2.551v55.654A2.554,2.554,0,0,1,1860.949,155.256Zm-25.9-59.756a1.552,1.552,0,0,0-1.551,1.551v55.654a1.552,1.552,0,0,0,1.551,1.551h25.9a1.552,1.552,0,0,0,1.551-1.551V97.051a1.552,1.552,0,0,0-1.551-1.551Z" fill="#6b52e8"/><path d="M1861.006,146.066h-26.012V103.58h26.012Zm-24.878-1.132h23.744V104.713h-23.744Z" fill="#6b52e8"/><path d="M1848.5,101.414a1.914,1.914,0,1,1,1.914-1.914A1.915,1.915,0,0,1,1848.5,101.414Zm0-2.828a.914.914,0,1,0,.914.914A.915.915,0,0,0,1848.5,98.586Z" fill="#6b52e8"/><path d="M2289.949,77.256h-25.9a2.554,2.554,0,0,1-2.551-2.551V19.051a2.554,2.554,0,0,1,2.551-2.551h25.9a2.554,2.554,0,0,1,2.551,2.551V74.705A2.554,2.554,0,0,1,2289.949,77.256Zm-25.9-59.756a1.552,1.552,0,0,0-1.551,1.551V74.705a1.552,1.552,0,0,0,1.551,1.551h25.9a1.552,1.552,0,0,0,1.551-1.551V19.051a1.552,1.552,0,0,0-1.551-1.551Z" fill="#6b52e8"/><path d="M2290.006,68.066h-26.012V25.58h26.012Zm-24.878-1.132h23.744V26.713h-23.744Z" fill="#6b52e8"/><path d="M2277.5,23.414a1.914,1.914,0,1,1,1.914-1.914A1.915,1.915,0,0,1,2277.5,23.414Zm0-2.828a.914.914,0,1,0,.914.914A.915.915,0,0,0,2277.5,20.586Z" fill="#6b52e8"/><g clip-path="url(#a)"><path d="M-2456,96.136c656-131,802-158,908,0s251,273,423,175c228.562-130.228,351-339,599-357,472.613-34.3,592,242,751,383" fill="none" stroke="#0060c4" stroke-miterlimit="10"/><path d="M-2459.938,107.158c648.376-126.437,785.063-143.647,909.813,8.79s268.937,250.313,444.406,152.594C-877.223,140.61-747.426-50.967-504.438-63.552c453.794-23.5,579,232.375,728.063,364.563" fill="none" stroke="#005ec2" stroke-miterlimit="10"/><path d="M-2463.875,118.181c640.75-121.875,768.125-129.295,911.625,17.58s287.08,228,465.812,130.187C-857.744,140.792-720.93-34.143-482.875-41.239c434.857-12.964,566,222.75,705.125,346.125" fill="none" stroke="#005cc1" stroke-miterlimit="10"/><path d="M-2467.812,129.2c633.124-117.313,751.187-114.943,913.437,26.369s305.1,205.466,487.219,107.781C-838.436,140.676-694.512-17.407-461.312-18.927c415.807-2.71,553,213.125,682.187,327.688" fill="none" stroke="#0059bf" stroke-miterlimit="10"/><path d="M-2471.75,140.227c625.5-112.75,734.25-100.591,915.25,35.159s323.094,182.906,508.625,85.375C-819.151,140.523-668.17-.777-439.75,3.386c396.651,7.229,540,203.5,659.25,309.25" fill="none" stroke="#0057bd" stroke-miterlimit="10"/><path d="M-2475.688,151.249c617.876-108.187,717.313-86.238,917.063,43.949s341.077,160.322,530.031,62.969C-799.889,140.334-641.9,15.726-418.188,25.7c377.4,16.823,527,193.875,636.313,290.813" fill="none" stroke="#0055bc" stroke-miterlimit="10"/><path d="M-2479.625,162.272c610.25-103.625,700.375-71.886,918.875,52.739s359.044,137.71,551.438,40.562C-780.646,140.109-615.7,32.078-396.625,48.011c358.064,26.041,514,184.25,613.375,272.375" fill="none" stroke="#0052ba" stroke-miterlimit="10"/><path d="M-2483.562,173.3c602.624-99.062,683.437-57.534,920.687,61.528s377,115.072,572.844,18.156C-761.421,139.85-589.544,48.25-375.062,70.323c338.666,34.853,501,174.625,590.437,253.938" fill="none" stroke="#0050b8" stroke-miterlimit="10"/><path d="M-2487.5,184.318c595-94.5,666.5-43.182,922.5,70.318s394.937,92.405,594.25-4.25C-742.213,139.558-563.43,64.209-353.5,92.636c319.233,43.227,488,165,567.5,235.5" fill="none" stroke="#004eb7" stroke-miterlimit="10"/><path d="M-2491.438,195.341c587.376-89.938,649.563-28.83,924.313,79.107s412.862,69.711,615.656-26.656C-723.021,139.234-537.327,79.914-331.938,114.948c299.8,51.138,475,155.375,544.563,217.063" fill="none" stroke="#004cb5" stroke-miterlimit="10"/><path d="M-2495.375,206.363c579.75-85.375,632.625-14.477,926.125,87.9s430.774,46.987,637.062-49.063C-703.843,138.878-511.2,95.318-310.375,137.261c280.4,58.561,462,145.75,521.625,198.625" fill="none" stroke="#004ab3" stroke-miterlimit="10"/><path d="M-2499.312,217.386c572.124-80.812,615.687-.125,927.937,96.687S-1122.7,338.307-912.906,242.6c228.228-104.112,427.894-132.235,624.094-83.031,261.106,65.482,449,136.125,498.687,180.188" fill="none" stroke="#0047b1" stroke-miterlimit="10"/><path d="M-2503.25,228.409c564.5-76.25,598.75,14.227,929.75,105.477s466.562,1.45,679.875-93.875c228.1-101.934,434.936-115,626.375-58.125,241.973,71.894,436,126.5,475.75,161.75" fill="none" stroke="#0045b0" stroke-miterlimit="10"/><path d="M-2507.188,239.432c556.876-71.688,581.813,28.579,931.563,114.266s484.438-21.364,701.281-116.281c227.964-99.785,442.193-98.252,628.656-33.219,223.089,77.807,423,116.875,452.813,143.313" fill="none" stroke="#0043ae" stroke-miterlimit="10"/><path d="M-2511.125,250.454c549.25-67.125,564.875,42.932,933.375,123.057s502.125-44.625,722.688-138.688c227.632-98.091,449.773-82.045,630.937-8.312,204.55,83.25,410,107.25,429.875,124.875" fill="none" stroke="#0041ac" stroke-miterlimit="10"/><path d="M-2515.062,261.477c541.624-62.562,547.937,57.284,935.187,131.846s520.063-67.312,744.094-161.094c227.566-95.8,457.818-66.446,633.219,16.594,186.476,88.284,397,97.625,406.937,106.438" fill="none" stroke="#003eab" stroke-miterlimit="10"/><path d="M-2519,272.5c534-58,531,71.636,937,140.636s538-90,765.5-183.5,466.5-51.5,635.5,41.5,384,88,384,88" fill="none" stroke="#003ca9" stroke-miterlimit="10"/></g></svg>