<svg xmlns="http://www.w3.org/2000/svg" xmlns:xlink="http://www.w3.org/1999/xlink" viewBox="0 0 2500 250"><defs><clipPath id="a"><rect width="2500" height="250" fill="none"/></clipPath><clipPath id="b"><rect x="2515.783" width="2500" height="250" fill="none"/></clipPath></defs><title>banner-big-code-turquoise</title><rect width="2500" height="250" fill="#006ea3"/><g clip-path="url(#a)"><path d="M1785.823,1a137.492,137.492,0,1,0,268.621,0Z" fill="#0075aa"/><path d="M759.488,30.087H670.876a9.711,9.711,0,0,1,0-19.422h88.612a9.711,9.711,0,0,1,0,19.422Z" fill="#0075aa"/><path d="M965.847,30.087h-166.3a9.711,9.711,0,0,1,0-19.422h166.3a9.711,9.711,0,1,1,0,19.422Z" fill="#0075aa"/><path d="M857.812,66.5H598.043a9.711,9.711,0,0,1,0-19.422H857.812a9.711,9.711,0,1,1,0,19.422Z" fill="#0075aa"/><path d="M795.905,102.919H598.043a9.711,9.711,0,0,1,0-19.422H795.905a9.711,9.711,0,1,1,0,19.422Z" fill="#0075aa"/><path d="M888.159,102.919h-52.2a9.711,9.711,0,0,1,0-19.422h52.2a9.711,9.711,0,1,1,0,19.422Z" fill="#0075aa"/><path d="M727.928,139.335H670.876a9.711,9.711,0,0,1,0-19.422h57.052a9.711,9.711,0,1,1,0,19.422Z" fill="#0075aa"/><path d="M941.569,139.335H770.413a9.711,9.711,0,0,1,0-19.422H941.569a9.711,9.711,0,1,1,0,19.422Z" fill="#0075aa"/><path d="M833.535,175.751H743.708a9.711,9.711,0,0,1,0-19.422h89.827a9.711,9.711,0,1,1,0,19.422Z" fill="#0075aa"/><path d="M795.905,212.168h-52.2a9.711,9.711,0,0,1,0-19.422h52.2a9.711,9.711,0,1,1,0,19.422Z" fill="#0075aa"/><path d="M1007.118,212.168H835.962a9.711,9.711,0,0,1,0-19.422h171.156a9.711,9.711,0,0,1,0,19.422Z" fill="#0075aa"/><path d="M873.592,248.584H670.876a9.711,9.711,0,0,1,0-19.422H873.592a9.711,9.711,0,1,1,0,19.422Z" fill="#0075aa"/><polygon points="2288.549 251 2378.436 36 2234.643 36 2145.151 251 2288.549 251" fill="#0075aa"/><path d="M2232.98,84.422H1973.211a9.711,9.711,0,0,1,0-19.422H2232.98a9.711,9.711,0,0,1,0,19.422Z" fill="#00679c"/><path d="M2098.24,120.838H1973.211a9.711,9.711,0,0,1,0-19.422H2098.24a9.711,9.711,0,1,1,0,19.422Z" fill="#00679c"/><path d="M2321.592,120.838H2140.725a9.711,9.711,0,1,1,0-19.422h180.867a9.711,9.711,0,0,1,0,19.422Z" fill="#00679c"/><path d="M2184.425,157.254H2046.043a9.711,9.711,0,1,1,0-19.422h138.382a9.711,9.711,0,0,1,0,19.422Z" fill="#00679c"/><path d="M2378.645,193.671H2118.876a9.711,9.711,0,0,1,0-19.422h259.769a9.711,9.711,0,0,1,0,19.422Z" fill="#00679c"/><path d="M2207.488,230.087h-88.612a9.711,9.711,0,0,1,0-19.422h88.612a9.711,9.711,0,1,1,0,19.422Z" fill="#00679c"/><path d="M2413.847,230.087h-166.3a9.711,9.711,0,1,1,0-19.422h166.3a9.711,9.711,0,0,1,0,19.422Z" fill="#00679c"/><polygon points="321.514 0 262.906 23.427 262.906 142.949 576.333 0 321.514 0" fill="#00679c"/><polygon points="1424.334 0 1320.69 249 1386.883 249 1490.984 0 1424.334 0" fill="#00679c"/><polygon points="1270.677 249 1270.677 212.272 1114.756 149.529 1114.756 148.119 1270.677 81.398 1270.677 25.665 1052 130.321 1052 168.257 1229.035 249 1270.677 249" fill="#00679c"/><polygon points="1520.323 23.324 1520.323 79.057 1676.722 146.017 1676.722 146.948 1520.323 209.465 1520.323 251 1550.901 251 1739 165.211 1739 127.275 1520.323 23.324" fill="#00679c"/><path d="M1477.561,148.342h0a6.623,6.623,0,0,1,0-9.367l4.779-4.779a6.625,6.625,0,0,0,0-9.367l-4.779-4.779a6.623,6.623,0,0,1,0-9.367h0a6.625,6.625,0,0,1,9.367,0l14.147,14.146a6.623,6.623,0,0,1,0,9.367l-14.147,14.146A6.625,6.625,0,0,1,1477.561,148.342Z" fill="#0075aa"/><polygon points="1401.339 153.025 1377.825 129.512 1401.339 106 1410.705 115.367 1396.561 129.512 1410.705 143.658 1401.339 153.025" fill="#0075aa"/><rect x="1417.663" y="122.889" width="51.667" height="13.248" fill="#0075aa"/><rect x="1478.604" y="167.931" width="158.975" height="13.248" fill="#0075aa"/><rect x="1387.193" y="167.931" width="73.747" height="13.248" fill="#0075aa"/><rect x="1462.706" y="199.726" width="160.3" height="13.248" fill="#0075aa"/><rect x="1387.193" y="199.726" width="58.732" height="13.248" fill="#0075aa"/><rect x="1432.236" y="236.821" width="90.086" height="13.248" fill="#0075aa"/><path d="M237.171,251A154.514,154.514,0,0,0,0,78.014V251Z" fill="#0075aa"/><path d="M124.615,135.254,76.125,251.239H56.561l48.278-115.985Z" fill="#006ea3"/><path d="M204.635,204.907l-64.791,29.55V218.019L186.183,199.5v-.276l-46.339-19.839V162.868l64.791,30.8Z" fill="#006ea3"/><polygon points="0 216.568 41.2 235.359 41.2 218.85 0 202.271 0 216.568" fill="#006ea3"/><polygon points="0 183.279 0 197.704 41.2 180.074 41.2 163.561 0 183.279" fill="#006ea3"/><polygon points="1969.844 1 1969.844 6.381 2016.183 26.22 2016.183 26.496 1969.844 45.019 1969.844 61.457 2034.635 31.907 2034.635 20.667 1993.263 1 1969.844 1" fill="#006ea3"/><polygon points="1871.2 7.074 1871.2 1 1849.389 1 1806.41 21.569 1806.41 32.809 1871.2 62.359 1871.2 45.85 1825.003 27.26 1825.003 26.843 1871.2 7.074" fill="#006ea3"/><polygon points="1919.792 1 1885.561 83.239 1905.125 83.239 1939.507 1 1919.792 1" fill="#006ea3"/></g><g clip-path="url(#b)"><path d="M2704.263,161.333v85.872h-3.532s-7.063-62.17-8.123-67.837-3.532-7.971-11.479-7.971H2515.461c-7.946,0-10.419,2.3-11.478,7.971s-8.353,67.764-8.353,67.764H2492.1l.229-85.8Z" fill="#552786"/><rect x="2476.921" y="157.647" width="244.265" height="5.055" fill="#552786"/></g></svg>