<svg xmlns="http://www.w3.org/2000/svg" xmlns:xlink="http://www.w3.org/1999/xlink" viewBox="0 0 2500 250"><defs><clipPath id="a"><rect x="2521" y="270" width="2500" height="250" fill="none"/></clipPath></defs><title>banner-big-code-2-purple</title><rect width="2500" height="249.763" fill="#5c2d91"/><path d="M1785.823,1a136.7,136.7,0,0,0-3.181,29.346c0,75.56,61.557,136.814,137.492,136.814S2057.625,105.9,2057.625,30.341A136.638,136.638,0,0,0,2054.444,1Z" fill="#683c99"/><path d="M759.488,29.938H670.876a9.663,9.663,0,1,1,0-19.326h88.612a9.663,9.663,0,1,1,0,19.326Z" fill="#683c99"/><path d="M965.847,29.938h-166.3a9.663,9.663,0,1,1,0-19.326h166.3a9.663,9.663,0,1,1,0,19.326Z" fill="#683c99"/><path d="M857.812,66.175H598.043a9.663,9.663,0,1,1,0-19.326H857.812a9.663,9.663,0,1,1,0,19.326Z" fill="#683c99"/><path d="M795.905,102.412H598.043a9.664,9.664,0,1,1,0-19.327H795.905a9.664,9.664,0,1,1,0,19.327Z" fill="#683c99"/><path d="M888.159,102.412h-52.2a9.664,9.664,0,1,1,0-19.327h52.2a9.664,9.664,0,1,1,0,19.327Z" fill="#683c99"/><path d="M727.928,138.648H670.876a9.663,9.663,0,1,1,0-19.326h57.052a9.663,9.663,0,1,1,0,19.326Z" fill="#683c99"/><path d="M941.569,138.648H770.413a9.663,9.663,0,1,1,0-19.326H941.569a9.663,9.663,0,1,1,0,19.326Z" fill="#683c99"/><path d="M833.535,174.885H743.708a9.663,9.663,0,1,1,0-19.326h89.827a9.663,9.663,0,1,1,0,19.326Z" fill="#683c99"/><path d="M795.905,211.122h-52.2a9.664,9.664,0,1,1,0-19.327h52.2a9.664,9.664,0,1,1,0,19.327Z" fill="#683c99"/><path d="M1007.118,211.122H835.962a9.664,9.664,0,1,1,0-19.327h171.156a9.664,9.664,0,1,1,0,19.327Z" fill="#683c99"/><path d="M873.592,247.358H670.876a9.663,9.663,0,1,1,0-19.326H873.592a9.663,9.663,0,1,1,0,19.326Z" fill="#683c99"/><polygon points="2288.549 249.763 2378.436 35.823 2234.643 35.823 2145.151 249.763 2288.549 249.763" fill="#683c99"/><path d="M2232.98,84.006H1973.211a9.663,9.663,0,1,1,0-19.326H2232.98a9.663,9.663,0,1,1,0,19.326Z" fill="#552786"/><path d="M2098.24,120.242H1973.211a9.663,9.663,0,1,1,0-19.326H2098.24a9.663,9.663,0,1,1,0,19.326Z" fill="#552786"/><path d="M2321.592,120.242H2140.725a9.663,9.663,0,1,1,0-19.326h180.867a9.663,9.663,0,1,1,0,19.326Z" fill="#552786"/><path d="M2184.425,156.479H2046.043a9.663,9.663,0,1,1,0-19.326h138.382a9.663,9.663,0,1,1,0,19.326Z" fill="#552786"/><path d="M2378.645,192.716H2118.876a9.664,9.664,0,1,1,0-19.327h259.769a9.664,9.664,0,1,1,0,19.327Z" fill="#552786"/><path d="M2207.488,228.952h-88.612a9.663,9.663,0,1,1,0-19.326h88.612a9.663,9.663,0,1,1,0,19.326Z" fill="#552786"/><path d="M2413.847,228.952h-166.3a9.663,9.663,0,1,1,0-19.326h166.3a9.663,9.663,0,1,1,0,19.326Z" fill="#552786"/><polygon points="321.514 0 262.906 23.312 262.906 142.244 576.333 0 321.514 0" fill="#552786"/><polygon points="1424.334 0 1320.69 247.772 1386.883 247.772 1490.984 0 1424.334 0" fill="#552786"/><polygon points="1270.677 247.772 1270.677 211.225 1114.756 148.791 1114.756 147.388 1270.677 80.997 1270.677 25.539 1052 129.679 1052 167.428 1229.035 247.772 1270.677 247.772" fill="#552786"/><polygon points="1520.323 23.209 1520.323 78.668 1676.722 145.297 1676.722 146.224 1520.323 208.433 1520.323 249.763 1550.901 249.763 1739 164.397 1739 126.648 1520.323 23.209" fill="#552786"/><polygon points="1482.244 152.271 1472.877 142.95 1487.023 128.874 1472.877 114.798 1482.244 105.477 1505.759 128.874 1482.244 152.271" fill="#683c99"/><polygon points="1401.339 152.271 1377.825 128.874 1401.339 105.477 1410.705 114.798 1396.561 128.874 1410.705 142.95 1401.339 152.271" fill="#683c99"/><rect x="1417.663" y="122.283" width="51.667" height="13.183" fill="#683c99"/><rect x="1478.604" y="167.104" width="158.975" height="13.183" fill="#683c99"/><rect x="1387.193" y="167.104" width="73.747" height="13.183" fill="#683c99"/><rect x="1462.706" y="198.742" width="160.3" height="13.183" fill="#683c99"/><rect x="1387.193" y="198.742" width="58.732" height="13.183" fill="#683c99"/><rect x="1432.236" y="235.653" width="90.086" height="13.183" fill="#683c99"/><path d="M237.171,249.763a152.905,152.905,0,0,0,7.454-47.275c0-84.9-69.168-153.73-154.491-153.73A154.3,154.3,0,0,0,0,77.629V249.763Z" fill="#552786"/><path d="M124.615,134.587,76.125,250H56.561l48.278-115.413Z" fill="#5c2d91"/><path d="M204.635,203.9,139.844,233.3V216.944l46.339-18.432v-.274L139.844,178.5V162.065l64.791,30.647Z" fill="#5c2d91"/><polygon points="0 215.501 41.2 234.199 41.2 217.771 0 201.274 0 215.501" fill="#5c2d91"/><polygon points="0 182.376 0 196.73 41.2 179.186 41.2 162.755 0 182.376" fill="#5c2d91"/><polygon points="1969.844 0.995 1969.844 6.349 2016.183 26.09 2016.183 26.365 1969.844 44.797 1969.844 61.154 2034.635 31.749 2034.635 20.565 1993.263 0.995 1969.844 0.995" fill="#5c2d91"/><polygon points="1871.2 7.039 1871.2 0.995 1849.389 0.995 1806.41 21.463 1806.41 32.647 1871.2 62.052 1871.2 45.624 1825.003 27.126 1825.003 26.71 1871.2 7.039" fill="#5c2d91"/><polygon points="1919.792 0.995 1885.561 82.828 1905.125 82.828 1939.507 0.995 1919.792 0.995" fill="#5c2d91"/><g clip-path="url(#a)"><path d="M2401,246.136c536,429,937-4,1437,153,418.228,131.323,253-322,614-137s571-62,571-62" fill="none" stroke="#0060c4" stroke-miterlimit="10"/><path d="M2399.19,252.278c536,429,939.334-8.095,1439.334,148.905,418.228,131.324,255.666-315.9,616.666-130.9s567.81-62.1,567.81-62.1" fill="none" stroke="#005ec3" stroke-miterlimit="10"/><path d="M2397.381,258.421c536,429,941.667-12.19,1441.667,144.81,418.228,131.324,258.333-309.81,619.333-124.81S5023,216.231,5023,216.231" fill="none" stroke="#005dc1" stroke-miterlimit="10"/><path d="M2395.571,264.564c536,429,944-16.286,1444,140.714,418.229,131.324,261-303.714,622-118.714S5023,224.278,5023,224.278" fill="none" stroke="#005bc0" stroke-miterlimit="10"/><path d="M2393.762,270.707c536,429,946.333-20.381,1446.333,136.619,418.229,131.324,263.667-297.619,624.667-112.619S5023,232.326,5023,232.326" fill="none" stroke="#0059bf" stroke-miterlimit="10"/><path d="M2391.952,276.85c536,429,948.667-24.476,1448.667,132.524C4258.848,540.7,4106.952,117.85,4467.952,302.85S5023,240.374,5023,240.374" fill="none" stroke="#0057be" stroke-miterlimit="10"/><path d="M2390.143,282.993c536,429,951-28.572,1451,128.428,418.228,131.324,269-285.428,630-100.428S5023,248.421,5023,248.421" fill="none" stroke="#0056bc" stroke-miterlimit="10"/><path d="M2317,391.136c656-131,777.135-128.04,886,28,90,129,241,242,445,147,238.469-111.052,351-339,599-357,472.613-34.3,592,242,751,383" fill="none" stroke="#0060c4" stroke-miterlimit="10"/><path d="M2320.75,401.073c643.968-120.492,752.692-113.408,881.5,36.125,108.687,126.174,259.562,221.25,465.031,126.344,237.784-109.955,358.293-319.509,601.281-332.094,453.794-23.5,579,232.375,728.063,364.563" fill="none" stroke="#005ec2" stroke-miterlimit="10"/></g></svg>