<svg xmlns="http://www.w3.org/2000/svg" xmlns:xlink="http://www.w3.org/1999/xlink" viewBox="0 0 2500 250"><defs><clipPath id="a"><rect x="2521" y="540" width="2500" height="250" fill="none"/></clipPath></defs><title>banner-devices-1-purple</title><rect width="2500" height="250" fill="#5c2d91"/><path d="M1106,157V105.205a2.2,2.2,0,0,0-2.2-2.2h-77.59a2.2,2.2,0,0,0-2.2,2.2V157h-10.024s.518,4,3.686,4h95.064c2.457,0,3.686-4,3.686-4Zm-79-51h76v48h-76Z" fill="#714aae"/><path d="M1177.925,75h-52.85A1.075,1.075,0,0,0,1124,76.075v35.85a1.075,1.075,0,0,0,1.075,1.075h52.85a1.075,1.075,0,0,0,1.075-1.075V76.075A1.075,1.075,0,0,0,1177.925,75ZM1175,110h-47V78h47Z" fill="#401467"/><path d="M1212.165,112h-15.33a.835.835,0,0,0-.835.835V145.16a.852.852,0,0,0,.238.594.8.8,0,0,0,.575.246h15.352a.835.835,0,0,0,.835-.835v-32.33A.835.835,0,0,0,1212.165,112ZM1212,141h-15V116h15Z" fill="#401467"/><path d="M984.165,78h-15.33a.835.835,0,0,0-.835.835V111.16a.852.852,0,0,0,.238.594.8.8,0,0,0,.575.246h15.352a.835.835,0,0,0,.835-.835V78.835A.835.835,0,0,0,984.165,78ZM984,107H969V82h15Z" fill="#401467"/><path d="M1179.67,63.427c-.226,0-.446.025-.67.034V65.8c.224-.01.444-.034.67-.034A14.259,14.259,0,0,1,1193.76,78h2.359A16.6,16.6,0,0,0,1179.67,63.427Z" fill="#714aae"/><path d="M1179.67,55.384c-.224,0-.447.011-.67.017v2.335c.223-.007.446-.017.67-.017A22.32,22.32,0,0,1,1201.867,78h2.341A24.655,24.655,0,0,0,1179.67,55.384Z" fill="#714aae"/><path d="M1179.67,46.615c-.224,0-.446.012-.67.017v2.335c.224,0,.446-.017.67-.017A31.1,31.1,0,0,1,1210.659,78H1213A33.435,33.435,0,0,0,1179.67,46.615Z" fill="#714aae"/><polyline points="1204 154 1204 200 976 200 976 123" fill="none" stroke="#714aae" stroke-miterlimit="10"/><path d="M1376,197V145.205a2.2,2.2,0,0,0-2.2-2.205h-77.59a2.2,2.2,0,0,0-2.2,2.205V197h-10.024s.518,4,3.686,4h95.064c2.457,0,3.686-4,3.686-4Zm-79-51h76v48h-76Z" fill="#714aae"/><path d="M1269,60.075v52.85a1.075,1.075,0,0,0,1.075,1.075h35.85a1.075,1.075,0,0,0,1.075-1.075V60.075A1.075,1.075,0,0,0,1305.925,59h-35.85A1.075,1.075,0,0,0,1269,60.075ZM1304,63v47h-32V63Z" fill="#401467"/><path d="M1482.165,152h-15.33a.835.835,0,0,0-.835.835V185.16a.852.852,0,0,0,.238.594.8.8,0,0,0,.575.246h15.352a.835.835,0,0,0,.835-.835v-32.33A.835.835,0,0,0,1482.165,152ZM1482,181h-15V156h15Z" fill="#401467"/><path d="M1352.165,9h-15.33a.835.835,0,0,0-.835.835V42.16a.852.852,0,0,0,.238.594.8.8,0,0,0,.575.246h15.352a.835.835,0,0,0,.835-.835V9.835A.835.835,0,0,0,1352.165,9ZM1352,38h-15V13h15Z" fill="#401467"/><path d="M1447.427,151.33c0,.226.025.446.034.67h2.335c-.01-.224-.034-.444-.034-.67A14.259,14.259,0,0,1,1462,137.24v-2.359A16.6,16.6,0,0,0,1447.427,151.33Z" fill="#714aae"/><path d="M1439.384,151.33c0,.224.011.447.017.67h2.335c-.007-.223-.017-.446-.017-.67a22.32,22.32,0,0,1,20.281-22.2v-2.341A24.655,24.655,0,0,0,1439.384,151.33Z" fill="#714aae"/><path d="M1430.615,151.33c0,.224.012.446.017.67h2.335c-.005-.224-.017-.446-.017-.67A31.1,31.1,0,0,1,1462,120.341V118A33.435,33.435,0,0,0,1430.615,151.33Z" fill="#714aae"/><line x1="1474.5" y1="250.5" x2="1474.5" y2="197" fill="none" stroke="#714aae" stroke-miterlimit="10"/><polyline points="1317.5 82.5 1430.5 82.5 1430.5 1" fill="none" stroke="#714aae" stroke-miterlimit="10"/><path d="M1583,92V40.205a2.2,2.2,0,0,0-2.2-2.2h-77.59a2.2,2.2,0,0,0-2.2,2.2V92h-10.024s.518,4,3.686,4h95.064c2.457,0,3.686-4,3.686-4Zm-79-51h76V89h-76Z" fill="#401467"/><path d="M1568.075,173h52.85a1.075,1.075,0,0,0,1.075-1.075v-35.85a1.075,1.075,0,0,0-1.075-1.075h-52.85a1.075,1.075,0,0,0-1.075,1.075v35.85A1.075,1.075,0,0,0,1568.075,173ZM1571,138h47v32h-47Z" fill="#714aae"/><path d="M1559.165,197h-15.33a.835.835,0,0,0-.835.835V230.16a.852.852,0,0,0,.238.594.8.8,0,0,0,.575.246h15.352a.835.835,0,0,0,.835-.835v-32.33A.835.835,0,0,0,1559.165,197ZM1559,226h-15V201h15Z" fill="#401467"/><path d="M1584.67,23.427c-.226,0-.446.025-.67.034V25.8c.224-.01.444-.034.67-.034A14.259,14.259,0,0,1,1598.76,38h2.359A16.6,16.6,0,0,0,1584.67,23.427Z" fill="#714aae"/><path d="M1584.67,15.384c-.224,0-.447.011-.67.017v2.335c.223-.007.446-.017.67-.017A22.32,22.32,0,0,1,1606.867,38h2.341A24.655,24.655,0,0,0,1584.67,15.384Z" fill="#714aae"/><path d="M1584.67,6.615c-.224,0-.446.012-.67.017V8.967c.224-.005.446-.017.67-.017A31.1,31.1,0,0,1,1615.659,38H1618A33.435,33.435,0,0,0,1584.67,6.615Z" fill="#714aae"/><path d="M954.427,78.33c0,.226.025.446.034.67H956.8c-.01-.224-.034-.444-.034-.67A14.259,14.259,0,0,1,969,64.24V61.881A16.6,16.6,0,0,0,954.427,78.33Z" fill="#714aae"/><path d="M946.384,78.33c0,.224.011.447.017.67h2.335c-.007-.223-.017-.446-.017-.67A22.32,22.32,0,0,1,969,56.133V53.792A24.655,24.655,0,0,0,946.384,78.33Z" fill="#714aae"/><path d="M937.615,78.33c0,.224.012.446.017.67h2.335c0-.224-.017-.446-.017-.67A31.1,31.1,0,0,1,969,47.341V45A33.435,33.435,0,0,0,937.615,78.33Z" fill="#714aae"/><line x1="1052.5" y1="46.5" x2="1052.5" y2="94.5" fill="none" stroke="#714aae" stroke-miterlimit="10"/><path d="M1866,157V105.205a2.2,2.2,0,0,0-2.2-2.2h-77.59a2.2,2.2,0,0,0-2.2,2.2V157h-10.024s.518,4,3.686,4h95.064c2.457,0,3.686-4,3.686-4Zm-79-51h76v48h-76Z" fill="#714aae"/><path d="M1937.925,75h-52.85A1.075,1.075,0,0,0,1884,76.075v35.85a1.075,1.075,0,0,0,1.075,1.075h52.85a1.075,1.075,0,0,0,1.075-1.075V76.075A1.075,1.075,0,0,0,1937.925,75ZM1935,110h-47V78h47Z" fill="#401467"/><path d="M1972.165,112h-15.33a.835.835,0,0,0-.835.835V145.16a.852.852,0,0,0,.238.594.8.8,0,0,0,.575.246h15.352a.835.835,0,0,0,.835-.835v-32.33A.835.835,0,0,0,1972.165,112ZM1972,141h-15V116h15Z" fill="#401467"/><path d="M1744.165,78h-15.33a.835.835,0,0,0-.835.835V111.16a.852.852,0,0,0,.238.594.8.8,0,0,0,.575.246h15.352a.835.835,0,0,0,.835-.835V78.835A.835.835,0,0,0,1744.165,78ZM1744,107h-15V82h15Z" fill="#401467"/><path d="M1939.67,63.427c-.226,0-.446.025-.67.034V65.8c.224-.01.444-.034.67-.034A14.259,14.259,0,0,1,1953.76,78h2.359A16.6,16.6,0,0,0,1939.67,63.427Z" fill="#714aae"/><path d="M1939.67,55.384c-.224,0-.447.011-.67.017v2.335c.223-.007.446-.017.67-.017A22.32,22.32,0,0,1,1961.867,78h2.341A24.655,24.655,0,0,0,1939.67,55.384Z" fill="#714aae"/><path d="M1939.67,46.615c-.224,0-.446.012-.67.017v2.335c.224,0,.446-.017.67-.017A31.1,31.1,0,0,1,1970.659,78H1973A33.435,33.435,0,0,0,1939.67,46.615Z" fill="#714aae"/><polyline points="1964 154 1964 200 1736 200 1736 122" fill="none" stroke="#714aae" stroke-miterlimit="10"/><path d="M2136,197V145.205a2.2,2.2,0,0,0-2.2-2.205h-77.59a2.2,2.2,0,0,0-2.2,2.205V197h-10.024s.518,4,3.686,4h95.064c2.457,0,3.686-4,3.686-4Zm-79-51h76v48h-76Z" fill="#714aae"/><path d="M2029,60.075v52.85a1.075,1.075,0,0,0,1.075,1.075h35.85a1.075,1.075,0,0,0,1.075-1.075V60.075A1.075,1.075,0,0,0,2065.925,59h-35.85A1.075,1.075,0,0,0,2029,60.075ZM2064,63v47h-32V63Z" fill="#401467"/><path d="M2242.165,152h-15.33a.835.835,0,0,0-.835.835V185.16a.852.852,0,0,0,.238.594.8.8,0,0,0,.575.246h15.352a.835.835,0,0,0,.835-.835v-32.33A.835.835,0,0,0,2242.165,152ZM2242,181h-15V156h15Z" fill="#401467"/><path d="M2112.165,9h-15.33a.835.835,0,0,0-.835.835V42.16a.852.852,0,0,0,.238.594.8.8,0,0,0,.575.246h15.352a.835.835,0,0,0,.835-.835V9.835A.835.835,0,0,0,2112.165,9ZM2112,38h-15V13h15Z" fill="#401467"/><path d="M2207.427,151.33c0,.226.025.446.034.67h2.335c-.01-.224-.034-.444-.034-.67A14.259,14.259,0,0,1,2222,137.24v-2.359A16.6,16.6,0,0,0,2207.427,151.33Z" fill="#714aae"/><path d="M2199.384,151.33c0,.224.011.447.017.67h2.335c-.007-.223-.017-.446-.017-.67a22.32,22.32,0,0,1,20.281-22.2v-2.341A24.655,24.655,0,0,0,2199.384,151.33Z" fill="#714aae"/><path d="M2190.615,151.33c0,.224.012.446.017.67h2.335c-.005-.224-.017-.446-.017-.67A31.1,31.1,0,0,1,2222,120.341V118A33.435,33.435,0,0,0,2190.615,151.33Z" fill="#714aae"/><line x1="2234.5" y1="250" x2="2234.5" y2="195.5" fill="none" stroke="#714aae" stroke-miterlimit="10"/><polyline points="2077.5 82.5 2190.5 82.5 2190.5 1" fill="none" stroke="#714aae" stroke-miterlimit="10"/><path d="M2343,92V40.205a2.2,2.2,0,0,0-2.2-2.2h-77.59a2.2,2.2,0,0,0-2.2,2.2V92h-10.024s.518,4,3.686,4h95.064c2.457,0,3.686-4,3.686-4Zm-79-51h76V89h-76Z" fill="#401467"/><path d="M2328.075,173h52.85a1.075,1.075,0,0,0,1.075-1.075v-35.85a1.075,1.075,0,0,0-1.075-1.075h-52.85a1.075,1.075,0,0,0-1.075,1.075v35.85A1.075,1.075,0,0,0,2328.075,173ZM2331,138h47v32h-47Z" fill="#714aae"/><path d="M2319.165,197h-15.33a.835.835,0,0,0-.835.835V230.16a.852.852,0,0,0,.238.594.8.8,0,0,0,.575.246h15.352a.835.835,0,0,0,.835-.835v-32.33A.835.835,0,0,0,2319.165,197ZM2319,226h-15V201h15Z" fill="#401467"/><path d="M2344.67,23.427c-.226,0-.446.025-.67.034V25.8c.224-.01.444-.034.67-.034A14.259,14.259,0,0,1,2358.76,38h2.359A16.6,16.6,0,0,0,2344.67,23.427Z" fill="#714aae"/><path d="M2344.67,15.384c-.224,0-.447.011-.67.017v2.335c.223-.007.446-.017.67-.017A22.32,22.32,0,0,1,2366.867,38h2.341A24.655,24.655,0,0,0,2344.67,15.384Z" fill="#714aae"/><path d="M2344.67,6.615c-.224,0-.446.012-.67.017V8.967c.224-.005.446-.017.67-.017A31.1,31.1,0,0,1,2375.659,38H2378A33.435,33.435,0,0,0,2344.67,6.615Z" fill="#714aae"/><path d="M1714.427,78.33c0,.226.025.446.034.67h2.335c-.01-.224-.034-.444-.034-.67A14.259,14.259,0,0,1,1729,64.24V61.881A16.6,16.6,0,0,0,1714.427,78.33Z" fill="#714aae"/><path d="M1706.384,78.33c0,.224.011.447.017.67h2.335c-.007-.223-.017-.446-.017-.67A22.32,22.32,0,0,1,1729,56.133V53.792A24.655,24.655,0,0,0,1706.384,78.33Z" fill="#714aae"/><path d="M1697.615,78.33c0,.224.012.446.017.67h2.335c-.005-.224-.017-.446-.017-.67A31.1,31.1,0,0,1,1729,47.341V45A33.435,33.435,0,0,0,1697.615,78.33Z" fill="#714aae"/><line x1="1812.5" y1="47.5" x2="1812.5" y2="94.5" fill="none" stroke="#714aae" stroke-miterlimit="10"/><path d="M323,218V166.205A2.2,2.2,0,0,0,320.8,164h-77.59A2.2,2.2,0,0,0,241,166.205V218H230.976s.518,4,3.686,4h95.064c2.457,0,3.686-4,3.686-4Zm-79-51h76v48H244Z" fill="#714aae"/><path d="M407.925,35h-52.85A1.075,1.075,0,0,0,354,36.075v35.85A1.075,1.075,0,0,0,355.075,73h52.85A1.075,1.075,0,0,0,409,71.925V36.075A1.075,1.075,0,0,0,407.925,35ZM405,70H358V38h47Z" fill="#401467"/><path d="M928.165,149h-15.33a.835.835,0,0,0-.835.835V182.16a.852.852,0,0,0,.238.594.8.8,0,0,0,.575.246h15.352a.835.835,0,0,0,.835-.835v-32.33A.835.835,0,0,0,928.165,149ZM928,178H913V153h15Z" fill="#401467"/><path d="M214.165,30h-15.33a.835.835,0,0,0-.835.835V63.16a.852.852,0,0,0,.238.594.8.8,0,0,0,.575.246h15.352a.835.835,0,0,0,.835-.835V30.835A.835.835,0,0,0,214.165,30ZM214,59H199V34h15Z" fill="#401467"/><polyline points="404 233.5 206 233.5 206 76.5" fill="none" stroke="#714aae" stroke-miterlimit="10"/><path d="M606,227V175.205A2.2,2.2,0,0,0,603.795,173h-77.59A2.2,2.2,0,0,0,524,175.205V227H513.976s.518,4,3.686,4h95.064c2.457,0,3.686-4,3.686-4Zm-79-51h76v48H527Z" fill="#401467"/><path d="M509,60.075v52.85A1.075,1.075,0,0,0,510.075,114h35.85A1.075,1.075,0,0,0,547,112.925V60.075A1.075,1.075,0,0,0,545.925,59h-35.85A1.075,1.075,0,0,0,509,60.075ZM544,63v47H512V63Z" fill="#401467"/><path d="M712.165,152h-15.33a.835.835,0,0,0-.835.835V185.16a.852.852,0,0,0,.238.594.8.8,0,0,0,.575.246h15.352a.835.835,0,0,0,.835-.835v-32.33A.835.835,0,0,0,712.165,152ZM712,181H697V156h15Z" fill="#401467"/><path d="M582.165,9h-15.33a.835.835,0,0,0-.835.835V42.16a.852.852,0,0,0,.238.594.8.8,0,0,0,.575.246h15.352a.835.835,0,0,0,.835-.835V9.835A.835.835,0,0,0,582.165,9ZM582,38H567V13h15Z" fill="#401467"/><path d="M677.427,151.33c0,.226.025.446.034.67H679.8c-.01-.224-.034-.444-.034-.67A14.259,14.259,0,0,1,692,137.24v-2.359A16.6,16.6,0,0,0,677.427,151.33Z" fill="#714aae"/><path d="M669.384,151.33c0,.224.011.447.017.67h2.335c-.007-.223-.017-.446-.017-.67A22.32,22.32,0,0,1,692,129.133v-2.341A24.655,24.655,0,0,0,669.384,151.33Z" fill="#714aae"/><path d="M660.615,151.33c0,.224.012.446.017.67h2.335c0-.224-.017-.446-.017-.67A31.1,31.1,0,0,1,692,120.341V118A33.435,33.435,0,0,0,660.615,151.33Z" fill="#714aae"/><line x1="704.5" y1="250.5" x2="704.5" y2="197" fill="none" stroke="#714aae" stroke-miterlimit="10"/><polyline points="557.5 82.5 670.5 82.5 670.5 1" fill="none" stroke="#714aae" stroke-miterlimit="10"/><path d="M813,92V40.205A2.2,2.2,0,0,0,810.8,38h-77.59a2.2,2.2,0,0,0-2.205,2.2V92H720.976s.518,4,3.686,4h95.064c2.457,0,3.686-4,3.686-4ZM734,41h76V89H734Z" fill="#401467"/><path d="M798.075,173h52.85A1.075,1.075,0,0,0,852,171.925v-35.85A1.075,1.075,0,0,0,850.925,135h-52.85A1.075,1.075,0,0,0,797,136.075v35.85A1.075,1.075,0,0,0,798.075,173ZM801,138h47v32H801Z" fill="#714aae"/><path d="M789.165,197h-15.33a.835.835,0,0,0-.835.835V230.16a.852.852,0,0,0,.238.594.8.8,0,0,0,.575.246h15.352a.835.835,0,0,0,.835-.835v-32.33A.835.835,0,0,0,789.165,197ZM789,226H774V201h15Z" fill="#401467"/><path d="M814.67,23.427c-.226,0-.446.025-.67.034V25.8c.224-.01.444-.034.67-.034A14.259,14.259,0,0,1,828.76,38h2.359A16.6,16.6,0,0,0,814.67,23.427Z" fill="#714aae"/><path d="M814.67,15.384c-.224,0-.447.011-.67.017v2.335c.223-.007.446-.017.67-.017A22.32,22.32,0,0,1,836.867,38h2.341A24.655,24.655,0,0,0,814.67,15.384Z" fill="#714aae"/><path d="M814.67,6.615c-.224,0-.446.012-.67.017V8.967c.224-.005.446-.017.67-.017A31.1,31.1,0,0,1,845.659,38H848A33.435,33.435,0,0,0,814.67,6.615Z" fill="#714aae"/><path d="M1705.925,194h-52.85a1.075,1.075,0,0,0-1.075,1.075v35.85a1.075,1.075,0,0,0,1.075,1.075h52.85a1.075,1.075,0,0,0,1.075-1.075v-35.85A1.075,1.075,0,0,0,1705.925,194ZM1703,229h-47V197h47Z" fill="#401467"/><path d="M47.558,169s1.232,4,3.7,4H146.6c3.178,0,3.7-4,3.7-4H140V117.205a2.2,2.2,0,0,0-2.205-2.2H60.205a2.2,2.2,0,0,0-2.2,2.2V169ZM137,166H61V118h76Z" fill="#401467"/><path d="M113,58.925V23.075A1.075,1.075,0,0,0,111.925,22H59.075A1.075,1.075,0,0,0,58,23.075v35.85A1.075,1.075,0,0,0,59.075,60h52.85A1.075,1.075,0,0,0,113,58.925ZM109,57H62V25h47Z" fill="#714aae"/><path d="M101.835,211a.835.835,0,0,0-.835.835v32.33a.835.835,0,0,0,.835.835h15.352a.8.8,0,0,0,.575-.246.852.852,0,0,0,.238-.594V211.835a.835.835,0,0,0-.835-.835Zm.165,4h15v25H102Z" fill="#401467"/><path d="M56.306,100.427c.226,0,.446.025.671.034V102.8c-.224-.01-.445-.034-.671-.034A14.258,14.258,0,0,0,42.217,115h-2.36A16.6,16.6,0,0,1,56.306,100.427Z" fill="#714aae"/><path d="M56.306,92.384c.225,0,.447.011.671.017v2.335c-.224-.007-.446-.017-.671-.017A22.319,22.319,0,0,0,34.11,115H31.769A24.655,24.655,0,0,1,56.306,92.384Z" fill="#714aae"/><path d="M56.306,83.615c.225,0,.447.012.671.017v2.335c-.224,0-.446-.017-.671-.017A31.1,31.1,0,0,0,25.318,115H22.977A33.434,33.434,0,0,1,56.306,83.615Z" fill="#714aae"/><path d="M1828,0V36h-32V0h-3V38.925A1.075,1.075,0,0,0,1794.075,40h35.85A1.075,1.075,0,0,0,1831,38.925V0Z" fill="#401467"/><path d="M1904,250V224h32v26h3V221.075a1.075,1.075,0,0,0-1.075-1.075h-35.85a1.075,1.075,0,0,0-1.075,1.075V250Z" fill="#401467"/><path d="M2500,222h-44V174h44v-4h-44.96c-1.218.39-2.04,2.595-2.04,2.595V224h-10.018s.517,4,3.684,4H2500Z" fill="#401467"/><path d="M1144,250V223h32v27h3V220.075a1.075,1.075,0,0,0-1.075-1.075h-35.85a1.075,1.075,0,0,0-1.075,1.075V250Z" fill="#401467"/><path d="M878,250V234h47v16h4V232.075A1.075,1.075,0,0,0,927.925,231h-52.85A1.075,1.075,0,0,0,874,232.075V250Z" fill="#401467"/><path d="M417,250V223h32v27h3V220.075A1.075,1.075,0,0,0,450.925,219h-35.85A1.075,1.075,0,0,0,414,220.075V250Z" fill="#401467"/><path d="M298,0V36H266V0h-3V38.925A1.075,1.075,0,0,0,264.075,40h35.85A1.075,1.075,0,0,0,301,38.925V0Z" fill="#401467"/><path d="M1069,0V35h-32V0h-3V37.925A1.075,1.075,0,0,0,1035.075,39h35.85A1.075,1.075,0,0,0,1072,37.925V0Z" fill="#401467"/><path d="M2441,51.075v52.85a1.075,1.075,0,0,0,1.075,1.075h35.85a1.075,1.075,0,0,0,1.075-1.075V51.075A1.075,1.075,0,0,0,2477.925,50h-35.85A1.075,1.075,0,0,0,2441,51.075ZM2476,54v47h-32V54Z" fill="#401467"/><line x1="47.5" y1="152.5" x2="1.5" y2="152.5" fill="none" stroke="#714aae" stroke-miterlimit="10"/></svg>