<svg xmlns="http://www.w3.org/2000/svg" xmlns:xlink="http://www.w3.org/1999/xlink" viewBox="0 0 2500 250"><defs><clipPath id="a"><rect width="2500" height="250" fill="none"/></clipPath></defs><title>banner-big-code-dark-blue</title><g clip-path="url(#a)"><rect width="2500" height="250" fill="#002050"/><ellipse cx="1920.134" cy="30.37" rx="137.492" ry="136.944" fill="#002e65"/><path d="M1871,62.226,1806,32.7V21.468l65-30.985V7.128l-46,19.606v.414l46,18.437Z" fill="#002050"/><path d="M1953.62-32.869l-48.5,115.538h-19.566l48.284-115.538Z" fill="#002050"/><path d="M2035,31.8l-65,29.527V44.7l46-18.315v-.272L1970,6.5v-16.7l65,30.775Z" fill="#002050"/><path d="M758.526,29.88H672.21A9.732,9.732,0,0,1,662.356,21a9.479,9.479,0,0,1,9.482-10.048h86.316a9.732,9.732,0,0,1,9.854,8.877A9.479,9.479,0,0,1,758.526,29.88Z" fill="#002e65"/><path d="M965.847,29.88H799.7a9.744,9.744,0,0,1-9.767-8.086,9.553,9.553,0,0,1,9.611-10.838H965.691a9.745,9.745,0,0,1,9.767,8.086A9.553,9.553,0,0,1,965.847,29.88Z" fill="#002e65"/><path d="M857.812,65.737H598.2a9.745,9.745,0,0,1-9.767-8.086,9.553,9.553,0,0,1,9.611-10.838H857.656a9.743,9.743,0,0,1,9.767,8.086A9.552,9.552,0,0,1,857.812,65.737Z" fill="#002e65"/><path d="M795.905,102.59H598.2a9.745,9.745,0,0,1-9.767-8.086,9.554,9.554,0,0,1,9.611-10.839H795.749a9.745,9.745,0,0,1,9.767,8.086A9.554,9.554,0,0,1,795.905,102.59Z" fill="#002e65"/><path d="M887.592,102.59H836.9a9.733,9.733,0,0,1-9.854-8.877,9.479,9.479,0,0,1,9.482-10.048h50.692a9.733,9.733,0,0,1,9.853,8.877A9.479,9.479,0,0,1,887.592,102.59Z" fill="#002e65"/><path d="M727.308,138.446H671.867a9.732,9.732,0,0,1-9.854-8.876,9.479,9.479,0,0,1,9.482-10.048h55.442a9.732,9.732,0,0,1,9.853,8.876A9.479,9.479,0,0,1,727.308,138.446Z" fill="#002e65"/><path d="M941.569,138.446h-171a9.744,9.744,0,0,1-9.767-8.086,9.553,9.553,0,0,1,9.611-10.838h171a9.745,9.745,0,0,1,9.767,8.086A9.554,9.554,0,0,1,941.569,138.446Z" fill="#002e65"/><path d="M832.559,175.3h-87.5a9.731,9.731,0,0,1-9.853-8.877,9.479,9.479,0,0,1,9.482-10.047h87.5a9.732,9.732,0,0,1,9.854,8.876A9.479,9.479,0,0,1,832.559,175.3Z" fill="#002e65"/><path d="M795.338,211.155H744.647a9.732,9.732,0,0,1-9.854-8.876,9.479,9.479,0,0,1,9.482-10.048h50.691a9.732,9.732,0,0,1,9.854,8.876A9.479,9.479,0,0,1,795.338,211.155Z" fill="#002e65"/><path d="M1007.118,211.155h-171a9.744,9.744,0,0,1-9.767-8.086,9.553,9.553,0,0,1,9.611-10.838h171a9.745,9.745,0,0,1,9.767,8.086A9.554,9.554,0,0,1,1007.118,211.155Z" fill="#002e65"/><path d="M873.592,247.012H671.031a9.744,9.744,0,0,1-9.766-8.086,9.552,9.552,0,0,1,9.611-10.838H873.437a9.744,9.744,0,0,1,9.767,8.086A9.554,9.554,0,0,1,873.592,247.012Z" fill="#002e65"/><ellipse cx="90.134" cy="202.681" rx="154.492" ry="153.876" fill="#002e65"/><path d="M41,234.537-24,205.01V193.778l65-30.984v16.645L-5,199.045v.414L41,217.9Z" fill="#002050"/><path d="M123.62,139.442,75.123,254.98H55.557l48.284-115.538Z" fill="#002050"/><path d="M205,204.11l-65,29.528V217.009L186,198.7v-.273l-46-19.615V162.1l65,30.775Z" fill="#002050"/><polygon points="2288.549 250 2378.436 35.857 2234.643 35.857 2145.151 250 2288.549 250" fill="#002e65"/><path d="M2232.98,83.665H1973.367a9.743,9.743,0,0,1-9.767-8.086,9.552,9.552,0,0,1,9.611-10.838h259.613a9.745,9.745,0,0,1,9.767,8.086A9.553,9.553,0,0,1,2232.98,83.665Z" fill="#011b3f"/><path d="M2098.24,120.518H1973.367a9.744,9.744,0,0,1-9.767-8.086,9.552,9.552,0,0,1,9.611-10.838h124.873a9.744,9.744,0,0,1,9.767,8.086A9.552,9.552,0,0,1,2098.24,120.518Z" fill="#011b3f"/><path d="M2321.592,120.518H2140.881a9.745,9.745,0,0,1-9.767-8.086,9.553,9.553,0,0,1,9.611-10.838h180.712a9.744,9.744,0,0,1,9.767,8.086A9.554,9.554,0,0,1,2321.592,120.518Z" fill="#011b3f"/><path d="M2184.425,156.375H2046.2a9.745,9.745,0,0,1-9.767-8.087,9.554,9.554,0,0,1,9.611-10.838h138.226a9.745,9.745,0,0,1,9.767,8.086A9.554,9.554,0,0,1,2184.425,156.375Z" fill="#011b3f"/><path d="M2378.645,192.231H2119.031a9.744,9.744,0,0,1-9.766-8.086,9.552,9.552,0,0,1,9.611-10.838h259.613a9.744,9.744,0,0,1,9.767,8.086A9.553,9.553,0,0,1,2378.645,192.231Z" fill="#011b3f"/><path d="M2206.526,229.084H2120.21a9.733,9.733,0,0,1-9.854-8.877,9.479,9.479,0,0,1,9.482-10.048h86.316a9.733,9.733,0,0,1,9.854,8.877A9.479,9.479,0,0,1,2206.526,229.084Z" fill="#011b3f"/><path d="M2413.847,229.084H2247.7a9.745,9.745,0,0,1-9.767-8.086,9.554,9.554,0,0,1,9.611-10.839h166.145a9.745,9.745,0,0,1,9.767,8.086A9.554,9.554,0,0,1,2413.847,229.084Z" fill="#011b3f"/><polygon points="321.608 0 263 23.334 263 142.379 576.427 0 321.608 0" fill="#011b3f"/><polygon points="1424.334 0 1320.69 248.008 1386.883 248.008 1490.984 0 1424.334 0" fill="#011b3f"/><polygon points="1271 248.008 1271 211.459 1115 148.934 1115 147.529 1271 81.041 1271 25.563 1052 129.802 1052 167.587 1229.297 248.008 1271 248.008" fill="#011b3f"/><polygon points="1521 23.231 1521 78.908 1677 145.431 1677 146.356 1521 208.465 1521 250 1551.483 250 1739 164.553 1739 126.768 1521 23.231" fill="#011b3f"/><polygon points="1482.244 152.415 1472.877 143.086 1487.023 128.996 1472.877 114.907 1482.244 105.578 1505.759 128.996 1482.244 152.415" fill="#002e65"/><polygon points="1401.339 152.415 1377.825 128.996 1401.339 105.578 1410.705 114.907 1396.561 128.996 1410.705 143.086 1401.339 152.415" fill="#002e65"/><rect x="1417" y="122.51" width="52" height="12.948" fill="#002e65"/><rect x="1479" y="167.331" width="159" height="12.948" fill="#002e65"/><rect x="1387" y="167.331" width="74" height="12.948" fill="#002e65"/><rect x="1463" y="199.203" width="160" height="12.948" fill="#002e65"/><rect x="1387" y="199.203" width="59" height="12.948" fill="#002e65"/><rect x="1432" y="236.056" width="90" height="12.948" fill="#002e65"/></g></svg>