<svg xmlns="http://www.w3.org/2000/svg" xmlns:xlink="http://www.w3.org/1999/xlink" viewBox="0 0 2500 250"><defs><clipPath id="a"><rect x="-2520.847" y="-269.965" width="2500.046" height="250.028" fill="none"/></clipPath><clipPath id="b"><rect x="-2520.187" y="-0.063" width="2500" height="250" fill="none"/></clipPath><clipPath id="c"><rect x="-0.113" y="0.063" width="2500" height="250" fill="none"/></clipPath></defs><title>banner-cloud-vectors-blue</title><g clip-path="url(#b)"><line x1="600.244" y1="224.822" x2="-849.756" y2="224.822" fill="none"/><line x1="600.244" y1="111.333" x2="-849.756" y2="111.333" fill="none"/><line x1="444.732" y1="336.418" x2="444.732" y2="-3.317" fill="none"/><line x1="267.14" y1="336.418" x2="267.14" y2="-3.317" fill="none"/><line x1="89.549" y1="336.418" x2="89.549" y2="-3.317" fill="none"/><polyline points="-484.289 406.88 418.244 405.482 -523.756 5.084 -842.697 5.729" fill="#7047aa" opacity="0.7"/><polygon points="-847.58 403.747 15.856 -2.014 217.127 -2.744 -134.674 403.923 -847.58 403.747" fill="#5c2d91" opacity="0.7"/><polygon points="-543.464 -2.903 416.497 405.814 483.592 403.747 483.592 -2.014 -543.464 -2.903" fill="#5c2d91"/></g><rect x="0.265" width="2499.735" height="250" fill="#00188e"/><g clip-path="url(#c)"><g opacity="0.25"><path d="M199.153,73.062l-32-83h-176l129,150-130,27s-8,39-5,43,66,58,66,58" fill="none" stroke="#80def8" stroke-miterlimit="10"/><polyline points="127.153 -16.938 125.153 139.063 50.153 267.063 -20.847 273.063" fill="none" stroke="#80def8" stroke-miterlimit="10"/><line x1="177.153" y1="249.063" x2="124.153" y2="261.063" fill="none" stroke="#80def8" stroke-miterlimit="10"/><line x1="678.153" y1="-9.938" x2="527.153" y2="119.063" fill="none" stroke="#80def8" stroke-miterlimit="10"/><polyline points="639.153 -15.938 693.153 131.063 664.153 214.063 627.153 199.063 692.153 130.063 522.153 -9.938 584.153 -10.938 774.153 63.063 763.153 -8.938" fill="none" stroke="#80def8" stroke-miterlimit="10"/><polyline points="733.153 175.063 737.153 208.063 826.153 176.063 871.153 269.063 956.153 176.063 1028.153 364.063 1113.153 214.063 1064.153 171.063 934.153 331.063 952.153 408.063" fill="none" stroke="#80def8" stroke-miterlimit="10"/><line x1="1112.153" y1="214.063" x2="872.153" y2="273.063" fill="none" stroke="#80def8" stroke-miterlimit="10"/><polyline points="934.153 327.063 1029.153 363.063 1173.153 292.063 955.153 176.063" fill="none" stroke="#80def8" stroke-miterlimit="10"/><polyline points="1026.153 -8.938 1046.153 26.063 1118.153 -18.938 1257.153 50.063 1108.153 81.063 1247.153 -20.938 1332.153 45.063 1349.153 -8.938" fill="none" stroke="#80def8" stroke-miterlimit="10"/><polyline points="1195.153 147.063 1108.153 81.063 1120.153 -8.938" fill="none" stroke="#80def8" stroke-miterlimit="10"/><path d="M1372.153-6.938c2,1,39,132,39,132" fill="none" stroke="#80def8" stroke-miterlimit="10"/><path d="M1443.153,65.062c-1-1-111-20-111-20" fill="none" stroke="#80def8" stroke-miterlimit="10"/><line x1="563.653" y1="-9.938" x2="527.153" y2="119.063" fill="none" stroke="#80def8" stroke-miterlimit="10"/><line x1="-6.847" y1="96.063" x2="217.153" y2="-10.938" fill="none" stroke="#80def8" stroke-miterlimit="10"/><polyline points="16.387 269.563 90.387 -8.438 180.653 -9.438 267.153 93.063 265.653 -8.438" fill="none" stroke="#80def8" stroke-miterlimit="10"/><polyline points="365.153 416.063 320.153 380.063 308.153 259.063 514.153 377.063 378.153 444.063 465.153 256.063 257.153 327.063 177.153 249.063 -9.847 185.063" fill="none" stroke="#80def8" stroke-miterlimit="10"/><path d="M631.259,199.931a4.132,4.132,0,0,0-1.814-3.422A72.231,72.231,0,0,0,558.2,111.955a71.62,71.62,0,0,0-27.634,5.5,4.153,4.153,0,0,0-2.208-2.208A133.717,133.717,0,0,0,454.052,3.34a4.143,4.143,0,0,0,.076-.753A4.122,4.122,0,0,0,446.763.029a134.156,134.156,0,0,0-81.875-6.842A4.124,4.124,0,0,0,361-9.574a4.137,4.137,0,0,0-4.137,4.136,4.089,4.089,0,0,0,.074.731A133.172,133.172,0,0,0,266.528,87.88a4.1,4.1,0,0,0-1.3.252,91.826,91.826,0,0,0-53.363-16.927q-4.593,0-9.077.445a4.122,4.122,0,0,0-7.865,1.113,92.98,92.98,0,0,0-71.381,63.069,4.114,4.114,0,0,0-2.034,7.455A92.712,92.712,0,0,0,173.052,248.03a4.121,4.121,0,0,0,7.425,3.056,92.239,92.239,0,0,0,31.387,5.476h92.154a4.116,4.116,0,0,0,7.471,0H461.518a4.116,4.116,0,0,0,7.471,0H558.2a72.228,72.228,0,0,0,16.361-1.889,4.131,4.131,0,0,0,7.9-2.311,72.606,72.606,0,0,0,45.276-48.357A4.125,4.125,0,0,0,631.259,199.931ZM199,77.449a4.147,4.147,0,0,0,.876-.1l29.13,71.81a4.122,4.122,0,0,0-1.826,2.439l-99.151-11.8a4.1,4.1,0,0,0-.4-1.636l68.3-62.1A4.111,4.111,0,0,0,199,77.449ZM361.122-1.313a4.122,4.122,0,0,0,2.813-1.207l36.574,27.43L350.864,48.821Zm40.289,26.9,24.5,18.372L357.747,166.545,331.2,144.926l19.412-94.873ZM623.18,198.744l-123.2-14.667a4.052,4.052,0,0,0,.066-.646,4.116,4.116,0,0,0-1.156-2.857l26.162-57.749a4.106,4.106,0,0,0,4.624-.837l93.961,75.73A4.106,4.106,0,0,0,623.18,198.744Zm-206.4,15.877,44.374-17.388,3.022,53.6a4.113,4.113,0,0,0-1.742.965ZM311.865,254.562a4.1,4.1,0,0,0-.731-2.123l37.35-67.176,21.063-7.819,45.273,36.87L312.1,254.562ZM127.953,140.795l99.08,11.8c0,.031-.01.06-.01.091a4.111,4.111,0,0,0,1.5,3.164l-20.547,36.431-81.665-48.989A4.131,4.131,0,0,0,127.953,140.795ZM235.2,153.562l91,10.833-6.217,30.384L275.7,211.218l-41.734-55.511A4.12,4.12,0,0,0,235.2,153.562Zm121.711,14.49-9.12,16.4-26.706,9.914,6.109-29.855Zm-29.516-4.521,3.581-17.5,25.78,21Zm30.81,4.675,10.444,8.505-19.416,7.208,8.752-15.74Zm1.854.221,23.4,2.786-13.724,5.095Zm-39.21,27.1,26.195-9.724-36.625,65.872a4.136,4.136,0,0,0-.934-.606Zm49.787-18.483,15-5.568,74.567,8.877.893,15.834-45.2,17.713ZM524.2,122.291l-26.111,57.636a4.1,4.1,0,0,0-6.28,3.177l-30.654-3.649-1.989-35.281,63.73-23.659A4.12,4.12,0,0,0,524.2,122.291Zm-32.355,61.824,0,.018L462.074,195.8l-.865-15.33Zm-31.7-4.78-72.456-8.626,70.494-26.17Zm5.11,71.341c-.03,0-.057.008-.086.008l-3.035-53.835,30-11.753a4.133,4.133,0,0,0,2.586,2.275L466,250.751A4.174,4.174,0,0,0,465.254,250.676Zm57.411-131.143L459.1,143.13l-4.372-77.553,68.487,51.366a3.585,3.585,0,0,0-.554,2.59Zm-64.542,23.961-72.61,26.956-26.9-3.2-.074-.06L426.713,44.563l26.973,20.23ZM427.2,43.681,448.037,6.212a4.088,4.088,0,0,0,1.954.512,4.128,4.128,0,0,0,.419-.042l3.2,56.806Zm20.01-38.047L426.4,43.076,402.425,25.1,446.133,4.047A4.1,4.1,0,0,0,447.214,5.634ZM330.325,144.213l-60.664-49.4a4.111,4.111,0,0,0-.1-5.721L349.48,50.6Zm-66.4-49.1a4.082,4.082,0,0,0,4.961.359L330.1,145.318l-3.7,18.094-91.111-10.846a4.123,4.123,0,0,0-1.874-3.348Zm-56.44,98.038L178.379,244.76a3.88,3.88,0,0,0-2.734.068L125.587,144.017Zm-28.194,52.026,29.052-51.512,43.826,26.291L180.63,246.511A4.135,4.135,0,0,0,179.293,245.174Zm29.543-52.383,20.529-36.4a3.994,3.994,0,0,0,3.783-.1l41.571,55.294-21.348,7.925Zm66.51,19.625,27.765,36.929L254.47,220.166Zm.978-.364,43.419-16.118-11.217,54.82a3.973,3.973,0,0,0-2.525.324l-.612-.367ZM415.71,215.04l46.078,37.525a4.116,4.116,0,0,0-.646,2h-146.3Zm51.251,36.013,28.769-63.5c.061,0,.119.018.18.018a4.109,4.109,0,0,0,2.823-1.128l47.65,39.924L468.741,252.6A4.142,4.142,0,0,0,466.961,251.053Zm32.416-65.377a4.124,4.124,0,0,0,.338-.624L623.006,199.73c0,.068-.02.132-.02.2a4.181,4.181,0,0,0,.053.527l-75.546,25.531ZM628.5,184.259a70.475,70.475,0,0,1-.97,11.577,3.991,3.991,0,0,0-.412-.042,4.119,4.119,0,0,0-2.85,1.15l-93.989-75.752a4.092,4.092,0,0,0,.563-1.691,69.63,69.63,0,0,1,27.355-5.546A70.383,70.383,0,0,1,628.5,184.259ZM487.046,29.151a130.642,130.642,0,0,1,39.285,85.817,4.121,4.121,0,0,0-2.509,1.177L454.658,64.272,451.4,6.462a4.126,4.126,0,0,0,1.811-1.306A131.5,131.5,0,0,1,487.046,29.151Zm-41.117-27.3a4.168,4.168,0,0,0-.074.738,4.112,4.112,0,0,0,.046.461L401.524,24.422,364.538-3.318a4.071,4.071,0,0,0,.538-1.486,132.16,132.16,0,0,1,80.853,6.653ZM357.787-2.867A4.116,4.116,0,0,0,360.119-1.4L349.732,49.367,268.654,88.416c-.059-.033-.117-.066-.178-.1A131.174,131.174,0,0,1,357.787-2.867ZM263.492,89.345a4.089,4.089,0,0,0-.275,4.988l-30.712,54.454a3.8,3.8,0,0,0-2.581-.034l-29.1-71.742a4.111,4.111,0,0,0,2.287-3.382c2.883-.277,5.8-.424,8.756-.424A89.838,89.838,0,0,1,263.492,89.345ZM195.141,74.757a4.03,4.03,0,0,0,.22.476l-68.276,62.076a4.135,4.135,0,0,0-1.539-1.176A90.976,90.976,0,0,1,195.141,74.757ZM121.2,163.887a90.693,90.693,0,0,1,2.2-19.871,4.178,4.178,0,0,0,.515.052,4.1,4.1,0,0,0,.558-.057l50.291,101.282a4.125,4.125,0,0,0-.92.9A90.794,90.794,0,0,1,121.2,163.887ZM181.2,249.222a4.03,4.03,0,0,0,.055-.541,4.081,4.081,0,0,0-.215-1.256l72.225-26.814,51.439,30.858.24.32a4.106,4.106,0,0,0-1.306,2.773H211.864A90.26,90.26,0,0,1,181.2,249.222Zm288.161,5.34a4.109,4.109,0,0,0-.2-1.045l78.118-26.4,27.965,23.43a4.088,4.088,0,0,0-.922,2.129,70.19,70.19,0,0,1-16.123,1.887Zm112.213-4.011a4.079,4.079,0,0,0-5.6-.7l-27.584-23.111,74.886-25.309a4.127,4.127,0,0,0,2.441,2.374A70.6,70.6,0,0,1,581.578,250.551Z" fill="#80def8"/><path d="M692.1,134.565a59.973,59.973,0,0,0,37.4,39.943,3.412,3.412,0,0,0,6.527,1.909,59.678,59.678,0,0,0,13.515,1.561h73.689a3.4,3.4,0,0,0,6.172,0H953.33a3.4,3.4,0,0,0,6.171,0h76.121a76.189,76.189,0,0,0,25.926-4.524,3.391,3.391,0,0,0,6.133-2.524,76.582,76.582,0,0,0,42.577-86.519,3.4,3.4,0,0,0-1.68-6.158,76.805,76.805,0,0,0-58.962-52.1,3.4,3.4,0,0,0-6.5-.919q-3.7-.361-7.5-.368a75.852,75.852,0,0,0-44.079,13.982,3.392,3.392,0,0,0-1.074-.208,110,110,0,0,0-74.682-76.478,3.424,3.424,0,0,0,.061-.6,3.417,3.417,0,0,0-3.417-3.417,3.407,3.407,0,0,0-3.209,2.28,110.713,110.713,0,0,0-25.056-2.864,109.967,109.967,0,0,0-42.574,8.516,3.4,3.4,0,0,0-2.666-1.3,3.417,3.417,0,0,0-3.417,3.417,3.355,3.355,0,0,0,.063.622,110.449,110.449,0,0,0-61.379,92.438,3.423,3.423,0,0,0-1.823,1.824,59.169,59.169,0,0,0-22.826-4.545A59.662,59.662,0,0,0,690.7,128.373a3.407,3.407,0,0,0,1.408,6.192ZM1048.78,28.883,1105.2,80.177a3.385,3.385,0,0,0-.329,1.351l-81.9,9.751a3.4,3.4,0,0,0-1.509-2.015l24.062-59.317a3.358,3.358,0,0,0,3.259-1.064ZM920.806,6.381,879.8-13.37l30.21-22.658a3.407,3.407,0,0,0,2.324,1Zm.208,1.017,16.035,78.366-21.928,17.858L858.821,2.364l20.233-15.175ZM695.491,129.371,773.1,66.818a3.393,3.393,0,0,0,3.82.691l21.61,47.7a3.4,3.4,0,0,0-.954,2.36,3.355,3.355,0,0,0,.054.534L695.87,130.219A3.375,3.375,0,0,0,695.491,129.371Zm133.158,44.674a3.407,3.407,0,0,0-1.439-.8l2.5-44.276,36.654,14.362Zm124.174,2.281L867.978,143.08l37.4-30.455,17.4,6.459,30.851,55.488a3.387,3.387,0,0,0-.6,1.754Zm153.465-91.915-67.457,40.466L1021.86,94.784a3.4,3.4,0,0,0,1.24-2.614c0-.025-.007-.049-.008-.075l81.841-9.742A3.413,3.413,0,0,0,1106.288,84.411Zm-88.92,10.259L982.9,140.523l-36.577-13.579-5.135-25.1,75.165-8.948A3.407,3.407,0,0,0,1017.368,94.67Zm-77.008,7.275,5.045,24.66-22.059-8.189-7.533-13.549Zm-24.419,2.075,21.295-17.343,2.957,14.456Zm-1.015.952,7.229,13-16.038-5.954,8.627-7.026Zm-9.707,6.714-11.336-4.208,19.33-2.3Zm49.769,61.751a3.406,3.406,0,0,0-.772.5l-30.253-54.411,21.638,8.033Zm-87.893-30.7L829.755,128.1l.738-13.079,61.593-7.332,12.39,4.6ZM778.708,65.6,831.35,85.144l-1.643,29.142L804.386,117.3a3.387,3.387,0,0,0-5.187-2.624L777.631,67.068A3.4,3.4,0,0,0,778.708,65.6Zm50.952,49.522-.714,12.663-24.591-9.636v-.014Zm2.5-29.678,58.229,21.617-59.849,7.125ZM825.7,173.177l-23.717-52.352a3.411,3.411,0,0,0,2.135-1.879l24.777,9.708-2.507,44.468c-.025,0-.047-.007-.071-.007A3.488,3.488,0,0,0,825.7,173.177ZM778.936,64.4a3.383,3.383,0,0,0-.5-1.751L835.01,20.222,831.4,84.281,778.9,64.79A3.349,3.349,0,0,0,778.936,64.4Zm56.938-44.827,22.28-16.71L914.47,104.152l-.061.05-22.223,2.646L832.209,84.582Zm.061-1.078,2.645-46.923a3.3,3.3,0,0,0,.346.035,3.376,3.376,0,0,0,1.614-.423l17.209,30.95Zm6.178-49.1,36.1,17.388-19.8,14.85-17.2-30.927A3.4,3.4,0,0,0,842.113-30.6ZM921.95,7.849l66.01,31.792a3.4,3.4,0,0,0-.079,4.726L937.772,85.176Zm95.873,81.461a3.4,3.4,0,0,0-1.547,2.765l-75.259,8.96-3.058-14.946,50.56-41.177a3.372,3.372,0,0,0,4.1-.3Zm89.065-4.3-41.349,83.272a3.212,3.212,0,0,0-2.258-.056L1039.237,125.6Zm-45.467,84.662-59.093-21.937,36.2-21.717,24,42.55A3.408,3.408,0,0,0,1061.421,169.675Zm-60.085-22.306L983.7,140.823l34.338-45.674a3.3,3.3,0,0,0,3.125.087l16.957,30.066Zm-.907.545-40.178,24.1,22.934-30.5Zm-42.06,25.23-.5.3a3.383,3.383,0,0,0-1.448-.333,3.433,3.433,0,0,0-.638.064L946.513,127.9l35.864,13.314Zm-7.81,3.182H829.715a3.4,3.4,0,0,0-.533-1.65l38.061-31Zm-127.12-1.618-64.134-21.674,39.36-32.978a3.4,3.4,0,0,0,2.331.931c.051,0,.1-.013.149-.015l23.764,52.455A3.416,3.416,0,0,0,823.439,174.708Zm-65.051-21.984-62.4-21.09a3.464,3.464,0,0,0,.043-.435c0-.056-.014-.109-.016-.166l101.839-12.124a3.368,3.368,0,0,0,.28.515Zm-8.844-92.542a57.505,57.505,0,0,1,22.6,4.582,3.372,3.372,0,0,0,.465,1.4l-77.636,62.573a3.4,3.4,0,0,0-2.354-.95c-.117,0-.227.023-.34.034a58.027,58.027,0,0,1,57.27-67.635Zm86.723-89.869a3.406,3.406,0,0,0,1.5,1.079l-2.692,47.752-57.13,42.847a3.4,3.4,0,0,0-2.073-.972,108.777,108.777,0,0,1,60.4-90.706Zm47.9-11.1a109.005,109.005,0,0,1,24.9,2.871,3.357,3.357,0,0,0,.444,1.228L878.96-13.773,842.305-31.428a3.413,3.413,0,0,0,.038-.381,3.41,3.41,0,0,0-.062-.61A108.313,108.313,0,0,1,884.166-40.785ZM988.859,39.008c-.05.025-.1.052-.146.079L921.742,6.831,913.161-35.1a3.4,3.4,0,0,0,1.927-1.211A108.35,108.35,0,0,1,988.859,39.008Zm46.763-12.486c2.44,0,4.851.122,7.232.351a3.4,3.4,0,0,0,1.889,2.793L1020.7,88.926a3.152,3.152,0,0,0-2.132.028L993.2,43.974a3.379,3.379,0,0,0-.228-4.12A74.211,74.211,0,0,1,1035.622,26.522Zm71.3,51.98a3.418,3.418,0,0,0-1.272.971l-56.4-51.276a3.4,3.4,0,0,0,.181-.392A75.147,75.147,0,0,1,1106.922,78.5Zm-39.891,90.909a3.429,3.429,0,0,0-.76-.742l41.541-83.66a3.333,3.333,0,0,0,.461.047,3.516,3.516,0,0,0,.425-.043,74.916,74.916,0,0,1-41.667,84.4Zm-31.409,6.915h-75.81a3.4,3.4,0,0,0-1.079-2.292l.2-.264,42.489-25.488,59.659,22.148a3.364,3.364,0,0,0-.178,1.038,3.3,3.3,0,0,0,.045.446A74.533,74.533,0,0,1,1035.622,176.326Zm-286.078,0a58.019,58.019,0,0,1-13.319-1.559,3.378,3.378,0,0,0-.761-1.759l23.1-19.353,64.527,21.807a3.384,3.384,0,0,0-.167.864ZM693.774,134.4a3.416,3.416,0,0,0,2.016-1.961l61.857,20.905-22.785,19.09a3.371,3.371,0,0,0-4.628.577A58.315,58.315,0,0,1,693.774,134.4Z" fill="#80def8"/><path d="M517.1,380.565a59.973,59.973,0,0,0,37.4,39.943,3.412,3.412,0,0,0,6.527,1.909,59.678,59.678,0,0,0,13.515,1.561h73.689a3.4,3.4,0,0,0,6.172,0H778.33a3.4,3.4,0,0,0,6.171,0h76.121a76.189,76.189,0,0,0,25.926-4.524,3.391,3.391,0,0,0,6.133-2.524,76.582,76.582,0,0,0,42.577-86.519,3.4,3.4,0,0,0-1.68-6.158,76.805,76.805,0,0,0-58.962-52.1,3.4,3.4,0,0,0-6.5-.919q-3.7-.361-7.5-.368a75.852,75.852,0,0,0-44.079,13.982,3.392,3.392,0,0,0-1.074-.208,110,110,0,0,0-74.682-76.478,3.406,3.406,0,0,0-6.565-1.74,110.808,110.808,0,0,0-67.63,5.652,3.4,3.4,0,0,0-6.083,2.113,3.355,3.355,0,0,0,.063.622,110.449,110.449,0,0,0-61.379,92.438,3.423,3.423,0,0,0-1.823,1.824,59.169,59.169,0,0,0-22.826-4.545A59.662,59.662,0,0,0,515.7,374.373a3.407,3.407,0,0,0,1.408,6.192ZM873.78,274.883,930.2,326.177a3.385,3.385,0,0,0-.329,1.351l-81.9,9.751a3.4,3.4,0,0,0-1.509-2.015l24.062-59.317a3.358,3.358,0,0,0,3.259-1.064Zm-127.974-22.5L704.8,232.63l30.21-22.658a3.407,3.407,0,0,0,2.324,1Zm.208,1.017,16.035,78.366-21.928,17.858-56.3-101.258,20.233-15.175ZM520.491,375.371,598.1,312.818a3.393,3.393,0,0,0,3.82.691l21.61,47.7a3.4,3.4,0,0,0-.954,2.36,3.355,3.355,0,0,0,.054.534L520.87,376.219A3.375,3.375,0,0,0,520.491,375.371Zm133.158,44.674a3.407,3.407,0,0,0-1.439-.8l2.5-44.276,36.654,14.362Zm124.174,2.281L692.978,389.08l37.4-30.455,17.4,6.459,30.851,55.488a3.387,3.387,0,0,0-.6,1.754Zm153.465-91.915-67.457,40.466L846.86,340.784a3.4,3.4,0,0,0,1.24-2.614c0-.025-.007-.049-.008-.075l81.841-9.742A3.413,3.413,0,0,0,931.288,330.411Zm-88.92,10.259L807.9,386.523l-36.577-13.579-5.135-25.1,75.165-8.948A3.407,3.407,0,0,0,842.368,340.67Zm-77.008,7.275,5.045,24.66-22.059-8.189-7.533-13.549Zm-24.419,2.075,21.295-17.343,2.957,14.456Zm-1.015.952,7.229,13-16.038-5.954,8.627-7.026Zm-9.707,6.714-11.336-4.208,19.33-2.3Zm49.769,61.751a3.406,3.406,0,0,0-.772.5l-30.253-54.411,21.638,8.033Zm-87.893-30.7L654.755,374.1l.738-13.079,61.593-7.332,12.39,4.6ZM603.708,311.6l52.642,19.543-1.643,29.142L629.386,363.3a3.387,3.387,0,0,0-5.187-2.624l-21.568-47.608A3.4,3.4,0,0,0,603.708,311.6Zm50.952,49.522-.714,12.663-24.591-9.636v-.014Zm2.5-29.678,58.229,21.617-59.849,7.125ZM650.7,419.177l-23.717-52.352a3.411,3.411,0,0,0,2.135-1.879l24.777,9.708-2.507,44.468c-.025,0-.047-.007-.071-.007A3.488,3.488,0,0,0,650.7,419.177ZM603.936,310.4a3.383,3.383,0,0,0-.5-1.751l56.571-42.428L656.4,330.281,603.9,310.79A3.349,3.349,0,0,0,603.936,310.4Zm56.938-44.827,22.28-16.71L739.47,350.152l-.061.05-22.223,2.646-59.977-22.266Zm.061-1.078,2.645-46.923a3.3,3.3,0,0,0,.346.035,3.376,3.376,0,0,0,1.614-.423l17.209,30.95Zm6.178-49.1,36.1,17.388-19.8,14.85-17.2-30.927A3.4,3.4,0,0,0,667.113,215.4Zm79.837,38.452,66.01,31.792a3.4,3.4,0,0,0-.079,4.726l-50.109,40.809Zm95.873,81.461a3.4,3.4,0,0,0-1.547,2.765l-75.259,8.96-3.058-14.946,50.56-41.177a3.372,3.372,0,0,0,4.1-.3Zm89.065-4.3-41.349,83.272a3.212,3.212,0,0,0-2.258-.056L864.237,371.6Zm-45.467,84.662-59.093-21.937,36.2-21.717,24,42.55A3.408,3.408,0,0,0,886.421,415.675Zm-60.085-22.306L808.7,386.823l34.338-45.674a3.3,3.3,0,0,0,3.125.087L863.123,371.3Zm-.907.545-40.178,24.1,22.934-30.5Zm-42.06,25.23-.5.3a3.383,3.383,0,0,0-1.448-.333,3.433,3.433,0,0,0-.638.064L771.513,373.9l35.864,13.314Zm-7.81,3.182H654.715a3.4,3.4,0,0,0-.533-1.65l38.061-31Zm-127.12-1.618L584.3,399.034l39.36-32.978a3.4,3.4,0,0,0,2.331.931c.051,0,.1-.013.149-.015l23.764,52.455A3.416,3.416,0,0,0,648.439,420.708Zm-65.051-21.984-62.4-21.09a3.464,3.464,0,0,0,.043-.435c0-.056-.014-.109-.016-.166l101.839-12.124a3.368,3.368,0,0,0,.28.515Zm-8.844-92.542a57.505,57.505,0,0,1,22.6,4.582,3.372,3.372,0,0,0,.465,1.4l-77.636,62.573a3.4,3.4,0,0,0-2.354-.95c-.117,0-.227.023-.34.034a58.027,58.027,0,0,1,57.27-67.635Zm86.723-89.869a3.406,3.406,0,0,0,1.5,1.079l-2.692,47.752-57.13,42.847a3.4,3.4,0,0,0-2.073-.972,108.777,108.777,0,0,1,60.4-90.706Zm47.9-11.1a109.005,109.005,0,0,1,24.9,2.871,3.357,3.357,0,0,0,.444,1.228L703.96,232.227l-36.655-17.655a2.486,2.486,0,0,0-.024-.991A108.313,108.313,0,0,1,709.166,205.215Zm104.693,79.793c-.05.025-.1.052-.146.079l-66.971-32.256L738.161,210.9a3.4,3.4,0,0,0,1.927-1.211A108.35,108.35,0,0,1,813.859,285.008Zm46.763-12.486c2.44,0,4.851.122,7.232.351a3.4,3.4,0,0,0,1.889,2.793L845.7,334.926a3.152,3.152,0,0,0-2.132.028L818.2,289.974a3.379,3.379,0,0,0-.228-4.12A74.211,74.211,0,0,1,860.622,272.522Zm71.3,51.98a3.418,3.418,0,0,0-1.272.971l-56.4-51.276a3.4,3.4,0,0,0,.181-.392A75.147,75.147,0,0,1,931.922,324.5Zm-39.891,90.909a3.429,3.429,0,0,0-.76-.742l41.541-83.66a3.333,3.333,0,0,0,.461.047,3.516,3.516,0,0,0,.425-.043,74.916,74.916,0,0,1-41.667,84.4Zm-31.409,6.915h-75.81a3.4,3.4,0,0,0-1.079-2.292l.2-.264,42.489-25.488L886.08,416.43a3.364,3.364,0,0,0-.178,1.038,3.3,3.3,0,0,0,.045.446A74.533,74.533,0,0,1,860.622,422.326Zm-286.078,0a58.019,58.019,0,0,1-13.319-1.559,3.378,3.378,0,0,0-.761-1.759l23.1-19.353,64.527,21.807a3.384,3.384,0,0,0-.167.864ZM518.774,380.4a3.416,3.416,0,0,0,2.016-1.961l61.857,20.905-22.785,19.09a3.371,3.371,0,0,0-4.628.577A58.315,58.315,0,0,1,518.774,380.4Z" fill="#80def8"/><path d="M1112.1,217.565a59.973,59.973,0,0,0,37.4,39.943,3.412,3.412,0,0,0,6.527,1.909,59.678,59.678,0,0,0,13.515,1.561h73.689a3.4,3.4,0,0,0,6.172,0H1373.33a3.4,3.4,0,0,0,6.171,0h76.121a76.189,76.189,0,0,0,25.926-4.524,3.391,3.391,0,0,0,6.133-2.524,76.582,76.582,0,0,0,42.577-86.519,3.4,3.4,0,0,0-1.68-6.158,76.805,76.805,0,0,0-58.962-52.1,3.4,3.4,0,0,0-6.5-.919q-3.7-.362-7.5-.368a75.852,75.852,0,0,0-44.079,13.982,3.392,3.392,0,0,0-1.074-.208,110,110,0,0,0-74.682-76.478,3.406,3.406,0,0,0-6.565-1.74,110.808,110.808,0,0,0-67.63,5.652,3.4,3.4,0,0,0-6.083,2.113,3.355,3.355,0,0,0,.063.622,110.449,110.449,0,0,0-61.379,92.438,3.423,3.423,0,0,0-1.823,1.824,59.169,59.169,0,0,0-22.826-4.545,59.662,59.662,0,0,0-58.849,69.843,3.407,3.407,0,0,0,1.408,6.192ZM1468.78,111.883l56.416,51.294a3.385,3.385,0,0,0-.329,1.351l-81.9,9.751a3.4,3.4,0,0,0-1.509-2.015l24.062-59.317a3.358,3.358,0,0,0,3.259-1.064Zm-127.974-22.5L1299.8,69.63l30.21-22.658a3.407,3.407,0,0,0,2.324,1Zm.208,1.017,16.035,78.366-21.928,17.858-56.3-101.258,20.233-15.175ZM1115.491,212.371l77.613-62.553a3.393,3.393,0,0,0,3.82.691l21.61,47.7a3.4,3.4,0,0,0-.954,2.36,3.355,3.355,0,0,0,.054.534L1115.87,213.219A3.375,3.375,0,0,0,1115.491,212.371Zm133.158,44.674a3.407,3.407,0,0,0-1.439-.8l2.5-44.276,36.654,14.362Zm124.174,2.281-84.845-33.246,37.4-30.455,17.4,6.459,30.851,55.488a3.387,3.387,0,0,0-.6,1.754Zm153.465-91.915-67.457,40.466-16.971-30.093a3.4,3.4,0,0,0,1.24-2.614c0-.025-.007-.049-.008-.075l81.841-9.742A3.413,3.413,0,0,0,1526.288,167.411Zm-88.92,10.259L1402.9,223.523l-36.577-13.579-5.135-25.1,75.165-8.948A3.407,3.407,0,0,0,1437.368,177.67Zm-77.008,7.275,5.045,24.66-22.059-8.189-7.533-13.549Zm-24.419,2.075,21.3-17.343,2.957,14.456Zm-1.015.952,7.229,13-16.038-5.954,8.627-7.026Zm-9.707,6.714-11.336-4.208,19.33-2.3Zm49.769,61.751a3.406,3.406,0,0,0-.772.5l-30.253-54.411,21.638,8.033Zm-87.893-30.7-37.34-14.631.738-13.079,61.593-7.332,12.39,4.6ZM1198.708,148.6l52.642,19.543-1.643,29.142-25.321,3.014a3.387,3.387,0,0,0-5.187-2.624l-21.568-47.608A3.4,3.4,0,0,0,1198.708,148.6Zm50.952,49.522-.714,12.663-24.591-9.636v-.014Zm2.5-29.678,58.229,21.617-59.849,7.125Zm-6.458,87.732-23.717-52.352a3.411,3.411,0,0,0,2.135-1.879l24.777,9.708-2.507,44.468c-.025,0-.047-.007-.071-.007A3.488,3.488,0,0,0,1245.7,256.177ZM1198.936,147.4a3.383,3.383,0,0,0-.5-1.751l56.571-42.428-3.611,64.059-52.5-19.491A3.349,3.349,0,0,0,1198.936,147.4Zm56.938-44.827,22.28-16.71,56.316,101.288-.061.05-22.223,2.646-59.977-22.266Zm.061-1.078,2.645-46.923a3.3,3.3,0,0,0,.346.035,3.376,3.376,0,0,0,1.614-.423l17.209,30.95Zm6.178-49.1,36.1,17.388-19.8,14.85-17.2-30.927A3.4,3.4,0,0,0,1262.113,52.4Zm79.837,38.452,66.01,31.792a3.4,3.4,0,0,0-.079,4.726l-50.109,40.809Zm95.873,81.461a3.4,3.4,0,0,0-1.547,2.765l-75.259,8.96-3.058-14.946,50.56-41.177a3.372,3.372,0,0,0,4.1-.3Zm89.065-4.3-41.349,83.272a3.212,3.212,0,0,0-2.258-.056L1459.237,208.6Zm-45.467,84.662-59.093-21.937,36.2-21.717,24,42.55A3.408,3.408,0,0,0,1481.421,252.675Zm-60.085-22.306-17.633-6.546,34.338-45.674a3.3,3.3,0,0,0,3.125.087l16.957,30.066Zm-.907.545-40.178,24.1,22.934-30.5Zm-42.06,25.23-.5.3a3.383,3.383,0,0,0-1.448-.333,3.433,3.433,0,0,0-.638.064l-9.265-45.281,35.864,13.314Zm-7.81,3.182H1249.715a3.4,3.4,0,0,0-.533-1.65l38.061-31Zm-127.12-1.618-64.134-21.674,39.36-32.978a3.4,3.4,0,0,0,2.331.931c.051,0,.1-.013.149-.015l23.764,52.455A3.416,3.416,0,0,0,1243.439,257.708Zm-65.051-21.984-62.4-21.09a3.464,3.464,0,0,0,.043-.435c0-.056-.014-.109-.016-.166l101.839-12.124a3.368,3.368,0,0,0,.28.515Zm-8.844-92.542a57.505,57.505,0,0,1,22.595,4.582,3.372,3.372,0,0,0,.465,1.4l-77.636,62.573a3.4,3.4,0,0,0-2.354-.95c-.117,0-.227.023-.34.034a58.027,58.027,0,0,1,57.27-67.635Zm86.723-89.869a3.406,3.406,0,0,0,1.5,1.079l-2.692,47.752-57.13,42.847a3.4,3.4,0,0,0-2.073-.972,108.777,108.777,0,0,1,60.4-90.706Zm47.9-11.1a109.005,109.005,0,0,1,24.9,2.871,3.357,3.357,0,0,0,.444,1.228L1298.96,69.227l-36.655-17.655a2.486,2.486,0,0,0-.024-.991A108.313,108.313,0,0,1,1304.166,42.215Zm104.693,79.793c-.05.025-.1.052-.146.079l-66.971-32.256L1333.161,47.9a3.4,3.4,0,0,0,1.927-1.211A108.35,108.35,0,0,1,1408.859,122.008Zm46.763-12.486c2.44,0,4.851.122,7.232.351a3.4,3.4,0,0,0,1.889,2.793l-24.039,59.26a3.152,3.152,0,0,0-2.132.028l-25.368-44.98a3.379,3.379,0,0,0-.228-4.12A74.211,74.211,0,0,1,1455.622,109.522Zm71.3,51.98a3.418,3.418,0,0,0-1.272.971l-56.4-51.276a3.4,3.4,0,0,0,.181-.392A75.147,75.147,0,0,1,1526.922,161.5Zm-39.891,90.909a3.429,3.429,0,0,0-.76-.742l41.541-83.66a3.333,3.333,0,0,0,.461.047,3.516,3.516,0,0,0,.425-.043,74.916,74.916,0,0,1-41.667,84.4Zm-31.409,6.915h-75.81a3.4,3.4,0,0,0-1.079-2.292l.2-.264,42.489-25.488,59.659,22.148a3.364,3.364,0,0,0-.178,1.038,3.3,3.3,0,0,0,.045.446A74.533,74.533,0,0,1,1455.622,259.326Zm-286.078,0a58.019,58.019,0,0,1-13.319-1.559,3.378,3.378,0,0,0-.761-1.759l23.1-19.353,64.527,21.807a3.384,3.384,0,0,0-.167.864Zm-55.77-41.925a3.416,3.416,0,0,0,2.016-1.961l61.857,20.905-22.785,19.09a3.371,3.371,0,0,0-4.628.577A58.315,58.315,0,0,1,1113.774,217.4Z" fill="#80def8"/><rect x="-0.347" y="0.563" width="1438" height="401" fill="none"/><path d="M1800.153-36.938l-32-83h-176l129,150-283.766-59.5s17,13,20,17,194.766,170.5,194.766,170.5" fill="none" stroke="#80def8" stroke-miterlimit="10"/><line x1="1860.153" y1="215.063" x2="1909.153" y2="145.063" fill="none" stroke="#80def8" stroke-miterlimit="10"/><line x1="1778.153" y1="139.063" x2="1725.153" y2="151.063" fill="none" stroke="#80def8" stroke-miterlimit="10"/><polyline points="2240.153 -125.938 2294.153 21.063 2265.153 104.063 2228.153 89.063 2293.153 20.063 2123.153 -119.938 2185.153 -120.938 2375.153 -46.938 2364.153 -118.938" fill="none" stroke="#80def8" stroke-miterlimit="10"/><polyline points="2334.153 65.063 2338.153 98.063 2427.153 66.063 2472.153 159.063 2557.153 66.063 2629.153 254.063 2714.153 104.063 2665.153 61.063 2535.153 221.063 2553.153 298.063" fill="none" stroke="#80def8" stroke-miterlimit="10"/><line x1="1198.387" y1="144.563" x2="1818.153" y2="-120.938" fill="none" stroke="#80def8" stroke-miterlimit="10"/><polyline points="2201.153 200.063 2179.153 143.063 1923.153 271.063" fill="none" stroke="#80def8" stroke-miterlimit="10"/><polyline points="1651.926 153.774 1657.653 -117.438 1781.653 -119.438 1868.153 -16.938 1866.653 -118.438" fill="none" stroke="#80def8" stroke-miterlimit="10"/><polyline points="1966.153 306.063 1921.153 270.063 1909.153 149.063 2115.153 267.063 1979.153 334.063 2066.153 146.063 1858.153 217.063 1778.153 139.063 1443.387 65.563" fill="none" stroke="#80def8" stroke-miterlimit="10"/><path d="M2232.259,89.931a4.132,4.132,0,0,0-1.814-3.422A72.231,72.231,0,0,0,2159.2,1.955a71.62,71.62,0,0,0-27.634,5.5,4.153,4.153,0,0,0-2.208-2.208,132.637,132.637,0,0,0-39.915-87.528,133.541,133.541,0,0,0-34.392-24.381,4.143,4.143,0,0,0,.076-.753,4.137,4.137,0,0,0-4.137-4.136,4.115,4.115,0,0,0-3.228,1.578,133.133,133.133,0,0,0-51.541-10.309,133.931,133.931,0,0,0-30.334,3.467,4.124,4.124,0,0,0-3.884-2.761,4.137,4.137,0,0,0-4.137,4.136,4.089,4.089,0,0,0,.074.731,133.172,133.172,0,0,0-90.413,92.587,4.1,4.1,0,0,0-1.3.252,91.826,91.826,0,0,0-53.363-16.927q-4.593,0-9.077.445A4.134,4.134,0,0,0,1800-40.824a4.125,4.125,0,0,0-4.082,3.587,92.98,92.98,0,0,0-71.381,63.069,4.114,4.114,0,0,0-2.034,7.455,92.712,92.712,0,0,0,51.545,104.743,4.121,4.121,0,0,0,7.425,3.056,92.239,92.239,0,0,0,31.387,5.476h92.154a4.116,4.116,0,0,0,7.471,0h150.029a4.116,4.116,0,0,0,7.471,0H2159.2a72.228,72.228,0,0,0,16.361-1.889,4.131,4.131,0,0,0,7.9-2.311,72.606,72.606,0,0,0,45.276-48.357A4.125,4.125,0,0,0,2232.259,89.931ZM1800-32.551a4.147,4.147,0,0,0,.876-.1l29.13,71.81a4.122,4.122,0,0,0-1.826,2.439l-99.151-11.8a4.1,4.1,0,0,0-.4-1.636l68.3-62.1A4.111,4.111,0,0,0,1800-32.551Zm162.118-78.762a4.122,4.122,0,0,0,2.813-1.207l36.574,27.43-49.645,23.911Zm40.289,26.9,24.495,18.372L1958.747,56.545,1932.2,34.926l19.412-94.873ZM2224.18,88.744l-123.2-14.667a4.052,4.052,0,0,0,.066-.646,4.116,4.116,0,0,0-1.156-2.857l26.162-57.749a4.106,4.106,0,0,0,4.624-.837l93.961,75.73A4.106,4.106,0,0,0,2224.18,88.744Zm-206.4,15.877,44.374-17.388,3.022,53.6a4.113,4.113,0,0,0-1.742.965Zm-104.914,39.941a4.1,4.1,0,0,0-.731-2.123l37.35-67.176,21.063-7.819,45.273,36.87L1913.1,144.562ZM1728.953,30.8l99.08,11.8c0,.031-.01.06-.01.091a4.111,4.111,0,0,0,1.5,3.164l-20.547,36.431-81.665-48.989A4.131,4.131,0,0,0,1728.953,30.8ZM1836.2,43.562l91,10.833-6.217,30.384L1876.7,101.218l-41.734-55.511A4.12,4.12,0,0,0,1836.2,43.562Zm121.711,14.49-9.12,16.4-26.706,9.914,6.109-29.855Zm-29.516-4.521,3.581-17.5,25.78,21Zm30.81,4.675,10.444,8.5-19.416,7.208,8.752-15.74Zm1.854.221,23.4,2.786-13.724,5.1Zm-39.21,27.1,26.195-9.724-36.625,65.872a4.136,4.136,0,0,0-.934-.606Zm49.787-18.483,15-5.568,74.567,8.877.893,15.834L2016.889,103.9ZM2125.2,12.291l-26.111,57.636a4.1,4.1,0,0,0-6.28,3.177l-30.654-3.649-1.989-35.281,63.73-23.659A4.12,4.12,0,0,0,2125.2,12.291Zm-32.355,61.824,0,.018L2063.074,85.8l-.865-15.33Zm-31.7-4.78-72.456-8.626,70.494-26.17Zm5.11,71.341c-.03,0-.057.008-.086.008l-3.035-53.835,30-11.753a4.133,4.133,0,0,0,2.586,2.275L2067,140.751A4.174,4.174,0,0,0,2066.254,140.676ZM2123.665,9.533,2060.1,33.13l-4.372-77.553,68.487,51.366a4.091,4.091,0,0,0-.6,2.119A4.061,4.061,0,0,0,2123.665,9.533Zm-64.542,23.961-72.61,26.956-26.9-3.2-.074-.06,68.178-122.624,26.973,20.23ZM2028.2-66.319l20.833-37.469a4.088,4.088,0,0,0,1.954.512,4.128,4.128,0,0,0,.419-.042l3.2,56.806Zm20.01-38.047L2027.4-66.924,2003.425-84.9l43.708-21.051A4.1,4.1,0,0,0,2048.214-104.366ZM1931.325,34.213l-60.664-49.4a4.106,4.106,0,0,0,1.111-2.8,4.125,4.125,0,0,0-1.207-2.919L1950.48-59.4Zm-66.4-49.1a4.1,4.1,0,0,0,2.708,1.033,4.112,4.112,0,0,0,2.253-.674L1931.1,35.318l-3.7,18.094-91.111-10.846a4.123,4.123,0,0,0-1.874-3.348Zm-56.44,98.038-29.108,51.612a3.88,3.88,0,0,0-2.734.068L1726.587,34.017Zm-28.194,52.026,29.052-51.512,43.826,26.291-71.541,26.558A4.135,4.135,0,0,0,1780.293,135.174Zm29.543-52.383,20.529-36.4a3.994,3.994,0,0,0,3.783-.1l41.571,55.294-21.348,7.925Zm66.51,19.625,27.765,36.929-48.641-29.179Zm.978-.364,43.419-16.118-11.217,54.82a3.973,3.973,0,0,0-2.525.324l-.612-.367Zm139.386,2.988,46.078,37.525a4.116,4.116,0,0,0-.646,2h-146.3Zm51.251,36.013,28.769-63.5c.061,0,.119.018.18.018a4.109,4.109,0,0,0,2.823-1.128l47.65,39.924-77.642,26.24A4.142,4.142,0,0,0,2067.961,141.053Zm32.416-65.377a4.124,4.124,0,0,0,.338-.624L2224.006,89.73c0,.068-.02.132-.02.2a4.181,4.181,0,0,0,.053.527l-75.546,25.531ZM2229.5,74.259a70.475,70.475,0,0,1-.97,11.577,3.991,3.991,0,0,0-.412-.042,4.119,4.119,0,0,0-2.85,1.15l-93.989-75.752a4.092,4.092,0,0,0,.563-1.691A69.63,69.63,0,0,1,2159.2,3.955,70.383,70.383,0,0,1,2229.5,74.259ZM2088.046-80.849a130.642,130.642,0,0,1,39.285,85.817,4.121,4.121,0,0,0-2.509,1.177l-69.164-51.873-3.259-57.81a4.126,4.126,0,0,0,1.811-1.306A131.5,131.5,0,0,1,2088.046-80.849Zm-41.117-27.3a4.168,4.168,0,0,0-.074.738,4.112,4.112,0,0,0,.046.461l-44.377,21.374-36.986-27.74a4.071,4.071,0,0,0,.538-1.486,131.993,131.993,0,0,1,30.146-3.476A131.121,131.121,0,0,1,2046.929-108.151Zm-88.142-4.716a4.116,4.116,0,0,0,2.332,1.466l-10.387,50.768-81.078,39.049c-.059-.033-.117-.066-.178-.1A131.174,131.174,0,0,1,1958.787-112.867Zm-94.3,92.212a4.1,4.1,0,0,0-.994,2.661,4.111,4.111,0,0,0,.719,2.327l-30.712,54.454a3.8,3.8,0,0,0-2.581-.034l-29.1-71.742a4.111,4.111,0,0,0,2.287-3.382c2.883-.277,5.8-.424,8.756-.424A89.838,89.838,0,0,1,1864.492-20.655Zm-68.351-14.588a4.03,4.03,0,0,0,.22.476l-68.276,62.076a4.135,4.135,0,0,0-1.539-1.176A90.976,90.976,0,0,1,1796.141-35.243ZM1722.2,53.887a90.693,90.693,0,0,1,2.2-19.871,4.178,4.178,0,0,0,.515.052,4.1,4.1,0,0,0,.558-.057l50.291,101.282a4.125,4.125,0,0,0-.92.9A90.794,90.794,0,0,1,1722.2,53.887Zm60.007,85.335a4.03,4.03,0,0,0,.055-.541,4.081,4.081,0,0,0-.215-1.256l72.225-26.814,51.439,30.858.24.32a4.106,4.106,0,0,0-1.306,2.773h-91.778A90.26,90.26,0,0,1,1782.2,139.222Zm288.161,5.34a4.109,4.109,0,0,0-.2-1.045l78.118-26.4,27.965,23.43a4.088,4.088,0,0,0-.922,2.129,70.19,70.19,0,0,1-16.123,1.887Zm112.213-4.011a4.079,4.079,0,0,0-5.6-.7l-27.584-23.111,74.886-25.309a4.127,4.127,0,0,0,2.441,2.374A70.6,70.6,0,0,1,2182.578,140.551Z" fill="#80def8"/><path d="M2293.1,24.565a59.973,59.973,0,0,0,37.4,39.943,3.412,3.412,0,0,0,6.527,1.909,59.678,59.678,0,0,0,13.515,1.561h73.689a3.4,3.4,0,0,0,6.172,0H2554.33a3.4,3.4,0,0,0,6.171,0h76.121a76.189,76.189,0,0,0,25.926-4.524,3.391,3.391,0,0,0,6.133-2.524,76.651,76.651,0,0,0,44.485-69.5,76.535,76.535,0,0,0-1.908-17.016,3.406,3.406,0,0,0,1.432-2.772,3.4,3.4,0,0,0-3.112-3.386,76.805,76.805,0,0,0-58.962-52.1,3.407,3.407,0,0,0-3.372-2.963,3.416,3.416,0,0,0-3.125,2.044q-3.7-.362-7.5-.368a75.852,75.852,0,0,0-44.079,13.982,3.392,3.392,0,0,0-1.074-.208,110,110,0,0,0-74.682-76.478,3.424,3.424,0,0,0,.061-.6,3.417,3.417,0,0,0-3.417-3.417,3.407,3.407,0,0,0-3.209,2.28,110.713,110.713,0,0,0-25.056-2.864,109.967,109.967,0,0,0-42.574,8.516,3.4,3.4,0,0,0-2.666-1.3,3.417,3.417,0,0,0-3.417,3.417,3.355,3.355,0,0,0,.063.622,110.3,110.3,0,0,0-28.409,20.139,109.56,109.56,0,0,0-32.97,72.3,3.423,3.423,0,0,0-1.823,1.824,59.169,59.169,0,0,0-22.826-4.545A59.792,59.792,0,0,0,2290.82,8.254a59.853,59.853,0,0,0,.875,10.119,3.407,3.407,0,0,0,1.408,6.192ZM2649.78-81.117,2706.2-29.823a3.385,3.385,0,0,0-.329,1.351l-81.9,9.751a3.4,3.4,0,0,0-1.509-2.015l24.062-59.317a3.387,3.387,0,0,0,.723.081A3.4,3.4,0,0,0,2649.78-81.117Zm-127.974-22.5L2480.8-123.37l30.21-22.658a3.407,3.407,0,0,0,2.324,1Zm.208,1.017,16.035,78.366L2516.121-6.378l-56.3-101.258,20.233-15.175ZM2296.491,19.371,2374.1-43.182a3.4,3.4,0,0,0,2.415,1,3.4,3.4,0,0,0,1.405-.309l21.61,47.7a3.4,3.4,0,0,0-.954,2.36,3.355,3.355,0,0,0,.054.534L2296.87,20.219A3.375,3.375,0,0,0,2296.491,19.371Zm133.158,44.674a3.407,3.407,0,0,0-1.439-.8l2.5-44.276,36.654,14.362Zm124.174,2.281L2468.978,33.08l37.4-30.455,17.4,6.459,30.851,55.488a3.387,3.387,0,0,0-.6,1.754Zm153.465-91.915-67.457,40.466L2622.86-15.216a3.4,3.4,0,0,0,1.24-2.614c0-.025-.007-.049-.008-.075l81.841-9.742A3.413,3.413,0,0,0,2707.288-25.589Zm-88.92,10.259L2583.9,30.523l-36.577-13.579-5.135-25.1,75.165-8.948A3.407,3.407,0,0,0,2618.368-15.33ZM2541.36-8.055l5.045,24.66-22.059-8.189-7.533-13.549ZM2516.941-5.98l21.3-17.343,2.957,14.456Zm-1.015.952,7.229,13L2507.117,2.02l8.627-7.026Zm-9.707,6.714-11.336-4.208,19.33-2.3Zm49.769,61.751a3.406,3.406,0,0,0-.772.5L2524.963,9.526l21.638,8.033Zm-87.893-30.7L2430.755,18.1l.738-13.079,61.593-7.332,12.39,4.6ZM2379.708-44.4l52.642,19.543-1.643,29.142L2405.386,7.3a3.387,3.387,0,0,0-5.187-2.624l-21.568-47.608A3.4,3.4,0,0,0,2379.708-44.4ZM2430.66,5.123l-.714,12.663L2405.355,8.15V8.136Zm2.5-29.678,58.229,21.617L2431.54,4.187ZM2426.7,63.177l-23.717-52.352a3.411,3.411,0,0,0,2.135-1.879l24.777,9.708-2.507,44.468c-.025,0-.047-.007-.071-.007A3.488,3.488,0,0,0,2426.7,63.177ZM2379.936-45.6a3.383,3.383,0,0,0-.5-1.751l56.571-42.428L2432.4-25.719,2379.9-45.21A3.349,3.349,0,0,0,2379.936-45.6Zm56.938-44.827,22.28-16.71L2515.47-5.848l-.061.05-22.223,2.646-59.977-22.266Zm.061-1.078,2.645-46.923a3.3,3.3,0,0,0,.346.035,3.376,3.376,0,0,0,1.614-.423l17.209,30.95Zm6.178-49.1,36.1,17.388-19.8,14.85-17.2-30.927A3.4,3.4,0,0,0,2443.113-140.6Zm79.837,38.452,66.01,31.792a3.4,3.4,0,0,0-1,2.411,3.4,3.4,0,0,0,.918,2.315l-50.109,40.809Zm95.873,81.461a3.4,3.4,0,0,0-1.547,2.765l-75.259,8.96-3.058-14.946,50.56-41.177a3.392,3.392,0,0,0,1.861.557,3.39,3.39,0,0,0,2.237-.853Zm89.065-4.3-41.349,83.272a3.212,3.212,0,0,0-2.258-.056L2640.237,15.6Zm-45.467,84.662-59.093-21.937,36.2-21.717,24,42.55A3.408,3.408,0,0,0,2662.421,59.675Zm-60.085-22.306L2584.7,30.823l34.338-45.674a3.377,3.377,0,0,0,1.642.438,3.387,3.387,0,0,0,1.483-.351L2639.123,15.3Zm-.907.545-40.178,24.1,22.934-30.5Zm-42.06,25.23-.505.3a3.383,3.383,0,0,0-1.448-.333,3.433,3.433,0,0,0-.638.064L2547.513,17.9l35.864,13.314Zm-7.81,3.182H2430.715a3.4,3.4,0,0,0-.533-1.65l38.061-31Zm-127.12-1.618L2360.3,43.034l39.36-32.978a3.4,3.4,0,0,0,2.331.931c.051,0,.1-.013.149-.015l23.764,52.455A3.416,3.416,0,0,0,2424.439,64.708Zm-65.051-21.984-62.4-21.09a3.464,3.464,0,0,0,.043-.435c0-.056-.014-.109-.016-.166L2398.853,8.909a3.368,3.368,0,0,0,.28.515Zm-8.844-92.542a57.505,57.505,0,0,1,22.6,4.582,3.372,3.372,0,0,0,.465,1.4l-77.636,62.573a3.4,3.4,0,0,0-2.354-.95c-.117,0-.227.023-.34.034a58.093,58.093,0,0,1-.8-9.563A58.137,58.137,0,0,1,2350.544-49.818Zm86.723-89.869a3.406,3.406,0,0,0,1.5,1.079l-2.692,47.752-57.13,42.847a3.4,3.4,0,0,0-2.073-.972,107.916,107.916,0,0,1,32.45-70.886A108.645,108.645,0,0,1,2437.267-139.687Zm47.9-11.1a109.005,109.005,0,0,1,24.9,2.871,3.357,3.357,0,0,0,.444,1.228l-30.551,22.913L2443.3-141.428a3.413,3.413,0,0,0,.038-.381,3.41,3.41,0,0,0-.062-.61A108.313,108.313,0,0,1,2485.166-150.785Zm104.693,79.793c-.05.025-.1.052-.146.079l-66.971-32.256-8.581-41.934a3.4,3.4,0,0,0,1.927-1.211A108.35,108.35,0,0,1,2589.859-70.992Zm46.763-12.486c2.44,0,4.851.122,7.232.351a3.4,3.4,0,0,0,1.889,2.793L2621.7-21.074a3.383,3.383,0,0,0-1.021-.172,3.385,3.385,0,0,0-1.111.2L2594.2-66.026a3.394,3.394,0,0,0,.593-1.922,3.386,3.386,0,0,0-.821-2.2A74.211,74.211,0,0,1,2636.622-83.478Zm71.3,51.98a3.418,3.418,0,0,0-1.272.971l-56.4-51.276a3.4,3.4,0,0,0,.181-.392A75.147,75.147,0,0,1,2707.922-31.5Zm-39.891,90.909a3.429,3.429,0,0,0-.76-.742l41.541-83.66a3.333,3.333,0,0,0,.461.047,3.516,3.516,0,0,0,.425-.043,74.879,74.879,0,0,1,1.816,16.414A75,75,0,0,1,2668.031,59.411Zm-31.409,6.915h-75.81a3.4,3.4,0,0,0-1.079-2.292l.2-.264,42.489-25.488L2662.08,60.43a3.364,3.364,0,0,0-.178,1.038,3.3,3.3,0,0,0,.045.446A74.533,74.533,0,0,1,2636.622,66.326Zm-286.078,0a58.019,58.019,0,0,1-13.319-1.559,3.378,3.378,0,0,0-.761-1.759l23.1-19.353,64.527,21.807a3.384,3.384,0,0,0-.167.864ZM2294.774,24.4a3.416,3.416,0,0,0,2.016-1.961l61.857,20.9-22.785,19.09a3.371,3.371,0,0,0-4.628.577A58.315,58.315,0,0,1,2294.774,24.4Z" fill="#80def8"/><path d="M1505.1,323.565a59.973,59.973,0,0,0,37.4,39.943,3.412,3.412,0,0,0,6.527,1.909,59.678,59.678,0,0,0,13.515,1.561h73.689a3.4,3.4,0,0,0,6.172,0H1766.33a3.4,3.4,0,0,0,6.171,0h76.121a76.189,76.189,0,0,0,25.926-4.524,3.391,3.391,0,0,0,6.133-2.524,76.582,76.582,0,0,0,42.577-86.519,3.4,3.4,0,0,0-1.68-6.158,76.805,76.805,0,0,0-58.962-52.1,3.4,3.4,0,0,0-6.5-.919q-3.7-.361-7.5-.368a75.852,75.852,0,0,0-44.079,13.982,3.392,3.392,0,0,0-1.074-.208,110,110,0,0,0-74.682-76.478,3.406,3.406,0,0,0-6.565-1.74,110.808,110.808,0,0,0-67.63,5.652,3.4,3.4,0,0,0-6.083,2.113,3.355,3.355,0,0,0,.063.622,110.449,110.449,0,0,0-61.379,92.438,3.423,3.423,0,0,0-1.823,1.824,59.169,59.169,0,0,0-22.826-4.545,59.662,59.662,0,0,0-58.849,69.843,3.407,3.407,0,0,0,1.408,6.192ZM1861.78,217.883l56.416,51.294a3.385,3.385,0,0,0-.329,1.351l-81.9,9.751a3.4,3.4,0,0,0-1.509-2.015l24.062-59.317a3.358,3.358,0,0,0,3.259-1.064Zm-127.974-22.5L1692.8,175.63l30.21-22.658a3.407,3.407,0,0,0,2.324,1Zm.208,1.017,16.035,78.366-21.928,17.858-56.3-101.258,20.233-15.175ZM1508.491,318.371l77.613-62.553a3.393,3.393,0,0,0,3.82.691l21.61,47.7a3.4,3.4,0,0,0-.954,2.36,3.355,3.355,0,0,0,.054.534L1508.87,319.219A3.375,3.375,0,0,0,1508.491,318.371Zm133.158,44.674a3.407,3.407,0,0,0-1.439-.8l2.5-44.276,36.654,14.362Zm124.174,2.281-84.845-33.246,37.4-30.455,17.4,6.459,30.851,55.488a3.387,3.387,0,0,0-.6,1.754Zm153.465-91.915-67.457,40.466-16.971-30.093a3.4,3.4,0,0,0,1.24-2.614c0-.025-.007-.049-.008-.075l81.841-9.742A3.413,3.413,0,0,0,1919.288,273.411Zm-88.92,10.259L1795.9,329.523l-36.577-13.579-5.135-25.1,75.165-8.948A3.407,3.407,0,0,0,1830.368,283.67Zm-77.008,7.275,5.045,24.66-22.059-8.189-7.533-13.549Zm-24.419,2.075,21.3-17.343,2.957,14.456Zm-1.015.952,7.229,13-16.038-5.954,8.627-7.026Zm-9.707,6.714-11.336-4.208,19.33-2.3Zm49.769,61.751a3.406,3.406,0,0,0-.772.5l-30.253-54.411,21.638,8.033Zm-87.893-30.7-37.34-14.631.738-13.079,61.593-7.332,12.39,4.6ZM1591.708,254.6l52.642,19.543-1.643,29.142-25.321,3.014a3.387,3.387,0,0,0-5.187-2.624l-21.568-47.608A3.4,3.4,0,0,0,1591.708,254.6Zm50.952,49.522-.714,12.663-24.591-9.636v-.014Zm2.5-29.678,58.229,21.617-59.849,7.125Zm-6.458,87.732-23.717-52.352a3.411,3.411,0,0,0,2.135-1.879l24.777,9.708-2.507,44.468c-.025,0-.047-.007-.071-.007A3.488,3.488,0,0,0,1638.7,362.177ZM1591.936,253.4a3.383,3.383,0,0,0-.5-1.751l56.571-42.428-3.611,64.059-52.5-19.491A3.349,3.349,0,0,0,1591.936,253.4Zm56.938-44.827,22.28-16.71,56.316,101.288-.061.05-22.223,2.646-59.977-22.266Zm.061-1.078,2.645-46.923a3.3,3.3,0,0,0,.346.035,3.376,3.376,0,0,0,1.614-.423l17.209,30.95Zm6.178-49.1,36.1,17.388-19.8,14.85-17.2-30.927A3.4,3.4,0,0,0,1655.113,158.4Zm79.837,38.452,66.01,31.792a3.4,3.4,0,0,0-.079,4.726l-50.109,40.809Zm95.873,81.461a3.4,3.4,0,0,0-1.547,2.765l-75.259,8.96-3.058-14.946,50.56-41.177a3.372,3.372,0,0,0,4.1-.3Zm89.065-4.3-41.349,83.272a3.212,3.212,0,0,0-2.258-.056L1852.237,314.6Zm-45.467,84.662-59.093-21.937,36.2-21.717,24,42.55A3.408,3.408,0,0,0,1874.421,358.675Zm-60.085-22.306-17.633-6.546,34.338-45.674a3.3,3.3,0,0,0,3.125.087l16.957,30.066Zm-.907.545-40.178,24.1,22.934-30.5Zm-42.06,25.23-.5.3a3.383,3.383,0,0,0-1.448-.333,3.433,3.433,0,0,0-.638.064l-9.265-45.281,35.864,13.314Zm-7.81,3.182H1642.715a3.4,3.4,0,0,0-.533-1.65l38.061-31Zm-127.12-1.618-64.134-21.674,39.36-32.978a3.4,3.4,0,0,0,2.331.931c.051,0,.1-.013.149-.015l23.764,52.455A3.416,3.416,0,0,0,1636.439,363.708Zm-65.051-21.984-62.4-21.09a3.464,3.464,0,0,0,.043-.435c0-.056-.014-.109-.016-.166l101.839-12.124a3.368,3.368,0,0,0,.28.515Zm-8.844-92.542a57.505,57.505,0,0,1,22.595,4.582,3.372,3.372,0,0,0,.465,1.4l-77.636,62.573a3.4,3.4,0,0,0-2.354-.95c-.117,0-.227.023-.34.034a58.027,58.027,0,0,1,57.27-67.635Zm86.723-89.869a3.406,3.406,0,0,0,1.5,1.079l-2.692,47.752-57.13,42.847a3.4,3.4,0,0,0-2.073-.972,108.777,108.777,0,0,1,60.4-90.706Zm47.9-11.1a109.005,109.005,0,0,1,24.9,2.871,3.357,3.357,0,0,0,.444,1.228l-30.551,22.913-36.655-17.655a2.486,2.486,0,0,0-.024-.991A108.313,108.313,0,0,1,1697.166,148.215Zm104.693,79.793c-.05.025-.1.052-.146.079l-66.971-32.256-8.581-41.934a3.4,3.4,0,0,0,1.927-1.211A108.35,108.35,0,0,1,1801.859,228.008Zm46.763-12.486c2.44,0,4.851.122,7.232.351a3.4,3.4,0,0,0,1.889,2.793l-24.039,59.26a3.152,3.152,0,0,0-2.132.028l-25.368-44.98a3.379,3.379,0,0,0-.228-4.12A74.211,74.211,0,0,1,1848.622,215.522Zm71.3,51.98a3.418,3.418,0,0,0-1.272.971l-56.4-51.276a3.4,3.4,0,0,0,.181-.392A75.147,75.147,0,0,1,1919.922,267.5Zm-39.891,90.909a3.429,3.429,0,0,0-.76-.742l41.541-83.66a3.333,3.333,0,0,0,.461.047,3.516,3.516,0,0,0,.425-.043,74.916,74.916,0,0,1-41.667,84.4Zm-31.409,6.915h-75.81a3.4,3.4,0,0,0-1.079-2.292l.2-.264,42.489-25.488,59.659,22.148a3.364,3.364,0,0,0-.178,1.038,3.3,3.3,0,0,0,.045.446A74.533,74.533,0,0,1,1848.622,365.326Zm-286.078,0a58.019,58.019,0,0,1-13.319-1.559,3.378,3.378,0,0,0-.761-1.759l23.1-19.353,64.527,21.807a3.384,3.384,0,0,0-.167.864Zm-55.77-41.925a3.416,3.416,0,0,0,2.016-1.961l61.857,20.905-22.785,19.09a3.371,3.371,0,0,0-4.628.577A58.315,58.315,0,0,1,1506.774,323.4Z" fill="#80def8"/><path d="M2118.1,270.565a59.973,59.973,0,0,0,37.4,39.943,3.412,3.412,0,0,0,6.527,1.909,59.678,59.678,0,0,0,13.515,1.561h73.689a3.4,3.4,0,0,0,6.172,0H2379.33a3.4,3.4,0,0,0,6.171,0h76.121a76.189,76.189,0,0,0,25.926-4.524,3.391,3.391,0,0,0,6.133-2.524,76.582,76.582,0,0,0,42.577-86.519,3.4,3.4,0,0,0-1.68-6.158,76.805,76.805,0,0,0-58.962-52.1,3.4,3.4,0,0,0-6.5-.919q-3.7-.361-7.5-.368a75.852,75.852,0,0,0-44.079,13.982,3.392,3.392,0,0,0-1.074-.208,110,110,0,0,0-74.682-76.478,3.406,3.406,0,0,0-6.565-1.74,110.808,110.808,0,0,0-67.63,5.652,3.4,3.4,0,0,0-6.083,2.113,3.355,3.355,0,0,0,.063.622,110.449,110.449,0,0,0-61.379,92.438,3.423,3.423,0,0,0-1.823,1.824,59.169,59.169,0,0,0-22.826-4.545,59.662,59.662,0,0,0-58.849,69.843,3.407,3.407,0,0,0,1.408,6.192ZM2474.78,164.883l56.416,51.294a3.385,3.385,0,0,0-.329,1.351l-81.9,9.751a3.4,3.4,0,0,0-1.509-2.015l24.062-59.317a3.358,3.358,0,0,0,3.259-1.064Zm-127.974-22.5L2305.8,122.63l30.21-22.658a3.407,3.407,0,0,0,2.324,1Zm.208,1.017,16.035,78.366-21.928,17.858-56.3-101.258,20.233-15.175ZM2121.491,265.371l77.613-62.553a3.393,3.393,0,0,0,3.82.691l21.61,47.7a3.4,3.4,0,0,0-.954,2.36,3.355,3.355,0,0,0,.054.534L2121.87,266.219A3.375,3.375,0,0,0,2121.491,265.371Zm133.158,44.674a3.407,3.407,0,0,0-1.439-.8l2.5-44.276,36.654,14.362Zm124.174,2.281-84.845-33.246,37.4-30.455,17.4,6.459,30.851,55.488a3.387,3.387,0,0,0-.6,1.754Zm153.465-91.915-67.457,40.466-16.971-30.093a3.4,3.4,0,0,0,1.24-2.614c0-.025-.007-.049-.008-.075l81.841-9.742A3.413,3.413,0,0,0,2532.288,220.411Zm-88.92,10.259L2408.9,276.523l-36.577-13.579-5.135-25.1,75.165-8.948A3.407,3.407,0,0,0,2443.368,230.67Zm-77.008,7.275,5.045,24.66-22.059-8.189-7.533-13.549Zm-24.419,2.075,21.3-17.343,2.957,14.456Zm-1.015.952,7.229,13-16.038-5.954,8.627-7.026Zm-9.707,6.714-11.336-4.208,19.33-2.3Zm49.769,61.751a3.406,3.406,0,0,0-.772.5l-30.253-54.411,21.638,8.033Zm-87.893-30.7-37.34-14.631.738-13.079,61.593-7.332,12.39,4.6ZM2204.708,201.6l52.642,19.543-1.643,29.142-25.321,3.014a3.387,3.387,0,0,0-5.187-2.624l-21.568-47.608A3.4,3.4,0,0,0,2204.708,201.6Zm50.952,49.522-.714,12.663-24.591-9.636v-.014Zm2.5-29.678,58.229,21.617-59.849,7.125Zm-6.458,87.732-23.717-52.352a3.411,3.411,0,0,0,2.135-1.879l24.777,9.708-2.507,44.468c-.025,0-.047-.007-.071-.007A3.488,3.488,0,0,0,2251.7,309.177ZM2204.936,200.4a3.383,3.383,0,0,0-.5-1.751l56.571-42.428-3.611,64.059-52.5-19.491A3.349,3.349,0,0,0,2204.936,200.4Zm56.938-44.827,22.28-16.71,56.316,101.288-.061.05-22.223,2.646-59.977-22.266Zm.061-1.078,2.645-46.923a3.3,3.3,0,0,0,.346.035,3.376,3.376,0,0,0,1.614-.423l17.209,30.95Zm6.178-49.1,36.1,17.388-19.8,14.85-17.2-30.927A3.4,3.4,0,0,0,2268.113,105.4Zm79.837,38.452,66.01,31.792a3.4,3.4,0,0,0-.079,4.726l-50.109,40.809Zm95.873,81.461a3.4,3.4,0,0,0-1.547,2.765l-75.259,8.96-3.058-14.946,50.56-41.177a3.372,3.372,0,0,0,4.1-.3Zm89.065-4.3-41.349,83.272a3.212,3.212,0,0,0-2.258-.056L2465.237,261.6Zm-45.467,84.662-59.093-21.937,36.2-21.717,24,42.55A3.408,3.408,0,0,0,2487.421,305.675Zm-60.085-22.306-17.633-6.546,34.338-45.674a3.3,3.3,0,0,0,3.125.087l16.957,30.066Zm-.907.545-40.178,24.1,22.934-30.5Zm-42.06,25.23-.505.3a3.383,3.383,0,0,0-1.448-.333,3.433,3.433,0,0,0-.638.064l-9.265-45.281,35.864,13.314Zm-7.81,3.182H2255.715a3.4,3.4,0,0,0-.533-1.65l38.061-31Zm-127.12-1.618L2185.3,289.034l39.36-32.978a3.4,3.4,0,0,0,2.331.931c.051,0,.1-.013.149-.015l23.764,52.455A3.416,3.416,0,0,0,2249.439,310.708Zm-65.051-21.984-62.4-21.09a3.464,3.464,0,0,0,.043-.435c0-.056-.014-.109-.016-.166l101.839-12.124a3.368,3.368,0,0,0,.28.515Zm-8.844-92.542a57.505,57.505,0,0,1,22.6,4.582,3.372,3.372,0,0,0,.465,1.4l-77.636,62.573a3.4,3.4,0,0,0-2.354-.95c-.117,0-.227.023-.34.034a58.027,58.027,0,0,1,57.27-67.635Zm86.723-89.869a3.406,3.406,0,0,0,1.5,1.079l-2.692,47.752-57.13,42.847a3.4,3.4,0,0,0-2.073-.972,108.777,108.777,0,0,1,60.4-90.706Zm47.9-11.1a109.005,109.005,0,0,1,24.9,2.871,3.357,3.357,0,0,0,.444,1.228l-30.551,22.913L2268.3,104.572a2.486,2.486,0,0,0-.024-.991A108.313,108.313,0,0,1,2310.166,95.215Zm104.693,79.793c-.05.025-.1.052-.146.079l-66.971-32.256-8.581-41.934a3.4,3.4,0,0,0,1.927-1.211A108.35,108.35,0,0,1,2414.859,175.008Zm46.763-12.486c2.44,0,4.851.122,7.232.351a3.4,3.4,0,0,0,1.889,2.793l-24.039,59.26a3.152,3.152,0,0,0-2.132.028l-25.368-44.98a3.379,3.379,0,0,0-.228-4.12A74.211,74.211,0,0,1,2461.622,162.522Zm71.3,51.98a3.418,3.418,0,0,0-1.272.971l-56.4-51.276a3.4,3.4,0,0,0,.181-.392A75.147,75.147,0,0,1,2532.922,214.5Zm-39.891,90.909a3.429,3.429,0,0,0-.76-.742l41.541-83.66a3.333,3.333,0,0,0,.461.047,3.516,3.516,0,0,0,.425-.043,74.916,74.916,0,0,1-41.667,84.4Zm-31.409,6.915h-75.81a3.4,3.4,0,0,0-1.079-2.292l.2-.264,42.489-25.488,59.659,22.148a3.364,3.364,0,0,0-.178,1.038,3.3,3.3,0,0,0,.045.446A74.533,74.533,0,0,1,2461.622,312.326Zm-286.078,0a58.019,58.019,0,0,1-13.319-1.559,3.378,3.378,0,0,0-.761-1.759l23.1-19.353,64.527,21.807a3.384,3.384,0,0,0-.167.864Zm-55.77-41.925a3.416,3.416,0,0,0,2.016-1.961l61.857,20.905-22.785,19.09a3.371,3.371,0,0,0-4.628.577A58.315,58.315,0,0,1,2119.774,270.4Z" fill="#80def8"/><rect x="1600.653" y="-109.438" width="1438" height="401" fill="none"/><polyline points="1464.387 110.563 1592.387 -10.438 1636.387 -13.438 1531.387 164.563 1651.153 157.063 1726.153 29.063 1728.153 -126.938" fill="none" stroke="#80def8" stroke-miterlimit="10"/><line x1="1525.387" y1="162.563" x2="1763.387" y2="365.563" fill="none" stroke="#80def8" stroke-miterlimit="10"/></g></g></svg>