<svg xmlns="http://www.w3.org/2000/svg" xmlns:xlink="http://www.w3.org/1999/xlink" viewBox="0 0 2500 250"><defs><clipPath id="a"><rect y="270" width="2500" height="250" fill="none"/></clipPath></defs><title>banner-code-2-purple</title><rect width="2500" height="250" fill="#5c2d91"/><path d="M27.907,44.019a8,8,0,1,0-8-8A8,8,0,0,0,27.907,44.019Z" fill="#401467"/><path d="M416.4,54.527h-15v15h15Z" fill="#401467"/><path d="M71.312,103.286h-16v6h16Z" fill="#401467"/><path d="M109.981,73.286H96.645a1.333,1.333,0,0,1-1.333-1.333V58.619a1.332,1.332,0,0,1,1.333-1.333h13.336a1.332,1.332,0,0,1,1.333,1.333V71.953a1.333,1.333,0,0,1-1.333,1.333Zm-12-2.667h10.668V59.952H97.979Z" fill="#401467"/><path d="M180.98,194.286a1.339,1.339,0,0,1-.775-.248l-9.334-6.667a1.333,1.333,0,0,1,0-2.17l9.334-6.667a1.335,1.335,0,0,1,1.55,0l9.334,6.667a1.333,1.333,0,0,1,0,2.17l-9.334,6.667A1.336,1.336,0,0,1,180.98,194.286Zm-7.039-8,7.039,5.028,7.04-5.028-7.04-5.028Z" fill="#401467"/><path d="M181.313,27.286a8.01,8.01,0,1,1,5.655-2.346A8,8,0,0,1,181.313,27.286Zm0-13.715a5.722,5.722,0,1,0,4.039,1.676A5.724,5.724,0,0,0,181.313,13.571Z" fill="#401467"/><path d="M260.313,178.286l-8,8,8,8,8-8Z" fill="#401467"/><path d="M185.962,69.3a.992.992,0,0,1-.647-.24l-1.678-1.437-1.677,1.437a1,1,0,0,1-1.3,0l-1.677-1.437-1.678,1.437a1,1,0,0,1-1.295,0l-2.325-1.993a.991.991,0,0,1-.256-.305.977.977,0,0,1-.116-.38.989.989,0,0,1,.235-.744,1,1,0,0,1,.7-.346.992.992,0,0,1,.735.263l1.677,1.436,1.678-1.436a.993.993,0,0,1,1.295,0l1.677,1.436,1.677-1.436a.993.993,0,0,1,1.295,0l1.678,1.436,1.677-1.436a.992.992,0,0,1,.735-.263.994.994,0,0,1,.933,1.09.977.977,0,0,1-.116.38.991.991,0,0,1-.256.305l-2.325,1.993A.993.993,0,0,1,185.962,69.3Z" fill="#401467"/><path d="M341.313,111.286a1.144,1.144,0,0,1-.808-.335l-6.858-6.857a1.142,1.142,0,0,1,0-1.616l6.858-6.857a1.142,1.142,0,0,1,1.616,0l6.858,6.857a1.142,1.142,0,0,1,0,1.616l-6.858,6.857A1.144,1.144,0,0,1,341.313,111.286Zm-5.242-8,5.242,5.241,5.242-5.241-5.242-5.241Z" fill="#401467"/><path d="M30.15,230.286H14.607a1.3,1.3,0,0,1-1.122-1.943l7.772-13.456a1.347,1.347,0,0,1,2.243,0l7.772,13.456a1.3,1.3,0,0,1-1.122,1.943Zm-13.3-2.59H27.907l-5.528-9.572Z" fill="#401467"/><path d="M505.416,228.286h-10a2,2,0,0,1-2-2v-10a2,2,0,0,1,4,0v8h8a2,2,0,0,1,0,4Z" fill="#401467"/><path d="M309.981,223.619H296.646a1.333,1.333,0,1,1,0-2.666h13.335a1.333,1.333,0,1,1,0,2.666Z" fill="#401467"/><path d="M303.313,230.286a1.335,1.335,0,0,1-1.334-1.333V215.619a1.334,1.334,0,0,1,2.668,0v13.334a1.335,1.335,0,0,1-1.334,1.333Z" fill="#401467"/><path d="M299.579,24.819a4.266,4.266,0,1,1,3.018-1.25A4.268,4.268,0,0,1,299.579,24.819Zm0-6.4a2.134,2.134,0,1,0,1.509.625A2.129,2.129,0,0,0,299.579,18.419Z" fill="#401467"/><path d="M299.579,32.286a1.069,1.069,0,0,1-1.067-1.067v-6.4a1.067,1.067,0,1,1,2.134,0v6.4a1.067,1.067,0,0,1-1.067,1.067Z" fill="#401467"/><path d="M507.076,30.686H493.741a1.333,1.333,0,0,1-.6-2.527l8.282-4.14h-7.686a1.333,1.333,0,0,1-.6-2.526l8.282-4.14h-7.686a1.334,1.334,0,0,1,0-2.667h13.335a1.333,1.333,0,0,1,.6,2.533l-8.283,4.134h7.687a1.333,1.333,0,0,1,.6,2.533l-8.283,4.133h7.687a1.334,1.334,0,0,1,0,2.667Z" fill="#401467"/><path d="M395,196a16,16,0,0,0-16,16h16Z" fill="#401467"/><path d="M101.812,179.786a1.5,1.5,0,0,1-1.5-1.5v-4.5a1.5,1.5,0,1,1,3,0v4.5a1.5,1.5,0,0,1-1.5,1.5Z" fill="#401467"/><path d="M101.812,196.286a1.5,1.5,0,0,1-1.5-1.5v-4.5a1.5,1.5,0,1,1,3,0v4.5a1.5,1.5,0,0,1-1.5,1.5Z" fill="#401467"/><path d="M101.812,185.786a1.5,1.5,0,1,0-1.5-1.5A1.5,1.5,0,0,0,101.812,185.786Z" fill="#401467"/><path d="M442.816,139.486h-12.8a1.6,1.6,0,0,1,0-3.2h12.8a1.6,1.6,0,0,1,0,3.2Z" fill="#401467"/><path d="M446.016,145.886h-12.8a1.6,1.6,0,1,1,0-3.2h12.8a1.6,1.6,0,1,1,0,3.2Z" fill="#401467"/><path d="M449.217,152.286h-12.8a1.6,1.6,0,0,1,0-3.2h12.8a1.6,1.6,0,0,1,0,3.2Z" fill="#401467"/><path d="M607.907,44.019a8,8,0,1,0-8-8A8,8,0,0,0,607.907,44.019Z" fill="#401467"/><path d="M996.4,54.527h-15v15h15Z" fill="#401467"/><path d="M567.312,98.286h-16v6h16Z" fill="#401467"/><path d="M689.981,73.286H676.645a1.333,1.333,0,0,1-1.333-1.333V58.619a1.332,1.332,0,0,1,1.333-1.333h13.336a1.332,1.332,0,0,1,1.333,1.333V71.953a1.333,1.333,0,0,1-1.333,1.333Zm-12-2.667h10.668V59.952H677.979Z" fill="#401467"/><path d="M760.98,194.286a1.339,1.339,0,0,1-.775-.248l-9.334-6.667a1.333,1.333,0,0,1,0-2.17l9.334-6.667a1.335,1.335,0,0,1,1.55,0l9.334,6.667a1.333,1.333,0,0,1,0,2.17l-9.334,6.667A1.336,1.336,0,0,1,760.98,194.286Zm-7.039-8,7.039,5.028,7.04-5.028-7.04-5.028Z" fill="#401467"/><path d="M761.313,27.286a8.01,8.01,0,1,1,5.655-2.346A8,8,0,0,1,761.313,27.286Zm0-13.715a5.722,5.722,0,1,0,4.039,1.676A5.724,5.724,0,0,0,761.313,13.571Z" fill="#401467"/><path d="M840.313,178.286l-8,8,8,8,8-8Z" fill="#401467"/><path d="M765.962,69.3a.992.992,0,0,1-.647-.24l-1.678-1.437-1.677,1.437a1,1,0,0,1-1.3,0l-1.677-1.437-1.678,1.437a1,1,0,0,1-1.295,0l-2.325-1.993a.991.991,0,0,1-.256-.305.977.977,0,0,1-.116-.38.989.989,0,0,1,.235-.744,1,1,0,0,1,.7-.346.992.992,0,0,1,.735.263l1.677,1.436,1.678-1.436a.993.993,0,0,1,1.295,0l1.677,1.436,1.677-1.436a.993.993,0,0,1,1.295,0l1.678,1.436,1.677-1.436a.992.992,0,0,1,.735-.263.994.994,0,0,1,.933,1.09.977.977,0,0,1-.116.38.991.991,0,0,1-.256.305l-2.325,1.993A.993.993,0,0,1,765.962,69.3Z" fill="#401467"/><path d="M550.313,168.036l-9.241,16h18.482Z" fill="#401467"/><path d="M921.313,111.286a1.144,1.144,0,0,1-.808-.335l-6.858-6.857a1.142,1.142,0,0,1,0-1.616l6.858-6.857a1.142,1.142,0,0,1,1.616,0l6.858,6.857a1.142,1.142,0,0,1,0,1.616l-6.858,6.857A1.144,1.144,0,0,1,921.313,111.286Zm-5.242-8,5.242,5.241,5.242-5.241-5.242-5.241Z" fill="#401467"/><path d="M610.15,230.286H594.607a1.3,1.3,0,0,1-1.122-1.943l7.772-13.456a1.347,1.347,0,0,1,2.243,0l7.772,13.456a1.3,1.3,0,0,1-1.122,1.943Zm-13.3-2.59h11.057l-5.528-9.572Z" fill="#401467"/><path d="M1085.416,228.286h-10a2,2,0,0,1-2-2v-10a2,2,0,0,1,4,0v8h8a2,2,0,0,1,0,4Z" fill="#401467"/><path d="M889.981,223.619H876.646a1.333,1.333,0,1,1,0-2.666h13.335a1.333,1.333,0,1,1,0,2.666Z" fill="#401467"/><path d="M883.313,230.286a1.335,1.335,0,0,1-1.334-1.333V215.619a1.334,1.334,0,0,1,2.668,0v13.334a1.335,1.335,0,0,1-1.334,1.333Z" fill="#401467"/><path d="M879.579,24.819a4.266,4.266,0,1,1,3.018-1.25A4.268,4.268,0,0,1,879.579,24.819Zm0-6.4a2.134,2.134,0,1,0,1.509.625A2.129,2.129,0,0,0,879.579,18.419Z" fill="#401467"/><path d="M879.579,32.286a1.069,1.069,0,0,1-1.067-1.067v-6.4a1.067,1.067,0,1,1,2.134,0v6.4a1.067,1.067,0,0,1-1.067,1.067Z" fill="#401467"/><path d="M1087.076,30.686h-13.335a1.333,1.333,0,0,1-.6-2.527l8.282-4.14h-7.686a1.333,1.333,0,0,1-.6-2.526l8.282-4.14h-7.686a1.334,1.334,0,0,1,0-2.667h13.335a1.333,1.333,0,0,1,.6,2.533l-8.283,4.134h7.687a1.333,1.333,0,0,1,.6,2.533l-8.283,4.133h7.687a1.334,1.334,0,0,1,0,2.667Z" fill="#401467"/><path d="M808.314,98.286v16h-5v-11h-11v-5Z" fill="#401467"/><path d="M1006.416,212.286a16,16,0,0,0-16,16h16Z" fill="#401467"/><path d="M681.812,179.786a1.5,1.5,0,0,1-1.5-1.5v-4.5a1.5,1.5,0,1,1,3,0v4.5a1.5,1.5,0,0,1-1.5,1.5Z" fill="#401467"/><path d="M681.812,196.286a1.5,1.5,0,0,1-1.5-1.5v-4.5a1.5,1.5,0,1,1,3,0v4.5a1.5,1.5,0,0,1-1.5,1.5Z" fill="#401467"/><path d="M681.812,185.786a1.5,1.5,0,1,0-1.5-1.5A1.5,1.5,0,0,0,681.812,185.786Z" fill="#401467"/><path d="M961.816,175.486h-12.8a1.6,1.6,0,0,1,0-3.2h12.8a1.6,1.6,0,0,1,0,3.2Z" fill="#401467"/><path d="M965.016,181.886h-12.8a1.6,1.6,0,1,1,0-3.2h12.8a1.6,1.6,0,1,1,0,3.2Z" fill="#401467"/><path d="M968.217,188.286h-12.8a1.6,1.6,0,0,1,0-3.2h12.8a1.6,1.6,0,0,1,0,3.2Z" fill="#401467"/><path d="M1159.907,213.552a8,8,0,1,0,8-8A8,8,0,0,0,1159.907,213.552Z" fill="#401467"/><path d="M1632.406,121.5h-15v15h15Z" fill="#401467"/><path d="M1170.379,142h-16v6h16Z" fill="#401467"/><path d="M1250.924,176.677a1.332,1.332,0,0,1,.39.942v13.333a1.333,1.333,0,0,1-1.333,1.334h-13.336a1.333,1.333,0,0,1-1.333-1.334V177.619a1.333,1.333,0,0,1,1.333-1.333h13.336A1.331,1.331,0,0,1,1250.924,176.677Zm-12.945,12.942h10.668V178.953h-10.668Z" fill="#401467"/><path d="M1321.755,55.534l9.334,6.667a1.333,1.333,0,0,1,0,2.17l-9.334,6.667a1.335,1.335,0,0,1-1.55,0l-9.334-6.667a1.333,1.333,0,0,1,0-2.17l9.334-6.667a1.335,1.335,0,0,1,1.55,0Zm-.775,12.78,7.04-5.028-7.04-5.028-7.039,5.028Z" fill="#401467"/><path d="M1326.968,224.631a8,8,0,1,1-5.655-2.345A8.009,8.009,0,0,1,1326.968,224.631Zm-1.616,9.693a5.709,5.709,0,1,0-4.039,1.676A5.717,5.717,0,0,0,1325.352,234.324Z" fill="#401467"/><path d="M1408.314,63.286l-8-8-8,8,8,8Z" fill="#401467"/><path d="M1326.61,180.516l2.325,1.993a.991.991,0,0,1,.256.305.977.977,0,0,1,.116.38.989.989,0,0,1-.235.744,1,1,0,0,1-.7.346.992.992,0,0,1-.735-.263l-1.677-1.436-1.678,1.436a.993.993,0,0,1-1.3,0l-1.677-1.436-1.677,1.436a.993.993,0,0,1-1.3,0l-1.678-1.436-1.677,1.436a.992.992,0,0,1-.735.263.994.994,0,0,1-.933-1.09.977.977,0,0,1,.116-.38.991.991,0,0,1,.256-.305l2.325-1.993a1,1,0,0,1,1.3,0l1.678,1.437,1.677-1.437a1,1,0,0,1,1.3,0l1.677,1.437,1.678-1.437a.993.993,0,0,1,1.295,0Z" fill="#401467"/><path d="M1292.794,97.286h-18.482l9.241,16Z" fill="#401467"/><path d="M1482.121,138.621l6.858,6.857a1.142,1.142,0,0,1,0,1.616l-6.858,6.857a1.142,1.142,0,0,1-1.616,0l-6.858-6.857a1.142,1.142,0,0,1,0-1.616l6.858-6.857a1.142,1.142,0,0,1,1.616,0Zm-.808,12.906,5.242-5.241-5.242-5.241-5.242,5.241Z" fill="#401467"/><path d="M1170.8,19.46a1.294,1.294,0,0,1,.474,1.769L1163.5,34.685a1.347,1.347,0,0,1-2.243,0l-7.772-13.456a1.3,1.3,0,0,1-.173-.648,1.3,1.3,0,0,1,1.3-1.295h15.543A1.292,1.292,0,0,1,1170.8,19.46Zm-8.419,11.988,5.528-9.572H1156.85Z" fill="#401467"/><path d="M1646.83,21.872a2,2,0,0,1-1.414,3.414h-8v8a2,2,0,0,1-4,0v-10a2,2,0,0,1,2-2h10A2,2,0,0,1,1646.83,21.872Z" fill="#401467"/><path d="M1450.924,26.343a1.333,1.333,0,0,1-.943,2.276h-13.335a1.333,1.333,0,1,1,0-2.666h13.335A1.334,1.334,0,0,1,1450.924,26.343Z" fill="#401467"/><path d="M1444.256,19.677a1.333,1.333,0,0,1,.391.942V33.953a1.334,1.334,0,0,1-2.668,0V20.619a1.334,1.334,0,0,1,2.277-.942Z" fill="#401467"/><path d="M1442.6,226a4.269,4.269,0,1,1-3.018-1.25A4.266,4.266,0,0,1,1442.6,226Zm-1.509,4.525a2.135,2.135,0,1,0-1.509.625A2.132,2.132,0,0,0,1441.088,230.527Z" fill="#401467"/><path d="M1440.334,217.6a1.066,1.066,0,0,1,.312.754v6.4a1.067,1.067,0,1,1-2.134,0v-6.4a1.068,1.068,0,0,1,1.822-.754Z" fill="#401467"/><path d="M1640.01,211.277a1.334,1.334,0,0,1-.943,2.276h-7.687l8.283,4.133a1.333,1.333,0,0,1-.6,2.533h-7.687l8.283,4.134a1.333,1.333,0,0,1-.6,2.533h-13.335a1.334,1.334,0,0,1,0-2.667h7.686l-8.282-4.14a1.333,1.333,0,0,1,.6-2.526h7.686l-8.282-4.14a1.333,1.333,0,0,1,.6-2.527h13.335A1.331,1.331,0,0,1,1640.01,211.277Z" fill="#401467"/><path d="M1352.312,151.286v-5h11v-11h5v16Z" fill="#401467"/><path d="M1566.416,21.286h-16a16,16,0,0,0,16,16Z" fill="#401467"/><path d="M1242.873,70.225a1.5,1.5,0,0,1,.439,1.061v4.5a1.5,1.5,0,1,1-3,0v-4.5a1.5,1.5,0,0,1,2.561-1.061Z" fill="#401467"/><path d="M1242.873,53.725a1.5,1.5,0,0,1,.439,1.061v4.5a1.5,1.5,0,1,1-3,0v-4.5a1.5,1.5,0,0,1,2.561-1.061Z" fill="#401467"/><path d="M1240.312,65.286a1.5,1.5,0,1,0,1.5-1.5A1.5,1.5,0,0,0,1240.312,65.286Z" fill="#401467"/><path d="M1522.947,74.555a1.6,1.6,0,0,1-1.131,2.731h-12.8a1.6,1.6,0,0,1,0-3.2h12.8A1.6,1.6,0,0,1,1522.947,74.555Z" fill="#401467"/><path d="M1526.148,68.155a1.6,1.6,0,0,1-1.132,2.731h-12.8a1.6,1.6,0,1,1,0-3.2h12.8A1.6,1.6,0,0,1,1526.148,68.155Z" fill="#401467"/><path d="M1529.348,61.755a1.6,1.6,0,0,1-1.131,2.731h-12.8a1.6,1.6,0,0,1,0-3.2h12.8A1.6,1.6,0,0,1,1529.348,61.755Z" fill="#401467"/><path d="M1713,184.036a8,8,0,1,0,8-8A8,8,0,0,0,1713,184.036Z" fill="#401467"/><path d="M2136.4,180.045h-15v15h15Z" fill="#401467"/><path d="M1791.312,140.287h-16v6h16Z" fill="#401467"/><path d="M1830.924,176.677a1.332,1.332,0,0,1,.39.942v13.333a1.333,1.333,0,0,1-1.333,1.334h-13.336a1.333,1.333,0,0,1-1.333-1.334V177.619a1.333,1.333,0,0,1,1.333-1.333h13.336A1.331,1.331,0,0,1,1830.924,176.677Zm-12.945,12.942h10.668V178.953h-10.668Z" fill="#401467"/><path d="M1901.755,55.534l9.334,6.667a1.333,1.333,0,0,1,0,2.17l-9.334,6.667a1.335,1.335,0,0,1-1.55,0l-9.334-6.667a1.333,1.333,0,0,1,0-2.17l9.334-6.667a1.335,1.335,0,0,1,1.55,0Zm-.775,12.78,7.04-5.028-7.04-5.028-7.039,5.028Z" fill="#401467"/><path d="M1906.968,224.631a8,8,0,1,1-5.655-2.345A8.009,8.009,0,0,1,1906.968,224.631Zm-1.616,9.693a5.709,5.709,0,1,0-4.039,1.676A5.717,5.717,0,0,0,1905.352,234.324Z" fill="#401467"/><path d="M1988.314,63.286l-8-8-8,8,8,8Z" fill="#401467"/><path d="M1906.61,180.516l2.325,1.993a.991.991,0,0,1,.256.305.977.977,0,0,1,.116.38.989.989,0,0,1-.235.744,1,1,0,0,1-.7.346.992.992,0,0,1-.735-.263l-1.677-1.436-1.678,1.436a.993.993,0,0,1-1.3,0l-1.677-1.436-1.677,1.436a.993.993,0,0,1-1.3,0l-1.678-1.436-1.677,1.436a.992.992,0,0,1-.735.263.994.994,0,0,1-.933-1.09.977.977,0,0,1,.116-.38.991.991,0,0,1,.256-.305l2.325-1.993a1,1,0,0,1,1.3,0l1.678,1.437,1.677-1.437a1,1,0,0,1,1.3,0l1.677,1.437,1.678-1.437a.993.993,0,0,1,1.295,0Z" fill="#401467"/><path d="M1699.554,65.536h-18.482l9.241,16Z" fill="#401467"/><path d="M2062.121,138.621l6.858,6.857a1.142,1.142,0,0,1,0,1.616l-6.858,6.857a1.142,1.142,0,0,1-1.616,0l-6.858-6.857a1.142,1.142,0,0,1,0-1.616l6.858-6.857a1.142,1.142,0,0,1,1.616,0Zm-.808,12.906,5.242-5.241-5.242-5.241-5.242,5.241Z" fill="#401467"/><path d="M1750.8,19.46a1.294,1.294,0,0,1,.474,1.769L1743.5,34.685a1.347,1.347,0,0,1-2.243,0l-7.772-13.456a1.3,1.3,0,0,1-.173-.648,1.3,1.3,0,0,1,1.3-1.295h15.543A1.292,1.292,0,0,1,1750.8,19.46Zm-8.419,11.988,5.528-9.572H1736.85Z" fill="#401467"/><path d="M2226.83,21.872a2,2,0,0,1-1.414,3.414h-8v8a2,2,0,0,1-4,0v-10a2,2,0,0,1,2-2h10A2,2,0,0,1,2226.83,21.872Z" fill="#401467"/><path d="M2030.924,26.343a1.333,1.333,0,0,1-.943,2.276h-13.335a1.333,1.333,0,1,1,0-2.666h13.335A1.334,1.334,0,0,1,2030.924,26.343Z" fill="#401467"/><path d="M2024.256,19.677a1.333,1.333,0,0,1,.391.942V33.953a1.334,1.334,0,0,1-2.668,0V20.619a1.334,1.334,0,0,1,2.277-.942Z" fill="#401467"/><path d="M2022.6,226a4.269,4.269,0,1,1-3.018-1.25A4.266,4.266,0,0,1,2022.6,226Zm-1.509,4.525a2.135,2.135,0,1,0-1.509.625A2.132,2.132,0,0,0,2021.088,230.527Z" fill="#401467"/><path d="M2020.334,217.6a1.066,1.066,0,0,1,.312.754v6.4a1.067,1.067,0,1,1-2.134,0v-6.4a1.068,1.068,0,0,1,1.822-.754Z" fill="#401467"/><path d="M2228.019,219.277a1.334,1.334,0,0,1-.943,2.276h-7.687l8.283,4.133a1.333,1.333,0,0,1-.6,2.533h-7.687l8.283,4.134a1.333,1.333,0,0,1-.6,2.533h-13.335a1.334,1.334,0,0,1,0-2.667h7.686l-8.282-4.14a1.333,1.333,0,0,1,.6-2.526h7.686l-8.282-4.14a1.333,1.333,0,0,1,.6-2.527h13.335A1.331,1.331,0,0,1,2228.019,219.277Z" fill="#401467"/><path d="M1932.312,151.286v-5h11v-11h5v16Z" fill="#401467"/><path d="M2146.416,21.286h-16a16,16,0,0,0,16,16Z" fill="#401467"/><path d="M1822.873,70.225a1.5,1.5,0,0,1,.439,1.061v4.5a1.5,1.5,0,1,1-3,0v-4.5a1.5,1.5,0,0,1,2.561-1.061Z" fill="#401467"/><path d="M1822.873,53.725a1.5,1.5,0,0,1,.439,1.061v4.5a1.5,1.5,0,1,1-3,0v-4.5a1.5,1.5,0,0,1,2.561-1.061Z" fill="#401467"/><path d="M1820.312,65.286a1.5,1.5,0,1,0,1.5-1.5A1.5,1.5,0,0,0,1820.312,65.286Z" fill="#401467"/><path d="M2102.947,74.555a1.6,1.6,0,0,1-1.131,2.731h-12.8a1.6,1.6,0,0,1,0-3.2h12.8A1.6,1.6,0,0,1,2102.947,74.555Z" fill="#401467"/><path d="M2106.148,68.155a1.6,1.6,0,0,1-1.132,2.731h-12.8a1.6,1.6,0,1,1,0-3.2h12.8A1.6,1.6,0,0,1,2106.148,68.155Z" fill="#401467"/><path d="M2109.348,61.755a1.6,1.6,0,0,1-1.131,2.731h-12.8a1.6,1.6,0,0,1,0-3.2h12.8A1.6,1.6,0,0,1,2109.348,61.755Z" fill="#401467"/><path d="M2290.619,213.552a8,8,0,1,0,8-8A8,8,0,0,0,2290.619,213.552Z" fill="#401467"/><path d="M2342.024,140.287h-16v6h16Z" fill="#401467"/><path d="M2381.636,176.677a1.332,1.332,0,0,1,.39.942v13.333a1.333,1.333,0,0,1-1.333,1.334h-13.335a1.335,1.335,0,0,1-1.334-1.334V177.619a1.335,1.335,0,0,1,1.334-1.333h13.335A1.331,1.331,0,0,1,2381.636,176.677Zm-12.945,12.942h10.668V178.953h-10.668Z" fill="#401467"/><path d="M2452.467,55.534,2461.8,62.2a1.333,1.333,0,0,1,0,2.17l-9.334,6.667a1.335,1.335,0,0,1-1.55,0l-9.334-6.667a1.333,1.333,0,0,1,0-2.17l9.334-6.667a1.335,1.335,0,0,1,1.55,0Zm-.775,12.78,7.04-5.028-7.04-5.028-7.039,5.028Z" fill="#401467"/><path d="M2457.68,224.631a8,8,0,1,1-5.655-2.345A8.009,8.009,0,0,1,2457.68,224.631Zm-1.616,9.693a5.709,5.709,0,1,0-4.039,1.676A5.717,5.717,0,0,0,2456.064,234.324Z" fill="#401467"/><path d="M2457.322,180.516l2.325,1.993a.991.991,0,0,1,.256.305.977.977,0,0,1,.116.38.989.989,0,0,1-.235.744,1,1,0,0,1-.7.346.992.992,0,0,1-.735-.263l-1.677-1.436L2455,184.021a.993.993,0,0,1-1.3,0l-1.677-1.436-1.677,1.436a.993.993,0,0,1-1.3,0l-1.678-1.436-1.677,1.436a.992.992,0,0,1-.735.263.994.994,0,0,1-.933-1.09.977.977,0,0,1,.116-.38.991.991,0,0,1,.256-.305l2.325-1.993a1,1,0,0,1,1.3,0l1.678,1.437,1.677-1.437a1,1,0,0,1,1.3,0l1.677,1.437,1.678-1.437a.993.993,0,0,1,1.3,0Z" fill="#401467"/><path d="M2423.506,97.286h-18.482l9.241,16Z" fill="#401467"/><path d="M2260.05,79.335l6.858,6.857a1.142,1.142,0,0,1,0,1.616l-6.858,6.857a1.142,1.142,0,0,1-1.616,0l-6.858-6.857a1.142,1.142,0,0,1,0-1.616l6.858-6.857a1.142,1.142,0,0,1,1.616,0Zm-.808,12.906L2264.484,87l-5.242-5.241L2254,87Z" fill="#401467"/><path d="M2301.51,19.46a1.3,1.3,0,0,1,.475,1.769l-7.772,13.456a1.349,1.349,0,0,1-2.244,0L2284.2,21.229a1.3,1.3,0,0,1,1.121-1.943h15.544A1.289,1.289,0,0,1,2301.51,19.46Zm-8.419,11.988,5.528-9.572h-11.056Z" fill="#401467"/><path d="M2243.263,161.716a4.27,4.27,0,1,1-3.018-1.249A4.269,4.269,0,0,1,2243.263,161.716Zm-1.509,4.526a2.133,2.133,0,1,0-1.509.625A2.134,2.134,0,0,0,2241.754,166.242Z" fill="#401467"/><path d="M2241,153.312a1.07,1.07,0,0,1,.312.755v6.4a1.067,1.067,0,0,1-2.134,0v-6.4a1.068,1.068,0,0,1,1.822-.755Z" fill="#401467"/><path d="M2483.024,151.286v-5h11v-11h5v16Z" fill="#401467"/><path d="M2373.585,70.225a1.5,1.5,0,0,1,.439,1.061v4.5a1.5,1.5,0,1,1-3,0v-4.5a1.5,1.5,0,0,1,2.561-1.061Z" fill="#401467"/><path d="M2373.585,53.725a1.5,1.5,0,0,1,.439,1.061v4.5a1.5,1.5,0,1,1-3,0v-4.5a1.5,1.5,0,0,1,2.561-1.061Z" fill="#401467"/><path d="M2371.024,65.286a1.5,1.5,0,1,0,1.5-1.5A1.5,1.5,0,0,0,2371.024,65.286Z" fill="#401467"/><path d="M1529.817,205.552a8,8,0,1,0,8-8A8,8,0,0,0,1529.817,205.552Z" fill="#401467"/><path d="M2431.506,8h-16v6h16Z" fill="#401467"/><path d="M2188.945,113.891a1.332,1.332,0,0,1,.39.942v13.334A1.333,1.333,0,0,1,2188,129.5h-13.335a1.335,1.335,0,0,1-1.334-1.333V114.833a1.335,1.335,0,0,1,1.334-1.333H2188A1.331,1.331,0,0,1,2188.945,113.891ZM2176,126.833h10.668V116.167H2176Z" fill="#401467"/><path d="M1115.447,85.286v-5h11v-11h5v16Z" fill="#401467"/><path d="M1034.228,156.225a1.5,1.5,0,0,1,.439,1.061v4.5a1.5,1.5,0,1,1-3,0v-4.5a1.5,1.5,0,0,1,2.561-1.061Z" fill="#401467"/><path d="M1034.228,139.725a1.5,1.5,0,0,1,.439,1.061v4.5a1.5,1.5,0,1,1-3,0v-4.5a1.5,1.5,0,0,1,2.561-1.061Z" fill="#401467"/><path d="M1031.667,151.286a1.5,1.5,0,1,0,1.5-1.5A1.5,1.5,0,0,0,1031.667,151.286Z" fill="#401467"/><g clip-path="url(#a)"><ellipse cx="1920.134" cy="300.37" rx="137.492" ry="136.944" fill="#002e65"/><path d="M1953.62,237.131l-48.5,115.538h-19.566l48.284-115.538Z" fill="#002050"/></g></svg>