<svg xmlns="http://www.w3.org/2000/svg" xmlns:xlink="http://www.w3.org/1999/xlink" viewBox="0 0 2500 250"><defs><clipPath id="a"><rect x="-2519" width="2500" height="250" fill="none"/></clipPath><clipPath id="b"><rect x="-2520" y="269.972" width="2500.046" height="250.028" fill="none"/></clipPath></defs><title>banner-mix-1-gray</title><g clip-path="url(#a)"><path d="M-2456-173.864c656-131,802-158,908,0s251,273,423,175c228.562-130.228,351-339,599-357,472.613-34.3,592,242,751,383" fill="none" stroke="#0060c4" stroke-miterlimit="10"/><path d="M-2459.938-162.842c648.376-126.437,785.063-143.647,909.813,8.79S-1281.188,96.261-1105.719-1.458c228.5-127.932,358.293-319.509,601.281-332.094,453.794-23.5,579,232.375,728.063,364.563" fill="none" stroke="#005ec2" stroke-miterlimit="10"/><path d="M-2463.875-151.819c640.75-121.875,768.125-129.295,911.625,17.58s287.08,228,465.812,130.187C-857.744-129.208-720.93-304.143-482.875-311.239-48.018-324.2,83.125-88.489,222.25,34.886" fill="none" stroke="#005cc1" stroke-miterlimit="10"/><path d="M-2467.812-140.8c633.124-117.313,751.187-114.943,913.437,26.369s305.1,205.466,487.219,107.781c228.72-122.678,372.644-280.761,605.844-282.281C-45.5-291.637,91.688-75.8,220.875,38.761" fill="none" stroke="#0059bf" stroke-miterlimit="10"/><path d="M-2471.75-129.773c625.5-112.75,734.25-100.591,915.25,35.159s323.094,182.906,508.625,85.375C-819.151-129.477-668.17-270.777-439.75-266.614c396.651,7.229,540,203.5,659.25,309.25" fill="none" stroke="#0057bd" stroke-miterlimit="10"/><path d="M-2475.688-118.751c617.876-108.187,717.313-86.238,917.063,43.949s341.077,160.322,530.031,62.969C-799.889-129.666-641.9-254.274-418.188-244.3c377.4,16.823,527,193.875,636.313,290.813" fill="none" stroke="#0055bc" stroke-miterlimit="10"/><path d="M-2479.625-107.728c610.25-103.625,700.375-71.886,918.875,52.739s359.044,137.71,551.438,40.562C-780.646-129.891-615.7-237.922-396.625-221.989c358.064,26.041,514,184.25,613.375,272.375" fill="none" stroke="#0052ba" stroke-miterlimit="10"/><path d="M-2483.562-96.7c602.624-99.062,683.437-57.534,920.687,61.528s377,115.072,572.844,18.156C-761.421-130.15-589.544-221.75-375.062-199.677c338.666,34.853,501,174.625,590.437,253.938" fill="none" stroke="#0050b8" stroke-miterlimit="10"/><path d="M-2487.5-85.682c595-94.5,666.5-43.182,922.5,70.318s394.937,92.405,594.25-4.25c228.537-110.828,407.32-186.177,617.25-157.75,319.233,43.227,488,165,567.5,235.5" fill="none" stroke="#004eb7" stroke-miterlimit="10"/><path d="M-2491.438-74.659c587.376-89.938,649.563-28.83,924.313,79.107s412.862,69.711,615.656-26.656c228.448-108.558,414.142-167.878,619.531-132.844,299.8,51.138,475,155.375,544.563,217.063" fill="none" stroke="#004cb5" stroke-miterlimit="10"/><path d="M-2495.375-63.637c579.75-85.375,632.625-14.477,926.125,87.9S-1138.476,71.248-932.188-24.8c228.345-106.32,420.984-149.88,621.813-107.937,280.4,58.561,462,145.75,521.625,198.625" fill="none" stroke="#004ab3" stroke-miterlimit="10"/><path d="M-2499.312-52.614c572.124-80.812,615.687-.125,927.937,96.687S-1122.7,68.307-912.906-27.4c228.228-104.112,427.894-132.235,624.094-83.031C-27.706-44.945,160.188,25.7,209.875,69.761" fill="none" stroke="#0047b1" stroke-miterlimit="10"/><path d="M-2503.25-41.591c564.5-76.25,598.75,14.227,929.75,105.477s466.562,1.45,679.875-93.875c228.1-101.934,434.936-115,626.375-58.125,241.973,71.894,436,126.5,475.75,161.75" fill="none" stroke="#0045b0" stroke-miterlimit="10"/><path d="M-2507.188-30.568c556.876-71.688,581.813,28.579,931.563,114.266s484.438-21.364,701.281-116.281C-646.38-132.368-432.151-130.835-245.688-65.8-22.6,12.005,177.312,51.073,207.125,77.511" fill="none" stroke="#0043ae" stroke-miterlimit="10"/><path d="M-2511.125-19.546c549.25-67.125,564.875,42.932,933.375,123.057s502.125-44.625,722.688-138.688c227.632-98.091,449.773-82.045,630.937-8.312,204.55,83.25,410,107.25,429.875,124.875" fill="none" stroke="#0041ac" stroke-miterlimit="10"/><path d="M-2515.062-8.523c541.624-62.562,547.937,57.284,935.187,131.846s520.063-67.312,744.094-161.094c227.566-95.795,457.818-66.446,633.219,16.594,186.476,88.284,397,97.625,406.937,106.438" fill="none" stroke="#003eab" stroke-miterlimit="10"/><path d="M-2519,2.5c534-58,531,71.636,937,140.636s538-90,765.5-183.5S-350-91.864-181,1.136s384,88,384,88" fill="none" stroke="#003ca9" stroke-miterlimit="10"/></g><rect width="2500" height="250" fill="#282828"/><path d="M946,56.544A59.748,59.748,0,0,1,988.017,73.79a59.382,59.382,0,0,1,15.272,26.036,57.7,57.7,0,0,1,2.111,15.656,54.521,54.521,0,0,1-4.639,22.52,61.505,61.505,0,0,1-13.246,18.837,49.992,49.992,0,0,0-10.8,15.32A45.056,45.056,0,0,0,973,190.494v21.432a15.673,15.673,0,0,1-1.264,6.279,16.062,16.062,0,0,1-8.607,8.539A15.992,15.992,0,0,1,956.8,228H935.2a15.992,15.992,0,0,1-6.329-1.256,16.062,16.062,0,0,1-8.607-8.539A15.673,15.673,0,0,1,919,211.926V190.494a44.231,44.231,0,0,0-3.8-18.335,48.821,48.821,0,0,0-10.719-15.32A61.505,61.505,0,0,1,891.239,138a54.521,54.521,0,0,1-4.639-22.52,58.047,58.047,0,0,1,8.1-29.72,58.422,58.422,0,0,1,9.283-11.972,59.68,59.68,0,0,1,11.982-9.209,60.456,60.456,0,0,1,14.256-5.944A59.155,59.155,0,0,1,946,56.544ZM956.667,218a5.164,5.164,0,0,0,3.749-1.559A5,5,0,0,0,962,212.75V197H930v15.75a5,5,0,0,0,1.584,3.691A5.164,5.164,0,0,0,935.333,218Zm5.766-32a55.35,55.35,0,0,1,5.524-19.59A65,65,0,0,1,979.927,150a51.492,51.492,0,0,0,10.635-15.32,44.142,44.142,0,0,0,3.767-18.335,46.242,46.242,0,0,0-3.852-18.753A47.972,47.972,0,0,0,964.86,71.975a47.586,47.586,0,0,0-37.506,0,48.338,48.338,0,0,0-15.318,10.3,49.5,49.5,0,0,0-10.384,15.321,47.076,47.076,0,0,0-3.767,18.753,44.974,44.974,0,0,0,3.686,18.335A52.845,52.845,0,0,0,912.287,150a64.979,64.979,0,0,1,11.97,16.409A55.35,55.35,0,0,1,929.781,186Z" fill="#3c3c3c"/><path d="M1192.009,220h-17.93l8.965-17.93Z" fill="#323232"/><path d="M1113,120h22v41h-72V120h23v-9h27Zm-23-5v5h18v-5Zm41,10h-63v9h13v-5h5v5h26v-5h5v5h14Zm-63,31h63V138h-14v5h-5v-5h-26v5h-5v-5h-13Z" fill="#323232"/><path d="M1079,67.227l-.074.178a5.337,5.337,0,0,1,0,2.156l.074.177,9.037,5.618L1082.49,88.72l-10.363-2.373q-.838.908-1.744,1.744l2.371,10.363L1059.391,104l-5.618-9.037a5.775,5.775,0,0,0-.628.035h-1.255a5.756,5.756,0,0,0-.627-.035L1045.644,104l-13.362-5.548,2.371-10.363q-.908-.837-1.744-1.744l-10.364,2.373L1017,75.356l9.038-5.617a6.028,6.028,0,0,0-.036-.629V67.855a6.028,6.028,0,0,0,.036-.629L1017,61.609l5.547-13.363,10.364,2.372q.837-.908,1.744-1.744l-2.371-10.363,13.362-5.548L1051.263,42l.166.072a5.6,5.6,0,0,1,2.178,0l.166-.072,5.618-9.037,13.363,5.548-2.371,10.363q.908.837,1.744,1.744l10.363-2.372,5.547,13.363Zm-4.064,4.032q.071-.833.14-1.633c.047-.555.069-1.111.069-1.667,0-.533-.022-1.077-.069-1.633s-.093-1.1-.14-1.633l8.2-5.107-2.989-7.227-9.414,2.189a28.369,28.369,0,0,0-2.224-2.432q-1.113-1.113-2.432-2.224l2.188-9.416-7.227-2.987-5.141,8.2q-.8-.069-1.634-.139c-.556-.046-1.1-.069-1.632-.069q-.834,0-1.668.069c-.534.046-1.076.093-1.632.139l-5.108-8.2L1037,40.476l2.189,9.416a28.357,28.357,0,0,0-2.433,2.224q-1.111,1.111-2.224,2.432l-9.414-2.189-2.989,7.227,8.2,5.141-.14,1.668c-.047.533-.069,1.077-.069,1.633,0,.533.022,1.077.069,1.633s.093,1.1.14,1.633l-8.2,5.107,2.989,7.227,9.414-2.189a32.224,32.224,0,0,0,2.191,2.432q1.146,1.113,2.466,2.224L1037,95.51l7.227,2.988,5.141-8.2,1.634.139c.556.046,1.1.069,1.633.069.555,0,1.1-.023,1.632-.069l1.667-.139,5.108,8.2,7.227-2.988-2.188-9.415a32.624,32.624,0,0,0,2.432-2.189q1.111-1.146,2.224-2.467l9.414,2.189,2.989-7.227Zm-22.3-16.329a12.426,12.426,0,0,1,5.072,1.042,12.776,12.776,0,0,1,6.948,6.949,12.407,12.407,0,0,1,1.043,5.072,12.656,12.656,0,0,1-1.043,5.108,12.949,12.949,0,0,1-2.779,4.134,13.358,13.358,0,0,1-4.169,2.814,12.792,12.792,0,0,1-5.072,1.008,13.05,13.05,0,0,1-5.108-1.008,13.4,13.4,0,0,1-6.949-6.948,13.064,13.064,0,0,1-1.007-5.108,12.806,12.806,0,0,1,1.007-5.072,13.36,13.36,0,0,1,2.815-4.169,13,13,0,0,1,4.134-2.78A12.676,12.676,0,0,1,1052.632,54.93Zm0,22.236a9.2,9.2,0,0,0,3.577-.695,9.443,9.443,0,0,0,2.92-1.98,8.949,8.949,0,0,0,1.946-2.919,9.148,9.148,0,0,0,0-7.157,8.936,8.936,0,0,0-4.866-4.864,9.131,9.131,0,0,0-7.155,0,8.951,8.951,0,0,0-2.92,1.945,9.4,9.4,0,0,0-1.979,2.919,9.547,9.547,0,0,0,0,7.157,9.359,9.359,0,0,0,4.9,4.9A9.209,9.209,0,0,0,1052.632,77.166Z" fill="#323232"/><path d="M1054,207h-14.808a14.3,14.3,0,0,1-5.255-.982,14.522,14.522,0,0,1-4.429-2.742,15.3,15.3,0,0,1-3.272-4.13A15.148,15.148,0,0,1,1024.55,194H999v-4h25.55a15.179,15.179,0,0,1,1.686-5.181,16.061,16.061,0,0,1,3.272-4.129,14.884,14.884,0,0,1,4.429-2.708,14.3,14.3,0,0,1,5.255-.982H1054v4h13v4h-13v13h13v4h-13Zm-4-5V181h-10.5a10.387,10.387,0,0,0-4.1.821,10.252,10.252,0,0,0-5.578,5.578,10.389,10.389,0,0,0-.82,4.1,10.176,10.176,0,0,0,.82,4.07,10.54,10.54,0,0,0,2.232,3.314,10.687,10.687,0,0,0,3.346,2.263,10.057,10.057,0,0,0,4.1.853Z" fill="#323232"/><path d="M640.126,204q-.507,1.9-1.044,3.566a26.731,26.731,0,0,1-1.208,3.243,17.946,17.946,0,0,1-1.715,3,19.236,19.236,0,0,1-2.413,2.9,21.834,21.834,0,0,1-9.892,5.657,21.437,21.437,0,0,1-5.551.722,22.478,22.478,0,0,1-5.576-.7,22.821,22.821,0,0,1-5.256-2.144,21.727,21.727,0,0,1-4.61-3.539c-.412-.412-.814-.848-1.207-1.313-.375-.448-.734-.913-1.072-1.4H553.99a12.647,12.647,0,0,1-5.008-1.014,12.924,12.924,0,0,1-4.188-2.818,12.7,12.7,0,0,1-2.846-4.269,13.005,13.005,0,0,1,0-9.8,12.7,12.7,0,0,1,2.846-4.269,12.924,12.924,0,0,1,4.188-2.818A12.647,12.647,0,0,1,553.99,188h46.592c.338-.482.7-.947,1.072-1.4.393-.465.795-.9,1.207-1.313a21.727,21.727,0,0,1,4.61-3.539,22.821,22.821,0,0,1,5.256-2.144,22.478,22.478,0,0,1,5.576-.7,21.437,21.437,0,0,1,5.551.722,21.834,21.834,0,0,1,9.892,5.657,19.236,19.236,0,0,1,2.413,2.9,17.946,17.946,0,0,1,1.715,3,26.731,26.731,0,0,1,1.208,3.243q.535,1.664,1.044,3.566H619v6ZM605.5,213.328a17.239,17.239,0,0,0,5.878,3.909,18.347,18.347,0,0,0,6.694,1.294,18.029,18.029,0,0,0,6.694-1.294,17.151,17.151,0,0,0,5.933-3.909,21.482,21.482,0,0,0,3.29-4.328H614V193h19.986a14.91,14.91,0,0,0-3.29-4.872,17.151,17.151,0,0,0-5.933-3.909,18.029,18.029,0,0,0-6.694-1.294,18.347,18.347,0,0,0-6.694,1.294,17.239,17.239,0,0,0-5.878,3.909,14.932,14.932,0,0,0-1.743,2.081A29.021,29.021,0,0,0,602.289,193l-48.5.026a7.517,7.517,0,0,0-2.862.563,7.512,7.512,0,0,0-4.088,4.088,7.764,7.764,0,0,0,0,5.672,7.518,7.518,0,0,0,4.089,4.088,7.517,7.517,0,0,0,2.862.563h48.5a25.333,25.333,0,0,0,1.465,3.247A14.932,14.932,0,0,0,605.5,213.328Z" fill="#323232"/><path d="M766.938,11A24.023,24.023,0,0,1,791,35.062,23.847,23.847,0,0,1,787.719,47.2a24.572,24.572,0,0,1-8.647,8.647,24.114,24.114,0,0,1-20.338,1.846,24.637,24.637,0,0,1-7.177-4.137l-26.832,26.8a2.174,2.174,0,1,1-3.075-3.075l26.8-26.832a24.637,24.637,0,0,1-4.137-7.177,24,24,0,0,1,1.846-20.338,24.572,24.572,0,0,1,8.647-8.647A23.847,23.847,0,0,1,766.938,11Zm0,43.75a19.218,19.218,0,0,0,7.656-1.538,20.2,20.2,0,0,0,6.254-4.239,19.728,19.728,0,0,0,4.2-6.254,19.42,19.42,0,0,0,0-15.313,19.587,19.587,0,0,0-10.458-10.458,19.42,19.42,0,0,0-15.313,0,19.728,19.728,0,0,0-6.254,4.2,20.2,20.2,0,0,0-4.239,6.254,19.827,19.827,0,0,0,0,15.313,20.031,20.031,0,0,0,10.493,10.493A19.219,19.219,0,0,0,766.938,54.75Z" fill="#323232"/><path d="M2114.466,151.227a9.831,9.831,0,0,1,3.793.907,9.384,9.384,0,0,1,3.121,2.175,10.038,10.038,0,0,1,2.1,3.2,9.76,9.76,0,0,1-.041,7.783,10.2,10.2,0,0,1-2.174,3.2,10.585,10.585,0,0,1-3.2,2.175,10.187,10.187,0,0,1-7.862,0,10.322,10.322,0,0,1-5.376-5.376,9.986,9.986,0,0,1-.789-3.95,10.1,10.1,0,0,1,1.422-5.214,9.918,9.918,0,0,1,3.952-3.714L2098.9,131.432l-10.472,20.9a10.007,10.007,0,0,1,2.253,1.619,9.535,9.535,0,0,1,1.738,2.134,10.769,10.769,0,0,1,1.107,2.528,9.366,9.366,0,0,1,.395,2.726,9.551,9.551,0,0,1-.83,3.95,10.2,10.2,0,0,1-2.174,3.2,10.6,10.6,0,0,1-3.2,2.175,10.187,10.187,0,0,1-7.862,0,10.322,10.322,0,0,1-5.376-5.376,9.986,9.986,0,0,1-.789-3.95,9.666,9.666,0,0,1,.751-3.793,9.954,9.954,0,0,1,2.054-3.16,10.146,10.146,0,0,1,3.042-2.213,10.286,10.286,0,0,1,3.793-.948l12.724-25.525-13.394-26.789L2084.952,92l13.948,27.975L2112.845,92l2.294,6.913L2101.744,125.7Zm-30.66,15.172a4.9,4.9,0,0,0,1.975-.4,5.034,5.034,0,0,0,1.58-1.067,5.18,5.18,0,0,0,1.108-1.621,5.147,5.147,0,0,0,0-3.95,5.579,5.579,0,0,0-2.688-2.688,5.147,5.147,0,0,0-3.95,0,5.209,5.209,0,0,0-1.621,1.108,5.074,5.074,0,0,0-1.067,1.58,5.147,5.147,0,0,0,0,3.95,4.807,4.807,0,0,0,2.688,2.688A4.9,4.9,0,0,0,2083.806,166.4Zm30.344,0a4.9,4.9,0,0,0,1.975-.4,5.034,5.034,0,0,0,1.58-1.067,5.18,5.18,0,0,0,1.108-1.621,5.135,5.135,0,0,0,0-3.95,5.579,5.579,0,0,0-2.688-2.688,5.147,5.147,0,0,0-3.95,0,5.209,5.209,0,0,0-1.621,1.108,5.074,5.074,0,0,0-1.067,1.58,5.147,5.147,0,0,0,0,3.95,4.807,4.807,0,0,0,2.688,2.688A4.906,4.906,0,0,0,2114.15,166.4Z" fill="#323232"/><path d="M890,178.346a3.17,3.17,0,0,0,0-.711v-.356l5.115-3.18-3.139-7.564-5.867,1.343q-.474-.513-.987-.987l1.342-5.866-7.563-3.14L875.72,163h-.355a3.161,3.161,0,0,0-.71,0H874.3l-3.181-5.115-7.563,3.14,1.342,5.866q-.513.474-.987.987l-5.866-1.343-3.14,7.564,5.115,3.18a3.267,3.267,0,0,1-.02.356v.711a3.249,3.249,0,0,1,.02.355l-5.115,3.18,3.14,7.564,5.866-1.343q.474.513.987.987l-1.342,5.866,7.563,3.14,3.181-5.115a3.277,3.277,0,0,1,.355.02h.71a3.277,3.277,0,0,1,.355-.02L878.9,198.1l7.563-3.14-1.342-5.866q.515-.474.987-.987l5.867,1.343,3.139-7.564L890,178.7Zm-8.454,2.065a7.26,7.26,0,0,1-1.557,2.316,7.489,7.489,0,0,1-2.335,1.576,7.173,7.173,0,0,1-2.842.564,7.319,7.319,0,0,1-2.861-.564,7.508,7.508,0,0,1-3.892-3.892,7.316,7.316,0,0,1-.565-2.861,7.174,7.174,0,0,1,.565-2.842,7.475,7.475,0,0,1,1.577-2.335,7.261,7.261,0,0,1,2.315-1.557,7.091,7.091,0,0,1,2.861-.584,6.95,6.95,0,0,1,2.842.584,7.159,7.159,0,0,1,3.892,3.892,6.95,6.95,0,0,1,.584,2.842A7.087,7.087,0,0,1,881.546,180.411Z" fill="#323232"/><path d="M858.468,89.125a6.7,6.7,0,0,1,2.657.527,6.908,6.908,0,0,1,2.2,1.451,6.768,6.768,0,0,1,1.477,2.162,6.386,6.386,0,0,1,.536,2.61,6.576,6.576,0,0,1-.536,2.637,6.88,6.88,0,0,1-3.677,3.586,6.947,6.947,0,0,1-5.179.052,7.418,7.418,0,0,1-2.122-1.292,7.329,7.329,0,0,1-1.5-1.951,6.357,6.357,0,0,1-.7-2.452L847.6,95.8a10.252,10.252,0,0,1-4.912,5.643l1.558,4.587a1.306,1.306,0,0,1,.241-.026h.241a6.711,6.711,0,0,1,2.658.527,6.908,6.908,0,0,1,2.2,1.451,6.73,6.73,0,0,1,1.475,2.162,6.37,6.37,0,0,1,.537,2.61,6.559,6.559,0,0,1-.537,2.637,6.826,6.826,0,0,1-1.475,2.135,6.908,6.908,0,0,1-2.2,1.451,6.711,6.711,0,0,1-2.658.527,6.891,6.891,0,0,1-2.683-.527,7,7,0,0,1-2.174-1.451,6.863,6.863,0,0,1-1.476-2.135,6.739,6.739,0,0,1,.295-5.88A6.866,6.866,0,0,1,841,107.081l-1.558-4.588-.778.106q-.4.025-.805.026a10.259,10.259,0,0,1-8.319-4.14l-5.582,2.716a6.4,6.4,0,0,1,.16,1.424,6.559,6.559,0,0,1-.537,2.637,6.84,6.84,0,0,1-1.474,2.135,6.924,6.924,0,0,1-2.2,1.451,6.708,6.708,0,0,1-2.658.527,6.891,6.891,0,0,1-2.683-.527,6.98,6.98,0,0,1-2.173-1.451,6.849,6.849,0,0,1-1.477-2.135,6.559,6.559,0,0,1-.537-2.637,6.37,6.37,0,0,1,.537-2.61,6.752,6.752,0,0,1,1.477-2.162,6.98,6.98,0,0,1,2.173-1.451,6.948,6.948,0,0,1,7.862,1.793l5.582-2.742a9.945,9.945,0,0,1,.216-6.565,9.838,9.838,0,0,1,1.958-3.138l-3.247-3.981a6.969,6.969,0,0,1-5.5.079,6.973,6.973,0,0,1-2.174-1.451,6.863,6.863,0,0,1-1.476-2.135,6.559,6.559,0,0,1-.537-2.637,6.37,6.37,0,0,1,.537-2.61,6.765,6.765,0,0,1,1.476-2.162,6.973,6.973,0,0,1,2.174-1.451,6.891,6.891,0,0,1,2.683-.527,6.711,6.711,0,0,1,2.658.527,6.908,6.908,0,0,1,2.2,1.451,6.8,6.8,0,0,1,1.477,2.162,6.369,6.369,0,0,1,.536,2.61,6.488,6.488,0,0,1-1.368,4.034l3.22,3.982a10.806,10.806,0,0,1,2.415-.923,10.054,10.054,0,0,1,2.6-.343,10.392,10.392,0,0,1,4.214.87l4.4-6.486a6.819,6.819,0,0,1-1.289-2.083,6.575,6.575,0,0,1-.456-2.426,6.37,6.37,0,0,1,.537-2.61,6.765,6.765,0,0,1,1.476-2.162,6.973,6.973,0,0,1,2.174-1.451A6.891,6.891,0,0,1,851.6,65.5a6.711,6.711,0,0,1,2.658.527,6.908,6.908,0,0,1,2.2,1.451,6.8,6.8,0,0,1,1.477,2.162,6.369,6.369,0,0,1,.536,2.61,6.559,6.559,0,0,1-.536,2.637,6.88,6.88,0,0,1-3.677,3.586A6.711,6.711,0,0,1,851.6,79a7.223,7.223,0,0,1-2.255-.369l-4.428,6.513a9.716,9.716,0,0,1,2.39,3.348,9.564,9.564,0,0,1,.859,3.982l4.025.659a6.551,6.551,0,0,1,1.046-1.635,6.659,6.659,0,0,1,1.476-1.266,7.377,7.377,0,0,1,1.772-.817A6.876,6.876,0,0,1,858.468,89.125ZM851.6,68.875a3.379,3.379,0,0,0-1.342.264,3.54,3.54,0,0,0-1.1.738,3.377,3.377,0,0,0-.724,1.055,3.375,3.375,0,0,0,0,2.636,3.707,3.707,0,0,0,.724,1.081,3.782,3.782,0,0,0,1.1.712,3.545,3.545,0,0,0,2.685,0,3.467,3.467,0,0,0,1.824-1.793,3.248,3.248,0,0,0-.751-3.691,3.251,3.251,0,0,0-1.073-.738A3.38,3.38,0,0,0,851.6,68.875ZM817.246,106a3.379,3.379,0,0,0,1.342-.264,3.42,3.42,0,0,0,1.073-.712,3.471,3.471,0,0,0,.753-1.081,3.375,3.375,0,0,0,0-2.636,3.748,3.748,0,0,0-1.826-1.793,3.54,3.54,0,0,0-2.683,0,3.527,3.527,0,0,0-1.1.738,3.394,3.394,0,0,0-.724,1.055,3.352,3.352,0,0,0,0,2.636,3.727,3.727,0,0,0,.724,1.081,3.787,3.787,0,0,0,1.1.712A3.374,3.374,0,0,0,817.246,106Zm30.917,6.75a3.232,3.232,0,0,0-.268-1.318,3.18,3.18,0,0,0-.753-1.055,3.216,3.216,0,0,0-1.073-.738,3.54,3.54,0,0,0-2.683,0,3.527,3.527,0,0,0-1.1.738,3.394,3.394,0,0,0-.724,1.055,3.352,3.352,0,0,0,0,2.636,3.727,3.727,0,0,0,.724,1.081,3.787,3.787,0,0,0,1.1.712,3.54,3.54,0,0,0,2.683,0,3.432,3.432,0,0,0,1.073-.712,3.471,3.471,0,0,0,.753-1.081A3.232,3.232,0,0,0,848.163,112.75ZM820.682,75.625a3.215,3.215,0,0,0,.268,1.318,3.707,3.707,0,0,0,.724,1.081,3.8,3.8,0,0,0,1.1.712,3.545,3.545,0,0,0,2.685,0,3.458,3.458,0,0,0,1.824-1.793,3.25,3.25,0,0,0-.75-3.691,3.265,3.265,0,0,0-1.074-.738,3.545,3.545,0,0,0-2.685,0,3.552,3.552,0,0,0-1.1.738,3.377,3.377,0,0,0-.724,1.055A3.215,3.215,0,0,0,820.682,75.625ZM837.857,99.25a6.687,6.687,0,0,0,2.656-.527,6.871,6.871,0,0,0,3.677-3.586,6.559,6.559,0,0,0,.537-2.637,6.37,6.37,0,0,0-.537-2.61,6.749,6.749,0,0,0-1.476-2.162,6.891,6.891,0,0,0-2.2-1.451,6.687,6.687,0,0,0-2.656-.527,6.9,6.9,0,0,0-2.683.527A6.989,6.989,0,0,0,833,87.728a6.762,6.762,0,0,0-1.475,2.162,6.37,6.37,0,0,0-.537,2.61,6.559,6.559,0,0,0,.537,2.637A6.86,6.86,0,0,0,833,97.272a6.989,6.989,0,0,0,2.175,1.451A6.9,6.9,0,0,0,837.857,99.25Zm20.611,0a3.379,3.379,0,0,0,1.342-.264,3.467,3.467,0,0,0,1.824-1.793,3.375,3.375,0,0,0,0-2.636,3.16,3.16,0,0,0-.751-1.055,3.206,3.206,0,0,0-1.073-.738,3.545,3.545,0,0,0-2.685,0,3.535,3.535,0,0,0-1.1.738,3.377,3.377,0,0,0-.724,1.055,3.375,3.375,0,0,0,0,2.636,3.707,3.707,0,0,0,.724,1.081,3.8,3.8,0,0,0,1.1.712A3.38,3.38,0,0,0,858.468,99.25Z" fill="#323232"/><path d="M893,31V13.07l17.93,8.965Z" fill="#323232"/><path d="M183,61V43.07l17.93,8.965Z" fill="#323232"/><path d="M126,73.926l-.085-.2a6.184,6.184,0,0,0,0-2.484l.085-.2,10.4-6.465-6.384-15.381-11.928,2.731q-.965-1.044-2.008-2.008l2.73-11.926L103.432,31.6,96.965,42l-.189.081a6.579,6.579,0,0,0-2.512,0L94.076,42,87.61,31.6,72.23,37.985l2.729,11.926q-1.044.965-2.007,2.008L61.024,49.188,54.64,64.569l10.4,6.465a6.739,6.739,0,0,1-.041.723V73.2a6.739,6.739,0,0,1,.041.723l-10.4,6.465,6.384,15.381,11.928-2.731q.965,1.044,2.007,2.007L72.23,106.976l15.38,6.385,6.466-10.4a6.5,6.5,0,0,1,.722.04h1.444a6.528,6.528,0,0,1,.723-.04l6.467,10.4,15.379-6.385-2.73-11.928q1.046-.963,2.008-2.007l11.928,2.731L136.4,80.391Zm-16.065,4.356a15.035,15.035,0,0,1-3.223,4.793,15.491,15.491,0,0,1-4.832,3.263A14.843,14.843,0,0,1,96,87.505a15.143,15.143,0,0,1-5.921-1.167,15.541,15.541,0,0,1-8.055-8.056,15.135,15.135,0,0,1-1.168-5.92,14.836,14.836,0,0,1,1.168-5.88,15.506,15.506,0,0,1,3.263-4.834,15.077,15.077,0,0,1,4.792-3.222A14.7,14.7,0,0,1,96,57.218a14.413,14.413,0,0,1,5.88,1.208,14.815,14.815,0,0,1,8.055,8.056,14.374,14.374,0,0,1,1.208,5.88A14.662,14.662,0,0,1,109.935,78.282Z" fill="#3c3c3c"/><path d="M222.438,153.5a24.047,24.047,0,0,1,20.781,36.2,24.572,24.572,0,0,1-8.647,8.647,24.114,24.114,0,0,1-20.338,1.846,24.637,24.637,0,0,1-7.177-4.137l-26.832,26.8a2.174,2.174,0,1,1-3.075-3.075l26.8-26.832a24.637,24.637,0,0,1-4.137-7.177,24,24,0,0,1,1.846-20.338,24.572,24.572,0,0,1,8.647-8.647,23.847,23.847,0,0,1,12.135-3.281Zm0,43.75a19.218,19.218,0,0,0,7.656-1.538,20.2,20.2,0,0,0,6.254-4.239,19.728,19.728,0,0,0,4.2-6.254,19.42,19.42,0,0,0,0-15.313,19.587,19.587,0,0,0-10.458-10.458,19.42,19.42,0,0,0-15.313,0,19.728,19.728,0,0,0-6.254,4.2,20.2,20.2,0,0,0-4.239,6.254,19.827,19.827,0,0,0,0,15.313,20.031,20.031,0,0,0,10.493,10.493A19.219,19.219,0,0,0,222.438,197.25Z" fill="#323232"/><path d="M314.009,225h-17.93l8.965-17.93Z" fill="#323232"/><rect x="464" y="15" width="20" height="20" fill="#3c3c3c"/><rect x="127" y="192" width="24" height="24" fill="#323232"/><rect x="684" y="162" width="20" height="20" fill="#323232"/><path d="M1798,81.839q1.9.532,3.566,1.094a26.14,26.14,0,0,1,3.243,1.268,17.654,17.654,0,0,1,3,1.8,19.446,19.446,0,0,1,2.9,2.53,22.106,22.106,0,0,1,3.539,4.894,22.645,22.645,0,0,1,2.118,5.483,23.529,23.529,0,0,1,.722,5.823,23.443,23.443,0,0,1-2.84,11.363,22.71,22.71,0,0,1-3.539,4.836c-.412.432-.848.853-1.313,1.266q-.672.591-1.395,1.125v45.064a13.131,13.131,0,0,1-1.053,5.2,13.385,13.385,0,0,1-2.927,4.349,13.193,13.193,0,0,1-4.432,2.956,13.506,13.506,0,0,1-10.176,0,13.193,13.193,0,0,1-4.432-2.956,13.385,13.385,0,0,1-2.927-4.349,13.131,13.131,0,0,1-1.053-5.2V123.321q-.8-.532-1.534-1.125c-.512-.413-.991-.834-1.444-1.266a22.946,22.946,0,0,1-3.894-4.836,23.349,23.349,0,0,1-2.358-5.513,22.577,22.577,0,0,1-.766-5.85,22.312,22.312,0,0,1,3.124-11.306,22.3,22.3,0,0,1,3.894-4.894,20.84,20.84,0,0,1,3.186-2.53,19.888,19.888,0,0,1,3.3-1.8,30.468,30.468,0,0,1,3.567-1.268q1.829-.561,3.922-1.094V104h6Zm9.5,35.289a17.239,17.239,0,0,0,3.909-5.878,18.323,18.323,0,0,0,1.294-6.694,18.029,18.029,0,0,0-1.294-6.694,17.16,17.16,0,0,0-3.909-5.933,18.422,18.422,0,0,0-4.5-3.29V109h-17V88.639c-.787.824-2.334,1.922-3.7,3.29a17.149,17.149,0,0,0-3.91,5.933,18.029,18.029,0,0,0-1.294,6.694,18.344,18.344,0,0,0,1.294,6.694,17.228,17.228,0,0,0,3.91,5.878,14.983,14.983,0,0,0,2.08,1.743c.731.507,2.622,1.465,2.622,1.465l.026,48.5a7.517,7.517,0,0,0,.563,2.862,7.518,7.518,0,0,0,4.088,4.089,7.771,7.771,0,0,0,5.672,0,7.518,7.518,0,0,0,4.088-4.089,7.517,7.517,0,0,0,.563-2.862v-48.5a25.13,25.13,0,0,0,3.416-1.465A14.932,14.932,0,0,0,1807.5,117.128Z" fill="#323232"/><path d="M1697,133V115.07l17.93,8.965Z" fill="#323232"/><path d="M1506,41h34v61H1432V41h34V28h40Zm-34-6v7h27V35Zm61,13h-94V61h20V55h7v6h40V55h7v6h20Zm-94,47h94V68h-20v7h-7V68h-41v7h-7V68h-19Z" fill="#323232"/><path d="M1691.438,37.5a24.047,24.047,0,0,1,20.781,36.2,24.572,24.572,0,0,1-8.647,8.647,24.114,24.114,0,0,1-20.338,1.846,24.637,24.637,0,0,1-7.177-4.137l-26.832,26.8a2.174,2.174,0,1,1-3.075-3.075l26.8-26.832a24.637,24.637,0,0,1-4.137-7.177,24,24,0,0,1,1.846-20.338,24.572,24.572,0,0,1,8.647-8.647,23.847,23.847,0,0,1,12.135-3.281Zm0,43.75a19.218,19.218,0,0,0,7.656-1.538,20.2,20.2,0,0,0,6.254-4.239,19.728,19.728,0,0,0,4.2-6.254,19.42,19.42,0,0,0,0-15.313,19.587,19.587,0,0,0-10.458-10.458,19.42,19.42,0,0,0-15.313,0,19.728,19.728,0,0,0-6.254,4.2,20.2,20.2,0,0,0-4.239,6.254,19.827,19.827,0,0,0,0,15.313,20.031,20.031,0,0,0,10.493,10.493A19.219,19.219,0,0,0,1691.438,81.25Z" fill="#323232"/><path d="M1405,43.07V61l-17.93-8.965Z" fill="#323232"/><path d="M1587.413,156.969a10.714,10.714,0,0,1,4.254.844,11.071,11.071,0,0,1,3.525,2.324,10.835,10.835,0,0,1,2.366,3.463,10.217,10.217,0,0,1,.859,4.181,10.517,10.517,0,0,1-.859,4.224,11.007,11.007,0,0,1-5.891,5.744,11.127,11.127,0,0,1-8.295.085,10.836,10.836,0,0,1-5.8-5.2,10.186,10.186,0,0,1-1.119-3.927L1570,167.654a16.418,16.418,0,0,1-7.869,9.039l2.495,7.349a2.041,2.041,0,0,1,.387-.042h.386a10.738,10.738,0,0,1,4.258.845,11.062,11.062,0,0,1,3.525,2.323,10.851,10.851,0,0,1,2.362,3.463,10.217,10.217,0,0,1,.86,4.181,10.514,10.514,0,0,1-.86,4.224,10.982,10.982,0,0,1-5.887,5.744,10.738,10.738,0,0,1-4.258.845,11.026,11.026,0,0,1-4.3-.845,11.159,11.159,0,0,1-3.481-2.323,10.981,10.981,0,0,1-2.366-3.421,10.8,10.8,0,0,1,.473-9.419,11.007,11.007,0,0,1,3.7-3.885l-2.495-7.349q-.6.084-1.246.169-.645.042-1.289.042a16.438,16.438,0,0,1-13.327-6.631l-8.942,4.35a10.248,10.248,0,0,1,.257,2.281,10.512,10.512,0,0,1-.859,4.223,10.96,10.96,0,0,1-2.363,3.421,11.082,11.082,0,0,1-3.525,2.324,10.729,10.729,0,0,1-4.257.844,11.026,11.026,0,0,1-4.3-.844,11.2,11.2,0,0,1-3.482-2.324,10.966,10.966,0,0,1-2.365-3.421,10.513,10.513,0,0,1-.86-4.223,10.222,10.222,0,0,1,.86-4.182,10.855,10.855,0,0,1,2.365-3.463,11.175,11.175,0,0,1,3.482-2.323,11.132,11.132,0,0,1,12.594,2.872l8.942-4.393a15.911,15.911,0,0,1,.346-10.516,15.716,15.716,0,0,1,3.135-5.027l-5.2-6.377a11.163,11.163,0,0,1-8.812.127,11.191,11.191,0,0,1-3.481-2.324,10.969,10.969,0,0,1-2.366-3.421,10.512,10.512,0,0,1-.859-4.223,10.221,10.221,0,0,1,.859-4.182,10.846,10.846,0,0,1,2.366-3.463,11.171,11.171,0,0,1,3.481-2.323,11.026,11.026,0,0,1,4.3-.845,10.734,10.734,0,0,1,4.258.845,11.062,11.062,0,0,1,3.525,2.323,10.908,10.908,0,0,1,2.365,3.463,10.221,10.221,0,0,1,.859,4.182,10.392,10.392,0,0,1-2.192,6.462l5.158,6.378a17.37,17.37,0,0,1,3.868-1.479,16.153,16.153,0,0,1,4.171-.549,16.644,16.644,0,0,1,6.75,1.394l7.049-10.39a10.935,10.935,0,0,1-2.065-3.337,10.546,10.546,0,0,1-.73-3.885,10.219,10.219,0,0,1,.86-4.182,10.844,10.844,0,0,1,2.365-3.463,11.175,11.175,0,0,1,3.482-2.323,11.023,11.023,0,0,1,4.3-.845,10.729,10.729,0,0,1,4.257.845,11.062,11.062,0,0,1,3.525,2.323,10.892,10.892,0,0,1,2.365,3.463,10.219,10.219,0,0,1,.86,4.182,10.513,10.513,0,0,1-.86,4.223,11,11,0,0,1-5.89,5.744,10.729,10.729,0,0,1-4.257.845,11.569,11.569,0,0,1-3.612-.591l-7.093,10.432a15.572,15.572,0,0,1,3.828,5.364,15.318,15.318,0,0,1,1.376,6.378l6.447,1.056a10.518,10.518,0,0,1,1.676-2.619,10.653,10.653,0,0,1,2.365-2.027,11.751,11.751,0,0,1,2.838-1.31A11.021,11.021,0,0,1,1587.413,156.969Zm-11.007-32.438a5.4,5.4,0,0,0-2.149.423,5.656,5.656,0,0,0-1.763,1.182,5.421,5.421,0,0,0-1.159,1.69,5.4,5.4,0,0,0,0,4.223,5.964,5.964,0,0,0,1.159,1.732,6.056,6.056,0,0,0,1.763,1.14,5.675,5.675,0,0,0,4.3,0,5.54,5.54,0,0,0,2.922-2.872,5.205,5.205,0,0,0-1.2-5.913,5.222,5.222,0,0,0-1.72-1.182A5.41,5.41,0,0,0,1576.406,124.531ZM1521.381,184a5.428,5.428,0,0,0,2.149-.422,5.521,5.521,0,0,0,1.719-1.141,5.58,5.58,0,0,0,1.206-1.732,5.411,5.411,0,0,0,0-4.223,5.088,5.088,0,0,0-1.206-1.689,5.17,5.17,0,0,0-1.719-1.183,5.683,5.683,0,0,0-4.3,0,5.67,5.67,0,0,0-1.763,1.183,5.405,5.405,0,0,0-1.159,1.689,5.365,5.365,0,0,0,0,4.223,5.964,5.964,0,0,0,1.159,1.732,6.093,6.093,0,0,0,1.763,1.141A5.424,5.424,0,0,0,1521.381,184Zm49.524,10.812a5.164,5.164,0,0,0-.43-2.111,5.088,5.088,0,0,0-1.206-1.69,5.164,5.164,0,0,0-1.719-1.183,5.683,5.683,0,0,0-4.3,0,5.683,5.683,0,0,0-1.762,1.183,5.424,5.424,0,0,0-1.16,1.69,5.376,5.376,0,0,0,0,4.223,5.967,5.967,0,0,0,1.16,1.732,6.088,6.088,0,0,0,1.762,1.141,5.683,5.683,0,0,0,4.3,0,5.5,5.5,0,0,0,1.719-1.141,5.563,5.563,0,0,0,1.206-1.732A5.166,5.166,0,0,0,1570.905,194.812Zm-44.021-59.468a5.164,5.164,0,0,0,.43,2.111,5.967,5.967,0,0,0,1.16,1.732,6.088,6.088,0,0,0,1.762,1.141,5.69,5.69,0,0,0,4.3,0,5.555,5.555,0,0,0,2.922-2.873,5.2,5.2,0,0,0-1.2-5.913,5.223,5.223,0,0,0-1.719-1.182,5.69,5.69,0,0,0-4.3,0,5.68,5.68,0,0,0-1.762,1.182,5.424,5.424,0,0,0-1.16,1.69A5.169,5.169,0,0,0,1526.884,135.344Zm27.513,37.844a10.713,10.713,0,0,0,4.255-.845,11.01,11.01,0,0,0,5.89-5.744,10.52,10.52,0,0,0,.859-4.224,10.217,10.217,0,0,0-.859-4.181,10.867,10.867,0,0,0-2.366-3.464,11.053,11.053,0,0,0-3.524-2.323,10.713,10.713,0,0,0-4.255-.845,11.026,11.026,0,0,0-4.3.845,11.206,11.206,0,0,0-3.485,2.323,10.856,10.856,0,0,0-2.362,3.464,10.217,10.217,0,0,0-.86,4.181,10.521,10.521,0,0,0,.86,4.224,11,11,0,0,0,2.362,3.421,11.206,11.206,0,0,0,3.485,2.323A11.026,11.026,0,0,0,1554.4,173.188Zm33.016,0a5.411,5.411,0,0,0,2.149-.423,5.5,5.5,0,0,0,1.719-1.14,5.571,5.571,0,0,0,1.2-1.732,5.4,5.4,0,0,0,0-4.223,5.094,5.094,0,0,0-1.2-1.69,5.184,5.184,0,0,0-1.719-1.183,5.69,5.69,0,0,0-4.3,0,5.707,5.707,0,0,0-1.762,1.183,5.407,5.407,0,0,0-1.16,1.69,5.4,5.4,0,0,0,0,4.223,5.947,5.947,0,0,0,1.16,1.732,6.091,6.091,0,0,0,1.762,1.14A5.415,5.415,0,0,0,1587.413,173.188Z" fill="#323232"/><rect x="1601" y="17" width="20" height="20" fill="#323232"/><rect x="1272" y="87" width="24" height="24" fill="#323232"/><rect x="1919" y="193" width="20" height="20" fill="#3c3c3c"/><path d="M2195,86V62.846a22.65,22.65,0,0,1,5.73-15.143,23.6,23.6,0,0,1,6.353-5.116A23.053,23.053,0,0,1,2215,39.951V0h7V39.951a23.1,23.1,0,0,1,7.97,2.636,24.768,24.768,0,0,1,6.353,5.116,23.4,23.4,0,0,1,4.167,6.926,22.691,22.691,0,0,1,1.51,8.217V86h-7v20h-7V86h-19v20h-7V86Zm7-7h33V62.5a16.312,16.312,0,0,0-1.29-6.443,16.1,16.1,0,0,0-8.765-8.763,16.342,16.342,0,0,0-6.445-1.289,16,16,0,0,0-6.395,1.289,16.547,16.547,0,0,0-5.208,3.5,16.778,16.778,0,0,0-3.557,5.258A15.794,15.794,0,0,0,2202,62.5Z" fill="#3c3c3c"/><path d="M2420,56.227l-.074.178a5.337,5.337,0,0,1,0,2.156l.074.177,9.037,5.618L2423.49,77.72l-10.363-2.373q-.838.908-1.744,1.744l2.371,10.363L2400.391,93l-5.618-9.037a5.775,5.775,0,0,0-.628.035h-1.255a5.756,5.756,0,0,0-.627-.035L2386.644,93l-13.362-5.548,2.371-10.363q-.907-.837-1.744-1.744l-10.364,2.373L2358,64.356l9.038-5.617a6.028,6.028,0,0,0-.036-.629V56.855a6.028,6.028,0,0,0,.036-.629L2358,50.609l5.547-13.363,10.364,2.372q.837-.908,1.744-1.744l-2.371-10.363,13.362-5.548L2392.263,31l.166.072a5.6,5.6,0,0,1,2.178,0l.166-.072,5.618-9.037,13.363,5.548-2.371,10.363q.908.837,1.744,1.744l10.363-2.372,5.547,13.363Zm-4.064,4.032q.071-.832.14-1.633c.047-.555.069-1.111.069-1.667,0-.533-.022-1.077-.069-1.633s-.093-1.1-.14-1.633l8.2-5.107-2.989-7.227-9.414,2.189a28.369,28.369,0,0,0-2.224-2.432q-1.113-1.113-2.432-2.224l2.188-9.416-7.227-2.987-5.141,8.2q-.8-.069-1.634-.139c-.556-.046-1.1-.069-1.632-.069q-.834,0-1.668.069c-.534.046-1.076.093-1.632.139l-5.108-8.2L2378,29.476l2.189,9.416a28.357,28.357,0,0,0-2.433,2.224q-1.111,1.111-2.224,2.432l-9.414-2.189-2.989,7.227,8.2,5.141-.14,1.668c-.047.533-.069,1.077-.069,1.633,0,.533.022,1.077.069,1.633s.093,1.1.14,1.633l-8.2,5.107,2.989,7.227,9.414-2.189a32.224,32.224,0,0,0,2.191,2.432q1.146,1.113,2.466,2.224L2378,84.51l7.227,2.988,5.141-8.2,1.634.139c.556.046,1.1.069,1.633.069.555,0,1.1-.023,1.632-.069l1.667-.139,5.108,8.2,7.227-2.988-2.188-9.415a32.624,32.624,0,0,0,2.432-2.189q1.111-1.146,2.224-2.467l9.414,2.189,2.989-7.227Zm-22.3-16.329a12.426,12.426,0,0,1,5.072,1.042,12.776,12.776,0,0,1,6.948,6.949,12.407,12.407,0,0,1,1.043,5.072,12.656,12.656,0,0,1-1.043,5.108,12.949,12.949,0,0,1-2.779,4.134,13.358,13.358,0,0,1-4.169,2.814,12.792,12.792,0,0,1-5.072,1.008,13.05,13.05,0,0,1-5.108-1.008,13.4,13.4,0,0,1-6.949-6.948,13.064,13.064,0,0,1-1.007-5.108,12.806,12.806,0,0,1,1.007-5.072,13.36,13.36,0,0,1,2.815-4.169,13,13,0,0,1,4.134-2.78A12.676,12.676,0,0,1,2393.632,43.93Zm0,22.236a9.2,9.2,0,0,0,3.577-.695,9.443,9.443,0,0,0,2.92-1.98,8.949,8.949,0,0,0,1.946-2.919,9.148,9.148,0,0,0,0-7.157,8.936,8.936,0,0,0-4.866-4.864,9.131,9.131,0,0,0-7.155,0,8.951,8.951,0,0,0-2.92,1.945,9.4,9.4,0,0,0-1.979,2.919,9.547,9.547,0,0,0,0,7.157,9.359,9.359,0,0,0,4.9,4.9A9.209,9.209,0,0,0,2393.632,66.166Z" fill="#323232"/><path d="M2427,179h22v41h-72V179h23v-9h27Zm-23-5v5h18v-5Zm41,10h-63v9h13v-5h5v5h26v-5h5v5h14Zm-63,31h63V197h-14v5h-5v-5h-26v5h-5v-5h-13Z" fill="#323232"/><path d="M2148,213V195.07l17.93,8.965Z" fill="#323232"/><rect x="2277" y="52" width="20" height="20" fill="#323232"/><path d="M2487.009,116h-17.93l8.965-17.93Z" fill="#323232"/><path d="M2045,43h17.93l-8.965,17.93Z" fill="#323232"/><polygon points="49 143 49 123 0 123 0 133 39 133 39 143 0 143 0 152 88 152 88 172 58 172 58 162 48 162 48 172 0 172 0 182 48 182 48 192 58 192 58 182 88 182 88 221 0 221 0 231 97 231 97 143 49 143" fill="#323232"/><path d="M380.192,19.136a11.068,11.068,0,0,0-3.525-2.323,10.714,10.714,0,0,0-4.254-.844,11.021,11.021,0,0,0-3.182.464,11.751,11.751,0,0,0-2.838,1.31,10.653,10.653,0,0,0-2.365,2.027,10.489,10.489,0,0,0-1.676,2.619l-6.447-1.056a15.318,15.318,0,0,0-1.376-6.378A15.572,15.572,0,0,0,350.7,9.591L357.222,0h-6.631l-4.445,6.55A16.636,16.636,0,0,0,339.4,5.156a16.153,16.153,0,0,0-4.171.549,17.37,17.37,0,0,0-3.868,1.479L326.2.806c.2-.264.385-.533.559-.806H308.016a10.977,10.977,0,0,0,1.59,1.989,11.188,11.188,0,0,0,3.481,2.323,11.026,11.026,0,0,0,4.3.844,11.024,11.024,0,0,0,4.514-.971l5.2,6.377a15.716,15.716,0,0,0-3.135,5.027,15.911,15.911,0,0,0-.346,10.516L314.677,30.5a11.108,11.108,0,0,0-3.739-2.745,11.257,11.257,0,0,0-8.855-.127,11.175,11.175,0,0,0-3.482,2.323,10.855,10.855,0,0,0-2.365,3.463,10.222,10.222,0,0,0-.86,4.182,10.513,10.513,0,0,0,.86,4.223,10.982,10.982,0,0,0,2.365,3.422,11.193,11.193,0,0,0,3.482,2.323,11.026,11.026,0,0,0,4.3.844,10.729,10.729,0,0,0,4.257-.844,10.985,10.985,0,0,0,5.888-5.745,10.512,10.512,0,0,0,.859-4.223,10.242,10.242,0,0,0-.257-2.281l8.942-4.35A16.438,16.438,0,0,0,339.4,37.594q.645,0,1.289-.042.645-.086,1.246-.169l2.5,7.349a11,11,0,0,0-3.7,3.885,10.8,10.8,0,0,0-.473,9.419,10.969,10.969,0,0,0,2.366,3.421A11.171,11.171,0,0,0,346.1,63.78a11.026,11.026,0,0,0,4.3.845,10.738,10.738,0,0,0,4.258-.845,10.982,10.982,0,0,0,5.887-5.744,10.514,10.514,0,0,0,.86-4.224,10.217,10.217,0,0,0-.86-4.181,10.851,10.851,0,0,0-2.362-3.463,11.062,11.062,0,0,0-3.525-2.323A10.738,10.738,0,0,0,350.4,43h-.386a2.041,2.041,0,0,0-.387.042l-2.5-7.349A16.421,16.421,0,0,0,355,26.655l6.447,1.055a10.2,10.2,0,0,0,1.119,3.928,11.77,11.77,0,0,0,2.406,3.126,11.842,11.842,0,0,0,3.4,2.069,11.12,11.12,0,0,0,8.295-.084,11.007,11.007,0,0,0,5.891-5.744,10.517,10.517,0,0,0,.859-4.224,10.217,10.217,0,0,0-.859-4.181A10.867,10.867,0,0,0,380.192,19.136Zm-68.737,20.57a5.587,5.587,0,0,1-1.206,1.731,5.521,5.521,0,0,1-1.719,1.141,5.683,5.683,0,0,1-4.3,0,6.093,6.093,0,0,1-1.763-1.141,5.972,5.972,0,0,1-1.159-1.731,5.367,5.367,0,0,1,0-4.224,5.421,5.421,0,0,1,1.159-1.69,5.685,5.685,0,0,1,1.763-1.182,5.683,5.683,0,0,1,4.3,0,5.182,5.182,0,0,1,1.719,1.182,5.1,5.1,0,0,1,1.206,1.69,5.413,5.413,0,0,1,0,4.224Zm36.8,9.123a5.67,5.67,0,0,1,4.3,0,5.147,5.147,0,0,1,1.719,1.182,5.088,5.088,0,0,1,1.206,1.69,5.4,5.4,0,0,1,0,4.223,5.563,5.563,0,0,1-1.206,1.732,5.478,5.478,0,0,1-1.719,1.14,5.67,5.67,0,0,1-4.3,0,6.064,6.064,0,0,1-1.762-1.14,5.967,5.967,0,0,1-1.16-1.732,5.376,5.376,0,0,1,0-4.223,5.424,5.424,0,0,1,1.16-1.69A5.663,5.663,0,0,1,348.252,48.829Zm1.29-23.23a11.007,11.007,0,0,1-5.891,5.744,10.7,10.7,0,0,1-4.254.845,11.026,11.026,0,0,1-4.3-.845,11.19,11.19,0,0,1-3.484-2.323,10.984,10.984,0,0,1-2.363-3.421,10.521,10.521,0,0,1-.86-4.224,10.217,10.217,0,0,1,.86-4.181,10.842,10.842,0,0,1,2.363-3.464,11.19,11.19,0,0,1,3.484-2.323,11.026,11.026,0,0,1,4.3-.845,10.7,10.7,0,0,1,4.254.845,11.046,11.046,0,0,1,3.525,2.323,10.851,10.851,0,0,1,2.366,3.464,10.217,10.217,0,0,1,.859,4.181A10.52,10.52,0,0,1,349.542,25.6Zm27.942,3.294a5.571,5.571,0,0,1-1.2,1.732,5.5,5.5,0,0,1-1.719,1.14,5.678,5.678,0,0,1-4.3,0,6.091,6.091,0,0,1-1.762-1.14,5.947,5.947,0,0,1-1.16-1.732,5.4,5.4,0,0,1,0-4.224,5.4,5.4,0,0,1,1.16-1.689,5.707,5.707,0,0,1,1.762-1.183,5.69,5.69,0,0,1,4.3,0,5.184,5.184,0,0,1,1.719,1.183,5.09,5.09,0,0,1,1.2,1.689,5.4,5.4,0,0,1,0,4.224Z" fill="#323232"/><path d="M1367.417,234.7l19.749-4.555q1.6,1.742,3.324,3.349L1386.741,250h34.125l1.9-3.062a10.2,10.2,0,0,1,1.114.062h2.229a10.217,10.217,0,0,1,1.115-.062l1.9,3.062h33.195l-3.749-16.507q1.729-1.608,3.323-3.349l19.75,4.555,10.571-25.657L1475,198.256l-.14-.334a10.469,10.469,0,0,0,0-4.153l.14-.335,17.222-10.786-10.571-25.657-19.75,4.556q-1.6-1.742-3.323-3.35l4.519-19.9-25.465-10.652L1426.926,145l-.314.137a10.781,10.781,0,0,0-2.078-.2,10.937,10.937,0,0,0-2.08.2l-.312-.136-10.706-17.349L1385.971,138.3l4.519,19.9q-1.73,1.608-3.324,3.35l-19.749-4.556-10.57,25.657,17.221,10.785a11.337,11.337,0,0,1-.068,1.206v2.412a11.337,11.337,0,0,1,.068,1.206l-17.221,10.785Zm34.4-48.451a25.691,25.691,0,0,1,5.412-8.016,24.972,24.972,0,0,1,7.947-5.344,24.371,24.371,0,0,1,9.82-2,23.883,23.883,0,0,1,9.751,2,24.562,24.562,0,0,1,13.36,13.36,23.856,23.856,0,0,1,2.005,9.752,24.335,24.335,0,0,1-2.005,9.82,24.927,24.927,0,0,1-5.344,7.948,25.683,25.683,0,0,1-8.016,5.411,24.582,24.582,0,0,1-9.751,1.937,25.086,25.086,0,0,1-9.82-1.937,25.777,25.777,0,0,1-13.359-13.359,25.1,25.1,0,0,1-1.937-9.82A24.6,24.6,0,0,1,1401.82,186.248Z" fill="#3c3c3c"/><path d="M1639.786,214.462a34.307,34.307,0,0,1,7.543,10.763A31.026,31.026,0,0,1,1650,238.106V250h7v-8h23v8h8V238.106a31.6,31.6,0,0,1,2.614-12.881,35.131,35.131,0,0,1,7.6-10.763,43.21,43.21,0,0,0,9.322-13.234,38.267,38.267,0,0,0,3.264-15.821,40.745,40.745,0,0,0-5.7-20.88,41.233,41.233,0,0,0-15.022-14.881,42.335,42.335,0,0,0-32.182-4.176,42.658,42.658,0,0,0-10.032,4.176,42.052,42.052,0,0,0-8.432,6.47,41.7,41.7,0,0,0-10.746,18.292,40.449,40.449,0,0,0-1.486,11,38.267,38.267,0,0,0,3.264,15.821A43.21,43.21,0,0,0,1639.786,214.462Zm-2.38-42.572a34.767,34.767,0,0,1,7.3-10.764,33.941,33.941,0,0,1,10.761-7.234,33.438,33.438,0,0,1,26.35,0,33.7,33.7,0,0,1,18,18,32.483,32.483,0,0,1,2.707,13.175,31.006,31.006,0,0,1-2.647,12.881,36.2,36.2,0,0,1-7.472,10.763,45.681,45.681,0,0,0-8.409,11.528A38.893,38.893,0,0,0,1680.108,234h-22.939a38.893,38.893,0,0,0-3.881-13.763,45.661,45.661,0,0,0-8.41-11.528,37.121,37.121,0,0,1-7.528-10.763,31.59,31.59,0,0,1-2.59-12.881A33.081,33.081,0,0,1,1637.406,171.89Z" fill="#323232"/><path d="M2201.344,179.849a19.529,19.529,0,0,0,4.369,5.86,18.957,18.957,0,0,0,6.257,3.81,17.857,17.857,0,0,0,7.372,1.117,18.384,18.384,0,0,0,6.71-1.628,19.075,19.075,0,0,0,5.632-3.906l18.765,11.347a29.082,29.082,0,0,0-1.814,11.9,28.2,28.2,0,0,0,1.338,7.224,30.4,30.4,0,0,0,2.932,6.612l-10.653,9.578a18.149,18.149,0,0,0-11.471-3.233,17.84,17.84,0,0,0-7.215,1.881,19.014,19.014,0,0,0-5.824,4.442,19.308,19.308,0,0,0-3.73,6.36,18.727,18.727,0,0,0-1.085,7.5c.023.436.079.859.128,1.285h9.556a10.2,10.2,0,0,1-.255-1.778,9.481,9.481,0,0,1,.541-3.792,9.123,9.123,0,0,1,1.905-3.106,9.245,9.245,0,0,1,10.2-2.638,9.7,9.7,0,0,1,5.276,4.834,9.457,9.457,0,0,1,.933,3.714,9.753,9.753,0,0,1-.24,2.766h9.561a20.127,20.127,0,0,0,.109-3.259,19.282,19.282,0,0,0-2.107-7.785l10.649-9.654a27.438,27.438,0,0,0,9.053,5.01,27.791,27.791,0,0,0,18.375-.356l8.478,15.2c-.274.272-.516.565-.771.849h27.814q-.611-.68-1.287-1.3a19.177,19.177,0,0,0-6.182-3.809,18.384,18.384,0,0,0-7.446-1.113,17.882,17.882,0,0,0-3.954.656l-8.4-15.2a28.7,28.7,0,0,0,10.348-23.849q-.058-1.125-.191-2.245c-.137-.745-.274-1.466-.408-2.158l12.59-5.023a19.208,19.208,0,0,0,7.115,6.095,18.86,18.86,0,0,0,16.471-.035,19.187,19.187,0,0,0,5.751-4.438,19.519,19.519,0,0,0,3.734-6.284,19.257,19.257,0,0,0,1.081-7.574,18.758,18.758,0,0,0-1.862-7.349,19.189,19.189,0,0,0-10.556-9.744,18.35,18.35,0,0,0-7.446-1.113,17.84,17.84,0,0,0-7.215,1.881,18.934,18.934,0,0,0-5.824,4.436,19.323,19.323,0,0,0-3.73,6.361,18.744,18.744,0,0,0-1.085,7.5c.013.25.025.477.035.675a3.61,3.61,0,0,0,.109.67l-12.59,5.023a28.684,28.684,0,0,0-16.483-12.9l1.253-11.34a17.829,17.829,0,0,0,6.749-2.311,18.924,18.924,0,0,0,8.531-10.6,19.435,19.435,0,0,0-.9-14.461,19.216,19.216,0,0,0-10.557-9.75,18.377,18.377,0,0,0-7.445-1.113,17.84,17.84,0,0,0-7.215,1.881,18.937,18.937,0,0,0-5.824,4.441,19.34,19.34,0,0,0-3.73,6.361,18.7,18.7,0,0,0-1.085,7.5,19.234,19.234,0,0,0,1.1,5.507,20.567,20.567,0,0,0,2.543,4.831,18.628,18.628,0,0,0,3.752,3.94,18.4,18.4,0,0,0,4.72,2.684l-1.253,11.341a26.752,26.752,0,0,0-11,2.982,27.191,27.191,0,0,0-9.006,7.166l-18.844-11.419a20.169,20.169,0,0,0,.7-6.353,18.749,18.749,0,0,0-1.862-7.348,19.219,19.219,0,0,0-10.557-9.749,18.36,18.36,0,0,0-7.445-1.114,17.873,17.873,0,0,0-7.215,1.881,19.046,19.046,0,0,0-5.825,4.442,19.353,19.353,0,0,0-3.73,6.36,18.746,18.746,0,0,0-1.084,7.5A19.256,19.256,0,0,0,2201.344,179.849Zm122.262,1.57a9.039,9.039,0,0,1,1.906-3.107,8.862,8.862,0,0,1,2.837-2.256,9.43,9.43,0,0,1,7.366-.386,9.728,9.728,0,0,1,5.277,4.839,9.913,9.913,0,0,1,.392,7.5,10.636,10.636,0,0,1-1.828,3.179,10.424,10.424,0,0,1-2.915,2.18,9.373,9.373,0,0,1-7.366.386,9.468,9.468,0,0,1-3.053-1.868,9.947,9.947,0,0,1-2.224-2.966,9.927,9.927,0,0,1-.392-7.5ZM2274.841,153a9.927,9.927,0,0,1-.392-7.5,9.02,9.02,0,0,1,1.906-3.107,8.851,8.851,0,0,1,2.837-2.252,9.43,9.43,0,0,1,7.366-.386,9.7,9.7,0,0,1,5.277,4.834,9.936,9.936,0,0,1,.392,7.5,10.685,10.685,0,0,1-1.828,3.179,10.424,10.424,0,0,1-2.915,2.18,9.431,9.431,0,0,1-7.366.386,9.468,9.468,0,0,1-3.053-1.868A10,10,0,0,1,2274.841,153Zm-15.692,47.36a19.285,19.285,0,0,1,3.73-6.36,18.972,18.972,0,0,1,5.825-4.442,17.868,17.868,0,0,1,7.214-1.881,18.368,18.368,0,0,1,7.446,1.114,19.213,19.213,0,0,1,10.556,9.749,18.69,18.69,0,0,1,1.862,7.343,19.236,19.236,0,0,1-1.081,7.574,19.54,19.54,0,0,1-3.733,6.289,19.174,19.174,0,0,1-5.752,4.434,18.381,18.381,0,0,1-7.288,1.885,17.858,17.858,0,0,1-7.372-1.118,18.954,18.954,0,0,1-6.256-3.8,19.57,19.57,0,0,1-4.37-5.866,19.256,19.256,0,0,1-1.866-7.419A18.714,18.714,0,0,1,2259.149,200.357Zm-49.7-32.212a9.114,9.114,0,0,1,1.906-3.107,9.243,9.243,0,0,1,10.2-2.638,9.694,9.694,0,0,1,5.276,4.835,9.933,9.933,0,0,1,.393,7.5,10.618,10.618,0,0,1-1.828,3.178,10.4,10.4,0,0,1-2.915,2.18,9.431,9.431,0,0,1-7.366.386,9.451,9.451,0,0,1-3.053-1.868,9.922,9.922,0,0,1-2.224-2.966,9.924,9.924,0,0,1-.392-7.5Z" fill="#323232"/><g clip-path="url(#b)"><ellipse cx="13.858" cy="247.784" rx="0.938" ry="0.925" fill="#b4009e"/><ellipse cx="1.279" cy="241.265" rx="1.386" ry="1.367" fill="#b4009e"/><ellipse cx="5.319" cy="237.125" rx="1.169" ry="1.153" fill="#b4009e"/><ellipse cx="9.214" cy="232.997" rx="0.938" ry="0.925" fill="#b4009e"/><ellipse cx="1.259" cy="222.443" rx="1.169" ry="1.153" fill="#b4009e"/><ellipse cx="5.154" cy="218.315" rx="0.938" ry="0.925" fill="#b4009e"/><ellipse cx="0.988" cy="204.21" rx="0.938" ry="0.925" fill="#b4009e"/></g></svg>