<svg xmlns="http://www.w3.org/2000/svg" xmlns:xlink="http://www.w3.org/1999/xlink" viewBox="0 0 2500 250"><defs><clipPath id="a"><rect y="-270" width="2500" height="250" fill="none"/></clipPath></defs><title>banner-solid-icons-1-purple</title><g clip-path="url(#a)"><ellipse cx="90.134" cy="-67.319" rx="154.492" ry="153.876" fill="#002e65"/></g><rect width="2500" height="250" fill="#5c2d91"/><circle cx="712.921" cy="59.701" r="38.282" fill="#683c99"/><path d="M700.8,67.6l-16.055-7.323V57.49L700.8,49.807V53.9l-11.448,4.9v.1L700.8,63.507Z" fill="#552786"/><path d="M721.218,44.031,709.2,72.771h-4.847l11.963-28.74Z" fill="#552786"/><path d="M741.294,60.052l-16.055,7.322V63.3l11.483-4.59v-.068l-11.483-4.916V49.635l16.055,7.632Z" fill="#552786"/><path d="M1313.036,125.847V80.731c0-1.633-1.485-2.793-3.575-2.793h-14.342c-2.08,0-3.575,1.16-3.575,2.793-.293,37.342-.293,45.116-.293,45.116,0,1.625,1.788,3.03,3.868,3.03h14.342A3.3,3.3,0,0,0,1313.036,125.847Z" fill="#683c99"/><path d="M1291.847,79.563a1.708,1.708,0,0,0-.3,1.168c-.293,37.342-.293,45.116-.293,45.116.293-37.342.293-45.116.293-45.116A1.708,1.708,0,0,1,1291.847,79.563Zm-.6,46.284h0c0,1.625,1.788,3.03,3.868,3.03h0C1293.039,128.877,1291.251,127.472,1291.251,125.847Z" fill="#2b6aa8"/><path d="M1297.806,77.938h-2.687a3.831,3.831,0,0,0-3.272,1.625,1.708,1.708,0,0,0-.3,1.168c-.293,37.342-.293,45.116-.293,45.116h0c0,1.625,1.788,3.03,3.868,3.03h2.687Z" fill="#552786"/><path d="M1287.787,125.847V96.514c0-1.634-1.484-2.794-3.575-2.794h-14.341c-2.081,0-3.575,1.16-3.575,2.794,0,13.486-.293,29.333-.293,29.333,0,1.625,1.787,3.03,3.868,3.03h14.341A3.3,3.3,0,0,0,1287.787,125.847Z" fill="#683c99"/><path d="M1272.557,93.72h-2.686a3.831,3.831,0,0,0-3.272,1.626,1.706,1.706,0,0,0-.3,1.168c0,13.157-.293,29.333-.293,29.333h0c0,1.625,1.787,3.03,3.868,3.03h2.686Z" fill="#552786"/><path d="M1337.82,125.847V73.976c0-1.649-1.495-3.054-3.606-3.054H1319.9c-2.09,0-3.585,1.405-3.585,2.818v52.107a3.306,3.306,0,0,0,3.585,3.03h14.311C1336.325,128.877,1337.82,127.472,1337.82,125.847Z" fill="#683c99"/><path d="M1316.318,125.847h0a3.306,3.306,0,0,0,3.585,3.03h0A3.306,3.306,0,0,1,1316.318,125.847Z" fill="#2b6aa8"/><path d="M1322.58,70.922H1319.9a3.308,3.308,0,0,0-3.585,3.054v51.871a3.306,3.306,0,0,0,3.585,3.03h2.677Z" fill="#552786"/><path d="M1363.462,125.847c.3-57.165.3-64.939.3-64.939,0-1.633-1.8-2.8-3.878-2.8h-14.321c-2.081,0-3.575,1.168-3.575,2.8v64.939a3.3,3.3,0,0,0,3.575,3.03h14.321A3.3,3.3,0,0,0,1363.462,125.847Z" fill="#683c99"/><path d="M1341.991,125.847h0a3.3,3.3,0,0,0,3.575,3.03h0A3.3,3.3,0,0,1,1341.991,125.847Z" fill="#2b6aa8"/><path d="M1348.252,58.107h-2.686c-2.081,0-3.575,1.168-3.575,2.8v64.939a3.3,3.3,0,0,0,3.575,3.03h2.686Z" fill="#552786"/><polygon points="1327.65 59.503 1305.327 65.386 1304.949 64.301 1327.357 58.335 1354.437 42.156 1354.437 43.711 1327.65 59.503" fill="#552786" stroke="#552786" stroke-miterlimit="10" stroke-width="2"/><polygon points="1275.543 83.666 1274.621 82.811 1300.69 65.651 1301.611 66.506 1275.543 83.666" fill="#552786" stroke="#552786" stroke-miterlimit="10" stroke-width="2"/><circle cx="1275.924" cy="82.578" r="4.397" fill="#683c99"/><circle cx="1303.131" cy="66.254" r="4.397" fill="#683c99"/><circle cx="1327.229" cy="59.258" r="4.397" fill="#683c99"/><circle cx="1352.882" cy="44.488" r="4.397" fill="#683c99"/><path d="M1276,232h-13V162.567a3.567,3.567,0,0,0-3.567-3.567H1155.577a3.578,3.578,0,0,0-3.577,3.577V232h-14v2h-.033a.132.132,0,0,0,.033.067V235h2.115c2.195.567,6.532,1.136,14.964,1h103.953c6.585.136,9.993-.433,11.726-1H1276Z" fill="#552786"/><rect x="1158" y="165" width="99" height="62" fill="#683c99"/><path d="M1175,195.1v-.854l19-10.388v2.57l-15,8.152v.088l15,7.2v2.593Z" fill="#552786"/><path d="M1201.9,213h-2.767l15.717-37h2.834Z" fill="#552786"/><path d="M1223,204.455v-2.617l15-7.151v-.112l-15-8.126v-2.594l19,10.388v.854Z" fill="#552786"/><rect x="404" y="12" width="96" height="71" rx="3.927" fill="#552786"/><path d="M496.077,12H407.923A3.924,3.924,0,0,0,404,15.923V21h96V15.923A3.924,3.924,0,0,0,496.077,12Z" fill="#683c99"/><rect x="418" y="30" width="67" height="3" fill="#683c99"/><rect x="418" y="39" width="67" height="3" fill="#683c99"/><rect x="426" y="48" width="51" height="3" fill="#683c99"/><rect x="435" y="57" width="33" height="3" fill="#683c99"/><rect x="434" y="66" width="52" height="3" fill="#683c99"/><path d="M367.171,191.789a16.374,16.374,0,0,0-1.739.1,26.463,26.463,0,0,0-45-26.444,34.246,34.246,0,0,0-67.944,6.109c0,.294.015.584.022.877A26.693,26.693,0,1,0,245.743,225l120.529-.214c9.34,0,16.727-8.026,16.727-16.911A15.867,15.867,0,0,0,367.171,191.789Z" fill="#683c99"/><path d="M1192.316,106.919l-120.262-.214a19.96,19.96,0,0,1-19.6-19.789,18.648,18.648,0,0,1,16.524-18.845,29.321,29.321,0,0,1,47.251-29.139,37.091,37.091,0,0,1,72.179,9.086,29.565,29.565,0,1,1,3.908,58.9ZM1071.162,73.783a12.867,12.867,0,0,0-12.875,13.133,14.051,14.051,0,0,0,13.773,13.955l120.261.214a23.747,23.747,0,1,0-6.013-46.716l-3.758.992.107-4.2c.005-.161.011-.323.011-.485a31.252,31.252,0,0,0-62-5.578l-1.1,6.124-4-4.765a23.487,23.487,0,0,0-39.939,23.467l1.7,4.452-4.739-.512A13.324,13.324,0,0,0,1071.162,73.783Z" fill="#683c99"/><circle cx="1427.923" cy="173.559" r="43.603" fill="#552786"/><path d="M1458.9,204.239a43.6,43.6,0,0,0-61.661-61.66Z" fill="#552786"/><circle cx="1427.923" cy="173.559" r="37.935" fill="#683c99"/><path d="M1406.138,173.226a21.787,21.787,0,0,1,43.57,0h11.982a33.769,33.769,0,0,0-67.534,0Z" fill="#552786" stroke="#552786" stroke-miterlimit="10" stroke-width="2"/><path d="M1401.652,152.384a33.6,33.6,0,0,0-7.5,20.842h11.982a21.668,21.668,0,0,1,4.835-13.329Z" fill="none"/><path d="M1447.353,163.715l10.684-5.413a33.759,33.759,0,0,0-63.881,14.924h11.982a21.781,21.781,0,0,1,41.215-9.511Z" fill="#683c99" stroke="#552786" stroke-miterlimit="10" stroke-width="2"/><path d="M1449.6,151.134l-.856-.817-19.16,18.321a4.939,4.939,0,1,0,2.852,2.662Z" fill="#552786"/><path d="M801.92,211.414a1.313,1.313,0,0,0,1.229.908l2.757-.087a1.416,1.416,0,0,0,1.125-1.44l.155-3.4a1.967,1.967,0,0,1,1.366-2.067c.441-.405,1.086-.589,1.528-.995a2.357,2.357,0,0,1,2.316.318l3.081,2.057a1.594,1.594,0,0,0,1.49-.146l2.01-2.249a1.483,1.483,0,0,0-.345-1.72l-2.419-2.663a1.736,1.736,0,0,1-.328-2.143l-.2-.221a2.31,2.31,0,0,0,.7-1.458c.038-.85.5-1.682,1.99-1.825l3.2-.5a1.681,1.681,0,0,0,1.124-1.437l-.286-3a1.04,1.04,0,0,0-1.228-.906l-3.383-.156a2.019,2.019,0,0,1-2.056-1.37c-.4-.443-.585-1.091-.987-1.535a3.423,3.423,0,0,1,.115-2.548l2.029-2.675a1.542,1.542,0,0,0-.124-1.923l-2.258-1.592a1.284,1.284,0,0,0-1.69-.078l-2.452,2.656a2.152,2.152,0,0,1-2.354.533,6.464,6.464,0,0,0-1.672-.5l-.2-.222a2.237,2.237,0,0,1-1.614-1.776l-.467-3.641a1.314,1.314,0,0,0-1.228-.906l-2.982.29a1.044,1.044,0,0,0-.9,1.235l-.379,3.6c-.056,1.274-.5,1.68-1.143,1.864-.443.405-1.086.588-1.53,1a2.215,2.215,0,0,1-2.535-.116l-2.862-2.259a1.641,1.641,0,0,0-1.711.346l-2.011,2.252a1.89,1.89,0,0,0,.348,1.718l2.419,2.663c.807.889.989,1.536.325,2.145-.019.426-.26,1.054-.3,1.9-.242.627-.481,1.254-1.97,1.4l-3.42.7a1.324,1.324,0,0,0-.9,1.236l.287,2.992a1.354,1.354,0,0,0,1.009,1.111l3.6-.049c1.268.058,1.67.5,1.854,1.147a19.194,19.194,0,0,1,.969,1.96,1.912,1.912,0,0,1,.1,2.348l-2.249,2.879a1.655,1.655,0,0,0,.344,1.716l2.037,1.8a1.283,1.283,0,0,0,1.692.078l2.451-2.656a2.148,2.148,0,0,1,2.354-.532q.936.363,1.875.725c.844.039,1.248.483,1.613,1.775l.69,3.435m8.3-19.418a7.468,7.468,0,0,1-6.711,7.785,6.919,6.919,0,0,1-7.74-6.739,7.13,7.13,0,0,1,6.49-7.579A7.205,7.205,0,0,1,810.223,192" fill="#683c99"/><path d="M79.683,13.551l-4.421-.84a17.469,17.469,0,0,0-.337-3.058l3.764-2.23A1.168,1.168,0,0,0,79.4,5.856L78.41,3.089A1,1,0,0,0,77,2.544l-4.5.758q-.66-1.231-1.321-2.461L71.854,0H31.331a6.362,6.362,0,0,0-1.126,1.7L25.814.218a1.387,1.387,0,0,0-1.467.733L23.109,3.618a1.384,1.384,0,0,0,.563,1.625l3.713,2.409c-.361.945-.406,1.9-.768,2.847l-4.48.437a1.4,1.4,0,0,0-1.013,1.234l-.131,2.875a1.391,1.391,0,0,0,.9,1.321l4.588.689a18.994,18.994,0,0,0,.489,3.225l-4.084,2.214a1.011,1.011,0,0,0-.543,1.417l.99,2.766a1.491,1.491,0,0,0,1.393.864l4.511-1.077q.66,1.232,1.321,2.461l-2.871,3.553a1.5,1.5,0,0,0,.093,1.444L29.9,36.26a1.2,1.2,0,0,0,1.423.225l3.782-2.55c.771.516,1.7,1.2,2.469,1.713l-1.158,4.43a1.088,1.088,0,0,0,.577,1.307l2.8,1.409a1.359,1.359,0,0,0,1.453-.416l2.4-3.731c.954.042,1.894.405,2.848.449l.264,4.653a1.387,1.387,0,0,0,1.228,1.016l3.013.3a1.929,1.929,0,0,0,1.164-1.068L53,39.552c1.12-.111,2.089-.387,3.208-.495l2.051,3.934a1.091,1.091,0,0,0,1.409.545l2.752-1a1.3,1.3,0,0,0,.862-1.4l-.915-4.363a11.416,11.416,0,0,0,2.464-1.65l3.533,2.883a1.06,1.06,0,0,0,1.589.072L72.119,36.1a1.073,1.073,0,0,0,.074-1.6l-2.535-3.8a7.973,7.973,0,0,0,1.873-2.635l4.393,1.48a1.079,1.079,0,0,0,1.3-.58l1.4-2.818a1.621,1.621,0,0,0-.411-1.46l-3.865-2.576a8.2,8.2,0,0,0,.6-2.695l4.645-.59c.484-.137.983-.595,1-.915l.147-3.194A1.091,1.091,0,0,0,79.683,13.551ZM53.969,18.466a4.552,4.552,0,0,1-6.51-.455,4.754,4.754,0,0,1,.141-6.558,4.737,4.737,0,0,1,6.676.3A4.653,4.653,0,0,1,53.969,18.466Z" fill="#683c99"/><path d="M101.2,250l-.108-65.59c-.05-3.662-3.757-6.592-8.28-6.544l-6.843.071c-4.523.048-8.15,3.055-8.1,6.717L77.972,250Z" fill="#683c99"/><circle cx="89.162" cy="127.841" r="49.266" fill="#552786"/><path d="M78,206V185c0-.011,17,0,17,0v21Z" fill="#552786"/><path d="M52.272,163.3A52.02,52.02,0,1,0,51.4,89.737,51.86,51.86,0,0,0,52.272,163.3Zm4.464-4.574a45.629,45.629,0,1,1,64.524-.765A45.68,45.68,0,0,1,56.736,158.725Z" fill="#683c99"/><rect x="57" y="106" width="51" height="9" fill="#683c99"/><rect x="69" y="122" width="54" height="9" fill="#683c99"/><rect x="69" y="139" width="54" height="9" fill="#683c99"/><path d="M101,250l-.1-65.59c-.043-3.374-3.05-6.121-6.9-6.5L94.23,250Z" fill="#552786"/><path d="M650,250V202.318A10.319,10.319,0,0,0,639.682,192H548.318A10.319,10.319,0,0,0,538,202.318V250Z" fill="#552786"/><rect x="538" y="213" width="112" height="37" fill="#683c99"/><rect x="564" y="213" width="4" height="37" fill="#552786"/><rect x="628" y="201" width="11" height="6" fill="#683c99"/><rect x="610" y="201" width="11" height="6" fill="#683c99"/><path d="M881.849,187l7.2-.075c4.758-.05,8.572-3.213,8.52-7.064l-.138-83.5c-.053-3.852-3.952-6.934-8.709-6.884l-7.2.075c-4.758.05-8.572,3.213-8.52,7.064l.138,83.5C873.193,183.967,877.092,187.049,881.849,187Z" fill="#683c99"/><path d="M889.82,89.532c4.243.394,7.56,3.283,7.609,6.833l.138,83.5c.048,3.549-3.19,6.507-7.421,6.989" fill="#552786"/><path d="M873,97h17l.082,22-17.033-.093S873,97.012,873,97Z" fill="#552786"/><path d="M848.479,0A51.814,51.814,0,1,0,921.3,0Z" fill="#552786"/><path d="M917.116,0c.242.226.489.442.727.675a47.994,47.994,0,1,1-67.868.8c.5-.509,1.006-1,1.519-1.479h-9.212a54.709,54.709,0,1,0,84.081,0Z" fill="#683c99"/><path d="M879.889,6.9a14.192,14.192,0,0,0-5.838,12.486,14.192,14.192,0,0,0-13.749.963,1.057,1.057,0,1,0,1.175,1.758c5.643-3.774,11.442-1.033,12.972-.181a1.057,1.057,0,0,0,1.467.269c.014-.01.025-.025.039-.036s.033-.013.048-.024a1.043,1.043,0,0,0,.288-.3,1.057,1.057,0,0,0-.012-1.169c-.246-1.735-.721-8.13,4.828-12.042A1.057,1.057,0,0,0,879.889,6.9Z" fill="#683c99"/><path d="M882.568,62.506a1.413,1.413,0,0,1-.146.088,1.48,1.48,0,0,1-2-.615c-2.134-4.027-2.156-8.649-.064-13.366a23.218,23.218,0,0,1,7.21-9.031,1.48,1.48,0,0,1,1.72,2.409c-3.66,2.614-10.317,10.928-6.25,18.6A1.481,1.481,0,0,1,882.568,62.506Z" fill="#683c99"/><path d="M874.123,59.421a1.513,1.513,0,0,1-.309.162,1.48,1.48,0,0,1-1.912-.851c-3.349-8.723,1.76-19.887,11.385-24.882a1.48,1.48,0,0,1,1.364,2.627c-8.194,4.253-12.764,13.958-9.986,21.194A1.48,1.48,0,0,1,874.123,59.421Z" fill="#683c99"/><path d="M876.387,37.256l-.052.034c-6.238,3.916-12.323,2.62-16.7-3.555a1.48,1.48,0,1,1,2.415-1.711c2.4,3.391,6.554,6.622,12.707,2.759a1.48,1.48,0,0,1,1.626,2.473Z" fill="#683c99"/><path d="M910.859,43.081a1.636,1.636,0,0,0,.135-.105,1.481,1.481,0,0,0,.145-2.088c-2.992-3.438-7.3-5.119-12.452-4.861a23.218,23.218,0,0,0-11.018,3.484,1.48,1.48,0,0,0,1.63,2.471c3.755-2.477,13.9-5.7,19.607.849A1.48,1.48,0,0,0,910.859,43.081Z" fill="#683c99"/><path d="M911.014,34.091a1.532,1.532,0,0,0,.262-.23,1.48,1.48,0,0,0-.108-2.09c-6.938-6.259-19.191-5.5-27.311,1.687a1.48,1.48,0,0,0,1.962,2.217c6.913-6.12,17.611-6.9,23.366-1.707A1.482,1.482,0,0,0,911.014,34.091Z" fill="#683c99"/><path d="M889.514,28.242l.051-.036c5.895-4.415,6.872-10.56,2.679-16.859a1.48,1.48,0,1,0-2.464,1.64c2.3,3.458,3.825,8.495-1.99,12.85a1.48,1.48,0,0,0,1.724,2.405Z" fill="#683c99"/><ellipse cx="875.857" cy="21.918" rx="7.929" ry="6.601" transform="matrix(0.824, -0.566, 0.566, 0.824, 141.414, 499.621)" fill="#683c99"/><ellipse cx="886.654" cy="37.644" rx="14.8" ry="18.394" transform="translate(134.409 508.494) rotate(-34.475)" fill="#683c99"/><path d="M282.944,71.93a75.663,75.663,0,0,1-13.655.938c-6.506,0-12.4-.472-14.228-.942S252,70.359,252,68.628V13.811c0-1.762,1.166-2.825,3.143-3.121a125.99,125.99,0,0,1,14.063-.81,95.666,95.666,0,0,1,13.655.806c2.118.336,3.139,1.434,3.139,3.2V68.633C286,70.362,285.089,71.447,282.944,71.93Z" fill="#552786"/><rect x="255" y="17" width="28" height="50" fill="#683c99"/><circle cx="268.455" cy="12.911" r="0.618" fill="#683c99"/><circle cx="258.682" cy="13.4" r="0.496" fill="#683c99"/><rect x="942" y="150" width="88" height="63" rx="4.232" transform="translate(1972 363) rotate(180)" fill="#552786"/><rect x="948" y="155" width="76" height="52" transform="translate(1972 362) rotate(180)" fill="#683c99"/><polygon points="946 181.987 943 182.258 943 180.046 946 180.317 946 181.987" fill="#683c99"/><circle cx="2212.921" cy="59.701" r="38.282" fill="#683c99"/><path d="M2200.8,67.6l-16.055-7.323V57.49l16.055-7.683V53.9l-11.448,4.9v.1l11.448,4.607Z" fill="#552786"/><path d="M2221.218,44.031,2209.2,72.771h-4.847l11.963-28.74Z" fill="#552786"/><path d="M2241.294,60.052l-16.055,7.322V63.3l11.483-4.59v-.068l-11.483-4.916V49.635l16.055,7.632Z" fill="#552786"/><rect x="1933" y="61" width="96" height="71" rx="3.927" fill="#552786"/><path d="M2025.077,61h-88.154A3.924,3.924,0,0,0,1933,64.923V70h96V64.923A3.924,3.924,0,0,0,2025.077,61Z" fill="#683c99"/><rect x="1947" y="79" width="67" height="3" fill="#683c99"/><rect x="1947" y="88" width="67" height="3" fill="#683c99"/><rect x="1955" y="97" width="51" height="3" fill="#683c99"/><rect x="1964" y="106" width="33" height="3" fill="#683c99"/><rect x="1964" y="116" width="52" height="3" fill="#683c99"/><path d="M1931.668,191.789a16.359,16.359,0,0,0-1.739.1,26.463,26.463,0,0,0-45-26.444,34.247,34.247,0,0,0-67.945,6.109c0,.294.015.584.023.877A26.693,26.693,0,1,0,1810.239,225l120.529-.214c9.341,0,16.727-8.026,16.727-16.911A15.867,15.867,0,0,0,1931.668,191.789Z" fill="#683c99"/><path d="M2301.92,211.414a1.313,1.313,0,0,0,1.229.908l2.757-.087a1.416,1.416,0,0,0,1.125-1.44l.155-3.4a1.967,1.967,0,0,1,1.366-2.067c.441-.405,1.086-.589,1.528-.995a2.357,2.357,0,0,1,2.316.318l3.081,2.057a1.594,1.594,0,0,0,1.49-.146l2.01-2.249a1.483,1.483,0,0,0-.345-1.72l-2.419-2.663a1.736,1.736,0,0,1-.328-2.143l-.2-.221a2.31,2.31,0,0,0,.7-1.458c.038-.85.5-1.682,1.99-1.825l3.2-.5a1.681,1.681,0,0,0,1.124-1.437l-.286-3a1.04,1.04,0,0,0-1.228-.906l-3.383-.156a2.019,2.019,0,0,1-2.056-1.37c-.4-.443-.585-1.091-.987-1.535a3.423,3.423,0,0,1,.115-2.548l2.029-2.675a1.542,1.542,0,0,0-.124-1.923l-2.258-1.592a1.284,1.284,0,0,0-1.69-.078l-2.452,2.656a2.152,2.152,0,0,1-2.354.533,6.464,6.464,0,0,0-1.672-.5l-.2-.222a2.237,2.237,0,0,1-1.614-1.776l-.467-3.641a1.314,1.314,0,0,0-1.228-.906l-2.982.29a1.044,1.044,0,0,0-.9,1.235l-.379,3.6c-.056,1.274-.5,1.68-1.143,1.864-.443.405-1.086.588-1.53,1a2.215,2.215,0,0,1-2.535-.116l-2.862-2.259a1.641,1.641,0,0,0-1.711.346l-2.011,2.252a1.89,1.89,0,0,0,.348,1.718l2.419,2.663c.807.889.989,1.536.325,2.145-.019.426-.26,1.054-.3,1.9-.242.627-.481,1.254-1.97,1.4l-3.42.7a1.324,1.324,0,0,0-.905,1.236l.287,2.992a1.354,1.354,0,0,0,1.009,1.111l3.6-.049c1.268.058,1.67.5,1.854,1.147a19.194,19.194,0,0,1,.969,1.96,1.912,1.912,0,0,1,.1,2.348l-2.249,2.879a1.655,1.655,0,0,0,.344,1.716l2.037,1.8a1.283,1.283,0,0,0,1.692.078l2.451-2.656a2.148,2.148,0,0,1,2.354-.532q.936.363,1.875.725c.844.039,1.248.483,1.613,1.775l.69,3.435m8.3-19.418a7.468,7.468,0,0,1-6.711,7.785,6.919,6.919,0,0,1-7.74-6.739,7.13,7.13,0,0,1,6.49-7.579,7.205,7.205,0,0,1,7.961,6.533" fill="#683c99"/><path d="M2486.507,149.769l.84-4.421a17.565,17.565,0,0,0,3.058-.337l2.23,3.763a1.168,1.168,0,0,0,1.567.71l2.767-.988a1,1,0,0,0,.545-1.407l-.758-4.5q1.232-.662,2.461-1.322l.841.669V101.417a6.338,6.338,0,0,0-1.7-1.126l1.48-4.392a1.386,1.386,0,0,0-.732-1.466L2496.44,93.2a1.383,1.383,0,0,0-1.625.562l-2.409,3.714c-.944-.362-1.9-.406-2.847-.769l-.436-4.479a1.4,1.4,0,0,0-1.235-1.013l-2.874-.131a1.39,1.39,0,0,0-1.322.9L2483,96.562a18.882,18.882,0,0,0-3.224.489l-2.214-4.084a1.012,1.012,0,0,0-1.418-.543l-2.765.99a1.489,1.489,0,0,0-.864,1.393l1.076,4.51q-1.231.662-2.461,1.321l-3.553-2.871a1.5,1.5,0,0,0-1.444.094l-2.338,2.122a1.2,1.2,0,0,0-.224,1.423l2.55,3.782c-.517.772-1.2,1.7-1.714,2.47l-4.43-1.158a1.087,1.087,0,0,0-1.306.577l-1.409,2.8a1.357,1.357,0,0,0,.415,1.453l3.732,2.4c-.042.954-.406,1.894-.449,2.848l-4.654.264a1.385,1.385,0,0,0-1.016,1.228l-.3,3.012a1.925,1.925,0,0,0,1.067,1.164l4.443.842c.111,1.12.387,2.089.494,3.208l-3.934,2.051a1.088,1.088,0,0,0-.544,1.408l.994,2.753a1.3,1.3,0,0,0,1.4.861l4.362-.915a11.453,11.453,0,0,0,1.65,2.464l-2.883,3.534a1.06,1.06,0,0,0-.072,1.589l1.983,2.162a1.072,1.072,0,0,0,1.6.073l3.8-2.534a8,8,0,0,0,2.635,1.873l-1.48,4.393a1.079,1.079,0,0,0,.58,1.3l2.818,1.4a1.617,1.617,0,0,0,1.46-.41l2.576-3.865a8.231,8.231,0,0,0,2.7.6l.59,4.645c.137.484.6.983.915,1l3.194.146A1.089,1.089,0,0,0,2486.507,149.769Zm-4.915-25.714a4.553,4.553,0,0,1,.456-6.51,4.626,4.626,0,1,1,6.252,6.817A4.653,4.653,0,0,1,2481.592,124.055Z" fill="#683c99"/><path d="M1666,250l-.107-65.468c-.049-3.655-3.7-6.579-8.162-6.532l-6.746.071c-4.459.048-8.034,3.049-7.985,6.7l.107,65.225Z" fill="#683c99"/><circle cx="1653.5" cy="127.5" r="49.491" fill="#552786"/><path d="M1643,206.255l-.287-21.222.033-.033,23.251-.245,0,.034.118,21.211Z" fill="#552786"/><polygon points="1652 185 1659 185 1659 207 1643 207 1643 185 1652 185" fill="#552786"/><path d="M1616.768,163.3a52.021,52.021,0,1,0-.874-73.562A51.863,51.863,0,0,0,1616.768,163.3Zm4.465-4.574a45.629,45.629,0,1,1,64.524-.765A45.68,45.68,0,0,1,1621.233,158.725Z" fill="#683c99"/><rect x="1621" y="106" width="51" height="9" fill="#683c99"/><rect x="1633" y="122" width="54" height="9" fill="#683c99"/><rect x="1633" y="139" width="54" height="9" fill="#683c99"/><path d="M1666,250l-.1-65.59c-.043-3.374-3.05-6.121-6.9-6.5l.23,72.085Z" fill="#552786"/><path d="M2150,250V202.318A10.319,10.319,0,0,0,2139.682,192h-91.364A10.319,10.319,0,0,0,2038,202.318V250Z" fill="#552786"/><rect x="2038" y="213" width="112" height="37" fill="#683c99"/><rect x="2064" y="213" width="4" height="37" fill="#552786"/><rect x="2128" y="201" width="11" height="6" fill="#683c99"/><rect x="2110" y="201" width="11" height="6" fill="#683c99"/><path d="M2381.849,187l7.2-.075c4.758-.05,8.572-3.213,8.52-7.064l-.138-83.5c-.053-3.852-3.952-6.934-8.709-6.884l-7.2.075c-4.758.05-8.572,3.213-8.52,7.064l.138,83.5C2373.193,183.967,2377.092,187.049,2381.849,187Z" fill="#683c99"/><path d="M2389.82,89.532c4.243.394,7.56,3.283,7.609,6.833l.138,83.5c.048,3.549-3.19,6.507-7.421,6.989" fill="#552786"/><path d="M2373.3,118.791,2373,96.62c0-.011,0-.023,0-.034l24.422-.256,0,.035.123,22.16Z" fill="#552786"/><path d="M2373,96.586l16.9-.174.181,22.28-17.033.215L2373,96.62C2373,96.609,2373,96.6,2373,96.586Z" fill="#552786"/><path d="M2348.479,0A51.814,51.814,0,1,0,2421.3,0Z" fill="#552786"/><path d="M2417.116,0c.242.226.489.442.727.675a47.994,47.994,0,1,1-67.868.8c.5-.509,1.006-1,1.519-1.479h-9.212a54.709,54.709,0,1,0,84.081,0Z" fill="#683c99"/><path d="M2379.889,6.9a14.192,14.192,0,0,0-5.838,12.486,14.192,14.192,0,0,0-13.749.963,1.057,1.057,0,1,0,1.175,1.758c5.643-3.774,11.442-1.033,12.972-.181a1.057,1.057,0,0,0,1.467.269c.014-.01.025-.025.039-.036s.033-.013.048-.024a1.043,1.043,0,0,0,.288-.3,1.057,1.057,0,0,0-.012-1.169c-.246-1.735-.721-8.13,4.828-12.042a1.057,1.057,0,1,0-1.218-1.728Z" fill="#683c99"/><path d="M2382.568,62.506a1.413,1.413,0,0,1-.146.088,1.48,1.48,0,0,1-2-.615c-2.134-4.027-2.156-8.649-.064-13.366a23.218,23.218,0,0,1,7.21-9.031,1.48,1.48,0,0,1,1.72,2.409c-3.66,2.614-10.317,10.928-6.25,18.6A1.481,1.481,0,0,1,2382.568,62.506Z" fill="#683c99"/><path d="M2374.123,59.421a1.513,1.513,0,0,1-.309.162,1.48,1.48,0,0,1-1.912-.851c-3.349-8.723,1.76-19.887,11.385-24.882a1.48,1.48,0,0,1,1.364,2.627c-8.194,4.253-12.764,13.958-9.986,21.194A1.48,1.48,0,0,1,2374.123,59.421Z" fill="#683c99"/><path d="M2376.387,37.256l-.052.034c-6.238,3.916-12.323,2.62-16.7-3.555a1.48,1.48,0,1,1,2.415-1.711c2.4,3.391,6.554,6.622,12.707,2.759a1.48,1.48,0,0,1,1.626,2.473Z" fill="#683c99"/><path d="M2410.859,43.081a1.636,1.636,0,0,0,.135-.105,1.481,1.481,0,0,0,.145-2.088c-2.992-3.438-7.3-5.119-12.452-4.861a23.218,23.218,0,0,0-11.018,3.484,1.48,1.48,0,0,0,1.63,2.471c3.755-2.477,13.905-5.7,19.607.849A1.48,1.48,0,0,0,2410.859,43.081Z" fill="#683c99"/><path d="M2411.014,34.091a1.532,1.532,0,0,0,.262-.23,1.48,1.48,0,0,0-.108-2.09c-6.938-6.259-19.191-5.5-27.311,1.687a1.48,1.48,0,0,0,1.962,2.217c6.913-6.12,17.611-6.9,23.366-1.707A1.482,1.482,0,0,0,2411.014,34.091Z" fill="#683c99"/><path d="M2389.514,28.242l.051-.036c5.895-4.415,6.872-10.56,2.679-16.859a1.48,1.48,0,1,0-2.464,1.64c2.3,3.458,3.825,8.495-1.99,12.85a1.48,1.48,0,0,0,1.724,2.405Z" fill="#683c99"/><ellipse cx="2375.857" cy="21.918" rx="7.929" ry="6.601" transform="translate(404.849 1348.683) rotate(-34.475)" fill="#683c99"/><ellipse cx="2386.654" cy="37.644" rx="14.8" ry="18.394" transform="translate(397.844 1357.556) rotate(-34.475)" fill="#683c99"/><path d="M1782.944,71.93a75.663,75.663,0,0,1-13.655.938c-6.506,0-12.4-.472-14.228-.942s-3.061-1.567-3.061-3.3V13.811c0-1.762,1.166-2.825,3.143-3.121a125.99,125.99,0,0,1,14.063-.81,95.666,95.666,0,0,1,13.655.806c2.118.336,3.139,1.434,3.139,3.2V68.633C1786,70.362,1785.089,71.447,1782.944,71.93Z" fill="#552786"/><rect x="1755" y="17" width="28" height="50" fill="#683c99"/><circle cx="1768.455" cy="12.911" r="0.618" fill="#683c99"/><circle cx="1758.682" cy="13.4" r="0.496" fill="#683c99"/><rect x="1478.983" y="23.947" width="88.337" height="62.516" rx="4.224" transform="translate(3046.304 110.41) rotate(180)" fill="#552786"/><rect x="1485" y="29" width="77" height="52" transform="translate(3047 110) rotate(180)" fill="#683c99"/><polygon points="1483.06 55.994 1480.342 56.264 1480.342 54.053 1483.06 54.323 1483.06 55.994" fill="#683c99"/><line x1="890" y1="90" x2="889.047" y2="186.924" fill="#552786"/></svg>