<svg xmlns="http://www.w3.org/2000/svg" xmlns:xlink="http://www.w3.org/1999/xlink" viewBox="0 0 2500 250"><defs><clipPath id="a"><rect x="2521" width="2500" height="250" fill="none"/></clipPath></defs><title>banner-solid-icons-2-purple</title><polyline points="2500 0 2500 250 0 250 0 0" fill="#5c2d91"/><path d="M169.144,117.623a1.314,1.314,0,0,0,1.229.907l2.757-.086A1.418,1.418,0,0,0,174.256,117l.155-3.4a1.966,1.966,0,0,1,1.365-2.067c.442-.4,1.086-.588,1.529-.994a2.358,2.358,0,0,1,2.316.317l3.081,2.058a1.6,1.6,0,0,0,1.49-.146l2.01-2.249a1.483,1.483,0,0,0-.346-1.72l-2.419-2.663A1.736,1.736,0,0,1,183.11,104l-.2-.222a2.305,2.305,0,0,0,.7-1.457c.039-.851.5-1.682,1.99-1.825l3.2-.5a1.678,1.678,0,0,0,1.124-1.437l-.286-2.994a1.04,1.04,0,0,0-1.228-.907l-3.382-.155a2.021,2.021,0,0,1-2.056-1.37c-.4-.444-.586-1.092-.988-1.535a3.426,3.426,0,0,1,.115-2.549l2.029-2.675a1.544,1.544,0,0,0-.123-1.923l-2.258-1.591a1.283,1.283,0,0,0-1.691-.078l-2.451,2.656a2.156,2.156,0,0,1-2.354.533,6.477,6.477,0,0,0-1.673-.5l-.2-.222a2.233,2.233,0,0,1-1.613-1.775l-.468-3.641a1.313,1.313,0,0,0-1.228-.907l-2.982.29a1.044,1.044,0,0,0-.9,1.236l-.379,3.6c-.057,1.273-.5,1.679-1.144,1.863-.442.406-1.086.589-1.529,1A2.215,2.215,0,0,1,160.6,86.8l-2.863-2.258a1.641,1.641,0,0,0-1.71.345l-2.011,2.253a1.89,1.89,0,0,0,.347,1.718l2.419,2.663c.808.888.99,1.536.326,2.145-.019.425-.261,1.053-.3,1.9-.241.626-.481,1.254-1.97,1.4l-3.42.7a1.326,1.326,0,0,0-.905,1.236l.288,2.993a1.352,1.352,0,0,0,1.009,1.11l3.6-.048c1.268.057,1.669.5,1.854,1.147a18.957,18.957,0,0,1,.968,1.96,1.912,1.912,0,0,1,.1,2.347l-2.249,2.879a1.656,1.656,0,0,0,.344,1.717l2.037,1.8a1.283,1.283,0,0,0,1.691.077l2.452-2.655a2.146,2.146,0,0,1,2.354-.532l1.874.724c.845.039,1.249.484,1.614,1.776l.689,3.435m8.3-19.418a7.468,7.468,0,0,1-6.711,7.784A6.919,6.919,0,0,1,163,99.251a7.13,7.13,0,0,1,6.489-7.58,7.206,7.206,0,0,1,7.962,6.534" fill="#683c99"/><path d="M291.171,102.766a.993.993,0,0,0,.786-1.612L220.531,11.58a1.506,1.506,0,0,0-1.131-.6c-.7.028-2.4.064-2.4.064l.771,88.917A2.015,2.015,0,0,0,219.765,102ZM266.058,90l-33.133-.355A.936.936,0,0,1,232,88.7l.438-40.817a.445.445,0,0,1,.843-.193l33.142,41.563A.461.461,0,0,1,266.058,90Z" fill="#552786"/><path d="M288.457,102.766a.993.993,0,0,0,.787-1.612L217.817,11.58c-.662-.846-1.806-.591-1.817.417l-.943,87.966A2.016,2.016,0,0,0,217.051,102ZM263.058,90l-33.133-.355A.936.936,0,0,1,229,88.7l.438-40.817a.445.445,0,0,1,.843-.193l33.142,41.563A.461.461,0,0,1,263.058,90Z" fill="#683c99"/><path d="M429.065,184.228l-36.488.171c-13.135-5.967-21.79-18.338-21.857-32.609-.07-14.937,9.5-28.027,23.259-33.8l-.174-37.18,32.713-.153.174,37.18c14.135,5.64,23.853,18.641,23.923,33.577C450.682,165.687,441.77,178.14,429.065,184.228Z" fill="#683c99"/><path d="M393.823,85.153l-.018-3.909,32.713-.153L426.536,85Z" fill="#552786"/><path d="M393.979,118.383,393.93,108l32.713-.153.049,10.383c14.135,5.64,23.853,18.64,23.923,33.577.067,14.27-8.845,26.724-21.55,32.812l-36.488.17c-13.135-5.967-21.79-18.338-21.857-32.608C370.65,137.244,380.223,124.153,393.979,118.383Z" fill="#552786"/><path d="M386.953,122l46.949-.22c10.125,6.656,16.656,17.587,16.713,29.819.067,14.27-8.845,26.724-21.55,32.812l-36.488.17c-13.135-5.967-21.79-18.338-21.857-32.608C370.662,139.741,377.075,128.75,386.953,122Z" fill="#552786"/><path d="M393.683,72.57l34.277-.16a4.325,4.325,0,0,1,4.387,4.095v.322c.011,2.225-2,3.814-4.349,3.825l-1.012,0-.33,0h0l-27.9.13-4.038.019-1,0c-2.684.013-4.375-1.559-4.385-3.784l0-.322A4.118,4.118,0,0,1,393.683,72.57Z" fill="#683c99"/><path d="M392.118,77.223l0-.322a4.174,4.174,0,0,1,4.455-4.137l31.283-.146a4.386,4.386,0,0,1,4.493,4.095v.322c.011,2.224-2.044,3.814-4.456,3.825l-1.036,0h-.338l-24.748.116L397.94,81h-.306l-1.025,0C393.86,81.019,392.128,79.448,392.118,77.223Z" fill="#683c99"/><path d="M429.065,184.228l-36.488.171c-13.135-5.967-21.79-18.338-21.857-32.609a33.885,33.885,0,0,1,6.1-20.048l67.5-.316a36.52,36.52,0,0,1,6.291,19.99C450.682,165.687,441.77,178.14,429.065,184.228Z" fill="#552786"/><path d="M393.979,118.383,393.93,108l4.136-.019.048,10.382a41.217,41.217,0,0,0-17.166,13.75l-4.124.019a34.45,34.45,0,0,0-6.107,19.414C370.647,136.6,380.223,124.153,393.979,118.383Z" fill="#552786"/><path d="M386.866,122l4.264-.02a42.649,42.649,0,0,0-10.182,9.924l-4.124.02a34.447,34.447,0,0,0-6.107,19.414C370.66,139.133,377.036,128.6,386.866,122Z" fill="#552786"/><circle cx="417" cy="167" r="4" fill="#683c99"/><circle cx="410" cy="121" r="3" fill="#683c99"/><circle cx="404" cy="135" r="6" fill="#683c99"/><path d="M1260.271,110.847V65.732c0-1.633-1.485-2.793-3.575-2.793h-14.342c-2.08,0-3.575,1.16-3.575,2.793-.293,37.342-.293,45.115-.293,45.115,0,1.626,1.788,3.031,3.868,3.031H1256.7A3.3,3.3,0,0,0,1260.271,110.847Z" fill="#683c99"/><path d="M1239.082,64.564a1.708,1.708,0,0,0-.3,1.168c-.293,37.342-.293,45.115-.293,45.115.293-37.341.293-45.115.293-45.115A1.708,1.708,0,0,1,1239.082,64.564Zm-.6,46.283h0c0,1.626,1.788,3.031,3.868,3.031h0C1240.274,113.878,1238.486,112.473,1238.486,110.847Z" fill="#2b6aa8"/><path d="M1245.041,62.939h-2.687a3.831,3.831,0,0,0-3.272,1.625,1.708,1.708,0,0,0-.3,1.168c-.293,37.342-.293,45.115-.293,45.115h0c0,1.626,1.788,3.031,3.868,3.031h2.687Z" fill="#552786"/><path d="M1235.022,110.847V81.515c0-1.634-1.484-2.794-3.575-2.794h-14.341c-2.081,0-3.575,1.16-3.575,2.794,0,13.486-.293,29.332-.293,29.332,0,1.626,1.787,3.031,3.868,3.031h14.341A3.3,3.3,0,0,0,1235.022,110.847Z" fill="#683c99"/><path d="M1219.792,78.721h-2.686a3.831,3.831,0,0,0-3.272,1.626,1.705,1.705,0,0,0-.3,1.168c0,13.157-.293,29.332-.293,29.332h0c0,1.626,1.787,3.031,3.868,3.031h2.686Z" fill="#552786"/><path d="M1285.055,110.847V58.977c0-1.649-1.5-3.054-3.606-3.054h-14.311c-2.09,0-3.585,1.405-3.585,2.817v52.107a3.306,3.306,0,0,0,3.585,3.031h14.311C1283.56,113.878,1285.055,112.473,1285.055,110.847Z" fill="#683c99"/><path d="M1263.553,110.847h0a3.306,3.306,0,0,0,3.585,3.031h0A3.306,3.306,0,0,1,1263.553,110.847Z" fill="#2b6aa8"/><path d="M1269.815,55.923h-2.677a3.308,3.308,0,0,0-3.585,3.054v51.87a3.306,3.306,0,0,0,3.585,3.031h2.677Z" fill="#552786"/><path d="M1310.7,110.847c.3-57.164.3-64.938.3-64.938,0-1.633-1.8-2.8-3.878-2.8H1292.8c-2.081,0-3.575,1.168-3.575,2.8v64.938a3.3,3.3,0,0,0,3.575,3.031h14.321A3.3,3.3,0,0,0,1310.7,110.847Z" fill="#683c99"/><path d="M1289.226,110.847h0a3.3,3.3,0,0,0,3.575,3.031h0A3.3,3.3,0,0,1,1289.226,110.847Z" fill="#2b6aa8"/><path d="M1295.487,43.108H1292.8c-2.081,0-3.575,1.168-3.575,2.8v64.938a3.3,3.3,0,0,0,3.575,3.031h2.686Z" fill="#552786"/><polygon points="1274.885 44.504 1252.562 50.387 1252.184 49.302 1274.592 43.336 1301.672 27.157 1301.672 28.711 1274.885 44.504" fill="#552786" stroke="#552786" stroke-miterlimit="10" stroke-width="2"/><polygon points="1222.778 68.666 1221.856 67.811 1247.925 50.652 1248.846 51.507 1222.778 68.666" fill="#552786" stroke="#552786" stroke-miterlimit="10" stroke-width="2"/><circle cx="1223.159" cy="67.579" r="4.397" fill="#683c99"/><circle cx="1250.366" cy="51.255" r="4.397" fill="#683c99"/><circle cx="1274.464" cy="44.259" r="4.397" fill="#683c99"/><circle cx="1300.117" cy="29.489" r="4.397" fill="#683c99"/><path d="M1669,171h-13V101.567A3.567,3.567,0,0,0,1652.433,98H1548.577a3.578,3.578,0,0,0-3.577,3.577V171h-14v2h-.033a.132.132,0,0,0,.033.067V174h2.114c2.194.567,6.528,1.135,14.957,1h103.9c6.582.135,9.988-.433,11.72-1H1669Z" fill="#552786"/><rect x="1551" y="104" width="99" height="62" fill="#683c99"/><path d="M1567,133.66v-.854l19-10.387V125.5l-14,7.608v.083l14,6.716v3.108Z" fill="#552786"/><path d="M1594.547,152h-2.767l15.717-37h2.834Z" fill="#552786"/><path d="M1616,143.018V140.4l15-7.151v-.112l-15-8.126v-2.593l19,10.387v.854Z" fill="#552786"/><path d="M1390.258,171.052a15.01,15.01,0,0,1-6.671-1.29s-.8-.454-1.289-.693c-6.982-3.419-14.3-4.54-18.288-3.625l-.032-4.893,11.106-.074,7.552-.051,22.212-.148c.039,5.783-8.813,10.735-14.59,10.774" fill="#683c99"/><polygon points="1391.077 160.371 1391.119 166.597 1404.848 160.279 1391.077 160.371" fill="#552786"/><path d="M1382.579,151.975a14.947,14.947,0,0,1,7.561-2.414c4.431-.154,14.67,4.934,14.708,10.718l-22.212.148-7.552.05-11.106.074-.033-4.892c4,.862,12-.08,18.635-3.683" fill="#683c99"/><polygon points="1391.077 160.371 1391.036 154.144 1404.848 160.279 1391.077 160.371" fill="#333"/><path d="M1288.57,177.958a3.506,3.506,0,0,1,3.531-3.583c31.541-.211,46.16-6.536,58.123-11.062l.05,7.562c-11.962,4.526-27.473,10.412-58.125,10.616a3.825,3.825,0,0,1-3.579-3.533" fill="#552786"/><path d="M1350.192,158.419h0l-.054-8.008c.892.441,2.047.9,2.94,1.343,7.571,3.062,13.541,5.222,21.538,5.168-7.107.048-12.427,1.863-18.19,3.68-2.227-.875-4.007-1.309-6.234-2.183" fill="#683c99"/><path d="M1291.926,148.131a3.825,3.825,0,0,1-3.578-3.533,3.508,3.508,0,0,1,3.531-3.583c30.652-.2,46.235,5.029,58.26,9.4l.054,8.006c-12.028-4.813-26.726-10.5-58.267-10.288" fill="#552786"/><path d="M1374.616,156.922a3.824,3.824,0,0,1,3.577,3.534,3.506,3.506,0,0,1-3.53,3.583,47.466,47.466,0,0,1-18.237-3.438c5.764-1.816,11.082-3.632,18.19-3.679" fill="#683c99"/><path d="M1388.339,149.714l.066,9.784-8,.054s-6.855-1.841-16.454-3.987c4.737,1.059,15.34-1.75,18.381-3.635A14.713,14.713,0,0,1,1388.339,149.714Z" fill="#552786"/><polygon points="1391.077 160.371 1391.036 154.144 1404.848 160.279 1391.077 160.371" fill="#552786"/><path d="M1384.816,154.186a6.227,6.227,0,0,0,.083,12.453,6.227,6.227,0,0,0-.083-12.453" fill="#683c99"/><path d="M1352.932,169.521q-1.329.677-2.657,1.354l-.051-7.563c.442-.447,1.332-.453,1.772-.9l10.686,3.487c-3.1.911-6.207,2.266-9.75,3.624" fill="#683c99"/><path d="M1363.548,162.779a33.282,33.282,0,0,1-7.122-2.178s3.115.87,7.122,2.178" fill="#505050"/><path d="M1363.548,162.779c1.781.433,5.337,2,7.611,2.726a34.821,34.821,0,0,0-8.478.392L1352,162.41a19.1,19.1,0,0,1,4.43-1.809c1.977.574,4.318,1.218,7.122,2.178" fill="#552786"/><path d="M302.173,201.789a16.393,16.393,0,0,0-1.74.1,26.463,26.463,0,0,0-45-26.444,34.246,34.246,0,0,0-67.944,6.109c0,.294.015.584.022.877A26.693,26.693,0,1,0,180.744,235l120.529-.214c9.341,0,16.727-8.026,16.727-16.911A15.867,15.867,0,0,0,302.173,201.789Z" fill="#683c99"/><path d="M598.167,73.864a16.284,16.284,0,0,1,1.735.1,26.4,26.4,0,0,1,44.9-26.384,34.169,34.169,0,0,1,67.791,6.095c0,.293-.015.583-.022.875A26.633,26.633,0,1,1,719.321,107l-120.257-.214c-9.319,0-16.689-8.007-16.689-16.872A15.831,15.831,0,0,1,598.167,73.864Z" fill="none" stroke="#683c99" stroke-miterlimit="10" stroke-width="5.833"/><circle cx="1391.397" cy="72.064" r="43.603" fill="#552786"/><path d="M1422.377,102.745a43.6,43.6,0,0,0-61.66-61.661Z" fill="#552786"/><circle cx="1391.397" cy="72.064" r="37.935" fill="#683c99"/><path d="M1369.612,71.731a21.787,21.787,0,0,1,43.57,0h11.982a33.769,33.769,0,0,0-67.534,0Z" fill="#552786" stroke="#552786" stroke-miterlimit="10" stroke-width="2"/><path d="M1365.126,50.89a33.59,33.59,0,0,0-7.5,20.841h11.982a21.679,21.679,0,0,1,4.835-13.329Z" fill="none"/><path d="M1410.828,62.22l10.683-5.412a33.759,33.759,0,0,0-63.881,14.923h11.982a21.782,21.782,0,0,1,41.216-9.511Z" fill="#683c99" stroke="#552786" stroke-miterlimit="10" stroke-width="2"/><path d="M1413.07,49.64l-.856-.817-19.16,18.32a4.939,4.939,0,1,0,2.852,2.662Z" fill="#552786"/><path d="M937.144,108.623a1.314,1.314,0,0,0,1.229.907l2.757-.086A1.418,1.418,0,0,0,942.256,108l.155-3.4a1.966,1.966,0,0,1,1.365-2.067c.442-.4,1.086-.588,1.529-.994a2.358,2.358,0,0,1,2.316.317l3.081,2.058a1.6,1.6,0,0,0,1.49-.146l2.01-2.249a1.483,1.483,0,0,0-.346-1.72l-2.419-2.663A1.736,1.736,0,0,1,951.11,95l-.2-.222a2.305,2.305,0,0,0,.7-1.457c.039-.851.5-1.682,1.99-1.825l3.2-.5a1.678,1.678,0,0,0,1.124-1.437l-.286-2.994a1.04,1.04,0,0,0-1.228-.907l-3.382-.155a2.021,2.021,0,0,1-2.056-1.37c-.4-.444-.586-1.092-.988-1.535a3.426,3.426,0,0,1,.115-2.549l2.029-2.675a1.544,1.544,0,0,0-.123-1.923l-2.258-1.591a1.283,1.283,0,0,0-1.691-.078l-2.451,2.656a2.156,2.156,0,0,1-2.354.533,6.477,6.477,0,0,0-1.673-.5l-.2-.222a2.233,2.233,0,0,1-1.613-1.775l-.468-3.641a1.313,1.313,0,0,0-1.228-.907l-2.982.29a1.044,1.044,0,0,0-.9,1.236l-.379,3.6c-.057,1.273-.5,1.679-1.144,1.863-.442.406-1.086.589-1.529,1A2.215,2.215,0,0,1,928.6,77.8l-2.863-2.258a1.641,1.641,0,0,0-1.71.345l-2.011,2.253a1.89,1.89,0,0,0,.347,1.718l2.419,2.663c.808.888.99,1.536.326,2.145-.019.425-.261,1.053-.3,1.9-.241.626-.481,1.254-1.97,1.4l-3.42.7a1.326,1.326,0,0,0-.905,1.236l.288,2.993A1.352,1.352,0,0,0,919.809,94l3.6-.048c1.268.057,1.669.5,1.854,1.147a18.957,18.957,0,0,1,.968,1.96,1.912,1.912,0,0,1,.1,2.347l-2.249,2.879a1.656,1.656,0,0,0,.344,1.717l2.037,1.8a1.283,1.283,0,0,0,1.691.077l2.452-2.655a2.146,2.146,0,0,1,2.354-.532l1.874.724c.845.039,1.249.484,1.614,1.776l.689,3.435m8.3-19.418a7.468,7.468,0,0,1-6.711,7.784A6.919,6.919,0,0,1,931,90.251a7.13,7.13,0,0,1,6.489-7.58,7.206,7.206,0,0,1,7.962,6.534" fill="#683c99"/><circle cx="1971.924" cy="71.701" r="38.282" fill="#683c99"/><path d="M1959.8,79.6l-16.055-7.323V69.49l16.055-7.683V65.9l-11.448,4.9v.1l11.448,4.607Z" fill="#552786"/><path d="M1980.221,56.031l-12.016,28.74h-4.847l11.963-28.74Z" fill="#552786"/><path d="M2000.3,72.052l-16.055,7.322V75.3l11.483-4.59v-.068l-11.483-4.916V61.635l16.055,7.632Z" fill="#552786"/><path d="M1245.144,176.623a1.314,1.314,0,0,0,1.229.907l2.757-.086a1.418,1.418,0,0,0,1.126-1.441l.155-3.4a1.966,1.966,0,0,1,1.365-2.067c.442-.4,1.086-.588,1.529-.994a2.358,2.358,0,0,1,2.316.317l3.081,2.058a1.6,1.6,0,0,0,1.49-.146l2.01-2.249a1.483,1.483,0,0,0-.346-1.72l-2.419-2.663a1.736,1.736,0,0,1-.327-2.143l-.2-.222a2.305,2.305,0,0,0,.7-1.457c.039-.851.5-1.682,1.99-1.825l3.2-.5a1.678,1.678,0,0,0,1.124-1.437l-.286-2.994a1.04,1.04,0,0,0-1.228-.907l-3.382-.155a2.021,2.021,0,0,1-2.056-1.37c-.4-.444-.586-1.092-.988-1.535a3.426,3.426,0,0,1,.115-2.549l2.029-2.675a1.544,1.544,0,0,0-.123-1.923l-2.258-1.591a1.283,1.283,0,0,0-1.691-.078l-2.451,2.656a2.156,2.156,0,0,1-2.354.533,6.477,6.477,0,0,0-1.673-.5l-.2-.222a2.233,2.233,0,0,1-1.613-1.775l-.468-3.641a1.313,1.313,0,0,0-1.228-.907l-2.982.29a1.044,1.044,0,0,0-.9,1.236l-.379,3.6c-.057,1.273-.5,1.679-1.144,1.863-.442.406-1.086.589-1.529,1a2.215,2.215,0,0,1-2.535-.117l-2.863-2.258a1.641,1.641,0,0,0-1.71.345l-2.011,2.253a1.89,1.89,0,0,0,.347,1.718l2.419,2.663c.808.888.99,1.536.326,2.145-.019.425-.261,1.053-.3,1.9-.241.626-.481,1.254-1.97,1.4l-3.42.7a1.326,1.326,0,0,0-.9,1.236l.288,2.993a1.352,1.352,0,0,0,1.009,1.11l3.6-.048c1.268.057,1.669.5,1.854,1.147a18.957,18.957,0,0,1,.968,1.96,1.912,1.912,0,0,1,.1,2.347l-2.249,2.879a1.656,1.656,0,0,0,.344,1.717l2.037,1.8a1.283,1.283,0,0,0,1.691.077l2.452-2.655a2.146,2.146,0,0,1,2.354-.532l1.874.724c.845.039,1.249.484,1.614,1.776l.689,3.435m8.3-19.418a7.468,7.468,0,0,1-6.711,7.784,6.919,6.919,0,0,1-7.74-6.738,7.13,7.13,0,0,1,6.489-7.58,7.206,7.206,0,0,1,7.962,6.534" fill="#683c99"/><path d="M1931.888,179.441a1.214,1.214,0,0,0,.072-1.6l-2.122-2.338a1.411,1.411,0,0,0-1.589-.072l-3.615,2.4c-.772-.517-1.7-1.2-2.47-1.714l1.161-4.43a1.091,1.091,0,0,0-.579-1.306l-2.65-1.24a1,1,0,0,0-1.453.413l-2.568,3.885a9.232,9.232,0,0,0-2.832-.768l-.431-4.5A1.09,1.09,0,0,0,1911.75,167l-3.027.022c-.469-.18-.968.277-1.149.749l-1.007,4.6a9.326,9.326,0,0,0-2.891.508l-2.2-4.1a1.594,1.594,0,0,0-1.409-.544l-2.92,1.147a1.089,1.089,0,0,0-.694,1.249l.915,4.363c-.817.443-1.648,1.2-2.464,1.649l-3.532-2.881a1.026,1.026,0,0,0-1.438.094l-2.162,1.983a1.039,1.039,0,0,0-.225,1.431l2.534,3.8a13.086,13.086,0,0,0-1.874,2.636l-4.391-1.48a1.389,1.389,0,0,0-1.467.733l-1.238,2.667a1.384,1.384,0,0,0,.563,1.625l3.713,2.409c-.361.945-.406,1.9-.768,2.847l-4.48.437a1.4,1.4,0,0,0-1.013,1.234l-.131,2.875a1.391,1.391,0,0,0,.895,1.321l4.588.689a18.994,18.994,0,0,0,.489,3.225l-4.084,2.214a1.011,1.011,0,0,0-.543,1.417l.99,2.766a1.489,1.489,0,0,0,1.393.863l4.511-1.076q.66,1.231,1.321,2.461l-2.871,3.553a1.5,1.5,0,0,0,.093,1.444l2.123,2.338a1.2,1.2,0,0,0,1.423.225l3.782-2.55c.771.517,1.7,1.2,2.469,1.713l-1.158,4.43a1.088,1.088,0,0,0,.578,1.307l2.8,1.409a1.359,1.359,0,0,0,1.453-.416l2.4-3.731c.954.042,1.894.405,2.848.449l.264,4.653a1.387,1.387,0,0,0,1.228,1.016l3.013.3a1.929,1.929,0,0,0,1.164-1.068l.841-4.442c1.12-.111,2.089-.387,3.208-.5l2.051,3.934a1.091,1.091,0,0,0,1.409.545l2.752-1a1.3,1.3,0,0,0,.862-1.4l-.915-4.363a11.416,11.416,0,0,0,2.464-1.65l3.533,2.883a1.06,1.06,0,0,0,1.589.072l2.162-1.983a1.073,1.073,0,0,0,.074-1.6l-2.535-3.8a7.99,7.99,0,0,0,1.873-2.634l4.393,1.479a1.079,1.079,0,0,0,1.3-.58l1.4-2.818a1.621,1.621,0,0,0-.411-1.46l-3.865-2.576a8.2,8.2,0,0,0,.6-2.695l4.645-.59c.484-.137.984-.595,1-.915l.147-3.194a1.091,1.091,0,0,0-1.062-1.169l-4.421-.84a17.469,17.469,0,0,0-.337-3.058l3.764-2.23a1.168,1.168,0,0,0,.709-1.567l-.988-2.767a1,1,0,0,0-1.407-.545l-4.5.758q-.66-1.232-1.321-2.461l2.7-3.4m-19.612,14.317a4.653,4.653,0,0,1-.307,6.708,4.552,4.552,0,0,1-6.51-.455,4.627,4.627,0,1,1,6.817-6.253" fill="#683c99"/><path d="M2116.065,126.228l-36.488.171c-13.135-5.967-21.79-18.338-21.857-32.609-.07-14.937,9.5-28.027,23.259-33.8l-.174-37.18,32.713-.153.174,37.18c14.135,5.64,23.853,18.641,23.923,33.577C2137.682,107.687,2128.77,120.14,2116.065,126.228Z" fill="#683c99"/><path d="M2080.823,26.721l-.018-3.909,32.713-.153.018,3.908Z" fill="#552786"/><path d="M2080.979,59.992l-.049-10.382,32.713-.153.049,10.382c14.135,5.64,23.853,18.64,23.923,33.577.067,14.271-8.845,26.724-21.55,32.812l-36.488.171c-13.135-5.967-21.79-18.338-21.857-32.609C2057.65,78.853,2067.223,65.763,2080.979,59.992Z" fill="#552786"/><path d="M2073.953,63.818l46.949-.22c10.125,6.656,16.656,17.586,16.713,29.818.067,14.271-8.845,26.724-21.55,32.812l-36.488.171c-13.135-5.967-21.79-18.338-21.857-32.609C2057.662,81.558,2064.075,70.567,2073.953,63.818Z" fill="#552786"/><path d="M2080.683,14.57l34.277-.16a4.325,4.325,0,0,1,4.387,4.095v.322c.011,2.225-1.995,3.814-4.349,3.825l-1.012,0-.33,0h0l-27.9.13-4.038.019-1,.005c-2.684.013-4.375-1.559-4.385-3.784l0-.322A4.118,4.118,0,0,1,2080.683,14.57Z" fill="#683c99"/><path d="M2079.118,19.015l0-.322a4.174,4.174,0,0,1,4.455-4.137l31.283-.146a4.386,4.386,0,0,1,4.493,4.095v.322c.011,2.225-2.044,3.814-4.456,3.825l-1.036,0-.338,0-24.748.115-3.83.018-.306,0-1.025,0C2080.86,22.811,2079.128,21.24,2079.118,19.015Z" fill="#683c99"/><path d="M2116.065,126.228l-36.488.171c-13.135-5.967-21.79-18.338-21.857-32.609a33.885,33.885,0,0,1,6.1-20.048l67.5-.316a36.52,36.52,0,0,1,6.291,19.99C2137.682,107.687,2128.77,120.14,2116.065,126.228Z" fill="#552786"/><path d="M2080.979,59.992l-.049-10.382,4.136-.02.048,10.383a41.215,41.215,0,0,0-17.166,13.749l-4.124.02a34.447,34.447,0,0,0-6.107,19.414C2057.647,78.209,2067.223,65.763,2080.979,59.992Z" fill="#552786"/><path d="M2073.866,63.818l4.264-.02a42.649,42.649,0,0,0-10.182,9.924l-4.124.02a34.447,34.447,0,0,0-6.107,19.414C2057.66,80.951,2064.036,70.415,2073.866,63.818Z" fill="#552786"/><circle cx="2104.029" cy="109.127" r="3.919" fill="#683c99"/><circle cx="2096.778" cy="63.219" r="2.865" fill="#683c99"/><circle cx="2091.383" cy="77.349" r="6.072" fill="#683c99"/><path d="M2424,117h-13V47.567A3.567,3.567,0,0,0,2407.433,44H2303.577A3.578,3.578,0,0,0,2300,47.577V117h-14v2h-.033a.132.132,0,0,0,.033.067V120h2.114c2.194.567,6.528,1.135,14.957,1h103.9c6.582.135,9.988-.433,11.72-1H2424Z" fill="#552786"/><rect x="2305" y="50" width="100" height="62" fill="#683c99"/><path d="M2322,79.66v-.854l19-10.387V71.5l-14,7.608v.083l14,6.716v3.108Z" fill="#552786"/><path d="M2349.547,98h-2.767L2362.5,61h2.834Z" fill="#552786"/><path d="M2371,89.018V86.4l15-7.151v-.112l-15-8.126V68.419l19,10.387v.854Z" fill="#552786"/><path d="M1784.876,56.3l-4.574-4.338a.413.413,0,0,0-.445-.081l-11.985,5.1a.3.3,0,0,0-.173.329l-.028-.006.142,1.959,1.718-.549a22.33,22.33,0,0,0,6.5,2.935c4.889,1.228,10.785-.095,10.785-.095Z" fill="#552786"/><path d="M1811.81,40.167a20.471,20.471,0,0,1-6.278-.341c-2.363-.724-20.754-11.835-20.754-11.835s-5.3-1.462-11.6,3.241c-5.137,3.833-8,10.315-8.881,12.581a.363.363,0,0,0-.015.2l-.047.027.144,1.972,2.131-2.414,11.389-4.667a.5.5,0,0,1,.664.292l8.255,22.335s6.03-5.185,9.395-6.531,11.534-4.481,11.534-4.481l7.353-.868Z" fill="#552786"/><path d="M1811.952,42.138a20.464,20.464,0,0,1-6.277-.341c-2.363-.724-20.755-11.835-20.755-11.835s-5.3-1.462-11.6,3.241c-5.138,3.833-8,10.316-8.882,12.581a.378.378,0,0,0,.5.485l13.105-5.369a.5.5,0,0,1,.664.291l8.255,22.336s6.029-5.186,9.394-6.532,11.535-4.48,11.535-4.48l7.352-.869Z" fill="#683c99"/><path d="M1780,53.852l-11.988,5.1a.3.3,0,0,0-.074.513,23.774,23.774,0,0,0,8.236,4.155c4.888,1.228,10.785-.094,10.785-.094l-1.943-5.256-4.576-4.34A.406.406,0,0,0,1780,53.852Z" fill="#683c99"/><rect x="1787.877" y="43.709" width="11.892" height="10.298" rx="1.832" transform="translate(78.744 576.771) rotate(-18.669)" fill="#552786"/><rect x="1790.045" y="44.878" width="7.134" height="7.656" rx="0.438" transform="translate(78.782 576.695) rotate(-18.669)" fill="#683c99"/><path d="M1897.478,50.457a5.332,5.332,0,1,1,.183-7.538A5.332,5.332,0,0,1,1897.478,50.457Z" fill="#683c99"/><path d="M1893.658,37.8v-.028l-84.767,2.6a.932.932,0,0,0-.892.936l.064,12.528a1.357,1.357,0,0,0,1.3,1.348L1892.8,58.3a10.278,10.278,0,1,0,.858-20.5Zm3.829,14.263a5.331,5.331,0,1,1,.183-7.538A5.332,5.332,0,0,1,1897.487,52.064Z" fill="#552786"/><rect x="1016" y="137" width="96" height="71" rx="3.927" fill="#552786"/><path d="M1108.077,137h-88.154a3.924,3.924,0,0,0-3.923,3.923V146h96v-5.077A3.924,3.924,0,0,0,1108.077,137Z" fill="#683c99"/><rect x="1030" y="155" width="67" height="3" fill="#683c99"/><rect x="1030" y="164" width="67" height="3" fill="#683c99"/><rect x="1038" y="173" width="51" height="3" fill="#683c99"/><rect x="1047" y="182" width="33" height="3" fill="#683c99"/><rect x="1046" y="191" width="52" height="3" fill="#683c99"/><path d="M2457.144,93.623a1.314,1.314,0,0,0,1.229.907l2.757-.086A1.418,1.418,0,0,0,2462.256,93l.155-3.4a1.966,1.966,0,0,1,1.365-2.067c.442-.4,1.086-.588,1.529-.994a2.358,2.358,0,0,1,2.316.317l3.081,2.058a1.6,1.6,0,0,0,1.49-.146l2.01-2.249a1.483,1.483,0,0,0-.346-1.72l-2.419-2.663A1.736,1.736,0,0,1,2471.11,80l-.2-.222a2.305,2.305,0,0,0,.7-1.457c.039-.851.5-1.682,1.99-1.825l3.2-.5a1.678,1.678,0,0,0,1.124-1.437l-.286-2.994a1.04,1.04,0,0,0-1.228-.907l-3.382-.155a2.021,2.021,0,0,1-2.056-1.37c-.4-.444-.586-1.092-.988-1.535a3.426,3.426,0,0,1,.115-2.549l2.029-2.675a1.544,1.544,0,0,0-.123-1.923l-2.258-1.591a1.283,1.283,0,0,0-1.691-.078l-2.451,2.656a2.156,2.156,0,0,1-2.354.533,6.477,6.477,0,0,0-1.673-.5l-.2-.222a2.233,2.233,0,0,1-1.613-1.775l-.468-3.641a1.313,1.313,0,0,0-1.228-.907l-2.982.29a1.044,1.044,0,0,0-.9,1.236l-.379,3.6c-.057,1.273-.5,1.679-1.144,1.863-.442.406-1.086.589-1.529,1a2.215,2.215,0,0,1-2.535-.117l-2.863-2.258a1.641,1.641,0,0,0-1.71.345l-2.011,2.253a1.89,1.89,0,0,0,.347,1.718l2.419,2.663c.808.888.99,1.536.326,2.145-.019.425-.261,1.053-.3,1.9-.241.626-.481,1.254-1.97,1.4l-3.42.7a1.326,1.326,0,0,0-.9,1.236l.288,2.993a1.352,1.352,0,0,0,1.009,1.11l3.6-.048c1.268.057,1.669.5,1.854,1.147a18.957,18.957,0,0,1,.968,1.96,1.912,1.912,0,0,1,.1,2.347l-2.249,2.879a1.656,1.656,0,0,0,.344,1.717l2.037,1.8a1.283,1.283,0,0,0,1.691.077l2.452-2.655a2.146,2.146,0,0,1,2.354-.532l1.874.724c.845.039,1.249.484,1.614,1.776l.689,3.435m8.3-19.418a7.468,7.468,0,0,1-6.711,7.784,6.919,6.919,0,0,1-7.74-6.738,7.13,7.13,0,0,1,6.489-7.58,7.206,7.206,0,0,1,7.962,6.534" fill="#683c99"/><path d="M79.683,13.551l-4.421-.84a17.469,17.469,0,0,0-.337-3.058l3.764-2.23A1.168,1.168,0,0,0,79.4,5.856L78.41,3.089A1,1,0,0,0,77,2.544l-4.5.758q-.66-1.231-1.321-2.461L71.854,0H31.331a6.362,6.362,0,0,0-1.126,1.7L25.814.218a1.387,1.387,0,0,0-1.467.733L23.109,3.618a1.384,1.384,0,0,0,.563,1.625l3.713,2.409c-.361.945-.406,1.9-.768,2.847l-4.48.437a1.4,1.4,0,0,0-1.013,1.234l-.131,2.875a1.391,1.391,0,0,0,.9,1.321l4.588.689a18.994,18.994,0,0,0,.489,3.225l-4.084,2.214a1.011,1.011,0,0,0-.543,1.417l.99,2.766a1.491,1.491,0,0,0,1.393.864l4.511-1.077q.66,1.232,1.321,2.461l-2.871,3.553a1.5,1.5,0,0,0,.093,1.444L29.9,36.26a1.2,1.2,0,0,0,1.423.225l3.782-2.55c.771.516,1.7,1.2,2.469,1.713l-1.158,4.43a1.088,1.088,0,0,0,.577,1.307l2.8,1.409a1.359,1.359,0,0,0,1.453-.416l2.4-3.731c.954.042,1.894.405,2.848.449l.264,4.653a1.387,1.387,0,0,0,1.228,1.016l3.013.3a1.929,1.929,0,0,0,1.164-1.068L53,39.552c1.12-.111,2.089-.387,3.208-.495l2.051,3.934a1.091,1.091,0,0,0,1.409.545l2.752-1a1.3,1.3,0,0,0,.862-1.4l-.915-4.363a11.416,11.416,0,0,0,2.464-1.65l3.533,2.883a1.06,1.06,0,0,0,1.589.072L72.119,36.1a1.073,1.073,0,0,0,.074-1.6l-2.535-3.8a7.973,7.973,0,0,0,1.873-2.635l4.393,1.48a1.079,1.079,0,0,0,1.3-.58l1.4-2.818a1.621,1.621,0,0,0-.411-1.46l-3.865-2.576a8.2,8.2,0,0,0,.6-2.695l4.645-.59c.484-.137.983-.595,1-.915l.147-3.194A1.091,1.091,0,0,0,79.683,13.551ZM53.969,18.466a4.552,4.552,0,0,1-6.51-.455,4.754,4.754,0,0,1,.141-6.558,4.737,4.737,0,0,1,6.676.3A4.653,4.653,0,0,1,53.969,18.466Z" fill="#683c99"/><path d="M87.2,250l-.108-66.59c-.05-3.662-3.757-6.592-8.28-6.544l-6.843.071c-4.523.048-8.15,3.055-8.1,6.717L63.972,250Z" fill="#683c99"/><circle cx="75.162" cy="126.841" r="49.266" fill="#552786"/><path d="M64,184H80v21H64S64.134,187.38,64,184Z" fill="#552786"/><path d="M38.272,162.3A52.02,52.02,0,1,0,37.4,88.737,51.86,51.86,0,0,0,38.272,162.3Zm4.464-4.574a45.629,45.629,0,1,1,64.524-.765A45.68,45.68,0,0,1,42.736,157.725Z" fill="#683c99"/><rect x="43" y="105" width="51" height="9" fill="#683c99"/><rect x="55" y="121" width="54" height="9" fill="#683c99"/><rect x="55" y="138" width="54" height="9" fill="#683c99"/><path d="M87.5,250l-.414-66.59A6.839,6.839,0,0,0,79.924,177l.2,73Z" fill="#552786"/><path d="M2231,250V202.318A10.319,10.319,0,0,0,2220.682,192h-91.364A10.319,10.319,0,0,0,2119,202.318V250Z" fill="#552786"/><rect x="2119" y="213" width="112" height="37" fill="#683c99"/><rect x="2145" y="212" width="4" height="38" fill="#552786"/><rect x="2209" y="200" width="11" height="6" fill="#683c99"/><rect x="2191" y="200" width="11" height="6" fill="#683c99"/><path d="M767,250V202.318A10.319,10.319,0,0,0,756.682,192H665.318A10.319,10.319,0,0,0,655,202.318V250Z" fill="#552786"/><rect x="655" y="213" width="112" height="37" fill="#683c99"/><rect x="681" y="212" width="4" height="38" fill="#552786"/><rect x="745" y="200" width="11" height="6" fill="#683c99"/><rect x="727" y="200" width="11" height="6" fill="#683c99"/><path d="M852.349,187l7.2-.075c4.758-.05,8.572-3.213,8.52-7.064l-.138-83.5c-.053-3.852-3.952-6.934-8.709-6.884l-7.2.075c-4.758.05-8.572,3.213-8.52,7.064l.138,83.5C843.693,183.967,847.592,187.049,852.349,187Z" fill="#683c99"/><path d="M860.32,89.532c4.243.394,7.56,3.283,7.609,6.833l.138,83.5c.048,3.549-3.19,6.507-7.421,6.989" fill="#552786"/><path d="M843.5,97h17v22l-16.951-.093S843.5,97.414,843.5,97Z" fill="#552786"/><path d="M818.979,0A51.814,51.814,0,1,0,891.8,0Z" fill="#552786"/><path d="M887.616,0c.242.226.489.442.727.675a47.994,47.994,0,1,1-67.868.8c.5-.509,1.006-1,1.519-1.479h-9.212a54.709,54.709,0,1,0,84.081,0Z" fill="#683c99"/><path d="M850.389,6.9a14.192,14.192,0,0,0-5.838,12.486,14.192,14.192,0,0,0-13.749.963,1.057,1.057,0,1,0,1.175,1.758c5.643-3.774,11.442-1.033,12.972-.181a1.057,1.057,0,0,0,1.467.269c.014-.01.025-.025.039-.036s.033-.013.048-.024a1.043,1.043,0,0,0,.288-.3,1.057,1.057,0,0,0-.012-1.169c-.246-1.735-.721-8.13,4.828-12.042A1.057,1.057,0,0,0,850.389,6.9Z" fill="#683c99"/><path d="M853.068,62.506a1.413,1.413,0,0,1-.146.088,1.48,1.48,0,0,1-2-.615c-2.134-4.027-2.156-8.649-.064-13.366a23.218,23.218,0,0,1,7.21-9.031,1.48,1.48,0,0,1,1.72,2.409c-3.66,2.614-10.317,10.928-6.25,18.6A1.481,1.481,0,0,1,853.068,62.506Z" fill="#683c99"/><path d="M844.623,59.421a1.513,1.513,0,0,1-.309.162,1.48,1.48,0,0,1-1.912-.851c-3.349-8.723,1.76-19.887,11.385-24.882a1.48,1.48,0,0,1,1.364,2.627c-8.194,4.253-12.764,13.958-9.986,21.194A1.48,1.48,0,0,1,844.623,59.421Z" fill="#683c99"/><path d="M846.887,37.256l-.052.034c-6.238,3.916-12.323,2.62-16.7-3.555a1.48,1.48,0,1,1,2.415-1.711c2.4,3.391,6.554,6.622,12.707,2.759a1.48,1.48,0,0,1,1.626,2.473Z" fill="#683c99"/><path d="M881.359,43.081a1.636,1.636,0,0,0,.135-.105,1.481,1.481,0,0,0,.145-2.088c-2.992-3.438-7.3-5.119-12.452-4.861a23.218,23.218,0,0,0-11.018,3.484,1.48,1.48,0,0,0,1.63,2.471c3.755-2.477,13.9-5.7,19.607.849A1.48,1.48,0,0,0,881.359,43.081Z" fill="#683c99"/><path d="M881.514,34.091a1.532,1.532,0,0,0,.262-.23,1.48,1.48,0,0,0-.108-2.09c-6.938-6.259-19.191-5.5-27.311,1.687a1.48,1.48,0,0,0,1.962,2.217c6.913-6.12,17.611-6.9,23.366-1.707A1.482,1.482,0,0,0,881.514,34.091Z" fill="#683c99"/><path d="M860.014,28.242l.051-.036c5.895-4.415,6.872-10.56,2.679-16.859a1.48,1.48,0,1,0-2.464,1.64c2.3,3.458,3.825,8.495-1.99,12.85a1.48,1.48,0,0,0,1.724,2.405Z" fill="#683c99"/><ellipse cx="846.357" cy="21.918" rx="7.929" ry="6.601" transform="translate(136.233 482.922) rotate(-34.475)" fill="#683c99"/><ellipse cx="857.154" cy="37.644" rx="14.8" ry="18.394" transform="translate(129.228 491.796) rotate(-34.475)" fill="#683c99"/><path d="M1570.933,15.551l-4.421-.84a17.469,17.469,0,0,0-.337-3.058l3.764-2.23a1.168,1.168,0,0,0,.709-1.567l-.988-2.767a1,1,0,0,0-1.407-.545l-4.5.758q-.66-1.231-1.321-2.461L1564.694,0H1522.62l.709,1.062a13.086,13.086,0,0,0-1.874,2.636l-4.392-1.48a1.387,1.387,0,0,0-1.466.733l-1.238,2.667a1.384,1.384,0,0,0,.563,1.625l3.713,2.409c-.361.945-.406,1.9-.768,2.847l-4.48.437a1.4,1.4,0,0,0-1.013,1.234l-.131,2.875a1.391,1.391,0,0,0,.895,1.321l4.588.689a18.994,18.994,0,0,0,.489,3.225l-4.084,2.214a1.011,1.011,0,0,0-.543,1.417l.99,2.766a1.491,1.491,0,0,0,1.393.864l4.511-1.077q.66,1.232,1.321,2.461l-2.871,3.553a1.5,1.5,0,0,0,.093,1.444l2.123,2.338a1.2,1.2,0,0,0,1.423.225l3.782-2.55c.771.516,1.7,1.2,2.469,1.713l-1.158,4.43a1.088,1.088,0,0,0,.577,1.307l2.8,1.409a1.359,1.359,0,0,0,1.453-.416l2.4-3.731c.954.042,1.894.405,2.848.449l.264,4.653a1.387,1.387,0,0,0,1.228,1.016l3.013.3a1.929,1.929,0,0,0,1.164-1.068l.841-4.442c1.12-.111,2.089-.387,3.208-.495l2.051,3.934a1.091,1.091,0,0,0,1.409.545l2.752-1a1.3,1.3,0,0,0,.862-1.4l-.915-4.363a11.411,11.411,0,0,0,2.463-1.65l3.534,2.883a1.06,1.06,0,0,0,1.589.072l2.162-1.983a1.073,1.073,0,0,0,.074-1.6l-2.535-3.8a7.988,7.988,0,0,0,1.873-2.635l4.393,1.48a1.079,1.079,0,0,0,1.3-.58l1.4-2.818a1.617,1.617,0,0,0-.41-1.46l-3.865-2.576a8.2,8.2,0,0,0,.6-2.695l4.645-.59c.484-.137.983-.595,1-.915L1572,16.72A1.091,1.091,0,0,0,1570.933,15.551Zm-25.714,4.915a4.552,4.552,0,0,1-6.51-.455,4.627,4.627,0,1,1,6.817-6.253A4.653,4.653,0,0,1,1545.219,20.466Z" fill="#683c99"/><path d="M2019.271,232.847V187.732c0-1.633-1.485-2.793-3.575-2.793h-14.342c-2.08,0-3.575,1.16-3.575,2.793-.293,37.342-.293,45.115-.293,45.115,0,1.626,1.788,3.031,3.868,3.031H2015.7A3.3,3.3,0,0,0,2019.271,232.847Z" fill="#683c99"/><path d="M1998.082,186.564a1.708,1.708,0,0,0-.3,1.168c-.293,37.342-.293,45.115-.293,45.115.293-37.341.293-45.115.293-45.115A1.708,1.708,0,0,1,1998.082,186.564Zm-.6,46.283h0c0,1.626,1.788,3.031,3.868,3.031h0C1999.274,235.878,1997.486,234.473,1997.486,232.847Z" fill="#2b6aa8"/><path d="M2004.041,184.939h-2.687a3.831,3.831,0,0,0-3.272,1.625,1.708,1.708,0,0,0-.3,1.168c-.293,37.342-.293,45.115-.293,45.115h0c0,1.626,1.788,3.031,3.868,3.031h2.687Z" fill="#552786"/><path d="M1994.022,232.847V203.515c0-1.634-1.484-2.794-3.575-2.794h-14.341c-2.081,0-3.575,1.16-3.575,2.794,0,13.486-.293,29.332-.293,29.332,0,1.626,1.787,3.031,3.868,3.031h14.341A3.3,3.3,0,0,0,1994.022,232.847Z" fill="#683c99"/><path d="M1978.792,200.721h-2.686a3.831,3.831,0,0,0-3.272,1.626,1.705,1.705,0,0,0-.3,1.168c0,13.157-.293,29.332-.293,29.332h0c0,1.626,1.787,3.031,3.868,3.031h2.686Z" fill="#552786"/><path d="M2044.055,232.847v-51.87c0-1.649-1.5-3.054-3.606-3.054h-14.311c-2.09,0-3.585,1.405-3.585,2.817v52.107a3.306,3.306,0,0,0,3.585,3.031h14.311C2042.56,235.878,2044.055,234.473,2044.055,232.847Z" fill="#683c99"/><path d="M2022.553,232.847h0a3.306,3.306,0,0,0,3.585,3.031h0A3.306,3.306,0,0,1,2022.553,232.847Z" fill="#2b6aa8"/><path d="M2028.815,177.923h-2.677a3.308,3.308,0,0,0-3.585,3.054v51.87a3.306,3.306,0,0,0,3.585,3.031h2.677Z" fill="#552786"/><path d="M2069.7,232.847c.3-57.164.3-64.938.3-64.938,0-1.633-1.8-2.8-3.878-2.8H2051.8c-2.081,0-3.575,1.168-3.575,2.8v64.938a3.3,3.3,0,0,0,3.575,3.031h14.321A3.3,3.3,0,0,0,2069.7,232.847Z" fill="#683c99"/><path d="M2048.226,232.847h0a3.3,3.3,0,0,0,3.575,3.031h0A3.3,3.3,0,0,1,2048.226,232.847Z" fill="#2b6aa8"/><path d="M2054.487,165.108H2051.8c-2.081,0-3.575,1.168-3.575,2.8v64.938a3.3,3.3,0,0,0,3.575,3.031h2.686Z" fill="#552786"/><polygon points="2033.885 166.504 2011.562 172.387 2011.184 171.302 2033.592 165.336 2060.672 149.157 2060.672 150.711 2033.885 166.504" fill="#552786" stroke="#552786" stroke-miterlimit="10" stroke-width="2"/><polygon points="1981.778 190.666 1980.856 189.811 2006.925 172.652 2007.846 173.507 1981.778 190.666" fill="#552786" stroke="#552786" stroke-miterlimit="10" stroke-width="2"/><circle cx="1982.159" cy="189.579" r="4.397" fill="#683c99"/><circle cx="2009.366" cy="173.255" r="4.397" fill="#683c99"/><circle cx="2033.464" cy="166.259" r="4.397" fill="#683c99"/><circle cx="2059.117" cy="151.489" r="4.397" fill="#683c99"/><path d="M1510.489,249a15.682,15.682,0,0,0-14.316-9.211,16.378,16.378,0,0,0-1.74.1,26.463,26.463,0,0,0-45-26.444,34.246,34.246,0,0,0-67.944,6.109c0,.294.015.584.022.877A26.672,26.672,0,0,0,1348.418,249Z" fill="#683c99"/><path d="M2500,200h-90.936a14.255,14.255,0,0,1-13.772-14.086,12.867,12.867,0,0,1,12.875-13.133,13.342,13.342,0,0,1,1.423.079l4.738.512-1.7-4.452a23.486,23.486,0,0,1,39.939-23.467l4,4.765,1.1-6.124A31.228,31.228,0,0,1,2500,120.651v-6.207a37.071,37.071,0,0,0-46.766,23.486,29.328,29.328,0,0,0-47.252,29.14,18.647,18.647,0,0,0-16.524,18.844A20.428,20.428,0,0,0,2409.06,206H2500Z" fill="#683c99"/><line x1="638.5" x2="643" y2="24.377" fill="none" stroke="#683c99" stroke-miterlimit="10" stroke-width="2" stroke-dasharray="2 3"/><line x1="282.5" y1="64.5" x2="412" fill="none" stroke="#683c99" stroke-miterlimit="10" stroke-width="1.963" stroke-dasharray="1.963 2.944"/><line x1="87" y1="39" x2="146" y2="79" fill="none" stroke="#683c99" stroke-miterlimit="10" stroke-width="2" stroke-dasharray="2 3"/><polyline points="159 125 102 203 0 186" fill="none" stroke="#683c99" stroke-miterlimit="10" stroke-width="2" stroke-dasharray="2 3"/><polyline points="312 177 417 147 642 220" fill="none" stroke="#683c99" stroke-miterlimit="10" stroke-width="2" stroke-dasharray="2 3"/><line x1="1211.918" x2="1280.5" y2="29.739" fill="none" stroke="#683c99" stroke-miterlimit="10" stroke-width="2" stroke-dasharray="2 3"/><line x1="1075" y1="130.316" x2="1150.701" y2="3" fill="none" stroke="#683c99" stroke-miterlimit="10" stroke-width="2" stroke-dasharray="2 3"/><polyline points="1124 178 1335 230 1378 124" fill="none" stroke="#683c99" stroke-miterlimit="10" stroke-width="2" stroke-dasharray="2 3"/><line x1="1435" y1="40" x2="1504" y2="21" fill="none" stroke="#683c99" stroke-miterlimit="10" stroke-width="2" stroke-dasharray="2 3"/><line x1="1435" y1="98" x2="1531" y2="127" fill="none" stroke="#683c99" stroke-miterlimit="10" stroke-width="2" stroke-dasharray="2 3"/><polyline points="1666 127 1846 66 1992 166" fill="none" stroke="#683c99" stroke-miterlimit="10" stroke-width="2" stroke-dasharray="2 3"/><line x1="1661" y1="127" x2="1866" y2="187" fill="none" stroke="#683c99" stroke-miterlimit="10" stroke-width="2" stroke-dasharray="2 3"/><line x1="2332.75" y1="0.5" x2="2356.75" y2="34.5" fill="none" stroke="#683c99" stroke-miterlimit="10" stroke-width="2" stroke-dasharray="2 3"/><polyline points="2019 82 2104 95 2236.655 -1" fill="none" stroke="#683c99" stroke-miterlimit="10" stroke-width="2" stroke-dasharray="2 3"/><line x1="2142" y1="104" x2="2380" y2="178" fill="none" stroke="#683c99" stroke-miterlimit="10" stroke-width="2" stroke-dasharray="2 3"/><line x1="2168" y1="182" x2="2123" y2="135" fill="none" stroke="#683c99" stroke-miterlimit="10" stroke-width="2" stroke-dasharray="2 3"/><line x1="1538" y1="250" x2="1607" y2="182" fill="none" stroke="#683c99" stroke-miterlimit="10" stroke-width="2" stroke-dasharray="2 3"/><polyline points="781 230 1004 171 750 104.123" fill="none" stroke="#683c99" stroke-miterlimit="10" stroke-width="2" stroke-dasharray="2 3"/><g clip-path="url(#a)"><path d="M2401-23.864c536,429,937-4,1437,153,418.228,131.323,253-322,614-137s571-62,571-62" fill="none" stroke="#0060c4" stroke-miterlimit="10"/><path d="M2399.19-17.722c536,429,939.334-8.095,1439.334,148.905,418.228,131.324,255.666-315.9,616.666-130.9S5023-61.817,5023-61.817" fill="none" stroke="#005ec3" stroke-miterlimit="10"/><path d="M2397.381-11.579c536,429,941.667-12.19,1441.667,144.81,418.228,131.324,258.333-309.81,619.333-124.81S5023-53.769,5023-53.769" fill="none" stroke="#005dc1" stroke-miterlimit="10"/><path d="M2395.571-5.436c536,429,944-16.286,1444,140.714,418.229,131.324,261-303.714,622-118.714S5023-45.722,5023-45.722" fill="none" stroke="#005bc0" stroke-miterlimit="10"/><path d="M2393.762.707c536,429,946.333-20.381,1446.333,136.619,418.229,131.324,263.667-297.619,624.667-112.619S5023-37.674,5023-37.674" fill="none" stroke="#0059bf" stroke-miterlimit="10"/><path d="M2391.952,6.85c536,429,948.667-24.476,1448.667,132.524C4258.848,270.7,4106.952-152.15,4467.952,32.85S5023-29.626,5023-29.626" fill="none" stroke="#0057be" stroke-miterlimit="10"/><path d="M2390.143,12.993c536,429,951-28.572,1451,128.428,418.228,131.324,269-285.428,630-100.428S5023-21.579,5023-21.579" fill="none" stroke="#0056bc" stroke-miterlimit="10"/><path d="M2388.333,19.136c536,429,953.334-32.667,1453.334,124.333,418.228,131.324,271.666-279.333,632.666-94.333S5023-13.531,5023-13.531" fill="none" stroke="#0054bb" stroke-miterlimit="10"/><path d="M2386.524,25.278c536,429,955.666-36.761,1455.666,120.239,418.229,131.323,274.334-273.239,635.334-88.239S5023-5.483,5023-5.483" fill="none" stroke="#0052ba" stroke-miterlimit="10"/><path d="M2384.714,31.421c536,429,958-40.857,1458,116.143,418.229,131.324,277-267.143,638-82.143S5023,2.564,5023,2.564" fill="none" stroke="#0051b8" stroke-miterlimit="10"/><path d="M2382.905,37.564c536,429,960.333-44.952,1460.333,112.048,418.229,131.324,279.667-261.048,640.667-76.048S5023,10.612,5023,10.612" fill="none" stroke="#004fb7" stroke-miterlimit="10"/><path d="M2381.095,43.707c536,429,962.667-49.048,1462.667,107.952C4261.99,282.983,4126.1-103.293,4487.1,81.707S5023,18.659,5023,18.659" fill="none" stroke="#004db6" stroke-miterlimit="10"/><path d="M2379.286,49.85c536,429,965-53.143,1465,103.857,418.228,131.324,285-248.857,646-63.857S5023,26.707,5023,26.707" fill="none" stroke="#004bb5" stroke-miterlimit="10"/><path d="M2377.476,55.993c536,429,967.333-57.238,1467.334,99.762,418.228,131.323,287.666-242.762,648.666-57.762S5023,34.755,5023,34.755" fill="none" stroke="#004ab3" stroke-miterlimit="10"/><path d="M2375.667,62.136c536,429,969.666-61.334,1469.666,95.666,418.229,131.324,290.334-236.666,651.334-51.666S5023,42.8,5023,42.8" fill="none" stroke="#0048b2" stroke-miterlimit="10"/><path d="M2373.857,68.278c536,429,972-65.428,1472,91.572,418.229,131.324,293-230.572,654-45.572S5023,50.85,5023,50.85" fill="none" stroke="#0046b1" stroke-miterlimit="10"/><path d="M2372.048,74.421c536,429,974.333-69.523,1474.333,87.477,418.228,131.323,295.667-224.477,656.667-39.477S5023,58.9,5023,58.9" fill="none" stroke="#0045af" stroke-miterlimit="10"/><path d="M2370.238,80.564c536,429,976.667-73.619,1476.667,83.381,418.228,131.324,298.333-218.381,659.333-33.381S5023,66.945,5023,66.945" fill="none" stroke="#0043ae" stroke-miterlimit="10"/><path d="M2368.429,86.707c536,429,979-77.714,1479,79.286,418.228,131.324,301-212.286,662-27.286S5023,74.993,5023,74.993" fill="none" stroke="#0041ad" stroke-miterlimit="10"/><path d="M2366.619,92.85c536,429,981.333-81.81,1481.333,75.19,418.229,131.324,303.667-206.19,664.667-21.19S5023,83.04,5023,83.04" fill="none" stroke="#003fac" stroke-miterlimit="10"/><path d="M2364.81,98.993c536,429,983.666-85.9,1483.666,71.1,418.229,131.324,306.334-200.095,667.334-15.095S5023,91.088,5023,91.088" fill="none" stroke="#003eaa" stroke-miterlimit="10"/><path d="M2363,105.136c536,429,986-90,1486,67,418.228,131.323,309-194,670-9s504-64,504-64" fill="none" stroke="#003ca9" stroke-miterlimit="10"/><path d="M2317,121.136c656-131,777.135-128.04,886,28,90,129,241,242,445,147,238.469-111.052,351-339,599-357,472.613-34.3,592,242,751,383" fill="none" stroke="#0060c4" stroke-miterlimit="10"/><path d="M2320.75,131.073c643.968-120.492,752.692-113.408,881.5,36.125,108.687,126.174,259.562,221.25,465.031,126.344,237.784-109.955,358.293-319.509,601.281-332.094,453.794-23.5,579,232.375,728.063,364.563" fill="none" stroke="#005ec2" stroke-miterlimit="10"/><path d="M2324.5,141.011c631.936-109.985,728.743-98.856,877,44.25,127.763,123.324,278.125,200.5,485.062,105.687C3923.66,182.09,4052.07-9.143,4290.125-16.239c434.857-12.964,566,222.75,705.125,346.125" fill="none" stroke="#005cc1" stroke-miterlimit="10"/><path d="M2328.25,150.948c619.9-99.478,705.181-84.474,872.5,52.375,147.155,120.358,296.688,179.75,505.094,85.031C3942.256,180.594,4078.488,7.593,4311.688,6.073c415.807-2.71,553,213.125,682.187,327.688" fill="none" stroke="#0059bf" stroke-miterlimit="10"/><path d="M2332,160.886c607.872-88.971,681.9-70.3,868,60.5,166.781,117.222,315.25,159,525.125,64.375C3960.852,179.1,4104.83,24.223,4333.25,28.386c396.651,7.229,540,203.5,659.25,309.25" fill="none" stroke="#0057bd" stroke-miterlimit="10"/><path d="M2335.75,170.823c595.84-78.463,658.8-56.344,863.5,68.625,186.57,113.9,333.812,138.25,545.156,43.719C3979.447,177.6,4131.1,40.726,4354.812,50.7c377.4,16.823,527,193.875,636.313,290.813" fill="none" stroke="#0055bc" stroke-miterlimit="10"/><path d="M2339.5,180.761c583.808-67.956,635.815-42.586,859,76.75,206.464,110.395,352.375,117.5,565.188,23.062C3998.043,176.1,4157.3,57.078,4376.375,73.011c358.064,26.041,514,184.25,613.375,272.375" fill="none" stroke="#0052ba" stroke-miterlimit="10"/><path d="M2343.25,190.7c571.776-57.448,612.9-29,854.5,84.875,226.42,106.722,370.938,96.75,585.219,2.406,233.67-103.372,400.487-204.729,614.969-182.656,338.666,34.853,501,174.625,590.437,253.938" fill="none" stroke="#0050b8" stroke-miterlimit="10"/><path d="M2347,200.636c559.744-46.941,590-15.573,850,93,246.408,102.9,389.5,76,605.25-18.25,232.985-102.276,407.32-186.177,617.25-157.75,319.233,43.227,488,165,567.5,235.5" fill="none" stroke="#004eb7" stroke-miterlimit="10"/><path d="M2350.75,210.573c547.712-36.433,567.117-2.269,845.5,101.125,266.406,98.946,408.062,55.25,625.281-38.906,232.3-101.179,414.142-167.878,619.531-132.844,299.8,51.138,475,155.375,544.563,217.063" fill="none" stroke="#004cb5" stroke-miterlimit="10"/><path d="M2354.5,220.511c535.68-25.926,544.221,10.928,841,109.25,286.4,94.883,426.625,34.5,645.312-59.563,231.614-100.082,420.984-149.88,621.813-107.937,280.4,58.561,462,145.75,521.625,198.625" fill="none" stroke="#004ab3" stroke-miterlimit="10"/><path d="M2358.25,230.448c523.648-15.418,521.307,24.038,836.5,117.375,306.384,90.728,445.188,13.75,665.344-80.219,230.928-98.985,427.894-132.235,624.094-83.031,261.106,65.482,449,136.125,498.687,180.188" fill="none" stroke="#0047b1" stroke-miterlimit="10"/><path d="M2362,240.386c511.616-4.911,498.369,37.076,832,125.5,326.349,86.494,463.75-7,685.375-100.875,230.242-97.888,434.936-115.005,626.375-58.125,241.973,71.894,436,126.5,475.75,161.75" fill="none" stroke="#0045b0" stroke-miterlimit="10"/><path d="M2365.75,250.323c499.584,5.6,475.406,50.054,827.5,133.625,346.294,82.2,482.312-27.75,705.406-121.531,229.557-96.791,442.193-98.252,628.656-33.219,223.089,77.807,423,116.875,452.813,143.313" fill="none" stroke="#0043ae" stroke-miterlimit="10"/><path d="M2369.5,260.261c487.552,16.1,452.417,62.981,823,141.75,366.218,77.84,500.875-48.5,725.438-142.188,228.871-95.694,449.773-82.045,630.937-8.312,204.55,83.25,410,107.25,429.875,124.875" fill="none" stroke="#0041ac" stroke-miterlimit="10"/><path d="M2373.25,270.2c475.52,26.612,429.534,75.174,818.5,149.875,386.25,72.75,519.438-69.25,745.469-162.844,228.185-94.6,457.818-66.446,633.219,16.594,186.476,88.284,397,97.625,406.937,106.438" fill="none" stroke="#003eab" stroke-miterlimit="10"/><path d="M2377,280.136c463.488,37.119,406.361,88.721,814,158,406,69,538-90,765.5-183.5s466.5-51.5,635.5,41.5,384,88,384,88" fill="none" stroke="#003ca9" stroke-miterlimit="10"/><path d="M2496.435,160.554a1.6,1.6,0,0,1-1.605-1.6v-4.8a1.605,1.605,0,0,1,3.21,0v4.8a1.6,1.6,0,0,1-1.605,1.6Z" fill="#056fcd"/><path d="M2496.435,178.138a1.6,1.6,0,0,1-1.605-1.6v-4.795a1.605,1.605,0,0,1,3.21,0v4.795a1.6,1.6,0,0,1-1.605,1.6Z" fill="#056fcd"/><path d="M2490.014,166.948H2485.2a1.6,1.6,0,0,1-1.605-1.6,1.6,1.6,0,0,1,1.605-1.6h4.815a1.6,1.6,0,1,1,0,3.2Z" fill="#056fcd"/><path d="M2496.435,166.948a1.6,1.6,0,1,0-1.605-1.6A1.6,1.6,0,0,0,2496.435,166.948Z" fill="#056fcd"/><rect x="2456.5" y="4.636" width="2500" height="250" fill="none"/></g></svg>