<svg xmlns="http://www.w3.org/2000/svg" viewBox="0 0 2500 250"><title>banner-bugs-purple</title><rect width="2500" height="250" fill="#5c2d91"/><path d="M1514.33,249.767a69.3,69.3,0,1,0-103.62,0Z" fill="#512e89"/><path d="M2499,45a69.254,69.254,0,1,0,0,81.676Z" fill="#512e89"/><path d="M2043.558,249.26h74.884a69.3,69.3,0,1,0-74.884,0Z" fill="#512e89"/><path d="M1220.561,0h-96.622a69.3,69.3,0,1,0,96.622,0Z" fill="#512e89"/><path d="M171.238,0H95.429a69.3,69.3,0,1,0,75.809,0Z" fill="#512e89"/><path d="M699.771,249.615h62.458a69.3,69.3,0,1,0-62.458,0Z" fill="#512e89"/><path d="M139.884,25.754v9.409a36.623,36.623,0,0,0-8.651-.427l-3.148-7.87A1.769,1.769,0,0,0,124.8,28.18l2.8,6.985c-.9.149-1.81.329-2.72.546-.125.028-.248.06-.371.091s-.215.05-.323.078c-.018,0-.034.013-.052.018-.386.1-.765.226-1.141.356.11.166.222.326.33.5a35.994,35.994,0,0,1,5.044,17.831h29.561v2.83H128.367a36.034,36.034,0,0,1-5.049,17.95c-.15.236-.3.462-.458.689a17.039,17.039,0,0,0,3.874.892.871.871,0,0,0,.357.1l.413.011-2.7,6.76a1.769,1.769,0,0,0,3.285,1.314l3.2-8a57.283,57.283,0,0,0,8.6-.475V86.24a1.769,1.769,0,0,0,3.537,0V75.934a35.331,35.331,0,0,0,7.5-2.985l3.2,9.605a1.768,1.768,0,1,0,3.355-1.118L154.06,71.18c5.814-3.568,9.522-8.964,9.522-15.006,0-5.676-3.272-10.783-8.488-14.339l-.009-.007c-.355-.282-.72-.554-1.089-.822l3.482-10.448a1.768,1.768,0,1,0-3.355-1.119l-3.2,9.6a33.758,33.758,0,0,0-7.5-3.09v-10.2a1.769,1.769,0,0,0-3.537,0Z" fill="#683c99"/><path d="M110.109,52.5l-6.476-6.475a2.5,2.5,0,1,0-1.716,1.785l7.908,7.908c0,.152-.007.3-.007.457v.018l-7.9,7.9a2.518,2.518,0,1,0,1.716,1.786l6.419-6.419a20.825,20.825,0,0,0,10.211,15.425c3.238-4.556,5.3-11.3,5.3-18.828,0-7.431-2.006-14.1-5.175-18.657A20.758,20.758,0,0,0,110.109,52.5Zm8.553,13.461a2.418,2.418,0,1,1-2.418-2.418A2.419,2.419,0,0,1,118.662,65.96Zm0-19.808a2.418,2.418,0,1,1-2.418-2.418A2.419,2.419,0,0,1,118.662,46.152Z" fill="#683c99"/><path d="M175,57.593h95.333a42,42,0,0,1,42,42V176.26a42,42,0,0,0,42,42h36.645a42.017,42.017,0,0,1,40.639,31.355" fill="none" stroke="#683c99" stroke-miterlimit="10" stroke-width="2" stroke-dasharray="2 3"/><path d="M726.409,216.24v-9.409a36.621,36.621,0,0,0,8.651.427l3.148,7.87a1.769,1.769,0,0,0,3.284-1.314l-2.794-6.985c.9-.15,1.809-.329,2.72-.547.124-.027.247-.059.371-.09.107-.027.215-.05.322-.078.018,0,.035-.013.052-.018.386-.1.765-.226,1.141-.356-.109-.166-.222-.327-.329-.5a35.977,35.977,0,0,1-5.044-17.832H708.369v-2.829h29.556a36.031,36.031,0,0,1,5.05-17.95c.149-.236.3-.462.458-.689a17.047,17.047,0,0,0-3.875-.892.867.867,0,0,0-.357-.1l-.413-.012,2.7-6.759a1.769,1.769,0,0,0-3.284-1.314l-3.2,8a57.285,57.285,0,0,0-8.6.474v-9.591a1.769,1.769,0,0,0-3.537,0V166.06a35.318,35.318,0,0,0-7.5,2.985l-3.2-9.606a1.768,1.768,0,1,0-3.355,1.119l3.418,10.255c-5.814,3.569-9.522,8.965-9.522,15.007,0,5.676,3.272,10.782,8.489,14.339l.008.007c.355.282.72.554,1.09.822l-3.483,10.448a1.768,1.768,0,1,0,3.355,1.118l3.2-9.6a33.718,33.718,0,0,0,7.5,3.09v10.2a1.769,1.769,0,0,0,3.537,0Z" fill="#683c99"/><path d="M756.183,189.494l6.476,6.476a2.5,2.5,0,1,0,1.716-1.785l-7.908-7.908c0-.153.007-.3.007-.457V185.8l7.9-7.9a2.516,2.516,0,1,0-1.716-1.785l-6.419,6.418a20.822,20.822,0,0,0-10.21-15.424c-3.239,4.555-5.3,11.3-5.3,18.828,0,7.43,2.007,14.1,5.176,18.656A20.753,20.753,0,0,0,756.183,189.494Zm-8.552-13.46a2.418,2.418,0,1,1,2.418,2.417A2.417,2.417,0,0,1,747.631,176.034Zm0,19.808a2.418,2.418,0,1,1,2.418,2.417A2.417,2.417,0,0,1,747.631,195.842Z" fill="#683c99"/><path d="M2075.116,222.469V213.06a36.623,36.623,0,0,0,8.651.427l3.148,7.87a1.769,1.769,0,0,0,3.285-1.313l-2.795-6.986c.9-.149,1.81-.328,2.72-.546.125-.028.248-.06.371-.091.108-.026.215-.05.323-.078.018,0,.034-.013.052-.018.386-.1.765-.226,1.141-.356-.11-.166-.222-.326-.33-.5a35.991,35.991,0,0,1-5.044-17.831h-29.561v-2.83h29.556a36.027,36.027,0,0,1,5.049-17.949c.15-.237.3-.463.458-.69a17.039,17.039,0,0,0-3.874-.892.871.871,0,0,0-.357-.1l-.413-.011,2.7-6.76a1.769,1.769,0,0,0-3.285-1.314l-3.2,8a57.283,57.283,0,0,0-8.6.475v-9.592a1.769,1.769,0,0,0-3.537,0V172.29a35.272,35.272,0,0,0-7.5,2.984l-3.2-9.6a1.768,1.768,0,1,0-3.355,1.118l3.418,10.256c-5.814,3.568-9.522,8.964-9.522,15.006,0,5.676,3.272,10.783,8.488,14.339l.009.007c.355.282.72.554,1.089.822l-3.482,10.448a1.768,1.768,0,1,0,3.355,1.119l3.2-9.6a33.8,33.8,0,0,0,7.5,3.089v10.2a1.769,1.769,0,0,0,3.537,0Z" fill="#683c99"/><path d="M2104.891,195.724l6.476,6.475a2.5,2.5,0,1,0,1.716-1.785l-7.908-7.908c0-.152.007-.3.007-.457v-.017l7.9-7.9a2.518,2.518,0,1,0-1.716-1.786l-6.419,6.419a20.825,20.825,0,0,0-10.211-15.425c-3.238,4.556-5.3,11.3-5.3,18.828,0,7.431,2.006,14.1,5.175,18.657A20.758,20.758,0,0,0,2104.891,195.724Zm-8.553-13.461a2.418,2.418,0,1,1,2.418,2.418A2.419,2.419,0,0,1,2096.338,182.263Zm0,19.808a2.418,2.418,0,1,1,2.418,2.418A2.419,2.419,0,0,1,2096.338,202.071Z" fill="#683c99"/><path d="M2040,190.63h-95.333a42,42,0,0,1-42-42V71.963a42,42,0,0,0-42-42h-88A40.43,40.43,0,0,1,1733,0" fill="none" stroke="#683c99" stroke-miterlimit="10" stroke-width="2" stroke-dasharray="2 3"/><line x1="2498.656" y1="143.604" x2="2469.289" y2="114.236" fill="none" stroke="#683c99" stroke-miterlimit="10" stroke-width="2" stroke-dasharray="2 3"/><path d="M2466.393,68.942,2459.74,75.6a36.658,36.658,0,0,0-5.815-6.419l3.339-7.791a1.769,1.769,0,0,0-3.252-1.393l-2.963,6.915q-1.116-.8-2.31-1.537c-.108-.068-.217-.133-.326-.2s-.188-.117-.284-.173c-.016-.009-.033-.015-.049-.024-.346-.2-.7-.381-1.059-.555-.039.194-.074.388-.118.584a35.982,35.982,0,0,1-9.042,16.175l20.9,20.9-2,2-20.9-20.9a36.026,36.026,0,0,1-16.263,9.122c-.273.062-.542.112-.811.164a17.056,17.056,0,0,0,2.109,3.37.874.874,0,0,0,.181.323l.285.3-6.692,2.868a1.769,1.769,0,0,0,1.393,3.252l7.924-3.4a57.4,57.4,0,0,0,6.415,5.743l-6.782,6.782a1.768,1.768,0,1,0,2.5,2.5l7.288-7.287a35.342,35.342,0,0,0,7.414,3.193l-4.528,9.056a1.768,1.768,0,1,0,3.163,1.582l4.835-9.669c6.634,1.588,13.072.394,17.344-3.878,4.014-4.014,5.311-9.938,4.137-16.142v-.011c-.052-.45-.117-.9-.189-1.351l9.85-4.926a1.768,1.768,0,1,0-1.581-3.163l-9.052,4.526a33.823,33.823,0,0,0-3.12-7.49l7.21-7.21a1.768,1.768,0,1,0-2.5-2.5Z" fill="#683c99"/><path d="M2426.427,66.8V57.642a2.5,2.5,0,1,0-2.476.049V68.875c-.109.105-.22.21-.328.318l-.012.012h-11.174a2.5,2.5,0,1,0-.426,2.965,2.536,2.536,0,0,0,.377-.489h9.077a20.824,20.824,0,0,0-3.686,18.127c5.511-.931,11.737-4.248,17.058-9.569,5.254-5.254,8.554-11.392,9.532-16.852A20.757,20.757,0,0,0,2426.427,66.8Zm-3.47,15.566a2.418,2.418,0,1,1,0-3.419A2.419,2.419,0,0,1,2422.957,82.366Zm14.006-14.006a2.418,2.418,0,1,1,0-3.42A2.417,2.417,0,0,1,2436.963,68.36Z" fill="#683c99"/><path d="M1432.864,196.681l9.409-.038a36.617,36.617,0,0,0-.392,8.653l-7.858,3.18a1.768,1.768,0,1,0,1.327,3.278l6.974-2.822c.153.9.336,1.808.558,2.718.028.124.06.247.091.371.028.107.052.214.08.322,0,.018.013.034.018.052.106.385.229.764.361,1.139.165-.11.325-.223.495-.331a35.993,35.993,0,0,1,17.811-5.116l-.118-29.561,2.829-.011.119,29.556a36.031,36.031,0,0,1,17.97,4.977c.237.148.463.3.691.455a17.007,17.007,0,0,0,.876-3.878.874.874,0,0,0,.1-.357c0-.14.006-.275.01-.414l6.77,2.677a1.768,1.768,0,0,0,1.3-3.289l-8.018-3.17a57.3,57.3,0,0,0-.509-8.595l9.591-.039a1.769,1.769,0,1,0-.014-3.537l-10.306.041a35.342,35.342,0,0,0-3.015-7.488l9.593-3.24a1.769,1.769,0,1,0-1.132-3.351l-10.242,3.459c-3.592-5.8-9-9.486-15.044-9.462-5.676.023-10.77,3.316-14.305,8.547l-.007.008c-.281.356-.552.722-.818,1.093l-10.462-3.441a1.769,1.769,0,0,0-1.105,3.36l9.614,3.162a33.8,33.8,0,0,0-3.06,7.514l-10.2.041a1.769,1.769,0,1,0,.014,3.537Z" fill="#683c99"/><path d="M1459.729,226.348l-6.45,6.5a2.529,2.529,0,0,0-.613-.077,2.506,2.506,0,1,0,2.4,1.785l7.877-7.939c.152,0,.3.006.456,0h.018l7.933,7.869a2.461,2.461,0,0,0-.1.707,2.511,2.511,0,1,0,1.878-2.43l-6.444-6.393a20.823,20.823,0,0,0,15.383-10.272c-4.568-3.22-11.324-5.251-18.849-5.22-7.43.03-14.1,2.063-18.635,5.25A20.754,20.754,0,0,0,1459.729,226.348Zm13.426-8.606a2.418,2.418,0,1,1-2.408,2.427A2.416,2.416,0,0,1,1473.155,217.742Zm-19.808.079a2.418,2.418,0,1,1-2.408,2.428A2.419,2.419,0,0,1,1453.347,217.821Z" fill="#683c99"/><path d="M1201.922,60.467h-9.409a36.568,36.568,0,0,0,.427-8.651l7.871-3.148a1.769,1.769,0,0,0-1.314-3.284l-6.985,2.794c-.15-.9-.329-1.809-.547-2.72-.028-.124-.06-.247-.09-.371-.027-.107-.051-.215-.079-.322,0-.018-.012-.035-.017-.052-.105-.386-.226-.765-.357-1.141-.165.109-.326.222-.5.329a35.977,35.977,0,0,1-17.832,5.044V78.507h-2.83V48.951a36.03,36.03,0,0,1-17.949-5.05c-.237-.149-.462-.3-.69-.458a16.981,16.981,0,0,0-.891,3.875.869.869,0,0,0-.1.357c0,.14-.007.275-.011.413l-6.76-2.7a1.768,1.768,0,1,0-1.313,3.284l8,3.2a57.408,57.408,0,0,0,.475,8.6h-9.591a1.769,1.769,0,1,0,0,3.537h10.306a35.265,35.265,0,0,0,2.985,7.5l-9.606,3.2a1.768,1.768,0,1,0,1.119,3.355l10.255-3.418c3.568,5.814,8.965,9.522,15.006,9.522,5.676,0,10.783-3.272,14.339-8.489l.008-.008c.281-.355.554-.72.821-1.09l10.448,3.483a1.768,1.768,0,1,0,1.119-3.355l-9.6-3.2a33.813,33.813,0,0,0,3.09-7.5h10.2a1.769,1.769,0,1,0,0-3.537Z" fill="#683c99"/><path d="M1175.177,30.693l6.476-6.476a2.475,2.475,0,0,0,.613.079,2.506,2.506,0,1,0-2.4-1.795l-7.908,7.908c-.152,0-.3-.007-.457-.007h-.017l-7.9-7.9a2.5,2.5,0,1,0-2.4,1.795,2.467,2.467,0,0,0,.612-.079l6.419,6.419a20.822,20.822,0,0,0-15.424,10.21c4.555,3.238,11.3,5.3,18.827,5.3,7.431,0,14.105-2.007,18.657-5.176A20.753,20.753,0,0,0,1175.177,30.693Zm-13.461,8.552a2.418,2.418,0,1,1,2.418-2.418A2.417,2.417,0,0,1,1161.716,39.245Zm19.808,0a2.418,2.418,0,1,1,2.418-2.418A2.417,2.417,0,0,1,1181.524,39.245Z" fill="#683c99"/><path d="M475.381,0V95.26A51.619,51.619,0,1,0,527,43.641v-.006c-44.5,0-76.539,32.98-76.539,72.422s30.536,71.416,68.2,71.416H690" fill="none" stroke="#683c99" stroke-miterlimit="10" stroke-width="2" stroke-dasharray="2 3"/><path d="M1210.284,62.76h188c40,0,66,28.34,66,67.007v34.667" fill="none" stroke="#683c99" stroke-miterlimit="10" stroke-width="2.384" stroke-dasharray="2.384 3.576"/><path d="M895.167,250V172.681A61.532,61.532,0,1,1,956.7,234.212v.008c-53.045,0-91.237-39.314-91.237-86.33s36.4-85.13,81.3-85.13h190.523" fill="none" stroke="#683c99" stroke-miterlimit="10" stroke-width="2.384" stroke-dasharray="2.384 3.576"/><path d="M2194.755,102.249a265.085,265.085,0,0,1,108.813,143.369" fill="none" stroke="#683c99" stroke-miterlimit="10" stroke-width="2.384" stroke-dasharray="2.384 3.576"/><path d="M1797.752,247.852C1829.845,137.945,1930.725,59.8,2051,59.8a264.289,264.289,0,0,1,80.949,12.619" fill="none" stroke="#683c99" stroke-miterlimit="10" stroke-width="2.384" stroke-dasharray="2.384 3.576"/><path d="M1865.607,66.814a4.876,4.876,0,1,1,0-9.748,4.82,4.82,0,0,1,4.8,4.764,4.87,4.87,0,0,1-4.8,4.984m20.048-.646-5.01-4.983L1885,55.547l-6.751-1.733,1.092-7.172-6.973,1.953-2.619-6.724-5.01,4.983-5.46-4.33-1.963,6.717-6.973-1.087,1.741,6.959-6.537,2.6,5.01,4.983-4.575,5.44,6.973,1.953-1.085,6.936,6.752-1.74,2.612,6.725,5.032-5.2,5.667,4.551,1.741-6.937,7.187,1.3-1.955-6.93Z" fill="#683c99"/><path d="M82.387,227.873a4.789,4.789,0,0,0,.381,4.113l.013.023L93.452,249.26h21.683L107.176,236.4l.061-.039-8.861-14.191a4.023,4.023,0,0,0-.305-.42c-.037-.046-.08-.087-.119-.131-.074-.084-.148-.167-.228-.245-.052-.049-.108-.094-.162-.141-.073-.064-.147-.129-.225-.189-.062-.047-.128-.091-.193-.135s-.149-.1-.226-.148-.148-.084-.223-.124-.149-.079-.226-.115-.167-.074-.252-.109-.146-.057-.22-.083c-.094-.033-.189-.063-.285-.091-.068-.02-.137-.038-.206-.055-.106-.026-.212-.051-.32-.071-.06-.012-.121-.021-.182-.03-.041-.007-.081-.015-.123-.021a47.93,47.93,0,1,0-12.494,7.815ZM22.669,174.762a41.933,41.933,0,1,1,31.721,50.1A41.8,41.8,0,0,1,22.669,174.762Z" fill="#683c99"/><path d="M640.925,39.288c-4.881,2.611-6.7,9.123-3.976,14.222a10.619,10.619,0,0,0,9.306,5.783,10,10,0,0,0,4.728-1.2,10.665,10.665,0,1,0-10.058-18.81Zm13.419,11.945a8.675,8.675,0,0,1-4.3,5.1,8.357,8.357,0,0,1-11.327-3.768c-2.177-4.07-.7-9.451,3.155-11.514a8.764,8.764,0,0,1,12.476,10.181Z" fill="#683c99"/><path d="M707.952,38.072a2.813,2.813,0,0,0-1.055-2.083,3.2,3.2,0,0,0-2.5-.681l-8.492-.7-1.181-4.066,6.641-5.027a3.211,3.211,0,0,0,1.52-2.111,3.418,3.418,0,0,0-.241-2.313l-3.038-5.682c-.647-1.21-2.281-1.784-4.165-1.458l-7.9,2.73c-.487-.551-1-1.145-1.509-1.74-.545-.634-1.091-1.27-1.611-1.858l4.155-7.493a3.217,3.217,0,0,0-.714-4.169L686.13,0h-3.159l3.688,3.009a1.241,1.241,0,0,1,.253,1.477l-4.927,8.872.481.531c.648.715,1.353,1.535,2.056,2.352.679.79,1.356,1.578,1.98,2.271l.445.492,8.915-3.1c1.014-.154,1.8.1,1.985.444l3.039,5.681a1.486,1.486,0,0,1,.055.919,1.231,1.231,0,0,1-.59.84l-7.927,5.985,1.949,6.709,10.106.836.124-.021a1.235,1.235,0,0,1,1.024.235.868.868,0,0,1,.33.66l.581,6.03a1.19,1.19,0,0,1-.183.921,1.81,1.81,0,0,1-1.19.658l-9.433,2.745.019.769a18.2,18.2,0,0,1-.483,3.97c-.128.657-.259,1.336-.37,2.056l-.114.742,9.025,4.2.131.051a1.285,1.285,0,0,1,.779.612,1.26,1.26,0,0,1,.074.982l-1.873,6.182a2.343,2.343,0,0,1-1.458.636L691.2,67.48l-.245.8a15.631,15.631,0,0,1-2.406,4.728l-.464.655,6.82,7.523a2.459,2.459,0,0,1,.158,1.862l-4.254,4.927a1.247,1.247,0,0,1-1.513.228L680.591,82.6l-.567.673a15.247,15.247,0,0,1-4.741,4.017l-.759.406,3.411,9.582.06.137a1.184,1.184,0,0,1-.535,1.76L672.18,102a1.186,1.186,0,0,1-1.762-.532l-6.154-8.284-.759.406a22.369,22.369,0,0,1-5.485,1.926l-.725.182-.4,9.884c.013.494-.633,1.158-1.508,1.312l-5.885.57c-.9.031-1.4-.3-1.522-1.016L645.727,97l-.664-.1c-1.186-.183-2.317-.259-3.41-.333s-2.113-.142-3.2-.307l-.739-.112-4.169,8.927a3,3,0,0,1-1.838,1.022l-5.676-2.048a1.825,1.825,0,0,1-1.209-1.6l1.958-10.08-.864-.261a17.066,17.066,0,0,1-2.553-1.1,18.7,18.7,0,0,0-2.869-1.222l-.549-.166-6.952,6.452c-1.077.542-1.613.322-1.853.157l-4.926-4.251a1.233,1.233,0,0,1-.251-1.476l4.923-8.874-.48-.53c-.644-.712-1.345-1.528-2.044-2.341-.683-.794-1.365-1.587-1.992-2.283l-.449-.5-9.406,3.349-.132.059a1.779,1.779,0,0,1-1.359-.747l-3.038-5.681a2.1,2.1,0,0,1,.39-1.726l7.913-5.888-2.222-6.891-9.652-.151c-.885-.31-1.483-.98-1.5-1.5l-.585-6.027a1.255,1.255,0,0,1,.233-1.025.842.842,0,0,1,.6-.329l10.2-2.538-.022-.8a37.99,37.99,0,0,1,.637-6.429l.119-.773-9.36-3.925a1.826,1.826,0,0,1-.655-1.894l1.7-5.6a1.832,1.832,0,0,1,1.617-1.212l9.612,1.473.357-.5a19.863,19.863,0,0,0,1.561-2.756,18.018,18.018,0,0,1,1.391-2.474l.469-.665-6.752-7.264a1.819,1.819,0,0,1-.214-2.132l3.743-4.584a1.8,1.8,0,0,1,2.13-.475l8.647,5.572.553-.781a12.97,12.97,0,0,1,3.044-2.692c.6-.431,1.211-.876,1.813-1.37l.543-.445L615.752,0h-2.123l2.3,6.475c-.387.3-.781.581-1.168.86a18.5,18.5,0,0,0-2.9,2.41L604.655,5.1l-.252-.117a3.861,3.861,0,0,0-4.341,1.031l-3.834,4.7a3.784,3.784,0,0,0,.385,4.747l5.622,6.051c-.421.685-.765,1.38-1.1,2.057s-.67,1.352-1.063,1.981l-8.559-1.312-.089,0a3.847,3.847,0,0,0-3.558,2.635l-1.7,5.605a3.839,3.839,0,0,0,1.493,4.167l8.222,3.473a40.325,40.325,0,0,0-.544,5.209l-8.355,2.1a2.84,2.84,0,0,0-1.965,1.056,3.17,3.17,0,0,0-.666,2.555l.571,5.885a4,4,0,0,0,3.039,3.337l8.643.174,1.343,4.164-6.9,5.136-.218.223a4,4,0,0,0-.606,3.947l3.039,5.682c.6,1.124,2.558,2.284,3.983,1.609l8.084-2.879c.49.553,1,1.151,1.517,1.749.541.629,1.084,1.26,1.6,1.844L604.294,89.4a3.076,3.076,0,0,0-.429,2.221,3,3,0,0,0,1.116,1.933l4.926,4.251a3.71,3.71,0,0,0,4.137-.024l6.4-5.9a21.87,21.87,0,0,1,2.028.92c.647.319,1.31.646,2,.919l-1.666,8.574,0,.11a3.819,3.819,0,0,0,2.585,3.537l6,2.168.189,0a4.959,4.959,0,0,0,3.632-1.945l3.673-7.827c.9.108,1.774.167,2.623.225.877.058,1.715.115,2.577.221l1.923,8.065a3.178,3.178,0,0,0,3.454,2.615c.049,0,.1,0,.147,0l6.029-.585a3.6,3.6,0,0,0,3.241-3.277l.343-8.325a23.743,23.743,0,0,0,4.443-1.529l5.017,6.739a3.168,3.168,0,0,0,4.43,1.282l5.28-2.823a3.167,3.167,0,0,0,1.393-4.4l-2.817-7.915a16.592,16.592,0,0,0,4-3.4l7.2,4.638a3.2,3.2,0,0,0,4.2-.651l4.256-4.929a4.249,4.249,0,0,0-.018-4.137l-5.981-6.642a17.007,17.007,0,0,0,1.966-3.836l8.693,1.075.073.01.075,0c1.342-.035,3.016-.852,3.368-2.012l1.891-6.226a3.221,3.221,0,0,0-2.112-4.068L697,54.909c.076-.425.156-.838.234-1.241a23.738,23.738,0,0,0,.513-3.624l7.816-2.279a3.748,3.748,0,0,0,2.427-1.464,3.109,3.109,0,0,0,.533-2.342Z" fill="#683c99"/><path d="M629.139,1.484A24.347,24.347,0,0,0,632.117.438c.386-.154.758-.3,1.127-.438h-5.977l1.224,1.647Z" fill="#683c99"/><path d="M671.9,5.682l.654.463L679.341,0h-2.979L672.4,3.587a20.022,20.022,0,0,0-4.039-2.332L668.555,0h-2.021l-.408,2.63.831.251A18,18,0,0,1,671.9,5.682Z" fill="#683c99"/><path d="M1831.019,247.55l-.209.076a4.485,4.485,0,0,0-1.722,1.634h2.615l8.14-1.9.711-.2-.007-.729a16.484,16.484,0,0,1,.464-5.118l.234-.729-8.336-4.37a1.724,1.724,0,0,1-.518-.693c-.041-.11-.1-.311-.014-.426l.1-.139,1.474-5.573a1.116,1.116,0,0,1,1.463-.75l9.167,1.585.242-.753a16.394,16.394,0,0,1,2.628-4.456l.432-.589-6.17-7.057-.145-.133a.766.766,0,0,1-.275-.555,1.208,1.208,0,0,1,.4-.938l3.555-4.207a1.155,1.155,0,0,1,1.432-.155l7.918,4.573.49-.428c.661-.58,1.418-1.208,2.173-1.833.73-.607,1.46-1.212,2.1-1.77l.456-.4-2.679-8.167c-.125-.924.118-1.637.434-1.8l5.221-2.676a1.309,1.309,0,0,1,.838-.037,1.117,1.117,0,0,1,.755.55l5.324,7.312,6.14-1.669.921-9.186-.018-.114a1.128,1.128,0,0,1,.23-.929.789.789,0,0,1,.6-.289l5.5-.434a1.068,1.068,0,0,1,.835.181,1.644,1.644,0,0,1,.581,1.093l2.351,8.632.7-.006a16.2,16.2,0,0,1,3.605.5c.6.127,1.213.258,1.866.37l.674.117,3.969-8.152.048-.119a1.115,1.115,0,0,1,1.466-.751l5.6,1.8a2.136,2.136,0,0,1,.558,1.339l-1.317,9.318.728.236a14.235,14.235,0,0,1,4.265,2.265l.589.434,6.958-6.09a2.223,2.223,0,0,1,1.7-.114l4.419,3.951a1.133,1.133,0,0,1,.183,1.381l-5.244,7.838.6.527a13.875,13.875,0,0,1,3.582,4.379l.357.7,8.778-2.953.125-.053a1.078,1.078,0,0,1,1.594.514l2.488,4.851a1.08,1.08,0,0,1-.512,1.6l-7.64,5.473.358.7a20.442,20.442,0,0,1,1.667,5.024l.154.663,8.992.523h.005c.449,0,1.04.6,1.164,1.395l.428,5.368c.007.809-.292,1.265-.949,1.367l-4,.879h6.012a3.432,3.432,0,0,0,.754-2.327l-.437-5.5a3.287,3.287,0,0,0-2.91-3h-.024l-7.573-.443a21.551,21.551,0,0,0-1.321-4.07l6.213-4.461a2.871,2.871,0,0,0,1.239-4.013l-2.488-4.851a2.883,2.883,0,0,0-3.98-1.337l-7.25,2.438a15.124,15.124,0,0,0-3.032-3.694l4.337-6.482a2.919,2.919,0,0,0-.528-3.838l-4.42-3.952a3.864,3.864,0,0,0-3.766-.049l-6.143,5.339a15.4,15.4,0,0,0-3.46-1.85l1.126-7.965v-.068c-.011-1.222-.728-2.758-1.778-3.1l-5.639-1.82a2.931,2.931,0,0,0-3.736,1.858l-3.341,6.861c-.386-.076-.76-.155-1.126-.233a21.71,21.71,0,0,0-3.291-.524l-1.952-7.152A3.411,3.411,0,0,0,1885,192.8a2.849,2.849,0,0,0-2.124-.522l-5.369.424a2.561,2.561,0,0,0-1.911.927,2.921,2.921,0,0,0-.661,2.262l-.774,7.72-3.72,1.011-4.472-6.126a2.922,2.922,0,0,0-1.9-1.417,3.109,3.109,0,0,0-2.109.183l-5.222,2.676c-1.111.57-1.658,2.049-1.393,3.768l2.361,7.236c-.51.434-1.06.89-1.61,1.347-.585.486-1.172.972-1.715,1.437l-6.712-3.871a2.931,2.931,0,0,0-3.852.552l-3.471,4.109a2.934,2.934,0,0,0-.872,2.308,2.58,2.58,0,0,0,.921,1.808l5.153,5.893a18.222,18.222,0,0,0-2.187,3.64l-7.458-1.282a2.965,2.965,0,0,0-2.219.185,3,3,0,0,0-1.484,1.807l-1.406,5.309a2.236,2.236,0,0,0-.111,1.989,3.54,3.54,0,0,0,1.19,1.549l7.192,3.783a18.409,18.409,0,0,0-.35,4.255Z" fill="#683c99"/><path d="M1882.6,242.284a7.686,7.686,0,0,1,10.621,3.428,7.251,7.251,0,0,1,.8,3.548h1.826a9.09,9.09,0,0,0-1.007-4.378,9.7,9.7,0,0,0-18.345,4.378h1.819A7.9,7.9,0,0,1,1882.6,242.284Z" fill="#683c99"/><path d="M2168.626,50.317a3.612,3.612,0,0,0,1.384-2.791v-.02L2169.941,0h-13.909l.054,35.032h-.055l.07,12.619a3.344,3.344,0,0,0,.03.39c.006.044.017.088.025.131.014.083.029.166.05.248.013.052.031.1.047.154.022.071.044.141.07.211.021.055.046.108.07.163s.055.124.087.185.062.112.094.167.064.11.1.163.078.114.119.17.071.095.108.141.1.115.147.171c.035.039.072.078.11.117.058.059.116.116.178.172.033.031.069.061.1.091l.071.062a36.153,36.153,0,1,0,11.115-.071Zm17.314,57.739a31.628,31.628,0,1,1-.53-44.725A31.527,31.527,0,0,1,2185.94,108.056Z" fill="#683c99"/><path d="M84.643,177.3l-6.05,3.357a26.917,26.917,0,0,0-2.812-5.714l3.936-4.833a1.3,1.3,0,0,0-2.016-1.642l-3.494,4.289c-.419-.527-.857-1.046-1.322-1.554-.063-.07-.127-.138-.191-.206s-.109-.12-.165-.179c-.01-.01-.021-.018-.03-.028-.2-.21-.419-.411-.637-.606-.067.13-.13.259-.2.389A26.464,26.464,0,0,1,62,180.177l10.55,19.006-1.819,1.009-10.548-19a26.491,26.491,0,0,1-13.342,3.159c-.206-.011-.406-.03-.607-.048a12.529,12.529,0,0,0,.809,2.809.635.635,0,0,0,.063.265c.047.092.093.18.14.27l-5.311.674a1.3,1.3,0,0,0,.328,2.58l6.289-.8a42.215,42.215,0,0,0,3.373,5.358l-6.166,3.423a1.3,1.3,0,1,0,1.262,2.274l6.626-3.678a25.945,25.945,0,0,0,4.6,3.757l-5.033,5.487a1.3,1.3,0,1,0,1.916,1.758l5.374-5.858c4.369,2.465,9.162,2.923,13.046.767,3.65-2.025,5.765-5.952,6.19-10.575l0-.008c.054-.329.1-.66.139-.993l7.96-1.49a1.3,1.3,0,1,0-.478-2.556l-7.315,1.368a24.791,24.791,0,0,0-.691-5.925l6.556-3.639a1.3,1.3,0,1,0-1.262-2.274Z" fill="#683c99"/><path d="M56.822,167.7l1.852-6.474a1.9,1.9,0,0,0,.422-.168,1.839,1.839,0,1,0-2.5-.716,1.81,1.81,0,0,0,.318.418l-2.262,7.906c-.1.053-.2.1-.3.158l-.011.007-7.9-2.26a1.871,1.871,0,0,0-.186-.491,1.839,1.839,0,1,0-.716,2.5,1.774,1.774,0,0,0,.366-.269l6.417,1.836a15.311,15.311,0,0,0-6.272,12.069c4.084.457,9.157-.629,13.994-3.314A24.43,24.43,0,0,0,70.2,168.915,15.257,15.257,0,0,0,56.822,167.7Zm-5.6,10.3a1.778,1.778,0,1,1,.692-2.418A1.779,1.779,0,0,1,51.219,178Zm12.736-7.069a1.778,1.778,0,1,1,.691-2.418A1.779,1.779,0,0,1,63.955,170.932Z" fill="#683c99"/><path d="M1078.486,211.532a4.972,4.972,0,0,0-1.905,3.841v.027l.049,33.534h19.142l-.025-16.365h.075l-.1-17.368a4.336,4.336,0,0,0-.041-.537c-.008-.061-.023-.121-.033-.181-.021-.114-.04-.228-.069-.34-.019-.072-.044-.142-.066-.213-.03-.1-.059-.194-.1-.289-.029-.076-.064-.15-.1-.225s-.076-.171-.119-.255-.085-.154-.129-.23-.089-.151-.137-.225-.108-.156-.164-.233-.1-.13-.149-.194c-.065-.08-.132-.159-.2-.236-.049-.054-.1-.108-.152-.16-.079-.081-.16-.161-.244-.238-.047-.043-.1-.084-.144-.125s-.065-.058-.1-.085a49.755,49.755,0,1,0-15.3.1Zm-23.83-79.469a43.53,43.53,0,1,1,.73,61.557A43.393,43.393,0,0,1,1054.656,132.063Z" fill="#683c99"/><path d="M1097.665,181.917l-4.995-5a27.531,27.531,0,0,0,4.82-4.367l5.85,2.507a1.328,1.328,0,1,0,1.046-2.441l-5.192-2.225c.4-.559.786-1.135,1.154-1.735.051-.08.1-.163.149-.245s.087-.14.129-.212c.007-.012.012-.025.018-.037.15-.261.287-.527.417-.795-.146-.03-.291-.056-.438-.089a27.02,27.02,0,0,1-12.146-6.79l-15.7,15.7-1.5-1.5,15.693-15.693a27.056,27.056,0,0,1-6.849-12.212c-.047-.205-.084-.407-.123-.609a12.776,12.776,0,0,0-2.531,1.584.654.654,0,0,0-.243.136l-.225.213-2.154-5.025a1.328,1.328,0,0,0-2.441,1.047l2.55,5.95a42.932,42.932,0,0,0-4.312,4.817l-5.093-5.093a1.328,1.328,0,1,0-1.878,1.878l5.472,5.472a26.546,26.546,0,0,0-2.4,5.568l-6.8-3.4a1.328,1.328,0,0,0-1.533,2.127,1.307,1.307,0,0,0,.346.249l7.26,3.63c-1.193,4.982-.3,9.816,2.912,13.024,3.013,3.014,7.462,3.988,12.12,3.106h.009c.338-.038.676-.087,1.014-.142l3.7,7.4a1.326,1.326,0,0,0,1.781.594,1.328,1.328,0,0,0,.594-1.782l-3.4-6.8a25.332,25.332,0,0,0,5.623-2.342l5.414,5.414a1.328,1.328,0,1,0,1.878-1.879Z" fill="#683c99"/><path d="M1099.274,151.908h6.877a1.857,1.857,0,0,0,.283.367,1.883,1.883,0,1,0-.32-2.226h-8.4c-.079-.083-.158-.166-.239-.247l-.009-.009V141.4a1.891,1.891,0,1,0-1.859-.037v6.816A15.636,15.636,0,0,0,1082,145.414c.7,4.138,3.189,8.813,7.184,12.808a24.947,24.947,0,0,0,12.654,7.158A15.583,15.583,0,0,0,1099.274,151.908Zm-11.688-2.606a1.815,1.815,0,1,1,2.567,0A1.816,1.816,0,0,1,1087.586,149.3Zm10.517,10.517a1.815,1.815,0,1,1,2.567,0A1.816,1.816,0,0,1,1098.1,159.819Z" fill="#683c99"/><path d="M1606.2,94.513l6.989,3.888a31.131,31.131,0,0,0-3.893,6.25l-7.147-.914a1.5,1.5,0,1,0-.381,2.982l6.343.812c-.262.732-.5,1.48-.718,2.246-.031.1-.058.209-.086.313s-.051.181-.075.272c0,.015-.005.031-.008.046-.082.33-.149.662-.207,1,.168-.013.334-.03.505-.04a30.587,30.587,0,0,1,15.33,3.623l12.217-21.959,2.1,1.169-12.215,21.955a30.625,30.625,0,0,1,11.247,11.17c.114.208.218.416.323.624a14.454,14.454,0,0,0,2.264-2.509.751.751,0,0,0,.222-.224l.179-.3,3.9,4.8a1.5,1.5,0,1,0,2.333-1.9l-4.623-5.687a48.742,48.742,0,0,0,3.2-6.582l7.124,3.963a1.5,1.5,0,1,0,1.462-2.627l-7.656-4.259a29.954,29.954,0,0,0,.883-6.8l8.458,1.591a1.5,1.5,0,1,0,.556-2.955l-9.031-1.7c-.247-5.794-2.723-10.778-7.211-13.275-4.216-2.346-9.362-2.026-14.16.379l-.009,0c-.356.147-.709.3-1.06.469l-6.322-6.905a1.552,1.552,0,0,0-.378-.3,1.5,1.5,0,0,0-1.84,2.329l5.809,6.346a28.718,28.718,0,0,0-5.395,4.3l-7.575-4.214a1.5,1.5,0,0,0-1.461,2.628Z" fill="#683c99"/><path d="M1613.757,127.683l-7.487,2.135a2.1,2.1,0,0,0-.423-.312,2.129,2.129,0,1,0,1.04,2.324l9.143-2.606c.111.065.222.131.336.2l.013.007,2.6,9.134a2.125,2.125,0,1,0,2.523-.342,2.074,2.074,0,0,0-.488-.195l-2.115-7.42a17.7,17.7,0,0,0,15.677-1.211c-2.045-4.288-6.207-8.6-11.8-11.715-5.519-3.071-11.306-4.338-16-3.866A17.635,17.635,0,0,0,1613.757,127.683Zm13.533-.789a2.055,2.055,0,1,1-2.8.8A2.055,2.055,0,0,1,1627.29,126.894Zm-14.714-8.187a2.055,2.055,0,1,1-2.8.8A2.056,2.056,0,0,1,1612.576,118.707Z" fill="#683c99"/><path d="M2146.149,81.96h5.37a20.888,20.888,0,0,0-.244,4.937l-4.492,1.8a1.009,1.009,0,0,0,.75,1.874l3.987-1.594c.085.515.187,1.032.312,1.552.016.071.034.141.051.212s.029.122.045.184c0,.01.007.019.01.029.06.221.129.437.2.652.094-.063.186-.127.283-.188a20.529,20.529,0,0,1,10.177-2.879V71.664h1.615V88.533a20.556,20.556,0,0,1,10.245,2.882c.135.085.264.173.393.261a9.673,9.673,0,0,0,.509-2.211.5.5,0,0,0,.058-.2c0-.08,0-.157.006-.236l3.858,1.543a1.009,1.009,0,1,0,.75-1.874l-4.569-1.828a32.511,32.511,0,0,0-.271-4.906h5.475a1.01,1.01,0,0,0,0-2.019h-5.883a20.108,20.108,0,0,0-1.7-4.281l5.482-1.827a1.01,1.01,0,1,0-.638-1.916l-5.853,1.952c-2.037-3.319-5.117-5.435-8.565-5.435-3.24,0-6.154,1.867-8.184,4.845l0,0c-.161.2-.317.411-.469.622l-5.963-1.988a1.009,1.009,0,0,0-1.277.639,1.009,1.009,0,0,0,.638,1.277l5.48,1.826a19.327,19.327,0,0,0-1.764,4.282h-5.819a1.01,1.01,0,1,0,0,2.019Z" fill="#683c99"/><path d="M2161.414,98.953l-3.7,3.7a1.427,1.427,0,1,0,1.078,1.383,1.449,1.449,0,0,0-.058-.4l4.513-4.514c.087,0,.173,0,.261,0h.01l4.509,4.51a1.413,1.413,0,0,0-.059.4,1.435,1.435,0,1,0,1.078-1.383l-3.663-3.663a11.884,11.884,0,0,0,8.8-5.828,20.642,20.642,0,0,0-21.394-.068A11.843,11.843,0,0,0,2161.414,98.953Zm7.682-4.881a1.38,1.38,0,1,1-1.38,1.38A1.38,1.38,0,0,1,2169.1,94.072Zm-11.3,0a1.38,1.38,0,1,1-1.38,1.38A1.38,1.38,0,0,1,2157.791,94.072Z" fill="#683c99"/><path d="M1351,191h-13V123.919a5.919,5.919,0,0,0-5.919-5.919h-101.5a3.578,3.578,0,0,0-3.577,3.577V191h-14v2h-.033a.132.132,0,0,0,.033.067V194h2.115c2.195.567,6.532,1.136,14.964,1h103.953c6.585.136,9.993-.433,11.726-1H1351Z" fill="#4f2987"/><rect x="1232" y="124" width="100" height="62" fill="#5c2d91"/><path d="M1250,153.815v-.855l19-10.387v2.57l-15,8.152v.088l15,7.2v2.593Z" fill="#4f2987"/><path d="M1276.92,172h-2.767l15.717-37h2.834Z" fill="#4f2987"/><path d="M1298,163.173v-2.617l15-7.151v-.112l-15-8.126v-2.594l19,10.387v.855Z" fill="#4f2987"/><path d="M912.328,112.917a75.691,75.691,0,0,1-13.646.937c-6.5,0-12.391-.472-14.217-.942s-3.059-1.566-3.059-3.3V54.839c0-1.761,1.165-2.823,3.14-3.119a125.805,125.805,0,0,1,14.054-.81,95.537,95.537,0,0,1,13.645.806c2.116.336,3.136,1.433,3.136,3.193v54.713C915.381,111.349,914.471,112.434,912.328,112.917Z" fill="#4f2987"/><rect x="884.124" y="57.572" width="28.54" height="50.284" fill="#683c99"/><circle cx="897.709" cy="53.92" r="0.618" fill="#683c99"/><circle cx="887.937" cy="54.408" r="0.496" fill="#683c99"/><rect x="200" y="165" width="88" height="63" rx="4.232" transform="translate(488 393) rotate(180)" fill="#4f2987"/><rect x="205" y="170" width="78" height="52" transform="translate(488 392) rotate(180)" fill="#683c99"/><polygon points="204 197.161 201 197.432 201 195.221 204 195.491 204 197.161" fill="#683c99"/><path d="M1518,81.583a75.565,75.565,0,0,1-13.646.938c-6.5,0-12.392-.472-14.218-.942s-3.059-1.566-3.059-3.3V23.506c0-1.762,1.165-2.823,3.141-3.12a126.084,126.084,0,0,1,14.053-.809,95.518,95.518,0,0,1,13.645.806c2.117.336,3.137,1.433,3.137,3.193V78.288C1521.048,80.016,1520.137,81.1,1518,81.583Z" fill="#4f2987"/><rect x="1489.79" y="26.239" width="28.54" height="50.284" fill="#683c99"/><circle cx="1503.376" cy="22.586" r="0.618" fill="#464646"/><circle cx="1493.603" cy="23.075" r="0.496" fill="#464646"/><rect x="1712" y="116" width="88" height="63" rx="4.232" transform="translate(3512 295) rotate(180)" fill="#4f2987"/><rect x="1717" y="121" width="78" height="52" transform="translate(3512 294) rotate(180)" fill="#683c99"/><polygon points="1716 148.161 1713 148.432 1713 146.221 1716 146.491 1716 148.161" fill="#5c2d91"/><rect x="2249.421" y="37.449" width="88.337" height="62.516" rx="4.224" transform="translate(4587.178 137.413) rotate(180)" fill="#4f2987"/><rect x="2254.857" y="42.885" width="77.465" height="51.643" transform="translate(4587.178 137.413) rotate(180)" fill="#683c99"/><polygon points="2253.498 69.495 2250.78 69.766 2250.78 67.554 2253.498 67.825 2253.498 69.495" fill="#683c99"/><path d="M1656.778,69.5a5.45,5.45,0,0,0,3.8-2.767.22.22,0,0,1,.015-.026L1695.284,0h-23.656l-20.954,40.3-.073-.037-8.716,16.929a4.875,4.875,0,0,0-.233.543c-.023.063-.039.128-.059.192-.038.122-.077.243-.105.366-.019.079-.03.16-.045.24-.02.109-.04.219-.053.33-.01.089-.015.178-.02.267s-.013.2-.014.308.005.194.009.29.01.192.02.288.025.207.041.31c.013.088.029.176.046.264.023.11.048.221.077.331.02.078.043.156.066.233.036.119.074.238.117.355.024.066.05.13.077.2.017.044.033.089.051.132a54.55,54.55,0,1,0,14.918,7.665Zm-17.15,89.323a47.723,47.723,0,1,1,30.516-60.2A47.571,47.571,0,0,1,1639.628,158.824Z" fill="#683c99"/><path d="M854.385,35.257a7.915,7.915,0,0,0-.848.047A12.9,12.9,0,0,0,831.6,22.412a16.7,16.7,0,0,0-33.125,2.978c0,.143.007.285.011.427a13.014,13.014,0,1,0-3.3,25.631l58.763-.1A8.312,8.312,0,0,0,862.1,43.1,7.736,7.736,0,0,0,854.385,35.257Z" fill="#683c99"/><path d="M1633.6,221.179a7.691,7.691,0,0,0-.808.045,12.284,12.284,0,0,0-20.889-12.275,15.9,15.9,0,0,0-31.54,2.835c0,.137.007.272.011.407a12.392,12.392,0,1,0-3.142,24.405l55.95-.1a7.913,7.913,0,0,0,7.765-7.85A7.365,7.365,0,0,0,1633.6,221.179Z" fill="#683c99"/><path d="M2355.239,199.348a8.5,8.5,0,0,0-.921.052,14.008,14.008,0,0,0-23.82-14,18.129,18.129,0,0,0-35.967,3.233c0,.156.008.31.012.465a14.13,14.13,0,1,0-3.583,27.829l63.8-.113a9.025,9.025,0,0,0,8.854-8.952A8.4,8.4,0,0,0,2355.239,199.348Z" fill="#683c99"/><path d="M508.065,221.257a7.9,7.9,0,0,0-.848.047,12.9,12.9,0,0,0-21.939-12.892,16.7,16.7,0,0,0-33.125,2.978c0,.143.007.285.01.428a13.014,13.014,0,1,0-3.3,25.631l58.762-.105a8.311,8.311,0,0,0,8.155-8.244A7.736,7.736,0,0,0,508.065,221.257Z" fill="#683c99"/></svg>