<svg xmlns="http://www.w3.org/2000/svg" xmlns:xlink="http://www.w3.org/1999/xlink" viewBox="0 0 2500 250"><defs><clipPath id="a"><rect x="1" y="270" width="2500" height="250" fill="none"/></clipPath></defs><title>banner-devices-1-blue</title><rect width="2500" height="250" fill="#0078d7"/><path d="M1107,155V103.205a2.2,2.2,0,0,0-2.2-2.2h-77.59a2.2,2.2,0,0,0-2.2,2.2V155h-10.024s.518,4,3.686,4h95.064c2.457,0,3.686-4,3.686-4Zm-79-50h76v48h-76Z" fill="#1b87db"/><path d="M1178.925,73h-52.85A1.075,1.075,0,0,0,1125,74.075v35.85a1.075,1.075,0,0,0,1.075,1.075h52.85a1.075,1.075,0,0,0,1.075-1.075V74.075A1.075,1.075,0,0,0,1178.925,73ZM1176,108h-47V76h47Z" fill="#006abe"/><path d="M1213.165,110h-15.33a.835.835,0,0,0-.835.835V143.16a.852.852,0,0,0,.238.594.8.8,0,0,0,.575.246h15.352a.835.835,0,0,0,.835-.835v-32.33A.835.835,0,0,0,1213.165,110ZM1213,139h-15V114h15Z" fill="#006abe"/><path d="M985.165,76h-15.33a.835.835,0,0,0-.835.835V109.16a.852.852,0,0,0,.238.594.8.8,0,0,0,.575.246h15.352a.835.835,0,0,0,.835-.835V76.835A.835.835,0,0,0,985.165,76ZM985,105H970V80h15Z" fill="#006abe"/><path d="M1180.67,61.927c-.226,0-.446.025-.67.034V64.3c.224-.01.444-.034.67-.034A14.259,14.259,0,0,1,1194.76,76.5h2.359A16.6,16.6,0,0,0,1180.67,61.927Z" fill="#1b87db"/><path d="M1180.67,53.884c-.224,0-.447.011-.67.017v2.335c.223-.007.446-.017.67-.017a22.32,22.32,0,0,1,22.2,20.281h2.341A24.655,24.655,0,0,0,1180.67,53.884Z" fill="#1b87db"/><path d="M1180.67,45.115c-.224,0-.446.012-.67.017v2.335c.224,0,.446-.017.67-.017a31.1,31.1,0,0,1,30.989,29.05H1214A33.435,33.435,0,0,0,1180.67,45.115Z" fill="#1b87db"/><polyline points="1205 152.5 1205 198.5 977 198.5 977 121.5" fill="none" stroke="#1b87db" stroke-miterlimit="10"/><path d="M1377,195V143.205a2.2,2.2,0,0,0-2.2-2.205h-77.59a2.2,2.2,0,0,0-2.2,2.205V195h-10.024s.518,4,3.686,4h95.064c2.457,0,3.686-4,3.686-4Zm-79-50h77v48h-77Z" fill="#1b87db"/><path d="M1270,59.075v52.85a1.075,1.075,0,0,0,1.075,1.075h35.85a1.075,1.075,0,0,0,1.075-1.075V59.075A1.075,1.075,0,0,0,1306.925,58h-35.85A1.075,1.075,0,0,0,1270,59.075ZM1305,61v48h-32V61Z" fill="#006abe"/><path d="M1483.165,150h-15.33a.835.835,0,0,0-.835.835V183.16a.852.852,0,0,0,.238.594.8.8,0,0,0,.575.246h15.352a.835.835,0,0,0,.835-.835v-32.33A.835.835,0,0,0,1483.165,150ZM1483,179h-15V154h15Z" fill="#006abe"/><path d="M1353.165,7h-15.33a.835.835,0,0,0-.835.835V40.16a.852.852,0,0,0,.238.594.8.8,0,0,0,.575.246h15.352a.835.835,0,0,0,.835-.835V7.835A.835.835,0,0,0,1353.165,7ZM1353,36h-15V11h15Z" fill="#006abe"/><path d="M1448.427,149.83c0,.226.025.446.034.67h2.335c-.01-.224-.034-.444-.034-.67A14.259,14.259,0,0,1,1463,135.74v-2.359A16.6,16.6,0,0,0,1448.427,149.83Z" fill="#1b87db"/><path d="M1440.384,149.83c0,.224.011.447.017.67h2.335c-.007-.223-.017-.446-.017-.67a22.32,22.32,0,0,1,20.281-22.2v-2.341A24.655,24.655,0,0,0,1440.384,149.83Z" fill="#1b87db"/><path d="M1431.615,149.83c0,.224.012.446.017.67h2.335c-.005-.224-.017-.446-.017-.67A31.1,31.1,0,0,1,1463,118.841V116.5A33.435,33.435,0,0,0,1431.615,149.83Z" fill="#1b87db"/><line x1="1475.5" y1="249" x2="1475.5" y2="195.5" fill="none" stroke="#1b87db" stroke-miterlimit="10"/><polyline points="1318.5 81 1431.5 81 1431.5 -0.5" fill="none" stroke="#1b87db" stroke-miterlimit="10"/><path d="M1584,90V38.205a2.2,2.2,0,0,0-2.2-2.2h-77.59a2.2,2.2,0,0,0-2.2,2.2V90h-10.024s.518,4,3.686,4h95.064c2.457,0,3.686-4,3.686-4Zm-79-50h76V88h-76Z" fill="#006abe"/><path d="M1569.075,171h52.85a1.075,1.075,0,0,0,1.075-1.075v-35.85a1.075,1.075,0,0,0-1.075-1.075h-52.85a1.075,1.075,0,0,0-1.075,1.075v35.85A1.075,1.075,0,0,0,1569.075,171ZM1572,136h47v32h-47Z" fill="#1b87db"/><path d="M1560.165,195h-15.33a.835.835,0,0,0-.835.835V228.16a.852.852,0,0,0,.238.594.8.8,0,0,0,.575.246h15.352a.835.835,0,0,0,.835-.835v-32.33A.835.835,0,0,0,1560.165,195ZM1560,224h-15V199h15Z" fill="#006abe"/><path d="M1585.67,21.927c-.226,0-.446.025-.67.034V24.3c.224-.01.444-.034.67-.034A14.259,14.259,0,0,1,1599.76,36.5h2.359A16.6,16.6,0,0,0,1585.67,21.927Z" fill="#1b87db"/><path d="M1585.67,13.884c-.224,0-.447.011-.67.017v2.335c.223-.007.446-.017.67-.017a22.32,22.32,0,0,1,22.2,20.281h2.341A24.655,24.655,0,0,0,1585.67,13.884Z" fill="#1b87db"/><path d="M1585.67,5.115c-.224,0-.446.012-.67.017V7.467c.224,0,.446-.017.67-.017a31.1,31.1,0,0,1,30.989,29.05H1619A33.435,33.435,0,0,0,1585.67,5.115Z" fill="#1b87db"/><path d="M955.427,76.83c0,.226.025.446.034.67H957.8c-.01-.224-.034-.444-.034-.67A14.259,14.259,0,0,1,970,62.74V60.381A16.6,16.6,0,0,0,955.427,76.83Z" fill="#1b87db"/><path d="M947.384,76.83c0,.224.011.447.017.67h2.335c-.007-.223-.017-.446-.017-.67A22.32,22.32,0,0,1,970,54.633V52.292A24.655,24.655,0,0,0,947.384,76.83Z" fill="#1b87db"/><path d="M938.615,76.83c0,.224.012.446.017.67h2.335c0-.224-.017-.446-.017-.67A31.1,31.1,0,0,1,970,45.841V43.5A33.435,33.435,0,0,0,938.615,76.83Z" fill="#1b87db"/><line x1="1053.5" y1="45" x2="1053.5" y2="93" fill="none" stroke="#1b87db" stroke-miterlimit="10"/><path d="M1867,155V103.205a2.2,2.2,0,0,0-2.2-2.2h-77.59a2.2,2.2,0,0,0-2.2,2.2V155h-10.024s.518,4,3.686,4h95.064c2.457,0,3.686-4,3.686-4Zm-79-50h76v48h-76Z" fill="#1b87db"/><path d="M1938.925,73h-52.85A1.075,1.075,0,0,0,1885,74.075v35.85a1.075,1.075,0,0,0,1.075,1.075h52.85a1.075,1.075,0,0,0,1.075-1.075V74.075A1.075,1.075,0,0,0,1938.925,73ZM1936,108h-47V76h47Z" fill="#006abe"/><path d="M1973.165,110h-15.33a.835.835,0,0,0-.835.835V143.16a.852.852,0,0,0,.238.594.8.8,0,0,0,.575.246h15.352a.835.835,0,0,0,.835-.835v-32.33A.835.835,0,0,0,1973.165,110ZM1973,139h-15V114h15Z" fill="#006abe"/><path d="M1745.165,76h-15.33a.835.835,0,0,0-.835.835V109.16a.852.852,0,0,0,.238.594.8.8,0,0,0,.575.246h15.352a.835.835,0,0,0,.835-.835V76.835A.835.835,0,0,0,1745.165,76ZM1745,105h-15V80h15Z" fill="#006abe"/><path d="M1940.67,61.927c-.226,0-.446.025-.67.034V64.3c.224-.01.444-.034.67-.034A14.259,14.259,0,0,1,1954.76,76.5h2.359A16.6,16.6,0,0,0,1940.67,61.927Z" fill="#1b87db"/><path d="M1940.67,53.884c-.224,0-.447.011-.67.017v2.335c.223-.007.446-.017.67-.017a22.32,22.32,0,0,1,22.2,20.281h2.341A24.655,24.655,0,0,0,1940.67,53.884Z" fill="#1b87db"/><path d="M1940.67,45.115c-.224,0-.446.012-.67.017v2.335c.224,0,.446-.017.67-.017a31.1,31.1,0,0,1,30.989,29.05H1974A33.435,33.435,0,0,0,1940.67,45.115Z" fill="#1b87db"/><polyline points="1965 152.5 1965 198.5 1737 198.5 1737 120.5" fill="none" stroke="#1b87db" stroke-miterlimit="10"/><path d="M2137,195V143.205a2.2,2.2,0,0,0-2.2-2.205h-77.59a2.2,2.2,0,0,0-2.2,2.205V195h-10.024s.518,4,3.686,4h95.064c2.457,0,3.686-4,3.686-4Zm-79-50h76v48h-76Z" fill="#1b87db"/><path d="M2030,59.075v52.85a1.075,1.075,0,0,0,1.075,1.075h35.85a1.075,1.075,0,0,0,1.075-1.075V59.075A1.075,1.075,0,0,0,2066.925,58h-35.85A1.075,1.075,0,0,0,2030,59.075ZM2065,62v47h-32V62Z" fill="#006abe"/><path d="M2243.165,150h-15.33a.835.835,0,0,0-.835.835V183.16a.852.852,0,0,0,.238.594.8.8,0,0,0,.575.246h15.352a.835.835,0,0,0,.835-.835v-32.33A.835.835,0,0,0,2243.165,150ZM2243,179h-15V154h15Z" fill="#006abe"/><path d="M2113.165,7h-15.33a.835.835,0,0,0-.835.835V40.16a.852.852,0,0,0,.238.594.8.8,0,0,0,.575.246h15.352a.835.835,0,0,0,.835-.835V7.835A.835.835,0,0,0,2113.165,7ZM2113,36h-15V11h15Z" fill="#006abe"/><path d="M2208.427,149.83c0,.226.025.446.034.67h2.335c-.01-.224-.034-.444-.034-.67A14.259,14.259,0,0,1,2223,135.74v-2.359A16.6,16.6,0,0,0,2208.427,149.83Z" fill="#1b87db"/><path d="M2200.384,149.83c0,.224.011.447.017.67h2.335c-.007-.223-.017-.446-.017-.67a22.32,22.32,0,0,1,20.281-22.2v-2.341A24.655,24.655,0,0,0,2200.384,149.83Z" fill="#1b87db"/><path d="M2191.615,149.83c0,.224.012.446.017.67h2.335c-.005-.224-.017-.446-.017-.67A31.1,31.1,0,0,1,2223,118.841V116.5A33.435,33.435,0,0,0,2191.615,149.83Z" fill="#1b87db"/><line x1="2235.5" y1="250" x2="2235.5" y2="195.5" fill="none" stroke="#1b87db" stroke-miterlimit="10"/><polyline points="2078.5 81 2191.5 81 2191.5 -0.5" fill="none" stroke="#1b87db" stroke-miterlimit="10"/><path d="M2344,90V38.205a2.2,2.2,0,0,0-2.2-2.2h-77.59a2.2,2.2,0,0,0-2.2,2.2V90h-10.024s.518,4,3.686,4h95.064c2.457,0,3.686-4,3.686-4Zm-79-50h76V88h-76Z" fill="#006abe"/><path d="M2329.075,171h52.85a1.075,1.075,0,0,0,1.075-1.075v-35.85a1.075,1.075,0,0,0-1.075-1.075h-52.85a1.075,1.075,0,0,0-1.075,1.075v35.85A1.075,1.075,0,0,0,2329.075,171ZM2332,136h47v32h-47Z" fill="#1b87db"/><path d="M2320.165,195h-15.33a.835.835,0,0,0-.835.835V228.16a.852.852,0,0,0,.238.594.8.8,0,0,0,.575.246h15.352a.835.835,0,0,0,.835-.835v-32.33A.835.835,0,0,0,2320.165,195ZM2320,224h-15V199h15Z" fill="#006abe"/><path d="M2345.67,21.927c-.226,0-.446.025-.67.034V24.3c.224-.01.444-.034.67-.034A14.259,14.259,0,0,1,2359.76,36.5h2.359A16.6,16.6,0,0,0,2345.67,21.927Z" fill="#1b87db"/><path d="M2345.67,13.884c-.224,0-.447.011-.67.017v2.335c.223-.007.446-.017.67-.017a22.32,22.32,0,0,1,22.2,20.281h2.341A24.655,24.655,0,0,0,2345.67,13.884Z" fill="#1b87db"/><path d="M2345.67,5.115c-.224,0-.446.012-.67.017V7.467c.224,0,.446-.017.67-.017a31.1,31.1,0,0,1,30.989,29.05H2379A33.435,33.435,0,0,0,2345.67,5.115Z" fill="#1b87db"/><path d="M1715.427,76.83c0,.226.025.446.034.67h2.335c-.01-.224-.034-.444-.034-.67A14.259,14.259,0,0,1,1730,62.74V60.381A16.6,16.6,0,0,0,1715.427,76.83Z" fill="#1b87db"/><path d="M1707.384,76.83c0,.224.011.447.017.67h2.335c-.007-.223-.017-.446-.017-.67A22.32,22.32,0,0,1,1730,54.633V52.292A24.655,24.655,0,0,0,1707.384,76.83Z" fill="#1b87db"/><path d="M1698.615,76.83c0,.224.012.446.017.67h2.335c-.005-.224-.017-.446-.017-.67A31.1,31.1,0,0,1,1730,45.841V43.5A33.435,33.435,0,0,0,1698.615,76.83Z" fill="#1b87db"/><line x1="1813.5" y1="46" x2="1813.5" y2="93" fill="none" stroke="#1b87db" stroke-miterlimit="10"/><path d="M324,216V164.205A2.2,2.2,0,0,0,321.8,162h-77.59A2.2,2.2,0,0,0,242,164.205V216H231.976s.518,4,3.686,4h95.064c2.457,0,3.686-4,3.686-4Zm-79-50h76v48H245Z" fill="#1b87db"/><path d="M408.925,33h-52.85A1.075,1.075,0,0,0,355,34.075v35.85A1.075,1.075,0,0,0,356.075,71h52.85A1.075,1.075,0,0,0,410,69.925V34.075A1.075,1.075,0,0,0,408.925,33ZM406,68H359V36h47Z" fill="#006abe"/><path d="M929.165,147h-15.33a.835.835,0,0,0-.835.835V180.16a.852.852,0,0,0,.238.594.8.8,0,0,0,.575.246h15.352a.835.835,0,0,0,.835-.835v-32.33A.835.835,0,0,0,929.165,147ZM929,176H914V151h15Z" fill="#006abe"/><path d="M215.165,28h-15.33a.835.835,0,0,0-.835.835V61.16a.852.852,0,0,0,.238.594.8.8,0,0,0,.575.246h15.352a.835.835,0,0,0,.835-.835V28.835A.835.835,0,0,0,215.165,28ZM215,57H200V32h15Z" fill="#006abe"/><polyline points="405 232 207 232 207 75" fill="none" stroke="#1b87db" stroke-miterlimit="10"/><path d="M607,225V173.205A2.2,2.2,0,0,0,604.795,171h-77.59A2.2,2.2,0,0,0,525,173.205V225H514.976s.518,4,3.686,4h95.064c2.457,0,3.686-4,3.686-4Zm-79-50h76v48H528Z" fill="#006abe"/><path d="M510,59.075v52.85A1.075,1.075,0,0,0,511.075,113h35.85A1.075,1.075,0,0,0,548,111.925V59.075A1.075,1.075,0,0,0,546.925,58h-35.85A1.075,1.075,0,0,0,510,59.075ZM545,62v47H513V62Z" fill="#1b87db"/><path d="M713.165,150h-15.33a.835.835,0,0,0-.835.835V183.16a.852.852,0,0,0,.238.594.8.8,0,0,0,.575.246h15.352a.835.835,0,0,0,.835-.835v-32.33A.835.835,0,0,0,713.165,150ZM713,179H698V154h15Z" fill="#006abe"/><path d="M583.165,7h-15.33a.835.835,0,0,0-.835.835V40.16a.852.852,0,0,0,.238.594.8.8,0,0,0,.575.246h15.352a.835.835,0,0,0,.835-.835V7.835A.835.835,0,0,0,583.165,7ZM583,36H568V11h15Z" fill="#006abe"/><path d="M678.427,149.83c0,.226.025.446.034.67H680.8c-.01-.224-.034-.444-.034-.67A14.259,14.259,0,0,1,693,135.74v-2.359A16.6,16.6,0,0,0,678.427,149.83Z" fill="#1b87db"/><path d="M670.384,149.83c0,.224.011.447.017.67h2.335c-.007-.223-.017-.446-.017-.67A22.32,22.32,0,0,1,693,127.633v-2.341A24.655,24.655,0,0,0,670.384,149.83Z" fill="#1b87db"/><path d="M661.615,149.83c0,.224.012.446.017.67h2.335c0-.224-.017-.446-.017-.67A31.1,31.1,0,0,1,693,118.841V116.5A33.435,33.435,0,0,0,661.615,149.83Z" fill="#1b87db"/><line x1="705.5" y1="249" x2="705.5" y2="195.5" fill="none" stroke="#1b87db" stroke-miterlimit="10"/><polyline points="558.5 81 671.5 81 671.5 -0.5" fill="none" stroke="#1b87db" stroke-miterlimit="10"/><path d="M814,90V38.205A2.2,2.2,0,0,0,811.8,36h-77.59a2.2,2.2,0,0,0-2.205,2.2V90H721.976s.518,4,3.686,4h95.064c2.457,0,3.686-4,3.686-4ZM735,40h76V88H735Z" fill="#006abe"/><path d="M799.075,171h52.85A1.075,1.075,0,0,0,853,169.925v-35.85A1.075,1.075,0,0,0,851.925,133h-52.85A1.075,1.075,0,0,0,798,134.075v35.85A1.075,1.075,0,0,0,799.075,171ZM802,136h47v32H802Z" fill="#1b87db"/><path d="M790.165,195h-15.33a.835.835,0,0,0-.835.835V228.16a.852.852,0,0,0,.238.594.8.8,0,0,0,.575.246h15.352a.835.835,0,0,0,.835-.835v-32.33A.835.835,0,0,0,790.165,195ZM790,224H775V199h15Z" fill="#006abe"/><path d="M815.67,21.927c-.226,0-.446.025-.67.034V24.3c.224-.01.444-.034.67-.034A14.259,14.259,0,0,1,829.76,36.5h2.359A16.6,16.6,0,0,0,815.67,21.927Z" fill="#1b87db"/><path d="M815.67,13.884c-.224,0-.447.011-.67.017v2.335c.223-.007.446-.017.67-.017a22.32,22.32,0,0,1,22.2,20.281h2.341A24.655,24.655,0,0,0,815.67,13.884Z" fill="#1b87db"/><path d="M815.67,5.115c-.224,0-.446.012-.67.017V7.467c.224,0,.446-.017.67-.017A31.1,31.1,0,0,1,846.659,36.5H849A33.435,33.435,0,0,0,815.67,5.115Z" fill="#1b87db"/><path d="M1706.925,192h-52.85a1.075,1.075,0,0,0-1.075,1.075v35.85a1.075,1.075,0,0,0,1.075,1.075h52.85a1.075,1.075,0,0,0,1.075-1.075v-35.85A1.075,1.075,0,0,0,1706.925,192ZM1704,227h-47V195h47Z" fill="#006abe"/><path d="M48.558,167s1.232,4,3.7,4H147.6c3.178,0,3.7-4,3.7-4H141V115.205a2.2,2.2,0,0,0-2.205-2.2H61.205a2.2,2.2,0,0,0-2.2,2.2V167ZM138,165H62V117h76Z" fill="#006abe"/><path d="M114,56.925V21.075A1.075,1.075,0,0,0,112.925,20H60.075A1.075,1.075,0,0,0,59,21.075v35.85A1.075,1.075,0,0,0,60.075,58h52.85A1.075,1.075,0,0,0,114,56.925ZM110,55H63V23h47Z" fill="#1b87db"/><path d="M102.835,209a.835.835,0,0,0-.835.835v32.33a.835.835,0,0,0,.835.835h15.352a.8.8,0,0,0,.575-.246.852.852,0,0,0,.238-.594V209.835a.835.835,0,0,0-.835-.835Zm.165,4h15v25H103Z" fill="#006abe"/><path d="M57.306,98.927c.226,0,.446.025.671.034V101.3c-.224-.01-.445-.034-.671-.034A14.258,14.258,0,0,0,43.217,113.5h-2.36A16.6,16.6,0,0,1,57.306,98.927Z" fill="#1b87db"/><path d="M57.306,90.884c.225,0,.447.011.671.017v2.335c-.224-.007-.446-.017-.671-.017A22.319,22.319,0,0,0,35.11,113.5H32.769A24.655,24.655,0,0,1,57.306,90.884Z" fill="#1b87db"/><path d="M57.306,82.115c.225,0,.447.012.671.017v2.335c-.224,0-.446-.017-.671-.017A31.1,31.1,0,0,0,26.318,113.5H23.977A33.434,33.434,0,0,1,57.306,82.115Z" fill="#1b87db"/><path d="M1829,0V36h-32V0h-3V38.925A1.075,1.075,0,0,0,1795.075,40h35.85A1.075,1.075,0,0,0,1832,38.925V0Z" fill="#006abe"/><path d="M1905,250V224h32v26h3V221.075a1.075,1.075,0,0,0-1.075-1.075h-35.85a1.075,1.075,0,0,0-1.075,1.075V250Z" fill="#006abe"/><path d="M2500,220h-44V172h44v-4h-44.96c-1.218.39-2.04,2.595-2.04,2.595V222h-10.018s.517,4,3.684,4H2500Z" fill="#006abe"/><path d="M1145,249V222h32v27h3V219.075a1.075,1.075,0,0,0-1.075-1.075h-35.85a1.075,1.075,0,0,0-1.075,1.075V249Z" fill="#006abe"/><path d="M879,249V234h47v15h4V232.075A1.075,1.075,0,0,0,928.925,231h-52.85A1.075,1.075,0,0,0,875,232.075V249Z" fill="#006abe"/><path d="M418,249V222h32v27h3V219.075A1.075,1.075,0,0,0,451.925,218h-35.85A1.075,1.075,0,0,0,415,219.075V249Z" fill="#006abe"/><path d="M299-1V35H267V-1h-3V37.925A1.075,1.075,0,0,0,265.075,39h35.85A1.075,1.075,0,0,0,302,37.925V-1Z" fill="#1b87db"/><path d="M1069,0V35h-32V0h-3V37.925A1.075,1.075,0,0,0,1035.075,39h35.85A1.075,1.075,0,0,0,1072,37.925V0Z" fill="#006abe"/><path d="M2442,50.075v52.85a1.075,1.075,0,0,0,1.075,1.075h35.85a1.075,1.075,0,0,0,1.075-1.075V50.075A1.075,1.075,0,0,0,2478.925,49h-35.85A1.075,1.075,0,0,0,2442,50.075ZM2477,53v47h-32V53Z" fill="#006abe"/><line x1="48.5" y1="151" x2="2.5" y2="151" fill="none" stroke="#1b87db" stroke-miterlimit="10"/><g clip-path="url(#a)"><path d="M-119,246.136c536,429,937-4,1437,153,418.228,131.323,253-322,614-137s571-62,571-62" fill="none" stroke="#0060c4" stroke-miterlimit="10"/><path d="M-120.81,252.278c536,429,939.334-8.095,1439.334,148.905,418.228,131.324,255.666-315.9,616.666-130.9s567.81-62.1,567.81-62.1" fill="none" stroke="#005ec3" stroke-miterlimit="10"/><path d="M-122.619,258.421c536,429,941.667-12.19,1441.667,144.81,418.228,131.324,258.333-309.81,619.333-124.81S2503,216.231,2503,216.231" fill="none" stroke="#005dc1" stroke-miterlimit="10"/><path d="M-124.429,264.564c536,429,944-16.286,1444,140.714,418.229,131.324,261-303.714,622-118.714S2503,224.278,2503,224.278" fill="none" stroke="#005bc0" stroke-miterlimit="10"/><path d="M-126.238,270.707c536,429,946.333-20.381,1446.333,136.619,418.229,131.324,263.667-297.619,624.667-112.619S2503,232.326,2503,232.326" fill="none" stroke="#0059bf" stroke-miterlimit="10"/><path d="M-128.048,276.85c536,429,948.667-24.476,1448.667,132.524C1738.848,540.7,1586.952,117.85,1947.952,302.85S2503,240.374,2503,240.374" fill="none" stroke="#0057be" stroke-miterlimit="10"/><path d="M-129.857,282.993c536,429,951-28.572,1451,128.428,418.228,131.324,269-285.428,630-100.428S2503,248.421,2503,248.421" fill="none" stroke="#0056bc" stroke-miterlimit="10"/><path d="M-203,391.136c656-131,777.135-128.04,886,28,90,129,241,242,445,147,238.469-111.052,351-339,599-357,472.613-34.3,592,242,751,383" fill="none" stroke="#0060c4" stroke-miterlimit="10"/><path d="M-199.25,401.073C444.718,280.581,553.442,287.665,682.25,437.2c108.687,126.174,259.562,221.25,465.031,126.344,237.784-109.955,358.293-319.509,601.281-332.094,453.794-23.5,579,232.375,728.063,364.563" fill="none" stroke="#005ec2" stroke-miterlimit="10"/><path d="M64,96.136c656-131,802-158,908,0s251,273,423,175c228.562-130.228,351-339,599-357,472.613-34.3,592,242,751,383" fill="none" stroke="#0060c4" stroke-miterlimit="10"/><path d="M60.062,107.158c648.376-126.437,785.063-143.647,909.813,8.79s268.937,250.313,444.406,152.594c228.5-127.932,358.293-319.509,601.281-332.094,453.794-23.5,579,232.375,728.063,364.563" fill="none" stroke="#005ec2" stroke-miterlimit="10"/><path d="M56.125,118.181C696.875-3.694,824.25-11.114,967.75,135.761s287.08,228,465.812,130.187C1662.256,140.792,1799.07-34.143,2037.125-41.239c434.857-12.964,566,222.75,705.125,346.125" fill="none" stroke="#005cc1" stroke-miterlimit="10"/><path d="M52.188,129.2C685.312,11.891,803.375,14.261,965.625,155.573s305.1,205.466,487.219,107.781c228.72-122.678,372.644-280.761,605.844-282.281,415.807-2.71,553,213.125,682.187,327.688" fill="none" stroke="#0059bf" stroke-miterlimit="10"/><path d="M48.25,140.227C673.75,27.477,782.5,39.636,963.5,175.386s323.094,182.906,508.625,85.375C1700.849,140.523,1851.83-.777,2080.25,3.386c396.651,7.229,540,203.5,659.25,309.25" fill="none" stroke="#0057bd" stroke-miterlimit="10"/><path d="M44.312,151.249C662.188,43.062,761.625,65.011,961.375,195.2s341.077,160.322,530.031,62.969C1720.111,140.334,1878.1,15.726,2101.812,25.7c377.4,16.823,527,193.875,636.313,290.813" fill="none" stroke="#0055bc" stroke-miterlimit="10"/><path d="M40.375,162.272C650.625,58.647,740.75,90.386,959.25,215.011s359.044,137.71,551.438,40.562C1739.354,140.109,1904.3,32.078,2123.375,48.011c358.064,26.041,514,184.25,613.375,272.375" fill="none" stroke="#0052ba" stroke-miterlimit="10"/><path d="M36.438,173.3c602.624-99.062,683.437-57.534,920.687,61.528s377,115.072,572.844,18.156C1758.579,139.85,1930.456,48.25,2144.938,70.323c338.666,34.853,501,174.625,590.437,253.938" fill="none" stroke="#0050b8" stroke-miterlimit="10"/><path d="M32.5,184.318c595-94.5,666.5-43.182,922.5,70.318s394.937,92.405,594.25-4.25c228.537-110.828,407.32-186.177,617.25-157.75,319.233,43.227,488,165,567.5,235.5" fill="none" stroke="#004eb7" stroke-miterlimit="10"/><path d="M28.562,195.341c587.376-89.938,649.563-28.83,924.313,79.107s412.862,69.711,615.656-26.656c228.448-108.558,414.142-167.878,619.531-132.844,299.8,51.138,475,155.375,544.563,217.063" fill="none" stroke="#004cb5" stroke-miterlimit="10"/><path d="M24.625,206.363c579.75-85.375,632.625-14.477,926.125,87.9s430.774,46.987,637.062-49.063c228.345-106.32,420.984-149.88,621.813-107.937,280.4,58.561,462,145.75,521.625,198.625" fill="none" stroke="#004ab3" stroke-miterlimit="10"/><path d="M20.688,217.386c572.124-80.812,615.687-.125,927.937,96.687S1397.3,338.307,1607.094,242.6c228.228-104.112,427.894-132.235,624.094-83.031,261.106,65.482,449,136.125,498.687,180.188" fill="none" stroke="#0047b1" stroke-miterlimit="10"/><path d="M16.75,228.409c564.5-76.25,598.75,14.227,929.75,105.477s466.562,1.45,679.875-93.875c228.1-101.934,434.936-115,626.375-58.125,241.973,71.894,436,126.5,475.75,161.75" fill="none" stroke="#0045b0" stroke-miterlimit="10"/><path d="M12.812,239.432C569.688,167.744,594.625,268.011,944.375,353.7s484.438-21.364,701.281-116.281c227.964-99.785,442.193-98.252,628.656-33.219,223.089,77.807,423,116.875,452.813,143.313" fill="none" stroke="#0043ae" stroke-miterlimit="10"/><path d="M8.875,250.454c549.25-67.125,564.875,42.932,933.375,123.057s502.125-44.625,722.688-138.688c227.632-98.091,449.773-82.045,630.937-8.312,204.55,83.25,410,107.25,429.875,124.875" fill="none" stroke="#0041ac" stroke-miterlimit="10"/><path d="M4.938,261.477c541.624-62.562,547.937,57.284,935.187,131.846s520.063-67.312,744.094-161.094c227.566-95.8,457.818-66.446,633.219,16.594,186.476,88.284,397,97.625,406.937,106.438" fill="none" stroke="#003eab" stroke-miterlimit="10"/><path d="M1,272.5c534-58,531,71.636,937,140.636s538-90,765.5-183.5,466.5-51.5,635.5,41.5,384,88,384,88" fill="none" stroke="#003ca9" stroke-miterlimit="10"/></g></svg>