<svg xmlns="http://www.w3.org/2000/svg" viewBox="0 0 2500 250"><title>banner-big-code-1-purple</title><rect width="2500" height="250" fill="#512bd4"/><path d="M1786.157,0a136.631,136.631,0,0,0-3.181,29.346c0,75.56,61.557,136.814,137.491,136.814s137.492-61.254,137.492-136.814A136.631,136.631,0,0,0,2054.777,0Z" fill="#5937db"/><path d="M759.488,29.938H670.876a9.663,9.663,0,1,1,0-19.326h88.612a9.663,9.663,0,1,1,0,19.326Z" fill="#5937db"/><path d="M965.847,29.938h-166.3a9.663,9.663,0,1,1,0-19.326h166.3a9.663,9.663,0,1,1,0,19.326Z" fill="#5937db"/><path d="M857.812,66.175H598.043a9.663,9.663,0,1,1,0-19.326H857.812a9.663,9.663,0,1,1,0,19.326Z" fill="#5937db"/><path d="M795.905,102.412H598.043a9.664,9.664,0,1,1,0-19.327H795.905a9.664,9.664,0,1,1,0,19.327Z" fill="#5937db"/><path d="M888.159,102.412h-52.2a9.664,9.664,0,1,1,0-19.327h52.2a9.664,9.664,0,1,1,0,19.327Z" fill="#5937db"/><path d="M727.928,138.648H670.876a9.663,9.663,0,1,1,0-19.326h57.052a9.663,9.663,0,1,1,0,19.326Z" fill="#5937db"/><path d="M941.569,138.648H770.413a9.663,9.663,0,1,1,0-19.326H941.569a9.663,9.663,0,1,1,0,19.326Z" fill="#5937db"/><path d="M833.535,174.885H743.708a9.663,9.663,0,1,1,0-19.326h89.827a9.663,9.663,0,1,1,0,19.326Z" fill="#5937db"/><path d="M795.905,211.122h-52.2a9.664,9.664,0,1,1,0-19.327h52.2a9.664,9.664,0,1,1,0,19.327Z" fill="#5937db"/><path d="M1007.118,211.122H835.962a9.664,9.664,0,1,1,0-19.327h171.156a9.664,9.664,0,1,1,0,19.327Z" fill="#5937db"/><path d="M873.592,247.358H670.876a9.663,9.663,0,1,1,0-19.326H873.592a9.663,9.663,0,1,1,0,19.326Z" fill="#5937db"/><polygon points="2288.549 249.763 2378.436 35.823 2234.643 35.823 2145.151 249.763 2288.549 249.763" fill="#5937db"/><path d="M2232.98,84.006H1973.211a9.663,9.663,0,1,1,0-19.326H2232.98a9.663,9.663,0,1,1,0,19.326Z" fill="#4325c3"/><path d="M2098.24,120.242H1973.211a9.663,9.663,0,1,1,0-19.326H2098.24a9.663,9.663,0,1,1,0,19.326Z" fill="#4325c3"/><path d="M2321.592,120.242H2140.725a9.663,9.663,0,1,1,0-19.326h180.867a9.663,9.663,0,1,1,0,19.326Z" fill="#4325c3"/><path d="M2184.425,156.479H2046.043a9.663,9.663,0,1,1,0-19.326h138.382a9.663,9.663,0,1,1,0,19.326Z" fill="#4325c3"/><path d="M2378.645,192.716H2118.876a9.664,9.664,0,1,1,0-19.327h259.769a9.664,9.664,0,1,1,0,19.327Z" fill="#4325c3"/><path d="M2207.488,228.952h-88.612a9.663,9.663,0,1,1,0-19.326h88.612a9.663,9.663,0,1,1,0,19.326Z" fill="#4325c3"/><path d="M2413.847,228.952h-166.3a9.663,9.663,0,1,1,0-19.326h166.3a9.663,9.663,0,1,1,0,19.326Z" fill="#4325c3"/><polygon points="321.514 0 262.906 23.312 262.906 142.244 576.333 0 321.514 0" fill="#4325c3"/><polygon points="1424.334 0 1320.69 247.772 1386.883 247.772 1490.984 0 1424.334 0" fill="#4325c3"/><polygon points="1270.01 250 1270.01 213.453 1114.09 151.019 1114.09 149.616 1270.01 83.225 1270.01 27.766 1051.333 131.906 1051.333 169.655 1228.369 250 1270.01 250" fill="#4325c3"/><polygon points="1520.323 23.209 1520.323 78.668 1676.722 145.297 1676.722 146.224 1520.323 208.433 1520.323 249.763 1550.901 249.763 1739 164.397 1739 126.648 1520.323 23.209" fill="#4325c3"/><path d="M1477.561,147.61h0a6.566,6.566,0,0,1,0-9.32l4.779-4.756a6.568,6.568,0,0,0,0-9.32l-4.779-4.756a6.566,6.566,0,0,1,0-9.32h0a6.647,6.647,0,0,1,9.367,0l14.147,14.076a6.569,6.569,0,0,1,0,9.322l-14.147,14.076A6.647,6.647,0,0,1,1477.561,147.61Z" fill="#5937db"/><polygon points="1401.339 152.271 1377.825 128.874 1401.339 105.477 1410.705 114.798 1396.561 128.874 1410.705 142.95 1401.339 152.271" fill="#5937db"/><rect x="1417.663" y="122.283" width="51.667" height="13.183" fill="#5937db"/><rect x="1478.604" y="167.104" width="158.975" height="13.183" fill="#5937db"/><rect x="1387.193" y="167.104" width="73.747" height="13.183" fill="#5937db"/><rect x="1462.706" y="198.742" width="160.3" height="13.183" fill="#5937db"/><rect x="1387.193" y="198.742" width="58.732" height="13.183" fill="#5937db"/><rect x="1432.236" y="235.653" width="90.086" height="13.183" fill="#5937db"/><path d="M237.171,249.763a152.905,152.905,0,0,0,7.454-47.275c0-84.9-69.168-153.73-154.491-153.73A154.3,154.3,0,0,0,0,77.629V249.763Z" fill="#4325c3"/><path d="M124.615,134.587,76.125,250H56.561l48.278-115.413Z" fill="#5937db"/><path d="M204.635,203.9,139.844,233.3V216.944l46.339-18.432v-.274L139.844,178.5V162.065l64.791,30.647Z" fill="#5937db"/><polygon points="0 215.501 41.2 234.199 41.2 217.771 0 201.274 0 215.501" fill="#5937db"/><polygon points="0 182.376 0 196.73 41.2 179.186 41.2 162.755 0 182.376" fill="#5937db"/><polygon points="1969.844 0.995 1969.844 6.349 2016.183 26.09 2016.183 26.365 1969.844 44.797 1969.844 61.154 2034.635 31.749 2034.635 20.565 1993.263 0.995 1969.844 0.995" fill="#4325c3"/><polygon points="1871.2 7.039 1871.2 0.995 1849.389 0.995 1806.41 21.463 1806.41 32.647 1871.2 62.052 1871.2 45.624 1825.003 27.126 1825.003 26.71 1871.2 7.039" fill="#4325c3"/><polygon points="1919.792 0.995 1885.561 82.828 1905.125 82.828 1939.507 0.995 1919.792 0.995" fill="#4325c3"/></svg>