<svg xmlns="http://www.w3.org/2000/svg" xmlns:xlink="http://www.w3.org/1999/xlink" viewBox="0 0 2500 250"><defs><clipPath id="a"><rect x="2520" y="-270" width="2500" height="250" fill="none"/></clipPath></defs><title>banner-small-outline-purple</title><g clip-path="url(#a)"><ellipse cx="2610.134" cy="-67.319" rx="154.492" ry="153.876" fill="#002e65"/></g><rect width="2500" height="250" fill="#5c2d91"/><path d="M197.4,38.511a4.15,4.15,0,0,1,2.092.568,4.108,4.108,0,0,1,.839.652,4.153,4.153,0,0,1,.654.839,4.149,4.149,0,0,1,.417,3.194,4.181,4.181,0,0,1-.417.994,4.3,4.3,0,0,1-.654.839,4.2,4.2,0,0,1-.839.648,4.168,4.168,0,0,1-3.194.422,4.21,4.21,0,0,1-.993-.422,4.174,4.174,0,0,1-1.488-1.487,4.233,4.233,0,0,1-.421-.994,4.116,4.116,0,0,1,.421-3.194,4.165,4.165,0,0,1,.649-.839,4.219,4.219,0,0,1,.839-.652,4.079,4.079,0,0,1,.993-.418A4.032,4.032,0,0,1,197.4,38.511Z" fill="#401467"/><path d="M31.375,34.36a8.3,8.3,0,0,1,4.183,1.135,8.58,8.58,0,0,1,2.983,2.984,8,8,0,0,1,.836,1.978,8.313,8.313,0,0,1-.836,6.4,8.473,8.473,0,0,1-1.3,1.678,8.3,8.3,0,0,1-1.678,1.3,8.218,8.218,0,0,1-1.978.844,8.247,8.247,0,0,1-6.4-.844,8.348,8.348,0,0,1-2.975-2.975,8.369,8.369,0,0,1-.844-6.4,8.218,8.218,0,0,1,.844-1.978,8.3,8.3,0,0,1,1.3-1.678,8.515,8.515,0,0,1,1.678-1.306,8.2,8.2,0,0,1,1.986-.835A8.111,8.111,0,0,1,31.375,34.36Z" fill="#401467"/><path d="M278.5,9.588a23.273,23.273,0,0,1,16.34,6.68,22.662,22.662,0,0,1,3.61,4.637,22.421,22.421,0,0,1,3.15,11.512,21.054,21.054,0,0,1-1.8,8.723,23.83,23.83,0,0,1-5.151,7.3,19.343,19.343,0,0,0-4.2,5.934,17.38,17.38,0,0,0-1.445,7.1v8.3a6.065,6.065,0,0,1-.491,2.432,6.266,6.266,0,0,1-1.346,1.978,6.364,6.364,0,0,1-2,1.33A6.247,6.247,0,0,1,282.7,76h-8.4a6.247,6.247,0,0,1-2.461-.486,6.348,6.348,0,0,1-2-1.33,6.253,6.253,0,0,1-1.347-1.978A6.065,6.065,0,0,1,268,69.774v-8.3a17.062,17.062,0,0,0-1.476-7.1,18.892,18.892,0,0,0-4.169-5.934,23.83,23.83,0,0,1-5.151-7.3,21.054,21.054,0,0,1-1.8-8.723,22.421,22.421,0,0,1,3.15-11.512,22.662,22.662,0,0,1,3.61-4.637,23.241,23.241,0,0,1,4.66-3.567,23.551,23.551,0,0,1,5.544-2.3A23.064,23.064,0,0,1,278.5,9.588ZM282,72a2.029,2.029,0,0,0,2-2V64H272v6a2.029,2.029,0,0,0,2,2Zm2.667-13a21.455,21.455,0,0,1,2.14-7.588,25.2,25.2,0,0,1,4.636-6.356,19.929,19.929,0,0,0,4.12-5.934,17.1,17.1,0,0,0,1.459-7.1,17.913,17.913,0,0,0-1.492-7.264,18.58,18.58,0,0,0-9.923-9.922,18.426,18.426,0,0,0-14.527,0,18.713,18.713,0,0,0-5.934,3.988,19.172,19.172,0,0,0-4.022,5.934,18.244,18.244,0,0,0-1.459,7.264,17.427,17.427,0,0,0,1.428,7.1,20.477,20.477,0,0,0,4.151,5.934,25.153,25.153,0,0,1,4.636,6.356A21.434,21.434,0,0,1,272.02,59Z" fill="#401467"/><path d="M143.769,16.59q.843,1.459,1.524,2.789a22.956,22.956,0,0,1,1.233,2.691,15.5,15.5,0,0,1,.778,2.854,16.442,16.442,0,0,1,.292,3.21,18.8,18.8,0,0,1-5.481,13.2,19.172,19.172,0,0,1-3.794,2.951,19.561,19.561,0,0,1-4.475,1.881,18.584,18.584,0,0,1-4.929.649q-.746,0-1.524-.065-.745-.065-1.491-.2L99.765,72.69A10.606,10.606,0,0,1,96.2,75.057a10.831,10.831,0,0,1-4.151.811,10.641,10.641,0,0,1-4.216-.843,10.9,10.9,0,0,1-5.8-5.805,10.636,10.636,0,0,1-.843-4.215,10.845,10.845,0,0,1,.81-4.151,10.624,10.624,0,0,1,2.368-3.567L110.5,31.15q-.129-.745-.194-1.491-.065-.778-.065-1.525a18.548,18.548,0,0,1,.649-4.929,19.552,19.552,0,0,1,1.88-4.475,19.267,19.267,0,0,1,2.951-3.794,18.349,18.349,0,0,1,3.794-2.918,18.671,18.671,0,0,1,9.4-2.562,16.369,16.369,0,0,1,3.211.292,15.414,15.414,0,0,1,2.853.778,23.2,23.2,0,0,1,2.692,1.232q1.329.681,2.788,1.525L127.685,26.059l3.308,3.308ZM128.917,42.662a14.066,14.066,0,0,0,5.643-1.135,14.921,14.921,0,0,0,4.6-3.113,14.671,14.671,0,0,0,3.113-4.605,13.949,13.949,0,0,0,1.168-5.675,13.658,13.658,0,0,0-.778-4.572L130.993,35.2l-9.145-9.144L133.49,14.385a13.638,13.638,0,0,0-4.573-.778,13.968,13.968,0,0,0-5.675,1.167,14.689,14.689,0,0,0-4.6,3.113,14.913,14.913,0,0,0-3.113,4.605,14.064,14.064,0,0,0-1.135,5.642,12.271,12.271,0,0,0,.194,2.2q.195,1.071.454,2.141L87.313,60.238a6.751,6.751,0,0,0-1.46,2.172,6.757,6.757,0,0,0,0,5.189,6.972,6.972,0,0,0,3.6,3.6,6.742,6.742,0,0,0,5.188,0,6.741,6.741,0,0,0,2.173-1.459l27.758-27.726q1.069.26,2.14.454A12.278,12.278,0,0,0,128.917,42.662Z" fill="#401467"/><path d="M1087.769,16.59q.843,1.459,1.524,2.789a22.956,22.956,0,0,1,1.233,2.691,15.5,15.5,0,0,1,.778,2.854,16.442,16.442,0,0,1,.292,3.21,18.8,18.8,0,0,1-5.481,13.2,19.172,19.172,0,0,1-3.794,2.951,19.561,19.561,0,0,1-4.475,1.881,18.584,18.584,0,0,1-4.929.649q-.745,0-1.524-.065-.745-.065-1.491-.2L1043.765,72.69a10.606,10.606,0,0,1-3.567,2.367,10.831,10.831,0,0,1-4.151.811,10.641,10.641,0,0,1-4.216-.843,10.9,10.9,0,0,1-5.8-5.805,10.636,10.636,0,0,1-.843-4.215,10.845,10.845,0,0,1,.81-4.151,10.624,10.624,0,0,1,2.368-3.567L1054.5,31.15q-.129-.745-.194-1.491-.065-.778-.065-1.525a18.548,18.548,0,0,1,.649-4.929,19.552,19.552,0,0,1,1.88-4.475,19.267,19.267,0,0,1,2.951-3.794,18.349,18.349,0,0,1,3.794-2.918,18.671,18.671,0,0,1,9.4-2.562,16.369,16.369,0,0,1,3.211.292,15.414,15.414,0,0,1,2.853.778,23.2,23.2,0,0,1,2.692,1.232q1.329.681,2.788,1.525l-12.776,12.776,3.308,3.308Zm-14.852,26.072a14.066,14.066,0,0,0,5.643-1.135,14.921,14.921,0,0,0,4.6-3.113,14.671,14.671,0,0,0,3.113-4.605,13.949,13.949,0,0,0,1.168-5.675,13.658,13.658,0,0,0-.778-4.572L1074.993,35.2l-9.145-9.144,11.642-11.674a13.638,13.638,0,0,0-4.573-.778,13.968,13.968,0,0,0-5.675,1.167,14.689,14.689,0,0,0-4.6,3.113,14.913,14.913,0,0,0-3.113,4.605,14.064,14.064,0,0,0-1.135,5.642,12.271,12.271,0,0,0,.194,2.2q.195,1.071.454,2.141l-27.725,27.758a6.751,6.751,0,0,0-1.46,2.172,6.757,6.757,0,0,0,0,5.189,6.972,6.972,0,0,0,3.6,3.6,6.742,6.742,0,0,0,5.188,0,6.741,6.741,0,0,0,2.173-1.459l27.758-27.726q1.07.26,2.14.454A12.278,12.278,0,0,0,1072.917,42.662Z" fill="#401467"/><path d="M370.7,50H355.132l7.783-15.565Z" fill="#401467"/><path d="M459,26h20V63H413V26h21V18h25Zm-21-4v4h17V22Zm37,8H417v8h13V34h4v4h25V34h4v4h12ZM417,59h58V42H463v5h-4V42H434v5h-4V42H417Z" fill="#401467"/><path d="M699,39v7h-7V39Z" fill="#401467"/><path d="M788.884,9.456a22.791,22.791,0,0,1,22.829,22.829A22.614,22.614,0,0,1,808.6,43.8a23.292,23.292,0,0,1-8.2,8.2A22.872,22.872,0,0,1,781.1,53.752a23.352,23.352,0,0,1-6.809-3.924L748.836,75.252a2.064,2.064,0,1,1-2.918-2.919l25.423-25.456a23.391,23.391,0,0,1-3.925-6.809,22.768,22.768,0,0,1,1.752-19.295,22.955,22.955,0,0,1,3.568-4.6,23.23,23.23,0,0,1,4.636-3.6,22.614,22.614,0,0,1,11.512-3.113Zm0,41.507a18.244,18.244,0,0,0,7.264-1.459,19.171,19.171,0,0,0,5.933-4.021,18.71,18.71,0,0,0,3.989-5.934,18.429,18.429,0,0,0,0-14.528,18.589,18.589,0,0,0-9.922-9.923,18.44,18.44,0,0,0-14.528,0,18.728,18.728,0,0,0-5.933,3.989,19.155,19.155,0,0,0-4.022,5.934,18.812,18.812,0,0,0,0,14.528A19,19,0,0,0,781.62,49.5,18.244,18.244,0,0,0,788.884,50.963Z" fill="#401467"/><path d="M529.463,34.36a8.313,8.313,0,0,1,4.184,1.135,8.254,8.254,0,0,1,1.677,1.306,8.132,8.132,0,0,1,1.305,1.678,7.89,7.89,0,0,1,.835,1.978,8.321,8.321,0,0,1-.835,6.4,8.464,8.464,0,0,1-2.982,2.975,8.349,8.349,0,0,1-6.388.844,8.359,8.359,0,0,1-1.988-.844,8.356,8.356,0,0,1-2.974-2.975,8.377,8.377,0,0,1-.843-1.986,8.3,8.3,0,0,1,2.14-8.066,8.538,8.538,0,0,1,1.677-1.306,8.372,8.372,0,0,1,4.192-1.135Z" fill="#401467"/><path d="M637,41.323v.58a5.122,5.122,0,0,1,0,1.161v.581l8.355,5.194-5.128,12.355L630.645,59q-.774.838-1.612,1.613l2.192,9.581-12.354,5.128-5.194-8.354a5.4,5.4,0,0,0-.58.032h-1.161a5.4,5.4,0,0,0-.58-.032l-5.194,8.354-12.354-5.128L596,60.613q-.838-.774-1.612-1.613l-9.582,2.194-5.128-12.355,8.355-5.194a5.4,5.4,0,0,0-.033-.581V41.9a5.37,5.37,0,0,0,.033-.58l-8.355-5.194,5.128-12.355,9.582,2.194q.774-.838,1.612-1.613l-2.192-9.581,12.354-5.129L611.356,18h.58a5.281,5.281,0,0,1,1.161,0h.58l5.194-8.355,12.354,5.129-2.192,9.581q.838.774,1.612,1.613l9.582-2.194,5.128,12.355Zm-3.7,4.387q.064-.779.131-1.524.065-.779.064-1.556,0-.747-.064-1.525t-.131-1.524l7.654-4.766-2.79-6.745-8.787,2.042a26.558,26.558,0,0,0-2.075-2.269q-1.039-1.038-2.27-2.076l2.042-8.788-6.745-2.789-4.8,7.653L614,21.714c-.519-.044-1.025-.065-1.523-.065q-.779,0-1.557.065l-1.523.129-4.767-7.653-6.745,2.789,2.042,8.788a26.4,26.4,0,0,0-2.27,2.076q-1.037,1.037-2.076,2.269l-8.787-2.042-2.789,6.745,7.654,4.8-.131,1.556c-.044.5-.064,1-.064,1.524,0,.5.02,1.006.064,1.524s.087,1.027.131,1.525l-7.654,4.766,2.789,6.745,8.787-2.043a29.912,29.912,0,0,0,2.044,2.27q1.071,1.038,2.3,2.076l-2.042,8.788,6.745,2.788,4.8-7.653q.747.066,1.525.13c.519.043,1.026.065,1.524.065q.779,0,1.523-.065l1.557-.13,4.767,7.653,6.745-2.788-2.042-8.788a30.493,30.493,0,0,0,2.27-2.043q1.037-1.071,2.075-2.3l8.787,2.043,2.79-6.745ZM612.478,30.469a11.592,11.592,0,0,1,4.734.973,11.92,11.92,0,0,1,6.485,6.486,11.573,11.573,0,0,1,.974,4.734,11.8,11.8,0,0,1-.974,4.767,12.111,12.111,0,0,1-2.594,3.859,12.466,12.466,0,0,1-3.891,2.626,11.943,11.943,0,0,1-4.734.941,12.182,12.182,0,0,1-4.767-.941,12.511,12.511,0,0,1-6.486-6.485,12.178,12.178,0,0,1-.94-4.767,11.938,11.938,0,0,1,.94-4.734,12.487,12.487,0,0,1,2.628-3.892,12.129,12.129,0,0,1,3.858-2.594A11.824,11.824,0,0,1,612.478,30.469Zm0,20.754a8.581,8.581,0,0,0,3.339-.649,8.8,8.8,0,0,0,2.725-1.848A8.349,8.349,0,0,0,620.358,46a8.531,8.531,0,0,0,0-6.68,8.344,8.344,0,0,0-4.541-4.54,8.526,8.526,0,0,0-6.678,0,8.353,8.353,0,0,0-2.725,1.816,8.765,8.765,0,0,0-1.848,2.724,8.919,8.919,0,0,0,0,6.68,8.743,8.743,0,0,0,4.573,4.572A8.577,8.577,0,0,0,612.478,51.223Z" fill="#401467"/><path d="M218,130h-4v22.829a5.9,5.9,0,0,1-.507,2.432,6.256,6.256,0,0,1-1.389,1.978,6.709,6.709,0,0,1-9.208,0,6.256,6.256,0,0,1-1.389-1.978,5.9,5.9,0,0,1-.507-2.432V130h-4v-4h9V108.308l-4-4.125V93h12v11.252l-4,4.151V126h8Zm-12-27.649,2,2.107,2-2.107V97h-4ZM210,130h-4v22.829a2.03,2.03,0,0,0,.594,1.459,1.913,1.913,0,0,0,2.812,0,2.03,2.03,0,0,0,.594-1.459ZM187,93.677a9.357,9.357,0,0,1,3.875.812,10.334,10.334,0,0,1,5.313,5.313,9.373,9.373,0,0,1,.812,3.875,9.942,9.942,0,0,1-4,7.968v40.032a5.875,5.875,0,0,1-.469,2.343,5.964,5.964,0,0,1-3.187,3.188,6.092,6.092,0,0,1-4.688,0,5.964,5.964,0,0,1-3.187-3.188,5.875,5.875,0,0,1-.469-2.343V111.645a9.942,9.942,0,0,1-4-7.968,9.68,9.68,0,0,1,.781-3.875,10.026,10.026,0,0,1,2.125-3.157,10.152,10.152,0,0,1,3.188-2.156A9.572,9.572,0,0,1,187,93.677Zm2,15.757a13.336,13.336,0,0,0,1.594-1.063,7.148,7.148,0,0,0,1.281-1.219,5.151,5.151,0,0,0,.813-1.531,5.562,5.562,0,0,0,.312-1.937,5.358,5.358,0,0,0-.312-1.813,5.965,5.965,0,0,0-.813-1.625,5.323,5.323,0,0,0-1.25-1.312A6.127,6.127,0,0,0,189,98.059v5.625l-2,2-2-2V98.059a6,6,0,0,0-1.656.875,6.227,6.227,0,0,0-1.25,1.312,7.417,7.417,0,0,0-.813,1.625,5.9,5.9,0,0,0-.281,1.813,6.131,6.131,0,0,0,.281,1.937,5.767,5.767,0,0,0,.844,1.531,7.7,7.7,0,0,0,1.25,1.219A15.77,15.77,0,0,0,185,109.434v42.25a2,2,0,0,0,4,0Z" fill="#401467"/><path d="M44.087,142.28a8.028,8.028,0,0,1,3.113.745,7.707,7.707,0,0,1,2.562,1.784,8.262,8.262,0,0,1,1.718,2.627,8,8,0,0,1-.032,6.388,8.437,8.437,0,0,1-1.784,2.626,8.677,8.677,0,0,1-2.626,1.784,8.347,8.347,0,0,1-6.454,0,8.464,8.464,0,0,1-4.41-4.41,8.253,8.253,0,0,1,3.762-10.571l-8.626-17.22-8.593,17.155a8.18,8.18,0,0,1,1.848,1.329,7.929,7.929,0,0,1,1.427,1.751,8.887,8.887,0,0,1,.908,2.076,7.675,7.675,0,0,1,.324,2.237,7.859,7.859,0,0,1-.681,3.243,8.435,8.435,0,0,1-1.783,2.626,8.682,8.682,0,0,1-2.627,1.784,8.12,8.12,0,0,1-3.21.649,8.2,8.2,0,0,1-3.243-.649,9.261,9.261,0,0,1-2.627-1.784,9.239,9.239,0,0,1-1.783-2.626,8.2,8.2,0,0,1-.649-3.243,7.919,7.919,0,0,1,.617-3.113,8.118,8.118,0,0,1,1.686-2.594,8.312,8.312,0,0,1,2.5-1.816,8.445,8.445,0,0,1,3.113-.778l10.441-20.949L17.982,99.345l1.881-5.674L31.31,116.629,42.757,93.671l1.881,5.674L33.645,121.331ZM18.923,154.732a4.025,4.025,0,0,0,1.621-.324,4.163,4.163,0,0,0,1.3-.876,4.252,4.252,0,0,0,.908-1.33,4.205,4.205,0,0,0,0-3.242,4.564,4.564,0,0,0-2.2-2.206,4.217,4.217,0,0,0-3.242,0,4.272,4.272,0,0,0-1.33.909,4.146,4.146,0,0,0-.876,1.3,4.217,4.217,0,0,0,0,3.242,3.95,3.95,0,0,0,2.206,2.206A4.021,4.021,0,0,0,18.923,154.732Zm24.9,0a4.021,4.021,0,0,0,1.621-.324,4.167,4.167,0,0,0,1.3-.876,4.269,4.269,0,0,0,.908-1.33,4.217,4.217,0,0,0,0-3.242,4.561,4.561,0,0,0-2.206-2.206,4.217,4.217,0,0,0-3.242,0,4.283,4.283,0,0,0-1.33.909,4.16,4.16,0,0,0-.875,1.3,4.205,4.205,0,0,0,0,3.242,3.945,3.945,0,0,0,2.205,2.206A4.025,4.025,0,0,0,43.827,154.732Z" fill="#401467"/><path d="M288,118v15H273V118Z" fill="#401467"/><path d="M118,122v7h-7v-7Z" fill="#401467"/><path d="M373.811,92.471a22.815,22.815,0,0,1,19.716,34.341,23.292,23.292,0,0,1-8.2,8.2,22.872,22.872,0,0,1-19.295,1.751,23.339,23.339,0,0,1-6.809-3.924l-25.457,25.423a2.063,2.063,0,1,1-2.918-2.918l25.424-25.456a23.361,23.361,0,0,1-3.925-6.81,22.767,22.767,0,0,1,1.752-19.294,23.292,23.292,0,0,1,8.2-8.2,22.58,22.58,0,0,1,11.512-3.113Zm0,41.507a18.236,18.236,0,0,0,7.263-1.459,19.181,19.181,0,0,0,5.934-4.021A18.744,18.744,0,0,0,391,122.564a18.429,18.429,0,0,0,0-14.528,18.586,18.586,0,0,0-9.923-9.923,18.426,18.426,0,0,0-14.527,0,18.716,18.716,0,0,0-5.934,3.989,19.172,19.172,0,0,0-4.022,5.934,18.812,18.812,0,0,0,0,14.528,19,19,0,0,0,9.956,9.955A18.237,18.237,0,0,0,373.811,133.978Z" fill="#401467"/><path d="M450.08,129H442.3l3.891-7.783Z" fill="#401467"/><path d="M662,93h63v33H696v29H662Zm29,58V126H666v25Zm0-29V97H666v25Zm29,0V97H695v25Z" fill="#401467"/><path d="M542,105v14.538a14.844,14.844,0,0,1-.906,5.16,14.665,14.665,0,0,1-6.344,7.562,13.446,13.446,0,0,1-4.75,1.655V159h-5V133.915a13.471,13.471,0,0,1-4.782-1.655,15.044,15.044,0,0,1-3.812-3.213A14.813,14.813,0,0,1,513,119.538V105h4V93h4v12h13V93h4v12Zm-4,4H517v10.377a10.154,10.154,0,0,0,.821,4.053,10.787,10.787,0,0,0,2.23,3.308,10.924,10.924,0,0,0,3.348,2.205,10.506,10.506,0,0,0,4.1.811,10.291,10.291,0,0,0,4.07-.811,10.473,10.473,0,0,0,5.577-5.513,9.833,9.833,0,0,0,.853-4.053Z" fill="#401467"/><path d="M612.478,117.375a8.313,8.313,0,0,1,4.184,1.135,8.241,8.241,0,0,1,1.677,1.3,8.138,8.138,0,0,1,1.3,1.679,8.259,8.259,0,0,1,.834,6.388,8.076,8.076,0,0,1-.834,1.986,8.464,8.464,0,0,1-2.982,2.975,8.34,8.34,0,0,1-6.388.843,8.4,8.4,0,0,1-1.988-.843,8.356,8.356,0,0,1-2.974-2.975,8.346,8.346,0,0,1-.843-6.4,8.137,8.137,0,0,1,.843-1.978,8.275,8.275,0,0,1,1.3-1.679,8.466,8.466,0,0,1,1.677-1.3,8.176,8.176,0,0,1,1.988-.835A8.06,8.06,0,0,1,612.478,117.375Z" fill="#401467"/><path d="M785.771,133H770.206l7.782-15.565Z" fill="#401467"/><path d="M197.4,204.541a4.163,4.163,0,0,1,2.092.567,4.151,4.151,0,0,1,1.91,2.481,4.15,4.15,0,0,1,0,2.2,4.164,4.164,0,0,1-.417.994,4.255,4.255,0,0,1-1.493,1.488,4.181,4.181,0,0,1-3.194.422,4.21,4.21,0,0,1-.993-.422,4.357,4.357,0,0,1-.839-.649,4.163,4.163,0,0,1-1.07-1.833,4.111,4.111,0,0,1,.421-3.193,4.137,4.137,0,0,1,.649-.839,4.224,4.224,0,0,1,.839-.653,4.077,4.077,0,0,1,.993-.417A4.032,4.032,0,0,1,197.4,204.541Z" fill="#401467"/><path d="M31.375,200.39a8.3,8.3,0,0,1,4.183,1.135,8.566,8.566,0,0,1,2.983,2.983,8.02,8.02,0,0,1,.836,1.978,8.326,8.326,0,0,1-.836,6.4,8.489,8.489,0,0,1-1.3,1.676,8.309,8.309,0,0,1-1.678,1.3,8.173,8.173,0,0,1-1.978.842,8.264,8.264,0,0,1-6.4-.842,8.377,8.377,0,0,1-2.975-2.974,8.384,8.384,0,0,1-.844-1.989,8.3,8.3,0,0,1,2.141-8.065,8.473,8.473,0,0,1,1.678-1.305,8.156,8.156,0,0,1,1.986-.835A8.072,8.072,0,0,1,31.375,200.39Z" fill="#401467"/><path d="M293,192h20v37H247V192h21v-8h25Zm-21-4v4h17v-4Zm37,8H251v8h13v-4h4v4h25v-4h4v4h12Zm-58,29h58V208H297v5h-4v-5H268v5h-4v-5H251Z" fill="#401467"/><path d="M112.5,175.588a23.287,23.287,0,0,1,16.341,6.68,22.692,22.692,0,0,1,3.609,4.637,22.395,22.395,0,0,1,3.15,11.512,21.055,21.055,0,0,1-1.805,8.723,23.8,23.8,0,0,1-5.151,7.3,19.377,19.377,0,0,0-4.2,5.934,17.4,17.4,0,0,0-1.444,7.1v8.3a6.048,6.048,0,0,1-.492,2.432,6.258,6.258,0,0,1-1.345,1.978,6.341,6.341,0,0,1-2,1.33A6.25,6.25,0,0,1,116.7,242h-8.4a6.25,6.25,0,0,1-2.461-.486,6.341,6.341,0,0,1-2-1.33,6.258,6.258,0,0,1-1.345-1.978,6.048,6.048,0,0,1-.492-2.432v-8.3a17.066,17.066,0,0,0-1.477-7.1,18.9,18.9,0,0,0-4.167-5.934,23.8,23.8,0,0,1-5.151-7.3,21.055,21.055,0,0,1-1.8-8.723,22.395,22.395,0,0,1,3.15-11.512,22.692,22.692,0,0,1,3.609-4.637,23.3,23.3,0,0,1,4.66-3.567,23.576,23.576,0,0,1,5.545-2.3A23.053,23.053,0,0,1,112.5,175.588ZM116,238a2.029,2.029,0,0,0,2-2v-6H106v6a2.029,2.029,0,0,0,2,2Zm2.638-13a21.461,21.461,0,0,1,2.14-7.588,25.157,25.157,0,0,1,4.637-6.356,19.977,19.977,0,0,0,4.118-5.934,17.1,17.1,0,0,0,1.46-7.1,17.913,17.913,0,0,0-1.492-7.264,18.58,18.58,0,0,0-9.923-9.922,18.426,18.426,0,0,0-14.527,0,18.729,18.729,0,0,0-5.935,3.988,19.2,19.2,0,0,0-4.021,5.934,18.244,18.244,0,0,0-1.459,7.264,17.443,17.443,0,0,0,1.427,7.1,20.5,20.5,0,0,0,4.151,5.934,25.182,25.182,0,0,1,4.637,6.356,21.461,21.461,0,0,1,2.14,7.588Z" fill="#401467"/><path d="M370.7,216H355.132l7.783-15.565Z" fill="#401467"/><path d="M471,207.323v.58a4.92,4.92,0,0,1,.033.581,4.624,4.624,0,0,1-.1.991l.07.169,8.354,5.194-5.128,12.355L464.645,225q-.774.839-1.612,1.612l2.192,9.582-12.354,5.128-5.194-8.355a5.4,5.4,0,0,0-.58.033h-1.161a5.4,5.4,0,0,0-.58-.033l-5.194,8.355-12.354-5.128L430,226.612q-.839-.774-1.612-1.612l-9.582,2.193-5.128-12.355,8.355-5.194a5.4,5.4,0,0,0-.033-.58V207.9a5.37,5.37,0,0,0,.033-.58l-8.355-5.194,5.128-12.355,9.582,2.194q.774-.838,1.612-1.613l-2.192-9.581,12.354-5.129L445.356,184h.58a5.281,5.281,0,0,1,1.161,0h.58l5.194-8.355,12.354,5.129-2.192,9.581q.838.774,1.612,1.613l9.582-2.194,5.128,12.355Zm-3.734,4.417q.066-.779.131-1.525.066-.779.065-1.556,0-.745-.065-1.524t-.131-1.524l7.654-4.767-2.789-6.745-8.787,2.043a26.74,26.74,0,0,0-2.075-2.27q-1.041-1.038-2.271-2.075l2.042-8.788L454.3,180.22l-4.8,7.653q-.747-.064-1.525-.13c-.519-.043-1.025-.065-1.524-.065q-.777,0-1.556.065-.747.065-1.523.13L438.6,180.22l-6.744,2.789L433.9,191.8a26.413,26.413,0,0,0-2.271,2.075q-1.036,1.038-2.075,2.27l-8.787-2.043-2.79,6.745,7.654,4.8-.13,1.557q-.066.746-.065,1.525,0,.744.065,1.523t.13,1.523l-7.654,4.767,2.79,6.745,8.787-2.042a30.3,30.3,0,0,0,2.044,2.271q1.071,1.036,2.3,2.075l-2.042,8.787,6.744,2.789,4.8-7.654q.747.066,1.525.131c.519.044,1.025.064,1.523.064.519,0,1.028-.02,1.524-.064l1.556-.131,4.767,7.654,6.745-2.789L459,225.587a30.3,30.3,0,0,0,2.271-2.044q1.036-1.071,2.075-2.3l8.787,2.042,2.789-6.745ZM446.448,196.5a11.6,11.6,0,0,1,4.734.972,11.926,11.926,0,0,1,6.486,6.486,11.589,11.589,0,0,1,.973,4.734,11.82,11.82,0,0,1-.973,4.767,12.1,12.1,0,0,1-2.594,3.859,12.461,12.461,0,0,1-3.892,2.627,11.935,11.935,0,0,1-4.734.94,12.185,12.185,0,0,1-4.767-.94,12.511,12.511,0,0,1-6.485-6.486,12.178,12.178,0,0,1-.94-4.767,11.938,11.938,0,0,1,.94-4.734,12.451,12.451,0,0,1,2.627-3.891,12.126,12.126,0,0,1,3.858-2.595A11.843,11.843,0,0,1,446.448,196.5Zm0,20.753a8.582,8.582,0,0,0,3.34-.649,8.807,8.807,0,0,0,2.725-1.847,8.374,8.374,0,0,0,1.816-2.725,8.543,8.543,0,0,0,0-6.68,8.344,8.344,0,0,0-4.541-4.54,8.529,8.529,0,0,0-6.679,0,8.379,8.379,0,0,0-2.725,1.816,8.8,8.8,0,0,0-1.847,2.724,8.919,8.919,0,0,0,0,6.68,8.728,8.728,0,0,0,4.572,4.572A8.581,8.581,0,0,0,446.448,217.252Z" fill="#401467"/><path d="M699,205v7h-7v-7Z" fill="#401467"/><path d="M807.886,182.62q.844,1.458,1.525,2.788a22.7,22.7,0,0,1,1.231,2.692,15.259,15.259,0,0,1,.778,2.853,16.289,16.289,0,0,1,.293,3.211,18.684,18.684,0,0,1-2.561,9.4,18.358,18.358,0,0,1-2.92,3.794,19.2,19.2,0,0,1-3.794,2.95,19.54,19.54,0,0,1-4.474,1.883,18.624,18.624,0,0,1-4.929.647c-.5,0-1-.021-1.524-.064-.5-.044-1-.108-1.492-.195L763.882,238.72a10.618,10.618,0,0,1-3.567,2.366,10.831,10.831,0,0,1-4.151.811,10.646,10.646,0,0,1-4.215-.842,10.9,10.9,0,0,1-5.8-5.805,10.647,10.647,0,0,1-.843-4.215,10.809,10.809,0,0,1,.812-4.151,10.583,10.583,0,0,1,2.366-3.568l26.137-26.137q-.13-.746-.195-1.491-.066-.778-.065-1.524a18.584,18.584,0,0,1,.648-4.929,19.52,19.52,0,0,1,1.882-4.475,19.247,19.247,0,0,1,2.951-3.794,18.293,18.293,0,0,1,3.794-2.919,18.664,18.664,0,0,1,9.4-2.562,16.45,16.45,0,0,1,3.21.292,15.448,15.448,0,0,1,2.854.779,22.872,22.872,0,0,1,2.692,1.232q1.329.681,2.787,1.524L791.8,192.088l3.308,3.308Zm-14.851,26.071a14.069,14.069,0,0,0,5.643-1.135,14.949,14.949,0,0,0,4.605-3.113,14.706,14.706,0,0,0,3.113-4.6,14,14,0,0,0,1.166-5.675,13.628,13.628,0,0,0-.778-4.572L795.11,201.233l-9.144-9.145,11.641-11.674a13.662,13.662,0,0,0-4.572-.778,13.941,13.941,0,0,0-5.674,1.168,14.653,14.653,0,0,0-4.606,3.113,14.938,14.938,0,0,0-3.113,4.6,14.066,14.066,0,0,0-1.135,5.643,12.278,12.278,0,0,0,.2,2.205q.194,1.069.453,2.14L751.43,226.268a6.731,6.731,0,0,0-1.459,2.173,6.742,6.742,0,0,0,0,5.188,6.965,6.965,0,0,0,3.6,3.6,6.754,6.754,0,0,0,5.188,0,6.774,6.774,0,0,0,2.173-1.459l27.758-27.726q1.071.26,2.142.454A12.243,12.243,0,0,0,793.035,208.691Z" fill="#401467"/><path d="M529.463,200.39a8.313,8.313,0,0,1,4.184,1.135,8.575,8.575,0,0,1,2.982,2.983,7.905,7.905,0,0,1,.835,1.978,8.334,8.334,0,0,1-.835,6.4,8.452,8.452,0,0,1-1.305,1.676,8.359,8.359,0,0,1-1.677,1.3,8.331,8.331,0,0,1-6.388.842,8.313,8.313,0,0,1-1.988-.842,8.385,8.385,0,0,1-2.974-2.974,8.381,8.381,0,0,1-.843-1.989,8.3,8.3,0,0,1,2.14-8.065,8.5,8.5,0,0,1,1.677-1.305,8.372,8.372,0,0,1,4.192-1.135Z" fill="#401467"/><path d="M622.855,175.485a22.816,22.816,0,0,1,19.716,34.342,23.3,23.3,0,0,1-8.2,8.2,22.868,22.868,0,0,1-19.295,1.752,23.375,23.375,0,0,1-6.809-3.924l-25.457,25.423a2.063,2.063,0,1,1-2.918-2.918l25.424-25.457a23.378,23.378,0,0,1-3.925-6.809,22.764,22.764,0,0,1,1.752-19.294,22.965,22.965,0,0,1,3.567-4.6,23.244,23.244,0,0,1,4.637-3.6,22.606,22.606,0,0,1,11.512-3.113Zm0,41.508a18.236,18.236,0,0,0,7.263-1.459,19.149,19.149,0,0,0,5.934-4.022,18.732,18.732,0,0,0,3.989-5.934,18.426,18.426,0,0,0,0-14.527,18.578,18.578,0,0,0-9.923-9.923,18.426,18.426,0,0,0-14.527,0,18.73,18.73,0,0,0-5.934,3.988,19.189,19.189,0,0,0-4.022,5.935,18.81,18.81,0,0,0,0,14.527,19,19,0,0,0,9.956,9.956A18.237,18.237,0,0,0,622.855,216.993Z" fill="#401467"/><path d="M916,46h-4V68.829a5.879,5.879,0,0,1-.508,2.432,6.233,6.233,0,0,1-1.388,1.978,6.564,6.564,0,0,1-2.065,1.331,6.888,6.888,0,0,1-5.078,0,6.564,6.564,0,0,1-2.065-1.331,6.233,6.233,0,0,1-1.388-1.978A5.879,5.879,0,0,1,899,68.829V46h-4V42h9V24.308l-4-4.125V9h12V20.253l-4,4.15V42h8ZM904,18.35l2,2.109,2-2.109V13h-4ZM908,46h-4V68.829a2.032,2.032,0,0,0,.594,1.459,1.913,1.913,0,0,0,2.812,0A2.032,2.032,0,0,0,908,68.829ZM885,9.706a9.357,9.357,0,0,1,3.875.812,10.337,10.337,0,0,1,5.313,5.312A9.381,9.381,0,0,1,895,19.706a9.942,9.942,0,0,1-4,7.968V67.706a5.88,5.88,0,0,1-.469,2.344,5.973,5.973,0,0,1-3.187,3.188,6.1,6.1,0,0,1-4.688,0,5.973,5.973,0,0,1-3.187-3.188A5.88,5.88,0,0,1,879,67.706V27.674a9.942,9.942,0,0,1-4-7.968,9.688,9.688,0,0,1,.781-3.876,10.033,10.033,0,0,1,2.125-3.156,10.169,10.169,0,0,1,3.188-2.156A9.572,9.572,0,0,1,885,9.706Zm2,15.757a13.454,13.454,0,0,0,1.594-1.062,7.187,7.187,0,0,0,1.281-1.22,5.158,5.158,0,0,0,.813-1.53A5.564,5.564,0,0,0,891,19.713a5.353,5.353,0,0,0-.312-1.812,5.956,5.956,0,0,0-.813-1.626,5.306,5.306,0,0,0-1.25-1.312A6.152,6.152,0,0,0,887,14.089v5.624l-2,2-2-2V14.089a6.019,6.019,0,0,0-1.656.874,6.2,6.2,0,0,0-1.25,1.312,7.4,7.4,0,0,0-.813,1.626A5.9,5.9,0,0,0,879,19.713a6.133,6.133,0,0,0,.281,1.938,5.776,5.776,0,0,0,.844,1.53,7.745,7.745,0,0,0,1.25,1.22A15.932,15.932,0,0,0,883,25.463v42.25a2,2,0,0,0,4,0Z" fill="#401467"/><path d="M1152,34V49h-15V34Z" fill="#401467"/><path d="M982,38v7h-7V38Z" fill="#401467"/><path d="M1240,21V35.538a14.836,14.836,0,0,1-.906,5.16,14.665,14.665,0,0,1-6.344,7.562,13.446,13.446,0,0,1-4.75,1.655V75h-5V49.915a13.471,13.471,0,0,1-4.782-1.655,15.024,15.024,0,0,1-3.812-3.213A14.813,14.813,0,0,1,1211,35.538V21h4V9h4V21h13V9h4V21Zm-4,4h-21V35.377a10.147,10.147,0,0,0,.821,4.053,10.775,10.775,0,0,0,2.23,3.308,10.9,10.9,0,0,0,3.348,2.2,10.471,10.471,0,0,0,4.1.812,10.256,10.256,0,0,0,4.07-.812,10.467,10.467,0,0,0,5.577-5.512,9.81,9.81,0,0,0,.853-4.053Z" fill="#401467"/><path d="M1314.08,45H1306.3l3.891-7.783Z" fill="#401467"/><path d="M1572.2,58.309a8.081,8.081,0,0,1,3.113.745,7.685,7.685,0,0,1,2.561,1.785,8.211,8.211,0,0,1,1.721,2.625,8.015,8.015,0,0,1-.034,6.388,8.389,8.389,0,0,1-1.784,2.628,8.708,8.708,0,0,1-2.626,1.784,8.354,8.354,0,0,1-6.452,0,8.462,8.462,0,0,1-4.412-4.412,8.193,8.193,0,0,1-.648-3.242,8.28,8.28,0,0,1,1.167-4.279,8.145,8.145,0,0,1,3.243-3.049l-8.625-17.219-8.594,17.155a8.227,8.227,0,0,1,1.849,1.328,7.829,7.829,0,0,1,1.426,1.752,8.823,8.823,0,0,1,.909,2.075,7.68,7.68,0,0,1,.324,2.237,7.835,7.835,0,0,1-.681,3.242,8.392,8.392,0,0,1-1.785,2.628,8.69,8.69,0,0,1-2.625,1.784,8.354,8.354,0,0,1-6.452,0,8.459,8.459,0,0,1-4.413-4.412,8.21,8.21,0,0,1-.647-3.242,7.922,7.922,0,0,1,.616-3.113,8.2,8.2,0,0,1,1.685-2.594,8.367,8.367,0,0,1,2.5-1.816,8.455,8.455,0,0,1,3.113-.778l10.443-20.949L1546.1,15.374l1.88-5.674,11.448,22.959L1570.874,9.7l1.882,5.674L1561.763,37.36ZM1547.04,70.761a4.021,4.021,0,0,0,1.621-.324,4.132,4.132,0,0,0,1.3-.875,4.282,4.282,0,0,0,.909-1.331,4.215,4.215,0,0,0,0-3.241,4.568,4.568,0,0,0-2.206-2.207,4.229,4.229,0,0,0-3.242,0,4.266,4.266,0,0,0-1.33.909,4.156,4.156,0,0,0-.876,1.3,4.227,4.227,0,0,0,0,3.241,3.942,3.942,0,0,0,2.206,2.206A4.021,4.021,0,0,0,1547.04,70.761Zm24.9,0a4.021,4.021,0,0,0,1.621-.324,4.143,4.143,0,0,0,1.3-.875,4.282,4.282,0,0,0,.909-1.331,4.227,4.227,0,0,0,0-3.241,4.568,4.568,0,0,0-2.206-2.207,4.229,4.229,0,0,0-3.242,0,4.266,4.266,0,0,0-1.33.909,4.139,4.139,0,0,0-.876,1.3,4.215,4.215,0,0,0,0,3.241,3.942,3.942,0,0,0,2.206,2.206A4.021,4.021,0,0,0,1571.945,70.761Z" fill="#401467"/><path d="M1360,9h62V42h-29V71h-33Zm29,58V42h-25V67Zm0-29V13h-25V38Zm29,0V13h-25V38Z" fill="#401467"/><path d="M1476.478,33.405a8.032,8.032,0,0,1,2.2.3,7.941,7.941,0,0,1,1.98.835,8.583,8.583,0,0,1,2.982,2.982,8.259,8.259,0,0,1,.834,6.388,8.058,8.058,0,0,1-.834,1.988,8.472,8.472,0,0,1-2.982,2.974,8.34,8.34,0,0,1-6.388.843,8.316,8.316,0,0,1-1.988-.843,8.363,8.363,0,0,1-2.974-2.974,8.346,8.346,0,0,1-.843-6.4,8.151,8.151,0,0,1,.843-1.98,8.318,8.318,0,0,1,1.3-1.677,8.429,8.429,0,0,1,1.677-1.3,8.372,8.372,0,0,1,4.192-1.135Z" fill="#401467"/><path d="M1649.771,49h-15.565l7.782-15.565Z" fill="#401467"/><path d="M1818.4,39.6a4.163,4.163,0,0,1,2.092.567,4.334,4.334,0,0,1,1.493,1.492,4.149,4.149,0,0,1,.417,3.194,4.164,4.164,0,0,1-.417.994,4.3,4.3,0,0,1-.654.839,4.238,4.238,0,0,1-.839.649,4.181,4.181,0,0,1-3.194.422,4.21,4.21,0,0,1-.993-.422,4.357,4.357,0,0,1-.839-.649,4.309,4.309,0,0,1-.649-.839,4.215,4.215,0,0,1-.421-.994,4.116,4.116,0,0,1,.421-3.194,4.158,4.158,0,0,1,.649-.838,4.229,4.229,0,0,1,.839-.654,4.077,4.077,0,0,1,.993-.417A4.032,4.032,0,0,1,1818.4,39.6Z" fill="#401467"/><path d="M1911.8,10.544a22.8,22.8,0,0,1,22.829,22.829,22.64,22.64,0,0,1-3.113,11.512,23.292,23.292,0,0,1-8.2,8.2,22.879,22.879,0,0,1-19.3,1.752,23.378,23.378,0,0,1-6.809-3.925L1871.748,76.34a2.063,2.063,0,1,1-2.918-2.918l25.423-25.457a23.378,23.378,0,0,1-3.925-6.809,22.768,22.768,0,0,1,1.752-19.295,23.292,23.292,0,0,1,8.2-8.2,22.64,22.64,0,0,1,11.512-3.113Zm0,41.508a18.244,18.244,0,0,0,7.264-1.459,19.173,19.173,0,0,0,5.933-4.022,18.727,18.727,0,0,0,3.989-5.934,18.429,18.429,0,0,0,0-14.528,18.592,18.592,0,0,0-9.922-9.922,18.429,18.429,0,0,0-14.528,0,18.711,18.711,0,0,0-5.933,3.989,19.139,19.139,0,0,0-4.022,5.933,18.812,18.812,0,0,0,0,14.528,19.008,19.008,0,0,0,9.955,9.956A18.24,18.24,0,0,0,1911.8,52.052Z" fill="#401467"/><path d="M1991.7,51h-15.566l7.783-15.565Z" fill="#401467"/><path d="M2096.827,17.679q.844,1.458,1.526,2.788a22.842,22.842,0,0,1,1.23,2.691,15.37,15.37,0,0,1,.779,2.854,16.373,16.373,0,0,1,.292,3.21,18.642,18.642,0,0,1-2.561,9.4,18.332,18.332,0,0,1-2.92,3.794,19.24,19.24,0,0,1-3.793,2.951,19.52,19.52,0,0,1-4.475,1.882,18.578,18.578,0,0,1-4.929.648c-.5,0-1-.021-1.523-.065-.5-.043-1-.107-1.493-.2l-26.137,26.138a10.591,10.591,0,0,1-3.567,2.365,10.809,10.809,0,0,1-4.151.812,10.63,10.63,0,0,1-4.215-.843,10.892,10.892,0,0,1-5.805-5.8,10.648,10.648,0,0,1-.842-4.216,10.807,10.807,0,0,1,.811-4.15,10.6,10.6,0,0,1,2.366-3.568l26.137-26.137c-.087-.5-.151-.994-.195-1.492-.044-.519-.064-1.025-.064-1.524a18.624,18.624,0,0,1,.647-4.929,19.5,19.5,0,0,1,1.883-4.474,19.2,19.2,0,0,1,2.951-3.794,18.313,18.313,0,0,1,3.794-2.92,18.669,18.669,0,0,1,9.4-2.561,16.387,16.387,0,0,1,3.211.293,15.28,15.28,0,0,1,2.853.778,23.027,23.027,0,0,1,2.692,1.231q1.329.681,2.787,1.525l-12.776,12.776,3.308,3.308ZM2081.976,43.75a14.069,14.069,0,0,0,5.643-1.135,14.949,14.949,0,0,0,4.605-3.113,14.694,14.694,0,0,0,3.113-4.605,13.994,13.994,0,0,0,1.167-5.675,13.638,13.638,0,0,0-.779-4.572l-11.674,11.641-9.144-9.144,11.641-11.674a13.633,13.633,0,0,0-4.572-.778,13.989,13.989,0,0,0-5.674,1.166,14.7,14.7,0,0,0-4.605,3.113,14.954,14.954,0,0,0-3.113,4.606,14.045,14.045,0,0,0-1.136,5.642,12.163,12.163,0,0,0,.2,2.2q.192,1.069.452,2.141l-27.725,27.758a6.757,6.757,0,0,0-1.459,2.173,6.745,6.745,0,0,0,0,5.189,6.968,6.968,0,0,0,3.6,3.6,6.742,6.742,0,0,0,5.188,0,6.741,6.741,0,0,0,2.173-1.459L2077.63,43.1q1.071.258,2.142.452A12.153,12.153,0,0,0,2081.976,43.75Z" fill="#401467"/><path d="M2320,40v7h-7V40Z" fill="#401467"/><path d="M2412,27h21V64h-66V27h20V19h25Zm-21-4v4h17V23Zm38,8h-58v9h12V36h4v4h25V36h4v4h13Zm-58,30h58V44h-13v4h-4V44h-25v4h-4V44h-12Z" fill="#401467"/><path d="M2150.463,35.449a8.34,8.34,0,0,1,4.184,1.135,8.583,8.583,0,0,1,2.982,2.982,7.9,7.9,0,0,1,.835,1.98,8.328,8.328,0,0,1-.835,6.4,8.458,8.458,0,0,1-1.3,1.677,8.354,8.354,0,0,1-1.677,1.3,8.327,8.327,0,0,1-6.388.843,8.316,8.316,0,0,1-1.988-.843,8.363,8.363,0,0,1-2.974-2.974,8.357,8.357,0,0,1-.843-1.988,8.224,8.224,0,0,1,.843-6.388,8.354,8.354,0,0,1,1.3-1.677,8.458,8.458,0,0,1,1.677-1.3,8.4,8.4,0,0,1,4.192-1.135Z" fill="#401467"/><path d="M1785,94h62v33h-29v29h-33Zm29,58V127h-25v25Zm0-29V98h-25v25Zm29,0V98h-25v25Z" fill="#401467"/><path d="M1748,180v14.538a14.836,14.836,0,0,1-.906,5.16,14.665,14.665,0,0,1-6.344,7.562,13.446,13.446,0,0,1-4.75,1.655V234h-5V208.915a13.459,13.459,0,0,1-4.781-1.655,15.011,15.011,0,0,1-3.813-3.213,14.813,14.813,0,0,1-3.406-9.509V180h4V168h4v12h13V168h4v12Zm-4,4h-21v10.377a10.164,10.164,0,0,0,.82,4.053,10.781,10.781,0,0,0,2.232,3.308,10.906,10.906,0,0,0,3.346,2.2,10.487,10.487,0,0,0,4.1.812,10.248,10.248,0,0,0,4.069-.812,10.473,10.473,0,0,0,5.578-5.512,9.826,9.826,0,0,0,.853-4.053Z" fill="#401467"/><path d="M1909,119v15h-15V119Z" fill="#401467"/><path d="M1739,123v7h-7v-7Z" fill="#401467"/><path d="M1997.145,143.368a8.045,8.045,0,0,1,3.113.745,7.651,7.651,0,0,1,2.561,1.785,8.211,8.211,0,0,1,1.721,2.625,8.021,8.021,0,0,1-.033,6.388,8.393,8.393,0,0,1-1.785,2.627,8.7,8.7,0,0,1-2.625,1.785,8.356,8.356,0,0,1-6.453,0,8.471,8.471,0,0,1-4.412-4.412,8.193,8.193,0,0,1-.648-3.242,8.286,8.286,0,0,1,1.167-4.279,8.141,8.141,0,0,1,3.244-3.049l-8.626-17.219-8.594,17.155a8.227,8.227,0,0,1,1.849,1.328,7.829,7.829,0,0,1,1.426,1.752,8.823,8.823,0,0,1,.909,2.075,7.68,7.68,0,0,1,.324,2.237,7.835,7.835,0,0,1-.681,3.242,8.36,8.36,0,0,1-1.785,2.627,8.675,8.675,0,0,1-2.625,1.785,8.354,8.354,0,0,1-6.452,0,8.462,8.462,0,0,1-4.412-4.412,8.193,8.193,0,0,1-.648-3.242,7.936,7.936,0,0,1,.616-3.113,8.18,8.18,0,0,1,1.686-2.594,8.328,8.328,0,0,1,2.5-1.816,8.44,8.44,0,0,1,3.113-.778l10.444-20.949-10.994-21.986,1.881-5.675,11.447,22.96,11.446-22.96,1.882,5.675L1986.7,122.419Zm-25.163,12.452a4.017,4.017,0,0,0,1.62-.324,4.15,4.15,0,0,0,1.3-.876,4.266,4.266,0,0,0,.909-1.33,4.229,4.229,0,0,0,0-3.242,4.568,4.568,0,0,0-2.207-2.206,4.215,4.215,0,0,0-3.241,0,4.282,4.282,0,0,0-1.331.909,4.143,4.143,0,0,0-.875,1.3,4.217,4.217,0,0,0,0,3.242,3.942,3.942,0,0,0,2.206,2.206A4.018,4.018,0,0,0,1971.982,155.82Zm24.9,0a4.021,4.021,0,0,0,1.621-.324,4.134,4.134,0,0,0,1.3-.876,4.266,4.266,0,0,0,.909-1.33,4.217,4.217,0,0,0,0-3.242,4.572,4.572,0,0,0-2.206-2.206,4.217,4.217,0,0,0-3.242,0,4.266,4.266,0,0,0-1.33.909,4.146,4.146,0,0,0-.876,1.3,4.217,4.217,0,0,0,0,3.242,3.95,3.95,0,0,0,2.206,2.206A4.021,4.021,0,0,0,1996.886,155.82Z" fill="#401467"/><path d="M2071.08,130H2063.3l3.891-7.783Z" fill="#401467"/><path d="M2326.869,93.559a22.813,22.813,0,0,1,19.716,34.341,23.292,23.292,0,0,1-8.2,8.2,22.876,22.876,0,0,1-19.294,1.752,23.383,23.383,0,0,1-6.81-3.925l-25.456,25.423a2.063,2.063,0,1,1-2.918-2.918l25.423-25.456a23.388,23.388,0,0,1-3.924-6.809,22.775,22.775,0,0,1,1.751-19.3,23.313,23.313,0,0,1,8.2-8.2,22.614,22.614,0,0,1,11.512-3.113Zm0,41.507a18.22,18.22,0,0,0,7.264-1.459,19.161,19.161,0,0,0,5.934-4.022,18.709,18.709,0,0,0,3.988-5.933,18.418,18.418,0,0,0,0-14.528,18.583,18.583,0,0,0-9.922-9.922,18.426,18.426,0,0,0-14.527,0,18.688,18.688,0,0,0-5.934,3.989,19.156,19.156,0,0,0-4.022,5.933,18.812,18.812,0,0,0,0,14.528,19.008,19.008,0,0,0,9.956,9.955A18.218,18.218,0,0,0,2326.869,135.066Z" fill="#401467"/><path d="M2171,131h-4v22.829a6.317,6.317,0,0,1-1.75,4.41,6.026,6.026,0,0,1-1.906,1.33,5.9,5.9,0,0,1-4.688,0,6.026,6.026,0,0,1-1.906-1.33,6.317,6.317,0,0,1-1.75-4.41V131h-4v-4h8V109.308l-4-4.125V94h12v11.253l-4,4.15V127h8Zm-12-27.65,2,2.109,2-2.109V98h-4Zm4,27.65h-4v22.829a2.032,2.032,0,0,0,.594,1.459,1.913,1.913,0,0,0,2.812,0,2.032,2.032,0,0,0,.594-1.459Zm-23-36.235a9.365,9.365,0,0,1,3.876.812,10.33,10.33,0,0,1,5.312,5.312,9.365,9.365,0,0,1,.812,3.876,9.942,9.942,0,0,1-4,7.968v40.032a5.9,5.9,0,0,1-.468,2.344,5.979,5.979,0,0,1-3.188,3.188,6.1,6.1,0,0,1-4.688,0,5.979,5.979,0,0,1-3.188-3.188,5.9,5.9,0,0,1-.468-2.344V112.733a9.942,9.942,0,0,1-4-7.968,9.672,9.672,0,0,1,.782-3.876,10.013,10.013,0,0,1,2.124-3.156,10.169,10.169,0,0,1,3.188-2.156A9.566,9.566,0,0,1,2140,94.765Zm2,15.757a13.454,13.454,0,0,0,1.594-1.062,7.263,7.263,0,0,0,1.282-1.22,5.155,5.155,0,0,0,.812-1.53,5.564,5.564,0,0,0,.312-1.938,5.353,5.353,0,0,0-.312-1.812,5.953,5.953,0,0,0-.812-1.626,5.332,5.332,0,0,0-1.252-1.312,6.131,6.131,0,0,0-1.624-.874v5.624l-2,2-2-2V99.148a6.019,6.019,0,0,0-1.656.874,6.178,6.178,0,0,0-1.25,1.312,7.356,7.356,0,0,0-.812,1.626,5.867,5.867,0,0,0-.282,1.812,6.1,6.1,0,0,0,.282,1.938,5.743,5.743,0,0,0,.842,1.53,7.8,7.8,0,0,0,1.252,1.22,15.806,15.806,0,0,0,1.624,1.062v42.25a2,2,0,0,0,4,0Z" fill="#401467"/><path d="M2233.478,118.463a8.032,8.032,0,0,1,2.2.3,7.9,7.9,0,0,1,1.98.835,8.583,8.583,0,0,1,2.982,2.982,8.259,8.259,0,0,1,.834,6.388,8.058,8.058,0,0,1-.834,1.988,8.487,8.487,0,0,1-1.3,1.677,8.383,8.383,0,0,1-1.677,1.3,8.34,8.34,0,0,1-6.388.843,8.357,8.357,0,0,1-1.988-.843,8.363,8.363,0,0,1-2.974-2.974,8.346,8.346,0,0,1-.843-6.4,8.151,8.151,0,0,1,.843-1.98,8.29,8.29,0,0,1,1.3-1.677,8.393,8.393,0,0,1,1.677-1.3,8.387,8.387,0,0,1,4.192-1.136Z" fill="#401467"/><path d="M2406.771,134h-15.565l7.782-15.565Z" fill="#401467"/><path d="M1818.4,205.629a4.016,4.016,0,0,1,1.1.149,4.067,4.067,0,0,1,.99.417,4.334,4.334,0,0,1,1.493,1.492,4.149,4.149,0,0,1,.566,2.092,4.055,4.055,0,0,1-.149,1.1,4.188,4.188,0,0,1-.417,1,4.277,4.277,0,0,1-1.493,1.488,4.185,4.185,0,0,1-3.194.421,4.25,4.25,0,0,1-.993-.421,4.4,4.4,0,0,1-.839-.65,4.148,4.148,0,0,1-1.07-1.833,4.232,4.232,0,0,1,0-2.2,4.168,4.168,0,0,1,1.07-1.828,4.267,4.267,0,0,1,.839-.654,4.156,4.156,0,0,1,.993-.417A4.032,4.032,0,0,1,1818.4,205.629Z" fill="#401467"/><path d="M1643.375,201.478a8.034,8.034,0,0,1,2.2.3,7.924,7.924,0,0,1,1.978.834,8.1,8.1,0,0,1,1.678,1.306,8.187,8.187,0,0,1,1.3,1.677,8.027,8.027,0,0,1,.836,1.979,8.321,8.321,0,0,1-.836,6.4,8.525,8.525,0,0,1-1.3,1.677,8.3,8.3,0,0,1-1.678,1.3,8.173,8.173,0,0,1-1.978.842,8.264,8.264,0,0,1-6.4-.842,8.356,8.356,0,0,1-2.975-2.974,8.394,8.394,0,0,1-.844-1.988,8.3,8.3,0,0,1,2.141-8.065,8.4,8.4,0,0,1,1.678-1.306,8.385,8.385,0,0,1,4.191-1.135Z" fill="#401467"/><path d="M1930.8,183.709q.843,1.457,1.525,2.787a22.7,22.7,0,0,1,1.231,2.692,15.28,15.28,0,0,1,.778,2.853,16.38,16.38,0,0,1,.293,3.211,18.669,18.669,0,0,1-2.561,9.4,18.313,18.313,0,0,1-2.92,3.794,19.238,19.238,0,0,1-3.794,2.951,19.54,19.54,0,0,1-4.474,1.883,18.624,18.624,0,0,1-4.929.647c-.5,0-1-.021-1.524-.064-.5-.044-1-.108-1.492-.2l-26.137,26.137a10.6,10.6,0,0,1-3.568,2.366,10.8,10.8,0,0,1-4.15.811,10.646,10.646,0,0,1-4.215-.842,10.9,10.9,0,0,1-5.805-5.805,10.63,10.63,0,0,1-.843-4.215,10.809,10.809,0,0,1,.812-4.151,10.569,10.569,0,0,1,2.366-3.567l26.137-26.138q-.13-.744-.195-1.492c-.044-.519-.065-1.025-.065-1.523a18.578,18.578,0,0,1,.648-4.929,19.52,19.52,0,0,1,1.882-4.475,19.24,19.24,0,0,1,2.951-3.793,18.332,18.332,0,0,1,3.794-2.92,18.642,18.642,0,0,1,9.4-2.561,16.373,16.373,0,0,1,3.21.292,15.368,15.368,0,0,1,2.854.778,23.1,23.1,0,0,1,2.692,1.231q1.329.683,2.787,1.526l-12.776,12.776,3.308,3.308Zm-14.851,26.07a14.052,14.052,0,0,0,5.643-1.135,14.949,14.949,0,0,0,4.605-3.113,14.7,14.7,0,0,0,3.113-4.605,13.989,13.989,0,0,0,1.166-5.674,13.633,13.633,0,0,0-.778-4.572l-11.674,11.641-9.144-9.144,11.641-11.674a13.638,13.638,0,0,0-4.572-.779,13.973,13.973,0,0,0-5.674,1.167,14.687,14.687,0,0,0-4.606,3.113,14.966,14.966,0,0,0-3.113,4.605,14.069,14.069,0,0,0-1.135,5.643,12.161,12.161,0,0,0,.195,2.2q.193,1.071.453,2.142l-27.725,27.758a6.731,6.731,0,0,0-1.459,2.173,6.742,6.742,0,0,0,0,5.188,6.968,6.968,0,0,0,3.6,3.6,6.745,6.745,0,0,0,5.189,0,6.757,6.757,0,0,0,2.173-1.459l27.758-27.725q1.071.258,2.142.452A12.145,12.145,0,0,0,1915.947,209.779Z" fill="#401467"/><path d="M1991.7,217h-15.566l7.783-15.565Z" fill="#401467"/><path d="M2065.5,176.588a23.119,23.119,0,0,1,11.649,3.113,22.791,22.791,0,0,1,8.3,8.2,22.421,22.421,0,0,1,3.15,11.512,21.061,21.061,0,0,1-1.8,8.723,23.818,23.818,0,0,1-5.151,7.3,19.343,19.343,0,0,0-4.2,5.934,17.383,17.383,0,0,0-1.445,7.1v8.3a6.065,6.065,0,0,1-.491,2.432,6.264,6.264,0,0,1-1.347,1.978,6.348,6.348,0,0,1-2,1.33,6.247,6.247,0,0,1-2.461.486h-8.4a6.247,6.247,0,0,1-2.461-.486,6.348,6.348,0,0,1-2-1.33,6.264,6.264,0,0,1-1.347-1.978,6.065,6.065,0,0,1-.491-2.432v-8.3a17.065,17.065,0,0,0-1.476-7.1,18.892,18.892,0,0,0-4.169-5.934,23.818,23.818,0,0,1-5.151-7.3,21.061,21.061,0,0,1-1.8-8.723,22.421,22.421,0,0,1,3.15-11.512,22.575,22.575,0,0,1,3.61-4.636,23.172,23.172,0,0,1,4.66-3.568,23.507,23.507,0,0,1,5.544-2.3A23.024,23.024,0,0,1,2065.5,176.588ZM2069,239a2.029,2.029,0,0,0,2-2v-6h-12v6a2.029,2.029,0,0,0,2,2Zm2.7-13a21.46,21.46,0,0,1,2.139-7.588,25.182,25.182,0,0,1,4.637-6.356,19.944,19.944,0,0,0,4.119-5.934,17.084,17.084,0,0,0,1.459-7.1,17.913,17.913,0,0,0-1.492-7.264,18.592,18.592,0,0,0-9.922-9.922,18.429,18.429,0,0,0-14.528,0,18.711,18.711,0,0,0-5.933,3.989,19.156,19.156,0,0,0-4.022,5.933,18.227,18.227,0,0,0-1.459,7.264,17.407,17.407,0,0,0,1.428,7.1,20.454,20.454,0,0,0,4.15,5.934,25.182,25.182,0,0,1,4.637,6.356,21.46,21.46,0,0,1,2.139,7.588Z" fill="#401467"/><path d="M2320,206v7h-7v-7Z" fill="#401467"/><path d="M2424,208.323l-.069.169a4.87,4.87,0,0,1,0,1.983l.069.169,8.355,5.194-5.128,12.354L2417.645,226q-.774.839-1.612,1.612l2.192,9.582-12.354,5.128-5.194-8.355a5.4,5.4,0,0,0-.58.033h-1.161a5.4,5.4,0,0,0-.58-.033l-5.194,8.355-12.354-5.128,2.192-9.582q-.839-.774-1.612-1.612l-9.582,2.192-5.128-12.354,8.355-5.194a5.4,5.4,0,0,0-.033-.58V208.9a5.4,5.4,0,0,0,.033-.58l-8.355-5.194,5.128-12.354,9.582,2.192q.774-.839,1.612-1.612l-2.192-9.582,12.354-5.128,5.194,8.355.169.069a4.87,4.87,0,0,1,1.983,0l.169-.069,5.194-8.355,12.354,5.128-2.192,9.582q.839.774,1.612,1.612l9.582-2.192,5.128,12.354Zm-3.675,4.5q.066-.779.131-1.525c.044-.519.064-1.038.064-1.557,0-.5-.02-1-.064-1.523s-.087-1.027-.131-1.523l7.654-4.768-2.789-6.744-8.787,2.042a26.918,26.918,0,0,0-2.076-2.271q-1.04-1.036-2.27-2.075l2.042-8.787-6.745-2.79-4.8,7.654q-.747-.065-1.525-.13c-.519-.044-1.026-.065-1.524-.065q-.779,0-1.556.065c-.5.043-1.005.087-1.524.13l-4.767-7.654-6.745,2.79,2.042,8.787a26.88,26.88,0,0,0-2.27,2.075q-1.036,1.039-2.075,2.271l-8.787-2.042-2.79,6.744,7.654,4.8-.131,1.556q-.065.747-.064,1.526,0,.744.064,1.523t.131,1.523l-7.654,4.767,2.79,6.745,8.787-2.042a30.3,30.3,0,0,0,2.044,2.271q1.071,1.037,2.3,2.075l-2.042,8.787,6.745,2.789,4.8-7.654q.748.066,1.526.131c.519.044,1.025.065,1.523.065q.778,0,1.524-.065l1.556-.131,4.767,7.654,6.745-2.789-2.042-8.787a30.084,30.084,0,0,0,2.27-2.044q1.036-1.071,2.076-2.3l8.787,2.042,2.789-6.745Zm-20.818-15.241a11.573,11.573,0,0,1,4.734.973,11.926,11.926,0,0,1,6.486,6.486,11.584,11.584,0,0,1,.973,4.733,11.829,11.829,0,0,1-.973,4.768,12.11,12.11,0,0,1-2.595,3.858,12.451,12.451,0,0,1-3.891,2.627,11.938,11.938,0,0,1-4.734.94,12.181,12.181,0,0,1-4.767-.94,12.514,12.514,0,0,1-6.485-6.485,12.187,12.187,0,0,1-.941-4.768,11.934,11.934,0,0,1,.941-4.733,12.444,12.444,0,0,1,2.627-3.892,12.107,12.107,0,0,1,3.858-2.594A11.807,11.807,0,0,1,2399.507,197.587Zm0,20.753a8.577,8.577,0,0,0,3.339-.649,8.784,8.784,0,0,0,2.725-1.847,8.343,8.343,0,0,0,1.816-2.725,8.529,8.529,0,0,0,0-6.679,8.342,8.342,0,0,0-4.541-4.541,8.538,8.538,0,0,0-6.678,0,8.353,8.353,0,0,0-2.725,1.816,8.767,8.767,0,0,0-1.847,2.725,8.9,8.9,0,0,0,0,6.679,8.728,8.728,0,0,0,4.572,4.572A8.581,8.581,0,0,0,2399.507,218.34Z" fill="#401467"/><path d="M2150.463,201.478a8.027,8.027,0,0,1,2.2.3,7.938,7.938,0,0,1,1.98.834,8.6,8.6,0,0,1,2.982,2.983,7.912,7.912,0,0,1,.835,1.979,8.33,8.33,0,0,1-.835,6.4,8.487,8.487,0,0,1-1.3,1.677,8.354,8.354,0,0,1-1.677,1.3,8.331,8.331,0,0,1-6.388.842,8.313,8.313,0,0,1-1.988-.842,8.363,8.363,0,0,1-2.974-2.974,8.392,8.392,0,0,1-.843-1.988,8.294,8.294,0,0,1,2.14-8.065,8.426,8.426,0,0,1,1.677-1.306,8.4,8.4,0,0,1,4.192-1.135Z" fill="#401467"/><path d="M2246,193h20v37h-66V193h21v-8h25Zm-21-4v4h17v-4Zm37,8h-58v9h13v-4h4v4h25v-4h4v4h12Zm-58,30h58V210h-12v4h-4v-4h-25v4h-4v-4h-13Z" fill="#401467"/><path d="M2210,10h62V43h-29V72h-33Zm29,58V43h-25V68Zm0-29V14h-25V39Zm29,0V14h-25V39Z" fill="#401467"/><path d="M1752,50h-4V72.829a6.317,6.317,0,0,1-1.75,4.41,6.026,6.026,0,0,1-1.906,1.33,5.9,5.9,0,0,1-4.688,0,6.026,6.026,0,0,1-1.906-1.33,6.317,6.317,0,0,1-1.75-4.41V50h-4V46h8V28.308l-4-4.125V13h12V24.253l-4,4.15V46h8Zm-12-27.65,2,2.109,2-2.109V17h-4ZM1744,50h-4V72.829a2.032,2.032,0,0,0,.594,1.459,1.913,1.913,0,0,0,2.812,0,2.032,2.032,0,0,0,.594-1.459Zm-23-36.206a9.365,9.365,0,0,1,3.876.812,10.33,10.33,0,0,1,5.312,5.312,9.365,9.365,0,0,1,.812,3.876,9.942,9.942,0,0,1-4,7.968V71.794a5.9,5.9,0,0,1-.468,2.344,5.979,5.979,0,0,1-3.188,3.188,6.1,6.1,0,0,1-4.688,0,5.979,5.979,0,0,1-3.188-3.188,5.9,5.9,0,0,1-.468-2.344V31.762a9.942,9.942,0,0,1-4-7.968,9.672,9.672,0,0,1,.782-3.876,10.013,10.013,0,0,1,2.124-3.156,10.169,10.169,0,0,1,3.188-2.156A9.566,9.566,0,0,1,1721,13.794Zm2,15.757a13.454,13.454,0,0,0,1.594-1.062,7.263,7.263,0,0,0,1.282-1.22,5.155,5.155,0,0,0,.812-1.53A5.564,5.564,0,0,0,1727,23.8a5.353,5.353,0,0,0-.312-1.812,5.953,5.953,0,0,0-.812-1.626,5.332,5.332,0,0,0-1.252-1.312,6.131,6.131,0,0,0-1.624-.874V23.8l-2,2-2-2V18.177a6.019,6.019,0,0,0-1.656.874,6.178,6.178,0,0,0-1.25,1.312,7.356,7.356,0,0,0-.812,1.626A5.867,5.867,0,0,0,1715,23.8a6.1,6.1,0,0,0,.282,1.938,5.743,5.743,0,0,0,.842,1.53,7.8,7.8,0,0,0,1.252,1.22A15.806,15.806,0,0,0,1719,29.551V71.8a2,2,0,0,0,4,0Z" fill="#401467"/><path d="M1061.4,120.57a4.136,4.136,0,0,1,2.092.567,4.311,4.311,0,0,1,1.493,1.492,4.149,4.149,0,0,1,.417,3.194,4.164,4.164,0,0,1-.417.994,4.277,4.277,0,0,1-1.493,1.488,4.185,4.185,0,0,1-3.194.421,4.208,4.208,0,0,1-.993-.421,4.4,4.4,0,0,1-.839-.65,4.273,4.273,0,0,1-.649-.838,4.215,4.215,0,0,1-.421-.994,4.116,4.116,0,0,1,.421-3.194,4.165,4.165,0,0,1,.649-.839,4.224,4.224,0,0,1,.839-.653,4.119,4.119,0,0,1,.993-.418A4.071,4.071,0,0,1,1061.4,120.57Z" fill="#401467"/><path d="M895.375,116.419a8.034,8.034,0,0,1,2.205.3,7.924,7.924,0,0,1,1.978.834,8.589,8.589,0,0,1,2.983,2.983,8.286,8.286,0,0,1,1.135,4.184,8.345,8.345,0,0,1-1.135,4.192,8.525,8.525,0,0,1-1.305,1.677,8.3,8.3,0,0,1-1.678,1.3,8.34,8.34,0,0,1-6.388.843,8.377,8.377,0,0,1-1.986-.843,8.356,8.356,0,0,1-2.975-2.974,8.369,8.369,0,0,1-.844-6.4,8.232,8.232,0,0,1,.844-1.98,8.326,8.326,0,0,1,1.3-1.677,8.441,8.441,0,0,1,1.678-1.306,8.385,8.385,0,0,1,4.191-1.135Z" fill="#401467"/><path d="M1169,123.323l-.069.169a4.87,4.87,0,0,1,0,1.983l.069.169,8.355,5.194-5.128,12.354L1162.645,141q-.774.839-1.612,1.612l2.192,9.582-12.354,5.128-5.194-8.355a5.4,5.4,0,0,0-.58.033h-1.161a5.4,5.4,0,0,0-.58-.033l-5.194,8.355-12.354-5.128,2.192-9.582q-.838-.774-1.612-1.612l-9.582,2.192-5.128-12.354,8.355-5.194a5.4,5.4,0,0,0-.033-.58V123.9a5.4,5.4,0,0,0,.033-.58l-8.355-5.194,5.128-12.354,9.582,2.192q.774-.838,1.612-1.612l-2.192-9.582,12.354-5.128,5.194,8.355.169.069a4.87,4.87,0,0,1,1.983,0l.169-.069,5.194-8.355,12.354,5.128-2.192,9.582q.839.774,1.612,1.612l9.582-2.192,5.128,12.354Zm-3.763,4.446q.066-.777.131-1.525.065-.779.064-1.557,0-.744-.064-1.523t-.131-1.523l7.654-4.767-2.789-6.745-8.787,2.042a27.074,27.074,0,0,0-2.076-2.271q-1.039-1.037-2.27-2.075l2.042-8.787-6.745-2.789-4.8,7.654q-.747-.066-1.526-.131c-.518-.044-1.025-.064-1.523-.064-.519,0-1.038.02-1.556.064-.5.044-1.005.087-1.524.131l-4.767-7.654-6.745,2.789,2.042,8.787a26.894,26.894,0,0,0-2.27,2.075q-1.036,1.041-2.076,2.271l-8.787-2.042-2.789,6.745,7.654,4.8-.131,1.557q-.065.747-.064,1.525,0,.744.064,1.523c.044.519.087,1.028.131,1.524l-7.654,4.767,2.789,6.745,8.787-2.043a30.329,30.329,0,0,0,2.045,2.271q1.071,1.036,2.3,2.075l-2.042,8.787,6.745,2.79,4.8-7.654q.747.065,1.526.13c.519.044,1.025.065,1.523.065q.779,0,1.523-.065l1.557-.13,4.767,7.654,6.745-2.79-2.042-8.787a30.084,30.084,0,0,0,2.27-2.044q1.037-1.071,2.076-2.3l8.787,2.043,2.789-6.745Zm-20.818-15.241a11.589,11.589,0,0,1,4.734.973,11.926,11.926,0,0,1,6.486,6.486,11.585,11.585,0,0,1,.973,4.734,11.824,11.824,0,0,1-.973,4.767,12.11,12.11,0,0,1-2.595,3.858,12.451,12.451,0,0,1-3.891,2.627,11.938,11.938,0,0,1-4.734.94,12.181,12.181,0,0,1-4.767-.94,12.52,12.52,0,0,1-6.486-6.485,12.2,12.2,0,0,1-.94-4.767,11.952,11.952,0,0,1,.94-4.734,12.476,12.476,0,0,1,2.628-3.892,12.107,12.107,0,0,1,3.858-2.594A11.824,11.824,0,0,1,1144.419,112.528Zm0,20.754a8.56,8.56,0,0,0,3.339-.65,8.767,8.767,0,0,0,2.725-1.847,8.322,8.322,0,0,0,1.816-2.725,8.529,8.529,0,0,0,0-6.679,8.336,8.336,0,0,0-4.541-4.54,8.526,8.526,0,0,0-6.678,0,8.335,8.335,0,0,0-2.725,1.815,8.79,8.79,0,0,0-1.847,2.725,8.9,8.9,0,0,0,0,6.679,8.728,8.728,0,0,0,4.572,4.572A8.56,8.56,0,0,0,1144.419,133.282Z" fill="#401467"/><path d="M991,108h20v37H945V108h21v-8h25Zm-21-4v4h17v-4Zm37,8H949v8h13v-4h4v4h25v-4h4v4h12Zm-58,30h58V125H995v4h-4v-4H966v4h-4v-4H949Z" fill="#401467"/><path d="M1234.7,132h-15.566l7.783-15.565Z" fill="#401467"/><path d="M1320.825,91.515a22.813,22.813,0,0,1,19.716,34.341,23.292,23.292,0,0,1-8.2,8.2,22.87,22.87,0,0,1-19.294,1.751,23.38,23.38,0,0,1-6.81-3.924l-25.456,25.423a2.063,2.063,0,1,1-2.918-2.918l25.423-25.456a23.38,23.38,0,0,1-3.924-6.81,22.774,22.774,0,0,1,1.751-19.294,23.313,23.313,0,0,1,8.2-8.2,22.614,22.614,0,0,1,11.512-3.113Zm0,41.507a18.22,18.22,0,0,0,7.264-1.459,19.172,19.172,0,0,0,5.934-4.022,18.709,18.709,0,0,0,3.988-5.933,18.418,18.418,0,0,0,0-14.528,18.583,18.583,0,0,0-9.922-9.922,18.429,18.429,0,0,0-14.528,0,18.7,18.7,0,0,0-5.933,3.989,19.156,19.156,0,0,0-4.022,5.933,18.812,18.812,0,0,0,0,14.528,19.01,19.01,0,0,0,9.955,9.955A18.227,18.227,0,0,0,1320.825,133.022Z" fill="#401467"/><path d="M1563,121v7h-7v-7Z" fill="#401467"/><path d="M1640.5,91.588a23.266,23.266,0,0,1,16.34,6.681,22.966,22.966,0,0,1,5.939,10.084,22.273,22.273,0,0,1,.821,6.064,21.061,21.061,0,0,1-1.8,8.723,23.818,23.818,0,0,1-5.151,7.3,19.343,19.343,0,0,0-4.2,5.934,17.383,17.383,0,0,0-1.445,7.1v8.3a6.065,6.065,0,0,1-.491,2.432,6.278,6.278,0,0,1-1.346,1.978,6.364,6.364,0,0,1-2,1.33,6.247,6.247,0,0,1-2.461.486h-8.4a6.247,6.247,0,0,1-2.461-.486,6.348,6.348,0,0,1-2-1.33,6.264,6.264,0,0,1-1.347-1.978,6.065,6.065,0,0,1-.491-2.432v-8.3a17.065,17.065,0,0,0-1.476-7.1,18.892,18.892,0,0,0-4.169-5.934,23.818,23.818,0,0,1-5.151-7.3,21.061,21.061,0,0,1-1.8-8.723,22.421,22.421,0,0,1,3.15-11.512,22.575,22.575,0,0,1,3.61-4.636,23.2,23.2,0,0,1,4.66-3.568,23.507,23.507,0,0,1,5.544-2.3A23.024,23.024,0,0,1,1640.5,91.588ZM1644,154a2.029,2.029,0,0,0,2-2v-6h-12v6a2.029,2.029,0,0,0,2,2Zm2.755-13a21.481,21.481,0,0,1,2.14-7.588,25.182,25.182,0,0,1,4.637-6.356,19.944,19.944,0,0,0,4.119-5.934,17.1,17.1,0,0,0,1.459-7.1,17.913,17.913,0,0,0-1.492-7.264,18.592,18.592,0,0,0-9.922-9.922,18.429,18.429,0,0,0-14.528,0,18.711,18.711,0,0,0-5.933,3.989,19.139,19.139,0,0,0-4.022,5.933,18.227,18.227,0,0,0-1.459,7.264,17.423,17.423,0,0,0,1.427,7.1,20.477,20.477,0,0,0,4.151,5.934,25.153,25.153,0,0,1,4.636,6.356,21.44,21.44,0,0,1,2.14,7.588Z" fill="#401467"/><path d="M1393.463,116.419a8.027,8.027,0,0,1,2.2.3,7.938,7.938,0,0,1,1.98.834,8.6,8.6,0,0,1,2.982,2.983,7.9,7.9,0,0,1,.835,1.98,8.328,8.328,0,0,1-.835,6.4,8.487,8.487,0,0,1-1.3,1.677,8.354,8.354,0,0,1-1.677,1.3,8.34,8.34,0,0,1-6.388.843,8.357,8.357,0,0,1-1.988-.843,8.363,8.363,0,0,1-2.974-2.974,8.357,8.357,0,0,1-.843-1.988,8.294,8.294,0,0,1,2.14-8.065,8.463,8.463,0,0,1,1.677-1.306,8.4,8.4,0,0,1,4.192-1.135Z" fill="#401467"/><path d="M1505.857,98.65q.843,1.456,1.525,2.787a23.027,23.027,0,0,1,1.231,2.692,15.347,15.347,0,0,1,.778,2.854,16.37,16.37,0,0,1,.293,3.21,18.677,18.677,0,0,1-2.561,9.4,18.334,18.334,0,0,1-2.92,3.793,19.243,19.243,0,0,1-3.794,2.952,19.545,19.545,0,0,1-4.475,1.882,18.578,18.578,0,0,1-4.929.647c-.5,0-1-.02-1.523-.064q-.747-.064-1.492-.195l-26.137,26.137a10.6,10.6,0,0,1-3.568,2.366,10.809,10.809,0,0,1-4.151.812,10.647,10.647,0,0,1-4.215-.843,10.892,10.892,0,0,1-5.8-5.805,10.63,10.63,0,0,1-.843-4.215,10.827,10.827,0,0,1,.811-4.151,10.608,10.608,0,0,1,2.366-3.567l26.137-26.137c-.087-.5-.151-.994-.195-1.493q-.065-.777-.064-1.523a18.578,18.578,0,0,1,.648-4.929,19.493,19.493,0,0,1,1.882-4.474A19.18,19.18,0,0,1,1477.808,97a18.332,18.332,0,0,1,3.794-2.92,18.669,18.669,0,0,1,9.4-2.561,16.376,16.376,0,0,1,3.211.292,15.37,15.37,0,0,1,2.854.779,22.842,22.842,0,0,1,2.691,1.23q1.331.683,2.788,1.526l-12.776,12.776,3.308,3.308Zm-14.852,26.071a14.049,14.049,0,0,0,5.643-1.136,14.936,14.936,0,0,0,4.606-3.113,14.7,14.7,0,0,0,3.113-4.6,13.989,13.989,0,0,0,1.166-5.674,13.633,13.633,0,0,0-.778-4.572l-11.674,11.641-9.144-9.144,11.64-11.674a13.628,13.628,0,0,0-4.572-.778,13.992,13.992,0,0,0-5.674,1.166,14.694,14.694,0,0,0-4.6,3.113,14.949,14.949,0,0,0-3.113,4.605,14.069,14.069,0,0,0-1.135,5.643,12.153,12.153,0,0,0,.195,2.2q.193,1.071.452,2.142L1449.4,142.3a6.741,6.741,0,0,0-1.459,2.173,6.742,6.742,0,0,0,0,5.188,6.968,6.968,0,0,0,3.6,3.6,6.745,6.745,0,0,0,5.189,0,6.768,6.768,0,0,0,2.173-1.459l27.758-27.725q1.069.258,2.141.453A12.251,12.251,0,0,0,1491.005,124.721Z" fill="#401467"/><path d="M1074,187v14.538a14.836,14.836,0,0,1-.906,5.16,14.665,14.665,0,0,1-6.344,7.562,13.446,13.446,0,0,1-4.75,1.655V241h-5V215.915a13.459,13.459,0,0,1-4.781-1.655,15.011,15.011,0,0,1-3.813-3.213,14.813,14.813,0,0,1-3.406-9.509V187h4V175h4v12h13V175h4v12Zm-4,4h-21v10.377a10.164,10.164,0,0,0,.82,4.053,10.781,10.781,0,0,0,2.232,3.308,10.906,10.906,0,0,0,3.346,2.2,10.487,10.487,0,0,0,4.1.812,10.26,10.26,0,0,0,4.07-.812,10.467,10.467,0,0,0,5.577-5.512,9.826,9.826,0,0,0,.853-4.053Z" fill="#401467"/><path d="M1152,200v15h-15V200Z" fill="#401467"/><path d="M982,204v7h-7v-7Z" fill="#401467"/><path d="M1194,175h62v33h-29v29h-33Zm29,58V208h-25v25Zm0-29V179h-25v25Zm29,0V179h-25v25Z" fill="#401467"/><path d="M1314.08,211H1306.3l3.891-7.783Z" fill="#401467"/><path d="M1580,212h-4v22.829a6.317,6.317,0,0,1-1.75,4.41,6.045,6.045,0,0,1-1.906,1.331,5.907,5.907,0,0,1-4.688,0,6.045,6.045,0,0,1-1.906-1.331,6.317,6.317,0,0,1-1.75-4.41V212h-4v-4h8V190.308l-4-4.125V175h12v11.253l-4,4.15V208h8Zm-12-27.65,2,2.109,2-2.109V179h-4Zm4,27.65h-4v22.829a2.032,2.032,0,0,0,.594,1.459,1.913,1.913,0,0,0,2.812,0,2.032,2.032,0,0,0,.594-1.459Zm-23-36.265a9.365,9.365,0,0,1,3.876.812,10.33,10.33,0,0,1,5.312,5.312,9.365,9.365,0,0,1,.812,3.876,9.942,9.942,0,0,1-4,7.968v40.032a5.9,5.9,0,0,1-.468,2.344,5.979,5.979,0,0,1-3.188,3.188,6.1,6.1,0,0,1-4.688,0,5.979,5.979,0,0,1-3.188-3.188,5.9,5.9,0,0,1-.468-2.344V193.7a9.942,9.942,0,0,1-4-7.968,9.672,9.672,0,0,1,.782-3.876,10.013,10.013,0,0,1,2.124-3.156,10.169,10.169,0,0,1,3.188-2.156A9.566,9.566,0,0,1,1549,175.735Zm2,15.757a13.454,13.454,0,0,0,1.594-1.062,7.263,7.263,0,0,0,1.282-1.22,5.155,5.155,0,0,0,.812-1.53,5.564,5.564,0,0,0,.312-1.938,5.353,5.353,0,0,0-.312-1.812,5.953,5.953,0,0,0-.812-1.626,5.332,5.332,0,0,0-1.252-1.312,6.131,6.131,0,0,0-1.624-.874v5.624l-2,2-2-2v-5.624a6.019,6.019,0,0,0-1.656.874,6.178,6.178,0,0,0-1.25,1.312,7.356,7.356,0,0,0-.812,1.626,5.867,5.867,0,0,0-.282,1.812,6.1,6.1,0,0,0,.282,1.938,5.743,5.743,0,0,0,.842,1.53,7.8,7.8,0,0,0,1.252,1.22,15.806,15.806,0,0,0,1.624,1.062v42.25a2,2,0,0,0,4,0Z" fill="#401467"/><path d="M1406.175,224.338a8.086,8.086,0,0,1,3.113.745,7.7,7.7,0,0,1,2.561,1.785,8.213,8.213,0,0,1,1.72,2.626,8.007,8.007,0,0,1-.033,6.387,8.381,8.381,0,0,1-1.785,2.628,8.693,8.693,0,0,1-2.625,1.785,8.366,8.366,0,0,1-6.452,0,8.466,8.466,0,0,1-4.413-4.413,8.2,8.2,0,0,1-.647-3.241,8.289,8.289,0,0,1,1.166-4.28,8.145,8.145,0,0,1,3.244-3.048l-8.625-17.22-8.594,17.155a8.285,8.285,0,0,1,1.849,1.329,7.851,7.851,0,0,1,1.426,1.751,8.848,8.848,0,0,1,.909,2.076,7.708,7.708,0,0,1,.323,2.237,7.845,7.845,0,0,1-.68,3.241,8.4,8.4,0,0,1-1.785,2.628,8.718,8.718,0,0,1-2.625,1.785,8.368,8.368,0,0,1-6.453,0,8.468,8.468,0,0,1-4.412-4.413,8.188,8.188,0,0,1-.648-3.241,7.919,7.919,0,0,1,.617-3.113,8.166,8.166,0,0,1,1.685-2.594,8.32,8.32,0,0,1,2.5-1.816,8.456,8.456,0,0,1,3.113-.779l10.443-20.948L1380.071,181.4l1.88-5.674,11.448,22.96,11.445-22.96,1.883,5.674-10.993,21.987Zm-25.164,12.453a4.021,4.021,0,0,0,1.621-.324,4.151,4.151,0,0,0,1.3-.876,4.266,4.266,0,0,0,.909-1.33,4.217,4.217,0,0,0,0-3.242,4.572,4.572,0,0,0-2.206-2.206,4.217,4.217,0,0,0-3.242,0,4.266,4.266,0,0,0-1.33.909,4.134,4.134,0,0,0-.876,1.3,4.217,4.217,0,0,0,0,3.242,3.95,3.95,0,0,0,2.206,2.206A4.021,4.021,0,0,0,1381.011,236.791Zm24.9,0a4.018,4.018,0,0,0,1.621-.324,4.151,4.151,0,0,0,1.3-.876,4.266,4.266,0,0,0,.909-1.33,4.217,4.217,0,0,0,0-3.242,4.572,4.572,0,0,0-2.206-2.206,4.217,4.217,0,0,0-3.242,0,4.266,4.266,0,0,0-1.33.909,4.151,4.151,0,0,0-.876,1.3,4.229,4.229,0,0,0,0,3.242,3.95,3.95,0,0,0,2.206,2.206A4.021,4.021,0,0,0,1405.915,236.791Z" fill="#401467"/><path d="M1476.478,199.434a8.032,8.032,0,0,1,2.2.3,7.938,7.938,0,0,1,1.98.834,8.605,8.605,0,0,1,2.982,2.982,8.259,8.259,0,0,1,.834,6.388,8.081,8.081,0,0,1-.834,1.989,8.487,8.487,0,0,1-1.305,1.677,8.383,8.383,0,0,1-1.677,1.3,8.331,8.331,0,0,1-6.388.842,8.313,8.313,0,0,1-1.988-.842,8.363,8.363,0,0,1-2.974-2.974,8.349,8.349,0,0,1-.843-6.4,8.185,8.185,0,0,1,.843-1.98,8.312,8.312,0,0,1,1.3-1.676,8.4,8.4,0,0,1,1.677-1.306,8.4,8.4,0,0,1,4.192-1.135Z" fill="#401467"/><path d="M908.087,219.28a8.028,8.028,0,0,1,3.113.745,7.707,7.707,0,0,1,2.562,1.784,8.262,8.262,0,0,1,1.718,2.627,8,8,0,0,1-.032,6.388,8.437,8.437,0,0,1-1.784,2.626,8.677,8.677,0,0,1-2.626,1.784,8.347,8.347,0,0,1-6.454,0,8.464,8.464,0,0,1-4.41-4.41,8.253,8.253,0,0,1,3.762-10.571l-8.626-17.22-8.593,17.155a8.18,8.18,0,0,1,1.848,1.329,7.929,7.929,0,0,1,1.427,1.751,8.887,8.887,0,0,1,.908,2.076,7.675,7.675,0,0,1,.324,2.237,7.859,7.859,0,0,1-.681,3.243,8.435,8.435,0,0,1-1.783,2.626,8.682,8.682,0,0,1-2.627,1.784,8.12,8.12,0,0,1-3.21.649,8.2,8.2,0,0,1-3.243-.649,8.455,8.455,0,0,1-4.41-4.41,8.2,8.2,0,0,1-.649-3.243,7.919,7.919,0,0,1,.617-3.113,8.118,8.118,0,0,1,1.686-2.594,8.312,8.312,0,0,1,2.5-1.816,8.445,8.445,0,0,1,3.113-.778l10.441-20.949-10.993-21.986,1.881-5.674,11.447,22.958,11.447-22.958,1.881,5.674-10.993,21.986Zm-25.164,12.452a4.025,4.025,0,0,0,1.621-.324,4.163,4.163,0,0,0,1.3-.876,4.252,4.252,0,0,0,.908-1.33,4.205,4.205,0,0,0,0-3.242,4.564,4.564,0,0,0-2.205-2.206,4.217,4.217,0,0,0-3.242,0,4.272,4.272,0,0,0-1.33.909,4.146,4.146,0,0,0-.876,1.3,4.217,4.217,0,0,0,0,3.242,3.95,3.95,0,0,0,2.206,2.206A4.021,4.021,0,0,0,882.923,231.732Zm24.9,0a4.021,4.021,0,0,0,1.621-.324,4.167,4.167,0,0,0,1.3-.876,4.269,4.269,0,0,0,.908-1.33,4.217,4.217,0,0,0,0-3.242,4.561,4.561,0,0,0-2.206-2.206,4.217,4.217,0,0,0-3.242,0,4.283,4.283,0,0,0-1.33.909,4.16,4.16,0,0,0-.875,1.3,4.205,4.205,0,0,0,0,3.242,3.945,3.945,0,0,0,2.205,2.206A4.025,4.025,0,0,0,907.827,231.732Z" fill="#401467"/><path d="M2496,102v14.538a14.836,14.836,0,0,1-.906,5.16,14.665,14.665,0,0,1-6.344,7.562,13.446,13.446,0,0,1-4.75,1.655V156h-5V130.915a13.459,13.459,0,0,1-4.781-1.655,15.011,15.011,0,0,1-3.813-3.213,14.813,14.813,0,0,1-3.406-9.509V102h4V90h4v12h13V90h4v12Zm-4,4h-21v10.377a10.164,10.164,0,0,0,.82,4.053,10.781,10.781,0,0,0,2.232,3.308,10.906,10.906,0,0,0,3.346,2.2,10.487,10.487,0,0,0,4.1.812,10.248,10.248,0,0,0,4.069-.812,10.473,10.473,0,0,0,5.578-5.512,9.826,9.826,0,0,0,.853-4.053Z" fill="#401467"/></svg>