<svg xmlns="http://www.w3.org/2000/svg" xmlns:xlink="http://www.w3.org/1999/xlink" viewBox="0 0 2500 250"><defs><clipPath id="a"><rect x="1" y="540" width="2500" height="250" fill="none"/></clipPath></defs><title>banner-outline-icons-blue</title><rect y="0.091" width="2500" height="250" fill="#0060c4"/><path d="M2143.336,86.535H2135.2L2151.728,31.3h8.135Zm-6.555-1.175h5.681l15.822-52.886H2152.6Z" fill="#0078d3"/><path d="M2132.284,75.95l-22.33-14.717v-4.81l22.33-13.611v7l-14.963,9.121,14.963,9.861ZM2111.129,60.6l19.98,13.168V69.425l-15.982-10.533,15.982-9.741V44.905l-19.98,12.178Z" fill="#0078d3"/><path d="M2165.191,75.95V68.792l14.963-9.861-14.963-9.121v-7l22.33,13.611v4.81Zm1.175-6.525v4.343l19.98-13.168V57.083l-19.98-12.178v4.246l15.982,9.741Z" fill="#0078d3"/><path d="M1863.727,46.12,1853.18,35.572l4.985-4.986,5.562,5.562L1878.1,21.772l4.986,4.986Zm-8.885-10.548,8.885,8.886,17.7-17.7-3.324-3.324L1863.727,37.81l-5.562-5.562Z" fill="#0078d3"/><rect x="1843.748" y="17.629" width="31.732" height="1.175" fill="#0078d3"/><rect x="1843.748" y="24.68" width="22.33" height="1.175" fill="#0078d3"/><rect x="1843.748" y="10.577" width="38.783" height="1.175" fill="#0078d3"/><path d="M588.687,63.827a8.24,8.24,0,1,1,8.24-8.239A8.249,8.249,0,0,1,588.687,63.827Zm0-15.278a7.039,7.039,0,1,0,7.039,7.039A7.047,7.047,0,0,0,588.687,48.549Z" fill="#0078d3"/><path d="M588.687,19.167a8.24,8.24,0,1,1,8.24-8.239A8.249,8.249,0,0,1,588.687,19.167Zm0-15.278a7.039,7.039,0,1,0,7.039,7.039A7.047,7.047,0,0,0,588.687,3.889Z" fill="#0078d3"/><path d="M621.6,63.827a8.24,8.24,0,1,1,8.239-8.239A8.249,8.249,0,0,1,621.6,63.827Zm0-15.278a7.039,7.039,0,1,0,7.038,7.039A7.046,7.046,0,0,0,621.6,48.549Z" fill="#0078d3"/><rect x="587.512" y="17.979" width="1.175" height="29.381" fill="#0078d3"/><path d="M621.6,47.361h-1.176V23.924c0-3.081-1.44-8.295-6.842-8.295h-9.611V14.454h9.641c6.305,0,7.988,5.923,7.988,9.423Z" fill="#0078d3"/><polygon points="613.05 4.934 613.822 5.762 604.255 15.04 613.955 24.452 613.183 25.28 602.595 15.04 613.05 4.934" fill="#0078d3"/><polygon points="154.296 16.467 145.1 25.583 145.1 1.825 143.925 1.825 143.925 25.585 134.866 16.6 134.005 17.372 144.511 27.827 155.157 17.239 154.296 16.467" fill="#0078d3"/><path d="M169.781,66.464H118.069V26.505h7.052V47.66H163.9V26.505h5.877Zm-50.536-1.175h49.36V27.68H165.08V48.835H123.946V27.68h-4.7Z" fill="#0078d3"/><path d="M140.358,60.546h-8.144V52.4h8.144Zm-7.052-1.092h5.959v-5.96h-5.959Z" fill="#0078d3"/><path d="M156.811,60.546h-8.144V52.4h8.144Zm-7.051-1.092h5.959v-5.96H149.76Z" fill="#0078d3"/><path d="M136.873,45.309h-9.4v-9.4h9.4Zm-8.226-1.175H135.7V37.082h-7.051Z" fill="#0078d3"/><path d="M148.626,45.309h-9.4v-9.4h9.4ZM140.4,44.134h7.052V37.082H140.4Z" fill="#0078d3"/><path d="M160.379,45.309h-9.4v-9.4h9.4Zm-8.227-1.175H159.2V37.082h-7.051Z" fill="#0078d3"/><path d="M495.116,56.464H463.134a10.075,10.075,0,0,1-7.886-16.345l15.594-19.612V9.454h-3.526V3.577h23.506V9.454H487.3V20.365L503,40.119a10.075,10.075,0,0,1-7.886,16.345ZM468.492,8.278h3.525V20.916L456.169,40.85a8.9,8.9,0,0,0,6.965,14.439h31.982a8.9,8.9,0,0,0,6.966-14.439L486.121,20.775V8.278h3.525V4.753H468.492Z" fill="#0078d3"/><path d="M491.492,51.763H466.318a6.7,6.7,0,0,1-5.306-10.8l6.178-8h23.43l6.178,8a6.7,6.7,0,0,1-5.306,10.8ZM467.769,34.134l-5.827,7.547a5.529,5.529,0,0,0,4.376,8.907h25.174a5.529,5.529,0,0,0,4.376-8.907l-5.827-7.547Z" fill="#0078d3"/><path d="M479.069,16.536a3.557,3.557,0,1,1,3.557-3.557A3.561,3.561,0,0,1,479.069,16.536Zm0-5.876a2.32,2.32,0,1,0,2.32,2.319A2.322,2.322,0,0,0,479.069,10.66Z" fill="#0078d3"/><path d="M480.832,28.246a4.1,4.1,0,1,1,4.1-4.1A4.107,4.107,0,0,1,480.832,28.246Zm0-7.052a2.95,2.95,0,1,0,2.949,2.95A2.954,2.954,0,0,0,480.832,21.194Z" fill="#0078d3"/><path d="M313.059,89.289H215.513V82.237h97.546Zm-96.371-1.176h95.2v-4.7H216.688Z" fill="#0078d3"/><path d="M284.853,76.361H243.719V70.484h41.134Zm-39.959-1.176h38.783V71.66H244.894Z" fill="#0078d3"/><polygon points="270.75 71.072 269.574 71.072 269.574 61.082 257.822 61.082 257.822 71.072 256.646 71.072 256.646 59.907 270.75 59.907 270.75 71.072" fill="#0078d3"/><path d="M304.177,61.082H223.219a3.009,3.009,0,0,1-3-3.006V6.5a3.009,3.009,0,0,1,3-3.006h80.958a3.009,3.009,0,0,1,3,3.006V58.076A3.009,3.009,0,0,1,304.177,61.082ZM223.219,4.67a1.833,1.833,0,0,0-1.83,1.831V58.076a1.833,1.833,0,0,0,1.83,1.831h80.958a1.833,1.833,0,0,0,1.83-1.831V6.5a1.833,1.833,0,0,0-1.83-1.831Z" fill="#0078d3"/><path d="M302.481,56.381H224.915V8.2h77.566ZM226.09,55.206h75.216V9.371H226.09Z" fill="#0078d3"/><rect x="271.925" y="9.077" width="1.175" height="46.716" fill="#0078d3"/><path d="M266.049,22.3H229.616V15.247h36.433Zm-35.258-1.175h34.082v-4.7H230.791Z" fill="#0078d3"/><path d="M262.523,38.753H229.616V25.825h32.907Zm-31.732-1.176h30.556V27H230.791Z" fill="#0078d3"/><path d="M244.894,48.155H229.616V42.278h15.278Zm-14.1-1.176h12.928V43.454H230.791Z" fill="#0078d3"/><path d="M1182.347,65.775a8.239,8.239,0,1,1,8.239-8.239A8.249,8.249,0,0,1,1182.347,65.775Zm0-15.278a7.039,7.039,0,1,0,7.039,7.039A7.046,7.046,0,0,0,1182.347,50.5Z" fill="#0078d3"/><path d="M1182.347,21.116a8.24,8.24,0,1,1,8.239-8.24A8.25,8.25,0,0,1,1182.347,21.116Zm0-15.279a7.039,7.039,0,1,0,7.039,7.039A7.047,7.047,0,0,0,1182.347,5.837Z" fill="#0078d3"/><path d="M1215.254,65.775a8.239,8.239,0,1,1,8.239-8.239A8.249,8.249,0,0,1,1215.254,65.775Zm0-15.278a7.039,7.039,0,1,0,7.039,7.039A7.046,7.046,0,0,0,1215.254,50.5Z" fill="#0078d3"/><rect x="1181.171" y="19.928" width="1.175" height="29.381" fill="#0078d3"/><path d="M1215.254,49.309h-1.175V25.872c0-3.081-1.441-8.295-6.843-8.295h-9.611V16.4h9.641c6.3,0,7.988,5.923,7.988,9.424Z" fill="#0078d3"/><polygon points="1206.709 6.883 1207.481 7.711 1197.914 16.989 1207.614 26.4 1206.842 27.229 1196.254 16.989 1206.709 6.883" fill="#0078d3"/><path d="M1321.368,60.113h-8.135L1329.76,4.876h8.135Zm-6.556-1.175h5.681l15.823-52.886h-5.681Z" fill="#0078d3"/><path d="M1310.316,49.527l-22.33-14.716V30l22.33-13.611v7l-14.963,9.121,14.963,9.861Zm-21.155-15.35,19.979,13.169V43L1293.158,32.47l15.982-9.742V18.482l-19.979,12.179Z" fill="#0078d3"/><path d="M1343.223,49.527V42.37l14.962-9.861-14.962-9.121v-7L1365.553,30v4.81ZM1344.4,43v4.343l19.979-13.169V30.661L1344.4,18.482v4.246l15.982,9.742Z" fill="#0078d3"/><polygon points="723.635 13.467 714.44 22.583 714.44 0.825 713.265 0.825 713.265 22.585 704.206 13.6 703.345 14.372 713.851 24.827 724.496 14.239 723.635 13.467" fill="#0078d3"/><path d="M739.12,63.464H687.409V23.505h7.051V44.66h38.784V23.505h5.876Zm-50.536-1.175h49.361V24.68h-3.526V45.835H693.285V24.68h-4.7Z" fill="#0078d3"/><path d="M709.7,57.546h-8.144V49.4H709.7Zm-7.051-1.092h5.959v-5.96h-5.959Z" fill="#0078d3"/><path d="M726.151,57.546h-8.144V49.4h8.144ZM719.1,56.454h5.959v-5.96H719.1Z" fill="#0078d3"/><path d="M706.213,42.309h-9.4v-9.4h9.4Zm-8.227-1.175h7.052V34.082h-7.052Z" fill="#0078d3"/><path d="M717.966,42.309h-9.4v-9.4h9.4Zm-8.227-1.175h7.051V34.082h-7.051Z" fill="#0078d3"/><path d="M729.718,42.309h-9.4v-9.4h9.4Zm-8.227-1.175h7.052V34.082h-7.052Z" fill="#0078d3"/><path d="M955.456,129.237H923.474a10.075,10.075,0,0,1-7.886-16.345L931.182,93.28V82.227h-3.526V76.351h23.5v5.876h-3.526V93.138l15.707,19.754a10.075,10.075,0,0,1-7.886,16.345ZM928.831,81.052h3.526V93.69l-15.849,19.933a8.9,8.9,0,0,0,6.966,14.439h31.982a8.9,8.9,0,0,0,6.965-14.439L946.46,93.548v-12.5h3.526V77.526H928.831Z" fill="#0078d3"/><path d="M951.831,124.536H926.657a6.7,6.7,0,0,1-5.305-10.8l6.178-8h23.429l6.178,8a6.7,6.7,0,0,1-5.306,10.8Zm-23.723-17.629-5.827,7.548a5.528,5.528,0,0,0,4.376,8.906h25.174a5.528,5.528,0,0,0,4.377-8.906l-5.827-7.548Z" fill="#0078d3"/><path d="M939.409,69.275a2.327,2.327,0,1,1,2.327-2.327A2.329,2.329,0,0,1,939.409,69.275Zm0-3.525a1.2,1.2,0,1,0,1.2,1.2A1.2,1.2,0,0,0,939.409,65.75Z" fill="#0078d3"/><path d="M939.409,89.309a3.557,3.557,0,1,1,3.556-3.556A3.56,3.56,0,0,1,939.409,89.309Zm0-5.876a2.32,2.32,0,1,0,2.319,2.32A2.322,2.322,0,0,0,939.409,83.433Z" fill="#0078d3"/><path d="M941.171,101.019a4.1,4.1,0,1,1,4.1-4.1A4.106,4.106,0,0,1,941.171,101.019Zm0-7.052a2.951,2.951,0,1,0,2.95,2.95A2.953,2.953,0,0,0,941.171,93.967Z" fill="#0078d3"/><path d="M1466.022,61.113H1434.04a10.075,10.075,0,0,1-7.886-16.345l15.594-19.612V14.1h-3.525V8.227h23.505V14.1H1458.2V25.014l15.706,19.754a10.075,10.075,0,0,1-7.886,16.345ZM1439.4,12.928h3.526V25.566L1427.075,45.5a8.9,8.9,0,0,0,6.965,14.439h31.982a8.9,8.9,0,0,0,6.966-14.439l-15.961-20.075v-12.5h3.525V9.4H1439.4Z" fill="#0078d3"/><path d="M1462.4,56.412h-25.174a6.7,6.7,0,0,1-5.306-10.8l6.178-8h23.43l6.178,8a6.7,6.7,0,0,1-5.306,10.8Zm-23.723-17.629-5.827,7.548a5.528,5.528,0,0,0,4.376,8.906H1462.4a5.528,5.528,0,0,0,4.376-8.906l-5.827-7.548Z" fill="#0078d3"/><path d="M1449.975,21.186a3.557,3.557,0,1,1,3.557-3.557A3.561,3.561,0,0,1,1449.975,21.186Zm0-5.877a2.32,2.32,0,1,0,2.32,2.32A2.323,2.323,0,0,0,1449.975,15.309Z" fill="#0078d3"/><path d="M1451.738,32.9a4.1,4.1,0,1,1,4.1-4.1A4.107,4.107,0,0,1,1451.738,32.9Zm0-7.051a2.95,2.95,0,1,0,2.95,2.95A2.954,2.954,0,0,0,1451.738,25.844Z" fill="#0078d3"/><path d="M881.4,74.041H783.852V66.99H881.4Zm-96.371-1.175h95.2v-4.7h-95.2Z" fill="#0078d3"/><path d="M853.192,61.113H812.058V55.237h41.134Zm-39.959-1.175h38.784V56.412H813.233Z" fill="#0078d3"/><polygon points="839.089 55.825 837.914 55.825 837.914 45.835 826.161 45.835 826.161 55.825 824.986 55.825 824.986 44.66 839.089 44.66 839.089 55.825" fill="#0078d3"/><path d="M834.388,7.052H797.955V0h36.433ZM799.13,5.876h34.083v-4.7H799.13Z" fill="#0078d3"/><path d="M830.862,23.505H797.955V10.577h32.907ZM799.13,22.33h30.557V11.753H799.13Z" fill="#0078d3"/><path d="M813.233,32.907H797.955V27.031h15.278Zm-14.1-1.175h12.928V28.206H799.13Z" fill="#0078d3"/><path d="M1636.006,70.34H1538.46V63.289h97.546Zm-96.371-1.175h95.2v-4.7h-95.2Z" fill="#0078d3"/><path d="M1607.8,57.412h-41.134V51.536H1607.8Zm-39.959-1.175h38.783V52.711h-38.783Z" fill="#0078d3"/><polygon points="1593.697 52.124 1592.521 52.124 1592.521 42.134 1580.769 42.134 1580.769 52.124 1579.594 52.124 1579.594 40.959 1593.697 40.959 1593.697 52.124" fill="#0078d3"/><path d="M1585.47,19.8h-32.907V6.876h32.907Zm-31.732-1.175H1584.3V8.052h-30.557Z" fill="#0078d3"/><path d="M1567.841,29.206h-15.278V23.33h15.278Zm-14.1-1.175h12.928V24.505h-12.928Z" fill="#0078d3"/><path d="M1871.645,242.453h-70.516v-47.01h70.516Zm-69.34-1.175h68.164v-44.66h-68.164Z" fill="#0078d3"/><rect x="1810.531" y="195.443" width="1.175" height="47.01" fill="#0078d3"/><path d="M1864.593,208.371h-48.185v-7.052h48.185Zm-47.01-1.175h45.835v-4.7h-45.835Z" fill="#0078d3"/><path d="M1865.768,222.474h-28.206v-7.052h28.206Zm-27.03-1.175h25.855v-4.7h-25.855Z" fill="#0078d3"/><path d="M1864.593,237.752h-11.752v-4.7h11.752Zm-10.577-1.175h9.4v-2.351h-9.4Z" fill="#0078d3"/><path d="M1846.964,237.752h-11.752v-4.7h11.752Zm-10.577-1.175h9.4v-2.351h-9.4Z" fill="#0078d3"/><path d="M1828.16,237.752h-11.752v-4.7h11.752Zm-10.577-1.175h9.4v-2.351h-9.4Z" fill="#0078d3"/><path d="M1832.861,229.525h-15.278V213.072h15.278Zm-14.1-1.174h12.928v-14.1h-12.928Z" fill="#0078d3"/><path d="M1825.222,223.615a4.08,4.08,0,1,1,4.08-4.079A4.085,4.085,0,0,1,1825.222,223.615Zm0-7.051a2.972,2.972,0,1,0,2.972,2.972A2.974,2.974,0,0,0,1825.222,216.564Z" fill="#0078d3"/><path d="M1830.511,227.175h-1.175v-2.468a1.061,1.061,0,0,0-1.059-1.058h-6.11a1.06,1.06,0,0,0-1.058,1.058v2.468h-1.176v-2.468a2.236,2.236,0,0,1,2.234-2.233h6.11a2.236,2.236,0,0,1,2.234,2.233Z" fill="#0078d3"/><path d="M1985.005,165.1a8.24,8.24,0,1,1,8.24-8.24A8.249,8.249,0,0,1,1985.005,165.1Zm0-15.278a7.039,7.039,0,1,0,7.039,7.038A7.047,7.047,0,0,0,1985.005,149.817Z" fill="#0078d3"/><path d="M1985.005,120.435a8.24,8.24,0,1,1,8.24-8.239A8.249,8.249,0,0,1,1985.005,120.435Zm0-15.278a7.039,7.039,0,1,0,7.039,7.039A7.047,7.047,0,0,0,1985.005,105.157Z" fill="#0078d3"/><path d="M2017.912,165.1a8.24,8.24,0,1,1,8.24-8.24A8.249,8.249,0,0,1,2017.912,165.1Zm0-15.278a7.039,7.039,0,1,0,7.039,7.038A7.046,7.046,0,0,0,2017.912,149.817Z" fill="#0078d3"/><rect x="1983.83" y="119.247" width="1.175" height="29.381" fill="#0078d3"/><path d="M2017.912,148.629h-1.175V125.192c0-3.081-1.44-8.295-6.842-8.295h-9.611v-1.176h9.641c6.3,0,7.987,5.924,7.987,9.424Z" fill="#0078d3"/><polygon points="2009.368 106.202 2010.139 107.03 2000.573 116.308 2010.272 125.72 2009.501 126.548 1998.913 116.308 2009.368 106.202" fill="#0078d3"/><path d="M1725.7,62a8.24,8.24,0,1,1,8.24-8.24A8.25,8.25,0,0,1,1725.7,62Zm0-15.279a7.039,7.039,0,1,0,7.039,7.039A7.047,7.047,0,0,0,1725.7,46.723Z" fill="#0078d3"/><path d="M1725.7,17.342a8.24,8.24,0,1,1,8.24-8.239A8.249,8.249,0,0,1,1725.7,17.342Zm0-15.278a7.039,7.039,0,1,0,7.039,7.039A7.046,7.046,0,0,0,1725.7,2.064Z" fill="#0078d3"/><path d="M1758.6,62a8.24,8.24,0,1,1,8.239-8.24A8.25,8.25,0,0,1,1758.6,62Zm0-15.279a7.039,7.039,0,1,0,7.039,7.039A7.047,7.047,0,0,0,1758.6,46.723Z" fill="#0078d3"/><rect x="1724.521" y="16.154" width="1.175" height="29.381" fill="#0078d3"/><path d="M1758.6,45.535h-1.176V22.1c0-3.081-1.44-8.294-6.842-8.294h-9.611V12.628h9.641c6.305,0,7.988,5.924,7.988,9.424Z" fill="#0078d3"/><polygon points="1750.059 3.109 1750.831 3.937 1741.264 13.215 1750.964 22.627 1750.192 23.455 1739.604 13.215 1750.059 3.109" fill="#0078d3"/><path d="M1171.358,236.566c1.669,0,1.9-.917,1.9-1.74a14.024,14.024,0,0,0-.188-1.974,13.72,13.72,0,0,1-.189-1.952c0-2.163,1.411-3.08,3.409-3.08h.494v1.294h-.423c-1.387,0-1.858.752-1.858,2.021a10.3,10.3,0,0,0,.165,1.67,10.846,10.846,0,0,1,.165,1.786,2.247,2.247,0,0,1-1.693,2.539v.048a2.258,2.258,0,0,1,1.693,2.562,10.628,10.628,0,0,1-.165,1.787,10.576,10.576,0,0,0-.165,1.693c0,1.316.542,2.045,1.858,2.045h.423v1.293h-.494c-1.951,0-3.409-.846-3.409-3.221a13.4,13.4,0,0,1,.189-1.928,13.061,13.061,0,0,0,.188-1.9c0-.729-.235-1.74-1.9-1.74Z" fill="#0078d3"/><path d="M1193.358,237.765c-1.668,0-1.9,1.011-1.9,1.74a13.061,13.061,0,0,0,.188,1.9,13.262,13.262,0,0,1,.189,1.928c0,2.375-1.482,3.221-3.41,3.221h-.494v-1.293h.4c1.316-.024,1.881-.729,1.881-2.045a14.307,14.307,0,0,0-.164-1.693,10.675,10.675,0,0,1-.189-1.787,2.3,2.3,0,0,1,1.693-2.562v-.048a2.287,2.287,0,0,1-1.693-2.539,10.928,10.928,0,0,1,.189-1.786,13.932,13.932,0,0,0,.164-1.67c0-1.269-.494-2-1.857-2.021h-.424V227.82h.471c2,0,3.433.917,3.433,3.08a13.575,13.575,0,0,1-.189,1.952,14.024,14.024,0,0,0-.188,1.974c0,.823.236,1.74,1.9,1.74Z" fill="#0078d3"/><path d="M2443.522,218.69h-8.135l16.527-55.237h8.135Zm-6.555-1.175h5.681l15.822-52.887h-5.681Z" fill="#0078d3"/><path d="M2432.47,208.1l-22.33-14.716v-4.81l22.33-13.611v7l-14.963,9.121,14.963,9.861Zm-21.155-15.35,19.98,13.169V201.58l-15.982-10.533,15.982-9.742v-4.246l-19.98,12.179Z" fill="#0078d3"/><path d="M2465.377,208.1v-7.157l14.963-9.861-14.963-9.121v-7l22.33,13.611v4.81Zm1.175-6.524v4.343l19.98-13.169v-3.516l-19.98-12.179v4.246l15.982,9.742Z" fill="#0078d3"/><polygon points="1604.634 189.003 1595.439 198.119 1595.439 174.36 1594.263 174.36 1594.263 198.121 1585.205 189.136 1584.343 189.907 1594.85 200.363 1605.495 189.774 1604.634 189.003" fill="#0078d3"/><path d="M1620.119,239h-51.711V199.041h7.051V220.2h38.784V199.041h5.876Zm-50.536-1.175h49.361V200.216h-3.526v21.155h-41.134V200.216h-4.7Z" fill="#0078d3"/><path d="M1590.7,233.081h-8.144v-8.143h8.144Zm-7.051-1.091h5.959v-5.96h-5.959Z" fill="#0078d3"/><path d="M1607.15,233.081h-8.144v-8.143h8.144Zm-7.052-1.091h5.959v-5.96H1600.1Z" fill="#0078d3"/><path d="M1587.212,217.845h-9.4v-9.4h9.4Zm-8.227-1.175h7.052v-7.052h-7.052Z" fill="#0078d3"/><path d="M1598.964,217.845h-9.4v-9.4h9.4Zm-8.226-1.175h7.051v-7.052h-7.051Z" fill="#0078d3"/><path d="M1610.717,217.845h-9.4v-9.4h9.4Zm-8.227-1.175h7.052v-7.052h-7.052Z" fill="#0078d3"/><path d="M1908.624,127.536H1842.81v-14.1h65.814Zm-64.639-1.175h63.464V114.608h-63.464Z" fill="#0078d3"/><path d="M1905.1,168.67h-58.763V126.361H1905.1Zm-57.587-1.175h56.412V127.536h-56.412Z" fill="#0078d3"/><path d="M1881.593,168.67h-10.577V114.608h10.577Zm-9.4-1.175h8.227V115.783h-8.227Z" fill="#0078d3"/><path d="M1870.934,115.1c-1.7,0-9.976-.236-14.064-4.7-3.552-3.877-4.428-8.2-2.231-11s6.651-2.941,11.369-.373c9.092,4.951,10.248,15,10.293,15.422l-1.168.124c-.011-.1-1.148-9.864-9.687-14.514-4.187-2.281-8.066-2.255-9.882.065-1.494,1.91-1.4,5.583,2.174,9.485,4.113,4.492,13.379,4.325,13.464,4.314l.029,1.176C1871.2,115.1,1871.1,115.1,1870.934,115.1Z" fill="#0078d3"/><path d="M1868.542,111.976c-2.358,0-5.652-.468-7.576-2.769-1.61-1.928-1.983-3.919-1-5.327,1.069-1.523,3.4-1.912,5.958-.99,4.879,1.764,5.832,7.943,5.871,8.2l.082.563-.559.1A17.107,17.107,0,0,1,1868.542,111.976Zm-5.239-8.4a2.785,2.785,0,0,0-2.371.982c-.662.946-.312,2.4.936,3.9,2.241,2.68,6.982,2.418,8.648,2.23-.351-1.5-1.583-5.456-4.989-6.687A6.618,6.618,0,0,0,1863.3,103.573Z" fill="#0078d3"/><path d="M1881.427,114.608c-.16,0-.262,0-.3,0l.029-1.175c.1.011,9.354.173,13.465-4.315,3.575-3.9,3.668-7.575,2.174-9.485-1.815-2.32-5.695-2.345-9.881-.065-8.556,4.659-9.676,14.416-9.686,14.514l-1.169-.123c.045-.425,1.2-10.472,10.293-15.423,4.718-2.57,9.179-2.424,11.369.373s1.32,7.126-2.232,11C1891.4,114.372,1883.126,114.608,1881.427,114.608Z" fill="#0078d3"/><path d="M1883.821,111.973a17.178,17.178,0,0,1-2.78-.216l-.559-.1.082-.563c.039-.262.995-6.44,5.872-8.2,2.554-.924,4.891-.535,5.957.989.986,1.408.613,3.4-1,5.327C1889.473,111.506,1886.179,111.973,1883.821,111.973Zm-1.975-1.292c1.669.186,6.408.45,8.648-2.23,1.249-1.495,1.6-2.952.936-3.9-.741-1.06-2.589-1.285-4.594-.558C1883.43,105.225,1882.2,109.181,1881.846,110.681Z" fill="#0078d3"/><path d="M2312.552,42.484h-65.814v-14.1h65.814Zm-64.639-1.175h63.464V29.556h-63.464Z" fill="#0078d3"/><path d="M2309.026,83.618h-58.763V41.309h58.763Zm-57.587-1.175h56.412V42.484h-56.412Z" fill="#0078d3"/><path d="M2285.521,83.618h-10.577V29.556h10.577Zm-9.4-1.175h8.227V30.732h-8.227Z" fill="#0078d3"/><path d="M2274.862,30.049c-1.7,0-9.976-.237-14.064-4.7-3.552-3.878-4.428-8.2-2.231-11s6.651-2.941,11.369-.373c9.093,4.952,10.248,15,10.293,15.423l-1.168.123c-.011-.1-1.148-9.864-9.687-14.514-4.187-2.28-8.066-2.254-9.882.065-1.494,1.91-1.4,5.583,2.174,9.485,4.113,4.492,13.379,4.325,13.464,4.315l.03,1.175C2275.125,30.046,2275.023,30.049,2274.862,30.049Z" fill="#0078d3"/><path d="M2272.471,26.924c-2.359,0-5.653-.468-7.576-2.769-1.611-1.927-1.984-3.919-1-5.326,1.069-1.524,3.405-1.913,5.958-.99,4.879,1.764,5.833,7.942,5.872,8.205l.081.563-.559.1A16.973,16.973,0,0,1,2272.471,26.924Zm-5.24-8.4a2.784,2.784,0,0,0-2.371.981c-.662.946-.312,2.4.937,3.9,2.24,2.681,6.981,2.418,8.648,2.23-.352-1.5-1.584-5.456-4.989-6.687A6.65,6.65,0,0,0,2267.231,18.522Z" fill="#0078d3"/><path d="M2285.355,29.556c-.16,0-.262,0-.3,0l.028-1.175c.1.011,9.354.173,13.465-4.315,3.575-3.9,3.668-7.575,2.174-9.485-1.814-2.32-5.7-2.345-9.881-.065-8.556,4.659-9.676,14.416-9.686,14.514l-1.169-.123c.045-.425,1.2-10.471,10.293-15.423,4.718-2.569,9.179-2.423,11.369.373s1.32,7.126-2.232,11C2295.331,29.32,2287.055,29.556,2285.355,29.556Z" fill="#0078d3"/><path d="M2287.749,26.922a17.113,17.113,0,0,1-2.78-.217l-.559-.1.082-.563c.039-.262.995-6.44,5.873-8.2,2.553-.923,4.89-.534,5.956.989.986,1.409.613,3.4-1,5.327C2293.4,26.454,2290.107,26.922,2287.749,26.922Zm-1.975-1.293c1.67.186,6.408.45,8.648-2.23,1.25-1.494,1.6-2.952.936-3.9-.741-1.06-2.589-1.285-4.594-.559C2287.359,20.174,2286.126,24.129,2285.774,25.629Z" fill="#0078d3"/><path d="M1914.31,205.556l-.407-.263-4.111-3.09-4.183,3.346-.775-.476.1-.469,1.453-4.962-4.11-3.091.25-.86.472-.035h4.555l1.535-5.238.907-.057.19.442,1.658,4.853h4.732l.324.82-.34.317-3.4,2.717,1.873,5.48Zm-4.144-4.543,3.051,2.294-1.422-4.159.331-.315,2.5-2h-3.593l-.182-.436-1.235-3.613-1.174,4.013-.489.036H1904.6l3.122,2.349-.114.456-1.072,3.663,3.206-2.565.419.279Z" fill="#0078d3"/><path d="M1931.725,75.536l3.218-10.991L1926.5,58.2h10.3l3.15-10.758,3.679,10.758h9.779l-7.68,6.141,3.827,11.195-9.188-6.908Zm8.622-8.4,6.863,5.16-2.859-8.362,5.709-4.564h-7.269l-2.751-8.047-2.356,8.047h-7.667L1936.3,64.1l-2.4,8.2Z" fill="#0078d3"/><path d="M2055.382,77.453H2023.4a10.076,10.076,0,0,1-7.886-16.345L2031.108,41.5V30.443h-3.525V24.567h23.505v5.876h-3.526V41.354l15.706,19.754a10.075,10.075,0,0,1-7.886,16.345Zm-26.624-48.185h3.526V41.906l-15.849,19.933a8.9,8.9,0,0,0,6.965,14.439h31.982a8.9,8.9,0,0,0,6.966-14.439l-15.961-20.075v-12.5h3.525V25.742h-21.154Z" fill="#0078d3"/><path d="M2051.758,72.752h-25.174a6.7,6.7,0,0,1-5.306-10.8l6.178-8h23.43l6.178,8a6.7,6.7,0,0,1-5.306,10.8Zm-23.723-17.629-5.827,7.548a5.528,5.528,0,0,0,4.376,8.906h25.174a5.528,5.528,0,0,0,4.376-8.906l-5.827-7.548Z" fill="#0078d3"/><path d="M2039.335,17.492a2.327,2.327,0,1,1,2.328-2.327A2.33,2.33,0,0,1,2039.335,17.492Zm0-3.526a1.2,1.2,0,1,0,1.2,1.2A1.2,1.2,0,0,0,2039.335,13.966Z" fill="#0078d3"/><path d="M2039.335,37.526a3.557,3.557,0,1,1,3.557-3.557A3.561,3.561,0,0,1,2039.335,37.526Zm0-5.877a2.32,2.32,0,1,0,2.32,2.32A2.323,2.323,0,0,0,2039.335,31.649Z" fill="#0078d3"/><path d="M2041.1,49.235a4.1,4.1,0,1,1,4.1-4.1A4.107,4.107,0,0,1,2041.1,49.235Zm0-7.051a2.95,2.95,0,1,0,2.95,2.95A2.954,2.954,0,0,0,2041.1,42.184Z" fill="#0078d3"/><path d="M2036.989,249.938h-80.957a3.01,3.01,0,0,1-3.006-3.007V195.357a3.01,3.01,0,0,1,3.006-3.007h80.957a3.01,3.01,0,0,1,3.006,3.007v51.574A3.01,3.01,0,0,1,2036.989,249.938Zm-80.957-56.413a1.834,1.834,0,0,0-1.831,1.832v51.574a1.833,1.833,0,0,0,1.831,1.831h80.957a1.833,1.833,0,0,0,1.831-1.831V195.357a1.834,1.834,0,0,0-1.831-1.832Z" fill="#0078d3"/><path d="M2035.294,245.237h-77.567V197.051h77.567Zm-76.392-1.176h75.217V198.226H1958.9Z" fill="#0078d3"/><rect x="2004.737" y="198.226" width="1.175" height="47.01" fill="#0078d3"/><path d="M1998.861,211.154h-36.433V204.1h36.433Zm-35.258-1.175h34.083v-4.7H1963.6Z" fill="#0078d3"/><path d="M1995.335,227.608h-32.907V214.68h32.907Zm-31.732-1.175h30.557V215.855H1963.6Z" fill="#0078d3"/><path d="M1977.706,237.01h-15.278v-5.876h15.278Zm-14.1-1.175h12.928v-3.526H1963.6Z" fill="#0078d3"/><path d="M1766.583,170.763h-97.546v-7.052h97.546Zm-96.371-1.176h95.2v-4.7h-95.2Z" fill="#0078d3"/><path d="M1738.377,157.835h-41.134v-5.876h41.134Zm-39.959-1.175H1737.2v-3.526h-38.784Z" fill="#0078d3"/><polygon points="1724.274 153.134 1723.098 153.134 1723.098 142.556 1711.346 142.556 1711.346 153.134 1710.171 153.134 1710.171 141.381 1724.274 141.381 1724.274 153.134" fill="#0078d3"/><path d="M1757.7,142.556h-80.957a3.009,3.009,0,0,1-3.006-3.006V87.975a3.009,3.009,0,0,1,3.006-3.006H1757.7a3.009,3.009,0,0,1,3.006,3.006V139.55A3.009,3.009,0,0,1,1757.7,142.556Zm-80.957-56.412a1.833,1.833,0,0,0-1.831,1.831V139.55a1.833,1.833,0,0,0,1.831,1.831H1757.7a1.832,1.832,0,0,0,1.83-1.831V87.975a1.832,1.832,0,0,0-1.83-1.831Z" fill="#0078d3"/><path d="M1756.006,137.855h-77.567V89.67h77.567Zm-76.392-1.175h75.216V90.845h-75.216Z" fill="#0078d3"/><rect x="1725.449" y="90.845" width="1.175" height="47.01" fill="#0078d3"/><path d="M1719.573,103.773H1683.14V96.721h36.433Zm-35.258-1.175H1718.4V97.9h-34.082Z" fill="#0078d3"/><path d="M1716.047,120.227H1683.14V107.3h32.907Zm-31.732-1.176h30.557V108.474h-30.557Z" fill="#0078d3"/><path d="M1698.418,129.629H1683.14v-5.877h15.278Zm-14.1-1.176h12.928v-3.525h-12.928Z" fill="#0078d3"/><path d="M2125.036,195.862l-10.547-10.548,4.985-4.986,5.562,5.562,14.376-14.376,4.986,4.986Zm-8.885-10.548,8.885,8.886,17.7-17.7-3.324-3.324-14.376,14.375-5.562-5.561Z" fill="#0078d3"/><path d="M2107.407,147.391h31.732v-9.4h-31.732Zm1.176-8.227h29.381v7.052h-29.381Z" fill="#0078d3"/><path d="M2143.84,134.463H2137.1a13.874,13.874,0,0,0-27.649,0h-17.32v76.392h63.464V134.463Zm-20.567-11.533a12.722,12.722,0,0,1,12.649,11.533h-25.3A12.723,12.723,0,0,1,2123.273,122.93Zm-19.391,20.936v-8.227h38.783v15.278h-38.783Zm39.958,8.226v-8.226h4.7v58.762h-50.536V143.866h4.7v8.226Zm10.578,57.588H2093.3V135.639h9.4v7.051h-5.876V203.8h52.887V142.69h-5.877v-7.051h10.578Z" fill="#0078d3"/><rect x="2105.057" y="167.371" width="31.732" height="1.175" fill="#0078d3"/><rect x="2105.057" y="174.422" width="22.33" height="1.175" fill="#0078d3"/><rect x="2105.057" y="160.319" width="38.783" height="1.175" fill="#0078d3"/><path d="M1394.326,249.862l-10.548-10.548,4.986-4.986,5.562,5.562,14.376-14.376,4.985,4.986Zm-8.886-10.548,8.886,8.886,17.7-17.7-3.324-3.324-14.376,14.376-5.562-5.562Z" fill="#0078d3"/><path d="M1376.7,201.391h31.732v-9.4H1376.7Zm1.175-8.226h29.381v7.051h-29.381Z" fill="#0078d3"/><rect x="1374.346" y="221.371" width="31.732" height="1.175" fill="#0078d3"/><rect x="1374.346" y="228.422" width="22.33" height="1.175" fill="#0078d3"/><rect x="1374.346" y="214.319" width="38.783" height="1.175" fill="#0078d3"/><path d="M1037.862,213.192l-10.547-10.548,4.985-4.986,5.562,5.562,14.376-14.376,4.986,4.986Zm-8.885-10.548,8.885,8.886,17.7-17.7-3.324-3.324-14.376,14.375-5.562-5.561Z" fill="#0078d3"/><path d="M1020.233,164.721h31.732v-9.4h-31.732Zm1.176-8.226h29.381v7.051h-29.381Z" fill="#0078d3"/><path d="M1056.666,151.794h-6.742a13.873,13.873,0,0,0-27.649,0h-17.32v76.391h63.464V151.794ZM1036.1,140.26a12.722,12.722,0,0,1,12.649,11.534h-25.3A12.723,12.723,0,0,1,1036.1,140.26ZM1016.708,161.2v-8.227h38.783v15.278h-38.783Zm39.958,8.226V161.2h4.7v58.762h-50.536V161.2h4.7v8.226Zm10.578,57.588H1006.13V152.969h9.4v7.051h-5.876v61.114h52.887V160.02h-5.877v-7.051h10.578Z" fill="#0078d3"/><rect x="1017.883" y="184.701" width="31.732" height="1.175" fill="#0078d3"/><rect x="1017.883" y="191.752" width="22.33" height="1.175" fill="#0078d3"/><rect x="1017.883" y="177.649" width="38.783" height="1.175" fill="#0078d3"/><path d="M12.141,69.177a8.24,8.24,0,1,1,8.24-8.239A8.249,8.249,0,0,1,12.141,69.177Zm0-15.278a7.039,7.039,0,1,0,7.039,7.039A7.047,7.047,0,0,0,12.141,53.9Z" fill="#0078d3"/><path d="M12.141,24.517a8.24,8.24,0,1,1,8.24-8.239A8.249,8.249,0,0,1,12.141,24.517Zm0-15.278a7.039,7.039,0,1,0,7.039,7.039A7.047,7.047,0,0,0,12.141,9.239Z" fill="#0078d3"/><path d="M45.049,69.177a8.24,8.24,0,1,1,8.239-8.239A8.249,8.249,0,0,1,45.049,69.177Zm0-15.278a7.039,7.039,0,1,0,7.038,7.039A7.046,7.046,0,0,0,45.049,53.9Z" fill="#0078d3"/><rect x="10.966" y="23.329" width="1.175" height="29.381" fill="#0078d3"/><path d="M45.049,52.711H43.873V29.274c0-3.081-1.44-8.3-6.842-8.3H27.42V19.8h9.641c6.3,0,7.988,5.923,7.988,9.423Z" fill="#0078d3"/><polygon points="36.504 10.284 37.275 11.112 27.709 20.39 37.408 29.802 36.637 30.63 26.049 20.39 36.504 10.284" fill="#0078d3"/><path d="M250.679,148.259c2.755,0,3.143-1.514,3.143-2.872a23.194,23.194,0,0,0-.31-3.26,22.522,22.522,0,0,1-.311-3.222c0-3.571,2.329-5.085,5.627-5.085h.815v2.136h-.7c-2.291,0-3.068,1.242-3.068,3.337a17.013,17.013,0,0,0,.273,2.756,18.028,18.028,0,0,1,.271,2.949c.04,2.485-1.048,3.727-2.8,4.193v.077c1.747.428,2.835,1.747,2.8,4.231a17.646,17.646,0,0,1-.271,2.95,17.483,17.483,0,0,0-.273,2.794c0,2.174.9,3.377,3.068,3.377h.7v2.134h-.815c-3.221,0-5.627-1.4-5.627-5.316a22,22,0,0,1,.311-3.184,21.57,21.57,0,0,0,.31-3.143c0-1.2-.388-2.873-3.143-2.873Z" fill="#0078d3"/><path d="M287,150.238c-2.755,0-3.143,1.67-3.143,2.873a21.57,21.57,0,0,0,.31,3.143,22,22,0,0,1,.311,3.184c0,3.92-2.446,5.316-5.629,5.316h-.815V162.62h.659c2.174-.039,3.106-1.2,3.106-3.377a23.744,23.744,0,0,0-.271-2.794,17.657,17.657,0,0,1-.311-2.95c0-2.484,1.086-3.8,2.8-4.231v-.077c-1.709-.466-2.8-1.708-2.8-4.193a18.1,18.1,0,0,1,.311-2.949,23.1,23.1,0,0,0,.271-2.756c0-2.095-.815-3.3-3.066-3.337h-.7V133.82h.777c3.3,0,5.667,1.514,5.667,5.085a22.522,22.522,0,0,1-.311,3.222,23.194,23.194,0,0,0-.31,3.26c0,1.358.388,2.872,3.143,2.872Z" fill="#0078d3"/><path d="M229.3,250.206h-8.135l16.527-55.237h8.135Zm-6.556-1.175h5.681l15.823-52.887h-5.681Z" fill="#0078d3"/><path d="M218.245,239.62,195.915,224.9v-4.81l22.33-13.61v7L203.282,222.6l14.963,9.86ZM197.09,224.27l19.979,13.168V233.1l-15.982-10.533,15.982-9.742v-4.246L197.09,220.753Z" fill="#0078d3"/><path d="M251.152,239.62v-7.158l14.962-9.86-14.962-9.121v-7l22.33,13.61v4.81Zm1.175-6.524v4.342l19.979-13.168v-3.517l-19.979-12.178v4.246l15.982,9.742Z" fill="#0078d3"/><polygon points="369.265 88.612 360.069 97.727 360.069 73.969 358.894 73.969 358.894 97.729 349.835 88.745 348.974 89.516 359.48 99.971 370.126 89.383 369.265 88.612" fill="#0078d3"/><path d="M384.75,138.608H333.038V98.649h7.052V119.8h38.783V98.649h5.877Zm-50.536-1.175h49.36V99.825h-3.525v21.154H338.915V99.825h-4.7Z" fill="#0078d3"/><path d="M355.327,132.69h-8.144v-8.143h8.144Zm-7.052-1.092h5.959v-5.96h-5.959Z" fill="#0078d3"/><path d="M371.78,132.69h-8.144v-8.143h8.144Zm-7.051-1.092h5.959v-5.96h-5.959Z" fill="#0078d3"/><path d="M351.842,117.453h-9.4v-9.4h9.4Zm-8.226-1.175h7.051v-7.051h-7.051Z" fill="#0078d3"/><path d="M363.6,117.453h-9.4v-9.4h9.4Zm-8.227-1.175h7.052v-7.051h-7.052Z" fill="#0078d3"/><path d="M375.347,117.453h-9.4v-9.4h9.4Zm-8.226-1.175h7.051v-7.051h-7.051Z" fill="#0078d3"/><path d="M87.729,197.113H21.915v-14.1H87.729ZM23.09,195.938H86.554V184.185H23.09Z" fill="#0078d3"/><path d="M84.2,238.247H25.44V195.938H84.2Zm-57.587-1.175H83.028V197.113H26.616Z" fill="#0078d3"/><path d="M60.7,238.247H50.121V184.185H60.7Zm-9.4-1.175h8.227V185.36H51.3Z" fill="#0078d3"/><path d="M50.039,184.678c-1.7,0-9.976-.237-14.064-4.7-3.552-3.877-4.428-8.2-2.231-11s6.651-2.941,11.369-.373c9.092,4.951,10.248,15,10.293,15.423l-1.168.123c-.011-.1-1.148-9.864-9.687-14.514-4.187-2.28-8.066-2.255-9.882.065-1.494,1.91-1.4,5.583,2.174,9.485,4.113,4.492,13.379,4.325,13.464,4.314l.029,1.176C50.3,184.675,50.2,184.678,50.039,184.678Z" fill="#0078d3"/><path d="M47.647,181.553c-2.358,0-5.652-.468-7.576-2.769-1.61-1.928-1.983-3.919-1-5.327,1.068-1.523,3.405-1.912,5.958-.989,4.879,1.764,5.832,7.942,5.871,8.205l.082.563-.559.1A16.978,16.978,0,0,1,47.647,181.553Zm-5.239-8.4a2.785,2.785,0,0,0-2.371.982c-.662.946-.312,2.4.936,3.9,2.241,2.68,6.982,2.418,8.648,2.23-.351-1.5-1.583-5.456-4.989-6.687A6.618,6.618,0,0,0,42.408,173.15Z" fill="#0078d3"/><path d="M60.532,184.185c-.16,0-.262,0-.3,0l.029-1.175c.1.011,9.354.173,13.465-4.315,3.575-3.9,3.668-7.575,2.174-9.485-1.815-2.32-5.7-2.345-9.881-.065-8.556,4.659-9.676,14.416-9.686,14.514l-1.169-.123c.045-.425,1.2-10.471,10.293-15.423,4.718-2.569,9.179-2.424,11.369.373s1.32,7.126-2.232,11C70.507,183.949,62.231,184.185,60.532,184.185Z" fill="#0078d3"/><path d="M62.926,181.551a17.113,17.113,0,0,1-2.78-.217l-.559-.1.081-.563c.04-.262,1-6.44,5.873-8.2,2.554-.923,4.891-.534,5.957.989.986,1.408.613,3.4-1,5.327C68.578,181.083,65.284,181.551,62.926,181.551Zm-1.976-1.293c1.67.186,6.409.45,8.648-2.23,1.25-1.5,1.6-2.952.937-3.9-.741-1.059-2.589-1.284-4.594-.558C62.535,174.8,61.3,178.758,60.95,180.258Z" fill="#0078d3"/><path d="M384.964,48.969l3.218-10.992-8.445-6.349h10.3l3.15-10.757,3.679,10.757h9.779l-7.68,6.142,3.827,11.2-9.188-6.908Zm8.622-8.4,6.863,5.16-2.859-8.362L403.3,32.8H396.03l-2.751-8.047L390.923,32.8h-7.667l6.283,4.724-2.4,8.2Z" fill="#0078d3"/><path d="M144.538,222.339l-.406-.263-4.111-3.09-4.183,3.346-.775-.476.1-.469,1.453-4.962-4.11-3.091.25-.859.472-.035h4.555l1.534-5.239.908-.057.19.442,1.658,4.854H146.8l.324.819-.34.318-3.4,2.717,1.873,5.479ZM140.4,217.8l3.051,2.293-1.422-4.159.33-.314,2.5-2h-3.592l-.182-.436-1.235-3.613-1.174,4.013-.489.036h-3.353l3.123,2.349-.115.456-1.072,3.663,3.207-2.565.419.279Z" fill="#0078d3"/><path d="M96.57,132.742H64.588A10.075,10.075,0,0,1,56.7,116.4L72.3,96.784V85.731H68.77V79.855H92.275v5.876H88.75V96.643L104.456,116.4a10.075,10.075,0,0,1-7.886,16.345ZM69.946,84.556h3.525V97.194L57.623,117.128a8.9,8.9,0,0,0,6.965,14.438H96.57a8.9,8.9,0,0,0,6.966-14.438L87.574,97.052v-12.5H91.1V81.03H69.946Z" fill="#0078d3"/><path d="M92.946,128.041H67.772a6.7,6.7,0,0,1-5.306-10.8l6.178-8H92.073l6.179,8a6.7,6.7,0,0,1-5.306,10.8ZM69.223,110.412,63.4,117.959a5.528,5.528,0,0,0,4.376,8.906H92.946a5.528,5.528,0,0,0,4.376-8.906L91.5,110.412Z" fill="#0078d3"/><path d="M80.523,72.78a2.327,2.327,0,1,1,2.327-2.327A2.331,2.331,0,0,1,80.523,72.78Zm0-3.526a1.2,1.2,0,1,0,1.2,1.2A1.2,1.2,0,0,0,80.523,69.254Z" fill="#0078d3"/><path d="M80.523,92.814a3.557,3.557,0,1,1,3.557-3.557A3.56,3.56,0,0,1,80.523,92.814Zm0-5.876a2.32,2.32,0,1,0,2.319,2.319A2.322,2.322,0,0,0,80.523,86.938Z" fill="#0078d3"/><path d="M82.286,104.523a4.1,4.1,0,1,1,4.1-4.1A4.106,4.106,0,0,1,82.286,104.523Zm0-7.051a2.95,2.95,0,1,0,2.949,2.95A2.953,2.953,0,0,0,82.286,97.472Z" fill="#0078d3"/><path d="M377.848,237.4H345.866a10.075,10.075,0,0,1-7.886-16.345l15.594-19.613V190.391h-3.525v-5.876h23.5v5.876h-3.526V201.3l15.706,19.754a10.075,10.075,0,0,1-7.886,16.345Zm-26.624-48.186h3.526v12.638L338.9,221.788a8.9,8.9,0,0,0,6.965,14.438h31.982a8.9,8.9,0,0,0,6.966-14.438l-15.961-20.076v-12.5h3.525V185.69H351.224Z" fill="#0078d3"/><path d="M374.224,232.7H349.05a6.7,6.7,0,0,1-5.306-10.8l6.178-8h23.43l6.178,8a6.7,6.7,0,0,1-5.306,10.8ZM350.5,215.072l-5.827,7.547a5.528,5.528,0,0,0,4.376,8.906h25.174a5.528,5.528,0,0,0,4.376-8.906l-5.827-7.547Z" fill="#0078d3"/><path d="M361.8,177.44a2.327,2.327,0,1,1,2.328-2.327A2.33,2.33,0,0,1,361.8,177.44Zm0-3.526a1.2,1.2,0,1,0,1.2,1.2A1.2,1.2,0,0,0,361.8,173.914Z" fill="#0078d3"/><path d="M361.8,197.474a3.557,3.557,0,1,1,3.557-3.557A3.561,3.561,0,0,1,361.8,197.474Zm0-5.876a2.32,2.32,0,1,0,2.32,2.319A2.322,2.322,0,0,0,361.8,191.6Z" fill="#0078d3"/><path d="M363.564,209.184a4.1,4.1,0,1,1,4.1-4.1A4.107,4.107,0,0,1,363.564,209.184Zm0-7.052a2.95,2.95,0,1,0,2.95,2.95A2.954,2.954,0,0,0,363.564,202.132Z" fill="#0078d3"/><path d="M161.574,170.77l-10.547-10.549,4.986-4.985,5.561,5.561,14.377-14.376,4.985,4.986Zm-8.885-10.549,8.885,8.887,17.7-17.7-3.323-3.324-14.377,14.376-5.561-5.561Z" fill="#0078d3"/><path d="M143.946,122.3h31.732v-9.4H143.946Zm1.175-8.227H174.5v7.052H145.121Z" fill="#0078d3"/><path d="M180.379,109.371h-6.743a13.873,13.873,0,0,0-27.649,0h-17.32v76.392h63.464V109.371ZM159.812,97.838a12.722,12.722,0,0,1,12.649,11.533h-25.3A12.722,12.722,0,0,1,159.812,97.838ZM140.42,118.773v-8.227H179.2v15.279H140.42ZM180.379,127v-8.227h4.7v58.763H134.544V118.773h4.7V127Zm10.577,57.587H129.843V110.546h9.4V117.6h-5.877v61.113h52.887V117.6h-5.876v-7.052h10.577Z" fill="#0078d3"/><rect x="141.595" y="142.278" width="31.732" height="1.175" fill="#0078d3"/><rect x="141.595" y="149.33" width="22.33" height="1.175" fill="#0078d3"/><rect x="141.595" y="135.227" width="38.783" height="1.175" fill="#0078d3"/><path d="M483.9,249.556H413.389v-47.01H483.9Zm-69.34-1.175h68.165v-44.66H414.564Z" fill="#0078d3"/><rect x="422.791" y="202.546" width="1.175" height="47.01" fill="#0078d3"/><path d="M476.852,215.474H428.667v-7.052h48.185Zm-47.01-1.175h45.835v-4.7H429.842Z" fill="#0078d3"/><path d="M478.028,229.577H449.822v-7.052h28.206ZM451,228.4h25.855v-4.7H451Z" fill="#0078d3"/><path d="M476.852,244.855H465.1v-4.7h11.752Zm-10.577-1.175h9.4v-2.35h-9.4Z" fill="#0078d3"/><path d="M459.224,244.855H447.471v-4.7h11.753Zm-10.578-1.175h9.4v-2.35h-9.4Z" fill="#0078d3"/><path d="M440.419,244.855H428.667v-4.7h11.752Zm-10.577-1.175h9.4v-2.35h-9.4Z" fill="#0078d3"/><path d="M445.121,236.628H429.842V220.175h15.279Zm-14.1-1.174h12.928v-14.1H431.017Z" fill="#0078d3"/><path d="M437.481,230.718a4.08,4.08,0,1,1,4.08-4.079A4.085,4.085,0,0,1,437.481,230.718Zm0-7.051a2.972,2.972,0,1,0,2.972,2.972A2.974,2.974,0,0,0,437.481,223.667Z" fill="#0078d3"/><path d="M442.77,234.278H441.6V231.81a1.06,1.06,0,0,0-1.058-1.058h-6.111a1.06,1.06,0,0,0-1.058,1.058v2.468h-1.175V231.81a2.236,2.236,0,0,1,2.233-2.233h6.111a2.236,2.236,0,0,1,2.233,2.233Z" fill="#0078d3"/><path d="M1032.7,55.278H962.182V8.268H1032.7ZM963.357,54.1h68.165V9.443H963.357Z" fill="#0078d3"/><rect x="971.584" y="8.268" width="1.175" height="47.01" fill="#0078d3"/><path d="M1025.646,21.2H977.46V14.144h48.186ZM978.635,20.02h45.835v-4.7H978.635Z" fill="#0078d3"/><path d="M1026.821,35.3H998.615V28.247h28.206ZM999.79,34.123h25.856v-4.7H999.79Z" fill="#0078d3"/><path d="M1025.646,50.577h-11.753v-4.7h11.753ZM1015.068,49.4h9.4V47.051h-9.4Z" fill="#0078d3"/><path d="M1008.017,50.577H996.264v-4.7h11.753ZM997.439,49.4h9.4V47.051h-9.4Z" fill="#0078d3"/><path d="M989.213,50.577H977.46v-4.7h11.753ZM978.635,49.4h9.4V47.051h-9.4Z" fill="#0078d3"/><path d="M993.914,42.349H978.635V25.9h15.279Zm-14.1-1.174h12.927v-14.1H979.811Z" fill="#0078d3"/><path d="M986.275,36.44a4.08,4.08,0,1,1,4.08-4.08A4.085,4.085,0,0,1,986.275,36.44Zm0-7.052a2.972,2.972,0,1,0,2.971,2.972A2.976,2.976,0,0,0,986.275,29.388Z" fill="#0078d3"/><path d="M991.563,40h-1.175V37.532a1.059,1.059,0,0,0-1.058-1.058h-6.111a1.059,1.059,0,0,0-1.058,1.058V40h-1.175V37.532a2.236,2.236,0,0,1,2.233-2.234h6.111a2.236,2.236,0,0,1,2.233,2.234Z" fill="#0078d3"/><path d="M1334.687,134h-70.516V86.989h70.516Zm-69.341-1.176h68.165V88.165h-68.165Z" fill="#0078d3"/><rect x="1273.573" y="86.989" width="1.175" height="47.01" fill="#0078d3"/><path d="M1327.635,99.917H1279.45V92.866h48.185Zm-47.01-1.175h45.835v-4.7h-45.835Z" fill="#0078d3"/><path d="M1328.81,114.02H1300.6v-7.051h28.206Zm-27.031-1.175h25.856v-4.7h-25.856Z" fill="#0078d3"/><path d="M1327.635,129.3h-11.753v-4.7h11.753Zm-10.577-1.176h9.4v-2.35h-9.4Z" fill="#0078d3"/><path d="M1310.006,129.3h-11.752v-4.7h11.752Zm-10.577-1.176h9.4v-2.35h-9.4Z" fill="#0078d3"/><path d="M1291.2,129.3H1279.45v-4.7H1291.2Zm-10.577-1.176h9.4v-2.35h-9.4Z" fill="#0078d3"/><path d="M1295.9,121.071h-15.278V104.619H1295.9Zm-14.1-1.174h12.928v-14.1H1281.8Z" fill="#0078d3"/><path d="M1288.264,115.162a4.08,4.08,0,1,1,4.08-4.08A4.084,4.084,0,0,1,1288.264,115.162Zm0-7.052a2.972,2.972,0,1,0,2.971,2.972A2.975,2.975,0,0,0,1288.264,108.11Z" fill="#0078d3"/><path d="M1293.553,118.721h-1.176v-2.467a1.059,1.059,0,0,0-1.058-1.058h-6.11a1.059,1.059,0,0,0-1.058,1.058v2.467h-1.176v-2.467a2.236,2.236,0,0,1,2.234-2.234h6.11a2.236,2.236,0,0,1,2.234,2.234Z" fill="#0078d3"/><path d="M1592.831,153.773h-70.516v-47.01h70.516ZM1523.49,152.6h68.165v-44.66H1523.49Z" fill="#0078d3"/><rect x="1531.717" y="106.763" width="1.175" height="47.01" fill="#0078d3"/><path d="M1585.779,119.69h-48.185v-7.051h48.185Zm-47.01-1.175H1584.6v-4.7h-45.835Z" fill="#0078d3"/><path d="M1586.954,133.794h-28.206v-7.052h28.206Zm-27.031-1.176h25.856v-4.7h-25.856Z" fill="#0078d3"/><path d="M1585.779,149.072h-11.753v-4.7h11.753ZM1575.2,147.9h9.4v-2.351h-9.4Z" fill="#0078d3"/><path d="M1568.15,149.072H1556.4v-4.7h11.752Zm-10.577-1.175h9.4v-2.351h-9.4Z" fill="#0078d3"/><path d="M1549.346,149.072h-11.752v-4.7h11.752Zm-10.577-1.175h9.4v-2.351h-9.4Z" fill="#0078d3"/><path d="M1554.047,140.844h-15.278V124.392h15.278Zm-14.1-1.174h12.928v-14.1h-12.928Z" fill="#0078d3"/><path d="M1546.408,134.935a4.08,4.08,0,1,1,4.08-4.08A4.084,4.084,0,0,1,1546.408,134.935Zm0-7.052a2.972,2.972,0,1,0,2.971,2.972A2.975,2.975,0,0,0,1546.408,127.883Z" fill="#0078d3"/><path d="M1551.7,138.5h-1.176v-2.468a1.059,1.059,0,0,0-1.058-1.058h-6.11a1.059,1.059,0,0,0-1.058,1.058V138.5h-1.176v-2.468a2.235,2.235,0,0,1,2.234-2.233h6.11a2.235,2.235,0,0,1,2.234,2.233Z" fill="#0078d3"/><path d="M544.687,249.115a8.239,8.239,0,1,1,8.24-8.239A8.249,8.249,0,0,1,544.687,249.115Zm0-15.278a7.039,7.039,0,1,0,7.039,7.039A7.047,7.047,0,0,0,544.687,233.837Z" fill="#0078d3"/><path d="M544.687,204.456a8.24,8.24,0,1,1,8.24-8.24A8.25,8.25,0,0,1,544.687,204.456Zm0-15.279a7.039,7.039,0,1,0,7.039,7.039A7.047,7.047,0,0,0,544.687,189.177Z" fill="#0078d3"/><path d="M577.6,249.115a8.239,8.239,0,1,1,8.239-8.239A8.249,8.249,0,0,1,577.6,249.115Zm0-15.278a7.039,7.039,0,1,0,7.038,7.039A7.046,7.046,0,0,0,577.6,233.837Z" fill="#0078d3"/><rect x="543.512" y="203.268" width="1.175" height="29.381" fill="#0078d3"/><path d="M577.6,232.649h-1.176V209.212c0-3.081-1.44-8.295-6.842-8.295h-9.611v-1.175h9.641c6.305,0,7.988,5.923,7.988,9.424Z" fill="#0078d3"/><polygon points="569.05 190.222 569.822 191.051 560.255 200.328 569.955 209.74 569.183 210.569 558.595 200.328 569.05 190.222" fill="#0078d3"/><path d="M1292.3,232.744a8.239,8.239,0,1,1,8.239-8.239A8.249,8.249,0,0,1,1292.3,232.744Zm0-15.278a7.039,7.039,0,1,0,7.039,7.039A7.046,7.046,0,0,0,1292.3,217.466Z" fill="#0078d3"/><path d="M1292.3,188.085a8.24,8.24,0,1,1,8.239-8.24A8.25,8.25,0,0,1,1292.3,188.085Zm0-15.279a7.039,7.039,0,1,0,7.039,7.039A7.047,7.047,0,0,0,1292.3,172.806Z" fill="#0078d3"/><path d="M1325.2,232.744a8.239,8.239,0,1,1,8.239-8.239A8.248,8.248,0,0,1,1325.2,232.744Zm0-15.278a7.039,7.039,0,1,0,7.039,7.039A7.047,7.047,0,0,0,1325.2,217.466Z" fill="#0078d3"/><rect x="1291.12" y="186.897" width="1.175" height="29.381" fill="#0078d3"/><path d="M1325.2,216.278h-1.175V192.841c0-3.081-1.441-8.3-6.843-8.3h-9.611v-1.175h9.641c6.305,0,7.988,5.923,7.988,9.424Z" fill="#0078d3"/><polygon points="1316.658 173.851 1317.429 174.68 1307.862 183.957 1317.562 193.369 1316.791 194.198 1306.202 183.957 1316.658 173.851" fill="#0078d3"/><path d="M622.246,203.412c2.863,0,3.267-1.574,3.267-2.986a23.985,23.985,0,0,0-.323-3.389,23.562,23.562,0,0,1-.323-3.349c0-3.712,2.421-5.285,5.85-5.285h.847v2.219h-.725c-2.381,0-3.189,1.292-3.189,3.47a17.6,17.6,0,0,0,.284,2.865,18.854,18.854,0,0,1,.281,3.065c.042,2.582-1.089,3.873-2.905,4.358v.081c1.816.444,2.947,1.816,2.905,4.4a18.446,18.446,0,0,1-.281,3.065,18.086,18.086,0,0,0-.284,2.905c0,2.259.93,3.51,3.189,3.51h.725v2.219h-.847c-3.349,0-5.85-1.452-5.85-5.527a23.038,23.038,0,0,1,.323-3.309,22.314,22.314,0,0,0,.323-3.267c0-1.251-.4-2.986-3.267-2.986Z" fill="#0078d3"/><path d="M660,205.469c-2.864,0-3.267,1.735-3.267,2.986a22.314,22.314,0,0,0,.323,3.267,23.038,23.038,0,0,1,.323,3.309c0,4.075-2.543,5.527-5.852,5.527h-.847v-2.219h.685c2.26-.04,3.229-1.251,3.229-3.51a24.607,24.607,0,0,0-.282-2.905,18.24,18.24,0,0,1-.323-3.065c0-2.582,1.128-3.954,2.9-4.4v-.081c-1.777-.485-2.9-1.776-2.9-4.358a18.7,18.7,0,0,1,.323-3.065,23.935,23.935,0,0,0,.282-2.865c0-2.178-.847-3.429-3.187-3.47h-.727V188.4h.808c3.429,0,5.891,1.573,5.891,5.285a23.562,23.562,0,0,1-.323,3.349,23.985,23.985,0,0,0-.323,3.389c0,1.412.4,2.986,3.267,2.986Z" fill="#0078d3"/><path d="M1480.173,202.309c1.669,0,1.9-.917,1.9-1.74a14.038,14.038,0,0,0-.188-1.975,13.7,13.7,0,0,1-.188-1.952c0-2.162,1.41-3.079,3.408-3.079h.494v1.293h-.422c-1.388,0-1.859.752-1.859,2.022a10.3,10.3,0,0,0,.166,1.669,10.978,10.978,0,0,1,.164,1.786,2.249,2.249,0,0,1-1.693,2.54v.047a2.26,2.26,0,0,1,1.693,2.563,10.733,10.733,0,0,1-.164,1.786,10.591,10.591,0,0,0-.166,1.693c0,1.316.542,2.045,1.859,2.045h.422V212.3h-.494c-1.951,0-3.408-.846-3.408-3.22a13.4,13.4,0,0,1,.188-1.929,13.048,13.048,0,0,0,.188-1.9c0-.728-.235-1.74-1.9-1.74Z" fill="#0078d3"/><path d="M1502.174,203.507c-1.669,0-1.9,1.012-1.9,1.74a13.05,13.05,0,0,0,.189,1.9,13.4,13.4,0,0,1,.188,1.929c0,2.374-1.482,3.22-3.41,3.22h-.493v-1.293h.4c1.316-.023,1.881-.729,1.881-2.045a14.327,14.327,0,0,0-.164-1.693,10.676,10.676,0,0,1-.188-1.786,2.3,2.3,0,0,1,1.693-2.563v-.047a2.288,2.288,0,0,1-1.693-2.54,10.952,10.952,0,0,1,.188-1.786,13.936,13.936,0,0,0,.164-1.669c0-1.27-.493-2-1.857-2.022h-.423v-1.293h.47c2,0,3.433.917,3.433,3.079a13.7,13.7,0,0,1-.188,1.952,14.04,14.04,0,0,0-.189,1.975c0,.823.236,1.74,1.9,1.74Z" fill="#0078d3"/><path d="M730.893,245.62,708.564,230.9v-4.81l22.329-13.61v7L715.931,228.6l14.962,9.86Zm-21.154-15.35,19.979,13.168V239.1l-15.982-10.533,15.982-9.742v-4.246l-19.979,12.178Z" fill="#0078d3"/><path d="M763.8,245.62v-7.158l14.962-9.86L763.8,219.481v-7l22.329,13.61v4.81Zm1.175-6.524v4.342l19.979-13.168v-3.517l-19.979-12.178v4.246l15.982,9.742Z" fill="#0078d3"/><path d="M1072.729,124.855h-8.135l16.527-55.237h8.135Zm-6.556-1.175h5.682l15.822-52.886H1082Z" fill="#0078d3"/><path d="M1061.677,114.27l-22.33-14.717v-4.81l22.33-13.611v7l-14.963,9.121,14.963,9.861Zm-21.155-15.351,19.979,13.169v-4.343L1044.52,97.212,1060.5,87.47V83.225L1040.522,95.4Z" fill="#0078d3"/><path d="M1094.584,114.27v-7.158l14.963-9.861-14.963-9.121v-7l22.33,13.611v4.81Zm1.175-6.525v4.343l19.979-13.169V95.4l-19.979-12.178V87.47l15.982,9.742Z" fill="#0078d3"/><polygon points="849.604 113.612 840.409 122.727 840.409 98.969 839.233 98.969 839.233 122.729 830.175 113.745 829.314 114.516 839.82 124.971 850.465 114.383 849.604 113.612" fill="#0078d3"/><path d="M865.089,163.608H813.378V123.649h7.051V144.8h38.784V123.649h5.876Zm-50.536-1.175h49.361V124.825h-3.526v21.154H819.254V124.825h-4.7Z" fill="#0078d3"/><path d="M835.666,157.69h-8.144v-8.143h8.144Zm-7.051-1.092h5.959v-5.96h-5.959Z" fill="#0078d3"/><path d="M852.12,157.69h-8.144v-8.143h8.144Zm-7.052-1.092h5.959v-5.96h-5.959Z" fill="#0078d3"/><path d="M832.182,142.453h-9.4v-9.4h9.4Zm-8.227-1.175h7.052v-7.051h-7.052Z" fill="#0078d3"/><path d="M843.935,142.453h-9.4v-9.4h9.4Zm-8.227-1.175h7.051v-7.051h-7.051Z" fill="#0078d3"/><path d="M855.687,142.453h-9.4v-9.4h9.4Zm-8.227-1.175h7.052v-7.051H847.46Z" fill="#0078d3"/><path d="M957.924,204.391H892.11v-14.1h65.814Zm-64.639-1.175h63.464V191.464H893.285Z" fill="#0078d3"/><path d="M954.4,245.525H895.636V203.216H954.4Zm-57.587-1.175h56.412V204.391H896.811Z" fill="#0078d3"/><path d="M930.893,245.525H920.316V191.464h10.577Zm-9.4-1.175h8.227V192.639h-8.227Z" fill="#0078d3"/><path d="M920.234,191.956c-1.7,0-9.975-.236-14.064-4.7-3.552-3.878-4.428-8.2-2.231-11s6.651-2.941,11.369-.372c9.093,4.951,10.248,15,10.293,15.422l-1.168.123c-.011-.1-1.148-9.864-9.687-14.513-4.187-2.281-8.066-2.255-9.882.064-1.494,1.91-1.4,5.583,2.174,9.486,4.113,4.491,13.379,4.324,13.464,4.314l.03,1.175C920.5,191.954,920.4,191.956,920.234,191.956Z" fill="#0078d3"/><path d="M917.843,188.831c-2.359,0-5.653-.467-7.576-2.768-1.611-1.928-1.984-3.919-1-5.327,1.069-1.524,3.4-1.913,5.958-.99,4.879,1.764,5.833,7.943,5.872,8.2l.081.563-.559.1A16.973,16.973,0,0,1,917.843,188.831Zm-5.24-8.4a2.787,2.787,0,0,0-2.371.981c-.662.947-.312,2.4.937,3.9,2.24,2.681,6.981,2.419,8.648,2.23-.352-1.5-1.584-5.455-4.989-6.687A6.645,6.645,0,0,0,912.6,180.429Z" fill="#0078d3"/><path d="M930.727,191.464c-.16,0-.262,0-.3,0l.028-1.175c.1.01,9.354.172,13.465-4.315,3.575-3.9,3.668-7.576,2.174-9.486-1.814-2.32-5.695-2.344-9.881-.064-8.556,4.659-9.676,14.415-9.686,14.514l-1.169-.123c.045-.425,1.2-10.472,10.293-15.423,4.718-2.57,9.179-2.424,11.369.372s1.32,7.126-2.232,11C940.7,191.228,932.427,191.464,930.727,191.464Z" fill="#0078d3"/><path d="M933.121,188.829a16.983,16.983,0,0,1-2.78-.217l-.559-.1.082-.563c.039-.262,1-6.441,5.873-8.205,2.553-.923,4.89-.534,5.956.99.986,1.408.613,3.4-1,5.326C938.773,188.361,935.479,188.829,933.121,188.829Zm-1.975-1.293c1.67.187,6.409.451,8.648-2.229,1.25-1.495,1.6-2.953.936-3.9-.741-1.06-2.589-1.285-4.594-.558C932.731,182.081,931.5,186.037,931.146,187.536Z" fill="#0078d3"/><path d="M1459.4,109.3h-65.815V95.2H1459.4Zm-64.639-1.175h63.464V96.371h-63.464Z" fill="#0078d3"/><path d="M1455.872,150.433h-58.763V108.124h58.763Zm-57.588-1.175H1454.7V109.3h-56.413Z" fill="#0078d3"/><path d="M1432.367,150.433H1421.79V96.371h10.577Zm-9.4-1.175h8.227V97.546h-8.227Z" fill="#0078d3"/><path d="M1421.708,96.863c-1.7,0-9.976-.236-14.064-4.7-3.552-3.877-4.428-8.2-2.231-11s6.651-2.941,11.369-.373c9.092,4.951,10.248,15,10.293,15.422l-1.169.124c-.01-.1-1.147-9.864-9.686-14.514-4.187-2.281-8.066-2.255-9.882.065-1.494,1.91-1.4,5.583,2.174,9.485,4.113,4.492,13.379,4.325,13.464,4.314l.029,1.175C1421.971,96.861,1421.869,96.863,1421.708,96.863Z" fill="#0078d3"/><path d="M1419.316,93.739c-2.358,0-5.652-.468-7.576-2.769-1.61-1.928-1.983-3.919-1-5.327,1.068-1.523,3.4-1.912,5.958-.99,4.879,1.764,5.832,7.943,5.871,8.2l.082.563-.559.1A17.107,17.107,0,0,1,1419.316,93.739Zm-5.239-8.4a2.785,2.785,0,0,0-2.371.982c-.662.946-.312,2.4.936,3.9,2.241,2.68,6.982,2.418,8.648,2.23-.351-1.5-1.583-5.456-4.989-6.687A6.622,6.622,0,0,0,1414.077,85.336Z" fill="#0078d3"/><path d="M1432.2,96.371c-.159,0-.261,0-.3,0l.029-1.175c.1.011,9.354.173,13.465-4.315,3.575-3.9,3.668-7.575,2.174-9.485-1.815-2.32-5.695-2.345-9.881-.065-8.556,4.659-9.676,14.416-9.687,14.514l-1.168-.123c.045-.425,1.2-10.472,10.293-15.423,4.718-2.57,9.179-2.424,11.369.373s1.32,7.126-2.232,11C1442.176,96.135,1433.9,96.371,1432.2,96.371Z" fill="#0078d3"/><path d="M1434.6,93.736a16.983,16.983,0,0,1-2.78-.217l-.559-.1.081-.563c.039-.262,1-6.44,5.873-8.2,2.554-.924,4.891-.535,5.957.989.986,1.408.613,3.4-1,5.327C1440.247,93.269,1436.953,93.736,1434.6,93.736Zm-1.976-1.292c1.67.186,6.409.45,8.648-2.23,1.25-1.5,1.6-2.952.937-3.9-.741-1.06-2.589-1.285-4.594-.558C1434.2,86.988,1432.972,90.944,1432.619,92.444Z" fill="#0078d3"/><path d="M626.976,118.227H561.162v-14.1h65.814Zm-64.639-1.176H625.8V105.3H562.337Z" fill="#0078d3"/><path d="M623.45,159.361H564.687v-42.31H623.45Zm-57.587-1.176h56.412V118.227H565.863Z" fill="#0078d3"/><path d="M599.945,159.361H589.368V105.3h10.577Zm-9.4-1.176h8.227V106.474h-8.227Z" fill="#0078d3"/><path d="M589.286,105.791c-1.7,0-9.976-.236-14.064-4.7-3.552-3.878-4.428-8.2-2.231-11s6.651-2.941,11.369-.372c9.092,4.951,10.248,15,10.293,15.422l-1.168.124c-.011-.1-1.148-9.864-9.687-14.514-4.188-2.28-8.066-2.255-9.882.065-1.494,1.909-1.4,5.583,2.174,9.485,4.114,4.491,13.37,4.323,13.464,4.314l.03,1.175C589.549,105.789,589.447,105.791,589.286,105.791Z" fill="#0078d3"/><path d="M586.894,102.667c-2.358,0-5.652-.468-7.576-2.769-1.61-1.928-1.983-3.919-1-5.327,1.069-1.523,3.406-1.913,5.958-.99,4.879,1.764,5.832,7.943,5.872,8.2l.081.563-.559.1A17.107,17.107,0,0,1,586.894,102.667Zm-5.239-8.4a2.787,2.787,0,0,0-2.371.981c-.662.947-.312,2.4.937,3.9,2.24,2.68,6.981,2.418,8.648,2.23-.352-1.5-1.584-5.456-4.99-6.688A6.64,6.64,0,0,0,581.655,94.264Z" fill="#0078d3"/><path d="M599.779,105.3c-.16,0-.262,0-.3,0l.028-1.175c.1.011,9.355.172,13.465-4.315,3.575-3.9,3.668-7.576,2.174-9.485-1.815-2.32-5.695-2.345-9.881-.065-8.556,4.659-9.676,14.416-9.686,14.514l-1.169-.123c.045-.425,1.2-10.472,10.293-15.423,4.718-2.57,9.179-2.424,11.369.372s1.32,7.127-2.232,11C609.755,105.063,601.478,105.3,599.779,105.3Z" fill="#0078d3"/><path d="M602.173,102.664a16.983,16.983,0,0,1-2.78-.217l-.559-.1.082-.563c.039-.262.995-6.44,5.872-8.2,2.553-.924,4.891-.535,5.957.989.986,1.408.613,3.4-1,5.326C607.825,102.2,604.531,102.664,602.173,102.664Zm-1.975-1.293c1.67.189,6.408.451,8.648-2.229,1.249-1.495,1.6-2.953.936-3.9-.741-1.06-2.588-1.285-4.594-.558C601.783,95.916,600.55,99.872,600.2,101.371Z" fill="#0078d3"/><path d="M820.912,219.629l3.218-10.991-8.445-6.35H825.99l3.15-10.757,3.678,10.757h9.78l-7.68,6.142,3.827,11.195-9.188-6.908Zm8.622-8.4,6.863,5.16-2.859-8.362,5.709-4.564h-7.269l-2.751-8.047-2.356,8.047H819.2l6.283,4.724-2.4,8.2Z" fill="#0078d3"/><polygon points="2235.573 115.086 2226.377 124.202 2226.377 100.443 2225.202 100.443 2225.202 124.204 2216.143 115.219 2215.282 115.99 2225.788 126.446 2236.434 115.857 2235.573 115.086" fill="#0078d3"/><path d="M2251.057,165.082h-51.711V125.124h7.052v21.154h38.783V125.124h5.876Zm-50.536-1.175h49.361V126.3h-3.526v21.154h-41.134V126.3h-4.7Z" fill="#0078d3"/><path d="M2221.635,159.164h-8.145v-8.143h8.145Zm-7.052-1.091h5.959v-5.96h-5.959Z" fill="#0078d3"/><path d="M2238.088,159.164h-8.144v-8.143h8.144Zm-7.051-1.091H2237v-5.96h-5.959Z" fill="#0078d3"/><path d="M2218.15,143.928h-9.4v-9.4h9.4Zm-8.227-1.176h7.052V135.7h-7.052Z" fill="#0078d3"/><path d="M2229.9,143.928h-9.4v-9.4h9.4Zm-8.227-1.176h7.051V135.7h-7.051Z" fill="#0078d3"/><path d="M2241.655,143.928h-9.4v-9.4h9.4Zm-8.226-1.176h7.051V135.7h-7.051Z" fill="#0078d3"/><path d="M2206.118,233.351l3.218-10.992-8.445-6.349h10.3l3.15-10.758,3.679,10.758h9.78l-7.681,6.141,3.828,11.2-9.189-6.908Zm8.621-8.4,6.863,5.16-2.858-8.361,5.708-4.565h-7.268l-2.751-8.046-2.357,8.046h-7.666l6.282,4.724-2.4,8.2Z" fill="#0078d3"/><path d="M1219.8,106.319l-.406-.263-4.112-3.09-4.183,3.346-.775-.476.1-.469,1.453-4.962-4.11-3.091.25-.86.472-.035h4.555l1.535-5.238.908-.057.189.442,1.658,4.853h4.732l.324.82-.34.317-3.4,2.717,1.873,5.479Zm-4.143-4.543,3.05,2.294-1.422-4.159.331-.315,2.5-2h-3.592l-.183-.437-1.235-3.612-1.174,4.012-.489.037h-3.352l3.123,2.348-.115.457-1.072,3.662,3.207-2.564.419.279Z" fill="#0078d3"/><path d="M2392.857,105.082h-31.982a10.075,10.075,0,0,1-7.886-16.345l15.594-19.612V58.072h-3.525V52.2h23.505v5.876h-3.526V68.983l15.706,19.754a10.075,10.075,0,0,1-7.886,16.345ZM2366.233,56.9h3.526V69.535L2353.91,89.468a8.9,8.9,0,0,0,6.965,14.439h31.982a8.9,8.9,0,0,0,6.966-14.439l-15.961-20.075V56.9h3.525V53.371h-21.154Z" fill="#0078d3"/><path d="M2389.233,100.381h-25.174a6.7,6.7,0,0,1-5.306-10.8l6.178-8h23.43l6.178,8a6.7,6.7,0,0,1-5.306,10.8ZM2365.51,82.752l-5.827,7.548a5.528,5.528,0,0,0,4.376,8.906h25.174a5.528,5.528,0,0,0,4.376-8.906l-5.827-7.548Z" fill="#0078d3"/><path d="M2376.81,45.121a2.327,2.327,0,1,1,2.328-2.327A2.33,2.33,0,0,1,2376.81,45.121Zm0-3.526a1.2,1.2,0,1,0,1.2,1.2A1.2,1.2,0,0,0,2376.81,41.6Z" fill="#0078d3"/><path d="M2376.81,65.155a3.557,3.557,0,1,1,3.557-3.557A3.561,3.561,0,0,1,2376.81,65.155Zm0-5.877a2.32,2.32,0,1,0,2.32,2.32A2.323,2.323,0,0,0,2376.81,59.278Z" fill="#0078d3"/><path d="M2378.573,76.864a4.1,4.1,0,1,1,4.1-4.1A4.107,4.107,0,0,1,2378.573,76.864Zm0-7.051a2.95,2.95,0,1,0,2.95,2.95A2.954,2.954,0,0,0,2378.573,69.813Z" fill="#0078d3"/><path d="M524.729,170.237H427.182v-7.052h97.547Zm-96.371-1.175h95.2v-4.7H428.358Z" fill="#0078d3"/><path d="M496.523,157.309H455.389v-5.876h41.134Zm-39.959-1.175h38.783v-3.526H456.564Z" fill="#0078d3"/><polygon points="482.419 152.608 481.244 152.608 481.244 142.031 469.492 142.031 469.492 152.608 468.316 152.608 468.316 140.855 482.419 140.855 482.419 152.608" fill="#0078d3"/><path d="M515.847,142.031H434.889a3.01,3.01,0,0,1-3.006-3.007V87.45a3.01,3.01,0,0,1,3.006-3.007h80.958a3.009,3.009,0,0,1,3,3.007v51.574A3.009,3.009,0,0,1,515.847,142.031ZM434.889,85.618a1.834,1.834,0,0,0-1.83,1.832v51.574a1.833,1.833,0,0,0,1.83,1.831h80.958a1.833,1.833,0,0,0,1.83-1.831V87.45a1.834,1.834,0,0,0-1.83-1.832Z" fill="#0078d3"/><path d="M514.151,137.33H436.585V89.144h77.566Zm-76.391-1.176h75.216V90.319H437.76Z" fill="#0078d3"/><rect x="483.595" y="90.319" width="1.175" height="47.01" fill="#0078d3"/><path d="M477.718,103.247H441.286V96.2h36.432Zm-35.257-1.175h34.082v-4.7H442.461Z" fill="#0078d3"/><path d="M474.193,119.7H441.286V106.773h32.907Zm-31.732-1.175h30.556V107.948H442.461Z" fill="#0078d3"/><path d="M456.564,129.1H441.286v-5.876h15.278Zm-14.1-1.175h12.928V124.4H442.461Z" fill="#0078d3"/><path d="M1224.79,208.01h-97.546v-7.051h97.546Zm-96.371-1.175h95.2v-4.7h-95.2Z" fill="#0078d3"/><path d="M1196.584,195.082H1155.45v-5.876h41.134Zm-39.959-1.175h38.783v-3.526h-38.783Z" fill="#0078d3"/><polygon points="1182.481 190.381 1181.305 190.381 1181.305 179.804 1169.553 179.804 1169.553 190.381 1168.377 190.381 1168.377 178.629 1182.481 178.629 1182.481 190.381" fill="#0078d3"/><path d="M1215.908,179.8H1134.95a3.009,3.009,0,0,1-3.005-3.007V125.223a3.009,3.009,0,0,1,3.005-3.007h80.958a3.01,3.01,0,0,1,3.006,3.007V176.8A3.01,3.01,0,0,1,1215.908,179.8Zm-80.958-56.412a1.833,1.833,0,0,0-1.83,1.831V176.8a1.834,1.834,0,0,0,1.83,1.832h80.958a1.834,1.834,0,0,0,1.83-1.832V125.223a1.833,1.833,0,0,0-1.83-1.831Z" fill="#0078d3"/><path d="M1214.212,175.1h-77.566V126.917h77.566Zm-76.391-1.175h75.216V128.093h-75.216Z" fill="#0078d3"/><rect x="1183.656" y="128.093" width="1.175" height="47.01" fill="#0078d3"/><path d="M1177.78,141.02h-36.433v-7.051h36.433Zm-35.258-1.175H1176.6v-4.7h-34.082Z" fill="#0078d3"/><path d="M1174.254,157.474h-32.907V144.546h32.907Zm-31.732-1.175h30.557V145.721h-30.557Z" fill="#0078d3"/><path d="M1156.625,166.876h-15.278V161h15.278Zm-14.1-1.175h12.928v-3.526h-12.928Z" fill="#0078d3"/><path d="M720.914,158.77l-10.547-10.549,4.985-4.985,5.562,5.561,14.376-14.376,4.986,4.986Zm-8.886-10.549,8.886,8.887,17.7-17.7-3.324-3.324-14.376,14.376-5.562-5.561Z" fill="#0078d3"/><path d="M703.285,110.3h31.732v-9.4H703.285Zm1.175-8.227h29.382v7.052H704.46Z" fill="#0078d3"/><path d="M739.718,97.371h-6.743a13.873,13.873,0,0,0-27.648,0h-17.32v76.392h63.464V97.371ZM719.151,85.838A12.721,12.721,0,0,1,731.8,97.371H706.5A12.722,12.722,0,0,1,719.151,85.838Zm-19.392,20.935V98.546h38.784v15.279H699.759ZM739.718,115v-8.227h4.7v58.763H693.883V106.773h4.7V115ZM750.3,172.587H689.182V98.546h9.4V105.6h-5.876v61.113h52.886V105.6h-5.876V98.546H750.3Z" fill="#0078d3"/><rect x="700.935" y="130.278" width="31.732" height="1.175" fill="#0078d3"/><rect x="700.935" y="137.33" width="22.33" height="1.175" fill="#0078d3"/><rect x="700.935" y="123.227" width="38.783" height="1.175" fill="#0078d3"/><path d="M2382.129,234.607h-97.546v-7.051h97.546Zm-96.371-1.175h95.2v-4.7h-95.2Z" fill="#0078d3"/><path d="M2353.923,221.68h-41.134V215.8h41.134Zm-39.959-1.176h38.784v-3.525h-38.784Z" fill="#0078d3"/><polygon points="2339.82 216.979 2338.645 216.979 2338.645 206.401 2326.892 206.401 2326.892 216.979 2325.717 216.979 2325.717 205.226 2339.82 205.226 2339.82 216.979" fill="#0078d3"/><path d="M2373.247,206.4H2292.29a3.009,3.009,0,0,1-3.006-3.006V151.82a3.009,3.009,0,0,1,3.006-3.006h80.957a3.009,3.009,0,0,1,3.006,3.006V203.4A3.009,3.009,0,0,1,2373.247,206.4Zm-80.957-56.412a1.833,1.833,0,0,0-1.831,1.831V203.4a1.833,1.833,0,0,0,1.831,1.831h80.957a1.832,1.832,0,0,0,1.83-1.831V151.82a1.832,1.832,0,0,0-1.83-1.831Z" fill="#0078d3"/><path d="M2371.552,201.7h-77.567V153.515h77.567Zm-76.392-1.175h75.216V154.69H2295.16Z" fill="#0078d3"/><rect x="2340.995" y="154.69" width="1.175" height="47.01" fill="#0078d3"/><path d="M2335.119,167.618h-36.433v-7.052h36.433Zm-35.258-1.175h34.083v-4.7h-34.083Z" fill="#0078d3"/><path d="M2331.593,184.071h-32.907V171.144h32.907Zm-31.732-1.175h30.557V172.319h-30.557Z" fill="#0078d3"/><path d="M2313.964,193.474h-15.278V187.6h15.278Zm-14.1-1.176h12.928v-3.525h-12.928Z" fill="#0078d3"/><path d="M7.964,135.969l3.218-10.992-8.445-6.349H13.042l3.15-10.757,3.679,10.757H29.65l-7.68,6.142,3.827,11.2-9.188-6.908Zm8.622-8.4,6.863,5.16-2.859-8.362L26.3,119.8H19.03l-2.751-8.047L13.923,119.8H6.256l6.283,4.724-2.4,8.2Z" fill="#0078d3"/><path d="M1083.246,33.412c2.863,0,3.267-1.574,3.267-2.986a23.985,23.985,0,0,0-.323-3.389,23.562,23.562,0,0,1-.323-3.349c0-3.712,2.421-5.285,5.85-5.285h.847v2.219h-.725c-2.381,0-3.189,1.292-3.189,3.47a17.6,17.6,0,0,0,.284,2.865,18.854,18.854,0,0,1,.281,3.065c.042,2.582-1.089,3.873-2.9,4.358v.081c1.816.444,2.947,1.816,2.9,4.4a18.446,18.446,0,0,1-.281,3.065,18.086,18.086,0,0,0-.284,2.905c0,2.259.93,3.51,3.189,3.51h.725v2.219h-.847c-3.349,0-5.85-1.452-5.85-5.527a23.038,23.038,0,0,1,.323-3.309,22.314,22.314,0,0,0,.323-3.267c0-1.251-.4-2.986-3.267-2.986Z" fill="#0078d3"/><path d="M1121,35.469c-2.864,0-3.267,1.735-3.267,2.986a22.314,22.314,0,0,0,.323,3.267,23.038,23.038,0,0,1,.323,3.309c0,4.075-2.543,5.527-5.852,5.527h-.847V48.339h.685c2.26-.04,3.229-1.251,3.229-3.51a24.607,24.607,0,0,0-.282-2.905,18.24,18.24,0,0,1-.323-3.065c0-2.582,1.128-3.954,2.9-4.4V34.38c-1.777-.485-2.9-1.776-2.9-4.358a18.7,18.7,0,0,1,.323-3.065,23.935,23.935,0,0,0,.282-2.865c0-2.178-.847-3.429-3.187-3.47h-.727V18.4h.808c3.429,0,5.891,1.573,5.891,5.285a23.562,23.562,0,0,1-.323,3.349,23.985,23.985,0,0,0-.323,3.389c0,1.412.4,2.986,3.267,2.986Z" fill="#0078d3"/><path d="M1692.368,248.113h-8.135l16.527-55.237h8.135Zm-6.556-1.175h5.681l15.823-52.886h-5.681Z" fill="#0078d3"/><path d="M1681.316,237.527l-22.33-14.716V218l22.33-13.611v7l-14.963,9.121,14.963,9.861Zm-21.155-15.35,19.979,13.169V231l-15.982-10.533,15.982-9.742v-4.246l-19.979,12.179Z" fill="#0078d3"/><path d="M1714.223,237.527V230.37l14.962-9.861-14.962-9.121v-7L1736.553,218v4.81ZM1715.4,231v4.343l19.979-13.169v-3.516L1715.4,206.482v4.246l15.982,9.742Z" fill="#0078d3"/><path d="M2436.7,123a8.24,8.24,0,1,1,8.24-8.24A8.25,8.25,0,0,1,2436.7,123Zm0-15.279a7.039,7.039,0,1,0,7.039,7.039A7.047,7.047,0,0,0,2436.7,107.723Z" fill="#0078d3"/><path d="M2436.7,78.342a8.24,8.24,0,1,1,8.24-8.239A8.249,8.249,0,0,1,2436.7,78.342Zm0-15.278a7.039,7.039,0,1,0,7.039,7.039A7.046,7.046,0,0,0,2436.7,63.064Z" fill="#0078d3"/><path d="M2469.6,123a8.24,8.24,0,1,1,8.239-8.24A8.25,8.25,0,0,1,2469.6,123Zm0-15.279a7.039,7.039,0,1,0,7.039,7.039A7.047,7.047,0,0,0,2469.6,107.723Z" fill="#0078d3"/><rect x="2435.521" y="77.154" width="1.175" height="29.381" fill="#0078d3"/><path d="M2469.6,106.535h-1.176V83.1c0-3.081-1.44-8.294-6.842-8.294h-9.611V73.628h9.641c6.3,0,7.988,5.924,7.988,9.424Z" fill="#0078d3"/><polygon points="2461.059 64.109 2461.831 64.937 2452.264 74.215 2461.964 83.627 2461.192 84.455 2450.604 74.215 2461.059 64.109" fill="#0078d3"/><path d="M2453.725,32.536l3.218-10.991L2448.5,15.2h10.3l3.15-10.758,3.679,10.758h9.779l-7.68,6.141,3.827,11.195-9.188-6.908Zm8.622-8.4,6.863,5.16-2.859-8.362,5.709-4.564h-7.269l-2.751-8.047-2.356,8.047h-7.667L2458.3,21.1l-2.4,8.2Z" fill="#0078d3"/><path d="M1362.594,250.091V189.639h9.4v7.051h-5.877v53.4h1.176V197.866h4.7v8.226h41.134v-8.226h4.7v52.225h1.175v-53.4h-5.876v-7.051h10.577v60.452h1.175V188.464h-18.5a13.873,13.873,0,0,0-27.649,0h-17.32v61.627Zm29.969-73.161a12.723,12.723,0,0,1,12.649,11.534h-25.3A12.722,12.722,0,0,1,1392.563,176.93Zm-19.392,20.936v-8.227h38.784v15.278h-38.784Z" fill="#0078d3"/><polygon points="736.868 250.091 751.212 202.144 756.894 202.144 742.549 250.091 743.775 250.091 758.473 200.969 750.338 200.969 735.64 250.091 736.868 250.091" fill="#0078d3"/><path d="M874.347.091V42.829a1.833,1.833,0,0,1-1.831,1.831H791.559a1.833,1.833,0,0,1-1.831-1.831V.091h-1.175V42.829a3.01,3.01,0,0,0,3.006,3.006h80.957a3.01,3.01,0,0,0,3.006-3.006V.091Z" fill="#0078d3"/><polygon points="869.646 0.091 869.646 39.959 794.429 39.959 794.429 0.091 793.254 0.091 793.254 41.134 870.821 41.134 870.821 0.091 869.646 0.091" fill="#0078d3"/><rect x="840.264" y="0.091" width="1.175" height="40.455" fill="#0078d3"/><path d="M1628.954.091V39.128a1.833,1.833,0,0,1-1.83,1.831h-80.957a1.834,1.834,0,0,1-1.831-1.831V.091h-1.175V39.128a3.009,3.009,0,0,0,3.006,3.006h80.957a3.009,3.009,0,0,0,3-3.006V.091Z" fill="#0078d3"/><polygon points="1624.253 0.091 1624.253 36.258 1549.037 36.258 1549.037 0.091 1547.862 0.091 1547.862 37.433 1625.428 37.433 1625.428 0.091 1624.253 0.091" fill="#0078d3"/><rect x="1594.872" y="0.091" width="1.175" height="36.754" fill="#0078d3"/><polygon points="1587.82 0.091 1587.82 2.175 1553.738 2.175 1553.738 0.091 1552.563 0.091 1552.563 3.351 1588.996 3.351 1588.996 0.091 1587.82 0.091" fill="#0078d3"/><polygon points="1893.108 0.091 1893.108 59.938 1831.995 59.938 1831.995 0.091 1830.82 0.091 1830.82 59.938 1830.82 61.113 1831.995 61.113 1894.284 61.113 1894.284 59.938 1894.284 0.091 1893.108 0.091" fill="#0078d3"/><polygon points="1882.531 0.091 1881.356 0.091 1881.356 1.175 1842.573 1.175 1842.573 0.091 1841.397 0.091 1841.397 2.351 1882.531 2.351 1882.531 0.091" fill="#0078d3"/><polygon points="1888.407 0.091 1887.232 0.091 1887.232 52.886 1836.696 52.886 1836.696 0.091 1835.521 0.091 1835.521 54.062 1888.407 54.062 1888.407 0.091" fill="#0078d3"/><g clip-path="url(#a)"><path d="M64,366.136c656-131,802-158,908,0s251,273,423,175c228.562-130.228,351-339,599-357,472.613-34.3,592,242,751,383" fill="none" stroke="#0060c4" stroke-miterlimit="10"/><path d="M60.062,377.158c648.376-126.437,785.063-143.647,909.813,8.79s268.937,250.313,444.406,152.594c228.5-127.932,358.293-319.509,601.281-332.094,453.794-23.5,579,232.375,728.063,364.563" fill="none" stroke="#005ec2" stroke-miterlimit="10"/><path d="M56.125,388.181c640.75-121.875,768.125-129.295,911.625,17.58s287.08,228,465.812,130.187c228.694-125.156,365.508-300.091,603.563-307.187,434.857-12.964,566,222.75,705.125,346.125" fill="none" stroke="#005cc1" stroke-miterlimit="10"/></g></svg>