<svg xmlns="http://www.w3.org/2000/svg" xmlns:xlink="http://www.w3.org/1999/xlink" viewBox="0 0 600 400"><defs><clipPath id="a"><rect width="600" height="400" fill="none"/></clipPath></defs><title>blog-rocket-launch-timeline</title><circle cx="196.477" cy="12.172" r="2.24" fill="#2488d8"/><g clip-path="url(#a)"><rect x="-0.645" width="600.689" height="402.709" fill="#106ebe"/><path d="M299.754,59.03C185.784,59.03,81.308,87.213,0,134.075V400H600V134.359C518.621,87.327,413.954,59.03,299.754,59.03Z" fill="#106ebe"/><path d="M299.807,100.358C184.668,100.358,79.631,130.335,0,179.643V400H600V179.878C520.323,130.429,415.13,100.358,299.807,100.358Z" fill="#0d67b2"/><path d="M299.859,141.686C183.346,141.686,77.63,173.732,0,225.8V400H600V225.981C522.344,173.8,416.51,141.686,299.859,141.686Z" fill="#0b60a7"/><path d="M299.912,183.014C181.748,183.014,75.2,217.489,0,272.722V400H600V272.843C524.79,217.537,418.164,183.014,299.912,183.014Z" fill="#085a9b"/><path d="M299.965,224.342c-120.189,0-227.783,37.385-299.965,96.3V400H600V320.7C527.818,261.749,420.192,224.342,299.965,224.342Z" fill="#05538f"/><path d="M578.232,400c-65.152-56.678-165.54-93-278.162-93s-213,36.326-278.153,93Z" fill="#004578"/><path d="M561.373,400a15.332,15.332,0,0,0-15.341-15.323c-.311,0-.614.028-.921.046.005-.155.017-.308.017-.464a12.922,12.922,0,0,0-12.711-13.124,12.332,12.332,0,0,0-3.886.627,14.05,14.05,0,0,0-13.374-10.844,13.184,13.184,0,0,0-7.186,2.134,13.46,13.46,0,0,0-12.034-7.827,12.754,12.754,0,0,0-4.226.721,19.066,19.066,0,0,0-26.521.406,19.723,19.723,0,0,0-19.2-16.417,19.128,19.128,0,0,0-13.057,5.166,12.776,12.776,0,0,0-10.647,1.007,10.368,10.368,0,0,0-8.539-.352c-1.619-7.512-6.991-13.031-13.374-13.031a11.653,11.653,0,0,0-7.186,2.565c-2.246-5.584-6.79-9.406-12.034-9.406a10.847,10.847,0,0,0-4.227.866,17.547,17.547,0,0,0-13.057-6.209c-10.164,0-18.515,9.629-19.453,21.936a9.454,9.454,0,0,0-5.449-1.777,10.182,10.182,0,0,0-7.819,4,10.056,10.056,0,0,0-3.257-.548,10.609,10.609,0,0,0-6.542,2.335c-2.045-5.084-6.182-8.563-10.957-8.563a9.874,9.874,0,0,0-3.848.789,15.976,15.976,0,0,0-11.888-5.653c-6.641,0-12.431,4.515-15.488,11.206-3.25-5.289-8.381-8.7-14.156-8.7a15.976,15.976,0,0,0-11.888,5.653,9.875,9.875,0,0,0-3.848-.789c-4.775,0-8.912,3.479-10.957,8.563a10.34,10.34,0,0,0-13.339.211c-1.786-11.106-9.683-19.478-19.159-19.478a17.548,17.548,0,0,0-13.058,6.209,10.847,10.847,0,0,0-4.226-.866c-5.244,0-9.788,3.822-12.034,9.406a11.653,11.653,0,0,0-7.186-2.565c-6.383,0-11.755,5.519-13.374,13.031a10.466,10.466,0,0,0-3.886-.753,11.565,11.565,0,0,0-8.927,4.55,12.992,12.992,0,0,0-8.829-3.5,12.754,12.754,0,0,0-4.226.721,19.128,19.128,0,0,0-13.058-5.166,19.8,19.8,0,0,0-19.453,18.253,10.792,10.792,0,0,0-5.449-1.479,11.53,11.53,0,0,0-10.975,8.9,10.121,10.121,0,0,0-3.189-.515,10.6,10.6,0,0,0-10.431,10.77c0,.238.01.473.025.707-.206-.008-.408-.031-.615-.031a15.324,15.324,0,1,0,1.849,30.525l-.041.148h479.1l-.973-2.778A15.318,15.318,0,0,0,561.373,400Z" fill="#106ebe"/><path d="M85.6,422.71l-.9,2.572H528.319l-.038-.137a14.185,14.185,0,1,0,1.712-28.264c-.192,0-.379.021-.57.029.014-.217.023-.435.023-.655a9.819,9.819,0,0,0-9.659-9.972,9.371,9.371,0,0,0-2.953.476,10.676,10.676,0,0,0-10.162-8.24,9.992,9.992,0,0,0-5.046,1.369,18.329,18.329,0,0,0-18.012-16.9,17.711,17.711,0,0,0-12.09,4.784,11.81,11.81,0,0,0-3.913-.668,12.03,12.03,0,0,0-8.175,3.244,10.709,10.709,0,0,0-8.265-4.213,9.69,9.69,0,0,0-3.6.7c-1.5-6.956-6.473-12.066-12.383-12.066a10.79,10.79,0,0,0-6.654,2.375c-2.08-5.17-6.287-8.709-11.143-8.709a10.044,10.044,0,0,0-3.913.8,16.248,16.248,0,0,0-12.09-5.749c-8.775,0-16.087,7.751-17.74,18.035a9.574,9.574,0,0,0-12.351-.2c-1.894-4.707-5.724-7.929-10.145-7.929a9.143,9.143,0,0,0-3.563.73,14.793,14.793,0,0,0-11.008-5.234c-5.347,0-10.1,3.161-13.107,8.059-2.83-6.2-8.191-10.376-14.34-10.376a14.793,14.793,0,0,0-11.008,5.234,9.143,9.143,0,0,0-3.563-.73c-4.421,0-8.252,3.222-10.145,7.929a9.823,9.823,0,0,0-6.058-2.162,9.311,9.311,0,0,0-3.016.508,9.427,9.427,0,0,0-7.24-3.7,8.754,8.754,0,0,0-5.046,1.645c-.868-11.4-8.6-20.311-18.012-20.311a16.248,16.248,0,0,0-12.09,5.749,10.043,10.043,0,0,0-3.913-.8c-4.856,0-9.063,3.539-11.143,8.709a10.789,10.789,0,0,0-6.654-2.375c-5.91,0-10.885,5.11-12.383,12.066a9.6,9.6,0,0,0-7.907.326,11.83,11.83,0,0,0-9.859-.932,17.712,17.712,0,0,0-12.09-4.784,18.262,18.262,0,0,0-17.777,15.2,17.654,17.654,0,0,0-24.556-.376,11.809,11.809,0,0,0-3.913-.668,12.463,12.463,0,0,0-11.143,7.247,12.207,12.207,0,0,0-6.654-1.976,13.01,13.01,0,0,0-12.383,10.041,11.418,11.418,0,0,0-3.6-.581,11.965,11.965,0,0,0-11.77,12.152c0,.145.01.286.015.43-.284-.017-.565-.043-.852-.043A14.179,14.179,0,0,0,85.6,422.71Z" fill="#1786d1"/><rect x="58.791" y="296.163" width="497.184" height="99.323" fill="none"/><rect x="168.172" y="210.384" width="131.98" height="1.806" fill="#00bcf2"/><ellipse cx="168.172" cy="211.287" rx="24.29" ry="24.262" fill="#00bcf2"/><rect x="124.781" y="291.648" width="175.37" height="1.806" fill="#9080cf"/><ellipse cx="122.069" cy="292.551" rx="24.29" ry="24.262" fill="#9080cf"/><rect x="300.269" y="332.28" width="131.98" height="1.806" fill="#ff8c00"/><ellipse cx="432.249" cy="333.183" rx="24.29" ry="24.262" fill="#ff8c00"/><rect x="300.269" y="167.043" width="131.98" height="1.806" fill="#40c5af"/><ellipse cx="432.249" cy="167.946" rx="24.29" ry="24.262" fill="#40c5af"/><rect x="300.269" y="251.016" width="175.37" height="1.806" fill="#adc909"/><ellipse cx="477.448" cy="251.919" rx="24.29" ry="24.262" fill="#adc909"/><path d="M300.152,392.777a5.421,5.421,0,0,1-5.424-5.418v-275.4a5.424,5.424,0,0,1,10.848,0v275.4A5.421,5.421,0,0,1,300.152,392.777Z" fill="#fff"/><path d="M211.39,393.687a10.82,10.82,0,0,0-4.017.779c-1.674-7.767-7.228-13.473-13.827-13.473a12.048,12.048,0,0,0-7.429,2.652c-2.322-5.773-7.02-9.725-12.442-9.725a11.214,11.214,0,0,0-4.37.9,18.142,18.142,0,0,0-13.5-6.419c-10.509,0-19.142,9.955-20.112,22.679a9.774,9.774,0,0,0-5.634-1.837c-5.416,0-9.974,4.683-11.347,11.056a8.879,8.879,0,0,0-3.3-.639c-5.956,0-10.785,5.991-10.785,13.381,0,5.367,2.548,9.993,6.223,12.126a7.946,7.946,0,0,0,3.652,1.022H212.1a9.33,9.33,0,0,0,4.852-1.416c4.479-2.6,7.583-8.236,7.583-14.776C224.532,400.988,218.648,393.687,211.39,393.687Z" fill="#2e92d5"/><path d="M509.7,393.687a10.82,10.82,0,0,0-4.017.779c-1.674-7.767-7.228-13.473-13.827-13.473a12.048,12.048,0,0,0-7.429,2.652c-2.322-5.773-7.02-9.725-12.442-9.725a11.214,11.214,0,0,0-4.37.9,18.142,18.142,0,0,0-13.5-6.419c-10.509,0-19.142,9.955-20.112,22.679a9.774,9.774,0,0,0-5.634-1.837c-5.416,0-9.974,4.683-11.347,11.056a8.879,8.879,0,0,0-3.3-.639c-5.956,0-10.785,5.991-10.785,13.381,0,5.367,2.548,9.993,6.223,12.126a7.946,7.946,0,0,0,3.652,1.022h97.593a9.33,9.33,0,0,0,4.852-1.416c4.479-2.6,7.583-8.236,7.583-14.776C522.843,400.988,516.959,393.687,509.7,393.687Z" fill="#2e92d5"/><path d="M255.558,391.036a12.288,12.288,0,0,0-4.513.864c-1.88-8.616-8.12-14.946-15.533-14.946a13.639,13.639,0,0,0-8.346,2.942c-2.609-6.4-7.886-10.788-13.977-10.788a12.734,12.734,0,0,0-4.909.994,20.482,20.482,0,0,0-15.165-7.121c-11.8,0-21.5,11.044-22.593,25.159a11.073,11.073,0,0,0-6.329-2.038c-6.084,0-11.2,5.195-12.747,12.266a10.084,10.084,0,0,0-3.7-.709c-6.691,0-12.115,6.646-12.115,14.845,0,5.954,2.862,11.086,6.99,13.452a9.01,9.01,0,0,0,4.1,1.134h109.63a10.575,10.575,0,0,0,5.451-1.571c5.031-2.883,8.518-9.137,8.518-16.392C270.321,399.135,263.711,391.036,255.558,391.036Z" fill="#469eda"/><path d="M335.944,384.85a10.756,10.756,0,0,1,3.994.774c1.664-7.721,7.185-13.393,13.746-13.393a11.976,11.976,0,0,1,7.386,2.636c2.309-5.739,6.979-9.667,12.369-9.667a11.148,11.148,0,0,1,4.344.89,18.035,18.035,0,0,1,13.42-6.381c10.447,0,19.029,9.9,19.993,22.545a9.716,9.716,0,0,1,5.6-1.826c5.384,0,9.915,4.655,11.28,10.991a8.827,8.827,0,0,1,3.277-.636c5.921,0,10.721,5.956,10.721,13.3,0,5.335-2.532,9.934-6.186,12.054a7.9,7.9,0,0,1-3.631,1.016H335.241a9.275,9.275,0,0,1-4.824-1.408c-4.452-2.583-7.538-8.187-7.538-14.689C322.879,392.107,328.729,384.85,335.944,384.85Z" fill="#469eda"/><path d="M230.545,387.084a10.312,10.312,0,0,1,3.829.742c1.6-7.4,6.889-12.841,13.179-12.841a11.483,11.483,0,0,1,7.081,2.527c2.213-5.5,6.691-9.269,11.859-9.269a10.688,10.688,0,0,1,4.165.854,17.292,17.292,0,0,1,12.867-6.118c10.016,0,18.245,9.488,19.169,21.616a9.316,9.316,0,0,1,5.37-1.751c5.162,0,9.506,4.463,10.815,10.538a8.463,8.463,0,0,1,3.142-.609c5.677,0,10.279,5.71,10.279,12.754,0,5.115-2.428,9.525-5.931,11.557a7.573,7.573,0,0,1-3.481.974H229.871a8.892,8.892,0,0,1-4.625-1.35c-4.269-2.477-7.228-7.85-7.228-14.083C218.019,394.042,223.627,387.084,230.545,387.084Z" fill="#69afe5"/><ellipse cx="300.152" cy="211.287" rx="6.328" ry="6.321" fill="#00bcf2"/><ellipse cx="300.152" cy="292.551" rx="6.328" ry="6.321" fill="#9080cf"/><ellipse cx="300.269" cy="333.183" rx="6.328" ry="6.321" fill="#ff8c00"/><ellipse cx="300.269" cy="167.946" rx="6.328" ry="6.321" fill="#40c5af"/><ellipse cx="300.269" cy="251.919" rx="6.328" ry="6.321" fill="#adc909"/><path d="M298.014,102.764s-20.051,6.392,2.137,33.579c20.709-26.818,2.3-33.677,2.3-33.677Z" fill="#f57800"/><polygon points="310.095 108.352 290.208 108.352 292.016 102.032 308.288 102.032 310.095 108.352" fill="#231f20"/><path d="M283.952,81.054c-8.826,3.206-13.8,8.418-14.041,20.437-.247,12.07,1.776,18.561,2.094,19.5h1.746c.717-1.954,5.7-14.413,17.156-17.365C300.39,101.184,283.952,81.054,283.952,81.054Z" fill="#adc909"/><path d="M316.165,81.054c8.826,3.206,13.8,8.418,14.041,20.437.247,12.07-1.776,18.561-2.094,19.5h-1.746c-.717-1.954-5.7-14.413-17.156-17.365C299.727,101.184,316.165,81.054,316.165,81.054Z" fill="#adc909"/><path d="M314.559,38.318H285.226c-3.6,7.626-6.36,16.022-6.381,23.631-.057,21.1,10.295,39.965,11.33,41.9h20.456c0-1.054,10.092-20.683,10.149-41.784C320.8,54.427,318.071,45.985,314.559,38.318Z" fill="#65aa0d"/><path d="M300.42,13.845s-10.205,12.2-15.156,24.473H314.6C309.648,26.049,300.42,13.845,300.42,13.845Z" fill="#cbe247"/><path d="M314.559,38.318h-3.582c2.95,7.59,5,15.5,4.979,22.816-.046,17.036-5.446,33.28-9.1,42.712h3.777c0-1.054,10.092-20.682,10.149-41.784C320.8,54.427,318.071,45.985,314.559,38.318Z" fill="#adc909"/><ellipse cx="300.104" cy="56.545" rx="7.884" ry="7.875" fill="#004578"/><path d="M310.89,38.318H314.6c-4.95-12.269-14.179-24.473-14.179-24.473s-.829.993-2.125,2.689A125.413,125.413,0,0,1,310.89,38.318Z" fill="#fff"/><circle cx="257.734" cy="25.054" r="1.681" transform="translate(57.867 189.698) rotate(-45.033)" fill="#69afe5"/><circle cx="264.462" cy="18.333" r="2.243" fill="#2488d8"/><circle cx="229.699" cy="36.255" r="2.243" fill="#69afe5"/><circle cx="165.78" cy="51.936" r="2.243" fill="#2488d8"/><circle cx="344.004" cy="20.588" r="2.242" transform="translate(36.392 175.95) rotate(-30.221)" fill="#2488d8"/><circle cx="354.868" cy="62.894" r="1.68" transform="matrix(0.256, -0.967, 0.967, 0.256, 203.277, 389.86)" fill="#69afe5"/><circle cx="333.013" cy="46.018" r="2.242" transform="translate(22.098 173.874) rotate(-30.221)" fill="#2488d8"/><circle cx="366.004" cy="67.017" r="2.242" transform="translate(16.012 193.334) rotate(-30.221)" fill="#69afe5"/><circle cx="424.374" cy="40.274" r="2.242" transform="translate(37.406 219.079) rotate(-30.221)" fill="#2488d8"/></g><path d="M441.309,321.445H423.251v9.029h18.059Zm-1.806,7.223H425.056v-5.418H439.5Zm1.806,3.612H423.251v9.029h18.059ZM439.5,339.5H425.056v-5.418H439.5Zm-19.865-21.67v28.894h25.282V317.833Zm23.476,27.088h-21.67V319.639h21.67Z" fill="#fff"/><path d="M470.471,241.718a.9.9,0,1,1,1.27-1.27l1.806,1.806a.9.9,0,1,1-1.27,1.27Zm6.955,1.171a.916.916,0,0,0,.9-.9v-2.709a.9.9,0,0,0-1.806,0v2.709a.916.916,0,0,0,.9.9Zm8.014,16.253,1.778,3.555q-1.325.651-2.617,1.305t-2.617,1.305l-1.947-3.894-3.513,3.513V246.12q3.288,3.259,6.511,6.5t6.5,6.518Zm-2.935-1.806h2.681l-6.857-6.857v10.087l2.2-2.2L482.8,262.9l1.989-1ZM481.038,244.7a.865.865,0,0,0,.635-.268l1.806-1.806a.9.9,0,1,0-1.27-1.27l-1.806,1.806a.9.9,0,0,0,.635,1.538Zm-7.223,5.418a.868.868,0,0,0-.635.268l-1.806,1.806a.9.9,0,1,0,1.27,1.27l1.806-1.806a.9.9,0,0,0-.635-1.538Zm-1.171-2.074a.9.9,0,0,0-.635-1.538H469.3a.9.9,0,0,0,0,1.806h2.709A.865.865,0,0,0,472.644,248.039Z" fill="#fff"/><path d="M181.807,205.926a4.624,4.624,0,0,0-2.405-2.405,4.3,4.3,0,0,0-1.749-.36,4.348,4.348,0,0,0-1.756.36,4.629,4.629,0,0,0-1.439.973,4.549,4.549,0,0,0-.966,1.432,4.383,4.383,0,0,0-.353,1.749,4.315,4.315,0,0,0,.261,1.5,4.747,4.747,0,0,0,.72,1.3,4.335,4.335,0,0,0,1.1.995,4.568,4.568,0,0,0,1.4.593,2.688,2.688,0,0,1-.381.783,2.724,2.724,0,0,1-.593.614,2.686,2.686,0,0,1-.748.4,2.614,2.614,0,0,1-.861.141h-5.418a4.348,4.348,0,0,0-1.425.24,4.642,4.642,0,0,0-1.284.691v-8.253a4.315,4.315,0,0,0,1.453-.564,4.494,4.494,0,0,0,1.891-2.314,4.457,4.457,0,0,0,.268-1.538,4.3,4.3,0,0,0-.36-1.749,4.624,4.624,0,0,0-2.405-2.405,4.3,4.3,0,0,0-1.749-.36,4.348,4.348,0,0,0-1.756.36,4.629,4.629,0,0,0-1.439.973,4.549,4.549,0,0,0-.966,1.432,4.383,4.383,0,0,0-.353,1.749,4.507,4.507,0,0,0,1.016,2.857,4.528,4.528,0,0,0,1.143.995,4.315,4.315,0,0,0,1.453.564v11.033a4.371,4.371,0,0,0-1.453.564,4.494,4.494,0,0,0-1.891,2.314,4.548,4.548,0,0,0,.085,3.294,4.5,4.5,0,0,0,2.405,2.405,4.4,4.4,0,0,0,1.756.353,4.35,4.35,0,0,0,1.749-.353,4.549,4.549,0,0,0,1.432-.966,4.629,4.629,0,0,0,.973-1.439,4.443,4.443,0,0,0,.1-3.252,4.634,4.634,0,0,0-.72-1.3,4.564,4.564,0,0,0-2.5-1.594,2.689,2.689,0,0,1,.381-.783,2.692,2.692,0,0,1,1.34-1.009,2.637,2.637,0,0,1,.861-.141h5.418a4.383,4.383,0,0,0,1.552-.275,4.547,4.547,0,0,0,1.326-.769,4.486,4.486,0,0,0,.995-1.171,4.589,4.589,0,0,0,.557-1.481,4.239,4.239,0,0,0,1.481-.55,4.628,4.628,0,0,0,1.171-1,4.536,4.536,0,0,0,.769-1.326,4.38,4.38,0,0,0,.275-1.552A4.3,4.3,0,0,0,181.807,205.926Zm-17.854-1.171a2.695,2.695,0,0,1-1.439-1.439,2.751,2.751,0,0,1,0-2.116,2.695,2.695,0,0,1,1.439-1.439,2.751,2.751,0,0,1,2.116,0,2.695,2.695,0,0,1,1.439,1.439,2.751,2.751,0,0,1,0,2.116,2.695,2.695,0,0,1-1.439,1.439,2.751,2.751,0,0,1-2.116,0Zm2.116,14.87a2.695,2.695,0,0,1,1.439,1.439,2.751,2.751,0,0,1,0,2.116,2.695,2.695,0,0,1-1.439,1.439,2.751,2.751,0,0,1-2.116,0,2.695,2.695,0,0,1-1.439-1.439,2.751,2.751,0,0,1,0-2.116,2.695,2.695,0,0,1,1.439-1.439,2.751,2.751,0,0,1,2.116,0Zm14.08-10.892a2.695,2.695,0,0,1-1.439,1.439,2.751,2.751,0,0,1-2.116,0,2.695,2.695,0,0,1-1.439-1.439,2.751,2.751,0,0,1,0-2.116,2.695,2.695,0,0,1,1.439-1.439,2.751,2.751,0,0,1,2.116,0,2.695,2.695,0,0,1,1.439,1.439,2.751,2.751,0,0,1,0,2.116Z" fill="#fff"/><path d="M430.982,168.849h-9.537v-1.806h10.271Zm9.312,1.806H446.2L433.564,183.3H429.91l3.612-7.223h-3.485l4.345-10.835h9.523Zm-3.386,1.806,3.612-5.418H435.6l-2.878,7.223h3.739l-3.584,7.167,8.959-8.973Zm-15.463,0h8.1l.72-1.806h-8.818Zm-3.612-16.253v19.865H428.1l.72-1.806h-9.185V158.014h25.282v10.835h1.806V156.208Z" fill="#fff"/><path d="M125.282,289.842V277.2H109.029v23.476h5.418v5.418h23.476V289.842Zm-10.835,9.029h-3.612V279.007h12.641v10.835h-9.029Zm21.67,5.418H116.253V291.648h19.865Z" fill="#fff"/></svg>