<svg xmlns="http://www.w3.org/2000/svg" viewBox="0 0 600 400"><title>blog-vscode-metrics</title><rect width="600" height="400" fill="#409ae1"/><rect y="150" width="600" height="250" fill="#5c2d91"/><path d="M139.992,100.329l3.561,3.561L131.646,115.8,119.739,103.89l3.561-3.561,5.815,5.776V79.325h5.063v26.78Zm28.8-25.989a14.925,14.925,0,0,0-2.353-4.312,15.826,15.826,0,0,0-3.6-3.343,15.218,15.218,0,0,0-4.569-2.077,22.258,22.258,0,0,0-3.283-6.349,23.183,23.183,0,0,0-11.215-8.169,21.852,21.852,0,0,0-7.061-1.147,22.3,22.3,0,0,0-5.854.771,22.58,22.58,0,0,0-5.36,2.215,23.253,23.253,0,0,0-4.628,3.5,22.852,22.852,0,0,0-3.659,4.628,17.87,17.87,0,0,0-5.815-.989,17.129,17.129,0,0,0-6.9,1.4,17.865,17.865,0,0,0-9.415,9.415,17.67,17.67,0,0,0,0,13.805,17.866,17.866,0,0,0,9.415,9.415,17.05,17.05,0,0,0,6.9,1.4h12.658V89.451H111.392a12.345,12.345,0,0,1-4.925-.989,12.607,12.607,0,0,1-6.744-6.744,12.758,12.758,0,0,1,0-9.85,12.607,12.607,0,0,1,6.744-6.744,12.431,12.431,0,0,1,4.925-.989,12.113,12.113,0,0,1,4.391.811,13.055,13.055,0,0,1,3.837,2.314,17.438,17.438,0,0,1,2.393-5.34,17.666,17.666,0,0,1,3.9-4.193,18.251,18.251,0,0,1,5-2.729,17.028,17.028,0,0,1,5.795-.989A17.3,17.3,0,0,1,143,55.156a17.486,17.486,0,0,1,5.281,3.184,17.968,17.968,0,0,1,3.857,4.826,17.64,17.64,0,0,1,2.017,6.032,10.7,10.7,0,0,1,7.357,2.888,9.662,9.662,0,0,1,2.235,3.2,10.016,10.016,0,0,1,.811,4.035,9.828,9.828,0,0,1-.791,3.936,10.2,10.2,0,0,1-5.4,5.4,9.818,9.818,0,0,1-3.936.791h-15.19v5.063h15.19a14.8,14.8,0,0,0,5.894-1.187,15.3,15.3,0,0,0,8.109-8.089,14.748,14.748,0,0,0,1.187-5.914A14.974,14.974,0,0,0,168.789,74.341Z" fill="#fff"/><path d="M114.86,301.979a15.265,15.265,0,0,1,5.815-1.147V305.9a9.666,9.666,0,0,0-3.936.811,10.254,10.254,0,0,0-5.38,5.4,9.725,9.725,0,0,0-.811,3.916q0,2.218.079,4.371t.02,4.233a30.479,30.479,0,0,1-.376,4.035A16.4,16.4,0,0,1,109.2,332.4a14.22,14.22,0,0,1-2.057,3.4,15.027,15.027,0,0,1-3.362,3.006,15.148,15.148,0,0,1,3.362,3.006,14.268,14.268,0,0,1,2.057,3.4,16.4,16.4,0,0,1,1.068,3.738,30.476,30.476,0,0,1,.376,4.035c.039,1.384.035,2.8-.02,4.232s-.079,2.9-.079,4.371a9.662,9.662,0,0,0,.811,3.936,10.3,10.3,0,0,0,5.38,5.38,9.579,9.579,0,0,0,3.936.811v5.063a15.215,15.215,0,0,1-5.815-1.147,14.808,14.808,0,0,1-4.945-3.283,13.457,13.457,0,0,1-3.105-4.628,20.336,20.336,0,0,1-1.266-5.162,35.835,35.835,0,0,1-.178-5.478q.118-2.8.119-5.617a9.725,9.725,0,0,0-.811-3.916,10.2,10.2,0,0,0-5.4-5.4,9.728,9.728,0,0,0-3.916-.811v-5.063a9.687,9.687,0,0,0,3.916-.811,10.254,10.254,0,0,0,5.4-5.38,9.664,9.664,0,0,0,.811-3.936q0-2.807-.119-5.617a35.847,35.847,0,0,1,.178-5.479,20.341,20.341,0,0,1,1.266-5.162,13.462,13.462,0,0,1,3.105-4.628A14.887,14.887,0,0,1,114.86,301.979Zm47.449,33.485a10.308,10.308,0,0,1-5.38-5.38,9.664,9.664,0,0,1-.811-3.936q0-2.807.118-5.617a35.847,35.847,0,0,0-.178-5.479,20.341,20.341,0,0,0-1.266-5.162,13.455,13.455,0,0,0-3.105-4.628,14.882,14.882,0,0,0-4.945-3.283,15.265,15.265,0,0,0-5.815-1.147V305.9a9.728,9.728,0,0,1,3.916.811,10.2,10.2,0,0,1,5.4,5.4,9.725,9.725,0,0,1,.811,3.916q0,2.218-.079,4.371t-.02,4.233a30.479,30.479,0,0,0,.376,4.035A16.407,16.407,0,0,0,152.4,332.4a14.222,14.222,0,0,0,2.057,3.4,15.038,15.038,0,0,0,3.362,3.006,15.16,15.16,0,0,0-3.362,3.006,14.27,14.27,0,0,0-2.057,3.4,16.406,16.406,0,0,0-1.068,3.738,30.476,30.476,0,0,0-.376,4.035c-.039,1.384-.035,2.8.02,4.232s.079,2.9.079,4.371a9.662,9.662,0,0,1-.811,3.936,10.25,10.25,0,0,1-5.4,5.38,9.64,9.64,0,0,1-3.916.811v5.063a15.215,15.215,0,0,0,5.815-1.147,14.8,14.8,0,0,0,4.945-3.283,13.45,13.45,0,0,0,3.105-4.628,20.336,20.336,0,0,0,1.266-5.162,35.835,35.835,0,0,0,.178-5.478q-.118-2.8-.118-5.617a9.725,9.725,0,0,1,.811-3.916,10.254,10.254,0,0,1,5.38-5.4,9.666,9.666,0,0,1,3.936-.811v-5.063A9.625,9.625,0,0,1,162.309,335.464Z" fill="#8867c8"/><path d="M335.957,364.464a12.6,12.6,0,0,0-5.3-6.487,12.879,12.879,0,0,0-4.074-1.622V323.207a12.055,12.055,0,0,0-1.009-4.905,12.966,12.966,0,0,0-6.744-6.744,12.047,12.047,0,0,0-4.905-1.009h-6.567l6.448-6.448-3.561-3.56-12.579,12.54,12.579,12.54,3.561-3.56-6.448-6.448h6.567a7.461,7.461,0,0,1,2.967.593,7.554,7.554,0,0,1,4.035,4.035,7.465,7.465,0,0,1,.593,2.967v33.149a12.854,12.854,0,0,0-7.279,4.411,12.69,12.69,0,0,0-2.1,3.7,12.754,12.754,0,0,0,.237,9.237,12.609,12.609,0,0,0,6.744,6.744,12.351,12.351,0,0,0,4.925.989,12.2,12.2,0,0,0,4.905-.989,12.753,12.753,0,0,0,4.015-2.71,12.975,12.975,0,0,0,2.73-4.034,12.192,12.192,0,0,0,1.009-4.925A12.522,12.522,0,0,0,335.957,364.464Zm-5.4,6.806a7.6,7.6,0,0,1-14,0,7.712,7.712,0,0,1,0-5.933,7.553,7.553,0,0,1,4.035-4.035,7.712,7.712,0,0,1,5.933,0,7.553,7.553,0,0,1,4.035,4.035,7.712,7.712,0,0,1,0,5.933Zm-45.467-47.864a12.6,12.6,0,0,0,5.3-6.487,12.5,12.5,0,0,0,.751-4.312,12.055,12.055,0,0,0-1.009-4.905,12.966,12.966,0,0,0-6.744-6.744,12.047,12.047,0,0,0-4.905-1.009,12.193,12.193,0,0,0-4.925,1.009,12.98,12.98,0,0,0-4.034,2.729,12.754,12.754,0,0,0-2.71,4.015,12.288,12.288,0,0,0-.989,4.905,12.632,12.632,0,0,0,2.848,8.01,12.855,12.855,0,0,0,7.279,4.411v30.855a12.854,12.854,0,0,0-7.279,4.411,12.69,12.69,0,0,0-2.1,3.7,12.754,12.754,0,0,0,.237,9.237,12.609,12.609,0,0,0,6.744,6.744,12.351,12.351,0,0,0,4.925.989,12.2,12.2,0,0,0,4.905-.989,12.753,12.753,0,0,0,4.015-2.71,12.975,12.975,0,0,0,2.73-4.034,12.192,12.192,0,0,0,1.009-4.925,12.522,12.522,0,0,0-.751-4.312,12.6,12.6,0,0,0-5.3-6.487,12.879,12.879,0,0,0-4.074-1.622V325.029A12.765,12.765,0,0,0,285.087,323.407Zm-4.138,37.9a7.553,7.553,0,0,1,4.035,4.035,7.622,7.622,0,0,1-1.622,8.346,7.588,7.588,0,0,1-2.413,1.622,7.712,7.712,0,0,1-5.933,0,7.553,7.553,0,0,1-4.035-4.035,7.712,7.712,0,0,1,0-5.933,7.553,7.553,0,0,1,4.035-4.035,7.712,7.712,0,0,1,5.933,0Zm-2.967-41.1a7.461,7.461,0,0,1-2.967-.593,7.554,7.554,0,0,1-4.035-4.035,7.713,7.713,0,0,1,0-5.934,7.554,7.554,0,0,1,4.035-4.035,7.713,7.713,0,0,1,5.933,0,7.554,7.554,0,0,1,4.035,4.035,7.713,7.713,0,0,1,0,5.934,7.554,7.554,0,0,1-4.035,4.035A7.461,7.461,0,0,1,277.983,320.2Z" fill="#8867c8"/><path d="M475.105,302.11v30.38h30.38V302.11Zm25.316,25.316H480.169V307.173h20.253Zm-35.443-15.19H429.536v65.823h65.823V342.616h-30.38ZM459.916,373H434.6V347.679h25.316Zm0-30.38H434.6V317.3h25.316Zm30.38,5.063V373H464.979V347.679Z" fill="#8867c8"/><path d="M222.6,60.006a6.117,6.117,0,0,0-.422-2.37,4.589,4.589,0,0,0-2.874-2.678,6.737,6.737,0,0,0-2.143-.33,7.082,7.082,0,0,0-1.937.268,9.4,9.4,0,0,0-1.844.742,11.331,11.331,0,0,0-1.73,1.133,12.492,12.492,0,0,0-1.556,1.463V54.608a10.112,10.112,0,0,1,3.183-2.112,11.213,11.213,0,0,1,4.3-.731,10.377,10.377,0,0,1,3.358.525,7.7,7.7,0,0,1,2.678,1.535,7.1,7.1,0,0,1,1.782,2.493,8.408,8.408,0,0,1,.649,3.4,11.648,11.648,0,0,1-.4,3.173,9.8,9.8,0,0,1-1.215,2.678,12.949,12.949,0,0,1-2.05,2.411,29.01,29.01,0,0,1-2.905,2.349q-2.081,1.483-3.43,2.534a15.127,15.127,0,0,0-2.143,1.967,5.712,5.712,0,0,0-1.113,1.834,6.408,6.408,0,0,0-.319,2.111h14.71V81.8H208.938V80.34A12.182,12.182,0,0,1,209.35,77a8.66,8.66,0,0,1,1.36-2.74,15.18,15.18,0,0,1,2.482-2.6q1.534-1.3,3.76-2.926a23.746,23.746,0,0,0,2.688-2.2,11.437,11.437,0,0,0,1.741-2.1,7.548,7.548,0,0,0,.938-2.132A9.185,9.185,0,0,0,222.6,60.006Z" fill="#fff"/><path d="M273.809,81.8h-3.44V61.983q0-2.348.289-5.748h-.083a18.373,18.373,0,0,1-.886,2.864l-10.1,22.7H257.9L247.829,59.264a17.659,17.659,0,0,1-.886-3.029h-.083q.165,1.772.165,5.79V81.8h-3.338V52.259h4.574l9.065,20.6a26.372,26.372,0,0,1,1.36,3.543h.124q.885-2.431,1.421-3.626l9.25-20.52h4.327Z" fill="#fff"/><path d="M282.263,55.35a2.14,2.14,0,0,1-1.545-.618,2.086,2.086,0,0,1-.639-1.566,2.164,2.164,0,0,1,2.184-2.2,2.183,2.183,0,0,1,1.576.628,2.2,2.2,0,0,1,0,3.122A2.163,2.163,0,0,1,282.263,55.35ZM283.911,81.8h-3.379v-21.1h3.379Z" fill="#fff"/><path d="M293.539,81.8H290.16V50.57h3.379Z" fill="#fff"/><path d="M303.167,81.8h-3.379V50.57h3.379Z" fill="#fff"/><path d="M311.147,55.35a2.14,2.14,0,0,1-1.545-.618,2.086,2.086,0,0,1-.639-1.566,2.164,2.164,0,0,1,2.184-2.2,2.183,2.183,0,0,1,1.576.628,2.2,2.2,0,0,1,0,3.122A2.163,2.163,0,0,1,311.147,55.35ZM312.795,81.8h-3.379v-21.1h3.379Z" fill="#fff"/><path d="M327.862,82.3a9.784,9.784,0,0,1-7.468-2.957A10.949,10.949,0,0,1,317.6,71.5q0-5.315,2.9-8.3a10.443,10.443,0,0,1,7.85-2.987,9.463,9.463,0,0,1,7.365,2.9q2.648,2.9,2.647,8.056a11.333,11.333,0,0,1-2.854,8.086A10,10,0,0,1,327.862,82.3Zm.248-19.243a6.428,6.428,0,0,0-5.151,2.215,9.1,9.1,0,0,0-1.9,6.109,8.6,8.6,0,0,0,1.916,5.913,6.511,6.511,0,0,0,5.13,2.164,6.177,6.177,0,0,0,5.037-2.122,9.208,9.208,0,0,0,1.762-6.037,9.366,9.366,0,0,0-1.762-6.1A6.149,6.149,0,0,0,328.11,63.055Z" fill="#fff"/><path d="M360.689,81.8H357.31V69.771q0-6.716-4.9-6.717a5.319,5.319,0,0,0-4.192,1.906,7.064,7.064,0,0,0-1.659,4.811V81.8h-3.379v-21.1h3.379v3.5h.083a7.614,7.614,0,0,1,6.922-4,6.455,6.455,0,0,1,5.295,2.235q1.833,2.235,1.833,6.458Z" fill="#fff"/><path d="M381.346,81.8h-3.461V52.259h3.461Z" fill="#fff"/><path d="M405.582,81.8H402.2V69.771q0-6.716-4.9-6.717a5.319,5.319,0,0,0-4.192,1.906,7.064,7.064,0,0,0-1.659,4.811V81.8h-3.379v-21.1h3.379v3.5h.083a7.614,7.614,0,0,1,6.922-4,6.455,6.455,0,0,1,5.295,2.235q1.833,2.235,1.833,6.458Z" fill="#fff"/><path d="M410.08,81.041V77.415a10,10,0,0,0,6.078,2.04q4.45,0,4.45-2.967a2.577,2.577,0,0,0-.381-1.432,3.808,3.808,0,0,0-1.03-1.04,7.923,7.923,0,0,0-1.524-.814q-.876-.36-1.885-.752a24.239,24.239,0,0,1-2.462-1.123,7.426,7.426,0,0,1-1.772-1.277,4.75,4.75,0,0,1-1.071-1.617,5.713,5.713,0,0,1-.36-2.122,5.043,5.043,0,0,1,.68-2.627,6.03,6.03,0,0,1,1.813-1.916A8.458,8.458,0,0,1,415.2,60.6a11.483,11.483,0,0,1,3-.391,12.106,12.106,0,0,1,4.9.948v3.42a9.556,9.556,0,0,0-5.357-1.525,6.268,6.268,0,0,0-1.71.216,4.194,4.194,0,0,0-1.308.608,2.805,2.805,0,0,0-.845.938,2.469,2.469,0,0,0-.3,1.205,2.888,2.888,0,0,0,.3,1.38,3.031,3.031,0,0,0,.875.989,6.7,6.7,0,0,0,1.4.783q.824.351,1.875.762a26.108,26.108,0,0,1,2.514,1.1,8.632,8.632,0,0,1,1.9,1.277,5,5,0,0,1,1.205,1.638,5.288,5.288,0,0,1,.422,2.2,5.193,5.193,0,0,1-.69,2.719,5.907,5.907,0,0,1-1.844,1.916,8.445,8.445,0,0,1-2.658,1.133,13.135,13.135,0,0,1-3.152.371A11.974,11.974,0,0,1,410.08,81.041Z" fill="#fff"/><path d="M438.456,81.6a6.514,6.514,0,0,1-3.152.659q-5.543,0-5.542-6.181V63.59h-3.626V60.706h3.626v-5.15l3.378-1.092v6.243h5.315V63.59h-5.315V75.478a4.927,4.927,0,0,0,.721,3.029,2.877,2.877,0,0,0,2.39.906,3.549,3.549,0,0,0,2.2-.7Z" fill="#fff"/><path d="M457.479,81.8H454.1v-3.3h-.083a7.074,7.074,0,0,1-6.49,3.791,6.937,6.937,0,0,1-4.935-1.669,5.782,5.782,0,0,1-1.782-4.43q0-5.913,6.964-6.881l6.325-.886q0-5.377-4.347-5.377a10.386,10.386,0,0,0-6.881,2.6V62.189a13.074,13.074,0,0,1,7.169-1.978q7.438,0,7.438,7.87ZM454.1,71.131l-5.089.7A8.263,8.263,0,0,0,445.468,73a3.358,3.358,0,0,0-1.195,2.957,3.22,3.22,0,0,0,1.1,2.524,4.26,4.26,0,0,0,2.936.979,5.423,5.423,0,0,0,4.151-1.762,6.291,6.291,0,0,0,1.638-4.46Z" fill="#fff"/><path d="M466.633,81.8h-3.379V50.57h3.379Z" fill="#fff"/><path d="M476.262,81.8h-3.379V50.57h3.379Z" fill="#fff"/><path d="M481.233,81.041V77.415a10,10,0,0,0,6.078,2.04q4.45,0,4.45-2.967a2.577,2.577,0,0,0-.381-1.432,3.808,3.808,0,0,0-1.03-1.04,7.923,7.923,0,0,0-1.524-.814q-.876-.36-1.885-.752a24.239,24.239,0,0,1-2.462-1.123,7.426,7.426,0,0,1-1.772-1.277,4.75,4.75,0,0,1-1.071-1.617,5.713,5.713,0,0,1-.36-2.122,5.043,5.043,0,0,1,.68-2.627,6.03,6.03,0,0,1,1.813-1.916,8.458,8.458,0,0,1,2.585-1.164,11.483,11.483,0,0,1,3-.391,12.106,12.106,0,0,1,4.9.948v3.42a9.556,9.556,0,0,0-5.357-1.525,6.268,6.268,0,0,0-1.71.216,4.194,4.194,0,0,0-1.308.608,2.805,2.805,0,0,0-.845.938,2.469,2.469,0,0,0-.3,1.205,2.888,2.888,0,0,0,.3,1.38,3.031,3.031,0,0,0,.875.989,6.7,6.7,0,0,0,1.4.783q.824.351,1.875.762a26.108,26.108,0,0,1,2.514,1.1,8.632,8.632,0,0,1,1.9,1.277,5,5,0,0,1,1.205,1.638,5.288,5.288,0,0,1,.422,2.2,5.193,5.193,0,0,1-.69,2.719,5.907,5.907,0,0,1-1.844,1.916,8.445,8.445,0,0,1-2.658,1.133,13.135,13.135,0,0,1-3.152.371A11.974,11.974,0,0,1,481.233,81.041Z" fill="#fff"/><path d="M208.191,113.825a5.712,5.712,0,0,0,.883.574,7.588,7.588,0,0,0,.98.434,6.149,6.149,0,0,0,1.016.273,5.527,5.527,0,0,0,.974.091q3.195,0,3.194-2.4a1.9,1.9,0,0,0-.224-.946,2.47,2.47,0,0,0-.645-.729,5.408,5.408,0,0,0-1.009-.609q-.588-.28-1.331-.588a13.285,13.285,0,0,1-1.709-.827,5.165,5.165,0,0,1-1.177-.917,3.312,3.312,0,0,1-.687-1.093,3.819,3.819,0,0,1-.224-1.352,3.423,3.423,0,0,1,.414-1.695,3.933,3.933,0,0,1,1.114-1.261,5.179,5.179,0,0,1,1.618-.792,6.717,6.717,0,0,1,1.927-.273,7.126,7.126,0,0,1,3.25.7v1.892a6.3,6.3,0,0,0-3.474-1.037,4.2,4.2,0,0,0-1.226.168,2.86,2.86,0,0,0-.946.476,2.2,2.2,0,0,0-.609.736,2.053,2.053,0,0,0-.217.945,2.381,2.381,0,0,0,.168.932,2.025,2.025,0,0,0,.525.722,4.41,4.41,0,0,0,.924.617q.568.294,1.38.63a17.5,17.5,0,0,1,1.793.833,5.565,5.565,0,0,1,1.247.9,3.164,3.164,0,0,1,.729,1.079,3.7,3.7,0,0,1,.238,1.38,3.637,3.637,0,0,1-.4,1.723,3.714,3.714,0,0,1-1.107,1.275,5.094,5.094,0,0,1-1.66.784,7.672,7.672,0,0,1-2.073.267,6.874,6.874,0,0,1-3.657-.911Z" fill="#fff"/><path d="M221.543,98.428a1.249,1.249,0,0,1-.9-.364,1.228,1.228,0,0,1-.378-.924,1.191,1.191,0,0,1,.378-.9,1.263,1.263,0,0,1,.9-.357,1.406,1.406,0,0,1,.5.091,1.211,1.211,0,0,1,.413.259,1.287,1.287,0,0,1,.28.4,1.226,1.226,0,0,1,.1.512,1.309,1.309,0,0,1-.1.5,1.2,1.2,0,0,1-.28.414,1.34,1.34,0,0,1-.413.273A1.3,1.3,0,0,1,221.543,98.428ZM220.66,116.4V102.056h1.793V116.4Z" fill="#fff"/><path d="M236.757,116.4v-8.266q0-4.862-3.53-4.861a4.068,4.068,0,0,0-1.737.371,4.165,4.165,0,0,0-1.38,1.03,4.821,4.821,0,0,0-.911,1.562,5.661,5.661,0,0,0-.329,1.954v8.21h-1.793V102.056h1.793v2.494h.056a5.182,5.182,0,0,1,4.805-2.83,4.34,4.34,0,0,1,3.586,1.527,6.882,6.882,0,0,1,1.233,4.413V116.4Z" fill="#fff"/><path d="M252.406,115.758a7.515,7.515,0,0,1-3.867.995,6.625,6.625,0,0,1-2.774-.532,6.07,6.07,0,0,1-2.1-1.52,6.739,6.739,0,0,1-1.331-2.3,8.678,8.678,0,0,1-.462-2.879,9.237,9.237,0,0,1,.49-3.033,7.252,7.252,0,0,1,1.429-2.479,6.765,6.765,0,0,1,2.3-1.674,7.459,7.459,0,0,1,3.11-.616,7.592,7.592,0,0,1,3.25.687v1.905a6.031,6.031,0,0,0-3.39-1.037,5.134,5.134,0,0,0-2.27.483,4.888,4.888,0,0,0-1.674,1.317,5.894,5.894,0,0,0-1.037,1.947,7.677,7.677,0,0,0-.357,2.36,7.949,7.949,0,0,0,.3,2.2,5.454,5.454,0,0,0,.925,1.856,4.508,4.508,0,0,0,1.576,1.282,4.956,4.956,0,0,0,2.242.476,5.966,5.966,0,0,0,3.642-1.2Z" fill="#fff"/><path d="M256.707,109.552a8.036,8.036,0,0,0,.351,2.368,5.02,5.02,0,0,0,.966,1.779,4.148,4.148,0,0,0,1.534,1.114,5.144,5.144,0,0,0,2.039.385,7.3,7.3,0,0,0,4.581-1.695v1.765a8.357,8.357,0,0,1-4.987,1.471,6.591,6.591,0,0,1-2.62-.5,5.436,5.436,0,0,1-2-1.464,6.692,6.692,0,0,1-1.275-2.36,10.473,10.473,0,0,1-.448-3.194,8.8,8.8,0,0,1,.491-2.984,7.347,7.347,0,0,1,1.359-2.375,6.265,6.265,0,0,1,2.059-1.569,5.978,5.978,0,0,1,2.606-.567,5.874,5.874,0,0,1,2.452.483,4.811,4.811,0,0,1,1.786,1.38,6.252,6.252,0,0,1,1.1,2.186,10.246,10.246,0,0,1,.378,2.886v.9Zm8.518-1.569a5.464,5.464,0,0,0-1.064-3.474,3.494,3.494,0,0,0-2.844-1.233,4.362,4.362,0,0,0-1.688.322,4.014,4.014,0,0,0-1.366.932,5.032,5.032,0,0,0-.974,1.485,7.468,7.468,0,0,0-.54,1.968Z" fill="#fff"/><path d="M280.608,108.585V116.4h-1.863V96.313h5.184a9.154,9.154,0,0,1,2.8.392,5.708,5.708,0,0,1,2.06,1.135,4.765,4.765,0,0,1,1.275,1.821,6.57,6.57,0,0,1,.434,2.466,6.7,6.7,0,0,1-.49,2.585,5.846,5.846,0,0,1-1.408,2.045,6.488,6.488,0,0,1-2.235,1.345,8.619,8.619,0,0,1-2.984.483Zm0-10.563v8.854h2.662a5.723,5.723,0,0,0,3.937-1.2,4.334,4.334,0,0,0,1.345-3.4q0-4.245-4.959-4.245Z" fill="#fff"/><path d="M303.668,116.4v-2.437h-.056a4.793,4.793,0,0,1-4.525,2.774q-5.114,0-5.114-6.249v-8.434h1.793v8.1a6.4,6.4,0,0,0,.917,3.811,3.273,3.273,0,0,0,2.809,1.232,3.933,3.933,0,0,0,1.688-.357,3.861,3.861,0,0,0,1.317-1.009,4.726,4.726,0,0,0,.862-1.562,6.275,6.275,0,0,0,.308-2.018v-8.2h1.793V116.4Z" fill="#fff"/><path d="M311.878,114.091V116.4h-1.793V95.164h1.793V104.8h.056a5.7,5.7,0,0,1,2.136-2.291,6.231,6.231,0,0,1,5.478-.294,5.027,5.027,0,0,1,1.835,1.422,6.533,6.533,0,0,1,1.149,2.228,9.874,9.874,0,0,1,.4,2.9,10.882,10.882,0,0,1-.456,3.243,7.579,7.579,0,0,1-1.3,2.515,5.853,5.853,0,0,1-2.038,1.632,6.072,6.072,0,0,1-2.683.582,4.859,4.859,0,0,1-4.525-2.648Zm0-3.657a5.111,5.111,0,0,0,.329,1.842,4.775,4.775,0,0,0,.917,1.513,4.274,4.274,0,0,0,1.422,1.03,4.407,4.407,0,0,0,1.842.378,4.129,4.129,0,0,0,1.947-.455,4.246,4.246,0,0,0,1.478-1.3,6.283,6.283,0,0,0,.938-2.031,10,10,0,0,0,.329-2.662,7.825,7.825,0,0,0-.308-2.276,5.159,5.159,0,0,0-.875-1.73,3.8,3.8,0,0,0-1.373-1.093,4.188,4.188,0,0,0-1.8-.378,4.764,4.764,0,0,0-2.017.413,4.543,4.543,0,0,0-1.527,1.128,4.992,4.992,0,0,0-.967,1.674,6.123,6.123,0,0,0-.336,2.039Z" fill="#fff"/><path d="M326.546,116.4V95.164h1.793V116.4Z" fill="#fff"/><path d="M333.845,98.428a1.249,1.249,0,0,1-.9-.364,1.228,1.228,0,0,1-.378-.924,1.191,1.191,0,0,1,.378-.9,1.263,1.263,0,0,1,.9-.357,1.406,1.406,0,0,1,.5.091,1.211,1.211,0,0,1,.413.259,1.287,1.287,0,0,1,.28.4,1.226,1.226,0,0,1,.1.512,1.309,1.309,0,0,1-.1.5,1.2,1.2,0,0,1-.28.414,1.34,1.34,0,0,1-.413.273A1.3,1.3,0,0,1,333.845,98.428Zm-.883,17.975V102.056h1.793V116.4Z" fill="#fff"/><path d="M348.919,115.758a7.515,7.515,0,0,1-3.867.995,6.625,6.625,0,0,1-2.774-.532,6.07,6.07,0,0,1-2.1-1.52,6.739,6.739,0,0,1-1.331-2.3,8.678,8.678,0,0,1-.462-2.879,9.237,9.237,0,0,1,.49-3.033,7.252,7.252,0,0,1,1.429-2.479,6.765,6.765,0,0,1,2.3-1.674,7.459,7.459,0,0,1,3.11-.616,7.592,7.592,0,0,1,3.25.687v1.905a6.031,6.031,0,0,0-3.39-1.037,5.134,5.134,0,0,0-2.27.483,4.888,4.888,0,0,0-1.674,1.317,5.894,5.894,0,0,0-1.037,1.947,7.677,7.677,0,0,0-.357,2.36,7.949,7.949,0,0,0,.3,2.2,5.454,5.454,0,0,0,.925,1.856,4.508,4.508,0,0,0,1.576,1.282,4.956,4.956,0,0,0,2.242.476,5.966,5.966,0,0,0,3.642-1.2Z" fill="#fff"/><path d="M362.383,108.585V116.4H360.52V96.313H365.7a9.154,9.154,0,0,1,2.8.392,5.708,5.708,0,0,1,2.06,1.135,4.765,4.765,0,0,1,1.275,1.821,6.57,6.57,0,0,1,.434,2.466,6.7,6.7,0,0,1-.49,2.585,5.845,5.845,0,0,1-1.408,2.045,6.488,6.488,0,0,1-2.235,1.345,8.619,8.619,0,0,1-2.984.483Zm0-10.563v8.854h2.662a5.723,5.723,0,0,0,3.937-1.2,4.334,4.334,0,0,0,1.345-3.4q0-4.245-4.959-4.245Z" fill="#fff"/><path d="M383.173,103.892a2.682,2.682,0,0,0-1.625-.462,2.784,2.784,0,0,0-1.261.273,3.191,3.191,0,0,0-.959.735,4.415,4.415,0,0,0-.7,1.072,7.476,7.476,0,0,0-.462,1.268,9.273,9.273,0,0,0-.252,1.331,11.247,11.247,0,0,0-.077,1.275V116.4h-1.779V102.056h1.779v3.068h.056a6.386,6.386,0,0,1,.637-1.408,4.391,4.391,0,0,1,.89-1.05,3.723,3.723,0,0,1,1.1-.652,3.537,3.537,0,0,1,1.254-.224,4.891,4.891,0,0,1,.777.056,2.986,2.986,0,0,1,.624.168Z" fill="#fff"/><path d="M386.255,109.552a8.036,8.036,0,0,0,.351,2.368,5.02,5.02,0,0,0,.966,1.779,4.148,4.148,0,0,0,1.534,1.114,5.144,5.144,0,0,0,2.039.385,7.3,7.3,0,0,0,4.581-1.695v1.765a8.357,8.357,0,0,1-4.987,1.471,6.591,6.591,0,0,1-2.62-.5,5.436,5.436,0,0,1-2-1.464,6.692,6.692,0,0,1-1.275-2.36,10.473,10.473,0,0,1-.448-3.194,8.8,8.8,0,0,1,.491-2.984,7.347,7.347,0,0,1,1.359-2.375,6.265,6.265,0,0,1,2.059-1.569,5.978,5.978,0,0,1,2.606-.567,5.874,5.874,0,0,1,2.452.483,4.811,4.811,0,0,1,1.786,1.38,6.252,6.252,0,0,1,1.1,2.186,10.246,10.246,0,0,1,.378,2.886v.9Zm8.518-1.569a5.464,5.464,0,0,0-1.064-3.474,3.494,3.494,0,0,0-2.844-1.233,4.362,4.362,0,0,0-1.688.322,4.014,4.014,0,0,0-1.366.932,5.032,5.032,0,0,0-.974,1.485,7.468,7.468,0,0,0-.54,1.968Z" fill="#fff"/><path d="M405.253,116.4h-1.709l-5.492-14.346h1.976l3.964,10.928a8.3,8.3,0,0,1,.462,1.751h.056a8.7,8.7,0,0,1,.435-1.7l4.1-10.984h1.919Z" fill="#fff"/><path d="M414.387,98.428a1.249,1.249,0,0,1-.9-.364,1.228,1.228,0,0,1-.378-.924,1.191,1.191,0,0,1,.378-.9,1.263,1.263,0,0,1,.9-.357,1.406,1.406,0,0,1,.5.091,1.211,1.211,0,0,1,.413.259,1.287,1.287,0,0,1,.28.4,1.226,1.226,0,0,1,.1.512,1.309,1.309,0,0,1-.1.5,1.2,1.2,0,0,1-.28.414,1.34,1.34,0,0,1-.413.273A1.3,1.3,0,0,1,414.387,98.428ZM413.5,116.4V102.056H415.3V116.4Z" fill="#fff"/><path d="M420.775,109.552a8.036,8.036,0,0,0,.351,2.368,5.02,5.02,0,0,0,.966,1.779,4.148,4.148,0,0,0,1.534,1.114,5.144,5.144,0,0,0,2.039.385,7.3,7.3,0,0,0,4.581-1.695v1.765a8.357,8.357,0,0,1-4.987,1.471,6.591,6.591,0,0,1-2.62-.5,5.436,5.436,0,0,1-2-1.464,6.692,6.692,0,0,1-1.275-2.36,10.473,10.473,0,0,1-.448-3.194,8.8,8.8,0,0,1,.491-2.984,7.347,7.347,0,0,1,1.359-2.375,6.265,6.265,0,0,1,2.059-1.569,5.978,5.978,0,0,1,2.606-.567,5.874,5.874,0,0,1,2.452.483,4.811,4.811,0,0,1,1.786,1.38,6.252,6.252,0,0,1,1.1,2.186,10.245,10.245,0,0,1,.378,2.886v.9Zm8.518-1.569a5.464,5.464,0,0,0-1.064-3.474,3.494,3.494,0,0,0-2.844-1.233,4.362,4.362,0,0,0-1.688.322,4.014,4.014,0,0,0-1.366.932,5.032,5.032,0,0,0-.974,1.485,7.468,7.468,0,0,0-.54,1.968Z" fill="#fff"/><path d="M447.618,116.4h-1.793l-3.04-10.535a7.79,7.79,0,0,1-.225-1.275H442.5q-.029.21-.091.518a6.461,6.461,0,0,1-.2.729L438.862,116.4h-1.751l-4.343-14.346h1.919l3.152,11.124a6.389,6.389,0,0,1,.2,1.247h.112q.029-.252.091-.574a6.645,6.645,0,0,1,.175-.687l3.474-11.11h1.485l3.11,11.138a8.762,8.762,0,0,1,.21,1.247h.112a2.031,2.031,0,0,1,.056-.553q.07-.316.182-.693l3.152-11.138H452Z" fill="#fff"/><path d="M163.543,178.006h-1.523v-13h1.523Z" fill="#fff"/><path d="M174.467,178.006H172.98v-5.294q0-2.955-2.158-2.956a2.34,2.34,0,0,0-1.845.839,3.109,3.109,0,0,0-.729,2.117v5.294h-1.487v-9.283h1.487v1.541h.036a3.35,3.35,0,0,1,3.046-1.759,2.84,2.84,0,0,1,2.33.984,4.38,4.38,0,0,1,.807,2.842Z" fill="#fff"/><path d="M190.114,173.881a4.824,4.824,0,0,1-.308,1.75,4.205,4.205,0,0,1-.853,1.378,3.8,3.8,0,0,1-1.3.9,4.111,4.111,0,0,1-1.632.322,3.6,3.6,0,0,1-3.069-1.582,5.632,5.632,0,0,1-.82-1.872,10.159,10.159,0,0,1-.281-2.493,11.711,11.711,0,0,1,.376-3.078,7.48,7.48,0,0,1,1.07-2.366,4.933,4.933,0,0,1,1.672-1.519,4.483,4.483,0,0,1,2.185-.535,5.258,5.258,0,0,1,2.157.372v1.4a4.585,4.585,0,0,0-2.121-.517,3.163,3.163,0,0,0-1.568.39,3.6,3.6,0,0,0-1.2,1.1,5.373,5.373,0,0,0-.766,1.718,8.7,8.7,0,0,0-.268,2.239h.036a3.122,3.122,0,0,1,2.964-1.623,3.9,3.9,0,0,1,1.537.29,3.318,3.318,0,0,1,1.169.82,3.693,3.693,0,0,1,.748,1.265A4.813,4.813,0,0,1,190.114,173.881Zm-1.523.19a4.049,4.049,0,0,0-.172-1.224,2.654,2.654,0,0,0-.494-.924,2.133,2.133,0,0,0-.793-.585,2.675,2.675,0,0,0-1.07-.2,2.51,2.51,0,0,0-1.024.208,2.561,2.561,0,0,0-.816.567,2.654,2.654,0,0,0-.734,1.845,4.029,4.029,0,0,0,.19,1.255,3.24,3.24,0,0,0,.535,1.02,2.538,2.538,0,0,0,.82.684,2.238,2.238,0,0,0,1.056.25,2.419,2.419,0,0,0,1.024-.213,2.294,2.294,0,0,0,.789-.594,2.759,2.759,0,0,0,.508-.911A3.617,3.617,0,0,0,188.591,174.072Z" fill="#fff"/><path d="M210.628,178.006h-1.487v-5.33a4.027,4.027,0,0,0-.476-2.23,1.806,1.806,0,0,0-1.6-.689,1.982,1.982,0,0,0-1.618.871,3.328,3.328,0,0,0-.667,2.085v5.294h-1.486v-5.512q0-2.738-2.112-2.738a1.957,1.957,0,0,0-1.614.821,3.392,3.392,0,0,0-.634,2.135v5.294h-1.487v-9.283h1.487v1.469h.036a3.154,3.154,0,0,1,2.883-1.687,2.683,2.683,0,0,1,2.629,1.922,3.313,3.313,0,0,1,3.082-1.922q3.064,0,3.064,3.78Z" fill="#fff"/><path d="M217.318,178.224a4.3,4.3,0,0,1-3.286-1.3,4.817,4.817,0,0,1-1.229-3.449,5.021,5.021,0,0,1,1.278-3.653,4.6,4.6,0,0,1,3.454-1.314,4.165,4.165,0,0,1,3.241,1.278,5.069,5.069,0,0,1,1.165,3.544,4.986,4.986,0,0,1-1.255,3.558A4.4,4.4,0,0,1,217.318,178.224Zm.109-8.467a2.829,2.829,0,0,0-2.267.975,4,4,0,0,0-.834,2.688,3.784,3.784,0,0,0,.843,2.6,2.865,2.865,0,0,0,2.257.952,2.717,2.717,0,0,0,2.216-.934,4.051,4.051,0,0,0,.775-2.656,4.123,4.123,0,0,0-.775-2.684A2.706,2.706,0,0,0,217.427,169.756Z" fill="#fff"/><path d="M232.021,178.006h-1.486v-5.294q0-2.955-2.158-2.956a2.34,2.34,0,0,0-1.845.839,3.109,3.109,0,0,0-.729,2.117v5.294h-1.487v-9.283H225.8v1.541h.036a3.35,3.35,0,0,1,3.046-1.759,2.84,2.84,0,0,1,2.33.984,4.38,4.38,0,0,1,.807,2.842Z" fill="#fff"/><path d="M239.128,177.915a2.866,2.866,0,0,1-1.387.29q-2.439,0-2.438-2.719v-5.494h-1.6v-1.269h1.6v-2.266l1.487-.48v2.747h2.338v1.269H236.79v5.23a2.171,2.171,0,0,0,.317,1.333,1.267,1.267,0,0,0,1.052.4,1.562,1.562,0,0,0,.97-.308Z" fill="#fff"/><path d="M248.819,178.006h-1.486v-5.349q0-2.9-2.158-2.9a2.352,2.352,0,0,0-1.831.839,3.125,3.125,0,0,0-.743,2.153v5.258h-1.487V164.263H242.6v6h.036a3.376,3.376,0,0,1,3.046-1.759q3.136,0,3.136,3.78Z" fill="#fff"/><path d="M251.059,177.67v-1.6a4.4,4.4,0,0,0,2.674.9q1.958,0,1.958-1.306a1.133,1.133,0,0,0-.168-.63,1.674,1.674,0,0,0-.453-.458,3.511,3.511,0,0,0-.671-.358q-.385-.158-.83-.331a10.6,10.6,0,0,1-1.083-.494,3.263,3.263,0,0,1-.78-.562,2.084,2.084,0,0,1-.471-.711,2.512,2.512,0,0,1-.159-.934,2.216,2.216,0,0,1,.3-1.156,2.653,2.653,0,0,1,.8-.843,3.724,3.724,0,0,1,1.138-.512,5.052,5.052,0,0,1,1.319-.172,5.326,5.326,0,0,1,2.157.417v1.5a4.208,4.208,0,0,0-2.357-.671,2.755,2.755,0,0,0-.752.1,1.844,1.844,0,0,0-.576.268,1.232,1.232,0,0,0-.372.413,1.089,1.089,0,0,0-.131.53,1.275,1.275,0,0,0,.131.607,1.333,1.333,0,0,0,.385.435,2.93,2.93,0,0,0,.617.344q.362.155.825.335a11.388,11.388,0,0,1,1.106.485,3.787,3.787,0,0,1,.834.562,2.2,2.2,0,0,1,.53.721,2.322,2.322,0,0,1,.186.97,2.29,2.29,0,0,1-.3,1.2,2.6,2.6,0,0,1-.812.843,3.7,3.7,0,0,1-1.169.5,5.765,5.765,0,0,1-1.387.164A5.265,5.265,0,0,1,251.059,177.67Z" fill="#fff"/><path d="M268.463,178.224a4.3,4.3,0,0,1-3.286-1.3,4.817,4.817,0,0,1-1.229-3.449,5.021,5.021,0,0,1,1.278-3.653,4.6,4.6,0,0,1,3.454-1.314,4.165,4.165,0,0,1,3.241,1.278,5.069,5.069,0,0,1,1.165,3.544,4.986,4.986,0,0,1-1.255,3.558A4.4,4.4,0,0,1,268.463,178.224Zm.109-8.467a2.829,2.829,0,0,0-2.267.975,4,4,0,0,0-.834,2.688,3.784,3.784,0,0,0,.843,2.6,2.865,2.865,0,0,0,2.257.952,2.717,2.717,0,0,0,2.216-.934,4.051,4.051,0,0,0,.775-2.656,4.123,4.123,0,0,0-.775-2.684A2.706,2.706,0,0,0,268.572,169.756Z" fill="#fff"/><path d="M280.049,165.568a1.982,1.982,0,0,0-.988-.245q-1.559,0-1.559,1.967v1.432h2.176v1.269H277.5v8.014h-1.478v-8.014h-1.586v-1.269h1.586v-1.5a3.128,3.128,0,0,1,.843-2.307,2.848,2.848,0,0,1,2.1-.848,2.91,2.91,0,0,1,1.079.164Z" fill="#fff"/><path d="M290.238,178.224a4.3,4.3,0,0,1-3.286-1.3,4.817,4.817,0,0,1-1.229-3.449A5.021,5.021,0,0,1,287,169.82a4.6,4.6,0,0,1,3.454-1.314,4.165,4.165,0,0,1,3.241,1.278,5.069,5.069,0,0,1,1.165,3.544,4.986,4.986,0,0,1-1.255,3.558A4.4,4.4,0,0,1,290.238,178.224Zm.109-8.467a2.829,2.829,0,0,0-2.267.975,4,4,0,0,0-.834,2.688,3.784,3.784,0,0,0,.843,2.6,2.865,2.865,0,0,0,2.257.952,2.717,2.717,0,0,0,2.216-.934,4.051,4.051,0,0,0,.775-2.656,4.123,4.123,0,0,0-.775-2.684A2.706,2.706,0,0,0,290.347,169.756Z" fill="#fff"/><path d="M298.759,176.664h-.036v5.611h-1.487V168.723h1.487v1.632h.036a3.515,3.515,0,0,1,3.209-1.85,3.4,3.4,0,0,1,2.8,1.247,5.162,5.162,0,0,1,1.006,3.341,5.753,5.753,0,0,1-1.133,3.73,3.774,3.774,0,0,1-3.1,1.4A3.105,3.105,0,0,1,298.759,176.664Zm-.036-3.744v1.3a2.761,2.761,0,0,0,.748,1.954,2.668,2.668,0,0,0,4.016-.231,4.743,4.743,0,0,0,.766-2.874,3.745,3.745,0,0,0-.716-2.43,2.371,2.371,0,0,0-1.94-.879,2.634,2.634,0,0,0-2.085.9A3.31,3.31,0,0,0,298.723,172.92Z" fill="#fff"/><path d="M315.611,173.736h-6.554a3.474,3.474,0,0,0,.834,2.393,2.875,2.875,0,0,0,2.194.843,4.562,4.562,0,0,0,2.883-1.034v1.4a5.388,5.388,0,0,1-3.236.889,3.925,3.925,0,0,1-3.091-1.265,5.179,5.179,0,0,1-1.124-3.558,5.075,5.075,0,0,1,1.229-3.531,3.938,3.938,0,0,1,3.05-1.365,3.49,3.49,0,0,1,2.819,1.179,4.915,4.915,0,0,1,1,3.272Zm-1.523-1.26a3.023,3.023,0,0,0-.621-2,2.116,2.116,0,0,0-1.7-.716,2.4,2.4,0,0,0-1.786.752,3.415,3.415,0,0,0-.906,1.967Z" fill="#fff"/><path d="M325.564,178.006h-1.486v-5.294q0-2.955-2.158-2.956a2.34,2.34,0,0,0-1.845.839,3.109,3.109,0,0,0-.729,2.117v5.294h-1.487v-9.283h1.487v1.541h.036a3.35,3.35,0,0,1,3.046-1.759,2.84,2.84,0,0,1,2.33.984,4.38,4.38,0,0,1,.807,2.842Z" fill="#fff"/><path d="M341.374,178.006h-1.487v-1.577h-.036a3.745,3.745,0,0,1-5.987.548,5.113,5.113,0,0,1-1.047-3.4,5.561,5.561,0,0,1,1.161-3.689,3.826,3.826,0,0,1,3.091-1.387,2.976,2.976,0,0,1,2.783,1.5h.036v-5.747h1.487Zm-1.487-4.2V172.44a2.656,2.656,0,0,0-.743-1.9,2.494,2.494,0,0,0-1.886-.78,2.566,2.566,0,0,0-2.139,1,4.368,4.368,0,0,0-.78,2.756,3.931,3.931,0,0,0,.748,2.534,2.445,2.445,0,0,0,2.008.929,2.539,2.539,0,0,0,2.017-.9A3.345,3.345,0,0,0,339.887,173.809Z" fill="#fff"/><path d="M351.844,173.736H345.29a3.474,3.474,0,0,0,.834,2.393,2.875,2.875,0,0,0,2.194.843,4.562,4.562,0,0,0,2.883-1.034v1.4a5.388,5.388,0,0,1-3.236.889,3.925,3.925,0,0,1-3.091-1.265,5.179,5.179,0,0,1-1.124-3.558,5.075,5.075,0,0,1,1.229-3.531,3.938,3.938,0,0,1,3.05-1.365,3.49,3.49,0,0,1,2.819,1.179,4.915,4.915,0,0,1,1,3.272Zm-1.523-1.26a3.023,3.023,0,0,0-.621-2,2.116,2.116,0,0,0-1.7-.716,2.4,2.4,0,0,0-1.786.752,3.415,3.415,0,0,0-.906,1.967Z" fill="#fff"/><path d="M361.39,168.723l-3.7,9.283h-1.459l-3.517-9.283h1.632l2.357,6.745a6.062,6.062,0,0,1,.326,1.3h.036a6.154,6.154,0,0,1,.29-1.26l2.466-6.781Z" fill="#fff"/><path d="M370.446,173.736h-6.554a3.474,3.474,0,0,0,.834,2.393,2.875,2.875,0,0,0,2.194.843,4.562,4.562,0,0,0,2.883-1.034v1.4a5.388,5.388,0,0,1-3.236.889,3.925,3.925,0,0,1-3.091-1.265,5.179,5.179,0,0,1-1.124-3.558,5.075,5.075,0,0,1,1.229-3.531,3.938,3.938,0,0,1,3.05-1.365,3.49,3.49,0,0,1,2.819,1.179,4.915,4.915,0,0,1,1,3.272Zm-1.523-1.26a3.023,3.023,0,0,0-.621-2,2.116,2.116,0,0,0-1.7-.716,2.4,2.4,0,0,0-1.786.752,3.415,3.415,0,0,0-.906,1.967Z" fill="#fff"/><path d="M374.181,178.006h-1.487V164.263h1.487Z" fill="#fff"/><path d="M381.07,178.224a4.3,4.3,0,0,1-3.286-1.3,4.817,4.817,0,0,1-1.229-3.449,5.021,5.021,0,0,1,1.278-3.653,4.6,4.6,0,0,1,3.454-1.314,4.165,4.165,0,0,1,3.241,1.278,5.069,5.069,0,0,1,1.165,3.544,4.986,4.986,0,0,1-1.255,3.558A4.4,4.4,0,0,1,381.07,178.224Zm.109-8.467a2.829,2.829,0,0,0-2.267.975,4,4,0,0,0-.834,2.688,3.784,3.784,0,0,0,.843,2.6,2.865,2.865,0,0,0,2.257.952,2.717,2.717,0,0,0,2.216-.934,4.051,4.051,0,0,0,.775-2.656,4.123,4.123,0,0,0-.775-2.684A2.706,2.706,0,0,0,381.179,169.756Z" fill="#fff"/><path d="M389.592,176.664h-.036v5.611h-1.487V168.723h1.487v1.632h.036a3.515,3.515,0,0,1,3.209-1.85,3.4,3.4,0,0,1,2.8,1.247,5.162,5.162,0,0,1,1.006,3.341,5.753,5.753,0,0,1-1.133,3.73,3.774,3.774,0,0,1-3.1,1.4A3.105,3.105,0,0,1,389.592,176.664Zm-.036-3.744v1.3a2.761,2.761,0,0,0,.748,1.954,2.668,2.668,0,0,0,4.016-.231,4.743,4.743,0,0,0,.766-2.874,3.745,3.745,0,0,0-.716-2.43,2.371,2.371,0,0,0-1.94-.879,2.634,2.634,0,0,0-2.085.9A3.31,3.31,0,0,0,389.556,172.92Z" fill="#fff"/><path d="M412.164,178.006h-1.487v-5.33a4.027,4.027,0,0,0-.476-2.23,1.806,1.806,0,0,0-1.6-.689,1.982,1.982,0,0,0-1.618.871,3.328,3.328,0,0,0-.667,2.085v5.294h-1.486v-5.512q0-2.738-2.112-2.738a1.957,1.957,0,0,0-1.614.821,3.392,3.392,0,0,0-.634,2.135v5.294h-1.487v-9.283h1.487v1.469h.036a3.154,3.154,0,0,1,2.883-1.687,2.683,2.683,0,0,1,2.629,1.922,3.313,3.313,0,0,1,3.082-1.922q3.064,0,3.064,3.78Z" fill="#fff"/><path d="M422.435,173.736H415.88a3.474,3.474,0,0,0,.834,2.393,2.875,2.875,0,0,0,2.194.843,4.562,4.562,0,0,0,2.883-1.034v1.4a5.388,5.388,0,0,1-3.236.889,3.925,3.925,0,0,1-3.091-1.265,5.179,5.179,0,0,1-1.124-3.558,5.075,5.075,0,0,1,1.229-3.531,3.938,3.938,0,0,1,3.05-1.365,3.49,3.49,0,0,1,2.819,1.179,4.915,4.915,0,0,1,1,3.272Zm-1.523-1.26a3.023,3.023,0,0,0-.621-2,2.116,2.116,0,0,0-1.7-.716,2.4,2.4,0,0,0-1.786.752,3.415,3.415,0,0,0-.906,1.967Z" fill="#fff"/><path d="M432.388,178.006H430.9v-5.294q0-2.955-2.158-2.956a2.34,2.34,0,0,0-1.845.839,3.109,3.109,0,0,0-.729,2.117v5.294h-1.487v-9.283h1.487v1.541h.036a3.35,3.35,0,0,1,3.046-1.759,2.84,2.84,0,0,1,2.33.984,4.38,4.38,0,0,1,.807,2.842Z" fill="#fff"/><path d="M439.5,177.915a2.866,2.866,0,0,1-1.387.29q-2.439,0-2.438-2.719v-5.494h-1.6v-1.269h1.6v-2.266l1.487-.48v2.747H439.5v1.269h-2.338v5.23a2.171,2.171,0,0,0,.317,1.333,1.267,1.267,0,0,0,1.052.4,1.562,1.562,0,0,0,.97-.308Z" fill="#fff"/><path d="M104.31,228.692h-3.379V203.166a7.868,7.868,0,0,1-1.144.9,18.545,18.545,0,0,1-1.689,1q-.937.494-1.978.927a14.379,14.379,0,0,1-2.029.68v-3.42a19.592,19.592,0,0,0,2.359-.834q1.247-.525,2.452-1.174t2.276-1.359a18.1,18.1,0,0,0,1.854-1.391h1.278Z" fill="#fff"/><path d="M131.8,213.8a29.058,29.058,0,0,1-.669,6.572A15.319,15.319,0,0,1,129.2,225.2a8.714,8.714,0,0,1-3.111,2.987,8.514,8.514,0,0,1-4.192,1.02,7.96,7.96,0,0,1-3.966-.979,8.308,8.308,0,0,1-2.936-2.854,14.446,14.446,0,0,1-1.813-4.6,28.466,28.466,0,0,1-.618-6.253,32.233,32.233,0,0,1,.649-6.84,15.644,15.644,0,0,1,1.906-4.976,8.477,8.477,0,0,1,3.121-3.028,8.761,8.761,0,0,1,4.275-1.02Q131.8,198.653,131.8,213.8Zm-3.461.33q0-12.609-6-12.609-6.325,0-6.325,12.835,0,11.971,6.2,11.97Q128.341,226.323,128.341,214.126Z" fill="#fff"/><path d="M153.2,213.8a29.058,29.058,0,0,1-.669,6.572,15.319,15.319,0,0,1-1.937,4.831,8.714,8.714,0,0,1-3.111,2.987,8.514,8.514,0,0,1-4.192,1.02,7.96,7.96,0,0,1-3.966-.979,8.308,8.308,0,0,1-2.936-2.854,14.446,14.446,0,0,1-1.813-4.6,28.466,28.466,0,0,1-.618-6.253,32.233,32.233,0,0,1,.649-6.84,15.644,15.644,0,0,1,1.906-4.976,8.477,8.477,0,0,1,3.121-3.028,8.761,8.761,0,0,1,4.275-1.02Q153.2,198.653,153.2,213.8Zm-3.461.33q0-12.609-6-12.609-6.325,0-6.325,12.835,0,11.971,6.2,11.97Q149.736,226.323,149.736,214.126Z" fill="#fff"/><path d="M177.724,217.772H169.4v8.3h-2.74v-8.3h-8.3v-2.761h8.3v-8.3h2.74v8.3h8.323Z" fill="#fff"/><path d="M100.073,257.384H93.941V245.566h1.384v10.565h4.747Z" fill="#fff"/><path d="M107.745,257.384h-1.352v-1.318h-.033a2.831,2.831,0,0,1-2.6,1.516,2.775,2.775,0,0,1-1.974-.667,2.313,2.313,0,0,1-.713-1.772q0-2.365,2.786-2.752l2.53-.354q0-2.15-1.739-2.151a4.153,4.153,0,0,0-2.752,1.039v-1.385a5.229,5.229,0,0,1,2.868-.791q2.975,0,2.975,3.148Zm-1.352-4.269-2.036.28a3.305,3.305,0,0,0-1.417.466,1.344,1.344,0,0,0-.478,1.183,1.287,1.287,0,0,0,.441,1.009,1.7,1.7,0,0,0,1.174.392,2.169,2.169,0,0,0,1.661-.7,2.516,2.516,0,0,0,.655-1.784Z" fill="#fff"/><path d="M117.3,257.384h-1.352v-4.813q0-2.687-1.961-2.687a2.128,2.128,0,0,0-1.677.763,2.823,2.823,0,0,0-.663,1.924v4.813h-1.352v-8.439h1.352v1.4h.033a3.047,3.047,0,0,1,2.769-1.6,2.584,2.584,0,0,1,2.118.894,3.985,3.985,0,0,1,.733,2.584Z" fill="#fff"/><path d="M127.046,256.708q0,4.648-4.45,4.648a5.977,5.977,0,0,1-2.736-.593v-1.352a5.62,5.62,0,0,0,2.72.791q3.115,0,3.115-3.313v-.923h-.033a3.414,3.414,0,0,1-5.435.49,4.5,4.5,0,0,1-.96-3.02,5.255,5.255,0,0,1,1.034-3.42,3.456,3.456,0,0,1,2.831-1.269,2.75,2.75,0,0,1,2.53,1.368h.033v-1.17h1.352Zm-1.352-3.14v-1.245a2.413,2.413,0,0,0-.68-1.722,2.238,2.238,0,0,0-1.693-.717,2.348,2.348,0,0,0-1.961.911,4.065,4.065,0,0,0-.708,2.551,3.49,3.49,0,0,0,.68,2.254,2.2,2.2,0,0,0,1.8.845,2.351,2.351,0,0,0,1.85-.808A3.011,3.011,0,0,0,125.694,253.569Z" fill="#fff"/><path d="M136.6,257.384h-1.352v-1.335h-.033a2.776,2.776,0,0,1-2.6,1.533q-3.017,0-3.017-3.593v-5.043h1.343v4.83q0,2.67,2.044,2.67a2.067,2.067,0,0,0,1.627-.729,2.791,2.791,0,0,0,.639-1.908v-4.862H136.6Z" fill="#fff"/><path d="M145.374,257.384h-1.352v-1.318h-.033a2.831,2.831,0,0,1-2.6,1.516,2.775,2.775,0,0,1-1.974-.667,2.313,2.313,0,0,1-.713-1.772q0-2.365,2.786-2.752l2.53-.354q0-2.15-1.739-2.151a4.153,4.153,0,0,0-2.752,1.039v-1.385a5.229,5.229,0,0,1,2.868-.791q2.975,0,2.975,3.148Zm-1.352-4.269-2.036.28a3.305,3.305,0,0,0-1.417.466,1.344,1.344,0,0,0-.478,1.183,1.287,1.287,0,0,0,.441,1.009,1.7,1.7,0,0,0,1.174.392,2.169,2.169,0,0,0,1.661-.7,2.516,2.516,0,0,0,.655-1.784Z" fill="#fff"/><path d="M155.123,256.708q0,4.648-4.45,4.648a5.977,5.977,0,0,1-2.736-.593v-1.352a5.62,5.62,0,0,0,2.72.791q3.115,0,3.115-3.313v-.923h-.033a3.414,3.414,0,0,1-5.435.49,4.5,4.5,0,0,1-.96-3.02,5.255,5.255,0,0,1,1.034-3.42,3.456,3.456,0,0,1,2.831-1.269,2.75,2.75,0,0,1,2.53,1.368h.033v-1.17h1.352Zm-1.352-3.14v-1.245a2.413,2.413,0,0,0-.68-1.722,2.238,2.238,0,0,0-1.693-.717,2.348,2.348,0,0,0-1.961.911,4.065,4.065,0,0,0-.708,2.551,3.49,3.49,0,0,0,.68,2.254,2.2,2.2,0,0,0,1.8.845,2.351,2.351,0,0,0,1.85-.808A3.011,3.011,0,0,0,153.771,253.569Z" fill="#fff"/><path d="M164.641,253.5h-5.958a3.156,3.156,0,0,0,.758,2.175,2.613,2.613,0,0,0,1.995.767,4.146,4.146,0,0,0,2.621-.939v1.269a4.9,4.9,0,0,1-2.942.808,3.568,3.568,0,0,1-2.81-1.149,4.707,4.707,0,0,1-1.022-3.235,4.614,4.614,0,0,1,1.117-3.21,3.581,3.581,0,0,1,2.773-1.24,3.173,3.173,0,0,1,2.563,1.071,4.467,4.467,0,0,1,.907,2.975Zm-1.384-1.146a2.751,2.751,0,0,0-.565-1.821,1.923,1.923,0,0,0-1.545-.651,2.182,2.182,0,0,0-1.624.684,3.107,3.107,0,0,0-.824,1.789Z" fill="#fff"/><path d="M166.174,257.08v-1.451a4,4,0,0,0,2.431.816q1.781,0,1.78-1.187a1.029,1.029,0,0,0-.152-.573,1.53,1.53,0,0,0-.412-.417,3.2,3.2,0,0,0-.61-.325q-.351-.144-.754-.3a9.751,9.751,0,0,1-.984-.449,2.981,2.981,0,0,1-.709-.511,1.9,1.9,0,0,1-.429-.647,2.286,2.286,0,0,1-.144-.849,2.019,2.019,0,0,1,.272-1.051,2.412,2.412,0,0,1,.725-.767,3.4,3.4,0,0,1,1.034-.465,4.586,4.586,0,0,1,1.2-.157,4.839,4.839,0,0,1,1.961.379v1.368a3.825,3.825,0,0,0-2.143-.61,2.487,2.487,0,0,0-.684.087,1.683,1.683,0,0,0-.523.243,1.125,1.125,0,0,0-.338.375.991.991,0,0,0-.12.482,1.158,1.158,0,0,0,.12.552,1.222,1.222,0,0,0,.35.4,2.679,2.679,0,0,0,.561.313q.33.14.75.3a10.518,10.518,0,0,1,1.005.441,3.463,3.463,0,0,1,.758.511,2,2,0,0,1,.482.655,2.109,2.109,0,0,1,.169.882,2.077,2.077,0,0,1-.276,1.087,2.362,2.362,0,0,1-.738.767,3.376,3.376,0,0,1-1.063.453,5.236,5.236,0,0,1-1.261.148A4.79,4.79,0,0,1,166.174,257.08Z" fill="#fff"/><path d="M94.131,278v-1.632a3.161,3.161,0,0,0,.672.445,5.411,5.411,0,0,0,.824.333,6.606,6.606,0,0,0,.87.21,4.862,4.862,0,0,0,.808.074,3.163,3.163,0,0,0,1.908-.474,1.778,1.778,0,0,0,.42-2.2,2.381,2.381,0,0,0-.581-.647,5.744,5.744,0,0,0-.877-.56q-.507-.268-1.092-.565-.617-.313-1.153-.634a4.992,4.992,0,0,1-.932-.709,2.944,2.944,0,0,1-.622-.877,2.992,2.992,0,0,1,.128-2.555,3.033,3.033,0,0,1,.931-.985,4.219,4.219,0,0,1,1.314-.577,6.015,6.015,0,0,1,1.5-.19,5.762,5.762,0,0,1,2.546.42v1.558a4.616,4.616,0,0,0-2.687-.725,4.426,4.426,0,0,0-.906.095,2.546,2.546,0,0,0-.808.309,1.789,1.789,0,0,0-.577.552,1.464,1.464,0,0,0-.223.824,1.7,1.7,0,0,0,.169.783,1.915,1.915,0,0,0,.5.6,4.955,4.955,0,0,0,.8.527q.474.256,1.092.561.635.313,1.2.659a5.5,5.5,0,0,1,1,.766,3.4,3.4,0,0,1,.68.932,2.617,2.617,0,0,1,.251,1.17,2.968,2.968,0,0,1-.342,1.479,2.81,2.81,0,0,1-.923.985,4.028,4.028,0,0,1-1.339.548,7.329,7.329,0,0,1-1.6.169,6.5,6.5,0,0,1-.692-.045q-.412-.045-.841-.132a6.783,6.783,0,0,1-.812-.214A2.51,2.51,0,0,1,94.131,278Z" fill="#fff"/><path d="M110.292,278.481H108.94v-1.335h-.033a2.776,2.776,0,0,1-2.6,1.533q-3.017,0-3.017-3.593v-5.043h1.343v4.83q0,2.67,2.044,2.67a2.067,2.067,0,0,0,1.627-.729,2.791,2.791,0,0,0,.639-1.908v-4.862h1.352Z" fill="#fff"/><path d="M114.4,277.262h-.033v5.1H113.02v-12.32h1.352v1.483h.033a3.2,3.2,0,0,1,2.917-1.681,3.09,3.09,0,0,1,2.546,1.133,4.693,4.693,0,0,1,.915,3.037,5.231,5.231,0,0,1-1.03,3.391,3.43,3.43,0,0,1-2.818,1.273A2.822,2.822,0,0,1,114.4,277.262Zm-.033-3.4v1.178a2.51,2.51,0,0,0,.68,1.776,2.425,2.425,0,0,0,3.651-.21,4.309,4.309,0,0,0,.7-2.612,3.407,3.407,0,0,0-.651-2.209,2.155,2.155,0,0,0-1.764-.8,2.394,2.394,0,0,0-1.9.82A3.01,3.01,0,0,0,114.371,273.858Z" fill="#fff"/><path d="M124.326,277.262h-.033v5.1h-1.352v-12.32h1.352v1.483h.033a3.2,3.2,0,0,1,2.917-1.681,3.09,3.09,0,0,1,2.546,1.133,4.693,4.693,0,0,1,.915,3.037,5.231,5.231,0,0,1-1.03,3.391,3.43,3.43,0,0,1-2.818,1.273A2.822,2.822,0,0,1,124.326,277.262Zm-.033-3.4v1.178a2.51,2.51,0,0,0,.68,1.776,2.425,2.425,0,0,0,3.651-.21,4.309,4.309,0,0,0,.7-2.612,3.407,3.407,0,0,0-.651-2.209,2.155,2.155,0,0,0-1.764-.8,2.394,2.394,0,0,0-1.9.82A3.01,3.01,0,0,0,124.293,273.858Z" fill="#fff"/><path d="M136.391,278.679A3.914,3.914,0,0,1,133.4,277.5a4.379,4.379,0,0,1-1.117-3.136,4.565,4.565,0,0,1,1.162-3.321,4.178,4.178,0,0,1,3.14-1.195,3.784,3.784,0,0,1,2.946,1.162,4.606,4.606,0,0,1,1.059,3.222,4.533,4.533,0,0,1-1.142,3.235A4,4,0,0,1,136.391,278.679Zm.1-7.7a2.571,2.571,0,0,0-2.061.886,3.638,3.638,0,0,0-.758,2.443,3.442,3.442,0,0,0,.766,2.365,2.606,2.606,0,0,0,2.052.865,2.47,2.47,0,0,0,2.015-.849,3.685,3.685,0,0,0,.7-2.415,3.746,3.746,0,0,0-.7-2.439A2.46,2.46,0,0,0,136.49,270.982Z" fill="#fff"/><path d="M147.153,271.411a1.653,1.653,0,0,0-1.021-.272,1.726,1.726,0,0,0-1.447.816,3.773,3.773,0,0,0-.581,2.225v4.3h-1.352v-8.439H144.1v1.739h.033a2.948,2.948,0,0,1,.882-1.388,2.01,2.01,0,0,1,1.327-.5,2.2,2.2,0,0,1,.808.115Z" fill="#fff"/><path d="M152.535,278.4a2.608,2.608,0,0,1-1.261.264q-2.217,0-2.217-2.472V271.2h-1.45v-1.154h1.45v-2.06l1.352-.437v2.5h2.126V271.2h-2.126v4.755a1.97,1.97,0,0,0,.289,1.211,1.151,1.151,0,0,0,.956.362,1.421,1.421,0,0,0,.882-.28Z" fill="#fff"/><path d="M161.122,274.6h-5.958a3.156,3.156,0,0,0,.758,2.175,2.613,2.613,0,0,0,1.995.767,4.146,4.146,0,0,0,2.621-.939v1.269a4.9,4.9,0,0,1-2.942.808,3.568,3.568,0,0,1-2.81-1.149,4.707,4.707,0,0,1-1.022-3.235,4.614,4.614,0,0,1,1.117-3.21,3.581,3.581,0,0,1,2.773-1.24,3.173,3.173,0,0,1,2.563,1.071,4.467,4.467,0,0,1,.907,2.975Zm-1.384-1.146a2.751,2.751,0,0,0-.565-1.821,1.923,1.923,0,0,0-1.545-.651,2.182,2.182,0,0,0-1.624.684,3.107,3.107,0,0,0-.824,1.789Z" fill="#fff"/><path d="M170.369,278.481h-1.352v-1.434h-.033a3.4,3.4,0,0,1-5.443.5,4.647,4.647,0,0,1-.952-3.086,5.055,5.055,0,0,1,1.055-3.354,3.478,3.478,0,0,1,2.81-1.261,2.7,2.7,0,0,1,2.53,1.368h.033v-5.225h1.352Zm-1.352-3.815v-1.245a2.416,2.416,0,0,0-.676-1.73,2.267,2.267,0,0,0-1.714-.709,2.334,2.334,0,0,0-1.945.907,3.972,3.972,0,0,0-.708,2.505,3.573,3.573,0,0,0,.68,2.3,2.222,2.222,0,0,0,1.825.845,2.309,2.309,0,0,0,1.834-.816A3.039,3.039,0,0,0,169.017,274.666Z" fill="#fff"/><path d="M275.272,220.327a8.616,8.616,0,0,1-.752,3.636,8.03,8.03,0,0,1-2.122,2.8,9.8,9.8,0,0,1-3.286,1.8,13.308,13.308,0,0,1-4.224.639,12.272,12.272,0,0,1-6.716-1.607v-3.626a10.764,10.764,0,0,0,6.84,2.349,9.291,9.291,0,0,0,2.792-.392,6.258,6.258,0,0,0,2.143-1.133,5.032,5.032,0,0,0,1.38-1.792,5.6,5.6,0,0,0,.484-2.369q0-5.789-8.241-5.789h-2.452v-2.864h2.328q7.293,0,7.293-5.439,0-5.027-5.562-5.027a9.47,9.47,0,0,0-5.872,2.1v-3.276a12.838,12.838,0,0,1,6.716-1.689,10.322,10.322,0,0,1,3.358.515,7.7,7.7,0,0,1,2.576,1.442,6.392,6.392,0,0,1,1.658,2.225,6.868,6.868,0,0,1,.587,2.864q0,5.831-5.893,7.5v.083a9.322,9.322,0,0,1,2.782.731,7.423,7.423,0,0,1,2.2,1.473,6.563,6.563,0,0,1,1.453,2.132A6.81,6.81,0,0,1,275.272,220.327Z" fill="#fff"/><path d="M298.048,213.8a29.058,29.058,0,0,1-.669,6.572,15.319,15.319,0,0,1-1.937,4.831,8.714,8.714,0,0,1-3.111,2.987,8.514,8.514,0,0,1-4.192,1.02,7.96,7.96,0,0,1-3.966-.979,8.308,8.308,0,0,1-2.936-2.854,14.446,14.446,0,0,1-1.813-4.6,28.466,28.466,0,0,1-.618-6.253,32.233,32.233,0,0,1,.649-6.84,15.644,15.644,0,0,1,1.906-4.976,8.477,8.477,0,0,1,3.121-3.028,8.761,8.761,0,0,1,4.275-1.02Q298.047,198.653,298.048,213.8Zm-3.461.33q0-12.609-6-12.609-6.325,0-6.325,12.835,0,11.971,6.2,11.97Q294.586,226.323,294.586,214.126Z" fill="#fff"/><path d="M319.443,213.8a29.058,29.058,0,0,1-.669,6.572,15.319,15.319,0,0,1-1.937,4.831,8.714,8.714,0,0,1-3.111,2.987,8.514,8.514,0,0,1-4.192,1.02,7.96,7.96,0,0,1-3.966-.979,8.308,8.308,0,0,1-2.936-2.854,14.446,14.446,0,0,1-1.813-4.6,28.466,28.466,0,0,1-.618-6.253,32.233,32.233,0,0,1,.649-6.84,15.644,15.644,0,0,1,1.906-4.976,8.477,8.477,0,0,1,3.121-3.028,8.761,8.761,0,0,1,4.275-1.02Q319.442,198.653,319.443,213.8Zm-3.461.33q0-12.609-6-12.609-6.325,0-6.325,12.835,0,11.971,6.2,11.97Q315.981,226.323,315.981,214.126Z" fill="#fff"/><path d="M343.969,217.772h-8.323v8.3h-2.74v-8.3h-8.3v-2.761h8.3v-8.3h2.74v8.3h8.323Z" fill="#fff"/><path d="M252.32,252.917v4.467h-1.384V245.566h3.247a4.287,4.287,0,0,1,2.938.923,3.3,3.3,0,0,1,1.042,2.6,3.581,3.581,0,0,1-1.158,2.752,4.424,4.424,0,0,1-3.127,1.071Zm0-6.1v4.846h1.451a3.242,3.242,0,0,0,2.188-.655,2.32,2.32,0,0,0,.754-1.85q0-2.34-2.769-2.34Z" fill="#fff"/><path d="M267.031,257.384h-1.352v-1.335h-.033a2.776,2.776,0,0,1-2.6,1.533q-3.017,0-3.017-3.593v-5.043h1.343v4.83q0,2.67,2.044,2.67a2.067,2.067,0,0,0,1.627-.729,2.791,2.791,0,0,0,.639-1.908v-4.862h1.352Z" fill="#fff"/><path d="M271.11,257.384h-1.352V244.891h1.352Z" fill="#fff"/><path d="M275.2,257.384h-1.352V244.891H275.2Z" fill="#fff"/><path d="M291.21,257.384h-1.648l-1.978-3.313a7.213,7.213,0,0,0-.527-.787,3.005,3.005,0,0,0-.523-.531,1.812,1.812,0,0,0-.577-.3,2.38,2.38,0,0,0-.7-.095h-1.138v5.027h-1.384V245.566h3.527a5.036,5.036,0,0,1,1.43.194,3.206,3.206,0,0,1,1.137.589,2.735,2.735,0,0,1,.754.985,3.26,3.26,0,0,1,.272,1.38,3.323,3.323,0,0,1-.185,1.133,2.962,2.962,0,0,1-.528.919,3.2,3.2,0,0,1-.824.688,4.206,4.206,0,0,1-1.084.44v.033a2.506,2.506,0,0,1,.515.3,2.849,2.849,0,0,1,.416.4,5.282,5.282,0,0,1,.392.523q.193.293.433.68Zm-7.087-10.565V251.1H286a2.86,2.86,0,0,0,.96-.156,2.228,2.228,0,0,0,.762-.449,2.04,2.04,0,0,0,.5-.717,2.4,2.4,0,0,0,.181-.952,1.852,1.852,0,0,0-.614-1.479,2.638,2.638,0,0,0-1.776-.531Z" fill="#fff"/><path d="M298.94,253.5h-5.958a3.156,3.156,0,0,0,.758,2.175,2.613,2.613,0,0,0,1.995.767,4.146,4.146,0,0,0,2.621-.939v1.269a4.9,4.9,0,0,1-2.942.808,3.568,3.568,0,0,1-2.81-1.149,4.707,4.707,0,0,1-1.022-3.235,4.614,4.614,0,0,1,1.117-3.21,3.581,3.581,0,0,1,2.773-1.24,3.173,3.173,0,0,1,2.563,1.071,4.467,4.467,0,0,1,.907,2.975Zm-1.384-1.146a2.751,2.751,0,0,0-.565-1.821,1.923,1.923,0,0,0-1.545-.651,2.182,2.182,0,0,0-1.624.684,3.107,3.107,0,0,0-.824,1.789Z" fill="#fff"/><path d="M308.187,261.266h-1.352v-5.332H306.8a3.024,3.024,0,0,1-2.884,1.648,3.175,3.175,0,0,1-2.551-1.133,4.623,4.623,0,0,1-.96-3.086A5.053,5.053,0,0,1,301.462,250a3.51,3.51,0,0,1,2.834-1.257,2.661,2.661,0,0,1,2.505,1.368h.033v-1.17h1.352Zm-1.352-7.681v-1.228a2.454,2.454,0,0,0-.68-1.755,2.276,2.276,0,0,0-1.726-.717,2.321,2.321,0,0,0-1.929.9,4.029,4.029,0,0,0-.708,2.542,3.486,3.486,0,0,0,.684,2.287,2.181,2.181,0,0,0,1.763.828,2.378,2.378,0,0,0,1.892-.812A3.013,3.013,0,0,0,306.835,253.585Z" fill="#fff"/><path d="M317.746,257.384h-1.352v-1.335h-.033a2.776,2.776,0,0,1-2.6,1.533q-3.017,0-3.017-3.593v-5.043h1.343v4.83q0,2.67,2.044,2.67a2.067,2.067,0,0,0,1.627-.729,2.791,2.791,0,0,0,.639-1.908v-4.862h1.352Z" fill="#fff"/><path d="M327.256,253.5H321.3a3.156,3.156,0,0,0,.758,2.175,2.613,2.613,0,0,0,1.995.767,4.146,4.146,0,0,0,2.621-.939v1.269a4.9,4.9,0,0,1-2.942.808,3.568,3.568,0,0,1-2.81-1.149A4.707,4.707,0,0,1,319.9,253.2a4.614,4.614,0,0,1,1.117-3.21,3.581,3.581,0,0,1,2.773-1.24,3.173,3.173,0,0,1,2.563,1.071,4.467,4.467,0,0,1,.907,2.975Zm-1.384-1.146a2.751,2.751,0,0,0-.565-1.821,1.923,1.923,0,0,0-1.545-.651,2.182,2.182,0,0,0-1.624.684,3.107,3.107,0,0,0-.824,1.789Z" fill="#fff"/><path d="M328.789,257.08v-1.451a4,4,0,0,0,2.431.816q1.781,0,1.78-1.187a1.029,1.029,0,0,0-.152-.573,1.53,1.53,0,0,0-.412-.417,3.2,3.2,0,0,0-.61-.325q-.351-.144-.754-.3a9.751,9.751,0,0,1-.984-.449,2.981,2.981,0,0,1-.709-.511,1.9,1.9,0,0,1-.429-.647,2.286,2.286,0,0,1-.144-.849,2.019,2.019,0,0,1,.272-1.051,2.412,2.412,0,0,1,.725-.767,3.4,3.4,0,0,1,1.034-.465,4.586,4.586,0,0,1,1.2-.157,4.839,4.839,0,0,1,1.961.379v1.368a3.825,3.825,0,0,0-2.143-.61,2.487,2.487,0,0,0-.684.087,1.683,1.683,0,0,0-.523.243,1.125,1.125,0,0,0-.338.375.991.991,0,0,0-.12.482,1.158,1.158,0,0,0,.12.552,1.222,1.222,0,0,0,.35.4,2.679,2.679,0,0,0,.561.313q.33.14.75.3a10.518,10.518,0,0,1,1.005.441,3.463,3.463,0,0,1,.758.511,2,2,0,0,1,.482.655,2.109,2.109,0,0,1,.169.882,2.077,2.077,0,0,1-.276,1.087,2.362,2.362,0,0,1-.738.767,3.376,3.376,0,0,1-1.063.453,5.236,5.236,0,0,1-1.261.148A4.79,4.79,0,0,1,328.789,257.08Z" fill="#fff"/><path d="M340.376,257.3a2.608,2.608,0,0,1-1.261.264q-2.217,0-2.217-2.472V250.1h-1.45v-1.154h1.45v-2.06l1.352-.437v2.5h2.126V250.1H338.25v4.755a1.97,1.97,0,0,0,.289,1.211,1.151,1.151,0,0,0,.956.362,1.421,1.421,0,0,0,.882-.28Z" fill="#fff"/><path d="M341.669,257.08v-1.451a4,4,0,0,0,2.431.816q1.781,0,1.78-1.187a1.029,1.029,0,0,0-.152-.573,1.53,1.53,0,0,0-.412-.417,3.2,3.2,0,0,0-.61-.325q-.351-.144-.754-.3a9.751,9.751,0,0,1-.984-.449,2.981,2.981,0,0,1-.709-.511,1.9,1.9,0,0,1-.429-.647,2.286,2.286,0,0,1-.144-.849,2.019,2.019,0,0,1,.272-1.051,2.412,2.412,0,0,1,.725-.767,3.4,3.4,0,0,1,1.034-.465,4.586,4.586,0,0,1,1.2-.157,4.839,4.839,0,0,1,1.961.379v1.368a3.825,3.825,0,0,0-2.143-.61,2.487,2.487,0,0,0-.684.087,1.683,1.683,0,0,0-.523.243,1.125,1.125,0,0,0-.338.375.991.991,0,0,0-.12.482,1.158,1.158,0,0,0,.12.552,1.222,1.222,0,0,0,.35.4,2.679,2.679,0,0,0,.561.313q.33.14.75.3a10.518,10.518,0,0,1,1.005.441,3.463,3.463,0,0,1,.758.511,2,2,0,0,1,.482.655,2.109,2.109,0,0,1,.169.882,2.077,2.077,0,0,1-.276,1.087,2.362,2.362,0,0,1-.738.767,3.376,3.376,0,0,1-1.063.453,5.236,5.236,0,0,1-1.261.148A4.79,4.79,0,0,1,341.669,257.08Z" fill="#fff"/><path d="M263.512,277.987a6.933,6.933,0,0,1-3.264.692,5.262,5.262,0,0,1-4.038-1.624,5.991,5.991,0,0,1-1.517-4.261,6.28,6.28,0,0,1,1.706-4.582,5.791,5.791,0,0,1,4.327-1.747,6.937,6.937,0,0,1,2.786.486v1.475a5.653,5.653,0,0,0-2.8-.708,4.3,4.3,0,0,0-3.3,1.36,5.12,5.12,0,0,0-1.265,3.634,4.872,4.872,0,0,0,1.183,3.44,4.022,4.022,0,0,0,3.1,1.282,5.823,5.823,0,0,0,3.083-.792Z" fill="#fff"/><path d="M269.264,278.679a3.914,3.914,0,0,1-2.987-1.183,4.379,4.379,0,0,1-1.117-3.136,4.565,4.565,0,0,1,1.162-3.321,4.178,4.178,0,0,1,3.14-1.195,3.784,3.784,0,0,1,2.946,1.162,4.606,4.606,0,0,1,1.059,3.222,4.533,4.533,0,0,1-1.142,3.235A4,4,0,0,1,269.264,278.679Zm.1-7.7a2.571,2.571,0,0,0-2.061.886,3.638,3.638,0,0,0-.758,2.443,3.442,3.442,0,0,0,.766,2.365,2.606,2.606,0,0,0,2.052.865,2.47,2.47,0,0,0,2.015-.849,3.685,3.685,0,0,0,.7-2.415,3.746,3.746,0,0,0-.7-2.439A2.46,2.46,0,0,0,269.363,270.982Z" fill="#fff"/><path d="M282.631,278.481h-1.352v-4.813q0-2.687-1.961-2.687a2.128,2.128,0,0,0-1.677.763,2.823,2.823,0,0,0-.663,1.924v4.813h-1.352v-8.439h1.352v1.4h.033a3.047,3.047,0,0,1,2.769-1.6,2.584,2.584,0,0,1,2.118.894,3.985,3.985,0,0,1,.733,2.584Z" fill="#fff"/><path d="M289.092,278.4a2.608,2.608,0,0,1-1.261.264q-2.217,0-2.217-2.472V271.2h-1.45v-1.154h1.45v-2.06l1.352-.437v2.5h2.126V271.2h-2.126v4.755a1.97,1.97,0,0,0,.289,1.211,1.151,1.151,0,0,0,.956.362,1.421,1.421,0,0,0,.882-.28Z" fill="#fff"/><path d="M295.3,271.411a1.653,1.653,0,0,0-1.021-.272,1.726,1.726,0,0,0-1.447.816,3.773,3.773,0,0,0-.581,2.225v4.3H290.9v-8.439h1.352v1.739h.033a2.948,2.948,0,0,1,.882-1.388,2.01,2.01,0,0,1,1.327-.5,2.2,2.2,0,0,1,.808.115Z" fill="#fff"/><path d="M297.456,267.9a.856.856,0,0,1-.618-.247.835.835,0,0,1-.256-.626.866.866,0,0,1,.874-.882.874.874,0,0,1,.631.251.881.881,0,0,1,0,1.249A.866.866,0,0,1,297.456,267.9Zm.66,10.582h-1.352v-8.439h1.352Z" fill="#fff"/><path d="M302.236,277.262H302.2v1.22h-1.352V265.988H302.2v5.538h.033a3.2,3.2,0,0,1,2.917-1.681,3.094,3.094,0,0,1,2.542,1.133,4.68,4.68,0,0,1,.918,3.037,5.231,5.231,0,0,1-1.03,3.391,3.43,3.43,0,0,1-2.818,1.273A2.775,2.775,0,0,1,302.236,277.262Zm-.033-3.4v1.178a2.51,2.51,0,0,0,.68,1.776,2.425,2.425,0,0,0,3.651-.21,4.309,4.309,0,0,0,.7-2.612,3.407,3.407,0,0,0-.651-2.209,2.155,2.155,0,0,0-1.764-.8,2.394,2.394,0,0,0-1.9.82A3.01,3.01,0,0,0,302.2,273.858Z" fill="#fff"/><path d="M317.6,278.481h-1.352v-1.335h-.033a2.776,2.776,0,0,1-2.6,1.533q-3.017,0-3.017-3.593v-5.043h1.343v4.83q0,2.67,2.044,2.67a2.067,2.067,0,0,0,1.627-.729,2.791,2.791,0,0,0,.639-1.908v-4.862H317.6Z" fill="#fff"/><path d="M324.24,278.4a2.608,2.608,0,0,1-1.261.264q-2.217,0-2.217-2.472V271.2h-1.45v-1.154h1.45v-2.06l1.352-.437v2.5h2.126V271.2h-2.126v4.755a1.97,1.97,0,0,0,.289,1.211,1.151,1.151,0,0,0,.956.362,1.421,1.421,0,0,0,.882-.28Z" fill="#fff"/><path d="M332.827,274.6h-5.958a3.156,3.156,0,0,0,.758,2.175,2.613,2.613,0,0,0,1.995.767,4.146,4.146,0,0,0,2.621-.939v1.269a4.9,4.9,0,0,1-2.942.808,3.568,3.568,0,0,1-2.81-1.149,4.707,4.707,0,0,1-1.022-3.235,4.614,4.614,0,0,1,1.117-3.21,3.581,3.581,0,0,1,2.773-1.24,3.173,3.173,0,0,1,2.563,1.071,4.467,4.467,0,0,1,.907,2.975Zm-1.384-1.146a2.751,2.751,0,0,0-.565-1.821,1.923,1.923,0,0,0-1.545-.651,2.182,2.182,0,0,0-1.624.684,3.107,3.107,0,0,0-.824,1.789Z" fill="#fff"/><path d="M342.073,278.481h-1.352v-1.434h-.033a3.4,3.4,0,0,1-5.443.5,4.647,4.647,0,0,1-.952-3.086,5.055,5.055,0,0,1,1.055-3.354,3.478,3.478,0,0,1,2.81-1.261,2.7,2.7,0,0,1,2.53,1.368h.033v-5.225h1.352Zm-1.352-3.815v-1.245a2.416,2.416,0,0,0-.676-1.73,2.267,2.267,0,0,0-1.714-.709,2.334,2.334,0,0,0-1.945.907,3.972,3.972,0,0,0-.708,2.505,3.573,3.573,0,0,0,.68,2.3,2.222,2.222,0,0,0,1.825.845,2.309,2.309,0,0,0,1.834-.816A3.039,3.039,0,0,0,340.722,274.666Z" fill="#fff"/><path d="M422.453,228.692h-3.379V203.166a7.868,7.868,0,0,1-1.144.9,18.545,18.545,0,0,1-1.689,1q-.937.494-1.978.927a14.379,14.379,0,0,1-2.029.68v-3.42a19.592,19.592,0,0,0,2.359-.834q1.247-.525,2.452-1.174t2.276-1.359a18.1,18.1,0,0,0,1.854-1.391h1.278Z" fill="#fff"/><path d="M435.442,223.995l-3.3,10.136h-2.41l2.41-10.136Z" fill="#fff"/><path d="M457.744,213.8a29.058,29.058,0,0,1-.669,6.572,15.319,15.319,0,0,1-1.937,4.831,8.714,8.714,0,0,1-3.111,2.987,8.514,8.514,0,0,1-4.192,1.02,7.96,7.96,0,0,1-3.966-.979,8.308,8.308,0,0,1-2.936-2.854,14.446,14.446,0,0,1-1.813-4.6,28.466,28.466,0,0,1-.618-6.253,32.233,32.233,0,0,1,.649-6.84,15.644,15.644,0,0,1,1.906-4.976,8.477,8.477,0,0,1,3.121-3.028,8.761,8.761,0,0,1,4.275-1.02Q457.743,198.653,457.744,213.8Zm-3.461.33q0-12.609-6-12.609-6.325,0-6.325,12.835,0,11.971,6.2,11.97Q454.282,226.323,454.282,214.126Z" fill="#fff"/><path d="M479.139,213.8a29.058,29.058,0,0,1-.669,6.572,15.319,15.319,0,0,1-1.937,4.831,8.714,8.714,0,0,1-3.111,2.987,8.514,8.514,0,0,1-4.192,1.02,7.96,7.96,0,0,1-3.966-.979,8.308,8.308,0,0,1-2.936-2.854,14.446,14.446,0,0,1-1.813-4.6,28.466,28.466,0,0,1-.618-6.253,32.233,32.233,0,0,1,.649-6.84,15.644,15.644,0,0,1,1.906-4.976,8.477,8.477,0,0,1,3.121-3.028,8.761,8.761,0,0,1,4.275-1.02Q479.138,198.653,479.139,213.8Zm-3.461.33q0-12.609-6-12.609-6.325,0-6.325,12.835,0,11.971,6.2,11.97Q475.677,226.323,475.677,214.126Z" fill="#fff"/><path d="M500.534,213.8a29.058,29.058,0,0,1-.669,6.572,15.319,15.319,0,0,1-1.937,4.831,8.714,8.714,0,0,1-3.111,2.987,8.514,8.514,0,0,1-4.192,1.02,7.96,7.96,0,0,1-3.966-.979,8.308,8.308,0,0,1-2.936-2.854,14.446,14.446,0,0,1-1.813-4.6,28.466,28.466,0,0,1-.618-6.253,32.233,32.233,0,0,1,.649-6.84,15.644,15.644,0,0,1,1.906-4.976,8.477,8.477,0,0,1,3.121-3.028,8.761,8.761,0,0,1,4.275-1.02Q500.533,198.653,500.534,213.8Zm-3.461.33q0-12.609-6-12.609-6.325,0-6.325,12.835,0,11.971,6.2,11.97Q497.072,226.323,497.072,214.126Z" fill="#fff"/><path d="M525.06,217.772h-8.323v8.3H514v-8.3h-8.3v-2.761H514v-8.3h2.74v8.3h8.323Z" fill="#fff"/><path d="M437,257.384h-6.263V245.566h6v1.253h-4.615v3.931h4.269v1.244h-4.269v4.137H437Z" fill="#fff"/><path d="M445.254,248.945l-2.835,4.269,2.786,4.17H443.63l-1.656-2.736q-.157-.256-.371-.643h-.033q-.042.074-.387.643l-1.689,2.736h-1.558l2.876-4.137-2.752-4.3h1.574l1.631,2.884q.182.322.354.66h.033l2.109-3.544Z" fill="#fff"/><path d="M450.751,257.3a2.608,2.608,0,0,1-1.261.264q-2.217,0-2.217-2.472V250.1h-1.45v-1.154h1.45v-2.06l1.352-.437v2.5h2.126V250.1h-2.126v4.755a1.97,1.97,0,0,0,.289,1.211,1.151,1.151,0,0,0,.956.362,1.421,1.421,0,0,0,.882-.28Z" fill="#fff"/><path d="M459.338,253.5h-5.958a3.156,3.156,0,0,0,.758,2.175,2.613,2.613,0,0,0,1.995.767,4.146,4.146,0,0,0,2.621-.939v1.269a4.9,4.9,0,0,1-2.942.808,3.568,3.568,0,0,1-2.81-1.149,4.707,4.707,0,0,1-1.022-3.235,4.614,4.614,0,0,1,1.117-3.21,3.581,3.581,0,0,1,2.773-1.24,3.173,3.173,0,0,1,2.563,1.071,4.467,4.467,0,0,1,.907,2.975Zm-1.384-1.146a2.751,2.751,0,0,0-.565-1.821,1.923,1.923,0,0,0-1.545-.651,2.182,2.182,0,0,0-1.624.684,3.107,3.107,0,0,0-.824,1.789Z" fill="#fff"/><path d="M468.387,257.384h-1.352v-4.813q0-2.687-1.961-2.687a2.128,2.128,0,0,0-1.677.763,2.823,2.823,0,0,0-.663,1.924v4.813h-1.352v-8.439h1.352v1.4h.033a3.047,3.047,0,0,1,2.769-1.6,2.584,2.584,0,0,1,2.118.894,3.985,3.985,0,0,1,.733,2.584Z" fill="#fff"/><path d="M470.422,257.08v-1.451a4,4,0,0,0,2.431.816q1.781,0,1.78-1.187a1.029,1.029,0,0,0-.152-.573,1.53,1.53,0,0,0-.412-.417,3.2,3.2,0,0,0-.61-.325q-.351-.144-.754-.3a9.751,9.751,0,0,1-.984-.449,2.981,2.981,0,0,1-.709-.511,1.9,1.9,0,0,1-.429-.647,2.286,2.286,0,0,1-.144-.849,2.019,2.019,0,0,1,.272-1.051,2.412,2.412,0,0,1,.725-.767,3.4,3.4,0,0,1,1.034-.465,4.586,4.586,0,0,1,1.2-.157,4.839,4.839,0,0,1,1.961.379v1.368a3.825,3.825,0,0,0-2.143-.61,2.487,2.487,0,0,0-.684.087,1.683,1.683,0,0,0-.523.243,1.125,1.125,0,0,0-.338.375.991.991,0,0,0-.12.482,1.158,1.158,0,0,0,.12.552,1.222,1.222,0,0,0,.35.4,2.679,2.679,0,0,0,.561.313q.33.14.75.3a10.518,10.518,0,0,1,1.005.441,3.463,3.463,0,0,1,.758.511,2,2,0,0,1,.482.655,2.109,2.109,0,0,1,.169.882,2.077,2.077,0,0,1-.276,1.087,2.362,2.362,0,0,1-.738.767,3.376,3.376,0,0,1-1.063.453,5.236,5.236,0,0,1-1.261.148A4.79,4.79,0,0,1,470.422,257.08Z" fill="#fff"/><path d="M478.787,246.8a.856.856,0,0,1-.618-.247.835.835,0,0,1-.256-.626.866.866,0,0,1,.874-.882.874.874,0,0,1,.631.251.881.881,0,0,1,0,1.249A.866.866,0,0,1,478.787,246.8Zm.66,10.582h-1.352v-8.439h1.352Z" fill="#fff"/><path d="M485.709,257.582a3.914,3.914,0,0,1-2.987-1.183,4.379,4.379,0,0,1-1.117-3.136,4.565,4.565,0,0,1,1.162-3.321,4.178,4.178,0,0,1,3.14-1.195,3.784,3.784,0,0,1,2.946,1.162,4.606,4.606,0,0,1,1.059,3.222,4.533,4.533,0,0,1-1.142,3.235A4,4,0,0,1,485.709,257.582Zm.1-7.7a2.571,2.571,0,0,0-2.061.886,3.638,3.638,0,0,0-.758,2.443,3.442,3.442,0,0,0,.766,2.365,2.606,2.606,0,0,0,2.052.865,2.47,2.47,0,0,0,2.015-.849,3.685,3.685,0,0,0,.7-2.415,3.746,3.746,0,0,0-.7-2.439A2.46,2.46,0,0,0,485.808,249.885Z" fill="#fff"/><path d="M499.076,257.384h-1.352v-4.813q0-2.687-1.961-2.687a2.128,2.128,0,0,0-1.677.763,2.823,2.823,0,0,0-.663,1.924v4.813h-1.352v-8.439h1.352v1.4h.033a3.047,3.047,0,0,1,2.769-1.6,2.584,2.584,0,0,1,2.118.894,3.985,3.985,0,0,1,.733,2.584Z" fill="#fff"/><path d="M501.112,257.08v-1.451a4,4,0,0,0,2.431.816q1.781,0,1.78-1.187a1.029,1.029,0,0,0-.152-.573,1.53,1.53,0,0,0-.412-.417,3.2,3.2,0,0,0-.61-.325q-.351-.144-.754-.3a9.751,9.751,0,0,1-.984-.449,2.981,2.981,0,0,1-.709-.511,1.9,1.9,0,0,1-.429-.647,2.286,2.286,0,0,1-.144-.849,2.019,2.019,0,0,1,.272-1.051,2.412,2.412,0,0,1,.725-.767,3.4,3.4,0,0,1,1.034-.465,4.586,4.586,0,0,1,1.2-.157,4.839,4.839,0,0,1,1.961.379v1.368a3.825,3.825,0,0,0-2.143-.61,2.487,2.487,0,0,0-.684.087,1.683,1.683,0,0,0-.523.243,1.125,1.125,0,0,0-.338.375.991.991,0,0,0-.12.482,1.158,1.158,0,0,0,.12.552,1.222,1.222,0,0,0,.35.4,2.679,2.679,0,0,0,.561.313q.33.14.75.3a10.518,10.518,0,0,1,1.005.441,3.463,3.463,0,0,1,.758.511,2,2,0,0,1,.482.655,2.109,2.109,0,0,1,.169.882,2.077,2.077,0,0,1-.276,1.087,2.362,2.362,0,0,1-.738.767,3.376,3.376,0,0,1-1.063.453,5.236,5.236,0,0,1-1.261.148A4.79,4.79,0,0,1,501.112,257.08Z" fill="#fff"/><path d="M448.786,277.987a6.933,6.933,0,0,1-3.264.692,5.262,5.262,0,0,1-4.038-1.624,5.991,5.991,0,0,1-1.517-4.261,6.28,6.28,0,0,1,1.706-4.582A5.791,5.791,0,0,1,446,266.466a6.937,6.937,0,0,1,2.786.486v1.475a5.653,5.653,0,0,0-2.8-.708,4.3,4.3,0,0,0-3.3,1.36,5.12,5.12,0,0,0-1.265,3.634,4.872,4.872,0,0,0,1.183,3.44,4.022,4.022,0,0,0,3.1,1.282,5.823,5.823,0,0,0,3.083-.792Z" fill="#fff"/><path d="M455.411,271.411a1.653,1.653,0,0,0-1.021-.272,1.726,1.726,0,0,0-1.447.816,3.773,3.773,0,0,0-.581,2.225v4.3h-1.352v-8.439h1.352v1.739h.033a2.948,2.948,0,0,1,.882-1.388,2.01,2.01,0,0,1,1.327-.5,2.2,2.2,0,0,1,.808.115Z" fill="#fff"/><path d="M463.661,274.6H457.7a3.156,3.156,0,0,0,.758,2.175,2.613,2.613,0,0,0,1.995.767,4.146,4.146,0,0,0,2.621-.939v1.269a4.9,4.9,0,0,1-2.942.808,3.568,3.568,0,0,1-2.81-1.149,4.707,4.707,0,0,1-1.022-3.235,4.614,4.614,0,0,1,1.117-3.21,3.581,3.581,0,0,1,2.773-1.24,3.173,3.173,0,0,1,2.563,1.071,4.467,4.467,0,0,1,.907,2.975Zm-1.384-1.146a2.751,2.751,0,0,0-.565-1.821,1.923,1.923,0,0,0-1.545-.651,2.182,2.182,0,0,0-1.624.684,3.107,3.107,0,0,0-.824,1.789Z" fill="#fff"/><path d="M471.745,278.481h-1.352v-1.318h-.033a2.831,2.831,0,0,1-2.6,1.516,2.775,2.775,0,0,1-1.974-.667,2.313,2.313,0,0,1-.713-1.772q0-2.365,2.786-2.752l2.53-.354q0-2.15-1.739-2.151a4.153,4.153,0,0,0-2.752,1.039v-1.385a5.229,5.229,0,0,1,2.868-.791q2.975,0,2.975,3.148Zm-1.352-4.269-2.036.28a3.305,3.305,0,0,0-1.417.466,1.344,1.344,0,0,0-.478,1.183,1.287,1.287,0,0,0,.441,1.009,1.7,1.7,0,0,0,1.174.392,2.169,2.169,0,0,0,1.661-.7,2.516,2.516,0,0,0,.655-1.784Z" fill="#fff"/><path d="M478.206,278.4a2.608,2.608,0,0,1-1.261.264q-2.217,0-2.217-2.472V271.2h-1.45v-1.154h1.45v-2.06l1.352-.437v2.5h2.126V271.2H476.08v4.755a1.97,1.97,0,0,0,.289,1.211,1.151,1.151,0,0,0,.956.362,1.421,1.421,0,0,0,.882-.28Z" fill="#fff"/><path d="M486.793,274.6h-5.958a3.156,3.156,0,0,0,.758,2.175,2.613,2.613,0,0,0,1.995.767,4.146,4.146,0,0,0,2.621-.939v1.269a4.9,4.9,0,0,1-2.942.808,3.568,3.568,0,0,1-2.81-1.149,4.707,4.707,0,0,1-1.022-3.235,4.614,4.614,0,0,1,1.117-3.21,3.581,3.581,0,0,1,2.773-1.24,3.173,3.173,0,0,1,2.563,1.071,4.467,4.467,0,0,1,.907,2.975Zm-1.384-1.146a2.751,2.751,0,0,0-.565-1.821,1.923,1.923,0,0,0-1.545-.651,2.182,2.182,0,0,0-1.624.684,3.107,3.107,0,0,0-.824,1.789Z" fill="#fff"/><path d="M496.04,278.481h-1.352v-1.434h-.033a3.4,3.4,0,0,1-5.443.5,4.647,4.647,0,0,1-.952-3.086,5.055,5.055,0,0,1,1.055-3.354,3.478,3.478,0,0,1,2.81-1.261,2.7,2.7,0,0,1,2.53,1.368h.033v-5.225h1.352Zm-1.352-3.815v-1.245a2.416,2.416,0,0,0-.676-1.73,2.267,2.267,0,0,0-1.714-.709,2.334,2.334,0,0,0-1.945.907,3.972,3.972,0,0,0-.708,2.505,3.573,3.573,0,0,0,.68,2.3,2.222,2.222,0,0,0,1.825.845,2.309,2.309,0,0,0,1.834-.816A3.039,3.039,0,0,0,494.688,274.666Z" fill="#fff"/></svg>