<svg xmlns="http://www.w3.org/2000/svg" xmlns:xlink="http://www.w3.org/1999/xlink" viewBox="0 0 600 400"><defs><clipPath id="a"><rect x="109.426" y="298.553" width="44.648" height="19.843" fill="none"/></clipPath><clipPath id="c"><path d="M127.9,306.348a.745.745,0,0,1-.754-.742v-3.477a.75.75,0,0,1,.754-.742h6.177a1.735,1.735,0,0,1,1.169.579l3.175,3.8c.249.333.083.578-.249.578Z" fill="none"/></clipPath><clipPath id="e"><path d="M126.435,305.607a.745.745,0,0,1-.754.742h-9.269a.428.428,0,0,1-.416-.66l2.42-3.722a1.58,1.58,0,0,1,1.088-.579h6.176a.75.75,0,0,1,.754.742Z" fill="none"/></clipPath><clipPath id="g"><path d="M280.514,54.414h-9.422a2.44,2.44,0,0,0-2.46,2.456v7.783h14.343V56.871A2.349,2.349,0,0,0,280.514,54.414Z" fill="none"/></clipPath><clipPath id="h"><rect x="260.951" y="29.487" width="70.864" height="35.025" fill="none"/></clipPath><clipPath id="i"><path d="M317.615,54.414h-9.424a2.432,2.432,0,0,0-2.46,2.456v7.783h14.342V56.871A2.35,2.35,0,0,0,317.615,54.414Z" fill="none"/></clipPath></defs><title>blog-vscode-roadmap</title><rect y="-0.145" width="600" height="400.145" fill="#b2d7f0"/><path d="M570.736,61.382,540.966,38.7v9.252H216.68a44.672,44.672,0,0,0,0,89.345H368.944a19.159,19.159,0,1,1,0,38.318H172.68a44.672,44.672,0,0,0,0,89.344H401.944a19.159,19.159,0,1,1,0,38.319H0V328.79H401.944a44.672,44.672,0,1,0,0-89.344H172.68a19.159,19.159,0,0,1,0-38.318H368.944a44.672,44.672,0,1,0,0-89.344H216.68a19.159,19.159,0,0,1,0-38.319H540.966v10.6Z" fill="#8bc3e8"/><path d="M576.017,56.162,546.286,33.509v9.207H222.833c-24.515,0-44.984,19.466-45.345,43.978a44.7,44.7,0,0,0,44.642,45.317H373.841c10.425,0,19.261,8.158,19.558,18.58a19.156,19.156,0,0,1-19.127,19.69H178.685c-24.514,0-44.983,19.466-45.344,43.978a44.7,44.7,0,0,0,44.642,45.317H406.248c10.425,0,19.261,8.158,19.558,18.579a19.156,19.156,0,0,1-19.127,19.69H0v25.513H406.175c24.514,0,44.983-19.466,45.344-43.978a44.7,44.7,0,0,0-44.643-45.317H178.414c-10.425,0-19.261-8.158-19.558-18.58a19.155,19.155,0,0,1,19.126-19.69H373.57c24.514,0,44.983-19.466,45.344-43.978A44.7,44.7,0,0,0,374.272,106.5H222.736c-10.425,0-19.261-8.158-19.558-18.579A19.156,19.156,0,0,1,222.3,68.228H546.286V78.815Z" fill="#709dbf"/><polygon points="218.446 338.919 217.419 339.946 190.718 342 188.123 338.433 203.042 319.971 218.446 338.919" fill="#004b50"/><circle cx="203.042" cy="354.324" r="21.785" fill="#008272"/><path d="M210.483,345.035H196.309v7.087h14.174Zm-1.417,5.67H197.726v-4.252h11.339Zm1.417,2.835H196.309v7.087h14.174Zm-1.417,5.67H197.726v-4.252h11.339ZM193.474,342.2v22.678h19.843V342.2ZM211.9,363.461H194.892V343.618H211.9Z" fill="#fff"/><line y1="311.408" x2="4.5" y2="311.408" fill="none" stroke="#c5e1f3" stroke-miterlimit="10" stroke-width="2"/><path d="M20.528,311.408H408.12a31.916,31.916,0,0,0,0-63.831H178.855a31.916,31.916,0,1,1,0-63.831H375.12a31.916,31.916,0,0,0,0-63.831H222.855a31.916,31.916,0,1,1,0-63.831H551.489" fill="none" stroke="#c5e1f3" stroke-miterlimit="10" stroke-width="2" stroke-dasharray="9.016 16.028"/><line x1="559.503" y1="56.082" x2="564.003" y2="56.082" fill="none" stroke="#c5e1f3" stroke-miterlimit="10" stroke-width="2"/><path d="M154.408,319.767H108.273a2.229,2.229,0,0,1-2.257-1.96,2.154,2.154,0,0,1,2.145-2.346H154.3a2.229,2.229,0,0,1,2.257,1.96A2.154,2.154,0,0,1,154.408,319.767Z" fill="#628aaa"/><g clip-path="url(#a)"><path d="M152.577,311.57a.672.672,0,0,1,.708.524.7.7,0,0,1-.708.431.694.694,0,0,1-.7-.431A.664.664,0,0,1,152.577,311.57Z" fill="#ff8c00"/><path d="M115.343,300.413s-3.265,4.189-3.791,5.238v.7h2.111l3.265-5.238Z" fill="#c2c2c2"/><polygon points="122.183 309.892 122.183 314.144 141.318 314.144 141.318 309.892 151.239 309.892 151.239 316.27 111.553 316.27 111.553 309.892 122.183 309.892"/><path d="M142.026,305.189a21.988,21.988,0,0,0-4.141-4.714,1.632,1.632,0,0,0-1.322.7l3.966,5.238,1.5-1.135Z" fill="#d2d2d2"/><path d="M112.989,314.624a3.571,3.571,0,1,0,7.142,0,3.571,3.571,0,1,0-7.142,0Z" fill="#262729"/><path d="M114.31,314.624a2.269,2.269,0,0,0,2.295,2.271,2.271,2.271,0,1,0,0-4.541A2.269,2.269,0,0,0,114.31,314.624Z" fill="#b2b2b2"/><path d="M115.984,314.624a.59.59,0,0,0,.62.524.56.56,0,0,0,.525-.524.581.581,0,0,0-.525-.611A.6.6,0,0,0,115.984,314.624Z" fill="#505050"/><path d="M143.052,314.624a3.572,3.572,0,1,0,7.143,0,3.572,3.572,0,1,0-7.143,0Z" fill="#262729"/><path d="M144.374,314.624a2.267,2.267,0,0,0,2.293,2.271,2.271,2.271,0,1,0,0-4.541A2.267,2.267,0,0,0,144.374,314.624Z" fill="#b2b2b2"/><path d="M146.054,314.624a.583.583,0,0,0,.614.524.568.568,0,0,0,.533-.524.588.588,0,0,0-.533-.611A.6.6,0,0,0,146.054,314.624Z" fill="#505050"/><path d="M137.677,300.679H115.72s.885-1.746,10.672-1.746C134.77,298.933,136.354,299.278,137.677,300.679Z" fill="#008272"/><path d="M151.875,314.853a1.787,1.787,0,0,0,.781-.926v-6.35c-2.995-1.832-10.671-2.184-10.671-2.184s-1.059.79-1.41.438c-.351-.438-2.381-3.32-3.082-4.017s.351-1.135.351-1.135H115.37a.532.532,0,0,1,.525.846c-.261.345-2.292,3.054-2.642,3.664s-.974.524-.974.45h-.7a5.544,5.544,0,0,0-2.153,3.566v2.271c.122.963.387,3.671,2.067,3.671,0,.7.768.611.768.611V314.71s1.874-4.455,4.343-4.455a4.442,4.442,0,0,1,4.23,3.147l.175.438c.181.524.356.7.971.3h19.136c1.059.393,1.235-.3,1.235-.3l.175-.438a4.362,4.362,0,0,1,4.229-3.147,4.612,4.612,0,0,1,4.061,2.623,5.007,5.007,0,0,1,.263,1.975Z" fill="#008272"/><path d="M152.657,307.459a.7.7,0,0,1,.709.7v2.278a.762.762,0,0,1-.709.7Z" fill="#fff"/><path d="M126.435,305.607a.745.745,0,0,1-.754.742h-9.269a.428.428,0,0,1-.416-.66l2.42-3.722a1.58,1.58,0,0,1,1.088-.579h6.176a.75.75,0,0,1,.754.742Z" fill="#b2d7f0"/><path d="M127.9,306.348a.745.745,0,0,1-.754-.742v-3.477a.75.75,0,0,1,.754-.742h6.177a1.735,1.735,0,0,1,1.169.579l3.175,3.8c.249.333.083.578-.249.578Z" fill="#969696"/><path d="M154.074,313.316c0,.259-.175.438-.438.119h-1.76c-.27.319-.445.139-.445-.119h0c0-.266.175-.438.445-.589h1.76C153.9,312.878,154.074,313.05,154.074,313.316Z" fill="#262729"/><path d="M153.365,308.157a1.379,1.379,0,0,1,.614,1.142,1.205,1.205,0,0,1-.614,1.042Z" fill="#fff"/><path d="M109.063,309.183h1.073v2.835h-1.067a.351.351,0,0,1-.35-.35v-2.14A.346.346,0,0,1,109.063,309.183Z" fill="#dc3c00"/></g><g clip-path="url(#a)"><rect x="151.948" y="311.309" width="0.709" height="1.417" fill="#fff"/><path d="M127.9,306.348a.745.745,0,0,1-.754-.742v-3.477a.75.75,0,0,1,.754-.742h6.177a1.735,1.735,0,0,1,1.169.579l3.175,3.8c.249.333.083.578-.249.578Z" fill="#b2d7f0"/></g><g clip-path="url(#c)"><g clip-path="url(#a)"><polygon points="134.412 300.672 128.773 306.348 139.882 306.348 135.646 300.758 134.412 300.672" fill="#dfdfdf"/></g></g><g clip-path="url(#e)"><g clip-path="url(#a)"><polygon points="124.923 301.388 119.119 307.057 126.435 307.057 126.435 301.388 124.923 301.388" fill="#dfdfdf"/><polygon points="128.466 301.388 122.661 307.057 129.978 307.057 129.978 301.388 128.466 301.388" fill="#c2c2c2"/></g></g><path d="M249.585,191.1H199.2a2.229,2.229,0,0,1-2.257-1.96,2.154,2.154,0,0,1,2.145-2.346h50.387a2.229,2.229,0,0,1,2.257,1.96A2.154,2.154,0,0,1,249.585,191.1Z" fill="#628aaa"/><rect x="204.457" y="177.075" width="43.939" height="7.796" fill="#505050"/><path d="M207.817,164.319h20.137c1.173,0,5.279,4.21,7.625,8.685,3.324.389,12.121,1.362,15.445,3.891a13.34,13.34,0,0,1,0,7.976h-3.715a5.769,5.769,0,0,0-11.535,0H217.592a5.67,5.67,0,0,0-11.339,0h-4.888a11.04,11.04,0,0,1,.2-2.529C201.756,173.782,204.884,164.319,207.817,164.319Z" fill="#724aad" fill-rule="evenodd"/><circle cx="241.578" cy="184.76" r="4.9"/><circle cx="241.578" cy="184.76" r="3.171" fill="#c2c2c2"/><circle cx="211.602" cy="184.76" r="4.9"/><circle cx="211.602" cy="184.76" r="3.171" fill="#c2c2c2"/><path d="M231.576,172.823H204.067s1.9-7.087,3.472-7.087h19.348S230.555,170.264,231.576,172.823Z" fill="#b2d7f0" fill-rule="evenodd"/><path d="M235.781,172.823h-2.41c-2.7-4.188-5.062-7.087-5.062-7.087h1.785A21.46,21.46,0,0,1,235.781,172.823Z" fill="#b2d7f0" fill-rule="evenodd"/><path d="M200.2,182.7a1.2,1.2,0,0,0,1.16,1.063,1.022,1.022,0,0,0,.966-1.063v-1.063a1.022,1.022,0,0,0-.966-1.063,1.2,1.2,0,0,0-1.16,1.063Z" fill="#e81123" fill-rule="evenodd"/><path d="M248.351,182.036c.288-.447.432-.678.432-.908,0-.461-.144-.692-.432-.509h-.288c-.288-.183-.432.048-.432.509,0,.231.144.461.432.908Z" fill="#ff8c00" fill-rule="evenodd"/><path d="M251.474,178.707a18.344,18.344,0,0,1,0,4.612,2.34,2.34,0,0,1-1.537-2.206A2.419,2.419,0,0,1,251.474,178.707Z" fill="#fff100" fill-rule="evenodd"/><path d="M203.8,172.823a43.189,43.189,0,0,0-.945,5.67h-1.89a35.258,35.258,0,0,1,1.181-5.67Z" fill="#ff8c00" fill-rule="evenodd"/><circle cx="241.578" cy="184.76" r="0.865" fill="#e6e6e6"/><circle cx="211.602" cy="184.76" r="0.865" fill="#e6e6e6"/><path d="M223.626,172.823h-13.52l3.673-7.087H226.87l.1.12Z" fill="#fff" fill-rule="evenodd"/><polygon points="217.412 165.736 218.242 173.532 216.094 173.532 215.398 165.736 217.412 165.736" fill="#724aad" fill-rule="evenodd"/><path d="M388.818,251.74h-44.1a2.209,2.209,0,0,1-2.213-1.745,2.128,2.128,0,0,1,2.093-2.507h44.1a2.209,2.209,0,0,1,2.213,1.745A2.128,2.128,0,0,1,388.818,251.74Z" fill="#628aaa"/><rect x="346.934" y="240.401" width="40.395" height="6.378" fill="#505050"/><path d="M363.5,239.193a9.011,9.011,0,0,1-.228-1.766,9.955,9.955,0,0,1,19.907-.212,9.424,9.424,0,0,1-.086,1.769Z" fill="#107c10"/><path d="M367.971,230.663l6.459-.069a2.78,2.78,0,0,1,2.814,2.727l.056,5.224-12.559.134a8.2,8.2,0,0,1-.208-1.607A7.627,7.627,0,0,1,367.971,230.663Z" fill="#b2d7f0"/><path d="M349.038,236.195l34.441-.367a6.109,6.109,0,0,1,6.178,6.1c.043,4.068.043,4.412.043,4.412-1.574.078-3.7.04-3.7.04a4.747,4.747,0,1,0-9.479.048c-19.174.2-19,0-19,0a4.816,4.816,0,0,0-4.84-4.733,4.677,4.677,0,0,0-4.589,4.744l-5.163.055-.043-4.068A6.133,6.133,0,0,1,349.038,236.195Z" fill="#65aa0d"/><path d="M377.38,246.124a3.941,3.941,0,0,0,3.939,3.829,3.878,3.878,0,0,0,3.856-3.912,3.812,3.812,0,0,0-3.939-3.821A3.872,3.872,0,0,0,377.38,246.124Z"/><path d="M379.273,246.1a2.07,2.07,0,0,0,2.027,1.97,2,2,0,0,0,1.976-2.012,1.932,1.932,0,0,0-2.018-1.961A2,2,0,0,0,379.273,246.1Z" fill="#fff"/><path d="M348.938,246.427a3.845,3.845,0,1,0,3.751-3.9A3.782,3.782,0,0,0,348.938,246.427Z"/><path d="M350.724,246.408a2.069,2.069,0,0,0,2.027,1.97,2,2,0,0,0,1.975-2.012,1.931,1.931,0,0,0-2.018-1.961A2,2,0,0,0,350.724,246.408Z" fill="#fff"/><path d="M356.972,239.692h.1l0-.451a22.651,22.651,0,0,1-2.344-2.384h-.1s-.1.326,0,.325c2.239,2.268,2.239,1.8,2.239,1.8Z" fill="#107c10"/><path d="M354.967,239.47h.1c.1-.1.1-.207,0-.206l-2.23-2.276-.209,0c-.112.1-.111.216,0,.215l2.23,2.268Z" fill="#107c10"/><path d="M353.075,239.491h.106l0-.206-2.346-2.275-.209,0,0,.215,2.346,2.267Z" fill="#107c10"/><path d="M351.069,239.512h.106c.1-.1.1-.207,0-.206l-2.232-2.276-.209,0c-.112.1-.111.216,0,.215l2.232,2.268Z" fill="#107c10"/><path d="M344.832,242.3a.8.8,0,0,0,.748.722h0a.8.8,0,0,0,.733-.738l-.023-2.2a.719.719,0,0,0-.748-.722h0a.719.719,0,0,0-.733.738Z" fill="#fff"/><rect x="342.562" y="227.392" width="47.015" height="22.475" transform="translate(-2.536 3.937) rotate(-0.614)" fill="none"/><path d="M364.607,236.183a7.535,7.535,0,0,1,3.364-5.366l2.268-.024-2.414,5.356Z" fill="#fff"/><rect x="340.556" y="243.945" width="4.252" height="2.835" rx="1.248" ry="1.248" fill="#505050"/><polygon points="126.639 196.093 125.612 197.12 123.558 223.821 127.125 226.416 145.587 211.498 126.639 196.093" fill="#3d1a68"/><circle cx="111.235" cy="211.498" r="21.785" fill="#724aad"/><path d="M121.134,206.411a3.629,3.629,0,0,0-1.888-1.888,3.372,3.372,0,0,0-1.373-.282,3.412,3.412,0,0,0-1.379.282,3.633,3.633,0,0,0-1.129.764,3.571,3.571,0,0,0-.759,1.124,3.44,3.44,0,0,0-.277,1.373,3.387,3.387,0,0,0,.2,1.179,3.726,3.726,0,0,0,.565,1.019,3.4,3.4,0,0,0,.864.781,3.586,3.586,0,0,0,1.1.465,2.11,2.11,0,0,1-.3.615,2.138,2.138,0,0,1-.465.482,2.108,2.108,0,0,1-.587.31,2.051,2.051,0,0,1-.675.111h-4.252a3.412,3.412,0,0,0-1.118.188,3.644,3.644,0,0,0-1.008.543V207a3.387,3.387,0,0,0,1.141-.443,3.527,3.527,0,0,0,1.484-1.816,3.5,3.5,0,0,0,.21-1.207,3.374,3.374,0,0,0-.282-1.373,3.629,3.629,0,0,0-1.888-1.888,3.372,3.372,0,0,0-1.373-.282,3.412,3.412,0,0,0-1.379.282,3.633,3.633,0,0,0-1.129.764,3.571,3.571,0,0,0-.759,1.124,3.44,3.44,0,0,0-.277,1.373,3.537,3.537,0,0,0,.8,2.242,3.554,3.554,0,0,0,.9.781,3.387,3.387,0,0,0,1.141.443v8.659a3.43,3.43,0,0,0-1.141.443,3.527,3.527,0,0,0-1.484,1.816,3.569,3.569,0,0,0,.066,2.586,3.528,3.528,0,0,0,1.888,1.888,3.455,3.455,0,0,0,1.379.277,3.414,3.414,0,0,0,1.373-.277,3.571,3.571,0,0,0,1.124-.759,3.633,3.633,0,0,0,.764-1.129,3.488,3.488,0,0,0,.078-2.552,3.637,3.637,0,0,0-.565-1.019,3.582,3.582,0,0,0-1.966-1.251,2.11,2.11,0,0,1,.3-.615,2.112,2.112,0,0,1,1.052-.792,2.07,2.07,0,0,1,.675-.111h4.252a3.44,3.44,0,0,0,1.218-.216,3.569,3.569,0,0,0,1.041-.6,3.521,3.521,0,0,0,.781-.919,3.6,3.6,0,0,0,.437-1.163,3.327,3.327,0,0,0,1.163-.432,3.632,3.632,0,0,0,.919-.786,3.56,3.56,0,0,0,.6-1.041,3.437,3.437,0,0,0,.216-1.218A3.374,3.374,0,0,0,121.134,206.411Zm-14.013-.919a2.115,2.115,0,0,1-1.129-1.129,2.159,2.159,0,0,1,0-1.661,2.115,2.115,0,0,1,1.129-1.129,2.159,2.159,0,0,1,1.661,0,2.115,2.115,0,0,1,1.129,1.129,2.159,2.159,0,0,1,0,1.661,2.115,2.115,0,0,1-1.129,1.129,2.159,2.159,0,0,1-1.661,0Zm1.661,11.671a2.115,2.115,0,0,1,1.129,1.129,2.159,2.159,0,0,1,0,1.661,2.115,2.115,0,0,1-1.129,1.129,2.159,2.159,0,0,1-1.661,0,2.115,2.115,0,0,1-1.129-1.129,2.159,2.159,0,0,1,0-1.661,2.115,2.115,0,0,1,1.129-1.129,2.159,2.159,0,0,1,1.661,0Zm11.051-8.549a2.115,2.115,0,0,1-1.129,1.129,2.159,2.159,0,0,1-1.661,0,2.115,2.115,0,0,1-1.129-1.129,2.159,2.159,0,0,1,0-1.661,2.115,2.115,0,0,1,1.129-1.129,2.159,2.159,0,0,1,1.661,0,2.115,2.115,0,0,1,1.129,1.129,2.159,2.159,0,0,1,0,1.661Z" fill="#fff"/><polygon points="169.639 54.796 168.612 55.823 166.558 82.524 170.125 85.119 188.587 70.201 169.639 54.796" fill="#9c2801"/><circle cx="154.235" cy="70.201" r="21.785" fill="#d83b01"/><path d="M156.975,69.676V59.755H144.218V78.181h4.252v4.252H166.9V69.676Zm-8.5,7.087h-2.835V61.172h9.922v8.5H148.47Zm17.009,4.252H149.888V71.094h15.591Z" fill="#fff"/><path d="M263.191,65.36h65.834a2.229,2.229,0,0,0,2.257-1.96,2.154,2.154,0,0,0-2.145-2.346H263.3a2.229,2.229,0,0,0-2.257,1.96A2.154,2.154,0,0,0,263.191,65.36Z" fill="#628aaa"/><path d="M317.181,29.487H274A11.229,11.229,0,0,0,262.835,40.58V45.2h54.346Z" fill="#d83b01"/><path d="M274.8,29.25h43.359a11.12,11.12,0,0,1,11.211,11.01v4.581H274.8Z" fill="#d83b01"/><path d="M316.591,32.951H276.314a3.18,3.18,0,0,0-3.049,3.168V43.76h51.886V41.446A8.455,8.455,0,0,0,316.591,32.951Z" fill="#b2d7f0"/><polygon points="262.748 46.31 262.748 59.015 273.951 59.015 318.159 59.015 329.365 59.015 329.365 46.31 329.365 44.842 262.748 44.842 262.748 46.31" fill="#9c2801"/><path d="M329.21,45.053H262.835v1.435h56.073c10.877,0,10.3,9.373,10.3,9.373Z" fill="#d83b01"/><path d="M280.514,54.414h-9.422a2.44,2.44,0,0,0-2.46,2.456v2.3h14.343v-2.3A2.349,2.349,0,0,0,280.514,54.414Z" fill="#3c3c3c"/><g clip-path="url(#g)"><g clip-path="url(#h)"><path d="M281.246,58.6a5.439,5.439,0,0,1-5.365,5.327,5.337,5.337,0,0,1-5.365-5.327,5.245,5.245,0,0,1,5.365-5.339A5.34,5.34,0,0,1,281.246,58.6Z"/><path d="M278.63,58.6a2.831,2.831,0,0,1-2.749,2.729,2.744,2.744,0,0,1-2.76-2.729,2.661,2.661,0,0,1,2.76-2.741A2.737,2.737,0,0,1,278.63,58.6Z" fill="#fff"/></g></g><path d="M317.615,54.414h-9.424a2.432,2.432,0,0,0-2.46,2.456v2.3h14.342v-2.3A2.35,2.35,0,0,0,317.615,54.414Z" fill="#3c3c3c"/><g clip-path="url(#i)"><g clip-path="url(#h)"><path d="M318.332,58.6a5.427,5.427,0,0,1-5.351,5.327,5.337,5.337,0,0,1-5.366-5.327,5.245,5.245,0,0,1,5.366-5.339A5.328,5.328,0,0,1,318.332,58.6Z"/><path d="M315.728,58.6a2.839,2.839,0,0,1-2.746,2.729,2.745,2.745,0,0,1-2.761-2.729,2.662,2.662,0,0,1,2.761-2.741A2.744,2.744,0,0,1,315.728,58.6Z" fill="#fff"/></g></g><path d="M331.668,57.44a1.6,1.6,0,0,0-1.6-1.578h-5.224a1.589,1.589,0,0,0-1.58,1.578h0a1.635,1.635,0,0,0,1.58,1.732h5.224A1.641,1.641,0,0,0,331.668,57.44Z" fill="#737373"/><path d="M268.839,55.862c-2.026,0-6,0-6,0a1.639,1.639,0,0,0-1.74,1.578,1.677,1.677,0,0,0,1.74,1.732h5.8A16.668,16.668,0,0,1,268.839,55.862Z" fill="#737373"/><path d="M323.932,37.046a8.5,8.5,0,0,0-7.341-4.095H276.314a3.18,3.18,0,0,0-3.049,3.168v.927Z" fill="#fff"/><rect x="283.3" y="32.794" width="2.126" height="12.048" fill="#d83b01"/><rect x="304.561" y="32.794" width="2.126" height="12.048" fill="#d83b01"/><rect x="323.873" y="48.857" width="3.898" height="2.244" rx="1.122" ry="1.122" fill="#f57800"/><path d="M262.837,48.857h-.945a1.122,1.122,0,1,0,0,2.244h.945Z" fill="#d83b01"/><path d="M314.156,128.935H379.99a2.229,2.229,0,0,0,2.257-1.96,2.154,2.154,0,0,0-2.145-2.346H314.268a2.229,2.229,0,0,0-2.257,1.96A2.154,2.154,0,0,0,314.156,128.935Z" fill="#628aaa"/><path d="M375.3,122.917l-12.261.937s-6.156-8.379,5.6-8.379S375.3,122.917,375.3,122.917Z" fill="#020202"/><path d="M331.334,123.973H319.261s-7.673-8.6,5.546-8.758S331.334,123.973,331.334,123.973Z" fill="#020202"/><circle cx="325.281" cy="122.201" r="5.315" fill="#212121"/><circle cx="325.24" cy="122.065" r="3.816" fill="#d2d2d2"/><circle cx="325.104" cy="122.201" r="1.227" fill="#666"/><circle cx="369.167" cy="122.201" r="5.315" fill="#212121"/><circle cx="369.208" cy="122.242" r="3.816" fill="#d2d2d2"/><circle cx="369.208" cy="122.242" r="1.09" fill="#666"/><path d="M312.167,120.867c.072-1.445,1.084-1.372,1.084-1.372s.506-2.889.939-4.334a3.9,3.9,0,0,1,3.4-2.528c1.661-.289,12.424-1.3,12.424-1.3s7.115-6.573,9.354-6.646c5.852-.189,15.061-.361,21.273,0,5.481.319,11.124,5.779,11.124,5.779l6.14.686c.9.2,1.251.439,1.5.921a58.747,58.747,0,0,1,2.257,5.833s.74.289.524,1.445c-.362,1.931-.885,2.962-1.246,3.034-.154.031-2.734.325-5.638.652a6.272,6.272,0,1,0-12.261.937h-31.7a6.272,6.272,0,1,0-12.073,0h-5.505C311.95,123.973,312.094,122.312,312.167,120.867Z" fill="#0078d7"/><path d="M380.934,122.264c-.154.031-2.734.325-5.638.652a6.325,6.325,0,0,0,.048-.766,6.248,6.248,0,0,0-1.6-4.186l7.913-.183v0s.74.289.524,1.445C381.818,121.162,381.3,122.192,380.934,122.264Z" fill="#00188f"/><path d="M345.7,111.979H333.121a.368.368,0,0,1-.247-.642c1.673-1.507,5.927-5.153,8.042-5.282,1.039-.063,2.806-.108,3.87-.139a.368.368,0,0,1,.373.308l.9,5.325A.368.368,0,0,1,345.7,111.979Z" fill="#b2d7f0"/><path d="M358.5,106.705a.37.37,0,0,1,.433-.425,8.138,8.138,0,0,1,3.148,1.22,39.832,39.832,0,0,1,4.632,3.846.368.368,0,0,1-.257.632H359.7a.368.368,0,0,1-.363-.307Z" fill="#b2d7f0"/><path d="M356.281,106.31l.887,5.24a.368.368,0,0,1-.363.43H348.6a.368.368,0,0,1-.363-.307l-.91-5.376a.369.369,0,0,1,.363-.43c2.334,0,5.525.051,8.244.137A.366.366,0,0,1,356.281,106.31Z" fill="#b2d7f0"/><path d="M379.232,116.383l-1.181-3.543a.336.336,0,0,1,.324-.443c.359.007.857.014,1.271.014.561,1.224,1.22,3.039,1.627,4.2h-1.722A.336.336,0,0,1,379.232,116.383Z" fill="#d91021"/><path d="M314.211,115.17a3.044,3.044,0,0,1,.523-1.011h2.122a.367.367,0,0,1,.313.557l-2.212,3.628a.367.367,0,0,1-.313.176h-1.188C313.637,117.567,313.939,116.079,314.211,115.17Z" fill="#fff"/><path d="M330.988,119.612h32.444a6.29,6.29,0,0,0-.35,4.361H331.289a6.29,6.29,0,0,0,.236-1.707A6.221,6.221,0,0,0,330.988,119.612Z" fill="#00188f"/><path d="M313.168,119.339h6.593a6.138,6.138,0,0,0-.733,2.692,8.354,8.354,0,0,0,.273,1.942h-5.622c-1.762,0-1.55-1.567-1.55-3.3A1.206,1.206,0,0,1,313.168,119.339Z" fill="#00188f"/><path d="M316.831,120.684v.854a.255.255,0,0,1-.255.255H312.1c0-.373.019-.761.038-1.136,0-.081.012-.155.022-.227h4.418A.255.255,0,0,1,316.831,120.684Z" fill="#f57800"/><path d="M358.818,108.653l-.319-1.884a.368.368,0,0,1,.424-.426,8.145,8.145,0,0,1,3.157,1.221c.506.35,1,.719,1.47,1.089Z" fill="#fff"/><path d="M347.712,108.653l-.388-2.293a.365.365,0,0,1,.358-.43c2.335,0,5.53.051,8.251.137a.365.365,0,0,1,.348.307l.386,2.28Z" fill="#fff"/><path d="M336.178,108.653c1.7-1.285,3.554-2.462,4.738-2.533,1.04-.063,2.807-.108,3.872-.139a.367.367,0,0,1,.372.308l.4,2.365Z" fill="#fff"/><polygon points="460.36 262.767 461.387 263.794 463.441 290.495 459.874 293.089 441.412 278.171 460.36 262.767" fill="#107c10"/><circle cx="475.765" cy="278.171" r="21.785" fill="#65aa0d"/><path d="M469.8,270.1a.7.7,0,1,1,1-1l1.417,1.417a.7.7,0,1,1-1,1Zm5.459.919a.719.719,0,0,0,.709-.709v-2.126a.709.709,0,0,0-1.417,0v2.126a.719.719,0,0,0,.709.709Zm6.29,12.756,1.4,2.79q-1.04.511-2.054,1.024t-2.054,1.024l-1.528-3.056-2.757,2.757V273.559q2.581,2.558,5.11,5.1t5.1,5.116Zm-2.3-1.417h2.1l-5.382-5.382V284.9l1.727-1.727,1.783,3.555,1.561-.786Zm-1.152-9.922a.679.679,0,0,0,.5-.21l1.417-1.417a.7.7,0,1,0-1-1l-1.417,1.417a.709.709,0,0,0,.5,1.207Zm-5.67,4.252a.681.681,0,0,0-.5.21L470.5,278.32a.7.7,0,1,0,1,1l1.417-1.417a.709.709,0,0,0-.5-1.207Zm-.919-1.628a.709.709,0,0,0-.5-1.207h-2.126a.709.709,0,0,0,0,1.417H471A.679.679,0,0,0,471.5,275.065Z" fill="#fff"/><path d="M62.49,66.085A5.532,5.532,0,0,1,58.2,64.319a6.552,6.552,0,0,1-1.613-4.6,6.943,6.943,0,0,1,1.644-4.852A5.74,5.74,0,0,1,62.7,53.06a5.408,5.408,0,0,1,4.206,1.758,6.576,6.576,0,0,1,1.6,4.6,6.965,6.965,0,0,1-1.635,4.878A5.634,5.634,0,0,1,62.49,66.085ZM62.6,54.4a4.063,4.063,0,0,0-3.226,1.433,6.373,6.373,0,0,0-.031,7.51,3.941,3.941,0,0,0,3.151,1.419,4.138,4.138,0,0,0,3.27-1.354,5.532,5.532,0,0,0,1.2-3.788,5.78,5.78,0,0,0-1.16-3.858A3.978,3.978,0,0,0,62.6,54.4Z"/><path d="M76.669,65.461a4.684,4.684,0,0,1-2.461.624A4.074,4.074,0,0,1,71.1,64.833a4.539,4.539,0,0,1-1.182-3.248,4.99,4.99,0,0,1,1.274-3.573,4.458,4.458,0,0,1,3.4-1.349,4.735,4.735,0,0,1,2.092.439V58.58a3.665,3.665,0,0,0-2.145-.7,2.9,2.9,0,0,0-2.263.989,3.752,3.752,0,0,0-.883,2.6,3.573,3.573,0,0,0,.831,2.5,2.863,2.863,0,0,0,2.228.914,3.613,3.613,0,0,0,2.215-.782Z"/><path d="M82.772,65.787a2.779,2.779,0,0,1-1.345.281q-2.364,0-2.364-2.637V58.1H77.516v-1.23h1.547v-2.2l1.441-.466v2.663h2.268V58.1H80.5v5.071a2.1,2.1,0,0,0,.308,1.292,1.228,1.228,0,0,0,1.02.387,1.515,1.515,0,0,0,.94-.3Z"/><path d="M94.45,56.576a2.606,2.606,0,0,0-.18-1.011,1.957,1.957,0,0,0-1.226-1.143,2.874,2.874,0,0,0-.914-.141,3.023,3.023,0,0,0-.826.114,4.016,4.016,0,0,0-.787.316,4.839,4.839,0,0,0-.738.483,5.333,5.333,0,0,0-.664.624V54.273a4.309,4.309,0,0,1,1.358-.9,4.781,4.781,0,0,1,1.833-.312,4.424,4.424,0,0,1,1.433.224,3.285,3.285,0,0,1,1.143.655A3.027,3.027,0,0,1,95.641,55a3.587,3.587,0,0,1,.277,1.45,4.973,4.973,0,0,1-.171,1.354,4.186,4.186,0,0,1-.519,1.143,5.513,5.513,0,0,1-.875,1.028,12.388,12.388,0,0,1-1.239,1q-.888.633-1.463,1.081a6.469,6.469,0,0,0-.914.839,2.436,2.436,0,0,0-.475.782,2.734,2.734,0,0,0-.136.9H96.4v1.292H88.623V65.25a5.2,5.2,0,0,1,.176-1.424,3.7,3.7,0,0,1,.58-1.169,6.487,6.487,0,0,1,1.059-1.107q.655-.554,1.6-1.248a10.141,10.141,0,0,0,1.147-.94,4.889,4.889,0,0,0,.743-.9,3.22,3.22,0,0,0,.4-.91A3.922,3.922,0,0,0,94.45,56.576Z"/><path d="M106.081,59.52a12.381,12.381,0,0,1-.286,2.8,6.533,6.533,0,0,1-.826,2.061,3.718,3.718,0,0,1-1.327,1.274,3.633,3.633,0,0,1-1.789.435,3.393,3.393,0,0,1-1.692-.417,3.546,3.546,0,0,1-1.252-1.217,6.17,6.17,0,0,1-.773-1.964,12.146,12.146,0,0,1-.264-2.667,13.749,13.749,0,0,1,.277-2.918,6.674,6.674,0,0,1,.813-2.123,3.619,3.619,0,0,1,1.332-1.292,3.739,3.739,0,0,1,1.824-.435Q106.081,53.06,106.081,59.52Zm-1.477.141q0-5.379-2.558-5.379-2.7,0-2.7,5.476,0,5.106,2.646,5.106Q104.6,64.864,104.6,59.661Z"/><path d="M112.93,65.875h-1.441V54.985a3.336,3.336,0,0,1-.488.382,7.951,7.951,0,0,1-.721.426q-.4.211-.844.4a6.132,6.132,0,0,1-.866.29V55.02a8.379,8.379,0,0,0,1.006-.356q.532-.224,1.046-.5t.971-.58a7.71,7.71,0,0,0,.791-.593h.545Z"/><path d="M124.895,54.106q-.29.5-.7,1.248t-.866,1.679q-.457.932-.932,2t-.888,2.215q-.413,1.143-.725,2.316a17.229,17.229,0,0,0-.453,2.307h-1.547a17.526,17.526,0,0,1,.488-2.3q.33-1.173.747-2.3T120.9,59.1q.466-1.046.905-1.925t.8-1.551q.365-.672.584-1.05h-6.319v-1.3h8.016Z"/><path d="M27.35,76.938l-3.111,8.4H23.155l-3.047-8.4h1.1L23.53,83.6a3.956,3.956,0,0,1,.17.744h.023a3.65,3.65,0,0,1,.193-.756l2.373-6.65Z"/><path d="M32.321,82.58H28.084a2.244,2.244,0,0,0,.539,1.547,1.858,1.858,0,0,0,1.418.545A2.948,2.948,0,0,0,31.9,84v.9a3.482,3.482,0,0,1-2.092.574,2.536,2.536,0,0,1-2-.817,3.346,3.346,0,0,1-.727-2.3,3.281,3.281,0,0,1,.794-2.282,2.546,2.546,0,0,1,1.972-.882,2.256,2.256,0,0,1,1.822.762,3.176,3.176,0,0,1,.645,2.115Zm-.984-.814a1.955,1.955,0,0,0-.4-1.295,1.368,1.368,0,0,0-1.1-.463,1.552,1.552,0,0,0-1.154.486,2.207,2.207,0,0,0-.586,1.271Z"/><path d="M36.735,80.313a1.175,1.175,0,0,0-.727-.193,1.226,1.226,0,0,0-1.028.58,2.682,2.682,0,0,0-.413,1.582V85.34h-.961v-6h.961v1.236h.023a2.1,2.1,0,0,1,.627-.987,1.43,1.43,0,0,1,.943-.354,1.569,1.569,0,0,1,.574.082Z"/><path d="M40.393,85.281a1.853,1.853,0,0,1-.9.188q-1.576,0-1.576-1.758V80.16H36.889v-.82H37.92V77.875l.961-.311V79.34h1.512v.82H38.881v3.381a1.4,1.4,0,0,0,.205.861.818.818,0,0,0,.68.258,1.01,1.01,0,0,0,.627-.2Z"/><path d="M42,77.816a.609.609,0,0,1-.439-.176.593.593,0,0,1-.182-.445A.615.615,0,0,1,42,76.568a.621.621,0,0,1,.448.179.626.626,0,0,1,0,.888A.615.615,0,0,1,42,77.816Zm.469,7.523h-.961v-6h.961Z"/><path d="M48.336,85.064a3.122,3.122,0,0,1-1.641.416,2.716,2.716,0,0,1-2.071-.835,3.026,3.026,0,0,1-.788-2.165,3.326,3.326,0,0,1,.85-2.382,2.972,2.972,0,0,1,2.268-.9,3.156,3.156,0,0,1,1.395.293v.984a2.443,2.443,0,0,0-1.43-.469,1.932,1.932,0,0,0-1.509.659,2.5,2.5,0,0,0-.589,1.731,2.382,2.382,0,0,0,.554,1.664,1.909,1.909,0,0,0,1.485.609,2.408,2.408,0,0,0,1.477-.521Z"/><path d="M53.917,85.34h-.961V84.4h-.023a2.012,2.012,0,0,1-1.846,1.078,1.973,1.973,0,0,1-1.4-.475,1.644,1.644,0,0,1-.507-1.26q0-1.682,1.98-1.957l1.8-.252q0-1.529-1.236-1.529a2.954,2.954,0,0,0-1.957.738v-.984A3.718,3.718,0,0,1,51.8,79.2q2.115,0,2.115,2.238ZM52.956,82.3l-1.447.2a2.35,2.35,0,0,0-1.008.331.955.955,0,0,0-.34.841.916.916,0,0,0,.313.718,1.211,1.211,0,0,0,.835.278,1.542,1.542,0,0,0,1.181-.5,1.79,1.79,0,0,0,.466-1.269Z"/><path d="M56.52,85.34h-.961V76.457h.961Z"/><path d="M62.529,82.164V85.34h-.984v-8.4h2.309a3.047,3.047,0,0,1,2.089.656,2.343,2.343,0,0,1,.741,1.852A2.547,2.547,0,0,1,65.86,81.4a3.145,3.145,0,0,1-2.224.762Zm0-4.336v3.445h1.031a2.306,2.306,0,0,0,1.556-.466,1.649,1.649,0,0,0,.536-1.315q0-1.664-1.969-1.664Z"/><path d="M71.854,85.34h-.961V84.4h-.023a2.012,2.012,0,0,1-1.846,1.078,1.973,1.973,0,0,1-1.4-.475,1.644,1.644,0,0,1-.507-1.26q0-1.682,1.98-1.957l1.8-.252q0-1.529-1.236-1.529a2.954,2.954,0,0,0-1.957.738v-.984a3.718,3.718,0,0,1,2.039-.562q2.115,0,2.115,2.238ZM70.893,82.3l-1.447.2a2.35,2.35,0,0,0-1.008.331.955.955,0,0,0-.34.841.916.916,0,0,0,.313.718,1.211,1.211,0,0,0,.835.278,1.542,1.542,0,0,0,1.181-.5,1.79,1.79,0,0,0,.466-1.269Z"/><path d="M78.477,85.34h-.961V81.918q0-1.91-1.395-1.91a1.513,1.513,0,0,0-1.192.542,2.009,2.009,0,0,0-.472,1.368V85.34H73.5v-6h.961v1h.023A2.166,2.166,0,0,1,76.449,79.2a1.836,1.836,0,0,1,1.506.636,2.832,2.832,0,0,1,.521,1.837Z"/><path d="M84.941,82.58H80.705a2.244,2.244,0,0,0,.539,1.547,1.858,1.858,0,0,0,1.418.545A2.948,2.948,0,0,0,84.525,84v.9a3.482,3.482,0,0,1-2.092.574,2.536,2.536,0,0,1-2-.817,3.346,3.346,0,0,1-.727-2.3,3.281,3.281,0,0,1,.794-2.282,2.546,2.546,0,0,1,1.972-.882,2.256,2.256,0,0,1,1.822.762,3.176,3.176,0,0,1,.645,2.115Zm-.984-.814a1.955,1.955,0,0,0-.4-1.295,1.368,1.368,0,0,0-1.1-.463,1.552,1.552,0,0,0-1.154.486,2.207,2.207,0,0,0-.586,1.271Z"/><path d="M87.188,85.34h-.961V76.457h.961Z"/><path d="M96.572,85.34H92.213v-8.4H93.2v7.512h3.375Z"/><path d="M101.859,85.34H100.9V84.4h-.023a2.012,2.012,0,0,1-1.846,1.078,1.973,1.973,0,0,1-1.4-.475,1.644,1.644,0,0,1-.507-1.26q0-1.682,1.98-1.957l1.8-.252q0-1.529-1.236-1.529a2.954,2.954,0,0,0-1.957.738v-.984a3.718,3.718,0,0,1,2.039-.562q2.115,0,2.115,2.238ZM100.9,82.3l-1.447.2a2.35,2.35,0,0,0-1.008.331.955.955,0,0,0-.34.841.916.916,0,0,0,.313.718,1.211,1.211,0,0,0,.835.278,1.542,1.542,0,0,0,1.181-.5A1.79,1.79,0,0,0,100.9,82.9Z"/><path d="M108.277,79.34l-2.76,6.961q-.738,1.863-2.074,1.863a2.2,2.2,0,0,1-.627-.076v-.861a1.781,1.781,0,0,0,.568.105,1.178,1.178,0,0,0,1.09-.867l.48-1.137-2.344-5.988h1.066l1.623,4.617q.029.088.123.457h.035q.029-.141.117-.445l1.705-4.629Z"/><path d="M111.648,85.48a2.783,2.783,0,0,1-2.124-.841,3.114,3.114,0,0,1-.794-2.229,3.244,3.244,0,0,1,.826-2.361,2.97,2.97,0,0,1,2.232-.85,2.691,2.691,0,0,1,2.095.826,3.276,3.276,0,0,1,.753,2.291,3.223,3.223,0,0,1-.812,2.3A2.844,2.844,0,0,1,111.648,85.48Zm.07-5.473a1.828,1.828,0,0,0-1.465.63,2.587,2.587,0,0,0-.539,1.737,2.447,2.447,0,0,0,.545,1.682,1.852,1.852,0,0,0,1.459.615,1.757,1.757,0,0,0,1.433-.6,2.619,2.619,0,0,0,.5-1.717,2.664,2.664,0,0,0-.5-1.734A1.749,1.749,0,0,0,111.719,80.008Z"/><path d="M120.855,85.34h-.961v-.949h-.023a1.973,1.973,0,0,1-1.852,1.09q-2.145,0-2.145-2.555V79.34h.955v3.434q0,1.9,1.453,1.9a1.47,1.47,0,0,0,1.157-.519,1.984,1.984,0,0,0,.454-1.356V79.34h.961Z"/><path d="M125.41,85.281a1.853,1.853,0,0,1-.9.188q-1.576,0-1.576-1.758V80.16h-1.031v-.82h1.031V77.875l.961-.311V79.34h1.512v.82H123.9v3.381a1.4,1.4,0,0,0,.205.861.818.818,0,0,0,.68.258,1.01,1.01,0,0,0,.627-.2Z"/><polygon points="427.36 132.65 428.387 133.676 430.441 160.378 426.874 162.972 408.412 148.054 427.36 132.65" fill="#00188f"/><circle cx="442.765" cy="148.054" r="21.785" fill="#0078d7"/><path d="M441.959,148.711h-7.486v-1.417h8.061Zm7.308,1.417h4.64l-9.922,9.922h-2.868l2.835-5.67h-2.735l3.411-8.5H452.1Zm-2.658,1.417,2.835-4.252H445.58l-2.259,5.67h2.934l-2.813,5.625,7.032-7.043Zm-12.136,0h6.356l.565-1.417h-6.921Zm-2.835-12.756V154.38H439.7l.565-1.417h-7.209V140.206H452.9v8.5h1.417v-9.922Z" fill="#fff"/><path d="M491.308,146.379h-1.635l-1.336-3.533h-5.344l-1.257,3.533h-1.644l4.834-12.6h1.529Zm-3.454-4.86-1.978-5.37a5.142,5.142,0,0,1-.193-.844h-.035a4.708,4.708,0,0,1-.2.844l-1.96,5.37Z"/><path d="M499.994,146.379h-1.441v-1.424h-.035a2.96,2.96,0,0,1-2.777,1.635q-3.217,0-3.217-3.832v-5.379h1.433v5.15q0,2.848,2.18,2.848a2.205,2.205,0,0,0,1.736-.778,2.976,2.976,0,0,0,.681-2.035v-5.186h1.441Z"/><path d="M510.333,145.659q0,4.957-4.746,4.957a6.372,6.372,0,0,1-2.918-.633v-1.441a5.993,5.993,0,0,0,2.9.844q3.322,0,3.322-3.533v-.984h-.035a3.641,3.641,0,0,1-5.8.523,4.8,4.8,0,0,1-1.024-3.221,5.6,5.6,0,0,1,1.1-3.647,3.685,3.685,0,0,1,3.019-1.354,2.934,2.934,0,0,1,2.7,1.459h.035v-1.248h1.441Zm-1.441-3.349v-1.327a2.575,2.575,0,0,0-.725-1.837,2.387,2.387,0,0,0-1.806-.765,2.5,2.5,0,0,0-2.092.971,4.335,4.335,0,0,0-.756,2.72,3.721,3.721,0,0,0,.725,2.4,2.343,2.343,0,0,0,1.92.9,2.509,2.509,0,0,0,1.973-.861A3.21,3.21,0,0,0,508.892,142.31Z"/><path d="M523,137.081a2.606,2.606,0,0,0-.18-1.011,1.957,1.957,0,0,0-1.226-1.143,2.874,2.874,0,0,0-.914-.141,3.023,3.023,0,0,0-.826.114,4.016,4.016,0,0,0-.787.316,4.839,4.839,0,0,0-.738.483,5.333,5.333,0,0,0-.664.624v-1.547a4.309,4.309,0,0,1,1.358-.9,4.781,4.781,0,0,1,1.833-.312,4.424,4.424,0,0,1,1.433.224,3.285,3.285,0,0,1,1.143.655,3.027,3.027,0,0,1,.76,1.063,3.587,3.587,0,0,1,.277,1.45,4.973,4.973,0,0,1-.171,1.354,4.186,4.186,0,0,1-.519,1.143,5.513,5.513,0,0,1-.875,1.028,12.388,12.388,0,0,1-1.239,1q-.888.633-1.463,1.081a6.469,6.469,0,0,0-.914.839,2.436,2.436,0,0,0-.475.782,2.734,2.734,0,0,0-.136.9h6.275v1.292h-7.778v-.624a5.2,5.2,0,0,1,.176-1.424,3.7,3.7,0,0,1,.58-1.169,6.487,6.487,0,0,1,1.059-1.107q.655-.554,1.6-1.248a10.141,10.141,0,0,0,1.147-.94,4.889,4.889,0,0,0,.743-.9,3.22,3.22,0,0,0,.4-.91A3.922,3.922,0,0,0,523,137.081Z"/><path d="M534.635,140.025a12.381,12.381,0,0,1-.286,2.8,6.533,6.533,0,0,1-.826,2.061,3.718,3.718,0,0,1-1.327,1.274,3.633,3.633,0,0,1-1.789.435,3.393,3.393,0,0,1-1.692-.417,3.546,3.546,0,0,1-1.252-1.217,6.17,6.17,0,0,1-.773-1.964,12.146,12.146,0,0,1-.264-2.667,13.749,13.749,0,0,1,.277-2.918,6.674,6.674,0,0,1,.813-2.123A3.619,3.619,0,0,1,528.847,134a3.739,3.739,0,0,1,1.824-.435Q534.635,133.565,534.635,140.025Zm-1.477.141q0-5.379-2.558-5.379-2.7,0-2.7,5.476,0,5.106,2.646,5.106Q533.158,145.369,533.158,140.166Z"/><path d="M541.484,146.379h-1.441V135.49a3.336,3.336,0,0,1-.488.382,7.951,7.951,0,0,1-.721.426q-.4.211-.844.4a6.132,6.132,0,0,1-.866.29v-1.459a8.379,8.379,0,0,0,1.006-.356q.532-.224,1.046-.5t.971-.58a7.71,7.71,0,0,0,.791-.593h.545Z"/><path d="M553.449,134.611q-.29.5-.7,1.248t-.866,1.679q-.457.932-.932,2t-.888,2.215q-.413,1.143-.725,2.316a17.229,17.229,0,0,0-.453,2.307H547.34a17.526,17.526,0,0,1,.488-2.3q.33-1.173.747-2.3t.883-2.175q.466-1.046.905-1.925t.8-1.551q.365-.672.584-1.05h-6.319v-1.3h8.016Z"/><path d="M483.151,162.833a3.755,3.755,0,0,1-.633,2.323,2.022,2.022,0,0,1-1.693.829,2,2,0,0,1-.809-.141v-.973a1.368,1.368,0,0,0,.82.229q1.33,0,1.33-2.256v-5.4h.984Z"/><path d="M484.724,165.5v-1.16a2.253,2.253,0,0,0,.478.316,3.869,3.869,0,0,0,.586.237,4.664,4.664,0,0,0,.618.149,3.447,3.447,0,0,0,.574.053,2.249,2.249,0,0,0,1.356-.337,1.264,1.264,0,0,0,.3-1.562,1.683,1.683,0,0,0-.413-.46,4.1,4.1,0,0,0-.624-.4q-.36-.19-.776-.4-.439-.223-.82-.451a3.555,3.555,0,0,1-.662-.5,2.1,2.1,0,0,1-.442-.624,2.127,2.127,0,0,1,.091-1.816,2.161,2.161,0,0,1,.662-.7,3,3,0,0,1,.935-.41,4.279,4.279,0,0,1,1.069-.135,4.1,4.1,0,0,1,1.811.3v1.107a3.282,3.282,0,0,0-1.91-.516,3.142,3.142,0,0,0-.645.067,1.821,1.821,0,0,0-.574.22,1.272,1.272,0,0,0-.41.393,1.042,1.042,0,0,0-.158.586,1.206,1.206,0,0,0,.12.557,1.364,1.364,0,0,0,.354.428,3.531,3.531,0,0,0,.571.375q.337.182.776.4t.855.469a3.91,3.91,0,0,1,.709.545,2.422,2.422,0,0,1,.483.662,1.861,1.861,0,0,1,.179.832,2.11,2.11,0,0,1-.243,1.052,2,2,0,0,1-.656.7,2.866,2.866,0,0,1-.952.39,5.215,5.215,0,0,1-1.137.12,4.632,4.632,0,0,1-.492-.032q-.293-.032-.6-.094a4.877,4.877,0,0,1-.577-.152A1.8,1.8,0,0,1,484.724,165.5Z"/><path d="M494.985,157.442l-4.031,9.8h-.9l4.02-9.8Z"/><path d="M500.8,158.333h-2.426v7.512h-.984v-7.512h-2.42v-.891h5.83Z"/><path d="M501.323,165.5v-1.16a2.253,2.253,0,0,0,.478.316,3.869,3.869,0,0,0,.586.237,4.664,4.664,0,0,0,.618.149,3.447,3.447,0,0,0,.574.053,2.249,2.249,0,0,0,1.356-.337,1.264,1.264,0,0,0,.3-1.562,1.683,1.683,0,0,0-.413-.46,4.1,4.1,0,0,0-.624-.4q-.36-.19-.776-.4-.439-.223-.82-.451a3.555,3.555,0,0,1-.662-.5,2.1,2.1,0,0,1-.442-.624,2.127,2.127,0,0,1,.091-1.816,2.161,2.161,0,0,1,.662-.7,3,3,0,0,1,.935-.41,4.279,4.279,0,0,1,1.069-.135,4.1,4.1,0,0,1,1.811.3v1.107a3.282,3.282,0,0,0-1.91-.516,3.142,3.142,0,0,0-.645.067,1.821,1.821,0,0,0-.574.22,1.272,1.272,0,0,0-.41.393,1.042,1.042,0,0,0-.158.586,1.206,1.206,0,0,0,.12.557,1.364,1.364,0,0,0,.354.428,3.531,3.531,0,0,0,.571.375q.337.182.776.4t.855.469a3.91,3.91,0,0,1,.709.545,2.422,2.422,0,0,1,.483.662,1.861,1.861,0,0,1,.179.832,2.11,2.11,0,0,1-.243,1.052,2,2,0,0,1-.656.7,2.866,2.866,0,0,1-.952.39,5.215,5.215,0,0,1-1.137.12,4.632,4.632,0,0,1-.492-.032q-.293-.032-.6-.094a4.877,4.877,0,0,1-.577-.152A1.8,1.8,0,0,1,501.323,165.5Z"/><path d="M517.065,165.845h-1.172l-1.406-2.355a5.13,5.13,0,0,0-.375-.56,2.138,2.138,0,0,0-.372-.378,1.289,1.289,0,0,0-.41-.214,1.687,1.687,0,0,0-.5-.067h-.809v3.574h-.984v-8.4h2.508a3.574,3.574,0,0,1,1.017.138,2.275,2.275,0,0,1,.809.419,1.947,1.947,0,0,1,.536.7,2.322,2.322,0,0,1,.193.981,2.363,2.363,0,0,1-.132.806,2.1,2.1,0,0,1-.375.653,2.273,2.273,0,0,1-.586.489,2.991,2.991,0,0,1-.771.313v.023a1.772,1.772,0,0,1,.366.214,2.015,2.015,0,0,1,.3.284,3.764,3.764,0,0,1,.278.372q.138.208.308.483Zm-5.039-7.512v3.047h1.336a2.026,2.026,0,0,0,.683-.111,1.58,1.58,0,0,0,.542-.319,1.448,1.448,0,0,0,.357-.51,1.707,1.707,0,0,0,.129-.677,1.317,1.317,0,0,0-.437-1.052,1.875,1.875,0,0,0-1.263-.378Z"/><path d="M522.394,163.085h-4.236a2.244,2.244,0,0,0,.539,1.547,1.858,1.858,0,0,0,1.418.545,2.948,2.948,0,0,0,1.863-.668v.9a3.482,3.482,0,0,1-2.092.574,2.536,2.536,0,0,1-2-.817,3.346,3.346,0,0,1-.727-2.3,3.281,3.281,0,0,1,.794-2.282,2.546,2.546,0,0,1,1.972-.882,2.256,2.256,0,0,1,1.822.762,3.176,3.176,0,0,1,.645,2.115Zm-.984-.814a1.955,1.955,0,0,0-.4-1.295,1.368,1.368,0,0,0-1.1-.463,1.552,1.552,0,0,0-1.154.486,2.207,2.207,0,0,0-.586,1.271Z"/><path d="M526.643,157.806a1.28,1.28,0,0,0-.639-.158q-1.008,0-1.008,1.271v.926H526.4v.82H525v5.18h-.955v-5.18h-1.025v-.82h1.025v-.973a2.021,2.021,0,0,1,.545-1.491,1.84,1.84,0,0,1,1.359-.548,1.883,1.883,0,0,1,.7.105Z"/><path d="M531.561,165.845H530.6v-.937h-.023a2.012,2.012,0,0,1-1.846,1.078,1.973,1.973,0,0,1-1.4-.475,1.644,1.644,0,0,1-.507-1.26q0-1.682,1.98-1.957l1.8-.252q0-1.529-1.236-1.529a2.954,2.954,0,0,0-1.957.738v-.984a3.718,3.718,0,0,1,2.039-.562q2.115,0,2.115,2.238Zm-.961-3.035-1.447.2a2.35,2.35,0,0,0-1.008.331.955.955,0,0,0-.34.841.916.916,0,0,0,.313.718,1.211,1.211,0,0,0,.835.278,1.542,1.542,0,0,0,1.181-.5,1.79,1.79,0,0,0,.466-1.269Z"/><path d="M537.293,165.569a3.122,3.122,0,0,1-1.641.416,2.716,2.716,0,0,1-2.071-.835,3.026,3.026,0,0,1-.788-2.165,3.326,3.326,0,0,1,.85-2.382,2.972,2.972,0,0,1,2.268-.9,3.156,3.156,0,0,1,1.395.293v.984a2.443,2.443,0,0,0-1.43-.469,1.932,1.932,0,0,0-1.509.659,2.5,2.5,0,0,0-.589,1.731,2.382,2.382,0,0,0,.554,1.664,1.909,1.909,0,0,0,1.485.609,2.408,2.408,0,0,0,1.477-.521Z"/><path d="M541.362,165.786a1.853,1.853,0,0,1-.9.188q-1.576,0-1.576-1.758v-3.551h-1.031v-.82h1.031V158.38l.961-.311v1.775h1.512v.82H539.85v3.381a1.4,1.4,0,0,0,.205.861.818.818,0,0,0,.68.258,1.01,1.01,0,0,0,.627-.2Z"/><path d="M544.985,165.985a2.783,2.783,0,0,1-2.124-.841,3.114,3.114,0,0,1-.794-2.229,3.244,3.244,0,0,1,.826-2.361,2.97,2.97,0,0,1,2.232-.85,2.691,2.691,0,0,1,2.095.826,3.276,3.276,0,0,1,.753,2.291,3.223,3.223,0,0,1-.812,2.3A2.844,2.844,0,0,1,544.985,165.985Zm.07-5.473a1.828,1.828,0,0,0-1.465.63,2.587,2.587,0,0,0-.539,1.737,2.447,2.447,0,0,0,.545,1.682,1.852,1.852,0,0,0,1.459.615,1.757,1.757,0,0,0,1.433-.6,2.619,2.619,0,0,0,.5-1.717,2.664,2.664,0,0,0-.5-1.734A1.749,1.749,0,0,0,545.055,160.513Z"/><path d="M552.469,160.817a1.175,1.175,0,0,0-.727-.193,1.226,1.226,0,0,0-1.028.58,2.682,2.682,0,0,0-.413,1.582v3.059h-.961v-6h.961v1.236h.023a2.1,2.1,0,0,1,.627-.987,1.43,1.43,0,0,1,.943-.354,1.569,1.569,0,0,1,.574.082Z"/><path d="M553.836,158.321a.609.609,0,0,1-.439-.176.593.593,0,0,1-.182-.445.615.615,0,0,1,.621-.627.621.621,0,0,1,.448.179.626.626,0,0,1,0,.888A.615.615,0,0,1,553.836,158.321Zm.469,7.523h-.961v-6h.961Z"/><path d="M561.063,165.845H560.1v-3.422q0-1.91-1.395-1.91a1.513,1.513,0,0,0-1.192.542,2.009,2.009,0,0,0-.472,1.368v3.422h-.961v-6h.961v1h.023a2.166,2.166,0,0,1,1.969-1.137,1.836,1.836,0,0,1,1.506.636,2.832,2.832,0,0,1,.521,1.837Z"/><path d="M567.827,165.364q0,3.3-3.164,3.3a4.248,4.248,0,0,1-1.945-.422v-.961a4,4,0,0,0,1.934.563q2.215,0,2.215-2.355v-.656h-.023a2.428,2.428,0,0,1-3.864.349,3.2,3.2,0,0,1-.683-2.147,3.735,3.735,0,0,1,.735-2.432,2.457,2.457,0,0,1,2.013-.9,1.956,1.956,0,0,1,1.8.973h.023v-.832h.961Zm-.961-2.232v-.885a1.717,1.717,0,0,0-.483-1.225,1.591,1.591,0,0,0-1.2-.51,1.669,1.669,0,0,0-1.395.647,2.89,2.89,0,0,0-.5,1.813,2.481,2.481,0,0,0,.483,1.6,1.562,1.562,0,0,0,1.28.6,1.673,1.673,0,0,0,1.315-.574A2.14,2.14,0,0,0,566.866,163.132Z"/><path d="M75.021,148.651H73.386l-1.336-3.533H66.707l-1.257,3.533H63.806l4.834-12.6h1.529Zm-3.454-4.86-1.978-5.37a5.142,5.142,0,0,1-.193-.844h-.035a4.708,4.708,0,0,1-.2.844l-1.96,5.37Z"/><path d="M77.907,147.351h-.035v5.44H76.43v-13.14h1.441v1.582h.035a3.408,3.408,0,0,1,3.111-1.793,3.3,3.3,0,0,1,2.716,1.208,5.005,5.005,0,0,1,.976,3.239,5.578,5.578,0,0,1-1.1,3.617,3.658,3.658,0,0,1-3.006,1.358A3.011,3.011,0,0,1,77.907,147.351Zm-.035-3.63v1.257a2.676,2.676,0,0,0,.725,1.894,2.587,2.587,0,0,0,3.894-.224,4.6,4.6,0,0,0,.743-2.786,3.629,3.629,0,0,0-.694-2.355,2.3,2.3,0,0,0-1.881-.853,2.554,2.554,0,0,0-2.021.875A3.211,3.211,0,0,0,77.872,143.721Z"/><path d="M91.454,141.11a1.763,1.763,0,0,0-1.09-.29,1.839,1.839,0,0,0-1.542.87,4.023,4.023,0,0,0-.62,2.373v4.588H86.76v-9H88.2v1.854h.035a3.143,3.143,0,0,1,.94-1.481,2.144,2.144,0,0,1,1.415-.532,2.353,2.353,0,0,1,.861.123Z"/><path d="M102.771,139.353a2.606,2.606,0,0,0-.18-1.011,1.957,1.957,0,0,0-1.226-1.143,2.874,2.874,0,0,0-.914-.141,3.023,3.023,0,0,0-.826.114,4.016,4.016,0,0,0-.787.316,4.839,4.839,0,0,0-.738.483,5.333,5.333,0,0,0-.664.624V137.05a4.309,4.309,0,0,1,1.358-.9,4.781,4.781,0,0,1,1.833-.312,4.424,4.424,0,0,1,1.433.224,3.285,3.285,0,0,1,1.143.655,3.027,3.027,0,0,1,.76,1.063,3.587,3.587,0,0,1,.277,1.45,4.973,4.973,0,0,1-.171,1.354,4.186,4.186,0,0,1-.519,1.143,5.513,5.513,0,0,1-.875,1.028,12.388,12.388,0,0,1-1.239,1q-.888.633-1.463,1.081a6.469,6.469,0,0,0-.914.839,2.436,2.436,0,0,0-.475.782,2.734,2.734,0,0,0-.136.9h6.275v1.292H96.944v-.624a5.2,5.2,0,0,1,.176-1.424,3.7,3.7,0,0,1,.58-1.169,6.487,6.487,0,0,1,1.059-1.107q.655-.554,1.6-1.248a10.141,10.141,0,0,0,1.147-.94,4.889,4.889,0,0,0,.743-.9,3.22,3.22,0,0,0,.4-.91A3.922,3.922,0,0,0,102.771,139.353Z"/><path d="M114.4,142.3a12.381,12.381,0,0,1-.286,2.8,6.533,6.533,0,0,1-.826,2.061,3.718,3.718,0,0,1-1.327,1.274,3.633,3.633,0,0,1-1.789.435,3.393,3.393,0,0,1-1.692-.417,3.546,3.546,0,0,1-1.252-1.217,6.17,6.17,0,0,1-.773-1.964,12.146,12.146,0,0,1-.264-2.667,13.749,13.749,0,0,1,.277-2.918,6.674,6.674,0,0,1,.813-2.123,3.619,3.619,0,0,1,1.332-1.292,3.739,3.739,0,0,1,1.824-.435Q114.4,135.837,114.4,142.3Zm-1.477.141q0-5.379-2.558-5.379-2.7,0-2.7,5.476,0,5.106,2.646,5.106Q112.925,147.641,112.925,142.438Z"/><path d="M121.251,148.651H119.81v-10.89a3.336,3.336,0,0,1-.488.382,7.951,7.951,0,0,1-.721.426q-.4.211-.844.4a6.132,6.132,0,0,1-.866.29V137.8a8.379,8.379,0,0,0,1.006-.356q.532-.224,1.046-.5t.971-.58a7.71,7.71,0,0,0,.791-.593h.545Z"/><path d="M133.216,136.883q-.29.5-.7,1.248t-.866,1.679q-.457.932-.932,2t-.888,2.215q-.413,1.143-.725,2.316a17.229,17.229,0,0,0-.453,2.307h-1.547a17.526,17.526,0,0,1,.488-2.3q.33-1.173.747-2.3t.883-2.175q.466-1.046.905-1.925t.8-1.551q.365-.672.584-1.05H125.2v-1.3h8.016Z"/><path d="M11.92,167.777v-1.16a2.253,2.253,0,0,0,.478.316,3.869,3.869,0,0,0,.586.237,4.664,4.664,0,0,0,.618.149,3.447,3.447,0,0,0,.574.053,2.249,2.249,0,0,0,1.356-.337,1.264,1.264,0,0,0,.3-1.562,1.683,1.683,0,0,0-.413-.46,4.1,4.1,0,0,0-.624-.4q-.36-.19-.776-.4-.439-.223-.82-.451a3.555,3.555,0,0,1-.662-.5,2.1,2.1,0,0,1-.442-.624,2.127,2.127,0,0,1,.091-1.816,2.161,2.161,0,0,1,.662-.7,3,3,0,0,1,.935-.41,4.279,4.279,0,0,1,1.069-.135,4.1,4.1,0,0,1,1.811.3v1.107a3.282,3.282,0,0,0-1.91-.516,3.142,3.142,0,0,0-.645.067,1.821,1.821,0,0,0-.574.22,1.272,1.272,0,0,0-.41.393,1.042,1.042,0,0,0-.158.586,1.206,1.206,0,0,0,.12.557,1.364,1.364,0,0,0,.354.428,3.531,3.531,0,0,0,.571.375q.337.182.776.4t.855.469a3.91,3.91,0,0,1,.709.545,2.422,2.422,0,0,1,.483.662,1.861,1.861,0,0,1,.179.832,2.11,2.11,0,0,1-.243,1.052,2,2,0,0,1-.656.7,2.866,2.866,0,0,1-.952.39,5.215,5.215,0,0,1-1.137.12,4.632,4.632,0,0,1-.492-.032q-.293-.032-.6-.094a4.877,4.877,0,0,1-.577-.152A1.8,1.8,0,0,1,11.92,167.777Z"/><path d="M20.9,168.257a2.783,2.783,0,0,1-2.124-.841,3.114,3.114,0,0,1-.794-2.229,3.244,3.244,0,0,1,.826-2.361,2.97,2.97,0,0,1,2.232-.85,2.691,2.691,0,0,1,2.095.826,3.276,3.276,0,0,1,.753,2.291,3.223,3.223,0,0,1-.812,2.3A2.844,2.844,0,0,1,20.9,168.257Zm.07-5.473a1.828,1.828,0,0,0-1.465.63,2.587,2.587,0,0,0-.539,1.737,2.447,2.447,0,0,0,.545,1.682,1.852,1.852,0,0,0,1.459.615,1.757,1.757,0,0,0,1.433-.6,2.619,2.619,0,0,0,.5-1.717,2.664,2.664,0,0,0-.5-1.734A1.749,1.749,0,0,0,20.969,162.785Z"/><path d="M30.106,168.117h-.961v-.949h-.023a1.973,1.973,0,0,1-1.852,1.09q-2.145,0-2.145-2.555v-3.586h.955v3.434q0,1.9,1.453,1.9a1.47,1.47,0,0,0,1.157-.519,1.984,1.984,0,0,0,.454-1.356v-3.457h.961Z"/><path d="M35.006,163.089a1.175,1.175,0,0,0-.727-.193,1.226,1.226,0,0,0-1.028.58,2.682,2.682,0,0,0-.413,1.582v3.059h-.961v-6h.961v1.236h.023a2.1,2.1,0,0,1,.627-.987,1.43,1.43,0,0,1,.943-.354,1.569,1.569,0,0,1,.574.082Z"/><path d="M39.971,167.841a3.122,3.122,0,0,1-1.641.416,2.716,2.716,0,0,1-2.071-.835,3.026,3.026,0,0,1-.788-2.165,3.326,3.326,0,0,1,.85-2.382,2.972,2.972,0,0,1,2.268-.9,3.156,3.156,0,0,1,1.395.293v.984a2.443,2.443,0,0,0-1.43-.469,1.932,1.932,0,0,0-1.509.659,2.5,2.5,0,0,0-.589,1.731,2.382,2.382,0,0,0,.554,1.664,1.909,1.909,0,0,0,1.485.609,2.408,2.408,0,0,0,1.477-.521Z"/><path d="M46.079,165.357H41.842a2.244,2.244,0,0,0,.539,1.547,1.858,1.858,0,0,0,1.418.545,2.948,2.948,0,0,0,1.863-.668v.9a3.482,3.482,0,0,1-2.092.574,2.536,2.536,0,0,1-2-.817,3.346,3.346,0,0,1-.727-2.3,3.281,3.281,0,0,1,.794-2.282,2.546,2.546,0,0,1,1.972-.882,2.256,2.256,0,0,1,1.822.762,3.176,3.176,0,0,1,.645,2.115Zm-.984-.814a1.955,1.955,0,0,0-.4-1.295,1.368,1.368,0,0,0-1.1-.463,1.552,1.552,0,0,0-1.154.486,2.207,2.207,0,0,0-.586,1.271Z"/><path d="M56.331,167.765a4.928,4.928,0,0,1-2.32.492,3.742,3.742,0,0,1-2.871-1.154,4.259,4.259,0,0,1-1.078-3.029,4.464,4.464,0,0,1,1.213-3.258,4.117,4.117,0,0,1,3.076-1.242,4.932,4.932,0,0,1,1.98.346v1.049a4.016,4.016,0,0,0-1.992-.5,3.057,3.057,0,0,0-2.347.967,3.642,3.642,0,0,0-.9,2.584,3.465,3.465,0,0,0,.841,2.446,2.861,2.861,0,0,0,2.206.911,4.139,4.139,0,0,0,2.191-.562Z"/><path d="M60.252,168.257a2.783,2.783,0,0,1-2.124-.841,3.114,3.114,0,0,1-.794-2.229,3.244,3.244,0,0,1,.826-2.361,2.97,2.97,0,0,1,2.232-.85,2.691,2.691,0,0,1,2.095.826,3.276,3.276,0,0,1,.753,2.291,3.223,3.223,0,0,1-.812,2.3A2.844,2.844,0,0,1,60.252,168.257Zm.07-5.473a1.828,1.828,0,0,0-1.465.63,2.587,2.587,0,0,0-.539,1.737,2.447,2.447,0,0,0,.545,1.682,1.852,1.852,0,0,0,1.459.615,1.757,1.757,0,0,0,1.433-.6,2.619,2.619,0,0,0,.5-1.717,2.664,2.664,0,0,0-.5-1.734A1.749,1.749,0,0,0,60.322,162.785Z"/><path d="M69.588,168.117h-.961v-3.422q0-1.91-1.395-1.91a1.513,1.513,0,0,0-1.192.542,2.009,2.009,0,0,0-.472,1.368v3.422h-.961v-6h.961v1h.023a2.166,2.166,0,0,1,1.969-1.137,1.836,1.836,0,0,1,1.506.636,2.832,2.832,0,0,1,.521,1.837Z"/><path d="M74.014,168.058a1.853,1.853,0,0,1-.9.188q-1.576,0-1.576-1.758v-3.551H70.51v-.82h1.031v-1.465l.961-.311v1.775h1.512v.82H72.5v3.381a1.4,1.4,0,0,0,.205.861.818.818,0,0,0,.68.258,1.01,1.01,0,0,0,.627-.2Z"/><path d="M78.258,163.089a1.175,1.175,0,0,0-.727-.193,1.226,1.226,0,0,0-1.028.58,2.682,2.682,0,0,0-.413,1.582v3.059h-.961v-6h.961v1.236h.023a2.1,2.1,0,0,1,.627-.987,1.43,1.43,0,0,1,.943-.354,1.569,1.569,0,0,1,.574.082Z"/><path d="M81.641,168.257a2.783,2.783,0,0,1-2.124-.841,3.114,3.114,0,0,1-.794-2.229,3.244,3.244,0,0,1,.826-2.361,2.97,2.97,0,0,1,2.232-.85,2.691,2.691,0,0,1,2.095.826,3.276,3.276,0,0,1,.753,2.291,3.223,3.223,0,0,1-.812,2.3A2.844,2.844,0,0,1,81.641,168.257Zm.07-5.473a1.828,1.828,0,0,0-1.465.63,2.587,2.587,0,0,0-.539,1.737,2.447,2.447,0,0,0,.545,1.682,1.852,1.852,0,0,0,1.459.615,1.757,1.757,0,0,0,1.433-.6,2.619,2.619,0,0,0,.5-1.717,2.664,2.664,0,0,0-.5-1.734A1.749,1.749,0,0,0,81.711,162.785Z"/><path d="M86.957,168.117H86v-8.883h.961Z"/><path d="M92.967,164.941v3.176h-.984v-8.4h2.309a3.047,3.047,0,0,1,2.089.656,2.343,2.343,0,0,1,.741,1.852,2.547,2.547,0,0,1-.823,1.957,3.145,3.145,0,0,1-2.224.762Zm0-4.336v3.445H94a2.306,2.306,0,0,0,1.556-.466,1.649,1.649,0,0,0,.536-1.315q0-1.664-1.969-1.664Z"/><path d="M101.535,163.089a1.175,1.175,0,0,0-.727-.193,1.226,1.226,0,0,0-1.028.58,2.682,2.682,0,0,0-.413,1.582v3.059h-.961v-6h.961v1.236h.023a2.1,2.1,0,0,1,.627-.987,1.43,1.43,0,0,1,.943-.354,1.569,1.569,0,0,1,.574.082Z"/><path d="M104.918,168.257a2.783,2.783,0,0,1-2.124-.841,3.114,3.114,0,0,1-.794-2.229,3.244,3.244,0,0,1,.826-2.361,2.97,2.97,0,0,1,2.232-.85,2.691,2.691,0,0,1,2.095.826,3.276,3.276,0,0,1,.753,2.291,3.223,3.223,0,0,1-.812,2.3A2.844,2.844,0,0,1,104.918,168.257Zm.07-5.473a1.828,1.828,0,0,0-1.465.63,2.587,2.587,0,0,0-.539,1.737,2.447,2.447,0,0,0,.545,1.682,1.852,1.852,0,0,0,1.459.615,1.757,1.757,0,0,0,1.433-.6,2.619,2.619,0,0,0,.5-1.717,2.664,2.664,0,0,0-.5-1.734A1.749,1.749,0,0,0,104.988,162.785Z"/><path d="M113.99,162.117l-2.391,6h-.943l-2.273-6h1.055l1.523,4.359a3.913,3.913,0,0,1,.211.838h.023a3.962,3.962,0,0,1,.188-.814l1.594-4.383Z"/><path d="M115.346,160.593a.609.609,0,0,1-.439-.176.593.593,0,0,1-.182-.445.615.615,0,0,1,.621-.627.621.621,0,0,1,.448.179.626.626,0,0,1,0,.888A.615.615,0,0,1,115.346,160.593Zm.469,7.523h-.961v-6h.961Z"/><path d="M122.713,168.117h-.961V167.1h-.023a2.218,2.218,0,0,1-2.062,1.16,2.241,2.241,0,0,1-1.808-.806,3.305,3.305,0,0,1-.677-2.194,3.6,3.6,0,0,1,.75-2.385,2.474,2.474,0,0,1,2-.9,1.923,1.923,0,0,1,1.8.973h.023v-3.715h.961Zm-.961-2.713v-.885a1.717,1.717,0,0,0-.48-1.23,1.612,1.612,0,0,0-1.219-.5,1.659,1.659,0,0,0-1.383.645,2.824,2.824,0,0,0-.5,1.781,2.54,2.54,0,0,0,.483,1.638,1.58,1.58,0,0,0,1.3.6,1.641,1.641,0,0,0,1.3-.58A2.161,2.161,0,0,0,121.752,165.4Z"/><path d="M129.313,165.357h-4.236a2.244,2.244,0,0,0,.539,1.547,1.858,1.858,0,0,0,1.418.545,2.948,2.948,0,0,0,1.863-.668v.9a3.482,3.482,0,0,1-2.092.574,2.536,2.536,0,0,1-2-.817,3.346,3.346,0,0,1-.727-2.3,3.281,3.281,0,0,1,.794-2.282,2.546,2.546,0,0,1,1.972-.882,2.256,2.256,0,0,1,1.822.762,3.176,3.176,0,0,1,.645,2.115Zm-.984-.814a1.955,1.955,0,0,0-.4-1.295,1.368,1.368,0,0,0-1.1-.463,1.552,1.552,0,0,0-1.154.486,2.207,2.207,0,0,0-.586,1.271Z"/><path d="M133.727,163.089A1.175,1.175,0,0,0,133,162.9a1.226,1.226,0,0,0-1.028.58,2.682,2.682,0,0,0-.413,1.582v3.059H130.6v-6h.961v1.236h.023a2.1,2.1,0,0,1,.627-.987,1.43,1.43,0,0,1,.943-.354,1.569,1.569,0,0,1,.574.082Z"/><path d="M134.238,167.9v-1.031a2.844,2.844,0,0,0,1.729.58q1.266,0,1.266-.844a.732.732,0,0,0-.108-.407,1.08,1.08,0,0,0-.293-.3,2.255,2.255,0,0,0-.434-.231q-.249-.1-.536-.214a6.9,6.9,0,0,1-.7-.319,2.115,2.115,0,0,1-.5-.363,1.352,1.352,0,0,1-.3-.46,1.627,1.627,0,0,1-.1-.6,1.434,1.434,0,0,1,.193-.747,1.715,1.715,0,0,1,.516-.545,2.4,2.4,0,0,1,.735-.331,3.262,3.262,0,0,1,.853-.111,3.442,3.442,0,0,1,1.395.27v.973a2.718,2.718,0,0,0-1.523-.434,1.781,1.781,0,0,0-.486.062,1.191,1.191,0,0,0-.372.173.8.8,0,0,0-.24.267.7.7,0,0,0-.085.343.822.822,0,0,0,.085.393.864.864,0,0,0,.249.281,1.9,1.9,0,0,0,.4.223q.234.1.533.217a7.421,7.421,0,0,1,.715.313,2.452,2.452,0,0,1,.539.363,1.42,1.42,0,0,1,.343.466,1.5,1.5,0,0,1,.12.627,1.478,1.478,0,0,1-.2.773,1.682,1.682,0,0,1-.524.545,2.4,2.4,0,0,1-.756.322,3.732,3.732,0,0,1-.9.105A3.4,3.4,0,0,1,134.238,167.9Z"/><path d="M462.777,322.57a5.633,5.633,0,0,1-.949,3.485,3.033,3.033,0,0,1-2.54,1.244,3,3,0,0,1-1.213-.211v-1.459a2.052,2.052,0,0,0,1.23.343q2,0,2-3.384v-8.1h1.477Z"/><path d="M471.974,327.087h-1.441v-1.406H470.5a3.018,3.018,0,0,1-2.769,1.617,2.959,2.959,0,0,1-2.1-.712,2.466,2.466,0,0,1-.76-1.89q0-2.522,2.971-2.936l2.7-.378q0-2.294-1.854-2.294a4.431,4.431,0,0,0-2.936,1.107V318.72a5.577,5.577,0,0,1,3.059-.844q3.173,0,3.173,3.357Zm-1.441-4.553-2.171.3a3.525,3.525,0,0,0-1.512.5,1.432,1.432,0,0,0-.51,1.261,1.374,1.374,0,0,0,.47,1.077,1.817,1.817,0,0,0,1.252.417,2.314,2.314,0,0,0,1.771-.751,2.685,2.685,0,0,0,.7-1.9Z"/><path d="M481.908,327.087h-1.441v-5.133q0-2.865-2.092-2.865a2.269,2.269,0,0,0-1.789.813,3.013,3.013,0,0,0-.708,2.052v5.133h-1.441v-9h1.441v1.494h.035a3.248,3.248,0,0,1,2.953-1.705,2.753,2.753,0,0,1,2.259.954,4.248,4.248,0,0,1,.782,2.755Z"/><path d="M494.377,317.789a2.606,2.606,0,0,0-.18-1.011,1.957,1.957,0,0,0-1.226-1.143,2.874,2.874,0,0,0-.914-.141,3.023,3.023,0,0,0-.826.114,4.016,4.016,0,0,0-.787.316,4.839,4.839,0,0,0-.738.483,5.333,5.333,0,0,0-.664.624v-1.547a4.309,4.309,0,0,1,1.358-.9,4.781,4.781,0,0,1,1.833-.312,4.424,4.424,0,0,1,1.433.224,3.285,3.285,0,0,1,1.143.655,3.027,3.027,0,0,1,.76,1.063,3.587,3.587,0,0,1,.277,1.45,4.973,4.973,0,0,1-.171,1.354,4.186,4.186,0,0,1-.519,1.143,5.513,5.513,0,0,1-.875,1.028,12.388,12.388,0,0,1-1.239,1q-.888.633-1.463,1.081a6.469,6.469,0,0,0-.914.839,2.436,2.436,0,0,0-.475.782,2.734,2.734,0,0,0-.136.9h6.275v1.292H488.55v-.624a5.2,5.2,0,0,1,.176-1.424,3.7,3.7,0,0,1,.58-1.169,6.487,6.487,0,0,1,1.059-1.107q.655-.554,1.6-1.248a10.141,10.141,0,0,0,1.147-.94,4.889,4.889,0,0,0,.743-.9,3.22,3.22,0,0,0,.4-.91A3.922,3.922,0,0,0,494.377,317.789Z"/><path d="M506.008,320.733a12.381,12.381,0,0,1-.286,2.8,6.533,6.533,0,0,1-.826,2.061,3.718,3.718,0,0,1-1.327,1.274,3.633,3.633,0,0,1-1.789.435,3.393,3.393,0,0,1-1.692-.417,3.546,3.546,0,0,1-1.252-1.217,6.17,6.17,0,0,1-.773-1.964,12.146,12.146,0,0,1-.264-2.667,13.749,13.749,0,0,1,.277-2.918,6.674,6.674,0,0,1,.813-2.123,3.619,3.619,0,0,1,1.332-1.292,3.739,3.739,0,0,1,1.824-.435Q506.008,314.273,506.008,320.733Zm-1.477.141q0-5.379-2.558-5.379-2.7,0-2.7,5.476,0,5.106,2.646,5.106Q504.531,326.077,504.531,320.874Z"/><path d="M512.857,327.087h-1.441V316.2a3.336,3.336,0,0,1-.488.382,7.951,7.951,0,0,1-.721.426q-.4.211-.844.4a6.132,6.132,0,0,1-.866.29v-1.459a8.379,8.379,0,0,0,1.006-.356q.532-.224,1.046-.5t.971-.58a7.71,7.71,0,0,0,.791-.593h.545Z"/><path d="M524.822,315.319q-.29.5-.7,1.248t-.866,1.679q-.457.932-.932,2t-.888,2.215q-.413,1.143-.725,2.316a17.229,17.229,0,0,0-.453,2.307h-1.547a17.526,17.526,0,0,1,.488-2.3q.33-1.173.747-2.3t.883-2.175q.466-1.046.905-1.925t.8-1.551q.365-.672.584-1.05h-6.319v-1.3h8.016Z"/><path d="M459.985,346.553H459v-8.4h.984Z"/><path d="M466.878,346.553h-.961v-3.422q0-1.91-1.395-1.91a1.513,1.513,0,0,0-1.192.542,2.009,2.009,0,0,0-.472,1.368v3.422H461.9v-6h.961v1h.023a2.166,2.166,0,0,1,1.969-1.137,1.836,1.836,0,0,1,1.506.636,2.832,2.832,0,0,1,.521,1.837Z"/><path d="M471.3,346.494a1.853,1.853,0,0,1-.9.188q-1.576,0-1.576-1.758v-3.551H467.8v-.82h1.031v-1.465l.961-.311v1.775H471.3v.82h-1.512v3.381a1.4,1.4,0,0,0,.205.861.818.818,0,0,0,.68.258,1.01,1.01,0,0,0,.627-.2Z"/><path d="M477.241,343.793H473a2.244,2.244,0,0,0,.539,1.547,1.858,1.858,0,0,0,1.418.545,2.948,2.948,0,0,0,1.863-.668v.9a3.482,3.482,0,0,1-2.092.574,2.536,2.536,0,0,1-2-.817,3.346,3.346,0,0,1-.727-2.3,3.281,3.281,0,0,1,.794-2.282,2.546,2.546,0,0,1,1.972-.882,2.256,2.256,0,0,1,1.822.762,3.176,3.176,0,0,1,.645,2.115Zm-.984-.814a1.955,1.955,0,0,0-.4-1.295,1.368,1.368,0,0,0-1.1-.463,1.552,1.552,0,0,0-1.154.486,2.207,2.207,0,0,0-.586,1.271Z"/><path d="M481.655,341.525a1.175,1.175,0,0,0-.727-.193,1.226,1.226,0,0,0-1.028.58,2.682,2.682,0,0,0-.413,1.582v3.059h-.961v-6h.961v1.236h.023a2.1,2.1,0,0,1,.627-.987,1.43,1.43,0,0,1,.943-.354,1.569,1.569,0,0,1,.574.082Z"/><path d="M486.825,346.553h-.961v-.937h-.023A2.012,2.012,0,0,1,484,346.693a1.973,1.973,0,0,1-1.4-.475,1.644,1.644,0,0,1-.507-1.26q0-1.682,1.98-1.957l1.8-.252q0-1.529-1.236-1.529a2.954,2.954,0,0,0-1.957.738v-.984a3.718,3.718,0,0,1,2.039-.562q2.115,0,2.115,2.238Zm-.961-3.035-1.447.2a2.35,2.35,0,0,0-1.008.331.955.955,0,0,0-.34.841.916.916,0,0,0,.313.718,1.211,1.211,0,0,0,.835.278,1.542,1.542,0,0,0,1.181-.5,1.79,1.79,0,0,0,.466-1.269Z"/><path d="M492.558,346.277a3.122,3.122,0,0,1-1.641.416,2.716,2.716,0,0,1-2.071-.835,3.026,3.026,0,0,1-.788-2.165,3.326,3.326,0,0,1,.85-2.382,2.972,2.972,0,0,1,2.268-.9,3.156,3.156,0,0,1,1.395.293v.984a2.443,2.443,0,0,0-1.43-.469,1.932,1.932,0,0,0-1.509.659,2.5,2.5,0,0,0-.589,1.731,2.382,2.382,0,0,0,.554,1.664,1.909,1.909,0,0,0,1.485.609,2.408,2.408,0,0,0,1.477-.521Z"/><path d="M496.626,346.494a1.853,1.853,0,0,1-.9.188q-1.576,0-1.576-1.758v-3.551h-1.031v-.82h1.031v-1.465l.961-.311v1.775h1.512v.82h-1.512v3.381a1.4,1.4,0,0,0,.205.861.818.818,0,0,0,.68.258,1.01,1.01,0,0,0,.627-.2Z"/><path d="M498.233,339.029a.609.609,0,0,1-.439-.176.593.593,0,0,1-.182-.445.615.615,0,0,1,.621-.627.621.621,0,0,1,.448.179.626.626,0,0,1,0,.888A.615.615,0,0,1,498.233,339.029Zm.469,7.523h-.961v-6h.961Z"/><path d="M505.2,340.553l-2.391,6h-.943l-2.273-6h1.055l1.523,4.359a3.913,3.913,0,0,1,.211.838h.023a3.962,3.962,0,0,1,.188-.814l1.594-4.383Z"/><path d="M510.881,343.793h-4.236a2.244,2.244,0,0,0,.539,1.547,1.858,1.858,0,0,0,1.418.545,2.948,2.948,0,0,0,1.863-.668v.9a3.482,3.482,0,0,1-2.092.574,2.536,2.536,0,0,1-2-.817,3.346,3.346,0,0,1-.727-2.3,3.281,3.281,0,0,1,.794-2.282,2.546,2.546,0,0,1,1.972-.882,2.256,2.256,0,0,1,1.822.762,3.176,3.176,0,0,1,.645,2.115Zm-.984-.814a1.955,1.955,0,0,0-.4-1.295,1.368,1.368,0,0,0-1.1-.463,1.552,1.552,0,0,0-1.154.486,2.207,2.207,0,0,0-.586,1.271Z"/><path d="M516.4,343.377v3.176h-.984v-8.4h2.309a3.047,3.047,0,0,1,2.089.656,2.343,2.343,0,0,1,.741,1.852,2.547,2.547,0,0,1-.823,1.957,3.145,3.145,0,0,1-2.224.762Zm0-4.336v3.445h1.031a2.306,2.306,0,0,0,1.556-.466,1.649,1.649,0,0,0,.536-1.315q0-1.664-1.969-1.664Z"/><path d="M522.8,346.553h-.961V337.67h.961Z"/><path d="M528.872,346.553h-.961v-.937h-.023a2.012,2.012,0,0,1-1.846,1.078,1.973,1.973,0,0,1-1.4-.475,1.644,1.644,0,0,1-.507-1.26q0-1.682,1.98-1.957l1.8-.252q0-1.529-1.236-1.529a2.954,2.954,0,0,0-1.957.738v-.984a3.718,3.718,0,0,1,2.039-.562q2.115,0,2.115,2.238Zm-.961-3.035-1.447.2a2.35,2.35,0,0,0-1.008.331.955.955,0,0,0-.34.841.916.916,0,0,0,.313.718,1.211,1.211,0,0,0,.835.278,1.542,1.542,0,0,0,1.181-.5,1.79,1.79,0,0,0,.466-1.269Z"/><path d="M535.29,340.553l-2.76,6.961q-.738,1.863-2.074,1.863a2.2,2.2,0,0,1-.627-.076v-.861a1.781,1.781,0,0,0,.568.105,1.178,1.178,0,0,0,1.09-.867l.48-1.137-2.344-5.988h1.066l1.623,4.617q.029.088.123.457h.035q.029-.141.117-.445l1.705-4.629Z"/><path d="M541.274,346.072q0,3.3-3.164,3.3a4.248,4.248,0,0,1-1.945-.422v-.961a4,4,0,0,0,1.934.563q2.215,0,2.215-2.355v-.656h-.023a2.428,2.428,0,0,1-3.864.349,3.2,3.2,0,0,1-.683-2.147,3.735,3.735,0,0,1,.735-2.432,2.457,2.457,0,0,1,2.013-.9,1.956,1.956,0,0,1,1.8.973h.023v-.832h.961Zm-.961-2.232v-.885a1.717,1.717,0,0,0-.483-1.225,1.591,1.591,0,0,0-1.2-.51,1.669,1.669,0,0,0-1.395.647,2.89,2.89,0,0,0-.5,1.813,2.481,2.481,0,0,0,.483,1.6,1.562,1.562,0,0,0,1.28.6,1.673,1.673,0,0,0,1.315-.574A2.14,2.14,0,0,0,540.313,343.84Z"/><path d="M546.18,341.525a1.175,1.175,0,0,0-.727-.193,1.226,1.226,0,0,0-1.028.58,2.682,2.682,0,0,0-.413,1.582v3.059h-.961v-6h.961v1.236h.023a2.1,2.1,0,0,1,.627-.987,1.43,1.43,0,0,1,.943-.354,1.569,1.569,0,0,1,.574.082Z"/><path d="M549.563,346.693a2.783,2.783,0,0,1-2.124-.841,3.114,3.114,0,0,1-.794-2.229,3.244,3.244,0,0,1,.826-2.361,2.97,2.97,0,0,1,2.232-.85,2.691,2.691,0,0,1,2.095.826,3.276,3.276,0,0,1,.753,2.291,3.223,3.223,0,0,1-.812,2.3A2.844,2.844,0,0,1,549.563,346.693Zm.07-5.473a1.828,1.828,0,0,0-1.465.63,2.587,2.587,0,0,0-.539,1.737,2.447,2.447,0,0,0,.545,1.682,1.852,1.852,0,0,0,1.459.615,1.757,1.757,0,0,0,1.433-.6,2.619,2.619,0,0,0,.5-1.717,2.664,2.664,0,0,0-.5-1.734A1.749,1.749,0,0,0,549.633,341.221Z"/><path d="M558.77,346.553h-.961V345.6h-.023a1.973,1.973,0,0,1-1.852,1.09q-2.145,0-2.145-2.555v-3.586h.955v3.434q0,1.9,1.453,1.9a1.47,1.47,0,0,0,1.157-.519,1.984,1.984,0,0,0,.454-1.356v-3.457h.961Z"/><path d="M565.522,346.553h-.961v-3.422q0-1.91-1.395-1.91a1.513,1.513,0,0,0-1.192.542,2.009,2.009,0,0,0-.472,1.368v3.422h-.961v-6h.961v1h.023a2.166,2.166,0,0,1,1.969-1.137,1.836,1.836,0,0,1,1.506.636,2.832,2.832,0,0,1,.521,1.837Z"/><path d="M572.286,346.553h-.961v-1.02H571.3a2.218,2.218,0,0,1-2.062,1.16,2.241,2.241,0,0,1-1.808-.806,3.305,3.305,0,0,1-.677-2.194,3.6,3.6,0,0,1,.75-2.385,2.474,2.474,0,0,1,2-.9,1.923,1.923,0,0,1,1.8.973h.023V337.67h.961Zm-.961-2.713v-.885a1.717,1.717,0,0,0-.48-1.23,1.612,1.612,0,0,0-1.219-.5,1.659,1.659,0,0,0-1.383.645,2.824,2.824,0,0,0-.5,1.781,2.54,2.54,0,0,0,.483,1.638,1.58,1.58,0,0,0,1.3.6,1.641,1.641,0,0,0,1.3-.58A2.161,2.161,0,0,0,571.325,343.84Z"/><path d="M96.859,351.223a5.532,5.532,0,0,1-4.293-1.767,6.552,6.552,0,0,1-1.613-4.6,6.943,6.943,0,0,1,1.644-4.852A5.74,5.74,0,0,1,97.07,338.2a5.408,5.408,0,0,1,4.206,1.758,6.576,6.576,0,0,1,1.6,4.6,6.965,6.965,0,0,1-1.635,4.878A5.634,5.634,0,0,1,96.859,351.223Zm.105-11.689a4.063,4.063,0,0,0-3.226,1.433,6.373,6.373,0,0,0-.031,7.51,3.941,3.941,0,0,0,3.151,1.419,4.138,4.138,0,0,0,3.27-1.354,5.532,5.532,0,0,0,1.2-3.788,5.78,5.78,0,0,0-1.16-3.858A3.978,3.978,0,0,0,96.964,339.533Z"/><path d="M111.039,350.6a4.684,4.684,0,0,1-2.461.624,4.074,4.074,0,0,1-3.107-1.252,4.539,4.539,0,0,1-1.182-3.248,4.99,4.99,0,0,1,1.274-3.573,4.458,4.458,0,0,1,3.4-1.349,4.735,4.735,0,0,1,2.092.439v1.477a3.665,3.665,0,0,0-2.145-.7,2.9,2.9,0,0,0-2.263.989,3.752,3.752,0,0,0-.883,2.6,3.573,3.573,0,0,0,.831,2.5,2.863,2.863,0,0,0,2.228.914,3.613,3.613,0,0,0,2.215-.782Z"/><path d="M117.141,350.924a2.779,2.779,0,0,1-1.345.281q-2.364,0-2.364-2.637v-5.326h-1.547v-1.23h1.547v-2.2l1.441-.466v2.663h2.268v1.23h-2.268v5.071a2.1,2.1,0,0,0,.308,1.292,1.228,1.228,0,0,0,1.02.387,1.515,1.515,0,0,0,.94-.3Z"/><path d="M128.819,341.713a2.606,2.606,0,0,0-.18-1.011,1.957,1.957,0,0,0-1.226-1.143,2.874,2.874,0,0,0-.914-.141,3.023,3.023,0,0,0-.826.114,4.016,4.016,0,0,0-.787.316,4.839,4.839,0,0,0-.738.483,5.333,5.333,0,0,0-.664.624V339.41a4.309,4.309,0,0,1,1.358-.9,4.781,4.781,0,0,1,1.833-.312,4.424,4.424,0,0,1,1.433.224,3.285,3.285,0,0,1,1.143.655,3.027,3.027,0,0,1,.76,1.063,3.587,3.587,0,0,1,.277,1.45,4.973,4.973,0,0,1-.171,1.354,4.186,4.186,0,0,1-.519,1.143,5.513,5.513,0,0,1-.875,1.028,12.388,12.388,0,0,1-1.239,1q-.888.633-1.463,1.081a6.469,6.469,0,0,0-.914.839,2.436,2.436,0,0,0-.475.782,2.734,2.734,0,0,0-.136.9h6.275v1.292h-7.778v-.624a5.2,5.2,0,0,1,.176-1.424,3.7,3.7,0,0,1,.58-1.169,6.487,6.487,0,0,1,1.059-1.107q.655-.554,1.6-1.248a10.141,10.141,0,0,0,1.147-.94,4.889,4.889,0,0,0,.743-.9,3.22,3.22,0,0,0,.4-.91A3.922,3.922,0,0,0,128.819,341.713Z"/><path d="M140.45,344.657a12.381,12.381,0,0,1-.286,2.8,6.533,6.533,0,0,1-.826,2.061,3.718,3.718,0,0,1-1.327,1.274,3.633,3.633,0,0,1-1.789.435,3.393,3.393,0,0,1-1.692-.417,3.546,3.546,0,0,1-1.252-1.217,6.17,6.17,0,0,1-.773-1.964,12.146,12.146,0,0,1-.264-2.667,13.749,13.749,0,0,1,.277-2.918,6.674,6.674,0,0,1,.813-2.123,3.619,3.619,0,0,1,1.332-1.292,3.739,3.739,0,0,1,1.824-.435Q140.45,338.2,140.45,344.657Zm-1.477.141q0-5.379-2.558-5.379-2.7,0-2.7,5.476,0,5.106,2.646,5.106Q138.973,350,138.973,344.8Z"/><path d="M147.3,351.012h-1.441v-10.89a3.336,3.336,0,0,1-.488.382,7.951,7.951,0,0,1-.721.426q-.4.211-.844.4a6.132,6.132,0,0,1-.866.29v-1.459a8.379,8.379,0,0,0,1.006-.356q.532-.224,1.046-.5t.971-.58a7.71,7.71,0,0,0,.791-.593h.545Z"/><path d="M159.369,347.013a4.669,4.669,0,0,1-.3,1.7,4.078,4.078,0,0,1-.826,1.336,3.691,3.691,0,0,1-1.257.875,3.98,3.98,0,0,1-1.582.312,3.488,3.488,0,0,1-2.975-1.534,5.459,5.459,0,0,1-.8-1.815,9.833,9.833,0,0,1-.272-2.417,11.358,11.358,0,0,1,.365-2.984,7.249,7.249,0,0,1,1.037-2.294,4.781,4.781,0,0,1,1.622-1.472,4.345,4.345,0,0,1,2.118-.519,5.1,5.1,0,0,1,2.092.36v1.362a4.442,4.442,0,0,0-2.057-.5,3.065,3.065,0,0,0-1.521.378,3.492,3.492,0,0,0-1.16,1.068,5.209,5.209,0,0,0-.743,1.666,8.45,8.45,0,0,0-.259,2.171h.035a3.027,3.027,0,0,1,2.874-1.573,3.783,3.783,0,0,1,1.49.281,3.216,3.216,0,0,1,1.134.8,3.581,3.581,0,0,1,.725,1.226A4.667,4.667,0,0,1,159.369,347.013Zm-1.477.185a3.922,3.922,0,0,0-.167-1.187,2.574,2.574,0,0,0-.479-.9,2.065,2.065,0,0,0-.769-.567,2.588,2.588,0,0,0-1.037-.2,2.428,2.428,0,0,0-.993.2,2.473,2.473,0,0,0-.791.549,2.572,2.572,0,0,0-.712,1.789,3.909,3.909,0,0,0,.185,1.217,3.144,3.144,0,0,0,.519.989,2.466,2.466,0,0,0,.8.664,2.173,2.173,0,0,0,1.024.242,2.345,2.345,0,0,0,.993-.207,2.216,2.216,0,0,0,.765-.576,2.665,2.665,0,0,0,.492-.883A3.5,3.5,0,0,0,157.893,347.2Z"/><path d="M38.157,370.477h-.984v-3.832H32.825v3.832h-.984v-8.4h.984v3.686h4.348v-3.686h.984Z"/><path d="M42.571,370.618a2.783,2.783,0,0,1-2.124-.841,3.114,3.114,0,0,1-.794-2.229,3.244,3.244,0,0,1,.826-2.361,2.97,2.97,0,0,1,2.232-.85,2.691,2.691,0,0,1,2.095.826,3.276,3.276,0,0,1,.753,2.291,3.223,3.223,0,0,1-.812,2.3A2.844,2.844,0,0,1,42.571,370.618Zm.07-5.473a1.828,1.828,0,0,0-1.465.63,2.587,2.587,0,0,0-.539,1.737,2.447,2.447,0,0,0,.545,1.682,1.852,1.852,0,0,0,1.459.615,1.757,1.757,0,0,0,1.433-.6,2.619,2.619,0,0,0,.5-1.717,2.664,2.664,0,0,0-.5-1.734A1.749,1.749,0,0,0,42.642,365.145Z"/><path d="M50.056,365.45a1.175,1.175,0,0,0-.727-.193,1.226,1.226,0,0,0-1.028.58,2.682,2.682,0,0,0-.413,1.582v3.059h-.961v-6h.961v1.236h.023a2.1,2.1,0,0,1,.627-.987,1.43,1.43,0,0,1,.943-.354,1.569,1.569,0,0,1,.574.082Z"/><path d="M51.423,362.954a.609.609,0,0,1-.439-.176.593.593,0,0,1-.182-.445.615.615,0,0,1,.621-.627.621.621,0,0,1,.448.179.626.626,0,0,1,0,.888A.615.615,0,0,1,51.423,362.954Zm.469,7.523h-.961v-6h.961Z"/><path d="M57.853,364.752l-3.551,4.9h3.516v.82H52.89v-.3L56.44,365.3H53.224v-.82h4.629Z"/><path d="M61.435,370.618a2.783,2.783,0,0,1-2.124-.841,3.114,3.114,0,0,1-.794-2.229,3.244,3.244,0,0,1,.826-2.361,2.97,2.97,0,0,1,2.232-.85,2.691,2.691,0,0,1,2.095.826,3.276,3.276,0,0,1,.753,2.291,3.223,3.223,0,0,1-.812,2.3A2.844,2.844,0,0,1,61.435,370.618Zm.07-5.473a1.828,1.828,0,0,0-1.465.63,2.587,2.587,0,0,0-.539,1.737,2.447,2.447,0,0,0,.545,1.682,1.852,1.852,0,0,0,1.459.615,1.757,1.757,0,0,0,1.433-.6,2.619,2.619,0,0,0,.5-1.717,2.664,2.664,0,0,0-.5-1.734A1.749,1.749,0,0,0,61.5,365.145Z"/><path d="M70.771,370.477H69.81v-3.422q0-1.91-1.395-1.91a1.513,1.513,0,0,0-1.192.542,2.009,2.009,0,0,0-.472,1.368v3.422H65.79v-6h.961v1h.023a2.166,2.166,0,0,1,1.969-1.137,1.836,1.836,0,0,1,1.506.636,2.832,2.832,0,0,1,.521,1.837Z"/><path d="M75.2,370.418a1.853,1.853,0,0,1-.9.188q-1.576,0-1.576-1.758V365.3H71.692v-.82h1.031v-1.465l.961-.311v1.775H75.2v.82H73.685v3.381a1.4,1.4,0,0,0,.205.861.818.818,0,0,0,.68.258,1.01,1.01,0,0,0,.627-.2Z"/><path d="M80.606,370.477h-.961v-.937h-.023a2.012,2.012,0,0,1-1.846,1.078,1.973,1.973,0,0,1-1.4-.475,1.644,1.644,0,0,1-.507-1.26q0-1.682,1.98-1.957l1.8-.252q0-1.529-1.236-1.529a2.954,2.954,0,0,0-1.957.738V364.9a3.718,3.718,0,0,1,2.039-.562q2.115,0,2.115,2.238Zm-.961-3.035-1.447.2a2.35,2.35,0,0,0-1.008.331.955.955,0,0,0-.34.841.916.916,0,0,0,.313.718,1.211,1.211,0,0,0,.835.278,1.542,1.542,0,0,0,1.181-.5,1.79,1.79,0,0,0,.466-1.269Z"/><path d="M83.209,370.477h-.961v-8.883h.961Z"/><path d="M92.688,370.477H88.235v-8.4H92.5v.891H89.219v2.795h3.035v.885H89.219v2.941h3.469Z"/><path d="M99.129,370.477h-.961v-1.02h-.023a2.218,2.218,0,0,1-2.062,1.16,2.241,2.241,0,0,1-1.808-.806,3.305,3.305,0,0,1-.677-2.194,3.6,3.6,0,0,1,.75-2.385,2.474,2.474,0,0,1,2-.9,1.923,1.923,0,0,1,1.8.973h.023v-3.715h.961Zm-.961-2.713v-.885a1.717,1.717,0,0,0-.48-1.23,1.612,1.612,0,0,0-1.219-.5,1.659,1.659,0,0,0-1.383.645,2.824,2.824,0,0,0-.5,1.781,2.54,2.54,0,0,0,.483,1.638,1.58,1.58,0,0,0,1.3.6,1.641,1.641,0,0,0,1.3-.58A2.161,2.161,0,0,0,98.168,367.764Z"/><path d="M101.4,362.954a.609.609,0,0,1-.439-.176.593.593,0,0,1-.182-.445.615.615,0,0,1,.621-.627.621.621,0,0,1,.448.179.626.626,0,0,1,0,.888A.615.615,0,0,1,101.4,362.954Zm.469,7.523h-.961v-6h.961Z"/><path d="M106.428,370.418a1.853,1.853,0,0,1-.9.188q-1.576,0-1.576-1.758V365.3h-1.031v-.82h1.031v-1.465l.961-.311v1.775h1.512v.82h-1.512v3.381a1.4,1.4,0,0,0,.205.861.818.818,0,0,0,.68.258,1.01,1.01,0,0,0,.627-.2Z"/><path d="M110.051,370.618a2.783,2.783,0,0,1-2.124-.841,3.114,3.114,0,0,1-.794-2.229,3.244,3.244,0,0,1,.826-2.361,2.97,2.97,0,0,1,2.232-.85,2.691,2.691,0,0,1,2.095.826,3.276,3.276,0,0,1,.753,2.291,3.223,3.223,0,0,1-.812,2.3A2.844,2.844,0,0,1,110.051,370.618Zm.07-5.473a1.828,1.828,0,0,0-1.465.63,2.587,2.587,0,0,0-.539,1.737,2.447,2.447,0,0,0,.545,1.682,1.852,1.852,0,0,0,1.459.615,1.757,1.757,0,0,0,1.433-.6,2.619,2.619,0,0,0,.5-1.717,2.664,2.664,0,0,0-.5-1.734A1.749,1.749,0,0,0,110.122,365.145Z"/><path d="M117.536,365.45a1.175,1.175,0,0,0-.727-.193,1.226,1.226,0,0,0-1.028.58,2.682,2.682,0,0,0-.413,1.582v3.059h-.961v-6h.961v1.236h.023a2.1,2.1,0,0,1,.627-.987,1.43,1.43,0,0,1,.943-.354,1.569,1.569,0,0,1,.574.082Z"/><path d="M126.018,370.477h-4.359v-8.4h.984v7.512h3.375Z"/><path d="M131.305,370.477h-.961v-.937h-.023a2.012,2.012,0,0,1-1.846,1.078,1.973,1.973,0,0,1-1.4-.475,1.644,1.644,0,0,1-.507-1.26q0-1.682,1.98-1.957l1.8-.252q0-1.529-1.236-1.529a2.954,2.954,0,0,0-1.957.738V364.9a3.718,3.718,0,0,1,2.039-.562q2.115,0,2.115,2.238Zm-.961-3.035-1.447.2a2.35,2.35,0,0,0-1.008.331.955.955,0,0,0-.34.841.916.916,0,0,0,.313.718,1.211,1.211,0,0,0,.835.278,1.542,1.542,0,0,0,1.181-.5,1.79,1.79,0,0,0,.466-1.269Z"/><path d="M137.723,364.477l-2.76,6.961q-.738,1.863-2.074,1.863a2.2,2.2,0,0,1-.627-.076v-.861a1.781,1.781,0,0,0,.568.105,1.178,1.178,0,0,0,1.09-.867l.48-1.137-2.344-5.988h1.066l1.623,4.617q.029.088.123.457h.035q.029-.141.117-.445l1.705-4.629Z"/><path d="M141.094,370.618a2.783,2.783,0,0,1-2.124-.841,3.114,3.114,0,0,1-.794-2.229,3.244,3.244,0,0,1,.826-2.361,2.97,2.97,0,0,1,2.232-.85,2.691,2.691,0,0,1,2.095.826,3.276,3.276,0,0,1,.753,2.291,3.223,3.223,0,0,1-.812,2.3A2.844,2.844,0,0,1,141.094,370.618Zm.07-5.473a1.828,1.828,0,0,0-1.465.63,2.587,2.587,0,0,0-.539,1.737,2.447,2.447,0,0,0,.545,1.682,1.852,1.852,0,0,0,1.459.615,1.757,1.757,0,0,0,1.433-.6,2.619,2.619,0,0,0,.5-1.717,2.664,2.664,0,0,0-.5-1.734A1.749,1.749,0,0,0,141.165,365.145Z"/><path d="M150.3,370.477h-.961v-.949h-.023a1.973,1.973,0,0,1-1.852,1.09q-2.145,0-2.145-2.555v-3.586h.955v3.434q0,1.9,1.453,1.9a1.47,1.47,0,0,0,1.157-.519,1.984,1.984,0,0,0,.454-1.356v-3.457h.961Z"/><path d="M154.856,370.418a1.853,1.853,0,0,1-.9.188q-1.576,0-1.576-1.758V365.3h-1.031v-.82h1.031v-1.465l.961-.311v1.775h1.512v.82h-1.512v3.381a1.4,1.4,0,0,0,.205.861.818.818,0,0,0,.68.258,1.01,1.01,0,0,0,.627-.2Z"/><path d="M155.607,370.26v-1.031a2.844,2.844,0,0,0,1.729.58q1.266,0,1.266-.844a.732.732,0,0,0-.108-.407,1.08,1.08,0,0,0-.293-.3,2.255,2.255,0,0,0-.434-.231q-.249-.1-.536-.214a6.9,6.9,0,0,1-.7-.319,2.115,2.115,0,0,1-.5-.363,1.352,1.352,0,0,1-.3-.46,1.627,1.627,0,0,1-.1-.6,1.434,1.434,0,0,1,.193-.747,1.715,1.715,0,0,1,.516-.545,2.4,2.4,0,0,1,.735-.331,3.262,3.262,0,0,1,.853-.111,3.442,3.442,0,0,1,1.395.27v.973a2.718,2.718,0,0,0-1.523-.434,1.781,1.781,0,0,0-.486.062,1.191,1.191,0,0,0-.372.173.8.8,0,0,0-.24.267.7.7,0,0,0-.085.343.822.822,0,0,0,.085.393.864.864,0,0,0,.249.281,1.9,1.9,0,0,0,.4.223q.234.1.533.217a7.421,7.421,0,0,1,.715.313,2.452,2.452,0,0,1,.539.363,1.42,1.42,0,0,1,.343.466,1.5,1.5,0,0,1,.12.627,1.478,1.478,0,0,1-.2.773,1.682,1.682,0,0,1-.524.545,2.4,2.4,0,0,1-.756.322,3.732,3.732,0,0,1-.9.105A3.4,3.4,0,0,1,155.607,370.26Z"/></svg>