<svg xmlns="http://www.w3.org/2000/svg" xmlns:xlink="http://www.w3.org/1999/xlink" viewBox="0 0 560 350"><defs><clipPath id="a"><circle cx="354.034" cy="144.82" r="115.769" fill="none"/></clipPath></defs><title>devblog-debug</title><path d="M560,350H0V0H560Z" fill="#f3f3f3"/><circle cx="354.034" cy="144.82" r="115.769" fill="#69afe5"/><rect x="236.969" y="197.929" width="18.285" height="25.669" transform="translate(298.384 -109.017) rotate(58.708)" fill="#666"/><path d="M86.215,319.173,76.5,303.2a6.572,6.572,0,0,1,2.2-9.029l145.19-88.53a6.572,6.572,0,0,1,9.029,2.2l9.711,15.977a6.572,6.572,0,0,1-2.2,9.029L95.243,321.375A6.571,6.571,0,0,1,86.215,319.173Z" fill="#d83b01"/><path d="M243.565,225.344l-5.785-9.516-8.268-13.6-9.6,5.833,4.079,16.151L81.359,311.184l5.784,9.516a4.783,4.783,0,0,0,6.573,1.6l142.737-87.038,5.508-3.349,4.088-2.484Z" fill="#bd3604"/><rect x="215.502" y="212.968" width="40.972" height="7.898" transform="translate(298.777 -97.409) rotate(58.708)" fill="#fff"/><rect x="231.172" y="221.782" width="20.345" height="7.898" transform="translate(308.882 -97.751) rotate(58.708)" fill="#b2b2b2"/><path d="M386.125,118.6c-7.26,5.118-8.094,12.8-7.938,16.977-3.837-1.645-11.31-3.628-18.695,1.31a1.438,1.438,0,1,0,1.6,2.39c7.673-5.131,15.558-1.405,17.638-.246a1.438,1.438,0,0,0,2,.367c.02-.014.034-.035.053-.05s.046-.018.066-.032a1.422,1.422,0,0,0,.392-.4,1.438,1.438,0,0,0-.017-1.59c-.335-2.358-.98-11.055,6.565-16.373a1.438,1.438,0,1,0-1.657-2.35Z" fill="#505050"/><path d="M389.769,194.218a1.722,1.722,0,0,1-.2.12,2.011,2.011,0,0,1-2.72-.836c-2.9-5.476-2.932-11.76-.087-18.174a31.563,31.563,0,0,1,9.8-12.281,2.013,2.013,0,0,1,2.339,3.276c-4.977,3.555-14.028,14.86-8.5,25.295A2.012,2.012,0,0,1,389.769,194.218Z" fill="#505050"/><path d="M378.285,190.024a2.016,2.016,0,0,1-3.02-.938c-4.553-11.86,2.393-27.04,15.481-33.833a2.012,2.012,0,1,1,1.854,3.572c-11.141,5.784-17.354,18.979-13.577,28.819A2.014,2.014,0,0,1,378.285,190.024Z" fill="#505050"/><path d="M381.364,159.885l-.071.046c-8.482,5.325-16.757,3.563-22.7-4.835a2.012,2.012,0,0,1,3.285-2.325c3.265,4.61,8.912,9,17.278,3.751a2.013,2.013,0,0,1,2.211,3.363Z" fill="#505050"/><path d="M428.237,167.805a2.065,2.065,0,0,0,.184-.143,2.013,2.013,0,0,0,.2-2.839c-4.068-4.675-9.923-6.96-16.931-6.609a31.565,31.565,0,0,0-14.982,4.738,2.012,2.012,0,1,0,2.217,3.359c5.1-3.368,18.907-7.754,26.66,1.154A2.013,2.013,0,0,0,428.237,167.805Z" fill="#505050"/><path d="M428.448,155.58a2.014,2.014,0,0,0,.21-3.154c-9.434-8.51-26.1-7.48-37.136,2.294a2.012,2.012,0,0,0,2.667,3.014c9.4-8.32,23.947-9.379,31.773-2.32A2.013,2.013,0,0,0,428.448,155.58Z" fill="#505050"/><path d="M399.214,147.628c.023-.016.046-.032.068-.049,8.017-6,9.345-14.359,3.643-22.924a2.012,2.012,0,0,0-3.35,2.23c3.13,4.7,5.2,11.551-2.7,17.472a2.013,2.013,0,0,0,2.344,3.271Z" fill="#505050"/><ellipse cx="380.246" cy="139.141" rx="10.656" ry="8.929" transform="matrix(0.792, -0.611, 0.611, 0.792, -5.763, 261.389)" fill="#a3111e"/><path d="M374.291,134.935c4.908-3.37,11.162-2.789,13.968,1.3a8.117,8.117,0,0,1,1.168,6.248c1.829-3.124,2-6.787.1-9.553-2.806-4.087-9.06-4.668-13.968-1.3a11.733,11.733,0,0,0-4.975,7.255A12.434,12.434,0,0,1,374.291,134.935Z" fill="#e81123"/><ellipse cx="395.536" cy="160.111" rx="20.153" ry="25.045" transform="matrix(0.824, -0.566, 0.566, 0.824, -21.115, 252.229)" fill="#d83b01"/><path d="M378.636,143.956c9.163-6.291,22.929-2.16,30.748,9.228,5.536,8.063,6.585,17.588,3.486,24.7,5.886-7.166,5.756-19.094-.955-28.867-7.819-11.388-21.586-15.519-30.748-9.228a16.911,16.911,0,0,0-5.918,7.306A16.359,16.359,0,0,1,378.636,143.956Z" fill="#ec6401"/><g clip-path="url(#a)"><rect x="261.856" y="52.642" width="144.165" height="9.611" fill="#a2cfec"/><rect x="253.992" y="72.738" width="165.135" height="9.611" fill="#a2cfec"/><rect x="270.593" y="230.883" width="65.53" height="9.611" fill="#a2cfec"/><rect x="346.608" y="230.883" width="92.615" height="9.611" fill="#a2cfec"/><rect x="241.76" y="91.96" width="51.55" height="9.611" fill="#009a83"/><rect x="302.921" y="91.96" width="70.772" height="9.611" fill="#a2cfec"/><rect x="263.603" y="123.414" width="47.181" height="9.611" fill="#ffa940"/><rect x="320.396" y="123.414" width="41.939" height="9.611" fill="#a2cfec"/><rect x="422.399" y="123.207" width="41.818" height="9.798" transform="translate(-14.486 70.16) rotate(-8.904)" fill="#a2cfec"/><rect x="263.603" y="142.636" width="47.181" height="9.611" fill="#d83b01"/><rect x="287.194" y="162.732" width="47.181" height="9.611" fill="#a2cfec"/><rect x="320.687" y="142.804" width="31.647" height="9.798" transform="translate(-29.366 113.209) rotate(-18.312)" fill="#a2cfec"/><rect x="340.022" y="163.612" width="9.798" height="47.925" transform="translate(96.218 491.386) rotate(-79.234)" fill="#a2cfec"/><rect x="418.253" y="181.954" width="55.045" height="9.611" fill="#a2cfec"/><rect x="361.461" y="202.05" width="105.721" height="9.611" fill="#a2cfec"/><rect x="452.679" y="128.913" width="9.798" height="43.681" transform="translate(224.233 572.245) rotate(-79.265)" fill="#009a83"/><rect x="321.269" y="202.05" width="31.454" height="9.611" fill="#ffa940"/></g><path d="M456.568,86.648A118.678,118.678,0,1,0,416.8,249.7,118.678,118.678,0,0,0,456.568,86.648Zm-45.58,153.5A107.5,107.5,0,1,1,447.012,92.456,107.5,107.5,0,0,1,410.988,240.148Z" fill="#b2b2b2"/><path d="M455.513,83.484A118.678,118.678,0,1,0,415.742,246.54,118.678,118.678,0,0,0,455.513,83.484Zm-45.58,153.5A107.5,107.5,0,1,1,445.958,89.292,107.495,107.495,0,0,1,409.933,236.984Z" fill="#fff"/></svg>