<svg xmlns="http://www.w3.org/2000/svg" viewBox="0 0 400 250"><defs><style>.msillu-grey-1{fill:#f3f3f3;}.cls-1{fill:#b3d6f2;}.cls-2{fill:#106ebe;}.cls-3{fill:#b2b2b2;}.cls-4{fill:#231f20;}.cls-5{fill:#8fc3ec;}.cls-6{fill:#737373;}.cls-7{fill:#505050;}.cls-10,.cls-8{fill:none;}.cls-9{fill:#fff;}.cls-10{stroke:#fff;stroke-miterlimit:10;stroke-width:2px;}.cls-11{fill:#a6a6a6;}.cls-12{fill:#69afe5;}.cls-13{fill:#2e2e2e;}.cls-14{fill:#e6e6e6;}.cls-15{fill:#767576;}.cls-16{fill:#474747;}.cls-17{fill:#f08400;}</style></defs><title>devblog-mobile-app-center</title><g id="Layer_1" data-name="Layer 1"><rect class="msillu-grey-1" width="400" height="250"/><path class="cls-1" d="M229.463,85.029a22.252,22.252,0,0,1,21.645-22.314,19.9,19.9,0,0,1-.312-4.452,29.368,29.368,0,0,1,44.929-24.534A34.815,34.815,0,0,1,360.393,51.58l.029.027a27.88,27.88,0,1,1,1.243,55.726H251.744A22.349,22.349,0,0,1,229.463,85.029Z"/><path class="cls-2" d="M272.069,85.18v2.462h-2.461V85.18Zm-4.923,0v2.462h-2.461V85.18Zm-4.922,0v2.462h-2.462V85.18Zm-4.923,0v2.462h-2.462V85.18Z"/><polygon class="cls-2" points="272.577 93.581 270.898 91.778 276.361 86.627 270.912 81.659 272.591 79.856 279.975 86.627 272.577 93.581"/><path class="cls-3" d="M267.454,231.633h116.58a4.446,4.446,0,0,0,4.438-3.5,4.312,4.312,0,0,0-4.234-5.117H267.658a4.445,4.445,0,0,0-4.438,3.5A4.312,4.312,0,0,0,267.454,231.633Z"/><path class="cls-3" d="M13.989,229.171H271.955a4.444,4.444,0,0,0,4.437-3.5,4.311,4.311,0,0,0-4.233-5.118H14.192a4.446,4.446,0,0,0-4.437,3.5A4.311,4.311,0,0,0,13.989,229.171Z"/><path class="cls-4" d="M254.839,215.634V74.852a5.671,5.671,0,0,0-5.671-5.671H46.37A5.671,5.671,0,0,0,40.7,74.852V215.634Z"/><rect class="cls-5" x="49.314" y="79.027" width="196.911" height="126.761"/><rect class="cls-6" x="157.615" y="79.027" width="88.61" height="126.761"/><path class="cls-4" d="M271.169,223.018H25.793c-8.179,0-9.515-8.615-9.515-8.615H280.684S277.512,223.018,271.169,223.018Z"/><rect class="cls-7" x="147.769" y="74.104" width="3.692" height="3.692"/><polygon class="cls-8" points="246.225 79.027 157.962 79.027 246.225 165.279 246.225 79.027"/><rect class="cls-8" x="54.363" y="92.684" width="101.241" height="95.423"/><rect class="cls-9" x="70.235" y="108.563" width="30.767" height="55.381" rx="2.349" ry="2.349"/><rect class="cls-9" x="110.848" y="108.563" width="31.998" height="55.381" rx="2.35" ry="2.35"/><line class="cls-10" x1="65.313" y1="109.619" x2="65.313" y2="161.659"/><polygon class="cls-9" points="61.922 113.602 65.313 110.21 68.703 113.602 68.703 110.723 65.313 107.333 61.922 110.723 61.922 113.602"/><polygon class="cls-9" points="61.922 157.675 65.313 161.068 68.703 157.675 68.703 160.554 65.313 163.945 61.922 160.554 61.922 157.675"/><line class="cls-10" x1="72.521" y1="168.867" x2="98.717" y2="168.867"/><polygon class="cls-9" points="76.505 172.258 73.112 168.867 76.505 165.477 73.626 165.477 70.235 168.867 73.626 172.258 76.505 172.258"/><polygon class="cls-9" points="94.733 172.258 98.126 168.867 94.733 165.477 97.612 165.477 101.003 168.867 97.612 172.258 94.733 172.258"/><circle class="cls-5" cx="86.234" cy="157.791" r="2.461"/><rect class="cls-5" x="72.697" y="146.715" width="24.614" height="4.923" rx="1.952" ry="1.952"/><rect class="cls-5" x="72.697" y="113.486" width="25.845" height="25.845"/><rect class="cls-5" x="81.312" y="111.025" width="7.384" height="1.231" rx="0.5" ry="0.5"/><rect class="cls-5" x="113.31" y="113.486" width="27.075" height="40.613"/><path class="cls-10" d="M99.772,150.407h5.245a2.14,2.14,0,0,0,2.139-2.14V121.779a2.14,2.14,0,0,1,2.14-2.139h10.167"/><circle class="cls-9" cx="120.079" cy="120.255" r="1.846"/><rect class="cls-8" x="158.066" y="92.684" width="81.459" height="95.423"/><rect class="cls-11" x="173.614" y="104.871" width="54.15" height="3.692"/><rect class="cls-12" x="172.383" y="114.717" width="6.153" height="3.692"/><rect class="cls-12" x="179.767" y="114.717" width="20.922" height="3.692"/><rect class="cls-11" x="203.15" y="114.717" width="20.922" height="3.692"/><rect class="cls-12" x="185.921" y="143.023" width="9.846" height="3.692"/><rect class="cls-11" x="198.228" y="143.023" width="31.998" height="3.692"/><rect class="cls-12" x="193.305" y="149.176" width="9.846" height="3.692"/><rect class="cls-11" x="204.381" y="149.176" width="9.846" height="3.692"/><rect class="cls-12" x="179.767" y="122.101" width="17.23" height="3.692"/><rect class="cls-11" x="199.458" y="122.101" width="20.922" height="3.692"/><rect class="cls-12" x="179.767" y="135.639" width="17.23" height="3.692"/><rect class="cls-11" x="200.689" y="135.639" width="11.076" height="3.692"/><rect class="cls-12" x="179.767" y="128.254" width="9.846" height="3.692"/><rect class="cls-11" x="192.074" y="128.254" width="33.229" height="3.692"/><rect class="cls-12" x="172.383" y="161.483" width="6.153" height="3.692"/><rect class="cls-12" x="179.767" y="161.483" width="20.922" height="3.692"/><rect class="cls-11" x="203.15" y="161.483" width="20.922" height="3.692"/><rect class="cls-12" x="179.767" y="167.637" width="17.23" height="3.692"/><rect class="cls-11" x="199.458" y="167.637" width="20.922" height="3.692"/><rect class="cls-13" x="273.3" y="133.177" width="47.997" height="95.994" rx="7.187" ry="7.187"/><rect class="cls-14" x="276.992" y="145.484" width="40.613" height="71.38"/><circle class="cls-15" cx="296.528" cy="138.879" r="0.819"/><circle class="cls-16" cx="296.272" cy="223.305" r="3.891"/><path class="cls-15" d="M300.521,144.253h-8.294c-.458-.6-.829-.974-.829-1.432a1.216,1.216,0,0,1,.829-1.029h8.294a1.216,1.216,0,0,1,.829,1.029C301.35,143.279,300.979,143.65,300.521,144.253Z"/><polygon class="cls-9" points="317.605 178.625 317.605 146.715 282.752 146.715 317.605 178.625"/><rect class="cls-3" x="279.453" y="181.174" width="35.69" height="12.307"/><rect class="cls-5" x="279.453" y="195.943" width="35.69" height="17.23"/><rect class="cls-17" x="276.992" y="145.484" width="40.613" height="11.076"/><path class="cls-13" d="M373.5,228.318c-3.1.748-8.355,1.452-17.745,1.452s-18.787-.731-21.425-1.459-4.417-2.426-4.417-5.105V138.363c0-2.729,1.682-4.373,4.535-4.832a187.476,187.476,0,0,1,21.188-1.253,103.084,103.084,0,0,1,17.743,1.248c3.057.52,4.531,2.219,4.531,4.945v84.743C377.909,225.89,376.593,227.57,373.5,228.318Z"/><rect class="cls-14" x="333.604" y="146.715" width="40.613" height="70.149"/><ellipse class="cls-15" cx="353.784" cy="137.359" rx="0.884" ry="0.948"/><ellipse class="cls-15" cx="339.805" cy="138.108" rx="0.709" ry="0.761"/><polygon class="cls-9" points="374.217 184.151 374.217 146.715 336.092 146.715 374.217 184.151"/><rect class="cls-17" x="333.604" y="145.484" width="40.613" height="11.076"/><path class="cls-9" d="M291.934,92.469a1.319,1.319,0,0,0,.259,1.511l2.054,1.862a1.417,1.417,0,0,0,1.814-.251l2.471-2.336a1.956,1.956,0,0,1,2.364-.6c.582.078,1.26.289,1.855.413a2.1,2.1,0,0,1,1.455,1.845l.811,3.5a1.309,1.309,0,0,0,1.35,1.05l2.6-.177a1.253,1.253,0,0,0,1.163-1.331l.113-3.778a1.732,1.732,0,0,1,1.251-1.772,14.764,14.764,0,0,0,1.758-.935c.779-.533,1.3-.784,2.478.153l2.659,1.876a1.345,1.345,0,0,0,1.811-.25l1.8-2.242a1.37,1.37,0,0,0-.184-1.622l-2.338-2.473a2.811,2.811,0,0,1-.535-2.42c.116-.643.208-1.166.351-1.794a2.079,2.079,0,0,1,1.853-1.753l3.543-.59a1.252,1.252,0,0,0,1.028-1.389l-.527-2.721a1.427,1.427,0,0,0-1.382-1.264l-3.405.229a2.17,2.17,0,0,1-2.072-1.259c-.284-.61-.916-2.036-.916-2.036a1.921,1.921,0,0,1,.131-2.2l2.191-2.946a1.113,1.113,0,0,0-.259-1.51l-2.251-1.8a1.22,1.22,0,0,0-1.618.186l-2.776,2.328c-.815.784-1.165.7-2.12.542a13.283,13.283,0,0,1-1.8-.35,2.236,2.236,0,0,1-1.753-1.853l-.5-3.622c-.284-.611-.561-.911-1.16-.928l-3.211.184c-.618.086-1.041.593-1.065,1.495l-.1,3.6a1.7,1.7,0,0,1-1.2,1.875c-.407.255-.878.573-1.6,1.056-.61.283-1.144.422-2.4-.368l-2.957-1.886a1.249,1.249,0,0,0-1.465.25l-1.861,2.266c-.323.407-.547,1.228-.1,1.6l2.639,2.479a1.715,1.715,0,0,1,.578,2c-.294.919-.454,1.612-.7,2.2-.338.9-.644,1.485-1.555,1.762l-3.625.5a1.421,1.421,0,0,0-.96,1.293l.242,2.895a1.294,1.294,0,0,0,1.169,1.237l3.618-.2a2.165,2.165,0,0,1,2.072,1.26q.423.913.852,1.829a1.959,1.959,0,0,1-.067,2.4l-1.89,2.955m19.49-8.178a7.479,7.479,0,0,1-10.259.918,6.943,6.943,0,0,1-.918-10.251,7.141,7.141,0,0,1,9.957-.925,7.233,7.233,0,0,1,1.22,10.258"/><path class="cls-9" d="M329.709,79.534a.869.869,0,0,0,.171.995l1.352,1.226a.933.933,0,0,0,1.194-.166l1.627-1.537a1.289,1.289,0,0,1,1.556-.393c.383.052.829.191,1.221.272a1.384,1.384,0,0,1,.958,1.215l.533,2.306a.862.862,0,0,0,.889.691l1.713-.117a.825.825,0,0,0,.766-.876l.074-2.487a1.139,1.139,0,0,1,.824-1.166,9.756,9.756,0,0,0,1.157-.616c.512-.351.857-.516,1.631.1l1.75,1.235a.887.887,0,0,0,1.193-.165l1.183-1.475a.9.9,0,0,0-.122-1.068l-1.538-1.628a1.851,1.851,0,0,1-.353-1.593c.077-.423.137-.768.231-1.181a1.371,1.371,0,0,1,1.22-1.154l2.333-.389a.823.823,0,0,0,.676-.914l-.347-1.791a.939.939,0,0,0-.909-.832l-2.242.151a1.43,1.43,0,0,1-1.364-.829c-.187-.4-.6-1.34-.6-1.34a1.265,1.265,0,0,1,.087-1.447l1.442-1.939a.732.732,0,0,0-.171-.994l-1.481-1.184a.8.8,0,0,0-1.065.122L343.468,62.1c-.538.516-.768.459-1.4.357a8.787,8.787,0,0,1-1.183-.231,1.471,1.471,0,0,1-1.154-1.219l-.33-2.385c-.187-.4-.369-.6-.763-.61l-2.114.121c-.407.056-.685.39-.7.983l-.066,2.373a1.122,1.122,0,0,1-.787,1.234c-.269.168-.579.377-1.051.7-.4.186-.753.277-1.578-.242L330.4,61.935a.823.823,0,0,0-.965.164l-1.224,1.492c-.213.268-.36.809-.065,1.053l1.737,1.632a1.127,1.127,0,0,1,.381,1.319c-.194.605-.3,1.061-.458,1.449-.222.591-.424.978-1.024,1.16l-2.386.33a.936.936,0,0,0-.632.851l.16,1.906a.851.851,0,0,0,.77.814l2.381-.132a1.428,1.428,0,0,1,1.364.829q.279.6.561,1.2a1.291,1.291,0,0,1-.044,1.582l-1.245,1.945m12.83-5.383a4.923,4.923,0,0,1-6.753.6,4.571,4.571,0,0,1-.605-6.748,4.7,4.7,0,0,1,6.555-.609,4.761,4.761,0,0,1,.8,6.753"/><path class="cls-9" d="M316.524,58a.639.639,0,0,0,.125.731l.994.9a.686.686,0,0,0,.878-.121l1.2-1.13a.946.946,0,0,1,1.143-.289c.282.038.61.14.9.2a1.017,1.017,0,0,1,.7.893l.392,1.7a.634.634,0,0,0,.653.508l1.259-.086a.605.605,0,0,0,.563-.644l.055-1.828a.837.837,0,0,1,.6-.857,7.2,7.2,0,0,0,.851-.453c.377-.258.63-.379,1.2.074l1.286.908a.652.652,0,0,0,.877-.121l.87-1.084a.665.665,0,0,0-.09-.786l-1.131-1.2a1.361,1.361,0,0,1-.259-1.171c.056-.311.1-.564.17-.868a1.008,1.008,0,0,1,.9-.848l1.714-.286a.6.6,0,0,0,.5-.672l-.254-1.316a.691.691,0,0,0-.669-.612l-1.648.111a1.05,1.05,0,0,1-1-.609c-.137-.3-.443-.985-.443-.985A.929.929,0,0,1,328.917,47l1.06-1.425a.538.538,0,0,0-.125-.731l-1.089-.87a.59.59,0,0,0-.783.09l-1.343,1.126c-.395.38-.564.338-1.026.263a6.321,6.321,0,0,1-.87-.17,1.08,1.08,0,0,1-.848-.9l-.243-1.753c-.137-.295-.271-.441-.561-.449l-1.554.089c-.3.042-.5.287-.515.723l-.049,1.744a.825.825,0,0,1-.578.907c-.2.124-.425.278-.773.512-.3.136-.553.2-1.159-.178l-1.431-.913a.6.6,0,0,0-.709.121l-.9,1.1c-.157.2-.265.595-.048.774l1.277,1.2a.828.828,0,0,1,.28.969c-.142.445-.22.781-.336,1.066-.164.434-.312.718-.753.852l-1.754.243a.686.686,0,0,0-.464.626l.117,1.4a.626.626,0,0,0,.566.6l1.75-.1a1.049,1.049,0,0,1,1,.609q.2.443.412.886a.946.946,0,0,1-.032,1.162L316.524,58m9.431-3.958a3.62,3.62,0,0,1-4.965.444,3.36,3.36,0,0,1-.444-4.96,3.456,3.456,0,0,1,4.818-.447,3.5,3.5,0,0,1,.591,4.963"/><rect class="cls-3" x="336.065" y="181.174" width="35.69" height="12.307"/><rect class="cls-5" x="336.065" y="195.943" width="35.69" height="17.23"/><path class="cls-2" d="M308.99,120.87h-2.462v-2.461h2.462Zm0-4.922h-2.462v-2.462h2.462Zm0-4.923h-2.462v-2.462h2.462Zm0-4.923h-2.462v-2.461h2.462Z"/><polygon class="cls-2" points="300.7 120.857 302.503 119.178 307.654 124.64 312.623 119.191 314.425 120.87 307.654 128.254 300.7 120.857"/><path class="cls-2" d="M342.219,120.87h-2.462v-2.461h2.462Zm0-4.922h-2.462v-2.462h2.462Zm0-4.923h-2.462v-2.462h2.462Zm0-4.923h-2.462v-2.461h2.462Z"/><polygon class="cls-2" points="333.929 120.857 335.732 119.178 340.883 124.64 345.851 119.191 347.654 120.87 340.883 128.254 333.929 120.857"/><rect class="cls-5" x="285.607" y="159.022" width="23.383" height="3.692" rx="1.5" ry="1.5"/><circle class="cls-11" cx="281.915" cy="175.021" r="2.461"/><circle class="cls-11" cx="297.298" cy="175.021" r="2.461"/><circle class="cls-11" cx="312.682" cy="175.021" r="2.461"/><rect class="cls-5" x="342.219" y="159.022" width="23.383" height="3.692" rx="1.5" ry="1.5"/><circle class="cls-11" cx="338.526" cy="175.021" r="2.461"/><circle class="cls-11" cx="353.91" cy="175.021" r="2.461"/><circle class="cls-11" cx="369.294" cy="175.021" r="2.461"/></g></svg>