<svg xmlns="http://www.w3.org/2000/svg" viewBox="0 0 800 600"><title>elements-vehicles-2</title><path d="M800 600H0V0h800z" fill="#fff"/><path fill="#c8c8c8" d="M48.386 148.179h133.445V39.089H48.386v109.09z"/><path fill="#65aa0d" d="M48.386 47.922h133.445v-8.833H48.386v8.833z"/><path d="M179.666 142.564h9.482a5.281 5.281 0 0 0 5.268-5.264v-7.02h-2.341v7.02a2.934 2.934 0 0 1-2.926 2.925h-10.01l-4.039-17.549h18.553v-2.34h-19.2l5.209 22.227z" fill="#666"/><path d="M189.732 135.9h7.082a2.1 2.1 0 0 0 2.107-2.106v-21.7a2.1 2.1 0 0 0-2.107-2.106h-7.082a2.1 2.1 0 0 0-2.107 2.106v21.7a2.1 2.1 0 0 0 2.107 2.106z" fill="#212121"/><path d="M50.9 142.564h-9.54a5.32 5.32 0 0 1-5.26-5.264v-7.02h2.341v7.02a2.973 2.973 0 0 0 2.926 2.925H51.43l4.1-17.548H36.915v-2.34h19.2L50.9 142.564z" fill="#666"/><path d="M180.661 144.494L169.95 90.329a4.889 4.889 0 0 0-4.8-3.919H65.418a4.624 4.624 0 0 0-4.507 3.69l-10.769 54.4L60.5 194.623l49.515.76v.175l5.385-.058 5.385.058v-.175l49.515-.76 10.36-50.129z" fill="#464646"/><path d="M115.109 149.758c-26.279 0-49.691-1.93-64.908-4.972l10.3 49.836 49.515.76v.175l5.385-.058 5.385.058v-.175l49.515-.76 10.36-49.953c-15.217 3.1-38.921 5.089-65.552 5.089z" fill="#65aa0d"/><path d="M69.457 229.718H56.932a2.735 2.735 0 0 1-2.692-2.749v-20.3a2.684 2.684 0 0 1 2.692-2.691h12.525a2.7 2.7 0 0 1 2.751 2.691v20.3a2.747 2.747 0 0 1-2.751 2.749zM174.808 229.718h-12.525a2.735 2.735 0 0 1-2.692-2.749v-20.3a2.684 2.684 0 0 1 2.692-2.691h12.525a2.7 2.7 0 0 1 2.751 2.691v20.3a2.747 2.747 0 0 1-2.751 2.749z" fill="#212121"/><path d="M46.455 191.7v-38.257a12.051 12.051 0 0 1 3.863-8.54s12.291 8.189 15.8 11.465c3.512 3.334 3.746 7.253 4.331 13.687s1.522 21.408 1.522 21.408l-25.518.234z" fill="#adc909"/><path d="M71.388 182.4q-.088-.614-.176-1.053c-.41-3.685-2.341-5.264-5.268-6.259-2.283-.76-14.339-4.387-19.49-5.908v22.286l25.518-.175s-.234-4.095-.585-8.891z" fill="#eaeaea"/><path d="M46.455 184.445v7.019l25.518-.175s-.176-2.983-.41-6.844z" fill="#2488d8"/><path d="M184.582 191.7v-38.257a11.993 11.993 0 0 0-3.921-8.54s-12.291 8.189-15.8 11.465c-3.512 3.334-3.687 7.253-4.273 13.687s-1.58 21.408-1.58 21.408l25.577.234z" fill="#adc909"/><path d="M159.59 182.4a3.93 3.93 0 0 0 .176-1.053c.41-3.685 2.341-5.264 5.268-6.259 2.341-.76 14.4-4.387 19.548-5.908v22.286l-25.577-.175s.293-4.095.585-8.891z" fill="#eaeaea"/><path d="M184.582 184.445v7.019l-25.577-.175s.176-2.983.468-6.844z" fill="#2488d8"/><path d="M152.333 193.043H77.885a2.6 2.6 0 0 1-2.575-2.574V172.22a2.56 2.56 0 0 1 2.575-2.574h74.448a2.524 2.524 0 0 1 2.575 2.574v18.25a2.56 2.56 0 0 1-2.575 2.574z" fill="#464646"/><path fill="#45779e" d="M52.191 135.311h126.48l-8.663-43.636H60.853l-8.662 43.636z"/><path d="M40.778 135.9h-7.024a2.1 2.1 0 0 1-2.107-2.106v-21.7a2.1 2.1 0 0 1 2.107-2.106h7.023a2.148 2.148 0 0 1 2.166 2.106v21.7a2.148 2.148 0 0 1-2.166 2.106z" fill="#212121"/><path fill="#619bb5" d="M134.189 135.311h44.599l-8.663-43.636h-64.439l28.503 43.636z"/><path d="M59.507 44.88h-6.438a1.025 1.025 0 0 1-.995-.994v-1.93a.986.986 0 0 1 .995-.994h6.438a.986.986 0 0 1 .995.994v1.93a1.025 1.025 0 0 1-.995.994zM177.324 44.88h-6.38a.986.986 0 0 1-.995-.994v-1.93a.952.952 0 0 1 .995-.994h6.38a.952.952 0 0 1 .995.994v1.93a.986.986 0 0 1-.995.994z" fill="#ff8c00"/><path d="M182.241 210.182H48.386a1.975 1.975 0 0 1-1.99-1.755l-1.873-17.08a2.032 2.032 0 0 1 1.99-2.223h137.6a2.032 2.032 0 0 1 1.99 2.223l-1.873 17.08a2.018 2.018 0 0 1-1.99 1.755z" fill="#282828"/><path d="M150.928 203.981h-72.4a1.687 1.687 0 0 1-1.639-1.7v-2.921a1.674 1.674 0 0 1 1.639-1.638h72.4a1.674 1.674 0 0 1 1.639 1.638v2.925a1.687 1.687 0 0 1-1.639 1.7z" fill="#212121"/><path fill="#f57800" d="M65.945 203.981h-15.51l-.82-6.258h16.33v6.258zM165.033 203.981h15.51l.82-6.258h-16.33v6.258z"/><path fill="#464646" d="M133.838 203.981H95.619v-11.698h38.219v11.698z"/><path fill="#666" d="M150.987 175.086H79.231v-1.521h71.756v1.521zM150.987 179.765H79.231v-1.521h71.756v1.521zM150.987 184.445H79.231v-1.521h71.756v1.521z"/><path d="M327.817 213.141a16.569 16.569 0 1 0-16.569 16.577 16.575 16.575 0 0 0 16.569-16.577zM496.205 213.141a16.569 16.569 0 1 0-16.569 16.577 16.538 16.538 0 0 0 16.569-16.577z" fill="#282828"/><path d="M426.239 150.946V93.455a8.438 8.438 0 0 0-8.782-8.347h-6.792v65.839z" fill="#666" fill-rule="evenodd"/><path d="M446.848 145.479h-5.855c-.761-.47-1.405-1.058-1.405-1.822a1.262 1.262 0 0 1 1.405-1.293h5.855a1.262 1.262 0 0 1 1.405 1.293c0 .764-.644 1.352-1.405 1.822z" fill="#f57800"/><path fill="#212121" d="M467.633 208.203h-47.6v-39.974h47.6v39.974z"/><path fill="#212121" d="M507.447 208.203h-46.84v-19.634h46.84v19.634zM420.794 208.203H238.881v-32.92h181.913v32.92z"/><path d="M366.284 208.086a5.583 5.583 0 0 0 5.621 5.585h33.256a5.583 5.583 0 0 0 5.621-5.585c0-3.057-2.518-6.172-5.621-6.172h-33.256c-3.1 0-5.621 3.116-5.621 6.172zM497.318 213.082a2.2 2.2 0 0 0 2.342 2.175h9.368a2.2 2.2 0 0 0 2.342-2.175v-4.35c0-1.47-1.171-2.88-2.342-2.88h-9.368c-1.171 0-2.342 1.411-2.342 2.88v4.35z" fill="#212121" fill-rule="evenodd"/><path d="M491.814 213.082a2.2 2.2 0 0 0 2.342 2.175h9.368a2.2 2.2 0 0 0 2.342-2.175v-4.35c0-1.47-1.171-2.88-2.342-2.88h-9.368c-1.171 0-2.342 1.411-2.342 2.88v4.35z" fill="#323232" fill-rule="evenodd"/><path fill="#a3111e" d="M234.197 198.797h-4.625v-7.054h4.625v7.054z"/><path d="M469.565 168.993s-8.958-25.865-14.7-25.865H429.81a3.806 3.806 0 0 0-3.81 3.821s54.744 41.8 69.908 56.551h10.422a2.7 2.7 0 0 0 2.693-3.174v-13.05c.176-10.64-39.462-17.577-39.462-18.282z" fill="#65aa0d" fill-rule="evenodd"/><path d="M464.413 170.287s-9.544-27.159-15.4-27.159h-25.175a3.806 3.806 0 0 0-3.806 3.821v49.379c0 3.057 1.932 4.82 3.864 4.82h28.631s3.045-6.231 8.782-9.17c7.729-4 24.064-3.174 28.923 12.286h10.6a2.715 2.715 0 0 0 2.752-3.174v-13.227c.176-10.816-39.169-16.813-39.169-17.577z" fill="#adc909" fill-rule="evenodd"/><path d="M447.317 206.322c0-1.411-1.171-2.822-2.342-2.822h-27.284c-1.171 0-2.342 1.411-2.342 2.822v11.522c0 1.411 1.171 2.88 2.342 2.88h27.284c1.171 0 2.342-1.47 2.342-2.88v-11.522z" fill="#b2b2b2" fill-rule="evenodd"/><path fill="#505050" d="M442.633 220.724h-3.104V203.5h3.104v17.224zM423.136 220.724h-3.103V203.5h3.103v17.224z"/><path d="M280.685 224.839a1.141 1.141 0 0 1-1.171-1.176v-18.752a1.171 1.171 0 1 1 2.342 0v18.752a1.141 1.141 0 0 1-1.171 1.176z" fill="#212121"/><path d="M412.128 84.4a8.36 8.36 0 0 1 8.665 8.289v98.347c0 4.526-3.572 7.76-8.665 7.76h-.7V84.4z" fill="#b2b2b2" fill-rule="evenodd"/><path d="M409.084 93.572c0 .47.644.941 1.288.941h3.806c1.288 0 1.932-.47 1.932-.941V93.1c0-.47-.644-.941-1.932-.941h-3.806c-.644 0-1.288.47-1.288.941v.47z" fill="#ffa940" fill-rule="evenodd"/><path d="M322.08 213.141a16.6 16.6 0 1 0-16.569 16.577 16.575 16.575 0 0 0 16.569-16.577zM490.467 213.141a16.569 16.569 0 1 0-16.567 16.577 16.575 16.575 0 0 0 16.569-16.577z" fill="#212121"/><path d="M486.193 213.141a16.6 16.6 0 1 0-16.628 16.577 16.587 16.587 0 0 0 16.628-16.577z" fill="#505050"/><path d="M479.05 213.082a9.485 9.485 0 1 0-9.485 9.523 9.5 9.5 0 0 0 9.485-9.523z" fill="#d2d2d2"/><path d="M473.137 213.082a3.543 3.543 0 1 0-3.572 3.586 3.543 3.543 0 0 0 3.572-3.586zM471.849 202.971a2.242 2.242 0 0 0-2.283-2.234 2.263 2.263 0 1 0 0 4.526 2.254 2.254 0 0 0 2.283-2.293zM463.242 210.2a2.283 2.283 0 1 0-4.567 0 2.283 2.283 0 1 0 4.567 0zM480.455 210.2a2.254 2.254 0 1 0-4.508 0 2.254 2.254 0 1 0 4.508 0zM466.111 220.313a2.291 2.291 0 0 0-2.283-2.293 2.293 2.293 0 0 0 0 4.585 2.291 2.291 0 0 0 2.283-2.293zM479.05 218.843a2.242 2.242 0 0 0-2.283-2.234 2.263 2.263 0 1 0 0 4.526 2.254 2.254 0 0 0 2.283-2.293z" fill="#505050"/><path d="M455.923 163.291v7.583a2.029 2.029 0 0 1-1.991 2.057h-22.541a2.029 2.029 0 0 1-1.991-2.057v-19.457a1.978 1.978 0 0 1 1.991-2h16.16a2.066 2.066 0 0 1 1.815 1.058l6.323 11.816a1.938 1.938 0 0 1 .234 1z" fill="#235a89" fill-rule="evenodd"/><path d="M498.957 193.272H493.8a2.232 2.232 0 0 1-2.049-1.234 2.358 2.358 0 0 1 2.049-3.468h5.152a2.232 2.232 0 0 1 2.049 1.234 2.358 2.358 0 0 1-2.049 3.468z" fill="#ec6401"/><path d="M317.747 213.141a16.569 16.569 0 1 0-16.569 16.577 16.575 16.575 0 0 0 16.569-16.577z" fill="#505050"/><path d="M310.662 213.082a9.485 9.485 0 1 0-9.485 9.523 9.54 9.54 0 0 0 9.485-9.523z" fill="#d2d2d2"/><path d="M304.69 213.082a3.53 3.53 0 0 0-3.513-3.527 3.557 3.557 0 1 0 0 7.113 3.543 3.543 0 0 0 3.513-3.586zM303.461 202.971a2.279 2.279 0 0 0-2.283-2.234 2.263 2.263 0 1 0 0 4.526 2.291 2.291 0 0 0 2.283-2.293zM294.854 210.2a2.33 2.33 0 0 0-2.283-2.293 2.291 2.291 0 0 0-2.283 2.293 2.254 2.254 0 0 0 2.283 2.293 2.291 2.291 0 0 0 2.283-2.293zM312.068 210.2a2.291 2.291 0 0 0-2.283-2.293 2.33 2.33 0 0 0-2.285 2.293 2.291 2.291 0 0 0 2.283 2.293 2.254 2.254 0 0 0 2.283-2.293zM297.723 220.313a2.33 2.33 0 0 0-2.283-2.293 2.293 2.293 0 0 0 0 4.585 2.33 2.33 0 0 0 2.283-2.293zM310.662 218.843a2.279 2.279 0 0 0-2.283-2.234 2.263 2.263 0 1 0 0 4.526 2.291 2.291 0 0 0 2.283-2.293z" fill="#505050"/><path d="M454.46 172.285a1.959 1.959 0 0 0 1.464-1.94v-7.7a1.73 1.73 0 0 0-.234-.941l-6.265-11.992a2.009 2.009 0 0 0-1.815-1.117h-15.985a2.1 2.1 0 0 0-.644.118l23.478 23.573z" fill="#45779e" fill-rule="evenodd"/><path d="M448.9 147.361c0-.705 0-.705 1.171-.705 0 0 1.171 0 1.171.705v29.216c0 .647-1.171.647-1.171.647-1.171 0-1.171 0-1.171-.647v-29.216z" fill="#a6a6a6" fill-rule="evenodd"/><path d="M446.555 151.3c.761 0 2.342.588 2.342 1.176v8.818c0 1.176-1.581 1.764-2.342 1.764V151.3zM446.555 165.584c.761 0 2.342.47 2.342 1.411v2.351c0 .47-1.581.941-2.342.941v-4.7z" fill="#212121" fill-rule="evenodd"/><path fill="#45779e" d="M411.426 198.797H234.197V84.402h177.229v114.395z"/><path fill="#005a9e" d="M420.858 309.389l10.912 23.721-11.62-.639-6.236-25.07 6.944 1.988z"/><path fill="#020202" d="M42.559 361.731h290.084v14.204H42.559v-14.204z"/><path d="M315.5 380.2a19.45 19.45 0 1 1-19.414-19.531A19.574 19.574 0 0 1 315.5 380.2z" fill="#212121"/><path d="M306.71 380.2a10.77 10.77 0 1 1-10.628-10.724A10.782 10.782 0 0 1 306.71 380.2z" fill="#bfbebe"/><path d="M303.238 380.2a7.332 7.332 0 0 1-7.156 7.173 7.068 7.068 0 1 1 0-14.133 7.294 7.294 0 0 1 7.156 6.96z" fill="#9d9c9c"/><path d="M299.553 380.2a3.643 3.643 0 0 1-3.472 3.764 3.7 3.7 0 0 1-3.755-3.764 3.642 3.642 0 0 1 3.755-3.48 3.577 3.577 0 0 1 3.472 3.48z" fill="#dddddc"/><path d="M297.144 371.39c0 .5-.213.781-.709.781h-.921a.724.724 0 0 1-.638-.781c0-.568.283-.852.567-.852h.921c.567 0 .779.284.779.852zM297.144 389.358c0 .568-.213.852-.709.852h-.921c-.283 0-.638-.284-.638-.852 0-.5.283-.781.567-.781h.921a.68.68 0 0 1 .779.781zM305.009 381.546c-.567 0-.85-.213-.85-.781v-.852c0-.284.283-.639.85-.639.5 0 .779.284.779.568v.923a.68.68 0 0 1-.779.781zM287.012 381.546c-.567 0-.779-.213-.779-.781v-.852c0-.284.213-.639.779-.639.5 0 .779.284.779.568v.923a.68.68 0 0 1-.779.781zM301.4 373.094c-.283.426-.567.568-.992.355l-.779-.426a.735.735 0 0 1-.213-1.065.831.831 0 0 1 .921-.426l.779.5c.5.213.567.568.283 1.065zM292.609 388.79c-.283.5-.567.639-1.063.355l-.779-.426a.8.8 0 0 1-.142-1.065.626.626 0 0 1 .85-.355l.85.426a.729.729 0 0 1 .283 1.065zM303.308 385.807c-.5-.284-.638-.568-.354-1.065l.425-.781a.717.717 0 0 1 .992-.142.671.671 0 0 1 .425.923l-.425.781a.693.693 0 0 1-1.063.284zM287.578 376.929c-.425-.213-.567-.5-.283-.994l.425-.781a.7.7 0 0 1 .992-.142c.5.213.567.639.425.852l-.5.852q-.319.639-1.063.213zM304.3 376.716c-.5.284-.779.284-1.063-.213l-.425-.71a.734.734 0 0 1 .354-.994c.425-.284.85-.142.921.071l.5.781c.283.5.142.781-.283 1.065zM288.854 385.949c-.425.284-.779.284-1.063-.142l-.425-.781a.734.734 0 0 1 .354-.994.719.719 0 0 1 .992.071l.425.852a.592.592 0 0 1-.283.994zM299.624 388.719c-.283-.5-.213-.781.213-1.065l.779-.5a.9.9 0 0 1 .992.355c.213.5.142.852-.142.994l-.779.5c-.425.284-.779.142-1.063-.284zM290.413 373.236c-.283-.5-.283-.781.213-1.065l.779-.426a.731.731 0 0 1 .992.355c.213.426.071.852-.142.923l-.779.5c-.5.284-.779.142-1.063-.284z" fill="#505050"/><path d="M271.778 380.2a19.436 19.436 0 0 1-19.485 19.46 19.5 19.5 0 0 1 0-38.99 19.634 19.634 0 0 1 19.485 19.53z" fill="#212121"/><path d="M262.921 380.2a10.77 10.77 0 1 1-10.628-10.724 10.736 10.736 0 0 1 10.628 10.724z" fill="#bfbebe"/><path d="M259.52 380.2a7.345 7.345 0 0 1-7.227 7.173 7.067 7.067 0 1 1 0-14.133 7.309 7.309 0 0 1 7.227 6.96z" fill="#9d9c9c"/><path d="M255.764 380.2a3.643 3.643 0 0 1-3.472 3.764 3.7 3.7 0 0 1-3.755-3.764 3.642 3.642 0 0 1 3.755-3.48 3.577 3.577 0 0 1 3.472 3.48z" fill="#dddddc"/><path d="M253.355 371.39c0 .5-.142.781-.709.781h-.85a.776.776 0 0 1-.709-.781c0-.568.354-.852.567-.852h.921c.567 0 .779.284.779.852zM253.355 389.358c0 .568-.142.852-.709.852h-.85a.8.8 0 0 1-.709-.852.733.733 0 0 1 .567-.781h.921a.68.68 0 0 1 .779.781zM261.22 381.546c-.567 0-.779-.213-.779-.781v-.852c0-.284.213-.639.779-.639.5 0 .779.284.779.568v.923a.68.68 0 0 1-.779.781zM243.223 381.546a.68.68 0 0 1-.779-.781v-.852a.724.724 0 0 1 .779-.639c.567 0 .85.284.85.568v.923c0 .568-.283.781-.85.781zM257.606 373.094a.676.676 0 0 1-.992.355l-.779-.426a.878.878 0 0 1-.213-1.065.867.867 0 0 1 .921-.426l.779.5c.5.213.567.568.283 1.065zM248.82 388.79c-.283.5-.567.639-.992.355l-.779-.426a.735.735 0 0 1-.213-1.065c.283-.426.638-.5.921-.355l.779.426c.5.284.567.568.283 1.065zM259.52 385.807c-.5-.284-.638-.568-.354-1.065l.425-.781a.79.79 0 0 1 1.063-.142.687.687 0 0 1 .354.923l-.425.781a.693.693 0 0 1-1.063.284zM243.86 376.929c-.5-.213-.638-.5-.354-.994l.425-.781a.717.717 0 0 1 .992-.142c.5.213.567.639.425.852l-.425.852a.677.677 0 0 1-1.063.213zM260.512 376.716c-.425.284-.779.284-1.063-.213l-.425-.71a.734.734 0 0 1 .354-.994.719.719 0 0 1 .992.071l.425.781c.283.5.213.781-.283 1.065zM245.065 385.949c-.425.284-.779.284-.992-.142l-.5-.781a.805.805 0 0 1 .354-.994.719.719 0 0 1 .992.071l.5.852c.283.426.142.781-.354.994zM255.835 388.719c-.213-.5-.213-.781.213-1.065l.779-.5a.9.9 0 0 1 .992.355c.283.5.142.852-.071.994l-.85.5c-.425.284-.779.142-1.063-.284zM246.624 373.236c-.213-.5-.213-.781.213-1.065l.779-.426a.731.731 0 0 1 .992.355c.283.426.142.852-.071.923l-.85.5c-.425.284-.779.142-1.063-.284z" fill="#505050"/><path d="M151.394 380.2a19.45 19.45 0 1 1-19.485-19.531 19.588 19.588 0 0 1 19.485 19.531z" fill="#212121"/><path d="M142.607 380.2a10.806 10.806 0 1 1-10.7-10.724 10.8 10.8 0 0 1 10.7 10.724z" fill="#bfbebe"/><path d="M139.136 380.2a7.345 7.345 0 0 1-7.227 7.173 7.067 7.067 0 1 1 0-14.133 7.309 7.309 0 0 1 7.227 6.96z" fill="#9d9c9c"/><path d="M135.38 380.2a3.6 3.6 0 0 1-3.472 3.764 3.637 3.637 0 0 1-3.685-3.764 3.577 3.577 0 0 1 3.685-3.48 3.528 3.528 0 0 1 3.472 3.48z" fill="#dddddc"/><path d="M132.971 371.39c0 .5-.142.781-.709.781h-.85a.776.776 0 0 1-.709-.781c0-.568.354-.852.638-.852h.921c.5 0 .709.284.709.852zM132.971 389.358c0 .568-.142.852-.709.852h-.85a.8.8 0 0 1-.709-.852.724.724 0 0 1 .638-.781h.921c.5 0 .709.284.709.781zM140.836 381.546a.68.68 0 0 1-.779-.781v-.852a.724.724 0 0 1 .779-.639c.567 0 .85.284.85.568v.923c0 .568-.283.781-.85.781zM122.91 381.546c-.567 0-.85-.213-.85-.781v-.852c0-.284.283-.639.85-.639.5 0 .779.284.779.568v.923a.68.68 0 0 1-.779.781zM137.293 373.094a.748.748 0 0 1-1.063.355l-.779-.426a.8.8 0 0 1-.142-1.065.746.746 0 0 1 .85-.426l.85.5c.425.213.5.568.283 1.065zM128.436 388.79c-.213.5-.5.639-.992.355l-.779-.426a.878.878 0 0 1-.213-1.065c.283-.426.709-.5.921-.355l.85.426c.425.284.5.568.213 1.065zM139.136 385.807a.751.751 0 0 1-.354-1.065l.425-.781a.79.79 0 0 1 1.063-.142.727.727 0 0 1 .425.923l-.5.781c-.213.5-.567.5-1.063.284zM123.476 376.929c-.5-.213-.638-.5-.354-.994l.425-.781a.79.79 0 0 1 1.063-.142.629.629 0 0 1 .354.852l-.425.852c-.283.426-.567.5-1.063.213zM140.2 376.716c-.5.284-.779.284-1.063-.213l-.5-.71a.805.805 0 0 1 .354-.994c.5-.284.85-.142.992.071l.5.781c.283.5.142.781-.283 1.065zM124.752 385.949c-.5.284-.779.284-1.063-.142l-.425-.781a.763.763 0 0 1 .283-.994c.5-.284.85-.142.992.071l.5.852a.62.62 0 0 1-.283.994zM135.522 388.719c-.283-.5-.283-.781.213-1.065l.709-.5a.869.869 0 0 1 .992.355c.283.5.142.852-.071.994l-.779.5c-.5.284-.779.142-1.063-.284zM126.311 373.236c-.283-.5-.283-.781.213-1.065l.709-.426a.718.718 0 0 1 .992.355c.283.426.142.852-.071.923l-.779.5c-.5.284-.779.142-1.063-.284z" fill="#505050"/><path d="M107.6 380.2a19.45 19.45 0 1 1-19.41-19.534A19.574 19.574 0 0 1 107.6 380.2z" fill="#212121"/><path d="M98.819 380.2a10.77 10.77 0 1 1-10.629-10.728A10.782 10.782 0 0 1 98.819 380.2z" fill="#bfbebe"/><path d="M95.347 380.2a7.332 7.332 0 0 1-7.156 7.173 7.068 7.068 0 1 1 0-14.133 7.294 7.294 0 0 1 7.156 6.96z" fill="#9d9c9c"/><path d="M91.662 380.2a3.643 3.643 0 0 1-3.472 3.764 3.7 3.7 0 0 1-3.755-3.764 3.642 3.642 0 0 1 3.755-3.48 3.577 3.577 0 0 1 3.472 3.48z" fill="#dddddc"/><path d="M89.253 371.39c0 .5-.213.781-.709.781h-.921a.724.724 0 0 1-.638-.781c0-.568.283-.852.567-.852h.921c.567 0 .779.284.779.852zM89.253 389.358c0 .568-.213.852-.709.852h-.921c-.283 0-.638-.284-.638-.852 0-.5.283-.781.567-.781h.921a.68.68 0 0 1 .779.781zM97.118 381.546c-.567 0-.85-.213-.85-.781v-.852c0-.284.283-.639.85-.639.5 0 .779.284.779.568v.923a.68.68 0 0 1-.779.781zM79.121 381.546c-.567 0-.779-.213-.779-.781v-.852c0-.284.213-.639.779-.639.5 0 .779.284.779.568v.923a.68.68 0 0 1-.779.781zM93.5 373.094a.748.748 0 0 1-1.063.355l-.709-.426a.735.735 0 0 1-.213-1.065.831.831 0 0 1 .921-.426l.779.5c.5.213.567.568.283 1.065zM84.718 388.79c-.283.5-.567.639-1.063.355l-.779-.426a.8.8 0 0 1-.142-1.065.626.626 0 0 1 .85-.355l.85.426a.729.729 0 0 1 .283 1.065zM95.417 385.807c-.5-.284-.638-.568-.354-1.065l.425-.781a.717.717 0 0 1 .992-.142.671.671 0 0 1 .425.923l-.425.781a.693.693 0 0 1-1.063.284zM79.687 376.929a.664.664 0 0 1-.354-.994l.5-.781c.071-.213.5-.426.992-.142.5.213.567.639.425.852l-.5.852q-.319.639-1.063.213zM96.409 376.716c-.5.284-.779.284-1.063-.213l-.425-.71a.763.763 0 0 1 .283-.994c.5-.284.85-.142.992.071l.5.781c.283.5.142.781-.283 1.065zM80.963 385.949c-.425.284-.779.284-1.063-.142l-.425-.781a.734.734 0 0 1 .354-.994.719.719 0 0 1 .992.071l.425.852a.592.592 0 0 1-.283.994zM91.733 388.719c-.283-.5-.213-.781.213-1.065l.779-.5a.9.9 0 0 1 .992.355c.213.5.071.852-.142.994l-.779.5c-.425.284-.779.142-1.063-.284zM82.522 373.236c-.283-.5-.283-.781.213-1.065l.779-.426a.646.646 0 0 1 .921.355c.283.426.142.852-.071.923l-.779.5c-.5.284-.779.142-1.063-.284z" fill="#505050"/><path fill="#2488d8" d="M415.757 334.744h-27.705V308.04h27.705v26.704z"/><path fill="#005a9e" d="M415.757 334.744h-27.705v-15.341h27.705v15.341z"/><path fill="none" stroke="#fff" stroke-linecap="round" stroke-linejoin="round" stroke-width=".193" d="M415.757 334.744h-27.705V308.04h27.705v26.704z"/><path fill="#020202" d="M381.392 365.282h12.541v15.198h-12.541v-15.198z"/><path fill="#020202" d="M394.429 372.739h-63.132v-11.008h63.132v11.008zM396.555 361.731h28.838v18.465h-28.838v-18.465z"/><path d="M413.135 302.714c0 1.065-1.63 1.633-2.409 1.633a1.461 1.461 0 0 1-1.63-1.633 1.6 1.6 0 0 1 1.63-1.633c.779 0 2.409.852 2.409 1.633z" fill="#ff8c00"/><path fill="#fff" d="M397.688 304.347h13.038v-3.267h-13.038v3.267z"/><path fill="#3c3c3c" d="M414.198 364.146h-26.146v9.09h26.146v-9.09z"/><path fill="#212121" d="M388.052 367.342h26.146v-3.196h-26.146v3.196z"/><path d="M478.677 356.973a1.913 1.913 0 0 1-2.126 1.847h-.567a1.875 1.875 0 0 1-2.126-1.847v-1.349a2.087 2.087 0 0 1 2.126-2.131h.567a2.133 2.133 0 0 1 2.126 2.131v1.349z" fill="#ff8c00"/><path fill="#020202" d="M429.857 381.546h18.139l27.988 3.48 5.881-1.918v-10.653l-2.692-2.699-5.031-8.025-7.723-4.758-11.479-3.48-28.272 3.693 6.661 8.593-3.472 15.767z"/><path d="M476.551 359.6a1.926 1.926 0 0 1-1.913 2.131l-5.881-4.545c-1.063 0-1.842-3.977-1.842-5.042v-18.963a2.042 2.042 0 0 1 1.842-2.131h5.881a2.1 2.1 0 0 1 1.913 2.131V359.6z" fill="#fff"/><path d="M413.348 328.636h-20.194a1.941 1.941 0 0 1-2.126-2.131v-12.854a2.087 2.087 0 0 1 2.126-2.131h17.005a2.1 2.1 0 0 1 1.913 2.131l3.189 12.855a1.926 1.926 0 0 1-1.913 2.131zm14.951 2.415c-3.472 0-4.251-2.131-5.6-4.261-2.409-4.829-6.944-17.4-6.944-17.4h5.1s-9.07-8.309-21.044-8.309h-17.64s-3.188 1.065-3.188 6.676c0-6.676-2.905-22.655-47.686-22.655v79.045h87.153c6.094 0 5.031 4.829 5.031 9.872v9.659h8.574s-1.913-27.769 26.358-27.769a32.091 32.091 0 0 1 13.6 2.912v-27.77z" fill="#adc909"/><path d="M385.926 310.455V270.4c0-5.895-2.905-8.522-7.44-8.522v3.977s3.684-.781 3.684 6.392v43.322" fill="#8e9698"/><path d="M403.215 299.234a4.045 4.045 0 0 1 4.039 2.912h.283v-7.954h-.283a4.4 4.4 0 0 1-4.039 2.912h-17.289v2.131z" fill="#69afe5"/><path d="M476.551 380.2a19.436 19.436 0 0 1-19.485 19.46 19.5 19.5 0 0 1 0-38.99 19.634 19.634 0 0 1 19.485 19.53z" fill="#212121"/><path d="M467.694 380.2a10.77 10.77 0 1 1-10.628-10.724 10.736 10.736 0 0 1 10.628 10.724z" fill="#bfbebe"/><path d="M464.293 380.2a7.345 7.345 0 0 1-7.227 7.173 7.068 7.068 0 1 1 0-14.133 7.309 7.309 0 0 1 7.227 6.96z" fill="#9d9c9c"/><path d="M460.538 380.2a3.643 3.643 0 0 1-3.472 3.764 3.7 3.7 0 0 1-3.755-3.764 3.642 3.642 0 0 1 3.755-3.48 3.577 3.577 0 0 1 3.472 3.48z" fill="#dddddc"/><path d="M458.128 371.39c0 .5-.142.781-.709.781h-.85a.776.776 0 0 1-.709-.781c0-.568.354-.852.567-.852h.921c.567 0 .779.284.779.852zM458.128 389.358c0 .568-.142.852-.709.852h-.85a.8.8 0 0 1-.709-.852.733.733 0 0 1 .567-.781h.921a.68.68 0 0 1 .779.781zM465.993 381.546c-.567 0-.779-.213-.779-.781v-.852c0-.284.213-.639.779-.639.5 0 .779.284.779.568v.923a.68.68 0 0 1-.779.781zM448 381.546a.68.68 0 0 1-.779-.781v-.852a.724.724 0 0 1 .779-.639c.567 0 .85.284.85.568v.923c0 .568-.283.781-.85.781zM462.38 373.094c-.283.426-.567.568-.992.355l-.779-.426a.879.879 0 0 1-.212-1.065.867.867 0 0 1 .921-.426l.779.5c.5.213.567.568.283 1.065zM453.594 388.79c-.283.5-.567.639-.992.355l-.779-.426a.735.735 0 0 1-.213-1.065c.283-.426.638-.5.921-.355l.779.426c.5.284.567.568.283 1.065zM464.293 385.807c-.5-.284-.638-.568-.354-1.065l.425-.781a.79.79 0 0 1 1.063-.142.687.687 0 0 1 .354.923l-.425.781a.693.693 0 0 1-1.063.284zM448.634 376.929c-.5-.213-.638-.5-.354-.994l.425-.781a.717.717 0 0 1 .992-.142c.5.213.567.639.425.852l-.425.852a.677.677 0 0 1-1.063.213zM465.285 376.716c-.425.284-.779.284-1.063-.213l-.425-.71a.734.734 0 0 1 .354-.994.719.719 0 0 1 .992.071l.425.781c.283.5.213.781-.283 1.065zM449.838 385.949c-.425.284-.779.284-.992-.142l-.5-.781a.805.805 0 0 1 .354-.994.719.719 0 0 1 .992.071l.5.852a.641.641 0 0 1-.354.994zM460.608 388.719c-.212-.5-.212-.781.213-1.065l.779-.5a.9.9 0 0 1 .992.355c.283.5.142.852-.071.994l-.85.5c-.425.284-.779.142-1.063-.284zM451.4 373.236c-.283-.5-.213-.781.213-1.065l.779-.426a.731.731 0 0 1 .992.355c.283.426.142.852-.142.923l-.779.5c-.425.284-.779.142-1.063-.284z" fill="#505050"/><path fill="#fff" d="M411.434 326.789h-3.117v-15.766h3.117v15.766zM408.6 330.766c0 2.131-.85 3.764-1.63 3.764s-1.559-1.633-1.559-3.764c0-1.847.779-3.48 1.559-3.48s1.63 1.633 1.63 3.48z"/><path d="M409.38 331.264h-5.6V330.2h5.6c.779 0 1.63-.5 1.63-1.278v-17.4a1.747 1.747 0 0 0-1.63-1.562h-5.6v-1.136h5.6a2.648 2.648 0 0 1 2.409 2.7v17.4a2.377 2.377 0 0 1-2.409 2.344z" fill="#fff"/><path d="M432.55 356.973a2.041 2.041 0 0 1-2.126 1.847h-7.44a2.041 2.041 0 0 1-2.126-1.847v-23.295a2.289 2.289 0 0 1 2.126-2.131h7.44a2.289 2.289 0 0 1 2.126 2.131v23.295z" fill="#65aa0d"/><path d="M382.171 363.649v5.611c0 2.415-3.684 2.415-3.684 8.238 0 5.611 2.409 6.96 5.6 6.96h4.535V380.2h-5.1c-1.842 0-1.559-4.048 0-5.611 1.346-1.349 2.409-2.7 2.409-6.392v-5.611l-3.755 1.065z" fill="#8e9698"/><path d="M432.833 383.676h-2.976V380.2a27.125 27.125 0 0 1 52.221-10.44l-2.905 1.065a24.129 24.129 0 0 0-46.34 9.375v3.48z" fill="#bad80a"/><path d="M480.519 372.739h2.905a2.377 2.377 0 0 1 2.409 2.344v8.309a2.392 2.392 0 0 1-2.409 2.415h-2.905v-13.068z" fill="#8e9698"/><path d="M373.172 367.91a2.1 2.1 0 0 0-1.913-2.131h-37.837a2.087 2.087 0 0 0-2.126 2.131v20.028a1.941 1.941 0 0 0 2.126 2.131h37.837a1.926 1.926 0 0 0 1.913-2.131V367.91z" fill="#bfbebe"/><path fill="#ccc" d="M31.647 261.806h300.075v100.209H31.647V261.806z"/><path fill="#fff" d="M31.647 287.302h300.075v27.414H31.647v-27.414z"/><path fill="#005a9e" d="M31.647 353.351h300.075v9.232H31.647v-9.232z"/><path d="M331.3 382.114v5.824a1.975 1.975 0 0 0 2.126 2.131h37.837a1.926 1.926 0 0 0 1.913-2.131v-5.824z" fill="#9d9c9c"/><path d="M378.983 363.649a2.132 2.132 0 0 0 2.126 2.131h6.164a1.914 1.914 0 0 0 1.842-2.131V312.3a1.789 1.789 0 0 0-1.842-1.847h-6.164a2.041 2.041 0 0 0-2.126 1.847v51.348z" fill="#3c3c3c"/><path fill="#f57800" d="M44.401 359.388h-8.077v-4.191h8.077v4.191zM44.401 268.482h-8.077v-4.19h8.077v4.19zM325.77 268.482h-8.078v-4.19h8.078v4.19z"/><path d="M341 328.281h23.67a1.726 1.726 0 0 0 1.7-1.7v-13.21a1.742 1.742 0 0 0-1.7-1.776H341a1.742 1.742 0 0 0-1.7 1.776v13.21a1.726 1.726 0 0 0 1.7 1.7z" fill="#005a9e"/><path d="M366.37 319.261v-5.895a1.742 1.742 0 0 0-1.7-1.776H341a1.742 1.742 0 0 0-1.7 1.776v5.895z" fill="#2488d8"/><path d="M373.172 372.668v-4.758a2.1 2.1 0 0 0-1.913-2.131h-37.837a2.087 2.087 0 0 0-2.126 2.131v4.758z" fill="#fff"/><path d="M430.424 331.548h-1.417v27.272h1.417a2.041 2.041 0 0 0 2.126-1.847v-23.295a2.289 2.289 0 0 0-2.126-2.131z" fill="#3b930f"/><path fill="#666" d="M416.82 373.236h-28.768v12.429h28.768v-12.429z"/><path fill="#8e9698" d="M418.449 388.719h-31.743v-3.267h31.743v3.267z"/><path d="M394.287 337.158h-2.126a.625.625 0 0 1-.638-.568v-4.048a.625.625 0 0 1 .638-.568h2.126a.625.625 0 0 1 .638.568v4.048a.625.625 0 0 1-.638.568z" fill="#fff"/><path d="M379.2 364.146v-58.592a10.08 10.08 0 0 0-.213 2.2c0-4.829-1.559-14.772-20.052-19.744 4.747 2.557 14.455 9.375 14.455 22.087v54.046z" fill="#91a80a"/><path d="M384.084 310.455h-2.976a2.041 2.041 0 0 0-2.126 1.847v51.348a2.132 2.132 0 0 0 2.126 2.131h2.976v-55.326z" fill="#4c4c4c"/><path d="M391.939 566.6H218.318a3.164 3.164 0 0 1-3.009-3.1 3.026 3.026 0 0 1 3.009-3.1h173.621a3.006 3.006 0 0 1 3.061 3.1 3.1 3.1 0 0 1-3.061 3.1z" fill="#b2b2b2"/><path d="M307.56 553.186h-23.348v-12.64h23.348v12.64z"/><path d="M258.736 532.085c0 1.445.519 2.115 1.09 2.115h14.32c1.038 0 1.557-.671 1.557-2.115v-.671a1.441 1.441 0 0 0-1.557-1.445h-14.32c-.571 0-1.09.722-1.09 1.445v.671z" fill="#212121" fill-rule="evenodd"/><path fill="#212121" d="M290.541 546.841h-33.932v-10.525h33.932v10.525z"/><path d="M249.6 525.791c8.976 0 23.971 2.219 23.971 19.657 0 3.973-4.773 5.624-4.773 5.624l-22.774-7.272 3.58-18.006z" fill="#212121" fill-rule="evenodd"/><path d="M276.325 492h-26.1a2.076 2.076 0 0 0-2.075 2.064v35.906h2.127l.1-34.413a.685.685 0 0 1 .675-.671h23.608s14.061 9.751 14.061 46.434c0 1.7 3.373 3.457 3.373-3.457 0 0 .571-31.523-15.773-45.866z" fill="#212121" fill-rule="evenodd"/><path fill="#c48c00" fill-rule="evenodd" d="M292.565 538.431h12.867v8.925l-7.782 7.43-4.514.516h-21.688l21.117-16.871z"/><path fill="#212121" fill-rule="evenodd" d="M224.804 543.281v12.021h33.932l-14.995-14.756-18.937 2.735z"/><path d="M272.486 557.417h-29.523s-1.712-14.446-18.16-14.446v-7.223s0-9.957 11.933-9.957h10.792v3.3s21.532-1.651 21.532 16.1h13.075l9.651-8.306h13.646v3.3h-13.645l-19.3 17.232z" fill="#ffb900" fill-rule="evenodd"/><path d="M237.515 555.3a8.483 8.483 0 1 0-8.457 8.461 8.479 8.479 0 0 0 8.457-8.461z" fill="#505050"/><path d="M233.261 555.3a4.229 4.229 0 1 0-4.2 4.231 4.217 4.217 0 0 0 4.2-4.231z" fill="#b2b2b2"/><path fill="#212121" d="M311.762 555.302h-6.33v-82.291h6.33v82.291z"/><path fill="#212121" fill-rule="evenodd" d="M299.051 496.898l8.509 1.445v-6.346h-8.509v4.901z"/><path fill="#212121" d="M388.67 543.487h-81.11v-2.115h81.11v2.115zM313.89 536.316h-6.33v-27.448h6.33v27.448z"/><path d="M307.56 553.186a10.61 10.61 0 1 0-10.636 10.577 10.577 10.577 0 0 0 10.636-10.577z" fill="#505050"/><path d="M303.305 553.186a6.382 6.382 0 1 0-6.382 6.346 6.359 6.359 0 0 0 6.382-6.346z" fill="#b2b2b2"/><path fill="#0078d7" d="M264.184 529.402h2.75v-.98h-2.75v.98z"/><path d="M272.434 542.146l-2.49-12.743-5.863-.825.519-3.56 7.212 1.083a1.934 1.934 0 0 1 1.5 1.548l1.3 14.5z" fill="#737373"/><path d="M278.141 542.352c-4.151-12.228-4.047-11.866-4.047-11.866-1.245-.1-10.273-1.083-10.273-1.083.415-3.56.415-3.869.415-3.869l11.363 1.238a1.781 1.781 0 0 1 1.5 1.29l3.58 14.291z" fill="#737373"/><path d="M267.868 515.317a2.566 2.566 0 0 0-2.335-1.548h-2.439c-1.66 0-1.868 1.651-2.024 2.012-.519 1.341-.726 7.171-.726 9.648 0 2.373-.052 3.56 1.349 3.818 1.868.413 5.552.825 5.552.825 1.4 0 2.49 0 2.49-2.373s-1.141-11.454-1.868-12.382z" fill="#464646"/><path d="M277.467 541.991c-.467-.258-2.75-1.187-2.75-1.187a.191.191 0 0 0-.156-.052.376.376 0 0 0-.311.31.938.938 0 0 1-1.038.671l-.986-.568-.052 2.064a.368.368 0 0 0 .415.413l4.929-.155s.311.052.311-.31l.052-.671s.052-.258-.415-.516z"/><path d="M283.589 541.939c-.519-.258-3.061-1.238-3.061-1.238h-.208c-.156 0-.259.052-.259.206a.051.051 0 0 1-.052.052 1.017 1.017 0 0 1-1.09.774l-1.038-.671-.052 2.167a.368.368 0 0 0 .415.413l5.4-.155s.311.1.311-.31v-.722s.1-.206-.363-.516z"/><path d="M279.957 520.322l-7.056 4.9a.641.641 0 0 0-.156.825.65.65 0 0 0 .83.155l2.8-1.961.726.98-1.09.722 9.339 13.1 4.1-1.393-10.014-14.085-1.038.774-.726-1.032 2.957-2.012a.579.579 0 0 0 .1-.825.573.573 0 0 0-.778-.155z" fill="#212121"/><path d="M274.769 522.179c.052-.155.778-.155.83-.361.1-.258 1.453-.31 1.453-.31.156 0 .363.1.363.258a.339.339 0 0 1-.259.413l-1.972.413a.411.411 0 0 1-.415-.258v-.155z" fill="#805443"/><path d="M276.325 522.334a.321.321 0 0 1 .415-.258l1.92.619a.416.416 0 0 1 .208.464.353.353 0 0 1-.415.206l-1.868-.619a.339.339 0 0 1-.259-.413zM275.547 523.263a.321.321 0 0 1 .415-.258l1.92.619a.308.308 0 0 1 .208.413.281.281 0 0 1-.415.206l-1.92-.619c-.208-.052-.311-.206-.208-.361z" fill="#9d6952"/><path d="M275.287 523.727c.052-.206.208-.31.363-.206l1.712.464a.36.36 0 1 1-.259.671l-1.608-.516a.379.379 0 0 1-.208-.413zM275.7 522.7a.353.353 0 0 1 .415-.206l2.075.671a.319.319 0 0 1 .259.413.42.42 0 0 1-.467.206l-2.075-.619a.416.416 0 0 1-.208-.464z" fill="#9d6952"/><path d="M275.184 523.52c.156-.671.519-1.7.519-1.7l.934.258-.726 2.167s-.882-.052-.726-.722z" fill="#9d6952"/><path d="M276.792 522.127a1.527 1.527 0 0 0-1.09-.413c-.1.464-.156.619-.156.619l1.245-.206z" fill="#9d6952"/><path d="M261.745 517.329c.726 2.064 3.58 4.953 4.255 5.572.675.671 9.235 1.238 9.235 1.238l.83-2.476s-6.434-1.083-6.953-1.238c-.467-.155-2.906-2.631-4.825-5.314-1.141-1.6-3.424-.1-2.542 2.218z" fill="#464646"/><path d="M262.679 505.876a4.265 4.265 0 0 1 4.047 0 2.543 2.543 0 0 1 1.09 2.425 2.316 2.316 0 0 0 .726 1.857c.156.258.363.516 0 .671a5.334 5.334 0 0 1-.571.155l.052 2.115a5.8 5.8 0 0 1-3.891.052c-.156-.052-.311-.155-.467-.206-.052-.052-.1-.052-.156-.1a7.024 7.024 0 0 1-1.868-2.167c-1.141-1.961-.623-3.921 1.038-4.8z" fill="#9d6952"/><path d="M267.816 508.3l-3.373.774-.156-1.5 3.58-.206a3.143 3.143 0 0 1-.052.929z" fill="#805443"/><path d="M261.642 505.876c2.127-1.857 5.552-.464 5.552-.464l.363 1.341-3.321.258.259 2.58-1.141.1v.877l-.571 1.651a6.4 6.4 0 0 1-1.764-3.147 4.539 4.539 0 0 1 .623-3.2z" fill="#2f2f2f"/><path d="M263.665 508.92l.156 1.806a1.008 1.008 0 0 1-1.141-.825c-.052-.516.363-.929.986-.98z" fill="#9d6952"/><path fill="#464646" d="M262.835 507.681l-1.816 1.858-.623-.671 1.09-1.135 1.349-.052z"/><path d="M264.028 503.451a3.716 3.716 0 0 1 3.113 1.135l.259.052a.343.343 0 0 1 .208.258l.415 2.27c.052.1-.052.155-.156.206l-1.557.052c-.052 0-.052 0-.1-.052-1.349.155-3.061.31-3.632.31-.986 0-1.764-.052-1.764-.052 0-.568-.519-4.024 3.217-4.179z" fill="#ffb900"/><path fill="#c48c00" d="M270.099 507.269l-2.127-.155-7.368.258v.516l9.547-.361-.052-.258z"/><path d="M265.637 506.34l-.311.052a.241.241 0 0 0-.259.31v.413a.334.334 0 0 0 .311.31l.311-.052a.274.274 0 0 0 .311-.31v-.413a.388.388 0 0 0-.363-.31zM262.835 506.495h-.311a.3.3 0 0 0-.311.31v.413a.342.342 0 0 0 .363.31h.311c.156-.052.311-.155.259-.31v-.464a.259.259 0 0 0-.311-.258z" fill="#c48c00"/><path d="M261.227 529.918l-2.179-11.97a.83.83 0 0 0-.986-.671l-2.542.464a.873.873 0 0 0-.726.98l1.816 9.7 4.618 1.5zM246.491 536.367h-5.4a.4.4 0 0 1-.415-.361v-1.445a.4.4 0 0 1 .415-.361h5.4a.354.354 0 0 1 .363.361v1.445a.354.354 0 0 1-.363.361z" fill="#212121" fill-rule="evenodd"/><path d="M286.391 508.971H281.2l-1.141-1.961a.165.165 0 0 0-.156-.155h-2.49a.228.228 0 0 0-.156.361l3.372 5.933c0 .1.1.1.156.1h2.49a.189.189 0 0 0 .156-.31l-1.5-2.734h4.462v-1.238z" fill="#212121"/><path d="M533.713 457.088l.014-.009a6.643 6.643 0 0 1 .859-.587 8.6 8.6 0 0 0 2.394-2.395v-4.887h4.364V454.158a9.194 9.194 0 0 1-1.654 3.9c-2.513 2.882-2.76 3.1-2.76 3.919a2.452 2.452 0 0 0 2.355 2.513 2.626 2.626 0 0 0 2.445-2.473 4.907 4.907 0 0 1 2.377-3.772c.631-.1 1.446-.094.814.692a4.5 4.5 0 0 0-.891 3.079v.1a6.352 6.352 0 1 1-10.314-5.024z" fill="#737373"/><path fill="#505050" d="M531.701 432.496l-2-116.874 1.999-.054 2 116.874-1.999.054z"/><path fill="#7c7c7c" d="M531.701 432.496l-2-116.874 1.999-.054 2 116.874-1.999.054z"/><path fill="#505050" d="M545.22 433.473l-1.785-.042 1.786-106.863 1.785.042-1.786 106.863z"/><path fill="#7c7c7c" d="M545.22 433.473l-1.785-.042 1.786-106.863 1.785.042-1.786 106.863z"/><path fill="#ffb900" d="M530.023 429.986v15.655l4.163 4.734h8.419l4.163-4.735v-15.654h-16.745z"/><path d="M530.023 440.659a11.469 11.469 0 0 0 16.745-.678v-10h-16.745z" fill="#ff8c00"/><ellipse cx="538.083" cy="429.362" rx="11.493" ry="11.488" fill="#ffb900"/><circle cx="538.085" cy="429.362" r="3.91" fill="#db7a00"/><path d="M763.166 566.6H610.135a3.854 3.854 0 0 1-3.848-3.838 3.814 3.814 0 0 1 3.848-3.838h153.031a3.775 3.775 0 0 1 3.848 3.838 3.814 3.814 0 0 1-3.848 3.838z" fill="#939393"/><path d="M700.761 512.74h-1.09v-33.327h-3.912v33.327h-1.347c-.513 0-.9.32-.9 1.087v7.356h8.338v-7.356a1.007 1.007 0 0 0-1.09-1.087z" fill="#ffb900"/><path d="M700.761 512.74h-1.09v-33.327h-1.539v33.327h1.154a1.007 1.007 0 0 1 1.09 1.087v7.356h1.475v-7.356a1.007 1.007 0 0 0-1.09-1.087z" fill="#ff8c00"/><path d="M697.041 479.413h-1.283v33.327h-1.347c-.513 0-.9.32-.9 1.087v7.356h1.289v-7.356a1.056 1.056 0 0 1 1.154-1.087h1.09v-33.327z" fill="#ffc733"/><path fill="#737373" d="M628.606 399.838l-11.159 11.322-21.486-21.109 11.416-11.259 21.229 21.046z"/><path d="M604.747 380.775a1.568 1.568 0 0 1 0 2.431l-4.3 4.222a1.381 1.381 0 0 1-2.245 0L527.911 317.9a1.724 1.724 0 0 1 0-2.175l4.49-4.478a1.833 1.833 0 0 1 2.245 0l70.1 69.533z" fill="#737373"/><path fill="#ff8c00" d="M755.598 521.184l-16.034 15.8L611.803 410.2l15.906-15.736 127.889 126.72z"/><path d="M595.961 391.33c-.321 0-.706 0-.9-.32a1.2 1.2 0 0 1 0-2.047l11.16-11.322a1.564 1.564 0 0 1 2.052 0 1.374 1.374 0 0 1 0 2.239l-11.16 11.13a1.606 1.606 0 0 1-1.154.32zM559.595 351.542a4.113 4.113 0 0 1-1.09-.32 1.426 1.426 0 0 1 0-2.047l7.632-7.612a1.564 1.564 0 0 1 2.052 0 1.426 1.426 0 0 1 0 2.047l-7.44 7.612a3.9 3.9 0 0 1-1.154.32zM611.1 412.439a2.74 2.74 0 0 1-1.154-.384 1.818 1.818 0 0 1 0-2.239l17.381-17.143a1.673 1.673 0 0 1 2.245 0 1.724 1.724 0 0 1 0 2.175l-17.381 17.207a2.49 2.49 0 0 1-1.09.384z" fill="#ffa940"/><path fill="#ffa940" d="M755.598 521.184l-1.347 1.343-131.032-121.41 5.58-5.693 126.799 125.76z"/><path fill="#db7a00" d="M739.564 536.984l1.282-1.152-122.309-130.237-5.58 5.757 126.607 125.632z"/><path d="M759.51 523.807a2.6 2.6 0 0 0-2.63-2.623H672.6a2.708 2.708 0 0 0-2.758 2.623v7.612a2.656 2.656 0 0 0 2.758 2.559h84.276a2.545 2.545 0 0 0 2.63-2.559v-7.612z" fill="#505050"/><path d="M628.8 550.481a12.86 12.86 0 1 0 12.892-12.793 12.849 12.849 0 0 0-12.892 12.793zM680.429 550.481a12.892 12.892 0 1 0 12.892-12.793 12.849 12.849 0 0 0-12.892 12.793zM719.617 550.481a12.86 12.86 0 1 0 12.827-12.793 12.835 12.835 0 0 0-12.827 12.793z" fill="#282828"/><path d="M656.57 495.853h-33.736c-12.314 14.073-9.3 54.628-9.3 54.628h33.736s-3.014-40.555 9.3-54.628zM684.726 534.169a.6.6 0 0 1 .385-.192h-.385v.192z" fill="#ff8c00"/><path d="M655.8 534.169a.708.708 0 0 1 .577-.192h-.577v.192zM627.709 495.853h-4.874c-12.314 14.073-9.3 54.628-9.3 54.628h4.81s-2.95-40.555 9.364-54.628z" fill="#ffa940"/><path d="M759.51 533.977h-78.888a.6.6 0 0 0-.385.192v-38.316h-28.156c-12.25 14.073-9.3 54.628-9.3 54.628H759.51a2.544 2.544 0 0 0 2.565-2.623v-11.13a2.655 2.655 0 0 0-2.565-2.751z" fill="#ffb900"/><path d="M654.9 498.667h25.334v-2.815h-28.153c-12.25 14.073-9.3 54.628-9.3 54.628h2.63c-.385-9.467-.962-39.98 9.492-51.814z" fill="#ffcb40"/><path d="M759.51 533.977v10.363a2.708 2.708 0 0 1-2.63 2.751H645.218c0 1.343.192 2.431.192 3.39h114.1a2.544 2.544 0 0 0 2.565-2.623v-11.13a2.782 2.782 0 0 0-2.565-2.751z" fill="#db9d00"/><path d="M675.042 533.977V501.8h-19.754c-5.965 7.036-7.44 22-7.44 32.176z" fill="#c2c2c2"/><path d="M675.042 533.977S663.5 515.3 655.288 501.8c-5.965 7.036-7.44 22-7.44 32.176z" fill="#e6e6e6"/><path d="M648.553 550.481a12.763 12.763 0 1 0 12.892-12.793 12.849 12.849 0 0 0-12.892 12.793z" fill="#282828"/><path d="M654.518 550.481a6.863 6.863 0 0 0 6.927 6.781 6.766 6.766 0 0 0 6.67-6.781 6.836 6.836 0 0 0-6.67-6.908 6.929 6.929 0 0 0-6.927 6.908z" fill="#ff8c00"/><path d="M727.249 550.481a12.86 12.86 0 1 0 12.892-12.793 12.849 12.849 0 0 0-12.892 12.793zM699.991 550.481a12.891 12.891 0 0 0 12.892 12.73 12.762 12.762 0 0 0 0-25.523 12.9 12.9 0 0 0-12.892 12.793z" fill="#282828"/><path d="M661.445 557.261a5.964 5.964 0 0 0 4.618-1.983l-9.685-9.659a7.471 7.471 0 0 0-1.86 4.862 6.863 6.863 0 0 0 6.927 6.781zM634.379 540.822H620.4a1.077 1.077 0 0 1-1.09-1.087 1.041 1.041 0 0 1 1.09-1.087h13.982a1.182 1.182 0 0 1 1.154 1.087 1.234 1.234 0 0 1-1.154 1.087zM634.379 545.811H620.4a.98.98 0 0 1-1.09-1.087 1.093 1.093 0 0 1 1.09-1.151h13.982a1.24 1.24 0 0 1 1.154 1.151 1.093 1.093 0 0 1-1.154 1.087z" fill="#ffa940"/><path d="M620.782 501.8c-4.1 9.019-5.58 22-5.772 32.367h24.82c.192-10.363 1.668-23.348 5.772-32.367z" fill="#c2c2c2"/><path d="M620.782 501.8c-4.1 9.019-5.58 22-5.772 32.367h24.82c.192-10.363-19.049-32.367-19.049-32.367z" fill="#e6e6e6"/><path d="M733.214 550.481a6.9 6.9 0 0 0 13.789 0 6.895 6.895 0 1 0-13.789 0zM705.956 550.481a6.831 6.831 0 1 0 6.927-6.908 6.863 6.863 0 0 0-6.927 6.908z" fill="#ff8c00"/><path d="M712.883 557.261a6.2 6.2 0 0 0 4.682-1.983l-9.492-9.659a6.568 6.568 0 0 0-2.117 4.862 6.863 6.863 0 0 0 6.927 6.781zM740.077 557.261a6.736 6.736 0 0 0 4.874-1.983l-9.685-9.659a6.756 6.756 0 0 0-2.052 4.862 6.933 6.933 0 0 0 6.863 6.781z" fill="#ffa940"/><path d="M525.579 460.671l-.77-2.047s.962-1.087 1.09-1.279c.257-.384.9-.064.641.32a4.623 4.623 0 0 1-.257.448s.513-.32.834-.576a.373.373 0 0 1 .577.064c.128.192-.128.448-.128.448s.321-.128.449.064a.528.528 0 0 1-.064.512s.257 0 .321.192c.064.128-.128.448-.128.448a.28.28 0 0 1 .257.192q.1.288-.385.576a2.838 2.838 0 0 1-1.026.384 6.985 6.985 0 0 0-1.411.256z" fill="#9d6952"/><path d="M519.743 566.6h-51.31a3.8 3.8 0 0 1-3.784-3.838 3.76 3.76 0 0 1 3.784-3.838h51.31a3.775 3.775 0 0 1 3.848 3.838 3.814 3.814 0 0 1-3.848 3.838z" fill="#939393"/><path d="M526.092 460.479a4.584 4.584 0 0 1-.706.96l-5.452 2.943-9.428.256a1.534 1.534 0 0 1-1.475-1.471c.064-.768.641-1.535 1.411-1.471l8.723-.32 4.746-2.559a1.3 1.3 0 0 1 1.988.448 2.112 2.112 0 0 1 .192 1.215z" fill="#fff"/><path d="M525 460.159l-5.516 3.07-10.005.32c-.192-.064-.192-.064-.385.064a1.5 1.5 0 0 0 1.411 1.023l9.428-.256 5.452-2.943a4.584 4.584 0 0 0 .706-.96c0-.192.064-.384-.064-.576-.321-.128-.577 0-1.026.256z" fill="#c6c6c6"/><path fill="#724aad" d="M506.915 481.652l.193 1.983-.193 8.38h2.63l1.86-8.188v-2.175h-4.49z"/><path fill="#8867c8" d="M510.443 481.652v2.175l-.898 8.188 1.86-8.188v-2.175h-.962z"/><path fill="#5c2d91" d="M506.915 481.652l.193 1.983-.193 8.38.962-8.38-.192-1.983h-.77z"/><path d="M507.108 489.968v6.269h4.1a.377.377 0 0 0 .385-.384v-.9s0-.192-.385-.576a4.735 4.735 0 0 1-1.283-1.471v-2.943z"/><path d="M511.6 495.853v.384a.377.377 0 0 1-.385.384h-4.1v-.384h4.1a.377.377 0 0 0 .385-.384z"/><path d="M511.212 496.237a.377.377 0 0 0 .385-.384v-.9s0-.192-.385-.576a4.735 4.735 0 0 1-1.283-1.471v3.326z" fill="#313131"/><path fill="#724aad" d="M501.912 481.652l.193 1.983v8.38h2.565l1.732-8.188v-2.175h-4.49z"/><path fill="#00997f" d="M505.632 481.652v2.175l-.962 8.188 1.732-8.188v-2.175h-.77z"/><path fill="#5c2d91" d="M501.912 481.652l.193 1.983v8.38l.705-8.38v-1.983h-.898z"/><path d="M502.1 489.968v6.269h4.3s.128 0 .128-.384v-.9s.192-.192-.321-.576a2.844 2.844 0 0 1-1.154-1.471v-2.943z"/><path d="M506.594 495.853v.384c0 .384-.192.384-.192.384h-4.3v-.384h4.3s.192 0 .192-.384z"/><path d="M505.055 492.91v3.326h1.345s.128 0 .128-.384v-.9a.556.556 0 0 0-.321-.576 2.844 2.844 0 0 1-1.154-1.471z"/><path d="M516.472 456.833a9.631 9.631 0 0 1-.641-1.791.391.391 0 0 1-.128-.384 3.487 3.487 0 0 1-1.86-.448c-.257-.448-.577-.9-.577-.9l-.128.959-.064.128s-.064.576-.128.96a1 1 0 0 1 .064.576c-.064.32-.513-.128-.513-.128a3.834 3.834 0 0 0-.834-.7c-.192 0-.385-.064-.577.128a1.57 1.57 0 0 0 0 .96c0 .128-.064.512.128.576-.064.128.128.384.128.384a2.164 2.164 0 0 1-1.026 1.471l-.321-.192v2.047l3.079.7v-1.151a1.3 1.3 0 0 0 .9.32c.962.192 1.026-.384 1.026-.384l.321-.832.192-.96.257-.7c1.154 0 .834-.384.706-.64z" fill="#9d6952"/><path d="M510.892 459.519a3.486 3.486 0 0 0 2.117.9.809.809 0 0 0 .064-.384 8.984 8.984 0 0 1-2.181-.512zM515.381 458.752c-.128-.256-.321-.448-.257-.64l-.385-.064.641.9v-.192z" fill="#805443"/><path d="M515.51 458.176l-.385-.064c-.064.192.128.384.257.64l.128-.576z" fill="#fff"/><path d="M515.7 455.809a.482.482 0 0 1-.449.32.2.2 0 0 1-.128-.256c0-.192 0-.192.192-.32.192 0 .192.192.385.256z"/><path fill="#fff" d="M508.647 460.799l.834-1.536 4.04 1.6-.32 1.983-4.554-2.047z"/><path d="M509.416 460.543c-2.63-.192-3.656 2.815-3.72 3.2-.962 4.478-3.4 17.015-5.452 16.887 11.032 1.791 11.352 2.239 12.635 1.343 1.283-.96 1.86-18.231 1.86-18.231.321-3.006-2.181-2.815-5.323-3.2z" fill="#fff"/><path d="M509.416 460.543c-2.63-.192-3.656 2.815-3.72 3.2-.962 4.478-3.4 17.015-5.452 16.887.577.064 1.09.192 1.668.256h-.192c2.245.192 4.233-10.747 5.131-15.1.064-.384 1.6-4.989 4.169-4.8.577.128 1.924.128 1.732-.064a32.408 32.408 0 0 0-3.335-.384z" fill="#c6c6c6"/><path d="M516.151 451.907A1.36 1.36 0 0 0 515 450.82a.815.815 0 0 0-.385-.064 1.441 1.441 0 0 0-1.09-1.151 2.094 2.094 0 0 0-.834.256 1.332 1.332 0 0 0-1.026-.7 1.564 1.564 0 0 0-1.539.448h-.192a1.619 1.619 0 0 0-1.732 1.215l-.064.192a1.553 1.553 0 0 0-1.347 1.279c0 .192.128.576.064.768-.192.128-.257.512-.321.832-.064.576 0 1.151.513 1.407v.192c-.192 0-.192.128-.192.128a1.726 1.726 0 0 0 1.154 1.919c-.064.384.449.832.834.9.192 0 .385.064.577.064.128.064.321.256.513.256a5.2 5.2 0 0 0 .834-.384 2.372 2.372 0 0 0 .9-.064c1.6-.32.321-.7.321-1.6.128-.96.9.128 1.283 0 .385.064.128-.7.257-1.471-.064-.768.192-.128.962 0 .577-.128.577-.32.449-.7a6.2 6.2 0 0 0 .77.128 1.923 1.923 0 0 0 .962-1.535 2.081 2.081 0 0 0-.513-1.215z"/><path d="M516.856 453.187c.064-.384-.064-.576 0-.96a5.37 5.37 0 0 0-10.454 2.431c.192.192.128.576.257.768l10.2-2.239z" fill="#ff8c00"/><path d="M515.445 452.547c-.064.384-.064.576.064.768l1.347-.128c.064-.384-.064-.576 0-.96a5.32 5.32 0 0 0-6.35-3.838c-.385.128-.577.064-.834.256a5.282 5.282 0 0 1 5.772 3.9z" fill="#ffa940"/><path d="M510.443 448.581a2.649 2.649 0 0 0-.77.064 5.007 5.007 0 0 0-3.271 4.862v.192c-.064.384.064.576 0 .96a.938.938 0 0 1 .257.768l.77-.256.641-.064a1.815 1.815 0 0 0-.257-.768 5.153 5.153 0 0 1 2.63-5.757z" fill="#f08400"/><path d="M517.113 451.907l-11.224 2.493a.8.8 0 0 0-.128.7 1.972 1.972 0 0 1 .321.448l11.416-2.623a3.939 3.939 0 0 1 .064-.576.652.652 0 0 0-.449-.448z" fill="#ffb900"/><path d="M509.93 543.764l-13.789-8.7 13.789-8.444.192-.192a.188.188 0 0 0 .192-.192l.128-.192v-.768l-.128-.192v-.192h-.192v-.128h-.192l-13.789-8.7 13.789-8.508a1.312 1.312 0 0 0 .385-1.663 1.167 1.167 0 0 0-1.539-.192l-14.687 9.019-14.753-9.02a1.049 1.049 0 0 0-1.475.192 1.225 1.225 0 0 0 .321 1.663l13.854 8.508-13.854 8.7h-.128l-.192.128v.192l-.192.192v.96h.192c0 .192 0 .192.192.192l.128.192 13.854 8.444-13.854 8.7a1.065 1.065 0 0 0-.321 1.535 1.024 1.024 0 0 0 .9.512.708.708 0 0 0 .577-.192l14.752-9.083 14.687 9.083a.708.708 0 0 0 .577.192 1.1 1.1 0 0 0 .577-2.047zm-29.118-18.1l13.276-8.316 13.212 8.316-13.212 8.124-13.276-8.124z" fill="#505050"/><path d="M517.369 555.662a1.641 1.641 0 0 1-1.668 1.6h-43.292a1.641 1.641 0 0 1-1.668-1.6v-11.706a1.7 1.7 0 0 1 1.668-1.663H515.7a1.7 1.7 0 0 1 1.668 1.663v11.706z" fill="#ff8c00"/><path d="M474.847 554.895a1.538 1.538 0 0 1-1.475-1.663v-8.508h-2.63v10.938a1.641 1.641 0 0 0 1.668 1.6h42.33v-2.367z" fill="#db7a00"/><path d="M515.7 557.261h-.962v-10.874a1.581 1.581 0 0 0-1.475-1.663h-42.521v-.768a1.7 1.7 0 0 1 1.668-1.663h43.29a1.7 1.7 0 0 1 1.668 1.663v11.706a1.641 1.641 0 0 1-1.668 1.6z" fill="#ffa940"/><path d="M486.776 557.261a5.869 5.869 0 1 1-11.737 0 5.869 5.869 0 1 1 11.737 0z" fill="#002050"/><path d="M477.476 557.261a3.349 3.349 0 0 1 3.335-3.326 3.4 3.4 0 0 1 3.4 3.326 3.363 3.363 0 0 1-3.4 3.326 3.308 3.308 0 0 1-3.335-3.326z" fill="#ff8c00"/><path d="M480.811 560.588a3.458 3.458 0 0 0 2.437-.9l-4.682-4.8a3.382 3.382 0 0 0-1.09 2.367 3.308 3.308 0 0 0 3.335 3.326z" fill="#ffa940"/><path d="M513.072 557.261a5.869 5.869 0 1 1-5.965-5.885 5.974 5.974 0 0 1 5.965 5.885z" fill="#002050"/><path d="M510.443 557.261a3.335 3.335 0 0 1-6.67 0 3.335 3.335 0 0 1 6.67 0z" fill="#ff8c00"/><path d="M507.108 560.588a3.458 3.458 0 0 0 2.437-.9l-4.682-4.8a3.382 3.382 0 0 0-1.09 2.367 3.308 3.308 0 0 0 3.335 3.326z" fill="#ffa940"/><path d="M517.369 477.75h-46.627a1.639 1.639 0 0 0-1.475 1.471 1.446 1.446 0 0 0 1.475 1.471h2.822v15.928h-1.154a1.654 1.654 0 0 0-1.668 1.663v8.124a1.5 1.5 0 0 0 1.668 1.471h43.29a1.5 1.5 0 0 0 1.668-1.471v-8.124a1.654 1.654 0 0 0-1.668-1.663h-1.154v-15.927h2.822a1.411 1.411 0 0 0 1.475-1.471 1.584 1.584 0 0 0-1.475-1.471zm-12.827 18.87h-5.452v-15.927h5.452v15.927zm-7.7 0h-5.58v-15.927h5.58v15.927zm-7.825 0h-5.388v-15.927h5.388v15.927zm-13.212-15.928h5.58v15.928h-5.58v-15.927zm30.914 0h5.644v15.928h-5.644v-15.927zm0 15.928z" fill="#ff8c00"/><path d="M474.847 505.512a1.538 1.538 0 0 1-1.475-1.663v-4.67h-2.63v7.228a1.5 1.5 0 0 0 1.668 1.471h42.33v-2.367z" fill="#db7a00"/><path d="M515.7 507.879h-.962v-7.164a1.594 1.594 0 0 0-1.475-1.535h-42.521v-.9a1.654 1.654 0 0 1 1.668-1.663h43.29a1.654 1.654 0 0 1 1.668 1.663v8.124a1.5 1.5 0 0 1-1.668 1.471z" fill="#ffa940"/><path d="M523.463 466.684l-.706-2.047s.9-1.087 1.026-1.343a.374.374 0 0 1 .641.384 3.8 3.8 0 0 0-.192.448s.513-.384.834-.64a.324.324 0 0 1 .513.128c.128.192-.128.448-.128.448s.385-.128.513.064-.064.448-.064.448a.939.939 0 0 1 .321.192c.064.192-.128.448-.128.448s.128 0 .192.192 0 .384-.385.576a1.459 1.459 0 0 1-1.026.384 12.708 12.708 0 0 0-1.411.32z" fill="#9d6952"/><path d="M523.591 466.62a3.158 3.158 0 0 1-.962.64l-6.157.768c-8.915-3.2-7.44-2.687-7.44-2.687a1.5 1.5 0 0 1-.834-1.919 1.472 1.472 0 0 1 1.86-.832c8.21 2.815 6.8 2.367 6.8 2.367l5.323-.7a1.319 1.319 0 0 1 1.668 1.151 1.4 1.4 0 0 1-.257 1.215z" fill="#fff"/><path d="M523.783 466.108c-.257-.256-.513-.192-1.026-.192l-6.285.9c-4.939-1.791-7.247-2.623-8.4-3.006a1.734 1.734 0 0 0 .962 1.535s-1.475-.512 7.44 2.687a1.014 1.014 0 0 0 .257-.064 1.094 1.094 0 0 0 .449-.064 2.412 2.412 0 0 0 .641-.064c.257 0 .449-.064.641-.064.9-.128 1.6-.192 2.117-.256h.064a1.78 1.78 0 0 1 .577-.064 2.188 2.188 0 0 1 .641-.064 1.809 1.809 0 0 1 .513-.064.236.236 0 0 1 .192-.064h.064a2.312 2.312 0 0 0 .962-.64.387.387 0 0 0 .192-.384v-.128z" fill="#c6c6c6"/><path d="M769.146 229.718H554.373a7.349 7.349 0 0 1-7.2-7.15 7.161 7.161 0 0 1 7.2-7.029h214.773a7.009 7.009 0 0 1 7.2 7.029 7.186 7.186 0 0 1-7.2 7.15z" fill="#b2b2b2"/><path d="M780 173.125a3.225 3.225 0 0 0-3.293-3.393H571.2a3.5 3.5 0 0 0-3.537 3.393v9.575a3.5 3.5 0 0 0 3.537 3.393h205.5a3.225 3.225 0 0 0 3.3-3.393v-9.574zM563.886 207.057a16.466 16.466 0 1 0 16.465-16.239 16.4 16.4 0 0 0-16.465 16.239zM662.552 207.057a16.466 16.466 0 1 0 16.465-16.239 16.4 16.4 0 0 0-16.465 16.239zM712.678 207.057a16.466 16.466 0 1 0 16.465-16.239 16.4 16.4 0 0 0-16.465 16.239z" fill="#17234e"/><path d="M599.5 137.5h-43.175c-15.611 17.935-11.952 69.56-11.952 69.56h43.174s-3.781-51.625 11.952-69.56zM668.04 186.334a.758.758 0 0 1 .488-.242h-.488v.242z" fill="#f58b1f"/><path d="M598.523 186.334a.9.9 0 0 1 .732-.242h-.732v.242zM562.545 137.5h-6.22c-15.611 17.935-11.952 69.56-11.952 69.56h6.22s-3.9-51.625 11.952-69.56z" fill="#f9a743"/><path d="M763.779 186.092H630.233a.758.758 0 0 0-.488.242V137.5h-35.978c-15.733 17.935-11.952 69.56-11.952 69.56h181.964a3.2 3.2 0 0 0 3.293-3.272v-14.182a3.327 3.327 0 0 0-3.293-3.514z" fill="#fcb713"/><path d="M597.3 141.011h32.563V137.5h-36.1c-15.733 17.935-11.952 69.56-11.952 69.56h3.415c-.488-12-1.22-50.9 12.074-66.046z" fill="#ffcb40"/><path fill="none" stroke="#fff" stroke-linecap="round" stroke-linejoin="round" stroke-width=".064" d="M581.571 203.785zM581.571 204.754v-.242.242zM581.571 205.845z"/><path d="M763.779 186.092V199.3a3.482 3.482 0 0 1-3.293 3.514h-175.5c0 1.7.244 3.03.244 4.241h178.55a3.2 3.2 0 0 0 3.293-3.272v-14.177a3.476 3.476 0 0 0-3.293-3.514z" fill="#da9d28"/><path d="M623.159 186.092V145.01h-25.368c-7.562 8.968-9.513 28.115-9.513 41.082z" fill="#17234e"/><path d="M623.159 186.092s-14.879-23.873-25.368-41.082c-7.562 8.968-9.513 28.115-9.513 41.082z" fill="#256fb6"/><path d="M589.254 207.057a16.343 16.343 0 1 0 16.465-16.239 16.319 16.319 0 0 0-16.465 16.239z" fill="#17234e"/><path d="M596.816 207.057a8.822 8.822 0 0 0 8.9 8.725 8.727 8.727 0 0 0 0-17.451 8.822 8.822 0 0 0-8.9 8.725z" fill="#f58b1f"/><path d="M722.435 207.057a16.466 16.466 0 1 0 16.465-16.239 16.4 16.4 0 0 0-16.465 16.239z" fill="#17234e"/><path d="M687.676 207.057a16.343 16.343 0 1 0 16.465-16.239 16.319 16.319 0 0 0-16.465 16.239z" fill="#17234e"/><path d="M605.719 215.782a8.215 8.215 0 0 0 5.976-2.545l-12.44-12.361a9.588 9.588 0 0 0-2.439 6.18 8.822 8.822 0 0 0 8.9 8.725zM571.082 194.817h-17.928a1.459 1.459 0 0 1 0-2.908h17.928a1.454 1.454 0 1 1 0 2.908zM571.082 201.119h-17.928c-.976 0-1.342-.485-1.342-1.333a1.3 1.3 0 0 1 1.342-1.454h17.928a1.569 1.569 0 0 1 1.464 1.454 1.376 1.376 0 0 1-1.464 1.333z" fill="#f9a743"/><path d="M553.642 145.01c-5.244 11.513-7.2 28.115-7.44 41.324h31.832c.244-13.209 2.073-29.811 7.318-41.324z" fill="#17234e"/><path d="M553.642 145.01c-5.244 11.513-7.2 28.115-7.44 41.324h31.832c.244-13.209-24.392-41.324-24.392-41.324z" fill="#256fb6"/><path d="M730.118 207.057a8.843 8.843 0 1 0 8.781-8.725 8.875 8.875 0 0 0-8.781 8.725zM695.238 207.057a8.822 8.822 0 0 0 8.9 8.725 8.727 8.727 0 0 0 0-17.451 8.822 8.822 0 0 0-8.9 8.725z" fill="#f58b1f"/><path d="M704.141 215.782a8.215 8.215 0 0 0 5.976-2.545l-12.2-12.361a8.709 8.709 0 0 0-2.683 6.18 8.822 8.822 0 0 0 8.9 8.725zM738.9 215.782a8.782 8.782 0 0 0 6.22-2.545l-12.32-12.361a8.709 8.709 0 0 0-2.683 6.18 8.875 8.875 0 0 0 8.781 8.725z" fill="#f9a743"/><path d="M123.247 566.6H42.106a2.925 2.925 0 0 1-2.821-2.888 2.861 2.861 0 0 1 2.821-2.888h81.141a2.84 2.84 0 0 1 2.87 2.888 2.9 2.9 0 0 1-2.87 2.888z" fill="#b2b2b2"/><path fill="#8562ad" d="M104.908 498.544H62.732v47.505h42.176v-47.505z"/><path fill="#5c2d91" d="M104.908 498.544h9.729v47.505h-9.729v-47.505z"/><path fill="#8e562e" d="M96.492 481.217h24.615v17.327H96.492v-17.327z"/><path fill="#8562ad" d="M95.178 448.489H62.099v32.728h33.079v-32.728z"/><path fill="#5c2d91" d="M95.178 448.489h11.043v32.728H95.178v-32.728z"/><path fill="#bb9167" d="M102.962 481.217h-40.23v17.327h40.23v-17.327z"/><path d="M111.377 558.9v-6.642a6.354 6.354 0 0 0-.438-2.358h2.578a2.386 2.386 0 0 1 2.432 2.358v6.642zm4.865-12.851H63.413V437.563a7.084 7.084 0 0 0-7.151-7.027H37.436v4.476h18.826a2.592 2.592 0 0 1 2.578 2.6v112.913h46.26a2.385 2.385 0 0 1 2.384 2.407v9.819a.652.652 0 0 0 .681.626h10.6a4.2 4.2 0 0 0 1.7-1.733v-11.311a4.225 4.225 0 0 0-4.232-4.284z" fill="#c2c2c2"/><path fill="#fff" d="M71.196 464.564h19.458v-12.851H71.196v12.851zM86.082 492.769H67.305v-6.402h18.777v6.402zM93.233 521.021H75.088v-15.402h18.145v15.402z"/><path fill="#5c2d91" d="M113.323 546.049H63.899l-.486-1.203v-96.357h1.265v95.635h48.645v1.925z"/><path fill="#8e562e" d="M64.824 498.544h-1.411v-17.327h1.411v17.327z"/><path d="M115.318 547.974h-5.983a3.664 3.664 0 0 1 1.557 1.925h2.627a2.386 2.386 0 0 1 2.432 2.358v8.471l-6.519.1v-7.653c0-4.572-2.238-5.2-5.254-5.2H61.467V438.814c0-3.8-1.654-5.776-4.865-5.872H49.5l-2.14-2.407h-9.924v4.476h18.826a2.592 2.592 0 0 1 2.578 2.6v112.914h45.63a2.385 2.385 0 0 1 2.384 2.407v9.049a1.4 1.4 0 0 0 1.411 1.4h10.264V551.3a3.139 3.139 0 0 0-3.211-3.321z" fill="#b2b2b2"/><path d="M72.461 546.675a16.759 16.759 0 0 1-16.831 16.7c-14.74 0-16.88-7.46-16.88-16.7 0-9.193 3.794-16.653 16.88-16.653a16.749 16.749 0 0 1 16.831 16.653z" fill="#333"/><path d="M69.883 546.675A16.857 16.857 0 1 1 53 530.022a16.769 16.769 0 0 1 16.88 16.653z" fill="#505050"/><path d="M61.467 546.675A8.441 8.441 0 1 1 53 538.348a8.426 8.426 0 0 1 8.464 8.327z" fill="#e6e6e6"/><path d="M45.949 547.493a8.5 8.5 0 0 1 11.724-2.455 8.3 8.3 0 0 1 3.357 4.187 8.3 8.3 0 0 0-3.405-9.626 8.534 8.534 0 0 0-11.725 2.455 8.3 8.3 0 0 0-.876 7.364 8.809 8.809 0 0 1 .924-1.925z" fill="#b2b2b2"/><path d="M106.853 558.9v3.08a1.4 1.4 0 0 0 1.411 1.4h10.751a1.466 1.466 0 0 0 1.459-1.492V558.9zM48.284 429.236h-15.81a.816.816 0 0 0-.827.818v4.765a.827.827 0 0 0 .827.866h15.81a.828.828 0 0 1 .876.818v.241a.827.827 0 0 0 .827.866h2.87a.858.858 0 0 0 .827-.866V428.8a.776.776 0 0 0-.827-.77h-2.87c-.973 0-1.022 1.2-1.7 1.2z" fill="#505050"/><path d="M49.111 432.461H31.647v2.358a.827.827 0 0 0 .827.866h15.81c.438 0 .876.385.827.77v-3.995z" fill="#333"/></svg>