<svg xmlns="http://www.w3.org/2000/svg" viewBox="0 0 800 600"><defs><clipPath id="a"><path fill="none" d="M437.756 33.378v177.353h300V33.378"/></clipPath></defs><title>elements-robots-1</title><path d="M800 600H0V0h800z" fill="#fff"/><path fill="#cfe0ee" d="M37 208.672h322.03V33.444H37v175.228z"/><path d="M365.7 210.731v-44.9c-26.36-1.805-61.8-2.313-93.532-2.313a588.564 588.564 0 0 0-230.643 47.213z" fill="#99bcd7"/><path fill="#808285" d="M308.573 195.924l5.034-1.749-2.149-3.694-5.091-1.693-5.063-3.666-2.121 6.571 9.39 4.231z"/><path fill="#ff8c00" d="M293.639 188.45l7.665-3.328 2.546 5.443 4.921 1.1-.198 4.259-17.026-2.51 2.092-4.964z"/><path fill="#808285" d="M225.223 185.235L241.26 172.6l-11.342.789-10.578 7.531.368.253 5.515 4.062z"/><path fill="#ff8c00" d="M225.223 185.235l4.695-11.846 6.307 2.2 4.525-3.018 4.724 7.164-3.479 2.961-16.772 2.539z"/><path fill="#0078d7" fill-rule="evenodd" d="M224.629 124.203l-7.099-3.582-11.737 23.239 7.099 3.554 11.737-23.211z"/><path fill-rule="evenodd" d="M224.629 124.203l-7.099-3.582-3.875 7.643 7.099 3.582 3.875-7.643z"/><path fill="#2488d8" fill-rule="evenodd" d="M191.595 137.233h-44.489v24.057h44.489v-24.057z"/><path fill="#0078d7" fill-rule="evenodd" d="M191.991 137.233h-7.92v24.057h7.92v-24.057z"/><path fill-rule="evenodd" d="M191.595 132.325h-44.489v6.036h44.489v-6.036z"/><path fill="#0078d7" fill-rule="evenodd" d="M190.463 177.845h-7.919v31.588h7.919v-31.588z"/><path fill-rule="evenodd" d="M190.463 176.717h-7.919v8.631h7.919v-8.631z"/><path fill="#0078d7" fill-rule="evenodd" d="M153.893 177.845h-7.919v31.588h7.919v-31.588z"/><path fill-rule="evenodd" d="M153.893 176.717h-7.919v8.631h7.919v-8.631z"/><path fill="#0078d7" fill-rule="evenodd" d="M115.909 119.577l7.863 1.298-4.242 25.637-7.835-1.27 4.214-25.665z"/><path fill-rule="evenodd" d="M115.909 119.577l7.863 1.298-1.414 8.432-7.834-1.297 1.385-8.433z"/><path d="M150.952 116.306l-30.4 6.2a4.753 4.753 0 0 1-5.628-3.695l-2.889-14.011a4.8 4.8 0 0 1 3.733-5.612l30.4-6.2A4.793 4.793 0 0 1 151.8 96.7l2.885 13.989a4.766 4.766 0 0 1-3.733 5.612z" fill="#2488d8" fill-rule="evenodd"/><path d="M128.891 94.476v34.69a3.1 3.1 0 0 0 3.111 3.1h75.8a3.122 3.122 0 0 0 3.139-3.1V94.448a3.11 3.11 0 0 0-3.111-3.074H132a3.1 3.1 0 0 0-3.111 3.1z" fill="#2488d8" fill-rule="evenodd"/><path fill="#0078d7" fill-rule="evenodd" d="M111.073 122.708l-7.721 1.861-4.441-18.501 7.722-1.862 4.44 18.502z"/><path fill-rule="evenodd" d="M111.441 124.174l-7.722 1.834-2.149-8.941 7.749-1.833 2.122 8.94z"/><path d="M100.552 131.9a5.407 5.407 0 0 1 3.79-6.036l7.1-1.692a5.465 5.465 0 0 1 6.137 3.666l3.648 15.286a5.391 5.391 0 0 1-3.79 6.036l-7.1 1.692a5.387 5.387 0 0 1-6.109-3.666l-3.676-15.286z" fill="#2488d8" fill-rule="evenodd"/><path d="M104.653 92.84a6.129 6.129 0 0 1 2.432 3.892 6.245 6.245 0 0 1-4.271 6.994c-3.507.846-7.014-1.326-7.693-4.118q-.764-3.173 1.1-4.738l-5.232-3.243a11.975 11.975 0 0 0-1.471 9.307c1.5 6.346 8.315 9.928 14.651 8.433a11.409 11.409 0 0 0 8.541-13.961c-.848-3.525-2.234-6.177-4.836-7.784l-3.224 5.218z" fill="#0078d7" fill-rule="evenodd"/><path d="M95.121 99.609c.622 2.482 3.394 4.428 6.449 4.287l-6.307 4.315a11.114 11.114 0 0 1-5.741-7.276 11.975 11.975 0 0 1 1.471-9.307l5.232 3.243q-1.867 1.565-1.1 4.738zM204.576 120.593l18.186 4.907a4.776 4.776 0 0 0 5.826-3.441l3.535-13.82a4.782 4.782 0 0 0-3.45-5.81l-17.705-4.315a4.747 4.747 0 0 0-5.8 3.441l-3.533 13.845c-.65 2.538.368 4.541 2.941 5.189z" fill="#0078d7" fill-rule="evenodd"/><path d="M196.431 61.253h-.679v-4.2a12.337 12.337 0 0 0-12.36-12.325h-28.056a12.343 12.343 0 0 0-12.388 12.322v35.057h52.8V78.175h.679a2.706 2.706 0 0 0 2.715-2.679V63.96a2.712 2.712 0 0 0-2.715-2.708z" fill="#2488d8"/><path d="M179.094 81.136h-28.623a4.008 4.008 0 0 1-4.016-4V61.76a4.026 4.026 0 0 1 4.016-4h28.622a4 4 0 0 1 3.988 4v15.371a3.984 3.984 0 0 1-3.988 4z" fill="#004578"/><path d="M179.094 57.755h-11.54a6441.967 6441.967 0 0 0 9.362 23.381h2.178a3.984 3.984 0 0 0 3.988-4V61.76a4 4 0 0 0-3.988-4z" fill="#11334b"/><path d="M194.536 78.936h2.828a2.549 2.549 0 0 0 2.546-2.536V63.791a2.549 2.549 0 0 0-2.545-2.538h-2.828a2.531 2.531 0 0 0-2.545 2.538V76.4a2.531 2.531 0 0 0 2.545 2.538z" fill="#0078d7"/><path d="M128.891 94.476v34.69a3.1 3.1 0 0 0 3.111 3.1h63.354a3.1 3.1 0 0 0 3.111-3.1V94.448a3.086 3.086 0 0 0-3.083-3.074H132a3.1 3.1 0 0 0-3.111 3.1z" fill="#69afe5" fill-rule="evenodd"/><path d="M142.1 111.821c0 4.682 3.083 8.038 7.438 8.038h24.8c4.356 0 7.438-3.356 7.438-8.038 0-4.033-3.083-8.038-7.438-8.038h-24.8c-4.356 0-7.438 4-7.438 8.038z" fill-rule="evenodd"/><path d="M174.512 75.693a3.652 3.652 0 1 0-3.648 3.5 3.589 3.589 0 0 0 3.648-3.5z" fill="#ffb900" fill-rule="evenodd"/><path fill="#ff8c00" d="M87.429 88.723l28.141 6.176-4.949-20.08L93 79.472l-5.571 9.251z"/><path fill="#808285" d="M115.57 94.899l-14.226 6.769-13.915-9.871v-3.074l28.141 6.176z"/><path fill="#0078d7" fill-rule="evenodd" d="M193.348 138.925l3.14-7.305-17.564-7.474-3.111 7.305 17.535 7.474zM107.085 96.733a5.523 5.523 0 0 1-.339 3.356l6.279-2.369a12.975 12.975 0 0 0-.311-2.313c-.848-3.525-2.234-6.177-4.836-7.784l-3.224 5.218a6.129 6.129 0 0 1 2.432 3.892z"/><path d="M152.847 57.755h-2.376a4.026 4.026 0 0 0-4.016 4v15.376a4.008 4.008 0 0 0 4.016 4h11.766l-9.39-23.381z" fill="#11334b"/><path d="M150.132 77.159V61.732a4.071 4.071 0 0 1 4.158-3.977h-3.818a4.026 4.026 0 0 0-4.016 4v15.376a4.008 4.008 0 0 0 4.016 4h3.818a4.071 4.071 0 0 1-4.158-3.977z" fill="#69afe5"/><path d="M161.134 75.975a3.652 3.652 0 1 0-3.648 3.5 3.589 3.589 0 0 0 3.648-3.5z" fill="#ffb900" fill-rule="evenodd"/><path d="M174.314 116.813a.729.729 0 0 1-.735-.733v-9.138a.729.729 0 0 1 .735-.733.748.748 0 0 1 .735.733v9.138a.748.748 0 0 1-.735.733zM169.166 116.813a.748.748 0 0 1-.735-.733v-9.138a.748.748 0 0 1 .735-.733.729.729 0 0 1 .735.733v9.138a.729.729 0 0 1-.735.733zM164.047 116.813a.748.748 0 0 1-.735-.733v-9.138a.735.735 0 0 1 1.471 0v9.138a.748.748 0 0 1-.735.733zM158.928 116.813a.729.729 0 0 1-.735-.733v-9.138a.729.729 0 0 1 .735-.733.748.748 0 0 1 .735.733v9.138a.748.748 0 0 1-.735.733zM153.78 116.813a.723.723 0 0 1-.707-.733v-9.138a.721.721 0 1 1 1.442 0v9.138a.729.729 0 0 1-.735.733zM148.661 116.813a.748.748 0 0 1-.735-.733v-9.138a.735.735 0 0 1 1.471 0v9.138a.748.748 0 0 1-.735.733z" fill="#ffb900"/><path fill-rule="evenodd" d="M193.178 138.981l3.196-7.502-8.484-3.61-3.196 7.502 8.484 3.61z"/><path d="M202.653 129.589a5.426 5.426 0 0 0-6.618 2.708l-2.857 6.684a5.353 5.353 0 0 0 2.6 6.628l14.481 6.177a5.392 5.392 0 0 0 6.59-2.708l2.885-6.684a5.461 5.461 0 0 0-2.6-6.656l-14.481-6.148zM163.623 127.3a6.216 6.216 0 0 0 11.059 0c1.414-3.3-.113-7.107-2.8-8.235-1.98-.874-3.62-.761-4.836.282l-2.319-5.7a12.081 12.081 0 0 1 9.447.113c6.024 2.567 8.428 9.843 5.855 15.822a11.465 11.465 0 0 1-15.245 6.036c-3.337-1.41-5.345-3.328-6.505-6.177l5.345-2.143z" fill="#0078d7" fill-rule="evenodd"/><path d="M153.1 94.589a15.7 15.7 0 1 1-15.7-15.653 15.676 15.676 0 0 1 15.7 15.653z" fill="#fff"/><path d="M169.11 124.908l1.273-1.354a2.219 2.219 0 0 0-.141-3.131l-16.376-15a2.207 2.207 0 0 0-3.139.113l-1.273 1.382a2.186 2.186 0 0 0 .141 3.1l16.376 15.032a2.234 2.234 0 0 0 3.139-.141z" fill="#333"/><path fill="#acacac" d="M159.041 110.157l-4.243 4.626-5.204-4.767 4.243-4.625.028.028"/><path d="M169.166 136.584l.537-5.923a5.16 5.16 0 0 1-2.63-.338 6.3 6.3 0 0 1-3.281-2.679h.028a5.207 5.207 0 0 1-.764-2.482 6.514 6.514 0 0 1 1.188-4.484l-4.469-4.231c-2.093 2.228-2.743 5.161-2.63 8.771a11.183 11.183 0 0 0 .933 4.287l-.028.028c1.16 2.849 3.394 4.682 6.731 6.092a11.589 11.589 0 0 0 4.384.959z" fill="#0078d7" fill-rule="evenodd"/><path d="M152.536 93.912a15.184 15.184 0 0 0-10.182-13.707v10.774h-8.711c-4.073 0-5.006 2.143-5.006 4.061v12.043a15.256 15.256 0 0 0 23.9-13.171z" fill="#b3d6f2" fill-rule="evenodd"/><path d="M121.566 98.312l11.709-2.031v14.243a12.3 12.3 0 0 1-7.863-4.738c-3.479-4.372-3.846-7.474-3.846-7.474z" fill="#b3d6f2" fill-rule="evenodd"/><path d="M137.942 109.763a15.248 15.248 0 0 1-15.9-14.553 15.246 15.246 0 0 1 14.594-15.85 15.216 15.216 0 1 1 1.3 30.4zm.085 2.143A17.361 17.361 0 1 0 119.9 95.294a17.309 17.309 0 0 0 18.129 16.612z" fill="#245a88"/><path d="M137.942 109.763a15.248 15.248 0 0 1-15.9-14.553 15.246 15.246 0 0 1 14.594-15.85 15.216 15.216 0 1 1 1.3 30.4zm.085 2.143A17.361 17.361 0 1 0 119.9 95.294a17.309 17.309 0 0 0 18.129 16.612z" fill="none" stroke="#245a88" stroke-miterlimit="1" stroke-width=".818"/><path d="M259.785 174.828h53.568a3.215 3.215 0 0 0 3-2.313 3 3 0 0 0-2.941-3.695h-53.571a3.216 3.216 0 0 0-3 2.284 3.022 3.022 0 0 0 2.941 3.723z" fill="#6597bf"/><path fill="#231f20" d="M264.056 170.936l10.719-20.476-1.132-.592-11.03 21.068h1.443zM309.874 170.936l-11.03-21.068-1.132.592 10.719 20.476h1.443z"/><path d="M305.631 153.083v-4.372a19.3 19.3 0 0 0-19.4-19.348c-10.719 0-19.4 8.179-19.4 18.868a40.9 40.9 0 0 0-.368 4.851z" fill="#7dbeea"/><path d="M298.928 153.083h6.7v-4.372a19.3 19.3 0 0 0-19.4-19.348 17.7 17.7 0 0 0-2.743.2l15.442 23.522z" fill="#00bcf2"/><path d="M303.934 140.673a304.1 304.1 0 0 1-35.552 0c-2.347 2.172-4.1 3.836-7.58 6.994 30.121 2.51 50.711 0 50.711 0l-7.58-6.994zM319.038 149.642l-65.814-.056a118.227 118.227 0 0 0 15.584 5.81 200.579 200.579 0 0 0 34.7 0l15.527-5.753z" fill="#5c2d91"/><path d="M310.044 142.648a393.721 393.721 0 0 1-47.8 0 .6.6 0 0 0-.283.113c-2.772 1.861-4.95 3.384-8.683 5.895a.582.582 0 0 0 .283 1.072 520.338 520.338 0 0 0 65.249 0 .572.572 0 0 0 .283-1.044l-8.768-5.923a.5.5 0 0 0-.283-.113z" fill="#9080cf"/><path d="M267.393 146.568a1.676 1.676 0 0 1-1.7 1.664 1.652 1.652 0 0 1-1.669-1.664 1.675 1.675 0 0 1 1.669-1.692 1.7 1.7 0 0 1 1.7 1.692zM281.308 147.3a1.676 1.676 0 0 1-1.7 1.664 1.652 1.652 0 0 1-1.669-1.664 1.676 1.676 0 0 1 1.669-1.692 1.7 1.7 0 0 1 1.7 1.692zM295.223 147.3a1.676 1.676 0 0 1-1.7 1.664 1.652 1.652 0 0 1-1.669-1.664 1.675 1.675 0 0 1 1.669-1.692 1.7 1.7 0 0 1 1.7 1.692zM309.139 146.568a1.683 1.683 0 0 1-3.366 0 1.683 1.683 0 1 1 3.366 0z" fill="#fff200"/><path fill="#32145a" d="M277.603 155.875l-3.762-4.005h5.601l3.026 4.202-4.865-.197z"/><path d="M280.827 161.459h-3.507l.424-3.074h3.535l-.453 3.074zm-.481 3.525h-3.535l.424-3.074h3.535l-.424 3.074zm-.509 3.5H276.3l.453-3.074h3.507l-.424 3.074zm1.838-12.917l-.339 2.369H277.8l.339-2.369h-.424l-2.263 15.709h.453l.339-2.341h3.535l-.339 2.341h.453l2.234-15.709z" fill="#5c2d91"/><path d="M147.671 88.666a11.718 11.718 0 0 1 .141 2 14.091 14.091 0 0 1-14.085 14.073 13.748 13.748 0 0 1-4.836-.874 12.18 12.18 0 0 0 7.863 2.82 12.3 12.3 0 0 0 10.917-18.022z" fill="#fff" fill-rule="evenodd"/><path d="M195.583 177.084c2.913 0 5.063-2.961 5.063-5.161V163.8a4.966 4.966 0 0 0-5.063-5.133H142.75a4.966 4.966 0 0 0-5.063 5.133v8.123c0 2.2 2.149 5.161 5.063 5.161z" fill="#2488d8" fill-rule="evenodd"/><path d="M191.991 171.923V163.8a4.989 4.989 0 0 0-5.091-5.133h-44.15a4.983 4.983 0 0 0-5.063 5.133v8.123c0 2.2 2.178 5.161 5.063 5.161h44.15c2.913 0 5.091-2.961 5.091-5.161z" fill="#69afe5" fill-rule="evenodd"/><path d="M417.358 411.081h85.822a3.141 3.141 0 0 0 3.179-2.742 3.076 3.076 0 0 0-3.031-3.339h-85.822a3.068 3.068 0 0 0-3.1 2.742 2.978 2.978 0 0 0 2.957 3.334z" fill="#c8c8c8"/><path fill="#212121" d="M462.968 368.918h5.396v33.345h-5.396v-33.345z"/><path d="M457.276 407.895v-3.038a5.954 5.954 0 0 1 5.988-5.928h5.4a5.954 5.954 0 0 1 5.988 5.928v3.038z" fill="#212121"/><path d="M457.276 404.338a6.021 6.021 0 0 1 5.988-5.409h5.4a6.021 6.021 0 0 1 5.988 5.409z" fill="#0078d7"/><path fill="#212121" d="M429.999 347.355l5.248-.222-.887-17.265-5.248.222.887 17.265z"/><path d="M430.147 333.128l11.31-4.891a3.371 3.371 0 0 0 1.7-4.446l-3.7-8.6a3.39 3.39 0 0 0-4.435-1.778l-11.31 4.891a3.371 3.371 0 0 0-1.7 4.446l3.7 8.67a3.381 3.381 0 0 0 4.435 1.7zM441.6 310.305a18.924 18.924 0 1 0 18.924-18.969 18.983 18.983 0 0 0-18.924 18.969z" fill="#69afe5"/><path d="M448.849 345.132a1.392 1.392 0 0 1 1.331-1.408 1.334 1.334 0 0 1 0-2.668h20.772a1.334 1.334 0 0 1 0 2.668 1.392 1.392 0 0 1 1.331 1.408 1.334 1.334 0 0 0 0 2.668 1.345 1.345 0 0 1-1.331 1.408h-20.773a1.345 1.345 0 0 1-1.331-1.408 1.334 1.334 0 0 0 0-2.668z" fill="#212121"/><path d="M445.818 304.007a2.585 2.585 0 0 0 4.953-1.482 2.567 2.567 0 0 0-3.179-1.778 2.653 2.653 0 0 0-1.774 3.26zM455.28 301.191a2.567 2.567 0 0 0 3.179 1.778 2.6 2.6 0 0 0 1.774-3.26 2.524 2.524 0 0 0-3.179-1.7 2.575 2.575 0 0 0-1.774 3.186z" fill="#fff100"/><path d="M476.126 336.759v1.556a2.811 2.811 0 0 1-2.809 2.816h-25.873a2.8 2.8 0 0 1-2.735-2.816v-1.556z" fill="#69afe5"/><path fill="#0078d7" d="M444.709 358.544h31.417v-6.15h-31.417v6.15z"/><path d="M444.709 352.468v-1.556a2.732 2.732 0 0 1 2.735-2.742h25.872a2.749 2.749 0 0 1 2.809 2.742v1.556zM442.639 369.511h36.887a3.886 3.886 0 0 0 3.844-3.927v-5.557a3.822 3.822 0 0 0-3.844-3.853h-36.887a3.822 3.822 0 0 0-3.844 3.853v5.557a3.886 3.886 0 0 0 3.844 3.927z" fill="#69afe5"/><path d="M470.212 356.173h9.314a3.822 3.822 0 0 1 3.844 3.853v5.557a3.886 3.886 0 0 1-3.844 3.927h-9.314v-13.337z" fill="#0078d7"/><path fill="#212121" d="M451.14 368.918h5.397v33.345h-5.397v-33.345z"/><path d="M445.448 407.895v-3.038a5.954 5.954 0 0 1 5.988-5.928h5.4a5.954 5.954 0 0 1 5.988 5.928v3.038z" fill="#212121"/><path d="M445.448 404.338a6.021 6.021 0 0 1 5.988-5.409h5.4a6.021 6.021 0 0 1 5.988 5.409z" fill="#0078d7"/><path fill="#0078d7" fill-rule="evenodd" d="M432.512 337.5h56.698v-28.602h-56.698V337.5z"/><path fill="#b3d6f2" fill-rule="evenodd" d="M432.512 337.5h35.408v-28.602h-35.408V337.5z"/><path d="M440.717 329.423h10.645c1.922 0 3.474-2.742 3.474-6.076 0-3.409-1.552-6.15-3.474-6.15h-10.645c-1.922 0-3.548 2.742-3.548 6.15 0 3.334 1.626 6.076 3.548 6.076z" fill="#0078d7"/><path d="M440.126 323.347c0-3.409 1.626-6.15 3.548-6.15h7.688c1.922 0 3.474 2.742 3.474 6.15 0 3.334-1.552 6.076-3.474 6.076h-7.688c-1.922 0-3.548-2.742-3.548-6.076z" fill="#212121"/><path d="M404.718 358.693a4.246 4.246 0 0 0 4.435-.667 4.256 4.256 0 0 0-5.47-6.521 3.9 3.9 0 0 0-.887 1.037l-3.918-1.852a8.114 8.114 0 0 1 2.07-2.445 8.454 8.454 0 0 1 11.975 1.037 3.563 3.563 0 0 1 .665.815l13.971-4.3 1.552 5.039-14.193 4.372a8.388 8.388 0 0 1-3.031 6.15 8.66 8.66 0 0 1-9.092 1.186l1.922-3.853z" fill="#0078d7"/><path d="M427.633 354.691l11.827-3.631a2.692 2.692 0 0 0 1.7-3.334l-1.552-5.187a2.683 2.683 0 0 0-3.326-1.7l-11.753 3.631a2.626 2.626 0 0 0-1.774 3.26l1.626 5.187a2.617 2.617 0 0 0 3.253 1.778zM489.21 330.683l-12.271-.074a3.35 3.35 0 0 1-3.4-3.409l.074-9.337a3.4 3.4 0 0 1 3.4-3.409l12.271.074a3.38 3.38 0 0 1 3.326 3.409v9.411a3.429 3.429 0 0 1-3.4 3.334z" fill="#69afe5"/><path d="M497.932 360.767a4.49 4.49 0 0 0 1.183-4.372 4.25 4.25 0 0 0-5.322-2.89 4.323 4.323 0 0 0-2.883 5.335 5.914 5.914 0 0 0 .591 1.186l-3.179 2.89a8.243 8.243 0 0 1-1.478-2.89 8.539 8.539 0 0 1 5.766-10.6 4.23 4.23 0 0 1 1.035-.3l1.7-14.524 5.174.593-1.7 14.746a8.416 8.416 0 0 1 4.361 5.261 8.509 8.509 0 0 1-2.513 8.818l-2.735-3.26z" fill="#0078d7"/><path d="M481.226 322.31a2.774 2.774 0 0 1 2.809-2.593 2.685 2.685 0 0 1 1.109.222l15.376 7.706-2.292 4.742-15.449-7.78a2.519 2.519 0 0 1-1.552-2.3z" fill="#212121"/><path d="M503.476 338.093l1.331-12.3a2.54 2.54 0 0 0-2.292-2.89l-5.4-.667a2.643 2.643 0 0 0-2.883 2.371l-1.4 12.226a2.716 2.716 0 0 0 2.292 2.964l5.4.593a2.712 2.712 0 0 0 2.957-2.3z" fill="#69afe5"/><path fill="#333" d="M442.565 294.819l24.838-7.41-1.774-5.039-23.655 7.632.591 4.817z"/><path d="M441.974 290.076c-.517-5.409-1.478-10.226 1.774-10.893 7.91-1.63 19.072-3.334 20.106-1.112s1.922 4.742 1.922 4.742l-23.8 7.262zM438.722 300.6l33.338-11.263-4.731-2-24.764 7.484-4.066 5.409a.225.225 0 0 0 .222.37z" fill="#70553a"/><path d="M404.866 340.464a11.088 11.088 0 1 1-11.088-11.115 11.087 11.087 0 0 1 11.088 11.115z" fill="#cfe0ee"/><path d="M416.176 361.953l.887-.963a1.616 1.616 0 0 0-.074-2.223l-11.606-10.6a1.537 1.537 0 0 0-2.218.074l-.887.963a1.616 1.616 0 0 0 .074 2.223l11.606 10.67a1.545 1.545 0 0 0 2.218-.148z" fill="#333"/><path fill="#acacac" d="M409.079 351.505l-3.03 3.26-3.696-3.334 3.03-3.335v.074"/><path d="M394.147 351.208a10.763 10.763 0 0 1-11.236-10.3 10.873 10.873 0 0 1 2.809-7.78 11.109 11.109 0 0 1 7.54-3.483 10.791 10.791 0 0 1 .887 21.563zm.074 1.556a12.329 12.329 0 0 0 8.5-4 12.235 12.235 0 1 0-8.5 4z" fill="#235a89"/><path d="M396.808 331.943a10.4 10.4 0 0 0-3.031-.519 9.065 9.065 0 0 0-9.018 9.04 10.473 10.473 0 0 0 .517 3.038l11.532-11.56z" fill="#fff"/><path d="M409.819 352.172a4.286 4.286 0 0 1-5.1 6.521l-1.922 3.853a8.564 8.564 0 0 0 11.975-5.928l-4.953-4.446z" fill="#0078d7"/><path d="M722.624 240h-139.4a14.984 14.984 0 0 0-15.041 14.908v80a14.984 14.984 0 0 0 15.041 14.908h139.4a15 15 0 0 0 15.132-14.916v-80a15 15 0 0 0-15.132-14.9z" fill="#005a93" fill-rule="evenodd"/><path fill="#212121" d="M647.603 318.541h-3.76v-15.363h3.76v15.363zM618.531 332.449l-4.219 3.818-12.473-13.545 4.219-3.818 12.473 13.545z"/><path d="M606.975 322.268l-11.189 4.454a4.173 4.173 0 0 1-5.411-2.363l-3.3-8.181a4.07 4.07 0 0 1 2.293-5.363l11.189-4.454a4.13 4.13 0 0 1 5.411 2.273l3.3 8.181a4.17 4.17 0 0 1-2.293 5.454z" fill="#69afe5"/><path d="M631.554 302.178a4.515 4.515 0 0 1-1.009 4.727 4.651 4.651 0 0 1-6.512 0 4.444 4.444 0 0 1 0-6.363 5.882 5.882 0 0 1 1.192-.909l-1.651-4.272a8.523 8.523 0 0 0-2.843 2 9 9 0 0 0 .092 12.817 8.005 8.005 0 0 0 .917.727l-5.778 14.454 5.228 2.091 5.87-14.726a9.441 9.441 0 0 0 6.787-2.636 9.191 9.191 0 0 0 2.018-9.636l-4.31 1.727z" fill="#0078d7"/><path d="M625.226 326.631l-4.494 11.363a3.3 3.3 0 0 1-4.219 1.818l-4.586-1.818a3.248 3.248 0 0 1-1.834-4.182l4.494-11.363a3.3 3.3 0 0 1 4.219-1.818l4.586 1.818a3.076 3.076 0 0 1 1.834 4.182z" fill="#69afe5"/><path d="M522.05 411.081h91.987a3.307 3.307 0 0 0 3.393-2.909 3.213 3.213 0 0 0-3.21-3.545h-92.078a3.228 3.228 0 1 0-.092 6.454z" fill="#c8c8c8"/><path fill="#212121" d="M570.932 366.356h5.778v35.362h-5.778v-35.362z"/><path d="M564.788 407.717v-3.182a6.411 6.411 0 0 1 6.42-6.363h5.87a6.411 6.411 0 0 1 6.42 6.363v3.182z" fill="#212121"/><path d="M564.879 403.9a6.354 6.354 0 0 1 6.328-5.727h5.87a6.354 6.354 0 0 1 6.328 5.727z" fill="#0078d7"/><path d="M548 304.178a20.315 20.315 0 1 0 20.36-20.09 20.206 20.206 0 0 0-20.36 20.09z" fill="#69afe5"/><path d="M555.8 341.085a1.5 1.5 0 0 1 1.467-1.454 1.426 1.426 0 0 1-1.467-1.364 1.442 1.442 0 0 1 1.467-1.454h22.194a1.442 1.442 0 0 1 1.467 1.454 1.426 1.426 0 0 1-1.467 1.364 1.5 1.5 0 0 1 1.467 1.454 1.455 1.455 0 1 0 0 2.909 1.442 1.442 0 0 1-1.467 1.454h-22.194a3.241 3.241 0 0 0-1.467-4.363z" fill="#212121"/><path d="M585.331 295.451a2.69 2.69 0 0 1-2.751 2.727 2.747 2.747 0 0 1-2.751-2.727 2.809 2.809 0 0 1 2.751-2.727 2.747 2.747 0 0 1 2.751 2.727zM574.784 295.451a2.751 2.751 0 0 1-5.5 0 2.751 2.751 0 0 1 5.5 0z" fill="#fff100"/><path d="M567.539 289.361a1.245 1.245 0 0 1-1.009-.636 1.1 1.1 0 0 1 .459-1.636l6.42-3.636a1.317 1.317 0 0 1 1.743.455 1.243 1.243 0 0 1-.55 1.636l-6.42 3.636a1.711 1.711 0 0 1-.642.182zM579.37 280.27a1.274 1.274 0 0 0-1.1.636 1.207 1.207 0 0 0 .459 1.636l6.512 3.636a1.324 1.324 0 0 0 1.651-.455 1.243 1.243 0 0 0-.459-1.636l-6.512-3.636a1.312 1.312 0 0 0-.55-.182z" fill="#212121"/><path d="M585.056 332.267v1.633a3.04 3.04 0 0 1-3.026 3h-27.7a3.04 3.04 0 0 1-3.026-3v-1.636z" fill="#69afe5"/><path fill="#0078d7" d="M551.306 355.357h33.75v-6.545h-33.75v6.545z"/><path d="M551.306 348.9v-1.636a2.963 2.963 0 0 1 3.026-2.909h27.7a2.963 2.963 0 0 1 3.026 2.909v1.636z" fill="#69afe5"/><path d="M549.839 366.993h38.152a4.872 4.872 0 0 0 4.861-4.818v-4.545a4.871 4.871 0 0 0-4.861-4.818h-38.152a4.872 4.872 0 0 0-4.861 4.818v4.545a4.872 4.872 0 0 0 4.861 4.818z" fill="#0078d7"/><path d="M569.19 352.812h19.443a4.189 4.189 0 0 1 4.219 4.182v5.906a4.114 4.114 0 0 1-4.219 4.091H569.19v-14.179z" fill="#69afe5"/><path fill="#212121" d="M558.184 366.356h5.87v35.362h-5.87v-35.362z"/><path d="M552.131 407.717v-3.182a6.352 6.352 0 0 1 6.42-6.363h5.778a6.352 6.352 0 0 1 6.42 6.363v3.182z" fill="#212121"/><path d="M552.131 403.9a6.512 6.512 0 0 1 6.42-5.727h5.778a6.377 6.377 0 0 1 6.42 5.727z" fill="#0078d7"/><path fill="#0078d7" fill-rule="evenodd" d="M599.088 333.085h-60.805v-30.452h60.805v30.452z"/><path fill="#b3d6f2" fill-rule="evenodd" d="M599.088 333.085h-29.073v-30.452h29.073v30.452z"/><path d="M590.284 324.541H578.82c-2.018 0-3.76-2.909-3.76-6.545 0-3.545 1.743-6.454 3.76-6.454h11.464c2.018 0 3.76 2.909 3.76 6.454 0 3.636-1.743 6.545-3.76 6.545z" fill="#0078d7"/><path fill="#212121" d="M532.688 331.358l3.119 4.636 15.316-10.363-3.21-4.636-15.225 10.363z"/><path d="M544.978 325.359l11.739 2.636a4.142 4.142 0 0 0 5.044-3.091l2.018-8.636a4.139 4.139 0 0 0-3.21-4.909l-11.739-2.727a4.117 4.117 0 0 0-4.952 3.091l-2.018 8.636a4.172 4.172 0 0 0 3.118 5z" fill="#69afe5"/><path d="M537.549 369.72a4.372 4.372 0 0 0 .367-4.818 4.538 4.538 0 0 0-6.145-1.909 4.484 4.484 0 0 0-1.926 6.091 3.754 3.754 0 0 0 .917 1.182l-2.843 3.545a7.735 7.735 0 0 1-2.2-2.636 9.131 9.131 0 0 1 3.944-12.272c.367-.182.734-.273 1.1-.455l-1.192-15.454 5.594-.455 1.192 15.726a9 9 0 0 1 4.769 14.272l-3.577-2.818z" fill="#0078d7"/><path d="M538.741 344.539l-.917-12.181a3.212 3.212 0 0 0-3.485-3l-4.952.364a3.237 3.237 0 0 0-2.935 3.454l.917 12.181a3.2 3.2 0 0 0 3.485 3l4.952-.364a3.184 3.184 0 0 0 2.935-3.454z" fill="#69afe5"/><path d="M590.742 318c0-3.545-1.743-6.454-3.76-6.454h-8.254c-2.109 0-3.76 2.909-3.76 6.454 0 3.636 1.651 6.545 3.76 6.545h8.254c2.018 0 3.76-2.909 3.76-6.545z" fill="#212121"/><path d="M668.789 289.815l-56.77 14.272a3.281 3.281 0 0 0-2.568 3.818 3.355 3.355 0 0 0 3.944 2.545l58.054-9.181c.367 0-2.385-11.545-2.66-11.454z" fill="#ff8c00"/><path fill="#666" d="M679.061 407.899h3.485l-31.274-84.449H641l-31.274 84.449h3.486l31.182-84.177v84.177h3.485v-84.177l31.182 84.177z"/><path d="M654.023 324.813h-15.774a1.345 1.345 0 0 1-1.376-1.364v-4.272a1.345 1.345 0 0 1 1.376-1.364h15.774a1.345 1.345 0 0 1 1.376 1.364v4.272a1.345 1.345 0 0 1-1.376 1.364z" fill="#ff8c00"/><path d="M670.256 295a44.068 44.068 0 0 0-1.467-5.182l-56.77 14.272a3.281 3.281 0 0 0-2.568 3.818L670.256 295z" fill="#ffb900"/><path d="M689.149 291.724c-.917-4.272-3.3-7.636-6.787-6.909a7 7 0 0 0-1.009.364l-15.683 4.363c-2.66 1.545-2.568 5.182-1.926 7.818.734 2.818 3.21 5.545 5.228 5.182a1.37 1.37 0 0 1 .642-.091l14.949-1.909c.367-.091.734-.091 1.009-.182 4.31-.909 4.4-4.272 3.577-8.636z" fill="#ea6206"/><path d="M631.554 302.178a4.515 4.515 0 0 1-1.009 4.727 5.3 5.3 0 0 1-2.109 1.182l1.559 4.272a9.82 9.82 0 0 0 3.852-2.273 9.191 9.191 0 0 0 2.018-9.636l-4.31 1.727z" fill="#0078d7"/><path d="M686.673 291.906a22.688 22.688 0 0 0 2.476-.182c-.917-4.272-3.3-7.636-6.787-6.909a7 7 0 0 0-1.009.364l-15.683 4.363c-2.476 1.364-2.568 4.636-2.109 7.181l23.111-4.818z" fill="#ff8c00"/><path d="M689.332 291.452c1.009 4.272-.367 8.272-3.118 8.909-2.66.545-5.594-2.454-6.6-6.727-.917-4.272.459-8.272 3.118-8.818 2.66-.636 5.686 2.363 6.6 6.636z" fill="#deecf9"/><path d="M688.232 291.724c-.734-3.273-3.026-5.545-5.044-5.091a3.2 3.2 0 0 0-2.293 2.273 4.938 4.938 0 0 1 1.009-.455c2.018-.454 4.31 1.818 5.044 5.091a8.3 8.3 0 0 1-.183 4.545c1.467-1.091 2.018-3.636 1.467-6.363z" fill="#005a93"/><path d="M619.356 277.543a2.843 2.843 0 0 1-5.686 0 2.843 2.843 0 0 1 5.686 0zM676.218 320.359a2.843 2.843 0 1 1-2.843-2.818 2.845 2.845 0 0 1 2.843 2.818zM649.713 247.181a2.843 2.843 0 1 1-2.843-2.818 2.845 2.845 0 0 1 2.843 2.818zM602.023 269a2.843 2.843 0 1 1-2.843-2.818 2.845 2.845 0 0 1 2.843 2.818z" fill="#2488d8"/><path fill="#69afe5" d="M658.701 272.089l1.559 3.182 3.668.545-2.659 2.545.642 3.546-3.21-1.637-3.21 1.637.55-3.546-2.568-2.545 3.577-.545 1.651-3.182zM604.407 249.454l1.651 3.182 3.577.545-2.568 2.545.55 3.546-3.21-1.728-3.21 1.728.642-3.546-2.659-2.545 3.668-.545 1.559-3.182zM673.191 329.177l1.651 3.272 3.577.546-2.66 2.454.642 3.636-3.21-1.727-3.21 1.727.642-3.636-2.659-2.454 3.576-.546 1.651-3.272z"/><path fill="#0078d7" d="M643.935 263.362l1.651 3.273 3.577.454-2.568 2.546.642 3.545-3.302-1.636-3.21 1.636.642-3.545-2.568-2.546 3.577-.454 1.559-3.273z"/><path fill="#0078d7" fill-rule="evenodd" d="M42.866 508.244h8.817l-.073 28.88-8.744-.074v-28.879.073z"/><path fill-rule="evenodd" d="M48.289 508.244h3.431v9.749h-8.854v-9.749h5.423z"/><path fill="#0078d7" d="M42.792 569.779h8.744l.147-14.22-8.817.036v-.036l-.074 14.22z"/><path fill-rule="evenodd" d="M48.289 555.595l3.431-.036v4.801l-8.854.036v-4.801h5.423z"/><path d="M77.841 509.123L42.9 509.2a5.352 5.352 0 0 1-5.386-5.351l-.037-16.089a5.375 5.375 0 0 1 5.386-5.351l34.938-.073a5.375 5.375 0 0 1 5.386 5.351l.037 16.089a5.375 5.375 0 0 1-5.386 5.351zM37.48 550.794a5.5 5.5 0 0 0 5.386 5.314h8.854c3.247 0 4.981-2.969 4.981-5.351l-.037-17.592a6.035 6.035 0 0 0-5.645-5.571h-8.042c-3.21 0-5.608 3.225-5.977 5.607l.48 17.592z" fill="#2488d8" fill-rule="evenodd"/><path fill="#0078d7" fill-rule="evenodd" d="M80.755 526.312h50.654v27.377H80.755v-27.377z"/><path fill-rule="evenodd" d="M80.755 520.448h50.654v5.864H80.755v-5.864z"/><path d="M106.322 446.453a29.622 29.622 0 0 0-29.883 29.5h59.73a29.613 29.613 0 0 0-29.846-29.5z" fill="#2488d8" fill-rule="evenodd"/><path d="M87.543 464.228a4.118 4.118 0 1 1 4.1 3.922 4.021 4.021 0 0 1-4.1-3.922zM116.873 464.228a4.118 4.118 0 1 1 4.1 3.922 4.021 4.021 0 0 1-4.1-3.922z" fill="#ffb900" fill-rule="evenodd"/><path fill="#0078d7" fill-rule="evenodd" d="M167.86 496.113l-3.985 7.953 26.194 13.047 4.021-7.953-26.23-13.047z"/><path fill-rule="evenodd" d="M167.86 496.113l-3.985 7.953 8.633 4.288 3.984-7.953-8.632-4.288z"/><path d="M126.355 502.527l34.2 6.927a5.33 5.33 0 0 0 6.346-4.141l3.21-15.686a5.351 5.351 0 0 0-4.169-6.3l-34.2-6.927a5.385 5.385 0 0 0-6.346 4.141l-3.247 15.686a5.348 5.348 0 0 0 4.206 6.3z" fill="#2488d8" fill-rule="evenodd"/><path d="M82.489 443.96l8.965-3.812a2.041 2.041 0 0 1 2.619 1.026 1.983 1.983 0 0 1-1.033 2.639l-8.928 3.848a2.021 2.021 0 0 1-1.623-3.7zM119.493 443.814l8.965 3.848a2.014 2.014 0 0 0 1.586-3.7l-8.928-3.812a2.071 2.071 0 0 0-2.656 1.026 2.014 2.014 0 0 0 1.033 2.639z" fill="#231f20"/><path d="M151.11 478.008v39.435a3.492 3.492 0 0 1-3.5 3.482H62.641a3.5 3.5 0 0 1-3.542-3.482v-39.472a3.516 3.516 0 0 1 3.5-3.482h85a3.523 3.523 0 0 1 3.5 3.518z" fill="#69afe5" fill-rule="evenodd"/><path fill="#0078d7" fill-rule="evenodd" d="M191.471 492.778l8.559 2.529 6.124-20.451-8.559-2.529-6.124 20.451z"/><path fill-rule="evenodd" d="M191.471 492.778l8.559 2.529 2.952-9.859-8.56-2.529-2.951 9.859z"/><path d="M203.24 502.087a6.019 6.019 0 0 0-3.911-6.963l-7.858-2.346a6.109 6.109 0 0 0-7.083 3.738l-5.054 16.859a6.023 6.023 0 0 0 3.911 7l7.858 2.309a6.037 6.037 0 0 0 7.083-3.738l5.054-16.859z" fill="#2488d8" fill-rule="evenodd"/><path d="M129.823 497.322a8.806 8.806 0 0 1-9.223 9.089H89.831a8.806 8.806 0 0 1-9.223-9.089 9.272 9.272 0 0 1 9.223-9.089H120.6a9.272 9.272 0 0 1 9.223 9.089z" fill-rule="evenodd"/><path d="M90.2 503.04a.989.989 0 0 1-1-.99v-9.016a.989.989 0 0 1 1-.99 1.021 1.021 0 0 1 1.033.99v9.016a1.021 1.021 0 0 1-1.033.99zM96.25 503.04a.989.989 0 0 1-1-.99v-9.016a1 1 0 0 1 1.992 0v9.016a.989.989 0 0 1-1 .99zM102.3 503.04a.989.989 0 0 1-1-.99v-9.016a1 1 0 0 1 1.992 0v9.016a.989.989 0 0 1-1 .99zM108.351 503.04a1.021 1.021 0 0 1-1.033-.99v-9.016a1.021 1.021 0 0 1 1.033-.99.989.989 0 0 1 1 .99v9.016a.989.989 0 0 1-1 .99zM114.365 503.04a.989.989 0 0 1-1-.99v-9.016a.989.989 0 0 1 1-.99 1.021 1.021 0 0 1 1.033.99v9.016a1.021 1.021 0 0 1-1.033.99zM120.415 503.04a.989.989 0 0 1-1-.99v-9.016a1 1 0 0 1 1.992 0v9.016a.989.989 0 0 1-1 .99z" fill="#ffb900"/><path d="M207.52 459.537c1.771.366 2.951 1.759 3.579 4.1a6.442 6.442 0 0 1-1.55 5.644 8.285 8.285 0 0 1-1.586 1.393.647.647 0 0 1-.184.147c-.111.073-.184.11-.3.183a2.2 2.2 0 0 0-.3.147c-.111.037-.184.11-.3.147s-.258.11-.369.147l-.221.11a4.484 4.484 0 0 1-.664.183 2.161 2.161 0 0 1-.7.11.278.278 0 0 1-.184.037h-.738c-.148 0-.332-.037-.48-.037a1.608 1.608 0 0 1-.184-.037c-.221-.037-.406-.073-.627-.11-.037-.037-.037-.037-.074-.037a7.633 7.633 0 0 1-2.1-.916v-.037a2.424 2.424 0 0 1-.627-.44 6.253 6.253 0 0 1-2.214-3.225 6.759 6.759 0 0 1 .369-5.131L192.1 458.4c-1.734 2.969-1.7 6.34-.7 10.262a12.911 12.911 0 0 0 5.349 7.623 11.667 11.667 0 0 0 2.951 1.466.136.136 0 0 0 .111.037c.148.073.332.11.517.183a.28.28 0 0 1 .148.037c.148.037.3.073.48.11a.335.335 0 0 0 .184.037l.443.11c.074 0 .148.037.221.037a1.863 1.863 0 0 1 .443.073h.221a1.807 1.807 0 0 0 .443.037.471.471 0 0 0 .221.037h.7a1.5 1.5 0 0 0 .406 0h.258a1.392 1.392 0 0 0 .406-.037h.3c.148-.037.258-.037.406-.073h.258c.148-.037.332-.073.48-.11a.471.471 0 0 0 .221-.037 6.024 6.024 0 0 0 .7-.147c.406-.11.812-.22 1.217-.366a.036.036 0 0 0 .037-.037 10.555 10.555 0 0 0 1.144-.44c0-.037.037-.037.074-.037.369-.183.7-.366 1.07-.55 0-.037.037-.037.074-.037l1-.66c.037 0 .037-.037.074-.037.332-.257.627-.476.959-.733 0-.037 0-.037.037-.037.3-.257.59-.55.885-.843h.037c.3-.293.553-.623.812-.916v-.037a12.675 12.675 0 0 0 2.73-11.288 13.657 13.657 0 0 0-6.382-8.429l-3.5 5.937z" fill="#0078d7" fill-rule="evenodd"/><path d="M141.26 569.815v-13.963a5.521 5.521 0 0 0-5.682-5.607H76.143a5.53 5.53 0 0 0-5.718 5.607v13.963z" fill="#69afe5" fill-rule="evenodd"/><path d="M475.449 497.8c.479 1.756-.184 3.438-2.026 5.084-2.431 2.158-7.036 1.938-9.725-1.061a6.683 6.683 0 0 1-1.363-5.669h-6.815a12.692 12.692 0 0 0 3.315 10.021c4.9 5.376 13.482 6.364 18.934 1.463a13.287 13.287 0 0 0 4.568-9.509l-6.888-.329zM314.363 508.773l8.915-.073.184 29.076-8.915.037-.184-29.04z" fill="#0078d7" fill-rule="evenodd"/><path fill-rule="evenodd" d="M314.363 508.773l8.915-.073.073 9.582-8.951.073-.037-9.582z"/><path d="M349.542 509.76l-34.847.073a5.326 5.326 0 0 1-5.341-5.3l-.037-15.946a5.288 5.288 0 0 1 5.341-5.34l34.81-.073a5.358 5.358 0 0 1 5.378 5.3l.037 15.946a5.334 5.334 0 0 1-5.341 5.34z" fill="#2488d8" fill-rule="evenodd"/><path fill="#0078d7" fill-rule="evenodd" d="M314.142 556.868h8.915l.036 12.911-8.914.036-.037-12.947z"/><path fill-rule="evenodd" d="M314.142 556.868h8.915l.036 10.277h-8.914l-.037-10.277z"/><path d="M309.132 551.309a6.024 6.024 0 0 0 5.636 5.559h8.03a6.086 6.086 0 0 0 5.636-5.6l-.037-17.556a6.024 6.024 0 0 0-5.636-5.559h-8.03c-3.2 0-5.6 3.219-5.6 5.6v17.556z" fill="#2488d8" fill-rule="evenodd"/><path fill="#0078d7" fill-rule="evenodd" d="M352.783 526.621h50.356v27.321h-50.356v-27.321z"/><path fill-rule="evenodd" d="M352.783 520.952h50.356v5.669h-50.356v-5.669z"/><path d="M377.98 447.219a29.538 29.538 0 0 0-29.837 29.406h59.637a29.529 29.529 0 0 0-29.8-29.406z" fill="#2488d8" fill-rule="evenodd"/><path d="M359.23 464.921a4.112 4.112 0 1 1 4.089 3.913 3.99 3.99 0 0 1-4.089-3.913zM388.515 464.921a4.112 4.112 0 1 1 4.089 3.913 4.013 4.013 0 0 1-4.089-3.913z" fill="#ffb900" fill-rule="evenodd"/><path fill="#0078d7" fill-rule="evenodd" d="M437.323 506.798l-8.804 1.426 4.752 28.674 8.804-1.426-4.752-28.674z"/><path fill-rule="evenodd" d="M437.323 506.798l-8.804 1.426 1.547 9.437 8.804-1.427-1.547-9.436z"/><path d="M397.982 503.141l34.147 6.913a5.367 5.367 0 0 0 6.336-4.133l3.2-15.654a5.337 5.337 0 0 0-4.2-6.291l-34.147-6.913a5.358 5.358 0 0 0-6.3 4.133l-3.242 15.654a5.337 5.337 0 0 0 4.2 6.291z" fill="#2488d8" fill-rule="evenodd"/><path d="M389.693 454.387l9.725.073a2.03 2.03 0 0 0 2.026-1.975 1.99 1.99 0 0 0-2.026-2.012l-9.688-.073a1.993 1.993 0 1 0-.037 3.987zM357.13 458.3l9.725.073a2.012 2.012 0 0 0 .037-4.023l-9.725-.037a1.982 1.982 0 0 0-2.026 1.975 2.005 2.005 0 0 0 1.989 2.012z" fill="#231f20"/><path d="M419.273 475.2a3.517 3.517 0 0 1 3.536 3.475v39.5a3.525 3.525 0 0 1-3.536 3.511h-84.76a3.525 3.525 0 0 1-3.536-3.511v-39.5a3.509 3.509 0 0 1 3.5-3.475z" fill="#69afe5" fill-rule="evenodd"/><path fill="#0078d7" fill-rule="evenodd" d="M448.337 519.892l7.367 5.047 12.156-17.519-7.33-5.047-12.193 17.519z"/><path fill-rule="evenodd" d="M448.337 519.892l7.367 5.047 5.894-8.485-7.367-5.048-5.894 8.486z"/><path d="M456.625 532.327a6.03 6.03 0 0 0-1.51-7.827l-6.741-4.608a6.151 6.151 0 0 0-7.92 1.39L430.4 535.728a6.049 6.049 0 0 0 1.547 7.827l6.741 4.608a6.1 6.1 0 0 0 7.883-1.39l10.056-14.447z" fill="#2488d8" fill-rule="evenodd"/><path d="M401.444 497.947a8.79 8.79 0 0 1-9.209 9.07h-30.721a8.79 8.79 0 0 1-9.209-9.07 9.256 9.256 0 0 1 9.209-9.07h30.722a9.256 9.256 0 0 1 9.209 9.07z" fill-rule="evenodd"/><path d="M368.071 498.166a.987.987 0 0 1 .995-.988h1.179a1 1 0 0 1 1.031.988 1.026 1.026 0 0 1-1.031 1.024h-1.179a1.018 1.018 0 0 1-.995-1.024zM372.97 498.166a.987.987 0 0 1 .995-.988h1.216a.987.987 0 0 1 .995.988 1.018 1.018 0 0 1-.995 1.024h-1.216a1.018 1.018 0 0 1-.995-1.024zM377.906 498.166a.987.987 0 0 1 .995-.988h1.179a.987.987 0 0 1 .995.988 1.018 1.018 0 0 1-.995 1.024h-1.18a1.018 1.018 0 0 1-.995-1.024zM382.805 498.166a.987.987 0 0 1 .995-.988h1.179a1 1 0 0 1 1.031.988 1.026 1.026 0 0 1-1.031 1.024H383.8a1.018 1.018 0 0 1-.995-1.024z" fill="#ffb900"/><path d="M478.322 517.112a2.205 2.205 0 0 1-3.242-1.426c-.589-1.536.111-3.182 1.437-3.219a2.224 2.224 0 0 1 3.242 1.426c.847 1.024.111 2.633-1.437 3.219zM461.23 458.63l4.163 10.863-3.794 4.133-5.562-.549-3.647-10.643a10.859 10.859 0 0 0-2.91 12.252c2.026 4.1 5.857 7.1 10.351 7.169l13.445 34.965a3.947 3.947 0 0 0 5.378 2.414l.81-.329a4.621 4.621 0 0 0 2.652-5.888l-13.666-34.454a10.818 10.818 0 0 0 2.91-12.216 12.253 12.253 0 0 0-10.13-7.717z" fill="#505050"/><path d="M467.713 504.128a7.5 7.5 0 0 1-4.015-2.3 6.878 6.878 0 0 1 .479-9.107 6.983 6.983 0 0 1 4.715-2.085l.368-6.839c-3.426-.183-6.409 1.39-9.43 4.133a12.688 12.688 0 0 0-.995 18.25 14.127 14.127 0 0 0 8.878 4.535v-6.583z" fill="#0078d7" fill-rule="evenodd"/><path d="M413.085 569.779v-13.46a5.491 5.491 0 0 0-5.71-5.559h-59.343a5.482 5.482 0 0 0-5.673 5.559v13.459z" fill="#69afe5" fill-rule="evenodd"/><path fill="#0078d7" fill-rule="evenodd" d="M595.758 508.704l8.894-.073.184 29.109-8.894.037-.184-29.073z"/><path fill-rule="evenodd" d="M595.758 508.704l8.894-.073.074 9.593-8.931.074-.037-9.594z"/><path d="M630.856 509.693l-34.767.073a5.323 5.323 0 0 1-5.329-5.309l-.037-15.964a5.285 5.285 0 0 1 5.329-5.346l34.731-.073a5.355 5.355 0 0 1 5.366 5.309l.037 15.964a5.331 5.331 0 0 1-5.329 5.346z" fill="#2488d8" fill-rule="evenodd"/><path fill="#0078d7" fill-rule="evenodd" d="M595.538 556.853h8.894l.036 12.926-8.894.036-.036-12.962z"/><path fill-rule="evenodd" d="M595.538 556.853h8.894l.036 10.289h-8.894l-.036-10.289z"/><path d="M590.539 551.288a6.021 6.021 0 0 0 5.623 5.566h8.012a6.083 6.083 0 0 0 5.623-5.6l-.037-17.575a6.021 6.021 0 0 0-5.623-5.566h-8.012c-3.2 0-5.586 3.222-5.586 5.6v17.575z" fill="#2488d8" fill-rule="evenodd"/><path fill="#0078d7" fill-rule="evenodd" d="M634.09 526.573h50.241v27.351H634.09v-27.351z"/><path fill-rule="evenodd" d="M634.09 520.897h50.241v5.676H634.09v-5.676z"/><path d="M659.229 447.045a29.55 29.55 0 0 0-29.769 29.475h59.5a29.542 29.542 0 0 0-29.732-29.475z" fill="#2488d8" fill-rule="evenodd"/><path d="M640.522 464.8a4.1 4.1 0 1 1 4.079 3.918 3.987 3.987 0 0 1-4.079-3.918z" fill="#ffb900" fill-rule="evenodd"/><path fill="#0078d7" fill-rule="evenodd" d="M725.456 496.768l-8.49 2.746 9.005 28.23 8.416-3.002-8.931-27.974z"/><path fill-rule="evenodd" d="M725.456 496.768l-8.49 2.746 3.97 12.413 8.489-2.747-3.969-12.412z"/><path d="M685.176 506.8l34.767.513a5.333 5.333 0 0 0 5.439-5.236l.221-16a5.354 5.354 0 0 0-5.256-5.419l-34.767-.513a5.363 5.363 0 0 0-5.439 5.273l-.221 15.964a5.332 5.332 0 0 0 5.256 5.419z" fill="#2488d8" fill-rule="evenodd"/><path d="M637.692 453.525l9.592 1.391a1.988 1.988 0 0 1 1.691 2.27 1.958 1.958 0 0 1-2.242 1.684l-9.633-1.39a2.042 2.042 0 0 1-1.691-2.27 2.013 2.013 0 0 1 2.279-1.684z" fill="#231f20"/><path d="M700.428 475.092a3.515 3.515 0 0 1 3.528 3.478v39.544a3.523 3.523 0 0 1-3.528 3.515h-84.567a3.523 3.523 0 0 1-3.528-3.515V478.57a3.507 3.507 0 0 1 3.491-3.478z" fill="#69afe5" fill-rule="evenodd"/><path d="M682.64 497.866a8.785 8.785 0 0 1-9.188 9.081H642.8a8.785 8.785 0 0 1-9.188-9.081 9.25 9.25 0 0 1 9.188-9.081h30.651a9.25 9.25 0 0 1 9.188 9.081z" fill-rule="evenodd"/><path d="M643.168 503.578a.986.986 0 0 1-.992-.989v-9.007a.992.992 0 0 1 1.985 0v9.007a.986.986 0 0 1-.992.989zM649.2 503.578a.986.986 0 0 1-.992-.989v-9.007a.992.992 0 0 1 1.985 0v9.007a.986.986 0 0 1-.992.989zM655.223 503.578a1.018 1.018 0 0 1-1.029-.989v-9.007a1.018 1.018 0 0 1 1.029-.989.986.986 0 0 1 .992.989v9.007a.986.986 0 0 1-.992.989zM661.213 503.578a.986.986 0 0 1-.992-.989v-9.007a1.011 1.011 0 0 1 2.021 0v9.007a1 1 0 0 1-1.029.989zM667.241 503.578a.986.986 0 0 1-.992-.989v-9.007a.986.986 0 0 1 .992-.989 1.018 1.018 0 0 1 1.029.989v9.007a1.018 1.018 0 0 1-1.029.989zM673.268 503.578a.986.986 0 0 1-.992-.989v-9.007a.992.992 0 0 1 1.985 0v9.007a.986.986 0 0 1-.992.989z" fill="#ffb900"/><path d="M691.387 467.586A19.3 19.3 0 1 1 675 445.873a19.3 19.3 0 0 1 16.391 21.713z" fill="#cedfed"/><path d="M685.948 517.785l2.168-.622a2.687 2.687 0 0 0 1.911-3.332l-7.755-28.011a2.715 2.715 0 0 0-3.344-1.9l-2.205.586a2.7 2.7 0 0 0-1.911 3.332l7.755 28.047a2.8 2.8 0 0 0 3.381 1.9z" fill="#333"/><path d="M684.625 494.278l-7.461 2.014-2.279-8.312-.037-.037 7.461-2.014h.037" fill="#505050"/><path d="M666.8 479.412a14.723 14.723 0 0 0 4.594 1.5 14.168 14.168 0 0 0 16.024-12.01 14.922 14.922 0 0 0-.147-4.8l-20.471 15.31z" fill="#fff"/><path fill="#0078d7" fill-rule="evenodd" d="M708.183 521.337l4.704-7.506-18.082-11.315-4.741 7.507 18.119 11.314z"/><path fill-rule="evenodd" d="M708.183 521.337l4.704-7.506-8.747-5.493-4.741 7.543 8.784 5.456z"/><path d="M720.311 512.586a6.079 6.079 0 0 0-7.791 1.831l-4.337 6.92a6.04 6.04 0 0 0 1.727 7.8l14.921 9.337a6.135 6.135 0 0 0 7.791-1.867l4.337-6.884a6.022 6.022 0 0 0-1.691-7.8l-14.958-9.337z" fill="#2488d8" fill-rule="evenodd"/><path d="M691.718 505.409a7.43 7.43 0 0 1-3.381 3.149 7.044 7.044 0 0 1-8.637-3.222 6.911 6.911 0 0 1-.551-5.09l-6.468-2.417c-1.176 3.222-.551 6.517 1.139 10.216a12.832 12.832 0 0 0 17.2 6.408 14.154 14.154 0 0 0 7.02-7.067l-6.321-1.977z" fill="#0078d7" fill-rule="evenodd"/><path d="M662.537 464.73a8.026 8.026 0 1 1 6.836 8.678 7.838 7.838 0 0 1-6.836-8.678z" fill="#ffb900" fill-rule="evenodd"/><path d="M667.939 456.235l18.67-3.259a3.922 3.922 0 1 0-1.36-7.726l-18.67 3.259a3.922 3.922 0 1 0 1.36 7.726z" fill="#231f20"/><path d="M670.291 483.44a18.693 18.693 0 1 1 20.544-16.77 18.739 18.739 0 0 1-20.544 16.77zm-.257 2.6a21.305 21.305 0 1 0-19.185-23.324 21.515 21.515 0 0 0 19.185 23.324z" fill="#245a88"/><path d="M686.536 488.639a14.257 14.257 0 0 0-3.381.256l1.691 6.3a6.472 6.472 0 0 1 1.433-.11 6.808 6.808 0 0 1 6.211 7.177 7.476 7.476 0 0 1-2.867 5.456l4.741 4.65a12.907 12.907 0 0 0 4.667-9.52c.294-7.25-5.182-13.914-12.5-14.207z" fill="#0078d7" fill-rule="evenodd"/><path d="M694.254 569.779V556.3a5.487 5.487 0 0 0-5.7-5.566h-59.205a5.478 5.478 0 0 0-5.66 5.566v13.474z" fill="#69afe5" fill-rule="evenodd"/><path d="M653.165 462.167a19.278 19.278 0 0 0 16.391 21.749 19.3 19.3 0 0 0 21.831-16.33A19.2 19.2 0 0 0 675 445.873a17.374 17.374 0 0 0-2.72-.22 19.3 19.3 0 0 0-19.111 16.513z" fill="none"/><path fill="#b9e6c0" d="M437.756 210.501h299.769V33.378H437.756v177.123z"/><path fill="#8ad596" d="M437.756 210.501h299.769v-56.559H437.756v56.559z"/><path fill="#5bc46c" d="M641.581 143.016h-10.78v-11.502h10.78v11.502z"/><path fill="#5bc46c" d="M646.204 179.82h-19.651v-44.453h19.651v44.453z"/><path fill="#8ad596" d="M642.361 152.993h-11.56v-13.428h11.56v13.428z"/><g clip-path="url(#a)"><path d="M641.609 133.441h-10.432a4.6 4.6 0 0 1-4.624-4.572v-15.757a4.626 4.626 0 0 1 4.624-4.6h10.433a4.6 4.6 0 0 1 4.595 4.6v15.757a4.577 4.577 0 0 1-4.595 4.572z" fill="#8ad596"/><path d="M641.234 108.511H639.3c1.416.719 3.063 2.3 3.063 4.141v15.383s-2.572 4.486-5.057 4.629h-7.629a6.59 6.59 0 0 1 1.676.776h9.883a4.577 4.577 0 0 0 4.595-4.572v-15.785a4.577 4.577 0 0 0-4.595-4.572z" fill="#5bc46c"/><path d="M645.713 115.412h-19.16a1.132 1.132 0 0 1-1.156-1.121v-2.329h21.587v2.214a1.255 1.255 0 0 1-1.271 1.236zM645.858 128.064h-19.334a1.12 1.12 0 0 1-1.127-1.093v-1.581h21.587v1.581a1.1 1.1 0 0 1-1.127 1.093z" fill="#5bc46c" fill-rule="evenodd"/><path fill="#43bb57" d="M636.205 146.869h-2.716v-5.377h2.716v5.377zM639.673 146.869h-2.716v-5.377h2.716v5.377z"/><path fill="#8ad596" fill-rule="evenodd" d="M646.985 114.665h-21.588v-2.703h21.588v2.703zM646.985 127.316h-21.588v-2.703h21.588v2.703z"/><path d="M553.468 131.514h-1.792a1.8 1.8 0 0 0-1.792 1.811v40h5.4v-40a1.809 1.809 0 0 0-1.821-1.811zM611.641 131.514h-1.763a1.809 1.809 0 0 0-1.821 1.811v40h5.4v-40a1.809 1.809 0 0 0-1.821-1.811z" fill="#5bc46c" fill-rule="evenodd"/><path fill="#5bc46c" fill-rule="evenodd" d="M559.161 173.322h-13.727l-.809 4.601h15.374l-.838-4.601zM616.959 173.322h-12.571l-.752 4.198h14.074l-.751-4.198zM609.994 136.115h-57.422v3.45h57.422v-3.45zM609.994 149.917h-57.422v4.6h57.422v-4.6zM609.994 165.271h-57.422v5.348h57.422v-5.348z"/><path d="M565.692 164.869a4.248 4.248 0 1 1-4.248-4.2 4.244 4.244 0 0 1 4.248 4.2z" fill="#43bb57" fill-rule="evenodd"/><path d="M562.975 164.869a1.544 1.544 0 0 1-1.532 1.553 1.538 1.538 0 1 1 1.532-1.553z" fill="#72cc81" fill-rule="evenodd"/><path d="M576.1 164.869a4.248 4.248 0 1 1-4.248-4.2 4.244 4.244 0 0 1 4.248 4.2z" fill="#43bb57" fill-rule="evenodd"/><path d="M573.379 164.869a1.544 1.544 0 0 1-1.532 1.553 1.538 1.538 0 1 1 1.532-1.553z" fill="#72cc81" fill-rule="evenodd"/><path d="M586.095 164.869a4.234 4.234 0 1 1-4.219-4.2 4.22 4.22 0 0 1 4.219 4.2z" fill="#43bb57" fill-rule="evenodd"/><path d="M583.407 164.869a1.546 1.546 0 1 1-1.532-1.524 1.544 1.544 0 0 1 1.532 1.524z" fill="#72cc81" fill-rule="evenodd"/><path d="M596.5 164.869a4.234 4.234 0 1 1-4.219-4.2 4.22 4.22 0 0 1 4.219 4.2z" fill="#43bb57" fill-rule="evenodd"/><path d="M593.811 164.869a1.546 1.546 0 1 1-1.532-1.524 1.544 1.544 0 0 1 1.532 1.524z" fill="#72cc81" fill-rule="evenodd"/><path d="M606.526 164.869a4.234 4.234 0 0 1-8.467 0 4.234 4.234 0 0 1 8.467 0z" fill="#43bb57" fill-rule="evenodd"/><path d="M603.839 164.869a1.546 1.546 0 1 1-1.561-1.524 1.55 1.55 0 0 1 1.561 1.524z" fill="#72cc81" fill-rule="evenodd"/><path d="M564.536 150.319a3.092 3.092 0 1 1-3.092-3.077 3.064 3.064 0 0 1 3.092 3.077z" fill="#43bb57" fill-rule="evenodd"/><path d="M562.975 150.319a1.538 1.538 0 0 1-1.532 1.524 1.538 1.538 0 0 1 0-3.077 1.544 1.544 0 0 1 1.532 1.553z" fill="#72cc81" fill-rule="evenodd"/><path d="M572.628 150.319a3.092 3.092 0 1 1-3.092-3.077 3.064 3.064 0 0 1 3.092 3.077z" fill="#43bb57" fill-rule="evenodd"/><path d="M571.067 150.319a1.538 1.538 0 0 1-1.532 1.524 1.538 1.538 0 0 1 0-3.077 1.544 1.544 0 0 1 1.532 1.553z" fill="#72cc81" fill-rule="evenodd"/><path d="M580.719 150.319a3.092 3.092 0 1 1-3.092-3.077 3.064 3.064 0 0 1 3.092 3.077z" fill="#43bb57" fill-rule="evenodd"/><path d="M579.159 150.319a1.538 1.538 0 0 1-1.532 1.524 1.538 1.538 0 0 1 0-3.077 1.544 1.544 0 0 1 1.532 1.553z" fill="#72cc81" fill-rule="evenodd"/><path d="M588.811 150.319a3.092 3.092 0 1 1-3.092-3.077 3.064 3.064 0 0 1 3.092 3.077z" fill="#43bb57" fill-rule="evenodd"/><path d="M587.251 150.319a1.538 1.538 0 0 1-1.532 1.524 1.538 1.538 0 0 1 0-3.077 1.544 1.544 0 0 1 1.532 1.553z" fill="#72cc81" fill-rule="evenodd"/><path d="M596.9 150.319a3.092 3.092 0 1 1-3.092-3.077 3.064 3.064 0 0 1 3.092 3.077z" fill="#43bb57" fill-rule="evenodd"/><path d="M595.342 150.319a1.538 1.538 0 0 1-1.532 1.524 1.538 1.538 0 0 1 0-3.077 1.544 1.544 0 0 1 1.532 1.553z" fill="#72cc81" fill-rule="evenodd"/><path d="M604.995 150.319a3.092 3.092 0 1 1-3.092-3.077 3.064 3.064 0 0 1 3.092 3.077z" fill="#43bb57" fill-rule="evenodd"/><path d="M603.434 150.319a1.538 1.538 0 0 1-1.532 1.524 1.538 1.538 0 0 1 0-3.077 1.544 1.544 0 0 1 1.532 1.553z" fill="#72cc81" fill-rule="evenodd"/><path d="M564.912 135.166a2.5 2.5 0 1 1-2.514-2.5 2.51 2.51 0 0 1 2.514 2.5z" fill="#43bb57" fill-rule="evenodd"/><path d="M563.38 135.166a.968.968 0 1 1-.983-.949.966.966 0 0 1 .983.949z" fill="#72cc81" fill-rule="evenodd"/><path d="M571.472 135.166a2.514 2.514 0 1 1-2.514-2.5 2.51 2.51 0 0 1 2.514 2.5z" fill="#43bb57" fill-rule="evenodd"/><path d="M569.911 135.166a.96.96 0 0 1-.954.949.949.949 0 1 1 0-1.9.96.96 0 0 1 .954.949z" fill="#72cc81" fill-rule="evenodd"/><path d="M578 135.166a2.5 2.5 0 1 1-2.485-2.5 2.5 2.5 0 0 1 2.485 2.5z" fill="#43bb57" fill-rule="evenodd"/><path d="M576.471 135.166a.968.968 0 1 1-.954-.949.96.96 0 0 1 .954.949z" fill="#72cc81" fill-rule="evenodd"/><path d="M584.563 135.166a2.5 2.5 0 1 1-2.514-2.5 2.51 2.51 0 0 1 2.514 2.5z" fill="#43bb57" fill-rule="evenodd"/><path d="M583.031 135.166a.968.968 0 1 1-.983-.949.966.966 0 0 1 .983.949z" fill="#72cc81" fill-rule="evenodd"/><path d="M591.123 135.166a2.514 2.514 0 1 1-2.514-2.5 2.51 2.51 0 0 1 2.514 2.5z" fill="#43bb57" fill-rule="evenodd"/><path d="M589.562 135.166a.96.96 0 0 1-.954.949.949.949 0 1 1 0-1.9.96.96 0 0 1 .954.949z" fill="#72cc81" fill-rule="evenodd"/><path d="M597.654 135.166a2.5 2.5 0 1 1-2.485-2.5 2.5 2.5 0 0 1 2.485 2.5z" fill="#43bb57" fill-rule="evenodd"/><path d="M596.123 135.166a.968.968 0 1 1-.954-.949.96.96 0 0 1 .954.949z" fill="#72cc81" fill-rule="evenodd"/><path d="M604.214 135.166a2.5 2.5 0 1 1-2.514-2.5 2.51 2.51 0 0 1 2.514 2.5z" fill="#43bb57" fill-rule="evenodd"/><path d="M602.683 135.166a.968.968 0 1 1-.983-.949.966.966 0 0 1 .983.949z" fill="#72cc81" fill-rule="evenodd"/><path fill="#43bb57" d="M542.948 133.815h-91.696v-2.301h91.696v2.301z"/><path fill="#43bb57" d="M473.591 182.523h-1.532V126.54h1.532v55.983z"/><path fill="#43bb57" d="M522.517 179.82h-55.486v-2.3h55.486v2.3z"/><path fill="#5bc46c" d="M475.123 138.818h-5v-5.003h5v5.003z"/><path d="M525.725 144.568h-2.919a.67.67 0 0 1-.665-.661V122.2a.647.647 0 0 1 .665-.633h2.919a.666.666 0 0 1 .665.633v21.709a.691.691 0 0 1-.665.661zM530.782 142.268h-3.034a.609.609 0 0 1-.607-.6v-16.077a.585.585 0 0 1 .607-.575h3.034a.585.585 0 0 1 .607.575v16.073a.609.609 0 0 1-.607.6zM535.839 138.818h-3.121a.554.554 0 0 1-.549-.575v-10.38a.53.53 0 0 1 .549-.546h3.121a.547.547 0 0 1 .549.546v10.38a.573.573 0 0 1-.549.575z" fill="#5bc46c" fill-rule="evenodd"/><path fill="#43bb57" d="M516.737 182.523h1.561V126.54h-1.561v55.983z"/><path fill="#5bc46c" d="M514.83 138.818h4.999v-5.003h-4.999v5.003z"/><path fill="#43bb57" d="M509.801 163.718h-29.65v-4.974h29.65v4.974z"/><path fill="#43bb57" d="M483.619 182.523h1.532v-20.702h-1.532v20.702zM505.178 182.523h1.56v-20.702h-1.56v20.702z"/><path fill="#43bb57" d="M506.738 179.073h-21.587v3.45h21.587v-3.45z"/><path d="M464.228 144.568h2.919a.671.671 0 0 0 .665-.661V122.2a.647.647 0 0 0-.665-.633h-2.919a.647.647 0 0 0-.665.633v21.709a.671.671 0 0 0 .665.661zM459.17 142.268h3.03a.629.629 0 0 0 .607-.6v-16.077a.6.6 0 0 0-.607-.575h-3.03a.585.585 0 0 0-.607.575v16.073a.609.609 0 0 0 .607.6zM454.113 138.818h3.121a.573.573 0 0 0 .549-.575v-10.38a.547.547 0 0 0-.549-.546h-3.121a.53.53 0 0 0-.549.546v10.38a.554.554 0 0 0 .549.575z" fill="#5bc46c" fill-rule="evenodd"/><path d="M545.925 155.294l.491-5.262c.983.086 24.362 1.84 32.743-24.9l5.057 1.553c-9.681 30.939-38 28.639-38.291 28.61z" fill="#0078d7"/><path d="M578.928 138.156a47.1 47.1 0 0 0 5.288-11.473l-5.057-1.553a41.975 41.975 0 0 1-4.653 10.208l4.422 2.818z"/><path d="M547.89 163.69c3.063-.949 5.838-4.054 5.346-7.821l-.665-4.8c-.52-3.767-4.1-6.556-7.225-6.125l2.543 18.747z" fill="#0078d7" fill-rule="evenodd"/><path fill-rule="evenodd" d="M545.347 144.942l2.543 18.748-3.728.517-2.543-18.776 3.728-.489z"/><path d="M613.346 165.616l-5.086-1.438c.26-.949 6.271-23.492-18.64-36.575l2.485-4.658c28.783 15.124 21.327 42.412 21.241 42.67z" fill="#0078d7"/><path d="M600.978 136.172l3.757-3.738a45.853 45.853 0 0 0-12.629-9.489l-2.486 4.655a39.768 39.768 0 0 1 11.357 8.569z"/><path d="M620.08 169.5c-.144-3.134-3.526-6.125-7.283-5.923l-4.826.259c-3.757.2-6.271 3.479-6.647 6.671l18.756-1.007z" fill="#0078d7" fill-rule="evenodd"/><path fill-rule="evenodd" d="M601.324 170.504l18.756-1.006.202 3.738-18.755 1.006-.203-3.738z"/><path d="M532.66 203.6H702.7a3.305 3.305 0 0 0 3.179-2.617 3.1 3.1 0 0 0-3.15-3.508h-170.04a3.276 3.276 0 0 0-3.179 2.617 3.1 3.1 0 0 0 3.15 3.508z" fill="#5bc46c"/><path fill="#0078d7" fill-rule="evenodd" d="M624.964 83.151l-1.994 5.52 18.148 6.441 1.965-5.521-18.119-6.44z"/><path fill-rule="evenodd" d="M624.964 83.151l-1.994 5.52 5.982 2.128 1.965-5.521-5.953-2.127z"/><path d="M596.383 85.393l21.385 8.166a3.54 3.54 0 0 0 4.566-2.013l3.786-9.8a3.487 3.487 0 0 0-2.02-4.546L602.711 69a3.54 3.54 0 0 0-4.566 2.013l-3.785 9.837a3.521 3.521 0 0 0 2.023 4.543z" fill="#005a93" fill-rule="evenodd"/><path fill="#0078d7" fill-rule="evenodd" d="M641.089 80.879l5.433 2.185 5.289-12.996-5.462-2.186-5.26 12.997z"/><path fill-rule="evenodd" d="M641.089 80.879l5.433 2.185 2.543-6.297-5.433-2.156-2.543 6.268z"/><path d="M648.2 87.694a3.95 3.95 0 0 0-2.11-4.8l-5-2.013a4.084 4.084 0 0 0-4.884 2.013l-4.335 10.754a3.98 3.98 0 0 0 2.11 4.8l5 2.013a4.008 4.008 0 0 0 4.884-2.013l4.335-10.754z" fill="#005a93" fill-rule="evenodd"/><path d="M649.036 59.8a4.638 4.638 0 0 0-2.2 2.588 4.561 4.561 0 0 0 2.37 5.549c2.456.978 5.26-.2 6.04-2.185.607-1.5.52-2.674-.26-3.565l4.161-1.783a8.84 8.84 0 0 1 .087 6.93c-1.821 4.457-7.2 6.355-11.646 4.572a8.409 8.409 0 0 1-4.711-11.1c1.012-2.473 2.312-4.256 4.393-5.147l1.763 4.141z" fill="#0078d7" fill-rule="evenodd"/><path fill="#106ebe" fill-rule="evenodd" d="M571.212 98.62h33.147v17.827h-33.147V98.62z"/><path fill-rule="evenodd" d="M571.212 95.055h33.147v3.565h-33.147v-3.565z"/><path d="M587.944 46.461a19.469 19.469 0 0 0-19.622 19.38h39.245a19.469 19.469 0 0 0-19.622-19.38z" fill="#2488d8" fill-rule="evenodd"/><path d="M593.233 58.135a2.7 2.7 0 1 1 2.688 2.588 2.635 2.635 0 0 1-2.688-2.588zM603.174 58.135a2.706 2.706 0 0 1 5.4 0 2.7 2.7 0 0 1-5.4 0z" fill="#ffb900" fill-rule="evenodd"/><path d="M567.8 128.035a4.045 4.045 0 0 1-3.757-3.738V118.4a3.669 3.669 0 0 1 3.757-3.738h39.071a3.669 3.669 0 0 1 3.757 3.738v5.9a4.045 4.045 0 0 1-3.757 3.738z" fill="#69afe5" fill-rule="evenodd"/><path d="M567.773 128.035a4.041 4.041 0 0 1-3.728-3.738V118.4a3.662 3.662 0 0 1 3.728-3.738h23a3.645 3.645 0 0 1 3.727 3.738v5.9a4.016 4.016 0 0 1-3.728 3.738z" fill="#2488d8" fill-rule="evenodd"/><path d="M596.585 49.164l-5.115 3.824a1.284 1.284 0 0 1-1.85-.259 1.322 1.322 0 0 1 .26-1.84l5.12-3.824a1.338 1.338 0 0 1 1.85.259 1.319 1.319 0 0 1-.26 1.84zM609.214 50.889l-5.114-3.824a1.334 1.334 0 0 0-1.849.259 1.319 1.319 0 0 0 .26 1.84l5.115 3.824a1.284 1.284 0 0 0 1.85-.259 1.322 1.322 0 0 0-.26-1.84z" fill="#231f20"/><path d="M616.9 67.077v25.706a2.289 2.289 0 0 1-2.312 2.272h-55.4a2.264 2.264 0 0 1-2.283-2.272V67.049a2.264 2.264 0 0 1 2.283-2.272h55.4a2.3 2.3 0 0 1 2.312 2.3z" fill="#69afe5" fill-rule="evenodd"/><path d="M598.983 67.077v25.706a2.288 2.288 0 0 1-2.312 2.272H559.19a2.264 2.264 0 0 1-2.283-2.272V67.049a2.264 2.264 0 0 1 2.283-2.272h37.482a2.294 2.294 0 0 1 2.312 2.3zM554.739 90.052l-2.37-5.349-17.628 7.764 2.399 5.348 17.599-7.763z" fill="#0078d7" fill-rule="evenodd"/><path fill-rule="evenodd" d="M554.739 90.052l-2.37-5.349-5.808 2.559 2.37 5.349 5.808-2.559z"/><path d="M573.928 68.86l-21.183 8.74a3.484 3.484 0 0 0-1.907 4.572l4.046 9.719a3.5 3.5 0 0 0 4.595 1.9l21.183-8.712a3.47 3.47 0 0 0 1.907-4.572l-4.046-9.719a3.527 3.527 0 0 0-4.595-1.927z" fill="#005a93" fill-rule="evenodd"/><path fill="#0078d7" fill-rule="evenodd" d="M544.625 102.761l-5.462 2.127 5.173 13.055 5.462-2.157-5.173-13.025z"/><path fill-rule="evenodd" d="M544.625 102.761l-5.462 2.127 2.485 6.326 5.462-2.156-2.485-6.297z"/><path d="M534.741 102.674a3.985 3.985 0 0 0 4.855 2.042l5-1.955a3.937 3.937 0 0 0 2.139-4.8L542.457 87.2a3.985 3.985 0 0 0-4.855-2.042l-5 1.955a4 4 0 0 0-2.139 4.8l4.277 10.754z" fill="#005a93" fill-rule="evenodd"/><path d="M553.439 123.492a4.563 4.563 0 0 0-5.751-5.78 4.684 4.684 0 0 0-2.89 5.722c.607 1.5 1.474 2.3 2.688 2.387l-1.792 4.169a8.828 8.828 0 0 1-4.855-5c-1.792-4.457.809-9.489 5.26-11.271a8.516 8.516 0 0 1 11.126 4.831c.983 2.473 1.272 4.658.376 6.757l-4.161-1.811z" fill="#0078d7" fill-rule="evenodd"/><path d="M685.073 174.875l-14.3-59.894a2.5 2.5 0 0 0-2.456-2.013h-1.965a2.576 2.576 0 0 0-2.543 2.818l3.555 59.836c.144 1.5 17.946.4 17.715-.748z" fill="#2cb342"/><path d="M545.665 186.146l-7.283 13.169h17.426l3.728-6.125a3 3 0 0 1 2.485-1.38l47.828-2.157a2.662 2.662 0 0 1 2.63 2.1l1.734 7.562h49.244l-3.41-24.786-114.382 11.617z" fill="#107c10"/><path d="M664.7 170.015s-113.631 6.355-121.116 6.785c-7.514.431-7.167 11.386 1.214 10.955 10-.518 119.9-6.556 119.9-6.556v-11.184z" fill="#b9e6c0"/><path d="M539.134 179.188c-2.2 3.335-.376 8.885 5.664 8.569 10-.518 119.9-6.556 119.9-6.556v-9.029c-9.855.546-98.2 5.492-125.566 7.016z" fill="#2cb342"/><path d="M666.549 120.588l6.56 55.753c5.231-.058 12.109-.748 11.964-1.466L670.8 114.981a2.557 2.557 0 0 0-2.485-2.013h-1.965a2.576 2.576 0 0 0-2.543 2.818l.173 2.559 2.572 2.243z" fill="#107c10"/><path fill="#107c10" d="M680.132 116.189h-10.404v-6.125h10.404v6.125z"/><path d="M671.635 110.035l-17.542 3.537a1.65 1.65 0 0 0-1.04 1.524 1.1 1.1 0 0 0 1.1 1.093h17.484v-6.153z" fill="#107c10"/><path d="M612.306 85.106h-8.236a2.1 2.1 0 0 1-2.11-2.1v-5.434a2.1 2.1 0 0 1 2.11-2.1h8.236a2.08 2.08 0 0 1 2.11 2.1v5.434a2.08 2.08 0 0 1-2.11 2.1z" fill-rule="evenodd"/><path d="M678.976 111.214h-8.063a3.622 3.622 0 0 1-3.526-4.428l7.948-34.186a3.612 3.612 0 0 1 3.526-2.789h8.063a3.6 3.6 0 0 1 3.526 4.4l-7.95 34.214a3.618 3.618 0 0 1-3.526 2.789z" fill="#2cb342"/><path d="M682.5 108.425l7.947-34.217a3.61 3.61 0 0 0-3.526-4.4h-5.4a3.588 3.588 0 0 0-3.526 2.789l-7.947 34.188a3.622 3.622 0 0 0 3.526 4.428h5.4a3.618 3.618 0 0 0 3.526-2.789zM678.571 199.373h15.808s3.786-18.632-9.1-30.278h-21.215a1.039 1.039 0 0 0-.925 1.524l15.548 28.754" fill="#107c10"/><path d="M670.653 169.1h-7.687a.846.846 0 0 0-.78.546l-9.479 29.731h27.078s3.757-18.632-9.132-30.278z" fill="#2cb342"/></g><path fill="#f3d5d4" d="M37 410.861h324.779V249.372H37v161.489z"/><path d="M335.011 399.133H51.339a3.8 3.8 0 0 1-3.82-3.3 3.663 3.663 0 0 1 3.654-3.992h283.672a3.781 3.781 0 0 1 3.82 3.3 3.663 3.663 0 0 1-3.654 3.992z" fill="#c3a7a8"/><path d="M226.42 399.9l26.74-26.594a10.466 10.466 0 0 1 14.7 0l26.71 26.594z" fill="#ee4d5a"/><path fill="#505050" d="M157.882 354.7h2.934l5.315 10.296h.028v20.923h-14.754v-21.336l6.477-9.883z"/><path fill="#0078d7" fill-rule="evenodd" d="M172.414 311.066l4.651 3.331-10.934 15.169-4.651-3.304 10.934-15.196z"/><path fill-rule="evenodd" d="M172.414 311.066l4.651 3.331-3.599 4.983-4.65-3.304 3.598-5.01z"/><path fill="#0078d7" fill-rule="evenodd" d="M197.604 327.969h32.054v17.179h-32.054v-17.179z"/><path fill-rule="evenodd" d="M197.548 323.867h32.11v4.047h-32.11v-4.047z"/><path d="M213.963 276.379a18.962 18.962 0 0 0-19.1 18.913h38.227a18.968 18.968 0 0 0-19.127-18.913z" fill="#2488d8" fill-rule="evenodd"/><path d="M209.756 288.051a2.633 2.633 0 0 1 5.259 0 2.633 2.633 0 0 1-5.259 0zM222.461 288.051a2.647 2.647 0 1 1 2.63 2.505 2.583 2.583 0 0 1-2.63-2.505z" fill="#ffb900" fill-rule="evenodd"/><path fill="#0078d7" fill-rule="evenodd" d="M198.268 355.802h5.924v36.724h-5.924v-36.724z"/><path fill-rule="evenodd" d="M198.268 355.691h5.924v6.718h-5.924v-6.718z"/><path fill="#0078d7" fill-rule="evenodd" d="M224.482 355.802h5.896v36.724h-5.896v-36.724z"/><path fill-rule="evenodd" d="M224.482 355.691h5.896v6.718h-5.896v-6.718z"/><path d="M211.555 396.655a7.354 7.354 0 0 0-7.031-6.139h-4.9c-3.792 0-6.81 3.083-6.81 6.139z" fill="#0078d7" fill-rule="evenodd"/><path fill-rule="evenodd" d="M192.732 396.545h18.823v3.304h-18.823v-3.304z"/><path d="M237.049 396.655c0-3.056-3.239-6.139-7-6.139H225.2a7.372 7.372 0 0 0-7 6.139z" fill="#0078d7" fill-rule="evenodd"/><path fill-rule="evenodd" d="M218.198 396.545h18.823v3.304h-18.823v-3.304z"/><path fill="#0078d7" fill-rule="evenodd" d="M164.719 339.201l5.453-1.762 4.208 12.994-5.426 1.762-4.235-12.994z"/><path fill-rule="evenodd" d="M164.719 339.201l5.453-1.762 2.021 6.277-5.426 1.762-2.048-6.277z"/><path d="M172.11 333.062a3.848 3.848 0 0 1-2.408 4.515l-4.983 1.624a3.909 3.909 0 0 1-4.6-2.285l-3.488-10.737a3.9 3.9 0 0 1 2.381-4.542l4.982-1.6a3.959 3.959 0 0 1 4.623 2.285l3.488 10.737z" fill="#2488d8" fill-rule="evenodd"/><path d="M170.947 359.27a4.432 4.432 0 0 1 .72-7.9 4.589 4.589 0 0 1 5.73 2.533 3.091 3.091 0 0 1-.526 3.441l3.958 2.01a8.579 8.579 0 0 0 .526-6.717c-1.439-4.46-6.533-6.662-10.989-5.231a8.211 8.211 0 0 0-5.342 10.489 7.813 7.813 0 0 0 4.041 5.038l1.882-3.661zM251.997 314.948l-5.647.908 3.072 18.417 5.647-.908-3.072-18.417z" fill="#0078d7" fill-rule="evenodd"/><path fill-rule="evenodd" d="M251.997 314.948l-5.647.908 1.024 6.057 5.647-.909-1.024-6.056z"/><path d="M226.807 312.608l21.868 4.432a3.438 3.438 0 0 0 4.069-2.67l2.048-10.048a3.392 3.392 0 0 0-2.685-4.019l-21.868-4.46a3.48 3.48 0 0 0-4.069 2.67l-2.048 10.048a3.42 3.42 0 0 0 2.685 4.047z" fill="#2488d8" fill-rule="evenodd"/><path d="M222.378 283.867l6.09 1.266a1.28 1.28 0 1 0 .526-2.505l-6.09-1.266a1.28 1.28 0 1 0-.526 2.505zM208.732 283.013l6.2-.578a1.291 1.291 0 0 1 1.384 1.156 1.26 1.26 0 0 1-1.163 1.4l-6.2.578a1.253 1.253 0 0 1-1.384-1.156 1.291 1.291 0 0 1 1.163-1.4z" fill="#231f20"/><path d="M242.557 296.751v24.887a2.227 2.227 0 0 1-2.242 2.23h-54.559a2.227 2.227 0 0 1-2.242-2.23v-24.915a2.221 2.221 0 0 1 2.242-2.2h54.559a2.227 2.227 0 0 1 2.242 2.23z" fill="#2488d8" fill-rule="evenodd"/><path d="M242.945 296.751v24.887a2.244 2.244 0 0 1-2.242 2.23H195a2.251 2.251 0 0 1-2.27-2.23v-24.915a2.239 2.239 0 0 1 2.242-2.2H240.7a2.244 2.244 0 0 1 2.242 2.23z" fill="#69afe5" fill-rule="evenodd"/><path fill="#0078d7" fill-rule="evenodd" d="M261.325 328.134l2.048 5.314 12.844-4.873-2.048-5.341-12.844 4.9z"/><path fill-rule="evenodd" d="M261.325 328.134l2.048 5.314 6.201-2.368-2.049-5.313-6.2 2.367z"/><path d="M261.159 337.715a3.9 3.9 0 0 0 2.048-4.708l-1.855-4.873a3.93 3.93 0 0 0-4.706-2.12l-10.574 4.019a3.9 3.9 0 0 0-2.048 4.708l1.882 4.873a3.926 3.926 0 0 0 4.678 2.12l10.574-4.019z" fill="#2488d8" fill-rule="evenodd"/><path d="M281.726 319.82a4.431 4.431 0 0 0-5.7 5.506c.913 2.4 3.626 3.606 5.564 2.836 1.467-.551 2.27-1.4 2.381-2.56l4.041 1.789a8.713 8.713 0 0 1-4.927 4.652c-4.4 1.679-9.3-.881-10.989-5.231a8.184 8.184 0 0 1 4.844-10.709c2.464-.936 4.6-1.211 6.616-.3l-1.827 4.019z" fill="#0078d7" fill-rule="evenodd"/><path fill="#939598" fill-rule="evenodd" d="M281.698 306.634h-4.429v49.168h4.429v-49.168z"/><path d="M281.587 328.189a4.553 4.553 0 0 1-5.176-2.065v5.476a8.15 8.15 0 0 0 6.671.44 8.713 8.713 0 0 0 4.927-4.652l-4.041-1.789c-.111 1.156-.913 2.01-2.381 2.588z" fill="#0078d7" fill-rule="evenodd"/><path d="M232.98 309c0 3.331-2.214 5.7-5.287 5.7h-17.6c-3.1 0-5.287-2.368-5.287-5.7a5.557 5.557 0 0 1 5.287-5.671h17.6A5.577 5.577 0 0 1 232.98 309z" fill-rule="evenodd"/><path d="M194.836 283.7l37.037-6-.388-2.368-6.56-2.588s-2.325-14.26-19.044-11.562c-14.339 2.312-11.045 22.519-11.045 22.519z" fill="#ffb900"/><path d="M205.88 261.182c16.719-2.7 19.044 11.562 19.044 11.562l6.56 2.588.388 2.368-37.037 6s-.138-.936-.249-2.4l22.56-3.661-.969-5.946a12.339 12.339 0 0 0-10.3-10.516z" fill="#f08400"/><path fill="#939598" d="M153.287 364.996l6.616-10.296h1.771l6.616 10.296h-.277v20.923h-14.754v-20.923h.028z"/><path d="M159.875 359.848h26.961v-3.3h-26.961c-1.218 0-1.107 3.3 0 3.3z" fill="#505050"/><path fill="#505050" d="M179.002 364.996l6.616-10.296h2.242l6.616 10.296h-.249v20.923h-14.782V365.96l-.443-.964z"/><path fill="#939598" d="M181.328 364.611l6.366-9.911h1.633l6.727 9.856v21.363H181.3v-21.308h.028z"/><path d="M189.106 315.581l-13.315 2.619a3.444 3.444 0 0 1-3.986-2.753l-1.855-10.076a3.416 3.416 0 0 1 2.74-3.992l12.927-2.23a3.458 3.458 0 0 1 4.014 2.753l1.855 10.076a2.829 2.829 0 0 1-2.381 3.606z" fill="#0078d7" fill-rule="evenodd"/><path d="M291.22 373.613v10.9a16.822 16.822 0 0 1-11.93 16.6 16.811 16.811 0 0 1-11.9-16.6v-10.9z" fill="#282828" fill-rule="evenodd"/><path d="M273.394 294.328a1.46 1.46 0 0 1 1.079-.523c1.356-.055 8.3-.055 9.633 0a1.46 1.46 0 0 1 1.08.523c.249.358.664 1.542-.941 4.46-2.3 4.24-3.322 4.432-4.955 4.46-1.605-.028-2.713-.3-4.955-4.46-1.578-2.946-1.19-4.1-.941-4.46zm-2.242 4.928c2.131 3.606 3.433 5.368 5.37 6.112v6.58a.66.66 0 0 0 .72.551h4.484a.631.631 0 0 0 .692-.551v-6.718c1.772-.826 3.045-2.588 5.038-5.974 1.744-2.918 2.021-5.176.886-6.717a4.777 4.777 0 0 0-3.626-1.734c-1.91-.083-8.913-.083-10.8 0a4.791 4.791 0 0 0-3.654 1.734c-1.135 1.542-.83 3.8.886 6.717z" fill="#6d6e71"/><path fill="#e81123" d="M329.143 360.674h2.602l11.736 37.606H317.406l11.737-37.606z"/><path fill="#ee4d5a" d="M326.015 370.502l3.1-9.91h2.658l3.1 9.91h-8.858zM338.942 383.717l4.567 14.673h-26.158l4.595-14.673h16.996z"/><path fill="#6d6e71" d="M314.168 396.545h32.109v3.304h-32.109v-3.304z"/><path d="M267.3 373.806v-4.047h6.034a2.85 2.85 0 0 0 3.183-3.193v-11.48h5.9v11.48a2.871 2.871 0 0 0 3.211 3.193h5.647v4.047z" fill="#505050" fill-rule="evenodd"/><path fill="#505050" d="M151.571 364.749h29.591v21.528h-29.591v-21.528z"/><path d="M89.926 395.086V335.65c0-1.872.72-2.56 2.574-2.56h11.1a3.381 3.381 0 0 1 3.377 3.359v58.638z" fill="#e81123"/><path d="M94.936 395.086v-59.464a2.562 2.562 0 0 1 2.574-2.56h39.89a2.562 2.562 0 0 1 2.574 2.56v59.464z" fill="#ee4d5a"/><path fill="#bcbec0" d="M94.936 359.105h45.036v-1.459H94.936v1.459zM94.936 370.502h45.036v-1.486H94.936v1.486z"/><path fill="#414042" d="M117.828 361.693h17.328v-2.588h-17.328v2.588z"/><path fill="#bcbec0" d="M94.936 347.735h45.036v-1.459H94.936v1.459z"/><path fill="#414042" d="M117.883 350.241h17.245v-2.451h-17.245v2.451zM117.828 373.063h17.328v-2.561h-17.328v2.561z"/><path fill="#bcbec0" d="M94.936 381.872h45.036v-1.459H94.936v1.459z"/><path fill="#414042" d="M117.828 384.432h17.328v-2.56h-17.328v2.56z"/><path d="M99.531 338.678a1.772 1.772 0 1 0 1.772-1.789 1.761 1.761 0 0 0-1.772 1.789z" fill="#bcbec0"/><path fill="#414042" d="M86.438 399.849h57.576v-4.763H86.438v4.763z"/><path fill="#737373" d="M92.362 399.849h51.652v-4.763H92.362v4.763z"/><path fill="#e81123" d="M259.249 377.825h1.633v-1.624h-1.633v1.624zM247.734 384.377h1.633v-1.652h-1.633v1.652zM255.955 392.554h1.633v-1.652h-1.633v1.652zM251.028 394.178h1.633v-1.624h-1.633v1.624zM261.712 387.653h1.634v-1.652h-1.634v1.652z"/><path fill="#fff" d="M255.955 384.377h1.633v-1.652h-1.633v1.652zM254.294 380.275h1.661v-1.624h-1.661v1.624zM264.176 395.004h1.633v-1.652h-1.633v1.652zM245.27 391.728h1.633v-1.625h-1.633v1.625z"/><path d="M210.254 312.635a.49.49 0 0 0 .5-.468V306a.5.5 0 0 0-1 0v6.167a.49.49 0 0 0 .5.468zM213.714 312.635a.49.49 0 0 0 .5-.468V306a.5.5 0 0 0-1 0v6.167a.49.49 0 0 0 .5.468zM217.174 312.635a.49.49 0 0 0 .5-.468V306a.5.5 0 0 0-1 0v6.167a.49.49 0 0 0 .5.468zM220.662 312.635a.49.49 0 0 0 .5-.468V306a.5.5 0 0 0-1 0v6.167a.49.49 0 0 0 .5.468zM224.122 312.635a.49.49 0 0 0 .5-.468V306a.5.5 0 0 0-1 0v6.167a.49.49 0 0 0 .5.468zM227.582 312.635a.49.49 0 0 0 .5-.468V306a.5.5 0 0 0-1 0v6.167a.49.49 0 0 0 .5.468z" fill="#ffb900"/><path d="M194.891 355.8a3.913 3.913 0 0 1-3.626-3.689V346.3a3.586 3.586 0 0 1 3.626-3.716h37.784a3.586 3.586 0 0 1 3.625 3.716v5.809a3.913 3.913 0 0 1-3.626 3.689z" fill="#69afe5" fill-rule="evenodd"/><path d="M176.207 359.848h-2.63a8.225 8.225 0 0 1-1.135-.055 4.142 4.142 0 0 1-1.744-.688v.028a4.823 4.823 0 0 1-1.716-2.533 3.971 3.971 0 0 1-.083-1.9h-4.29a9.147 9.147 0 0 0 .415 3.193 8.2 8.2 0 0 0 3.958 5.2v-.028a8.434 8.434 0 0 0 3.017.964c2.6.3 4.733.028 6.477-1.321l-2.27-2.863z" fill="#0078d7" fill-rule="evenodd"/><path fill="none" d="M37 249.372v161.709h325V249.372"/></svg>