<svg xmlns="http://www.w3.org/2000/svg" viewBox="0 0 800 600"><defs><clipPath id="a"><path d="M453.345 222.9h20.525a5.315 5.315 0 0 1 5.36 5.351v16.955h-31.246v-16.955a5.118 5.118 0 0 1 5.361-5.351z" fill="none"/></clipPath><clipPath id="b"><path fill="none" d="M341.591 168.597h154.372v76.299H341.591z"/></clipPath><clipPath id="c"><path d="M372.523 222.9h20.529a5.3 5.3 0 0 1 5.36 5.351v16.955h-31.244v-16.955a5.119 5.119 0 0 1 5.355-5.351z" fill="none"/></clipPath><clipPath id="d"><path fill="none" d="M335.051 64.129h113.851v50.6H335.051z"/></clipPath><clipPath id="e"><path d="M382.152 84.008a1.9 1.9 0 0 1-1.923-1.892v-8.867a1.912 1.912 0 0 1 1.923-1.891H397.9a4.426 4.426 0 0 1 2.981 1.475l8.1 9.7c.635.85.211 1.475-.635 1.475z" fill="none"/></clipPath><clipPath id="f"><path d="M378.423 82.116a1.9 1.9 0 0 1-1.923 1.892h-23.635a1.093 1.093 0 0 1-1.061-1.684l6.172-9.491a4.028 4.028 0 0 1 2.774-1.475h15.75a1.912 1.912 0 0 1 1.923 1.891z" fill="none"/></clipPath></defs><title>elements-vehicles-1</title><path d="M800 600H0V0h800z" fill="#fff"/><path d="M98.957 54.569L93.7 41.347c-.641-1.483-1.539-2.709-2.693-2.709-1.667 0-3.014 2.322-3.014 5.224 0 2.838 1.346 5.224 3.014 5.224a2.839 2.839 0 0 0 2.308-1.87l3.27 7.933 2.372-.58z" fill="#fff"/><path d="M133.58 105.327a12.76 12.76 0 1 1-12.759-12.835 12.845 12.845 0 0 1 12.759 12.835z" fill="#212121"/><path d="M129.028 105.327a8.207 8.207 0 1 1-8.207-8.255 8.247 8.247 0 0 1 8.207 8.255z" fill="#fff"/><path d="M124.476 105.327a3.679 3.679 0 0 1-3.655 3.741 3.709 3.709 0 1 1 0-7.417 3.664 3.664 0 0 1 3.655 3.676z" fill="#6eace8"/><path d="M113.7 82.624c13.721.258 18.017 8.062 19.3 11.932a1.108 1.108 0 0 1-1.411 1.419c-4.3-1.354-14.811-3.418-21.864 5.547-1.539 1.935-4.616 2.128-6.54 2a1.107 1.107 0 0 1-.834-1.677L112.678 83.2a1.213 1.213 0 0 1 1.026-.58z" fill="#adc909"/><path d="M95.751 101.65c4.1 0 9.874-6.643 9.041-20.638A36.657 36.657 0 0 0 95.751 58.7h7.374s10.708 19.8 10.708 26.443c0 6.579-11.477 20.638-11.477 20.638h-38.6l-2.436-4.131z" fill="#6eace8"/><path d="M71.963 85.14c7.374-1.677 13.144-13.222 0-13.222s-18.081 0-23.018-1.677c-4.873-1.612-10 1.677-6.6 12.835 3.334 11.093 29.622 2.064 29.622 2.064zM65.423 105.327a12.76 12.76 0 1 1-12.759-12.835 12.845 12.845 0 0 1 12.759 12.835z" fill="#212121"/><path d="M60.871 105.327a8.207 8.207 0 1 1-8.207-8.255 8.206 8.206 0 0 1 8.207 8.255z" fill="#fff"/><path d="M56.383 105.327a3.719 3.719 0 1 1-3.719-3.676 3.733 3.733 0 0 1 3.719 3.676z" fill="#6eace8"/><path d="M28.812 101.65h53.667a1.016 1.016 0 0 0 1.026-1.032c.128-4.321-.9-21.283-23.852-21.283-24.621 0-30.52 14.511-31.8 21.09a1.027 1.027 0 0 0 .962 1.225z" fill="#adc909"/><path d="M97.482 60.373h5.642a1.717 1.717 0 0 0 1.667-1.741v-4.837a1.66 1.66 0 0 0-1.667-1.677h-5.642a1.675 1.675 0 0 0-1.731 1.677v4.837a1.729 1.729 0 0 0 1.731 1.741z" fill="#91a80a"/><path d="M99.854 56.246a3.271 3.271 0 1 1-3.27-3.354 3.293 3.293 0 0 1 3.27 3.354z"/><path d="M89.211 59.535a1.67 1.67 0 0 1-.385-3.289l7.374-1.613a1.639 1.639 0 0 1 1.988 1.225 1.68 1.68 0 0 1-1.218 2L89.6 59.47a.809.809 0 0 1-.385.065z" fill="#6eace8"/><path d="M112.165 56.246c0 2.257-1.475 4.128-3.27 4.128s-3.27-1.87-3.27-4.128c0-2.322 1.475-4.128 3.27-4.128s3.27 1.806 3.27 4.128z" fill="#fff"/><path d="M108.9 60.373v-8.255c-4.1 0-7.374 1.806-7.374 4.128 0 2.257 3.27 4.128 7.374 4.128z" fill="#6eace8"/><path d="M36.827 84.3c0 1.87-1.218 3.354-2.629 3.354-1.475 0-2.693-1.483-2.693-3.354 0-1.806 1.218-3.289 2.693-3.289 1.411 0 2.629 1.483 2.629 3.289z" fill="#d91021"/><path d="M34.2 81.012v6.578c4.1 0 7.374-1.483 7.374-3.289S38.3 81.012 34.2 81.012z" fill="#6eace8"/><path d="M553.142 523.6h-3.2v.506c-4.15 1.373-7.063 5.566-7.063 10.7 0 4.988 2.912 9.325 7.063 10.77v.506h2.985c5.388 0 9.83-5.2 9.83-11.2 0-6.289-4.3-11.132-9.611-11.276z" fill="#282828"/><path d="M539.89 534.808c0 6.072 4.441 11.276 10.121 11.276 5.388 0 9.83-5.2 9.83-11.276 0-6.289-4.441-11.2-9.83-11.2-5.679 0-10.121 4.915-10.121 11.2z" fill="#383838"/><path d="M468.681 523.6h-3.2v.506c-4.15 1.373-7.063 5.566-7.063 10.7 0 4.988 2.912 9.325 7.063 10.77v.506h2.985c5.388 0 9.83-5.2 9.83-11.2 0-6.289-4.3-11.132-9.611-11.276z" fill="#282828"/><path d="M455.429 534.808c0 6.072 4.441 11.276 10.121 11.276 5.388 0 9.83-5.2 9.83-11.276 0-6.289-4.441-11.2-9.83-11.2-5.679 0-10.121 4.915-10.121 11.2z" fill="#383838"/><path d="M498.1 486.09c19.659 0 25.775 1.735 28.906 5.349 3.131 3.542 11.577 14.746 11.577 14.746s24.1 2.313 28.4 6c1.82 1.59 1.383 4.12 1.383 8.963v11.565c0 3.47-1.019 4.192-3.277 4.192h-28.548L498.1 486.09z" fill="#235a89"/><path d="M473.996 520.424v13.228h54.099v-13.228h27.595l-.509 16.48-5.898-.072-4.879 3.614h-98.732v-20.022h28.324z"/><path d="M461.836 524.616v-.072h-3.2v.506c-4.15 1.373-7.063 5.638-7.063 10.77 0 4.915 2.912 9.252 7.063 10.7v.578h3.058c5.388 0 9.83-5.277 9.83-11.276 0-6.216-4.369-11.132-9.684-11.2zM545.788 524.616v-.072h-3.277v.506c-4.077 1.373-7.063 5.638-7.063 10.77a11.291 11.291 0 0 0 7.063 10.7v.578h3.058c5.388 0 9.83-5.277 9.83-11.276 0-6.216-4.369-11.132-9.611-11.2z" fill="#282828"/><path d="M455.283 491.438s-9.1 13.083-10.558 16.408v2.168h5.9l9.1-16.408-4.442-2.168z" fill="#fff"/><path d="M490.451 510.015a2.351 2.351 0 0 1-2.184-2.458v-11.492a2.351 2.351 0 0 1 2.184-2.458h18.2a5 5 0 0 1 3.495 1.879l9.32 12.65c.728 1.084.218 1.879-.728 1.879z" fill="#969696"/><path d="M527.075 491.438c-3.349-3.759-9.611-5.349-28.979-5.349l4.077 5.349z" fill="#107c10"/><path d="M517.537 491.438h-62.254s3.495-5.421 30.8-5.421c23.372 0 27.741 1.012 31.454 5.421z" fill="#65aa0d"/><path d="M560.933 522.159c1.238 0 2.184-2.1 2.184-4.7s-.947-4.771-2.184-4.771-2.184 2.169-2.184 4.771.947 4.7 2.184 4.7z" fill="#969696"/><path d="M561.952 520.93c.8 0 1.456-1.59 1.456-3.47 0-1.952-.655-3.47-1.456-3.47-.874 0-1.529 1.518-1.529 3.47 0 1.879.655 3.47 1.529 3.47z" fill="#fff"/><path d="M560.35 529.748c.947 0 1.675-1.012 1.675-2.313s-.728-2.385-1.675-2.385c-.874 0-1.6 1.084-1.6 2.385s.728 2.313 1.6 2.313z" fill="#969696"/><path d="M561.078 529.17c.655 0 1.165-.8 1.165-1.735 0-1.012-.51-1.735-1.165-1.735-.583 0-1.092.723-1.092 1.735 0 .94.51 1.735 1.092 1.735z" fill="#ff8c00"/><path d="M567.049 529.748c.874 0 1.6-1.012 1.6-2.313s-.728-2.385-1.6-2.385c-.947 0-1.675 1.084-1.675 2.385s.728 2.313 1.675 2.313z" fill="#969696"/><path d="M567.777 529.17c.582 0 1.092-.8 1.092-1.735 0-1.012-.51-1.735-1.092-1.735-.655 0-1.165.723-1.165 1.735 0 .94.51 1.735 1.165 1.735z" fill="#ff8c00"/><path d="M567.194 522.159c1.238 0 2.257-2.1 2.257-4.7s-1.019-4.771-2.257-4.771c-1.165 0-2.184 2.169-2.184 4.771s1.019 4.7 2.184 4.7z" fill="#969696"/><path d="M568.214 520.93c.8 0 1.456-1.59 1.456-3.47 0-1.952-.655-3.47-1.456-3.47s-1.456 1.518-1.456 3.47c0 1.879.655 3.47 1.456 3.47z" fill="#fff"/><path d="M448.658 535.82c0 6 4.442 11.2 10.121 11.2 5.388 0 9.83-5.2 9.83-11.2 0-6.361-4.441-11.276-9.83-11.276-5.679 0-10.121 4.915-10.121 11.276z" fill="#383838"/><path d="M452.371 535.82c0 3.831 2.694 7.084 6.407 7.084 3.422 0 6.407-3.253 6.407-7.084s-2.985-7.156-6.407-7.156c-3.713 0-6.407 3.325-6.407 7.156z" fill="#ccc"/><path d="M457.031 535.82a1.752 1.752 0 0 0 1.748 1.662 1.718 1.718 0 0 0 1.456-1.662 1.634 1.634 0 1 0-3.2 0z" fill="#737373"/><path d="M532.536 535.82c0 6 4.441 11.2 10.121 11.2 5.388 0 9.83-5.2 9.83-11.2 0-6.361-4.441-11.276-9.83-11.276-5.679 0-10.121 4.915-10.121 11.276z" fill="#383838"/><path d="M536.25 535.82c0 3.831 2.694 7.084 6.335 7.084 3.495 0 6.407-3.253 6.407-7.084s-2.912-7.156-6.407-7.156c-3.641 0-6.335 3.325-6.335 7.156z" fill="#ccc"/><path d="M540.91 535.82a1.737 1.737 0 0 0 1.675 1.662 1.719 1.719 0 0 0 1.529-1.662 1.633 1.633 0 1 0-3.2 0z" fill="#737373"/><path d="M448.876 500.98a69.206 69.206 0 0 0-4.15 6.867v2.168h5.9c2.112-3.831 3.786-6.795 5.024-9.035z" fill="#b3d6f2"/><path d="M557.146 536.9a4.453 4.453 0 0 0 1.456-3.253v-19.223c0-6.361-29.78-8.24-29.78-8.24s-3.859-.8-4.878-1.879c-.947-1.373-5.17-7.156-7.136-9.325a2.126 2.126 0 0 1 .51-3.542h-62.035c1.747.506 2.257 2.458 1.456 3.253-.728 1.084-6.335 9.614-7.354 11.493a2.64 2.64 0 0 1-2.694 1.662h-1.966c-4.66 4.12-5.679 8.529-5.679 10.987v7.084c0 3.036.728 11.565 5.461 11.565 0 2.168 1.675 1.879 1.675 1.879v-3.253c0-7.734 5.679-14.023 12.6-14.023 5.388 0 10.339 4.12 11.8 9.9l.437 1.373c.51 1.662 1.019 2.168 2.767 2.168h53.371c2.912 0 3.422-2.168 3.422-2.168l.51-1.373c1.456-5.783 6.116-9.9 11.8-9.9 5.17 0 9.247 3.47 11.286 8.24a14.909 14.909 0 0 1 .8 6.578z" fill="#69afe5"/><path d="M486.083 507.558a2.359 2.359 0 0 1-2.257 2.458h-27.3c-1.238 0-1.675-1.084-1.238-2.168l7.136-12.36a3.771 3.771 0 0 1 3.2-1.879h18.2a2.359 2.359 0 0 1 2.257 2.458v11.493z" fill="#fff"/><path d="M572 531.7a1.262 1.262 0 0 1-1.238 1.373h-13.616a1.381 1.381 0 0 1 0-2.747h13.616A1.262 1.262 0 0 1 572 531.7z" fill="#b2b2b2"/><path d="M438.828 519.34h2.694v8.529h-2.694a1.1 1.1 0 0 1-.947-1.084v-6.361a1.1 1.1 0 0 1 .947-1.084z" fill="#dc3c00"/><path d="M492.708 519.629a2.359 2.359 0 0 1-2.257-2.458h4.442a2.3 2.3 0 0 1-2.184 2.458z" fill="#235a89"/><path d="M489.5 517.171a1.152 1.152 0 0 0 .728.8h4.878a.852.852 0 0 0 .8-.8v-.289a.852.852 0 0 0-.8-.8h-4.878a1.152 1.152 0 0 0-.728.8v.289z" fill="#d2d2d2"/><path d="M490.451 510.015a2.351 2.351 0 0 1-2.184-2.458v-11.492a2.351 2.351 0 0 1 2.184-2.458h18.2a3.445 3.445 0 0 1 3.495 1.879l9.32 12.65c.728 1.084.218 1.879-.728 1.879z" fill="#fff"/><path d="M540.181 517.749a.545.545 0 0 0 .51.506h2.909a.545.545 0 0 0 .51-.506v-.867c0-.506-.218-.8-.51-.8h-2.912c-.291 0-.51.289-.51.8v.867z" fill="#ff8c00"/><path d="M522.415 533.29h-34.148a1.408 1.408 0 0 1-1.529-1.3v-21.4a.545.545 0 0 1 .51-.506.561.561 0 0 1 .583.506v21.4c0 .289.437.289.437.289h34.149c.218 0 .291 0 .291-.289v-21.4a.51.51 0 0 1 1.019 0v21.4a1.219 1.219 0 0 1-1.311 1.3z" fill="#2488d8"/><path d="M515.935 494.33c.8 1.3 5.971 8.529 7.208 10.12 1.238 1.662 1.893 1.735 3.713 1.735h11.724s-8.446-11.2-11.577-14.746h-9.465c-2.548 0-2.4 1.518-1.6 2.891z" fill="#fff"/><path d="M516.081 491.728c-.947.506-.728 1.59-.146 2.6.8 1.3 5.971 8.529 7.208 10.12 1.165 1.662 1.893 1.735 3.713 1.735h11.724s-2.039-2.674-4.514-5.855l-17.984-8.6zM459.288 500.98c-1.019 1.662-2.257 3.9-4 6.867-.437 1.084 0 2.168 1.238 2.168h27.3a2.359 2.359 0 0 0 2.257-2.458v-6.577zM516.154 500.98h-27.887v6.578a2.351 2.351 0 0 0 2.184 2.458h30.29c.947 0 1.456-.8.728-1.879l-5.315-7.156z" fill="#b3d6f2"/><path d="M518.265 506.762a2.9 2.9 0 0 1 0 5.783h-1.456v-5.783z" fill="#65aa0d"/><path d="M664.993 533.59c0-6.975-4.681-12.618-10.453-12.618h-4.1v25.237h4.3c5.707-.127 10.26-5.707 10.26-12.618z" fill="#282828"/><path d="M650.436 546.209c5.771 0 10.517-5.643 10.517-12.618s-4.745-12.618-10.517-12.618-10.453 5.643-10.453 12.618 4.681 12.618 10.453 12.618z" fill="#383838"/><path d="M757.013 533.59c0-6.975-4.745-12.618-10.517-12.618h-4.04v25.237h4.3c5.643-.127 10.26-5.707 10.26-12.618z" fill="#282828"/><path d="M742.457 546.209c5.771 0 10.452-5.643 10.452-12.618s-4.681-12.618-10.452-12.618c-5.835 0-10.517 5.643-10.517 12.618s4.681 12.618 10.517 12.618z" fill="#383838"/><path fill="#010101" d="M748.485 515.709H628.377v19.403h120.108v-19.403z"/><path d="M748.228 534.478c0-6.975-4.681-12.618-10.517-12.618h-4.04v25.24h4.3c5.707-.127 10.26-5.707 10.26-12.618z" fill="#282828"/><path d="M733.672 547.1c5.771 0 10.453-5.643 10.453-12.618s-4.681-12.618-10.453-12.618-10.517 5.643-10.517 12.618S727.9 547.1 733.672 547.1z" fill="#383838"/><path d="M733.672 543.228c3.976 0 7.246-3.931 7.246-8.75s-3.27-8.75-7.246-8.75c-4.04 0-7.246 3.931-7.246 8.75s3.206 8.75 7.246 8.75z" fill="#fff"/><path d="M733.672 536.7a2.254 2.254 0 1 0-1.86-2.219 2.078 2.078 0 0 0 1.86 2.219z" fill="#464646"/><path fill="#939393" d="M735.66 531.371l-1.988-.634.833-3.868 1.988.634-.833 3.868zM732.133 531.117l-1.411 1.903-2.437-2.727 1.347-1.839 2.501 2.663zM730.658 535.809l1.346 1.903-2.501 2.6-1.346-1.903 2.501-2.6zM733.864 538.156l1.924-.951 1.282 3.677-1.923.951-1.283-3.677zM739.956 532.829h-3.27v2.473h3.27v-2.473z"/><path d="M757.27 535.239h3.591c2.309 0 1.924-2.029 1.924-7.229v-15.155c0-4.946-1.026-10.589-4.425-13.76-3.335-3.17-29.177-26.315-36.231-27.9-4.938-1.015-15.005-.888-25.073-.761l60.214 64.8z" fill="#235a89"/><path d="M732.966 477.727H718.73v21.242h39.5c-2.693-2.536-15.262-13.823-25.266-21.242z" fill="#2488d8"/><path d="M746.5 499.856c7.823 0 10.645 3.995 2.5 4.946-8.08.888-2.5-4.946-2.5-4.946z" fill="#fff"/><path d="M751.627 528.01v-15.155c0-4.946-1.026-10.589-4.425-13.76-3.335-3.17-29.177-26.315-36.231-27.9-7.118-1.522-64.318-1.458-71.628-.761-7.246.634-9.042 5.136-13.274 12.618-4.232 7.419-5.451 12.428-5.451 16.233v26.949c0 8.116 4.232 9 4.232 9h4.75v-2.727c0-8.37 5.322-15.091 11.863-15.091h2.565c6.541 0 11.8 6.721 11.8 15.091v2.727h65.216v-2.727c0-8.37 5.258-15.091 11.8-15.091h2.556c6.541 0 11.8 6.721 11.8 15.091v1.2h.064v1.522h2.436c2.309 0 1.924-2.029 1.924-7.229z" fill="#69afe5"/><path d="M759.322 500.11c-3.783 1.141-2.309 3.424 2.18 4.122a12.712 12.712 0 0 0-2.18-4.122z" fill="#fff"/><path fill="#a3111e" d="M636.072 502.71h-15.454v4.502h15.454v-4.502z"/><path fill="#ff8c00" d="M636.008 502.71h-6.028v4.502h6.028v-4.502z"/><path d="M742.393 499.1c-2.437-2.283-13.915-11.414-24.688-21.432h-88.558c-.962 1.585-1.924 3.361-3.078 5.39-3.206 5.643-4.681 9.892-5.258 13.253 0 0 121.647 2.853 121.582 2.79z" fill="#a6a6a6"/><path d="M718.474 477.663h-89.327c-.962 1.585-1.924 3.361-3.078 5.39-3.206 5.643-4.681 9.892-5.258 13.253l121.326 2.79c.705 0 1.026-1.141.449-1.649-6.861-6.4-18.661-15.218-23.214-19.4a1.273 1.273 0 0 0-.9-.38z" fill="#4d4d4d"/><path d="M638.958 491.233l4.681-9.828c.128-.19.321-.38.513-.38h11.03c.385 0 .641.38.641.824v10.081c0 .444-.257.824-.641.824l-15.711-.317c-.449 0-.705-.7-.513-1.2zM660.055 491.8l-.192-9.955a.7.7 0 0 1 .577-.824h30.652a.784.784 0 0 1 .641.824l.192 10.78c0 .444-.257.824-.641.761l-30.652-.761a.787.787 0 0 1-.577-.824zM696.607 481.024h20.328a.528.528 0 0 1 .385.254l10.453 11.731c.449.507.128 1.4-.449 1.4l-30.652-.761a.787.787 0 0 1-.577-.824c0-1.839-.064-6.721-.128-10.97a.784.784 0 0 1 .641-.824z" fill="#fff"/><path d="M759.771 514.314h-5a2 2 0 0 1-1.988-2.029v-.761a1.987 1.987 0 0 1 1.988-1.966h5a1.987 1.987 0 0 1 1.988 1.966v.761a2 2 0 0 1-1.988 2.029z" fill="#65aa0d"/><path d="M657.041 534.478c0-6.975-4.681-12.618-10.453-12.618h-4.1v25.24h4.3c5.707-.127 10.26-5.707 10.26-12.618z" fill="#282828"/><path d="M642.485 547.1c5.835 0 10.517-5.643 10.517-12.618s-4.681-12.618-10.517-12.618c-5.771 0-10.453 5.643-10.453 12.618s4.681 12.618 10.453 12.618z" fill="#383838"/><path d="M642.485 543.228c4.04 0 7.246-3.931 7.246-8.75s-3.206-8.75-7.246-8.75c-3.976 0-7.246 3.931-7.246 8.75s3.27 8.75 7.246 8.75z" fill="#fff"/><path d="M642.485 536.7a2.254 2.254 0 0 0 0-4.439 2.269 2.269 0 0 0 0 4.439z" fill="#464646"/><path fill="#939393" d="M643.639 531.371l-1.988-.634.834-3.868 1.988.634-.834 3.868zM640.112 531.117l-1.411 1.903-2.436-2.727 1.346-1.839 2.501 2.663zM638.637 535.809l1.347 1.903-2.501 2.6-1.347-1.903 2.501-2.6zM642.741 538.156l1.026-.951 1.283 3.677-1.026.951-1.283-3.677zM647.935 532.829h-3.27v2.473h3.27v-2.473z"/><path d="M629.6 535.239v-2.727a18.3 18.3 0 0 1 1.154-6.341h-10.136v.063c0 3.551.77 5.707 1.731 7.038a3.522 3.522 0 0 0 .385.507 3.9 3.9 0 0 0 2.116 1.458z" fill="#65aa0d"/><path d="M623.247 523.952h-6.477c-1.026 0-1.731 1.2-1.6 2.536l1.218 7.292c.192 1.015.9 1.712 1.667 1.649l5.322-.127c.9 0 1.6-1.015 1.6-2.156l-.128-7.165a1.833 1.833 0 0 0-1.6-2.029z"/><path d="M721.039 535.239v-.19h-.064v-2.536a18.3 18.3 0 0 1 1.154-6.341h-67.4a18.291 18.291 0 0 1 1.09 6.341v2.727zM751.627 528.01v-1.839h-5.515a18.291 18.291 0 0 1 1.09 6.341v2.727h2.5a2.431 2.431 0 0 0 .705-.063 1.687 1.687 0 0 0 .577-.317 5.569 5.569 0 0 0 .385-.634c.385-1.078.257-3.044.257-6.214z" fill="#65aa0d"/><path d="M753.23 523.889h13.018a1.985 1.985 0 0 1 1.6 2.536l-1.218 7.292c-.192 1.015-.834 1.712-1.667 1.649l-11.863-.127a1.88 1.88 0 0 1-1.6-2.156l.064-7.1c.064-1.2.77-2.092 1.667-2.092z" fill="#212121"/><path d="M751.178 523.889h6.413a2.023 2.023 0 0 1 1.6 2.536l-1.218 7.292a1.645 1.645 0 0 1-1.667 1.522h-5.322c-.9 0-1.6-.951-1.6-2.156l.128-7.1a1.9 1.9 0 0 1 1.667-2.092z"/><path fill="#ff8c00" d="M745.535 510.065h-5.964v4.249h5.964v-4.249z"/><path d="M722.257 486.858H696.03c0 2.536.064 4.819.064 5.96a.787.787 0 0 0 .577.824l30.652.761c.577 0 .9-.888.449-1.4l-5.515-6.151zM659.927 486.858l.128 4.946a.676.676 0 0 0 .641.761l30.588.824a.676.676 0 0 0 .641-.761l-.128-5.77zM641.074 486.858l-2.116 4.375c-.192.507.064 1.2.577 1.2l15.647.317c.385 0 .641-.38.641-.824v-5.073z" fill="#b3d6f2"/><path fill="#2488d8" d="M690.002 503.471h-3.719v7.165h3.719v-7.165z"/><path fill="#1a1a1a" d="M742.187 362.931h-127.73v28.383h127.73v-28.383z"/><path d="M751.187 357.319v-25.8h8.55l-6.878-41.284c-.836-5.161-.836-12.837-16.264-12.837h-8.55l11.571 107.468h25.263v-19.8c0-3.419-13.692-7.741-13.692-7.741z" fill="#235a89"/><path fill="#ccc" d="M756.329 365.06h-4.307v6.902h4.307v-6.902zM764.879 365.06h-3.857v6.902h3.857v-6.902z"/><path d="M746.88 353.836h-3.407a2.118 2.118 0 0 1-2.186-2.129v-15.482a2.158 2.158 0 0 1 2.186-2.129h3.407a2.1 2.1 0 0 1 2.12 2.129v15.482a2.064 2.064 0 0 1-2.121 2.129z" fill="#2488d8"/><path d="M746.88 331.516h12.857s-.321-2-.836-5.161h-12.857c.514 3.161.836 5.161.836 5.161z" fill="#69afe5"/><path d="M654.248 385.7c0-6.773-4.371-12.192-9.835-12.45h-4.5l.064 1.032c-3.6 1.935-6.107 6.322-6.107 11.418 0 5.419 2.828 10 6.75 11.74l.064.71h3.728c5.464-.258 9.835-5.741 9.835-12.45z" fill="#1a1a1a"/><path d="M640.3 398.152c5.593 0 10.157-5.548 10.157-12.45s-4.564-12.45-10.157-12.45-10.157 5.548-10.157 12.45 4.564 12.45 10.157 12.45z" fill="#4d4d4d"/><path d="M640.3 392.862c3.086 0 5.657-3.225 5.657-7.16 0-4-2.571-7.16-5.657-7.16-3.15 0-5.657 3.161-5.657 7.16 0 3.935 2.507 7.16 5.657 7.16z" fill="#ccc"/><path d="M645.956 386.541c0-6.709-4.371-12.192-9.771-12.45h-4.565l.064 1.032c-3.6 1.935-6.107 6.322-6.107 11.418 0 5.419 2.828 10 6.814 11.74v.774h3.793v-.064c5.4-.258 9.771-5.677 9.771-12.45z" fill="#1a1a1a"/><path d="M632.006 399.055c5.593 0 10.157-5.612 10.157-12.514s-4.564-12.45-10.157-12.45-10.157 5.548-10.157 12.45 4.564 12.514 10.157 12.514z" fill="#4d4d4d"/><path d="M632.006 393.765c3.15 0 5.657-3.225 5.657-7.225 0-3.935-2.507-7.16-5.657-7.16s-5.657 3.225-5.657 7.16c0 4 2.507 7.225 5.657 7.225z" fill="#ccc"/><path d="M751.958 385.7c0-6.773-4.371-12.192-9.835-12.45h-4.5l.064 1.032c-3.6 1.935-6.107 6.322-6.107 11.418 0 5.419 2.828 10 6.75 11.74l.064.71h3.728c5.464-.258 9.835-5.741 9.835-12.45z" fill="#1a1a1a"/><path d="M738.009 398.152c5.593 0 10.157-5.548 10.157-12.45s-4.564-12.45-10.157-12.45-10.157 5.548-10.157 12.45 4.564 12.45 10.157 12.45z" fill="#4d4d4d"/><path d="M738.009 392.862c3.086 0 5.657-3.225 5.657-7.16 0-4-2.571-7.16-5.657-7.16-3.15 0-5.657 3.161-5.657 7.16 0 3.935 2.507 7.16 5.657 7.16z" fill="#ccc"/><path d="M743.666 386.541c0-6.709-4.371-12.192-9.771-12.45h-4.565l.064 1.032c-3.6 1.935-6.107 6.322-6.107 11.418 0 5.419 2.828 10 6.814 11.74v.774h3.793v-.064c5.4-.258 9.771-5.677 9.771-12.45z" fill="#1a1a1a"/><path d="M729.716 399.055c5.593 0 10.157-5.612 10.157-12.514s-4.564-12.45-10.157-12.45-10.157 5.548-10.157 12.45 4.564 12.514 10.157 12.514z" fill="#4d4d4d"/><path d="M729.716 393.765c3.15 0 5.657-3.225 5.657-7.225 0-3.935-2.507-7.16-5.657-7.16s-5.657 3.225-5.657 7.16c0 4 2.507 7.225 5.657 7.225z" fill="#ccc"/><path d="M738.33 357.319v-25.8h8.55L740 290.232c-.836-5.161-.836-12.837-16.264-12.837H614.907c-9.45 0-19.735 9.418-19.735 26.577V391.7h24.556a18.335 18.335 0 0 1-.964-6c0-8.773 5.914-15.933 13.242-15.933 7.393 0 13.307 7.16 13.307 15.933a18.335 18.335 0 0 1-.964 6h73.09a18.335 18.335 0 0 1-.964-6c0-8.773 5.914-15.933 13.307-15.933 7.071 0 12.857 6.709 13.242 15.095h9v-19.8c0-3.419-13.692-7.741-13.692-7.741z" fill="#69afe5"/><path d="M716.6 285.91h16.33a2.334 2.334 0 0 1 2.25 2l1.864 12.579a2.272 2.272 0 0 1-2.25 2.645H716.6a2.3 2.3 0 0 1-2.25-2.322v-12.58a2.3 2.3 0 0 1 2.25-2.322zM688.318 285.91H706.9a2.35 2.35 0 0 1 2.314 2.322v12.579a2.35 2.35 0 0 1-2.314 2.322h-18.582a2.3 2.3 0 0 1-2.25-2.322v-12.579a2.3 2.3 0 0 1 2.25-2.322zM660.033 285.91h18.578a2.35 2.35 0 0 1 2.314 2.322v12.579a2.35 2.35 0 0 1-2.314 2.322h-18.578a2.3 2.3 0 0 1-2.25-2.322v-12.579a2.3 2.3 0 0 1 2.25-2.322zM631.749 285.91h18.578a2.35 2.35 0 0 1 2.314 2.322v12.579a2.35 2.35 0 0 1-2.314 2.322h-18.578a2.3 2.3 0 0 1-2.25-2.322v-12.579a2.3 2.3 0 0 1 2.25-2.322zM620.049 285.91h1.928a2.309 2.309 0 0 1 2.314 2.322v12.579a2.309 2.309 0 0 1-2.314 2.322h-11.441a2.3 2.3 0 0 1-2.314-2.58c.514-4.773 2.764-14.643 11.828-14.643z" fill="#fff"/><path d="M595.172 331.516H746.88s-.321-2-.836-5.161H595.172v5.161z" fill="#65aa0d"/><path d="M714.674 353.9h17.292a2.075 2.075 0 0 0 2.057-2.064v-15.675a2.034 2.034 0 0 0-2.057-2.064h-17.292a2.034 2.034 0 0 0-2.057 2.064v15.675a2.075 2.075 0 0 0 2.057 2.064zM683.818 356.481h22.435a2.075 2.075 0 0 0 2.057-2.064v-14a2.021 2.021 0 0 0-2.057-2h-22.435a2.021 2.021 0 0 0-2.057 2v14a2.075 2.075 0 0 0 2.057 2.064zM652.962 356.481H675.4a2.075 2.075 0 0 0 2.057-2.064v-14a2.021 2.021 0 0 0-2.057-2h-22.438a2.021 2.021 0 0 0-2.057 2v14a2.075 2.075 0 0 0 2.057 2.064zM622.107 356.481h22.435a2.075 2.075 0 0 0 2.057-2.064v-14a2.021 2.021 0 0 0-2.057-2h-22.435a2.021 2.021 0 0 0-2.057 2v14a2.075 2.075 0 0 0 2.057 2.064zM595.172 356.481h3.986a2.063 2.063 0 0 0 1.993-2.064v-14a2.006 2.006 0 0 0-1.993-2h-3.986v18.062z" fill="#fff"/><path d="M718.724 376.8h-75.661a18.894 18.894 0 0 1 1.286 14.9h73.09a18.894 18.894 0 0 1 1.286-14.9zM621.014 376.8h-25.842v14.9h24.556a18.894 18.894 0 0 1 1.286-14.9zM740.773 376.8a18.366 18.366 0 0 1 2.25 8.063h9V376.8z" fill="#65aa0d"/><path d="M766.036 380.09h-18.578a1.869 1.869 0 0 0-1.864 1.871v5.739a1.869 1.869 0 0 0 1.864 1.871h18.578a1.869 1.869 0 0 0 1.864-1.871v-5.741a1.869 1.869 0 0 0-1.864-1.871z" fill="#212121"/><path d="M754.015 380.09h-6.557a1.869 1.869 0 0 0-1.864 1.871v5.739a1.869 1.869 0 0 0 1.864 1.871h6.557a1.869 1.869 0 0 0 1.864-1.871v-5.741a1.869 1.869 0 0 0-1.864-1.871z" fill="#1a1a1a"/><path d="M712.617 347v4.838a2.021 2.021 0 0 0 2.057 2h17.292a2.021 2.021 0 0 0 2.057-2V347zM681.761 347v7.418a2.021 2.021 0 0 0 2.057 2h22.435a2.021 2.021 0 0 0 2.057-2V347zM650.905 347v7.418a2.021 2.021 0 0 0 2.057 2H675.4a2.021 2.021 0 0 0 2.057-2V347zM620.049 347v7.418a2.021 2.021 0 0 0 2.057 2h22.435a2.021 2.021 0 0 0 2.057-2V347zM595.172 347v9.418h3.986a2.006 2.006 0 0 0 1.993-2V347zM736.209 294.554h-21.92v6.257a2.35 2.35 0 0 0 2.314 2.322h18.192a2.272 2.272 0 0 0 2.25-2.645l-.836-5.935zM686 294.554v6.257a2.35 2.35 0 0 0 2.314 2.322H706.9a2.3 2.3 0 0 0 2.25-2.322v-6.257zM657.719 294.554v6.257a2.35 2.35 0 0 0 2.314 2.322h18.578a2.3 2.3 0 0 0 2.25-2.322v-6.257zM629.435 294.554v6.257a2.35 2.35 0 0 0 2.314 2.322h18.578a2.3 2.3 0 0 0 2.25-2.322v-6.257zM609.507 294.554a28.141 28.141 0 0 0-1.286 6 2.3 2.3 0 0 0 2.314 2.58h11.442a2.309 2.309 0 0 0 2.314-2.322v-6.257z" fill="#b3d6f2"/><path fill="#00240d" d="M751.122 331.516H595.236v1.162h155.886v-1.162z"/><path fill="#107c10" d="M738.33 331.516H595.236v1.162H738.33v-1.162z"/><path fill="#ff8c00" d="M600.765 370.801h-6.043v4.322h6.043v-4.322zM749.001 370.801h-5.978v4.322h5.978v-4.322z"/><path fill="#2488d8" d="M617.607 338.806h-14.85v53.347h14.85v-53.347z"/><path d="M600.186 382.283h-9.964a1.869 1.869 0 0 0-1.864 1.871v5.677a1.869 1.869 0 0 0 1.864 1.871h9.964a1.869 1.869 0 0 0 1.864-1.871v-5.677a1.869 1.869 0 0 0-1.864-1.871z" fill="#1a1a1a"/><path fill="#69afe5" d="M615.228 341.579h-10.092v20.836h10.092v-20.836z"/><path d="M50.328 384.192l39.794 3s20.058-27.047-18.194-27.047c-38.187 0-21.6 24.049-21.6 24.049zM193.177 387.19h39.28s24.88-27.749-18.065-28.259-21.215 28.259-21.215 28.259z" fill="#020202"/><path d="M230.272 381.7a17.455 17.455 0 1 1-17.486-17.351 17.437 17.437 0 0 1 17.486 17.351z" fill="#212121"/><path d="M225.257 381.7a12.44 12.44 0 1 1-12.472-12.375 12.436 12.436 0 0 1 12.472 12.375z" fill="#a6a6a6"/><path d="M216.642 381.7a3.854 3.854 0 0 1-3.857 3.827 3.828 3.828 0 0 1 0-7.655 3.854 3.854 0 0 1 3.857 3.827z" fill="#666"/><path d="M88 381.7a17.455 17.455 0 1 1-17.486-17.351A17.437 17.437 0 0 1 88 381.7z" fill="#212121"/><path d="M82.987 381.7a12.472 12.472 0 1 1-12.472-12.375A12.436 12.436 0 0 1 82.987 381.7z" fill="#a6a6a6"/><path d="M73.987 381.7a3.439 3.439 0 1 1-3.472-3.445 3.431 3.431 0 0 1 3.472 3.445z" fill="#666"/><path d="M255.473 377.175c-.193-4.657-3.536-4.465-3.536-4.465s-1.607-9.313-3.022-13.97-5.657-7.208-11.058-8.165c-5.4-.893-40.373-4.146-40.373-4.146s-23.144-21.242-30.408-21.434c-19.029-.638-48.923-1.148-69.11 0-17.808 1.021-36.194 18.627-36.194 18.627l-19.929 2.233c-2.957.638-4.05 1.4-4.886 2.934-2.957 5.677-7.329 18.818-7.329 18.818s-2.314.957-1.672 4.657c1.157 6.251 2.829 9.569 3.986 9.824.514.064 8.936 1.021 18.386 2.105a16.212 16.212 0 0 1-.193-2.488 20.38 20.38 0 0 1 40.759 0 19.508 19.508 0 0 1-.771 5.486h103.054a19.508 19.508 0 0 1-.771-5.486 20.38 20.38 0 0 1 40.759 0 22.13 22.13 0 0 1-.707 5.486h17.872c5.85 0 5.4-5.358 5.143-10.015z" fill="#005a9e"/><path d="M32.006 382.087c.45.064 8.872 1.021 18.322 2.105a16.212 16.212 0 0 1-.193-2.488 20.135 20.135 0 0 1 5.207-13.524l-25.715-.574s-2.314.957-1.672 4.657c1.157 6.251 2.829 9.569 4.05 9.824z" fill="#212121"/><path d="M146.5 348.533h40.887a1.2 1.2 0 0 0 .771-2.105c-5.4-4.848-19.222-16.586-26.1-17.032-3.407-.191-9.129-.319-12.6-.447a1.231 1.231 0 0 0-1.221 1.021l-2.893 17.16a1.181 1.181 0 0 0 1.157 1.4zM104.909 331.5a1.164 1.164 0 0 0-1.414-1.34 25.8 25.8 0 0 0-10.222 3.891 119.979 119.979 0 0 0-15.043 12.44 1.175 1.175 0 0 0 .836 2.041h21.922a1.174 1.174 0 0 0 1.157-1.021l2.764-16.011zM112.11 330.225l-2.893 16.9a1.215 1.215 0 0 0 1.157 1.4h26.68a1.241 1.241 0 0 0 1.221-1.021l2.957-17.351a1.175 1.175 0 0 0-1.221-1.34c-7.522-.064-17.936.128-26.744.383a1.233 1.233 0 0 0-1.157 1.021z" fill="#2488d8"/><path d="M36.442 363.97a1.126 1.126 0 0 0 1.093-.7l3.793-11.419a1.093 1.093 0 0 0-1.029-1.467c-1.157.064-2.764.064-4.114.064-1.864 3.955-3.986 9.824-5.336 13.524z" fill="#d91021"/><path d="M248.915 358.739a10.24 10.24 0 0 0-1.736-3.317h-7.072a1.2 1.2 0 0 0-1.029 1.786l7.393 11.993a1.219 1.219 0 0 0 1.029.574h3.922c-.579-3.126-1.607-8.038-2.507-11.036z" fill="#fff"/><path d="M194.334 373.156H89.03a20.037 20.037 0 0 1 1.864 8.548 19.508 19.508 0 0 1-.771 5.486h103.054a19.508 19.508 0 0 1-.771-5.486 20.083 20.083 0 0 1 1.929-8.548zM252.451 372.773h-21.344a19.885 19.885 0 0 1 2.122 8.931 22.163 22.163 0 0 1-.771 5.486h17.872c5.85 0 5.4-5.358 5.143-10.015-.129-3.572-2.122-4.274-3.022-4.4z" fill="#212121"/><path d="M240.943 377.3v2.552a.848.848 0 0 0 .836.829H255.6c0-1.148-.064-2.36-.129-3.508a2.375 2.375 0 0 0-.064-.7h-13.628a.848.848 0 0 0-.836.829z" fill="#f57800"/><path d="M103.881 337.561l1.029-6.06a1.164 1.164 0 0 0-1.414-1.34 25.8 25.8 0 0 0-10.222 3.891c-1.672 1.148-3.279 2.36-4.822 3.508zM139.946 337.561l1.286-7.4a1.175 1.175 0 0 0-1.221-1.34c-7.522-.064-17.936.128-26.744.383a1.233 1.233 0 0 0-1.157 1.021l-1.286 7.336zM177.427 337.561c-5.529-4.146-11.508-7.91-15.365-8.165-3.407-.191-9.129-.319-12.6-.447a1.3 1.3 0 0 0-1.221 1.021l-1.286 7.591z" fill="#69afe5"/><path d="M153.447 355.741h-7.265a1.15 1.15 0 1 1 0-2.3h7.265a1.148 1.148 0 1 1 0 2.3zM116.8 355.741h-7.265a1.148 1.148 0 1 1 0-2.3h7.265a1.148 1.148 0 1 1 0 2.3z" fill="#2488d8"/><path d="M214.007 370.732h-2.443a.491.491 0 0 0-.45.638l1.286 2.743a.431.431 0 0 0 .771 0l1.221-2.743a.455.455 0 0 0-.386-.638zM211.564 392.74h2.443a.455.455 0 0 0 .386-.638l-1.221-2.743a.484.484 0 0 0-.836 0l-1.221 2.743a.472.472 0 0 0 .45.638zM223.843 382.916v-2.36a.452.452 0 0 0-.643-.447l-2.7 1.212a.441.441 0 0 0 0 .829l2.7 1.212a.452.452 0 0 0 .643-.447zM201.663 380.556v2.36a.466.466 0 0 0 .643.447l2.764-1.212a.477.477 0 0 0 0-.829l-2.764-1.212a.466.466 0 0 0-.643.447zM221.464 374.815l-1.736-1.722a.5.5 0 0 0-.771.191l-1.029 2.743c-.129.383.257.766.579.574l2.764-1.021a.491.491 0 0 0 .193-.765zM204.042 388.657l1.736 1.722a.5.5 0 0 0 .771-.191l1.029-2.743c.129-.383-.193-.765-.579-.574l-2.764 1.021a.491.491 0 0 0-.193.766zM219.728 390.379l1.736-1.722a.491.491 0 0 0-.193-.766l-2.764-1.021c-.386-.128-.771.191-.579.574l1.029 2.743a.5.5 0 0 0 .771.191zM205.778 373.092l-1.736 1.722a.491.491 0 0 0 .193.765l2.829 1.021a.453.453 0 0 0 .579-.574l-1.093-2.743a.5.5 0 0 0-.771-.191zM71.929 370.732h-2.443a.491.491 0 0 0-.45.638l1.286 2.743a.484.484 0 0 0 .836 0l1.157-2.743a.455.455 0 0 0-.386-.638zM69.486 392.74h2.443a.455.455 0 0 0 .386-.638l-1.221-2.743a.485.485 0 0 0-.836 0l-1.222 2.741a.472.472 0 0 0 .45.638zM81.765 382.916v-2.36a.452.452 0 0 0-.643-.447l-2.7 1.212a.441.441 0 0 0 0 .829l2.7 1.212a.452.452 0 0 0 .643-.447zM59.65 380.556v2.36a.452.452 0 0 0 .643.447l2.7-1.212a.477.477 0 0 0 0-.829l-2.764-1.212c-.257-.128-.579.064-.579.447zM79.387 374.815l-1.736-1.722a.439.439 0 0 0-.707.191l-1.093 2.743c-.129.383.257.766.579.574l2.829-1.021a.479.479 0 0 0 .129-.765zM62.029 388.657l1.672 1.722a.5.5 0 0 0 .771-.191l1.029-2.743a.425.425 0 0 0-.579-.574l-2.764 1.021a.45.45 0 0 0-.129.766zM77.651 390.379l1.736-1.722a.479.479 0 0 0-.129-.766l-2.829-1.021a.442.442 0 0 0-.579.574l1.093 2.743a.446.446 0 0 0 .707.191zM63.7 373.092l-1.672 1.722a.45.45 0 0 0 .129.765l2.829 1.021a.453.453 0 0 0 .579-.574l-1.093-2.743a.5.5 0 0 0-.771-.191z" fill="#666"/><path d="M330.769 384.406l38.518 2.982s19.323-26.576-17.59-26.576-20.928 23.595-20.928 23.595zM468.856 387.776h37.876s24.074-27.225-17.4-27.743c-41.535-.519-20.479 27.743-20.479 27.743z" fill="#020202"/><path d="M504.549 382.2a16.692 16.692 0 1 1-16.691-16.853 16.822 16.822 0 0 1 16.691 16.853z" fill="#212121"/><path d="M499.414 381.748a12.005 12.005 0 1 1-12-12.121 12.087 12.087 0 0 1 12 12.121z" fill="#a6a6a6"/><path d="M491.71 382.2a3.852 3.852 0 1 1-7.7 0 3.852 3.852 0 1 1 7.7 0z" fill="#666"/><path d="M366.719 382.2a16.692 16.692 0 1 1-16.691-16.853 16.781 16.781 0 0 1 16.691 16.853z" fill="#212121"/><path d="M362.418 381.748a11.974 11.974 0 1 1-11.941-12.121 12.032 12.032 0 0 1 11.941 12.121z" fill="#a6a6a6"/><path d="M353.879 381.748a3.435 3.435 0 1 1-3.4-3.435 3.4 3.4 0 0 1 3.4 3.435z" fill="#666"/><path d="M529.008 377.924c-.193-4.537-3.4-4.343-3.4-4.343s-1.6-9.14-2.953-13.742S517.2 352.773 512 351.8c-5.2-.908-39.032-4.084-39.032-4.084s-22.341-20.872-29.338-21.067c-18.36-.519-47.313-1.1-66.829 0-17.2.972-34.923 18.279-34.923 18.279l-19.259 2.2c-2.825.648-3.916 1.361-4.751 2.917-2.825 5.575-7.062 18.474-7.062 18.474s-2.247.972-1.669 4.6c1.156 6.158 2.825 9.4 3.916 9.593.514.13 8.6 1.037 17.718 2.074-.064-.778-.128-1.556-.128-2.4a19.678 19.678 0 0 1 39.1-3.371 19.938 19.938 0 0 1-.449 8.751h99.569A19.727 19.727 0 1 1 507.5 382.4a18.468 18.468 0 0 1-.77 5.38H524c5.714 0 5.264-5.25 5.007-9.853z" fill="#69afe5"/><path d="M313.05 382.4c.514.065 8.6.972 17.718 2.074-.064-.843-.128-1.621-.128-2.463a19.9 19.9 0 0 1 5.007-13.288l-24.844-.583v.065s-2.247.907-1.669 4.537c1.156 6.158 2.825 9.4 3.916 9.658z" fill="#2488d8"/><path d="M423.726 349.791h39.481a1.192 1.192 0 0 0 .77-2.074c-5.264-4.8-18.617-16.335-25.229-16.724-3.274-.194-8.795-.389-12.133-.454a1.239 1.239 0 0 0-1.22.972l-2.825 16.853a1.229 1.229 0 0 0 1.156 1.426zM383.538 333.068a1.15 1.15 0 0 0-1.348-1.361 25.459 25.459 0 0 0-9.886 3.824 122.972 122.972 0 0 0-14.573 12.251 1.165 1.165 0 0 0 .835 2.009h21.185a1.231 1.231 0 0 0 1.156-1.037l2.632-15.687zM390.472 331.771l-2.76 16.594a1.174 1.174 0 0 0 1.156 1.361h25.742a1.171 1.171 0 0 0 1.156-.972l2.825-16.983a1.158 1.158 0 0 0-1.091-1.426c-7.383 0-17.4.194-25.935.454a1.227 1.227 0 0 0-1.091.972z" fill="#b3d6f2"/><path d="M318.443 363.728l3.659-11.214a1.049 1.049 0 0 0-.963-1.426c-1.156 0-2.7.065-4.044.065-1.733 3.889-3.788 9.593-5.072 13.288h5.393a1.1 1.1 0 0 0 1.027-.713z" fill="#d91021"/><path d="M522.589 359.9a9 9 0 0 0-1.6-3.241h-6.677a1.174 1.174 0 0 0-1.027 1.75l7 11.538a1.191 1.191 0 0 0 .963.583h3.723c-.578-3.047-1.541-7.778-2.375-10.631z" fill="#fff"/><path d="M469.883 373.969H368.067a20.206 20.206 0 0 1 1.8 8.427 20.924 20.924 0 0 1-.706 5.38h99.826a18.468 18.468 0 0 1-.77-5.38 20.149 20.149 0 0 1 1.669-8.427zM525.863 373.127h-20.672a19.845 19.845 0 0 1 2.247 8.491 27.9 27.9 0 0 1-.835 6.158h17.654c5.521 0 4.879-4.926 4.879-10.436 0-3.435-2.375-4.084-3.274-4.213z" fill="#2488d8"/><path d="M514.371 377.34v2.722a.784.784 0 0 0 .77.778H529.2a33.032 33.032 0 0 0-.064-3.565 2.936 2.936 0 0 1-.064-.713h-13.93a.784.784 0 0 0-.77.778z" fill="#f57800"/><path d="M382.511 338.513l1.027-5.963a1.2 1.2 0 0 0-1.348-1.361 25.548 25.548 0 0 0-9.886 3.889 87.1 87.1 0 0 0-4.622 3.435zM417.37 338.513l1.22-7.26a1.13 1.13 0 0 0-1.091-1.361c-7.383 0-17.4.13-25.935.454a1.157 1.157 0 0 0-1.091.972l-1.22 7.2zM453.641 338.513c-5.328-4.084-11.17-7.778-14.894-8.038-3.274-.194-8.795-.324-12.133-.454a1.311 1.311 0 0 0-1.22.972l-1.22 7.519z" fill="#fff"/><path d="M430.53 356.662h-6.93a1.186 1.186 0 0 1-1.22-1.232v-.13a1.225 1.225 0 0 1 1.22-1.232h6.933a1.225 1.225 0 0 1 1.22 1.232v.13a1.186 1.186 0 0 1-1.22 1.232zM394.58 356.662h-6.933a1.186 1.186 0 0 1-1.22-1.232v-.13a1.225 1.225 0 0 1 1.22-1.232h6.933a1.225 1.225 0 0 1 1.22 1.232v.13a1.186 1.186 0 0 1-1.22 1.232z" fill="#2488d8"/><path d="M488.885 371.377h-2.311a.411.411 0 0 0-.385.583l1.156 2.722a.462.462 0 0 0 .835-.065l1.156-2.658c.128-.259-.128-.583-.449-.583zM486.574 392.962h2.311c.321 0 .578-.324.449-.583l-1.22-2.658a.4.4 0 0 0-.77 0l-1.156 2.658a.411.411 0 0 0 .385.583zM498.515 383.239v-2.4a.408.408 0 0 0-.578-.389l-2.632 1.232a.406.406 0 0 0 0 .778l2.632 1.167a.408.408 0 0 0 .578-.389zM477.137 380.84v2.4a.442.442 0 0 0 .642.389l2.632-1.167a.489.489 0 0 0 0-.843l-2.632-1.167a.442.442 0 0 0-.642.389zM496.14 375.266l-1.669-1.685a.422.422 0 0 0-.706.13l-1.027 2.787a.422.422 0 0 0 .578.519l2.7-1.037a.471.471 0 0 0 .128-.713zM479.32 388.878l1.669 1.685a.427.427 0 0 0 .706-.194l1.027-2.722a.445.445 0 0 0-.578-.583l-2.632 1.037a.5.5 0 0 0-.193.778zM494.47 390.564l1.669-1.685a.5.5 0 0 0-.193-.778l-2.7-.972c-.321-.13-.706.194-.514.519l1.027 2.722a.435.435 0 0 0 .706.194zM480.989 373.581l-1.669 1.685a.45.45 0 0 0 .193.713l2.7 1.037a.456.456 0 0 0 .578-.583l-1.091-2.723a.416.416 0 0 0-.706-.13zM351.633 371.377h-2.311a.411.411 0 0 0-.385.583l1.156 2.722a.462.462 0 0 0 .835-.065l1.156-2.658c.128-.259-.128-.583-.449-.583zM349.321 392.962h2.311c.321 0 .578-.324.449-.583l-1.22-2.658a.4.4 0 0 0-.77 0l-1.156 2.658a.412.412 0 0 0 .385.583zM361.583 383.239v-2.4a.442.442 0 0 0-.642-.389l-2.632 1.232a.435.435 0 0 0 0 .778l2.632 1.167a.442.442 0 0 0 .642-.389zM340.205 380.84v2.4a.408.408 0 0 0 .578.389l2.632-1.167a.452.452 0 0 0 0-.843l-2.632-1.167a.408.408 0 0 0-.578.389zM358.887 375.266l-1.669-1.685a.422.422 0 0 0-.706.13l-1.027 2.787a.422.422 0 0 0 .578.519l2.7-1.037a.471.471 0 0 0 .128-.713zM342.067 388.878l1.669 1.685a.427.427 0 0 0 .706-.194l1.027-2.722a.445.445 0 0 0-.578-.583l-2.631 1.036a.5.5 0 0 0-.193.778zM357.218 390.564l1.669-1.685a.532.532 0 0 0-.128-.778l-2.76-.972c-.321-.13-.706.194-.514.519l1.027 2.722a.442.442 0 0 0 .706.194zM343.736 373.581l-1.669 1.685a.45.45 0 0 0 .193.713l2.7 1.037a.456.456 0 0 0 .578-.583l-1.091-2.722a.416.416 0 0 0-.706-.13z" fill="#666"/><path d="M258.5 51.682l-5.55-13.747c-.656-1.6-1.61-2.844-2.8-2.844-1.789 0-3.22 2.37-3.22 5.392s1.431 5.451 3.22 5.451a2.877 2.877 0 0 0 2.386-1.9l3.459 8.3 2.5-.652z" fill="#fff"/><path d="M295.055 104.775a13.508 13.508 0 1 1-13.478-13.451 13.472 13.472 0 0 1 13.478 13.451z" fill="#212121"/><path d="M290.284 104.775a8.737 8.737 0 1 1-8.707-8.711 8.7 8.7 0 0 1 8.707 8.711z" fill="#fff"/><path d="M285.512 104.775a3.932 3.932 0 0 1-3.936 3.97 3.97 3.97 0 1 1 0-7.94 3.932 3.932 0 0 1 3.936 3.97z" fill="#6eace8"/><path d="M274.062 81.013c14.492.237 19.025 8.414 20.4 12.384a1.144 1.144 0 0 1-1.431 1.481c-4.533-1.363-15.685-3.5-23.14 5.807-1.61 2.015-4.831 2.192-6.858 2.074a1.189 1.189 0 0 1-.954-1.778l10.914-19.376a1.335 1.335 0 0 1 1.073-.593z" fill="#8562ad"/><path d="M255.157 100.8c4.354 0 10.437-6.933 9.542-21.628a38.021 38.021 0 0 0-9.542-23.406h7.813s11.212 20.621 11.212 27.494-12.107 21.51-12.107 21.51h-40.853l-2.386-3.97z" fill="#5c2d91"/><path d="M229.989 83.561c7.813-1.718 13.9-13.747 0-13.747-13.836 0-19.084 0-24.273-1.778-5.189-1.718-10.556 1.778-7.037 13.392 3.578 11.614 31.31 2.133 31.31 2.133zM223.489 104.775a13.508 13.508 0 1 1-13.479-13.451 13.472 13.472 0 0 1 13.478 13.451z" fill="#212121"/><path d="M218.718 104.775a8.737 8.737 0 1 1-8.707-8.711 8.7 8.7 0 0 1 8.707 8.711z" fill="#fff"/><path d="M213.947 104.775a3.932 3.932 0 0 1-3.936 3.97 3.97 3.97 0 1 1 0-7.94 3.932 3.932 0 0 1 3.936 3.97z" fill="#6eace8"/><path d="M184.426 100.8h56.716a1.055 1.055 0 0 0 1.073-1.007c.119-4.5-1.014-22.221-25.227-22.221-26 0-32.2 15.11-33.576 21.984a1.069 1.069 0 0 0 1.014 1.244z" fill="#8562ad"/><path d="M257.125 58.141h5.964a1.789 1.789 0 0 0 1.789-1.778v-5.155a1.777 1.777 0 0 0-1.789-1.718h-5.964a1.739 1.739 0 0 0-1.789 1.718v5.155a1.752 1.752 0 0 0 1.789 1.778z" fill="#5c2d91"/><path d="M259.272 53.815a3.539 3.539 0 0 1-3.578 3.555 3.555 3.555 0 1 1 0-7.111 3.539 3.539 0 0 1 3.578 3.555z"/><path d="M248.239 56.837a1.707 1.707 0 0 1-.417-3.378l7.813-1.718a1.718 1.718 0 0 1 2.087 1.3 1.782 1.782 0 0 1-1.312 2.074l-7.81 1.722z" fill="#666"/><path d="M272.809 53.4c0 2.429-1.61 4.385-3.578 4.385s-3.578-1.955-3.578-4.385c0-2.37 1.61-4.326 3.578-4.326s3.578 1.955 3.578 4.326z" fill="#fff"/><path d="M268.814 57.726v-8.592c-4.294 0-7.753 1.9-7.753 4.266s3.459 4.326 7.753 4.326z" fill="#8562ad"/><path d="M192.477 83.028c0 1.955-1.193 3.555-2.743 3.555s-2.8-1.6-2.8-3.555 1.252-3.555 2.8-3.555 2.743 1.6 2.743 3.555z" fill="#d91021"/><path d="M190.091 79.236v6.933c4.354 0 7.813-1.541 7.813-3.437s-3.459-3.5-7.813-3.5z" fill="#5c2d91"/><path d="M49.071 461.377c.193-2.294 1.477-5.1-3.982-5.1-5.4 0-12.4 1.275-15.8 5.672-2.7 3.569-1.67 4.78 3.533 5.1 5.267.255 13.424.828 14.581 0s1.67-5.672 1.67-5.672z" fill="#828282"/><path d="M45.6 456.279c-1.028 2.358-2.633 5.736-3.6 7.712a2.811 2.811 0 0 1-2.569 1.657L28.2 465.9c.707.7 2.248 1.02 4.625 1.147 5.267.255 13.424.828 14.581 0s1.67-5.672 1.67-5.672c.193-2.167 1.349-4.907-3.469-5.1z" fill="#5d5d5d"/><path d="M165.908 461.377c-.128-2.294-1.413-5.1 3.982-5.1s12.4 1.275 15.865 5.672c2.762 3.569 1.67 4.78-3.6 5.1-5.267.255-13.424.828-14.581 0-1.092-.829-1.67-5.672-1.67-5.672z" fill="#828282"/><path d="M169.377 456.279c1.028 2.358 2.633 5.736 3.6 7.712a2.811 2.811 0 0 0 2.569 1.657l11.241.255c-.707.7-2.248 1.02-4.625 1.147-5.267.255-13.424.828-14.581 0-1.092-.829-1.67-5.672-1.67-5.672-.128-2.167-1.349-4.907 3.469-5.1z" fill="#5d5d5d"/><path d="M170.083 466.6s-12.268-32.567-22.545-33.4c-10.277-.765-28.84-1.083-39.374-1.083a3.268 3.268 0 0 1-1.285 0c-10.534 0-29.1.319-39.374 1.083-10.277.828-22.545 33.4-22.545 33.4z" fill="#828282"/><path d="M182.865 483.173c-1.67-1.338-10.6-8.731-10.6-8.731s-2.12-7.138-3.276-10.643h-123c-1.156 3.505-3.34 10.643-3.34 10.643s-8.928 7.393-10.534 8.731c-1.863 1.593-2.826 5.1-2.826 10.2v36.008c0 3.951 1.285 7.2 6.937 7.2H61.66c4.111 0 8.864-3.25 8.864-3.25 49.844 1.02 73.93 0 73.93 0s4.689 3.25 8.864 3.25h25.372c5.717 0 7-3.25 7-7.2v-36.01c0-5.1-.963-8.6-2.826-10.2z" fill="#828282"/><path d="M48.814 547.1H32.756a3 3 0 0 1-3.019-3v-17.653a2.95 2.95 0 0 1 3.019-2.932h16.058a2.95 2.95 0 0 1 3.019 2.932V544.1a3 3 0 0 1-3.019 3zM181.131 547.1h-16.058a3 3 0 0 1-3.019-3v-17.653a2.95 2.95 0 0 1 3.019-2.932h16.058a2.95 2.95 0 0 1 3.019 2.932V544.1a3 3 0 0 1-3.019 3z" fill="#212121"/><path d="M51.512 465.2l111.763-.446s-4.689-12.555-11.112-25.493c-44.384-2.677-89.089 0-89.089 0-3.019 5.226-7.258 14.595-11.562 25.939z" fill="#99bcd7"/><path d="M135.013 492.542H79.067c-5.267 0-7.13 0-5.4 6.118 1.67 6.055 5.717 8.731 18.113 8.731 5.267 0 10.47 0 15.287-.064 4.753.064 9.956.064 15.223.064 12.461 0 16.443-2.677 18.178-8.731 1.67-6.118-.193-6.118-5.46-6.118z" fill="#212121"/><path d="M135.013 492.415H79.067c-5.4 0-7.194 0-5.267 6.5-.642-3.951 1.285-3.951 5.781-3.951H134.5c4.5 0 6.487 0 5.845 3.951 1.927-6.5.064-6.5-5.331-6.5z" fill="#5d5d5d"/><path d="M126.984 464.946l36.291-.191s-4.689-12.555-11.112-25.493c-14.709-.892-29.418-1.147-42.521-1.147l17.343 26.831zM66.927 493.243c-9.378-2.8-19.976-6.373-24.28-6.373-4.239 0-9.121-.7-9.121 2.422s.321 8.221 3.982 9.624c3.725 1.4 18.884 3.7 20.3 3.7s7.708-2.868 8.992-3.569c.771-.446 1.22-5.481.128-5.8z" fill="#cfe0ee"/><path d="M33.527 489.674c.064 3.123.45 7.9 3.982 9.241 3.725 1.4 18.884 3.7 20.3 3.7s7.708-2.868 8.992-3.569a2.122 2.122 0 0 0 .514-1.147c-11.883 1.53-23.059.446-33.786-8.221z" fill="#99bcd7"/><path d="M147.217 493.243c9.442-2.8 19.976-6.373 24.279-6.373s9.121-.7 9.121 2.422-.257 8.221-3.982 9.624-18.82 3.7-20.3 3.7c-1.413 0-7.644-2.868-8.928-3.569-.835-.446-1.22-5.481-.193-5.8z" fill="#cfe0ee"/><path d="M180.617 489.674c0 3.123-.385 7.9-3.982 9.241-3.725 1.4-18.82 3.7-20.3 3.7-1.413 0-7.644-2.868-8.928-3.569a1.738 1.738 0 0 1-.578-1.147c11.947 1.53 23.123.446 33.786-8.221z" fill="#99bcd7"/><path d="M173.809 504.587c-7.258 1.275-20.811 3.7-27.234 4.079a16.7 16.7 0 0 1-7.065-1.211c-3.019 2.231-7.836 3.25-15.608 3.25-5.845 0-11.562 0-16.829-.064-5.267.064-11.048.064-16.893.064-7.451 0-12.14-.956-15.223-3a17.789 17.789 0 0 1-6.295.956c-6.423-.382-19.976-2.8-27.3-4.079-5.781-1.02-9.827-2.932-12.076-6.373v31.165c0 3.951 1.285 7.2 6.937 7.2H61.66c3.854 0 8.157-2.8 8.735-3.187l.128.51a29.138 29.138 0 0 0 14.067 3.505h46.247a28.452 28.452 0 0 0 14.063-3.562v-.255c1.22.765 5.01 3 8.414 3h25.376c5.717 0 7-3.25 7-7.2v-30.852c-2.312 3.25-6.295 5.035-11.883 6.055z" fill="#393939"/><path d="M173.809 504.587c-7.258 1.275-20.811 3.7-27.234 4.079a16.7 16.7 0 0 1-7.065-1.211c-3.019 2.231-7.836 3.25-15.608 3.25-5.845 0-11.562 0-16.829-.064-5.267.064-11.048.064-16.893.064-7.451 0-12.14-.956-15.223-3a17.789 17.789 0 0 1-6.295.956c-6.423-.382-19.976-2.8-27.3-4.079-5.781-1.02-9.827-2.932-12.076-6.373v31.165c0 3.951 1.285 7.2 6.937 7.2H61.66c3.854 0 8.157-2.8 8.735-3.187l.128.51a29.138 29.138 0 0 0 14.067 3.505h46.247a28.452 28.452 0 0 0 14.063-3.562v-.255c1.22.765 5.01 3 8.414 3h25.376c5.717 0 7-3.25 7-7.2v-30.852c-2.312 3.25-6.295 5.035-11.883 6.055z" fill="#2d2d2d"/><path d="M140.151 520.966c-1.863-4.525-5.331-4.78-8.157-4.78H83.242c-2.89 0-6.295.255-8.157 4.78-1.092 2.677-2.89 8.349-4.368 13.065s6.1-10.643 6.809-11.854 1.863-3.441 4.753-3.441h50.293a6.767 6.767 0 0 1 5.524 3.441c.514.892 3.982 6.947 5.909 10.261-1.349-4.334-2.955-9.114-3.854-11.472z" fill="#393939"/><path d="M145.1 533.713a3.3 3.3 0 0 1 .193.319.2.2 0 0 1 .064-.127c-.064-.064-.193-.127-.257-.191z" fill="#464646"/><path d="M62.56 515.294a134.536 134.536 0 0 0-23.252-3.76c-2.312 0-4.946-.127-4.817 9.241.128 9.432 4.56 12.173 8.414 12.364 3.79.127 13.3 0 15.159 0 1.927 0 9.121-1.147 11.048-6.883 2.377-7.138-.771-9.56-6.552-10.962z" fill="#393939"/><path d="M64.487 517.589a122.329 122.329 0 0 0-23.444-3.378c-2.312 0-4.753.446-4.625 9.815s3.276 9.687 7.065 9.815c3.854.127 13.681 0 15.544 0 1.927 0 7.965-.319 9.827-6.055 2.377-7.138 1.413-8.795-4.368-10.2z" fill="#212121"/><path d="M152.419 515.294a134.931 134.931 0 0 1 23.316-3.76c2.312 0 4.946-.127 4.817 9.241-.128 9.432-4.625 12.173-8.414 12.364-3.854.127-13.3 0-15.223 0-1.863 0-9.057-1.147-10.984-6.883-2.377-7.138.771-9.56 6.487-10.962z" fill="#393939"/><path d="M150.493 517.589A123.4 123.4 0 0 1 174 514.211c2.312 0 4.753.446 4.625 9.815s-3.276 9.687-7.065 9.815c-3.854.127-13.681 0-15.608 0-1.863 0-7.9-.319-9.827-6.055-2.377-7.138-1.349-8.795 4.368-10.2zM252.094 547.1h-16.108a3.007 3.007 0 0 1-2.952-3.031V526.2a2.951 2.951 0 0 1 2.952-2.966h16.108a2.951 2.951 0 0 1 2.952 2.966v17.862a3.007 3.007 0 0 1-2.952 3.031zM367.61 547.1H351.5a3.007 3.007 0 0 1-2.952-3.031V526.2a2.951 2.951 0 0 1 2.952-2.966h16.11a2.951 2.951 0 0 1 2.952 2.966v17.862a3.007 3.007 0 0 1-2.952 3.031z" fill="#212121"/><path fill="#282828" d="M243.816 466.362l-5.584-6.255-3.593 1.548 3.337 11.349 5.84-6.642z"/><path d="M227.066 463.654h11.552a2.359 2.359 0 0 0 2.31-2.773l-.963-4.772a2.293 2.293 0 0 0-2.31-1.87h-11.488a2.393 2.393 0 0 0-2.31 2.773l.9 4.772a2.4 2.4 0 0 0 2.31 1.87z" fill="#282828"/><path d="M306.386 474.487L361 468.1l-15.274-35.466a4.536 4.536 0 0 0-3.786-2.708c-6.867-.645-25.349-1.87-39.339-1.87h-.642c-13.99 0-31.767.9-39.339 1.87a4.571 4.571 0 0 0-3.786 2.708L243.495 468.1l54.677 6.384a6.463 6.463 0 0 0 .257.9l3.85-.451 3.851.451a8.467 8.467 0 0 1 .257-.9z" fill="#69afe5"/><path d="M306.258 477.518l52.624-6-14.76-33.532a4.331 4.331 0 0 0-3.658-2.579c-6.61-.516-24.387-1.806-37.863-1.806h-.642c-13.477 0-31.318 1.29-37.863 1.806a4.25 4.25 0 0 0-3.658 2.579l-14.76 33.532 52.624 6a8.456 8.456 0 0 1 .257.9l3.722-.451 3.722.451a8.462 8.462 0 0 1 .257-.9z" fill="#b3d6f2"/><path d="M326.794 475.2l32.088-3.676-14.76-33.532a4.331 4.331 0 0 0-3.658-2.579c-6.61-.516-24.387-1.806-37.863-1.806h-2.824l27.017 41.593z" fill="#fff"/><path d="M284.31 475.97l13.99 1.548a8.456 8.456 0 0 1 .257.9l3.722-.451 3.722.451a8.462 8.462 0 0 1 .257-.9l12.193-1.354-34.141-.193z" fill="#619bb5"/><path fill="#282828" d="M360.615 466.362l5.519-6.255 3.593 1.548-3.272 11.349-5.84-6.642z"/><path d="M377.3 463.654h-11.487a2.326 2.326 0 0 1-2.31-2.773l.9-4.772a2.293 2.293 0 0 1 2.31-1.87H378.2a2.326 2.326 0 0 1 2.31 2.773l-.9 4.772a2.293 2.293 0 0 1-2.31 1.87z" fill="#282828"/><path d="M359.588 466.039H244.137c-4.492 0-14.5 8.19-14.5 15.928s.834 41.27.834 41.27h142.79s.9-33.532.9-41.27-10.076-15.928-14.568-15.928z" fill="#69afe5"/><path d="M373.257 523.237s.9-33.532.9-41.27a10.4 10.4 0 0 0-.642-3.418l-33.949 8.963h-73.995l-35.425-8.77a11.27 11.27 0 0 0-.513 3.224c0 7.738.834 41.27.834 41.27z" fill="#2488d8"/><path d="M227.708 511.179c.128 5.675.257 9.8.257 9.8s7.444 12.252 14.568 12.639a1111.933 1111.933 0 0 0 118.4.451c7.059-.387 14.5-12.7 14.5-12.7s.128-4.127.257-9.866a2.184 2.184 0 0 0-2.182-2.257H229.569a1.882 1.882 0 0 0-1.861 1.935z" fill="#282828"/><path d="M240.35 523.108l20.151.645a1.006 1.006 0 0 1 .9.58l1.219 3.934c.128.516-.321.967-.963.967l-18.354-.645a.913.913 0 0 1-.77-.387l-3.016-3.869c-.449-.516.064-1.225.834-1.225zM364.337 523.108l-20.215.645a.914.914 0 0 0-.834.58l-1.219 3.934c-.193.516.321.967.963.967l18.354-.645a.736.736 0 0 0 .706-.387l3.08-3.869c.385-.516-.064-1.225-.834-1.225z" fill="#f57800"/><path d="M238.1 499.636l24.707 3.224c.642.064 1.091-.193 1.091-.58v-6.642c0-.451-.513-.9-1.155-1.032l-26.183-5.094c-.706-.193-1.284.129-1.155.645l1.412 8.512a1.341 1.341 0 0 0 1.284.967zM366.455 499.636l-24.772 3.224c-.578.064-1.027-.193-1.027-.58v-6.642c0-.451.513-.9 1.155-1.032l26.184-5.094c.706-.193 1.219.129 1.155.645l-1.412 8.512a1.341 1.341 0 0 1-1.284.967z" fill="#fff"/><path fill="#479cdf" d="M266.213 485.256l-14.119-19.088h4.878l9.241 19.088z"/><path fill="#b3d6f2" d="M337.961 485.191l14.118-19.152h-4.877l-9.241 19.152z"/><path fill="#464646" d="M319.222 530.524H285.85v-12.897h33.372v12.897zM375.7 511.63v-.13a2.184 2.184 0 0 0-2.182-2.257H229.569a1.882 1.882 0 0 0-1.861 1.935v.451z"/><path d="M337.062 511.372l-1.925-16.057a2.794 2.794 0 0 0-2.824-2.386h-59.94a2.794 2.794 0 0 0-2.824 2.386l-1.925 16.057a2.7 2.7 0 0 0 2.76 3.031H334.3a2.736 2.736 0 0 0 2.76-3.031z" fill="#212121"/><path d="M32.534 246.745h180.449a4.856 4.856 0 0 0 4.916-4.271 4.692 4.692 0 0 0-4.673-5.111H32.778a4.856 4.856 0 0 0-4.916 4.271 4.692 4.692 0 0 0 4.672 5.111z" fill="#628aaa"/><path d="M151.813 143.574h-21.526V229.4h24.274v-83.078a2.748 2.748 0 0 0-2.748-2.748z" fill="#d83b01"/><path d="M41.289 143.574h101.674a2.854 2.854 0 0 1 2.854 2.854V229.4H38.284v-82.821a3 3 0 0 1 3.005-3.005z" fill="#ff8c00"/><path d="M156.094 175.416a2.98 2.98 0 0 1 2.98-2.986H176.1c3.511 0 4.417 1.019 5.55 3.624s8.382 18.575 8.382 18.575 10.193 3.738 17.1 6.8c2.195.971 4.53 7.475 4.53 7.475v14.837s-37.15 7.7-37.716 7.589-17.744-.34-17.744-.34z" fill="#d83b01"/><rect x="201.949" y="222.378" width="10.978" height="9.967" rx="1.501" ry="1.501" fill="#505050"/><path fill="#32145a" d="M101.573 229.098h99.118v3.247h-99.118z"/><path d="M80.47 222.378a1.251 1.251 0 0 1-1.049-.589 15.349 15.349 0 0 0-25.87 0 1.25 1.25 0 0 1-1.049.589H37.937a1.239 1.239 0 0 0-1.239 1.239v7.49a1.239 1.239 0 0 0 1.239 1.238h110.755a1.031 1.031 0 0 0 1.11-1.11v-7.49a1.253 1.253 0 0 0-1.11-1.367z" fill="#505050"/><circle cx="66.372" cy="230.307" r="12.814"/><circle cx="66.372" cy="230.307" r="8.27" fill="#fff"/><circle cx="66.372" cy="230.307" r="6.684" fill="#f3f3f3"/><path d="M66.373 223.623a6.684 6.684 0 0 0-6.684 6.684h13.367a6.684 6.684 0 0 0-6.683-6.684z" fill="#939393"/><circle cx="66.373" cy="230.307" r="2.788" fill="#737373"/><path d="M149.294 175.416a2.98 2.98 0 0 1 2.98-2.986H169.3c3.511 0 4.417 1.019 5.55 3.624s8.381 18.575 8.381 18.575 10.194 3.738 17.1 6.8c2.195.971 4.53 7.475 4.53 7.475v14.837s-37.15 7.7-37.716 7.589-17.744-.34-17.744-.34z" fill="#ec6401"/><rect x="195.149" y="222.378" width="19.692" height="9.967" rx="1.501" ry="1.501" fill="#505050"/><path d="M198.407 232.345a15.217 15.217 0 1 0-30.129 0z" fill="#505050"/><path d="M158.143 176.168h11.447a1.636 1.636 0 0 1 1.5.976l8.265 18.756a1.638 1.638 0 0 1 .139.66v3.326a1.636 1.636 0 0 1-1.652 1.636l-19.614-.194a1.636 1.636 0 0 1-1.62-1.629l-.1-21.888a1.636 1.636 0 0 1 1.635-1.643z" fill="#b2d7f0"/><path d="M204.862 210.939h-4.2a2.255 2.255 0 0 0-2.255 2.255v3.645a2.255 2.255 0 0 0 2.255 2.255h4.2z" fill="#fff"/><circle cx="183.456" cy="230.307" r="12.814"/><circle cx="183.456" cy="230.307" r="8.27" fill="#fff"/><circle cx="183.456" cy="230.307" r="6.684" fill="#f3f3f3"/><path d="M183.456 223.623a6.684 6.684 0 0 0-6.684 6.684h13.368a6.684 6.684 0 0 0-6.684-6.684z" fill="#939393"/><circle cx="183.456" cy="230.307" r="2.788" fill="#737373"/><path d="M176.319 189.017l-5.232-11.873a1.636 1.636 0 0 0-1.5-.976h-11.444a1.636 1.636 0 0 0-1.636 1.643l.05 11.206z" fill="#fff"/><path d="M491.082 246.745H347.667a4.856 4.856 0 0 1-4.916-4.271 4.692 4.692 0 0 1 4.673-5.111h143.415a4.856 4.856 0 0 1 4.916 4.271 4.692 4.692 0 0 1-4.673 5.111z" fill="#628aaa"/><path d="M373.468 168.6h94.074a24.462 24.462 0 0 1 24.316 24.167v10.054h-118.39z" fill="#d83b01"/><path d="M465.8 168.082h-94.452a24.224 24.224 0 0 0-24.421 23.985v9.979H465.8z" fill="#d83b01"/><path d="M374.754 176.144H462.5a6.927 6.927 0 0 1 6.641 6.9v16.646H356.106v-5.04a18.418 18.418 0 0 1 18.648-18.506z" fill="#b2d7f0"/><path fill="#9c2801" d="M492.047 205.245v27.678H346.926v-30.876h145.121v3.198z"/><path d="M347.265 202.508h144.593v3.127H369.707c-23.7 0-22.442 20.419-22.442 20.419z" fill="#d83b01"/><path d="M453.345 222.9h20.525a5.315 5.315 0 0 1 5.36 5.351v5.013h-31.246v-5.013a5.118 5.118 0 0 1 5.361-5.351z" fill="#3c3c3c"/><g clip-path="url(#a)"><g clip-path="url(#b)"><path d="M451.75 232.024a11.849 11.849 0 0 0 11.687 11.605 11.625 11.625 0 0 0 11.687-11.605 11.425 11.425 0 0 0-11.687-11.631 11.633 11.633 0 0 0-11.687 11.631z"/><path d="M457.45 232.024a6.168 6.168 0 0 0 5.988 5.945 5.978 5.978 0 0 0 6.013-5.945 5.8 5.8 0 0 0-6.013-5.97 5.963 5.963 0 0 0-5.988 5.97z" fill="#fff"/></g></g><path d="M372.523 222.9h20.529a5.3 5.3 0 0 1 5.36 5.351v5.013h-31.244v-5.013a5.119 5.119 0 0 1 5.355-5.351z" fill="#3c3c3c"/><g clip-path="url(#c)"><g clip-path="url(#b)"><path d="M370.961 232.024a11.822 11.822 0 0 0 11.656 11.605 11.627 11.627 0 0 0 11.689-11.605 11.427 11.427 0 0 0-11.689-11.631 11.607 11.607 0 0 0-11.656 11.631z"/><path d="M376.635 232.024a6.185 6.185 0 0 0 5.982 5.945 5.981 5.981 0 0 0 6.014-5.945 5.8 5.8 0 0 0-6.014-5.97 5.977 5.977 0 0 0-5.982 5.97z" fill="#fff"/></g></g><path d="M341.91 229.492a3.475 3.475 0 0 1 3.475-3.438h11.38a3.461 3.461 0 0 1 3.443 3.438 3.562 3.562 0 0 1-3.443 3.773h-11.38a3.574 3.574 0 0 1-3.475-3.773zM478.78 226.054c4.414-.005 13.078 0 13.078 0a3.571 3.571 0 0 1 3.791 3.438 3.653 3.653 0 0 1-3.791 3.773H479.23s.128-5.349-.45-7.211z" fill="#737373"/><path d="M358.762 185.065a18.509 18.509 0 0 1 15.992-8.92H462.5a6.927 6.927 0 0 1 6.641 6.9v2.019z" fill="#fff"/><path fill="#d83b01" d="M442.644 175.801h4.632v26.245h-4.632zM396.329 175.801h4.631v26.245h-4.631z"/><path d="M352.844 215.684h3.6a2.444 2.444 0 0 0 2.444-2.444 2.444 2.444 0 0 0-2.444-2.444h-3.6a2.444 2.444 0 0 0-2.444 2.444 2.444 2.444 0 0 0 2.444 2.444z" fill="#f57800"/><path d="M491.854 210.8h2.058a2.444 2.444 0 1 1 0 4.889h-2.058z" fill="#d83b01"/><path d="M714.282 246.745H570.867a4.856 4.856 0 0 1-4.916-4.271 4.692 4.692 0 0 1 4.673-5.111h143.414a4.856 4.856 0 0 1 4.916 4.271 4.692 4.692 0 0 1-4.672 5.111z" fill="#628aaa"/><path d="M581.092 233.633l26.709 2.041s13.41-18.254-12.2-18.254-14.509 16.213-14.509 16.213zM676.861 235.934h26.3s16.714-18.726-12.082-19.08-14.218 19.08-14.218 19.08z" fill="#020202"/><circle cx="690.048" cy="232.075" r="11.579" fill="#212121"/><circle cx="690.137" cy="231.778" r="8.313" fill="#d2d2d2"/><circle cx="690.434" cy="232.075" r="2.672" fill="#666"/><circle cx="594.445" cy="232.075" r="11.579" fill="#212121"/><circle cx="594.356" cy="232.163" r="8.313" fill="#d2d2d2"/><circle cx="594.356" cy="232.163" r="2.375" fill="#666"/><path d="M718.616 229.168c-.157-3.147-2.36-2.99-2.36-2.99s-1.1-6.294-2.046-9.442-3.777-4.878-7.4-5.508-27.066-2.833-27.066-2.833-15.5-14.32-20.378-14.477c-12.748-.412-32.809-.787-46.342 0-11.939.694-24.234 12.589-24.234 12.589L575.419 208c-1.967.433-2.724.957-3.265 2.006a127.932 127.932 0 0 0-4.918 12.707s-1.613.63-1.141 3.147c.789 4.207 1.928 6.452 2.715 6.609.336.067 5.955.709 12.282 1.421a13.663 13.663 0 1 1 26.709 2.041h69.059a13.664 13.664 0 1 1 26.3 0h11.993c3.935.003 3.621-3.616 3.463-6.763z" fill="#0078d7"/><path d="M568.81 232.212c.336.067 5.955.709 12.282 1.421a13.779 13.779 0 0 1-.105-1.668 13.611 13.611 0 0 1 3.49-9.119l-17.238-.4v.008s-1.613.63-1.141 3.147c.787 4.209 1.925 6.453 2.712 6.611z" fill="#00188f"/><path d="M645.57 209.807h27.4a.8.8 0 0 0 .539-1.4c-3.645-3.282-12.912-11.227-17.519-11.506-2.264-.137-6.113-.236-8.431-.3a.8.8 0 0 0-.814.67l-1.963 11.6a.8.8 0 0 0 .788.936zM617.683 198.318a.806.806 0 0 0-.944-.925 17.727 17.727 0 0 0-6.859 2.657 86.775 86.775 0 0 0-10.089 8.378.8.8 0 0 0 .56 1.378h14.709a.8.8 0 0 0 .791-.669zM622.517 197.456l-1.932 11.414a.8.8 0 0 0 .791.937h17.878a.8.8 0 0 0 .791-.669l1.982-11.712a.8.8 0 0 0-.792-.938c-5.084 0-12.037.111-17.958.3a.8.8 0 0 0-.76.668z" fill="#b2d7f0"/><path d="M572.518 219.4l2.573-7.719a.732.732 0 0 0-.706-.965c-.782.014-1.868.03-2.769.031-1.223 2.666-2.659 6.621-3.544 9.153h3.751a.732.732 0 0 0 .695-.5z" fill="#d91021"/><path d="M714.163 216.758a6.631 6.631 0 0 0-1.139-2.2H708.4a.8.8 0 0 0-.682 1.214l4.82 7.9a.8.8 0 0 0 .682.383h2.588c-.396-2.076-1.052-5.318-1.645-7.297z" fill="#fff"/><path d="M677.615 226.433h-70.676a13.7 13.7 0 0 1 .763 9.5h69.258a13.7 13.7 0 0 1-.515-3.72 13.552 13.552 0 0 1 1.17-5.78zM716.436 225.839h-14.363a13.37 13.37 0 0 1 1.6 5.864 18.2 18.2 0 0 1-.594 4.231h12.247c3.839 0 3.377-3.414 3.377-7.2a2.627 2.627 0 0 0-2.267-2.895z" fill="#00188f"/><path d="M708.456 228.769v1.86a.555.555 0 0 0 .554.555h9.755c.009-.812-.042-1.658-.083-2.474a6.463 6.463 0 0 0-.047-.495h-9.625a.555.555 0 0 0-.554.554z" fill="#f57800"/><path d="M616.989 202.561l.694-4.1a.8.8 0 0 0-.924-.929 17.74 17.74 0 0 0-6.878 2.661 65.965 65.965 0 0 0-3.2 2.372zM641.183 202.561l.846-5a.8.8 0 0 0-.78-.937c-5.086 0-12.047.111-17.973.3a.794.794 0 0 0-.758.669l-.84 4.966zM666.309 202.561c-3.7-2.8-7.742-5.362-10.322-5.519-2.265-.137-6.116-.236-8.434-.3a.8.8 0 0 0-.811.67l-.872 5.152z" fill="#fff"/><path d="M487.343 118.226h109.765a4.856 4.856 0 0 0 4.916-4.271 4.692 4.692 0 0 0-4.673-5.111H487.586a4.855 4.855 0 0 0-4.916 4.271 4.692 4.692 0 0 0 4.673 5.111z" fill="#628aaa"/><path fill="#505050" d="M489.933 87.664h95.718v16.982h-95.718z"/><path d="M578.331 59.875h-43.866c-2.555 0-11.5 9.172-16.609 18.919-7.24.848-26.405 2.967-33.645 8.476a29.06 29.06 0 0 0 0 17.376h8.089a12.567 12.567 0 0 1 25.127 0h39.607a12.351 12.351 0 0 1 24.7 0h10.647a24.048 24.048 0 0 0-.426-5.509c-.421-18.647-7.235-39.262-13.624-39.262z" fill="#724aad" fill-rule="evenodd"/><circle cx="504.785" cy="104.404" r="10.674"/><circle cx="504.785" cy="104.404" r="6.907" fill="#c2c2c2"/><circle cx="570.086" cy="104.404" r="10.674"/><circle cx="570.086" cy="104.404" r="6.907" fill="#c2c2c2"/><path d="M526.573 78.4H586.5s-4.141-15.438-7.564-15.438h-42.148S528.8 72.826 526.573 78.4zM517.413 78.4h5.25c5.887-9.124 11.027-15.438 11.027-15.438h-3.89s-8.711 6.863-12.387 15.438z" fill="#b2d7f0" fill-rule="evenodd"/><path d="M594.913 99.911a2.611 2.611 0 0 1-2.526 2.316 2.227 2.227 0 0 1-2.105-2.316V97.6a2.227 2.227 0 0 1 2.105-2.316 2.611 2.611 0 0 1 2.526 2.316z" fill="#e81123" fill-rule="evenodd"/><path d="M490.029 98.471c-.628-.974-.942-1.476-.942-1.979 0-1 .314-1.507.942-1.109h.628c.628-.4.942.1.942 1.109 0 .5-.314 1-.942 1.979z" fill="#ff8c00" fill-rule="evenodd"/><path d="M483.227 91.218a39.951 39.951 0 0 0 0 10.046 5.1 5.1 0 0 0 3.349-4.8 5.269 5.269 0 0 0-3.349-5.246z" fill="#fff100" fill-rule="evenodd"/><path d="M587.091 78.4a94.1 94.1 0 0 1 2.059 12.351h4.117a76.811 76.811 0 0 0-2.573-12.351z" fill="#ff8c00" fill-rule="evenodd"/><circle cx="504.785" cy="104.404" r="1.884" fill="#e6e6e6"/><circle cx="570.086" cy="104.404" r="1.884" fill="#e6e6e6"/><path d="M543.893 78.4h29.453l-8-15.438h-28.52l-.209.261z" fill="#fff" fill-rule="evenodd"/><path fill="#724aad" fill-rule="evenodd" d="M557.429 62.963l-1.808 16.982h4.679l1.516-16.982h-4.387z"/><path d="M647.4 118.226h110.113a5.515 5.515 0 0 0 5.526-4.357 5.313 5.313 0 0 0-5.226-6.259H647.7a5.515 5.515 0 0 0-5.527 4.357 5.313 5.313 0 0 0 5.227 6.259z" fill="#628aaa"/><path fill="#505050" d="M751.975 105.839H651.114V89.914h100.861z"/><path d="M710.6 86.9a22.482 22.482 0 0 0 .57-4.409 24.856 24.856 0 0 0-49.7-.53 23.541 23.541 0 0 0 .214 4.417z" fill="#107c10"/><path d="M699.45 65.6l-16.126-.172a6.941 6.941 0 0 0-7.027 6.808l-.139 13.044 31.358.334a20.462 20.462 0 0 0 .519-4.011c.065-6.182-3.364-12.965-8.585-16.003z" fill="#b2d7f0"/><path d="M746.722 79.411l-85.995-.917A15.253 15.253 0 0 0 645.3 93.717c-.108 10.158-.108 11.016-.108 11.016 3.931.2 9.239.1 9.239.1.069-6.514 4.534-12.457 11.917-12.457 7.1 0 11.819 6.063 11.749 12.577 47.876.511 47.445 0 47.445 0a12.026 12.026 0 0 1 12.086-11.817 11.678 11.678 0 0 1 11.457 11.846l12.892.137.108-10.158a15.314 15.314 0 0 0-15.363-15.55z" fill="#65aa0d"/><path d="M675.956 104.2a9.84 9.84 0 0 1-9.835 9.56 9.683 9.683 0 0 1-9.629-9.76 9.519 9.519 0 0 1 9.835-9.539 9.667 9.667 0 0 1 9.629 9.739z"/><path d="M671.231 104.152a5.168 5.168 0 0 1-5.06 4.918 4.985 4.985 0 0 1-4.933-5.025 4.824 4.824 0 0 1 5.039-4.9 4.987 4.987 0 0 1 4.954 5.007z" fill="#fff"/><path d="M746.971 104.96a9.6 9.6 0 1 1-9.364-9.744 9.442 9.442 0 0 1 9.364 9.744z"/><path d="M742.512 104.912a5.167 5.167 0 0 1-5.061 4.918 4.983 4.983 0 0 1-4.932-5.025 4.823 4.823 0 0 1 5.038-4.9 4.986 4.986 0 0 1 4.955 5.007z" fill="#fff"/><path d="M726.911 88.144h-.262l.005-1.125c5.853-5.681 5.853-5.953 5.853-5.953h.261s.255.813-.005.81c-5.591 5.663-5.591 4.5-5.591 4.5zM731.918 87.59h-.261c-.259-.26-.256-.517.005-.515l5.569-5.684.522.006c.28.26.277.539-.006.536l-5.569 5.663zM736.643 87.64h-.265l.005-.515 5.857-5.681.522.005-.006.536-5.856 5.66zM741.651 87.694h-.265c-.254-.26-.251-.517.005-.515l5.573-5.684.522.005c.28.26.277.539-.006.536l-5.572 5.664z" fill="#107c10"/><path d="M757.225 94.658a1.987 1.987 0 0 1-1.869 1.8 1.987 1.987 0 0 1-1.83-1.841l.058-5.486a1.794 1.794 0 0 1 1.869-1.8 1.8 1.8 0 0 1 1.83 1.842z" fill="#fff"/><path fill="none" d="M645.206 112.917l.601-56.112 117.382 1.258-.602 56.112z"/><path d="M707.848 79.383c-.753-5.392-3.9-10.782-8.4-13.4l-5.662-.06 6.03 13.377z" fill="#fff"/><rect x="757.283" y="98.761" width="10.617" height="7.078" rx="1.248" ry="1.248" transform="rotate(180 762.591 102.3)" fill="#505050"/><path d="M449.753 118.226H332.109a5.684 5.684 0 0 1-5.755-5 5.492 5.492 0 0 1 5.47-5.983h117.644a5.684 5.684 0 0 1 5.755 5 5.492 5.492 0 0 1-5.47 5.983z" fill="#628aaa"/><g clip-path="url(#d)"><path d="M445.083 97.323a1.713 1.713 0 0 1 1.807 1.337 1.8 1.8 0 0 1-1.807 1.1 1.771 1.771 0 0 1-1.788-1.1 1.693 1.693 0 0 1 1.788-1.337z" fill="#ff8c00"/><path d="M350.138 68.873s-8.326 10.682-9.666 13.357v1.778h5.382l8.326-13.358z" fill="#c2c2c2"/><path d="M367.58 93.043v10.843h48.793V93.043h25.3v16.265H340.472V93.043h27.108z"/><path d="M418.18 81.052a56.067 56.067 0 0 0-10.56-12.02 4.161 4.161 0 0 0-3.371 1.777l10.113 13.357 3.818-2.9z" fill="#d2d2d2"/><path d="M344.136 105.109a9.106 9.106 0 1 0 18.212 0 9.106 9.106 0 1 0-18.212 0z" fill="#262729"/><path d="M347.5 105.109a5.786 5.786 0 0 0 5.851 5.79 5.79 5.79 0 1 0 0-11.58 5.786 5.786 0 0 0-5.851 5.79z" fill="#b2b2b2"/><path d="M351.773 105.109a1.5 1.5 0 0 0 1.582 1.337 1.429 1.429 0 0 0 1.34-1.337 1.481 1.481 0 0 0-1.34-1.557 1.534 1.534 0 0 0-1.582 1.557z" fill="#505050"/><path d="M420.8 105.109a9.108 9.108 0 1 0 18.215 0 9.108 9.108 0 1 0-18.215 0z" fill="#262729"/><path d="M424.168 105.109a5.782 5.782 0 0 0 5.848 5.79 5.79 5.79 0 1 0 0-11.58 5.781 5.781 0 0 0-5.848 5.79z" fill="#b2b2b2"/><path d="M428.451 105.109a1.486 1.486 0 0 0 1.564 1.337 1.449 1.449 0 0 0 1.359-1.337 1.5 1.5 0 0 0-1.359-1.557 1.519 1.519 0 0 0-1.564 1.557z" fill="#505050"/><path d="M407.088 69.55H351.1s2.255-4.452 27.213-4.452c21.363.002 25.404.88 28.775 4.452z" fill="#008272"/><path d="M443.3 105.693a4.558 4.558 0 0 0 1.992-2.362V87.14c-7.636-4.672-27.211-5.57-27.211-5.57s-2.7 2.016-3.595 1.118c-.894-1.118-6.071-8.465-7.86-10.242-1.806-1.8.895-2.9.895-2.9h-57.31a1.357 1.357 0 0 1 1.34 2.157c-.666.879-5.844 7.787-6.737 9.344s-2.483 1.337-2.483 1.149h-1.791c-4.284 3.524-5.177 7.1-5.49 9.094v5.79c.312 2.455.986 9.362 5.27 9.362 0 1.778 1.959 1.558 1.959 1.558v-2.675s4.778-11.359 11.076-11.359a11.326 11.326 0 0 1 10.786 8.025l.447 1.118c.462 1.337.908 1.777 2.475.774h48.8c2.7 1 3.148-.774 3.148-.774l.447-1.118a11.122 11.122 0 0 1 10.784-8.025c4.731 0 8.326 2.894 10.356 6.687.894 1.778.67 5.35.67 5.036z" fill="#008272"/><path d="M445.287 86.841a1.781 1.781 0 0 1 1.807 1.778v5.81a1.943 1.943 0 0 1-1.807 1.778z" fill="#fff"/><path d="M378.423 82.116a1.9 1.9 0 0 1-1.923 1.892h-23.635a1.093 1.093 0 0 1-1.061-1.684l6.172-9.491a4.028 4.028 0 0 1 2.774-1.475h15.75a1.912 1.912 0 0 1 1.923 1.891z" fill="#b2d7f0"/><path d="M382.152 84.008a1.9 1.9 0 0 1-1.923-1.892v-8.867a1.912 1.912 0 0 1 1.923-1.891H397.9a4.426 4.426 0 0 1 2.981 1.475l8.1 9.7c.635.85.211 1.475-.635 1.475z" fill="#969696"/><path d="M448.9 101.775c0 .66-.447 1.118-1.117.3H443.3c-.689.813-1.136.355-1.136-.3 0-.678.447-1.118 1.136-1.5h4.489c.666.382 1.111.825 1.111 1.5z" fill="#262729"/><path d="M447.095 88.619a3.516 3.516 0 0 1 1.564 2.913 3.074 3.074 0 0 1-1.564 2.657z" fill="#fff"/><path d="M334.123 91.236h2.735v7.229h-2.721a.9.9 0 0 1-.893-.893v-5.457a.882.882 0 0 1 .879-.879z" fill="#dc3c00"/></g><g clip-path="url(#d)"><path fill="#fff" d="M443.48 96.658h1.807v3.614h-1.807z"/><path d="M382.152 84.008a1.9 1.9 0 0 1-1.923-1.892v-8.867a1.912 1.912 0 0 1 1.923-1.891H397.9a4.426 4.426 0 0 1 2.981 1.475l8.1 9.7c.635.85.211 1.475-.635 1.475z" fill="#b2d7f0"/></g><g clip-path="url(#e)"><g clip-path="url(#d)"><path fill="#dfdfdf" d="M398.763 69.532l-14.379 14.476h28.329L401.91 69.753l-3.147-.221z"/></g></g><g clip-path="url(#f)"><g clip-path="url(#d)"><path fill="#dfdfdf" d="M374.567 71.357l-14.801 14.458h18.657V71.357h-3.856z"/><path fill="#c2c2c2" d="M383.603 71.357l-14.805 14.458h18.66V71.357h-3.855z"/></g></g></svg>