<svg xmlns="http://www.w3.org/2000/svg" viewBox="0 0 800 600"><title>elements-tools-2</title><path d="M800 600H0V0h800z" fill="#fff"/><path d="M283.261 520.568h-95.594a3.717 3.717 0 0 1-3.734-3.694v-42.738a3.717 3.717 0 0 1 3.734-3.694h95.594a3.7 3.7 0 0 1 3.669 3.694v42.738a3.7 3.7 0 0 1-3.669 3.694z" fill="#750000"/><path d="M286.93 474.709v-20.127a3.69 3.69 0 0 0-3.669-3.631h-95.594a3.7 3.7 0 0 0-3.734 3.631v20.127z" fill="#c80912"/><path fill="#828282" d="M289.505 477.257H181.358v-4.268h108.147v4.268z"/><path d="M273.8 520.568h-95.6a3.717 3.717 0 0 1-3.734-3.694v-42.738a3.717 3.717 0 0 1 3.734-3.694h95.6a3.662 3.662 0 0 1 3.669 3.694v42.738a3.662 3.662 0 0 1-3.669 3.694z" fill="#a80000"/><path d="M277.467 480.633v-6.5a3.662 3.662 0 0 0-3.669-3.694H178.2a3.717 3.717 0 0 0-3.734 3.694v6.5z" fill="#750000"/><path d="M219.081 440.761h21.565a2.461 2.461 0 0 1 2.511 2.484v8.535H216.57v-8.535a2.461 2.461 0 0 1 2.511-2.484zm34.89 13.567a1.554 1.554 0 0 0 .322-.955V449.1a1.626 1.626 0 0 0-1.609-1.592h-5.214v-3.5a6.655 6.655 0 0 0-6.695-6.624h-20.922a6.669 6.669 0 0 0-6.759 6.624v3.5h-5.214a1.626 1.626 0 0 0-1.609 1.592v4.267a1.554 1.554 0 0 0 .322.955z" fill="#b2b2b2"/><path d="M277.467 474.709v-20.127a3.648 3.648 0 0 0-3.669-3.631H178.2a3.7 3.7 0 0 0-3.734 3.631v20.127z" fill="#e81123"/><path fill="#828282" d="M204.533 483.18H189.92v-8.471h14.613v8.471zM263.756 483.18h-14.613v-8.471h14.613v8.471z"/><path d="M266.653 474.709h11.716v-20.127a3.7 3.7 0 0 0-3.734-3.631h-31.994l24.011 23.758z" fill="#ee4d5a"/><path fill="#b2b2b2" d="M280.042 477.257H171.96v-4.268h108.082v4.268z"/><path d="M193.01 518.912l-1.931-1.975c0-.064-.064-.127-.193-.064l-5.343 1.911c-.064.064-.129.127-.129.191v.828l.772-.191a10.589 10.589 0 0 0 2.832 1.4 11.589 11.589 0 0 0 4.764.255l-.772-2.357z" fill="#828282"/><path d="M205.305 512.543a9.123 9.123 0 0 1-2.768-.318c-1.03-.382-8.883-5.669-8.883-5.669a6.4 6.4 0 0 0-5.214 1.146 13.458 13.458 0 0 0-4.184 5.287v.064h-.064l.064.892.966-1.019 5.15-1.783c.129 0 .257.064.257.191l3.154 9.936a22.347 22.347 0 0 1 4.249-2.675c1.545-.51 5.214-1.656 5.214-1.656l3.283-.191-1.223-4.2z" fill="#828282"/><path d="M205.305 513.371a9.123 9.123 0 0 1-2.768-.318c-1.03-.318-8.883-5.6-8.883-5.6s-2.253-.764-5.15 1.146a13.068 13.068 0 0 0-4.249 5.223c-.064.127.064.318.193.255l5.922-2.038a.236.236 0 0 1 .322.127l3.09 9.936a22.042 22.042 0 0 1 4.313-2.611c1.481-.51 5.15-1.656 5.15-1.656l3.283-.255-1.223-4.2z" fill="#d2d2d2"/><path d="M190.95 517.7l-5.407 1.975c-.129 0-.129.127-.064.191a9.175 9.175 0 0 0 3.541 2.038 12.3 12.3 0 0 0 4.764.191l-.772-2.293-1.867-2.038a.238.238 0 0 0-.193-.064z" fill="#d2d2d2"/><path d="M199.512 517.575l-3.476.955a.828.828 0 0 1-1.03-.573l-.772-2.8a.779.779 0 0 1 .579-.955l3.476-.955a.738.738 0 0 1 .966.573l.837 2.739a.87.87 0 0 1-.579 1.019z"/><path d="M198.868 517.065l-2.7.7c-.064.064-.193 0-.193-.127l-.837-2.866c0-.064.064-.191.129-.191l2.639-.764c.129 0 .258.064.258.127l.837 2.866a.33.33 0 0 1-.129.255z" fill="#3c3c3c"/><path fill="#737373" d="M195.52 517.511l.193.637 3.348-2.293-.129-.573-3.412 2.229zM195.263 516.619l.193.637 3.347-2.293-.193-.573-3.347 2.229zM194.941 515.728l.193.637 3.412-2.293-.193-.574-3.412 2.23z"/><path d="M242.835 518.467a2.431 2.431 0 0 1-3.347-.255 2.343 2.343 0 1 1 3.6-2.994 2.3 2.3 0 0 1-.258 3.248zm-1.352-6.306l-37.4-.892a.429.429 0 0 0-.451.382l-.258 5.478a.622.622 0 0 0 .515.637l36.693 3.312a4.621 4.621 0 0 0 4.12-1.4 4.557 4.557 0 0 0 .322-5.669 4.767 4.767 0 0 0-3.541-1.847z" fill="#6597bf"/><path d="M242.77 519.167a2.357 2.357 0 0 1-3.283-.255 2.319 2.319 0 1 1 3.541-2.994 2.242 2.242 0 0 1-.258 3.248zm-1.352-6.306l-37.4-.892a.413.413 0 0 0-.386.382l-.322 5.478a.68.68 0 0 0 .579.637l36.693 3.312a4.558 4.558 0 0 0 4.056-1.4 4.393 4.393 0 0 0 .322-5.669 4.661 4.661 0 0 0-3.541-1.847z" fill="#45779e"/><path fill="#750000" d="M462.459 395.49H338.428v125.036h124.031V395.49z"/><path d="M462.459 397.212v-5.869a2.61 2.61 0 0 0-2.695-2.616H341.123a2.649 2.649 0 0 0-2.695 2.616v5.869z" fill="#a80000"/><path d="M328.483 453.542a1.147 1.147 0 0 1-1.155-1.148V434.4a1.147 1.147 0 0 1 1.155-1.148 1.708 1.708 0 0 1 1.412 1.148v17.99a1.708 1.708 0 0 1-1.412 1.148z" fill="#939393"/><path d="M332.846 438.04h-5.069a1.339 1.339 0 0 1-1.283-1.34v-11.8a1.3 1.3 0 0 1 1.283-1.34h5.069a1.3 1.3 0 0 1 1.283 1.34v11.8a1.339 1.339 0 0 1-1.283 1.34z" fill="#b2b2b2"/><path d="M462.652 453.542a1.967 1.967 0 0 0 1.54-1.148V434.4a1.967 1.967 0 0 0-1.54-1.148.979.979 0 0 0-1.027 1.148v17.99a.979.979 0 0 0 1.027 1.148z" fill="#828282"/><path d="M458.674 438.04h5.069a1.4 1.4 0 0 0 1.347-1.34v-11.8a1.351 1.351 0 0 0-1.347-1.34h-5.069a1.3 1.3 0 0 0-1.283 1.34v11.8a1.339 1.339 0 0 0 1.283 1.34z" fill="#b2b2b2"/><path fill="#a80000" d="M454.759 395.49h-124.03v125.036h124.03V395.49z"/><path fill="#a80000" d="M454.759 395.49h-124.03v125.036h124.03V395.49z"/><path d="M454.759 397.212v-5.869a2.61 2.61 0 0 0-2.695-2.616h-118.64a2.649 2.649 0 0 0-2.695 2.616v5.869z" fill="#e81123"/><path fill="#b2b2b2" d="M400.861 400.593h-17.068v-7.655h17.068v7.655zM395.728 406.143a2.089 2.089 0 0 1-2.117 2.105 2.137 2.137 0 0 1 0-4.274 2.1 2.1 0 0 1 2.117 2.169z"/><path d="M441.541 440.592h-96.568c-7.7 0-7.7-6.826-7.7-6.826h111.9a7.181 7.181 0 0 1-7.636 6.826zM441.541 474.594h-96.568c-7.7 0-7.7-6.826-7.7-6.826h111.9a7.181 7.181 0 0 1-7.636 6.826z" fill="#750000"/><path d="M441.541 438.87h-96.568c-7.7 0-7.7-5.1-7.7-5.1h111.9s-.257 5.1-7.636 5.1zM441.541 472.043h-96.568c-7.7 0-7.7-5.1-7.7-5.1h111.9s-.257 5.1-7.636 5.1z" fill="#b2b2b2"/><path fill="#e81123" d="M454.759 431.533v-36.937h-37.087l37.087 36.937z"/><path d="M441.541 425.282h-96.568c-7.7 0-7.7-6.826-7.7-6.826h111.9a7.181 7.181 0 0 1-7.636 6.826z" fill="#750000"/><path d="M441.541 423.559h-96.568c-7.7 0-7.7-5.1-7.7-5.1h111.9s-.257 5.1-7.636 5.1z" fill="#b2b2b2"/><path fill="none" stroke="#750000" stroke-miterlimit="1" stroke-width=".702" d="M449.241 514.976H337.145v-102.9h112.096v102.9z"/><path d="M421.971 397.212h32.852v-5.869a2.666 2.666 0 0 0-2.759-2.616h-38.627l8.534 8.485z" fill="#ee4d5a"/><path d="M345.871 468.853l1.925-1.978a.233.233 0 0 0 .064-.191l-2.246-5.295a.224.224 0 0 0-.128-.064l-.834.064.193.766a10.481 10.481 0 0 0-1.283 2.807 11.473 11.473 0 0 0 0 4.721l2.31-.829z" fill="#828282"/><path d="M352.93 480.655a8.539 8.539 0 0 1 .128-2.743c.321-1.021 5.262-8.995 5.262-8.995a6.113 6.113 0 0 0-1.347-5.1 14.259 14.259 0 0 0-5.518-3.955h-.128l-.834.064 1.027.957 2.053 4.976c0 .128-.064.255-.128.255l-9.881 3.572a25.867 25.867 0 0 1 2.887 4.147c.577 1.467 1.925 5.04 1.925 5.04l.321 3.254 4.235-1.467z" fill="#828282"/><path d="M352.031 480.719a9.378 9.378 0 0 1 .193-2.743c.321-1.021 5.262-9.059 5.262-9.059a6.181 6.181 0 0 0-1.412-5.04 13.4 13.4 0 0 0-5.518-3.955c-.128 0-.257.128-.193.255l2.31 5.741c.064.128 0 .255-.128.255l-9.817 3.573a22.874 22.874 0 0 1 2.823 4.147c.577 1.467 1.925 5.04 1.925 5.04l.385 3.253 4.171-1.467z" fill="#d2d2d2"/><path d="M346.962 466.748l-2.182-5.295a.2.2 0 0 0-.257 0 9.791 9.791 0 0 0-1.861 3.572 12.2 12.2 0 0 0 .064 4.721l2.31-.829 1.925-1.978c0-.064.064-.128 0-.191z" fill="#d2d2d2"/><path d="M347.54 475.232l-1.091-3.445a.753.753 0 0 1 .449-1.021l2.823-.893a.841.841 0 0 1 1.027.51l1.091 3.381a.784.784 0 0 1-.513 1.021l-2.759.957a.874.874 0 0 1-1.027-.51z"/><path d="M348.053 474.531l-.9-2.616a.482.482 0 0 1 .128-.255l2.823-.893c.128-.064.257 0 .257.128l.9 2.552c0 .128-.064.255-.128.255l-2.823.957c-.128 0-.257 0-.257-.128z" fill="#3c3c3c"/><path fill="#737373" d="M347.411 471.277l-.641.192 2.438 3.253.642-.191-2.439-3.254zM348.246 470.958l-.578.192 2.438 3.253.642-.191-2.502-3.254zM349.144 470.639l-.578.192 2.439 3.253.577-.191-2.438-3.254z"/><path d="M348.759 518.1a2.3 2.3 0 0 1 .064-3.253 2.412 2.412 0 0 1 3.337.064 2.322 2.322 0 0 1-.128 3.317 2.278 2.278 0 0 1-3.272-.128zm6.288-1.786l-.962-37.064a.428.428 0 0 0-.385-.447h-5.518a.573.573 0 0 0-.577.574l-1.6 36.49a4.45 4.45 0 0 0 1.925 4.21 4.507 4.507 0 0 0 7.122-3.764z" fill="#6597bf"/><path d="M348.053 518.1a2.246 2.246 0 0 1 .064-3.253 2.412 2.412 0 0 1 3.337.064 2.322 2.322 0 0 1-.128 3.317 2.278 2.278 0 0 1-3.272-.128zm6.288-1.786l-.962-37.064a.428.428 0 0 0-.385-.447h-5.518a.573.573 0 0 0-.577.574l-1.6 36.49a4.45 4.45 0 0 0 1.925 4.21 4.507 4.507 0 0 0 7.122-3.764z" fill="#45779e"/><path d="M394.059 483.972h-4.299v-4.274h4.299v4.274z"/><path fill="#fff" d="M417.159 483.079h-16.298v-1.659h16.298v1.659z"/><path d="M382.574 487.8l-1.861 6.06a1.635 1.635 0 0 1-1.54 1.148h-3.914l3.016-7.464 4.3.255z" fill="#3c3c3c"/><path d="M381.355 509.49h-4.042c-1.861-.383-2.887-1.978-2.438-4.593l5.775-18.564-10.716 2.041-6.034 21.244a2.52 2.52 0 0 0-1.54 2.3v6.182a2.43 2.43 0 0 0 2.438 2.424h16.555a2.43 2.43 0 0 0 2.438-2.424v-6.188a2.43 2.43 0 0 0-2.438-2.424z" fill="#ffcb40"/><path d="M362.362 516.252v3.317a2.575 2.575 0 0 0 2.438 2.679h16.555a2.575 2.575 0 0 0 2.438-2.679v-3.317z" fill="#c78e00"/><path d="M399.193 484.738l2.566-.893v-3.828l-2.566-1.084v5.805z"/><path d="M398.936 485.631h-4.62a1.1 1.1 0 0 1-1.155-1.085v-5.486a1.135 1.135 0 0 1 1.155-1.085h4.62a1.078 1.078 0 0 1 1.091 1.085v5.486a1.041 1.041 0 0 1-1.091 1.085z" fill="#3c3c3c"/><path fill="#737373" d="M398.294 480.527h-4.235v-.829h4.235v.829zM398.294 482.25h-4.235v-.83h4.235v.83zM398.294 483.972h-4.235v-.893h4.235v.893z"/><path d="M390.4 487.545l-6.609.829.257-11.611 6.545.829a.972.972 0 0 1 .9.957v7.655a1.379 1.379 0 0 1-1.091 1.34z" fill="#3c3c3c"/><path d="M382.831 488.183h-23.806a1.788 1.788 0 0 1-1.8-1.786v-8.357a1.776 1.776 0 0 1 1.8-1.722h23.805a1.736 1.736 0 0 1 1.8 1.722v8.36a1.749 1.749 0 0 1-1.8 1.786z" fill="#ffcb40"/><path fill="#c78e00" d="M373.527 479.698h-13.732v-1.722h13.732v1.722z"/><path d="M357.229 482.25v4.274a1.767 1.767 0 0 0 1.8 1.659h23.869a1.708 1.708 0 0 0 1.732-1.659v-4.274z" fill="#f0ae00"/><path fill="#737373" d="M366.661 483.972h-6.866v-.893h6.866v.893zM366.661 485.631h-6.866v-.829h6.866v.829zM366.661 486.524h-6.866v-.893h6.866v.893z"/><path d="M517.821 516.7a5.6 5.6 0 1 1-5.6-5.549 5.577 5.577 0 0 1 5.6 5.549zM626.723 516.7a5.564 5.564 0 1 1-5.6-5.549 5.577 5.577 0 0 1 5.6 5.549z"/><path fill="#750000" d="M509.201 488.19V321.53h124.405v191.343H509.201"/><path d="M633.606 323.252v-5.868a2.653 2.653 0 0 0-2.7-2.615H511.967a2.669 2.669 0 0 0-2.766 2.615v5.868z" fill="#a80000"/><path fill="#a80000" d="M625.887 512.873V321.53h-124.34v191.343"/><path d="M625.887 513.064V321.53h-124.34v191.534s124.469-.128 124.34 0z" fill="#a80000"/><path d="M625.887 323.252v-5.868a2.653 2.653 0 0 0-2.7-2.615H504.248a2.613 2.613 0 0 0-2.7 2.615v5.868z" fill="#e81123"/><path fill="#b2b2b2" d="M530.686 326.632h-17.175v-7.654h17.175v7.654zM565.807 332.181a2.091 2.091 0 0 1-2.123 2.1 2.137 2.137 0 0 1 0-4.273 2.106 2.106 0 0 1 2.123 2.169z"/><path d="M612.314 404h-96.809c-7.719 0-7.719-6.761-7.719-6.761h112.247s-.257 6.761-7.719 6.761z" fill="#750000"/><path d="M612.314 402.34h-96.809c-7.719 0-7.719-5.1-7.719-5.1h112.247s-.257 5.1-7.719 5.1z" fill="#b2b2b2"/><path d="M612.314 439.716h-96.809c-7.719 0-7.719-6.761-7.719-6.761h112.247s-.257 6.761-7.719 6.761z" fill="#750000"/><path d="M612.314 438.058h-96.809c-7.719 0-7.719-5.1-7.719-5.1h112.247s-.257 5.1-7.719 5.1z" fill="#b2b2b2"/><path d="M612.314 475.433h-96.809c-7.719 0-7.719-6.761-7.719-6.761h112.247s-.257 6.761-7.719 6.761z" fill="#750000"/><path d="M612.314 472.882h-96.809c-7.719 0-7.719-5.1-7.719-5.1h112.247s-.257 5.1-7.719 5.1z" fill="#b2b2b2"/><path fill="#e81123" d="M625.887 358.395V321.53h-37.18l37.18 36.865z"/><path d="M612.314 351.315h-96.809c-7.719 0-7.719-6.825-7.719-6.825h112.247a7.212 7.212 0 0 1-7.719 6.825z" fill="#750000"/><path d="M612.314 349.593h-96.809c-7.719 0-7.719-5.1-7.719-5.1h112.247s-.257 5.1-7.719 5.1z" fill="#b2b2b2"/><path d="M612.314 368.281h-96.809c-7.719 0-7.719-6.761-7.719-6.761h112.247s-.257 6.761-7.719 6.761z" fill="#750000"/><path d="M612.314 366.623h-96.809c-7.719 0-7.719-5.1-7.719-5.1h112.247s-.257 5.1-7.719 5.1z" fill="#b2b2b2"/><path fill="none" stroke="#750000" stroke-miterlimit="1" stroke-width=".702" d="M620.29 337.284H507.915v167.489H620.29V337.284z"/><path d="M593.017 323.252h32.87v-5.868a2.653 2.653 0 0 0-2.7-2.615H584.4l8.62 8.483z" fill="#ee4d5a"/><path fill="#b2b2b2" d="M613.858 326.632h-17.175v-7.654h17.175v7.654z"/><path d="M520.715 468.864l1.93-1.977a.119.119 0 0 0 0-.191l-2.187-5.294a.225.225 0 0 1-.129-.064l-.9.064.257.765a10.43 10.43 0 0 0-1.351 2.806 12.169 12.169 0 0 0 .064 4.72l2.316-.829z" fill="#828282"/><path d="M527.727 480.664a9.416 9.416 0 0 1 .193-2.743c.322-1.02 5.275-8.993 5.275-8.993a6.294 6.294 0 0 0-1.415-5.1 13.434 13.434 0 0 0-5.532-3.954h-.064l-.9.064 1.094.957 1.994 4.975c.064.128 0 .255-.129.255l-9.842 3.572a22.869 22.869 0 0 1 2.83 4.146c.579 1.467 1.93 5.039 1.93 5.039l.386 3.253 4.181-1.467z" fill="#828282"/><path d="M526.891 480.727a8.516 8.516 0 0 1 .129-2.743c.322-1.02 5.275-9.057 5.275-9.057a5.972 5.972 0 0 0-1.351-5.039c-1.672-2.3-4.567-3.508-5.532-3.954a.276.276 0 0 0-.257.255l2.38 5.74c0 .128-.064.255-.129.255l-9.906 3.572a25.863 25.863 0 0 1 2.895 4.146c.579 1.467 1.93 5.039 1.93 5.039l.386 3.253 4.181-1.467z" fill="#d2d2d2"/><path d="M521.809 466.759l-2.251-5.294c0-.064-.129-.064-.193 0a9.782 9.782 0 0 0-1.865 3.572 11.441 11.441 0 0 0 0 4.72l2.316-.829 1.93-1.977a.233.233 0 0 0 .064-.191z" fill="#d2d2d2"/><path d="M522.388 475.242l-1.158-3.442a.783.783 0 0 1 .515-1.02l2.766-.893a.792.792 0 0 1 1.029.51l1.158 3.38a.834.834 0 0 1-.515 1.021l-2.766.957a.845.845 0 0 1-1.029-.51z"/><path d="M522.838 474.541l-.838-2.616c-.064-.064 0-.191.129-.255l2.83-.893c.064-.064.193 0 .257.128l.836 2.551c.064.128 0 .255-.129.255l-2.83.957a.258.258 0 0 1-.257-.128z" fill="#3c3c3c"/><path fill="#737373" d="M522.195 471.288l-.579.191 2.444 3.253.579-.191-2.444-3.253zM523.095 470.969l-.643.191 2.509 3.253.579-.191-2.445-3.253zM523.996 470.65l-.643.191 2.444 3.253.643-.191-2.444-3.253z"/><path d="M523.546 518.1a2.244 2.244 0 0 1 .129-3.253 2.342 2.342 0 0 1 3.281.064 2.315 2.315 0 0 1-.064 3.317 2.365 2.365 0 0 1-3.345-.128zm6.3-1.786l-.9-37.057a.438.438 0 0 0-.45-.446h-5.468a.633.633 0 0 0-.643.574l-1.544 36.483a4.525 4.525 0 0 0 1.865 4.21 4.641 4.641 0 0 0 4.953.191 4.479 4.479 0 0 0 2.187-3.954z" fill="#6597bf"/><path d="M522.838 518.1a2.244 2.244 0 0 1 .129-3.253 2.343 2.343 0 0 1 3.281.064 2.315 2.315 0 0 1-.064 3.317 2.365 2.365 0 0 1-3.345-.128zm6.3-1.786l-.9-37.057a.438.438 0 0 0-.45-.446h-5.468a.633.633 0 0 0-.643.574l-1.544 36.483A4.525 4.525 0 0 0 522 520.08a4.641 4.641 0 0 0 4.953.191 4.479 4.479 0 0 0 2.187-3.954z" fill="#45779e"/><path fill="#3c3c3c" d="M600.993 509.493h-20.841l-10.035 8.546v2.488h30.876v-11.034z"/><path fill="#b2b2b2" d="M579.573 522.249h-9.456V443.16h9.456v79.089z"/><path fill="#939393" d="M579.573 522.249h-3.474V443.16h3.474v79.089z"/><path fill="#3c3c3c" d="M580.409 522.249h-.836V443.16h.836v79.089z"/><path fill="#d2d2d2" d="M577 522.249h-4.31V443.16H577v79.089z"/><path fill="#ec6401" d="M600.993 510.322h-20.841l-10.035 8.546v2.488h30.876v-11.034z"/><path fill="#d83b01" d="M582.725 513.702h16.595v-1.658h-17.625l-7.268 6.761v1.722h.064l8.234-6.825z"/><path fill="#939393" d="M572.69 444.819h-2.573v.893h2.573v-.893zM572.69 447.37h-2.573v.893h2.573v-.893zM572.69 449.921h-2.573v.893h2.573v-.893zM572.69 453.365h-2.573v-.893h2.573v.893zM572.69 455.916h-2.573v-.892h2.573v.892zM572.69 458.468h-2.573v-.893h2.573v.893zM572.69 461.019h-2.573v-.893h2.573v.893zM572.69 463.57h-2.573v-.893h2.573v.893zM572.69 466.121h-2.573v-.893h2.573v.893zM572.69 468.673h-2.573v-.893h2.573v.893zM572.69 471.224h-2.573v-.893h2.573v.893zM572.69 473.775h-2.573v-.893h2.573v.893zM572.69 476.326h-2.573v-.893h2.573v.893zM572.69 478.878h-2.573v-.893h2.573v.893zM572.69 481.429h-2.573v-.893h2.573v.893zM572.69 483.98h-2.573v-.893h2.573v.893zM572.69 486.531h-2.573v-.893h2.573v.893zM572.69 489.083h-2.573v-.893h2.573v.893zM572.69 491.634h-2.573v-.893h2.573v.893zM572.69 494.185h-2.573v-.893h2.573v.893zM572.69 496.736h-2.573v-.893h2.573v.893zM572.69 499.288h-2.573v-.893h2.573v.893zM572.69 501.839h-2.573v-.893h2.573v.893zM572.69 504.39h-2.573v-.893h2.573v.893zM572.69 506.941h-2.573v-.893h2.573v.893zM572.69 509.493h-2.573v-.893h2.573v.893zM572.69 512.044h-2.573v-.893h2.573v.893zM572.69 514.595h-2.573v-.893h2.573v.893z"/><path fill="none" stroke="#666" stroke-miterlimit="1" stroke-width=".574" d="M570.117 452.919h4.31M570.117 463.124h4.31M570.117 473.329h4.31M570.117 483.534h4.31M570.117 493.739h4.31M570.117 503.944h4.31M570.117 514.149h4.31"/><path d="M569.281 483.98h-4.31v-4.273h4.31v4.273z"/><path fill="#fff" d="M591.537 483.087h-16.274v-1.658h16.274v1.658z"/><path d="M557.445 487.807l-1.865 6.059a1.507 1.507 0 0 1-1.479 1.148h-3.924l2.959-7.462 4.31.255z" fill="#3c3c3c"/><path d="M555.708 509.493h-4.052c-1.93-.383-2.895-1.977-2.509-4.592l5.789-18.56-10.678 2.041-6.047 21.239a2.52 2.52 0 0 0-1.544 2.3v6.179a2.433 2.433 0 0 0 2.444 2.424h16.6a2.379 2.379 0 0 0 2.38-2.424v-6.187a2.379 2.379 0 0 0-2.38-2.424z" fill="#ffcb40"/><path d="M536.668 516.253v3.317a2.577 2.577 0 0 0 2.444 2.679h16.6a2.527 2.527 0 0 0 2.38-2.679v-3.317z" fill="#c78e00"/><path d="M574.427 484.745l2.573-.892v-3.827l-2.573-1.085v5.804z"/><path d="M574.169 485.638h-4.631a1.1 1.1 0 0 1-1.158-1.084v-5.485a1.137 1.137 0 0 1 1.158-1.084h4.631a1.08 1.08 0 0 1 1.094 1.084v5.485a1.042 1.042 0 0 1-1.094 1.084z" fill="#3c3c3c"/><path fill="#737373" d="M573.526 480.536h-4.245v-.829h4.245v.829zM573.526 482.258h-4.245v-.829h4.245v.829zM573.526 483.98h-4.245v-.893h4.245v.893z"/><path d="M565.614 487.552l-6.625.829.257-11.608 6.561.829a.973.973 0 0 1 .9.957v7.654a1.379 1.379 0 0 1-1.094 1.339z" fill="#3c3c3c"/><path d="M558.024 488.19h-23.865a1.79 1.79 0 0 1-1.8-1.786v-8.355a1.778 1.778 0 0 1 1.8-1.722h23.865a1.738 1.738 0 0 1 1.8 1.722v8.351a1.751 1.751 0 0 1-1.8 1.786z" fill="#ffcb40"/><path fill="#c78e00" d="M548.697 479.707h-13.766v-1.722h13.766v1.722z"/><path d="M532.358 482.258v4.273a1.769 1.769 0 0 0 1.8 1.658h23.929a1.71 1.71 0 0 0 1.737-1.658v-4.273z" fill="#f0ae00"/><path fill="#737373" d="M541.814 483.98h-6.883v-.893h6.883v.893zM541.814 485.638h-6.883v-.829h6.883v.829zM541.814 486.531h-6.883v-.893h6.883v.893z"/><path d="M665.359 234.887H478.22a3.694 3.694 0 0 1-3.742-2.864 3.657 3.657 0 0 1 3.687-4.323H665.3a3.694 3.694 0 0 1 3.742 2.864 3.631 3.631 0 0 1-3.687 4.323z" fill="#b2b2b2"/><path d="M719.532 239.966H580.981a3.739 3.739 0 0 1-3.742-2.918 3.642 3.642 0 0 1 3.633-4.323h138.606a3.731 3.731 0 0 1 3.687 2.864 3.663 3.663 0 0 1-3.633 4.377z" fill="#b2b2b2"/><path d="M648.494 160.156l-11.334-12a4.3 4.3 0 0 0-2.386-1.351V119.63H503.219v36.041h7.917v-28.1h116.426v25.613l-5.911 7.025a12.3 12.3 0 0 0-2.766 7.295v58.142a4.228 4.228 0 0 0 4.23 4.215h24.023a4.24 4.24 0 0 0 4.284-4.215c.108-46.848 0-62.68 0-62.68-.163-.216-1.3-1.243-2.928-2.81z" fill="#a80000"/><path d="M547.739 134.706a16 16 0 0 1-.434-3.945 19.787 19.787 0 0 1 19.9-19.723 20.231 20.231 0 0 1 11.767 3.782 25.146 25.146 0 0 1 21.691-12.428 24.827 24.827 0 0 1 24.837 24.425h6.833a7.89 7.89 0 0 1 5.64 2.378c16.268 17.021 4.392 37.23-12.2 37.23h-82.751a7.512 7.512 0 0 1-4.609-1.945c-12.906-13.455-3.85-29.557 9.327-29.773z" fill="#8ec3ec"/><path d="M539.28 138.164a15.49 15.49 0 0 0-2.061 7.511A15.8 15.8 0 0 0 553 161.4h76.623a19.639 19.639 0 0 0 12.472-4.485 19.912 19.912 0 0 1-16.811 9.564h-76.243a16.115 16.115 0 0 1-15.943-13.13 15.67 15.67 0 0 1 6.182-15.184z" fill="#69afe5"/><path fill="#e81123" d="M506.798 229.861h144.624v-67.003H506.798v67.003z"/><path d="M521.276 216.893s22.288-53.332 130.634-53.332H521.276v53.332z" fill="#ba1121"/><path d="M651.422 229.861v-3.62H523.12a4.3 4.3 0 0 1-4.23 3.62z" fill="#8a0000"/><path d="M524.15 163.182l-14.316-15.022a3.757 3.757 0 0 0-5.748 0l-13.015 14.752a.492.492 0 0 0-.163.432v64.464a2.056 2.056 0 0 0 2.061 2.053h29.012a2.184 2.184 0 0 0 2.169-2.215v-64.464z" fill="#a80000"/><path d="M588.844 235.643a2.519 2.519 0 0 1-2.494-2.486V157.4a2.594 2.594 0 0 1 2.494-2.486h54.444a2.531 2.531 0 0 1 2.332 2.486v75.865a2.43 2.43 0 0 1-2.332 2.378z"/><path d="M590.145 235.643a2.357 2.357 0 0 1-2.332-2.378V157.4a2.452 2.452 0 0 1 2.332-2.486h54.607a2.452 2.452 0 0 1 2.332 2.486v75.865a2.357 2.357 0 0 1-2.332 2.378z" fill="#505050"/><path fill="#ffb900" d="M594.321 229.159h45.551v-67.76h-45.551v67.76z"/><path fill="#969696" d="M642.258 195.982l.163 2.161h1.627l.379-2.161h-2.169z"/><path d="M698.329 233.86l-2.223-4.269 2.82-1.459 2.223 4.377a1.509 1.509 0 0 1-.6 2.053 1.607 1.607 0 0 1-2.223-.7z" fill="#505050"/><path fill="#ffb900" d="M632.66 84.021l-10.412 5.296-5.152 2.647 66.7 129.63 5.315-2.648 10.249-5.241-66.7-129.684z"/><path fill="#505050" d="M616.229 86.237l2.494 4.809 12.31-6.268-2.657-4.809-12.147 6.268z"/><path fill="#737373" d="M701.258 230.186l-1.898-16.481-15.564 7.889 12.473 11.077 4.989-2.485z"/><path fill="#db9d00" d="M617.096 91.964l66.7 129.63 5.315-2.648-66.863-129.629-5.152 2.647zM625.447 70.188A2.5 2.5 0 0 0 622.085 69l-5.857 3.08c-.6.27-1.464.7-2.332 1.135-.759.324-1.627.756-2.223 1.027l-.7.432a2.541 2.541 0 0 0-1.03 3.35L614.6 87.1l5.152-2.756L630 79.05l-4.555-8.862z"/><path d="M619.428 83.751l-5.1-9.942c-.325-.27-.759-.432-1.03-.27a12.33 12.33 0 0 1-1.627.7 3.57 3.57 0 0 0-1.464 4.539l3.959 7.619c.271.432.759.594 1.03.27l3.8-1.891a.807.807 0 0 0 .434-1.027z" fill="#cc8e02"/><path fill="#db9d00" d="M686.887 189.281l-9.652-18.588 2.06-1.135 9.49 18.697-1.898 1.026z"/><path fill="#db9d00" d="M686.887 189.281l-9.652-18.588 1.139-.702 9.706 18.696-1.193.594z"/><path fill="#fff" d="M597.9 222.675h38.339v-48.307H597.9v48.307z"/><path d="M614.331 169.342a2.911 2.911 0 0 1 2.928-2.918 2.88 2.88 0 0 1 2.766 2.918z" fill="#002050"/><path d="M629.3 169.342h-6.887a5.179 5.179 0 1 0-10.357 0H604.9a1.166 1.166 0 0 0-1.193 1.189v4.107a1.2 1.2 0 0 0 1.193 1.189h24.4a1.154 1.154 0 0 0 1.139-1.189v-4.107a1.156 1.156 0 0 0-1.139-1.189z" fill="#505050"/><path d="M629.406 195.982H605a1.352 1.352 0 0 1-1.3-.919 1.408 1.408 0 0 1 1.247-1.945h24.4a1.352 1.352 0 0 1 1.3.919 1.408 1.408 0 0 1-1.247 1.945zM617.042 188.092h-12.31a1.36 1.36 0 0 1-1.247-1.945 1.52 1.52 0 0 1 1.41-.973h11.93a1.539 1.539 0 0 1 1.464.973 1.4 1.4 0 0 1-1.247 1.945zM629.406 200.3H605a1.352 1.352 0 0 1-1.3-.919 1.408 1.408 0 0 1 1.247-1.945h24.4a1.352 1.352 0 0 1 1.3.919 1.408 1.408 0 0 1-1.247 1.945zM629.406 205.384H605a1.334 1.334 0 0 1-1.3-.973 1.408 1.408 0 0 1 1.247-1.945h24.4a1.334 1.334 0 0 1 1.3.973 1.424 1.424 0 0 1-1.247 1.945zM629.406 210.409H605a1.352 1.352 0 0 1-1.3-.919 1.408 1.408 0 0 1 1.247-1.945h24.4a1.288 1.288 0 0 1 1.3.919 1.431 1.431 0 0 1-1.247 1.945zM629.406 214.732H605a1.334 1.334 0 0 1-1.3-.973 1.38 1.38 0 0 1 1.247-1.891h24.4a1.288 1.288 0 0 1 1.3.919 1.408 1.408 0 0 1-1.247 1.945z" fill="#939393"/><path fill="#e81123" d="M138.48 127.609l-35.734 47.521v64.719h83.778V175.13l-35.694-47.521h-12.35z"/><path fill="#8a0000" d="M146.029 127.609l-35.695 47.521v64.719h83.74V175.13l-35.695-47.521h-12.35z"/><path d="M184.2 136.694z" fill="none" stroke="#f0f" stroke-miterlimit="1" stroke-width=".505"/><path d="M331.51 139.994H149.591a2.9 2.9 0 0 1-2.9-2.873v-.427a2.9 2.9 0 0 1 2.9-2.873H331.51a2.862 2.862 0 0 1 2.865 2.873v.427a2.862 2.862 0 0 1-2.865 2.873z" fill="#e81123"/><path fill="#e81123" d="M370.766 175.13l-35.694-47.521h-12.389l-35.695 47.521v64.719h83.778V175.13z"/><path fill="#8a0000" d="M378.316 175.13l-35.695-47.521h-12.35l-35.733 47.521v64.719h83.778V175.13z"/><path d="M274.948 204.83l2.478-.078a2.962 2.962 0 0 0 2.942-3.028l-.426-41.542a2.988 2.988 0 0 0-3.058-2.912l-2.478.039a3 3 0 0 0-2.942 3.067l.426 41.5a3 3 0 0 0 3.058 2.951z" fill="#106ebe"/><path d="M277.271 157.271a3.037 3.037 0 0 1 2.671 2.912l.426 41.542a3.014 3.014 0 0 1-2.555 3.028" fill="#1c4768"/><path d="M271.657 169.888l-.194-9.512v-.039l8.478-.155.116 9.512-8.4.194z" fill="#939393"/><path d="M271.464 160.338l5.846-.116.155 9.59-5.885.116-.116-9.551v-.039z" fill="#fff"/><path d="M260.895 148.768a20.643 20.643 0 0 1-.581-29.118 20.571 20.571 0 0 1 29.036-.582 20.566 20.566 0 0 1-28.455 29.7zm-2.013 2.058a23.431 23.431 0 1 0-.658-33.156 23.3 23.3 0 0 0 .658 33.156zM219.548 187.2v-44.721a12.646 12.646 0 0 0 5.885-10.715 13.083 13.083 0 0 0-7.627-11.8v13.86h-9.33v-13.86a13.374 13.374 0 0 0-7.936 11.8 12.169 12.169 0 0 0 6.194 10.715V187.2a11.875 11.875 0 0 0-6.194 10.754 12.5 12.5 0 0 0 7.936 11.453v-13.86h9.33v13.86a12.574 12.574 0 0 0 1.742-22.207z" fill="#939393"/><path fill="#969696" d="M189.157 223.504h-2.284v-49.539h2.284v49.539z"/><path fill="#969696" d="M189.157 223.504h-2.284v-49.539h2.284v49.539z"/><path fill="#969696" d="M188.654 222.728h-1.278v-1.281h1.278v1.281z"/><path d="M183.582 153.427v31.059h8.866v-31.059a3.2 3.2 0 0 1-1.742-2.834 2.508 2.508 0 0 1 1.742-2.562v-1.825a3.625 3.625 0 0 0-3.523-3.572h-1.781a3.632 3.632 0 0 0-3.562 3.572v1.825a2.537 2.537 0 0 1 1.781 2.562 3.233 3.233 0 0 1-1.781 2.834z" fill="#f30"/><path d="M183.582 153.427v31.059h8.866v-31.059a3.2 3.2 0 0 1-1.742-2.834 2.508 2.508 0 0 1 1.742-2.562v-1.825a3.625 3.625 0 0 0-3.523-3.572h-1.781a3.632 3.632 0 0 0-3.562 3.572v1.825a2.537 2.537 0 0 1 1.781 2.562 3.233 3.233 0 0 1-1.781 2.834z" fill="#f30"/><path d="M185.092 148.03h5.614v-4.892a3.565 3.565 0 0 0-1.781-.5h-1.781a5.686 5.686 0 0 0-2.052.5v4.892zM190.705 153.427h-5.613v31.059h5.613v-31.059z" fill="#c60018"/><path fill="#5e5e5e" d="M188.925 229.173h-1.781l-.271-5.669h2.284l-.232 5.669z"/><path fill="#969696" d="M200.539 223.504h-2.323v-49.539h2.323v49.539zM198.216 223.504l.542 2.835.503-2.835h-1.045zM199.261 223.504l.775 2.835.503-2.835h-1.278z"/><path fill="#5e5e5e" d="M199.494 228.396l.542-2.057-.775-4.349-.503 4.349.503 2.057h.233z"/><path fill="#969696" d="M200.539 223.504h-2.323v-49.539h2.323v49.539zM198.216 223.504l.542 2.835.503-2.835h-1.045zM199.261 223.504l.775 2.835.503-2.835h-1.278z"/><path fill="#5e5e5e" d="M199.494 228.396l.542-2.057-.775-4.349-.503 4.349.503 2.057h.233z"/><path fill="#969696" d="M200.036 222.767h-1.278v-1.32h1.278v1.32z"/><path d="M194.925 153.427v31.059h8.943v-31.059a3.2 3.2 0 0 1-1.82-2.834 2.524 2.524 0 0 1 1.82-2.562v-1.825a3.667 3.667 0 0 0-3.6-3.572h-1.781a3.632 3.632 0 0 0-3.562 3.572v1.825a2.537 2.537 0 0 1 1.781 2.562 3.233 3.233 0 0 1-1.781 2.834z" fill="#f30"/><path d="M194.925 153.427v31.059h8.943v-31.059a3.2 3.2 0 0 1-1.82-2.834 2.524 2.524 0 0 1 1.82-2.562v-1.825a3.667 3.667 0 0 0-3.6-3.572h-1.781a3.632 3.632 0 0 0-3.562 3.572v1.825a2.537 2.537 0 0 1 1.781 2.562 3.233 3.233 0 0 1-1.781 2.834z" fill="#7fba00"/><path d="M196.435 148.03h5.614v-4.892a3.45 3.45 0 0 0-1.781-.5h-1.781a5.686 5.686 0 0 0-2.052.5v4.892zM202.049 153.427h-5.614v31.059h5.614v-31.059z" fill="#008a00"/><path fill="#969696" d="M200.036 222.767h-1.278v-1.32h1.278v1.32zM221.793 142.207a12.909 12.909 0 0 0 .968 4.853.963.963 0 0 0 .31.621c2.9 4.853 3.562 10.677 2.9 13.588h3.562V131.53c-4.181 0-7.743 6.445-7.743 10.677z"/><path fill="#505050" d="M229.536 141.547h-4.53l4.53-10.017v10.017z"/><path d="M237.279 142.207a12.909 12.909 0 0 1-.968 4.853 1.085 1.085 0 0 0-.31.621h-.31c-2.594 4.853-3.252 10.677-2.594 13.588h-3.562V131.53c4.22 0 7.743 6.445 7.743 10.677z" fill="#969696"/><path fill="#333" d="M229.536 141.547h4.53l-4.53-10.017v10.017z"/><path d="M217.264 216.244a2.57 2.57 0 0 0 2.594-2.6c0-22.945 4.53-33.622 7.743-42.357h-5.5c-3.213 8.735-7.394 20.033-7.394 42.357a2.789 2.789 0 0 0 2.555 2.6z" fill="#dc3c00"/><path d="M231.162 171.286h5.807c-.31-.66-.658-1.281-.968-1.941-2.245-5.474-3.871-10.017-3.871-15.84 0 5.164-1.316 9.046-2.594 13.278.658 1.592.968 2.912 1.626 4.5z" fill="#969696"/><path d="M238.9 213.643a2.793 2.793 0 0 0 2.594 2.6 2.561 2.561 0 0 0 2.555-2.6c0-22.324-3.871-33.622-7.085-42.357h-5.807c3.562 8.735 7.743 19.412 7.743 42.357z" fill="#dc3c00"/><path d="M232.13 153.5a2.825 2.825 0 0 0-2.594-2.6 2.57 2.57 0 0 0-2.594 2.6 34.677 34.677 0 0 0 2.594 13.278c1.278-4.232 2.594-8.114 2.594-13.278z" fill="#969696"/><path d="M236 147.681a1.085 1.085 0 0 1 .31-.621c.348-1.32.658-2.291.968-3.572h-7.085v5.824a66.533 66.533 0 0 0 2.9 11.958c-.658-2.912 0-8.735 2.594-13.588z" fill="#505050"/><path fill="#333" d="M229.536 141.547h4.53l-4.53-10.017v10.017z"/><path d="M234.066 146.089a4.53 4.53 0 0 1-9.059 0 4.53 4.53 0 1 1 9.059 0zM223.071 169.345c-.31.66-.619 1.281-.968 1.941h5.5c.31-.311.31-.971.658-1.281l-2.594-7.765c-.658 2.252-1.626 4.542-2.594 7.1zM226.942 153.5a17.614 17.614 0 0 1-.31 4.193c.31 1.32.968 2.6 1.278 3.882a31.831 31.831 0 0 1-.968-8.075z" fill="#969696"/><path d="M227.91 161.58a25.558 25.558 0 0 0 1.626 5.2s-.658-2.291-1.626-5.2z" fill="#505050"/><path d="M227.91 161.58c-.31-1.281-.968-2.562-1.278-3.882a111 111 0 0 0-.968 4.542l2.594 7.76c.31-.971.968-2.252 1.278-3.222a25.558 25.558 0 0 1-1.626-5.2zM266.2 136.034l.039 2.524-1.665.039V136a.839.839 0 0 1 .774-.815.814.814 0 0 1 .852.854z" fill="#505050"/><path fill="#ffb900" d="M261.321 222.146h9.136l-.387-76.872h-3.097l-6.039.039.387 76.833z"/><path fill="#505050" d="M269.528 225.019l-.039-2.835h-7.239l.077 2.912 7.201-.077z"/><path fill="#737373" d="M263.953 137.082l-3.019 8.231 9.136-.039-3.174-8.192h-2.943z"/><path fill="#db9d00" d="M270.457 222.146l-.387-76.872-3.097-.039.465 76.911h3.019zM261.359 230.415a1.307 1.307 0 0 0 1.316 1.32l3.484-.039h1.355c.426.039.929.039 1.278.039h.426a1.36 1.36 0 0 0 1.278-1.359l-.039-5.358-3.058.078-6.039.039v5.28z"/><path d="M267.4 225.446l.039 5.9a.542.542 0 0 0 .426.349 6.558 6.558 0 0 1 .929.039 1.824 1.824 0 0 0 1.742-1.786l-.039-4.5c-.039-.272-.194-.427-.387-.388h-2.245c-.232-.039-.426.194-.465.388z" fill="#cc8e02"/><path d="M261.243 86.572c2.516 1.786 8.556.738 9.446 0 .89-.7 3.175 6.057 3.175 8.774s-1.51 7.959-3.175 5.9c-1.665-2.019-7.782-1.592-9.446-.039-1.7 1.592-2.129-2.873-2.129-4.465s2.129-10.172 2.129-10.172z" fill="#737373"/><path fill="#db9d00" d="M256.326 198.968h-12.737V94.88h12.737v104.088z"/><path fill="#ffb900" d="M249.939 138.635h-6.35V94.88h6.35v43.755z"/><path fill="#15212d" d="M256.326 198.968h-12.737v-60.333h12.737v60.333z"/><path fill="#c60" d="M256.326 106.877h-12.737v-5.164h12.737v5.164z"/><path d="M278.2 101.985h-6.427a1.166 1.166 0 0 1-1.161-1.165V86.96a1.134 1.134 0 0 1 1.161-1.126h6.427a1.134 1.134 0 0 1 1.161 1.126v13.86a1.166 1.166 0 0 1-1.161 1.165zM241.847 85.834c-21.719 0-29.229 14.87-30.778 18.713a1.151 1.151 0 0 0 .387 1.4 1.136 1.136 0 0 0 1.626-.272c1.936-2.718 8.324-10.444 17.925-10.444 7.433 0 9.911 4.271 10.608 6.018a1.228 1.228 0 0 0 1.084.738h17.46a1.193 1.193 0 0 0 1.161-1.165V86.96a1.133 1.133 0 0 0-1.161-1.126z" fill="#b2b2b2"/><path fill="#ba1121" d="M102.553 239.966h191.985v-64.72H102.553v64.72z"/><path d="M207.082 226.96H172.2a.993.993 0 0 1-1.007-.971v-43.133a.474.474 0 0 1 .89-.233l35.385 43.561a.472.472 0 0 1-.387.776zm27.449 11.1L158.3 144.226a1.006 1.006 0 0 0-1.9.466v92.945a2.118 2.118 0 0 0 2.091 2.135h75.222a1.042 1.042 0 0 0 .813-1.708z" fill="#ffb900"/><path d="M206.075 226.96h-34.92a.96.96 0 0 1-.968-.971v-43.133a.452.452 0 0 1 .852-.233l35.385 43.561a.468.468 0 0 1-.348.776zm27.449 11.1l-76.267-93.838a1.007 1.007 0 0 0-1.9.466v92.945a2.126 2.126 0 0 0 2.129 2.135h75.222a1.052 1.052 0 0 0 .813-1.708z" fill="#ec6401"/><path fill="none" d="M213.741 130.56v85.646h30.313V130.56M194.925 142.401v87.354h10.26v-87.354M183.853 142.401v88.092h9.446v-88.092"/></svg>