<svg xmlns="http://www.w3.org/2000/svg" viewBox="0 0 800 600"><title>elements-robots-2</title><path d="M800,600H0V0H800Z" fill="#fff"/><path d="M606.367,537.428h86.292a5.772,5.772,0,0,0,5.826-5.076,5.5,5.5,0,0,0-5.5-6.063H606.661a5.772,5.772,0,0,0-5.826,5.076,5.5,5.5,0,0,0,5.533,6.063Z" fill="#c8c8c8"/><path d="M593.787,405.613l7.58-.058.152,27.906-7.58.039Z" fill="#0078d7"/><path d="M593.889,405.613l7.476-.058.052,9.34-7.476.039Z"/><rect x="588.356" y="381.445" width="42.732" height="24.202" rx="4.957" ry="4.957" transform="translate(-0.796 1.235) rotate(-0.116)" fill="#2488d8"/><path d="M699.763,422.322h7.426V450.17h-7.426Z" fill="#0078d7"/><path d="M699.763,422.322h7.426V431.6h-7.426Z"/><rect x="670.058" y="400.043" width="42.701" height="24.135" rx="4.957" ry="4.957" fill="#2488d8"/><path d="M625.5,426.035h46.414v25.992H625.5Z" fill="#0078d7"/><path d="M625.5,420.814l46.414,9.84v5L625.5,426.1Z"/><path d="M627.357,466.879h7.426v53.84h-7.426Z" fill="#0078d7"/><path d="M627.357,466.879h7.426v9.283h-7.426Z"/><path d="M664.488,466.879h7.426v53.84h-7.426Z" fill="#0078d7"/><path d="M664.488,466.879h7.426v9.283h-7.426Z"/><path d="M699.729,468.736l7.46-.019.033,20.441h-7.46Z" fill="#0078d7"/><path d="M699.746,468.736l7.443-.019.017,9.3-7.443.019Z"/><path d="M694.3,463.166a5.989,5.989,0,0,0,5.59,5.57h7.5a5.607,5.607,0,0,0,5.373-5.057v-15.9a5.618,5.618,0,0,0-5.5-5.039h-7.7a5.607,5.607,0,0,0-5.373,5.057v15.365Z" fill="#2488d8"/><path d="M708.286,500.093a6.442,6.442,0,0,0-4.493-10.545,5.922,5.922,0,0,0-5.887,5.957h0v.095a6.405,6.405,0,0,0,1.5,4.511l-4.474,4.53a12.7,12.7,0,0,1-.018-17.959l.125-.124a12.87,12.87,0,0,1,17.7-.024,12.7,12.7,0,0,1,.28,17.957l-.126.128-.024.024-4.493-4.511Z" fill="#0078d7"/><path d="M664.271,358.884A27.384,27.384,0,0,0,631.9,380.147l-.03.143,53.988,10.861A27.384,27.384,0,0,0,664.41,358.91Z" fill="#2488d8"/><path d="M652.686,375.908l-8.447,3.008a1.857,1.857,0,1,1-1.244-3.49l8.522-3.008a1.857,1.857,0,0,1,1.244,3.49Zm24.284,6.164L670.6,375.76a1.858,1.858,0,0,0-2.618,2.636l6.368,6.312a1.858,1.858,0,0,0,2.618-2.636Z" fill="#231f20"/><path d="M696.538,391.967a3.23,3.23,0,0,1,2.525,3.806l-7.241,36.017a3.23,3.23,0,0,1-3.806,2.525l-76.75-15.446a3.23,3.23,0,0,1-2.451-3.824l7.259-36.036a3.212,3.212,0,0,1,3.713-2.525Z" fill="#69afe5"/><path d="M677.044,409.326a8.633,8.633,0,0,1-9.92,7.116q-.334-.056-.663-.136l-29.408-5.922a8.633,8.633,0,0,1-7.189-9.868q.054-.342.134-.678a9.1,9.1,0,0,1,10.582-6.981l29.5,5.922a9.1,9.1,0,0,1,7.055,10.545Z"/><path d="M593.923,450.17l7.443-.019.033,20.441-7.46.019Z" fill="#0078d7"/><path d="M593.939,450.17l7.426-.019.017,9.3-7.443.019Z"/><path d="M588.37,445.131a5.625,5.625,0,0,0,5.421,5.039h7.744a5.622,5.622,0,0,0,5.4-5.057v-15.9a5.625,5.625,0,0,0-5.419-5.039h-7.744a5.622,5.622,0,0,0-5.4,5.057V445.13Z" fill="#2488d8"/><path d="M602.537,482.158a6.442,6.442,0,0,0-4.493-10.545,5.922,5.922,0,0,0-5.96,5.883v.15a6.405,6.405,0,0,0,1.5,4.511l-4.53,4.53a12.708,12.708,0,1,1,17.971-.019Z" fill="#0078d7"/><path d="M645.074,526.288a10.926,10.926,0,0,0-10.326-9.283h-7.157c-5.57,0-10.326,4.641-10.326,9.283Z" fill="#0078d7"/><path d="M618.075,526.288h25.992v5.57H618.075Z"/><path d="M681.676,526.288c0-4.641-4.719-9.283-10.211-9.283h-7.094a10.85,10.85,0,0,0-10.211,9.283Z" fill="#0078d7"/><path d="M655.205,526.288H681.2v5.57H655.205Z"/><path d="M621.446,466.879a5.57,5.57,0,0,1-5.228-5.2v-8.169a5.087,5.087,0,0,1,4.964-5.2h54.789a5.081,5.081,0,0,1,5.226,4.932v8.438a5.57,5.57,0,0,1-5.228,5.2Z" fill="#69afe5"/><path d="M353.544,393.926h86.294a5.772,5.772,0,0,0,5.826-5.076,5.5,5.5,0,0,0-5.5-6.063H353.819a5.772,5.772,0,0,0-5.826,5.076,5.5,5.5,0,0,0,5.551,6.063Z" fill="#c8c8c8"/><path d="M338.133,247.141l-1.894,8.02-26.326-6.2,1.894-8.02Z" fill="#0078d7"/><path d="M338.133,247.141l-1.894,8.02-8.67-2.042,1.894-8.02Z"/><rect x="344.002" y="235.478" width="24.748" height="42.088" rx="4.957" ry="4.957" transform="translate(33.954 554.601) rotate(-78.5)" fill="#2488d8"/><path d="M458,261.752l2.395-7.89,25.88,7.872-2.395,7.89Z" fill="#0078d7"/><path d="M458,261.752l2.395-7.89,8.522,2.6-2.395,7.89Z"/><rect x="417.708" y="247.259" width="42.701" height="24.135" rx="4.957" ry="4.957" fill="#2488d8"/><path d="M373.151,284.39h46.414v25.992H373.151Z" fill="#0078d7"/><path d="M373.151,278.821h46.414v5.57H373.151Z"/><path d="M369.438,237.533v.444H425.4a27.83,27.83,0,0,0-27.809-27.848h-.743A27.477,27.477,0,0,0,369.438,237.533Z" fill="#2488d8"/><path d="M379.887,226.644a3.713,3.713,0,1,1,3.713,3.713A3.713,3.713,0,0,1,379.887,226.644Zm27.05,0a3.713,3.713,0,1,1,3.713,3.713,3.713,3.713,0,0,1-3.713-3.713Z" fill="#ffb900"/><path d="M375.008,323.378h7.426v53.84h-7.426Z" fill="#0078d7"/><path d="M375.008,325.234h7.426v9.283h-7.426Z"/><path d="M412.139,323.378h7.426v53.84h-7.426Z" fill="#0078d7"/><path d="M412.139,325.234h7.426v9.283h-7.426Z"/><path d="M393.644,384.644a10.926,10.926,0,0,0-10.326-9.283h-7.157c-5.57,0-10.326,4.641-10.326,9.283Z" fill="#0078d7"/><path d="M367.582,384.644h25.992v5.57H367.582Z"/><path d="M430.249,384.644c0-4.641-4.719-9.283-10.211-9.283h-7.079a10.85,10.85,0,0,0-10.211,9.283Z" fill="#0078d7"/><path d="M402.856,384.644h25.992v5.57H402.856Z"/><path d="M310.916,261.4l8.15-1.17,2.8,19.605-8.169,1.151Z" fill="#0078d7"/><path d="M310.916,261.4l8.15-1.17,1.355,9.468-8.169,1.17Z"/><path d="M322.909,254.437a5.57,5.57,0,0,1-4.511,5.885l-7.426,1.058a5.57,5.57,0,0,1-5.978-4.4l-2.376-16.152a5.57,5.57,0,0,1,4.511-5.885l7.426-1.058a5.57,5.57,0,0,1,5.978,4.4l2.306,16.171Z" fill="#2488d8"/><path d="M313.742,292.942a6.387,6.387,0,0,1-2.116-4.27,6.461,6.461,0,0,1,5.087-6.814,6.628,6.628,0,0,1,7.538,5.013,4.567,4.567,0,0,1-1.6,4.79l5.05,3.862A12.29,12.29,0,0,0,315.821,275.9a11.882,11.882,0,0,0-10.178,13.367l.041.275a12.068,12.068,0,0,0,4.251,8.54l3.806-5.1Zm167.832-13.608,8.224.427-1,19.772-8.243-.427Z" fill="#0078d7"/><path d="M481.573,279.333l8.224.427-.483,9.561-8.243-.427Z"/><path d="M477.133,273.912a5.57,5.57,0,0,0,4.92,5.458l7.426.39a5.57,5.57,0,0,0,5.458-4.92l.835-16.3a5.57,5.57,0,0,0-4.92-5.458l-7.426-.39a5.57,5.57,0,0,0-5.365,4.92Z" fill="#2488d8"/><path d="M488.847,312.238a6.442,6.442,0,0,0-3.917-10.824,5.922,5.922,0,0,0-6.268,5.556h0v.162a6.405,6.405,0,0,0,1.262,4.586l-4.641,4.344a12.7,12.7,0,0,1,.894-17.937l.135-.12a12.87,12.87,0,0,1,17.68.88,12.7,12.7,0,0,1-.637,17.947l-.133.122-.039.035-4.251-4.753Z" fill="#0078d7"/><path d="M382.634,209.416l-7.166,5.4a1.857,1.857,0,0,1-2.228-2.97l7.166-5.4a1.857,1.857,0,1,1,2.23,2.969Zm38.987,2.451-7.166-5.4a1.857,1.857,0,0,0-2.228,2.97l7.166,5.4a1.857,1.857,0,0,0,2.228-2.97Z" fill="#231f20"/><path d="M434.876,236.12a3.225,3.225,0,0,1,3.255,3.175v36.3a3.23,3.23,0,0,1-3.23,3.23H355.96a3.23,3.23,0,0,1-3.23-3.23V239.332a3.212,3.212,0,0,1,3.212-3.212Z" fill="#69afe5"/><circle cx="396.67" cy="257.055" r="15.465"/><path d="M404.746,249.665l-1.318-1.318-6.609,6.628-6.609-6.628-1.318,1.318,6.609,6.609-6.609,6.628,1.318,1.3,6.609-6.609,6.609,6.609,1.318-1.3-6.609-6.628Z" fill="#ff8c00"/><path d="M369.1,325.19a5.57,5.57,0,0,1-5.23-5.2v-8.169a5.087,5.087,0,0,1,5.008-5.165h54.741a5.081,5.081,0,0,1,5.229,4.929v8.453a5.57,5.57,0,0,1-5.23,5.2Z" fill="#69afe5"/><path d="M108.5,398.577l1.281,8.15-26.716,4.2-1.288-8.132Z" fill="#0078d7"/><path d="M108.5,398.577l1.281,8.15-8.8,1.374L99.7,399.97Z"/><rect x="108.243" y="387.436" width="42.088" height="24.748" rx="4.957" ry="4.957" transform="translate(-69.727 29.733) rotate(-10.35)" fill="#2488d8"/><path d="M144.9,431.605h46.414V457.6H144.9Z" fill="#0078d7"/><path d="M144.9,426.036h46.414v5.57H144.9Z"/><path d="M139.331,384.562v.629h55.979A27.83,27.83,0,0,0,167.5,357.344h-.943A27.291,27.291,0,0,0,139.331,384.562Z" fill="#2488d8"/><path d="M150.5,374.275a3.713,3.713,0,1,1,3.713,3.713A3.713,3.713,0,0,1,150.5,374.275Zm26.994,0a3.713,3.713,0,1,1,3.713,3.713A3.713,3.713,0,0,1,177.49,374.275Z" fill="#ffb900"/><path d="M138.989,472.449a5.57,5.57,0,0,1-5.228-5.2v-8.169a5.087,5.087,0,0,1,4.966-5.2h54.785a5.081,5.081,0,0,1,5.228,4.931v8.44a5.57,5.57,0,0,1-5.228,5.2Z" fill="#69afe5"/><path d="M146.757,472.449h7.426v53.84h-7.426Z" fill="#0078d7"/><path d="M146.757,472.449h7.426v9.283h-7.426Z"/><path d="M183.888,472.449h7.426v53.84h-7.426Z" fill="#0078d7"/><path d="M183.888,472.449h7.426v9.283h-7.426Z"/><path d="M164.2,531.859a10.926,10.926,0,0,0-10.326-9.283h-7.241c-5.57,0-10.326,4.641-10.326,9.283Z" fill="#0078d7"/><path d="M137.474,531.859h25.992v5.57H137.474Z"/><path d="M200.782,531.859c0-4.641-4.719-9.283-10.211-9.283h-7.055a10.85,10.85,0,0,0-10.211,9.283Z" fill="#0078d7"/><path d="M174.605,531.859H200.6v5.57H174.605Z"/><path d="M86.835,391.226l-8.095,1.6-3.843-19.4,8.076-1.6Z" fill="#0078d7"/><path d="M86.835,391.226l-8.095,1.6-1.857-9.376,8.095-1.6Z"/><path d="M75.232,398.819a5.57,5.57,0,0,1,4.177-6.2l7.426-1.467a5.57,5.57,0,0,1,6.108,4.14l3.175,16a5.57,5.57,0,0,1-4.177,6.127l-7.426,1.467a5.57,5.57,0,0,1-6.108-3.992Z" fill="#2488d8"/><path d="M81.377,359.924a6.387,6.387,0,0,1,2.284,4.159,6.461,6.461,0,0,1-4.641,7.073,6.628,6.628,0,0,1-7.779-4.53,4.567,4.567,0,0,1,1.281-4.938l-5.254-3.565a12.29,12.29,0,0,0,13,18.955,11.882,11.882,0,0,0,9.407-13.923h0l-.05-.241a12.068,12.068,0,0,0-4.7-8.28l-3.527,5.31Zm143.9,40.194-1.467,8.113,26.623,4.753,1.448-8.113Z" fill="#0078d7"/><path d="M225.278,400.118l-1.467,8.113,8.763,1.559,1.467-8.113Z"/><rect x="192.099" y="379.855" width="24.748" height="42.088" rx="4.957" ry="4.957" transform="translate(-229.248 520.962) rotate(-78.45)" fill="#2488d8"/><path d="M247.092,393.212l8.039,1.782,4.27-19.327-8.057-1.782Z" fill="#0078d7"/><path d="M247.092,393.212l8.039,1.782,2.061-9.338-8.039-1.782Z"/><path d="M258.521,401.047a5.57,5.57,0,0,0-4.066-6.2l-7.426-1.634a5.57,5.57,0,0,0-6.294,3.936l-3.446,15.892a5.57,5.57,0,0,0,4.047,6.219l7.426,1.634a5.57,5.57,0,0,0,6.294-3.936l3.509-15.948Z" fill="#2488d8"/><path d="M252.58,362.041a6.387,6.387,0,0,0-2.451,4.084,6.461,6.461,0,0,0,4.549,7.185,6.628,6.628,0,0,0,7.89-4.437,4.567,4.567,0,0,0-1.225-4.9l5.365-3.453a12.29,12.29,0,0,1-13.33,18.677,11.882,11.882,0,0,1-9.177-14.076q.037-.175.08-.349a12.068,12.068,0,0,1,4.883-8.187l3.416,5.384Z" fill="#0078d7"/><path d="M153.188,357.047l-7.174,5.4a1.857,1.857,0,0,1-2.228-2.97l7.166-5.4a1.857,1.857,0,0,1,2.228,2.97Zm38.987,2.451-7.174-5.4a1.857,1.857,0,1,0-2.23,2.969l0,0,7.166,5.4a1.857,1.857,0,0,0,2.228-2.97Z" fill="#231f20"/><path d="M206.625,383.335a3.225,3.225,0,0,1,3.255,3.175v36.3a3.23,3.23,0,0,1-3.23,3.23h-78.94a3.23,3.23,0,0,1-3.23-3.23v-36.3a3.206,3.206,0,0,1,3.236-3.175h78.911Z" fill="#69afe5"/><circle cx="167.205" cy="404.686" r="15.465"/><path d="M164.522,410.121a4.342,4.342,0,0,1-.225-.848,5.421,5.421,0,0,1,.05-2.111,4.27,4.27,0,0,1,.392-1.038,4.93,4.93,0,0,1,.654-.928,8.42,8.42,0,0,1,.913-.878q.557-.464.965-.863a6.106,6.106,0,0,0,.7-.8,3.1,3.1,0,0,0,.434-.826,2.959,2.959,0,0,0,.145-.951,2.163,2.163,0,0,0-.16-.835,1.884,1.884,0,0,0-.457-.659,2.194,2.194,0,0,0-.726-.434,2.709,2.709,0,0,0-.951-.16,6.513,6.513,0,0,0-2.35.472,7.7,7.7,0,0,0-2.3,1.431v-4.363a9.073,9.073,0,0,1,2.438-1,11.1,11.1,0,0,1,2.727-.334,10.118,10.118,0,0,1,2.51.3,5.789,5.789,0,0,1,2.024.928,4.42,4.42,0,0,1,1.35,1.632,5.384,5.384,0,0,1,.486,2.386,5.9,5.9,0,0,1-.2,1.6,5.4,5.4,0,0,1-.594,1.355,6.847,6.847,0,0,1-.971,1.225q-.581.587-1.335,1.21-.509.421-.891.783a4.953,4.953,0,0,0-.639.718,2.785,2.785,0,0,0-.384.754,2.913,2.913,0,0,0-.13.906,2.785,2.785,0,0,0,.095.711,2.042,2.042,0,0,0,.254.609Zm2.118,6.353a2.764,2.764,0,0,1-1.929-.7,2.274,2.274,0,0,1-.769-1.712,2.176,2.176,0,0,1,.769-1.7,2.8,2.8,0,0,1,1.929-.681,2.729,2.729,0,0,1,1.9.681,2.168,2.168,0,0,1,.754,1.7,2.245,2.245,0,0,1-.743,1.727,2.75,2.75,0,0,1-1.912.681Z" fill="#ff8c00"/><path d="M222.52,249.6h-86.3a5.772,5.772,0,0,1-5.882-5.076,5.5,5.5,0,0,1,5.5-6.063h86.292a5.772,5.772,0,0,1,5.826,5.076,5.5,5.5,0,0,1-4.9,6.036A5.232,5.232,0,0,1,222.52,249.6Z" fill="#c8c8c8"/><path d="M236.277,115.967l-6.7,4.79,15.743,22,6.7-4.808Z" fill="#0078d7"/><path d="M236.277,115.967l-6.7,4.79,5.18,7.241,6.7-4.79Z"/><rect x="203.048" y="88.991" width="24.748" height="42.088" rx="4.957" ry="4.957" transform="translate(68.475 302.183) rotate(-79.65)" fill="#2488d8"/><path d="M203.954,140.065H157.541v25.992h46.414Z" fill="#0078d7"/><path d="M203.954,134.5H157.541v5.57h46.414Z"/><path d="M209.524,93.189v.462H153.508A27.848,27.848,0,0,1,181.356,65.8h.795A27.456,27.456,0,0,1,209.524,93.189Z" fill="#2488d8"/><path d="M198.385,82.623a3.713,3.713,0,1,0-3.713,3.713A3.713,3.713,0,0,0,198.385,82.623Zm-26.976,0a3.713,3.713,0,1,0-3.713,3.713A3.713,3.713,0,0,0,171.409,82.623Z" fill="#ffb900"/><path d="M208.009,180.909a5.57,5.57,0,0,0,5.228-5.2v-8.169a5.087,5.087,0,0,0-4.966-5.2H153.486a5.081,5.081,0,0,0-5.228,4.931v8.44a5.57,5.57,0,0,0,5.228,5.2Z" fill="#69afe5"/><path d="M202.1,179.052h-7.426v53.84H202.1Z" fill="#0078d7"/><path d="M202.1,180.909h-7.426v9.283H202.1Z"/><path d="M164.967,179.052h-7.426v53.84h7.426Z" fill="#0078d7"/><path d="M164.967,180.909h-7.426v9.283h7.426Z"/><path d="M184.7,240.318a10.926,10.926,0,0,1,10.328-9.283h7.213c5.57,0,10.326,4.641,10.326,9.283Z" fill="#0078d7"/><path d="M211.381,240.318H185.389v5.57h25.992Z"/><path d="M148.1,240.318c0-4.641,4.719-9.283,10.211-9.283h7.055a10.85,10.85,0,0,1,10.211,9.283Z" fill="#0078d7"/><path d="M174.25,240.318H148.258v5.57H174.25Z"/><path d="M247.36,156.7l-7.853-2.543-6.089,18.825,7.853,2.543Z" fill="#0078d7"/><path d="M247.36,156.7l-7.853-2.543-2.933,9.116,7.835,2.525Z"/><path d="M237.372,147.807a5.57,5.57,0,0,0,3.435,6.554l7.185,2.414a5.57,5.57,0,0,0,6.628-3.3l5.031-15.539a5.57,5.57,0,0,0-3.435-6.572l-7.185-2.432a5.57,5.57,0,0,0-6.628,3.3l-5.031,15.539Z" fill="#2488d8"/><path d="M238.3,187.147a6.387,6.387,0,0,0,2.785-3.843,6.461,6.461,0,0,0-3.843-7.575,6.628,6.628,0,0,0-8.28,3.713,4.567,4.567,0,0,0,.743,4.994l-5.662,2.915A12.29,12.29,0,0,1,239.1,170.03a11.882,11.882,0,0,1,7.8,14.885h0l-.093.283a12.068,12.068,0,0,1-5.57,7.686l-2.878-5.681ZM126.332,121.555l8.132,1.337-4.381,26.7-8.15-1.355Z" fill="#0078d7"/><path d="M126.332,121.555l8.132,1.337-1.448,8.781-8.132-1.337Z"/><rect x="123.377" y="96.876" width="42.088" height="24.748" rx="4.957" ry="4.957" transform="translate(-18.95 31.129) rotate(-11.55)" fill="#2488d8"/><path d="M169.534,65.413l-7.166,5.4a1.857,1.857,0,0,1-2.228-2.97l7.166-5.4a1.857,1.857,0,0,1,2.228,2.97Zm34.922,8.949L195.786,72a1.857,1.857,0,0,0-1.088,3.55l.123.033,8.67,2.358a1.857,1.857,0,0,0,.965-3.583Z" fill="#231f20"/><path d="M142.25,91.795a3.227,3.227,0,0,0-3.275,3.175v36.3a3.23,3.23,0,0,0,3.23,3.23h78.94a3.23,3.23,0,0,0,3.23-3.23V94.971a3.206,3.206,0,0,0-3.236-3.177H142.25Z" fill="#69afe5"/><path d="M112.891,140.678l-2.952,7.686L91.466,141.29l2.952-7.686Z" fill="#0078d7"/><path d="M112.891,140.678l-2.952,7.686-8.93-3.416,2.952-7.7Z"/><path d="M113.151,154.546a5.57,5.57,0,0,1-2.952-6.795l2.711-7.055a5.57,5.57,0,0,1,6.739-3.082l15.242,5.83a5.57,5.57,0,0,1,2.952,6.795l-2.711,7.055a5.57,5.57,0,0,1-6.739,3.082Z" fill="#2488d8"/><path d="M83.5,128.629a6.386,6.386,0,0,1,4.753.223,6.461,6.461,0,0,1,3.49,7.76,6.628,6.628,0,0,1-8.039,4.14,4.567,4.567,0,0,1-3.416-3.713L74.46,139.6a12.279,12.279,0,0,0,22.928-.854,11.882,11.882,0,0,0-6.709-15.406l-.008,0-.264-.1a12.068,12.068,0,0,0-9.524-.427Z" fill="#0078d7"/><path d="M83.279,140.733a6.5,6.5,0,0,0,7.426-2.97v7.872a11.659,11.659,0,0,1-9.6.65A12.513,12.513,0,0,1,74,139.545l5.83-2.581A4.567,4.567,0,0,0,83.279,140.733Z" fill="#0078d7"/><path d="M159.646,113.145A8.061,8.061,0,0,0,167.4,121.5q.329.013.655,0h28.1a8.061,8.061,0,0,0,8.408-7.7h0q.015-.329,0-.655a8.5,8.5,0,0,0-8.408-8.354H168.123A8.5,8.5,0,0,0,159.646,113.145Z"/><path d="M195.6,118.659a.928.928,0,0,0,.928-.928v-8.354a.928.928,0,0,0-1.857,0v8.41A.928.928,0,0,0,195.6,118.659Zm-5.57,0a.928.928,0,0,0,.928-.928v-8.354a.928.928,0,0,0-1.857,0v8.41A.928.928,0,0,0,190.03,118.659Zm-5.57,0a.928.928,0,0,0,.928-.928v-8.354a.928.928,0,1,0-1.857,0v8.41A.928.928,0,0,0,184.461,118.659Zm-5.57,0a.928.928,0,0,0,.928-.928v-8.354a.928.928,0,0,0-1.857,0v8.41A.928.928,0,0,0,178.891,118.659Zm-5.57,0a.928.928,0,0,0,.928-.928v-8.354a.928.928,0,0,0-1.857,0v8.41A.928.928,0,0,0,173.321,118.659Zm-5.57,0a.928.928,0,0,0,.928-.928v-8.354a.928.928,0,1,0-1.857,0v8.41A.928.928,0,0,0,167.752,118.659Z" fill="#ffb900"/><path d="M610.457,249.6H696.89a5.781,5.781,0,0,0,5.835-5.065,5.5,5.5,0,0,0-5.5-6.075H610.75a5.781,5.781,0,0,0-5.835,5.083,5.5,5.5,0,0,0,5.542,6.056Z" fill="#c8c8c8"/><path d="M590.846,103.715l-8.113,1.485-4.864-26.6,8.113-1.485Z" fill="#0078d7"/><path d="M590.846,103.715l-8.113,1.485-1.6-8.763,8.113-1.485Z"/><rect x="578.704" y="101.207" width="42.088" height="24.748" rx="4.957" ry="4.957" transform="translate(-10.647 109.599) rotate(-10.35)" fill="#2488d8"/><path d="M617.562,182.655l8.057-1.708,10.991,51.946-8.057,1.708Z" fill="#0078d7"/><path d="M617.562,182.655l8.057-1.708,2.061,9.673-8.076,1.708Z"/><path d="M647.341,237.368a10.489,10.489,0,0,0-11.6-6.665l-6.721,1.43c-5.235,1.114-8.781,6.405-7.872,10.768l26.14-5.57Z" fill="#0078d7"/><path d="M621.2,242.9l26.14-5.532,1.1,5.161-26.14,5.532Z"/><path d="M594.689,71.764l-3.973-7.241L608.056,55l3.973,7.222Z" fill="#0078d7"/><path d="M594.689,71.764l-3.973-7.241,8.373-4.6,3.973,7.222Z"/><path d="M583.94,62.982a5.57,5.57,0,0,1,7.092,2.135l3.713,6.628a5.57,5.57,0,0,1-2.079,7.055l-14.3,7.946a5.57,5.57,0,0,1-7.1-2.135l-3.713-6.628a5.57,5.57,0,0,1,2.005-7.129Z" fill="#2488d8"/><path d="M622.7,57.116a6.387,6.387,0,0,1-3.249,3.49,6.461,6.461,0,0,1-8.169-2.358,6.628,6.628,0,0,1,2.005-8.8,4.567,4.567,0,0,1,5.05-.2l1.857-6.127a12.29,12.29,0,0,0-14.165,18.046,11.882,11.882,0,0,0,16.115,4.755l.2-.113a12.068,12.068,0,0,0,6.479-6.981L622.7,57.06Zm76.291,63.271-1.448,8.113,26.623,4.771,1.448-8.113Z" fill="#0078d7"/><path d="M698.99,120.387l-1.448,8.113,8.763,1.578,1.448-8.113Z"/><rect x="665.821" y="100.132" width="24.748" height="42.088" rx="4.957" ry="4.957" transform="translate(423.682 761.375) rotate(-78.45)" fill="#2488d8"/><path d="M719.226,115.5l8.15-1.188-2.841-19.587-8.169,1.188Z" fill="#0078d7"/><path d="M719.226,115.5l8.15-1.188L726,104.847l-8.169,1.188Z"/><path d="M732.7,118.79a5.57,5.57,0,0,0-6-4.381l-7.426,1.1a5.57,5.57,0,0,0-4.493,5.9l2.358,16.152a5.57,5.57,0,0,0,5.848,4.363l7.426-1.1a5.57,5.57,0,0,0,4.493-5.9l-2.358-16.152Z" fill="#2488d8"/><path d="M713.9,84.184a6.386,6.386,0,0,0-.835,4.7,6.461,6.461,0,0,0,6.795,5.106,6.628,6.628,0,0,0,5.811-6.943,4.567,4.567,0,0,0-2.859-4.159l3.713-5.124a12.29,12.29,0,0,1-5.867,22.186A11.882,11.882,0,0,1,707.09,90.03l-.043-.3a12.068,12.068,0,0,1,1.671-9.376Z" fill="#0078d7"/><path d="M645.818,69.517a27.384,27.384,0,0,0-29.8,24.729L616,94.4l54.861,4.827A27.384,27.384,0,0,0,646,69.534l-.2-.017Z" fill="#2488d8"/><path d="M636.794,91.16a3.713,3.713,0,0,1-3.936,3.476h0a3.713,3.713,0,1,1,3.937-3.476Zm20.881-2.117a3.713,3.713,0,0,0-3.935,3.477h.006v.008a3.71,3.71,0,1,0,3.93-3.485Z" fill="#ffb900"/><path d="M616.243,141.106l46.321,4.047-2.209,25.286-46.321-4.029Z" fill="#0078d7"/><path d="M616.689,135.852l46.339,4.047-.464,5.254-46.321-4.047Z"/><path d="M607.846,181.393a5.57,5.57,0,0,1-4.79-5.57l.705-8.095a5.087,5.087,0,0,1,5.428-4.721h0a1.342,1.342,0,0,1,.252.024l54.582,4.716a5.087,5.087,0,0,1,4.807,5.352,1.44,1.44,0,0,1-.017.217l-.705,8.095a5.57,5.57,0,0,1-5.681,4.7l-54.582-4.753Z" fill="#69afe5"/><path d="M636.164,78.484l-8.559,2.729a1.864,1.864,0,1,1-1.151-3.546l8.559-2.711a1.861,1.861,0,1,1,1.132,3.546h0ZM669.99,73.36l-6.665-6.015a1.86,1.86,0,0,0-2.488,2.766h0l6.665,6.015a1.86,1.86,0,1,0,2.488-2.766Z" fill="#231f20"/><path d="M681.551,98.8a3.23,3.23,0,0,1,2.933,3.5l-3.175,36.593a3.23,3.23,0,0,1-3.41,3.034h-.093l-77.975-6.795a3.23,3.23,0,0,1-2.933-3.5l3.193-36.611a3.212,3.212,0,0,1,3.477-2.923h.008Z" fill="#69afe5"/><path d="M665.293,118.827a8.633,8.633,0,0,1-9.05,8.195h0q-.349-.017-.7-.063l-29.89-2.6a8.633,8.633,0,0,1-8.245-9q.015-.345.058-.687a9.1,9.1,0,0,1,9.747-8.132l29.89,2.6A9.1,9.1,0,0,1,665.293,118.827Z"/><path d="M626.306,121.074a.984.984,0,0,1-.891-1.058l.761-8.819a.984.984,0,0,1,1.949.167l-.761,8.819A.984.984,0,0,1,626.306,121.074Zm5.861.427a.984.984,0,0,1-.891-1.058l.743-8.744a.984.984,0,1,1,1.949.167l-.761,8.819A.984.984,0,0,1,632.167,121.5Zm5.885.594a.984.984,0,0,1-.891-1.058l.761-8.819a.984.984,0,0,1,1.949.167l-.761,8.819a.984.984,0,0,1-1.053.891Zm5.867.5a.984.984,0,0,1-.891-1.058l.761-8.819a.984.984,0,1,1,1.949.167l-.724,8.819a.984.984,0,0,1-1.066.895h0Zm5.885.52a.984.984,0,0,1-.891-1.058l.761-8.819a.984.984,0,1,1,1.949.167l-.761,8.819A.984.984,0,0,1,649.8,123.116Zm5.867.52a.984.984,0,0,1-.891-1.058l.761-8.819a.984.984,0,1,1,1.949.167l-.761,8.819a.984.984,0,0,1-1.053.891Z" fill="#ff8c00"/></svg>