<svg xmlns="http://www.w3.org/2000/svg" viewBox="0 0 800 600"><defs><clipPath id="a"><path fill="none" d="M417.022 45.334v182.424h237.035V45.334"/></clipPath></defs><title>elements-devices-1</title><path d="M800 600H0V0h800z" fill="#fff"/><path fill="none" d="M282.673 298.991v64.258h96.585v-64.258"/><path d="M374.222 362.805h-88.059a3.45 3.45 0 0 1-3.49-3.452V302.3a3.409 3.409 0 0 1 3.49-3.4h88.059a3.409 3.409 0 0 1 3.49 3.4v57.058a3.45 3.45 0 0 1-3.49 3.452z" fill="#00b294"/><path d="M376.366 358.91h-21.042a1.345 1.345 0 0 1-1.346-1.381v-15.535a1.376 1.376 0 0 1 1.346-1.381h21.042a1.376 1.376 0 0 1 1.346 1.381v15.534a1.345 1.345 0 0 1-1.346 1.381zM322.314 361.523H309a2.593 2.593 0 0 1-2.593-2.564v-13.167a2.626 2.626 0 0 1 2.593-2.565h13.313a2.593 2.593 0 0 1 2.593 2.564v13.167a2.561 2.561 0 0 1-2.593 2.564z" fill="#008272"/><path d="M292.546 354.323a3.936 3.936 0 0 1-3.939 3.945 3.979 3.979 0 0 1-3.989-3.945 3.937 3.937 0 0 1 3.989-3.9 3.9 3.9 0 0 1 3.939 3.9z" fill="#fff"/><path d="M292.546 354.323a3.936 3.936 0 0 1-3.939 3.945 3.979 3.979 0 0 1-3.989-3.945 3.937 3.937 0 0 1 3.989-3.9 3.9 3.9 0 0 1 3.939 3.9z" fill="none" stroke="#cbe247" stroke-miterlimit="1" stroke-width="1.282"/><path d="M353.279 354.323a3.936 3.936 0 0 1-3.939 3.945 3.979 3.979 0 0 1-3.989-3.945 3.937 3.937 0 0 1 3.989-3.9 3.9 3.9 0 0 1 3.939 3.9z" fill="#fff"/><path d="M353.279 354.323a3.936 3.936 0 0 1-3.939 3.945 3.979 3.979 0 0 1-3.989-3.945 3.937 3.937 0 0 1 3.989-3.9 3.9 3.9 0 0 1 3.939 3.9z" fill="none" stroke="#cbe247" stroke-miterlimit="1" stroke-width="1.282"/><path fill="#666" d="M348.692 307.967h-58.141v-9.074h58.141v9.074z"/><path d="M377.662 315.808h-17.053a1.345 1.345 0 0 1-1.346-1.381v-11.639a1.333 1.333 0 0 1 1.346-1.332h17.053a1.377 1.377 0 0 1 1.4 1.332v11.638a1.386 1.386 0 0 1-1.4 1.381zM377.662 334.1h-17.053a1.376 1.376 0 0 1-1.346-1.381v-11.634a1.333 1.333 0 0 1 1.346-1.332h17.053a1.377 1.377 0 0 1 1.4 1.332v11.638a1.419 1.419 0 0 1-1.4 1.381z" fill="#b2b2b2"/><path fill="#666" d="M293.194 341.945h-7.928v-27.419h7.928v27.419zM326.203 336.718h-21.092v-20.91h21.092v20.91zM355.274 327.545h-14.511v-11.737h14.511v11.737zM342.06 357.627h-9.225v-24.855h9.225v24.855z"/><path d="M377.662 357.627H356.67a1.386 1.386 0 0 1-1.4-1.381v-15.583a1.346 1.346 0 0 1 1.4-1.332h20.992a1.377 1.377 0 0 1 1.4 1.332v15.584a1.419 1.419 0 0 1-1.4 1.381zM323.61 360.241h-13.263a2.6 2.6 0 0 1-2.593-2.614v-13.118a2.561 2.561 0 0 1 2.593-2.564h13.263a2.561 2.561 0 0 1 2.593 2.564v13.118a2.6 2.6 0 0 1-2.593 2.614z" fill="#c8c8c8"/><path fill="#fff" d="M295.837 319.753h-2.643v-1.332h2.643v1.332zM295.837 322.317h-2.643v-1.282h2.643v1.282zM295.837 324.931h-2.643v-1.282h2.643v1.282zM295.837 327.545h-2.643v-1.282h2.643v1.282zM295.837 330.159h-2.643v-1.283h2.643v1.283zM295.837 332.772h-2.643v-1.282h2.643v1.282zM295.837 335.386h-2.643v-1.282h2.643v1.282zM295.837 338h-2.643v-1.282h2.643V338zM332.835 336.718h-2.643v-1.332h2.643v1.332zM332.835 339.331h-2.643V338h2.643v1.331zM332.835 341.945h-2.643v-1.332h2.643v1.332zM332.835 344.559h-2.643v-1.332h2.643v1.332zM332.835 347.172h-2.643v-1.331h2.643v1.331zM332.835 349.786h-2.643v-1.331h2.643v1.331zM332.835 352.4h-2.643v-1.332h2.643v1.332zM332.835 355.014h-2.643v-1.332h2.643v1.332zM351.334 313.194h1.297v2.614h-1.297v-2.614zM348.692 313.194h1.296v2.614h-1.296v-2.614zM346.049 313.194h1.296v2.614h-1.296v-2.614zM343.406 313.194h1.297v2.614h-1.297v-2.614zM351.334 327.545h1.297v2.614h-1.297v-2.614zM348.692 327.545h1.296v2.614h-1.296v-2.614zM346.049 327.545h1.296v2.614h-1.296v-2.614zM343.406 327.545h1.297v2.614h-1.297v-2.614zM292.546 304.712a3.9 3.9 0 0 1-3.939 3.9 3.9 3.9 0 1 1 0-7.792 3.9 3.9 0 0 1 3.939 3.9z"/><path d="M292.546 304.712a3.9 3.9 0 0 1-3.939 3.9 3.9 3.9 0 1 1 0-7.792 3.9 3.9 0 0 1 3.939 3.9z" fill="none" stroke="#cbe247" stroke-miterlimit="1" stroke-width="1.282"/><path d="M353.279 304.712a3.9 3.9 0 0 1-3.939 3.9 3.9 3.9 0 1 1 0-7.792 3.9 3.9 0 0 1 3.939 3.9z" fill="#fff"/><path d="M353.279 304.712a3.9 3.9 0 0 1-3.939 3.9 3.9 3.9 0 1 1 0-7.792 3.9 3.9 0 0 1 3.939 3.9z" fill="none" stroke="#cbe247" stroke-miterlimit="1" stroke-width="1.282"/><path fill="#c8c8c8" d="M340.763 311.912H327.55v-1.332h13.213v1.332zM314.336 311.912h-13.214v-1.332h13.214v1.332zM327.55 336.718h-1.347v-20.91h1.347v20.91zM305.111 336.718h-1.346v-20.91h1.346v20.91zM305.111 347.172h-13.214v-1.331h13.214v1.331zM347.345 347.172h-1.296v-7.841h1.296v7.841zM336.774 328.876h-5.285v-1.331h5.285v1.331zM336.774 324.931h-5.285v-1.282h5.285v1.282z"/><path fill="none" d="M282.673 298.991v64.258h96.585v-64.258"/><path fill="none" d="M282.673 362.845h96.183v-63.854h-96.183v63.854zM409.071 279.192v84.057h134.586v-84.057"/><path d="M540.274 362.851H412.5a3.422 3.422 0 0 1-3.433-3.488V282.58a3.339 3.339 0 0 1 3.433-3.388h127.77a3.369 3.369 0 0 1 3.433 3.388v76.783a3.453 3.453 0 0 1-3.433 3.488z" fill="#4c9d4c"/><path fill="#045719" d="M459.771 361.854h-21.195v-14.649h21.195v14.649zM481.016 361.157h-12.587v-7.275h12.587v7.275zM508.879 361.157h-19.255V339.93h19.255v21.227zM432.257 359.512v-7.324h2.338v-12.955H413.35v22.621h21.245v-2.342h-2.338z"/><path d="M540.274 279.192h-7.811v83.659h7.811a3.453 3.453 0 0 0 3.433-3.488V282.58a3.369 3.369 0 0 0-3.433-3.388z" fill="#107c10"/><path d="M423.9 286.367a3.91 3.91 0 0 1-3.931 3.936 3.953 3.953 0 0 1-3.98-3.936 4 4 0 0 1 3.98-3.986 3.953 3.953 0 0 1 3.931 3.986z" fill="#fff"/><path d="M423.9 286.367a3.91 3.91 0 0 1-3.931 3.936 3.953 3.953 0 0 1-3.98-3.936 4 4 0 0 1 3.98-3.986 3.953 3.953 0 0 1 3.931 3.986z" fill="none" stroke="#cbe247" stroke-miterlimit="1" stroke-width="1.295"/><path d="M423.9 332.855a3.91 3.91 0 0 1-3.931 3.936 3.937 3.937 0 1 1 0-7.873 3.91 3.91 0 0 1 3.931 3.936z" fill="#fff"/><path d="M423.9 332.855a3.91 3.91 0 0 1-3.931 3.936 3.937 3.937 0 1 1 0-7.873 3.91 3.91 0 0 1 3.931 3.936z" fill="none" stroke="#cbe247" stroke-miterlimit="1" stroke-width="1.295"/><path d="M540.025 286.466a3.359 3.359 0 1 1-3.383-3.388 3.389 3.389 0 0 1 3.383 3.388zM540.075 332.805a3.358 3.358 0 1 1-3.383-3.338 3.358 3.358 0 0 1 3.383 3.338zM430.317 293.691h-1.294v-12.905h1.294v12.905zM432.954 293.691h-1.294v-12.905h1.294v12.905zM435.591 293.691h-1.294v-12.905h1.294v12.905zM438.228 293.691h-1.294v-12.905h1.294v12.905zM440.865 293.691h-1.294v-12.905h1.294v12.905zM443.502 293.691h-1.294v-12.905h1.294v12.905zM446.139 293.691h-1.294v-12.905h1.294v12.905zM448.776 293.691h-1.294v-12.905h1.294v12.905zM451.562 293.691h-1.294v-12.905h1.294v12.905zM454.199 293.691h-1.294v-12.905h1.294v12.905zM456.836 293.691h-1.344v-12.905h1.344v12.905zM459.473 293.691h-1.344v-12.905h1.344v12.905zM462.11 293.691h-1.344v-12.905h1.344v12.905zM464.747 293.691h-1.344v-12.905h1.344v12.905zM467.384 293.691h-1.344v-12.905h1.344v12.905zM470.021 293.691h-1.344v-12.905h1.344v12.905zM472.807 293.691h-1.343v-12.905h1.343v12.905zM475.444 293.691h-1.343v-12.905h1.343v12.905zM478.081 293.691h-1.343v-12.905h1.343v12.905zM480.718 293.691h-1.343v-12.905h1.343v12.905zM483.355 293.691h-1.343v-12.905h1.343v12.905zM485.992 293.691h-1.343v-12.905h1.343v12.905z" fill="#fff"/><path fill="#666" d="M515.198 291.1h-22.887v-8.67h22.887v8.67z"/><path fill="#505050" d="M532.114 278.843H518.83v15.247h3.333v5.281h8.608V286.117l1.343-1.993v-5.281zM487.982 291.1h-61.049v-8.67h61.049v8.67zM438.228 320.996h-17.912v-19.931h17.912v19.931zM463.105 323.986H441.86v-18.635h21.245v18.635z"/><path fill="#666" d="M481.663 312.027h-9.254v-9.317h9.254v9.317z"/><path fill="#c8c8c8" d="M461.115 360.509h-21.246V345.91h21.246v14.599zM482.36 359.861h-12.638v-7.324h12.638v7.324zM510.222 359.861h-19.255v-21.276h19.255v21.276zM433.6 358.167v-7.275h2.339v-12.955h-21.245v22.572h21.245v-2.342H433.6zM503.257 335.944h-6.667v-9.965h6.667v9.965z"/><path d="M501.814 330.264a1.891 1.891 0 1 1-1.891-1.893 1.891 1.891 0 0 1 1.891 1.893z" fill="#666"/><path fill="#c8c8c8" d="M514.501 335.944h-6.617v-9.965h6.617v9.965z"/><path d="M513.108 330.264a1.891 1.891 0 1 1-1.891-1.893 1.891 1.891 0 0 1 1.891 1.893z" fill="#666"/><path fill="#c8c8c8" d="M529.776 335.944h-6.618v-9.965h6.618v9.965z"/><path d="M528.333 330.264a1.866 1.866 0 1 1-1.841-1.893 1.881 1.881 0 0 1 1.841 1.893zM509.874 322.292h-8.607v-8.62h8.607v8.62zM442.059 337.937a2.826 2.826 0 0 1-2.836 2.79 2.815 2.815 0 0 1 0-5.63 2.837 2.837 0 0 1 2.836 2.84zM488.48 337.937a2.811 2.811 0 1 1-2.786-2.84 2.784 2.784 0 0 1 2.786 2.84z" fill="#666"/><path fill="#fff" d="M486.34 342.571h-47.117v-9.965h47.117v9.965z"/><path fill="#b2b2b2" d="M444.944 342.87h-1.343v-2.292h1.343v2.292zM447.581 342.87h-1.343v-2.292h1.343v2.292zM450.218 342.87h-1.343v-2.292h1.343v2.292zM452.855 342.87h-1.343v-2.292h1.343v2.292zM455.492 342.87h-1.343v-2.292h1.343v2.292zM458.129 342.87h-1.343v-2.292h1.343v2.292zM460.717 342.87h-1.294v-2.292h1.294v2.292zM463.354 342.87h-1.294v-2.292h1.294v2.292zM466.14 342.87h-1.294v-2.292h1.294v2.292zM468.777 342.87h-1.294v-2.292h1.294v2.292zM471.414 342.87h-1.294v-2.292h1.294v2.292zM474.051 342.87h-1.294v-2.292h1.294v2.292zM476.688 342.87h-1.294v-2.292h1.294v2.292zM479.325 342.87h-1.294v-2.292h1.294v2.292zM481.962 342.87h-1.294v-2.292h1.294v2.292zM444.944 334.898h-1.343v-2.292h1.343v2.292zM447.581 334.898h-1.343v-2.292h1.343v2.292zM450.218 334.898h-1.343v-2.292h1.343v2.292zM452.855 334.898h-1.343v-2.292h1.343v2.292zM455.492 334.898h-1.343v-2.292h1.343v2.292zM458.129 334.898h-1.343v-2.292h1.343v2.292zM460.717 334.898h-1.294v-2.292h1.294v2.292zM463.354 334.898h-1.294v-2.292h1.294v2.292zM466.14 334.898h-1.294v-2.292h1.294v2.292zM468.777 334.898h-1.294v-2.292h1.294v2.292zM471.414 334.898h-1.294v-2.292h1.294v2.292zM474.051 334.898h-1.294v-2.292h1.294v2.292zM476.688 334.898h-1.294v-2.292h1.294v2.292zM479.325 334.898h-1.294v-2.292h1.294v2.292zM481.962 334.898h-1.294v-2.292h1.294v2.292z"/><path d="M490.967 326.627h-3.98m-1.99 0h-3.98m-1.99 0h-3.98m-1.99 0h-3.98m-1.99 0H463.1m-1.99 0h-3.98m-1.99 0h-3.98m-1.99 0h-3.98m-1.99 0h-3.98m-1.99 0h-3.98m-1.99 0h-3.98m-1.99 0h-3.98m-1.99 0h-1.99v-1.993m0-1.993v-3.986m0-1.993v-3.986m0-1.993V306.7m0-1.993v-3.986m0-1.993v-1.993h1.99m1.99 0h3.98m1.99 0h3.98m1.99 0h3.98m1.99 0h3.98m1.99 0h3.98m1.99 0h3.98m1.99 0h3.98m1.99 0h3.98m1.99 0h3.98m1.99 0h3.98m1.99 0H485m1.99 0h3.98m0 1.993v3.986m0 1.993v3.986m0 1.993v3.986m0 1.993v3.986m0 1.993v3.986M516.84 302.062h-3.98m-1.99 0h-3.98m-1.99 0h-3.98m-1.99 0h-2.637v1.3m0 1.993v3.986m0 1.993v3.986m0 1.993v3.987m1.294.7h3.98m1.99 0h3.98m1.99 0h3.98m1.99 0h1.343v-2.7m0-1.993v-3.986m0-1.993v-3.986m0-1.993v-3.289" fill="none" stroke="#c2c2c2" stroke-miterlimit="1" stroke-width="1.295"/><path fill="#045719" d="M538.085 361.157H518.83V339.93h19.255v21.227z"/><path fill="#c8c8c8" d="M539.378 359.861h-19.205v-21.276h19.205v21.276z"/><path fill="none" d="M409.071 279.192v84.057h134.586v-84.057"/><path fill="none" d="M409.071 362.839h134.657v-83.647H409.071v83.647zM576.487 264.521l.236 98.728 134.586-.322-.237-98.728"/><path d="M579.359 362.845l128.715-.308a2.665 2.665 0 0 0 2.631-2.692l-.222-92.859a2.654 2.654 0 0 0-2.643-2.63l-128.715.308a2.622 2.622 0 0 0-2.631 2.642l.222 92.859a2.633 2.633 0 0 0 2.643 2.68z" fill="#6597bf"/><path fill="#45779e" d="M671.076 329.451l-34.728.083-.087-36.159 34.729-.083.086 36.159zM709.912 320.057l-27.166.065-.046-19.199 27.166-.065.046 19.199zM705.881 298.878l-20.548.049-.05-20.591 20.549-.049.049 20.591zM601.14 316.338l-24.231.058-.05-21.188 24.23-.058.051 21.188z"/><path d="M588.893 354.765a3.949 3.949 0 0 1-3.971 3.939 3.929 3.929 0 1 1-.019-7.858 3.949 3.949 0 0 1 3.99 3.92z" fill="#fff"/><path d="M588.893 354.765a3.949 3.949 0 0 1-3.971 3.939 3.929 3.929 0 1 1-.019-7.858 3.949 3.949 0 0 1 3.99 3.92z" fill="none" stroke="#cbe247" stroke-miterlimit="1" stroke-width="1.293"/><path d="M588.695 272.2a3.991 3.991 0 0 1-3.971 3.988 3.949 3.949 0 0 1-3.94-3.97 3.907 3.907 0 0 1 3.921-3.939 3.949 3.949 0 0 1 3.99 3.92z" fill="#fff"/><path d="M588.695 272.2a3.991 3.991 0 0 1-3.971 3.988 3.949 3.949 0 0 1-3.94-3.97 3.907 3.907 0 0 1 3.921-3.939 3.949 3.949 0 0 1 3.99 3.92z" fill="none" stroke="#cbe247" stroke-miterlimit="1" stroke-width="1.293"/><path fill="#00b294" d="M672.417 328.105l-34.779.083-.086-36.109 34.778-.084.087 36.11z"/><path fill="#c8c8c8" d="M711.253 318.76l-27.216.066-.046-19.249 27.215-.065.047 19.248zM707.221 297.532l-20.548.049-.049-20.541 20.548-.049.049 20.541z"/><path fill="#505050" d="M684.126 355.929l-15.225.037-.044-18.552 15.224-.037.045 18.552zM654.273 356.001l-15.225.036-.044-18.552 15.225-.036.044 18.552z"/><path fill="#fff" d="M668.857 337.414l-25.226.06-.013-5.322 25.226-.06.013 5.322z"/><path fill="#666" d="M595.252 350.87l-18.559.044-.025-10.643 18.558-.045.026 10.644z"/><path fill="#c8c8c8" d="M602.43 315.042l-25.822.062-.051-21.238 25.822-.062.051 21.238z"/><path fill="#666" d="M628.303 314.98l-11.942.029-.017-7.312 11.941-.028.018 7.311zM628.325 324.231l-11.941.029-.018-7.262 11.941-.029.018 7.262zM628.347 333.532l-11.941.028-.018-7.311 11.941-.028.018 7.311z"/><path fill="#505050" d="M636.354 352.761l-44.431.106.019 7.958 44.431-.106-.019-7.958z"/><path fill="#fff" d="M630.037 332.981l5.473-.013.003 1.293-5.473.013-.003-1.293zM630.031 330.345l5.473-.013.003 1.293-5.473.013-.003-1.293zM630.025 327.709l5.473-.013.003 1.293-5.473.013-.003-1.293zM630.018 325.073l5.473-.014.003 1.294-5.473.013-.003-1.293zM630.012 322.436l5.473-.013.003 1.294-5.473.013-.003-1.294zM630.006 319.8l5.473-.013.003 1.293-5.473.014-.003-1.294zM629.999 317.164l5.473-.013.004 1.343-5.473.013-.004-1.343zM629.993 314.528l5.473-.013.003 1.343-5.473.013-.003-1.343zM629.986 311.743l5.473-.013.004 1.343-5.473.013-.004-1.343zM629.98 309.107l5.473-.013.003 1.343-5.473.013-.003-1.343zM629.974 306.471l5.473-.013.003 1.343-5.473.013-.003-1.343zM629.968 303.835l5.472-.013.004 1.343-5.473.013-.003-1.343zM629.961 301.199l5.473-.013.003 1.342-5.473.014-.003-1.343zM629.955 298.563l5.473-.013.003 1.342-5.473.013-.003-1.342zM629.949 295.927l5.473-.014.003 1.343-5.473.013-.003-1.342zM629.942 293.29l5.473-.013.003 1.343-5.472.013-.004-1.343z"/><path fill="#fff" d="M634.02 333.866l-2.687.007-.095-39.79 2.687-.006.095 39.789z"/><path fill="#666" d="M622.587 276.198l-17.264.042-.019-7.958 17.264-.042.019 7.958z"/><path fill="#505050" d="M651.111 282.099l-23.186.055-.042-17.856 23.185-.055.043 17.856zM677.68 282.035l-20.599.049-.019-7.958 20.599-.049.019 7.958z"/><path d="M629.553 338.5a2.824 2.824 0 0 1-2.829 2.792 2.781 2.781 0 0 1-2.793-2.779 2.824 2.824 0 0 1 2.779-2.842 2.867 2.867 0 0 1 2.843 2.828zM683.807 285.3a2.811 2.811 0 1 1-5.622.013 2.811 2.811 0 0 1 5.622-.013z" fill="#fff"/><path fill="#c8c8c8" d="M644.582 277.439l1.294-.003.011 4.576-1.294.003-.011-4.576zM641.945 277.445l1.294-.003.011 4.576-1.294.003-.011-4.576zM639.308 277.452l1.294-.004.011 4.576-1.294.003-.011-4.575zM636.671 277.458l1.294-.003.011 4.576-1.294.003-.011-4.576zM634.034 277.464l1.294-.003.011 4.576-1.294.003-.011-4.576zM599.352 276.254l-7.961.019-.019-7.958 7.961-.019.019 7.958z"/><path fill="#505050" d="M600.73 290.824l-10.597.025-.029-11.937 10.598-.025.028 11.937z"/><path fill="#c8c8c8" d="M665.171 315.19l-.005-1.989 3.185-.008-.007-2.636-3.184.008-.005-1.99 3.185-.008-.007-2.636-3.184.008-.005-1.99 3.185-.007-.01-3.979-26.768.064.01 3.979 2.985-.007.005 1.989-2.985.007.006 2.637 2.985-.008.005 1.99-2.985.007.006 2.636 2.985-.007.005 1.989-2.985.008.011 4.675 26.768-.064-.011-4.676-3.185.008z"/><path fill="#b2b2b2" d="M605.38 300.114l21.245-.051.011 4.625-21.245.051-.011-4.625z"/><path fill="#b2b2b2" d="M615.335 302.079l11.295-.027-.027-11.29-11.295.027.027 11.29zM599.509 341.907l36.52-.087.014 5.968-36.519.088-.015-5.969zM612.789 339.886l-5.971.014-.025-10.644 5.97-.014.026 10.644zM697.058 354.257l-10.598.026-.047-19.895 10.597-.026.048 19.895zM706.952 330.359l-26.519.064-.018-7.311 26.519-.064.018 7.311zM673.714 288.013l6.617-.016.057 23.874-6.617.016-.057-23.874z"/><path d="M705.865 354.485a3.907 3.907 0 0 1-3.921 3.939 3.93 3.93 0 1 1-.019-7.858 3.907 3.907 0 0 1 3.94 3.92z" fill="#fff"/><path d="M705.865 354.485a3.907 3.907 0 0 1-3.921 3.939 3.93 3.93 0 1 1-.019-7.858 3.907 3.907 0 0 1 3.94 3.92z" fill="none" stroke="#cbe247" stroke-miterlimit="1" stroke-width="1.293"/><path d="M705.667 271.921a3.949 3.949 0 0 1-3.921 3.988 3.991 3.991 0 0 1-3.99-3.969 3.949 3.949 0 0 1 3.971-3.94 3.907 3.907 0 0 1 3.94 3.92z" fill="#fff"/><path d="M705.667 271.921a3.949 3.949 0 0 1-3.921 3.988 3.991 3.991 0 0 1-3.99-3.969 3.949 3.949 0 0 1 3.971-3.94 3.907 3.907 0 0 1 3.94 3.92z" fill="none" stroke="#cbe247" stroke-miterlimit="1" stroke-width="1.293"/><path fill="none" d="M576.487 264.521l.236 98.728 134.586-.322-.237-98.728"/><path fill="none" d="M576.722 362.855l134.656-.323-.236-98.333-134.655.322.235 98.334z"/><path fill="#479cdf" d="M227.783 358.562v-53.677h-80.719v53.677h80.719z"/><path fill="#8fc3ec" d="M227.834 343.939V304.13h-43.509l43.509 39.809z"/><path d="M232.218 300.326h-88.624a1.756 1.756 0 0 0-1.8 1.8v59.328a1.756 1.756 0 0 0 1.8 1.8h88.625a1.756 1.756 0 0 0 1.8-1.8v-59.331a1.756 1.756 0 0 0-1.801-1.797zm-4.435 58.236h-80.719v-53.678h80.719z" fill="#231f20"/><path fill="#505050" d="M231.897 332.686l-2.121.257v-2.183l2.121.257v1.669z"/><path fill="#333" d="M462.773 445.963l-6.751 25.318h83.267l-5.851-25.318-6.301-4.415-10.713-.451-6.391.991h-25.745l-5.401-1.982-9.272 1.982-6.842 3.875z"/><path d="M533.438 445.512a11.1 11.1 0 0 0-.45-1.982c-.54-.991-1.53-1.442-2.971-1.982a33.711 33.711 0 0 0-8.282-3.874h-4.321a6.838 6.838 0 0 0-2.971.45 8.789 8.789 0 0 1-3.871 1.982h-24.844c-.99 0-3.421-1.442-3.961-1.982-.45-.45-1.89-.45-2.881-.45h-4.321c-1.98.45-6.841 2.973-8.282 3.874-1.53.541-2.52.991-2.52 1.982a9.1 9.1 0 0 0-.99 2.433c2.971-1.982 11.792-4.415 15.123-4.415 2.971 0 4.411 2.973 6.841 5.857 2.881 4.415 3.871 4.865 6.391 4.865h14.043c1.98 0 2.971-.45 6.391-4.865 1.89-2.883 3.331-5.857 6.751-5.857s11.7 2.433 15.123 4.415v-.451z"/><path d="M502.742 446.5a4.765 4.765 0 0 1-4.861 4.775 5.146 5.146 0 0 1-4.861-4.775 4.917 4.917 0 0 1 4.861-4.956 4.61 4.61 0 0 1 4.861 4.956z" fill="#fff"/><path d="M499.411 444.521a8.044 8.044 0 0 1 2.341-1.442 11.656 11.656 0 0 0-3.871.45 8.967 8.967 0 0 0-3.421-.45 7.515 7.515 0 0 1 2.43 1.442 9.4 9.4 0 0 0-2.43 5.316 23.163 23.163 0 0 1 3.421-4.325 17.451 17.451 0 0 1 3.871 4.325 9.43 9.43 0 0 0-2.341-5.316z"/><path d="M536.409 448.846a4.107 4.107 0 0 0-2.971-2.883c-3.421-1.982-11.7-4.415-15.123-4.415s-4.861 2.973-6.751 5.857c-3.421 4.415-4.411 4.865-6.391 4.865h-14.044c-2.521 0-3.511-.45-6.391-4.865-2.43-2.883-3.871-5.857-6.841-5.857-3.331 0-12.152 2.433-15.123 4.415a4.964 4.964 0 0 0-2.881 2.883c-1.44 2.973-12.153 29.824-12.153 40.456 0 14.146 10.262 15.588 11.162 15.588.99 0 11.7-11.173 15.123-14.056 3.421-3.424 5.851-3.424 8.282-3.424h32.137a10.28 10.28 0 0 1 8.282 3.424c3.421 2.883 13.683 14.056 14.583 14.056.99 0 11.252-1.442 11.252-15.588 0-10.632-10.712-37.482-12.152-40.456z" fill="#333"/><path d="M520.745 473.714a9.686 9.686 0 0 1-9.722 9.731c-5.311 0-9.272-4.325-9.272-9.731a9.319 9.319 0 0 1 9.272-9.28 9.66 9.66 0 0 1 9.722 9.28z" fill="#505050"/><path d="M519.3 473.714a8.282 8.282 0 1 1-16.563 0 8.282 8.282 0 0 1 16.563 0zM493.47 473.714a8.149 8.149 0 0 1-8.282 8.286 7.9 7.9 0 0 1-8.282-8.289 8.186 8.186 0 0 1 8.282-8.2 8.487 8.487 0 0 1 8.282 8.2z"/><path d="M481.767 457.676c0 4.865-4.321 9.19-9.722 9.19a9.55 9.55 0 0 1-9.272-9.19c0-5.406 4.411-9.821 9.272-9.821a9.763 9.763 0 0 1 9.722 9.821z" fill="#505050"/><path d="M480.327 457.676a8.205 8.205 0 0 1-8.282 8.289 8.567 8.567 0 0 1-8.282-8.289 8.261 8.261 0 0 1 8.282-8.289 7.944 7.944 0 0 1 8.282 8.289zM527.587 464.434a3.872 3.872 0 1 1-7.742 0c0-1.892 1.89-3.334 3.871-3.334s3.871 1.442 3.871 3.334zM527.587 451.279a3.871 3.871 0 1 1-3.871-3.874 4.178 4.178 0 0 1 3.871 3.874zM533.978 458.126a3.936 3.936 0 0 1-3.961 3.964c-1.89 0-3.421-1.982-3.421-3.964 0-1.892 1.53-3.874 3.421-3.874a3.918 3.918 0 0 1 3.961 3.874zM520.745 458.126c0 1.982-1.44 3.964-3.331 3.964a3.92 3.92 0 1 1 0-7.839c1.89 0 3.331 1.982 3.331 3.874z"/><path d="M516.875 473.714a5.9 5.9 0 0 1-5.851 5.857c-2.881 0-5.311-2.433-5.311-5.857a5.382 5.382 0 0 1 5.311-5.316c2.971 0 5.851 2.433 5.851 5.316z" fill="#505050"/><path d="M493.47 458.126a2.2 2.2 0 0 1-2.341 2.433 2.3 2.3 0 0 1-2.521-2.433 2.341 2.341 0 0 1 2.521-2.433 2.246 2.246 0 0 1 2.341 2.433zM507.6 458.126a2.27 2.27 0 0 1-2.43 2.433 2.534 2.534 0 0 1-2.431-2.433 2.606 2.606 0 0 1 2.431-2.433 2.316 2.316 0 0 1 2.43 2.433z"/><path d="M523.176 453.261v-1.442l-.9-2.433h.9v.991c.54.451.54.451.54.9 0-.45.45-.45.45-.9l.54-.991h.99l-1.53 2.433v1.442z" fill="#fcd116"/><path d="M523.176 464.974l-.45 1.442h-.45l.9-3.874h.99l1.53 3.874h-.99l-.54-1.442zm.99-.541l-.45-.9-.54.9z" fill="#7fba00"/><path d="M517.865 460.109l-.45-.991v-.451a.474.474 0 0 0-.54.451l-.45.991h-.99l1.44-1.982-1.44-1.892h.99l.45.451c0 .451 0 .451.54.991v-.991l.45-.451h.99l-.99 1.892.99 1.982z" fill="#00bcf2"/><path d="M529.027 456.234h1.98c.45.451.45.451.45.9 0 .541 0 .541-.45.991.45 0 .99 0 .99.991l-.54.541a1.747 1.747 0 0 1-1.44.451h-.99v-3.874zm.54 1.442h.45c.54 0 .99 0 .99-.541 0-.451-.45-.451-.99-.451h-.45v.991zm0 1.982h.45a1.065 1.065 0 0 0 .99-.991 1.536 1.536 0 0 0-.99-.541h-.45v1.532z" fill="#e81123"/><path d="M491.579 471.281h-3.961v-3.874a.986.986 0 0 0-.9-.991H483.3c-.45 0-.45.45-.45.991v3.874h-4.411c-.54 0-.54.541-.54.991v3.428c0 .45 0 .991.54.991h4.411v3.874c0 .45 0 .991.45.991h3.421a1.058 1.058 0 0 0 .9-.991v-3.874h3.961a1.147 1.147 0 0 0 .99-.991v-3.424a1.147 1.147 0 0 0-.99-.991zM477.9 457.676c0 2.883-2.43 5.316-5.851 5.316a5.382 5.382 0 0 1-5.311-5.316c0-3.424 2.43-5.857 5.311-5.857a5.628 5.628 0 0 1 5.851 5.857z" fill="#505050"/><path d="M80.191 299.625a1.677 1.677 0 0 1 1.605-1.607h30.5a1.632 1.632 0 0 1 1.605 1.607v62.018a1.59 1.59 0 0 1-1.605 1.607H81.8a1.632 1.632 0 0 1-1.605-1.607" fill="#231f20"/><path d="M80.191 361.643a1.632 1.632 0 0 0 1.605 1.607h30.5a1.59 1.59 0 0 0 1.605-1.607V354.7h-33.71" fill="#231f20"/><path fill="#479cdf" d="M111.203 353.416H82.631v-47.557h28.572v47.557z"/><path d="M101.187 302h-8.54a.835.835 0 0 1 0-1.671h8.54a.835.835 0 0 1 0 1.671z" fill="none" stroke="#395b71" stroke-miterlimit="1" stroke-width=".257"/><path d="M87.511 358.3a.933.933 0 0 1-.963.9.878.878 0 0 1-.9-.9.933.933 0 0 1 .9-.964.988.988 0 0 1 .963.964zM107.929 358.3a.933.933 0 0 1-.963.9.878.878 0 0 1-.9-.9.933.933 0 0 1 .9-.964.988.988 0 0 1 .963.964zM97.912 359.2l-1.926-.192v-1.543l1.926-.193v1.928z" fill="#505050"/><path fill="#8fc3ec" d="M111.203 329.702v-23.843H85.264l25.939 23.843z"/><path d="M239.366 503.167h164.255v-65.949H239.366v65.949z"/><path fill="#606060" d="M402.066 433.329H68.74l-1.554 3.889h336.435l-1.555-3.889z"/><path fill="#757575" d="M241.542 433.329H68.74l-1.554 3.889h174.356v-3.889z"/><path d="M68.74 507.056h333.326l1.555-3.889H67.186l1.554 3.889z"/><path d="M380.466 469.1a8.47 8.47 0 1 1-16.938 0 8.47 8.47 0 1 1 16.938 0z" fill="#fff"/><path d="M373.473 465.837a32.6 32.6 0 0 0 4.662-2.333 15.169 15.169 0 0 0-6.06.933 16.273 16.273 0 0 0-6.216-.933c1.554.933 3.108 1.711 3.885 2.333-1.554 1.555-3.108 4.822-3.885 9.488a49.853 49.853 0 0 1 6.216-7.933 54.406 54.406 0 0 1 6.06 7.933c-.777-4.666-2.331-7.933-4.662-9.488zM67.186 437.218v26.286l3.108 3.889v5.599l-3.108 3.889v26.286h174.356v-65.949H67.186z" fill="#333"/><path fill="#737373" d="M241.542 473.614H67.963l-.777 3.267h174.356v-3.267z"/><path d="M241.542 463.504H67.186l.777 3.889h173.579v-3.889z"/><path fill="#969696" d="M67.963 473.614h173.579v-6.221H67.963v6.221z"/><path d="M81.017 472.059h147.471v-2.955H81.017v2.955z"/><path fill="#fff" d="M220.718 472.059h7.77v-2.955l-7.77 2.955z"/><path fill="none" d="M67.963 433.329v75.904h336.901v-75.904"/><path d="M306.693 221.692V93.5a5.021 5.021 0 0 0-4.922-5.206h-173.5a5.021 5.021 0 0 0-4.922 5.206v128.19z" fill="#231f20"/><path fill="#69afe5" d="M300.604 210.875H129.435V96.989h171.169v113.886z"/><path d="M322.019 227.758H109.39c-7.1 0-8.221-10.817-8.221-10.817H330.29s-2.74 10.817-8.272 10.817z" fill="#3c3c3c"/><path fill="#8ec3ec" d="M300.604 96.989h-76.527l76.527 76.733V96.989z"/><path d="M329.123 220.327a31.9 31.9 0 0 0 1.167-3.387H101.169a20.261 20.261 0 0 0 .71 3.387z" fill="#505050"/><path fill="#395b71" d="M217.379 95.624h-2.69v-2.679h2.69v2.679z"/><path fill="#fff" d="M649.604 47.77H419.832v130.515h229.772V47.77z"/><path fill="#69afe5" d="M650 177.22H421V48.184h229V177.22z"/><path fill="#5d5d5d" d="M584.076 203.657h-96.808l5.673-6.674h85.462l5.673 6.674z"/><path d="M580.259 207.418h-89.014a3.874 3.874 0 0 1-4.188-3.761h97.02s.53 3.761-3.817 3.761z" fill="#171717"/><path fill="#8ec3ec" d="M650 48H521.347L650 177V48z"/><path fill="#171717" d="M556.667 199.366h-41.989l3.393-20.075h35.202l3.394 20.075z"/><path fill="#5d5d5d" d="M628.344 222.62H445.439l10.709-12.66h161.487l10.709 12.66z"/><path fill="#171717" d="M611.538 218.753H462.245l5.195-7.31h138.85l5.248 7.31zM621.081 227.334H452.967c-7.74 0-7.9-4.767-7.9-4.767h183.277s.954 4.767-7.263 4.767z"/><g clip-path="url(#a)"><path d="M646 171.452H424.762V51.372H646v120.08zm2.545-126.383H422.218a5.284 5.284 0 0 0-5.2 5.4V175.9a5.318 5.318 0 0 0 5.2 5.4h226.325a5.328 5.328 0 0 0 5.249-5.4V50.472a5.294 5.294 0 0 0-5.249-5.4z" fill="#171717"/></g><path fill="none" d="M417.022 227.316h236.61V45.334h-236.61v181.982z"/><path d="M669.648 491.346c4.885.148 5.033 5.164 10.362 5.164h.148c6.069-.148 13.47-.59 20.132-3.688 6.661-2.951 12.73-8.262 16.135-17.852a1.614 1.614 0 0 1 .74-.148v2.213a1.11 1.11 0 0 0 1.036 1.033h1.628a1.11 1.11 0 0 0 1.036-1.033v-3.1a4.334 4.334 0 0 1 1.332-.3c2.664-7.082 1.184-19.475 1.184-19.475s-.888-7.819-52.549-7.967v-.148h-2.368v.148c-51.513.147-52.4 7.967-52.4 7.967s-1.628 12.393 1.184 19.475a4.588 4.588 0 0 1 1.184.3v3.1a1.11 1.11 0 0 0 1.036 1.033h1.632a1.11 1.11 0 0 0 1.036-1.033v-2.213a1.112 1.112 0 0 1 .74.148c3.553 9.59 9.474 14.9 16.283 17.852 6.661 3.1 13.914 3.541 20.132 3.688h.148c5.181 0 5.477-5.016 10.214-5.164z" fill="#787878"/><path d="M723.382 454.167s-.888-7.819-52.549-7.967v-.148h-2.368v.148c-51.513.147-52.4 7.967-52.4 7.967s-1.628 12.393 1.184 19.475c16.431 4.278 36.266 4.426 43.224 4.426a4.247 4.247 0 0 0 3.553-2.508h11.4a3.856 3.856 0 0 0 3.4 2.508c7.105 0 26.793-.148 43.372-4.426 2.664-7.082 1.184-19.475 1.184-19.475z" fill="#474747"/><path d="M637.083 452.544v-4.869c-2.664.3-5.033.59-7.253 1.033v4.721c2.22-.3 4.589-.59 7.253-.885zM709.171 453.43v-4.721a71.126 71.126 0 0 0-7.253-1.033v4.869c2.665.3 5.181.59 7.253.885z" fill="#767676"/><path d="M629.829 448.709a42.868 42.868 0 0 0-9.77 2.508v4.574c.74-.59 4.441-1.475 9.77-2.361v-4.721zM718.941 455.643v-4.574a67.961 67.961 0 0 0-9.77-2.508v4.869c5.033.738 8.586 1.623 9.77 2.213z" fill="#5e5e5e"/><path d="M629.829 464.937h10.806a4.131 4.131 0 1 0 0-8.262h-10.806a4.131 4.131 0 1 0 0 8.262z" fill="#171717"/><path d="M637.675 460.806a2.779 2.779 0 0 0 2.812 2.656 2.649 2.649 0 0 0 2.665-2.656 2.685 2.685 0 0 0-2.665-2.8 2.806 2.806 0 0 0-2.812 2.8zM627.165 460.806a2.649 2.649 0 0 0 2.664 2.656 2.686 2.686 0 0 0 2.813-2.656 2.717 2.717 0 0 0-2.813-2.8 2.685 2.685 0 0 0-2.664 2.8z" fill="#2f2f2f"/><path d="M699.106 464.937h10.806a4.131 4.131 0 1 0 0-8.262h-10.806a4.131 4.131 0 1 0 0 8.262z" fill="#171717"/><path d="M707.1 460.806a2.649 2.649 0 0 0 2.665 2.656 2.686 2.686 0 0 0 2.812-2.656 2.717 2.717 0 0 0-2.812-2.8 2.685 2.685 0 0 0-2.665 2.8zM696.441 460.806a2.686 2.686 0 0 0 2.813 2.656 2.649 2.649 0 0 0 2.664-2.656 2.685 2.685 0 0 0-2.664-2.8 2.717 2.717 0 0 0-2.813 2.8zM617.247 473.642l4.441-2.803.444 1.623.74 2.508-4.145-1.033-1.48-.295z" fill="#2f2f2f"/><path d="M618.431 473.937l2.664-1.475h1.036v4.574a1.11 1.11 0 0 1-1.036 1.033h-1.628a1.11 1.11 0 0 1-1.036-1.033v-3.1z" fill="#a80000"/><path fill="#2f2f2f" d="M722.05 473.642l-4.441-2.803-.444 1.623-.888 2.508 4.293-1.033 1.48-.295z"/><path d="M720.866 473.937l-2.665-1.475h-1.036v4.574a1.11 1.11 0 0 0 1.036 1.033h1.628a1.11 1.11 0 0 0 1.036-1.033v-3.1z" fill="#a80000"/><path d="M636.046 476.888c-4.293-.443-8.734-1.033-13.174-1.918 3.553 9.59 9.474 14.9 16.283 17.852 6.661 3.1 14.063 3.541 20.132 3.688a36.468 36.468 0 0 1-5.329-7.377l-.148-.59a52.85 52.85 0 0 1-4-10.622q-6-.221-13.322-.885l-.444-.148zM685.339 489.133a31.17 31.17 0 0 1-5.181 7.377c12.286-.148 29.605-2.508 36.267-21.54a123.482 123.482 0 0 1-12.582 1.918h-.592c-4.885.443-9.622.885-13.766 1.033a52.757 52.757 0 0 1-3.849 10.622l-.3.59z" fill="#979797"/><path d="M636.491 477.035q7.327.664 13.322.885a76.075 76.075 0 0 1-2.072-18 74.524 74.524 0 0 1 .444-8.114c-14.655 1.18-26.645 2.951-27.977 4.279l-.148-.3a68.8 68.8 0 0 0 .444 8.114 44.408 44.408 0 0 0 1.332 6.934v.443a10.842 10.842 0 0 0 .592 2.065l.444 1.623c4.441.885 8.882 1.475 13.174 1.918l.444.148zm-6.661-12.1a4.131 4.131 0 1 1 0-8.262h10.806a4.131 4.131 0 1 1 0 8.262zM703.843 476.888a123.482 123.482 0 0 0 12.582-1.918h-.148l.888-2.508.444-1.623a63.266 63.266 0 0 0 1.628-15.048l-.148.3c-1.332-1.328-13.322-3.1-27.829-4.279a74.524 74.524 0 0 1 .444 8.114 68.93 68.93 0 0 1-2.22 18c4.145-.148 8.882-.59 13.766-1.033zm6.069-11.95h-10.806a4.131 4.131 0 1 1 0-8.262h10.806a4.131 4.131 0 1 1 0 8.262z" fill="#373738"/><path d="M640.487 459.921a.954.954 0 0 0-.888.885.828.828 0 0 0 .888.738.7.7 0 0 0 .74-.738.827.827 0 0 0-.74-.885zM629.829 459.921a.827.827 0 0 0-.74.885.7.7 0 0 0 .74.738c.592 0 .888-.3.888-.738a.852.852 0 0 0-.888-.885zM709.764 459.921a.827.827 0 0 0-.74.885.7.7 0 0 0 .74.738.828.828 0 0 0 .888-.738.954.954 0 0 0-.888-.885zM699.254 459.921a.852.852 0 0 0-.888.885c0 .443.3.738.888.738a.7.7 0 0 0 .74-.738.827.827 0 0 0-.74-.885z" fill="#181818"/><path d="M669.648 479.838c-3.4 0-4.441 6.344-4.589 8.409 0 1.918-3.4 3.541-5.329 3.541l1.184-2.656 8.734-9.295zm-8.586 8.7v.3l5.921-13.278-5.921 12.983zm17.911.59l1.036 2.065a3.306 3.306 0 0 1-1.332.3 3.959 3.959 0 0 1-3.7-2.508c-1.776-3.836-1.776-9.147-5.329-9.147l9.326 9.295zm-11.99-13.573h-2.96a4.247 4.247 0 0 1-3.553 2.508h-2.516c-2.22 0-4.885-.148-8.141-.148a52.85 52.85 0 0 0 4 10.622l.148.59a36.468 36.468 0 0 0 5.329 7.377h.148c5.181 0 5.477-5.016 10.214-5.164 4.885.148 5.033 5.164 10.362 5.164h.148a31.17 31.17 0 0 0 5.181-7.377l.3-.59a49.652 49.652 0 0 0 3.849-10.622c-3.109 0-5.921.148-7.993.148h-2.664a3.856 3.856 0 0 1-3.4-2.508zm8.438 0h-3.257l6.661 12.983-3.4-12.983z" fill="#6d6d6d"/><path d="M669.648 451.069c-7.253 0-14.655.3-21.464.738a74.524 74.524 0 0 0-.444 8.114 76.075 76.075 0 0 0 2.072 18c3.257 0 5.921.148 8.141.148h2.516a4.247 4.247 0 0 0 3.553-2.508h11.4a3.856 3.856 0 0 0 3.4 2.508h2.664c2.072 0 4.885-.148 7.993-.148a68.93 68.93 0 0 0 2.22-18 74.524 74.524 0 0 0-.444-8.114c-6.809-.443-14.358-.738-21.464-.738z" fill="#2f2f2f"/><path d="M703.25 476.888a79.735 79.735 0 0 0 1.036-11.95h.592a109.211 109.211 0 0 1-1.036 11.95z" fill="#4d4d4d"/><path d="M703.843 476.888h-.592c-1.48 8.7-3.849 11.36-4.145 11.655h-13.47l-.148.3-.148.3h13.915v-.148c.148 0 2.96-2.361 4.589-12.1z" fill="#565656"/><path fill="#545454" d="M685.635 488.543h-6.809l.148.59h6.365l.148-.295.148-.295z"/><path d="M672.165 475.56h-5.181l-5.921 13.278-.148.3-1.184 2.656c1.924 0 5.329-1.623 5.329-3.541.148-2.065 1.184-8.409 4.589-8.409 3.553 0 3.553 5.311 5.329 9.147a3.959 3.959 0 0 0 3.7 2.508 3.306 3.306 0 0 0 1.332-.3l-1.036-2.065-.148-.59-6.661-12.983z" fill="#282828"/><path d="M719.089 456.085c-1.924-1.918-26.941-5.016-49.293-5.016h-.148c-22.5 0-47.516 3.1-49.441 5.016l-.3-.443c2.22-2.065 28.273-5.164 49.737-5.164h.148c21.464 0 47.517 3.1 49.589 5.164l-.3.443z" fill="#171717"/><path d="M636.491 477.035c1.48 8.557 3.849 11.213 4.293 11.508h20.428l-.148.3-.148.3h-20.28l-.148-.148c-.148 0-2.96-2.361-4.441-12.1l.444.148z" fill="#535353"/><path d="M636.046 476.888a79.74 79.74 0 0 1-1.036-11.95h.592a86.587 86.587 0 0 0 .888 12.1l-.444-.148z" fill="#4d4d4d"/></svg>