<svg xmlns="http://www.w3.org/2000/svg" viewBox="0 0 200 150"><title>dayzero-something-wrong-on-server</title><path d="M69.958 128h-45.25a4.375 4.375 0 0 1-4.375-4.375V22.375A4.375 4.375 0 0 1 24.708 18h45.25a4.375 4.375 0 0 1 4.375 4.375v101.25A4.375 4.375 0 0 1 69.958 128z" fill="#002f33"/><path d="M54.958 128H9.708a4.375 4.375 0 0 1-4.375-4.375V22.375A4.375 4.375 0 0 1 9.708 18h45.25a4.375 4.375 0 0 1 4.375 4.375v101.25A4.375 4.375 0 0 1 54.958 128z" fill="#007365"/><path d="M50.458 38h-37.25a1.874 1.874 0 0 1-1.875-1.873V25.875A1.874 1.874 0 0 1 13.208 24h37.25a1.874 1.874 0 0 1 1.875 1.875v10.25A1.874 1.874 0 0 1 50.46 38z" fill="#00a387"/><circle cx="47.333" cy="29" r="2" fill="#bad80a"/><path d="M14.333 27h3v8h-3zm6 0h3v8h-3zm6 0h3v8h-3zm6 0h3v8h-3z" fill="#007365"/><path d="M50.458 58h-37.25a1.874 1.874 0 0 1-1.875-1.873V45.875A1.874 1.874 0 0 1 13.208 44h37.25a1.874 1.874 0 0 1 1.875 1.875v10.25A1.874 1.874 0 0 1 50.46 58z" fill="#00a387"/><circle cx="47.333" cy="49" r="2" fill="#bad80a"/><path d="M14.333 47h3v8h-3zm6 0h3v8h-3zm6 0h3v8h-3zm6 0h3v8h-3z" fill="#007365"/><path d="M50.458 78h-37.25a1.874 1.874 0 0 1-1.875-1.873V65.875A1.874 1.874 0 0 1 13.208 64h37.25a1.874 1.874 0 0 1 1.875 1.875v10.25A1.874 1.874 0 0 1 50.46 78z" fill="#00a387"/><circle cx="47.333" cy="69" r="2" fill="#bad80a"/><path d="M14.333 67h3v8h-3zm6 0h3v8h-3zm6 0h3v8h-3zm6 0h3v8h-3z" fill="#007365"/><path d="M50.458 98h-37.25a1.874 1.874 0 0 1-1.875-1.873V85.875A1.874 1.874 0 0 1 13.208 84h37.25a1.874 1.874 0 0 1 1.875 1.875v10.25A1.874 1.874 0 0 1 50.46 98z" fill="#00a387"/><circle cx="47.333" cy="89" r="2" fill="#bad80a"/><path d="M14.333 87h3v8h-3zm6 0h3v8h-3zm6 0h3v8h-3zm6 0h3v8h-3z" fill="#007365"/><path d="M129.958 128h-45.25a4.375 4.375 0 0 1-4.375-4.375V22.375A4.375 4.375 0 0 1 84.708 18h45.25a4.375 4.375 0 0 1 4.375 4.375v101.25a4.375 4.375 0 0 1-4.375 4.375z" fill="#002f33"/><path d="M114.958 128h-45.25a4.375 4.375 0 0 1-4.375-4.375V22.375A4.375 4.375 0 0 1 69.708 18h45.25a4.375 4.375 0 0 1 4.375 4.375v101.25a4.375 4.375 0 0 1-4.375 4.375z" fill="#007365"/><path d="M110.458 38h-37.25a1.874 1.874 0 0 1-1.875-1.873V25.875A1.874 1.874 0 0 1 73.208 24h37.25a1.874 1.874 0 0 1 1.875 1.875v10.25A1.874 1.874 0 0 1 110.46 38z" fill="#00a387"/><circle cx="107.333" cy="29" r="2" fill="#bad80a"/><path d="M74.333 27h3v8h-3zm6 0h3v8h-3zm6 0h3v8h-3zm6 0h3v8h-3z" fill="#007365"/><path d="M110.458 58h-37.25a1.874 1.874 0 0 1-1.875-1.873V45.875A1.874 1.874 0 0 1 73.208 44h37.25a1.874 1.874 0 0 1 1.875 1.875v10.25A1.874 1.874 0 0 1 110.46 58z" fill="#00a387"/><circle cx="107.333" cy="49" r="2" fill="#bad80a"/><path d="M74.333 47h3v8h-3zm6 0h3v8h-3zm6 0h3v8h-3zm6 0h3v8h-3z" fill="#007365"/><path d="M110.458 78h-37.25a1.874 1.874 0 0 1-1.875-1.873V65.875A1.874 1.874 0 0 1 73.208 64h37.25a1.874 1.874 0 0 1 1.875 1.875v10.25A1.874 1.874 0 0 1 110.46 78z" fill="#00a387"/><circle cx="107.333" cy="69" r="2" fill="#bad80a"/><path d="M74.333 67h3v8h-3zm6 0h3v8h-3zm6 0h3v8h-3zm6 0h3v8h-3z" fill="#007365"/><path d="M110.458 98h-37.25a1.874 1.874 0 0 1-1.875-1.873V85.875A1.874 1.874 0 0 1 73.208 84h37.25a1.874 1.874 0 0 1 1.875 1.875v10.25A1.874 1.874 0 0 1 110.46 98z" fill="#00a387"/><circle cx="107.333" cy="89" r="2" fill="#bad80a"/><path d="M74.333 87h3v8h-3zm6 0h3v8h-3zm6 0h3v8h-3zm6 0h3v8h-3z" fill="#007365"/><path d="M189.958 128h-45.25a4.375 4.375 0 0 1-4.375-4.375V22.375A4.375 4.375 0 0 1 144.708 18h45.25a4.375 4.375 0 0 1 4.375 4.375v101.25a4.375 4.375 0 0 1-4.375 4.375z" fill="#505050"/><path d="M174.958 128h-45.25a4.375 4.375 0 0 1-4.375-4.375V22.375A4.375 4.375 0 0 1 129.708 18h45.25a4.375 4.375 0 0 1 4.375 4.375v101.25a4.375 4.375 0 0 1-4.375 4.375z" fill="#737373"/><path d="M170.458 38h-37.25a1.874 1.874 0 0 1-1.875-1.873V25.875A1.874 1.874 0 0 1 133.208 24h37.25a1.874 1.874 0 0 1 1.875 1.875v10.25A1.874 1.874 0 0 1 170.46 38z" fill="#a6a6a6"/><circle cx="167.333" cy="29" r="2" fill="#737373"/><path d="M134.333 27h3v8h-3zm6 0h3v8h-3zm6 0h3v8h-3zm6 0h3v8h-3z" fill="#737373"/><path d="M170.458 58h-37.25a1.874 1.874 0 0 1-1.875-1.873V45.875A1.874 1.874 0 0 1 133.208 44h37.25a1.874 1.874 0 0 1 1.875 1.875v10.25A1.874 1.874 0 0 1 170.46 58z" fill="#a6a6a6"/><circle cx="167.333" cy="49" r="2" fill="#737373"/><path d="M134.333 47h3v8h-3zm6 0h3v8h-3zm6 0h3v8h-3zm6 0h3v8h-3z" fill="#737373"/><path d="M170.458 78h-37.25a1.874 1.874 0 0 1-1.875-1.873V65.875A1.874 1.874 0 0 1 133.208 64h37.25a1.874 1.874 0 0 1 1.875 1.875v10.25A1.874 1.874 0 0 1 170.46 78z" fill="#a6a6a6"/><circle cx="167.333" cy="69" r="2" fill="#737373"/><path d="M134.333 67h3v8h-3zm6 0h3v8h-3zm6 0h3v8h-3zm6 0h3v8h-3z" fill="#737373"/><path d="M170.458 98h-37.25a1.874 1.874 0 0 1-1.875-1.873V85.875A1.874 1.874 0 0 1 133.208 84h37.25a1.874 1.874 0 0 1 1.875 1.875v10.25A1.874 1.874 0 0 1 170.46 98z" fill="#a6a6a6"/><circle cx="167.333" cy="89" r="2" fill="#737373"/><path d="M134.333 87h3v8h-3zm6 0h3v8h-3zm6 0h3v8h-3zm6 0h3v8h-3z" fill="#737373"/></svg>