<svg xmlns="http://www.w3.org/2000/svg" viewBox="0 0 135.81 147.64"><defs><style>.cls-1{fill:#b3d6f2}.cls-2{font-size:30px;fill:#fff;font-family:SegoeUI-Semibold,Segoe UI;font-weight:700}.cls-3{fill:#c8c8c8}.cls-4{fill:#0078d7}.cls-12,.cls-13,.cls-4,.cls-5,.cls-7,.cls-8,.cls-9{fill-rule:evenodd}.cls-6,.cls-7{fill:#2488d8}.cls-14,.cls-8{fill:#ffb900}.cls-9{fill:#69afe5}.cls-10{fill:#231f20}.cls-11{fill:#939393}.cls-12{fill:#e81123}.cls-13{fill:none;stroke:#fff;stroke-miterlimit:10}</style></defs><title>general-robot-errorcode-401</title><g id="Layer_2" data-name="Layer 2"><g id="Layer_1-2" data-name="Layer 1"><circle class="cls-1" cx="99.87" cy="35.94" r="35.94"/><text class="cls-2" transform="translate(76.62 43.6)">401</text><path class="cls-3" d="M85.31 147.64h-47.1a3.15 3.15 0 0 1-3.21-2.77 3 3 0 0 1 3-3.31h47.1a3.15 3.15 0 0 1 3.18 2.77 3 3 0 0 1-2.97 3.31z"/><path class="cls-4" d="M92.41 76.02L88.8 78.6l8.48 11.85 3.61-2.59-8.48-11.84z"/><path class="cls-5" d="M92.41 76.02L88.8 78.6l2.79 3.9 3.61-2.58-2.79-3.9z"/><rect class="cls-6" x="69.85" y="66.15" width="22.67" height="13.33" rx="2.67" ry="2.67" transform="matrix(-.98 -.18 .18 -.98 147.96 159.04)"/><path class="cls-4" d="M75.23 88.97H50.18v13.68h25.05V88.97z"/><path class="cls-5" d="M75.23 86.13H50.18v2.84h25.05v-2.84z"/><path class="cls-7" d="M62.71 49.18a14.75 14.75 0 0 1 14.83 14.75H47.87a14.75 14.75 0 0 1 14.84-14.75z"/><path class="cls-8" d="M72 58.06a2 2 0 1 0-2 2 2 2 0 0 0 2-2zM57.47 58.06a2 2 0 1 0-2 2 2 2 0 0 0 2-2z"/><path class="cls-9" d="M77.58 111a3 3 0 0 0 2.83-2.79v-4.38a2.74 2.74 0 0 0-2.83-2.79H48.07a2.74 2.74 0 0 0-2.83 2.79v4.38a3 3 0 0 0 2.83 2.79z"/><path class="cls-4" d="M74.52 110.64h-4.44v28.61h4.44v-28.61z"/><path class="cls-5" d="M74.52 110.64h-4.44v5.33h4.44v-5.33z"/><path class="cls-4" d="M54.62 110.64h-4.44v28.61h4.44v-28.61z"/><path class="cls-5" d="M54.62 110.64h-4.44v5.33h4.44v-5.33z"/><path class="cls-4" d="M64.93 142.8a5.65 5.65 0 0 1 5.34-4.8H74c2.88 0 5.34 2.4 5.34 4.8z"/><path class="cls-5" d="M79.31 142.8H64.93v2.84h14.38v-2.84z"/><path class="cls-4" d="M45.21 142.8c0-2.4 2.44-4.8 5.28-4.8h3.65a5.61 5.61 0 0 1 5.28 4.8z"/><path class="cls-5" d="M59.42 142.8H45.21v2.84h14.21v-2.84z"/><path class="cls-4" d="M98.38 97.96l-4.23-1.37-3.28 10.14 4.23 1.37 3.28-10.14z"/><path class="cls-5" d="M98.38 97.96l-4.23-1.37-1.58 4.91 4.22 1.36 1.59-4.9z"/><path class="cls-7" d="M92.65 93.17a3 3 0 0 0 1.85 3.53l3.87 1.3a3 3 0 0 0 3.57-1.78l2.71-8.37a3 3 0 0 0-1.85-3.54L98.93 83a3 3 0 0 0-3.57 1.78l-2.71 8.37z"/><path class="cls-4" d="M93.5 114.36a3.44 3.44 0 0 0 1.5-2.07 3.48 3.48 0 0 0-2.07-4.08 3.57 3.57 0 0 0-4.46 2 2.46 2.46 0 0 0 .4 2.69l-3.05 1.57a6.62 6.62 0 0 1 8.11-9.33 6.4 6.4 0 0 1 4.15 8.17 6.5 6.5 0 0 1-3 4.14l-1.55-3.06zM33.19 79.03l4.38.72-2.36 14.38-4.39-.73 2.37-14.37z"/><path class="cls-5" d="M33.19 79.03l4.38.72-.78 4.73-4.38-.72.78-4.73z"/><rect class="cls-6" x="31.6" y="65.74" width="22.67" height="13.33" rx="2.67" ry="2.67" transform="rotate(-11.55 42.92 72.415)"/><path class="cls-10" d="M56.46 48.79L52.6 51.7a1 1 0 1 1-1.2-1.6l3.86-2.91a1 1 0 0 1 1.2 1.6zM75.27 53.61l-4.67-1.27a1 1 0 1 0-.52 1.93l4.67 1.27a1 1 0 0 0 .52-1.93z"/><path class="cls-9" d="M42.16 63.22A1.74 1.74 0 0 0 40.41 65v19.74a1.74 1.74 0 0 0 1.74 1.74h42.17a1.74 1.74 0 0 0 1.74-1.74V64.95a1.73 1.73 0 0 0-1.73-1.73z"/><path class="cls-4" d="M25.95 89.33l-1.59 4.14-9.95-3.81L16 85.52l9.95 3.81z"/><path class="cls-5" d="M25.95 89.33l-1.59 4.14-4.81-1.84 1.59-4.15 4.81 1.85z"/><path class="cls-7" d="M26.09 96.8a3 3 0 0 1-1.59-3.66l1.46-3.8a3 3 0 0 1 3.63-1.66l8.21 3.14a3 3 0 0 1 1.59 3.66l-1.46 3.8a3 3 0 0 1-3.63 1.66l-8.21-3.14z"/><path class="cls-4" d="M10.12 82.84a3.44 3.44 0 0 1 2.56.12 3.48 3.48 0 0 1 1.88 4.18 3.57 3.57 0 0 1-4.33 2.23 2.46 2.46 0 0 1-1.84-2l-3.14 1.38a6.74 6.74 0 0 0 3.83 3.63 6.74 6.74 0 0 0 8.52-4.09 6.4 6.4 0 0 0-3.76-8.35 6.5 6.5 0 0 0-5.13-.23l1.41 3.13z"/><path class="cls-11" transform="rotate(180 12.25 79.195)" d="M10.75 61.95h3v34.5h-3z"/><path class="cls-12" d="M16.38 47.61l6.79 6.79v9.59l-6.79 6.79H6.79L0 63.99V54.4l6.79-6.79h9.59z"/><path class="cls-13" d="M15.62 49.45l5.71 5.71v8.08l-5.71 5.71H7.54l-5.71-5.71v-8.08l5.71-5.71h8.08z"/><path class="cls-4" d="M10.23 89.36a3.5 3.5 0 0 0 4-1.6V92a6.28 6.28 0 0 1-5.17.35 6.74 6.74 0 0 1-3.83-3.63l3.14-1.39a2.46 2.46 0 0 0 1.86 2.03z"/><path class="cls-5" d="M51 74.61a4.39 4.39 0 0 0 4.58 4.55h15.3a4.39 4.39 0 0 0 4.58-4.55 4.63 4.63 0 0 0-4.58-4.55H55.62A4.63 4.63 0 0 0 51 74.61z"/><path class="cls-14" d="M70.7 77.47a.5.5 0 0 0 .5-.5v-4.5a.5.5 0 0 0-1 0V77a.5.5 0 0 0 .5.47zM67.7 77.47a.5.5 0 0 0 .5-.5v-4.5a.5.5 0 0 0-1 0V77a.5.5 0 0 0 .5.47zM64.7 77.47a.5.5 0 0 0 .5-.5v-4.5a.5.5 0 0 0-1 0V77a.5.5 0 0 0 .5.47zM61.7 77.47a.5.5 0 0 0 .5-.5v-4.5a.5.5 0 0 0-1 0V77a.5.5 0 0 0 .5.47zM58.7 77.47a.5.5 0 0 0 .5-.5v-4.5a.5.5 0 0 0-1 0V77a.5.5 0 0 0 .5.47zM55.7 77.47a.5.5 0 0 0 .5-.5v-4.5a.5.5 0 0 0-1 0V77a.5.5 0 0 0 .5.47z"/></g></g></svg>