<svg xmlns="http://www.w3.org/2000/svg" viewBox="0 0 134.752 148"><title>general-robot-errorcode-500</title><circle cx="98.812" cy="35.94" r="35.94" fill="#b3d6f2"/><path d="M26.923 148h46.47a3.109 3.109 0 0 0 3.138-2.734 2.961 2.961 0 0 0-2.96-3.266h-46.5a3.109 3.109 0 0 0-3.138 2.734 2.961 2.961 0 0 0 2.99 3.266z" fill="#c8c8c8"/><g style="isolation:isolate" fill="#fff"><path d="M74.063 43.718v-3.955a8.635 8.635 0 0 0 4.585 1.318 4.305 4.305 0 0 0 2.863-.872 2.934 2.934 0 0 0 1.033-2.366q0-3.12-4.409-3.12a32.649 32.649 0 0 0-3.75.249l.791-11.719h11.118v3.779h-7.588l-.293 4.2q1.128-.088 1.948-.088a7.164 7.164 0 0 1 5.068 1.7 5.934 5.934 0 0 1 1.831 4.57 6.746 6.746 0 0 1-2.183 5.193 8.386 8.386 0 0 1-5.918 2.014 12.663 12.663 0 0 1-5.096-.903zM97.749 44.626q-7.5 0-7.5-10.532 0-5.464 2.028-8.328a6.761 6.761 0 0 1 5.882-2.866q7.324 0 7.324 10.708 0 5.332-2 8.174a6.586 6.586 0 0 1-5.734 2.844zm.205-18.193q-3 0-3 7.544 0 7.1 2.944 7.1 2.871 0 2.871-7.324t-2.815-7.32zM115 44.626q-7.5 0-7.5-10.532 0-5.464 2.028-8.328a6.761 6.761 0 0 1 5.882-2.864q7.324 0 7.324 10.708 0 5.332-2 8.174A6.586 6.586 0 0 1 115 44.626zm.205-18.193q-3 0-3 7.544 0 7.1 2.944 7.1 2.871 0 2.871-7.324t-2.81-7.32z"/></g><path d="M19.282 67.58l-1.15 4.28-14.07-3.77 1.15-4.29z" fill="#0078d7"/><path d="M19.282 67.58l-1.15 4.28-4.632-1.24 1.15-4.29z"/><rect x="22.584" y="61.391" width="13.33" height="22.67" rx="2.67" ry="2.67" transform="rotate(-76.38 29.25 72.727)" fill="#2488d8"/><path d="M38 88h25v14H38z" fill="#0078d7"/><path d="M38 85h25v3H38z"/><path d="M36 62.671V63h30.183a15.01 15.01 0 0 0-15.02-15h-.493A14.714 14.714 0 0 0 36 62.671z" fill="#2488d8"/><path d="M41.112 57.21a2 2 0 1 1 2 2 2 2 0 0 1-2-2zm14.57 0a2 2 0 1 1 2 2 2 2 0 0 1-2-2z" fill="#ffb900"/><path d="M35.816 109.98a3 3 0 0 1-2.816-2.8v-4.38a2.74 2.74 0 0 1 2.675-2.8H65.184A2.737 2.737 0 0 1 68 102.659v4.543a3 3 0 0 1-2.816 2.8z" fill="#69afe5"/><path d="M39 110h4v29h-4z" fill="#0078d7"/><path d="M39 110h4v5h-4z"/><path d="M59 110h4v29h-4z" fill="#0078d7"/><path d="M59 110h4v5h-4z"/><path d="M48.522 142a5.885 5.885 0 0 0-5.562-5h-3.855c-3 0-5.562 2.5-5.562 5z" fill="#0078d7"/><path d="M34 142h14v3H34z"/><path d="M68.238 142c0-2.5-2.542-5-5.5-5h-3.812a5.844 5.844 0 0 0-5.5 5z" fill="#0078d7"/><path d="M54 142h14v3H54z"/><path d="M4.032 75.25l4.42-.46 1.1 10.6-4.42.46z" fill="#0078d7"/><path d="M4.032 75.25l4.42-.46.53 5.13-4.42.45z"/><path d="M10.632 72a3 3 0 0 1-2.55 3.08l-4 .42a3 3 0 0 1-3.16-2.49L0 64.25a3 3 0 0 1 2.55-3.08l4-.42a3 3 0 0 1 3.18 2.5l.91 8.75z" fill="#2488d8"/><path d="M5.392 92.3a3.44 3.44 0 0 1-1.05-2.3 3.48 3.48 0 0 1 2.88-3.6 3.57 3.57 0 0 1 3.95 2.86 2.46 2.46 0 0 1-1 2.55l2.7 2.19a6.62 6.62 0 0 0-6-10.81 6.4 6.4 0 0 0-5.753 6.987l.013.123a6.5 6.5 0 0 0 2.11 4.7zm77.34-20.61l-1.4 4.22 13.81 4.6 1.41-4.21z" fill="#0078d7"/><path d="M82.732 71.69l-1.4 4.22 4.55 1.51 1.4-4.21z"/><rect x="59.977" y="66.952" width="23.046" height="13.095" rx="2.67" ry="2.67" transform="rotate(-.309 71.56 73.62)" fill="#2488d8"/><path d="M97.5 86.55l-4.43-.39-.93 10.61 4.42.39z" fill="#0078d7"/><path d="M97.5 86.55l-4.43-.39-.45 5.13 4.43.39z"/><path d="M91 83.15a3 3 0 0 0 2.59 3l4.06.36a3 3 0 0 0 3.08-2.51l.77-8.76a3 3 0 0 0-2.59-3l-4.06-.36a3 3 0 0 0-3.08 2.54L91 83.18z" fill="#2488d8"/><path d="M96.4 103.62a3.44 3.44 0 0 0 1-2.36 3.48 3.48 0 0 0-2.93-3.52 3.57 3.57 0 0 0-3.9 2.92 2.46 2.46 0 0 0 1 2.53l-2.63 2.21a6.62 6.62 0 0 1 5.82-10.9 6.4 6.4 0 0 1 5.87 6.89q0 .055-.01.11a6.5 6.5 0 0 1-2 4.71l-2.2-2.64z" fill="#0078d7"/><path d="M42.592 47.94l-3.86 2.91a1 1 0 1 1-1.2-1.6l3.86-2.91a1 1 0 0 1 1.2 1.6zm21 1.31l-3.86-2.91a1 1 0 1 0-1.2 1.6l3.86 2.91a1 1 0 0 0 1.2-1.6z" fill="#231f20"/><path d="M73 63.74v19.52A1.74 1.74 0 0 1 71.26 85H28.74A1.74 1.74 0 0 1 27 83.26V63.73A1.73 1.73 0 0 1 28.73 62h42.53A1.74 1.74 0 0 1 73 63.74z" fill="#69afe5"/><circle cx="50.152" cy="73.59" r="8.33"/><path d="M54.5 69.85l-.7-.71-3.57 3.56-3.56-3.56-.71.71 3.57 3.56-3.57 3.56.71.71 3.56-3.56 3.57 3.56.7-.71-3.56-3.56z" fill="#ff8c00"/></svg>