<svg xmlns="http://www.w3.org/2000/svg" viewBox="0 0 137.104 146"><title>general-robot-errorcode-400</title><circle cx="101.164" cy="35.94" r="35.94" fill="#b3d6f2"/><g style="isolation:isolate" fill="#fff"><path d="M88.8 23.164v13.242h2.52v3.457H88.8v4.307h-4.22v-4.307h-9.155v-3.618q1.216-1.362 2.52-2.981t2.52-3.333q1.216-1.714 2.263-3.45a34.581 34.581 0 0 0 1.78-3.318zm-9.229 13.242h5.01v-7.339q-.513.952-1.113 1.926t-1.26 1.919q-.659.945-1.333 1.831t-1.304 1.663zM100.62 44.536q-7.5 0-7.5-10.532 0-5.464 2.029-8.328a6.76 6.76 0 0 1 5.881-2.864q7.324 0 7.324 10.708 0 5.332-2 8.174a6.587 6.587 0 0 1-5.734 2.842zm.205-18.193q-3 0-3 7.544 0 7.1 2.944 7.1 2.871 0 2.871-7.324t-2.815-7.32zM117.876 44.536q-7.5 0-7.5-10.532 0-5.464 2.029-8.328a6.76 6.76 0 0 1 5.881-2.864q7.324 0 7.324 10.708 0 5.332-2 8.174a6.587 6.587 0 0 1-5.734 2.842zm.205-18.193q-3 0-3 7.544 0 7.1 2.944 7.1 2.871 0 2.871-7.324t-2.815-7.32z"/></g><path d="M23.394 71.21l.69 4.39-14.39 2.26L9 73.48z" fill="#0078d7"/><path d="M23.394 71.21l.69 4.39-4.74.74-.69-4.38z"/><rect x="23.255" y="65.209" width="22.67" height="13.33" rx="2.67" ry="2.67" transform="rotate(-10.35 34.59 71.873)" fill="#2488d8"/><path d="M43 89h25v14H43z" fill="#0078d7"/><path d="M43 86h25v3H43z"/><path d="M40 63.661V64h30.152a14.99 14.99 0 0 0-14.98-15h-.508A14.7 14.7 0 0 0 40 63.661z" fill="#2488d8"/><path d="M46.014 58.12a2 2 0 1 1 2 2 2 2 0 0 1-2-2zm14.54 0a2 2 0 1 1 2 2 2 2 0 0 1-2-2z" fill="#ffb900"/><path d="M39.816 111A3 3 0 0 1 37 108.2v-4.4a2.74 2.74 0 0 1 2.675-2.8H69.184A2.737 2.737 0 0 1 72 103.659v4.543a3 3 0 0 1-2.816 2.8z" fill="#69afe5"/><path d="M44 111h4v29h-4z" fill="#0078d7"/><path d="M44 111h4v5h-4z"/><path d="M64 111h4v29h-4z" fill="#0078d7"/><path d="M64 111h4v5h-4z"/><path d="M53.394 143a5.885 5.885 0 0 0-5.562-5h-3.9c-3 0-5.562 2.5-5.562 5z" fill="#0078d7"/><path d="M39 143h14v3H39z"/><path d="M73.1 143c0-2.5-2.542-5-5.5-5h-3.8a5.844 5.844 0 0 0-5.5 5z" fill="#0078d7"/><path d="M59 143h14v3H59z"/><path d="M11.724 67.25l-4.36.86-2.07-10.45 4.35-.86z" fill="#0078d7"/><path d="M11.724 67.25l-4.36.86-1-5.05 4.36-.86z"/><path d="M5.474 71.34A3 3 0 0 1 7.724 68l4-.79a3 3 0 0 1 3.29 2.23l1.71 8.62a3 3 0 0 1-2.25 3.3l-4 .79A3 3 0 0 1 7.184 80z" fill="#2488d8"/><path d="M8.784 50.39a3.44 3.44 0 0 1 1.23 2.24 3.48 3.48 0 0 1-2.5 3.81A3.57 3.57 0 0 1 3.324 54a2.46 2.46 0 0 1 .69-2.66l-2.83-1.92a6.62 6.62 0 0 0 7 10.21 6.4 6.4 0 0 0 5.067-7.5l-.027-.13a6.5 6.5 0 0 0-2.53-4.46l-1.9 2.86zm77.51 21.65l-.79 4.37 14.34 2.56.78-4.37z" fill="#0078d7"/><path d="M86.294 72.04l-.79 4.37 4.72.84.79-4.37z"/><rect x="68.422" y="61.126" width="13.33" height="22.67" rx="2.67" ry="2.67" transform="rotate(-78.45 75.087 72.46)" fill="#2488d8"/><path d="M98.044 68.32l4.33.96 2.3-10.41-4.34-.96z" fill="#0078d7"/><path d="M98.044 68.32l4.33.96 1.11-5.03-4.33-.96z"/><path d="M104.2 72.54a3 3 0 0 0-2.19-3.34l-4-.88a3 3 0 0 0-3.39 2.12L92.764 79a3 3 0 0 0 2.18 3.35l4 .88a3 3 0 0 0 3.39-2.12l1.89-8.59z" fill="#2488d8"/><path d="M101 51.53a3.44 3.44 0 0 0-1.32 2.2 3.48 3.48 0 0 0 2.45 3.87 3.57 3.57 0 0 0 4.25-2.39 2.46 2.46 0 0 0-.66-2.64l2.89-1.86a6.62 6.62 0 0 1-7.18 10.06 6.4 6.4 0 0 1-4.943-7.582q.02-.094.043-.188a6.5 6.5 0 0 1 2.63-4.41l1.84 2.9z" fill="#0078d7"/><path d="M47.464 48.84L43.6 51.75a1 1 0 0 1-1.2-1.6l3.86-2.91a1 1 0 0 1 1.2 1.6zm21 1.32L64.6 47.25a1 1 0 1 0-1.2 1.6l3.86 2.91a1 1 0 0 0 1.2-1.6z" fill="#231f20"/><path d="M76.247 63A1.737 1.737 0 0 1 78 64.71v19.55A1.74 1.74 0 0 1 76.26 86H33.74A1.74 1.74 0 0 1 32 84.26V64.71A1.727 1.727 0 0 1 33.743 63h42.5z" fill="#69afe5"/><circle cx="55.014" cy="74.5" r="8.33"/><path d="M53.569 77.428a2.339 2.339 0 0 1-.121-.457 2.92 2.92 0 0 1 .027-1.137 2.3 2.3 0 0 1 .211-.559 2.655 2.655 0 0 1 .352-.5 4.535 4.535 0 0 1 .492-.473q.3-.25.52-.465a3.289 3.289 0 0 0 .379-.43 1.67 1.67 0 0 0 .234-.445 1.594 1.594 0 0 0 .078-.512 1.165 1.165 0 0 0-.086-.45 1.015 1.015 0 0 0-.246-.355 1.182 1.182 0 0 0-.391-.234 1.459 1.459 0 0 0-.512-.086 3.508 3.508 0 0 0-1.266.254 4.147 4.147 0 0 0-1.24.771V70a4.887 4.887 0 0 1 1.313-.539 5.976 5.976 0 0 1 1.469-.18 5.45 5.45 0 0 1 1.352.16 3.118 3.118 0 0 1 1.09.5 2.381 2.381 0 0 1 .727.879 2.9 2.9 0 0 1 .262 1.285 3.175 3.175 0 0 1-.109.863 2.908 2.908 0 0 1-.32.73 3.688 3.688 0 0 1-.523.66q-.313.316-.719.652-.274.227-.48.422a2.668 2.668 0 0 0-.344.387 1.5 1.5 0 0 0-.207.406 1.569 1.569 0 0 0-.07.488 1.5 1.5 0 0 0 .051.383 1.1 1.1 0 0 0 .137.328zm1.141 3.422a1.489 1.489 0 0 1-1.039-.375 1.225 1.225 0 0 1-.414-.922 1.172 1.172 0 0 1 .414-.914 1.508 1.508 0 0 1 1.039-.367 1.47 1.47 0 0 1 1.023.367 1.168 1.168 0 0 1 .406.914 1.209 1.209 0 0 1-.4.93 1.481 1.481 0 0 1-1.03.367z" fill="#ff8c00" style="isolation:isolate"/></svg>