<svg xmlns="http://www.w3.org/2000/svg" viewBox="0 0 134.608 147.225"><title>general-robot-error</title><circle cx="98.668" cy="35.94" r="35.94" fill="#b3d6f2"/><path d="M27.439 147.224H73.92a3.109 3.109 0 0 0 3.138-2.734 2.961 2.961 0 0 0-2.961-3.266h-46.51a3.109 3.109 0 0 0-3.138 2.734 2.961 2.961 0 0 0 2.99 3.266z" fill="#c8c8c8"/><path d="M19.138 68.16l-1.02 4.32-14.18-3.34 1.02-4.32z" fill="#0078d7"/><path d="M19.138 68.16l-1.02 4.32-4.67-1.1 1.02-4.32z"/><rect x="22.299" y="61.878" width="13.33" height="22.67" rx="2.67" ry="2.67" transform="rotate(-78.5 28.964 73.213)" fill="#2488d8"/><path d="M83.7 76.03l1.29-4.25 13.94 4.24-1.29 4.25z" fill="#0078d7"/><path d="M83.7 76.03l1.29-4.25 4.59 1.4-1.29 4.25z"/><rect x="62" y="68.224" width="23" height="13" rx="2.67" ry="2.67" fill="#2488d8"/><path d="M38 88.224h25v14H38z" fill="#0078d7"/><path d="M38 85.224h25v3H38z"/><path d="M36 62.985v.239h30.142a14.99 14.99 0 0 0-14.979-15h-.4A14.8 14.8 0 0 0 36 62.985z" fill="#2488d8"/><path d="M41.628 57.12a2 2 0 1 1 2 2 2 2 0 0 1-2-2zm14.57 0a2 2 0 1 1 2 2 2 2 0 0 1-1.998-2z" fill="#ffb900"/><path d="M39 109.224h4v29h-4z" fill="#0078d7"/><path d="M39 110.224h4v5h-4z"/><path d="M59 109.224h4v29h-4z" fill="#0078d7"/><path d="M59 110.224h4v5h-4z"/><path d="M49.038 142.224a5.885 5.885 0 0 0-5.562-5h-3.855c-3 0-5.562 2.5-5.562 5z" fill="#0078d7"/><path d="M35 142.224h14v3H35z"/><path d="M68.755 142.224c0-2.5-2.542-5-5.5-5h-3.813a5.844 5.844 0 0 0-5.5 5z" fill="#0078d7"/><path d="M54 142.224h14v3H54z"/><path d="M4.478 75.84l4.39-.63 1.51 10.56-4.4.62z" fill="#0078d7"/><path d="M4.478 75.84l4.39-.63.73 5.1-4.4.63z"/><path d="M10.938 72.09a3 3 0 0 1-2.43 3.17l-4 .57a3 3 0 0 1-3.22-2.37l-1.28-8.7a3 3 0 0 1 2.43-3.17l4-.57a3 3 0 0 1 3.22 2.37L10.9 72.1z" fill="#2488d8"/><path d="M6 92.83a3.44 3.44 0 0 1-1.14-2.3 3.48 3.48 0 0 1 2.74-3.67 3.57 3.57 0 0 1 4.06 2.7 2.46 2.46 0 0 1-.86 2.58l2.72 2.08a6.62 6.62 0 0 0-6.4-10.57 6.4 6.4 0 0 0-5.482 7.2l.022.148a6.5 6.5 0 0 0 2.29 4.6L6 92.85zm90.4-7.33l4.43.23-.54 10.65-4.44-.23z" fill="#0078d7"/><path d="M96.4 85.5l4.43.23-.26 5.15-4.44-.23z"/><path d="M94.008 82.58a3 3 0 0 0 2.65 2.94l4 .21a3 3 0 0 0 2.94-2.65l.45-8.78a3 3 0 0 0-2.65-2.94l-4-.21a3 3 0 0 0-2.89 2.65z" fill="#2488d8"/><path d="M100.318 103.224a3.47 3.47 0 0 0-2.11-5.83 3.19 3.19 0 0 0-3.376 2.993v.087a3.45 3.45 0 0 0 .68 2.47l-2.5 2.34a6.84 6.84 0 0 1 .554-9.726 6.932 6.932 0 0 1 9.523.474 6.84 6.84 0 0 1-.415 9.733l-.021.019-2.29-2.56z" fill="#0078d7"/><path d="M43.108 47.84l-3.86 2.91a1 1 0 0 1-1.2-1.6l3.86-2.91a1 1 0 1 1 1.2 1.6zm21 1.32l-3.86-2.91a1 1 0 0 0-1.2 1.6l3.86 2.91a1 1 0 0 0 1.2-1.6z" fill="#231f20"/><path d="M71.247 62.224A1.737 1.737 0 0 1 73 63.934v19.55a1.74 1.74 0 0 1-1.74 1.74H28.74a1.74 1.74 0 0 1-1.74-1.74v-19.53a1.73 1.73 0 0 1 1.73-1.73z" fill="#69afe5"/><circle cx="50.668" cy="73.5" r="8.33"/><path d="M55.018 69.52l-.71-.71-3.56 3.57-3.56-3.57-.71.71 3.56 3.56-3.56 3.57.71.7 3.56-3.56 3.56 3.56.71-.7-3.56-3.57z" fill="#ff8c00"/><path d="M35.817 110.2A3 3 0 0 1 33 107.4V103a2.74 2.74 0 0 1 2.7-2.782h29.483A2.737 2.737 0 0 1 68 102.883v4.543a3 3 0 0 1-2.817 2.8z" fill="#69afe5"/><path d="M99.045 52.517a4.175 4.175 0 0 1-2.965-1.089 3.476 3.476 0 0 1-1.168-2.639 3.365 3.365 0 0 1 1.179-2.65 4.321 4.321 0 0 1 2.954-1.039 4.2 4.2 0 0 1 2.942 1.044 3.418 3.418 0 0 1 1.146 2.639A3.5 3.5 0 0 1 102 51.461a4.163 4.163 0 0 1-2.955 1.056zm3.684-32.726l-.876 22.191H96.1l-.831-22.191z" fill="#fff" style="isolation:isolate"/></svg>