<svg xmlns="http://www.w3.org/2000/svg" viewBox="0 0 134.59 147.58"><defs><style>.cls-1{fill:#b3d6f2}.cls-2{fill:#c8c8c8}.cls-3{fill:#0078d7}.cls-3,.cls-4,.cls-6,.cls-7,.cls-9{fill-rule:evenodd}.cls-5,.cls-6{fill:#2488d8}.cls-7{fill:#ffb900}.cls-8{fill:#231f20}.cls-9{fill:#69afe5}.cls-10{fill:#ff8c00}.cls-11{font-size:46px;fill:#fff;font-family:SegoeUI-Semibold,Segoe UI;font-weight:700}</style></defs><title>general-robot-error</title><g id="Layer_2" data-name="Layer 2"><g id="Layer_1-2" data-name="Layer 1"><circle class="cls-1" cx="98.66" cy="35.94" r="35.94"/><path class="cls-2" d="M27.12 147.58h47.1a3.15 3.15 0 0 0 3.18-2.77 3 3 0 0 0-3-3.31H27.27a3.15 3.15 0 0 0-3.18 2.77 3 3 0 0 0 3.03 3.31z"/><path class="cls-3" d="M19.13 68.16l-1.02 4.32-14.18-3.34 1.02-4.32 14.18 3.34z"/><path class="cls-4" d="M19.13 68.16l-1.02 4.32-4.67-1.1 1.02-4.32 4.67 1.1z"/><rect class="cls-5" x="17.91" y="66.33" width="22.67" height="13.33" rx="2.67" ry="2.67" transform="rotate(11.5 28.016 71.665)"/><path class="cls-3" d="M83.69 76.03l1.29-4.25 13.94 4.24-1.29 4.25-13.94-4.24z"/><path class="cls-4" d="M83.69 76.03l1.29-4.25 4.59 1.4-1.29 4.25-4.59-1.4z"/><rect class="cls-5" x="62.49" y="67.67" width="22.67" height="13.33" rx="2.67" ry="2.67"/><path class="cls-3" d="M38.43 88.03h25.04v13.67H38.43V88.03z"/><path class="cls-4" d="M38.43 85.18h25.04v2.85H38.43v-2.85z"/><path class="cls-6" d="M50.95 48.24A14.75 14.75 0 0 0 36.12 63h29.66a14.75 14.75 0 0 0-14.83-14.76z"/><path class="cls-7" d="M41.62 57.12a2 2 0 1 1 2 2 2 2 0 0 1-2-2zM56.19 57.12a2 2 0 1 1 2 2 2 2 0 0 1-2-2z"/><path class="cls-3" d="M39.14 109.7h4.44v28.6h-4.44v-28.6z"/><path class="cls-4" d="M39.14 109.7h4.44v5.33h-4.44v-5.33z"/><path class="cls-3" d="M59.03 109.7h4.44v28.6h-4.44v-28.6z"/><path class="cls-4" d="M59.03 109.7h4.44v5.33h-4.44v-5.33z"/><path class="cls-3" d="M48.73 141.85a5.65 5.65 0 0 0-5.34-4.8h-3.7c-2.88 0-5.34 2.4-5.34 4.8z"/><path class="cls-4" d="M34.34 141.85h14.39v2.84H34.34v-2.84z"/><path class="cls-3" d="M68.45 141.85c0-2.4-2.44-4.8-5.28-4.8h-3.66a5.61 5.61 0 0 0-5.28 4.8z"/><path class="cls-4" d="M54.24 141.85h14.21v2.84H54.24v-2.84z"/><path class="cls-3" d="M4.47 75.84l4.39-.63 1.51 10.56-4.4.62-1.5-10.55z"/><path class="cls-4" d="M4.47 75.84l4.39-.63.73 5.1-4.4.63-.72-5.1z"/><path class="cls-6" d="M10.93 72.09a3 3 0 0 1-2.43 3.17l-4 .57a3 3 0 0 1-3.22-2.37L0 64.76a3 3 0 0 1 2.43-3.17l4-.57a3 3 0 0 1 3.22 2.37l1.24 8.71z"/><path class="cls-3" d="M6.48 92.83a3.44 3.44 0 0 1-1.14-2.3 3.48 3.48 0 0 1 2.74-3.67 3.57 3.57 0 0 1 4.06 2.7 2.46 2.46 0 0 1-.86 2.58L14 94.22a6.62 6.62 0 0 0-6.4-10.57A6.4 6.4 0 0 0 2.14 91a6.5 6.5 0 0 0 2.29 4.6l2.05-2.75zM96.39 85.5l4.43.23-.54 10.65-4.44-.23.55-10.65z"/><path class="cls-4" d="M96.39 85.5l4.43.23-.26 5.15-4.44-.23.27-5.15z"/><path class="cls-6" d="M94 82.58a3 3 0 0 0 2.65 2.94l4 .21a3 3 0 0 0 2.94-2.65l.45-8.78a3 3 0 0 0-2.65-2.94l-4-.21a3 3 0 0 0-2.89 2.65l-.5 8.78z"/><path class="cls-3" d="M100.31 102.83A3.47 3.47 0 0 0 98.2 97a3.19 3.19 0 0 0-3.38 3.08 3.45 3.45 0 0 0 .68 2.47l-2.5 2.34a6.84 6.84 0 1 1 9.64.5l-2.29-2.56z"/><path class="cls-8" d="M43.1 47.84l-3.86 2.91a1 1 0 0 1-1.2-1.6l3.86-2.91a1 1 0 1 1 1.2 1.6zM64.1 49.16l-3.86-2.91a1 1 0 1 0-1.2 1.6l3.86 2.91a1 1 0 1 0 1.2-1.6z"/><path class="cls-9" d="M71.5 62.27A1.74 1.74 0 0 1 73.24 64v19.8a1.74 1.74 0 0 1-1.74 1.74H29.33a1.74 1.74 0 0 1-1.74-1.74V64a1.73 1.73 0 0 1 1.73-1.73z"/><circle cx="50.66" cy="73.5" r="8.33"/><path class="cls-10" d="M55.01 69.52l-.71-.71-3.56 3.57-3.56-3.57-.71.71 3.56 3.56-3.56 3.57.71.7 3.56-3.56 3.56 3.56.71-.7-3.56-3.57 3.56-3.56z"/><path class="cls-9" d="M36 110.05a3 3 0 0 1-2.83-2.79v-4.38a2.74 2.74 0 0 1 2.83-2.77h29.5a2.74 2.74 0 0 1 2.83 2.79v4.38a3 3 0 0 1-2.83 2.79z"/><text class="cls-11" transform="translate(91.49 52)">!</text></g></g></svg>