<svg xmlns="http://www.w3.org/2000/svg" viewBox="0 0 127.4 147.76"><defs><style>.cls-1{fill:#b3d6f2}.cls-2{fill:#c8c8c8}.cls-3{font-size:30px;fill:#fff;font-family:SegoeUI-Semibold,Segoe UI;font-weight:700}.cls-4{fill:#0078d7}.cls-4,.cls-5,.cls-7,.cls-8,.cls-9{fill-rule:evenodd}.cls-6,.cls-7{fill:#2488d8}.cls-8{fill:#ffb900}.cls-9{fill:#69afe5}.cls-10{fill:#231f20}.cls-11{fill:#ff8c00}</style></defs><title>general-robot-errorcode-404</title><g id="Layer_2" data-name="Layer 2"><g id="Layer_1-2" data-name="Layer 1"><circle class="cls-1" cx="91.46" cy="35.94" r="35.94"/><path class="cls-2" d="M23.11 147.76h47.1a3.15 3.15 0 0 0 3.18-2.76 3 3 0 0 0-3-3.31H23.27a3.15 3.15 0 0 0-3.18 2.77 3 3 0 0 0 3.02 3.3z"/><text class="cls-3" transform="translate(64.63 43.78)">404</text><path class="cls-4" d="M12.82 69.42l-4.37.8-2.62-14.33 4.37-.8 2.62 14.33z"/><path class="cls-5" d="M12.82 69.42l-4.37.8-.86-4.72 4.37-.8.86 4.72z"/><rect class="cls-6" x="6.28" y="68.07" width="22.67" height="13.33" rx="2.67" ry="2.67" transform="rotate(-10.35 17.61 74.733)"/><path class="cls-4" d="M27.21 111.94l4.34-.92L37.47 139l-4.34.92-5.92-27.98z"/><path class="cls-5" d="M27.21 111.94l4.34-.92 1.11 5.21-4.35.92-1.1-5.21z"/><path class="cls-4" d="M43.25 141.41a5.65 5.65 0 0 0-6.25-3.59l-3.62.77c-2.82.6-4.73 3.45-4.24 5.8l14.08-3z"/><path class="cls-5" d="M29.17 144.39l14.08-2.98.59 2.78-14.08 2.98-.59-2.78z"/><path class="cls-4" d="M14.89 52.21l-2.14-3.9 9.34-5.13 2.14 3.89-9.34 5.14z"/><path class="cls-5" d="M14.89 52.21l-2.14-3.9 4.51-2.48 2.14 3.89-4.51 2.49z"/><path class="cls-7" d="M9.1 47.48a3 3 0 0 1 3.82 1.15l2 3.57A3 3 0 0 1 13.8 56l-7.7 4.28a3 3 0 0 1-3.82-1.15l-2-3.57a3 3 0 0 1 1.08-3.84l7.74-4.24z"/><path class="cls-4" d="M30.07 44.32a3.44 3.44 0 0 1-1.75 1.88 3.48 3.48 0 0 1-4.4-1.27A3.57 3.57 0 0 1 25 40.19a2.46 2.46 0 0 1 2.72-.11l1-3.3a6.62 6.62 0 0 0-7.63 9.72 6.4 6.4 0 0 0 8.79 2.5 6.5 6.5 0 0 0 3.49-3.76l-3.3-.95zM71.07 78.4l-.78 4.37 14.34 2.57.78-4.37-14.34-2.57z"/><path class="cls-5" d="M71.07 78.4l-.78 4.37 4.72.85.78-4.37-4.72-.85z"/><rect class="cls-6" x="48.53" y="72.16" width="22.67" height="13.33" rx="2.67" ry="2.67" transform="rotate(-168.45 59.867 78.825)"/><path class="cls-4" d="M81.97 75.77l4.39-.64-1.53-10.55-4.4.64 1.54 10.55z"/><path class="cls-5" d="M81.97 75.77l4.39-.64-.74-5.1-4.4.64.75 5.1z"/><path class="cls-7" d="M89.23 77.54A3 3 0 0 0 86 75.18l-4 .59a3 3 0 0 0-2.42 3.18l1.27 8.7A3 3 0 0 0 84 90l4-.59a3 3 0 0 0 2.42-3.18l-1.27-8.7z"/><path class="cls-4" d="M79.1 58.9a3.44 3.44 0 0 0-.45 2.53 3.48 3.48 0 0 0 3.66 2.75 3.57 3.57 0 0 0 3.13-3.74 2.46 2.46 0 0 0-1.54-2.24l2-2.76a6.62 6.62 0 0 1-3.16 11.95 6.4 6.4 0 0 1-7.33-5.5 6.5 6.5 0 0 1 .9-5.05l2.79 2.06z"/><path class="cls-7" d="M42.43 51a14.75 14.75 0 0 0-16.06 13.4L55.92 67a14.75 14.75 0 0 0-13.5-16z"/><path class="cls-8" d="M33.58 62.41a2 2 0 1 1 1.87 2.12 2 2 0 0 1-1.87-2.12zM46.7 63.39a2 2 0 1 1 1.87 2.12 2 2 0 0 1-1.87-2.12z"/><path class="cls-4" d="M26.5 89.56l24.95 2.18-1.19 13.62-24.95-2.17 1.19-13.63z"/><path class="cls-5" d="M26.74 86.73l24.96 2.18-.25 2.83-24.95-2.18.24-2.83z"/><path class="cls-9" d="M21.74 111.26a3 3 0 0 1-2.58-3l.38-4.36a2.74 2.74 0 0 1 3.06-2.53l29.4 2.54a2.74 2.74 0 0 1 2.58 3l-.38 4.36a3 3 0 0 1-3.06 2.53l-29.4-2.56z"/><path class="cls-10" d="M37.23 55.83l-4.61 1.47a1 1 0 0 1-.62-1.91l4.61-1.46a1 1 0 0 1 .61 1.91zM55.45 53.07l-3.59-3.24a1 1 0 1 0-1.34 1.49l3.59 3.24a1 1 0 1 0 1.34-1.49z"/><path class="cls-9" d="M61.68 66.77a1.74 1.74 0 0 1 1.58 1.89l-1.71 19.71A1.74 1.74 0 0 1 59.66 90l-42-3.66a1.74 1.74 0 0 1-1.58-1.89l1.72-19.72a1.73 1.73 0 0 1 1.88-1.57z"/><path class="cls-5" d="M52.92 77.56a4.65 4.65 0 0 1-5.25 4.38l-16.1-1.4a4.65 4.65 0 0 1-4.41-5.22 4.9 4.9 0 0 1 5.25-4.38l16.1 1.4a4.9 4.9 0 0 1 4.41 5.22z"/><path class="cls-11" d="M31.92 78.77a.53.53 0 0 1-.48-.57l.41-4.75a.53.53 0 0 1 1.05.09l-.41 4.75a.53.53 0 0 1-.57.48zM35.08 79a.53.53 0 0 1-.48-.57l.4-4.71a.53.53 0 1 1 1.05.09l-.41 4.75a.53.53 0 0 1-.56.44zM38.25 79.32a.53.53 0 0 1-.48-.57l.41-4.75a.53.53 0 0 1 1.05.09l-.41 4.75a.53.53 0 0 1-.57.48zM41.41 79.59a.53.53 0 0 1-.48-.57l.41-4.75a.53.53 0 1 1 1.05.09L42 79.11a.53.53 0 0 1-.59.48zM44.58 79.87a.53.53 0 0 1-.48-.57l.41-4.75a.53.53 0 1 1 1.05.09l-.41 4.75a.53.53 0 0 1-.57.48zM47.74 80.15a.53.53 0 0 1-.48-.57l.41-4.75a.53.53 0 1 1 1.05.09l-.41 4.75a.53.53 0 0 1-.57.48z"/></g></g></svg>