<svg xmlns="http://www.w3.org/2000/svg" viewBox="0 0 134.75 147.85"><defs><style>.cls-1{fill:#b3d6f2}.cls-2{fill:#c8c8c8}.cls-3{font-size:30px;fill:#fff;font-family:SegoeUI-Semibold,Segoe UI;font-weight:700}.cls-4{fill:#0078d7}.cls-4,.cls-5,.cls-7,.cls-8,.cls-9{fill-rule:evenodd}.cls-6,.cls-7{fill:#2488d8}.cls-8{fill:#ffb900}.cls-9{fill:#69afe5}.cls-10{fill:#231f20}.cls-11{fill:#ff8c00}</style></defs><title>general-robot-errorcode-500</title><g id="Layer_2" data-name="Layer 2"><g id="Layer_1-2" data-name="Layer 1"><circle class="cls-1" cx="98.81" cy="35.94" r="35.94"/><path class="cls-2" d="M26.61 147.85H73.7a3.15 3.15 0 0 0 3.18-2.77 3 3 0 0 0-3-3.31H26.76a3.15 3.15 0 0 0-3.18 2.77 3 3 0 0 0 3.03 3.31z"/><text class="cls-3" transform="translate(71.98 44.26)">500</text><path class="cls-4" d="M19.28 67.58l-1.15 4.28-14.07-3.77 1.15-4.29 14.07 3.78z"/><path class="cls-5" d="M19.28 67.58l-1.15 4.28-4.63-1.24 1.15-4.29 4.63 1.25z"/><rect class="cls-6" x="17.91" y="66.06" width="22.67" height="13.33" rx="2.67" ry="2.67" transform="rotate(13.62 29.24 72.735)"/><path class="cls-4" d="M37.92 88.12h25.04v13.68H37.92V88.12z"/><path class="cls-5" d="M37.92 85.28h25.04v2.84H37.92v-2.84z"/><path class="cls-7" d="M50.44 48.33a14.75 14.75 0 0 0-14.83 14.74h29.66a14.75 14.75 0 0 0-14.83-14.74z"/><path class="cls-8" d="M41.11 57.21a2 2 0 1 1 2 2 2 2 0 0 1-2-2zM55.68 57.21a2 2 0 1 1 2 2 2 2 0 0 1-2-2z"/><path class="cls-9" d="M35.56 110.15a3 3 0 0 1-2.83-2.79V103a2.74 2.74 0 0 1 2.83-2.79h29.51A2.74 2.74 0 0 1 67.9 103v4.38a3 3 0 0 1-2.83 2.79z"/><path class="cls-4" d="M38.63 109.79h4.44v28.6h-4.44v-28.6z"/><path class="cls-5" d="M38.63 109.79h4.44v5.33h-4.44v-5.33z"/><path class="cls-4" d="M58.52 109.79h4.44v28.6h-4.44v-28.6z"/><path class="cls-5" d="M58.52 109.79h4.44v5.33h-4.44v-5.33z"/><path class="cls-4" d="M48.22 141.94a5.65 5.65 0 0 0-5.34-4.8h-3.7c-2.88 0-5.34 2.4-5.34 4.8z"/><path class="cls-5" d="M33.83 141.94h14.39v2.85H33.83v-2.85z"/><path class="cls-4" d="M67.94 141.94c0-2.4-2.44-4.8-5.28-4.8H59a5.61 5.61 0 0 0-5.28 4.8z"/><path class="cls-5" d="M53.73 141.94h14.21v2.85H53.73v-2.85z"/><path class="cls-4" d="M4.03 75.25l4.42-.46 1.1 10.6-4.42.46-1.1-10.6z"/><path class="cls-5" d="M4.03 75.25l4.42-.46.53 5.13-4.42.45-.53-5.12z"/><path class="cls-7" d="M10.63 71.75a3 3 0 0 1-2.55 3.08l-4 .42a3 3 0 0 1-3.16-2.49L0 64a3 3 0 0 1 2.55-3.08l4-.42A3 3 0 0 1 9.73 63l.91 8.75z"/><path class="cls-4" d="M5.39 92.3A3.44 3.44 0 0 1 4.34 90a3.48 3.48 0 0 1 2.88-3.6 3.57 3.57 0 0 1 3.95 2.86 2.46 2.46 0 0 1-1 2.55l2.7 2.19a6.62 6.62 0 0 0-6-10.81 6.4 6.4 0 0 0-5.74 7.11A6.5 6.5 0 0 0 3.24 95l2.15-2.7zM82.73 71.69l-1.4 4.22 13.81 4.6 1.41-4.21-13.82-4.61z"/><path class="cls-5" d="M82.73 71.69l-1.4 4.22 4.55 1.51 1.4-4.21-4.55-1.52z"/><rect class="cls-6" x="60.21" y="66.95" width="22.67" height="13.33" rx="2.67" ry="2.67" transform="rotate(179.68 71.55 73.61)"/><path class="cls-4" d="M97.5 86.55l-4.43-.39-.93 10.61 4.42.39.94-10.61z"/><path class="cls-5" d="M97.5 86.55l-4.43-.39-.45 5.13 4.43.39.45-5.13z"/><path class="cls-7" d="M90.84 83.15a3 3 0 0 0 2.59 3l4.06.36a3 3 0 0 0 3.08-2.51l.77-8.76a3 3 0 0 0-2.59-3l-4.06-.36a3 3 0 0 0-3.08 2.54l-.77 8.76z"/><path class="cls-4" d="M96.4 103.62a3.44 3.44 0 0 0 1-2.36 3.48 3.48 0 0 0-2.93-3.52 3.57 3.57 0 0 0-3.9 2.92 2.46 2.46 0 0 0 1 2.53l-2.63 2.21a6.62 6.62 0 0 1 5.82-10.9 6.4 6.4 0 0 1 5.86 7 6.5 6.5 0 0 1-2 4.71l-2.2-2.64z"/><path class="cls-10" d="M42.59 47.94l-3.86 2.91a1 1 0 1 1-1.2-1.6l3.86-2.91a1 1 0 0 1 1.2 1.6zM63.59 49.25l-3.86-2.91a1 1 0 1 0-1.2 1.6l3.86 2.91a1 1 0 0 0 1.2-1.6z"/><path class="cls-9" d="M71 62.36a1.74 1.74 0 0 1 1.74 1.74v19.79A1.74 1.74 0 0 1 71 85.63H28.82a1.74 1.74 0 0 1-1.74-1.74v-19.8a1.73 1.73 0 0 1 1.73-1.73z"/><circle cx="50.15" cy="73.59" r="8.33"/><path class="cls-11" d="M54.5 69.85l-.7-.71-3.57 3.56-3.56-3.56-.71.71 3.57 3.56-3.57 3.56.71.71 3.56-3.56 3.57 3.56.7-.71-3.56-3.56 3.56-3.56z"/></g></g></svg>