<svg xmlns="http://www.w3.org/2000/svg" viewBox="0 0 148.467 150"><defs><clipPath id="a"><path d="M76.1 28.381l.217.655z" fill="none"/></clipPath></defs><title>general-no-results-found</title><path d="M145.157 150H3.5a3.437 3.437 0 0 1-3.444-2.717 3.311 3.311 0 0 1 3.257-3.9h141.656a3.437 3.437 0 0 1 3.444 2.717 3.311 3.311 0 0 1-3.257 3.9z" fill="#b2b2b2"/><path d="M17.393 86.242c-.217 3.16.217 4.138 1.519 6.635.879 1.413 1.64 1.629 1.64.761.323 1.626 2.064 2.182 1.846.975.217.435.868.978 1.413.651.435-.323-.11-1.085-.328-1.408.545 0 1.085-.545.435-1.629a3.379 3.379 0 0 1-.545-1.629c.978.758 1.739.758 1.957.107-.868-.868-1.629-2.615-2.607-3.918l-.651-.651-.761-7.07-4.568 2.607z" fill="#ce9c5f"/><path d="M48.157 42.527a.415.415 0 0 1-.762.328c-.11-.217 0-.551.217-.551.219-.111.545-.004.545.223z" fill="#f6caa7"/><path d="M48.157 42.527a.415.415 0 0 1-.762.328c-.11-.217 0-.551.217-.551.219-.111.545-.004.545.223z" fill="#b2b2b2"/><path d="M126.425 144.349c-16.953-52.913-17.986-55.67-17.986-55.67l.54-.216c-4.679-12.551-4.2-12.551-4.2-12.551V40.963a5 5 0 0 0 2.681-4.322 4.631 4.631 0 0 0-4.608-4.655h-.09a4.6 4.6 0 0 0-4.6 4.6v.074a4.59 4.59 0 0 0 3.309 4.344v34.833L96.58 88.454l.556.217c-16.964 53.183-17.889 56.542-17.889 56.542a1 1 0 0 0 .651 1.2.958.958 0 0 0 1.306-.553c16.85-53.184 17.775-56.542 17.775-56.542l.545.228c.936-2.187 1.534-3.7 1.534-3.7l-.461 4.594h.874v57.48c.086.547.636.8 1.241.748.543-.043.947-.218.965-.822v-57.4h1.1l.092-4.573 1.169 3.685.54-.227c16.964 52.914 18 55.67 18 55.67a.847.847 0 0 0 1.192.55.907.907 0 0 0 .655-1.202z" fill="#505050"/><path d="M90.016 38.176L57.4 46.22l-3.261-10.108 31.2-12.51z" fill="#737373"/><path d="M90.016 38.176L57.4 46.22l-3.261-10.108 31.2-12.51z" fill="#737373"/><path d="M76.749 41.435l3.266-.762-4.245-13.16-3.148 1.2z" fill="#505050"/><path d="M136.762 28.819l-56.1 13.926-5.547-17.3 53.6-21.532z" fill="#737373"/><path d="M140.672 25.449c3.152-2.171 4.237-7.286 2.607-12.506-1.739-5.224-5.649-8.7-9.35-8.7z" fill="#69afe5"/><path d="M135.886 8.824A10.764 10.764 0 0 1 142.3 10.9c-1.953-3.811-5.212-6.308-8.371-6.308l1.3 4.233z" fill="#2f60e0"/><path d="M143.714 28.6l-6.514 2.073-9.134-28.609L134.475 0z" fill="#737373"/><path d="M133.5 29.587l3.267-.769-8.045-24.9-3.159 1.306 5.874 18.162z" fill="#505050"/><g clip-path="url(#a)"><path d="M77.206 28.676H76.1v1.1h1.1z" fill="#737373"/></g><path d="M127.305 10.66L76.1 28.381l.217.655.651 1.854 51.208-17.73-.435-1.2z" fill="#8f8f8f"/><path d="M127.739 11.965l.435 1.2z" fill="#737373"/><path d="M136.655 6.525L130.347 8.7l1.3 4.134 6.309-2.173z" fill="#8f8f8f"/><path d="M130.347 8.7l1.3 4.134z" fill="#737373"/><path d="M52.4 47.415c-.761-3.042-1.629-3.8-3.475-5.764-1.2-1.089-1.964-.978-1.857-.217-.758-1.413-2.5-1.413-1.953-.328-.328-.328-1.085-.651-1.519-.217-.328.435.435 1.085.758 1.3-.54.11-.978.769 0 1.53a3.237 3.237 0 0 1 .978 1.413c-1.085-.435-1.736-.107-1.736.435 1.085.651 2.281 2.064 3.582 2.932.328.11.545.217.868.328l2.832 6.418 3.475-3.8z" fill="#ce9c5f"/><path d="M61.673 65.446c-1.615-3.033-10.321-18.832-10.321-18.832l-4.06 1.468s2.986 6.988 5.608 13.063l-6.628-2.308-2.607 9.784 14.79 1.53v-.012c.173.017.364.034.576.052 1.712.146 4.256-1.713 2.642-4.745zM25.22 96.144c.761-.879 1.846.761 2.284 1.085.975.545 1.736.217 1.846-.323-.978-.651-2.067-2.182-3.259-3.16z" fill="#ce9c5f"/><path d="M47.724 42.42L43.7 44.05l.544 1.846 4.127-1.306z" fill="#737373"/><path d="M42.725 44.268l.761 1.953a.108.108 0 0 0 .11.11l.758-.217c.11-.11.11-.11.11-.217l-.651-1.957c0-.107-.11-.107-.217-.107l-.761.217c.001.107-.11.107-.11.218zm17.5-1.085l-11.082 3.582-2.075-6.2 11.09-3.582z" fill="#737373"/><path d="M51.671 40.563l-4.244 1.413v.217l.217.769L52 41.435z" fill="#8f8f8f"/><path d="M47.286 44.918l1.089-.328-.651-2.171-1.089.435zm6.2.433l3.258-1.084-2.064-6.2-3.148 1.089z" fill="#505050"/><path d="M73.6 31.974l-15.334 5.334.551 1.736 15.433-5.329-.217-.652z" fill="#8f8f8f"/><path d="M74.033 33.063l.217.651z" fill="#737373"/><path d="M58.513 37.308L55.147 38.5v.11l.545 1.63 3.373-1.2z" fill="#8f8f8f"/><path d="M55.147 38.6h-.11l.11.11z" fill="#737373"/><path d="M47.724 46c-.655.868-1.957-.651-2.391-.868-1.085-.435-1.736-.107-1.736.435 1.085.651 2.171 1.957 3.472 2.825z" fill="#ce9c5f"/><path d="M44.789 93.312a5.2 5.2 0 0 1-5.323 5.006c-2.832 0-4.244-2.391-4.244-5.334.11-2.821 1.629-5.113 4.466-5a5.289 5.289 0 0 1 5.101 5.328z" fill="#2139b5"/><path d="M43.376 115.385l-8.7-.217.54-22.183 9.568.328z" fill="#002050"/><path d="M25.368 103.577c0-.761 3.8-2.182 8.589-2.182 4.668 0 8.478 1.419 8.478 2.182l1.739-15.342H25.368z" fill="#002050"/><path d="M23.812 93.2a5.156 5.156 0 0 0 4.885 5.55c2.836.107 6.092-2.064 6.308-4.9s-2.821-5.334-5.764-5.44a5.111 5.111 0 0 0-5.429 4.79z" fill="#002050"/><path d="M23.374 115.385l8.592.555L35 93.857 23.812 93.2z" fill="#002050"/><path d="M29.792 143.236l-5.44-.325.328-6.093 5.005.328z" fill="#001129"/><path d="M29.4 145.588h-4.312l-.2-.6a36.725 36.725 0 0 1-5.915.7 10.361 10.361 0 0 1-3.7-.5c-.1 0-.3-.3-.3-.5.2-1.8 7.116-2.5 8.919-4.613h.1c.5.5 1.1 1.4 2.2 1.4a5.334 5.334 0 0 0 2.709-1.3c.499.499.599 5.313.499 5.413z" fill="#282828"/><path d="M31.966 115.94a4.367 4.367 0 0 0-4.138-4.572 4.269 4.269 0 0 0-4.455 4.127 4.3 4.3 0 1 0 8.593.444z" fill="#002050"/><path d="M31.966 115.94l-8.592-.444-.868 25.885 7.831.986z" fill="#002050"/><path d="M34.787 142.584l5.44.109.217-5.981-5.112-.217z" fill="#001129"/><path d="M34.353 145.839l4.671.109.224-.652a39.736 39.736 0 0 0 6.411.869 11.163 11.163 0 0 0 3.918-.435.732.732 0 0 0 .435-.652c-.107-1.846-7.721-2.715-9.567-5.005h-.217c-.54.435-1.085 1.412-2.4 1.412-1.085 0-2.281-1.086-2.825-1.521-.65.543-.756 5.765-.65 5.875z" fill="#282828"/><path d="M34.68 115.278a4.359 4.359 0 0 1 4.461-4.238 4.269 4.269 0 0 1 4.127 4.455 4.114 4.114 0 0 1-4.356 4.134 4.335 4.335 0 0 1-4.232-4.351z" fill="#002050"/><path d="M34.625 115.278l8.589.217-1.085 25.885-7.937.325z" fill="#002050"/><path d="M40.121 58.513l.435-5.44-6.635-.545-.435 5.334c-.11 1.3.651 2.714 3.149 2.932 2.39.216 3.376-1.086 3.486-2.281z" fill="#ce9c5f"/><path d="M33.375 52.639a13.252 13.252 0 0 0 6.853 5.224l.435-5.117-7.176-1.408z" fill="#ba8c57"/><path d="M43.921 52.094a12.445 12.445 0 0 1-1.521-3.483c-.11-.11 0-.328.217-.435l.651-.217c.217-.11.328-.435.217-.545l-1.736-2.171a2.426 2.426 0 0 1-.328-.545l-1.413-3.16-10.322 2.183.323 1.523-1.314.217s.328 12.833 14.79 7.61a.685.685 0 0 0 .436-.977z" fill="#ce9c5f"/><path d="M30.12 41.218a14.806 14.806 0 0 1 7.059-3.369c1.629-.217 3.266.11 3.593 1.629.435 2.391-1.857 2.825-2.943 2.943l-1.519.323a.974.974 0 0 0-.651 1.306l1.52 3.15-.761.545c-.217.107-.323 0-.435-.11-.435-.54-1.413-1.736-2.387-1.085a1.411 1.411 0 0 0 0 2.387c.54.556 1.3.662 1.519 1.314a2.751 2.751 0 0 1-1.3 3.587 8.749 8.749 0 0 1-4.9-4.455 7.218 7.218 0 0 1 .217-6.96 3.379 3.379 0 0 1 .988-1.205z" fill="#301d19"/><path d="M40.444 45.569a.555.555 0 0 1-.435.545c-.217 0-.435-.11-.435-.328a.379.379 0 0 1 .328-.54c.219-.11.435.106.542.323z"/><path d="M23.162 96.81l9.927.885 1.322-5.633-.328 5.633 10.035.988v.661l-9.928-.329-.769-1.321-.552 1.321-9.707.548z" fill="#001129"/><path d="M36.2 83.418c0 .221-.323.438-.54.438a.493.493 0 1 1 .107-.979.721.721 0 0 1 .433.541zm-.542 6.312c-.11.323-.328.54-.545.435a.468.468 0 0 1-.435-.435c0-.328.217-.438.54-.438a.47.47 0 0 1 .441.438z" fill="#004880"/><path d="M42.836 49.814l-3.042 1.2a4.645 4.645 0 0 0 3.475 0z" fill="#cb8c84"/><path d="M42.836 49.814l-3.042 1.2a5.033 5.033 0 0 0 3.365-.217z" fill="#fff"/><path d="M44.354 98.642l-21.112-1.671L25.448 69.4l-3.171 1.1-3.585-7.307s7.583-4.136 9.375-4.963a14.678 14.678 0 0 1 4.681-.9s1.992 2.837 4.06 2.837 4.108-2.592 4.108-2.592a28.983 28.983 0 0 1 5.828 1.266c1.726.772 6.987 2.452 6.987 2.452l-.431 8.519-6.065-.69z" fill="#9c2801"/><path d="M40.342 57.419a3.789 3.789 0 0 1-3.289 1.924 4.007 4.007 0 0 1-3.522-2.213l-2.005.245a5.917 5.917 0 0 0 5.527 3.772 5.611 5.611 0 0 0 5.162-3.414zM51.825 69.75l1.076-8.8 1.907.735-.88 8.267z" fill="#e24f01"/><path d="M17.291 85.55c-.341-2.153-2.348-14.136-2.69-16.338s-.031-3.773 2.005-4.843c1.957-1.027 3.375-1.663 3.375-1.663l2.74 6.9-1.858.783 1.272 17.658s-4.208 1.514-4.844-2.497z" fill="#ce9c5f"/><path d="M20.422 62.218l3.473 7.728-1.908.733-3.522-7.479z" fill="#e24f01"/></svg>