<svg xmlns="http://www.w3.org/2000/svg" viewBox="0 0 137.08 145.69"><defs><style>.cls-1{fill:#b3d6f2}.cls-2{font-size:30px;fill:#fff}.cls-10,.cls-2{font-family:SegoeUI-Semibold,Segoe UI;font-weight:700}.cls-3{fill:#0078d7}.cls-3,.cls-4,.cls-6,.cls-7,.cls-8{fill-rule:evenodd}.cls-5,.cls-6{fill:#2488d8}.cls-7{fill:#ffb900}.cls-8{fill:#69afe5}.cls-9{fill:#231f20}.cls-10{font-size:16px;fill:#ff8c00}</style></defs><title>general-robot-errorcode-400</title><g id="Layer_2" data-name="Layer 2"><g id="Layer_1-2" data-name="Layer 1"><circle class="cls-1" cx="101.15" cy="35.94" r="35.94"/><text class="cls-2" transform="translate(74.84 44.17)">400</text><path class="cls-3" d="M23.38 71.21l.69 4.39-14.39 2.26-.69-4.38 14.39-2.27z"/><path class="cls-4" d="M23.38 71.21l.69 4.39-4.74.74-.69-4.38 4.74-.75z"/><rect class="cls-5" x="23.24" y="65.21" width="22.67" height="13.33" rx="2.67" ry="2.67" transform="rotate(-10.35 34.568 71.871)"/><path class="cls-3" d="M42.77 89.03h25.05v13.67H42.77V89.03z"/><path class="cls-4" d="M42.77 86.18h25.05v2.85H42.77v-2.85z"/><path class="cls-6" d="M55.3 49.24A14.75 14.75 0 0 0 40.46 64h29.67A14.75 14.75 0 0 0 55.3 49.24z"/><path class="cls-7" d="M46 58.12a2 2 0 1 1 2 2 2 2 0 0 1-2-2zM60.54 58.12a2 2 0 1 1 2 2 2 2 0 0 1-2-2z"/><path class="cls-8" d="M39.92 111.05a3 3 0 0 1-2.83-2.79v-4.38a2.74 2.74 0 0 1 2.83-2.79h29.51a2.74 2.74 0 0 1 2.83 2.79v4.38a3 3 0 0 1-2.83 2.79z"/><path class="cls-3" d="M43.48 110.7h4.44v28.6h-4.44v-28.6z"/><path class="cls-4" d="M43.48 110.7h4.44v5.33h-4.44v-5.33z"/><path class="cls-3" d="M63.38 110.7h4.44v28.6h-4.44v-28.6z"/><path class="cls-4" d="M63.38 110.7h4.44v5.33h-4.44v-5.33z"/><path class="cls-3" d="M53.08 142.85a5.65 5.65 0 0 0-5.34-4.8H44c-2.88 0-5.34 2.4-5.34 4.8z"/><path class="cls-4" d="M38.69 142.85h14.39v2.84H38.69v-2.84z"/><path class="cls-3" d="M72.79 142.85c0-2.4-2.44-4.8-5.28-4.8h-3.65a5.61 5.61 0 0 0-5.28 4.8z"/><path class="cls-4" d="M58.58 142.85h14.21v2.84H58.58v-2.84z"/><path class="cls-3" d="M11.71 67.25l-4.36.86-2.07-10.45 4.35-.86 2.08 10.45z"/><path class="cls-4" d="M11.71 67.25l-4.36.86-1-5.05 4.36-.86 1 5.05z"/><path class="cls-6" d="M5.46 71.34A3 3 0 0 1 7.71 68l4-.79A3 3 0 0 1 15 69.44l1.71 8.62a3 3 0 0 1-2.25 3.3l-4 .79A3 3 0 0 1 7.17 80l-1.71-8.66z"/><path class="cls-3" d="M8.77 50.39A3.44 3.44 0 0 1 10 52.63a3.48 3.48 0 0 1-2.5 3.81A3.57 3.57 0 0 1 3.31 54 2.46 2.46 0 0 1 4 51.34l-2.83-1.92a6.62 6.62 0 0 0 7 10.21A6.4 6.4 0 0 0 13.21 52a6.5 6.5 0 0 0-2.53-4.46l-1.9 2.86zM86.28 72.04l-.79 4.37 14.34 2.56.78-4.37-14.33-2.56z"/><path class="cls-4" d="M86.28 72.04l-.79 4.37 4.72.84.79-4.37-4.72-.84z"/><rect class="cls-5" x="63.74" y="65.8" width="22.67" height="13.33" rx="2.67" ry="2.67" transform="rotate(-168.45 75.074 72.463)"/><path class="cls-3" d="M98.03 68.32l4.33.96 2.3-10.41-4.34-.96-2.29 10.41z"/><path class="cls-4" d="M98.03 68.32l4.33.96 1.11-5.03-4.33-.96-1.11 5.03z"/><path class="cls-6" d="M104.19 72.54A3 3 0 0 0 102 69.2l-4-.88a3 3 0 0 0-3.39 2.12L92.75 79a3 3 0 0 0 2.18 3.35l4 .88a3 3 0 0 0 3.39-2.12l1.89-8.59z"/><path class="cls-3" d="M101.32 51.53a3.44 3.44 0 0 0-1.32 2.2 3.48 3.48 0 0 0 2.45 3.87 3.57 3.57 0 0 0 4.25-2.39 2.46 2.46 0 0 0-.66-2.64l2.89-1.86a6.62 6.62 0 0 1-7.18 10.06 6.4 6.4 0 0 1-4.9-7.77 6.5 6.5 0 0 1 2.63-4.41l1.84 2.9z"/><path class="cls-9" d="M47.45 48.84l-3.86 2.91a1 1 0 1 1-1.2-1.6l3.86-2.91a1 1 0 0 1 1.2 1.6zM68.45 50.16l-3.86-2.91a1 1 0 1 0-1.2 1.6l3.86 2.91a1 1 0 0 0 1.2-1.6z"/><path class="cls-8" d="M75.85 63.27A1.74 1.74 0 0 1 77.59 65v19.8a1.74 1.74 0 0 1-1.74 1.74H33.68a1.74 1.74 0 0 1-1.74-1.74V65a1.73 1.73 0 0 1 1.73-1.73z"/><circle cx="55" cy="74.5" r="8.33"/><text class="cls-10" transform="translate(51.5 80.67)">?</text></g></g></svg>