<svg xmlns="http://www.w3.org/2000/svg" viewBox="0 0 135.81 148.001"><title>general-robot-errorcode-401</title><circle cx="99.87" cy="35.94" r="35.94" fill="#b3d6f2"/><g style="isolation:isolate" fill="#fff"><path d="M90.565 22.594v13.242h2.52v3.457h-2.52V43.6h-4.219v-4.306h-9.155v-3.619q1.216-1.362 2.52-2.981t2.52-3.333q1.216-1.714 2.263-3.45a34.581 34.581 0 0 0 1.78-3.318zm-9.228 13.242h5.01V28.5q-.513.952-1.113 1.926t-1.26 1.919q-.659.945-1.333 1.831t-1.304 1.66zM102.386 43.966q-7.5 0-7.5-10.532 0-5.464 2.029-8.328a6.76 6.76 0 0 1 5.881-2.864q7.324 0 7.324 10.708 0 5.332-2 8.174a6.587 6.587 0 0 1-5.734 2.842zm.205-18.193q-3 0-3 7.544 0 7.1 2.944 7.1 2.871 0 2.871-7.324t-2.814-7.32zM123.319 22.126V43.6H118.7V27.34a5.526 5.526 0 0 1-.9.637 9.3 9.3 0 0 1-1.106.542 9.875 9.875 0 0 1-1.216.41 8.88 8.88 0 0 1-1.245.242v-3.9a19.248 19.248 0 0 0 3.4-1.348 19.34 19.34 0 0 0 2.886-1.8z"/></g><path d="M85 148H38.518a3.109 3.109 0 0 1-3.168-2.734A2.961 2.961 0 0 1 38.311 142h46.48a3.109 3.109 0 0 1 3.138 2.734 2.961 2.961 0 0 1-2.639 3.251q-.145.015-.29.015z" fill="#c8c8c8"/><path d="M92.41 76.02L88.8 78.6l8.48 11.85 3.61-2.59z" fill="#0078d7"/><path d="M92.41 76.02L88.8 78.6l2.79 3.9 3.61-2.58z"/><rect x="74.864" y="61.774" width="13.282" height="22.588" rx="2.66" ry="2.66" transform="rotate(-79.592 81.506 73.068)" fill="#2488d8"/><path d="M75 89H50v14h25z" fill="#0078d7"/><path d="M75 86H50v3h25z"/><path d="M78 63.751V64H47.828a15 15 0 0 1 15-15h.428A14.789 14.789 0 0 1 78 63.751z" fill="#2488d8"/><path d="M72 58.06a2 2 0 1 0-2 2 2 2 0 0 0 2-2zm-14.53 0a2 2 0 1 0-2 2 2 2 0 0 0 2-2z" fill="#ffb900"/><path d="M77.184 111A3 3 0 0 0 80 108.2v-4.4a2.74 2.74 0 0 0-2.675-2.8H47.816A2.737 2.737 0 0 0 45 103.659v4.543a3 3 0 0 0 2.816 2.8z" fill="#69afe5"/><path d="M74 110h-4v29h4z" fill="#0078d7"/><path d="M74 111h-4v5h4z"/><path d="M54 110h-4v29h4z" fill="#0078d7"/><path d="M54 111h-4v5h4z"/><path d="M64.63 143a5.885 5.885 0 0 1 5.563-5h3.885c3 0 5.562 2.5 5.562 5z" fill="#0078d7"/><path d="M79 143H65v3h14z"/><path d="M44.914 143c0-2.5 2.542-5 5.5-5h3.8a5.844 5.844 0 0 1 5.5 5z" fill="#0078d7"/><path d="M59 143H45v3h14z"/><path d="M98.38 97.96l-4.23-1.37-3.28 10.14 4.23 1.37z" fill="#0078d7"/><path d="M98.38 97.96l-4.23-1.37-1.58 4.91 4.22 1.36z"/><path d="M93 93.17a3 3 0 0 0 1.85 3.53l3.87 1.3a3 3 0 0 0 3.57-1.78l2.71-8.37a3 3 0 0 0-1.85-3.54L99.28 83a3 3 0 0 0-3.57 1.78L93 93.15z" fill="#2488d8"/><path d="M93.5 114.36a3.44 3.44 0 0 0 1.5-2.07 3.48 3.48 0 0 0-2.07-4.08 3.57 3.57 0 0 0-4.46 2 2.46 2.46 0 0 0 .4 2.69l-3.05 1.57a6.62 6.62 0 0 1 8.11-9.33 6.4 6.4 0 0 1 4.2 8.018l-.05.152a6.5 6.5 0 0 1-3 4.14l-1.55-3.06zM33.19 79.03l4.38.72-2.36 14.38-4.39-.73z" fill="#0078d7"/><path d="M33.19 79.03l4.38.72-.78 4.73-4.38-.72z"/><rect x="31.598" y="65.737" width="22.67" height="13.33" rx="2.67" ry="2.67" transform="rotate(-11.55 42.932 72.401)" fill="#2488d8"/><path d="M56.46 48.79L52.6 51.7a1 1 0 0 1-1.2-1.6l3.86-2.91a1 1 0 0 1 1.2 1.6zm18.81 4.82l-4.67-1.27a1 1 0 0 0-.586 1.912l.066.018 4.67 1.27a1 1 0 0 0 .52-1.93z" fill="#231f20"/><path d="M41.764 63A1.738 1.738 0 0 0 40 64.71v19.55A1.74 1.74 0 0 0 41.74 86h42.52A1.74 1.74 0 0 0 86 84.26V64.711A1.727 1.727 0 0 0 84.257 63H41.764z" fill="#69afe5"/><path d="M25.95 89.33l-1.59 4.14-9.95-3.81L16 85.52z" fill="#0078d7"/><path d="M25.95 89.33l-1.59 4.14-4.81-1.84 1.59-4.15z"/><path d="M26.09 96.8a3 3 0 0 1-1.59-3.66l1.46-3.8a3 3 0 0 1 3.63-1.66l8.21 3.14a3 3 0 0 1 1.59 3.66l-1.46 3.8a3 3 0 0 1-3.63 1.66z" fill="#2488d8"/><path d="M10.12 82.84a3.44 3.44 0 0 1 2.56.12 3.48 3.48 0 0 1 1.88 4.18 3.57 3.57 0 0 1-4.33 2.23 2.46 2.46 0 0 1-1.84-2l-3.14 1.38a6.74 6.74 0 0 0 3.83 3.63 6.74 6.74 0 0 0 8.52-4.09 6.4 6.4 0 0 0-3.618-8.3l-.142-.054a6.5 6.5 0 0 0-5.13-.23z" fill="#0078d7"/><path d="M14 96h-3V62h3z" fill="#939393"/><path d="M16.26 48L23 54.74v9.52L16.26 71H6.74L0 64.26v-9.52L6.74 48z" fill="#e81123"/><path d="M15.644 49.5l5.856 5.856v8.287L15.644 69.5H7.356L1.5 63.644v-8.288L7.356 49.5z" fill="none" stroke="#fff" stroke-miterlimit="10"/><path d="M10 89.36a3.5 3.5 0 0 0 4-1.6V92a6.28 6.28 0 0 1-5.17.35A6.74 6.74 0 0 1 5 88.72l3.14-1.39A2.46 2.46 0 0 0 10 89.36z" fill="#0078d7"/><path d="M51.134 74.5A4.342 4.342 0 0 0 55.31 79q.177.007.353 0H70.8a4.342 4.342 0 0 0 4.529-4.147q.008-.177 0-.353A4.579 4.579 0 0 0 70.8 70H55.7a4.579 4.579 0 0 0-4.566 4.5z"/><path d="M70.5 77.47a.5.5 0 0 0 .5-.5v-4.5a.5.5 0 0 0-1 0V77a.5.5 0 0 0 .5.47zm-3 0a.5.5 0 0 0 .5-.5v-4.5a.5.5 0 0 0-1 0V77a.5.5 0 0 0 .5.47zm-3 0a.5.5 0 0 0 .5-.5v-4.5a.5.5 0 0 0-1 0V77a.5.5 0 0 0 .5.47zm-3 0a.5.5 0 0 0 .5-.5v-4.5a.5.5 0 0 0-1 0V77a.5.5 0 0 0 .5.47zm-3 0a.5.5 0 0 0 .5-.5v-4.5a.5.5 0 0 0-1 0V77a.5.5 0 0 0 .5.47zm-3 0a.5.5 0 0 0 .5-.5v-4.5a.5.5 0 0 0-1 0V77a.5.5 0 0 0 .5.47z" fill="#ffb900"/></svg>