<svg xmlns="http://www.w3.org/2000/svg" viewBox="0 0 142.4 120"><title>general-folder</title><path d="M142.4,16v98.26a6.009,6.009,0,0,1-6.248,5.74H6.248A6.01,6.01,0,0,1,0,114.26V5.653C0,2.531,2.8,0,6.248,0h45a5.4,5.4,0,0,1,5,2.285c1.652,2.048,4.831,5.83,4.831,5.83,1.516,2.048,3.028,2.285,5,2.285h70.1C139.62,10.4,142.4,12.907,142.4,16Z" fill="#c78e00"/><path d="M142.4,18.453V114.26a6.01,6.01,0,0,1-6.248,5.74H6.248A6.01,6.01,0,0,1,0,114.26V28.8c0-3.093,2.779-5.6,6.208-5.6H52.257c1.976,0,3.488-.236,5-2.285,0,0,3.179-3.782,4.831-5.83a5.4,5.4,0,0,1,5-2.285h69.057c3.449,0,6.247,2.531,6.247,5.653Z" fill="#ffb900"/></svg>