<svg xmlns="http://www.w3.org/2000/svg" viewBox="0 0 206.182 120"><title>general-something-wrong-on-server</title><path d="M70.5 120H21.136a4.773 4.773 0 0 1-4.773-4.773V4.773A4.773 4.773 0 0 1 21.136 0H70.5a4.773 4.773 0 0 1 4.773 4.773v110.454A4.773 4.773 0 0 1 70.5 120z" fill="#002f33"/><path d="M54.136 120H4.773A4.773 4.773 0 0 1 0 115.227V4.773A4.773 4.773 0 0 1 4.773 0h49.363a4.773 4.773 0 0 1 4.773 4.773v110.454A4.773 4.773 0 0 1 54.136 120z" fill="#007365"/><path d="M49.227 21.818H8.591a2.044 2.044 0 0 1-2.045-2.043V8.591a2.044 2.044 0 0 1 2.043-2.046h40.638a2.044 2.044 0 0 1 2.045 2.043v11.185a2.044 2.044 0 0 1-2.043 2.045z" fill="#00a387"/><circle cx="45.818" cy="12" r="2.182" fill="#bad80a"/><path d="M9.818 9.818h3.273v8.727H9.818zm6.545 0h3.273v8.727h-3.272zm6.545 0h3.273v8.727h-3.272zm6.545 0h3.273v8.727h-3.271z" fill="#007365"/><path d="M49.227 43.636H8.591a2.044 2.044 0 0 1-2.045-2.043V30.409a2.044 2.044 0 0 1 2.043-2.045h40.638a2.044 2.044 0 0 1 2.045 2.043v11.184a2.044 2.044 0 0 1-2.043 2.045z" fill="#00a387"/><circle cx="45.818" cy="33.818" r="2.182" fill="#bad80a"/><path d="M9.818 31.636h3.273v8.727H9.818zm6.545 0h3.273v8.727h-3.272zm6.545 0h3.273v8.727h-3.272zm6.545 0h3.273v8.727h-3.271z" fill="#007365"/><path d="M49.227 65.455H8.591a2.044 2.044 0 0 1-2.045-2.043V52.227a2.044 2.044 0 0 1 2.043-2.045h40.638a2.044 2.044 0 0 1 2.045 2.043v11.184a2.044 2.044 0 0 1-2.043 2.045z" fill="#00a387"/><circle cx="45.818" cy="55.636" r="2.182" fill="#bad80a"/><path d="M9.818 53.455h3.273v8.727H9.818zm6.545 0h3.273v8.727h-3.272zm6.545 0h3.273v8.727h-3.272zm6.545 0h3.273v8.727h-3.271z" fill="#007365"/><path d="M49.227 87.273H8.591a2.044 2.044 0 0 1-2.045-2.043V74.045A2.044 2.044 0 0 1 8.589 72h40.638a2.044 2.044 0 0 1 2.045 2.043v11.184a2.044 2.044 0 0 1-2.043 2.045z" fill="#00a387"/><circle cx="45.818" cy="77.455" r="2.182" fill="#bad80a"/><path d="M9.818 75.273h3.273V84H9.818zm6.545 0h3.273V84h-3.272zm6.545 0h3.273V84h-3.272zm6.545 0h3.273V84h-3.271z" fill="#007365"/><path d="M135.955 120H86.591a4.773 4.773 0 0 1-4.773-4.773V4.773A4.773 4.773 0 0 1 86.591 0h49.364a4.773 4.773 0 0 1 4.773 4.773v110.454a4.773 4.773 0 0 1-4.773 4.773z" fill="#002f33"/><path d="M119.591 120H70.227a4.773 4.773 0 0 1-4.773-4.773V4.773A4.773 4.773 0 0 1 70.227 0h49.364a4.773 4.773 0 0 1 4.773 4.773v110.454a4.773 4.773 0 0 1-4.773 4.773z" fill="#007365"/><path d="M114.682 21.818H74.045A2.044 2.044 0 0 1 72 19.775V8.591a2.044 2.044 0 0 1 2.043-2.045h40.639a2.044 2.044 0 0 1 2.045 2.043v11.184a2.044 2.044 0 0 1-2.043 2.045z" fill="#00a387"/><circle cx="111.273" cy="12" r="2.182" fill="#bad80a"/><path d="M75.273 9.818h3.273v8.727h-3.273zm6.545 0h3.273v8.727h-3.273zm6.545 0h3.273v8.727h-3.272zm6.545 0h3.273v8.727h-3.272z" fill="#007365"/><path d="M114.682 43.636H74.045A2.044 2.044 0 0 1 72 41.593V30.409a2.044 2.044 0 0 1 2.043-2.045h40.639a2.044 2.044 0 0 1 2.045 2.043v11.184a2.044 2.044 0 0 1-2.043 2.045z" fill="#00a387"/><circle cx="111.273" cy="33.818" r="2.182" fill="#bad80a"/><path d="M75.273 31.636h3.273v8.727h-3.273zm6.545 0h3.273v8.727h-3.273zm6.545 0h3.273v8.727h-3.272zm6.545 0h3.273v8.727h-3.272z" fill="#007365"/><path d="M114.682 65.455H74.045A2.044 2.044 0 0 1 72 63.411V52.227a2.044 2.044 0 0 1 2.043-2.045h40.639a2.044 2.044 0 0 1 2.045 2.043v11.184a2.044 2.044 0 0 1-2.043 2.045z" fill="#00a387"/><circle cx="111.273" cy="55.636" r="2.182" fill="#bad80a"/><path d="M75.273 53.455h3.273v8.727h-3.273zm6.545 0h3.273v8.727h-3.273zm6.545 0h3.273v8.727h-3.272zm6.545 0h3.273v8.727h-3.272z" fill="#007365"/><path d="M114.682 87.273H74.045A2.044 2.044 0 0 1 72 85.229V74.045A2.044 2.044 0 0 1 74.043 72h40.639a2.044 2.044 0 0 1 2.045 2.043v11.184a2.044 2.044 0 0 1-2.043 2.045z" fill="#00a387"/><circle cx="111.273" cy="77.455" r="2.182" fill="#bad80a"/><path d="M75.273 75.273h3.273V84h-3.273zm6.545 0h3.273V84h-3.273zm6.545 0h3.273V84h-3.272zm6.545 0h3.273V84h-3.272z" fill="#007365"/><path d="M201.409 120h-49.364a4.773 4.773 0 0 1-4.773-4.773V4.773A4.773 4.773 0 0 1 152.045 0h49.364a4.773 4.773 0 0 1 4.773 4.773v110.454a4.773 4.773 0 0 1-4.773 4.773z" fill="#505050"/><path d="M185.045 120h-49.363a4.773 4.773 0 0 1-4.773-4.773V4.773A4.773 4.773 0 0 1 135.682 0h49.364a4.773 4.773 0 0 1 4.773 4.773v110.454a4.773 4.773 0 0 1-4.774 4.773z" fill="#737373"/><path d="M180.136 21.818H139.5a2.044 2.044 0 0 1-2.045-2.043V8.591a2.044 2.044 0 0 1 2.045-2.046h40.639a2.044 2.044 0 0 1 2.045 2.043v11.185a2.044 2.044 0 0 1-2.043 2.045z" fill="#a6a6a6"/><circle cx="176.727" cy="12" r="2.182" fill="#737373"/><path d="M140.727 9.818H144v8.727h-3.273zm6.545 0h3.273v8.727h-3.273zm6.545 0h3.273v8.727h-3.273zm6.545 0h3.273v8.727h-3.273z" fill="#737373"/><path d="M180.136 43.636H139.5a2.044 2.044 0 0 1-2.045-2.043V30.409a2.044 2.044 0 0 1 2.043-2.045h40.639a2.044 2.044 0 0 1 2.045 2.043v11.184a2.044 2.044 0 0 1-2.043 2.045z" fill="#a6a6a6"/><circle cx="176.727" cy="33.818" r="2.182" fill="#737373"/><path d="M140.727 31.636H144v8.727h-3.273zm6.545 0h3.273v8.727h-3.273zm6.545 0h3.273v8.727h-3.273zm6.545 0h3.273v8.727h-3.273z" fill="#737373"/><path d="M180.136 65.455H139.5a2.044 2.044 0 0 1-2.045-2.043V52.227a2.044 2.044 0 0 1 2.043-2.045h40.639a2.044 2.044 0 0 1 2.045 2.043v11.184a2.044 2.044 0 0 1-2.043 2.045z" fill="#a6a6a6"/><circle cx="176.727" cy="55.636" r="2.182" fill="#737373"/><path d="M140.727 53.455H144v8.727h-3.273zm6.545 0h3.273v8.727h-3.273zm6.545 0h3.273v8.727h-3.273zm6.545 0h3.273v8.727h-3.273z" fill="#737373"/><path d="M180.136 87.273H139.5a2.044 2.044 0 0 1-2.045-2.043V74.045A2.044 2.044 0 0 1 139.5 72h40.639a2.044 2.044 0 0 1 2.045 2.043v11.184a2.044 2.044 0 0 1-2.043 2.045z" fill="#a6a6a6"/><circle cx="176.727" cy="77.455" r="2.182" fill="#737373"/><path d="M140.727 75.273H144V84h-3.273zm6.545 0h3.273V84h-3.273zm6.545 0h3.273V84h-3.273zm6.545 0h3.273V84h-3.273z" fill="#737373"/></svg>