<svg xmlns="http://www.w3.org/2000/svg" viewBox="0 0 111.76 147.63"><defs><style>.cls-1{fill:#b3d6f2}.cls-2{fill:#c8c8c8}.cls-3{fill:#0078d7}.cls-3,.cls-4,.cls-6,.cls-9{fill-rule:evenodd}.cls-5,.cls-6{fill:#2488d8}.cls-7{font-size:30px;fill:#fff;font-family:SegoeUI-Semibold,Segoe UI;font-weight:700}.cls-8{fill:#231f20}.cls-9{fill:#69afe5}</style></defs><title>general-robot-errorcode-503</title><g id="Layer_2" data-name="Layer 2"><g id="Layer_1-2" data-name="Layer 1"><circle class="cls-1" cx="75.82" cy="35.94" r="35.94"/><path class="cls-2" d="M11.37 147.63h47.1a3.15 3.15 0 0 0 3.18-2.77 3 3 0 0 0-3-3.31H11.53a3.15 3.15 0 0 0-3.18 2.77 3 3 0 0 0 3.02 3.31z"/><path class="cls-3" d="M4.52 77.02l4.44-.03.09 14.57-4.44.02-.09-14.56z"/><path class="cls-4" d="M4.52 77.02l4.44-.03.03 4.8-4.44.02-.03-4.79z"/><rect class="cls-5" x="2.01" y="64.2" width="22.67" height="13.33" rx="2.67" ry="2.67" transform="rotate(-.12 14.249 71.635)"/><path class="cls-3" d="M61.61 85.74l4.44.01-.04 14.56-4.44-.01.04-14.56z"/><path class="cls-4" d="M61.61 85.74l4.44.01-.02 4.8-4.44-.02.02-4.79z"/><rect class="cls-5" x="45.99" y="74.17" width="22.67" height="13.33" rx="2.67" ry="2.67"/><path class="cls-3" d="M21.93 88.03h25.05v13.67H21.93V88.03z"/><path class="cls-4" d="M21.93 85.18l25.05 5.31v2.7l-25.05-5.16v-2.85z"/><path class="cls-3" d="M22.64 109.7h4.44v28.6h-4.44v-28.6z"/><path class="cls-4" d="M22.64 109.7h4.44v5.33h-4.44v-5.33z"/><path class="cls-3" d="M42.53 109.7h4.45v28.6h-4.45v-28.6z"/><path class="cls-4" d="M42.53 109.7h4.45v5.33h-4.45v-5.33z"/><path class="cls-3" d="M61.75 110.8l4.44-.01.02 10.66h-4.44l-.02-10.65z"/><path class="cls-4" d="M61.75 110.8l4.44-.01.01 5.15-4.44.01-.01-5.15z"/><path class="cls-6" d="M59.26 108a3 3 0 0 0 2.8 2.79h4a3 3 0 0 0 2.79-2.8v-8.8A3 3 0 0 0 66 96.4h-4a3 3 0 0 0-2.79 2.8v8.8z"/><path class="cls-3" d="M66.59 127.89a3.47 3.47 0 0 0-2.42-5.68 3.19 3.19 0 0 0-3.17 3.26 3.45 3.45 0 0 0 .81 2.43l-2.41 2.44a6.84 6.84 0 1 1 9.66 0l-2.42-2.43z"/><text class="cls-7" transform="translate(50.66 44.17)">503</text><path class="cls-6" d="M42.87 51.83a14.75 14.75 0 0 0-17.45 11.53l29.08 5.85a14.75 14.75 0 0 0-11.63-17.38z"/><path class="cls-8" d="M36.63 61.19l-4.55 1.62a1 1 0 1 1-.67-1.88L36 59.31a1 1 0 0 1 .67 1.88zM49.71 64.32l-3.43-3.4a1 1 0 1 0-1.41 1.42l3.43 3.4a1 1 0 1 0 1.41-1.42z"/><path class="cls-9" d="M60.25 69.65a1.74 1.74 0 0 1 1.36 2.05l-3.9 19.4a1.74 1.74 0 0 1-2.05 1.36l-41.34-8.32A1.74 1.74 0 0 1 13 82.08l3.91-19.41a1.73 1.73 0 0 1 2-1.36z"/><path class="cls-4" d="M49.75 78.93a4.65 4.65 0 0 1-5.7 3.76L28.21 79.5a4.65 4.65 0 0 1-3.8-5.68 4.9 4.9 0 0 1 5.7-3.76L46 73.25a4.9 4.9 0 0 1 3.8 5.68z"/><path class="cls-3" d="M4.42 101.13l4.44-.01.02 10.66-4.45.01-.01-10.66z"/><path class="cls-4" d="M4.42 101.13l4.44-.01.01 5.15-4.45.01v-5.15z"/><path class="cls-6" d="M1.92 98.34a3 3 0 0 0 2.8 2.79h4a3 3 0 0 0 2.79-2.8v-8.8a3 3 0 0 0-2.8-2.79h-4a3 3 0 0 0-2.79 2.8v8.79z"/><path class="cls-3" d="M9.26 118.23a3.47 3.47 0 0 0-2.42-5.68 3.19 3.19 0 0 0-3.21 3.25 3.45 3.45 0 0 0 .81 2.43L2 120.67a6.62 6.62 0 0 1 4.83-11.37 6.62 6.62 0 0 1 4.85 11.36l-2.42-2.43zM32.23 141.85a5.65 5.65 0 0 0-5.34-4.8h-3.7c-2.88 0-5.34 2.4-5.34 4.8z"/><path class="cls-4" d="M17.84 141.85h14.39v2.84H17.84v-2.84z"/><path class="cls-3" d="M51.95 141.85c0-2.4-2.44-4.8-5.28-4.8H43a5.61 5.61 0 0 0-5.28 4.8z"/><path class="cls-4" d="M37.74 141.85h14.21v2.84H37.74v-2.84z"/><path class="cls-9" d="M19.57 110.05a3 3 0 0 1-2.83-2.79v-4.38a2.74 2.74 0 0 1 2.83-2.79h29.52a2.74 2.74 0 0 1 2.83 2.79v4.38a3 3 0 0 1-2.83 2.79z"/></g></g></svg>