<svg xmlns="http://www.w3.org/2000/svg" viewBox="0 0 127.423 148"><title>general-robot-errorcode-404</title><circle cx="91.483" cy="35.94" r="35.94" fill="#b3d6f2"/><path d="M23.406 148h46.556a3.114 3.114 0 0 0 3.143-2.728A2.965 2.965 0 0 0 70.14 142H23.564a3.114 3.114 0 0 0-3.143 2.738A2.965 2.965 0 0 0 23.406 148z" fill="#c8c8c8"/><g style="isolation:isolate" fill="#fff"><path d="M78.6 22.774v13.242h2.52v3.457H78.6v4.307h-4.22v-4.307h-9.156v-3.618q1.216-1.362 2.52-2.981t2.52-3.333q1.216-1.714 2.264-3.45a34.571 34.571 0 0 0 1.779-3.318zm-9.23 13.242h5.01v-7.339q-.513.952-1.113 1.926t-1.26 1.919q-.659.945-1.333 1.831t-1.304 1.663zM90.42 44.146q-7.5 0-7.5-10.532 0-5.464 2.029-8.328a6.759 6.759 0 0 1 5.881-2.864q7.324 0 7.324 10.708 0 5.332-2 8.174a6.588 6.588 0 0 1-5.734 2.842zm.205-18.193q-3 0-3 7.544 0 7.1 2.944 7.1 2.871 0 2.871-7.324t-2.815-7.32zM113.11 22.774v13.242h2.52v3.457h-2.52v4.307h-4.219v-4.307h-9.155v-3.618q1.216-1.362 2.52-2.981t2.52-3.333q1.216-1.714 2.264-3.45a34.571 34.571 0 0 0 1.779-3.318zm-9.229 13.242h5.01v-7.339q-.513.952-1.113 1.926t-1.26 1.919q-.659.945-1.333 1.831t-1.304 1.663z"/></g><path d="M12.843 69.42l-4.37.8-2.62-14.33 4.37-.8z" fill="#0078d7"/><path d="M12.843 69.42l-4.37.8-.86-4.72 4.37-.8z"/><rect x="6.303" y="68.069" width="22.67" height="13.33" rx="2.67" ry="2.67" transform="rotate(-10.35 17.639 74.735)" fill="#2488d8"/><path d="M27.233 111.94l4.34-.92 5.92 27.98-4.34.92z" fill="#0078d7"/><path d="M27.233 111.94l4.34-.92 1.11 5.21-4.35.92z"/><path d="M43.273 141.41a5.65 5.65 0 0 0-6.25-3.59l-3.62.77c-2.82.6-4.73 3.45-4.24 5.8l14.08-3z" fill="#0078d7"/><path d="M29.193 144.39l14.08-2.98.59 2.78-14.08 2.98z"/><path d="M14.913 52.21l-2.14-3.9 9.34-5.13 2.14 3.89z" fill="#0078d7"/><path d="M14.913 52.21l-2.14-3.9 4.51-2.48 2.14 3.89z"/><path d="M9.123 47.48a3 3 0 0 1 3.82 1.15l2 3.57a3 3 0 0 1-1.12 3.8l-7.7 4.28A3 3 0 0 1 2.3 59.13l-2-3.57a3 3 0 0 1 1.08-3.84z" fill="#2488d8"/><path d="M30 44.32a3.44 3.44 0 0 1-1.75 1.88 3.48 3.48 0 0 1-4.4-1.27 3.57 3.57 0 0 1 1.08-4.74 2.46 2.46 0 0 1 2.72-.11l1-3.3a6.62 6.62 0 0 0-7.63 9.72 6.4 6.4 0 0 0 8.68 2.561l.11-.061a6.5 6.5 0 0 0 3.49-3.76l-3.3-.95zM71.093 78.4l-.78 4.37 14.34 2.57.78-4.37z" fill="#0078d7"/><path d="M71.093 78.4l-.78 4.37 4.72.85.78-4.37z"/><rect x="53.227" y="67.49" width="13.33" height="22.67" rx="2.67" ry="2.67" transform="rotate(-78.45 59.892 78.825)" fill="#2488d8"/><path d="M81.993 75.77l4.39-.64-1.53-10.55-4.4.64z" fill="#0078d7"/><path d="M81.993 75.77l4.39-.64-.74-5.1-4.4.64z"/><path d="M89.253 77.54a3 3 0 0 0-3.23-2.36l-4 .59a3 3 0 0 0-2.42 3.18l1.27 8.7a3 3 0 0 0 3.15 2.35l4-.59a3 3 0 0 0 2.42-3.18l-1.27-8.7z" fill="#2488d8"/><path d="M79.123 58.9a3.44 3.44 0 0 0-.45 2.53 3.48 3.48 0 0 0 3.66 2.75 3.57 3.57 0 0 0 3.13-3.74 2.46 2.46 0 0 0-1.54-2.24l2-2.76a6.62 6.62 0 0 1-3.16 11.95 6.4 6.4 0 0 1-7.307-5.341l-.023-.159a6.5 6.5 0 0 1 .9-5.05z" fill="#0078d7"/><path d="M42.453 51A14.75 14.75 0 0 0 26.4 64.32l-.007.08 29.55 2.6a14.75 14.75 0 0 0-13.394-15.991L42.443 51z" fill="#2488d8"/><path d="M33.6 62.41a2 2 0 1 1 1.872 2.12 2 2 0 0 1-1.872-2.12zm13.12.98a2 2 0 1 1 1.88 2.12 2 2 0 0 1-1.877-2.12z" fill="#ffb900"/><path d="M26.523 89.56l24.95 2.18-1.19 13.62-24.95-2.17z" fill="#0078d7"/><path d="M26.763 86.73l24.96 2.18-.25 2.83-24.95-2.18z"/><path d="M22 111.26a3 3 0 0 1-2.58-3l.38-4.36a2.74 2.74 0 0 1 2.924-2.543q.068 0 .136.013l29.4 2.54a2.74 2.74 0 0 1 2.589 2.883q0 .058-.009.117l-.38 4.36a3 3 0 0 1-3.06 2.53L22 111.24z" fill="#69afe5"/><path d="M37.253 55.83l-4.61 1.47a1 1 0 0 1-.62-1.91l4.61-1.46a1 1 0 1 1 .61 1.91zm18.22-2.76l-3.59-3.24a1 1 0 0 0-1.34 1.49l3.59 3.24a1 1 0 1 0 1.34-1.49z" fill="#231f20"/><path d="M61.7 66.77a1.74 1.74 0 0 1 1.58 1.886l-1.71 19.71A1.74 1.74 0 0 1 59.733 90h-.05l-42-3.66a1.74 1.74 0 0 1-1.58-1.886l1.72-19.72A1.73 1.73 0 0 1 19.7 63.16z" fill="#69afe5"/><path d="M52.943 77.56a4.65 4.65 0 0 1-4.875 4.414q-.188-.009-.375-.034l-16.1-1.4a4.65 4.65 0 0 1-4.441-4.85q.008-.186.031-.37a4.9 4.9 0 0 1 5.25-4.38l16.1 1.4a4.9 4.9 0 0 1 4.41 5.22z"/><path d="M31.943 78.77a.53.53 0 0 1-.48-.57l.41-4.75a.53.53 0 0 1 1.05.09l-.41 4.75a.53.53 0 0 1-.57.48zM35.1 79a.53.53 0 0 1-.48-.57l.4-4.71a.53.53 0 1 1 1.05.09l-.41 4.75a.53.53 0 0 1-.56.44zm3.17.32a.53.53 0 0 1-.48-.57L38.2 74a.53.53 0 0 1 1.05.09l-.41 4.75a.53.53 0 0 1-.567.48zm3.16.27a.53.53 0 0 1-.48-.57l.41-4.75a.53.53 0 1 1 1.05.09l-.39 4.75a.53.53 0 0 1-.574.482zm3.17.28a.53.53 0 0 1-.48-.57l.41-4.75a.53.53 0 1 1 1.05.09l-.41 4.75a.53.53 0 0 1-.57.48zm3.16.28a.53.53 0 0 1-.48-.57l.41-4.75a.53.53 0 1 1 1.05.09l-.41 4.75a.53.53 0 0 1-.567.48z" fill="#ff8c00"/></svg>