<svg xmlns="http://www.w3.org/2000/svg" viewBox="0 0 111.415 148"><title>general-robot-errorcode-503</title><circle cx="75.475" cy="35.94" r="35.94" fill="#b3d6f2"/><path d="M11.336 148h46.48a3.109 3.109 0 0 0 3.138-2.734 2.961 2.961 0 0 0-2.96-3.266h-46.5a3.109 3.109 0 0 0-3.138 2.734 2.961 2.961 0 0 0 2.98 3.266z" fill="#c8c8c8"/><path d="M4.56 77l4.083-.031L8.725 92l-4.083.021z" fill="#0078d7"/><path d="M4.615 77l4.027-.031L8.67 82l-4.027.021z"/><rect x="1.634" y="63.982" width="23.017" height="13.036" rx="2.67" ry="2.67" transform="rotate(-.116 13.265 70.151)" fill="#2488d8"/><path d="M61.642 86h4v15h-4z" fill="#0078d7"/><path d="M61.642 86h4v5h-4z"/><rect x="45.642" y="74" width="23" height="13" rx="2.67" ry="2.67" fill="#2488d8"/><path d="M21.642 88h25v14h-25z" fill="#0078d7"/><path d="M21.642 85.188l25 5.3v2.695l-25-5.15z"/><path d="M22.642 110h4v29h-4z" fill="#0078d7"/><path d="M22.642 110h4v5h-4z"/><path d="M42.642 110h4v29h-4z" fill="#0078d7"/><path d="M42.642 110h4v5h-4z"/><path d="M61.624 111l4.018-.01.018 11.01h-4.018z" fill="#0078d7"/><path d="M61.633 111l4.009-.01.009 5.01-4.009.01z"/><path d="M58.7 108a3.226 3.226 0 0 0 3.011 3h4.041a3.02 3.02 0 0 0 2.894-2.724v-8.562A3.026 3.026 0 0 0 65.686 97h-4.149a3.02 3.02 0 0 0-2.894 2.724V108z" fill="#2488d8"/><path d="M66.233 127.89a3.47 3.47 0 0 0-2.42-5.68 3.19 3.19 0 0 0-3.171 3.209v.051a3.45 3.45 0 0 0 .81 2.43l-2.41 2.44a6.84 6.84 0 0 1 .058-9.74 6.932 6.932 0 0 1 9.535-.013 6.84 6.84 0 0 1 .083 9.741l-.013.013-2.42-2.43z" fill="#0078d7"/><g style="isolation:isolate" fill="#fff"><path d="M52.4 43.628v-3.955a8.635 8.635 0 0 0 4.585 1.318 4.308 4.308 0 0 0 2.864-.872 2.933 2.933 0 0 0 1.032-2.366q0-3.12-4.409-3.12a32.649 32.649 0 0 0-3.75.249l.791-11.719h11.114v3.779h-7.588l-.293 4.2q1.128-.088 1.948-.088a7.164 7.164 0 0 1 5.068 1.7 5.934 5.934 0 0 1 1.831 4.57 6.746 6.746 0 0 1-2.183 5.193 8.386 8.386 0 0 1-5.918 2.014 12.663 12.663 0 0 1-5.092-.903zM76.082 44.536q-7.5 0-7.5-10.532 0-5.464 2.029-8.328a6.759 6.759 0 0 1 5.881-2.864q7.324 0 7.324 10.708 0 5.332-2 8.174a6.588 6.588 0 0 1-5.734 2.842zm.205-18.193q-3 0-3 7.544 0 7.1 2.944 7.1 2.871 0 2.871-7.324t-2.815-7.32zM86.541 43.482v-4.029a8.131 8.131 0 0 0 4.922 1.538 4.433 4.433 0 0 0 2.762-.762 2.529 2.529 0 0 0 .988-2.124 2.414 2.414 0 0 0-1.223-2.168 6.339 6.339 0 0 0-3.362-.762h-1.949v-3.544h1.8q4.1 0 4.1-2.725 0-2.563-3.149-2.563a7.18 7.18 0 0 0-4.1 1.362v-3.779a11.328 11.328 0 0 1 5.156-1.113 7.783 7.783 0 0 1 5.018 1.45 4.615 4.615 0 0 1 1.796 3.765q0 4.116-4.175 5.156v.073a5.676 5.676 0 0 1 3.516 1.619 4.564 4.564 0 0 1 1.289 3.289 5.636 5.636 0 0 1-2.153 4.658 9.31 9.31 0 0 1-5.947 1.714 11.494 11.494 0 0 1-5.289-1.055z"/></g><path d="M42.525 51.83a14.75 14.75 0 0 0-17.434 11.453l-.016.077 29.08 5.85A14.75 14.75 0 0 0 42.6 51.844z" fill="#2488d8"/><path d="M36.285 61l-4.55 1.62a1 1 0 1 1-.67-1.88l4.59-1.62a1 1 0 0 1 .67 1.88zm13.08 3.32l-3.43-3.4a1 1 0 0 0-1.41 1.42l3.43 3.4a1 1 0 0 0 1.41-1.42z" fill="#231f20"/><path d="M59.905 69.65a1.74 1.74 0 0 1 1.36 2.05l-3.9 19.4a1.74 1.74 0 0 1-2.05 1.36l-41.34-8.32a1.74 1.74 0 0 1-1.32-2.06l3.91-19.41a1.73 1.73 0 0 1 2-1.36z" fill="#69afe5"/><path d="M49.405 79a4.65 4.65 0 0 1-5.343 3.833q-.18-.03-.357-.073l-15.84-3.19a4.65 4.65 0 0 1-3.872-5.315q.029-.184.072-.365a4.9 4.9 0 0 1 5.7-3.76l15.89 3.19a4.9 4.9 0 0 1 3.8 5.68z"/><path d="M4.633 101l4.009-.01L8.66 112l-4.018.01z" fill="#0078d7"/><path d="M4.642 101l4-.01.009 5.01-4.009.01z"/><path d="M1.642 98.286A3.03 3.03 0 0 0 4.562 101h4.171a3.028 3.028 0 0 0 2.909-2.724v-8.562A3.03 3.03 0 0 0 8.723 87H4.552a3.028 3.028 0 0 0-2.909 2.724v8.561z" fill="#2488d8"/><path d="M9.273 118.23a3.47 3.47 0 0 0-2.42-5.68 3.19 3.19 0 0 0-3.21 3.169v.081a3.45 3.45 0 0 0 .81 2.43l-2.44 2.44a6.62 6.62 0 0 1 4.83-11.37 6.62 6.62 0 0 1 4.85 11.36zM32.185 142a5.885 5.885 0 0 0-5.562-5h-3.855c-3 0-5.562 2.5-5.562 5z" fill="#0078d7"/><path d="M17.642 142h14v3h-14z"/><path d="M51.9 142c0-2.5-2.542-5-5.5-5h-3.821a5.844 5.844 0 0 0-5.5 5z" fill="#0078d7"/><path d="M37.642 142h14v3h-14z"/><path d="M19.458 110a3 3 0 0 1-2.816-2.8v-4.4a2.74 2.74 0 0 1 2.674-2.8h29.511a2.737 2.737 0 0 1 2.815 2.659v4.543a3 3 0 0 1-2.816 2.8z" fill="#69afe5"/></svg>