<svg id="Layer_1" data-name="Layer 1" xmlns="http://www.w3.org/2000/svg" xmlns:xlink="http://www.w3.org/1999/xlink" viewBox="0 0 450 200"><defs><style>.cls-1{fill:none;}.cls-2{clip-path:url(#clip-path);}.cls-12,.cls-3{fill:#b7d9f2;}.cls-20,.cls-3{opacity:0.6;}.cls-12,.cls-15,.cls-20,.cls-3,.cls-4,.cls-9{isolation:isolate;}.cls-19,.cls-4{fill:#e2f0fa;}.cls-4,.cls-9{opacity:0.7;}.cls-5,.cls-9{fill:#89bfe9;}.cls-20,.cls-6{fill:#c6e0f5;}.cls-7{fill:#a9d1ef;}.cls-8{fill:#9bc9ed;}.cls-10{fill:#1070c4;}.cls-11{fill:#fff;}.cls-12,.cls-14,.cls-15{opacity:0.5;}.cls-13{fill:#459bdd;}.cls-15{fill:#b3daf4;}.cls-16{fill:#f3f3f3;}.cls-17{fill:#d4e8f7;}.cls-18{fill:#f1f7fc;}.cls-21{fill:#62aae2;}</style><clipPath id="clip-path"><rect class="cls-1" width="450" height="200"/></clipPath></defs><title>hero-race-car-blue</title><g class="cls-2"><g id="hero-race-car-blue"><g id="Group"><path id="Vector" class="cls-3" d="M186.7,166.426A5.443,5.443,0,0,0,181.594,161H166.352a5.5,5.5,0,0,0,0,11h15.242A5.63,5.63,0,0,0,186.7,166.426Z"/><path id="Vector_2" data-name="Vector 2" class="cls-4" d="M174,151H50.139a5.5,5.5,0,0,0,0,11H174Z"/><path id="Vector_3" data-name="Vector 3" class="cls-5" d="M173.147,161.561a5.61,5.61,0,1,0-5.585-5.61A5.6,5.6,0,0,0,173.147,161.561Z"/><path id="Vector_4" data-name="Vector 4" class="cls-4" d="M156,173H90.37a5.5,5.5,0,0,0,0,11H156Z"/><path id="Vector_5" data-name="Vector 5" class="cls-5" d="M155.485,184a5.611,5.611,0,1,0-5.586-5.61A5.6,5.6,0,0,0,155.485,184Z"/><path id="Vector_6" data-name="Vector 6" class="cls-6" d="M166.58,184a5.611,5.611,0,1,0-5.585-5.61A5.6,5.6,0,0,0,166.58,184Z"/><path id="Vector_7" data-name="Vector 7" class="cls-7" d="M173.373,184a5.611,5.611,0,1,0-5.585-5.61A5.6,5.6,0,0,0,173.373,184Z"/><path id="Vector_8" data-name="Vector 8" class="cls-8" d="M182.581,172.252a5.611,5.611,0,1,0-5.585-5.61A5.6,5.6,0,0,0,182.581,172.252Z"/><path id="Vector_9" data-name="Vector 9" class="cls-3" d="M158.32,161.426A5.443,5.443,0,0,0,153.214,156H137.972a5.5,5.5,0,0,0,0,11h15.242A5.69,5.69,0,0,0,158.32,161.426Z"/><path id="Vector_10" data-name="Vector 10" class="cls-9" d="M159.863,167.173a5.611,5.611,0,1,0-5.586-5.611A5.6,5.6,0,0,0,159.863,167.173Z"/><path id="Vector_11" data-name="Vector 11" class="cls-10" d="M163.259,167.173a5.611,5.611,0,1,0-5.585-5.611A5.6,5.6,0,0,0,163.259,167.173Z"/><g id="Group_2" data-name="Group 2"><path id="Vector_12" data-name="Vector 12" class="cls-11" d="M174,159h-1v-5.4l-1,.606v-.834l1-.374h1Z"/></g><g id="Group_3" data-name="Group 3"><path id="Vector_13" data-name="Vector 13" class="cls-11" d="M162,162.376v-2.123c0-.137.068-.274.068-.411.068-.137.068-.274.136-.411a.693.693,0,0,1,.273-.343,1.431,1.431,0,0,1,.409-.273,1.5,1.5,0,0,1,.614-.069,1.86,1.86,0,0,1,.613.069c.136.068.341.137.409.273a1.2,1.2,0,0,1,.273.343.965.965,0,0,1,.136.411.863.863,0,0,1,.069.411v2.465c0,.137-.069.275-.069.411-.067.137-.067.275-.136.411a.683.683,0,0,1-.273.343,1.436,1.436,0,0,1-.409.274,1.515,1.515,0,0,1-.613.068,1.892,1.892,0,0,1-.614-.068.626.626,0,0,1-.409-.274,1.226,1.226,0,0,1-.273-.343.974.974,0,0,1-.136-.411.873.873,0,0,1-.068-.411Zm2,.095v-2.5c.316-.075.24-.227.24-.3s-.075-.151-.151-.227-.151-.152-.226-.152a.562.562,0,0,0-.377-.076,1.086,1.086,0,0,0-.529.152.758.758,0,0,0-.3.379c-.075.152-.655.455-.655.455v2.881c.58.076.655.227.655.3s.076.152.151.228.151.151.227.151a.973.973,0,0,0,.754,0c.076-.076.151-.076.227-.151s.151-.152.151-.228a1.076,1.076,0,0,0-.165-.3v-.607Z"/></g><g id="Group_4" data-name="Group 4"><path id="Vector_14" data-name="Vector 14" class="cls-11" d="M154,179.207v-2.123c0-.137.069-.274.069-.411.067-.137.067-.274.135-.411a.693.693,0,0,1,.273-.343c.136-.068.273-.205.409-.273a1.5,1.5,0,0,1,.614-.069,1.869,1.869,0,0,1,.614.069c.136.068.34.137.409.273s.2.206.273.343a.979.979,0,0,1,.136.411.875.875,0,0,1,.068.411v2.465c0,.137-.068.275-.068.411-.068.137-.068.275-.136.411a.693.693,0,0,1-.273.343,1.436,1.436,0,0,1-.409.274,1.523,1.523,0,0,1-.614.068,1.9,1.9,0,0,1-.614-.068.631.631,0,0,1-.409-.274,1.226,1.226,0,0,1-.273-.343.972.972,0,0,1-.135-.411.861.861,0,0,1-.069-.411Zm3,.095v-2.5c-.609-.075-.685-.227-.685-.3s-.075-.151-.151-.227-.151-.152-.226-.152a.563.563,0,0,0-.377-.076,1.086,1.086,0,0,0-.529.152.758.758,0,0,0-.3.379c-.075.152.27.455.27.455v2.881c-.345.076-.27.227-.27.3s.076.152.151.228.151.151.227.151a.973.973,0,0,0,.754,0c.076-.076.151-.076.227-.151s.151-.152.151-.228-.24-.3-.24-.3v-.3Z"/></g><g id="Group_5" data-name="Group 5"><path id="Vector_15" data-name="Vector 15" class="cls-5" d="M177,183.927a5.611,5.611,0,1,0-5.586-5.611A5.6,5.6,0,0,0,177,183.927Z"/><g id="Group_6" data-name="Group 6"><path id="Vector_16" data-name="Vector 16" class="cls-11" d="M176,178.98v-2.123c0-.137.069-.275.069-.411.067-.137.067-.275.136-.411a.683.683,0,0,1,.273-.343,1.436,1.436,0,0,1,.409-.274,1.515,1.515,0,0,1,.613-.068,1.892,1.892,0,0,1,.614.068c.136.069.341.137.409.274a1.226,1.226,0,0,1,.273.343.974.974,0,0,1,.136.411.873.873,0,0,1,.068.411v2.465c0,.137-.068.274-.068.411-.068.137-.068.274-.136.411a.693.693,0,0,1-.273.343,1.431,1.431,0,0,1-.409.273,1.5,1.5,0,0,1-.614.069,1.86,1.86,0,0,1-.613-.069.625.625,0,0,1-.409-.273,1.2,1.2,0,0,1-.273-.343.965.965,0,0,1-.136-.411.863.863,0,0,1-.069-.411Zm3,.095v-2.5c-.872-.076-.947-.227-.947-.3s-.076-.152-.151-.228-.151-.151-.227-.151a.561.561,0,0,0-.377-.076,1.1,1.1,0,0,0-.529.151.753.753,0,0,0-.3.38,2.48,2.48,0,0,1-.468.454v2.881c.392.076.468.228.468.3s.075.151.15.227.151.152.227.152a.976.976,0,0,0,.755,0c.075-.076.151-.076.226-.152s.151-.152.151-.227.023-.3.023-.3v-.3Z"/></g></g><path id="Vector_17" data-name="Vector 17" class="cls-3" d="M147.981,170.425A5.441,5.441,0,0,0,142.875,165H127.632a5.5,5.5,0,0,0,0,11h15.243A5.631,5.631,0,0,0,147.981,170.425Z"/><path id="Vector_18" data-name="Vector 18" class="cls-12" d="M109.294,165.425A5.441,5.441,0,0,0,104.188,160H16.871a5.5,5.5,0,0,0,0,11h87.317A5.689,5.689,0,0,0,109.294,165.425Z"/><path id="Vector_19" data-name="Vector 19" class="cls-13" d="M143.484,160.728a5.61,5.61,0,1,0-5.586-5.61A5.6,5.6,0,0,0,143.484,160.728Z"/><path id="Vector_20" data-name="Vector 20" class="cls-5" d="M112.462,160.576a5.611,5.611,0,1,0-5.585-5.61A5.6,5.6,0,0,0,112.462,160.576Z"/><g id="Group_7" data-name="Group 7"><path id="Vector_21" data-name="Vector 21" class="cls-11" d="M144,158h-1v-5.232l-1,.606v-.834l1.332-.54H144Z"/></g><g id="Group_8" data-name="Group 8"><path id="Vector_22" data-name="Vector 22" class="cls-11" d="M111,155.553V153.43c0-.137.068-.274.068-.411.068-.137.068-.274.136-.411a.693.693,0,0,1,.273-.343c.136-.068.273-.2.409-.273a1.5,1.5,0,0,1,.614-.069,1.679,1.679,0,0,1,.614.069c.136.068.34.136.409.273s.2.206.273.343a.979.979,0,0,1,.136.411.875.875,0,0,1,.068.411V155.9c0,.137-.068.274-.068.411-.068.137-.068.274-.136.411a.693.693,0,0,1-.273.343,1.411,1.411,0,0,1-.409.273,1.5,1.5,0,0,1-.614.069,1.679,1.679,0,0,1-.614-.069.627.627,0,0,1-.409-.273,1.24,1.24,0,0,1-.273-.343.979.979,0,0,1-.136-.411A.875.875,0,0,1,111,155.9Zm3,.095v-2.5c-.481-.076-.557-.227-.557-.3s-.075-.152-.151-.228-.151-.151-.226-.151a.565.565,0,0,0-.378-.076,1.086,1.086,0,0,0-.528.152.754.754,0,0,0-.3.379c-.075.151.142.455.142.455v2.881c-.217.075-.142.227-.142.3s.076.152.151.227.151.152.227.152a3.216,3.216,0,0,0,.377.076.561.561,0,0,0,.377-.076c.076-.076.151-.076.227-.152s.151-.151.151-.227.632-.3.632-.3v-.607Z"/></g><g id="Group_9" data-name="Group 9"><path id="Vector_23" data-name="Vector 23" class="cls-5" d="M55.326,160.349a5.611,5.611,0,1,0-5.586-5.611A5.6,5.6,0,0,0,55.326,160.349Z"/><g id="Group_10" data-name="Group 10"><path id="Vector_24" data-name="Vector 24" class="cls-11" d="M54,155.7v-2.123c0-.136.068-.274.068-.411.068-.136.068-.274.137-.411a.684.684,0,0,1,.272-.342,1.429,1.429,0,0,1,.409-.274,1.5,1.5,0,0,1,.614-.069,1.676,1.676,0,0,1,.614.069c.136.068.341.137.409.274a1.213,1.213,0,0,1,.272.342.971.971,0,0,1,.137.411.877.877,0,0,1,.068.411v2.466c0,.136-.068.274-.068.41-.068.137-.068.275-.137.411a.675.675,0,0,1-.272.342,1.434,1.434,0,0,1-.409.275,1.52,1.52,0,0,1-.614.068,1.7,1.7,0,0,1-.614-.068c-.136-.069-.34-.137-.409-.275a1.186,1.186,0,0,1-.272-.342.962.962,0,0,1-.137-.411.87.87,0,0,1-.068-.41C54.068,155.91,54,155.772,54,155.7Zm3,.095v-2.5c-.618-.076-.693-.228-.693-.3s-.076-.151-.151-.227-.151-.152-.227-.152a.561.561,0,0,0-.377-.076,1.086,1.086,0,0,0-.528.152.753.753,0,0,0-.3.379c-.076.152.278.455.278.455v2.881c-.354.076-.278.227-.278.3s.075.152.151.228.151.151.226.151a3.286,3.286,0,0,0,.378.076.563.563,0,0,0,.377-.076c.075-.076.151-.075.226-.151s.151-.152.151-.228-.231-.3-.231-.3v-.3Z"/></g></g><g id="Group_11" data-name="Group 11" class="cls-14"><path id="Vector_25" data-name="Vector 25" class="cls-15" d="M58.42,176.649a5.61,5.61,0,1,0-5.585-5.61A5.6,5.6,0,0,0,58.42,176.649Z"/><path id="Vector_26" data-name="Vector 26" class="cls-9" d="M65.288,176.649a5.61,5.61,0,1,0-5.585-5.61A5.6,5.6,0,0,0,65.288,176.649Z"/></g><g id="Group_12" data-name="Group 12"><path id="Vector_27" data-name="Vector 27" class="cls-13" d="M73.365,176.649a5.61,5.61,0,1,0-5.586-5.61A5.6,5.6,0,0,0,73.365,176.649Z"/><g id="Group_13" data-name="Group 13"><path id="Vector_28" data-name="Vector 28" class="cls-11" d="M74,174H73v-5.311l-1,.607v-.834L73.138,168H74Z"/></g></g><g id="Group_14" data-name="Group 14"><path id="Vector_29" data-name="Vector 29" class="cls-5" d="M100.613,184.155a5.61,5.61,0,1,0-5.586-5.61A5.6,5.6,0,0,0,100.613,184.155Z"/><g id="Group_15" data-name="Group 15"><path id="Vector_30" data-name="Vector 30" class="cls-11" d="M101,182h0v-5.426l-2,.607v-.834l1.538-.347H101Z"/></g></g><path id="Vector_31" data-name="Vector 31" class="cls-8" d="M357.841,158.529,347.2,142.987s-13.436,9.629-32.531,24.034c-9.964,7.505,37.437,7.733,42.8,3.487C362.823,166.338,357.841,158.529,357.841,158.529Z"/><path id="Vector_32" data-name="Vector 32" class="cls-6" d="M358.294,169.9c.3-.152-.452-11.3-.452-11.3L347.2,142.987s-.679.531-4.679,3.412Z"/><path id="Vector_33" data-name="Vector 33" class="cls-8" d="M305,154h8v6h-8Z"/><path id="Vector_34" data-name="Vector 34" class="cls-10" d="M313.838,167.248c0-3.033-.377-6.217-.679-10.159-6.416.531-3.774.379-11.7.151-3.02.531-5.284,2.654-6.944,5.383C301.837,164.6,308.555,166.187,313.838,167.248Z"/><path id="Vector_35" data-name="Vector 35" class="cls-8" d="M317,142.153v.152a34.407,34.407,0,0,1-.151,3.942,16.543,16.543,0,0,0,1.208,3.412c0,.379.528,1.061-1.435.91l-1.056,5s-.151.682-1.736.379-5.888-1.592-7.775-4.094c.906-9.781,2.642-11.373,2.642-11.373l8,.152Z"/><path id="Vector_36" data-name="Vector 36" class="cls-10" d="M314.441,148.218a.518.518,0,0,0,.529-.531c0-.379-.151-.682-.529-.682s-.528.379-.528.682A.518.518,0,0,0,314.441,148.218Z"/><path id="Vector_37" data-name="Vector 37" class="cls-16" d="M313.687,152a4.655,4.655,0,0,0,2.339,1.213,5.733,5.733,0,0,0,.227-1.213Z"/><path id="Vector_38" data-name="Vector 38" class="cls-10" d="M313.837,144.124s-3.925,2.123-3.7,5.686c-.151-5.534-2.114-5.534-2.114-5.534Z"/><path id="Vector_39" data-name="Vector 39" class="cls-10" d="M318.982,141.837a13.033,13.033,0,0,0-12.53-10.614A12.889,12.889,0,0,0,306.3,157h.981c2.868-.91,2.717-6.444,2.717-6.444v-8.34Z"/><path id="Vector_40" data-name="Vector 40" class="cls-13" d="M309,142v2h10.423l-.981-2Z"/><path id="Vector_41" data-name="Vector 41" class="cls-13" d="M307.12,133.483a.809.809,0,0,0-.6-.152A11.335,11.335,0,0,0,306.29,156h.151a1.417,1.417,0,0,0,.6-.152,11.224,11.224,0,0,1-10.039-12.282A11.421,11.421,0,0,1,307.12,133.483Z"/><path id="Vector_42" data-name="Vector 42" class="cls-8" d="M450,196.993A3.016,3.016,0,0,1,446.993,200H65.817a3.121,3.121,0,0,1-3.019-3,3.018,3.018,0,0,1,3.019-3h381.19A2.993,2.993,0,0,1,450,196.993Z"/><path id="Vector_43" data-name="Vector 43" class="cls-6" d="M57.058,200H42.5a3.1,3.1,0,0,1-2.986-3,3,3,0,0,1,2.986-3H57.058a2.922,2.922,0,0,1,2.987,3A3,3,0,0,1,57.058,200Z"/><path id="Vector_44" data-name="Vector 44" class="cls-17" d="M29.161,200H19.9a3.1,3.1,0,0,1-2.987-3,3,3,0,0,1,2.987-3h9.333a2.922,2.922,0,0,1,2.987,3A3.118,3.118,0,0,1,29.161,200Z"/><path id="Vector_45" data-name="Vector 45" class="cls-18" d="M117.218,117.741A13.041,13.041,0,1,0,104.235,104.7,13.012,13.012,0,0,0,117.218,117.741Z"/><path id="Vector_46" data-name="Vector 46" class="cls-17" d="M132.313,117.741A13.041,13.041,0,1,0,119.331,104.7,13.012,13.012,0,0,0,132.313,117.741Z"/><path id="Vector_47" data-name="Vector 47" class="cls-17" d="M230.458,68.947A23.573,23.573,0,0,0,218.91,71.9a20.067,20.067,0,0,0-38.116,8.87c0,.91.075,1.744.151,2.654a8.181,8.181,0,0,0-1.963-.227,8.982,8.982,0,0,0-8.968,9.541l-.014.011A13.034,13.034,0,1,0,165.4,118h64.987a24.527,24.527,0,0,0,.075-49.053Z"/><path id="Vector_48" data-name="Vector 48" class="cls-19" d="M406.525,88.1a5.08,5.08,0,1,0-5.057-5.08A5.068,5.068,0,0,0,406.525,88.1Z"/><path id="Vector_49" data-name="Vector 49" class="cls-17" d="M387.655,88.1a5.08,5.08,0,1,0-5.057-5.08A5.068,5.068,0,0,0,387.655,88.1Z"/><path id="Vector_50" data-name="Vector 50" class="cls-19" d="M380.108,77.992a5.658,5.658,0,0,0-1.963.379,9.945,9.945,0,0,0,.981-4.473,10.33,10.33,0,0,0-10.34-10.386,10.019,10.019,0,0,0-3.019.455,14.862,14.862,0,0,0-28.682,2.047,6.389,6.389,0,0,0-1.736-.228,7,7,0,0,0-6.038,3.412A10.734,10.734,0,1,0,322.216,88h57.967a5.068,5.068,0,0,0,5.057-5.08A5.157,5.157,0,0,0,380.108,77.992Z"/><path id="Vector_51" data-name="Vector 51" class="cls-18" d="M52.533,34.269a5.08,5.08,0,1,0-5.057-5.08A5.069,5.069,0,0,0,52.533,34.269Z"/><path id="Vector_52" data-name="Vector 52" class="cls-19" d="M78.95,23.992a5.657,5.657,0,0,1,1.962.379,9.945,9.945,0,0,1-.981-4.473A10.33,10.33,0,0,1,90.271,9.512a10.019,10.019,0,0,1,3.019.455,14.911,14.911,0,0,1,28.758,2.047,6.389,6.389,0,0,1,1.736-.228,7,7,0,0,1,6.038,3.412A10.734,10.734,0,1,1,136.917,34H78.95a5,5,0,1,1,0-10.008Z"/><path id="Vector_53" data-name="Vector 53" class="cls-18" d="M130.2,34.723a7.127,7.127,0,1,0-7.1-7.127A7.111,7.111,0,0,0,130.2,34.723Z"/><path id="Vector_54" data-name="Vector 54" class="cls-20" d="M148.315,34.723A7.127,7.127,0,1,0,141.22,27.6,7.111,7.111,0,0,0,148.315,34.723Z"/><path id="Vector_55" data-name="Vector 55" class="cls-6" d="M71.4,34.269a5.08,5.08,0,1,0-5.057-5.08A5.069,5.069,0,0,0,71.4,34.269Z"/><path id="Vector_56" data-name="Vector 56" class="cls-20" d="M257.305,106.445a7.127,7.127,0,1,0-7.095-7.127A7.111,7.111,0,0,0,257.305,106.445Z"/><path id="Vector_57" data-name="Vector 57" class="cls-18" d="M239.945,106.445a7.127,7.127,0,1,0-7.095-7.127A7.111,7.111,0,0,0,239.945,106.445Z"/><path id="Vector_58" data-name="Vector 58" class="cls-18" d="M275.419,106.445a7.127,7.127,0,1,0-7.095-7.127A7.111,7.111,0,0,0,275.419,106.445Z"/><path id="Vector_59" data-name="Vector 59" class="cls-20" d="M336.33,91.661a8.643,8.643,0,1,0-8.6-8.643A8.625,8.625,0,0,0,336.33,91.661Z"/><path id="Vector_60" data-name="Vector 60" class="cls-10" d="M215,173.183l-34,10.725V149.376l34,10.8Z"/><path id="Vector_61" data-name="Vector 61" class="cls-13" d="M215,165v-5.08l-34-10.765V165Z"/><path id="Vector_62" data-name="Vector 62" class="cls-13" d="M291.043,137.756s-21.586,2.123-28.681,16.073,28.228,8.794,28.228,8.794Z"/><path id="Vector_63" data-name="Vector 63" class="cls-10" d="M263.148,160.273c5.661,5.611,27.852,2.35,27.852,2.35l.3-19.408C279.376,144.807,270.243,149.2,263.148,160.273Z"/><g id="Group_16" data-name="Group 16"><path id="Vector_64" data-name="Vector 64" class="cls-10" d="M289,163.233V135.546a2.542,2.542,0,0,1,1.915-2.521A2.5,2.5,0,0,1,294,135.472v27.842a2.5,2.5,0,0,1-4.139,1.891A2.541,2.541,0,0,1,289,163.233Z"/></g><path id="Vector_65" data-name="Vector 65" class="cls-13" d="M206,136.352a1.941,1.941,0,0,1,2.566-1.9c14.039,4.624,81.139,26.459,105.141,31.387,26.946,5.459,43.928-7.051,43.928-7.051s61.288,20.015,66.119,21.3,7.321,11.9-.981,11.9H210.6a4.633,4.633,0,0,1-4.6-4.625Z"/><path id="Vector_66" data-name="Vector 66" class="cls-21" d="M424.774,180.4c-.981-.227-3.17-.91-7.774-2.426V192h5.962C435.114,192,431.189,182.068,424.774,180.4Z"/><path id="Vector_67" data-name="Vector 67" class="cls-10" d="M206,186v1.481A4.58,4.58,0,0,0,210.6,192H422.848c6.793,0,8.454-3.038,7.623-6Z"/><path id="Vector_68" data-name="Vector 68" class="cls-13" d="M417,186v6h5.826c6.637,0,8.26-3.038,7.448-6Z"/><path id="Vector_69" data-name="Vector 69" class="cls-10" d="M301.686,162.851c29.511,9.022,51.626,11.827,72.987,1.213-9.737-3.184-16.907-5.535-16.907-5.535s-16.983,12.586-43.929,7.051c-3.849-.758-8.83-1.971-14.491-3.487C300.176,162.4,301.006,162.623,301.686,162.851Z"/><g id="Group_17" data-name="Group 17"><path id="Vector_70" data-name="Vector 70" class="cls-10" d="M238.511,197.271a27.521,27.521,0,1,0-27.4-27.521A27.459,27.459,0,0,0,238.511,197.271Z"/><path id="Vector_71" data-name="Vector 71" class="cls-6" d="M238.737,184.611a15.618,15.618,0,1,0-15.549-15.618A15.583,15.583,0,0,0,238.737,184.611Z"/><path id="Vector_72" data-name="Vector 72" class="cls-11" d="M238.738,181.881a12.889,12.889,0,1,0-12.832-12.889A12.861,12.861,0,0,0,238.738,181.881Z"/><path id="Vector_73" data-name="Vector 73" class="cls-13" d="M238.738,156.112A12.849,12.849,0,0,0,225.906,169h25.587A12.736,12.736,0,0,0,238.738,156.112Z"/><path id="Vector_74" data-name="Vector 74" class="cls-8" d="M238.737,174.527a5.535,5.535,0,1,0-5.509-5.535A5.523,5.523,0,0,0,238.737,174.527Z"/></g><g id="Group_18" data-name="Group 18"><path id="Vector_75" data-name="Vector 75" class="cls-10" d="M385.692,197.574a16.983,16.983,0,1,0-16.907-16.983A16.945,16.945,0,0,0,385.692,197.574Z"/><path id="Vector_76" data-name="Vector 76" class="cls-6" d="M386.372,189.765a9.629,9.629,0,1,0-9.586-9.629A9.608,9.608,0,0,0,386.372,189.765Z"/><path id="Vector_77" data-name="Vector 77" class="cls-11" d="M386.371,188.1a7.961,7.961,0,1,0-7.925-7.961A7.944,7.944,0,0,0,386.371,188.1Z"/><path id="Vector_78" data-name="Vector 78" class="cls-13" d="M386.371,172.04a7.942,7.942,0,0,0-7.925,7.96h15.775A7.926,7.926,0,0,0,386.371,172.04Z"/><path id="Vector_79" data-name="Vector 79" class="cls-8" d="M386.371,183.548a3.412,3.412,0,1,0-3.4-3.412A3.4,3.4,0,0,0,386.371,183.548Z"/></g><path id="Vector_80" data-name="Vector 80" class="cls-8" d="M283.948,181.956a9.856,9.856,0,1,0-9.812-9.856A9.834,9.834,0,0,0,283.948,181.956Z"/><path id="Vector_81" data-name="Vector 81" class="cls-3" d="M116.614,180.06a5.61,5.61,0,1,0-5.586-5.61A5.6,5.6,0,0,0,116.614,180.06Z"/><path id="Vector_82" data-name="Vector 82" class="cls-7" d="M125.9,180.06a5.61,5.61,0,1,0-5.585-5.61A5.6,5.6,0,0,0,125.9,180.06Z"/><g id="Group_19" data-name="Group 19"><path id="Vector_83" data-name="Vector 83" class="cls-10" d="M130.426,180.06a5.61,5.61,0,1,0-5.585-5.61A5.6,5.6,0,0,0,130.426,180.06Z"/><g id="Group_20" data-name="Group 20"><path id="Vector_84" data-name="Vector 84" class="cls-11" d="M129,175.114V172.99c0-.136.068-.274.068-.411.068-.136.068-.274.136-.41a.685.685,0,0,1,.273-.343,1.415,1.415,0,0,1,.409-.274,1.5,1.5,0,0,1,.614-.069,1.679,1.679,0,0,1,.614.069c.136.068.34.137.409.274a1.189,1.189,0,0,1,.272.343.961.961,0,0,1,.136.41.865.865,0,0,1,.069.411v2.466c0,.136-.069.274-.069.411-.067.136-.067.274-.136.41a.678.678,0,0,1-.272.343,1.415,1.415,0,0,1-.409.274,1.5,1.5,0,0,1-.614.069,1.674,1.674,0,0,1-.614-.069.628.628,0,0,1-.409-.274,1.212,1.212,0,0,1-.273-.343.974.974,0,0,1-.136-.41.877.877,0,0,1-.068-.411Zm3,.095v-2.5c-.517-.076-.593-.228-.593-.3s-.075-.151-.151-.227-.151-.152-.226-.152a.571.571,0,0,0-.378-.075,1.085,1.085,0,0,0-.528.151.762.762,0,0,0-.3.379c-.075.152.178.455.178.455v2.881c-.253.076-.178.228-.178.3s.076.152.151.228.151.151.226.151a3.286,3.286,0,0,0,.378.076.561.561,0,0,0,.377-.076c.076-.075.151-.075.227-.151s.151-.152.151-.228.668-.3.668-.3v-.606Z"/></g></g><path id="Vector_85" data-name="Vector 85" class="cls-4" d="M26.082,178.426A5.442,5.442,0,0,0,20.977,173H5.735a5.5,5.5,0,0,0,0,11H20.977A5.629,5.629,0,0,0,26.082,178.426Z"/><path id="Vector_86" data-name="Vector 86" class="cls-4" d="M32.531,160.728a5.61,5.61,0,1,0-5.586-5.61A5.6,5.6,0,0,0,32.531,160.728Z"/><path id="Vector_87" data-name="Vector 87" class="cls-13" d="M313,157.846v-.682c-6.416.531-3.774.379-11.7.152a15.478,15.478,0,0,0-2.642.909,19.935,19.935,0,0,0-1.962,1.593c-.151.227-.378.227-.378.379-.151.151-.377.151-.377.379a14.036,14.036,0,0,0-1.585,2.123c3.4.909,6.566,1.743,9.586,2.5A29.378,29.378,0,0,1,313,157.846Z"/></g></g></g></svg>