<svg width="450" height="200" viewBox="0 0 450 200" fill="none" xmlns="http://www.w3.org/2000/svg">
<g id="hero-race-car" clip-path="url(#clip0)">
<g id="Group">
<path id="Vector" opacity="0.6" d="M187.793 166.641C187.793 163.684 185.443 161.258 182.562 161.106C182.562 161.106 182.486 161.106 182.335 161.106H182.259H182.183C179.681 161.106 166.944 161.106 166.944 161.106C163.836 161.106 161.334 163.608 161.334 166.717C161.334 169.825 163.836 172.327 166.944 172.327C166.944 172.327 179.681 172.327 182.183 172.327H182.259H182.335C182.486 172.327 182.562 172.327 182.562 172.327C185.519 172.024 187.793 169.598 187.793 166.641Z" fill="#B7D9F2"/>
<path id="Vector_2" opacity="0.7" d="M174.3 150.417H47.3857C44.2773 150.417 41.7754 152.919 41.7754 156.027C41.7754 159.136 44.2773 161.638 47.3857 161.638H174.3V150.417Z" fill="#E2F0FA"/>
<path id="Vector_3" d="M173.923 161.562C177.021 161.562 179.533 159.051 179.533 155.952C179.533 152.854 177.021 150.342 173.923 150.342C170.824 150.342 168.312 152.854 168.312 155.952C168.312 159.051 170.824 161.562 173.923 161.562Z" fill="#FF9F2B"/>
<path id="Vector_4" opacity="0.7" d="M156.483 172.783H89.2353C86.1269 172.783 83.625 175.285 83.625 178.394C83.625 181.502 86.1269 184.004 89.2353 184.004H156.483V172.783Z" fill="#E2F0FA"/>
<path id="Vector_5" d="M156.181 184.004C159.279 184.004 161.791 181.492 161.791 178.394C161.791 175.295 159.279 172.783 156.181 172.783C153.082 172.783 150.57 175.295 150.57 178.394C150.57 181.492 153.082 184.004 156.181 184.004Z" fill="#89BFE9"/>
<path id="Vector_6" d="M167.325 184.004C170.424 184.004 172.936 181.492 172.936 178.394C172.936 175.295 170.424 172.783 167.325 172.783C164.227 172.783 161.715 175.295 161.715 178.394C161.715 181.492 164.227 184.004 167.325 184.004Z" fill="#C6E0F5"/>
<path id="Vector_7" d="M174.147 184.004C177.246 184.004 179.758 181.492 179.758 178.394C179.758 175.295 177.246 172.783 174.147 172.783C171.049 172.783 168.537 175.295 168.537 178.394C168.537 181.492 171.049 184.004 174.147 184.004Z" fill="#A9D1EF"/>
<path id="Vector_8" d="M183.395 172.253C186.494 172.253 189.006 169.741 189.006 166.643C189.006 163.544 186.494 161.032 183.395 161.032C180.297 161.032 177.785 163.544 177.785 166.643C177.785 169.741 180.297 172.253 183.395 172.253Z" fill="#459BDD"/>
<path id="Vector_9" opacity="0.6" d="M159.29 161.561C159.29 158.604 156.939 156.178 154.058 156.026C154.058 156.026 153.983 156.026 153.831 156.026H153.755H153.679C151.177 156.026 138.44 156.026 138.44 156.026C135.332 156.026 132.83 158.528 132.83 161.637C132.83 164.745 135.332 167.247 138.44 167.247C138.44 167.247 151.177 167.247 153.679 167.247H153.755H153.831C153.983 167.247 154.058 167.247 154.058 167.247C156.939 166.944 159.29 164.518 159.29 161.561Z" fill="#B7D9F2"/>
<path id="Vector_10" opacity="0.7" d="M160.575 167.173C163.674 167.173 166.186 164.661 166.186 161.562C166.186 158.464 163.674 155.952 160.575 155.952C157.477 155.952 154.965 158.464 154.965 161.562C154.965 164.661 157.477 167.173 160.575 167.173Z" fill="#89BFE9"/>
<path id="Vector_11" d="M163.987 167.173C167.086 167.173 169.598 164.661 169.598 161.562C169.598 158.464 167.086 155.952 163.987 155.952C160.889 155.952 158.377 158.464 158.377 161.562C158.377 164.661 160.889 167.173 163.987 167.173Z" fill="#459BDD"/>
<g id="Group_2">
<path id="Vector_12" d="M174.601 158.833H173.767V153.602L172.857 154.208V153.374L173.767 152.768H174.601V158.833Z" fill="white"/>
</g>
<g id="Group_3">
<path id="Vector_13" d="M162.32 162.472V160.501C162.32 160.349 162.32 160.274 162.32 160.122C162.32 159.97 162.396 159.819 162.396 159.667C162.472 159.516 162.472 159.364 162.548 159.212C162.624 159.061 162.699 158.909 162.851 158.833C163.003 158.682 163.154 158.606 163.306 158.53C163.458 158.454 163.685 158.454 163.988 158.454C164.216 158.454 164.443 158.454 164.671 158.53C164.822 158.606 165.05 158.682 165.125 158.833C165.277 158.985 165.353 159.061 165.429 159.212C165.505 159.364 165.58 159.516 165.58 159.667C165.656 159.819 165.656 159.97 165.656 160.122C165.656 160.274 165.656 160.425 165.656 160.501V162.472C165.656 162.624 165.656 162.7 165.656 162.851C165.656 163.003 165.58 163.155 165.58 163.306C165.505 163.458 165.505 163.61 165.429 163.761C165.353 163.913 165.277 164.064 165.125 164.14C164.974 164.292 164.822 164.368 164.671 164.444C164.519 164.519 164.292 164.519 163.988 164.519C163.761 164.519 163.533 164.519 163.306 164.444C163.078 164.368 162.927 164.292 162.851 164.14C162.699 163.989 162.624 163.913 162.548 163.761C162.472 163.61 162.396 163.458 162.396 163.306C162.32 163.155 162.32 163.003 162.32 162.851C162.32 162.776 162.32 162.624 162.32 162.472ZM165.05 162.472V160.501C165.05 160.425 165.05 160.349 165.05 160.274C165.05 160.198 165.05 160.046 165.05 159.97C165.05 159.895 164.974 159.743 164.974 159.667C164.974 159.591 164.898 159.516 164.822 159.44C164.746 159.364 164.671 159.288 164.595 159.288C164.519 159.212 164.367 159.212 164.216 159.212C163.988 159.212 163.837 159.288 163.685 159.364C163.533 159.44 163.458 159.591 163.382 159.743C163.306 159.895 163.306 160.046 163.306 160.198C163.306 160.349 163.306 160.501 163.306 160.577V162.548C163.306 162.624 163.306 162.7 163.306 162.776C163.306 162.851 163.306 163.003 163.306 163.079C163.306 163.155 163.382 163.306 163.382 163.382C163.382 163.458 163.458 163.534 163.533 163.61C163.609 163.685 163.685 163.761 163.761 163.761C163.837 163.837 163.988 163.837 164.14 163.837C164.291 163.837 164.443 163.837 164.519 163.761C164.595 163.685 164.671 163.685 164.746 163.61C164.822 163.534 164.898 163.458 164.898 163.382C164.898 163.306 164.974 163.155 164.974 163.079C164.974 163.003 164.974 162.851 164.974 162.776C164.974 162.7 165.05 162.548 165.05 162.472Z" fill="white"/>
</g>
<g id="Group_4">
<path id="Vector_14" d="M154.436 179.303V177.332C154.436 177.181 154.436 177.105 154.436 176.953C154.436 176.801 154.511 176.65 154.511 176.498C154.587 176.347 154.587 176.195 154.663 176.043C154.739 175.892 154.815 175.74 154.966 175.664C155.118 175.588 155.27 175.437 155.421 175.361C155.573 175.285 155.8 175.285 156.103 175.285C156.331 175.285 156.558 175.285 156.786 175.361C156.937 175.437 157.165 175.513 157.241 175.664C157.317 175.816 157.468 175.892 157.544 176.043C157.62 176.195 157.696 176.347 157.696 176.498C157.771 176.65 157.771 176.801 157.771 176.953C157.771 177.105 157.771 177.256 157.771 177.332V179.303C157.771 179.455 157.771 179.531 157.771 179.682C157.771 179.834 157.696 179.986 157.696 180.137C157.62 180.289 157.62 180.441 157.544 180.592C157.468 180.744 157.392 180.895 157.241 180.971C157.089 181.123 156.937 181.199 156.786 181.275C156.634 181.35 156.407 181.35 156.103 181.35C155.876 181.35 155.649 181.35 155.421 181.275C155.194 181.199 155.042 181.123 154.966 180.971C154.815 180.82 154.739 180.744 154.663 180.592C154.587 180.441 154.511 180.289 154.511 180.137C154.436 179.986 154.436 179.834 154.436 179.682C154.436 179.531 154.436 179.455 154.436 179.303ZM157.089 179.303V177.332C157.089 177.256 157.089 177.181 157.089 177.105C157.089 177.029 157.089 176.877 157.089 176.801C157.089 176.726 157.013 176.574 157.013 176.498C157.013 176.422 156.937 176.347 156.862 176.271C156.786 176.195 156.71 176.119 156.634 176.119C156.558 176.043 156.407 176.043 156.255 176.043C156.028 176.043 155.876 176.119 155.724 176.195C155.573 176.271 155.497 176.422 155.421 176.574C155.345 176.726 155.345 176.877 155.345 177.029C155.345 177.181 155.345 177.332 155.345 177.408V179.379C155.345 179.455 155.345 179.531 155.345 179.607C155.345 179.682 155.345 179.834 155.345 179.91C155.345 179.986 155.421 180.137 155.421 180.213C155.421 180.289 155.497 180.365 155.573 180.441C155.649 180.516 155.724 180.592 155.8 180.592C155.876 180.668 156.028 180.668 156.179 180.668C156.331 180.668 156.483 180.668 156.558 180.592C156.634 180.516 156.71 180.516 156.786 180.441C156.862 180.365 156.937 180.289 156.937 180.213C156.937 180.137 157.013 179.986 157.013 179.91C157.013 179.834 157.013 179.682 157.013 179.607C157.089 179.455 157.089 179.379 157.089 179.303Z" fill="white"/>
</g>
<g id="Group_5">
<path id="Vector_15" d="M177.786 183.928C180.885 183.928 183.396 181.416 183.396 178.317C183.396 175.219 180.885 172.707 177.786 172.707C174.688 172.707 172.176 175.219 172.176 178.317C172.176 181.416 174.688 183.928 177.786 183.928Z" fill="#FF9F2B"/>
<g id="Group_6">
<path id="Vector_16" d="M176.27 179.075V177.104C176.27 176.952 176.27 176.876 176.27 176.725C176.27 176.573 176.345 176.421 176.345 176.27C176.421 176.118 176.421 175.966 176.497 175.815C176.573 175.663 176.649 175.512 176.8 175.436C176.952 175.284 177.104 175.208 177.255 175.132C177.407 175.057 177.634 175.057 177.937 175.057C178.165 175.057 178.392 175.057 178.62 175.132C178.771 175.208 178.999 175.284 179.075 175.436C179.226 175.587 179.302 175.663 179.378 175.815C179.454 175.966 179.53 176.118 179.53 176.27C179.605 176.421 179.605 176.573 179.605 176.725C179.605 176.876 179.605 177.028 179.605 177.104V179.075C179.605 179.226 179.605 179.302 179.605 179.454C179.605 179.606 179.53 179.757 179.53 179.909C179.454 180.06 179.454 180.212 179.378 180.364C179.302 180.515 179.226 180.667 179.075 180.743C178.923 180.894 178.771 180.97 178.62 181.046C178.468 181.122 178.241 181.122 177.937 181.122C177.71 181.122 177.483 181.122 177.255 181.046C177.028 180.97 176.876 180.894 176.8 180.743C176.649 180.591 176.573 180.515 176.497 180.364C176.421 180.212 176.345 180.06 176.345 179.909C176.27 179.757 176.27 179.606 176.27 179.454C176.27 179.378 176.27 179.226 176.27 179.075ZM178.923 179.075V177.104C178.923 177.028 178.923 176.952 178.923 176.876C178.923 176.8 178.923 176.649 178.923 176.573C178.923 176.497 178.847 176.346 178.847 176.27C178.847 176.194 178.771 176.118 178.696 176.042C178.62 175.966 178.544 175.891 178.468 175.891C178.392 175.815 178.241 175.815 178.089 175.815C177.862 175.815 177.71 175.891 177.558 175.966C177.407 176.042 177.331 176.194 177.255 176.346C177.179 176.497 177.179 176.649 177.179 176.8C177.179 176.952 177.179 177.104 177.179 177.179V179.151C177.179 179.226 177.179 179.302 177.179 179.378C177.179 179.454 177.179 179.606 177.179 179.681C177.179 179.757 177.255 179.909 177.255 179.985C177.255 180.06 177.331 180.136 177.407 180.212C177.483 180.288 177.558 180.364 177.634 180.364C177.71 180.44 177.862 180.44 178.013 180.44C178.165 180.44 178.317 180.44 178.392 180.364C178.468 180.288 178.544 180.288 178.62 180.212C178.696 180.136 178.771 180.06 178.771 179.985C178.771 179.909 178.847 179.757 178.847 179.681C178.847 179.606 178.847 179.454 178.847 179.378C178.923 179.302 178.923 179.151 178.923 179.075Z" fill="white"/>
</g>
</g>
<path id="Vector_17" opacity="0.6" d="M148.899 170.13C148.899 167.173 146.549 164.747 143.668 164.596C143.668 164.596 143.592 164.596 143.44 164.596H143.364H143.289C140.787 164.596 128.05 164.596 128.05 164.596C124.941 164.596 122.439 167.098 122.439 170.206C122.439 173.314 124.941 175.816 128.05 175.816C128.05 175.816 140.787 175.816 143.289 175.816H143.364H143.44C143.592 175.816 143.668 175.816 143.668 175.816C146.624 175.513 148.899 173.087 148.899 170.13Z" fill="#B7D9F2"/>
<path id="Vector_18" opacity="0.5" d="M110.766 165.126C110.766 162.17 108.416 159.743 105.535 159.592C105.535 159.592 105.459 159.592 105.308 159.592H105.232H105.156C100.986 159.592 16.0732 159.592 16.0732 159.592C12.9648 159.592 10.4629 162.094 10.4629 165.202C10.4629 168.311 12.9648 170.812 16.0732 170.812C16.0732 170.812 100.986 170.812 105.156 170.812H105.232H105.308C105.459 170.812 105.535 170.812 105.535 170.812C108.416 170.509 110.766 168.083 110.766 165.126Z" fill="#B7D9F2"/>
<path id="Vector_19" d="M144.124 160.728C147.223 160.728 149.734 158.217 149.734 155.118C149.734 152.02 147.223 149.508 144.124 149.508C141.026 149.508 138.514 152.02 138.514 155.118C138.514 158.217 141.026 160.728 144.124 160.728Z" fill="#459BDD"/>
<path id="Vector_20" d="M112.966 160.577C116.064 160.577 118.576 158.065 118.576 154.967C118.576 151.868 116.064 149.356 112.966 149.356C109.867 149.356 107.355 151.868 107.355 154.967C107.355 158.065 109.867 160.577 112.966 160.577Z" fill="#89BFE9"/>
<g id="Group_7">
<path id="Vector_21" d="M144.806 158H143.972V152.769L143.062 153.375V152.541L143.972 151.935H144.806V158Z" fill="white"/>
</g>
<g id="Group_8">
<path id="Vector_22" d="M111.373 155.647V153.676C111.373 153.524 111.373 153.448 111.373 153.297C111.373 153.145 111.449 152.994 111.449 152.842C111.525 152.69 111.525 152.539 111.6 152.387C111.676 152.235 111.752 152.084 111.904 152.008C112.055 151.932 112.207 151.781 112.359 151.705C112.51 151.629 112.738 151.629 113.041 151.629C113.344 151.629 113.496 151.629 113.723 151.705C113.875 151.781 114.102 151.856 114.178 152.008C114.254 152.16 114.406 152.235 114.481 152.387C114.557 152.539 114.633 152.69 114.633 152.842C114.709 152.994 114.709 153.145 114.709 153.297C114.709 153.448 114.709 153.6 114.709 153.676V155.647C114.709 155.799 114.709 155.875 114.709 156.026C114.709 156.178 114.633 156.329 114.633 156.481C114.557 156.633 114.557 156.784 114.481 156.936C114.406 157.088 114.33 157.239 114.178 157.315C114.027 157.467 113.875 157.542 113.723 157.618C113.572 157.694 113.344 157.694 113.041 157.694C112.738 157.694 112.586 157.694 112.359 157.618C112.131 157.542 111.98 157.467 111.904 157.315C111.752 157.163 111.676 157.088 111.6 156.936C111.525 156.784 111.449 156.633 111.449 156.481C111.373 156.329 111.373 156.178 111.373 156.026C111.373 155.95 111.373 155.799 111.373 155.647ZM114.027 155.647V153.676C114.027 153.6 114.027 153.524 114.027 153.448C114.027 153.373 114.027 153.221 114.027 153.145C114.027 153.069 113.951 152.918 113.951 152.842C113.951 152.766 113.875 152.69 113.799 152.615C113.723 152.539 113.648 152.463 113.572 152.463C113.496 152.387 113.344 152.387 113.193 152.387C112.965 152.387 112.814 152.463 112.662 152.539C112.51 152.615 112.434 152.766 112.359 152.918C112.283 153.069 112.283 153.221 112.283 153.373C112.283 153.524 112.283 153.676 112.283 153.752V155.723C112.283 155.799 112.283 155.875 112.283 155.95C112.283 156.026 112.283 156.178 112.283 156.254C112.283 156.329 112.359 156.481 112.359 156.557C112.359 156.633 112.434 156.709 112.51 156.784C112.586 156.86 112.662 156.936 112.738 156.936C112.814 156.936 112.965 157.012 113.117 157.012C113.268 157.012 113.42 157.012 113.496 156.936C113.572 156.86 113.648 156.86 113.723 156.784C113.799 156.709 113.875 156.633 113.875 156.557C113.875 156.481 113.951 156.329 113.951 156.254C113.951 156.178 113.951 156.026 113.951 155.95C114.027 155.875 114.027 155.723 114.027 155.647Z" fill="white"/>
</g>
<g id="Group_9">
<path id="Vector_23" d="M55.5713 160.349C58.6698 160.349 61.1816 157.837 61.1816 154.738C61.1816 151.64 58.6698 149.128 55.5713 149.128C52.4728 149.128 49.9609 151.64 49.9609 154.738C49.9609 157.837 52.4728 160.349 55.5713 160.349Z" fill="#FF9F2B"/>
<g id="Group_10">
<path id="Vector_24" d="M53.9043 155.799V153.828C53.9043 153.677 53.9043 153.601 53.9043 153.449C53.9043 153.298 53.9801 153.146 53.9801 152.994C54.0559 152.843 54.0559 152.691 54.1317 152.539C54.2076 152.388 54.2834 152.236 54.435 152.16C54.5866 152.009 54.7383 151.933 54.8899 151.857C55.0415 151.781 55.269 151.781 55.5722 151.781C55.8755 151.781 56.0271 151.781 56.2546 151.857C56.4062 151.933 56.6337 152.009 56.7095 152.16C56.8611 152.312 56.9369 152.388 57.0127 152.539C57.0885 152.691 57.1644 152.843 57.1644 152.994C57.2402 153.146 57.2402 153.298 57.2402 153.449C57.2402 153.601 57.2402 153.752 57.2402 153.828V155.799C57.2402 155.951 57.2402 156.027 57.2402 156.179C57.2402 156.33 57.1644 156.482 57.1644 156.633C57.0885 156.785 57.0885 156.937 57.0127 157.088C56.9369 157.24 56.8611 157.392 56.7095 157.467C56.5578 157.619 56.4062 157.695 56.2546 157.771C56.1029 157.846 55.8755 157.846 55.5722 157.846C55.269 157.846 55.1173 157.846 54.8899 157.771C54.7383 157.695 54.5108 157.619 54.435 157.467C54.2834 157.316 54.2076 157.24 54.1317 157.088C54.0559 156.937 53.9801 156.785 53.9801 156.633C53.9043 156.482 53.9043 156.33 53.9043 156.179C53.9801 156.027 53.9043 155.875 53.9043 155.799ZM56.6336 155.799V153.828C56.6336 153.752 56.6336 153.677 56.6336 153.601C56.6336 153.525 56.6336 153.373 56.6336 153.298C56.6336 153.222 56.5578 153.07 56.5578 152.994C56.5578 152.918 56.482 152.843 56.4062 152.767C56.3304 152.691 56.2546 152.615 56.1788 152.615C56.1029 152.539 55.9513 152.539 55.7997 152.539C55.5722 152.539 55.4206 152.615 55.269 152.691C55.1173 152.767 55.0415 152.918 54.9657 153.07C54.8899 153.222 54.8899 153.373 54.8899 153.525C54.8899 153.677 54.8899 153.828 54.8899 153.904V155.875C54.8899 155.951 54.8899 156.027 54.8899 156.103C54.8899 156.179 54.8899 156.33 54.8899 156.406C54.8899 156.482 54.9657 156.633 54.9657 156.709C54.9657 156.785 55.0415 156.861 55.1173 156.937C55.1932 157.013 55.269 157.088 55.3448 157.088C55.4206 157.088 55.5722 157.164 55.7239 157.164C55.8755 157.164 56.0271 157.164 56.1029 157.088C56.1788 157.013 56.2546 157.013 56.3304 156.937C56.4062 156.861 56.482 156.785 56.482 156.709C56.482 156.633 56.5578 156.482 56.5578 156.406C56.5578 156.33 56.5578 156.179 56.5578 156.103C56.6336 155.951 56.6336 155.875 56.6336 155.799Z" fill="white"/>
</g>
</g>
<g id="Group_11" opacity="0.5">
<path id="Vector_25" opacity="0.5" d="M58.6787 176.649C61.7772 176.649 64.289 174.138 64.289 171.039C64.289 167.941 61.7772 165.429 58.6787 165.429C55.5802 165.429 53.0684 167.941 53.0684 171.039C53.0684 174.138 55.5802 176.649 58.6787 176.649Z" fill="#B3DAF4"/>
<path id="Vector_26" opacity="0.7" d="M65.5791 176.649C68.6776 176.649 71.1894 174.138 71.1894 171.039C71.1894 167.941 68.6776 165.429 65.5791 165.429C62.4806 165.429 59.9688 167.941 59.9688 171.039C59.9688 174.138 62.4806 176.649 65.5791 176.649Z" fill="#89BFE9"/>
</g>
<g id="Group_12">
<path id="Vector_27" d="M73.6904 176.65C76.7889 176.65 79.3007 174.139 79.3007 171.04C79.3007 167.942 76.7889 165.43 73.6904 165.43C70.5919 165.43 68.0801 167.942 68.0801 171.04C68.0801 174.139 70.5919 176.65 73.6904 176.65Z" fill="#FF9F2B"/>
<g id="Group_13">
<path id="Vector_28" d="M74.2965 173.922H73.4625V168.69L72.5527 169.297V168.463L73.4625 167.856H74.2965V173.922Z" fill="white"/>
</g>
</g>
<g id="Group_14">
<path id="Vector_29" d="M101.06 184.155C104.158 184.155 106.67 181.643 106.67 178.545C106.67 175.446 104.158 172.935 101.06 172.935C97.961 172.935 95.4492 175.446 95.4492 178.545C95.4492 181.643 97.961 184.155 101.06 184.155Z" fill="#89BFE9"/>
<g id="Group_15">
<path id="Vector_30" d="M101.818 181.804H100.984V176.573L100.074 177.18V176.346L100.984 175.739H101.818V181.804Z" fill="white"/>
</g>
</g>
<path id="Vector_31" d="M359.437 158.529L348.747 142.987C348.747 142.987 335.252 152.616 316.071 167.021C306.064 174.526 353.675 174.754 359.058 170.508C364.441 166.338 359.437 158.529 359.437 158.529Z" fill="#9BC9ED"/>
<path id="Vector_32" d="M359.896 169.902C360.199 169.75 359.441 158.605 359.441 158.605L348.751 142.987C348.751 142.987 348.069 143.518 344.051 146.399L359.896 169.902Z" fill="#C6E0F5"/>
<path id="Vector_33" d="M306.295 153.602H313.876V159.667H306.295V153.602Z" fill="#B2B2B2"/>
<path id="Vector_34" d="M315.239 167.249C315.239 164.216 314.86 161.032 314.556 157.09C308.112 157.621 310.766 157.469 302.805 157.241C299.772 157.772 297.498 159.895 295.83 162.624C303.184 164.596 309.932 166.188 315.239 167.249Z" fill="#505050"/>
<path id="Vector_35" d="M314.635 157.847V157.165C308.19 157.696 310.844 157.544 302.883 157.317C301.973 157.544 301.064 157.847 300.23 158.226C299.547 158.681 298.865 159.288 298.258 159.819C298.107 160.046 297.879 160.046 297.879 160.198C297.728 160.349 297.5 160.349 297.5 160.577C296.894 161.259 296.363 161.941 295.908 162.7C299.32 163.609 302.504 164.443 305.537 165.201C308.039 162.169 311.147 159.667 314.635 157.847Z" fill="#737373"/>
<path id="Vector_36" d="M318.423 142.153V142.305C318.423 143.594 318.423 144.958 318.271 146.247C318.574 147.46 318.954 148.598 319.484 149.659C319.484 150.038 320.015 150.72 318.044 150.569L316.982 155.573C316.982 155.573 316.831 156.255 315.239 155.952C313.647 155.648 309.325 154.36 307.43 151.858C308.339 142.077 310.083 140.485 310.083 140.485L318.12 140.637L318.423 142.153Z" fill="#B2B2B2"/>
<path id="Vector_37" d="M315.845 148.22C316.148 148.22 316.376 147.992 316.376 147.689C316.376 147.31 316.224 147.007 315.845 147.007C315.466 147.007 315.314 147.386 315.314 147.689C315.314 147.992 315.542 148.22 315.845 148.22Z" fill="#505050"/>
<path id="Vector_38" d="M315.088 152.087C315.694 152.693 316.604 153.148 317.438 153.3C317.514 152.921 317.666 152.542 317.666 152.087H315.088Z" fill="#F3F3F3"/>
<path id="Vector_39" d="M315.24 144.124C315.24 144.124 311.298 146.247 311.525 149.81C311.374 144.276 309.402 144.276 309.402 144.276L315.24 144.124Z" fill="#737373"/>
<path id="Vector_40" d="M320.697 142.229C319.636 136.467 314.404 131.615 308.112 131.615C300.985 131.539 295.223 137.301 295.147 144.428C295.071 151.554 300.833 157.316 307.96 157.392C308.036 157.392 308.112 157.392 308.187 157.392H308.946C311.827 156.482 311.675 150.948 311.675 150.948V142.608L320.697 142.229Z" fill="#1070C4"/>
<path id="Vector_41" d="M310.086 142.38V144.503L320.852 144.351L319.866 142.229L310.086 142.38Z" fill="#505050"/>
<path id="Vector_42" d="M308.493 133.056C308.341 132.904 308.114 132.904 307.886 132.904C301.67 132.828 296.514 137.908 296.438 144.125C296.363 150.342 301.442 155.497 307.659 155.573C307.735 155.573 307.811 155.573 307.811 155.573C308.038 155.573 308.265 155.497 308.417 155.421C302.276 154.815 297.727 149.356 298.334 143.139C298.94 137.832 303.186 133.586 308.493 133.056Z" fill="#459BDD"/>
<path id="Vector_43" d="M449.054 200H66.1869C64.519 199.924 63.2301 198.635 63.1543 196.967C63.1543 195.299 64.519 193.935 66.1869 193.935H449.054C450.722 193.935 452.01 195.223 452.086 196.891V196.967C452.01 198.635 450.722 200 449.054 200Z" fill="#B2B2B2"/>
<path id="Vector_44" d="M57.3908 200H42.6068C40.9389 199.924 39.65 198.635 39.5742 196.967C39.5742 195.299 40.9389 193.935 42.6068 193.935H57.3908C59.6652 193.935 60.4234 195.83 60.4234 196.967C60.4234 198.635 59.0587 200 57.3908 200Z" fill="#D2D2D2"/>
<path id="Vector_45" d="M29.3399 200H19.9389C18.2709 199.924 16.9821 198.635 16.9062 196.967C16.9062 195.299 18.2709 193.935 19.9389 193.935H29.4158C31.6902 193.935 32.4484 195.83 32.4484 196.967C32.3725 198.635 31.0079 200 29.3399 200Z" fill="#E6E6E6"/>
<path id="Vector_46" d="M117.741 117.742C124.943 117.742 130.782 111.903 130.782 104.701C130.782 97.4994 124.943 91.6611 117.741 91.6611C110.539 91.6611 104.701 97.4994 104.701 104.701C104.701 111.903 110.539 117.742 117.741 117.742Z" fill="#F1F7FC"/>
<path id="Vector_47" d="M132.905 117.742C140.107 117.742 145.946 111.903 145.946 104.701C145.946 97.4994 140.107 91.6611 132.905 91.6611C125.704 91.6611 119.865 97.4994 119.865 104.701C119.865 111.903 125.704 117.742 132.905 117.742Z" fill="#D4E8F7"/>
<path id="Vector_48" d="M231.541 68.6883C227.296 68.6883 223.353 69.7497 219.942 71.6451C216.682 64.9734 209.782 60.3486 201.822 60.3486C190.677 60.3486 181.655 69.3706 181.655 80.5155C181.655 81.4253 181.731 82.2592 181.807 83.169C181.2 83.0174 180.518 82.9416 179.835 82.9416C174.832 82.9416 170.813 86.9598 170.813 91.9636C170.813 92.1152 170.813 92.3426 170.813 92.4943C169.373 91.9636 167.857 91.6603 166.189 91.6603C158.986 91.6603 153.148 97.4981 153.148 104.701C153.148 111.903 158.986 117.741 166.189 117.741H231.466C245.036 117.741 256.03 106.748 256.03 93.1766C256.105 79.6815 245.112 68.6883 231.541 68.6883Z" fill="#D4E8F7"/>
<path id="Vector_49" d="M408.339 88.0967C411.145 88.0967 413.419 85.8225 413.419 83.0171C413.419 80.2117 411.145 77.9375 408.339 77.9375C405.534 77.9375 403.26 80.2117 403.26 83.0171C403.26 85.8225 405.534 88.0967 408.339 88.0967Z" fill="#E2F0FA"/>
<path id="Vector_50" d="M389.388 88.0967C392.194 88.0967 394.468 85.8225 394.468 83.0171C394.468 80.2117 392.194 77.9375 389.388 77.9375C386.583 77.9375 384.309 80.2117 384.309 83.0171C384.309 85.8225 386.583 88.0967 389.388 88.0967Z" fill="#D4E8F7"/>
<path id="Vector_51" d="M381.805 77.9383C381.122 77.9383 380.44 78.09 379.833 78.3174C380.516 76.9527 380.819 75.4364 380.819 73.8443C380.819 68.0824 376.194 63.4576 370.432 63.4576C369.371 63.4576 368.385 63.6093 367.4 63.9125C365.429 58.0748 359.894 53.8291 353.298 53.8291C346.02 53.8291 339.879 59.0604 338.59 65.9595C338.059 65.8079 337.453 65.7321 336.846 65.7321C334.269 65.7321 331.994 67.0968 330.781 69.1438C328.886 67.4758 326.384 66.4144 323.654 66.4144C317.665 66.4144 312.889 71.2666 312.889 77.1802C312.889 83.0938 317.741 87.9459 323.654 87.9459H381.88C384.686 87.9459 386.96 85.6715 386.96 82.8663C386.884 80.2128 384.61 77.9383 381.805 77.9383Z" fill="#E2F0FA"/>
<path id="Vector_52" d="M52.7671 34.2686C55.5725 34.2686 57.8467 31.9944 57.8467 29.189C57.8467 26.3836 55.5725 24.1094 52.7671 24.1094C49.9617 24.1094 47.6875 26.3836 47.6875 29.189C47.6875 31.9944 49.9617 34.2686 52.7671 34.2686Z" fill="#F1F7FC"/>
<path id="Vector_53" d="M79.3023 24.1092C79.9846 24.1092 80.6669 24.2609 81.2735 24.4883C80.5911 23.1236 80.2879 21.6073 80.2879 20.0152C80.2879 14.2533 84.9126 9.62853 90.6745 9.62853C91.736 9.62853 92.7216 9.78016 93.7072 10.0834C95.7542 4.24565 101.289 0 107.885 0C115.163 0 121.304 5.23125 122.593 12.1304C123.123 11.9788 123.73 11.903 124.336 11.903C126.914 11.903 129.189 13.2677 130.402 15.3147C132.297 13.6467 134.799 12.5853 137.528 12.5853C143.518 12.5853 148.294 17.4375 148.294 23.3511C148.294 29.2647 143.442 34.1168 137.528 34.1168H79.3023C76.4971 34.1168 74.2227 31.8424 74.2227 29.0372C74.2227 26.3837 76.4971 24.1092 79.3023 24.1092Z" fill="#E2F0FA"/>
<path id="Vector_54" d="M130.783 34.724C134.719 34.724 137.91 31.5333 137.91 27.5973C137.91 23.6614 134.719 20.4707 130.783 20.4707C126.847 20.4707 123.656 23.6614 123.656 27.5973C123.656 31.5333 126.847 34.724 130.783 34.724Z" fill="#F1F7FC"/>
<path id="Vector_55" opacity="0.6" d="M148.976 34.724C152.912 34.724 156.103 31.5333 156.103 27.5973C156.103 23.6614 152.912 20.4707 148.976 20.4707C145.04 20.4707 141.85 23.6614 141.85 27.5973C141.85 31.5333 145.04 34.724 148.976 34.724Z" fill="#C6E0F5"/>
<path id="Vector_56" d="M71.7202 34.2686C74.5256 34.2686 76.7999 31.9944 76.7999 29.189C76.7999 26.3836 74.5256 24.1094 71.7202 24.1094C68.9148 24.1094 66.6406 26.3836 66.6406 29.189C66.6406 31.9944 68.9148 34.2686 71.7202 34.2686Z" fill="#C6E0F5"/>
<path id="Vector_57" opacity="0.6" d="M258.455 106.446C262.391 106.446 265.581 103.255 265.581 99.319C265.581 95.3831 262.391 92.1924 258.455 92.1924C254.519 92.1924 251.328 95.3831 251.328 99.319C251.328 103.255 254.519 106.446 258.455 106.446Z" fill="#C6E0F5"/>
<path id="Vector_58" d="M241.017 106.446C244.953 106.446 248.144 103.255 248.144 99.319C248.144 95.3831 244.953 92.1924 241.017 92.1924C237.081 92.1924 233.891 95.3831 233.891 99.319C233.891 103.255 237.081 106.446 241.017 106.446Z" fill="#F1F7FC"/>
<path id="Vector_59" d="M276.652 106.446C280.588 106.446 283.779 103.255 283.779 99.319C283.779 95.3831 280.588 92.1924 276.652 92.1924C272.716 92.1924 269.525 95.3831 269.525 99.319C269.525 103.255 272.716 106.446 276.652 106.446Z" fill="#F1F7FC"/>
<path id="Vector_60" opacity="0.6" d="M337.834 91.6599C342.608 91.6599 346.477 87.7903 346.477 83.017C346.477 78.2436 342.608 74.374 337.834 74.374C333.061 74.374 329.191 78.2436 329.191 83.017C329.191 87.7903 333.061 91.6599 337.834 91.6599Z" fill="#C6E0F5"/>
<path id="Vector_61" d="M215.543 173.163L181.502 183.853V149.433L215.543 160.198V173.163Z" fill="#231F20"/>
<path id="Vector_62" d="M215.543 165.278V160.198L181.502 149.433V165.278H215.543Z" fill="#666666"/>
<path id="Vector_63" d="M292.342 137.757C292.342 137.757 270.658 139.88 263.532 153.83C256.405 167.78 291.887 162.624 291.887 162.624L292.342 137.757Z" fill="#FF9F2B"/>
<path id="Vector_64" d="M263.988 160.274C269.674 165.885 291.964 162.625 291.964 162.625L292.267 143.216C280.289 144.808 271.115 149.205 263.988 160.274Z" fill="#F27100"/>
<g id="Group_16">
<path id="Vector_65" d="M292.572 166.263C291.131 166.263 289.994 165.126 289.994 163.685V135.103C289.994 133.663 291.131 132.525 292.572 132.525C294.012 132.525 295.15 133.663 295.15 135.103V163.685C295.15 165.126 293.937 166.263 292.572 166.263Z" fill="#231F20"/>
</g>
<path id="Vector_66" d="M207.049 136.165C207.049 134.8 208.338 133.815 209.627 134.27C223.728 138.894 291.128 160.729 315.237 165.657C342.303 171.116 359.362 158.606 359.362 158.606C359.362 158.606 420.923 178.621 425.776 179.91C430.628 181.199 433.13 191.813 424.79 191.813H211.674C209.172 191.813 207.049 189.766 207.049 187.189V136.165V136.165Z" fill="#459BDD"/>
<path id="Vector_67" d="M426.688 180.137C425.702 179.91 423.504 179.227 418.879 177.711V191.737H424.868C437.075 191.737 433.132 181.805 426.688 180.137Z" fill="#FF9F2B"/>
<path id="Vector_68" d="M207.049 185.595V187.111C207.049 189.613 209.096 191.736 211.674 191.736H424.866C431.689 191.736 433.357 188.627 432.523 185.595H207.049Z" fill="#1070C4"/>
<path id="Vector_69" d="M418.803 185.595V191.736H424.792C431.615 191.736 433.283 188.627 432.449 185.595H418.803Z" fill="#F27100"/>
<path id="Vector_70" d="M303.034 162.852C332.678 171.874 354.891 174.679 376.347 164.065C366.567 160.881 359.365 158.53 359.365 158.53C359.365 158.53 342.306 171.116 315.24 165.581C311.374 164.823 306.37 163.61 300.684 162.094C301.518 162.397 302.352 162.624 303.034 162.852Z" fill="#1070C4"/>
<g id="Group_17">
<path id="Vector_71" d="M238.818 197.27C254.017 197.27 266.339 184.949 266.339 169.749C266.339 154.55 254.017 142.229 238.818 142.229C223.618 142.229 211.297 154.55 211.297 169.749C211.297 184.949 223.618 197.27 238.818 197.27Z" fill="#393939"/>
<path id="Vector_72" d="M239.805 184.61C248.431 184.61 255.423 177.617 255.423 168.992C255.423 160.366 248.431 153.374 239.805 153.374C231.18 153.374 224.188 160.366 224.188 168.992C224.188 177.617 231.18 184.61 239.805 184.61Z" fill="#C2BEBC"/>
<path id="Vector_73" d="M239.803 181.881C246.921 181.881 252.691 176.11 252.691 168.992C252.691 161.874 246.921 156.104 239.803 156.104C232.684 156.104 226.914 161.874 226.914 168.992C226.914 176.11 232.684 181.881 239.803 181.881Z" fill="white"/>
<path id="Vector_74" d="M239.803 156.104C232.676 156.104 226.914 161.865 226.914 168.992H252.615C252.691 161.865 246.929 156.104 239.803 156.104Z" fill="#939393"/>
<path id="Vector_75" d="M239.802 174.526C242.859 174.526 245.337 172.048 245.337 168.992C245.337 165.935 242.859 163.457 239.802 163.457C236.745 163.457 234.268 165.935 234.268 168.992C234.268 172.048 236.745 174.526 239.802 174.526Z" fill="#C2BEBC"/>
</g>
<g id="Group_18">
<path id="Vector_76" d="M387.416 197.574C396.795 197.574 404.399 189.97 404.399 180.591C404.399 171.212 396.795 163.608 387.416 163.608C378.037 163.608 370.434 171.212 370.434 180.591C370.434 189.97 378.037 197.574 387.416 197.574Z" fill="#393939"/>
<path id="Vector_77" d="M388.097 189.765C393.415 189.765 397.726 185.454 397.726 180.136C397.726 174.819 393.415 170.508 388.097 170.508C382.78 170.508 378.469 174.819 378.469 180.136C378.469 185.454 382.78 189.765 388.097 189.765Z" fill="#C2BEBC"/>
<path id="Vector_78" d="M388.097 188.098C392.494 188.098 396.058 184.534 396.058 180.137C396.058 175.741 392.494 172.177 388.097 172.177C383.701 172.177 380.137 175.741 380.137 180.137C380.137 184.534 383.701 188.098 388.097 188.098Z" fill="white"/>
<path id="Vector_79" d="M388.097 172.177C383.7 172.177 380.137 175.74 380.137 180.137H395.982C395.982 175.74 392.419 172.177 388.097 172.177Z" fill="#939393"/>
<path id="Vector_80" d="M388.101 183.549C389.985 183.549 391.513 182.021 391.513 180.137C391.513 178.253 389.985 176.726 388.101 176.726C386.217 176.726 384.689 178.253 384.689 180.137C384.689 182.021 386.217 183.549 388.101 183.549Z" fill="#C2BEBC"/>
</g>
<path id="Vector_81" d="M285.215 181.957C290.659 181.957 295.071 177.544 295.071 172.101C295.071 166.658 290.659 162.245 285.215 162.245C279.772 162.245 275.359 166.658 275.359 172.101C275.359 177.544 279.772 181.957 285.215 181.957Z" fill="#9BC9ED"/>
<path id="Vector_82" opacity="0.6" d="M117.132 180.061C120.23 180.061 122.742 177.55 122.742 174.451C122.742 171.353 120.23 168.841 117.132 168.841C114.033 168.841 111.521 171.353 111.521 174.451C111.521 177.55 114.033 180.061 117.132 180.061Z" fill="#B7D9F2"/>
<path id="Vector_83" d="M126.46 180.061C129.558 180.061 132.07 177.55 132.07 174.451C132.07 171.353 129.558 168.841 126.46 168.841C123.361 168.841 120.85 171.353 120.85 174.451C120.85 177.55 123.361 180.061 126.46 180.061Z" fill="#A9D1EF"/>
<g id="Group_19">
<path id="Vector_84" d="M131.009 180.061C134.107 180.061 136.619 177.55 136.619 174.451C136.619 171.353 134.107 168.841 131.009 168.841C127.91 168.841 125.398 171.353 125.398 174.451C125.398 177.55 127.91 180.061 131.009 180.061Z" fill="#FF9F2B"/>
<g id="Group_20">
<path id="Vector_85" d="M129.416 175.209V173.237C129.416 173.086 129.416 173.01 129.416 172.858C129.416 172.707 129.492 172.555 129.492 172.403C129.568 172.252 129.568 172.1 129.643 171.949C129.719 171.797 129.795 171.645 129.947 171.57C130.098 171.418 130.25 171.342 130.402 171.266C130.553 171.19 130.781 171.19 131.084 171.19C131.387 171.19 131.539 171.19 131.766 171.266C131.918 171.342 132.145 171.418 132.221 171.57C132.373 171.721 132.449 171.797 132.524 171.949C132.6 172.1 132.676 172.252 132.676 172.403C132.752 172.555 132.752 172.707 132.752 172.858C132.752 173.01 132.752 173.162 132.752 173.237V175.209C132.752 175.36 132.752 175.436 132.752 175.588C132.752 175.739 132.676 175.891 132.676 176.043C132.6 176.194 132.6 176.346 132.524 176.497C132.449 176.649 132.373 176.801 132.221 176.877C132.07 177.028 131.918 177.104 131.766 177.18C131.615 177.256 131.387 177.256 131.084 177.256C130.781 177.256 130.629 177.256 130.402 177.18C130.174 177.104 130.023 177.028 129.947 176.877C129.795 176.725 129.719 176.649 129.643 176.497C129.568 176.346 129.492 176.194 129.492 176.043C129.416 175.891 129.416 175.739 129.416 175.588C129.416 175.512 129.416 175.36 129.416 175.209ZM132.07 175.209V173.237C132.07 173.162 132.07 173.086 132.07 173.01C132.07 172.934 132.07 172.783 132.07 172.707C132.07 172.631 131.994 172.479 131.994 172.403C131.994 172.328 131.918 172.252 131.842 172.176C131.766 172.1 131.69 172.024 131.615 172.024C131.539 171.949 131.387 171.949 131.236 171.949C131.008 171.949 130.857 172.024 130.705 172.1C130.553 172.176 130.477 172.328 130.402 172.479C130.326 172.631 130.326 172.783 130.326 172.934C130.326 173.086 130.326 173.237 130.326 173.313V175.284C130.326 175.36 130.326 175.436 130.326 175.512C130.326 175.588 130.326 175.739 130.326 175.815C130.326 175.891 130.402 176.043 130.402 176.118C130.402 176.194 130.477 176.27 130.553 176.346C130.629 176.422 130.705 176.497 130.781 176.497C130.857 176.497 131.008 176.573 131.16 176.573C131.311 176.573 131.463 176.573 131.539 176.497C131.615 176.422 131.69 176.422 131.766 176.346C131.842 176.27 131.918 176.194 131.918 176.118C131.918 176.043 131.994 175.891 131.994 175.815C131.994 175.739 131.994 175.588 131.994 175.512C132.07 175.436 132.07 175.284 132.07 175.209Z" fill="white"/>
</g>
</g>
<path id="Vector_86" opacity="0.7" d="M26.4595 178.318C26.4595 175.361 24.1092 172.935 21.2283 172.783C21.2283 172.783 21.1524 172.783 21.0008 172.783H20.925H20.8492C18.3473 172.783 5.61032 172.783 5.61032 172.783C2.5019 172.783 0 175.285 0 178.394C0 181.502 2.5019 184.004 5.61032 184.004C5.61032 184.004 18.3473 184.004 20.8492 184.004H20.925H21.0008C21.1524 184.004 21.2283 184.004 21.2283 184.004C24.185 183.701 26.4595 181.275 26.4595 178.318Z" fill="#E2F0FA"/>
<path id="Vector_87" opacity="0.7" d="M32.6767 160.728C35.7752 160.728 38.2871 158.217 38.2871 155.118C38.2871 152.02 35.7752 149.508 32.6767 149.508C29.5782 149.508 27.0664 152.02 27.0664 155.118C27.0664 158.217 29.5782 160.728 32.6767 160.728Z" fill="#E2F0FA"/>
</g>
</g>
<defs>
<clipPath id="clip0">
<rect width="450" height="200" fill="white"/>
</clipPath>
</defs>
</svg>
