<svg xmlns="http://www.w3.org/2000/svg" viewBox="0 0 636 350"><title>hero-vs-professional-sku</title><path d="M385.379,248.058H337.73a2.65,2.65,0,1,1-.151-5.286h22.654a16.1,16.1,0,0,0,16.16-14.423,15.841,15.841,0,0,0-15.782-17.292H348.755v-5.286h14.8a12.215,12.215,0,0,0,11.855-9.061,12.088,12.088,0,0,0-11.7-15.1H332.52c-4,0-3.927-5.286-.227-5.286H385.3a12.217,12.217,0,0,0,11.856-9.061,12.088,12.088,0,0,0-11.7-15.1H276.263c-2.492,0-2.718-3.02-.226-3.02h3.775a16.1,16.1,0,0,0,16.16-14.423,15.841,15.841,0,0,0-15.782-17.292h-99.9a16.1,16.1,0,0,0-16.16,14.423,15.841,15.841,0,0,0,15.782,17.292h1.209a1.527,1.527,0,1,1,0,3.02h-59.2a12.218,12.218,0,0,0-11.856,9.062,12.087,12.087,0,0,0,11.7,15.1h37.152c3.927,0,4.38,5.286,0,5.286H100.244a12.216,12.216,0,0,0-11.856,9.062,12.087,12.087,0,0,0,11.7,15.1h30.431l.982,5.286H97.223A16.1,16.1,0,0,0,81.064,225.48a15.84,15.84,0,0,0,15.782,17.292h69.4c3.926,0,4.077,5.286,0,5.286H121.916a12.217,12.217,0,0,0-11.856,9.062,12.087,12.087,0,0,0,11.7,15.1H123.5c5.135,0,3.775,5.286.226,5.286H100.244a12.216,12.216,0,0,0-11.856,9.062,12.087,12.087,0,0,0,11.7,15.1h50.593c2.719,0,2.945,3.172,0,3.172a15.8,15.8,0,0,0-15.782,16.31,16.054,16.054,0,0,0,16.16,15.254H323.383a16.1,16.1,0,0,0,16.16-14.423,15.841,15.841,0,0,0-15.782-17.292h-4.38a1.512,1.512,0,1,1-.076-3.021H363.48a12.217,12.217,0,0,0,11.856-9.061,12.088,12.088,0,0,0-11.705-15.1H346.867c-3.851,0-3.473-5.286.076-5.286H385.3a12.083,12.083,0,1,0,.076-24.164Z" fill="#d4e6f4"/><path d="M136.792,255.156l96.429,90.389" fill="none" stroke="#b2b2b2" stroke-linejoin="bevel" stroke-width="3.125"/><path d="M234.354,255.836l-97.562,89.633" fill="none" stroke="#b2b2b2" stroke-miterlimit="10" stroke-width="3.125"/><path d="M135.886,163.182l98.166,91.9" fill="none" stroke="#b2b2b2" stroke-linejoin="bevel" stroke-width="3.125"/><path d="M233.825,163.484l-96.278,91.672" fill="none" stroke="#b2b2b2" stroke-miterlimit="10" stroke-width="3.125"/><path d="M528.173,254.854H134.753v2.266h393.42Z" fill="#939393"/><path d="M528.173,161.974H134.753v2.265h393.42Z" fill="#939393"/><path d="M551.2,350H97.6a4.215,4.215,0,0,1-4-4.153,4.112,4.112,0,0,1,4-4.153H551.2a4.016,4.016,0,0,1,4,4.153A4.11,4.11,0,0,1,551.2,350Z" fill="#c8c8c8"/><path d="M431.517,163.484h-2.266v182.74h2.266Z" fill="#939393"/><path d="M432.2,1.586,387.871,81.327,350.794,64.639C384.85,30.054,432.2,1.586,432.2,1.586Z" fill="#005a93"/><path d="M432.347.529S401.765,40.55,386.889,80.8h87.9C459.985,40.55,432.347.529,432.347.529Z" fill="#2488d8"/><path d="M430.082,3.247c-6.8,9.288-30.582,43.344-43.118,77.551h43.118Z" fill="#282828"/><path d="M470.33,80.8h4.455C459.834,40.55,432.121,0,432.121,0a9.1,9.1,0,0,0-1.888,2.718A388.1,388.1,0,0,1,470.33,80.8Z" fill="#69afe5"/><path d="M383.189,226.235c-26.429,9.59-41.305,25.221-42.061,61.165-.755,36.171,5.286,55.577,6.268,58.371h5.21c2.115-5.814,17.066-42.74,51.349-51.575C432.347,286.947,383.189,226.235,383.189,226.235Z" fill="#2488d8"/><path d="M343.469,296.084c.755-37.907,15.933-55.2,42.967-65.847-1.963-2.492-3.172-4-3.172-4-26.429,9.59-41.305,25.07-42.06,60.939-.529,26.807,2.643,44.4,4.757,52.783A253.933,253.933,0,0,1,343.469,296.084Z" fill="#69afe5"/><path d="M457.569,320.475H405.238l6.419-27.487H451.15Z" fill="#231f20"/><path d="M430.082,293.064h-18.5l-6.267,27.486h24.768Z" fill="#282828"/><path d="M479.392,226.235c26.2,9.59,41,25.221,41.682,61.165.756,36.171-5.285,55.577-6.192,58.371h-5.21c-2.114-5.814-16.915-43.117-50.971-52.028C430.611,286.494,479.392,226.235,479.392,226.235Z" fill="#2488d8"/><path d="M474.785,80.8h-87.67c-10.722,24.919-18.953,52.255-19.029,77.1-.151,68.868,30.734,130.41,33.83,136.753H462.93c0-3.473,30.129-67.508,30.28-136.375C493.21,133.355,485.282,105.793,474.785,80.8Z" fill="#106ebe"/><path d="M430.082,294.649h32.546c0-3.473,30.356-67.508,30.507-136.375.075-24.919-8.155-52.481-18.727-77.476h-44.4V294.649Z" fill="#005a93"/><path d="M455.379,138.943a23.711,23.711,0,1,0-23.711,23.711A23.752,23.752,0,0,0,455.379,138.943Z" fill="#2488d8"/><path d="M474.785,80.8H470.33c8.911,24.768,14.725,50.594,14.65,74.456-.151,55.577-16.462,108.586-27.487,139.4h4.984c0-3.473,30.431-67.508,30.582-136.375C493.21,133.355,485.433,105.793,474.785,80.8Z" fill="#106ebe"/><path d="M478.032,231.672c25.75,10.345,38.436,26.127,39.191,62.9.453,23.937-1.812,41-3.851,51.2h1.51c.907-2.794,6.948-22.276,6.192-58.371-.755-36.019-15.4-51.575-41.456-61.165A18.351,18.351,0,0,1,478.032,231.672Z" fill="#106ebe"/><path d="M430.082,115.307c-12.308.453-22.125,10.874-22.125,23.636s9.817,23.258,22.125,23.711Z" fill="#69afe5"/><path d="M251.8,162.729V346.224" fill="none" stroke="#737373" stroke-linejoin="bevel" stroke-width="2"/><path d="M279.737,162.729V346.224" fill="none" stroke="#737373" stroke-linejoin="bevel" stroke-width="2"/><path d="M252.326,333.01h27.033" fill="none" stroke="#737373" stroke-linejoin="bevel" stroke-width="2"/><path d="M252.326,318.813h27.033" fill="none" stroke="#737373" stroke-linejoin="bevel" stroke-width="2"/><path d="M252.326,304.542h27.033" fill="none" stroke="#737373" stroke-linejoin="bevel" stroke-width="2"/><path d="M252.326,290.345h27.033" fill="none" stroke="#737373" stroke-linejoin="bevel" stroke-width="2"/><path d="M252.326,276.073h27.033" fill="none" stroke="#737373" stroke-linejoin="bevel" stroke-width="2"/><path d="M252.326,261.877h27.033" fill="none" stroke="#737373" stroke-linejoin="bevel" stroke-width="2"/><path d="M252.326,247.605h27.033" fill="none" stroke="#737373" stroke-linejoin="bevel" stroke-width="2"/><path d="M252.326,233.409h27.033" fill="none" stroke="#737373" stroke-linejoin="bevel" stroke-width="2"/><path d="M252.326,219.213h27.033" fill="none" stroke="#737373" stroke-linejoin="bevel" stroke-width="2"/><path d="M252.326,204.941h27.033" fill="none" stroke="#737373" stroke-linejoin="bevel" stroke-width="2"/><path d="M252.326,190.744h27.033" fill="none" stroke="#737373" stroke-linejoin="bevel" stroke-width="2"/><path d="M252.326,176.472h27.033" fill="none" stroke="#737373" stroke-linejoin="bevel" stroke-width="2"/><path d="M234.429,111H135.508" fill="none" stroke="#939393" stroke-miterlimit="10" stroke-width="3"/><path d="M250.891,326.289h3.247v17.217h-3.247Z" fill="#0078d7"/><path d="M250.891,326.289h3.247v3.247h-3.247Z"/><path d="M263.275,326.289h3.247v17.217h-3.247Z" fill="#0078d7"/><path d="M263.275,326.289h3.247v3.247h-3.247Z"/><path d="M269.165,344.563c0-1.057-1.586-1.586-3.322-1.586h-2.266c-1.737,0-2.794.6-3.02,1.586Z" fill="#0078d7"/><path d="M260.557,344.563h8.608v2.19h-8.608Z"/><path d="M256.253,344.563c0-1.057-1.435-1.586-3.1-1.586h-2.114c-1.661,0-2.643.6-2.869,1.586Z" fill="#0078d7"/><path d="M248.173,344.563h8.08v2.19h-8.08Z"/><path d="M250.891,313.3h14.574v7.551H250.891Z" fill="#0078d7"/><path d="M250.891,311.866l14.574-1.283V313.3H250.891v-1.435Z"/><path d="M249.758,326.289a1.771,1.771,0,0,1-1.585-1.661v-2.643a1.567,1.567,0,0,1,1.585-1.661h16.689a1.567,1.567,0,0,1,1.585,1.661v2.643a1.771,1.771,0,0,1-1.585,1.661Z" fill="#69afe5"/><path d="M275.508,304.919l4.984,7.1-2.19,1.511-4.984-7.1Z" fill="#0078d7"/><path d="M275.508,304.919l1.661,2.341-2.189,1.51-1.737-2.492Z"/><path d="M266.6,308.393l9.59-2.87a1.416,1.416,0,0,0,.981-1.888l-1.359-4.3a1.548,1.548,0,0,0-1.963-.981l-9.59,2.869a1.417,1.417,0,0,0-.982,1.888l1.359,4.3A1.615,1.615,0,0,0,266.6,308.393Z" fill="#2488d8"/><path d="M281.549,309.3l1.737,1.888,4.153-4.607-1.737-1.887Z" fill="#0078d7"/><path d="M281.549,309.374l1.888,1.813,1.812-2.115-1.812-1.812Z"/><path d="M283.89,312.319a1.83,1.83,0,0,0-.075-2.341l-1.737-1.661a1.729,1.729,0,0,0-2.341.076l-3.549,3.775a1.83,1.83,0,0,0,.075,2.341L278,316.17a1.728,1.728,0,0,0,2.341-.075Z" fill="#2488d8"/><path d="M288.194,302.276a1.917,1.917,0,0,0-1.359.68,1.87,1.87,0,0,0,0,2.567,2.3,2.3,0,0,0,2.945.151,1.327,1.327,0,0,0,.529-1.434h2.038a3.74,3.74,0,0,1-1.208,2.718,4.367,4.367,0,0,1-5.739-.151,3.366,3.366,0,0,1,0-5.135,3.865,3.865,0,0,1,2.794-1.284v1.888Z" fill="#0078d7"/><path d="M280.265,296.311l9.515,12.837a2.7,2.7,0,0,0,2.945.83l9.364-3.7a1.44,1.44,0,0,0,.679-2.265l-9.514-12.837a2.7,2.7,0,0,0-2.945-.831l-9.364,3.7A1.43,1.43,0,0,0,280.265,296.311Z" fill="#9ab208"/><path d="M291.819,295.027l3.247,9.137-9.137-6.721" fill="none" stroke="#fff" stroke-linejoin="bevel" stroke-width="0.961"/><path d="M290.988,296.16c-1.132-.227-1.888-1.133-1.661-1.964a1.875,1.875,0,0,1,2.341-1.132c1.133.226,1.888,1.132,1.661,1.963C293.178,295.933,292.121,296.386,290.988,296.16Z" fill="#505050"/><path d="M284.872,298.576c-1.133-.226-1.888-1.133-1.662-1.963a1.876,1.876,0,0,1,2.341-1.133c1.133.227,1.888,1.133,1.662,1.963A1.761,1.761,0,0,1,284.872,298.576Z" fill="#505050"/><path d="M294.311,305.221c-1.133-.226-1.888-1.133-1.662-1.963a1.876,1.876,0,0,1,2.341-1.133c1.133.227,1.888,1.133,1.662,1.963C296.5,305,295.443,305.448,294.311,305.221Z" fill="#505050"/><path d="M270,297.292l1.359,12.082a.977.977,0,0,1-.906,1.133L246.285,313.3a1.072,1.072,0,0,1-1.133-.906l-1.284-11.78a.978.978,0,0,1,.907-1.133l24.164-2.794a1.071,1.071,0,0,1,1.132.906" fill="#2488d8"/><path d="M240.621,307.94h2.643l.076,9.137H240.7Z" fill="#0078d7"/><path d="M240.621,307.94h2.643v3.247h-2.643Z"/><path d="M240.621,322.513h2.643l.076,6.268H240.7Z" fill="#0078d7"/><path d="M240.621,322.438h2.643v3.247h-2.643Z"/><path d="M244.926,320.777a1.859,1.859,0,0,1-1.737,1.661h-2.417a1.8,1.8,0,0,1-1.736-1.661l-.076-5.286a1.858,1.858,0,0,1,1.737-1.661h2.416a1.8,1.8,0,0,1,1.737,1.661Z" fill="#2488d8"/><path d="M245.681,308.393l-6.192.075a1.581,1.581,0,0,1-1.586-1.51v-4.531a1.533,1.533,0,0,1,1.586-1.51l5.965.075a1.582,1.582,0,0,1,1.586,1.511v4.53A1.233,1.233,0,0,1,245.681,308.393Z" fill="#0078d7"/><path d="M256.63,289.666a8.765,8.765,0,0,0-7.853,9.665l17.745-1.963A8.941,8.941,0,0,0,256.63,289.666Z" fill="#2488d8"/><path d="M260.557,293.819a1.367,1.367,0,1,1,1.51,1.208A1.362,1.362,0,0,1,260.557,293.819Z" fill="#ffb900"/><path d="M260.481,292.082l2.794.227c.3,0,.453-.152.453-.378s-.151-.6-.453-.6l-2.869-.227c-.3,0-.6.151-.6.453A.661.661,0,0,0,260.481,292.082Z" fill="#231f20"/><path d="M253.232,293.894l1.963-1.661a.616.616,0,0,1,.906,0,.545.545,0,0,1-.151.831l-2.038,1.812a.463.463,0,0,1-.756-.076A.791.791,0,0,1,253.232,293.894Z" fill="#231f20"/><path d="M270,297.292l1.359,12.384a1.1,1.1,0,0,1-.906,1.209L249.607,313.3a1.025,1.025,0,0,1-1.132-.906l-1.359-12.158a1.1,1.1,0,0,1,.906-1.208l20.841-2.416a1.074,1.074,0,0,1,1.133.981" fill="#69afe5"/><path d="M266.975,303.711a2.388,2.388,0,0,1-2.114,2.794l-8.08.906a2.382,2.382,0,0,1-2.718-2.265,2.465,2.465,0,0,1,2.114-2.794l8.08-.906A2.584,2.584,0,0,1,266.975,303.711Z"/><path d="M248.022,296.084l13.667-9.816-.679-.831-3.172.3s-3.926-5.21-10.043-.755C242.509,288.759,248.022,296.084,248.022,296.084Z" fill="#fff000"/><path d="M256.706,306.882h0c.377,0,.679-.226.6-.453l-.378-2.416c0-.227-.377-.378-.68-.378-.377,0-.6.227-.528.453l.377,2.417C256.1,306.731,256.4,306.882,256.706,306.882Z" fill="#ffb900"/><path d="M257.989,306.882a.347.347,0,0,0,.378-.453l-.227-2.416a.417.417,0,1,0-.83.075l.226,2.417A.479.479,0,0,0,257.989,306.882Z" fill="#ffb900"/><path d="M259.953,306.882c.377,0,.679-.3.6-.6l-.378-3.171c0-.3-.377-.529-.679-.529a.5.5,0,0,0-.529.6l.378,3.172A.583.583,0,0,0,259.953,306.882Z" fill="#ffb900"/><path d="M261.236,306.354a.4.4,0,0,0,.378-.529l-.227-2.794a.435.435,0,0,0-.453-.453c-.226,0-.377.3-.377.529l.226,2.794C260.859,306.127,261.01,306.354,261.236,306.354Z" fill="#ffb900"/><path d="M263.2,306.354c.377,0,.679-.3.6-.529l-.378-2.794c0-.3-.377-.453-.679-.453-.378,0-.605.3-.529.529l.378,2.794C262.6,306.127,262.822,306.354,263.2,306.354Z" fill="#ffb900"/><path d="M264.483,306.354c.3,0,.453-.3.378-.6l-.227-3.172a.5.5,0,0,0-.453-.528c-.226,0-.377.3-.377.6l.226,3.171A.506.506,0,0,0,264.483,306.354Z" fill="#ffb900"/><path d="M289.931,305.6a2.264,2.264,0,0,1-2.643.151l1.208,2.114a3.682,3.682,0,0,0,2.719-.982,3.769,3.769,0,0,0,1.132-2.718h-1.963A1.37,1.37,0,0,1,289.931,305.6Z" fill="#0078d7"/><path d="M250.891,326.289h3.247v17.217h-3.247Z" fill="#0078d7"/><path d="M250.891,326.289h3.247v3.247h-3.247Z"/><path d="M263.275,326.289h3.247v17.217h-3.247Z" fill="#0078d7"/><path d="M263.275,326.289h3.247v3.247h-3.247Z"/><path d="M269.165,344.563c0-1.057-1.586-1.586-3.322-1.586h-2.266c-1.737,0-2.794.6-3.02,1.586Z" fill="#0078d7"/><path d="M260.557,344.563h8.608v2.19h-8.608Z"/><path d="M256.253,344.563c0-1.057-1.435-1.586-3.1-1.586h-2.114c-1.661,0-2.643.6-2.869,1.586Z" fill="#0078d7"/><path d="M248.173,344.563h8.08v2.19h-8.08Z"/><path d="M250.891,313.3h14.574v7.551H250.891Z" fill="#0078d7"/><path d="M250.891,311.866l14.574-1.283V313.3H250.891v-1.435Z"/><path d="M249.758,326.289a1.771,1.771,0,0,1-1.585-1.661v-2.643a1.567,1.567,0,0,1,1.585-1.661h16.689a1.567,1.567,0,0,1,1.585,1.661v2.643a1.771,1.771,0,0,1-1.585,1.661Z" fill="#69afe5"/><path d="M275.508,304.919l4.984,7.1-2.19,1.511-4.984-7.1Z" fill="#0078d7"/><path d="M275.508,304.919l1.661,2.341-2.189,1.51-1.737-2.492Z"/><path d="M266.6,308.393l9.59-2.87a1.416,1.416,0,0,0,.981-1.888l-1.359-4.3a1.548,1.548,0,0,0-1.963-.981l-9.59,2.869a1.417,1.417,0,0,0-.982,1.888l1.359,4.3A1.615,1.615,0,0,0,266.6,308.393Z" fill="#2488d8"/><path d="M281.549,309.3l1.737,1.888,4.153-4.607-1.737-1.887Z" fill="#0078d7"/><path d="M281.549,309.374l1.888,1.813,1.812-2.115-1.812-1.812Z"/><path d="M283.89,312.319a1.83,1.83,0,0,0-.075-2.341l-1.737-1.661a1.729,1.729,0,0,0-2.341.076l-3.549,3.775a1.83,1.83,0,0,0,.075,2.341L278,316.17a1.728,1.728,0,0,0,2.341-.075Z" fill="#2488d8"/><path d="M288.194,302.276a1.917,1.917,0,0,0-1.359.68,1.87,1.87,0,0,0,0,2.567,2.3,2.3,0,0,0,2.945.151,1.327,1.327,0,0,0,.529-1.434h2.038a3.74,3.74,0,0,1-1.208,2.718,4.367,4.367,0,0,1-5.739-.151,3.366,3.366,0,0,1,0-5.135,3.865,3.865,0,0,1,2.794-1.284v1.888Z" fill="#0078d7"/><path d="M280.265,296.311l9.515,12.837a2.7,2.7,0,0,0,2.945.83l9.364-3.7a1.44,1.44,0,0,0,.679-2.265l-9.514-12.837a2.7,2.7,0,0,0-2.945-.831l-9.364,3.7A1.43,1.43,0,0,0,280.265,296.311Z" fill="#ff8c00"/><path d="M291.819,295.027l3.247,9.137-9.137-6.721" fill="none" stroke="#fff" stroke-linejoin="bevel" stroke-width="0.961"/><path d="M290.988,296.16c-1.132-.227-1.888-1.133-1.661-1.964a1.875,1.875,0,0,1,2.341-1.132c1.133.226,1.888,1.132,1.661,1.963C293.178,295.933,292.121,296.386,290.988,296.16Z" fill="#bd3604"/><path d="M284.872,298.576c-1.133-.226-1.888-1.133-1.662-1.963a1.876,1.876,0,0,1,2.341-1.133c1.133.227,1.888,1.133,1.662,1.963A1.761,1.761,0,0,1,284.872,298.576Z" fill="#bd3604"/><path d="M294.311,305.221c-1.133-.226-1.888-1.133-1.662-1.963a1.876,1.876,0,0,1,2.341-1.133c1.133.227,1.888,1.133,1.662,1.963C296.5,305,295.443,305.448,294.311,305.221Z" fill="#bd3604"/><path d="M270,297.292l1.132,12.158c.076.6-21.068,3.851-21.6,3.926H246.36a1.069,1.069,0,0,1-1.132-.906l-1.284-11.78a.975.975,0,0,1,.906-1.132l24.164-2.794a1.07,1.07,0,0,1,1.133.906" fill="#2488d8"/><path d="M240.621,307.94h2.643l.076,9.137H240.7Z" fill="#0078d7"/><path d="M240.621,307.94h2.643v3.247h-2.643Z"/><path d="M240.621,322.513h2.643l.076,6.268H240.7Z" fill="#0078d7"/><path d="M240.621,322.438h2.643v3.247h-2.643Z"/><path d="M244.926,320.777a1.859,1.859,0,0,1-1.737,1.661h-2.417a1.8,1.8,0,0,1-1.736-1.661l-.076-5.286a1.858,1.858,0,0,1,1.737-1.661h2.416a1.8,1.8,0,0,1,1.737,1.661Z" fill="#2488d8"/><path d="M245.681,308.393l-6.192.075a1.581,1.581,0,0,1-1.586-1.51v-4.531a1.533,1.533,0,0,1,1.586-1.51l5.965.075a1.582,1.582,0,0,1,1.586,1.511v4.53A1.233,1.233,0,0,1,245.681,308.393Z" fill="#0078d7"/><path d="M256.63,289.666a8.765,8.765,0,0,0-7.853,9.665l17.745-1.963A8.941,8.941,0,0,0,256.63,289.666Z" fill="#2488d8"/><path d="M260.557,293.819a1.367,1.367,0,1,1,1.51,1.208A1.362,1.362,0,0,1,260.557,293.819Z" fill="#ffb900"/><path d="M260.481,292.082l2.794.227c.3,0,.453-.152.453-.378s-.151-.6-.453-.6l-2.869-.227c-.3,0-.6.151-.6.453A.661.661,0,0,0,260.481,292.082Z" fill="#231f20"/><path d="M253.232,293.894l1.963-1.661a.616.616,0,0,1,.906,0,.545.545,0,0,1-.151.831l-2.038,1.812a.463.463,0,0,1-.756-.076A.791.791,0,0,1,253.232,293.894Z" fill="#231f20"/><path d="M270,297.292l1.359,12.384a1.1,1.1,0,0,1-.906,1.209L249.607,313.3a1.025,1.025,0,0,1-1.132-.906l-1.359-12.158a1.1,1.1,0,0,1,.906-1.208l20.841-2.416a1.074,1.074,0,0,1,1.133.981" fill="#69afe5"/><path d="M266.975,303.711a2.388,2.388,0,0,1-2.114,2.794l-8.08.906a2.382,2.382,0,0,1-2.718-2.265,2.465,2.465,0,0,1,2.114-2.794l8.08-.906A2.584,2.584,0,0,1,266.975,303.711Z"/><path d="M248.022,296.084l13.667-9.816-.679-.831-3.172.3s-3.926-5.21-10.043-.755C242.509,288.759,248.022,296.084,248.022,296.084Z" fill="#fff000"/><path d="M261.689,286.192l-13.667,9.968a13.76,13.76,0,0,1-2.568-6.8c-.226-3.852,4.078-5.437,4.078-5.437a4.426,4.426,0,0,0-2.039,3.473c-.151,2.87,2.341,5.966,2.341,5.966l11.251-8.08Z" fill="#ddc80a"/><path d="M289.931,305.6a2.264,2.264,0,0,1-2.643.151l1.208,2.114a3.682,3.682,0,0,0,2.719-.982,3.769,3.769,0,0,0,1.132-2.718h-1.963A1.37,1.37,0,0,1,289.931,305.6Z" fill="#0078d7"/><path d="M235.185,66.828h-2.266v279.4h2.266Z" fill="#939393"/><path d="M528.928,161.974h-2.266v184.25h2.266Z" fill="#939393"/><path d="M333.351,163.484h-2.266v182.74h2.266Z" fill="#939393"/><path d="M136.263,66.828H134v279.4h2.265Z" fill="#939393"/><path d="M174.729,83.441h1.511V75.89h-1.511Z" fill="#282828"/><path d="M159.627,83.441h1.51V75.89h-1.51Z" fill="#282828"/><path d="M183.036,160.464h5.286V106.1h-5.286Z" fill="#737373"/><path d="M168.688,161.974h33.981v-3.02H168.688Z" fill="#737373"/><path d="M183.791,101.564h29.45V81.176h-29.45Z" fill="#282828"/><path d="M186.811,99.3h24.164V82.686H186.811Z" fill="#ec6401"/><path d="M192.852,106.85h11.327v-6.8H192.852Z" fill="#282828"/><path d="M180.816,80.421v24.164h34.735v5.286h-58.9V80.421Z" fill="#45779e"/><path d="M194.363,107.605h7.551V106.1h-7.551Z" fill="#235a89"/><path d="M189.077,87.217H208.71v-.755H189.077Z" fill="#9c2801"/><path d="M196.628,87.217h5.286v-1.51h-5.286Z" fill="#fff"/><path d="M189.077,90.992H208.71v-.755H189.077Z" fill="#9c2801"/><path d="M193.607,90.992h5.286v-1.51h-5.286Z" fill="#fff"/><path d="M189.077,94.768H208.71v-.755H189.077Z" fill="#9c2801"/><path d="M201.914,94.768H207.2v-1.51h-5.286Z" fill="#fff"/><path d="M203.424,107.605h7.551V106.1h-7.551Z" fill="#235a89"/><path d="M184.546,107.605H192.1V106.1h-7.551Z" fill="#235a89"/><path d="M175.53,107.605a1.51,1.51,0,1,0-1.51-1.51A1.51,1.51,0,0,0,175.53,107.605Z" fill="#ff8c00"/><path d="M171,107.605a1.51,1.51,0,1,0-1.51-1.51A1.51,1.51,0,0,0,171,107.605Z" fill="#ff8c00"/><path d="M158.117,107.605h1.51V106.1h-1.51Z" fill="#69afe5"/><path d="M160.382,88.727H177V83.441H160.382Z" fill="#ff8c00"/><path d="M167.933,93.258h7.551V92.5h-7.551Z" fill="#ff8c00"/><path d="M167.933,97.034h7.551v-.756h-7.551Z" fill="#235a89"/><path d="M167.933,100.054h7.551V99.3h-7.551Z" fill="#235a89"/><path d="M162.693,98.544a3.776,3.776,0,1,0-3.776-3.776A3.776,3.776,0,0,0,162.693,98.544Z" fill="#235a89"/><path d="M156.606,78.155H179.26V66.073H156.606Z" fill="#282828"/><path d="M158.872,69.849H176.24v-.755H158.872Z" fill="#d83b01"/><path d="M158.872,75.135h12.837V72.114H158.872Z" fill="#d83b01"/><path d="M174.729,73.625h1.511V72.114h-1.511Z" fill="#ff8c00"/><path d="M256.252,296.537a1.286,1.286,0,1,0-1.359-1.283A1.323,1.323,0,0,0,256.252,296.537Z" fill="#ffb900"/><path d="M241.83,326.818a3.874,3.874,0,0,0-3.851,4.077,3.718,3.718,0,0,0,.981,2.794l.076.076a3.752,3.752,0,0,0,2.19,1.208l.3-1.963a3.163,3.163,0,0,1-1.133-.68,2.137,2.137,0,0,1-.453-1.435,2.184,2.184,0,0,1,1.963-2.038,2.158,2.158,0,0,1,2.19,1.963,1.461,1.461,0,0,1-.755,1.51l1.51,1.51a4.089,4.089,0,0,0,1.208-3.02A4.227,4.227,0,0,0,241.83,326.818Z" fill="#0078d7"/><path d="M256.706,306.882a.576.576,0,0,1-.605-.453l-.3-2.945a.5.5,0,0,1,.454-.528.574.574,0,0,1,.6.453l.3,2.945C257.234,306.58,257.008,306.807,256.706,306.882Z" fill="#ffb900"/><path d="M258.291,306.656a.574.574,0,0,1-.6-.453l-.3-2.945a.506.506,0,0,1,.453-.529.574.574,0,0,1,.6.453l.3,2.945A.425.425,0,0,1,258.291,306.656Z" fill="#ffb900"/><path d="M259.8,306.505a.576.576,0,0,1-.605-.453l-.3-2.945a.506.506,0,0,1,.454-.529.574.574,0,0,1,.6.453l.3,2.945A.425.425,0,0,1,259.8,306.505Z" fill="#ffb900"/><path d="M261.387,306.354a.574.574,0,0,1-.6-.453l-.3-2.945a.506.506,0,0,1,.453-.529.574.574,0,0,1,.6.453l.3,2.945C261.916,306.052,261.689,306.278,261.387,306.354Z" fill="#ffb900"/><path d="M262.973,306.127a.574.574,0,0,1-.6-.453l-.3-2.945a.5.5,0,0,1,.453-.528.574.574,0,0,1,.6.453l.3,2.945A.5.5,0,0,1,262.973,306.127Z" fill="#ffb900"/><path d="M264.483,305.976a.574.574,0,0,1-.6-.453l-.3-2.945a.5.5,0,0,1,.453-.528.574.574,0,0,1,.6.453l.3,2.945A.424.424,0,0,1,264.483,305.976Z" fill="#ffb900"/><path d="M380.4,119.989,368.086,92.05h-7.022L373.3,119.989Z" fill="#69afe5"/><path d="M373.372,120.065a154.7,154.7,0,0,0-5.286,35.34h7.023a158.31,158.31,0,0,1,5.286-35.34Z" fill="#282828"/><path d="M377.752,133.053H364.235a1.548,1.548,0,0,0-1.586,1.586v17.216a1.548,1.548,0,0,0,1.586,1.586h13.517a1.548,1.548,0,0,0,1.586-1.586V134.639A1.6,1.6,0,0,0,377.752,133.053Z" fill="#d83b01"/><path d="M363.41,137.659h3.775v-1.51H363.41Z" fill="#ff8c00"/><path d="M363.41,140.68h3.775v-1.511H363.41Z" fill="#282828"/><path d="M363.41,143.7h3.775v-1.51H363.41Z" fill="#282828"/><path d="M363.41,146.721h3.775V145.21H363.41Z" fill="#282828"/><path d="M363.41,149.741h3.775v-1.51H363.41Z" fill="#282828"/><path d="M319.079,116.365l-1.208,7.853,5.285.755,1.209-7.853Z" fill="#e0bda5"/><path d="M327.989,135.092a2.158,2.158,0,0,1-1.057-.6L319,126.181l4.456-1.812,5.965,6.343,12.46-.906.3,4.3-13.366,1.057A1.5,1.5,0,0,1,327.989,135.092Z" fill="#c2c2c2"/><path d="M343.016,129.277a6.26,6.26,0,0,1,2.19-1.057c.982.453.529,1.208.529,1.208-1.662,1.208-1.662,1.209-1.662,1.209l1.058.906a.609.609,0,0,1,.151.981c0,.151-.227.227-.453.227.226.3.3.6.075.83a.851.851,0,0,1-.831.227c0,.227.076.453-.151.68a.689.689,0,0,1-.83.151,3.216,3.216,0,0,1-.076.377.828.828,0,0,1-.981.151c-.076-.075-.076-.075-.227-.075l-1.888-1.737a17.111,17.111,0,0,1,.378-3.1A10.052,10.052,0,0,1,343.016,129.277Z" fill="#c2c2c2"/><path d="M321.193,127.465c.755.831,6.494,6.57,6.494,6.57l11.629-.831c-.075-1.661-.3-3.172-.3-3.172a10.813,10.813,0,0,0,1.133-.075c.528,4.153.3,4.3.3,4.3l-12.158.906c-.226,0-.453-.075-.755-.075a2.158,2.158,0,0,1-1.057-.6l-7.023-7.023S320.438,126.71,321.193,127.465Z" fill="#939393"/><path d="M305.713,153.366l1.586-9.515a1.332,1.332,0,0,0,.6.378l1.284.528,3.851,1.662-1.661,10.5a3.133,3.133,0,0,1-3.021,2.567l-12.988-.3-.076-3.775v-1.964Z" fill="#c2c2c2"/><path d="M305.713,153.29l1.586-9.741a1.332,1.332,0,0,0,.6.378l1.284.528c-.68,4.909-1.284,8.609-1.284,8.609-.227,1.661-1.586,2.265-3.021,2.265l-9.665.076v-2.039Z" fill="#939393"/><path d="M288.8,162.05c1.057-.378,6.494-2.643,6.494-2.643.076-.076.227-.076.3-.227a.617.617,0,0,0,.076-.906,2.259,2.259,0,0,1,.377-2.869c.756-.227,2.115-.6,2.115-.6-1.888-1.887-2.945-3.171-2.945-3.171a.815.815,0,0,0-1.284.075c-.6.68-7.627,8.08-7.627,8.08s-.6.453.076.982c.6.6.982,1.057.982,1.057S287.666,162.427,288.8,162.05Z" fill="#505050"/><path d="M293.329,152.535a8.143,8.143,0,0,0,.68-.831c.6-.83,1.132-.075,1.132-.075l3.021,3.322-2.115.756Z" fill="#282828"/><path d="M307.072,139.7s2.417-17.368,10.5-17.972a37.351,37.351,0,0,0,6.72.831,47.207,47.207,0,0,1-3.7,20.766Z" fill="#c2c2c2"/><path d="M327.838,114.779a3.077,3.077,0,0,1-2.19-.831,3.031,3.031,0,0,1-.83-1.284l-.227,1.284v.076c-.075.3-.151.755-.3,1.208a2.16,2.16,0,0,1-.151.906c-.151.453-.6-.151-.6-.151a5.453,5.453,0,0,0-.906-1.133c-.227-.151-.453-.226-.68,0a2.277,2.277,0,0,0-.3,1.36c0,.3.076.6.076.906a2.388,2.388,0,0,0,.151.453,3.328,3.328,0,0,1-1.284,1.888,12.247,12.247,0,0,0,3.776,2.492c.151.075.453.151.6.226,1.132.378,1.359-.151,1.359-.151l1.208-3.474c1.435.227,1.133-.453,1.057-.679a11.078,11.078,0,0,1-.755-2.643C327.838,115.005,327.763,114.854,327.838,114.779Z" fill="#f9d3b8"/><path d="M321.5,118.554a2.093,2.093,0,0,1-.906.907,11.658,11.658,0,0,0,3.776,2.492.073.073,0,0,0,.075.075,1.393,1.393,0,0,0,.529.151c.151,0,.3.076.453.076a4.438,4.438,0,0,1-.529-.3,1.224,1.224,0,0,0-.528-.3A12.535,12.535,0,0,1,321.5,118.554Z" fill="#e0bda5"/><path d="M324.516,113.646l-.227,1.586a11.514,11.514,0,0,1,1.057-1.586Z" fill="#e0bda5"/><path d="M322.175,114.25c-.076,0-.151.151-.227.151a1.978,1.978,0,0,0-.3,1.51v1.058c.076-.6.453-2.19,1.057-2.492C322.477,114.25,322.326,114.175,322.175,114.25Z" fill="#e0bda5"/><path d="M327.008,116.138a.724.724,0,0,1-.68.151c-.227,0-.453-.151-.378-.3.076-.226.453-.226.68-.226C326.857,115.836,327.008,115.987,327.008,116.138Z"/><path d="M325.8,119.234a3.88,3.88,0,0,0,1.209,1.586l-.076.377a5.21,5.21,0,0,1-1.51-2.189Z" fill="#9f6753"/><path d="M327.385,119.838l-.377.227a3.913,3.913,0,0,1-1.133-.831Z" fill="#fff"/><path d="M327.536,109.644a5.925,5.925,0,0,0-4-2.19,5.721,5.721,0,0,0-1.963,0,6.214,6.214,0,0,0-5.286,5.89,6.522,6.522,0,0,0,3.549,6.343l.075.076c1.36,0,1.888-2.115,1.888-2.115s-.151-1.057-.151-1.359a1.619,1.619,0,0,1,.3-1.359.574.574,0,0,1,.755,0,6.433,6.433,0,0,1,.982,1.133s.453.6.6.151l.68-3.625a4.314,4.314,0,0,0,.906,1.435,2.962,2.962,0,0,0,2.265.83c.755-.377,1.964-1.132,1.435-2.038A12.736,12.736,0,0,0,327.536,109.644Z" fill="#9d6853"/><path d="M315.756,113.42v-1.058a7.168,7.168,0,0,1,7.7-6.267,6.87,6.87,0,0,1,6.8,7.1c0,.3-.076.68-.076.982Z" fill="#fff000"/><path d="M315.454,112.06l2.492.151,8.533.454,4.078.226a1,1,0,0,1,.226.68.874.874,0,0,1-.3.679l-15.1-.83a.993.993,0,0,1-.227-.68A1.321,1.321,0,0,1,315.454,112.06Z" fill="#fff000"/><path d="M320.816,106.321a7.158,7.158,0,0,0-5.135,5.739l2.265.076,7.929.453-7.627-1.51a6.919,6.919,0,0,1,4.606-4.531,8.86,8.86,0,0,1,1.511-.3,2.252,2.252,0,0,0-.982-.076A7.391,7.391,0,0,0,320.816,106.321Z" fill="#ddc80a"/><path d="M336.522,141.284l14.5,6.116a2.707,2.707,0,0,0,2.945-.755l6.116-7.778a1.378,1.378,0,0,0-.529-2.265l-14.5-6.117a2.708,2.708,0,0,0-2.945.756l-6.116,7.777A1.43,1.43,0,0,0,336.522,141.284Z" fill="#ff8c00"/><path d="M345.206,134.186l7.7,5.965-11.855-.906" fill="none" stroke="#fff" stroke-linejoin="bevel" stroke-width="0.961"/><path d="M342.941,134.865c-.3-.83.377-1.812,1.51-2.19a1.91,1.91,0,0,1,2.492.831c.3.831-.378,1.812-1.51,2.19S343.167,135.7,342.941,134.865Z" fill="#bd3604"/><path d="M338.863,140.076c-.3-.831.378-1.813,1.51-2.19a1.909,1.909,0,0,1,2.492.83c.3.831-.377,1.813-1.51,2.19A1.881,1.881,0,0,1,338.863,140.076Z" fill="#bd3604"/><path d="M350.341,141.057c-.3-.83.377-1.812,1.51-2.19a1.91,1.91,0,0,1,2.492.831c.3.831-.377,1.812-1.51,2.19A1.91,1.91,0,0,1,350.341,141.057Z" fill="#bd3604"/><path d="M316.285,127.691l5.135,1.586,2.114,7.4,8.08,3.1a2.815,2.815,0,0,1,.831-.3,25.64,25.64,0,0,1,2.944.151h.529a1.007,1.007,0,0,1-1.057.907h-1.133l3.1,1.057a.769.769,0,0,1,.453.906c-.075.151-.226.3-.3.3.3.226.453.6.227.831-.076.377-.378.453-.68.453a.571.571,0,0,1,.076.6.632.632,0,0,1-.68.453,1.13,1.13,0,0,1-.075.453.772.772,0,0,1-.907.453v-.076l-2.416-.981-11.629-4.606a1.882,1.882,0,0,1-.528-.3,2.831,2.831,0,0,1-.68-1.132Z" fill="#c2c2c2"/><path d="M316.058,129.2s1.208-.3,1.511.755c.3,1.133,2.794,8.986,2.794,8.986l8.306,3.171,1.208-3.02,1.284.6c-1.662,4-1.661,4-1.661,4l-9.137-3.473a1.873,1.873,0,0,1-.529-.3,2.56,2.56,0,0,1-.68-1.057Z" fill="#939393"/><path d="M327.083,116.214a.6.6,0,1,1-.6-.605A.6.6,0,0,1,327.083,116.214Z" fill="#505050"/><path d="M322.779,158.5c.6-4.833,1.586-11.78,1.586-11.78a2.86,2.86,0,0,0-1.888-2.87l-9.062-3.624-4.3-3.247L306.7,140a2.629,2.629,0,0,0-.529,2.567,3.214,3.214,0,0,0,1.812,2.039l10.044,4.153c-.151,7.929,0,10.044,0,10.044Z" fill="#c2c2c2"/><path d="M306.166,142.341a2.729,2.729,0,0,1,.076-2.039l2.643,2.039,8.759,3.851a2.86,2.86,0,0,1,1.888,2.87l-.227,9.59c-1.661-.076-1.812-.227-1.812-.227.227-9.892.151-9.741.151-9.741l-9.741-4.229A3.26,3.26,0,0,1,306.166,142.341Z" fill="#939393"/><path d="M329.5,159.1c-1.058-.453-6.5-2.794-6.5-2.794-.6-.3-.906.3-.981.528a2.252,2.252,0,0,1-2.341,1.511l-2.19-1.209v4.229s-.075.831.906.831h11.327a.611.611,0,0,0,.68-.68v-1.359S330.632,159.633,329.5,159.1Z" fill="#505050"/><path d="M317.493,157.141c.529.3,1.359.755,1.812.982V162.2h-1.057a.734.734,0,0,1-.755-.831v-4.229Z" fill="#282828"/><path d="M310.47,127.314s3.625-5.815,6.721-5.663c4.153.6,5.286.755,7.1.906-.453.075-2.341.075-2.341.075-8.759.151-12.61,10.8-13.29,15.631l11.629,3.549a4.767,4.767,0,0,1-1.812,1.511l-8.835-2.568-3.1-.982A39.1,39.1,0,0,1,310.47,127.314Z" fill="#939393"/><path d="M432.272,0c-5.059,3.172-49.989,31.564-82.007,64.563l1.36.68c32.017-32.924,74-58.673,78.986-61.769Z" fill="#409ae1"/><path d="M430.082,63.128H412.11a1.549,1.549,0,0,0-1.586,1.586V78.231a1.549,1.549,0,0,0,1.586,1.586h17.972Z" fill="#d83b01"/><path d="M413.517,63.886v3.776h1.51V63.886Z" fill="#ff8c00"/><path d="M416.537,63.886v3.776h1.51V63.886Z" fill="#282828"/><path d="M419.558,63.886v3.776h1.51V63.886Z" fill="#282828"/><path d="M422.578,63.886v3.776h1.51V63.886Z" fill="#282828"/><path d="M425.6,63.886v3.776h1.51V63.886Z" fill="#282828"/><path d="M430.082,80.8V71.51H402.067a1.549,1.549,0,0,0-1.586,1.586v7.7Z" fill="#bd3604"/></svg>