<svg xmlns="http://www.w3.org/2000/svg" viewBox="0 0 636 350"><title>hero-developer-day-2019</title><g style="isolation:isolate"><rect width="636" height="350" fill="#fff"/><rect x="198.469" y="8.363" width="0.82" height="20.493" fill="#f5f3f9"/><rect x="195.623" y="27.223" width="6.946" height="5.35" fill="#f5f3f9"/><rect x="191.831" y="63.497" width="11.103" height="268.316" fill="#f5f3f9"/><polygon points="229.268 61.318 168.489 61.318 164.582 44.905 233.718 44.724 229.268 61.318" fill="#fff"/><polygon points="208.864 31.032 189.111 31.032 187.989 34.78 209.841 34.78 208.864 31.032" fill="#f5f3f9"/><polygon points="229.917 56.544 169.917 56.376 163.605 61.227 176.738 64.582 221.02 64.582 234.153 61.227 229.917 56.544" fill="#f5f3f9"/><path d="M209.6,37.651c-.124-2.355,4.752-2.9,4.752-2.9l-1.547-.907H184.845l-1.547.907s4.876.546,4.752,2.9c-.221,4.171-25.639,6.438-25.639,6.438l2.339,4.221h68.333l2.155-4.221S209.82,41.822,209.6,37.651Z" fill="#f5f3f9"/><path d="M231.579,50.239H167.7c-6.941.58-11.171,1.348-11.171,2.192,0,.881,4.617,1.68,12.106,2.267h62.01c7.49-.587,12.107-1.386,12.107-2.267C242.75,51.587,238.52,50.819,231.579,50.239Z" fill="#f5f3f9"/><path d="M168.387,331.345h7.648c5.978-52.943,18.156-163.256,18.156-183.214,0-26.448-8.878-86.262-8.878-86.262l-6.053.814s10.088,60.221,10.088,84.227C189.348,165.084,175.242,277.691,168.387,331.345Z" fill="#f5f3f9"/><path d="M213.1,331.345l-5.991-135.931c4.074,42.365,10.618,101.37,14.519,135.931h7.649c-6.855-53.654-20.961-166.261-20.961-184.435,0-24.006,10.088-84.227,10.088-84.227l-6.053-.814S208.718,87.1,206.144,110.5c-.352,3.043-1.668,5.36-3.277,5.484-1.207.094-3.632-2.644-3.632-9.155V63.09l-5.448.407V331.345Z" fill="#f5f3f9"/><path d="M635.75,309.5h-15.5v-62h2v-5h-16v-42h3v-5h-3.474l-12.794-23.325a2.354,2.354,0,0,0,1.429-2.151,2.4,2.4,0,0,0-4.808,0,2.354,2.354,0,0,0,1.665,2.231L579.041,195.5H575.25v5h4v42h-9v5h3v46h-42v-12h-31V174.405L477.956,167.5l-20.884.3-11.822,5.123V264.5h-12v19h-50V236.25l-9.792-8.75H344.346l-10.1,9.021-.437,70.979H304.25v-171h-5v-3h-7v-4.833L284.4,120.5h-.151v-5h-5v4.948l-8,7.669V133.5h-7v3h-4v149h-126v-76h-64v96h-10V196.671l-60-43.059V350h635.5Z" fill="#f5f3f9"/><path d="M428.488,192.137a23.058,23.058,0,1,0-39.068,16.586c4.115,3.971,5.807,9.541,5.807,15.259l.023.526,20-.008v-.618a21.638,21.638,0,0,1,6.469-15.431,22.974,22.974,0,0,0,6.769-16.314" fill="#ffa940"/><path d="M425.556,203.39A23.026,23.026,0,0,0,394.2,172.032Z" fill="#ffb900"/><path d="M402.418,197.032l-.06-1.805h0l-.142-4.153a4.419,4.419,0,1,0-8.837,0v.183a4.4,4.4,0,0,0,2.721,4.08l.117.049a23.864,23.864,0,0,0,4.411,1.35l1.143,33.375,1.781-.061-1.133-33.017Zm-5.52-3.292-.116-.049a2.63,2.63,0,0,1-1.624-2.435v-.183a2.636,2.636,0,1,1,5.272.03l.13,3.8a22.12,22.12,0,0,1-3.662-1.16" fill="#fff"/><path d="M413.165,186.654h-.075a4.417,4.417,0,0,0-4.418,4.388l-.142,4.2a22.566,22.566,0,0,1-4.887.126l.086,1.791a24.443,24.443,0,0,0,4.738-.112l-1.13,33,1.781.061,1.142-33.353.063-1.833.133-3.851a2.638,2.638,0,0,1,2.634-2.636h.075a2.639,2.639,0,0,1,2.637,2.636v.2a2.633,2.633,0,0,1-1.613,2.43,22.217,22.217,0,0,1-2.362.833l-.079,1.873a23.813,23.813,0,0,0,3.132-1.064,4.411,4.411,0,0,0,2.7-4.072v-.2a4.423,4.423,0,0,0-4.418-4.418" fill="#fff"/><path d="M395.25,224.5v10c0,1.594,1.793,3,3.389,3h3.611v2.87h6V237.5h4.218a2.9,2.9,0,0,0,2.782-3v-10Z" fill="#b2b2b2"/><rect x="395.25" y="227.5" width="16" height="2" fill="#d2d2d2"/><rect x="395.25" y="232.5" width="16" height="2" fill="#d2d2d2"/><polygon points="488.348 222.911 490.25 223.64 490.25 252.459 490.25 316.5 486.25 316.5 486.25 227.361 488.348 222.911" fill="#d2d2d2"/><path d="M468.25,322.5v-.845a6.155,6.155,0,0,1,6.155-6.155H502.1a6.155,6.155,0,0,1,6.155,6.155v.845Z" fill="#d2d2d2"/><path d="M461.628,246.545a7.477,7.477,0,0,1-3.369-14.155l52.929-26.665a7.475,7.475,0,0,1,10.042,3.315,7.487,7.487,0,0,1-3.315,10.04l-52.93,26.666a7.4,7.4,0,0,1-3.321.8Z" fill="#d2d2d2"/><path d="M514.544,205.925a6.477,6.477,0,0,1,2.92,12.262l-52.928,26.665a6.452,6.452,0,0,1-2.877.694h-.032a6.478,6.478,0,0,1-2.917-12.263l52.928-26.665a6.448,6.448,0,0,1,2.906-.693m0-2h0a8.5,8.5,0,0,0-3.805.907L457.81,231.5a8.477,8.477,0,1,0,7.625,15.142l52.929-26.666a8.477,8.477,0,0,0-3.82-16.048Z" fill="#c2c2c2"/><path d="M466.175,238.408a4.007,4.007,0,1,1-4.007-4.007A4.007,4.007,0,0,1,466.175,238.408Z" fill="#fff"/><path d="M483.221,229.909a4.007,4.007,0,1,1-4.007-4.007A4.007,4.007,0,0,1,483.221,229.909Z" fill="#fff"/><path d="M500.266,221.409a4.007,4.007,0,1,1-4.006-4.007A4.007,4.007,0,0,1,500.266,221.409Z" fill="#fff"/><path d="M517.186,212.513a4.007,4.007,0,1,1-4.007-4.007A4.007,4.007,0,0,1,517.186,212.513Z" fill="#fff"/><path d="M405.464,243.75v50.23s8.584-66.786,42.917-71.452" fill="none" stroke="#c2c2c2" stroke-linejoin="round" stroke-width="2" stroke-dasharray="2 3"/><path d="M462.113,222.985a5.232,5.232,0,1,1-5.232-5.232A5.232,5.232,0,0,1,462.113,222.985Z" fill="#8867c8"/><line x1="71.024" y1="53.062" x2="71.024" y2="0.417" fill="none" stroke-dasharray="3.488 3.488" stroke-linecap="round" stroke-linejoin="round" stroke-width="2.41" stroke="#d2d2d2"/><path d="M76.138,58.044A6.465,6.465,0,1,0,63.3,56.986a13.328,13.328,0,0,0,.445,2.534l3.072,10.717A3.073,3.073,0,0,0,69.77,72.5a3.206,3.206,0,0,0,3.03-2.551Z" fill="#939393"/><polyline points="50.422 85.818 71.078 62.436 92.661 85.709" fill="none" stroke="#c2c2c2" stroke-miterlimit="10" stroke-width="2.41"/><path d="M77.718,57.99a6.367,6.367,0,0,0,.107-1.059,6.475,6.475,0,0,0-12.949,0,13.3,13.3,0,0,0,.446,2.535l3.071,10.717a3.076,3.076,0,0,0,2.958,2.258,3.2,3.2,0,0,0,3.029-2.55Z" fill="#c2c2c2"/><path d="M99.25,82.5h-52.5A15.55,15.55,0,0,0,31.25,98V129a15.55,15.55,0,0,0,15.505,15.5H58.532l14.49,15.053.551-15.053H98.745a15.55,15.55,0,0,0,15.5-15.5V97.931A15.47,15.47,0,0,0,98.832,82.5" fill="#ffb900"/><path d="M567.318,314.8l1.352,4.264a2.879,2.879,0,0,1-2.074,3.53c-2.856.408-3.29,1.089-4.124,2.919v0a2.9,2.9,0,0,1-3.052,1.86h-.04a6.348,6.348,0,0,1-1.018,1.087,5.4,5.4,0,0,1-.716.508,5.547,5.547,0,0,0,.718-.513,6.181,6.181,0,0,0,.976-1.031,4.972,4.972,0,0,1-2.484,1.51,1.555,1.555,0,0,1-2.118-.915c-.623-1.207,1.682-2.766,1.682-2.766-.9-.269-1.987,1.184-2.29,1.651-.428-.04-1.284-.212-1.467-.942-.314-1.243,1.8-2.188,1.8-2.188-1.993.384-2.119,1.462-2.119,1.462a1.067,1.067,0,0,0-.136.484l-.05.019c-.326-.014-1.41-.126-1.619-1.006-.313-1.312,1.805-2.311,1.805-2.311-1.993.405-2.118,1.543-2.118,1.543a1.364,1.364,0,0,0-.122.353,1.594,1.594,0,0,1-.792.155,1.687,1.687,0,0,0,.779-.177s-1.466.028-1.712-.943c-.314-1.226,1.8-2.16,1.8-2.16-1.994.38-2.119,1.443-2.119,1.443a1.291,1.291,0,0,0-.114.294,1.845,1.845,0,0,1,.07-.4,1,1,0,0,1-1.2-.751,1.993,1.993,0,0,1,1.269-2.06c.185-.1.822-.382,1.615-.73,1.263-.555,2.924-1.285,3.793-1.751,3.1-1.664,3.857-6.738,3.857-6.738a16.62,16.62,0,0,0,10.492-1.564,14.112,14.112,0,0,0-.713,4.979A2.665,2.665,0,0,0,567.318,314.8Z" fill="#dbdbdb" fill-rule="evenodd" style="isolation:isolate"/><path d="M576.1,314.8l-1.352,4.264a2.879,2.879,0,0,0,2.075,3.53c2.855.408,3.289,1.089,4.124,2.919v0a2.9,2.9,0,0,0,3.052,1.86h.04a6.3,6.3,0,0,0,1.017,1.087,5.352,5.352,0,0,0,.715.507,5.528,5.528,0,0,1-.717-.512,6.264,6.264,0,0,1-.976-1.031,4.972,4.972,0,0,0,2.484,1.51,1.556,1.556,0,0,0,2.119-.915c.622-1.207-1.682-2.766-1.682-2.766.9-.269,1.986,1.184,2.289,1.651.428-.04,1.284-.212,1.467-.942.314-1.243-1.8-2.188-1.8-2.188,1.994.384,2.119,1.462,2.119,1.462a1.042,1.042,0,0,1,.136.484l.05.019c.327-.014,1.41-.126,1.619-1.006.314-1.312-1.805-2.311-1.805-2.311,1.993.405,2.119,1.543,2.119,1.543a1.357,1.357,0,0,1,.121.353,1.6,1.6,0,0,0,.793.155,1.682,1.682,0,0,1-.779-.177s1.465.028,1.712-.943c.314-1.226-1.8-2.16-1.8-2.16,1.993.38,2.119,1.443,2.119,1.443a1.3,1.3,0,0,1,.114.3,1.908,1.908,0,0,0-.071-.4,1,1,0,0,0,1.2-.751,1.993,1.993,0,0,0-1.269-2.06c-.185-.1-.821-.382-1.614-.73-1.264-.555-2.925-1.285-3.794-1.751-3.1-1.664-3.857-6.738-3.857-6.738a16.617,16.617,0,0,1-10.491-1.564,14.139,14.139,0,0,1,.713,4.979A2.691,2.691,0,0,1,576.1,314.8Z" fill="#dbdbdb" fill-rule="evenodd" style="isolation:isolate"/><path d="M603.817,280.722l1.454,1.108-1.343-3.028c.014-.135.029-.27.035-.4l1.22.3-1.271-2.343,1.359.187-1.86-3.285,1-1.022-4.082-1.991.247-.136,1.506-1.138-4.393-1.945.993-.858-4.794-1.85-.064-.069,1.452-1.148-3.463-1-.32-.342,1.443-.739-3.166-1.1-.678-.724c-.146-.131-.293-.241-.439-.35l2.6,0-2.918-4.231,2.921.025c-.7-.444-3.873-5.313-4.712-6.616.73.586,3.067.286,3.067.286-1.006-1.05-3.053-3.629-3.938-4.753l2.671.329-2.364-4.283,2.179.536-3-3.938,2.007.256-4.86-5.74-.028.1a12.052,12.052,0,0,0-2.465-2.171c-1.736-1.478-5.311-2.493-9.439-2.493-3.8,0-7.131.861-8.991,2.151a12.14,12.14,0,0,0-3.966,3.74l-3.525,4.1,1.5.058-2.746,3.749,1.919-.349-2.231,4.469,2.493-1.05c-.738,1.736-2.086,4.722-2.992,5.667,0,0,2.244-.081,2.974-.668-.841,1.3-4.01,6.17-4.712,6.617l2.921-.025-3.079,4.889,2.988-.656-.377.242-3.182,3.407,2.124-.179-4.3,2.654,1.135,1.116-3.147.762,1.936,1.091-2.741,1.226,2.814,1.376-2.313.312,2.063,2-2.126,1.5L544,270.408l-.906.406-.073-3.241-2.209-.875-8.44,2.584.729,2.167-1.583.584,1.229,1.438-2.25,1.25,2.5,1.376-1.938,2.438,2.376.125-1.125,2.313,2.25.25-.813,2.376,2.254.148-.628,2.353,2.3-.185.142,2.414,1.792-1.083,1.292,1.625,2.144-1.287,1.642,1.2.807-1.979,2.034,1.32.667-2.543,2,1.334.625-1.917,1.482,1.024L553.521,284l.875,2.084h1.417l-1.466,2.741,1.8.259-2.96,4.5,1.975.038-1.85,5,1.85-.286-1.019,5.759,2.032-1.077-1.63,6.688,2.249-.782a16.787,16.787,0,0,1-.135,3.988l1.689-1.75.4,2.281,2.207-2.671.66,2.922,1.217-2.922,1.275,2.2.979-2.588,1.04,3.652,1.092-2.71,1.8,1.958-1.2-3.746.233-1.036,1.633.73-1.158-4.064,1.9,1.377-.633-5.81,1.5,1.51-.466-4.1.159-.108,1.673.808-.185,4.251,1.285-.843-.128,5.817,1.393-.695L574,311.655l1.7-1.794a10.709,10.709,0,0,1-.069,3.051l.969-1.6,1.1,2.728,1.05-2.623.871,2.62,1.246-2.248,1.342,1.9.994-2.369,2.208,2.671.065-2.837,1,2.125c-.119-.372.223-.8.241-1.717l1.315.912a14.091,14.091,0,0,1-.934-5.181c.01-.128-.02-.186-.078-.2,0-.05.009-.1.014-.147l1.6,2.023-.55-5.6,1.728.953L588.2,298.3l2.124,1.069-1.69-5.712L589.808,295l1.858,1.033-1.994-4.5,2.124.521-2.517-4.639-.69-.145c.587-2.5.541-6.16-.439-11.677l5.8,3.407.193.171a5.485,5.485,0,0,1-.614,1.728c-2.248,1.422-2.453,2.833-2.453,2.833l2.832-.9-1.011,2.949,2.658-1.345-.692,1.985,2.109-.8a3.252,3.252,0,0,1-.578,2.625s1.705.16,2.109-.8a3.963,3.963,0,0,1-1.185,2.753,4.122,4.122,0,0,0,2.117-.751,4.884,4.884,0,0,0,1.214-2.066l.686.827,1.67,2.117-.377-3.85,1.187.655-1.108-4.139,1.46.735-.809-2.733c.076-.187.146-.372.207-.556Z" fill="#c5b4ef"/><path d="M560.7,267.307l1.31,3.913,1.422-1.6,1.431,4.053,1.647-1.136,1.519,5.082,1.483-2.487,1.912,4.515,1.784-3.2,1.7,1.886.56-2.6.806-3.946,1.531,2.479.355-3.332,1.987,1.459.6-4.953,1.824,1.9,1.032-5.514-1.6,2.234-.92-1.668-2.3,2.918-.662-1.6-1.872,2.595-.9-2.311-1.241,2.737-1.429-2.169-.961,2.916-1.527-2.63-1.666,3.343-1.045-3.131-1.615,1.671-1.022-2.453-1.2,1.636-.981-2.062-1.013,1.634-1.686-2.523Z" fill="#d7cef4"/><path d="M597.923,285.711l-.539-.834a5.022,5.022,0,0,0-5.774-2.847,8.224,8.224,0,0,0-2.752-1.156,32.034,32.034,0,0,1,.074,3.781l-4.2,3.01a2.072,2.072,0,0,0-.9,2.341v-.021a1.322,1.322,0,0,0,1.81.754l-.048.031a1.669,1.669,0,0,0-.574,2.085l.123.274a1.274,1.274,0,0,0,1.752.694,1.8,1.8,0,0,0,.157.759l.11.242a1.333,1.333,0,0,0,1.907.691l.047-.028a1.627,1.627,0,0,0,.1.312l.195.428a1.182,1.182,0,0,0,1.691.612l4.468-2.82A6.23,6.23,0,0,0,597.923,285.711Z" fill="#dbdbdb" style="isolation:isolate"/><path d="M588.381,288.361c.016.014.774.118.785.139.084.121-.339-.1-.458-.023l-.357.307-2.709,1.988a1.093,1.093,0,0,1-.709.046Z" fill="#c2c2c2"/><path d="M589.814,291.561c.016.014.388-.263.4-.244.082.123.437.677.314.758l-.755-.09-2.753,1.929a1.085,1.085,0,0,1-.709.03Z" fill="#c2c2c2"/><path d="M591.624,293.539c.016.017.348-.232.36-.214a.259.259,0,0,1-.051.358l-.323.27-2.458,1.718a.963.963,0,0,1-.66-.019Z" fill="#c2c2c2"/><path d="M538.767,260.363c-.917-1.167-5.418-2.766-6.252-3.126s-1.594-.734-1.954-.938a1.558,1.558,0,0,0-.248,2.748,22.394,22.394,0,0,0,3.119,1.649,3,3,0,0,0-1.563.146,10.813,10.813,0,0,0-1.594,1,15.378,15.378,0,0,1-2.188-1.282,12.679,12.679,0,0,1-2.1-2.11l-.025.008a1.274,1.274,0,0,0-1-.509,1.3,1.3,0,0,0-1.3,1.3.984.984,0,0,0,.022.108,1.3,1.3,0,0,0-2.219.912,1.252,1.252,0,0,1-.682,2.053,1.247,1.247,0,0,1,0,1.7,1.282,1.282,0,0,0,.685,1.123l0,.015a21.5,21.5,0,0,0,3.794,2.625c1.917.972,7.281,1.335,8.544,2.5A8.281,8.281,0,0,1,535.5,272.6c5.877-.375,6.439-4.439,6.439-4.439S539.684,261.53,538.767,260.363Z" fill="#dbdbdb" style="isolation:isolate"/><path d="M557.425,247.491c.518-4.22,3.549-7.388,7.03-7.213a6.308,6.308,0,0,1,5.078,3.429,1.086,1.086,0,0,0,.709.069,6.311,6.311,0,0,1,5.422-2.921c3.682.188,6.48,4.055,6.244,8.635-.028.563-.27,2.744-.27,2.744-.227,4.4-4.306,7.792-9.07,7.545l-7.089-.713c-4.764-.244-8.473-4.04-8.249-8.437A17.718,17.718,0,0,1,557.425,247.491Z" fill="#f3f3f3" style="isolation:isolate"/><path d="M574.017,249.5a1.577,1.577,0,1,1,1.678-1.468A1.577,1.577,0,0,1,574.017,249.5Z" fill="#c2c2c2"/><path d="M563.013,248.878a1.577,1.577,0,1,1,1.679-1.468A1.577,1.577,0,0,1,563.013,248.878Z" fill="#c2c2c2"/><path d="M564.43,252.474l3.813.2,1,.049,3.813.2c.912.048.624.751.579,1.623a1.634,1.634,0,0,1-1.742,1.5l-3.2-.165-.227-.011-3.2-.165a1.633,1.633,0,0,1-1.578-1.672C563.732,253.159,563.518,252.431,564.43,252.474Z" fill="#c2c2c2"/><path d="M569.916,256.009l1.318-1.637a.454.454,0,0,1,.807.3l.013,1.445Z" fill="#fff"/><path d="M567.3,252.63l-.578,1.573a.391.391,0,0,1-.742-.019s-.527-1.62-.508-1.645Z" fill="#fff"/><path d="M575.454,244.048a4.555,4.555,0,0,0-2.735,0c-.222.075-.465-.152-.347-.331a3.174,3.174,0,0,1,3.344-1.192,3.22,3.22,0,0,1,2.795,3.379l0,.008c-.036.213-.374.231-.492.027A4.416,4.416,0,0,0,575.454,244.048Z" fill="#c2c2c2"/><path d="M563.328,240.812a4.567,4.567,0,0,0-2.413,1.288c-.161.171-.482.085-.463-.129a3.176,3.176,0,0,1,2.39-2.625,3.222,3.222,0,0,1,4.057,1.667v.008c.069.205-.221.38-.42.255A4.417,4.417,0,0,0,563.328,240.812Z" fill="#c2c2c2"/><path d="M542.363,267.314l-2.309-.823.313,2.063-1.75-.313v2.188L537.3,270.1l-.437,1.334-1.813-1.938-1.25,1.625,1.125,2.938s3.75-.64,5.625-2.32A6.307,6.307,0,0,0,542.363,267.314Z" fill="#c5b4ef"/><path d="M96.333,164.4c-.083-18.25-16.287-25.452-15.25-24.75" fill="none" stroke="#c2c2c2" stroke-miterlimit="10" stroke-width="2" stroke-dasharray="2 3"/><path d="M290.25,211.5H317.8a4.13,4.13,0,0,0,.167.845c1.958-.013,2.445,3.122.819,4.548l0,0a8.664,8.664,0,1,0,10.657-.394c-.017-.014-.028-.028-.046-.043-1.939-1.571-1.127-4.186.9-4.2.063,0,.1-.007.153.238h27.8v25.653c-.406,2.038,2.22,2.853,3.8.905.014-.018.028-.028.043-.045a8.691,8.691,0,1,1,.395,10.7l0-.005c-1.432-1.633-4.231.822-4.231.822V276.5h-68Z" fill="#d2d2d2"/><path d="M112.982,285.167a5.232,5.232,0,1,1-5.232-5.233A5.232,5.232,0,0,1,112.982,285.167Z" fill="#8867c8"/><circle cx="72.973" cy="135.82" r="5.232" fill="#8867c8"/><path d="M63.1,135.675a5.233,5.233,0,1,1-5.233-5.232A5.232,5.232,0,0,1,63.1,135.675Z" fill="#8867c8"/><path d="M51.038,135.82a5.232,5.232,0,1,1-5.232-5.232A5.231,5.231,0,0,1,51.038,135.82Z" fill="#8867c8"/><path d="M56.459,125.755a5.233,5.233,0,1,1-5.233-5.232A5.233,5.233,0,0,1,56.459,125.755Z" fill="#8867c8"/><path d="M276.819,217.775a5.233,5.233,0,1,1-5.232-5.232A5.233,5.233,0,0,1,276.819,217.775Z" fill="#8867c8"/><path d="M68.816,125.23A5.233,5.233,0,1,1,63.583,120,5.232,5.232,0,0,1,68.816,125.23Z" fill="#8867c8"/><path d="M62.482,115.167a5.232,5.232,0,1,1-5.232-5.233A5.232,5.232,0,0,1,62.482,115.167Z" fill="#8867c8"/><path d="M303.326,264.814a41.709,41.709,0,0,1-25.917-8.929c-6-4.873-13.159-13.856-13.159-28.981V190.828a7,7,0,1,1,14,0V226.9c0,8.271,5.241,23.912,25.078,23.912a7,7,0,0,1,0,14Z" fill="none" stroke="#b2b2b2" stroke-linecap="round" stroke-linejoin="round" stroke-width="1.462"/><path d="M278.147,190.625a6.907,6.907,0,1,1-6.907-6.907A6.908,6.908,0,0,1,278.147,190.625Z" fill="none" stroke="#b2b2b2" stroke-linecap="round" stroke-linejoin="round" stroke-width="1.469"/><path d="M310.366,257.815a6.874,6.874,0,1,1-6.873-6.874A6.873,6.873,0,0,1,310.366,257.815Z" fill="none" stroke="#b2b2b2" stroke-linecap="round" stroke-linejoin="round" stroke-width="1.462"/><polygon points="240.152 173.009 238.25 173.739 238.25 177.459 238.25 316.5 242.25 316.5 242.25 177.459 240.152 173.009" fill="#d2d2d2"/><path d="M260.25,322.5v-.845A6.155,6.155,0,0,0,254.1,315.5h-27.69a6.155,6.155,0,0,0-6.155,6.155v.845Z" fill="#d2d2d2"/><path d="M239.772,281.675a7.554,7.554,0,0,1-7.522-7.57l-.092-97.706a7.546,7.546,0,1,1,15.092.044l.092,97.706a7.543,7.543,0,0,1-7.547,7.526Z" fill="#d2d2d2"/><path d="M239.705,169.873h.021a6.547,6.547,0,0,1,6.524,6.567l.091,97.71a6.541,6.541,0,0,1-6.546,6.525h-.021a6.547,6.547,0,0,1-6.524-6.567l-.091-97.71a6.548,6.548,0,0,1,6.546-6.525m0-2a8.563,8.563,0,0,0-8.546,8.518l.091,97.719a8.546,8.546,0,0,0,16.188,3.846,8.454,8.454,0,0,0,.9-3.8l-.091-97.719a8.555,8.555,0,0,0-8.518-8.565h-.027Z" fill="#c2c2c2"/><path d="M241.579,269.256a4.007,4.007,0,1,1-5.387,1.759A4.007,4.007,0,0,1,241.579,269.256Z" fill="#fff"/><path d="M241.716,250.209a4.007,4.007,0,1,1-5.387,1.759A4.008,4.008,0,0,1,241.716,250.209Z" fill="#fff"/><path d="M241.853,231.163a4.007,4.007,0,1,1-5.387,1.759A4.006,4.006,0,0,1,241.853,231.163Z" fill="#fff"/><path d="M241.579,212.048a4.007,4.007,0,1,1-5.387,1.759A4.008,4.008,0,0,1,241.579,212.048Z" fill="#fff"/><path d="M241.716,193a4.007,4.007,0,1,1-5.387,1.759A4.008,4.008,0,0,1,241.716,193Z" fill="#fff"/><path d="M241.853,173.955a4.007,4.007,0,1,1-5.387,1.759A4.007,4.007,0,0,1,241.853,173.955Z" fill="#fff"/><path d="M173.649,219.147a5.233,5.233,0,1,1-5.232-5.232A5.232,5.232,0,0,1,173.649,219.147Z" fill="#8867c8"/><rect x="158.25" y="226.5" width="19" height="5" fill="#ffb900"/><rect x="177.25" y="245.5" width="19" height="5" fill="#ffb900"/><rect x="196.25" y="264.5" width="19" height="5" fill="#ffb900"/><path d="M185.917,238.833h3.707c13.126,0,15.251,7.411,15.251,13.647v7h12.042" fill="none" stroke="#c2c2c2" stroke-miterlimit="10" stroke-width="2" stroke-dasharray="2 3"/><path d="M271.25,211.48V189.3c0-6.392.752-33.465-27.825-33.465C230.25,155.83,225,169.743,225,169.743" fill="none" stroke="#c2c2c2" stroke-miterlimit="10" stroke-width="2" stroke-dasharray="2 3"/><path d="M229.649,259.647a5.233,5.233,0,1,1-5.232-5.232A5.232,5.232,0,0,1,229.649,259.647Z" fill="#8867c8"/><path d="M327.482,258.314a5.232,5.232,0,1,1-5.232-5.233A5.232,5.232,0,0,1,327.482,258.314Z" fill="#8867c8"/><path d="M315.419,258.459a5.233,5.233,0,1,1-5.232-5.232A5.232,5.232,0,0,1,315.419,258.459Z" fill="#8867c8"/><line x1="345.75" y1="211.73" x2="345.75" y2="233.73" fill="none" stroke="#fff" stroke-miterlimit="10" stroke-width="2" stroke-dasharray="2 3"/><path d="M404.75,166.625c-1.625-16.75-17.4-25.145-29.67-25.145h0a30.163,30.163,0,0,0-30.163,30.164v16.59" fill="none" stroke="#c2c2c2" stroke-miterlimit="10" stroke-width="2" stroke-dasharray="2 3"/><path d="M350.649,209.48a5.233,5.233,0,1,1-5.232-5.232A5.232,5.232,0,0,1,350.649,209.48Z" fill="#8867c8"/><circle cx="405.625" cy="179.25" r="5.232" fill="#8867c8"/><path d="M344.309,264.712l-8.328,5.768h2.924l6.866-4.756,6.866,4.756h2.924l-8.328-5.768,8.312-5.758-8.354-5.786,8.354-5.786-8.312-5.758,7.723-5.35-1.368-1.077-7.817,5.414-7.928-5.491-1.275,1.142,7.741,5.362-8.354,5.786,8.313,5.758-8.313,5.758Zm-5.43-17.3,6.892-4.774,6.85,4.746-6.891,4.773Zm6.851,6.77,6.891,4.774-6.85,4.745-6.892-4.773Z" fill="#b2b2b2"/><rect x="335.25" y="231.5" width="22" height="5" fill="#fff"/><path d="M505.9,199.788a16.063,16.063,0,0,1,23.221,14.375V250" fill="none" stroke="#c2c2c2" stroke-miterlimit="10" stroke-width="2" stroke-dasharray="2 3"/><rect x="403.243" y="303.214" width="4.765" height="18.829" fill="#d2d2d2"/><path d="M410.443,314.48v-10.7a4.765,4.765,0,1,0-9.529,0v10.7Z" fill="#d2d2d2"/><rect x="394.25" y="297.5" width="21" height="2" fill="#d2d2d2"/><rect x="392.25" y="320.5" width="26" height="2" fill="#d2d2d2"/><path d="M408.031,304.414a2.246,2.246,0,1,1-2.246-2.246A2.246,2.246,0,0,1,408.031,304.414Z" fill="#e6e6e6"/><path d="M533.816,259.5a5.233,5.233,0,1,1-5.233-5.232A5.232,5.232,0,0,1,533.816,259.5Z" fill="#8867c8"/><path d="M553.269,251.812c-2.642-.2-4.589-2.822-4.35-5.869s2.574-5.358,5.216-5.164,4.589,2.822,4.35,5.869S555.91,252.006,553.269,251.812Z" fill="#e88c31"/><path d="M568,262.661c-9.435-.695-16.532-8.272-15.853-16.924s8.877-15.1,18.311-14.409,16.531,8.272,15.852,16.925S577.428,263.356,568,262.661Z" fill="#505050"/><path d="M556.972,247.592c.54-3.96,3.507-6.911,6.882-6.715a6.118,6.118,0,0,1,4.893,3.265,1.073,1.073,0,0,0,.687.071,6.184,6.184,0,0,1,5.284-2.7c3.57.21,6.248,3.867,5.979,8.168-.033.529-.287,2.576-.287,2.576-.261,4.129-4.247,7.283-8.865,7.009l-6.867-.732c-4.619-.27-8.181-3.87-7.925-8A16.077,16.077,0,0,1,556.972,247.592Z" fill="#e6e6e6" style="isolation:isolate"/><path d="M574.054,249.66a1.5,1.5,0,0,1-1.409-1.589,1.515,1.515,0,0,1,1.641-1.365,1.5,1.5,0,0,1,1.409,1.59A1.515,1.515,0,0,1,574.054,249.66Z" fill="#939393"/><path d="M562.373,248.973a1.5,1.5,0,0,1-1.408-1.59,1.514,1.514,0,0,1,1.64-1.364,1.5,1.5,0,0,1,1.409,1.589A1.514,1.514,0,0,1,562.373,248.973Z" fill="#939393"/><path d="M563.72,252.335l3.7.219.968.055,3.7.218c.883.053.6.711.547,1.53a1.571,1.571,0,0,1-1.7,1.4l-3.1-.183-.22-.012-3.1-.183a1.556,1.556,0,0,1-1.516-1.585C563.037,252.972,562.836,252.286,563.72,252.335Z" fill="#939393"/><path d="M569.008,255.7l1.293-1.526a.442.442,0,0,1,.78.292v1.358Z" fill="#fff"/><path d="M566.5,252.507l-.575,1.472a.383.383,0,0,1-.72-.025s-.5-1.526-.478-1.549Z" fill="#fff"/><path d="M574.454,245.1a4.545,4.545,0,0,0-2.592.546c-.195.113-.472-.047-.4-.235a3.086,3.086,0,0,1,2.925-1.76c1.769-.022,3.264,1.121,3.343,2.547v.008c.009.2-.308.286-.461.122A4.349,4.349,0,0,0,574.454,245.1Z" fill="#939393"/><path d="M562.868,244.244a4.537,4.537,0,0,0-2.592.546c-.2.113-.472-.047-.4-.235a3.085,3.085,0,0,1,2.925-1.76c1.769-.022,3.264,1.121,3.343,2.546v.009c.009.2-.307.286-.46.122A4.348,4.348,0,0,0,562.868,244.244Z" fill="#939393"/><g opacity="0.5" style="mix-blend-mode:multiply"><path d="M572.081,262.457c6.55-4.4,8.523-12.388,4.42-17.855l-2.2-2.927a12.627,12.627,0,0,0-10.476-4.73c6.17-2.909,13.43-1.7,17.089,3.173l2.2,2.927c4.107,5.467,2.129,13.462-4.416,17.855a16.336,16.336,0,0,1-8.809,2.788A16.734,16.734,0,0,0,572.081,262.457Z" fill="#b2b2b2"/></g><path d="M550.43,244.205a21.39,21.39,0,0,0,19.785,23.058c9.819.7,21.021-7.366,21.951-19.228s-6.722-22.853-18.58-23.726A21.66,21.66,0,0,0,550.43,244.205Zm2.305,3.239c.16-6.94,7.173-9.946,15.587-9.177s15.824,5.109,15.161,12.02-8.393,11.839-16.807,11.069S552.57,254.643,552.735,247.444Z" fill="#ffb900"/><path d="M589.083,240.69a19.171,19.171,0,0,0-16.593-12.226,19.46,19.46,0,0,0-16.164,6.623q-.332.281-.644.572a17.836,17.836,0,0,1,17.393-9.9,17.551,17.551,0,0,1,16.2,14.774C589.211,240.582,589.147,240.636,589.083,240.69Z" fill="#f3f3f3" opacity="0.5" style="isolation:isolate"/><path d="M583.465,248.709c-.614-5.938-7.554-9.747-15.25-10.45-7.531-.687-13.853,1.751-15.236,7.265a7.8,7.8,0,0,1-.021-1.114c.5-6.382,7.249-10.875,15.667-10.106s15.756,6.081,15.1,12.946A10.415,10.415,0,0,1,583.465,248.709Z" fill="#e88c31"/><path d="M590,243.7l1.9.14-.108,1.249a8.134,8.134,0,0,1,.775,4.446,8.032,8.032,0,0,1-1.539,4.375l-.1,1.147s-1.379-.1-1.81-.13c-1.661-.122-2.81-2.735-2.567-5.835S588.34,243.581,590,243.7Z" fill="#e88c31"/><path d="M591.02,255.07c-1.661-.122-2.81-2.735-2.567-5.835s1.787-5.514,3.448-5.392,2.81,2.735,2.567,5.835S592.681,255.192,591.02,255.07Z" fill="#ffb900"/><path d="M592.175,245.8c-1.333-.1-2.588,2.044-2.8,4.789a9.49,9.49,0,0,0,.045,1.987,8.63,8.63,0,0,1-.307-3.212c.215-2.741,1.47-4.887,2.8-4.789.992.073,1.748,1.368,1.981,3.154C593.537,246.6,592.923,245.853,592.175,245.8Z" fill="#f3f3f3" opacity="0.5" style="isolation:isolate"/><path d="M125.917,166.5,103.25,197.25V266c0,8.636,5.364,14,14,14,6.232,0,12-1.757,12-14.5V235.25c0-13.472,9.778-23.25,23.25-23.25a7,7,0,0,1,0,14c-6.827,0-9.25,4.982-9.25,9.25V265.5c0,18.112-9.477,28.5-26,28.5-16.486,0-28-11.514-28-28V197.25l-22.5-30.417" fill="none" stroke="#b2b2b2" stroke-linecap="round" stroke-linejoin="round" stroke-width="1.462"/><path d="M159.866,219.065a6.874,6.874,0,1,1-6.873-6.874A6.873,6.873,0,0,1,159.866,219.065Z" fill="none" stroke="#b2b2b2" stroke-linecap="round" stroke-linejoin="round" stroke-width="1.462"/><path d="M101.649,170.667a5.233,5.233,0,1,1-5.232-5.233A5.233,5.233,0,0,1,101.649,170.667Z" fill="#8867c8"/><path d="M101.583,280.167c-4.5-5.167-5-10.5-5-19.667V222" fill="none" stroke="#c2c2c2" stroke-miterlimit="10" stroke-width="2" stroke-dasharray="2 3"/><path d="M126.09,166.083c0,2.082-13.4,3.769-29.923,3.769s-29.923-1.687-29.923-3.769,13.4-3.768,29.923-3.768S126.09,164,126.09,166.083Z" fill="none" stroke="#b2b2b2" stroke-linecap="round" stroke-linejoin="round" stroke-width="1.462"/><path d="M157.917,219.065C145.3,218,136.25,222,136.25,237.667" fill="none" stroke="#c2c2c2" stroke-miterlimit="10" stroke-width="2" stroke-dasharray="2 3"/><path d="M258.574,87.655V59.7h8.07q15.456,0,15.457,13.625a13.426,13.426,0,0,1-4.289,10.4q-4.287,3.928-11.5,3.927Zm4.619-24.014v20.1h3.7q4.893,0,7.612-2.689t2.719-7.6q0-9.8-10.156-9.8Z" fill="#737373"/><path d="M303.6,78.9H290a5.746,5.746,0,0,0,1.706,4.269,6.341,6.341,0,0,0,4.473,1.5,9.865,9.865,0,0,0,5.867-1.91v3.645a13.4,13.4,0,0,1-7.212,1.715,8.929,8.929,0,0,1-6.91-2.719q-2.5-2.72-2.5-7.651a10.634,10.634,0,0,1,2.758-7.592,9.023,9.023,0,0,1,6.851-2.933,7.865,7.865,0,0,1,6.335,2.631,10.923,10.923,0,0,1,2.242,7.31Zm-4.367-3.2a5.821,5.821,0,0,0-1.15-3.792,3.844,3.844,0,0,0-3.118-1.354,4.388,4.388,0,0,0-3.3,1.422A6.511,6.511,0,0,0,290,75.707Z" fill="#737373"/><path d="M325.1,67.695l-7.719,19.96h-4.893l-7.347-19.96h4.912l4.424,13.956a13.164,13.164,0,0,1,.624,2.691h.058a14.464,14.464,0,0,1,.546-2.613l4.639-14.034Z" fill="#737373"/><path d="M344.748,78.9H331.143a5.743,5.743,0,0,0,1.706,4.269,6.34,6.34,0,0,0,4.472,1.5,9.865,9.865,0,0,0,5.867-1.91v3.645a13.4,13.4,0,0,1-7.211,1.715,8.929,8.929,0,0,1-6.911-2.719q-2.5-2.72-2.5-7.651a10.634,10.634,0,0,1,2.758-7.592,9.024,9.024,0,0,1,6.852-2.933,7.867,7.867,0,0,1,6.335,2.631,10.928,10.928,0,0,1,2.241,7.31Zm-4.366-3.2a5.826,5.826,0,0,0-1.151-3.792,3.842,3.842,0,0,0-3.118-1.354,4.386,4.386,0,0,0-3.3,1.422,6.5,6.5,0,0,0-1.667,3.724Z" fill="#737373"/><path d="M353.6,87.655h-4.542V58.105H353.6Z" fill="#737373"/><path d="M368.334,88.123a9.9,9.9,0,0,1-7.378-2.8,10.1,10.1,0,0,1-2.758-7.417q0-5.028,2.875-7.855a10.571,10.571,0,0,1,7.748-2.826,9.578,9.578,0,0,1,7.29,2.748q2.613,2.749,2.612,7.622a10.46,10.46,0,0,1-2.817,7.65A10.116,10.116,0,0,1,368.334,88.123Zm.214-17.289a5.161,5.161,0,0,0-4.191,1.852,7.753,7.753,0,0,0-1.54,5.106,7.3,7.3,0,0,0,1.56,4.941,5.233,5.233,0,0,0,4.171,1.8,4.97,4.97,0,0,0,4.1-1.773,7.855,7.855,0,0,0,1.433-5.049,7.971,7.971,0,0,0-1.433-5.087A4.947,4.947,0,0,0,368.548,70.834Z" fill="#737373"/><path d="M387.923,84.712h-.077V96.836h-4.523V67.695h4.523V71.2h.077a7.41,7.41,0,0,1,6.783-3.976,7.147,7.147,0,0,1,5.926,2.67,11.2,11.2,0,0,1,2.125,7.173,12.429,12.429,0,0,1-2.4,7.991,7.927,7.927,0,0,1-6.549,3A6.541,6.541,0,0,1,387.923,84.712Zm-.116-7.875v2.475a5.284,5.284,0,0,0,1.393,3.7,4.921,4.921,0,0,0,7.485-.44,9.116,9.116,0,0,0,1.432-5.467,7.186,7.186,0,0,0-1.335-4.61,4.387,4.387,0,0,0-3.615-1.666,4.871,4.871,0,0,0-3.889,1.715A6.353,6.353,0,0,0,387.807,76.837Z" fill="#737373"/><path d="M424.275,78.9h-13.6a5.746,5.746,0,0,0,1.706,4.269,6.341,6.341,0,0,0,4.473,1.5,9.867,9.867,0,0,0,5.867-1.91v3.645a13.4,13.4,0,0,1-7.212,1.715,8.927,8.927,0,0,1-6.91-2.719q-2.505-2.72-2.5-7.651a10.634,10.634,0,0,1,2.758-7.592,9.023,9.023,0,0,1,6.851-2.933,7.865,7.865,0,0,1,6.335,2.631,10.928,10.928,0,0,1,2.241,7.31Zm-4.366-3.2a5.826,5.826,0,0,0-1.15-3.792,3.844,3.844,0,0,0-3.118-1.354,4.388,4.388,0,0,0-3.3,1.422,6.511,6.511,0,0,0-1.667,3.724Z" fill="#737373"/><path d="M440.162,72a3.747,3.747,0,0,0-2.358-.643,4.037,4.037,0,0,0-3.353,1.813,8.108,8.108,0,0,0-1.345,4.931v9.551h-4.522V67.695h4.522v4.114h.078a6.967,6.967,0,0,1,2.037-3.286,4.6,4.6,0,0,1,3.07-1.178,3.812,3.812,0,0,1,1.871.37Z" fill="#737373"/><path d="M454.839,87.655V59.7h8.069q15.457,0,15.457,13.625a13.426,13.426,0,0,1-4.288,10.4q-4.287,3.928-11.5,3.927Zm4.619-24.014v20.1h3.7q4.893,0,7.611-2.689t2.719-7.6q0-9.8-10.155-9.8Z" fill="#737373"/><path d="M498.286,87.655H493.9V84.536h-.077a6.6,6.6,0,0,1-6.062,3.587,6.38,6.38,0,0,1-4.61-1.6,5.589,5.589,0,0,1-1.667-4.229q0-5.654,6.511-6.588l5.925-.839q0-4.269-4.054-4.268a9.626,9.626,0,0,0-6.432,2.456V69.1a14.031,14.031,0,0,1,7.29-1.871q7.563,0,7.562,7.446Zm-4.366-9.8-4.191.585a6.633,6.633,0,0,0-2.933.945,2.763,2.763,0,0,0-.984,2.427,2.655,2.655,0,0,0,.906,2.076,3.51,3.51,0,0,0,2.427.808,4.475,4.475,0,0,0,3.42-1.452,5.144,5.144,0,0,0,1.355-3.654Z" fill="#737373"/><path d="M521.092,67.695l-9,23.157q-2.806,6.2-7.875,6.2a9.441,9.441,0,0,1-2.378-.254V93.035a6.321,6.321,0,0,0,1.949.351,4.022,4.022,0,0,0,3.781-2.495l1.345-3.275-7.932-19.921h5.008l4.757,14.5c.052.183.168.663.351,1.443h.1q.1-.449.351-1.4l4.99-14.541Z" fill="#737373"/><path d="M551.578,87.655H534.035V85.491a8.111,8.111,0,0,1,.37-2.484,10.057,10.057,0,0,1,.994-2.184,12.213,12.213,0,0,1,1.462-1.929q.838-.907,1.794-1.754T540.6,75.5q.995-.789,1.95-1.589.894-.76,1.636-1.491a9.931,9.931,0,0,0,1.268-1.51,6.841,6.841,0,0,0,.818-1.647,5.849,5.849,0,0,0,.292-1.881,5.083,5.083,0,0,0-.34-1.94,3.767,3.767,0,0,0-.956-1.383,4.043,4.043,0,0,0-1.452-.839,5.712,5.712,0,0,0-1.832-.283,8.466,8.466,0,0,0-3.489.8,11.938,11.938,0,0,0-3.411,2.4V61.789a14.176,14.176,0,0,1,1.734-1.12,11.934,11.934,0,0,1,1.814-.8,11.183,11.183,0,0,1,1.968-.477,14.767,14.767,0,0,1,2.2-.156,11.107,11.107,0,0,1,3.43.5,7.29,7.29,0,0,1,2.631,1.462,6.417,6.417,0,0,1,1.687,2.408,8.634,8.634,0,0,1,.594,3.313,10.285,10.285,0,0,1-.419,3.05,9.858,9.858,0,0,1-1.189,2.524,13.125,13.125,0,0,1-1.861,2.223q-1.092,1.052-2.437,2.163-1.131.916-2.251,1.784t-2.017,1.7a9.5,9.5,0,0,0-1.453,1.658,2.967,2.967,0,0,0-.555,1.666v.1h12.611Z" fill="#737373"/><path d="M565.066,88.123a7.8,7.8,0,0,1-6.812-3.567q-2.446-3.567-2.446-10.311,0-7.407,2.553-11.208a8.335,8.335,0,0,1,7.368-3.8q9.219,0,9.219,14.326,0,7.1-2.6,10.829A8.376,8.376,0,0,1,565.066,88.123Zm.449-25.281q-5.088,0-5.088,11.208,0,10.486,4.99,10.486,4.911,0,4.912-10.662Q570.329,62.843,565.515,62.842Z" fill="#737373"/><path d="M588.438,59.08V87.655h-4.522V64.615a14.36,14.36,0,0,1-2.642,1.491,21.481,21.481,0,0,1-3.225,1.082V63.329q1.13-.369,2.182-.779t2.077-.916q1.023-.507,2.066-1.131t2.153-1.423Z" fill="#737373"/><path d="M612.919,72.159a25.285,25.285,0,0,1-.906,7.212,14.3,14.3,0,0,1-2.5,4.971,9.812,9.812,0,0,1-3.723,2.875,11.414,11.414,0,0,1-4.591.926,13.421,13.421,0,0,1-1.608-.1c-.539-.066-1.052-.149-1.539-.253s-.93-.218-1.327-.342a8.837,8.837,0,0,1-.984-.36V83.017a8.086,8.086,0,0,0,1.014.515,10.744,10.744,0,0,0,1.316.469,13.181,13.181,0,0,0,1.481.331,9.117,9.117,0,0,0,1.491.127,6.937,6.937,0,0,0,3.012-.644,6.189,6.189,0,0,0,2.309-1.91,9.216,9.216,0,0,0,1.472-3.148,16.5,16.5,0,0,0,.516-4.357h-.078a5.141,5.141,0,0,1-.925,1.18,6.485,6.485,0,0,1-1.316.975,7.341,7.341,0,0,1-1.646.672,7.18,7.18,0,0,1-1.94.253,8.589,8.589,0,0,1-3.265-.614,7.687,7.687,0,0,1-2.622-1.744,8.047,8.047,0,0,1-1.745-2.749,9.817,9.817,0,0,1-.632-3.605,10.364,10.364,0,0,1,.72-3.948,8.64,8.64,0,0,1,4.971-4.912,10.113,10.113,0,0,1,3.723-.672,9.131,9.131,0,0,1,3.577.711,7.728,7.728,0,0,1,2.963,2.261,11.549,11.549,0,0,1,2.026,4.006A20.508,20.508,0,0,1,612.919,72.159ZM608.2,69.177a8.529,8.529,0,0,0-.361-2.554,6.081,6.081,0,0,0-1-1.969,4.55,4.55,0,0,0-1.529-1.266,4.243,4.243,0,0,0-1.94-.449,4.318,4.318,0,0,0-1.784.38A4.422,4.422,0,0,0,600.1,64.4a5.234,5.234,0,0,0-1,1.7,6.267,6.267,0,0,0-.37,2.2,6.975,6.975,0,0,0,.36,2.339,4.882,4.882,0,0,0,1,1.706,4.194,4.194,0,0,0,1.55,1.051,5.326,5.326,0,0,0,2,.362,4.436,4.436,0,0,0,1.8-.362,4.6,4.6,0,0,0,1.443-.974,4.455,4.455,0,0,0,.965-1.452A4.6,4.6,0,0,0,608.2,69.177Z" fill="#737373"/><rect x="221.25" y="185.5" width="11" height="1" fill="#c2c2c2"/><rect x="221.25" y="205.5" width="11" height="1" fill="#c2c2c2"/><rect x="221.25" y="225.5" width="11" height="1" fill="#c2c2c2"/><rect x="221.25" y="245.5" width="11" height="1" fill="#c2c2c2"/><rect x="221.25" y="265.5" width="11" height="1" fill="#c2c2c2"/><path d="M558.907,17.745V29.981h-2.125V20.39h-.034l-3.8,9.591h-1.408l-3.891-9.591h-.026v9.591h-1.962V17.745h3.046l3.516,9.071h.05l3.712-9.071Zm1.777.93a1.121,1.121,0,0,1,.371-.857,1.251,1.251,0,0,1,.883-.346,1.236,1.236,0,0,1,.9.354,1.15,1.15,0,0,1,.358.849,1.107,1.107,0,0,1-.367.845,1.269,1.269,0,0,1-.9.341,1.241,1.241,0,0,1-.891-.345A1.119,1.119,0,0,1,560.684,18.675Zm2.278,2.534v8.772H560.9V21.209Zm6.264,7.271a2.838,2.838,0,0,0,1.015-.214,4.266,4.266,0,0,0,1.024-.563v1.92a4.147,4.147,0,0,1-1.122.427,6.161,6.161,0,0,1-1.378.145,4.174,4.174,0,0,1-4.361-4.352,5,5,0,0,1,1.238-3.486,4.481,4.481,0,0,1,3.507-1.369,4.776,4.776,0,0,1,1.173.149,3.91,3.91,0,0,1,.943.345v1.98a4.235,4.235,0,0,0-.977-.542,2.821,2.821,0,0,0-1.02-.192,2.588,2.588,0,0,0-1.971.794,2.987,2.987,0,0,0-.751,2.142,2.85,2.85,0,0,0,.721,2.073A2.6,2.6,0,0,0,569.226,28.48Zm7.918-7.416a2.58,2.58,0,0,1,.444.035,1.866,1.866,0,0,1,.333.085v2.09a1.827,1.827,0,0,0-.474-.226,2.354,2.354,0,0,0-.755-.106,1.6,1.6,0,0,0-1.284.64,3.07,3.07,0,0,0-.525,1.971v4.428h-2.065V21.209h2.065v1.383h.034a2.42,2.42,0,0,1,.853-1.122A2.315,2.315,0,0,1,577.144,21.064Zm.888,4.659a4.752,4.752,0,0,1,1.229-3.447,4.523,4.523,0,0,1,3.413-1.271,4.207,4.207,0,0,1,3.213,1.224,4.621,4.621,0,0,1,1.156,3.307,4.662,4.662,0,0,1-1.228,3.4,4.454,4.454,0,0,1-3.346,1.263,4.377,4.377,0,0,1-3.238-1.2A4.423,4.423,0,0,1,578.032,25.723Zm2.151-.068a3.129,3.129,0,0,0,.623,2.1,2.22,2.22,0,0,0,1.783.726,2.078,2.078,0,0,0,1.715-.726,3.349,3.349,0,0,0,.589-2.15,3.238,3.238,0,0,0-.61-2.138,2.121,2.121,0,0,0-1.711-.721,2.161,2.161,0,0,0-1.762.756A3.285,3.285,0,0,0,580.183,25.655Zm9.932-2.142a.886.886,0,0,0,.282.7,4.792,4.792,0,0,0,1.245.635,4.24,4.24,0,0,1,1.737,1.114,2.308,2.308,0,0,1,.5,1.5,2.409,2.409,0,0,1-.951,1.988,4.048,4.048,0,0,1-2.573.751,6.149,6.149,0,0,1-1.208-.133,5.377,5.377,0,0,1-1.122-.337V27.7a5.108,5.108,0,0,0,1.212.622,3.544,3.544,0,0,0,1.178.231,2.1,2.1,0,0,0,1.032-.2.7.7,0,0,0,.333-.657.91.91,0,0,0-.346-.721,5.1,5.1,0,0,0-1.309-.679A4.053,4.053,0,0,1,588.5,25.22a2.353,2.353,0,0,1-.478-1.519,2.4,2.4,0,0,1,.943-1.95,3.764,3.764,0,0,1,2.445-.763,5.947,5.947,0,0,1,1.033.1,4.532,4.532,0,0,1,.955.265v1.962a4.424,4.424,0,0,0-.955-.469,3.193,3.193,0,0,0-1.084-.2,1.572,1.572,0,0,0-.917.231A.728.728,0,0,0,590.115,23.513Zm4.65,2.21a4.752,4.752,0,0,1,1.229-3.447,4.523,4.523,0,0,1,3.413-1.271,4.207,4.207,0,0,1,3.213,1.224,4.621,4.621,0,0,1,1.156,3.307,4.662,4.662,0,0,1-1.228,3.4A4.454,4.454,0,0,1,599.2,30.2a4.377,4.377,0,0,1-3.238-1.2A4.423,4.423,0,0,1,594.765,25.723Zm2.151-.068a3.129,3.129,0,0,0,.623,2.1,2.22,2.22,0,0,0,1.783.726,2.078,2.078,0,0,0,1.715-.726,3.349,3.349,0,0,0,.589-2.15,3.243,3.243,0,0,0-.61-2.138,2.121,2.121,0,0,0-1.711-.721,2.161,2.161,0,0,0-1.762.756A3.279,3.279,0,0,0,596.916,25.655ZM610.627,22.9h-3.076v7.082h-2.09V22.9h-1.468v-1.69h1.468v-1.22a3.035,3.035,0,0,1,.9-2.265,3.158,3.158,0,0,1,2.308-.884,5.062,5.062,0,0,1,.666.039,2.6,2.6,0,0,1,.512.115v1.783a2.2,2.2,0,0,0-.359-.145,1.878,1.878,0,0,0-.588-.085,1.249,1.249,0,0,0-1,.405,1.793,1.793,0,0,0-.35,1.2v1.058h3.076V19.238l2.073-.631v2.6h2.091V22.9H612.7V27A1.733,1.733,0,0,0,613,28.147a1.175,1.175,0,0,0,.926.333,1.385,1.385,0,0,0,.431-.086,2.03,2.03,0,0,0,.439-.2V29.9a2.427,2.427,0,0,1-.653.2,4.5,4.5,0,0,1-.9.094,2.56,2.56,0,0,1-1.958-.7,2.959,2.959,0,0,1-.653-2.095Z" fill="#737373"/><rect x="519.152" y="13.667" width="9.692" height="9.692" fill="#f25022"/><rect x="529.853" y="13.667" width="9.692" height="9.692" fill="#7fba00"/><rect x="519.152" y="24.368" width="9.692" height="9.692" fill="#00a4ef"/><rect x="529.853" y="24.368" width="9.692" height="9.692" fill="#ffb900"/></g></svg>