<svg xmlns="http://www.w3.org/2000/svg" viewBox="0 0 636 350"><title>hero-extend-vside</title><path d="M162.121,37.5s-16.155,0-16.155,16.149V233.374s0,16.126,16.155,16.126H480.834s16.132,0,16.132-16.126V53.649s0-16.149-16.132-16.149Z" fill="#666"/><path d="M165.657,40.5s-15.691,0-15.691,15.674v174.66s0,15.666,15.691,15.666H478.282s15.684,0,15.684-15.666V56.174s0-15.674-15.684-15.674Z"/><path d="M169.4,52.5s-6.438,0-6.438,6.452V227.83s0,6.67,6.438,6.67H473.512s6.454,0,6.454-6.67V58.952s0-6.452-6.454-6.452Z" fill="#00b0e3"/><path d="M479.966,225.2V58.962s0-6.462-6.463-6.462H307.271Z" fill="#0cc8f4"/><rect x="170.966" y="65.5" width="300" height="163" fill="#fff"/><rect x="182.966" y="105.5" width="2" height="74" fill="#0872c4"/><rect x="167.966" y="57.5" width="306" height="156" fill="none"/><polygon points="470.966 229.5 470.882 215.627 321.869 65.5 170.966 65.5 169.965 229.5 470.966 229.5" fill="#e6e6e6"/><rect x="253.966" y="106.5" width="153" height="8" fill="#b2b2b2"/><rect x="253.966" y="120.5" width="76" height="8" fill="#b2b2b2"/><rect x="170.966" y="80.5" width="300" height="7" fill="#7e899f"/><rect x="191.966" y="117.5" width="20" height="3" fill="#0872c4"/><rect x="191.966" y="129.5" width="30" height="3" fill="#6597bf"/><rect x="191.966" y="140.5" width="30" height="3" fill="#6597bf"/><rect x="191.966" y="151.5" width="30" height="3" fill="#6597bf"/><rect x="191.966" y="162.5" width="30" height="3" fill="#6597bf"/><path d="M286.911,300.5a31.361,31.361,0,0,0-10.353,1.971l-7.827,3.079-5.067,1.979s-4.848,1.971,2.994,1.971H377.915s7.133,0,.686-2.633l-9-3.511a47.784,47.784,0,0,0-15.193-2.856Z" fill="#666"/><path d="M339.966,299.5v-50h-12v13.6a6.5,6.5,0,0,1-13,0V249.5h-11v50Z" fill="#666"/><polygon points="303.966 264.306 339.966 291.964 339.966 300.5 303.966 300.5 303.966 264.306" fill="#8c8c8c"/><rect x="513.966" y="141.5" width="16" height="3" transform="translate(1043.932 286) rotate(180)" fill="#393939"/><rect x="261.966" y="308.5" width="119" height="3"/><rect x="237.966" y="106.5" width="10" height="8" fill="#b2b2b2"/><rect x="237.966" y="120.5" width="10" height="8" fill="#b2b2b2"/><rect x="289.966" y="204.5" width="104" height="8" fill="#b2b2b2"/><rect x="237.966" y="204.5" width="10" height="8" fill="#b2b2b2"/><rect x="313.966" y="134.5" width="71" height="8" fill="#b2b2b2"/><rect x="313.966" y="148.5" width="56.8" height="8" fill="#b2b2b2"/><rect x="289.966" y="134.5" width="17" height="8" fill="#7e899f"/><rect x="289.966" y="148.5" width="17" height="8" fill="#7e899f"/><rect x="253.966" y="163.5" width="76" height="8" fill="#b2b2b2"/><rect x="321.966" y="177.5" width="63" height="8" fill="#b2b2b2"/><rect x="289.966" y="177.5" width="24" height="8" fill="#7e899f"/><rect x="289.966" y="191.5" width="76" height="8" fill="#b2b2b2"/><rect x="237.966" y="134.5" width="10" height="8" fill="#b2b2b2"/><rect x="428.966" y="106.5" width="32" height="8" fill="#b2b2b2"/><rect x="428.966" y="120.5" width="32" height="8" fill="#b2b2b2"/><rect x="412.966" y="106.5" width="10" height="8" fill="#b2b2b2"/><rect x="412.966" y="120.5" width="10" height="8" fill="#b2b2b2"/><rect x="441.966" y="134.5" width="19" height="8" fill="#b2b2b2"/><rect x="412.966" y="134.5" width="10" height="8" fill="#b2b2b2"/><rect x="428.966" y="148.5" width="32" height="8" fill="#b2b2b2"/><rect x="428.966" y="162.5" width="32" height="8" fill="#b2b2b2"/><rect x="412.966" y="148.5" width="10" height="8" fill="#b2b2b2"/><rect x="412.966" y="162.5" width="10" height="8" fill="#b2b2b2"/><rect x="441.966" y="176.5" width="19" height="8" fill="#b2b2b2"/><rect x="412.966" y="176.5" width="10" height="8" fill="#b2b2b2"/><rect x="237.966" y="148.5" width="10" height="8" fill="#b2b2b2"/><rect x="207.966" y="114.5" width="46" height="7" fill="#393939"/><path d="M82.559,181.559a8,8,0,0,1,3.607-10.719l114.606-58.878a8,8,0,0,1,7.112,14.326L93.278,185.165A8,8,0,0,1,82.559,181.559Z" fill="#666"/><path d="M77.966,303.817V177.209a11.69,11.69,0,0,1,9.594-11.651,11.508,11.508,0,0,1,13.406,11.347V303.817C100.966,310.168,77.966,310.168,77.966,303.817Z" fill="#666"/><circle cx="88.966" cy="177.5" r="8" fill="#8c8c8c"/><polygon points="72.139 299.5 106.485 299.5 111.669 312.5 66.955 312.5 72.139 299.5"/><path d="M245.991,144.083a.536.536,0,0,0,.518.417h3.111a.346.346,0,0,0,.346-.346v-3.11a.543.543,0,0,0-.543-.544h-.457v-23h-2v23h-.457a.543.543,0,0,0-.543.544S246,142.833,245.991,144.083Z" fill="#393939"/><circle cx="203.966" cy="119.5" r="4.999" fill="#8c8c8c"/><path d="M275.1,138.5H217.975c-2.337-.009-4,2.668-4.009,5v54a4.8,4.8,0,0,0,5.011,5H275.1c2.337.009,4.857-1.673,4.867-4l.144-55.995C280.12,140.168,277.436,138.509,275.1,138.5Z" fill="#7db912"/><path d="M216.911,139.5a4.581,4.581,0,0,0-1.945,4.03v54c-.009,2.332,1.386,4.96,3.717,4.969l57.283.031a6.008,6.008,0,0,0,3.246-.729Z" fill="#65aa0d"/><path d="M242.966,152.5v7.527l-2.672,1.138-2.328-1.138v-8c-2.684,1.076-5.178,3.778-5.182,7,.265,2.951,1.5,4.93,4.182,6v23.942c0,1.609,1.42,3.533,3.03,3.531l.537,0a3.976,3.976,0,0,0,3.433-3.529V166.027c2.684-1.077,3.84-3.8,3.844-7.016a7.9,7.9,0,0,0-4.286-6.974M239.8,191.215a1.42,1.42,0,0,1-1.607-1.608c0-1.073.807-1.878,1.611-1.612a1.42,1.42,0,0,1,1.608,1.608c.268.807-.537,1.611-1.612,1.612" fill="#fff"/><path d="M254.966,192.5l2.715,0a3.289,3.289,0,0,0,3.285-3.28V173.68a3.5,3.5,0,0,0-3-3.023V159.575l1.922-2.643-1.922-7.432h-2l-2.244,7.37,2.244,2.63v11c-1.4.279-3,1.879-3,3v16.527a3.062,3.062,0,0,0,2.473,2.68" fill="#424343"/><rect x="402.966" y="105.5" width="4" height="116" fill="#b2b2b2"/><rect x="390.966" y="69.5" width="42" height="7" transform="translate(823.932 146) rotate(180)" fill="#393939"/><path d="M551.662,164.606a8,8,0,0,0-1.64-11.189L438.428,68.488a8,8,0,1,0-9.55,12.829l111.594,84.929A8,8,0,0,0,551.662,164.606Z" fill="#666"/><path d="M557.966,301.817V159.171a11.69,11.69,0,0,0-9.594-11.651,11.507,11.507,0,0,0-13.406,11.346V301.817C534.966,308.168,557.966,308.168,557.966,301.817Z" fill="#666"/><circle cx="546.966" cy="159.5" r="8" fill="#8c8c8c"/><polygon points="563.861 299.5 529.515 299.5 524.331 312.5 569.045 312.5 563.861 299.5"/><circle cx="434.966" cy="75.5" r="5" fill="#8c8c8c"/><path d="M398.991,100.083a.536.536,0,0,0,.518.417h3.111a.346.346,0,0,0,.346-.346v-3.11a.543.543,0,0,0-.543-.544h-.457v-23h-2v23h-.457a.543.543,0,0,0-.543.544S399,98.833,398.991,100.083Z" fill="#393939"/><path d="M427.949,95.5l-56.193-.2c-2.34-.009-4.781,1.847-4.79,4.186l-.221,55.257c-.009,2.339,2.671,4.748,5.011,4.757h57.2c2.34.009,4-2.677,4.014-5.016V99.312C432.975,96.974,430.288,95.509,427.949,95.5Z" fill="#8867c8"/><polygon points="386.966 140.5 399.966 140.5 399.966 150.5 376.966 150.5 376.966 104.5 396.966 104.5 396.966 114.5 386.966 114.5 386.966 140.5" fill="#472176"/><rect x="389.966" y="117.5" width="20" height="20" fill="#472176"/><polygon points="399.966 104.5 399.966 114.5 405.966 114.5 405.966 111.5 415.966 111.5 415.966 121.5 412.966 121.5 412.966 127.5 422.966 127.5 422.966 104.5 399.966 104.5" fill="#beabef"/><polygon points="412.966 140.5 402.966 140.542 402.887 150.5 422.966 150.5 422.966 130.5 412.966 130.5 412.966 140.5" fill="#472176"/></svg>