<svg id="hero-race-car" xmlns="http://www.w3.org/2000/svg" viewBox="0 0 450 200"><title>hero-race-car</title><g id="static-road"><path d="M446.054,200H63.187a3.146,3.146,0,0,1-3.033-3.033,3.041,3.041,0,0,1,3.033-3.032H446.054a3.025,3.025,0,0,1,3.032,2.956v.076A3.092,3.092,0,0,1,446.054,200Z" fill="#b2b2b2"/></g><g id="animated-road"><path id="road-end" d="M54.391,200H39.607a3.146,3.146,0,0,1-3.033-3.033,3.041,3.041,0,0,1,3.033-3.032H54.391a2.958,2.958,0,0,1,3.032,3.032A3.041,3.041,0,0,1,54.391,200Z" fill="#d2d2d2"/><path id="road-end-2" data-name="road-end" d="M26.34,200h-9.4a3.146,3.146,0,0,1-3.033-3.033,3.041,3.041,0,0,1,3.033-3.032h9.477a2.958,2.958,0,0,1,3.032,3.032A3.158,3.158,0,0,1,26.34,200Z" fill="#e6e6e6"/></g><g id="animated-exhaust-lines"><path id="Vector" d="M187.793,166.641a5.562,5.562,0,0,0-5.231-5.535H166.944a5.611,5.611,0,0,0,0,11.221h15.618A5.753,5.753,0,0,0,187.793,166.641Z" fill="#b7d9f2" opacity="0.6" style="isolation:isolate"/><path id="Vector_2" data-name="Vector 2" d="M174.3,150.417H47.386a5.611,5.611,0,1,0,0,11.221H174.3Z" fill="#e2f0fa" opacity="0.7" style="isolation:isolate"/><path id="Vector_4" data-name="Vector 4" d="M156.483,172.783H89.235a5.611,5.611,0,0,0,0,11.221h67.248Z" fill="#e2f0fa" opacity="0.7" style="isolation:isolate"/><path id="Vector_9" data-name="Vector 9" d="M159.29,161.561a5.563,5.563,0,0,0-5.232-5.535H138.44a5.611,5.611,0,0,0,0,11.221h15.618A5.815,5.815,0,0,0,159.29,161.561Z" fill="#b7d9f2" opacity="0.6" style="isolation:isolate"/><path id="Vector_17" data-name="Vector 17" d="M148.9,170.13a5.561,5.561,0,0,0-5.231-5.534H128.05a5.61,5.61,0,1,0,0,11.22h15.618A5.754,5.754,0,0,0,148.9,170.13Z" fill="#b7d9f2" opacity="0.6" style="isolation:isolate"/><path id="Vector_18" data-name="Vector 18" d="M110.766,165.126a5.561,5.561,0,0,0-5.231-5.534H16.073a5.61,5.61,0,0,0,0,11.22h89.462A5.814,5.814,0,0,0,110.766,165.126Z" fill="#b7d9f2" opacity="0.5" style="isolation:isolate"/><path id="Vector_86" data-name="Vector 86" d="M26.459,178.318a5.562,5.562,0,0,0-5.231-5.535H5.61A5.611,5.611,0,0,0,5.61,184H21.228A5.753,5.753,0,0,0,26.459,178.318Z" fill="#e2f0fa" opacity="0.7" style="isolation:isolate"/></g><g id="animated-exhaust-dots"><path id="Vector_6" data-name="Vector 6" d="M167.325,184a5.611,5.611,0,1,0-5.61-5.61A5.611,5.611,0,0,0,167.325,184Z" fill="#c6e0f5"/><path id="Vector_8" data-name="Vector 8" d="M183.4,172.253a5.611,5.611,0,1,0-5.61-5.61A5.611,5.611,0,0,0,183.4,172.253Z" fill="#459bdd"/><path id="Vector_10" data-name="Vector 10" d="M160.575,167.173a5.611,5.611,0,1,0-5.61-5.611A5.611,5.611,0,0,0,160.575,167.173Z" fill="#89bfe9" opacity="0.7" style="isolation:isolate"/><path id="Vector_25" data-name="Vector 25" d="M58.679,176.649a5.61,5.61,0,1,0-5.611-5.61A5.61,5.61,0,0,0,58.679,176.649Z" fill="#b3daf4" opacity="0.5" style="isolation:isolate"/><path id="Vector_26" data-name="Vector 26" d="M65.579,176.649a5.61,5.61,0,1,0-5.61-5.61A5.609,5.609,0,0,0,65.579,176.649Z" fill="#89bfe9" opacity="0.7" style="isolation:isolate"/><path id="Vector_82" data-name="Vector 82" d="M117.132,180.061a5.61,5.61,0,1,0-5.611-5.61A5.61,5.61,0,0,0,117.132,180.061Z" fill="#b7d9f2" opacity="0.6" style="isolation:isolate"/><path id="Vector_87" data-name="Vector 87" d="M32.677,160.728a5.61,5.61,0,1,0-5.611-5.61A5.61,5.61,0,0,0,32.677,160.728Z" fill="#e2f0fa" opacity="0.7" style="isolation:isolate"/></g><g id="animated-numbers"><g id="number"><path id="Vector_11" data-name="Vector 11" d="M163.987,167.173a5.611,5.611,0,1,0-5.61-5.611A5.611,5.611,0,0,0,163.987,167.173Z" fill="#459bdd"/><path d="M165.815,161.494a5.479,5.479,0,0,1-.127,1.246,2.885,2.885,0,0,1-.367.916,1.652,1.652,0,0,1-.59.567,1.609,1.609,0,0,1-.794.193,1.5,1.5,0,0,1-.752-.186,1.563,1.563,0,0,1-.557-.541,2.741,2.741,0,0,1-.344-.873,5.4,5.4,0,0,1-.117-1.185,6.118,6.118,0,0,1,.123-1.3,2.985,2.985,0,0,1,.361-.943,1.61,1.61,0,0,1,.592-.575,1.673,1.673,0,0,1,.811-.193Q165.815,158.623,165.815,161.494Zm-.656.063q0-2.391-1.137-2.391-1.2,0-1.2,2.434,0,2.268,1.176,2.269Q165.159,163.869,165.159,161.557Z" fill="#fff"/></g><g id="number-2" data-name="number"><path id="Vector_3" data-name="Vector 3" d="M173.923,161.562a5.61,5.61,0,1,0-5.611-5.61A5.61,5.61,0,0,0,173.923,161.562Z" fill="#ff9f2b"/><path d="M174.594,158.708h-.64v-4.84a1.429,1.429,0,0,1-.217.17,3.66,3.66,0,0,1-.32.19c-.119.062-.244.121-.375.175a2.678,2.678,0,0,1-.385.129v-.648a3.848,3.848,0,0,0,.447-.158q.237-.1.465-.223t.431-.258a3.39,3.39,0,0,0,.352-.264h.242Z" fill="#fff"/></g><g id="number-3" data-name="number"><path id="Vector_19" data-name="Vector 19" d="M144.124,160.728a5.61,5.61,0,1,0-5.61-5.61A5.609,5.609,0,0,0,144.124,160.728Z" fill="#459bdd"/><path d="M145.093,157.981h-.641v-4.84a1.334,1.334,0,0,1-.217.17,3.517,3.517,0,0,1-.32.19c-.119.062-.244.121-.375.176a2.755,2.755,0,0,1-.385.128v-.648A3.8,3.8,0,0,0,143.6,153q.235-.1.464-.223t.432-.258a3.465,3.465,0,0,0,.352-.263h.242Z" fill="#fff"/></g><g id="number-4" data-name="number"><path id="Vector_5" data-name="Vector 5" d="M156.181,184a5.611,5.611,0,1,0-5.611-5.61A5.61,5.61,0,0,0,156.181,184Z" fill="#89bfe9"/><path d="M158.005,178.368a5.537,5.537,0,0,1-.127,1.246,2.909,2.909,0,0,1-.367.916,1.66,1.66,0,0,1-.59.567,1.613,1.613,0,0,1-.795.193,1.506,1.506,0,0,1-.752-.186,1.571,1.571,0,0,1-.557-.541,2.764,2.764,0,0,1-.344-.873,5.4,5.4,0,0,1-.117-1.185,6.118,6.118,0,0,1,.123-1.3,2.961,2.961,0,0,1,.362-.943,1.607,1.607,0,0,1,.591-.575,1.662,1.662,0,0,1,.811-.193Q158,175.5,158.005,178.368Zm-.657.063q0-2.391-1.136-2.391-1.2,0-1.2,2.434,0,2.268,1.175,2.269T157.348,178.431Z" fill="#fff"/></g><g id="number-5" data-name="number"><path id="Vector_7" data-name="Vector 7" d="M174.147,184a5.611,5.611,0,1,0-5.61-5.61A5.611,5.611,0,0,0,174.147,184Z" fill="#a9d1ef"/><path d="M175.972,178.368a5.537,5.537,0,0,1-.127,1.246,2.909,2.909,0,0,1-.367.916,1.66,1.66,0,0,1-.59.567,1.613,1.613,0,0,1-.8.193,1.506,1.506,0,0,1-.752-.186,1.571,1.571,0,0,1-.557-.541,2.764,2.764,0,0,1-.344-.873,5.4,5.4,0,0,1-.117-1.185,6.118,6.118,0,0,1,.123-1.3,2.961,2.961,0,0,1,.362-.943,1.607,1.607,0,0,1,.591-.575,1.662,1.662,0,0,1,.811-.193Q175.971,175.5,175.972,178.368Zm-.657.063q0-2.391-1.136-2.391-1.2,0-1.2,2.434,0,2.268,1.175,2.269T175.315,178.431Z" fill="#fff"/></g><g id="number-6" data-name="number"><path id="Vector_83" data-name="Vector 83" d="M126.46,180.061a5.61,5.61,0,1,0-5.61-5.61A5.61,5.61,0,0,0,126.46,180.061Z" fill="#a9d1ef"/><path d="M128.284,174.426a5.492,5.492,0,0,1-.127,1.246,2.9,2.9,0,0,1-.367.916,1.649,1.649,0,0,1-.59.566,1.613,1.613,0,0,1-.8.193,1.508,1.508,0,0,1-.752-.185,1.577,1.577,0,0,1-.556-.541,2.741,2.741,0,0,1-.344-.873,5.406,5.406,0,0,1-.117-1.186,6.118,6.118,0,0,1,.123-1.3,2.961,2.961,0,0,1,.361-.943,1.607,1.607,0,0,1,.592-.574,1.662,1.662,0,0,1,.811-.193Q128.284,171.555,128.284,174.426Zm-.656.062q0-2.391-1.137-2.391-1.2,0-1.2,2.434,0,2.269,1.176,2.27Q127.628,176.8,127.628,174.488Z" fill="#fff"/></g><g id="number-7" data-name="number"><path id="Vector_20" data-name="Vector 20" d="M112.966,160.577a5.611,5.611,0,1,0-5.611-5.61A5.61,5.61,0,0,0,112.966,160.577Z" fill="#89bfe9"/><path d="M114.79,154.941a5.537,5.537,0,0,1-.127,1.246,2.909,2.909,0,0,1-.367.916,1.66,1.66,0,0,1-.59.567,1.613,1.613,0,0,1-.8.193,1.506,1.506,0,0,1-.752-.186,1.571,1.571,0,0,1-.557-.541,2.764,2.764,0,0,1-.344-.873,5.4,5.4,0,0,1-.117-1.185,6.118,6.118,0,0,1,.123-1.3,2.952,2.952,0,0,1,.362-.943,1.607,1.607,0,0,1,.591-.575,1.662,1.662,0,0,1,.811-.193Q114.789,152.07,114.79,154.941Zm-.657.063q0-2.391-1.136-2.391-1.2,0-1.2,2.434,0,2.268,1.175,2.269T114.133,155Z" fill="#fff"/></g><g id="number-8" data-name="number"><path id="Vector_29" data-name="Vector 29" d="M101.06,184.155a5.61,5.61,0,1,0-5.611-5.61A5.61,5.61,0,0,0,101.06,184.155Z" fill="#89bfe9"/><path d="M102.028,181.408h-.64v-4.84a1.429,1.429,0,0,1-.217.17,3.66,3.66,0,0,1-.32.19c-.119.062-.244.121-.375.176a2.8,2.8,0,0,1-.385.128v-.648a3.848,3.848,0,0,0,.447-.158q.237-.1.465-.223t.432-.258a3.337,3.337,0,0,0,.351-.263h.242Z" fill="#fff"/></g><g id="number-9" data-name="number"><path id="Vector_27" data-name="Vector 27" d="M73.69,176.65a5.61,5.61,0,1,0-5.61-5.61A5.61,5.61,0,0,0,73.69,176.65Z" fill="#ff9f2b"/><path d="M74.659,173.9h-.64v-4.84a1.429,1.429,0,0,1-.217.17,3.541,3.541,0,0,1-.321.19c-.118.062-.243.121-.375.176a2.743,2.743,0,0,1-.384.128v-.648a3.848,3.848,0,0,0,.447-.158c.158-.067.312-.141.465-.223s.3-.168.431-.258a3.254,3.254,0,0,0,.352-.263h.242Z" fill="#fff"/></g><g id="number-10" data-name="number"><path id="Vector_23" data-name="Vector 23" d="M55.571,160.349a5.611,5.611,0,1,0-5.61-5.611A5.611,5.611,0,0,0,55.571,160.349Z" fill="#ff9f2b"/><path d="M57.4,154.713a5.54,5.54,0,0,1-.126,1.246,2.909,2.909,0,0,1-.368.916,1.652,1.652,0,0,1-.59.567,1.609,1.609,0,0,1-.794.193,1.5,1.5,0,0,1-.752-.186,1.563,1.563,0,0,1-.557-.541,2.741,2.741,0,0,1-.344-.873,5.4,5.4,0,0,1-.117-1.185,6.118,6.118,0,0,1,.123-1.3,2.985,2.985,0,0,1,.361-.943,1.61,1.61,0,0,1,.592-.575,1.662,1.662,0,0,1,.811-.193Q57.4,151.842,57.4,154.713Zm-.656.063q0-2.391-1.137-2.391-1.2,0-1.2,2.434,0,2.268,1.176,2.269Q56.738,157.088,56.739,154.776Z" fill="#fff"/></g></g><g id="static-driver"><path id="Vector_33" data-name="Vector 33" d="M306.3,153.6h7.581v6.065H306.3Z" fill="#b2b2b2"/><path id="Vector_34" data-name="Vector 34" d="M315.239,167.249c0-3.033-.379-6.217-.683-10.159-6.444.531-3.79.379-11.751.151-3.033.531-5.307,2.654-6.975,5.383C303.184,164.6,309.932,166.188,315.239,167.249Z" fill="#505050"/><path id="Vector_35" data-name="Vector 35" d="M314.635,157.847v-.682c-6.445.531-3.791.379-11.752.152a15.6,15.6,0,0,0-2.653.909,20.063,20.063,0,0,0-1.972,1.593c-.151.227-.379.227-.379.379-.151.151-.379.151-.379.379a14.085,14.085,0,0,0-1.592,2.123c3.412.909,6.6,1.743,9.629,2.5A29.49,29.49,0,0,1,314.635,157.847Z" fill="#737373"/><path id="Vector_36" data-name="Vector 36" d="M318.423,142.153v.152a34.182,34.182,0,0,1-.152,3.942,16.553,16.553,0,0,0,1.213,3.412c0,.379.531,1.061-1.44.91l-1.062,5s-.151.682-1.743.379-5.914-1.592-7.809-4.094c.909-9.781,2.653-11.373,2.653-11.373l8.037.152Z" fill="#b2b2b2"/><path id="Vector_37" data-name="Vector 37" d="M315.845,148.22a.519.519,0,0,0,.531-.531c0-.379-.152-.682-.531-.682s-.531.379-.531.682A.519.519,0,0,0,315.845,148.22Z" fill="#505050"/><path id="Vector_38" data-name="Vector 38" d="M315.088,152.087a4.684,4.684,0,0,0,2.35,1.213,5.732,5.732,0,0,0,.228-1.213Z" fill="#f3f3f3"/><path id="Vector_39" data-name="Vector 39" d="M315.24,144.124s-3.942,2.123-3.715,5.686c-.151-5.534-2.123-5.534-2.123-5.534Z" fill="#737373"/><path id="Vector_40" data-name="Vector 40" d="M320.7,142.229a13.074,13.074,0,0,0-12.585-10.614,12.889,12.889,0,1,0-.152,25.777h.986c2.881-.91,2.729-6.444,2.729-6.444v-8.34Z" fill="#1070c4"/><path id="Vector_41" data-name="Vector 41" d="M310.086,142.38V144.5l10.766-.152-.986-2.122Z" fill="#505050"/><path id="Vector_42" data-name="Vector 42" d="M308.493,133.056a.816.816,0,0,0-.607-.152,11.335,11.335,0,1,0-.227,22.669h.152a1.426,1.426,0,0,0,.606-.152,11.237,11.237,0,0,1-10.083-12.282A11.446,11.446,0,0,1,308.493,133.056Z" fill="#459bdd"/></g><g id="static-car-body"><g id="static-tailpipe"><path id="Vector_61" data-name="Vector 61" d="M215.543,173.163,181.5,183.853v-34.42L215.543,160.2Z" fill="#231f20"/><path id="Vector_62" data-name="Vector 62" d="M215.543,165.278V160.2L181.5,149.433v15.845Z" fill="#666"/></g><path id="Vector_63" data-name="Vector 63" d="M292.342,137.757s-21.684,2.123-28.81,16.073,28.355,8.794,28.355,8.794Z" fill="#ff9f2b"/><path id="Vector_64" data-name="Vector 64" d="M263.988,160.274c5.686,5.611,27.976,2.351,27.976,2.351l.3-19.409C280.289,144.808,271.115,149.205,263.988,160.274Z" fill="#f27100"/><path id="Vector_65" data-name="Vector 65" d="M292.572,166.263a2.556,2.556,0,0,1-2.578-2.578V135.1a2.578,2.578,0,1,1,5.156,0v28.582A2.6,2.6,0,0,1,292.572,166.263Z" fill="#231f20"/><path id="Vector_31" data-name="Vector 31" d="M359.437,158.529l-10.69-15.542s-13.5,9.629-32.676,24.034c-10.007,7.505,37.6,7.733,42.987,3.487C364.441,166.338,359.437,158.529,359.437,158.529Z" fill="#9bc9ed"/><path id="Vector_32" data-name="Vector 32" d="M359.9,169.9c.3-.152-.455-11.3-.455-11.3l-10.69-15.618s-.682.531-4.7,3.412Z" fill="#c6e0f5"/><path id="Vector_66" data-name="Vector 66" d="M207.049,136.165a1.948,1.948,0,0,1,2.578-1.895c14.1,4.624,81.5,26.459,105.61,31.387,27.066,5.459,44.125-7.051,44.125-7.051s61.561,20.015,66.414,21.3,7.354,11.9-.986,11.9H211.674a4.643,4.643,0,0,1-4.625-4.624V136.165Z" fill="#459bdd"/><path id="Vector_68" data-name="Vector 68" d="M207.049,185.6v1.516a4.643,4.643,0,0,0,4.625,4.625H424.866c6.823,0,8.491-3.109,7.657-6.141Z" fill="#1070c4"/><path id="Vector_70" data-name="Vector 70" d="M303.034,162.852c29.644,9.022,51.857,11.827,73.313,1.213-9.78-3.184-16.982-5.535-16.982-5.535s-17.059,12.586-44.125,7.051c-3.866-.758-8.87-1.971-14.556-3.487C301.518,162.4,302.352,162.624,303.034,162.852Z" fill="#1070c4"/><path id="Vector_67" data-name="Vector 67" d="M426.688,180.137c-.986-.227-3.184-.91-7.809-2.426v14.026h5.989C437.075,191.737,433.132,181.805,426.688,180.137Z" fill="#ff9f2b"/><path id="Vector_69" data-name="Vector 69" d="M418.8,185.6v6.141h5.989c6.823,0,8.491-3.109,7.657-6.141Z" fill="#f27100"/><path id="Vector_81" data-name="Vector 81" d="M285.215,181.957a9.856,9.856,0,1,0-9.856-9.856A9.856,9.856,0,0,0,285.215,181.957Z" fill="#9bc9ed"/></g><g id="animated-cloud"><path id="Vector_48" data-name="Vector 48" d="M231.541,68.688a23.758,23.758,0,0,0-11.6,2.957,20.172,20.172,0,0,0-38.287,8.871c0,.909.076,1.743.152,2.653a8.251,8.251,0,0,0-1.972-.227,9,9,0,0,0-9.022,9.022v.53a13.193,13.193,0,0,0-4.624-.834,13.041,13.041,0,1,0,0,26.081h65.277a24.527,24.527,0,0,0,.075-49.053Z" fill="#d4e8f7"/><path id="Vector_51" data-name="Vector 51" d="M381.805,77.938a5.709,5.709,0,0,0-1.972.379,9.9,9.9,0,0,0,.986-4.473,10.354,10.354,0,0,0-10.387-10.386,10.135,10.135,0,0,0-3.032.454,14.945,14.945,0,0,0-28.81,2.048,6.449,6.449,0,0,0-1.744-.228,7.039,7.039,0,0,0-6.065,3.412,10.755,10.755,0,1,0-7.127,18.8H381.88a5.079,5.079,0,0,0,5.08-5.08A5.17,5.17,0,0,0,381.805,77.938Z" fill="#e2f0fa"/><path id="Vector_53" data-name="Vector 53" d="M79.3,24.109a5.7,5.7,0,0,1,1.971.379,9.912,9.912,0,0,1-.985-4.473A10.354,10.354,0,0,1,90.674,9.629a10.136,10.136,0,0,1,3.033.454,14.995,14.995,0,0,1,28.886,2.047,6.481,6.481,0,0,1,1.743-.227,7.039,7.039,0,0,1,6.066,3.412,10.755,10.755,0,1,1,7.126,18.8H79.3a5,5,0,1,1,0-10.008Z" fill="#e2f0fa"/></g><g id="animated-cloud-dots"><path id="Vector_52" data-name="Vector 52" d="M52.767,34.269a5.08,5.08,0,1,0-5.079-5.08A5.081,5.081,0,0,0,52.767,34.269Z" fill="#f1f7fc"/><path id="Vector_54" data-name="Vector 54" d="M130.783,34.724a7.127,7.127,0,1,0-7.127-7.127A7.127,7.127,0,0,0,130.783,34.724Z" fill="#f1f7fc"/><path id="Vector_55" data-name="Vector 55" d="M148.976,34.724A7.127,7.127,0,1,0,141.85,27.6,7.127,7.127,0,0,0,148.976,34.724Z" fill="#c6e0f5" opacity="0.6" style="isolation:isolate"/><path id="Vector_56" data-name="Vector 56" d="M71.72,34.269a5.08,5.08,0,1,0-5.079-5.08A5.08,5.08,0,0,0,71.72,34.269Z" fill="#c6e0f5"/></g><g id="animated-cloud-dots-2" data-name="animated-cloud-dots"><path id="Vector_46" data-name="Vector 46" d="M117.741,117.742A13.041,13.041,0,1,0,104.7,104.7,13.041,13.041,0,0,0,117.741,117.742Z" fill="#f1f7fc"/><path id="Vector_47" data-name="Vector 47" d="M132.905,117.742a13.041,13.041,0,1,0-13.04-13.041A13.041,13.041,0,0,0,132.905,117.742Z" fill="#d4e8f7"/><path id="Vector_57" data-name="Vector 57" d="M258.455,106.446a7.127,7.127,0,1,0-7.127-7.127A7.126,7.126,0,0,0,258.455,106.446Z" fill="#c6e0f5" opacity="0.6" style="isolation:isolate"/><path id="Vector_58" data-name="Vector 58" d="M241.017,106.446a7.127,7.127,0,1,0-7.126-7.127A7.127,7.127,0,0,0,241.017,106.446Z" fill="#f1f7fc"/><path id="Vector_59" data-name="Vector 59" d="M276.652,106.446a7.127,7.127,0,1,0-7.127-7.127A7.127,7.127,0,0,0,276.652,106.446Z" fill="#f1f7fc"/></g><g id="animated-cloud-dots-3" data-name="animated-cloud-dots"><path id="Vector_49" data-name="Vector 49" d="M408.339,88.1a5.08,5.08,0,1,0-5.079-5.08A5.079,5.079,0,0,0,408.339,88.1Z" fill="#e2f0fa"/><path id="Vector_50" data-name="Vector 50" d="M389.388,88.1a5.08,5.08,0,1,0-5.079-5.08A5.079,5.079,0,0,0,389.388,88.1Z" fill="#d4e8f7"/><path id="Vector_60" data-name="Vector 60" d="M337.834,91.66a8.643,8.643,0,1,0-8.643-8.643A8.643,8.643,0,0,0,337.834,91.66Z" fill="#c6e0f5" opacity="0.6" style="isolation:isolate"/></g><g id="animated-wheel-back"><path id="Vector_71" data-name="Vector 71" d="M238.818,197.27A27.521,27.521,0,1,0,211.3,169.749,27.521,27.521,0,0,0,238.818,197.27Z" fill="#393939"/><path id="Vector_72" data-name="Vector 72" d="M239.805,184.61a15.618,15.618,0,1,0-15.617-15.618A15.618,15.618,0,0,0,239.805,184.61Z" fill="#c2bebc"/><path id="Vector_73" data-name="Vector 73" d="M239.8,181.881a12.889,12.889,0,1,0-12.889-12.889A12.889,12.889,0,0,0,239.8,181.881Z" fill="#fff"/><path id="Vector_74" data-name="Vector 74" d="M239.8,156.1a12.877,12.877,0,0,0-12.889,12.888h25.7A12.764,12.764,0,0,0,239.8,156.1Z" fill="#939393"/><path id="Vector_75" data-name="Vector 75" d="M239.8,174.526a5.535,5.535,0,1,0-5.534-5.534A5.535,5.535,0,0,0,239.8,174.526Z" fill="#c2bebc"/></g><g id="animated-wheel-front"><path id="Vector_76" data-name="Vector 76" d="M387.416,197.574a16.983,16.983,0,1,0-16.982-16.983A16.984,16.984,0,0,0,387.416,197.574Z" fill="#393939"/><path id="Vector_77" data-name="Vector 77" d="M388.1,189.765a9.629,9.629,0,1,0-9.628-9.629A9.629,9.629,0,0,0,388.1,189.765Z" fill="#c2bebc"/><path id="Vector_78" data-name="Vector 78" d="M388.1,188.1a7.961,7.961,0,1,0-7.96-7.961A7.961,7.961,0,0,0,388.1,188.1Z" fill="#fff"/><path id="Vector_79" data-name="Vector 79" d="M388.1,172.177a7.959,7.959,0,0,0-7.96,7.96h15.845A7.943,7.943,0,0,0,388.1,172.177Z" fill="#939393"/><path id="Vector_80" data-name="Vector 80" d="M388.1,183.549a3.412,3.412,0,1,0-3.412-3.412A3.413,3.413,0,0,0,388.1,183.549Z" fill="#c2bebc"/></g></svg>