<svg xmlns="http://www.w3.org/2000/svg" xmlns:xlink="http://www.w3.org/1999/xlink" viewBox="0 0 636 350"><defs><style>.a{fill:none;}.b{fill:#395b71;}.c{fill:#69afe5;}.d{fill:#666;}.e{fill:#d83b01;}.f{fill:#bd3604;}.g{fill:#eaeaea;}.h{fill:#505050;}.i{fill:#a3111e;}.j{fill:#e81123;}.k{fill:#ec6401;}.l{clip-path:url(#a);}.m{fill:#a2cfec;}.n{fill:#009a83;}.o{fill:#ffa940;}.p{fill:#235a89;}</style><clipPath id="a"><circle class="a" cx="312.5" cy="144.5" r="113.5"/></clipPath></defs><title>hero-snapshot-debugger</title><path class="b" d="M571.667,231.036a31.773,31.773,0,0,0-3.4.191A51.764,51.764,0,0,0,480.243,179.5a66.989,66.989,0,0,0-132.9,11.949c0,.575.029,1.144.043,1.715a51.829,51.829,0,0,0-13.239-1.715c-28.591,0-51.768,23.685-51.768,52.275S305.553,296,334.143,296l235.764-.419c18.271,0,32.719-15.7,32.719-33.078S589.046,231.036,571.667,231.036Z"/><circle class="c" cx="312.5" cy="144.5" r="113.5"/><rect class="d" x="197.077" y="196.034" width="17.977" height="25.237" transform="translate(277.334 -75.811) rotate(58.708)"/><path class="e" d="M48.86,315.237l-9.548-15.708a6.461,6.461,0,0,1,2.165-8.876l142.747-87.04a6.461,6.461,0,0,1,8.876,2.165l9.548,15.708a6.461,6.461,0,0,1-2.165,8.876L57.736,317.4A6.461,6.461,0,0,1,48.86,315.237Z"/><path class="f" d="M203.561,222.987l-5.687-9.356-8.13-13.375-9.435,5.735,4.01,15.879L44.086,307.383l5.687,9.356a4.7,4.7,0,0,0,6.462,1.576l140.334-85.574,5.416-3.292L206,227.006Z"/><rect class="g" x="175.971" y="210.82" width="40.282" height="7.765" transform="translate(277.72 -64.398) rotate(58.708)"/><rect class="c" x="191.377" y="219.485" width="20.002" height="7.765" transform="translate(287.656 -64.734) rotate(58.708)"/><path class="h" d="M343.723,118.043c-7.139,5.032-7.959,12.59-7.8,16.692-3.772-1.617-11.12-3.566-18.381,1.288a1.413,1.413,0,1,0,1.571,2.35c7.544-5.045,15.3-1.381,17.342-.241a1.414,1.414,0,0,0,1.961.36c.02-.014.034-.034.053-.049s.045-.018.065-.032a1.414,1.414,0,0,0,.368-1.959c-.329-2.318-.963-10.869,6.454-16.1a1.413,1.413,0,1,0-1.629-2.31Z"/><path class="h" d="M347.305,192.385a2,2,0,0,1-.2.118,1.979,1.979,0,0,1-2.675-.822c-2.853-5.384-2.882-11.563-.085-17.869a31.041,31.041,0,0,1,9.638-12.074,1.979,1.979,0,1,1,2.3,3.22c-4.894,3.5-13.792,14.61-8.356,24.87A1.979,1.979,0,0,1,347.305,192.385Z"/><path class="h" d="M336.014,188.262a1.98,1.98,0,0,1-2.969-.921c-4.476-11.661,2.353-26.585,15.22-33.264a1.979,1.979,0,1,1,1.823,3.512c-10.954,5.686-17.063,18.66-13.349,28.334A1.979,1.979,0,0,1,336.014,188.262Z"/><path class="h" d="M339.041,158.63l-.069.045c-8.339,5.236-16.475,3.5-22.321-4.753a1.978,1.978,0,1,1,3.23-2.286c3.209,4.533,8.762,8.852,16.987,3.688a1.979,1.979,0,0,1,2.173,3.306Z"/><path class="h" d="M385.126,166.417a2,2,0,0,0,.181-.14,1.979,1.979,0,0,0,.193-2.791c-4-4.6-9.756-6.843-16.646-6.5a31.041,31.041,0,0,0-14.73,4.658,1.979,1.979,0,1,0,2.179,3.3c5.02-3.312,18.589-7.624,26.212,1.135A1.979,1.979,0,0,0,385.126,166.417Z"/><path class="h" d="M385.333,154.4a1.98,1.98,0,0,0,.206-3.1c-9.275-8.366-25.656-7.354-36.511,2.256a1.979,1.979,0,1,0,2.623,2.963c9.241-8.18,23.543-9.221,31.238-2.281A1.979,1.979,0,0,0,385.333,154.4Z"/><path class="h" d="M356.591,146.579l.067-.048c7.882-5.9,9.187-14.117,3.582-22.538a1.978,1.978,0,1,0-3.294,2.193c3.077,4.623,5.114,11.357-2.66,17.178a1.979,1.979,0,0,0,2.3,3.216Z"/><path class="i" d="M346.68,132.456c2.741,4.048,1.076,10.035-3.718,13.373s-10.9,2.763-13.642-1.285-1.076-10.035,3.718-13.373S343.94,128.408,346.68,132.456Z"/><path class="j" d="M332.087,134.1c4.826-3.314,10.974-2.743,13.733,1.275a7.977,7.977,0,0,1,1.149,6.142c1.8-3.072,1.969-6.672.1-9.392-2.759-4.018-8.907-4.589-13.733-1.275a11.538,11.538,0,0,0-4.891,7.133A12.223,12.223,0,0,1,332.087,134.1Z"/><path class="e" d="M368.854,147.88c7.708,11.117,6.634,25.107-2.4,31.248s-22.6,2.108-30.31-9.008-6.634-25.107,2.4-31.248S361.146,136.763,368.854,147.88Z"/><path class="k" d="M336.36,142.969c9.008-6.185,22.543-2.123,30.23,9.073,5.443,7.927,6.474,17.293,3.427,24.289,5.786-7.046,5.658-18.772-.94-28.382-7.687-11.2-21.222-15.258-30.23-9.073a16.637,16.637,0,0,0-5.819,7.183A16.129,16.129,0,0,1,336.36,142.969Z"/><g class="l"><rect class="m" x="221" y="53" width="142" height="10"/><rect class="m" x="214" y="73" width="162" height="10"/><rect class="m" x="231" y="228" width="64" height="10"/><rect class="m" x="304" y="228" width="91" height="10"/><rect class="n" x="201" y="92" width="51" height="10"/><rect class="m" x="262" y="92" width="69" height="10"/><rect class="o" x="224" y="122" width="46" height="10"/><rect class="m" x="279" y="122" width="41" height="10"/><rect class="m" x="379.386" y="122.57" width="41.114" height="9.633" transform="translate(-14.897 63.439) rotate(-8.904)"/><rect class="e" x="224" y="142" width="46" height="10"/><rect class="m" x="247" y="161" width="46" height="10"/><rect class="m" x="279.386" y="141.836" width="31.114" height="9.633" transform="translate(-31.141 100.096) rotate(-18.312)"/><rect class="m" x="298.395" y="162.294" width="9.633" height="47.119" transform="translate(63.99 449.011) rotate(-79.234)"/><rect class="m" x="376" y="180" width="54" height="10"/><rect class="m" x="320" y="199" width="104" height="10"/><rect class="n" x="409.156" y="128.18" width="9.633" height="42.946" transform="translate(189.831 528.507) rotate(-79.265)"/><rect class="o" x="280" y="199" width="31" height="10"/></g><path class="p" d="M412.98,86.625a116.681,116.681,0,1,0-39.1,160.312A116.681,116.681,0,0,0,412.98,86.625ZM368.167,237.543A105.687,105.687,0,1,1,403.585,92.336,105.687,105.687,0,0,1,368.167,237.543Z"/><path class="g" d="M411.943,83.515a116.681,116.681,0,1,0-39.1,160.312A116.681,116.681,0,0,0,411.943,83.515ZM367.13,234.432A105.687,105.687,0,1,1,402.548,89.225,105.687,105.687,0,0,1,367.13,234.432Z"/></svg>