<svg xmlns="http://www.w3.org/2000/svg" viewBox="0 0 636 350"><defs><style>.a{fill:#243549;}.b{fill:#7db0d3;}.c{fill:#a78563;}.d{fill:none;stroke:#0078d7;}.d,.t{stroke-miterlimit:10;}.e{fill:#9ecdec;}.f{fill:#0078d7;}.g{fill:#2e92d5;}.h{fill:#282828;}.i{fill:#505050;}.j{fill:#bb9167;}.k{fill:#5c2d91;}.l{fill:#724aad;}.m{fill:#ab845f;}.n{fill:#665042;}.o{fill:#d2d2d2;}.p{fill:#fff;}.q{fill:#8a0000;}.r{fill:#401467;}.s{fill:#e24f01;}.t,.u{fill:#ff8c00;}.t{stroke:#e24f01;}.v{fill:#e6e6e6;}.w,.z{fill:#8e562e;}.x{fill:#613d30;}.y{fill:#824923;}.aa,.z{fill-rule:evenodd;}.ab{fill:#737373;}.ac{fill:#967150;}.ad{fill:#ce9c5e;}.ae{fill:#080001;}.af{fill:#b4a0ff;}.ag{fill:#aa7f5b;}.ah{fill:#ffb900;}.ai{fill:#d2b69b;}.aj{fill:#a37957;}.ak{fill:#e81123;}</style></defs><title>hero-vsts-join-our-team</title><path class="a" d="M605,319H31a4,4,0,0,1,0-8H605a4,4,0,0,1,0,8Z"/><rect class="b" x="182" y="53" width="356" height="216"/><path class="c" d="M381.857,255.755c-4.752,3.292-5.868,3.935-10.881,4.189-3.105.076-4.022-.73-2.809-1.611-2.869,1.157-5.1-.493-3.079-1.309a1.584,1.584,0,0,1-1.765-1.461c.065-.81,1.451-.785,2.165-.481-.513-.777-.313-2.226,1.988-2.37,1.889-.177,2.159-.479,2.159-.479-2-.57-2.405-1.581-1.765-2.431,2.277.258,5.688-.527,8.456-.467a7.6,7.6,0,0,1,1.524.369l12.1-5.079-.447,7.655Z"/><rect class="d" x="202.5" y="198.5" width="155" height="56"/><rect class="e" x="203" y="75" width="168" height="114"/><rect class="e" x="212" y="206" width="101" height="9"/><rect class="e" x="212" y="221" width="101" height="9"/><rect class="e" x="212" y="237" width="101" height="9"/><path class="f" d="M180,35.056V268.944A4.056,4.056,0,0,0,184.056,273H540.944A4.056,4.056,0,0,0,545,268.944V35.056A4.056,4.056,0,0,0,540.944,31H184.056A4.056,4.056,0,0,0,180,35.056ZM530.944,266H193.056A4.056,4.056,0,0,1,189,261.944V62.056A4.056,4.056,0,0,1,193.056,58H530.944A4.056,4.056,0,0,1,535,62.056V261.944A4.056,4.056,0,0,1,530.944,266Z"/><rect class="g" x="191" y="42" width="97" height="9"/><path class="h" d="M561.285,309.89c-1.755,2.3-1.4,2.3-1.933,4.753h-3.861c.351-1.576-.178-2.826-3.177-1.927Z"/><path class="i" d="M560.934,304.619l.7,4.212c0,1.231-.88,1.761-2.284,2.112l-9.851,2.826a28.935,28.935,0,0,1-6.674.7h-5.812c-2.808,0-1.755-1.582-1.225-1.755a68.167,68.167,0,0,0,11.778-4.586C551.083,306.2,560.934,304.619,560.934,304.619Z"/><path class="j" d="M559.7,301.1c0,1.4,1.053,2.814,1.053,3.516.178,1.231-15.116,5.622-15.116,5.622-.351,0-2.635.173-1.933-.178,3.51-1.933,10.375-6.145,10.012-7.906Z"/><path class="i" d="M577.109,309.89c-1.755,2.3-1.4,2.3-1.933,4.753h-3.861c.351-1.576-.357-2.826-3.165-1.927Z"/><path class="i" d="M576.579,304.619l.892,4.212c0,1.231-.892,1.761-2.3,2.112l-9.851,2.826a28.935,28.935,0,0,1-6.674.7h-5.812c-2.986,0-1.933-1.582-1.225-1.755a73.986,73.986,0,0,0,11.778-4.586C566.919,306.2,576.579,304.619,576.579,304.619Z"/><path class="j" d="M575.526,301.1c0,1.4,1.053,2.814,1.053,3.516.178,1.231-15.116,5.622-15.116,5.622-.529,0-2.814.173-1.933-.178,3.51-1.933,10.375-6.145,10.024-7.906Z"/><path class="j" d="M546.693,255.185a5.284,5.284,0,0,0,5.622,4.931,5.3,5.3,0,1,0-.88-10.553A5.277,5.277,0,0,0,546.693,255.185Z"/><path class="j" d="M546.693,254.483a5.284,5.284,0,1,0,10.553.529l5.271-38.161a8.377,8.377,0,0,0-8.257-8.8,8.5,8.5,0,0,0-9.149,7.918Z"/><path class="j" d="M575.7,303.215c0,1.576-5.8,2.106-5.972.351l-7.216-48.381a5.206,5.206,0,0,1,10.375-.874C575.354,269.266,573.242,283.335,575.7,303.215Z"/><path class="j" d="M559.881,303.215c0,1.576-5.8,2.106-5.973.351l-7.216-48.381a5.277,5.277,0,0,1,4.741-5.622,5.454,5.454,0,0,1,5.812,4.747C559.53,269.266,557.418,283.335,559.881,303.215Z"/><path class="j" d="M562.516,255.185a5.209,5.209,0,1,0,10.375-.874,5.206,5.206,0,0,0-10.375.874Z"/><path class="j" d="M562.516,254.483a5.3,5.3,0,0,0,4.931,5.633,5.074,5.074,0,0,0,5.443-5.1l5.461-38.161a8.383,8.383,0,0,0-8.269-8.8,8.5,8.5,0,0,0-9.149,7.918Z"/><rect class="k" x="544.581" y="214.918" width="16.877" height="36.228"/><rect class="k" x="561.464" y="214.918" width="16.892" height="36.228"/><polygon class="l" points="560.934 220.54 542.826 220.54 546.693 193.634 542.372 167.001 546.342 153.879 561.464 153.879 561.464 215.972 560.934 220.54"/><polygon class="l" points="562.166 220.54 580.107 220.54 576.407 193.634 582.973 163.461 576.579 153.879 561.464 153.879 561.464 215.972 562.166 220.54"/><path class="l" d="M578.12,168.359a7.4,7.4,0,0,0-4.057-14.241,7.4,7.4,0,0,0,4.057,14.241Z"/><path class="j" d="M555.354,142.273l11.255.88v10.9s-.7,13.361-5.271,13.361-5.282-13.361-5.282-13.361Z"/><path class="m" d="M564.325,141.393c.351,5.639-1.927,8.447-8.62,8.1l-.7-7.043Z"/><path class="j" d="M550.863,137.9c-2.8-.843-1.595-1.739-1.305-2,.24-.434,3.376-3.526,3.517-4.3l.481-.868h0a5.652,5.652,0,0,0,4.839.256,8.338,8.338,0,0,1,1.452,3.785c-.144.772-.331,1.389-.406,1.775-.094.943,1.33.169,1.33.169a7.373,7.373,0,0,1,2.6-1.112c.971.817.343,3.739.083,4.729a1.864,1.864,0,0,0-.433,1.034s-.84,4.079,1.673,5.2h0l-.048-.166c-4.144,2.1-9.283.822-11.722.606-2.48-.383-2.434-1.492-2.434-1.492C550.781,143.97,551.495,138.826,550.863,137.9Z"/><path class="m" d="M561.189,129.265l-.669,2.755.048.166a19.211,19.211,0,0,0-.719,2.583,8.338,8.338,0,0,0-1.452-3.785,8.948,8.948,0,0,0,2.842-1.547Z"/><path class="m" d="M563.373,135.6c.68-.2,1.231-.174,1.427.506a4.068,4.068,0,0,1-.505,2.7c-.357.653-.6,1.088-.838,1.522C563.717,139.339,564.345,136.417,563.373,135.6Z"/><path class="n" d="M563.024,141.364s-.84,4.079,1.673,5.2h0l.172-.049a12.3,12.3,0,0,0,8.9-4.037,10.928,10.928,0,0,1,1.379.34,7.811,7.811,0,0,0,8.614-6.318,7.6,7.6,0,0,0-6.323-8.613c-.558-.025-.943-.094-1.5-.121a15.067,15.067,0,0,0-2.952-3.9,14.261,14.261,0,0,0-4.953-2.613,11.93,11.93,0,0,0-9.156.618,5.616,5.616,0,0,0-6.4,3.85,5.825,5.825,0,0,0,1.072,5h0a5.652,5.652,0,0,0,4.839.256,8.948,8.948,0,0,0,2.842-1.547l-.049-.172-1.747,7.279c-.094.943,1.33.169,1.33.169a7.373,7.373,0,0,1,2.6-1.112c.68-.2,1.231-.174,1.427.506a4.068,4.068,0,0,1-.505,2.7c-.357.653-.6,1.088-.838,1.522A1.864,1.864,0,0,0,563.024,141.364Z"/><path d="M555.793,134.658c-.215-.124-.52.149-.686.2l-.146-.509c.069-.385.492-.872.877-.8a.785.785,0,0,1,.8.872.909.909,0,0,1-.193.6A.558.558,0,0,0,555.793,134.658Z"/><polygon class="o" points="561.464 162.677 561.464 201.367 566.044 173.932 568.501 161.975 564.801 153.706 564.622 156.342 561.464 162.677"/><polygon class="p" points="561.464 162.677 561.464 201.367 557.418 175.342 554.081 162.856 558.828 153.879 558.65 155.991 561.464 162.677"/><polygon class="o" points="556.193 150.018 555.491 153.004 553.367 164.259 558.828 153.879 556.193 150.018"/><polygon class="p" points="564.801 153.706 567.097 150.191 568.328 153.004 568.852 162.677 564.801 153.706"/><path class="q" d="M554.323,141.672s-.9.072-1.618.1a2.9,2.9,0,0,1-1.158-.218.789.789,0,0,1-.556-.02l-.337.1c.048.166.1.337.268.288h0a.763.763,0,0,0,.551.021c.392.073.73-.024,1.115.045A10.006,10.006,0,0,0,554.323,141.672Z"/><path class="q" d="M554.323,141.672a9.6,9.6,0,0,0-1.57.265,4.5,4.5,0,0,0-1.28,0,.542.542,0,0,0-.385-.069c-.166.048-.337.1-.29.263a.175.175,0,0,0,.221.122h0a1.372,1.372,0,0,1,.551.021,2.2,2.2,0,0,1,1.067-.121Z"/><path class="r" d="M567.8,177.62c0,.529-.351.7-.88.7a.641.641,0,0,1-.7-.7.755.755,0,0,1,.7-.7A.8.8,0,0,1,567.8,177.62Z"/><path class="r" d="M562.166,201.73a.755.755,0,0,1-.7.7.727.727,0,1,1,0-1.422A.762.762,0,0,1,562.166,201.73Z"/><path class="r" d="M562.338,213.164a.755.755,0,0,1-.7.7.8.8,0,0,1-.88-.7.84.84,0,0,1,.88-.892A.816.816,0,0,1,562.338,213.164Z"/><polygon class="r" points="578.352 220.54 562.166 220.54 561.464 215.972 560.934 220.54 544.581 220.54 544.581 221.771 578.352 221.771 578.352 220.54"/><path class="l" d="M553.016,164.783a7.43,7.43,0,0,1-13.188-6.847,7.3,7.3,0,0,1,10.024-3.177A7.446,7.446,0,0,1,553.016,164.783Z"/><polygon class="l" points="549.581 154.97 518.273 142.982 516.105 153.581 543.161 168.371 549.581 154.97"/><polygon class="l" points="571.879 156.302 554.161 176.563 558.159 187.918 582.258 165.489 571.879 156.302"/><path class="l" d="M549.366,186.64a5.384,5.384,0,1,1,9.839-4.372,5.384,5.384,0,0,1-9.839,4.372Z"/><path class="s" d="M415.79,198H526.228A4.786,4.786,0,0,0,531,193.228V121.889A3.729,3.729,0,0,0,527.151,118H416.036c-1.736,0-3.838,2.788-3.838,4.524l.449,72.333A3.143,3.143,0,0,0,415.79,198Z"/><rect class="p" x="412" y="119" width="118" height="80" rx="3.286" ry="3.286"/><rect class="s" x="421" y="126" width="99" height="9"/><rect class="t" x="491.5" y="178.5" width="31" height="11"/><rect class="u" x="436" y="142" width="40" height="8"/><path class="s" d="M426.706,152.441a5.855,5.855,0,1,1,5.856-5.855A5.862,5.862,0,0,1,426.706,152.441Zm0-10.76a4.9,4.9,0,1,0,4.905,4.9A4.91,4.91,0,0,0,426.706,141.681Z"/><ellipse class="s" cx="426.644" cy="146.559" rx="3.089" ry="3.2"/><rect class="u" x="435" y="158" width="63" height="8"/><path class="s" d="M426.545,168.839a5.855,5.855,0,1,1,5.856-5.855A5.862,5.862,0,0,1,426.545,168.839Zm0-10.76a4.9,4.9,0,1,0,4.905,4.9A4.91,4.91,0,0,0,426.545,158.079Z"/><rect class="u" x="423" y="178" width="62" height="12"/><polygon class="s" points="485.028 190.065 484.074 190.065 484.074 178.658 422.993 178.658 422.993 177.704 485.028 177.704 485.028 190.065"/><rect class="s" x="472" y="178" width="12.683" height="12"/><polygon class="p" points="480.631 181.476 478.189 184.529 475.746 181.476 474.523 181.476 478.189 186.057 481.854 181.476 480.631 181.476"/><path class="j" d="M526.232,199.316c-4.73,2.961-5.835,3.531-10.681,3.552-3-.066-3.846-.884-2.637-1.68-2.818.987-4.9-.7-2.911-1.4a1.529,1.529,0,0,1-1.637-1.488c.1-.778,1.434-.691,2.109-.367-.459-.772-.2-2.161,2.023-2.2,1.829-.086,2.1-.365,2.1-.365-1.9-.639-2.248-1.633-1.592-2.424,2.184.351,5.509-.253,8.175-.071a7.341,7.341,0,0,1,1.453.424l11.894-4.354-.775,7.362Z"/><polygon class="v" points="529.578 199.259 526.729 191.124 528.995 190.142 532.065 198.388 529.578 199.259"/><polygon class="l" points="532.124 198.557 556.466 189.844 552.088 180.006 528.706 189.316 532.124 198.557"/><path class="j" d="M501.174,117.07s-.735-3.008-1.926-3.3a1.792,1.792,0,0,0-1.514.413,2.6,2.6,0,0,0-1.559-.809,7.065,7.065,0,0,0-1.881.809,1.538,1.538,0,0,0-1.241-.4,3.185,3.185,0,0,0-1.509,1.029,2.227,2.227,0,0,0-1.928.882,14.826,14.826,0,0,0-1.238,3.99c-.138.963,1.794,1.062,1.794,1.062a1.37,1.37,0,0,0,1.233,1,2.3,2.3,0,0,0,1.651-.963,1.42,1.42,0,0,0,1.514.826c.567-.03,1.238-1.1,1.238-1.1a1.112,1.112,0,0,0,1.238.55,2.042,2.042,0,0,0,1.514-1.514l1.08-2.436Z"/><path class="w" d="M276.768,163.146l10-8.971s1.075-8.659,1.508-10.3,3.207-1.114,3,2.147-.7,7.8-.7,7.8l1.836-.4,1.018-10.188s6.622,2.851,6.814,5.344c.216,2.8-1.44,8.566-4.229,10.067a28.288,28.288,0,0,1-3.317,1.609l-11.87,11.693Z"/><path class="k" d="M279.946,159.544c-6.474,5.127-13.964,10.673-16.262,13.209-6.878,7.588,2.454,16.975,10.051,9.271,3.682-3.734,9.908-10,13.873-13.982Z"/><path class="w" d="M293.495,184l11.6-6.767s2.8-8.263,3.558-9.786,3.366-.444,2.506,2.709-2.26,7.5-2.26,7.5l1.879-.017,3.055-9.773s5.909,4.13,5.594,6.611c-.354,2.789-3.14,8.1-6.175,9.006a28.288,28.288,0,0,1-3.574.906l-13.987,9.054Z"/><path class="s" d="M386.365,177l-95.124.351a5.5,5.5,0,0,1-5.24-5.2V97.8a5.61,5.61,0,0,1,5.806-5.8h94.558c2.681,0,5.635,2.674,5.635,5.349l-.782,74.806A4.849,4.849,0,0,1,386.365,177Z"/><path class="p" d="M292.542,93H387a5,5,0,0,1,5,5v75.542a5,5,0,0,1-5,5H292a5,5,0,0,1-5-5v-75A5.542,5.542,0,0,1,292.542,93Z"/><path class="u" d="M339,164.739V131.084c0-1.219-1.108-2.084-2.667-2.084h-10.7a2.279,2.279,0,0,0-2.551,2.167c.157,24.833,0,33.417,0,33.417A2.473,2.473,0,0,0,325.635,167h10.7A2.459,2.459,0,0,0,339,164.739Z"/><path class="s" d="M328,129h-2c-1.108,0-3,.333-3,2.083,0,16.625.083,33.417.083,33.417,0,1.708,1.361,2.5,2.913,2.5h2Z"/><path class="u" d="M320,164.673V142.145c0-1.255-1.105-2.145-2.662-2.145H306.662c-1.549,0-2.662.891-2.662,2.145,0,10.357.333,22.466.333,22.466A2.242,2.242,0,0,0,306.662,167h10.677A2.481,2.481,0,0,0,320,164.673Z"/><path class="s" d="M309,140h-2.338s-2.62-.027-2.662,2.18v22.486c0,1.339,1.092,2.3,2.744,2.333H309Z"/><path class="u" d="M358,164.7V125.319A2.484,2.484,0,0,0,355.317,123H344.668A2.471,2.471,0,0,0,342,125.139V164.7a2.477,2.477,0,0,0,2.668,2.3h10.649A2.482,2.482,0,0,0,358,164.7Z"/><path class="s" d="M347,123h-2.137A2.6,2.6,0,0,0,342,125.319V164.7a2.6,2.6,0,0,0,2.863,2.3H347Z"/><path class="u" d="M377,165V116c0-1.223-1.039-2-2.6-2H363.678c-1.558,0-2.678.875-2.678,2.1v48.633A2.473,2.473,0,0,0,363.678,167H374.4C375.961,167,377,166.217,377,165Z"/><path class="s" d="M366,114h-2.145c-1.661,0-2.855.875-2.855,2.1v48.633c0,1.217,1.194,2.269,2.855,2.269H366Z"/><polygon class="u" points="350.198 114.542 333.279 119.001 332.992 118.179 349.976 113.657 370.501 101.394 370.501 102.573 350.198 114.542"/><polygon class="u" points="310.903 132.856 310.204 132.208 329.962 119.202 330.661 119.85 310.903 132.856"/><circle class="s" cx="310.851" cy="132.324" r="3.34"/><circle class="s" cx="331.848" cy="119.917" r="3.34"/><circle class="s" cx="349.981" cy="114.191" r="3.34"/><circle class="s" cx="369.069" cy="102.738" r="3.34"/><path class="l" d="M272.145,221.372s9.484,36.864,9.629,42.657-8.994,46.435-8.994,46.435l-12.154-.891s4.133-35.444,4.857-39.5,1.193-8.02-.4-12.365a55.023,55.023,0,0,0-4.213-8.589s.848,15.016-2.772,23.561-18.249,40.777-18.249,40.777-10.717-3.121-10.717-6.453,10.862-30.125,12.311-35.049a60.658,60.658,0,0,0,2.028-19.249c-.29-7.966-.145-15.062-.145-15.062a79.933,79.933,0,0,1,1.339-18.15C246.029,212.352,272.145,221.372,272.145,221.372Z"/><path class="k" d="M272.145,219.669s-28.3-6.913-29.669.231c-1.883,9.848.848,16.042.848,16.042s-.145,7.1.145,15.062a60.652,60.652,0,0,1-2.028,19.249c-1.448,4.924-12.311,31.718-12.311,35.049,0,1.151,1.289,2.577,2.964,3.953,5.638-18.929,14.024-37.588,15.719-44.057,2.164-8.258,0-28.676,0-28.676s6.373,10.573,13.18,14.048a30.382,30.382,0,0,1,2.9,6.228c1.593,4.345,2.317,5.648,1.593,9.7s-5.359,44.449-5.359,44.449l13.469-1.3s8.979-40.829,8.835-46.622S272.145,219.669,272.145,219.669Z"/><path class="x" d="M259.762,308.2c0-.342.547-.967.864-.748,1.026.709,2.881,2.217,5.178,2.217,3.434,0,7.428-1.251,7.945-2.575.358-.916,2.6-.018,4.891,1.193,3.681,1.948,7.636,2.467,9.952,3.312a1.1,1.1,0,0,1,.785,1v3.6a.894.894,0,0,1-.966.8h-27.4a1.128,1.128,0,0,1-1.218-1Z"/><path class="x" d="M228.267,306.6c0-.33.547-1.267.864-1.055,1.026.684,2.881,2.473,5.178,2.473,3.434,0,7.348-.684,9.019-2.592.628-.718.812-.215,3.1.954,3.681,1.88,8.351,2.686,10.668,3.5a1.068,1.068,0,0,1,.785.966v3.472a.885.885,0,0,1-.966.77h-27.4a1.117,1.117,0,0,1-1.218-.968Z"/><polygon class="p" points="261.175 160.797 266.28 162.969 269.647 174.972 260.849 164.327 261.175 160.797"/><rect class="w" x="249.292" y="145.208" width="12.407" height="19.088"/><path class="l" d="M263.293,165.659c7.441,6.9,8.853,8.445,10.645,31.256a156.915,156.915,0,0,1-.634,27.509l-31.519-.054s-1.792-5.648-1.792-21.344c0-12,1.358-34.7,6.735-38.724S263.293,165.659,263.293,165.659Z"/><path class="k" d="M284.995,191.322s-20.621-14.827-27-18.916c-8.623-5.525-16.333,5.234-7.477,11.449s20.313,14.545,26.2,18.356C285.707,208.024,292.951,196.852,284.995,191.322Z"/><path class="k" d="M295.012,182.951c-7.376,3.714-13.509,6.055-16.272,8.074-8.269,6.043-1.025,17.121,7.972,11.11,4.36-2.913,9.4-6.214,14.089-9.313Z"/><polygon class="p" points="248.792 158.135 264.759 163.512 265.628 174.157 246.402 164.435 248.792 158.135"/><path class="w" d="M303.018,179.52l6.087-10.074a2.585,2.585,0,0,1,1.524,3.794c-1.347,2.881-3.793,7.782-3.793,7.782Z"/><path class="y" d="M261.7,157.878V146.163H249.292v5.993A27.656,27.656,0,0,0,261.7,157.878Z"/><path class="z" d="M266.08,129.455l1.948,6.476s1.345,2.618,2.827,5.073c.418.692-.243,1.114-.929,1.127s-1.561.159-1.492,1.137.367,3.19.367,3.19a15.878,15.878,0,0,1-4.669-.3,7.688,7.688,0,0,0,4.779,1.939,11.305,11.305,0,0,0,.53,2.18,2.713,2.713,0,0,1-2.5,3.582c-2.538.317-13.728-.178-19.706-4.6-6.62-4.9-1.871-17.694,2.467-21.286S265.194,126.815,266.08,129.455Z"/><circle cx="263.608" cy="137.573" r="0.954" transform="translate(31.153 322.993) rotate(-66.137)"/><path class="aa" d="M266.492,130.822s2.879-2.64.833-4.39c-3.968-3.394-15.143-8.358-22.486-.615s-2.7,19.695,3.581,24.532c4.714-2.02,3.36-7.451,1-9.928s-1.22-4.311.052-4.905a3.517,3.517,0,0,1,4.06,1.326c.782,1.271,1.241,2.647,2.206,2.191l1.61-.76s-1.577-4.8-1.533-7.514,3.207-4.181,6.76-2.114C263.7,129.3,266.492,130.822,266.492,130.822Z"/><polygon class="r" points="273.933 226.855 241.737 226.671 241.737 224.185 273.331 224.185 273.933 226.855"/><path class="c" d="M394.816,214.085s-2.3-3.859-2.126-11.434c.1-4.249-10.724,3.455-10.047,7.067,1.356,7.224-.936,7.726-.936,7.726l6.248,8.247Z"/><path class="l" d="M403.925,212.491c1.935-.484,4.02,0,7.758,5.5s8.6,15.445,10.438,18.971,1.2,6.206-2.609,9.874a65.844,65.844,0,0,1-4.866,4.443S408.579,216.722,403.925,212.491Z"/><path class="k" d="M353.358,275.263c2.341-.425,28.774-6.394,28.774-6.394L416.2,265.01a19.193,19.193,0,0,1-2.657,13.262c-3.416,5.435-12.788,19.371-12.788,19.371s14.194-1.579,23.884-2.445,3.573,10.156,3.573,10.156-20.9,3.6-31.407,5.83c-8.047,1.705-12.6-2.069-11.1-10.72.585-3.365,1.619-9.35,2.915-16.761-9.309,1.2-22.85,2.28-22.85,2.28l16.183,20.28-9.544,3.46s-16.781-17.144-22.061-22.423S349.22,276.016,353.358,275.263Z"/><path class="l" d="M377.329,245.842l4.309,23.191L416.2,265.01s-5.007-54.16-12.865-52.559c-5.015,1.022-8.954,1.609-8.954,1.609-.734.713-1.39,2.576-6.389,3.514s-5.368-1.236-5.368-1.236l-8.033,1.508c-4.008.752-4.935,2.8-5.234,5.44C369.092,225.6,377.329,245.842,377.329,245.842Z"/><path class="k" d="M396.8,311.184c10.506-2.226,31.407-5.83,31.407-5.83a19.407,19.407,0,0,0,1.083-2.424c-4.248.687-33.087,5.344-35.886,5.639-3.022.318-6.044-.159-4.931-7.953s2.7-14.952,2.545-15.907-.664-1.854-2.4-1.006c-1.3,7.412-2.33,13.4-2.915,16.761C384.2,309.116,388.754,312.889,396.8,311.184Z"/><path class="r" d="M406.45,283.437c-4.931,8.43-8.59,13.68-8.908,14.316-.217.435,1.868.127,3.211-.112.036-.054,9.377-13.944,12.787-19.368A19.193,19.193,0,0,0,416.2,265.01l-2.23.254C414.164,271.109,411,275.652,406.45,283.437Z"/><path class="k" d="M398.814,278.824a29.013,29.013,0,0,1-8.431,2.386c-4.931.636-19.883,1.909-23.7,2.386s-5.09.954-3.818,3.022c1.15,1.869,13.865,17.641,16.3,20.656l2.79-1.011-16.183-20.28s13.541-1.081,22.85-2.28l-.078.447A17.42,17.42,0,0,0,398.814,278.824Z"/><path class="ab" d="M380.657,304.593s2.189,2.889,4.082,4.957,1.7,6.018-3.218,6.018h-21.01s-2.65-4.514.946-5.83c.956-.35,6.233-1.924,8.154-3C380.537,308.53,380.657,304.593,380.657,304.593Z"/><path class="ab" d="M424.424,295.168c1.437-1.668,5.969-4.218,7.358-2.414,2.984,3.874,13.639,15.3,13.639,15.3s-2.3,3.683-5.7,1.957c-.9-.459-11.513-4.656-11.513-4.656S430.031,298.986,424.424,295.168Z"/><polygon class="r" points="381.639 269.034 414.96 268.246 415.357 264.985 381.639 269.034"/><path class="k" d="M411.682,217.992a23.15,23.15,0,0,0-3.273-4c3.458,5.465,10.451,20.059,11.72,23.474a7.418,7.418,0,0,1-1.273,6.84c-.8.964-3.192,3.152-4.667,4.48.291,1.56.455,2.493.455,2.493a65.841,65.841,0,0,0,4.866-4.443c3.808-3.667,4.443-6.347,2.609-9.874S415.42,223.493,411.682,217.992Z"/><path class="k" d="M416.272,264.946s-3.181-30.1-6.4-40.4c-2.886-9.228.6,8.709,1.789,17.895s2.187,22.746,2.187,22.746Z"/><path class="k" d="M380.164,216.908l2.028-2.267,11.572-2.744,3.34,1.789a14.828,14.828,0,0,1-7.4,4.056A18.216,18.216,0,0,1,380.164,216.908Z"/><path class="s" d="M369.715,224.642c-.775.3-1.527.594-2.938,1.142a3.067,3.067,0,0,1-3.18-.294c-.562-.539-1.239-1.132-1.823-1.79a2.728,2.728,0,0,1-.693-2.7c.106-.811,1.744-.629,2.2-2.543a2.183,2.183,0,0,0-1.312-2.625c-.807-.34-3.053-1.41-3.817-1.592a1.749,1.749,0,0,0-2.062,1.021c-.332.684-.706,1.525-1.474,3.184a2.343,2.343,0,0,1-2.532,1.663c-.8-.017-1.265,0-2.278.005a2.134,2.134,0,0,1-2.086-.956c-.356-.667-1.514-2.462-2.3-3.731a1.5,1.5,0,0,0-2.247-.617c-.593.279-1.615.782-2.38,1.153a1.5,1.5,0,0,0-.855,1.9c.236.869.858,2.719,1.272,4.037a2.341,2.341,0,0,1-.565,2.688s-.768.71-1.624,1.486a2.818,2.818,0,0,1-2.56.664c-.869-.126-2.257-.54-3.651-.873s-2.047.36-2.235,1.078-.874,3.107-1.119,3.866.716,1.909,2.028,2.505c.83.377,1.427-.633,2.417-.118a2.378,2.378,0,0,1,1.429,2.082c.144,1.139.133,1.566.225,2.607a2.357,2.357,0,0,1-1.348,2.455c-.99.524-2.008,1.009-3.345,1.686a1.527,1.527,0,0,0-.848,2.109c.409.955,1.765,3.851,2.156,4.741a1.671,1.671,0,0,0,2.178,1.019c.924-.363,1.266-2.981,2.445-3.459a2.3,2.3,0,0,1,2.775.654c.726.771,1.894,1.761,1.894,1.761a2.2,2.2,0,0,1,.671,2.665c-.291,1.017-.54,2.066-.981,3.469a3.69,3.69,0,0,0,1.546,3.857c1.034.5,1.493.846,2.386,1.253,1.186.541,1.48-1.964,1.809-2.725s.889-2.009,1.48-3.4a2.593,2.593,0,0,1,2.559-1.586,12.115,12.115,0,0,1,2.219.054c1.177.151,1.673.174,2.373,1.287.436.692.81,1.281,1.862,2.943.644,1.018,1.233,1.35,2.274.909a25.713,25.713,0,0,0,2.9-1.348,1.549,1.549,0,0,0,.553-2.079c-.259-.715-.6-1.57-1.254-3.277a2.343,2.343,0,0,1,.574-2.974c.567-.558,1.01-1.037,1.715-1.765a2.311,2.311,0,0,1,2.323-.52c.867.193,2.507.452,3.962.776a1.5,1.5,0,0,0,2.009-1.18c.214-.619.566-1.7.834-2.509a1.5,1.5,0,0,0-.762-1.935c-.787-.437-2.547-1.281-3.781-1.9a2.038,2.038,0,0,1-1.317-2.2l-.027-2.185a2.2,2.2,0,0,1,1.442-2.34c.931-.5,1.822-.919,3.135-1.581s1.333-1.079.973-2.171-.552-1.647-.883-2.571A1.791,1.791,0,0,0,369.715,224.642Zm-13.788,18.637a8.348,8.348,0,1,1,2.749-11.481A8.348,8.348,0,0,1,355.926,243.279Z"/><path class="c" d="M371.374,190.089a20.233,20.233,0,0,0,.976,8.327c.239,1.133-.185,1.828-1.014,5.309-.137.575,1.73.656,1.73.656a38.174,38.174,0,0,0,2.015,6.441c1.042,2.085,2.2,2.432,4.98,1.969s10.068-2.949,12.152-5.845,1.862-14.077,1.862-14.077l-13.552-5.444Z"/><path class="ac" d="M382.967,212.016s6.323-2.863,8.709-6.084c.7-.945-.338,3.6-2.267,5.19-2.028,1.67-6.323,2.982-6.323,2.982Z"/><path class="n" d="M370.322,190.363c-.239,2.326,1.67,2.982,4,3.877s2.625,3.281,2.863,4.832,2.386,1.133,2.386,1.133-.358-3.042.239-4.295,3.042-1.193,2.565,2.088-.06,5.488,2.028,6.979c2.709,1.935,6.681,1.611,8.351,1.014s4.056-9.246,1.253-15.211-12.228-10.021-17.239-7.1S370.322,190.363,370.322,190.363Z"/><path class="l" d="M393.164,193.266a130.749,130.749,0,0,1-24.2-1.827s.22-12.588,10.957-12.468c3.893.043,11.526.83,11.859,1.958A28.5,28.5,0,0,1,393.164,193.266Z"/><path class="k" d="M381,192.928a18.988,18.988,0,0,0,8.112-1.432,15.974,15.974,0,0,0,4.414-2.147,62.377,62.377,0,0,1,7.277,1.312c2.863.954-1.811,5.142-10.021,4.533C384.339,194.718,381,192.928,381,192.928Z"/><path class="p" d="M370.914,226.741c-.775.3-1.527.594-2.938,1.142a3.067,3.067,0,0,1-3.18-.294c-.562-.539-1.239-1.132-1.823-1.79a2.728,2.728,0,0,1-.693-2.7c.106-.811.353-1.474.811-3.388.28-1.172.108-1.825-.934-2.264a23.026,23.026,0,0,0-2.8-1.108,1.749,1.749,0,0,0-2.062,1.021c-.332.684-.706,1.525-1.474,3.184a2.343,2.343,0,0,1-2.532,1.663c-.8-.017-1.265,0-2.278.005a2.134,2.134,0,0,1-2.086-.956c-.356-.667-1.514-2.462-2.3-3.731a1.5,1.5,0,0,0-2.247-.617c-.593.279-1.615.782-2.38,1.153a1.5,1.5,0,0,0-.855,1.9c.236.869.858,2.719,1.272,4.037a2.341,2.341,0,0,1-.565,2.688s-.768.71-1.624,1.486a2.818,2.818,0,0,1-2.56.664c-.869-.126-2.257-.54-3.651-.873s-2.047.36-2.235,1.078-.633,1.964-.878,2.723a1.607,1.607,0,0,0,1.058,1.894c.83.392,2.2,1.142,3.147,1.637a2.378,2.378,0,0,1,1.429,2.082c.144,1.139.133,1.566.225,2.607a2.357,2.357,0,0,1-1.348,2.455c-.99.524-2.008,1.009-3.345,1.686a1.527,1.527,0,0,0-.848,2.109c.409.955.829,1.762,1.219,2.652a1.671,1.671,0,0,0,2.178,1.019c.924-.363,2.2-.892,3.382-1.371a2.3,2.3,0,0,1,2.775.654c.726.771,1.894,1.761,1.894,1.761a2.2,2.2,0,0,1,.671,2.665c-.291,1.017-.553,1.758-.994,3.161s-.035,1.985,1,2.487,1.384.665,2.277,1.072a1.791,1.791,0,0,0,2.478-.867c.329-.762.889-2.009,1.48-3.4a2.593,2.593,0,0,1,2.559-1.586,12.115,12.115,0,0,1,2.219.054c1.177.151,1.673.174,2.373,1.287.436.692.81,1.281,1.862,2.943.644,1.018,1.233,1.35,2.274.909a25.713,25.713,0,0,0,2.9-1.348,1.549,1.549,0,0,0,.553-2.079c-.259-.715-.6-1.57-1.254-3.277a2.343,2.343,0,0,1,.574-2.974c.567-.558,1.01-1.037,1.715-1.765a2.311,2.311,0,0,1,2.323-.52c.867.193,2.507.452,3.962.776a1.5,1.5,0,0,0,2.009-1.18c.214-.619.566-1.7.834-2.509a1.5,1.5,0,0,0-.762-1.935c-.787-.437-2.547-1.281-3.781-1.9a2.038,2.038,0,0,1-1.317-2.2l-.027-2.185a2.2,2.2,0,0,1,1.442-2.34c.931-.5,1.822-.919,3.135-1.581s1.333-1.079.973-2.171-.552-1.647-.883-2.571A1.791,1.791,0,0,0,370.914,226.741Zm-13.788,18.637a8.348,8.348,0,1,1,2.749-11.481A8.348,8.348,0,0,1,357.126,245.378Z"/><path class="c" d="M344.541,246.55c-5.647-1.235-6.878-1.614-10.48-5.11-2.172-2.221-2.206-3.441-.735-3.154-2.8-1.311-3.115-4.071-1.14-3.146a1.584,1.584,0,0,1-.134-2.287c.638-.5,1.563.527,1.827,1.257.219-.9,1.416-1.746,3.089-.16,1.416,1.262,1.821,1.254,1.821,1.254-.944-1.85-.481-2.838.577-2.948,1.362,1.842,4.261,3.8,6.1,5.871a7.6,7.6,0,0,1,.769,1.367l11.959,5.394-5.908,4.888Z"/><path class="k" d="M371.554,256.974c-1.6,2.053-4.373,3.244-10.3.141-4.2-2.2-16.432-9.521-16.432-9.521l3.879-7.828,16.221,7.617s3.572-18.571,4.443-24.331c1.834-12.13,13.682,7.405,7.962,22.791C374.075,254.6,372.541,255.7,371.554,256.974Z"/><path class="l" d="M371.853,253.055c2.306-4.056,5.726-14.077,5.885-18.213.076-1.988.024-4.5-.051-6.586-2.29-8.149-7.193-12.659-8.32-5.2-.871,5.76-4.443,24.331-4.443,24.331L348.7,239.766l-3.122,6.3c3.869,2.03,18.634,9.777,19.67,10.329C366.445,257.032,369.546,257.112,371.853,253.055Z"/><path class="j" d="M79.671,159.414l-4.24-5.968S63.63,126.591,62.7,122.9s-8.234-7.774-4.857,4.319,9.658,30.47,11.072,33.054a68.886,68.886,0,0,0,4.319,6.432Z"/><path class="ad" d="M64.418,301.84l-4.4,8.955s-8.781.94-6.183-1.274,5.049-11.59,5.049-11.59Z"/><path class="ad" d="M94.975,299.937c-.423,7.1-.218,4.744-1.4,10.713s5.452,2.24,6.69-2.727,2.964-12.368,2.964-12.368S95.4,292.834,94.975,299.937Z"/><path class="i" d="M59.985,310.94l-1.011,3.922a2.408,2.408,0,0,1-2.133,1.3l-9.561.579a49.333,49.333,0,0,1-6.158-.434c-1.872-.579-.637-1.883-.185-1.883,1.716-.145,6.085-1.895,9.524-3.053C53.3,310.361,59.985,310.94,59.985,310.94Z"/><path class="ad" d="M60.624,307.6c-.339,1.315-.3,2.474-.6,3.2-.3,1.158-11.7,2.329-11.7,2.329-.334,0-1.784-.447-1.08-.591,2.846-1.014,8.927-3.765,9.193-5.226Z"/><path class="i" d="M93.456,310.65l-1.137,3.923c-.144,1.014.457,1.448,1.5,1.593l9.688,1.014a58.369,58.369,0,0,0,6.792.145c2.273-.434,1.65-1.738,1.212-1.883-1.729-.29-5.314-2.172-8.166-3.632C100.771,310.65,93.456,310.65,93.456,310.65Z"/><path class="ad" d="M94.762,307.452c-.341,1.315-1.037,2.619-1.187,3.2-.3,1.159,10.953,3.054,10.953,3.054.238,0,2-.29,1.469-.579-2.452-1.171-6.68-2.963-5.409-6.506Z"/><path class="l" d="M80.457,228.044c-6.175,22.772-24.814,76.168-24.814,76.168H66.951S81.006,278.554,86.9,261.967c2.82-7.942,7.852-24.028,7.852-24.028l2.2-.157s.785,20.416.157,28.426-5.227,38.006-5.227,38.006h10.536s8.244-40.361,8.692-43.5,3.1-21.993,3.589-33.765S86.632,205.272,80.457,228.044Z"/><path class="k" d="M113.827,238.444c.4-4.058.725-8.078.866-11.5.486-11.772-28.061-21.673-34.236,1.1-.519,1.914-1.128,4.034-1.8,6.306C86.448,235.209,102.389,237.087,113.827,238.444Z"/><polygon class="ae" points="88.189 173.446 114.792 170.363 112.196 138.167 85.593 141.25 88.189 173.446"/><path class="j" d="M68.4,113.156a37.281,37.281,0,0,0-3.172,2.219s-.865-7.513-1.035-10.265c-.117-1.9-1.42-1.585-1.589.054-.225,2.179-.293,6.023-.293,6.023s-.527-4.5-.6-6.855c-.057-1.8-1.616-1.333-1.751.58-.232,3.288-.124,7.195-.124,7.195s-.9-4.959-.925-6.622-1.67-1.2-1.85.644c-.011,1.516.059,3.9.122,6.124a29.219,29.219,0,0,1-.726-3.866c-.2-1.763-1.692-1.137-1.711.675a72.784,72.784,0,0,0,1.3,11.235,6.709,6.709,0,0,0,.669,2.208c2.3,5.089,5.391,1.472,5.391,1.472a14.264,14.264,0,0,0,3.611-5.051c.81-1.8,4.606-5.343,4.606-5.343S69.855,112.519,68.4,113.156Z"/><path class="af" d="M156,129.044c-1.794,7.354-6.985,15.259-10.088,18.762A9.465,9.465,0,0,0,145,149l6.127,5.427a19.565,19.565,0,0,0,1.645-1.668c4.611-5.206,11.62-10.632,15.876-12.506C161.853,133.711,156,129.044,156,129.044Z"/><path class="p" d="M158.292,130.937c-1.436-1.207-2.3-1.893-2.3-1.893-1.794,7.354-6.985,15.259-10.088,18.762A9.466,9.466,0,0,0,145,149l1.395,1.235C152.12,143.229,157.068,135.121,158.292,130.937Z"/><rect class="l" x="161.693" y="125.123" width="2.08" height="18.734" rx="0.494" ry="0.494" transform="translate(-45.843 167.137) rotate(-48.468)"/><rect class="af" x="144.809" y="148.039" width="6.045" height="7.715" rx="1.201" ry="1.201" transform="translate(-63.894 161.847) rotate(-48.468)"/><rect class="l" x="145.76" y="144.526" width="7.023" height="10.777" rx="0.555" ry="0.555" transform="matrix(0.663, -0.749, 0.749, 0.663, -61.925, 162.258)"/><path class="j" d="M159.83,159.267a4.136,4.136,0,0,1-1.353,2.06c-1.16,1.043-2.5,2.293-2.5,2.293l-4.855,9.827-5.7-1.553L153.67,160l-1.788-4.91,1.414-1.951Z"/><rect class="r" x="155.299" y="151.579" width="3.298" height="10.071" transform="translate(-64.353 170.262) rotate(-48.468)"/><path class="j" d="M145.582,169.047c.117-.132,5.555-8.848,5.9-9.411s-.955-4.274-.351-5.211,2.683-4.173,2.683-4.173,1.566.364,1.323,1.171-1.89,4.3-1.89,4.3l2.462,4.116-8.036,10.583Z"/><path class="j" d="M158.945,151.535a1.162,1.162,0,0,0-1.425.183,1.157,1.157,0,0,0-.541-.916,1.177,1.177,0,0,0-1.619.394l-1.417,2.327a1.17,1.17,0,0,0,1.5,1.67,1.178,1.178,0,0,0,.552,1.183,1.13,1.13,0,0,1,1.518.958,1.143,1.143,0,0,1,1.507,1.183,1.179,1.179,0,0,0,1.619-.394l1.039-1.708a1.178,1.178,0,0,0-.394-1.619,1.159,1.159,0,0,0-.757-.145l.024-.039a1.178,1.178,0,0,0-.393-1.619,1.13,1.13,0,0,1-1.214-1.461Z"/><path class="j" d="M149.556,162.322a92.424,92.424,0,0,1-11.229,15.189l-16.215-6.692-3.4,10.415,19.834,5.622c1.767.465,4.057.969,6.322-2.191,4.4-6.133,8.695-16.742,8.695-16.742S152.483,157.147,149.556,162.322Z"/><polygon class="ag" points="131.888 174.93 129.503 184.17 132.667 185.067 133.169 175.441 131.888 174.93"/><path class="ah" d="M132.126,174.648l-10.277-4.081-17.569-6.675-2.766,6.763-1.552-.295,0-.082-.214.042-.221-.042,0,.086-.9.177-2.248-6.36-4.394,1.56c-4.6,1.635-13.278-8.289-13.278-8.289l-9.125,6.44s12.172,17.721,11.917,28.53h0l-2.791,39.262,18.111-.579,17.649.579,4.041-45.553,9.962,2.051Z"/><path class="ae" d="M111.292,147.777c1.914-3.431.731-10.9.731-10.9-.548-6.8-6.518-11.806-13.9-10.95-7.541.874-13.176,7.225-12.627,14.025,0,0,.355,8,5.345,11.808h0Z"/><path class="j" d="M109.759,141.525a1.976,1.976,0,0,1,1.657-1.214s1.606-.038,1.252,2.773l-.325,1.361-.183,1.335-.483,1.369-.218.9a3.249,3.249,0,0,0-.17,1.491,1.725,1.725,0,0,1-.9,1.561s-.875-.047-1.019-.03c0,0-.032-2.194-.868-8.817Z"/><path class="ae" d="M90.677,147.978c-.475-2.29-1.553-8.3.473-8.538s.42-5.747.42-5.747l-3.511,5.379.6,7.392C88.76,147.761,90.677,147.978,90.677,147.978Z"/><path class="ae" d="M109.374,147.559c.1-2.342-1.393-15.476-1.393-15.476l2.159-.393.4,4.921.713,8.835C111.366,146.894,109.374,147.559,109.374,147.559Z"/><path class="j" d="M108.857,137.537l-9.578,8.2-10.287-5.9c-.61,5.186,1.145,14.191,1.145,14.191a5.42,5.42,0,0,0,2.853,4.005c2.436,1.943,5.989,3.956,7.841,3.741,3.045-.353,9.475-6.282,9.136-10.484C109.966,151.293,110.284,142.487,108.857,137.537Z"/><path class="j" d="M88.833,141.472a9.642,9.642,0,0,0,10.935,8.657,10.4,10.4,0,0,0,9.361-11.009c-.432-5.357-5.278-9.179-10.936-8.524C92.69,131.234,88.4,136.116,88.833,141.472Z"/><path class="ae" d="M110.191,141.332s-3.563-9.674-7.409-10.1l-4.356-3.3L110.019,132l1.463,5.38Z"/><path d="M103.7,144.415a.663.663,0,0,0,.79.649.716.716,0,0,0,.66-.817.658.658,0,0,0-.778-.641A.716.716,0,0,0,103.7,144.415Z"/><path d="M93.845,145.557a.66.66,0,0,0,.779.65.719.719,0,0,0,.672-.819.661.661,0,0,0-.79-.639A.713.713,0,0,0,93.845,145.557Z"/><path class="ae" d="M106.305,131.261s-2.815,5-7.972,6.474c0,0-5.289,1.487-6.436,5.427,0,0-1.061,3.194-2.885,4.136l-.911-11.29,9.363-7.232Z"/><path class="ae" d="M103.353,132.768s6.056,4.413,6.437,10.941l.521-8.089-3.811-5.552-4.088.182Z"/><path class="ae" d="M96.774,141.877l.144-.017-.012-.147a5.693,5.693,0,0,0-4.841-.165c-.144.017-.144.017-.133.159l.144-.017s2.711-.9,4.7.186Z"/><path class="ae" d="M102.277,141.239h0a6.967,6.967,0,0,1,4.581-1.262l.156-.018c-.011-.142-.011-.142-.167-.124a5.8,5.8,0,0,0-4.725,1.273l.012.147Z"/><path class="ai" d="M99.286,144.822l.46,5.018c2.2-.047,2.182-.253,2.182-.253-.721-1.392-1.335-1.743-1.469-3.211C100.4,145.746,99.873,144.754,99.286,144.822Z"/><path class="aj" d="M101.639,149.621l-1.894.219-2.026.235a.717.717,0,0,0-.66.822.512.512,0,0,0,.178.414,1.151,1.151,0,0,1,.7-.372,1.3,1.3,0,0,1,1.078.606.839.839,0,0,0,.9.33,1.025,1.025,0,0,0,.84-.532,1.42,1.42,0,0,1,.96-.842,1.718,1.718,0,0,1,.743.205c-.011-.142.12-.305.109-.447A.779.779,0,0,0,101.639,149.621Z"/><path class="j" d="M107.172,164.181s-.19-1.469-.424-6.292c-1.961,2.094-4.373,3.709-5.917,3.888-1.638.19-4.6-1.363-6.952-3.068l.491,6.084s-1.309.511-2.77,1.057c0,0,1.3,4.293,8.781,5.167,6.379.746,9.956-4.81,9.956-4.81S107.68,165.112,107.172,164.181Z"/><path class="aj" d="M100.83,161.777c-1.638.19-4.6-1.363-6.952-3.068l.194,2.4c1.363,1.159,3.932,2.961,6.625,2.827,2.331-.116,4.615-1.976,6.184-3.565-.064-.647-.062-1.331-.133-2.483C104.786,159.983,102.374,161.6,100.83,161.777Z"/><path class="ak" d="M95.3,154.017a18.208,18.208,0,0,0,9.654-.56s-1.575,4.641-4.575,4.7C97.218,158.222,95.849,155.362,95.3,154.017Z"/><path class="p" d="M95.3,154.017a18.208,18.208,0,0,0,9.654-.56s-1.59,3.312-4.59,3.372C97.2,156.892,95.849,155.362,95.3,154.017Z"/></svg>