<svg xmlns="http://www.w3.org/2000/svg" viewBox="0 0 636 300"><defs><style>.a{fill:#eaeaea;}.b{fill:#c8c8c8;}.c{fill:#a6a6a6;}.d{fill:#fff;}.e{fill:#c2c2c2;}.f{fill:#b3d6f2;}.g{fill:#69afe5;}.h{fill:#2488d8;}.i{fill:#243549;}.j{fill:#401467;}.k{fill:#220c3d;}.l{fill:#8562ad;}.m{fill:#5c2d91;}.n{fill:#b2b2b2;}.o{fill:#a996f0;}.p{fill:#737373;}</style></defs><title>vscom-swiss-army-knife</title><path class="a" d="M212.381,144.362c-8.1-10.794-48.963-64.61-57.093-75.314a1.028,1.028,0,0,0-1.838.46c-.546,3.606-1.1,10.673,1.764,15.687,4,7,18.333,32,18.333,32s8.833-1.333,13.833,5.667,17.045,23.962,19.333,26.667C210.381,153.862,216.431,149.762,212.381,144.362Z"/><path class="b" d="M168.5,171.95V120.9l6.892-58.088a1.1,1.1,0,0,1,1.933-.591c2.021,2.391,5.175,7.014,5.175,12.583v40.809a14.679,14.679,0,0,0-8,13V154.4a2.552,2.552,0,0,0,2.552,2.552h5.219a2.229,2.229,0,0,1,2.229,2.229V171.95h-16Z"/><path class="c" d="M176.043,111.362a3.333,3.333,0,1,0-3.333-3.333A3.333,3.333,0,0,0,176.043,111.362Z"/><path class="d" d="M406.939,77.994l19.748-19.542L422.908,52l-26.7,7.672-1.2,8.212-144.577,84.7,4.234,7.226L399.31,75.069Z"/><path class="e" d="M426.68,58.452l-1.864-3.183L252.54,156.2l2.117,3.613L399.3,75.069l7.629,2.925Z"/><path class="d" d="M295.214,70.414l.242-2.864-1.75-1.25-19.018,23.6c-10.716-8.638-14.014-11.3-15.03-12.114l20.314-22.71-1.75-1.25a25.43,25.43,0,0,0-26.861,8.427c-6.051,7.507-7.92,16.617-3.877,25.182-32.95,40.88-86.721,107.815-91.1,113.252l20.259,15.609c48.989-60.78,90.752-112.817,90.752-112.817a25.934,25.934,0,0,0,23.784-9.137C296.308,87.97,297.449,78.4,295.214,70.414Z"/><path class="c" d="M295.456,67.549l-19.018,23.6-15.483-12.48,19.018-23.6A25.43,25.43,0,0,0,253.112,63.5c-6.051,7.507-7.92,16.617-3.877,25.182-32.951,40.881-86.722,107.817-91.105,113.254l20.259,15.609c48.989-60.78,90.752-112.816,90.752-112.816a25.934,25.934,0,0,0,23.784-9.137C298.977,88.079,299.5,76.115,295.456,67.549Z"/><path class="f" d="M448.012,174.2S426.045,144,357.4,149.492,207.75,176.95,207.75,176.95Z"/><path class="g" d="M448.012,176.2S426.045,146,357.4,151.492,207.75,178.95,207.75,178.95Z"/><path class="h" d="M406.881,159.95c-11.728-3.252-27.225-5.178-47.362-3.567-10.251.82-20.815,2.072-31.289,3.567Z"/><path class="i" d="M516.164,250.95H124.4a4.566,4.566,0,0,1-4.4-4.5,4.464,4.464,0,0,1,4.4-4.5h391.76a4.374,4.374,0,0,1,4.4,4.5A4.467,4.467,0,0,1,516.164,250.95Z"/><path class="j" d="M472.133,246.95H168.213c-23.009,0-42.3-18.83-41.838-41.835.444-22.258,20.627-40.165,42.992-40.165H471.286c23.009,0,42.3,18.83,41.838,41.835A41,41,0,0,1,472.133,246.95Z"/><path class="k" d="M446.973,213.95H338.145a26.049,26.049,0,0,0-25.18,33h5.284c-.045-.606-.07-1.218-.07-1.836a26.163,26.163,0,0,1,26.164-26.164H453.11a25.753,25.753,0,0,1,13.072,3.566A25.813,25.813,0,0,0,446.973,213.95Z"/><path class="f" d="M455.266,248.95h0c-2.738-.042-9.432-1.566-12.459-14.785-1.2-5.23-3.462-7.083-4.561-7.086-1.527.046-4.171,3.055-5.263,9.6-1.2,7.218-6.073,12.143-12.121,12.252-.062,0-.124,0-.186,0-5.158,0-11.878-3.877-14.124-14.867-1.242-6.078-3.517-8.1-4.423-8.119h-.319c-.852,0-3.169,1.863-4.631,7.478-2.3,8.82-7.833,14.353-14.112,14.23-5.8-.162-10.225-5.061-11.845-13.1-1.1-5.467-3.54-7.937-5.36-7.937h-.05c-1.808.045-3.995,2.484-4.68,7.06-1.466,9.808-7.491,14.234-12.81,14.271h-1.049c-4.921,0-11.261-3.845-13.034-14.706-1-6.119-5.92-10.1-8.763-11.931-4.9-3.149-10.042-4.166-12.4-3.523l-2.1-7.719c5.034-1.371,12.431.4,18.833,4.512,6.844,4.4,11.224,10.57,12.335,17.371.9,5.5,3.286,8,5.132,8h.552c1.9-.013,4.2-2.666,4.933-7.712,1.439-9.9,7.414-14.477,12.7-14.614,5.228-.105,11.564,3.764,13.783,15.109.924,4.718,2.775,6.871,4.2,6.912,1.533.028,4.547-2.24,6.146-8.556,2.252-8.9,6.973-14.17,12.662-14.17q.126,0,.255,0c5.826.161,10.406,5.8,12.25,15.094,1.162,5.851,3.9,8.474,6.011,8.438,1.917-.036,3.557-2.229,4.08-5.46,1.98-12.234,8.073-16.759,13.113-16.916.091,0,.181,0,.272,0,4.626,0,10.267,3.622,12.54,13.843,1.417,6.369,2.915,8.776,4.967,9.9,4.83,2.644,9.668-5.6,11.384-10.306.961-2.639,2.631-2.533,2.117.589C468.256,240.109,461.2,248.95,455.266,248.95Z"/><path class="f" d="M455.266,248.95h0c-2.738-.042-9.432-1.566-12.459-14.785-1.2-5.23-3.462-7.083-4.561-7.086-1.527.046-4.171,3.055-5.263,9.6-1.2,7.218-6.073,12.143-12.121,12.252-.062,0-.124,0-.186,0-5.158,0-11.878-3.877-14.124-14.867-1.242-6.078-3.517-8.1-4.423-8.119h-.319c-.852,0-3.169,1.863-4.631,7.478-2.3,8.82-7.833,14.353-14.112,14.23-5.8-.162-10.225-5.061-11.845-13.1-1.1-5.467-3.54-7.937-5.36-7.937h-.05c-1.808.045-3.995,2.484-4.68,7.06-1.466,9.808-7.491,14.234-12.81,14.271h-1.049c-4.921,0-11.261-3.845-13.034-14.706-1-6.119-5.92-10.1-8.763-11.931-4.9-3.149-10.042-4.166-12.4-3.523l-2.1-7.719c5.034-1.371,12.431.4,18.833,4.512,6.844,4.4,11.224,10.57,12.335,17.371.9,5.5,3.286,8,5.132,8h.552c1.9-.013,4.2-2.666,4.933-7.712,1.439-9.9,7.414-14.477,12.7-14.614,5.228-.105,11.564,3.764,13.783,15.109.924,4.718,2.775,6.871,4.2,6.912,1.533.028,4.547-2.24,6.146-8.556,2.252-8.9,6.973-14.17,12.662-14.17q.126,0,.255,0c5.826.161,10.406,5.8,12.25,15.094,1.162,5.851,3.9,8.474,6.011,8.438,1.917-.036,3.557-2.229,4.08-5.46,1.98-12.234,8.073-16.759,13.113-16.916.091,0,.181,0,.272,0,4.626,0,10.267,3.622,12.54,13.843,1.417,6.369,2.915,8.776,4.967,9.9,4.83,2.644,9.668-5.6,11.384-10.306.961-2.639,2.631-2.533,2.117.589C468.256,240.109,461.2,248.95,455.266,248.95Z"/><path class="g" d="M454.766,253.95h-1.152c-2.619-.04-9.022-1.5-11.918-14.142-1.144-5-3.311-6.775-4.363-6.778-1.461.044-3.99,2.922-5.034,9.185-1.15,6.9-5.809,11.615-11.594,11.719l-.178,0c-4.934,0-11.362-3.709-13.51-14.221-1.188-5.814-3.364-7.743-4.231-7.766h-1.475c-.852,0-3.169,1.863-4.631,7.478-2.3,8.82-7.833,14.353-14.112,14.23-5.8-.162-10.225-5.061-11.845-13.1-1.1-5.467-3.54-7.937-5.36-7.937h-.05c-1.808.045-3.995,2.484-4.68,7.06-1.466,9.808-7.491,14.234-12.81,14.271h-1.049c-4.921,0-11.261-3.845-13.034-14.706-1-6.119-5.92-10.1-8.763-11.931-4.9-3.149-10.042-4.166-12.4-3.523l-2.1-7.719c5.034-1.371,12.327.563,18.833,4.512,5.415,3.286,7.7,9.272,8.814,16.074.9,5.5,4.694,9.293,8.652,9.293h.552c4.244,0,7.929-4.74,8.744-9.213,1.333-7.321,4.833-11.592,9.167-11.592,5.229,0,7.448,3.49,9.667,13.574.924,4.194,4.167,6.96,8.036,6.96,1.533,0,7.531-1.5,9.131-7.113,2.252-7.91,4.167-13.727,9.167-13.727s7.36,3.936,9.167,12.2c1.5,6.863,6.167,9.356,9.86,9.356,3.307,0,7.784-3.434,8.307-6.306,1.98-10.874,4.127-13.588,9.167-13.727,5.114,0,6.894,3.726,9.167,12.812,1.417,5.661,5.668,7.735,8.5,7.931,5.454.378,10.385-4.969,12.1-9.157.961-2.345,1.514-4.775,1-2C467.524,243.071,460.7,253.95,454.766,253.95Z"/><path class="e" d="M196.459,196.267l-4.541-7.44a5.517,5.517,0,0,1,1.835-7.583l66.549-40.62a5.517,5.517,0,0,1,7.583,1.835l4.541,7.44a5.517,5.517,0,0,1-1.835,7.583L204.042,198.1A5.518,5.518,0,0,1,196.459,196.267Z"/><path class="c" d="M273.078,151.567l-3.525-5.775a5.517,5.517,0,0,0-7.583-1.835l-66.549,40.62a5.5,5.5,0,0,0-2.485,5.915l3.525,5.775a5.517,5.517,0,0,0,7.583,1.835l66.549-40.62A5.5,5.5,0,0,0,273.078,151.567Z"/><path class="l" d="M472.133,164.95H168.213c-23.009,0-42.3,18.83-41.838,41.835a41,41,0,0,0,40.992,40.165h145.5a26.049,26.049,0,0,1,25.18-33H446.988a26.049,26.049,0,0,1,25.18,33h-.788c21.794,0,40.368-16.71,41.677-38.465A41,41,0,0,0,472.133,164.95Z"/><path class="m" d="M126.274,206.95a41.017,41.017,0,0,0,41,40H312.868a26.049,26.049,0,0,1,25.18-33H446.992a26.049,26.049,0,0,1,25.18,33h.062a41.017,41.017,0,0,0,41-40Z"/><path class="n" d="M170.1,221.378a15.1,15.1,0,1,0-15.1-15.1A15.1,15.1,0,0,0,170.1,221.378Z"/><path class="o" d="M470.259,168.95H169.581c-17.857,0-33.65,12.275-37.33,29.749a38.262,38.262,0,0,0,.814,19.251h.163a38.056,38.056,0,0,1,15.642-38.094,33.656,33.656,0,0,1,20.456-6.906H470.26c8.24,0,17.3,1,17.3,1S479.018,168.95,470.259,168.95Z"/><path class="p" d="M155.02,206.95a15.089,15.089,0,0,0,30.17,0Z"/></svg>