<svg id="Layer_1" data-name="Layer 1" xmlns="http://www.w3.org/2000/svg" xmlns:xlink="http://www.w3.org/1999/xlink" viewBox="0 0 636 350"><defs><style>.cls-1,.cls-18,.cls-2{fill:none;}.cls-2{clip-rule:evenodd;}.cls-3,.cls-9{fill:#ce9c5f;}.cls-4{fill:#1e293d;}.cls-17,.cls-5{fill:#737373;}.cls-19,.cls-6{fill:#fff;}.cls-10,.cls-17,.cls-18,.cls-31,.cls-35,.cls-36,.cls-39,.cls-40,.cls-6,.cls-7,.cls-8,.cls-9{fill-rule:evenodd;}.cls-8{fill:#2d3d87;}.cls-10,.cls-20{fill:#ba8c57;}.cls-11{fill:#b3d6f2;}.cls-12,.cls-35{fill:#2488d8;}.cls-13{fill:#005a93;}.cls-14{fill:#f08400;}.cls-15{fill:#ffb900;}.cls-16,.cls-36{fill:#69afe5;}.cls-21,.cls-39{fill:#282828;}.cls-22{fill:#613d30;}.cls-23{fill:#f0ae00;}.cls-24{fill:#c78e00;}.cls-25{fill:#b57d00;}.cls-26{fill:#e3008c;}.cls-27{fill:#b4009e;}.cls-28{fill:#c2c2c2;}.cls-29,.cls-31{fill:#0078d7;}.cls-30{fill:#004578;}.cls-32{fill:#ff8c00;}.cls-33{fill:#5d5f5e;}.cls-34{fill:#666;}.cls-37{fill:#e26c41;}.cls-38{fill:#40c5af;}.cls-40{fill:#aa5b5b;}.cls-41{fill:#e6e6e6;}.cls-42{fill:#939393;}.cls-43{clip-path:url(#clip-path);}.cls-44{fill:#409ae1;}.cls-45{clip-path:url(#clip-path-2);}.cls-46{clip-path:url(#clip-path-3);}</style><clipPath id="clip-path"><rect class="cls-1" x="153.08" y="211.66" width="14.01" height="14.01" transform="translate(320.17 437.32) rotate(180)"/></clipPath><clipPath id="clip-path-2"><polygon class="cls-2" points="152.13 225.73 167.09 225.73 166.77 211.09 152.13 211.09 152.13 225.73"/></clipPath><clipPath id="clip-path-3"><path class="cls-3" d="M158,221.55s0-1.67,0-2.51c-1.6-3.18-.65-5.24,1.45-5.89a2.75,2.75,0,0,1,3.63,2.66l1,1.41-.63.35s0,1.14-.1,1.69-.21.63-.81.71l-1.3.19,0,1.33Z"/></clipPath></defs><title>hero-devops-conductor</title><g id="Vector"><path id="path9_fill" data-name="path9 fill" class="cls-4" d="M431.93,336.82H188a4.56,4.56,0,0,1-4.4-4.5,4.46,4.46,0,0,1,4.4-4.5H431.93a4.37,4.37,0,0,1,4.4,4.5A4.47,4.47,0,0,1,431.93,336.82Z"/></g><path class="cls-5" d="M307.86,277h-.1a118.5,118.5,0,0,1-12.06-.62l.2-2a117.75,117.75,0,0,0,11.89.61Zm3,0,0-2a115.76,115.76,0,0,0,11.93-.94l.26,2A119.86,119.86,0,0,1,310.9,277ZM292.67,276a118.25,118.25,0,0,1-12-2.19l.46-1.95A114.85,114.85,0,0,0,292.93,274Zm33.38-.45-.31-2a113.15,113.15,0,0,0,11.7-2.49L338,273A114.57,114.57,0,0,1,326.05,275.57Zm-48.3-2.49a115.08,115.08,0,0,1-11.59-3.75l.72-1.87a116.13,116.13,0,0,0,11.38,3.69Zm63.14-.86-.57-1.92a111.86,111.86,0,0,0,11.28-4l.77,1.85A116.77,116.77,0,0,1,340.89,272.22Zm-77.57-4a116.38,116.38,0,0,1-11-5.25l1-1.76a113.65,113.65,0,0,0,10.8,5.16ZM355.16,267l-.82-1.83A116.13,116.13,0,0,0,365,259.68l1,1.73A116.36,116.36,0,0,1,355.16,267Zm-105.49-5.49a115.72,115.72,0,0,1-10.21-6.63l1.17-1.62a115.65,115.65,0,0,0,10,6.52Zm118.94-1.61-1.05-1.7a114.18,114.18,0,0,0,9.86-6.79l1.21,1.59A116.34,116.34,0,0,1,368.61,259.85ZM237,253a116.23,116.23,0,0,1-9.26-7.9l1.37-1.45a118,118,0,0,0,9.1,7.77Zm144-1.94-1.26-1.55a116.41,116.41,0,0,0,8.89-8l1.42,1.41A118.44,118.44,0,0,1,381,251.06ZM225.57,243a116.23,116.23,0,0,1-8.15-9l1.55-1.26a112.47,112.47,0,0,0,8,8.89Zm166.62-2.24-1.45-1.38a116.16,116.16,0,0,0,7.78-9.09l1.58,1.21A114.32,114.32,0,0,1,392.19,240.73Zm-176.66-9.19a114.91,114.91,0,0,1-6.91-10l1.7-1.05a116.58,116.58,0,0,0,6.8,9.86ZM401.93,229l-1.62-1.17a114.25,114.25,0,0,0,6.53-10l1.73,1A118,118,0,0,1,401.93,229ZM207.06,218.91a116.19,116.19,0,0,1-5.54-10.83l1.82-.82a114.78,114.78,0,0,0,5.45,10.65Zm203-2.74-1.75-1a114.74,114.74,0,0,0,5.15-10.8l1.85.77A116.38,116.38,0,0,1,410.06,216.17ZM200.31,205.29a116.77,116.77,0,0,1-4.07-11.48l1.92-.56a113.46,113.46,0,0,0,4,11.27Zm216.13-2.95-1.86-.72a113.51,113.51,0,0,0,3.69-11.38l1.93.51A114.32,114.32,0,0,1,416.44,202.34Zm-221-11.46a114.94,114.94,0,0,1-2.53-11.9l2-.32a113.9,113.9,0,0,0,2.49,11.71ZM421,187.8l-1.94-.46a114.85,114.85,0,0,0,2.16-11.77l2,.26A118.31,118.31,0,0,1,421,187.8ZM192.44,176a119.44,119.44,0,0,1-1-12.13l2-.06a118.39,118.39,0,0,0,.94,11.93Zm231.07-3.16-2-.2a116.2,116.2,0,0,0,.62-11.95v-.27h2v.26A117.18,117.18,0,0,1,423.51,172.8Zm-230.07-12h-2v-.13a117.13,117.13,0,0,1,.62-12l2,.2a116.22,116.22,0,0,0-.61,11.82Zm228.65-3.39a116,116,0,0,0-.95-11.93l2-.26a116.84,116.84,0,0,1,1,12.14Zm-227.7-11.53-2-.26a115.23,115.23,0,0,1,2.19-12l1.94.47A113.83,113.83,0,0,0,194.39,145.86Zm226.32-3.36a113.79,113.79,0,0,0-2.51-11.7l1.93-.52a114.65,114.65,0,0,1,2.55,11.91ZM197.27,131.18l-1.93-.51a115.08,115.08,0,0,1,3.75-11.59l1.86.72A116.07,116.07,0,0,0,197.27,131.18Zm220.12-3.26a116.19,116.19,0,0,0-4-11.27l1.84-.77a115.07,115.07,0,0,1,4.09,11.47ZM202.06,117l-1.84-.77a115,115,0,0,1,5.23-11l1.76,1A113.74,113.74,0,0,0,202.06,117Zm210.12-3.09a112.46,112.46,0,0,0-5.46-10.65l1.73-1A116.36,116.36,0,0,1,414,113.1Zm-203.5-10.33-1.74-1a115.88,115.88,0,0,1,6.63-10.22l1.62,1.18A110.4,110.4,0,0,0,208.68,103.59Zm196.51-2.88a116.37,116.37,0,0,0-6.81-9.84L400,89.65a116.4,116.4,0,0,1,6.92,10ZM217,91.14l-1.58-1.21a114,114,0,0,1,7.9-9.27L224.75,82A115.87,115.87,0,0,0,217,91.14Zm179.55-2.62a114.31,114.31,0,0,0-8-8.87l1.41-1.42a116.35,116.35,0,0,1,8.17,9Zm-169.7-8.63-1.41-1.41a118.28,118.28,0,0,1,9-8.16l1.27,1.55A116.54,116.54,0,0,0,226.83,79.89Zm159.52-2.33a116.2,116.2,0,0,0-9.11-7.76l1.22-1.59a118.18,118.18,0,0,1,9.27,7.9ZM238.06,70l-1.22-1.58a116.55,116.55,0,0,1,10-6.92l1,1.71A114.72,114.72,0,0,0,238.06,70Zm136.78-2a113.24,113.24,0,0,0-10-6.51l1-1.73A116.58,116.58,0,0,1,376,66.39ZM250.47,61.68l-1-1.73A116.28,116.28,0,0,1,260.3,54.4l.82,1.83A114.78,114.78,0,0,0,250.47,61.68ZM362.18,60a112.4,112.4,0,0,0-10.81-5.14l.76-1.85a115.21,115.21,0,0,1,11,5.23Zm-98.32-5-.77-1.84a115.8,115.8,0,0,1,11.47-4.09l.57,1.92A117.86,117.86,0,0,0,263.86,55Zm84.72-1.25a111.86,111.86,0,0,0-11.39-3.67l.51-1.94a117.62,117.62,0,0,1,11.59,3.74ZM278,50.22l-.52-1.93a114.61,114.61,0,0,1,11.91-2.54l.31,2A115.87,115.87,0,0,0,278,50.22Zm56.28-.83a113.83,113.83,0,0,0-11.77-2.15l.25-2a115.2,115.2,0,0,1,12,2.18Zm-41.62-2.1-.26-2a119.68,119.68,0,0,1,12.13-1l.06,2A115.55,115.55,0,0,0,292.67,47.29Zm26.87-.39a115,115,0,0,0-11.75-.6h-.2v-2h.2a116.25,116.25,0,0,1,12,.61Z"/><polygon class="cls-6" points="305.6 323.67 295.14 323.96 294.63 310.8 304.07 310.8 305.6 323.67"/><polygon class="cls-6" points="314.37 323.67 324.8 323.96 325.33 310.8 315.44 310.8 314.37 323.67"/><path class="cls-7" d="M313.74,331.68l7.31.53c.52,0,1.05-.53,1.57-.53,0-.53.52-.53,1.57-1.05,2.61-.53,8.35,2.1,12,2.1,2.61,0,6.26,0,8.35-1.05a1.86,1.86,0,0,0,.52-1.05c0-6.85-15.66-6.32-19.84-11.06h-.52c-1,1.06-2.09,3.16-4.7,3.16s-4.7-2.63-6.27-3.16c-1,.53-1.56,7.37-1.56,10.53A1.67,1.67,0,0,0,313.74,331.68Z"/><path class="cls-7" d="M306.22,331.68l-7.31.53a1.81,1.81,0,0,1-1-.53c-.52-.53-1.05-.53-2.09-1.05-2.09-.53-8.35,2.1-11.49,2.1-2.61,0-6.79,0-8.35-1.05a1.14,1.14,0,0,1-1.05-1.05c0-6.85,16.19-6.32,19.85-11.06h.52c1,1.06,2.61,3.16,5.22,3.16,2.09,0,4.7-2.63,5.74-3.16,1,.53,1.57,7.37,1.57,10.53A1.39,1.39,0,0,1,306.22,331.68Z"/><path class="cls-8" d="M288.54,267.49c-.49,5.48,2.92,9.87,7.8,9.87,4.38.55,8.77-3.29,8.77-8.78a9.27,9.27,0,0,0-7.8-9.86C292.93,258.17,288.54,262.55,288.54,267.49Z"/><path class="cls-8" d="M305.11,268.58a9.27,9.27,0,0,0-7.8-9.86c-4.38-.55-8.77,3.83-8.77,8.77-.49,5.48,2.92,9.87,7.8,9.87C300.72,277.91,305.11,274.07,305.11,268.58Z"/><path class="cls-8" d="M331.91,267.49c0,5.48-3.51,9.87-8.52,9.87-4.51.55-8.52-3.29-9-8.78,0-4.93,3.51-9.32,8-9.86C327.4,258.17,331.41,262.55,331.91,267.49Z"/><path class="cls-8" d="M314.37,268.58c0-4.93,3.51-9.32,8-9.86,5-.55,9,3.83,9.52,8.77,0,5.48-3.51,9.87-8.52,9.87C318.88,277.91,314.87,274.07,314.37,268.58Z"/><path class="cls-9" d="M316.56,150.3V139.74H301.21V150.3c0,2.4,2.27,4.79,8,4.79C314.29,155.09,316.56,152.7,316.56,150.3Z"/><path class="cls-10" d="M301.21,140.29c4.24,5.48,8.47,8.22,15.35,10.42V139.19l-15.35-1.64Z"/><path class="cls-11" d="M156,136.42a14.31,14.31,0,0,1-.12-27.89A13.88,13.88,0,0,1,169.32,96.7a13.52,13.52,0,0,1,11.5,6.46,13.6,13.6,0,0,1,6.07-1.42A14,14,0,0,1,200,111.06a12.64,12.64,0,0,1,2.68-.28,12.91,12.91,0,0,1,5.46,24.62l-.19.09a12,12,0,0,1-3.83,1l-.32,0c-1.68.15-3.95.18-7.55.18H158.66A11.87,11.87,0,0,1,156,136.42Z"/><path class="cls-12" d="M170.13,98.74c-4.63,1.81-7.23,4.59-7.31,10.84s1,9.62,1.18,10.1l.92,0c.37-1,3-7.58,9-9.29C178.86,109,170.13,98.74,170.13,98.74Z"/><path class="cls-13" d="M187.09,98.24c4.65,1.53,7.29,4.16,7.47,10.4s-.86,9.67-1,10.17l-.91,0c-.39-1-3.06-7.4-9.1-8.76C178.52,109,187.09,98.24,187.09,98.24Z"/><path class="cls-14" d="M177.61,108s-9.84,3.74,1.95,17.52c10.79-14.26.38-17.64.38-17.64Z"/><path class="cls-13" d="M186.07,76.14l-15.44.46c-1.86,4-3.28,8.43-3.26,12.38,0,11,5.58,20.61,6.13,21.6l10.77-.32c0-.55,5.22-10.91,5.17-21.87C189.42,84.42,188,80.07,186.07,76.14Z"/><path class="cls-12" d="M178.53,63.65s-5.32,6.5-7.88,12.95l8-.23,7.46-.23A63.37,63.37,0,0,0,178.53,63.65Z"/><path class="cls-12" d="M186.07,76.14l-1.88.06A32.77,32.77,0,0,1,186.9,88c0,8.85-2.74,17.38-4.62,22.34l2-.06c0-.55,5.22-10.91,5.17-21.87C189.42,84.42,188,80.07,186.07,76.14Z"/><ellipse class="cls-15" cx="178.54" cy="85.84" rx="4.18" ry="4.07" transform="translate(-19.12 99.12) rotate(-29.52)"/><path class="cls-16" d="M184.14,76.2l2-.06a63.37,63.37,0,0,0-7.56-12.49s-.43.53-1.11,1.43A62.77,62.77,0,0,1,184.14,76.2Z"/><path class="cls-17" d="M331.1,216.53H288.88l-.82,51.13V268h0l2.36,51.58L305.6,319l-.51-49.39c0-.17,3.09-29.13,3.09-29.13.32,0,2.72,0,3.57.06,0,0,2.84,29.5,3.1,30.36l-.48,48.1,14.45.55L331.91,268Z"/><path class="cls-18" d="M308.63,159.06c7.22,0,12.07-4.17,12.07-9.31h-4.14v.55c0,2.4-2.27,4.79-7.39,4.79-5.69,0-8-2.39-8-4.79v-.55h-4.66C296.55,154.89,301.41,159.06,308.63,159.06Z"/><polygon class="cls-17" points="331.17 216.53 331.1 213.72 288.88 213.72 288.82 216.53 331.17 216.53"/><path class="cls-9" d="M369.41,150.64c-.08.72.25,1.12.17,1.85l-2.95,5.71,7.79,2.55,1.68-4.29c3.35-4,3.57-6.19,4-10.53.31-2.89-.66-4.09-1.54-2.72,1-2.81-.91-5.21-1.86-3.12.47-1-.1-2.56-1.22-2.32-.72-.07-.87,1.37-.95,2.09-.72-.07-2.17-.23-2,1.62a11.5,11.5,0,0,1-.7,3.21c-.9-1.92-1.94-2.4-2.74-1.75C369.29,144.78,369,147.67,369.41,150.64Z"/><polygon class="cls-19" points="365.74 159.91 368.35 153.8 376.01 156.85 372.91 163.87 365.74 159.91"/><polygon class="cls-20" points="263.32 125.57 268.22 127.07 268.22 132.04 262.71 137.27 259.89 136.71 260.78 127.41 263.32 125.57"/><path class="cls-19" d="M300.24,150.06v-3.64l9.47,2.5,7.79-2.5v3.64s5.48-.89,6.53,1,2.41,62.68,2.41,62.68H288.82l4.28-61.62Z"/><path class="cls-21" d="M325.14,152.14h5.57c4.56,0,8.19,2,12.43,5.37s16.73,11.55,16.73,11.55l5.87-12.28,9.45,3.88s-5.53,13.39-6.84,16.84c-2.61,6.87-9.29,5.67-15.81,1.79s-19.23-10.9-19.23-10.9v71.92L318,213.72V179.29C318,176,325.14,152.14,325.14,152.14Z"/><path d="M317.5,148.56s12.39-.15,12.56,2.69-2.61,7.31-2.61,7.31l2.61,6L318,185.41V177.5s3.36-21.78,3.88-24.31-4.38-3.13-4.38-3.13Z"/><path class="cls-21" d="M293.1,152.14h-5.57c-7.08,0-26.63,2.52-26.63,2.52l4.7-13.79L255.18,138s-4.76,12.82-6.35,16.71-2.26,10.87,7.15,11.27,28.94,2.46,28.94,2.46v71.92l15.32-26.59V179.29C300.24,176,293.1,152.14,293.1,152.14Z"/><path d="M300.24,148.56s-11.9-.15-12.06,2.69,2.61,7.31,2.61,7.31l-2.62,6,12.07,20.88V177.5s-3.36-21.78-3.88-24.31,3.88-3.13,3.88-3.13Z"/><path d="M316.24,150.59l-4.06,1.9a3.33,3.33,0,0,0-6-.09l-4.69-1.81v6.54l4.8-2.25a3.25,3.25,0,0,0,2.86,1.62,3.36,3.36,0,0,0,2.52-1.13l4.54,1.76Z"/><path class="cls-22" d="M440.05,259.79l-47.93,0a2,2,0,0,1-1.95-2l0-62.38a2,2,0,0,1,2-2l47.52,0a2.25,2.25,0,0,1,2.32,2.21v62.14A2,2,0,0,1,440.05,259.79Z"/><polygon class="cls-11" points="438.65 256.45 393.52 256.41 393.55 196.26 438.65 196.26 438.65 256.45"/><path class="cls-19" d="M438.65,225.56v-29.3l-24.76,0C420.28,204,430.17,215.36,438.65,225.56Z"/><path class="cls-23" d="M428.66,190.69h-7.72s-.64-4.67-4.66-4.69c-2.57,0-4.65,2.15-4.65,5.25H404a1.46,1.46,0,0,0-1.57,1.39c0,.48,0,3.62,0,3.62l27.83,0v-3.86A1.68,1.68,0,0,0,428.66,190.69Zm-12.26,2.12a2.07,2.07,0,1,1,2-2.07A2,2,0,0,1,416.4,192.81Z"/><polygon class="cls-24" points="402.43 195.78 402.4 199.61 430.3 199.57 430.3 195.71 402.43 195.78"/><polygon class="cls-25" points="413.42 195.71 402.43 195.74 402.48 199.61 416.69 199.61 413.42 195.71"/><polygon class="cls-23" points="444.25 212.92 441.97 213.42 440.85 213.67 449.79 253.58 450.94 253.33 453.19 252.82 444.25 212.92"/><polygon class="cls-24" points="440.85 213.67 449.79 253.58 450.94 253.33 441.97 213.42 440.85 213.67"/><path class="cls-26" d="M443.55,209.87a.49.49,0,0,0-.59-.4l-1.29.31-.51.11-.47.08-.17.05a.52.52,0,0,0-.36.6c.45,2,.48,2.15.48,2.15l1.13-.28L444,212Z"/><path class="cls-27" d="M441.77,212.45c-.5-2.18-.55-2.43-.55-2.43a.22.22,0,0,0-.19-.11,1.63,1.63,0,0,1-.34.06h0c-.46.11-.61.34-.51.8.31,1.36.49,2.12.45,1.92,0,.1.1.16.17.12l.83-.18A.17.17,0,0,0,441.77,212.45Z"/><polygon class="cls-5" points="453.21 258.05 453.22 252.74 449.82 253.49 452.12 258.28 453.21 258.05"/><rect class="cls-19" x="441.42" y="211.6" width="2.27" height="3.48" transform="translate(555.03 -264.91) rotate(77.5)"/><rect class="cls-28" x="440.29" y="213.01" width="2.27" height="1.16" transform="translate(554.39 -263.6) rotate(77.5)"/><polygon points="453.18 257.96 452.09 258.2 453.11 260 453.18 257.96"/><rect class="cls-29" x="408.56" y="205.74" width="21.18" height="1.67"/><rect class="cls-29" x="408.56" y="214.1" width="21.18" height="1.67"/><rect class="cls-29" x="408.56" y="223.01" width="21.18" height="1.67"/><path class="cls-30" d="M429.31,235a5.29,5.29,0,1,0,5.29,5.29A5.28,5.28,0,0,0,429.31,235Zm0,8.54a3.25,3.25,0,1,1,3.26-3.25A3.25,3.25,0,0,1,429.31,243.5Z"/><circle class="cls-30" cx="429.31" cy="240.25" r="2.07"/><path class="cls-30" d="M429.22,246.8a6.67,6.67,0,0,1-4.5-1.73v7.06s4.16-2.29,4.52-2.17,4.4,2.23,4.4,2.23v-7.06A6.67,6.67,0,0,1,429.22,246.8Z"/><circle class="cls-29" cx="402.03" cy="207.38" r="3.13"/><circle class="cls-29" cx="402.03" cy="215.74" r="3.13"/><circle class="cls-29" cx="402.03" cy="224.1" r="3.13"/><path class="cls-12" d="M302.31,18.68s-1.32-1.6-2-2.46a2.23,2.23,0,0,0-2.08-1H279.59A2.5,2.5,0,0,0,277,17.64V62.7a2.49,2.49,0,0,0,2.59,2.38h53.82A2.49,2.49,0,0,0,336,62.7V22a2.47,2.47,0,0,0-2.57-2.36H304.38A2.17,2.17,0,0,1,302.31,18.68Z"/><path class="cls-16" d="M333.41,20.44H304.8a2.22,2.22,0,0,0-2.07,1c-.69.86-2,2.46-2,2.46a2.16,2.16,0,0,1-2.07,1H279.57A2.47,2.47,0,0,0,277,27.18V62.7a2.49,2.49,0,0,0,2.59,2.38h53.82A2.49,2.49,0,0,0,336,62.7V22.82A2.49,2.49,0,0,0,333.41,20.44Z"/><path class="cls-31" d="M430.8,114Zm-.42.13"/><rect class="cls-19" x="277.33" y="39.19" width="51.38" height="1.55"/><circle class="cls-12" cx="328.71" cy="39.96" r="2.96"/><polygon class="cls-19" points="311.96 50.76 297.85 50.76 290.29 40.83 291.53 39.89 298.62 49.21 311.18 49.21 318.27 39.51 319.52 40.42 311.96 50.76"/><circle class="cls-32" cx="311.38" cy="50.07" r="2.96"/><circle class="cls-32" cx="298.21" cy="50.07" r="2.96"/><path class="cls-21" d="M459,130V82.94A1.94,1.94,0,0,0,457.06,81H387.94A1.94,1.94,0,0,0,386,82.94V130Z"/><path d="M464.82,133H381.26c-2.78,0-3.24-4-3.24-4h90S467,133,464.82,133Z"/><rect class="cls-33" x="422" y="83" width="1" height="1"/><path class="cls-34" d="M467.76,130c.33-.87.49-1.46.49-1H377.83c0-.46.07.13.32,1Z"/><path class="cls-35" d="M456,85h-65.9a.07.07,0,0,0-.08.08V123h66l0,0V85Z"/><path class="cls-36" d="M456,116V85l0,0H425Z"/><rect class="cls-37" x="395.25" y="89.63" width="11" height="2"/><rect class="cls-32" x="395.25" y="95.63" width="11" height="2"/><rect class="cls-19" x="409.25" y="95.63" width="29" height="2"/><rect class="cls-19" x="395.25" y="99.63" width="11" height="2"/><rect class="cls-19" x="409.25" y="99.63" width="34" height="2"/><rect class="cls-38" x="402.25" y="103.63" width="11" height="2"/><rect class="cls-19" x="416.25" y="103.63" width="20" height="2"/><rect class="cls-32" x="409.25" y="109.63" width="11" height="2"/><rect class="cls-19" x="423.25" y="109.63" width="20" height="2"/><rect class="cls-37" x="409.25" y="113.63" width="11" height="2"/><rect class="cls-19" x="423.25" y="113.63" width="13" height="2"/><path class="cls-28" d="M261.9,137.27a.66.66,0,0,1-.23,0,.58.58,0,0,1-.38-.77l18.12-43.52a.66.66,0,0,1,.84-.34.59.59,0,0,1,.38.77l-18.12,43.52A.65.65,0,0,1,261.9,137.27Z"/><path class="cls-3" d="M258.42,138.86v-9.13L260.1,123l7.67-3.18s1,1.59,0,2.26a7.89,7.89,0,0,0-1.65,1.45s.06.93.06,1.73-1.74,1.46-1.74,1.46,2.05.92,1.68,1.59-2.8,1.72-2.8,1.72,1.12.7,1,1.34-1.74.95-1.74.95l-1.16,6.57Z"/><path class="cls-3" d="M263.58,139.71l2.54-4.25,4.84-4.4-1.58-8.73s-2,.78-2.11,2.23,0,5.31,0,5.31-5.55-.28-7.38,6.84A20.75,20.75,0,0,1,263.58,139.71Z"/><polygon class="cls-19" points="264.97 140.69 266.12 137.78 258.15 135.46 257.01 138.46 264.97 140.69"/><path class="cls-9" d="M311,116.63c.92,1.14,3.15,3.2,3.66,5a3.69,3.69,0,0,0,1.78,2.16c1.16.8,2.81,2,3.41,2.56.05.67-.11.89-.33,1-.9.67-1.78.78-1.1,2.19a27.3,27.3,0,0,0,3.31,5.37c.7.88.92,2-2.12,3.67s-12.34,5.08-16.79,3.63c-3.51-1.15-10.88-12.26-7.8-18.84S308.45,113.52,311,116.63Z"/><path class="cls-39" d="M312.49,118c1.86-.33,2.25-2.48-1.09-4a16.2,16.2,0,0,0-11.74-.59,13.76,13.76,0,0,0-9,9.92c-.81,3.11-.11,7.68,2.81,11.67,2.32,3.17,5.76,6.64,9.9,7.3,3.5.56,1.94-5,.67-6.66-.72-.92-2.61-1.79-3.86-2.87s-2.34-3.15-.89-4.45c2.13-1.89,4.33.37,5.21,1.15a.76.76,0,0,0,1.17-.05c.65-.68,1.12-1.24,1.12-1.24l-4-6.42C299.27,115.58,311.32,118,312.49,118Z"/><circle cx="312.29" cy="124.73" r="0.96"/><path class="cls-40" d="M315,132.94s2.08-.69,2.49-.87c.83-.35,1.64-.76,1.64-.76s.54-.09.64.35a3.64,3.64,0,0,1,.07.44s.7,0,.69.61-1.62.88-3,.81A8.49,8.49,0,0,1,315,132.94Z"/><rect class="cls-19" x="142.04" y="199.1" width="78.41" height="49.9"/><rect class="cls-19" x="142.04" y="199.1" width="78.41" height="49.9"/><polygon class="cls-41" points="175.1 199.1 142.04 199.1 142.04 249 220.46 249 220.46 244.46 175.1 199.1"/><rect class="cls-15" x="142.04" y="199.1" width="5.35" height="49.9"/><rect class="cls-42" x="153.63" y="204.45" width="56.14" height="3.56"/><rect class="cls-28" x="172.34" y="216.92" width="37.43" height="3.56"/><rect class="cls-28" x="153.63" y="229.4" width="56.14" height="3.56"/><rect class="cls-28" x="153.63" y="239.2" width="56.14" height="3.56"/><g class="cls-43"><rect class="cls-44" x="151.52" y="210.12" width="17.07" height="16.85" transform="translate(320.12 437.1) rotate(180)"/><g class="cls-45"><path class="cls-21" d="M152.77,225.91c.13-1.27.07-2.53.21-3.18.26-1.2.73-1.41,1.93-1.41H164c1.2,0,1.46.28,1.93,1.41a24.82,24.82,0,0,1,1.17,3.18Z"/><path class="cls-3" d="M158,221.55s0-1.67,0-2.51c-1.6-3.18-.65-5.24,1.45-5.89a2.75,2.75,0,0,1,3.63,2.66l1,1.41-.63.35s0,1.14-.1,1.69-.21.63-.81.71l-1.3.19,0,1.33Z"/><g class="cls-46"><polygon class="cls-3" points="163.97 224.06 155.13 222.04 157.53 211.44 166.37 213.45 163.97 224.06"/><path class="cls-21" d="M161.87,213.28s2.45,1.8-1.55,1.19a.28.28,0,0,0-.3.39,2.26,2.26,0,0,1-.51,2.54s-.43-.9-.63-1.21a.73.73,0,0,0-.57,1.05,1.13,1.13,0,0,0,.8.62l-1.34,1.37S156,216,158,213.71C159.56,211.9,161.87,213.28,161.87,213.28Z"/></g><polygon points="161.3 221.31 159.72 229.28 158.02 221.33 156.26 222.91 159.75 230.12 163.12 222.66 161.3 221.31"/><polygon class="cls-19" points="161.31 221.38 159.92 229.71 158 221.31 158 220.7 159.68 221.16 161.31 220.73 161.31 221.38"/></g></g><path d="M161,221.45l-.7.33a.57.57,0,0,0-1,0l-.81-.31v1.13l.83-.39a.56.56,0,0,0,.49.28.57.57,0,0,0,.43-.2l.78.31Z"/></svg>