<svg xmlns="http://www.w3.org/2000/svg" viewBox="0 0 636 350"><title>hero-vs-enterprise-sku</title><path d="M598.965,202H539.019v4.654H486.891v-11.17h52.128V182.447H486.891v-12.1h52.128V157.314H486.891v-11.17h52.128V133.112H486.891V121.941h52.128V108.91H486.891v-7.447H419.87v38.165H404.976v-21.41H385.428v.931H347.263V309.973H253.247l.745-115.425H238.354V91.223L172.263,123.8l-.279,64.229H161.093V169.415H150.854V31.649h-6.982l-5.4,40.957H105.242v1.3l-4.189-42.261H93.141V169.415H83.832v39.1H39.152V325.8h558.51Z" fill="#d4e6f4"/><path d="M393.806,63.3H322.13V213.165h71.676Z" fill="#2488d8"/><path d="M445,325.8H191.811V148.005s188.032,6.33,272.088,74.934C454.5,272.46,445,325.8,445,325.8Z" fill="#005a93"/><path d="M322.13,171.37v41.795h9.96Z" fill="#61b1e2"/><path d="M393.806,148.378V63.3h-30.16Z" fill="#52a2e1"/><path d="M419.87,223.4V251.33H191.811V223.4" fill="#106ebe"/><path d="M191.811,251.33V325.8h251.7s6.237-35,13.591-74.468Z" fill="#106ebe"/><path d="M420.987,316.489h25.319c2.42-13.5,7.167-38.351,12.1-65.159H419.963Z" fill="#106ebe"/><path d="M336.093,1.862H246.731V60.505h89.362Z" fill="#005a93"/><path d="M296.16,60.505H246.731V2.048l30.812,1.3Z" fill="#106ebe"/><path d="M354.71,0H198.327V6.516H354.71Z" fill="#479cdf"/><path d="M354.059,27H233.048L217.317,325.8H369.883Z" fill="#52a2e1"/><path d="M263.766,27H233.048L217.317,325.8h141.4Z" fill="#2488d8"/><path d="M234.816,325.612l-2.14-.186L246.824,27.553l2.048.093Z" fill="#479cdf"/><path d="M251.665,325.612l-2.048-.093L261.532,27.553l2.048.093Z" fill="#479cdf"/><path d="M268.606,325.612l-2.141-.093,9.774-297.966,2.048.093Z" fill="#479cdf"/><path d="M285.455,325.612l-2.141-.093,7.633-297.966,2.048.093Z" fill="#479cdf"/><path d="M302.3,325.612l-2.048-.093,5.4-297.966,2.048.093Z" fill="#479cdf"/><path d="M319.71,325.8h-2.234L320.92,27h2.141Z" fill="#479cdf"/><path d="M421.173,302.527H231.279V325.8H421.173Z" fill="#005a93"/><path d="M348.194,302.527H285.827V325.8h62.367Z" fill="#235a89"/><path d="M335.628,98.67h-106.3l-.187,2.793h106.49Z" fill="#479cdf"/><path d="M335.628,60.505H231.279l-.093,2.793H335.628Z" fill="#479cdf"/><path d="M335.628,136.835H227.277l-.187,2.793H335.628Z" fill="#479cdf"/><path d="M366.811,268.923v31.742h1.676Z" fill="#479cdf"/><path d="M335.628,289.5H219.178l-.093,2.792H335.628Z" fill="#479cdf"/><path d="M335.628,251.33h-114.4l-.186,2.792H335.628Z" fill="#479cdf"/><path d="M335.628,175h-110.4l-.093,2.792H335.628Z" fill="#479cdf"/><path d="M335.628,213.165H223.274l-.186,2.792h112.54Z" fill="#479cdf"/><path d="M335.162,325.8h34.721L354.152,27h-18.99Z" fill="#106ebe"/><path d="M335.162,99.6h22.806L355.92,61.436H335.162Z" fill="#005a93"/><path d="M335.162,175.931h26.809l-1.955-38.165H335.162Z" fill="#005a93"/><path d="M335.162,252.261h30.811L364.019,214.1H335.162Z" fill="#005a93"/><path d="M375.189,290.426H332.37V328.59h42.819Z" fill="#104076"/><path d="M609.3,350H25.934A5.2,5.2,0,0,1,21,344.88a5.068,5.068,0,0,1,4.934-5.119H609.3a4.95,4.95,0,0,1,4.933,5.119A5.066,5.066,0,0,1,609.3,350Z" fill="#c8c8c8"/><path d="M595.707,346.277a11.171,11.171,0,1,0-11.17-11.171A11.17,11.17,0,0,0,595.707,346.277Z" fill="#282828"/><path d="M601.572,335.2a5.9,5.9,0,0,0-5.771-5.957,5.843,5.843,0,0,0-5.772,5.957,5.9,5.9,0,0,0,5.772,5.958A5.964,5.964,0,0,0,601.572,335.2Z" fill="#282828"/><path d="M593.38,318.351H547.489v-8.378H491.638v14.894h22.341v21.317a10.993,10.993,0,0,0,9.588-10.985,3.485,3.485,0,0,0-.094-1.023h73.258C596.638,330.266,593.38,318.351,593.38,318.351Z" fill="#282828"/><path d="M512.955,346.277h.931v-.093C513.606,346.184,513.327,346.277,512.955,346.277Z" fill="#282828"/><path d="M587.144,335.2a10.947,10.947,0,0,0-10.891-11.077h4.84a11.086,11.086,0,0,1,.372,22.155h-5.026A10.97,10.97,0,0,0,587.144,335.2Z" fill="#282828"/><path d="M280.521,285.678c4.841,1.769,7.54,4.654,7.726,11.264.093,6.609-.93,10.239-1.117,10.7H286.2c-.372-1.117-3.164-7.912-9.4-9.587C271.492,296.755,280.521,285.678,280.521,285.678Z" fill="#bd3604"/><path d="M262.835,285.678c-4.84,1.769-7.54,4.654-7.726,11.264-.093,6.609.931,10.239,1.117,10.7h.931c.372-1.117,3.165-7.912,9.4-9.587C271.864,296.755,262.835,285.678,262.835,285.678Z" fill="#ec6401"/><path d="M405.069,302.713h-9.588l1.117-5.12h7.261Z" fill="#212121"/><path d="M391.2,285.4c-4.84,1.769-7.539,4.654-7.726,11.263-.093,6.609.931,10.24,1.117,10.705h.931c.373-1.117,3.165-7.912,9.4-9.588C400.229,296.476,391.2,285.4,391.2,285.4Z" fill="#ec6401"/><path d="M408.886,285.4c4.84,1.769,7.539,4.654,7.726,11.263.093,6.609-.931,10.24-1.117,10.705h-.931c-.373-1.117-3.165-7.912-9.4-9.588C399.856,296.476,408.886,285.4,408.886,285.4Z" fill="#bd3604"/><path d="M408.048,262.035H391.479a31.737,31.737,0,0,0-3.072,13.031c0,11.636,5.678,21.969,6.237,22.993h11.263c0-.559,5.585-11.357,5.585-22.993C411.4,270.878,409.909,266.223,408.048,262.035Z" fill="#ec6401"/><path d="M391.572,262.035h2.234a36.746,36.746,0,0,0-2.7,12.566c0,9.4,3.165,18.245,5.12,23.458h-2.048c0-.559-5.678-11.357-5.678-22.993A30.327,30.327,0,0,1,391.572,262.035Z" fill="#ff8c00"/><path d="M400.043,276.37a4.282,4.282,0,1,0-4.282-4.282A4.282,4.282,0,0,0,400.043,276.37Z" fill="#fff"/><path d="M400.136,248.537s-5.586,6.7-8.285,13.4h16.1A77.351,77.351,0,0,0,400.136,248.537Z" fill="none" stroke="#fff" stroke-miterlimit="10" stroke-width="0.551"/><path d="M138.194,247.7a1.121,1.121,0,0,0,.559,1.489l12.287,5.957a1.125,1.125,0,0,0,.931-2.048l-12.287-5.957A1.122,1.122,0,0,0,138.194,247.7Z" fill="#9c2801"/><path d="M162.3,257.008l-12.939-6.237L147.5,254.5l13.032,6.33a2.072,2.072,0,0,0,2.792-1.024A2.152,2.152,0,0,0,162.3,257.008Z" fill="#ec6401"/><path d="M161.559,256.822a2.165,2.165,0,0,0-2.141,2.141V334.92a2.141,2.141,0,0,0,4.282,0V258.963A2.107,2.107,0,0,0,161.559,256.822Z" fill="#d83b01"/><path d="M161.745,260.359a1.3,1.3,0,1,0-1.3-1.3A1.3,1.3,0,0,0,161.745,260.359Z" fill="#9c2801"/><path d="M141.173,263.617v-13.59h-2.141v13.59l-8.285,3.537V271.9l1.49,1.117v-4.934l7.167-2.979h1.21l7.261,2.979v4.934l1.489-1.117v-4.748Z" fill="#a7a9ac"/><path d="M140.056,252.074a2.979,2.979,0,1,0-2.979-2.978A2.978,2.978,0,0,0,140.056,252.074Z" fill="#ec6401"/><path d="M140.149,250.4a1.3,1.3,0,1,0-1.3-1.3A1.3,1.3,0,0,0,140.149,250.4Z" fill="#737373"/><path d="M140.056,266.41a2.514,2.514,0,1,0-2.513-2.514A2.514,2.514,0,0,0,140.056,266.41Z" fill="#ec6401"/><path d="M167.516,204.88l12.473,12.381-12.38,12.287,12.38,12.38-12.1,12.1,11.729,11.636L167.609,277.58,179.9,289.867l-11.821,11.822,12.194,12.566-12.846,12.474,12.566,15.08" fill="none" stroke="#a6a6a6" stroke-linejoin="round" stroke-width="1.129"/><path d="M180.176,204.322H167.144V342.088h13.032Z" fill="none" stroke="#a6a6a6" stroke-miterlimit="10" stroke-width="1.149"/><path d="M167.609,212.7H153.181v-5.585h14.428" fill="none" stroke="#a6a6a6" stroke-miterlimit="10" stroke-width="1.129"/><path d="M180.641,207.114H430.575V212.7H180.641" fill="none" stroke="#a6a6a6" stroke-miterlimit="10" stroke-width="1.304"/><path d="M431.226,204.88,443.7,217.261l-12.287,12.287,12.287,12.38-12.1,12.1,11.729,11.636L431.412,277.58l12.194,12.287-11.821,11.822,12.194,13.032L431.226,327.38l12.753,14.8" fill="none" stroke="#a6a6a6" stroke-linejoin="round" stroke-width="1.129"/><path d="M443.606,204.322H430.574V342.088h13.032Z" fill="none" stroke="#a6a6a6" stroke-miterlimit="10" stroke-width="1.149"/><path d="M443.141,207.114H458.5V212.7H443.141" fill="none" stroke="#a6a6a6" stroke-miterlimit="10" stroke-width="1.129"/><path d="M370.535,318.351H359.364v24.2h11.171Z" fill="#d83b01"/><path d="M234.63,318.351H223.46v24.2h11.17Z" fill="#d83b01"/><path d="M483.354,307.181h-22.62v11.356h22.9a5.7,5.7,0,0,0,5.678-6.143A5.874,5.874,0,0,0,483.354,307.181Z" fill="#505050"/><path d="M104.59,323.005H83.553v11.45H104.59Z"/><path d="M60.561,315.372c0,1.3.466,1.955.931,1.955H74.431q1.4,0,1.4-1.955v-.651a1.3,1.3,0,0,0-1.4-1.3H61.492c-.465,0-.931.651-.931,1.3Z" fill="#212121"/><path d="M89.231,319.189H58.606v9.588H89.231Z" fill="#212121"/><path d="M52.277,309.6c8.1,0,21.688,2.048,21.688,17.872,0,3.538-4.375,5.12-4.375,5.12l-20.571-6.609Z" fill="#212121"/><path d="M76.386,278.976H52.835a1.868,1.868,0,0,0-1.862,1.862v32.58h1.955l.093-31.277a.637.637,0,0,1,.652-.652H74.989s12.753,8.843,12.753,42.168c0,1.582,3.072,3.165,3.072-3.165C90.628,320.585,91.186,292.008,76.386,278.976Z" fill="#212121"/><path d="M91.186,321.144h11.263v7.912l-6.8,6.516-4,.465H72.662Z" fill="#d83b01"/><path d="M29.843,325.519V336.41H60.561l-13.59-13.405Z" fill="#212121"/><path d="M72.383,338.83H46.226s-1.489-13.125-16.383-13.125V319.1s0-9.123,10.8-9.123h9.681v3.258s19.455-1.489,19.455,14.429H81.505l8.657-7.447H102.45v2.792H89.976Z" fill="#ec6401"/><path d="M33.753,344.043a7.633,7.633,0,1,0-7.633-7.633A7.634,7.634,0,0,0,33.753,344.043Z" fill="#505050"/><path d="M33.753,340.226a3.817,3.817,0,1,0-3.817-3.816A3.817,3.817,0,0,0,33.753,340.226Z" fill="#b2b2b2"/><path d="M108.035,261.569h-5.586v74.468h5.586Z" fill="#212121"/><path d="M96.864,283.63l7.447,1.4v-5.772H96.864Z" fill="#212121"/><path d="M135.215,302.527H104.59v1.954h30.625Z" fill="#212121"/><path d="M110.362,294.335H104.59v24.947h5.772Z" fill="#212121"/><path d="M95,344.136a9.588,9.588,0,1,0-9.588-9.588A9.588,9.588,0,0,0,95,344.136Z" fill="#505050"/><path d="M95,340.319a5.771,5.771,0,1,0-5.772-5.771A5.771,5.771,0,0,0,95,340.319Z" fill="#b2b2b2"/><path d="M134.1,285.771h-22.34v16.756H134.1Z" fill="#6597bf"/><path d="M120.043,296.476l3.164-3.909,3.538,3.909H124.79V301.5H121.9v-5.027Z" fill="#212121"/><path d="M132.279,282.979H148.1V268.085H132.279Z" fill="#6597bf"/><path d="M144.38,282.979H148.1V268.085H144.38Z" fill="#45779e"/><path d="M195.251,307.3h15.638V292.594H195.251Z" fill="#2488d8"/><path d="M207.058,307.3h3.816V292.594h-3.816Z" fill="#004578"/><path d="M195.251,296.03h15.638v-3.444H195.251Z" fill="#69afe5"/><path d="M473.114,317.513H125.348v2.7H473.114Z" fill="#464646"/><path d="M474.138,317.513H124.79a4.747,4.747,0,0,1,0-9.494H474.045a4.767,4.767,0,0,1,4.748,4.747A4.688,4.688,0,0,1,474.138,317.513Z" fill="#a7a9ac"/><path d="M474.138,318.351H124.79a5.585,5.585,0,1,1,0-11.17H474.045a5.6,5.6,0,0,1,5.585,5.585A5.522,5.522,0,0,1,474.138,318.351Zm-349.348-9.5a3.91,3.91,0,0,0,0,7.82H474.045a3.91,3.91,0,0,0,0-7.82Z" fill="#212121"/><path d="M128.606,313.418v-1.3c0-.093,0-.093-.093-.186,0-.093-.093-.093-.186-.093h-.651a.287.287,0,0,0-.094-.186c-.093-.186-.093-.279-.186-.466l.466-.465c.093-.093.093-.093.093-.186s0-.093-.093-.186l-.745-.838a.283.283,0,0,0-.372,0l-.466.465a4.534,4.534,0,0,0-.651-.279v-.652c0-.093-.093-.279-.187-.279h-1.023a.3.3,0,0,0-.28.279v.652l-.558.279-.373-.465a.283.283,0,0,0-.372,0l-.745.745a.325.325,0,0,0-.093.186c0,.093,0,.093.093.186l.466.465c-.093.093-.093.187-.186.28,0,.093-.093.186-.093.279h-.745c-.372,0-.372.279-.372.279v1.21c0,.093,0,.093.093.186,0,.093.093.094.186.094h.651a3.39,3.39,0,0,0,.28.651l-.466.466a.325.325,0,0,0-.093.186c0,.093,0,.093.093.186l.745.745a.283.283,0,0,0,.372,0l.466-.466a4.534,4.534,0,0,0,.651.279v.652a.3.3,0,0,0,.28.279h1.023a.3.3,0,0,0,.28-.279v-.652c.186-.093.465-.186.651-.279l.466.466a.283.283,0,0,0,.372,0l.745-.745a.325.325,0,0,0,.093-.186c0-.093,0-.093-.093-.186l-.373-.652a.287.287,0,0,1,.094-.186c0-.093.093-.186.093-.279h.651c.093,0,.093,0,.186-.094Z" fill="#fff"/><path d="M124.976,313.976a1.3,1.3,0,1,0-1.3-1.3A1.3,1.3,0,0,0,124.976,313.976Z" fill="#75beff"/><path d="M477.582,313.418v-1.3c0-.093,0-.093-.093-.186,0-.093-.093-.093-.186-.093h-.651a.287.287,0,0,0-.094-.186c-.093-.186-.093-.279-.186-.466l.466-.465c.093-.093.093-.093.093-.186s0-.093-.093-.186l-.745-.838a.283.283,0,0,0-.372,0l-.466.465a4.534,4.534,0,0,0-.651-.279v-.652c0-.093-.093-.279-.186-.279h-1.024a.3.3,0,0,0-.28.279v.652l-.558.279-.372-.465a.284.284,0,0,0-.373,0l-.745.745a.325.325,0,0,0-.093.186c0,.093,0,.093.093.186l.466.465c-.093.093-.093.187-.186.28,0,.093-.093.186-.093.279h-.745c-.372,0-.372.279-.372.279v1.21c0,.093,0,.093.093.186,0,.093.093.094.186.094h.651a3.39,3.39,0,0,0,.28.651l-.466.466a.325.325,0,0,0-.093.186c0,.093,0,.093.093.186l.745.745a.283.283,0,0,0,.372,0l.466-.466a4.534,4.534,0,0,0,.651.279v.652a.3.3,0,0,0,.28.279h1.024a.3.3,0,0,0,.279-.279v-.652c.186-.093.465-.186.651-.279l.466.466a.283.283,0,0,0,.372,0l.745-.745a.325.325,0,0,0,.093-.186c0-.093,0-.093-.093-.186l-.373-.652a.287.287,0,0,1,.094-.186c0-.093.093-.186.093-.279h.651c.093,0,.093,0,.186-.094C477.489,313.511,477.582,313.511,477.582,313.418Z" fill="#fff"/><path d="M473.952,313.976a1.3,1.3,0,1,0-1.3-1.3A1.3,1.3,0,0,0,473.952,313.976Z" fill="#75beff"/><path d="M125.069,315a2.234,2.234,0,1,0-2.234-2.234A2.234,2.234,0,0,0,125.069,315Z" fill="#737373"/><path d="M145.548,315a2.234,2.234,0,1,0-2.234-2.234A2.234,2.234,0,0,0,145.548,315Z" fill="#737373"/><path d="M166.12,315a2.234,2.234,0,1,0-2.234-2.234A2.234,2.234,0,0,0,166.12,315Z" fill="#737373"/><path d="M186.6,315a2.234,2.234,0,1,0-2.234-2.234A2.234,2.234,0,0,0,186.6,315Z" fill="#737373"/><path d="M207.077,315a2.234,2.234,0,1,0-2.234-2.234A2.234,2.234,0,0,0,207.077,315Z" fill="#737373"/><path d="M227.649,315a2.234,2.234,0,1,0-2.234-2.234A2.234,2.234,0,0,0,227.649,315Z" fill="#737373"/><path d="M248.128,315a2.234,2.234,0,1,0-2.234-2.234A2.234,2.234,0,0,0,248.128,315Z" fill="#737373"/><path d="M268.7,315a2.234,2.234,0,1,0-2.234-2.234A2.235,2.235,0,0,0,268.7,315Z" fill="#737373"/><path d="M289.178,315a2.234,2.234,0,1,0-2.234-2.234A2.234,2.234,0,0,0,289.178,315Z" fill="#737373"/><path d="M309.657,315a2.234,2.234,0,1,0-2.234-2.234A2.234,2.234,0,0,0,309.657,315Z" fill="#737373"/><path d="M330.229,315A2.234,2.234,0,1,0,328,312.766,2.234,2.234,0,0,0,330.229,315Z" fill="#737373"/><path d="M350.707,315a2.234,2.234,0,1,0-2.234-2.234A2.234,2.234,0,0,0,350.707,315Z" fill="#737373"/><path d="M371.279,315a2.234,2.234,0,1,0-2.234-2.234A2.234,2.234,0,0,0,371.279,315Z" fill="#737373"/><path d="M391.758,315a2.234,2.234,0,1,0-2.234-2.234A2.234,2.234,0,0,0,391.758,315Z" fill="#737373"/><path d="M412.33,315a2.234,2.234,0,1,0-2.234-2.234A2.234,2.234,0,0,0,412.33,315Z" fill="#737373"/><path d="M432.808,315a2.234,2.234,0,1,0-2.234-2.234A2.235,2.235,0,0,0,432.808,315Z" fill="#737373"/><path d="M453.287,315a2.234,2.234,0,1,0-2.234-2.234A2.234,2.234,0,0,0,453.287,315Z" fill="#737373"/><path d="M473.859,315a2.234,2.234,0,1,0-2.234-2.234A2.234,2.234,0,0,0,473.859,315Z" fill="#737373"/><path d="M133.54,320.213l2.42,2.513v19.827h1.862V322.726l2.234-2.513Z" fill="#212121"/><path d="M184.364,342.553V322.726l2.234-2.513h-6.515l2.42,2.513v19.827Z" fill="#212121"/><path d="M230.907,342.553V322.726l2.234-2.513h-6.516l2.42,2.513v19.827Z" fill="#212121"/><path d="M277.45,342.553V322.726l2.234-2.513h-6.516l2.42,2.513v19.827Z" fill="#212121"/><path d="M323.992,342.553V322.726l2.141-2.513h-6.516l2.513,2.513v19.827Z" fill="#212121"/><path d="M370.535,342.553V322.726l2.141-2.513H366.16l2.513,2.513v19.827Z" fill="#212121"/><path d="M417.077,342.553V322.726l2.141-2.513H412.7l2.513,2.513v19.827Z" fill="#212121"/><path d="M459.245,320.213l2.513,2.513v19.827h1.862V322.726l2.141-2.513Z" fill="#212121"/><path d="M189.061,342.553H223.5v-87.5H189.061Z" fill="#ec6401"/><path d="M225.136,307.088h9.494V255.426H223.739v66.183h1.4Z" fill="#d83b01"/><path d="M233.234,258.5h-8.1v48.684h8.1Z" fill="#bd3604"/><path d="M225.136,258.5h8.1v7.726l-8.1,15.452Z" fill="#9c2801"/><path d="M361.785,307.088h9.4V255.426H360.3v65.159h1.49Z" fill="#d83b01"/><path d="M369.79,258.5h-8.1v48.684h8.1Z" fill="#bd3604"/><path d="M361.692,258.5h8.1v7.726l-8.1,15.452Z" fill="#9c2801"/><path d="M489.218,302.713h-9.96l1.21-5.213h7.54Z" fill="#212121"/><path d="M475.255,284.933c-4.84,1.769-7.54,4.655-7.726,11.264-.093,6.609.931,10.239,1.117,10.7h.931c.372-1.117,3.165-7.913,9.4-9.588C484.285,296.011,475.255,284.933,475.255,284.933Z" fill="#ec6401"/><path d="M493.872,284.933c4.841,1.769,7.54,4.655,7.726,11.264.093,6.609-.93,10.239-1.117,10.7h-.93c-.373-1.117-3.165-7.913-9.4-9.588C484.843,296.011,493.872,284.933,493.872,284.933Z" fill="#bd3604"/><path d="M492.011,261.755H476c-1.955,4.189-3.444,8.75-3.444,12.846,0,11.543,5.585,21.782,6.143,22.806H489.87c0-.559,5.492-11.263,5.492-22.806C495.362,270.505,493.872,265.944,492.011,261.755Z" fill="#ec6401"/><path d="M484.285,248.258s-5.586,6.7-8.285,13.4h16.1A73.392,73.392,0,0,0,484.285,248.258Z" fill="#212121"/><path d="M475.814,261.755h2.141a35.811,35.811,0,0,0-2.7,12.474c0,9.308,2.979,18.151,4.934,23.271h-2.048c0-.559-5.771-11.077-5.771-22.62C472.37,270.691,473.952,265.944,475.814,261.755Z" fill="#ff8c00"/><path d="M484.1,276.09a4.282,4.282,0,1,0-4.281-4.282A4.282,4.282,0,0,0,484.1,276.09Z" fill="#fff"/><path d="M276.705,302.9h-9.588l1.21-5.027h7.261Z" fill="#212121"/><path d="M279.684,262.314h-16.1a32.208,32.208,0,0,0-3.351,13.032c0,11.635,6.7,20.2,7.353,21.223l9.03.093c0-.558,6.33-9.774,6.33-21.316A31.7,31.7,0,0,0,279.684,262.314Z" fill="none" stroke="#fff" stroke-miterlimit="10" stroke-width="0.551"/><path d="M271.771,276.556a4.282,4.282,0,1,0-4.282-4.282A4.282,4.282,0,0,0,271.771,276.556Z" fill="#fff" stroke="#666" stroke-miterlimit="10" stroke-width="0.551"/><path d="M260.322,272.274a17.157,17.157,0,0,0-.279,3.072c0,11.635,5.678,21.968,6.236,22.992h11.264c0-.559,5.585-11.357,5.585-22.992a17.067,17.067,0,0,0-.28-3.072Z" fill="#ec6401"/><path d="M271.771,276.556a4.282,4.282,0,1,0-4.282-4.282A4.282,4.282,0,0,0,271.771,276.556Z" fill="#fff"/><path d="M264.79,255.053a4.271,4.271,0,0,1,4.282,4.282h6.8a35.427,35.427,0,0,0-3.165-9.96H256.6a35.724,35.724,0,0,0-3.258,9.96h7.075A4.411,4.411,0,0,1,264.79,255.053Z" fill="#ec6401"/><path d="M263.021,272.181a25.3,25.3,0,0,0-.093,2.606c0,9.4,2.979,18.245,5.027,23.458h-2.048c0-.559-5.585-11.357-5.585-22.992,0-.931.093-2.141.186-3.072Z" fill="#ff8c00"/><path d="M325.9,342.553h34.441v-87.5H325.9Z" fill="#ec6401"/><path d="M353.779,285.771h-6.516V281.4a.247.247,0,0,0-.279-.279h-4a1.272,1.272,0,0,1-1.3-1.3v-8h.931v8c0,.093.279.372.279.372h3.91a1.272,1.272,0,0,1,1.3,1.3v3.351h4.654V271.809h.931v13.962Z" fill="#9c2801"/><path d="M357.5,272.739H328.367l-1.024-1.024,29.043-10.146,1.117.652Z" fill="#9c2801"/><path d="M356.572,260.638H327.715v10.24h28.857Z" fill="#ff8c00"/><path d="M332.835,268.085a2.327,2.327,0,1,0-2.327-2.327A2.327,2.327,0,0,0,332.835,268.085Z" fill="#ffa940"/><path d="M339.817,264.362h-3.724v3.723h3.724Z" fill="#d83b01"/><path d="M344.936,268.085a2.327,2.327,0,1,0-2.327-2.327A2.327,2.327,0,0,0,344.936,268.085Z" fill="#ffa940"/><path d="M353.779,264.362h-3.723v3.723h3.723Z" fill="#d83b01"/><path d="M356.572,283.91h-12.1v10.239h12.1Z" fill="#ff8c00"/><path d="M337.955,279.255h-8.378v6.516h8.378Z" fill="#ff8c00"/><path d="M333.487,281.582a3.3,3.3,0,0,0-3.258,3.258h6.516A3.239,3.239,0,0,0,333.487,281.582Z" fill="#d83b01"/><path d="M337.955,287.633h-8.378v6.516h8.378Z" fill="#ff8c00"/><path d="M333.487,289.96a3.3,3.3,0,0,0-3.258,3.258h6.516A3.239,3.239,0,0,0,333.487,289.96Z" fill="#d83b01"/><path d="M216.944,285.771h-6.516V281.4a.247.247,0,0,0-.279-.279h-4a1.272,1.272,0,0,1-1.3-1.3v-8h.931v8a1.77,1.77,0,0,1,.559.372h3.723a1.272,1.272,0,0,1,1.3,1.3v3.351h4.654V271.809h.931v13.962Z" fill="#9c2801"/><path d="M221.6,272.739H192.463l-1.024-1.024,29.042-10.146,1.117.652Z" fill="#9c2801"/><path d="M219.737,260.638H190.88v10.24h28.857Z" fill="#ff8c00"/><path d="M195.069,268.085a2.327,2.327,0,1,0-2.327-2.327A2.327,2.327,0,0,0,195.069,268.085Z" fill="#ffa940"/><path d="M202.981,264.362h-3.723v3.723h3.723Z" fill="#d83b01"/><path d="M209.032,268.085a2.327,2.327,0,1,0-2.327-2.327A2.327,2.327,0,0,0,209.032,268.085Z" fill="#ffa940"/><path d="M216.944,264.362h-3.723v3.723h3.723Z" fill="#d83b01"/><path d="M219.737,283.91h-12.1v10.239h12.1Z" fill="#ff8c00"/><path d="M201.12,279.255h-8.378v6.516h8.378Z" fill="#ff8c00"/><path d="M196.931,281.582a3.3,3.3,0,0,0-3.258,3.258h6.516A3.3,3.3,0,0,0,196.931,281.582Z" fill="#d83b01"/><path d="M201.12,287.633h-8.378v6.516h8.378Z" fill="#ff8c00"/><path d="M196.931,289.96a3.3,3.3,0,0,0-3.258,3.258h6.516A3.3,3.3,0,0,0,196.931,289.96Z" fill="#d83b01"/><path d="M400.6,214.468h-1.024v25.226H400.6Z" fill="#cfe0ee"/><path d="M405.348,213.444H394.271v3.165h11.077Z" fill="#cfe0ee"/><path d="M400.136,230.2a5.772,5.772,0,1,0-5.772-5.772A5.772,5.772,0,0,0,400.136,230.2Z" fill="#cfe0ee"/><path d="M270.654,212.886H258.46v3.723h12.194Z" fill="#cfe0ee"/><path d="M264.511,251.516a.6.6,0,0,1-.559-.559V214.189a.559.559,0,1,1,1.117,0v36.768A.6.6,0,0,1,264.511,251.516Z" fill="#cfe0ee"/><path d="M264.511,230.944a5.958,5.958,0,1,0-5.958-5.957A5.957,5.957,0,0,0,264.511,230.944Z" fill="#cfe0ee"/><path d="M400.043,232.527s-5.585,6.7-8.285,13.4h16.1A73.392,73.392,0,0,0,400.043,232.527Z" fill="#212121"/><path d="M155.694,335.106h12.194l3.072,8.378H152.622Z" fill="#212121"/><path d="M67.915,312.021H65.4v.931h2.513Z" fill="#0078d7"/><path d="M72.848,324.5l-2.234-11.543-5.305-.745.465-3.164,6.516.93a1.679,1.679,0,0,1,1.4,1.4L74.9,324.5Z" fill="#737373"/><path d="M78.061,324.681c-3.816-11.077-3.63-10.8-3.63-10.8-1.117-.093-9.216-1.024-9.216-1.024.373-3.258.373-3.537.373-3.537l10.332,1.117a1.7,1.7,0,0,1,1.4,1.21l3.259,12.939H78.061Z" fill="#737373"/><path d="M68.753,300.106c-.28-.279-.559-1.4-2.048-1.4H64.471c-1.49,0-1.676,1.49-1.862,1.862-.465,1.21-.652,6.516-.652,8.75,0,2.141,0,3.258,1.21,3.444,1.676.372,5.027.745,5.027.745,1.3,0,2.234,0,2.234-2.141S69.4,300.944,68.753,300.106Z" fill="#464646"/><path d="M77.41,324.309c-.466-.187-2.514-1.024-2.514-1.024H74.8a.3.3,0,0,0-.279.279.866.866,0,0,1-.931.651l-.931-.558v1.862a.365.365,0,0,0,.373.372L77.5,325.8a.273.273,0,0,0,.279-.279v-.559A.624.624,0,0,0,77.41,324.309Z"/><path d="M83,324.308c-.466-.279-2.793-1.117-2.793-1.117h-.093c-.093,0-.279.094-.279.187a.867.867,0,0,1-.931.651l-.931-.558v1.954a.365.365,0,0,0,.372.373l4.841-.093s.279.093.279-.28v-.651A1.618,1.618,0,0,0,83,324.308Z"/><path d="M79.644,304.667l-6.33,4.469a.53.53,0,1,0,.651.837l2.514-1.768.651.931-.931.651,8.378,11.822L88.3,320.4l-9.029-12.753-.931.652-.651-.931,2.606-1.862a.485.485,0,0,0,.093-.744A.562.562,0,0,0,79.644,304.667Z" fill="#212121"/><path d="M74.989,306.343c0-.093.652-.093.745-.372s1.3-.28,1.3-.28c.093,0,.373.094.279.28.094.186,0,.279-.186.372l-1.768.372c-.186,0-.373-.093-.373-.279Z" fill="#805443"/><path d="M76.386,306.529c0-.186.186-.279.372-.186l1.769.559c.186.093.279.279.186.372a.253.253,0,0,1-.373.186l-1.675-.558A.5.5,0,0,1,76.386,306.529Z" fill="#9d6952"/><path d="M75.734,307.367c0-.186.186-.279.372-.186l1.769.558a.253.253,0,0,1,.186.373c0,.186-.186.279-.372.186l-1.769-.559C75.734,307.646,75.641,307.46,75.734,307.367Z" fill="#9d6952"/><path d="M75.455,307.739c0-.186.186-.279.372-.186l1.489.466c.187.093.28.279.187.372-.093.186-.279.279-.373.186l-1.489-.465A.484.484,0,0,1,75.455,307.739Z" fill="#9d6952"/><path d="M75.827,306.809a.253.253,0,0,1,.373-.187l1.861.652c.186,0,.279.186.186.372s-.279.28-.372.186l-1.862-.558A.71.71,0,0,1,75.827,306.809Z" fill="#9d6952"/><path d="M75.362,307.553c.186-.651.465-1.582.465-1.582l.838.186-.652,1.955S75.269,308.205,75.362,307.553Z" fill="#9d6952"/><path d="M76.851,306.25a1.775,1.775,0,0,0-.931-.372,3,3,0,0,1-.186.558Z" fill="#9d6952"/><path d="M63.261,301.968c.651,1.862,3.258,4.468,3.816,5.12s8.378,1.117,8.378,1.117l.745-2.234s-5.772-1.024-6.237-1.117-2.607-2.42-4.375-4.841C64.471,298.524,62.516,299.827,63.261,301.968Z" fill="#464646"/><path d="M64.1,291.543a3.56,3.56,0,0,1,3.63,0,2.367,2.367,0,0,1,1.024,2.234,2.02,2.02,0,0,0,.651,1.675c.186.186.373.466,0,.559l-.558.186.093,1.862a5.526,5.526,0,0,1-3.537.093c-.187-.093-.28-.093-.373-.187a.325.325,0,0,0-.186-.093,6.313,6.313,0,0,1-1.675-1.954A3,3,0,0,1,64.1,291.543Z" fill="#9d6952"/><path d="M68.753,293.777l-3.072.651-.093-1.4,3.258-.186A2.6,2.6,0,0,0,68.753,293.777Z" fill="#805443"/><path d="M63.167,291.543c1.862-1.676,5.027-.373,5.027-.373l.279,1.21-2.978.28.186,2.327-1.024.093v.838l-.466,1.489a5.415,5.415,0,0,1-1.582-2.886A4.316,4.316,0,0,1,63.167,291.543Z" fill="#2f2f2f"/><path d="M64.936,294.335l.186,1.676a.942.942,0,0,1-1.024-.745A.811.811,0,0,1,64.936,294.335Z" fill="#9d6952"/><path d="M64.191,293.218l-1.582,1.676-.559-.652.931-1.024Z" fill="#464646"/><path d="M65.309,289.4a3.119,3.119,0,0,1,2.792,1.024h.186a.2.2,0,0,1,.186.186l.373,2.048a.2.2,0,0,1-.186.186l-1.4.093H67.17c-1.21.093-2.792.279-3.258.279a12.373,12.373,0,0,1-1.582-.093C62.423,292.66,61.958,289.5,65.309,289.4Z" fill="#ec6401"/><path d="M70.8,292.846l-1.954-.186-6.609.279v.465l8.563-.372Z" fill="#ec6401"/><path d="M66.8,292.008h-.279a.247.247,0,0,0-.28.279v.373a.247.247,0,0,0,.28.279H66.8a.247.247,0,0,0,.279-.279v-.373A.3.3,0,0,0,66.8,292.008Z" fill="#ec6401"/><path d="M64.191,292.1h-.279a.247.247,0,0,0-.279.279v.373a.247.247,0,0,0,.279.279h.279a.247.247,0,0,0,.28-.279v-.373A.247.247,0,0,0,64.191,292.1Z" fill="#ec6401"/><path d="M62.8,313.417l-1.955-10.89a.766.766,0,0,0-.93-.652l-2.328.372a.767.767,0,0,0-.651.931l1.582,8.843Z" fill="#212121"/><path d="M49.484,319.282H44.551a.4.4,0,0,1-.373-.372v-1.3a.4.4,0,0,1,.373-.372h4.933a.4.4,0,0,1,.372.372v1.3C49.763,319.1,49.67,319.282,49.484,319.282Z" fill="#212121"/><path d="M85.508,294.335H80.854l-1.024-1.769c0-.093-.093-.093-.186-.093H77.41c-.187,0-.28.187-.187.28l3.072,5.4c0,.093.093.093.186.093h2.234c.187,0,.28-.187.187-.28l-1.4-2.513h4Z" fill="#212121"/><path d="M577.276,282.42h-8.284v23.551h15.545V289.588A7.251,7.251,0,0,0,577.276,282.42Z" fill="#d4e6f4"/><path d="M547.769,283.351l15.452-.931v23.644H547.769Z" fill="#bd3604"/><path d="M565.269,283.723a5.4,5.4,0,0,1,5.4,5.4v15.266h-3.631v13.777h24.854V328.59h14.614a1.767,1.767,0,0,0,1.769-1.768V316.3h-.093c-1.3-7.819-18.245-11.449-22.62-12.008V289.774a8.5,8.5,0,0,0-8.471-8.471H551.12v2.513h16.941Zm8.1,20.665V289.774a8.521,8.521,0,0,0-2.513-6.051h6.7a5.4,5.4,0,0,1,5.4,5.4v15.266Z" fill="#d83b01"/><path d="M598.314,320.585h5.492a.652.652,0,0,0,0-1.3h-5.492a.652.652,0,1,0,0,1.3Z" fill="#ec6401"/><path d="M598.314,322.912h5.492a.652.652,0,0,0,0-1.3h-5.492a.652.652,0,1,0,0,1.3Z" fill="#ec6401"/><path d="M598.314,325.146h5.492a.652.652,0,0,0,0-1.3h-5.492a.652.652,0,1,0,0,1.3Z" fill="#ec6401"/><path d="M605.2,320.585a1.21,1.21,0,1,0,1.21-1.21A1.122,1.122,0,0,0,605.2,320.585Z" fill="#fff"/><path d="M594.4,320.585a1.21,1.21,0,1,0,1.21-1.21A1.122,1.122,0,0,0,594.4,320.585Z" fill="#fff"/><path d="M594.218,334.548v-2.793c0-1.117-.558-1.675-1.117-1.675h15.08c.558,0,1.117.558,1.117,1.675v2.793a1.2,1.2,0,0,1-1.117,1.117H593.1A1.2,1.2,0,0,0,594.218,334.548Z" fill="#737373"/><path d="M519.471,335.2a10.947,10.947,0,0,0-10.891-11.077h4.84a11.086,11.086,0,0,1,.373,22.155h-5.027A10.97,10.97,0,0,0,519.471,335.2Z" fill="#282828"/><path d="M560.056,295.173h3.537a2.7,2.7,0,0,1,2.7,2.7V304.3H555.122v-6.423c0-1.489,1.49-2.7,0-2.7" fill="#505050"/><path d="M555.774,295.173a2.7,2.7,0,0,1,2.7,2.7V304.3H554.1v-9.122Z" fill="#282828"/><path d="M545.069,307.181H484.1v4.654h60.971Z" fill="#737373"/><path d="M576.16,346.277a11.171,11.171,0,1,0-11.171-11.171A11.17,11.17,0,0,0,576.16,346.277Z" fill="#505050"/><path d="M582.024,335.2a5.774,5.774,0,1,0-5.771,5.958A5.963,5.963,0,0,0,582.024,335.2Z" fill="#737373"/><path d="M508.58,346.277a11.171,11.171,0,1,0-11.17-11.171A11.17,11.17,0,0,0,508.58,346.277Z" fill="#505050"/><path d="M514.444,335.2a5.9,5.9,0,0,0-5.771-5.957A5.842,5.842,0,0,0,502.9,335.2a5.9,5.9,0,0,0,5.771,5.958A5.963,5.963,0,0,0,514.444,335.2Z" fill="#737373"/><path d="M546,335.106h13.032a1.431,1.431,0,0,0,1.4-1.4v-1.862a1.431,1.431,0,0,0-1.4-1.4H546a1.431,1.431,0,0,0-1.4,1.4v1.862A1.431,1.431,0,0,0,546,335.106Z" fill="#505050"/><path d="M547.4,281.3a2.7,2.7,0,0,0-2.7,2.7v41.888a2.8,2.8,0,0,0,2.792,2.792h16.942c1.862-5.864,5.492-9.494,12.008-9.494,5.4,0,11.077,4.1,11.729,9.494h3.723a2.065,2.065,0,0,0,1.117-1.675v-9.96c0-8.285-17.314-12.194-21.689-12.753V289.774a8.5,8.5,0,0,0-8.471-8.471Zm3.91,2.42h11.915a5.4,5.4,0,0,1,5.4,5.4v15.266H551.306V283.723Z" fill="#ec6401"/><path d="M558.473,307.274h-6.7v2.234h6.7Z" fill="#737373"/></svg>