<svg xmlns="http://www.w3.org/2000/svg" viewBox="0 0 636 350"><title>hero-vs-community-sku</title><path d="M461.784,280.294H207.906a15.359,15.359,0,0,1-15.483-15.336V102.725H461.711V280.294Z" fill="#459bdd"/><path d="M376.522,218.732v-3.449h-2.568v3.449Z" fill="#49cdf3"/><path d="M376.522,224.822v-3.449h-2.568v3.449Z" fill="#49cdf3"/><path d="M376.522,230.839V227.39h-2.568v3.449Z" fill="#49cdf3"/><path d="M376.522,236.929V233.48h-2.568v3.449Z" fill="#49cdf3"/><path d="M376.522,242.8V239.35h-2.568V242.8Z" fill="#49cdf3"/><path d="M376.522,249.109V245.66h-2.568v3.449Z" fill="#49cdf3"/><path d="M376.522,255.2v-3.522h-2.568v3.449h2.568Z" fill="#49cdf3"/><path d="M383.933,260.262v-2.568H366.616v2.568Z" fill="#49cdf3"/><path d="M383.933,212.641v-2.568H366.616v2.568Z" fill="#49cdf3"/><path d="M172.979,102.432v140.66L163,254.245v10.42a15.768,15.768,0,0,0,3.008,9.171,15.483,15.483,0,0,0,7.925,5.5c1.834,1.1,31.111.66,38.3.66l4.916-11.74-11.3-165.828Z" fill="#1070c4"/><path d="M449.384,268.48H305.862v-2.568h140.88V115.126h-240.3v-2.568H449.384Z" fill="#49cdf3"/><path d="M461.784,181.017l.073,10.272-35.733,44.319-7.044-12.474,36.981-46.52Z" fill="#1070c4"/><path d="M449.384,206.7l-2.568,3.155V184.686h2.568Z" fill="#459bdd"/><path d="M235.788,267.159h66.478" fill="none" stroke="#40cdf5" stroke-miterlimit="10" stroke-width="3.278"/><path d="M216.711,268.48H185.159c-10.859,0-17.61-7.191-17.61-18.711V112.558h39.036l.147,2.568H170.191V249.769c0,10.053,5.576,16.143,15.042,16.143h31.478Z" fill="#459bdd"/><path d="M185.6,69.927h-5.87a16.725,16.725,0,0,0-11.814,4.916A16.427,16.427,0,0,0,163,86.583V264.078a16.785,16.785,0,0,1,16.73-16.73H199.1Z" fill="#09538f"/><path d="M299.625,268.48h6.824a15.213,15.213,0,0,0,.88-2.568h-6.6A14.418,14.418,0,0,1,299.625,268.48Z" fill="#459bdd"/><path d="M457.675,147.338,369.551,255.273l14.675,11.96L472.35,159.3Z" fill="#ff8c00"/><path d="M462.665,151.373,374.321,259.235l9.9,8L472.35,159.3Z" fill="#ec6401"/><path d="M410.055,230.912l-1.248,1.541,2.348,1.908,1.248-1.541Z" fill="#d83b01"/><path d="M412.769,227.463,411.522,229l2.348,1.908,1.247-1.541Z" fill="#939393"/><path d="M407.266,234.287l-1.247,1.541,2.348,1.908,1.247-1.541Z" fill="#d83b01"/><path d="M400.662,234.581l-1.247,1.541,6.164,5.062,1.247-1.54Z" fill="#d83b01"/><path d="M416.732,227.537l-6.164-5.063,1.248-1.541L417.979,226" fill="#939393"/><path d="M421.134,217.264l-1.247,1.541,2.348,1.908,1.247-1.541Z" fill="#d83b01"/><path d="M423.922,213.889l-1.247,1.541,2.348,1.908,1.247-1.541Z" fill="#d83b01"/><path d="M418.346,220.713l-1.247,1.541,2.348,1.907,1.247-1.54Z" fill="#939393"/><path d="M427.811,213.889l-6.163-5.063,1.247-1.541,6.164,5.063" fill="#d83b01"/><path d="M432.287,203.69l-1.247,1.541,2.348,1.907,1.247-1.541Z" fill="#d83b01"/><path d="M435.075,200.241l-1.247,1.541,2.348,1.908,1.247-1.541Z" fill="#d83b01"/><path d="M429.5,207.065l-1.247,1.541,2.348,1.908,1.247-1.541Z" fill="#d83b01"/><path d="M438.964,200.314l-6.163-5.062,1.247-1.541,6.164,5.063" fill="#d83b01"/><path d="M443.367,190.042l-1.247,1.541,2.348,1.908,1.247-1.541Z" fill="#d83b01"/><path d="M446.155,186.667l-1.247,1.541,2.348,1.907,1.247-1.541Z" fill="#d83b01"/><path d="M440.579,193.417l-1.248,1.541,2.348,1.908,1.248-1.541Z" fill="#d83b01"/><path d="M450.117,186.667l-6.163-5.063,1.247-1.541,6.164,5.063" fill="#d83b01"/><path d="M454.52,176.394l-1.247,1.541,2.348,1.908,1.247-1.541Z" fill="#d83b01"/><path d="M457.308,173.019l-1.247,1.541,2.348,1.907,1.247-1.54Z" fill="#d83b01"/><path d="M451.732,179.843l-1.248,1.541,2.348,1.907,1.248-1.541Z" fill="#d83b01"/><path d="M398.9,244.56l-1.248,1.541L400,248.008l1.248-1.54Z" fill="#d83b01"/><path d="M401.69,241.111l-1.248,1.541,2.348,1.908,1.248-1.541Z" fill="#d83b01"/><path d="M396.113,247.935l-1.247,1.541,2.348,1.908,1.247-1.541Z" fill="#d83b01"/><path d="M404.772,225.262l-2.862-9.539a4.98,4.98,0,0,0-.881-1.761,4.282,4.282,0,0,0-1.541-1.247,5.747,5.747,0,0,0-1.907-.587,4.6,4.6,0,0,0-1.981.22,4.225,4.225,0,0,0-1.688.954,4.772,4.772,0,0,0-1.174,1.541,5.661,5.661,0,0,0-.514,1.908,4.183,4.183,0,0,0,.294,1.907l2.054,6.017-1.247-2.862a6.266,6.266,0,0,0-1.1-1.614,4.968,4.968,0,0,0-1.687-1.027,5.518,5.518,0,0,0-1.908-.367,4.29,4.29,0,0,0-1.908.44,5.087,5.087,0,0,0-1.614,1.174,4.982,4.982,0,0,0-1.027,1.688,4.345,4.345,0,0,0-.294,1.981,4.29,4.29,0,0,0,.44,1.908l4.476,9.612-3.815-5.43a4.375,4.375,0,0,0-2.935-1.908,4.752,4.752,0,0,0-1.761.074,4.581,4.581,0,0,0-1.614.734,4.006,4.006,0,0,0-1.174,1.32,4.618,4.618,0,0,0-.587,1.688,4.256,4.256,0,0,0,.88,3.375l5.577,7.191a4.38,4.38,0,0,0,2.494,1.614,4.066,4.066,0,0,0,2.935-.44,4.255,4.255,0,0,0,2.055-5.136,4.84,4.84,0,0,0,2.935,1.1,4.9,4.9,0,0,0,3.008-.954,4.905,4.905,0,0,0,1.541-5.8l-1.321-3.155a4.526,4.526,0,0,0,2.789,1.467,5.068,5.068,0,0,0,3.081-.587,4.919,4.919,0,0,0,2.055-2.348A6.569,6.569,0,0,0,404.772,225.262Z" fill="#ce9c5f"/><path d="M425.39,275.451l5.8-12.254a19.335,19.335,0,0,0,1.834-7.337,18.567,18.567,0,0,0-1.1-7.485l-10.2-29.5-17.9-12.62-1.761,3.228a5.7,5.7,0,0,0-.514,3.816,5.909,5.909,0,0,0,1.834,3.375l6.751,6.237,1.247,12.621-1.687.66L388.7,279.486l3.522,6.678,3.742,4.842h.147L409.541,350h42.044Z" fill="#ce9c5f"/><path d="M406.166,244.707l5.062-9.026-.073-1.32L384.3,267.233l-1.908-1.541a40.416,40.416,0,0,0,6.237,13.794l3.742-.88a14.538,14.538,0,0,0,6.09-3.082,13.992,13.992,0,0,0,3.889-5.576A10.507,10.507,0,0,0,407.78,272s-5.577-4.769-4.99-16.436A27.2,27.2,0,0,1,406.166,244.707Z" fill="#ba8c57"/><path d="M380.924,240.818l5.21,6.016a3.591,3.591,0,0,1,.881,2.715,3.9,3.9,0,0,1-1.248,2.568,3.637,3.637,0,0,1-2.715.954,3.811,3.811,0,0,1-2.568-1.174l-5.43-5.87a3.08,3.08,0,0,1-.807-1.321,3.761,3.761,0,0,1-.22-1.54,3.942,3.942,0,0,1,.367-1.541,3.78,3.78,0,0,1,.954-1.248,4.9,4.9,0,0,1,1.321-.807,5.572,5.572,0,0,1,1.541-.22,4.863,4.863,0,0,1,1.467.44A5.453,5.453,0,0,1,380.924,240.818Z" fill="#ce9c5f"/><path d="M392.665,232.893a3.041,3.041,0,0,0-1.615,1.688,2.912,2.912,0,0,0,.074,2.348l.733,1.614,5.65-2.5-.733-1.614a3.283,3.283,0,0,0-1.688-1.614A3.443,3.443,0,0,0,392.665,232.893Z" fill="#d8b094"/><path d="M399.2,224.528a3.283,3.283,0,0,0-1.614,1.688,2.908,2.908,0,0,0,.073,2.348l.734,1.614,5.65-2.5-.734-1.614a3.283,3.283,0,0,0-1.688-1.614A3.074,3.074,0,0,0,399.2,224.528Z" fill="#d8b094"/><path d="M384.74,237.956a3.2,3.2,0,0,0-1.247,1.981,2.847,2.847,0,0,0,.587,2.275l1.1,1.467,4.99-3.595-1.027-1.468a3.2,3.2,0,0,0-1.982-1.247A3.859,3.859,0,0,0,384.74,237.956Z" fill="#d8b094"/><path d="M381.732,247.715a1.954,1.954,0,0,0-.661,1.467,2.367,2.367,0,0,0,.587,1.541l1.248,1.321,3.155-2.935-1.248-1.321a1.956,1.956,0,0,0-1.467-.66A2.28,2.28,0,0,0,381.732,247.715Z" fill="#d8b094"/><path d="M404.331,206.7l-.954,2.055a6.816,6.816,0,0,0,2.789,1.467,7.623,7.623,0,0,0,3.155,0C408.22,209.486,404.331,206.7,404.331,206.7Z" fill="#d8b094"/><path d="M425.39,275.451a47.939,47.939,0,0,0-.66,24.947L438.084,350h13.648Z" fill="#ba8c57"/><path d="M332.35,130.461l27.076-22.819h7.631a12.26,12.26,0,0,0,10.052-5.284H343.577V113l-10.713,8.658Z" fill="#1070c4"/><path d="M410.5,19c-1.394-1.321-18.858-10.2-18.858-10.2L364.122,36.541a9.04,9.04,0,0,1-3.156,2.054L325.013,52.83a5.6,5.6,0,0,0-2.569,2.128l-8.511,12.988a3.6,3.6,0,0,0-.44,1.247,2.115,2.115,0,0,0,.22,1.321l2.935,6.9-.147.293a4.188,4.188,0,0,0-.293,1.615l.88,14.381a5.7,5.7,0,0,0,.294,1.541l5.5,12.4,1.907-.881c.221-.147.514-.22.734-.367l1.688,7.118,2.128-.587a7.849,7.849,0,0,0,2.641-1.468,6.541,6.541,0,0,0,1.688-2.495l14.528-3.448,14.455-14.382L378.723,59.14a9.227,9.227,0,0,1,3.889-3.962l26.342-21.132C408.881,34.119,411.889,20.325,410.5,19ZM341.889,98.176l-4.623,1.468a6.518,6.518,0,0,0-3.669,2.714l-.807-5.943,2.422-12.841,1.467-4.035,2.275-.44a6.572,6.572,0,0,1,3.155.146,7.687,7.687,0,0,1,2.788,1.394,8.279,8.279,0,0,1,1.981,2.5,7.312,7.312,0,0,1,.734,3.082l.074,1.981Z" fill="#72594b"/><path d="M328.755,113.071,325.673,98.91A3.983,3.983,0,0,1,325.6,97.3L326.847,86.8a6.918,6.918,0,0,1,1.174-3.082,7.026,7.026,0,0,1,2.5-2.128l6.9-3.448-4.036,30.964a3.624,3.624,0,0,1-1.027,2.2,3.854,3.854,0,0,1-2.054,1.321Z" fill="#665042"/><path d="M374.321,29.2a41.1,41.1,0,0,0,5.356,21.94,19.934,19.934,0,0,1-6.457,4.842,18.041,18.041,0,0,0-8.438,9.172L355.537,89a4.941,4.941,0,0,1-.807,1.321l-7.411,8.585a4.379,4.379,0,0,1-2.2,1.394l-12.4,3.522a6.818,6.818,0,0,0-.367,2.128l.074,3.228,15.7-3.742,14.455-14.381L378.723,59.14a9.227,9.227,0,0,1,3.889-3.962l10.933-8.732Z" fill="#665042"/><path d="M338.073,79.172l3.376-12.547,1.907.367a3.624,3.624,0,0,1,1.468.587,4.2,4.2,0,0,1,1.1,1.174,3.512,3.512,0,0,1,.513,1.467,3.672,3.672,0,0,1-.147,1.541l-2.348,8.071A8.954,8.954,0,0,0,338.073,79.172Z" fill="#665042"/><path d="M372.266,25.168l.807,2.054a43.778,43.778,0,0,0,18.344,21.793l51.436-40.21-46.3-6.53Z" fill="#fff"/><path d="M395.893,36.467c2.348-2.2,4.109-3.522,4.109-3.522L380.778,18.124l-2.862,1.32S375.5,28.837,385.987,38.3l-3.742,3.522a45.513,45.513,0,0,0,9.1,7.264l9.832-7.7Z" fill="#f3f3f3"/><path d="M377.036,17.023l.953,2.348a51.254,51.254,0,0,0,21.573,25.608L461.637,0H396.26Z" fill="#d2d2d2"/><path d="M327.214,113.512l-1.174-5.137h.587a3.215,3.215,0,0,1,1.981.661,3.378,3.378,0,0,1,1.174,1.687l.514,1.908Z" fill="#8e7a6f"/><path d="M322.885,107.642l-2.055-4.7.44-.221a2.275,2.275,0,0,1,.954-.22,3.73,3.73,0,0,1,.954.147,1.894,1.894,0,0,1,.807.514,3.23,3.23,0,0,1,.587.807l.954,2.421Z" fill="#8e7a6f"/><path d="M316.574,77.411l6.6-14.822-8.805,9.539Z" fill="#665042"/><path d="M323.4,84.822l4.329-9.979-4.7,4.4a8.777,8.777,0,0,0-2.348,3.742,8.15,8.15,0,0,0-.073,4.4l2.568,10.346Z" fill="#665042"/><path d="M330.149,120.776l6.384.587,6.236-65.084-3.008-1.688-3.3,1.1Z" fill="#ec6401"/><path d="M336.386,55.692l6.383.587.367-3.742V52.17a.384.384,0,0,0-.146-.294,1.04,1.04,0,0,0-.294-.22.552.552,0,0,0-.367-.073l-4.549-.44a1.021,1.021,0,0,0-.66.22.665.665,0,0,0-.294.587Z" fill="#bd3604"/><path d="M336.386,55.692l-.441,4.769,6.384.587.44-4.769Z" fill="#b2b2b2"/><path d="M461.124,173.166,454.96,168.1l1.248-1.541,6.163,5.063" fill="#d83b01"/><path d="M465.526,162.893l-1.247,1.541,2.348,1.908,1.247-1.541Z" fill="#d83b01"/><path d="M468.314,159.518l-1.247,1.541,2.348,1.907,1.247-1.54Z" fill="#d83b01"/><path d="M462.738,166.342l-1.247,1.541,2.348,1.907,1.247-1.541Z" fill="#d83b01"/><path d="M333.671,238.47H318.262l-2.5,10.639h20.325Zm-13.5,7.117.88-3.669h9.833l.88,3.669Z" fill="#49cdf3"/><path d="M342.476,163.407l-3.816.073c5.283,11.153,7.485,20.252,7.411,27.589,0,11.667-2.861,23.04-5.723,31.772-1.467,4.329-2.862,8-3.962,10.566-.294.66-.514,1.32-.807,1.907-.074.221-.147.367-.22.587H316.134c-3.082-6.016-11.813-24.58-11.74-44.9,0-7.264,3.669-18.2,8-27.443h-4.256c-4.182,8.806-7.19,18.638-7.264,27.369-1.394,24.068,11.593,45.493,13.061,48.281,0,.074.073.074.073.147H337.78a16.071,16.071,0,0,1,1.027-2.715c2.862-6.9,10.713-25.681,10.786-45.566C349.593,182.264,346.585,172.212,342.476,163.407Z" fill="#49cdf3"/><path d="M340.862,160.1c1.1,2.128,1.761,3.522,1.761,3.522H308.136s.587-1.321,1.688-3.522c2.641-5.21,8-15.262,13.648-22.086a26.265,26.265,0,0,1,2.348-2.568l.073-.074.073.074c.734.807,1.395,1.761,2.128,2.715C333.011,144.99,338.22,154.9,340.862,160.1Zm-3.963,0c-.807-1.614-1.834-3.522-2.935-5.5a148.129,148.129,0,0,0-8.364-13.721,97.967,97.967,0,0,0-8.952,13.721c-1.1,2.054-2.128,3.889-2.935,5.5Z" fill="#49cdf3"/><path d="M314.08,234.948a96.377,96.377,0,0,1-7.631-18.2c-.367-1.1-.661-2.275-.954-3.376a31.634,31.634,0,0,0-3.155,1.615c-6.824,4.035-11.52,10.492-11.74,21.425a79.19,79.19,0,0,0,1.761,19.958,10.61,10.61,0,0,0,.44,1.688c.147.44.22.66.293.88h2.055c.073-.146.147-.44.293-.807a11.27,11.27,0,0,1,.661-1.394c2.128-4.4,7.7-12.841,16.656-16.876a18.333,18.333,0,0,1,3.375-1.174A23.645,23.645,0,0,1,314.08,234.948Zm-16.143,12.033c-1.174,1.541-2.2,3.082-3.082,4.476a96.921,96.921,0,0,1-.88-14.969c.147-5.723,1.541-9.832,3.742-12.914,1.467-2.054,5.063-4.842,7.264-6.236a114.369,114.369,0,0,0,7.925,18.784C308.063,237.589,300.945,243.019,297.937,246.981Z" fill="#49cdf3"/><path d="M335.505,238.69a25.968,25.968,0,0,1,3.375,1.174c8.952,4.035,14.529,12.547,16.657,16.876.293.587.513,1.027.66,1.394s.22.587.294.807h2.054c.073-.146.147-.44.294-.88s.293-1.027.44-1.688a83.491,83.491,0,0,0,1.761-19.958c-.22-10.933-4.916-17.463-11.74-21.425a25.546,25.546,0,0,0-3.155-1.615c-.294,1.174-.661,2.275-.954,3.376a96.508,96.508,0,0,1-7.631,18.2C336.826,235.975,336.092,237.662,335.505,238.69Zm3.009-2.568a108.463,108.463,0,0,0,7.924-18.784c2.2,1.394,5.8,4.182,7.264,6.236,2.128,3.082,3.6,7.191,3.742,12.914a81.739,81.739,0,0,1-.88,14.969,44.919,44.919,0,0,0-3.082-4.476C350.547,243.019,343.356,237.589,338.514,236.122Z" fill="#49cdf3"/><path d="M221.48,267.159h37.055" fill="none" stroke="#40cdf5" stroke-miterlimit="10" stroke-width="2.448"/><path d="M268.66,165.681H220.746v2.568H268.66Z" fill="#49cdf3"/><path d="M268.66,174.266H220.746v2.568H268.66Z" fill="#49cdf3"/><path d="M268.66,182.851H220.746v2.568H268.66Z" fill="#49cdf3"/><path d="M268.66,191.363H220.746v2.568H268.66Z" fill="#49cdf3"/><path d="M309.6,128.7h-3.449v2.568H309.6Z" fill="#49cdf3"/><path d="M315.694,128.7h-3.449v2.568h3.449Z" fill="#49cdf3"/><path d="M321.784,128.7h-3.449v2.568h3.449Z" fill="#49cdf3"/><path d="M327.874,128.7h-3.448v2.568h3.448Z" fill="#49cdf3"/><path d="M333.671,128.7h-3.449v2.568h3.449Z" fill="#49cdf3"/><path d="M339.981,128.7h-3.448v2.568h3.448Z" fill="#49cdf3"/><path d="M346.071,128.7h-3.448v2.568h3.448Z" fill="#49cdf3"/><path d="M351.134,121.363h-2.568v17.316h2.568Z" fill="#49cdf3"/><path d="M303.587,121.363h-2.568v17.316h2.568Z" fill="#49cdf3"/><path d="M281.868,207.725H279.3v3.449h2.568Z" fill="#49cdf3"/><path d="M281.868,201.709H279.3v3.448h2.568Z" fill="#49cdf3"/><path d="M281.868,195.618H279.3v3.449h2.568Z" fill="#49cdf3"/><path d="M281.868,213.815H279.3v3.449h2.568Z" fill="#49cdf3"/><path d="M281.868,171.331H279.3v3.449h2.568Z" fill="#49cdf3"/><path d="M281.868,189.528H279.3v3.449h2.568Z" fill="#49cdf3"/><path d="M281.868,153.134H279.3v3.449h2.568Z" fill="#49cdf3"/><path d="M281.868,147.044H279.3v3.449h2.568Z" fill="#49cdf3"/><path d="M281.868,159.224H279.3v3.449h2.568Z" fill="#49cdf3"/><path d="M281.868,177.421H279.3v3.449h2.568Z" fill="#49cdf3"/><path d="M281.868,183.438H279.3v3.449h2.568Z" fill="#49cdf3"/><path d="M281.868,165.241H279.3v3.449h2.568Z" fill="#49cdf3"/><path d="M289.279,141.174H271.962v2.568h17.317Z" fill="#49cdf3"/><path d="M298.084,279.927a29.71,29.71,0,0,0,3.669-41.384c-.294,3.3-.734,7.337-1.028,10.493.074.146.147.367.22.513a23.649,23.649,0,0,1,1.321,9.025,23.383,23.383,0,0,1-2.274,8.879,22.457,22.457,0,0,1-5.5,7.337,23.782,23.782,0,0,1-7.851,4.7c-.44.147-.88.294-1.394.441Z" fill="#1070c4"/><path d="M259.488,279.927h12.841A23.257,23.257,0,0,1,257.214,266.5l-8.071-9.539a28.966,28.966,0,0,0,.733,7.118L236.742,268.7l2.275,6.31,13.134-4.622A29.178,29.178,0,0,0,259.488,279.927Z" fill="#1070c4"/><path d="M299.478,268.48H306.3a15.125,15.125,0,0,0,.88-2.568h-6.6A23.952,23.952,0,0,1,299.478,268.48Z" fill="#459bdd"/><path d="M246.721,268.48H255.6l-.441-2.568h-9.172Z" fill="#459bdd"/><path d="M262.864,242.432a4.173,4.173,0,0,0,2.348-1.835,4.543,4.543,0,0,0,.587-2.935,4.307,4.307,0,0,0-4.256-3.668,4.218,4.218,0,0,0-2.788,1.027,4.172,4.172,0,0,0-1.468,2.641,4.543,4.543,0,0,0,.587,2.935,4.173,4.173,0,0,0,2.348,1.835v6.017l7.705,7.7v14.235H270.5V255.052l-7.7-7.7Zm-1.321-5.8a1.477,1.477,0,0,1,.954.294,1.79,1.79,0,0,1,.66.807,1.612,1.612,0,0,1,.074,1.027,1.677,1.677,0,0,1-.441.881,1.278,1.278,0,0,1-.88.44,2.438,2.438,0,0,1-1.027-.074,2.273,2.273,0,0,1-.807-.66,1.469,1.469,0,0,1-.294-.954,1.718,1.718,0,0,1,.514-1.247A2.079,2.079,0,0,1,261.543,236.635Z" fill="#49cdf3"/><path d="M289.059,250.21a4.339,4.339,0,0,0-2.128.513,3.892,3.892,0,0,0-1.541,1.541,4.152,4.152,0,0,0-.587,2.055,4.345,4.345,0,0,0,.514,2.128l-5.5,5.5V251.6l6.6-6.6v-4.036a4.168,4.168,0,0,0,2.348-1.834,4.539,4.539,0,0,0,.587-2.935,4.3,4.3,0,0,0-4.256-3.669,4.218,4.218,0,0,0-2.788,1.027,4.36,4.36,0,0,0-.88,5.577,4.168,4.168,0,0,0,2.348,1.834V243.9l-5.283,5.283-4.4-4.4v-9.906a4.172,4.172,0,0,0,2.348-1.834,4.539,4.539,0,0,0,.587-2.935,4,4,0,0,0-1.467-2.568,4.36,4.36,0,0,0-2.789-1.028,4.331,4.331,0,0,0-4.255,3.6,4.631,4.631,0,0,0,.587,2.935,4.168,4.168,0,0,0,2.348,1.834v11.007l5.649,5.649v21.132h2.569v-7.044L287,258.354a5.725,5.725,0,0,0,1.835.514,5.512,5.512,0,0,0,1.907-.367,4.772,4.772,0,0,0,1.541-1.174,4,4,0,0,0,.881-3.595,4.845,4.845,0,0,0-.807-1.761,3.278,3.278,0,0,0-1.468-1.174A2.748,2.748,0,0,0,289.059,250.21ZM285.1,235.241a1.469,1.469,0,0,1,.954.294,1.792,1.792,0,0,1,.661.807,1.619,1.619,0,0,1,.073,1.027,1.676,1.676,0,0,1-.44.881,1.28,1.28,0,0,1-.881.44,2.438,2.438,0,0,1-1.027-.074,2.293,2.293,0,0,1-.807-.66,1.477,1.477,0,0,1-.294-.954,1.718,1.718,0,0,1,.514-1.247A2.079,2.079,0,0,1,285.1,235.241Zm-12.253-6.09a1.476,1.476,0,0,1,.954.293,1.8,1.8,0,0,1,.66.808,1.605,1.605,0,0,1,.073,1.027,1.558,1.558,0,0,1-1.32,1.321,2.442,2.442,0,0,1-1.028-.074,2.3,2.3,0,0,1-.807-.66,1.476,1.476,0,0,1-.293-.954,1.753,1.753,0,0,1,1.761-1.761Zm16.216,27.075a1.474,1.474,0,0,1-.954-.293,1.792,1.792,0,0,1-.661-.807,1.62,1.62,0,0,1-.073-1.027,1.672,1.672,0,0,1,.44-.881,1.28,1.28,0,0,1,.881-.44,2.437,2.437,0,0,1,1.027.073,2.287,2.287,0,0,1,.807.661,1.474,1.474,0,0,1,.294.953,1.719,1.719,0,0,1-.514,1.248A1.771,1.771,0,0,1,289.059,256.226Z" fill="#49cdf3"/><path d="M235.568,264.738l13.134-4.623a29.675,29.675,0,0,0,53.784-1.027,29.629,29.629,0,0,0-35.44-40.356,30.182,30.182,0,0,0-17.316,13.427,29.718,29.718,0,0,0-3.3,21.646l-13.134,4.623Zm17.684-9.759a23.334,23.334,0,0,1,6.383-25.241,23.419,23.419,0,0,1,35.807,5.43,23.476,23.476,0,0,1-1.394,25.975,23.421,23.421,0,0,1-10.933,8.071,23.685,23.685,0,0,1-9.025,1.321,23.361,23.361,0,0,1-8.878-2.275,22.468,22.468,0,0,1-7.338-5.5A24.573,24.573,0,0,1,253.252,254.979Z" fill="#e6e6e6"/><path d="M248.849,286.017l-2.935-24.948-9.906,3.522-3.448-7.631s4.622-.807,4.916,0l1.1-.367,4.55-1.614a7.69,7.69,0,0,0-2.715-1.541,7.43,7.43,0,0,0-3.082-.367l-6.237.441-2.128-4.77a5.006,5.006,0,0,0-1.247-1.541,5.15,5.15,0,0,0-1.761-.954,4.6,4.6,0,0,0-1.981-.22,5.792,5.792,0,0,0-1.908.587,5.155,5.155,0,0,0-2.5,2.5,5.29,5.29,0,0,0-.293,3.522l.954,4.4-1.981-3.743a3.8,3.8,0,0,0-2.055-1.614,3.144,3.144,0,0,0-2.568.22,3.19,3.19,0,0,0-1.834,1.688,4.1,4.1,0,0,0-.367,2.495l.88,3.522-.66-.807a4.32,4.32,0,0,0-2.348-1.4,3.945,3.945,0,0,0-2.715.367,4.963,4.963,0,0,0-1.981,1.908,3.834,3.834,0,0,0-.367,2.715l.073.44-1.321.22a4.737,4.737,0,0,0-3.155,1.761,4.683,4.683,0,0,0-1.027,3.522l-1.908,1.688a8.97,8.97,0,0,0-2.421,3.3,8.546,8.546,0,0,0-.514,4.035l3.082,20.325a93.392,93.392,0,0,0,3.449,14.9l1.761,4.109L197.706,350h36.761L230.8,316.1l13.5-16a20.126,20.126,0,0,0,3.669-6.6A18.445,18.445,0,0,0,248.849,286.017Z" fill="#f6caa7"/><path d="M245.914,261.069l-5.063,1.761.514,1.541a1.623,1.623,0,0,1,.073.587,1.713,1.713,0,0,1-.147.587,2.237,2.237,0,0,1-.366.514,1.189,1.189,0,0,1-.514.293l-3.155,1.1s2.715,4.109,6.09,2.715L246.8,268.7Z" fill="#deb695"/><path d="M231.019,253.512l.954,2.054,3.008-1.027-.293-1.248Z" fill="#deb695"/><path d="M332.057,130.755l-1.908-9.906,6.384.587-3.743,9.392Z" fill="#fff"/><path d="M331.4,127.379l.661,3.376.733.073,1.248-3.228Z"/><path d="M348.2,105.44l-15.7,3.742-.147-2.861a6.966,6.966,0,0,1,1.248-4.329,6.508,6.508,0,0,1,3.668-2.568l4.623-1.321Z" fill="#72594b"/><path d="M348.2,105.44l-15.7,3.742-.147-2.861s5.8-5.87,11.96-5.8a5.887,5.887,0,0,1,2.348.954,5.751,5.751,0,0,1,1.615,1.908Z" fill="#665042"/><path d="M332.5,109.256l-.294-3.522,2.935-.734a1.8,1.8,0,0,1,.881,0,3.565,3.565,0,0,1,.807.294,2.215,2.215,0,0,1,.587.587,2.605,2.605,0,0,1,.293.807l.147,1.247Z" fill="#8e7a6f"/><path d="M332.057,178.228a9.166,9.166,0,0,0-6.457-2.641,9.16,9.16,0,0,0-8.439,5.65,9.316,9.316,0,0,0-.513,5.283,9.759,9.759,0,0,0,2.495,4.7,9.447,9.447,0,0,0,4.7,2.5,9.317,9.317,0,0,0,5.283-.514,9.158,9.158,0,0,0,5.65-8.438A9.278,9.278,0,0,0,332.057,178.228Zm-1.761,9.539a5.129,5.129,0,0,1-2.568,2.055,5.643,5.643,0,0,1-3.3.293,5.221,5.221,0,0,1-2.862-1.541,5.491,5.491,0,0,1-1.541-2.861,6.037,6.037,0,0,1,.294-3.229,5.736,5.736,0,0,1,2.054-2.5,6.106,6.106,0,0,1,3.155-.953,5.983,5.983,0,0,1,4.036,1.614,5.671,5.671,0,0,1,1.614,3.962A5.128,5.128,0,0,1,330.3,187.767Z" fill="#49cdf3"/><path d="M234.908,257.767l1.761,6.751,12.033-4.4-2.274-6.31Z" fill="#ff8c00"/><path d="M241.365,264.444l-3.3-9.392a1.59,1.59,0,0,0-.807-.88,1.627,1.627,0,0,0-1.174-.073l-4.109,1.467,5.356,11.96,3.155-1.1a1.191,1.191,0,0,0,.514-.294,1.317,1.317,0,0,0,.367-.514,1.381,1.381,0,0,0,.147-.587C241.438,264.811,241.438,264.591,241.365,264.444Z" fill="#d83b01"/><path d="M391.857,39.4a49.585,49.585,0,0,0,7.7,5.649L461.637,0H446.229Z" fill="#c2c2c2"/></svg>