<svg xmlns="http://www.w3.org/2000/svg" viewBox="0 0 636 300"><defs><style>.a{fill:#231f20;}.b{fill:#69afe5;}.c{fill:#3c3c3c;}.d{fill:#8ec3ec;}.e{fill:#505050;}.f{fill:#395b71;}.g{fill:#1c4768;}.h{fill:#235a89;}.i{fill:#65aa0d;}.j{fill:#90c10c;}.k{fill:#11334b;}.l{fill:#fff;}.m{fill:#cfe0ee;}.n{fill:#107c10;}.o{fill:#6597bf;}.p{fill:#d2d2d2;}.q{fill:#004b1c;}.r{fill:#939393;}.s{fill:#4d4d4d;}</style></defs><title>vscom-pricing-calculator</title><path class="a" d="M459.5,247.95V57.786a7.567,7.567,0,0,0-7.267-7.835H195.766a7.567,7.567,0,0,0-7.267,7.835V247.95Z"/><rect class="b" x="197.5" y="62.95" width="253" height="169"/><path class="c" d="M482.16,256.95H167.878c-10.476,0-12.186-16-12.186-16H494.347S490.285,256.95,482.16,256.95Z"/><polygon class="d" points="450.5 62.95 337.369 62.95 450.5 176.847 450.5 62.95"/><path class="e" d="M492.655,245.95a43.647,43.647,0,0,0,1.692-5H155.692a30.839,30.839,0,0,0,1.08,5Z"/><rect class="f" x="323.5" y="56.95" width="4" height="4"/><path class="g" d="M322.1,256.95l-99.2.073a3.4,3.4,0,0,1-3.4-3.39l.073-152.292a3.4,3.4,0,0,1,3.4-3.39H322.1a3.4,3.4,0,0,1,3.4,3.4V253.56A3.4,3.4,0,0,1,322.1,256.95Z"/><path class="h" d="M323.5,158.95v-55.6a3.4,3.4,0,0,0-3.4-3.4H222.9a3.4,3.4,0,0,0-3.4,3.4v55.6Z"/><rect class="i" x="228.5" y="108.95" width="87" height="29"/><polygon class="j" points="299.555 137.95 315.5 137.95 315.5 108.95 270.555 108.95 299.555 137.95"/><polygon class="k" points="232.5 112.95 315.5 112.95 315.5 108.95 228.5 108.95 228.5 138.95 232.5 138.95 232.5 112.95"/><path class="l" d="M276.49,125.986c-.409-.408-.753-.753-.99-1.01v-3.183l1.011-1.01.043.065.946.924v3.2Zm0,5.323c-.344-.323-.581-.581-.753-.753l-.237-.258v-3.226l.99-1.011,1.01,1.011V130.3Zm5.495-.358-1,1h-3.447l-1.021-1.022,1-.978h3.468Zm-5.447-10,1-1H281l.978,1-1,1h-3.447Zm6.962.822v3.2l-.99.988-1.01-1.01v-3.16l1.01-1.01Zm0,5.258v3.289l-.99.989-1.01-1.01v-3.224l.043-.043q.9-.935.967-.967Z"/><path class="l" d="M266.49,125.986c-.409-.408-.753-.753-.99-1.01v-3.183l1.011-1.01.043.065.946.924v3.2Zm0,5.323c-.344-.323-.581-.581-.753-.753l-.237-.258v-3.226l.99-1.011,1.01,1.011V130.3Zm5.495-.358-1,1h-3.447l-1.021-1.022,1-.978h3.468Zm-5.447-10,1-1H271l.978,1-1,1h-3.447Zm6.962.822v3.2l-.99.988-1.01-1.01v-3.16l1.01-1.01Zm0,5.258v3.289l-.99.989-1.01-1.01v-3.224l.043-.043q.9-.935.967-.967Z"/><path class="l" d="M287.8,130.94l-1.01,1.01h-1.376l-1.011-1.01.989-.99h1.441Z"/><path class="l" d="M289.49,125.986c-.409-.408-.753-.753-.99-1.01v-3.183l1.011-1.01.043.065.946.924v3.2Zm0,5.323c-.344-.323-.581-.581-.753-.753l-.237-.258v-3.226l.99-1.011,1.01,1.011V130.3Zm5.875-.358-1,1h-3.447l-1.021-1.022,1-.978h3.468Zm-5.447-10,1-1h3.467l.978,1-1,1h-3.447Zm6.582.821v3.2l-.989.989-1.011-1.01v-3.162l1.011-1.01Zm0,5.257v3.29l-.989.99L294.5,130.3v-3.226l.043-.043q.9-.935.968-.968Z"/><path class="l" d="M299.49,125.986c-.409-.408-.753-.753-.99-1.01v-3.183l1.011-1.01.043.065.946.924v3.2Zm0,5.323c-.344-.323-.581-.581-.753-.753l-.237-.258v-3.226l.99-1.011,1.01,1.011V130.3Zm5.875-.358-1,1h-3.447l-1.021-1.022,1-.978h3.468Zm-5.447-10,1-1h3.467l.978,1-1,1h-3.447Zm6.582.821v3.2l-.989.989-1.011-1.01v-3.162l1.011-1.01Zm0,5.257v3.29l-.989.99L304.5,130.3v-3.226l.043-.043q.9-.935.968-.968Z"/><path class="m" d="M219.5,158.95v94.6a3.4,3.4,0,0,0,3.4,3.4h97.2a3.4,3.4,0,0,0,3.4-3.4v-94.6Z"/><rect class="n" x="228.5" y="164.95" width="14" height="13" rx="1.342" ry="1.342"/><rect class="o" x="228.5" y="181.95" width="14" height="13" rx="1.342" ry="1.342"/><rect class="o" x="246.5" y="181.95" width="14" height="13" rx="1.342" ry="1.342"/><rect class="o" x="265.5" y="181.95" width="14" height="13" rx="1.342" ry="1.342"/><rect class="o" x="228.5" y="198.95" width="14" height="13" rx="1.342" ry="1.342"/><rect class="o" x="246.5" y="198.95" width="14" height="13" rx="1.342" ry="1.342"/><rect class="o" x="265.5" y="198.95" width="14" height="13" rx="1.342" ry="1.342"/><rect class="o" x="228.5" y="214.95" width="14" height="13" rx="1.342" ry="1.342"/><rect class="o" x="246.5" y="214.95" width="14" height="13" rx="1.342" ry="1.342"/><rect class="o" x="265.5" y="214.95" width="14" height="13" rx="1.342" ry="1.342"/><rect class="o" x="228.5" y="232.95" width="14" height="13" rx="1.342" ry="1.342"/><rect class="o" x="246.5" y="232.95" width="14" height="13" rx="1.342" ry="1.342"/><rect class="o" x="265.5" y="232.95" width="14" height="13" rx="1.342" ry="1.342"/><rect class="h" x="246.5" y="164.95" width="14" height="13" rx="1.342" ry="1.342"/><rect class="h" x="265.5" y="164.95" width="14" height="13" rx="1.342" ry="1.342"/><rect class="h" x="283.5" y="164.95" width="14" height="13" rx="1.342" ry="1.342"/><rect class="h" x="301.5" y="164.95" width="14" height="13" rx="1.342" ry="1.342"/><rect class="h" x="283.5" y="181.95" width="14" height="13" rx="1.342" ry="1.342"/><rect class="h" x="301.5" y="181.95" width="14" height="13" rx="1.342" ry="1.342"/><rect class="h" x="283.5" y="198.95" width="14" height="13" rx="1.342" ry="1.342"/><rect class="h" x="301.5" y="198.95" width="14" height="13" rx="1.342" ry="1.342"/><rect class="h" x="301.5" y="214.95" width="14" height="13" rx="1.342" ry="1.342"/><rect class="h" x="283.5" y="214.95" width="14" height="31" rx="1.342" ry="1.342"/><rect class="h" x="301.5" y="232.95" width="14" height="13" rx="1.342" ry="1.342"/><path class="p" d="M351.462,120.67,330.431,70.824a2.418,2.418,0,0,0-3.168-1.288L323.307,71.2a2.4,2.4,0,0,0-.632.405l3.03,7.181,2.412-1.018c1.175-.5,2.253-.878,3.114,1.163l16.753,39.707-.556,1.619,1.7,4.02,1.05-.443A2.418,2.418,0,0,0,351.462,120.67Z"/><rect class="a" x="392.669" y="253.57" width="4.028" height="2.282" transform="translate(475.934 -207.945) rotate(67.124)"/><rect class="n" x="265.003" y="150.099" width="175.876" height="11.009" transform="translate(359.105 -230.067) rotate(67.124)"/><rect class="q" x="261.737" y="155.021" width="175.876" height="3.921" transform="translate(358.379 -226.216) rotate(67.124)"/><polygon class="p" points="382.053 238.765 393.278 254.317 395.505 253.378 392.197 234.485 382.053 238.765"/><polygon class="r" points="382.053 238.765 393.278 254.317 394.433 253.83 385.764 237.199 382.053 238.765"/><path class="s" d="M322.293,70.175c-.138-.389-.288-.79-.467-1.214a3.394,3.394,0,0,0-4.447-1.808L314.4,68.413a3.394,3.394,0,0,0-1.808,4.447c.18.426.36.813.54,1.183Z"/><rect class="p" x="315.15" y="69.364" width="7.453" height="11.009" transform="translate(263.899 -248.033) rotate(67.124)"/><rect class="p" x="345.354" y="138.78" width="5.622" height="11.009" transform="translate(345.758 -232.585) rotate(67.124)"/><rect class="r" x="311.814" y="74.393" width="7.453" height="3.766" transform="translate(263.156 -244.098) rotate(67.124)"/><rect class="r" x="342.108" y="143.674" width="5.622" height="3.962" transform="translate(345.036 -228.757) rotate(67.124)"/></svg>