<svg xmlns="http://www.w3.org/2000/svg" viewBox="0 0 636 350"><title>hero-vs-tools-for-azure</title><path d="M263.586,37.46H260.1V146.991h3.486Z" fill="#45779e"/><path d="M177.244,203.351l-.844-2.406s1.064-1.27,1.25-1.535a.43.43,0,0,1,.743.432l-.284.521s.612-.435,1-.729a.4.4,0,0,1,.624.106c.153.212-.129.529-.129.529s.4-.129.541.106-.071.541-.071.541.282.024.365.224-.129.518-.129.518.165,0,.247.224-.047.447-.435.694a2.2,2.2,0,0,1-1.2.447A11.543,11.543,0,0,0,177.244,203.351Z" fill="#9d6952"/><path d="M170.5,327.5h-60a4.5,4.5,0,0,1,0-9h60a4.5,4.5,0,0,1,0,9Z" fill="#243549"/><path d="M533.5,327.5h-179a4.5,4.5,0,0,1,0-9h179a4.5,4.5,0,0,1,0,9Z" fill="#243549"/><path d="M177.839,203.1a3.164,3.164,0,0,1-.812,1.111l-6.366,3.447L159.63,208a1.723,1.723,0,0,1-.032-3.445l10.146-.393,5.546-3.029a1.532,1.532,0,0,1,2.328.525A1.9,1.9,0,0,1,177.839,203.1Z" fill="#fff"/><path d="M176.629,202.7l-6.431,3.651-11.72.351c-.2-.065-.2-.065-.478.071A1.745,1.745,0,0,0,159.657,208l11.031-.341,6.366-3.447a3.146,3.146,0,0,0,.812-1.111.786.786,0,0,0-.011-.686C177.442,202.282,177.174,202.421,176.629,202.7Z" fill="#c6c6c6"/><path d="M523.337,125.1a29.157,29.157,0,0,0-29.212-27.55,29.482,29.482,0,0,0-28.8,23,21.608,21.608,0,1,0-16.336,35.774h73.254a15.63,15.63,0,0,0,1.093-31.225Z" fill="#45779e"/><path d="M155.5,227.91l.221,2.385-.221,9.765h3.055l2.176-9.552v-2.6Z" fill="#724aad"/><path d="M159.584,227.91v2.6L158.5,240.06l2.176-9.552v-2.6Z" fill="#8867c8"/><path d="M155.5,227.91l.221,2.385-.221,9.765,1.092-9.765-.214-2.385Z" fill="#5c2d91"/><path d="M155.7,237.676v7.366h4.8a.425.425,0,0,0,.435-.433v-1.086s0-.213-.435-.646a5.853,5.853,0,0,1-1.527-1.732v-3.47Z"/><path d="M160.931,244.609v.433a.425.425,0,0,1-.435.433h-4.8v-.433h4.8A.425.425,0,0,0,160.931,244.609Z"/><path d="M160.527,245.042a.425.425,0,0,0,.435-.433v-1.086s0-.213-.435-.646A5.853,5.853,0,0,1,159,241.145v3.9h1.527Z" fill="#313131"/><path d="M149.6,227.91l.214,2.385v9.765h3.07l1.962-9.552v-2.6Z" fill="#724aad"/><path d="M153.992,227.91v2.6L152.9,240.06l1.962-9.552v-2.6Z" fill="#00997f"/><path d="M149.6,227.91l.214,2.385v9.765l.871-9.765V227.91Z" fill="#5c2d91"/><path d="M149.8,237.676v7.366h5.032s.214,0,.214-.433v-1.086s.221-.213-.435-.646a3.384,3.384,0,0,1-1.306-1.732v-3.47Z"/><path d="M155.046,244.609v.433c0,.433-.214.433-.214.433H149.8v-.433h5.032S155.046,245.042,155.046,244.609Z"/><path d="M153.3,241.146v3.9h1.527s.214,0,.214-.433v-1.086c0-.213,0-.433-.435-.646A3.382,3.382,0,0,1,153.3,241.146Z"/><path d="M164,199.972l1.473.458Z" fill="#fbd9bf"/><path d="M166.591,198.862a15.438,15.438,0,0,1-.761-2.1.655.655,0,0,1-.148-.463,3.6,3.6,0,0,1-2.113-.563l-.719-1-.175,1.064-.036.217s-.105.637-.176,1.071a1.038,1.038,0,0,1,.114.673c-.07.427-.648-.107-.648-.107a3.016,3.016,0,0,0-.973-.814.8.8,0,0,0-.675.1,2.377,2.377,0,0,0,.035,1.106c-.035.21-.1.637.114.673a.743.743,0,0,0,.141.462,2.683,2.683,0,0,1-1.176,1.785l-.4-.281.044,2.416,3.619.818v-1.316A2,2,0,0,0,163.7,203c1.078.177,1.182-.46,1.182-.46l.394-1.036.176-1.072.352-.819C167.125,199.612,166.766,199.114,166.591,198.862Z" fill="#9d6952"/><path d="M160.1,201.969c.183.253.753.786,2.479,1.069.036-.217.036-.217.07-.427A10.547,10.547,0,0,1,160.1,201.969Z" fill="#805443"/><path d="M165.361,201.074c-.183-.253-.367-.5-.331-.716l-.43-.071s.359.5.726,1Z" fill="#805443"/><path d="M165.442,200.43l-.437-.072c-.036.217.148.463.331.716Z" fill="#fff"/><path d="M165.687,197.621a.475.475,0,0,1-.5.357.217.217,0,0,1-.183-.253c.035-.21.035-.21.289-.391C165.5,197.368,165.468,197.585,165.687,197.621Z"/><path d="M157.5,203.507l.958-1.821,4.767,1.884-.387,2.353Z" fill="#fff"/><path d="M158.429,203.221c-3.063-.288-4.312,3.262-4.382,3.689-1.089,5.308-3.946,20.006-6.347,19.828,12.916,2.123,13.274,2.628,14.775,1.551s2.192-21.388,2.192-21.388C165.02,203.427,162.119,203.6,158.429,203.221Z" fill="#fff"/><path d="M158.429,203.221c-3.063-.288-4.312,3.262-4.382,3.689-1.089,5.308-3.946,20.006-6.347,19.828l1.937.318-.218-.036c2.612.214,4.941-12.594,6-17.692.07-.427,1.867-5.857,4.91-5.58.648.107,2.19.144,2.007-.109A26.123,26.123,0,0,0,158.429,203.221Z" fill="#c6c6c6"/><path d="M166.253,193.089a1.653,1.653,0,0,0-1.321-1.332l-.43-.071a1.642,1.642,0,0,0-1.332-1.312,1.6,1.6,0,0,0-.929.286,1.889,1.889,0,0,0-1.183-.856,1.944,1.944,0,0,0-1.859.572l-.219-.036a1.89,1.89,0,0,0-2.024,1.444l-.036.217a1.889,1.889,0,0,0-1.57,1.5c-.035.21.114.673.078.89-.253.174-.323.6-.393,1.028a1.452,1.452,0,0,0,.613,1.64l-.036.217a.209.209,0,0,0-.246.175,2.089,2.089,0,0,0,1.4,2.208c-.07.427.522.963.952,1.034l.648.106c.211.035.394.288.605.322a2.957,2.957,0,0,0,.965-.5,2.341,2.341,0,0,0,1.113-.04c1.823-.355.352-.82.315-1.918.176-1.071,1.078.177,1.543.031.43.071.14-.854.281-1.709-.078-.89.247-.182,1.106-.041.683-.1.718-.321.57-.784l.859.141a2.341,2.341,0,0,0,1.182-1.776A2.768,2.768,0,0,0,166.253,193.089Z"/><path d="M167.093,194.555c.07-.427-.1-.679-.035-1.106a6.26,6.26,0,0,0-7.428-4.53,6.142,6.142,0,0,0-4.762,7.359c.184.246.114.673.289.925Z" fill="#ff8c00"/><path d="M165.466,193.845c-.07.427-.105.637.071.889l1.577-.179c.07-.427-.105-.679-.035-1.106a6.26,6.26,0,0,0-7.428-4.53,3.477,3.477,0,0,0-.951.282A6.241,6.241,0,0,1,165.466,193.845Z" fill="#ffa940"/><path d="M159.58,189.129c-.43-.071-.684.111-.917.072a5.81,5.81,0,0,0-3.81,5.753l-.036.217c-.07.427.1.679.035,1.106a1.585,1.585,0,0,1,.289.925l.929-.286.684-.111a1.691,1.691,0,0,0-.289-.925A6.056,6.056,0,0,1,159.58,189.129Z" fill="#f08400"/><path d="M167.358,193.056l-13.076,2.9a1.021,1.021,0,0,0-.14.854c.176.252.359.5.359.5l13.329-3.073s.036-.217.106-.644A.784.784,0,0,0,167.358,193.056Z" fill="#ffb900"/><path d="M124.915,279.539l15.488-9.765,15.48,9.765-15.48,9.538Zm34.023,21.248-16.144-10.2,16.144-9.963.214-.22a.214.214,0,0,0,.221-.213l.214-.22v-.866l-.214-.213v-.22h-.221v-.213h-.214l-16.144-10.206,16.144-9.978a1.412,1.412,0,0,0,.435-1.952,1.323,1.323,0,0,0-1.741-.22L140.4,266.743l-17.236-10.638a1.281,1.281,0,0,0-1.741.22,1.413,1.413,0,0,0,.435,1.952l16.144,9.978-16.144,10.206h-.214l-.221.213v.22l-.214.213v1.086h.214c0,.213,0,.213.221.213l.214.22,16.144,9.963-16.144,10.2a1.177,1.177,0,0,0-.435,1.739,1.2,1.2,0,0,0,1.092.646.8.8,0,0,0,.649-.213L140.4,292.321l17.229,10.638a.8.8,0,0,0,.649.213,1.2,1.2,0,0,0,1.092-.646A1.177,1.177,0,0,0,158.938,300.787Z" fill="#8562ad"/><path d="M167.706,314.675a1.946,1.946,0,0,1-1.963,1.944h-50.58a1.946,1.946,0,0,1-1.963-1.944V301.007a1.947,1.947,0,0,1,1.963-1.952h50.58a1.947,1.947,0,0,1,1.963,1.952Z" fill="#ff8c00"/><path d="M118,313.81a1.774,1.774,0,0,1-1.741-1.952v-9.985H113.2v12.8a1.946,1.946,0,0,0,1.963,1.944h49.495v-2.81Z" fill="#db7a00"/><path d="M165.743,316.62h-1.085v-12.8a1.92,1.92,0,0,0-1.749-1.952H113.2v-.866a1.947,1.947,0,0,1,1.963-1.952h50.58a1.947,1.947,0,0,1,1.963,1.952v13.668A1.946,1.946,0,0,1,165.743,316.62Z" fill="#ffa940"/><path d="M131.946,316.62a6.873,6.873,0,1,1-13.746,0,6.873,6.873,0,1,1,13.746,0Z" fill="#002050"/><path d="M121,316.62a3.933,3.933,0,1,1,3.926,3.9A3.893,3.893,0,0,1,121,316.62Z" fill="#ff8c00"/><path d="M124.926,320.523a4.156,4.156,0,0,0,2.848-1.086l-5.468-5.627A3.8,3.8,0,0,0,121,316.62,3.9,3.9,0,0,0,124.926,320.523Z" fill="#ffa940"/><path d="M162.647,316.62a6.874,6.874,0,1,1-13.747,0,6.874,6.874,0,1,1,13.747,0Z" fill="#002050"/><path d="M159.643,316.62a3.922,3.922,0,1,1-3.918-3.9A3.892,3.892,0,0,1,159.643,316.62Z" fill="#ff8c00"/><path d="M155.726,320.523a4.144,4.144,0,0,0,2.833-1.086l-5.446-5.627a3.806,3.806,0,0,0-1.313,2.81A3.9,3.9,0,0,0,155.726,320.523Z" fill="#ffa940"/><path d="M155.229,245.475v-18.65h6.537v18.65Zm-36.207-18.65h6.56v18.65h-6.56Zm15.488,0v18.65h-6.316v-18.65Zm9.149,0v18.65h-6.53v-18.65Zm8.958,0v18.65h-6.338v-18.65Zm15.03-3.464H113.141a1.867,1.867,0,0,0-1.741,1.732,1.71,1.71,0,0,0,1.741,1.732h3.269v18.65H115.1a1.947,1.947,0,0,0-1.963,1.952v9.552a1.778,1.778,0,0,0,1.963,1.732h50.58a1.778,1.778,0,0,0,1.963-1.732v-9.552a1.947,1.947,0,0,0-1.963-1.952h-1.306v-18.65h3.269a1.71,1.71,0,0,0,1.741-1.732A1.867,1.867,0,0,0,167.647,223.361Z" fill="#ff8c00"/><path d="M118,255.893a1.771,1.771,0,0,1-1.741-1.952v-5.436H113.2v8.474a1.778,1.778,0,0,0,1.963,1.732h49.495v-2.817H118Z" fill="#db7a00"/><path d="M165.743,258.71h-1.085v-8.452a1.894,1.894,0,0,0-1.749-1.753H113.2v-1.079a1.947,1.947,0,0,1,1.963-1.952h50.58a1.947,1.947,0,0,1,1.963,1.952v9.552A1.778,1.778,0,0,1,165.743,258.71Z" fill="#ffa940"/><path d="M460.5,264.36h-1.313V225.313h-4.575V264.36h-1.52c-.656,0-1.092.433-1.092,1.3v8.665h9.806v-8.665A1.253,1.253,0,0,0,460.5,264.36Z" fill="#ffb900"/><path d="M460.454,264.36h-1.313V225.313H457.4V264.36h1.306a1.249,1.249,0,0,1,1.306,1.3v8.665h1.749v-8.665A1.254,1.254,0,0,0,460.454,264.36Z" fill="#ff8c00"/><path d="M456.139,225.313h-1.527V264.36h-1.52c-.656,0-1.092.433-1.092,1.3v8.665h1.527v-8.665a1.249,1.249,0,0,1,1.306-1.3h1.306Z" fill="#ffc733"/><path d="M376.147,132.021l-13.075,13.235L338,120.546l13.289-13.236Z" fill="#8562ad"/><path d="M348.206,109.7a1.845,1.845,0,0,1,0,2.817L343.2,117.5a1.635,1.635,0,0,1-2.612,0l-82.2-81.549a1.97,1.97,0,0,1,0-2.6l5.231-5.216a1.986,1.986,0,0,1,2.612,0Z" fill="#8562ad"/><path d="M524.606,274.318,505.85,292.77,356.5,144.17l18.535-18.43Z" fill="#ff8c00"/><path d="M337.944,122.065c-.435,0-.871,0-1.085-.433a1.408,1.408,0,0,1,0-2.384l13.067-13.228a1.713,1.713,0,0,1,2.4,0,1.617,1.617,0,0,1,0,2.6l-13.075,13.015A1.6,1.6,0,0,1,337.944,122.065Z" fill="#ffa940"/><path d="M295.493,75.416a3.155,3.155,0,0,1-1.306-.433,1.7,1.7,0,0,1,0-2.384l8.936-8.885a1.726,1.726,0,0,1,2.4,0,1.7,1.7,0,0,1,0,2.384l-8.714,8.885A3.192,3.192,0,0,1,295.493,75.416Z" fill="#ffa940"/><path d="M355.6,146.78a3.155,3.155,0,0,1-1.306-.433,1.963,1.963,0,0,1,0-2.605l20.276-20.162a1.992,1.992,0,0,1,2.62,0,1.97,1.97,0,0,1,0,2.6l-20.284,20.169A3.138,3.138,0,0,1,355.6,146.78Z" fill="#ffa940"/><path d="M524.6,274.322l-1.527,1.519L369.8,133.543l6.537-6.713Z" fill="#ffa940"/><path d="M505.844,292.774l1.527-1.321L364.36,138.76l-6.56,6.72Z" fill="#db7a00"/><path d="M529.164,277.36a2.968,2.968,0,0,0-3.047-3.037H427.561a3.153,3.153,0,0,0-3.261,3.037v8.9a3.152,3.152,0,0,0,3.261,3.03h98.556a2.967,2.967,0,0,0,3.047-3.03Z" fill="#002050"/><path d="M376.3,308.608a15.042,15.042,0,1,0,15.045-14.967A15.038,15.038,0,0,0,376.3,308.608Z" fill="#002050"/><path d="M436.7,308.608a15.049,15.049,0,1,0,15.045-14.967A15.047,15.047,0,0,0,436.7,308.608Z" fill="#002050"/><path d="M482.5,308.608a15.045,15.045,0,1,0,15.052-14.967A15.044,15.044,0,0,0,482.5,308.608Z" fill="#002050"/><path d="M408.838,244.609H369.385c-14.4,16.486-10.914,64-10.914,64H397.94S394.457,261.1,408.838,244.609Z" fill="#ff8c00"/><path d="M441.8,289.51a.677.677,0,0,1,.435-.22H441.8Z" fill="#ff8c00"/><path d="M407.9,289.51a.809.809,0,0,1,.657-.22H407.9Z" fill="#ffa940"/><path d="M375.044,244.609h-5.659c-14.4,16.486-10.914,64-10.914,64h5.681S360.648,261.1,375.044,244.609Z" fill="#ffa940"/><path d="M529.147,289.29H436.914a.677.677,0,0,0-.435.22v-44.9H403.563c-14.381,16.486-10.891,64-10.891,64H529.147a2.973,2.973,0,0,0,3.047-3.052V292.541A3.156,3.156,0,0,0,529.147,289.29Z" fill="#ffb900"/><path d="M406.833,247.859H436.48v-3.25H403.563c-14.381,16.486-10.891,64-10.891,64h3.047C395.285,297.544,394.628,261.74,406.833,247.859Z" fill="#ffcb40"/><path d="M529.148,289.29v12.15a3.155,3.155,0,0,1-3.047,3.25H395.5c0,1.519.221,2.832.221,3.918H529.148a2.973,2.973,0,0,0,3.047-3.052V292.541A3.3,3.3,0,0,0,529.148,289.29Z" fill="#db9d00"/><path d="M430.424,289.29V251.557h-23.11c-6.973,8.232-8.714,25.8-8.714,37.733Z" fill="#002050"/><path d="M430.424,289.29s-13.5-21.9-23.11-37.733c-6.973,8.232-8.714,25.8-8.714,37.733Z" fill="#006fc8"/><path d="M399.5,308.608a14.934,14.934,0,1,0,15.052-14.967A15.039,15.039,0,0,0,399.5,308.608Z" fill="#002050"/><path d="M406.4,308.608a7.962,7.962,0,1,0,8.079-8.034A8.021,8.021,0,0,0,406.4,308.608Z" fill="#ff8c00"/><path d="M491.4,308.608a15.052,15.052,0,1,0,15.052-14.967A15.053,15.053,0,0,0,491.4,308.608Z" fill="#002050"/><path d="M459.6,308.608a15.044,15.044,0,0,0,15.052,14.967,14.968,14.968,0,0,0,0-29.934A15.03,15.03,0,0,0,459.6,308.608Z" fill="#002050"/><path d="M414.48,316.62a7.11,7.11,0,0,0,5.445-2.377l-11.348-11.284a8.631,8.631,0,0,0-2.177,5.649A8.023,8.023,0,0,0,414.48,316.62Z" fill="#ffa940"/><path d="M382.842,297.324H366.506a1.3,1.3,0,1,1,0-2.6h16.336a1.3,1.3,0,1,1,0,2.6Z" fill="#ffa940"/><path d="M382.842,303.171H366.506a1.151,1.151,0,0,1-1.306-1.3,1.253,1.253,0,0,1,1.306-1.3h16.336a1.407,1.407,0,0,1,1.313,1.3A1.255,1.255,0,0,1,382.842,303.171Z" fill="#ffa940"/><path d="M366.974,251.557c-4.8,10.616-6.552,25.8-6.774,37.953h29.012c.221-12.15,1.963-27.337,6.751-37.953Z" fill="#002050"/><path d="M366.974,251.557c-4.8,10.616-6.552,25.8-6.774,37.953h29.012C389.434,277.36,366.974,251.557,366.974,251.557Z" fill="#006fc8"/><path d="M238.775,179.117a6.632,6.632,0,0,0-4.789-4.784V167.18a12.946,12.946,0,0,1,8.057,3.9,13.963,13.963,0,0,1,3.926,8.034Zm3.268,11.482a14.039,14.039,0,0,1-8.057,3.918v-7.168a8.573,8.573,0,0,0,3.047-1.732,8.476,8.476,0,0,0,1.741-3.037h7.194A13.965,13.965,0,0,1,242.043,190.6Zm-12.654-9.963a2.894,2.894,0,0,1,2.856-2.817,2.694,2.694,0,0,1,2.612,2.817,2.512,2.512,0,0,1-2.612,2.6A2.716,2.716,0,0,1,229.389,180.636Zm.871,13.881a14.126,14.126,0,0,1-7.843-3.918,12.789,12.789,0,0,1-3.918-8.019h7.187a6.77,6.77,0,0,0,4.575,4.769v7.168Zm-7.843-23.434a12.978,12.978,0,0,1,7.843-3.9v7.153a6.751,6.751,0,0,0-4.575,4.784H218.5A12.778,12.778,0,0,1,222.417,171.083ZM254.248,182.8v-4.116h-2.833c-.221-1.086-.435-2.406-.657-3.485l2.62-1.086-1.528-3.9-2.833,1.3a11.949,11.949,0,0,0-1.963-3.038l2.184-2.164-2.833-2.817-2.177,2.172a20.113,20.113,0,0,0-2.833-1.739l1.085-3.045-3.7-1.519-1.085,3.03a9.94,9.94,0,0,0-3.49-.646V158.5h-4.154v3.25a8.763,8.763,0,0,0-3.269.646l-1.092-3.03-3.918,1.519,1.306,3.045a12.185,12.185,0,0,0-2.833,1.739l-2.4-2.172-2.833,2.817,2.184,2.164a32.551,32.551,0,0,1-1.963,2.817l-2.833-1.078-1.527,3.683,2.833,1.3a9.822,9.822,0,0,0-.649,3.485H210V182.8h3.055a16.481,16.481,0,0,0,.435,3.25l-2.619,1.079,1.527,3.683,2.612-1.079c.657,1.079,1.313,2.179,1.963,3.052l-1.963,1.944,2.833,2.817,1.963-1.952a12.153,12.153,0,0,0,3.047,1.952l-1.085,2.6,3.7,1.519,1.085-2.384c1.092.22,2.4.433,3.49.653v2.6H234.2v-2.6c1.306-.22,2.4-.433,3.49-.653l1.085,2.384,3.7-1.519-1.085-2.377a15.7,15.7,0,0,0,3.047-2.172l1.963,1.952,2.833-2.817-1.963-1.944a9.3,9.3,0,0,0,1.963-3.052l2.612,1.079,1.528-3.683-2.62-1.079c.221-1.086.435-2.172.657-3.25h2.833Z" fill="#235a89"/><path d="M206.764,219.224a4.874,4.874,0,1,1,0-9.744,4.819,4.819,0,0,1,4.8,4.762A4.869,4.869,0,0,1,206.764,219.224Zm20.047-.646L221.8,213.6l4.353-5.635-6.751-1.732,1.092-7.168-6.973,1.952-2.619-6.721-5.01,4.982-5.46-4.329-1.963,6.713-6.973-1.086,1.741,6.955-6.538,2.6,5.01,4.982-4.575,5.436,6.973,1.952-1.085,6.933,6.751-1.739,2.612,6.721,5.032-5.2,5.667,4.549,1.741-6.933,7.187,1.3-1.955-6.926Z" fill="#235a89"/><path d="M268.168,221.41a10.871,10.871,0,0,1-7.408-13.448,10.754,10.754,0,0,1,20.7,5.848A10.827,10.827,0,0,1,268.168,221.41Zm28.563-8.467-4.139-1.3a22.311,22.311,0,0,0-.878-6.515l3.7-1.952a3.226,3.226,0,0,0,1.313-4.549l-1.749-3.037a3.253,3.253,0,0,0-4.353-1.3l-3.7,2.164a19,19,0,0,0-5.246-4.116l1.085-4.131a3.089,3.089,0,0,0-2.177-3.9l-3.483-1.079a3.668,3.668,0,0,0-4.139,2.164l-1.092,4.116a22.746,22.746,0,0,0-6.537.866l-2.177-3.683a3.2,3.2,0,0,0-4.361-1.3l-3.07,1.732a3.045,3.045,0,0,0-1.306,4.336l2.2,3.918a15.113,15.113,0,0,0-4.154,4.982l-4.139-1.086a3.119,3.119,0,0,0-3.925,2.172l-1.092,3.683a3.206,3.206,0,0,0,2.184,3.918l4.139,1.078a22.136,22.136,0,0,0,.871,6.5l-3.7,2.164a3.236,3.236,0,0,0-1.306,4.351l1.741,3.25a3.178,3.178,0,0,0,4.353,1.086l3.925-1.952a18.607,18.607,0,0,0,5.032,3.9l-1.092,4.116a3.437,3.437,0,0,0,2.177,4.131l3.49.866a3.458,3.458,0,0,0,4.139-2.164l1.085-4.138a22.485,22.485,0,0,0,6.538-.866l2.177,3.918a3.2,3.2,0,0,0,4.375,1.086l3.055-1.754a3.039,3.039,0,0,0,1.306-4.329l-1.963-3.683a23.392,23.392,0,0,0,3.925-5.2l4.139,1.086a3.113,3.113,0,0,0,3.918-2.186l1.092-3.463A3.1,3.1,0,0,0,296.731,212.943Z" fill="#235a89"/><path d="M325.314,209.047l-4.139-4.138a3.02,3.02,0,0,0,.435-1.3h5.881A9.955,9.955,0,0,1,325.314,209.047Zm-7.187,4.329v-6.067c.435,0,.649-.213.871-.213l4.139,4.116A11.821,11.821,0,0,1,318.127,213.376Zm-8.714-2.164,4.139-4.116c.435.213.871.213,1.306.433v5.847A12.008,12.008,0,0,1,309.413,211.212Zm-1.985-2.165a12.3,12.3,0,0,1-2.391-5.436h5.9c.221.433.435.866.657,1.3Zm0-13.668,4.161,4.116a1.59,1.59,0,0,0-.435.866h-5.9A9.328,9.328,0,0,1,307.428,195.379Zm7.43-4.351V196.9c-.435.213-.871.213-1.306.433l-4.139-4.116A11.96,11.96,0,0,1,314.858,191.028Zm3.269,12.583a2.381,2.381,0,0,1-3.269,0,2.093,2.093,0,0,1,0-3.038,2.381,2.381,0,0,1,3.269,0A2.093,2.093,0,0,1,318.127,203.611Zm5.01-10.4L319,197.33c-.221,0-.435-.22-.871-.433v-5.869A11.757,11.757,0,0,1,323.137,193.214Zm2.177,2.165a11.235,11.235,0,0,1,2.177,4.982H321.61c-.214-.22-.214-.653-.435-.866Zm9.149,8.232v-3.25h-2.391c-.221-.866-.443-1.732-.657-2.6l2.4-1.086-1.306-3.03-2.4,1.079a8.915,8.915,0,0,0-1.527-2.384l1.741-1.746-2.177-2.384-1.963,1.732c-.649-.433-1.52-1.079-2.177-1.519l.871-2.377-3.047-1.3-.871,2.377a13.116,13.116,0,0,0-2.833-.433v-2.6h-3.269v2.6a13.032,13.032,0,0,0-2.833.433l-.871-2.377-3.069,1.3.871,2.377a17.112,17.112,0,0,0-2.612,1.519l-1.527-1.732-2.4,2.384,1.749,1.746a12.956,12.956,0,0,0-1.527,2.172l-2.177-.866-1.313,3.03,2.184.866a13.5,13.5,0,0,0-.657,2.817H298.5v3.25h2.177a11.294,11.294,0,0,0,.435,2.832l-1.963.866,1.313,3.037,1.955-.653a16.243,16.243,0,0,0,1.749,2.384l-1.749,1.519,2.4,2.377,1.527-1.512c.871.433,1.741,1.079,2.612,1.512l-.871,1.952,3.069,1.3.871-1.944a11.242,11.242,0,0,0,2.833.433v2.377h3.269v-2.377a6.776,6.776,0,0,0,2.833-.653l.871,2.164,3.047-1.3-.871-2.164a18.879,18.879,0,0,0,2.177-1.3l1.741,1.512,2.4-2.164-1.741-1.732c.657-.866,1.092-1.731,1.741-2.6l2.184,1.078,1.306-3.03-2.4-1.086c.214-.88.435-1.746.657-2.832h2.393Z" fill="#235a89"/><path d="M179.957,223.361A24.91,24.91,0,0,0,179.3,229a27.65,27.65,0,0,0,27.692,27.542h107.7A27.665,27.665,0,0,0,342.382,229a24.853,24.853,0,0,0-.657-5.635Z" fill="#fff"/><path d="M341.7,223.361h-3.483a4.8,4.8,0,0,1,.214,1.732,27.714,27.714,0,0,1-27.906,27.55h-107.5a27.549,27.549,0,0,1-17.428-6.3,27.31,27.31,0,0,0,21.368,10.2h107.7A27.665,27.665,0,0,0,342.358,229,24.918,24.918,0,0,0,341.7,223.361Z" fill="#c6c6c6"/><path d="M341.911,170.216a27.345,27.345,0,0,0-26.821-21.9,29.5,29.5,0,0,0-8.729,1.3,27.292,27.292,0,0,0-27.035-24.079,27.712,27.712,0,0,0-18.52,7.146,27.424,27.424,0,0,0-54.285,5.216,27.075,27.075,0,0,0,2.177,10.418h-2.177a27.516,27.516,0,0,0-26.821,21.9H341.911Z" fill="#fff"/><path d="M229.135,115.763A27.329,27.329,0,0,1,255.949,137.9a26.868,26.868,0,0,1,18.535-7.381,27.357,27.357,0,0,1,27.257,24.3,26.886,26.886,0,0,1,8.515-1.519,27.519,27.519,0,0,1,25.286,16.919h6.323a27.345,27.345,0,0,0-26.821-21.9,29.5,29.5,0,0,0-8.729,1.3,27.292,27.292,0,0,0-27.035-24.079,27.712,27.712,0,0,0-18.52,7.146,27.444,27.444,0,0,0-49.06-10.617A27.137,27.137,0,0,1,229.135,115.763Z" fill="#c6c6c6"/><path d="M498.4,308.608a8.061,8.061,0,1,0,8.065-8.034A8.163,8.163,0,0,0,498.4,308.608Z" fill="#ff8c00"/><path d="M466.6,308.608a7.961,7.961,0,1,0,8.079-8.034A8.035,8.035,0,0,0,466.6,308.608Z" fill="#ff8c00"/><path d="M474.68,316.62a7.1,7.1,0,0,0,5.445-2.377L469.02,302.959a7.854,7.854,0,0,0-2.42,5.649A8.037,8.037,0,0,0,474.68,316.62Z" fill="#ffa940"/><path d="M506.464,316.62a7.963,7.963,0,0,0,5.667-2.377L500.8,302.959a7.833,7.833,0,0,0-2.4,5.649A8.161,8.161,0,0,0,506.464,316.62Z" fill="#ffa940"/><path d="M200.248,178.938c-.509.484-1,.962-1.923,1.852a2.6,2.6,0,0,1-2.581.809c-.615-.238-1.338-.48-2.009-.8a2.311,2.311,0,0,1-1.423-1.883c-.182-.669-.206-1.267-.473-2.912-.164-1.007-.512-1.461-1.47-1.464a19.477,19.477,0,0,0-2.553.05,1.481,1.481,0,0,0-1.278,1.471c-.036.643-.054,1.423-.112,2.97a1.984,1.984,0,0,1-1.436,2.126c-.627.246-.988.415-1.779.748a1.808,1.808,0,0,1-1.942-.066c-.5-.405-1.987-1.43-3.013-2.166a1.266,1.266,0,0,0-1.957.252c-.372.412-1.007,1.139-1.483,1.678a1.271,1.271,0,0,0-.049,1.761c.468.6,1.559,1.845,2.313,2.74a1.984,1.984,0,0,1,.436,2.285s-.368.806-.784,1.692a2.387,2.387,0,0,1-1.784,1.355c-.721.186-1.94.315-3.139.51s-1.482.949-1.394,1.572.146,1.742.2,2.415a1.362,1.362,0,0,0,1.445,1.135c.777.035,2.089.175,2.994.252a2.015,2.015,0,0,1,1.8,1.161c.484.843.616,1.18,1.027,1.964a2,2,0,0,1-.251,2.359c-.6.733-1.24,1.444-2.063,2.41a1.293,1.293,0,0,0,.026,1.926c.631.613,1.223,1.107,1.819,1.675a1.416,1.416,0,0,0,2.035.086c.6-.585,1.429-1.417,2.195-2.176a1.946,1.946,0,0,1,2.383-.4c.819.366,2.055.758,2.055.758a1.862,1.862,0,0,1,1.395,1.864c.105.889.142,1.555.256,2.795s.621,1.562,1.593,1.617,1.3.067,2.13.094a1.517,1.517,0,0,0,1.654-1.487c.008-.7.039-1.86.045-3.143a2.2,2.2,0,0,1,1.482-2.075,10.284,10.284,0,0,1,1.751-.683c.969-.267,1.364-.41,2.275.231.566.4,1.052.736,2.417,1.692.836.585,1.4.653,2.074-.032a21.6,21.6,0,0,0,1.828-2,1.312,1.312,0,0,0-.246-1.8c-.435-.474-.982-1.031-2.05-2.152a1.985,1.985,0,0,1-.522-2.512c.261-.621.451-1.14.764-1.939a1.958,1.958,0,0,1,1.645-1.165c.741-.133,2.107-.466,3.35-.688a1.267,1.267,0,0,0,1.185-1.578c-.035-.554-.114-1.516-.168-2.233a1.27,1.27,0,0,0-1.228-1.263c-.758-.084-2.409-.169-3.577-.253a1.729,1.729,0,0,1-1.747-1.287l-.735-1.7a1.861,1.861,0,0,1,.363-2.3c.564-.695,1.124-1.313,1.934-2.26s.69-1.279.051-2.014-.969-1.107-1.53-1.72A1.518,1.518,0,0,0,200.248,178.938Zm-4.689,19.069a7.071,7.071,0,1,1-1.6-9.871A7.071,7.071,0,0,1,195.559,198.007Z" fill="#ff8c00"/><path d="M174.844,210.375,174,207.969s1.064-1.27,1.25-1.535a.43.43,0,0,1,.743.432l-.284.521s.612-.435,1-.729a.4.4,0,0,1,.624.106c.153.212-.129.529-.129.529s.4-.129.541.106-.071.541-.071.541.282.024.365.224-.129.518-.129.518.165,0,.247.224-.047.447-.435.694a2.2,2.2,0,0,1-1.2.447A11.4,11.4,0,0,0,174.844,210.375Z" fill="#9d6952"/><path d="M174.97,210.341a3.161,3.161,0,0,1-1.163.735l-7.187.87c-10.386-3.732-8.715-3.165-8.715-3.165a1.722,1.722,0,0,1,1.235-3.215c9.582,3.358,7.911,2.791,7.911,2.791l6.27-.782a1.532,1.532,0,0,1,1.973,1.343A1.892,1.892,0,0,1,174.97,210.341Z" fill="#fff"/><path d="M175.2,209.7c-.335-.275-.635-.244-1.246-.182l-7.322,1.035-9.83-3.542a1.913,1.913,0,0,0,1.092,1.771s-1.671-.567,8.713,3.164h.013l.272-.033.59-.071.744-.09.7-.085.023,0,2.511-.3.023,0,.7-.085.744-.09.59-.071.272-.033h.011a3.14,3.14,0,0,0,1.163-.735,1.387,1.387,0,0,0,.238-.464A.8.8,0,0,0,175.2,209.7Z" fill="#c6c6c6"/></svg>