<svg xmlns="http://www.w3.org/2000/svg" viewBox="0 0 636 350"><title>modal-joining-live-share-session</title><path d="M606.92,344H33.372A3.055,3.055,0,0,1,30,340.917c0-1.875.74-2.834,3.372-2.917H606.92c3.914,0,3.749,3,3.749,3C610.265,342.875,609.847,344,606.92,344Z" fill="#c8c8c8"/><path d="M57.213,313.12c.322-.242,1.3-.17,1.321.285.058,1.474-.044,4.3,1.589,6.466,2.441,3.244,5.743,4.41,7.362,3.956,1.117-.312.725,1.631,1.207,4.654.78,4.86,6.577,5.587,10.04,7.213a1.249,1.249,0,0,1,.692,1.538l-1.249,3.09c-.574.933-2.009.861-3.211.909,0,0-8.766.461-10.458-1.692C61.628,335.875,49.8,320.545,49.8,320.545a1.332,1.332,0,0,1,.079-1.862Z" fill="#737373"/><path d="M215.6,291.491l-17.075-67.318c-1.11-4-2.469-6.94-6.111-8.089-4.806-1.517-39.19-9.942-58.153-12.553l-19.825,1.733s-10.822,25.623-.585,27.76c8.554,1.786,46.435,2.065,58.66,2.108a5.406,5.406,0,0,1,5.084,3.622l15.395,50.031Z" fill="#838383"/><path d="M183.519,240.906c-.652-5.249-1.142-7.934-4.361-8.732-4.426-1.1-20.317-1.179-49.345-15.678,0,0-26.2,14.391-15.959,16.528,8.554,1.786,46.435,2.065,58.66,2.108a5.406,5.406,0,0,1,5.084,3.622l15.471,50.04,9.738,1.165S185.177,254.237,183.519,240.906Z" fill="#737373"/><path d="M135.393,210.859c-6.455,42.6-19.762,73.866-22.932,76.584s-43.827,34.994-43.827,34.994L56.4,312.924s13.335-11.8,19.705-20.385c7.814-10.532,19.7-18.006,19.7-18.006s.566-32.162,1.019-42.128,1.133-17.327,8.834-24.122C116.129,199.05,137.658,195.91,135.393,210.859Z" fill="#838383"/><path d="M97.871,221.836a70.6,70.6,0,0,0-1.039,10.569c-.453,9.966-1.019,42.128-1.019,42.128l-.071.046,3.758-2.2,1.272-10.733a55.058,55.058,0,0,0,28.966-32.324c2.156-7.963,2.93-18.42,3.111-19.414C130.114,209.56,107.913,223.533,97.871,221.836Z" fill="#737373"/><path d="M63.111,318.142l5.523,4.3s40.656-32.276,43.826-34.994a13.193,13.193,0,0,0,2.274-3.794C96.942,288.049,72.827,304.433,63.111,318.142Z" fill="#737373"/><polygon points="430.621 332 377.352 332 365.325 281 418.594 281 430.621 332" fill="#414042"/><polygon points="420.059 332 366.79 332 358.56 281 411.829 281 420.059 332" fill="#737373"/><rect x="331" y="330" width="116.5" height="10" fill="#737373"/><rect x="407" y="330" width="42" height="10" fill="#505050"/><polygon points="415.375 303 411.502 279 358.125 279 361.998 303 415.375 303" fill="#5e5e5e"/><path d="M573.77,17.776H169.921v275.3H573.77Z" fill="#6597bf"/><path d="M560.916,65.981H181.7V289.5H560.916Z" fill="#fff"/><path d="M559.844,29.559H482.717V43.485h77.127Z" fill="#fff"/><path d="M314,27H182v7H314Z" fill="#99bcd7"/><path d="M587.7,17.776H376.666v275.3H587.7Z" fill="#505050"/><path d="M587.7,54.2H376V293.079H587.7Z" fill="#282828"/><path d="M376,54.2H169.921V293.079h11.566V65.981H376Z" fill="#002050"/><path d="M397.731,82.049H391.3v5.356h6.427Z" fill="#505050"/><path d="M397.731,94.9H391.3v5.356h6.427Z" fill="#505050"/><path d="M397.731,106.687H391.3v5.356h6.427Z" fill="#505050"/><path d="M397.731,119.542H391.3V124.9h6.427Z" fill="#505050"/><path d="M397.731,132.4H391.3v5.356h6.427Z" fill="#505050"/><path d="M397.731,144.18H391.3v5.356h6.427Z" fill="#505050"/><path d="M397.731,157.034H391.3v5.356h6.427Z" fill="#505050"/><path d="M397.731,168.818H391.3v5.356h6.427Z" fill="#505050"/><path d="M397.731,182.744H391.3V188.1h6.427Z" fill="#505050"/><path d="M397.731,194.527H391.3v5.356h6.427Z" fill="#505050"/><path d="M397.731,207.382H391.3v5.356h6.427Z" fill="#505050"/><path d="M398,219h-6v5h6Z" fill="#505050"/><path d="M398,232h-6v5h6Z" fill="#505050"/><path d="M398,245h-6v5h6Z" fill="#505050"/><path d="M398,258h-6v5h6Z" fill="#505050"/><path d="M432.01,106.687H414.871v5.356H432.01Z" fill="#505050"/><path d="M501,82H415v5h86Z" fill="#505050"/><path d="M528,107H438v5h90Z" fill="#505050"/><path d="M474,120H416v5h58Z" fill="#505050"/><path d="M525,144H438v5h87Z" fill="#505050"/><path d="M517,157H416v5H517Z" fill="#505050"/><path d="M545,183H416v5H545Z" fill="#505050"/><path d="M482,195H416v5h66Z" fill="#505050"/><path d="M471,219H439v5h32Z" fill="#505050"/><path d="M538,219H477v5h61Z" fill="#505050"/><path d="M491,232H416v5h75Z" fill="#505050"/><path d="M553,245H416v5H553Z" fill="#505050"/><path d="M488,258H439v5h49Z" fill="#505050"/><path d="M331,82H225v5H331Z" fill="#c8c8c8"/><path d="M312,107H246v5h66Z" fill="#c8c8c8"/><path d="M340,120H245v5h95Z" fill="#c8c8c8"/><path d="M260,157H220v5h40Z" fill="#c8c8c8"/><path d="M300,157H266v5h34Z" fill="#c8c8c8"/><path d="M322,169H245v5h77Z" fill="#c8c8c8"/><path d="M359,183H245v5H359Z" fill="#c8c8c8"/><path d="M322,208H245v5h77Z" fill="#c8c8c8"/><path d="M253,232H226v5h27Z" fill="#c8c8c8"/><path d="M274,245H245v5h29Z" fill="#c8c8c8"/><path d="M319,245H280v5h39Z" fill="#c8c8c8"/><path d="M337,258H246v5h91Z" fill="#c8c8c8"/><polygon points="337 140 264 140 262 140 262 155.273 262 164 264 164 264 155 337 155 337 140" fill="#bad80a"/><polygon points="351 228 276 228 276 229.087 276 243.217 276 253 278 253 278 243 351 243 351 228" fill="#0078d7"/><polygon points="548 202 473 202 473 203.087 473 217.217 473 227 475 227 475 217 548 217 548 202" fill="#9080cf"/><path d="M432.783,77.709l-.545.723Z" fill="#532881"/><circle cx="569" cy="64.5" r="7.071" fill="#0078d7"/><circle cx="547" cy="64.5" r="7.071" fill="#b38a62"/><circle cx="525" cy="64.5" r="7.071" fill="#f08400"/><circle cx="503" cy="64.5" r="7.071" fill="#9080cf"/><circle cx="481" cy="64.5" r="7.071" fill="#0078d7"/><path d="M487.38,67.533a8.514,8.514,0,0,0-4.346-1.8,3.981,3.981,0,0,0,1.2-2.9,3.27,3.27,0,1,0-6.468,0,3.974,3.974,0,0,0,1.221,2.918,8.245,8.245,0,0,0-4.319,1.883,7.06,7.06,0,0,0,12.712-.1Z" fill="#99bcd7"/><path d="M509.38,67.533a8.514,8.514,0,0,0-4.346-1.8,3.981,3.981,0,0,0,1.2-2.9,3.27,3.27,0,1,0-6.468,0,3.974,3.974,0,0,0,1.221,2.918,8.245,8.245,0,0,0-4.319,1.883,7.06,7.06,0,0,0,12.712-.1Z" fill="#99bcd7"/><path d="M531.38,67.533a8.514,8.514,0,0,0-4.346-1.8,3.981,3.981,0,0,0,1.2-2.9,3.27,3.27,0,1,0-6.468,0,3.974,3.974,0,0,0,1.221,2.918,8.245,8.245,0,0,0-4.319,1.883,7.06,7.06,0,0,0,12.712-.1Z" fill="#ffa940"/><path d="M553.38,67.533a8.514,8.514,0,0,0-4.346-1.8,3.981,3.981,0,0,0,1.2-2.9,3.27,3.27,0,1,0-6.468,0,3.974,3.974,0,0,0,1.221,2.918,8.245,8.245,0,0,0-4.319,1.883,7.06,7.06,0,0,0,12.712-.1Z" fill="#f8d5b9"/><path d="M575.38,67.533a8.514,8.514,0,0,0-4.346-1.8,3.981,3.981,0,0,0,1.2-2.9,3.27,3.27,0,1,0-6.468,0,3.974,3.974,0,0,0,1.221,2.918,8.245,8.245,0,0,0-4.319,1.883,7.06,7.06,0,0,0,12.712-.1Z" fill="#69afe5"/><path d="M595.84,8H586V18h9.84A1.16,1.16,0,0,1,597,19.16V285.84a1.16,1.16,0,0,1-1.16,1.16H585v10h10.84A11.161,11.161,0,0,0,607,285.84V19.16A11.161,11.161,0,0,0,595.84,8Z" fill="#414042"/><path d="M198.528,224.173c-1.11-4-2.469-6.941-6.111-8.09-1.408-.443-5.363-1.482-10.713-2.791V252.1l11.289,36.686,5.975.715H215.1Z" fill="#deecf9"/><path d="M150.059,122.215c-14.636-11.91-37.007-7.529-47.965-3.466-4.314.76-9.333,4.261-11.677,6.668-2.433,2.5-15.814,18.069-19.334,23.666,0,0,13.089,9.487,16.834,13.5,2.736-3.208,6.378-5.515,8.832-8.159,2.623,29.31-4.86,69.341-4.86,69.341s9.781,2.94,29.444-2.265c15.4-4.077,26.687-18.426,26.687-18.426s4.3-37.6,2.039-52.774c7.927,8.38,14.722,12,14.722,12s6.539-23.954,1.532-27.639C159.434,129.6,152.092,123.869,150.059,122.215Z" fill="#ffcb40"/><path d="M96.749,154.424c2.623,29.31-4.86,69.341-4.86,69.341s6.3-16.819,6.528-16.765c5.666-21.5,2.633-50.047,1.833-56.125-.833-6.333-2.917-5.208-6.083-1.542-2.071,2.4-6.769,7.066-9.779,10.017a43.814,43.814,0,0,1,3.529,3.233A89.721,89.721,0,0,0,96.749,154.424Z" fill="#fda84c"/><path d="M168.188,159.345A72.824,72.824,0,0,1,155.667,146.5c-6-8.333-6.834-2.5-5.608,3.8,7.927,8.38,14.722,12,14.722,12A43.728,43.728,0,0,0,168.188,159.345Z" fill="#fda84c"/><path d="M168.711,185.806a4.981,4.981,0,0,0-2.553-1.248l-49.4-8.234a4.918,4.918,0,0,0-5.038,2.344L96.741,203.626a1.7,1.7,0,0,1-1.739.809l-28.638-4.773-.2,1.19a1.683,1.683,0,0,0,1.384,1.937l30.187,5.031,51.918,8.653,19.7-30.071Z" fill="#e6e6e6"/><path d="M168.75,186.155l-50.234-8.372a3.962,3.962,0,0,0-4.056,1.884L99.18,205.392a4.129,4.129,0,0,1-4.229,1.963l-3.575-.6,59.6,9.933a2.744,2.744,0,0,0,2.81-1.305l16.02-26.968a1.512,1.512,0,0,0-1.052-2.264" fill="#c2c2c2"/><polygon points="155.386 212.71 100.287 203.527 99.642 204.613 154.741 213.796 155.386 212.71" fill="#d2d2d2"/><polygon points="136.31 196.246 137.51 194.262 134.336 193.733 133.138 195.717 136.31 196.246" fill="#fff"/><polygon points="137.12 196.381 139.993 196.86 141.191 194.876 138.319 194.397 137.12 196.381" fill="#fff"/><polygon points="135.886 196.948 132.714 196.419 131.516 198.404 134.687 198.932 135.886 196.948" fill="#fff"/><polygon points="136.695 197.083 135.496 199.067 138.37 199.546 139.569 197.562 136.695 197.083" fill="#fff"/><path d="M585.84,297H173.16A11.161,11.161,0,0,1,162,285.84V19.16A11.161,11.161,0,0,1,173.16,8H585.84A11.161,11.161,0,0,1,597,19.16V285.84A11.161,11.161,0,0,1,585.84,297ZM172,19.16V285.84a1.16,1.16,0,0,0,1.16,1.16H585.84a1.16,1.16,0,0,0,1.16-1.16V19.16A1.16,1.16,0,0,0,585.84,18H173.16A1.16,1.16,0,0,0,172,19.16Z" fill="#737373"/><path d="M98.359,207.922c-.161-.033-4.249-.762-4.422-.8-5.714-1.16-4.062-3.687-4.062-3.687,1.713.692,3.632,1.472,4.874,1.3,1.251-.238,1.8-.92,1.876-1.582-2.906-1.125-7.152-3.883-9.708-5.489-1.078-.678-3.835-1.425-7.738-1.653-4.36-8.886-7.679-23.181-7.679-23.181s7.96-8.16,13.155-13.256c-4.462-3.79-11.09-8.68-13.023-10.093-4.3,5.978-11.7,16.357-13.215,19.1-2.167,3.917-1.541,7.1.083,10.167,5.167,9.75,10.084,19.734,19.417,26.667.082.061.156.1.236.161C80.212,207.3,82.283,208.837,84,210c2.905.617,6.493,1.989,8.75,2.25C94.167,212.583,97.667,209.333,98.359,207.922Z" fill="#ce9c5f"/><path d="M96.687,202.906a95.772,95.772,0,0,1-9.77-5.239c-1.078-.678-3.835-1.425-7.738-1.653-4.36-8.886-7.679-23.181-7.679-23.181s7.961-8.161,13.155-13.255c-.362-.308-2.392-1.883-2.78-2.2A84.923,84.923,0,0,1,68,171c-1.509,1-1.623,2.043-.125,6.75,1.75,5.5,8.426,18.834,9.559,20.291s7.357.117,10.128,2.334a22.106,22.106,0,0,0,8.844,3.3A1.567,1.567,0,0,0,96.687,202.906Z" fill="#d8b07f"/><path d="M71.632,149.484l-1.124,1.564a69.161,69.161,0,0,1,11.74,10.911c.839-.836,1.652-1.641,2.407-2.382C80.193,155.787,73.565,150.9,71.632,149.484Z" fill="#b78651"/><path d="M107.726,88.726h0a3.594,3.594,0,0,1,1.906.365l-.387-4.311a19.251,19.251,0,0,1,38.349-3.436l1.734,19.357a14.846,14.846,0,0,1-12.689,16.015,8.745,8.745,0,0,0-2.208,3.461l-2.037,6c-.625,1.84-2.927,3.259-6.554,2.944a10.6,10.6,0,0,1-8.388-4.688,10.363,10.363,0,0,1-1.06-9.227l.913-2.5a19.187,19.187,0,0,1-6.442-11,5.612,5.612,0,0,1-5.641-4.613l-.736-4.128a3.621,3.621,0,0,1,3.24-4.243" fill="#ce9c5f"/><path d="M117.3,112.712a19.188,19.188,0,0,0,14.177,4.506s-4.531,9.664-14.64,6.148a10.363,10.363,0,0,1-.45-8.155Z" fill="#d8b07f"/><path d="M139.539,75.3c.838-2.117,4.227-3.856,4.227-3.856s4.335,3.718,4.154,13.541l1.408,15.717a14.858,14.858,0,0,1-13.473,16.126c4.335-6.831-.264-15.148-.264-15.148l3.954-.354a2.012,2.012,0,0,0,1.741-2.463l-1.652-7.52a5.4,5.4,0,0,1,2.444-5.8l-.013,0s-.222-7.673-2.526-10.245" fill="#d8b07f"/><path d="M127.749,91.255a2.07,2.07,0,1,1-2.248-1.876,2.071,2.071,0,0,1,2.248,1.876" fill="#737373"/><path d="M146.142,89.826a2.07,2.07,0,1,1-2.247-1.878,2.069,2.069,0,0,1,2.247,1.878" fill="#737373"/><path d="M129.238,106.889l12.783-1.145-2.375,1.612a7.871,7.871,0,0,1-7.416.767Z" fill="#fff"/><path d="M115.234,95.951l-3.252.292-.322-4.188a3.608,3.608,0,0,0-3.444-3.322c-.225-2.5-.447-4.972-.572-6.373-1.183-13.194,9.168-18.279,16.178-18.908a25.6,25.6,0,0,1,7.272.243,17.715,17.715,0,0,0,6.612.089l3.683-.658-.673,3.676.372.1a8.855,8.855,0,0,0,5.646-.3l-3.577,5.929a10.439,10.439,0,0,1-8.007,5l-2.726.245a5.026,5.026,0,0,1-2.093-.259l-5.295-1.839a8.451,8.451,0,0,0-9.163,2.45l-2.063,2.382a4.525,4.525,0,0,0-1.006,3.893Z" fill="#737373"/><path d="M121.038,89.139a.729.729,0,0,0,.686-.228c.026-.028,2.488-2.723,5.745-2.07l.023,0h0a.728.728,0,0,0,.288-1.428l-.029-.005c-4.085-.818-6.993,2.392-7.115,2.53a.728.728,0,0,0,.4,1.2" fill="#737373"/><path d="M140.83,86.334a.726.726,0,0,0,.533-.1c2.832-1.8,6.091-.133,6.12-.117a.728.728,0,1,0,.677-1.289c-.166-.086-4.042-2.065-7.577.176a.729.729,0,0,0,.247,1.329" fill="#737373"/><path d="M233.531,140.456c-.728-1.2-2.953-.909-3.664-.706,1.854-1.584-2-2.939-5.084-.3,1.049-1.7-.618-2.2-4.374-.5C212.6,142.482,213,145.331,209.475,147c-.1.007-.2.01-.3.021-8.844.931-22.781-.027-27.674-.417v15.365c7.076-.953,23.1-3.257,29.892-5.441a21.448,21.448,0,0,0,9.588-2.2A78.649,78.649,0,0,1,230,150.95c.339-1.5-1.1-2.494-4.035-2a7.926,7.926,0,0,1,3.444-2.743c3.1-1.241,2.64-2.864,1.3-3.532C231.771,142.366,233.81,141.43,233.531,140.456Z" fill="#deecf9"/><path d="M200,82h-6v5h6Z" fill="#c8c8c8"/><path d="M200,95h-6v5h6Z" fill="#c8c8c8"/><path d="M200,107h-6v5h6Z" fill="#c8c8c8"/><path d="M200,120h-6v5h6Z" fill="#c8c8c8"/><path d="M200,133h-6v5h6Z" fill="#c8c8c8"/><path d="M200,169h-6v5h6Z" fill="#c8c8c8"/><path d="M200,183h-6v5h6Z" fill="#c8c8c8"/><path d="M200,195h-6v5h6Z" fill="#c8c8c8"/><path d="M200,208h-6v5h6Z" fill="#c8c8c8"/><path d="M200,219h-6v5h6Z" fill="#c8c8c8"/><path d="M200,232h-6v5h6Z" fill="#c8c8c8"/><path d="M200,245h-6v5h6Z" fill="#c8c8c8"/><path d="M200,258h-6v5h6Z" fill="#c8c8c8"/><path d="M200,144h-6v5h6Z" fill="#c8c8c8"/><path d="M200,157h-6v5h6Z" fill="#c8c8c8"/><path d="M444,205h18a0,0,0,0,1,0,0v.416A3.584,3.584,0,0,1,458.416,209H444a0,0,0,0,1,0,0v-4A0,0,0,0,1,444,205Z" fill="#b5b5b5"/><path d="M406.664,214.689A59.669,59.669,0,1,0,347,155.02,59.669,59.669,0,0,0,406.664,214.689Z" fill="#9080cf"/><path d="M378.75,169.422c0,31.517-2.854,36.786-2.854,36.786a57.535,57.535,0,0,0,31.062,8.688,65.585,65.585,0,0,0,18.063-3.031c5.375-2.063,7.022-2.844,7.022-2.844v-39.6Z" fill="#5c2d90"/><path d="M446.961,190.73l-5.178-36.2a15.833,15.833,0,0,0-15.837-13.5H385.291a15.918,15.918,0,0,0-15.673,13.5c-1.812,10.924-5.91,41.865-5.91,41.865A57.32,57.32,0,0,0,377,206.917c69.838-6.51,68.8-14.856,68.8-14.856a1.184,1.184,0,0,0,.882-.4,1.167,1.167,0,0,0,.284-.928Z" fill="#c4986c"/><path d="M445.466,178.886l-3.526-24.294a15.906,15.906,0,0,0-15.9-13.561H385.2a15.872,15.872,0,0,0-15.736,13.561l-3.512,24.294Z" fill="#5c2d90"/><path d="M417.171,137.963v-11.8H394.188v11.8a2.974,2.974,0,0,1-.236,1.171,3.034,3.034,0,0,1-.679.994,3.132,3.132,0,0,1-1.018.665,3.22,3.22,0,0,1-1.206.238h-2.328a16.284,16.284,0,0,0,4.99,11.69,17.4,17.4,0,0,0,24.09,0,16.284,16.284,0,0,0,4.99-11.69h-2.48a3.245,3.245,0,0,1-1.2-.236,3.178,3.178,0,0,1-1.02-.667,3.034,3.034,0,0,1-.679-.994A2.967,2.967,0,0,1,417.171,137.963Z" fill="#c4986c"/><path d="M417.171,128.305v-3.5H394.188V138.48C409.9,138.814,417.171,128.305,417.171,128.305Z" fill="#b38a62"/><path d="M433.394,176.182H379.316v16.223h54.078Z" fill="#fff"/><path d="M428.4,142.383h-4.633a16.789,16.789,0,0,1-9.947,15.182l3.258,18.617h16.318v2.7H445.5l-3.4-23.426a15.752,15.752,0,0,0-13.7-13.077Z" fill="#532881"/><path d="M422.95,141.031h-.169a17.185,17.185,0,0,1-9.989,15.5,17.144,17.144,0,0,0,10.158-15.5Z" fill="#b08961"/><path d="M433.394,176.182h-17.57l.7,2.7h16.871Z" fill="#e5e5e5"/><path d="M448.378,160H378.627a3.618,3.618,0,0,0-2.562,1.079A3.708,3.708,0,0,0,375,163.672v40.874C375,208,383,209,383,209h65.378a3.478,3.478,0,0,0,1.4-.257,3.559,3.559,0,0,0,1.185-.79A3.617,3.617,0,0,0,452,205.341v-41.68a3.631,3.631,0,0,0-1.039-2.614,3.579,3.579,0,0,0-1.185-.79A3.494,3.494,0,0,0,448.378,160Z" fill="#d6d6d6"/><path d="M381.631,209H451v-4h-75.6C375.405,206.952,378.8,209,381.631,209Z" fill="#707070"/><path d="M414.819,180.238h-2.7v2.7h2.7Z" fill="#b5b5b5"/><path d="M418.523,180.238h-2.7v2.7h2.7Z" fill="#b5b5b5"/><path d="M414.819,184.293h-2.7V187h2.7Z" fill="#b5b5b5"/><path d="M418.523,184.293h-2.7V187h2.7Z" fill="#b5b5b5"/><path d="M421.227,209.98v-3.809a1.918,1.918,0,0,0-1.987-2.025,2.005,2.005,0,0,0-2.069,2.025v3.809Z" fill="#c4986c"/><path d="M425.283,209.98v-5.3a1.954,1.954,0,0,0-2.137-2.047,2.105,2.105,0,0,0-1.919,2.047v5.3Z" fill="#c4986c"/><path d="M433.394,209.974v-5.133a1.957,1.957,0,0,0-1.873-2.039,2.229,2.229,0,0,0-2.182,1.875v5.3Z" fill="#c4986c"/><path d="M429.339,209.98v-6.3a2.136,2.136,0,0,0-.569-1.43,1.932,1.932,0,0,0-1.4-.554,1.9,1.9,0,0,0-2.082,1.815v6.472Z" fill="#c4986c"/><path d="M417.167,209c0,2.167-.039,3.609,1.625,4.771,2,1.333,7.433,2.072,10.276.409l7.474-5.18Z" fill="#c4986c"/><path d="M450.97,205.666V163.11c-.012-1.3-.678-3.152-3.745-3.152h3.332a2.873,2.873,0,0,1,3.117,3.152v42.557c.034,2.271-.986,3.309-3.117,3.333h-3.332C448.217,208.7,450.97,208,450.97,205.666Z" fill="#b5b5b5"/><path d="M434.456,106.4a26.9,26.9,0,1,1-1.268-10.426A26.9,26.9,0,0,1,434.456,106.4Z" fill="#7a4622"/><path d="M399.12,135.24c-9.5-.835-16.5-11.018-15.837-20.684l1.669-22.843,37.5,2.849-1.664,22.843C419.949,129.58,408.634,135.908,399.12,135.24Z" fill="#c4986c"/><path d="M397.287,117.408a1.149,1.149,0,0,1-.538-.108,1.174,1.174,0,0,1-.429-.343,1.187,1.187,0,0,1-.225-.5,1.169,1.169,0,0,1,.03-.548,1.5,1.5,0,0,1,.5-1.015,23.233,23.233,0,0,0,2.668-6.661l.163-1.163a4.44,4.44,0,0,0-4-5.178l-11.172-.835-.17,3.333-.5,6.673-.338,3.5a20.6,20.6,0,0,0,9.339,18.516,10.811,10.811,0,0,0,1.337.666l4.161-11a6.236,6.236,0,0,1,2.663-2.832l3.667-2Z" fill="#b38a62"/><path d="M406.616,123.9c-1.832,3.344-4.833,5.511-8,5.348a8.674,8.674,0,0,1-6.994-6.51Z" fill="#ee4d5a"/><path d="M406.616,123.9a7.244,7.244,0,0,1-7.828,3.847c-3.333-.169-6-1.331-7.163-5.009Z" fill="#fff"/><path d="M408.117,110.233a2.017,2.017,0,0,1,4.009.332,1.738,1.738,0,0,1-.834,1.5l-2.663-.163a1.948,1.948,0,0,1-.512-1.664Z"/><path d="M387.783,108.733a2.095,2.095,0,0,1,4.174.332,1.991,1.991,0,0,1-.829,1.5l-2.678-.332a1.623,1.623,0,0,1-.667-1.5Z"/><path d="M427.625,103.725a6.517,6.517,0,0,1-1,11.517Z" fill="#c4986c"/><path d="M430.125,114.729a1.945,1.945,0,0,1-.683,1.4,1.89,1.89,0,0,1-.7.378,1.925,1.925,0,0,1-.791.069,2.064,2.064,0,0,1-1.332-.666l.169-3.012a2.687,2.687,0,0,1,1.5-.5,2.03,2.03,0,0,1,1.331.672,1.837,1.837,0,0,1,.509,1.664Z" fill="#fbb615"/><path d="M393.458,89.721s6.661,15.849,28.162,17.181l2.328-14.85Z" fill="#7a4622"/><path d="M396.621,90.053l-9.673-.835-2.328,2.5-.5,2.173-.835,10.175C397.461,100.223,396.621,90.053,396.621,90.053Z" fill="#7a4622"/><path d="M438.618,85.558a12.274,12.274,0,1,1-.574-4.764A12.292,12.292,0,0,1,438.618,85.558Z" fill="#7a4622"/></svg>