<svg width="500" height="190" viewBox="0 0 500 190" fill="none" xmlns="http://www.w3.org/2000/svg">
<path d="M113.024 46.4989C112.767 44.9572 111.481 43.6724 109.938 43.4154C108.266 43.03 106.723 43.8009 105.822 44.9572C105.051 45.8565 103.893 45.4711 103.893 44.5717L103.765 32.4946L91.1617 32.6231C91.1617 32.6231 91.1617 32.6231 91.0331 32.6231C90.1329 32.6231 89.7471 33.7794 90.6473 34.5503C91.6762 35.3212 92.3192 36.4775 92.3192 37.7623C92.3192 39.9465 90.5187 41.7452 88.3325 41.7452C86.1463 41.7452 84.3458 39.9465 84.3458 37.7623C84.3458 36.4775 84.8602 35.4497 85.7604 34.6788C86.5321 34.0364 86.2749 32.6231 85.3746 32.6231C85.3746 32.6231 85.3746 32.6231 85.246 32.6231H72L72.2572 62.6874L95.92 62.5589V66.9272C96.0486 70.1392 99.1351 72.7088 102.35 72.7088H106.98V67.955H102.35C101.707 67.955 100.936 67.3126 100.936 66.5418V62.4304H103.893L103.765 50.2248C103.765 49.3255 105.179 49.0685 105.822 49.8394C106.594 50.7388 107.623 51.2527 108.909 51.2527C111.481 51.2527 113.41 49.0685 113.024 46.4989Z" fill="#D2D2D2"/>
<path d="M278.664 74.636V93.651C278.664 94.0364 278.921 94.2933 279.307 94.2933H279.95C280.336 94.2933 280.593 94.0364 280.593 93.651V73.8651C279.821 74.122 279.178 74.379 278.664 74.636Z" fill="#D2D2D2"/>
<path d="M423.984 183.715H139.773C137.073 183.715 134.758 181.531 134.758 178.704C134.758 175.878 136.944 173.694 139.773 173.694H423.984C426.685 173.694 429 175.878 429 178.704C429 181.531 426.814 183.715 423.984 183.715Z" fill="#E2E2E2"/>
<path d="M144.917 169.325C147.49 170.867 153.019 170.353 153.019 170.353L150.705 157.891L144.917 169.325Z" fill="#F57800"/>
<path d="M249.857 170.482C248.957 170.867 248.056 171.124 247.156 171.381V182.045C247.799 182.173 248.442 182.302 249.085 182.559C253.972 183.844 260.531 182.302 260.659 176.52C260.788 170.61 257.187 167.655 249.857 170.482Z" fill="#939393"/>
<path d="M249.471 170.61C248.699 170.996 247.928 171.253 247.156 171.51V182.045C247.671 182.173 248.314 182.302 248.828 182.559C252.943 183.844 258.73 182.43 258.73 176.649C258.73 170.867 255.773 167.912 249.471 170.61Z" fill="#C2C2C2"/>
<path d="M253.715 169.582C252.3 174.208 254.101 178.833 255.901 181.916C257.573 180.889 258.73 179.218 258.859 176.52C258.859 172.28 257.187 169.582 253.715 169.582Z" fill="#B2B2B2"/>
<path d="M248.7 173.18L253.329 172.152C253.329 172.152 253.072 174.979 249.857 175.493C247.671 175.878 248.7 176.906 248.957 176.906C249.214 176.906 252.943 175.493 254.229 178.576C252.429 179.218 248.957 178.833 248.957 178.833L248.7 173.18Z" fill="#939393"/>
<path d="M225.551 153.522C225.551 153.522 248.057 154.422 250.114 155.964C252.172 157.505 255.001 161.874 252.943 164.957C250.886 168.041 240.598 173.308 237.383 173.951C234.167 174.593 224.908 171.51 224.908 170.996C225.037 170.353 169.095 153.266 169.095 153.266L172.696 149.925L225.551 153.522Z" fill="#235A89"/>
<path d="M228.509 154.293C234.039 159.689 236.868 163.03 246.899 169.711C252.3 173.308 253.201 183.972 244.842 182.687C230.824 180.375 218.607 172.409 218.607 172.409L228.509 154.293Z" fill="#3A6D97"/>
<path d="M149.804 163.415C150.447 170.225 154.048 180.889 158.292 181.659C162.407 182.43 170.381 181.916 178.74 181.531C187.099 181.274 226.709 172.409 228.895 171.895C231.595 171.253 233.525 166.627 233.653 162.901C233.91 159.176 230.952 154.422 226.837 153.908C222.722 153.394 187.871 151.852 184.141 151.21C180.412 150.567 174.625 151.21 174.625 151.21C174.625 151.21 163.308 156.092 158.164 158.019C153.663 159.818 149.804 163.415 149.804 163.415Z" fill="#45779E"/>
<path d="M206.389 131.424L200.602 122.559C198.159 124.615 194.301 127.056 191.6 128.726C193.143 131.809 195.715 135.921 198.545 138.747C203.56 143.63 226.066 151.21 226.323 151.338C226.58 151.467 229.409 147.355 229.409 147.355L206.389 131.424Z" fill="#AD6D57"/>
<path d="M224.137 146.842C224.137 146.842 206.775 141.959 198.673 138.747C203.689 143.63 226.194 151.21 226.451 151.338C226.709 151.467 229.538 147.355 229.538 147.355L225.551 144.529C224.651 146.071 224.137 146.842 224.137 146.842Z" fill="#995D44"/>
<path d="M253.458 151.852H218.864V154.807H251.014C252.3 154.807 253.458 153.651 253.458 152.366V151.852Z" fill="#3C3C3C"/>
<path d="M178.097 151.467C178.097 151.467 178.868 127.955 180.798 118.833C182.727 109.711 187.356 102.645 187.356 102.645L145.303 101.874C145.303 101.874 141.574 112.152 140.674 132.195C139.773 152.366 144.917 169.197 144.917 169.197C144.917 169.197 151.219 160.846 178.097 151.467Z" fill="#FFA940"/>
<path d="M177.454 89.4111C177.454 89.4111 184.013 91.2098 185.17 91.8522C189.414 94.4218 191.214 104.186 202.531 120.889C199.831 123.972 188.514 130.782 188.514 130.782L180.797 119.989L182.212 111.638L160.993 111.51C160.478 111.767 162.407 116.777 166.265 123.715C158.163 128.983 151.733 131.681 148.776 132.837C148.776 132.837 141.702 118.833 143.631 104.186C145.432 90.439 150.962 88.2548 152.762 87.9978C154.563 87.7409 158.421 87.0985 158.421 87.0985L177.454 89.4111Z" fill="#F57800"/>
<path d="M191.6 128.854C191.986 129.625 192.5 130.525 193.015 131.424C195.844 129.497 199.573 126.927 201.76 124.486L200.602 122.687C198.159 124.615 194.301 127.056 191.6 128.854Z" fill="#995D44"/>
<path d="M208.704 143.116C207.29 142.859 199.316 147.227 197.13 147.227C194.944 147.227 173.339 139.904 173.339 139.904C173.339 139.904 167.294 131.424 163.951 125.257C159.964 127.698 156.492 129.497 153.662 130.782C158.163 139.647 166.137 149.925 169.48 150.696C187.613 154.422 200.345 151.724 200.345 151.724C200.345 151.724 203.689 152.109 204.975 152.238C206.261 152.366 208.576 151.981 208.576 151.981C208.576 151.981 211.533 152.623 213.848 152.623C216.163 152.623 219.507 151.724 219.893 151.21C220.278 150.696 220.278 148.769 220.278 148.769C220.278 148.769 209.99 143.244 208.704 143.116Z" fill="#AD6D57"/>
<path d="M164.98 127.056C164.594 126.413 164.208 125.771 163.822 125.128C159.835 127.57 156.363 129.368 153.534 130.653C154.048 131.681 154.563 132.709 155.206 133.608C157.906 132.066 161.764 129.754 164.98 127.056Z" fill="#995D44"/>
<path d="M221.05 150.182C219.893 150.054 218.478 149.668 217.578 149.54C215.777 149.283 211.533 147.484 211.533 147.484C211.533 147.484 209.604 149.411 207.933 149.154C206.261 148.897 200.088 149.797 198.545 149.925C197.13 150.182 177.582 151.724 168.323 150.054C168.709 150.182 168.966 150.31 169.223 150.439C187.356 154.165 200.088 151.981 200.088 151.981C200.088 151.981 203.431 151.852 204.717 151.981C206.003 152.109 208.318 151.724 208.318 151.724C208.318 151.724 211.276 152.366 213.591 152.366C215.906 152.366 219.25 151.467 219.635 150.953C219.893 150.953 221.05 150.182 221.05 150.182Z" fill="#995D44"/>
<path d="M184.141 154.679H218.992V151.852H181.312C181.312 153.394 182.598 154.679 184.141 154.679Z" fill="#3C3C3C"/>
<path d="M265.032 109.197H230.181L218.092 151.852L252.429 151.981L253.458 151.852C254.744 151.724 255.773 150.953 256.159 149.668L267.347 111.895C267.604 110.482 266.833 109.197 265.032 109.197Z" fill="#737373"/>
<path d="M267.218 110.867C267.09 109.968 266.189 109.197 265.032 109.197H230.181L229.795 110.739H267.218V110.867Z" fill="#939393"/>
<path d="M230.052 109.197L217.449 152.109L218.478 151.981C219.764 151.852 220.793 151.081 221.179 149.797L232.367 112.024C232.624 110.482 231.853 109.197 230.052 109.197Z" fill="#B2B2B2"/>
<path d="M172.181 45.0857C179.126 59.6039 182.341 72.8373 181.312 77.9765C180.54 81.9593 179.383 83.5011 175.911 84.4004C170.124 85.9422 164.336 81.4454 162.407 79.2612C160.478 77.2056 156.749 72.0664 156.749 72.0664C156.749 72.0664 155.849 75.0214 153.791 69.8822C151.733 64.743 148.904 51.5096 154.434 47.3983C159.964 43.2869 172.181 45.0857 172.181 45.0857Z" fill="#995D44"/>
<path d="M169.352 63.8437C168.838 62.9443 167.68 60.8886 167.037 59.4754C166.78 58.9615 166.266 58.7045 165.623 58.833C163.436 59.3469 157.778 60.7602 154.048 60.7602C154.048 60.7602 152.762 61.6595 151.862 62.8158C152.376 65.6424 153.148 68.0835 153.791 69.7537C155.849 74.8929 156.749 71.9379 156.749 71.9379C156.749 71.9379 160.478 77.0771 162.407 79.1328C162.665 79.3897 162.793 79.5182 163.05 79.7752C165.494 76.6916 169.738 70.6531 169.738 70.6531C169.738 70.6531 172.181 67.6981 172.438 66.4133C172.824 65.257 170.124 65.257 169.352 63.8437Z" fill="#AD6D57"/>
<path d="M171.795 48.2976C171.795 48.2976 162.536 51.6381 158.292 52.9229C153.92 54.2077 157.778 65.6424 157.778 65.6424C157.778 65.6424 157.263 67.4411 156.363 65.8993C153.534 61.531 152.119 64.4861 152.119 64.4861C152.119 64.4861 144.789 54.0792 152.119 48.1692C156.878 44.4432 167.037 43.2869 169.609 42.3876C172.31 41.4882 176.296 46.1135 171.795 48.2976Z" fill="black"/>
<path d="M164.722 75.9208C164.722 75.9208 164.979 84.4004 164.079 85.0428C163.05 85.6852 158.421 86.97 158.421 86.97C158.421 86.97 163.179 98.9186 171.924 99.6895C180.669 100.46 177.454 89.4111 177.454 89.4111L173.339 88.2548L174.367 79.9036L164.722 75.9208Z" fill="#995D44"/>
<path d="M172.567 71.9379C173.982 71.5524 175.911 71.167 176.682 71.424C175.525 73.2227 173.21 74.636 168.837 73.4796C169.223 72.7088 171.152 72.3233 172.567 71.9379ZM181.183 77.8479C181.569 76.1777 181.312 73.4796 180.669 70.2676L178.354 70.91C176.811 68.5974 174.239 68.7259 171.41 69.4968C168.58 70.2676 166.78 71.167 166.651 74.122L159.578 76.0492C160.478 77.2055 161.507 78.4903 162.279 79.2612C164.208 81.3169 169.866 85.8137 175.782 84.4004C179.254 83.501 180.412 81.9593 181.183 77.8479Z" fill="black"/>
<path d="M228.38 171.253C220.021 168.683 211.276 171.253 204.589 173.437C197.773 175.621 209.219 167.141 209.219 167.141C209.219 167.141 176.682 179.09 165.237 178.448C153.791 177.805 155.077 171.51 155.077 171.51C155.077 171.51 161.25 158.148 173.467 153.394C161.121 157.891 154.306 162.131 150.319 164.957C151.219 171.767 154.434 181.017 158.421 181.788C162.536 182.559 170.509 182.045 178.869 181.66C187.228 181.403 226.837 172.537 229.023 172.024C229.281 172.024 229.409 171.895 229.666 171.767C229.152 171.51 228.766 171.381 228.38 171.253Z" fill="#346993"/>
<path d="M204.332 177.291C204.075 180.118 206.904 184.358 212.305 183.201C217.706 182.045 221.95 182.559 227.223 183.844C232.496 185 239.569 183.458 239.569 177.548C239.569 171.638 235.582 168.812 227.866 171.638C220.021 174.465 216.163 174.593 211.662 173.437C207.161 172.281 204.589 174.85 204.332 177.291Z" fill="#B2B2B2"/>
<path d="M204.332 177.291C204.075 180.118 206.775 184.358 211.662 183.201C216.549 182.045 220.664 182.559 225.423 183.844C230.181 185.128 236.868 183.458 236.868 177.548C236.868 171.638 233.139 168.812 225.937 171.638C218.735 174.465 215.134 174.208 210.762 173.051C206.647 171.767 204.589 174.85 204.332 177.291Z" fill="#939393"/>
<path d="M213.462 93.651H221.95L217.578 78.8758L213.462 93.651Z" fill="#D2D2D2"/>
<path d="M215.263 79.9036C215.52 80.9315 216.42 81.7024 217.449 81.7024C218.735 81.7024 219.764 80.6745 219.764 79.3897C219.764 79.0043 219.635 78.7473 219.507 78.3619L215.263 79.9036Z" fill="#D2D2D2"/>
<path d="M312.743 91.3383C317.857 91.3383 322.003 87.1967 322.003 82.0878C322.003 76.9789 317.857 72.8372 312.743 72.8372C307.63 72.8372 303.484 76.9789 303.484 82.0878C303.484 87.1967 307.63 91.3383 312.743 91.3383Z" fill="#D2D2D2" stroke="#E6E6E6" stroke-width="1.0775" stroke-miterlimit="10"/>
<path d="M308.757 81.8308L312.229 85.1713L317.759 78.1049" stroke="white" stroke-width="0.8081" stroke-miterlimit="10"/>
<path d="M257.316 88.5118C256.287 88.5118 255.258 87.9979 254.873 86.97C254.23 85.5567 254.744 83.8865 256.159 83.2441L300.398 61.1456C301.812 60.5032 303.613 60.7602 304.384 62.3019C305.027 63.7152 304.256 65.3854 302.97 66.0278L258.731 88.1263C258.216 88.3833 257.83 88.5118 257.316 88.5118Z" fill="#C2C2C2" stroke="#E6E6E6" stroke-width="0.5387" stroke-miterlimit="10"/>
<path d="M257.702 87.227C258.625 87.227 259.373 86.4792 259.373 85.5567C259.373 84.6343 258.625 83.8865 257.702 83.8865C256.778 83.8865 256.03 84.6343 256.03 85.5567C256.03 86.4792 256.778 87.227 257.702 87.227Z" fill="#E6E6E6"/>
<path d="M272.234 79.9036C273.157 79.9036 273.905 79.1559 273.905 78.2334C273.905 77.311 273.157 76.5632 272.234 76.5632C271.31 76.5632 270.562 77.311 270.562 78.2334C270.562 79.1559 271.31 79.9036 272.234 79.9036Z" fill="#E6E6E6"/>
<path d="M286.766 72.7088C287.689 72.7088 288.438 71.961 288.438 71.0385C288.438 70.1161 287.689 69.3683 286.766 69.3683C285.842 69.3683 285.094 70.1161 285.094 71.0385C285.094 71.961 285.842 72.7088 286.766 72.7088Z" fill="#E6E6E6"/>
<path d="M301.298 65.5139C302.221 65.5139 302.97 64.7661 302.97 63.8437C302.97 62.9212 302.221 62.1734 301.298 62.1734C300.374 62.1734 299.626 62.9212 299.626 63.8437C299.626 64.7661 300.374 65.5139 301.298 65.5139Z" fill="#E6E6E6"/>
<path d="M203.303 84.2719L202.917 83.1156L230.824 72.9657L231.21 74.1221L203.303 84.2719Z" fill="#D2D2D2"/>
<path d="M299.112 59.3469C307.857 54.9786 312.872 60.6317 312.872 64.1006C312.872 67.5696 312.872 68.212 312.872 68.212" stroke="#D2D2D2" stroke-width="0.75" stroke-miterlimit="10" stroke-dasharray="1 1"/>
<path d="M106.851 72.5803C108.13 72.5803 109.166 71.5449 109.166 70.2676C109.166 68.9904 108.13 67.955 106.851 67.955C105.573 67.955 104.536 68.9904 104.536 70.2676C104.536 71.5449 105.573 72.5803 106.851 72.5803Z" fill="#B2B2B2"/>
<path d="M251.529 61.6595V66.1563C251.529 66.2848 251.4 66.5417 251.143 66.5417L248.699 67.4411C248.185 67.6981 248.185 68.212 248.828 68.3405L254.358 69.8822C255.001 70.0107 255.001 70.5246 254.487 70.7816L248.699 72.9657C248.185 73.2227 248.185 73.7366 248.828 73.8651L254.358 75.4068C255.001 75.5353 255.001 76.0492 254.487 76.3062L248.699 78.4904C248.185 78.7473 248.185 79.2612 248.828 79.3897L254.872 81.1884" stroke="#D2D2D2" stroke-miterlimit="10"/>
<path d="M264.903 35.1927C264.903 27.227 258.216 20.9315 250.114 21.5739C243.298 22.0878 237.768 27.6124 237.511 34.5503C237.254 38.6617 238.926 42.5161 241.626 45.2141C244.07 47.5268 245.356 50.8672 245.356 54.3362V54.5932H256.93V54.3362C256.93 50.8672 258.345 47.5268 260.917 45.0857C263.489 42.3876 264.903 38.9186 264.903 35.1927Z" fill="#D2D2D2"/>
<path d="M263.232 41.8737C264.389 39.9465 265.032 37.6338 265.032 35.1927C265.032 27.227 258.345 20.9315 250.243 21.5739C248.185 21.7024 246.256 22.3448 244.584 23.2441L263.232 41.8737Z" fill="#D2D2D2"/>
<path d="M249.471 38.1478V37.1199L249.343 34.6788C249.343 33.2655 248.185 32.1092 246.771 32.1092C245.356 32.1092 244.198 33.2655 244.198 34.6788V34.8073C244.198 35.8351 244.842 36.863 245.87 37.2484H245.999C246.899 37.6338 247.671 37.8908 248.571 38.0193L249.214 57.9336H250.243L249.471 38.1478ZM246.128 36.0921C245.485 35.8351 245.099 35.1927 245.099 34.5503C245.099 33.651 245.742 33.0086 246.642 33.0086C247.542 33.0086 248.185 33.651 248.185 34.5503L248.314 36.863C247.542 36.606 246.899 36.4775 246.128 36.0921Z" fill="white"/>
<path d="M255.773 31.9807C254.229 31.9807 253.072 33.137 253.072 34.5503L252.943 36.9914C251.915 37.1199 251.014 37.1199 249.986 37.1199V38.1478C250.886 38.2762 251.915 38.1478 252.815 38.0193L252.172 57.6767H253.201L253.844 37.8908V36.863L253.972 34.5503C253.972 33.651 254.615 33.0086 255.515 33.0086C256.416 33.0086 257.059 33.651 257.059 34.5503V34.6788C257.059 35.3212 256.673 35.8351 256.158 36.0921C255.644 36.349 255.258 36.4775 254.744 36.606V37.7623C255.387 37.6338 256.03 37.3769 256.673 37.1199C257.702 36.7345 258.345 35.7066 258.345 34.6788V34.5503C258.473 33.137 257.316 31.9807 255.773 31.9807Z" fill="white"/>
<path d="M245.484 54.0792V60.6317C245.484 61.5311 246.256 62.3019 247.156 62.3019H249.471V63.8437H252.943V62.3019H255.258C256.158 62.3019 256.93 61.5311 256.93 60.6317V54.0792H245.484Z" fill="#C2C2C2"/>
<path d="M254.744 56.0064H245.484V57.2912H254.744V56.0064Z" fill="#E6E6E6"/>
<path d="M254.744 58.9615H245.484V60.2463H254.744V58.9615Z" fill="#E6E6E6"/>
<path d="M250.757 27.9979C250.886 6.41327 227.223 2.4304 228.252 72.0664" stroke="#D2D2D2" stroke-width="0.75" stroke-miterlimit="10" stroke-dasharray="1 1"/>
<path d="M251.143 27.9979V53.5653" stroke="white" stroke-width="0.75" stroke-miterlimit="10" stroke-dasharray="1 1"/>
<path d="M339.364 170.739C339.364 170.739 332.034 167.141 330.619 166.37C329.205 165.6 327.147 165.728 325.089 168.298C323.032 170.867 318.016 178.961 315.959 180.118C313.901 181.146 341.293 176.52 341.55 176.392C341.679 176.263 339.364 170.739 339.364 170.739Z" fill="#F4A34A"/>
<path d="M321.103 181.788C324.512 181.788 327.276 179.027 327.276 175.621C327.276 172.215 324.512 169.454 321.103 169.454C317.693 169.454 314.93 172.215 314.93 175.621C314.93 179.027 317.693 181.788 321.103 181.788Z" fill="#4393D4"/>
<path d="M415.111 164.572C404.051 154.55 395.178 147.098 384.761 149.026C371.901 151.338 358.269 153.522 355.311 145.685C352.482 135.407 347.981 129.882 344.894 127.056C342.708 124.872 341.55 124.101 337.307 125.642C334.863 126.542 332.677 127.698 329.719 129.111C329.719 129.497 329.59 130.139 329.076 131.039C325.99 132.709 322.903 133.865 319.559 135.535C318.531 136.049 318.145 137.206 318.531 138.105C320.202 141.959 325.089 145.428 329.333 144.272C334.349 142.987 336.406 142.987 336.406 142.987L341.808 156.734C341.808 156.734 340.779 158.662 338.978 163.158C337.178 167.655 338.207 170.482 338.207 170.482C338.335 173.694 338.85 173.565 337.821 173.822C336.792 174.079 313.515 177.034 313.515 177.034C313.515 177.034 310.043 175.749 307.599 176.649C305.156 177.548 304.256 182.302 305.799 182.302C307.342 182.302 335.635 182.302 343.48 182.302C349.91 182.302 352.867 179.989 354.411 178.319H354.539C354.539 178.319 361.355 180.246 371.643 179.347C381.932 178.448 396.206 179.218 400.193 178.319C404.18 177.42 406.495 167.141 406.495 167.141C406.495 167.141 414.211 169.839 415.111 174.593C415.883 178.833 412.668 181.403 405.594 180.76C396.592 179.861 392.734 181.916 390.805 183.587C388.876 185.257 390.548 185.514 394.02 184.101C399.036 182.045 402.379 183.201 411.124 183.844C420.898 184.486 423.985 172.666 415.111 164.572Z" fill="#F9B76E"/>
<path d="M355.373 145.175L339.996 152.362L341.141 154.806L356.517 147.619L355.373 145.175Z" fill="white"/>
<path d="M333.32 130.268C332.934 130.525 332.548 131.167 332.677 131.681C332.805 132.452 333.577 133.094 334.349 132.966C335.12 132.837 335.635 132.195 335.635 131.424C334.992 131.167 334.091 130.782 333.32 130.268Z" fill="#917861"/>
<path d="M334.477 139.904H334.606C334.735 140.032 334.606 140.032 334.606 140.161C334.606 140.161 331.134 143.244 325.99 143.886C325.861 143.886 325.861 143.886 325.732 143.758C325.732 143.63 325.732 143.63 325.861 143.501C331.005 142.987 334.349 139.904 334.477 139.904Z" fill="#DEB695"/>
<path d="M366.757 182.43C366.757 182.43 367.271 176.52 372.415 176.906C377.431 177.291 383.603 177.677 383.603 177.677C383.603 177.677 377.816 168.683 380.388 162.259C382.189 157.762 386.433 155.064 395.435 158.148C399.164 159.433 403.923 163.158 406.752 168.555C408.81 172.409 410.353 177.934 406.237 180.632C397.364 179.861 394.406 181.531 392.606 182.302C382.317 182.302 372.801 182.173 372.801 182.173C372.801 182.173 370.229 182.687 369.071 182.816C367.657 183.073 366.757 182.43 366.757 182.43Z" fill="#F4A34A"/>
<path d="M343.351 127.441C342.065 127.313 340.779 127.441 339.75 127.827C339.879 128.084 339.879 128.212 340.007 128.469C341.036 131.681 340.907 135.664 340.264 140.931C339.364 148.64 348.495 150.696 349.652 144.657C351.196 137.077 346.823 130.91 343.351 127.441Z" fill="#F4A34A"/>
<path d="M319.559 135.407C318.531 135.921 318.145 137.077 318.531 137.976C319.174 139.39 320.202 140.803 321.488 141.831C329.976 139.647 329.333 133.094 328.819 131.039C325.861 132.709 322.903 133.865 319.559 135.407Z" fill="#F4A34A"/>
<path d="M318.659 137.976C319.174 139.261 319.174 139.261 320.203 140.289C322.26 139.518 322.517 137.077 320.588 134.893C320.074 135.15 320.203 135.15 319.688 135.278C318.659 135.921 318.145 137.077 318.659 137.976Z" fill="#917861"/>
<path d="M316.216 176.649C314.544 176.906 313.515 177.034 313.515 177.034C313.515 177.034 310.043 175.749 307.599 176.649C305.156 177.548 304.256 182.302 305.799 182.302C306.313 182.302 309.143 182.302 313.258 182.302C314.158 179.604 315.187 177.805 316.216 176.649Z" fill="#F4A34A"/>
<path d="M344.894 161.36C354.539 161.36 354.668 175.621 354.668 175.621C354.668 175.621 356.983 167.141 353.639 162.773C350.038 158.276 344.894 161.36 344.894 161.36Z" fill="#F4A34A"/>
<path d="M208.833 67.0557H203.946V65.1285C203.946 63.4582 202.66 61.6595 200.731 61.6595H198.673C195.201 61.4026 192.372 58.576 192.372 54.9786C192.372 51.2527 195.33 48.2976 199.059 48.2976H202.146C203.174 48.2976 203.946 47.5268 203.946 46.4989C203.946 45.4711 203.174 44.8287 202.146 44.8287H198.931C195.33 44.8287 192.372 41.8737 192.372 38.1477C192.372 34.4218 195.33 31.4668 199.059 31.4668H202.146C203.174 31.4668 203.946 30.6959 203.946 29.6681C203.946 28.6403 203.174 27.8694 202.146 27.8694H195.458V22.9872H202.146C205.875 22.9872 208.833 25.9422 208.833 29.6681C208.833 33.394 205.875 36.349 202.146 36.349H199.059C198.03 36.349 197.259 37.1199 197.259 38.1477C197.259 39.1756 198.03 39.9465 199.059 39.9465H202.146C205.875 39.9465 208.833 42.9015 208.833 46.6274C208.833 50.3533 205.875 53.3083 202.146 53.3083H199.059C198.03 53.3083 197.259 54.0792 197.259 55.1071C197.259 56.1349 198.03 56.9058 199.059 56.9058H200.731C205.103 56.9058 208.833 60.6317 208.833 65.1285V67.0557V67.0557Z" fill="#D2D2D2"/>
<path d="M196.101 27.8694C197.451 27.8694 198.545 26.7765 198.545 25.4283C198.545 24.0801 197.451 22.9872 196.101 22.9872C194.752 22.9872 193.658 24.0801 193.658 25.4283C193.658 26.7765 194.752 27.8694 196.101 27.8694Z" fill="#C2C2C2"/>
<path d="M206.518 68.9829C207.867 68.9829 208.961 67.8899 208.961 66.5417C208.961 65.1936 207.867 64.1006 206.518 64.1006C205.168 64.1006 204.074 65.1936 204.074 66.5417C204.074 67.8899 205.168 68.9829 206.518 68.9829Z" fill="#B2B2B2"/>
<path d="M286.637 95.1927C286.38 94.0364 285.351 93.2655 284.065 93.2655H275.192C274.034 93.2655 273.005 94.0364 272.62 95.1927H286.637Z" fill="#D2D2D2"/>
<path d="M224.265 93.5225H211.276V94.4219H224.265V93.5225Z" fill="#D2D2D2"/>
<path d="M124.47 18.8758V5.6424" stroke="#D2D2D2" stroke-miterlimit="10" stroke-linecap="round" stroke-linejoin="round"/>
<path d="M118.94 37.3769L124.47 21.9593L130.257 37.3769" stroke="#D2D2D2" stroke-miterlimit="10"/>
<path d="M126.656 20.546C126.656 20.4176 126.656 20.2891 126.656 20.1606C126.656 19.0043 125.756 18.1049 124.598 18.1049C123.441 18.1049 122.541 19.0043 122.541 20.1606C122.541 20.4176 122.669 20.9315 122.669 20.9315L123.698 24.4004C123.827 24.7859 124.213 25.1713 124.598 25.1713C125.113 25.1713 125.499 24.7859 125.627 24.4004L126.656 20.546Z" fill="#D2D2D2"/>
<path d="M131.028 36.8629H118.168V37.7623H131.028V36.8629Z" fill="#C2C2C2" stroke="#C2C2C2" stroke-width="0.5" stroke-miterlimit="10"/>
<path d="M116.239 73.8651L131.672 80.803" stroke="#D2D2D2" stroke-miterlimit="10"/>
<path d="M131.8 73.9936L116.239 80.9315" stroke="#D2D2D2" stroke-miterlimit="10"/>
<path d="M133.343 73.4796H114.824V74.379H133.343V73.4796Z" fill="#C2C2C2" stroke="#C2C2C2" stroke-width="0.5" stroke-miterlimit="10"/>
<path d="M133.343 80.4176H114.824V81.3169H133.343V80.4176Z" fill="#C2C2C2" stroke="#C2C2C2" stroke-width="0.5" stroke-miterlimit="10"/>
<path d="M124.341 71.5525V39.1756" stroke="#D2D2D2" stroke-width="0.75" stroke-miterlimit="10" stroke-dasharray="1 1"/>
<path d="M206.518 64.743V76.3062" stroke="#D2D2D2" stroke-width="0.75" stroke-miterlimit="10" stroke-dasharray="1 1"/>
<path d="M134.501 19.6467H153.277" stroke="#D2D2D2" stroke-miterlimit="10"/>
<path d="M153.662 23.5011H172.438" stroke="#D2D2D2" stroke-miterlimit="10"/>
<path d="M172.824 27.3555H191.729" stroke="#D2D2D2" stroke-miterlimit="10"/>
<path d="M206.775 81.06C207.912 81.06 208.833 80.1396 208.833 79.0043C208.833 77.869 207.912 76.9486 206.775 76.9486C205.639 76.9486 204.718 77.869 204.718 79.0043C204.718 80.1396 205.639 81.06 206.775 81.06Z" fill="#FF8C00"/>
<path d="M251.4 30.5674C252.537 30.5674 253.458 29.6471 253.458 28.5118C253.458 27.3765 252.537 26.4561 251.4 26.4561C250.264 26.4561 249.343 27.3765 249.343 28.5118C249.343 29.6471 250.264 30.5674 251.4 30.5674Z" fill="#FF8C00"/>
<path d="M257.445 81.8308C258.581 81.8308 259.502 80.9105 259.502 79.7751C259.502 78.6398 258.581 77.7195 257.445 77.7195C256.308 77.7195 255.387 78.6398 255.387 79.7751C255.387 80.9105 256.308 81.8308 257.445 81.8308Z" fill="#FF8C00"/>
<path d="M312.872 70.7816C314.009 70.7816 314.93 69.8612 314.93 68.7259C314.93 67.5906 314.009 66.6702 312.872 66.6702C311.736 66.6702 310.815 67.5906 310.815 68.7259C310.815 69.8612 311.736 70.7816 312.872 70.7816Z" fill="#FF8C00"/>
<path d="M197.645 27.3555C198.159 26.97 198.545 26.1991 198.545 25.4283C198.545 24.5289 198.03 23.758 197.259 23.3726C196.487 23.6295 195.844 24.4004 195.844 25.2998C195.973 26.3276 196.616 27.227 197.645 27.3555Z" fill="#FF8C00"/>
<path d="M124.598 36.4775C125.735 36.4775 126.656 35.5572 126.656 34.4218C126.656 33.2865 125.735 32.3662 124.598 32.3662C123.462 32.3662 122.541 33.2865 122.541 34.4218C122.541 35.5572 123.462 36.4775 124.598 36.4775Z" fill="#FF8C00"/>
<path d="M164.208 22.3447C165.344 22.3447 166.266 21.4244 166.266 20.2891C166.266 19.1538 165.344 18.2334 164.208 18.2334C163.072 18.2334 162.15 19.1538 162.15 20.2891C162.15 21.4244 163.072 22.3447 164.208 22.3447Z" fill="#FF8C00"/>
<path d="M105.308 68.4689C104.794 68.8544 104.408 69.4968 104.408 70.2676C104.408 71.2955 105.051 72.0664 105.951 72.4518C106.723 72.1948 107.237 71.424 107.237 70.5246C107.237 69.4968 106.466 68.5974 105.308 68.4689Z" fill="#FF8C00"/>
<path d="M98.3635 63.2013C99.4999 63.2013 100.421 62.2809 100.421 61.1456C100.421 60.0103 99.4999 59.0899 98.3635 59.0899C97.2271 59.0899 96.3059 60.0103 96.3059 61.1456C96.3059 62.2809 97.2271 63.2013 98.3635 63.2013Z" fill="#FF8C00"/>
<path d="M93.7339 62.045C94.8703 62.045 95.7915 61.1246 95.7915 59.9893C95.7915 58.854 94.8703 57.9336 93.7339 57.9336C92.5975 57.9336 91.6763 58.854 91.6763 59.9893C91.6763 61.1246 92.5975 62.045 93.7339 62.045Z" fill="#FF8C00"/>
<path d="M101.322 59.8608C102.458 59.8608 103.379 58.9404 103.379 57.8051C103.379 56.6698 102.458 55.7495 101.322 55.7495C100.185 55.7495 99.2639 56.6698 99.2639 57.8051C99.2639 58.9404 100.185 59.8608 101.322 59.8608Z" fill="#FF8C00"/>
<path d="M89.2329 62.1734C90.3693 62.1734 91.2906 61.2531 91.2906 60.1178C91.2906 58.9824 90.3693 58.0621 89.2329 58.0621C88.0965 58.0621 87.1753 58.9824 87.1753 60.1178C87.1753 61.2531 88.0965 62.1734 89.2329 62.1734Z" fill="#FF8C00"/>
<path d="M75.6011 62.045C76.7375 62.045 77.6587 61.1246 77.6587 59.9893C77.6587 58.854 76.7375 57.9336 75.6011 57.9336C74.4647 57.9336 73.5435 58.854 73.5435 59.9893C73.5435 61.1246 74.4647 62.045 75.6011 62.045Z" fill="#FF8C00"/>
<path d="M84.7317 62.045C85.8681 62.045 86.7893 61.1246 86.7893 59.9893C86.7893 58.854 85.8681 57.9336 84.7317 57.9336C83.5953 57.9336 82.6741 58.854 82.6741 59.9893C82.6741 61.1246 83.5953 62.045 84.7317 62.045Z" fill="#FF8C00"/>
<path d="M80.1021 62.1734C81.2385 62.1734 82.1597 61.2531 82.1597 60.1178C82.1597 58.9824 81.2385 58.0621 80.1021 58.0621C78.9657 58.0621 78.0444 58.9824 78.0444 60.1178C78.0444 61.2531 78.9657 62.1734 80.1021 62.1734Z" fill="#FF8C00"/>
<path d="M91.5476 58.3191C92.684 58.3191 93.6053 57.3987 93.6053 56.2634C93.6053 55.1281 92.684 54.2077 91.5476 54.2077C90.4112 54.2077 89.49 55.1281 89.49 56.2634C89.49 57.3987 90.4112 58.3191 91.5476 58.3191Z" fill="#FF8C00"/>
<path d="M87.0466 58.3191C88.1831 58.3191 89.1043 57.3987 89.1043 56.2634C89.1043 55.1281 88.1831 54.2077 87.0466 54.2077C85.9102 54.2077 84.989 55.1281 84.989 56.2634C84.989 57.3987 85.9102 58.3191 87.0466 58.3191Z" fill="#FF8C00"/>
<path d="M82.417 58.3191C83.5534 58.3191 84.4746 57.3987 84.4746 56.2634C84.4746 55.1281 83.5534 54.2077 82.417 54.2077C81.2806 54.2077 80.3594 55.1281 80.3594 56.2634C80.3594 57.3987 81.2806 58.3191 82.417 58.3191Z" fill="#FF8C00"/>
<path d="M77.9158 58.1906C79.0522 58.1906 79.9734 57.2702 79.9734 56.1349C79.9734 54.9996 79.0522 54.0792 77.9158 54.0792C76.7794 54.0792 75.8582 54.9996 75.8582 56.1349C75.8582 57.2702 76.7794 58.1906 77.9158 58.1906Z" fill="#FF8C00"/>
<path d="M80.2307 54.4646C81.3671 54.4646 82.2884 53.5443 82.2884 52.409C82.2884 51.2737 81.3671 50.3533 80.2307 50.3533C79.0943 50.3533 78.1731 51.2737 78.1731 52.409C78.1731 53.5443 79.0943 54.4646 80.2307 54.4646Z" fill="#FF8C00"/>
<path d="M74.8294 54.8501C75.9658 54.8501 76.887 53.9297 76.887 52.7944C76.887 51.6591 75.9658 50.7387 74.8294 50.7387C73.693 50.7387 72.7717 51.6591 72.7717 52.7944C72.7717 53.9297 73.693 54.8501 74.8294 54.8501Z" fill="#FF8C00"/>
<path d="M84.8604 54.3362C85.9968 54.3362 86.918 53.4158 86.918 52.2805C86.918 51.1452 85.9968 50.2248 84.8604 50.2248C83.724 50.2248 82.8027 51.1452 82.8027 52.2805C82.8027 53.4158 83.724 54.3362 84.8604 54.3362Z" fill="#FF8C00"/>
<path d="M77.2727 51.2527C78.4091 51.2527 79.3304 50.3323 79.3304 49.197C79.3304 48.0617 78.4091 47.1413 77.2727 47.1413C76.1363 47.1413 75.2151 48.0617 75.2151 49.197C75.2151 50.3323 76.1363 51.2527 77.2727 51.2527Z" fill="#FF8C00"/>
</svg>
