<svg xmlns="http://www.w3.org/2000/svg" viewBox="0 0 636 350"><title>modal-live-share-session-inactive</title><path d="M626.585,344H97.458a2.977,2.977,0,0,1-3.223-3.083c0-1.875.708-2.834,3.223-2.917H626.585c3.742,0,3.584,3,3.584,3C629.783,342.875,629.383,344,626.585,344Z" fill="#c8c8c8"/><polygon points="483.194 333 440.37 333 430.702 292 473.526 292 483.194 333" fill="#414042"/><polygon points="474.634 333 431.81 333 425.193 292 468.017 292 474.634 333" fill="#737373"/><rect x="402.5" y="332" width="95" height="8" fill="#737373"/><rect x="464.5" y="332" width="34" height="8" fill="#505050"/><polygon points="470.497 310 467.431 291 425.174 291 428.24 310 470.497 310" fill="#5e5e5e"/><path d="M599.5,78h-328V302h328Z" fill="#b5b5b5"/><path d="M589.5,117h-308V299h308Z" fill="#e6e6e6"/><path d="M588.5,88h-63V99h63Z" fill="#fff"/><path d="M388.5,86h-107v6h107Z" fill="#939393"/><path d="M610.5,78h-171V302h171Z" fill="#939393"/><path d="M611.5,108h-172V302h172Z" fill="#b2b2b2"/><path d="M439.5,108h-168V302h10V118h158Z" fill="#939393"/><path d="M456.5,131h-5v5h5Z" fill="#939393"/><path d="M456.5,141h-5v5h5Z" fill="#939393"/><path d="M456.5,151h-5v5h5Z" fill="#939393"/><path d="M456.5,161h-5v5h5Z" fill="#939393"/><path d="M456.5,171h-5v5h5Z" fill="#939393"/><path d="M456.5,180h-5v5h5Z" fill="#939393"/><path d="M456.5,191h-5v5h5Z" fill="#939393"/><path d="M456.5,201h-5v5h5Z" fill="#939393"/><path d="M456.5,212h-5v5h5Z" fill="#939393"/><path d="M456.5,222h-5v5h5Z" fill="#939393"/><path d="M456.5,232h-5v5h5Z" fill="#939393"/><path d="M456.5,242h-5v4h5Z" fill="#939393"/><path d="M456.5,252h-5v4h5Z" fill="#939393"/><path d="M456.5,263h-5v4h5Z" fill="#939393"/><path d="M456.5,273h-5v4h5Z" fill="#939393"/><path d="M485.5,151h-14v5h14Z" fill="#939393"/><path d="M540.5,131h-70v4h70Z" fill="#939393"/><path d="M562.5,151h-73v4h73Z" fill="#939393"/><path d="M518.5,161h-47v4h47Z" fill="#939393"/><path d="M559.5,181h-71v4h71Z" fill="#939393"/><path d="M553.5,192h-82v4h82Z" fill="#939393"/><path d="M576.5,213h-105v4h105Z" fill="#939393"/><path d="M525.5,223h-54v4h54Z" fill="#939393"/><path d="M515.5,242h-26v4h26Z" fill="#939393"/><path d="M570.5,242h-50v4h50Z" fill="#939393"/><path d="M532.5,252h-61v4h61Z" fill="#939393"/><path d="M582.5,263h-111v4h111Z" fill="#939393"/><path d="M530.5,273h-40v4h40Z" fill="#939393"/><polygon points="578.5 229 517.5 229 517.5 229.639 517.5 240.498 517.5 248 519.5 248 519.5 241 578.5 241 578.5 229" fill="#939393"/><path d="M485.211,127.216l-.443.587Z" fill="#737373"/><circle cx="596" cy="116.5" r="5.5" fill="#e6e6e6"/><path d="M600.989,118.954a6.911,6.911,0,0,0-3.529-1.463,3.233,3.233,0,0,0,.975-2.353,2.655,2.655,0,1,0-5.252,0,3.229,3.229,0,0,0,.991,2.369,6.694,6.694,0,0,0-3.506,1.529,5.732,5.732,0,0,0,10.321-.082Z" fill="#c2c2c2"/><path d="M617.439,71H609.5v8h8.058a.942.942,0,0,1,.942.942V296.058a.942.942,0,0,1-.942.942H608.5v8h8.939a9.061,9.061,0,0,0,9.061-9.061V80.061A9.061,9.061,0,0,0,617.439,71Z" fill="#414042"/><path d="M609.439,305H274.561a9.061,9.061,0,0,1-9.061-9.061V80.061A9.061,9.061,0,0,1,274.561,71H609.439a9.061,9.061,0,0,1,9.061,9.061V295.939A9.061,9.061,0,0,1,609.439,305ZM273.5,79.942V296.058a.942.942,0,0,0,.942.942H609.558a.942.942,0,0,0,.942-.942V79.942a.942.942,0,0,0-.942-.942H274.442A.942.942,0,0,0,273.5,79.942Z" fill="#737373"/><path d="M402.5,131h-86v4h86Z" fill="#c2c2c2"/><path d="M386.5,151h-54v4h54Z" fill="#c2c2c2"/><path d="M409.5,161h-77v4h77Z" fill="#c2c2c2"/><path d="M344.5,192h-33v4h33Z" fill="#c2c2c2"/><path d="M377.5,192h-28v4h28Z" fill="#c2c2c2"/><path d="M425.5,213h-93v4h93Z" fill="#c2c2c2"/><path d="M395.5,233h-62v4h62Z" fill="#c2c2c2"/><path d="M338.5,252h-22v4h22Z" fill="#c2c2c2"/><path d="M356.5,263h-24v4h24Z" fill="#c2c2c2"/><path d="M392.5,263h-32v4h32Z" fill="#c2c2c2"/><path d="M407.5,273h-74v4h74Z" fill="#c2c2c2"/><polygon points="407.5 175 348.157 175 346.5 175 346.5 187.027 346.5 196 348.5 196 348.5 187 407.5 187 407.5 175" fill="#c2c2c2"/><polygon points="419.5 250 358.5 250 358.5 250.715 358.5 261.575 358.5 269 360.5 269 360.5 262 419.5 262 419.5 250" fill="#c2c2c2"/><path d="M296.5,131h-5v4h5Z" fill="#c2c2c2"/><path d="M296.5,141h-5v4h5Z" fill="#c2c2c2"/><path d="M296.5,151h-5v4h5Z" fill="#c2c2c2"/><path d="M296.5,161h-5v4h5Z" fill="#c2c2c2"/><path d="M296.5,172h-5v4h5Z" fill="#c2c2c2"/><path d="M296.5,201h-5v4h5Z" fill="#c2c2c2"/><path d="M296.5,213h-5v4h5Z" fill="#c2c2c2"/><path d="M296.5,223h-5v4h5Z" fill="#c2c2c2"/><path d="M296.5,233h-5v4h5Z" fill="#c2c2c2"/><path d="M296.5,242h-5v4h5Z" fill="#c2c2c2"/><path d="M296.5,252h-5v4h5Z" fill="#c2c2c2"/><path d="M296.5,263h-5v4h5Z" fill="#c2c2c2"/><path d="M296.5,273h-5v4h5Z" fill="#c2c2c2"/><path d="M296.5,181h-5v4h5Z" fill="#c2c2c2"/><path d="M296.5,192h-5v4h5Z" fill="#c2c2c2"/><path d="M44.6,108.1A40.214,40.214,0,1,0,4.382,67.89,40.214,40.214,0,0,0,44.6,108.1Z" fill="#c8c8c8"/><path d="M44.6,102.441A34.551,34.551,0,1,0,10.046,67.89,34.551,34.551,0,0,0,44.6,102.441Z" fill="#fff"/><path d="M45.5,67h-1v1h1Z" fill="#1b1b1b"/><path d="M46.3,66.868,46.862,68h.566Z" fill="#1b1b1b"/><path d="M45.163,68.457,44.03,69.59Z" fill="#1b1b1b"/><path d="M42.877,66l.586,1h.586l-.586-1Z" fill="#1b1b1b"/><path d="M45.5,67v1.133L46.633,67Z" fill="#1b1b1b"/><path d="M44.03,66.868,42.9,68h.567Z" fill="#1b1b1b"/><path d="M44.6,67.325l-.567.567Z" fill="#1b1b1b"/><path d="M48.5,36h-7v7h7Z" fill="#c8c8c8"/><path d="M48.5,92h-7v7h7Z" fill="#c8c8c8"/><path d="M75.5,71V64h-7v7Z" fill="#c8c8c8"/><path d="M20.5,71V64h-7v7Z" fill="#c8c8c8"/><path d="M63.106,70H44.6a.785.785,0,0,1-1.311-.062L24.505,47.721A1.717,1.717,0,1,1,27.127,45.5L45.393,67H63.106a1.9,1.9,0,0,1,1.717,1.829C64.823,69.778,64.055,70.546,63.106,70Z" fill="#f57800"/><path d="M134.7,323.315c.134,1.335-.935,5.475-.935,5.475s6.143,5.742,8.947,3.071,2.136-7.745,2.136-7.745Z" fill="#c2c2c2"/><path d="M193.722,322.514c.668,1.869,1.335,5.608,3.338,8.546,1.419,2.081,10.982-.668,9.3-3.873s-3.956-7.477-3.956-7.477Z" fill="#c2c2c2"/><path d="M133.9,327.187c-1.424,1.781-13.219,7.345-17.893,8.947-1.347.462-1.463,5.1,1.6,5.341,5.208.4,9.614,0,16.291-1.113a2.926,2.926,0,0,1,2.849,1.069l7.566-.223s1.736-8.145,1.2-13.219c-.486-4.618-2.532.865-4.006,1.468C138.574,330.659,133.9,327.187,133.9,327.187Z" fill="#737373"/><path d="M206.357,327.187c1.683,1.781,14.662,7.345,19.741,8.947,1.464.462,1.961,5.1-1.235,5.341-5.429.4-10.1,0-17.234-1.113a2.822,2.822,0,0,0-2.881,1.069l-7.974-.223s-1.411-7.823-2.652-12.285c-1.785-6.42,1.966-1.03,4.476.534C201.509,331.272,206.357,327.187,206.357,327.187Z" fill="#737373"/><path d="M194.078,265.1s-6.766-12.819-9.614-39.168c-3.762-34.8-13-58.681-12.908-56.928l-53.545.4C110.9,195.313,126.143,273.451,129,285.833c0,0-1.75,9.813.333,17.167a92.406,92.406,0,0,1,2.959,22.458s10.833,1.959,13.359.884c2.073-.882,4.986-36.676,4.629-44.154s-2.848-23.857-2.848-23.857.631-28.722,1.246-44.154c6.74,13.785,14.065,35.964,14.065,35.964s6.41,22.077,10.326,33.827,18.128,38.581,20.264,41.074,12.273.855,14.142-1.549C203.558,312.1,194.078,265.1,194.078,265.1Z" fill="#2f60e0"/><path d="M132.225,325.426c.407.075,1.962.359,3.888.663l.016,0c.315.05.639.1.969.15l.018,0c-.3-12.521-7.576-28.1-4.283-36.712,3.471-9.08-4.006-38.189-6.143-56.883s-3.2-40.86,4.273-44.866c6.257-3.352,31.759-9.878,43.051-12.077-.733-2.238-1.346-3.918-1.777-4.977-.387-.138-54.226-.839-54.226-.839C110.9,195.8,123,273.667,125,285.5c0,0-.167,12.667,2.358,21.9,2.94,10.753,4.763,18.009,4.763,18.009l.1.019Z" fill="#2c4e9b"/><path d="M161.138,229.037c-.087-.133-.179-.259-.264-.394-8.647-13.661-12.452-23-12.018-13.442,6.74,13.785,13.887,35.43,13.887,35.43s6.41,22.077,10.326,33.827,17.582,37.967,19.718,40.459c.75.876,2.561,1.31,4.667,1.41-4.739-7.046-12.06-28.814-12.545-45.074C184.432,265.275,174.794,250.782,161.138,229.037Z" fill="#2c4e9b"/><path d="M172.758,85.767c0-3.2.289-8.123-6.009-8.479-11.426-.646-25.771-3.434-42.729.2-9.347,2-14.051,14.9-20.03,39.525-2.982,12.285-1.023,39.858,2.537,44.131s14.689,2.537,14.689,2.537Z" fill="#737373"/><path d="M152.555,77.755S174.3,78.67,180.1,82.3c8.546,5.341,14.421,34.451,14.421,34.451l-6.142,9.08L175.3,117.28s-1.335,40.059,2.4,55.548c-19.762,1.335-45.934,9.614-65.963.534,7.478-17.893,1.335-46.468,1.335-46.468l-20.3-11.751s17.964-29.152,24.569-33.115C128.026,75.619,145.038,78.824,152.555,77.755Z" fill="#f57800"/><path d="M176.978,132.606c3.632-4.339,12.318-19.4-2.934-53.011-.507-1.119-.685-1.573-1.553-1.639l-5.675-.6c-1.044.117-1.762.446-1.269,1.535,13.165,29.061,6.618,43.3,3.871,46.8a2.054,2.054,0,0,0,.567,2.6l3.821,3.838C174.835,133.163,176.323,133.389,176.978,132.606Z" fill="#505050"/><polygon points="135.469 146 163.385 146 161.095 153.39 136.718 148.321 135.469 146" fill="#c2c2c2"/><path d="M165.945,152.775,135.469,146.1l-.181.578a2.366,2.366,0,0,0,2.023,2.894l23.269,5.1C162.4,154.6,164.861,154,165.945,152.775Z" fill="#737373"/><path d="M161.228,151.689c1.227,1.051.764,3.334-.491,3.311h47c1.527,0,2.765-.684,2.765-1.528v-1.44S160,150.639,161.228,151.689Z" fill="#505050"/><path d="M210.382,152H162.321c-1.544,0-2.682-1.21-2.319-2.467l12.31-43A2.343,2.343,0,0,1,174.631,105h48.061c1.544,0,2.682,1.21,2.319,2.467L212.7,150.472A2.343,2.343,0,0,1,210.382,152Z" fill="#939393"/><path d="M162.363,150.63l12.337-43.1A2.347,2.347,0,0,1,177.023,106h47.592a2.233,2.233,0,0,0-1.933-1H174.717a2.342,2.342,0,0,0-2.318,1.528l-12.31,43c-.363,1.257.774,2.467,2.319,2.467h.148C162.2,151.778,162.251,151.052,162.363,150.63Z" fill="#b2b2b2"/><path d="M206.854,153.885l-8.525-10.919a1.951,1.951,0,0,0-2.838-.285,2.083,2.083,0,0,0-.417.513,1.944,1.944,0,0,0-2.56-.476,2.144,2.144,0,0,0-.936,2.311,1.94,1.94,0,0,0-2.448-.394,2.147,2.147,0,0,0-.958,2.359,1.938,1.938,0,0,0-2.162-.347A2.154,2.154,0,0,0,185,149.439L187.4,155h-5.832c.217.154,7.206,5.107,8.7,6.287a2.962,2.962,0,0,0,3.564.012,2.843,2.843,0,0,1,2.3-.124,2.894,2.894,0,0,0,2.761-.762c1.133-.742,2.435-.28,3.421-.918a2.705,2.705,0,0,0,1.008-1.21,2.38,2.38,0,0,1,2.288-1.232A1.841,1.841,0,0,0,206.854,153.885Z" fill="#d8b07f"/><path d="M113.071,126.9c.011.054,6.135,28.59-1.336,46.466a42.032,42.032,0,0,0,5.949,2.159c11.259-27.136-2.477-51.031-2.477-51.031Z" fill="#db6505"/><path d="M113.2,149.282l-2-7.433a3.149,3.149,0,0,1,.031-2.787c3.758-6.756,17.69-33.071,14.985-60.068a1.788,1.788,0,0,1,1.541-1.968l4.94-.638a1.781,1.781,0,0,1,2,1.568c3.093,30-14.935,64.491-19.05,71.771C115.158,150.6,113.605,150.262,113.2,149.282Z" fill="#505050"/><path d="M137.484,115.878c-.624-.394,2.777-1.769-.006-4.088-.841-.7,2.753-2.643-.2-4.235-1.1-.592-1.5-.927-1.3-1.49.808-2.325-1.992-2.468-1.992-2.468l-7.654,2.589a45.62,45.62,0,0,0,1.156-6.532c0-3.2-3.2-4.273-3.2-2.136,0,1.376-4.273,8.545-4.273,8.545l-1.747,9.609-10.676,8.05-13.037-7.6c-7.477,9.614-11.305,23.234-10.5,25.815,1.306,4.207,7.95,9.823,11.395,8.1,7.322-3.661,22.867-19.6,27.844-24.761l.632-.037c5.288-.81,12.742-5.15,13.9-6.394S138.933,116.791,137.484,115.878Z" fill="#d8b07f"/><path d="M94.554,116.123q-.748.963-1.468,1.928c3.213,2.581,10.815,8.309,10.815,8.309l3.69-2.638Z" fill="#ba874f"/><path d="M149.722,94.289c7.653.5,14.187-4.1,14.594-10.28a9.539,9.539,0,0,0-1.337-5.469c-5.662-.584-10.424-.785-10.424-.785-3.4.483-8.741.1-14.559.117a9.378,9.378,0,0,0-1.4,4.312C136.2,88.366,142.069,93.785,149.722,94.289Z" fill="#db6505"/><path d="M142,64.67c-.083,5.341-1.948,9.689-1.685,14.868.562,11.04,17.492,11.948,19.652,5.152,2.246-7.066,2.246-9.421,2.246-9.421Z" fill="#d8b07f"/><path d="M146.253,87.83c-1.136-5,3.137-13.546,6.66-17.436L142,64.67c-.083,5.341-1.948,9.689-1.685,14.868A9.364,9.364,0,0,0,146.253,87.83Z" fill="#ce9c5f"/><path d="M137.821,40.3h0a3.84,3.84,0,0,1,1.836.961l.936-4.527A20.565,20.565,0,0,1,180.87,45.07L176.663,65.4c-1.717,8.3-9.594,13.412-17.922,12.457-11.253-1.289-21.138-8.87-21.723-23.307-.119-2.927-4.689-3.51-4.344-6.46l.522-4.448a3.868,3.868,0,0,1,4.625-3.338" fill="#ce9c5f"/><path d="M174.5,36.4c1.511-1.906,5.513-2.637,5.513-2.637s3.285,5.142.065,15.13L176.664,65.4a15.871,15.871,0,0,1-18.759,12.328c6.543-5.646,4.409-15.571,4.409-15.571l4.153.859a2.149,2.149,0,0,0,2.541-1.981l.634-8.2a5.772,5.772,0,0,1,4.289-5.173l-.012-.005s2.142-7.916.581-11.258" fill="#d8b07f"/><path d="M158.212,52.381a2.211,2.211,0,1,1-1.719-2.613,2.212,2.212,0,0,1,1.719,2.613" fill="#737373"/><path d="M177.462,56.6a2.211,2.211,0,1,1-1.717-2.614,2.211,2.211,0,0,1,1.717,2.614" fill="#737373"/><path d="M154.208,65.523,167.633,68.3l-2.926.915a8.406,8.406,0,0,1-7.82-1.507Z" fill="#fff"/><path d="M143.267,50.012l-3.416-.706.964-4.383a3.855,3.855,0,0,0-2.5-4.461c.541-2.621,1.079-5.222,1.384-6.694,2.866-13.857,15.022-15.859,22.384-14.337a27.315,27.315,0,0,1,7.362,2.495,18.935,18.935,0,0,0,6.734,2.133l3.968.464-1.823,3.552.348.222a9.451,9.451,0,0,0,5.866,1.439L179.053,34.7a11.151,11.151,0,0,1-9.734,2.641l-2.863-.592a5.356,5.356,0,0,1-2.06-.91l-4.847-3.517a9.026,9.026,0,0,0-10.127-.325l-2.845,1.8a4.833,4.833,0,0,0-2.232,3.67Z" fill="#737373"/><path d="M151.063,46.961a.78.78,0,0,0,.772-.021c.035-.021,3.385-2.016,6.514-.343l.022.012h0a.778.778,0,0,0,.734-1.371l-.027-.014c-3.925-2.1-7.89.286-8.057.389a.778.778,0,0,0,.039,1.347" fill="#737373"/><path d="M172.169,50.206a.781.781,0,0,0,.576.064c3.45-.962,6.269,1.745,6.294,1.771a.778.778,0,1,0,1.09-1.11c-.143-.139-3.5-3.36-7.8-2.16a.778.778,0,0,0-.157,1.435" fill="#737373"/></svg>