<svg width="500" height="190" viewBox="0 0 500 190" fill="none" xmlns="http://www.w3.org/2000/svg">
<path d="M392.252 168.192H95.2437C92.4202 168.192 90 165.904 90 162.943C90 160.117 92.2857 157.694 95.2437 157.694H392.387C395.21 157.694 397.63 159.982 397.63 162.943C397.496 165.904 395.21 168.192 392.252 168.192Z" fill="#E2E2E2"/>
<path d="M100.488 153.117C103.177 154.733 108.958 154.194 108.958 154.194L106.538 141.138L100.488 153.117Z" fill="#F57800"/>
<path d="M210.202 154.329C209.261 154.733 208.319 155.002 207.378 155.271V166.443C208.05 166.577 208.723 166.712 209.395 166.981C214.504 168.327 221.361 166.712 221.496 160.655C221.63 154.463 217.866 151.368 210.202 154.329Z" fill="#939393"/>
<path d="M209.798 154.463C208.992 154.867 208.185 155.136 207.378 155.406V166.443C207.916 166.577 208.588 166.712 209.126 166.981C213.429 168.327 219.479 166.846 219.479 160.79C219.613 154.733 216.387 151.637 209.798 154.463Z" fill="#C2C2C2"/>
<path d="M214.235 153.387C212.756 158.232 214.639 163.078 216.521 166.308C218.269 165.231 219.479 163.481 219.614 160.655C219.614 156.213 217.866 153.387 214.235 153.387Z" fill="#B2B2B2"/>
<path d="M208.992 157.155L213.832 156.079C213.832 156.079 213.563 159.04 210.202 159.578C207.916 159.982 208.992 161.059 209.261 161.059C209.529 161.059 213.429 159.578 214.773 162.808C212.891 163.481 209.261 163.078 209.261 163.078L208.992 157.155Z" fill="#939393"/>
<path d="M184.79 136.562C184.79 136.562 208.319 137.504 210.471 139.119C212.622 140.734 215.58 145.311 213.429 148.541C211.277 151.771 200.521 157.29 197.16 157.963C193.798 158.636 184.118 155.406 184.118 154.867C184.252 154.194 125.765 136.293 125.765 136.293L129.529 132.793L184.79 136.562Z" fill="#235A89"/>
<path d="M187.882 137.369C193.664 143.023 196.622 146.522 207.109 153.521C212.756 157.29 213.698 168.462 204.958 167.116C190.303 164.693 177.53 156.348 177.53 156.348L187.882 137.369Z" fill="#3A6D97"/>
<path d="M105.597 146.791C106.269 153.925 110.034 165.097 114.471 165.904C118.773 166.712 127.109 166.173 135.849 165.77C144.588 165.366 186 156.213 188.286 155.675C191.109 155.002 193.126 150.156 193.261 146.253C193.529 142.35 190.437 137.369 186.134 136.831C181.832 136.293 145.395 134.678 141.496 134.005C137.597 133.332 131.546 134.005 131.546 134.005C131.546 134.005 119.714 139.119 114.336 141.138C109.63 143.157 105.597 146.791 105.597 146.791Z" fill="#45779E"/>
<path d="M164.756 113.411L158.706 104.124C156.151 106.277 152.118 108.835 149.294 110.584C150.908 113.815 153.597 118.122 156.555 121.083C161.798 126.198 185.328 134.139 185.597 134.274C185.866 134.408 188.824 130.101 188.824 130.101L164.756 113.411Z" fill="#AD6D57"/>
<path d="M183.311 129.563C183.311 129.563 165.16 124.448 156.689 121.083C161.933 126.198 185.462 134.139 185.731 134.274C186 134.408 188.958 130.101 188.958 130.101L184.79 127.14C183.849 128.755 183.311 129.563 183.311 129.563Z" fill="#995D44"/>
<path d="M213.966 134.812H177.798V137.908H211.412C212.756 137.908 213.966 136.696 213.966 135.351V134.812Z" fill="#3C3C3C"/>
<path d="M135.177 134.408C135.177 134.408 135.983 109.777 138 100.22C140.017 90.664 144.857 83.2611 144.857 83.2611L100.891 82.4535C100.891 82.4535 96.9917 93.2213 96.0505 114.219C95.1093 135.216 100.487 152.983 100.487 152.983C100.487 152.983 107.076 144.234 135.177 134.408Z" fill="#FFA940"/>
<path d="M134.504 69.3975C134.504 69.3975 141.361 71.2818 142.571 71.9548C147.008 74.6468 148.891 84.8762 160.723 102.374C157.899 105.604 146.067 112.738 146.067 112.738L138 101.432L140.151 88.7796L116.084 88.645C115.546 88.9142 117.832 97.7976 122.672 105.201C114.202 110.719 107.479 113.546 104.387 114.757C104.387 114.757 96.9916 100.086 99.0084 84.7416C100.891 70.3397 106.672 68.0515 108.555 67.7823C110.437 67.5131 114.471 66.8401 114.471 66.8401L134.504 69.3975Z" fill="#F57800"/>
<path d="M149.294 110.719C149.698 111.527 150.235 112.469 150.773 113.411C153.731 111.392 157.63 108.7 159.916 106.143L158.706 104.258C156.151 106.277 152.118 108.835 149.294 110.719Z" fill="#995D44"/>
<path d="M167.177 125.659C165.698 125.39 157.361 129.967 155.076 129.967C152.79 129.967 130.202 122.295 130.202 122.295C130.202 122.295 123.882 113.411 120.387 106.95C116.219 109.508 112.588 111.392 109.63 112.738C114.336 122.025 122.672 132.793 126.168 133.601C145.126 137.504 158.437 134.678 158.437 134.678C158.437 134.678 161.933 135.081 163.277 135.216C164.756 135.351 167.042 134.947 167.042 134.947C167.042 134.947 170.135 135.62 172.555 135.62C174.975 135.62 178.471 134.678 178.874 134.139C179.277 133.601 179.277 131.582 179.277 131.582C179.277 131.582 168.521 125.794 167.177 125.659Z" fill="#AD6D57"/>
<path d="M121.462 108.835C121.059 108.162 120.656 107.489 120.252 106.816C116.084 109.373 112.454 111.257 109.496 112.603C110.034 113.68 110.571 114.757 111.244 115.699C114.067 114.084 118.101 111.661 121.462 108.835Z" fill="#995D44"/>
<path d="M180.084 133.062C178.874 132.928 177.395 132.524 176.454 132.389C174.572 132.12 170.135 130.236 170.135 130.236C170.135 130.236 168.118 132.255 166.37 131.986C164.622 131.716 158.168 132.659 156.555 132.793C155.076 133.062 134.773 134.678 125.093 133.062C125.496 133.197 125.765 133.332 126.034 133.466C144.992 137.369 158.303 135.081 158.303 135.081C158.303 135.081 161.798 134.947 163.143 135.081C164.622 135.216 166.908 134.812 166.908 134.812C166.908 134.812 170 135.485 172.42 135.485C174.84 135.485 178.336 134.543 178.74 134.005C178.874 133.87 180.084 133.062 180.084 133.062Z" fill="#995D44"/>
<path d="M141.496 137.773H177.933V134.812H138.538C138.538 136.427 139.882 137.773 141.496 137.773Z" fill="#3C3C3C"/>
<path d="M226.067 90.1256L189.63 90.2602L176.992 134.947L212.891 135.081L213.966 134.947C215.311 134.812 216.387 134.005 216.79 132.659L228.487 93.0867C228.756 91.4715 227.95 90.1256 226.067 90.1256Z" fill="#737373"/>
<path d="M228.353 91.8753C228.219 90.9332 227.277 90.1256 226.067 90.1256L189.63 90.2602L189.227 91.8753H228.353V91.8753Z" fill="#939393"/>
<path d="M189.496 90.1256L176.319 135.081L177.395 134.947C178.74 134.812 179.815 134.005 180.218 132.659L191.916 93.0867C192.185 91.4715 191.378 90.1256 189.496 90.1256Z" fill="#B2B2B2"/>
<path d="M128.992 22.9612C136.252 38.1707 139.614 52.0343 138.538 57.4183C137.731 61.5908 136.521 63.206 132.891 64.1482C126.84 65.7633 120.79 61.0524 118.773 58.7642C116.756 56.6107 112.857 51.2268 112.857 51.2268C112.857 51.2268 111.916 54.3225 109.765 48.9386C107.614 43.5547 104.656 29.5565 110.437 25.2493C116.219 20.9422 128.992 22.9612 128.992 22.9612Z" fill="#995D44"/>
<path d="M126.034 42.6125C125.496 41.6703 124.286 39.5167 123.614 38.0361C123.345 37.4978 122.807 37.2286 122.135 37.3632C119.849 37.9015 113.933 39.3821 110.034 39.3821C110.034 39.3821 108.689 40.3243 107.748 41.5357C108.286 44.4969 109.093 47.0542 109.765 48.804C111.916 54.1879 112.857 51.0922 112.857 51.0922C112.857 51.0922 116.756 56.4761 118.773 58.6296C119.042 58.8988 119.177 59.0334 119.446 59.3026C122 56.0723 126.437 49.7462 126.437 49.7462C126.437 49.7462 128.992 46.6504 129.261 45.3044C129.664 44.0931 126.84 44.0931 126.034 42.6125Z" fill="#AD6D57"/>
<path d="M128.588 26.3261C128.588 26.3261 118.908 29.8257 114.471 31.1716C110.034 32.5176 113.933 44.4968 113.933 44.4968C113.933 44.4968 113.395 46.3812 112.454 44.766C109.496 40.1897 108.017 43.2855 108.017 43.2855C108.017 43.2855 100.353 32.383 108.017 26.1915C112.992 22.1536 123.613 21.0768 126.302 20.1346C128.992 19.1924 133.294 24.0379 128.588 26.3261Z" fill="black"/>
<path d="M121.193 55.2647C121.193 55.2647 121.462 64.1481 120.521 64.8211C119.446 65.4941 114.605 66.8401 114.605 66.8401C114.605 66.8401 119.58 79.3577 128.723 80.1653C137.866 80.9729 134.504 69.3975 134.504 69.3975L130.202 68.1861L131.277 59.4372L121.193 55.2647Z" fill="#995D44"/>
<path d="M129.395 51.0921C130.874 50.6883 132.891 50.2846 133.698 50.5538C132.487 52.4381 130.067 53.9187 125.496 52.7073C125.899 51.8997 127.916 51.4959 129.395 51.0921ZM138.403 57.2837C138.807 55.5339 138.538 52.7073 137.866 49.3424L135.445 50.0154C133.832 47.5926 131.143 47.7272 128.185 48.5348C125.227 49.3424 123.345 50.2846 123.21 53.3803L115.815 55.3993C116.756 56.6107 117.832 57.9566 118.639 58.7642C120.656 60.9178 126.571 65.6287 132.756 64.1481C136.387 63.206 137.597 61.5908 138.403 57.2837Z" fill="black"/>
<path d="M187.748 155.136C179.008 152.444 169.866 155.136 162.874 157.425C155.748 159.713 167.714 150.829 167.714 150.829C167.714 150.829 133.698 163.347 121.731 162.674C109.765 162.001 111.109 155.406 111.109 155.406C111.109 155.406 117.563 141.407 130.336 136.427C117.429 141.138 110.303 145.58 106.135 148.541C107.076 155.675 110.437 165.366 114.605 166.173C118.908 166.981 127.244 166.443 135.983 166.039C144.723 165.635 186.135 156.482 188.42 155.944C188.689 155.944 188.824 155.809 189.093 155.675C188.555 155.406 188.151 155.271 187.748 155.136Z" fill="#346993"/>
<path d="M162.605 161.463C162.336 164.424 165.294 168.865 170.941 167.654C176.588 166.443 181.025 166.981 186.538 168.327C192.051 169.538 199.446 167.923 199.446 161.732C199.446 155.54 195.277 152.579 187.21 155.54C179.143 158.501 174.975 158.636 170.269 157.425C165.294 156.079 162.874 158.905 162.605 161.463Z" fill="#B2B2B2"/>
<path d="M162.605 161.463C162.336 164.424 165.16 168.865 170.269 167.654C175.378 166.443 179.681 166.981 184.655 168.327C189.765 169.538 196.622 167.923 196.622 161.732C196.622 155.54 192.723 152.579 185.193 155.54C177.664 158.501 173.899 158.232 169.328 157.021C165.025 155.675 162.874 158.905 162.605 161.463Z" fill="#939393"/>
<path d="M325.294 154.06C325.294 154.06 317.63 150.291 316.151 149.483C314.672 148.676 312.521 148.81 310.37 151.502C308.218 154.194 302.975 162.674 300.823 163.885C298.672 164.962 327.311 160.117 327.58 159.982C327.849 159.847 325.294 154.06 325.294 154.06Z" fill="#F4A34A"/>
<path d="M306.202 165.635C309.766 165.635 312.655 162.743 312.655 159.174C312.655 155.606 309.766 152.714 306.202 152.714C302.637 152.714 299.748 155.606 299.748 159.174C299.748 162.743 302.637 165.635 306.202 165.635Z" fill="#4393D4"/>
<path d="M404.487 147.599C392.924 137.1 383.647 129.294 372.756 131.313C359.311 133.735 345.059 136.023 341.966 127.813C339.008 117.045 334.302 111.257 331.076 108.296C328.79 106.008 327.58 105.201 323.143 106.816C320.588 107.758 318.302 108.969 315.21 110.45C315.21 110.854 315.076 111.527 314.538 112.469C311.311 114.219 308.084 115.43 304.588 117.18C303.513 117.718 303.109 118.93 303.513 119.872C305.26 123.91 310.37 127.544 314.807 126.332C320.05 124.986 322.202 124.986 322.202 124.986L327.849 139.388C327.849 139.388 326.773 141.407 324.891 146.118C323.008 150.829 324.084 153.79 324.084 153.79C324.218 157.155 324.756 157.021 323.681 157.29C322.605 157.559 298.269 160.655 298.269 160.655C298.269 160.655 294.639 159.309 292.084 160.251C289.529 161.193 288.588 166.173 290.202 166.173C291.815 166.173 321.395 166.173 329.597 166.173C336.319 166.173 339.412 163.751 341.025 162.001H341.16C341.16 162.001 348.286 164.02 359.042 163.078C369.798 162.136 384.723 162.943 388.891 162.001C393.059 161.059 395.479 150.291 395.479 150.291C395.479 150.291 403.546 153.117 404.487 158.098C405.294 162.539 401.933 165.231 394.538 164.558C385.126 163.616 381.092 165.77 379.076 167.519C377.059 169.269 378.807 169.538 382.437 168.058C387.681 165.904 391.176 167.116 400.319 167.789C410.538 168.462 413.765 156.079 404.487 147.599Z" fill="#F9B76E"/>
<path d="M342.042 127.274L325.966 134.803L327.162 137.363L343.238 129.834L342.042 127.274Z" fill="white"/>
<path d="M318.975 111.661C318.571 111.93 318.168 112.603 318.302 113.142C318.437 113.949 319.244 114.622 320.05 114.488C320.857 114.353 321.395 113.68 321.395 112.873C320.723 112.603 319.781 112.2 318.975 111.661Z" fill="#917861"/>
<path d="M320.185 121.756H320.319C320.454 121.891 320.319 121.891 320.319 122.025C320.319 122.025 316.689 125.256 311.311 125.929C311.176 125.929 311.176 125.929 311.042 125.794C311.042 125.659 311.042 125.659 311.176 125.525C316.555 124.986 320.05 121.756 320.185 121.756Z" fill="#DEB695"/>
<path d="M353.933 166.308C353.933 166.308 354.47 160.117 359.849 160.52C365.092 160.924 371.546 161.328 371.546 161.328C371.546 161.328 365.496 151.906 368.185 145.176C370.067 140.465 374.504 137.639 383.916 140.869C387.815 142.215 392.79 146.118 395.748 151.771C397.899 155.809 399.512 161.597 395.21 164.424C385.933 163.616 382.84 165.366 380.958 166.173C370.202 166.173 360.252 166.039 360.252 166.039C360.252 166.039 357.563 166.577 356.353 166.712C354.874 166.981 353.933 166.308 353.933 166.308Z" fill="#F4A34A"/>
<path d="M329.462 108.566C328.118 108.431 326.773 108.565 325.698 108.969C325.832 109.238 325.832 109.373 325.966 109.642C327.042 113.007 326.908 117.18 326.235 122.698C325.294 130.774 334.84 132.928 336.05 126.602C337.664 118.795 333.092 112.2 329.462 108.566Z" fill="#F4A34A"/>
<path d="M304.588 117.045C303.513 117.584 303.109 118.795 303.513 119.737C304.185 121.218 305.26 122.698 306.605 123.775C315.479 121.487 314.807 114.622 314.269 112.469C311.176 114.219 308.084 115.43 304.588 117.045Z" fill="#F4A34A"/>
<path d="M303.647 119.737C304.185 121.083 304.185 121.083 305.26 122.16C307.412 121.352 307.681 118.795 305.664 116.507C305.126 116.776 305.26 116.776 304.723 116.911C303.647 117.449 303.109 118.66 303.647 119.737Z" fill="#917861"/>
<path d="M301.092 160.251C299.344 160.52 298.269 160.655 298.269 160.655C298.269 160.655 294.639 159.309 292.084 160.251C289.529 161.193 288.588 166.173 290.202 166.173C290.739 166.173 293.697 166.173 298 166.173C298.941 163.347 300.017 161.463 301.092 160.251Z" fill="#F4A34A"/>
<path d="M331.076 144.234C341.16 144.234 341.294 159.174 341.294 159.174C341.294 159.174 343.714 150.291 340.219 145.715C336.454 141.004 331.076 144.234 331.076 144.234Z" fill="#F4A34A"/>
</svg>
