<svg width="500" height="300" viewBox="0 0 500 300" fill="none" xmlns="http://www.w3.org/2000/svg">
<g clip-path="url(#clip0)">
<path d="M154.996 166.402L155.24 166.646" stroke="#B2B2B2" stroke-miterlimit="10"/>
<path d="M156.458 167.781L250.772 257.44" stroke="#B2B2B2" stroke-miterlimit="10" stroke-dasharray="1 1"/>
<path d="M251.34 257.926L251.665 258.251L251.99 258.008" stroke="#B2B2B2" stroke-miterlimit="10"/>
<path d="M253.29 257.035L342.486 189.506" stroke="#B2B2B2" stroke-miterlimit="10" stroke-dasharray="1.01 1.01"/>
<path d="M343.135 189.02L343.46 188.777" stroke="#B2B2B2" stroke-miterlimit="10"/>
<path d="M184.728 91.4969L184.89 91.9022" stroke="#B2B2B2" stroke-miterlimit="10"/>
<path d="M185.54 93.3615L251.178 257.116" stroke="#B2B2B2" stroke-miterlimit="10" stroke-dasharray="1 1"/>
<path d="M251.503 257.845L251.665 258.251L251.828 257.926" stroke="#B2B2B2" stroke-miterlimit="10"/>
<path d="M252.64 256.467L338.343 100.333" stroke="#B2B2B2" stroke-miterlimit="10" stroke-dasharray="0.99 0.99"/>
<path d="M338.749 99.6036L338.911 99.1982" stroke="#B2B2B2" stroke-miterlimit="10"/>
<path d="M264.582 78.3641V78.7695" stroke="#B2B2B2" stroke-miterlimit="10"/>
<path d="M264.501 80.3908L257.108 254.36" stroke="#B2B2B2" stroke-miterlimit="10" stroke-dasharray="1 1"/>
<path d="M257.108 255.17L257.027 255.576" stroke="#B2B2B2" stroke-miterlimit="10"/>
<path d="M353.778 82.1743L356.783 82.2553C356.783 82.2553 384.89 59.0703 385.378 58.665L357.839 37.993C356.377 36.9391 354.346 36.9391 352.965 37.993L324.939 58.665C325.345 58.9082 353.778 82.1743 353.778 82.1743Z" fill="#939393"/>
<path d="M377.336 77.7156H333.794V42.857H367.831L377.336 52.3418V77.7156Z" fill="#A4D9F7"/>
<path d="M367.912 52.3418H377.336L367.912 42.857V52.3418Z" fill="#69AFE5"/>
<path d="M371.405 55.8276H340.13V57.6922H371.405V55.8276Z" fill="white"/>
<path d="M371.405 61.4212H340.13V63.2858H371.405V61.4212Z" fill="white"/>
<path d="M371.405 67.0148H340.13V68.8793H371.405V67.0148Z" fill="white"/>
<path d="M324.939 58.665L359.139 78.5263L357.271 96.7662H327.782C326.32 96.7662 325.102 95.5502 325.02 94.01C325.102 85.3359 324.939 58.665 324.939 58.665Z" fill="#B2B2B2"/>
<path d="M385.378 58.665L352.315 78.3641L353.046 96.8473H382.534C383.997 96.8473 385.215 95.6313 385.297 94.0911C385.297 85.3359 385.378 58.665 385.378 58.665Z" fill="#B2B2B2"/>
<path d="M327.863 96.8473H353.046H357.433H382.616C383.266 96.8473 383.915 96.6041 384.322 96.1988L357.92 76.8239C356.458 75.77 354.427 75.77 353.046 76.8239L326.564 96.523C326.889 96.6852 327.376 96.8473 327.863 96.8473Z" fill="#939393"/>
<path d="M333.225 278.68C333.063 278.031 332.738 277.464 332.494 276.896C327.62 265.141 320.227 249.333 313.81 236.525L293.339 244.956C297.888 255.008 303.087 267.087 307.88 276.896C302.681 278.517 297.238 280.22 294.314 281.03C287.165 282.814 280.26 284.516 275.061 285.489C270.024 286.786 266.369 287.516 266.369 287.516C262.551 288.002 259.951 291.65 260.357 295.866C260.439 296.271 260.52 296.595 260.601 297.001H294.801C300.081 296.028 313.241 294.488 326.807 290.515C331.682 289.056 335.093 283.706 333.225 278.68Z" fill="#E1BC8F"/>
<path d="M162.957 287.597H148.985C147.685 287.597 146.548 288.489 146.141 289.705L144.354 295.947C143.786 297.811 145.248 299.676 147.197 299.676H164.744C166.694 299.676 168.075 297.811 167.587 295.947L165.8 289.705C165.475 288.489 164.338 287.597 162.957 287.597Z" fill="#333333"/>
<path d="M219.172 203.531C214.054 200.694 207.311 202.639 204.468 207.746C202.6 210.989 200.731 214.232 198.863 217.393C192.608 227.283 176.767 259.71 168.887 279.166C168.806 279.328 168.806 279.409 168.725 279.571C168.725 279.571 153.615 279.814 150.772 279.896C147.929 280.058 147.522 280.463 144.923 285.084C142.323 289.705 142.08 290.191 142.08 290.191C141.186 291.812 142.486 293.272 144.598 293.272C147.116 293.353 150.122 288.894 150.122 288.894C150.122 288.894 148.985 290.596 147.929 292.299C146.548 294.569 150.934 296.271 153.778 293.272C155.808 291.164 158.489 287.597 158.489 287.597L163.769 287.678C164.744 287.921 165.557 288.651 165.881 289.705L166.45 291.812C164.825 292.38 163.688 293.92 163.688 295.785C163.688 298.136 165.557 300 167.912 300C170.106 300 171.812 298.379 172.055 296.271C177.173 294.082 183.103 289.867 186.353 283.706C186.434 283.544 186.515 283.462 186.596 283.3C186.84 282.895 187.003 282.49 187.246 282.084C195.613 265.628 211.292 237.984 217.222 228.337C219.09 225.095 221.202 221.933 223.233 218.123C225.995 213.016 224.289 206.611 219.172 203.531Z" fill="#E1BC8F"/>
<path d="M202.031 238.795C202.031 238.795 201.95 239.038 201.787 239.362L187.733 238.227L198.294 247.145C192.689 259.467 182.453 281.598 179.772 285.651C175.954 291.245 175.061 292.218 171.974 293.677C169.131 294.974 167.425 297.649 167.831 300.081C167.912 300.081 167.912 300.081 167.993 300.081C170.187 300.081 171.893 298.46 172.136 296.352C177.254 294.163 183.184 289.948 186.434 283.787C186.515 283.625 186.596 283.544 186.677 283.381C186.921 282.976 187.084 282.571 187.327 282.165C193.42 270.168 203.331 252.414 210.56 239.849L202.031 238.795Z" fill="#CEA684"/>
<path d="M293.907 209.205C289.115 187.561 284.565 166.402 280.504 151.162C280.26 150.108 279.935 149.054 279.61 148.081C275.955 135.678 271.73 124.41 261.17 120.438C253.94 117.681 250.528 122.14 250.691 123.924C250.528 121.167 248.091 116.871 238.668 120.681C229.245 124.491 224.208 133.652 220.634 144.514C220.146 145.893 219.74 147.271 219.334 148.73C219.171 149.378 218.928 150.108 218.765 150.838C214.866 165.997 213.323 185.939 208.124 209.287H293.907V209.205Z" fill="#613D30"/>
<path d="M250.934 223.473L275.548 199.64C273.355 199.234 270.268 198.667 265.963 197.856L262.957 197.208L238.505 197.532L225.589 200.775L250.934 223.473Z" fill="#E1BC8F"/>
<path d="M251.422 208.719C243.786 208.719 237.855 204.26 237.531 196.64V186.588L264.663 186.264L264.907 197.613C264.907 203.126 258.814 208.719 251.422 208.719Z" fill="#E1BC8F"/>
<path d="M213.972 248.442C214.866 270.654 215.435 286.381 215.922 297.406H288.058C290.089 249.415 290.089 249.333 290.089 249.333C285.378 236.039 289.521 202.153 289.521 202.153L273.355 199.153C262.469 213.259 241.348 213.745 229.326 199.64C221.283 200.937 213.241 202.153 213.241 202.153C213.241 202.153 218.44 235.228 213.972 248.442Z" fill="#522C80"/>
<path d="M237.612 185.291V190.398C241.998 194.208 247.035 197.208 250.284 197.451H250.853H251.178C254.752 197.127 260.439 194.208 264.907 189.831V185.372L237.612 185.291Z" fill="#C49970"/>
<path d="M219.171 203.45C214.054 200.612 207.311 202.558 204.468 207.665C202.6 210.908 200.731 214.151 198.863 217.393C196.344 221.365 192.201 229.148 187.652 238.227L206.743 246.091C210.967 238.633 214.785 232.147 217.059 228.418C218.928 225.176 221.04 222.014 223.071 218.204C225.995 213.016 224.289 206.611 219.171 203.45Z" fill="#522C80"/>
<path d="M293.989 246.577L314.541 238.146C309.911 228.986 305.768 221.122 303.249 217.069C301.381 213.826 299.513 210.584 297.644 207.422C294.801 202.315 287.084 200.856 281.966 203.693C276.848 206.855 276.117 212.691 279.042 217.799C280.991 221.609 283.185 224.77 285.053 228.013C287.246 231.661 290.414 238.552 293.989 246.577Z" fill="#522C80"/>
<path d="M293.258 296.271H209.261C206.661 296.271 204.549 294.163 204.468 291.569L197.238 226.392C197.157 223.635 199.35 220.231 202.031 220.231H300.244C303.006 220.231 305.118 223.635 305.037 226.392L298.05 291.569C297.969 294.163 295.857 296.271 293.258 296.271Z" fill="#B3B3B3"/>
<path d="M298.457 295.136H203.818C201.219 295.136 199.025 293.109 198.944 290.596L196.913 227.445C196.832 224.77 199.025 222.581 201.787 222.581H300.406C303.168 222.581 305.361 224.77 305.28 227.445L303.249 290.596C303.249 293.109 301.056 295.136 298.457 295.136Z" fill="#7F7F7F"/>
<path d="M189.683 295.136V297.163C189.683 298.541 191.064 299.757 192.851 299.757H309.748C311.454 299.757 312.916 298.622 312.916 297.163V295.136H189.683Z" fill="#4D4C4D"/>
<path d="M264.094 258.251H239.561C238.099 258.251 236.881 257.035 236.881 255.576V251.765C236.881 250.306 238.099 249.09 239.561 249.09H264.094C265.556 249.09 266.775 250.306 266.775 251.765V255.576C266.775 257.116 265.556 258.251 264.094 258.251Z" fill="#B3B3B3"/>
<path d="M237.612 190.479C237.612 190.479 244.517 196.802 250.772 201.099C254.184 203.45 264.907 197.613 264.907 197.613V187.885L237.612 190.479Z" fill="#C49970"/>
<path d="M272.137 153.918C260.276 153.594 242.486 152.702 233.225 152.216L227.051 141.272L227.376 162.673C227.376 172.077 229.894 180.265 235.337 185.048C235.418 185.129 235.581 185.21 235.662 185.291C235.825 185.453 236.068 185.615 236.231 185.777C241.43 190.074 246.385 193.884 250.528 193.884C254.915 193.884 264.176 187.236 265.963 185.291C266.044 185.129 266.206 185.048 266.288 184.886C271.243 179.94 272.218 171.834 272.218 162.349V153.918H272.137Z" fill="#E1BC8F"/>
<path d="M256.783 171.266C256.783 172.158 256.458 172.726 255.89 173.05C254.671 173.617 253.534 173.374 252.965 174.266C252.396 175.158 251.747 175.158 251.178 175.158C250.609 175.158 249.716 175.158 249.391 174.59C248.822 173.698 247.604 173.698 246.466 173.131C245.573 172.807 245.248 172.239 245.248 171.672L256.783 171.266Z" fill="#C49970"/>
<path d="M245.248 171.591H251.178L250.853 157.485C250.528 157.485 249.066 157.485 249.066 160.403C249.066 164.214 247.279 168.348 245.816 170.131C245.248 170.942 245.248 171.266 245.248 171.591Z" fill="#E6CCB9"/>
<path d="M242.323 178.643C244.029 181.562 247.197 183.507 250.853 183.589C254.508 183.67 257.677 181.724 259.464 178.887L242.323 178.643Z" fill="white"/>
<path d="M313.891 236.849C314.135 237.255 314.297 237.66 314.541 238.065C314.297 237.66 314.135 237.255 313.891 236.849Z" fill="#CEA684"/>
<path d="M313.485 236.039C313.323 235.714 313.16 235.471 313.079 235.147C313.241 235.471 313.404 235.795 313.485 236.039Z" fill="#CEA684"/>
<path d="M333.225 278.68C333.063 278.031 332.738 277.464 332.494 276.896C327.863 265.628 320.877 250.631 314.622 238.146L304.955 242.119L304.874 244.875L314.785 242.119C319.984 255.413 327.62 275.032 328.513 279.652C329.082 282.328 328.351 284.841 324.695 286.786C323.396 287.435 311.535 291.812 300.244 295.055H306.011C310.073 294.569 319.578 292.623 326.807 290.515C331.682 289.056 335.093 283.706 333.225 278.68Z" fill="#CEA684"/>
<path d="M240.049 23.9685C240.049 9.53864 252.315 -1.97281 266.938 -0.918941C279.366 -0.0272094 289.358 10.1872 290.008 22.5904C290.414 30.2106 287.409 37.1013 282.372 41.8842C277.904 46.1807 275.548 52.1796 275.548 58.4218V58.9082H254.509V58.4218C254.509 52.0986 251.828 46.0996 247.36 41.641C242.892 37.1013 240.049 30.8591 240.049 23.9685Z" fill="#FFB900"/>
<path d="M268.4 29.2378L267.181 64.9882L269.131 65.0692L270.349 28.9135C271.974 28.5893 273.599 28.1029 275.142 27.4543L275.305 27.3733C277.092 26.6437 278.229 24.8602 278.229 22.9957V22.8336C278.229 20.1584 276.117 18.0506 273.436 18.0506C270.755 18.0506 268.643 20.1584 268.643 22.8336L268.481 27.2922L268.4 29.2378ZM274.33 25.6709C273.03 26.2383 271.73 26.6437 270.349 26.8869L270.512 22.7525C270.512 21.1312 271.812 19.8341 273.355 19.8341C274.898 19.8341 276.198 21.1312 276.198 22.6714V22.8336C276.198 23.9685 275.467 25.0224 274.411 25.5088L274.33 25.6709Z" fill="white"/>
<path d="M256.702 18.0506C259.464 18.0506 261.576 20.1584 261.576 22.8336L261.738 27.3733C263.526 27.6165 265.313 27.6165 267.019 27.5354L266.937 29.481C265.232 29.6431 263.526 29.5621 261.82 29.3999L263.038 65.1503L261.089 65.2313L259.87 29.1567L259.789 27.2111L259.626 23.0768C259.626 21.5365 258.327 20.2394 256.783 20.2394H256.702C255.158 20.2394 253.859 21.5365 253.859 23.0768V23.32C253.859 24.4549 254.509 25.5087 255.646 25.9141C256.458 26.2383 257.352 26.5626 258.245 26.8058L258.327 28.8325C257.189 28.5082 256.052 28.1839 254.915 27.6975C253.128 26.9679 251.99 25.1845 251.99 23.32V23.0768C251.909 20.1584 254.021 18.0506 256.702 18.0506Z" fill="white"/>
<path d="M275.548 58.4218V70.3385C275.548 72.0409 274.167 73.5001 272.38 73.5001H268.156V76.2564H261.739V73.5001H257.433C255.727 73.5001 254.265 72.122 254.265 70.3385V58.4218H275.548Z" fill="#B2B2B2"/>
<path d="M275.548 61.7455H258.814V64.0964H275.548V61.7455Z" fill="#D2D2D2"/>
<path d="M275.548 67.0959H258.814V69.4468H275.548V67.0959Z" fill="#D2D2D2"/>
<path d="M129.326 174.185C145.522 174.185 158.652 161.082 158.652 144.92C158.652 128.757 145.522 115.655 129.326 115.655C113.13 115.655 100 128.757 100 144.92C100 161.082 113.13 174.185 129.326 174.185Z" fill="#C2C2C2"/>
<path d="M133.631 149.784H133.55C132.413 153.432 130.219 155.215 126.97 155.215C124.858 155.215 123.233 154.405 121.933 152.864C120.634 151.324 119.984 149.216 119.984 146.622C119.984 143.136 120.877 140.299 122.665 138.029C124.452 135.759 126.726 134.624 129.651 134.624C130.788 134.624 131.763 134.868 132.575 135.435C133.469 136.002 133.956 136.732 134.2 137.543H134.281C134.281 137.137 134.362 136.246 134.525 134.868H137.368C136.637 143.298 136.312 147.595 136.312 147.757C136.312 150.919 137.206 152.54 139.074 152.54C140.699 152.54 142.08 151.648 143.217 149.865C144.273 148.081 144.842 145.73 144.842 142.893C144.842 138.678 143.542 135.273 140.861 132.598C138.18 129.922 134.525 128.625 129.813 128.625C125.264 128.625 121.527 130.247 118.522 133.408C115.597 136.57 114.054 140.542 114.054 145.325C114.054 150.027 115.435 153.837 118.278 156.674C121.121 159.593 124.858 160.971 129.651 160.971C133.388 160.971 136.637 160.322 139.318 159.106V161.944C136.637 163.079 133.388 163.646 129.407 163.646C123.883 163.646 119.334 161.944 116.003 158.62C112.591 155.296 110.885 150.838 110.885 145.487C110.885 139.894 112.673 135.273 116.247 131.544C119.821 127.896 124.37 126.031 129.894 126.031C135.093 126.031 139.399 127.572 142.811 130.652C146.223 133.733 147.929 137.786 147.929 142.731C147.929 146.379 147.035 149.378 145.248 151.648C143.461 153.999 141.267 155.134 138.668 155.134C135.337 155.215 133.631 153.432 133.631 149.784ZM129.488 137.3C127.62 137.3 126.076 138.191 124.858 139.975C123.721 141.758 123.071 144.028 123.071 146.703C123.071 148.487 123.477 149.946 124.289 151C125.102 152.054 126.158 152.54 127.457 152.54C129.326 152.54 130.869 151.567 131.925 149.703C133.063 147.838 133.55 145.325 133.55 142.163C133.631 139.002 132.25 137.3 129.488 137.3Z" fill="white"/>
<path d="M396.101 186.345H330.544C328.351 186.345 326.645 184.561 326.645 182.454V141.11C326.645 138.921 328.432 137.218 330.544 137.218H396.101C398.294 137.218 400 139.002 400 141.11V182.454C400 184.642 398.294 186.345 396.101 186.345Z" fill="#C2C2C2"/>
<path d="M363.038 180.751C373.402 180.751 381.803 172.367 381.803 162.025C381.803 151.683 373.402 143.298 363.038 143.298C352.674 143.298 344.273 151.683 344.273 162.025C344.273 172.367 352.674 180.751 363.038 180.751Z" fill="#939393"/>
<path d="M334.687 140.299H330.625V144.352H334.687V140.299Z" fill="white"/>
<path d="M334.687 148H330.625V152.054H334.687V148Z" fill="white"/>
<path d="M334.687 155.621H330.625V159.674H334.687V155.621Z" fill="white"/>
<path d="M334.687 163.241H330.625V167.294H334.687V163.241Z" fill="white"/>
<path d="M334.687 170.942H330.625V174.995H334.687V170.942Z" fill="white"/>
<path d="M334.687 178.562H330.625V182.616H334.687V178.562Z" fill="white"/>
<path d="M395.613 140.299H391.552V144.352H395.613V140.299Z" fill="white"/>
<path d="M395.613 148H391.552V152.054H395.613V148Z" fill="white"/>
<path d="M395.613 155.621H391.552V159.674H395.613V155.621Z" fill="white"/>
<path d="M395.613 163.241H391.552V167.294H395.613V163.241Z" fill="white"/>
<path d="M395.613 170.942H391.552V174.995H395.613V170.942Z" fill="white"/>
<path d="M395.613 178.562H391.552V182.616H395.613V178.562Z" fill="white"/>
<path d="M357.514 168.105V155.134C357.514 154.08 358.651 153.432 359.545 153.918L371.487 160.403C372.461 160.89 372.461 162.268 371.487 162.835L359.545 169.321C358.651 169.807 357.514 169.159 357.514 168.105Z" fill="#FFB900"/>
<path d="M190.17 31.0213H199.837C200.812 31.0213 201.543 31.6698 201.543 32.5615V83.9577C201.543 87.0382 201.137 88.2542 198.456 88.2542C194.638 88.2542 190.17 82.4985 190.17 76.0943C190.17 69.69 190.17 31.0213 190.17 31.0213Z" fill="#939393"/>
<path d="M193.501 26.4005H120.146C119.253 26.4005 118.44 27.049 118.44 27.8597V82.4985C118.44 86.4708 119.821 88.2542 124.858 88.2542C129.894 88.2542 199.025 88.2542 199.025 88.2542C199.025 88.2542 195.207 88.5785 195.207 83.8766C195.207 79.6612 194.963 35.7231 194.963 27.6165C195.045 26.9679 194.313 26.4005 193.501 26.4005Z" fill="#E6E6E6"/>
<path d="M190.577 32.4805H123.396V39.1279H190.577V32.4805Z" fill="#C2C2C2"/>
<path d="M153.777 43.1002H123.396V60.8538H153.777V43.1002Z" fill="#69AFE5"/>
<path d="M189.845 43.1002H158.326V45.2079H189.845V43.1002Z" fill="#C2C2C2"/>
<path d="M189.845 48.2885H158.326V50.3962H189.845V48.2885Z" fill="#C2C2C2"/>
<path d="M189.845 53.4767H158.326V55.5844H189.845V53.4767Z" fill="#C2C2C2"/>
<path d="M189.845 58.665H158.326V60.7727H189.845V58.665Z" fill="#C2C2C2"/>
<path d="M189.439 64.9071H171.324V82.0121H189.439V64.9071Z" fill="#FFB900"/>
<path d="M166.694 64.9071H123.396V70.3385H166.694V64.9071Z" fill="white"/>
<path d="M166.856 74.3919H123.72V76.4996H166.856V74.3919Z" fill="#C2C2C2"/>
<path d="M166.856 79.5801H123.72V81.6879H166.856V79.5801Z" fill="#C2C2C2"/>
</g>
<defs>
<clipPath id="clip0">
<rect width="500" height="300" fill="white"/>
</clipPath>
</defs>
</svg>
