<svg xmlns="http://www.w3.org/2000/svg" viewBox="0 0 636 300"><title>MSC17-data-008</title><rect width="636" height="300" fill="#e6e6e6"/><path d="M636,196.616V300H0V196.616Z" fill="#c2c2c2"/><path d="M453.659,226.369H128.9a2.179,2.179,0,1,0,0,4.357H453.659a2.179,2.179,0,0,0,0-4.357" fill="#b2b2b2"/><path d="M463.115,179.984H322.38a4.783,4.783,0,1,0,0,9.565H378.3L350.32,215.59V196.431H180.33v34.3h4.359V203.5H228.9v27.227h4.359V203.5h58.623v27.228h4.36V203.5h49.715v27.228h4.359V220.81L383.9,189.549h79.212a4.783,4.783,0,0,0,0-9.565" fill="#737373"/><path d="M560.1,223.761H535.833v6.966H560.1a3.483,3.483,0,0,0,0-6.966" fill="#b2b2b2"/><rect x="405.822" y="165.598" width="9.577" height="14.462" fill="#459bdd"/><rect x="420.335" y="149.45" width="9.576" height="30.609" fill="#edac28"/><rect x="434.849" y="136.188" width="9.576" height="43.871" fill="#c446b4"/><path d="M439.637,162.719a2.854,2.854,0,0,0-1.882.717l-10.079-6.874a2.834,2.834,0,0,0,.178-.965,2.879,2.879,0,0,0-5.758,0c0,.062.015.119.019.181l-9.091,3a2.872,2.872,0,1,0,.465,1.56c0-.062-.014-.119-.018-.179l9.09-3a2.855,2.855,0,0,0,4.3.6l10.078,6.874a2.873,2.873,0,1,0,2.7-1.915" fill="#09538f"/><path d="M145.058,72.6v6.939h-1.1v-5.6a3.516,3.516,0,0,1-.642.363,5.306,5.306,0,0,1-.783.263v-.937c.183-.06.359-.123.53-.19a5.494,5.494,0,0,0,.5-.223c.166-.082.333-.173.5-.273s.343-.217.522-.347Z" fill="#c446b4"/><path d="M124.983,83.384a1.9,1.9,0,0,1-1.653-.866,4.415,4.415,0,0,1-.593-2.5,4.91,4.91,0,0,1,.618-2.722,2.027,2.027,0,0,1,1.79-.923q2.238,0,2.239,3.478a4.571,4.571,0,0,1-.633,2.629,2.034,2.034,0,0,1-1.768.907m.11-6.138q-1.235,0-1.235,2.721,0,2.546,1.212,2.546,1.191,0,1.192-2.59,0-2.677-1.169-2.677" fill="#c446b4"/><path d="M131.574,71.859V78.8h-1.1V73.2a3.479,3.479,0,0,1-.642.362,5.215,5.215,0,0,1-.782.263v-.937c.182-.059.358-.123.529-.189s.339-.141.5-.223.333-.174.5-.274.343-.217.523-.346Z" fill="#459bdd"/><path d="M138.927,79.314v6.938h-1.1V80.658a3.512,3.512,0,0,1-.642.362,5.192,5.192,0,0,1-.783.263v-.937c.183-.06.359-.123.53-.189s.339-.141.5-.223.333-.174.5-.274.344-.216.523-.346Z" fill="#fda84c"/><path d="M143.72,90.839a1.9,1.9,0,0,1-1.653-.866,4.413,4.413,0,0,1-.594-2.5,4.9,4.9,0,0,1,.619-2.721,2.025,2.025,0,0,1,1.79-.923q2.238,0,2.238,3.478a4.585,4.585,0,0,1-.632,2.63,2.035,2.035,0,0,1-1.768.906m.109-6.138q-1.235,0-1.234,2.721,0,2.546,1.211,2.546,1.194,0,1.193-2.589,0-2.679-1.17-2.678" fill="#459bdd"/><path d="M152.274,81.55v6.939h-1.1V82.9a3.572,3.572,0,0,1-.642.362,5.23,5.23,0,0,1-.783.263v-.937q.274-.09.53-.189c.17-.067.339-.141.5-.224s.333-.173.5-.273.343-.217.522-.347Z" fill="#fda84c"/><path d="M126.321,87.515v6.938h-1.1V88.859a3.512,3.512,0,0,1-.642.362,5.215,5.215,0,0,1-.782.263v-.937q.273-.09.529-.19t.5-.222q.249-.123.5-.275t.522-.345Z" fill="#459bdd"/><path d="M133.562,94.993a1.894,1.894,0,0,1-1.653-.866,4.4,4.4,0,0,1-.594-2.5,4.9,4.9,0,0,1,.619-2.722,2.024,2.024,0,0,1,1.789-.923q2.238,0,2.239,3.478a4.576,4.576,0,0,1-.633,2.63,2.031,2.031,0,0,1-1.767.906m.109-6.138q-1.234,0-1.235,2.721,0,2.546,1.212,2.546,1.193,0,1.193-2.589,0-2.679-1.17-2.678" fill="#fda84c"/><path d="M145.058,94.97v6.938h-1.1V96.314a3.512,3.512,0,0,1-.642.362,5.192,5.192,0,0,1-.783.263V96c.183-.06.359-.123.53-.189s.339-.141.5-.223.333-.174.5-.274.343-.216.522-.346Z" fill="#fda84c"/><path d="M150.936,99.785a1.9,1.9,0,0,1-1.653-.866,4.412,4.412,0,0,1-.594-2.5,4.9,4.9,0,0,1,.619-2.722,2.026,2.026,0,0,1,1.79-.923q2.238,0,2.238,3.478a4.58,4.58,0,0,1-.632,2.63,2.035,2.035,0,0,1-1.768.906m.109-6.138q-1.234,0-1.234,2.721,0,2.546,1.211,2.546,1.193,0,1.193-2.589,0-2.677-1.17-2.678" fill="#fda84c"/><path d="M160.824,84.612V91.55h-1.1V85.956a3.475,3.475,0,0,1-.641.363,5.35,5.35,0,0,1-.783.262v-.937c.183-.059.359-.123.53-.189s.339-.141.5-.223.333-.173.5-.274.344-.216.523-.346Z" fill="#c446b4"/><path d="M131.41,111.342v6.939h-1.1v-5.595a3.516,3.516,0,0,1-.642.363,5.346,5.346,0,0,1-.783.263v-.937c.182-.06.359-.123.529-.19s.34-.14.5-.223.333-.173.5-.273.343-.217.522-.347Z" fill="#fda84c"/><path d="M124.983,105.749a1.894,1.894,0,0,1-1.653-.866,4.413,4.413,0,0,1-.593-2.5,4.906,4.906,0,0,1,.618-2.721,2.028,2.028,0,0,1,1.79-.924q2.238,0,2.239,3.479a4.567,4.567,0,0,1-.633,2.628,2.031,2.031,0,0,1-1.768.907m.11-6.137q-1.235,0-1.235,2.72,0,2.546,1.212,2.547,1.191,0,1.192-2.59,0-2.677-1.169-2.677" fill="#fda84c"/><path d="M133.363,97.578v6.938h-1.1V98.922a3.471,3.471,0,0,1-.641.362,5.23,5.23,0,0,1-.783.263V98.61c.183-.06.359-.123.53-.19s.339-.14.5-.222.333-.174.5-.274.344-.216.523-.346Z" fill="#459bdd"/><path d="M139.792,101.1v6.938h-1.1v-5.594a3.512,3.512,0,0,1-.642.362,5.23,5.23,0,0,1-.783.263v-.937c.183-.06.36-.124.53-.19s.339-.14.5-.222.333-.174.5-.275.343-.216.522-.345Z" fill="#c446b4"/><path d="M144.3,115.127a1.894,1.894,0,0,1-1.653-.866,4.408,4.408,0,0,1-.594-2.5,4.908,4.908,0,0,1,.619-2.721,2.027,2.027,0,0,1,1.79-.924q2.238,0,2.239,3.479a4.573,4.573,0,0,1-.633,2.629,2.033,2.033,0,0,1-1.768.906m.11-6.137q-1.234,0-1.235,2.72,0,2.546,1.212,2.547,1.193,0,1.192-2.59,0-2.677-1.169-2.677" fill="#459bdd"/><path d="M150.936,110.968a1.9,1.9,0,0,1-1.653-.866,4.412,4.412,0,0,1-.594-2.5,4.9,4.9,0,0,1,.619-2.722,2.028,2.028,0,0,1,1.79-.923q2.238,0,2.238,3.479a4.578,4.578,0,0,1-.632,2.628,2.031,2.031,0,0,1-1.768.907m.109-6.138q-1.234,0-1.234,2.721,0,2.546,1.211,2.546,1.193,0,1.193-2.589,0-2.677-1.17-2.678" fill="#c446b4"/><path d="M157.691,97.207v6.938h-1.1V98.551a3.45,3.45,0,0,1-.642.361,5.156,5.156,0,0,1-.783.263v-.936c.183-.06.359-.124.529-.19s.34-.14.5-.223.333-.173.5-.274.343-.216.522-.345Z" fill="#459bdd"/><path d="M459.659,184.766a2.876,2.876,0,1,0,2.873-2.873,2.878,2.878,0,0,0-2.873,2.873" fill="#b2b2b2"/><path d="M450.1,184.766a2.876,2.876,0,1,0,2.874-2.873,2.878,2.878,0,0,0-2.874,2.873" fill="#b2b2b2"/><path d="M440.541,184.766a2.876,2.876,0,1,0,2.874-2.873,2.879,2.879,0,0,0-2.874,2.873" fill="#b2b2b2"/><path d="M430.982,184.766a2.876,2.876,0,1,0,2.874-2.873,2.879,2.879,0,0,0-2.874,2.873" fill="#b2b2b2"/><path d="M411.865,184.766a2.876,2.876,0,1,0,2.874-2.873,2.878,2.878,0,0,0-2.874,2.873" fill="#b2b2b2"/><path d="M421.424,184.766a2.876,2.876,0,1,0,2.873-2.873,2.878,2.878,0,0,0-2.873,2.873" fill="#b2b2b2"/><path d="M402.306,184.766a2.876,2.876,0,1,0,2.874-2.873,2.878,2.878,0,0,0-2.874,2.873" fill="#b2b2b2"/><path d="M392.747,184.766a2.876,2.876,0,1,0,2.874-2.873,2.879,2.879,0,0,0-2.874,2.873" fill="#b2b2b2"/><path d="M373.63,184.766a2.875,2.875,0,1,0,2.873-2.873,2.878,2.878,0,0,0-2.873,2.873" fill="#b2b2b2"/><path d="M364.07,184.766a2.876,2.876,0,1,0,2.874-2.873,2.879,2.879,0,0,0-2.874,2.873" fill="#b2b2b2"/><path d="M147.2,132.188a28.7,28.7,0,0,0,19.594-15.655h-54.5a28.7,28.7,0,0,0,19.594,15.655,6.36,6.36,0,0,1,4.96,6.2v15.593a16.793,16.793,0,0,0,16.792,16.792h4.206a2.7,2.7,0,1,0,0-5.395H153.63a11.4,11.4,0,0,1-11.4-11.4V138.392a6.361,6.361,0,0,1,4.961-6.2" fill="#737373"/><rect x="352.614" y="188.638" width="5.449" height="1.822" fill="#fff"/><rect x="339.9" y="188.638" width="5.448" height="1.822" fill="#fff"/><rect x="333.542" y="188.638" width="5.449" height="1.822" fill="#fff"/><rect x="385.334" y="179.073" width="5.449" height="1.822" fill="#fff"/><rect x="327.185" y="188.638" width="5.449" height="1.822" fill="#fff"/><rect x="358.972" y="188.638" width="5.449" height="1.822" fill="#fff"/><path d="M326.277,190.459v-1.822h-4.3a3.811,3.811,0,0,1-.923-.112l-.437,1.769a5.657,5.657,0,0,0,1.36.165h4.3Z" fill="#fff"/><rect x="346.257" y="188.638" width="5.448" height="1.822" fill="#fff"/><rect x="378.977" y="179.073" width="5.449" height="1.822" fill="#fff"/><rect x="371.686" y="188.638" width="5.449" height="1.822" fill="#fff"/><polygon points="378.044 189.783 379.274 188.638 378.044 188.638 378.044 189.783" fill="#fff"/><rect x="365.328" y="188.638" width="5.449" height="1.822" fill="#fff"/><rect x="436.192" y="179.073" width="5.449" height="1.822" fill="#fff"/><rect x="442.549" y="179.073" width="5.449" height="1.822" fill="#fff"/><rect x="372.619" y="179.073" width="5.449" height="1.822" fill="#fff"/><rect x="448.907" y="179.073" width="5.449" height="1.822" fill="#fff"/><rect x="455.264" y="179.073" width="5.448" height="1.822" fill="#fff"/><rect x="429.835" y="179.073" width="5.448" height="1.822" fill="#fff"/><path d="M462.723,180.9a3.851,3.851,0,0,1,3.054,1.492l1.436-1.121a5.661,5.661,0,0,0-4.49-2.193h-1.1V180.9h1.1Z" fill="#fff"/><rect x="391.692" y="179.073" width="5.448" height="1.822" fill="#fff"/><rect x="404.405" y="179.073" width="5.449" height="1.822" fill="#fff"/><rect x="398.048" y="179.073" width="5.449" height="1.822" fill="#fff"/><rect x="423.478" y="179.073" width="5.448" height="1.822" fill="#fff"/><rect x="410.763" y="179.073" width="5.449" height="1.822" fill="#fff"/><rect x="417.12" y="179.073" width="5.449" height="1.822" fill="#fff"/><rect x="435.259" y="188.638" width="5.449" height="1.822" fill="#fff"/><rect x="390.758" y="188.638" width="5.449" height="1.822" fill="#fff"/><rect x="416.188" y="188.638" width="5.448" height="1.822" fill="#fff"/><rect x="422.544" y="188.638" width="5.449" height="1.822" fill="#fff"/><rect x="428.902" y="188.638" width="5.449" height="1.822" fill="#fff"/><rect x="403.472" y="188.638" width="5.449" height="1.822" fill="#fff"/><rect x="397.115" y="188.638" width="5.449" height="1.822" fill="#fff"/><rect x="409.83" y="188.638" width="5.448" height="1.822" fill="#fff"/><path d="M467.793,182.177l-1.621.829a3.878,3.878,0,0,1-.409,4.155l1.431,1.128a5.632,5.632,0,0,0,1.221-3.523,5.718,5.718,0,0,0-.622-2.589" fill="#fff"/><path d="M462.721,188.637h-2.034v1.822h2.034a5.7,5.7,0,0,0,3.729-1.389l-1.193-1.378a3.867,3.867,0,0,1-2.536.945" fill="#fff"/><rect x="447.974" y="188.638" width="5.448" height="1.822" fill="#fff"/><rect x="454.33" y="188.638" width="5.449" height="1.822" fill="#fff"/><rect x="441.616" y="188.638" width="5.448" height="1.822" fill="#fff"/><path d="M321.986,180.9h5.224v-1.822h-5.224c-.089,0-.177,0-.266.006l.083,1.82c.061,0,.121,0,.183,0" fill="#fff"/><rect x="340.833" y="179.073" width="5.449" height="1.822" fill="#fff"/><rect x="347.19" y="179.073" width="5.449" height="1.822" fill="#fff"/><rect x="359.905" y="179.073" width="5.448" height="1.822" fill="#fff"/><rect x="353.548" y="179.073" width="5.448" height="1.822" fill="#fff"/><rect x="334.475" y="179.073" width="5.449" height="1.822" fill="#fff"/><rect x="366.262" y="179.073" width="5.449" height="1.822" fill="#fff"/><path d="M319.6,189.938l.763-1.654a3.889,3.889,0,0,1-2.251-3.518v-.025l-1.822.025a5.717,5.717,0,0,0,3.31,5.172" fill="#fff"/><polygon points="382.924 190.459 383.492 190.459 383.492 189.931 382.924 190.459" fill="#fff"/><polygon points="384.401 189.085 384.401 190.459 389.849 190.459 389.849 188.637 384.881 188.637 384.401 189.085" fill="#fff"/><path d="M321.076,181l-.426-1.771a5.7,5.7,0,0,0-4.251,4.433l1.788.35A3.876,3.876,0,0,1,321.076,181" fill="#fff"/><rect x="328.118" y="179.073" width="5.448" height="1.822" fill="#fff"/><path d="M383.189,184.766a2.875,2.875,0,1,0,2.873-2.873,2.878,2.878,0,0,0-2.873,2.873" fill="#b2b2b2"/><path d="M131.878,132.188a6.36,6.36,0,0,1,4.961,6.2v15.593a16.844,16.844,0,0,0,.488,4.019,14.346,14.346,0,0,0,2.21-7.652V133.791a3.59,3.59,0,0,0-2.017-3.227,17.744,17.744,0,0,1-9.365-11.359l-.716-2.672H112.285a28.694,28.694,0,0,0,19.593,15.655" fill="#939393"/><rect x="503.262" y="189.605" width="11.288" height="7.475" transform="translate(121.033 575.34) rotate(-65.365)" fill="#459bdd"/><rect x="509.884" y="188.599" width="23.893" height="7.475" transform="translate(129.485 586.501) rotate(-65.365)" fill="#edac28"/><rect x="517.163" y="188.617" width="34.246" height="7.475" transform="translate(136.715 597.815) rotate(-65.363)" fill="#c446b4"/><rect x="480.021" y="195.731" width="6.417" height="9.69" transform="translate(-39.857 211.635) rotate(-23.753)" fill="#df6c47"/><rect x="486.742" y="181.452" width="6.417" height="20.511" transform="translate(-35.718 213.508) rotate(-23.744)" fill="#edac28"/><rect x="493.854" y="169.024" width="6.417" height="29.398" transform="matrix(0.915, -0.403, 0.403, 0.915, -31.896, 215.78)" fill="#459bdd"/><rect x="475.594" y="200.418" width="44.578" height="30.068" fill="#fff"/><rect x="520.172" y="200.418" width="20.844" height="30.103" fill="#e6e6e6"/><polygon points="548.309 189.98 527.465 189.98 520.172 200.417 541.016 200.417 548.309 189.98" fill="#d2d2d2"/><polygon points="513.849 191.245 469.271 191.245 475.594 200.418 520.172 200.418 513.849 191.245" fill="#d2d2d2"/><path d="M348.215,140.154a28.462,28.462,0,0,0-9.487,1.622,26.083,26.083,0,0,0,.23-3.4,25.771,25.771,0,0,0-49.46-10.145A44.545,44.545,0,0,0,207.876,148.7a30.4,30.4,0,1,0-24.4,48.526H348.215a28.535,28.535,0,1,0,0-57.07" fill="#fff"/><rect x="120.449" width="41.144" height="64.532" fill="#737373"/><path d="M161.987,6.07a2.308,2.308,0,1,0,0-4.615H133.224V0H120.449V1.455a2.308,2.308,0,1,0,0,4.615V9.917a2.308,2.308,0,1,0,0,4.615v3.846a2.308,2.308,0,1,0,0,4.616V26.84a2.308,2.308,0,1,0,0,4.615V35.3a2.308,2.308,0,1,0,0,4.616v3.846a2.308,2.308,0,1,0,0,4.615v3.846a2.308,2.308,0,1,0,0,4.616v3.846a2.308,2.308,0,1,0,0,4.615h41.538a2.308,2.308,0,1,0,0-4.615H133.224V56.84h28.763a2.308,2.308,0,0,0,0-4.616H133.224V48.378h28.763a2.308,2.308,0,1,0,0-4.615H133.224V39.917h28.763a2.308,2.308,0,0,0,0-4.616H133.224V31.455h28.763a2.308,2.308,0,1,0,0-4.615H133.224V22.994h28.763a2.308,2.308,0,0,0,0-4.616H133.224V14.532h28.763a2.308,2.308,0,1,0,0-4.615H133.224V6.07Z" fill="#939393"/><path d="M286.111,153.763a33.355,33.355,0,1,1-33.354-33.354,33.354,33.354,0,0,1,33.354,33.354" fill="#d2d2d2"/><path d="M208.8,166.814a24.787,24.787,0,1,1-24.787-24.787A24.787,24.787,0,0,1,208.8,166.814" fill="#d2d2d2"/><path d="M371.057,168.609a23.2,23.2,0,1,1-23.2-23.2,23.2,23.2,0,0,1,23.2,23.2" fill="#d2d2d2"/><path d="M329.6,138.866a16.617,16.617,0,1,1-16.617-16.618A16.617,16.617,0,0,1,329.6,138.866" fill="#d2d2d2"/><path d="M317.522,174.906a14.166,14.166,0,1,1-14.165-14.166,14.165,14.165,0,0,1,14.165,14.166" fill="#d2d2d2"/><path d="M320.717,143.05l.84-2.227-2.235-1.277a6.265,6.265,0,0,0-.074-1.759l2.165-1.429-.982-2.168-2.526.688a6.339,6.339,0,0,0-1.259-1.169l.525-2.575-2.227-.839-1.3,2.282a6.322,6.322,0,0,0-1.718.047l-1.443-2.184-2.169.981.682,2.5a6.394,6.394,0,0,0-1.216,1.273l-2.521-.515-.839,2.227,2.2,1.258a6.367,6.367,0,0,0,.042,1.82l-2.1,1.386.982,2.169,2.4-.656a6.338,6.338,0,0,0,1.354,1.279l-.5,2.432,2.228.839,1.231-2.155a6.422,6.422,0,0,0,1.86-.067l1.373,2.078,2.169-.982L317,143.882a6.374,6.374,0,0,0,1.232-1.34Zm-8.958-.926a3.414,3.414,0,1,1,4.4-1.991,3.415,3.415,0,0,1-4.4,1.991" fill="#939393"/><path d="M194.915,166.88a8.482,8.482,0,1,1,0-11.994,8.482,8.482,0,0,1,0,11.994" fill="#e6e6e6"/><path d="M195.743,154.057a9.651,9.651,0,0,0-14.378,12.832l-3.216,3.216,1.546,1.546,3.217-3.216a9.651,9.651,0,0,0,12.831-14.378m-1.429,12.223a7.632,7.632,0,1,1,0-10.793,7.631,7.631,0,0,1,0,10.793" fill="#b2b2b2"/><path d="M172.5,179.594l-2.293-2.292a.5.5,0,0,1,0-.711l8.148-8.15a.5.5,0,0,1,.712,0l2.294,2.293a.505.505,0,0,1,0,.711l-8.15,8.149a.5.5,0,0,1-.711,0" fill="#939393"/><path d="M190.407,158.291a2.005,2.005,0,1,1,0-2.836,2.006,2.006,0,0,1,0,2.836" fill="#fff"/><path d="M268.049,145.978a15.292,15.292,0,1,0-25.912,11,14.026,14.026,0,0,1,4.193,10.112v.277h12.853v-.277a14.568,14.568,0,0,1,4.376-10.292,15.232,15.232,0,0,0,4.49-10.82" fill="#fff"/><path d="M250.751,149.224l-.04-1.2h0l-.094-2.754a2.931,2.931,0,0,0-5.861,0v.122a2.923,2.923,0,0,0,1.805,2.706l.077.033a16.025,16.025,0,0,0,2.925.895l.759,22.134,1.181-.039-.75-21.9Zm-3.661-2.183-.078-.032a1.745,1.745,0,0,1-1.077-1.615v-.122a1.749,1.749,0,1,1,3.5.021l.085,2.517a14.534,14.534,0,0,1-2.428-.769" fill="#e6e6e6"/><path d="M257.878,142.341h-.048a2.93,2.93,0,0,0-2.931,2.91l-.095,2.784a14.95,14.95,0,0,1-3.241.084l.056,1.188a16.259,16.259,0,0,0,3.143-.075l-.749,21.89,1.181.04.757-22.121.043-1.215.087-2.554a1.751,1.751,0,0,1,1.749-1.749h.048a1.751,1.751,0,0,1,1.749,1.749v.13a1.742,1.742,0,0,1-1.069,1.611,14.791,14.791,0,0,1-1.566.554l-.054,1.241a15.687,15.687,0,0,0,2.078-.7,2.923,2.923,0,0,0,1.793-2.7v-.13a2.935,2.935,0,0,0-2.931-2.931" fill="#e6e6e6"/><path d="M246.329,167.091v7.285a1.915,1.915,0,0,0,1.915,1.915h2.628v1.677h3.917v-1.677h2.627a1.915,1.915,0,0,0,1.915-1.915v-7.285Z" fill="#b2b2b2"/><rect x="246.33" y="169.158" width="10.244" height="1.458" fill="#939393"/><rect x="246.33" y="172.409" width="10.244" height="1.458" fill="#939393"/><path d="M307.488,172.819v-3.252a4.074,4.074,0,1,0-8.147,0v3.252h-2.378v8.851h12.9v-8.851Zm-6.664-3.252a2.591,2.591,0,1,1,5.182,0v3.252h-5.182Z" fill="#939393"/><rect x="296.963" y="174.593" width="10.462" height="0.768" fill="#b2b2b2"/><rect x="296.963" y="176.898" width="10.462" height="0.768" fill="#b2b2b2"/><rect x="296.963" y="179.202" width="10.462" height="0.768" fill="#b2b2b2"/><path d="M357.752,175.218a3.716,3.716,0,0,0-.625-.177l-1-13.286a3.705,3.705,0,1,0-4.726-4.836,3.744,3.744,0,0,0-.2.721l-5.812.591a3.7,3.7,0,1,0-6.187,3.841l-2.936,4.676a3.7,3.7,0,1,0,2.37,5.011l3.035.4a3.692,3.692,0,0,0,6.024,1.981l5.178,3.419a3.7,3.7,0,1,0,4.888-2.337m-12.361-14.254a3.816,3.816,0,0,0,.2-.721l5.811-.591a3.678,3.678,0,0,0,.521.9l-5.358,7.307a3.693,3.693,0,0,0-1.293-.233l-1.39-4.885a3.681,3.681,0,0,0,1.5-1.779m-7.417,6.858,2.936-4.677a3.746,3.746,0,0,0,.783.14l1.13,5.285a3.671,3.671,0,0,0-1,1.4c-.021.053-.028.109-.046.162l-2.9-.377a3.7,3.7,0,0,0-.909-1.93m16,8.043-5.178-3.419a3.684,3.684,0,0,0-.6-3.382l5.359-7.307a3.676,3.676,0,0,0,.55.156l1,13.286a3.736,3.736,0,0,0-1.131.666" fill="#939393"/></svg>