<svg xmlns="http://www.w3.org/2000/svg" viewBox="0 0 300 300"><title>MSC17-cloud-011</title><path d="M300,0V300H0V0Z" fill="#40cdf5"/><path d="M255.6,246.153a8.546,8.546,0,0,0-4.622,1.357c.018-.313.028-.626.028-.942a16.76,16.76,0,0,0-28.355-12.108,21.681,21.681,0,0,0-42.135,6.976,12.983,12.983,0,1,0-9.434,21.9H255.6a8.59,8.59,0,1,0,0-17.18" fill="#fff"/><path d="M44.916,208.741a10.362,10.362,0,0,1,7.449,3.147c-.036-.479-.061-.96-.061-1.449a19.1,19.1,0,0,1,35.615-9.578c0-.036,0-.072,0-.107a28.784,28.784,0,1,1,56.979,5.815,15.462,15.462,0,1,1,13.518,22.967H44.916a10.4,10.4,0,1,1,0-20.795" fill="#fff"/><path d="M95.94,49.206a2.456,2.456,0,0,0-1.183.3,9.1,9.1,0,1,0-17.02-4.485c0,.294.015.584.043.87a4.26,4.26,0,1,0-1.539,8.232h19.7a2.46,2.46,0,0,0,0-4.92" fill="#00bcf2"/><path d="M245.919,114.93a7.292,7.292,0,0,0-5.239,2.213c.026-.336.042-.675.042-1.018a13.426,13.426,0,0,0-23.1-9.314V95.019h-7.857c-.136-.136-.276-.267-.416-.4V51.208H184.5v15.95H171.229V33.232H151.391v25.4h-5.183V21.083l-15.7,15.7v53.05H99.853V73.121H88.661v28.022H84.526V90.613h-9v10.53H67.736v10.469a6.906,6.906,0,1,0-2.3,13.416h27.9a5.06,5.06,0,0,0,1.8-9.791h60.632a10.862,10.862,0,0,0,10.311,14.322h79.843a7.315,7.315,0,1,0,0-14.629m-154.742.461c0-.05,0-.1,0-.154h.373c-.127.048-.255.1-.377.154" fill="#00bcf2"/><rect x="109.498" y="54.125" width="37.601" height="78.279" fill="#09538f"/><rect x="147.099" y="54.125" width="10.938" height="78.279" fill="#1070c4"/><rect x="113.126" y="58.133" width="30.39" height="8.618" fill="#1070c4"/><rect x="114.548" y="59.418" width="1.417" height="6.048" fill="#09538f"/><rect x="116.815" y="59.418" width="1.417" height="6.048" fill="#09538f"/><rect x="119.083" y="59.418" width="1.417" height="6.048" fill="#09538f"/><rect x="121.352" y="59.418" width="1.417" height="6.048" fill="#09538f"/><path d="M138.678,62.442a.907.907,0,1,1-.907-.908.907.907,0,0,1,.907.908" fill="#fff"/><path d="M141.777,62.442a.907.907,0,1,1-.907-.908.906.906,0,0,1,.907.908" fill="#fec94e"/><rect x="113.126" y="68.112" width="30.39" height="8.618" fill="#1070c4"/><rect x="114.548" y="69.397" width="1.417" height="6.048" fill="#09538f"/><rect x="116.815" y="69.397" width="1.417" height="6.048" fill="#09538f"/><rect x="119.083" y="69.397" width="1.417" height="6.048" fill="#09538f"/><rect x="121.352" y="69.397" width="1.417" height="6.048" fill="#09538f"/><path d="M138.678,72.42a.907.907,0,1,1-.907-.907.908.908,0,0,1,.907.907" fill="#fff"/><path d="M141.777,72.42a.907.907,0,1,1-.907-.907.907.907,0,0,1,.907.907" fill="#fec94e"/><rect x="113.126" y="78.091" width="30.39" height="8.618" fill="#1070c4"/><rect x="114.548" y="79.375" width="1.417" height="6.048" fill="#09538f"/><rect x="116.815" y="79.375" width="1.417" height="6.048" fill="#09538f"/><rect x="119.083" y="79.375" width="1.417" height="6.048" fill="#09538f"/><rect x="121.352" y="79.375" width="1.417" height="6.048" fill="#09538f"/><path d="M138.678,82.4a.907.907,0,1,1-.907-.907.907.907,0,0,1,.907.907" fill="#fff"/><path d="M141.777,82.4a.907.907,0,1,1-.907-.907.906.906,0,0,1,.907.907" fill="#fec94e"/><rect x="113.126" y="88.068" width="30.39" height="8.618" fill="#1070c4"/><rect x="114.548" y="89.354" width="1.417" height="6.048" fill="#09538f"/><rect x="116.815" y="89.354" width="1.417" height="6.048" fill="#09538f"/><rect x="119.083" y="89.354" width="1.417" height="6.048" fill="#09538f"/><rect x="121.352" y="89.354" width="1.417" height="6.048" fill="#09538f"/><rect x="113.126" y="98.048" width="30.39" height="8.618" fill="#1070c4"/><rect x="114.548" y="99.333" width="1.417" height="6.047" fill="#09538f"/><rect x="116.815" y="99.333" width="1.417" height="6.047" fill="#09538f"/><rect x="119.083" y="99.333" width="1.417" height="6.047" fill="#09538f"/><rect x="121.352" y="99.333" width="1.417" height="6.047" fill="#09538f"/><path d="M138.678,102.357a.907.907,0,1,1-.907-.908.908.908,0,0,1,.907.908" fill="#fff"/><path d="M141.777,102.357a.907.907,0,1,1-.907-.908.907.907,0,0,1,.907.908" fill="#fec94e"/><rect x="113.126" y="108.026" width="30.39" height="8.618" fill="#1070c4"/><rect x="114.548" y="109.312" width="1.417" height="6.048" fill="#09538f"/><rect x="116.815" y="109.312" width="1.417" height="6.048" fill="#09538f"/><rect x="119.083" y="109.312" width="1.417" height="6.048" fill="#09538f"/><rect x="121.352" y="109.312" width="1.417" height="6.048" fill="#09538f"/><path d="M138.678,112.335a.907.907,0,1,1-.907-.907.907.907,0,0,1,.907.907" fill="#fff"/><path d="M141.777,112.335a.907.907,0,1,1-.907-.907.906.906,0,0,1,.907.907" fill="#fec94e"/><rect x="113.126" y="118.005" width="30.39" height="8.618" fill="#1070c4"/><rect x="114.548" y="119.29" width="1.417" height="6.047" fill="#09538f"/><rect x="116.815" y="119.29" width="1.417" height="6.047" fill="#09538f"/><rect x="119.083" y="119.29" width="1.417" height="6.047" fill="#09538f"/><rect x="121.352" y="119.29" width="1.417" height="6.047" fill="#09538f"/><path d="M138.678,122.314a.907.907,0,1,1-.907-.908.908.908,0,0,1,.907.908" fill="#fff"/><path d="M141.777,122.314a.907.907,0,1,1-.907-.908.907.907,0,0,1,.907.908" fill="#fec94e"/><rect x="151.57" y="68.524" width="37.6" height="78.28" fill="#09538f"/><rect x="189.17" y="68.524" width="10.938" height="78.28" fill="#1070c4"/><rect x="155.198" y="72.532" width="30.39" height="8.618" fill="#1070c4"/><rect x="156.619" y="73.817" width="1.417" height="6.048" fill="#09538f"/><rect x="158.888" y="73.817" width="1.417" height="6.048" fill="#09538f"/><rect x="161.155" y="73.817" width="1.417" height="6.048" fill="#09538f"/><rect x="163.423" y="73.817" width="1.417" height="6.048" fill="#09538f"/><path d="M180.75,76.84a.907.907,0,1,1-.907-.906.908.908,0,0,1,.907.906" fill="#fff"/><path d="M183.849,76.84a.907.907,0,1,1-.908-.906.908.908,0,0,1,.908.906" fill="#fec94e"/><rect x="155.198" y="82.511" width="30.39" height="8.618" fill="#1070c4"/><rect x="156.619" y="83.796" width="1.417" height="6.047" fill="#09538f"/><rect x="158.888" y="83.796" width="1.417" height="6.047" fill="#09538f"/><rect x="161.155" y="83.796" width="1.417" height="6.047" fill="#09538f"/><rect x="163.423" y="83.796" width="1.417" height="6.047" fill="#09538f"/><path d="M180.75,86.819a.907.907,0,1,1-.907-.907.908.908,0,0,1,.907.907" fill="#fff"/><path d="M183.849,86.819a.907.907,0,1,1-.908-.907.908.908,0,0,1,.908.907" fill="#fec94e"/><rect x="155.198" y="92.488" width="30.39" height="8.618" fill="#1070c4"/><rect x="156.619" y="93.775" width="1.417" height="6.048" fill="#09538f"/><rect x="158.888" y="93.775" width="1.417" height="6.048" fill="#09538f"/><rect x="161.155" y="93.775" width="1.417" height="6.048" fill="#09538f"/><rect x="163.423" y="93.775" width="1.417" height="6.048" fill="#09538f"/><path d="M180.75,96.8a.907.907,0,1,1-.907-.907.908.908,0,0,1,.907.907" fill="#fff"/><path d="M183.849,96.8a.907.907,0,1,1-.908-.907.908.908,0,0,1,.908.907" fill="#fec94e"/><rect x="155.198" y="102.468" width="30.39" height="8.618" fill="#1070c4"/><rect x="156.619" y="103.753" width="1.417" height="6.047" fill="#09538f"/><rect x="158.888" y="103.753" width="1.417" height="6.047" fill="#09538f"/><rect x="161.155" y="103.753" width="1.417" height="6.047" fill="#09538f"/><rect x="163.423" y="103.753" width="1.417" height="6.047" fill="#09538f"/><path d="M180.75,106.777a.907.907,0,1,1-.907-.908.908.908,0,0,1,.907.908" fill="#fff"/><path d="M183.849,106.777a.907.907,0,1,1-.908-.908.908.908,0,0,1,.908.908" fill="#fec94e"/><rect x="155.198" y="112.447" width="30.39" height="8.618" fill="#1070c4"/><rect x="156.619" y="113.732" width="1.417" height="6.048" fill="#09538f"/><rect x="158.888" y="113.732" width="1.417" height="6.048" fill="#09538f"/><rect x="161.155" y="113.732" width="1.417" height="6.048" fill="#09538f"/><rect x="163.423" y="113.732" width="1.417" height="6.048" fill="#09538f"/><path d="M180.75,116.756a.907.907,0,1,1-.907-.908.907.907,0,0,1,.907.908" fill="#fff"/><path d="M183.849,116.756a.907.907,0,1,1-.908-.908.907.907,0,0,1,.908.908" fill="#fec94e"/><rect x="155.198" y="122.425" width="30.39" height="8.618" fill="#1070c4"/><rect x="156.619" y="123.711" width="1.417" height="6.048" fill="#09538f"/><rect x="158.888" y="123.711" width="1.417" height="6.048" fill="#09538f"/><rect x="161.155" y="123.711" width="1.417" height="6.048" fill="#09538f"/><rect x="163.423" y="123.711" width="1.417" height="6.048" fill="#09538f"/><path d="M180.75,126.734a.907.907,0,1,1-.907-.907.907.907,0,0,1,.907.907" fill="#fff"/><path d="M183.849,126.734a.907.907,0,1,1-.908-.907.907.907,0,0,1,.908.907" fill="#fec94e"/><rect x="155.198" y="132.404" width="30.39" height="8.618" fill="#1070c4"/><rect x="156.619" y="133.688" width="1.417" height="6.048" fill="#09538f"/><rect x="158.888" y="133.688" width="1.417" height="6.048" fill="#09538f"/><rect x="161.155" y="133.688" width="1.417" height="6.048" fill="#09538f"/><rect x="163.423" y="133.688" width="1.417" height="6.048" fill="#09538f"/><path d="M180.75,136.713a.907.907,0,1,1-.907-.908.907.907,0,0,1,.907.908" fill="#fff"/><path d="M183.849,136.713a.907.907,0,1,1-.908-.908.907.907,0,0,1,.908.908" fill="#fec94e"/><path d="M209.247,133.356a8.908,8.908,0,0,0-3.818.865q.021-.43.021-.865a17.907,17.907,0,0,0-35.743-1.595,12.21,12.21,0,0,0-14.67-3.919,6.556,6.556,0,0,0-9.139.261c.022-.3.037-.607.037-.915a12.072,12.072,0,0,0-22.516-6.056v-.067A18.2,18.2,0,1,0,87.4,124.741a9.776,9.776,0,1,0-8.548,14.521h68.845a12.212,12.212,0,0,0,12.207,12h49.347a8.955,8.955,0,1,0,0-17.91" fill="#fff"/><path d="M72.592,163.476v46.875h27.685a33.549,33.549,0,0,1,41.531,0h8.739V163.476Z" fill="#1070c4"/><polygon points="122.906 163.476 150.547 191.117 150.547 163.476 122.906 163.476" fill="#1070c4"/><path d="M121.043,203.152a33.436,33.436,0,0,1,16.657,4.42h7.686V166.255H77.753v41.317h26.633a33.436,33.436,0,0,1,16.657-4.42" fill="#edac28"/><path d="M141.808,210.352a33.771,33.771,0,0,1,4.566,4.34h12.533a2.918,2.918,0,0,0,2.918-2.918v-1.422Z" fill="#09538f"/><path d="M100.277,210.352H61.314v1.422a2.918,2.918,0,0,0,2.919,2.918H95.712a33.7,33.7,0,0,1,4.565-4.34" fill="#09538f"/><rect x="120.008" y="169.715" width="19.739" height="1.858" fill="#c58d1f"/><rect x="120.008" y="174.36" width="19.739" height="1.858" fill="#c58d1f"/><rect x="120.008" y="179.005" width="19.739" height="1.858" fill="#c58d1f"/><rect x="120.008" y="183.648" width="19.739" height="1.858" fill="#c58d1f"/><rect x="120.008" y="188.293" width="19.739" height="1.858" fill="#c58d1f"/><rect x="120.008" y="192.938" width="19.739" height="1.858" fill="#c58d1f"/><rect x="120.008" y="197.582" width="19.739" height="1.858" fill="#c58d1f"/><path d="M121.043,203.152a33.677,33.677,0,0,1,7.817.933h10.887v-1.858h-19.74v.96c.346-.011.688-.035,1.036-.035" fill="#c58d1f"/><path d="M99.3,186.913,82.8,181.5a17.014,17.014,0,0,1,16.5-11.911Z" fill="#fff"/><path d="M99.3,186.913l-10.216,14a16.5,16.5,0,0,1-6.284-8.668Z" fill="#e6e6e6"/><path d="M99.3,186.913l16.419,5.332a17.43,17.43,0,0,1-21.857,11.164,15.444,15.444,0,0,1-4.778-2.5Z" fill="#1070c4"/><path d="M99.3,186.913V169.585a17.272,17.272,0,0,1,17.255,17.328,16.569,16.569,0,0,1-.836,5.332Z" fill="#09538f"/><path d="M188.034,216.245v30.884h3.459a20.931,20.931,0,0,1,18.842,0H239.4V216.245Z" fill="#1070c4"/><polygon points="221.184 216.245 239.395 234.457 239.395 216.245 221.184 216.245" fill="#1070c4"/><path d="M191.493,247.13H180.6v.937a1.923,1.923,0,0,0,1.923,1.923h4.7a20.914,20.914,0,0,1,4.267-2.86" fill="#09538f"/><path d="M210.335,247.13a20.92,20.92,0,0,1,4.268,2.86h30.3a1.924,1.924,0,0,0,1.923-1.923v-.937Z" fill="#09538f"/><path d="M213.163,218.077V87.4a11.53,11.53,0,0,0-11.517-11.517h-18.7a.961.961,0,1,0,0,1.921h18.7a9.607,9.607,0,0,1,9.6,9.6V218.077H191.435V245.3h5.348a21.016,21.016,0,0,1,8.262,0H236V218.077Z" fill="#fec94e"/><path d="M100.124,168.377a.961.961,0,0,1-.961-.96V105.732a14.332,14.332,0,0,1,14.315-14.315H140.87a.961.961,0,1,1,0,1.922H113.478a12.407,12.407,0,0,0-12.393,12.393v61.685a.96.96,0,0,1-.961.96" fill="#edac28"/><rect x="203.276" y="235.982" width="5.043" height="7.615" fill="#1386aa"/><rect x="210.919" y="227.478" width="5.044" height="16.12" fill="#1db0e0"/><rect x="218.562" y="220.494" width="5.043" height="23.104" fill="#49cdf3"/><path d="M221.085,234.466a1.5,1.5,0,0,0-.992.377l-5.307-3.62a1.514,1.514,0,1,0-2.939-.508c0,.032.008.063.009.095l-4.787,1.581a1.511,1.511,0,1,0,.246.821c0-.033-.008-.063-.01-.095l4.787-1.58a1.5,1.5,0,0,0,2.262.317l5.308,3.62a1.513,1.513,0,1,0,1.423-1.008" fill="#09538f"/></svg>