<svg xmlns="http://www.w3.org/2000/svg" xmlns:xlink="http://www.w3.org/1999/xlink" viewBox="0 0 300 300"><defs><clipPath id="a"><rect x="88.845" y="193.384" width="18.142" height="11.761" transform="translate(-118.989 151.871) rotate(-51.506)" fill="none"/></clipPath></defs><title>MSC17-business-003</title><path d="M300,0V300H0V0Z" fill="#c2c2c2"/><rect x="116.572" y="76.888" width="8.873" height="27.552" fill="#939393"/><rect x="128.142" y="68.796" width="8.873" height="35.643" fill="#e6e6e6"/><rect x="139.712" y="56.643" width="8.873" height="47.797" fill="#fff"/><path d="M206.476,66.067A22.987,22.987,0,1,1,183.49,43.08a22.987,22.987,0,0,1,22.986,22.987" fill="#e6e6e6"/><path d="M183.49,43.08V66.067h22.987a22.982,22.982,0,0,0-22.49-22.976Z" fill="#e6e6e6"/><path d="M183.49,66.067l14.1,18.154s3.909-2.924,5.577-6.266L183.49,66.067" fill="#939393"/><path d="M203.167,77.955,183.49,66.067h22.987s.217,7.392-3.31,11.888" fill="#fff"/><path d="M206.3,105.122a15.676,15.676,0,0,0-6.721,1.521c.024-.5.038-1.011.038-1.521a31.52,31.52,0,0,0-62.914-2.809,21.5,21.5,0,1,0-17.261,34.331H206.3a15.761,15.761,0,0,0,0-31.522" fill="#fff"/><polygon points="170.744 116.067 172.924 136.644 168.664 136.644 170.744 116.067" fill="#e6e6e6"/><polygon points="146.806 116.067 148.986 136.644 144.726 136.644 146.806 116.067" fill="#e6e6e6"/><polygon points="89.4 169.998 91.129 168.722 92.366 170.507 91.675 171.504 89.4 169.998" fill="#004b50"/><path d="M61.119,259.366H169.847a1.895,1.895,0,1,1,0,3.789H61.119a1.895,1.895,0,0,1,0-3.789" fill="#b2b2b2" fill-rule="evenodd"/><polygon points="133.772 179.676 136.511 178.032 133.772 175.248 132.174 178.763 133.772 179.676" fill="#ce9c5f" fill-rule="evenodd"/><path d="M91.045,255.364l-.517,2.363a19.793,19.793,0,0,0-.326,5.591h18.1a2.644,2.644,0,0,0-1.975-3.068l-4.508-.959a3.671,3.671,0,0,1-2.343-1.634l-1.412-2.243Z" fill="#301d19" fill-rule="evenodd"/><path d="M167.341,116.066,166.2,128.443H145.532l1.143-12.377h-5.594L127.489,263.155h5.594l1.115-12.062h18.475l-1.114,12.062h5.593l13.592-147.089Zm-1.622,17.552-1.073,11.608H143.981l1.072-11.608Zm-27.941,78.736,1.072-11.608h20.666l-1.072,11.608Zm20.187,5.174-1.072,11.608H136.227l1.072-11.608Zm-18.636-21.956,1.072-11.608h20.666L160,195.572Zm1.55-16.782,1.073-11.607h20.666l-1.073,11.607Zm1.551-16.782L143.5,150.4h20.667L163.1,162.008Zm-7.754,83.91,1.073-11.608h20.666l-1.073,11.608Z" fill="#b2b2b2" fill-rule="evenodd"/><path d="M163.984,116.066l-1.143,12.377H142.175l1.143-12.377h-3.4L126.324,263.155h3.4l1.114-12.062h20.667l-1.115,12.062h3.4l13.592-147.089Zm-1.621,17.552-1.073,11.608H140.624l1.073-11.608Zm-27.942,78.736,1.073-11.608H156.16l-1.073,11.608Zm20.188,5.174-1.072,11.608H132.871l1.072-11.608Zm-18.637-21.956,1.072-11.608h20.667l-1.073,11.608Zm1.551-16.782,1.072-11.607h20.666l-1.072,11.607Zm1.551-16.782,1.072-11.608h20.666l-1.073,11.608Zm-7.754,83.91,1.073-11.608h20.665l-1.072,11.608Z" fill="#e6e6e6" fill-rule="evenodd"/><polygon points="143.046 229.136 141.05 234.325 132.392 234.325 132.392 236.526 128.785 236.526 129.126 232.831 142.474 228.368 143.046 229.136" fill="#c2c2c2" fill-rule="evenodd"/><path d="M123.676,227.33s6.33-1.069,8.141-4.122l-1.019-.923-6.665,3.378Z" fill="#022e32" fill-rule="evenodd"/><polygon points="131.964 225.017 130.25 222.422 124.133 224.065 126.598 229.224 132.579 227.033 131.964 225.017" fill="#fff" fill-rule="evenodd"/><path d="M117.142,204.513l-4.308,1.061-1.849-19.842,7.606,4.361a3.232,3.232,0,0,0,3.611-.269l12.369-9.782-3.949-4.2-10.135,6.026-10.655-8.511-.118-1.261-16.933-3.01L80.894,179.494l10.469,31.955,3.094,22.53L90.5,256.638l.549.1a17.278,17.278,0,0,0,8.544-.3l6.017-23.258L105,219.086c6.177-1.573,11.787-3.5,11.787-3.5l6.893,11.748a11.678,11.678,0,0,1,8.14-4.122L121.312,206.14a3.711,3.711,0,0,0-4.17-1.627" fill="#004b50" fill-rule="evenodd"/><polygon points="132.174 177.492 122.633 185.154 121.446 183.328 119.62 186.524 117.976 183.466 109.102 178.032 106.564 171.505 109.715 172.096 110.152 173.613 120.488 181.867 121.127 180.726 121.948 180.999 130.622 175.842 132.174 177.492" fill="#0d7364" fill-rule="evenodd"/><path d="M109.623,207.066h0l4.525-1.613L114.56,204a3.862,3.862,0,0,0-.488-3.17l-.98-1.492-.717-14.526a18.587,18.587,0,0,0-2-7.526l-2.99-5.869-3.327-.595.96,2.718a18.542,18.542,0,0,1-1.339,13.233,5.246,5.246,0,0,0-.477,2.885l1.164,9.669a10.467,10.467,0,0,0,5.261,7.741" fill="#cadf53"/><path d="M102.47,174.019,103.6,172.1l2.147.962-3.318-4.336-1.932,1.41s1.841,2.7,1.977,3.887" fill="#0d7364" fill-rule="evenodd"/><path d="M104.8,192.139h2.095a10.863,10.863,0,0,0,4.776-1.106l1.048-.512.143,2.9-.414.236a12.529,12.529,0,0,1-5.647,1.637l-2,.09Z" fill="#b2b2b2"/><path d="M105.071,197.648h2.095a10.862,10.862,0,0,0,4.776-1.1l1.048-.512.143,2.894-.414.236a12.513,12.513,0,0,1-5.647,1.637l-2,.091Z" fill="#b2b2b2"/><path d="M125.624,228.7l.042.491a15.547,15.547,0,0,0,1.823,5.087c.3.438.634.837,1.147.7l15.355-6.219a7.757,7.757,0,0,0-1.048-1.5,3.306,3.306,0,0,0-3.095-1.112c-2.209.389-5.8.964-6.159.651l-1.52-1.892-.483.137a13.31,13.31,0,0,0-6.062,3.661" fill="#301d19" fill-rule="evenodd"/><path d="M103.153,198.306l-1.218-9.8a14.6,14.6,0,0,0-2.721-6.844l-1.617-2.2a14.6,14.6,0,0,0-9.988-5.848h-.2l-3.636,3.142.4.128a10.018,10.018,0,0,1,3.2,17.405l-.064,1.517,9.689,2.443-1.488,5.9L87.3,202.806l2.241,12.6,4.109-1.509a14.68,14.68,0,0,0,9.507-15.59" fill="#cadf53"/><polygon points="88.203 207.905 92.504 206.551 91.682 204.51 87.802 205.649 88.203 207.905" fill="#b2b2b2"/><path d="M109.325,196.221,97.518,211.065a.893.893,0,0,1-1.256.143l-9.611-7.643a.893.893,0,0,1-.143-1.256l11.807-14.845a.894.894,0,0,1,1.256-.143l9.61,7.644a.894.894,0,0,1,.144,1.256" fill-rule="evenodd"/><rect x="88.845" y="193.384" width="18.142" height="11.761" transform="translate(-118.986 151.858) rotate(-51.502)" fill="#f3f3f3"/><g clip-path="url(#a)"><polygon points="86.798 204.51 95.684 206.313 98.837 208.699 101.645 205.18 94.221 201.223 86.955 200.889 86.798 204.51" fill="#d2d2d2" fill-rule="evenodd"/></g><path d="M104.55,199.093a.879.879,0,0,0,.981-.667l.052-.215-1.712-.35-3.439-.025v0a1.9,1.9,0,0,0-.409.037l-3.792.792-1.4,4.564,3.3,2.473a1.812,1.812,0,0,0,.793.34l2.5.418a.823.823,0,0,0,.88-.461l.968-2.058.119-.023a1.021,1.021,0,0,0,.829-1l0-.5.17.038a.9.9,0,0,0,.483-1.732l-2.49-.846-.076-.376,1.27-.556Z" fill="#ce9c5f"/><path d="M130.622,175.841l1.823-4.6a1.423,1.423,0,0,1,1.009-.863l3.331-.748,2.6,1.521-.273.377a1.1,1.1,0,0,1-1.387.335l-.988-.5-1.735,1.1.06.625a6.393,6.393,0,0,1-2.031,5.317Z" fill="#ce9c5f" fill-rule="evenodd"/><path d="M141.813,175.305l-1.283.316a.655.655,0,0,1-.792-.479l-.023-.094a.655.655,0,0,1,.478-.792l1.283-.316a.655.655,0,0,1,.792.478l.023.095a.655.655,0,0,1-.478.792" fill="#ce9c5f" fill-rule="evenodd"/><path d="M141.287,177.209l-1.073.076a.617.617,0,0,1-.089-1.231l1.073-.078a.618.618,0,0,1,.089,1.233" fill="#ce9c5f" fill-rule="evenodd"/><path d="M142.879,172.134a.74.74,0,0,1-.362-1.348.76.76,0,0,0-1-.4l-1.634.708a.758.758,0,0,0-.395,1,.742.742,0,0,0,.566.433l-.289.124a.76.76,0,0,0,.6,1.4l2.113-.915a.759.759,0,0,0,.4-1" fill="#ce9c5f" fill-rule="evenodd"/><path d="M80.163,181.166,79.195,200a1.637,1.637,0,0,0,1.371,1.708l14.939,2.445,1.488-5.9L87.305,195.8l.5-11.837a4.6,4.6,0,0,0-3.919-5.307l-.547-.08a2.775,2.775,0,0,0-3.173,2.586" fill="#004b50" fill-rule="evenodd"/><path d="M96.818,171.3l-.192,2.816a13.817,13.817,0,0,1,4.869,6.393l.321.8.627-3.4a11.162,11.162,0,0,0-1.174-7.363l-.415-.548Z" fill="#f3f3f3"/><path d="M103.821,162.95l-.57-2.8A7.646,7.646,0,0,0,88.2,162.822a1.485,1.485,0,0,0-1.489,2.012l.327.863a1.99,1.99,0,0,0,2.053,1.27,7.653,7.653,0,0,0,4.237,4.545.723.723,0,0,0,.225.584c.518.286.98.571,1.415.852-.007-.516.023-1.164.217-1.306l1.44,2.476c1.012.915,1.533,1.334,1.533,1.334s1.5-.982,1.471-1.4l-.055-.857a2.851,2.851,0,0,1,1.037-2.386h0a7.651,7.651,0,0,0,3.213-7.862" fill="#ce9c5f" fill-rule="evenodd"/><path d="M101.8,169.818a7.637,7.637,0,0,0,2.023-6.868l-.569-2.8a7.7,7.7,0,0,0-.639-1.851c-1.459-.144-3.686,1.14-3.647,1.589l.019.211a1.523,1.523,0,0,0,1.033,1.313l1.493.5a.993.993,0,0,1,.436,1.587l-.36.567a1.18,1.18,0,0,0,0,1.259,4.122,4.122,0,0,1,.529,3.081Z" fill="#d8b07f" fill-rule="evenodd"/><path d="M94.95,161.661a.724.724,0,1,1-.723-.724.722.722,0,0,1,.723.724" fill-rule="evenodd"/><path d="M102.634,160.376a.724.724,0,1,1-.724-.724.724.724,0,0,1,.724.724" fill-rule="evenodd"/><path d="M89.476,163.733l.947,2.272,1.129-.467-.558-1.932a2.654,2.654,0,0,1-.08-1.082l.355-2.654-3.541-.467-.273,2.982.2.5a1.486,1.486,0,0,1,1.821.843" fill="#7a5e44" fill-rule="evenodd"/><path d="M89.3,163.435l1.641-3.853L89.4,160.1l-1.139,2.729a1.476,1.476,0,0,1,1.042.6" fill-rule="evenodd"/><path d="M89.663,166.835a1.959,1.959,0,0,1-.943.132,5.026,5.026,0,0,0,1.666,2.438v-2.867Z" fill="#7a5e44" fill-rule="evenodd"/><path d="M101.382,164.323l-1.631.513a2.094,2.094,0,0,0-1.541,1.73l-.052.579s4.523-.681,5.677-1.64c-.043-.068-.084-.133-.124-.194a2.386,2.386,0,0,0-2.152-1Z" fill="#7a5e44" fill-rule="evenodd"/><path d="M95.186,171.642,89.4,170l-.34,2.345,6.319,4.183-.131-1a16.935,16.935,0,0,1-.067-3.832Z" fill="#0d7364" fill-rule="evenodd"/><path d="M104.487,156.851l-1.394-.477-.266-1.989a.3.3,0,0,0-.334-.261l-.346.04c-1.217-2.285-3.73-5.5-8.174-5.39a3.738,3.738,0,0,0-1.537-.177,22.2,22.2,0,0,0-2.711.623l.8.251a7.743,7.743,0,0,0-4.88,9.116l.465,1.747a1.556,1.556,0,0,1-.013.848l-.107.359a.6.6,0,0,0,.856.669l5.84-2.64a20.127,20.127,0,0,1,7.66-1.769l4-.127a.421.421,0,0,0,.142-.823" fill="#df6c47" fill-rule="evenodd"/><path d="M97.885,156.854s-1.31-8.544-8.16-7.634c-1.09.286-.94,1.112-.94,1.112l.9-.513s5.512-.593,6.719,7.347a13.168,13.168,0,0,1,1.479-.312" fill="#d83b01" fill-rule="evenodd"/><path d="M91.662,156.194l.809-.208a6.705,6.705,0,0,0-5.4-4.072,8.124,8.124,0,0,0-1.425,6.674l.465,1.745a1.56,1.56,0,0,1-.013.849l-.107.359a.52.52,0,0,0,.05.412c.294-.2.956-.647,1.853-1.186l-.619-2.065a.339.339,0,0,1,.211-.415L88,158.1l.683,2.206a34.423,34.423,0,0,1,3.351-1.68l-.584-2.064a.3.3,0,0,1,.212-.37" fill="#d83b01" fill-rule="evenodd"/><path d="M91.977,161.378a.317.317,0,0,1-.164-.047.311.311,0,0,1-.1-.429,3.514,3.514,0,0,1,1.989-1.468,2.752,2.752,0,0,1,2.149.464.311.311,0,1,1-.339.522,2.157,2.157,0,0,0-1.67-.379,2.91,2.91,0,0,0-1.6,1.191.313.313,0,0,1-.265.146" fill="#7a5e44"/><path d="M99.6,159.546a.307.307,0,0,1-.208-.08.311.311,0,0,1-.024-.439,2.937,2.937,0,0,1,3.727-.68.312.312,0,1,1-.334.526c-1.519-.964-2.872.507-2.929.57a.312.312,0,0,1-.232.1" fill="#7a5e44"/><path d="M96.993,198.248l-1.013,3.907-1.559-.2.411-2.282-8.993-2.648-2.876.813s.546-2.35,2.465-2.457A39.693,39.693,0,0,1,87.8,183.967l-.478,11.6Z" fill="#0d7364"/><path d="M101.645,182.615a.576.576,0,1,1-.576-.576.576.576,0,0,1,.576.576" fill="#0d7364"/><path d="M105.089,219.063c-1.24.317-2.5.62-3.75.89a7.043,7.043,0,0,1-2,.135l2.072,13.212L96.8,255.306a20.6,20.6,0,0,1-5.66-.489,4.758,4.758,0,0,0-.093.547,18.454,18.454,0,0,0,5.639.484l-.255,1.217a18.082,18.082,0,0,0,3.16-.628l6.017-23.259Z" fill="#0d7364" fill-rule="evenodd"/><path d="M131.817,223.208,121.312,206.14a3.713,3.713,0,0,0-4.17-1.627l-16.124,3.853,2.694.772-.994,5.113.719-.941a12.1,12.1,0,0,1,7.16-4.5l8.088-1.677c-2.313,1.216-.913,5.356-.913,5.356l1.948-2.922,8.858,12.156a8.838,8.838,0,0,0-4.81,2.817,2.142,2.142,0,0,0,.365.48,7.73,7.73,0,0,1,4.957-2.594l.789,1.083a10.051,10.051,0,0,1,1.938-.3" fill="#0d7364" fill-rule="evenodd"/><path d="M216.666,82.989l2.772,2.772-7.195,7.2-8.108-8.107L190.316,98.668l-6.491-6.492-6.463,6.463a23.526,23.526,0,0,1,4.15,1.419l2.313-2.313,6.491,6.491,13.819-13.819,8.108,8.108,9.98-9.979L225,91.318l3.049-11.377Z" fill="#939393"/></svg>