<svg xmlns="http://www.w3.org/2000/svg" viewBox="0 0 300 300"><title>MSC17-collaboration-007</title><path d="M300,0V300H0V0Z" fill="#d2d2d2"/><path d="M136.543,232.816a8.8,8.8,0,0,0-6.323,2.672c.031-.407.051-.816.051-1.229a16.2,16.2,0,0,0-24.036-14.189l-7.587-2.165a24.438,24.438,0,0,0-46.976,13.067,13.126,13.126,0,1,0-11.475,19.5h96.346a8.827,8.827,0,1,0,0-17.653" fill="#fff"/><path d="M196.209,211.575A15.472,15.472,0,1,1,180.738,196.1a15.471,15.471,0,0,1,15.471,15.471" fill="#12856f"/><path d="M215.49,201.732l-.547-4.557a1.308,1.308,0,0,0-.3-.687l-2.83-3.326a1.3,1.3,0,0,0-.733-.431l-3.559-.719-.093.287a2.008,2.008,0,0,0,.03,1.318l-3.7-2.3a1.657,1.657,0,0,0-.444-.193l-4.681-1.246-.172.643a2.13,2.13,0,0,0,1.134,2.465l2.973,1.43,3.388,2.655,1.608,2.855-2.786-3.069a1.733,1.733,0,0,0-.642-.447l-6.3-2.54a1.838,1.838,0,0,0-.722-.171l-6.405-.2-.016,1a2.189,2.189,0,0,0,1.666,2.16l3.769.647,5.358,2.8,1.175,1.512-4.213-1.374a1.549,1.549,0,0,0-1.525.326l-4.95,4a1.569,1.569,0,0,0-.461.611l-1.671,3.952.309.142a2.805,2.805,0,0,0,3.515-1.011l1.242-1.894,3.74-1.4,3.923,1.518,3.033,5.048a3.49,3.49,0,0,1-1.676,5.028l-.866.352-5.41-.89-1.417-1.785a2.936,2.936,0,0,0-.229-.266,15.347,15.347,0,0,1-1.5,4.644l.96,1.418,8.757,3.985,20.616,2.184,2.923-10.978Zm-3.777-3.433,0,.895-2.271-4.082.806.317Z" fill="#b48f75"/><path d="M181.7,209.782a1.045,1.045,0,0,1-1.076,1.071c-.27,0-.675-.667-.675-1.071,0-.267.405-.939.675-.939a1.03,1.03,0,0,1,1.076.939m5.4-3.09c-.415-.672-2.569-1.475-2.837-1.075,0,0-1.078,1.075-1.753,1.075a5.66,5.66,0,0,1-1.885.268,4.989,4.989,0,0,1-1.752-.268c-.407,0-1.762-1.075-1.762-1.075-.407-.4-2.56.4-2.834,1.075,0,0-4.714,9.938-1.077,10.873,1.351.4,2.158-.935,2.829-1.753,1.082-.671,2.168-1.741,4.6-1.741a6.759,6.759,0,0,1,4.714,1.741c1.077.818,1.346,2.157,3.245,1.753,3.1-.935-1.484-10.873-1.484-10.873" fill="#fff"/><path d="M167.149,210.717l-1.382,1.812-5.392,1-.871-.336a3.487,3.487,0,0,1-1.773-4.994l2.933-5.1,3.894-1.595,3.492,1.233a15.6,15.6,0,0,1,2.2-2.518l-3.456-2.682.841-.187,3.809.355a2.188,2.188,0,0,0,2.169-1.653l.245-.97-6.239-1.469a1.8,1.8,0,0,0-.548-.036,2.2,2.2,0,0,0,.122-.462l.088-.659-4.8-.646a1.678,1.678,0,0,0-.485.007l-3.522.58-3.45-.595a1.307,1.307,0,0,0-.839.138l-3.841,2.077a1.308,1.308,0,0,0-.529.534l-2.157,4.051-11.764,13.443-6.67,4.035,4.167,8.975,5.4-1.812,20.569-2.583,8.678-4.153,4.149-6.385-1.432-.526a3.088,3.088,0,0,0-3.6,1.131" fill="#f8d5b9"/><path d="M170.748,209.586c-.043-.016-.086-.021-.13-.036l-4.024,5.239-6.314,2.147s-7.592,1.155-18.493,2.7A4.049,4.049,0,0,1,138,218.062a11.521,11.521,0,0,0-3.777-3.145l-1.731,1.538,3.086,7.856,3.207-1.078,20.57-2.582,8.677-4.155,4.149-6.384Z" fill="#e3c6b5"/><path d="M173.408,196.541l-6.681-1.189a2.556,2.556,0,0,0-1.269.1l-1.757.595a2.556,2.556,0,0,0-1.737,2.492v.063l5.667-1.257,3.809.354a2.182,2.182,0,0,0,1.967-1.154" fill="#e3c6b5"/><path d="M169.077,201.421l-3.161-1.706a2.544,2.544,0,0,0-2.162-.116l-3.553,1.507a2.944,2.944,0,0,0-1.735,2.126l-1.232,6.108.087-.013a3.441,3.441,0,0,1,.41-1.133l2.933-5.1,3.894-1.595,3.492,1.233a15.437,15.437,0,0,1,1.027-1.306" fill="#e3c6b5"/><path d="M156.209,140.366l-3.783-5.642,1.1-.358a3.155,3.155,0,0,1,3.411.991l2.543,3.086,5.064,2.435,7.371-.256.257,3.718-10.064-.577Z" fill="#d8b07f"/><path d="M192.507,140.541a14.139,14.139,0,0,0-10.413-4.4h0a14.117,14.117,0,0,0-5.8,1.331l-5.34,1.161-4.576-1.308a1.784,1.784,0,0,0-1.35,3.279l3.451,1.9-1.756.105-7.051-2.564-1.98-1.439a4.866,4.866,0,0,0-6.225.423l5.128,4.839,6.8,2.971,5.141,1.286a15.8,15.8,0,0,0,5.172.414l11.738-1,14.154,13.76h16.718v-2.726Z" fill="#ce9c5f"/><path d="M210.882,161.295,191.706,147.3a14.582,14.582,0,0,0-11.065-2.592l-9.015,1.551-8.366-1.058-6.127-3.108a2.847,2.847,0,0,1-.878-.69l-2.957-3.463a4.815,4.815,0,0,0-1.833,1.086l5.128,4.838,6.8,2.972,5.141,1.285a15.8,15.8,0,0,0,5.172.414l11.739-1,14.153,13.761Z" fill="#d8b07f"/><path d="M128.773,146.19A15.472,15.472,0,1,1,113.3,130.719a15.472,15.472,0,0,1,15.471,15.471" fill="#45a094"/><path d="M128.773,146.19A15.472,15.472,0,1,1,113.3,130.719a15.472,15.472,0,0,1,15.471,15.471" fill="#45a094"/><path d="M118.655,138.687a.693.693,0,0,0-.876-.669l-8.972,2.447a.7.7,0,0,0-.511.67v8.6a2.2,2.2,0,1,0,1.387,2.046v-.04h0v-7.627l7.585-2.069v5.244a2.2,2.2,0,1,0,1.387,2.046v-.041h0Z" fill="#fff"/><path d="M126.348,171.43l-8.343-10.32-4.621,4.769a3.488,3.488,0,0,1-5.289-.326l-.564-.745L107,159.35l1.36-1.828a3.088,3.088,0,0,0,.094-3.771l-.9-1.231-4.991,5.75-1.6,9.487,2.962,18.984L99.75,197.35l13.365,1.538,2.975-11.46-.019-.045Z" fill="#ce9c5f"/><path d="M132.736,162.709l-.3-.016a2,2,0,0,0-1.266.368l1.273-4.164a1.65,1.65,0,0,0,.071-.48v-4.843h-.665a2.127,2.127,0,0,0-2.09,1.73l-.618,3.24-1.694,3.957-2.344,2.29,2.249-3.483a1.758,1.758,0,0,0,.267-.736l.831-6.743a1.85,1.85,0,0,0-.02-.741l-.463-1.991a15.464,15.464,0,0,1-4.307,6.562l-.292,1.3-1.158,1.525.095-1.729a15.393,15.393,0,0,1-4.965,2.355l-.135.825.732.871a2.191,2.191,0,0,1-.154,2.989l-3.21,3.1a10.024,10.024,0,0,0-3.054,6.939l-.155,5.839a5.489,5.489,0,0,1-.358,1.805l-2.166,5.666.673,1.058,5.577.769,1-3.546,9.431-14.567,4.136-1.65a1.315,1.315,0,0,0,.587-.468l2.484-3.591a1.3,1.3,0,0,0,.229-.819Zm-2.6,3.518-2.4,2.153-.865.232,3.36-3.245Z" fill="#d8b07f"/><path d="M109.355,225.2a25.6,25.6,0,0,1,17.207,6.615c2.232-1.111,6.527-3.265,12.083-6.131-.566-8.888-7.837-14.681-7.837-14.681l-24.6,12.353c.412.264-.268,2.065.5,1.985a24.994,24.994,0,0,1,2.653-.141" fill="#df6c47"/><path d="M126.557,231.812c2.458-1.232,7.253-3.642,12.088-6.126a13.557,13.557,0,0,0-1.635-6.25l-17.13,8.025a25.678,25.678,0,0,1,6.677,4.351" fill="#d83b01"/><path d="M115.615,195.773l1.346-6.019-.2-.065a29.124,29.124,0,0,0-14.41-.8l-2.6,6.885,7.8,2.575Z" fill="#fff"/><path d="M112,188.628l-1.528,5.712,4.928,1.5.215-.069,1.346-6.019-.2-.065A29.033,29.033,0,0,0,112,188.628" fill="#e6e6e6"/><path d="M236.345,161.9a7.816,7.816,0,0,0-3.358.76c.011-.252.018-.5.018-.76a15.745,15.745,0,0,0-31.428-1.4,10.743,10.743,0,1,0-8.624,17.151h43.392a7.874,7.874,0,0,0,0-15.748" fill="#fff"/><path d="M185.183,119.779a15.471,15.471,0,1,1-15.47-15.47,15.471,15.471,0,0,1,15.47,15.47" fill="#df6c47"/><path d="M166.174,125.551,166.09,113a.831.831,0,0,1,1.282-.7l9.653,6.21a.831.831,0,0,1,.009,1.392l-9.568,6.339a.833.833,0,0,1-1.292-.688" fill="#fff"/><path d="M187.13,103.671l.221-3.624a1.3,1.3,0,0,0-.229-.819l-2.484-3.591a1.3,1.3,0,0,0-.588-.467l-4.262-1.7L170.465,79l.019-.045L167.51,67.493l-13.366,1.538,4.175,10.609-2.962,18.984,1.6,9.486,1.211,1.4a15.5,15.5,0,0,1,3.255-2.775l.5-5.159.563-.746a3.489,3.489,0,0,1,5.29-.325l3.809,3.932c.087.01.172.029.26.04l.485,4.439-2.317,3.253-2.15.714a2.8,2.8,0,0,0-1.88,3.136l.057.334,4.25-.6a1.575,1.575,0,0,0,.708-.288l5.137-3.755a1.556,1.556,0,0,0,.708-1.39l-.244-4.426,1.158,1.527,1.325,5.9-.344,3.809a2.188,2.188,0,0,0,1.659,2.165l.97.242,1.453-6.242a1.845,1.845,0,0,0,.02-.74l-.832-6.745a1.745,1.745,0,0,0-.267-.736L179.5,101.59l2.344,2.289,1.693,3.957.618,3.241a2.129,2.129,0,0,0,2.09,1.73h.665v-4.844a1.591,1.591,0,0,0-.072-.48l-1.271-4.163a2,2,0,0,0,1.267.367Zm-5.86-5.9.863.233,2.4,2.153.1.86Z" fill="#8e562e"/><path d="M158.319,79.639a15.814,15.814,0,0,0,7.761,1.944c4.487,8.013,13.654,11.923,13.654,11.923l-9.251-14.554-1.133-4.228-12.437,2.115Z" fill="#704322"/><path d="M175.747,111.1a3.262,3.262,0,0,0-3.022.535l-1.329,1.046a2.468,2.468,0,0,1-2,.478l-1.472-.3-.052.018a2.8,2.8,0,0,0-1.88,3.137l.057.334,4.249-.6a1.564,1.564,0,0,0,.708-.288l5.137-3.754a1.559,1.559,0,0,0,.379-.363Z" fill="#704322"/><path d="M170.009,70.607l1.346,6.02-.2.065a29.128,29.128,0,0,1-14.411.8l-2.6-6.885,7.805-2.575Z" fill="#fff"/><path d="M166.333,77.762a29.024,29.024,0,0,0,4.818-1.071l.2-.064-1.346-6.02-4.341-1.386-6.383,3Z" fill="#e6e6e6"/><path d="M153.315,71.572l.075.036a20.99,20.99,0,0,0,18.7-.036l-5.107-29.2H143.74Z" fill="#282828"/><path d="M160.14,42.369h-16.4l9.574,29.2.075.037a20.98,20.98,0,0,0,9.306,2.177ZM156.206,69.9a1.49,1.49,0,1,1,1.49-1.49,1.49,1.49,0,0,1-1.49,1.49" fill="#505050"/><path d="M198.768,45.065a6.518,6.518,0,0,0-2.922.693,11.4,11.4,0,0,0-20.5-5.78,16.711,16.711,0,0,0-33.356,1.489c0,.271.008.539.02.807a8.353,8.353,0,1,0-3.563,15.907h60.323a6.558,6.558,0,1,0,0-13.116" fill="#fff"/><path d="M103.558,141.478l-2.225-.428-2.72-2.922-.091-4.207,3.513-4.727a3.488,3.488,0,0,1,5.287-.365l.655.666.467,2.013a15.393,15.393,0,0,1,4.858-.789c.209,0,.414.011.621.019l.182-5.023-5.139-17.52,6.506-19.464a2.342,2.342,0,0,0-1.57-.8H97.587L97.006,107.3l-8.548,18.076-.506,1.041a9.638,9.638,0,0,0-.786,6.108l.4,1.982a1.723,1.723,0,0,0,2.339,1.258l.906-.368,1.216.832a.818.818,0,0,0,1.087-.15l1.214-1.47,0,5.5a1.555,1.555,0,0,0,.883,1.285l5.581,3.054a1.584,1.584,0,0,0,.74.193l4.292.038.013-.338a2.8,2.8,0,0,0-2.273-2.865" fill="#72594b"/><path d="M105.421,142.785,102,142.642a2.152,2.152,0,0,1-1.367-.566l-2.828-2.6a2.154,2.154,0,0,1-.648-1.126l-.865-3.951a1.691,1.691,0,0,0-2.314-1.191l.086,1.719-.949,1.149a.818.818,0,0,1-1.087.15l-1.216-.833-.907.369a1.721,1.721,0,0,1-2.338-1.257l-.4-1.983a9.694,9.694,0,0,1-.179-1.515l-.136,3.553.711,6.4a1.618,1.618,0,0,0,.124.469l1.918,4.448.611-.264a2.128,2.128,0,0,0,1.235-2.415l-.717-3.221-.006-2.267,2.021,5.475a1.852,1.852,0,0,0,.356.65l4.153,4.882.752-.661a2.186,2.186,0,0,0,.481-2.684l-2.052-3.228-.022-.087,4.37,2.391a1.581,1.581,0,0,0,.74.193l4.291.039.013-.34a2.775,2.775,0,0,0-.41-1.557" fill="#665042"/><path d="M105.876,117.34l5.167,8.907a4.884,4.884,0,0,1,.658,2.522l-.03,2.046a15.406,15.406,0,0,1,1.63-.1c.21,0,.415.011.622.019l.182-5.023-5.138-17.52,6.5-19.464a2.339,2.339,0,0,0-1.57-.8H97.587l8.847,5.833-2.209,10.075a20.553,20.553,0,0,0,1.651,13.5" fill="#665042"/><path d="M124.478,87.024a4.6,4.6,0,0,0-2.222.57,17.1,17.1,0,1,0-31.97-8.425c0,.552.028,1.1.079,1.634a8,8,0,1,0-2.889,15.462h37a4.621,4.621,0,0,0,0-9.241" fill="#fff"/><path d="M109.792,230.9l7.571-35.343c-5.884-2.943-12.472-3.7-18.366-.787l-.076.038L90.407,220.8a25.662,25.662,0,0,1,19.385,10.1" fill="#737373"/><path d="M109.785,230.892c1.906-8.968,5.94-27.917,7.578-35.334a22.007,22.007,0,0,0-7.8-2.469l-8.052,30.743a25.8,25.8,0,0,1,8.279,7.06" fill="#505050"/><path d="M103.3,197.975a1.491,1.491,0,1,1-1.49-1.49,1.49,1.49,0,0,1,1.49,1.49" fill="#939393"/><path d="M223.136,219.83a11.049,11.049,0,0,0-5.979-.258l-8.67,2.041a4.289,4.289,0,0,1-1.947-.194l-5.387-1.833a4.3,4.3,0,0,1-2.864-3.463l-.638-.106-1.417-1.785a3.147,3.147,0,0,0-.225-.261A15.339,15.339,0,0,1,194.5,218.6l.964,1.424,8.757,3.985,20.615,2.183,1.423-5.338Z" fill="#ab845f"/><path d="M227.76,215.219h0a15.554,15.554,0,0,0-2.975,10.08l.051.9,21.5,9.1V217.993Z"/><path d="M227.76,215.219a15.54,15.54,0,0,0-2.274,4.517l20.854,4.542V219.5l-.089-1.517Z" fill="#505050"/><path d="M217.47,231.513a5.377,5.377,0,0,1,2.411.572,9.4,9.4,0,0,1,16.914-4.768,13.786,13.786,0,0,1,27.518,1.228q0,.335-.016.666a6.891,6.891,0,1,1,2.94,13.122H217.47a5.41,5.41,0,0,1,0-10.82" fill="#fff"/></svg>