<svg xmlns="http://www.w3.org/2000/svg" viewBox="0 0 300 300"><title>MSC17-cloud-002</title><path d="M300,0V300H0V0Z" fill="#d2d2d2"/><path d="M184.171,161.378l2.575,2.708a3.707,3.707,0,0,0,3.433,1.076l5.63-1.16-3.44,4.787-11.919-1.908-2.079-1.888Z" fill="#f0beb4"/><path d="M188.545,175.44l-.546.582-2.861-2.683a6.2,6.2,0,0,0-.733-.59l-1.915-1.311a5.381,5.381,0,0,1-2.34-4.273.427.427,0,0,1,.453-.44l8.768.546a6.091,6.091,0,0,0,4.731-1.82l1.828-1.87a2.046,2.046,0,0,1,2.58-.287.637.637,0,0,1,.154.93l-4.124,5.237a3.068,3.068,0,0,1-3.036,1.1l-2.9-.607a4.272,4.272,0,0,0-2.85.393l-1.358.735,1.51,1.34a11.452,11.452,0,0,1,1.3,1.36Z"/><path d="M91.38,206.236a10.419,10.419,0,0,0-4.492,1.012,19.41,19.41,0,0,0-38.217-4.3,13.44,13.44,0,1,0-8.062,24.193H91.38a10.453,10.453,0,0,0,0-20.9" fill="#fff"/><path d="M260.322,191a12.052,12.052,0,0,0-4.182.743,30.476,30.476,0,1,0-59.949-10.37,18.657,18.657,0,0,0-29.513,14.517,10.3,10.3,0,1,0-4.978,19.322h98.622a12.106,12.106,0,0,0,0-24.212" fill="#fff"/><path d="M215.822,130.516a4.819,4.819,0,0,0-2.326.6,17.895,17.895,0,1,0-33.465-8.818c0,.577.03,1.147.083,1.71a8.375,8.375,0,1,0-3.024,16.185h38.732a4.837,4.837,0,1,0,0-9.673" fill="#f3f3f3"/><path d="M106.392,178.149l-3.405.945a3.5,3.5,0,0,0-2.423,2.388L99.029,186.7l-2.468-5,6.891-9.1,2.5-.9Z" fill="#f0beb4"/><path d="M98.066,106.881l2.9,4.157.57-.394a1.152,1.152,0,0,0,.315-1.566l-1.512-2.368,4.1-2.734-3.644-1.424-1.994,1.709Z" fill="#db9c94"/><path d="M203.06,93.788l-15.689,7.4a1.326,1.326,0,0,1-1.765-.634L175.3,78.723a1.328,1.328,0,0,1,.634-1.766l15.689-7.4a1.327,1.327,0,0,1,1.766.634l10.3,21.833a1.327,1.327,0,0,1-.633,1.766" fill="#505050"/><path d="M191.626,69.555,181.6,74.284l16.517,5.927-4.728-10.022a1.327,1.327,0,0,0-1.767-.634" fill="#737373"/><rect x="181.294" y="73.679" width="16.41" height="23.388" transform="translate(-18.311 89.025) rotate(-25.259)" fill="#00b294"/><polygon points="183.872 75.098 195.652 79.326 191.876 71.321 183.872 75.098" fill="#48c4ae"/><path d="M185.912,90.816a.732.732,0,0,0-.848-.521l-2.871.573-1.053.223-2.171-4.6-4.057,5.155,3.181,3.949.86-.812.674.5,1.465-.255a3.131,3.131,0,0,0,1.155-.45,1.79,1.79,0,0,0,.719-1l.341-1.134,2.14-.742a.729.729,0,0,0,.465-.886" fill="#f0beb4"/><path d="M181.14,91.091l-.86-1.824a3.572,3.572,0,0,0-1.75,1.536l-.582.962Z" fill="#db9c94"/><path d="M146.107,110.426l19.14-1.54a5.746,5.746,0,0,0,3.7-1.768l10.9-11.709a9.765,9.765,0,0,0-5.422-4.817l-.278-.1-8.918,10.066-16.057-.429Z" fill="#939393"/><path d="M151.978,105.385s4.333,14.938,1.024,30.751c-3.555-1.471-16.211,1.195-16.211,1.195l7.967-31.012Z" fill="#737373"/><path d="M149.286,106.442l-.093,3.658c.195.441,1.021,3.2,1.78,5.79a6.378,6.378,0,0,1-2.892,7.3l-.863.506s-2.112,7.515-3.279,10.133l-2,4.486L131.7,135.86l12.135-30.338Z" fill="#fff"/><path d="M138.752,149.037s-.02.168-.064.481a76.067,76.067,0,0,1-7.413,23.176c-9.56,2.329-25.778,5.868-25.778,5.868s-1.717-3.922-1.349-6.864c8.09-3.064,17.2-6.971,17.2-6.971s.491-10.787-1.471-19a65.572,65.572,0,0,1,19.857-.491Z" fill="#505050"/><path d="M118.037,136.289l.63,7.412a9.721,9.721,0,0,0,10.694,8.843l26.307-3.016c9.928,5.27,23.81,17.01,23.81,17.01s4.382-2.179,5.853-4.63c-5.271-6.987-23.15-21.988-23.15-21.988a4.227,4.227,0,0,0-2.955-1.16l-16.49.042-.123-2.022-19.3-4.965Z" fill="#737373"/><path d="M165.247,100.577l2.578.565a2.8,2.8,0,0,0,3.221-1.746l.643-1.7-6.442,2.885" fill="#737373"/><path d="M152.328,80.624c-5.378-.035-10.171,4.66-11.391,9.9-.508,2.183.043,5.352,1.433,8.219a1.477,1.477,0,0,1-.017,1.354l-2.865,5.243,3.948,4.613a2.714,2.714,0,0,0,4.6-.8l.367-.967a3.4,3.4,0,0,1,2.677-2.154l1.769-.26-.007-.027a10.408,10.408,0,0,0,9.738-7.529,35.167,35.167,0,0,0,.8-3.757c1.029-8.468-4.13-13.787-11.055-13.831" fill="#f0beb4"/><path d="M158.522,92a1.121,1.121,0,0,0-.674,1.543l1.4,2.94a1.105,1.105,0,0,1-1.127,1.573l-1.249-.146a.79.79,0,0,0-.877.691l-.473,3.9a2.972,2.972,0,0,1-.01.365,3.191,3.191,0,0,1-2.811,2.8l-1.169-.056-.737-.113a2.867,2.867,0,0,0-3.266,2.387l-.39,2.468a2.682,2.682,0,0,0,.9-1.2l.368-.967a3.392,3.392,0,0,1,2.676-2.154l1.769-.261-.007-.026c.24,0,.487-.012.737-.034a9.728,9.728,0,0,0,1.84-.356c.054-.016.109-.029.164-.046.147-.045.295-.1.443-.153.086-.031.173-.059.26-.093.134-.052.266-.111.4-.168.1-.044.2-.087.3-.134.124-.059.248-.123.371-.188.108-.055.215-.11.32-.169s.234-.138.35-.209.22-.134.327-.206.219-.151.329-.228.219-.16.327-.244.205-.163.306-.248.216-.185.322-.281.191-.177.283-.267.209-.212.311-.321c.088-.094.175-.188.259-.285.1-.117.2-.24.3-.363.078-.1.157-.2.233-.3.1-.131.185-.269.274-.406.07-.105.14-.208.205-.316.089-.15.172-.306.255-.462.056-.106.116-.208.168-.317.087-.179.165-.368.242-.556.04-.095.084-.185.12-.282.11-.289.209-.586.294-.9a34.931,34.931,0,0,0,.8-3.756c.066-.537.1-1.061.122-1.573A5.348,5.348,0,0,0,158.522,92" fill="#db9c94"/><path d="M152.526,93.173a1.042,1.042,0,1,1-.914-1.155,1.042,1.042,0,0,1,.914,1.155"/><path d="M162.144,94.3a1.041,1.041,0,1,1-.914-1.155,1.042,1.042,0,0,1,.914,1.155"/><path d="M153.477,91.219a.365.365,0,0,1-.216-.071,3.3,3.3,0,0,0-3.126-.422l-.625.238a.367.367,0,1,1-.261-.687l.624-.238a4.033,4.033,0,0,1,3.822.516.367.367,0,0,1-.218.664" fill="#c48c00"/><path d="M163.278,93.15a.369.369,0,0,1-.254-.1,3.3,3.3,0,0,0-3.044-.824l-.651.155a.368.368,0,1,1-.169-.716l.65-.154a4.03,4.03,0,0,1,3.721,1.007.368.368,0,0,1-.253.634" fill="#c48c00"/><path d="M144.054,111.929c-.139-4.278-.817-8.653-2.24-10.849l.539-.985a1.474,1.474,0,0,0,.017-1.354l0-.008a15.263,15.263,0,0,0-3.324.723c-.025-.01-.047-.027-.073-.037l-14.9-6.536a5.919,5.919,0,0,0-4.93.08L105.9,99.394l3.709,6.589,11.859-4.69,8.9,4.561a35.117,35.117,0,0,0-8.392,21.454A32.226,32.226,0,0,0,112.4,135.8s5.761,13.177,20.592,3.984c0,0,4.707-9.508,9.062-17.839a18.209,18.209,0,0,0,2-10.015" fill="#939393"/><path d="M142.736,138.8h-7.478s2.023-2.115,7.356-2.022c.091,1.379.122,2.022.122,2.022" fill="#505050"/><path d="M156.587,149.007l8.182-.184s-5.056-3.862-8.182.184" fill="#505050"/><path d="M111.537,106.432l-1.22-1.168.063-.755a4.362,4.362,0,0,0-2.79-4.438l-.811-.31-7.974.342L96.3,105.8l.8,3.987.875-.206a1.416,1.416,0,0,0,1.092-1.338l.083-2.784,1.822,4.556.671-.168a1.232,1.232,0,0,0,.907-1.45l-.667-3.166.912-1.367,2.631,1.316a5.369,5.369,0,0,0,2.11.543,1.314,1.314,0,0,0,.12.568l.013.028a2.145,2.145,0,0,0,.958,1l1.624.845a1.088,1.088,0,0,0,1.288-1.732" fill="#f0beb4"/><path d="M87.572,182.2a1.494,1.494,0,1,1-1.493-1.494,1.493,1.493,0,0,1,1.493,1.494" fill="#fff"/><path d="M87.429,197.51a1.135,1.135,0,0,1-.188.033,1.363,1.363,0,0,1-1.5-1.215,8.151,8.151,0,0,1,1.762-5.661,8.778,8.778,0,0,1,6.443-2.846,1.365,1.365,0,1,1,.174,2.725,6.187,6.187,0,0,0-4.53,1.883,5.412,5.412,0,0,0-1.134,3.614,1.363,1.363,0,0,1-1.027,1.467" fill="#fff"/><path d="M92.708,175.55l-.243-.716,3.512-1.194a5.838,5.838,0,0,0,.817-.35l1.946-1.016a5.1,5.1,0,0,1,4.609-.056.405.405,0,0,1,.165.575l-4.352,7.078a5.749,5.749,0,0,0-.583,4.757l.748,2.358a1.937,1.937,0,0,1-.907,2.282.6.6,0,0,1-.847-.285l-2.538-5.772a2.9,2.9,0,0,1,.428-3.024l1.8-2.155a4.05,4.05,0,0,0,.939-2.554l-.01-1.46-1.79.666a10.88,10.88,0,0,1-1.714.481Z"/><path d="M142.459,116.538a31.887,31.887,0,0,1-1.767-2.74c-.548-.931-1.069-1.876-1.555-2.836-.506-.951-.949-1.932-1.415-2.9-.431-.986-.883-1.963-1.273-2.966l-.243-.623.54-.27c.783-.39,1.589-.74,2.391-1.1l-.223.665a36.85,36.85,0,0,1-1.071-3.579,36.615,36.615,0,0,1,2.006,3.152l.22.378-.443.287c-.737.478-1.47.961-2.224,1.4l.3-.892c.507.951.953,1.93,1.42,2.9.43.985.885,1.961,1.276,2.965.411.994.788,2,1.138,3.028a32.522,32.522,0,0,1,.926,3.125" fill="#737373"/><path d="M152.4,99.559l.118-.255a13.019,13.019,0,0,0,3.245.92,14.641,14.641,0,0,0,2.634-.08l-.06.424c-.29.834-1.732.955-2.934.858-.9-.072-2.764-.841-3-1.867" fill="#fff"/><path d="M189.779,194.789a1.859,1.859,0,0,1-1.664-2.677A21.1,21.1,0,0,1,207.9,180.358a1.857,1.857,0,1,1-.152,3.71,17.385,17.385,0,0,0-16.3,9.684,1.856,1.856,0,0,1-1.667,1.037" fill="#e6e6e6"/><path d="M158.381,79.07h0l-2.7-1.756c-6.776-4.365-20.366-4.157-24.661-1.977.32,5.833,6.09,8.189,6.09,8.189s-2.243,3.141-6.987,1.923c1.217,7.115,4.714,12.058,12.179,12.115l.008,0,.027.009.026-.029a5.91,5.91,0,0,0,3.484-3.2,4.657,4.657,0,0,0,2.8-4.977c3.343-.13,10.672-.827,12.185-4.349a.411.411,0,0,1,.3-.243,10.97,10.97,0,0,1,1.69,3.186c.35-1.009,1.337-5.176-4.435-8.89M142.392,92.3a2.231,2.231,0,0,1-.109-1.126l.168-1.309a2,2,0,0,1,3.879-.306,16.429,16.429,0,0,1-3.938,2.741" fill="#c48c00"/></svg>