<svg xmlns="http://www.w3.org/2000/svg" viewBox="0 0 300 300"><title>MSC17-cloud-004</title><path d="M300,0V300H0V0Z" fill="#c2c2c2"/><rect x="99.362" y="141.473" width="12.003" height="4.934" fill="#e6e6e6"/><rect x="94.105" y="174.772" width="30.513" height="12.158" fill="#e6e6e6"/><polygon points="178.317 179.618 175.769 177.016 170.913 178.476 171.433 179.618 142.327 179.618 144.153 181.294 144.418 184.563 145 190.283 191.413 190.283 191.413 179.618 178.317 179.618" fill="#e6e6e6"/><polygon points="170.914 149.454 183.497 149.454 178.476 154.133 171.765 153.417 170.914 149.454" fill="#e6e6e6"/><polygon points="105.385 126.291 134.142 126.291 137.616 138.95 105.385 138.95 105.385 126.291" fill="#e6e6e6"/><polygon points="183.497 148.027 150.104 148.027 151.538 144.997 151.411 136.407 160.58 132.802 183.497 132.802 183.497 148.027" fill="#e6e6e6"/><rect x="96.667" y="148.72" width="38.685" height="22.775" fill="#e6e6e6"/><path d="M179.067,158.439a9.706,9.706,0,0,1,1.627,2.086.826.826,0,0,1-.517,1.263l-4.744,1.11c-.592.148-.96-.222-.812-.814l1.11-4.755a.757.757,0,0,1,1.183-.524,9.322,9.322,0,0,1,2.153,1.634m-4.3-1.406-2.525,4.083c-.367.517-.887.517-1.182,0l-2.522-4.083a.774.774,0,0,1,.444-1.266,11.362,11.362,0,0,1,2.669-.375,11.18,11.18,0,0,1,2.6.375.829.829,0,0,1,.519,1.266m-10.53,1.479a9.317,9.317,0,0,1,2.154-1.634.789.789,0,0,1,1.185.6l1.11,4.682c.148.591-.223.961-.815.814l-4.742-1.11a.764.764,0,0,1-.519-1.19,9.337,9.337,0,0,1,1.627-2.16m-1.406,4.312,4.15,2.6a.6.6,0,0,1,0,1.117l-4.15,2.523a.77.77,0,0,1-1.258-.445,11.352,11.352,0,0,1-.376-2.676,11.085,11.085,0,0,1,.376-2.6.822.822,0,0,1,1.258-.524m1.481,10.552a11.205,11.205,0,0,1-1.554-2.078.812.812,0,0,1,.519-1.264l4.742-1.117c.592-.148.888.222.815.82l-1.186,4.755a.758.758,0,0,1-1.183.519,11.1,11.1,0,0,1-2.153-1.635M171.8,168.4a2.563,2.563,0,1,1,0-5.125,2.563,2.563,0,0,1,0,5.125m-3.188,6.39,2.6-4.163a.59.59,0,0,1,1.11,0l2.6,4.163a.827.827,0,0,1-.519,1.264,11.319,11.319,0,0,1-2.6.37,11.5,11.5,0,0,1-2.669-.37.827.827,0,0,1-.519-1.264m10.6-1.487a16.287,16.287,0,0,1-2.153,1.635.852.852,0,0,1-1.259-.592l-1.11-4.681a.677.677,0,0,1,.815-.895l4.742,1.191a.763.763,0,0,1,.519,1.19,10.49,10.49,0,0,1-1.554,2.152m2.965-7.506a11.583,11.583,0,0,1-.368,2.677.829.829,0,0,1-1.266.519l-4.075-2.6a.6.6,0,0,1,0-1.116l4.075-2.6a.829.829,0,0,1,1.266.518,11.389,11.389,0,0,1,.368,2.6m5.928.9v-1.709a.574.574,0,0,0-.518-.6l-2.447-.37a14.287,14.287,0,0,0-.371-1.708l2.153-1.265a.675.675,0,0,0,.221-.815l-.592-1.486a.648.648,0,0,0-.739-.376l-2.449.6a6.9,6.9,0,0,0-.887-1.338l1.478-1.93a.787.787,0,0,0,0-.895l-1.183-1.191a.783.783,0,0,0-.889,0l-1.931,1.487a10.287,10.287,0,0,0-1.478-.963l.664-2.454a.7.7,0,0,0-.443-.74l-1.487-.6a.623.623,0,0,0-.815.295l-1.258,2.086c-.516-.075-1.035-.223-1.554-.3l-.376-2.457a.57.57,0,0,0-.591-.516h-1.7a.571.571,0,0,0-.591.516l-.371,2.457a13.754,13.754,0,0,0-1.709.369l-1.259-2.159a.669.669,0,0,0-.812-.22l-1.486.6a.648.648,0,0,0-.371.743l.592,2.453a4.9,4.9,0,0,0-1.259.888l-2-1.487a.792.792,0,0,0-.9,0l-1.11,1.191a.682.682,0,0,0-.073.895l1.479,1.93a17.62,17.62,0,0,0-.962,1.486l-2.366-.6a.757.757,0,0,0-.823.376l-.591,1.486a.623.623,0,0,0,.3.815l2.153,1.265a12.243,12.243,0,0,0-.37,1.56l-2.449.37a.573.573,0,0,0-.517.6v1.709a.571.571,0,0,0,.517.592l2.449.369c.147.6.223,1.117.37,1.71l-2.153,1.264a.683.683,0,0,0-.22.82l.591,1.486a.748.748,0,0,0,.82.37l2.368-.592q.445.666.888,1.332l-1.479,1.937a.674.674,0,0,0,.073.888l1.11,1.117a.683.683,0,0,0,.9.074l2-1.487a10.047,10.047,0,0,0,1.406.968l-.591,2.449a.655.655,0,0,0,.371.746l1.487.592a.618.618,0,0,0,.811-.3l1.259-2.078c.519.074,1.043.222,1.561.3l.371,2.448a.571.571,0,0,0,.591.524h1.7a.571.571,0,0,0,.591-.524l.376-2.448a13.916,13.916,0,0,0,1.7-.37l1.258,2.152a.681.681,0,0,0,.823.222l1.478-.592a.658.658,0,0,0,.371-.746l-.592-2.448c.444-.3.888-.6,1.331-.9l1.931,1.487a.676.676,0,0,0,.889-.074l1.183-1.117a.776.776,0,0,0,0-.888l-1.478-1.937a16.24,16.24,0,0,0,.96-1.486l2.448.6a.652.652,0,0,0,.743-.37l.591-1.486a.678.678,0,0,0-.223-.82l-2.153-1.265c.075-.517.223-1.036.3-1.561l2.447-.369a.573.573,0,0,0,.518-.592" fill="#df6c47"/><path d="M263.846,168.836a26.111,26.111,0,0,0-26.071-26.144,18.605,18.605,0,0,0-2.733.129,26.542,26.542,0,0,0,2.733-11.531,26.108,26.108,0,0,0-52.036-3.2,26.243,26.243,0,0,0-9.366-6.542v73.425h61.4a26.179,26.179,0,0,0,26.071-26.135" fill="#fff"/><path d="M135.367,160.122,124.7,164.13a11.389,11.389,0,0,0,18.707,4.03Z" fill="#1070c4"/><path d="M127.3,152.055a11.356,11.356,0,0,0-3.335,8.053v.014h11.4Z" fill="#b2b2b2"/><path d="M123.964,160.122a11.342,11.342,0,0,0,.734,4.008l10.669-4.008Z" fill="#fff"/><path d="M143.4,168.16a11.388,11.388,0,0,0-16.1-16.1l8.068,8.067Z" fill="#df6c47"/><path d="M144.879,184.447V182.3a2.685,2.685,0,1,0-5.37,0v2.144h-1.568v5.836h8.507v-5.836Zm-4.393-2.144a1.709,1.709,0,0,1,3.417,0v2.144h-3.417Z" fill="#1070c4"/><path d="M160.841,133.331a.665.665,0,0,0-.841-.642l-8.622,2.351a.667.667,0,0,0-.491.643v8.262a2.116,2.116,0,1,0,1.333,1.965v-.039h0v-7.328l7.289-1.989v5.04a2.116,2.116,0,1,0,1.332,1.965v-.039h0Z" fill="#021760"/><path d="M145.271,130.385a4.095,4.095,0,0,0-7.612-2.1,4.093,4.093,0,1,0-6.309,5.086h0l6.271,5.575,6.151-5.395c.024-.019.045-.04.068-.06l.138-.12h0a4.084,4.084,0,0,0,1.3-2.99" fill="#df6c47"/><path d="M129.753,174.771h-6.788a3.784,3.784,0,0,0-3.772,3.773v2a3.784,3.784,0,0,0,3.772,3.773h1.654v2.611l2.611-2.611h2.523a3.784,3.784,0,0,0,3.773-3.773v-2a3.784,3.784,0,0,0-3.773-3.773" fill="#df6c47"/><path d="M127.4,179.651a1.045,1.045,0,1,1-1.044-1.045,1.045,1.045,0,0,1,1.044,1.045" fill="#fff"/><path d="M123.92,179.651a1.045,1.045,0,1,1-1.044-1.045,1.046,1.046,0,0,1,1.044,1.045" fill="#fff"/><path d="M130.888,179.651a1.045,1.045,0,1,1-1.044-1.045,1.045,1.045,0,0,1,1.044,1.045" fill="#fff"/><path d="M103.984,146.112l1.137,1.1a.925.925,0,0,1,.287,1.09.008.008,0,0,1,0,.01,5.6,5.6,0,0,0-.24.814c-.057.321-.231.6-.779.745l-1.591.334a.625.625,0,0,0-.475.592l.152,1.332a.628.628,0,0,0,.588.473l1.586-.027a.935.935,0,0,1,.946.514,6.325,6.325,0,0,0,.5.9.92.92,0,0,1-.082.986l-.89,1.361a.627.627,0,0,0,.085.757l1.048.835a.626.626,0,0,0,.751-.083l1.1-1.139a.934.934,0,0,1,1.073-.29,6.191,6.191,0,0,0,.829.238.9.9,0,0,1,.756.782l.336,1.594a.615.615,0,0,0,.59.472l1.331-.143a.642.642,0,0,0,.477-.595l-.029-1.583a.928.928,0,0,1,.573-.976s.006,0,.014-.007a6.683,6.683,0,0,0,.708-.393l.017,0a.9.9,0,0,1,1.085.014l1.368.893a.624.624,0,0,0,.748-.084l.838-1.047a.636.636,0,0,0-.083-.755l-1.135-1.1a.92.92,0,0,1-.285-1.092c0-.014,0-.021,0-.034a6.613,6.613,0,0,0,.216-.743c0-.011.009-.018.013-.03a.908.908,0,0,1,.784-.76l1.595-.334a.615.615,0,0,0,.468-.592l-.15-1.333a.622.622,0,0,0-.588-.471l-1.585.02a.918.918,0,0,1-.974-.57.188.188,0,0,0-.023-.033,6.937,6.937,0,0,0-.371-.66.079.079,0,0,0-.011-.039.906.906,0,0,1,.016-1.091l.889-1.364a.614.614,0,0,0-.09-.753l-1.041-.837a.619.619,0,0,0-.751.085l-1.108,1.139a.925.925,0,0,1-1.09.283.173.173,0,0,0-.035-.008,6.133,6.133,0,0,0-.744-.212.094.094,0,0,0-.03-.012.917.917,0,0,1-.757-.787l-.337-1.59a.632.632,0,0,0-.59-.478l-1.33.153a.626.626,0,0,0-.473.592l.024,1.584a.926.926,0,0,1-.573.974.024.024,0,0,0-.016.012,5.929,5.929,0,0,0-.705.388l-.017.006a.909.909,0,0,1-1.092-.019l-1.359-.89a.626.626,0,0,0-.755.086l-.834,1.047a.636.636,0,0,0,.081.754m9.446,1.773a3.314,3.314,0,1,1-4.657.522,3.309,3.309,0,0,1,4.657-.522" fill="#1070c4"/><path d="M97.317,119.526a26.076,26.076,0,0,0-26.074,24.713,28.279,28.279,0,0,0-9.014-1.546,26.139,26.139,0,0,0,0,52.277h45.16V121.546a25.789,25.789,0,0,0-10.072-2.02" fill="#fff"/></svg>