<svg xmlns="http://www.w3.org/2000/svg" viewBox="0 0 300 300"><title>MSC17-collaboration-006</title><path d="M300,0V300H0V0Z" fill="#00b294"/><path d="M198.6,82.828H125.017a1.67,1.67,0,0,1-1.67-1.669v-48.1a1.669,1.669,0,0,1,1.67-1.668H198.6a1.669,1.669,0,0,1,1.669,1.668V81.159a1.669,1.669,0,0,1-1.669,1.669" fill="#282828"/><path d="M123.348,62.3l30.934-30.934H125.159a1.811,1.811,0,0,0-1.811,1.811Z" fill="#505050"/><rect x="127.624" y="35.662" width="68.369" height="42.89" fill="#edac28"/><polygon points="149.982 35.662 127.624 35.662 127.624 58.02 149.982 35.662" fill="#fec94e"/><path d="M163.214,33.7a.836.836,0,1,1-.836-.835.836.836,0,0,1,.836.835" fill="#505050"/><path d="M230.587,158.588H143.276a2.344,2.344,0,0,1-2.344-2.343V100.261a2.344,2.344,0,0,1,2.344-2.344h87.311a2.343,2.343,0,0,1,2.343,2.344v55.984a2.342,2.342,0,0,1-2.343,2.343" fill="#e6e6e6"/><path d="M140.932,136.713V99.877a1.961,1.961,0,0,1,1.961-1.96l36.972.008Z" fill="#fff"/><path d="M240.41,163.575H133.454a4.986,4.986,0,0,1-4.987-4.986H245.4a4.986,4.986,0,0,1-4.986,4.986" fill="#fff"/><rect x="145.918" y="102.904" width="82.026" height="50.699" fill="#0d7364"/><polygon points="145.918 102.903 145.918 131.871 174.886 102.903 145.918 102.903" fill="#42787a"/><path d="M224.114,183.524h-24.22A3.892,3.892,0,0,0,196,187.415v57.758a3.893,3.893,0,0,0,3.892,3.892h24.22a3.893,3.893,0,0,0,3.892-3.892V187.415a3.892,3.892,0,0,0-3.892-3.891"/><rect x="198.054" y="191.012" width="27.901" height="50.337" fill="#df6c47"/><path d="M209.238,187.882a.41.41,0,0,1,0-.82h5.485a.409.409,0,0,1,.372.241l3.781-3.781H199.684A3.682,3.682,0,0,0,196,187.2V206.4l18.513-18.514Z" fill="#505050"/><polygon points="198.053 204.345 211.387 191.011 198.053 191.011 198.053 204.345" fill="#ed8422"/><path d="M107.021,150.435H85.556a4.566,4.566,0,0,1-4.566-4.566V88.905a4.565,4.565,0,0,1,4.566-4.565h21.465a4.565,4.565,0,0,1,4.566,4.565v56.964a4.566,4.566,0,0,1-4.566,4.566" fill="#e6e6e6"/><path d="M102.619,84.34H85.556a4.565,4.565,0,0,0-4.566,4.565v17.063Z" fill="#f3f3f3"/><path d="M107.812,147.2H84.766a2.259,2.259,0,0,1-2.26-2.26V90.23a2.26,2.26,0,0,1,2.26-2.26h23.046a2.26,2.26,0,0,1,2.26,2.26v54.71a2.26,2.26,0,0,1-2.26,2.26" fill="#df6c47"/><path d="M88.515,86.606a.7.7,0,1,1-.7-.7.7.7,0,0,1,.7.7" fill="#b2b2b2"/><path d="M102.837,86.606a.7.7,0,1,1-.7-.7.7.7,0,0,1,.7.7" fill="#b2b2b2"/><path d="M90.521,86.606a.387.387,0,1,1-.386-.387.386.386,0,0,1,.386.387" fill="#b2b2b2"/><path d="M91.781,86.606a.387.387,0,1,1-.386-.387.386.386,0,0,1,.386.387" fill="#b2b2b2"/><path d="M105.1,86.606a.387.387,0,1,1-.386-.387.386.386,0,0,1,.386.387" fill="#b2b2b2"/><path d="M86.4,86.606a.387.387,0,1,1-.387-.387.386.386,0,0,1,.387.387" fill="#b2b2b2"/><path d="M98.392,86.921H94.184a.315.315,0,0,1,0-.63h4.208a.315.315,0,0,1,0,.63" fill="#b2b2b2"/><path d="M82.505,104.453,98.988,87.97H84.694a2.19,2.19,0,0,0-2.189,2.189Z" fill="#ed8422"/><path d="M177.289,238.588v-65.08a3.01,3.01,0,0,0-3.011-3.01H61.227a3.011,3.011,0,0,0-3.011,3.01v65.08a3.011,3.011,0,0,0,3.011,3.011h53.906v17.95H94.978v2.54h45.549v-2.54H120.372V241.6h53.906a3.01,3.01,0,0,0,3.011-3.011" fill="#282828"/><path d="M58.216,173.51v32.865L94.081,170.51,61.228,170.5a3.011,3.011,0,0,0-3.012,3.011" fill="#505050"/><rect x="63.226" y="175.408" width="109.052" height="60.328" fill="#edac28"/><polygon points="89.182 175.409 63.227 175.409 63.227 201.363 89.182 175.409" fill="#fec94e"/><polygon points="176.464 227.598 149.84 229.639 148.336 210.019 147.726 202.065 174.349 200.023 176.464 227.598" fill="#fff"/><rect x="152.809" y="218.815" width="4.888" height="7.382" transform="translate(-16.562 12.525) rotate(-4.386)" fill="#48c4ae"/><rect x="159.881" y="210.018" width="4.888" height="15.624" transform="translate(-16.152 13.025) rotate(-4.377)" fill="#edac28"/><rect x="167.008" y="202.692" width="4.889" height="22.393" transform="translate(-15.862 13.586) rotate(-4.386)" fill="#df6c47"/><path d="M147.873,196.68a1.842,1.842,0,0,0-.549-.036,2.143,2.143,0,0,0,.122-.461l.089-.66-4.8-.646a1.684,1.684,0,0,0-.486.007l-3.522.58-3.449-.595a1.31,1.31,0,0,0-.84.138l-3.84,2.077a1.317,1.317,0,0,0-.53.534l-2.156,4.05-11.764,13.444-6.67,4.035,4.167,8.975,5.4-1.812,15.059-1.89,5.511-.693,6.821-3.264,1.857-.889.238-.367,3.91-6.018-1.431-.526a3.088,3.088,0,0,0-2.456.141h0a3.16,3.16,0,0,0-.554.369c-.043.036-.086.072-.127.111a3,3,0,0,0-.462.51l-1.381,1.812-5.393.994-.333-.128-.538-.207a3.456,3.456,0,0,1-1.27-.843,3.493,3.493,0,0,1-.681-3.8,3.347,3.347,0,0,1,.178-.354l1.024-1.782,1.909-3.324,3.9-1.594,3.19,1.126-.279-3.632,1.095-.084-1.773-1.377.841-.187,3.808.355a2.19,2.19,0,0,0,2.17-1.653l.244-.97Z" fill="#f8d5b9"/><path d="M151.7,200.772a2.185,2.185,0,0,0,1.968-1.154l-6.681-1.189a2.559,2.559,0,0,0-1.27.1l-1.756.595a2.557,2.557,0,0,0-1.738,2.491l2.91-1.408a1.573,1.573,0,0,1,1.707.221l.211.18.841-.186Z" fill="#e3c6b5"/><path d="M195.746,204.809l-.547-4.556a1.307,1.307,0,0,0-.3-.689l-2.83-3.324a1.3,1.3,0,0,0-.732-.433l-3.56-.718-.093.287a2.008,2.008,0,0,0,.03,1.318l-3.7-2.3a1.645,1.645,0,0,0-.445-.193l-4.68-1.247-.172.644a2.128,2.128,0,0,0,1.133,2.464l2.973,1.431,3.388,2.655L187.823,203l-2.786-3.069a1.737,1.737,0,0,0-.642-.447l-6.3-2.539a1.857,1.857,0,0,0-.721-.173l-6.405-.2-.017,1a2.191,2.191,0,0,0,1.666,2.161l3.769.647,5.358,2.8,1.176,1.513-4.214-1.375a1.552,1.552,0,0,0-1.525.327l-2.4,1.94.306,3.983.082-.125,3.739-1.4,3.923,1.518,3.033,5.048a3.489,3.489,0,0,1-1.676,5.028l-.866.352-5.41-.89-1.417-1.786a3.086,3.086,0,0,0-3.62-1.06l-1.421.553,4.272,6.3,8.756,3.985,20.616,2.183,2.923-10.977Zm-6.045-6.62.805.317,1.464,2.871,0,.894Z" fill="#b48f75"/><polygon points="178.903 208.038 174.801 205.908 175.081 209.565 178.903 208.038" fill="#ab845f"/><path d="M203.392,222.907a11.049,11.049,0,0,0-5.979-.258l-8.67,2.041a4.291,4.291,0,0,1-1.947-.194l-9.432-2.485a2.753,2.753,0,0,1-1.472-.972l-3.566-4.58-.877.343,4.272,6.3,8.756,3.984,20.615,2.184,1.423-5.339Z" fill="#ab845f"/><path d="M208.016,218.3h0a15.559,15.559,0,0,0-2.975,10.08l.052.9,21.5,9.1V221.07Z"/><path d="M168,132.674l-3.782-5.642,1.1-.358a3.151,3.151,0,0,1,3.411.991l2.543,3.085,5.063,2.436,7.373-.256.256,3.717L173.9,136.07Z" fill="#ba8c57"/><path d="M210,137.219c-.319-.24-.643-.469-.971-.69l.189-.009-4.919-3.672a14.106,14.106,0,0,0-16.216-3.067l-5.339,1.162-4.576-1.308a1.784,1.784,0,0,0-1.35,3.279l3.45,1.9-1.755.106-7.051-2.564-1.98-1.439a4.863,4.863,0,0,0-6.225.424l5.128,4.838,6.795,2.972,5.14,1.285a15.833,15.833,0,0,0,5.173.414l11.738-1L211.387,153.6h16.719v-2.727Z" fill="#ce9c5f"/><path d="M222.677,153.6,203.5,139.612a14.581,14.581,0,0,0-11.065-2.592l-9.016,1.55-8.365-1.057-6.127-3.108a2.862,2.862,0,0,1-.878-.69l-2.957-3.463a4.833,4.833,0,0,0-1.833,1.085l5.128,4.839,6.795,2.971,5.14,1.286a15.835,15.835,0,0,0,5.173.414l11.738-1,14.153,13.76Z" fill="#ba8c57"/><path d="M196.946,112.064A15.545,15.545,0,1,1,181.4,96.52a15.544,15.544,0,0,1,15.544,15.544" fill="#df6c47"/><path d="M181.4,96.52v15.544h15.545a15.54,15.54,0,0,0-15.208-15.537Z" fill="#edac28"/><path d="M181.4,112.064l9.536,12.277a14.7,14.7,0,0,0,3.771-4.237l-13.307-8.04" fill="#fff"/><path d="M194.709,120.1l-13.307-8.04h15.544s.148,5-2.237,8.04" fill="#48c4ae"/><rect x="82.711" y="132.425" width="37.931" height="27.973" transform="translate(-54.693 60.836) rotate(-26.531)" fill="#fff"/><rect x="87.693" y="153.558" width="37.931" height="5.666" transform="translate(-58.624 64.11) rotate(-26.53)" fill="#e6e6e6"/><rect x="84.367" y="146.907" width="37.931" height="5.643" transform="translate(-56.003 61.931) rotate(-26.534)" fill="#e6e6e6"/><rect x="77.729" y="133.6" width="37.931" height="5.665" transform="translate(-50.758 57.557) rotate(-26.53)" fill="#e6e6e6"/><rect x="81.045" y="140.254" width="37.931" height="5.643" transform="translate(-53.381 59.747) rotate(-26.534)" fill="#e6e6e6"/><polygon points="111.498 132.667 105.706 137.797 108.149 138.612 106.032 144.953 98.887 142.567 94.82 154.743 89.101 152.833 86.93 159.333 88.564 162.605 90.735 156.106 96.454 158.016 100.521 145.839 107.666 148.225 110.602 139.432 113.045 140.248 111.498 132.667" fill="#df6c47"/><path d="M120.45,171.43l-8.343-10.32-4.621,4.769a3.488,3.488,0,0,1-5.289-.326l-.563-.745-.533-5.458,1.362-1.828a3.091,3.091,0,0,0,.093-3.771l-.9-1.231-4.992,5.75-1.6,9.487,2.961,18.984L93.852,197.35l13.365,1.538,2.976-11.46-.02-.045Z" fill="#ce9c5f"/><path d="M126.838,162.709l-.3-.016a2,2,0,0,0-1.267.368l1.272-4.164a1.617,1.617,0,0,0,.071-.48v-4.843h-.665a2.128,2.128,0,0,0-2.09,1.73l-.617,3.24-1.694,3.957-2.344,2.29,2.248-3.483a1.744,1.744,0,0,0,.267-.736l.832-6.743a1.85,1.85,0,0,0-.02-.741l-.3-1.3-3.545,1.769-1.214,5.407-1.159,1.524.244-4.424a1.542,1.542,0,0,0-.486-1.2l-4.34,2.167.313.441-.736,4.469.733.871a2.193,2.193,0,0,1-.154,2.989l-3.21,3.1a10.021,10.021,0,0,0-3.055,6.939l-.155,5.839a5.438,5.438,0,0,1-.358,1.805l-2.166,5.666.673,1.058,5.577.769,1-3.546,9.431-14.567,4.136-1.65a1.3,1.3,0,0,0,.587-.468l2.485-3.591a1.3,1.3,0,0,0,.228-.819Zm-2.6,3.518-2.4,2.153-.863.232,3.36-3.245Z" fill="#ba8c57"/><path d="M140.536,220.013s-7.59,1.155-18.489,2.7a4.059,4.059,0,0,1-3.794-1.578,11.51,11.51,0,0,0-3.775-3.142l-1.731,1.538,3.086,7.855,3.207-1.077,20.569-2.583,8.678-4.153,4.149-6.384-.343-.126a1.607,1.607,0,0,0-1.813.506l-3.431,4.3Z" fill="#e3c6b5"/><path d="M144.011,202.676l-3.554,1.507a2.936,2.936,0,0,0-1.734,2.127l-1.233,6.107.086-.014a3.513,3.513,0,0,1,.41-1.132l2.934-5.1,3.894-1.595L148,205.7l-.153-2-1.679-.906a2.538,2.538,0,0,0-2.161-.116" fill="#e3c6b5"/><path d="M111.064,214.082s7.271,5.793,7.837,14.681c-8.28,4.272-13.783,6.973-13.783,6.973H67.939Z" fill="#df6c47"/><path d="M95.92,232.513l21.346-10a13.557,13.557,0,0,1,1.635,6.25c-6.923,3.557-13.782,6.973-13.782,6.973h-2.26Z" fill="#d83b01"/><path d="M109.718,195.773l1.346-6.019-.2-.065a29.128,29.128,0,0,0-14.411-.8l-2.6,6.885,7.806,2.575Z" fill="#fff"/><path d="M106.1,188.628l-1.529,5.712,4.928,1.5.215-.069,1.347-6.019-.2-.065a29.044,29.044,0,0,0-4.756-1.061" fill="#e6e6e6"/><path d="M93.024,194.809l.074-.037c5.9-2.919,12.484-2.157,18.367.786l-8.606,40.178H79.617Z" fill="#737373"/><path d="M97.4,197.975a1.491,1.491,0,1,1-1.49-1.49,1.49,1.49,0,0,1,1.49,1.49" fill="#939393"/><path d="M92.491,235.736l11.17-42.646a21.987,21.987,0,0,1,7.8,2.468c-2.18,9.872-8.606,40.178-8.606,40.178Z" fill="#505050"/><path d="M104.189,88.73a2.34,2.34,0,0,0-1.57-.8H91.689L85.725,107.3l-8.549,18.076-.507,1.041a9.64,9.64,0,0,0-.785,6.109l.4,1.982a1.722,1.722,0,0,0,2.338,1.257l.907-.369,1.216.833a.816.816,0,0,0,1.087-.15l.774-.923.436,4.95v0a1.553,1.553,0,0,0,.883,1.286l5.582,3.054a1.594,1.594,0,0,0,.74.194l4.291.037.013-.338a2.8,2.8,0,0,0-2.273-2.866l-1.583-.3-.641-.124-2.721-2.923-.068-3.166-.023-1.041,1.136-1.529,2.377-3.2a3.488,3.488,0,0,1,5.286-.365l.656.665.786,3.391,5.175-2.594.167-4.576L97.684,108.2Z" fill="#72594b"/><path d="M198.925,95.979l.221-3.624a1.3,1.3,0,0,0-.229-.819l-2.484-3.591a1.309,1.309,0,0,0-.587-.468l-4.263-1.7L182.26,71.3l.019-.044L179.3,59.8l-13.365,1.539,4.175,10.608-2.961,18.984,1.6,9.487,1.1,1.269a15.628,15.628,0,0,1,3.384-2.832l.485-4.975.563-.745a3.489,3.489,0,0,1,5.29-.325l3.717,3.835c.116.015.228.042.344.058l.494,4.517-2.316,3.254-2.151.713a2.8,2.8,0,0,0-1.88,3.137l.057.333,4.249-.6a1.582,1.582,0,0,0,.709-.287l5.137-3.755a1.554,1.554,0,0,0,.708-1.39L188.4,98.2l1.16,1.526,1.324,5.9-.344,3.809a2.187,2.187,0,0,0,1.658,2.165l.971.242,1.453-6.242a1.845,1.845,0,0,0,.019-.74l-.831-6.745a1.754,1.754,0,0,0-.267-.736L191.29,93.9l2.344,2.289,1.694,3.957.618,3.241a2.127,2.127,0,0,0,2.09,1.729h.665V100.27a1.666,1.666,0,0,0-.071-.48l-1.273-4.163a2.008,2.008,0,0,0,1.267.368Zm-5.861-5.9.865.233,2.4,2.152.1.861Z" fill="#8e562e"/><path d="M170.114,71.947a15.822,15.822,0,0,0,7.761,1.944c4.487,8.013,13.654,11.923,13.654,11.923l-9.25-14.555-1.134-4.227-12.437,2.115Z" fill="#704322"/><path d="M187.542,103.4a3.259,3.259,0,0,0-3.022.536l-1.33,1.045a2.465,2.465,0,0,1-2,.479l-1.472-.3-.053.018a2.8,2.8,0,0,0-1.88,3.137l.057.334,4.25-.6a1.591,1.591,0,0,0,.708-.288l5.136-3.755a1.489,1.489,0,0,0,.379-.363Z" fill="#704322"/><path d="M181.8,62.915l1.346,6.02-.2.064a29.116,29.116,0,0,1-14.411.8l-2.6-6.885,7.805-2.575Z" fill="#fff"/><path d="M178.128,70.07A29.013,29.013,0,0,0,182.945,69l.206-.065-1.346-6.02-4.341-1.386-6.384,3Z" fill="#e6e6e6"/><path d="M165.11,63.879l.075.037a20.987,20.987,0,0,0,18.7-.037l-5.107-29.2H155.535Z" fill="#282828"/><path d="M172,35.427H155.7l9.411,28.451.075.037a20.982,20.982,0,0,0,9.307,2.178Z" fill="#505050"/><path d="M169.491,60.714A1.491,1.491,0,1,0,168,62.2a1.491,1.491,0,0,0,1.49-1.49" fill="#282828"/><path d="M100.419,128.77l-.039,2.663,2.277-1.141.166-4.577L97.685,108.2l9.1-20.225-15.1-.04,4.336,5.151a1.407,1.407,0,0,1,.25,1.378l-3.331,9.379a20.546,20.546,0,0,0,1.65,13.5l5.167,8.906a4.888,4.888,0,0,1,.658,2.524" fill="#665042"/><path d="M94.139,142.785l-3.426-.143a2.15,2.15,0,0,1-1.366-.566l-2.829-2.6a2.146,2.146,0,0,1-.647-1.126l-.866-3.951a1.7,1.7,0,0,0-2.405-1.159l-.344.168.222,1.894-.65.774a.818.818,0,0,1-1.087.15l-1.215-.833-.468.192-.439.177a1.722,1.722,0,0,1-2.338-1.257l-.4-1.983a9.563,9.563,0,0,1-.179-1.514l-.135,3.552.71,6.4a1.65,1.65,0,0,0,.124.469l1.917,4.448.612-.264a2.114,2.114,0,0,0,.827-.64l-1.3-2.6,1.37-.685-.38-1.706-.006-2.267,2.022,5.475a1.839,1.839,0,0,0,.357.65l4.152,4.882.752-.661a2.187,2.187,0,0,0,.482-2.684l-2.053-3.228-.023-.087,4.371,2.391a1.578,1.578,0,0,0,.74.193l4.29.039.014-.34a2.784,2.784,0,0,0-.41-1.557" fill="#665042"/><path d="M208.016,218.3a15.54,15.54,0,0,0-2.274,4.517l20.854,4.542v-4.781l-.088-1.517Z" fill="#505050"/></svg>