<svg xmlns="http://www.w3.org/2000/svg" viewBox="0 0 636 300"><title>MSC17-collaboration-009</title><path d="M636,0V300H0V0Z" fill="#d2d2d2"/><path d="M434.244,215.935H405a4.354,4.354,0,0,1-4.355-4.354V190.849A4.355,4.355,0,0,1,405,186.494h29.246a4.355,4.355,0,0,1,4.355,4.355v20.732a4.354,4.354,0,0,1-4.355,4.354" fill="#d2d2d2"/><path d="M423.364,201.738a5.844,5.844,0,1,0-7.486,0,9.019,9.019,0,0,0-5.268,8.187H412.8a6.825,6.825,0,1,1,13.649,0h2.186a9.019,9.019,0,0,0-5.268-8.187m-7.4-4.482a3.658,3.658,0,1,1,3.658,3.658,3.662,3.662,0,0,1-3.658-3.658" fill="#fff"/><path d="M426.783,145.392a3.359,3.359,0,1,1-3.359-3.358,3.359,3.359,0,0,1,3.359,3.358" fill="#fff"/><path d="M393.52,248.086a1.914,1.914,0,1,1-1.914-1.914,1.914,1.914,0,0,1,1.914,1.914" fill="#fff"/><path d="M327.5,244.247a1.924,1.924,0,1,1-1.924-1.924,1.924,1.924,0,0,1,1.924,1.924" fill="#fff"/><path d="M292.919,74.7a2.6,2.6,0,1,1-2.6-2.6,2.6,2.6,0,0,1,2.6,2.6" fill="#fff"/><path d="M176.766,119.447a2.96,2.96,0,1,1-2.959-2.959,2.96,2.96,0,0,1,2.959,2.959" fill="#fff"/><path d="M192.2,187.2a2.959,2.959,0,1,1-2.959-2.959A2.959,2.959,0,0,1,192.2,187.2" fill="#fff"/><path d="M239.259,189.825a2.627,2.627,0,1,1-2.627-2.627,2.627,2.627,0,0,1,2.627,2.627" fill="#fff"/><path d="M256.539,43.117a9.888,9.888,0,0,0-7.756-7.572,9.885,9.885,0,0,0,7.756-7.572,9.885,9.885,0,0,0,7.756,7.572,9.888,9.888,0,0,0-7.756,7.572" fill="#fff"/><path d="M449.84,243.28a7.1,7.1,0,0,0-5.571-5.44,7.1,7.1,0,0,0,5.571-5.44,7.1,7.1,0,0,0,5.572,5.44,7.107,7.107,0,0,0-5.572,5.44" fill="#fff"/><path d="M162.2,144.848a1.914,1.914,0,1,1-1.914-1.914,1.914,1.914,0,0,1,1.914,1.914" fill="#fff"/><path d="M215.968,129.633a106.863,106.863,0,0,0-4.744,31.568h2.461a104.37,104.37,0,0,1,4.863-31.568Z" fill="#ed8422"/><path d="M383.292,161.106A65.116,65.116,0,1,1,318.177,95.99a65.114,65.114,0,0,1,65.115,65.116" fill="#42787a"/><path d="M358.238,109.624a65.239,65.239,0,0,0-88.311,95.4q3.351.639,6.8.981l-.072-13.447,6.027,13.809c.554.011,1.11.019,1.667.019a76.629,76.629,0,0,0,73.889-96.765" fill="#45a094"/><path d="M278.761,109.117l-6.491,3.123-10.258,12.979V127.9a65.546,65.546,0,0,1,16.749-18.787" fill="#ed8422"/><path d="M298.53,205.053l-.321,1.6,2.141,2.5v5.709l2.855,5.708,3.924,3.212h3.925l.624-1.472-2.9-2.453.625-2.81V215.62h-1.829l-1.07-1.07,1.962-1.784V211.74l-1.739-.357v-1.2h2.587l4.013-2.052,5.174-7.894V198.94l-.138-.56a76,76,0,0,1-19.834,6.673" fill="#ed8422"/><path d="M381,144.039h-5.8l-2.766-2.676h-3.567v2.765h-1.338l-1.16-.981-5.53-1.516v-3.389h-7.315l-1.962,1.605h-5.084l-3.033,1.962v3.657l-7.4,5.174v2.052h2.141V155.1h-2.141v6.332l6.511,6.512h8.207l1.516-1.517h2.587l1.427,2.051h3.478v5.62l4.817,8.029-2.5,4.46v2.853l1.963,1.16v5.8l2.587,3.657v4.014h.62a65.221,65.221,0,0,0,13.924-59.925Z" fill="#ed8422"/><path d="M365.689,120.074v-3.663a65.45,65.45,0,0,0-5.054-4.827v2.6l-2.111.713-2.468,1.665v2.082h2.2l.6,2.676L362,119.837v2.974h-5.411l-2.5,3.746h-3.151l-.6,3.448h1.665v2.2l-2.5-.833h-2.557l-2.557,1.071v4.162l1.843,1.487h5.59v-1.309l3.806-3.983h2.022l2.081-1.74v1.383l5.232,3.27v1.07h-2.437v1.487h3.687v-2.617l.891-.357-4.162-2.735-.654-2.557h2.438l3.746,3.033v2.914l2.379,2.5,1.129-3.628,2.23-1.248v2.883l1.784,1.784H379.3c-.28-.749-.571-1.494-.879-2.23H375.8V130.49a65.361,65.361,0,0,0-6.247-9.581l-1.781,1.782h-4.817v-.833Z" fill="#ed8422"/><path d="M325.431,174.589h-6.065l-4.638-1.918v-2.319a3.5,3.5,0,0,0-.555-1.888l-1.051-1.635h-4.059l-2.987-4.415-1.784-.58v1.249h-4.059l-1.56-2.23-4.06-.445-2.809,3.566-5.664-.668v-4.942a1.087,1.087,0,0,0-.937-1.076l-3.211-.449,1.6-2.676v-1.089a.791.791,0,0,0-1.267-.633l-3.95,2.97h-3.3l-.293-.592a5.625,5.625,0,0,1-.134-4.673l.644-1.521a5.623,5.623,0,0,1,2.663-2.837l.972-.487a5.625,5.625,0,0,1,2.514-.593h6.523v1.77a2.786,2.786,0,0,0,1.291,2.351l.526.333a.646.646,0,0,0,.992-.546v-4.443l3.078-2.809,3.077-1.651v-2.007l4.147-4.192,4.371-2.186v-.981l2.409-2.1.823.255a1.552,1.552,0,0,0,1.7-.558.314.314,0,0,0-.252-.5h-.81a1.1,1.1,0,0,1-1.09-.858,1.072,1.072,0,0,1,1.05-1.282h.784a1.616,1.616,0,0,1,1.416.837l.3.546h2.275l1.293-1.25h.892v1.2l-1.07,1.069a.557.557,0,0,0,.209.918l3.32,1.163a.8.8,0,0,0,1.064-.755v-.79l-2.9-1.337v-.848l2.142-.8V123.5a1.408,1.408,0,0,0-.719-1.226l-1.824-1.024v-2.4a.827.827,0,0,0-1.222-.727l-1.989,1.077h-1.427l.223-2.944-4.549-1.115-2.186,1.383v4.415l-3.434,1.294-1.516,2.943h-1.383V121.74l-3.434-.491-1.65-1.471-.129-1.346a1.578,1.578,0,0,1,.737-1.491l4.476-2.783,2.249-.577a.841.841,0,0,1,1.051.816v1.01H303.6a.875.875,0,0,0,.875-.875v-.508h.819a.391.391,0,0,0,.311-.627l-.773-1.023h2.229l1.7-2.1,3.7-.333a1.637,1.637,0,0,1,1.305.473l.423.423a.794.794,0,0,1-.2,1.27c-.773.395-1.848.947-2.62,1.357a.466.466,0,0,0,.1.861l4.066,1.082a1.019,1.019,0,0,0,1.249-.724l.117-.439a1.022,1.022,0,0,1,.986-.76h2.2l.707-1.357a.535.535,0,0,0-.474-.783h-1.259v-2.542l-4.109-1.852a7.393,7.393,0,0,0-5.449-.248l-3.242,1.118v2.053a.76.76,0,0,1-.842.754l-1.293-.144a.759.759,0,0,1-.675-.753v-1.106l1.193-1.124a.588.588,0,0,0-.4-1.017h-2.956a1.175,1.175,0,0,0-1.054.658l-.571,1.171h.637a.79.79,0,0,1,.79.79v.426a.79.79,0,0,1-.79.79h-2.242l-.42.642a1.142,1.142,0,0,1-.956.518h-2.209a1.142,1.142,0,0,1-1.143-1.142v-1.177h3.523l1.918-2.364-.635-.454a.848.848,0,0,0-1.12.121l-.8.882a1.316,1.316,0,0,1-.975.433h-1.712a1.317,1.317,0,0,1-1.122-.63l-1.087-1.779h-3.177a2.828,2.828,0,0,0-1.858.7l-1.541,1.346a.412.412,0,0,0,.271.722h2.648v1.16l-.165.157a.5.5,0,0,0,.349.868h1.939a1.223,1.223,0,0,1,1.171.872l.14.466h-3.677a1.371,1.371,0,0,1-1.29-.9l-.206-.569-3.97-1.471-2.541.089-.646.311A65.559,65.559,0,0,0,262.012,127.9v.734l-1.022,1.043a64.8,64.8,0,0,0-4.181,9.223v1.3l2.7,1.427v3.683a5.765,5.765,0,0,0,.75,2.842l2.016,3.554h1.13v-1.844l-1.4-3.9v-2.289a1.219,1.219,0,0,1,1.219-1.219v3.211l2.854,4.371v1.813h.655v1.458l1.783,3.567,5.542,1.584a.346.346,0,0,0,.441-.333v-.6a.238.238,0,0,1,.288-.232l1.683.366a.236.236,0,0,1,.186.232v1.048a.348.348,0,0,0,.251.333l3.7,1.056a1.376,1.376,0,0,1,.671.433l3.655,4.319h4.386a1.055,1.055,0,0,1,1.054,1.056v2.6l-3.3,3.3V179l5.174,5.174v1.783h2.141l3.925,3.926V201.3h1.07l-.75,3.749a76.043,76.043,0,0,0,19.834-6.672l-.665-2.7,1.249-1.739h3.88l2.809-2.81L326.1,184l2.259-2.655a4.373,4.373,0,0,0,1.041-2.833v-.487l-2.63-.626ZM282.84,116.522h-3.21a.26.26,0,0,1-.128-.486l1-.571a1.827,1.827,0,0,1,.9-.237h1.439Zm12.721,17.393-.492.493a1.688,1.688,0,0,1-1.194.493h-.916a.53.53,0,0,1-.5-.709l.325-.9,2.091-.639a.53.53,0,0,1,.685.507Zm.346-3.194a.793.793,0,0,1-.247.575l-.46.438a.794.794,0,0,1-.547.219h-.931v-1.918h2.185Zm1.695-.461a.259.259,0,0,1,.443-.183l.4.4a.259.259,0,0,1-.183.443H297.6Zm-1.227,1.113,2.264.449a.817.817,0,0,1,.657.8v1.049h-1.313a1.465,1.465,0,0,1-1.218-.65l-.39-.579Zm-1.628-2.978a.263.263,0,0,1,.449-.186l.73.73a.263.263,0,0,1-.185.449h-.994Zm-6.288,3.779a1.328,1.328,0,0,1,.344-.89l1.707-1.873h-2.051v-.937l2.194-1.316a1.088,1.088,0,0,1,.561-.156h1.569a1.093,1.093,0,0,1,1,.657l.161.369v1.383H292.3l-2.632,4.5-.34-.164a1.525,1.525,0,0,1-.864-1.375Zm-2.31-9.814a.834.834,0,0,1,.667-.138l.59.131a.833.833,0,0,1,.651.812v1.295l-1.215.579a.833.833,0,0,1-1.055-.3l-.941-1.441Zm-7.859-9.628a.76.76,0,0,1,.615-.746l1.66-.326h2.275V113l-.577.44a1.347,1.347,0,0,1-.813.273h-2.4a.761.761,0,0,1-.761-.76Z" fill="#fda84c"/><path d="M257.992,135.87l18.689-6.185-14.142-2.668a65.034,65.034,0,0,0-4.547,8.853" fill="#ed8422"/><path d="M353.528,138.241l-1.962,1.606h-5.084l-3.033,1.962v3.658l-7.4,5.173v2.051h2.142V155.1h-2.142v6.332l6.512,6.512h8.207l.025-.026a76.092,76.092,0,0,0,9.678-29.677Z" fill="#fda84c"/><path d="M356.056,118.648h2.2l.6,2.676,1.52-.718c-.244-2.027-.557-4.031-.956-6.007l-.891.3-2.468,1.665Z" fill="#fda84c"/><path d="M360.855,133.139c.048-1.106.076-2.216.076-3.333,0-2.359-.116-4.691-.325-7h-4.015l-2.5,3.746h-3.151l-.6,3.449h1.665v2.2l-2.5-.832h-2.557l-2.558,1.071v4.162l1.844,1.486h5.589v-1.308l3.807-3.983h2.022l2.081-1.739v1.382Z" fill="#fda84c"/><path d="M317.913,261.055a100.31,100.31,0,0,1-67.082-25.667l1.643-1.832a98.051,98.051,0,0,0,150.1-23.545l2.124,1.242a100.94,100.94,0,0,1-86.788,49.8" fill="#ed8422"/><path d="M189.023,75.844v29.13c0,6.98,5.71,24.66,12.69,24.66h74.849l-17.67-11.782c.014-.243.023-.487.023-.735V75.844a12.726,12.726,0,0,0-12.69-12.689H201.713a12.726,12.726,0,0,0-12.69,12.689" fill="#45a094"/><path d="M223.975,268.029H264.4A12.32,12.32,0,0,0,276.655,255.6V192.562l-11.538,17.307c-.238-.015-.478-.024-.719-.024H223.975a12.465,12.465,0,0,0-12.428,12.429V255.6a12.465,12.465,0,0,0,12.428,12.429" fill="#fec94e"/><path d="M376.43,249.433a14.493,14.493,0,1,1-14.492-14.493,14.492,14.492,0,0,1,14.492,14.493" fill="#45a094"/><polygon points="360.707 244.921 360.707 243.28 356.332 243.28 356.332 244.921 353.597 244.921 353.597 254.765 370.551 254.765 370.551 244.921 360.707 244.921" fill="#fec94e"/><path d="M409.654,215.935a9.3,9.3,0,1,1-9.3-9.3,9.3,9.3,0,0,1,9.3,9.3" fill="#840a61"/><path d="M411.294,221.405a3.829,3.829,0,1,1-3.828-3.829,3.828,3.828,0,0,1,3.828,3.829" fill="#fec94e"/><polygon points="407.023 223.215 405.262 221.455 405.842 220.875 407.023 222.055 408.988 220.09 409.568 220.669 407.023 223.215" fill="#ed8422"/><path d="M395.933,213.182a9.641,9.641,0,0,1,1.422-.108,2.968,2.968,0,0,1,2.1.646,2.384,2.384,0,0,1,.73,1.861,2.737,2.737,0,0,1-.745,2.013,3.191,3.191,0,0,1-2.291.747,10.859,10.859,0,0,1-1.215-.062Zm.668,4.582a4.208,4.208,0,0,0,.678.039,1.992,1.992,0,0,0,2.2-2.2,1.848,1.848,0,0,0-2.1-2,3.845,3.845,0,0,0-.785.069Z" fill="#fff"/><path d="M400.964,217.48a2.372,2.372,0,0,0,1.2.337c.684,0,1.085-.36,1.085-.883,0-.484-.278-.761-.977-1.03-.845-.3-1.368-.739-1.368-1.469a1.491,1.491,0,0,1,1.675-1.407,2.355,2.355,0,0,1,1.146.254l-.184.546a2.074,2.074,0,0,0-.985-.246c-.708,0-.976.422-.976.776,0,.485.315.723,1.031,1,.875.34,1.321.761,1.321,1.523,0,.8-.591,1.491-1.814,1.491a2.667,2.667,0,0,1-1.323-.331Z" fill="#fff"/><path d="M318.46,53.965a106.594,106.594,0,0,0-56.886,16.368,9.332,9.332,0,1,0,1.378,2.06A104.673,104.673,0,0,1,402.11,98.1l1.964-1.483A106.46,106.46,0,0,0,318.46,53.965" fill="#ed8422"/><path d="M253.186,77.331c-.039-.722-.085-1.591-.077-2.237h-.023c-.177.608-.393,1.253-.654,1.968l-.915,2.514h-.506l-.839-2.467c-.246-.731-.453-1.4-.6-2.015h-.017c-.014.646-.052,1.515-.1,2.291l-.138,2.222h-.638l.361-5.181h.854l.883,2.5c.215.639.393,1.208.523,1.745h.023c.131-.523.315-1.091.547-1.745l.922-2.5h.854l.323,5.181h-.654Z" fill="#fff"/><path d="M258.948,79.377a4.858,4.858,0,0,1-1.591.283,2.432,2.432,0,0,1-2.661-2.613,2.6,2.6,0,0,1,2.807-2.676,3.184,3.184,0,0,1,1.29.239l-.16.546a2.69,2.69,0,0,0-1.145-.223,1.938,1.938,0,0,0-2.084,2.084,1.9,1.9,0,0,0,2,2.09,2.18,2.18,0,0,0,.892-.138V77.423h-1.053v-.537h1.707Z" fill="#fff"/><rect x="201.288" y="158.23" width="23.112" height="19.15" fill="#fff"/><rect x="203.806" y="156.461" width="1.567" height="3.373" fill="#45a094"/><rect x="207.108" y="156.461" width="1.567" height="3.373" fill="#45a094"/><rect x="210.409" y="156.461" width="1.567" height="3.373" fill="#45a094"/><rect x="213.711" y="156.461" width="1.567" height="3.373" fill="#45a094"/><rect x="217.012" y="156.461" width="1.567" height="3.373" fill="#45a094"/><rect x="220.314" y="156.461" width="1.567" height="3.373" fill="#45a094"/><rect x="204.589" y="164.008" width="3.302" height="3.302" fill="#e6e6e6"/><rect x="211.192" y="164.008" width="3.302" height="3.302" fill="#e6e6e6"/><rect x="217.796" y="164.008" width="3.302" height="3.302" fill="#e6e6e6"/><rect x="204.589" y="170.116" width="3.302" height="3.302" fill="#e6e6e6"/><rect x="211.192" y="170.116" width="3.302" height="3.302" fill="#e6e6e6"/><rect x="217.796" y="170.116" width="3.302" height="3.302" fill="#e6e6e6"/><path d="M368.493,149.246a3.8,3.8,0,0,0-3.8,3.8c0,3.851,3.8,7.783,3.8,7.783s3.8-4.148,3.8-7.783a3.8,3.8,0,0,0-3.8-3.8m0,5.872a2,2,0,1,1,2-2,1.995,1.995,0,0,1-2,2" fill="#fff"/><path d="M349.522,130.35a3.8,3.8,0,0,0-3.8,3.8c0,3.851,3.8,7.783,3.8,7.783s3.8-4.148,3.8-7.783a3.8,3.8,0,0,0-3.8-3.8m0,5.871a2,2,0,1,1,2-2,1.995,1.995,0,0,1-2,2" fill="#fff"/><path d="M300.689,166.251a3.8,3.8,0,0,0-3.8,3.8c0,3.852,3.8,7.784,3.8,7.784s3.8-4.148,3.8-7.784a3.8,3.8,0,0,0-3.8-3.8m0,5.871a2,2,0,1,1,2-2,1.995,1.995,0,0,1-2,2" fill="#fff"/><path d="M300.367,119.3a3.8,3.8,0,0,0-3.8,3.8c0,3.852,3.8,7.784,3.8,7.784s3.8-4.148,3.8-7.784a3.8,3.8,0,0,0-3.8-3.8m0,5.871a2,2,0,1,1,2-2,2,2,0,0,1-2,2" fill="#fff"/><path d="M284.846,117.429a3.8,3.8,0,0,0-3.8,3.8c0,3.851,3.8,7.783,3.8,7.783s3.8-4.148,3.8-7.783a3.8,3.8,0,0,0-3.8-3.8m0,5.872a2,2,0,1,1,2-2,2,2,0,0,1-2,2" fill="#fff"/><path d="M264.422,257.136a16.277,16.277,0,0,0-16.256-10.965l-17.914,2.9c-11.318,3.56-13.8,11.561-14.283,16.007a12.351,12.351,0,0,0,8.006,2.951H264.4a12.152,12.152,0,0,0,3.581-.539Z" fill="#840a61"/><path d="M245.887,241.839l-.043-.368a13.621,13.621,0,0,0,5.245-14.334l-4.673-18.743-13.771,3.434a13.058,13.058,0,0,0-9.51,15.829l.487,1.954-.245.061a3.532,3.532,0,0,0,1.708,6.854l.545-.136a13.622,13.622,0,0,0,6.569,6.423,8.592,8.592,0,0,1-1.746,6l-.2.26,8.394,2.5a7.363,7.363,0,0,0,7.824-2.432l2.358-2.919a5.749,5.749,0,0,1-2.94-4.375" fill="#ce9c5f"/><path d="M245.887,241.839l-.043-.368c-.013.009-.019,0-.03.008a13.607,13.607,0,0,0,5.275-14.342l-1.027-4.119-4.25,1.06a1.714,1.714,0,0,0-.536,3.089l2.274,1.423a1.18,1.18,0,0,1-.341,2.144l-3.514.877.386,1.551a8.468,8.468,0,0,1,.562,9.081c.022-.012.042-.027.063-.039-.008,0-.02.02-.028.024a13.591,13.591,0,0,1-8.971,1.658,14.234,14.234,0,0,0,10.714,5.3c.015-.019.034-.033.048-.051l2.358-2.919a5.749,5.749,0,0,1-2.94-4.375" fill="#ba8c57"/><path d="M238.873,234.461a4.728,4.728,0,0,0,8.635-2.153Z" fill="#fff"/><path d="M235.4,228.075a1.36,1.36,0,1,1-1.648-.99,1.359,1.359,0,0,1,1.648.99" fill="#09538f"/><path d="M249.49,224.563a1.36,1.36,0,1,1-1.649-.991,1.361,1.361,0,0,1,1.649.991" fill="#09538f"/><path d="M250.034,217.463a18.322,18.322,0,0,0,3.406-.524c-1.146-.689-2.186-2.65-3.008-4.7a7.223,7.223,0,0,0-8.459-4.287l-10.306,2.57a13.661,13.661,0,0,0-9.952,16.562l.743,2.981a3.5,3.5,0,0,1,.919-.39l1.447-.361,1.344,5.392,2.872-.716-1.3-5.218a21.477,21.477,0,0,0,5.416-2.569l3-.746a.688.688,0,0,0-.333-1.336l-.249.062a12.461,12.461,0,0,0,3.364-10.047c1.279,8.379,8.09,6.151,8.09,6.151l-5.451-5a13.393,13.393,0,0,0,7.114,2.2l.8,3.221-4.857,1.211a.688.688,0,1,0,.332,1.335l4.858-1.211.484,1.943c2.03-.356,3.882-2.009,4.759-4.9-1.919,1.082-3.689-.084-5.029-1.63"/><path d="M239.688,232.646a2.071,2.071,0,0,0-2.043,3.4Z" fill="#ba8c57"/><path d="M220.67,243.28a9.478,9.478,0,1,1-9.477-9.476,9.477,9.477,0,0,1,9.477,9.476" fill="#45a094"/><path d="M209.128,244.177a1.85,1.85,0,0,1-.4,1.27,1.375,1.375,0,0,1-1.078.454,1.526,1.526,0,0,1-.515-.074v-.718a.816.816,0,0,0,.471.125q.763,0,.763-1.179v-2.827h.761Z" fill="#fff"/><path d="M215.156,245.823H214.4V242.85c0-.244.014-.541.044-.894h-.013a3.127,3.127,0,0,1-.125.432l-1.372,3.435h-.524l-1.374-3.41a3.084,3.084,0,0,1-.124-.457H210.9c.016.183.026.484.026.9v2.967h-.7v-4.595h1.072l1.209,3.061a4.6,4.6,0,0,1,.18.525h.015c.079-.241.144-.421.193-.538l1.23-3.048h1.035Z" fill="#fff"/><path d="M201.929,95.792,205,95.366a41.511,41.511,0,0,1,19.7,2.039l2.677.959.9,9.447H203.391Z" fill="#d2d2d2"/><path d="M230.072,101.493a6.609,6.609,0,0,1-6.359-4.046,15.577,15.577,0,0,0,7.5-11.464l.972-7.922a15.6,15.6,0,0,0-30.967-3.8l-.072.587-.943-.687a2.241,2.241,0,0,0-3.37.9l-.132.3a8.541,8.541,0,0,0,.385,7.674,2.791,2.791,0,0,0,2.644,1.4l.411-.032a15.631,15.631,0,0,0,4.61,10.71l-.156,1.713a6.608,6.608,0,0,1-5.68,5.952l-2.373.327c-4.812.662-5.023,5.308-5.023,10.165l4.978,4.706,25.9.177,11.815-10.073v-2.615a3.983,3.983,0,0,0-4.142-3.979" fill="#72594b"/><path d="M201.268,75.981l-.276-.075a1.735,1.735,0,0,0-2.61.7l-.1.231a6.615,6.615,0,0,0,.3,5.942,2.16,2.16,0,0,0,2.047,1.086l.181-1Z" fill="#665042"/><path d="M230.732,88.329a2.6,2.6,0,0,0,1.287-.737,7.961,7.961,0,0,0,2.077-6.855l-.052-.3a2.088,2.088,0,0,0-1.94-1.726l-.3,2.405-1.288-.978A8.879,8.879,0,0,0,222.6,78.7a2.919,2.919,0,0,0-1.88,3.862l1.2,3.058a2.019,2.019,0,0,1-1.549,2.73l-3.477.575-.431,3.524.279.447a5.4,5.4,0,0,1,.811,2.971l-10.884,1.336s11.731,9.956,14.587,10.882,9.415-2.856,9.415-2.856l-2.8-4.026a6.6,6.6,0,0,1-4.149-3.771,15.61,15.61,0,0,0,7-9.106" fill="#665042"/><path d="M209.98,79.921a1.472,1.472,0,1,1-1.283-1.64,1.472,1.472,0,0,1,1.283,1.64"/><path d="M227.372,82.055a1.472,1.472,0,1,1-1.282-1.641,1.471,1.471,0,0,1,1.282,1.641"/><path d="M216.9,88.928s-4.853-2.782-8.02-1.683l-2.9,1.158a1.275,1.275,0,0,1-1.749-1.21l.123-5.866a2.127,2.127,0,0,0-1.712-2.13l-2.309-.46-.753,6.137a11.48,11.48,0,0,0,3.749,9.961l3.1,2.771a14.642,14.642,0,0,0,18.77.615L227.02,96.8a9.634,9.634,0,0,0,3.627-6.415l.827-6.741a2.128,2.128,0,0,0-2.3,1.507l-1.314,4.438a1.8,1.8,0,0,1-2.734.985l-1.3-.87a6.733,6.733,0,0,0-4.66-1.081Z"/><path d="M210.384,89.879l2.284,1.036a15.458,15.458,0,0,0,8.159,1.278l2.369-.274-3.446,2.762a5.057,5.057,0,0,1-7.614-1.548Z" fill="#fff"/><path d="M212.246,77.216a.58.58,0,0,1-.3-.085c-4.22-2.574-6.942-.29-7.057-.191a.579.579,0,0,1-.765-.87c.14-.122,3.453-2.961,8.425.072a.579.579,0,0,1-.3,1.074"/><path d="M230.05,80.751a.577.577,0,0,1-.366-.131c-3.832-3.123-6.839-1.23-6.966-1.146a.579.579,0,0,1-.639-.965c.154-.1,3.821-2.466,8.337,1.215a.579.579,0,0,1-.366,1.027"/><path d="M216.388,65c-.594-1.4-3.114-1.665-5.63-.6s-4.074,3.067-3.48,4.464,3.114,1.665,5.63.6,4.073-3.067,3.48-4.465" fill="#8e7a6f"/><path d="M242.77,109.319a14.094,14.094,0,0,0-12.705-7.993H228.3l-.921-2.962-8.132,4.283-4.515,10.1-4.353-10.329-8.454-6.623-.6,5-8.3,2.041a9.166,9.166,0,0,0-4,2.139v12.454a12.578,12.578,0,0,0,12.689,12.515l13.734.051Z" fill="#fff"/><polygon points="211.379 108.898 209.527 103.11 204.086 110.926 209.527 108.551 211.379 108.898" fill="#d2d2d2"/><polygon points="219.598 103.573 224.229 108.435 227.586 103.11 223.997 112.512 219.598 103.573" fill="#d2d2d2"/><path d="M212.759,114.161a.98.98,0,1,1-.979-.979.979.979,0,0,1,.979.979" fill="#d2d2d2"/><path d="M271.711,229.4,246.9,253.778a1.533,1.533,0,0,0-.019,2.167l16.2,16.484a1.531,1.531,0,0,0,2.167.018l24.807-24.376c.6-.594-6.674-10.725-7.267-11.328l-.539-.549c-.594-.6-9.936-7.386-10.54-6.793" fill="#b2b2b2"/><path d="M290.949,245.046l-8.159-8.3L255.8,263.267l-.168-.17,8.327,8.473a1.531,1.531,0,0,0,2.167.02l24.807-24.377a1.533,1.533,0,0,0,.019-2.167" fill="#d2d2d2"/><path d="M282.25,236.194l.346.352-7.845-7.984a1.532,1.532,0,0,0-2.167-.018l-24.807,24.377a1.531,1.531,0,0,0-.019,2.166l7.5,7.632Z" fill="#d2d2d2"/><path d="M272.049,246.219l.151-17.3-24.423,24a1.531,1.531,0,0,0-.019,2.166l7.5,7.632Z" fill="#e6e6e6"/><path d="M255.8,263.268l8.159,8.3a1.531,1.531,0,0,0,2.167.018l5.753-5.653.163-18.629Z" fill="#e6e6e6"/><rect x="270.956" y="253.187" width="1.793" height="1.792" transform="translate(-100.134 263.49) rotate(-44.513)" fill="#b2b2b2"/><rect x="272.43" y="251.74" width="1.793" height="1.792" transform="translate(-98.696 264.107) rotate(-44.513)" fill="#b2b2b2"/><rect x="273.877" y="253.213" width="1.793" height="1.792" transform="translate(-99.317 265.428) rotate(-44.496)" fill="#b2b2b2"/><rect x="272.404" y="254.66" width="1.793" height="1.792" transform="translate(-100.754 264.81) rotate(-44.495)" fill="#b2b2b2"/><path d="M279.644,261.458l-.593-5.437a1.285,1.285,0,0,0-2.562.093l-.143,3.935-.883-3.811a1.429,1.429,0,0,0-2.817.441l.364,4.4-.67-1.993a1.3,1.3,0,0,0-2.5.723l1.377,6.775-.2.2-2.091-3.809a1.327,1.327,0,0,0-2.407,1.1l1.945,5.214-1.115,1.1-1.226,1.2,4.028.11a6.7,6.7,0,0,0,5.745-3.191l3.327-5.416,0-.01a2.377,2.377,0,0,0,.425-1.625" fill="#ce9c5f"/><path d="M274.127,99.82H231.7a3.872,3.872,0,0,0-3.523,2.267L215.446,130h48.276l12.369-27.12a2.159,2.159,0,0,0-1.964-3.055" fill="#c2c2c2"/><path d="M276.728,99.82H234.3a3.874,3.874,0,0,0-3.524,2.267L218.047,130h48.275l12.37-27.12a2.159,2.159,0,0,0-1.964-3.055" fill="#b2b2b2"/><polygon points="249.557 116.439 250.701 114.033 247.955 114.033 246.849 116.439 249.557 116.439" fill="#c2c2c2"/><polygon points="246.654 116.861 245.624 119.102 248.29 119.102 249.357 116.861 246.654 116.861" fill="#c2c2c2"/><polygon points="252.613 116.439 253.719 114.033 251.214 114.033 250.07 116.439 252.613 116.439" fill="#c2c2c2"/><polygon points="249.87 116.861 248.804 119.102 251.388 119.102 252.418 116.861 249.87 116.861" fill="#c2c2c2"/><path d="M468.5,164.256a3.055,3.055,0,1,1-3.055-3.055,3.054,3.054,0,0,1,3.055,3.055" fill="#fff"/><path d="M362.087,44.888a1.77,1.77,0,1,1-1.77-1.771,1.77,1.77,0,0,1,1.77,1.771" fill="#fff"/><path d="M372.757,99.461a3.067,3.067,0,1,1-3.067-3.067,3.067,3.067,0,0,1,3.067,3.067" fill="#fff"/><path d="M296.891,275.667a1.986,1.986,0,1,1-1.986-1.986,1.986,1.986,0,0,1,1.986,1.986" fill="#fff"/><path d="M320.92,55.833a10.391,10.391,0,1,1-10.39-10.391,10.391,10.391,0,0,1,10.39,10.391" fill="#840a61"/><path d="M316.955,56.413v-1.16h-2.272a4.041,4.041,0,0,0-.805-1.812l1.645-1.645-.82-.82-1.655,1.654a4.044,4.044,0,0,0-1.8-.72V49.544h-1.16V51.91a4.044,4.044,0,0,0-1.8.72l-1.655-1.654-.82.82,1.645,1.645a4.051,4.051,0,0,0-.8,1.812h-2.273v1.16h2.252a4.042,4.042,0,0,0,.732,1.905l-1.552,1.552.82.82,1.542-1.542a4.047,4.047,0,0,0,1.915.815v2.159h1.16V59.963a4.047,4.047,0,0,0,1.915-.815L314.7,60.69l.82-.82-1.552-1.552a4.054,4.054,0,0,0,.733-1.905Zm-6.289,2.449a2.926,2.926,0,1,1,2.926-2.926,2.928,2.928,0,0,1-2.926,2.926" fill="#fff"/><path d="M454.17,65.006v47.1a14.5,14.5,0,0,1-6.4,12c-2.312,1.566-5.095.909-8.083.909l-55.054,1.574h-23.87l20.166-13.645c-.016-.278-.026-47.94-.026-47.94a14.525,14.525,0,0,1,14.482-14.482h44.3A14.525,14.525,0,0,1,454.17,65.006" fill="#840a61"/><path d="M463.851,88.6a3.241,3.241,0,1,1-3.24-3.241,3.24,3.24,0,0,1,3.24,3.241" fill="#fff"/><path d="M447.155,112.411a15.328,15.328,0,0,0-11.817-14.334l-37.868,3.43a16,16,0,0,0-11.092,13.227l-1.744,11.857h55.054a14.367,14.367,0,0,0,7.827-2.327Z" fill="#45a094"/><polygon points="393.531 64.201 394.092 95.277 407.523 90.366 404.023 62.788 393.531 64.201" fill="#301d19"/><polygon points="401.543 85.283 398.743 81.312 396.523 85.634 399.265 89.525 398.212 91.575 399.612 93.561 400.722 91.399 399.379 89.495 401.543 85.283" fill="#fec94e"/><path d="M428.583,73.453l-.529-8.954a16.862,16.862,0,1,0-33.642,2.347l.672,9.638c.582,8.341,6.47,15.05,12.347,15.859a8.787,8.787,0,0,1-5.127,6.995l-4.835,2.169,13.244,10.043,11.709-6.407c.057-5.229.721-9.214-3.234-12.717l-.489-2.453a16.448,16.448,0,0,0,9.884-16.52" fill="#f0beb4"/><path d="M429.321,96.2a9.893,9.893,0,0,1-6.341-6.046l-1.245-3.405a3.5,3.5,0,0,1,.589-.8c3.814-3.465,8.078-8.614,7.761-13.162l-.881-8.077c-.067-.964-1.37-2.11-1.592-3.02l-19.174-7.909-1.817,15.2L403.937,76.6a1.934,1.934,0,0,0,1.959,2.571,1.441,1.441,0,0,1,1.419,2.019,13.1,13.1,0,0,0,.069,10.583l.267.594a8.378,8.378,0,0,0,1.7.025h0a17.083,17.083,0,0,0,4.676-1.209c-.05.02-.1.044-.152.063l1.025.908a18.119,18.119,0,0,1,6.1,13.768l14.338-7.846Z" fill="#db9c94"/><path d="M399.853,73.383a1.538,1.538,0,1,1-1.642-1.427,1.538,1.538,0,0,1,1.642,1.427" fill="#043c40"/><path d="M418.11,71.836a1.538,1.538,0,1,1-1.641-1.427,1.537,1.537,0,0,1,1.641,1.427" fill="#043c40"/><path d="M402.18,82.927l.563,1.278a4.239,4.239,0,0,0,3.587,1.736l.849-.033a7.29,7.29,0,0,0,4.208-1.54l2.25-2.241-6.768,1.227Z" fill="#eb4f5d"/><path d="M402.18,82.927l1.137-.623a3.256,3.256,0,0,1,3.568.294l.572-.5a3.256,3.256,0,0,1,2.834-.716l3.346.74-4.853,1.48a6.9,6.9,0,0,1-3.787.069Z" fill="#d83b01"/><path d="M412.825,80.642l2.134,1.856a1.8,1.8,0,0,0-2.134-1.856" fill="#f0beb4"/><path d="M395.008,71.921a.546.546,0,0,1-.431-.882,4.955,4.955,0,0,1,7.046-.574.547.547,0,0,1-.642.887c-3.3-2.383-5.453.25-5.544.362a.547.547,0,0,1-.429.207" fill="#301d19"/><path d="M413.265,70.373a.546.546,0,0,1-.431-.882,4.959,4.959,0,0,1,7.046-.573.547.547,0,0,1-.642.887c-3.3-2.385-5.454.248-5.544.361a.544.544,0,0,1-.429.207" fill="#301d19"/><path d="M429.06,61.605c-.024-.165-.053-.33-.089-.493-1.819-8.276-6.728-14.756-21.186-13.747-13.275.926-15.724,18.793-15.724,18.793a23.426,23.426,0,0,0,4.893,1.081l1.339-7.615.923,7.839c.84.056,1.749.088,2.717.087l.516-5.947,1.087,5.915a51.928,51.928,0,0,0,17.842-4.091c.905,13.964-.578,31.015-.578,31.015a15.229,15.229,0,0,0,11.739-9.522Zm-.477,11.848-2.274,2.719-.675-9.684a3.869,3.869,0,0,1,3.853,3.9l0,.614a3.874,3.874,0,0,1-.9,2.453" fill="#301d19"/><polygon points="429.204 81.504 426.405 77.532 424.183 81.854 426.884 85.685 425.824 87.746 427.224 89.732 428.335 87.572 427.034 85.726 429.204 81.504" fill="#fec94e"/><path d="M393.826,92.3l-13.817,1.917a1.405,1.405,0,0,0-.87.477h0l-.013.018c-.029.035-.056.07-.082.107l-.877,1.16.656-.091,3.684,26.464a1.406,1.406,0,0,0,1.586,1.2l13.559-1.881.226.673.945-1.237h0a1.4,1.4,0,0,0,.284-1.058L395.411,93.5a1.406,1.406,0,0,0-1.585-1.2" fill="#b2b2b2"/><path d="M397.048,122.765l-13.815,1.917a1.405,1.405,0,0,1-1.586-1.2l-3.7-26.549a1.406,1.406,0,0,1,1.2-1.585l13.816-1.917a1.4,1.4,0,0,1,1.585,1.2l3.7,26.548a1.406,1.406,0,0,1-1.2,1.585" fill="#b2b2b2"/><path d="M380.03,111.87l1.617,11.614a1.405,1.405,0,0,0,1.586,1.2l13.816-1.917a1.405,1.405,0,0,0,1.2-1.584L394.8,96.411Z" fill="#939393"/><path d="M387.98,97.915a1.282,1.282,0,1,1-1.446-1.093,1.282,1.282,0,0,1,1.446,1.093" fill="#737373"/><path d="M407.881,119.292l-3.534-4.323a14.947,14.947,0,0,0-2.183-2.166l-2.463-4.788a2.583,2.583,0,0,0-1.79-1.352l-.69-.138.529,3.794-2.726-1.075-.011-.019-7.05-1.63-7.416.458.112.872a1.92,1.92,0,0,0,1.887,1.674l4.78.042,5.7,2-6.5-.612-6.562,2.384.17.489a2.091,2.091,0,0,0,2.647,1.293l3.282-1.117,7.129,1.238-.022.087-6.852-.538-5.342,2.569.215.423a2.03,2.03,0,0,0,2.687.908l3.029-1.453,5.368,1.371-5.554.022-3.165,2.85.689.478a2.079,2.079,0,0,0,2.229.088l1.8-1.048,1.712.769a14.308,14.308,0,0,0,1.366.788l-.04.162.829.348,4.105,1.725q.973.41,1.979.725h20.006a9.851,9.851,0,0,0,.464-2.889l.006-.655Z" fill="#f0beb4"/><path d="M391.684,124.069l4.56,1.8c.649.273,1.309.513,1.978.725h13.551l-3.734-1.4a14.214,14.214,0,0,0-4.849-.9l-3.79-.033a20.558,20.558,0,0,1-4.781-.609l-6.347-1.582,2.662,1.623a4.9,4.9,0,0,0,.75.373" fill="#db9c94"/></svg>