<svg xmlns="http://www.w3.org/2000/svg" xmlns:xlink="http://www.w3.org/1999/xlink" viewBox="0 0 636 300"><defs><clipPath id="a"><path d="M356.882,116.926l15.994,15.995a5.167,5.167,0,0,0,3.65,1.511H390.3v-3.374h-6.007a7.053,7.053,0,0,1-4.989-2.067l-16.723-16.722Z" fill="none"/></clipPath></defs><title>MSC17-cloud-013</title><polygon points="392.82 220.72 385.79 220.72 385.79 224.141 392.82 220.72" fill="#fda84c"/><path d="M385.79,224.14v7.012s14.969,3.646,21.68-5.159a1.354,1.354,0,0,0-1.093-2.159H394.921l-2.1-3.114Z" fill="#4f3e33"/><path d="M266.039,251.629H467.005a2.284,2.284,0,1,1,0,4.567H266.039a2.284,2.284,0,1,1,0-4.567" fill="#e6e6e6"/><path d="M349.687,199.539,327.51,221.717l.93.079-2.51,29.7-1.861-.157,2.158-25.545-13.061,22.562-1.617-.936,13.4-23.142L305.332,243.9a31.364,31.364,0,0,0,44.355-44.356" fill="#e6e6e6"/><path d="M327.509,187.55a34.2,34.2,0,0,0-34.135,32.921h-11.5a1.246,1.246,0,0,0,0,2.492h11.489a34.124,34.124,0,0,0,.809,6.243h-23.36a1.246,1.246,0,0,0,0,2.492h29.937a28.639,28.639,0,1,1,2.443,4.982h7.918a1.246,1.246,0,1,0,0-2.491h-15.4a34.163,34.163,0,1,0,31.8-46.639" fill="#043c40"/><path d="M362.584,208.105A5.321,5.321,0,0,1,356,205.778a32.663,32.663,0,0,0-51.675-7.038,5.325,5.325,0,0,1-6.972.489,37.625,37.625,0,0,1,65.229,8.876" fill="#0d7364"/><path d="M334.135,159.337h-3.322v13.814h3.322c0-9.854,3.211-6.643,7.171-6.643h28.211v-7.171Z" fill="#043c40"/><polygon points="360.797 112.73 261.326 57.721 260.798 58.676 354.536 110.513 187.788 51.709 187.425 52.738 355.04 111.848 222.151 92.315 221.992 93.394 355.565 113.028 277.365 118.819 277.445 119.907 349.305 114.585 231.071 134.925 231.256 136 360.626 113.744 360.533 113.207 360.797 112.73" fill="#d2d2d2"/><path d="M440.115,110.671c-.7-9.038-2.395-21.542-15.559-24.281a17.988,17.988,0,1,0-7.254,35.236l9.612,1.957a6.4,6.4,0,0,0,7.258-3.986l2.147-5.6,2.924.595a1.494,1.494,0,0,0,1.794-1.518c-.019-.492-.831-1.231-.922-2.4" fill="#ce9c5f"/><path d="M435.969,105.516A1.519,1.519,0,1,1,434.45,104a1.519,1.519,0,0,1,1.519,1.519" fill="#004b50"/><path d="M430.535,101.748a.545.545,0,0,1-.162-1.066,15.987,15.987,0,0,1,7.04-.59.545.545,0,1,1-.151,1.08,14.936,14.936,0,0,0-6.564.551.543.543,0,0,1-.163.025" fill="#301d19"/><path d="M418.659,105.691l-.908-.184a2.939,2.939,0,0,1-2.294-3.466,1.933,1.933,0,1,1,3.788.771Z" fill="#ba8c57"/><path d="M423.048,85.186c-.471-.1-.954-.172-1.443-.234v0l-.089-.009c-.339-.042-.683-.075-1.028-.1a66.382,66.382,0,0,0-14.143.114.357.357,0,0,0-.045.694,10.126,10.126,0,0,1,2.02.86.423.423,0,0,1-.169.791,28.137,28.137,0,0,0-7.289,1.581.272.272,0,0,0,.1.524,11.691,11.691,0,0,1,3.244.37.958.958,0,0,1,.5,1.447c-1.125,1.677-3.437,5.382-4.03,8.3l-1.964,9.651,6.224,1.267a7.15,7.15,0,0,0,8.433-5.581l.538-2.644.245-1.2a3.136,3.136,0,0,1,3.7-2.446,3.7,3.7,0,0,1,2.884,4.358l0,.02,1.606-.446a3.145,3.145,0,0,0,2.246-2.419l1.162-5.844A2.606,2.606,0,0,1,428.82,92.2l1.9.387a3.6,3.6,0,0,0,2.7-.526l1.333-.882s-3.3-4.279-11.71-5.99" fill="#301d19"/><path d="M469.582,199.539,447.4,221.717l.931.079-2.51,29.7-1.861-.157,2.158-25.545-13.061,22.562-1.618-.936,13.4-23.142L425.226,243.9a31.364,31.364,0,0,0,44.356-44.356" fill="#e6e6e6"/><path d="M447.4,255.884a34.167,34.167,0,1,1,34.168-34.168A34.206,34.206,0,0,1,447.4,255.884m0-62.729a28.562,28.562,0,1,0,28.562,28.561A28.593,28.593,0,0,0,447.4,193.155" fill="#043c40"/><path d="M463.2,187.075a5.322,5.322,0,0,1-6.255,3.1,32.661,32.661,0,0,0-41.055,32.16,5.326,5.326,0,0,1-4.507,5.342,37.625,37.625,0,0,1,51.817-40.6" fill="#0d7364"/><rect x="383.922" y="211.729" width="3.737" height="28.061" transform="translate(43.997 513.819) rotate(-70.459)" fill="#043c40"/><polygon points="360.086 143.671 388.321 173.152 392.821 220.72 385.79 220.72 374.203 185.608 339.74 155.297 360.086 143.671" fill="#043c40"/><path d="M433.939,160.5l5.561,5.31a1.091,1.091,0,0,1,.067,1.508l-3.055,3.485a.752.752,0,0,1-1.3-.331,3.5,3.5,0,0,1,1.1-3.538l-3.738-3.453Z" fill="#d8b07f"/><path d="M437.336,166.345l-3.024-6.185a1.264,1.264,0,0,0-1.138-.711h-1.161a27.264,27.264,0,0,1-13.8-4.37l-4.523.8-1.435,2.873,8.985,6.627,11.923-.654.807,1.584a3.515,3.515,0,0,0-2.267,2.983.729.729,0,0,0,1.07.737l4.1-2.227a1.1,1.1,0,0,0,.465-1.456" fill="#ce9c5f"/><path d="M447.4,217a4.692,4.692,0,0,0-2.055.476,57.277,57.277,0,0,1-15.863-25.091l-5.743-18.42h-.009l-1.868-5.848h10.622a1.869,1.869,0,0,0,0-3.737H421.62a3.557,3.557,0,0,0-3.388,4.64l1.578,4.945H357.426l-5.55-15.262-3.512,1.277,5.77,15.867-25.9,41.214a4.784,4.784,0,0,0-.722-.061,4.722,4.722,0,1,0,4.335,6.59h40.5l50.9-38.677,2.676,8.584A61,61,0,0,0,442.9,220.3a4.722,4.722,0,1,0,4.5-3.3m-115.559,2.853a4.768,4.768,0,0,0-.447-.807l24.354-38.751,14.385,39.558Zm41.612-1.8L358.786,177.7h62.208l1.065,3.416Z" fill="#043c40"/><path d="M383.2,221.067a10.631,10.631,0,1,1-10.631-10.631A10.631,10.631,0,0,1,383.2,221.067" fill="#0d7364"/><path d="M303.616,227.338h0a2.491,2.491,0,0,1-2.491-2.491v-6.26a2.491,2.491,0,0,1,4.982,0v6.26a2.492,2.492,0,0,1-2.491,2.491" fill="#df6c47"/><path d="M459.859,242.121h0a2.492,2.492,0,0,1,0-3.524l4.426-4.425a2.491,2.491,0,1,1,3.523,3.523l-4.426,4.426a2.491,2.491,0,0,1-3.523,0" fill="#df6c47"/><path d="M336.418,151.249h0a13.749,13.749,0,0,0,8.289,12.617L374.4,176.709l-24.279,19.9,7.266,6.229,42.63-23.246a4.944,4.944,0,0,0,.528-8.377l-27.976-19.968Z" fill="#0d7364"/><path d="M372.568,151.249h-36.15a13.723,13.723,0,0,0,2.116,7.314c7.569-1.685,32.953-7.314,34.034-7.314" fill="#043c40"/><path d="M374.4,176.707l7.869-5.015s-8.163-1.3-7.869,5.015" fill="#043c40"/><rect x="327.509" y="161.516" width="3.304" height="9.455" fill="#df6c47"/><g clip-path="url(#a)"><polygon points="373.589 137.117 382.313 128.394 392.153 128.394 392.153 137.117 373.589 137.117" fill="#ed8422"/></g><path d="M405.34,141.627a9.765,9.765,0,0,1-2.724-6.766V123.117H417a55.116,55.116,0,0,0-6.846-9.192l-7.906,4.9-.006.018a10.676,10.676,0,0,0-10.309-7.923h-4.477l1.988,26.483a14.757,14.757,0,0,0,6.475,11.136l16.33,10.211,5.958-3.672Z" fill="#ba3615"/><rect x="410.544" y="125.792" width="8.72" height="2.791" transform="translate(31.589 330.637) rotate(-45)" fill="#b2b2b2"/><path d="M395.228,127.145c.111-.441,1.052-4.463-1.064-7.571l-2.047,4.515.1.1c-.053,0-.1.009-.158.012l-6.088,13.427,2.677,4.866,8.717-11.833Z" fill="#ba3615"/><path d="M396.831,100.251l-.129-.073v4.67h-1.974a58.962,58.962,0,0,0-49.051,26.243l-13.446,20.158,3.921.918A92.634,92.634,0,0,0,381.4,151.4l.01,0,7.565,9.145,7.5-3.818-10.5-19.091,6.088-13.426c.053,0,.1-.01.158-.012l-.1-.105,1.533-3.382.514-1.132c2.116,3.108,1.176,7.13,1.064,7.571l1.474,2.421,7.916-11.639v-.569l5.537-3.433A55.1,55.1,0,0,1,417,123.118h2.64a59.022,59.022,0,0,0-22.81-22.867" fill="#d83b01"/><path d="M372.645,140.8a5.071,5.071,0,0,1-1.145-3.536L358.874,156.22l20.012-.462,2.889-3.923Z" fill="#ba3615"/><polygon points="406.392 230.917 399.644 233.423 392.459 233.876 391.634 229.987 398.382 227.481 405.566 227.028 406.392 230.917" fill="#0d7364"/><path d="M372.568,217.994a3.053,3.053,0,0,0-1.671.5l-24.149-8.572-1.25,3.522,24.148,8.571a3.072,3.072,0,1,0,2.922-4.018" fill="#043c40"/><polygon points="357.387 202.84 354.452 204.916 348.009 200.488 351.856 198.099 357.387 202.84" fill="#fda84c"/><path d="M348.009,200.489l-6.1,3.458s4.213,14.82,15.182,16.314a1.354,1.354,0,0,0,1.34-2.015l-5.652-9.967,1.673-3.363Z" fill="#4f3e33"/><polygon points="348.372 218.724 343.585 213.349 340.551 206.821 343.873 204.638 348.661 210.013 351.695 216.541 348.372 218.724" fill="#0d7364"/><path d="M166.144,53.491a20.962,20.962,0,1,1,20.962,20.963,20.962,20.962,0,0,1-20.962-20.963" fill="#ed8422" fill-rule="evenodd"/><path d="M166.144,53.491a20.852,20.852,0,0,0,2.649,10.2,23.289,23.289,0,0,0,30.566-27.2,20.958,20.958,0,0,0-33.215,17" fill="#fda84c" fill-rule="evenodd"/><path d="M192.146,50.057a1.467,1.467,0,0,0-2.734,0H187.87V47.563a1.473,1.473,0,1,0-1.077,0V50.6l.538.539h2.081a1.467,1.467,0,0,0,2.734,0h.034v-.109a1.338,1.338,0,0,0,0-.86v-.108Z" fill="#fff"/><path d="M175.894,51.574a1.471,1.471,0,0,0,1.367-.934h2.7v2.03a1.472,1.472,0,1,0,1.078,0V50.1l-.539-.539h-3.241a1.471,1.471,0,1,0-1.367,2.011" fill="#fff"/><path d="M194.31,46.63a1.469,1.469,0,0,0-.634,2.795V53.5h-3.865a1.473,1.473,0,1,0,0,1.077h4.4l.538-.538V49.5a1.468,1.468,0,0,0-.443-2.869" fill="#fff"/><path d="M197.866,51.2V45.657l-.158-.38-1.317-1.318-.381-.157H192.7a1.473,1.473,0,1,0,0,1.077h3.09l1,1V51.2a1.472,1.472,0,1,0,1.078,0" fill="#fff"/><path d="M181.226,43.718a1.469,1.469,0,0,0,1.367-.934h3.372a1.47,1.47,0,1,0,0-1.077h-3.37a1.471,1.471,0,1,0-1.368,2.011" fill="#fff"/><path d="M178.593,47.548a1.471,1.471,0,0,0,1.367-.933h3.96V52.67a1.473,1.473,0,1,0,1.077,0V46.076l-.538-.539h-4.5a1.471,1.471,0,1,0-1.367,2.011" fill="#fff"/><path d="M186.134,56.156a1.47,1.47,0,0,0-1.367.934h-5.293l-2.2-2.2a1.488,1.488,0,1,0-.707.817l2.3,2.3.381.158h5.516a1.471,1.471,0,1,0,1.367-2.011" fill="#fff"/><path d="M191.748,57.628A1.473,1.473,0,1,0,189.737,59V63.23a1.472,1.472,0,1,0,1.078,0V59a1.471,1.471,0,0,0,.933-1.368" fill="#fff"/><path d="M195.687,57.628A1.472,1.472,0,1,0,193.676,59v1.73a1.472,1.472,0,1,0,1.078,0V59a1.471,1.471,0,0,0,.933-1.368" fill="#fff"/><path d="M201.2,92.42a20.872,20.872,0,1,1,20.873,20.873A20.872,20.872,0,0,1,201.2,92.42" fill="#45a094" fill-rule="evenodd"/><path d="M281.014,52.986A20.622,20.622,0,1,1,255.85,38.247a20.622,20.622,0,0,1,25.164,14.739" fill="#043c40" fill-rule="evenodd"/><path d="M274.962,42.97a20.623,20.623,0,0,0-29.63,28.571,25.909,25.909,0,0,0,11.082-.38A24.686,24.686,0,0,0,274.962,42.97" fill="#0d7364" fill-rule="evenodd"/><path d="M271.3,55.72a3.314,3.314,0,0,0-2.631,1.3l-6.11-2.934,1.3-1.988a2.538,2.538,0,1,0-1.745-2.764l-5.446.747a2.242,2.242,0,1,0-2.772,3.078l-.231,7.281a4.481,4.481,0,1,0,5.052,4.442c0-.1-.009-.2-.015-.292l9.8-3.743A3.322,3.322,0,1,0,271.3,55.72m-14.9,5.236a4.437,4.437,0,0,0-1.36-.483l.23-7.276a2.236,2.236,0,0,0,1.006-.605l4.268,2.049Zm.608-9.538,5.283-.724a2.521,2.521,0,0,0,.419.647l-1.4,2.141Zm1.392,11.813A4.5,4.5,0,0,0,257.5,61.8l4.305-6.561,6.276,3.014a3.294,3.294,0,0,0-.1.787,3.367,3.367,0,0,0,.044.516Z" fill="#fff"/><path d="M201.2,92.42a20.782,20.782,0,0,0,3.031,10.839,21.72,21.72,0,0,0,29.593-28.088A20.872,20.872,0,0,0,201.2,92.42" fill="#48c4ae" fill-rule="evenodd"/><path d="M229.973,87.7a2.988,2.988,0,0,0-1.035.816c-.037-.089-.076-.178-.118-.266a6.025,6.025,0,0,0-11.086,4.693,4.111,4.111,0,1,0-.154,7.344l14.987-7.148a3.013,3.013,0,0,0-2.594-5.439" fill="#fff"/><path d="M298.334,113.872a21.76,21.76,0,1,1-26.553-15.553,21.761,21.761,0,0,1,26.553,15.553" fill="#043c40" fill-rule="evenodd"/><path d="M291.948,103.3a21.761,21.761,0,0,0-31.265,30.148,27.338,27.338,0,0,0,11.694-.4A26.048,26.048,0,0,0,291.948,103.3" fill="#0d7364" fill-rule="evenodd"/><path d="M244.806,135.463a13.643,13.643,0,1,1-13.643-13.643,13.643,13.643,0,0,1,13.643,13.643" fill="#ed8422" fill-rule="evenodd"/><path d="M217.521,135.463a13.6,13.6,0,0,0,3.511,9.136,14.994,14.994,0,0,0,12.577-22.556,13.632,13.632,0,0,0-16.088,13.42" fill="#fda84c" fill-rule="evenodd"/><path d="M278.8,129.15l5.29-3.264a12.79,12.79,0,0,1-.577-6.934,8.519,8.519,0,1,0-10.537,6.613,12.07,12.07,0,0,1,5.824,3.585" fill="#fff"/><polygon points="284.105 125.874 278.767 129.168 280.478 131.94 282.327 130.798 283.07 132.001 284.707 130.991 283.965 129.788 285.815 128.646 284.105 125.874" fill="#e6e6e6"/><path d="M239.362,136.513v-2.264l-2.417-.387a6.048,6.048,0,0,0-.656-1.54l1.447-2-1.6-1.6-2.017,1.461a6.012,6.012,0,0,0-1.513-.619l-.395-2.468h-2.264l-.4,2.468a6.054,6.054,0,0,0-1.514.618l-2.017-1.46-1.6,1.6,1.446,2a6.048,6.048,0,0,0-.656,1.54l-2.417.387v2.264l2.382.382a6.025,6.025,0,0,0,.648,1.6l-1.4,1.939,1.6,1.6,1.919-1.39a6.026,6.026,0,0,0,1.633.683l.374,2.333h2.264l.372-2.333a6.019,6.019,0,0,0,1.634-.683l1.919,1.39,1.6-1.6-1.4-1.939a5.989,5.989,0,0,0,.647-1.6Zm-7.541,2.1a3.256,3.256,0,0,1-3.909-3.909,3.222,3.222,0,0,1,2.422-2.421,3.251,3.251,0,1,1,1.487,6.33" fill="#fff"/><path d="M299.732,83.937a16.25,16.25,0,1,1,16.25,16.25,16.249,16.249,0,0,1-16.25-16.25" fill="#45a094" fill-rule="evenodd"/><path d="M299.732,83.937a16.176,16.176,0,0,0,2.36,8.438,16.909,16.909,0,0,0,23.039-21.866,16.249,16.249,0,0,0-25.4,13.428" fill="#48c4ae" fill-rule="evenodd"/><path d="M324.578,84.452c-1.642-1.724-4.023-1.869-6.416-1.85.138-2.38.121-4.759-1.5-6.466a4.471,4.471,0,0,0-6.476,6.166,6.765,6.765,0,0,0,4.84,1.795l.144-1.492a5.466,5.466,0,0,1-3.9-1.336,2.973,2.973,0,1,1,4.306-4.1c1.226,1.288,1.216,3.288,1.087,5.453l-.094,1.5c-.136,2.388-.107,4.771,1.536,6.5a4.471,4.471,0,1,0,6.475-6.166m-5.39,5.133c-1.246-1.308-1.247-3.312-1.119-5.484,2.176-.022,4.179.077,5.424,1.383a2.973,2.973,0,0,1-4.305,4.1" fill="#fff"/><path d="M408.829,140.559a12.8,12.8,0,0,0-10.29,5.173A18.8,18.8,0,0,0,388.983,131l-3.007,6.633,10.5,19.09-7.5,3.819L372.645,140.8a5.076,5.076,0,0,1-.783-5.165l2.556-6.221a18.8,18.8,0,0,0-13.381,18c0,.3.008.606.023.906a9.392,9.392,0,1,0-4.007,17.884h51.776a12.819,12.819,0,1,0,0-25.638" fill="#e6e6e6"/><path d="M405.968,159.107l-9.492-2.385-7.5,3.819,3.369,6.582a5.19,5.19,0,0,0,4.8,2.715l4.378-.362,1.563-.685.489.064a2.385,2.385,0,0,0,2.624-1.778l-.118-3.436,1.374,1.1a1.749,1.749,0,0,0,2.147.028l.416-.315Z" fill="#ce9c5f"/><path d="M435.647,115.711l-5.285-.511.769.965a4.181,4.181,0,0,0,3.505,1.574l.295-.051Z" fill="#8c6943"/><path d="M401.99,110.137,391.425,99.572l0,.011a4.691,4.691,0,0,0-3.64-1.728h-8.854a30.867,30.867,0,0,0-25.56,13.562l-5.39,7.959a5.54,5.54,0,0,0,.959,7.288,58.915,58.915,0,0,1,8.862-8.819l15.076,15.076c.024.023.049.043.073.065l3.012-7.333L363.878,113.57a58.951,58.951,0,0,1,26.4-8.544L400.451,115.2a5,5,0,0,1,1.465,3.536V121.1a1.638,1.638,0,0,1-.224.827l-1.17,2.007h.511a2,2,0,0,0,2-2v-9.276a3.557,3.557,0,0,0-1.043-2.518" fill="#c58d1f"/><path d="M360.534,113.207a1.826,1.826,0,1,0-1.826,1.826,1.826,1.826,0,0,0,1.826-1.826" fill="#edac28"/></svg>