<svg xmlns="http://www.w3.org/2000/svg" viewBox="0 0 300 300"><title>MSC17-cloud-010</title><path d="M300,0V300H0V0Z" fill="#00bcf2"/><path d="M110.453,254.827l-.56-12.681h-.76v-2.518h-.545V223.4h-4.465v8.672h-3.529a4.355,4.355,0,0,0-4.35,4.35v1.122a9.617,9.617,0,0,0-1.66,4.355.461.461,0,0,0,.459.5h3.8a.46.46,0,0,0,.459-.5,9.606,9.606,0,0,0-1.66-4.355v-1.122a2.955,2.955,0,0,1,2.951-2.952h3.529v6.154h-.545v2.518h-.76l-.56,12.681h1.32v7.179h5.555v-7.179Z" fill="#737373"/><path d="M56.405,269.372H226.511a2.255,2.255,0,1,0,0-4.509H56.405a2.255,2.255,0,1,0,0,4.509" fill="#1386aa"/><path d="M238.886,51.886a16.917,16.917,0,0,0-6.5,1.292c0-.213.015-.422.015-.635a33.331,33.331,0,0,0-65.588-8.387,25.35,25.35,0,1,0-19.359,41.715h91.433a16.993,16.993,0,0,0,0-33.985" fill="#fff"/><path d="M124.409,267.526a5.332,5.332,0,0,0-1.56-2.522l-.779-6.922h-7.276l-.232.34c-1.012,1.486-2.212,3.494-3.091,5.01a9.893,9.893,0,0,0-1.333,4.59l-.053,1.346h14.391v-1.291a2.085,2.085,0,0,0-.067-.551"/><path d="M163.179,100.854,168.256,85l8.946-3.617,4.656,2.241-.57.725a2.216,2.216,0,0,1-2.437.734l-1.735-.573-3.26,1.853-.2,4.054a11.236,11.236,0,0,1-2.039,5.919l-3.386,7.349Z" fill="#bb9167"/><polygon points="162.852 100.731 164.228 97.562 170.181 100.731 168.068 105.052 162.852 100.731" fill="#f3f3f3"/><path d="M180.96,74.771l-1.76.006a4.293,4.293,0,0,0-4.11,3.04l-3.473,15.649,34.805-.117L209.9,77.7c.371-1.673-.867-3.025-2.765-3.018l-26.17.088" fill="#ed8422"/><rect x="180.614" y="70.966" width="27.309" height="20.34" transform="translate(-1.857 4.597) rotate(-1.349)" fill="#fff"/><path d="M188.33,71.559l-.688-1.947a.969.969,0,0,0-.915-.645l-7.482.026a.966.966,0,0,0-.91.65L177.66,71.6a.974.974,0,0,1-.917.655l-1.76.006a3.438,3.438,0,0,0-3.426,3.45l.059,17.76,34.806-.116-.06-17.762a3.438,3.438,0,0,0-3.449-3.426l-13.662.046a.972.972,0,0,1-.921-.649" fill="#fda84c"/><path d="M169.674,99.09l6.947-3.336a2.453,2.453,0,0,0,1.253-1.4l1.465-4.173-.852-.157a2.167,2.167,0,0,0-2.24,1l-.9,1.3-4.654-.424Z" fill="#bb9167"/><polygon points="164.193 269.367 161.144 269.367 159.184 203.264 166.152 203.264 164.193 269.367" fill="#939393"/><polygon points="160.643 256.577 164.066 262.426 153.176 261.328 149.558 255.783 158.44 254.664 160.643 256.577" fill="#d2d2d2"/><path d="M106.27,254.084s-17.692.511-28.192,4.455a1.536,1.536,0,0,0-.939,1.86l.459,1.608a135.562,135.562,0,0,1,28.672-2.938Z" fill="#b2b2b2"/><polygon points="77.598 262.006 82.446 262.006 82.446 259.07 78.251 260.538 77.598 262.006" fill="#b2b2b2"/><path d="M82.447,262.84v-.834H77.6v4.85h1.68a3.26,3.26,0,1,0,3.169-4.016" fill="#737373"/><polygon points="134.942 262.006 130.094 262.006 130.094 259.07 134.29 260.538 134.942 262.006" fill="#d2d2d2"/><path d="M134.942,262.84v-.834h-4.848v4.85h1.68a3.26,3.26,0,1,0,3.168-4.016" fill="#737373"/><path d="M153.176,261.327a35.368,35.368,0,0,0-1.5,8.04h24.773s-.753-5.821-6.784-5.821-7.127-5.841-7.127-5.841h0a5.4,5.4,0,0,0-2.987,3.3l-.1.317Z"/><path d="M85.619,211.52l-5.07-43.11a2.415,2.415,0,0,1,.632-1.922l.212-.228a4.051,4.051,0,0,1,3.5-1.253,119.282,119.282,0,0,0,33.638-.278l9.977,61.962H88.319a6.181,6.181,0,0,1-5.627-8.74Z" fill="#fff"/><path d="M124.876,210.2v-1.119H87.787a58.821,58.821,0,0,0-.259-9.731l-.984-8.945c2.817.231,11.357.868,20.485.868a116.27,116.27,0,0,0,16.249-.956l-.163-1.106c-12.859,1.9-32.644.4-36.7.061l-.865-7.861c2.251.194,11.137.9,20.707.9a115.747,115.747,0,0,0,16.177-.955l-.163-1.107c-13.39,1.981-34.053.271-36.846.025l-.825-7.5c2.737.238,10.729.861,19.429.861a113.068,113.068,0,0,0,15.886-.956l-.164-1.107c-12.793,1.893-31.334.417-35.277.067l-.729-6.626a3.377,3.377,0,0,0-2.644,1.319,2.413,2.413,0,0,0-.58,1.866l2.865,33.57a47.682,47.682,0,0,1-.965,14.4l-1.157,5.2a5.8,5.8,0,0,0,5.663,7.064H108a14.035,14.035,0,0,1,6.288,1.488l.987.5a1.822,1.822,0,0,0,2.134-.369,1.688,1.688,0,0,0-.318-2.59,18.056,18.056,0,0,0-9.716-2.837h-1.107v-.105l-18.31.177a2.284,2.284,0,0,1-2.247-2.8l.5-2.182H123.2V218.6H86.467a58.839,58.839,0,0,0,1.238-8.4Z" fill="#d2d2d2"/><path d="M86.178,199.566s20.093.531,37.579,0" fill="none" stroke="#d2d2d2" stroke-miterlimit="10" stroke-width="1.244"/><path d="M130.065,212.257,148.2,222.422a8.752,8.752,0,0,1,4.131,5.216l8.31,28.939c-1.924,1.968-9.976,6.266-9.976,6.266l-11.68-26.937-3.191-1.029a59.629,59.629,0,0,1-28.019-19.207l8.043-14.086Z"/><path d="M134.463,258.539c-10.5-3.944-28.193-4.455-28.193-4.455L99.1,257.306a2.264,2.264,0,0,0-1.292,2.506l.3,1.515h4.557v-1l3.6-1.259a135.566,135.566,0,0,1,28.673,2.938l.459-1.608a1.536,1.536,0,0,0-.939-1.86" fill="#d2d2d2"/><path d="M112.676,206.9,94.1,203.264l-3.484,7.273a15.092,15.092,0,0,0,11.05,14.539l19.847,5.975c-7.832,11.748-9.62,27.514-9.62,27.514a22.122,22.122,0,0,0,10.48,2.87c5-8.281,10.143-20.264,16.633-29.456,2.1-2.977,2.122-6.907-.631-9.293-9.009-7.809-25.7-15.785-25.7-15.785" fill="#505050"/><path d="M95.875,221.748s14.74,6.362,23.812-9.6c0-4.353-3.329-1.665-3.329-1.665L95.491,219.06Z"/><path d="M162.6,99.451l-2.666,6.133A129.1,129.1,0,0,1,120.57,156.2l-.7-.849-16.505,2.031A11.341,11.341,0,0,0,93.449,167.7l-4.616,54.69s25.6.833,35.2-14.657c1.152,1.025,2.563,2.367,2.563,2.367a27.228,27.228,0,0,0,4.993,3.2l-2.756-10.781c-.407-1.866-.474-16.613-.471-26.873a27.774,27.774,0,0,0-.589-5.681l11.53-11.732a129.147,129.147,0,0,0,26.448-39.324l5.8-13.44Z" fill="#505050"/><path d="M95.893,171.654l9.149,19.057a4.664,4.664,0,0,0,4.21,2.745l25.8-.25,2.816-7.059-23.94-1.561-5.971-16.04a12.154,12.154,0,0,0-3.962-5.085,5.451,5.451,0,0,0-8.232,2.281,6.633,6.633,0,0,0,.133,5.912" fill="#737373"/><path d="M121.515,231.05a29.416,29.416,0,0,1,4.506-4.708c-4.508-.606-4.925,3.123-4.506,4.708"/><polygon points="102.669 262.84 102.669 261.327 98.063 261.327 98.063 262.84 96.944 262.84 96.944 269.367 103.7 269.367 103.7 262.84 102.669 262.84" fill="#737373"/><polygon points="166.152 203.264 165.489 225.642 159.656 219.162 159.185 203.264 166.152 203.264" fill="#737373"/><rect x="100.442" y="193.193" width="124.763" height="10.071" fill="#09538f"/><rect x="47.355" y="193.193" width="53.088" height="10.071" fill="#0078d7"/><polygon points="116.968 269.367 113.92 269.367 111.96 203.264 118.927 203.264 116.968 269.367" fill="#e6e6e6"/><polygon points="64.375 269.367 61.326 269.367 59.366 203.264 66.335 203.264 64.375 269.367" fill="#939393"/><polygon points="211.187 269.367 208.139 269.367 206.179 203.264 213.147 203.264 211.187 269.367" fill="#e6e6e6"/><path d="M189.021,166.266a4.013,4.013,0,0,0-2.2-.655h-40.4a3.968,3.968,0,0,0-3.7,2.532l-8.606,21.846a1.371,1.371,0,0,1-1.278.874H109.425v2.33h26.044l46.139-2.805.369-.948,7.638-22.786Z" fill="#c2c2c2"/><path d="M133.19,193.193h47.327l1.091-2.8H136.56l-.266.681a3.329,3.329,0,0,1-3.1,2.123" fill="#d2d2d2"/><path d="M189.1,166.539h-41.08a3.194,3.194,0,0,0-2.977,2.036l-8.113,20.865h45.048l8.259-21.239a1.22,1.22,0,0,0-1.137-1.662" fill="#d2d2d2"/><polygon points="164.626 178.869 165.316 177.131 162.721 177.131 162.031 178.869 164.626 178.869" fill="#fff"/><polygon points="165.287 178.869 167.637 178.869 168.327 177.131 165.978 177.131 165.287 178.869" fill="#fff"/><polygon points="164.381 179.484 161.787 179.484 161.096 181.222 163.69 181.222 164.381 179.484" fill="#fff"/><polygon points="165.043 179.484 164.352 181.222 166.703 181.222 167.393 179.484 165.043 179.484" fill="#fff"/><polygon points="59.366 203.264 66.134 210.031 66.335 203.264 59.366 203.264" fill="#737373"/><polygon points="123.975 163.979 127.528 163.884 122.535 154.282 108.517 153.898 107.173 157.067 109.669 164.459 114.086 163.788 110.822 165.995 121.383 183.471 120.642 179.874 126.184 165.611 123.975 163.979" fill="#737373"/><path d="M122.535,154.282,110.341,153l-.244,1.371-.4-.347.314.808-.047.259.215.177,3.039,7.845,1.856-2.689,1.393,2.307a19.78,19.78,0,0,1,1.613,4.711l2.093,10.169,1.878-17.57,3.361,2.208Z" fill="#f3f3f3"/><path d="M127.734,145.491l-2.78-11.459a11.679,11.679,0,0,0-22.7,5.508l.961,3.96a2.188,2.188,0,0,0-2.505,2.852l.813,2.411a3.4,3.4,0,0,0,3.867,2.251A11.674,11.674,0,0,0,118.509,157l2.59-.628a9.014,9.014,0,0,0,6.635-10.885" fill="#bb9167"/><path d="M127.734,145.491l-1.9-7.849-2.591-.131c-1.774.523-2.921,2.123-2.24,3.905l1.744,3.692a1.222,1.222,0,0,1-.823,1.636l-1.065.258a.94.94,0,0,0-.594,1.379c.906,1.616,2.24,4.827.838,8l-2.59.628a11.583,11.583,0,0,1-7.354-.63l4.435,2.837,3.649,5.633,2.8-8.753a9.013,9.013,0,0,0,5.7-10.6" fill="#ab845f"/><path d="M114.385,142.18a1.256,1.256,0,1,1-1.517-.924,1.258,1.258,0,0,1,1.517.924"/><path d="M125.068,140.159a1.256,1.256,0,1,1-1.517-.924,1.256,1.256,0,0,1,1.517.924"/><path d="M110.321,141.573a.48.48,0,0,1-.375-.778,4.93,4.93,0,0,1,4.281-1.779.48.48,0,0,1-.141.949,4.016,4.016,0,0,0-3.389,1.429.481.481,0,0,1-.376.179"/><path d="M121.8,138.438a.48.48,0,0,1-.3-.851,5.049,5.049,0,0,1,4.483-.723.48.48,0,0,1-.3.912,4.143,4.143,0,0,0-3.573.553.478.478,0,0,1-.3.109"/><path d="M120.007,125.285c-4.225-2.88-11.523-2.368-11.523-2.368l1.217,1.6s-4.993.512-7.233,3.137c1.6-.065,2.048.32,2.048.32s-4.224,1.6-3.584,7.041a43.537,43.537,0,0,0,1.783,8.44,2.2,2.2,0,0,1,2.217,1.7l.291,1.266.574.624,1.856-1.152-1.7-3.814a5.718,5.718,0,0,1,1.274-6.455l1.477-1.413a4.059,4.059,0,0,1,3.41-1.079l2.732.413a4.169,4.169,0,0,0,1.593-.068l.588-.141a4.162,4.162,0,0,0,2.7-2.092l1.232-2.314,1.984.832s-1.021-3.17-2.944-4.481"/><path d="M105.408,148.753a1.157,1.157,0,0,1-.33-1.67l.179-.242.081.043-.237-1.032a1.642,1.642,0,1,0-3.157.893l.608,1.8a2.553,2.553,0,0,0,3.019,1.665l.5-.123-.139-.607a1.154,1.154,0,0,0-.525-.728" fill="#ab845f"/><path d="M117.067,150.462l7.115-2.308s-1.442,5.962-7.115,2.308" fill="#fff"/></svg>