<svg xmlns="http://www.w3.org/2000/svg" xmlns:xlink="http://www.w3.org/1999/xlink" viewBox="0 0 636 300"><defs><clipPath id="a"><path d="M237.111,166.7l-6.8,5.8-2.949,1.023a3.227,3.227,0,0,0-2.093,2.355l-2.238,9.062,6.447,3.926,5.906-2.493a6.822,6.822,0,0,0,2.842-2.246l1.905-2.6a3.4,3.4,0,0,0-.106-4.153l-4.182-5.129,3.09-3.754a1.285,1.285,0,0,0-1.826-1.794" fill="none"/></clipPath><clipPath id="b"><path d="M163.152,103.388l-2.377,18.773a.992.992,0,0,0,.86,1.108L171.4,124.5a.992.992,0,0,0,1.109-.86l2.377-18.772a.99.99,0,0,0-.86-1.108l-9.769-1.234a1.063,1.063,0,0,0-.125-.008.993.993,0,0,0-.983.868" fill="none"/></clipPath></defs><title>MSC17-collaboration-003</title><path d="M636,0V300H0V0Z" fill="#ffcb40"/><path d="M385.133,146.851H206.844V118.109a8.759,8.759,0,0,0-8.749-8.749H178.816v2.184H198.1a6.572,6.572,0,0,1,6.565,6.565v67.325h2.184v-36.4H385.133Z" fill="#fff"/><path d="M345.278,55.412H258.722a8.884,8.884,0,0,0-8.884,8.884v180.19a8.885,8.885,0,0,0,8.884,8.885h86.556a8.884,8.884,0,0,0,8.884-8.885V64.3a8.883,8.883,0,0,0-8.884-8.884" fill="#282828"/><polygon points="256.199 228.12 347.801 228.12 347.801 92.538 302 86.811 256.199 92.538 256.199 228.12" fill="#fff"/><rect x="256.199" y="72.009" width="91.602" height="20.502" fill="#1070c4"/><rect x="292.877" y="160.043" width="46.72" height="2.357" fill="#ddd"/><rect x="262.411" y="169.668" width="77.184" height="2.175" fill="#ddd"/><rect x="262.411" y="179.11" width="77.184" height="2.175" fill="#ddd"/><rect x="262.411" y="188.553" width="42.513" height="2.353" fill="#ddd"/><rect x="262.411" y="197.996" width="77.184" height="2.175" fill="#ddd"/><rect x="304.922" y="207.424" width="34.672" height="2.191" fill="#ddd"/><path d="M278.151,160.043c.869-1.5,3.545-6.108,11.805-20.336,5.293-9.062-1.457-20.5-12.046-20.5h-.55c-10.571,0-17.333,11.438-11.85,20.5,0,0,.009.014,11.8,20.336h-14.9V162.4h30.464v-2.357Z" fill="#48c4ae"/><path d="M284.492,135.176v-1.271a6.565,6.565,0,0,0-3.649-5.992c0-.363.185-.725.185-1.093a3.292,3.292,0,0,0-6.583,0v1.093a6.561,6.561,0,0,0-3.642,5.992v1.271a33.6,33.6,0,0,0,.907,5.09,6.03,6.03,0,0,0,2.921,3.444v2h-1.643a4.655,4.655,0,0,0,4.742,4.531,4.5,4.5,0,0,0,4.57-4.531h-1.457v-2a5.319,5.319,0,0,0,2.948-3.43,31.53,31.53,0,0,0,.7-5.1" fill="#fff"/><path d="M322.789,188.55c.973-1.679,3.75-6.467,11.686-20.152a13.782,13.782,0,0,0-12.034-20.7h-.364a13.823,13.823,0,0,0-12.047,20.7l11.705,20.152H304.924v2.356H339.6V188.55Z" fill="#5c2d91"/><path d="M284.218,207.424c1.07-1.846,3.929-6.778,11.574-19.962,5.3-9.074-1.458-20.7-12.035-20.7h-.544a13.805,13.805,0,0,0-11.867,20.7s.008.015,11.591,19.962H262.411v2.191h42.511v-2.191Z" fill="#1070c4"/><path d="M329.734,159.5a7.332,7.332,0,0,0-7.472-7.252h-.185a7.293,7.293,0,0,0-7.305,7.252v11.254h.179a6.629,6.629,0,0,0,3.65-1.087c.2.178.2.178.377.178v2.18h-1.656a4.931,4.931,0,0,0,9.862,0h-1.643v-2.18a.564.564,0,0,0,.364-.178,6.612,6.612,0,0,0,3.65,1.087h.179Z" fill="#fff"/><rect x="292.328" y="101.23" width="48.543" height="2.719" fill="#c4c4c4"/><rect x="263.14" y="101.23" width="9.845" height="2.719" fill="#c4c4c4"/><rect x="277.73" y="101.23" width="9.861" height="2.719" fill="#c4c4c4"/><rect x="333.926" y="78.898" width="8.949" height="0.725" fill="#fff"/><rect x="333.926" y="81.44" width="8.949" height="0.725" fill="#fff"/><rect x="333.926" y="83.995" width="8.949" height="0.725" fill="#fff"/><path d="M292.148,184.183a2.591,2.591,0,0,0-.364-1.086v-3.26a8.162,8.162,0,0,0-8.207-8.172h-.184a8.121,8.121,0,0,0-8.033,8.172v3.26a1.564,1.564,0,0,0-.55,1.086,1.644,1.644,0,0,0,1.643,1.652v.362a6.432,6.432,0,0,0,2.734,5.8v1.627a4.333,4.333,0,0,0,4.39,4.365,4.438,4.438,0,0,0,4.379-4.365V192a6.444,6.444,0,0,0,2.729-5.8v-.362a1.5,1.5,0,0,0,1.463-1.652" fill="#fff"/><rect x="297.788" y="236.378" width="8.423" height="8.424" fill="#505050"/><path d="M219.605,190.67v32.387a7.684,7.684,0,0,1-3.844,6.658l-28.047,16.193a7.687,7.687,0,0,1-7.689,0l-28.047-16.193a7.687,7.687,0,0,1-3.844-6.658V190.67a7.688,7.688,0,0,1,3.844-6.658l28.047-16.194a7.691,7.691,0,0,1,7.689,0l28.047,16.194a7.686,7.686,0,0,1,3.844,6.658" fill="#1070c4"/><path d="M240.029,177.372l-4.182-5.129,3.09-3.754a1.285,1.285,0,0,0-1.826-1.794l-6.8,5.8-2.949,1.023a3.227,3.227,0,0,0-2.093,2.354l-2.05,8.3-.049.031-4.67,21.1-17.76-8.13L199.3,208.724l23.415,11.049a4.229,4.229,0,0,0,5.825-3.669l1.595-27.519,5.252-2.218a6.82,6.82,0,0,0,2.842-2.245l1.905-2.6a3.393,3.393,0,0,0-.106-4.153" fill="#8e562e"/><g clip-path="url(#a)"><path d="M230.992,178.032l1.131,1.257a1.191,1.191,0,0,0,1.754.02l1.067,1.191a1.367,1.367,0,0,0,1.82.2l.343,1.182a1.972,1.972,0,0,0,1.08,1.247l.519.235-1.61,2.391a.375.375,0,0,1-.307.165c-2.241.029-4.079-2-5.755-3.458a1.474,1.474,0,0,1-1.8-.277l-.986-1.055Z" fill="#704322"/></g><path d="M198.184,196.039a13.251,13.251,0,0,0-3.185-.853l-2.982-.46a32.894,32.894,0,0,0-20.568,3.53l-.277.149a16.176,16.176,0,0,0-7.946,18.745l5.953,22.5,10.847,6.263a7.69,7.69,0,0,0,7.688,0l19.209-11.091c.316-6.312.373-15.027-1.041-21.594l2.189.605s4.883-3.662,5.771-11.544a163.545,163.545,0,0,0-15.658-6.246" fill="#fff"/><path d="M182.163,186.539l-.9,5.115a4.61,4.61,0,0,1-1.556,2.719l-1.608,1.364,12.371,7.669,6.123-7.892a4.864,4.864,0,0,1-2.675-3.857L193.439,187Z" fill="#704322"/><path d="M179.708,194.372l-1.607,1.365,3.964,2.457c7.045-.671,11.639-8.631,11.639-8.631l-11.541-3.025-.9,5.116a4.606,4.606,0,0,1-1.557,2.718" fill="#8e562e"/><path d="M200.664,180.182l-.613-8.106a14.645,14.645,0,0,0-29.23.343,2.25,2.25,0,0,0-.836,1.924l.169,2.231a3.358,3.358,0,0,0,1.013,2.151l.032.428a14.652,14.652,0,0,0,15.714,13.506l3.235-.244a11.407,11.407,0,0,0,10.516-12.233" fill="#8e562e"/><path d="M190.97,191.854l-1.026.576.205-.015a11.407,11.407,0,0,0,10.515-12.233l-.612-8.106a14.675,14.675,0,0,0-.352-2.2l-.408-.176a7.588,7.588,0,0,0-6.866.43l-.286.168a1.48,1.48,0,0,0-.314,2.3l2.18,2.267a2.208,2.208,0,0,1-.707,3.555l-1.4.614,1.736,5.3.169,2.235a5.575,5.575,0,0,1-2.83,5.28" fill="#704322"/><path d="M184.7,173.519a1.3,1.3,0,1,1-1.394-1.2,1.3,1.3,0,0,1,1.394,1.2"/><path d="M200.664,180.182l-.034-.456-3.864,3.374-.467-.868a4.8,4.8,0,0,0-4.587-2.514l-1.584.12a4.8,4.8,0,0,0-3.857,2.5l-.689,1.274-4.962-1.155a5.592,5.592,0,0,1-4.309-5.026l-.4-5.287a7.018,7.018,0,0,1,1.414-4.781l.482-.633a5.735,5.735,0,0,1,5.631-2.159,18.731,18.731,0,0,0,12.25-1.844,14.629,14.629,0,0,0-24.867,9.693A2.25,2.25,0,0,1,174.475,174l.424,5.61-1.111.084a3.363,3.363,0,0,1-2.621-.973l.032.428a14.652,14.652,0,0,0,15.714,13.506l3.235-.244a11.407,11.407,0,0,0,10.516-12.233"/><path d="M197.467,172.619a1.3,1.3,0,1,1-1.393-1.2,1.3,1.3,0,0,1,1.393,1.2"/><path d="M193.1,185.388l-3.2.242a1.954,1.954,0,0,1-2.095-1.8l-.009-.129,7.222-.545a2.082,2.082,0,0,1-1.919,2.232" fill="#fff"/><path d="M179.1,172.126a.656.656,0,0,1-.405-.139.664.664,0,0,1-.122-.933c1.575-2.047,5.326-2.973,7.87-1.944a.666.666,0,0,1-.5,1.235,6.119,6.119,0,0,0-6.314,1.521.667.667,0,0,1-.529.26"/><path d="M192.6,170.553a.666.666,0,0,1-.415-1.187,5.873,5.873,0,0,1,6.613-.5.666.666,0,0,1-.665,1.155,4.547,4.547,0,0,0-5.119.385.668.668,0,0,1-.414.144"/><path d="M164.225,205.727l-11.84,22.4a5.058,5.058,0,0,0,2.529,7.031l12.939,5.382-.3-6.623-5.327-4.884L170,217.6Z" fill="#8e562e"/><path d="M159.481,214.718s-.334,7.492,5.66,9.99c1.333-1.915,5-7.743,5-7.743l-9.241-4.787Z" fill="#704322"/><path d="M166,202.841l-7.1,9.879s4.218,5.55,13.209,6.659a21.529,21.529,0,0,0,1.887-12.431Z" fill="#fff"/><path d="M184.924,247.707l-22.086-28.175a1.657,1.657,0,0,1,.281-2.325l18.241-14.3a1.658,1.658,0,0,1,2.325.282l22.086,28.175a1.657,1.657,0,0,1-.283,2.326l-18.24,14.3a1.654,1.654,0,0,1-2.324-.281"/><rect x="173.44" y="208.79" width="21.729" height="33.318" transform="translate(-99.833 161.719) rotate(-38.092)" fill="#e6e6e6"/><polygon points="166.474 220.323 183.579 206.798 182.603 205.561 165.464 219.047 166.474 220.323" fill="#1070c4"/><rect x="182.669" y="224.385" width="11.132" height="0.561" transform="translate(-98.724 164.986) rotate(-38.294)" fill="#ddd"/><rect x="177.599" y="228.439" width="18.391" height="0.518" transform="translate(-101.532 164.955) rotate(-38.293)" fill="#ddd"/><rect x="178.993" y="230.205" width="18.391" height="0.518" transform="translate(-102.326 166.199) rotate(-38.293)" fill="#ddd"/><rect x="180.387" y="231.971" width="18.391" height="0.518" transform="translate(-103.121 167.443) rotate(-38.293)" fill="#ddd"/><rect x="181.781" y="233.737" width="18.391" height="0.518" transform="matrix(0.785, -0.62, 0.62, 0.785, -103.915, 168.687)" fill="#ddd"/><rect x="183.174" y="235.499" width="18.391" height="0.522" transform="translate(-104.708 169.93) rotate(-38.293)" fill="#ddd"/><path d="M183.692,227.9l-2.753,2.174c-.058-.406-.239-1.659-.795-5.545a3.273,3.273,0,0,0-5.28-2.056l-.1.081a3.239,3.239,0,0,0,.81,5.584l5.21,2.06-2.786,2.2.347.44,5.7-4.5Z" fill="#5c2d91"/><path d="M176.075,224.123a1.513,1.513,0,0,0-.309,2.11l.293.394a1.507,1.507,0,0,0,1.694.519l.169.229-.473.352a1.128,1.128,0,0,0,1.683-1.252l-.473.352-.17-.228a1.509,1.509,0,0,0-.011-1.772l-.294-.394a1.512,1.512,0,0,0-2.109-.31" fill="#fff"/><path d="M188.542,222.659a1.512,1.512,0,0,0-.309,2.109l.293.4a1.509,1.509,0,0,0,1.694.52l.169.228-.473.352a1.128,1.128,0,0,0,1.683-1.252l-.474.352-.169-.228a1.507,1.507,0,0,0-.011-1.772l-.293-.4a1.514,1.514,0,0,0-2.11-.309" fill="#fff"/><path d="M196.638,226.328,193.5,228.81c-.065-.453-.251-1.75-.789-5.5a3.284,3.284,0,0,0-5.307-2.093l-.069.054a3.293,3.293,0,0,0,.8,5.648l5.164,2.041-3.144,2.482.348.441,6.485-5.119Z" fill="#48c4ae"/><path d="M184.133,231.989a1.51,1.51,0,0,0-.309,2.109l.293.395a1.507,1.507,0,0,0,1.694.519l.17.228-.474.353a1.129,1.129,0,0,0,1.684-1.253l-.474.352-.17-.228a1.507,1.507,0,0,0-.011-1.771l-.294-.4a1.511,1.511,0,0,0-2.109-.309" fill="#fff"/><path d="M192.941,234.977l-3.872,3.057c-.072-.5-.266-1.847-.783-5.442a3.306,3.306,0,0,0-5.306-2.093l-.1.08a3.289,3.289,0,0,0,.837,5.623l5.114,2.021-3.838,3.031.324.409,7.95-6.277Z" fill="#1070c4"/><path d="M184.133,231.989a1.51,1.51,0,0,0-.309,2.109l.293.395a1.507,1.507,0,0,0,1.694.519l.17.228-.474.353a1.129,1.129,0,0,0,1.684-1.253l-.474.352-.17-.228a1.507,1.507,0,0,0-.011-1.771l-.294-.4a1.511,1.511,0,0,0-2.109-.309" fill="#fff"/><rect x="173.863" y="213.324" width="11.566" height="0.648" transform="translate(-93.74 157.271) rotate(-38.289)" fill="#c4c4c4"/><rect x="169.396" y="220.491" width="2.346" height="0.648" transform="translate(-100.134 153.193) rotate(-38.29)" fill="#c4c4c4"/><rect x="172.125" y="218.335" width="2.349" height="0.647" transform="translate(-98.222 154.466) rotate(-38.3)" fill="#c4c4c4"/><path d="M186.761,231.227a1.178,1.178,0,0,0-1.267-.983l-8.017.717,6.062-2.542a1.232,1.232,0,0,0-.84-2.313l-5.865,1.81-4.707,1.742a1.513,1.513,0,0,1-1.7-.467l-.982-1.209-4.9,6.033,3.306,6.529,11.514-.28,4.035-.422a.9.9,0,0,0,.028-1.8l-3.92-.536-.062-.5,5.352-.864a1.181,1.181,0,0,0-.285-2.342l-6.078.5,7.43-1.734a1.178,1.178,0,0,0,.894-1.339" fill="#8e562e"/><path d="M232.6,172.538l3.246-.3.972,5.512-.593.066a1.747,1.747,0,0,1-1.851-1.185l-.664-1.989-1.331.666a6.406,6.406,0,0,1-5.244,6.162l-3.3.609,1.69-7.237a2.388,2.388,0,0,1,2.1-1.834Z" fill="#704322"/><path d="M218.5,205.311l2.581,1.5s1.915-9.158.832-16.65c-1.331,5.5-3.413,15.152-3.413,15.152" fill="#704322"/><path d="M205.906,213.358l-2-6.966,7.548,3.33a12.326,12.326,0,0,1-3.386,4.107Z" fill="#e6e6e6"/><path d="M188.509,223.227a1.575,1.575,0,0,0,.017,1.927l.238.32a1.507,1.507,0,0,0,1.694.519l.17.228-.473.353a1.128,1.128,0,0,0,1.682-1.253l-.473.353-.17-.229a1.507,1.507,0,0,0-.011-1.771l-.294-.4a1.513,1.513,0,0,0-2.38-.052" fill="#fff"/><path d="M319.3,64.5H284.7a1.107,1.107,0,1,1,0-2.214h34.6a1.107,1.107,0,1,1,0,2.214" fill="#505050"/><path d="M181.952,95.139v30.38a7.215,7.215,0,0,1-3.6,6.246l-26.31,15.189a7.215,7.215,0,0,1-7.213,0l-26.309-15.189a7.213,7.213,0,0,1-3.605-6.246V95.139a7.213,7.213,0,0,1,3.605-6.246L144.824,73.7a7.215,7.215,0,0,1,7.213,0l26.31,15.189a7.215,7.215,0,0,1,3.6,6.246" fill="#5c2d91"/><polygon points="164.203 82.068 163.806 104.006 154.325 100.539 156.796 81.071 164.203 82.068" fill="#8e7a6f"/><path d="M153.036,101.97c4.549.417,9.615-4.7,10.071-11.23l.474-6.8a11.937,11.937,0,0,0-11.046-12.7c-6.531-.456-13.171,4.844-13.627,11.374l-.373,6.321c-.455,6.531,9.01,12.538,14.5,13.042" fill="#f0beb4"/><path d="M153.036,101.97c4.549.417,9.615-4.7,10.071-11.23l.474-6.8a11.937,11.937,0,0,0-11.046-12.7c-6.531-.456-13.171,4.844-13.627,11.374l-.373,6.321c-.455,6.531,9.01,12.538,14.5,13.042" fill="#f0beb4"/><path d="M162.045,108.619c-.2-.078-.412-.15-.623-.216l-26.731-2.421a10.822,10.822,0,0,0-8.343,10.119l-.237,20.048,18.713,10.805a7.215,7.215,0,0,0,7.213,0l12.195-7.041,4.271-18.858a10.719,10.719,0,0,0-6.458-12.436" fill="#e6e6e6"/><path d="M158.01,106.872a6.2,6.2,0,0,1-3.644-5.21l.058-.13a9.247,9.247,0,0,0,.048-7.47,1.018,1.018,0,0,1,1-1.425,1.365,1.365,0,0,0,1.383-1.815l-1.894-5.38L153.68,74.709l-14.245,5.876-.529,2.062-.37,6.281c-.245,3.5,2.36,6.847,5.675,9.279l-.8,2.179a6.987,6.987,0,0,1-4.476,4.269l-4.247,1.327,17.383,9.512,9.349-7.091Z" fill="#db9c94"/><polygon points="168.583 114.834 162.914 140.675 170.091 136.531 168.583 114.834" fill="#c2c2c2"/><path d="M158.919,89.107a1.086,1.086,0,1,0,1.159-1.008,1.084,1.084,0,0,0-1.159,1.008"/><path d="M147.918,87.963a1.086,1.086,0,1,0,1.159-1.008,1.085,1.085,0,0,0-1.159,1.008"/><path d="M162.338,87.469a.383.383,0,0,1-.275-.116,2.692,2.692,0,0,0-3.52-.326.386.386,0,0,1-.372-.677,3.479,3.479,0,0,1,4.443.462.387.387,0,0,1-.276.657" fill="#8e7a6f"/><path d="M151.244,86.645a.39.39,0,0,1-.29-.129,2.714,2.714,0,0,0-3.921-.038.386.386,0,0,1-.486-.6,3.5,3.5,0,0,1,4.987.127.386.386,0,0,1-.29.64" fill="#8e7a6f"/><path d="M163.644,101.734l9.769,1.233a.984.984,0,0,1,.618.328h0l.01.012c.02.024.039.049.058.075l.629.812-.464-.059L171.9,122.847a.991.991,0,0,1-1.108.86L161.2,122.5l-.154.477-.678-.865h0a.993.993,0,0,1-.211-.744l2.377-18.772a.993.993,0,0,1,1.109-.86" fill="#b2b2b2"/><path d="M161.635,123.269,171.4,124.5a.994.994,0,0,0,1.109-.86l2.376-18.772a.993.993,0,0,0-.86-1.109l-9.769-1.232a.991.991,0,0,0-1.108.86l-2.377,18.771a.993.993,0,0,0,.86,1.109" fill="#b2b2b2"/><g clip-path="url(#b)"><polygon points="173.959 115.845 162.38 104.022 159.708 123.228 172.732 124.799 173.959 115.845" fill="#939393"/></g><path d="M167.819,105.649a.9.9,0,1,0,1.011-.785.905.905,0,0,0-1.011.785" fill="#737373"/><path d="M164.928,121.035,168.9,121l2.259,1.984-.483.343a1.463,1.463,0,0,1-1.572.08l-1.276-.723-1.2.559a8.245,8.245,0,0,1-1.184.674l-.326.26-1.627-1.852Z" fill="#f0beb4"/><path d="M168.966,115.581l-4.581.489,4.006-1.462,3.375-.07a1.357,1.357,0,0,0,1.317-1.2l.072-.617-5.24-.258-4.961,1.213-.009.013-1.914.783.338-2.668-.484.088a1.816,1.816,0,0,0-1.251.97l-1.7,3.407a10.447,10.447,0,0,0-1.52,1.541l-2.457,3.084-7.6,2.744.006.277,0,.185a6.969,6.969,0,0,0,3.884,6.1l5.932-3.418a16.364,16.364,0,0,0,5.884-1.288c.055-.023.111-.039.165-.062l0,0,3.2-1.306a3.274,3.274,0,0,0,.527-.27l1.865-1.168,1.426.822a1.345,1.345,0,0,0,1.671-.264l.234-.26L168.9,121l-3.881.022,3.738-1,2.151,1a1.431,1.431,0,0,0,1.888-.664l.148-.3-3.793-1.767-4.832.44-.016-.062,5.021-.936,2.326.759a1.474,1.474,0,0,0,1.857-.935l.116-.345Z" fill="#f0beb4"/><path d="M163.357,123.859a14.52,14.52,0,0,1-3.369.471l-2.675.057a10.008,10.008,0,0,0-3.415.676l-6.5,2.521a6.854,6.854,0,0,0,2.851,2.616l5.932-3.417a16.343,16.343,0,0,0,5.884-1.288c.055-.023.111-.038.165-.062l0,0,3.2-1.306a3.444,3.444,0,0,0,.527-.27l1.864-1.168h0Z" fill="#db9c94"/><path d="M151.539,95.114l7.028.469-1.349.977a3.434,3.434,0,0,1-4.3-.216Z" fill="#fff"/><path d="M139.279,143.752l10.97-13.552-14,8.567a3.9,3.9,0,0,1-5.479-1.49l-4.611-8.636v7.537Z" fill="#c2c2c2"/><path d="M154.14,70.183c-10.195-.845-14.184,3.9-14.955,9.7-.016.117-.046.231-.063.348L136.666,96.7a10.747,10.747,0,0,0,8.287,6.721,173.7,173.7,0,0,1-.26-21.213,34.81,34.81,0,0,1,3.773-.631l.34-2.805.584,2.715a32.342,32.342,0,0,1,14.774,2.023s1.2-12.39-10.024-13.322m-13.325,19a3.414,3.414,0,0,1-1.926-3.592c.364-2.876,2.134-2.238,2.134-2.238Z" fill="#8e7a6f"/><path d="M154.389,101.921a5.966,5.966,0,0,1-1.353.049,13.543,13.543,0,0,1-3.239-.77l-.68.6a12.793,12.793,0,0,0-4.3,9.718l7.261,3.974,9.349-7.09-3.413-1.531a6.2,6.2,0,0,1-3.621-4.952" fill="#f0beb4"/><path d="M385.03,130.857v49.729a11.806,11.806,0,0,0,5.9,10.224L434,215.674a11.806,11.806,0,0,0,11.806,0l43.066-24.864a11.806,11.806,0,0,0,5.9-10.224V130.857a11.8,11.8,0,0,0-5.9-10.223L445.805,95.769a11.811,11.811,0,0,0-11.806,0l-43.065,24.865a11.8,11.8,0,0,0-5.9,10.223" fill="#00b294"/><path d="M422.065,129.727l3.468-.86s3.482,9.3-1.6,15.339c1.03-6.95-1.867-14.479-1.867-14.479" fill="#e6e6e6"/><path d="M479.529,196.2c-.767-9.3-2.1-23.14-3.883-33.108-2.371-13.231-12.066-18.3-20.151-18.861-6.989-.483-27.182,1.558-35.319,4.15A19.173,19.173,0,0,0,407.1,163.657l-5.155,33.508L434,215.674a11.8,11.8,0,0,0,11.805,0Z" fill="#ba3615"/><path d="M462.1,175.068c-.588,16.474-6.147,20.489-8.847,27.6a19.084,19.084,0,0,0-.953,9.258l13.419-7.748a272.113,272.113,0,0,0-3.619-29.107" fill="#99280d"/><path d="M420.176,148.384A19.175,19.175,0,0,0,407.1,163.656l-5.155,33.51,14.11,8.146.106-2.569a10.345,10.345,0,0,0-1.269-5.413l-1.929-3.516a18.74,18.74,0,0,1-.235-17.59l1.42-2.76a19.231,19.231,0,0,0,2.134-8.8,15.755,15.755,0,0,1,8.706-14.091l-.489-3.324c-1.611.361-3.076.742-4.32,1.138" fill="#d83b01"/><path d="M442.005,92.3h0a20.409,20.409,0,0,0-22.92,17.542l.051,10.464c2.3,11.565,4,19.182,11.221,21.058-.152,1.466-.355,3.09-.62,4.484-1.947.448-3.908.958-5.842,1.538l1.09,3.185a15.442,15.442,0,0,0,29.826-2.376l.684-3.959c-.636-.068-3.093-.308-4.95-.475l-1.926-4.253a20.384,20.384,0,0,0,9.284-12.713c.159-.67,1.938-1.189,2.031-1.887l1.991-8.374c1.484-11.173-8.747-22.749-19.92-24.234" fill="#d8b094"/><path d="M432.986,141.8a14.161,14.161,0,0,1-1.354,6.411c-.818,1.842-6.646,2.363-6.646,2.363l-1.091-3.186s2.491-.7,4.8-1.281a1.728,1.728,0,0,0,1.287-1.438,32.349,32.349,0,0,0,.224-3.309c1.536.248,1.97.344,2.779.44" fill="#e5cbb8"/><path d="M448.652,139.485a20.32,20.32,0,0,1-13.289,2.8c-.414-.025-.812-.061-1.2-.1,1.391,2.444,6.314,8.7,19.372,6.153-1.883-1.6-3.844-6.166-4.882-8.846" fill="#b48f75"/><path d="M426.058,120.329l2.437-2.893a3.613,3.613,0,0,0-2.288-5.909l-3.41-.453c-1.415-.188-2.543,1.832-3.724,2.435l-.129,2.949c-.064,9.744.645,18.183,8.027,23.351a14.171,14.171,0,0,1,2.622-12.692,2.229,2.229,0,0,0-1.426-3.622l-.931-.124a1.86,1.86,0,0,1-1.178-3.042" fill="#e5cbb8"/><path d="M423.662,127.986a9.537,9.537,0,0,0,16.163,2.148Z" fill="#fff"/><path d="M442.941,132.789a3.978,3.978,0,0,0-4.3-5.625Z" fill="#e5cbb8"/><path d="M443.328,203.884l-10.644-32.471H382.073l11.874,36.221h75.071V204.8H444.591a1.329,1.329,0,0,1-1.263-.914" fill="#b2b2b2"/><path d="M429.382,171.413H378.771l11.874,36.22h52.409a2.485,2.485,0,0,1-2.36-1.71Z" fill="#939393"/><polygon points="411.857 187.714 406.702 187.714 408.17 192.19 413.324 192.19 411.857 187.714" fill="#fff"/><path d="M408.959,206.908a1.9,1.9,0,0,0-2.469-2.718l-4.78,2.5,1.934-2.377a1.91,1.91,0,0,0-2.714-2.683l-6.234,5.613a.1.1,0,0,1-.148-.116l2.567-4.958a1.98,1.98,0,0,0-3.4-2.022l-3.464,6.073-1.945-5.709a3.27,3.27,0,0,0-.374,3.133l.94,3.636.326,1.2a2.343,2.343,0,0,0,3.117,1.566l1.992-.783.064.079a3.326,3.326,0,0,0,5.067.134l.837-1.029.023.079a2.263,2.263,0,0,0,3.19,1.413l.691-.347h3.582A2.235,2.235,0,0,0,410,207.357v-.378Z" fill="#d8b094"/><path d="M425.493,115.666a1.761,1.761,0,1,1-1.76-1.761,1.76,1.76,0,0,1,1.76,1.761"/><path d="M444.129,118.036a1.76,1.76,0,1,1-1.76-1.76,1.76,1.76,0,0,1,1.76,1.76"/><path d="M419.376,111.958a.8.8,0,1,0,1.093,1.17c.146-.136,3.614-3.3,7.117-.051a.8.8,0,0,0,1.089-1.174,6.669,6.669,0,0,0-9.3.055"/><path d="M463.53,111.131a10.856,10.856,0,1,0-9.776-18.454,31.843,31.843,0,0,0-9.044-3.518c-21.132-5.029-28.544,16.6-26.11,20.562a58.936,58.936,0,0,0,14.462-7.847,23.379,23.379,0,0,0,8.588,10.891,7.658,7.658,0,0,0-3.324,1.256.8.8,0,0,0,.918,1.311c.164-.115,4.056-2.749,7.058.931a.8.8,0,0,0,.621.294.79.79,0,0,0,.5-.18.775.775,0,0,0,.23-.339,33.124,33.124,0,0,0,4.772,1.508,4.011,4.011,0,0,1,7.951,1.037c.338.013.665.034,1.01.04.179-.645.361-1.349.533-2.092a6.536,6.536,0,0,0,7.627,4.823c-5.845-1.515-6.023-7.91-6.021-10.223"/><path d="M457.092,114.235a4.09,4.09,0,0,1,.827.241c-.082-.359-.163-.68-.237-.945-.263-.939-.838-.487-1.53.652a3.988,3.988,0,0,1,.94.052"/><path d="M458.6,114.833a4.016,4.016,0,0,1,1.731,4.134l-.73,3.687a4.757,4.757,0,0,1-5.1,3.812l-1.145-.1a1.933,1.933,0,0,1-1.63-1.237c-.209,1.747-.852,8.367,1.1,10.932,0,0,9.677-6.407,10.082-24.818Z"/><path d="M451.941,127.805h0a3.57,3.57,0,0,1,4.389,2.932c.5,3.253.487,7.971-2.522,11.547,1.03-6.951-1.867-14.479-1.867-14.479" fill="#fff"/><path d="M418.808,33.238H371.647a3.463,3.463,0,0,0-3.464,3.463V78.318a3.463,3.463,0,0,0,3.464,3.463h22.972v89.428H396.8V81.781h22a3.463,3.463,0,0,0,3.463-3.463V36.7a3.463,3.463,0,0,0-3.463-3.463" fill="#fff"/><path d="M422.271,42.084H368.184V35.467a2.228,2.228,0,0,1,2.229-2.229h49.628a2.229,2.229,0,0,1,2.23,2.229Z" fill="#c2c2c2"/><rect x="373.665" y="46.816" width="43.123" height="8.735" fill="#5c2d91"/><rect x="377.454" y="50.092" width="35.546" height="2.184"/><rect x="373.665" y="58.464" width="43.123" height="8.735" fill="#1070c4"/><rect x="377.454" y="61.74" width="35.546" height="2.184"/><rect x="373.665" y="70.112" width="43.123" height="8.735" fill="#48c4ae"/><rect x="377.454" y="73.388" width="35.546" height="2.184"/></svg>