<svg xmlns="http://www.w3.org/2000/svg" viewBox="0 0 300 300"><title>MSC17-data-004</title><path d="M300,0V300H0V0Z" fill="#40787c"/><rect x="117.304" y="61.691" width="26.997" height="56.205" fill="#085750"/><path d="M136.464,88.168h5.265v-4.99a19.772,19.772,0,0,1-5.265,4.99" fill="#42787a"/><path d="M130.74,90.687a19.542,19.542,0,0,1-9.89,0h-.942v6.187h21.821V90.687Zm-8.794,5.265h-1.017V91.61h1.017Zm1.629,0h-1.018V91.61h1.018Zm1.628,0h-1.017V91.61H125.2Zm1.628,0h-1.017V91.61h1.017Z" fill="#42787a"/><rect x="144.301" y="61.691" width="7.853" height="56.205" fill="#00b294"/><path d="M138.255,93.781a.652.652,0,1,1-.652-.652.652.652,0,0,1,.652.652" fill="#fff"/><path d="M140.48,93.781a.651.651,0,1,1-.651-.652.651.651,0,0,1,.651.652" fill="#fec94e"/><path d="M119.908,105.581h21.821V99.393H119.908Zm2.038-.923h-1.017v-4.343h1.017Zm1.629,0h-1.018v-4.343h1.018Zm1.628,0h-1.017v-4.343H125.2Zm1.628,0h-1.017v-4.343h1.017Z" fill="#42787a"/><path d="M138.255,102.487a.652.652,0,1,1-.652-.652.651.651,0,0,1,.652.652" fill="#fff"/><path d="M140.48,102.487a.651.651,0,1,1-.651-.652.65.65,0,0,1,.651.652" fill="#fec94e"/><path d="M119.908,114.287h21.821V108.1H119.908Zm2.038-.922h-1.017v-4.343h1.017Zm1.629,0h-1.018v-4.343h1.018Zm1.628,0h-1.017v-4.343H125.2Zm1.628,0h-1.017v-4.343h1.017Z" fill="#42787a"/><path d="M138.255,111.193a.652.652,0,1,1-.652-.652.652.652,0,0,1,.652.652" fill="#fff"/><path d="M140.48,111.193a.651.651,0,1,1-.651-.652.651.651,0,0,1,.651.652" fill="#fec94e"/><path d="M108.647,237.408a83.982,83.982,0,0,1-42.181-72.7,83.053,83.053,0,0,1,16.489-49.9l17.231,12.805a61.74,61.74,0,0,0-12.251,37.1,62.465,62.465,0,0,0,31.378,54.074Z" fill="#043c40"/><path d="M182.681,225.1a11.255,11.255,0,0,0-4.82,1.09c.017-.361.027-.724.027-1.09a22.6,22.6,0,0,0-45.117-2.014,15.422,15.422,0,1,0-12.38,24.619h62.29a11.3,11.3,0,1,0,0-22.6" fill="#fff"/><path d="M175.469,244.318a14.881,14.881,0,1,0-17.85-11.148,14.88,14.88,0,0,0,17.85,11.148" fill="#fff"/><path d="M185.391,224.53a3.711,3.711,0,0,1-.442.157v.64a2.656,2.656,0,0,0,.38-.128,3.835,3.835,0,0,0,.37-.173,3.24,3.24,0,0,0,.317-.188,1.392,1.392,0,0,0,.214-.167v4.78h.632v-2.66a14.828,14.828,0,0,0-.737-2.645c-.09.055-.178.112-.275.164-.151.081-.3.155-.459.22" fill="#00b294"/><path d="M182.209,220.972v-2.547c-.208-.188-.418-.369-.632-.542v3.089Z" fill="#00b294"/><path d="M163,240.783a1.788,1.788,0,0,0-.334.037,14.869,14.869,0,0,0,1.916,1.384c-.241-.941-.763-1.421-1.582-1.421" fill="#00b294"/><path d="M179.881,237.929v-5.655h-.239a3.162,3.162,0,0,1-.347.26c-.134.089-.275.175-.426.255s-.3.154-.459.219a3.542,3.542,0,0,1-.442.157v.64a2.537,2.537,0,0,0,.38-.128c.131-.053.254-.111.37-.172a3.105,3.105,0,0,0,.316-.188,1.4,1.4,0,0,0,.215-.168v4.78Z" fill="#00b294"/><path d="M180.811,224.017a1.58,1.58,0,0,0-.585.568,2.966,2.966,0,0,0-.357.931,6.1,6.1,0,0,0-.121,1.281,5.4,5.4,0,0,0,.115,1.17,2.7,2.7,0,0,0,.34.862,1.543,1.543,0,0,0,.55.535,1.487,1.487,0,0,0,.742.183,1.587,1.587,0,0,0,.785-.191,1.621,1.621,0,0,0,.583-.56,2.87,2.87,0,0,0,.363-.9,5.476,5.476,0,0,0,.125-1.231q0-2.835-1.74-2.836a1.643,1.643,0,0,0-.8.191m1.891,2.706q0,2.284-1.145,2.284-1.161,0-1.161-2.241,0-2.4,1.184-2.4,1.124,0,1.122,2.36" fill="#00b294"/><path d="M172.9,244.308v-3.556h-.239a3.422,3.422,0,0,1-.348.261c-.133.089-.275.173-.425.254s-.3.155-.46.22a3.638,3.638,0,0,1-.441.157v.64a2.742,2.742,0,0,0,.38-.128c.13-.053.253-.112.37-.173a3.219,3.219,0,0,0,.316-.188,1.392,1.392,0,0,0,.215-.168v2.694c.21,0,.421,0,.632-.013" fill="#00b294"/><path d="M161.241,219.444c0,.015,0,.031.007.046a2.708,2.708,0,0,0,.34.861,1.556,1.556,0,0,0,.55.534,1.487,1.487,0,0,0,.742.183,1.587,1.587,0,0,0,.785-.191,1.618,1.618,0,0,0,.583-.559,2.876,2.876,0,0,0,.363-.9,5.476,5.476,0,0,0,.125-1.231,5.562,5.562,0,0,0-.172-1.466c-.194.117-.386.235-.576.361a6.135,6.135,0,0,1,.1,1.167q0,2.283-1.146,2.284c-.666,0-1.044-.558-1.137-1.665-.118.116-.245.222-.361.344-.073.076-.133.158-.2.236" fill="#00b294"/><path d="M181.2,241.267q-.225.122-.459.22a3.635,3.635,0,0,1-.442.156v.3q.6-.389,1.172-.842c-.089.054-.175.111-.271.162" fill="#00b294"/><path d="M185.677,235.14q0-2.835-1.74-2.836a1.635,1.635,0,0,0-.8.192,1.592,1.592,0,0,0-.585.567,2.939,2.939,0,0,0-.356.932,6.027,6.027,0,0,0-.122,1.28,5.348,5.348,0,0,0,.116,1.171,2.714,2.714,0,0,0,.339.862,1.565,1.565,0,0,0,.55.534,1.491,1.491,0,0,0,.743.183,1.6,1.6,0,0,0,.657-.142,14.788,14.788,0,0,0,1.139-1.917,6,6,0,0,0,.059-.826m-1.794,2.346q-1.16,0-1.16-2.242,0-2.4,1.184-2.4,1.122,0,1.122,2.361,0,2.283-1.146,2.284" fill="#00b294"/><path d="M169.369,244.042c.009-.139.02-.273.02-.424q0-2.835-1.739-2.835a1.63,1.63,0,0,0-.8.192,1.6,1.6,0,0,0-.585.566,2.949,2.949,0,0,0-.357.932c-.027.128-.044.271-.063.413.2.1.406.177.609.264q.132-1.83,1.165-1.831,1.122,0,1.123,2.361c0,.08-.006.149-.008.224.21.051.422.1.635.138" fill="#00b294"/><path d="M176.957,240.783a1.643,1.643,0,0,0-.8.191,1.584,1.584,0,0,0-.585.567,2.982,2.982,0,0,0-.357.932,6.1,6.1,0,0,0-.121,1.281c0,.1.009.192.013.289.215-.043.428-.088.642-.139,0-.062-.007-.118-.007-.182q0-2.4,1.184-2.4.989,0,1.106,1.836c.211-.089.417-.191.625-.291-.144-1.383-.708-2.081-1.7-2.081" fill="#00b294"/><path d="M170.918,216.106a2.973,2.973,0,0,0-.357.932,6.1,6.1,0,0,0-.121,1.28,5.407,5.407,0,0,0,.115,1.171,2.738,2.738,0,0,0,.34.862,1.556,1.556,0,0,0,.55.534,1.489,1.489,0,0,0,.743.184,1.583,1.583,0,0,0,.784-.191,1.63,1.63,0,0,0,.583-.56,2.866,2.866,0,0,0,.363-.9,5.476,5.476,0,0,0,.125-1.231q0-2.835-1.74-2.835a1.643,1.643,0,0,0-.8.191,1.584,1.584,0,0,0-.585.567m1.354-.222q1.123,0,1.123,2.361,0,2.283-1.146,2.283t-1.161-2.241q0-2.4,1.184-2.4" fill="#00b294"/><path d="M168.568,237.308a1.556,1.556,0,0,0,.55.534,1.487,1.487,0,0,0,.742.184,1.588,1.588,0,0,0,.785-.192,1.635,1.635,0,0,0,.583-.559,2.876,2.876,0,0,0,.363-.9,5.479,5.479,0,0,0,.124-1.231q0-2.835-1.739-2.835a1.64,1.64,0,0,0-.8.191,1.577,1.577,0,0,0-.585.567,2.942,2.942,0,0,0-.357.931,6.108,6.108,0,0,0-.121,1.281,5.345,5.345,0,0,0,.115,1.171,2.738,2.738,0,0,0,.34.862m1.377-4.467q1.122,0,1.122,2.36,0,2.285-1.145,2.284-1.161,0-1.161-2.241,0-2.4,1.184-2.4" fill="#00b294"/><path d="M168.248,220.972v-5.655h-.239a3.422,3.422,0,0,1-.348.261c-.133.088-.275.174-.425.254s-.3.154-.46.22a3.684,3.684,0,0,1-.441.156v.641a2.742,2.742,0,0,0,.38-.128c.13-.054.253-.111.37-.173a3.571,3.571,0,0,0,.316-.187,1.6,1.6,0,0,0,.215-.168v4.779Z" fill="#00b294"/><path d="M168.248,229.451V223.8h-.239a3.422,3.422,0,0,1-.348.261q-.2.133-.425.254c-.151.082-.3.154-.46.22a3.517,3.517,0,0,1-.441.156v.641a2.615,2.615,0,0,0,.38-.128,4.073,4.073,0,0,0,.37-.173,3.343,3.343,0,0,0,.316-.187,1.456,1.456,0,0,0,.215-.168v4.78Z" fill="#00b294"/><path d="M158.311,224.362q1.124,0,1.123,2.361,0,2.283-1.146,2.284a.946.946,0,0,1-.893-.617c-.022.3-.019.593-.022.89.038.027.071.061.111.084a1.5,1.5,0,0,0,.743.183,1.583,1.583,0,0,0,.784-.191,1.63,1.63,0,0,0,.583-.56,2.866,2.866,0,0,0,.363-.9,5.463,5.463,0,0,0,.125-1.231c0-1.818-.542-2.752-1.616-2.821-.071.176-.147.351-.212.53a.558.558,0,0,1,.057-.008" fill="#00b294"/><path d="M165.92,237.929v-5.655h-.239a3.261,3.261,0,0,1-.347.26c-.134.089-.275.175-.426.255s-.3.154-.459.219a3.542,3.542,0,0,1-.442.157v.64a2.537,2.537,0,0,0,.38-.128c.131-.053.254-.111.37-.172a3.105,3.105,0,0,0,.316-.188,1.4,1.4,0,0,0,.215-.168v4.78Z" fill="#00b294"/><path d="M164.611,227.893a5.479,5.479,0,0,0,.124-1.231q0-2.835-1.739-2.836a1.643,1.643,0,0,0-.8.191,1.587,1.587,0,0,0-.585.568,2.919,2.919,0,0,0-.356.931,6.03,6.03,0,0,0-.122,1.281,5.272,5.272,0,0,0,.116,1.17,2.711,2.711,0,0,0,.339.863,1.582,1.582,0,0,0,.55.534,1.49,1.49,0,0,0,.742.183,1.6,1.6,0,0,0,.785-.191,1.635,1.635,0,0,0,.583-.559,2.886,2.886,0,0,0,.363-.9m-1.669,1.114q-1.161,0-1.161-2.241,0-2.4,1.184-2.4,1.122,0,1.122,2.36,0,2.284-1.145,2.284" fill="#00b294"/><path d="M175.227,237.929v-5.655h-.239a3.162,3.162,0,0,1-.347.26,4.845,4.845,0,0,1-.426.255c-.151.081-.3.154-.459.219a3.542,3.542,0,0,1-.442.157v.64a2.537,2.537,0,0,0,.38-.128c.131-.053.254-.111.37-.172a3.105,3.105,0,0,0,.316-.188,1.4,1.4,0,0,0,.215-.168v4.78Z" fill="#00b294"/><path d="M177.555,229.451V223.8h-.239a3.422,3.422,0,0,1-.348.261q-.2.133-.425.254c-.151.082-.3.154-.46.22a3.517,3.517,0,0,1-.441.156v.641a2.615,2.615,0,0,0,.38-.128,4.073,4.073,0,0,0,.37-.173,3.22,3.22,0,0,0,.316-.187,1.456,1.456,0,0,0,.215-.168v4.78Z" fill="#00b294"/><path d="M176.157,215.539a1.592,1.592,0,0,0-.585.567,2.925,2.925,0,0,0-.356.932,6.027,6.027,0,0,0-.122,1.28,5.281,5.281,0,0,0,.116,1.171,2.7,2.7,0,0,0,.339.862,1.576,1.576,0,0,0,.55.535,1.5,1.5,0,0,0,.742.182,1.584,1.584,0,0,0,.785-.191,1.626,1.626,0,0,0,.583-.559,2.876,2.876,0,0,0,.363-.9,5.467,5.467,0,0,0,.124-1.231,3.4,3.4,0,0,0-.669-2.424c-.358-.152-.718-.288-1.083-.41a1.627,1.627,0,0,0-.787.19m.746,4.99q-1.161,0-1.161-2.242,0-2.4,1.184-2.4,1.122,0,1.122,2.361,0,2.283-1.145,2.284" fill="#00b294"/><path d="M160.553,238.026a1.588,1.588,0,0,0,.785-.192,1.632,1.632,0,0,0,.582-.559,2.876,2.876,0,0,0,.363-.9,5.418,5.418,0,0,0,.125-1.231q0-2.835-1.739-2.835a1.637,1.637,0,0,0-.8.191,1.577,1.577,0,0,0-.585.567,2.942,2.942,0,0,0-.357.931,6.108,6.108,0,0,0-.121,1.281q0,.324.028.614A14.714,14.714,0,0,0,160,237.915a1.523,1.523,0,0,0,.557.111m.085-5.185q1.122,0,1.122,2.36,0,2.285-1.145,2.284-1.161,0-1.161-2.241,0-2.4,1.184-2.4" fill="#00b294"/><path d="M172.9,229.451V223.8h-.239a3.422,3.422,0,0,1-.348.261q-.2.133-.425.254c-.151.082-.3.154-.46.22a3.462,3.462,0,0,1-.441.156v.641a2.615,2.615,0,0,0,.38-.128,4.073,4.073,0,0,0,.37-.173,3.22,3.22,0,0,0,.316-.187,1.456,1.456,0,0,0,.215-.168v4.78Z" fill="#00b294"/><path d="M195.848,222.364l-7.769,1.8a16.937,16.937,0,1,0,.864,3.739l7.77-1.8Zm-20.715,20.5A13.391,13.391,0,1,1,185.165,226.8a13.39,13.39,0,0,1-10.032,16.063" fill="#043c40"/><path d="M215.222,222.776l-1.281-5.543a.883.883,0,0,0-1.059-.662l-19.7,4.554a.883.883,0,0,0-.662,1.058l1.282,5.544a.882.882,0,0,0,1.058.661l19.7-4.553a.883.883,0,0,0,.661-1.059" fill="#085750"/><path d="M200.738,219.426l.127,7.574a3.2,3.2,0,0,0,4.591-.528l.494-.647.02.019a2.923,2.923,0,0,0,4.472-.5l.428-.653.756.679a2.585,2.585,0,0,0,3.624-.166l1.556-1.681a3.318,3.318,0,0,0,4.227-1.8,45.534,45.534,0,0,0,3.519-17.448V196.5l-15.027-5.487-.982,1.244c-1.842,2.175-4.321,4.673-6.317,6.606a12.263,12.263,0,0,0-3.714,8.053l-.409,6.641-2.915,7.1Z" fill="#8e562e"/><polygon points="209.912 187.049 207.318 192.318 224.553 199.653 227.623 192.675 209.912 187.049" fill="#fff"/><path d="M228.269,194.99l-20.013-7.767A62.345,62.345,0,0,0,175.723,107.9L180.9,86.71l3.636,1.615A83.812,83.812,0,0,1,228.269,194.99" fill="#043c40"/><rect x="149.202" y="67.06" width="26.997" height="56.205" fill="#085750"/><rect x="176.199" y="67.06" width="7.853" height="56.205" fill="#00b294"/><path d="M151.791,119.657H173.61v-6.188H151.791Zm2.038-.923h-1.018v-4.343h1.018Zm1.628,0h-1.018v-4.343h1.018Zm1.628,0h-1.017v-4.343h1.017Zm1.629,0H157.7v-4.343h1.018Z" fill="#42787a"/><path d="M170.137,116.563a.652.652,0,1,1-.651-.652.65.65,0,0,1,.651.652" fill="#fff"/><path d="M172.362,116.563a.651.651,0,1,1-.651-.652.65.65,0,0,1,.651.652" fill="#fec94e"/><path d="M151.791,110.869H173.61v-6.187H151.791Zm2.038-.922h-1.018V105.6h1.018Zm1.628,0h-1.018V105.6h1.018Zm1.628,0h-1.017V105.6h1.017Zm1.629,0H157.7V105.6h1.018Z" fill="#42787a"/><path d="M170.137,107.775a.652.652,0,1,1-.651-.651.651.651,0,0,1,.651.651" fill="#fff"/><path d="M172.362,107.775a.651.651,0,1,1-.651-.651.651.651,0,0,1,.651.651" fill="#fec94e"/><path d="M151.791,102.082H173.61V95.894H151.791Zm2.038-.923h-1.018V96.817h1.018Zm1.628,0h-1.018V96.817h1.018Zm1.628,0h-1.017V96.817h1.017Zm1.629,0H157.7V96.817h1.018Z" fill="#42787a"/><path d="M170.137,98.988a.652.652,0,1,1-.651-.652.651.651,0,0,1,.651.652" fill="#fff"/><path d="M172.362,98.988a.651.651,0,1,1-.651-.652.651.651,0,0,1,.651.652" fill="#fec94e"/><path d="M151.791,93.3H173.61V87.107H151.791Zm2.038-.924h-1.018V88.029h1.018Zm1.628,0h-1.018V88.029h1.018Zm1.628,0h-1.017V88.029h1.017Zm1.629,0H157.7V88.029h1.018Z" fill="#42787a"/><path d="M170.137,90.2a.652.652,0,1,1-.651-.651.651.651,0,0,1,.651.651" fill="#fff"/><path d="M172.362,90.2a.651.651,0,1,1-.651-.651.651.651,0,0,1,.651.651" fill="#fec94e"/><path d="M151.791,84.506H173.61V78.319H151.791Zm2.038-.922h-1.018V79.241h1.018Zm1.628,0h-1.018V79.241h1.018Zm1.628,0h-1.017V79.241h1.017Zm1.629,0H157.7V79.241h1.018Z" fill="#42787a"/><path d="M170.137,81.413a.652.652,0,1,1-.651-.652.65.65,0,0,1,.651.652" fill="#fff"/><path d="M172.362,81.413a.651.651,0,1,1-.651-.652.65.65,0,0,1,.651.652" fill="#fec94e"/><path d="M151.791,75.719H173.61V69.532H151.791Zm2.038-.923h-1.018V70.454h1.018Zm1.628,0h-1.018V70.454h1.018Zm1.628,0h-1.017V70.454h1.017Zm1.629,0H157.7V70.454h1.018Z" fill="#42787a"/><path d="M170.137,72.625a.652.652,0,1,1-.651-.651.65.65,0,0,1,.651.651" fill="#fff"/><path d="M172.362,72.625a.651.651,0,1,1-.651-.651.65.65,0,0,1,.651.651" fill="#fec94e"/><path d="M135.4,79.866a14.881,14.881,0,1,1-.548-21.038,14.881,14.881,0,0,1,.548,21.038" fill="#fff"/><path d="M137.758,64.7a3.881,3.881,0,0,1-.442.156v.64a2.689,2.689,0,0,0,.38-.127c.13-.054.254-.111.37-.173s.223-.125.317-.188a1.528,1.528,0,0,0,.214-.167v4.779h.632V66.96a14.805,14.805,0,0,0-.737-2.645c-.091.055-.178.111-.275.164q-.227.122-.459.22" fill="#00b294"/><path d="M134.575,61.141V58.594c-.207-.187-.417-.369-.632-.543v3.09Z" fill="#00b294"/><path d="M115.363,80.952a1.8,1.8,0,0,0-.334.037,14.869,14.869,0,0,0,1.916,1.384c-.241-.94-.764-1.421-1.582-1.421" fill="#00b294"/><path d="M132.248,78.1V72.442h-.239a3.313,3.313,0,0,1-.348.261c-.133.088-.275.174-.425.254s-.3.154-.459.22a3.7,3.7,0,0,1-.442.156v.641a2.742,2.742,0,0,0,.38-.128,3.95,3.95,0,0,0,.37-.173,3.3,3.3,0,0,0,.316-.187,1.541,1.541,0,0,0,.215-.168V78.1Z" fill="#00b294"/><path d="M133.178,64.186a1.577,1.577,0,0,0-.585.567,2.925,2.925,0,0,0-.357.932,6.1,6.1,0,0,0-.121,1.28,5.352,5.352,0,0,0,.115,1.171,2.682,2.682,0,0,0,.34.862,1.56,1.56,0,0,0,.55.535,1.494,1.494,0,0,0,.742.182,1.59,1.59,0,0,0,.785-.191,1.618,1.618,0,0,0,.582-.56,2.87,2.87,0,0,0,.363-.9,5.418,5.418,0,0,0,.125-1.231q0-2.835-1.739-2.835a1.637,1.637,0,0,0-.8.191m1.891,2.706q0,2.283-1.145,2.284-1.161,0-1.161-2.242,0-2.4,1.184-2.4,1.122,0,1.122,2.361" fill="#00b294"/><path d="M125.267,84.477V80.921h-.238a3.423,3.423,0,0,1-.348.26q-.2.133-.426.255c-.151.081-.3.154-.459.219a3.711,3.711,0,0,1-.442.157v.64a2.537,2.537,0,0,0,.38-.128,3.835,3.835,0,0,0,.37-.173,3.3,3.3,0,0,0,.316-.187,1.47,1.47,0,0,0,.215-.168V84.49c.212,0,.422,0,.632-.013" fill="#00b294"/><path d="M113.608,59.613c0,.015,0,.031.007.045a2.747,2.747,0,0,0,.339.862,1.585,1.585,0,0,0,.551.534,1.484,1.484,0,0,0,.742.183,1.585,1.585,0,0,0,.785-.192,1.629,1.629,0,0,0,.582-.558,2.859,2.859,0,0,0,.363-.905,5.46,5.46,0,0,0,.125-1.23,5.614,5.614,0,0,0-.171-1.466c-.193.116-.387.235-.576.361a6.139,6.139,0,0,1,.1,1.166q0,2.285-1.145,2.284-1,0-1.137-1.665c-.118.117-.245.223-.361.345-.073.076-.133.158-.2.236" fill="#00b294"/><path d="M133.563,81.436c-.15.08-.3.154-.459.219a3.711,3.711,0,0,1-.442.157v.3q.6-.389,1.171-.842c-.088.054-.174.111-.27.162" fill="#00b294"/><path d="M138.044,75.309q0-2.835-1.74-2.836a1.643,1.643,0,0,0-.8.191,1.592,1.592,0,0,0-.585.567,2.925,2.925,0,0,0-.356.932,6.027,6.027,0,0,0-.122,1.28,5.335,5.335,0,0,0,.116,1.171,2.72,2.72,0,0,0,.339.863,1.582,1.582,0,0,0,.55.534,1.489,1.489,0,0,0,.742.182,1.609,1.609,0,0,0,.659-.141,14.6,14.6,0,0,0,1.137-1.917,5.847,5.847,0,0,0,.06-.826m-1.794,2.345q-1.161,0-1.161-2.241,0-2.4,1.184-2.4,1.124,0,1.122,2.361,0,2.283-1.145,2.284" fill="#00b294"/><path d="M121.736,84.211c.009-.139.02-.274.02-.424q0-2.835-1.739-2.836a1.627,1.627,0,0,0-.8.192,1.577,1.577,0,0,0-.585.567,2.919,2.919,0,0,0-.357.931c-.028.128-.044.273-.063.414.2.1.406.178.609.264q.132-1.83,1.165-1.831,1.122,0,1.122,2.36c0,.081-.005.15-.008.226.212.05.423.095.636.137" fill="#00b294"/><path d="M129.324,80.952a1.637,1.637,0,0,0-.8.191,1.581,1.581,0,0,0-.585.566,2.958,2.958,0,0,0-.357.932,6.114,6.114,0,0,0-.121,1.281c0,.1.009.193.014.289.214-.042.427-.087.64-.139,0-.061-.006-.117-.006-.182q0-2.4,1.184-2.4c.66,0,1.027.614,1.106,1.837.21-.089.417-.192.624-.291-.142-1.384-.707-2.081-1.7-2.081" fill="#00b294"/><path d="M123.285,56.274a2.958,2.958,0,0,0-.357.932,6.1,6.1,0,0,0-.121,1.28,5.355,5.355,0,0,0,.115,1.172,2.747,2.747,0,0,0,.34.862,1.565,1.565,0,0,0,.55.534,1.487,1.487,0,0,0,.742.183,1.587,1.587,0,0,0,.785-.191,1.643,1.643,0,0,0,.583-.559,2.882,2.882,0,0,0,.363-.905,5.467,5.467,0,0,0,.124-1.231q0-2.833-1.739-2.834a1.64,1.64,0,0,0-.8.191,1.581,1.581,0,0,0-.585.566m1.354-.222q1.122,0,1.122,2.361,0,2.283-1.145,2.284-1.161,0-1.161-2.241,0-2.4,1.184-2.4" fill="#00b294"/><path d="M120.934,77.476a1.562,1.562,0,0,0,.551.535,1.5,1.5,0,0,0,.742.183,1.587,1.587,0,0,0,.785-.191,1.635,1.635,0,0,0,.582-.56,2.866,2.866,0,0,0,.363-.9,5.463,5.463,0,0,0,.125-1.231q0-2.835-1.74-2.835a1.632,1.632,0,0,0-.8.192,1.6,1.6,0,0,0-.585.566,2.958,2.958,0,0,0-.356.932,6.038,6.038,0,0,0-.121,1.28,5.427,5.427,0,0,0,.114,1.172,2.756,2.756,0,0,0,.34.861m1.378-4.467q1.122,0,1.122,2.361,0,2.283-1.145,2.284-1.161,0-1.161-2.242,0-2.4,1.184-2.4" fill="#00b294"/><path d="M120.614,61.141V55.485h-.239a3.4,3.4,0,0,1-.347.261c-.134.089-.275.174-.426.254s-.3.154-.459.22a3.528,3.528,0,0,1-.442.156v.641a2.537,2.537,0,0,0,.38-.128,3.835,3.835,0,0,0,.37-.173,3.107,3.107,0,0,0,.316-.187,1.4,1.4,0,0,0,.215-.168v4.78Z" fill="#00b294"/><path d="M120.614,69.619V63.964h-.239a3.261,3.261,0,0,1-.347.26c-.134.089-.275.175-.426.255s-.3.154-.459.219a3.542,3.542,0,0,1-.442.157v.64a2.537,2.537,0,0,0,.38-.128c.131-.053.254-.111.37-.172a3.105,3.105,0,0,0,.316-.188,1.4,1.4,0,0,0,.215-.168v4.78Z" fill="#00b294"/><path d="M110.678,64.531q1.122,0,1.122,2.361,0,2.283-1.145,2.283a.948.948,0,0,1-.894-.616c-.02.3-.017.593-.021.891.038.026.071.06.111.082a1.485,1.485,0,0,0,.742.184,1.588,1.588,0,0,0,.785-.192,1.624,1.624,0,0,0,.582-.559,2.9,2.9,0,0,0,.364-.9,5.479,5.479,0,0,0,.124-1.231c0-1.818-.541-2.752-1.614-2.822-.073.177-.148.352-.212.531.019,0,.036-.008.056-.008" fill="#00b294"/><path d="M118.287,78.1V72.442h-.239a3.313,3.313,0,0,1-.348.261c-.133.088-.275.174-.425.254s-.3.154-.459.22a3.7,3.7,0,0,1-.442.156v.641a2.742,2.742,0,0,0,.38-.128,3.95,3.95,0,0,0,.37-.173,3.3,3.3,0,0,0,.316-.187,1.541,1.541,0,0,0,.215-.168V78.1Z" fill="#00b294"/><path d="M116.977,68.061a5.476,5.476,0,0,0,.125-1.231q0-2.835-1.74-2.836a1.635,1.635,0,0,0-.8.192,1.592,1.592,0,0,0-.585.567,2.939,2.939,0,0,0-.356.932,6.031,6.031,0,0,0-.121,1.28,5.352,5.352,0,0,0,.115,1.171,2.737,2.737,0,0,0,.339.862,1.567,1.567,0,0,0,.551.534,1.484,1.484,0,0,0,.742.183,1.578,1.578,0,0,0,.784-.191,1.618,1.618,0,0,0,.583-.559,2.853,2.853,0,0,0,.363-.9m-1.668,1.115q-1.161,0-1.161-2.242,0-2.4,1.184-2.4,1.122,0,1.122,2.361,0,2.283-1.145,2.284" fill="#00b294"/><path d="M127.594,78.1V72.442h-.239a3.4,3.4,0,0,1-.347.261c-.134.088-.276.174-.426.254s-.3.154-.459.22a3.7,3.7,0,0,1-.442.156v.641a2.7,2.7,0,0,0,.38-.128,3.95,3.95,0,0,0,.37-.173,3.3,3.3,0,0,0,.316-.187,1.541,1.541,0,0,0,.215-.168V78.1Z" fill="#00b294"/><path d="M129.921,69.619V63.964h-.239a3.162,3.162,0,0,1-.347.26,4.845,4.845,0,0,1-.426.255c-.151.081-.3.154-.459.219a3.542,3.542,0,0,1-.442.157v.64a2.537,2.537,0,0,0,.38-.128c.131-.053.254-.111.37-.172a3.105,3.105,0,0,0,.316-.188,1.4,1.4,0,0,0,.215-.168v4.78Z" fill="#00b294"/><path d="M128.523,55.707a1.6,1.6,0,0,0-.585.568,2.942,2.942,0,0,0-.356.931,6.035,6.035,0,0,0-.121,1.281,5.336,5.336,0,0,0,.115,1.17,2.734,2.734,0,0,0,.339.863,1.585,1.585,0,0,0,.551.534,1.484,1.484,0,0,0,.742.183,1.584,1.584,0,0,0,.785-.191,1.632,1.632,0,0,0,.582-.559,2.862,2.862,0,0,0,.363-.9,5.418,5.418,0,0,0,.125-1.231,3.4,3.4,0,0,0-.67-2.424c-.357-.152-.717-.289-1.083-.41a1.644,1.644,0,0,0-.787.189m.747,4.99q-1.161,0-1.161-2.241,0-2.4,1.184-2.4,1.122,0,1.122,2.36,0,2.285-1.145,2.284" fill="#00b294"/><path d="M112.92,78.194A1.583,1.583,0,0,0,113.7,78a1.63,1.63,0,0,0,.583-.56,2.866,2.866,0,0,0,.363-.9,5.463,5.463,0,0,0,.125-1.231q0-2.835-1.74-2.835a1.632,1.632,0,0,0-.8.192,1.6,1.6,0,0,0-.585.566,2.982,2.982,0,0,0-.357.932,6.1,6.1,0,0,0-.121,1.28q0,.327.029.615a14.671,14.671,0,0,0,1.162,2.026,1.523,1.523,0,0,0,.557.11m.085-5.185q1.122,0,1.122,2.361,0,2.283-1.146,2.284t-1.16-2.242q0-2.4,1.184-2.4" fill="#00b294"/><path d="M125.267,69.619V63.964h-.238a3.28,3.28,0,0,1-.348.26,4.845,4.845,0,0,1-.426.255c-.151.081-.3.154-.459.219a3.542,3.542,0,0,1-.442.157v.64a2.537,2.537,0,0,0,.38-.128c.131-.053.254-.111.37-.172a3.105,3.105,0,0,0,.316-.188,1.4,1.4,0,0,0,.215-.168v4.78Z" fill="#00b294"/><path d="M108.922,88.929l5.489-5.784a16.934,16.934,0,1,0-2.782-2.64l-5.49,5.783Zm6.463-9.595a13.391,13.391,0,1,1,18.931-.494,13.39,13.39,0,0,1-18.931.494" fill="#043c40"/><path d="M96.663,103.191l-4.127-3.917a.884.884,0,0,1-.033-1.248L106.424,83.36a.884.884,0,0,1,1.247-.033l4.128,3.919a.883.883,0,0,1,.032,1.247L97.91,103.158a.882.882,0,0,1-1.247.033" fill="#085750"/><path d="M216.621,182.836a2.594,2.594,0,1,0-2.594,2.594,2.594,2.594,0,0,0,2.594-2.594" fill="#0d7364"/><path d="M93.755,127.808a2.594,2.594,0,1,0-2.594,2.595,2.593,2.593,0,0,0,2.594-2.595" fill="#0d7364"/><path d="M104.709,88.64l-.124-4.8a3.206,3.206,0,0,0-4.432,1.311l-.373.723-.023-.016a2.923,2.923,0,0,0-4.319,1.267l-.309.716-.861-.538a2.584,2.584,0,0,0-3.542.787l-1.243,1.924a3.319,3.319,0,0,0-3.853,2.5c-.837,3.625-.3,11.286,1.035,18.936L85.9,114.5,98.25,124.559s10.676-15,12.309-17.246c1.8-2.477,1.06-10.334,1.06-10.334l-.349-7.872L107.7,90.584a2.163,2.163,0,0,1-2.99-1.944" fill="#f6caa7"/><polygon points="83.562 115.253 85.509 112.226 101.117 123.915 99.124 126.819 83.562 115.253" fill="#fff"/></svg>