<svg xmlns="http://www.w3.org/2000/svg" viewBox="0 0 300 300"><title>MSC17-data-009</title><path d="M300,0V300H0V0Z" fill="#40787c"/><path d="M193.631,272.118h-4.916v-1.64h4.916Zm-8.194,0h-4.916v-1.64h4.916Zm-8.194,0h-4.916v-1.64h4.916Zm-8.194,0h-4.916v-1.64h4.916Zm-8.194,0h-4.916v-1.64h4.916Zm-8.193,0h-4.917v-1.64h4.917Zm-8.194,0h-4.916v-1.64h4.916Zm-8.193,0h-4.917v-1.64h4.917Zm-8.194,0h-4.917v-1.64h4.917Zm-8.194,0h-4.916v-1.64h4.916Zm-8.194,0h-4.916v-1.64h4.916Zm-8.194,0H98.583v-1.64H103.5Zm-8.194,0H90.389v-1.64h4.916Zm-8.193,0H82.2v-1.64h4.917Zm-8.194,0H74v-1.64h4.916Zm-8.194,0H65.807v-1.64h4.917Zm-8.194,0H57.614v-1.64H62.53Zm-8.194,0H49.42v-1.64h4.916Zm-8.194,0H41.226v-1.64h4.916Z" fill="#00b294"/><path d="M193.631,249.041h-4.916V247.4h4.916Zm-8.194,0h-4.916V247.4h4.916Zm-8.194,0h-4.916V247.4h4.916Zm-8.194,0h-4.916V247.4h4.916Zm-8.194,0h-4.916V247.4h4.916Zm-8.193,0h-4.917V247.4h4.917Zm-8.194,0h-4.916V247.4h4.916Zm-8.193,0h-4.917V247.4h4.917Zm-8.194,0h-4.917V247.4h4.917Zm-8.194,0h-4.916V247.4h4.916Zm-8.194,0h-4.916V247.4h4.916Zm-8.194,0H98.583V247.4H103.5Zm-8.194,0H90.389V247.4h4.916Zm-8.193,0H82.2V247.4h4.917Zm-8.194,0H74V247.4h4.916Zm-8.194,0H65.807V247.4h4.917Zm-8.194,0H57.614V247.4H62.53Zm-8.194,0H49.42V247.4h4.916Zm-8.194,0H41.226V247.4h4.916Z" fill="#00b294"/><path d="M193.631,225.964h-4.916v-1.639h4.916Zm-8.194,0h-4.916v-1.639h4.916Zm-8.194,0h-4.916v-1.639h4.916Zm-8.194,0h-4.916v-1.639h4.916Zm-8.194,0h-4.916v-1.639h4.916Zm-8.193,0h-4.917v-1.639h4.917Zm-8.194,0h-4.916v-1.639h4.916Zm-8.193,0h-4.917v-1.639h4.917Zm-8.194,0h-4.917v-1.639h4.917Zm-8.194,0h-4.916v-1.639h4.916Zm-8.194,0h-4.916v-1.639h4.916Zm-8.194,0H98.583v-1.639H103.5Zm-8.194,0H90.389v-1.639h4.916Zm-8.193,0H82.2v-1.639h4.917Zm-8.194,0H74v-1.639h4.916Zm-8.194,0H65.807v-1.639h4.917Zm-8.194,0H57.614v-1.639H62.53Zm-8.194,0H49.42v-1.639h4.916Zm-8.194,0H41.226v-1.639h4.916Z" fill="#00b294"/><path d="M193.631,202.887h-4.916v-1.639h4.916Zm-8.194,0h-4.916v-1.639h4.916Zm-8.194,0h-4.916v-1.639h4.916Zm-8.194,0h-4.916v-1.639h4.916Zm-8.194,0h-4.916v-1.639h4.916Zm-8.193,0h-4.917v-1.639h4.917Zm-8.194,0h-4.916v-1.639h4.916Zm-8.193,0h-4.917v-1.639h4.917Zm-8.194,0h-4.917v-1.639h4.917Zm-8.194,0h-4.916v-1.639h4.916Zm-8.194,0h-4.916v-1.639h4.916Zm-8.194,0H98.583v-1.639H103.5Zm-8.194,0H90.389v-1.639h4.916Zm-8.193,0H82.2v-1.639h4.917Zm-8.194,0H74v-1.639h4.916Zm-8.194,0H65.807v-1.639h4.917Zm-8.194,0H57.614v-1.639H62.53Zm-8.194,0H49.42v-1.639h4.916Zm-8.194,0H41.226v-1.639h4.916Z" fill="#00b294"/><path d="M193.631,179.81h-4.916v-1.639h4.916Zm-8.194,0h-4.916v-1.639h4.916Zm-8.194,0h-4.916v-1.639h4.916Zm-8.194,0h-4.916v-1.639h4.916Zm-8.194,0h-4.916v-1.639h4.916Zm-8.193,0h-4.917v-1.639h4.917Zm-8.194,0h-4.916v-1.639h4.916Zm-8.193,0h-4.917v-1.639h4.917Zm-8.194,0h-4.917v-1.639h4.917Zm-8.194,0h-4.916v-1.639h4.916Zm-8.194,0h-4.916v-1.639h4.916Zm-8.194,0H98.583v-1.639H103.5Zm-8.194,0H90.389v-1.639h4.916Zm-8.193,0H82.2v-1.639h4.917Zm-8.194,0H74v-1.639h4.916Zm-8.194,0H65.807v-1.639h4.917Zm-8.194,0H57.614v-1.639H62.53Zm-8.194,0H49.42v-1.639h4.916Zm-8.194,0H41.226v-1.639h4.916Z" fill="#00b294"/><path d="M193.631,156.733h-4.916v-1.639h4.916Zm-8.194,0h-4.916v-1.639h4.916Zm-8.194,0h-4.916v-1.639h4.916Zm-8.194,0h-4.916v-1.639h4.916Zm-8.194,0h-4.916v-1.639h4.916Zm-8.193,0h-4.917v-1.639h4.917Zm-8.194,0h-4.916v-1.639h4.916Zm-8.193,0h-4.917v-1.639h4.917Zm-8.194,0h-4.917v-1.639h4.917Zm-8.194,0h-4.916v-1.639h4.916Zm-8.194,0h-4.916v-1.639h4.916Zm-8.194,0H98.583v-1.639H103.5Zm-8.194,0H90.389v-1.639h4.916Zm-8.193,0H82.2v-1.639h4.917Zm-8.194,0H74v-1.639h4.916Zm-8.194,0H65.807v-1.639h4.917Zm-8.194,0H57.614v-1.639H62.53Zm-8.194,0H49.42v-1.639h4.916Zm-8.194,0H41.226v-1.639h4.916Z" fill="#00b294"/><path d="M74.882,257.544H59.817v12.837a2.556,2.556,0,0,0,2.556,2.556h9.954a2.555,2.555,0,0,0,2.555-2.556Z" fill="#e6e6e6"/><path d="M75.2,241.106H59.5a3.1,3.1,0,0,0,0,6.2h.318v10.24H74.882V247.3H75.2a3.1,3.1,0,1,0,0-6.2" fill="#48c4ae"/><path d="M68.945,244.833H59.818a1.282,1.282,0,1,1,0-2.563h9.127a1.282,1.282,0,1,1,0,2.563" fill="#cadf53"/><polygon points="74.882 251.944 59.817 247.304 74.882 247.304 74.882 251.944" fill="#00b294"/><path d="M99.464,240.338H84.4v30.043a2.555,2.555,0,0,0,2.555,2.556h9.954a2.556,2.556,0,0,0,2.556-2.556Z" fill="#e6e6e6"/><path d="M99.782,218.164H84.08a3.1,3.1,0,0,0,0,6.2H84.4v15.977H99.463V224.361h.319a3.1,3.1,0,0,0,0-6.2" fill="#48c4ae"/><path d="M93.527,221.891H84.4a1.282,1.282,0,1,1,0-2.563h9.128a1.282,1.282,0,0,1,0,2.563" fill="#cadf53"/><polygon points="99.464 229.002 84.399 224.361 99.464 224.361 99.464 229.002" fill="#00b294"/><path d="M124.045,215.756H108.98v54.625a2.556,2.556,0,0,0,2.556,2.556h9.953a2.556,2.556,0,0,0,2.556-2.556Z" fill="#e6e6e6"/><path d="M124.363,190.305h-15.7a3.1,3.1,0,0,0,0,6.2h.318v19.253h15.065V196.5h.318a3.1,3.1,0,0,0,0-6.2" fill="#48c4ae"/><path d="M118.108,194.032H108.98a1.282,1.282,0,0,1,0-2.563h9.128a1.282,1.282,0,1,1,0,2.563" fill="#cadf53"/><polygon points="124.045 201.143 108.98 196.502 124.045 196.502 124.045 201.143" fill="#00b294"/><path d="M148.626,191.994H133.561v78.387a2.556,2.556,0,0,0,2.556,2.556h9.954a2.555,2.555,0,0,0,2.555-2.556Z" fill="#e6e6e6"/><path d="M148.944,166.543h-15.7a3.1,3.1,0,0,0,0,6.2h.318v19.253h15.065V172.741h.318a3.1,3.1,0,1,0,0-6.2" fill="#48c4ae"/><path d="M142.689,170.27h-9.127a1.282,1.282,0,1,1,0-2.563h9.127a1.282,1.282,0,1,1,0,2.563" fill="#cadf53"/><polygon points="148.626 177.381 133.561 172.74 148.626 172.74 148.626 177.381" fill="#00b294"/><path d="M173.208,170.479H158.143v99.9a2.555,2.555,0,0,0,2.555,2.556h9.954a2.556,2.556,0,0,0,2.556-2.556Z" fill="#e6e6e6"/><path d="M173.526,133.768h-15.7a3.1,3.1,0,0,0,0,6.2h.318v30.514h15.064V139.965h.319a3.1,3.1,0,0,0,0-6.2" fill="#48c4ae"/><path d="M167.27,137.5h-9.128a1.282,1.282,0,0,1,0-2.563h9.128a1.282,1.282,0,1,1,0,2.563" fill="#cadf53"/><polygon points="173.208 144.606 158.143 139.965 173.208 139.965 173.208 144.606" fill="#00b294"/><path d="M162.785,170.479V147.01a1.281,1.281,0,0,0-2.562,0v23.469Z" fill="#cadf53"/><path d="M160.223,170.479V264.6a1.281,1.281,0,1,0,2.562,0V170.479Z" fill="#fff"/><path d="M138.587,191.994V178.146a1.281,1.281,0,1,0-2.562,0v13.848Z" fill="#cadf53"/><path d="M136.025,191.994V264.6a1.281,1.281,0,1,0,2.562,0V191.994Z" fill="#fff"/><path d="M114.2,215.755V201.907a1.281,1.281,0,1,0-2.562,0v13.848Z" fill="#cadf53"/><path d="M111.641,215.755V264.6a1.282,1.282,0,1,0,2.563,0V215.755Z" fill="#fff"/><path d="M89.52,240.362V229.7a1.285,1.285,0,0,0-2.563,0v10.667Z" fill="#cadf53"/><path d="M86.958,240.362v24.164a1.281,1.281,0,1,0,2.562,0V240.362Z" fill="#fff"/><path d="M64.785,257.611v-4.835a1.282,1.282,0,0,0-2.563,0v4.835Z" fill="#cadf53"/><path d="M62.222,257.611V264.6a1.282,1.282,0,1,0,2.563,0v-6.989Z" fill="#fff"/><path d="M167.137,104.839V91.44l-2.32-4.36v17.759a20.987,20.987,0,0,1-2.011,8.964c-1.234,2.614-2.36,5.374-2.36,6.752a5.531,5.531,0,0,0,11.061,0c0-1.378-1.124-4.138-2.359-6.752a20.973,20.973,0,0,1-2.011-8.964" fill="#fff"/><path d="M234.4,28.283,200.733,61.055a23.94,23.94,0,0,1-9.6,5.709L166.872,74.3l-.368-1.183a3.1,3.1,0,0,0-5.917,1.837l5.894,18.983A3.1,3.1,0,1,0,172.4,92.1l-.367-1.183,24.262-7.533a23.956,23.956,0,0,1,11.144-.733l46.31,7.94a4.3,4.3,0,0,0,4.829-5.509L241.5,30.088a4.3,4.3,0,0,0-7.1-1.8" fill="#48c4ae"/><path d="M170.335,87.079l.046-.06a31.1,31.1,0,0,1,24.606-12.08h56.382l2.506,8.753a1.7,1.7,0,0,1-1.87,2.182L206.47,78.332a22.238,22.238,0,0,0-10.224.7Z" fill="#fff"/><path d="M215.1,55.286a1.469,1.469,0,0,1-1.016-2.529l2.974-2.853a1.469,1.469,0,0,1,2.032,2.121l-2.973,2.852a1.464,1.464,0,0,1-1.017.409" fill="#cadf53"/><path d="M246.532,64.672a1.467,1.467,0,0,1-1.4-1.043l-7.522-24.8a2.354,2.354,0,0,0-3.9-1L225.892,45.5a1.469,1.469,0,0,1-2.057-2.1l7.814-7.665a5.29,5.29,0,0,1,8.767,2.241l7.523,24.8a1.471,1.471,0,0,1-1.407,1.895" fill="#cadf53"/><path d="M165.588,81.927a1.468,1.468,0,0,1-1.4-1.034l-2.01-6.468a1.469,1.469,0,1,1,2.806-.871l2.008,6.467a1.469,1.469,0,0,1-.967,1.84,1.5,1.5,0,0,1-.436.066" fill="#cadf53"/></svg>