<svg xmlns="http://www.w3.org/2000/svg" viewBox="0 0 300 300"><title>MSC17-collaboration-011</title><path d="M208.89,155.572A70.392,70.392,0,1,1,138.5,85.181a70.392,70.392,0,0,1,70.391,70.391" fill="#00bcf2"/><path d="M181.435,109.712h.354l.643,2.891,3.4-1.606v3.211H181.86q.175,2.7.179,5.442c0,1.584-.049,3.156-.137,4.718l1.494-1.247v1.492l5.652,3.533V129.3h-2.634v1.6H190.4v-2.826l.964-.385-4.5-2.955-.707-2.762h2.634l4.046,3.276V128.4l2.569,2.7,1.221-3.918,2.408-1.349v3.115l1.927,1.927h3.56q-.454-1.215-.952-2.409h-2.832v-5.979a70.742,70.742,0,0,0-6.733-10.347l-1.939,1.939h-5.2v-.9l2.954-1.928v-3.979a71.282,71.282,0,0,0-5.459-5.213V104.9l-2.28.771-1.105.745q.264,1.639.461,3.3" fill="#737373"/><path d="M138.32,192.612a82.158,82.158,0,0,1-20.372,7.651l-.9,4.51,2.313,2.7v6.167l3.083,6.166,4.239,3.468h4.24l.674-1.589-3.131-2.65.674-3.035v-1.542h-1.975l-1.156-1.155,2.12-1.928v-1.108l-1.879-.385v-1.3h2.793l4.336-2.216,5.588-8.526v-1.4l-.867-3.517Z" fill="#737373"/><path d="M204.949,132.051l1.409,5.088H200.1l-2.986-2.891h-3.854v2.987h-1.446l-1.252-1.06-5.973-1.638v-3.661h-3.306A82.181,82.181,0,0,1,169.8,162.959H173.7l1.638-1.638h2.793l1.542,2.216h3.757v6.07l5.2,8.671-2.7,4.817v3.083l2.119,1.253v6.262l2.794,3.95v4.335h.691a70.546,70.546,0,0,0,13.412-69.927" fill="#737373"/><path d="M141.114,191.043h2.523l3.035-3.034.027-.55q-2.715,1.9-5.585,3.584" fill="#ed8422"/><path d="M181.748,121.11c0-2.551,2.815-4.419,2.588-6.911q-.11-1.2-.254-2.4c-.114-.949-1.409-1.572-1.555-2.51a8.006,8.006,0,0,1,.44-2.652l-8.519,4.076,5.68-12.009A70.475,70.475,0,0,0,86.381,203.013c2.413.46,3-1.281,5.483-1.034l1.785-12.429h0l6.511,14.914c.6.013,1.2.022,1.8.022a83.308,83.308,0,0,0,15.318-1.415c.949-2.369,6.516-3.671,9.995-4.824,3.728-1.236,8.045-3.636,11.544-2.406a83.089,83.089,0,0,0,34.589-32.36c-1.769-1.6,2.891-11.9,4.776-18.052,1.488-4.859,2.273-13.272,6-14.5q.3-2.752.424-5.558c.051-1.195-2.854-3.051-2.854-4.258" fill="#49cdf3"/><path d="M179.991,114.208l-2.7,4.047h-3.405l-.642,3.725h1.8v2.376l-2.7-.9h-2.762l-2.762,1.155v4.5l1.991,1.6h6.038V129.3l4.11-4.3h2.184l2.248-1.878v1.492l1.2.751c.052-1.194.083-2.392.083-3.6,0-2.548-.121-5.068-.347-7.557Z" fill="#939393"/><path d="M157.8,149.085v6.841l7.033,7.033H173.7l.027-.028a82.182,82.182,0,0,0,10.453-32.055h-7.494l-2.12,1.734h-5.491l-3.276,2.12v3.95l-8,5.588v2.216h2.312v2.6Z" fill="#939393"/><path d="M182.432,112.6l1.65-.779c-.2-1.693-.461-3.918-.764-5.577l-3.905,2.094v1.371h2.376Z" fill="#939393"/><path d="M138.815,195.834l-.718-2.912,1.349-1.879h4.191l3.035-3.034.385-7.708,2.439-2.867a4.726,4.726,0,0,0,1.126-3.062v-.526l-2.842-.674-1.445-3.036h-6.552l-5.01-2.071v-2.5a3.771,3.771,0,0,0-.6-2.04l-1.135-1.767h-4.384l-3.227-4.768-1.927-.627v1.349h-4.384l-1.686-2.408-4.384-.482-3.034,3.854-6.119-.723v-5.337a1.173,1.173,0,0,0-1.011-1.163l-3.468-.485,1.734-2.89V146.9a.856.856,0,0,0-1.37-.684l-4.266,3.21H91.948l-.315-.641a6.071,6.071,0,0,1-.145-5.048l.7-1.642a6.068,6.068,0,0,1,2.877-3.065l1.05-.525a6.073,6.073,0,0,1,2.715-.641h7.044v1.912a3.009,3.009,0,0,0,1.4,2.539l.568.36a.7.7,0,0,0,1.072-.589v-4.8l3.323-3.035,3.324-1.782V130.3l4.48-4.528,4.721-2.361V122.35l2.6-2.265.888.275a1.677,1.677,0,0,0,1.843-.6.339.339,0,0,0-.272-.54h-.875a1.184,1.184,0,0,1-1.177-.927,1.158,1.158,0,0,1,1.134-1.385h.847a1.742,1.742,0,0,1,1.528.906l.323.588h2.456l1.4-1.349h.963v1.3l-1.155,1.155a.6.6,0,0,0,.226.99l3.584,1.257a.865.865,0,0,0,1.151-.816v-.853l-3.131-1.445v-.915l2.312-.867v-1.905a1.52,1.52,0,0,0-.775-1.324l-1.971-1.107v-2.593a.894.894,0,0,0-1.32-.786l-2.149,1.164h-1.541l.241-3.18-4.914-1.2-2.36,1.493v4.769l-3.71,1.4-1.637,3.18h-1.493v-3.71l-3.71-.53-1.783-1.59-.139-1.452a1.7,1.7,0,0,1,.8-1.61l4.836-3.007,2.428-.623a.909.909,0,0,1,1.136.881v1.091h1.416a.945.945,0,0,0,.945-.945v-.549h.884a.423.423,0,0,0,.337-.678l-.836-1.1h2.409l1.83-2.264,3.993-.36a1.772,1.772,0,0,1,1.41.512l.456.456a.86.86,0,0,1-.215,1.373c-.835.426-2,1.023-2.83,1.464a.5.5,0,0,0,.109.93l4.393,1.17a1.1,1.1,0,0,0,1.349-.783l.126-.474a1.1,1.1,0,0,1,1.066-.82h2.379l.764-1.467a.577.577,0,0,0-.512-.845h-1.36V99.082l-4.438-2a7.986,7.986,0,0,0-5.885-.269l-3.5,1.209v2.217a.817.817,0,0,1-.909.813l-1.4-.154a.821.821,0,0,1-.728-.814v-1.2l1.288-1.213a.635.635,0,0,0-.435-1.1h-3.193a1.265,1.265,0,0,0-1.138.711l-.617,1.263h.687a.854.854,0,0,1,.854.854v.46a.854.854,0,0,1-.854.854h-2.421l-.454.694a1.232,1.232,0,0,1-1.033.558h-2.386a1.233,1.233,0,0,1-1.233-1.233V99.468h3.805l2.071-2.553-.686-.49a.913.913,0,0,0-1.209.13l-.862.952a1.416,1.416,0,0,1-1.052.467h-1.85a1.42,1.42,0,0,1-1.211-.679l-1.174-1.922h-3.432a3.053,3.053,0,0,0-2.008.753L102.38,97.58a.445.445,0,0,0,.292.78h2.86v1.252l-.178.171a.544.544,0,0,0,.376.937h2.094a1.323,1.323,0,0,1,1.267.942l.151.5H105.27a1.482,1.482,0,0,1-1.393-.976l-.223-.613-4.288-1.59-2.745.1-.724.348a70.821,70.821,0,0,0-18.063,20.261v.812l-1.117,1.14a70.1,70.1,0,0,0-4.5,9.94V133l2.922,1.542v3.979a6.217,6.217,0,0,0,.811,3.069l2.176,3.84h1.22v-1.992l-1.508-4.207v-2.473a1.317,1.317,0,0,1,1.316-1.317v3.469l3.083,4.721v1.958h.707v1.574l1.926,3.854,5.987,1.71a.374.374,0,0,0,.476-.359v-.648a.256.256,0,0,1,.31-.25l1.818.394a.256.256,0,0,1,.2.25v1.133a.375.375,0,0,0,.272.36l3.991,1.14a1.487,1.487,0,0,1,.725.468l3.948,4.666h4.737a1.139,1.139,0,0,1,1.14,1.14v2.81l-3.565,3.565v7.514l5.588,5.589v1.927h2.313l4.238,4.239v12.332H118.2l-.81,4.05a82.131,82.131,0,0,0,21.423-7.208M100.33,107.416H96.863a.28.28,0,0,1-.139-.524l1.084-.617a1.957,1.957,0,0,1,.968-.256h1.554ZM114.071,126.2l-.531.532a1.826,1.826,0,0,1-1.29.534h-.99a.572.572,0,0,1-.538-.766l.35-.974,2.26-.69a.572.572,0,0,1,.739.547Zm.374-3.45a.86.86,0,0,1-.267.622l-.5.473a.859.859,0,0,1-.591.236h-1.006v-2.071h2.361Zm1.83-.5a.28.28,0,0,1,.478-.2l.429.429a.28.28,0,0,1-.2.478h-.709Zm-1.324,1.2,2.444.485a.883.883,0,0,1,.711.866v1.133h-1.42a1.585,1.585,0,0,1-1.315-.7l-.42-.627Zm-1.759-3.216a.284.284,0,0,1,.485-.2l.788.789a.283.283,0,0,1-.2.484h-1.073Zm-6.792,4.082a1.431,1.431,0,0,1,.372-.962l1.843-2.024H106.4v-1.012l2.369-1.421a1.169,1.169,0,0,1,.607-.168h1.693a1.179,1.179,0,0,1,1.082.709l.174.4v1.494h-1.783L107.7,126.2l-.368-.176a1.648,1.648,0,0,1-.933-1.486Zm-2.5-10.6a.9.9,0,0,1,.721-.149l.636.142a.9.9,0,0,1,.7.877v1.4l-1.313.625a.9.9,0,0,1-1.139-.32l-1.017-1.558Zm-8.489-10.4a.823.823,0,0,1,.664-.807l1.793-.351h2.457v1.445l-.623.475a1.45,1.45,0,0,1-.878.3H96.238a.821.821,0,0,1-.822-.821Z" fill="#939393"/><path d="M44.327,154.921h-2.36A95.441,95.441,0,0,1,60.14,98.657l1.913,1.382a93.109,93.109,0,0,0-17.726,54.882" fill="#d2d2d2"/><path d="M138.245,251.461a96.227,96.227,0,0,1-64.357-24.624l1.576-1.757A94.048,94.048,0,0,0,219.47,202.491l2.038,1.192a96.363,96.363,0,0,1-83.263,47.778" fill="#d2d2d2"/><path d="M63.073,89.891,61.29,88.344a101.764,101.764,0,0,1,116.2-27.17l-.915,2.176A99.4,99.4,0,0,0,63.073,89.891" fill="#d2d2d2"/><path d="M27.962,81.255v30.984a9.555,9.555,0,0,0,9.526,9.527l56.189-.132L80.413,112.79c.01-.183.016-.366.016-.551V81.255A9.554,9.554,0,0,0,70.9,71.729H37.488a9.554,9.554,0,0,0-9.526,9.526" fill="#1070c4"/><path d="M62.976,233.491H86.512a7.173,7.173,0,0,0,7.137-7.236V189.549l-6.718,10.077c-.139-.008-.278-.012-.419-.012H62.976a7.257,7.257,0,0,0-7.237,7.236v19.405a7.259,7.259,0,0,0,7.237,7.236" fill="#1070c4"/><path d="M194.385,240.312a13.9,13.9,0,1,1-13.9-13.9,13.9,13.9,0,0,1,13.9,13.9" fill="#09538f"/><polygon points="179.301 237.295 179.301 234.671 175.104 234.671 175.104 237.295 172.48 237.295 172.48 246.739 188.745 246.739 188.745 237.295 179.301 237.295" fill="#d2d2d2"/><path d="M141.131,54.576a9.969,9.969,0,1,1-9.969-9.969,9.969,9.969,0,0,1,9.969,9.969" fill="#1070c4"/><path d="M137.327,55.132V54.02h-2.174a3.89,3.89,0,0,0-.77-1.747l1.57-1.57-.787-.787L133.582,51.5a3.9,3.9,0,0,0-1.732-.7V48.542h-1.114V50.8a3.9,3.9,0,0,0-1.732.7l-1.585-1.584-.787.787,1.571,1.57a3.89,3.89,0,0,0-.77,1.747h-2.174v1.112H127.4a3.886,3.886,0,0,0,.715,1.832l-1.486,1.485.787.786,1.472-1.47a3.89,3.89,0,0,0,1.845.785v2.06h1.114V58.55a3.89,3.89,0,0,0,1.845-.785l1.471,1.47.787-.786-1.485-1.485a3.9,3.9,0,0,0,.716-1.832ZM131.293,57.2a2.625,2.625,0,1,1,2.625-2.625,2.624,2.624,0,0,1-2.625,2.625" fill="#fff"/><path d="M214.827,52.871H183.843a9.555,9.555,0,0,0-9.527,9.526v48.32l8.976-13.266c.182.011,31.535.018,31.535.018a9.555,9.555,0,0,0,9.526-9.527V62.4a9.554,9.554,0,0,0-9.526-9.526" fill="#d2d2d2"/><rect x="184.679" y="78.711" width="6.559" height="10.756" fill="#b2b2b2"/><rect x="195.173" y="66.644" width="6.558" height="22.823" fill="#1070c4"/><rect x="205.666" y="59.56" width="6.558" height="29.906" fill="#09538f"/><path d="M208.945,73.333a1.827,1.827,0,0,0-1.431.7l-6.972-1.917c0-.031.008-.061.008-.093a1.836,1.836,0,1,0-3.491.783l-8.035,7.433a1.833,1.833,0,1,0,.771,1.491,1.808,1.808,0,0,0-.106-.59l8.131-7.522a1.8,1.8,0,0,0,2.325-.457l6.973,1.918c0,.031-.009.061-.009.092a1.837,1.837,0,1,0,1.836-1.836" fill="#fff"/><path d="M62.787,94.318a8.617,8.617,0,1,0-15.011,5.775,10.633,10.633,0,0,1,2.817,7.117v1.9h7.154v-1.9a10.2,10.2,0,0,1,2.706-7,8.583,8.583,0,0,0,2.334-5.895" fill="#e6e6e6"/><path d="M56.763,99.342a9.453,9.453,0,0,0-.421-13.363,8.616,8.616,0,0,0-8.566,14.114,10.627,10.627,0,0,1,2.816,7.117v1.9h3.2v-2.09a11.2,11.2,0,0,1,2.971-7.681" fill="#fff"/><rect x="50.593" y="109.113" width="7.154" height="4.05" fill="#d2d2d2"/><polygon points="53.748 109.113 53.748 113.163 52.644 113.163 52.644 114.389 55.695 114.389 55.695 113.163 57.746 113.163 57.746 109.113 53.748 109.113" fill="#b2b2b2"/><rect x="54.331" y="76.744" width="1.443" height="5.015" fill="#49cdf3"/><rect x="43.376" y="80.391" width="1.442" height="5.016" transform="translate(-45.701 55.455) rotate(-44.996)" fill="#49cdf3"/><rect x="62.87" y="83.699" width="5.016" height="1.442" transform="translate(-40.545 70.956) rotate(-45)" fill="#49cdf3"/><path d="M85.291,217.036a3.506,3.506,0,1,0-4.492,0,5.386,5.386,0,0,0-.824.468,5.423,5.423,0,0,0-3.011-3.671,3.507,3.507,0,1,0-4.492,0,5.426,5.426,0,0,0-2.981,3.552,5.433,5.433,0,0,0-.641-.349,3.507,3.507,0,1,0-4.491,0,5.411,5.411,0,0,0-3.162,4.913h1.312a4.1,4.1,0,1,1,8.19,0H72.01a5.383,5.383,0,0,0-1.368-3.584,4.092,4.092,0,0,1,8.164.239,5.371,5.371,0,0,0-1.168,3.345H78.95a4.1,4.1,0,1,1,8.19,0h1.312a5.41,5.41,0,0,0-3.161-4.913m-20.882-2.689a2.2,2.2,0,1,1,2.195,2.194,2.2,2.2,0,0,1-2.195-2.194m8.113-3.2a2.2,2.2,0,1,1,2.2,2.195,2.2,2.2,0,0,1-2.2-2.195m8.328,3.2a2.2,2.2,0,1,1,2.2,2.194,2.2,2.2,0,0,1-2.2-2.194" fill="#fff"/><path d="M226.26,208.176a8.92,8.92,0,1,1-8.92-8.92,8.919,8.919,0,0,1,8.92,8.92" fill="#1070c4"/><path d="M227.834,213.422a3.673,3.673,0,1,1-3.673-3.672,3.673,3.673,0,0,1,3.673,3.672" fill="#b2b2b2"/><polygon points="223.735 215.159 222.046 213.47 222.603 212.914 223.735 214.046 225.621 212.161 226.178 212.717 223.735 215.159" fill="#fff"/><path d="M213.752,206.255a7.75,7.75,0,0,1,1.164-.089,2.426,2.426,0,0,1,1.718.53,1.952,1.952,0,0,1,.6,1.522,2.244,2.244,0,0,1-.611,1.648,2.608,2.608,0,0,1-1.875.611,8.681,8.681,0,0,1-.994-.051Zm.547,3.75a3.484,3.484,0,0,0,.554.031,1.629,1.629,0,0,0,1.8-1.8,1.512,1.512,0,0,0-1.717-1.636,3.158,3.158,0,0,0-.642.056Z" fill="#fff"/><path d="M217.87,209.772a1.938,1.938,0,0,0,.981.277c.56,0,.888-.3.888-.724,0-.4-.227-.623-.8-.843-.692-.245-1.121-.6-1.121-1.2a1.223,1.223,0,0,1,1.373-1.152,1.926,1.926,0,0,1,.938.208l-.152.447a1.7,1.7,0,0,0-.805-.2c-.579,0-.8.346-.8.635,0,.4.258.591.844.818.716.277,1.082.623,1.082,1.246,0,.655-.485,1.221-1.486,1.221a2.189,2.189,0,0,1-1.082-.271Z" fill="#fff"/><path d="M86.433,74.383a8.92,8.92,0,1,1-8.919-8.92,8.919,8.919,0,0,1,8.919,8.92" fill="#d2d2d2"/><path d="M76.917,74.671c-.031-.592-.07-1.3-.063-1.831h-.018c-.145.5-.322,1.025-.535,1.61l-.749,2.058h-.416l-.685-2.02c-.2-.6-.371-1.145-.492-1.648h-.011c-.013.528-.045,1.239-.083,1.874l-.112,1.819h-.524l.3-4.241h.7l.724,2.051c.176.523.321.988.427,1.429h.019c.107-.429.258-.894.447-1.429l.755-2.051h.7l.264,4.241h-.535Z" fill="#939393"/><path d="M81.633,76.344a3.952,3.952,0,0,1-1.3.233,1.991,1.991,0,0,1-2.176-2.139,2.126,2.126,0,0,1,2.3-2.19,2.634,2.634,0,0,1,1.058.195l-.133.447a2.194,2.194,0,0,0-.937-.183,1.586,1.586,0,0,0-1.706,1.705,1.555,1.555,0,0,0,1.637,1.712,1.779,1.779,0,0,0,.729-.113V74.746h-.862v-.44h1.4Z" fill="#939393"/><rect x="32.129" y="152.814" width="22.173" height="18.372" fill="#d2d2d2"/><rect x="34.544" y="151.117" width="1.503" height="3.236" fill="#939393"/><rect x="37.712" y="151.117" width="1.503" height="3.236" fill="#939393"/><rect x="40.879" y="151.117" width="1.503" height="3.236" fill="#939393"/><rect x="44.047" y="151.117" width="1.503" height="3.236" fill="#939393"/><rect x="47.215" y="151.117" width="1.503" height="3.236" fill="#939393"/><rect x="50.382" y="151.117" width="1.503" height="3.236" fill="#939393"/><rect x="35.296" y="158.357" width="3.167" height="3.168" fill="#fff"/><rect x="41.631" y="158.357" width="3.167" height="3.168" fill="#fff"/><rect x="47.966" y="158.357" width="3.167" height="3.168" fill="#fff"/><rect x="35.296" y="164.217" width="3.167" height="3.168" fill="#fff"/><rect x="41.631" y="164.217" width="3.167" height="3.168" fill="#fff"/><rect x="47.966" y="164.217" width="3.167" height="3.168" fill="#fff"/><path d="M234.309,104.945v37.73h37.729a37.729,37.729,0,0,0-37.729-37.73" fill="#1070c4"/><path d="M232.016,144.973V115.606h0a29.364,29.364,0,1,0,15.309,54.426c7.934-4.857,7.139-23.2,7.139-23.2Z" fill="#d2d2d2"/><path d="M252.776,165.733a29.272,29.272,0,0,0,8.6-20.761H232.016Z" fill="#939393"/><path d="M192.847,142.764a4.1,4.1,0,0,0-4.1,4.1c0,4.16,4.1,8.407,4.1,8.407s4.1-4.48,4.1-8.407a4.1,4.1,0,0,0-4.1-4.1m0,6.341A2.155,2.155,0,1,1,195,146.95a2.155,2.155,0,0,1-2.155,2.155" fill="#fff"/><path d="M172.356,122.352a4.1,4.1,0,0,0-4.1,4.1c0,4.16,4.1,8.407,4.1,8.407s4.1-4.48,4.1-8.407a4.1,4.1,0,0,0-4.1-4.1m0,6.342a2.155,2.155,0,1,1,2.155-2.155,2.155,2.155,0,0,1-2.155,2.155" fill="#fff"/><path d="M119.609,161.13a4.1,4.1,0,0,0-4.1,4.1c0,4.16,4.1,8.408,4.1,8.408s4.1-4.481,4.1-8.408a4.1,4.1,0,0,0-4.1-4.1m0,6.342a2.156,2.156,0,1,1,2.155-2.156,2.155,2.155,0,0,1-2.155,2.156" fill="#fff"/><path d="M119.262,110.42a4.1,4.1,0,0,0-4.1,4.1c0,4.16,4.1,8.407,4.1,8.407s4.1-4.48,4.1-8.407a4.1,4.1,0,0,0-4.1-4.1m0,6.341a2.155,2.155,0,1,1,2.155-2.155,2.155,2.155,0,0,1-2.155,2.155" fill="#fff"/><path d="M102.5,108.4a4.1,4.1,0,0,0-4.1,4.1c0,4.159,4.1,8.407,4.1,8.407s4.1-4.481,4.1-8.407a4.1,4.1,0,0,0-4.1-4.1m0,6.342a2.155,2.155,0,1,1,2.155-2.155,2.155,2.155,0,0,1-2.155,2.155" fill="#fff"/><path d="M244.451,127.687a3.61,3.61,0,0,1-2.789-1.123,4.25,4.25,0,0,1-1.038-3,4.56,4.56,0,0,1,1.1-3.234,3.863,3.863,0,0,1,2.969-1.181,3.6,3.6,0,0,1,2.807,1.095,4.411,4.411,0,0,1,1,3.079,4.457,4.457,0,0,1-1.118,3.175,3.827,3.827,0,0,1-2.929,1.193m.161-6.928a1.768,1.768,0,0,0-1.492.726,3.245,3.245,0,0,0-.548,2,3.1,3.1,0,0,0,.536,1.937,1.763,1.763,0,0,0,1.471.691,1.717,1.717,0,0,0,1.463-.72,3.313,3.313,0,0,0,.531-2,3.141,3.141,0,0,0-.525-1.936,1.7,1.7,0,0,0-1.436-.692m11.034-1.372-10.607,16.647h-1.648l10.6-16.647Zm-1.488,16.786a3.615,3.615,0,0,1-2.79-1.124,4.257,4.257,0,0,1-1.037-3,4.56,4.56,0,0,1,1.1-3.234,3.863,3.863,0,0,1,2.968-1.181,3.606,3.606,0,0,1,2.808,1.095,5.154,5.154,0,0,1-.122,6.254,3.824,3.824,0,0,1-2.928,1.194m.162-6.929a1.768,1.768,0,0,0-1.493.727,3.241,3.241,0,0,0-.548,1.994,3.094,3.094,0,0,0,.537,1.937,1.756,1.756,0,0,0,1.47.691,1.719,1.719,0,0,0,1.464-.72,3.321,3.321,0,0,0,.53-2,3.142,3.142,0,0,0-.525-1.937,1.7,1.7,0,0,0-1.435-.692" fill="#fff"/><path d="M252.776,165.733l-20.76-20.761,15.305,25.058a29.5,29.5,0,0,0,5.455-4.3" fill="#b2b2b2"/></svg>