<svg xmlns="http://www.w3.org/2000/svg" viewBox="0 0 300 300"><title>MSC17-data-002</title><path d="M300,0V300H0V0Z" fill="#ffa940"/><rect x="117.176" y="61.674" width="26.943" height="56.093" fill="#df6c47"/><path d="M136.3,88.1h5.255V83.118A19.731,19.731,0,0,1,136.3,88.1" fill="#ff8c00"/><path d="M130.586,90.612a19.5,19.5,0,0,1-9.871,0h-.939v6.176h21.777V90.612Zm-8.776,5.255H120.8V91.533h1.015Zm1.625,0h-1.016V91.533h1.016Zm1.625,0h-1.015V91.533h1.015Zm1.625,0H125.67V91.533h1.015Z" fill="#ff8c00"/><rect x="144.119" y="61.674" width="7.838" height="56.093" fill="#ff8c00"/><path d="M138.086,93.7a.65.65,0,1,1-.65-.65.649.649,0,0,1,.65.65" fill="#fff"/><path d="M140.307,93.7a.65.65,0,1,1-.65-.65.649.649,0,0,1,.65.65" fill="#fec94e"/><path d="M119.776,105.477h21.776V99.3H119.776Zm2.034-.921H120.8v-4.334h1.015Zm1.625,0h-1.016v-4.334h1.016Zm1.625,0h-1.015v-4.334h1.015Zm1.625,0H125.67v-4.334h1.015Z" fill="#ff8c00"/><path d="M138.086,102.389a.65.65,0,1,1-.65-.65.651.651,0,0,1,.65.65" fill="#fff"/><path d="M140.307,102.389a.65.65,0,1,1-.65-.65.651.651,0,0,1,.65.65" fill="#fec94e"/><path d="M119.776,114.165h21.776v-6.174H119.776Zm2.034-.92H120.8v-4.333h1.015Zm1.625,0h-1.016v-4.333h1.016Zm1.625,0h-1.015v-4.333h1.015Zm1.625,0H125.67v-4.333h1.015Z" fill="#ff8c00"/><path d="M138.086,111.078a.65.65,0,1,1-.65-.65.65.65,0,0,1,.65.65" fill="#fff"/><path d="M140.307,111.078a.65.65,0,1,1-.65-.65.65.65,0,0,1,.65.65" fill="#fec94e"/><path d="M108.537,237.043a83.817,83.817,0,0,1-42.1-72.562,82.884,82.884,0,0,1,16.456-49.8l17.2,12.78a61.613,61.613,0,0,0-12.227,37.02,62.343,62.343,0,0,0,31.315,53.967Z" fill="#df6c47"/><path d="M182.424,224.754a11.217,11.217,0,0,0-4.811,1.088c.018-.361.028-.723.028-1.088a22.559,22.559,0,0,0-45.028-2.01,15.391,15.391,0,1,0-12.355,24.57h62.166a11.28,11.28,0,1,0,0-22.56" fill="#fff"/><path d="M175.226,243.938a14.851,14.851,0,1,0-17.815-11.126,14.85,14.85,0,0,0,17.815,11.126" fill="#fff"/><path d="M185.128,224.189a3.688,3.688,0,0,1-.44.157v.639a2.687,2.687,0,0,0,.379-.128c.13-.053.253-.111.369-.172a3.429,3.429,0,0,0,.316-.188,1.392,1.392,0,0,0,.214-.167v4.77h.631v-2.654a14.858,14.858,0,0,0-.736-2.64c-.09.056-.177.112-.274.164-.151.081-.3.154-.459.219" fill="#fda84c"/><path d="M181.952,220.639V218.1q-.31-.281-.63-.542v3.084Z" fill="#fda84c"/><path d="M162.778,240.41a1.786,1.786,0,0,0-.333.038,15,15,0,0,0,1.912,1.381c-.241-.939-.762-1.419-1.579-1.419" fill="#fda84c"/><path d="M179.63,237.562v-5.644h-.239a3.439,3.439,0,0,1-.347.26c-.133.088-.274.174-.424.254s-.3.153-.459.219a3.624,3.624,0,0,1-.441.156v.639a2.689,2.689,0,0,0,.38-.127c.13-.054.253-.111.369-.173a3.086,3.086,0,0,0,.315-.187,1.474,1.474,0,0,0,.215-.167v4.77Z" fill="#fda84c"/><path d="M180.557,223.678a1.576,1.576,0,0,0-.583.566,2.936,2.936,0,0,0-.357.93,6.076,6.076,0,0,0-.12,1.278,5.389,5.389,0,0,0,.114,1.168,2.692,2.692,0,0,0,.34.86,1.546,1.546,0,0,0,.549.534,1.49,1.49,0,0,0,.741.182,1.582,1.582,0,0,0,.783-.191,1.618,1.618,0,0,0,.581-.558,2.84,2.84,0,0,0,.362-.9,5.391,5.391,0,0,0,.125-1.228q0-2.829-1.736-2.83a1.639,1.639,0,0,0-.8.191m1.888,2.7q0,2.28-1.143,2.28t-1.158-2.237q0-2.4,1.181-2.4,1.121,0,1.12,2.356" fill="#fda84c"/><path d="M172.663,243.929V240.38h-.238a3.863,3.863,0,0,1-.347.26c-.133.088-.275.173-.425.253s-.3.154-.458.22a3.938,3.938,0,0,1-.441.156v.639a2.687,2.687,0,0,0,.379-.128,3.93,3.93,0,0,0,.369-.173,3.107,3.107,0,0,0,.316-.187,1.443,1.443,0,0,0,.214-.167v2.689c.211,0,.421,0,.631-.013" fill="#fda84c"/><path d="M161.027,219.114c0,.014,0,.031.006.045a2.711,2.711,0,0,0,.34.86,1.551,1.551,0,0,0,.549.533,1.479,1.479,0,0,0,.74.182,1.593,1.593,0,0,0,.784-.19,1.619,1.619,0,0,0,.581-.558,2.883,2.883,0,0,0,.363-.9,5.461,5.461,0,0,0,.124-1.229,5.547,5.547,0,0,0-.171-1.463c-.193.116-.386.235-.575.36a6.136,6.136,0,0,1,.1,1.165q0,2.279-1.143,2.279c-.665,0-1.041-.556-1.134-1.662-.119.117-.245.222-.361.344-.072.076-.132.159-.2.236" fill="#fda84c"/><path d="M180.942,240.893q-.225.121-.458.219a3.7,3.7,0,0,1-.441.157v.3q.6-.389,1.169-.84c-.088.054-.175.11-.27.161" fill="#fda84c"/><path d="M185.414,234.778q0-2.829-1.736-2.83a1.639,1.639,0,0,0-.8.191,1.594,1.594,0,0,0-.584.566,2.936,2.936,0,0,0-.355.93,6.014,6.014,0,0,0-.122,1.278,5.32,5.32,0,0,0,.116,1.168,2.731,2.731,0,0,0,.338.861,1.576,1.576,0,0,0,.549.533,1.486,1.486,0,0,0,.741.183,1.6,1.6,0,0,0,.656-.141,14.74,14.74,0,0,0,1.137-1.914,5.98,5.98,0,0,0,.059-.825m-1.79,2.341q-1.16,0-1.159-2.237,0-2.4,1.182-2.4,1.121,0,1.12,2.356,0,2.279-1.143,2.279" fill="#fda84c"/><path d="M169.138,243.663c.01-.139.02-.273.02-.423q0-2.829-1.735-2.83a1.636,1.636,0,0,0-.8.191,1.584,1.584,0,0,0-.583.566,2.912,2.912,0,0,0-.356.93c-.028.127-.045.27-.064.413.2.094.405.177.609.263q.132-1.827,1.161-1.828,1.121,0,1.121,2.356c0,.08,0,.15-.007.224.21.052.422.1.633.138" fill="#fda84c"/><path d="M176.711,240.41a1.632,1.632,0,0,0-.8.191,1.584,1.584,0,0,0-.584.565,2.955,2.955,0,0,0-.356.93,6.088,6.088,0,0,0-.121,1.279c0,.1.009.192.013.288q.322-.061.64-.138c0-.062-.006-.117-.006-.182q0-2.4,1.181-2.4.987,0,1.1,1.833c.21-.089.416-.192.623-.291-.143-1.381-.705-2.077-1.7-2.077" fill="#fda84c"/><path d="M170.684,215.782a2.97,2.97,0,0,0-.356.93,6.078,6.078,0,0,0-.121,1.278,5.4,5.4,0,0,0,.115,1.169,2.759,2.759,0,0,0,.339.86,1.551,1.551,0,0,0,.549.533,1.494,1.494,0,0,0,.741.183,1.579,1.579,0,0,0,.783-.191,1.629,1.629,0,0,0,.582-.558,2.893,2.893,0,0,0,.362-.9,5.442,5.442,0,0,0,.125-1.228q0-2.829-1.736-2.829a1.636,1.636,0,0,0-.8.191,1.576,1.576,0,0,0-.584.565m1.352-.222q1.12,0,1.12,2.357,0,2.279-1.143,2.279-1.16,0-1.159-2.237,0-2.4,1.182-2.4" fill="#fda84c"/><path d="M168.338,236.942a1.561,1.561,0,0,0,.55.533,1.479,1.479,0,0,0,.74.183,1.581,1.581,0,0,0,.784-.191,1.627,1.627,0,0,0,.581-.558,2.85,2.85,0,0,0,.362-.9,5.457,5.457,0,0,0,.125-1.229q0-2.829-1.736-2.829a1.639,1.639,0,0,0-.8.191,1.574,1.574,0,0,0-.583.565,2.945,2.945,0,0,0-.357.93,6.082,6.082,0,0,0-.12,1.278,5.4,5.4,0,0,0,.114,1.169,2.759,2.759,0,0,0,.339.86m1.375-4.459q1.121,0,1.12,2.357,0,2.279-1.143,2.279t-1.158-2.237q0-2.4,1.181-2.4" fill="#fda84c"/><path d="M168.019,220.639V215h-.238a3.556,3.556,0,0,1-.347.26c-.133.088-.275.174-.425.254s-.3.153-.458.219a3.747,3.747,0,0,1-.441.156v.639a2.565,2.565,0,0,0,.379-.128,3.928,3.928,0,0,0,.369-.172,3.107,3.107,0,0,0,.316-.187,1.457,1.457,0,0,0,.214-.167v4.77Z" fill="#fda84c"/><path d="M168.019,229.1v-5.644h-.238a3.261,3.261,0,0,1-.347.26q-.2.133-.425.254a5.038,5.038,0,0,1-.458.219,3.416,3.416,0,0,1-.441.156v.64a2.565,2.565,0,0,0,.379-.128c.13-.053.253-.111.369-.172a3.3,3.3,0,0,0,.316-.187,1.452,1.452,0,0,0,.214-.168v4.77Z" fill="#fda84c"/><path d="M158.1,224.022q1.12,0,1.12,2.356,0,2.279-1.143,2.279a.943.943,0,0,1-.891-.615c-.022.295-.019.592-.022.889.038.026.071.06.111.082a1.481,1.481,0,0,0,.741.184,1.59,1.59,0,0,0,.783-.191,1.622,1.622,0,0,0,.581-.559,2.854,2.854,0,0,0,.363-.9,5.451,5.451,0,0,0,.124-1.228c0-1.814-.54-2.747-1.612-2.817-.071.177-.147.351-.211.53.02,0,.036-.008.056-.008" fill="#fda84c"/><path d="M165.7,237.562v-5.644h-.238a3.556,3.556,0,0,1-.347.26c-.133.088-.275.174-.425.254s-.3.153-.458.219a3.624,3.624,0,0,1-.441.156v.639a2.678,2.678,0,0,0,.379-.127c.13-.054.253-.111.37-.173a3.2,3.2,0,0,0,.315-.187,1.531,1.531,0,0,0,.215-.167v4.77Z" fill="#fda84c"/><path d="M164.389,227.545a5.448,5.448,0,0,0,.125-1.228q0-2.829-1.736-2.83a1.642,1.642,0,0,0-.8.191,1.594,1.594,0,0,0-.584.566,2.936,2.936,0,0,0-.355.93,6,6,0,0,0-.122,1.277,5.323,5.323,0,0,0,.116,1.169,2.731,2.731,0,0,0,.338.861,1.579,1.579,0,0,0,.55.533,1.489,1.489,0,0,0,.74.182,1.577,1.577,0,0,0,.783-.191,1.626,1.626,0,0,0,.582-.557,2.856,2.856,0,0,0,.362-.9m-1.665,1.113q-1.158,0-1.159-2.237,0-2.4,1.182-2.4,1.12,0,1.12,2.356,0,2.28-1.143,2.28" fill="#fda84c"/><path d="M174.985,237.562v-5.644h-.238a3.682,3.682,0,0,1-.347.26c-.133.088-.275.174-.425.254s-.3.153-.458.219a3.747,3.747,0,0,1-.441.156v.639a2.678,2.678,0,0,0,.379-.127c.13-.054.253-.111.369-.173a3.107,3.107,0,0,0,.316-.187,1.513,1.513,0,0,0,.214-.167v4.77Z" fill="#fda84c"/><path d="M177.308,229.1v-5.644h-.239a3.162,3.162,0,0,1-.347.26q-.2.133-.424.254a4.931,4.931,0,0,1-.459.219,3.314,3.314,0,0,1-.441.156v.64a2.575,2.575,0,0,0,.38-.128c.13-.053.253-.111.369-.172a3.28,3.28,0,0,0,.315-.187,1.47,1.47,0,0,0,.215-.168v4.77Z" fill="#fda84c"/><path d="M175.913,215.216a1.579,1.579,0,0,0-.584.566,2.936,2.936,0,0,0-.356.93,6.078,6.078,0,0,0-.121,1.278,5.323,5.323,0,0,0,.115,1.168,2.708,2.708,0,0,0,.339.861,1.568,1.568,0,0,0,.549.533,1.483,1.483,0,0,0,.741.183,1.59,1.59,0,0,0,.783-.191,1.619,1.619,0,0,0,.581-.558,2.864,2.864,0,0,0,.363-.9,5.455,5.455,0,0,0,.124-1.229,3.4,3.4,0,0,0-.668-2.419q-.534-.227-1.081-.409a1.63,1.63,0,0,0-.785.189m.744,4.98q-1.158,0-1.158-2.237,0-2.4,1.181-2.4,1.12,0,1.12,2.356,0,2.279-1.143,2.279" fill="#fda84c"/><path d="M160.34,237.658a1.579,1.579,0,0,0,.783-.191,1.619,1.619,0,0,0,.581-.558,2.874,2.874,0,0,0,.363-.9,5.461,5.461,0,0,0,.124-1.229q0-2.829-1.736-2.829a1.632,1.632,0,0,0-.8.191,1.584,1.584,0,0,0-.584.565,2.945,2.945,0,0,0-.356.93,6.078,6.078,0,0,0-.121,1.278c0,.216.01.42.028.614a14.707,14.707,0,0,0,1.16,2.021,1.534,1.534,0,0,0,.556.11m.084-5.175q1.12,0,1.12,2.357,0,2.279-1.143,2.279-1.158,0-1.158-2.237,0-2.4,1.181-2.4" fill="#fda84c"/><path d="M172.663,229.1v-5.644h-.238a3.366,3.366,0,0,1-.347.26q-.2.133-.425.254a5.038,5.038,0,0,1-.458.219,3.416,3.416,0,0,1-.441.156v.64a2.565,2.565,0,0,0,.379-.128c.13-.053.253-.111.369-.172a3.3,3.3,0,0,0,.316-.187,1.508,1.508,0,0,0,.214-.168v4.77Z" fill="#fda84c"/><path d="M195.565,222.029l-7.754,1.792a16.9,16.9,0,1,0,.862,3.731l7.755-1.792Zm-20.674,20.46a13.364,13.364,0,1,1,10.012-16.03,13.365,13.365,0,0,1-10.012,16.03" fill="#ff8c00"/><path d="M214.9,222.44l-1.279-5.533a.879.879,0,0,0-1.056-.66L192.9,220.791a.881.881,0,0,0-.66,1.056l1.279,5.534a.88.88,0,0,0,1.056.659l19.662-4.544a.881.881,0,0,0,.659-1.056" fill="#df6c47"/><path d="M200.445,219.1l.127,7.559a3.2,3.2,0,0,0,4.582-.526l.492-.647.02.019a2.918,2.918,0,0,0,4.464-.5l.427-.652.754.678a2.578,2.578,0,0,0,3.617-.166l1.553-1.677a3.312,3.312,0,0,0,4.218-1.8,45.435,45.435,0,0,0,3.513-17.415v-7.75l-15-5.475-.98,1.241c-1.838,2.171-4.312,4.664-6.3,6.593a12.236,12.236,0,0,0-3.706,8.037l-.409,6.627-2.91,7.087Z" fill="#8e562e"/><polygon points="209.601 186.783 207.012 192.042 224.212 199.363 227.277 192.399 209.601 186.783" fill="#fff"/><path d="M227.921,194.709l-19.973-7.753a62.219,62.219,0,0,0-32.468-79.163l5.167-21.149,3.629,1.611a83.646,83.646,0,0,1,43.645,106.454" fill="#df6c47"/><rect x="149.012" y="67.034" width="26.943" height="56.093" fill="#df6c47"/><rect x="175.955" y="67.034" width="7.838" height="56.093" fill="#ff8c00"/><path d="M151.6,119.525h21.777V113.35H151.6Zm2.033-.92h-1.015v-4.334h1.015Zm1.626,0h-1.016v-4.334h1.016Zm1.624,0h-1.015v-4.334h1.015Zm1.626,0h-1.016v-4.334H158.5Z" fill="#ff8c00"/><path d="M169.905,116.437a.65.65,0,1,1-.65-.65.651.651,0,0,1,.65.65" fill="#fff"/><path d="M172.126,116.437a.65.65,0,1,1-.65-.65.651.651,0,0,1,.65.65" fill="#fec94e"/><path d="M151.6,110.755h21.777v-6.176H151.6Zm2.033-.921h-1.015V105.5h1.015Zm1.626,0h-1.016V105.5h1.016Zm1.624,0h-1.015V105.5h1.015Zm1.626,0h-1.016V105.5H158.5Z" fill="#ff8c00"/><path d="M169.905,107.668a.65.65,0,1,1-.65-.651.651.651,0,0,1,.65.651" fill="#fff"/><path d="M172.126,107.668a.65.65,0,1,1-.65-.651.651.651,0,0,1,.65.651" fill="#fec94e"/><path d="M151.6,101.985h21.777V95.809H151.6Zm2.033-.921h-1.015V96.73h1.015Zm1.626,0h-1.016V96.73h1.016Zm1.624,0h-1.015V96.73h1.015Zm1.626,0h-1.016V96.73H158.5Z" fill="#ff8c00"/><path d="M169.905,98.9a.65.65,0,1,1-.65-.651.65.65,0,0,1,.65.651" fill="#fff"/><path d="M172.126,98.9a.65.65,0,1,1-.65-.651.65.65,0,0,1,.65.651" fill="#fec94e"/><path d="M151.6,93.215h21.777V87.04H151.6Zm2.033-.921h-1.015V87.96h1.015Zm1.626,0h-1.016V87.96h1.016Zm1.624,0h-1.015V87.96h1.015Zm1.626,0h-1.016V87.96H158.5Z" fill="#ff8c00"/><path d="M169.905,90.127a.65.65,0,1,1-.65-.65.65.65,0,0,1,.65.65" fill="#fff"/><path d="M172.126,90.127a.65.65,0,1,1-.65-.65.65.65,0,0,1,.65.65" fill="#fec94e"/><path d="M151.6,84.445h21.777V78.269H151.6Zm2.033-.921h-1.015V79.19h1.015Zm1.626,0h-1.016V79.19h1.016Zm1.624,0h-1.015V79.19h1.015Zm1.626,0h-1.016V79.19H158.5Z" fill="#ff8c00"/><path d="M169.905,81.357a.65.65,0,1,1-.65-.65.65.65,0,0,1,.65.65" fill="#fff"/><path d="M172.126,81.357a.65.65,0,1,1-.65-.65.65.65,0,0,1,.65.65" fill="#fec94e"/><path d="M151.6,75.675h21.777V69.5H151.6Zm2.033-.921h-1.015V70.42h1.015Zm1.626,0h-1.016V70.42h1.016Zm1.624,0h-1.015V70.42h1.015Zm1.626,0h-1.016V70.42H158.5Z" fill="#ff8c00"/><path d="M169.905,72.586a.65.65,0,1,1-.65-.65.65.65,0,0,1,.65.65" fill="#fff"/><path d="M172.126,72.586a.65.65,0,1,1-.65-.65.65.65,0,0,1,.65.65" fill="#fec94e"/><path d="M135.234,79.814a14.852,14.852,0,1,1-.547-21,14.852,14.852,0,0,1,.547,21" fill="#fff"/><path d="M137.59,64.676a3.462,3.462,0,0,1-.441.156v.64a2.742,2.742,0,0,0,.38-.128c.13-.053.253-.111.369-.172a3.668,3.668,0,0,0,.316-.188,1.457,1.457,0,0,0,.214-.167v4.77h.631V66.933a14.837,14.837,0,0,0-.737-2.64c-.09.056-.176.112-.273.164-.151.081-.3.154-.459.219" fill="#fda84c"/><path d="M134.414,61.125V58.583q-.31-.28-.631-.541v3.083Z" fill="#fda84c"/><path d="M115.24,80.9a1.776,1.776,0,0,0-.333.038,14.825,14.825,0,0,0,1.912,1.38c-.241-.939-.762-1.418-1.579-1.418" fill="#fda84c"/><path d="M132.091,78.048V72.405h-.238a3.556,3.556,0,0,1-.347.26c-.133.088-.275.173-.425.253s-.3.154-.458.22a3.684,3.684,0,0,1-.441.156v.639a2.565,2.565,0,0,0,.379-.128,4.07,4.07,0,0,0,.37-.172,3.408,3.408,0,0,0,.315-.187,1.456,1.456,0,0,0,.215-.168v4.77Z" fill="#fda84c"/><path d="M133.019,64.164a1.582,1.582,0,0,0-.584.567,2.96,2.96,0,0,0-.356.93,6.068,6.068,0,0,0-.121,1.277,5.388,5.388,0,0,0,.115,1.169,2.715,2.715,0,0,0,.339.86,1.562,1.562,0,0,0,.549.534,1.5,1.5,0,0,0,.741.182,1.579,1.579,0,0,0,.783-.191,1.621,1.621,0,0,0,.582-.558,2.873,2.873,0,0,0,.362-.9,5.448,5.448,0,0,0,.125-1.228q0-2.829-1.736-2.83a1.647,1.647,0,0,0-.8.19m1.888,2.7q0,2.279-1.143,2.279-1.159,0-1.159-2.236,0-2.4,1.182-2.4,1.12,0,1.12,2.356" fill="#fda84c"/><path d="M125.125,84.416v-3.55h-.239a3.294,3.294,0,0,1-.347.26c-.133.089-.274.173-.424.254s-.3.154-.459.219a3.638,3.638,0,0,1-.441.157V82.4a2.7,2.7,0,0,0,.38-.128,3.93,3.93,0,0,0,.369-.173,3.28,3.28,0,0,0,.315-.187,1.344,1.344,0,0,0,.215-.168v2.689c.21,0,.42,0,.631-.012" fill="#fda84c"/><path d="M113.488,59.6c0,.015,0,.031.007.046a2.735,2.735,0,0,0,.339.86,1.562,1.562,0,0,0,.55.533,1.489,1.489,0,0,0,.74.182,1.579,1.579,0,0,0,.783-.191,1.626,1.626,0,0,0,.582-.557,2.879,2.879,0,0,0,.362-.9,5.448,5.448,0,0,0,.125-1.228,5.538,5.538,0,0,0-.172-1.463c-.193.116-.385.234-.574.36a6.124,6.124,0,0,1,.1,1.164q0,2.28-1.143,2.28c-.665,0-1.042-.556-1.135-1.662-.118.117-.245.222-.36.343-.073.076-.133.159-.2.236" fill="#fda84c"/><path d="M133.4,81.38a5.067,5.067,0,0,1-.459.219,3.408,3.408,0,0,1-.441.156v.3q.6-.388,1.17-.841c-.089.055-.175.111-.27.162" fill="#fda84c"/><path d="M137.875,75.265q0-2.829-1.736-2.83a1.635,1.635,0,0,0-.8.191,1.594,1.594,0,0,0-.584.566,2.912,2.912,0,0,0-.355.93,6,6,0,0,0-.122,1.278,5.385,5.385,0,0,0,.115,1.168,2.708,2.708,0,0,0,.339.861,1.568,1.568,0,0,0,.549.533,1.483,1.483,0,0,0,.741.182,1.607,1.607,0,0,0,.656-.14,14.632,14.632,0,0,0,1.136-1.915,5.814,5.814,0,0,0,.059-.824m-1.79,2.341q-1.158,0-1.158-2.237,0-2.4,1.182-2.4,1.119,0,1.12,2.356,0,2.279-1.144,2.279" fill="#fda84c"/><path d="M121.6,84.15c.009-.139.02-.273.02-.423q0-2.831-1.735-2.83a1.632,1.632,0,0,0-.8.191,1.589,1.589,0,0,0-.583.565,2.936,2.936,0,0,0-.356.93c-.027.128-.044.271-.063.413.2.095.405.177.609.264q.13-1.827,1.161-1.828,1.121,0,1.121,2.356c0,.08-.006.149-.008.224.21.051.422.1.634.138" fill="#fda84c"/><path d="M129.173,80.9a1.639,1.639,0,0,0-.8.191,1.581,1.581,0,0,0-.583.565,2.955,2.955,0,0,0-.357.93,6.092,6.092,0,0,0-.12,1.279c0,.1.009.192.013.288q.321-.063.64-.138c0-.062-.006-.117-.006-.182q0-2.4,1.181-2.4.987,0,1.1,1.833c.211-.09.417-.192.624-.291-.143-1.381-.706-2.077-1.7-2.077" fill="#fda84c"/><path d="M123.146,56.269a2.936,2.936,0,0,0-.356.93,6.074,6.074,0,0,0-.121,1.277,5.336,5.336,0,0,0,.115,1.17,2.711,2.711,0,0,0,.339.86,1.568,1.568,0,0,0,.549.533,1.491,1.491,0,0,0,.741.183,1.579,1.579,0,0,0,.783-.191,1.627,1.627,0,0,0,.581-.558,2.87,2.87,0,0,0,.363-.9,5.451,5.451,0,0,0,.124-1.228q0-2.829-1.736-2.829a1.632,1.632,0,0,0-.8.19,1.586,1.586,0,0,0-.584.566m1.351-.222q1.121,0,1.12,2.356,0,2.28-1.143,2.28-1.158,0-1.158-2.237,0-2.4,1.181-2.4" fill="#fda84c"/><path d="M120.8,77.429a1.559,1.559,0,0,0,.549.533,1.491,1.491,0,0,0,.741.183,1.579,1.579,0,0,0,.783-.191,1.638,1.638,0,0,0,.582-.558,2.893,2.893,0,0,0,.362-.9,5.448,5.448,0,0,0,.125-1.228q0-2.829-1.737-2.829a1.635,1.635,0,0,0-.8.19,1.586,1.586,0,0,0-.584.566,2.97,2.97,0,0,0-.356.93,6.074,6.074,0,0,0-.121,1.277,5.4,5.4,0,0,0,.115,1.17,2.759,2.759,0,0,0,.339.86m1.375-4.459q1.121,0,1.12,2.356,0,2.28-1.143,2.28-1.159,0-1.159-2.237,0-2.4,1.182-2.4" fill="#fda84c"/><path d="M120.481,61.125V55.481h-.239a3.162,3.162,0,0,1-.347.26q-.2.133-.424.254c-.151.082-.3.154-.459.22a3.673,3.673,0,0,1-.44.156v.639a2.565,2.565,0,0,0,.379-.128c.13-.053.253-.111.369-.172a3.28,3.28,0,0,0,.315-.187,1.4,1.4,0,0,0,.215-.168v4.77Z" fill="#fda84c"/><path d="M120.481,69.587V63.943h-.239a3.162,3.162,0,0,1-.347.26c-.133.088-.274.174-.424.254s-.3.154-.459.219a3.506,3.506,0,0,1-.44.156v.639a2.557,2.557,0,0,0,.379-.127,3.93,3.93,0,0,0,.369-.173,3.088,3.088,0,0,0,.315-.186,1.541,1.541,0,0,0,.215-.168v4.77Z" fill="#fda84c"/><path d="M110.564,64.509q1.121,0,1.12,2.356,0,2.279-1.143,2.279a.942.942,0,0,1-.891-.615c-.022.3-.019.592-.022.888.038.026.071.061.111.083a1.48,1.48,0,0,0,.741.183,1.59,1.59,0,0,0,.783-.19,1.638,1.638,0,0,0,.581-.559,2.84,2.84,0,0,0,.362-.9,5.394,5.394,0,0,0,.125-1.229c0-1.814-.541-2.747-1.612-2.816-.072.176-.147.351-.212.529.02,0,.037-.007.057-.007" fill="#fda84c"/><path d="M118.158,78.048V72.405h-.238a3.556,3.556,0,0,1-.347.26c-.133.088-.275.173-.425.253s-.3.154-.458.22a3.747,3.747,0,0,1-.441.156v.639a2.565,2.565,0,0,0,.379-.128,3.928,3.928,0,0,0,.369-.172,3.3,3.3,0,0,0,.316-.187,1.388,1.388,0,0,0,.214-.168v4.77Z" fill="#fda84c"/><path d="M116.851,68.032a5.448,5.448,0,0,0,.125-1.228q0-2.831-1.737-2.83a1.635,1.635,0,0,0-.8.19,1.6,1.6,0,0,0-.584.567,2.912,2.912,0,0,0-.355.93,6,6,0,0,0-.122,1.277,5.323,5.323,0,0,0,.116,1.169,2.692,2.692,0,0,0,.338.86,1.571,1.571,0,0,0,.549.534,1.493,1.493,0,0,0,.741.182,1.577,1.577,0,0,0,.783-.191,1.621,1.621,0,0,0,.582-.558,2.863,2.863,0,0,0,.362-.9m-1.665,1.112q-1.16,0-1.159-2.237,0-2.4,1.182-2.4,1.12,0,1.12,2.356,0,2.279-1.143,2.279" fill="#fda84c"/><path d="M127.447,78.048V72.405h-.239a3.439,3.439,0,0,1-.347.26c-.133.088-.274.173-.424.253s-.3.154-.459.22a3.624,3.624,0,0,1-.441.156v.639a2.575,2.575,0,0,0,.38-.128,3.928,3.928,0,0,0,.369-.172,3.28,3.28,0,0,0,.315-.187,1.4,1.4,0,0,0,.215-.168v4.77Z" fill="#fda84c"/><path d="M129.769,69.587V63.943h-.238a3.261,3.261,0,0,1-.347.26c-.133.088-.275.174-.425.254s-.3.154-.458.219a3.462,3.462,0,0,1-.441.156v.639a2.557,2.557,0,0,0,.379-.127,4.073,4.073,0,0,0,.37-.173,3.2,3.2,0,0,0,.315-.186,1.6,1.6,0,0,0,.215-.168v4.77Z" fill="#fda84c"/><path d="M128.374,55.7a1.594,1.594,0,0,0-.584.566,2.936,2.936,0,0,0-.355.93,6,6,0,0,0-.122,1.278,5.32,5.32,0,0,0,.116,1.168,2.731,2.731,0,0,0,.338.861,1.57,1.57,0,0,0,.55.533,1.479,1.479,0,0,0,.74.182,1.587,1.587,0,0,0,.783-.19,1.629,1.629,0,0,0,.582-.558,2.859,2.859,0,0,0,.362-.9,5.457,5.457,0,0,0,.125-1.229,3.4,3.4,0,0,0-.669-2.42q-.534-.226-1.08-.408a1.634,1.634,0,0,0-.786.189m.745,4.98q-1.158,0-1.159-2.237,0-2.4,1.182-2.4,1.121,0,1.12,2.357,0,2.279-1.143,2.279" fill="#fda84c"/><path d="M112.8,78.145a1.579,1.579,0,0,0,.783-.191,1.635,1.635,0,0,0,.581-.558,2.846,2.846,0,0,0,.362-.9,5.391,5.391,0,0,0,.125-1.228q0-2.829-1.736-2.829a1.639,1.639,0,0,0-.8.19,1.584,1.584,0,0,0-.583.566,2.945,2.945,0,0,0-.357.93,6.079,6.079,0,0,0-.12,1.277c0,.217.009.421.028.614a14.815,14.815,0,0,0,1.159,2.022,1.544,1.544,0,0,0,.557.11m.084-5.175q1.12,0,1.12,2.356,0,2.28-1.143,2.28-1.158,0-1.158-2.237,0-2.4,1.181-2.4" fill="#fda84c"/><path d="M125.125,69.587V63.943h-.239a3.162,3.162,0,0,1-.347.26c-.133.088-.274.174-.424.254s-.3.154-.459.219a3.462,3.462,0,0,1-.441.156v.639a2.567,2.567,0,0,0,.38-.127,3.93,3.93,0,0,0,.369-.173,3.088,3.088,0,0,0,.315-.186,1.541,1.541,0,0,0,.215-.168v4.77Z" fill="#fda84c"/><path d="M108.812,88.859l5.478-5.773a16.9,16.9,0,1,0-2.777-2.636l-5.479,5.772Zm6.45-9.577a13.364,13.364,0,1,1,18.894-.492,13.365,13.365,0,0,1-18.894.492" fill="#ff8c00"/><path d="M96.577,103.092l-4.119-3.91a.88.88,0,0,1-.032-1.245L106.318,83.3a.881.881,0,0,1,1.245-.032l4.119,3.91a.881.881,0,0,1,.032,1.245L97.821,103.059a.879.879,0,0,1-1.244.033" fill="#df6c47"/><path d="M216.3,182.579a2.589,2.589,0,1,0-2.59,2.588,2.59,2.59,0,0,0,2.59-2.588" fill="#fda84c"/><path d="M93.675,127.661a2.589,2.589,0,1,0-2.589,2.588,2.59,2.59,0,0,0,2.589-2.588" fill="#fda84c"/><path d="M104.606,88.57l-.123-4.79a3.2,3.2,0,0,0-4.422,1.31l-.374.72-.023-.014a2.916,2.916,0,0,0-4.31,1.264l-.308.715-.86-.538a2.58,2.58,0,0,0-3.534.787l-1.241,1.919a3.312,3.312,0,0,0-3.845,2.5c-.836,3.619-.3,11.264,1.033,18.9l-.762,3.042L98.16,124.417s10.656-14.969,12.285-17.212c1.8-2.471,1.058-10.313,1.058-10.313l-.348-7.855-3.564,1.473a2.16,2.16,0,0,1-2.985-1.94" fill="#f6caa7"/><polygon points="83.502 115.131 85.444 112.108 101.021 123.775 99.032 126.673 83.502 115.131" fill="#fff"/></svg>