<svg xmlns="http://www.w3.org/2000/svg" viewBox="0 0 300 300"><title>MSC17-cloud-007</title><path d="M300,0V300H0V0Z" fill="#d2d2d2"/><path d="M82.719,191.018a5.956,5.956,0,1,1-5.956-5.955,5.957,5.957,0,0,1,5.956,5.955" fill="#1070c4"/><path d="M216.459,150.036a18.832,18.832,0,0,0-6.516,1.157,47.474,47.474,0,1,0-93.386-16.153,29.061,29.061,0,0,0-45.972,22.613,16.048,16.048,0,1,0-7.755,30.1H216.459a18.858,18.858,0,0,0,0-37.716" fill="#fff"/><path d="M231.372,144.954a21.013,21.013,0,1,1-21.013-21.012,21.013,21.013,0,0,1,21.013,21.012" fill="#1070c4"/><path d="M143.585,220.657a20.28,20.28,0,1,1-20.28-20.28,20.28,20.28,0,0,1,20.28,20.28" fill="#1070c4"/><path d="M189.346,183.282A25.083,25.083,0,1,1,164.264,158.2a25.083,25.083,0,0,1,25.082,25.082" fill="#1070c4"/><path d="M249.361,104.386a15.178,15.178,0,1,0-15.177,15.178,15.178,15.178,0,0,0,15.177-15.178" fill="#1070c4"/><path d="M260.217,71.111a12.725,12.725,0,1,1-12.724-12.725,12.724,12.724,0,0,1,12.724,12.725" fill="#1070c4"/><path d="M207.967,64.266a8.827,8.827,0,1,1-8.827-8.827,8.827,8.827,0,0,1,8.827,8.827" fill="#1070c4"/><path d="M238.655,47.471A10.673,10.673,0,1,1,227.982,36.8a10.673,10.673,0,0,1,10.673,10.673" fill="#1070c4"/><path d="M187.76,84.358a6.6,6.6,0,1,1-6.6-6.6,6.6,6.6,0,0,1,6.6,6.6" fill="#1070c4"/><path d="M97.814,242.514a13.855,13.855,0,1,1-13.855-13.855,13.855,13.855,0,0,1,13.855,13.855" fill="#1070c4"/><path d="M63.582,233.751A10.622,10.622,0,1,1,52.96,223.128a10.621,10.621,0,0,1,10.622,10.623" fill="#1070c4"/><path d="M68.681,208.365a7.849,7.849,0,1,1-7.849-7.848,7.848,7.848,0,0,1,7.849,7.848" fill="#1070c4"/><path d="M174.393,177.752a10.13,10.13,0,1,0-17.163,7.287,9.291,9.291,0,0,1,2.776,6.7v.182h8.515v-.182a9.652,9.652,0,0,1,2.9-6.819,10.093,10.093,0,0,0,2.973-7.167" fill="#fff"/><path d="M162.935,179.9l-.026-.793h0l-.063-1.824a1.941,1.941,0,1,0-3.882,0v.081a1.936,1.936,0,0,0,1.2,1.792l.052.021a10.468,10.468,0,0,0,1.938.593l.5,14.663.782-.027-.5-14.506Zm-2.425-1.446-.051-.021a1.154,1.154,0,0,1-.714-1.069v-.081a1.159,1.159,0,1,1,2.317.013l.057,1.668a9.732,9.732,0,0,1-1.609-.51" fill="#d2d2d2"/><path d="M167.657,175.343h-.033a1.941,1.941,0,0,0-1.941,1.928l-.063,1.844a10.011,10.011,0,0,1-2.147.056l.037.787a10.9,10.9,0,0,0,2.083-.05l-.5,14.5.782.026.5-14.653.027-.805.059-1.692a1.159,1.159,0,0,1,1.158-1.158h.033a1.158,1.158,0,0,1,1.157,1.158v.087a1.154,1.154,0,0,1-.708,1.067,9.672,9.672,0,0,1-1.037.366l-.035.823a10.415,10.415,0,0,0,1.376-.467,1.937,1.937,0,0,0,1.187-1.789v-.087a1.943,1.943,0,0,0-1.94-1.941" fill="#d2d2d2"/><path d="M160.006,191.738v4.826a1.268,1.268,0,0,0,1.268,1.268h1.741v1.11h2.6v-1.11h1.741a1.268,1.268,0,0,0,1.268-1.268v-4.826Z" fill="#09538f"/><rect x="160.006" y="193.108" width="6.786" height="0.966" fill="#1070c4"/><rect x="160.006" y="195.262" width="6.786" height="0.965" fill="#1070c4"/><polygon points="254.429 75.585 240.715 75.585 240.715 66.636 247.572 70.44 254.429 66.636 254.429 75.585" fill="#d2d2d2"/><path d="M240.715,75.585l5.466-4.878a2.093,2.093,0,0,1,2.783,0l5.465,4.878Z" fill="#d2d2d2"/><path d="M253.442,68.364,249,70.985a2.8,2.8,0,0,1-2.85,0L241.7,68.364a2.006,2.006,0,0,1-.987-1.728h13.714a2.006,2.006,0,0,1-.987,1.728" fill="#fff"/><rect x="77.638" y="237.721" width="12.642" height="10.475" fill="#f3f3f3"/><rect x="79.015" y="236.754" width="0.857" height="1.845" fill="#d2d2d2"/><rect x="80.822" y="236.754" width="0.857" height="1.845" fill="#d2d2d2"/><rect x="82.628" y="236.754" width="0.857" height="1.845" fill="#d2d2d2"/><rect x="84.434" y="236.754" width="0.857" height="1.845" fill="#d2d2d2"/><rect x="86.24" y="236.754" width="0.857" height="1.845" fill="#d2d2d2"/><rect x="88.045" y="236.754" width="0.857" height="1.845" fill="#d2d2d2"/><rect x="79.444" y="240.882" width="1.806" height="1.806" fill="#d2d2d2"/><rect x="83.056" y="240.882" width="1.806" height="1.806" fill="#d2d2d2"/><rect x="86.668" y="240.882" width="1.806" height="1.806" fill="#d2d2d2"/><rect x="79.444" y="244.223" width="1.806" height="1.806" fill="#d2d2d2"/><rect x="83.056" y="244.223" width="1.806" height="1.806" fill="#d2d2d2"/><rect x="86.668" y="244.223" width="1.806" height="1.806" fill="#d2d2d2"/><polygon points="131.462 231.212 115.148 231.212 115.148 214.902 120.278 210.101 131.462 210.101 131.462 231.212" fill="#fff" fill-rule="evenodd"/><polygon points="120.278 214.902 115.148 214.902 120.278 210.1 120.278 214.902" fill="#09538f" fill-rule="evenodd"/><rect x="117.481" y="216.911" width="11.648" height="1.122" fill="#d2d2d2"/><rect x="117.481" y="219.012" width="11.648" height="1.122" fill="#d2d2d2"/><rect x="117.481" y="221.114" width="11.648" height="1.122" fill="#d2d2d2"/><rect x="117.481" y="223.215" width="11.648" height="1.122" fill="#d2d2d2"/><rect x="117.481" y="225.227" width="11.648" height="1.122" fill="#d2d2d2"/><path d="M218.52,153.492,212.4,143.215a3.179,3.179,0,0,1-.36-1.471v-4.96h.283a.9.9,0,0,0,0-1.795H208.4a.9.9,0,0,0,0,1.795h.283v4.96a3.179,3.179,0,0,1-.36,1.471L202.2,153.492a.914.914,0,0,0,.811,1.337h14.7a.915.915,0,0,0,.811-1.337" fill="#fff"/><path d="M211.153,132h-1.531a.709.709,0,0,0-.709.709v2.278h2.949v-2.278a.71.71,0,0,0-.709-.709" fill="#09538f"/><path d="M242.117,110.8H226.251a1.112,1.112,0,0,1-1.113-1.112V99.857a1.112,1.112,0,0,1,1.113-1.112h15.866a1.112,1.112,0,0,1,1.112,1.112v9.827a1.112,1.112,0,0,1-1.112,1.112" fill="#09538f"/><polygon points="229.997 107.996 229.193 107.191 231.697 104.687 229.193 102.183 229.997 101.378 233.306 104.687 229.997 107.996" fill="#fff"/><rect x="234.654" y="107.024" width="4.522" height="1.138" fill="#fff"/><path d="M242.258,97.976h-16.15a.97.97,0,0,0-.97.97v1.337h18.091V98.946a.97.97,0,0,0-.971-.97" fill="#fff"/></svg>