<svg xmlns="http://www.w3.org/2000/svg" viewBox="0 0 636 300"><title>MSC17-business-011</title><path d="M636,0V300H0V0Z" fill="#0078d7"/><path d="M376.1,145.68a7.547,7.547,0,0,0-3.256.734,14.067,14.067,0,0,0-27.7-3.117,9.74,9.74,0,1,0-5.842,17.533H376.1a7.575,7.575,0,1,0,0-15.15" fill="#459bdd"/><path d="M229,174.935a4.107,4.107,0,0,0-1.984.509,15.27,15.27,0,1,0-28.556-7.525c0,.493.026.979.071,1.459a7.147,7.147,0,1,0-2.581,13.811H229a4.127,4.127,0,0,0,0-8.254" fill="#459bdd"/><path d="M407.716,79.141,370.682,93.052a39.532,39.532,0,0,0,64.933,13.989Z" fill="#b2b2b2"/><path d="M379.714,51.14a39.4,39.4,0,0,0-11.577,27.95c0,.016,0,.034,0,.051h39.577Z" fill="#edac28"/><path d="M368.139,79.141a39.407,39.407,0,0,0,2.544,13.911l37.033-13.911Z" fill="#fff"/><path d="M435.615,107.04a39.528,39.528,0,0,0-55.9-55.9l28,28Z" fill="#df6c47"/><path d="M353.473,225.7a17.329,17.329,0,0,0-6,1.065,43.718,43.718,0,0,0-84.023-23.875H252.505v4.827a26.746,26.746,0,0,0-33.373,25,14.78,14.78,0,1,0-7.143,27.72H353.473a17.367,17.367,0,0,0,0-34.734" fill="#fff"/><polygon points="325.208 101.716 323.664 104.044 320.572 103.067 319.449 99.216 324.085 97.864 325.208 101.716" fill="#fec94e"/><path d="M326.112,104.819l-.9-3.1-4.636,1.351-.889-3.051-23.761,6.924.234.83-22.511,6.56,0-.013a.58.58,0,0,0-.719-.394l-.294.085a.581.581,0,0,0-.394.719l.973,3.34a.578.578,0,0,0,.719.393l.294-.085a.581.581,0,0,0,.395-.719l0-.013,22.478-6.552.248.883,23.794-6.99.346,1.186Z" fill="#c58d1f"/><rect x="273.397" y="111.313" width="21.386" height="1.277" transform="translate(-19.976 83.951) rotate(-16.247)" fill="#fec94e"/><rect x="295.734" y="103.705" width="22.851" height="1.916" transform="translate(-17.016 90.122) rotate(-16.248)" fill="#fec94e"/><path d="M278.068,124.022l.721-1.8-1.455-8.98a1.426,1.426,0,0,1,.755-1.5l1.83-.94a.855.855,0,0,1,1.023.186l.461.507,2.343-1.623,2.884-.09.09.721-1.885,1.231-.819,2.194,3.509-5.1a1.1,1.1,0,0,1,1.874,1.156l-2.318,4.216,2.607-1.2a.985.985,0,0,1,1.011,1.676l-3.979,3.042-1.8,6.309-2.433,3.6-4.507-1.893Z" fill="#f0beb4"/><path d="M272.467,117.9l-1.027-.5a1.83,1.83,0,0,1-1.009-1.262,10.88,10.88,0,0,0-12.181-8.645,10.707,10.707,0,0,0-9.29,9.535,10.877,10.877,0,0,0,6.182,11.078l.649.918-1.223,4.518,8.189.753,1-3.107a3.25,3.25,0,0,1,2.553-2.211l1.954-.329a2.8,2.8,0,0,0,2.562-2.879c-.046-1.488-.1-3.357-.138-4.95l1.678-.639a1.243,1.243,0,0,0,.1-2.278" fill="#f0beb4"/><path d="M258.255,106.071a11.969,11.969,0,0,0-7.056,2.458,3.919,3.919,0,0,0-1.474-1.8,3.966,3.966,0,0,0-5.477,1.125l-1.4,2.122A3.941,3.941,0,0,0,247.029,116a10.976,10.976,0,0,0,.886,5.5l.56,1.264a10.985,10.985,0,0,0,6.143,5.816l1.174.445s3.012-1.506,3.67-4.236a11.222,11.222,0,0,0,.043-3.932,2.989,2.989,0,0,1-3.895-1.47l-.183-.391a1.8,1.8,0,1,1,3.258-1.522l1.6,2.826,1.246,2.136s1.129-4.8-.377-7.247a2.858,2.858,0,0,1,2.072-4.612,2.657,2.657,0,0,0,2.352-1.412c-1.552-2.447-4.471-3.094-7.325-3.094" fill="#704322"/><path d="M268.686,116.836a.894.894,0,1,1-.894-.894.894.894,0,0,1,.894.894" fill="#0078d7"/><path d="M265.423,116.13a.377.377,0,0,1-.337-.545,2.834,2.834,0,0,1,2.977-1.52.377.377,0,0,1,.3.437.371.371,0,0,1-.436.3,2.119,2.119,0,0,0-2.17,1.115.375.375,0,0,1-.337.209" fill="#704322"/><path d="M270.711,122.283l-.041-.03a.86.86,0,0,0-1.007-.017l-1.776,1.24,1.36.262a2.177,2.177,0,0,0,1.477-.239l.035-.019Z" fill="#eb4f5d"/><polygon points="260.606 146.967 280.719 142.657 297.776 125.538 289.874 121.228 277.128 135.114 258.694 135.647 260.606 146.967" fill="#939393"/><path d="M242.941,210.5a35.681,35.681,0,0,1,12,3.082,35.809,35.809,0,0,1,19.379-10.966c.32-8.144.3-17.7-.895-25.061a18.953,18.953,0,0,0,2.445-1.141c-.441-2.009-2.82-12.864-3.874-18.088a10.806,10.806,0,0,1,.26-5.288l.22-.72a5.4,5.4,0,0,0-.676-4.587c-.44-.656-.937-1.416-1.434-2.2l6.607.022a3.259,3.259,0,0,0,3.17-2.455l4.329-17-6.849-3.155-5.046,14.87-6.371-.655a8.037,8.037,0,0,0-.544-.636c-.237-.241-.5-.457-.755-.673l.459-.92-.258-.432a6.843,6.843,0,0,0-4.481-3.178l-7.381-1.481-1.351,4.1.805.053a3.509,3.509,0,0,0-.336.427l-2.631,3.93c-2.351,3.9.716,21.4,1.937,26.981a44.476,44.476,0,0,0-4.81,12.7l1.611-.2a51.509,51.509,0,0,0-4.868,19.455Z" fill="#b2b2b2"/><path d="M247.1,186.594s3.828-1.915,7.913-4.128a22.919,22.919,0,0,0,3.141.4c4.2.238,9.75-1.665,13.048-2.99a108.227,108.227,0,0,1-1.221,23.893,35.471,35.471,0,0,1,5.013-1.282c.11-8.17-.113-17.673-1.305-25.04a18.876,18.876,0,0,1-11.158,1l-3.824-.831a18.911,18.911,0,0,0-6.409-.281l-4.152.527c-.193.634-.357,1.214-.445,1.643a13.266,13.266,0,0,0,4.481,2.218,12.464,12.464,0,0,0-5.082,4.871" fill="#939393"/><path d="M270.364,145.529l-14.912-.051a4.737,4.737,0,0,1-1.308-.2,66.9,66.9,0,0,0,6.292,6.113c3.845,3.245,11.5,6.745,11.5,6.745l.013-.024a10.793,10.793,0,0,1,.3-5.068l.22-.72a5.406,5.406,0,0,0-.676-4.587c-.439-.655-.936-1.417-1.431-2.2" fill="#939393"/><path d="M256.23,190.679l13.458-7.81s-3.365,9.493-13.458,7.81" fill="#939393"/><path d="M250.342,191.881l-5.647,3.485s.24-4.567,5.647-3.485" fill="#939393"/><path d="M264.866,135.827a14.584,14.584,0,0,0-6.939-1.892,20.069,20.069,0,0,1,4.551-1.442s2.253,1.262,2.388,3.334" fill="#939393"/><path d="M272.571,137.81l1.911,3.665s-3.1.36-1.911-3.665" fill="#939393"/><path d="M252.505,165.086l5.888-5.287s-5.648-.841-5.888,5.287" fill="#939393"/><path d="M271.13,159.8a.962.962,0,1,1-.962-.961.962.962,0,0,1,.962.961" fill="#939393"/><path d="M273.172,168.51a1.021,1.021,0,1,1-1.021-1.021,1.021,1.021,0,0,1,1.021,1.021" fill="#939393"/><path d="M297.37,111.908l-.241-.828-.925.269-.262-2.065a1.029,1.029,0,0,0-2.048.091l-.145,3.832-.089,4.056-3.305,4.446,5.287,2.824,2-3a5.122,5.122,0,0,0,.535-1.037l2.582-3.324a12.11,12.11,0,0,0,1.84-3.359l1.363-3.828Z" fill="#db9c94"/><path d="M303.826,102.912a.854.854,0,0,0-.888.491l-.788,1.713a1.466,1.466,0,0,0-2.148-.084l-.1.095-.155-.09a1.469,1.469,0,0,0-2.02.546l-.047.085a1.469,1.469,0,0,0-2.061.738l-.014.18.2.54a1.029,1.029,0,0,0,1.939-.037l.173-.52.1.15a1.024,1.024,0,0,0,1.835-.334l.164-.657.241.154a1.416,1.416,0,0,0,2-.5l.044-.079-.117-.148c-.011-.013-.024-.023-.035-.036l2.184-.636.165-.4a.856.856,0,0,0-.681-1.177" fill="#db9c94"/></svg>