<svg xmlns="http://www.w3.org/2000/svg" viewBox="0 0 300 300"><title>MSC17-cloud-005</title><path d="M300,0V300H0V0Z" fill="#0078d7"/><path d="M57.377,171.548H35.194a3.124,3.124,0,0,0-3.124,3.124v10.767H60.5V174.672a3.124,3.124,0,0,0-3.124-3.124M33.225,184.284v-9.612a1.972,1.972,0,0,1,1.969-1.97h1.494v11.582ZM37.843,172.7h4.618v11.582H37.843Zm5.773,0h4.617v11.582H43.616Zm5.773,0h4.618v11.582H49.389Zm9.957,11.582H55.162V172.7h2.215a1.972,1.972,0,0,1,1.969,1.97Z" fill="#09538f"/><polygon points="53.65 205.436 64.616 198.525 53.717 191.546 52.294 192.636 61.853 198.525 52.294 204.412 53.65 205.436" fill="#09538f" fill-rule="evenodd"/><path d="M49.758,138.992l-.391-1.187c-.145-.143-1.468-1.752-1.468-1.752s-.169-.807-.237-1.207l-.079-.339a.325.325,0,0,1,.177-.367l.043-.02-.209-.525a.3.3,0,0,1,.526-.292l.4.7-.023-.253c-.027-.189,0-.26.118-.326a.271.271,0,0,1,.368.1l.145.249.286.485s-.083-.124-.224-.391.232-.485.4-.19.564,1.01.564,1.01a2,2,0,0,1,.727,2.1l.609,1.435-.109.209-1.254.422Z" fill="#ab845f"/><path d="M58.72,139.067l.023-1.25c-.089-.183-.8-2.139-.8-2.139s.108-.818.178-1.217l.037-.346a.324.324,0,0,1,.288-.288l.049,0-.025-.564a.3.3,0,0,1,.593-.1l.148.794.061-.247c.038-.187.093-.243.221-.267a.27.27,0,0,1,.315.212l.054.284.109.552s-.036-.144-.082-.444a.223.223,0,1,1,.443-.044c.064.334.2,1.14.2,1.14a1.989,1.989,0,0,1-.009,2.217l.1,1.557-.171.161-1.324-.018Z" fill="#ce9c5f"/><polygon points="58.515 167.565 59.413 182.757 62.938 185.193 56.592 185.193 54.413 169.295 58.515 167.565" fill="#09538f"/><polygon points="48.579 173.782 46.464 184.68 49.541 184.68 53.259 174.359 48.579 173.782" fill="#09538f"/><path d="M56.257,152.8l-1.2-3.1-3.228.042,2.789-2.637a1.736,1.736,0,0,0,.37-2.02l-3.4-7.01-2.069.427,2.13,7L46.9,148.914a2.332,2.332,0,0,0-.913,2.43l1.973,8.392a9.824,9.824,0,0,1-.006,4.518L45.567,174.29l.77.174a21.371,21.371,0,0,0,13.836-1.514l-.8-7.319A51.066,51.066,0,0,0,56.257,152.8" fill="#fff"/><path d="M49.967,148.544l-.979.084-.441.86-.075-.22a1.392,1.392,0,0,1,.213-1.3l.407-.528Z" fill="#e6e6e6"/><polygon points="51.592 138.077 53.13 141.187 50.246 141.987 49.523 138.503 51.592 138.077" fill="#e6e6e6"/><path d="M59.374,165.629A51.008,51.008,0,0,0,56.257,152.8l-.274-.709a4.269,4.269,0,0,0-2.017,5.964l1.642,2.987a4.231,4.231,0,0,1,.464,1.323l1.97,11.434a21.4,21.4,0,0,0,2.131-.851Z" fill="#e6e6e6"/><path d="M269.473,223.9H30.527a1.489,1.489,0,0,1,0-2.977H269.473a1.489,1.489,0,0,1,0,2.977" fill="#0063b0" fill-rule="evenodd"/><path d="M142.862,92.866a3.376,3.376,0,0,0-2.587-3.277V71.927h-1.589V89.589a3.37,3.37,0,0,0,0,6.555v20.838h1.589V96.144a3.376,3.376,0,0,0,2.587-3.278" fill="#021760"/><path d="M66.171,197.944l-11.246-6.928,4.069-2.506-1.3-1.774-4.861,3-4.54-2.8-1.614,1.643,3.846,2.276-10.379,6.506-.647,1.747,11.474,7.184-6.21,3.825H48.3l4.443-2.736,4.2,2.736h4.612l-6.627-4.082,11.246-6.927Zm-13.01,7-10.424-6.422,10.424-6.42,10.424,6.42Z" fill="#021760" fill-rule="evenodd"/><polygon points="40.151 197.944 56.768 187.707 56.291 186.934 50.53 190.483 47.328 188.51 47.822 187.707 46.567 186.934 45.596 188.51 49.664 191.016 38.419 197.944 38.419 199.106 49.664 206.033 43.037 210.115 44.768 210.115 50.53 206.566 56.291 210.115 58.023 210.115 40.151 199.106 40.151 197.944" fill="#09538f" fill-rule="evenodd"/><path d="M38,216.615H35.692a3.645,3.645,0,0,0,0,7.29H38a3.645,3.645,0,1,0,0-7.29" fill="#021760" fill-rule="evenodd"/><path d="M167.594,170.758v1.166l-19.508,11.033-20-11.312-.044.075v-.962H125.66v.984l-19.83,11.215L85.891,171.681v-.923H83.51v50.17h2.381v-.037l19.939-11.275,19.83,11.215v.1h2.381v-.075l.044.075,20-11.312,19.508,11.032v.28h2.382v-50.17Zm0,3.716V193.99l-17.253-9.758Zm-21.762,9.758-17.791,10.062V174.171Zm-20.172-9.94v19.88l-17.577-9.94Zm-22.085,9.94-17.684,10v-20ZM85.891,218.341v-20l17.684,10Zm.879-22.054,19.06-10.78,19.059,10.78L105.83,207.065Zm21.313,12.054,17.577-9.94v19.88ZM128.041,218.4V198.279l17.791,10.062Zm.986-22.115,19.059-10.78,19.06,10.78-19.06,10.778Zm21.314,12.054,17.253-9.758V218.1Z" fill="#09538f"/><path d="M119.415,140.615a2.861,2.861,0,0,0-2.067-2.064v-3.086a5.588,5.588,0,0,1,3.477,1.684,6.03,6.03,0,0,1,1.693,3.466Zm1.41,4.953a6.062,6.062,0,0,1-3.477,1.69v-3.092a2.868,2.868,0,0,0,2.067-2.058h3.1a6.04,6.04,0,0,1-1.693,3.46m-5.459-4.3a1.248,1.248,0,0,1,1.232-1.215,1.162,1.162,0,0,1,1.126,1.215,1.083,1.083,0,0,1-1.126,1.12,1.171,1.171,0,0,1-1.232-1.12m.376,5.988a6.1,6.1,0,0,1-3.384-1.69,5.515,5.515,0,0,1-1.69-3.46h3.1a2.921,2.921,0,0,0,1.974,2.058Zm-3.384-10.109a5.6,5.6,0,0,1,3.384-1.684v3.086a2.91,2.91,0,0,0-1.974,2.064h-3.1a5.508,5.508,0,0,1,1.69-3.466m13.731,5.054v-1.775h-1.222c-.095-.469-.188-1.039-.284-1.5l1.131-.469-.659-1.68-1.223.56a5.085,5.085,0,0,0-.847-1.31l.943-.934-1.223-1.216-.939.937a8.725,8.725,0,0,0-1.221-.75l.467-1.314-1.6-.655-.469,1.308a4.281,4.281,0,0,0-1.5-.279v-1.4h-1.792v1.4a3.776,3.776,0,0,0-1.41.279l-.471-1.308-1.69.655.564,1.314a5.288,5.288,0,0,0-1.223.75l-1.035-.937-1.222,1.216.943.934a14.242,14.242,0,0,1-.847,1.215l-1.223-.465-.659,1.588,1.222.561a4.251,4.251,0,0,0-.28,1.5H107V142.2h1.317a7.069,7.069,0,0,0,.189,1.4l-1.131.465.659,1.588,1.127-.465c.283.465.566.94.847,1.317l-.847.838,1.222,1.216.848-.842a5.237,5.237,0,0,0,1.314.842l-.468,1.121,1.6.654.469-1.028c.471.095,1.034.187,1.5.281v1.121h1.792v-1.121c.564-.094,1.034-.186,1.5-.281l.469,1.028,1.6-.654-.467-1.026a6.825,6.825,0,0,0,1.313-.937l.847.842,1.223-1.216-.847-.838a4.011,4.011,0,0,0,.847-1.317l1.127.465.659-1.588-1.131-.465c.1-.469.189-.937.284-1.4Z" fill="#021760"/><path d="M105.591,157.917a2.1,2.1,0,1,1,0-4.2,2.1,2.1,0,0,1,0,4.2m8.648-.278-2.162-2.149,1.879-2.431-2.912-.747.47-3.092-3.007.842-1.13-2.9-2.162,2.149-2.355-1.868-.847,2.9-3.008-.469.752,3-2.82,1.12,2.16,2.149-1.973,2.345,3.008.842-.468,2.991,2.913-.75,1.127,2.9,2.17-2.244,2.445,1.962.751-2.99,3.1.56-.844-2.988Z" fill="#021760"/><path d="M132.111,158.86a4.688,4.688,0,0,1-3.195-5.8,4.639,4.639,0,0,1,8.928,2.522,4.67,4.67,0,0,1-5.733,3.278m12.321-3.652-1.785-.56a9.607,9.607,0,0,0-.379-2.811l1.6-.841a1.393,1.393,0,0,0,.566-1.963l-.754-1.31a1.4,1.4,0,0,0-1.878-.56l-1.6.934a8.213,8.213,0,0,0-2.263-1.776l.468-1.782a1.333,1.333,0,0,0-.939-1.684l-1.5-.465a1.583,1.583,0,0,0-1.786.933l-.471,1.776a9.8,9.8,0,0,0-2.82.374l-.939-1.589a1.382,1.382,0,0,0-1.881-.561l-1.324.747a1.315,1.315,0,0,0-.564,1.871l.949,1.69a6.52,6.52,0,0,0-1.792,2.149l-1.786-.468a1.345,1.345,0,0,0-1.693.937l-.471,1.588a1.383,1.383,0,0,0,.942,1.69l1.786.466a9.53,9.53,0,0,0,.376,2.8l-1.6.933a1.4,1.4,0,0,0-.563,1.877l.751,1.4a1.372,1.372,0,0,0,1.878.468l1.693-.842a8.059,8.059,0,0,0,2.171,1.684l-.471,1.776a1.482,1.482,0,0,0,.939,1.781l1.5.373a1.491,1.491,0,0,0,1.786-.933l.468-1.785a9.687,9.687,0,0,0,2.82-.374l.939,1.691a1.382,1.382,0,0,0,1.887.468l1.319-.757a1.311,1.311,0,0,0,.563-1.867l-.847-1.588a10.081,10.081,0,0,0,1.693-2.245l1.786.469a1.343,1.343,0,0,0,1.69-.943l.472-1.494a1.338,1.338,0,0,0-.94-1.684" fill="#021760"/><path d="M156.75,153.528l-1.785-1.786a1.3,1.3,0,0,0,.187-.56h2.537a4.291,4.291,0,0,1-.939,2.346m-3.1,1.867v-2.617c.188,0,.28-.093.376-.093l1.785,1.777a5.108,5.108,0,0,1-2.161.933m-3.759-.933,1.785-1.777c.189.093.376.093.564.187V155.4a5.193,5.193,0,0,1-2.349-.933m-.856-.934A5.313,5.313,0,0,1,148,151.182h2.543l.283.56Zm0-5.9,1.8,1.775a.688.688,0,0,0-.188.373H148.1a4.021,4.021,0,0,1,.939-2.148m3.205-1.877v2.531c-.188.092-.375.092-.564.187l-1.785-1.775a5.14,5.14,0,0,1,2.349-.943m1.41,5.427a1.028,1.028,0,0,1-1.41,0,.9.9,0,0,1,0-1.31,1.028,1.028,0,0,1,1.41,0,.9.9,0,0,1,0,1.31m2.161-4.484-1.785,1.775c-.1,0-.188-.1-.376-.187v-2.531a5.056,5.056,0,0,1,2.161.943m.939.934a4.834,4.834,0,0,1,.939,2.148h-2.537c-.092-.095-.092-.281-.187-.373Zm3.947,3.55v-1.4h-1.031q-.144-.559-.284-1.12l1.035-.468-.563-1.307-1.035.465a3.823,3.823,0,0,0-.659-1.029l.752-.753-.94-1.029-.846.747c-.28-.187-.656-.465-.939-.655l.375-1.026-1.314-.56-.376,1.026a5.637,5.637,0,0,0-1.222-.187v-1.12h-1.41v1.12a5.618,5.618,0,0,0-1.222.187l-.376-1.026-1.323.56.375,1.026a7.454,7.454,0,0,0-1.127.655l-.658-.747-1.036,1.029.755.753a5.6,5.6,0,0,0-.659.937l-.939-.373-.567,1.307.943.373a5.823,5.823,0,0,0-.284,1.215h-.938v1.4h.938a4.888,4.888,0,0,0,.188,1.222l-.847.374.567,1.31.843-.282a7.171,7.171,0,0,0,.755,1.029l-.755.655,1.036,1.025.658-.652c.375.187.752.466,1.127.652l-.375.842,1.323.56.376-.838a4.84,4.84,0,0,0,1.222.186v1.026h1.41v-1.026a2.915,2.915,0,0,0,1.222-.281l.376.933,1.314-.56-.375-.934a8.031,8.031,0,0,0,.939-.56l.751.652,1.035-.933-.752-.747c.284-.373.471-.747.752-1.12l.942.464.563-1.307-1.035-.468c.093-.38.188-.753.284-1.222Z" fill="#021760"/><path d="M77.718,162.125a8.632,8.632,0,0,0,8.633,8.632h82.64a10.143,10.143,0,0,0,10.087-9.073H77.741c-.008.147-.023.292-.023.441" fill="#fff"/><path d="M168.992,128.317a10.106,10.106,0,0,0-3.506.623,25.537,25.537,0,1,0-50.234-8.69,15.633,15.633,0,0,0-24.73,12.165,8.623,8.623,0,0,0-12.781,7.116H179.078a10.14,10.14,0,0,0-10.086-11.214" fill="#fff"/><polygon points="241.152 192.939 241.152 184.942 246.565 176.109 238.775 176.109 233.862 183.313 233.862 192.939 241.152 192.939" fill="#459bdd" fill-rule="evenodd"/><rect x="160.31" y="62.564" width="5.699" height="61.611" transform="translate(-18.233 142.719) rotate(-45)" fill="#021760"/><rect x="164.114" y="61.041" width="1.265" height="61.557" transform="translate(-16.696 143.308) rotate(-44.975)" fill="#09538f"/><rect x="137.864" y="69.757" width="5.699" height="2.332" transform="translate(-8.936 120.272) rotate(-45)" fill="#ed8422"/><polygon points="222.66 147.778 217.568 152.869 179.405 114.706 179.787 112.118 182.342 109.538 184.497 109.614 222.66 147.778" fill="#021760" fill-rule="evenodd"/><polygon points="222.66 147.778 221.531 148.908 181.718 109.095 184.497 109.614 222.66 147.778" fill="#09538f" fill-rule="evenodd"/><rect x="177.526" y="110.17" width="7.201" height="2.332" transform="translate(-25.676 160.685) rotate(-45)" fill="#ed8422"/><polygon points="242.132 168.229 242.771 165.589 219.683 142.501 212.292 149.892 235.38 172.979 256.333 193.932 262.084 188.182 242.132 168.229" fill="#df6c47" fill-rule="evenodd"/><polygon points="254.483 180.581 218.043 144.141 219.683 142.501 256.095 178.914 254.483 180.581" fill="#ed8422" fill-rule="evenodd"/><rect x="211.487" y="145.756" width="10.452" height="2.332" transform="translate(-40.416 196.271) rotate(-45)" fill="#021760"/><path d="M236.994,176.79l-1.752,2.137a14.126,14.126,0,0,0-3.2,8.955v9.182h25.651V175.213H240.324a4.3,4.3,0,0,0-3.33,1.577m12.035,15.236h-14.8v-5.314a9.893,9.893,0,0,1,2.2-6.221l2.126-2.626a2.345,2.345,0,0,1,1.822-.87h8.653Z" fill="#ed8422" fill-rule="evenodd"/><path d="M256.1,185.444h-8.344a2.03,2.03,0,0,0-2.031,2.03v4.811h8.344v-4.811a2.031,2.031,0,0,1,2.031-2.03" fill="#09538f"/><path d="M256.1,185.444a2.031,2.031,0,0,0-2.031,2.03v4.811h3.309v-6.841Z" fill="#021760"/><path d="M190.146,176.109h6.226v17.667h-11.64V181.523a5.414,5.414,0,0,1,5.414-5.414" fill="#459bdd" fill-rule="evenodd"/><path d="M270.121,210.617h-.062V203.1h-9.547v-6.034H241.726V203.1h-78.42v10.026h7.926a8.484,8.484,0,0,0-.362,2.459,8.232,8.232,0,0,0,7.86,8.308v.007h.157c.039,0,.077.006.116.006s.077,0,.116-.006H182.5c.039,0,.076.006.116.006a7.968,7.968,0,0,0,4.711-1.547,7.963,7.963,0,0,0,4.711,1.547,8.228,8.228,0,0,0,8.133-8.321c0-.272-.015-.54-.039-.805h31.126c-.025.265-.039.533-.039.805a8.231,8.231,0,0,0,7.86,8.308v.007h.157c.039,0,.077.006.116.006s.077,0,.115-.006h3.377c.039,0,.077.006.116.006a7.963,7.963,0,0,0,4.711-1.547,7.967,7.967,0,0,0,4.712,1.547,8.229,8.229,0,0,0,8.133-8.321c0-.272-.016-.54-.04-.805h9.649a.9.9,0,0,0,.841-.831v-2.081c0-.832-.421-1.249-.841-1.249" fill="#021760"/><polygon points="214.708 176.752 200.273 176.109 200.273 193.776 214.708 193.776 214.708 176.752" fill="#ed8422" fill-rule="evenodd"/><path d="M199.491,177.062h12.682v-1.849H189.937a6.367,6.367,0,0,0-6.367,6.364l-.007,10.87c-3.223.4-20.133,3.148-21.1,9h-.047v7.908a1.313,1.313,0,0,0,1.313,1.313h10.944v-7.877h25.6V192.5h-4.821V181.106a4.046,4.046,0,0,1,4.039-4.044M185.578,192.5V181.106a4.047,4.047,0,0,1,4.047-4.045h5.7a6.347,6.347,0,0,0-1.884,4.516l-.006,10.922Z" fill="#ed8422" fill-rule="evenodd"/><path d="M201.365,175.213A6.367,6.367,0,0,0,195,181.577l-.007,10.87c-3.317.413-21.147,3.312-21.147,9.523v7.453a1.532,1.532,0,0,0,.829,1.242h7.379a10.588,10.588,0,0,1,18.763,0h14.08a2.074,2.074,0,0,0,2.073-2.074V177.224a2.011,2.011,0,0,0-2.012-2.011ZM212.041,192.5H197.005V181.106a4.045,4.045,0,0,1,4.044-4.044h10.992Z" fill="#edac28" fill-rule="evenodd"/><path d="M169.884,204.677H165.75a.489.489,0,1,1,0-.977h4.134a.489.489,0,1,1,0,.977" fill="#df6c47" fill-rule="evenodd"/><path d="M169.884,206.394H165.75a.489.489,0,1,1,0-.977h4.134a.489.489,0,1,1,0,.977" fill="#df6c47" fill-rule="evenodd"/><path d="M169.884,208.111H165.75a.489.489,0,1,1,0-.978h4.134a.489.489,0,1,1,0,.978" fill="#df6c47" fill-rule="evenodd"/><path d="M164.678,204.63a.931.931,0,1,1-.93-.93.93.93,0,0,1,.93.93" fill="#fff" fill-rule="evenodd"/><path d="M172.816,204.63a.93.93,0,1,1-.93-.93.93.93,0,0,1,.93.93" fill="#fff" fill-rule="evenodd"/><path d="M183.9,215.583a8.229,8.229,0,0,1,8.133-8.323h-3.609a8.323,8.323,0,0,0-.272,16.63v.009h.157c.039,0,.077,0,.115,0s.077,0,.116,0h3.377a8.23,8.23,0,0,1-8.017-8.316" fill="#09538f"/><path d="M187.7,215.583a4.339,4.339,0,1,1,4.339,4.439,4.389,4.389,0,0,1-4.339-4.439" fill="#09538f"/><path d="M172.9,215.128v-2.08c0-.832.42-1.248.841-1.248H162.461c-.421,0-.841.416-.841,1.248v2.08a.9.9,0,0,0,.841.833h11.277a.9.9,0,0,1-.841-.833" fill="#09538f" fill-rule="evenodd"/><path d="M244.246,215.583a8.229,8.229,0,0,1,8.133-8.323H248.77a8.323,8.323,0,0,0-.273,16.63v.009h.157c.039,0,.077,0,.116,0s.077,0,.116,0h3.376a8.229,8.229,0,0,1-8.016-8.316" fill="#09538f"/><path d="M248.04,215.583a4.34,4.34,0,1,1,4.339,4.439,4.39,4.39,0,0,1-4.339-4.439" fill="#09538f"/><rect x="206.685" y="194.704" width="5.012" height="1.704" fill="#ed8422"/><path d="M208.715,185.657H200.37a2.03,2.03,0,0,0-2.03,2.03V192.5h8.345v-4.811a2.03,2.03,0,0,1,2.03-2.03" fill="#09538f"/><path d="M208.715,185.657a2.03,2.03,0,0,0-2.03,2.03V192.5h3.308v-6.841Z" fill="#021760"/><path d="M245.5,176.69l-1.834,2.237a14.125,14.125,0,0,0-3.2,8.955v9.182H269.35V178.545a3.332,3.332,0,0,0-3.332-3.332h-17.4a4.03,4.03,0,0,0-3.118,1.477m11.692,15.336H242.463v-5.008a9.237,9.237,0,0,1,2.079-5.837l2.617-3.207a2.346,2.346,0,0,1,1.817-.862h8.212Z" fill="#edac28" fill-rule="evenodd"/><rect x="41.781" y="209.568" width="28.431" height="7.047" fill="#edac28"/><rect x="32.048" y="209.568" width="9.733" height="7.047" fill="#ed8422"/><rect x="41.781" y="185.439" width="28.431" height="3.524" fill="#edac28"/><rect x="32.048" y="185.439" width="9.733" height="3.524" fill="#ed8422"/><path d="M46.183,220.26a3.636,3.636,0,0,0-1.335-2.819v-.826H42.539a3.645,3.645,0,0,0,0,7.29h2.309v-.826a3.636,3.636,0,0,0,1.335-2.819" fill="#09538f" fill-rule="evenodd"/><path d="M48.492,220.26a3.645,3.645,0,1,0-3.644,3.645,3.644,3.644,0,0,0,3.644-3.645" fill="#021760" fill-rule="evenodd"/><path d="M46.286,220.26a1.438,1.438,0,1,0-1.438,1.438,1.438,1.438,0,0,0,1.438-1.438" fill="#09538f" fill-rule="evenodd"/><path d="M63.365,220.26a3.646,3.646,0,0,0-3.645-3.645H57.411a3.645,3.645,0,0,0,0,7.29H59.72a3.645,3.645,0,0,0,3.645-3.645" fill="#021760" fill-rule="evenodd"/><path d="M67.9,220.26a3.634,3.634,0,0,0-1.336-2.819v-.826H64.258a3.645,3.645,0,0,0,0,7.29h2.309v-.826A3.634,3.634,0,0,0,67.9,220.26" fill="#09538f" fill-rule="evenodd"/><path d="M70.211,220.26a3.645,3.645,0,1,0-3.644,3.645,3.644,3.644,0,0,0,3.644-3.645" fill="#021760" fill-rule="evenodd"/><path d="M68.005,220.26a1.438,1.438,0,1,0-1.438,1.438,1.438,1.438,0,0,0,1.438-1.438" fill="#09538f" fill-rule="evenodd"/><path d="M67.087,171.548H44.905a3.124,3.124,0,0,0-3.124,3.124v10.767h28.43V174.672a3.124,3.124,0,0,0-3.124-3.124M42.936,184.284v-9.612a1.972,1.972,0,0,1,1.969-1.97H46.4v11.582ZM47.553,172.7h4.619v11.582H47.553Zm5.773,0h4.618v11.582H53.326Zm5.773,0h4.618v11.582H59.1Zm9.958,11.582H64.872V172.7h2.215a1.973,1.973,0,0,1,1.97,1.97Z" fill="#021760"/><path d="M56.252,145.41l-.485-.469a.94.94,0,0,1-.285-.674v-.034a3.581,3.581,0,0,0-3.111-3.612,3.476,3.476,0,0,0-3.823,3.449v1.617a3.478,3.478,0,0,0,3.467,3.467h1.221a2.252,2.252,0,0,0,2.246-2.245V146.2h.449a.461.461,0,0,0,.321-.792" fill="#ce9c5f"/><path d="M54.25,144.7a.4.4,0,1,0,.4-.4.395.395,0,0,0-.4.4" fill="#665042"/><path d="M53.948,149.2l-1-.487a3.049,3.049,0,0,0-1.636-.292l-2.025.2-.049,1.611h3.9Z" fill="#fff"/><path d="M54.668,140.447l-1.49-1.008v.794l-2.043-.384.193.48a3.965,3.965,0,0,0-3.358,4.243l.016.957a4.24,4.24,0,0,0,1.865,2.989l.107.081,1.722-1.463a5.478,5.478,0,0,0,1.093-1.206h-.129a1.029,1.029,0,0,1-1.028-1.028v-.318a.649.649,0,0,1,1.3,0v1.1a2.176,2.176,0,0,0,.264-.959l.02-1.031-.76-.49a.643.643,0,0,1,.05-.942l.225-.186a.643.643,0,0,1,.515-.14l1.73.289.036-.053a1.238,1.238,0,0,0-.326-1.728"/><path d="M53.821,144.2a.193.193,0,0,1-.128-.336,1.674,1.674,0,0,1,1.411-.4.193.193,0,0,1,.155.224.2.2,0,0,1-.224.155,1.281,1.281,0,0,0-1.085.305.187.187,0,0,1-.129.05"/><path d="M55.486,146.537H54.6s.167.44.516.44.367-.006.367-.006Z" fill="#ab845f"/><path d="M53.708,149.1l-1.461.579a2.179,2.179,0,0,1-1.152.128l-1.426-.226,1.641-1.164s.763-.342,2.4.683" fill="#e6e6e6"/><path d="M61.781,146.79l-.816-8.47-2.374.427-.243,8.033-3.332,1.7-.215-.155-.444.456-.361-.2-1.3.973.061.079-1.107.562,3.287,2.557,5.6-3.459a2.637,2.637,0,0,0,1.239-2.5" fill="#fff"/><polygon points="58.347 146.78 59.413 146.283 58.387 144.969 58.347 146.78" fill="#e6e6e6"/><path d="M60.6,139.151a.305.305,0,1,1-.3-.3.3.3,0,0,1,.3.3" fill="#e6e6e6"/><path d="M55.759,151.763l.577-2.4s-1.6.513-.577,2.4" fill="#e6e6e6"/></svg>