<svg xmlns="http://www.w3.org/2000/svg" viewBox="0 0 300 300"><title>MSC17-data-006</title><path d="M300,0V300H0V0Z" fill="#e26c41"/><path d="M203.982,57.612,218.424,43.17a2.78,2.78,0,1,0-3.931-3.932L200.072,53.66a71.192,71.192,0,1,0,3.91,3.952" fill="#ed8422"/><path d="M198.28,105.7a46.905,46.905,0,1,1-46.9-46.9A46.906,46.906,0,0,1,198.28,105.7" fill="#fda84c"/><path d="M87.553,108.767H76.744a2.78,2.78,0,1,1,0-5.56H87.553a2.78,2.78,0,1,1,0,5.56" fill="#fda84c"/><path d="M54.891,108.767H50.8a2.78,2.78,0,1,1,0-5.56h4.091a2.78,2.78,0,1,1,0,5.56" fill="#fda84c"/><path d="M155.943,280.6c1.069-3.514-1.3-4.583-2.062-4.812s-5.806,7.791-5.806,7.791l5.73-1.375Z" fill="#d2d2d2"/><path d="M181.115,226.282l-4.552-12.844-5.377-2.642-5.755-4.088a.968.968,0,0,0-1.432.366,5.755,5.755,0,0,0-.246,4.412c1.593,1.026,4.9,2.941,7.315,2.886-.538,2.15.134,4.978.781,6.954l-9.031-4.893-9.628-3.61a1.244,1.244,0,0,0-1.658.922l-.125.621a6.287,6.287,0,0,0,3.479,6.916l11.6,6.3-1.456,12.359a15.231,15.231,0,0,0-5.449,5.428,2.068,2.068,0,0,1-2.817.744l-6.38-3.554a5.885,5.885,0,0,1-2.885-5.937l1.456-10.108,1.482-4.462a3.831,3.831,0,0,0-2.427-4.844,3.163,3.163,0,0,0-3.664,1.3l-4.137,6.478-3.819,16.806-2.9,5.1a39.349,39.349,0,0,0-4.79,24.72l1.276,9.441,17.721,14.666,3.667-14.666,7.754-14.457a37.338,37.338,0,0,1,3.26-5.054c3.643-4.753,11.028-14.053,13.511-17.174.543-.683,2.5-2.031,2.537-2.9Z" fill="#f6caa7"/><path d="M151.331,211.982h0a2.634,2.634,0,0,0,1.591,2.737,6.728,6.728,0,0,0,5.618.11c-2.826-1.222-7.209-2.847-7.209-2.847" fill="#fff"/><path d="M164.2,205.507l-.4.963a1.555,1.555,0,0,0,.389,1.742,6.045,6.045,0,0,0,5.728,1.653c-2.555-1.719-5.719-4.358-5.719-4.358" fill="#fff"/><path d="M146.158,150.255a2.433,2.433,0,0,1-2.432-2.433v-9.361l-6.555-2.169a2.433,2.433,0,0,1,1.528-4.619l8.224,2.722a2.433,2.433,0,0,1,1.668,2.309v11.118a2.434,2.434,0,0,1-2.433,2.433" fill="#fff788"/><path d="M155.44,147.686a2.432,2.432,0,0,1-2.432-2.432v-7.036a2.431,2.431,0,0,1,1.156-2.07l2.4-1.48-17.071-5.457a4.621,4.621,0,0,1-3.227-4.418V112.679a3.738,3.738,0,0,0-3.735-3.734H121.57a2.052,2.052,0,0,0-2.051,2.05v4.758a2.053,2.053,0,0,0,2.051,2.051h3.162a2.433,2.433,0,0,1,0,4.865H121.57a6.924,6.924,0,0,1-6.915-6.916V111a6.923,6.923,0,0,1,6.915-6.915h10.961a8.608,8.608,0,0,1,8.6,8.6v11.949l21.955,7.017a2.431,2.431,0,0,1,.535,4.387l-5.747,3.544v5.678a2.433,2.433,0,0,1-2.433,2.432" fill="#fff788"/><path d="M123.805,114.041h7.046a1.089,1.089,0,0,1,1.09,1.09v10.878a1.09,1.09,0,0,1-1.09,1.09H121.72" fill="none" stroke="#fff880" stroke-linecap="round" stroke-linejoin="round" stroke-width="5.405"/><path d="M180.644,129.531h-9.131a3.528,3.528,0,0,1-3.523-3.522V115.13a3.528,3.528,0,0,1,3.523-3.523h7.046a2.433,2.433,0,0,1,0,4.865h-5.7v8.2h7.789a2.432,2.432,0,0,1,0,4.864" fill="#fff788"/><path d="M163.666,129.037a2.457,2.457,0,0,1-.761-.122l-16.7-5.5a2.431,2.431,0,0,1-1.671-2.31V70.289a2.432,2.432,0,0,1,4.864,0v49.056l11.833,3.9V112.679a8.608,8.608,0,0,1,8.6-8.6h10.96A6.923,6.923,0,0,1,187.709,111v4.758a6.924,6.924,0,0,1-6.915,6.916h-3.161a2.433,2.433,0,1,1,0-4.865h3.161a2.052,2.052,0,0,0,2.05-2.051V111a2.052,2.052,0,0,0-2.05-2.05h-10.96a3.739,3.739,0,0,0-3.736,3.734v13.926a2.432,2.432,0,0,1-2.432,2.432" fill="#fff788"/><path d="M155.308,118.577a2.432,2.432,0,0,1-2.432-2.432V70.29a2.432,2.432,0,1,1,4.864,0v45.855a2.432,2.432,0,0,1-2.432,2.432" fill="#fff788"/><path d="M138.7,102.082H119.537a5.323,5.323,0,0,1-5.317-5.316v-1.7a5.323,5.323,0,0,1,5.317-5.316h16.32a.409.409,0,0,0,.409-.409V75.082a41.189,41.189,0,0,0-12.417,7.465h8.092a2.433,2.433,0,1,1,0,4.865H122.78a4.454,4.454,0,0,1-3.023-7.726,45.95,45.95,0,0,1,17.527-10.1l.7-.216A2.432,2.432,0,0,1,141.13,71.7v17.64a5.279,5.279,0,0,1-5.273,5.274h-16.32a.452.452,0,0,0-.452.451v1.7a.453.453,0,0,0,.452.452H138.7a2.432,2.432,0,0,1,0,4.864" fill="#fff788"/><path d="M182.393,102.082H163.231a2.432,2.432,0,0,1,0-4.864h19.162a.452.452,0,0,0,.451-.452v-1.7a.451.451,0,0,0-.451-.451H166.072a5.279,5.279,0,0,1-5.273-5.274V71.7a2.433,2.433,0,0,1,3.149-2.324l.7.215a45.979,45.979,0,0,1,17.528,10.1,4.455,4.455,0,0,1-3.021,7.727h-9.163a2.433,2.433,0,0,1,0-4.865h8.093a41.2,41.2,0,0,0-12.417-7.465V89.338a.409.409,0,0,0,.408.409h16.321a5.322,5.322,0,0,1,5.316,5.316v1.7a5.322,5.322,0,0,1-5.316,5.316" fill="#fff788"/><path d="M153.046,177.338a1.817,1.817,0,1,1-1.816-1.816,1.817,1.817,0,0,1,1.816,1.816" fill="#09538f"/><path d="M153.046,182.5a1.817,1.817,0,1,1-1.816-1.816,1.817,1.817,0,0,1,1.816,1.816" fill="#09538f"/><path d="M153.046,187.652a1.817,1.817,0,1,1-1.816-1.816,1.816,1.816,0,0,1,1.816,1.816" fill="#09538f"/><path d="M153.046,192.809a1.817,1.817,0,1,1-1.816-1.816,1.816,1.816,0,0,1,1.816,1.816" fill="#09538f"/><path d="M153.046,197.967a1.817,1.817,0,1,1-1.816-1.817,1.816,1.816,0,0,1,1.816,1.817" fill="#09538f"/><path d="M153.046,203.124a1.817,1.817,0,1,1-1.816-1.817,1.816,1.816,0,0,1,1.816,1.817" fill="#09538f"/><path d="M153.046,208.281a1.817,1.817,0,1,1-1.816-1.817,1.816,1.816,0,0,1,1.816,1.817" fill="#09538f"/><path d="M153.046,213.438a1.817,1.817,0,1,1-1.816-1.817,1.816,1.816,0,0,1,1.816,1.817" fill="#09538f"/><path d="M136.084,143.91V155.3a9.025,9.025,0,0,0,8.384,9v1.85a4.28,4.28,0,0,0,4.279,4.28h.122v2.36h4.721v-2.36h.122a4.28,4.28,0,0,0,4.279-4.28V164.3a9.025,9.025,0,0,0,8.384-9V143.91Z" fill="#09538f"/><path d="M136.135,146.493v2.085h13.277v15.755h-4.944v1.818h13.523v-1.818h-.359a8.742,8.742,0,0,0,8.743-8.742v-9.1Z" fill="#021760"/><path d="M151.229,221.935a1.8,1.8,0,0,0-.82.2c-.231.722-.536,1.631-.8,2.417a1.814,1.814,0,1,0,1.622-2.621" fill="#09538f"/><path d="M151.229,216.778a1.81,1.81,0,0,0-1.74,1.324,3.367,3.367,0,0,1,1.134,2.2,1.8,1.8,0,0,0,.606.112,1.818,1.818,0,0,0,0-3.635" fill="#09538f"/><path d="M146.8,216.327a5.272,5.272,0,0,1,3.452,1.284c-.133.368-1.064,3.857-1.181,4.169a2.326,2.326,0,1,1-4.349-1.65Z" fill="#fff"/><path d="M163.753,211.486a5.743,5.743,0,0,0,1.692,2.5l3.942,3.367.547,2.938,1.914,1.038a16.658,16.658,0,0,1,.1-7.634,19.3,19.3,0,0,1-8.191-2.206" fill="#deb695"/><path d="M181.926,227.538l-1.109-10.4-8.09-9.047-.609.761a4.908,4.908,0,0,0-.932,1.942l-5.755-4.088,10.678,7.586,3.973,11.611.011,1.169a5.031,5.031,0,0,1-4.4-.187l1.084,15.092v.012a1.778,1.778,0,0,1-.949,1.45l-8.832,4.86a56.41,56.41,0,0,0-26.1,30.929l-.686,1.978-1.222,5.195,10.739,1.194,1.635-6.541,7.754-14.457a37.232,37.232,0,0,1,3.26-5.053c2.761-3.6,7.669-9.814,10.966-13.971l4.894-3.671a4.937,4.937,0,0,0,1.977-4l-.04-4.3Z" fill="#deb695"/><path d="M175.446,211.064l-3.039-3.473-.232.391a1.668,1.668,0,0,0,.327,2.089,3.47,3.47,0,0,0,2.944.993" fill="#fff"/><path d="M116.833,281.82s9.32-5.041,16.194-3.056S150.9,283.5,155.943,280.6c-2.6,8.555-5.652,19.4-5.652,19.4H115.917Z" fill="#fff"/><rect x="123.021" y="284.036" width="6.875" height="2.75" transform="translate(-185.709 286.934) rotate(-66.383)" fill="#b2b2b2"/></svg>