<svg xmlns="http://www.w3.org/2000/svg" viewBox="0 0 636 300"><title>MSC17-business-014</title><path d="M636,0V300H0V0Z" fill="#d2d2d2"/><path d="M293.308,144.068l-15.08-12.7a31.44,31.44,0,0,1-11.188-24.049V80.372a42.433,42.433,0,0,1,42.309-42.309h4.722a42.434,42.434,0,0,1,42.31,42.309v27.493a31.438,31.438,0,0,1-10.512,23.46L332.1,143.609a20.707,20.707,0,0,1-13.658,5.254l-11.665.072a20.717,20.717,0,0,1-13.466-4.867" fill="#665042"/><path d="M355.815,73.531h-4.153l.56-17.35-9.808-4.808s-5.192-2.115-15.192.577c3.269,7.5,2.5,20.769,2.5,20.769l.947.812H267.605a42.189,42.189,0,0,0-.565,6.842v26.95a31.422,31.422,0,0,0,8.24,21.2,33.99,33.99,0,0,0,33.426-38.91h4.518a4.342,4.342,0,0,1,4.341,4.34c0,8.122,2.068,14.137,3.294,20.08a3.386,3.386,0,0,1-3.311,4.078h-4.281a2.414,2.414,0,0,0-2.345,2.987s4.644,4.093,4.644,6.812v5.929a9.8,9.8,0,0,0-10.375,4.968h10.375v5.258a7.216,7.216,0,0,1-1.846,4.826l-6.946.042a20.713,20.713,0,0,1-13.465-4.866l-8.368-7.046v23.165H338.48V137.916l7.389-6.591a31.434,31.434,0,0,0,10.512-23.46V80.373a42.077,42.077,0,0,0-.566-6.842" fill="#4f3e33"/><path d="M311.739,19.741c-36.857,0-51.77,27.3-51.77,59.791h8.538l4.715-16.7a11.757,11.757,0,0,1,13.859-8.284l1.824.405a104.538,104.538,0,0,0,45.593-.074l.818-.184a11.757,11.757,0,0,1,14.019,8.746l4.041,16.973,9.166-.164V72.7c0-29.249-22.745-52.96-50.8-52.96"/><path d="M297.873,123.042a20.654,20.654,0,0,0,33.083,0Z" fill="#fff"/><path d="M301.209,95.989h-7.256l-18.573,6.735-.6-.453c-5.271-3.955-11.674-8.488-17.669-7.119l2.081-9.34,16.191-14.8,8.846-.816a6.259,6.259,0,0,0,5.681-6.231V62.575l-6.074.545a4.344,4.344,0,0,0,.033-1.79l-.462-2.338-15.319,2.53L252.621,68.1l-11.063,12.13a3.949,3.949,0,0,0-1.022,2.4l-1.6,24.617L225.6,122.724,247.563,139.2l11.042-16.186,2.228.177c8.586.682,22.472-5.268,26.473-12.894l7.948-6.5,11.172-.714v-1.872a5.217,5.217,0,0,0-5.217-5.217" fill="#72594b"/><polygon points="244.641 146.665 251.783 136.248 224.209 116.499 215.617 127.353 242.934 147.744 244.641 146.665" fill="#00b294"/><path d="M246.693,139.025a2.778,2.778,0,1,0-2.777,2.777,2.777,2.777,0,0,0,2.777-2.777" fill="#12856f"/><path d="M384.124,107.243l-1.6-24.617a3.942,3.942,0,0,0-1.021-2.4L370.436,68.1l-15.463-6.574-15.32-2.53-.463,2.338a4.344,4.344,0,0,0,.035,1.79l-6.075-.545v1.386a6.258,6.258,0,0,0,5.682,6.231l8.845.816.559-2.211,6.545,2.626,11.3,9.683a4.973,4.973,0,0,1,1.649,4.706l-1.779,9.34c-6-1.369-12.4,3.164-17.67,7.119l-.6.453L329.1,95.988h-7.255a5.218,5.218,0,0,0-5.219,5.218v1.872l11.173.714,7.949,6.5c4.154,7.919,14.845,13.818,23.759,13.11a8.544,8.544,0,0,1,7.735,3.7l8.248,12.091,21.967-16.475Z" fill="#665042"/><path d="M350.075,111.984,358.85,115a16.5,16.5,0,0,0,18.473-25.609l-4.493-5.883Z" fill="#4f3e33"/><polygon points="376.411 151.22 369.27 140.802 396.844 121.053 405.436 131.908 378.119 152.298 376.411 151.22" fill="#00b294"/><path d="M375.791,142.142a2.777,2.777,0,1,1,2.777,2.777,2.776,2.776,0,0,1-2.777-2.777" fill="#12856f"/><path d="M281.765,150.223l-4.5,20.178L311.71,273l34.14-102.6-5.49-20.178-.968.284a100.235,100.235,0,0,1-53.675.755Z" fill="#00b294"/><path d="M305.477,156.975l-5.408,24.018a1.621,1.621,0,0,1-2.14,1.166l-9.593-3.519v2.1l11.619,5.087a2.724,2.724,0,0,0,3.563-1.354l8.038-17.413Z" fill="#12856f"/><path d="M319.268,156.975l5.409,24.018a1.621,1.621,0,0,0,2.14,1.166l9.593-3.519v2.1l-11.619,5.087a2.724,2.724,0,0,1-3.563-1.354l-8.038-17.413Z" fill="#12856f"/><path d="M159.463,57.985a8.613,8.613,0,0,0-6.187,2.613c.029-.4.049-.8.049-1.2a15.862,15.862,0,0,0-29.584-7.958V51.35a23.909,23.909,0,1,0-47.33,4.83,12.844,12.844,0,1,0-11.23,19.079h94.282a8.637,8.637,0,1,0,0-17.274" fill="#f3f3f3"/><path d="M536.437,133.092a9.711,9.711,0,0,0-4.165.943c.015-.313.024-.627.024-.943a19.531,19.531,0,0,0-38.984-1.741,13.326,13.326,0,1,0-10.7,21.274h53.821a9.767,9.767,0,0,0,0-19.533" fill="#f3f3f3"/><path d="M317.544,170.688a3.159,3.159,0,0,0,2.3-3.031V156.894a3.168,3.168,0,0,0-3.169-3.168h-8.025a3.169,3.169,0,0,0-3.17,3.168v10.763a3.159,3.159,0,0,0,1.8,2.843l-7.609,43.074,11.892,51.983L324.8,217.85Z" fill="#282828"/><polygon points="317.565 170.826 306.036 177.502 307.215 170.826 317.565 170.826"/><path d="M404.722,129.066l-31.154,23.461,15.141,17.729-2.728-2.836a17.874,17.874,0,0,0-12.878-5.481h-25.61l-.767-3.826a5.456,5.456,0,0,0-5.35-4.387h-.063s-.354,16.458-5.535,28.9a11.226,11.226,0,0,0-.922,2.859c-11.539,28.717-22.263,65.806-22.263,65.806l-31.779-97.563a4.584,4.584,0,0,0-4.438,3.439l-.74,2.878H254.965a21.722,21.722,0,0,0-15.5,6.507l-3.571,3.639L249.145,150.6,215.3,126.181s-52.583,79.206-52.583,98.269a17.714,17.714,0,0,0,18.353,17.7l50.167-1.933L237.249,300H387.727l6.23-59.7,48.142,1.854a17.714,17.714,0,0,0,18.353-17.7c0-19.063-55.73-95.384-55.73-95.384" fill="#505050"/><rect x="366.352" y="231.358" width="14.465" height="3.249" fill="#505050"/><path d="M358.461,175.513c.218.1,6.924-7.081,6.924-7.081l-3.462,9.746Z" fill="#282828"/><polygon points="265.283 175.419 257.671 167.747 261.478 178.178 265.283 175.419" fill="#282828"/><path d="M148.549,175.446a5.167,5.167,0,0,0-2.493.639,19.181,19.181,0,1,0-35.871-9.453c0,.619.032,1.23.09,1.833a8.978,8.978,0,1,0-3.243,17.35h41.517a5.185,5.185,0,1,0,0-10.369" fill="#f3f3f3"/><path d="M311.055,264.937l-58.074-71.943,7.273,14.664a139.1,139.1,0,0,0,36.677,45.967l14.03,11.448-4.534,6.565,9.227-7.955a158.188,158.188,0,0,0,48.683-75.872Z" fill="#282828"/><path d="M319.346,275.682a4.045,4.045,0,1,1-4.046-4.045,4.045,4.045,0,0,1,4.046,4.045"/><path d="M427.02,228.125l-.431-.083c-8.143-1.544-10.944-6.861-14.541-14.328L400.039,188.78l-10.6-2.092a14.668,14.668,0,0,0-15.6,7.163l-6.713,11.858a70.33,70.33,0,0,1,1.428,36.81L355.322,300h32.4l6.234-59.737,46.233,1.82a16.356,16.356,0,0,0-13.174-13.958m-32.2-1.262s-13.081-14.485,0-25.772Z" fill="#282828"/><path d="M379.421,231.358H354.3l10.125-13.12a1.17,1.17,0,0,1,1.876.033l3.126,4.361,3.338-3.357a1.169,1.169,0,0,1,1.912.385Z" fill="#12856f"/><path d="M203.221,221.1l13.7-7.611a33.314,33.314,0,0,0,16.668-23.571l1-18.4Z" fill="#282828"/><polygon points="231.236 240.219 229.625 222.416 203.222 241.298 231.236 240.219" fill="#282828"/><path d="M296.258,88.291h0a11.829,11.829,0,0,1,13.718-11.678l.048.008,1.686-12.049L305.376,62.9a21.778,21.778,0,0,1-19.592,4.544l-5.791-1.491Z" fill="#d2d2d2"/><path d="M327.162,88.291h0a11.829,11.829,0,0,0-13.719-11.678l-.047.008L311.71,64.572l6.334-1.674a21.778,21.778,0,0,0,19.592,4.544l5.791-1.491Z" fill="#d2d2d2"/><path d="M372.83,88.751a21.558,21.558,0,1,1-21.557-21.557A21.556,21.556,0,0,1,372.83,88.751" fill="#fec94e"/><path d="M351.272,112.861a24.11,24.11,0,1,1,24.111-24.11,24.138,24.138,0,0,1-24.111,24.11m0-43.115a19.005,19.005,0,1,0,19.006,19.005,19.026,19.026,0,0,0-19.006-19.005" fill="#e6e6e6"/><rect x="341.688" y="90.565" width="4.161" height="6.283" fill="#1070c4"/><rect x="347.994" y="83.548" width="4.161" height="13.299" fill="#9c1288"/><rect x="354.3" y="77.787" width="4.161" height="19.061" fill="#df6c47"/><path d="M293.705,88.751a21.558,21.558,0,1,1-21.557-21.557,21.556,21.556,0,0,1,21.557,21.557" fill="#fec94e"/><path d="M293.705,88.751a21.558,21.558,0,1,1-21.557-21.557,21.556,21.556,0,0,1,21.557,21.557" fill="#fec94e"/><path d="M272.216,88.75l-18.263-6A18.832,18.832,0,0,1,272.216,69.57Z" fill="#09538f"/><path d="M272.216,88.75l-18.263,5.9a18.7,18.7,0,0,1,0-11.9Z" fill="#1070c4"/><path d="M272.216,88.75l-11.308,15.5a18.252,18.252,0,0,1-6.955-9.594Z" fill="#fec94e"/><path d="M272.216,88.75l18.172,5.9A19.29,19.29,0,0,1,266.2,107.009a17.073,17.073,0,0,1-5.288-2.763Z" fill="#9c1288"/><path d="M272.216,88.75V69.57a19.118,19.118,0,0,1,19.1,19.18,18.325,18.325,0,0,1-.926,5.9Z" fill="#df6c47"/><path d="M272.147,112.861a24.11,24.11,0,1,1,24.111-24.11,24.138,24.138,0,0,1-24.111,24.11m0-43.115a19.005,19.005,0,1,0,19.006,19.005,19.026,19.026,0,0,0-19.006-19.005" fill="#e6e6e6"/><path d="M320.1,68.4a8.391,8.391,0,1,1-8.391-8.391A8.391,8.391,0,0,1,320.1,68.4" fill="#e6e6e6"/></svg>