<svg xmlns="http://www.w3.org/2000/svg" xmlns:xlink="http://www.w3.org/1999/xlink" viewBox="0 0 300 300"><defs><clipPath id="a"><path d="M145.625,124.644l-1.574,12.625a6.891,6.891,0,0,0,5.35,7.583l13.357,2.957a15.386,15.386,0,0,0-17.133-23.165" fill="none"/></clipPath></defs><title>MSC17-cloud-009</title><path d="M300,0V300H0V0Z" fill="#001363"/><path d="M41.484,108.3a10.428,10.428,0,0,0-6.372,6.762,10.432,10.432,0,0,0-6.373-6.762,10.432,10.432,0,0,0,6.373-6.762,10.428,10.428,0,0,0,6.372,6.762" fill="#fff"/><path d="M245.816,189.307a2.334,2.334,0,1,1-2.334-2.333,2.332,2.332,0,0,1,2.334,2.333" fill="#fff"/><path d="M110.241,54.012a2.334,2.334,0,1,1-2.334-2.334,2.333,2.333,0,0,1,2.334,2.334" fill="#fda84c"/><path d="M281.732,60.454A1.635,1.635,0,1,1,280.1,58.82a1.634,1.634,0,0,1,1.635,1.634" fill="#1070c4"/><path d="M186.236,217.651a1.635,1.635,0,1,1-1.635-1.635,1.636,1.636,0,0,1,1.635,1.635" fill="#3864a3"/><path d="M25.053,186.692a2.334,2.334,0,1,1,1.426,2.977,2.336,2.336,0,0,1-1.426-2.977" fill="#fda84c"/><path d="M9.929,141.393a2.334,2.334,0,1,1,1.426,2.977,2.334,2.334,0,0,1-1.426-2.977" fill="#3864a3"/><path d="M89.3,241.53a2.334,2.334,0,1,1-3.03-1.309,2.334,2.334,0,0,1,3.03,1.309" fill="#3864a3"/><path d="M81.223,78.009a1.635,1.635,0,1,1-2.122-.916,1.636,1.636,0,0,1,2.122.916" fill="#3864a3"/><path d="M138.511,97.272a1.634,1.634,0,1,1-2.121-.916,1.633,1.633,0,0,1,2.121.916" fill="#fff"/><path d="M208.413,158.9a2.334,2.334,0,1,1,2.114-2.536,2.334,2.334,0,0,1-2.114,2.536" fill="#3864a3"/><path d="M224.685,103.644a1.634,1.634,0,1,1,1.479-1.777,1.635,1.635,0,0,1-1.479,1.777" fill="#fda84c"/><path d="M166.3,109.087a1.635,1.635,0,1,1,1.48-1.777,1.636,1.636,0,0,1-1.48,1.777" fill="#3864a3"/><path d="M164.809,193.406a1.635,1.635,0,1,1,.05,2.311,1.633,1.633,0,0,1-.05-2.311" fill="#fff"/><path d="M283.729,118.9a2.334,2.334,0,1,1,3.006-1.362,2.333,2.333,0,0,1-3.006,1.362" fill="#fda84c"/><path d="M266.253,160.159a1.634,1.634,0,1,1-2.3.2,1.634,1.634,0,0,1,2.3-.2" fill="#3864a3"/><path d="M289.621,199.808a1.635,1.635,0,1,1-2.3.2,1.634,1.634,0,0,1,2.3-.2" fill="#fda84c"/><path d="M150.984,247.489a1.635,1.635,0,1,1,1.6-1.664,1.635,1.635,0,0,1-1.6,1.664" fill="#fda84c"/><path d="M243.125,55.46a12.283,12.283,0,0,0-4.257.756,31.01,31.01,0,1,0-61-10.552,18.983,18.983,0,0,0-30.029,14.772A10.483,10.483,0,1,0,142.773,80.1H243.125a12.319,12.319,0,0,0,0-24.637" fill="#fff"/><path d="M237.277,129.772l-.128-1.571a.741.741,0,0,0-.55-.656l-5.527-1.441a.739.739,0,0,0-.8.3l-.879,1.309a.746.746,0,0,1-.806.306l-1.3-.339a2.623,2.623,0,0,0-3.2,1.877l-3.424,13.123,25.719,6.71,3.424-13.124a2.627,2.627,0,0,0-1.878-3.2l-10.095-2.634a.742.742,0,0,1-.553-.659" fill="#fda84c"/><rect x="231.738" y="135.084" width="5.801" height="9.165" transform="translate(40.073 331.255) rotate(-75.321)" fill="#021760"/><path d="M237.08,138.79l-4.14-1.085.824-3.143a2.14,2.14,0,1,1,4.14,1.085Z" fill="none" stroke="#002050" stroke-miterlimit="10" stroke-width="0.855"/><path d="M181.819,138.269l-.352-2.5a9.9,9.9,0,0,1,.513-4.791l.3-.823,3.247-1.207,1.531-2.134,6.169-.463,3.757,1.855-1.087,3.263a17.678,17.678,0,0,1-5.3,7.862l-1.588,1.354Z" fill="#1070c4"/><path d="M192.952,154.164a25.579,25.579,0,0,1-6.238-.889l.369-1.437c5.09,1.3,9.217,1.078,10.513-.579.69-.884.561-2.221-.384-3.974a52.736,52.736,0,0,0-2.979-4.714c-2.687-3.928-5.224-7.638-5.224-13.858h1.484c0,5.76,2.411,9.286,4.965,13.02a53.453,53.453,0,0,1,3.06,4.848c1.559,2.888,1,4.635.248,5.591-1.03,1.318-3.075,1.992-5.814,1.992" fill="#fff"/><rect x="184.316" y="106.201" width="10.877" height="12.138" fill="#d2d2d2"/><rect x="185.982" y="110.676" width="1.49" height="2.075" fill="#939292"/><rect x="191.531" y="110.676" width="1.49" height="2.075" fill="#939292"/><rect x="195.193" y="106.201" width="2.358" height="12.138" fill="#fff"/><path d="M192.959,130.11h-2.21c-2.923,0-5.96-2.369-5.96-5.291l9.92-8.14h3.541v8.14a5.291,5.291,0,0,1-5.291,5.291" fill="#d2d2d2"/><path d="M194.709,124.819v-8.14h-11.2v8.14a5.291,5.291,0,0,0,5.291,5.291h.614a5.291,5.291,0,0,0,5.292-5.291" fill="#939292"/><path d="M116.537,174.605a4.054,4.054,0,0,1-3.063-5.432l9.684-25.417a6.648,6.648,0,0,1,7.635-4.007l19.212,4.338-13.639,34.13Z" fill="#1066b0"/><path d="M181.137,137.818,174.6,154.635l-16.912-1.61-9.682-2.8s-10.3-2.2-15.665-2.036c-.34.011-.665.028-.977.052l-21.033.026a7.356,7.356,0,0,0-7.155,5.93l-4.019,20.337,7.995.587,5.012-14.314,9.579-.646-1.942,5.523-5.7,16.783.262,1.2-11.42,25.765-14.447.279-2.775,5.364,17.8,7.063c5.28,1.246,7.892-.817,10.592-4.163l10.712-15.475,10.626,15.48-10.8,15.854,4.63,4.4,17.915-12.762a7.138,7.138,0,0,0,2.033-7.939l-6.9-22.174a6.677,6.677,0,0,1-.222-3.743l.423-1.84a89.882,89.882,0,0,0,14.97-23.847l19.221.181a8.644,8.644,0,0,0,8.369-6.181l3.69-14.85Z" fill="#459bdd"/><path d="M174.909,156.748l1.633,5.206-14.068-.222c.73-1.513,3.739-7.109,8.222-7.468l-3.206-.323c-4.042,1.606-6.356,6.337-6.964,7.76l-1.427-.022-1.643,4.368,21.776.349a4.474,4.474,0,0,0,4.487-2.774c.488-1.138,1.06-2.766,1.142-2.984-2.313-5.023-9.952-3.89-9.952-3.89" fill="#1070c4"/><path d="M128.952,243.761l1.2-5.047L144.071,227.7c-7.525-1.569-8.623-9.721-8.623-9.721l-12.686,14.7-5.373,4.244a2.406,2.406,0,0,0-.364,3.418l6.356,10.5a3.288,3.288,0,0,0,2.405,1.56l3.753.465c1.493-.989,1.606-2.494,1.041-4.194Z" fill="#1066b0"/><polygon points="181.137 137.818 190.156 140.105 188.78 145.075 179.363 142.122 181.137 137.818" fill="#1066b0"/><path d="M129.83,158.582l-17.364-.3c-.247-4.514-5.576-4.374-5.576-4.374l5.269,6.9h0l9.41-.363c-.344.869-1.131,2.94-1.774,5.238a15.409,15.409,0,0,0,8.924-5.515h0Z" fill="#1070c4"/><path d="M143.369,197.465a1.082,1.082,0,0,0-1.525-.606l-3.124,1.635a3.057,3.057,0,0,0-1.407,3.864l3.446,8.42a3.056,3.056,0,0,0,3.414,1.842l2.909-.668a1.081,1.081,0,0,0,.781-1.406Z" fill="#1070c4"/><path d="M102.936,209.425l-16.379-1.867-3.351-1.813a3.537,3.537,0,0,0-5.13,2.313l-3.6,15.574,1.5-.446c1.69.591,2.6-.405,3.611-1.881l2.338-3.466,4.81-2.409c4.41,1.485,11.737,5.093,16.782,6.7a15.832,15.832,0,0,1-.582-12.709" fill="#1066b0"/><path d="M115.024,214.833,110.9,212.45a2.3,2.3,0,0,1-.838-3.157l5.5-9.421a2.3,2.3,0,0,1,3.119-.845l4.612,2.6a2.255,2.255,0,0,1,.785,3.193l-6.035,9.293a2.255,2.255,0,0,1-3.018.724" fill="#1070c4"/><path d="M144.327,186.362c-1.827-.323-5.3-.893-9.487-1.919,8.513-11.549,13.358-29.612,13.407-29.8l-1.436-.38c-.048.186-4.963,18.5-13.528,29.781a64.749,64.749,0,0,1-17.135-6.917,1.23,1.23,0,0,0-1.813.853c-.315,1.618-.734,3.75-1,5.081a1.817,1.817,0,0,0,.884,1.935,67.954,67.954,0,0,0,16.815,6.441c-1.365,4.1-3.453,8.958-6.189,11.2l.939,1.149c3.05-2.5,5.289-7.706,6.715-12.017a55.566,55.566,0,0,0,8.91,1.185,1.518,1.518,0,0,0,1.418-.822c.514-1,1.552-2.863,2.272-4.147a1.1,1.1,0,0,0-.776-1.623" fill="#1066b0"/><path d="M85.467,209.471s-2.625,1.517-1.6,4a6.133,6.133,0,0,0-4.377,4.14l-.9,2.787a3.145,3.145,0,0,1-3.4,2.15l-.441-.058-.27,1.141.988.346a3.968,3.968,0,0,0,4.582-1.5l2.924-4.26,3.734-1.65c4.409,1.487,11.772,3.953,16.817,5.563-1.508-1.961-1.653-7.109-1.653-7.109l-15.819-2.943Z" fill="#09538f"/><path d="M144.072,227.7a10.657,10.657,0,0,1-5.857-3.425c-9.278,6.557-8.067,14.443-8.067,14.443Z" fill="#09538f"/><path d="M145.142,227.3s-6.683-.558-7.855-8.782c4.76-2.608,12.076-2.178,12.076-2.178s2.674,8.7-4.221,10.96" fill="#1070c4"/><path d="M113.682,218.03c-2.125.242-6.145-1.057-9.485-5.757-2.659,6.494.309,10.143.309,10.143s4.342,2.126,9.36-3.557c.253-.286.2-.872-.184-.829" fill="#1070c4"/><path d="M136.849,188.206a88.134,88.134,0,0,1-23.816-3.5C92.576,178.79,85,169.12,82.306,163.882l1.32-.679c9.675,18.805,47.577,27.079,65.357,22.108,4.013-1.123,8.726-3.43,8.4-8.049-.948-13.457,1.326-22.26,6.757-26.17,4.788-3.446,10.222-1.777,12.337-.9l-.57,1.371c-1.883-.781-6.718-2.276-10.9.734-4.916,3.538-7.04,12.135-6.144,24.861.308,4.383-3.059,7.786-9.482,9.583a47.579,47.579,0,0,1-12.534,1.465" fill="#fff"/><path d="M108.017,175.8l1.875,3.576a2.715,2.715,0,0,1,.245,1.839l-1.027,4.658-1.919.276-.409.946a1.584,1.584,0,0,1-3-.288l-.146-.658-.273.039a2.39,2.39,0,0,1-2.691-1.975l-1.037-.122a2.854,2.854,0,0,1-2.119-1.368l-.247-.413.031-4.594,4.073-5.038,5.415.218Z" fill="#1070c4"/><polygon points="108.06 175.422 99.152 174.531 100.08 169.208 109.207 170.148 108.06 175.422" fill="#1066b0"/><path d="M182.283,130.151l.139-4.545,3.2-3.48.621.41a1.438,1.438,0,0,1,.358,2.067l-1.49,1.976.882,3.85Z" fill="#1070c4"/><path d="M164.674,142.178a15.262,15.262,0,1,1-12.369-17.509c8.363,1.576,13.946,9.145,12.369,17.509" fill="#459bdd"/><path d="M163.212,147.049a17.532,17.532,0,0,0-25.739,1.611,15.376,15.376,0,0,0,25.739-1.611" fill="#1070c4"/><path d="M162.759,147.809a15.388,15.388,0,0,0-17.133-23.165l-1.4,12.389a6.93,6.93,0,0,0,5.254,7.685Z" fill="#2b3e86"/><g clip-path="url(#a)"><path d="M161.546,140.716c-.683-1.055-1.443-2.233-2.123-3.3l.937-.7a1.281,1.281,0,0,0-.448-2.269l-2.858-.73a11.185,11.185,0,1,0-10.235,17.837c4.035.473,10.008-3.016,13.625-5.462a3.917,3.917,0,0,0,1.1-5.379" fill="#cd9b5e"/><path d="M148.911,139.342a4.712,4.712,0,0,1-.4-3.169c.77-2.812,3.526-3.443,3.527-6.272-1.558-2.681-6.124-3.217-7.681-1.526s-1.8,15.363-1.8,15.363l8.663,4.434,5.455,1.411s-.758-4.5-2.374-6.377-4.2-1.59-5.387-3.864" fill="#4f3e34"/><path d="M151.863,136.265a.4.4,0,0,1-.4-.336,3.12,3.12,0,0,1,.445-2.138,2.24,2.24,0,0,1,1.551-.884.4.4,0,0,1,.119.8,1.445,1.445,0,0,0-1.014.556,2.321,2.321,0,0,0-.3,1.532.4.4,0,0,1-.333.464.388.388,0,0,1-.067.006" fill="#4f3e34"/><path d="M155.731,135.9a.979.979,0,1,1-.858-1.086.978.978,0,0,1,.858,1.086" fill="#17234e"/><path d="M160.184,138.586l-2.973,1.583a3.718,3.718,0,0,0,4.134.193c-.175-.281-1.161-1.776-1.161-1.776" fill="#fff"/></g></svg>