<svg xmlns="http://www.w3.org/2000/svg" viewBox="0 0 636 300"><title>MSC17-consumer-001</title><path d="M636,300H0V0H636Z" fill="#40c5af"/><path d="M430.946,251.733H201.567a2.936,2.936,0,1,1,0-5.872H430.946a2.936,2.936,0,0,1,0,5.872" fill="#00b294"/><path d="M428.777,228.912H203.736a5.1,5.1,0,0,1-5.1-5.105V76.689a5.1,5.1,0,0,1,5.1-5.1H428.777a5.1,5.1,0,0,1,5.105,5.1V223.807a5.106,5.106,0,0,1-5.105,5.105"/><path d="M198.631,166.118l94.606-94.606H204.169a5.537,5.537,0,0,0-5.538,5.538Z" fill="#505050"/><rect x="211.708" y="84.662" width="209.097" height="131.173" fill="#d2d2d2"/><polygon points="280.088 84.662 211.708 84.662 211.708 153.042 280.088 84.662" fill="#e6e6e6"/><path d="M320.556,78.656A2.556,2.556,0,1,1,318,76.1a2.556,2.556,0,0,1,2.556,2.556" fill="#505050"/><path d="M279.766,100.435l.269,2.746c34.031,0,45.771,91.1,48.054,112.443H338.67s-7.527-72.816-33.724-103.5c-8.221-6.551-15.315-11.69-25.18-11.69" fill="#c2c2c2"/><polygon points="371.913 119.475 370.221 119.475 370.683 92.72 371.451 92.72 371.913 119.475" fill="#fff"/><polygon points="387.188 189.84 371.067 192.946 354.945 189.84 354.945 187.416 371.067 184.82 387.188 187.416 387.188 189.84" fill="#e6e6e6"/><polygon points="387.188 189.84 371.067 192.946 354.945 189.84 354.945 188.71 371.067 188.883 387.188 188.71 387.188 189.84" fill="#d2d2d2"/><rect x="354.628" y="187.415" width="32.875" height="2.425" fill="#939393"/><polygon points="372.3 114.511 374.999 112.479 367.135 112.479 369.701 114.46 353.755 119.325 353.755 121.462 371.05 125.432 388.379 121.462 388.379 119.325 372.3 114.511" fill="#f3f3f3"/><polygon points="372.339 114.482 374.999 112.479 371.018 112.479 371.018 115.477 371.05 115.453 371.05 125.431 388.379 121.461 388.379 119.324 372.339 114.482" fill="#c2c2c2"/><path d="M376.807,130.088l.648-3.356,10.923-3.49v-1.78H353.754v1.78l10.926,3.5.646,3.348c.078.409.155.817.228,1.226,2.923,16.231,3.91,33.271-1.513,49.28l-9.412,26.064h5.609l7.585-25.25a65.274,65.274,0,0,0,3.231-17.275,65.061,65.061,0,0,0,3.223,17.275l7.267,25.25h5.643l-9.094-26.064c-5.422-16.009-4.436-33.049-1.514-49.28q.109-.613.228-1.226m-2.725.777a186.411,186.411,0,0,0-3.023,23.29,184.718,184.718,0,0,0-3.008-23.29c-.075-.42-.154-.838-.234-1.257l-.383-1.986,3.616,1.158,3.651-1.168-.384,2c-.081.419-.16.837-.235,1.257" fill="#c2c2c2"/><rect x="349.386" y="120.302" width="43.361" height="1.845" fill="#fff"/><rect x="365.685" y="156.453" width="10.764" height="2.768" fill="#f3f3f3"/><rect x="353.755" y="122.146" width="34.624" height="1.095" fill="#939393"/><polygon points="407.958 208.858 407.958 203.889 396.678 199.305 403.851 188.514 390.581 196.159 371.847 182.92 307.724 189.483 303.879 197.732 299.352 197.732 299.352 215.9 407.958 215.9 407.958 213.449 420.804 213.449 420.804 208.858 407.958 208.858" fill="#b2b2b2"/><polygon points="303.047 199.516 305.333 197.469 314.708 196.191 320.298 199.516 316.348 184.599 308.971 187.28 303.047 195.199 303.047 199.516" fill="#d2d2d2"/><polygon points="320.298 199.516 322.532 196.191 331.938 194.783 336.494 198.495 334.016 175.869 329.752 175.043 320.298 181.134 320.298 199.516" fill="#e6e6e6"/><path d="M336.494,198.5l5-3.921s11.017,2.876,11.64,2.893,10.634-2.893,10.634-2.893l.92.766,3.359-19.472-5.3-3.741s-15.437.831-17.1,2.078-8.777,16.119-8.777,16.119Z" fill="#f3f3f3"/><polygon points="399.135 167.751 389.927 188.132 373.474 190.751 373.474 177.74 399.135 167.751" fill="#b2b2b2"/><path d="M298.37,182.989s7.794-5.353,20.266,2.129c-5.3-.623-12.16,6.973-15.589,14.4-4.677-5.439-4.677-16.527-4.677-16.527" fill="#e6e6e6"/><path d="M310.565,188.893c2.686-2.512,5.553-4.07,8.07-3.774a26.453,26.453,0,0,0-10.626-3.855,50.676,50.676,0,0,0,2.556,7.629" fill="#d2d2d2"/><path d="M334.848,169.53s-9.353-6.5-25.877-4.5c1.87,21.646,11.327,34.485,11.327,34.485s6.132-21.257,14.55-29.986" fill="#fff"/><path d="M326.9,182.1c2.244-4.762,4.95-9.461,7.949-12.57a30.541,30.541,0,0,0-10.264-3.92A49.305,49.305,0,0,0,326.9,182.1" fill="#e6e6e6"/><path d="M372.766,206.422s-2.482-9.831.708-15.671c14.374-9.27,30.377-2.237,30.377-2.237Z" fill="#f3f3f3"/><polygon points="380.945 192.057 372.473 205.039 369.805 202.266 370.182 199.823 371.846 193.536 380.945 192.057" fill="#b2b2b2"/><polygon points="420.805 212.71 377.917 212.71 377.917 210.695 369.805 202.265 333.916 202.265 321.909 202.265 320.298 199.516 293.694 199.516 293.694 210.728 293.694 212.71 278 212.71 278 215.855 293.694 215.855 293.694 215.943 377.917 215.943 377.917 215.855 420.805 215.855 420.805 212.71" fill="#939393"/><path d="M398.75,167.462c-14.469-1.877-24.667.14-31.99,5.087a56.985,56.985,0,0,0-32.47-24.927,56.569,56.569,0,0,0-3.805,11.891c-18.031-11.412-45.864-18.132-86.7-2.919,6.826-27.452,18.084-53.413,36.25-53.413.436,0,.883.022,1.333.055.157.012.314.024.47.039,10.364.993,23.864,9.884,24.087,10.031-7.191-8.867-15.828-14.56-26.157-14.56-24.4,0-38.533,31.73-46.482,62.126-2.291,1.012-4.615,2.082-6.982,3.228-32.369,15.68-67.439-5.321-67.789-5.535a.769.769,0,1,0-.8,1.312c.26.159,19.288,11.565,42.406,11.565a61.061,61.061,0,0,0,26.857-5.957q2.949-1.43,5.819-2.712c-1.545,6.088-2.84,12.091-3.926,17.748-30.457,9.468-58.586,3.3-76.926-3.621a138.651,138.651,0,0,1-33.353-17.866.769.769,0,1,0-.951,1.209,140.222,140.222,0,0,0,33.713,18.079,129.325,129.325,0,0,0,45.333,8.588,109.6,109.6,0,0,0,31.86-4.67c-3.513,18.83-4.643,33.384-4.643,33.384h10.487c.83-9.7,3.306-33.8,8.953-57.219,41.193-15.62,69.007-8.749,86.837,2.738a57.191,57.191,0,0,0-.841,9.725c0,12.207.611,18.364,7.158,27.628,3.661-13,12.693-19.665,27.086-23.467-3.136,10.642.813,23.467.813,23.467l3.156-2.851c.191,2.646.685,5.381,1.871,6.332,2.144-6.7,11.14-10.208,11.14-10.208a23.414,23.414,0,0,0-6.38-2.113Z" fill="#fff"/><path d="M154.825,148.554s-15.175,3.915-6.725,14.153c10.192-.579,3.529-8.2,6.725-14.153" fill="#ed8422"/><path d="M148.339,160.163s-1.434,2.123,1.69,6.642a.494.494,0,0,0,.659.138l.012-.007a.489.489,0,0,0,.134-.712c-.717-.953-2.39-3.534-1.8-6.218-.917-1.236-.692.157-.692.157" fill="#ed8422"/><path d="M148.1,162.708c-1.178-9.533,6.725-14.153,6.725-14.153s-15.175,3.913-6.725,14.153" fill="#fda84c"/><path d="M420.03,160.334c-19.087,0-33.266-3.633-42.665-7.26-14.107-5.444-20.649-11.888-20.921-12.16a.769.769,0,0,1,1.087-1.088c.26.259,26.633,25.772,86.136,17.217a.769.769,0,0,1,.219,1.523,167.642,167.642,0,0,1-23.856,1.768" fill="#fff"/><path d="M348.877,130.546a10.126,10.126,0,0,1,2.235-3.322.489.489,0,0,0-.033-.723l-.01-.009a.5.5,0,0,0-.673.044,11.135,11.135,0,0,0-2.465,3.791l-.019,0c-9.8,8.955,4.675,14.956,4.675,14.956-2.25-6.121,4.816-12.5-3.71-14.732" fill="#df6c47"/><path d="M347.912,130.323c-2.5,9.273,4.675,14.956,4.675,14.956s-14.476-6-4.675-14.956" fill="#ba3615"/><path d="M238.112,126.2H227.728a.769.769,0,1,1,0-1.538h10.384a.769.769,0,1,1,0,1.538" fill="#fff"/><path d="M488.5,184.2H458.882a.769.769,0,1,1,0-1.538H488.5a.769.769,0,1,1,0,1.538" fill="#00b294"/><path d="M270.15,141.4h0a2.062,2.062,0,0,0-2.227,1.886l-.123,1.48a3.534,3.534,0,0,0,3.23,3.815l.386.031.611-4.9a2.063,2.063,0,0,0-1.877-2.312" fill="#bb9167"/><path d="M324.982,233.312l7.7,8.477,2.141,5.974,19.63-7.034a3.443,3.443,0,0,0,2.079-4.4l-.071-.2-13.571,1.561-5.877-1.537-6.657-7.693Z" fill="#bb9167"/><polygon points="357.287 238.435 351.896 240.366 350.618 236.8 348.583 237.034 350.018 241.039 343.48 243.383 337.142 239.193 339.12 236.703 337.012 236.152 332.681 241.789 333.427 243.871 335.901 240.756 341.408 244.125 334.416 246.63 335.228 248.896 358.099 240.7 357.287 238.435" fill="#e6e6e6"/><path d="M281.81,202.927l26.026,2.282a10.169,10.169,0,0,1,6.976,3.685l19.669,24-5.744,4.9-25.6-21.614-30.792-1.254L259.631,208.4l4.343-12.114Z" fill="#505050"/><polygon points="328.737 237.794 334.481 232.899 332.464 230.438 326.602 235.991 328.737 237.794" fill="#737373"/><path d="M301.189,243.593l4.388,10.577v6.346h20.641a3.654,3.654,0,0,0,3.654-3.654l-13.3-3.109-5.015-3.43-3.671-9.487Z" fill="#bb9167"/><polygon points="324.146 259.312 324.146 255.524 322.151 255.057 322.151 259.312 315.205 259.312 310.652 253.231 313.354 251.553 311.556 250.323 305.577 254.169 305.577 256.381 308.957 254.282 313.004 259.312 305.577 259.312 305.577 261.719 329.872 261.719 329.872 259.312 324.146 259.312" fill="#e6e6e6"/><path d="M246,209.554a11.463,11.463,0,0,0,5.769,1.346c3.654,0,3.462-9.615,3.462-9.615Z" fill="#380038"/><path d="M248.672,202.087l.663,5.122a14.31,14.31,0,0,0,12.708,12.4l26.709-.019,12.21,28.362,9.633-2.5-8.7-31.512a10.19,10.19,0,0,0-7.586-7.23l-21.987-4.62Z" fill="#737373"/><path d="M288.364,166.76l3.206,21.584,18.816,8.67-2.5,3.109-21.435-6.578a4.315,4.315,0,0,1-2.987-3.4l-4-23.389Z" fill="#ab845f"/><path d="M280.129,158.794l-10.911.808c-14.5.909-19.663,20.107-19.663,34.055,0,5.513-3.558,15.9-3.558,15.9l3.991-1.741a68.625,68.625,0,0,1,27.444-5.726h8.932l-3.1-10.033a27.233,27.233,0,0,1,.879-7.694,6.214,6.214,0,0,0,3.372-7.192l-.683-2.618,1.342-4.271c1.724-5.57-2.212-11.485-8.042-11.485" fill="#5c005c"/><path d="M286.446,196.221l-5.256,2.372-16.173-9.616.831-16.306a4.679,4.679,0,0,0-8.043-3.485,9.214,9.214,0,0,0-2.577,6.391v13.677a6.344,6.344,0,0,0,3.8,5.811l18.884,8.278v1.308h11.365v-7.244Z" fill="#bb9167"/><polygon points="288.077 184.074 281.017 203.433 259.632 203.433 259.632 205.869 280.129 205.869 282.436 205.869 316.539 205.869 324.487 184.074 288.077 184.074" fill="#0d7364"/><polygon points="326.795 184.074 290.385 184.074 282.436 205.868 318.847 205.868 326.795 184.074" fill="#043c40"/><polygon points="307.291 193.657 304.437 193.657 303.478 196.286 306.332 196.286 307.291 193.657" fill="#f3f3f3"/><polygon points="310.595 245.449 300.962 247.949 299.458 244.458 309.74 241.415 310.595 245.449" fill="#939393"/><path d="M281,130.637h0a11.2,11.2,0,0,0-12.09,10.237l-.5,6.067a11.635,11.635,0,0,0,2.169,7.717l-.781,1.444a9.266,9.266,0,0,1-3.939,3.845l-2.131,1.023a4.768,4.768,0,0,0,1.837,1.541l4.1,1.569a10.861,10.861,0,0,0,11.218-2.139l1.13-1.036a.824.824,0,0,0-.354-1.406l-1.443-.368a8.762,8.762,0,0,0,2.852-.7h.069l-.027-.016c4.155-1.765,7.27-6.371,7.605-9.4l.523-6.292A11.2,11.2,0,0,0,281,130.637" fill="#bb9167"/><path d="M279.074,159.121a10.146,10.146,0,0,1-5.626-1.69,7.514,7.514,0,0,0,2.2,5.147,6.739,6.739,0,0,0,3.614-3.443l.007-.011c-.067,0-.132,0-.2,0" fill="#ab845f"/><path d="M291.134,143.944l-1.807-.878a4.516,4.516,0,0,0-4.789,2.565l2.4,3.646a.866.866,0,0,1-.8,1.339l-1.115-.138a1.154,1.154,0,0,0-1.292,1.049l-.274,3.306a5.373,5.373,0,0,1-2.721,4.232c5.3-.68,9.58-6.467,9.977-10.046Z" fill="#ab845f"/><path d="M279.779,145.328a1.154,1.154,0,1,1-1.054-1.245,1.155,1.155,0,0,1,1.054,1.245"/><path d="M289.8,146.16a1.154,1.154,0,1,1-1.055-1.245,1.154,1.154,0,0,1,1.055,1.245"/><path d="M270.15,141.4h0a2.062,2.062,0,0,0-2.227,1.886l-.123,1.48a3.534,3.534,0,0,0,3.23,3.815l.386.031.611-4.9a2.063,2.063,0,0,0-1.877-2.312" fill="#bb9167"/><path d="M290.929,144.207a.387.387,0,0,1-.23-.076,3.316,3.316,0,0,0-3.668-.38.385.385,0,0,1-.344-.688,4.1,4.1,0,0,1,4.472.452.384.384,0,0,1-.23.692" fill="#665042"/><path d="M287.1,152.918s-3.281,4.167-7.674-.666Z" fill="#e6e6e6"/><path d="M281.46,129.515a17.177,17.177,0,0,0-12.238,3.34c-1.157.756-1.837.681-3.026-.169v.013c-2.853-2.221-8.381-2.9-12.216-.851,3.833.317,6.016,1.762,7.012,3.131-3.456-.608-7.728.85-7.735,5.96,2.763-2.236,6.978-1.71,8.152,2.066-3.4-.746-10.022,1.136-11.64,4.7,8.639-2.949,9.512,3.974,14.24,6.3a12.559,12.559,0,0,0,6.506.732,52.958,52.958,0,0,0,.824-6.13l-.309-.026a3.534,3.534,0,0,1-3.23-3.814l.123-1.48a2.064,2.064,0,0,1,2.228-1.886,2.041,2.041,0,0,1,1.582.988l0-.009c.02.044.044.081.065.124.011.02.022.04.032.062a1.091,1.091,0,0,0,.949.661,18.088,18.088,0,0,0,3-.23.381.381,0,0,0,.088.255.387.387,0,0,0,.543.044,3.448,3.448,0,0,1,4.754.423.385.385,0,0,0,.531-.557,4.887,4.887,0,0,0-2.162-1.267,12.255,12.255,0,0,0,5.392-4.371s2.815,3.707,6.432,3.718c.477-5.749-2.215-11.087-9.9-11.725" fill="#665042"/><path d="M270.884,152.672l.361-4.075-.216-.017a3.519,3.519,0,0,1-2.692-1.653c-.652.617-2.192,1.317-5.369-.54-4.105-2.4-9.038-1.345-10.791.716,6.445-.976,7.585,4.815,11.831,6.9a12.549,12.549,0,0,0,6.506.731c.134-.542.258-1.276.37-2.062" fill="#4f3e33"/><path d="M446.921,177.906a5.932,5.932,0,0,0-2.56.577,11.061,11.061,0,0,0-21.779-2.45,7.658,7.658,0,1,0-4.593,13.786h28.932a5.957,5.957,0,1,0,0-11.913" fill="#fff"/><path d="M240.805,113.209H212.838a17.728,17.728,0,0,0-34.823,2.331,10.854,10.854,0,0,0-17.168,8.445,5.993,5.993,0,1,0-2.9,11.24H215.32a7.042,7.042,0,1,0-2.433-13.652,17.79,17.79,0,0,0,.264-6.826h27.654a.769.769,0,1,0,0-1.538" fill="#fff"/><path d="M346.942,110.162a2.378,2.378,0,0,0-1.15.295,8.846,8.846,0,1,0-16.543-4.359c0,.284.015.567.041.844a4.141,4.141,0,1,0-1.5,8h19.147a2.391,2.391,0,1,0,0-4.782" fill="#fff"/></svg>