<svg xmlns="http://www.w3.org/2000/svg" viewBox="0 0 300 300"><title>MSC17-business-013</title><rect x="-1.923" width="303.846" height="300" fill="#e6e6e6"/><rect x="-1.917" y="220.542" width="303.84" height="79.458" fill="#939393"/><polygon points="59.359 112.819 59.359 136.409 51.154 136.409 51.154 176.922 40.385 176.922 40.385 204.614 35.512 204.614 35.512 161.537 21.666 161.537 21.666 199.998 -1.923 199.998 -1.923 220.51 301.923 220.51 301.923 207.69 283.719 207.69 283.719 183.588 275.513 183.588 275.513 168.716 262.692 168.716 262.692 212.306 251.41 212.306 251.41 184.614 239.102 184.614 239.102 155.383 218.59 134.87 218.59 195.896 206.282 195.896 206.282 185.639 187.82 185.639 187.82 204.101 173.974 204.101 173.974 183.076 139.103 183.076 139.103 204.101 127.308 204.101 127.308 182.049 111.923 182.049 111.923 204.101 99.359 204.101 99.359 176.922 79.872 176.922 79.872 136.409 71.667 136.409 71.667 112.819 59.359 112.819" fill="#d2d2d2"/><path d="M178.349,139.432a7.628,7.628,0,0,0-6.087,8.3l1.984,18.294L164.824,187.3a9.069,9.069,0,0,0-2.172,2.207l-.351.777a1.26,1.26,0,0,0,.6,1.655l3.569,1.711,3.541,3.819a6.465,6.465,0,0,0,6.05,1.423l.15-.04a.906.906,0,0,0,.445-1.463l-3.231-3.761a28.716,28.716,0,0,1-1.794-4.909,4.113,4.113,0,0,1,.5-3.476l9.986-15.173a13.307,13.307,0,0,0,1.507-6.02l.195-19.149Z" fill="#ce9c5f"/><path d="M180.459,172.593s-4.555,5.586-11.77,5.982c1.093-2.47,4.067-9.346,4.067-9.346l10.513-1.282s-2.286,3.844-2.81,4.646" fill="#ba8c57"/><path d="M254.925,36.9a7.383,7.383,0,0,0-3.188.72,13.774,13.774,0,0,0-27.12-3.052A9.537,9.537,0,1,0,218.9,51.731h36.029a7.418,7.418,0,0,0,0-14.836" fill="#fff"/><path d="M112.284,65.759a9.65,9.65,0,0,0-3.34.593,24.343,24.343,0,1,0-47.885-8.283,14.9,14.9,0,0,0-23.574,11.6A8.229,8.229,0,1,0,33.509,85.1h78.775a9.67,9.67,0,0,0,0-19.34" fill="#fff"/><path d="M198.381,91.333l-.678-1.855a.846.846,0,0,0-1.085-.5l-1.6.59a1.9,1.9,0,0,0,.277.47l-2.214,1.3.741,1.083,3.3-1.256a5.692,5.692,0,0,0,1.258.173" fill="#8c6943"/><path d="M165.052,121.152s-2.424-.449-2.745-2.5,3.089-.1,3.089-.1Z" fill="#ba0e1c"/><path d="M207.805,104.2l-4.637-11.243h.015l-.755-1.792v0l-.228-.541-.777-2.268c-.343-1-1.474-2.006-3.469-2.092l-7.151-.086.023.221a1.128,1.128,0,0,0,.11.353l4.675.525a3.8,3.8,0,0,1,.679.144l.634,1.058c1.2.3,1.5.394,1.827,1.586l1.1,2.043-.762.853,2.109,10.8-10.08,1.435-5.022.275,1.368,8.661h4.787l13.45-5.389a3.644,3.644,0,0,0,2.1-4.538" fill="#ce9c5f"/><path d="M196.386,109.485s7.664-2.956,9.71-.933c-4.5,1.836-9.4,3.8-9.4,3.8Z" fill="#ba8c57"/><path d="M221.324,164.531l-4.059-.812a3.022,3.022,0,0,1-1.673-.963l-3-3.389-7.534-19.392a4.827,4.827,0,0,0-4.024-2.813l-17.9-1.377-1.824,13.221,18.239-2.982,8.688,15.473-.166.674c-.243.989.523,4.366,1.542,4.366l10.769.063c1.245,0,1.934.184,2.019-1.057Z" fill="#ce9c5f"/><path d="M204.387,135.579a3.88,3.88,0,0,0-5.195-2.474l-5.236,2.158a7.379,7.379,0,0,1-1.018-5.23,79.251,79.251,0,0,0,1.224-15.042l4.218-1.275a10.492,10.492,0,0,0-4.534-9.318,23.284,23.284,0,0,1-2.789.408,2.3,2.3,0,0,0-2.083-.408c-.79.18-1.331.332-1.648.428l-3-.831a9.125,9.125,0,0,0-4.236-.147l-6.628,1.345c-2.678.547-4.726,5.8-4.519,8.523l.31.943L165.4,118.55l-.344,2.6,5.282-3.2,4.24,12.905a4.944,4.944,0,0,1,.251,1.237,15.029,15.029,0,0,1-.39,4.462l-14.628,30.493s14.231,11.26,24.872.117,13.948-18.68,23.641-20.038a117.409,117.409,0,0,1-3.933-11.549" fill="#eb4f5d"/><path d="M196,94.881l-1.42-1.444a.043.043,0,0,1-.013-.03v-.122a9.292,9.292,0,0,0-8.47-9.379,9.081,9.081,0,0,0-9.665,9.708,8.9,8.9,0,0,0,3.428,6.374l-1.157,2.056-.449.8a3.9,3.9,0,0,1-2.62,1.908l-.987.2s3.074,6.9,8.862,6.711,4.441-5.95,4.441-5.95l-2.19-.359.557-.874a5.264,5.264,0,0,1,4.44-2.437h.076a3.733,3.733,0,0,0,3.734-3.733v-1a.708.708,0,0,1,.645-.7l.157-.014A1.011,1.011,0,0,0,196,94.881" fill="#ce9c5f"/><path d="M191.827,92.758a.769.769,0,1,1-.769-.77.769.769,0,0,1,.769.77"/><path d="M194.565,97.315l-2.424.325.269.224a1.941,1.941,0,0,0,1.238.447h.917Z" fill="#e81123"/><path d="M189.269,91.654a.342.342,0,0,1-.051-.68l2.875-.433a.338.338,0,0,1,.389.287.342.342,0,0,1-.287.389l-2.875.433a.292.292,0,0,1-.051,0" fill="#fec94e"/><path d="M256.31,270.107h-115.8a2.28,2.28,0,1,1,0-4.559h115.8a2.28,2.28,0,0,1,0,4.559" fill="#737373"/><path d="M230.907,135.367a7.119,7.119,0,1,0-8.943,6.874V167.15H206V85.711a7.12,7.12,0,1,0-3.647,0v82.507L177.41,193.162H141.571V173.021l-10.85-10.851,39.251-39.25V76.646a7.11,7.11,0,1,0-3.648-.107v44.87l-7.472,7.473-26.8-26.8V64.5a7.119,7.119,0,1,0-3.648,0v39.1l27.867,27.864-28.131,28.132-9.783-9.783V117.326a7.12,7.12,0,1,0-3.647,0v31.415H89.446V72.669a7.119,7.119,0,1,0-3.647,0v79.72H115.78l22.143,22.143v30.537H124.87L110.932,191.13V175.748a7.119,7.119,0,1,0-3.648,0v16.893l16.075,16.076h14.564v61.409h3.648V196.81h37.35L204.934,170.8h20.678V142.241a7.125,7.125,0,0,0,5.3-6.874m-66.02-65.648a3.472,3.472,0,1,1,3.471,3.471,3.475,3.475,0,0,1-3.471-3.471m-38.128-12.1a3.472,3.472,0,1,1,3.471,3.472,3.475,3.475,0,0,1-3.471-3.472M84.152,65.8a3.472,3.472,0,1,1,3.471,3.472A3.475,3.475,0,0,1,84.152,65.8m28.913,44.657a3.471,3.471,0,1,1,3.471,3.471,3.475,3.475,0,0,1-3.471-3.471m-7.429,58.422a3.472,3.472,0,1,1,3.472,3.471,3.476,3.476,0,0,1-3.472-3.471m95.071-90.038a3.472,3.472,0,1,1,3.472,3.472,3.475,3.475,0,0,1-3.472-3.472m23.081,60a3.472,3.472,0,1,1,3.471-3.472,3.476,3.476,0,0,1-3.471,3.472" fill="#b2b2b2"/><path d="M190.591,84.6c-.171-.16-.354-.318-.552-.471h0l-.021-.014a6.969,6.969,0,0,0-.723-.489c-4.12-2.58-9.845-2.863-12.657-1.837-1.581.577-4.04,2.107-6.668,2.97v3.486a22.285,22.285,0,0,0,4.673-.173s-3.373.777-4.673,3.211V93.48c3.849-2.55,5.18.692,6.033,2.206l0,0a9.5,9.5,0,0,0,3.766,4.249A5.379,5.379,0,0,0,183.043,96l-.5-.1a2.407,2.407,0,0,1-1.939-2.53l.018-.252a1.705,1.705,0,0,1,1.6-1.621,1.64,1.64,0,0,1,1.674,1.785l-.186,2.111.083-.05a4.895,4.895,0,0,0,2.339-3.651,2.319,2.319,0,0,0-.373-1.395,1.958,1.958,0,0,1,.728-2.679l.826-.47a3.654,3.654,0,0,1,2.275-.448,1.223,1.223,0,0,0,1-2.1" fill="#fec94e"/><path d="M166.314,85.374a6.057,6.057,0,0,1-3.251-1.017,5.21,5.21,0,0,0,3.251,3.126Z" fill="#fec94e"/><path d="M180.986,98.473a1.284,1.284,0,1,1,1.283-1.284,1.286,1.286,0,0,1-1.283,1.284m0-1.8a.515.515,0,1,0,.514.515.515.515,0,0,0-.514-.515" fill="#fff"/><path d="M190.83,102.045h-4.713a3.007,3.007,0,0,1-2.524-1.372l-.645-1s-.731,5.576,1.6,8.167c1.6.935,1.153-.932,1.549-2.379a4.874,4.874,0,0,1,4.73-3.421" fill="#ba8c57"/><path d="M193.951,135.265l-3.408,3.538a8.2,8.2,0,0,1-11.225.556Z" fill="#e81123"/><path d="M175.673,122.466a31.9,31.9,0,0,0-3.71-7.147l-1.515,2.564.05.569,4.076,12.405a4.953,4.953,0,0,1,.251,1.237,15.019,15.019,0,0,1-.389,4.461c3.064-5.339,3.256-9.089,1.237-14.089" fill="#e81123"/><path d="M190.83,108.1c-.414,2.858,2.31,4.05,3.337,6.894l4.213-1.274a9.647,9.647,0,0,0-.114-2.315l-4.1.269s-1.379-3-3.337-3.574" fill="#e81123"/><path d="M183.269,144.352s-1.057,7.826-10.769,8.595c2.5-5.769,10.769-8.595,10.769-8.595" fill="#e81123"/><path d="M223.2,165.941a.779.779,0,0,0-.526-1.141l-1.347-.269-1.017.559a3.064,3.064,0,0,1-1.885.349l-5.968-.818a3.029,3.029,0,0,1-1.221-.447l-3.159-2-.752,3.05a1.571,1.571,0,0,0,1.525,1.946h12.277a2.366,2.366,0,0,0,2.073-1.226" fill="#505050"/><path d="M200.29,91.5l-.486-1.767a3.4,3.4,0,0,0-2.462-2.417l-.931-.233a3.293,3.293,0,0,0-.647-.1l-4.827-.212a1.159,1.159,0,0,0,1.1.657l2.266-.115L190.687,88.4l.032.107a1.17,1.17,0,0,0,1.5.785l.437-.123.088.184a1.121,1.121,0,0,0,1.434.557l.843-.343.532.577a3.685,3.685,0,0,0,2.777,1.191h.054l.712,1.625.827,4.231.5-2.649a6.751,6.751,0,0,0-.126-3.041" fill="#ba8c57"/><path d="M171.456,93.419a1.409,1.409,0,0,0-.568-.956l-.013-.01a3.754,3.754,0,0,0-2.953-.637l-1.908.39-.962,8.893-6.677,12.484a5.576,5.576,0,0,0-.075,4.439,3.16,3.16,0,0,0,4.089,1.726l3.935-1.392v-4.633l2.013-10.46,1.958-4.1.219-.207a1.325,1.325,0,0,0,.066-1.859l.067-.05a1.873,1.873,0,0,0,.725-1.739,1.941,1.941,0,0,0,1.97-1.1l.068-.2Z" fill="#ce9c5f"/><path d="M168.689,178.576l-3.865,8.727a9.076,9.076,0,0,0-2.173,2.206l-.351.777a1.262,1.262,0,0,0,.6,1.655l3.57,1.712,3.54,3.818a6.468,6.468,0,0,0,6.052,1.423l.148-.041a.906.906,0,0,0,.446-1.463l-3.23-3.76a28.747,28.747,0,0,1-1.8-4.91,4.115,4.115,0,0,1,.5-3.475l3.016-4.583Z" fill="#ce9c5f"/><path d="M174.913,195.357h0c.361,1.448-2.157,2.846-3.759.538a35.561,35.561,0,0,0-5.277-5.039c-.406-.336-1.214-1.371-1.053-3.554-2.635,1.559-2.523,2.984-2.523,2.984a1.26,1.26,0,0,0,.6,1.655l3.57,1.711,3.54,3.819a6.469,6.469,0,0,0,6.052,1.424l.148-.041a.906.906,0,0,0,.446-1.463Z" fill="#505050"/><rect x="-1.923" width="303.846" height="300" fill="none"/><rect x="-1.923" width="303.846" height="300" fill="none"/></svg>