<svg xmlns="http://www.w3.org/2000/svg" xmlns:xlink="http://www.w3.org/1999/xlink" viewBox="0 0 636 300"><defs><clipPath id="a"><path d="M149.044,101.055l.614,1.262s9.271,11.986,11.583,19.766,1.786,17.769,1.786,17.769,6.341-6.94,6.43-15.036-2.761-17.558-2.761-17.558l2.762-5.782-4.15-3.188Z" fill="none"/></clipPath></defs><title>MSC17-collaboration-002</title><path d="M636,0V300H0V0Z" fill="#c2c2c2"/><polygon points="372.724 154.363 390.624 154.363 390.624 81.384 372.724 71.967 372.724 154.363" fill="#3e3e3e"/><polygon points="186.456 154.363 209.928 154.363 209.928 69.634 186.456 81.384 186.456 154.363" fill="#3c3c3c"/><rect x="196.861" y="45.143" width="183.429" height="109.22" fill="#505050"/><rect x="380.291" y="45.143" width="10.334" height="36.241" fill="#282828"/><rect x="186.455" y="45.143" width="10.405" height="36.241" fill="#282828"/><rect x="202.632" y="51.268" width="172.098" height="97.192" fill="#0d7364"/><rect x="202.749" y="61.65" width="172.308" height="1.538" fill="#45a094"/><rect x="202.749" y="76.727" width="172.308" height="1.538" fill="#45a094"/><rect x="202.749" y="91.804" width="172.308" height="1.538" fill="#45a094"/><rect x="202.749" y="106.881" width="172.308" height="1.538" fill="#45a094"/><rect x="202.749" y="121.958" width="172.308" height="1.538" fill="#45a094"/><rect x="202.749" y="137.035" width="172.308" height="1.538" fill="#45a094"/><polygon points="214.956 148.495 208.658 148.495 215.234 118.91 231.802 124.567 243.378 103.344 264.538 111.278 282.358 63.757 306.869 86.04 302.73 90.594 284.934 74.415 268.139 119.201 246.222 110.982 234.721 132.067 219.75 126.954 214.956 148.495" fill="#df6c47"/><path d="M514.535,263.3H393.718a2.861,2.861,0,0,1,0-5.721H514.535a2.861,2.861,0,1,1,0,5.721" fill="#c2c2c2"/><path d="M482.126,229.291v-1.2a4.656,4.656,0,0,0-4.65-4.649H473.7v-9.269h-4.773v17.342h-.582v2.691h-.813l-.6,13.555h1.411v7.674h5.937v-7.674H475.7l-.6-13.555h-.813v-2.691H473.7v-6.578h3.772a3.158,3.158,0,0,1,3.155,3.154v1.2a10.28,10.28,0,0,0-1.776,4.656.493.493,0,0,0,.491.531h4.063a.493.493,0,0,0,.491-.531,10.282,10.282,0,0,0-1.774-4.656" fill="#737373"/><polygon points="421.269 254.709 421.843 246.966 412.368 246.204 411.664 257.271 419.875 258.198 421.269 254.709" fill="#df6c47"/><polygon points="451.013 165.377 445.331 187.511 433.413 195.577 435.645 200.375 452.717 193.414 453.315 167.711 451.013 165.377" fill="#ce9c5f"/><path d="M471.408,246.966s18.913.547,30.136,4.762a1.644,1.644,0,0,1,1,1.989l-.49,1.718a144.976,144.976,0,0,0-30.649-3.139Z" fill="#b2b2b2"/><polygon points="502.056 255.436 496.873 255.436 496.873 252.296 501.359 253.866 502.056 255.436" fill="#b2b2b2"/><path d="M502.056,255.436h-5.182v.89a3.489,3.489,0,1,0,3.386,4.292h1.8Z" fill="#737373"/><polygon points="440.76 255.436 445.943 255.436 445.943 252.296 441.458 253.866 440.76 255.436" fill="#e6e6e6"/><path d="M445.943,255.436h-5.182v.89a3.489,3.489,0,1,0,3.385,4.292h1.8Z" fill="#737373"/><path d="M421.269,254.709a37.854,37.854,0,0,1,1.6,8.594H396.388s.807-6.222,7.252-6.222,7.618-6.243,7.618-6.243a5.774,5.774,0,0,1,3.194,3.532l.108.339Z" fill="#282828"/><path d="M493.483,201.469l4.5-43.217c.086-.751,0-6.826-3.724-6.5a127.484,127.484,0,0,1-34.027-.021c-.366,3.017-2.353,1.831-2.353,1.831l-10.241,64.125H490.6a6.605,6.605,0,0,0,6.013-9.341Z" fill="#737373"/><path d="M473.8,160.978a120.9,120.9,0,0,1-16.98-1.02l.174-1.183c15.3,2.261,38.294.019,38.524,0l.12,1.19c-.155.015-10.43,1.017-21.838,1.017" fill="#505050"/><path d="M471.417,170.255a123.637,123.637,0,0,1-17.291-1.021l.175-1.183c15.3,2.262,39.482.019,39.725,0l.112,1.191c-.162.015-10.963,1.017-22.721,1.017" fill="#505050"/><path d="M470.6,179.831a124.493,124.493,0,0,1-17.369-1.021l.174-1.183c15.3,2.261,39.78.018,40.025,0l.111,1.191c-.164.015-11.1,1.017-22.941,1.017" fill="#505050"/><path d="M471.386,189.541c-5.957,0-12.489-.063-18.686-.251l.036-1.2c18.46.561,39.919.006,40.134,0l.031,1.2c-.143,0-9.695.251-21.515.251" fill="#505050"/><rect x="451.52" y="198.867" width="40.168" height="1.196" fill="#505050"/><rect x="453.316" y="209.041" width="40.168" height="1.196" fill="#505050"/><path d="M498.928,155.167a2.583,2.583,0,0,0-.621-2,3.61,3.61,0,0,0-2.825-1.409l-4.04,36.7a63.008,63.008,0,0,0,1.247,21.112l.693,2.992a2.442,2.442,0,0,1-2.4,2.993l-19.569-.189s-9-.226-12.089,1.746c-.959.612-.608,3.344.178,4.168a1.95,1.95,0,0,0,2.281.394l1.056-.53a14.981,14.981,0,0,1,6.721-1.592H492.08a6.2,6.2,0,0,0,6.055-7.549l-1.238-5.563a50.894,50.894,0,0,1-1.031-15.4Z" fill="#c2c2c2"/><path d="M479.07,250.411l-7.662-3.445s-18.911.547-30.135,4.763a1.64,1.64,0,0,0-1,1.988l.49,1.719a144.928,144.928,0,0,1,30.648-3.14l3.849,1.345v1.068h4.873l.321-1.619a2.418,2.418,0,0,0-1.381-2.679" fill="#e6e6e6"/><polygon points="480.181 256.326 480.181 254.709 475.258 254.709 475.258 256.326 474.155 256.326 474.155 263.303 481.378 263.303 481.378 256.326 480.181 256.326" fill="#737373"/><path d="M411.664,247.761l1.666-32.96a7.192,7.192,0,0,1,5.236-6.561l24.8-7.089,2.72-6.481,21.143-.171-6.511,14.3a15.488,15.488,0,0,1-11.258,8.808l-22.98,4.283-3.866,27.482Z" fill="#011228"/><path d="M456.966,204.619l-8.187,3.741a9.12,9.12,0,0,0-4.994,10.736l9.034,30.941,11.62-1.84-4.193-30.915,10.912-1.133a7.556,7.556,0,0,0,6.765-7.085l.2-3.414-11.181-18.567Z" fill="#021760"/><path d="M455.062,154.363c4.112-2.806,9.173-1.688,9.173-1.688l5.075-.916c9.491.981,15.931,9.9,14.718,18.264l-5.969,41.161-.736-.59a48.011,48.011,0,0,0-31.68-10.554l-4.739.159,7.405-14.54c2.7-7.441-2.247-25.155,6.753-31.3" fill="#505050"/><path d="M478.514,136.129a2.2,2.2,0,0,0-1.187-.011l.75-2.54a11.783,11.783,0,0,0-22.6-6.672l-3.367,11.409a9.086,9.086,0,0,0,5.689,11.136,5.334,5.334,0,0,1,.91,2.343l.5,3.848c.154,1.18,1.365,2.308,3.579,2.554a6.487,6.487,0,0,0,5.6-1.8,6.347,6.347,0,0,0,1.745-5.41l-.248-1.61a11.743,11.743,0,0,0,5.189-5.829,3.433,3.433,0,0,0,3.94-2.09l.937-2.388a2.216,2.216,0,0,0-1.434-2.936" fill="#ce9c5f"/><path d="M460.234,140.553l-2.33-.689a1.23,1.23,0,0,1-.748-1.687l1.894-4.314a3.261,3.261,0,0,0-1.836-4.416l-2.256-.787-2.85,9.654a9.1,9.1,0,0,0,6.147,11.3c-1.781-4.621,1.979-9.059,1.979-9.059" fill="#ba8c57"/><path d="M467.751,136.036a1.267,1.267,0,1,0,1.574-.856,1.268,1.268,0,0,0-1.574.856" fill="#043c40"/><path d="M454.385,132.09a1.267,1.267,0,1,0,1.574-.856,1.268,1.268,0,0,0-1.574.856" fill="#043c40"/><path d="M463.421,144.443l-7.534-2.223,1.231,1.253a4.815,4.815,0,0,0,4.359,1.35Z" fill="#fff"/><path d="M473.14,139.563l1.916.565.7-2.474a2.208,2.208,0,0,1,2.467-1.58c.434-1.47.865-2.93,1.109-3.755,2.3-7.777-3.306-12.073-7.436-13.293a15.667,15.667,0,0,0-4.395-.728,10.828,10.828,0,0,1-3.978-.742l-2.131-.837-.038,2.287-.235.017a5.4,5.4,0,0,1-3.353-.857l1.433,3.988a6.4,6.4,0,0,0,4.2,3.966l1.607.474a3.061,3.061,0,0,0,1.287.1l3.4-.467a5.168,5.168,0,0,1,5.2,2.572l.952,1.678a2.762,2.762,0,0,1,.136,2.457Z"/><path d="M472.216,135.683a.444.444,0,0,1-.385-.219,4.117,4.117,0,0,0-3.2-1.933h-.015a.446.446,0,0,1,0-.891h.018a4.943,4.943,0,0,1,3.967,2.373.447.447,0,0,1-.16.609.442.442,0,0,1-.224.061"/><path d="M458.557,130.428a.445.445,0,0,1-.307-.123,4.081,4.081,0,0,0-3.66-.806.445.445,0,1,1-.25-.855,4.935,4.935,0,0,1,4.525,1.016.446.446,0,0,1-.308.768"/><polygon points="453.768 249.191 455.265 255.68 464.124 254.709 463.042 246.966 453.768 249.191" fill="#df6c47"/><path d="M467.881,261.864a10.635,10.635,0,0,0-1.431-4.919c-.554-.953-1.686-2.763-2.523-4.09A3.459,3.459,0,0,0,461,251.24H457.58a2.745,2.745,0,0,0-2.727,2.439l-.559,4.96a5.7,5.7,0,0,0-1.667,2.7,2.206,2.206,0,0,0-.073.589v1.38h15.383Z" fill="#282828"/><path d="M464.382,245.092a34.438,34.438,0,0,0-13.052.735c.355,1.977,1.195,4.9,1.195,4.9s10.022-.693,12.522-.3Z" fill="#09538f"/><polygon points="423.182 250.037 411.303 248.401 411.663 242.358 424.006 244.786 423.182 250.037" fill="#021760"/><path d="M482.715,170.4c-3.571,2.2-12.512,0-12.512,0l3.836,21.5-17.634,7.95-6.891-1.929a3.317,3.317,0,0,0-3.778,1.557l-1.428,2.515,3.329,4.688L459,205.687l.127-.741,22.542-5.66a3.15,3.15,0,0,0,2.38-3.226c-.321-5.944-1.1-20.442-1.334-25.663" fill="#ce9c5f"/><path d="M404.941,190.6a3.05,3.05,0,0,1,1.622-.629l30.555-2.451a3.012,3.012,0,0,1,2.951,1.691l7.835,16a1.041,1.041,0,0,0,1.019.584l17.713-1.421.141,1.762-19.7,1.58-32.113,2.576L404.515,190.93Z" fill="#e6e6e6"/><path d="M404.9,190.811l31.072-2.492a2.421,2.421,0,0,1,2.374,1.36l7.981,16.483a2.53,2.53,0,0,0,2.477,1.417l2.211-.177-38.006,3.048-8.867-18.313a.925.925,0,0,1,.758-1.326" fill="#c2c2c2"/><polygon points="411.667 207.7 445.747 204.967 446.083 205.662 412.003 208.395 411.667 207.7" fill="#d2d2d2"/><polygon points="424.157 198.652 423.529 197.379 425.491 197.222 426.12 198.495 424.157 198.652" fill="#fff"/><polygon points="423.657 198.692 421.879 198.835 421.252 197.562 423.029 197.419 423.657 198.692" fill="#fff"/><polygon points="424.379 199.103 426.342 198.945 426.968 200.218 425.007 200.376 424.379 199.103" fill="#fff"/><polygon points="423.879 199.143 424.507 200.416 422.729 200.558 422.101 199.285 423.879 199.143" fill="#fff"/><path d="M197.2,263.407H114.84a2.861,2.861,0,1,1,0-5.721H197.2a2.861,2.861,0,1,1,0,5.721" fill="#c2c2c2"/><path d="M139.672,203.83l-6.225,43.235a34.9,34.9,0,0,0-.793,4.242c-.785,5.508-4.981,8.336-6.386,9.97l.641.216,9.5-1.709,4.662-9.04-.145-1.58a3.036,3.036,0,0,1,.07-2.614L152.877,204.6Z" fill="#db9c94"/><path d="M182.251,258.337a14.771,14.771,0,0,1-4.205-7.022l-.568-2.151-1.268-25.206-8.974.385,3.4,24.821h.026l-.286,2.383,8.445,9.584h6.424Z" fill="#db9c94"/><path d="M169.36,262.964l-1.006-.008s.276-3.757.2-5.425a20.442,20.442,0,0,0-.671-3.595,6.787,6.787,0,0,1,1.952-5.822.538.538,0,0,1,.795.043l7,8.581a11.051,11.051,0,0,0,8.122,4.012,3.008,3.008,0,0,1,2.717,2.055c.109.343.137.591-.006.6l-8.437-.013a3.864,3.864,0,0,1-3.619-1.864l-1.924-3.207a5.392,5.392,0,0,0-2.8-2.3l-1.5-.513a33.425,33.425,0,0,1-.732,7.073Z" fill="#282828"/><path d="M140.3,248.2a.307.307,0,0,1,.565,0l1.414,3.322a4.736,4.736,0,0,1,.041,4.216,16.334,16.334,0,0,0-1.543,5.327l-.266,2.36h-1.344l.527-5.67-2.309,3.462a3.926,3.926,0,0,1-3.529,2.208h-10.6a3.785,3.785,0,0,1,3.18-2.751l.6-.1c3.107-.51,8.61-2.416,10.133-5.172Z" fill="#282828"/><polygon points="178.345 243.876 166.607 243.876 164.911 208.023 161.068 180.013 155.061 207.843 144.074 243.876 133.694 243.876 137.881 201.995 142.217 158.554 162.736 149.523 180.335 155.854 178.345 243.876" fill="#282828"/><path d="M211.181,93.442,216.5,88.9a3.661,3.661,0,0,1,2.713-1.255l16.354.84-.26.73a2.065,2.065,0,0,1-1.946,1.374h-4.976l.928,2.69a1.664,1.664,0,0,1-.65,1.928l-1.571,1.047a1.661,1.661,0,0,1-1.1.27l-4.936-.533.748-1.946-5.985,2.544Z" fill="#cb8c84"/><path d="M216.34,88.222l-5.032,5.091,3.535,1.035,5.845-3.822a9.322,9.322,0,0,1,5.648-1.5l8.819.518a1.96,1.96,0,0,0,.154-.331l.26-.729L219.06,87.208a3.454,3.454,0,0,0-2.72,1.014" fill="#db9c94"/><path d="M212.551,90.684l-14.546,10.439-23.124-1.478,0,0a3.617,3.617,0,0,0-3.9-2.121l-32.162,5.46a10.006,10.006,0,0,0-6.61,4.836L119.4,130.308a7.22,7.22,0,0,0,1.327,8.869l14.94,13.974s3.417-.315,5.52-5.993c0-.078-10.524-13.573-10.524-13.573l9.089-7.034a134.6,134.6,0,0,0,5.725,14.352c-3.3,6.179-5.157,24.076-5.157,24.076s14.981,4.416,23.5-8.043c6.308,3.943,20.029,1.348,20.029,1.348s-5.153-14.1-4.942-20.654c.129-4.029,1.489-10.8,2.519-15.426a15.817,15.817,0,0,0-.532-8.714l17.166-.681a3.019,3.019,0,0,0,1.856-.736l18-15.643c0-3.743-5.361-5.746-5.361-5.746" fill="#505050"/><path d="M166.7,107.258s1.01,3.756,1.34,5.4a24.058,24.058,0,0,1,1.621-3.6l3.482-.486-4.7-5.057Z" fill="#282828"/><path d="M149.658,102.317s9.271,11.986,11.583,19.766,1.786,17.768,1.786,17.768,6.341-6.939,6.43-15.035-2.762-17.557-2.762-17.557l2.763-5.783-4.15-3.188-14.644-1.356Z" fill="#f5f5f5"/><polygon points="166.076 102.738 167.075 100.74 164.972 99.426 165.393 102.474 166.076 102.738" fill="#d2d2d2"/><path d="M172.771,82.922l-.884-6.9a12.9,12.9,0,0,0-14.394-11.12l-.792.1A12.9,12.9,0,0,0,145.58,79.4l.885,6.895a12.854,12.854,0,0,0,6.625,9.639l-.348,4.49,5.028,3.737,4.889,9.825,3.417-11.25-.526-2-.242-2.452A2.958,2.958,0,0,1,166.75,95.5a12.891,12.891,0,0,0,6.021-12.574" fill="#db9c94"/><path d="M172.771,82.922l-.884-6.895a12.906,12.906,0,0,0-10.273-10.97l-2,2.564,2.483,2.146a7.418,7.418,0,0,1,2.564,5.607v.756a2.9,2.9,0,0,0,1.673,2.63l2.725,1.272a1.258,1.258,0,0,1,.139,2.2s-1.26.745-1.3,1.125a3.519,3.519,0,0,0,.538,1.3,4.3,4.3,0,0,1,.728,2.385l-2.462.5.032.735a1.706,1.706,0,0,0,2.324,1.513l.894-.349a.867.867,0,0,0,.238-.06l2.046-.837a12.711,12.711,0,0,0,.541-5.625" fill="#cb8c84"/><path d="M171.6,90.069l-2,1.522a7.33,7.33,0,0,1-6.4,1.224l-5.6-1.61a.45.45,0,0,0-.471.719L159,94.2a9,9,0,0,1,2.047,5.232l.571,12.458,1.043,2.095,3.417-11.249-.525-2-.243-2.452A2.955,2.955,0,0,1,166.75,95.5a12.994,12.994,0,0,0,4.844-5.381Z" fill="#cb8c84"/><path d="M159.507,79.119a1.2,1.2,0,1,1-1.2-1.2,1.2,1.2,0,0,1,1.2,1.2" fill="#282828"/><path d="M170.657,77.127a1.2,1.2,0,1,1-1.2-1.2,1.2,1.2,0,0,1,1.2,1.2" fill="#282828"/><path d="M162.448,85.127l-.537,2.433s-1.185-1.844.537-2.433" fill="#cb8c84"/><polygon points="157.771 104.163 154.677 109.072 161.088 110.83 157.771 104.163" fill="#d2d2d2"/><g clip-path="url(#a)"><path d="M166.7,107.258l-.673,1.63,1.865,7.867a13.3,13.3,0,0,1-.076,6.431l-.139.529a13.285,13.285,0,0,1-5.487,7.687l-.474,10.236,5.889.264,6.2-25.286Z" fill="#d2d2d2"/></g><polygon points="169.458 101.476 169.651 107.692 167.088 106.234 169.458 101.476" fill="#d2d2d2"/><path d="M155.326,149.935l-5.848-1.773a1.564,1.564,0,0,0-.729-.042s-6.521.9-7.86.784l-.28-.383-.138.323a9.412,9.412,0,0,1-3.936,4.055l1.4,1.481a5.212,5.212,0,0,0,6.918.595l1.725-1.291,2.26.936.783,1.987a1.579,1.579,0,0,0,1.649.988l.585-.067-.891-3.937-2.116-1.052,2.843.521,1.364,2.048a1.818,1.818,0,0,0,2.1.714l.642-.217-1.177-2.54.45.53a1.909,1.909,0,0,0,2.239.506l.52-.234Z" fill="#db9c94"/><path d="M156.982,64.362a13.076,13.076,0,0,0-6.877,2.409,5.546,5.546,0,1,0-5.294,9.022,23.3,23.3,0,0,0-.393,2.829,17.985,17.985,0,0,0,8.672,17.313s-5.169-4.348-2.4-9.591c.165-.313.305-.607.445-.9.281,3.067.595,6.084.843,7.421,2.963-6.014,1.634-13,.783-16.117a16.8,16.8,0,0,1,.395-4.774c1.262-5.151,9.869-4.823,12.655-1.67,2.211,2.5,2.984,3.066,6.151,3.838-1.945-7.57-6.729-10.408-14.982-9.778m-8.149,21.972c-3.673-1.505-2.576-7.106.421-6.832a17.364,17.364,0,0,1-.421,6.832" fill="#72594b"/><path d="M148.745,85.856l-2.672,2.671,2.672,2.672,2.671-2.672Zm-1.262,2.671,1.262-1.261,1.262,1.261-1.262,1.262Z" fill="#f5f5f5"/><path d="M163.275,85.975l7.742-1.294-.211.443c-1.161,2.427-3.751,3.324-5.775,2Z" fill="#f5f5f5"/><path d="M173.344,77.11l-.265-1.655a1.657,1.657,0,0,0-1.9-1.376l-4.8.8a.975.975,0,0,0-.475.238l-.568-.2a3.132,3.132,0,0,0-2.792.364l-.686.468a.949.949,0,0,0-.419-.029l-6.09.972c-.33.053-6.745,2.772-6.745,2.772a.382.382,0,0,0,.142.737.378.378,0,0,0,.142-.028l5.085-2.041a1.649,1.649,0,0,0,0,.46l.265,1.655a2.225,2.225,0,0,0,2.193,1.872,2.338,2.338,0,0,0,.352-.027l4.315-.69a2.221,2.221,0,0,0,1.843-2.545l-.369-2.318a.961.961,0,0,0-.106-.281l.506-.346a2.367,2.367,0,0,1,2.11-.274l.483.17a.993.993,0,0,0-.007.2l.369,2.317a.25.25,0,0,0,.007.026l1.1.588a1.431,1.431,0,0,1-.353-.735l-.37-2.317a.224.224,0,0,1,.188-.257l4.8-.8a.851.851,0,0,1,.142-.012.9.9,0,0,1,.881.754l.264,1.656a1.458,1.458,0,0,1-1.213,1.67l-3.026.514a1.473,1.473,0,0,1-.435,0l1.212.647,2.373-.4a2.222,2.222,0,0,0,1.844-2.545m-11.416,2.949a1.45,1.45,0,0,1-.95.585l-4.316.689a1.459,1.459,0,0,1-1.67-1.21l-.264-1.656a.894.894,0,0,1,.741-1.024l6.09-.973a.217.217,0,0,1,.036,0,.226.226,0,0,1,.222.189l.37,2.316a1.449,1.449,0,0,1-.259,1.086" fill="#737373"/><path d="M217.426,94.529l-.032-.058c-.019-.035-.044-.068-.064-.1l-14.8,11.9a2.689,2.689,0,0,1-3.056.216.771.771,0,0,0-1.156.55l-.15,1.018a2.7,2.7,0,0,1-3.177,2.26l-17.284-3.281,3.184,6.456,17.166-.681a3,3,0,0,0,1.855-.737l18-15.642a4.05,4.05,0,0,0-.486-1.9" fill="#282828"/><path d="M139.75,126.55l6.1-4.373s-1.082,7.221-4.347,9.279a27.378,27.378,0,0,1-1.753-4.906" fill="#282828"/><path d="M430.832,109.144A24.805,24.805,0,0,0,393.226,87.9,43.3,43.3,0,0,0,340.9,130.236c0,.571.021,1.136.043,1.7A17.593,17.593,0,1,0,356.261,163.3a43.278,43.278,0,0,0,71.211-33.065,43.64,43.64,0,0,0-.669-7.547,24.685,24.685,0,0,0,4.029-13.545" fill="#b2b2b2"/><path d="M405.008,168.189l-.11-2.576a45.779,45.779,0,0,0-1.5-9.86l-.915-3.442-17.393-2.2-.047-2.334H365.787v11.3q0,5.259.363,10.5a43.282,43.282,0,0,0,38.858-1.394"/><path d="M375.721,86.1l-2.079,8.983a4.963,4.963,0,0,0,2.985-3.772l.5-3.016a1.614,1.614,0,0,0-.569-1.511Z" fill="#fff"/><path d="M372.048,66.84s-1.458,2.271-1.214,6.893c1.591-2.32,3.528-5.978,3.528-5.978Z" fill="#4d2f27"/><path d="M419.378,124.952l-18.123-21.939v0a7.216,7.216,0,0,0-3.747-2.506l-4.61-1.285a45.467,45.467,0,0,0-18.091-1.288l-5.167.675a7.2,7.2,0,0,0-3.852,1.754v0l0,.006a7.306,7.306,0,0,0-1.124,1.266l-12.4,13.975L339.594,97.75l-6.926,4.029,14.14,25.561a5.084,5.084,0,0,0,7.935,1.339l10.585-9.778,2.515,15.862-4.22,23.21s11.049,8.887,42.483,2.38c-2.176-10.012-3.358-15.474-5.4-20.8a14.052,14.052,0,0,1-.836-6.663l1.609-13.729,8.7,8.1-8.145,15.851,1.584,1.288a3.8,3.8,0,0,0,5.442-.683l10.427-14.06a3.773,3.773,0,0,0-.113-4.7" fill="#e6e6e6"/><path d="M391.48,98.428h0l-.369-.184a4.161,4.161,0,0,1-2.3-3.314l-.036-.358a12.919,12.919,0,0,0,7.587-11.764V76.625a12.93,12.93,0,0,0-25.86,0v6.183a12.927,12.927,0,0,0,7.777,11.855,4.38,4.38,0,0,1-1.486,2.765,50.52,50.52,0,0,0-7.158,1.183l6.543,6.814a10.989,10.989,0,0,0,15.3.536l6.023-5.451a28.666,28.666,0,0,0-6.028-2.082" fill="#bb9167"/><path d="M385.035,96.738l-3.589-1.829a8.11,8.11,0,0,1-4.261-5.582c-.191-.92-.4-1.97-.617-3.1l-2.538-.175a1.547,1.547,0,0,1-1.176-2.334l2.562-4.28c-.989-6.847,4.5-10.749,4.5-10.749s.335-1.185-.879-.78c1.087-1.807-.385-2.3-2.355-2.293a12.908,12.908,0,0,0-6.17,11.006v6.183a12.927,12.927,0,0,0,7.777,11.855c0,.032-.017.062-.021.094-.132.414-.761,2.267-1.588,2.655a32.812,32.812,0,0,0-7.035,1.2l2.514,2.617c2.511-.7,3.8-.431,6.121-.441,1.716-.008,2.368-1.392,2.861-3.037l.145-.526Z" fill="#d8b07f"/><path d="M383.847,80.129a1.183,1.183,0,1,1-1.183-1.183,1.183,1.183,0,0,1,1.183,1.183" fill="#043c40"/><path d="M373.174,80.129a1.184,1.184,0,1,1-1.184-1.183,1.184,1.184,0,0,1,1.184,1.183" fill="#043c40"/><path d="M374.078,88.2l.468,1.11a1.119,1.119,0,0,0,.967.681l1.455.081a3.525,3.525,0,0,0,1.983-.481l2.723-1.664-5.714.37Z" fill="#c446b4"/><path d="M374.078,88.2l.561-.674a.834.834,0,0,1,1.145-.132l.506.382.488-.415A1.225,1.225,0,0,1,378,87.143l.749.346a4.792,4.792,0,0,0,2,.437h.931l-4.781.844a2.575,2.575,0,0,1-.953-.072Z" fill="#b4009e"/><path d="M385.156,98.84l.031,2.316a.712.712,0,0,0,.827.767.94.94,0,0,0,.628-1.112l-.28-1.292a.636.636,0,0,0-.461-.509Z" fill="#d8b07f"/><path d="M372.154,101.228l-2.514-2.617a7.192,7.192,0,0,0-3.852,1.754h0l0,.006a7.181,7.181,0,0,0-1.123,1.265l-12.4,13.975-12.66-17.86-1.581.92s8.93,12.766,11.9,16.541a6,6,0,0,0,.943,6.607l2.293-5.528,1.348,5.528s7.55-8.36,9.978-12.27,7.682-8.32,7.682-8.32" fill="#fff"/><path d="M368.541,160.353l5.289-15.913a16.506,16.506,0,0,0-.978-12.739l-2.163-3.067a12.839,12.839,0,0,1-1.754-11.263l2.212-7.014-5.818,8.544,2.514,15.862-4.221,23.21a31.335,31.335,0,0,0,4.919,2.38" fill="#fff"/><path d="M385.56,78.284a.43.43,0,0,1-.293-.114,3.569,3.569,0,0,0-4.55-.573.43.43,0,1,1-.432-.744,4.424,4.424,0,0,1,5.568.685.431.431,0,0,1-.293.746" fill="#4d2f27"/><path d="M370.675,77.657a.431.431,0,0,1-.285-.753,3.115,3.115,0,0,1,3.574-.263.431.431,0,0,1-.438.742,2.267,2.267,0,0,0-2.566.165.424.424,0,0,1-.285.109" fill="#4d2f27"/><path d="M392.088,64.95c-2.813-1.681-6.221-2.92-9.424-1.989a48.3,48.3,0,0,1-13.024,1.387s1.96,6.384,8.417,4.519c12.129.645,12.346,8.693,12.346,8.693a42.522,42.522,0,0,0,.558,4.525l.351-3.234a2.024,2.024,0,1,1,4.022.46l-.267,2.218a3.065,3.065,0,0,1-2.846,2.691l-.794.051c.62,2.469,1.594,4.887,3.112,5.8,1.828-2.149,2.854-9.115,3.284-13.793a11.93,11.93,0,0,0-5.735-11.333" fill="#4d2f27"/><path d="M390.719,85.139l1.273,9.132a4.957,4.957,0,0,0,1.437-4.589l-.613-3a1.62,1.62,0,0,0-1.074-1.208Z" fill="#fff"/><polygon points="363.919 71.458 363.079 53.407 345.005 55.571 340.007 61.474 353.593 59.844 316.492 103.666 321.189 107.643 358.294 63.815 358.921 77.361 363.919 71.458" fill="#df6c47"/><path d="M336.511,83.764l-1-2.912a1.034,1.034,0,1,0-1.956.669l.351,1.027a.969.969,0,0,0-.952-.2l-.1.033a.983.983,0,0,0-.612,1.248l.863,2.522a.984.984,0,0,0,1.249.613l.095-.033a.983.983,0,0,0,.612-1.249l-.206-.6a1.031,1.031,0,0,0,1.648-1.117" fill="#d8b07f"/><path d="M332.238,84.909a.984.984,0,0,0-1.337-.384l-.087.05a.983.983,0,0,0-.383,1.337l1.293,2.33a.982.982,0,0,0,1.337.383l.088-.049a.984.984,0,0,0,.383-1.337Z" fill="#d8b07f"/><path d="M330.44,86.851h.192a.807.807,0,0,1,.807.807v1.8a.806.806,0,0,1-.806.806h-.191a.809.809,0,0,1-.809-.809v-1.8a.807.807,0,0,1,.807-.807Z" transform="translate(5.19 194.605) rotate(-33.052)" fill="#d8b07f"/><path d="M341.29,86.8l-2.474-4.7-.059.02a1.917,1.917,0,0,0-1.094,2.594l.86,1.9-1.25,2.027-6.731,7.95a12.033,12.033,0,0,0,3.378,4.456l5.674-3.3-.455-2.443,2.277-7.022a1.917,1.917,0,0,0-.126-1.484" fill="#d8b07f"/><path d="M381.674,86.47l2.083,1.154a1.392,1.392,0,0,0-2.083-1.154" fill="#d8b07f"/><polygon points="405.601 128.988 410.183 127.258 405.49 122.888 378.217 119.345 389.224 111.425 381.548 110.461 366.884 121.019 378.565 134.981 386.239 135.945 377.457 125.452 405.601 128.988" fill="#d83b01"/><polygon points="417.478 122.723 424.269 112.988 419.876 109.923 413.9 118.346 417.478 122.723" fill="#df6c47"/><polygon points="407.822 131.841 410.183 127.258 408.146 125.432 392.101 119.797 404.531 114.377 397.232 111.815 380.67 119.041 389.142 135.154 396.44 137.715 390.07 125.606 407.822 131.841" fill="#df6c47"/><path d="M435.013,144.936l-9.477-19.885-6.757-.852a4.833,4.833,0,0,1,.268,6.192l-.047.061,3.089.378,7.893,16.511Z" fill="#d83b01"/><polygon points="422.945 158.853 425.147 153.243 383.935 139.748 382.027 145.598 422.945 158.853" fill="#df6c47"/><path d="M402.038,143.108l-1.154.719a3.016,3.016,0,0,1-1.592.455h-1.757a3.131,3.131,0,0,0-2.456,1.19l-1.608,2.272-.392,2.916s1.779.481,2.075-1.81l.1-.433,1.105-.721-1.038,2.918a1.436,1.436,0,0,0,1.462,1.913l.923-.072.345.66a1.372,1.372,0,0,0,1.984.5l.363-.245.663.559a1.956,1.956,0,0,0,2.4.092l.639-.459.359-.018a2.4,2.4,0,0,0,2.1-1.481l.781-1.887a7.507,7.507,0,0,0,.5-1.85l.543-3.947c-2.149,1.273-4.357.729-6.114-1.045Z" fill="#bb9167"/></svg>