<svg xmlns="http://www.w3.org/2000/svg" viewBox="0 0 300 300"><title>MSC17-collaboration-008</title><path d="M300,0V300H0V0Z" fill="#d2d2d2"/><path d="M244.04,239.932H47.833a13.1,13.1,0,0,1-13.1-13.1V87.816H244.04Z" fill="#459bdd"/><path d="M154.6,111.843,177.76,92.31h6.553a10.463,10.463,0,0,0,8.594-4.493H164.176v9.036l-9.147,7.444-.429,7.546" fill="#1070c4"/><path d="M43.253,87.816V208.4l-8.523,9.529v8.9a13.1,13.1,0,0,0,9.383,12.56c1.546.957,11.237.591,17.427.591l19.614-10.037-9.7-142.126Z" fill="#1070c4"/><polygon points="235.906 230.103 131.921 230.103 131.921 227.9 233.703 227.9 233.703 98.7 71.902 98.7 71.902 96.497 235.906 96.497 235.906 230.103" fill="#49cdf3"/><polygon points="244.04 185.331 231.658 201.293 225.631 190.63 244.04 167.287 244.04 185.331" fill="#1070c4"/><polygon points="235.906 195.812 233.703 198.889 233.703 177.187 235.906 177.187 235.906 195.812" fill="#459bdd"/><line x1="71.9" y1="229.002" x2="103.642" y2="229.002" fill="none" stroke="#40cdf5" stroke-miterlimit="10" stroke-width="2.448"/><path d="M71.9,230.1H53.707c-9.286,0-15.056-6.137-15.056-16.013V96.5h33.4l.15,2.2H40.855v115.39c0,8.647,4.8,13.81,12.852,13.81H71.9Z" fill="#459bdd"/><path d="M54.074,59.909h-5.05A14.294,14.294,0,0,0,34.73,74.2V226.318a14.294,14.294,0,0,1,14.294-14.294H65.58Z" fill="#09538f"/><rect x="184.158" y="209.518" width="2.203" height="2.742" fill="#49cdf3"/><rect x="184.158" y="199.922" width="2.203" height="2.742" fill="#49cdf3"/><path d="M191.253,151.156a31.46,31.46,0,0,0-10.03-22.988,31.352,31.352,0,0,0-43.1,45.542,26.746,26.746,0,0,1,7.957,19.213v14.413a4.9,4.9,0,0,0,4.89,4.891h4.1v3.316h9.95v-3.316h3.787a4.9,4.9,0,0,0,4.891-4.891V194.571h.017v-1.647a27.6,27.6,0,0,1,8.332-19.583,31.129,31.129,0,0,0,9.206-22.185M171.5,207.336a2.69,2.69,0,0,1-2.688,2.687h-5.99v3.317h-5.545v-3.317h-6.3a2.69,2.69,0,0,1-2.688-2.687v-1.2h16.437v-2.2H148.284v-3.673h16.437v-2.2H148.284v-3.49H171.5Zm.046-15.515h-6.507l1.186-34.6.082-2.405.173-5.053a3.462,3.462,0,0,1,3.459-3.458h.1a3.462,3.462,0,0,1,3.459,3.458v.259a3.452,3.452,0,0,1-2.115,3.187,28.7,28.7,0,0,1-3.1,1.094l-.1,2.456a31.037,31.037,0,0,0,4.111-1.395,5.786,5.786,0,0,0,3.546-5.342v-.259a5.8,5.8,0,0,0-5.8-5.8h-.1a5.8,5.8,0,0,0-5.8,5.757l-.188,5.509a29.761,29.761,0,0,1-6.412.164l.113,2.35a32.136,32.136,0,0,0,6.217-.147l-1.173,34.227H157.1l-1.174-34.243h0l-.079-2.369h0l-.188-5.451a5.8,5.8,0,0,0-11.594,0V150a5.78,5.78,0,0,0,3.569,5.352l.153.064a31.37,31.37,0,0,0,5.787,1.772l1.187,34.632h-6.5a28.878,28.878,0,0,0-8.6-19.7,29.149,29.149,0,1,1,46.683-33.206h-1.353v2.2h2.27a29.069,29.069,0,0,1-6.764,30.66,29.85,29.85,0,0,0-8.95,20.039m-18.048-37.04a29.091,29.091,0,0,1-4.806-1.523l-.153-.064A3.448,3.448,0,0,1,146.4,150v-.243a3.459,3.459,0,1,1,6.918.04Z" fill="#49cdf3"/><rect x="78.598" y="142.012" width="33.738" height="2.203" fill="#49cdf3"/><rect x="78.598" y="149.355" width="33.738" height="2.203" fill="#49cdf3"/><rect x="78.598" y="156.7" width="33.738" height="2.203" fill="#49cdf3"/><rect x="78.598" y="164.044" width="33.738" height="2.203" fill="#49cdf3"/><rect x="164.176" y="138.919" width="2.972" height="2.203" fill="#49cdf3"/><rect x="169.378" y="138.919" width="2.972" height="2.203" fill="#49cdf3"/><rect x="174.581" y="138.919" width="2.973" height="2.203" fill="#49cdf3"/><rect x="179.783" y="138.919" width="2.972" height="2.203" fill="#49cdf3"/><rect x="190.188" y="138.919" width="2.972" height="2.203" fill="#49cdf3"/><rect x="195.389" y="138.919" width="2.972" height="2.203" fill="#49cdf3"/><rect x="200.495" y="132.598" width="2.202" height="14.847" fill="#49cdf3"/><rect x="159.77" y="132.598" width="2.202" height="14.847" fill="#49cdf3"/><rect x="184.157" y="204.72" width="2.203" height="2.742" fill="#49cdf3"/><rect x="184.158" y="195.18" width="2.203" height="2.742" fill="#49cdf3"/><rect x="177.835" y="191.348" width="14.847" height="2.203" fill="#49cdf3"/><rect x="177.835" y="213.714" width="14.847" height="2.203" fill="#49cdf3"/><rect x="121.406" y="178.07" width="2.202" height="2.972" fill="#49cdf3"/><rect x="121.406" y="172.868" width="2.202" height="2.972" fill="#49cdf3"/><rect x="121.406" y="167.665" width="2.202" height="2.973" fill="#49cdf3"/><rect x="121.406" y="183.272" width="2.202" height="2.972" fill="#49cdf3"/><rect x="121.406" y="146.857" width="2.202" height="2.972" fill="#49cdf3"/><rect x="121.406" y="162.463" width="2.202" height="2.972" fill="#49cdf3"/><rect x="121.406" y="131.25" width="2.202" height="2.972" fill="#49cdf3"/><rect x="121.406" y="126.048" width="2.202" height="2.972" fill="#49cdf3"/><rect x="121.406" y="136.452" width="2.202" height="2.972" fill="#49cdf3"/><rect x="121.406" y="152.059" width="2.202" height="2.972" fill="#49cdf3"/><rect x="121.406" y="157.262" width="2.202" height="2.972" fill="#49cdf3"/><rect x="121.406" y="141.655" width="2.202" height="2.973" fill="#49cdf3"/><rect x="115.085" y="121.019" width="14.846" height="2.203" fill="#49cdf3"/><path d="M137.492,239.932A25.412,25.412,0,0,0,140.6,204.5c-.282,2.85-.62,6.3-.868,8.964.06.156.124.312.18.471a20.077,20.077,0,0,1-12.223,25.629c-.39.138-.783.26-1.177.373Z" fill="#1070c4"/><path d="M104.484,239.932h10.964A20.058,20.058,0,0,1,102.5,228.448l-6.9-8.2a25.221,25.221,0,0,0,.648,6.091l-11.27,3.992,1.92,5.423,11.27-3.991a25.254,25.254,0,0,0,6.317,8.165" fill="#1070c4"/><path d="M138.68,230.124h5.857a16.2,16.2,0,0,0,.78-2.225h-5.64s-.71,1.706-1,2.225" fill="#459bdd"/><polygon points="93.533 230.124 101.141 230.124 100.794 227.899 92.925 227.899 93.533 230.124" fill="#459bdd"/><polygon points="172.801 96.493 164.196 96.493 161.907 98.7 170.278 98.7 172.801 96.493" fill="#459bdd"/><path d="M107.319,207.818a3.677,3.677,0,1,0-2.2,0V213l6.58,6.58v12.2h2.2V218.665l-6.579-6.58Zm-1.1-4.963a1.473,1.473,0,1,1-1.474,1.473,1.474,1.474,0,0,1,1.474-1.473" fill="#49cdf3"/><path d="M129.8,214.471a3.648,3.648,0,0,0-3.247,5.365l-4.7,4.7v-8.872l5.631-5.631V206.6a3.676,3.676,0,1,0-2.2,0v2.517l-4.53,4.529-3.765-3.765v-8.517a3.676,3.676,0,1,0-2.2,0v9.429l4.867,4.867v18.1h2.2v-6.112l6.256-6.255a3.636,3.636,0,0,0,1.688.43,3.677,3.677,0,0,0,0-7.353m-3.414-12.832a1.473,1.473,0,1,1-1.473,1.473,1.476,1.476,0,0,1,1.473-1.473m-10.5-5.236a1.473,1.473,0,1,1-1.474,1.472,1.475,1.475,0,0,1,1.474-1.472M129.8,219.621a1.474,1.474,0,1,1,1.473-1.473,1.475,1.475,0,0,1-1.473,1.473" fill="#49cdf3"/><path d="M83.96,226.945l11.27-3.991a25.388,25.388,0,1,0-1.922-5.423l-11.269,3.991Zm15.164-8.422a20.077,20.077,0,1,1,25.627,12.223,20.076,20.076,0,0,1-25.627-12.223" fill="#e6e6e6"/><path d="M95.359,245.167l-2.5-21.373-8.5,3.009-2.927-6.552s3.948-.688,4.193,0l.937-.331,3.865-1.369a6.837,6.837,0,0,0-5-1.66l-5.318.4-1.833-4.1a4.266,4.266,0,0,0-5.848-1.848,4.339,4.339,0,0,0-2.409,5.153l.84,3.782-1.7-3.2a3.025,3.025,0,0,0-3.926-1.193,3.106,3.106,0,0,0-1.882,3.535l.781,3.035-.536-.707a3.65,3.65,0,0,0-6.337,3.075l.093.356-1.109.16a4.093,4.093,0,0,0-3.584,4.512l-1.633,1.417a7.036,7.036,0,0,0-2.471,6.316L51.206,255l.017-.007a78.761,78.761,0,0,0,2.932,12.75l1.48,3.544L51.586,300h31.5l-3.122-29.041,11.569-13.714a16.492,16.492,0,0,0,3.823-12.078" fill="#f6caa7"/><path d="M88.948,226.652,86.1,218.61a1.323,1.323,0,0,0-1.688-.806L80.9,219.05l4.574,10.237,2.673-.947a1.321,1.321,0,0,0,.8-1.688" fill="#c2c2c2"/><path d="M92.835,223.8l-4.35,1.541.463,1.309a1.321,1.321,0,0,1-.806,1.688l-2.672.947s2.3,3.5,5.225,2.3l2.922-1.286Z" fill="#deb695"/><path d="M221.511,16.313c-1.191-1.112-16.14-8.768-16.14-8.768L181.792,31.333a7.906,7.906,0,0,1-2.705,1.787L148.323,45.337a4.788,4.788,0,0,0-2.228,1.815l-7.318,11.127a2.305,2.305,0,0,0-.2,2.166l2.5,5.911-.107.262a3.186,3.186,0,0,0-.23,1.4l.781,12.3a3.342,3.342,0,0,0,.282,1.314l4.684,10.637,1.649-.757a4.012,4.012,0,0,0,.6-.337l1.428,6.11,1.818-.529a5.69,5.69,0,0,0,3.7-3.37L168.144,90.4l12.362-12.313L194.26,50.718a7.923,7.923,0,0,1,3.3-3.408l22.526-18.086s2.613-11.8,1.423-12.911m-58.776,67.81L158.8,85.386a5.579,5.579,0,0,0-3.156,2.3l-.691-5.068,2.072-11.037,1.237-3.468,1.937-.354a6.328,6.328,0,0,1,7.462,6.059l.045,1.694Z" fill="#72594b"/><path d="M151.52,96.891l-2.665-12.162a4.321,4.321,0,0,1-.07-1.4l1.04-9.016a5.775,5.775,0,0,1,3.147-4.435l5.9-2.952L155.4,93.455a3.687,3.687,0,0,1-2.6,3.052Z" fill="#665042"/><path d="M190.506,25.017A34.982,34.982,0,0,0,195.1,43.8a17.273,17.273,0,0,1-5.512,4.134,15.365,15.365,0,0,0-7.221,7.891l-7.9,20.464a3.853,3.853,0,0,1-.669,1.121l-6.327,7.382a3.857,3.857,0,0,1-1.867,1.2l-10.637,3.039a5.554,5.554,0,0,0-.284,1.826l.032,2.765,13.428-3.22,12.362-12.314,13.753-27.365a7.931,7.931,0,0,1,3.3-3.408l9.347-7.505Z" fill="#665042"/><path d="M159.517,67.881l2.913-10.73,1.624.331a3.278,3.278,0,0,1,2.491,4.137l-2.031,6.9a6.912,6.912,0,0,0-5-.638" fill="#665042"/><polygon points="152.704 103.543 158.14 104.062 163.491 48.249 160.886 46.814 158.056 47.73 152.704 103.543" fill="#edac28" fill-rule="evenodd"/><polygon points="154.33 112.061 152.703 103.544 158.14 104.062 154.933 112.118 154.33 112.061" fill="#fff" fill-rule="evenodd"/><polygon points="153.774 109.154 154.33 112.06 154.934 112.119 156.027 109.369 153.774 109.154" fill-rule="evenodd"/><path d="M158.056,47.731l5.436.518.3-3.2a.777.777,0,0,0-.7-.848l-3.888-.37a.779.779,0,0,0-.849.7Z" fill="#df6c47" fill-rule="evenodd"/><rect x="158.518" y="47.31" width="4.12" height="5.461" transform="translate(95.518 205.142) rotate(-84.552)" fill="#b2b2b2"/><path d="M188.739,21.58l.668,1.737a37.363,37.363,0,0,0,15.724,18.676L249.209,7.545l-39.646-5.62Z" fill="#fff"/><path d="M209.016,31.261c2.034-1.876,3.539-3.044,3.539-3.044L196.07,15.488l-2.45,1.156s-2.088,8.049,6.926,16.133l-3.222,2.994a37.365,37.365,0,0,0,7.807,6.222l8.43-6.588Z" fill="#f3f3f3"/><path d="M192.835,14.6l.786,2.043a43.93,43.93,0,0,0,18.493,21.968L265.271,0H209.308Z"/><path d="M168.144,90.4l-13.429,3.22-.134-2.454a5.82,5.82,0,0,1,4.216-5.916l3.938-1.124Z" fill="#72594b"/><path d="M168.144,90.4l-13.429,3.22-.134-2.454s4.973-5.043,10.242-4.939a4.722,4.722,0,0,1,3.391,2.453Z" fill="#665042"/><path d="M154.7,93.618l-.256-3.011,2.534-.638a1.736,1.736,0,0,1,2.131,1.481l.13,1.082Z" fill="#8e7a6f"/><path d="M150.163,97.287l-1.029-4.407h.483a2.746,2.746,0,0,1,2.654,2.037l.433,1.62Z" fill="#8e7a6f"/><path d="M146.491,92.27l-1.779-4.04.347-.164a2.135,2.135,0,0,1,2.882,1.116l.816,2.085Z" fill="#8e7a6f"/><polygon points="141.08 66.357 146.735 53.674 139.171 61.842 141.08 66.357" fill="#665042"/><path d="M146.92,72.712l3.738-8.552-4.028,3.8a7.237,7.237,0,0,0-2.066,7l2.17,8.837Z" fill="#665042"/><rect x="173.53" y="175.434" width="104.281" height="16.251" transform="translate(-59.219 242.376) rotate(-50.79)" fill="#c2c2c2"/><rect x="220.727" y="198.086" width="1.669" height="2.605" transform="translate(-73.007 244.936) rotate(-50.775)" fill="#939393"/><rect x="223.109" y="195.166" width="1.67" height="2.605" transform="translate(-69.849 245.831) rotate(-50.799)" fill="#939393"/><rect x="218.344" y="201.005" width="1.67" height="2.606" transform="translate(-76.137 244.22) rotate(-50.785)" fill="#939393"/><rect x="214.325" y="200.476" width="1.67" height="6.831" transform="translate(-78.839 241.711) rotate(-50.79)" fill="#939393"/><polyline points="226.807 195.02 221.514 190.701 222.57 189.407 227.863 193.726" fill="#939393"/><rect x="230.255" y="186.407" width="1.67" height="2.605" transform="translate(-60.432 248.146) rotate(-50.799)" fill="#939393"/><rect x="232.637" y="183.487" width="1.67" height="2.606" transform="translate(-57.307 248.851) rotate(-50.785)" fill="#939393"/><rect x="227.873" y="189.327" width="1.669" height="2.605" transform="translate(-63.594 247.252) rotate(-50.775)" fill="#939393"/><polyline points="236.336 183.341 231.043 179.022 232.099 177.728 237.392 182.047" fill="#939393"/><rect x="239.772" y="174.743" width="1.669" height="2.605" transform="translate(-47.909 251.163) rotate(-50.785)" fill="#939393"/><rect x="242.154" y="171.823" width="1.67" height="2.606" transform="translate(-44.771 251.935) rotate(-50.785)" fill="#939393"/><rect x="237.39" y="177.663" width="1.669" height="2.605" transform="translate(-51.044 250.403) rotate(-50.788)" fill="#939393"/><polyline points="245.853 171.677 240.56 167.358 241.615 166.064 246.908 170.383" fill="#939393"/><rect x="249.301" y="163.065" width="1.669" height="2.605" transform="translate(-35.373 254.197) rotate(-50.775)" fill="#939393"/><rect x="251.683" y="160.145" width="1.67" height="2.605" transform="translate(-32.196 255.088) rotate(-50.799)" fill="#939393"/><rect x="246.919" y="165.984" width="1.67" height="2.606" transform="translate(-38.494 253.479) rotate(-50.785)" fill="#939393"/><polyline points="255.382 159.998 250.089 155.679 251.144 154.386 256.437 158.705" fill="#939393"/><rect x="258.83" y="151.386" width="1.67" height="2.605" transform="translate(-22.779 257.403) rotate(-50.799)" fill="#939393"/><rect x="261.212" y="148.466" width="1.67" height="2.606" transform="translate(-19.665 258.11) rotate(-50.785)" fill="#939393"/><rect x="256.447" y="154.306" width="1.669" height="2.605" transform="translate(-25.96 256.513) rotate(-50.775)" fill="#939393"/><rect x="211.198" y="209.764" width="1.67" height="2.606" transform="translate(-85.551 241.905) rotate(-50.785)" fill="#939393"/><rect x="213.58" y="206.844" width="1.67" height="2.606" transform="translate(-82.413 242.676) rotate(-50.785)" fill="#939393"/><rect x="208.816" y="212.684" width="1.669" height="2.605" transform="translate(-88.688 241.145) rotate(-50.788)" fill="#939393"/><path d="M216.6,193.112l-2.471-8.174a4.225,4.225,0,1,0-8.054,2.549l1.781,5.161-1.054-2.462a4.3,4.3,0,1,0-7.851,3.509l3.842,8.226L199.5,197.3a3.828,3.828,0,1,0-6.178,4.519l4.758,6.164a3.668,3.668,0,0,0,6.379-3.426,4.131,4.131,0,0,0,6.437-4.811l-1.155-2.7a4.058,4.058,0,0,0,6.86-3.933" fill="#ce9c5f"/><path d="M234.251,236.126l4.976-10.491a16.485,16.485,0,0,0,.616-12.654L231.09,187.71l-15.309-10.845-1.533,2.754a5.247,5.247,0,0,0,1.125,6.17l5.752,5.356,1.038,10.8-1.447.543L202.742,239.6l3.016,5.721,3.2,4.182.13-.024L220.7,300H256.69Z" fill="#ce9c5f"/><path d="M217.77,209.754l4.311-7.736L222,200.906,199,229.1l-1.617-1.32a34.628,34.628,0,0,0,5.355,11.819l3.233-.746a12.035,12.035,0,0,0,8.544-7.461,9,9,0,0,0,4.661,1.736s-4.744-4.065-4.272-14.067a23.36,23.36,0,0,1,2.862-9.3" fill="#ba8c57"/><path d="M196.149,206.387l4.431,5.148a3.229,3.229,0,0,1-4.811,4.306l-4.656-5.006a3.361,3.361,0,1,1,5.036-4.448" fill="#ce9c5f"/><path d="M206.249,199.625h0a2.637,2.637,0,0,0-1.344,3.477l.625,1.412,4.821-2.133-.625-1.413a2.636,2.636,0,0,0-3.477-1.343" fill="#d8b094"/><path d="M211.818,192.439h0a2.636,2.636,0,0,0-1.343,3.477l.624,1.412,4.821-2.133-.625-1.412a2.636,2.636,0,0,0-3.477-1.344" fill="#d8b094"/><path d="M199.462,203.969h0a2.636,2.636,0,0,0-.571,3.683l.912,1.247,4.254-3.112-.911-1.247a2.638,2.638,0,0,0-3.684-.571" fill="#d8b094"/><path d="M196.835,212.348h0a1.846,1.846,0,0,0-.087,2.609l1.049,1.121,2.7-2.521-1.049-1.122a1.847,1.847,0,0,0-2.609-.087" fill="#d8b094"/><path d="M216.211,177.188l-.8,1.778a5.48,5.48,0,0,0,5.042,1.212c-.888-.63-4.246-2.99-4.246-2.99" fill="#d8b094"/><path d="M234.259,236.11h0a40.963,40.963,0,0,0-.57,21.356L245.112,300h11.7Z" fill="#ba8c57"/><polygon points="80.089 217.292 80.896 219.05 83.442 218.147 83.166 217.061 80.089 217.292" fill="#deb695"/><path d="M58.522,300l3.657-27.218a7.314,7.314,0,0,0-2.169-6.238c-4.6-4.384-6.156-7.529-6.548-10.913l-2.78-24.023a6.972,6.972,0,0,0-2.127,5.978L51.205,255l.017-.006a78.846,78.846,0,0,0,2.933,12.748l1.48,3.545L51.554,300Z" fill="#deb695"/></svg>