<svg xmlns="http://www.w3.org/2000/svg" xmlns:xlink="http://www.w3.org/1999/xlink" viewBox="0 0 300 300"><defs><clipPath id="a"><path d="M64.28,181.582l1.428,1.468a25.884,25.884,0,0,0,12.93,7.214l9.5,2.11,1.325-3.029-17.039-8.709-2.272-1.7Z" fill="none"/></clipPath></defs><title>MSC17-business-007</title><path d="M300,0V300H0V0Z" fill="#40cdf5"/><path d="M270.4,211.845h-6.478v-1.64H270.4Zm-8.064,0h-6.479v-1.64h6.479Zm-8.065,0H247.8v-1.64h6.478Zm-8.064,0h-6.478v-1.64h6.478Zm-8.064,0h-6.479v-1.64h6.479Zm-8.065,0h-6.478v-1.64h6.478Zm-8.064,0h-6.478v-1.64h6.478Zm-8.064,0h-6.479v-1.64h6.479Zm-8.065,0h-6.478v-1.64h6.478Zm-8.064,0h-6.478v-1.64h6.478Zm-8.064,0h-6.479v-1.64h6.479Zm-8.064,0h-6.479v-1.64H181.7Zm-8.065,0h-6.478v-1.64h6.478Zm-8.065,0H159.09v-1.64h6.478Zm-8.064,0h-6.479v-1.64H157.5Zm-8.064,0h-6.478v-1.64h6.478Zm-8.065,0H134.9v-1.64h6.478Zm-8.063,0h-6.479v-1.64h6.479Zm-8.065,0h-6.479v-1.64h6.479Zm-8.065,0H110.7v-1.64h6.478Zm-8.064,0H102.64v-1.64h6.478Z" fill="#1db0e0"/><path d="M270.4,236.445h-6.478v-1.64H270.4Zm-8.064,0h-6.479v-1.64h6.479Zm-8.065,0H247.8v-1.64h6.478Zm-8.064,0h-6.478v-1.64h6.478Zm-8.064,0h-6.479v-1.64h6.479Zm-8.065,0h-6.478v-1.64h6.478Zm-8.064,0h-6.478v-1.64h6.478Zm-8.064,0h-6.479v-1.64h6.479Zm-8.065,0h-6.478v-1.64h6.478Zm-8.064,0h-6.478v-1.64h6.478Zm-8.064,0h-6.479v-1.64h6.479Zm-8.064,0h-6.479v-1.64H181.7Zm-8.065,0h-6.478v-1.64h6.478Zm-8.065,0H159.09v-1.64h6.478Zm-8.064,0h-6.479v-1.64H157.5Zm-8.064,0h-6.478v-1.64h6.478Zm-8.065,0H134.9v-1.64h6.478Zm-8.063,0h-6.479v-1.64h6.479Zm-8.065,0h-6.479v-1.64h6.479Zm-8.065,0H110.7v-1.64h6.478Zm-8.064,0H102.64v-1.64h6.478Z" fill="#1db0e0"/><path d="M270.4,187.247h-6.478v-1.64H270.4Zm-8.064,0h-6.479v-1.64h6.479Zm-8.065,0H247.8v-1.64h6.478Zm-8.064,0h-6.478v-1.64h6.478Zm-8.064,0h-6.479v-1.64h6.479Zm-8.065,0h-6.478v-1.64h6.478Zm-8.064,0h-6.478v-1.64h6.478Zm-8.064,0h-6.479v-1.64h6.479Zm-8.065,0h-6.478v-1.64h6.478Zm-8.064,0h-6.478v-1.64h6.478Zm-8.064,0h-6.479v-1.64h6.479Zm-8.064,0h-6.479v-1.64H181.7Zm-8.065,0h-6.478v-1.64h6.478Zm-8.065,0H159.09v-1.64h6.478Zm-8.064,0h-6.479v-1.64H157.5Zm-8.064,0h-6.478v-1.64h6.478Zm-8.065,0H134.9v-1.64h6.478Zm-8.063,0h-6.479v-1.64h6.479Zm-8.065,0h-6.479v-1.64h6.479Zm-8.065,0H110.7v-1.64h6.478Zm-8.064,0H102.64v-1.64h6.478Z" fill="#1db0e0"/><path d="M270.4,162.648h-6.478v-1.64H270.4Zm-8.064,0h-6.479v-1.64h6.479Zm-8.065,0H247.8v-1.64h6.478Zm-8.064,0h-6.478v-1.64h6.478Zm-8.064,0h-6.479v-1.64h6.479Zm-8.065,0h-6.478v-1.64h6.478Zm-8.064,0h-6.478v-1.64h6.478Zm-8.064,0h-6.479v-1.64h6.479Zm-8.065,0h-6.478v-1.64h6.478Zm-8.064,0h-6.478v-1.64h6.478Zm-8.064,0h-6.479v-1.64h6.479Zm-8.064,0h-6.479v-1.64H181.7Zm-8.065,0h-6.478v-1.64h6.478Zm-8.065,0H159.09v-1.64h6.478Zm-8.064,0h-6.479v-1.64H157.5Zm-8.064,0h-6.478v-1.64h6.478Zm-8.065,0H134.9v-1.64h6.478Zm-8.063,0h-6.479v-1.64h6.479Zm-8.065,0h-6.479v-1.64h6.479Zm-8.065,0H110.7v-1.64h6.478Zm-8.064,0H102.64v-1.64h6.478Z" fill="#1db0e0"/><path d="M270.4,138.05h-6.478v-1.64H270.4Zm-8.064,0h-6.479v-1.64h6.479Zm-8.065,0H247.8v-1.64h6.478Zm-8.064,0h-6.478v-1.64h6.478Zm-8.064,0h-6.479v-1.64h6.479Zm-8.065,0h-6.478v-1.64h6.478Zm-8.064,0h-6.478v-1.64h6.478Zm-8.064,0h-6.479v-1.64h6.479Zm-8.065,0h-6.478v-1.64h6.478Zm-8.064,0h-6.478v-1.64h6.478Zm-8.064,0h-6.479v-1.64h6.479Zm-8.064,0h-6.479v-1.64H181.7Zm-8.065,0h-6.478v-1.64h6.478Zm-8.065,0H159.09v-1.64h6.478Zm-8.064,0h-6.479v-1.64H157.5Zm-8.064,0h-6.478v-1.64h6.478Zm-8.065,0H134.9v-1.64h6.478Zm-8.063,0h-6.479v-1.64h6.479Zm-8.065,0h-6.479v-1.64h6.479Zm-8.065,0H110.7v-1.64h6.478Zm-8.064,0H102.64v-1.64h6.478Z" fill="#1db0e0"/><path d="M42.344,256.164H256.9a2.684,2.684,0,1,0,0-5.368H42.344a2.684,2.684,0,1,0,0,5.368" fill="#1db0e0"/><polygon points="134.001 253.638 122.676 253.638 114.894 243.987 114.894 232 141.689 232 141.689 244.501 134.001 253.638" fill="#fff"/><polygon points="183.738 189.53 163.908 189.53 163.908 183.198 156.213 186.523 156.213 189.53 149.299 189.53 149.299 192.725 150.697 192.725 150.697 253.638 182.34 253.638 182.34 192.725 183.738 192.725 183.738 189.53" fill="#1070c4"/><polygon points="255.148 105.938 255.148 101.609 247.775 101.609 247.775 97.836 244.15 92.921 244.15 78.745 242.886 78.745 242.886 92.921 239.26 97.836 239.26 101.609 231.888 101.609 231.888 105.938 227.945 105.938 227.945 253.638 259.588 253.638 259.588 105.938 255.148 105.938" fill="#1070c4"/><rect x="231.887" y="133.261" width="5.502" height="8.965" fill="#09538f"/><rect x="240.766" y="133.261" width="5.502" height="8.965" fill="#09538f"/><rect x="249.646" y="133.261" width="5.502" height="8.965" fill="#09538f"/><rect x="231.887" y="121.445" width="5.502" height="8.965" fill="#09538f"/><rect x="240.766" y="121.445" width="5.502" height="8.965" fill="#09538f"/><rect x="249.646" y="121.445" width="5.502" height="8.965" fill="#09538f"/><rect x="231.887" y="109.628" width="5.502" height="8.965" fill="#09538f"/><rect x="240.766" y="109.628" width="5.502" height="8.965" fill="#09538f"/><rect x="249.646" y="109.628" width="5.502" height="8.965" fill="#09538f"/><rect x="231.887" y="145.078" width="5.502" height="8.965" fill="#09538f"/><rect x="240.766" y="145.078" width="5.502" height="8.965" fill="#09538f"/><rect x="249.646" y="145.078" width="5.502" height="8.965" fill="#09538f"/><rect x="231.887" y="156.893" width="5.502" height="8.966" fill="#09538f"/><rect x="240.766" y="156.893" width="5.502" height="8.966" fill="#09538f"/><rect x="249.646" y="156.893" width="5.502" height="8.966" fill="#09538f"/><rect x="231.887" y="168.709" width="5.502" height="8.966" fill="#09538f"/><rect x="240.766" y="168.709" width="5.502" height="8.966" fill="#09538f"/><rect x="249.646" y="168.709" width="5.502" height="8.966" fill="#09538f"/><rect x="231.887" y="180.526" width="5.502" height="8.965" fill="#09538f"/><rect x="240.766" y="180.526" width="5.502" height="8.965" fill="#09538f"/><rect x="249.646" y="180.526" width="5.502" height="8.965" fill="#09538f"/><rect x="231.887" y="192.342" width="5.502" height="8.965" fill="#09538f"/><rect x="240.766" y="192.342" width="5.502" height="8.965" fill="#09538f"/><rect x="249.646" y="192.342" width="5.502" height="8.965" fill="#09538f"/><rect x="231.887" y="204.158" width="5.502" height="8.965" fill="#09538f"/><rect x="240.766" y="204.158" width="5.502" height="8.965" fill="#09538f"/><rect x="249.646" y="204.158" width="5.502" height="8.965" fill="#09538f"/><rect x="231.887" y="215.975" width="5.502" height="8.965" fill="#09538f"/><rect x="240.766" y="215.975" width="5.502" height="8.965" fill="#09538f"/><rect x="249.646" y="215.975" width="5.502" height="8.965" fill="#09538f"/><rect x="231.887" y="227.791" width="5.502" height="8.966" fill="#09538f"/><rect x="240.766" y="227.791" width="5.502" height="8.966" fill="#09538f"/><rect x="249.646" y="227.791" width="5.502" height="8.966" fill="#09538f"/><rect x="231.887" y="239.607" width="5.502" height="8.966" fill="#09538f"/><rect x="240.766" y="239.607" width="5.502" height="8.966" fill="#09538f"/><rect x="249.646" y="239.607" width="5.502" height="8.966" fill="#09538f"/><path d="M176.339,253.638H156.7v-4.211a9.82,9.82,0,0,1,19.64,0Z" fill="#09538f"/><path d="M157.688,225.488h0a2.98,2.98,0,0,1,2.981,2.981v7.855h-5.963v-7.855a2.981,2.981,0,0,1,2.982-2.981" fill="#09538f"/><path d="M175.349,225.488h0a2.981,2.981,0,0,1,2.982,2.981v7.855h-5.963v-7.855a2.98,2.98,0,0,1,2.981-2.981" fill="#09538f"/><path d="M166.519,225.488h0a2.981,2.981,0,0,1,2.981,2.981v7.855h-5.963v-7.855a2.981,2.981,0,0,1,2.982-2.981" fill="#09538f"/><path d="M157.688,210.394h0a2.98,2.98,0,0,1,2.981,2.981v7.855h-5.963v-7.855a2.981,2.981,0,0,1,2.982-2.981" fill="#09538f"/><path d="M175.349,210.394h0a2.981,2.981,0,0,1,2.982,2.981v7.855h-5.963v-7.855a2.98,2.98,0,0,1,2.981-2.981" fill="#09538f"/><path d="M166.519,210.394h0a2.981,2.981,0,0,1,2.981,2.981v7.855h-5.963v-7.855a2.981,2.981,0,0,1,2.982-2.981" fill="#09538f"/><path d="M157.688,195.3h0a2.981,2.981,0,0,1,2.981,2.982v7.854h-5.963v-7.854a2.982,2.982,0,0,1,2.982-2.982" fill="#09538f"/><path d="M175.349,195.3h0a2.982,2.982,0,0,1,2.982,2.982v7.854h-5.963v-7.854a2.981,2.981,0,0,1,2.981-2.982" fill="#09538f"/><path d="M166.519,195.3h0a2.982,2.982,0,0,1,2.981,2.982v7.854h-5.963v-7.854a2.982,2.982,0,0,1,2.982-2.982" fill="#09538f"/><rect x="188.878" y="153.601" width="31.642" height="100.038" fill="#1070c4"/><rect x="188.878" y="166.032" width="31.642" height="6.516" fill="#09538f"/><rect x="188.878" y="178.462" width="31.642" height="6.516" fill="#09538f"/><rect x="188.878" y="190.893" width="31.642" height="6.516" fill="#09538f"/><rect x="188.878" y="203.323" width="31.642" height="6.516" fill="#09538f"/><rect x="188.878" y="215.754" width="31.642" height="6.516" fill="#09538f"/><rect x="188.878" y="228.185" width="31.642" height="6.516" fill="#09538f"/><rect x="188.878" y="240.615" width="31.642" height="6.516" fill="#09538f"/><polygon points="213.927 153.601 213.927 142.912 212.15 142.912 212.15 153.601 197.057 153.601 197.057 142.912 195.28 142.912 195.28 153.601 188.877 153.601 188.877 160.117 220.52 160.117 220.52 153.601 213.927 153.601" fill="#09538f"/><path d="M137.165,219.012v-3.773l-8.827-3.481-8.825,3.481v3.773h-7v34.626h10.159v-8.983H134v8.983H144.16V219.012ZM119.513,241.5h-3.658V235.88h3.658Zm0-7.1h-3.658v-5.624h3.658Zm0-7.1h-3.658v-5.624h3.658ZM124.84,241.5h-3.658V235.88h3.658Zm0-7.1h-3.658v-5.624h3.658Zm0-7.1h-3.658v-5.624h3.658Zm5.328,14.206H126.51V235.88h3.658Zm0-7.1H126.51v-5.624h3.658Zm0-7.1H126.51v-5.624h3.658ZM135.5,241.5h-3.657V235.88H135.5Zm0-7.1h-3.657v-5.624H135.5Zm0-7.1h-3.657v-5.624H135.5Zm5.327,14.206h-3.657V235.88h3.657Zm0-7.1h-3.657v-5.624h3.657Zm0-7.1h-3.657v-5.624h3.657Z" fill="#1070c4"/><path d="M190.829,94.02a6.794,6.794,0,0,0-4.88,2.06c.024-.313.04-.629.04-.948a12.509,12.509,0,0,0-23.33-6.275v-.07A18.854,18.854,0,1,0,125.338,92.6a10.129,10.129,0,1,0-8.856,15.045h74.347a6.811,6.811,0,0,0,0-13.621" fill="#1db0e0"/><path d="M235.293,53.7a4.9,4.9,0,0,0-2.1.476c.007-.158.012-.316.012-.476a9.863,9.863,0,0,0-19.687-.88,6.729,6.729,0,1,0-5.4,10.744h27.18a4.932,4.932,0,0,0,0-9.864" fill="#1db0e0"/><path d="M105.575,201.148h0a2.381,2.381,0,0,0,2.382-2.382v-4.14a2.38,2.38,0,0,0-2.382-2.38Z" fill="#f3f3f3"/><polygon points="89.887 190.324 101.089 196.681 100.644 197.466 88.768 190.701 89.887 190.324" fill="#d2d2d2"/><polygon points="67.06 181.22 51.694 184.241 59.831 168.347 65.075 176.127 67.06 181.22"/><path d="M74.959,155.95a4.081,4.081,0,0,0-3.9,2.913,2.845,2.845,0,0,0-3.743,4.181c-.039,0-.075-.012-.114-.012a3.339,3.339,0,1,0,3.333,3.4,2.368,2.368,0,0,0,.508.058,2.28,2.28,0,0,0,2.3-2.681,4.094,4.094,0,1,0,1.614-7.856"/><path d="M61.912,253.01l-2.752-4.171a9.979,9.979,0,0,1-1.582-4.343l-.342-2.951-6.33-.092.719,5.447L59,255.085Z" fill="#665042"/><path d="M50.326,253.541l1.023,2.522h1.784l-.057-2.522a9.078,9.078,0,0,1,5.466,2.47l.116.11h7.635a.561.561,0,0,0,.34-1.007c-1.17-.909-3.029-2.1-4.721-2.1l-2.852,1.27-7.435-7.38a19.853,19.853,0,0,0-1.3,6.641"/><path d="M53.682,253.01l-2.752-4.171a9.992,9.992,0,0,1-1.582-4.343l-.342-2.951-6.33-.092L43.4,246.9l7.379,8.185Z" fill="#72594b"/><path d="M38,182.1l-4.579,8.1c-1.429,5.24,2.213,8.043,4.579,12.933l11.8,41.586h10.03s-7.955-26.481-7.955-47.063l.31-12.38Z"/><path d="M103.718,195.7a34.784,34.784,0,0,0-3.892.172l-7.3-4.143,3.17-7.625-3.123-1.771,3.435-6.053a1.537,1.537,0,0,0-.578-2.1l-1.536-.872a1.537,1.537,0,0,1,.578,2.1l-3.435,6.052-5.271-2.991-15.131,20.4a1.247,1.247,0,0,0,.386,1.827l13.159,7.468a1.247,1.247,0,0,0,1.766-.606l1.133-2.723c5.824-5.064,13.32-6.749,16.618-7.267a6.5,6.5,0,0,0,2.4,4.231V191.6a6.5,6.5,0,0,0-2.381,4.1m-11.547-3.12,6.126,3.477a28.618,28.618,0,0,0-8.645,2.58Z" fill="#d2d2d2"/><path d="M87.546,181.847a.862.862,0,0,0,1.429-.137l4.044-7.127a1.538,1.538,0,0,1,2.1-.577l-1.536-.872a1.537,1.537,0,0,0-2.1.579l-3.435,6.052-2.033-1.154-2.874-1.631a5.5,5.5,0,0,0-8.215,4.88l.19,10.962-4.483,6.043a1.247,1.247,0,0,0,.386,1.827l10.546,5.985,5.66-23.5,7.164,4.064.287-.689-7.27-4.125ZM76.3,191.233l-.162-9.394a4.294,4.294,0,0,1,6.412-3.809l2.5,1.416Z" fill="#f3f3f3"/><path d="M65.071,153.924c.827-.113,1.647-.223,2.362-.317a9.443,9.443,0,0,1,2.22-8.32,9.593,9.593,0,0,1,14.125.063c3.179,3.41,3.023,7.3,1.668,10.763l-.416,1.643a8.724,8.724,0,0,0-.266,2.211l.014,1.729c-.011.448-.438.641-.876.376l-1.051-.682a.386.386,0,0,0-.518.092c-.662.873-1.323,1.647-1.909,2.288a2.9,2.9,0,0,1-4.058.214c-.992-.874-2.2-1.944-3.31-2.924a2,2,0,0,0-1.852-.43,25.32,25.32,0,0,0-2.89.994c-2.635,1.081-4.8-2.779-4.8-2.779Z" fill="#72594b"/><path d="M80.763,163.392l-.829-1.055-.94.861a2.125,2.125,0,0,1-2.573-.205l-2.007-1.669a5.884,5.884,0,0,0-5.873-.968l-2.649,1.017a2.644,2.644,0,0,0,2.422.251,25.652,25.652,0,0,1,2.89-.994,2,2,0,0,1,1.852.431c1.106.979,2.318,2.049,3.31,2.924a2.9,2.9,0,0,0,4.058-.215c.11-.12.224-.249.339-.378" fill="#665042"/><path d="M80.986,151.425a2.907,2.907,0,0,0-4.874-2.152,3.812,3.812,0,0,0-5.206,4.524,2.6,2.6,0,0,0-2.278,1.728,2.282,2.282,0,1,0,.475,2.563,2.6,2.6,0,0,0,4.586-1.558,3.782,3.782,0,0,0,4.44-2.194,2.914,2.914,0,0,0,2.857-2.911" fill="#665042"/><path d="M80.551,163.649s-1.751-1.106-.532-3.746a29.694,29.694,0,0,1,.87,3.4Z" fill="#eb4f5d"/><path d="M81.95,161.991,80.018,159.9a3.939,3.939,0,0,0,.872,3.4c.337-.4,1.06-1.311,1.06-1.311" fill="#fff"/><path d="M78.653,159.857a1.675,1.675,0,0,1,2.785,0Z" fill="#665042"/><path d="M62.369,155.427a2.06,2.06,0,1,1-2.06-2.061,2.06,2.06,0,0,1,2.06,2.061"/><path d="M70.678,175.833l4.3-1.7a2.339,2.339,0,0,1,2.922,1.08l2.334,4.4-.421.282a1.8,1.8,0,0,1-2.324-.282l-.825.535a1.284,1.284,0,0,1-1.507-.082l-1.833-1.494H70.583Z" fill="#665042"/><g clip-path="url(#a)"><path d="M72.421,180.636l-1.514,3.154a.837.837,0,0,0,.458,1.145l17.594,6.678-1.509,1.76-17.113-4.3-6.056-5.884,2.936-3.645Z" fill="#665042"/></g><path d="M42.1,253.541l1.023,2.609H44.9l-.057-2.609a9.078,9.078,0,0,1,5.466,2.47l.116.11h7.635a.561.561,0,0,0,.341-1.007c-1.17-.909-3.029-2.1-4.722-2.1l-2.852,1.27L43.4,246.9a19.853,19.853,0,0,0-1.3,6.641" fill="#505050"/><path d="M86.705,149.068a7.69,7.69,0,0,0-7.3-7.677,2.529,2.529,0,0,0-3.33-.021h-.153a2.892,2.892,0,0,0-4.77.723,7.724,7.724,0,0,0-2.6,1.969,2.987,2.987,0,0,0-.405-.04,2.9,2.9,0,0,0-2.9,2.9,2.863,2.863,0,0,0,.441,1.521,3.019,3.019,0,0,0-2.581,2.982,2.773,2.773,0,0,0,.028.276,2.152,2.152,0,0,0-.644-.108,2.178,2.178,0,0,0-.839,4.189,1.672,1.672,0,0,0,2.85,1.75,2.98,2.98,0,0,0,4.362-.316,2.611,2.611,0,0,0,4.519-1.789c0-.075-.016-.147-.022-.22l.253-.02a7.174,7.174,0,0,0,4.155-1.75,2.8,2.8,0,0,0,.5.049,2.723,2.723,0,0,0,2.723-2.722,1.677,1.677,0,0,0,1.12-.436,2.466,2.466,0,0,0,4.6-1.246l0-.014Z"/><path d="M81.9,157.486a1.446,1.446,0,0,0-.661-1.144.767.767,0,1,1,.665,1.144Z"/><path d="M83.693,155.587a.245.245,0,0,1-.2-.1,1.893,1.893,0,0,0-2.344-.556.243.243,0,0,1-.192-.446,2.4,2.4,0,0,1,2.933.724.244.244,0,0,1-.059.337.253.253,0,0,1-.14.043"/><path d="M97.813,195.782h-.56A1.347,1.347,0,0,1,96,194.934l-.756-1.894.32.1.646.987a.835.835,0,0,0,.6.37l.65.079L97.1,192.33l-2.522-.976-5.112-2.009-17.039-8.709-2.273-1.7-5.869,2.65,1.429,1.468a25.868,25.868,0,0,0,12.93,7.214l9.5,2.11,1.325,1.01,1.988,3.636a2.763,2.763,0,0,0,2.978,1.382l2.642-.541A2.256,2.256,0,0,0,98.5,196.9l.354-.53Z" fill="#72594b"/><path d="M127.03,203.052a.448.448,0,0,1-.306-.12,22.7,22.7,0,0,0-14.332-6,.453.453,0,1,1,.042-.905,23.6,23.6,0,0,1,14.9,6.243.452.452,0,0,1-.307.785" fill="#fff"/><path d="M130.868,207.645a.455.455,0,0,1-.382-.209q-.322-.508-.67-1a.453.453,0,0,1,.737-.526q.362.507.7,1.035a.453.453,0,0,1-.382.7" fill="#fff"/><path d="M132.917,211.7a.453.453,0,0,1-.422-.289c-.2-.508-.413-1.014-.645-1.5a.453.453,0,0,1,.819-.387c.241.508.466,1.035.671,1.564a.453.453,0,0,1-.26.585.465.465,0,0,1-.163.03" fill="#fff"/><path d="M124.09,194.487a.463.463,0,0,1-.167-.032,19.38,19.38,0,0,0-13.251-.359.452.452,0,0,1-.286-.858,20.288,20.288,0,0,1,13.87.375.453.453,0,0,1-.166.874" fill="#fff"/><path d="M131.171,199.259a.454.454,0,0,1-.328-.14,19.494,19.494,0,0,0-2.591-2.276.453.453,0,0,1,.535-.73A20.35,20.35,0,0,1,131.5,198.5a.451.451,0,0,1-.327.764" fill="#fff"/><path d="M135.6,206.642a.451.451,0,0,1-.429-.309c-.2-.612-.441-1.22-.7-1.806a.453.453,0,1,1,.827-.37c.274.613.522,1.249.736,1.89a.453.453,0,0,1-.286.572.476.476,0,0,1-.144.023" fill="#fff"/><path d="M118.157,201.741a.44.44,0,0,1-.24-.07,16.244,16.244,0,0,0-4.507-1.96.452.452,0,1,1,.231-.874,17.078,17.078,0,0,1,4.758,2.069.452.452,0,0,1-.242.835" fill="#fff"/><path d="M124.383,208.846a.453.453,0,0,1-.411-.263,16.47,16.47,0,0,0-1.195-2.145.452.452,0,0,1,.755-.5,17.079,17.079,0,0,1,1.262,2.263.454.454,0,0,1-.411.643" fill="#fff"/><path d="M72.421,180.636l-5.464-15.145,2.405-2.025a33.224,33.224,0,0,0-4.135-8.958C54.2,155.98,39.781,164.559,29.6,189.421a24.448,24.448,0,0,0,2.878,2.935A22.5,22.5,0,0,0,34.7,203.139l7.34,41.586H52.064l-3.01-32.712q-.522-5.662-.511-11.354c-8.905-.49-13.179-4.965-14.8-7.253,4.215,3.283,11.28,6.84,19.5,3.093l.727-6.985a11.333,11.333,0,0,1,5.269-9.152l1.331-.841c-1.724-3.875.01-9.35.01-9.35l1.986,8.287-.014.046,2.661,8.442,22.33,7.194.633-5.7Z" fill="#505050"/><polygon points="66.957 165.491 64.873 159.61 68.096 164.587 66.957 165.491"/><path d="M86.915,191.982a.6.6,0,1,0-.605.6.6.6,0,0,0,.605-.6"/><path d="M98.5,196.9l-4.105.188a1.844,1.844,0,0,1-1.739-1.023l-1.27-2.557a2.39,2.39,0,0,0-1.095-1.086l-2.864-1.393v1.186l.712.158,1.325,1.01,1.987,3.636a2.765,2.765,0,0,0,2.979,1.382l2.642-.541a2.259,2.259,0,0,0,1.428-.96" fill="#665042"/></svg>