<svg xmlns="http://www.w3.org/2000/svg" viewBox="0 0 636 300"><title>MSC17-communication-001</title><path d="M258.88,240.6H432.061a3.222,3.222,0,1,1,0,6.443H258.88a3.222,3.222,0,0,1,0-6.443" fill="#e6e6e6"/><path d="M138.688,241.758h65.955a3.222,3.222,0,0,1,0,6.443H138.688a3.222,3.222,0,0,1,0-6.443" fill="#e6e6e6"/><path d="M432.011,246.985H345.389a6.221,6.221,0,0,1-6.221-6.221V62.328a6.221,6.221,0,0,1,6.221-6.221h86.622a6.221,6.221,0,0,1,6.221,6.221V240.764a6.221,6.221,0,0,1-6.221,6.221"/><rect x="344.349" y="74.008" width="87.587" height="148.098" fill="#00bcf2"/><path d="M339.122,62.281l.094,81.674,77.489-77.488a2.805,2.805,0,1,1,3.769-3.769l6.456-6.457H345.155a6.032,6.032,0,0,0-6.033,6.04m64.562,3.059H372.563a1.369,1.369,0,1,1,0-2.737h31.121a1.369,1.369,0,1,1,0,2.737" fill="#505050"/><rect x="355.274" y="189.088" width="25.737" height="29.769" fill="#f3f3f3"/><rect x="381.011" y="189.088" width="39.648" height="29.769" fill="#49cdf3"/><rect x="385.228" y="193.222" width="30.91" height="3.79" fill="#09538f"/><rect x="385.227" y="207.841" width="24.552" height="3.768" fill="#09538f"/><rect x="385.228" y="200.532" width="30.91" height="3.79" fill="#09538f"/><rect x="355.274" y="153.028" width="25.737" height="29.769" fill="#f3f3f3"/><rect x="381.011" y="153.028" width="39.648" height="29.769" fill="#49cdf3"/><rect x="385.228" y="157.164" width="30.91" height="3.79" fill="#09538f"/><rect x="385.227" y="171.782" width="24.552" height="3.768" fill="#09538f"/><rect x="385.228" y="164.473" width="30.91" height="3.79" fill="#09538f"/><path d="M402.837,80.911l6.9-6.9H346.327a1.978,1.978,0,0,0-1.978,1.977V139.4l36.661-36.661v7.942h39.648V80.911Z" fill="#49cdf3"/><rect x="355.274" y="80.911" width="25.737" height="29.769" fill="#f3f3f3"/><rect x="385.228" y="85.046" width="30.91" height="3.79" fill="#09538f"/><rect x="385.227" y="99.665" width="24.552" height="3.767" fill="#09538f"/><rect x="385.228" y="92.355" width="30.91" height="3.79" fill="#09538f"/><path d="M186.982,124.173l-1.371-.541c-.009-.07-.019-.145-.03-.21a11.207,11.207,0,1,0-22.023,4.132,10.983,10.983,0,0,0,5.142,7.135c.013.011.019.022.032.033,2.5,2.017,1.384,5.671,1.384,5.671l8.36-.11.874-2.207a4.629,4.629,0,0,1,3.561-2.866l.759-.124a2.681,2.681,0,0,0,2.251-2.624c.014-1.615.011-3.836-.07-5.8l.933-.192a1.2,1.2,0,0,0,.2-2.3" fill="#d8b094"/><path d="M171.685,191.229v26.939l-17.692,14.359,6.2,4.359L183.4,222.324a2.586,2.586,0,0,0,1.205-2l1.577-20.975,6.781-10.87-5.891-.971Z"/><path d="M208.207,211.857,192.2,183.04s-7.8,6.1-.769,1.8c-.9,6.881-7.592,11.317-9.554,12.48l12.118,16.494-10,25.385,8.205,1.538L208.166,214.2a2.342,2.342,0,0,0,.041-2.342" fill="#021760"/><path d="M203.868,126.148l5.82,37.829a2.02,2.02,0,1,0,3.989-.64l-6.311-37.75a1.771,1.771,0,0,0-3.5.561" fill="#737373"/><path d="M203.868,126.148l5.82,37.829a2.02,2.02,0,1,0,3.989-.64l-6.311-37.75a1.771,1.771,0,0,0-3.5.561" fill="#737373"/><polygon points="200.494 137.986 201.705 136.551 205.972 140.097 204.488 141.939 200.494 137.986" fill="#fff"/><path d="M200.494,137.986l-10.05,10.464a2.945,2.945,0,0,1-3.463.58l-5.938-3.042,4.519,11.443,7.064.334,12.6-16.131Z"/><path d="M211.556,156.566l7.562-5.342a.622.622,0,1,1,.718,1.016l-7.575,5.351Z" fill="#737373"/><path d="M200.091,156.311l3.933-1.405,3.17-3.082a3.478,3.478,0,0,1,4.165-.518l2.84,1.641a1.872,1.872,0,0,1,.887,2.048l-.667,2.861-5.057.422-2.388,1.685h-7.726Z" fill="#d8b094"/><path d="M213.412,156.721a1.6,1.6,0,1,1-1.7-1.5,1.6,1.6,0,0,1,1.7,1.5" fill="#737373"/><polygon points="201.3 155.54 203.671 154.899 204.697 160.347 201.813 160.861 201.3 155.54" fill="#fff"/><path d="M178.714,133.474a5.313,5.313,0,0,1-4.02-3.427l-1.215-3.994L169.5,128.04l-2.8,5.109a11.586,11.586,0,0,0,2,1.541c.013.01.019.02.032.032,1.9,1.538,1.709,4.023,1.509,5.119.434-.027.887-.063,1.379-.114L179,138.96l.349-.885a4.63,4.63,0,0,1,3.561-2.865l.759-.123a2.642,2.642,0,0,0,1.117-.47Z" fill="#b48f75"/><path d="M181.332,138.921l.425.046a1,1,0,0,1,.888,1.024l-.112,3.209-2.4-.529Z" fill="#df6c47"/><path d="M179.272,142.227s5.819.635,8.519,4.625a8.261,8.261,0,0,0,1.347,1.525c-.911-4.189-.924-8.568-9.866-6.15" fill="#d83b01"/><path d="M176.428,227.014l-3.59-4.487-7.115-3.91-12,14.03a22.734,22.734,0,0,0-4.909,9.685l-.4,4.619,4.423-.193,2.052-1.346,5.9,2.628h5.961c0-1.981-.552-3.383-2.378-4.151l-2.987-1.255a2.7,2.7,0,0,1-.521-4.69Z"/><path d="M199.962,245.253l-2.765-.675-2.775-2.367a2.488,2.488,0,0,1-.534-3.149l10.553-18.073-5.765-2.235-9.235-.778-4.053,16.751a28.839,28.839,0,0,1-2.179,6l-1.064,2.149a8.757,8.757,0,0,0-.749,2.226l.608,1.593,4.231.705.96-.756,1.643.8a7.579,7.579,0,0,0,3.166.76l9.488-.288c0-1.5-.068-2.3-1.53-2.659"/><polygon points="189.889 216.117 205.402 219.322 204.441 220.988 189.441 217.976 189.889 216.117" fill="#df6c47"/><polygon points="178.294 225.527 167.385 216.758 165.723 218.617 176.429 227.014 178.294 225.527" fill="#df6c47"/><path d="M148.928,241.886l11.987,4.871h2.373l1.538-2.884a5.379,5.379,0,0,1,2.559,4.551h-7.11l-5.9-2.307-.907,1.981-5.771-.941Z" fill="#df6c47"/><path d="M182.582,242.014l7.948,4.231h5.705l.962-2.179s5.321.128,5.256,4.358H191.435a4.638,4.638,0,0,1-1.969-.439l-2.205-1.034-.512,1.089-5.962-.641.17-1.363a8.443,8.443,0,0,1,1.625-4.022" fill="#df6c47"/><path d="M198.545,148.053c-1.755,2.851-5.54,2.957-8.431,1.062-.978-.867-1.3-3.071-1.845-4.445a17.274,17.274,0,0,0,1.677,6.308l.01.02c.03.059.055.12.086.179l0-.014a5.984,5.984,0,0,0,.76,1.187c3.623,4.344,11.641-.769,11.641-.769l.081-3.9Z" fill="#df6c47"/><path d="M182.517,121.758a.974.974,0,1,1-.973-.974.974.974,0,0,1,.973.974" fill="#09538f"/><path d="M185.9,128.357s-1.792-.093-3.255-.317c1.313,2.692,3.28,2.2,3.28,2.2Z" fill="#b48f75"/><path d="M178.512,121.168a.337.337,0,0,1-.1-.013.384.384,0,0,1-.274-.47,3.021,3.021,0,0,1,3.453-2.129.385.385,0,0,1-.1.763,2.236,2.236,0,0,0-2.612,1.563.383.383,0,0,1-.371.286" fill="#d2d2d2"/><path d="M174.62,110.668a4.956,4.956,0,0,1,.462,1.923,14.117,14.117,0,0,0-4.936-.577c1.154.77.769,1.6.769,1.6s-6.958,2.244-8.59,6.154c-.222,5.9.055,11.063,5.059,13.993a32.868,32.868,0,0,0,5.373-6.582,1.857,1.857,0,0,1-1.453-.445l-1.491-1.306a1.835,1.835,0,1,1,2.625-2.547l2.038,2.473,2.4-1.035s-3.077-3.91-3.27-5,3.27-3.4,3.27-3.4,2.025.194,2.395-.853-1.653-3.954-4.652-4.4" fill="#d2d2d2"/><path d="M174.619,125.532l-2.181-2.648a1.835,1.835,0,1,0-2.625,2.548l1.491,1.3a1.873,1.873,0,0,0,2.821-.415Z" fill="#d8b094"/><path d="M159.7,106.9s-5.655-1.143-7.974-.423-3.918,3.758-3.918,3.758-4.085,3.119-4.373,3.764-1.287,7.288-.609,8.136c1.34.334,4.778,1.715,4.778,1.715L161.626,107.3Z" fill="#bb9167"/><path d="M154.93,126.6c3.905-2.5,9.429-12.616,8.963-16.876-3.8-.429-5.713.528-5.713.528l-5.158,10.351Z" fill="#7a5e44"/><path d="M150.839,109.78a.809.809,0,1,1-.987-.577.809.809,0,0,1,.987.577" fill="#505050"/><path d="M162.516,105.476c-1.017-.083-3.815,1.2-6.288,3.678l-1.849-.287a14.628,14.628,0,0,1,1.517-1.273.441.441,0,1,0-.5-.723A15.01,15.01,0,0,0,153.3,108.7l-.406-.063-.412,1.033a7.23,7.23,0,0,0-.672,1.079,8.265,8.265,0,0,1-2.558,2.694,17.035,17.035,0,0,0-2.208,1.963c-1.788,1.977-2.318,7.369-2.318,7.369l.738.206a27.476,27.476,0,0,1,.989-4.516l3.091,1.017c-2.194,2.879-4.126,5.079-2.893,7.426,1.36,1.42,3.607,1.242,5.42.767a.2.2,0,0,0,.026.011c2.99-.476,5.043-1.925,7.614-6.623A11.336,11.336,0,0,1,154.664,125c-.832-8.769,9.228-15.276,9.228-15.276s.177-4.125-1.376-4.251m-9.617,8.552a21.743,21.743,0,0,1-2.508,4.314l-3.439-1.151a4.892,4.892,0,0,1,.747-1.2,16.338,16.338,0,0,1,2.1-1.863,9.048,9.048,0,0,0,2.8-2.995,6,6,0,0,1,.471-.779l1.859.255a14.7,14.7,0,0,0-2.033,3.414" fill="#ab845f"/><path d="M203.223,161.245l-1.539-6.41-13.394.558c-.36-1.386-.7-2.725-1.014-3.983a18.7,18.7,0,0,0-5.835-9.574l-.109-4.212-.251-.09a22.6,22.6,0,0,0-14.717-.2l.79,2.37a8.574,8.574,0,0,0-1.164,1.147c-5.407,6.5-3.39,19.721,1.111,30.041,3.943,9.038.386,15.266-.288,24.711,0,0,22.307,1.25,27.692-13.365a177.355,177.355,0,0,0-3.971-18.255Z" fill="#021760"/><path d="M183.223,155.6l2.506-.105-.482-.933a16.022,16.022,0,0,0-4.961-5.71Z"/><path d="M183.08,165.593a7.125,7.125,0,0,1-7.857-3.74l-6.364-12.541.069.447a38.315,38.315,0,0,0,4.419,12.819l2.306,4.122a4.585,4.585,0,0,0,6.675,1.487l4.844-3.477Z"/><path d="M184.1,182.088l-.913-1.237c3.381-2.493,4.791-8.068,4.806-8.123l1.494.368c-.063.25-1.554,6.168-5.387,8.992"/><path d="M231.432,24.346l-.3-.243-.135.163-1.405-.442a.3.3,0,0,0-.381.2.3.3,0,0,0-.009.132c-21.657,19.423-32.8,47.149-28.33,75.918l3.72,24.466.865-.1,1.01.048-3.565-23.882,3.29-3.121c.245,0,.493-.012.74-.037a6.966,6.966,0,0,0,2.033-.5l11.6,46.4-3.29.48.235,1.606-1.518.221.437,3-.574-.536a3.385,3.385,0,0,0-3.2-.792l-1.579.43-.225-1.287h-1.779l.673,4.616,2.211,1.682-.607-3.456,1.383-.238a3.207,3.207,0,0,1,2.954,1.046l1.153,1.318.214,1.461a2.936,2.936,0,0,0,3.331,2.483l2.051-.3a2.938,2.938,0,0,0,2.483-3.332l-.812-5.566,2.384-.393-.125-.758-2.37.39-.134-.914-2.034.3-.234-1.607-.26.038L209.661,96.548a1.03,1.03,0,0,0,.474-.888,1.06,1.06,0,0,0-.69-.807l.323-29.173,6.208-19.111,7.123-11.6,8.14-9.79,114.944,94.564.49-.594Zm-10.058,8.828.125.409a.383.383,0,0,0-.044.036.266.266,0,0,0-.052.1l-.474,0ZM213.339,44.4l.388.775a.28.28,0,0,0-.089.095.288.288,0,0,0-.033.187l-.959.157c.23-.406.457-.812.693-1.214m-8.18,18.837.006-.02,1.186,1.348a.3.3,0,0,0-.066.51l-1.837.819ZM202.792,99.88l-.016-.1c-.338-2.181-.58-4.36-.747-6.536l3,1.64c-.952.319-1.643.82-1.58,1.45s.88,1,1.912,1.114Zm4.083-3.033c-1.646.167-2.792-.237-2.826-.575s1.007-.962,2.655-1.126a7.4,7.4,0,0,1,.75-.04,5.429,5.429,0,0,1,1.218.127l-.006.456v.049l.154.616a6.132,6.132,0,0,1-1.945.493m1.8-2.229a7.052,7.052,0,0,0-2.036-.077c-.258.026-.513.068-.764.118l-3.905-2.137a83.621,83.621,0,0,1,2.264-25.869l2.941-1.311,1.835.491Zm.851,1.1a.237.237,0,0,1-.04.143l-.054-.216v-.079a.266.266,0,0,1,.094.152m-.424-30.492-1.784-.477-1.948-2.215a83.222,83.222,0,0,1,6.887-16.245l1.986-.323.95.543Zm6.343-19.273-.915-.522-.821-1.645a83.522,83.522,0,0,1,6.636-9.472l1.491.012.5.413Zm7.254-11.7-.489-.4-.394-1.3a84.668,84.668,0,0,1,7.879-8.06l.883.277Z" fill="#b2b2b2"/><path d="M171.305,126.736l-1.491-1.3a1.809,1.809,0,0,1-.565-.936,9.2,9.2,0,0,1-1.864-1.764c-.652-.839-1.25-1.476-1.021-2.513a24.848,24.848,0,0,1,1.867-5.5c-2.146,1.029-4.945,2.747-5.906,5.048-.221,5.9.054,11.065,5.06,13.994a32.93,32.93,0,0,0,5.373-6.581,1.862,1.862,0,0,1-1.453-.447" fill="#b2b2b2"/><path d="M210.39,134.075l-.894-1.386.18-.633a.815.815,0,0,0-.561-1.008l-.205-.058a.811.811,0,0,0-.366-.011l.029-1.01a.815.815,0,0,0-.792-.838l-.213-.006a.808.808,0,0,0-.825.735l-.057-.373-3.462.776-.159,4.624-.224.406-1.1,1.488,3.892,3.19.334-.287-.5-3.033.242-.175a1.869,1.869,0,0,0,.483-2.515l-1.438-2.271,1.145-.406a1.283,1.283,0,0,0,.813-.914l-.058,2.049a.814.814,0,0,0,.762.832l-.2.709a.817.817,0,0,0,.562,1.008l.205.057a.572.572,0,0,0,.092.008l-.243.4a.669.669,0,0,0,.222.919l.18.11a.667.667,0,0,0,.475.081l-.241.286a.633.633,0,0,0,.076.892l.078.065a.632.632,0,0,0,.891-.077l.962-1.143a2.657,2.657,0,0,0-.086-2.487" fill="#d8b094"/><polygon points="381.01 116.97 355.274 116.97 355.274 146.739 381.01 146.739 420.658 146.739 420.658 116.97 381.01 116.97" fill="#49cdf3"/><rect x="342.944" y="114.59" width="25.736" height="29.769" transform="translate(-18.14 70.1) rotate(-10.974)" fill="#f3f3f3"/><rect x="368.083" y="108.367" width="39.648" height="29.769" transform="translate(-16.369 76.099) rotate(-10.974)" fill="#459bdd"/><rect x="370.617" y="112.692" width="30.91" height="3.79" transform="translate(-14.753 75.586) rotate(-10.974)" fill="#09538f"/><rect x="373.456" y="127.649" width="24.552" height="3.767" transform="translate(-17.605 75.798) rotate(-10.974)" fill="#09538f"/><rect x="372.009" y="119.868" width="30.91" height="3.79" transform="translate(-16.094 75.982) rotate(-10.974)" fill="#09538f"/><path d="M368.687,202.57a4.231,4.231,0,1,0-1.7,0,8.462,8.462,0,0,0-7.612,8.418v2.821H376.3v-2.821a8.463,8.463,0,0,0-7.613-8.418" fill="#c2c2c2"/><path d="M368.687,166.288a4.231,4.231,0,1,0-1.7,0,8.461,8.461,0,0,0-7.612,8.418v2.821H376.3v-2.821a8.462,8.462,0,0,0-7.613-8.418" fill="#c2c2c2"/><path d="M356.558,128.126a4.23,4.23,0,1,0-1.662.343,8.461,8.461,0,0,0-5.756,9.783l.57,2.762,16.574-3.417-.57-2.763a8.463,8.463,0,0,0-9.156-6.708" fill="#459bdd"/><path d="M368.687,93.98a4.231,4.231,0,1,0-1.7,0,8.463,8.463,0,0,0-7.612,8.419v2.82H376.3V102.4a8.464,8.464,0,0,0-7.613-8.419" fill="#c2c2c2"/><rect x="384.488" y="230.363" width="8.424" height="8.424" fill="#505050"/></svg>