<svg xmlns="http://www.w3.org/2000/svg" viewBox="0 0 636 300"><title>MSC17-collaboration-005</title><path d="M636,0V300H0V0Z" fill="#e6e6e6"/><polygon points="454.084 232.043 447.628 232.043 447.628 235.184 454.084 232.043" fill="#ce9c5f"/><path d="M447.628,235.184v6.44s13.432,3.271,19.693-4.463a1.4,1.4,0,0,0-1.1-2.258H456.012l-1.928-2.859Z" fill="#4f3e33"/><polygon points="424.023 161.288 449.952 188.36 454.084 232.043 446.415 232.043 436.988 199.799 405.339 171.964 424.023 161.288"/><polygon points="357.348 161.288 383.276 188.36 387.408 232.043 380.953 232.043 370.313 199.799 338.664 171.964 357.348 161.288" fill="#939393"/><polygon points="387.408 232.043 380.953 232.043 380.953 235.184 387.408 232.043" fill="#fda84c"/><path d="M380.953,233.614v8.01s13.431,3.271,19.693-4.463a1.4,1.4,0,0,0-1.1-2.258H389.337l-1.929-2.86Z" fill="#737373"/><polygon points="291.194 161.288 317.123 188.36 321.255 232.043 314.799 232.043 304.159 199.799 272.51 171.964 291.194 161.288" fill="#043c40"/><polygon points="321.255 232.043 314.798 232.043 314.798 235.184 321.255 232.043" fill="#fda84c"/><path d="M314.8,232.043v9.58s13.431,3.272,19.693-4.462a1.4,1.4,0,0,0-1.1-2.259H323.183l-1.928-2.859Z"/><polygon points="251.511 232.043 245.055 232.043 245.055 235.184 251.511 232.043" fill="#fda84c"/><path d="M245.055,233.614v8.01s13.431,3.271,19.693-4.463a1.4,1.4,0,0,0-1.1-2.258h-10.2l-1.929-2.86Z" fill="#4f3e33"/><rect x="242.039" y="223.619" width="3.411" height="25.609" transform="translate(-60.588 387.053) rotate(-70.46)" fill="#c2c2c2"/><rect x="311.783" y="223.619" width="3.411" height="25.609" transform="translate(-14.169 452.783) rotate(-70.46)" fill="#c2c2c2"/><rect x="377.937" y="223.619" width="3.411" height="25.609" transform="translate(29.859 515.127) rotate(-70.46)" fill="#c2c2c2"/><rect x="444.988" y="223.619" width="3.411" height="25.609" transform="translate(74.484 578.317) rotate(-70.46)" fill="#c2c2c2"/><path d="M63.462,195.559H2.279v-3.077H63.462a1.539,1.539,0,0,1,0,3.077" fill="#fff"/><path d="M155.02,148.324H76.539a1.539,1.539,0,0,1,0-3.077H155.02a1.539,1.539,0,0,1,0,3.077" fill="#fff"/><path d="M531.42,133.04H237.559a1.539,1.539,0,0,1,0-3.077H531.42a1.539,1.539,0,1,1,0,3.077" fill="#fff"/><path d="M145.168,116.309H116.85a1.539,1.539,0,0,1,0-3.077h28.318a1.539,1.539,0,0,1,0,3.077" fill="#fff"/><path d="M131.822,171.373H107.308a1.539,1.539,0,0,1,0-3.077h24.514a1.539,1.539,0,1,1,0,3.077" fill="#fff"/><path d="M279.621,175.8H262.546a6.511,6.511,0,0,0,.552,2.624,10.736,10.736,0,0,1-4.253-2.383,16.555,16.555,0,0,0-11.27-4.412H242.6a1.705,1.705,0,1,0,0,3.41h4.972a13.147,13.147,0,0,1,8.953,3.506,14.746,14.746,0,0,0,10.08,3.8h28.23a20.965,20.965,0,0,0-15.217-6.545" fill="#043c40"/><path d="M247.379,188.361,221.45,161.288l-18.684,10.676,4.366,3.84H192.244a6.545,6.545,0,0,0,6.544,6.545h15.786L234.415,199.8l10.64,32.244h6.456Z" fill="#043c40"/><path d="M114.2,260.032H520.684a2.084,2.084,0,1,1,0,4.168H114.2a2.084,2.084,0,0,1,0-4.168" fill="#d2d2d2"/><path d="M185.648,212.494l-20.24,20.24.85.072-2.29,27.108-1.7-.143,1.97-23.314-11.921,20.591-1.476-.854,12.229-21.122-17.9,17.9a28.624,28.624,0,0,0,40.48-40.48" fill="#c2c2c2"/><path d="M523.036,212.494l-20.24,20.24.849.072-2.291,27.108-1.7-.143,1.97-23.314-11.92,20.591-1.475-.854,12.226-21.12-17.9,17.9a28.624,28.624,0,0,0,40.481-40.48" fill="#c2c2c2"/><path d="M502.8,263.916a31.182,31.182,0,1,1,31.182-31.182A31.217,31.217,0,0,1,502.8,263.916m0-57.248a26.066,26.066,0,1,0,26.067,26.066A26.1,26.1,0,0,0,502.8,206.668" fill="#043c40"/><path d="M165.408,201.552A31.214,31.214,0,0,0,134.255,231.6H123.761a1.137,1.137,0,0,0,0,2.274h10.487a31.082,31.082,0,0,0,.737,5.7H113.666a1.137,1.137,0,1,0,0,2.274h27.322a26.251,26.251,0,1,1,2.245,4.547h7.21a1.137,1.137,0,1,0,0-2.273H136.387a31.178,31.178,0,1,0,29.021-42.565" fill="#043c40"/><path d="M399.423,175.8a6.521,6.521,0,0,0,.458,2.394,10.627,10.627,0,0,1-3.537-2.153,16.553,16.553,0,0,0-11.269-4.412H380.1a1.705,1.705,0,1,0,0,3.41h4.971a13.147,13.147,0,0,1,8.953,3.506,14.744,14.744,0,0,0,10.079,3.8h27.607V175.8Z" fill="#043c40"/><path d="M485.7,203.562,481.2,189.15H420.679l-5.065-13.929-3.2,1.166,4.642,12.763h-63.3L349.774,178.2l-3.2,1.166,3.559,9.786H287.6L283.62,178.2l-3.2,1.166,3.559,9.786H218.031L214.048,178.2l-3.205,1.166,3.559,9.786H195.725a12.876,12.876,0,0,0-11.17,6.5l-3.651,6.413a34.433,34.433,0,0,0-15.5-3.653,34.057,34.057,0,0,0-27.519,13.805,4.861,4.861,0,0,0,6.363-.446,29.492,29.492,0,0,1,21.156-8.811,29.861,29.861,0,0,1,13.24,3.07l-16.173,28.415H434.292l46.453-35.3,2.018,6.475a35.183,35.183,0,0,0-3.57,3.2,34.051,34.051,0,0,0-9.274,29.358,4.858,4.858,0,0,0,4.113-4.875,29.494,29.494,0,0,1,8.423-21.314c.6-.618,1.227-1.194,1.866-1.751a55.685,55.685,0,0,0,16.634,23.192l.755.623,2.172-2.63-.756-.624a52.263,52.263,0,0,1-15.981-22.752,29.5,29.5,0,0,1,24.355-4.094,4.859,4.859,0,0,0,5.709-2.83,34.084,34.084,0,0,0-31.514,2.443M168.341,231.029l13.269-23.315a29.544,29.544,0,0,1,9.8,10.474,4.858,4.858,0,0,0,6.007,2.124,34.239,34.239,0,0,0-13.546-16.572l3.646-6.407a9.462,9.462,0,0,1,8.207-4.773h19.917l13.989,38.469Zm50.93-38.469h62.058l-48.667,36.827Zm16.874,38.469,49.45-37.42,13.607,37.42Zm52.7-38.469h58.893l-45.527,36.754Zm16.671,38.469,46.262-37.347,13.582,37.347ZM355,192.56h59.8L368.37,229.336Zm16.729,38.469,47.013-37.24,13.542,37.24Zm63.584-1.646L421.92,192.56h56.773l.972,3.118Z" fill="#eb4f5d"/><path d="M143.6,237.864h0a2.275,2.275,0,0,1-2.274-2.274v-5.712a2.274,2.274,0,0,1,4.548,0v5.712a2.275,2.275,0,0,1-2.274,2.274" fill="#df6c47"/><path d="M514.163,251.355h0a2.273,2.273,0,0,1,0-3.215L518.2,244.1a2.273,2.273,0,1,1,3.215,3.215l-4.039,4.039a2.273,2.273,0,0,1-3.215,0" fill="#df6c47"/><path d="M347.313,175.8H330.238a6.541,6.541,0,0,0,.49,2.481,10.681,10.681,0,0,1-3.807-2.24,16.552,16.552,0,0,0-11.27-4.412H310.68a1.7,1.7,0,1,0,0,3.41h4.971a13.148,13.148,0,0,1,8.954,3.506,14.746,14.746,0,0,0,10.08,3.8H362.53a20.965,20.965,0,0,0-15.217-6.545" fill="#043c40"/><rect x="189.212" y="175.804" width="3.032" height="11.07" fill="#b2b2b2"/><rect x="186.198" y="177.793" width="3.015" height="8.629" fill="#df6c47"/><path d="M444.06,233.724a9.692,9.692,0,0,0-17.987-6.383l-15.138-5.373-1.141,3.214,15.143,5.375a9.691,9.691,0,0,0,17.985,6.383Z" fill="#c2c2c2"/><polygon points="262.547 241.131 256.387 243.417 249.831 243.831 249.077 240.281 255.237 237.994 261.793 237.581 262.547 241.131" fill="#939393"/><path d="M231.678,222.438a9.694,9.694,0,0,0-8.425,4.9l-15.139-5.373-1.141,3.214,15.143,5.374a9.7,9.7,0,1,0,9.562-8.118" fill="#c2c2c2"/><path d="M234.481,232.14a2.8,2.8,0,1,1-2.8-2.8,2.8,2.8,0,0,1,2.8,2.8" fill="#f3f3f3"/><polygon points="332.29 241.131 326.132 243.417 319.575 243.831 318.821 240.281 324.98 237.994 331.536 237.581 332.29 241.131" fill="#939393"/><path d="M301.421,222.438a9.7,9.7,0,0,0-8.425,4.9l-15.138-5.373-1.141,3.214,15.143,5.375a9.7,9.7,0,1,0,9.561-8.119" fill="#c2c2c2"/><path d="M304.225,232.14a2.8,2.8,0,1,1-2.8-2.8,2.8,2.8,0,0,1,2.8,2.8" fill="#f3f3f3"/><polygon points="398.444 241.131 392.285 243.417 385.728 243.831 384.975 240.281 391.134 237.994 397.691 237.581 398.444 241.131" fill="#939393"/><path d="M367.575,222.438a9.694,9.694,0,0,0-8.425,4.9l-15.139-5.373-1.14,3.214,15.142,5.375a9.831,9.831,0,0,0-.14,1.584,9.7,9.7,0,1,0,9.7-9.7" fill="#c2c2c2"/><path d="M370.379,232.14a2.8,2.8,0,1,1-2.805-2.8,2.8,2.8,0,0,1,2.805,2.8" fill="#f3f3f3"/><path d="M437.3,232.14a2.8,2.8,0,1,1-2.805-2.8,2.8,2.8,0,0,1,2.805,2.8" fill="#f3f3f3"/><path d="M169.717,232.734a4.309,4.309,0,1,1-4.309-4.309,4.309,4.309,0,0,1,4.309,4.309" fill="#b2b2b2"/><path d="M507.105,232.734a4.309,4.309,0,1,1-4.31-4.309,4.31,4.31,0,0,1,4.31,4.309" fill="#043c40"/><polygon points="465.367 241.131 459.208 243.417 452.652 243.831 451.898 240.281 458.057 237.994 464.614 237.581 465.367 241.131" fill="#939393"/><path d="M253.73,168.793l-7.96-3.862-4.423-2.981-5.193,3.557,6.12,5.493a6.025,6.025,0,0,0,3.218,1.487l3.835.52-1.208,1.354a1.7,1.7,0,0,0,.206,2.461l.041.032,1.194-.728-.215.369a1.507,1.507,0,0,0,.516,2.042l.236.144,1.095-1.62a1.639,1.639,0,0,0,.924,1.523l3.077-3.269.189-3.729a2.938,2.938,0,0,0-1.652-2.793" fill="#db9c94"/><path d="M392.968,103.092l-1.866-2.949a3.234,3.234,0,0,1-.5-1.516c-.216-3.135-2-14.7-16.709-14.158-6.928.256-12.46,6.331-13.221,13.221a15,15,0,0,0,3.729,11.724l-4.428,5.014,8.926,6.255,3.01-3.212a9.631,9.631,0,0,1,7.025-3.043H384.7a4.491,4.491,0,0,0,4.412-3.647c.3-1.554.639-3.436.922-5.3l1.359.212a1.645,1.645,0,0,0,1.58-2.6" fill="#72594b"/><path d="M387.434,99.5a1.329,1.329,0,1,1-1.329-1.329,1.328,1.328,0,0,1,1.329,1.329"/><path d="M389.856,106.938l-5.176-.757a5.413,5.413,0,0,0,4.635,3.826c.183-.992.541-3.069.541-3.069" fill="#4f3e33"/><path d="M381.506,97.415a.577.577,0,0,1-.476-.9,5.124,5.124,0,0,1,6.694-1.3.577.577,0,1,1-.511,1.034c-3.409-1.682-5.157.807-5.23.914a.575.575,0,0,1-.477.252"/><path d="M211.918,99.176l-.99-.854a5.8,5.8,0,0,1-1.793-2.992,15.124,15.124,0,1,0-22.912,16.407l2.585,4.954a5.937,5.937,0,0,1,.211,5.041l-1.423,3.391,15.193-1.057-2.767-5.986a2.662,2.662,0,0,1,1.8-3.707s2.394-.549,2.595-.561a5.606,5.606,0,0,0,5.3-5.686c-.022-1.4-.044-2.922-.062-4.352a1.157,1.157,0,0,1,1.094-1.171,1.952,1.952,0,0,0,1.167-3.427" fill="#db9c94"/><path d="M321.327,108.43l-1.246-1.31a2.516,2.516,0,0,1-.681-1.805c0-.176.007-.342.007-.5A15.272,15.272,0,1,0,292.9,115.151l-8.023,6.391,12.01,5.472,4.166-3.549a13.128,13.128,0,0,1,9.139-3.121l1.993.095L312,120.36l1.38.072a4.675,4.675,0,0,0,4.888-4.057c.187-1.406.392-3.018.577-4.617H319.9a1.971,1.971,0,0,0,1.429-3.328" fill="#d8b094"/><path d="M361.117,108.008l2.058.882a22.942,22.942,0,0,1,10.8,9.57l-2.434,3.082-.916,7.435,1.544,5.936a7.924,7.924,0,0,1-2.121,7.654l-1.958,1.92-9.241-32.633Z" fill="#d2d2d2"/><path d="M479.946,192.561a1.708,1.708,0,0,1-1.65-1.28l-1.946-7.552a8.636,8.636,0,0,1,8.363-10.792h8a7.475,7.475,0,0,1,0,14.949h-1.564a1.706,1.706,0,0,1,0-3.411h1.564a4.064,4.064,0,1,0,0-8.127h-8a5.225,5.225,0,0,0-5.061,6.53l1.947,7.551a1.708,1.708,0,0,1-1.653,2.132" fill="#043c40"/><path d="M486.838,184.616a4.723,4.723,0,0,0,0,9.4Z" fill="#b2b2b2"/><path d="M488.237,122.248c.253-4.431-5.174-12.413-13.961-12.983a14.761,14.761,0,0,0-15.224,10.552,14.913,14.913,0,0,0-.2,7.941l-8.8,1.847,4.886,10.886,7.57-1.6a19.538,19.538,0,0,1,7.5-.111l3.915.707,4.4.9a5.311,5.311,0,0,0,6.019-3.306l1.477-3.856a1,1,0,0,1,1.131-.621l1.6.324a1.24,1.24,0,0,0,1.488-1.257,22.917,22.917,0,0,1-1.793-9.42" fill="#ce9c5f"/><path d="M484.007,125.664a1.41,1.41,0,0,1,1.193.664,1.412,1.412,0,1,0-2.1-.327,1.4,1.4,0,0,1,.905-.337"/><path d="M481.322,122.405a.577.577,0,0,1-.173-1.128,13.375,13.375,0,0,1,5.893-.493.577.577,0,0,1-.159,1.142,12.255,12.255,0,0,0-5.389.452.576.576,0,0,1-.172.027" fill="#72594b"/><path d="M402.289,168.247h0a12.625,12.625,0,0,0,7.612,11.586l27.267,11.794-22.3,18.277,6.673,5.72,30.49-17.379a8.945,8.945,0,0,0,1.4-14.552l-17.954-15.446Z"/><path d="M437.165,191.625l7.226-4.6s-7.5-1.192-7.226,4.6"/><polygon points="421.545 215.623 418.85 217.53 412.933 213.464 416.466 211.27 421.545 215.623" fill="#ce9c5f"/><path d="M412.932,213.464l-5.6,3.176s3.78,13.3,13.6,14.93a1.4,1.4,0,0,0,1.42-2.074l-5.035-8.877,1.536-3.089Z" fill="#4f3e33"/><path d="M497.349,174.766l-2.777-5.68a1.166,1.166,0,0,0-1.046-.652H492.46c-1.936,0-8.425.664-10.594.892a2.482,2.482,0,0,1-1.361-.243l-3.557-1.749-3.92,2.693,1.283,3.314,6.736,1.195a4.189,4.189,0,0,0,1.209.037l4.613-.531,1.982,1.336-.749,1.349a1.136,1.136,0,0,0,.3,1.451.7.7,0,0,0,1-.151l.361-.516a.73.73,0,0,0,.081,0l2.421-.514a4.385,4.385,0,0,0-.095.481.669.669,0,0,0,.983.671l3.768-2.046a1.014,1.014,0,0,0,.428-1.337m-6.374-1.2.252,1.094a.848.848,0,0,0-.242-.327l-.852-.67Zm.324,1.513a.716.716,0,0,0,0-.092l.019.084Zm2.3-.01-.273-1.774.184-.021.74,1.454a3.437,3.437,0,0,0-.651.341" fill="#ce9c5f"/><path d="M475.115,108.548c-.392-.08-.791-.143-1.2-.193v0l-.074-.009c-.282-.033-.566-.061-.853-.081-.971-.085-2.619-.207-4.518-.254l-.014-.021c-11.615-.356-30.6,3.29-33.12-6.52-2.517,4.688-2.257,10.07,6.945,11.633-7.727,4.08-11.633,11.286-4.948,17.363,2.691-6.32,7.6-7.485,11.286-4.84,3.634,2.606,4.775,2.993,10.748,3.712,4.83.582,7.027-2.3,7.915-5.44l.455-2.23a2.6,2.6,0,0,1,3.064-2.028,3.063,3.063,0,0,1,2.393,3.613l0,.017,1.332-.37a2.612,2.612,0,0,0,1.862-2.006l.964-4.844a2.16,2.16,0,0,1,2.548-1.687l1.576.32a2.977,2.977,0,0,0,2.242-.435l1.1-.731s-2.738-3.548-9.708-4.967" fill="#72594b"/><path d="M471.475,125.549l-.753-.153a2.437,2.437,0,0,1-1.9-2.874,1.6,1.6,0,1,1,3.141.639Z" fill="#ba8c57"/><path d="M334.641,168.247h0a12.625,12.625,0,0,0,7.612,11.586l27.266,11.794-24.234,16.615,8.612,7.382,30.489-17.379a8.945,8.945,0,0,0,1.4-14.552l-24.019-20.4-27.131-.749Z" fill="#b2b2b2"/><path d="M335.94,173.81s18.763,3.27,27.5-9.415c-7.225-2.252-28.8,0-28.8,0s-1.084,6.075,1.3,9.415" fill="#939393"/><path d="M369.517,191.625l7.226-4.6s-7.5-1.192-7.226,4.6" fill="#939393"/><polygon points="353.897 215.623 351.202 217.53 345.285 213.464 348.818 211.27 353.897 215.623" fill="#eb4f5d"/><path d="M345.285,213.464l-5.6,3.176s3.78,13.3,13.6,14.93a1.4,1.4,0,0,0,1.42-2.074l-5.033-8.877,1.536-3.089Z" fill="#737373"/><path d="M269.267,168.247h0a12.624,12.624,0,0,0,7.611,11.586l27.267,11.794L281.85,209.9l6.673,5.72,30.489-17.379a8.945,8.945,0,0,0,1.4-14.552l-17.953-15.446Z" fill="#0d7364"/><path d="M304.142,191.625l7.226-4.6s-7.5-1.192-7.226,4.6" fill="#043c40"/><polygon points="288.523 215.623 285.827 217.53 279.911 213.464 283.444 211.27 288.523 215.623" fill="#fff"/><path d="M282.773,210.7l-8.463,5.946s3.836,13.5,13.817,14.963a1.4,1.4,0,0,0,1.489-1.936c-.976-2.264-2.218-5.525-2.973-7.547a4.258,4.258,0,0,1,.26-3.549l1.62-2.948Z"/><path d="M199.075,168.247h0a12.624,12.624,0,0,0,7.611,11.586l27.267,11.794-22.3,18.277,6.673,5.72,30.489-17.379a8.945,8.945,0,0,0,1.405-14.552l-26.186-19.436Z" fill="#0d7364"/><path d="M233.95,191.625l7.226-4.6s-7.5-1.192-7.226,4.6" fill="#043c40"/><polygon points="218.331 215.623 215.635 217.53 209.718 213.464 213.251 211.27 218.331 215.623" fill="#bb9167"/><path d="M209.718,213.464l-5.6,3.176s3.779,13.3,13.6,14.93a1.4,1.4,0,0,0,1.42-2.074l-5.034-8.877,1.536-3.089Z" fill="#4f3e33"/><polygon points="412.417 230.003 408.047 225.097 405.279 219.139 408.311 217.147 412.681 222.053 415.449 228.01 412.417 230.003" fill="#939393"/><polygon points="209.596 230.003 205.227 225.097 202.458 219.139 205.491 217.147 209.86 222.053 212.629 228.01 209.596 230.003" fill="#939393"/><polygon points="279.34 230.003 274.97 225.097 272.202 219.139 275.234 217.147 279.603 222.053 282.372 228.01 279.34 230.003" fill="#939393"/><polygon points="345.494 230.003 341.124 225.097 338.356 219.139 341.388 217.147 345.757 222.053 348.526 228.01 345.494 230.003" fill="#939393"/><path d="M485.48,134.354l-3.749-2.5s-.679,3.688,2.834,4.633a11.783,11.783,0,0,0,.915-2.133" fill="#8c6943"/><path d="M369.291,119.825a10.65,10.65,0,0,0-15.83-5.692,38.405,38.405,0,0,0-15.106,18.394c-5.287,12.884-4.808,24.414-7.386,34.423,11.677,2.739,33.3-1.154,34.7-4.039.337-6.047,3.55-25.963,4.74-32.4a17.678,17.678,0,0,0-.177-7.264c-.246-1.041-.556-2.209-.946-3.417" fill="#b2b2b2"/><path d="M397.871,176.219l-1.813-3.938v-.729a2.518,2.518,0,0,0-1.227-2.162l-9.061-5.42-1.923-1.9-4.712,3.825,2.792,3.875a6.665,6.665,0,0,0,4.843,2.747l2.964.252-1.981,2.479a1.466,1.466,0,0,0,.082,1.924l.339.357,4.231-2.4-1.294,1.5a1.84,1.84,0,0,0-.273,1.976l.22.474,3.489-1.456-.474.659a1.674,1.674,0,0,0,.273,2.253l.366.311,2.942-3.226a1.281,1.281,0,0,0,.217-1.4" fill="#72594b"/><path d="M324.9,171.371l-.086-.981a2.091,2.091,0,0,0-1.2-1.712l-8.924-4.137-2.087-1.644-4.463,2.231,4.59,4.953a6.158,6.158,0,0,0,4.838,1.963l1.6-.084.406,2.231-1.055.653a2.114,2.114,0,0,0-.965,2.2l.059.3,3.922-1.666.744-2.976.406,2.448-1.284,1.225a1.72,1.72,0,0,0-.271,2.157l.2.324,2.858-1.98.2,1.246a1.6,1.6,0,0,0,1.866,1.316l.287-.054v-6.923Z" fill="#d8b094"/><path d="M314.617,106.949a1.218,1.218,0,1,0,1.218-1.217,1.218,1.218,0,0,0-1.218,1.217"/><path d="M318.56,111.658l-.955-.08a3.66,3.66,0,0,0-3.488,1.835l-.481.843,6.116.515.073-1.675a1.383,1.383,0,0,0-1.265-1.438" fill="#ce9c5f"/><path d="M307.962,95.911l5.674-4.249-5.293-2.47a12.773,12.773,0,0,0-12.966,1.282,16.75,16.75,0,0,0-5.617,20.045,12.177,12.177,0,0,0,3.134,4.633,13.272,13.272,0,0,0,8.215-5.251,4.458,4.458,0,0,1-2.167-3.256l-.1-.707a2.4,2.4,0,1,1,4.766-.567l.32,3.1,2.927-.306-.641-5.575,3.846-3.462Z" fill="#ce9c5f"/><path d="M312.552,105.2a.577.577,0,0,1-.4-.991c1-.969,3.447-2.41,5.6-.924a.577.577,0,0,1-.656.95c-1.921-1.327-4.119.779-4.141.8a.577.577,0,0,1-.4.164" fill="#ce9c5f"/><path d="M243.847,160.8l-24.039-15.577-1.39-1.695c-4.546-9.861-9.316-16.288-14.69-21.329.035-1.133.076-2.779.119-5.053-9.9-2.692-17.212-.961-17.212-.961l.084,5.118a10.065,10.065,0,0,0-2.169,9.545c2.536,8.648,5.69,21.418,4.489,28.029-1.923,10.577-6.731,14.808-6.731,14.808s26.731,10.961,43.846-9.231c-.17-.558-.34-1.1-.51-1.646l11.087,7.031Z" fill="#043c40"/><path d="M315.577,163.3l-16.96-15.769-.215-1a61.884,61.884,0,0,1,3.019-12.653c1.428-3.987-3.215-13.254-7.287-14.421a16.283,16.283,0,0,0-18.54,7.42,88.362,88.362,0,0,0-11.535,34.506l-1.512,13.072s21.67,5.962,39.917-6.2a21.4,21.4,0,0,1-3.017-5.99l11.921,7Z" fill="#043c40"/><path d="M293.2,158.591a13.219,13.219,0,0,1-6.17-8.354l-2-8.434-1.423,3.4a10.34,10.34,0,0,0,4.83,13.2l11.839,6.05-.642-2.078Z" fill="#022e32"/><path d="M297.821,148.3l-6.956-1.43s4.488-3.666,6.956,1.43" fill="#022e32"/><path d="M213.077,154.835,196.51,136.4l1.78,4.5a38.534,38.534,0,0,0,27.333,23.427l.531.121-.764-1.807Z" fill="#022e32"/><path d="M204.135,97.719a1.25,1.25,0,1,0,1.25-1.25,1.25,1.25,0,0,0-1.25,1.25"/><path d="M203.847,120.86l-5.627-4.7a7.458,7.458,0,0,0-9.217-.272,8.668,8.668,0,0,1-9.6.471l-7.478-4.472-5,1.666,2.051,5.385,10.9,3.449a8.666,8.666,0,0,0,7.606-1.18l2.649-1.868a7.457,7.457,0,0,1,7.942-.412l5.514,3.088Z" fill="#df6c47"/><path d="M206.68,105.668l-1.1,1.154,4.1.256-.4-.941a1.582,1.582,0,0,0-2.6-.469" fill="#f3f3f3"/><path d="M196.6,97.562a4.994,4.994,0,0,0-1.937-3.62l-1.965-1.511.82-1.125A4.542,4.542,0,0,0,192.7,85.1l-1.159-.937s-3.144-2.539-6.154-1.923a24.575,24.575,0,0,1-6.52.294c-.016-1.761-.821-5.164-6.877-4.878,2.563,1.924,3.4,2.628,4.359,4.584,0,0,.769,3.269,5,3.557-2.789,2.885-7.5,20.577,5.1,26.154a14.945,14.945,0,0,0,6.216-8.692,3.6,3.6,0,0,1-3.619-3.408l-.071-1.332a2.36,2.36,0,0,1,4.714-.249l.23,4.372,3.011-.21Z" fill="#d2d2d2"/><path d="M201.924,96.149a.457.457,0,0,1-.1-.011.48.48,0,0,1-.367-.572,3.827,3.827,0,0,1,1.54-2.22,3.7,3.7,0,0,1,2.879-.391.479.479,0,0,1,.366.572.484.484,0,0,1-.572.367,2.781,2.781,0,0,0-2.155.262,2.889,2.889,0,0,0-1.119,1.615.481.481,0,0,1-.469.378" fill="#d2d2d2"/><path d="M303.332,124.258a30.833,30.833,0,0,0-13.653-9.487l-4.807,6.771,15.41,7.139Z" fill="#043c40"/><path d="M301.432,127.014a9.021,9.021,0,0,1,1.452,4.487c-5.063,5.834-18.52,0-23.846,7.692h-6.411l1.09-6.858a24.763,24.763,0,0,1,15.146-2.116c14.47,2.789,11.962-2.324,11.962-2.324Z" fill="#ed8422"/><path d="M300.825,127.894s-4.223-4.79-8.069-6.168c4.679.8,8.676,5.288,8.676,5.288Z" fill="#022e32"/><path d="M383.462,85.924c-1.923-5.9-10.577-5.792-12.244-1.55-5.064-3.578-14.679,3.345-10.512,9.948a5.051,5.051,0,0,0-2.612,2.625,6.708,6.708,0,0,0-3.478-.91c-2.841,0-5.145,1.538-5.145,3.437,0,1.519,1.476,2.8,3.52,3.26-1.4,1.23-2.1,2.851-1,4.27,1.32,1.694,3.076,1.53,4.526.921a3.526,3.526,0,0,0,.917,1.332c2.243,2.116,8.333,1.539,9.038-1.923a7.211,7.211,0,0,0,7.163-4.447,3.388,3.388,0,0,1-2.917-3.647l.16-1.824a2.533,2.533,0,1,1,5.038.517l-.015.131c1.626-.37,3.613-1.493,4.673-4.64,3.59,1.154,7.244-.577,7.821-3.205s-2.628-5.192-4.936-4.295"/><path d="M460.674,158.489l1.545-19.52v-.014a11.5,11.5,0,0,0-13.841-12.219c-18.665,3.728-44.852,25.983-46.087,41.511,11.722,7.557,32.895,16.369,32.895,16.369l5.769-13.874a27.134,27.134,0,0,1,3.693-6.313l4.891-6.247.019,1.27a10.718,10.718,0,0,0,4.767,8.763l15.153,10.11a14.611,14.611,0,0,0,7.114-9.457l.356-1.533Z" fill="#0d7364"/><path d="M449.565,157.542l-.334-18.861s-6.41,11.071-2.812,23.457c.556-.85,3.146-4.6,3.146-4.6" fill="#043c40"/><path d="M353.9,128.238v19.2a10.8,10.8,0,0,0,5.409,9.357l21.647,12.463,4.022-7.19-18.436-14.926.745-18.636a6.7,6.7,0,1,0-13.387-.268" fill="#b2b2b2"/><path d="M366.539,147.142l.745-18.636a6.677,6.677,0,0,0-.422-2.61,10.891,10.891,0,0,1,3.616,2.9l.146.179a17.71,17.71,0,0,0-.388-5.734,41.258,41.258,0,0,0-1.592-5.258,9.436,9.436,0,0,0-13.3-4.956,38.082,38.082,0,0,0-16.986,19.5c-4.529,11.035-4.829,21.076-6.442,30.02A40.227,40.227,0,0,0,343.357,145.1a40.226,40.226,0,0,1,10.54-16.612v18.947a10.8,10.8,0,0,0,5.41,9.356l21.646,12.463,4.022-7.189Z" fill="#c2c2c2"/><path d="M365.385,147.527l-6.538-.961s4.615-3.27,6.538.961" fill="#b2b2b2"/><path d="M380.953,165.673a1.278,1.278,0,1,0-1.278,1.277,1.278,1.278,0,0,0,1.278-1.277" fill="#d2d2d2"/><path d="M390.592,96.793l-3.365-.417a.378.378,0,0,0-.126.008l-1.913-.263a1.949,1.949,0,0,0-.2-.008V96.1l-9.918-.345.641.817,7.592.245a2.137,2.137,0,0,0-.529,1.139l-.333,2.424a2.145,2.145,0,0,0,1.829,2.414l2.66.366a1.967,1.967,0,0,0,.253.017,1.826,1.826,0,0,0,1.8-1.574l.421-3.057a1.8,1.8,0,0,0-.23-1.149l1.324.164a.371.371,0,0,0,.047,0,.384.384,0,0,0,.047-.766m-2.37,4.7a1.047,1.047,0,0,1-.407.7,1.06,1.06,0,0,1-.78.2l-2.66-.366a1.374,1.374,0,0,1-1.173-1.547l.333-2.424a1.376,1.376,0,0,1,1.36-1.186,1.5,1.5,0,0,1,.187.013l2.66.365a1.059,1.059,0,0,1,.7.408,1.045,1.045,0,0,1,.2.78Z"/></svg>