<svg xmlns="http://www.w3.org/2000/svg" viewBox="0 0 636 300"><title>MSC17-agriculture-001</title><path d="M636,0V300H0V0Z" fill="#e6e6e6"/><path d="M461.5,261.181H200.429a1.7,1.7,0,0,0-1.7,1.655,1.643,1.643,0,0,0,1.7,1.586H461.5a1.581,1.581,0,0,0,1.626-1.586,1.638,1.638,0,0,0-1.626-1.655" fill="#d2d2d2" fill-rule="evenodd"/><path d="M261.314,235.29l2.415-6.408-6.429-3.673a18.307,18.307,0,0,0-.212-5.059l6.224-4.111-2.823-6.239-7.267,1.983a18.229,18.229,0,0,0-3.623-3.366l1.513-7.405-6.407-2.414-3.75,6.562a18.267,18.267,0,0,0-4.943.138l-4.151-6.285-6.239,2.825,1.964,7.2a18.293,18.293,0,0,0-3.5,3.661l-7.253-1.483-2.415,6.409,6.336,3.619a18.3,18.3,0,0,0,.119,5.235l-6.039,3.989,2.824,6.239,6.914-1.887a18.25,18.25,0,0,0,3.892,3.677l-1.43,7,6.408,2.414,3.543-6.2a18.2,18.2,0,0,0,5.351-.194l3.95,5.98,6.238-2.824-1.905-6.983a18.271,18.271,0,0,0,3.544-3.854Zm-25.772-2.662A9.823,9.823,0,1,1,248.2,226.9a9.822,9.822,0,0,1-12.655,5.729" fill="#4e9c4f"/><path d="M257.088,220.15l6.225-4.111-2.824-6.24-7.266,1.983a18.179,18.179,0,0,0-1.783-1.88l-5.579,6.5a9.819,9.819,0,0,1-12.76,14.877l-5.576,6.5c.306.246.618.485.941.712l-1.43,7,6.408,2.414,3.543-6.2a18.3,18.3,0,0,0,5.351-.2l3.95,5.98,6.238-2.824-1.905-6.983a18.245,18.245,0,0,0,3.544-3.854l7.149,1.461,2.415-6.408L257.3,225.21a18.274,18.274,0,0,0-.212-5.06" fill="#107c10"/><rect x="301.36" y="127.882" width="10.184" height="15.379" transform="translate(-25.122 87.085) rotate(-15.545)" fill="#c58d1f"/><rect x="313.873" y="106.903" width="10.184" height="32.551" transform="translate(-21.343 89.985) rotate(-15.545)" fill="#939393"/><rect x="327.402" y="88.769" width="10.184" height="46.654" transform="translate(-17.879 93.206) rotate(-15.545)" fill="#1070c4"/><rect x="338.398" y="57.444" width="10.184" height="74.394" transform="translate(-12.799 95.514) rotate(-15.545)" fill="#107c10"/><rect x="298.428" y="128.698" width="10.184" height="15.379" transform="translate(-25.448 86.329) rotate(-15.545)" fill="#edac28"/><rect x="310.997" y="107.703" width="10.184" height="32.551" transform="translate(-21.663 89.244) rotate(-15.545)" fill="#b2b2b2"/><rect x="323.977" y="89.722" width="10.184" height="46.655" transform="matrix(0.963, -0.268, 0.268, 0.963, -18.259, 92.323)" fill="#0078d7"/><rect x="335.156" y="58.346" width="10.184" height="74.394" transform="translate(-13.159 94.678) rotate(-15.545)" fill="#4e9c4f"/><path d="M236.9,103.715l.77-25.463S216.04,51.52,215.383,51.245A56.709,56.709,0,1,0,286.047,132c-.2-.139-16.324-15.815-16.324-15.815Z" fill="#4e9c4f"/><path d="M215.383,51.245l21.512,52.47L289.365,82.2A56.7,56.7,0,0,0,216.53,50.8Z" fill="#b2b2b2"/><path d="M236.9,103.715l49.176,28.243s6.186-10.332,6.866-19.524L236.9,103.715" fill="#edac28"/><path d="M358.76,227.63,190.241,179.273,359.464,133.53s16.318,53.99-.7,94.1" fill="#0078d7"/><path d="M358.76,227.63c17.022-40.11.7-94.1.7-94.1l-62.305,76.424Z" fill="#1070c4"/><path d="M357.93,198.858a11.575,11.575,0,0,0,3.394-8.525,11.59,11.59,0,0,0-10.7,6.42V191.1a11.6,11.6,0,0,0,10.7-11.885,11.585,11.585,0,0,0-10.7,6.42v-5.11a9.966,9.966,0,0,0,9.036-10.2,9.937,9.937,0,0,0-9.036,5.207v-2.1a9.969,9.969,0,0,0-1.222-13.1,9.969,9.969,0,0,0-1.222,13.1v2.1a9.942,9.942,0,0,0-9.036-5.207,9.966,9.966,0,0,0,9.036,10.2v5.11a11.581,11.581,0,0,0-10.7-6.42,11.594,11.594,0,0,0,10.7,11.885v5.651a11.585,11.585,0,0,0-10.7-6.42,11.594,11.594,0,0,0,10.7,11.885v5.652a11.581,11.581,0,0,0-10.7-6.42,11.594,11.594,0,0,0,10.7,11.884v34.43h2.444v-34.43a11.6,11.6,0,0,0,10.7-11.884,11.585,11.585,0,0,0-10.7,6.42v-5.652a11.555,11.555,0,0,0,7.307-3.36" fill="#edac28"/><path d="M349.4,174.828a9.985,9.985,0,0,0,0-14.5Z" fill="#ed8422"/><path d="M356.739,177.657a9.961,9.961,0,0,1-7.335,2.92l10.255-10.255a9.959,9.959,0,0,1-2.92,7.335" fill="#ed8422"/><path d="M357.93,187.742a11.579,11.579,0,0,1-8.525,3.394l11.919-11.919a11.577,11.577,0,0,1-3.394,8.525" fill="#ed8422"/><path d="M357.93,198.858a11.579,11.579,0,0,1-8.525,3.394l11.919-11.919a11.575,11.575,0,0,1-3.394,8.525" fill="#ed8422"/><path d="M357.93,209.974a11.579,11.579,0,0,1-8.525,3.394l11.919-11.918a11.575,11.575,0,0,1-3.394,8.524" fill="#ed8422"/><path d="M326.156,216.578a11.581,11.581,0,0,0,3.394-8.525,11.59,11.59,0,0,0-10.7,6.42v-5.651a11.6,11.6,0,0,0,10.7-11.885,11.59,11.59,0,0,0-10.7,6.42v-5.11a9.966,9.966,0,0,0,9.036-10.205,9.939,9.939,0,0,0-9.036,5.208v-2.1a9.97,9.97,0,0,0-1.221-13.1,9.968,9.968,0,0,0-1.223,13.1v2.1a9.934,9.934,0,0,0-9.036-5.208,9.966,9.966,0,0,0,9.036,10.205v5.11a11.59,11.59,0,0,0-10.7-6.42,11.594,11.594,0,0,0,10.7,11.885v5.651a11.59,11.59,0,0,0-10.7-6.42,11.594,11.594,0,0,0,10.7,11.885v5.651a11.59,11.59,0,0,0-10.7-6.42,11.594,11.594,0,0,0,10.7,11.885v13.9h2.444v-13.9a11.6,11.6,0,0,0,10.7-11.885,11.59,11.59,0,0,0-10.7,6.42v-5.651a11.555,11.555,0,0,0,7.307-3.36" fill="#edac28"/><path d="M317.627,192.548a9.981,9.981,0,0,0,0-14.5Z" fill="#ed8422"/><path d="M324.965,195.377a9.96,9.96,0,0,1-7.334,2.92l10.254-10.255a9.96,9.96,0,0,1-2.92,7.335" fill="#ed8422"/><path d="M326.156,205.461a11.571,11.571,0,0,1-8.524,3.394l11.918-11.918a11.577,11.577,0,0,1-3.394,8.524" fill="#ed8422"/><path d="M326.156,216.578a11.578,11.578,0,0,1-8.524,3.394l11.918-11.919a11.581,11.581,0,0,1-3.394,8.525" fill="#ed8422"/><path d="M326.156,227.694a11.578,11.578,0,0,1-8.524,3.394l11.918-11.919a11.579,11.579,0,0,1-3.394,8.525" fill="#ed8422"/><path d="M292.869,181.948a11.579,11.579,0,0,0,3.394-8.525,11.59,11.59,0,0,0-10.7,6.42v-5.651a11.6,11.6,0,0,0,10.7-11.885,11.59,11.59,0,0,0-10.7,6.42v-5.11a9.964,9.964,0,0,0,9.036-10.2,9.937,9.937,0,0,0-9.036,5.207v-2.1a9.971,9.971,0,0,0-1.222-13.1,9.97,9.97,0,0,0-1.223,13.1v2.1a9.931,9.931,0,0,0-9.035-5.207,9.965,9.965,0,0,0,9.035,10.2v5.11a11.585,11.585,0,0,0-10.7-6.42,11.6,11.6,0,0,0,10.7,11.885v5.651a11.585,11.585,0,0,0-10.7-6.42,11.6,11.6,0,0,0,10.7,11.885v5.652a11.581,11.581,0,0,0-10.7-6.42,11.6,11.6,0,0,0,10.7,11.884v48.533h2.445V196.424a11.6,11.6,0,0,0,10.7-11.884,11.585,11.585,0,0,0-10.7,6.42v-5.652a11.557,11.557,0,0,0,7.307-3.36" fill="#edac28"/><path d="M284.34,157.918a9.984,9.984,0,0,0,0-14.5Z" fill="#ed8422"/><path d="M291.678,160.747a9.959,9.959,0,0,1-7.335,2.92L294.6,153.413a9.96,9.96,0,0,1-2.92,7.334" fill="#ed8422"/><path d="M292.869,170.832a11.577,11.577,0,0,1-8.525,3.394l11.919-11.919a11.579,11.579,0,0,1-3.394,8.525" fill="#ed8422"/><path d="M292.869,181.948a11.581,11.581,0,0,1-8.525,3.394l11.919-11.919a11.579,11.579,0,0,1-3.394,8.525" fill="#ed8422"/><path d="M292.869,193.064a11.577,11.577,0,0,1-8.525,3.394l11.919-11.918a11.578,11.578,0,0,1-3.394,8.524" fill="#ed8422"/><rect x="210.395" y="242.214" width="147.889" height="6.347" fill="#b2b2b2"/><rect x="210.395" y="234.521" width="147.889" height="6.347" fill="#b2b2b2"/><polygon points="358.284 249.961 210.395 249.961 210.395 254.223 358.284 254.223 370.267 249.393 370.267 246.253 358.284 249.961" fill="#939393" fill-rule="evenodd"/><path d="M323.564,256.059a8.1,8.1,0,1,1,8.1,8.186,8.145,8.145,0,0,1-8.1-8.186"/><path d="M327.454,256.141a4.217,4.217,0,1,1,4.214,4.052,4.136,4.136,0,0,1-4.214-4.052" fill="#737373"/><path d="M220.1,256.059a8.1,8.1,0,1,1,8.1,8.186,8.146,8.146,0,0,1-8.1-8.186"/><path d="M223.992,256.141a4.218,4.218,0,1,1,4.215,4.052,4.136,4.136,0,0,1-4.215-4.052" fill="#737373"/><path d="M402.118,225.464h-8.073l-2.125-6.295a1.478,1.478,0,0,0-1.841-.839,1.45,1.45,0,0,0-.85,1.819l2.833,8.113h10.056a1.411,1.411,0,0,0,1.416-1.4,1.513,1.513,0,0,0-1.416-1.4" fill="#b2b2b2" fill-rule="evenodd"/><path d="M387.105,198.276h0a2.691,2.691,0,0,0-2.826,2.536l-1.978,25.5h5.511V198.98a.666.666,0,0,0-.707-.7" fill="#b2b2b2" fill-rule="evenodd"/><path d="M418.164,231.37,407.579,220.5l2.176-2.056a.788.788,0,0,0,0-1.265.8.8,0,0,0-1.273,0l-5.658,5.2a.936.936,0,0,0,0,1.407c.282.282.99.422,1.272,0,0,0,.006,0,2.327-2.2l10.616,10.767a.68.68,0,0,0,.984,0,.6.6,0,0,0,.141-.986" fill="#b2b2b2" fill-rule="evenodd"/><path d="M458.751,244.957v-5.065h-2.968a1.244,1.244,0,0,1-1.273-1.122,1.262,1.262,0,0,1,1.273-1.263h2.968v-2.386h-2.968a1.263,1.263,0,0,1-1.273-1.263,1.152,1.152,0,0,1,1.273-1.122h2.968V230.21h-2.968a1.152,1.152,0,0,1-1.273-1.122,1.263,1.263,0,0,1,1.273-1.263h2.968V226.7c0-3.789-3.11-5.807-6.926-5.807-9.98,0-17.128-.129-22.25-.129v-2.64c0-.281-.3-.563-.753-.563h-1.354v3.2h-10c-1.131,0-2.962,3.632-2.962,4.754v15.633h-6.078a21.763,21.763,0,0,0-3.391-9.26,21.254,21.254,0,0,0-27.987-6.875,1.369,1.369,0,0,0-.564,2.1l3.25,5.05a13.729,13.729,0,0,1,18.94,3.93,13.051,13.051,0,0,1,1.413,11.786Z" fill="#939393" fill-rule="evenodd"/><path d="M428.981,225.522h29.013a6.848,6.848,0,0,0-6.783-5.674h-22.23Z" fill="#b2b2b2" fill-rule="evenodd"/><path d="M400.189,244.957a12.83,12.83,0,0,1-.707,5.673h53.867a4.776,4.776,0,0,0,4.808-4.823v-.85Z" fill="#737373" fill-rule="evenodd"/><path d="M438.546,243.336H413.907V230.855h24.639a1.113,1.113,0,0,1,1.134,1.122v10.1a1.242,1.242,0,0,1-1.134,1.263" fill="#737373" fill-rule="evenodd"/><path d="M438.546,230.855H413.907v1.4h23.931a.45.45,0,0,1,.425.421v10.658h.283a1.242,1.242,0,0,0,1.134-1.262v-10.1a1.113,1.113,0,0,0-1.134-1.122" fill="#505050" fill-rule="evenodd"/><path d="M368.523,246.253a18.154,18.154,0,1,1,18.154,17.992,18.073,18.073,0,0,1-18.154-17.992"/><path d="M378.087,246.253a8.59,8.59,0,1,1,8.59,8.59,8.59,8.59,0,0,1-8.59-8.59" fill="#737373"/><path d="M437.41,256.059a8.1,8.1,0,1,1,8.1,8.186,8.145,8.145,0,0,1-8.1-8.186"/><path d="M441.3,256.141a4.217,4.217,0,1,1,4.214,4.052,4.135,4.135,0,0,1-4.214-4.052" fill="#737373"/><path d="M423.87,211.729a.6.6,0,0,0-.561.555v.7a.6.6,0,0,0,.561.556A1.831,1.831,0,0,1,425.7,215.2v2.362h-.7a.65.65,0,0,0-.712.564v1.721h-8.254a2.056,2.056,0,0,0-2.12,1.985v3.687h10.374v6.413a.669.669,0,0,0,.712.7h1.881V217.564h.649V215.2a3.5,3.5,0,0,0-3.653-3.473" fill="#b2b2b2" fill-rule="evenodd"/><path d="M417.473,219.347h0v6.645a3.411,3.411,0,0,0,3.4-3.323,3.321,3.321,0,0,0-3.4-3.322" fill="#737373" fill-rule="evenodd"/></svg>