<svg xmlns="http://www.w3.org/2000/svg" viewBox="0 0 636 300"><title>MSC17-cloud-003</title><path d="M636,0V300H0V0Z" fill="#409ae1"/><path d="M152.867,244.677a36.805,36.805,0,0,0-15.882,3.581A68.632,68.632,0,0,0,3.374,227.919V299.7H185.11a36.958,36.958,0,0,0-32.243-55.025" fill="#1070c4"/><path d="M595.491,207.5a10.4,10.4,0,0,0-3.6.639,26.231,26.231,0,1,0-51.6-8.925,16.057,16.057,0,0,0-25.4,12.5,8.867,8.867,0,1,0-4.285,16.63h84.886a10.42,10.42,0,0,0,0-20.839" fill="#1070c4"/><path d="M160.744,72.259a5.534,5.534,0,0,0-2.677.686A20.6,20.6,0,1,0,119.551,62.8c0,.665.034,1.32.095,1.968a9.64,9.64,0,1,0-3.481,18.629h44.579a5.567,5.567,0,0,0,0-11.133" fill="#1070c4"/><path d="M425.28,78.031a5.555,5.555,0,0,0-.017-4.134c-1.707,3.244-3.857,4.1-6.446,3.928a29.267,29.267,0,0,1-5.156-1.364l-11.8,7.307S384.75,89.6,399.623,95.115c22.243,6.986,33.717-9.872,33.782-22.564a10.061,10.061,0,0,1-8.125,5.48"/><path d="M138.323,200.523l24.13-23.626a8.715,8.715,0,0,0,2.566-5.283l.011-.106a8.708,8.708,0,0,1,3.022-5.7l84.161-71.446.6.707a1.961,1.961,0,0,0,2.761.226l.025-.022a1.958,1.958,0,0,0,.225-2.761l-4.542-5.35a1.959,1.959,0,0,0-2.761-.226l-.024.021a1.959,1.959,0,0,0-.226,2.761l.8.938L165.03,162a8.712,8.712,0,0,1-6.391,2.037,8.711,8.711,0,0,0-5.906,1.654l-27.1,19.881a5.544,5.544,0,0,0-.947,8.058l5.536,6.521a5.544,5.544,0,0,0,8.1.373" fill="#ed8422"/><path d="M218.2,102.571s4.236,9.245,7.57,10.468,20.354-2.555,20.354-2.555l7.958,5.63-6.762,3.824s-18.021-1.57-23.577-3.608-7.676-12.588-7.676-12.588Z" fill="#0078d7"/><path d="M233.071,200.523,257.2,176.9a8.715,8.715,0,0,0,2.566-5.283l.011-.106a8.708,8.708,0,0,1,3.022-5.7l84.162-71.446.6.707a1.962,1.962,0,0,0,2.762.226l.024-.022a1.958,1.958,0,0,0,.225-2.761l-4.542-5.35a1.959,1.959,0,0,0-2.761-.226l-.024.021a1.959,1.959,0,0,0-.226,2.761l.8.938L259.778,162a8.709,8.709,0,0,1-6.39,2.037,8.711,8.711,0,0,0-5.906,1.654l-27.1,19.881a5.545,5.545,0,0,0-.947,8.058l5.536,6.521a5.543,5.543,0,0,0,8.1.373" fill="#ed8422"/><path d="M321.143,200.523,345.274,176.9a8.708,8.708,0,0,0,2.565-5.283l.012-.106a8.7,8.7,0,0,1,3.021-5.7l84.163-71.446.6.707a1.961,1.961,0,0,0,2.761.226l.024-.022a1.959,1.959,0,0,0,.226-2.761l-4.543-5.35a1.959,1.959,0,0,0-2.761-.226l-.023.021a1.959,1.959,0,0,0-.227,2.761l.8.938L347.85,162a8.709,8.709,0,0,1-6.39,2.037,8.709,8.709,0,0,0-5.906,1.654l-27.1,19.881a5.544,5.544,0,0,0-.947,8.058l5.535,6.521a5.544,5.544,0,0,0,8.1.373" fill="#ed8422"/><path d="M318.355,93.253l-2.121-1.919a2.508,2.508,0,0,1-.816-1.748c-.01-.176-.019-.341-.03-.5a15.273,15.273,0,1,0-14.073,16.385c2.383-.182,6.251-.295,9.243-.359a4.673,4.673,0,0,0,4.564-4.413c.08-1.417.163-3.042.226-4.65l2.1-.16a1.518,1.518,0,0,0,.9-2.64" fill="#d8b094"/><path d="M309.362,105.213l-1.994.056a13.132,13.132,0,0,0-8.876,3.8l-3.886,3.854-12.39-4.547,9.849-9.145Z" fill="#d8b094"/><path d="M310.772,91.578a1.217,1.217,0,1,0,1.121-1.306,1.217,1.217,0,0,0-1.121,1.306"/><path d="M315.754,100.154l-.305-2.067.529-.08-.63-1.954a6.166,6.166,0,0,0-4.06,1.305l-1.118.875a2.461,2.461,0,0,1-2.1.454L305.9,98.2a2.46,2.46,0,0,1-1.828-1.9l-1.336-4.969-.341-1.77c-.2-1.061-1.582-4.3,1.774-5.717,5.321-2.244,5.321-5.77,5.321-5.77s4.974-1.417,6.865-5.744l-12.789.961a5.538,5.538,0,0,0,3.366-2.917L301.9,71.712a26.222,26.222,0,0,0-11.553,6.562l-1.339,1.3a15.485,15.485,0,0,0-4.26,9.411s-.3,8.76,4.984,12.412a13.289,13.289,0,0,0,7.822-5.9,4.458,4.458,0,0,1-2.393-3.194l-.11-.607a2.465,2.465,0,0,1,1.486-2.765,2.4,2.4,0,0,1,3.232,1.889l.664,4.461,1.211,6.791a2.277,2.277,0,0,0,1.855,1.844l4.387.754-.192,1.282,4.2-.505a4.159,4.159,0,0,0,3.493-2.96l.222-.761a4.154,4.154,0,0,0,.146-1.576" fill="#fec94e"/><path d="M308.536,89.992a.577.577,0,0,1-.433-.959c.92-1.041,3.257-2.663,5.516-1.346a.577.577,0,0,1-.581,1c-2.016-1.175-4.049,1.09-4.069,1.112a.574.574,0,0,1-.433.2" fill="#fec94e"/><path d="M419.569,89.952,417.7,87a3.235,3.235,0,0,1-.5-1.516c-.215-3.135-2-14.7-16.709-14.158-6.928.256-12.461,6.331-13.221,13.221A15,15,0,0,0,391,96.274l-4.429,5.014,8.925,6.255,3.011-3.212a9.631,9.631,0,0,1,7.025-3.043h5.76a4.491,4.491,0,0,0,4.411-3.647c.3-1.554.64-3.436.922-5.3l1.36.212a1.646,1.646,0,0,0,1.58-2.6" fill="#72594b"/><path d="M414.034,86.359a1.329,1.329,0,1,1-1.329-1.329,1.328,1.328,0,0,1,1.329,1.329"/><path d="M416.456,93.8l-5.176-.757a5.415,5.415,0,0,0,4.636,3.826c.183-.992.54-3.069.54-3.069" fill="#f3f3f3"/><path d="M408.876,84.467s2.068-3.029,5.962-1.105" fill="none" stroke="#000" stroke-linecap="round" stroke-miterlimit="10" stroke-width="7.256"/><path d="M398.353,70.17c-8.717,2.949-20.993,23.3-12.532,25.866,7.315,2.216,12.8-1.847,14.242-6.307a3.4,3.4,0,0,1-2.742-3.63l.16-1.823a2.533,2.533,0,1,1,5.039.517l-.016.131c1.626-.371,3.613-1.494,4.673-4.64,3.59,1.154,7.577-.525,7.821-3.205.407-4.473-7.927-9.857-16.645-6.909"/><path d="M237.3,85.786l-1.245-1.311a2.514,2.514,0,0,1-.681-1.8c0-.176.007-.342.007-.5a15.272,15.272,0,1,0-26.513,10.334l-8.023,6.39,12.011,5.473,4.166-3.55a13.132,13.132,0,0,1,9.138-3.121l1.993.095-.181-.079,1.378.072a4.675,4.675,0,0,0,4.888-4.057c.187-1.406.393-3.018.577-4.617h1.057a1.97,1.97,0,0,0,1.428-3.327" fill="#d8b094"/><path d="M230.592,84.3a1.217,1.217,0,1,0,1.217-1.217,1.217,1.217,0,0,0-1.217,1.217"/><path d="M223.358,67.018l-.769-.121a15.544,15.544,0,0,0-17.751,12.857s-.96,8.712,4.03,12.754a13.282,13.282,0,0,0,8.216-5.252A4.461,4.461,0,0,1,214.916,84l-.095-.708a2.4,2.4,0,1,1,4.765-.568l.32,3.1,2.928-.3-.445-3.866a3.336,3.336,0,0,1,1.083-2.861l1.609-1.448a3.333,3.333,0,0,0,1.087-2.145l.406-4.017a3.828,3.828,0,0,0-3.216-4.167"/><path d="M228.526,82.555a.577.577,0,0,1-.4-.99c1-.969,3.446-2.41,5.6-.924a.577.577,0,0,1-.655.95c-1.91-1.316-4.052.715-4.143.8a.575.575,0,0,1-.4.162"/><path d="M204.045,92.486l-2.931,3.063a16.268,16.268,0,0,0-11.541,7.849,88.363,88.363,0,0,0-11.535,34.5l-1.513,13.073s23.148,4.437,37.905-9.355c-1.782-15.907-.352-33.28.256-36.025a7.355,7.355,0,0,0-1.252-5.673l4.361.929s.481-.385,2.308-3.654c-9.231-5.1-16.058-4.712-16.058-4.712" fill="#021760"/><path d="M214.3,110.083l-12.949-1.667a17.373,17.373,0,0,0,12.18,11.923,67.554,67.554,0,0,1,.769-10.256"/><path d="M400.252,122.136c-.961-2.786-2.363-10.41-4.412-13.463-1.248-1.861-1.879-4.114-2.8-6l5.905,1.256a1.074,1.074,0,0,0,.138-.153,3.393,3.393,0,0,0-1.291-5.22c-7.426-3.283-12.6-2.993-12.6-2.993l-2.931,3.063a16.271,16.271,0,0,0-11.541,7.849,88.363,88.363,0,0,0-11.535,34.5l-1.513,13.073s23.725,3.09,38.482-10.7c.2-.5.451-6.2.651-10.351a6.551,6.551,0,0,1,1.3-3.615l1.26-1.68a6.008,6.008,0,0,0,.876-5.57" fill="#737373"/><path d="M286.166,100.948l-2.932,3.062a16.271,16.271,0,0,0-11.54,7.85,88.319,88.319,0,0,0-11.535,34.505l-1.513,13.072s21.668,4.181,36.425-9.611c-1.782-15.906,1.128-33.023,1.736-35.769a7.359,7.359,0,0,0-1.253-5.672l4.362.928s.481-.384,2.308-3.653c-9.231-5.1-16.058-4.712-16.058-4.712" fill="#b2b2b2"/><path d="M296.1,117.775l-12.623-.9A17.373,17.373,0,0,0,295.653,128.8c.128-6.923.444-11.025.444-11.025" fill="#939393"/><path d="M397.855,113.454l-15.348-1.961s5.484,12.355,13.689,15.175a26.071,26.071,0,0,0,3.27.9,6,6,0,0,0,.786-5.432c-.606-1.757-1.387-5.437-2.4-8.682" fill="#505050"/><path d="M315.545,98.072l-3.975.849a6.3,6.3,0,0,0,4.151.785c-.1-.657-.176-1.634-.176-1.634" fill="#fff"/><path d="M234.566,90.848h-4.294a18.391,18.391,0,0,0,4.1,1.41,6.08,6.08,0,0,0,.192-1.41" fill="#cb8c84"/><path d="M502.891,179.7h-19.23a1.539,1.539,0,1,1,0-3.077h19.23a1.539,1.539,0,1,1,0,3.077" fill="#e6e6e6"/><path d="M500.2,142.006H457.891a1.539,1.539,0,0,1,0-3.077H500.2a1.539,1.539,0,1,1,0,3.077" fill="#fff"/><path d="M472.891,179.7H461.353a1.539,1.539,0,0,1,0-3.077h11.538a1.539,1.539,0,1,1,0,3.077" fill="#e6e6e6"/><path d="M418.276,185.083a1.539,1.539,0,0,1,0-3.077h31.415c.081-.811.124-1.633.124-2.465a24.382,24.382,0,0,0-41.46-17.408A37.829,37.829,0,0,0,347.86,135.94a37.124,37.124,0,0,0-49.743-4.871,32.229,32.229,0,0,0-48.655.52,41.747,41.747,0,0,0-67.054,14.654,30.834,30.834,0,1,0-15.155,57.686H425.427a24.391,24.391,0,0,0,23.747-18.846Z" fill="#fff"/><path d="M135.968,191.878h.047a.03.03,0,0,0-.047,0" fill="#e6e6e6"/><path d="M489.815,185.083H425.584a22.254,22.254,0,0,1-13.289,6.622,111.554,111.554,0,0,1,6.829-35.723,24.294,24.294,0,0,0-7.384,3.381,115.741,115.741,0,0,0-4.762,23.022c-.346,3.367-.531,6.546-.606,9.492H321.521c.44-16.179,4.428-39.724,20.7-61.024a37.052,37.052,0,0,0-5.026-3.094c-14.546,19.281-19.48,40-20.986,54.626-.346,3.367-.531,6.546-.606,9.492H230.751c.472-17.311,5-43.053,24.3-65.456a32.539,32.539,0,0,0-5.589,5.168,42.019,42.019,0,0,0-3.641-3.013c-14.076,19.048-18.9,39.393-20.381,53.809-.346,3.367-.532,6.546-.606,9.492H142.807a30.779,30.779,0,0,0,24.446,12.052H425.427a24.388,24.388,0,0,0,22.811-15.769h41.577a1.539,1.539,0,0,0,0-3.077" fill="#e6e6e6"/><path d="M431.866,156.019v13.554a22.189,22.189,0,0,1-3.788,12.433h21.613q.122-1.217.123-2.465a24.393,24.393,0,0,0-17.948-23.522" fill="#e6e6e6"/><path d="M203.036,220.659l13.47-31.549a8.846,8.846,0,0,0,.355-5.955l-.03-.1a8.847,8.847,0,0,1,.622-6.523l51.236-99.753.837.43a1.989,1.989,0,0,0,2.679-.86l.015-.03a1.988,1.988,0,0,0-.86-2.678l-6.343-3.258a1.99,1.99,0,0,0-2.679.861l-.015.028a1.99,1.99,0,0,0,.861,2.68l1.112.571-51.16,99.607a8.845,8.845,0,0,1-5.206,4.395,8.837,8.837,0,0,0-4.9,3.847l-17.715,29.189a5.633,5.633,0,0,0,2.242,7.931l7.728,3.969a5.631,5.631,0,0,0,7.752-2.8" fill="#edac28"/><polygon points="255.68 102.198 262.795 88.256 256.417 89.698 249.686 102.903 255.68 102.198" fill="#ed8422"/><path d="M196.74,219.085a1.435,1.435,0,0,1-1.812.708l-10.273-4.02a5.608,5.608,0,0,0,2.9,3.714l7.728,3.97a5.632,5.632,0,0,0,7.752-2.8l13.469-31.549a8.844,8.844,0,0,0,.356-5.954l-.03-.105a8.841,8.841,0,0,1,.622-6.523Z" fill="#ed8422"/><path d="M255.5,82.484l4.686-4.091a4.239,4.239,0,0,1,1.656-.893l6.326-.832a1.591,1.591,0,0,1,1.387,2.645l-1.276,1.411a2.7,2.7,0,0,1,.3,3.457l-.363.517a1.964,1.964,0,0,1,.01,2.83l-.651.631a2.66,2.66,0,0,1-1.408,2.726l-1.072.56a8.093,8.093,0,0,1-5.989-.867l-.716-.416-5.766.806L250.7,85.347Z" fill="#d8b094"/><polygon points="249.238 85.948 252.988 83.063 258.084 91.044 255.007 92.967 249.238 85.948" fill="#fff"/><path d="M203.938,97.129l-3.418,12.533,33.1,2.107a3.9,3.9,0,0,0,2.943-1.07l20.653-17.444-6.861-8.39-19.926,15.4Z" fill="#021760"/><path d="M254.045,92.583a1.058,1.058,0,1,1-1.057-1.058,1.057,1.057,0,0,1,1.057,1.058" fill="#09538f"/><path d="M383.42,223.736l13.47-31.549a8.846,8.846,0,0,0,.356-5.955l-.03-.1a8.846,8.846,0,0,1,.621-6.523l51.236-99.754.838.431a1.987,1.987,0,0,0,2.678-.861l.016-.029a1.988,1.988,0,0,0-.861-2.678L445.4,73.456a1.989,1.989,0,0,0-2.679.861l-.015.028a1.99,1.99,0,0,0,.861,2.68l1.112.571L393.52,177.2a8.842,8.842,0,0,1-5.206,4.4,8.841,8.841,0,0,0-4.9,3.847L365.7,214.634a5.632,5.632,0,0,0,2.241,7.931l7.729,3.969a5.63,5.63,0,0,0,7.751-2.8" fill="#edac28"/><polygon points="436.065 105.275 443.18 91.333 436.801 92.775 430.071 105.98 436.065 105.275" fill="#ed8422"/><path d="M383.42,223.736l13.47-31.549a8.846,8.846,0,0,0,.356-5.955l-.03-.1a8.846,8.846,0,0,1,.621-6.523l51.236-99.754.838.431a1.987,1.987,0,0,0,2.678-.861l.016-.029a1.988,1.988,0,0,0-.861-2.678L445.4,73.456a1.989,1.989,0,0,0-2.679.861l-.015.028a1.99,1.99,0,0,0,.861,2.68l1.112.571L393.52,177.2a8.842,8.842,0,0,1-5.206,4.4,8.841,8.841,0,0,0-4.9,3.847L365.7,214.634a5.632,5.632,0,0,0,2.241,7.931l7.729,3.969a5.63,5.63,0,0,0,7.751-2.8" fill="#edac28"/><path d="M377.124,222.162a1.433,1.433,0,0,1-1.811.708l-10.273-4.02a5.6,5.6,0,0,0,2.9,3.713l7.728,3.97a5.631,5.631,0,0,0,7.752-2.8l13.469-31.549a8.85,8.85,0,0,0,.356-5.954l-.031-.105a8.851,8.851,0,0,1,.622-6.523Z" fill="#ed8422"/><path d="M435.882,86.282l4.686-4.091a4.235,4.235,0,0,1,1.655-.893l6.327-.831a1.59,1.59,0,0,1,1.387,2.644l-1.276,1.411a2.7,2.7,0,0,1,.3,3.457l-.363.518a1.964,1.964,0,0,1,.009,2.83l-.651.631a2.66,2.66,0,0,1-1.407,2.725l-1.073.56a8.094,8.094,0,0,1-5.988-.866l-.716-.416-1.1-.094a3.433,3.433,0,0,0-2.267.615l-5.148,4.661-4.992-5.381Z" fill="#72594b"/><path d="M384.323,100.205,380.9,112.739l33.1,2.107a3.908,3.908,0,0,0,2.943-1.07l14.478-14.948L426.914,92.6l-16.1,10.74Z" fill="#737373"/><path d="M289.964,228.351l13.47-31.549a8.843,8.843,0,0,0,.355-5.954l-.03-.105a8.844,8.844,0,0,1,.622-6.522l51.236-99.754.838.431a1.988,1.988,0,0,0,2.678-.861l.016-.029a1.991,1.991,0,0,0-.861-2.679l-6.342-3.258a1.992,1.992,0,0,0-2.68.861l-.014.029a1.989,1.989,0,0,0,.86,2.679l1.113.571-51.161,99.607a8.841,8.841,0,0,1-5.207,4.395,8.842,8.842,0,0,0-4.9,3.847l-17.715,29.189a5.633,5.633,0,0,0,2.242,7.931l7.728,3.969a5.631,5.631,0,0,0,7.752-2.8" fill="#edac28"/><polygon points="342.608 109.89 349.724 95.948 343.345 97.39 336.614 110.596 342.608 109.89" fill="#ed8422"/><path d="M342.425,90.176l4.686-4.091a4.252,4.252,0,0,1,1.656-.893l6.327-.832a1.591,1.591,0,0,1,1.387,2.645l-1.276,1.411a2.7,2.7,0,0,1,.3,3.457l-.364.517a1.965,1.965,0,0,1,.01,2.831l-.651.631a2.662,2.662,0,0,1-1.408,2.726l-1.072.559a8.094,8.094,0,0,1-5.988-.866l-.716-.416-5.767.8-1.922-5.621Z" fill="#d8b094"/><polygon points="336.166 93.64 339.916 90.756 345.012 98.736 341.935 100.66 336.166 93.64" fill="#fff"/><path d="M290.866,104.821l-2.878,12.233,32.562,2.408a3.907,3.907,0,0,0,2.943-1.07l20.654-17.444-6.862-8.39-19.926,15.4Z" fill="#b2b2b2"/><path d="M399.053,230.022a1.638,1.638,0,0,1-.17-.008,59.489,59.489,0,0,1-10.5-1.8,1.923,1.923,0,0,1,1.074-3.693,56.98,56.98,0,0,0,9.759,1.661,1.923,1.923,0,0,1-.165,3.838" fill="#e6e6e6"/><path d="M219.911,227.132a66.268,66.268,0,0,1-12.149-1.161,1.923,1.923,0,1,1,.715-3.779c6.785,1.283,19.791,2.574,30.658-3.193a1.923,1.923,0,1,1,1.8,3.4c-6.877,3.649-14.453,4.735-21.027,4.735" fill="#e6e6e6"/><path d="M338.325,222.621a1.923,1.923,0,0,1-1.433-3.206,30.618,30.618,0,0,0,3.122-4.166,1.923,1.923,0,0,1,3.261,2.04,34.429,34.429,0,0,1-3.517,4.691,1.919,1.919,0,0,1-1.433.641" fill="#e6e6e6"/><path d="M309.553,233.83a62.453,62.453,0,0,1-16.011-2.061,1.923,1.923,0,0,1,1.075-3.693c.165.049,16.651,4.713,30.845-.835a1.923,1.923,0,0,1,1.4,3.582,47.755,47.755,0,0,1-17.309,3.007" fill="#e6e6e6"/><path d="M410.815,103.339l-1.939,4.692s-2.7-3.23,1.939-4.692" fill="#505050"/><path d="M430.153,97.068l-20.466,15.579-12.563,1.125,16.883,1.074a3.909,3.909,0,0,0,2.942-1.069l14.479-14.949Z" fill="#505050"/><path d="M341.961,98.276,321.88,114.613a6.343,6.343,0,0,1-3.847,1.42l-34.56.845,3.937.7,33.14,1.879a3.913,3.913,0,0,0,2.943-1.07l20.653-17.444Z" fill="#939393"/><path d="M341.77,101.365a1.058,1.058,0,1,1-1.058-1.058,1.058,1.058,0,0,1,1.058,1.058" fill="#b2b2b2"/><path d="M301.978,106.092,292.6,104.7l2.211-2.26a31.222,31.222,0,0,1,7.409,3.222Z" fill="#939393"/><path d="M283.668,226.777a1.433,1.433,0,0,1-1.811.708l-10.273-4.02a5.6,5.6,0,0,0,2.9,3.714l7.729,3.97a5.63,5.63,0,0,0,7.751-2.8l13.47-31.549a8.85,8.85,0,0,0,.356-5.954l-.031-.105a8.851,8.851,0,0,1,.622-6.523Z" fill="#ed8422"/></svg>