<svg xmlns="http://www.w3.org/2000/svg" viewBox="0 0 636 300"><title>MSC17-consumer-002</title><path d="M636,0V300H0V0Z" fill="#e6e6e6"/><path d="M223.623,104.373a10.854,10.854,0,0,0-7.8,3.294c.037-.5.063-1,.063-1.515A19.992,19.992,0,0,0,178.6,96.123c0-.037,0-.074,0-.112a30.135,30.135,0,1,0-59.653,6.088A16.189,16.189,0,1,0,104.8,126.146H223.623a10.887,10.887,0,0,0,0-21.773" fill="#f3f3f3"/><path d="M446.229,84.87a7.807,7.807,0,0,0-3.349.758c.012-.252.019-.5.019-.758a15.7,15.7,0,0,0-31.345-1.4,10.714,10.714,0,1,0-8.6,17.1h43.275a7.853,7.853,0,0,0,0-15.7" fill="#f3f3f3"/><polygon points="451.68 192.451 451.68 156.726 440.818 156.726 440.818 178.347 388.132 178.347 388.132 137.42 375.607 124.896 375.607 150.933 366.981 150.933 366.981 171.011 279.973 171.011 279.973 140.459 268.424 140.459 268.424 98.743 240.873 126.295 240.873 180.503 224.49 180.503 224.49 140.895 212.702 129.106 212.702 156.726 205.988 150.012 205.988 192.451 197.957 192.451 197.957 210.376 458.856 210.376 458.856 192.451 451.68 192.451" fill="#d2d2d2" fill-rule="evenodd"/><polygon points="459.594 213.31 459.594 140.806 471.804 140.806 471.804 173.918 478.769 180.884 478.769 195.947 486.459 203.637 486.459 213.851 459.594 213.31" fill="#d2d2d2" fill-rule="evenodd"/><polygon points="450.006 213.31 450.006 140.806 462.216 140.806 462.216 173.918 469.182 180.884 469.182 195.947 476.871 203.637 476.871 213.851 450.006 213.31" fill="#b2b2b2" fill-rule="evenodd"/><polygon points="158.775 211.563 158.775 98.544 176.942 80.377 185.198 82.87 200.771 211.563 158.775 211.563" fill="#b2b2b2" fill-rule="evenodd"/><rect x="158.775" y="123.587" width="18.167" height="4.272" fill="#d2d2d2"/><rect x="158.775" y="115.24" width="18.167" height="4.272" fill="#d2d2d2"/><rect x="158.775" y="140.283" width="18.167" height="4.272" fill="#d2d2d2"/><rect x="158.775" y="131.935" width="18.167" height="4.272" fill="#d2d2d2"/><polygon points="176.942 94.672 176.942 90.4 166.919 90.4 162.648 94.672 176.942 94.672" fill="#d2d2d2" fill-rule="evenodd"/><polygon points="176.942 86.529 176.942 82.257 175.062 82.257 170.791 86.529 176.942 86.529" fill="#d2d2d2" fill-rule="evenodd"/><rect x="158.775" y="106.892" width="18.167" height="4.272" fill="#d2d2d2"/><rect x="158.775" y="98.544" width="18.167" height="4.272" fill="#d2d2d2"/><rect x="158.775" y="173.674" width="18.167" height="4.272" fill="#d2d2d2"/><rect x="158.775" y="190.369" width="18.167" height="4.272" fill="#d2d2d2"/><rect x="158.775" y="198.718" width="18.167" height="4.272" fill="#d2d2d2"/><rect x="158.775" y="207.065" width="18.167" height="4.498" fill="#d2d2d2"/><rect x="158.775" y="182.022" width="18.167" height="4.272" fill="#d2d2d2"/><rect x="158.775" y="148.631" width="18.167" height="4.272" fill="#d2d2d2"/><rect x="158.775" y="156.978" width="18.167" height="4.272" fill="#d2d2d2"/><rect x="158.775" y="165.326" width="18.167" height="4.272" fill="#d2d2d2"/><polygon points="176.942 61.173 189.876 74.106 208.035 211.563 176.942 211.563 176.942 61.173" fill="#d2d2d2"/><polygon points="197.509 131.884 176.943 131.884 176.943 136.156 198.073 136.156 197.509 131.884" fill="#b2b2b2"/><polygon points="193.098 98.493 176.942 98.493 176.942 102.765 193.662 102.765 193.098 98.493" fill="#b2b2b2"/><polygon points="195.303 115.189 176.942 115.189 176.942 119.461 195.868 119.461 195.303 115.189" fill="#b2b2b2"/><polygon points="196.406 123.537 176.942 123.537 176.942 127.808 196.971 127.808 196.406 123.537" fill="#b2b2b2"/><polygon points="194.2 106.841 176.942 106.841 176.942 111.113 194.765 111.113 194.2 106.841" fill="#b2b2b2"/><polygon points="189.876 74.107 189.628 73.858 176.942 73.858 176.942 78.13 190.408 78.13 189.876 74.107" fill="#b2b2b2"/><polygon points="181.484 65.715 176.942 65.715 176.942 69.987 185.756 69.987 181.484 65.715" fill="#b2b2b2"/><polygon points="190.919 82.002 176.942 82.002 176.942 86.273 191.483 86.273 190.919 82.002" fill="#b2b2b2"/><polygon points="191.995 90.145 176.943 90.145 176.943 94.417 192.559 94.417 191.995 90.145" fill="#b2b2b2"/><polygon points="201.92 165.276 176.942 165.276 176.942 169.547 202.484 169.547 201.92 165.276" fill="#b2b2b2"/><polygon points="206.331 198.667 176.942 198.667 176.942 202.939 206.896 202.939 206.331 198.667" fill="#b2b2b2"/><polygon points="204.126 181.971 176.943 181.971 176.943 186.243 204.69 186.243 204.126 181.971" fill="#b2b2b2"/><polygon points="205.228 190.319 176.942 190.319 176.942 194.591 205.792 194.591 205.228 190.319" fill="#b2b2b2"/><polygon points="207.441 207.065 176.942 207.065 176.942 211.337 208.005 211.337 207.441 207.065" fill="#b2b2b2"/><polygon points="203.023 173.623 176.942 173.623 176.942 177.895 203.587 177.895 203.023 173.623" fill="#b2b2b2"/><polygon points="199.715 148.58 176.942 148.58 176.942 152.852 200.278 152.852 199.715 148.58" fill="#b2b2b2"/><polygon points="198.612 140.232 176.943 140.232 176.943 144.504 199.176 144.504 198.612 140.232" fill="#b2b2b2"/><polygon points="200.817 156.928 176.942 156.928 176.942 161.2 201.381 161.2 200.817 156.928" fill="#b2b2b2"/><polygon points="390.694 214.444 390.694 55.88 422.515 87.489 422.515 214.444 390.694 214.444" fill="#b2b2b2" fill-rule="evenodd"/><polygon points="422.515 87.489 390.904 120.523 422.306 152.151 390.904 183.459 422.515 214.444 422.515 87.489" fill="#d2d2d2" fill-rule="evenodd"/><path d="M112.71,118.232c0-.016.005-.029.005-.043a2.868,2.868,0,0,0-2.184-2.78l.67-3.107L99.525,99.2l-1.078.678,9.955,15.837a2.855,2.855,0,0,0-1.373,3.047l-2.957.617-7.231,15.989,1.057.71L108.3,120.6a2.881,2.881,0,0,0,.823.355V138.1h1.447V120.957a2.845,2.845,0,0,0,1.338-.775l2.208,2.274L131.487,120l.033-1.273Z" fill="#d2d2d2" fill-rule="evenodd"/><rect x="84.819" y="137.331" width="37.717" height="73.817" fill="#b2b2b2"/><rect x="122.536" y="137.331" width="12.655" height="73.817" fill="#d2d2d2"/><rect x="88.945" y="144.959" width="5.019" height="13.249" fill="#d2d2d2"/><rect x="96.667" y="144.959" width="5.019" height="13.249" fill="#d2d2d2"/><rect x="104.389" y="144.959" width="5.019" height="13.249" fill="#d2d2d2"/><rect x="112.112" y="144.959" width="5.019" height="13.249" fill="#d2d2d2"/><rect x="88.945" y="162.863" width="5.019" height="13.249" fill="#d2d2d2"/><rect x="96.667" y="162.863" width="5.019" height="13.249" fill="#d2d2d2"/><rect x="104.389" y="162.863" width="5.019" height="13.249" fill="#d2d2d2"/><rect x="112.112" y="162.863" width="5.019" height="13.249" fill="#d2d2d2"/><rect x="88.945" y="180.767" width="5.019" height="13.249" fill="#d2d2d2"/><rect x="96.667" y="180.767" width="5.019" height="13.249" fill="#d2d2d2"/><rect x="104.389" y="180.767" width="5.019" height="13.249" fill="#d2d2d2"/><rect x="112.112" y="180.767" width="5.019" height="13.249" fill="#d2d2d2"/><rect x="88.945" y="198.671" width="5.019" height="12.477" fill="#d2d2d2"/><rect x="96.667" y="198.671" width="5.019" height="12.477" fill="#d2d2d2"/><rect x="104.389" y="198.671" width="5.019" height="12.477" fill="#d2d2d2"/><rect x="112.112" y="198.671" width="5.019" height="12.477" fill="#d2d2d2"/><polygon points="71.008 192.194 63.672 213.31 78.344 213.31 71.008 192.194" fill="#fff" fill-rule="evenodd"/><polygon points="194.366 242.974 186.26 224.026 191.2 224.026 184.241 207.759 187.199 207.759 178.156 186.619 169.113 207.759 172.071 207.759 165.112 224.026 170.053 224.026 161.946 242.974 176.683 242.974 176.683 252.429 179.63 252.429 179.63 242.974 194.366 242.974" fill="#fff" fill-rule="evenodd"/><path d="M395.274,263.32h0a12.61,12.61,0,0,1,12.609-12.61h14.864a10.038,10.038,0,0,1,10.039-10.039h2.129a10.038,10.038,0,0,1,10.039,10.039v3.8h3.03a9.454,9.454,0,0,1,9.454,9.454Z" fill="#fff" fill-rule="evenodd"/><polygon points="564.619 221.796 568.094 221.796 568.094 174.014 572.824 164.801 558.828 164.801 564.619 174.113 564.619 221.796" fill="#939393" fill-rule="evenodd"/><polygon points="482.903 221.796 486.378 221.796 486.378 174.014 491.108 164.801 477.111 164.801 482.903 174.113 482.903 221.796" fill="#939393" fill-rule="evenodd"/><polygon points="401.186 221.796 404.662 221.796 404.662 174.014 409.392 164.801 395.395 164.801 401.186 174.113 401.186 221.796" fill="#939393" fill-rule="evenodd"/><polygon points="225.963 221.796 229.439 221.796 229.439 174.014 234.169 164.801 220.172 164.801 225.963 174.113 225.963 221.796" fill="#939393" fill-rule="evenodd"/><polygon points="144.247 221.796 147.722 221.796 147.722 174.014 152.452 164.801 138.455 164.801 144.247 174.113 144.247 221.796" fill="#939393" fill-rule="evenodd"/><polygon points="589.49 162.335 357.822 162.335 357.822 167.266 408.125 167.266 404.661 174.014 404.661 221.796 410.013 221.796 410.013 174.305 413.341 167.266 489.842 167.266 486.378 174.014 486.378 221.796 491.73 221.796 491.73 174.305 495.057 167.266 571.558 167.266 568.094 174.014 568.094 221.796 573.446 221.796 573.446 174.305 576.774 167.266 589.49 167.266 589.49 162.335" fill="#b2b2b2" fill-rule="evenodd"/><polygon points="57.628 167.266 151.185 167.266 147.722 174.013 147.722 221.796 153.074 221.796 153.074 174.304 156.402 167.266 232.902 167.266 229.439 174.013 229.439 221.796 234.791 221.796 234.791 174.304 238.119 167.266 250.835 167.266 250.835 162.335 57.628 162.335 57.628 167.266" fill="#b2b2b2" fill-rule="evenodd"/><path d="M525.665,153.643a35.45,35.45,0,0,0-20.812-6.753H153.8a11.364,11.364,0,0,0-11.364,11.363v4.082H526.394l3.089-5.922Z" fill="#b2b2b2" fill-rule="evenodd"/><path d="M281.259,161.043h3.256a.881.881,0,0,0,.882-.881v-8.276a.883.883,0,0,0-.882-.882h-3.256a.882.882,0,0,0-.881.882v8.276a.88.88,0,0,0,.881.881" fill="#fff" fill-rule="evenodd"/><path d="M269.676,156.024h7.117a.881.881,0,0,0,.881-.882v-3.256a.88.88,0,0,0-.881-.881h-7.117a.881.881,0,0,0-.882.881v3.256a.882.882,0,0,0,.882.882" fill="#fff" fill-rule="evenodd"/><path d="M258.092,156.024h7.117a.882.882,0,0,0,.882-.882v-3.256a.881.881,0,0,0-.882-.881h-7.117a.88.88,0,0,0-.881.881v3.256a.881.881,0,0,0,.881.882" fill="#fff" fill-rule="evenodd"/><path d="M246.509,156.024h7.117a.881.881,0,0,0,.881-.882v-3.256a.88.88,0,0,0-.881-.881h-7.117a.881.881,0,0,0-.882.881v3.256a.882.882,0,0,0,.882.882" fill="#fff" fill-rule="evenodd"/><path d="M234.926,156.024h7.117a.881.881,0,0,0,.881-.882v-3.256a.88.88,0,0,0-.881-.881h-7.117a.881.881,0,0,0-.882.881v3.256a.882.882,0,0,0,.882.882" fill="#fff" fill-rule="evenodd"/><path d="M227.226,161.043h3.255a.881.881,0,0,0,.882-.881v-8.276a.882.882,0,0,0-.882-.882h-3.255a.883.883,0,0,0-.882.882v8.276a.881.881,0,0,0,.882.881" fill="#fff" fill-rule="evenodd"/><path d="M215.642,156.024h7.117a.881.881,0,0,0,.881-.882v-3.256a.88.88,0,0,0-.881-.881h-7.117a.881.881,0,0,0-.882.881v3.256a.882.882,0,0,0,.882.882" fill="#fff" fill-rule="evenodd"/><path d="M204.059,156.024h7.117a.881.881,0,0,0,.881-.882v-3.256a.88.88,0,0,0-.881-.881h-7.117a.881.881,0,0,0-.882.881v3.256a.882.882,0,0,0,.882.882" fill="#fff" fill-rule="evenodd"/><path d="M192.475,156.024h7.117a.882.882,0,0,0,.882-.882v-3.256a.881.881,0,0,0-.882-.881h-7.117a.88.88,0,0,0-.881.881v3.256a.881.881,0,0,0,.881.882" fill="#fff" fill-rule="evenodd"/><path d="M180.892,156.024h7.117a.881.881,0,0,0,.881-.882v-3.256a.88.88,0,0,0-.881-.881h-7.117a.881.881,0,0,0-.882.881v3.256a.882.882,0,0,0,.882.882" fill="#fff" fill-rule="evenodd"/><path d="M173.169,161.043h3.257a.881.881,0,0,0,.881-.881v-8.276a.883.883,0,0,0-.881-.882h-3.257a.882.882,0,0,0-.881.882v8.276a.88.88,0,0,0,.881.881" fill="#fff" fill-rule="evenodd"/><path d="M161.586,156.024H168.7a.882.882,0,0,0,.882-.882v-3.256a.881.881,0,0,0-.882-.881h-7.117a.88.88,0,0,0-.881.881v3.256a.881.881,0,0,0,.881.882" fill="#fff" fill-rule="evenodd"/><path d="M496.644,161.043H499.9a.88.88,0,0,0,.881-.881v-8.276A.882.882,0,0,0,499.9,151h-3.256a.883.883,0,0,0-.882.882v8.276a.881.881,0,0,0,.882.881" fill="#fff" fill-rule="evenodd"/><path d="M485.061,156.024h7.116a.882.882,0,0,0,.882-.882v-3.256a.881.881,0,0,0-.882-.881h-7.116a.881.881,0,0,0-.882.881v3.256a.882.882,0,0,0,.882.882" fill="#fff" fill-rule="evenodd"/><path d="M473.477,156.024h7.117a.881.881,0,0,0,.881-.882v-3.256a.88.88,0,0,0-.881-.881h-7.117a.881.881,0,0,0-.882.881v3.256a.882.882,0,0,0,.882.882" fill="#fff" fill-rule="evenodd"/><path d="M461.893,156.024h7.117a.882.882,0,0,0,.882-.882v-3.256a.881.881,0,0,0-.882-.881h-7.117a.88.88,0,0,0-.881.881v3.256a.881.881,0,0,0,.881.882" fill="#fff" fill-rule="evenodd"/><path d="M450.31,156.024h7.117a.882.882,0,0,0,.882-.882v-3.256a.881.881,0,0,0-.882-.881H450.31a.88.88,0,0,0-.881.881v3.256a.881.881,0,0,0,.881.882" fill="#fff" fill-rule="evenodd"/><path d="M442.61,161.043h3.256a.881.881,0,0,0,.882-.881v-8.276a.883.883,0,0,0-.882-.882H442.61a.882.882,0,0,0-.881.882v8.276a.88.88,0,0,0,.881.881" fill="#fff" fill-rule="evenodd"/><path d="M431.027,156.024h7.116a.882.882,0,0,0,.882-.882v-3.256a.881.881,0,0,0-.882-.881h-7.116a.881.881,0,0,0-.882.881v3.256a.882.882,0,0,0,.882.882" fill="#fff" fill-rule="evenodd"/><path d="M419.443,156.024h7.117a.882.882,0,0,0,.882-.882v-3.256a.881.881,0,0,0-.882-.881h-7.117a.881.881,0,0,0-.881.881v3.256a.882.882,0,0,0,.881.882" fill="#fff" fill-rule="evenodd"/><path d="M407.86,156.024h7.117a.881.881,0,0,0,.881-.882v-3.256a.88.88,0,0,0-.881-.881H407.86a.881.881,0,0,0-.882.881v3.256a.882.882,0,0,0,.882.882" fill="#fff" fill-rule="evenodd"/><path d="M396.276,156.024h7.117a.882.882,0,0,0,.882-.882v-3.256a.881.881,0,0,0-.882-.881h-7.117a.88.88,0,0,0-.881.881v3.256a.881.881,0,0,0,.881.882" fill="#fff" fill-rule="evenodd"/><path d="M388.554,161.043h3.256a.881.881,0,0,0,.882-.881v-8.276a.883.883,0,0,0-.882-.882h-3.256a.883.883,0,0,0-.882.882v8.276a.881.881,0,0,0,.882.881" fill="#fff" fill-rule="evenodd"/><path d="M376.971,156.024h7.117a.881.881,0,0,0,.881-.882v-3.256a.88.88,0,0,0-.881-.881h-7.117a.881.881,0,0,0-.882.881v3.256a.882.882,0,0,0,.882.882" fill="#fff" fill-rule="evenodd"/><path d="M365.387,156.024H372.5a.882.882,0,0,0,.882-.882v-3.256a.881.881,0,0,0-.882-.881h-7.117a.88.88,0,0,0-.881.881v3.256a.881.881,0,0,0,.881.882" fill="#fff" fill-rule="evenodd"/><path d="M353.8,156.024h7.117a.881.881,0,0,0,.881-.882v-3.256a.88.88,0,0,0-.881-.881H353.8a.881.881,0,0,0-.882.881v3.256a.882.882,0,0,0,.882.882" fill="#fff" fill-rule="evenodd"/><path d="M529.482,156.413h-18.99a3.019,3.019,0,0,1-3.018-3.018V146.89s15.445-.26,22.008,9.523" fill="#fff" fill-rule="evenodd"/><path d="M499.175,214.929a21.631,21.631,0,1,1-21.631-21.63,21.63,21.63,0,0,1,21.631,21.63" fill="#fff" fill-rule="evenodd"/><rect x="476.635" y="234.156" width="2.703" height="17.624" fill="#fff"/><polygon points="489.624 219.803 487.714 217.892 479.258 226.348 479.258 210.022 487.199 202.081 485.288 200.17 476.555 208.902 476.555 218.913 465.379 207.736 463.468 209.648 476.555 222.735 476.555 236.695 479.258 236.695 479.258 230.17 489.624 219.803" fill="#e6e6e6"/><rect x="257.603" y="64.978" width="101.415" height="162.861" fill="#48c4ae"/><polygon points="304.082 165.137 300.514 167.159 282.185 167.654 281.352 157.974 300.198 156.024 304.082 165.137" fill="#e6e6e6" fill-rule="evenodd"/><path d="M304.082,165.138a171.067,171.067,0,0,0-4.718-16.888l-.026-.022a19.41,19.41,0,0,0-4.149-6.775l-9.882-10.47-29.228-.772.149,50.857,30.006-.651-1.818-14.955c3.742-1.905,12.764-5.514,19.666-.324m-22.021-1.386a.72.72,0,0,1-.816-1.186c.4-.276,9.95-6.731,18.816-3.108a.718.718,0,1,1-.543,1.33c-8.15-3.329-17.366,2.9-17.457,2.964" fill="#fff" fill-rule="evenodd"/><path d="M365.314,187.232a87.781,87.781,0,0,0-99.23,21.015h99.23Z" fill="#00b294" fill-rule="evenodd"/><polygon points="320.905 195.448 322.342 195.448 322.342 202.115 327.124 202.115 321.598 186.165 316.072 202.115 320.905 202.115 320.905 195.448" fill="#48c4ae" fill-rule="evenodd"/><path d="M315.272,87.687a3.582,3.582,0,0,0-1.493.327,6.5,6.5,0,0,0-11.02-4.285,10.058,10.058,0,0,0-20.054.911A5.328,5.328,0,1,0,280.677,94.9h34.595a3.6,3.6,0,0,0,0-7.209" fill="#00b294"/><path d="M336.95,206.54A76.293,76.293,0,0,0,312.3,190.4L308.176,178.5l-3.241,9.353a76.245,76.245,0,0,0-21.232-3c-12.776,0-19.917,3.151-30.492,8.708l-.257,38.873H364.316V206.54Z" fill="#12856f" fill-rule="evenodd"/><path d="M362.7,137.426c-3.782.059-21.6.671-29.082,6.483,0,0-8.051,8.667-7.933,24.484,0,.32.014.638.03.955l-.031,0s.532,9.587,1.468,16.538a24.574,24.574,0,0,0,3.837-2.208c8.352,11.921,27.7,21.6,31.711,23.383Z" fill="#ed8422" fill-rule="evenodd"/><path d="M254.493,186.9V230.6h18.193l.95-12.056c.614-6.007,1.587-14.406,1.7-15.391a19.718,19.718,0,0,1,1.526-4.5l3.406-7.049Z" fill-rule="evenodd"/><path d="M282.546,188.129l-26.318-.356v17.664c3.735,1.808,12.356,4.181,24.041,3.622a67.919,67.919,0,0,1,2.277-20.93" fill="#e6e6e6" fill-rule="evenodd"/><path d="M360.238,43.312H256.383a8.07,8.07,0,0,0-8.069,8.07V251.358a8.069,8.069,0,0,0,8.069,8.069H360.238a8.068,8.068,0,0,0,8.069-8.069V51.382a8.069,8.069,0,0,0-8.069-8.07m-1.22,184.526H257.6V64.977H359.018Z" fill="#505050" fill-rule="evenodd"/><rect x="301.788" y="236.63" width="13.045" height="13.046" fill="#737373"/><path d="M325.742,56.375H290.88a2.553,2.553,0,1,1,0-5.1h34.862a2.553,2.553,0,0,1,0,5.1" fill="#737373"/><polygon points="260.671 143.778 256.228 149.355 263.405 152.07 262.796 138.499 261.512 137.632 260.671 143.778" fill="#d2d2d2" fill-rule="evenodd"/><path d="M286.235,180.417l-1.819-14.954c-1.1.559-1.746.972-1.746.972l-1.363-11.042-1.444,6.919a43.891,43.891,0,0,1-8.7,18.447Z" fill="#e6e6e6" fill-rule="evenodd"/><polygon points="265.678 147.427 275.117 154.953 267.28 152.651 263.655 157.606 265.678 147.427" fill="#d2d2d2" fill-rule="evenodd"/><path d="M284.987,130.442l-13.673,10.666L268.6,144.3l11.155,2.044-2.6,5.022,3.93-4.778,1.788.328a10.961,10.961,0,0,0,11.83-5.98Z" fill="#e6e6e6" fill-rule="evenodd"/><path d="M266.549,158.885a1.238,1.238,0,1,1-1.238-1.238,1.238,1.238,0,0,1,1.238,1.238" fill="#d2d2d2" fill-rule="evenodd"/><path d="M327.062,157.159a28.11,28.11,0,0,0,25.652-.752c8.9-4.67,6.147-13.949,3.83-18.894-5.578.292-16.623,1.5-22.928,6.395,0,0-4.281,4.617-6.554,13.251" fill="#72594b" fill-rule="evenodd"/><path d="M356.544,137.513c-1.154.061-2.544.163-4.077.327a14.238,14.238,0,0,1-11.4,10.808c-.091.016-.182.019-.274.034A34.809,34.809,0,0,1,353.6,155.9c7.821-4.807,5.178-13.615,2.942-18.387" fill="#665042" fill-rule="evenodd"/><path d="M356.544,137.513c-1.154.061-2.544.163-4.077.327a14.238,14.238,0,0,1-11.4,10.808c-.091.016-.182.019-.274.034A34.809,34.809,0,0,1,353.6,155.9c7.821-4.807,5.178-13.615,2.942-18.387" fill="#665042" fill-rule="evenodd"/><path d="M346.765,167.338c5.331-8.99,4.959-29.71,4.955-29.922l-.479.01c0,.214.385,21.191-5.03,29.915h-.018c-6.744-7.8-14.117-21.771-14.192-21.911l-.425.222c.074.141,7.329,13.882,14.054,21.767a4.276,4.276,0,1,0,1.135-.082m-.249,6.575a2.325,2.325,0,1,1,2.325-2.325,2.326,2.326,0,0,1-2.325,2.325" fill="#e6e6e6"/><path d="M268.342,141.538l-2.526-.6a12.789,12.789,0,0,1-9.5-15.387l3.094-13.093a15.384,15.384,0,0,1,29.943,7.079l-2.5,10.565a15.384,15.384,0,0,1-18.511,11.432" fill="#d8b07f" fill-rule="evenodd"/><path d="M290.744,119.886a3.871,3.871,0,0,0-1.456-.084l.062-.261a15.313,15.313,0,0,0-.147-7.647l-20-.607-1.654,6.77a5.273,5.273,0,0,1-1.643,2.713l-4.3,3.778a1.724,1.724,0,0,0,.741,2.972l4.059.959L266,131.12l-1.823,1.477a4.4,4.4,0,0,0-1,5.683l1.372,2.291a14.7,14.7,0,0,1-1.69-.747l.55,12.246.25,5.537,2.023-10.18,5.169-5.527a15.368,15.368,0,0,0,15.934-11.55l.168.044a4.963,4.963,0,0,0,6.042-3.577l.56-2.189a3.9,3.9,0,0,0-2.807-4.742" fill="#ce9c5f" fill-rule="evenodd"/><path d="M262.932,119.562a1.556,1.556,0,1,1-1.157-1.871,1.556,1.556,0,0,1,1.157,1.871" fill-rule="evenodd"/><path d="M277.93,122.947a1.556,1.556,0,1,1-1.156-1.872,1.556,1.556,0,0,1,1.156,1.872" fill-rule="evenodd"/><path d="M261.836,109.358h0a5.712,5.712,0,0,1-1.213-6.755l.913-1.815a3.32,3.32,0,0,0,4.616.908,14.075,14.075,0,0,1,11.1-2.026l3.885.919a13.161,13.161,0,0,1,9.781,15.836l-2.287,10.689-3.045.551,2.04-8.631-.463-.272a6.151,6.151,0,0,1-3.026-5.353l.015-1.5-9.227,1.451a15.647,15.647,0,0,1-13.091-4" fill="#665042" fill-rule="evenodd"/><path d="M280.908,121.152a.555.555,0,0,1-.425-.2,5.894,5.894,0,0,0-5.67-1.95l-.922.243a.557.557,0,1,1-.284-1.078l.921-.243a7.062,7.062,0,0,1,6.805,2.306.558.558,0,0,1-.425.919" fill="#665042"/><path d="M264.553,117.537a.554.554,0,0,1-.34-.117,5.281,5.281,0,0,0-4.936-.832.558.558,0,0,1-.357-1.058,6.4,6.4,0,0,1,5.975,1.008.558.558,0,0,1-.342,1" fill="#665042"/><path d="M269.416,133.253a2.755,2.755,0,0,1-2.708,1.133l-3.825-.981a1.9,1.9,0,0,1-1.074-2.447l.164-.7,8.225,1.879Z" fill="#fff" fill-rule="evenodd"/><path d="M301.044,163.443c-6.314-2.5-13.416.383-16.628,2.019l1.819,14.955-23.6.536c-9.163-6.009-13.438-4.73-13.438-4.73l-4.713,1.226a1.724,1.724,0,0,0-1.133,2.435h0l.031.05a1.728,1.728,0,0,0,.169.265l1.829,2.893a1.7,1.7,0,0,0-.043,2.545l0,0,2.038,2.029a2.9,2.9,0,0,0,.208,2.36.8.8,0,0,0,1,.353l2.557-1.027,0,.01-3.168,2.144a1.437,1.437,0,0,0,1.042,2.61l2.719-.718,10.96-3.3,31.723,3.819a7.309,7.309,0,0,0,7.76-7.652Zm-53.391,18.028-.311-.937,2.11-.326Zm.911,4.641-.057-.72,1.906-.829Z" fill="#d8b07f" fill-rule="evenodd"/><path d="M284.363,165.488c.021,0,10.644-1.176,17.036,5.2-.086-1.767-.232-4.729-.355-7.241-6.348-2.512-13.494.415-16.681,2.045" fill="#ce9c5f" fill-rule="evenodd"/><path d="M264.454,190.319a5.606,5.606,0,0,0,2.236-5.581c-.542-3.865-2.535-3.82-2.535-3.82l3.375-.076s1.657.434,1.877,3.9c.267,4.209-1.993,5.937-1.993,5.937Z" fill-rule="evenodd"/><path d="M269.512,187.859h-3.229a1.517,1.517,0,0,1-1.47-1.326l-.351-3.229a1.166,1.166,0,0,1,1.181-1.326h3.229a1.516,1.516,0,0,1,1.471,1.326l.351,3.229a1.168,1.168,0,0,1-1.182,1.326" fill="#505050" fill-rule="evenodd"/><polygon points="359.976 159.763 366.482 159.763 372.075 162.4 372.075 168.295 362.407 164.56 359.976 159.763" fill="#665042" fill-rule="evenodd"/><path d="M371.664,164.658,365.41,161.7l-5.434-1.931s-4.774,5.493-6.069,16.88l-11.474,10.484-1.358-15.06-.141.021A32.61,32.61,0,0,1,329.569,184.6l4.263,14.067a6.929,6.929,0,0,0,12.247,2.049l13.538-18.738a18.057,18.057,0,0,0,6.25-9.239l.375.356.6,1.951a3.594,3.594,0,0,0,3.433,2.531h.278l-1.678-8.31-1.718-1.431.072-.279,1.886.831,1.268,3.144a2.5,2.5,0,0,0,2.769,1.521l.6-.11Z" fill="#72594b" fill-rule="evenodd"/><path d="M341.173,171.623a35.384,35.384,0,0,1-6.022,8.493,9.466,9.466,0,0,1,6.951,3.337Z" fill="#665042" fill-rule="evenodd"/><path d="M320.381,117.106l4.536-10.866a5.11,5.11,0,0,1,3.831-3.065l10.865-1.916a3.6,3.6,0,0,1,3.928,2.117l4.216,9.751Z" fill="#505050" fill-rule="evenodd"/><path d="M369.1,117.735c-.953-5.4-10.378-8.515-22.936-8.291l-2.623-6.069a3.644,3.644,0,0,0-.342-.608l-.079.124a7.286,7.286,0,0,0-.586,6.707,85.907,85.907,0,0,0-9.24,1.122c-18.517,3.264-32.509,11.7-31.25,18.835.789,4.474,7.379,7.376,16.746,8.118a3.2,3.2,0,0,0,2.357,1.239,4.788,4.788,0,0,0,.06.592,4.47,4.47,0,0,0,.944,2.036,3.7,3.7,0,0,0,.792.911,2.072,2.072,0,0,0,2.391,3.326,3.789,3.789,0,1,0,4.595-5.453,4.5,4.5,0,0,0,.23-2.4c-.021-.118-.05-.232-.078-.345,2.515-.212,5.115-.543,7.77-1.011,18.516-3.264,32.507-11.7,31.249-18.836" fill-rule="evenodd"/><path d="M348.4,117.825l1.318,15.77a48.257,48.257,0,0,0,14.6-7.36Z" fill-rule="evenodd"/><path d="M346.3,138.16a4.257,4.257,0,1,1,4.931,3.454,4.255,4.255,0,0,1-4.931-3.454" fill-rule="evenodd"/><path d="M353.928,134.917a2.527,2.527,0,1,0-3.708-1.771.147.147,0,0,1,.008.028,4.339,4.339,0,0,0-.476.055,4.254,4.254,0,0,0-2.65,6.765,3.292,3.292,0,1,0,5.951,1.3,3.035,3.035,0,0,0-.112-.4,4.248,4.248,0,0,0,1.742-4.215,4.2,4.2,0,0,0-.755-1.766" fill-rule="evenodd"/><path d="M352.617,132.155l-1.415-8.03a14.171,14.171,0,0,0-2.809-6.3,34.234,34.234,0,0,0-19.775,2.525,2.248,2.248,0,0,1-2.573,3.347,2.365,2.365,0,0,1,.068.244,2.253,2.253,0,0,1-1.168,2.38,2.8,2.8,0,0,1-.088,4.246,1.923,1.923,0,0,1-.462,3.647,1.983,1.983,0,0,1-.325.024l.5,2.859a14.238,14.238,0,0,0,28.043-4.943" fill="#665042" fill-rule="evenodd"/><path d="M343.116,141.581h0l-.87-4.939,1.713-.9a2.576,2.576,0,0,0,.5-4.21l-2.951-2.605a8.166,8.166,0,0,1-2.64-4.706l-1.15-6.522a35.113,35.113,0,0,0-9.106,2.652,2.247,2.247,0,0,1-2.573,3.346,2.217,2.217,0,0,1,.069.245,2.253,2.253,0,0,1-1.168,2.38,2.8,2.8,0,0,1-.088,4.245,1.928,1.928,0,1,1-2.344.615,2.832,2.832,0,0,1-2.057-1.637,3.284,3.284,0,0,0-1.818,3.526l.332,1.88a4.2,4.2,0,0,0,4.86,3.4l.992-.175a14.2,14.2,0,0,0,20.588,8.937,5.7,5.7,0,0,0-2.294-5.536" fill="#72594b" fill-rule="evenodd"/><path d="M334.133,141.287l1.344-3.452-.342.15a2.273,2.273,0,0,0-1,3.3" fill="#665042" fill-rule="evenodd"/><path d="M335.047,140.018l5.2,1.794,3.989-.7,1.729-3.016s-3.865.327-4.019.4-6.9,1.528-6.9,1.528" fill="#fff" fill-rule="evenodd"/><path d="M333.794,130.744a1.308,1.308,0,1,1-1.516-1.062,1.309,1.309,0,0,1,1.516,1.062" fill-rule="evenodd"/><path d="M347.352,128.2a1.309,1.309,0,1,1-1.516-1.062,1.31,1.31,0,0,1,1.516,1.062" fill-rule="evenodd"/><path d="M335.047,140.018l4.045,2.272a3.3,3.3,0,0,0,2.288.353l2.407-.5a1.87,1.87,0,0,0,1.416-1.323l.764-2.727-1.431,2.037a1.758,1.758,0,0,1-1.064.707l-.712.16a8.141,8.141,0,0,1-3.671-.02Z" fill="#b4009e" fill-rule="evenodd"/><path d="M335.047,140.018l4.215-2.272a1.873,1.873,0,0,1,1.588-.09l1.3.525.411-.595a1.587,1.587,0,0,1,2.272-.358l1.129.865-3.7.779Z" fill="#840a61" fill-rule="evenodd"/><path d="M328.3,129.935a.66.66,0,0,1-.6-.93,5.547,5.547,0,0,1,7.338-2.771.659.659,0,1,1-.542,1.2,4.228,4.228,0,0,0-5.6,2.112.659.659,0,0,1-.6.388"/><path d="M349.173,126.273a.66.66,0,0,1-.49-.218,4.231,4.231,0,0,0-5.973-.311.658.658,0,0,1-.882-.978,5.545,5.545,0,0,1,7.834.407.66.66,0,0,1-.489,1.1"/></svg>