<svg xmlns="http://www.w3.org/2000/svg" viewBox="0 0 300 300"><title>MSC17-cloud-006</title><path d="M300,0V300H0V0Z" fill="#d2d2d2"/><path d="M212.381,88.234a15.493,15.493,0,0,0-5.366.952,39.1,39.1,0,1,0-76.9-13.3,23.934,23.934,0,0,0-37.86,18.623,13.216,13.216,0,1,0-6.387,24.787h18.35v86.915h2.1V119.293h26.611V227.558h2.1V119.293H155.37V184.13h2.1V119.293h16.545V222.048a1.05,1.05,0,1,0,2.1,0V119.293H195.5v54.286h2.1V119.293h14.787a15.53,15.53,0,1,0,0-31.059" fill="#fff"/><path d="M165.457,180.817a1.225,1.225,0,0,0-1.546-1.182l-15.846,4.322a1.223,1.223,0,0,0-.9,1.181v15.187a3.889,3.889,0,1,0,2.448,3.613c0-.025,0-.049,0-.073h0V190.4l13.4-3.653V196a3.889,3.889,0,1,0,2.449,3.612c0-.023,0-.047,0-.071h0Z" fill="#45a094"/><polygon points="169.755 161.745 143.083 161.745 143.083 144.339 156.419 151.736 169.755 144.339 169.755 161.745" fill="#b2b2b2"/><path d="M143.083,161.745l10.629-9.487a4.065,4.065,0,0,1,5.413,0l10.63,9.487Z" fill="#b2b2b2"/><path d="M167.836,147.7l-8.646,5.1a5.455,5.455,0,0,1-5.541,0L145,147.7a3.9,3.9,0,0,1-1.919-3.36h26.672a3.9,3.9,0,0,1-1.919,3.36" fill="#c2c2c2"/><path d="M209.838,168.809a3.369,3.369,0,0,0-1.458-1.673l-4.649-2.2-2.679,1.311h-9.014l-2.713-1.113-4.616,2a3.382,3.382,0,0,0-1.457,1.673c-1.115,2.772-3.907,10.127-3.907,14.229,0,3.606,1.9,4.889,3.022,5.332a1.1,1.1,0,0,0,1.258-.336l4.344-5.43a5.1,5.1,0,0,1,3.979-1.913h9.194a5.1,5.1,0,0,1,3.979,1.913l4.344,5.43a1.1,1.1,0,0,0,1.258.336c1.125-.443,3.022-1.726,3.022-5.332,0-4.1-2.793-11.457-3.907-14.229" fill="#505050"/><path d="M194.133,175.335h-1.205a.2.2,0,0,1-.2-.2v-1.205a.2.2,0,0,0-.2-.2H191.34a.2.2,0,0,0-.2.2v1.205a.2.2,0,0,1-.2.2h-1.2a.2.2,0,0,0-.2.2v1.18a.2.2,0,0,0,.2.2h1.2a.2.2,0,0,1,.2.2v1.2a.2.2,0,0,0,.2.2h1.179a.205.205,0,0,0,.2-.2v-1.2a.2.2,0,0,1,.2-.2h1.205a.2.2,0,0,0,.2-.2v-1.18a.2.2,0,0,0-.2-.2" fill="#737373"/><path d="M203.5,176.129a2.407,2.407,0,1,1-2.407-2.407,2.407,2.407,0,0,1,2.407,2.407" fill="#737373"/><path d="M190.1,171.171a2.407,2.407,0,1,1-2.407-2.406,2.406,2.406,0,0,1,2.407,2.406" fill="#737373"/><path d="M206.392,172.875a.847.847,0,1,1-.848-.847.847.847,0,0,1,.848.847" fill="#737373"/><path d="M206.392,168.965a.847.847,0,1,1-.848-.847.847.847,0,0,1,.848.847" fill="#737373"/><path d="M207.5,170.073a.847.847,0,1,1-.848.847.847.847,0,0,1,.848-.847" fill="#737373"/><path d="M203.59,170.073a.847.847,0,1,1-.848.847.848.848,0,0,1,.848-.847" fill="#737373"/><path d="M208.38,167.136l-.272-.619a1.423,1.423,0,0,0-.853-.78l-3.278-1.1a2.581,2.581,0,0,0-2.114.212l-.81.47h-9.015l-.812-.47a2.578,2.578,0,0,0-2.113-.212l-3.278,1.1a1.426,1.426,0,0,0-.853.78l-.272.619,3.962-1.162a2.408,2.408,0,0,1,2.439.668l1.805,1.936a2.689,2.689,0,0,0,1.97.857H198.2a2.7,2.7,0,0,0,1.971-.857l1.8-1.936a2.409,2.409,0,0,1,2.439-.668Z"/><path d="M197.668,167.4a1.123,1.123,0,1,1-1.123-1.123,1.123,1.123,0,0,1,1.123,1.123" fill="#fff"/><path d="M201.811,179.685H191.63a6,6,0,0,0-4.97,2.637l-4.131,6.1a1.1,1.1,0,0,0,1.1-.385l4.345-5.43a5.094,5.094,0,0,1,3.979-1.913h9.193a5.1,5.1,0,0,1,3.979,1.913l4.344,5.43a1.1,1.1,0,0,0,1.258.336c.04-.016.08-.035.121-.052l-4.062-6a6,6,0,0,0-4.971-2.637"/><path d="M92.252,154.4H88.687a.753.753,0,0,1-.752-.753V147.01a.753.753,0,0,1,.752-.753h3.565a.753.753,0,0,1,.753.753v6.638a.753.753,0,0,1-.753.753" fill="#df6c47"/><polygon points="121.037 153.84 118.226 152.414 93.005 152.414 93.005 172.795 117.87 172.795 121.037 171.132 121.037 153.84" fill="#505050"/><path d="M121.037,153.875v-.284a2.438,2.438,0,0,0-2.438-2.437H93.006v2.721Z" fill="#e6e6e6"/><path d="M93.006,171.132v2.917H118.6a2.438,2.438,0,0,0,2.437-2.439v-.478Z" fill="#e6e6e6"/><polygon points="96.237 171.132 90.64 173.27 84.703 171.132 84.703 151.153 90.47 148.778 96.237 151.153 96.237 171.132"/><path d="M96.237,151.153v-1.21a2.182,2.182,0,0,0-2.182-2.182h-7.17a2.182,2.182,0,0,0-2.182,2.182v1.21Z" fill="#e6e6e6"/><path d="M84.7,171.132v.734a2.182,2.182,0,0,0,2.182,2.183h7.17a2.182,2.182,0,0,0,2.182-2.183v-.734Z" fill="#e6e6e6"/><path d="M117.737,162.341a9.365,9.365,0,1,1-9.364-9.364,9.364,9.364,0,0,1,9.364,9.364" fill="#e6e6e6"/><path d="M116.233,162.341a7.86,7.86,0,1,1-7.86-7.86,7.86,7.86,0,0,1,7.86,7.86" fill="#505050"/><path d="M108.373,170.2v-7.86h7.86a7.86,7.86,0,0,1-7.86,7.86" fill="#737373"/><path d="M113.081,162.341a4.708,4.708,0,1,1-4.708-4.709,4.708,4.708,0,0,1,4.708,4.709"/><path d="M108.813,161.007a1.774,1.774,0,1,1-1.775-1.775,1.775,1.775,0,0,1,1.775,1.775" fill="#505050"/><path d="M100.988,153.875a1.5,1.5,0,1,1-1.5-1.5,1.5,1.5,0,0,1,1.5,1.5" fill="#df6c47"/><rect x="84.703" y="151.154" width="4.422" height="19.979" fill="#505050"/><path d="M115.494,151.17H101.252l2.007-3.41a1.271,1.271,0,0,1,1.1-.627h8.036a1.271,1.271,0,0,1,1.1.627Z" fill="#505050"/><path d="M188.907,226.993a13.844,13.844,0,1,1-13.9-13.794,13.843,13.843,0,0,1,13.9,13.794" fill="#d83b01"/><path d="M170.831,233.334l-.047-12.549a.832.832,0,0,1,1.284-.7l9.634,6.239a.832.832,0,0,1,.006,1.393l-9.589,6.31a.831.831,0,0,1-1.288-.692" fill="#fff"/><path d="M145.045,240.6l1.329-3.207-3.2-1.966a9.3,9.3,0,0,0-.025-2.567l3.222-1.981-1.329-3.208-3.714.886a9.222,9.222,0,0,0-1.781-1.765l.889-3.727-3.208-1.328L135.224,225a9.275,9.275,0,0,0-2.507-.011l-2-3.252-3.207,1.328.877,3.679a9.253,9.253,0,0,0-1.833,1.8l-3.651-.87-1.329,3.208,3.151,1.938a9.263,9.263,0,0,0-.025,2.654l-3.126,1.922L122.9,240.6l3.534-.842a9.261,9.261,0,0,0,1.912,1.927l-.839,3.522,3.207,1.329,1.9-3.085a9.236,9.236,0,0,0,2.713-.01l1.9,3.095,3.208-1.329-.852-3.57a9.231,9.231,0,0,0,1.86-1.894Zm-13.015-1.771a4.98,4.98,0,1,1,6.507-2.695,4.98,4.98,0,0,1-6.507,2.695" fill="#b2b2b2"/><path d="M115.633,207.21a10.369,10.369,0,1,1-10.355-10.383,10.369,10.369,0,0,1,10.355,10.383" fill="#edac28"/><path d="M109.645,197.808,95.876,211.577a10.4,10.4,0,0,0,3.267,3.976l14.478-14.478a10.39,10.39,0,0,0-3.976-3.267" fill="#fec94e"/><path d="M105.278,196.827c-.353,0-.7.017-1.045.051l-9.286,9.284c-.033.336-.051.676-.052,1.02a10.283,10.283,0,0,0,.288,2.4l12.469-12.47a10.375,10.375,0,0,0-2.374-.287" fill="#fec94e"/><path d="M105.264,198.572l.011.769a7.861,7.861,0,1,1-.011,0v-.769m0,0a8.624,8.624,0,0,0-.012,17.248h.012a8.624,8.624,0,0,0,.012-17.248Z" fill="#ed8422"/><path d="M108.575,206.007a3.582,3.582,0,0,0-.65-1.991l0,0,.492-.658-1.842-1a2.11,2.11,0,0,0-1.005-.255h-.942a3.2,3.2,0,0,0-3.2,3.2,3.06,3.06,0,0,0,.879,2.148,3.45,3.45,0,0,0,.936,1.066l-.106-.019-.5.431a7.968,7.968,0,0,0-2.111,2.856,6.709,6.709,0,0,0,7.843,1.276,6.864,6.864,0,0,0-.775-.9l-.476-.461.387-1.268-1.591-.422a.921.921,0,0,1,.038-.179.893.893,0,0,1,.836-.582h.89a.9.9,0,0,0,.9-.9v-.728h.358a.435.435,0,0,0,.343-.7Z" fill="#ed8422"/></svg>