<svg xmlns="http://www.w3.org/2000/svg" viewBox="0 0 636 300"><title>MSC17-business-001</title><path d="M636,0V300H0V0Z" fill="#e6e6e6"/><path d="M500.186,67.909h-232.4a7.508,7.508,0,0,0-7.507,7.507V219.762H507.693V75.416a7.508,7.508,0,0,0-7.507-7.507" fill="#1070c4"/><path d="M416.887,67.909l90.806,90.806v-83.3a7.508,7.508,0,0,0-7.507-7.507Z" fill="#1070c4"/><rect x="276.657" y="79.807" width="214.655" height="131.135" fill="#edac28"/><path d="M534.227,233.538H233.742a9.262,9.262,0,0,1-9.262-9.262v-4.514H543.489v4.514a9.262,9.262,0,0,1-9.262,9.262" fill="#09538f"/><path d="M424.483,96.686h45.983a2.949,2.949,0,0,0,0-5.9H424.483a2.949,2.949,0,1,0,0,5.9" fill="#c58d1f"/><path d="M424.483,111.427h45.983a2.948,2.948,0,1,0,0-5.9H424.483a2.948,2.948,0,1,0,0,5.9" fill="#c58d1f"/><path d="M424.483,126.168h45.983a2.949,2.949,0,0,0,0-5.9H424.483a2.949,2.949,0,1,0,0,5.9" fill="#c58d1f"/><path d="M424.483,140.909h45.983a2.949,2.949,0,0,0,0-5.9H424.483a2.949,2.949,0,1,0,0,5.9" fill="#c58d1f"/><path d="M424.483,155.651h45.983a2.949,2.949,0,0,0,0-5.9H424.483a2.949,2.949,0,1,0,0,5.9" fill="#c58d1f"/><path d="M424.483,170.392h45.983a2.949,2.949,0,0,0,0-5.9H424.483a2.949,2.949,0,1,0,0,5.9" fill="#c58d1f"/><path d="M424.483,185.133h45.983a2.949,2.949,0,0,0,0-5.9H424.483a2.949,2.949,0,1,0,0,5.9" fill="#c58d1f"/><path d="M424.483,199.874h45.983a2.948,2.948,0,1,0,0-5.9H424.483a2.948,2.948,0,1,0,0,5.9" fill="#c58d1f"/><path d="M348.106,145.372l-52.369-17.191c7.466-23,27.911-37.807,52.369-37.807Z" fill="#fff"/><path d="M348.106,145.372l-32.427,44.434a52.325,52.325,0,0,1-19.942-27.512Z" fill="#b2b2b2"/><path d="M348.106,145.372l52.108,16.922a55.318,55.318,0,0,1-69.37,35.436,48.969,48.969,0,0,1-15.165-7.924Z" fill="#09538f"/><path d="M348.106,145.372v-55a54.819,54.819,0,0,1,54.761,55,52.585,52.585,0,0,1-2.653,16.922Z" fill="#1070c4"/><polygon points="491.312 142.334 491.312 79.807 428.785 79.807 491.312 142.334" fill="#fec94e"/><path d="M445.665,96.686h24.8a2.949,2.949,0,0,0,0-5.9h-30.7Z" fill="#edac28"/><path d="M460.405,111.427h10.061a2.948,2.948,0,1,0,0-5.9H454.509Z" fill="#edac28"/><path d="M229.057,244.558H79.313a2.821,2.821,0,1,1,0-5.641H229.057a2.821,2.821,0,0,1,0,5.641" fill="#d2d2d2"/><path d="M141.121,220.179l-9.371-9.371L133.555,209a.677.677,0,0,0-.957-.957l-5.489,5.489a.677.677,0,1,0,.958.957l1.8-1.8,9.371,9.371Z" fill="#021760" fill-rule="evenodd"/><path d="M118.065,219.259h9.765a.813.813,0,0,0,.812-.812v-1.28a.812.812,0,0,0-.812-.811h-9.765Z" fill="#021760" fill-rule="evenodd"/><path d="M114.149,216.743l3.161-.914-2.918-10.08a1.141,1.141,0,0,0-1.414-.78l-.966.28a1.141,1.141,0,0,0-.78,1.414Z" fill="#021760" fill-rule="evenodd"/><rect x="103.928" y="181.402" width="2.472" height="33.475" fill="#09538f"/><path d="M128.67,181.4H103.929l1.979,2.454h21.277s11.6,7.828,12.335,36.863H124.931c-3.308-8.59-12.51-9.885-18.492-9.885l-2.96,15.816,9.436,3.234v.046h.134l9.175,3.145a7.019,7.019,0,0,0,3.553-3.145h16.569V222.8a11.218,11.218,0,0,0,.18-2.128s.494-27-13.856-39.268" fill="#09538f" fill-rule="evenodd"/><polygon points="143.02 222.067 153.805 222.067 153.805 229.93 147.29 236.445 143.47 236.895 125.272 236.895 143.02 222.067" fill="#c48c00" fill-rule="evenodd"/><polygon points="84.383 226.111 84.383 236.895 113.365 236.895 100.558 223.639 84.383 226.111" fill="#09538f" fill-rule="evenodd"/><path d="M125.715,238.917H100.128s-1.476-12.81-15.745-12.81V219.7s0-8.868,10.333-8.868h9.348v2.955s18.7-1.478,18.7,14.289h11.316l8.366-7.39h11.809v2.956H142.445Z" fill="#edac28" fill-rule="evenodd"/><path d="M94.717,237.12a7.189,7.189,0,1,0-7.189,7.189,7.19,7.19,0,0,0,7.189-7.189" fill="#1070c4"/><path d="M90.791,237.12a3.263,3.263,0,1,0-3.263,3.262,3.263,3.263,0,0,0,3.263-3.262" fill="#09538f"/><polygon points="247.092 193.359 161.218 193.359 161.218 171.545 158.374 171.545 158.374 124.832 153.431 124.832 153.431 236.895 158.374 236.895 158.374 195.584 247.092 195.584 247.092 193.359" fill="#09538f"/><path d="M272.8,193.375l-92.975-.016c.076-20.637,5.706-38.047,17.73-54.835Z" fill="#df6c47"/><path d="M386.545,73.866a2.561,2.561,0,1,1-2.56-2.561,2.56,2.56,0,0,1,2.56,2.561" fill="#09538f"/><path d="M470.466,120.272H469.25l3.971,3.971a2.926,2.926,0,0,0-2.755-3.971" fill="#edac28"/><path d="M157.043,234.744a9.564,9.564,0,1,0-9.565,9.565,9.564,9.564,0,0,0,9.565-9.565" fill="#1070c4"/><path d="M151.178,234.744a3.7,3.7,0,1,0-3.7,3.7,3.7,3.7,0,0,0,3.7-3.7" fill="#09538f"/></svg>