<svg xmlns="http://www.w3.org/2000/svg" viewBox="0 0 300 300"><title>MSC17-business-016</title><path d="M300,0V300H0V0Z" fill="#d2d2d2"/><path d="M222.054,213.605c-.042,0-.08.012-.121.012A3,3,0,0,0,218,209.194a4.324,4.324,0,1,0-2.431,5.229,2.44,2.44,0,0,0-.037.364,2.456,2.456,0,0,0,3,2.4,3.522,3.522,0,1,0,3.519-3.586"/><path d="M165.7,268.739H111.169a8.415,8.415,0,0,0-13.358,0H89a4.011,4.011,0,1,0,0,8.022h47.539a10.51,10.51,0,0,1,16.474,0H165.7a4.011,4.011,0,0,0,0-8.022" fill="#939393"/><path d="M285.032,258.505h-4.2v-1.153h4.2Zm-5.331,0h-4.2v-1.153h4.2Zm-5.33,0h-4.2v-1.153h4.2Zm-5.332,0h-4.2v-1.153h4.2Zm-5.331,0h-4.2v-1.153h4.2Zm-5.33,0h-4.2v-1.153h4.2Zm-5.332,0h-4.2v-1.153h4.2Zm-5.331,0h-4.2v-1.153h4.2Zm-5.33,0h-4.2v-1.153h4.2Zm-5.332,0h-4.2v-1.153h4.2Zm-5.331,0h-4.2v-1.153h4.2Zm-5.33,0h-4.2v-1.153h4.2Zm-5.332,0h-4.2v-1.153h4.2Zm-5.332,0h-4.2v-1.153h4.2Zm-5.33,0h-4.2v-1.153h4.2Zm-5.331,0h-4.2v-1.153h4.2Zm-5.332,0h-4.2v-1.153h4.2Zm-5.33,0h-4.2v-1.153h4.2Zm-5.331,0h-4.2v-1.153h4.2Zm-5.332,0h-4.2v-1.153h4.2Zm-5.33,0h-4.2v-1.153h4.2Zm-5.331,0h-4.2v-1.153h4.2Zm-5.332,0h-4.2v-1.153h4.2Zm-5.331,0h-4.2v-1.153h4.2Zm-5.33,0h-4.2v-1.153h4.2Zm-5.332,0h-4.2v-1.153h4.2Zm-5.331,0h-4.2v-1.153h4.2Zm-5.33,0h-4.2v-1.153h4.2Zm-5.332,0h-4.2v-1.153h4.2Zm-5.331,0h-4.2v-1.153h4.2Zm-5.33,0h-4.2v-1.153h4.2Zm-5.332,0h-4.2v-1.153h4.2Zm-5.331,0h-4.2v-1.153h4.2Zm-5.331,0h-4.2v-1.153h4.2Zm-5.331,0h-4.2v-1.153h4.2Zm-5.331,0h-4.2v-1.153h4.2Zm-5.331,0h-4.2v-1.153h4.2Zm-5.331,0h-4.2v-1.153h4.2Zm-5.331,0h-4.2v-1.153h4.2Zm-5.331,0h-4.2v-1.153h4.2Zm-5.331,0h-4.2v-1.153h4.2Zm-5.331,0h-4.2v-1.153h4.2Zm-5.331,0h-4.2v-1.153h4.2Zm-5.331,0H51.6v-1.153h4.2Zm-5.331,0h-4.2v-1.153h4.2Zm-5.331,0h-4.2v-1.153h4.2Z" fill="#e6e6e6"/><path d="M285.032,231.772h-4.2v-1.154h4.2Zm-5.331,0h-4.2v-1.154h4.2Zm-5.33,0h-4.2v-1.154h4.2Zm-5.332,0h-4.2v-1.154h4.2Zm-5.331,0h-4.2v-1.154h4.2Zm-5.33,0h-4.2v-1.154h4.2Zm-5.332,0h-4.2v-1.154h4.2Zm-5.331,0h-4.2v-1.154h4.2Zm-5.33,0h-4.2v-1.154h4.2Zm-5.332,0h-4.2v-1.154h4.2Zm-5.331,0h-4.2v-1.154h4.2Zm-5.33,0h-4.2v-1.154h4.2Zm-5.332,0h-4.2v-1.154h4.2Zm-5.332,0h-4.2v-1.154h4.2Zm-5.33,0h-4.2v-1.154h4.2Zm-5.331,0h-4.2v-1.154h4.2Zm-5.332,0h-4.2v-1.154h4.2Zm-5.33,0h-4.2v-1.154h4.2Zm-5.331,0h-4.2v-1.154h4.2Zm-5.332,0h-4.2v-1.154h4.2Zm-5.33,0h-4.2v-1.154h4.2Zm-5.331,0h-4.2v-1.154h4.2Zm-5.332,0h-4.2v-1.154h4.2Zm-5.331,0h-4.2v-1.154h4.2Zm-5.33,0h-4.2v-1.154h4.2Zm-5.332,0h-4.2v-1.154h4.2Zm-5.331,0h-4.2v-1.154h4.2Zm-5.33,0h-4.2v-1.154h4.2Zm-5.332,0h-4.2v-1.154h4.2Zm-5.331,0h-4.2v-1.154h4.2Zm-5.33,0h-4.2v-1.154h4.2Zm-5.332,0h-4.2v-1.154h4.2Zm-5.331,0h-4.2v-1.154h4.2Zm-5.331,0h-4.2v-1.154h4.2Zm-5.331,0h-4.2v-1.154h4.2Zm-5.331,0h-4.2v-1.154h4.2Zm-5.331,0h-4.2v-1.154h4.2Zm-5.331,0h-4.2v-1.154h4.2Zm-5.331,0h-4.2v-1.154h4.2Zm-5.331,0h-4.2v-1.154h4.2Zm-5.331,0h-4.2v-1.154h4.2Zm-5.331,0h-4.2v-1.154h4.2Zm-5.331,0h-4.2v-1.154h4.2Zm-5.331,0H51.6v-1.154h4.2Zm-5.331,0h-4.2v-1.154h4.2Zm-5.331,0h-4.2v-1.154h4.2Z" fill="#e6e6e6"/><path d="M285.032,205.037h-4.2v-1.154h4.2Zm-5.331,0h-4.2v-1.154h4.2Zm-5.33,0h-4.2v-1.154h4.2Zm-5.332,0h-4.2v-1.154h4.2Zm-5.331,0h-4.2v-1.154h4.2Zm-5.33,0h-4.2v-1.154h4.2Zm-5.332,0h-4.2v-1.154h4.2Zm-5.331,0h-4.2v-1.154h4.2Zm-5.33,0h-4.2v-1.154h4.2Zm-5.332,0h-4.2v-1.154h4.2Zm-5.331,0h-4.2v-1.154h4.2Zm-5.33,0h-4.2v-1.154h4.2Zm-5.332,0h-4.2v-1.154h4.2Zm-5.332,0h-4.2v-1.154h4.2Zm-5.33,0h-4.2v-1.154h4.2Zm-5.331,0h-4.2v-1.154h4.2Zm-5.332,0h-4.2v-1.154h4.2Zm-5.33,0h-4.2v-1.154h4.2Zm-5.331,0h-4.2v-1.154h4.2Zm-5.332,0h-4.2v-1.154h4.2Zm-5.33,0h-4.2v-1.154h4.2Zm-5.331,0h-4.2v-1.154h4.2Zm-5.332,0h-4.2v-1.154h4.2Zm-5.331,0h-4.2v-1.154h4.2Zm-5.33,0h-4.2v-1.154h4.2Zm-5.332,0h-4.2v-1.154h4.2Zm-5.331,0h-4.2v-1.154h4.2Zm-5.33,0h-4.2v-1.154h4.2Zm-5.332,0h-4.2v-1.154h4.2Zm-5.331,0h-4.2v-1.154h4.2Zm-5.33,0h-4.2v-1.154h4.2Zm-5.332,0h-4.2v-1.154h4.2Zm-5.331,0h-4.2v-1.154h4.2Zm-5.331,0h-4.2v-1.154h4.2Zm-5.331,0h-4.2v-1.154h4.2Zm-5.331,0h-4.2v-1.154h4.2Zm-5.331,0h-4.2v-1.154h4.2Zm-5.331,0h-4.2v-1.154h4.2Zm-5.331,0h-4.2v-1.154h4.2Zm-5.331,0h-4.2v-1.154h4.2Zm-5.331,0h-4.2v-1.154h4.2Zm-5.331,0h-4.2v-1.154h4.2Zm-5.331,0h-4.2v-1.154h4.2Zm-5.331,0H51.6v-1.154h4.2Zm-5.331,0h-4.2v-1.154h4.2Zm-5.331,0h-4.2v-1.154h4.2Z" fill="#e6e6e6"/><path d="M285.032,178.3h-4.2v-1.154h4.2Zm-5.331,0h-4.2v-1.154h4.2Zm-5.33,0h-4.2v-1.154h4.2Zm-5.332,0h-4.2v-1.154h4.2Zm-5.331,0h-4.2v-1.154h4.2Zm-5.33,0h-4.2v-1.154h4.2Zm-5.332,0h-4.2v-1.154h4.2Zm-5.331,0h-4.2v-1.154h4.2Zm-5.33,0h-4.2v-1.154h4.2Zm-5.332,0h-4.2v-1.154h4.2Zm-5.331,0h-4.2v-1.154h4.2Zm-5.33,0h-4.2v-1.154h4.2Zm-5.332,0h-4.2v-1.154h4.2Zm-5.332,0h-4.2v-1.154h4.2Zm-5.33,0h-4.2v-1.154h4.2Zm-5.331,0h-4.2v-1.154h4.2Zm-5.332,0h-4.2v-1.154h4.2Zm-5.33,0h-4.2v-1.154h4.2Zm-5.331,0h-4.2v-1.154h4.2Zm-5.332,0h-4.2v-1.154h4.2Zm-5.33,0h-4.2v-1.154h4.2Zm-5.331,0h-4.2v-1.154h4.2Zm-5.332,0h-4.2v-1.154h4.2Zm-5.331,0h-4.2v-1.154h4.2Zm-5.33,0h-4.2v-1.154h4.2Zm-5.332,0h-4.2v-1.154h4.2Zm-5.331,0h-4.2v-1.154h4.2Zm-5.33,0h-4.2v-1.154h4.2Zm-5.332,0h-4.2v-1.154h4.2Zm-5.331,0h-4.2v-1.154h4.2Zm-5.33,0h-4.2v-1.154h4.2Zm-5.332,0h-4.2v-1.154h4.2Zm-5.331,0h-4.2v-1.154h4.2Zm-5.331,0h-4.2v-1.154h4.2Zm-5.331,0h-4.2v-1.154h4.2Zm-5.331,0h-4.2v-1.154h4.2Zm-5.331,0h-4.2v-1.154h4.2Zm-5.331,0h-4.2v-1.154h4.2Zm-5.331,0h-4.2v-1.154h4.2Zm-5.331,0h-4.2v-1.154h4.2Zm-5.331,0h-4.2v-1.154h4.2Zm-5.331,0h-4.2v-1.154h4.2Zm-5.331,0h-4.2v-1.154h4.2Zm-5.331,0H51.6v-1.154h4.2Zm-5.331,0h-4.2v-1.154h4.2Zm-5.331,0h-4.2v-1.154h4.2Z" fill="#e6e6e6"/><path d="M285.032,151.568h-4.2v-1.154h4.2Zm-5.331,0h-4.2v-1.154h4.2Zm-5.33,0h-4.2v-1.154h4.2Zm-5.332,0h-4.2v-1.154h4.2Zm-5.331,0h-4.2v-1.154h4.2Zm-5.33,0h-4.2v-1.154h4.2Zm-5.332,0h-4.2v-1.154h4.2Zm-5.331,0h-4.2v-1.154h4.2Zm-5.33,0h-4.2v-1.154h4.2Zm-5.332,0h-4.2v-1.154h4.2Zm-5.331,0h-4.2v-1.154h4.2Zm-5.33,0h-4.2v-1.154h4.2Zm-5.332,0h-4.2v-1.154h4.2Zm-5.332,0h-4.2v-1.154h4.2Zm-5.33,0h-4.2v-1.154h4.2Zm-5.331,0h-4.2v-1.154h4.2Zm-5.332,0h-4.2v-1.154h4.2Zm-5.33,0h-4.2v-1.154h4.2Zm-5.331,0h-4.2v-1.154h4.2Zm-5.332,0h-4.2v-1.154h4.2Zm-5.33,0h-4.2v-1.154h4.2Zm-5.331,0h-4.2v-1.154h4.2Zm-5.332,0h-4.2v-1.154h4.2Zm-5.331,0h-4.2v-1.154h4.2Zm-5.33,0h-4.2v-1.154h4.2Zm-5.332,0h-4.2v-1.154h4.2Zm-5.331,0h-4.2v-1.154h4.2Zm-5.33,0h-4.2v-1.154h4.2Zm-5.332,0h-4.2v-1.154h4.2Zm-5.331,0h-4.2v-1.154h4.2Zm-5.33,0h-4.2v-1.154h4.2Zm-5.332,0h-4.2v-1.154h4.2Zm-5.331,0h-4.2v-1.154h4.2Zm-5.331,0h-4.2v-1.154h4.2Zm-5.331,0h-4.2v-1.154h4.2Zm-5.331,0h-4.2v-1.154h4.2Zm-5.331,0h-4.2v-1.154h4.2Zm-5.331,0h-4.2v-1.154h4.2Zm-5.331,0h-4.2v-1.154h4.2Zm-5.331,0h-4.2v-1.154h4.2Zm-5.331,0h-4.2v-1.154h4.2Zm-5.331,0h-4.2v-1.154h4.2Zm-5.331,0h-4.2v-1.154h4.2Zm-5.331,0H51.6v-1.154h4.2Zm-5.331,0h-4.2v-1.154h4.2Zm-5.331,0h-4.2v-1.154h4.2Z" fill="#e6e6e6"/><path d="M285.032,124.833h-4.2v-1.154h4.2Zm-5.331,0h-4.2v-1.154h4.2Zm-5.33,0h-4.2v-1.154h4.2Zm-5.332,0h-4.2v-1.154h4.2Zm-5.331,0h-4.2v-1.154h4.2Zm-5.33,0h-4.2v-1.154h4.2Zm-5.332,0h-4.2v-1.154h4.2Zm-5.331,0h-4.2v-1.154h4.2Zm-5.33,0h-4.2v-1.154h4.2Zm-5.332,0h-4.2v-1.154h4.2Zm-5.331,0h-4.2v-1.154h4.2Zm-5.33,0h-4.2v-1.154h4.2Zm-5.332,0h-4.2v-1.154h4.2Zm-5.332,0h-4.2v-1.154h4.2Zm-5.33,0h-4.2v-1.154h4.2Zm-5.331,0h-4.2v-1.154h4.2Zm-5.332,0h-4.2v-1.154h4.2Zm-5.33,0h-4.2v-1.154h4.2Zm-5.331,0h-4.2v-1.154h4.2Zm-5.332,0h-4.2v-1.154h4.2Zm-5.33,0h-4.2v-1.154h4.2Zm-5.331,0h-4.2v-1.154h4.2Zm-5.332,0h-4.2v-1.154h4.2Zm-5.331,0h-4.2v-1.154h4.2Zm-5.33,0h-4.2v-1.154h4.2Zm-5.332,0h-4.2v-1.154h4.2Zm-5.331,0h-4.2v-1.154h4.2Zm-5.33,0h-4.2v-1.154h4.2Zm-5.332,0h-4.2v-1.154h4.2Zm-5.331,0h-4.2v-1.154h4.2Zm-5.33,0h-4.2v-1.154h4.2Zm-5.332,0h-4.2v-1.154h4.2Zm-5.331,0h-4.2v-1.154h4.2Zm-5.331,0h-4.2v-1.154h4.2Zm-5.331,0h-4.2v-1.154h4.2Zm-5.331,0h-4.2v-1.154h4.2Zm-5.331,0h-4.2v-1.154h4.2Zm-5.331,0h-4.2v-1.154h4.2Zm-5.331,0h-4.2v-1.154h4.2Zm-5.331,0h-4.2v-1.154h4.2Zm-5.331,0h-4.2v-1.154h4.2Zm-5.331,0h-4.2v-1.154h4.2Zm-5.331,0h-4.2v-1.154h4.2Zm-5.331,0H51.6v-1.154h4.2Zm-5.331,0h-4.2v-1.154h4.2Zm-5.331,0h-4.2v-1.154h4.2Z" fill="#e6e6e6"/><path d="M167.077,134.128a16.869,16.869,0,0,0-12.085,5.08c-2.859,10.176,6.356,16.779,15.025,16.779,5.335,0,11.8-.9,13.684-8.1a16.925,16.925,0,0,0-16.624-13.758" fill="#5c2d91"/><path d="M183.7,147.886a15.56,15.56,0,0,1-9.3,5.823v-1.9l3.717-3.717v-2.334a1.969,1.969,0,1,0-.956,0V147.7l-3.717,3.716v2.472a17.526,17.526,0,0,1-2.653.206c-.18,0-.354-.019-.532-.024V149.59h3.983v-7.711a1.97,1.97,0,1,0-.957,0v6.756h-3.982v5.387c-.477-.041-.944-.1-1.407-.182a1.956,1.956,0,0,0-.5-3.6V147.5l3.876-3.876V131.272a1.969,1.969,0,1,0-.956,0v11.961l-3.876,3.877v3.13a1.967,1.967,0,0,0-1.491,1.9,1.941,1.941,0,0,0,.293,1.02,15.972,15.972,0,0,1-2.786-1.259v-4.345l5.1-5.1v-3.556a1.97,1.97,0,1,0-.955,0v3.159l-5.1,5.1v4.145a14.983,14.983,0,0,1-2.915-2.554,1.963,1.963,0,0,0,.047-3.822v-2.888a1.969,1.969,0,1,0-.957,0v2.888a1.979,1.979,0,0,0-1.122.772,14.807,14.807,0,0,1-1.563-6.493,16.866,16.866,0,0,0-4.84,11.843c0,9.347,7.578,16.127,16.925,16.127S184,160.4,184,151.053a17.037,17.037,0,0,0-.3-3.167m-7.071-4.034a1.014,1.014,0,1,1,1.013,1.014,1.014,1.014,0,0,1-1.013-1.014m-3.876-3.877a1.013,1.013,0,1,1,1.013,1.014,1.014,1.014,0,0,1-1.013-1.014m-2.972-10.607a1.013,1.013,0,1,1,1.013,1.014,1.015,1.015,0,0,1-1.013-1.014m-2.863,21.762a1.013,1.013,0,1,1-1.013,1.013,1.014,1.014,0,0,1,1.013-1.013M166.063,137a1.014,1.014,0,1,1,1.014,1.014A1.014,1.014,0,0,1,166.063,137m-8.92,3.137a1.013,1.013,0,1,1,1.013,1.014,1.014,1.014,0,0,1-1.013-1.014m1.013,5.682a1.014,1.014,0,0,1,0,2.027.967.967,0,0,1-.353-.072c-.232-.317-.444-.651-.651-.988a1.01,1.01,0,0,1,1-.967" fill="#401865"/><path d="M154.992,139.208v0c.054-.056.107-.114.161-.169l-.161.166" fill="#401865"/><path d="M161.126,141.1a1.969,1.969,0,1,0,2.447-1.9v-9.6a1.969,1.969,0,1,0-.957,0v9.6a1.968,1.968,0,0,0-1.49,1.9m.956-13.41A1.013,1.013,0,1,1,163.1,128.7a1.014,1.014,0,0,1-1.013-1.013m1.013,12.4a1.014,1.014,0,1,1-1.013,1.013,1.014,1.014,0,0,1,1.013-1.013" fill="#401865"/><path d="M190.447,88.184a9.071,9.071,0,0,0-3.492,3.081V87.971a7.975,7.975,0,1,0-6.155-.538v7.095a9.059,9.059,0,0,0-4-3.551,9.111,9.111,0,0,0,3.937,8.7,12.8,12.8,0,0,1-7.523,10.525l-12.139,5.415V60.8h-6.154v57.559l-5.506,2.456a24.814,24.814,0,0,0-14.679,22.212q-.321-.447-.683-.873a13.6,13.6,0,0,0-7.276-4.45l7.944,9.345v11.371a19.188,19.188,0,0,0-5.234,10.936,11.876,11.876,0,0,0-.86-.973,11.619,11.619,0,0,0-6.506-3.289,11.69,11.69,0,0,0,7.206,9.092v35.866a18.531,18.531,0,0,0-16.373-13.348l16.653,14.4c-.093-.007-.186-.024-.28-.032v21.775A30.273,30.273,0,0,0,111.969,211.9l-8.343-3.648a17.468,17.468,0,0,1-10.468-16V106.713H87v34.394a12.128,12.128,0,0,0-11.828-4.021A12.129,12.129,0,0,0,87,143.2v30.1A20.855,20.855,0,0,0,66.853,182.8L87,175.014v17.231a23.622,23.622,0,0,0,14.156,21.643l8.342,3.649a24.116,24.116,0,0,1,14.452,22.094V276.88h11.532v-.12h1.057a10.563,10.563,0,0,1,4.336-3.229v-56.05a22.8,22.8,0,0,1,8.145-6.141l9.034-4.028a22.364,22.364,0,0,0,13.244-20.4v-6.5l11.918-5.6a13.637,13.637,0,0,0-11.918,3.361V164.082h-1.566c-2.555-7.485-12.434-13.453-19.571-13.331.007-.338.017-.677.043-1.01a11.769,11.769,0,0,1-2.331,1.359l-7,3.058v-10.7a18.663,18.663,0,0,1,11.048-17.024l3-1.337v14.177a16.943,16.943,0,0,1,6.154-4.053V122.355l14.646-6.532a18.967,18.967,0,0,0,11.229-17.3V92.264a9.105,9.105,0,0,0,9.123-4.907,9.084,9.084,0,0,0-5.631.827m-47.153,71.633,7.048-3.079c.173-.075.339-.161.507-.244,2.018,6.288,7.6,11.23,14.3,11.506v18.907a16.2,16.2,0,0,1-9.6,14.785l-9.034,4.028a28.94,28.94,0,0,0-5.639,3.333v-16.58l16.507-14.642a19.448,19.448,0,0,0-16.507,12.682V161.2a12.987,12.987,0,0,1,2.415-1.383" fill="#48c4ae"/><path d="M183.6,147.393c.034.163.069.327.1.489-.031-.164-.064-.326-.1-.489" fill="#401865"/><path d="M113.343,95.491a5.591,5.591,0,0,0-4.054,1.735A12.154,12.154,0,0,0,90.143,84.831a9.138,9.138,0,0,0-12.461,5.115,8.435,8.435,0,0,0-7.089,7.111,6.793,6.793,0,1,0-6.161,9.656h48.911a5.611,5.611,0,0,0,0-11.222" fill="#fff"/><path d="M224.3,203.989c-.873-.119-1.739-.235-2.494-.335a9.969,9.969,0,0,0-2.343-8.784,10.129,10.129,0,0,0-14.914.067c-3.355,3.6-3.191,7.7-1.761,11.363l.44,1.736a9.217,9.217,0,0,1,.281,2.334l-.016,1.824c.014.473.464.678.925.4l1.11-.721a.408.408,0,0,1,.547.1c.7.921,1.4,1.739,2.016,2.416a3.062,3.062,0,0,0,4.284.226c1.046-.924,2.326-2.052,3.5-3.088a2.1,2.1,0,0,1,1.955-.453,26.735,26.735,0,0,1,3.052,1.049c2.781,1.141,5.064-2.933,5.064-2.933Z" fill="#72594b"/><path d="M220.639,210.78a6.21,6.21,0,0,0-6.2,1.023l-2.118,1.761a2.244,2.244,0,0,1-2.717.217l-1.325-1.32-.914,1.1c.25.293.5.573.728.828a3.064,3.064,0,0,0,4.286.226c1.046-.924,2.326-2.052,3.494-3.087a2.1,2.1,0,0,1,1.956-.454,26.855,26.855,0,0,1,3.05,1.049,2.8,2.8,0,0,0,2.558-.265Z" fill="#665042"/><path d="M222.236,204.987a2.4,2.4,0,0,0-1.687.693,2.75,2.75,0,0,0-2.407-1.825,4,4,0,0,0,.153-1.043,4.055,4.055,0,0,0-5.648-3.732,3.074,3.074,0,1,0-2.13,5.345,4.056,4.056,0,0,0,3.721,2.444,4.01,4.01,0,0,0,.966-.129,2.745,2.745,0,0,0,4.842,1.646,2.406,2.406,0,1,0,2.19-3.4" fill="#665042"/><path d="M206.482,212.506l2.039-2.2a4.162,4.162,0,0,1-.919,3.589c-.357-.422-1.12-1.385-1.12-1.385" fill="#fff"/><path d="M209.963,210.252a1.768,1.768,0,0,0-2.939,0Z" fill="#665042"/><path d="M181.1,254.025h0a2.548,2.548,0,0,1-2.548-2.548v-4.428A2.549,2.549,0,0,1,181.1,244.5Z" fill="#f3f3f3"/><path d="M215.547,252.148l-15.5-20.877-3.154,1.791-3.627-6.391a1.622,1.622,0,0,1,.611-2.212l-1.622.92a1.623,1.623,0,0,0-.611,2.212l3.627,6.391-3.3,1.872,3.346,8.048L187.4,248.4a33.435,33.435,0,0,0-5.345-.16l-.747,1.728s11.758.878,20.015,8.385l.94,2.263a1.317,1.317,0,0,0,1.866.639l2.759-1.565c.688-.391,9.128-6.9,8.657-7.537M189.008,248.6l1.618-.918,5.066-2.876,2.791,6.714a30.258,30.258,0,0,0-9.475-2.92" fill="#00b294"/><path d="M200.809,240.233l-2.257,1.153-5.4,2.121-2.663,1.03-.384,2.369.685-.083a.882.882,0,0,0,.631-.391l.683-1.043.337-.1-.8,2a1.425,1.425,0,0,1-1.322.895h-.591l-1.1.622.372.559a2.386,2.386,0,0,0,1.509,1.014l2.789.571a2.918,2.918,0,0,0,3.145-1.459l2.1-3.839,1.4-1.066,2.8-.621Z" fill="#72594b"/><path d="M200.7,243.166l-3.024,1.47a2.526,2.526,0,0,0-1.156,1.146l-1.34,2.7a1.948,1.948,0,0,1-1.836,1.08l-4.335-.2a2.39,2.39,0,0,0,1.509,1.015l2.789.57a2.917,2.917,0,0,0,3.145-1.459l2.1-3.84,1.4-1.065,2.8-.622Z" fill="#665042"/><path d="M180.542,254.718a6.957,6.957,0,0,0,0-10.91Z" fill="#48c4ae"/><path d="M218.43,251.437l-4.732-6.379.2-11.575a5.809,5.809,0,0,0-8.674-5.152l-2.77,1.573-2.41,1.367-3.627-6.39a1.622,1.622,0,0,0-2.212-.61l-1.622.92a1.624,1.624,0,0,1,2.213.61l4.269,7.523a.931.931,0,0,0,1.271.351.89.89,0,0,0,.237-.206l.149.615-7.676,4.357.3.728,7.563-4.292,5.977,24.807,11.133-6.318a1.315,1.315,0,0,0,.407-1.929m-15.21-20.5,2.634-1.494a4.533,4.533,0,0,1,6.771,4.021l-.172,9.919Z" fill="#48c4ae"/><path d="M218.384,227.121l-4.544-1.791a2.469,2.469,0,0,0-3.086,1.14l-2.464,4.648.445.3a1.9,1.9,0,0,0,2.453-.3l.872.564a1.353,1.353,0,0,0,1.591-.088l1.934-1.575h2.9Z" fill="#665042"/><path d="M273.378,260.722v14.532a1.7,1.7,0,0,1-1.7,1.7h-5.615s.915-3.658,4-3.773a3.892,3.892,0,0,0-.457-1.714l1.257-.8-4.229-9.032a15.053,15.053,0,0,1,6.744-.915"/><path d="M269.606,271.469l-.451-.877a3.789,3.789,0,0,0-2.921-2.029l-1.2-.143,1.6-6.783,5.639,9.069Z" fill="#72594b"/><path d="M266.634,261.637l-19.908,4.916s8.929-14.306,10.482-23.045c-3.887,0-15.573,1.21-15.573,1.21l-2.1,27.378a3.491,3.491,0,0,0,4.023,3.717l23.99-3.773Z" fill="#737373"/><path d="M231.575,272.916l1.634-.857a2.854,2.854,0,0,0,1.352-3.51l-1.195-3.254,4.8-2.057a25.3,25.3,0,0,1,3.467,6.63c-1.41,3.887-5.982,5.373-5.982,5.373l-4.688.228Z" fill="#72594b"/><path d="M243.007,276.88h-20.73s1.067-3.507,9.3-3.964l.762,1.22,9.3-4.268a20.953,20.953,0,0,1,1.372,7.012"/><path d="M262.413,241.4c-12.212-31.154-26.633-35.243-38.274-36.8-2,5.2-3.2,7.6-3.2,7.6l1.219,4.4-5.805,15.187L200.2,240.346l1.283,7.019,21.968-9.423a4.908,4.908,0,0,0,2.839-3.3l1.321-4.569,7.3,4.5-3.459,2.173-14.42,4.932a4.193,4.193,0,0,0-1.867,6.647l17.78,21.388,10.365-7.622s-10.745-9.908-15.775-12.5l15.191.187s8.225.469,13.346-4.106a3.46,3.46,0,0,0,1.133-2.169c.075-.634.121-1.261.142-1.883,3.118-.018,5.064-.221,5.064-.221" fill="#939393"/><path d="M232,236.985c1.43,1.562,9.037,8.871,25.031,7.495.148-1.035.246-1.98.313-2.856-5.952.034-16.176-.615-25.344-4.639" fill="#737373"/><path d="M231.45,206.053a2.209,2.209,0,0,0,.056-.478,2.174,2.174,0,0,0-2.175-2.174c-.014,0-.028,0-.043,0a2.261,2.261,0,0,0-2.937-1.762c.009-.1.029-.191.029-.291a3.186,3.186,0,0,0-2.725-3.148,3.009,3.009,0,0,0-3.024-4.625,8.147,8.147,0,0,0-2.745-2.079,3.053,3.053,0,0,0-5.037-.764h-.161a2.667,2.667,0,0,0-3.514.021,8.121,8.121,0,0,0-7.711,8.106h0v.014a2.606,2.606,0,0,0,4.859,1.32,1.765,1.765,0,0,0,1.179.456,2.876,2.876,0,0,0,2.875,2.876,2.929,2.929,0,0,0,.525-.054,7.558,7.558,0,0,0,4.386,1.849l.267.021c-.006.078-.023.151-.023.231a2.757,2.757,0,0,0,4.771,1.89,3.148,3.148,0,0,0,4.606.334,1.765,1.765,0,0,0,3.008-1.849,2.29,2.29,0,0,0,.8-.561c.9.191,1.81.4,2.732.664"/><path d="M206.54,207.75a1.532,1.532,0,0,1,.7-1.208.81.81,0,1,0-.7,1.209Z"/><path d="M204.642,205.746a.249.249,0,0,1-.146-.047.255.255,0,0,1-.064-.355,2.535,2.535,0,0,1,3.1-.764.256.256,0,0,1-.2.471,2,2,0,0,0-2.475.586.257.257,0,0,1-.209.109"/><path d="M158.887,255.858a.478.478,0,0,1-.324-.829,24.914,24.914,0,0,1,15.735-6.59.469.469,0,0,1,.5.455.476.476,0,0,1-.455.5,23.962,23.962,0,0,0-15.131,6.338.474.474,0,0,1-.324.127" fill="#fff"/><path d="M154.835,260.707a.478.478,0,0,1-.4-.734q.356-.558.737-1.092a.477.477,0,1,1,.777.554q-.366.515-.707,1.05a.479.479,0,0,1-.4.222" fill="#fff"/><path d="M152.672,264.991a.477.477,0,0,1-.445-.65c.212-.552.45-1.107.707-1.652a.478.478,0,0,1,.864.409c-.246.523-.475,1.057-.68,1.588a.478.478,0,0,1-.446.305" fill="#fff"/><path d="M161.992,246.815a.478.478,0,0,1-.176-.922,21.423,21.423,0,0,1,14.645-.4.478.478,0,1,1-.3.906,20.476,20.476,0,0,0-13.99.379.475.475,0,0,1-.176.034" fill="#fff"/><path d="M154.516,251.853a.477.477,0,0,1-.346-.807,21.386,21.386,0,0,1,2.863-2.514.478.478,0,1,1,.564.771,20.416,20.416,0,0,0-2.735,2.4.476.476,0,0,1-.346.147" fill="#fff"/><path d="M149.837,259.648a.471.471,0,0,1-.151-.024.477.477,0,0,1-.3-.6c.226-.676.486-1.348.777-2a.478.478,0,1,1,.873.391c-.278.619-.528,1.26-.744,1.907a.477.477,0,0,1-.453.326" fill="#fff"/><path d="M168.255,254.473a.477.477,0,0,1-.255-.881,18.063,18.063,0,0,1,5.024-2.185.478.478,0,1,1,.244.924,17.12,17.12,0,0,0-4.758,2.069.476.476,0,0,1-.255.073" fill="#fff"/><path d="M161.682,261.975a.5.5,0,0,1-.2-.044.479.479,0,0,1-.233-.635,18.292,18.292,0,0,1,1.331-2.39.478.478,0,0,1,.8.527,17.216,17.216,0,0,0-1.262,2.265.478.478,0,0,1-.434.277" fill="#fff"/><path d="M100.954,123.875a12.162,12.162,0,0,0-8.5-11.652,12.165,12.165,0,0,0,8.5,11.652" fill="#00b294"/><path d="M112.96,196.706a18.558,18.558,0,0,0,16.653,14.4l-7.471-7.229Z" fill="#00b294"/><path d="M66.853,182.8a20.872,20.872,0,0,0,23.093-8.918l-12.428,3.27Z" fill="#00b294"/><path d="M140.11,193.155a19.476,19.476,0,0,0,17.276-15.324Z" fill="#00b294"/><path d="M168.551,181.7a13.665,13.665,0,0,0,14.669-6.888Z" fill="#00b294"/><path d="M126.782,137.706a13.664,13.664,0,0,0,10.5,12.348Z" fill="#00b294"/><path d="M93.158,93.374V77.708H87V89.893a16.728,16.728,0,0,1,6.154,3.481" fill="#48c4ae"/><polygon points="87.028 106.713 87.028 109.899 93.118 108.306 93.118 106.713 87.028 106.713" fill="#00b294"/><polygon points="86.98 80.73 86.98 84.77 93.134 83.177 93.134 81.584 86.98 80.73" fill="#00b294"/><polygon points="154.913 60.524 154.913 63.71 161.131 62.117 161.131 60.524 154.913 60.524" fill="#00b294"/><path d="M146.419,71.29a4.34,4.34,0,0,0-2.325.672,9.818,9.818,0,1,0-19.454-2.407,5.911,5.911,0,1,0-3.781,10.455h25.56a4.36,4.36,0,0,0,0-8.72" fill="#fff"/><path d="M206.882,97.837a3.246,3.246,0,0,1,1.739.5,7.344,7.344,0,1,1,14.552-1.8A4.422,4.422,0,1,1,226,104.36h-19.12a3.262,3.262,0,0,1,0-6.523" fill="#fff"/><path d="M102.3,70.106a11.9,11.9,0,1,1-23.794,0,11.9,11.9,0,0,1,23.794,0" fill="#5c2d91"/><path d="M98.847,61.658a11.908,11.908,0,0,0-8.447-3.5V70.106Z" fill="#fff"/><path d="M140.167,42.966A17.837,17.837,0,1,0,158,25.13a17.835,17.835,0,0,0-17.836,17.836" fill="#ed8422"/><path d="M158,25.129a17.837,17.837,0,0,1,14.106,28.754,17.837,17.837,0,0,1-25.023-25.022A17.755,17.755,0,0,1,158,25.129" fill="#ed8422"/><path d="M188,77.444a9.155,9.155,0,0,0-1.681,10.731A9.158,9.158,0,0,0,188,77.444" fill="#00b294"/><path d="M175.587,82.809a9.158,9.158,0,0,0,8.336,6.965,9.161,9.161,0,0,0-8.336-6.965" fill="#00b294"/><rect x="151.276" y="42.948" width="4.875" height="7.605" fill="#401865"/><rect x="144.171" y="46.75" width="4.876" height="3.802" fill="#48c4ae"/><rect x="158.735" y="32.676" width="4.875" height="17.875" fill="#42787a"/><rect x="166.195" y="22.739" width="4.876" height="27.813" fill="#5c2d91"/><path d="M168.633,34.009a1.319,1.319,0,0,0-1.318,1.319,1.237,1.237,0,0,0,.024.237l-5.219,2.683a1.313,1.313,0,0,0-2.09,1.559l-5.705,5.782a1.3,1.3,0,0,0-.611-.157,1.315,1.315,0,0,0-1.257.938h-4.44a1.318,1.318,0,1,0,0,.761h4.441a1.313,1.313,0,1,0,2.407-1.01l5.7-5.8a1.308,1.308,0,0,0,1.927-1.163,1.322,1.322,0,0,0-.024-.237l5.219-2.684a1.317,1.317,0,1,0,.947-2.232" fill="#f3f3f3"/><polygon points="154.913 125.089 154.913 128.295 161.051 125.389 161.051 122.381 154.913 125.089" fill="#00b294"/><path d="M140.85,154.192v7.043a12.678,12.678,0,0,1,2.38-1.394v-6.707Z" fill="#00b294"/><path d="M231,218.364l-3.373,11.67,6.352,4.093A37.668,37.668,0,0,0,231,218.364" fill="#737373"/><polygon points="221.537 214.355 225.009 209.576 222.054 217.13 221.537 214.355" fill="#737373"/><path d="M101.428,65.512a11.965,11.965,0,0,0-2.58-3.854L90.4,70.106Z" fill="#48c4ae"/><path d="M78.714,67.625a11.855,11.855,0,0,0,.015,5.017L90.4,70.106Z" fill="#401865"/><path d="M90.4,53.778h0V70.106H74.072A16.328,16.328,0,0,1,90.4,53.778" fill="#ed8422"/><path d="M167.319,168.01a16.954,16.954,0,0,0,16.307-20.681,25.962,25.962,0,0,0-16.307,20.681" fill="#00b294"/></svg>