<svg xmlns="http://www.w3.org/2000/svg" viewBox="0 0 300 300"><title>MSC17-business-002</title><path d="M300,0V300H0V0Z" fill="#d2d2d2"/><path d="M256.707,91H251.7c0-.131.01-.26.01-.391a21.529,21.529,0,1,0-.419,4.237h5.419a1.923,1.923,0,1,0,0-3.846" fill="#fff788"/><rect x="78.904" y="81.758" width="7.297" height="11.019" fill="#fff"/><rect x="89.962" y="69.453" width="7.297" height="23.324" fill="#e6e6e6"/><rect x="101.022" y="59.348" width="7.297" height="33.429" fill="#b2b2b2"/><path d="M104.67,79.564a2.175,2.175,0,0,0-1.434.546l-7.68-5.238a2.159,2.159,0,0,0,.135-.735,2.194,2.194,0,0,0-4.387,0c0,.048.012.092.015.138l-6.927,2.286a2.189,2.189,0,1,0,.354,1.189c0-.047-.011-.091-.014-.137l6.927-2.286a2.174,2.174,0,0,0,3.273.458l7.68,5.238a2.164,2.164,0,0,0-.136.735,2.194,2.194,0,1,0,2.194-2.194" fill="#939393"/><path d="M137.569,116.441s.033,5.47-1.155,7.624-4.755,3.095-4.755,3.095l4.457,6.189,16.194.413s7.651-5.464,2.6-15.64-13.594-7.947-13.594-7.947Z"/><path d="M136.689,114.2h0a1.136,1.136,0,0,0-1.136,1.134v1.9a1.957,1.957,0,0,0,1.957,1.957h.314v-3.858a1.135,1.135,0,0,0-1.135-1.134" fill="#ab845f"/><path d="M177.765,106.181l1.875-4.274a2.212,2.212,0,0,1,1.843-1.317l4.455-.371,6.539-.288-.023.1a2.185,2.185,0,0,1-2.028,1.708l-2.276.112.813,1.7a1.06,1.06,0,0,1-.048,1l-.818,1.364a1.056,1.056,0,0,1-.976.51l-2.24-.149-3.366.769-.961,1.635-2.5-.865Z" fill="#bb9167"/><path d="M188.479,258H111.662a1.725,1.725,0,0,1-1.725-1.726v-.154a1.725,1.725,0,0,1,1.725-1.726h76.817a1.726,1.726,0,0,1,1.726,1.726v.154A1.726,1.726,0,0,1,188.479,258" fill="#c2c2c2"/><path d="M146.778,105.721H145.7a8.155,8.155,0,0,0-8.132,8.132v5.175a8.156,8.156,0,0,0,5.474,7.674l-.126,3.173-4.415,1.7,7.132,14.942,5.976-15.442-1.685-3.168.117-1.438a8.157,8.157,0,0,0,4.868-7.439v-5.175a8.156,8.156,0,0,0-8.132-8.132" fill="#bb9167"/><path d="M166.529,252.963a9.891,9.891,0,0,1-3.733-4.281l-.627-1.382-.186-1.364-1.278-33.885-3.862-4.884-5.908,4.884,6.429,33.885h2.141l-1.258,5.175,6.046,4.686,2.2.612,4.321-.748Z" fill="#ab845f"/><path d="M137.894,245.936l4.027-38.09h-10.5l-.866,4.2,1.957,33.885h.953l-1,4.292-.367.86a8.173,8.173,0,0,1-2,2.829l-1.578,1.446,2.245,1.266,4.075-.611,3.414-5.5-.754-4.58Z" fill="#ab845f"/><path d="M134,163.028h0c-3.444,9.244-4.4,18.61-3.856,31.736l.412,17.287h30.153V187.54c0-11.932-.426-16.521-4.884-24.512Z" fill="#737373"/><path d="M177.573,105.316,169.4,120.7l-13.169,8.884-1.5-1.2-3.124,1.019-1.686-1.494-4.868,12.565-2.037-13.2-2.993,2.169-5.05.586-4.5,2.943-5.668,23.276,1.923,21.887,5.187-.637-.288-21.634,1.906-5.517L134,163.029h21.824l5.786-24.016a7,7,0,0,1,2.456-3.845l12.3-9.753,5.539-17.6Z" fill="#fff"/><path d="M143.042,126.7l-.023.57h0l.3,1.942a8.18,8.18,0,0,0,4.3,4.65l2.309-5.959h0l.117-1.438-.024.009A8.158,8.158,0,0,0,154.9,119.2h.066a1.957,1.957,0,0,0,1.957-1.957v-1.9a1.13,1.13,0,0,0-2.015-.708v-.777c0-.274-.015-.545-.041-.813a1.055,1.055,0,0,0-.214-.29l-6.746-5.119-.716,2.235a9.265,9.265,0,0,0,3.6,4.743,7.551,7.551,0,0,0-1.767.356l-.295.1a1.284,1.284,0,0,0-.875,1.286l.167,3.23c.031.613-.34.713-.866.711a.568.568,0,0,0-.556.676l.389,2-.49.542a3.769,3.769,0,0,0-.8,3.654,8.058,8.058,0,0,1-2.659-.458" fill="#ab845f"/><path d="M142.634,116.7a.836.836,0,1,1-.835-.836.835.835,0,0,1,.835.836"/><path d="M151.3,116.7a.836.836,0,1,1-.836-.836.835.835,0,0,1,.836.836"/><path d="M143.171,121.543a3.315,3.315,0,0,0,6.058,0Z" fill="#fff"/><path d="M146.95,104.146a8.877,8.877,0,0,0-9.344,8.679c-.019.907-.031,1.838-.037,2.772a16.427,16.427,0,0,0,1.843-.364.4.4,0,0,0,.074.526.4.4,0,0,0,.263.1.405.405,0,0,0,.31-.141,2.742,2.742,0,0,1,3.583-.376.407.407,0,0,0,.415-.7,4.181,4.181,0,0,0-1.528-.563,11.274,11.274,0,0,0,5.1-5.015c1.947,4.981,7.651,6.537,7.651,6.537l.078-2.284a8.88,8.88,0,0,0-8.409-9.167"/><path d="M152.517,115.857a.4.4,0,0,1-.31-.143,2.747,2.747,0,0,0-3.584-.375.407.407,0,0,1-.415-.7,3.581,3.581,0,0,1,4.619.549.406.406,0,0,1-.31.67"/><polygon points="144.22 135.045 142.17 130.894 139.521 132.795 141.8 133.308 144.22 135.045" fill="#e6e6e6"/><polygon points="147.875 135.045 149.925 132.049 152.969 133.762 150.423 133.762 147.875 135.045" fill="#e6e6e6"/><polygon points="151.611 129.399 153.716 131.573 154.735 128.381 151.611 129.399" fill="#e6e6e6"/><path d="M160.847,137.686l2.31-11.071s-4.414,4.822-2.31,11.071" fill="#e6e6e6"/><path d="M144.819,141.829a.68.68,0,1,1-.679-.679.68.68,0,0,1,.679.679" fill="#e6e6e6"/><path d="M145.5,150.183a.679.679,0,1,1-.679-.679.68.68,0,0,1,.679.679" fill="#e6e6e6"/><path d="M145.735,157.79a.679.679,0,1,1-.679-.68.679.679,0,0,1,.679.68" fill="#e6e6e6"/><path d="M149.925,162.816l2.148-5.706s2.075,3.532-2.148,5.706" fill="#e6e6e6"/><path d="M157.364,245.936l-.732,2.357a6.521,6.521,0,0,0-.072,3.619l1.619,6.058h1.087v-4.482l5.521,3.823a3.641,3.641,0,0,0,2.089.659h6.448s-1.635-2.988-3.751-2.988h-4.725a2.367,2.367,0,0,1-1.475-.517l-3.948-3.16a.366.366,0,0,1-.136-.328,4.479,4.479,0,0,1,2.88-3.677l-.187-1.364Z"/><path d="M137.894,245.936l.9,3.91a3.359,3.359,0,0,1-.194,2.093,7.141,7.141,0,0,0-.58,2.4l-.227,3.571h-1.018l.094-3.8-1.213,2.1a3.531,3.531,0,0,1-3.057,1.762h-5.411a1.4,1.4,0,0,1,.328-1.655l1.03-.926h5.323a1.659,1.659,0,0,0,1.446-.846l1.954-3.48a1.36,1.36,0,0,0,.028-1.279l-.948-1.876a1.494,1.494,0,0,0-2.656-.022l-1.23,2.342.048-4.292Z"/><path d="M133.293,142.767,136.9,140.7s-.192,3.077-3.606,2.067" fill="#e6e6e6"/><path d="M133.221,184l.289,1.6a1.156,1.156,0,0,0,1.137.952h.159v-2.9a1.826,1.826,0,0,0-.694-1.432l-1.5-1.185a1.72,1.72,0,0,1-.64-1.131l-.308-2.384-4.727.58-.215,7.355a2.99,2.99,0,0,0,1.509,2.685l1.378.785.643,1.156L132.2,192a1.389,1.389,0,0,0,.231-1.933l-.26-.335,1.685,1.66a1.387,1.387,0,0,0,.23-1.932l-1-1.288-.16-.881-.446-3.458Z" fill="#bb9167"/><path d="M208.089,186.923a9.316,9.316,0,1,0,0-13.175,9.316,9.316,0,0,0,0,13.175" fill="#e6e6e6"/><path d="M235.232,197.589l-8.953-8.951a.552.552,0,0,0-.781,0l-.41.411-2.115-2.116a10.6,10.6,0,1,0-1.7,1.7l2.114,2.115-.41.41a.553.553,0,0,0,0,.781l8.952,8.951a.552.552,0,0,0,.781,0l2.52-2.518a.555.555,0,0,0,0-.782m-26.483-11.325a8.383,8.383,0,1,1,11.856,0,8.383,8.383,0,0,1-11.856,0" fill="#fff"/><path d="M213.041,177.488a2.2,2.2,0,1,0,0-3.115,2.2,2.2,0,0,0,0,3.115" fill="#fff"/><path d="M222.979,191.157l1.26-1.26,8.729,8.731a.235.235,0,0,0,.33,0l1.487-1.486.473.473a.519.519,0,0,1,0,.73l-2.573,2.571a.515.515,0,0,1-.728,0l-8.978-8.978a.553.553,0,0,1,0-.781" fill="#e6e6e6"/><path d="M242.092,90.55A11.882,11.882,0,1,0,221.959,99.1a10.9,10.9,0,0,1,3.257,7.857v.215H235.2v-.214a11.317,11.317,0,0,1,3.4-8,11.84,11.84,0,0,0,3.488-8.406" fill="#edac28"/><path d="M228.651,93.072l-.03-.93h0L228.545,90a2.277,2.277,0,1,0-4.554,0V90.1a2.269,2.269,0,0,0,1.4,2.1l.06.025a12.322,12.322,0,0,0,2.273.7l.589,17.2.918-.032-.584-17.014Zm-2.844-1.7-.06-.025a1.354,1.354,0,0,1-.837-1.255V90a1.359,1.359,0,1,1,2.717.015l.067,1.957a11.362,11.362,0,0,1-1.887-.6" fill="#fff"/><path d="M234.189,87.723h-.038a2.277,2.277,0,0,0-2.277,2.262l-.073,2.163a11.653,11.653,0,0,1-2.518.065l.044.923a12.7,12.7,0,0,0,2.442-.058l-.583,17.008.918.031.589-17.187.032-.945L232.793,90a1.36,1.36,0,0,1,1.358-1.358h.038A1.36,1.36,0,0,1,235.549,90v.1a1.357,1.357,0,0,1-.832,1.252,11.265,11.265,0,0,1-1.217.429l-.041.966a12.174,12.174,0,0,0,1.614-.549,2.273,2.273,0,0,0,1.393-2.1V90a2.28,2.28,0,0,0-2.277-2.277" fill="#fff"/><path d="M225.216,106.954v5.66A1.488,1.488,0,0,0,226.7,114.1h2.042v1.3h3.043v-1.3h2.041a1.489,1.489,0,0,0,1.489-1.488v-5.66Z" fill="#b2b2b2"/><rect x="225.215" y="108.561" width="7.96" height="1.133" fill="#d2d2d2"/><rect x="225.215" y="111.086" width="7.96" height="1.133" fill="#d2d2d2"/><path d="M172.168,43.3l-.645,12.4.645,15.615,1.2-.661a24.79,24.79,0,0,0,12.824-21.71V43.3a15.543,15.543,0,0,1-14.022,0" fill="#e6e6e6"/><path d="M182.867,54.069l-2.05-2.049-8.549,8.549V43.3a15.548,15.548,0,0,1-14.021,0v5.645A24.789,24.789,0,0,0,171.07,70.653l1.2.661V64.667Z" fill="#b2b2b2"/><polygon points="172.224 62.002 164.137 53.915 165.732 52.322 172.224 58.813 181.045 49.993 182.639 51.587 172.224 62.002" fill="#fff"/><path d="M79.835,132.289H64.7a8.435,8.435,0,0,0-8.41,8.411v4.461a8.435,8.435,0,0,0,8.41,8.411h3.686v5.821l5.821-5.821h5.626a8.436,8.436,0,0,0,8.411-8.411V140.7a8.436,8.436,0,0,0-8.411-8.411" fill="#fff"/><rect x="61.675" y="137.557" width="21.018" height="1.879" fill="#b2b2b2"/><rect x="61.675" y="141.958" width="21.018" height="1.879" fill="#b2b2b2"/><rect x="61.675" y="146.36" width="21.018" height="1.879" fill="#b2b2b2"/><path d="M115.937,201.324a4.613,4.613,0,0,0-1.766.351c0-.058,0-.114,0-.172a9.055,9.055,0,0,0-17.818-2.279A6.887,6.887,0,1,0,91.1,210.557h24.839a4.617,4.617,0,1,0,0-9.233" fill="#fff"/><path d="M211.1,73.75a1.919,1.919,0,0,1-1.36-.563l-2.565-2.565A1.924,1.924,0,0,1,209.9,67.9l2.564,2.565a1.923,1.923,0,0,1-1.36,3.283" fill="#fff788"/></svg>