<svg xmlns="http://www.w3.org/2000/svg" viewBox="0 0 636 300"><title>MSC17-communication-002</title><path d="M636,0V300H0V0Z" fill="#e6e6e6"/><path d="M398.949,234h-29a3.139,3.139,0,0,1-3.093-2.605l-8.09-46.952H235.548l-2.656,18.872,4.046,20.6s7.25,16.786,10.949,16.786H366.173a10.984,10.984,0,0,1,10.362,7.339l6.458,18.359h9.041l-6.459-18.359a10.983,10.983,0,0,0-10.361-7.339h23.735Z" fill="#c2c2c2"/><path d="M400.414,266.4h-17.42l-6.459-18.359a10.986,10.986,0,0,0-10.362-7.339H343.487a10.986,10.986,0,0,0-10.008,6.455L324.77,266.4H297.493l-6.459-18.359a10.984,10.984,0,0,0-10.361-7.339h7.394v-6.749H271.25V240.7h-3.273v-6.749H251.159V240.7h.8a10.986,10.986,0,0,0-10.008,6.455L233.242,266.4l-2.048-8.036-2.009,8.036H201.938a2.889,2.889,0,0,0,0,5.777H400.414a2.889,2.889,0,0,0,0-5.777m-134.87,0,2.65-4.771L262,264.471l.334-6.865-4.185,6.343-1.842-4.2V266.4H236.256l7.839-17.087a10.986,10.986,0,0,1,10.008-6.456h20.118a7.861,7.861,0,0,1,7.773,5.184l6.458,18.359Zm108.574,0-1.621-6.78-1.172,4.52-4.855-7.7.837,7.367-2.847-2.009-.669,2.343-2.511-4.353-.147,6.613H327.784l7.839-17.087a10.985,10.985,0,0,1,10.007-6.456h20.12a7.858,7.858,0,0,1,7.771,5.184L379.98,266.4Z" fill="#d2d2d2"/><polygon points="361.836 203.363 239.263 203.363 238.579 199.877 361.271 199.877 361.836 203.363" fill="#939393"/><polygon points="364.85 220.44 242.663 220.44 241.978 216.953 364.284 216.953 364.85 220.44" fill="#939393"/><path d="M244.714,231.111l-2.092-10.647-5.684,3.448-.025-.125,1.847,9.4a9.3,9.3,0,0,0,9.127,7.509v-6.774a3.507,3.507,0,0,1-3.173-2.813" fill="#d2d2d2"/><polygon points="235.547 184.444 230.117 189.189 232.892 203.316 238.525 199.883 239.21 203.37 233.574 206.788 236.256 220.439 241.938 216.978 235.547 184.444" fill="#d2d2d2"/><path d="M243.326,249.309l-7.84,17.088h9.81l7.84-17.088a10.984,10.984,0,0,1,10.007-6.456l-9.81-.769c-4.314,0-8.228,3.295-10.007,7.225" fill="#939393"/><path d="M294.048,248.037a10.984,10.984,0,0,0-10.363-7.339h-9.041a10.984,10.984,0,0,1,10.363,7.339l6.459,18.359h9.04Z" fill="#c2c2c2"/><path d="M335.622,249.309,327.784,266.4h9.04l7.839-17.088a10.987,10.987,0,0,1,10.008-6.456H345.63a10.988,10.988,0,0,0-10.008,6.456" fill="#939393"/><polygon points="325.987 211.746 325.896 211.489 310.038 206.481 309.268 209.84 325.987 211.746" fill="#021760"/><path d="M345.527,224.075l-16.663-4.147v0l-9.18-.367-8.439-1.113-2.36-6.932L305.4,226.7l35.613,8.162L334.032,255.1l7.934,3.014,8.782-25.4a6.89,6.89,0,0,0-5.221-8.633" fill="#021760"/><path d="M466.332,54.883a3.715,3.715,0,0,0-6.831-2.272Z" fill="#b2b2b2"/><path d="M231.868,77.914a5.679,5.679,0,0,0-11.006,0Z" fill="#b2b2b2"/><path d="M248.493,71.765v3.188a4.487,4.487,0,0,1-4.481,4.482h-6.083a3.186,3.186,0,0,0-2.844-1.764H217.644a3.186,3.186,0,0,0-2.844,1.764h-6.082a4.488,4.488,0,0,1-4.482-4.482V71.765h-1.587v3.188a6.076,6.076,0,0,0,6.069,6.068h5.742a3.193,3.193,0,0,0,3.184,3.049h8.1v11.9h1.234V84.07h8.1a3.192,3.192,0,0,0,3.184-3.049h5.743a6.075,6.075,0,0,0,6.068-6.068V71.765Z" fill="#737373"/><path d="M389.174,88.564a7.161,7.161,0,0,1-7.153,7.153h-9.688a5.1,5.1,0,0,0-4.558-2.814H339.941a5.1,5.1,0,0,0-4.558,2.814H325.7a7.161,7.161,0,0,1-7.153-7.153V83.476H316.01v5.088a9.7,9.7,0,0,0,9.685,9.685h9.152a5.1,5.1,0,0,0,5.094,4.865h12.932V122.1h1.97V103.114h12.932a5.1,5.1,0,0,0,5.094-4.865h9.152a9.7,9.7,0,0,0,9.686-9.685V83.476h-2.533Z" fill="#737373"/><path d="M330.15,85.8H304.4a2.322,2.322,0,0,1,0-4.643H330.15a2.322,2.322,0,0,1,0,4.643" fill="#fff"/><path d="M318.542,82.772V77.285a1.266,1.266,0,1,0-2.532,0v5.487Z" fill="#737373"/><path d="M403.314,85.8H377.566a2.322,2.322,0,1,1,0-4.643h25.748a2.322,2.322,0,1,1,0,4.643" fill="#fff"/><path d="M391.706,82.772V77.285a1.266,1.266,0,1,0-2.532,0v5.487Z" fill="#737373"/><path d="M477.921,54.5l-.658,1.978a2.937,2.937,0,0,1-3.708,1.857l-3.774-1.255a2.085,2.085,0,0,0-1.4-1.682l-10.825-3.6a2.081,2.081,0,0,0-2.129.508l-3.775-1.257a2.935,2.935,0,0,1-1.857-3.707l.658-1.979-.984-.327-.659,1.979a3.974,3.974,0,0,0,2.514,5.019l3.564,1.186a2.087,2.087,0,0,0,1.347,2.549l4.643,1.544-4.019,6.516.687.423,4.119-6.676,5.395,1.794a2.088,2.088,0,0,0,2.606-1.234l3.564,1.185a3.97,3.97,0,0,0,5.02-2.514l.657-1.978Z" fill="#737373"/><path d="M454.777,47.8l-10.236-3.4a.835.835,0,0,1-.529-1.055l.075-.223a.834.834,0,0,1,1.055-.527L455.378,46a.834.834,0,0,1,.528,1.055l-.074.222a.835.835,0,0,1-1.055.529" fill="#fff"/><path d="M450.542,45.088l.71-2.134a.519.519,0,1,0-.984-.328l-.71,2.134Z" fill="#737373"/><path d="M483.231,57.268,473,53.862a.833.833,0,0,1-.529-1.054l.075-.222a.833.833,0,0,1,1.055-.528l10.236,3.4a.834.834,0,0,1,.528,1.055l-.074.222a.835.835,0,0,1-1.055.529" fill="#fff"/><path d="M479,54.553l.71-2.134a.519.519,0,1,0-.984-.328l-.71,2.134Z" fill="#737373"/><path d="M464.393,52.962a.778.778,0,1,1-.493-.985.779.779,0,0,1,.493.985" fill="#fff"/><path d="M468.31,57.5a.421.421,0,1,1-.266-.532.421.421,0,0,1,.266.532" fill="#e6e6e6"/><path d="M455.488,64.526l.57-.553a.373.373,0,0,0,.079-.423l-1.209-2.609a.369.369,0,0,0-.373-.213l-.79.076a.374.374,0,0,1-.376-.215l-.285-.614a1.32,1.32,0,0,0-1.753-.644l-6.2,2.869,5.622,12.141,6.194-2.87a1.32,1.32,0,0,0,.645-1.753l-2.207-4.766a.378.378,0,0,1,.079-.426" fill="#edac28"/><rect x="453.784" y="65.243" width="3.709" height="2.653" transform="translate(159.728 419.38) rotate(-58.325)" fill="#737373"/><rect x="455.797" y="63.165" width="2.248" height="2.653" transform="translate(162.106 419.484) rotate(-58.325)" fill="#939393"/><path d="M413.2,49.4a9.12,9.12,0,0,0-3.157.56,23.009,23.009,0,1,0-45.26-7.828,14.085,14.085,0,0,0-22.28,10.959,7.778,7.778,0,1,0-3.758,14.588H413.2a9.14,9.14,0,0,0,0-18.279" fill="#f3f3f3"/><path d="M334.032,255.1l-2.637,6.529,2.124,3.2a7.443,7.443,0,0,0,6.2,3.33h7.746l-5.5-13.53Z" fill="#fff"/><path d="M331.4,261.625l2.877,4.336a4.906,4.906,0,0,0,4.088,2.193h5.592V266.4h-5.519a3.331,3.331,0,0,1-2.754-1.459l-3.524-5.192Z"/><path d="M341.966,269.912s23.353.124,23.229,0a4.981,4.981,0,0,1-.055-1.091,3.615,3.615,0,0,0-2.892-3.533l-5.372-1.1a2.946,2.946,0,0,1-1.466-.778l-2.567-2.5a5.455,5.455,0,0,0-4.387-1.518l-6.49.7a16.455,16.455,0,0,0-.22,8.973Z" fill="#fff"/><path d="M352.93,145.226l-.017.169-4.357-1.969-3.516,2.763-1.42,6.529-11.159,14.634L311.892,168.6l3.094,8.592,20.14-1.7a5.027,5.027,0,0,0,3.974-2.571l8.611-17.156,3.375-2.755a4.168,4.168,0,0,0,1.4-2.214l.876-3.506.863.243a1.226,1.226,0,0,0,1.421-.614l.355-.684Z" fill="#ab845f"/><path d="M228.128,76.062a1.19,1.19,0,1,1-1.19-1.19,1.191,1.191,0,0,1,1.19,1.19" fill="#fff"/><path d="M211.51,73.22H195.377a1.455,1.455,0,1,1,0-2.91H211.51a1.455,1.455,0,0,1,0,2.91" fill="#fff"/><path d="M204.236,71.324V67.885a.794.794,0,0,0-1.587,0v3.439Z" fill="#737373"/><path d="M257.354,73.22H241.22a1.455,1.455,0,1,1,0-2.91h16.134a1.455,1.455,0,0,1,0,2.91" fill="#fff"/><path d="M250.08,71.324V67.885a.794.794,0,0,0-1.587,0v3.439Z" fill="#737373"/><path d="M236,80.757a.643.643,0,1,1-.642-.643.643.643,0,0,1,.642.643" fill="#e6e6e6"/><path d="M226,98.307l-.4-1.146a.567.567,0,0,0-.536-.38h-4.4a.567.567,0,0,0-.536.38l-.4,1.146a.571.571,0,0,1-.54.383h-1.035a2.02,2.02,0,0,0-2.02,2.02v10.438h20.453V100.71a2.02,2.02,0,0,0-2.02-2.02h-8.028a.571.571,0,0,1-.54-.383" fill="#edac28"/><rect x="224.337" y="97.678" width="4.055" height="5.672" fill="#737373"/><rect x="224.337" y="95.062" width="4.055" height="3.437" fill="#939393"/><path d="M362.641,93.29a9.064,9.064,0,0,0-17.565,0Z" fill="#b2b2b2"/><path d="M356.672,90.335a1.9,1.9,0,1,1-1.9-1.9,1.9,1.9,0,0,1,1.9,1.9" fill="#fff"/><path d="M353.281,125.836l-.64-1.828a.906.906,0,0,0-.856-.608h-7.016a.907.907,0,0,0-.856.608l-.639,1.828a.915.915,0,0,1-.862.612h-1.651a3.224,3.224,0,0,0-3.224,3.223V146.33H370.18V129.671a3.224,3.224,0,0,0-3.225-3.223H354.143a.913.913,0,0,1-.862-.612" fill="#edac28"/><rect x="350.622" y="124.832" width="6.472" height="9.052" fill="#737373"/><rect x="350.622" y="120.658" width="6.472" height="5.485" fill="#939393"/><path d="M296.691,111.046a8.5,8.5,0,0,0-3.662.825,15.821,15.821,0,0,0-31.151-3.5,10.955,10.955,0,1,0-6.57,19.72h41.383a8.52,8.52,0,1,0,0-17.04" fill="#f3f3f3"/><path d="M340.489,230.45a13.037,13.037,0,0,0-8-7.5l-9.9-3.272,6.36.254-2.782-8.16-17.742-2.023-3.774-4.283-11.871,19.2.1.457a10.075,10.075,0,0,0,9.836,7.89h22.391l16.11,31.535c2.249-4.587,5.392-4.839,10.459-4.192l.245.031Z" fill="#09538f"/><path d="M287.965,181.534l7.218,16.558c1.385,3.176,1.587,4.516.539,7.817-1.907,6.01-4.493,16.11-2.563,21.9,8.017-18.254,35.809-7.958,35.809-7.958-.835-5.842-3.689-9.494-5.358-15.152-1.094-3.707-1.038-9.14-.231-10.349,2.482-3.724,3.339-5.631,2.146-9.944a121.461,121.461,0,0,1-6.239-10.984A10.082,10.082,0,0,0,311.8,167.9l-3.329-.517a11.962,11.962,0,0,0-4.892.015l-6.922,1.465c-6.569,1.391-9.618,6.019-8.694,12.67" fill="#eb4f5d"/><path d="M323.61,204.7c-1.093-3.707-1.038-9.14-.231-10.35a19.292,19.292,0,0,0,2.215-4c-1.918.226-10.312,1.063-15.294-.929-5.77-2.309-8.161-10.171-11.929-10.8s-4.52,7.156-4.52,7.156S300,200.1,306.031,203.991a26.975,26.975,0,0,1,13.837,9.232c-2.724-1.236-9.049-3.359-14.214.562,5.416-.2,12.329.007,14.715.093a29.013,29.013,0,0,1,2.678,4.313,50.64,50.64,0,0,1,5.92,1.662c-.834-5.841-3.687-9.494-5.357-15.15" fill="#e81123"/><path d="M319.986,174.8a14.457,14.457,0,0,0-.2-6.893c-1.843,0-4.465.274-6.173.474a9.911,9.911,0,0,0-1.813-.478l-3.329-.517a11.906,11.906,0,0,0-1.34-.191l-4.367,4.151c4.646,4.646,9.418,5.525,12.682,5.4a12.92,12.92,0,0,0,4.922-1.192c-.129-.246-.255-.5-.384-.753" fill="#e81123"/><path d="M338.391,189.8l-8.482-.461a1.252,1.252,0,0,1-1.19-1.42l1.886-15.729a1.468,1.468,0,0,1,1.514-1.274l8.482.461a1.254,1.254,0,0,1,1.191,1.421l-1.887,15.728a1.465,1.465,0,0,1-1.514,1.274" fill="#505050"/><path d="M337.054,173.83a1.093,1.093,0,0,1-1.131.951.934.934,0,0,1-.888-1.061,1.1,1.1,0,0,1,1.13-.951.935.935,0,0,1,.889,1.061"/><path d="M341.886,182.482l0-.1a1.25,1.25,0,0,0-1.4-1.213l-7.539,1.266a2.168,2.168,0,0,1-2.044-.927l-1.178-1.72a7.534,7.534,0,0,0-2.316,4.823l-.07.831-18.1,7.157-10.062-15.4s-7.469-1.555-9.958,3.89l15.1,19.012a3.459,3.459,0,0,0,4.189.976l20.436-9.661,3.119.15,4.373-.844a1.972,1.972,0,0,0,.4-.129l3-.811a1.006,1.006,0,0,0,.124-1.9l.322-.093a1,1,0,0,0,.008-1.929l.381-.11a1,1,0,0,0,.025-1.924l.486-.181a1.249,1.249,0,0,0,.705-1.153" fill="#bb9167"/><path d="M322.306,150.7s-.251,9.415-2.979,17.088c-.649-2.376-3.732-18.81-3.732-18.81Z"/><path d="M309.513,139.573a11.851,11.851,0,0,0-12.366,11.314L297,154.1a11.838,11.838,0,0,0,5.541,10.556l-1.452,4.722.67.817a8.629,8.629,0,0,0,6.243,3.137l3.047.149.1-5.067a7.565,7.565,0,0,1,.4-2.258,11.85,11.85,0,0,0,9.133-11l.142-3.21a11.851,11.851,0,0,0-11.315-12.366" fill="#bb9167"/><path d="M320.827,151.677l-1.244-.593a4,4,0,0,0-3.791.187l-.1.06a2.053,2.053,0,0,0-.746,2.732l1.27,2.358a1.165,1.165,0,0,1-1,1.716l-1.792.044.465,3.3a3.007,3.007,0,0,1-1.068,2.743l-3.333,2.223c-.387.021-.777.031-1.172.014-.038,0-.075-.009-.114-.011a8.964,8.964,0,0,0,.35,6.016l.386.906,2.113.1.1-5.067a7.613,7.613,0,0,1,.394-2.255,11.851,11.851,0,0,0,9.135-11.008l.142-3.21c0-.088,0-.174,0-.262" fill="#ab845f"/><path d="M308.961,153.08a1.047,1.047,0,1,1-1-1.092,1.046,1.046,0,0,1,1,1.092"/><path d="M319,153.526a1.047,1.047,0,1,1-1-1.092,1.046,1.046,0,0,1,1,1.092"/><path d="M310.069,160.21l5.854.26-.56.673a1.1,1.1,0,0,1-.89.394l-1.806-.08a3.082,3.082,0,0,1-1.657-.574Z" fill="#d83b01"/><polygon points="310.069 160.21 313.226 159.407 313.763 160.029 314.603 159.531 315.923 160.47 313.64 160.683 310.069 160.21" fill="#ba3615"/><path d="M310.259,138.935c-12.667-1.568-13.625,8.7-13.777,12.125s-.467,8.609,3.9,12.072a36.989,36.989,0,0,0,1.472-3.916s1.719,5.167,3.157,6.74a71.8,71.8,0,0,1,1.114-17.066,17.33,17.33,0,0,0,2.321.83l1-3.049.18,3.352c.1.023.2.048.3.069l1.076-1.655-.129,1.841a47.6,47.6,0,0,0,11.423.42s.621-10.2-12.046-11.763"/><path d="M301.379,150.209l-.391,4.57a1.816,1.816,0,0,1-1.727-2.15c.164-1.562.5-2.806,2.118-2.42" fill="#bb9167"/><rect x="297.893" y="158.306" width="5.085" height="0.816" transform="translate(128.571 451.825) rotate(-87.461)" fill="#fff"/><path d="M309.942,151.77a.5.5,0,0,1-.343-.136,2.624,2.624,0,0,0-3.425-.152.5.5,0,0,1-.618-.791,3.608,3.608,0,0,1,4.729.21.5.5,0,0,1-.343.869"/><path d="M319.852,152.209a.5.5,0,0,1-.343-.135,2.624,2.624,0,0,0-3.425-.152.5.5,0,1,1-.618-.791,3.609,3.609,0,0,1,4.729.209.5.5,0,0,1-.343.869"/><path d="M325.56,233.005l-3.541-6.036s-6.361.67-7.868,6.027c5.358,0,11.409.009,11.409.009" fill="#021760"/><path d="M317.751,219.268l-8.873-.5s4.185-4.018,8.873.5" fill="#021760"/><path d="M345.574,144.793a1.6,1.6,0,0,1,.789-.94l4.129-2.133a1.007,1.007,0,0,1,1.15,1.644l-3.421,1.926,1.381,2.385-4.834-.314Z" fill="#ab845f"/><polygon points="341.966 269.912 342.383 272.172 365.196 272.172 365.196 269.912 341.966 269.912"/><path d="M369.235,97.828A1.026,1.026,0,1,1,368.21,96.8a1.025,1.025,0,0,1,1.025,1.027" fill="#e6e6e6"/></svg>