<svg xmlns="http://www.w3.org/2000/svg" viewBox="0 0 300 300"><title>MSC17-business-010</title><path d="M300,0V300H0V0Z" fill="#40cdf5"/><path d="M177.807,102.444l-.187-.817a1.192,1.192,0,0,0-1.162-.927l-.148-.223a1.2,1.2,0,0,0-1.515-.423,1.618,1.618,0,0,0-2.09-.562l-.459.009-.164-2.252-.181-2.47a.7.7,0,0,0-1.405.022l-.1,2.479-.114,2.774h-.314a1.112,1.112,0,0,0-.983.591A4.61,4.61,0,0,0,169,105l1.695,3.141.88,3.354,5.066-.933-.958-2.667a3.168,3.168,0,0,0,1.647-1.547l.052-.108a5.768,5.768,0,0,0,.43-3.8" fill="#8e562e"/><polygon points="145.888 133.503 154.584 134.307 154.874 136.928 145.386 137.147 145.888 133.503" fill="#737373"/><path d="M161.2,127.1a1.121,1.121,0,1,1-1.121-1.12,1.121,1.121,0,0,1,1.121,1.12" fill="#e6e6e6"/><path d="M150.7,111.086h-1.149a8.705,8.705,0,0,0-8.68,8.679v5.524a8.7,8.7,0,0,0,5.842,8.189l-.133,3.387-4.712,1.812,7.611,15.948,6.379-16.481-1.8-3.382.125-1.535a8.7,8.7,0,0,0,5.195-7.938v-5.524a8.7,8.7,0,0,0-8.679-8.679" fill="#8e562e"/><path d="M160.313,120.138a1.211,1.211,0,0,0-1.211,1.211v1.4a10.08,10.08,0,0,0-3.68-2.356s-1.71.354-2.325.561l-.315.105a1.375,1.375,0,0,0-.935,1.373l.178,3.447c.034.654-.362.761-.925.759a.6.6,0,0,0-.591.722l.415,2.131-.523.578a4.019,4.019,0,0,0-.855,3.9,8.536,8.536,0,0,1-2.838-.5l-.06,1.539a8.9,8.9,0,0,0,5.871,6.494,16.435,16.435,0,0,0,2.284-5.333l-.749-1.408.125-1.538a8.71,8.71,0,0,0,5.186-7.758h.071a2.089,2.089,0,0,0,2.088-2.089v-2.029a1.211,1.211,0,0,0-1.211-1.211" fill="#704322"/><path d="M145.381,122.8a.892.892,0,1,1-.891-.892.891.891,0,0,1,.891.892"/><path d="M156.415,122.8a.892.892,0,1,1-.892-.892.892.892,0,0,1,.892.892"/><path d="M146.845,127.972a3.538,3.538,0,0,0,6.466,0Z" fill="#fff"/><path d="M139.928,120.138h0a1.212,1.212,0,0,0-1.212,1.211v2.029a2.089,2.089,0,0,0,2.088,2.089h.334v-4.118a1.211,1.211,0,0,0-1.21-1.211" fill="#8e562e"/><path d="M142.348,121.9a.435.435,0,0,1-.333-.715,3.826,3.826,0,0,1,4.93-.585.434.434,0,1,1-.443.747,2.923,2.923,0,0,0-3.824.4.433.433,0,0,1-.33.151"/><path d="M157.61,121.9a.433.433,0,0,1-.331-.153,2.925,2.925,0,0,0-3.823-.4.434.434,0,1,1-.444-.747,3.823,3.823,0,0,1,4.93.585.435.435,0,0,1-.332.716"/><path d="M150.12,106.346A11.022,11.022,0,0,0,139.1,117.368v1.579a5.135,5.135,0,0,0,1.767,3.877v-3.059a8.616,8.616,0,0,1,1.741-5.182,10.81,10.81,0,0,0,15.022,0,8.61,8.61,0,0,1,1.745,5.187v3.059a5.132,5.132,0,0,0,1.768-3.877v-1.579a11.022,11.022,0,0,0-11.022-11.022"/><path d="M141.209,127.1a1.121,1.121,0,1,1-1.121-1.12,1.121,1.121,0,0,1,1.121,1.12" fill="#e6e6e6"/><path d="M212.418,273.671H124a2.026,2.026,0,1,1,0-4.052h88.422a2.026,2.026,0,1,1,0,4.052" fill="#1db0e0"/><path d="M170.572,93.756,154.988,70.547a.75.75,0,0,1,.2-1.041l14.882-9.993a.752.752,0,0,1,1.042.205L186.7,82.927a.75.75,0,0,1-.2,1.041l-14.882,9.993a.751.751,0,0,1-1.041-.2" fill="#e6e6e6"/><path d="M160.384,66.019l9.792-6.574a.628.628,0,0,1,.871.171l6.6,9.829Z" fill="#f3f3f3"/><rect x="162.727" y="63.605" width="16.233" height="26.263" transform="translate(-13.769 108.265) rotate(-33.88)" fill="#1070c4"/><polygon points="170.261 61.31 162.561 66.481 175.432 69.01 170.261 61.31" fill="#459bdd"/><path d="M177.688,268.326a10.541,10.541,0,0,1-3.984-4.569l-.669-1.474-.647-1.444.448-.012-2.389-36.281-6.038-6.064L160.824,231.2l7.154,29.748.871,5.4,6.451,5,2.347.651,4.612-.8Z" fill="#8e562e"/><polygon points="170.447 224.546 160.824 231.201 158.878 223.335 168.544 220.237 170.447 224.546" fill="#704322"/><path d="M147.32,220.176h-9.568l-2.566,4.487,5.373,36.164h.736l-.788,4.58-.391.919a8.724,8.724,0,0,1-2.134,3.018l-1.685,1.545,2.4,1.351,4.35-.653,3.642-5.872-.38-4.888Z" fill="#8e562e"/><path d="M167.907,260.827l-.782,2.516a6.963,6.963,0,0,0-.077,3.861l1.728,6.467h1.16v-4.784l5.893,4.08a3.876,3.876,0,0,0,2.229.7h6.882s-1.745-3.189-4-3.189h-5.043a2.513,2.513,0,0,1-1.573-.553l-4.216-3.372a.392.392,0,0,1-.144-.35,4.777,4.777,0,0,1,3.074-3.924l-.2-1.456Z"/><path d="M146.306,260.827l.958,4.172a3.585,3.585,0,0,1-.207,2.234,7.652,7.652,0,0,0-.619,2.564l-.242,3.811h-1.087l.1-4.053-1.293,2.235a3.772,3.772,0,0,1-3.263,1.881h-5.775a1.5,1.5,0,0,1,.349-1.768l1.1-.987h5.681a1.769,1.769,0,0,0,1.543-.9l2.085-3.714a1.448,1.448,0,0,0,.03-1.365l-1.01-2a1.6,1.6,0,0,0-2.835-.023l-1.315,2.5.053-4.58Z"/><path d="M137.054,172.248l-3.35,8.013a40.129,40.129,0,0,0-2.509,22.382l3.825,21.925h35.465l-1.164-17.45a93.221,93.221,0,0,0-6.156-27.64l-2.819-7.23Z" fill="#505050"/><path d="M183.543,126.218l-6.907-15.657-5.065.933,3.491,13.972-14.277,11.089-1.6-1.284-3.035.724-.617-1.34c-.254-.551-.345-.309-.95-.348l-2.947,6.247-2.78,7.619-1.116-7.619-1.854-7.051a.834.834,0,0,0-.673.364l-1.273,1.871-2.079-1.047-4.063.334-1.866,1.623a3.122,3.122,0,0,0-2.636.888l-14.865,14.956a4.339,4.339,0,0,0,.537,6.763l9.352,8.538,3.058-3.635-5.512-8.782,8.054-4.908,3.132,21.78h23.292l6.176-25.63a7.462,7.462,0,0,1,2.62-4.1l13.125-10.41a5.118,5.118,0,0,0,1.276-5.886" fill="#939393"/><path d="M141.108,137.147l-2.392,6.813s5.147-2.608,2.392-6.813" fill="#737373"/><path d="M165.711,145.2l2.465-11.815s-4.712,5.146-2.465,11.815" fill="#737373"/><path d="M175.062,125.466l4.639-.561-.04-.035a3.074,3.074,0,0,0-4.6.6" fill="#737373"/><path d="M148.6,149.622a.725.725,0,1,1-.724-.724.724.724,0,0,1,.724.724" fill="#737373"/><path d="M149.329,158.538a.725.725,0,1,1-.724-.724.724.724,0,0,1,.724.724" fill="#737373"/><path d="M149.583,166.657a.725.725,0,1,1-.725-.724.725.725,0,0,1,.725.724" fill="#737373"/><path d="M154.054,172.021l2.293-6.089s2.214,3.769-2.293,6.089" fill="#737373"/><path d="M139.256,170.061l-.209-.032v0l.443-.075a.759.759,0,0,0,.071-1.482l-.514-.139v-.055l.231,0a.679.679,0,0,0,.061-1.353l-1.772-.2.01-.547a1.065,1.065,0,0,0-1.079-1.083l-4.535.054-.789-.812-2.487,3.027,1.141,1.17,3.659,4.594a1.779,1.779,0,0,0,1.712.642l3.045-.558a.978.978,0,0,0,.8-.962v-.455l.134-.009a.866.866,0,0,0,.075-1.719" fill="#8e562e"/><path d="M133.922,150.469l-.907-6.056s-3.431,3.718-1.9,7.765l2.8-1.709" fill="#737373"/><path d="M173.118,105.491l-.194-.76a2.311,2.311,0,0,0-1.419-1.59l-.983-.372.363-.435,1.779-.29.43-1.09.016,1.371a.957.957,0,0,0,.72.916l3.116.8-1.959,2.068Z" fill="#704322"/></svg>