<svg xmlns="http://www.w3.org/2000/svg" viewBox="0 0 300 300"><title>MSC17-cloud-001</title><path d="M300,0V300H0V0Z" fill="#409ae1"/><path d="M92.036,206.236a10.426,10.426,0,0,0-4.493,1.012,19.41,19.41,0,0,0-38.216-4.3,13.44,13.44,0,1,0-8.062,24.193H92.036a10.453,10.453,0,1,0,0-20.9" fill="#fff"/><path d="M260.978,191a12.057,12.057,0,0,0-4.182.743,30.476,30.476,0,1,0-59.949-10.37,18.656,18.656,0,0,0-29.512,14.517,10.3,10.3,0,1,0-4.979,19.322h98.622a12.106,12.106,0,0,0,0-24.212" fill="#fff"/><path d="M216.478,130.516a4.812,4.812,0,0,0-2.325.6,17.895,17.895,0,1,0-33.466-8.818c0,.577.03,1.147.083,1.71a8.375,8.375,0,1,0-3.025,16.185h38.733a4.837,4.837,0,1,0,0-9.673" fill="#1070c4"/><polygon points="107.048 178.149 103.611 179.028 102.75 172.677 106.187 171.799 107.048 178.149" fill="#fff"/><path d="M102.037,192.476l1.042-.6a2.123,2.123,0,0,0,1.068-1.83l.054-7.786,2.555-3.587-2.17-1.01-1.836-4.989-6.074,1.332-1.387.292,1.624,5.546,1.4-.194Z" fill="#704322"/><polygon points="185.65 162.061 187.857 165.186 181.789 168.496 179.582 165.37 185.65 162.061" fill="#fff"/><path d="M98.721,106.881l2.905,4.157.57-.394a1.152,1.152,0,0,0,.315-1.566L101,106.71l4.1-2.734-3.646-1.424-1.993,1.709Z" fill="#b48f75"/><path d="M187.936,95.525l-5.614-.829a1.249,1.249,0,0,1-1.053-1.417l1.855-12.56a1.25,1.25,0,0,1,1.419-1.052l5.614.829a1.249,1.249,0,0,1,1.053,1.418l-1.855,12.558a1.249,1.249,0,0,1-1.419,1.053"/><rect x="180.559" y="83.882" width="11.458" height="6.768" transform="translate(72.732 258.799) rotate(-81.596)" fill="#edac28"/><path d="M185.912,90.14a.733.733,0,0,0-.849-.522l-2.871.574-.482.1.769-5.2-.166-.014a2.766,2.766,0,0,0-2.4,1.047l-4.345,5.522,3.18,3.948,1.086-1.024,1.257-.218a3.12,3.12,0,0,0,1.156-.451,1.791,1.791,0,0,0,.718-1l.342-1.135,2.14-.741a.732.732,0,0,0,.465-.886" fill="#d8b094"/><path d="M181.9,89.016a3.54,3.54,0,0,0-2.712,1.786l-.018.028,2.541-.536Z" fill="#b48f75"/><path d="M175.081,90.592l-.278-.1-8.918,10.066-16.058-.429-1.941,6.525-2.471-.335-7.968,31.012s12.656-2.666,16.21-1.195a62.324,62.324,0,0,0-.314-26.24l12.56-1.01a5.738,5.738,0,0,0,3.7-1.769L180.5,95.41a9.758,9.758,0,0,0-5.421-4.818"/><path d="M150.685,106.993c.042-.195-.2-.54-.2-.54a3.288,3.288,0,0,0-.529.414c-6.653-1.367-6.994-7.167-6.994-7.167s-3.493,4.78-3.616,4.965a16.481,16.481,0,0,0,3.543,4.868L132.36,135.86l10.235,2.452,2-4.486a60.747,60.747,0,0,0,5.255-23.726l.027-1.644c.308-.58.6-1.112.809-1.463" fill="#fff"/><path d="M139.408,149.037s-.019.168-.065.481a76.025,76.025,0,0,1-7.412,23.176c-9.561,2.329-25.778,5.868-25.778,5.868s-1.717-3.922-1.349-6.864c8.089-3.064,17.2-6.971,17.2-6.971s.49-10.787-1.472-19a65.58,65.58,0,0,1,19.858-.491Z"/><path d="M118.693,136.289l.631,7.412a9.72,9.72,0,0,0,10.693,8.843l26.307-3.016c9.928,5.27,20.96,18.876,20.96,18.876s7.232-4.045,8.7-6.5c-5.27-6.987-23.15-21.988-23.15-21.988a4.224,4.224,0,0,0-2.955-1.16l-16.491.042-.122-2.022-19.305-4.965Z" fill="#021760"/><path d="M152.984,80.624c-5.378-.035-10.171,4.66-11.391,9.9-.548,2.358.138,5.865,1.783,8.9l-3.232,5.916,3.948,4.614a2.716,2.716,0,0,0,4.6-.8l.366-.967a3.4,3.4,0,0,1,2.678-2.154l1.768-.26-.007-.027a10.406,10.406,0,0,0,9.737-7.529,34.7,34.7,0,0,0,.8-3.757c1.029-8.468-4.129-13.787-11.055-13.831" fill="#d8b094"/><path d="M164.039,94.455c.066-.537.105-1.061.121-1.573a5.342,5.342,0,0,0-5.012-.874,1.111,1.111,0,0,0-.643,1.533l1.4,2.939a1.107,1.107,0,0,1-1.128,1.575l-1.248-.147a.791.791,0,0,0-.877.69l-.474,3.9a2.818,2.818,0,0,1-2.426,2.9l-1.683.235c.241.028.522.057.883.086a10.364,10.364,0,0,0,10.287-7.512,34.7,34.7,0,0,0,.8-3.757" fill="#b48f75"/><path d="M153.182,93.173a1.042,1.042,0,1,1-.914-1.155,1.042,1.042,0,0,1,.914,1.155"/><path d="M162.8,94.3a1.042,1.042,0,1,1-.913-1.155A1.042,1.042,0,0,1,162.8,94.3"/><path d="M159.038,79.07l-2.706-1.757-.52,1.3a13.851,13.851,0,0,0-8.2-2.193,7.861,7.861,0,0,1,.755,3.05s-3.979.59-6.176,5.38l1.781,1.945,6.491,1.026a2.211,2.211,0,0,0,.257-1.952l-.148-.432a2.17,2.17,0,0,1,1.45-2.787s2.2-.783,3.115.164l1.281,1.112a5.158,5.158,0,0,0,5.37.86,11.016,11.016,0,0,1,1.684,3.177c.349-1.009,1.337-5.177-4.435-8.89"/><path d="M142.191,84.846a17.653,17.653,0,0,0-1.417,7.244c.106,4.888,2.215,5.481,2.215,5.481l.353-.416a7.305,7.305,0,0,0,3.079-3.021l1.468.239,1.275-6.12h0l.143-.111c.423-.172.918.031,1.155-.323.026-.04.042-.085.065-.126-3.08-2.426-7.4-2.794-8.338-2.846m2.674,8.954a2.27,2.27,0,0,1-1.926-2.622l.168-1.309a2,2,0,0,1,3.979.189l-.7,3.955Z" fill="#737373"/><path d="M154.133,91.219a.363.363,0,0,1-.216-.071,3.3,3.3,0,0,0-3.126-.422l-.625.238a.367.367,0,1,1-.261-.687l.624-.238a4.033,4.033,0,0,1,3.822.516.367.367,0,0,1-.218.664"/><path d="M163.934,93.15a.369.369,0,0,1-.254-.1,3.3,3.3,0,0,0-3.044-.824l-.651.155a.368.368,0,1,1-.169-.716l.65-.154a4.031,4.031,0,0,1,3.721,1.007.368.368,0,0,1-.253.634"/><path d="M153.5,99.431l.118-.255a13.019,13.019,0,0,0,3.245.92,14.627,14.627,0,0,0,2.633-.08l-.059.424c-.29.834-1.732.954-2.934.858-.9-.072-2.764-.841-3-1.867" fill="#fff"/><path d="M144.71,111.929c-.146-4.525-.9-9.161-2.492-11.209l.745-1.02.055.4.416-.661-.33-.713a15.272,15.272,0,0,0-3.405.734c-.025-.01-.047-.027-.073-.037l-14.9-6.536a5.922,5.922,0,0,0-4.931.08l-13.242,6.431,3.708,6.589,11.859-4.69,8.7,4.458a43.621,43.621,0,0,0-10.783,18.4,29.29,29.29,0,0,1-6.987,11.645s5.76,13.177,20.592,3.984c0,0,4.707-9.508,9.063-17.839a18.226,18.226,0,0,0,2-10.015"/><path d="M143.484,111.866l-2.761,1.231a8.161,8.161,0,0,1-7.052-.279l-9.323-4.936,1.231-5.332,7.381,2.529,4.648,4.99,8.878-1.023,1.1-1.623,1.44.306-.674,1.226a39.818,39.818,0,0,1-4.872,2.911" fill="#ba3615"/><path d="M147.451,105.968l-.888,2.392-8.955,1.709.973.945a4.463,4.463,0,0,0,4.883.9l5.2-2.246a1.18,1.18,0,0,0,.656-.726l.657-2.085a15.429,15.429,0,0,1-2.345-.78Z" fill="#df6c47"/><path d="M143.392,138.8h-7.477s2.022-2.115,7.354-2.022c.093,1.379.123,2.022.123,2.022"/><path d="M157.243,149.007l8.182-.184s-5.057-3.862-8.182.184"/><path d="M112.193,106.432l-1.219-1.168.062-.755a4.364,4.364,0,0,0-2.79-4.438l-.811-.31-7.973.342-2.506,5.7.8,3.987.875-.206a1.417,1.417,0,0,0,1.093-1.338l.082-2.784,1.823,4.556.67-.168a1.233,1.233,0,0,0,.907-1.45l-.667-3.166.912-1.367,2.631,1.316a5.374,5.374,0,0,0,2.11.543,1.343,1.343,0,0,0,.12.568l.014.028a2.138,2.138,0,0,0,.957,1l1.624.845a1.088,1.088,0,0,0,1.288-1.732" fill="#d8b094"/><path d="M202.014,161.6l-1-.82a2.292,2.292,0,0,0-2.255-.373l-7.867,2.94-4.6-1.2-.184,2.574-4.32,3.769,3.677,5.607.827,1.288,4.966-3.769-.736-1.339Z" fill="#704322"/><path d="M88.228,182.2a1.494,1.494,0,1,1-1.493-1.494,1.494,1.494,0,0,1,1.493,1.494" fill="#fff"/><path d="M88.086,197.51a1.205,1.205,0,0,1-.189.033,1.364,1.364,0,0,1-1.5-1.215,8.155,8.155,0,0,1,1.763-5.661,8.772,8.772,0,0,1,6.442-2.846,1.365,1.365,0,0,1,.174,2.725,6.187,6.187,0,0,0-4.53,1.883,5.418,5.418,0,0,0-1.134,3.614,1.364,1.364,0,0,1-1.026,1.467" fill="#fff"/><path d="M191.9,194.789a1.858,1.858,0,0,1-1.664-2.678,21.12,21.12,0,0,1,19.785-11.753,1.857,1.857,0,0,1-.153,3.71,17.411,17.411,0,0,0-16.3,9.684,1.857,1.857,0,0,1-1.667,1.037" fill="#e6e6e6"/></svg>