<svg xmlns="http://www.w3.org/2000/svg" viewBox="0 0 300 300"><title>MSC17-business-006</title><path d="M300,0V300H0V0Z" fill="#0078d7"/><path d="M167.111,278.043H129.628a1.215,1.215,0,0,1,0-2.429h37.483a1.215,1.215,0,0,1,0,2.429" fill="#09538f"/><path d="M134.539,278.043h-3.783l-.02-.185a1.3,1.3,0,0,1,.479-1.155l1.656-1.333,3.734-5.7h2.411l.229.576a5.264,5.264,0,0,1,.358,1.569c0,.08.011.158.015.234a1.119,1.119,0,0,1-.385.9,2.981,2.981,0,0,0-1.072,2.032l-.146,2.262h-.769l-.144-3.112a9.187,9.187,0,0,0-1.477,3.069,1.1,1.1,0,0,1-1.086.842"/><path d="M141.839,242.107l-6.58,26.96c-.054.219-.1.4-.137.584l-.012.015a17.086,17.086,0,0,0-1.862,4.666l-.038.162a3.523,3.523,0,0,1-.916,1.321s-.731.805-.345.805h1.024a2.272,2.272,0,0,0,2.108-1.421l.562-1.386a5.711,5.711,0,0,1,1.134-1.769l2.24-2.378,11.021-26.535Z" fill="#b48f75"/><path d="M199.31,71.267A49.31,49.31,0,1,1,150,21.957a49.311,49.311,0,0,1,49.31,49.31" fill="#1070c4"/><path d="M190.338,68.575H180.179a30.3,30.3,0,1,0,0,5.385h10.159a2.693,2.693,0,0,0,0-5.385" fill="#459bdd"/><path d="M170.881,71.661A20.881,20.881,0,1,0,135.5,86.681a19.148,19.148,0,0,1,5.724,13.808v.377h17.552v-.376a19.892,19.892,0,0,1,5.974-14.054,20.806,20.806,0,0,0,6.131-14.775" fill="#fec94e"/><path d="M147.262,76.093l-.055-1.635h0l-.129-3.762a4,4,0,0,0-8,0v.168a3.988,3.988,0,0,0,2.464,3.694l.1.044a21.567,21.567,0,0,0,4,1.223l1.035,30.224,1.614-.055-1.025-29.9Zm-5-2.981-.1-.044a2.381,2.381,0,0,1-1.471-2.2V70.7a2.388,2.388,0,1,1,4.775.029l.118,3.438a20.026,20.026,0,0,1-3.317-1.051" fill="#fff100"/><path d="M156.994,66.695h-.067a4,4,0,0,0-4,3.974l-.13,3.8a20.592,20.592,0,0,1-4.425.114l.078,1.621a22.227,22.227,0,0,0,4.292-.1l-1.025,29.889,1.613.055,1.035-30.2.057-1.661.12-3.488a2.39,2.39,0,0,1,2.387-2.387h.067a2.39,2.39,0,0,1,2.387,2.387v.179a2.381,2.381,0,0,1-1.46,2.2,19.732,19.732,0,0,1-2.138.755l-.072,1.7a21.486,21.486,0,0,0,2.837-.963A3.993,3.993,0,0,0,161,70.875V70.7a4.005,4.005,0,0,0-4-4" fill="#fff100"/><path d="M141.224,100.489v9.948a2.615,2.615,0,0,0,2.615,2.615h3.588v2.289h5.348v-2.289h3.588a2.615,2.615,0,0,0,2.615-2.615v-9.948Z" fill="#021760"/><rect x="141.224" y="103.314" width="13.988" height="1.991" fill="#09538f"/><rect x="141.224" y="107.752" width="13.988" height="1.992" fill="#09538f"/><path d="M180.906,169.228c-3.287-4.949-11.056-8.008-19.281-11.246-11.893-4.684-25.374-9.993-26.533-22.075-1.7-17.715,19.747-29.692,19.964-29.81a.685.685,0,0,0,.2-.172h4.333a.683.683,0,1,0,0-1.366H140.9a.683.683,0,0,0,0,1.366h11.817c-5.179,3.327-20.478,14.544-18.984,30.113,1.24,12.915,15.134,18.387,27.393,23.214,8.019,3.158,15.594,6.141,18.643,10.731,1.58,2.379,1.974,4.706,1.139,6.729-1,2.42-3.765,4.362-7.221,5.07a.683.683,0,0,0,.136,1.352.716.716,0,0,0,.137-.014c3.955-.81,7.024-3.011,8.211-5.888.708-1.717,1.064-4.5-1.264-8" fill="#459bdd"/><path d="M112.006,111.953a2.693,2.693,0,0,1-1.9-4.6l7.587-7.587a2.692,2.692,0,1,1,3.807,3.808l-7.587,7.588a2.684,2.684,0,0,1-1.9.788" fill="#459bdd"/><path d="M167.575,171.867,166.48,167.6l.993-5.113a.982.982,0,0,0-.071-.593l-.979-2.148-2.433-1.452-.035.128a1.276,1.276,0,0,0-.009.589l-.9-.119.013.165a1.385,1.385,0,0,0,.979,1.22l.5.152-.043,1.238.093,1.053-.857.681a4.131,4.131,0,0,0-1.263-.525l-.064-.015-.128-1.792.489-.508a1.121,1.121,0,0,0,.278-.548l-.951-.376-.926.877-.228,3.453a1.418,1.418,0,0,0,.187.8l1.7,2.97.513,3.913Z" fill="#f6caa7"/><path d="M162.7,275.258a8.11,8.11,0,0,1-2.309-3.857l-.312-1.181V242.562l-6.257,9.836,2.5,17.822h.015l-.157,1.308,4.639,5.264h3.527Z" fill="#b48f75"/><path d="M160.077,244.9a10.661,10.661,0,0,1-6.256,7.5l-1.03-7.35Z" fill="#917861"/><path d="M142.544,216.043l-.155.489c-4.627,3.085-2.62,31.658-2.62,31.658A38.407,38.407,0,0,0,160.9,244.5c.89-4.1.624-24.7.624-24.7l-5.642-6.6Z" fill="#021760"/><path d="M141.531,180.076c.572,3.539.476,6.773-.817,7.854s-3.8,4.984-2.121,7.9,21.484-7.615,21.484-7.615a6.973,6.973,0,0,1-4.951-5.577c-.739-4.553-.853-3.6-.853-3.6Z" fill="#4f3e33"/><path d="M170.657,180.5l-3.85-13.072-4.567,1.877,1.956,11.23-6.4,5.288-3.031.6-.735,1.541-12.051,1.168-5.238,2.066a2.278,2.278,0,0,0-1.138.983l-7.739,13.462a3.908,3.908,0,0,0,.718,4.8l8.086,7.563s1.85-.171,2.989-3.243c0-.043-5.7-7.347-5.7-7.347l4.92-3.809a72.937,72.937,0,0,0,3.1,7.769c-1.786,3.344-2.792,13.032-2.792,13.032s8.109,2.391,12.719-4.353c3.415,2.134,10.841.729,10.841.729s-2.789-7.631-2.675-11.179a55.806,55.806,0,0,1,1.367-8.368,8.524,8.524,0,0,0-.514-5.27L160,193.833l1.7-1.212a25.667,25.667,0,0,0,5.759-5.679L170.4,182.3a2.2,2.2,0,0,0,.253-1.8"/><path d="M144.248,190.491s5.018,6.488,6.27,10.7a33.794,33.794,0,0,1,.966,9.617s3.432-3.756,3.481-8.138a37.764,37.764,0,0,0-1.5-9.5l1.5-3.131-2.247-1.725-8.8,1.5Z" fill="#f5f5f5"/><polygon points="153.134 190.718 153.675 189.637 152.537 188.926 152.764 190.576 153.134 190.718" fill="#d2d2d2"/><path d="M156.758,179.992l-.479-3.732a6.98,6.98,0,0,0-7.79-6.019l-.429.055a6.983,6.983,0,0,0-6.02,7.791l.48,3.732a6.956,6.956,0,0,0,3.586,5.218l-.265,3.413,2.8,1.039,2.646,5.318,1.849-6.089-.284-1.081-.131-1.327a1.6,1.6,0,0,1,.78-1.511,6.979,6.979,0,0,0,3.259-6.807" fill="#f6caa7"/><path d="M156.758,179.992l-.479-3.732a6.984,6.984,0,0,0-5.56-5.937l-1.085,1.388,1.344,1.161a4.013,4.013,0,0,1,1.389,3.035v.409a1.57,1.57,0,0,0,.905,1.423l1.475.69a.681.681,0,0,1,.074,1.193s-.681.4-.7.609a1.905,1.905,0,0,0,.292.705,2.323,2.323,0,0,1,.384,1.292l-1.323.268.017.4a.923.923,0,0,0,1.258.819l.545-.213c.023-.006.045,0,.068-.008l1.026-.42.08-.032a6.888,6.888,0,0,0,.294-3.047" fill="#f8d5b9"/><path d="M156.122,183.861l-1.085.824a3.97,3.97,0,0,1-3.464.663l-3.032-.871a.244.244,0,0,0-.256.389L149.3,186.1a4.883,4.883,0,0,1,1.109,2.832l.309,6.743.564,1.134,1.85-6.089-.285-1.081-.132-1.327a1.6,1.6,0,0,1,.781-1.511,7.041,7.041,0,0,0,2.623-2.917Z" fill="#deb695"/><path d="M150.27,177.807a.721.721,0,1,1-.721-.721.721.721,0,0,1,.721.721" fill="#1070c4"/><path d="M155.516,176.856a.721.721,0,1,1-.72-.721.72.72,0,0,1,.72.721" fill="#1070c4"/><path d="M151.469,182.1l1.627.338a2.723,2.723,0,0,0,1.309-.047l.644-.186a.619.619,0,0,0,.447-.623l-.022-.459-1.671.394-2.26.523" fill="#df6c47"/><path d="M151.469,182.1l1.788-.956a.862.862,0,0,1,.692-.131l.406.1.263-.2a.479.479,0,0,1,.6.012l.26.2-.375.248a2.465,2.465,0,0,1-1.015.38Z" fill="#d83b01"/><path d="M147.65,177.342a.273.273,0,0,1-.1-.02.256.256,0,0,1-.137-.334,2.337,2.337,0,0,1,2.934-1.27.256.256,0,1,1-.156.487,1.81,1.81,0,0,0-2.305.98.258.258,0,0,1-.237.157" fill="#4f3e33"/><path d="M156.216,176.011a.255.255,0,0,1-.185-.079,1.808,1.808,0,0,0-2.494-.229.257.257,0,0,1-.323-.4,2.333,2.333,0,0,1,3.186.273.256.256,0,0,1-.184.434" fill="#4f3e33"/><path d="M151.171,181.186l-.291,1.317s-.642-1,.291-1.317" fill="#deb695"/><polygon points="148.639 191.49 146.965 194.147 150.434 195.098 148.639 191.49" fill="#d2d2d2"/><path d="M155.619,277.8l-.553,0s.151-2.063.11-2.98a11.187,11.187,0,0,0-.369-1.974,3.729,3.729,0,0,1,1.072-3.2.3.3,0,0,1,.437.024l3.844,4.713a6.072,6.072,0,0,0,4.461,2.2,1.652,1.652,0,0,1,1.492,1.128c.059.188.075.325,0,.331l-4.635-.006a2.127,2.127,0,0,1-1.988-1.024l-1.056-1.762a2.954,2.954,0,0,0-1.539-1.264l-.827-.282a18.387,18.387,0,0,1-.4,3.885Z"/><polygon points="154.965 190.035 155.069 193.4 153.682 192.611 154.965 190.035" fill="#d2d2d2"/><path d="M147.316,216.265l-3.166-.959a.834.834,0,0,0-.394-.023s-3.53.487-4.255.424l-.165-.178a6.22,6.22,0,0,1-.832,1.3,16.49,16.49,0,0,1-1.315,1.02l.712.821a2.822,2.822,0,0,0,3.745.322l.933-.7,1.223.506.424,1.075a.856.856,0,0,0,.893.536l.317-.037-.483-2.131-1.145-.569,1.539.282.738,1.109a.985.985,0,0,0,1.134.386l.349-.118-.638-1.374.243.286a1.035,1.035,0,0,0,1.213.274l.281-.127Z" fill="#f6caa7"/><path d="M148.211,169.947c-4.466.341-6.686,3.7-6.8,7.718a35.826,35.826,0,0,0,1.235,8.349c-.034.06-.066.121-.1.18-.706,1.167,1.087,5.833-1.137,8.536,4.074-1.589,5.486-4.017,5.661-6.87l0-.015v-.013c.012-.2.018-.407.018-.614l-.011-.018a11.32,11.32,0,0,0-1.754-5.361c2.01-2.8.841-5.075,1.494-7.739.683-2.788,4.666-2.645,6.174-.938a5.01,5.01,0,0,0,3.329,2.078c-1.053-4.1-3.642-5.634-8.11-5.293M143.8,181.84c-1.988-.815-1.393-3.847.228-3.7a9.392,9.392,0,0,1-.228,3.7" fill="#4f3e33"/><path d="M154.964,202.669a37.735,37.735,0,0,0-1.494-9.5l-.364.881,1.009,4.259a7.194,7.194,0,0,1-.041,3.481l-.075.286a7.181,7.181,0,0,1-2.635,3.914,38.536,38.536,0,0,1,.12,4.82s3.432-3.756,3.48-8.138" fill="#d2d2d2"/></svg>