<svg xmlns="http://www.w3.org/2000/svg" viewBox="0 0 300 300"><title>MSC17-business-009</title><path d="M300,0V300H0V0Z" fill="#40cdf5"/><polygon points="186.662 113.904 189.045 109.356 195.384 110.757 192.534 114.732 186.662 113.904" fill="#ab845f"/><rect x="165.826" width="22.936" height="111.27" fill="#939393"/><rect x="187.692" width="46.478" height="111.27" fill="#e6e6e6"/><path d="M201.682,108.418a1.278,1.278,0,0,0-1.211,1.034l-.3,1.781h-.721l.48-2.811a.85.85,0,0,0-.858-1.035,1.28,1.28,0,0,0-1.211,1.035l-.341,2-.183-3.3a.849.849,0,0,0-1.062-.823,1.277,1.277,0,0,0-.956,1.273l.2,3.657h-.991l-.181-3.274a.85.85,0,0,0-1.062-.823,1.276,1.276,0,0,0-.956,1.273l.156,2.824H191.1a5.643,5.643,0,0,0-5.219,4.833v12.012h7.2l-.64-12.012,5.991-2.793,2.324-.132a1.471,1.471,0,0,0,1.367-1.221l.421-2.468a.85.85,0,0,0-.858-1.034" fill="#bb9167"/><path d="M190.743,35.405H231.12V21.95H190.743Zm5.549-1.86h-1.707V23.829h1.707Zm3.151,0h-1.707V23.829h1.707Zm3.152,0h-1.707V23.829H202.6Zm3.15,0h-1.707V23.829h1.707Z" fill="#b2b2b2"/><path d="M226.359,28.293a1.313,1.313,0,1,0,1.313-1.312,1.312,1.312,0,0,0-1.313,1.312" fill="#fff"/><path d="M221.632,28.293a1.313,1.313,0,1,0,1.313-1.312,1.313,1.313,0,0,0-1.313,1.312" fill="#fff"/><path d="M190.743,17.484H231.12V4.029H190.743Zm5.549-1.86h-1.707V5.908h1.707Zm3.151,0h-1.707V5.908h1.707Zm3.152,0h-1.707V5.908H202.6Zm3.15,0h-1.707V5.908h1.707Z" fill="#b2b2b2"/><path d="M226.359,10.372a1.313,1.313,0,1,0,1.313-1.312,1.313,1.313,0,0,0-1.313,1.312" fill="#fff"/><path d="M221.632,10.372a1.313,1.313,0,1,0,1.313-1.312,1.313,1.313,0,0,0-1.313,1.312" fill="#fff"/><path d="M190.743,52.736H231.12V39.282H190.743Zm5.549-1.86h-1.707V41.16h1.707Zm3.151,0h-1.707V41.16h1.707Zm3.152,0h-1.707V41.16H202.6Zm3.15,0h-1.707V41.16h1.707Z" fill="#b2b2b2"/><path d="M226.359,45.624a1.313,1.313,0,1,0,1.313-1.313,1.313,1.313,0,0,0-1.313,1.313" fill="#fff"/><path d="M221.632,45.624a1.313,1.313,0,1,0,1.313-1.313,1.313,1.313,0,0,0-1.313,1.313" fill="#fff"/><path d="M190.743,70.066H231.12V56.612H190.743Zm5.549-1.86h-1.707V58.491h1.707Zm3.151,0h-1.707V58.491h1.707Zm3.152,0h-1.707V58.491H202.6Zm3.15,0h-1.707V58.491h1.707Z" fill="#b2b2b2"/><path d="M226.359,62.954a1.313,1.313,0,1,0,1.313-1.312,1.313,1.313,0,0,0-1.313,1.312" fill="#fff"/><path d="M221.632,62.954a1.313,1.313,0,1,0,1.313-1.312,1.313,1.313,0,0,0-1.313,1.312" fill="#fff"/><path d="M190.743,87.4H231.12V73.942H190.743Zm5.549-1.86h-1.707V75.822h1.707Zm3.151,0h-1.707V75.822h1.707Zm3.152,0h-1.707V75.822H202.6Zm3.15,0h-1.707V75.822h1.707Z" fill="#b2b2b2"/><path d="M226.359,80.285a1.313,1.313,0,1,0,1.313-1.313,1.313,1.313,0,0,0-1.313,1.313" fill="#fff"/><path d="M221.632,80.285a1.313,1.313,0,1,0,1.313-1.313,1.314,1.314,0,0,0-1.313,1.313" fill="#fff"/><path d="M190.743,104.728H231.12V91.273H190.743Zm5.549-1.86h-1.707V93.152h1.707Zm3.151,0h-1.707V93.152h1.707Zm3.152,0h-1.707V93.152H202.6Zm3.15,0h-1.707V93.152h1.707Z" fill="#b2b2b2"/><path d="M226.359,97.616a1.313,1.313,0,1,0,1.313-1.313,1.313,1.313,0,0,0-1.313,1.313" fill="#fff"/><path d="M221.632,97.616a1.313,1.313,0,1,0,1.313-1.313,1.313,1.313,0,0,0-1.313,1.313" fill="#fff"/><path d="M150.094,133.034h0a11.067,11.067,0,0,1-11.067-11.068v-5.615a11.068,11.068,0,1,1,22.135,0v5.615a11.068,11.068,0,0,1-11.068,11.068" fill="#bb9167"/><path d="M150.094,105.282a11.068,11.068,0,0,0-11.067,11.069v1.043a1.678,1.678,0,0,0-2.721,1.321v1.854a2.54,2.54,0,0,0,2.54,2.54h.239a11.068,11.068,0,0,0,22.077-1.143v-5.615a11.068,11.068,0,0,0-11.068-11.069" fill="#bb9167"/><path d="M162.534,117.03a1.684,1.684,0,0,0-1.666,1.439l-.237,1.6a2.547,2.547,0,0,0-2.138-1.881h-3.361c-1.561,0-2.977,1-2.662,2.528l.6,2.93a1.306,1.306,0,0,1-1.278,1.569h-.286a1.071,1.071,0,0,0-1.072,1.071v2.482h.258a1.416,1.416,0,0,1,1.415,1.415h-1.673v.464a2.94,2.94,0,0,1-1.067,2.267l-.095.078c.007,0,.014.009.022.011a11.025,11.025,0,0,1-4.658-1.414v3.274h10.91v-3.27a11.069,11.069,0,0,0,5.548-8.485h.581a2.54,2.54,0,0,0,2.54-2.54v-1.855a1.684,1.684,0,0,0-1.684-1.684" fill="#ab845f"/><path d="M144.906,120.134a1.029,1.029,0,1,1-1.029-1.029,1.03,1.03,0,0,1,1.029,1.029" fill="#09538f"/><path d="M157.191,120.134a1.03,1.03,0,1,1-1.029-1.029,1.03,1.03,0,0,1,1.029,1.029" fill="#09538f"/><path d="M147.288,126.512h6.3v.634a.6.6,0,0,1-.548.635h-5.2a.6.6,0,0,1-.548-.635Z" fill="#fff"/><path d="M146.466,118.623h-.008l-4.663-.1a.385.385,0,0,1-.378-.394.393.393,0,0,1,.393-.377l4.663.1a.386.386,0,0,1-.007.771"/><path d="M153.83,118.623a.386.386,0,0,1-.008-.771l4.663-.1a.4.4,0,0,1,.393.377.384.384,0,0,1-.377.394l-4.663.1Z"/><path d="M147.787,125.409,146,127.194s-.627-2.138,1.784-1.785" fill="#ab845f"/><path d="M150.094,103.283a10.994,10.994,0,0,0-5.623,1.547c-.021.009-.041.013-.064.024-1.26.65-3.585,1.227-4.5.429a2.623,2.623,0,0,0,1.215,2.607,11,11,0,0,0-2.093,6.46v6.781a1.553,1.553,0,0,0,1.553-1.554v-1.244l.8-4.619a2.842,2.842,0,0,1,.907-1.636l.575-.513a2.839,2.839,0,0,1,3.078-.463l1.394.818a5.944,5.944,0,0,0,3.01.817h.045a5.95,5.95,0,0,0,3.235-.956l1.014-.657a2.841,2.841,0,0,1,4.06,2.062l.892,5.147v1.244a1.553,1.553,0,0,0,1.553,1.554h.022V114.35a11.067,11.067,0,0,0-11.068-11.067"/><path d="M153.849,103.951l.134.232a4.739,4.739,0,0,1,.635,2.37v.708a4.748,4.748,0,0,1-3.513,4.58l-2.43.651a5.892,5.892,0,0,0,1.666.245h.045a5.947,5.947,0,0,0,3.235-.956l1.014-.657a2.841,2.841,0,0,1,4.06,2.062l.892,5.147v1.244a1.553,1.553,0,0,0,1.554,1.554h.02v-6.78a11.058,11.058,0,0,0-7.312-10.4"/><path d="M213.18,273.51H109.374a2.027,2.027,0,0,1,0-4.053H213.18a2.027,2.027,0,0,1,0,4.053" fill="#1db0e0"/><polygon points="185.636 121.614 185.636 118.526 192.872 119.105 192.872 124.074 185.636 121.614" fill="#fff"/><polygon points="169.669 264.988 168.691 259.907 175.65 259.907 176.936 264.988 169.669 264.988" fill="#72594b"/><polygon points="130.046 266.081 130.69 261.386 123.219 261.386 122.545 266.081 130.046 266.081" fill="#72594b"/><path d="M193.508,122.246l-8.376-1.405v23.344l-13.088-4.437a2.7,2.7,0,0,0-2.322-1.866l-6.6-.591-7.344-2.706-1.1.275-1.091.288-5.278.814-2.38-.621-.818-.193-.977-.563-5.644,2.777-12.236,1.746L108.7,158.691a5.062,5.062,0,0,0,.256,7.154L122.1,176.9l6.238-4.6-7.821-10.254,8.83-6.668,3.659,19.244-3.859,20.068h2.145l-9.126,68.172h9.682l17.238-61.411,18.47,59.487h9.791l-10.813-66.248h2.938l-4.121-19.5,4.23-21.265,20.5,1.055a5.2,5.2,0,0,0,5.8-5.424Z" fill="#021760"/><path d="M166.7,194.688H157.6a8.228,8.228,0,0,1-7.37-4.573l-.8-1.609-2,2.77a8.224,8.224,0,0,1-6.669,3.412h-9.52l-.077.406,5.563,1.97a7.2,7.2,0,0,1,4.5,8.833l-5.974,27.9-4.7,29.066h1.286l17.239-61.411.024-1.138a3.555,3.555,0,0,1,5.68-2.8l.051.042a4.2,4.2,0,0,0,2.13.918l2.95.377L173.4,260.936h3.949Z"/><path d="M155.776,133.048l-4.765,1.485a2.712,2.712,0,0,1-1.834,0l-4.893-1.485-.15,3.4,5.24,28.219,6.373-28.093h.029Z" fill="#fff"/><polygon points="148.812 139.684 144.906 136.448 148.536 141.557 148.812 139.684" fill="#d2d2d2"/><polygon points="150.85 139.703 155.133 136.779 150.997 141.438 150.85 139.703" fill="#d2d2d2"/><path d="M150.924,137.338h-1.81a.45.45,0,0,1-.449-.449v-1.854a.45.45,0,0,1,.449-.45h1.81a.451.451,0,0,1,.45.45v1.854a.45.45,0,0,1-.45.449" fill="#bb4143"/><polygon points="162.74 144.793 149.655 166.177 149.837 167.16 165.873 145.219 162.74 144.793"/><polygon points="164.648 137.428 163.119 137.29 160.31 141.019 159.57 141.938 162.309 142.086 162.787 141.556 161.117 141.194 164.648 137.428"/><path d="M137.33,176.937l-.837-.576a1.3,1.3,0,0,0-.107-.086l-.46-.3-.164-.113c-.014-.01-.029-.015-.043-.024l-.143-.094.359-1.214a1.377,1.377,0,0,0-.37-1.386l-.984-.938a2.179,2.179,0,0,0-1.912-.563l-4.407.848-5.4,3.85,1.886,1.471,1.9,3.152a3.658,3.658,0,0,0,1.635,1.446l3.031,1.356a2.207,2.207,0,0,0,2.81-.905l1.411-2.353a2.48,2.48,0,0,1,2.094-1.961,1.155,1.155,0,0,0-.3-1.606" fill="#bb9167"/><polygon points="128.262 172.486 124.746 177.808 122.861 176.337 128.198 172.403 128.262 172.486" fill="#fff"/><path d="M152.13,170.711a1.052,1.052,0,1,1-1.051-1.052,1.051,1.051,0,0,1,1.051,1.052"/><path d="M152.13,183.2a1.052,1.052,0,1,1-1.051-1.052,1.051,1.051,0,0,1,1.051,1.052"/><path d="M152.13,199.152l7.44,3.345s-6.133,1.479-7.44-3.345"/><path d="M186.055,151.316c-2.95.556-6.98,1.256-10.983,1.765,5.218-1.783,5.016-7.252,5.016-7.252l-9.846,5.651.877-4.251-.856,1.079a25.609,25.609,0,0,0-5.018,10.74l-1.3,6.277c-1.748,5,1.4,9.863,1.4,9.863l4.385-21.257,20.342,1.047a5.144,5.144,0,0,0,3-.556,6.772,6.772,0,0,0-7.022-3.106"/><path d="M180.568,269.618l-.93-.9-2.027-3.473-1.052-2.385h-3.745l.136,1.228h-3.282l-.77,3.571a9.269,9.269,0,0,0-.056,3.609l.441,2.4h12.348v-1.542a3.493,3.493,0,0,0-1.063-2.511" fill="#613d30"/><path d="M131,267.475l-.4-2.23h-3.606l-.5-1.192h-4.074l-.667,1.192-3.948,3.647-2.637,1.276a2.191,2.191,0,0,0-1.26,1.961v1.542h16.7l.365-1.859a11.755,11.755,0,0,0,.035-4.337" fill="#613d30"/><path d="M163.359,173.466l-4.387-2.8s-.389,4.225,4.387,2.8"/><path d="M185.133,144.184l5.632,1.646-1.179-1.549a2.847,2.847,0,0,0-4.453-.1"/><path d="M192.534,123.591a.869.869,0,1,1-.869-.868.869.869,0,0,1,.869.868" fill="#09538f"/><path d="M127.508,146.7l-.023.022a24.053,24.053,0,0,0-6.84,14.047,3.37,3.37,0,0,0-3.363-3.167h0l3.238,4.444,8.384-6.332Z"/><polygon points="137.246 145.163 135.58 145.383 148.568 165.325 137.246 145.163"/><polygon points="149.374 164.667 152.817 149.493 150.63 136.922 149.22 136.922 146.86 151.128 149.374 164.667" fill="#bb4143"/></svg>