<svg xmlns="http://www.w3.org/2000/svg" viewBox="0 0 300 300"><title>MSC17-data-007</title><path d="M300,0V300H0V0Z" fill="#939393"/><path d="M126.248,76.828a17.683,17.683,0,1,1-17.683-17.682,17.683,17.683,0,0,1,17.683,17.682" fill="#edac28"/><path d="M110.824,105.482a9.124,9.124,0,1,0-9.125,9.125,9.124,9.124,0,0,0,9.125-9.125" fill="#ed8422"/><path d="M169.768,60.351A21.468,21.468,0,1,1,148.3,38.883a21.469,21.469,0,0,1,21.468,21.468" fill="#fec94e"/><path d="M125.347,49.85a7.789,7.789,0,1,1-7.789-7.789,7.788,7.788,0,0,1,7.789,7.789" fill="#fda84c"/><path d="M159.883,105.482a21.191,21.191,0,1,1-21.19-21.19,21.19,21.19,0,0,1,21.19,21.19" fill="#fda84c"/><path d="M181.705,87.912A11.084,11.084,0,1,0,170.621,99a11.084,11.084,0,0,0,11.084-11.084" fill="#ed8422"/><path d="M189.224,115.349A13.047,13.047,0,1,1,176.178,102.3a13.045,13.045,0,0,1,13.046,13.047" fill="#fec94e"/><path d="M192.583,65.452a9.8,9.8,0,1,0-9.8,9.8,9.8,9.8,0,0,0,9.8-9.8" fill="#fec94e"/><path d="M198.821,94.282a8.021,8.021,0,1,0-8.02,8.021,8.021,8.021,0,0,0,8.02-8.021" fill="#fda84c"/><path d="M172.976,138.47a11.8,11.8,0,1,1-11.8-11.8,11.8,11.8,0,0,1,11.8,11.8" fill="#fda84c"/><path d="M179.564,49.066a4.472,4.472,0,1,0-4.472,4.471,4.471,4.471,0,0,0,4.472-4.471" fill="#fda84c"/><path d="M192.583,79.727a3.359,3.359,0,1,0-3.359,3.36,3.359,3.359,0,0,0,3.359-3.36" fill="#fda84c"/><path d="M145.249,144.437a13.425,13.425,0,1,1-13.425-13.424,13.424,13.424,0,0,1,13.425,13.424" fill="#fec94e"/><path d="M118.4,125.155a6.405,6.405,0,1,1-6.4-6.4,6.4,6.4,0,0,1,6.4,6.4" fill="#fda84c"/><path d="M161.763,160.608a9.287,9.287,0,1,1-9.287-9.286,9.286,9.286,0,0,1,9.287,9.286" fill="#ed8422"/><path d="M132.966,41.523a3.359,3.359,0,1,0-3.359,3.359,3.359,3.359,0,0,0,3.359-3.359" fill="#ed8422"/><path d="M166.65,137.744a1.871,1.871,0,0,0-.8.179c0-.059.005-.119.005-.179a3.724,3.724,0,0,0-7.433-.332,2.541,2.541,0,1,0-2.04,4.057H166.65a1.863,1.863,0,0,0,0-3.725" fill="#fff"/><rect x="98.148" y="109.342" width="2.236" height="2.32" fill="#fff"/><rect x="101.33" y="107.022" width="2.236" height="4.639" fill="#fff"/><rect x="104.555" y="104.043" width="2.236" height="7.618" fill="#fff"/><polygon points="99.936 98.55 99.632 100.059 101.484 100.43 95.061 104.367 95.865 105.679 102.276 101.749 101.742 103.676 103.223 104.088 104.505 99.469 99.936 98.55" fill="#fff"/><path d="M137.088,58.418a1.533,1.533,0,0,0,1.327-.772h2.726v2.022a1.54,1.54,0,1,0,1.538,0v-3.56h-4.264a1.538,1.538,0,1,0-1.327,2.31" fill="#fff"/><path d="M156.357,53.245a1.54,1.54,0,0,0-.87,2.811v4.169h-3.94a1.541,1.541,0,1,0,0,1.539h4.71l.769-.77V56.168a1.537,1.537,0,0,0-.669-2.923" fill="#fff"/><path d="M160.282,58.127V51.909l-1.828-1.829h-3.889a1.541,1.541,0,1,0,0,1.539h3.252l.927.927v5.581a1.54,1.54,0,1,0,1.538,0" fill="#fff"/><path d="M152.662,55.853a1.536,1.536,0,0,0-1.328.772h-1.51V54.118a1.54,1.54,0,1,0-1.538,0v3.276l.769.769h2.279a1.538,1.538,0,1,0,1.328-2.31" fill="#fff"/><path d="M142.667,50.2A1.535,1.535,0,0,0,144,49.427h3.733a1.54,1.54,0,1,0,0-1.539h-3.734a1.538,1.538,0,1,0-1.327,2.31" fill="#fff"/><path d="M139.912,54.206a1.534,1.534,0,0,0,1.327-.771h4.041v6.233a1.54,1.54,0,1,0,1.539,0V51.9h-5.58a1.537,1.537,0,1,0-1.327,2.309" fill="#fff"/><path d="M147.8,63.212a1.534,1.534,0,0,0-1.327.771h-5.556L138.6,61.664a1.5,1.5,0,0,0,.028-.278,1.565,1.565,0,1,0-1.033,1.448l2.687,2.687h6.193a1.537,1.537,0,1,0,1.327-2.309" fill="#fff"/><path d="M153.676,64.752a1.541,1.541,0,1,0-2.31,1.328v4.637a1.541,1.541,0,1,0,1.539,0V66.08a1.537,1.537,0,0,0,.771-1.328" fill="#fff"/><path d="M157.8,64.752a1.541,1.541,0,1,0-2.309,1.328V68.1a1.54,1.54,0,1,0,1.538,0V66.08a1.535,1.535,0,0,0,.771-1.328" fill="#fff"/><path d="M138.4,111.287c1.044,0,1.18,2.224,3.582,2.224,8.141,0,9.12-3.915,9.431-5.116.171-.658.275-1.116.334-1.395a.39.39,0,0,0-.262-.452,43.779,43.779,0,0,0-13.085-1.89h-.021a43.779,43.779,0,0,0-13.085,1.89.39.39,0,0,0-.262.452c.059.279.163.737.333,1.395.312,1.2,1.29,5.116,9.431,5.116,2.4,0,2.539-2.224,3.583-2.224Z" fill="#fff"/><path d="M124.966,105.2v-3.421a.316.316,0,0,1,.176-.286c.859-.426,4.9-2.177,13.238-2.177,8.365,0,12.434,1.864,13.285,2.308a.317.317,0,0,1,.17.284V105.2a.227.227,0,0,1-.289.221,45.866,45.866,0,0,0-26.29,0,.228.228,0,0,1-.29-.221" fill="#fff"/><path d="M123.721,105.309v-2.564a.236.236,0,0,0-.37-.2,5.632,5.632,0,0,0-1.215,1v2.545a.238.238,0,0,0,.328.22c.211-.088.5-.2.779-.31a.739.739,0,0,0,.478-.692" fill="#fff"/><path d="M124.017,107.308l.384,1.643a.08.08,0,0,1-.1.1,3.788,3.788,0,0,1-2.124-1.417.084.084,0,0,1,.04-.116c.39-.163.963-.353,1.336-.472a.363.363,0,0,1,.464.265" fill="#fff"/><path d="M153.022,105.309v-2.564a.236.236,0,0,1,.37-.2,5.632,5.632,0,0,1,1.215,1v2.545a.238.238,0,0,1-.328.22c-.211-.088-.5-.2-.779-.31a.739.739,0,0,1-.478-.692" fill="#fff"/><path d="M152.725,107.308l-.383,1.643a.08.08,0,0,0,.1.1,3.787,3.787,0,0,0,2.123-1.417.083.083,0,0,0-.04-.116c-.39-.163-.962-.353-1.335-.472a.365.365,0,0,0-.465.265" fill="#fff"/><path d="M183.476,112.8a2.821,2.821,0,0,0-2.12.968l-3.324-1.6.754-1.149a1.5,1.5,0,0,0,.192.02,1.714,1.714,0,1,0-1.614-2.269l-3.926.538a1.511,1.511,0,1,0-1.991,2.215l-.138,4.362a3.748,3.748,0,1,0,4.42,3.684c0-.05-.013-.1-.015-.146l5.492-2.1a2.836,2.836,0,1,0,2.27-4.529m-9.916,3.383a3.764,3.764,0,0,0-.713-.25l.138-4.362c.038-.021.078-.039.114-.062l2.683,1.288Zm1.337-5.518,2.51-.344-.774,1.178Zm.435,7.26a3.745,3.745,0,0,0-.543-.811l2.392-3.645,3.5,1.683a2.913,2.913,0,0,0-.049.487c0,.086.018.167.025.251Z" fill="#fff"/><path d="M134.5,146.052l-1.8,3-2.317-4.8-1.423,2.365h-3.39a26.559,26.559,0,0,0,6.257,6.066s4.549-3.081,6.607-6.628Z" fill="#fff"/><path d="M184.924,62.06l-2.144-1.429-2.2,1.429h-1.727v2.416a6.139,6.139,0,0,0,2.428,4.771l1.5,1.2,1.5-1.2a6.136,6.136,0,0,0,2.428-4.771V62.06Z" fill="#fff"/><path d="M115.309,71.618c-3.053,0-5.293,2.084-7.392,4.323-2.09-2.233-4.314-4.323-7.337-4.323a5.735,5.735,0,0,0,0,11.469c2.366,0,4.243-1.28,5.949-2.907l-1.259-1.454c-1.454,1.4-2.947,2.439-4.69,2.439a3.813,3.813,0,0,1,0-7.625c2.28,0,4.13,1.777,6.027,3.814l1.31,1.413c2.1,2.238,4.336,4.32,7.392,4.32a5.735,5.735,0,1,0,0-11.469m0,9.547c-2.317,0-4.179-1.771-6.083-3.811,1.905-2.04,3.768-3.814,6.083-3.814a3.813,3.813,0,1,1,0,7.625" fill="#fff"/><path d="M176.951,88.778v-1.73l-1.846-.3a4.591,4.591,0,0,0-.5-1.177l1.106-1.526-1.224-1.224-1.54,1.116a4.6,4.6,0,0,0-1.157-.473l-.3-1.886h-1.731l-.3,1.886a4.564,4.564,0,0,0-1.156.473l-1.542-1.116-1.223,1.224,1.106,1.526a4.553,4.553,0,0,0-.5,1.177l-1.847.3v1.73l1.82.291a4.648,4.648,0,0,0,.494,1.227l-1.072,1.481L166.756,93l1.467-1.061a4.605,4.605,0,0,0,1.248.522l.284,1.781h1.731l.286-1.781a4.626,4.626,0,0,0,1.247-.522L174.485,93l1.224-1.223L174.636,90.3a4.617,4.617,0,0,0,.5-1.227Zm-6.33,1.666a2.482,2.482,0,1,1,2.482-2.482,2.482,2.482,0,0,1-2.482,2.482" fill="#fff"/><path d="M121.044,165.186v10.435a8.272,8.272,0,0,0,8.272,8.272H137v1.666a3.92,3.92,0,0,0,3.919,3.919h.388v2.006h4.011v-2.006h.149a3.919,3.919,0,0,0,3.919-3.919v-1.666h9.425a8.272,8.272,0,0,0,8.273-8.272V165.186Z" fill="#09538f"/><path d="M129.364,167.553v1.909h12.161v14.431H137v1.545h12.386v-1.545h9.847a8.007,8.007,0,0,0,8.008-8.007v-8.333Z" fill="#021760"/><path d="M187.435,94.282a3.367,3.367,0,0,1,2.083-3.109l-.831,1.2,1.266.873,2.206-3.2-2.9-2.7-1.048,1.126,1.19,1.108a4.9,4.9,0,0,0-1.174,8.872l.81-1.308a3.347,3.347,0,0,1-1.6-2.866" fill="#fff"/><path d="M195.705,94.282a4.9,4.9,0,0,0-2.174-4.075l-.857,1.277a3.366,3.366,0,0,1-.575,5.9l.786-1.126-1.263-.88-2.18,3.126,2.79,2.633,1.056-1.119-1.1-1.037a4.911,4.911,0,0,0,3.517-4.7" fill="#fff"/><path d="M128.3,145.459l2.194-3.636,2.316,4.826,1.065-1.6h5.052a5.586,5.586,0,0,0,.5-2.162,3.835,3.835,0,0,0-3.949-3.71,3.957,3.957,0,0,0-3.65,2.293,3.959,3.959,0,0,0-3.651-2.293,3.835,3.835,0,0,0-3.949,3.71,5.914,5.914,0,0,0,.684,2.57Z" fill="#fff"/><path d="M147.918,280.6c1.07-3.514-1.3-4.583-2.062-4.812s-5.805,7.791-5.805,7.791l5.729-1.375Z" fill="#d2d2d2"/><path d="M173.09,226.282l-4.551-12.844-5.377-2.642-5.756-4.088a.967.967,0,0,0-1.431.366,5.755,5.755,0,0,0-.246,4.412c1.593,1.026,4.9,2.941,7.314,2.886-.538,2.15.134,4.978.781,6.954l-9.031-4.893-9.628-3.61a1.244,1.244,0,0,0-1.658.922l-.125.621a6.287,6.287,0,0,0,3.479,6.916l11.6,6.3-1.455,12.359a15.226,15.226,0,0,0-5.45,5.428,2.067,2.067,0,0,1-2.816.744l-6.38-3.554a5.884,5.884,0,0,1-2.886-5.937l1.456-10.108,1.483-4.462a3.832,3.832,0,0,0-2.427-4.844,3.164,3.164,0,0,0-3.665,1.3l-4.137,6.478-3.819,16.806-2.9,5.1a39.343,39.343,0,0,0-4.791,24.72l1.276,9.441,17.722,14.666,3.666-14.666,7.754-14.457a37.435,37.435,0,0,1,3.26-5.054c3.643-4.753,11.029-14.053,13.511-17.174.543-.683,2.5-2.031,2.538-2.9Z" fill="#f6caa7"/><path d="M143.306,211.982h0a2.635,2.635,0,0,0,1.591,2.737,6.731,6.731,0,0,0,5.619.11c-2.827-1.222-7.21-2.847-7.21-2.847" fill="#fff"/><path d="M156.177,205.507l-.4.963a1.554,1.554,0,0,0,.39,1.742,6.042,6.042,0,0,0,5.727,1.653c-2.555-1.719-5.719-4.358-5.719-4.358" fill="#fff"/><path d="M145.022,197.967a1.818,1.818,0,1,1-1.818-1.817,1.817,1.817,0,0,1,1.818,1.817" fill="#09538f"/><path d="M145.022,203.124a1.818,1.818,0,1,1-1.818-1.817,1.817,1.817,0,0,1,1.818,1.817" fill="#09538f"/><path d="M145.022,208.281a1.818,1.818,0,1,1-1.818-1.817,1.817,1.817,0,0,1,1.818,1.817" fill="#09538f"/><path d="M145.022,213.438a1.818,1.818,0,1,1-1.818-1.817,1.817,1.817,0,0,1,1.818,1.817" fill="#09538f"/><path d="M143.205,221.935a1.8,1.8,0,0,0-.82.2c-.232.722-.537,1.631-.8,2.417a1.815,1.815,0,1,0,1.623-2.621" fill="#09538f"/><path d="M143.205,216.778a1.811,1.811,0,0,0-1.741,1.324,3.367,3.367,0,0,1,1.134,2.2,1.814,1.814,0,1,0,.607-3.523" fill="#09538f"/><path d="M138.773,216.327a5.27,5.27,0,0,1,3.452,1.284c-.132.368-1.063,3.857-1.181,4.169a2.326,2.326,0,1,1-4.349-1.65Z" fill="#fff"/><path d="M155.729,211.486a5.732,5.732,0,0,0,1.691,2.5l3.943,3.367.546,2.938,1.914,1.038a16.671,16.671,0,0,1,.1-7.634,19.3,19.3,0,0,1-8.19-2.206" fill="#deb695"/><path d="M173.946,227.538l-1.108-10.4-8.09-9.047-.61.761a4.894,4.894,0,0,0-.932,1.942l-5.755-4.088,10.678,7.586,3.972,11.611.011,1.169a5.029,5.029,0,0,1-4.4-.187l1.083,15.092v.012a1.775,1.775,0,0,1-.95,1.45l-8.831,4.86a56.4,56.4,0,0,0-26.1,30.929l-.687,1.978-1.222,5.195,10.739,1.194,1.636-6.541,7.754-14.457a37.225,37.225,0,0,1,3.259-5.053c2.761-3.6,7.669-9.814,10.966-13.971l4.895-3.671a4.941,4.941,0,0,0,1.976-4l-.04-4.3Z" fill="#deb695"/><path d="M167.421,211.064l-3.039-3.473-.231.391a1.666,1.666,0,0,0,.326,2.089,3.47,3.47,0,0,0,2.944.993" fill="#fff"/><path d="M108.809,281.82s9.319-5.041,16.193-3.056,17.875,4.737,22.917,1.834c-2.6,8.555-5.653,19.4-5.653,19.4H107.892Z" fill="#fff"/><rect x="114.996" y="284.036" width="6.875" height="2.75" transform="translate(-190.519 279.581) rotate(-66.383)" fill="#b2b2b2"/></svg>