<svg xmlns="http://www.w3.org/2000/svg" viewBox="0 0 300 300"><title>MSC17-business-005</title><path d="M300,0V300H0V0Z" fill="#e6e6e6"/><path d="M195.076,275.814H110.152a1.709,1.709,0,1,1,0-3.417h84.924a1.709,1.709,0,1,1,0,3.417" fill="#c2c2c2"/><path d="M169.457,270.8a9.9,9.9,0,0,1-3.734-4.282l-.625-1.381-.356-1.364h.169l-2.048-33.886L159,225l-5.909,4.883,7.2,33.886.882,5.174,6.045,4.687,2.2.611,4.321-.747Z" fill="#ab845f"/><path d="M141,225.681h-8.965l-2.4,4.2,5.034,33.885h.675l-.725,4.292-.365.86a8.17,8.17,0,0,1-2,2.828l-1.579,1.447,2.246,1.266,4.075-.612,3.413-5.5-.357-4.58Z" fill="#ab845f"/><path d="M160.292,263.771l-.732,2.356a6.531,6.531,0,0,0-.072,3.619l1.62,6.06h1.086v-4.484l5.522,3.824a3.638,3.638,0,0,0,2.088.66h6.448s-1.634-2.989-3.751-2.989h-4.725a2.357,2.357,0,0,1-1.474-.518l-3.95-3.16a.361.361,0,0,1-.134-.327,4.478,4.478,0,0,1,2.88-3.678l-.187-1.363Z"/><path d="M140.052,263.771l.9,3.909a3.358,3.358,0,0,1-.194,2.093,7.123,7.123,0,0,0-.58,2.4l-.226,3.57h-1.019l.093-3.8-1.212,2.1a3.536,3.536,0,0,1-3.057,1.763h-5.411a1.408,1.408,0,0,1,.327-1.657l1.032-.925h5.322a1.66,1.66,0,0,0,1.446-.847l1.954-3.479a1.36,1.36,0,0,0,.028-1.279l-.947-1.876a1.494,1.494,0,0,0-2.656-.022l-1.232,2.342.049-4.292Z"/><path d="M198.228,72.417A48.231,48.231,0,1,1,150,24.186a48.231,48.231,0,0,1,48.231,48.231" fill="#1070c4"/><path d="M150,24.186v48.23h48.231a48.22,48.22,0,0,0-47.185-48.208Z" fill="#df6c47"/><path d="M150,72.417l29.586,38.091s8.2-6.134,11.7-13.148L150,72.417" fill="#edac28"/><path d="M191.286,97.36,150,72.416h48.231s.458,15.512-6.942,24.944" fill="#09538f"/><path d="M122.254,111.81l-1.358-1.766.079-3.3a1.37,1.37,0,0,0-.953-1.336l-.144-.046-.815,2.548-1.185-1.7.447-2.163a1.486,1.486,0,0,0-.445-1.387l-.365-.341-1.11,3.326L115.65,105l-.15-1.413a1.4,1.4,0,0,0-1.063-1.212l-.265-.064v3.25l1.81,2.3a3.1,3.1,0,0,0,.292,1.036l2.621,5.867L115.8,125.377l5.248-.357,2.052-9.314a4.774,4.774,0,0,0-.848-3.9" fill="#ab845f"/><path d="M134.956,134.186s.034,5.47-1.155,7.624-4.754,3.1-4.754,3.1L133.5,151.1l16.193.412s7.651-5.463,2.6-15.639S138.7,127.92,138.7,127.92Z"/><path d="M140.429,144.447l-.022.57,2.037,13.2,4.868-12.566.118-1.438a8.156,8.156,0,0,0,4.868-7.439V131.6a8.157,8.157,0,0,0-8.133-8.133h-1.077a8.157,8.157,0,0,0-8.132,8.133v5.174a8.156,8.156,0,0,0,5.473,7.674" fill="#bb9167"/><path d="M140.43,144.44l-.023.577.3,1.942a8.185,8.185,0,0,0,4.3,4.65l2.308-5.959.118-1.44a8.158,8.158,0,0,0,4.858-7.27h.067a1.957,1.957,0,0,0,1.957-1.957v-1.9a1.13,1.13,0,0,0-2.014-.709V131.6c0-.275-.016-.546-.042-.814a1.069,1.069,0,0,0-.213-.29l-6.747-5.118-.715,2.233a9.254,9.254,0,0,0,3.6,4.744,7.551,7.551,0,0,0-1.767.356l-.295.1a1.287,1.287,0,0,0-.875,1.286l.166,3.229c.032.614-.339.715-.866.712a.567.567,0,0,0-.554.677l.389,2-.49.541a3.77,3.77,0,0,0-.8,3.655,8,8,0,0,1-2.658-.465" fill="#ab845f"/><path d="M131.384,180.774l-3.139,7.507a37.617,37.617,0,0,0-2.352,20.971l3.585,20.544h33.23l-1.091-16.35a87.292,87.292,0,0,0-5.768-25.9l-2.64-6.775Z" fill="#021760"/><path d="M131.384,180.774,127.332,152.6l-13.4-13.463a5.141,5.141,0,0,1-1.267-5.15l3.924-12.651,5.293,1.519-.847,10.756,12.412,12.179,2.444-.2,1.526,1.6,2.991-2.168,2.038,13.2,4.868-12.565L149,147.145l3.124-1.019,1.5,1.2L167,136.94l-3.272-13.092,4.746-.874,6.472,14.671a4.8,4.8,0,0,1-1.2,5.515l-12.3,9.752A7.005,7.005,0,0,0,159,156.758l-5.786,24.016Z" fill="#c2c2c2"/><path d="M134.076,131.948h0a1.135,1.135,0,0,0-1.135,1.135v1.9a1.957,1.957,0,0,0,1.957,1.956h.314v-3.856a1.136,1.136,0,0,0-1.136-1.135" fill="#ab845f"/><path d="M139.187,134.444a.836.836,0,1,1-.836-.836.835.835,0,0,1,.836.836" fill="#043c40"/><path d="M149.525,134.444a.836.836,0,1,1-.836-.836.835.835,0,0,1,.836.836" fill="#043c40"/><path d="M140.558,139.288a3.316,3.316,0,0,0,6.059,0Z" fill="#fff"/><path d="M144.337,121.892h0a8.876,8.876,0,0,0-9.343,8.679c-.019.907-.032,1.837-.038,2.771.345-.047.666-.111.989-.174a.4.4,0,0,0,.135.336.405.405,0,0,0,.263.1.412.412,0,0,0,.311-.143,2.742,2.742,0,0,1,3.581-.375.408.408,0,1,0,.417-.7,4.568,4.568,0,0,0-.979-.441,11.356,11.356,0,0,0,5.345-5.137c1.946,4.98,7.65,6.537,7.65,6.537l.077-2.284a8.878,8.878,0,0,0-8.408-9.166"/><path d="M146.336,132.383a.408.408,0,1,0,.416.7,2.746,2.746,0,0,1,3.582.374.407.407,0,1,0,.621-.527,3.582,3.582,0,0,0-4.619-.548"/><path d="M173.211,111.776a2.165,2.165,0,0,0-1.358.218l.849-1.486a1.209,1.209,0,0,0-1.745.362l-.751,1.263-.56.324v-3.33h-.214a1.066,1.066,0,0,0-1.052.9l-.475,2.937a1.68,1.68,0,0,1-.772,1.159l-3.579,2.225a2.321,2.321,0,0,0-1,2.626l1.893,6.407,4.076-.982-1.63-5.743,4.534-3.922Z" fill="#ab845f"/><path d="M168.471,122.974l-4.746.875,2.813,11.257a21.293,21.293,0,0,1,5.842-3.27Z" fill="#b2b2b2"/><polygon points="141.607 152.791 139.557 148.639 136.909 150.541 139.187 151.053 141.607 152.791" fill="#b2b2b2"/><path d="M133.445,145.787l-2.241,6.384s4.821-2.445,2.241-6.384" fill="#b2b2b2"/><polygon points="145.262 152.791 147.312 149.794 150.356 151.507 147.81 151.507 145.262 152.791" fill="#b2b2b2"/><polygon points="148.998 147.145 151.104 149.319 152.123 146.126 148.998 147.145" fill="#b2b2b2"/><path d="M158.235,155.431l2.309-11.071s-4.414,4.823-2.309,11.071" fill="#b2b2b2"/><path d="M167,136.94l4.346-.527-.036-.033a2.882,2.882,0,0,0-4.31.56" fill="#b2b2b2"/><path d="M129.047,141.472l-8.014-7.864.847-10.756-5.293-1.52-3.924,12.652a5.143,5.143,0,0,0,1.267,5.15l6.684,6.714a13.755,13.755,0,0,0,5.445-2.215l-.547,3.251a6.56,6.56,0,0,0,1.82,5.713l-.895-9.2a27.059,27.059,0,0,0,2.61-1.927" fill="#b2b2b2"/><path d="M142.207,159.574a.68.68,0,1,1-.68-.679.68.68,0,0,1,.68.679" fill="#939393"/><path d="M142.886,167.928a.68.68,0,1,1-.68-.679.68.68,0,0,1,.68.679" fill="#939393"/><path d="M143.123,175.535a.679.679,0,1,1-.679-.679.68.68,0,0,1,.679.679" fill="#939393"/><path d="M147.312,180.561l2.149-5.705s2.075,3.531-2.149,5.705" fill="#b2b2b2"/></svg>