<svg xmlns="http://www.w3.org/2000/svg" viewBox="0 0 300 300"><title>MSC17-data-005</title><path d="M300,0V300H0V0Z" fill="#d2d2d2"/><path d="M283.806,251.52H61.667a23.547,23.547,0,0,1-19.078-9.744H283.806a4.872,4.872,0,1,1,0,9.744" fill="#c2c2c2"/><path d="M96.594,243.457v-54.07H69.273L42.538,239.15a2.923,2.923,0,0,0,2.575,4.307H96.594" fill="#e6e6e6"/><path d="M100.085,243.457v-54.07H72.764L46.03,239.15a2.922,2.922,0,0,0,2.574,4.307h51.481" fill="#b2b2b2"/><path d="M243.023,251.379H77.931a5.3,5.3,0,0,1-5.071-4.431L57.6,141.09a3.747,3.747,0,0,1,3.793-4.432H226.484a5.3,5.3,0,0,1,5.071,4.432l15.261,105.858a3.746,3.746,0,0,1-3.793,4.431" fill="#939393"/><path d="M245.816,251.379H80.723a5.3,5.3,0,0,1-5.07-4.431L60.392,141.09a3.747,3.747,0,0,1,3.793-4.432H229.277a5.3,5.3,0,0,1,5.071,4.432l15.261,105.858a3.747,3.747,0,0,1-3.793,4.431" fill="#282828"/><path d="M70.329,210.017,60.287,140.366a3.135,3.135,0,0,1,3.174-3.708l69.91.015Z" fill="#505050"/><polygon points="239.461 241.952 84.361 241.952 70.541 146.086 225.64 146.086 239.461 241.952" fill="#737373"/><polygon points="70.541 146.086 78.437 200.86 125.315 146.086 70.541 146.086" fill="#939393"/><polygon points="163.311 193.428 151.098 193.428 156.327 229.705 168.541 229.705 163.311 193.428" fill="#fec94e"/><polygon points="146.434 211.261 134.22 211.261 136.879 229.705 149.093 229.705 146.434 211.261" fill="#df6c47"/><polygon points="128.671 222.954 116.458 222.954 117.431 229.704 129.645 229.704 128.671 222.954" fill="#91a723"/><polygon points="180.049 174.621 167.835 174.621 175.776 229.704 187.99 229.704 180.049 174.621" fill="#00b294"/><polygon points="196.554 154.209 184.34 154.209 195.224 229.705 207.437 229.705 196.554 154.209" fill="#505050"/><path d="M189.323,188.773l5.9,40.932h12.213l-7.087-49.011c-7.331-.465-4.073,9.078-11.028,8.079" fill="#49cdf3"/><path d="M147.8,30.116,130.548,59.691a3.984,3.984,0,0,0,1.435,5.449l57.1,33.309a3.985,3.985,0,0,0,5.449-1.434L211.782,67.44a3.986,3.986,0,0,0-1.434-5.449l-57.1-33.308a3.985,3.985,0,0,0-5.45,1.433" fill="#282828"/><rect x="156.269" y="38.139" width="34.738" height="53.738" transform="translate(29.991 182.234) rotate(-59.742)" fill="#737373"/><rect x="142.267" y="45.575" width="5.438" height="5.438" transform="matrix(0.504, -0.864, 0.864, 0.504, 30.202, 149.179)" fill="#505050"/><path d="M196.612,86.974a.5.5,0,0,1-.429-.748l6.341-10.868a.5.5,0,0,1,.857.5l-6.34,10.868a.5.5,0,0,1-.429.247" fill="#505050"/><path d="M191.677,112.218a13.869,13.869,0,0,1-1.443-6.167v-2.98c0-12.658-6.512-33.066-29.422-36.18-.007-.017-.011-.034-.018-.051-13.59-2.308-12.437-11.923-12.437-11.923l-6.68,11.555,40.08,23.381a12.013,12.013,0,0,1,5.96,10.376v6.082a13.858,13.858,0,0,1-1.428,6.136c-1.575,3.2-3.243,6.991-3.243,8.736a5.993,5.993,0,0,0,11.986,0c0-1.788-1.748-5.723-3.355-8.965" fill="#49cdf3"/></svg>