<svg xmlns="http://www.w3.org/2000/svg" xmlns:xlink="http://www.w3.org/1999/xlink" viewBox="0 0 636 300"><defs><clipPath id="a"><path d="M295.865,117.928s6.871,9.317,14.875,18.76a20.172,20.172,0,0,0,13.307-9.474l-12.208-17.645Z" fill="none"/></clipPath></defs><title>MSC17-cloud-012</title><path d="M636,0V300H0V0Z" fill="#40c5af"/><path d="M431.582,263.551h-272.9a2.142,2.142,0,1,0,0,4.283h272.9a2.142,2.142,0,0,0,0-4.283" fill="#12856f"/><path d="M274.361,246.317l-.828-18.766h-1.126v-3.726H271.6V199.816h-6.609v12.832h-5.221a6.445,6.445,0,0,0-6.437,6.438v1.66a14.229,14.229,0,0,0-2.457,6.446.682.682,0,0,0,.679.735h5.626a.682.682,0,0,0,.68-.735,14.224,14.224,0,0,0-2.459-6.445v-1.661a4.372,4.372,0,0,1,4.368-4.367h5.221v9.106h-.805v3.726h-1.125l-.829,18.766h1.954v10.625h8.219V246.317Z" fill="#737373"/><path d="M268.172,245.216s-26.182.758-41.721,6.593a2.273,2.273,0,0,0-1.389,2.753l.68,2.38h7.175v-1.4a214.172,214.172,0,0,1,35.255-2.942Z" fill="#b2b2b2"/><path d="M232.917,258.175v-1.234h-7.175v7.177h2.478a4.828,4.828,0,1,0,4.7-5.943" fill="#737373"/><path d="M310.6,258.175v-1.234h-7.175v7.177h2.48a4.827,4.827,0,1,0,4.695-5.943" fill="#737373"/><path d="M309.892,251.81c-15.537-5.836-41.72-6.593-41.72-6.593l-10.608,4.769a3.349,3.349,0,0,0-1.912,3.707l.446,2.243h6.745v-1.478l5.329-1.863a214.059,214.059,0,0,1,35.255,2.943v1.4H310.6l.68-2.379a2.274,2.274,0,0,0-1.39-2.753" fill="#d2d2d2"/><polygon points="262.843 258.175 262.843 255.936 256.027 255.936 256.027 258.175 254.37 258.175 254.37 267.835 264.369 267.835 264.369 258.175 262.843 258.175" fill="#737373"/><polygon points="324.047 127.214 332.818 140.069 324.047 147.935 312.709 134.838 315.984 125.442 324.047 127.214" fill="#db9c94"/><polygon points="353.889 267.834 349.377 267.834 347.174 193.54 350.023 186.569 355.806 203.127 353.889 267.834" fill="#b2b2b2"/><polygon points="348.636 248.906 353.701 257.562 337.032 257.562 332.231 247.732 345.375 246.075 348.636 248.906" fill="#d2d2d2"/><path d="M291.745,166.493h15.9a7.328,7.328,0,0,1,7.329,7.328v25.814a9.036,9.036,0,0,1-3.5,7.144l-.851.659a.829.829,0,0,0,.508,1.485h3.376l2.767-2.144a9.036,9.036,0,0,0,3.5-7.144V172.579a7.329,7.329,0,0,0-7.329-7.329h-27.5a6.417,6.417,0,0,0-6.416,6.492l.026,3.521a.885.885,0,0,0,.884.874h3.986a.928.928,0,0,0,.929-.94l-.025-2.213a6.416,6.416,0,0,1,6.416-6.491" fill="#b2b2b2"/><path d="M281.186,172.985l.022,2.426a.72.72,0,0,1-.719.727h5.737a.788.788,0,0,0,.787-.8l-.027-2.356a6.416,6.416,0,0,1,6.417-6.492h-5.8a6.416,6.416,0,0,0-6.417,6.492" fill="#737373"/><path d="M315.1,165.25h-5.8a7.329,7.329,0,0,1,7.328,7.329v27.884a9.036,9.036,0,0,1-3.5,7.144l-1.7,1.315h5.175a1.821,1.821,0,0,0,1.119-.382l1.2-.933a9.036,9.036,0,0,0,3.5-7.144V172.579a7.329,7.329,0,0,0-7.328-7.329" fill="#d2d2d2"/><path d="M337.586,255.936a52.392,52.392,0,0,0-2.216,11.9h36.661s-1.115-8.615-10.038-8.615-10.547-8.642-10.547-8.642a7.983,7.983,0,0,0-4.421,4.889l-.151.47Z" fill="#043c40"/><path d="M237.611,182.229l-7.5-63.8a3.572,3.572,0,0,1,.936-2.844l.314-.338a5.993,5.993,0,0,1,5.18-1.855,176.435,176.435,0,0,0,49.778-.412l14.766,91.7H241.605a9.145,9.145,0,0,1-8.324-12.933Z" fill="#fff"/><path d="M295.706,180.282v-1.656H240.819a87.117,87.117,0,0,0-.277-13.209c4.385.1,15.092.3,27.662.3,8.246,0,17.292-.087,25.87-.348l-.051-1.655c-21.823.664-46.659.2-53.638.045l-1.405-12.768c4.17.343,16.807,1.283,30.314,1.283a172.246,172.246,0,0,0,24.047-1.413l-.242-1.638c-19.017,2.812-48.283.6-54.3.091l-1.281-11.633c3.332.287,16.482,1.337,30.644,1.337A171.237,171.237,0,0,0,292.1,137.6l-.242-1.638c-19.811,2.928-50.382.4-54.526.037l-1.222-11.1c4.052.352,15.879,1.273,28.753,1.273a167.282,167.282,0,0,0,23.509-1.413l-.243-1.638c-18.915,2.8-46.337.618-52.2.1l-1.08-9.807a5,5,0,0,0-3.912,1.952,3.571,3.571,0,0,0-.859,2.762l4.239,49.679a70.517,70.517,0,0,1-1.428,21.315l-1.713,7.7a8.588,8.588,0,0,0,8.383,10.452h31.182a20.746,20.746,0,0,1,9.305,2.2l1.461.734a2.7,2.7,0,0,0,3.159-.546,2.5,2.5,0,0,0-.473-3.833,26.72,26.72,0,0,0-14.378-4.2h-1.638v-.156l-27.1.261a3.381,3.381,0,0,1-3.326-4.143l.748-3.228H293.22v-1.656H238.866a87.158,87.158,0,0,0,1.832-12.43Z" fill="#d2d2d2"/><path d="M303.384,183.32l23.68,15.832a10.436,10.436,0,0,1,4.371,6.328c2.013,8.732,10.717,26.686,17.2,43.426-2.847,2.914-13.265,8.1-13.265,8.1-9.791-18.9-18.782-38.685-18.782-38.685l-4.723-1.523A88.23,88.23,0,0,1,270.4,188.37l11.9-20.844Z" fill="#043c40"/><path d="M277.652,175.393l-27.486-5.382-5.157,10.763a22.332,22.332,0,0,0,16.353,21.516l29.37,8.841c-8.8,18.162-14.237,40.718-14.237,40.718s3.2,3.663,11.819,3.663c7.392-12.254,18.7-29.4,28.305-43.007,3.11-4.4,3.14-10.221-.934-13.752-13.333-11.556-38.033-23.36-38.033-23.36" fill="#0d7364"/><path d="M311.839,109.569h0a15.179,15.179,0,0,0-8.746-6.4L288.3,99.105l-5.535.994c-17.508,3.144-30.941,14.649-35.081,39.9l-4.072,44.81S259.286,173.6,278,180.774a47.569,47.569,0,0,0,26.629,2.133l-3.059-14A24.212,24.212,0,0,1,302.282,156l7.076-20.951c1.224-2,1.593.684,2.058,1.233a17.951,17.951,0,0,0,12.631-9.066Z" fill="#edac28"/><path d="M307.153,112.493l-3.405-6.965-3.934,6.116-2.04,8.828,6.426-5.466c1.183,1.408,2.787,3.4,4.229,5.466.517-3.383-1.276-7.979-1.276-7.979" fill="#c48c00"/><path d="M270.138,141.448h1.705a4.061,4.061,0,0,0,3.3-1.693l1.309-1.824-6.105-4.13Z" fill="#c48c00"/><polygon points="270.345 136.688 282.323 152.864 323.339 152.864 322.418 145.311 291.56 141.242 287.014 129.646 279.76 127.864 271.553 132.208 270.345 136.688" fill="#f0beb4"/><path d="M302.09,59.714h0a17.284,17.284,0,0,0-18.632,15.821l-.315,3.873A3.234,3.234,0,0,0,278,82.055l.022,3.763a5.048,5.048,0,0,0,4.286,4.959,17.285,17.285,0,0,0,15.876,16.85l3.93.321a13.343,13.343,0,0,0,14.381-12.212l1.418-17.39A17.285,17.285,0,0,0,302.09,59.714" fill="#f0beb4"/><path d="M314.189,80.9a4.784,4.784,0,0,0-4.845,5.074l.314,6.9a1.807,1.807,0,0,1-1.917,1.915l-3.552-.29s2.8,8.06-2.077,13.443l-3.931-.321a17.253,17.253,0,0,1-13.671-8.8l-.011.011,1.818,7.151,9.978,7.728,1.479,6.757,3.169-7.171,4.711-5.549a13.332,13.332,0,0,0,10.838-12.015l1.2-14.718Z" fill="#db9c94"/><path d="M285.416,100.267a17.33,17.33,0,0,1-1.789-3.228,13.954,13.954,0,0,1-2.254,3.336s-.275,13.855,8.28,22.962c2.925-7.9,6.642-9.623,6.642-9.623s-8-7.108-10.879-13.447" fill="#ffb900"/><path d="M299.061,85.123a1.859,1.859,0,1,1-1.7-2,1.858,1.858,0,0,1,1.7,2" fill="#043c40"/><path d="M315.382,86.5a1.859,1.859,0,1,1-1.7-2,1.859,1.859,0,0,1,1.7,2" fill="#043c40"/><path d="M297.774,98.146l11.485.937-2.349,1.065a7.062,7.062,0,0,1-6.677-.454Z" fill="#fff"/><path d="M314.357,64.579l-.313-.148,1.157-3.15-3.36.02a15.869,15.869,0,0,1-5.834-1.087,22.929,22.929,0,0,0-6.4-1.324c-6.3-.513-16.231,2.405-17.2,14.261-.1,1.257-.283,3.483-.466,5.724a3.24,3.24,0,0,1,2.541,3.465l-.354,3.755,2.922.237-.391-10.579a4.063,4.063,0,0,1,1.485-3.291l2.188-1.793a7.586,7.586,0,0,1,8.481-.77l4.4,2.436a4.506,4.506,0,0,0,1.813.547l2.449.2a9.376,9.376,0,0,0,7.848-3.2l4.069-4.7a7.945,7.945,0,0,1-5.042-.6" fill="#665042"/><path d="M293.756,81.662a.769.769,0,0,1-.48-1.37c.131-.105,3.255-2.551,6.82-1.16a.769.769,0,1,1-.56,1.433c-2.744-1.073-5.275.909-5.3.929a.766.766,0,0,1-.48.168" fill="#665042"/><path d="M311.258,82.235a.769.769,0,0,1-.416-1.417c3.218-2.066,6.765-.282,6.914-.2a.769.769,0,0,1-.7,1.369c-.046-.024-2.928-1.444-5.381.131a.764.764,0,0,1-.415.122" fill="#665042"/><path d="M283.484,87.61a1.71,1.71,0,0,1,.311-2.5l.364-.258.093.1.146-1.558a2.429,2.429,0,1,0-4.848-.214l.017,2.814a3.776,3.776,0,0,0,3.468,3.741l.761.062.087-.919a1.716,1.716,0,0,0-.4-1.267" fill="#db9c94"/><path d="M294.5,124.168a1.449,1.449,0,1,0,1.449-1.45,1.448,1.448,0,0,0-1.449,1.45" fill="#c48c00"/><path d="M285.187,124.9c-2.629-6.941-7.332-17.935-14.662-17.446a8.755,8.755,0,0,0-8.671,7.558c-1.533,4.942,1.671,13.33,4.53,19.333,1.952-3.751,7.262-10.91,18.8-9.445" fill="#ffb900"/><path d="M285.68,126.212c-12.269-1.876-17.217,6.454-18.608,9.541,1.67,3.366,3.066,5.7,3.066,5.7s1.724-13.047,16.875-11.8c-.334-.727-.777-1.942-1.333-3.434" fill="#ffb900"/><g clip-path="url(#a)"><path d="M323.309,123.633l-1.091-.592a23.037,23.037,0,0,1-7.306,7.581,55.309,55.309,0,0,0-1.959-6.455l-3.581,10.894,1.368,1.627a19.481,19.481,0,0,0,4.846-1.627,21.52,21.52,0,0,0-.4-3.111,24.594,24.594,0,0,0,8.119-8.317" fill="#c48c00"/></g><path d="M277.21,172.771l6.83,4a19.868,19.868,0,0,0,18.741.725l.646-.313Z" fill="#edac28"/><path d="M290.732,211.131a43.559,43.559,0,0,1,6.668-6.969c-6.672-.9-7.289,4.623-6.668,6.969" fill="#043c40"/><path d="M249.074,166.493h15.9a7.328,7.328,0,0,1,7.329,7.328v25.814a9.039,9.039,0,0,1-3.5,7.144l-.851.659a.829.829,0,0,0,.507,1.485h3.376l2.768-2.144a9.039,9.039,0,0,0,3.5-7.144V172.579a7.329,7.329,0,0,0-7.329-7.329h-27.5a6.417,6.417,0,0,0-6.417,6.492l.026,3.521a.886.886,0,0,0,.885.874h3.986a.929.929,0,0,0,.929-.94l-.026-2.213a6.417,6.417,0,0,1,6.417-6.491" fill="#b2b2b2"/><path d="M238.515,172.985l.022,2.426a.72.72,0,0,1-.719.727h5.737a.787.787,0,0,0,.786-.8l-.026-2.356a6.416,6.416,0,0,1,6.416-6.492h-5.8a6.416,6.416,0,0,0-6.416,6.492" fill="#d2d2d2"/><path d="M272.431,165.25h-5.8a7.329,7.329,0,0,1,7.329,7.329v27.884a9.036,9.036,0,0,1-3.5,7.144l-1.7,1.315h5.174a1.823,1.823,0,0,0,1.12-.382l1.2-.933a9.036,9.036,0,0,0,3.5-7.144V172.579a7.329,7.329,0,0,0-7.329-7.329" fill="#d2d2d2"/><path d="M331.855,251.134a152.772,152.772,0,0,0,14.932-9l2.975,7.425a108.118,108.118,0,0,1-14.125,8.615Z" fill="#0d7364"/><path d="M273.817,267.834l.079-1.992a14.681,14.681,0,0,1,1.971-6.792c1.3-2.242,3.077-5.214,4.575-7.413l.344-.5h10.767l1.88,16.7Z" fill="#043c40"/><path d="M276.308,249.509a41.86,41.86,0,0,1,16.778-.174,60.767,60.767,0,0,0-.585,7.318,41.289,41.289,0,0,0-16.69,1.263Z" fill="#42787a"/><path d="M273.817,267.834h21.3v-1.909a3.112,3.112,0,0,0-.1-.816,7.947,7.947,0,0,0-7.662-5.841h-4.435a7.947,7.947,0,0,0-7.171,4.523Z" fill="#043c40"/><polygon points="356.788 170.011 355.807 203.127 347.174 193.54 346.477 170.011 356.788 170.011" fill="#939393"/><rect x="259.547" y="155.109" width="184.631" height="14.902" fill="#72594b"/><rect x="180.987" y="155.109" width="78.561" height="14.902" fill="#8e7a6f"/><polygon points="284.003 267.834 279.492 267.834 276.591 170.011 286.904 170.011 284.003 267.834" fill="#e6e6e6"/><polygon points="206.173 267.834 201.662 267.834 198.762 170.011 209.074 170.011 206.173 267.834" fill="#b2b2b2"/><polygon points="423.433 267.834 418.921 267.834 416.021 170.011 426.333 170.011 423.433 267.834" fill="#e6e6e6"/><path d="M414.415,53.474a11.044,11.044,0,0,0-4.24.843c0-.139.011-.276.011-.414A21.74,21.74,0,0,0,394.372,32.99v-.824h-5.923a21.743,21.743,0,0,0-21.041,16.266,16.583,16.583,0,0,0-6.428-4.658v-1.2h-6.318v0a16.534,16.534,0,0,0,.12,33.067h59.633a11.083,11.083,0,1,0,0-22.165" fill="#d2d2d2"/><path d="M386.308,118.122a5.507,5.507,0,0,0-3.017-.9H327.8a5.447,5.447,0,0,0-5.079,3.478l-11.822,30a1.883,1.883,0,0,1-1.755,1.2H276.977v3.2h35.774l63.376-3.852.507-1.3,10.491-31.3Z" fill="#b2b2b2"/><path d="M314.248,151.257l-.363.936a4.575,4.575,0,0,1-4.264,2.916h65.007l1.5-3.852Z" fill="#d2d2d2"/><path d="M386.416,118.5H329.99a4.388,4.388,0,0,0-4.09,2.8l-11.144,28.658h61.877l11.344-29.173a1.675,1.675,0,0,0-1.561-2.283" fill="#d2d2d2"/><polygon points="352.799 135.434 353.748 133.047 350.184 133.047 349.236 135.434 352.799 135.434" fill="#fff"/><polygon points="353.708 135.434 356.936 135.434 357.885 133.047 354.657 133.047 353.708 135.434" fill="#fff"/><polygon points="352.464 136.279 348.901 136.279 347.953 138.666 351.515 138.666 352.464 136.279" fill="#fff"/><polygon points="353.373 136.279 352.424 138.666 355.653 138.666 356.6 136.279 353.373 136.279" fill="#fff"/><path d="M420.148,53.474a11.056,11.056,0,0,0-4.241.842c0-.138.011-.274.011-.414a21.739,21.739,0,0,0-42.778-5.47,16.534,16.534,0,1,0-12.627,27.207h31.9v92.984a39.092,39.092,0,0,1-39.047,39.048h-11.21a39.092,39.092,0,0,1-39.047-39.048v-9.565a6.3,6.3,0,0,0-6.288-6.288H285.954a1.242,1.242,0,0,0,0,2.484h10.863a3.809,3.809,0,0,1,3.8,3.8v9.565a41.579,41.579,0,0,0,41.531,41.532h11.21a41.579,41.579,0,0,0,41.531-41.532V75.639h25.255a11.083,11.083,0,0,0,0-22.165m-20.42,17.64h-4.835V67.752a1.242,1.242,0,1,0-2.484,0v3.362H387.6V63.662h12.124Z" fill="#fff"/><polygon points="198.762 170.011 208.776 180.027 209.073 170.011 198.762 170.011" fill="#939393"/></svg>