<svg xmlns="http://www.w3.org/2000/svg" viewBox="0 0 300 300"><title>MSC17-business-004</title><path d="M300,0V300H0V0Z" fill="#c2c2c2"/><path d="M237.818,88.378a60.543,60.543,0,1,1-60.543-60.543,60.543,60.543,0,0,1,60.543,60.543" fill="#d2d2d2"/><path d="M177.275,27.835V88.378h60.543a60.529,60.529,0,0,0-59.231-60.515Z" fill="#e6e6e6"/><path d="M177.275,88.378l37.137,47.815s10.3-7.7,14.69-16.505l-51.827-31.31" fill="#b2b2b2"/><path d="M229.1,119.688l-51.827-31.31h60.543s.574,19.471-8.716,31.31" fill="#fff"/><path d="M152.421,115.509l-6.046.338,3.128,26.5a59.816,59.816,0,0,0,7.288,3.221Z" fill="#c2c2c2"/><path d="M181.329,148.872l-4.869-33.363-6.047.339,4.768,33.121c.7.024,4.806-.007,6.148-.1" fill="#c2c2c2"/><path d="M66.835,258.808H175.563a1.895,1.895,0,0,1,0,3.789H66.835a1.895,1.895,0,0,1,0-3.789" fill="#b2b2b2" fill-rule="evenodd"/><path d="M173.057,115.509l-1.143,12.377H151.247l1.144-12.377H146.8L133.205,262.6H138.8l1.115-12.062h18.475L157.274,262.6h5.594L176.46,115.509Zm-1.623,17.551-1.072,11.608H149.7l1.072-11.608ZM143.493,211.8l1.073-11.607h20.666L164.159,211.8Zm20.188,5.174-1.072,11.608H141.943l1.072-11.608Zm-18.637-21.956,1.073-11.608h20.666l-1.073,11.608Zm1.55-16.782,1.074-11.607h20.666l-1.073,11.607Zm1.551-16.782,1.073-11.607h20.666l-1.073,11.607Zm-7.753,83.91,1.073-11.607h20.666l-1.073,11.607Z" fill="#b2b2b2" fill-rule="evenodd"/><path d="M169.7,115.509l-1.143,12.377H147.89l1.144-12.377h-3.4L132.04,262.6h3.4l1.114-12.062h20.666L156.109,262.6h3.4L173.1,115.509Zm-1.622,17.551-1.072,11.608H146.34l1.073-11.608ZM140.137,211.8l1.073-11.607h20.666L160.8,211.8Zm20.187,5.174-1.071,11.608H138.587l1.072-11.608Zm-18.636-21.956,1.072-11.608h20.667l-1.074,11.608Zm1.55-16.782,1.073-11.607h20.666l-1.072,11.607Zm1.551-16.782,1.073-11.607h20.666l-1.073,11.607Zm-7.753,83.91,1.073-11.607h20.665L157.7,245.36Z" fill="#e6e6e6" fill-rule="evenodd"/><path d="M156.283,145.1c.191-.313.193-.578-.111-.786a.69.69,0,0,0-.886.09l-2.124,2.274-.287-.143,1.86-3.405a.714.714,0,0,0-1.22-.723l-1.071,1.6.458-1.469a.564.564,0,0,0-1.053-.4l-.543,1.218a.767.767,0,0,0-.31-.434.932.932,0,0,0-1.069.464l-2.065,3.921a1.469,1.469,0,0,0-.156.892l.848,6.039-.215,1.721,2.367,1.184,2.756-3.092a5.326,5.326,0,0,0,1.293-4.32l-.367-1.5a1.145,1.145,0,0,1,.21-.977Z" fill="#8e562e"/><path d="M127.5,163.085a2.013,2.013,0,0,0-.323-.833l-.751-1.741-.352-.92.42-.15a.906.906,0,0,0,.224-1.593l-1.808-1.29-.648-1.687a7.47,7.47,0,0,0-9.536-4.549l-1.168.413a7.472,7.472,0,0,0-4.549,9.537L110.4,164.2a7.47,7.47,0,0,0,9.535,4.548l1.77-1.006,1.055,4.879,2.323-.51L124.045,170c-2.046-2.69,1.007-4.157,1.007-4.157l-.023,0,1.422-.808a1.985,1.985,0,0,0,1.045-1.958" fill="#8e562e"/><path d="M157.391,179.417l-1.435.027.549-.626a1.857,1.857,0,0,1,1.4-.634h2.108l-.195-.413a1.546,1.546,0,0,0-2.165-.684l-.134.077-.6-.538a1.334,1.334,0,0,0-1.715-.054l-.367.29-.313-.335a1.583,1.583,0,0,0-1.822-.356l-5,2.316v3.777l4.163.14a3.1,3.1,0,0,0,2.432-1.054l.052-.059,3.154-.374a.753.753,0,0,0-.1-1.5" fill="#8e562e"/><path d="M148.06,178.323h0a4.587,4.587,0,0,1-.115,5.18l-.051.07-15.24,2.854a2.838,2.838,0,0,1-1.324-.066l-15.5-4.552,3.847-6.923,13.333,3.4Z" fill="#282828"/><polygon points="107.568 207.248 109.382 255.987 115.277 255.987 122.53 213.596 134.771 217.903 142.933 239.439 149.508 237.625 142.253 209.742 122.757 200.901 107.568 207.248" fill="#505050"/><path d="M138.058,217.806a7.414,7.414,0,0,0-4.668-4.49c-2.432-.79-5.29-1.718-5.419-1.761,3.853-4,2.267-7.254,2.267-7.254l-5.894,1.36-8.2-1.36-8.607,7.58.486,12.142h.023l1.338,31.964h2.342l2.189-32.847c2.837-.77,5.988-2.207,7.71-4.9.259-1.347.636-3.094.97-4.6l12.178,4.256,8.161,21.536,2.8-.832Z" fill="#282828"/><path d="M128.2,176.531l2.191,5.186a5.968,5.968,0,0,1-.443,5.493l-.7,1.12a4.366,4.366,0,0,0-.665,2.447l.3,10.01-6.348-4.874,2.267-19.042Z" fill="#f3f3f3" fill-rule="evenodd"/><path d="M147.92,153.748l-7.481,13.262-9.987,1.473-.008.032-6.143.857-1.771-3.156-7.364,1.095a1.281,1.281,0,0,0-1.09,1.184l-.149,2.323-1.145.159a9.834,9.834,0,0,0-8.285,11.629s2.278,9.907,2.5,15.234-3.627,12.695-3.627,12.695l4.161,1.346a23.99,23.99,0,0,0,16.743-1.473l7.092-3.387-1.6-4.393c-2.525-6.915-2.509-14.335-1.116-21.563l.59-2.643,14.216-4.035a3.546,3.546,0,0,0,2.294-2.021l6.929-16.691Z" fill="#505050"/><path d="M121.623,169.73l-.793-3.06-6.007.793-.863,3.343-.95.134a10.637,10.637,0,0,0-4.8,1.888,5.539,5.539,0,0,0-.074,2.91,2.567,2.567,0,0,0-.114,3.287c1.361,1.587,5.894,1.813,6.914-3.741,5.918,1.326,5.5-4.215,5.357-5.338Z"/><path d="M120.839,160.422l-.265.094a1.414,1.414,0,0,1-1.8-.859l-.343-.972a1.412,1.412,0,0,1,.859-1.8,1.077,1.077,0,0,1,.72,0,2.921,2.921,0,0,0-.256-.457l-.69-.984a2.394,2.394,0,0,1-.175-2.457,2,2,0,0,1,1.446-1.028l1.716-.311c-1.757-2.522-5.257-2.962-7.616-2.127l-2.4.85a6.382,6.382,0,0,0-3.885,8.145l1.678,4.738a2.744,2.744,0,0,0-.716,4.247,2.93,2.93,0,1,0,4.088,3.969,3.219,3.219,0,0,0,3.133-1.2,1.836,1.836,0,0,0,2.978-1.7c.067-.017.134-.026.2-.049a2.155,2.155,0,0,0,1.312-2.749c-.025-.067-.06-.125-.09-.187l.841-1.763Z"/><path d="M122.814,157.29a.652.652,0,1,0,.652-.651.652.652,0,0,0-.652.651"/><path d="M119.683,165.763a2.423,2.423,0,1,1,2.422-2.423,2.426,2.426,0,0,1-2.422,2.423m0-4.392a1.969,1.969,0,1,0,1.969,1.969,1.972,1.972,0,0,0-1.969-1.969" fill="#fff"/><path d="M121.83,156.961h0a.226.226,0,0,1-.225-.229,1.577,1.577,0,0,1,1.418-1.554l.209-.022a.219.219,0,0,1,.249.2.228.228,0,0,1-.2.249l-.21.021a1.124,1.124,0,0,0-1.01,1.109.228.228,0,0,1-.227.224"/><path d="M126.318,160.2l-1.058.594.265.654a.7.7,0,0,0,.993.354l.361-.252Z" fill="#704322"/><path d="M129.558,177.1l3.06-4.987s-4.874,1.473-3.06,4.987" fill="#282828"/><path d="M109.383,255.987l-.34,6.688h2.38l.849-1.191,3.791.994a3.01,3.01,0,0,0,1.07.2h6.109a2.275,2.275,0,0,0-1.9-2.308l-2.228-.644a2.638,2.638,0,0,1-1.634-.961l-2.2-2.775Z"/><path d="M142.933,239.438l1.077,4.874,2.323-.453.794-1.587h4.817l5.44-1.7-.114-.3a2,2,0,0,0-1.942-1.289l-3.271.118-3.514-1.3Z"/></svg>