<svg xmlns="http://www.w3.org/2000/svg" xmlns:xlink="http://www.w3.org/1999/xlink" viewBox="0 0 636 300"><defs><clipPath id="a"><path d="M189.79,96l.926,1.9s13.979,18.073,17.465,29.8,2.694,26.793,2.694,26.793,9.559-10.464,9.693-22.67-4.163-26.475-4.163-26.475l4.167-8.719-6.259-4.807Z" fill="none"/></clipPath></defs><title>MSC17-collaboration-001</title><path d="M636,0V300H0V0Z" fill="#c2c2c2"/><path d="M442.823,223.145a52.61,52.61,0,0,0-60.665-62.773,30.159,30.159,0,0,0-42.3,40.83,52.647,52.647,0,0,0,62.427,62.483,30.154,30.154,0,0,0,40.54-40.54" fill="#42787a"/><path d="M422.972,251.814v-1.158a4.5,4.5,0,0,0-4.492-4.492h-3.643V237.21h-4.611v16.753h-.563v2.6h-.784l-.419,9.466a26.576,26.576,0,0,0,8.181.881l-.457-10.347H415.4v-2.6h-.562v-6.354h3.643a3.051,3.051,0,0,1,3.048,3.047v1.159a9.927,9.927,0,0,0-1.715,4.5.476.476,0,0,0,.474.513h3.926a.475.475,0,0,0,.473-.513,9.923,9.923,0,0,0-1.714-4.5" fill="#505050"/><polygon points="392.916 190.071 387.427 211.453 375.913 219.246 378.071 223.881 394.562 217.156 395.141 192.324 392.916 190.071" fill="#d8b07f"/><path d="M433.945,224.937l4.346-41.75c.083-.726,2.171-6.574-1.429-6.26l-11.554.641a77.612,77.612,0,0,1-10.41-.12l-10.044-.787a5.7,5.7,0,0,0-5.674,4.793l-9.525,59.15h41.5a6.383,6.383,0,0,0,5.81-9.025Z" fill="#737373"/><path d="M414.929,185.821a116.652,116.652,0,0,1-16.4-.986l.168-1.143c14.776,2.184,36.994.018,37.217,0l.115,1.149c-.15.014-10.077.983-21.1.983" fill="#505050"/><path d="M412.628,194.783a119.435,119.435,0,0,1-16.7-.987l.169-1.143c14.781,2.186,38.142.019,38.377,0l.108,1.151c-.156.015-10.59.983-21.949.983" fill="#505050"/><path d="M411.835,204.033a120.108,120.108,0,0,1-16.778-.986l.167-1.143c14.78,2.185,38.429.018,38.667,0l.107,1.151c-.159.015-10.719.982-22.163.982" fill="#505050"/><path d="M412.6,213.414c-5.754,0-12.065-.061-18.051-.243l.034-1.155c17.833.542,38.564,0,38.772,0l.031,1.155c-.138,0-9.366.243-20.786.243" fill="#505050"/><rect x="393.406" y="222.423" width="38.804" height="1.155" fill="#505050"/><rect x="395.141" y="232.252" width="38.804" height="1.155" fill="#505050"/><path d="M437.243,229.747a49.167,49.167,0,0,1-1-14.874l3.157-35.819a1.884,1.884,0,0,0-3.749-.37l-3.682,33.69a60.911,60.911,0,0,0,1.2,20.4l.67,2.889a2.359,2.359,0,0,1-2.322,2.891l-18.906-.182v.109h-1.143a18.645,18.645,0,0,0-10.033,2.929,1.744,1.744,0,0,0-.33,2.675h0a1.88,1.88,0,0,0,2.2.381l1.02-.512a14.478,14.478,0,0,1,6.493-1.538h21.759a5.992,5.992,0,0,0,5.849-7.293Z" fill="#c2c2c2"/><path d="M367.212,258.9l2-14.233,22.2-4.138a14.965,14.965,0,0,0,10.877-8.508l6.29-13.814-20.426.167-2.627,6.26-23.957,6.848a6.949,6.949,0,0,0-5.058,6.339l-.673,13.306a47.455,47.455,0,0,0,11.373,7.773"/><path d="M408.3,211.039l-9.633,16.94-7.909,3.616a8.808,8.808,0,0,0-4.825,10.371l6.675,22.861a53.14,53.14,0,0,0,9.675-1.141,28,28,0,0,0,2.908,1.263l-2.941-21.68A2.987,2.987,0,0,1,404.9,239.9l7.475-.777a7.3,7.3,0,0,0,6.535-6.845l.19-3.3Z" fill="#021760"/><path d="M396.828,179.43a12.506,12.506,0,0,1,8.861-1.63l4.9-.886c9.169.948,15.391,9.56,14.219,17.644l-5.768,39.765-.709-.57a46.385,46.385,0,0,0-30.606-10.2l-4.578.153,7.154-14.046c2.612-7.188-2.171-24.3,6.524-30.234" fill="#505050"/><path d="M423.542,194.92c-3.449,2.123-12.086,0-12.086,0l3.7,20.773-17.034,7.681-6.658-1.864a3.2,3.2,0,0,0-3.65,1.5l-1.38,2.431,3.217,4.528,10.977-.96.122-.715,21.777-5.469a3.045,3.045,0,0,0,2.3-3.117c-.312-5.742-1.065-19.747-1.29-24.791" fill="#ce9c5f"/><path d="M419.484,161.815h0a2.12,2.12,0,0,0-1.147-.01l.724-2.455a11.383,11.383,0,0,0-21.834-6.445l-3.253,11.021a8.777,8.777,0,0,0,5.5,10.759,5.183,5.183,0,0,1,.878,2.263l.484,3.717c.148,1.14,1.318,2.23,3.458,2.468a6.263,6.263,0,0,0,5.407-1.744,6.126,6.126,0,0,0,1.686-5.226l-.239-1.554a11.348,11.348,0,0,0,5.012-5.631,3.319,3.319,0,0,0,3.807-2.019l.906-2.308a2.141,2.141,0,0,0-1.386-2.836" fill="#ce9c5f"/><path d="M411.145,174.609a11.343,11.343,0,0,1-8.742.966s1.5,6.129,7.774,5.265a6.133,6.133,0,0,0,1.208-4.677Z" fill="#d8b07f"/><path d="M402.6,150.335c-.24-1.325-2-2.726-2-2.726s-2.945,1.652-3.981,7.368l-2.641,8.949a8.783,8.783,0,0,0,5.938,10.913c-1.72-4.463,1.913-8.751,1.913-8.751l-2.252-.665a1.189,1.189,0,0,1-.723-1.63l1.831-4.167a3.2,3.2,0,0,0-.744-3.645h.008s1.02-4.423,2.654-5.647" fill="#d8b07f"/><path d="M407.582,160.956a1.224,1.224,0,1,0,1.52-.827,1.225,1.225,0,0,0-1.52.827"/><path d="M397.084,157.991a1.224,1.224,0,1,0,1.52-.828,1.224,1.224,0,0,0-1.52.828"/><path d="M404.9,169.847l-7.277-2.149,1.189,1.211a4.654,4.654,0,0,0,4.211,1.306Z" fill="#fff"/><path d="M414.292,165.132l1.851.547.673-2.391a2.134,2.134,0,0,1,2.383-1.526c.42-1.421.837-2.831,1.072-3.629,2.218-7.512-3.193-11.662-7.184-12.841a15.137,15.137,0,0,0-4.245-.7,10.477,10.477,0,0,1-3.843-.717l-2.059-.809-.037,2.209-.227.018a5.24,5.24,0,0,1-3.24-.828l1.386,3.853a6.174,6.174,0,0,0,4.061,3.83l1.553.458a2.95,2.95,0,0,0,1.243.093l3.283-.451a5,5,0,0,1,5.028,2.484l.919,1.621a2.672,2.672,0,0,1,.132,2.374Z"/><path d="M411.718,160.508a.432.432,0,0,1-.372-.212,3.97,3.97,0,0,0-3.089-1.867h-.016a.431.431,0,0,1,0-.861h.017a4.772,4.772,0,0,1,3.832,2.293.43.43,0,0,1-.371.647"/><path d="M400.569,156.584a.431.431,0,0,1-.3-.12,3.938,3.938,0,0,0-3.535-.778.43.43,0,1,1-.242-.826,4.766,4.766,0,0,1,4.372.982.431.431,0,0,1-.3.742"/><path d="M418.78,211.893l-4.293-16.4-3.031-.577,3.7,20.773-17.418,7.573L391.4,221.2a3.015,3.015,0,0,0-1.93.021l.721,2.74,8.654,1.106,15.8-5.456a6.441,6.441,0,0,0,4.127-7.719" fill="#d8b07f"/><path d="M352.305,214.3a2.948,2.948,0,0,1,1.567-.607l29.518-2.368a2.908,2.908,0,0,1,2.851,1.634l7.569,15.457a1,1,0,0,0,.984.564l17.111-1.372.137,1.7-19.03,1.526-31.022,2.488-10.1-18.707Z" fill="#e6e6e6"/><path d="M352.264,214.5l30.016-2.408a2.342,2.342,0,0,1,2.3,1.314l7.71,15.924a2.44,2.44,0,0,0,2.392,1.369l2.136-.171L360.1,233.473l-8.566-17.692a.894.894,0,0,1,.733-1.281" fill="#c2c2c2"/><polygon points="358.803 230.816 391.726 228.175 392.051 228.848 359.128 231.488 358.803 230.816" fill="#d2d2d2"/><polygon points="370.869 222.075 370.262 220.846 372.158 220.694 372.764 221.923 370.869 222.075" fill="#fff"/><polygon points="370.385 222.114 368.668 222.252 368.062 221.023 369.778 220.885 370.385 222.114" fill="#fff"/><polygon points="371.083 222.51 372.979 222.358 373.585 223.588 371.69 223.739 371.083 222.51" fill="#fff"/><polygon points="370.6 222.549 371.207 223.778 369.489 223.916 368.883 222.687 370.6 222.549" fill="#fff"/><path d="M359.491,191.174V108.49a3,3,0,0,0-3-3H293.143a3,3,0,0,0-3,3v82.684a3,3,0,0,0,3,3h17.033a5.594,5.594,0,0,1,5.6,5.594V224.23a7.418,7.418,0,0,0,7.418,7.418h36.029l-1.8-3.715H331.836a4.547,4.547,0,0,1-4.547-4.547V199.771a5.594,5.594,0,0,1,5.6-5.594h23.6a3,3,0,0,0,3-3" fill="#f3f3f3"/><path d="M354.851,153.412h-60.1a1.381,1.381,0,0,1-1.381-1.381V110.143a1.38,1.38,0,0,1,1.381-1.381h60.1a1.38,1.38,0,0,1,1.381,1.381v41.888a1.381,1.381,0,0,1-1.381,1.381" fill="#42787a"/><rect x="313.583" y="131.993" width="8.834" height="18.675" fill="#e6e6e6"/><rect x="341.491" y="69.276" width="8.835" height="81.392" fill="#48c4ae"/><rect x="299.629" y="141.112" width="8.834" height="9.556" fill="#fec94e"/><rect x="327.538" y="89.588" width="8.834" height="61.08" fill="#df6c47"/><rect x="293.369" y="158.02" width="37.417" height="3.057" fill="#d2d2d2"/><rect x="293.369" y="163.185" width="37.417" height="3.057" fill="#d2d2d2"/><rect x="293.369" y="168.351" width="28.808" height="3.057" fill="#d2d2d2"/><rect x="382.551" y="45.066" width="10.97" height="10.97" fill="#48c4ae"/><rect x="322.918" y="41.868" width="10.97" height="10.97" fill="#df6c47"/><path d="M387.311,48.354a1.748,1.748,0,0,0-1.747,1.746,1.73,1.73,0,0,0,.1.56L346.713,72.183a1.821,1.821,0,1,0,.382.667l38.967-21.531a1.746,1.746,0,1,0,1.249-2.965M345.434,74.34a.978.978,0,1,1,.977-.976.979.979,0,0,1-.977.976m41.877-23.262a.978.978,0,1,1,.977-.978.979.979,0,0,1-.977.978" fill="#f3f3f3"/><path d="M332.285,91.521l-3.333-42.7a1.749,1.749,0,1,0-.764.074l3.33,42.686a1.743,1.743,0,1,0,.767-.058m-4.859-44.353a.978.978,0,1,1,.978.977.979.979,0,0,1-.978-.977m4.6,47.051a.978.978,0,1,1,.978-.977.979.979,0,0,1-.978.977" fill="#f3f3f3"/><path d="M257.9,186.536A70.795,70.795,0,0,0,175.088,73.544a40.571,40.571,0,0,0-37.378,69.7,70.841,70.841,0,0,0,67.165,63.64,29.1,29.1,0,0,0,.783,2.977A28.779,28.779,0,1,0,257.9,186.536" fill="#42787a"/><path d="M179.982,182.827,178.238,200.3a70.824,70.824,0,0,0,26.637,6.588,29.2,29.2,0,0,0,.783,2.976,28.868,28.868,0,0,0,2.8,6.137l.13-.6.146,1.063A28.812,28.812,0,0,0,236.682,229.6l1.151-50.876-26.71-9.608Z" fill="#282828"/><path d="M283.482,84.524l8.024-6.856a5.52,5.52,0,0,1,4.09-1.893l24.66,1.267-.391,1.1a3.116,3.116,0,0,1-2.936,2.072h-7.5l1.4,4.057a2.508,2.508,0,0,1-.98,2.907l-2.368,1.579a2.512,2.512,0,0,1-1.662.407l-7.443-.805,1.128-2.933-9.024,3.835Z" fill="#cb8c84"/><path d="M291.262,76.654l-7.588,7.675L289,85.889l8.814-5.763a14.057,14.057,0,0,1,8.517-2.267l13.3.782a3.071,3.071,0,0,0,.233-.5l.392-1.1-24.893-1.918a5.2,5.2,0,0,0-4.1,1.53" fill="#db9c94"/><path d="M285.548,80.365l-21.934,15.74-34.866-2.228,0-.007a5.46,5.46,0,0,0-5.885-3.2l-37.822,6.056-.036-.09-10.637,2.267A15.088,15.088,0,0,0,164.4,106.2L145.09,140.112a10.885,10.885,0,0,0,2,13.374l22.526,21.069s5.151-.475,8.322-9.036c0-.118-15.867-20.466-15.867-20.466l13.7-10.607a202.847,202.847,0,0,0,8.633,21.641c-4.974,9.317-7.777,36.3-7.777,36.3s22.59,6.658,35.431-12.128c9.512,5.945,30.2,2.032,30.2,2.032s-7.768-21.256-7.451-31.144c.195-6.075,2.246-16.287,3.8-23.26a23.807,23.807,0,0,0-.8-13.138l25.884-1.028a4.539,4.539,0,0,0,2.8-1.109l27.141-23.587c0-5.644-8.084-8.664-8.084-8.664" fill="#505050"/><path d="M216.406,105.357s1.523,5.663,2.021,8.136a36.251,36.251,0,0,1,2.444-5.422l5.251-.733-7.083-7.626Z" fill="#282828"/><path d="M190.716,97.906s13.979,18.072,17.465,29.8,2.693,26.791,2.693,26.791,9.56-10.463,9.695-22.67-4.164-26.474-4.164-26.474l4.167-8.719-6.258-4.807-22.082-2.044Z" fill="#f5f5f5"/><polygon points="215.472 98.54 216.978 95.528 213.807 93.546 214.441 98.144 215.472 98.54" fill="#d2d2d2"/><path d="M225.566,68.662l-1.333-10.4a19.45,19.45,0,0,0-21.7-16.768l-1.193.153a19.453,19.453,0,0,0-16.769,21.705l1.334,10.4a19.386,19.386,0,0,0,9.99,14.535l-.525,6.77,7.582,5.633L210.32,115.5l5.152-16.963-.793-3.012-.366-3.7a4.459,4.459,0,0,1,2.175-4.21,19.437,19.437,0,0,0,9.078-18.959" fill="#db9c94"/><path d="M225.566,68.662l-1.333-10.4A19.467,19.467,0,0,0,208.75,41.715l-3.028,3.876,3.743,3.236a11.177,11.177,0,0,1,3.867,8.454V58.42a4.377,4.377,0,0,0,2.523,3.965l4.108,1.919a1.9,1.9,0,0,1,.209,3.323s-1.9,1.124-1.962,1.7a5.285,5.285,0,0,0,.812,1.962,6.5,6.5,0,0,1,1.1,3.6l-3.712.749a3.581,3.581,0,0,0,2.39,2.49c1.981.63,2.022,2.253,1.9,3.662a11.048,11.048,0,0,1-9.572,1.795l-8.449-2.427a.678.678,0,0,0-.711,1.083l2.836,3.434a13.586,13.586,0,0,1,3.087,7.889l.861,18.785,1.573,3.16,5.152-16.963-.793-3.012-.366-3.7a4.459,4.459,0,0,1,2.175-4.21,19.437,19.437,0,0,0,9.078-18.959" fill="#cb8c84"/><path d="M205.841,62.927a1.807,1.807,0,1,1-1.807-1.807,1.806,1.806,0,0,1,1.807,1.807" fill="#282828"/><path d="M222.378,59.924a1.807,1.807,0,1,1-1.807-1.806,1.807,1.807,0,0,1,1.807,1.806" fill="#282828"/><path d="M210,71.986l-.81,3.669s-1.786-2.781.81-3.669" fill="#cb8c84"/><polygon points="202.948 100.689 198.285 108.092 207.95 110.743 202.948 100.689" fill="#d2d2d2"/><g clip-path="url(#a)"><path d="M216.406,105.357l-1.014,2.457,2.811,11.862a20.025,20.025,0,0,1-.114,9.7l-.21.8a20.021,20.021,0,0,1-8.273,11.59l-.714,15.436,8.878.4,9.354-38.127Z" fill="#d2d2d2"/></g><polygon points="220.572 96.638 220.862 106.011 216.998 103.811 220.572 96.638" fill="#d2d2d2"/><path d="M199.262,169.706l-8.817-2.673a2.346,2.346,0,0,0-1.1-.064s-9.832,1.36-11.85,1.184l-.423-.58-.207.488c-1.19,2.2-3.263,4.889-5.935,6.114l2.1,2.234a7.862,7.862,0,0,0,10.432.9l2.6-1.947,3.408,1.411,1.182,3a2.378,2.378,0,0,0,2.485,1.49l.883-.1-1.344-5.934-3.19-1.587,4.287.784,2.057,3.089A2.739,2.739,0,0,0,199,178.583l.969-.328-1.776-3.829.678.8a2.882,2.882,0,0,0,3.378.762l.783-.353Z" fill="#db9c94"/><path d="M201.759,40.676a19.757,19.757,0,0,0-10.383,3.616,8.363,8.363,0,1,0-7.971,13.62,35.173,35.173,0,0,0-.591,4.265c-1.444,18.544,13.077,26.108,13.077,26.108s-7.794-6.559-3.617-14.464c.244-.463.464-.908.673-1.345.424,4.619.9,9.161,1.271,11.175,4.469-9.072,2.462-19.6,1.178-24.306a25.25,25.25,0,0,1,.6-7.193c1.9-7.769,14.88-7.274,19.081-2.519,3.334,3.774,4.5,4.622,9.275,5.786-2.933-11.414-10.146-15.694-22.591-14.743m-12.286,33.13c-5.54-2.268-3.884-10.715.634-10.3.951,4.517-.634,10.3-.634,10.3" fill="#72594b"/><path d="M189.339,73.084l-4.028,4.029,4.028,4.028,4.028-4.028Zm-1.9,4.029,1.9-1.9,1.9,1.9-1.9,1.9Z" fill="#f5f5f5"/><path d="M211.247,73.265l11.675-1.951-.319.666c-1.751,3.662-5.655,5.014-8.708,3.017Z" fill="#f5f5f5"/><path d="M292.9,86.163l-.049-.088c-.029-.053-.065-.1-.1-.154l-22.318,17.946a4.053,4.053,0,0,1-4.608.326,1.163,1.163,0,0,0-1.743.83l-.226,1.534a4.075,4.075,0,0,1-4.791,3.408l-26.061-4.947,4.8,9.735,25.884-1.027a4.546,4.546,0,0,0,2.8-1.11l27.141-23.587a6.114,6.114,0,0,0-.733-2.866" fill="#282828"/><path d="M175.776,134.446l9.2-6.595s-1.632,10.889-6.554,13.991a41.29,41.29,0,0,1-2.644-7.4" fill="#282828"/><path d="M226.43,59.9l-.4-2.5a2.5,2.5,0,0,0-2.868-2.074l-7.238,1.2a1.481,1.481,0,0,0-.741.35l-.831-.293a4.712,4.712,0,0,0-4.21.549l-1.113.758a1.507,1.507,0,0,0-.506-.011l-9.183,1.467c-.432.069-10.218,4.094-10.218,4.094a.576.576,0,0,0,.215,1.11.567.567,0,0,0,.215-.042l7.728-3.1a2.509,2.509,0,0,0-.014.8l.4,2.5a3.356,3.356,0,0,0,3.307,2.823,3.306,3.306,0,0,0,.531-.043l6.5-1.039a3.35,3.35,0,0,0,2.78-3.838l-.558-3.493a1.475,1.475,0,0,0-.189-.521l.749-.512a3.564,3.564,0,0,1,3.179-.413l.7.247a1.535,1.535,0,0,0,.015.317l.558,3.493c0,.019.011.036.014.054l1.715.94a2.184,2.184,0,0,1-.591-1.175l-.559-3.493a.339.339,0,0,1,.286-.39l7.237-1.2a1.349,1.349,0,0,1,1.545,1.118l.4,2.5a2.2,2.2,0,0,1-1.83,2.519l-4.563.773a2.139,2.139,0,0,1-.783-.024l1.846,1.013,3.687-.625a3.35,3.35,0,0,0,2.78-3.838M209.262,64.43a2.19,2.19,0,0,1-1.433.882l-6.506,1.039a2.2,2.2,0,0,1-2.519-1.825l-.4-2.5a1.35,1.35,0,0,1,1.119-1.544l9.182-1.468a.339.339,0,0,1,.389.282l.558,3.493a2.185,2.185,0,0,1-.391,1.637" fill="#737373"/><path d="M496.254,73.256a27.422,27.422,0,0,0-41.573-23.485,47.878,47.878,0,0,0-54.833,30.06,19.758,19.758,0,0,0-2.076-.111,19.449,19.449,0,1,0,4.207,38.436A47.843,47.843,0,0,0,491.8,88.23a27.278,27.278,0,0,0,4.455-14.974" fill="#42787a"/><rect x="417.635" y="33.045" width="10.97" height="10.97" fill="#df6c47"/><rect x="408.698" y="51.804" width="10.97" height="10.97" fill="#fff"/><rect x="384.133" y="81.538" width="10.97" height="10.97" fill="#df6c47"/><rect x="399.862" y="42.838" width="10.97" height="10.97" fill="#48c4ae"/><path d="M440.963,58.8l-2.078,8.984a4.963,4.963,0,0,0,2.984-3.771l.5-3.017a1.614,1.614,0,0,0-.569-1.511Z" fill="#b2b2b2"/><path d="M437.291,39.538s-1.459,2.271-1.214,6.892c1.591-2.319,3.527-5.978,3.527-5.978Z" fill="#4d2f27"/><path d="M450.752,144.021a47.549,47.549,0,0,0,19.307-6.882,45.891,45.891,0,0,0-1.422-8.689l-.916-3.441-17.393-2.2-.047-2.334-17.537,3.029-1.715,8.275q0,5.4.382,10.773a47.813,47.813,0,0,0,13.274,1.87,46.95,46.95,0,0,0,4.784-.253l0,.013c.269-.027.531-.071.8-.1.161-.018.322-.034.482-.054Z"/><path d="M403.772,70.054c-1.7-4.608-5.264-11.452-5.264-11.452s-5.6-6.122-7.129-7.92c-.079.048-.154.1-.225.143a1.654,1.654,0,0,0-.6,2.033,24.622,24.622,0,0,0,4.552,6.557L392.4,58.8l-2.917,1.553-1.443,3.214.347.122a1.567,1.567,0,0,0,.523.089l-.813,1.043.309.2a1.57,1.57,0,0,0,1.905-.146l.179.117a1.309,1.309,0,0,0,1.656-.183l.775-.8.856-.212,1.543,1.288c.038.259.089.514.144.769a2.749,2.749,0,0,1-2.779.982,6.565,6.565,0,0,0-5.231-.708,1.834,1.834,0,0,0-1.368,1.63l-.006.063a.442.442,0,0,0,.533.457c2.189-.437,4.577,1.082,5.015,1.377l0,.013,6.635,3.485a16.716,16.716,0,0,0,4.023,6.523l.373.374,6.048-3.123ZM392.7,60.924l.663.325-2.433.618.011-.019Z" fill="#bb9167"/><path d="M484.621,97.649,466.5,75.71v0a7.213,7.213,0,0,0-3.746-2.506l-4.611-1.285a45.434,45.434,0,0,0-18.092-1.288l-5.166.675a7.2,7.2,0,0,0-3.851,1.753h0l0,.006a7.227,7.227,0,0,0-1.123,1.266L417.5,88.307,404.836,70.448l-6.925,4.028,14.14,25.562a5.083,5.083,0,0,0,7.934,1.339L430.571,91.6l2.514,15.862-4.22,23.209s11.049,8.888,42.483,2.38c-2.176-10.011-3.358-15.473-5.4-20.8a14.066,14.066,0,0,1-.836-6.663l1.61-13.73,8.7,8.1-8.144,15.851,1.584,1.287a3.8,3.8,0,0,0,5.442-.684l10.428-14.058a3.776,3.776,0,0,0-.113-4.7" fill="#e6e6e6"/><path d="M479.167,124.758l-2.2-.195,2.36-1.48-.177-.435a1.138,1.138,0,0,0-1.414-.668l-2.043.666-2.193-4.073a5.714,5.714,0,0,0-5.35-2.995l-.823.047.268,3.4.845,7.271a3.223,3.223,0,0,0,1.985,2.657l3.492,1.379,3.686-.34.031-.544a.891.891,0,0,0-.852-.969l-2.136-.041-.936-1.076,6.249-.935.085-.3a1.05,1.05,0,0,0-.874-1.367" fill="#bb9167"/><path d="M456.723,71.125h0l-.369-.183a4.16,4.16,0,0,1-2.295-3.314l-.036-.358a12.922,12.922,0,0,0,7.587-11.764V49.323a12.93,12.93,0,0,0-25.86,0v6.183a12.926,12.926,0,0,0,7.776,11.855,4.373,4.373,0,0,1-1.486,2.764,50.772,50.772,0,0,0-7.157,1.183l6.543,6.815a10.989,10.989,0,0,0,15.3.536l6.023-5.452a28.711,28.711,0,0,0-6.027-2.082" fill="#bb9167"/><path d="M450.277,69.436l-3.59-1.829a8.118,8.118,0,0,1-4.261-5.583c-.19-.92-.4-1.97-.616-3.1l-2.537-.175a1.548,1.548,0,0,1-1.177-2.335l2.563-4.279c-.99-6.848,4.494-10.75,4.494-10.75s.335-1.185-.878-.78c1.087-1.806-.385-2.3-2.356-2.292a12.91,12.91,0,0,0-6.169,11.006v6.183a12.927,12.927,0,0,0,7.776,11.855c0,.032-.016.061-.021.093-.132.414-.761,2.267-1.588,2.656a32.758,32.758,0,0,0-7.034,1.2l2.513,2.618c2.511-.7,3.8-.432,6.12-.442,1.717-.007,2.37-1.391,2.862-3.036l.145-.526Z" fill="#d8b07f"/><path d="M449.09,52.826a1.184,1.184,0,1,1-1.183-1.183,1.183,1.183,0,0,1,1.183,1.183"/><path d="M438.416,52.826a1.184,1.184,0,1,1-1.184-1.183,1.183,1.183,0,0,1,1.184,1.183"/><path d="M439.32,60.9l.469,1.11a1.115,1.115,0,0,0,.967.68l1.454.081a3.517,3.517,0,0,0,1.983-.481L446.378,61l-5.176-.009Z" fill="#c446b4"/><path d="M439.32,60.9l.561-.674a.835.835,0,0,1,1.145-.133l.507.383.486-.416a1.225,1.225,0,0,1,1.219-.216L446.378,61l-4.242.466a2.579,2.579,0,0,1-.954-.073Z" fill="#b4009e"/><path d="M450.4,71.538l.031,2.315a.712.712,0,0,0,.828.767.939.939,0,0,0,.627-1.111l-.28-1.293a.635.635,0,0,0-.46-.508Z" fill="#d8b07f"/><path d="M431.029,73.061l0,.006a7.252,7.252,0,0,0-1.123,1.265L417.5,88.307,404.836,70.448l-1.581.919s8.93,12.767,11.9,16.542a6,6,0,0,0,.944,6.607l2.293-5.529,1.348,5.529s7.551-8.36,9.979-12.271,7.681-8.319,7.681-8.319l-2.514-2.618a7.2,7.2,0,0,0-3.852,1.754Z" fill="#fff"/><path d="M433.783,133.051l5.289-15.913a16.5,16.5,0,0,0-.978-12.74l-2.163-3.066a12.84,12.84,0,0,1-1.753-11.264l2.211-7.014L430.571,91.6l2.514,15.863-4.22,23.21a31.457,31.457,0,0,0,4.918,2.38" fill="#fff"/><path d="M450.8,50.982a.432.432,0,0,1-.294-.115,3.758,3.758,0,0,0-5.323-.008.43.43,0,0,1-.6-.614,4.652,4.652,0,0,1,6.513-.009.431.431,0,0,1-.293.746" fill="#4d2f27"/><path d="M439.763,50.36a.425.425,0,0,1-.208-.054,3.162,3.162,0,0,0-3.58-.059.43.43,0,1,1-.451-.733,3.977,3.977,0,0,1,4.449.039.431.431,0,0,1-.21.807" fill="#4d2f27"/><path d="M457.33,37.647c-2.813-1.68-6.221-2.92-9.424-1.988a48.275,48.275,0,0,1-13.023,1.386s1.959,6.385,8.416,4.519c12.129.647,12.346,8.693,12.346,8.693a42.213,42.213,0,0,0,.558,4.526l.352-3.235a2.024,2.024,0,1,1,4.021.461l-.267,2.218a3.062,3.062,0,0,1-2.846,2.69l-.793.051c.619,2.469,1.593,4.888,3.111,5.806,1.828-2.15,2.855-9.116,3.285-13.793a11.935,11.935,0,0,0-5.736-11.334" fill="#4d2f27"/><path d="M455.962,57.836l1.273,9.132a4.96,4.96,0,0,0,1.437-4.589l-.614-2.994a1.616,1.616,0,0,0-1.073-1.208Z" fill="#b2b2b2"/></svg>