<svg xmlns="http://www.w3.org/2000/svg" xmlns:xlink="http://www.w3.org/1999/xlink" viewBox="0 0 300 300"><defs><clipPath id="a"><path d="M147.545,124.644l-1.574,12.625a6.89,6.89,0,0,0,5.35,7.583l13.357,2.957a15.386,15.386,0,0,0-17.133-23.165" fill="none"/></clipPath></defs><title>MSC17-cloud-008</title><path d="M300,0V300H0V0Z" fill="#001363"/><path d="M33.921,108.3a10.428,10.428,0,0,0-6.372,6.762,10.428,10.428,0,0,0-6.372-6.762,10.428,10.428,0,0,0,6.372-6.762,10.428,10.428,0,0,0,6.372,6.762" fill="#fff"/><path d="M33.921,108.3a10.428,10.428,0,0,0-6.372,6.762,10.428,10.428,0,0,0-6.372-6.762,10.428,10.428,0,0,0,6.372-6.762,10.428,10.428,0,0,0,6.372,6.762" fill="#fff"/><path d="M238.253,189.307a2.333,2.333,0,1,1-2.333-2.334,2.333,2.333,0,0,1,2.333,2.334" fill="#fff"/><path d="M102.679,54.012a2.334,2.334,0,1,1-2.334-2.334,2.334,2.334,0,0,1,2.334,2.334" fill="#fda84c"/><path d="M274.169,60.454a1.635,1.635,0,1,1-1.634-1.634,1.633,1.633,0,0,1,1.634,1.634" fill="#1070c4"/><path d="M178.673,217.651a1.635,1.635,0,1,1-1.635-1.635,1.634,1.634,0,0,1,1.635,1.635" fill="#3864a3"/><path d="M245.386,97.254a1.635,1.635,0,1,1-1.634-1.635,1.635,1.635,0,0,1,1.634,1.635" fill="#3864a3"/><path d="M50.581,195.959a2.335,2.335,0,1,1,1.427,2.977,2.335,2.335,0,0,1-1.427-2.977" fill="#fda84c"/><path d="M17.491,144.376a2.334,2.334,0,1,1,1.426,2.977,2.334,2.334,0,0,1-1.426-2.977" fill="#3864a3"/><path d="M81.733,241.53a2.335,2.335,0,1,1-3.03-1.309,2.335,2.335,0,0,1,3.03,1.309" fill="#3864a3"/><path d="M68.712,125.015a1.634,1.634,0,1,1-2.122-.916,1.633,1.633,0,0,1,2.122.916" fill="#fda84c"/><path d="M73.66,78.009a1.634,1.634,0,1,1-2.122-.916,1.635,1.635,0,0,1,2.122.916" fill="#3864a3"/><path d="M130.949,97.272a1.634,1.634,0,1,1-2.123-.917,1.634,1.634,0,0,1,2.123.917" fill="#fff"/><path d="M200.851,158.9a2.334,2.334,0,1,1,2.113-2.536,2.334,2.334,0,0,1-2.113,2.536" fill="#3864a3"/><path d="M217.122,103.644a1.635,1.635,0,1,1,1.479-1.776,1.636,1.636,0,0,1-1.479,1.776" fill="#fda84c"/><path d="M158.736,109.087a1.635,1.635,0,1,1,1.48-1.777,1.636,1.636,0,0,1-1.48,1.777" fill="#3864a3"/><path d="M276.167,118.9a2.334,2.334,0,1,1,3.006-1.363,2.333,2.333,0,0,1-3.006,1.363" fill="#fda84c"/><path d="M66.192,151.842a2.333,2.333,0,1,1-3.287.286,2.333,2.333,0,0,1,3.287-.286" fill="#fda84c"/><path d="M281.765,155.6a1.634,1.634,0,1,1-2.3.2,1.635,1.635,0,0,1,2.3-.2" fill="#3864a3"/><path d="M282.058,199.808a1.634,1.634,0,1,1-2.3.2,1.634,1.634,0,0,1,2.3-.2" fill="#fda84c"/><path d="M223.592,225.922a2.333,2.333,0,1,1,2.292-2.376,2.334,2.334,0,0,1-2.292,2.376" fill="#3864a3"/><path d="M143.422,247.489a1.635,1.635,0,1,1,1.6-1.664,1.635,1.635,0,0,1-1.6,1.664" fill="#fda84c"/><rect x="179.902" y="101.334" width="1.49" height="2.075" fill="#939292"/><path d="M235.562,55.46a12.277,12.277,0,0,0-4.256.756,31.01,31.01,0,1,0-61-10.552,18.983,18.983,0,0,0-30.029,14.772A10.483,10.483,0,1,0,135.211,80.1H235.562a12.319,12.319,0,0,0,0-24.637" fill="#fff"/><path d="M109.1,92.6a.96.96,0,0,0-.967-1.18l-12.869.441a.959.959,0,0,0-.9.739l-2.737,11.586a3.05,3.05,0,1,0,1.217,3.2l.012-.056h0l2.429-10.277,10.88-.373-1.67,7.066a3.05,3.05,0,1,0,1.217,3.2l.012-.055h0Z" fill="#1070c4"/><path d="M92.023,157.781l-8.181-16.127a1.668,1.668,0,0,0-2.241-.732l-24.66,12.512a1.665,1.665,0,0,0-.733,2.24l7.658,15.1a3.025,3.025,0,0,0,4.067,1.329l24.025-12.187.911-.463,7.943-4.029-.513-1.012-7.288,3.7a.734.734,0,0,1-.988-.323" fill="#c2c1c1"/><path d="M55.3,156.135a1.667,1.667,0,0,1,.733-2.24l24.662-12.511a1.666,1.666,0,0,1,2.241.733l9.025,17.793-25.041,12.7-3.424-.324Z" fill="#939292"/><rect x="71.33" y="155.226" width="3.571" height="3.571" transform="translate(-63.119 50.06) rotate(-26.896)" fill="#d2d2d2"/><path d="M91.128,158.271,63.493,172.29l.1.192a1.622,1.622,0,0,0,2.18.713L93.24,159.278a1.386,1.386,0,0,1-1.9-.59Z" fill="#737374"/><path d="M202.177,186.658c-1.208-2.6-5.144-6.432-6.666-7.859a2.357,2.357,0,0,0-1.416-.629h0l-.354-.31a1,1,0,0,0-.77-.243l-2.4.267a1.8,1.8,0,0,0-1.275.756l-.376.537-2.774,1.292-.158.073-2.775,1.292-.653-.06a1.8,1.8,0,0,0-1.4.488l-1.75,1.665a.991.991,0,0,0-.31.745l.01.472h0a2.356,2.356,0,0,0-.431,1.489c.112,2.084.51,7.563,1.719,10.16,1.062,2.284,2.641,2.536,3.483,2.486a.767.767,0,0,0,.7-.584l1.151-4.718a3.559,3.559,0,0,1,1.956-2.383l2.832-1.317.157-.073,2.832-1.318a3.558,3.558,0,0,1,3.082.038l4.351,2.159a.766.766,0,0,0,.9-.159c.581-.611,1.4-1.982.342-4.265" fill="#fff"/><path d="M187.49,187.558l-.763.355a.143.143,0,0,1-.189-.069l-.355-.763a.143.143,0,0,0-.189-.069l-.748.348a.143.143,0,0,0-.068.189l.355.762a.143.143,0,0,1-.069.19l-.763.355a.142.142,0,0,0-.069.189l.347.747a.143.143,0,0,0,.19.069l.763-.355a.143.143,0,0,1,.189.069l.355.763a.141.141,0,0,0,.189.069l.746-.347a.142.142,0,0,0,.07-.189l-.355-.764a.142.142,0,0,1,.069-.189l.763-.354a.144.144,0,0,0,.069-.19l-.348-.747a.142.142,0,0,0-.189-.069" fill="#737373"/><path d="M193.653,185.3a1.681,1.681,0,1,1-2.233-.815,1.68,1.68,0,0,1,2.233.815" fill="#737373"/><path d="M183.709,186.111a1.681,1.681,0,1,1-2.233-.815,1.68,1.68,0,0,1,2.233.815" fill="#737373"/><path d="M194.527,182.389a.592.592,0,1,1-.785-.287.592.592,0,0,1,.785.287" fill="#737373"/><path d="M193.375,179.914a.592.592,0,1,1-.785-.287.59.59,0,0,1,.785.287" fill="#737373"/><path d="M194.4,180.288a.592.592,0,1,1-.287.787.591.591,0,0,1,.287-.787" fill="#737373"/><path d="M191.928,181.44a.592.592,0,1,1-.287.786.593.593,0,0,1,.287-.786" fill="#737373"/><path d="M193.633,188.051l-1.98.921-2.486,1.156-1.98.922a4.19,4.19,0,0,0-2.37,3.134l-.82,5.077a.766.766,0,0,0,.581-.567l1.151-4.718a3.559,3.559,0,0,1,1.956-2.383l2.832-1.318.157-.073,2.831-1.318a3.561,3.561,0,0,1,3.083.039l4.351,2.158a.762.762,0,0,0,.9-.158l.062-.068-4.339-2.6a4.2,4.2,0,0,0-3.924-.2" fill="#d2d2d2"/><rect x="231.673" y="127.576" width="8.997" height="12.337" transform="translate(-22.591 215.638) rotate(-47.085)" fill="#c2c1c1"/><path d="M221.365,139.752l-.839-.419a2.287,2.287,0,0,0-2.684.461l-5.406,6.61,16.585,8.293,5.405-6.612a1.338,1.338,0,0,0-.591-2.1l-12.47-6.235" fill="#ed8422"/><rect x="221.622" y="136.985" width="14.548" height="10.835" fill="#e6e6e5"/><path d="M225.641,139.992l.141-1.091a.52.52,0,0,0-.282-.527l-3.564-1.781a.515.515,0,0,0-.59.09l-.788.766a.522.522,0,0,1-.595.093l-.838-.419a1.83,1.83,0,0,0-2.457.818l-4.232,8.463,16.586,8.292,4.231-8.463a1.832,1.832,0,0,0-.82-2.457l-6.51-3.255a.519.519,0,0,1-.282-.529" fill="#fda84c"/><path d="M165.246,202.748a1.635,1.635,0,1,1,.05,2.311,1.633,1.633,0,0,1-.05-2.311" fill="#fff"/><path d="M183.739,138.269l-.351-2.5a9.913,9.913,0,0,1,.512-4.791l.3-.823,3.246-1.207,1.531-2.133,6.17-.464,3.758,1.855-1.088,3.263a17.676,17.676,0,0,1-5.3,7.862l-1.589,1.354Z" fill="#1070c4"/><path d="M194.872,154.164a25.523,25.523,0,0,1-6.237-.889l.368-1.437c5.09,1.3,9.218,1.078,10.513-.579.691-.884.562-2.221-.384-3.974a52.511,52.511,0,0,0-2.979-4.714c-2.687-3.928-5.225-7.638-5.225-13.857h1.485c0,5.76,2.412,9.286,4.965,13.019a53.453,53.453,0,0,1,3.06,4.848c1.56,2.889,1,4.635.248,5.592-1.03,1.318-3.074,1.991-5.814,1.991" fill="#fff"/><rect x="186.236" y="106.201" width="10.878" height="12.138" fill="#d2d2d2"/><rect x="187.902" y="110.676" width="1.49" height="2.075" fill="#939292"/><rect x="193.451" y="110.676" width="1.49" height="2.075" fill="#939292"/><rect x="197.114" y="106.201" width="2.358" height="12.138" fill="#fff"/><path d="M194.88,130.11h-2.211c-2.922,0-5.959-2.369-5.959-5.291l9.918-8.14h3.543v8.14a5.291,5.291,0,0,1-5.291,5.291" fill="#d2d2d2"/><path d="M196.629,124.819v-8.14h-11.2v8.14a5.29,5.29,0,0,0,5.29,5.291h.616a5.291,5.291,0,0,0,5.291-5.291" fill="#939292"/><path d="M118.458,174.605a4.055,4.055,0,0,1-3.063-5.433l9.683-25.416a6.65,6.65,0,0,1,7.634-4.007l19.213,4.339-13.64,34.13Z" fill="#1066b0"/><path d="M183.057,137.818l-6.541,16.818L159.6,153.024l-9.682-2.8s-10.3-2.2-15.665-2.037c-.34.01-.665.028-.977.053l-21.033.026a7.354,7.354,0,0,0-7.155,5.929l-4.019,20.336,8,.588,5.012-14.314,9.578-.645-1.941,5.521-5.7,16.784.262,1.2-11.42,25.765-14.447.28-2.775,5.362,17.8,7.065c5.279,1.244,7.891-.819,10.591-4.164l10.712-15.475,10.626,15.48-10.8,15.853,4.63,4.4,17.914-12.762a7.137,7.137,0,0,0,2.035-7.938l-6.9-22.175a6.663,6.663,0,0,1-.222-3.744l.422-1.838a89.892,89.892,0,0,0,14.97-23.849l19.221.183a8.645,8.645,0,0,0,8.369-6.182l3.691-14.85Z" fill="#459bdd"/><path d="M176.83,156.748l1.632,5.206-14.067-.222c.729-1.514,3.737-7.108,8.221-7.468l-3.205-.323c-4.043,1.606-6.356,6.337-6.965,7.76l-1.427-.022-1.643,4.368,21.776.349a4.474,4.474,0,0,0,4.488-2.775c.488-1.136,1.059-2.765,1.141-2.983-2.313-5.023-9.951-3.89-9.951-3.89" fill="#1070c4"/><path d="M130.872,243.761l1.2-5.047h0L145.991,227.7c-7.526-1.569-8.623-9.721-8.623-9.721l-12.686,14.7-5.372,4.244a2.407,2.407,0,0,0-.366,3.418l6.357,10.5a3.288,3.288,0,0,0,2.406,1.56l3.752.465c1.492-.989,1.606-2.494,1.041-4.194Z" fill="#1066b0"/><polygon points="183.057 137.818 192.077 140.104 190.701 145.075 181.283 142.122 183.057 137.818" fill="#1066b0"/><path d="M131.75,158.582l-17.364-.3c-.247-4.514-5.575-4.374-5.575-4.374l5.269,6.9h0l9.41-.364c-.344.87-1.131,2.941-1.774,5.239a15.414,15.414,0,0,0,8.924-5.515h0Z" fill="#1070c4"/><path d="M145.289,197.465a1.081,1.081,0,0,0-1.524-.606l-3.125,1.635a3.058,3.058,0,0,0-1.407,3.864l3.445,8.42a3.059,3.059,0,0,0,3.416,1.842l2.908-.668a1.083,1.083,0,0,0,.782-1.406Z" fill="#1070c4"/><path d="M104.857,209.425l-16.38-1.867-3.35-1.813A3.536,3.536,0,0,0,80,208.058l-3.6,15.574,1.5-.446c1.69.591,2.6-.405,3.611-1.881l2.339-3.466,4.809-2.409c4.41,1.485,11.737,5.093,16.782,6.7a15.83,15.83,0,0,1-.581-12.709" fill="#1066b0"/><path d="M116.944,214.833l-4.127-2.383a2.3,2.3,0,0,1-.838-3.157l5.5-9.421a2.3,2.3,0,0,1,3.119-.845l4.613,2.6a2.256,2.256,0,0,1,.785,3.193l-6.035,9.293a2.256,2.256,0,0,1-3.019.724" fill="#1070c4"/><path d="M146.247,186.362c-1.826-.323-5.305-.893-9.487-1.919,8.513-11.549,13.358-29.612,13.408-29.8l-1.436-.379c-.049.185-4.964,18.5-13.529,29.78a64.749,64.749,0,0,1-17.135-6.917,1.231,1.231,0,0,0-1.813.853c-.314,1.618-.733,3.75-1,5.081a1.818,1.818,0,0,0,.883,1.935,68,68,0,0,0,16.817,6.441c-1.366,4.1-3.454,8.958-6.19,11.2l.94,1.149c3.049-2.5,5.288-7.706,6.714-12.017a55.569,55.569,0,0,0,8.909,1.185,1.521,1.521,0,0,0,1.42-.822c.513-1,1.551-2.863,2.271-4.147a1.1,1.1,0,0,0-.776-1.623" fill="#1066b0"/><path d="M87.387,209.471s-2.625,1.517-1.6,4a6.13,6.13,0,0,0-4.377,4.14l-.9,2.787a3.146,3.146,0,0,1-3.4,2.15l-.44-.058-.271,1.141.988.346a3.968,3.968,0,0,0,4.582-1.5l2.924-4.26,3.734-1.65c4.409,1.487,11.772,3.953,16.817,5.563-1.508-1.961-1.653-7.109-1.653-7.109l-15.819-2.943Z" fill="#09538f"/><path d="M145.992,227.7a10.657,10.657,0,0,1-5.857-3.425c-9.278,6.557-8.067,14.443-8.067,14.443Z" fill="#09538f"/><path d="M147.062,227.3s-6.683-.558-7.855-8.782c4.76-2.608,12.076-2.178,12.076-2.178s2.674,8.7-4.221,10.96" fill="#1070c4"/><path d="M115.6,218.03c-2.125.242-6.145-1.057-9.485-5.757-2.659,6.494.309,10.143.309,10.143s4.342,2.126,9.36-3.557c.253-.286.2-.872-.184-.829" fill="#1070c4"/><path d="M138.77,188.206a88.146,88.146,0,0,1-23.817-3.5C94.5,178.79,86.921,169.12,84.226,163.882l1.32-.679c9.676,18.805,47.577,27.079,65.357,22.108,4.013-1.123,8.727-3.429,8.4-8.049-.947-13.456,1.326-22.26,6.757-26.17,4.789-3.446,10.223-1.777,12.337-.9l-.57,1.371c-1.883-.782-6.717-2.276-10.9.734-4.916,3.537-7.04,12.134-6.144,24.86.308,4.383-3.058,7.786-9.482,9.583a47.577,47.577,0,0,1-12.533,1.465" fill="#fff"/><path d="M109.938,175.8l1.874,3.577a2.711,2.711,0,0,1,.246,1.838l-1.028,4.657-1.919.277-.409.946a1.584,1.584,0,0,1-3-.288l-.144-.658-.274.039a2.391,2.391,0,0,1-2.692-1.974l-1.036-.123a2.853,2.853,0,0,1-2.118-1.368l-.249-.414.032-4.593,4.073-5.038,5.415.218Z" fill="#1070c4"/><polygon points="109.98 175.423 101.073 174.531 102 169.208 111.127 170.147 109.98 175.423" fill="#1066b0"/><path d="M184.2,130.151l.14-4.546,3.2-3.478.622.409a1.438,1.438,0,0,1,.357,2.067l-1.49,1.977.882,3.85Z" fill="#1070c4"/><path d="M166.6,142.178a15.262,15.262,0,1,1-12.369-17.509c8.363,1.576,13.945,9.145,12.369,17.509" fill="#459bdd"/><path d="M165.132,147.049a17.532,17.532,0,0,0-25.739,1.611,15.376,15.376,0,0,0,25.739-1.611" fill="#1070c4"/><path d="M164.679,147.81a15.389,15.389,0,0,0-17.133-23.166l-1.4,12.39a6.929,6.929,0,0,0,5.253,7.684Z" fill="#2b3e86"/><g clip-path="url(#a)"><path d="M163.467,140.716c-.684-1.055-1.443-2.234-2.124-3.3l.938-.7a1.282,1.282,0,0,0-.449-2.269l-2.858-.73a11.184,11.184,0,1,0-10.235,17.836c4.035.474,10.008-3.016,13.625-5.46a3.917,3.917,0,0,0,1.1-5.38" fill="#cd9b5e"/><path d="M150.831,139.342a4.712,4.712,0,0,1-.4-3.169c.77-2.812,3.526-3.443,3.527-6.272-1.558-2.681-6.124-3.217-7.681-1.526s-1.8,15.363-1.8,15.363l8.663,4.434,5.455,1.411s-.758-4.5-2.374-6.376-4.2-1.591-5.387-3.865" fill="#4f3e34"/><path d="M153.783,136.265a.4.4,0,0,1-.4-.336,3.13,3.13,0,0,1,.445-2.137,2.241,2.241,0,0,1,1.551-.885.4.4,0,1,1,.118.8,1.443,1.443,0,0,0-1.012.556,2.325,2.325,0,0,0-.3,1.532.407.407,0,0,1-.333.465.5.5,0,0,1-.067,0" fill="#4f3e34"/><path d="M157.651,135.9a.978.978,0,1,1-.858-1.086.978.978,0,0,1,.858,1.086" fill="#17234e"/><path d="M162.1,138.587l-2.973,1.582a3.718,3.718,0,0,0,4.134.193c-.177-.281-1.161-1.775-1.161-1.775" fill="#fff"/></g></svg>