<svg xmlns="http://www.w3.org/2000/svg" viewBox="0 0 300 300"><title>MSC17-business-012</title><rect x="-1.923" width="303.846" height="300" fill="#e6e6e6"/><rect x="-1.517" y="220.396" width="303.44" height="79.162" fill="#939393"/><polygon points="59.766 112.704 59.766 136.294 51.56 136.294 51.56 176.807 40.791 176.807 40.791 204.499 35.919 204.499 35.919 161.422 22.073 161.422 22.073 199.883 -1.517 199.883 -1.517 220.395 301.923 220.395 301.923 207.575 284.124 207.575 284.124 183.473 275.92 183.473 275.92 168.601 263.099 168.601 263.099 212.191 251.816 212.191 251.816 184.499 239.509 184.499 239.509 155.268 218.996 134.755 218.996 195.781 206.689 195.781 206.689 185.524 188.226 185.524 188.226 203.986 174.38 203.986 174.38 182.961 139.509 182.961 139.509 203.986 127.714 203.986 127.714 181.935 112.329 181.935 112.329 203.986 99.766 203.986 99.766 176.807 80.278 176.807 80.278 136.294 72.073 136.294 72.073 112.704 59.766 112.704" fill="#d2d2d2"/><path d="M255.331,36.78a7.386,7.386,0,0,0-3.188.72,13.774,13.774,0,0,0-27.12-3.052A9.537,9.537,0,1,0,219.3,51.616h36.029a7.418,7.418,0,1,0,0-14.836" fill="#fff"/><path d="M112.691,65.644a9.641,9.641,0,0,0-3.341.593,24.343,24.343,0,1,0-47.885-8.282,14.9,14.9,0,0,0-23.573,11.6,8.229,8.229,0,1,0-3.977,15.434h78.776a9.67,9.67,0,1,0,0-19.34" fill="#fff"/><path d="M198.788,90.834l-.679-1.856a.844.844,0,0,0-1.085-.5l-1.6.59a1.9,1.9,0,0,0,.277.47l-2.214,1.3.74,1.082,3.3-1.256a5.679,5.679,0,0,0,1.258.174" fill="#8c6943"/><path d="M256.716,269.608h-115.8a2.28,2.28,0,0,1,0-4.559h115.8a2.28,2.28,0,1,1,0,4.559" fill="#737373"/><path d="M231.314,134.868a7.12,7.12,0,1,0-8.943,6.873v24.91H206.409V85.211a7.12,7.12,0,1,0-3.647,0v82.507l-24.945,24.945H141.978V172.521l-10.85-10.85,39.251-39.25V76.147a7.112,7.112,0,1,0-3.648-.108v44.87l-7.472,7.473-26.8-26.8V64a7.119,7.119,0,1,0-3.648,0v39.1l27.866,27.865-28.131,28.131-9.782-9.782V116.827a7.12,7.12,0,1,0-3.647,0v31.414H89.853V72.17a7.119,7.119,0,1,0-3.648,0v79.719h29.982l22.143,22.143V204.57H125.277l-13.939-13.939V175.248a7.12,7.12,0,1,0-3.647,0v16.893l16.075,16.077H138.33v61.409h3.648V196.311h37.35L205.34,170.3h20.679V141.741a7.124,7.124,0,0,0,5.295-6.873M165.294,69.22a3.471,3.471,0,1,1,3.471,3.471,3.475,3.475,0,0,1-3.471-3.471m-38.129-12.1a3.472,3.472,0,1,1,3.472,3.471,3.477,3.477,0,0,1-3.472-3.471M84.559,65.3a3.471,3.471,0,1,1,3.47,3.471,3.475,3.475,0,0,1-3.47-3.471m28.913,44.657a3.471,3.471,0,1,1,3.47,3.47,3.475,3.475,0,0,1-3.47-3.47m-7.43,58.421a3.472,3.472,0,1,1,3.473,3.472,3.476,3.476,0,0,1-3.473-3.472m95.071-90.037a3.472,3.472,0,1,1,3.472,3.471,3.477,3.477,0,0,1-3.472-3.471m23.082,60a3.471,3.471,0,1,1,3.471-3.471,3.476,3.476,0,0,1-3.471,3.471" fill="#b2b2b2"/><path d="M165.231,186.8l-2.177,4.726a1.09,1.09,0,0,0,.592,1.47l4.168,1.631,2.607,2.342a6.466,6.466,0,0,0,6.051,1.422,1,1,0,0,0,.494-1.62l-3.129-3.643a4.58,4.58,0,0,1-1.083-2.506l-.381-3.594Z" fill="#704322"/><path d="M207.746,160.236l-.414,5.378a.977.977,0,0,0,.975,1.053h14.056a1.473,1.473,0,0,0,1.47-1.373.947.947,0,0,0-.758-.994l-6.4-1.28-3.648-4.483Z" fill="#704322"/><path d="M196.4,94.381l-1.419-1.443a.046.046,0,0,1-.013-.031v-.121a9.294,9.294,0,0,0-8.471-9.38,9.082,9.082,0,0,0-9.665,9.708,8.9,8.9,0,0,0,3.428,6.375l-3.218,5.725,8.492.626,1.184-1.859a5.263,5.263,0,0,1,4.439-2.436h.076a3.735,3.735,0,0,0,3.735-3.735v-.994a.709.709,0,0,1,.645-.706l.157-.014a1.011,1.011,0,0,0,.63-1.715" fill="#bb9167"/><path d="M205.469,139.476a4.827,4.827,0,0,0-4.024-2.813l-5.883-.453a7.343,7.343,0,0,1-2.217-6.677,77.479,77.479,0,0,0,1.162-16.643l11.6-4.65a3.644,3.644,0,0,0,2.1-4.539L204.059,91.29l-4.635,3.115,2.184,8.852-10.079,1.436-.363-.321a2.322,2.322,0,0,0-2.5-.38l-.814.368-4.309,1.333c-1.38-.381-1.643-2.629-3.047-2.344l-6.628,1.344a5.416,5.416,0,0,0-3.489,2.4v11.27l1.267,12.063a15,15,0,0,1-.336,5.094l-2.584,10.7,3.86.248,2.067,19.053-11.17,21.5,9.043,1.748,10-19.206a13.345,13.345,0,0,0,1.506-6.02l.155-15.281,15.085-1.437,7.751,16.032,7.75-2.962Z" fill="#282828"/><path d="M187.405,103.221l.64-.42,2.963,3.647-1.653.685,1.653.8.107,2.35a46.772,46.772,0,0,1-1.341,14.8l-.247.97Z" fill="#505050"/><path d="M188.473,107.988l-.313-1.2.084-4.16-.236-.053a2.183,2.183,0,0,0-.472.44,6.483,6.483,0,0,1-5.589-.3,6.289,6.289,0,0,1-2.307-2.536l-2.023,3.648,2.719,1.563.259.5a32.6,32.6,0,0,1,3.693,16.6l-.631,14.054,4.217-.227,1.5-9.212a46.114,46.114,0,0,0-.9-19.111" fill="#fff"/><path d="M188.5,130.156l-4.71,3.385-.134,3,4.217-.228.327-2c-.717.023-1.823.04-3.347.01,3.02-.684,3.647-4.16,3.647-4.16" fill="#e6e6e6"/><polygon points="186.506 104.967 188.558 127.363 186.05 129.7 184.132 126.528 184.711 105.993 185.822 104.568 186.506 104.967" fill="#0078d7"/><polygon points="186.706 105.366 188.159 106.791 187.076 103.229 186.706 105.366" fill="#e6e6e6"/><polygon points="185.338 103.4 183.143 107.104 181.15 106.135 181.548 106.819 183.457 107.988 185.338 104.055 185.338 103.4" fill="#e6e6e6"/><path d="M176.647,104.34l1.58-2.233a.471.471,0,0,1,.788.027l1.5,2.47a38.44,38.44,0,0,1,3.614,21.506l-6.344-16.983,1.994-1.538-2.792-.4Z" fill="#505050"/><path d="M185.338,103.4l-.627,2.593,1.692-.1a.525.525,0,0,0,.5-.483l.179-2.185Z" fill="#0078d7"/><path d="M192.233,92.258a.769.769,0,1,1-.769-.769.769.769,0,0,1,.769.769"/><path d="M188.1,82.456c-3.362-.912-7.237.627-8.32-.683a1.767,1.767,0,0,0,.455,2.393s-4.445-.114-5.185,2.109c1.595-.513,2.279.113,2.279.113s-4.958,7.978,2.85,13.051A5.381,5.381,0,0,0,183.45,95.5l-.5-.1a2.408,2.408,0,0,1-1.938-2.53l.024-.346a1.641,1.641,0,1,1,3.271.259l-.228,2.571,1.971.263.492-4.426a1.958,1.958,0,0,0-.311-1.293,1.96,1.96,0,0,1,.668-2.78l.825-.47A3.652,3.652,0,0,1,190,86.2l2.776.357a7.591,7.591,0,0,0-4.673-4.1"/><polygon points="194.941 97.027 192.548 97.14 192.775 97.672 194.971 97.811 194.941 97.027" fill="#8c6943"/><path d="M189.675,91.155a.342.342,0,0,1-.05-.68l2.874-.433a.338.338,0,0,1,.39.286.344.344,0,0,1-.287.39l-2.876.433a.292.292,0,0,1-.051,0"/><path d="M202.492,90.406l-.883-2.165c-.343-1-2.228-1.857-3.277-1.966l-6.355-.257-.745-.122a1.16,1.16,0,0,0,1.214,1.035l2.267-.115L191.094,87.9l.032.108a1.168,1.168,0,0,0,1.5.784l.437-.123.089.184a1.12,1.12,0,0,0,1.434.557l.843-.342.531.577a3.693,3.693,0,0,0,2.777,1.191h.055l.711,1.624,3.334-1.8Z" fill="#ab845f"/><path d="M202.606,90.122l-.779-2.268c-.341-1-1.473-2.007-3.467-2.092l-7.152-.086.024.22a1.14,1.14,0,0,0,.109.354l4.83.236a3.371,3.371,0,0,1,.646.1l.932.233a3.406,3.406,0,0,1,2.462,2.417l.656,2.437,1.878-1.216Z" fill="#bb9167"/><polygon points="199.728 94.196 199.043 92.031 202.729 89.562 203.451 91.726 199.728 94.196" fill="#fff"/><path d="M196.971,143.379l.933-3.231s-6.306,1.672-8.054,4.863a43.144,43.144,0,0,0,2.383-4.991,5.1,5.1,0,0,0,3.468-3.671l-.579.489a5.055,5.055,0,0,1-7.1-.565l-4.406.3-.612,3.514a7.888,7.888,0,0,1-8.275,6.52l-2.213-.141.157,1.124,3.613,1.622a10.146,10.146,0,0,0,4.843.865l.214-.015,2.685,13.487.143-14.074.057-.938,8.458-1.124,6.582-.582,7.75,16.032-6.459-20.136Z"/><path d="M194.485,113.021l1.671-6.61s1.293,1.52.38,4.331c6.383-3.116,10.03-5.015,10.03-5.015l.778-4.618.91,2.325a4.144,4.144,0,0,1-2.427,5.256Z"/><path d="M170.322,90.149v1.323a3.743,3.743,0,0,0-1.994-.156l-1.908.39-.962,8.894,3.285,2.163,1.959-4.1.219-.206a1.326,1.326,0,0,0,.066-1.859l.067-.05a1.879,1.879,0,0,0,.494-2.434l.183-.366a1.409,1.409,0,0,0,0-1.25,1.952,1.952,0,0,0,2.013-1.1l.069-.2Z" fill="#bb9167"/><polygon points="164.319 102.155 165.306 99.952 169.486 102.079 168.346 104.663 164.319 102.155" fill="#fff"/><path d="M166.731,114.49l2.6-9.979-5.053-3.533-5.5,12.105a5.571,5.571,0,0,0-.075,4.439,3.25,3.25,0,0,0,.3.559,3.155,3.155,0,0,0,3.788,1.167l3.007-1.2.929-.371Z" fill="#282828"/><rect x="-1.923" width="303.846" height="300" fill="none"/><rect x="-1.923" width="303.846" height="300" fill="none"/></svg>