<svg xmlns="http://www.w3.org/2000/svg" xmlns:xlink="http://www.w3.org/1999/xlink" viewBox="0 0 300 300"><defs><clipPath id="a"><path d="M67.809,181.582l1.428,1.468a25.887,25.887,0,0,0,12.931,7.214l9.5,2.11,1.325-3.029-17.039-8.709-2.273-1.7Z" fill="none"/></clipPath></defs><title>MSC17-business-008</title><path d="M300,0V300H0V0Z" fill="#d2d2d2"/><rect x="110.7" y="220.47" width="28.072" height="25.624" fill="#1070c4"/><path d="M266.876,211.845h-6.624v-1.64h6.624Zm-8.308,0h-6.626v-1.64h6.626Zm-8.31,0h-6.625v-1.64h6.625Zm-8.308,0h-6.625v-1.64h6.625Zm-8.309,0h-6.626v-1.64h6.626Zm-8.309,0h-6.624v-1.64h6.624Zm-8.309,0H210.4v-1.64h6.625Zm-8.308,0h-6.626v-1.64h6.626Zm-8.31,0H193.78v-1.64h6.625Zm-8.308,0h-6.625v-1.64H192.1Zm-8.309,0h-6.625v-1.64h6.625Zm-8.309,0h-6.625v-1.64h6.625Zm-8.308,0h-6.626v-1.64h6.626Zm-8.309,0h-6.625v-1.64h6.625Zm-8.309,0h-6.625v-1.64h6.625Zm-8.309,0h-6.626v-1.64h6.626Zm-8.309,0H127.31v-1.64h6.625Zm-8.309,0H119v-1.64h6.625Zm-8.308,0h-6.625v-1.64h6.625Zm-8.31,0h-6.625v-1.64h6.625Z" fill="#fff"/><path d="M266.876,236.445h-6.624v-1.64h6.624Zm-8.308,0h-6.626v-1.64h6.626Zm-8.31,0h-6.625v-1.64h6.625Zm-8.308,0h-6.625v-1.64h6.625Zm-8.309,0h-6.626v-1.64h6.626Zm-8.309,0h-6.624v-1.64h6.624Zm-8.309,0H210.4v-1.64h6.625Zm-8.308,0h-6.626v-1.64h6.626Zm-8.31,0H193.78v-1.64h6.625Zm-8.308,0h-6.625v-1.64H192.1Zm-8.309,0h-6.625v-1.64h6.625Zm-8.309,0h-6.625v-1.64h6.625Zm-8.308,0h-6.626v-1.64h6.626Zm-8.309,0h-6.625v-1.64h6.625Zm-8.309,0h-6.625v-1.64h6.625Zm-8.309,0h-6.626v-1.64h6.626Zm-8.309,0H127.31v-1.64h6.625Zm-8.309,0H119v-1.64h6.625Zm-8.308,0h-6.625v-1.64h6.625Zm-8.31,0h-6.625v-1.64h6.625Z" fill="#fff"/><path d="M266.876,187.247h-6.624v-1.64h6.624Zm-8.308,0h-6.626v-1.64h6.626Zm-8.31,0h-6.625v-1.64h6.625Zm-8.308,0h-6.625v-1.64h6.625Zm-8.309,0h-6.626v-1.64h6.626Zm-8.309,0h-6.624v-1.64h6.624Zm-8.309,0H210.4v-1.64h6.625Zm-8.308,0h-6.626v-1.64h6.626Zm-8.31,0H193.78v-1.64h6.625Zm-8.308,0h-6.625v-1.64H192.1Zm-8.309,0h-6.625v-1.64h6.625Zm-8.309,0h-6.625v-1.64h6.625Zm-8.308,0h-6.626v-1.64h6.626Zm-8.309,0h-6.625v-1.64h6.625Zm-8.309,0h-6.625v-1.64h6.625Zm-8.309,0h-6.626v-1.64h6.626Zm-8.309,0H127.31v-1.64h6.625Zm-8.309,0H119v-1.64h6.625Zm-8.308,0h-6.625v-1.64h6.625Zm-8.31,0h-6.625v-1.64h6.625Z" fill="#fff"/><path d="M266.876,162.648h-6.624v-1.64h6.624Zm-8.308,0h-6.626v-1.64h6.626Zm-8.31,0h-6.625v-1.64h6.625Zm-8.308,0h-6.625v-1.64h6.625Zm-8.309,0h-6.626v-1.64h6.626Zm-8.309,0h-6.624v-1.64h6.624Zm-8.309,0H210.4v-1.64h6.625Zm-8.308,0h-6.626v-1.64h6.626Zm-8.31,0H193.78v-1.64h6.625Zm-8.308,0h-6.625v-1.64H192.1Zm-8.309,0h-6.625v-1.64h6.625Zm-8.309,0h-6.625v-1.64h6.625Zm-8.308,0h-6.626v-1.64h6.626Zm-8.309,0h-6.625v-1.64h6.625Zm-8.309,0h-6.625v-1.64h6.625Zm-8.309,0h-6.626v-1.64h6.626Zm-8.309,0H127.31v-1.64h6.625Zm-8.309,0H119v-1.64h6.625Zm-8.308,0h-6.625v-1.64h6.625Zm-8.31,0h-6.625v-1.64h6.625Z" fill="#fff"/><path d="M266.876,138.05h-6.624v-1.64h6.624Zm-8.308,0h-6.626v-1.64h6.626Zm-8.31,0h-6.625v-1.64h6.625Zm-8.308,0h-6.625v-1.64h6.625Zm-8.309,0h-6.626v-1.64h6.626Zm-8.309,0h-6.624v-1.64h6.624Zm-8.309,0H210.4v-1.64h6.625Zm-8.308,0h-6.626v-1.64h6.626Zm-8.31,0H193.78v-1.64h6.625Zm-8.308,0h-6.625v-1.64H192.1Zm-8.309,0h-6.625v-1.64h6.625Zm-8.309,0h-6.625v-1.64h6.625Zm-8.308,0h-6.626v-1.64h6.626Zm-8.309,0h-6.625v-1.64h6.625Zm-8.309,0h-6.625v-1.64h6.625Zm-8.309,0h-6.626v-1.64h6.626Zm-8.309,0H127.31v-1.64h6.625Zm-8.309,0H119v-1.64h6.625Zm-8.308,0h-6.625v-1.64h6.625Zm-8.31,0h-6.625v-1.64h6.625Z" fill="#fff"/><path d="M40.451,256.164h214.56a2.684,2.684,0,1,0,0-5.368H40.451a2.684,2.684,0,1,0,0,5.368" fill="#c2c2c2"/><path d="M188.936,94.02a6.79,6.79,0,0,0-4.879,2.06c.024-.313.039-.629.039-.948a12.509,12.509,0,0,0-23.329-6.275v-.07A18.854,18.854,0,1,0,123.445,92.6a10.129,10.129,0,1,0-8.855,15.045h74.346a6.811,6.811,0,1,0,0-13.621" fill="#fff"/><path d="M233.4,53.7a4.9,4.9,0,0,0-2.1.476c.008-.158.012-.316.012-.476a9.863,9.863,0,0,0-19.687-.88,6.729,6.729,0,1,0-5.4,10.744H233.4a4.932,4.932,0,0,0,0-9.864" fill="#fff"/><path d="M109.105,201.148h0a2.381,2.381,0,0,0,2.381-2.382v-4.14a2.38,2.38,0,0,0-2.381-2.38Z" fill="#f3f3f3"/><polygon points="93.416 190.324 104.618 196.681 104.173 197.466 92.297 190.701 93.416 190.324" fill="#d2d2d2"/><polygon points="70.589 181.22 55.223 184.241 63.359 168.347 68.603 176.127 70.589 181.22"/><path d="M78.489,155.95a4.082,4.082,0,0,0-3.9,2.913,2.844,2.844,0,0,0-3.742,4.181c-.04,0-.076-.012-.115-.012a3.339,3.339,0,1,0,3.333,3.4,2.368,2.368,0,0,0,.508.058,2.28,2.28,0,0,0,2.3-2.681,4.094,4.094,0,1,0,1.615-7.856"/><path d="M65.441,253.01l-2.752-4.171a9.979,9.979,0,0,1-1.582-4.343l-.342-2.951-6.33-.092.719,5.447,7.378,8.185Z" fill="#665042"/><path d="M53.855,253.541l1.023,2.522h1.784l-.057-2.522a9.078,9.078,0,0,1,5.466,2.47l.116.11h7.635a.561.561,0,0,0,.34-1.007c-1.17-.909-3.029-2.1-4.721-2.1l-2.852,1.27-7.435-7.38a19.853,19.853,0,0,0-1.3,6.641"/><path d="M57.211,253.01l-2.751-4.171a9.993,9.993,0,0,1-1.583-4.343l-.342-2.951-6.33-.092.719,5.447,7.379,8.185Z" fill="#72594b"/><path d="M41.527,182.1l-4.579,8.1c-1.429,5.24,2.213,8.043,4.579,12.933l11.8,41.586H63.359s-7.954-26.481-7.954-47.063l.31-12.38Z"/><path d="M107.247,195.7a34.793,34.793,0,0,0-3.892.172l-7.3-4.143,3.17-7.625L96.1,182.333l3.434-6.053a1.537,1.537,0,0,0-.578-2.1l-1.536-.872a1.537,1.537,0,0,1,.578,2.1l-3.435,6.052-5.27-2.991-15.132,20.4a1.247,1.247,0,0,0,.386,1.827l13.159,7.468a1.248,1.248,0,0,0,1.767-.606l1.132-2.723c5.824-5.064,13.32-6.749,16.618-7.267a6.5,6.5,0,0,0,2.4,4.231V191.6a6.5,6.5,0,0,0-2.381,4.1M95.7,192.58l6.126,3.477a28.618,28.618,0,0,0-8.645,2.58Z" fill="#939393"/><path d="M91.075,181.847a.863.863,0,0,0,1.43-.137l4.043-7.127a1.538,1.538,0,0,1,2.1-.577l-1.536-.872a1.537,1.537,0,0,0-2.1.579l-3.435,6.052-2.033-1.154L86.67,176.98a5.5,5.5,0,0,0-8.215,4.88l.19,10.962-4.483,6.043a1.247,1.247,0,0,0,.386,1.827l10.546,5.985,5.661-23.5,7.163,4.064.287-.689-7.27-4.125Zm-11.25,9.386-.163-9.394a4.294,4.294,0,0,1,6.413-3.809l2.495,1.416Z" fill="#b2b2b2"/><path d="M68.6,153.924c.826-.113,1.646-.223,2.361-.317a9.443,9.443,0,0,1,2.22-8.32,9.593,9.593,0,0,1,14.125.063c3.179,3.41,3.024,7.3,1.668,10.763l-.416,1.643a8.724,8.724,0,0,0-.266,2.211l.014,1.729c-.012.448-.438.641-.876.376l-1.05-.682a.387.387,0,0,0-.519.092c-.662.873-1.323,1.647-1.908,2.288a2.9,2.9,0,0,1-4.059.214c-.991-.874-2.2-1.944-3.31-2.924a2,2,0,0,0-1.852-.43,25.32,25.32,0,0,0-2.89.994c-2.635,1.081-4.8-2.779-4.8-2.779Z" fill="#72594b"/><path d="M84.292,163.392l-.829-1.055-.94.861a2.125,2.125,0,0,1-2.573-.205l-2.006-1.669a5.887,5.887,0,0,0-5.874-.968l-2.649,1.017a2.644,2.644,0,0,0,2.422.251,25.72,25.72,0,0,1,2.89-.994,2,2,0,0,1,1.852.431c1.106.979,2.319,2.049,3.31,2.924a2.9,2.9,0,0,0,4.059-.215c.11-.12.223-.249.338-.378" fill="#665042"/><path d="M84.515,151.425a2.907,2.907,0,0,0-4.874-2.152,3.812,3.812,0,0,0-5.206,4.524,2.6,2.6,0,0,0-2.278,1.728,2.282,2.282,0,1,0,.475,2.563,2.6,2.6,0,0,0,4.587-1.558,3.782,3.782,0,0,0,4.44-2.194,2.914,2.914,0,0,0,2.856-2.911" fill="#665042"/><path d="M84.08,163.649s-1.751-1.106-.532-3.746a29.789,29.789,0,0,1,.871,3.4Z" fill="#eb4f5d"/><path d="M85.48,161.991,83.547,159.9a3.939,3.939,0,0,0,.872,3.4c.338-.4,1.061-1.311,1.061-1.311" fill="#fff"/><path d="M82.182,159.857a1.675,1.675,0,0,1,2.785,0Z" fill="#665042"/><path d="M65.9,155.427a2.06,2.06,0,1,1-2.06-2.061,2.06,2.06,0,0,1,2.06,2.061"/><path d="M74.207,175.833l4.3-1.7a2.339,2.339,0,0,1,2.922,1.08l2.335,4.4-.422.282a1.8,1.8,0,0,1-2.324-.282l-.825.535a1.284,1.284,0,0,1-1.507-.082l-1.832-1.494H74.112Z" fill="#665042"/><g clip-path="url(#a)"><path d="M75.951,180.636l-1.515,3.154a.837.837,0,0,0,.458,1.145l17.594,6.678-1.509,1.76-17.113-4.3-6.056-5.884,2.936-3.645Z" fill="#665042"/></g><path d="M45.625,253.541l1.023,2.609h1.784l-.057-2.609a9.078,9.078,0,0,1,5.466,2.47l.116.11h7.635a.561.561,0,0,0,.341-1.007c-1.17-.909-3.03-2.1-4.722-2.1l-2.851,1.27-7.436-7.38a19.853,19.853,0,0,0-1.3,6.641" fill="#505050"/><path d="M90.234,149.068a7.69,7.69,0,0,0-7.3-7.677,2.529,2.529,0,0,0-3.33-.021h-.152a2.892,2.892,0,0,0-4.77.723,7.714,7.714,0,0,0-2.6,1.969,3.018,3.018,0,0,0-.406-.04,2.887,2.887,0,0,0-2.459,4.421,3.02,3.02,0,0,0-2.581,2.982,2.773,2.773,0,0,0,.028.276,2.152,2.152,0,0,0-.644-.108,2.178,2.178,0,0,0-.838,4.189,1.652,1.652,0,0,0-.245.86,1.674,1.674,0,0,0,3.094.89,2.98,2.98,0,0,0,4.362-.316,2.611,2.611,0,0,0,4.519-1.789c0-.075-.016-.147-.022-.22l.253-.02a7.174,7.174,0,0,0,4.155-1.75,2.8,2.8,0,0,0,.5.049,2.723,2.723,0,0,0,2.723-2.722,1.682,1.682,0,0,0,1.121-.436,2.449,2.449,0,0,0,2.122,1.229,2.475,2.475,0,0,0,2.476-2.475l0-.014Z"/><path d="M85.424,157.486a1.446,1.446,0,0,0-.661-1.144.767.767,0,1,1,.665,1.144Z"/><path d="M87.222,155.587a.245.245,0,0,1-.2-.1,1.892,1.892,0,0,0-2.344-.556.243.243,0,0,1-.191-.446,2.4,2.4,0,0,1,2.932.724.244.244,0,0,1-.059.337.25.25,0,0,1-.14.043"/><path d="M101.342,195.782h-.56a1.347,1.347,0,0,1-1.251-.848l-.756-1.894.32.1.647.987a.831.831,0,0,0,.6.37l.649.079-.364-2.243-2.522-.976-5.112-2.009-17.039-8.709-2.272-1.7-5.87,2.65,1.429,1.468a25.868,25.868,0,0,0,12.93,7.214l9.5,2.11,1.325,1.01,1.988,3.636a2.763,2.763,0,0,0,2.978,1.382l2.642-.541a2.256,2.256,0,0,0,1.428-.961l.354-.53Z" fill="#72594b"/><path d="M130.56,203.052a.452.452,0,0,1-.307-.12,22.7,22.7,0,0,0-14.332-6,.453.453,0,0,1,.042-.905,23.6,23.6,0,0,1,14.9,6.243.452.452,0,0,1-.307.785" fill="#49cdf3"/><path d="M134.4,207.645a.456.456,0,0,1-.383-.209q-.321-.508-.67-1a.453.453,0,0,1,.737-.526q.362.507.7,1.035a.453.453,0,0,1-.381.7" fill="#49cdf3"/><path d="M136.446,211.7a.453.453,0,0,1-.422-.289c-.2-.508-.413-1.014-.644-1.5a.452.452,0,0,1,.818-.387c.241.508.466,1.035.671,1.564a.452.452,0,0,1-.259.585.475.475,0,0,1-.164.03" fill="#49cdf3"/><path d="M127.619,194.487a.454.454,0,0,1-.166-.032A19.383,19.383,0,0,0,114.2,194.1a.452.452,0,0,1-.286-.858,20.291,20.291,0,0,1,13.871.375.453.453,0,0,1-.167.874" fill="#49cdf3"/><path d="M134.7,199.259a.454.454,0,0,1-.328-.14,19.494,19.494,0,0,0-2.591-2.276.453.453,0,0,1,.535-.73,20.359,20.359,0,0,1,2.712,2.382.452.452,0,0,1-.328.764" fill="#49cdf3"/><path d="M139.132,206.642a.452.452,0,0,1-.43-.309c-.2-.612-.441-1.22-.7-1.806a.453.453,0,1,1,.826-.37c.274.613.522,1.249.736,1.89a.452.452,0,0,1-.286.572.475.475,0,0,1-.143.023" fill="#49cdf3"/><path d="M121.686,201.741a.44.44,0,0,1-.24-.07,16.244,16.244,0,0,0-4.507-1.96.452.452,0,1,1,.231-.874,17.066,17.066,0,0,1,4.758,2.069.452.452,0,0,1-.242.835" fill="#49cdf3"/><path d="M127.912,208.846a.453.453,0,0,1-.411-.263,16.354,16.354,0,0,0-1.2-2.145.453.453,0,0,1,.756-.5,17.187,17.187,0,0,1,1.261,2.263.453.453,0,0,1-.411.643" fill="#49cdf3"/><path d="M75.951,180.636l-5.465-15.145,2.405-2.025a33.188,33.188,0,0,0-4.135-8.958c-11.026,1.472-25.445,10.051-35.632,34.913A24.448,24.448,0,0,0,36,192.356a22.509,22.509,0,0,0,2.222,10.783l7.34,41.586H55.593l-3.01-32.712q-.522-5.662-.511-11.354c-8.9-.49-13.179-4.965-14.8-7.253,4.215,3.283,11.28,6.84,19.5,3.093l.726-6.985a11.333,11.333,0,0,1,5.269-9.152l1.331-.841c-1.723-3.875.01-9.35.01-9.35l1.987,8.287-.015.046,2.662,8.442,22.33,7.194.632-5.7Z" fill="#505050"/><polygon points="70.486 165.491 68.402 159.61 71.625 164.587 70.486 165.491"/><path d="M90.444,191.982a.6.6,0,1,0-.605.6.6.6,0,0,0,.605-.6"/><polygon points="130.473 253.638 119.148 253.638 111.366 243.987 111.366 232 138.161 232 138.161 244.501 130.473 253.638" fill="#49cdf3"/><polygon points="180.21 189.53 160.38 189.53 160.38 183.198 152.685 186.523 152.685 189.53 145.771 189.53 145.771 192.725 147.169 192.725 147.169 253.638 178.811 253.638 178.811 192.725 180.21 192.725 180.21 189.53" fill="#939393"/><polygon points="251.62 105.938 251.62 101.609 244.247 101.609 244.247 97.836 240.622 92.921 240.622 78.745 239.358 78.745 239.358 92.921 235.732 97.836 235.732 101.609 228.36 101.609 228.36 105.938 224.417 105.938 224.417 253.638 256.06 253.638 256.06 105.938 251.62 105.938" fill="#939393"/><rect x="228.359" y="133.261" width="5.502" height="8.965" fill="#737373"/><rect x="237.238" y="133.261" width="5.502" height="8.965" fill="#737373"/><rect x="246.117" y="133.261" width="5.502" height="8.965" fill="#737373"/><rect x="228.359" y="121.445" width="5.502" height="8.965" fill="#737373"/><rect x="237.238" y="121.445" width="5.502" height="8.965" fill="#737373"/><rect x="246.117" y="121.445" width="5.502" height="8.965" fill="#737373"/><rect x="228.359" y="109.628" width="5.502" height="8.965" fill="#737373"/><rect x="237.238" y="109.628" width="5.502" height="8.965" fill="#737373"/><rect x="246.117" y="109.628" width="5.502" height="8.965" fill="#737373"/><rect x="228.359" y="145.078" width="5.502" height="8.965" fill="#737373"/><rect x="237.238" y="145.078" width="5.502" height="8.965" fill="#737373"/><rect x="246.117" y="145.078" width="5.502" height="8.965" fill="#737373"/><rect x="228.359" y="156.893" width="5.502" height="8.966" fill="#737373"/><rect x="237.238" y="156.893" width="5.502" height="8.966" fill="#737373"/><rect x="246.117" y="156.893" width="5.502" height="8.966" fill="#737373"/><rect x="228.359" y="168.709" width="5.502" height="8.966" fill="#737373"/><rect x="237.238" y="168.709" width="5.502" height="8.966" fill="#737373"/><rect x="246.117" y="168.709" width="5.502" height="8.966" fill="#737373"/><rect x="228.359" y="180.526" width="5.502" height="8.965" fill="#737373"/><rect x="237.238" y="180.526" width="5.502" height="8.965" fill="#737373"/><rect x="246.117" y="180.526" width="5.502" height="8.965" fill="#737373"/><rect x="228.359" y="192.342" width="5.502" height="8.965" fill="#737373"/><rect x="237.238" y="192.342" width="5.502" height="8.965" fill="#737373"/><rect x="246.117" y="192.342" width="5.502" height="8.965" fill="#737373"/><rect x="228.359" y="204.158" width="5.502" height="8.965" fill="#737373"/><rect x="237.238" y="204.158" width="5.502" height="8.965" fill="#737373"/><rect x="246.117" y="204.158" width="5.502" height="8.965" fill="#737373"/><rect x="228.359" y="215.975" width="5.502" height="8.965" fill="#737373"/><rect x="237.238" y="215.975" width="5.502" height="8.965" fill="#737373"/><rect x="246.117" y="215.975" width="5.502" height="8.965" fill="#737373"/><rect x="228.359" y="227.791" width="5.502" height="8.966" fill="#737373"/><rect x="237.238" y="227.791" width="5.502" height="8.966" fill="#737373"/><rect x="246.117" y="227.791" width="5.502" height="8.966" fill="#737373"/><rect x="228.359" y="239.607" width="5.502" height="8.966" fill="#737373"/><rect x="237.238" y="239.607" width="5.502" height="8.966" fill="#737373"/><rect x="246.117" y="239.607" width="5.502" height="8.966" fill="#737373"/><path d="M172.811,253.638h-19.64v-4.211a9.82,9.82,0,1,1,19.64,0Z" fill="#737373"/><path d="M154.16,225.488h0a2.98,2.98,0,0,1,2.981,2.981v7.855h-5.963v-7.855a2.981,2.981,0,0,1,2.982-2.981" fill="#737373"/><path d="M171.821,225.488h0a2.981,2.981,0,0,1,2.982,2.981v7.855H168.84v-7.855a2.98,2.98,0,0,1,2.981-2.981" fill="#737373"/><path d="M162.991,225.488h0a2.981,2.981,0,0,1,2.981,2.981v7.855h-5.963v-7.855a2.981,2.981,0,0,1,2.982-2.981" fill="#737373"/><path d="M154.16,210.394h0a2.98,2.98,0,0,1,2.981,2.981v7.855h-5.963v-7.855a2.981,2.981,0,0,1,2.982-2.981" fill="#737373"/><path d="M171.821,210.394h0a2.981,2.981,0,0,1,2.982,2.981v7.855H168.84v-7.855a2.98,2.98,0,0,1,2.981-2.981" fill="#737373"/><path d="M162.991,210.394h0a2.981,2.981,0,0,1,2.981,2.981v7.855h-5.963v-7.855a2.981,2.981,0,0,1,2.982-2.981" fill="#737373"/><path d="M154.16,195.3h0a2.981,2.981,0,0,1,2.981,2.982v7.854h-5.963v-7.854a2.982,2.982,0,0,1,2.982-2.982" fill="#737373"/><path d="M171.821,195.3h0a2.982,2.982,0,0,1,2.982,2.982v7.854H168.84v-7.854a2.981,2.981,0,0,1,2.981-2.982" fill="#737373"/><path d="M162.991,195.3h0a2.982,2.982,0,0,1,2.981,2.982v7.854h-5.963v-7.854a2.982,2.982,0,0,1,2.982-2.982" fill="#737373"/><rect x="185.349" y="153.601" width="31.642" height="100.038" fill="#939393"/><rect x="185.349" y="166.032" width="31.642" height="6.516" fill="#737373"/><rect x="185.349" y="178.462" width="31.642" height="6.516" fill="#737373"/><rect x="185.349" y="190.893" width="31.642" height="6.516" fill="#737373"/><rect x="185.349" y="203.323" width="31.642" height="6.516" fill="#737373"/><rect x="185.349" y="215.754" width="31.642" height="6.516" fill="#737373"/><rect x="185.349" y="228.185" width="31.642" height="6.516" fill="#737373"/><rect x="185.349" y="240.615" width="31.642" height="6.516" fill="#737373"/><polygon points="210.399 153.601 210.399 142.912 208.622 142.912 208.622 153.601 193.529 153.601 193.529 142.912 191.752 142.912 191.752 153.601 185.349 153.601 185.349 160.117 216.992 160.117 216.992 153.601 210.399 153.601" fill="#737373"/><path d="M133.637,219.012v-3.773l-8.826-3.481-8.826,3.481v3.773h-7v34.626h10.159v-8.983h11.325v8.983h10.159V219.012ZM115.985,241.5h-3.658V235.88h3.658Zm0-7.1h-3.658v-5.624h3.658Zm0-7.1h-3.658v-5.624h3.658Zm5.327,14.206h-3.657V235.88h3.657Zm0-7.1h-3.657v-5.624h3.657Zm0-7.1h-3.657v-5.624h3.657Zm5.327,14.206h-3.657V235.88h3.657Zm0-7.1h-3.657v-5.624h3.657Zm0-7.1h-3.657v-5.624h3.657Zm5.328,14.206h-3.658V235.88h3.658Zm0-7.1h-3.658v-5.624h3.658Zm0-7.1h-3.658v-5.624h3.658Zm5.328,14.206h-3.658V235.88h3.658Zm0-7.1h-3.658v-5.624h3.658Zm0-7.1h-3.658v-5.624h3.658Z" fill="#459bdd"/></svg>