<svg id="Layer_1" data-name="Layer 1" xmlns="http://www.w3.org/2000/svg" viewBox="0 0 300 200"><defs><style>.cls-1{fill:#d2d2d2;}.cls-2{fill:#939393;}.cls-3,.cls-7{fill:#fff;}.cls-4{fill:#e6e6e6;}.cls-5{fill:#389fe5;}.cls-6{fill:none;stroke:#b2b2b2;stroke-width:2px;}.cls-6,.cls-7{stroke-miterlimit:10;}.cls-7{stroke:#389fe5;stroke-width:2.01px;}</style></defs><title>prop-home-automation</title><g id="prop-home-automation"><g id="Group"><path id="Vector" class="cls-1" d="M243,64.125,215.7,38.958H166.345L117.953-.958,57.483,48.958H57v5h7v56H235v-41h8Z"/><path id="Vector_2" data-name="Vector 2" class="cls-2" d="M198.46,200.958H99.54A5.555,5.555,0,0,1,94,195.41v-66.9a5.556,5.556,0,0,1,5.54-5.549h98.92a5.556,5.556,0,0,1,5.54,5.549v66.9A5.555,5.555,0,0,1,198.46,200.958Z"/><path id="Vector_3" data-name="Vector 3" class="cls-3" d="M196,128.958H102v65h94Z"/><path id="Vector_4" data-name="Vector 4" class="cls-4" d="M187,136.958H111v47h76Z"/><path id="Vector_5" data-name="Vector 5" class="cls-3" d="M227,72.958H178v34h49Z"/><path id="Vector_6" data-name="Vector 6" class="cls-3" d="M160,69.958H138v41h22Z"/><path id="Vector_7" data-name="Vector 7" class="cls-3" d="M115,66.958H75v27h40Z"/><path id="Vector_8" data-name="Vector 8" class="cls-3" d="M125,18.958H112v17h13Z"/><path id="Vector_9" data-name="Vector 9" class="cls-3" d="M178,59.138,148.58,35.681,119,59.3v5.2l29.58-23.617L178,64.342Z"/><g id="Group_2" data-name="Group 2"><path id="Vector_10" data-name="Vector 10" class="cls-5" d="M159.643,132.946a28.292,28.292,0,0,1,17.757,35.66,1.155,1.155,0,0,0-.161.484l3.134,1.049A31.619,31.619,0,0,0,160.688,129.8Z"/><path id="Vector_11" data-name="Vector 11" class="cls-5" d="M156.11,143.516l-1.045,3.146a13.7,13.7,0,0,1,8.517,17.265,1.155,1.155,0,0,0-.161.484l3.134,1.049A17.125,17.125,0,0,0,156.11,143.516Z"/><path id="Vector_12" data-name="Vector 12" class="cls-5" d="M158.36,136.657l-1.045,3.147a20.99,20.99,0,0,1,13.1,26.462,1.141,1.141,0,0,0-.161.484l3.133,1.049A24.319,24.319,0,0,0,158.36,136.657Z"/></g><path id="Vector_13" data-name="Vector 13" class="cls-6" d="M96,79.958v27h54"/><path id="Vector_14" data-name="Vector 14" class="cls-5" d="M94.968,85.105a5.244,5.244,0,1,0-5.223-5.244A5.233,5.233,0,0,0,94.968,85.105Z"/><path id="Vector_15" data-name="Vector 15" class="cls-6" d="M204,80.958v20H150"/><path id="Vector_16" data-name="Vector 16" class="cls-5" d="M203.434,85.105a5.244,5.244,0,1,0-5.222-5.244A5.234,5.234,0,0,0,203.434,85.105Z"/><path id="Vector_17" data-name="Vector 17" class="cls-7" d="M148.957,171.107a10.892,10.892,0,1,0-10.847-10.891A10.869,10.869,0,0,0,148.957,171.107Z"/><path id="Vector_18" data-name="Vector 18" class="cls-6" d="M150,80.958l-.482,80"/><path id="Vector_19" data-name="Vector 19" class="cls-5" d="M149.52,85.186a5.244,5.244,0,1,0-5.222-5.244A5.234,5.234,0,0,0,149.52,85.186Z"/><path id="Vector_20" data-name="Vector 20" class="cls-2" d="M148.958,165.461a5.244,5.244,0,1,0-5.223-5.244A5.233,5.233,0,0,0,148.958,165.461Z"/></g></g></svg>