<?xml version="1.0" encoding="utf-8"?>
<!-- Generator: Adobe Illustrator 22.1.0, SVG Export Plug-In . SVG Version: 6.00 Build 0)  -->
<svg version="1.1" id="Layer_1" xmlns="http://www.w3.org/2000/svg" xmlns:xlink="http://www.w3.org/1999/xlink" x="0px" y="0px"
	 viewBox="0 0 250 250" style="enable-background:new 0 0 250 250;" xml:space="preserve">
<style type="text/css">
	.st0{fill:none;stroke:#B2B2B2;stroke-width:5;stroke-miterlimit:10;}
	.st1{fill:#737373;}
	.st2{fill:#BAD80A;}
	.st3{opacity:0.3;}
	.st4{fill:#939393;}
	.st5{opacity:0.3;fill:#939393;}
	.st6{fill:#9DBF0C;}
	.st7{fill:#FFFFFF;stroke:#737373;stroke-width:3;stroke-miterlimit:10;}
	.st8{fill:none;stroke:#BAD80A;stroke-width:6;stroke-miterlimit:10;}
	.st9{fill:#B2B2B2;}
	.st10{fill:#FFFFFF;}
	.st11{opacity:0.2;fill:#939393;}
</style>
<g>
	<polyline class="st0" points="158.9,49.9 116.6,49.9 105.9,60.5 33.6,60.5 23.4,50.4 5.3,50.4 	"/>
	<polyline class="st0" points="191.3,48.9 191.3,24.9 123.3,24.9 99.7,48.5 39.7,48.5 39.7,30.1 51,30.1 	"/>
	<g>
		<path class="st1" d="M213.8,45.9v3h-5v-3 M213.8,42.9h-5v-3h5V42.9z M213.8,36.9h-5v-3h5V36.9z M100.9,33.5h-2.3v-4.8l0.7-0.7
			l3.6,3.5L100.9,33.5z M95.6,33.5h-3v-5h3V33.5z M89.6,33.5h-3v-5h3V33.5z M83.6,33.5h-2.8v-5h2.8V33.5z M213.8,30.9h-5v-3h5V30.9z
			 M104.9,29.3l-3.6-3.5l2.1-2.2l3.6,3.5L104.9,29.3z M109.1,25l-3.6-3.5l2.1-2.2l3.6,3.5L109.1,25z M213.8,24.9h-5v-3h5V24.9z
			 M113.3,20.7l-3.6-3.5l2.1-2.2l3.6,3.5L113.3,20.7z M213.8,18.9h-5v-3h5V18.9z M117.4,16.3l-3.6-3.5l2.1-2.2l3.6,3.5L117.4,16.3z
			 M210.1,13.5v-5h3.7v5L210.1,13.5z M207.1,13.5h-3v-5h3V13.5z M201.1,13.5h-3v-5h3V13.5z M195.1,13.5h-3v-5h3V13.5z M189.1,13.5
			h-3v-5h3V13.5z M183.1,13.5h-3v-5h3V13.5z M177.1,13.5h-3v-5h3V13.5z M171.1,13.5h-3v-5h3V13.5z M165.1,13.5h-3v-5h3V13.5z
			 M159.1,13.5h-3v-5h3V13.5z M153.1,13.5h-3v-5h3V13.5z M147.1,13.5h-3v-5h3V13.5z M141.1,13.5h-3v-5h3V13.5z M135.1,13.5h-3v-5h3
			V13.5z M129.1,13.5h-3v-5h3V13.5z M123.1,13.5h-3v-5h3V13.5z"/>
	</g>
	<path class="st2" d="M225.1,71.6h-65.5c-1.9,0-3.5-1.6-3.5-3.5V36.7c0-1.9,1.6-3.5,3.5-3.5h65.5c1.9,0,3.5,1.6,3.5,3.5v31.5
		C228.6,70.1,227,71.6,225.1,71.6z"/>
	<g class="st3">
		<path class="st1" d="M213.8,45.9v3h-5v-3 M213.8,42.9h-5v-3h5V42.9z M213.8,36.9h-5v-3h5V36.9z M213.8,30.9h-5v-0.7h5V30.9z"/>
	</g>
	<path class="st4" d="M126.6,180l-8.5,0c-6,0-10.9-5-10.9-11l0.1-24.7c0-6,5-10.9,11-10.9l8.5,0c6,0,10.9,5,10.9,11l-0.1,24.7
		C137.6,175.2,132.6,180,126.6,180z"/>
	<g>
		<path class="st4" d="M207.2,196.4c-2.2,0.7-4.5,1.1-6.8,1.1l-46.9-0.3l0.1-14l46.9,0.3c2,0,3.8-0.7,5.2-2.1
			c1.4-1.4,2.2-3.2,2.2-5.2l0.3-57.6l14,0.1l-0.3,57.6c0,5.7-2.3,11-6.3,15.1C213.1,193.6,210.3,195.4,207.2,196.4z"/>
	</g>
	<path class="st4" d="M67.5,249.9l0.4-47.4c0-2.9,2.4-5.2,5.3-5.2l13.8,0.1l0.1-14l-13.8-0.1c-10.6-0.1-19.3,8.5-19.3,19.1
		l-0.2,47.5H67.5z"/>
	<path class="st2" d="M167.7,249.7L168,177c0-3.2-2.5-5.7-5.7-5.7l-79.1-0.4c-3.2,0-5.7,2.5-5.7,5.7l0.2,73.2H167.7z"/>
	<rect x="77.3" y="183.1" class="st5" width="90.7" height="14.5"/>
	<rect x="107.3" y="152.6" class="st1" width="30.4" height="6.6"/>
	<path class="st6" d="M136.3,99.5h-27.6c-1.8,0-3.2-1.4-3.2-3.2v-4.5c0-1.8,1.4-3.2,3.2-3.2h27.6c1.8,0,3.2,1.4,3.2,3.2v4.5
		C139.4,98.1,138,99.5,136.3,99.5z"/>
	<path class="st4" d="M164.7,136.5l-85.3-0.6c-3.3,0-6-2.7-6-6l0.1-12.4c0-3.3,2.7-6,6-6l85.3,0.6c3.3,0,6,2.7,6,6l-0.1,12.4
		C170.8,133.8,168.1,136.5,164.7,136.5z"/>
	<path class="st2" d="M153.2,153.2H91.1c-3.3,0-6.1-2.4-6.5-5.7l-6.2-46.1c-0.5-4,2.5-7.5,6.5-7.5h74.6c4,0,7.1,3.5,6.5,7.5
		l-6.2,46.1C159.3,150.8,156.5,153.2,153.2,153.2z"/>
	<circle class="st7" cx="211.8" cy="51" r="7.8"/>
	<circle class="st7" cx="191.8" cy="51" r="7.8"/>
	<circle class="st7" cx="171.8" cy="51" r="7.8"/>
	<g>
		
			<rect x="195.4" y="85.9" transform="matrix(5.377677e-03 -1 1 5.377677e-03 124.894 304.7357)" class="st4" width="40.5" height="7.4"/>
	</g>
	<path class="st2" d="M225.3,127.7l-20-0.1c-2,0-3.6-1.6-3.6-3.7l0.1-14.2c0-2,1.6-3.6,3.7-3.6l20,0.1c2,0,3.6,1.6,3.6,3.7
		l-0.1,14.2C228.9,126.1,227.3,127.7,225.3,127.7z"/>
	<path class="st4" d="M229.8,68c0-2.1-1.7-3.7-3.7-3.7c-1.7,0-3.1,1.1-3.5,2.6c-0.5-1.5-1.9-2.6-3.5-2.6c-1.7,0-3,1.1-3.5,2.6V50.6
		c0-2.1-1.7-3.7-3.7-3.7s-3.7,1.7-3.7,3.7v18.3h-0.8c-0.1-1.5-0.1-3.2-0.1-4.9c0-5.2-6.5-4.9-6.5-4.9s0,21.8,0,24.8l0,3.1
		c0,2.5,2.1,4.5,4.6,4.5h20.2c2.5,0,4.5-2,4.5-4.5v-3.5c0,0,0-0.1,0-0.1V68z"/>
	<path class="st2" d="M76.6,23.8c-0.4,0.2-0.9,0.3-1.7,0.6c-0.8,0.3-1.5,0.1-1.8-0.2s-0.7-0.7-1-1c-0.6-0.7-0.4-1.1-0.4-1.6
		c0.1-0.5,0.2-0.9,0.5-2c0.2-0.7,0.1-1.1-0.5-1.3c-0.5-0.2-1.2-0.6-1.6-0.7c-0.6-0.1-1,0.2-1.2,0.6s-0.4,0.9-0.9,1.8
		c-0.4,1-1,0.9-1.5,0.9c-0.5,0-0.7,0-1.3,0c-0.6,0-1-0.2-1.2-0.6c-0.2-0.4-0.8-1.4-1.3-2.2c-0.5-0.7-1-0.5-1.3-0.4
		C61,18,60.4,18.3,60,18.5c-0.4,0.2-0.6,0.6-0.5,1.1c0.1,0.5,0.5,1.6,0.7,2.3c0.2,0.8,0,1.2-0.4,1.6c0,0-0.4,0.4-0.9,0.9
		c-0.5,0.4-1,0.5-1.5,0.3c-0.5-0.1-1.3-0.3-2.1-0.5c-0.8-0.2-1.2,0.2-1.3,0.6s-0.4,1.1-0.5,1.6s0.1,0.9,0.6,1.1
		c0.5,0.2,1.3,0.7,1.8,1c0.5,0.3,0.8,0.6,0.8,1.2c0.1,0.7,0.1,0.9,0.1,1.5s-0.2,1.1-0.8,1.4c-0.6,0.3-1.2,0.5-1.9,0.9
		c-0.5,0.2-0.7,0.7-0.5,1.2c0.2,0.6,0.5,1,0.7,1.5c0.2,0.5,0.7,0.8,1.3,0.6c0.5-0.2,1.3-0.5,2-0.8c0.7-0.3,1.2,0,1.6,0.4
		c0.4,0.4,1.1,1,1.1,1c0.6,0.5,0.6,1,0.4,1.5c-0.2,0.6-0.3,1-0.6,1.8c-0.3,0.8-0.1,1.1,0.5,1.4c0.6,0.3,0.8,0.4,1.3,0.7
		c0.7,0.3,1.2,0,1.4-0.5c0.2-0.4,0.5-1.2,0.9-2c0.3-0.8,1-0.9,1.5-0.9c0.4,0,0.8,0,1.3,0.1c0.7,0.1,1,0.1,1.4,0.8
		c0.3,0.4,0.5,0.7,1,1.7c0.4,0.6,0.7,0.8,1.3,0.6c0.5-0.2,1.3-0.5,1.7-0.7c0.5-0.3,0.5-0.8,0.4-1.2c-0.1-0.4-0.3-0.9-0.7-1.9
		c-0.4-1,0-1.4,0.4-1.7c0.3-0.3,0.6-0.6,1-1c0.4-0.4,0.9-0.4,1.3-0.3c0.5,0.1,1.4,0.3,2.3,0.5c0.8,0.2,1-0.3,1.2-0.6
		c0.1-0.3,0.3-1,0.5-1.4c0.2-0.5,0-0.9-0.4-1.1c-0.5-0.3-1.5-0.8-2.1-1.1c-0.7-0.4-0.8-0.8-0.7-1.3l0-1.3c0-0.7,0.3-1.1,0.9-1.3
		c0.5-0.3,1.1-0.5,1.8-0.9c0.8-0.4,0.8-0.6,0.6-1.3c-0.2-0.6-0.3-0.9-0.5-1.5C77.7,23.8,77.1,23.6,76.6,23.8z M68.7,34.4
		c-2.3,1.4-5.2,0.6-6.6-1.7c-1.4-2.3-0.6-5.2,1.7-6.6c2.3-1.4,5.2-0.6,6.6,1.7C71.8,30.1,71,33,68.7,34.4z"/>
	<path class="st8" d="M225.8,51.2h10.4c3.7,0,6.6-3,6.6-6.6V0.7"/>
	<path class="st1" d="M153.1,130.8c-5.8,2.6-29.2,11.5-61.5-0.1c-0.9-0.3-1.4-1.2-1.6-2.2c-1-8.8-2-15-2.3-18.6
		c-0.1-1.3,0.9-2.4,2.2-2.4h64.6c1.3,0,2.4,1.1,2.4,2.4l-2.4,18.8C154.4,129.5,153.9,130.4,153.1,130.8z"/>
	<path class="st9" d="M108,135c11.6,2.1,21.5,1.6,29.2,0.3c-1.4-4.3-5.5-7.5-10.3-7.5l-8.5,0C113.6,127.8,109.5,130.8,108,135z"/>
	<g>
		<path class="st10" d="M102.1,119.2h-7.5c-1.3,0-2.3-1-2.3-2.3V116c0-1.3,1-2.3,2.3-2.3h7.5c1.3,0,2.3,1,2.3,2.3v0.9
			C104.4,118.2,103.4,119.2,102.1,119.2z"/>
		<path class="st10" d="M118,119.2h-7.5c-1.3,0-2.3-1-2.3-2.3V116c0-1.3,1-2.3,2.3-2.3h7.5c1.3,0,2.3,1,2.3,2.3v0.9
			C120.3,118.2,119.3,119.2,118,119.2z"/>
		<path class="st10" d="M133.9,119.2h-7.5c-1.3,0-2.3-1-2.3-2.3V116c0-1.3,1-2.3,2.3-2.3h7.5c1.3,0,2.3,1,2.3,2.3v0.9
			C136.2,118.2,135.2,119.2,133.9,119.2z"/>
		<path class="st10" d="M149.9,119.2h-7.5c-1.3,0-2.3-1-2.3-2.3V116c0-1.3,1-2.3,2.3-2.3h7.5c1.3,0,2.3,1,2.3,2.3v0.9
			C152.2,118.2,151.1,119.2,149.9,119.2z"/>
	</g>
	<rect x="156" y="47.3" class="st11" width="8.4" height="5.1"/>
	<rect x="188.7" y="30.2" class="st11" width="5.1" height="13.6"/>
	<path class="st5" d="M137.4,171.1l-30-0.2c0.9,5.1,5.3,8.9,10.7,9l8.5,0C131.9,180,136.4,176.2,137.4,171.1z"/>
</g>
</svg>
