<svg id="Layer_1" data-name="Layer 1" xmlns="http://www.w3.org/2000/svg" viewBox="0 0 300 200"><defs><style>.cls-1{fill:none;stroke:#b2b2b2;stroke-miterlimit:10;stroke-width:2.5px;}.cls-2{fill:#b2b2b2;}.cls-3{fill:#939393;}.cls-4{fill:#d2d2d2;}.cls-5{fill:#7bc0ef;}.cls-6{fill:#389fe5;}.cls-7{fill:#2488d8;}</style></defs><title>prop-extend-and-reuse</title><g id="prop-extend-and-reuse"><g id="Group"><path id="Vector" class="cls-1" d="M222.571,157.421l26.922-18.416-53.922-36.129"/><g id="Group_2" data-name="Group 2"><path id="Vector_2" data-name="Vector 2" class="cls-2" d="M214.791,71.273l1.248,33.008,27.468-17.635V52.779Z"/><path id="Vector_3" data-name="Vector 3" class="cls-3" d="M215.507,71.428l.468,32.931-27.468-18.1-.468-33.164Z"/><path id="Vector_4" data-name="Vector 4" class="cls-4" d="M215.469,71.429l28.014-18.65L216.249,34.831,188,53.169Z"/><path id="Vector_5" data-name="Vector 5" class="cls-3" d="M216.25,59.49,227.1,52.232a.94.94,0,0,0,.39-.39,1.127,1.127,0,0,0,.156-.546,1.446,1.446,0,0,0-.156-.546.94.94,0,0,0-.39-.39l-10.535-6.945a.84.84,0,0,0-.624-.156,1.836,1.836,0,0,0-.624.156l-10.925,7.1a.94.94,0,0,0-.39.39,1.127,1.127,0,0,0-.156.546A1.446,1.446,0,0,0,204,52a.94.94,0,0,0,.39.39L215,59.49a.84.84,0,0,0,.624.156A.607.607,0,0,0,216.25,59.49Z"/><path id="Vector_6" data-name="Vector 6" class="cls-2" d="M221.866,50.4a2.37,2.37,0,0,0,.623-1.246l-.311-8.962a1.037,1.037,0,0,0-.234-.623,1.315,1.315,0,0,0-.468-.467.882.882,0,0,0-.623-.234h-.624a1.841,1.841,0,0,0-1.246.545,2.38,2.38,0,0,0-.623,1.247l.234,8.883a.889.889,0,0,0,.233.624,2.679,2.679,0,0,0,.468.467.882.882,0,0,0,.623.234h.624A2.115,2.115,0,0,0,221.866,50.4Z"/><path id="Vector_7" data-name="Vector 7" class="cls-2" d="M213.438,55.326a2.364,2.364,0,0,0,.624-1.246l-.234-8.883a1.036,1.036,0,0,0-.233-.624,1.327,1.327,0,0,0-.469-.467.882.882,0,0,0-.623-.234h-.623a1.844,1.844,0,0,0-1.247.545,2.376,2.376,0,0,0-.623,1.247l.234,8.883a1.036,1.036,0,0,0,.233.624,1.331,1.331,0,0,0,.468.467.884.884,0,0,0,.624.234h.623A2,2,0,0,0,213.438,55.326Z"/></g><path id="Vector_8" data-name="Vector 8" class="cls-1" d="M181.526,106.466l-33.165,19.742L104.2,154.847"/><path id="Vector_9" data-name="Vector 9" class="cls-1" d="M106.3,56.915,152.888,86.88"/><path id="Vector_10" data-name="Vector 10" class="cls-2" d="M161.507,71.883v32.725l-27-17.872-.232-32.956Z"/><path id="Vector_11" data-name="Vector 11" class="cls-4" d="M161.471,71.9l27.7-18.494L162.251,35.3,134,53.559Z"/><path id="Vector_12" data-name="Vector 12" class="cls-5" d="M187.507,89.7v33.492l29-18.992-.158-33.413Z"/><path id="Vector_13" data-name="Vector 13" class="cls-6" d="M188.08,89.845l28.014-18.65L188.861,53.247,160.612,71.585Z"/><path id="Vector_14" data-name="Vector 14" class="cls-7" d="M187.924,78.608l10.847-7.257a.942.942,0,0,0,.39-.391,1.127,1.127,0,0,0,.156-.546,1.446,1.446,0,0,0-.156-.546.94.94,0,0,0-.39-.39l-10.535-6.945a.84.84,0,0,0-.624-.156,1.836,1.836,0,0,0-.624.156l-10.925,7.1a.94.94,0,0,0-.39.39,1.127,1.127,0,0,0-.156.546,1.446,1.446,0,0,0,.156.546.937.937,0,0,0,.39.391l10.613,7.1a.84.84,0,0,0,.624.156A.688.688,0,0,0,187.924,78.608Z"/><path id="Vector_15" data-name="Vector 15" class="cls-2" d="M160.507,107.988v33.334l28-18.589.157-33.019Z"/><path id="Vector_16" data-name="Vector 16" class="cls-3" d="M160.507,108.13v32.538l-27-17.768-.154-32.846Z"/><path id="Vector_17" data-name="Vector 17" class="cls-4" d="M160.145,108.1l27.936-18.26L160.847,71.428l-28.17,18.416Z"/><g id="Group_3" data-name="Group 3"><path id="Vector_18" data-name="Vector 18" class="cls-2" d="M94.507,36.321V69.812l29-18.991-.158-33.413Z"/><path id="Vector_19" data-name="Vector 19" class="cls-3" d="M94.507,36.516V68.961l-27-17.8-.153-32.753Z"/><path id="Vector_20" data-name="Vector 20" class="cls-2" d="M88.507,40.465V55.26a1.137,1.137,0,0,1-.159.477.623.623,0,0,1-.318.319,1.018,1.018,0,0,1-.478.079.6.6,0,0,1-.4-.159l-12.25-8.114c-.08-.079-.239-.159-.318-.318a.711.711,0,0,1-.08-.4l-.08-14.875a1.125,1.125,0,0,1,.16-.478.621.621,0,0,1,.318-.318,1.014,1.014,0,0,1,.477-.079.607.607,0,0,1,.4.159l12.409,8.272c.079.08.238.159.318.319Z"/><path id="Vector_21" data-name="Vector 21" class="cls-4" d="M94.986,36.47l28.561-18.806L95.689-.128,67.441,18.054Z"/><path id="Vector_22" data-name="Vector 22" class="cls-4" d="M78.288,41a1.257,1.257,0,0,1,.312.546,1.717,1.717,0,0,1,.078.624,1.847,1.847,0,0,1-.156.625,1.147,1.147,0,0,1-.39.468l-7.179,4.6a1.924,1.924,0,0,1-1.327.156,1.8,1.8,0,0,1-1.092-.781,1.257,1.257,0,0,1-.312-.546,1.717,1.717,0,0,1-.078-.624,1.836,1.836,0,0,1,.156-.624,1.149,1.149,0,0,1,.39-.469l7.179-4.6a1.924,1.924,0,0,1,1.327-.156A3.519,3.519,0,0,1,78.288,41Z"/><path id="Vector_23" data-name="Vector 23" class="cls-4" d="M86.481,45.444a1.249,1.249,0,0,1,.313.546,1.717,1.717,0,0,1,.078.624,1.835,1.835,0,0,1-.156.625,1.149,1.149,0,0,1-.391.468l-7.179,4.6a1.922,1.922,0,0,1-1.326.156,1.807,1.807,0,0,1-1.093-.78,1.255,1.255,0,0,1-.312-.547,1.717,1.717,0,0,1-.078-.624,1.836,1.836,0,0,1,.156-.624,1.147,1.147,0,0,1,.39-.468l7.179-4.6a1.925,1.925,0,0,1,1.327-.156A3.516,3.516,0,0,1,86.481,45.444Z"/></g><g id="Group_4" data-name="Group 4"><path id="Vector_24" data-name="Vector 24" class="cls-3" d="M79.507,166.636v33.492l-29-18.992.158-33.413Z"/><path id="Vector_25" data-name="Vector 25" class="cls-2" d="M79.507,166.909v32.445l27-17.872.153-32.752Z"/><path id="Vector_26" data-name="Vector 26" class="cls-3" d="M85.507,170.78v14.795a1.137,1.137,0,0,0,.159.477.619.619,0,0,0,.318.319,1,1,0,0,0,.478.08.607.607,0,0,0,.4-.159l12.25-8.114c.08-.08.239-.159.318-.318a.715.715,0,0,0,.08-.4l.08-14.875a1.129,1.129,0,0,0-.16-.478.621.621,0,0,0-.318-.318,1.014,1.014,0,0,0-.477-.079.607.607,0,0,0-.4.159l-12.409,8.273c-.079.08-.238.159-.318.318C85.587,170.542,85.507,170.621,85.507,170.78Z"/><path id="Vector_27" data-name="Vector 27" class="cls-4" d="M78.99,166.785,50.976,148.213,78.21,130.266,106.458,148.6Z"/><path id="Vector_28" data-name="Vector 28" class="cls-4" d="M95.688,171.389a1.267,1.267,0,0,0-.312.547,1.717,1.717,0,0,0-.078.624,1.836,1.836,0,0,0,.156.624,1.147,1.147,0,0,0,.39.468l7.179,4.6a1.925,1.925,0,0,0,1.327.156,1.805,1.805,0,0,0,1.092-.78,1.269,1.269,0,0,0,.313-.546,1.717,1.717,0,0,0,.078-.624,1.82,1.82,0,0,0-.157-.625,1.147,1.147,0,0,0-.39-.468l-7.179-4.6a1.922,1.922,0,0,0-1.326-.156A2.056,2.056,0,0,0,95.688,171.389Z"/><path id="Vector_29" data-name="Vector 29" class="cls-4" d="M87.5,175.837a1.257,1.257,0,0,0-.312.546,1.717,1.717,0,0,0-.078.624,1.836,1.836,0,0,0,.156.624,1.143,1.143,0,0,0,.39.469l7.179,4.6a1.924,1.924,0,0,0,1.327.156,1.8,1.8,0,0,0,1.092-.781,1.257,1.257,0,0,0,.312-.546,1.717,1.717,0,0,0,.078-.624,1.836,1.836,0,0,0-.156-.624,1.149,1.149,0,0,0-.39-.469l-7.179-4.6a1.924,1.924,0,0,0-1.327-.156A2.056,2.056,0,0,0,87.5,175.837Z"/></g><path id="Vector_30" data-name="Vector 30" class="cls-2" d="M152.507,111.568a.615.615,0,0,0-.316-.317l-10.52-7.039-1.819-1.187a1.335,1.335,0,0,0-.4-.158,1.014,1.014,0,0,0-.476.079.617.617,0,0,0-.316.316,1.122,1.122,0,0,0-.158.475l.079,14.791a.592.592,0,0,0,.079.395.619.619,0,0,0,.316.317l12.182,8.068a1.335,1.335,0,0,0,.395.158,1.006,1.006,0,0,0,.475-.079.615.615,0,0,0,.316-.317,1.127,1.127,0,0,0,.158-.475V111.884A.24.24,0,0,0,152.507,111.568Z"/><path id="Vector_31" data-name="Vector 31" class="cls-4" d="M141.573,111.772a1.924,1.924,0,0,0-1.327.156l-7.179,4.6a2.068,2.068,0,0,0-.39.468,1.478,1.478,0,0,0-.156.625,1.717,1.717,0,0,0,.078.624,1.257,1.257,0,0,0,.312.546,1.855,1.855,0,0,0,2.419.624l7.179-4.6a2.093,2.093,0,0,0,.39-.469,1.469,1.469,0,0,0,.156-.624,1.717,1.717,0,0,0-.078-.624,1.257,1.257,0,0,0-.312-.546A1.8,1.8,0,0,0,141.573,111.772Z"/><path id="Vector_32" data-name="Vector 32" class="cls-4" d="M149.766,116.22a1.925,1.925,0,0,0-1.327.156l-7.179,4.6a2.093,2.093,0,0,0-.39.469,1.469,1.469,0,0,0-.156.624,1.717,1.717,0,0,0,.078.624,1.257,1.257,0,0,0,.312.546,1.9,1.9,0,0,0,1.093.781,1.922,1.922,0,0,0,1.326-.156l7.179-4.6a2.068,2.068,0,0,0,.39-.468,1.463,1.463,0,0,0,.157-.625,1.717,1.717,0,0,0-.078-.624,1.259,1.259,0,0,0-.313-.546A1.614,1.614,0,0,0,149.766,116.22Z"/><g id="Group_5" data-name="Group 5"><path id="Vector_33" data-name="Vector 33" class="cls-6" d="M213.507,164.976l-.078,32.693,28.078-18.38-.156-33.163Z"/><path id="Vector_34" data-name="Vector 34" class="cls-7" d="M213.507,164.856V197.77l-27-17.974-.39-33.07Z"/><path id="Vector_35" data-name="Vector 35" class="cls-5" d="M213.832,164.991l28.014-18.65-27.233-17.948-28.249,18.338Z"/><path id="Vector_36" data-name="Vector 36" class="cls-7" d="M214.535,154.067l10.847-7.257a.94.94,0,0,0,.39-.39,1.135,1.135,0,0,0,.156-.547,1.446,1.446,0,0,0-.156-.546.94.94,0,0,0-.39-.39l-10.534-6.945a.843.843,0,0,0-.625-.156,1.836,1.836,0,0,0-.624.156l-10.925,7.1a.94.94,0,0,0-.39.39,1.127,1.127,0,0,0-.156.546,1.451,1.451,0,0,0,.156.547.94.94,0,0,0,.39.39l10.613,7.1a.84.84,0,0,0,.624.156A.607.607,0,0,0,214.535,154.067Z"/><path id="Vector_37" data-name="Vector 37" class="cls-6" d="M219.274,144.334a2.342,2.342,0,0,0,.615-1.232l-.23-8.923a.872.872,0,0,0-.231-.615c-.154-.154-.308-.385-.462-.461a.87.87,0,0,0-.615-.231h-.616a1.818,1.818,0,0,0-1.23.538,2.342,2.342,0,0,0-.615,1.231l.231,8.924a.873.873,0,0,0,.23.615c.154.154.308.384.462.461a.87.87,0,0,0,.615.231h.615A2.179,2.179,0,0,0,219.274,144.334Z"/><path id="Vector_38" data-name="Vector 38" class="cls-6" d="M210.77,149.334a2.342,2.342,0,0,0,.615-1.232l-.23-8.922a.873.873,0,0,0-.231-.616c-.154-.154-.308-.385-.462-.461a.87.87,0,0,0-.615-.231h-.616a1.818,1.818,0,0,0-1.23.538,2.346,2.346,0,0,0-.615,1.231l.231,8.924a.873.873,0,0,0,.23.615c.154.154.308.384.462.461a.87.87,0,0,0,.615.231h.616A2.179,2.179,0,0,0,210.77,149.334Z"/></g><path id="Vector_39" data-name="Vector 39" class="cls-5" d="M192.839,68.326a2.37,2.37,0,0,0,.623-1.246l-.234-8.883a1.036,1.036,0,0,0-.233-.624,1.323,1.323,0,0,0-.468-.467.882.882,0,0,0-.624-.234h-.623a1.841,1.841,0,0,0-1.246.545,2.378,2.378,0,0,0-.624,1.247l.234,8.883a.886.886,0,0,0,.234.624,1.331,1.331,0,0,0,.468.467.882.882,0,0,0,.623.234h.623A1.838,1.838,0,0,0,192.839,68.326Z"/><path id="Vector_40" data-name="Vector 40" class="cls-5" d="M184.411,73.326a2.37,2.37,0,0,0,.623-1.246L184.8,63.2a1.035,1.035,0,0,0-.233-.623,1.315,1.315,0,0,0-.468-.467.882.882,0,0,0-.623-.234h-.624a1.841,1.841,0,0,0-1.246.545,2.373,2.373,0,0,0-.623,1.247l.234,8.883a1.036,1.036,0,0,0,.233.624,1.331,1.331,0,0,0,.468.467.882.882,0,0,0,.623.234h.624A1.838,1.838,0,0,0,184.411,73.326Z"/></g></g></svg>