<?xml version="1.0" encoding="utf-8"?>
<!-- Generator: Adobe Illustrator 22.1.0, SVG Export Plug-In . SVG Version: 6.00 Build 0)  -->
<svg version="1.1" id="Layer_1" xmlns="http://www.w3.org/2000/svg" xmlns:xlink="http://www.w3.org/1999/xlink" x="0px" y="0px"
	 viewBox="0 0 250 250" style="enable-background:new 0 0 250 250;" xml:space="preserve">
<style type="text/css">
	.st0{fill:#B3D6F2;}
	.st1{opacity:0.2;}
	.st2{fill:#34A0D7;}
	.st3{opacity:0.6;fill:#34A0D7;}
	.st4{fill:#737373;}
	.st5{fill:#FFFFFF;}
	.st6{fill:#C2C2C2;}
	.st7{fill:none;stroke:#737373;stroke-width:5;stroke-miterlimit:10;}
</style>
<g>
	<path class="st0" d="M193.3,174.3c-0.1-0.2-0.2-0.4-0.2-0.6c0,0,0,0,0-0.1c0,0,0,0,0,0c-0.3-0.8-0.7-1.6-1.1-2.3
		c-20-42.2-50.6-116.2-62.9-144.9c-4.4-10.9-12-18.9-23.6-18.9c-3.6,0-6.9,0.8-10,2.2c-4.1,1.6-7.6,4.3-9.9,8.1c-3,5-65.5,99-75,114
		c-11,17.3-7.7,38.7,9.8,47.8c33.5,17.5,87.9,41.8,110.5,52.5c1,0.5,2.1,1.1,3.2,1.5c0.3,0.1,0.6,0.2,0.9,0.4
		c5.2,2,10.8,3.2,16.7,3.2c22.8,0,41.7-16.9,44.8-38.8C198.1,191.2,197.5,183.2,193.3,174.3z"/>
	<g class="st1">
		<path class="st2" d="M105.5,26.6c0.9,0,1.4,0.2,2.1,0.7c1.3,1.1,2.7,3.4,3.9,6.3l0.1,0.2l0.1,0.2c2.7,6.4,6.4,15.2,10.7,25.3
			c14.6,34.7,36.8,87.1,52.5,120.2l0.1,0.3l0.1,0.2c0.2,0.5,0.5,0.9,0.6,1.3l0.1,0.2l0,0l0.1,0.1l0.1,0.1c0,0,0,0,0,0l0,0.1l0.1,0.3
			c2.1,4.5,2.7,8.3,1.9,11.6l-0.2,0.9l-0.1,0.9c-1.8,12.8-13,22.5-26,22.5c-3.3,0-6.6-0.6-9.7-1.8l-0.4-0.2l-0.1,0
			c-0.5-0.2-1.1-0.5-1.8-0.9l-0.3-0.2l-0.3-0.1c-6.2-2.9-14.7-6.9-24.5-11.4c-25.9-11.9-61.3-28.2-85.3-40.8
			c-2.9-1.5-4.7-3.7-5.4-6.6c-1.1-4.2-0.1-9.4,3-14.1c5-7.8,25.2-38.4,43.1-65.5c21.1-32,30.6-46.3,32.2-48.9c0.1,0,0.2-0.1,0.4-0.2
			l0.5-0.2l0.5-0.2C104,26.7,104.7,26.6,105.5,26.6 M105.5,7.6c-3.6,0-6.9,0.8-10,2.2c-4.1,1.6-7.6,4.3-9.9,8.1c-3,5-65.5,99-75,114
			c-11,17.3-7.7,38.7,9.8,47.8c33.5,17.5,87.9,41.8,110.5,52.5c1,0.5,2.1,1.1,3.2,1.5c0.3,0.1,0.6,0.2,0.9,0.4
			c5.2,2,10.8,3.2,16.7,3.2c22.8,0,41.7-16.9,44.8-38.8c1.7-7.1,1-15.1-3.1-24c-0.1-0.2-0.2-0.4-0.2-0.6c0,0,0,0,0-0.1c0,0,0,0,0,0
			c-0.3-0.8-0.7-1.6-1.1-2.3c-20-42.2-50.6-116.2-62.9-144.9C124.6,15.5,117,7.6,105.5,7.6L105.5,7.6z"/>
	</g>
	<path class="st3" d="M238.2,89.7c0-17.9-14.5-32.4-32.4-32.4c-5.2,0-10.1,1.2-14.5,3.4l0,0l-158,74.5l0,0.1
		c-6.4,2.4-11,8.6-11,15.9c0,9.4,7.6,17,17,17c1.7,0,3.4-0.3,4.9-0.7l0.1,0.3L210,121.9C225.9,119.8,238.2,106.2,238.2,89.7z"/>
	<circle class="st4" cx="105.5" cy="31.7" r="16.3"/>
	<circle class="st5" cx="151.6" cy="191.9" r="34.1"/>
	<circle class="st5" cx="38.6" cy="150.9" r="23.6"/>
	<circle class="st2" cx="38.6" cy="150.9" r="12.5"/>
	<circle class="st5" cx="205.8" cy="89.7" r="16.3"/>
	<circle class="st6" cx="151.6" cy="191.9" r="10.5"/>
	<path class="st7" d="M231,89.7C231,76,219.9,65,206.3,65c-9.1,0-17.1,5-21.4,12.3l-49.1,108.3c-3.3,7-0.4,17.8,8.2,22
		c7.5,3.7,17.5,1.3,23.5-8.3c4.2-6.7,60.1-96.9,60.1-96.9C229.8,98.6,231,94.3,231,89.7z"/>
</g>
</svg>
