<svg id="Layer_1" data-name="Layer 1" xmlns="http://www.w3.org/2000/svg" viewBox="0 0 300 200"><defs><style>.cls-1{fill:#c2c2c2;}.cls-2{fill:#939393;}.cls-3{fill:#e6e6e6;}.cls-4{fill:none;stroke:#fff;stroke-miterlimit:10;stroke-width:4px;}.cls-5{fill:#2488d8;}</style></defs><title>prop-live-query</title><g id="prop-live-query"><g id="Group"><path id="Vector" class="cls-1" d="M164.537,35h-119v90h119Z"/><path id="Vector_2" data-name="Vector 2" class="cls-2" d="M164.537,35h-119V45h119Z"/><path id="Vector_3" data-name="Vector 3" class="cls-3" d="M251.537,100h-119v90h119Z"/><path id="Vector_4" data-name="Vector 4" class="cls-2" d="M251.537,100h-119v10h119Z"/><path id="Vector_5" data-name="Vector 5" class="cls-4" d="M66.432,55.736l16.846,15.92L68.622,88.839"/><path id="Vector_6" data-name="Vector 6" class="cls-4" d="M78.537,97h38"/><g id="Group_2" data-name="Group 2"><path id="Vector_7" data-name="Vector 7" class="cls-1" d="M159.537,121h-13v11h13Z"/><path id="Vector_8" data-name="Vector 8" class="cls-1" d="M237.537,121h-67v11h67Z"/><g id="Group_3" data-name="Group 3"><path id="Vector_9" data-name="Vector 9" class="cls-1" d="M159.537,143h-13v11h13Z"/><path id="Vector_10" data-name="Vector 10" class="cls-1" d="M237.537,143h-67v11h67Z"/><g id="Group_4" data-name="Group 4"><path id="Vector_11" data-name="Vector 11" class="cls-1" d="M159.537,165h-13v11h13Z"/><path id="Vector_12" data-name="Vector 12" class="cls-1" d="M237.537,165h-67v11h67Z"/></g></g></g><path id="Vector_13" data-name="Vector 13" class="cls-5" d="M254.463,10H194.205L167.6,80H194.04l-23.5,62.662L243.483,66H218.522Z"/></g></g></svg>