<svg id="Layer_1" data-name="Layer 1" xmlns="http://www.w3.org/2000/svg" xmlns:xlink="http://www.w3.org/1999/xlink" viewBox="0 0 300 200"><defs><style>.cls-1,.cls-3{fill:none;}.cls-2{clip-path:url(#clip-path);}.cls-3{stroke:#b2b2b2;stroke-miterlimit:10;stroke-width:2.556px;stroke-dasharray:3 3;}.cls-4{fill:#7bc0ef;}.cls-5{fill:#389fe5;}.cls-6{fill:#106ebe;}.cls-7{fill:#d2d2d2;}.cls-8{fill:#fff;}.cls-9{fill:#b2b2b2;}.cls-10{fill:#939393;}</style><clipPath id="clip-path"><rect class="cls-1" width="300" height="200"/></clipPath></defs><title>prop-get-schema</title><g class="cls-2"><g id="prop-automation"><g id="Group"><path id="Vector" class="cls-3" d="M72,76.947l88.881-55.818A30.706,30.706,0,0,1,194.543,72.4l-77.915,49.337a30.756,30.756,0,0,0,15.583,57.172,29.939,29.939,0,0,0,17.988-5.9l78.973-49.917"/><g id="Group_2" data-name="Group 2"><path id="Vector_2" data-name="Vector 2" class="cls-4" d="M233.114,156.561a32.892,32.892,0,1,0-33.186-32.891A33.04,33.04,0,0,0,233.114,156.561Z"/><path id="Vector_3" data-name="Vector 3" class="cls-4" d="M233.114,156.561a32.892,32.892,0,1,0-33.186-32.891A33.04,33.04,0,0,0,233.114,156.561Z"/><path id="Vector_4" data-name="Vector 4" class="cls-5" d="M267,125v-1.645a32.986,32.986,0,0,0-33-32.987V125Z"/><path id="Vector_5" data-name="Vector 5" class="cls-6" d="M233.116,125l21.066,23.8A33.1,33.1,0,0,0,266.3,125Z"/></g><path id="Vector_6" data-name="Vector 6" class="cls-7" d="M135.577,177.941a32.491,32.491,0,0,1-41.459,20.025,32.749,32.749,0,1,1,41.459-20.025Z"/><path id="Vector_7" data-name="Vector 7" class="cls-7" d="M226.958,43.475A32.49,32.49,0,0,1,185.5,63.5a32.749,32.749,0,1,1,41.459-20.025Z"/><path id="Vector_8" data-name="Vector 8" class="cls-8" d="M217,34.875v-5.75l-6.021-.974a13.98,13.98,0,0,0-1.624-3.9l3.631-5.067-4.014-4.093L204,18.8a13.789,13.789,0,0,0-3.726-1.559L199.32,11h-5.64l-.955,6.237A15.859,15.859,0,0,0,189,18.8l-4.97-3.7-4.014,4.093,3.631,5.067a13.98,13.98,0,0,0-1.624,3.9L176,29.125v5.75l5.926.974a15.216,15.216,0,0,0,1.624,4.093l-3.441,4.872,3.919,4.093,4.779-3.508a14.811,14.811,0,0,0,4.014,1.754L193.777,53h5.638l.956-5.847a14.824,14.824,0,0,0,4.014-1.754l4.779,3.508,4.014-4.093-3.441-4.872a15.251,15.251,0,0,0,1.625-4.093ZM196.564,39.9a7.062,7.062,0,1,1,7.022-7.062A7.082,7.082,0,0,1,196.564,39.9Z"/><path id="Vector_9" data-name="Vector 9" class="cls-7" d="M71.7,38H35.347A1.347,1.347,0,0,0,34,39.347v71.3A1.355,1.355,0,0,0,35.355,112H90.647A1.327,1.327,0,0,0,92,110.636l.193-51.994Z"/><path id="Vector_10" data-name="Vector 10" class="cls-9" d="M92.2,58.9,72,38.685V57.646A1.318,1.318,0,0,0,73.347,59Z"/><g id="Group_3" data-name="Group 3"><path id="Vector_11" data-name="Vector 11" class="cls-8" d="M80,63H46v4H80Z"/><path id="Vector_12" data-name="Vector 12" class="cls-8" d="M80,71H46v4H80Z"/><path id="Vector_13" data-name="Vector 13" class="cls-8" d="M80,79H46v4H80Z"/></g><path id="Vector_14" data-name="Vector 14" class="cls-9" d="M56,96H45v7H56Z"/><path id="Vector_15" data-name="Vector 15" class="cls-9" d="M69,93H58v11H69Z"/><path id="Vector_16" data-name="Vector 16" class="cls-9" d="M83,88H72v15H83Z"/><g id="Group_4" data-name="Group 4"><path id="Vector_17" data-name="Vector 17" class="cls-10" d="M107,146h-3.6a1.271,1.271,0,0,0-1.4,1.2V151h6v-3.8a1.272,1.272,0,0,0-1.4-1.2"/><path id="Vector_18" data-name="Vector 18" class="cls-8" d="M121.1,182.535,109,164.288V154h3v-3H99v3h3v10.579L89.5,182.438A2.914,2.914,0,0,0,92,187h26.5A2.914,2.914,0,0,0,121.1,182.535Z"/></g></g></g></g></svg>