<?xml version="1.0" encoding="utf-8"?>
<!-- Generator: Adobe Illustrator 22.1.0, SVG Export Plug-In . SVG Version: 6.00 Build 0)  -->
<svg version="1.1" id="Layer_1" xmlns="http://www.w3.org/2000/svg" xmlns:xlink="http://www.w3.org/1999/xlink" x="0px" y="0px"
	 viewBox="0 0 250 250" style="enable-background:new 0 0 250 250;" xml:space="preserve">
<style type="text/css">
	.st0{fill:#E6E6E6;}
	.st1{fill:#A175D4;}
	.st2{fill:#B491DC;}
	.st3{fill:#D0BAE9;}
	.st4{fill:none;stroke:#C9C9C9;stroke-width:5;stroke-miterlimit:10;}
	.st5{fill:#FFFFFF;stroke:#854CC7;stroke-width:5;stroke-linejoin:round;stroke-miterlimit:10;}
	.st6{opacity:0.2;fill:#854CC7;}
	.st7{fill:#FFFFFF;}
</style>
<path class="st0" d="M235.1,222.2c-5.4-14.6-22.1-61.1-24.8-68.4l11-40.8l8.4,2.3c0.4,0.1,0.9,0.1,1.2-0.1c0.4-0.2,0.6-0.5,0.7-0.9
	l3-11c0.1-0.4,0-0.8-0.2-1.1c-0.2-0.3-0.6-0.6-1-0.7l-56.1-15.1c-0.4-0.1-0.9-0.1-1.2,0.1c-0.4,0.2-0.6,0.5-0.7,0.9l-3,11
	c-0.1,0.4,0,0.8,0.2,1.1c0.2,0.3,0.6,0.6,1,0.7l8.4,2.3l-11.2,41.6c-6.4,5.4-50,42.3-55.5,46.8c-1.9,1.7-3.3,3.9-4,6.3
	c-0.7,2.4-0.6,5,0.2,7.4c0.8,2.8,2.5,5.3,4.7,7.4c2.3,2.1,5.1,3.6,8.1,4.3l90.6,24.4c3.1,0.8,6.3,0.8,9.3,0.1c3-0.7,5.8-2.1,7.9-4.1
	c1.9-1.8,3.2-4.2,3.7-6.7C236.3,227.3,236.1,224.7,235.1,222.2z"/>
<path class="st1" d="M184.2,160.3c0-9.6,6.4-16.4,11.2-19.3c14.9-8.4,28.2-28.9,28.2-50.2c0-33.4-27.8-60.2-61.5-58.7
	c-30,1.4-54.3,25.6-55.9,55.6c-1.2,23.2,11.1,43.6,29.7,54.2l0.1,0c8.7,5.8,9.6,13.8,9.6,19.1v27.6c0,3.1,2.5,5.6,5.6,5.6h27.5
	c3.1,0,5.6-2.5,5.6-5.6v-29.2"/>
<circle class="st2" cx="165.4" cy="90.4" r="47.1"/>
<circle class="st3" cx="165.4" cy="90.4" r="35.4"/>
<path class="st4" d="M69.5,21.2c26.7,15,46.7,31,46.7,31"/>
<path class="st4" d="M17.1,49.7c38.2,6.5,85.5,23.5,85.5,23.5"/>
<path class="st4" d="M62,103.5c29.9-5.9,61.3-7.6,61.3-7.6"/>
<path class="st4" d="M28.3,154.5c38.5-18.3,67-29,67-29"/>
<circle class="st5" cx="17.1" cy="49.7" r="11.8"/>
<circle class="st5" cx="69.5" cy="21.2" r="11.8"/>
<circle class="st5" cx="62" cy="103.5" r="11.8"/>
<circle class="st5" cx="26.4" cy="155.4" r="11.8"/>
<path class="st6" d="M159.8,194.1H170c7.9,0,14.2-6.4,14.2-14.2v-19.6c0-9.6,6.4-16.4,11.2-19.3c10.9-6.2,21-18.9,25.6-33.6
	c1.5-4.7-1.3-9.7-6-10.9l-37.8-10.2c-0.4-0.1-0.9-0.1-1.2,0.1c-0.4,0.2-0.6,0.5-0.7,0.9l-3,11c-0.1,0.4,0,0.8,0.2,1.1
	c0.2,0.3,0.6,0.6,1,0.7h0c4.6,1.2,7.4,6,6.1,10.6l-8.2,30.6c-0.5,1.7-1.4,3.2-2.8,4.4c-4,3.4-11.6,9.8-20,16.9
	c-1.9,1.6-3.1,4.1-3.1,6.6v10.7C145.6,187.8,152,194.1,159.8,194.1z"/>
<g>
	<rect x="145.6" y="162.5" class="st7" width="38.6" height="10.9"/>
</g>
</svg>
