<svg id="Layer_1" data-name="Layer 1" xmlns="http://www.w3.org/2000/svg" viewBox="0 0 300 200"><defs><style>.cls-1{fill:#e6e6e6;}.cls-2{fill:#939393;}.cls-3{fill:#2488d8;}.cls-4{fill:#c2c2c2;}.cls-5{fill:#a5a5a5;}.cls-6{fill:#d2d2d2;}.cls-7{fill:#fff;}</style></defs><title>prop-no-code-ui</title><g id="prop-press-button"><g id="Group"><path id="Vector" class="cls-1" d="M251.777,4h-172V139h172Z"/><path id="Vector_2" data-name="Vector 2" class="cls-2" d="M251.777,0h-172V15h172Z"/><path id="Vector_3" data-name="Vector 3" class="cls-3" d="M177.777,42h-71V87h71Z"/><path id="Vector_4" data-name="Vector 4" class="cls-4" d="M73.535,100.99,67.2,92.917a3.933,3.933,0,0,1-.634-1.583L65.779,81.6a2.548,2.548,0,0,1,.475-1.82l4.511-6.806.633.316a4.494,4.494,0,0,1,2.058,2.137l2.216-9.5a5.481,5.481,0,0,1,.4-1.029l5.382-9.419,1.266.713a4.472,4.472,0,0,1,2.058,2.453,5.061,5.061,0,0,1,.079,3.245L82.32,68.857l-1.108,9.577,1.979,7.044-.475-9.26a4.505,4.505,0,0,1,.317-1.742l5.936-14.088a3.305,3.305,0,0,1,.87-1.424l9.814-10.526,1.584,1.582a5.239,5.239,0,0,1,1.5,2.929,4.9,4.9,0,0,1-.633,3.166L97.2,63.159,93.163,76.138l.554,4.274,4.432-8.943a3.274,3.274,0,0,1,1.188-1.346,3.483,3.483,0,0,1,1.741-.554l5.7-.554v9.656l-1.425.633-3.8,8.627,3.245,12.821a8.294,8.294,0,0,0,1.5,3.008,7.359,7.359,0,0,0,2.612,2.057,7.835,7.835,0,0,0,3.245.792,8.264,8.264,0,0,0,3.324-.633l1.9-.792,7.123-10.051-.633-5.065c0-.237-.079-.554-.079-.791a37.04,37.04,0,0,0,9.814,4.986l.712,3.8-7.519,20.26L97.675,154.65,75.514,141.908Z"/><path id="Vector_5" data-name="Vector 5" class="cls-5" d="M75.449,91.017,72.521,80.966l-.792,1.82,2.3,6.886Z"/><path id="Vector_6" data-name="Vector 6" class="cls-5" d="M90.25,141.829a24.915,24.915,0,0,1,9.022-9.973l17.016-10.526a8.934,8.934,0,0,0,2.77-3.4l5.619-11.476c1.662-4.67-.158-11.238-.158-11.238l-.633-5.066a5.338,5.338,0,0,1-.079-.791c-.079-5.065,4.59-9.339,8.073-8.231l2.453,16.937-7.519,20.261L97.768,154.65l-10.763-6.173Z"/><path id="Vector_7" data-name="Vector 7" class="cls-4" d="M133.066,89.039s-3.4.634-3.8-2.611c-.554-4.986,2.691-5.066,2.691-5.066Z"/><path id="Vector_8" data-name="Vector 8" class="cls-4" d="M51.785,200l22.952-58.726a43.718,43.718,0,0,1,28.334,8.231l2.057,1.5L96.344,200Z"/><path id="Vector_9" data-name="Vector 9" class="cls-6" d="M48.223,200l26.514-58.726a42.33,42.33,0,0,1,14.088,1.5L68.485,200Z"/><path id="Vector_10" data-name="Vector 10" class="cls-7" d="M231.777,97h-76v30h76Z"/><path id="Vector_11" data-name="Vector 11" class="cls-4" d="M240.777,27h-56V66h56Z"/></g></g></svg>