<svg id="Layer_1" data-name="Layer 1" xmlns="http://www.w3.org/2000/svg" viewBox="0 0 300 200"><defs><style>.cls-1{fill:#939393;}.cls-2{fill:#b2b2b2;}.cls-3{fill:#d2d2d2;}.cls-4{fill:#389fe5;}.cls-5{fill:#106ebe;}.cls-6{fill:#2488d8;}.cls-7{fill:#7bc0ef;}</style></defs><title>prop-sql-knowledge</title><g id="prop-sql-knowledge"><g id="Group"><g id="Group_2" data-name="Group 2"><path id="Vector" class="cls-1" d="M272.5,135.021h-128v25.248c.435,16.433,28.843,29.71,64,29.71s63.564-13.277,64-29.71Z"/><path id="Vector_2" data-name="Vector 2" class="cls-2" d="M187.61,135.021H144.5v25.248c.328,12.95,18.163,23.942,43,28.077V135.021Z"/><path id="Vector_3" data-name="Vector 3" class="cls-3" d="M208.371,165.1c35.341,0,63.991-13.447,63.991-30.036s-28.65-30.036-63.991-30.036-63.99,13.448-63.99,30.036S173.03,165.1,208.371,165.1Z"/></g><g id="Group_3" data-name="Group 3"><path id="Vector_4" data-name="Vector 4" class="cls-1" d="M272.5,101.021h-128v25.248c.435,16.433,28.843,29.71,64,29.71s63.564-13.277,64-29.71Z"/><path id="Vector_5" data-name="Vector 5" class="cls-2" d="M187.61,101.021H144.5v25.248c.328,12.95,18.163,23.942,43,28.077V101.021Z"/><path id="Vector_6" data-name="Vector 6" class="cls-3" d="M208.371,130.928c35.341,0,63.991-13.448,63.991-30.037s-28.65-30.036-63.991-30.036-63.99,13.448-63.99,30.036S173.03,130.928,208.371,130.928Z"/></g><g id="Group_4" data-name="Group 4"><path id="Vector_7" data-name="Vector 7" class="cls-1" d="M272.5,67.021h-128V92.269c.435,16.433,28.843,29.71,64,29.71s63.564-13.277,64-29.71Z"/><path id="Vector_8" data-name="Vector 8" class="cls-2" d="M187.61,67.021H144.5V92.269c.328,12.951,18.163,23.942,43,28.077V67.021Z"/><path id="Vector_9" data-name="Vector 9" class="cls-3" d="M208.371,96.757c35.341,0,63.991-13.448,63.991-30.037s-28.65-30.036-63.991-30.036-63.99,13.448-63.99,30.036S173.03,96.757,208.371,96.757Z"/></g><g id="Group_5" data-name="Group 5"><path id="Vector_10" data-name="Vector 10" class="cls-4" d="M68.5,164.962V140.839c0-3.339-3.123-6.032-7-6.032s-7,2.693-7,6.032v28Z"/><g id="Group_6" data-name="Group 6"><path id="Vector_11" data-name="Vector 11" class="cls-5" d="M61.237,140.505c-1.2,0-2.176-.871-1.737-1.959V81.63c-.439-.762.1-1.415.867-1.742l64.752-25.356a2.394,2.394,0,0,1,2.938.979,1.769,1.769,0,0,1-1.088,2.5L63.5,82.935v55.72A2.217,2.217,0,0,1,61.237,140.505Z"/></g><path id="Vector_12" data-name="Vector 12" class="cls-6" d="M174.609,82.021H74.5V121.2c.326,13.6,22.609,24.6,50,24.6s49.673-10.992,50-24.6V82.021Z"/><path id="Vector_13" data-name="Vector 13" class="cls-4" d="M108.5,80.021h-34v41.137c.221,10.665,14.35,19.806,34,23.18Z"/><path id="Vector_14" data-name="Vector 14" class="cls-5" d="M27.5,63.021v5.768L120.914,121.9,216.5,68.789V63.021Z"/><path id="Vector_15" data-name="Vector 15" class="cls-7" d="M216.859,63.237l-95.768,53.217L27.5,63.237l94.68-53.216Z"/></g></g></g></svg>