<svg id="Layer_1" data-name="Layer 1" xmlns="http://www.w3.org/2000/svg" viewBox="0 0 300 200"><defs><style>.cls-1,.cls-8{fill:none;stroke-miterlimit:10;}.cls-1{stroke:#b2b2b2;stroke-width:2.5px;}.cls-2{fill:#7bc0ef;}.cls-3{fill:#389fe5;}.cls-4{fill:#106ebe;}.cls-5{fill:#d2d2d2;}.cls-6{fill:#b2b2b2;}.cls-7{fill:#939393;}.cls-8{stroke:#fff;stroke-width:3px;}</style></defs><title>prop-add-sql-to-flow</title><g id="prop-add-sql-to-flow"><g id="Group"><path id="Vector" class="cls-1" d="M228.289,122.248v13.373a12.124,12.124,0,0,1-12.17,12.127h-35.33"/><path id="Vector_2" data-name="Vector 2" class="cls-1" d="M136.789,186.748H89.459a12.125,12.125,0,0,1-12.17-12.127V138.248"/><g id="Group_2" data-name="Group 2"><path id="Vector_3" data-name="Vector 3" class="cls-2" d="M153.893,200.248a47.109,47.109,0,1,0-47.276-47.109A47.192,47.192,0,0,0,153.893,200.248Z"/><path id="Vector_4" data-name="Vector 4" class="cls-2" d="M153.893,200.248a47.109,47.109,0,1,0-47.276-47.109A47.192,47.192,0,0,0,153.893,200.248Z"/><path id="Vector_5" data-name="Vector 5" class="cls-3" d="M200.784,155.248c0-.746.094-1.586.094-2.425A46.982,46.982,0,0,0,153.789,105.9v49.347Z"/><path id="Vector_6" data-name="Vector 6" class="cls-4" d="M153.611,155.248l29.957,33.862A46.645,46.645,0,0,0,200.7,155.248Z"/></g><g id="Group_3" data-name="Group 3"><g id="Group_4" data-name="Group 4"><path id="Vector_7" data-name="Vector 7" class="cls-5" d="M123.789,108.248h-93v17.818c.282,11.567,20.949,20.988,46.5,20.988s46.218-9.328,46.5-20.988Z"/><path id="Vector_8" data-name="Vector 8" class="cls-6" d="M77.129,129.352c25.592,0,46.339-9.815,46.339-21.922S102.721,85.509,77.129,85.509s-46.34,9.815-46.34,21.921S51.536,129.352,77.129,129.352Z"/></g><g id="Group_5" data-name="Group 5"><path id="Vector_9" data-name="Vector 9" class="cls-5" d="M123.789,86.248h-93v17.818c.282,11.567,20.949,20.988,46.5,20.988s46.218-9.328,46.5-20.988Z"/><path id="Vector_10" data-name="Vector 10" class="cls-6" d="M77.129,107.9c25.592,0,46.339-9.815,46.339-21.921S102.721,64.054,77.129,64.054s-46.34,9.814-46.34,21.922S51.536,107.9,77.129,107.9Z"/></g><g id="Group_6" data-name="Group 6"><path id="Vector_11" data-name="Vector 11" class="cls-5" d="M123.789,66.248h-93V84.065c.282,11.568,20.949,20.989,46.5,20.989s46.218-9.328,46.5-20.989Z"/><path id="Vector_12" data-name="Vector 12" class="cls-7" d="M77.129,87.375c25.592,0,46.339-9.815,46.339-21.922S102.721,43.531,77.129,43.531s-46.34,9.815-46.34,21.922S51.536,87.375,77.129,87.375Z"/></g></g><path id="Vector_13" data-name="Vector 13" class="cls-1" d="M77.289,65.248V24.875a12.125,12.125,0,0,1,12.17-12.127h127.33"/><g id="Group_7" data-name="Group 7"><path id="Vector_14" data-name="Vector 14" class="cls-5" d="M269.211,39.211c0-21.829-18.038-39.459-40.422-39.459s-40.421,17.63-40.421,39.366A38.659,38.659,0,0,0,200.74,67.476,35.526,35.526,0,0,1,211.789,93.5v.746h34V93.5A36.969,36.969,0,0,1,257.4,67.009,38.638,38.638,0,0,0,269.211,39.211Z"/><path id="Vector_15" data-name="Vector 15" class="cls-7" d="M211.789,95.248v18.216a4.9,4.9,0,0,0,5.005,4.784h6.995v5h10v-5h7.038a4.977,4.977,0,0,0,4.962-4.962V95.248Z"/><path id="Vector_16" data-name="Vector 16" class="cls-6" d="M211.789,99.248h28.2a4.019,4.019,0,0,1-4.014,4H211.789Z"/><path id="Vector_17" data-name="Vector 17" class="cls-6" d="M211.789,108.248h28.194a4.018,4.018,0,0,1-4.012,4H211.789Z"/></g><path id="Vector_18" data-name="Vector 18" class="cls-8" d="M205.789,33.748h43"/><path id="Vector_19" data-name="Vector 19" class="cls-8" d="M205.789,42.748h43"/><path id="Vector_20" data-name="Vector 20" class="cls-8" d="M205.789,52.748h43"/></g></g></svg>