<svg xmlns="http://www.w3.org/2000/svg" xmlns:xlink="http://www.w3.org/1999/xlink" viewBox="0 0 2560 1440"><defs><clipPath id="a"><rect x="-3" y="-1.688" width="2566" height="1443.375" fill="none"/></clipPath><clipPath id="b"><rect x="6.677" y="928.225" width="2553.316" height="491.544" fill="none"/></clipPath><clipPath id="c"><polygon points="231.485 299.519 -47.467 299.519 -83.852 869.552 267.87 869.552 231.485 299.519" fill="none"/></clipPath><clipPath id="d"><polygon points="187.823 869.552 267.87 869.552 231.485 299.519 187.823 299.519 187.823 869.552" fill="none"/></clipPath></defs><title>socialmedia-devops-youtube-header</title><g clip-path="url(#a)"><rect x="-3" y="-2.69" width="2566" height="1445.38" fill="#1c4768"/><polygon points="925.412 721.962 876.024 721.962 876.024 594 783.434 594 783.434 492.602 704.415 547.538 703.894 377.494 678.835 377.494 678.835 353.437 583.613 353.437 583.613 677.86 566.573 677.86 566.573 420.659 498.593 420.659 498.593 547.899 498.593 550.229 449.312 550.229 449.312 619.899 414.213 619.899 414.213 882.513 464.33 882.513 464.33 882.013 925.412 881.673 925.412 721.962" fill="#11334b"/><path d="M423.473,735.869V524.391H407.72V485.837H394.057V431.8A36.73,36.73,0,0,0,387,409.505v-9.627a31.81,31.81,0,0,0-8.064-21.281V372.01a21.689,21.689,0,0,0-8.064-17.227V344.649a15.127,15.127,0,0,0-6.048-12.16v-9.121a9.059,9.059,0,0,0-9.073-9.12h-5.819V272.17c0-1.023-1.4-2.046-2.8-2.046a1.991,1.991,0,0,0-2.1,2.046v42.077h-4.9a9.764,9.764,0,0,0-9.805,9.805v8.612a14.885,14.885,0,0,0-4.9,11v9.617a22.588,22.588,0,0,0-9.805,18.22v5.084a29.24,29.24,0,0,0-9.805,21.725V407.4c-2.19,3.681-4.9,9.361-4.9,24.027v57.418H290.444V527.05H271.493v208.82h-4.9V799.6H433.278V735.869Z" fill="#11334b"/><path d="M2563,191.122c-4.028-1.961-11.279-3.576-15.72-4.774-6.283-1.059-12.566-2.119-18.849-2.119a71.761,71.761,0,0,0-42.931,13.778c-7.33-12.718-17.8-23.317-30.367-31.8a78.112,78.112,0,0,0-18.848-8.479c-9.424-3.18-18.848-5.3-29.319-5.3-49.214,0-89,39.215-91.1,87.968v2.12h-1.047c-39.79,0-72.251,32.855-72.251,73.13a73.143,73.143,0,0,0,14.66,44.514c13.613,16.957,33.507,28.616,57.591,28.616H2563Z" fill="#235a89" fill-rule="evenodd"/><path d="M2151.295,636.629a41.657,41.657,0,0,0-5.242-6.821v-3.789c0-24.253-15.726-44.717-38.189-50.781a81.59,81.59,0,0,0-13.479-1.515,51.317,51.317,0,0,0-30.7,9.853,69.52,69.52,0,0,0-21.716-22.738,55.861,55.861,0,0,0-13.478-6.063,64.258,64.258,0,0,0-20.966-3.789c-35.194,0-63.649,28.043-65.147,62.907v1.516h-.749c-28.455,0-51.668,23.5-51.668,52.3a52.306,52.306,0,0,0,10.483,31.833c9.735,12.126,23.962,20.464,41.184,20.464h202.178c8.237,0,16.473-2.274,22.464-6.821a41.139,41.139,0,0,0,19.469-34.864A42.836,42.836,0,0,0,2151.295,636.629Z" fill="#235a89" fill-rule="evenodd"/><path d="M2559.993,882.513V544.187H2485.9V673.519h-39.058V415.8h-15.009a8.839,8.839,0,1,0,0-17.669h-7.241c5.89,0,10.471-5.543,10.471-11.779,0-6.929-4.581-11.779-10.471-11.779H2411.1c6.7-.548,12.185-6.027,12.185-12.053s-5.483-10.958-12.185-11.505h-17.263l-6.625-53.006h-5.154V241.576a2.392,2.392,0,0,0-2.524-2.458c-1.683,0-3.365,1.229-3.365,2.458v56.437h-3.656l-8.123,53.006h-16.429c-7.439,0-13.019,4.931-13.019,11.505s5.58,12.053,13.019,12.053h-13.932c-6.392,0-10.866,4.85-10.866,11.779,0,6.236,4.474,11.779,10.866,11.779H2321.71c-5.809,0-10.327,3.865-10.327,8.834s4.518,8.834,10.327,8.834h-10.327V624.553h-28.867v82.454h-48.872V654h-56.2l-24.5,24.9V813.143h-54.376v69.371Z" fill="#11334b" fill-rule="evenodd"/><rect x="-5.005" y="873.119" width="2567.002" height="569.571" fill="#11334b"/><g clip-path="url(#b)"><polygon points="925.412 883.182 876.024 883.182 876.024 973.83 783.434 973.83 783.434 1045.66 704.415 1006.744 703.894 1127.203 678.835 1127.203 678.835 1144.244 583.613 1144.244 583.613 914.424 566.573 914.424 566.573 1096.624 498.593 1096.624 498.593 1006.488 498.593 1004.837 449.312 1004.837 449.312 955.483 414.213 955.483 414.213 769.448 464.33 769.448 464.33 769.802 925.412 770.043 925.412 883.182" fill="#0c2a3d"/><path d="M433.278,873.33V828.181H266.59V873.33h4.9v147.928h18.952v27.067h10.463V1089c0,10.39,2.713,14.413,4.9,17.021v6.438c0,6.071,3.778,11.517,9.805,15.39v3.6c0,5.2,3.887,9.913,9.805,12.907v6.813c0,3.032,1.875,5.85,4.9,7.791v6.1c0,3.859,4.358,6.946,9.805,6.946h4.9v29.807c0,.725.7,1.45,2.1,1.45s2.8-.725,2.8-1.45v-29.807h5.819c5.04,0,9.073-2.871,9.073-6.461v-6.461c3.528-1.794,6.048-5.025,6.048-8.614v-7.179c5.04-2.871,8.064-7.179,8.064-12.2v-4.666c5.04-3.948,8.064-9.332,8.064-15.076v-6.82a21.376,21.376,0,0,0,7.056-15.793v-38.28H407.72v-27.311h15.753V873.33Z" fill="#0c2a3d"/><rect x="104.652" y="858.339" width="109.518" height="188.425" fill="#0c2a3d"/><rect x="-0.932" y="869.191" width="121.442" height="121.442" fill="#0c2a3d"/><path d="M2563,872.7v287.674h-74.575V1050.405h-39.312v219.13h-15.107c5.164,0,9.179,3.286,9.179,7.512s-4.015,7.512-9.179,7.512h-7.288a10.368,10.368,0,0,1,10.539,10.016c0,5.892-4.611,10.016-10.539,10.016h-13.582c6.746.466,12.265,5.124,12.265,10.249s-5.519,9.317-12.265,9.783h-17.375l-6.669,45.07h-5.187v47.988c0,1.045-.847,2.09-2.54,2.09s-3.387-1.045-3.387-2.09v-47.988h-3.68l-8.176-45.07h-16.536c-7.488,0-13.1-4.193-13.1-9.783s5.616-10.249,13.1-10.249h-14.023c-6.434,0-10.937-4.124-10.937-10.016,0-5.3,4.5-10.016,10.937-10.016h-12.4c-5.847,0-10.394-3.287-10.394-7.512s4.547-7.512,10.394-7.512H2312.77v-177.5h-29.055v-70.109h-49.191V1067h-56.569l-24.655-21.175v-92.09h-54.73V872.7Z" fill="#0c2a3d" fill-rule="evenodd"/></g><path d="M306.985,503.142a93.484,93.484,0,0,0-28.995-7s.446-4.911.519-12.3c-.026-.026-.049-.053-.075-.079v-7.591c0-.255-.014-.507-.015-.762-.142-4.459-.452-9.338-1.035-14.327-5.765-41.816-35.2-75.772-75.452-86.637-9-1.518-18-3.036-27-3.036-24,0-45,7.591-61.5,19.738-10.5-18.22-25.5-33.4-43.5-45.549a111.9,111.9,0,0,0-27-12.147c-13.5-4.555-27-7.591-42-7.591-2.471,0-4.923.076-7.359.213V664.441H273.934c16.5,0,33-4.555,45-13.665,24-15.183,39-40.994,39-69.842C357.936,546.542,336.816,516.434,306.985,503.142Z" fill="#235a89" fill-rule="evenodd"/><circle cx="615.446" cy="171.718" r="5.67" fill="#235a89"/><circle cx="954.238" cy="248.898" r="5.67" fill="#235a89"/><circle cx="868.037" cy="189.76" r="5.67" fill="#235a89"/><circle cx="805.812" cy="352.025" r="5.67" transform="translate(-68.235 448.448) rotate(-29.894)" fill="#235a89"/><circle cx="719.769" cy="61.575" r="5.67" transform="translate(65.076 366.921) rotate(-29.894)" fill="#235a89"/><circle cx="700.497" cy="108.496" r="5.67" transform="translate(39.127 363.558) rotate(-29.894)" fill="#235a89"/><circle cx="298.57" cy="379.072" r="5.67" transform="translate(-182.22 338.073) rotate(-46.901)" fill="#235a89"/><circle cx="738.181" cy="426.751" r="5.67" transform="translate(-77.793 674.166) rotate(-46.901)" fill="#235a89"/><circle cx="474.114" cy="110.598" r="5.67" transform="translate(69.414 381.215) rotate(-46.901)" fill="#235a89"/><circle cx="533.763" cy="266.735" r="5.67" transform="translate(152.147 725.45) rotate(-76.795)" fill="#235a89"/><circle cx="262.895" cy="131.106" r="5.67" transform="translate(75.199 357.099) rotate(-76.795)" fill="#235a89"/><circle cx="283.987" cy="177.238" r="5.67" transform="translate(46.561 413.227) rotate(-76.795)" fill="#235a89"/><circle cx="1248.198" cy="187.755" r="5.67" fill="#235a89"/><circle cx="970.276" cy="44.764" r="5.67" fill="#235a89"/><circle cx="984.582" cy="157.685" r="5.67" fill="#235a89"/><circle cx="1060.487" cy="28.383" r="5.67" transform="translate(126.951 532.316) rotate(-29.894)" fill="#235a89"/><circle cx="1061.393" cy="318.241" r="5.67" transform="translate(-17.392 571.333) rotate(-29.894)" fill="#235a89"/><circle cx="1192.796" cy="250.903" r="5.67" transform="translate(33.652 627.864) rotate(-29.894)" fill="#235a89"/><circle cx="1591.606" cy="76.937" r="5.67" transform="matrix(0.683, -0.73, 0.73, 0.683, 447.942, 1186.514)" fill="#235a89"/><circle cx="1399.279" cy="220.833" r="5.67" transform="translate(281.956 1091.659) rotate(-46.901)" fill="#235a89"/><circle cx="1389.53" cy="248.876" r="5.67" transform="translate(258.392 1093.423) rotate(-46.901)" fill="#235a89"/><circle cx="1186.073" cy="72.98" r="5.67" transform="translate(844.072 1211.018) rotate(-76.795)" fill="#235a89"/><circle cx="1600.749" cy="228.367" r="5.67" transform="translate(1012.739 1734.619) rotate(-76.795)" fill="#235a89"/><circle cx="826.716" cy="475.869" r="5.67" transform="translate(174.572 1172.016) rotate(-76.795)" fill="#235a89"/><circle cx="1980.638" cy="225.186" r="5.67" fill="#235a89"/><circle cx="1703.991" cy="315.397" r="5.67" fill="#235a89"/><circle cx="1736.339" cy="181.741" r="5.67" fill="#235a89"/><circle cx="1764.953" cy="346.222" r="5.67" transform="translate(585.155 1703.795) rotate(-60.106)" fill="#235a89"/><circle cx="1895.632" cy="41.528" r="5.67" transform="translate(914.859 1664.251) rotate(-60.106)" fill="#235a89"/><circle cx="1914.905" cy="88.449" r="5.67" transform="translate(883.848 1704.495) rotate(-60.106)" fill="#235a89"/><circle cx="2183.112" cy="341.114" r="5.67" transform="translate(355.995 1583.684) rotate(-43.099)" fill="#235a89"/><circle cx="2095.032" cy="95.398" r="5.67" transform="translate(500.118 1457.201) rotate(-43.099)" fill="#235a89"/><circle cx="2245.392" cy="42.285" r="5.67" transform="translate(576.979 1545.606) rotate(-43.099)" fill="#235a89"/><circle cx="2081.638" cy="246.688" r="5.67" transform="translate(-1.31 482.06) rotate(-13.205)" fill="#235a89"/><circle cx="2352.507" cy="111.059" r="5.67" transform="translate(36.836 540.352) rotate(-13.205)" fill="#235a89"/><circle cx="2117.666" cy="221.327" r="5.67" transform="translate(5.436 489.62) rotate(-13.205)" fill="#235a89"/><circle cx="2003.965" cy="407.269" r="5.67" fill="#235a89"/><circle cx="66.162" cy="228.852" r="5.67" fill="#235a89"/><circle cx="2520.806" cy="426.751" r="5.67" transform="translate(122.701 1313.132) rotate(-29.894)" fill="#235a89"/><circle cx="101.095" cy="45.348" r="5.67" transform="translate(-9.151 56.419) rotate(-29.894)" fill="#235a89"/><circle cx="401.798" cy="25.301" r="5.67" transform="translate(40.849 203.62) rotate(-29.894)" fill="#235a89"/><circle cx="430.109" cy="235.687" r="5.67" transform="translate(-60.239 245.721) rotate(-29.894)" fill="#45779e"/><circle cx="1868.511" cy="224.973" r="5.67" transform="translate(427.556 1435.59) rotate(-46.901)" fill="#45779e"/><circle cx="2005.404" cy="35.908" r="5.67" transform="translate(1512.324 1980.08) rotate(-76.795)" fill="#45779e"/><circle cx="1498.237" cy="158.169" r="5.67" fill="#45779e"/><circle cx="1265.786" cy="101.458" r="5.67" transform="translate(117.846 644.359) rotate(-29.894)" fill="#45779e"/><circle cx="1419.326" cy="36.402" r="5.67" transform="translate(170.698 712.226) rotate(-29.894)" fill="#45779e"/><circle cx="880.187" cy="226.89" r="5.67" transform="translate(113.118 714.551) rotate(-46.901)" fill="#45779e"/><circle cx="1083.539" cy="95.022" r="5.67" transform="translate(273.814 821.266) rotate(-46.901)" fill="#45779e"/><circle cx="559.315" cy="64.123" r="5.67" fill="#45779e"/><circle cx="793.863" cy="34.397" r="5.67" fill="#45779e"/><circle cx="694.45" cy="268.039" r="5.67" transform="translate(115.964 736.504) rotate(-60.106)" fill="#45779e"/><circle cx="280.446" cy="295.35" r="5.67" transform="translate(-126.13 271.313) rotate(-43.099)" fill="#45779e"/><circle cx="401.18" cy="69.167" r="5.67" transform="translate(-5.192 93.476) rotate(-13.205)" fill="#45779e"/><circle cx="130.312" cy="204.795" r="5.67" transform="translate(-43.338 35.184) rotate(-13.205)" fill="#45779e"/><circle cx="2331.606" cy="150.225" r="5.67" transform="translate(235.347 1182.045) rotate(-29.894)" fill="#45779e"/><circle cx="2082.877" cy="313.048" r="5.67" transform="translate(121.104 1079.744) rotate(-29.894)" fill="#45779e"/><rect x="158.715" y="367.438" width="164.946" height="286.229" fill="#45779e"/><path d="M442.518,869.552H-142.069V529.958s434.2,12.128,628.249,143.115C464.349,767.674,442.518,869.552,442.518,869.552Z" fill="#235a89"/><polygon points="158.715 573.889 158.715 653.667 181.645 653.667 158.715 573.889" fill="#61b1e2"/><polygon points="323.66 529.958 323.66 367.438 254.009 367.438 323.66 529.958" fill="#6597bf"/><polyline points="383.089 673.072 383.089 726.437 -142.069 726.437 -142.069 673.072" fill="#6597bf"/><path d="M-142.069,726.437V869.552H442.518s14.4-67.195,31.5-143.115Z" fill="#6597bf"/><path d="M385.515,870.333l56.684.2c5.531-25.69,20.412-93.113,31.822-144.092H383.089Z" fill="#45779e"/><rect x="-15.934" y="251.005" width="206.182" height="111.581" fill="#235a89"/><polygon points="98.073 362.586 -15.934 362.586 -15.934 251.005 55.219 253.431 98.073 362.586" fill="#45779e"/><rect x="-127.515" y="246.154" width="361.425" height="12.128" fill="#45779e"/><polygon points="231.485 299.519 -47.467 299.519 -83.852 869.552 267.87 869.552 231.485 299.519" fill="#6597bf"/><polygon points="23.39 299.519 -47.467 299.519 -83.852 869.552 242.17 869.552 23.39 299.519" fill="#45779e"/><g clip-path="url(#c)"><rect x="-76.575" y="362.586" width="395.385" height="4.851" fill="#6597bf"/><rect x="-86.278" y="435.357" width="402.662" height="4.851" fill="#6597bf"/><rect x="-93.555" y="508.127" width="409.939" height="4.851" fill="#6597bf"/><rect x="-100.832" y="580.897" width="419.641" height="4.851" fill="#6597bf"/><rect x="-110.535" y="653.667" width="426.918" height="4.851" fill="#6597bf"/><rect x="-117.812" y="726.437" width="434.195" height="4.851" fill="#6597bf"/><rect x="-125.089" y="799.207" width="443.898" height="4.851" fill="#6597bf"/></g><polygon points="187.823 869.552 267.87 869.552 231.485 299.519 187.823 299.519 187.823 869.552" fill="#45779e"/><g clip-path="url(#d)"><rect x="180.546" y="365.012" width="77.621" height="72.77" fill="#235a89"/><rect x="180.546" y="510.552" width="84.899" height="72.77" fill="#235a89"/><rect x="180.546" y="656.093" width="89.75" height="72.77" fill="#235a89"/><rect x="180.546" y="801.633" width="99.453" height="72.77" fill="#104076"/></g><polygon points="-4.675 868.723 -9.521 868.503 18.028 299.405 22.875 299.625 -4.675 868.723" fill="#6597bf"/><polygon points="34.309 868.702 29.462 868.523 51.988 299.425 56.834 299.604 34.309 868.702" fill="#6597bf"/><polygon points="73.297 868.681 68.446 868.544 85.945 299.446 90.796 299.583 73.297 868.681" fill="#6597bf"/><polygon points="112.281 868.663 107.43 868.562 119.904 299.464 124.755 299.565 112.281 868.663" fill="#6597bf"/><rect x="-132.36" y="582.144" width="570.021" height="4.784" transform="translate(-433.744 729.881) rotate(-89.285)" fill="#6597bf"/><circle cx="1400.158" cy="346.125" r="5.67" fill="#235a89"/><circle cx="1663.775" cy="376.195" r="5.67" fill="#235a89"/><circle cx="1056.75" cy="456.944" r="5.67" transform="translate(1.064 916.339) rotate(-46.901)" fill="#235a89"/><circle cx="1462.284" cy="460.9" r="5.67" transform="translate(679.521 1779.227) rotate(-76.795)" fill="#235a89"/><circle cx="1077.869" cy="388.781" r="5.67" transform="translate(453.136 1349.334) rotate(-76.795)" fill="#235a89"/><circle cx="1150.119" cy="375.711" r="5.67" fill="#45779e"/><circle cx="1382.57" cy="432.422" r="5.67" transform="translate(-31.567 746.598) rotate(-29.894)" fill="#45779e"/><circle cx="1229.03" cy="497.479" r="5.67" transform="translate(-84.419 678.73) rotate(-29.894)" fill="#45779e"/><circle cx="1564.817" cy="438.859" r="5.67" transform="translate(175.192 1281.587) rotate(-46.901)" fill="#45779e"/><circle cx="1901.726" cy="586.688" r="5.67" fill="#235a89"/><circle cx="1744.085" cy="567.644" r="5.67" fill="#235a89"/><circle cx="2245.134" cy="475.869" r="5.67" transform="translate(363.648 1790.057) rotate(-46.901)" fill="#45779e"/><circle cx="1839.601" cy="471.913" r="5.67" transform="translate(959.922 2155.064) rotate(-76.795)" fill="#235a89"/><circle cx="2177.442" cy="550.948" r="5.67" transform="translate(1143.64 2544.951) rotate(-76.795)" fill="#235a89"/><circle cx="925.074" cy="405.606" r="5.67" fill="#45779e"/><circle cx="1919.314" cy="498.386" r="5.67" transform="translate(6.971 1022.884) rotate(-29.894)" fill="#45779e"/><circle cx="2072.854" cy="435.334" r="5.67" transform="translate(58.824 1091.018) rotate(-29.894)" fill="#45779e"/><circle cx="1727.917" cy="481.577" r="5.67" transform="translate(195.659 1414.208) rotate(-46.901)" fill="#45779e"/><circle cx="1332.415" cy="547.088" r="5.67" transform="translate(495.411 1719.292) rotate(-76.795)" fill="#235a89"/><circle cx="1033.605" cy="534.662" r="5.67" transform="translate(-128.952 586.278) rotate(-29.894)" fill="#45779e"/><circle cx="1152.043" cy="571.208" r="5.67" transform="translate(332.762 1562.298) rotate(-76.795)" fill="#235a89"/><circle cx="861.363" cy="531.114" r="5.67" transform="translate(147.52 1248.37) rotate(-76.795)" fill="#235a89"/><circle cx="443.123" cy="384.33" r="5.67" transform="translate(-132.59 271.984) rotate(-29.894)" fill="#235a89"/><circle cx="517.216" cy="357.152" r="5.67" fill="#45779e"/><rect x="-6.432" y="870.333" width="2569.432" height="57.892" fill="#235a89"/><path d="M1964.793,907.681a2.474,2.474,0,0,1,2.42,2.407,2.42,2.42,0,0,1-2.42,2.407H466.665a2.37,2.37,0,0,1-2.42-2.407,2.42,2.42,0,0,1,2.42-2.407Z" fill="#212121"/><path d="M1056.315,776.367c11.186,4.068,17.485,10.681,17.8,25.931.312,15.315-2.251,23.551-2.654,24.745h-2.213c-.909-2.479-7.227-18.287-21.743-22.033C1035.481,801.908,1056.315,776.367,1056.315,776.367Z" fill="#bd3604"/><path d="M1015.5,776.367c-11.186,4.068-17.485,10.681-17.8,25.931-.312,15.315,2.251,23.551,2.654,24.745h2.213c.909-2.479,7.227-18.287,21.743-22.033C1036.334,801.908,1015.5,776.367,1015.5,776.367Z" fill="#ec6401"/><ellipse cx="1628.014" cy="882.417" rx="27.986" ry="27.895" fill="#282828"/><ellipse cx="1912.222" cy="882.417" rx="27.986" ry="27.895" fill="#282828"/><path d="M1822.133,777.81V680.757c0-7.547-6.151-14.015-14.762-14.015h-11.478V777.81Z" fill="#666" fill-rule="evenodd"/><path d="M1856.9,767.918h-9.926a2.331,2.331,0,0,1,0-4.662h9.926a2.331,2.331,0,0,1,0,4.662Z" fill="#f57800"/><rect x="741.57" y="678.267" width="5.185" height="36.81" rx="2.586" ry="2.586" transform="translate(-206.923 1063.504) rotate(-64.204)" fill="#9c2801"/><path d="M783.227,710.235l-29.96-14.481-4.338,8.68L779,718.971a4.851,4.851,0,0,0,4.222-8.736Z" fill="#ec6401"/><rect x="776.808" y="709.79" width="9.703" height="185.16" rx="4.84" ry="4.84" fill="#d83b01"/><circle cx="781.973" cy="715.01" r="3.112" fill="#9c2801"/><polygon points="734.472 725.562 734.472 694.023 729.62 694.023 729.62 725.468 710.504 733.61 710.504 744.659 713.943 747.085 713.943 735.881 730.534 728.814 733.337 728.814 749.928 735.881 749.928 747.085 753.367 744.659 753.367 733.61 734.472 725.562" fill="#a7a9ac"/><circle cx="732.046" cy="691.966" r="6.861" fill="#ec6401"/><circle cx="732.158" cy="691.93" r="2.973" fill="#737373"/><circle cx="731.936" cy="726.212" r="5.793" fill="#ec6401"/><polyline points="795.351 589.773 824.028 618.45 795.654 646.824 824.156 675.325 796.26 703.221 823.246 730.206 795.654 757.798 823.852 785.997 796.564 813.286 824.762 842.441 795.048 871.198 824.039 906.018" fill="none" stroke="#a6a6a6" stroke-linejoin="round" stroke-width="2.42"/><rect x="795.351" y="587.768" width="29.108" height="319.328" fill="none" stroke="#a6a6a6" stroke-miterlimit="10" stroke-width="2.42"/><polyline points="795.756 620.248 761.391 620.248 761.391 594.183 795.756 594.183" fill="none" stroke="#a6a6a6" stroke-miterlimit="10" stroke-width="2.42"/><polyline points="824.053 594.183 1404.148 594.183 1404.148 620.248 824.053 620.248" fill="none" stroke="#a6a6a6" stroke-miterlimit="10" stroke-width="2.796"/><polyline points="1404.194 589.773 1432.871 618.45 1404.498 646.824 1432.999 675.325 1405.104 703.221 1432.09 730.206 1404.498 757.798 1432.696 785.997 1405.407 813.286 1433.606 843.519 1404.137 872.613 1433.591 906.737" fill="none" stroke="#a6a6a6" stroke-linejoin="round" stroke-width="2.42"/><rect x="1404.194" y="587.768" width="29.108" height="319.328" fill="none" stroke="#a6a6a6" stroke-miterlimit="10" stroke-width="2.42"/><polyline points="1433.302 594.183 1467.667 594.183 1467.667 620.248 1433.302 620.248" fill="none" stroke="#a6a6a6" stroke-miterlimit="10" stroke-width="2.42"/><rect x="1238.899" y="852.096" width="26.682" height="55.79" fill="#d83b01"/><rect x="923.561" y="852.096" width="26.682" height="55.79" fill="#d83b01"/><path d="M1554.264,825.414h-53.393V852.1h54.058a13.343,13.343,0,0,0,13.287-14.558C1567.6,830.543,1561.286,825.414,1554.264,825.414Z" fill="#212121"/><rect x="601.413" y="862.62" width="48.644" height="26.533"/><path d="M548.347,844.931c0,2.948,1.106,4.422,2.211,4.422h29.85q3.317,0,3.317-4.422v-1.474a3.013,3.013,0,0,0-3.317-2.948h-29.85c-1.106,0-2.211,1.474-2.211,2.948Z" fill="#212121" fill-rule="evenodd"/><rect x="543.925" y="853.776" width="70.755" height="22.111" fill="#212121"/><path d="M529.313,831.665c18.746,0,49.99,4.717,49.99,41.274,0,8.255-10,11.792-10,11.792l-47.49-15.33Z" fill="#212121" fill-rule="evenodd"/><path d="M585.012,760.91H530.569a4.333,4.333,0,0,0-4.333,4.333v75.266h4.422l.274-72.151a1.446,1.446,0,0,1,1.446-1.44h49.107s29.388,20.429,29.388,97.336c0,3.605,7.053,7.21,7.053-7.21C617.927,857.044,619.1,790.952,585.012,760.91Z" fill="#212121" fill-rule="evenodd"/><polygon points="618.893 858.198 645.635 858.198 645.635 876.959 629.479 892.503 620.007 893.575 574.88 893.575 618.893 858.198" fill="#d83b01" fill-rule="evenodd"/><polygon points="477.592 868.391 477.592 893.575 548.347 893.575 517.083 862.62 477.592 868.391" fill="#212121" fill-rule="evenodd"/><path d="M577,898H515.461s-3.55-30.257-37.869-30.257V852.612s0-20.947,24.851-20.947h22.485v6.982S569.9,835.156,569.9,872.4h27.219l20.118-17.456h28.4v6.982h-28.4Z" fill="#ec6401" fill-rule="evenodd"/><circle cx="486.437" cy="893.575" r="17.689" fill="#505050"/><circle cx="486.437" cy="893.575" r="8.844" fill="#b2b2b2"/><rect x="645.635" y="721.11" width="13.267" height="172.465" fill="#212121"/><polygon points="632.369 771.115 650.057 774.176 650.057 760.91 632.369 760.91 632.369 771.115" fill="#212121" fill-rule="evenodd"/><rect x="650.057" y="815.394" width="70.755" height="4.422" fill="#212121"/><rect x="650.057" y="796.287" width="13.267" height="57.488" fill="#212121"/><circle cx="627.946" cy="889.153" r="22.111" fill="#505050"/><circle cx="627.946" cy="889.153" r="13.267" fill="#b2b2b2"/><rect x="667.746" y="776.9" width="51.325" height="38.494" fill="#6597bf"/><polygon points="685.71 801.422 693.074 792.298 701.107 801.422 696.756 801.422 696.756 812.828 690.061 812.828 690.061 801.422 685.71 801.422" fill="#212121" fill-rule="evenodd"/><rect x="1812.43" y="807.423" width="79.959" height="67.312" fill="#212121"/><rect x="1880.395" y="841.08" width="78.928" height="33.251" fill="#212121"/><rect x="1539.072" y="818.36" width="273.359" height="54.759" fill="#212121"/><path d="M1720.478,873.712a9.51,9.51,0,0,0,9.629,9.469h56.7a9.51,9.51,0,0,0,9.629-9.469h0c0-5.26-4.279-10.521-9.629-10.521h-56.7C1724.757,863.191,1720.478,868.451,1720.478,873.712Z" fill="#212121" fill-rule="evenodd"/><path d="M1942.071,882.634a3.711,3.711,0,0,0,4,3.69h15.992a3.711,3.711,0,0,0,4-3.69v-7.381c0-2.46-2-4.921-4-4.921h-15.992c-2,0-4,2.46-4,4.921Z" fill="#212121" fill-rule="evenodd"/><path d="M1932.368,882.634a3.711,3.711,0,0,0,4,3.69h15.992a3.711,3.711,0,0,0,4-3.69v-7.381c0-2.46-2-4.921-4-4.921h-15.992c-2,0-4,2.46-4,4.921Z" fill="#323232" fill-rule="evenodd"/><rect x="1523.08" y="846.346" width="7.996" height="11.994" fill="#a3111e"/><path d="M1894.841,808.434s-15.13-43.662-24.905-43.662H1827.5a6.463,6.463,0,0,0-6.444,6.444s92.782,70.571,118.445,95.434h17.7c2.021,0,4.86-1.315,4.548-5.313V839.349C1962.061,821.348,1894.841,809.657,1894.841,808.434Z" fill="#505050" fill-rule="evenodd"/><path d="M1886.149,810.051s-16.141-45.279-25.916-45.279H1817.8a6.463,6.463,0,0,0-6.444,6.444v83.139c0,4.752,3.258,7.443,6.517,7.443h48.364s5.155-9.627,14.756-14.15c13.091-6.166,40.63-4.952,48.808,19h17.7c2.021,0,4.86-1.315,4.548-5.313V839.349C1952.358,821.348,1886.149,811.274,1886.149,810.051Z" fill="#939393" fill-rule="evenodd"/><path d="M1857.445,871.5c0-2.426-2-4.851-4-4.851h-45.425c-2,0-3.941,2.426-3.941,4.851v19.405c0,2.426,1.942,4.851,3.941,4.851h45.425c2,0,4-2.426,4-4.851Z" fill="#b2b2b2" fill-rule="evenodd"/><rect x="1845.317" y="866.65" width="4.851" height="29.108" fill="#505050"/><rect x="1811.357" y="866.65" width="4.851" height="29.108" fill="#505050"/><path d="M1577.052,902.316a2,2,0,0,1-2-2V868.335a2,2,0,1,1,4,0v31.983A2,2,0,0,1,1577.052,902.316Z" fill="#212121"/><path d="M1797.669,666.439c8.611,0,14.762,6.469,14.762,14.015V845.4c0,7.547-6.151,12.937-14.762,12.937h-1.23v-191.9Z" fill="#b2b2b2" fill-rule="evenodd"/><path d="M1792.441,680.831c0,.8,1.09,1.6,2.181,1.6h6.542c2.181,0,3.271-.8,3.271-1.6v-.8c0-.8-1.09-1.6-3.271-1.6h-6.542c-1.09,0-2.181.8-2.181,1.6Z" fill="#ffa940" fill-rule="evenodd"/><rect x="714.013" y="736.675" width="36.066" height="33.812" transform="translate(1464.092 1507.162) rotate(-180)" fill="#6597bf"/><rect x="741.225" y="736.675" width="8.854" height="33.812" transform="translate(1491.304 1507.162) rotate(-180)" fill="#45779e"/><rect x="859.253" y="792.476" width="36.128" height="33.87" transform="translate(1754.634 1618.821) rotate(180)" fill="#2488d8"/><rect x="886.511" y="792.476" width="8.87" height="33.87" transform="translate(1781.893 1618.821) rotate(180)" fill="#004578"/><rect x="859.253" y="792.476" width="36.128" height="7.849" transform="translate(1754.634 1592.8) rotate(180)" fill="#69afe5"/><rect x="697.974" y="849.992" width="802.897" height="6.295" fill="#464646"/><path d="M1503.155,849.992H696.794a11.017,11.017,0,0,1,0-22.034h806.361a11.017,11.017,0,0,1,0,22.034Z" fill="#a7a9ac"/><path d="M1503.155,851.909H696.794a12.934,12.934,0,1,1,0-25.868h806.361a12.934,12.934,0,1,1,0,25.868ZM696.794,829.874a9.1,9.1,0,0,0,0,18.2h806.361a9.1,9.1,0,1,0,0-18.2Z" fill="#212121"/><path d="M705.608,840.449l-.01-2.919a.589.589,0,0,0-.168-.411.565.565,0,0,0-.4-.169l-1.57.008a3.441,3.441,0,0,0-.145-.343,6.912,6.912,0,0,0-.441-1.013l1.12-1.127a.593.593,0,0,0,.006-.825l-1.778-1.844a.583.583,0,0,0-.833-.006l-1.093,1.1a5.471,5.471,0,0,0-1.47-.636l.01-1.522a.548.548,0,0,0-.521-.576l-2.294-.017a.582.582,0,0,0-.587.578l-.011,1.565a5.93,5.93,0,0,0-1.354.6l-.959-1.06a.583.583,0,0,0-.858-.007l-1.621,1.737a.608.608,0,0,0-.006.809l1.006,1.11,0,.008-.017-.019,0,.013a6.2,6.2,0,0,0-.325.719h0a6.282,6.282,0,0,0-.229.751H689.4a.673.673,0,0,0-.758.669l-.017,2.8a.571.571,0,0,0,.162.4c.008.008.017.014.026.022a.554.554,0,0,0,.406.173l1.525-.006a13.923,13.923,0,0,0,.636,1.458l-1.1,1.113a.573.573,0,0,0,0,.805l1.781,1.78a.583.583,0,0,0,.827,0l1.07-1.086a5.463,5.463,0,0,0,1.463.6l.007,1.553a.564.564,0,0,0,.567.566l2.258-.011a.564.564,0,0,0,.561-.566l-.006-1.556a6.753,6.753,0,0,0,1.459-.606l1.113,1.1a.571.571,0,0,0,.8,0l1.8-1.8a.561.561,0,0,0,0-.8l-.936-1.42a2.192,2.192,0,0,0,.186-.372,5.848,5.848,0,0,0,.251-.752l1.551-.005a.573.573,0,0,0,.4-.166A.562.562,0,0,0,705.608,840.449Z" fill="#fff"/><circle cx="697.213" cy="838.639" r="2.946" fill="#75beff"/><path d="M1511.1,840.449l-.01-2.919a.589.589,0,0,0-.168-.411.565.565,0,0,0-.4-.169l-1.57.008a3.441,3.441,0,0,0-.145-.343,6.912,6.912,0,0,0-.441-1.013l1.12-1.127a.593.593,0,0,0,.006-.825l-1.778-1.844a.583.583,0,0,0-.833-.006l-1.093,1.1a5.471,5.471,0,0,0-1.47-.636l.01-1.522a.548.548,0,0,0-.521-.576l-2.294-.017a.582.582,0,0,0-.587.578l-.011,1.565a5.93,5.93,0,0,0-1.354.6l-.959-1.06a.583.583,0,0,0-.858-.007l-1.621,1.737a.608.608,0,0,0-.006.809l1.006,1.11,0,.008-.017-.019,0,.013a6.2,6.2,0,0,0-.325.719h0a6.282,6.282,0,0,0-.229.751h-1.646a.673.673,0,0,0-.758.669l-.017,2.8a.571.571,0,0,0,.162.4c.008.008.017.014.026.022a.554.554,0,0,0,.406.173l1.525-.006a13.923,13.923,0,0,0,.636,1.458l-1.1,1.113a.573.573,0,0,0,0,.805l1.781,1.78a.583.583,0,0,0,.827,0l1.07-1.086a5.463,5.463,0,0,0,1.463.6l.007,1.553a.564.564,0,0,0,.567.566l2.258-.011a.564.564,0,0,0,.561-.566l-.006-1.556a6.753,6.753,0,0,0,1.459-.606l1.113,1.1a.571.571,0,0,0,.8,0l1.8-1.8a.561.561,0,0,0,0-.8l-.936-1.42a2.192,2.192,0,0,0,.186-.372,5.848,5.848,0,0,0,.251-.752l1.551-.005a.573.573,0,0,0,.4-.166A.562.562,0,0,0,1511.1,840.449Z" fill="#fff"/><circle cx="1502.701" cy="838.639" r="2.946" fill="#75beff"/><circle cx="697.313" cy="838.961" r="5.209" fill="#737373"/><circle cx="744.678" cy="838.961" r="5.209" fill="#737373"/><circle cx="792.043" cy="838.961" r="5.209" fill="#737373"/><circle cx="839.408" cy="838.961" r="5.209" fill="#737373"/><circle cx="886.774" cy="838.961" r="5.209" fill="#737373"/><circle cx="934.139" cy="838.961" r="5.209" fill="#737373"/><circle cx="981.504" cy="838.961" r="5.209" fill="#737373"/><circle cx="1028.869" cy="838.961" r="5.209" fill="#737373"/><circle cx="1076.235" cy="838.961" r="5.209" fill="#737373"/><circle cx="1123.6" cy="838.961" r="5.209" fill="#737373"/><circle cx="1170.965" cy="838.961" r="5.209" fill="#737373"/><circle cx="1218.33" cy="838.961" r="5.209" fill="#737373"/><circle cx="1265.695" cy="838.961" r="5.209" fill="#737373"/><circle cx="1313.061" cy="838.961" r="5.209" fill="#737373"/><circle cx="1360.426" cy="838.961" r="5.209" fill="#737373"/><circle cx="1407.791" cy="838.961" r="5.209" fill="#737373"/><circle cx="1455.156" cy="838.961" r="5.209" fill="#737373"/><circle cx="1502.522" cy="838.961" r="5.209" fill="#737373"/><polygon points="716.881 856.231 722.489 861.84 722.489 908.85 726.319 908.85 726.319 861.845 731.933 856.231 716.881 856.231" fill="#212121"/><polygon points="833.742 908.85 833.742 861.845 839.356 856.231 824.303 856.231 829.912 861.84 829.912 908.85 833.742 908.85" fill="#212121"/><polygon points="941.164 908.85 941.164 861.845 946.778 856.231 931.726 856.231 937.335 861.84 937.335 908.85 941.164 908.85" fill="#212121"/><polygon points="1048.587 908.85 1048.587 861.845 1054.201 856.231 1039.148 856.231 1044.757 861.84 1044.757 908.85 1048.587 908.85" fill="#212121"/><polygon points="1156.01 908.85 1156.01 861.845 1161.624 856.231 1146.571 856.231 1152.18 861.84 1152.18 908.85 1156.01 908.85" fill="#212121"/><polygon points="1263.432 908.85 1263.432 861.845 1269.046 856.231 1253.994 856.231 1259.603 861.84 1259.603 908.85 1263.432 908.85" fill="#212121"/><polygon points="1370.855 908.85 1370.855 861.845 1376.469 856.231 1361.416 856.231 1367.025 861.84 1367.025 908.85 1370.855 908.85" fill="#212121"/><polygon points="1468.839 856.231 1474.448 861.84 1474.448 908.85 1478.278 908.85 1478.278 861.845 1483.891 856.231 1468.839 856.231" fill="#212121"/><rect x="845.94" y="706.556" width="79.098" height="201.331" transform="translate(1770.978 1614.443) rotate(180)" fill="#ec6401"/><polygon points="928.413 825.919 950.244 825.919 950.244 706.556 925.038 706.556 925.038 859.373 928.413 859.373 928.413 825.919" fill="#d83b01"/><rect x="928.313" y="713.615" width="18.656" height="112.405" fill="#bd3604"/><polygon points="928.313 713.615 946.969 713.615 946.969 731.557 928.313 767.189 928.313 713.615" fill="#9c2801"/><polygon points="1243.75 825.919 1265.581 825.919 1265.581 706.556 1240.376 706.556 1240.376 856.948 1243.75 856.948 1243.75 825.919" fill="#d83b01"/><rect x="1243.65" y="713.615" width="18.656" height="112.405" fill="#bd3604"/><polygon points="1243.65 713.615 1262.306 713.615 1262.306 731.557 1243.65 767.189 1243.65 713.615" fill="#9c2801"/><rect x="1284.061" y="719.917" width="94.195" height="106.201" fill="none"/><polygon points="1520.953 815.711 1497.927 815.711 1500.739 803.583 1518.141 803.583 1520.953 815.711" fill="#212121"/><path d="M1488.569,774.737c-11.186,4.068-17.485,10.681-17.8,25.931-.312,15.315,2.251,23.551,2.654,24.745h2.213c.909-2.479,7.227-18.287,21.743-22.033C1509.4,800.279,1488.569,774.737,1488.569,774.737Z" fill="#ec6401"/><path d="M1531.582,774.737c11.186,4.068,17.485,10.681,17.8,25.931.312,15.315-2.251,23.551-2.654,24.745h-2.213c-.909-2.479-7.227-18.287-21.743-22.033C1510.748,800.279,1531.582,774.737,1531.582,774.737Z" fill="#bd3604"/><path d="M1527.21,721.11h-36.876c-4.531,9.6-8,20.165-8.021,29.742-.072,26.558,12.942,50.3,14.243,52.731h25.716c0-1.326,12.687-26.031,12.759-52.589C1535.056,741.384,1531.624,730.759,1527.21,721.11Z" fill="#ec6401"/><path d="M1509.441,690.057s-12.934,15.485-19.208,31.053h37.178C1521.137,705.542,1509.441,690.057,1509.441,690.057Z" fill="#212121"/><path d="M1489.973,721.11h4.853c-3.709,9.553-6.284,19.514-6.259,28.716.058,21.441,6.846,41.886,11.443,53.757h-4.748c0-1.326-13.237-25.568-13.309-52.126C1481.927,741.847,1485.558,730.759,1489.973,721.11Z" fill="#ff8c00"/><circle cx="1509.041" cy="744.38" r="9.992" fill="#fff"/><polygon points="1047.46 816.196 1025.257 816.196 1027.969 804.501 1044.748 804.501 1047.46 816.196" fill="#212121"/><path d="M1054.28,722.352H1017.1c-4.568,9.676-7.218,20.381-7.244,30.036-.073,26.774,15.152,46.6,16.463,49.053l20.883.148c0-1.337,14.179-22.312,14.251-49.086C1061.482,742.814,1058.73,732.08,1054.28,722.352Z" fill="none" stroke="#fff" stroke-miterlimit="10" stroke-width="1.182"/><path d="M1009.59,745.348a47.2,47.2,0,0,0-.574,6.989c-.073,26.774,13.047,50.71,14.359,53.161H1049.3c0-1.337,12.79-26.243,12.863-53.017a47.514,47.514,0,0,0-.555-7.133Z" fill="#ec6401"/><circle cx="1035.959" cy="745.479" r="9.992" fill="#fff"/><path d="M1015.847,745.308c-.18,1.842-.3,4.2-.3,5.993.058,21.616,6.9,42.228,11.536,54.2H1022.3c0-1.337-12.791-26.243-12.863-53.017a54.688,54.688,0,0,1,.487-7.172Z" fill="#ff8c00"/><ellipse cx="1618.311" cy="882.417" rx="27.986" ry="27.895" fill="#212121"/><ellipse cx="1902.519" cy="882.417" rx="27.986" ry="27.895" fill="#212121"/><ellipse cx="1895.242" cy="882.417" rx="27.986" ry="27.895" fill="#505050"/><circle cx="1895.242" cy="882.327" r="15.992" fill="#d2d2d2"/><circle cx="1895.242" cy="882.327" r="5.974" fill="#505050"/><circle cx="1895.242" cy="865.347" r="3.843" fill="#505050"/><circle cx="1880.688" cy="877.476" r="3.843" fill="#505050"/><circle cx="1909.796" cy="877.476" r="3.843" fill="#505050"/><circle cx="1885.54" cy="894.455" r="3.843" fill="#505050"/><circle cx="1907.371" cy="892.03" r="3.843" fill="#505050"/><rect x="1161.277" y="706.556" width="79.098" height="201.331" transform="translate(2401.653 1614.443) rotate(180)" fill="#ec6401"/><polygon points="767.366 890.359 796.878 890.359 804.155 910.573 760.089 910.573 767.366 890.359" fill="#212121"/><path d="M1872.4,797.961v12.981a3.42,3.42,0,0,1-3.42,3.42h-37.626a3.42,3.42,0,0,1-3.42-3.42V777.8a3.42,3.42,0,0,1,3.42-3.42h26.99a3.42,3.42,0,0,1,3.025,1.824L1872,796.365A3.42,3.42,0,0,1,1872.4,797.961Z" fill="#235a89" fill-rule="evenodd"/><path d="M1944.428,849.178h-7.921a3.639,3.639,0,1,1,0-7.277h7.921a3.639,3.639,0,1,1,0,7.277Z" fill="#f57800"/><ellipse cx="1611.034" cy="882.417" rx="27.986" ry="27.895" fill="#505050"/><circle cx="1611.034" cy="882.327" r="15.992" fill="#d2d2d2"/><circle cx="1611.034" cy="882.327" r="5.974" fill="#505050"/><circle cx="1611.034" cy="865.347" r="3.843" fill="#505050"/><circle cx="1596.48" cy="877.476" r="3.843" fill="#505050"/><circle cx="1625.589" cy="877.476" r="3.843" fill="#505050"/><circle cx="1601.332" cy="894.455" r="3.843" fill="#505050"/><circle cx="1623.163" cy="892.03" r="3.843" fill="#505050"/><rect x="1531.076" y="666.439" width="265.363" height="191.901" fill="#45779e"/><rect x="559.676" y="837.203" width="5.695" height="2.059" fill="#0078d7"/><path d="M576.85,865.966l-5.2-26.7L559.48,837.5l1.086-7.362,15.009,2.255a3.857,3.857,0,0,1,3.148,3.244l2.743,30.331Z" fill="#737373"/><path d="M588.827,866.455l-8.479-24.876c-2.587-.244-21.36-2.316-21.36-2.316.784-7.461.784-8.145.784-8.145l23.756,2.647a3.82,3.82,0,0,1,3.145,2.753l7.451,29.939Z" fill="#737373"/><path d="M567.333,809.718c-.591-.687-1.375-3.244-4.8-3.244h-5.107c-3.434,0-3.922,3.536-4.217,4.224-1.079,2.842-1.567,15.115-1.567,20.223,0,5.007-.04,7.462,2.842,8.049,3.918.8,11.557,1.756,11.557,1.756,2.942,0,5.225.007,5.225-4.994S568.9,811.678,567.333,809.718Z" fill="#464646"/><path d="M587.36,865.671c-.99-.491-5.7-2.451-5.7-2.451h0a.353.353,0,0,0-.292-.1.717.717,0,0,0-.687.588h0a1.961,1.961,0,0,1-2.155,1.471l-2.069-1.275-.1,4.323a.791.791,0,0,0,.88.883l10.214-.3a.6.6,0,0,0,.687-.684l.1-1.381S588.339,866.162,587.36,865.671Z"/><path d="M600.114,865.571c-1.079-.588-6.382-2.647-6.382-2.647h-.392a.548.548,0,0,0-.588.491.1.1,0,0,1-.1.1,2.07,2.07,0,0,1-2.255,1.571l-2.158-1.375-.1,4.519a.792.792,0,0,0,.883.883l11.184-.3s.687.2.687-.684V866.65S601.094,866.162,600.114,865.571Z"/><path d="M592.541,820.29l-14.66,10.252a1.213,1.213,0,1,0,1.39,1.988l5.849-4.091,1.468,2.1-2.2,1.538,19.373,27.386,8.637-2.841L591.512,827.1l-2.2,1.539-1.468-2.1,6.088-4.257a1.213,1.213,0,1,0-1.39-1.988Z" fill="#212121"/><path d="M581.747,824.106c.075-.286,1.594-.292,1.719-.767.246-.543,3.014-.626,3.014-.626.308-.022.758.2.752.6a.6.6,0,0,1-.507.78l-4.088.859a.756.756,0,0,1-.871-.541C581.791,824.32,581.723,824.2,581.747,824.106Z" fill="#805443"/><path d="M585,824.452a.672.672,0,0,1,.839-.49l4.036,1.262a.832.832,0,0,1,.462.935.756.756,0,0,1-.932.463l-3.915-1.33A.672.672,0,0,1,585,824.452Z" fill="#9d6952"/><path d="M583.381,826.369a.67.67,0,0,1,.839-.49l4.036,1.262a.627.627,0,0,1,.369.907.551.551,0,0,1-.814.394l-4.036-1.262A.551.551,0,0,1,583.381,826.369Z" fill="#9d6952"/><path d="M582.826,827.335a.551.551,0,0,1,.811-.395l3.492,1.02a.737.737,0,0,1-.467,1.4l-3.374-1.088A.832.832,0,0,1,582.826,827.335Z" fill="#9d6952"/><path d="M583.681,825.229a.759.759,0,0,1,.934-.472l4.3,1.434a.672.672,0,0,1,.489.846.834.834,0,0,1-.933.466l-4.321-1.34A.831.831,0,0,1,583.681,825.229Z" fill="#9d6952"/><path d="M582.614,826.977c.374-1.423,1.045-3.588,1.045-3.588l1.991.523-1.509,4.582S582.266,828.3,582.614,826.977Z" fill="#9d6952"/><path d="M585.943,823.989a2.935,2.935,0,0,0-2.234-.789l-.324,1.233Z" fill="#9d6952"/><path d="M554.6,813.976c1.566,4.292,7.5,10.408,8.882,11.732s19.239,2.575,19.239,2.575l1.724-5.178s-13.414-2.34-14.425-2.643-6.068-5.559-10.116-11.144C557.512,806.018,552.823,809.108,554.6,813.976Z" fill="#464646"/><path d="M556.583,790.014c3.171-1.654,6.6-1.28,8.382,0a5.249,5.249,0,0,1,2.342,5.055,4.906,4.906,0,0,0,1.434,3.9c.412.522.753,1.045.076,1.334a7.712,7.712,0,0,1-1.25.415l.134,4.37s-4.408,1.747-8.155.125a8.185,8.185,0,0,1-.908-.468c-.1-.053-.206-.119-.328-.2l-.042-.026a12.6,12.6,0,0,1-3.871-4.468C552.053,795.93,553.122,791.819,556.583,790.014Z" fill="#9d6952"/><path d="M567.307,795.065l-7.111,1.607-.32-3.161,7.456-.461A11.675,11.675,0,0,1,567.307,795.065Z" fill="#805443"/><path d="M554.43,789.979c4.368-3.871,11.517-.949,11.517-.949l.738,2.776-6.854.565.537,5.384-2.441.2.018,1.9-1.175,3.407a13.083,13.083,0,0,1-3.652-6.625A9.015,9.015,0,0,1,554.43,789.979Z" fill="#2f2f2f"/><path d="M558.561,796.328l.381,3.821a2.063,2.063,0,0,1-2.363-1.772,1.97,1.97,0,0,1,1.982-2.049" fill="#9d6952"/><polygon points="556.87 793.795 553.057 797.618 551.782 796.192 554.108 793.832 556.87 793.795" fill="#464646"/><path d="M559.4,784.91c3.239-.139,5.214.947,6.42,2.352l.534.106a.559.559,0,0,1,.429.5l.953,4.813a.389.389,0,0,1-.408.369l-3.18.124a.492.492,0,0,1-.248-.055c-2.814.269-6.355.589-7.533.616a28.3,28.3,0,0,1-3.66-.146C552.648,792.4,551.572,785.245,559.4,784.91Z" fill="#ec6401"/><polygon points="572.066 792.929 567.615 792.525 552.22 793.127 552.276 794.185 572.091 793.41 572.066 792.929" fill="#ec6401"/><path d="M562.757,790.975l-.664.026a.621.621,0,0,0-.611.642l.049.932a.642.642,0,0,0,.676.592l.664-.026a.621.621,0,0,0,.611-.642l-.049-.932A.642.642,0,0,0,562.757,790.975Z" fill="#ec6401"/><path d="M556.854,791.218l-.664.026a.621.621,0,0,0-.611.642l.049.932a.642.642,0,0,0,.676.592l.664-.026a.621.621,0,0,0,.611-.642l-.049-.932A.642.642,0,0,0,556.854,791.218Z" fill="#ec6401"/><path d="M553.574,840.329l-4.581-25.044a1.815,1.815,0,0,0-2.112-1.459l-5.278.965a1.815,1.815,0,0,0-1.459,2.112l3.716,20.318Z" fill="#212121" fill-rule="evenodd"/><rect x="510.742" y="849.353" width="12.836" height="4.548" rx="0.774" ry="0.774" fill="#212121"/><path d="M605.935,796.468H595.177l-2.344-4.178a.452.452,0,0,0-.394-.231h-5.127a.452.452,0,0,0-.394.673l7.024,12.52a.452.452,0,0,0,.394.231h5.127a.452.452,0,0,0,.394-.673l-3.208-5.718h9.285Z" fill="#212121"/><path d="M1869.924,814.213a3.41,3.41,0,0,0,2.475-3.271V797.961a3.421,3.421,0,0,0-.4-1.6l-10.636-20.159a3.42,3.42,0,0,0-3.025-1.824h-26.99a3.386,3.386,0,0,0-1.071.188Z" fill="#45779e" fill-rule="evenodd"/><path d="M1860.405,771.515c0-1.13,0-1.13,2-1.13h0s2,0,2,1.13v49.713c0,1.13-2,1.13-2,1.13h0c-2,0-2,0-2-1.13Z" fill="#939393" fill-rule="evenodd"/><path d="M1856.408,778.381h0c1.333,0,4,1,4,2v14.992c0,2-2.665,3-4,3h0Z" fill="#212121" fill-rule="evenodd"/><path d="M1856.408,802.368h0c1.333,0,4,.8,4,2.4v4c0,.8-2.665,1.6-4,1.6h0Z" fill="#212121" fill-rule="evenodd"/><rect x="1005.373" y="618.841" width="28.083" height="8.49" fill="#cfe0ee"/><circle cx="1019.321" cy="646.235" r="13.722" fill="#cfe0ee"/><rect x="1018.109" y="622.945" width="2.426" height="67.825" fill="#cfe0ee"/><rect x="1318.105" y="618.841" width="28.083" height="8.49" fill="#cfe0ee"/><circle cx="1332.052" cy="646.235" r="13.722" fill="#cfe0ee"/><rect x="1330.84" y="622.945" width="2.426" height="54.377" fill="#cfe0ee"/><path d="M840.852,599.506v12.915h-2.775v-9.779a3.324,3.324,0,0,1-.542.384,5.444,5.444,0,0,1-.665.325,5.628,5.628,0,0,1-.731.247,5.206,5.206,0,0,1-.749.146V601.4a11.767,11.767,0,0,0,3.779-1.894Z" fill="#fff"/><path d="M850.1,612.641q-4.511,0-4.511-6.334a8.617,8.617,0,0,1,1.22-5.008,4.066,4.066,0,0,1,3.537-1.723q4.4,0,4.4,6.44a8.486,8.486,0,0,1-1.2,4.916A3.961,3.961,0,0,1,850.1,612.641Zm.123-10.942q-1.806,0-1.806,4.537,0,4.273,1.771,4.273,1.727,0,1.727-4.4T850.225,601.7Z" fill="#fff"/><path d="M863.773,599.506v12.915H861v-9.779a3.324,3.324,0,0,1-.542.384,5.444,5.444,0,0,1-.665.325,5.628,5.628,0,0,1-.731.247,5.206,5.206,0,0,1-.749.146V601.4a11.767,11.767,0,0,0,3.779-1.894Z" fill="#fff"/><path d="M875.233,599.506v12.915h-2.775v-9.779a3.324,3.324,0,0,1-.542.384,5.444,5.444,0,0,1-.665.325,5.628,5.628,0,0,1-.731.247,5.206,5.206,0,0,1-.749.146V601.4a11.767,11.767,0,0,0,3.779-1.894Z" fill="#fff"/><path d="M884.482,612.641q-4.511,0-4.511-6.334a8.617,8.617,0,0,1,1.22-5.008,4.066,4.066,0,0,1,3.537-1.723q4.4,0,4.4,6.44a8.486,8.486,0,0,1-1.2,4.916A3.961,3.961,0,0,1,884.482,612.641Zm.123-10.942q-1.806,0-1.806,4.537,0,4.273,1.771,4.273,1.727,0,1.727-4.4T884.605,601.7Z" fill="#fff"/><path d="M898.154,599.506v12.915h-2.775v-9.779a3.324,3.324,0,0,1-.542.384,5.444,5.444,0,0,1-.665.325,5.628,5.628,0,0,1-.731.247,5.206,5.206,0,0,1-.749.146V601.4a11.767,11.767,0,0,0,3.779-1.894Z" fill="#fff"/><path d="M907.4,612.641q-4.511,0-4.511-6.334a8.617,8.617,0,0,1,1.22-5.008,4.066,4.066,0,0,1,3.537-1.723q4.4,0,4.4,6.44a8.486,8.486,0,0,1-1.2,4.916A3.961,3.961,0,0,1,907.4,612.641Zm.123-10.942q-1.806,0-1.806,4.537,0,4.273,1.771,4.273,1.727,0,1.727-4.4T907.526,601.7Z" fill="#fff"/><path d="M918.863,612.641q-4.511,0-4.511-6.334a8.617,8.617,0,0,1,1.22-5.008,4.066,4.066,0,0,1,3.537-1.723q4.4,0,4.4,6.44a8.486,8.486,0,0,1-1.2,4.916A3.961,3.961,0,0,1,918.863,612.641Zm.123-10.942q-1.806,0-1.806,4.537,0,4.273,1.771,4.273,1.727,0,1.727-4.4T918.987,601.7Z" fill="#fff"/><path d="M932.535,599.506v12.915H929.76v-9.779a3.324,3.324,0,0,1-.542.384,5.444,5.444,0,0,1-.665.325,5.628,5.628,0,0,1-.731.247,5.206,5.206,0,0,1-.749.146V601.4a11.767,11.767,0,0,0,3.779-1.894Z" fill="#fff"/><path d="M941.784,612.641q-4.511,0-4.511-6.334a8.617,8.617,0,0,1,1.22-5.008,4.066,4.066,0,0,1,3.537-1.723q4.4,0,4.4,6.44a8.486,8.486,0,0,1-1.2,4.916A3.961,3.961,0,0,1,941.784,612.641Zm.123-10.942q-1.806,0-1.806,4.537,0,4.273,1.771,4.273,1.727,0,1.727-4.4T941.907,601.7Z" fill="#fff"/><path d="M955.455,599.506v12.915H952.68v-9.779a3.324,3.324,0,0,1-.542.384,5.444,5.444,0,0,1-.665.325,5.628,5.628,0,0,1-.731.247,5.206,5.206,0,0,1-.749.146V601.4a11.767,11.767,0,0,0,3.779-1.894Z" fill="#fff"/><path d="M966.916,599.506v12.915h-2.775v-9.779a3.324,3.324,0,0,1-.542.384,5.444,5.444,0,0,1-.665.325,5.628,5.628,0,0,1-.731.247,5.206,5.206,0,0,1-.749.146V601.4a11.767,11.767,0,0,0,3.779-1.894Z" fill="#fff"/><path d="M976.165,612.641q-4.511,0-4.511-6.334a8.617,8.617,0,0,1,1.22-5.008,4.066,4.066,0,0,1,3.537-1.723q4.4,0,4.4,6.44a8.486,8.486,0,0,1-1.2,4.916A3.961,3.961,0,0,1,976.165,612.641Zm.123-10.942q-1.806,0-1.806,4.537,0,4.273,1.771,4.273,1.727,0,1.727-4.4T976.288,601.7Z" fill="#fff"/><path d="M989.836,599.506v12.915h-2.775v-9.779a3.324,3.324,0,0,1-.542.384,5.444,5.444,0,0,1-.665.325,5.628,5.628,0,0,1-.731.247,5.206,5.206,0,0,1-.749.146V601.4a11.767,11.767,0,0,0,3.779-1.894Z" fill="#fff"/><path d="M1001.3,599.506v12.915h-2.775v-9.779a3.324,3.324,0,0,1-.542.384,5.444,5.444,0,0,1-.665.325,5.628,5.628,0,0,1-.731.247,5.206,5.206,0,0,1-.749.146V601.4a11.767,11.767,0,0,0,3.779-1.894Z" fill="#fff"/><path d="M1010.546,612.641q-4.511,0-4.511-6.334a8.617,8.617,0,0,1,1.22-5.008,4.066,4.066,0,0,1,3.537-1.723q4.4,0,4.4,6.44a8.486,8.486,0,0,1-1.2,4.916A3.961,3.961,0,0,1,1010.546,612.641Zm.123-10.942q-1.806,0-1.806,4.537,0,4.273,1.771,4.273,1.727,0,1.727-4.4T1010.669,601.7Z" fill="#fff"/><path d="M1024.217,599.506v12.915h-2.775v-9.779a3.324,3.324,0,0,1-.542.384,5.444,5.444,0,0,1-.665.325,5.628,5.628,0,0,1-.731.247,5.206,5.206,0,0,1-.749.146V601.4a11.767,11.767,0,0,0,3.779-1.894Z" fill="#fff"/><path d="M1033.466,612.641q-4.511,0-4.511-6.334a8.617,8.617,0,0,1,1.22-5.008,4.066,4.066,0,0,1,3.537-1.723q4.4,0,4.4,6.44a8.486,8.486,0,0,1-1.2,4.916A3.961,3.961,0,0,1,1033.466,612.641Zm.123-10.942q-1.806,0-1.806,4.537,0,4.273,1.771,4.273,1.727,0,1.727-4.4T1033.59,601.7Z" fill="#fff"/><path d="M1044.927,612.641q-4.511,0-4.511-6.334a8.617,8.617,0,0,1,1.22-5.008,4.066,4.066,0,0,1,3.537-1.723q4.4,0,4.4,6.44a8.486,8.486,0,0,1-1.2,4.916A3.961,3.961,0,0,1,1044.927,612.641Zm.123-10.942q-1.806,0-1.806,4.537,0,4.273,1.771,4.273,1.727,0,1.727-4.4T1045.05,601.7Z" fill="#fff"/><path d="M1058.6,599.506v12.915h-2.775v-9.779a3.324,3.324,0,0,1-.542.384,5.444,5.444,0,0,1-.665.325,5.628,5.628,0,0,1-.731.247,5.206,5.206,0,0,1-.749.146V601.4a11.767,11.767,0,0,0,3.779-1.894Z" fill="#fff"/><path d="M1070.059,599.506v12.915h-2.775v-9.779a3.324,3.324,0,0,1-.542.384,5.444,5.444,0,0,1-.665.325,5.628,5.628,0,0,1-.731.247,5.206,5.206,0,0,1-.749.146V601.4a11.767,11.767,0,0,0,3.779-1.894Z" fill="#fff"/><path d="M1079.308,612.641q-4.511,0-4.511-6.334a8.617,8.617,0,0,1,1.22-5.008,4.066,4.066,0,0,1,3.537-1.723q4.4,0,4.4,6.44a8.486,8.486,0,0,1-1.2,4.916A3.961,3.961,0,0,1,1079.308,612.641Zm.123-10.942q-1.806,0-1.806,4.537,0,4.273,1.771,4.273,1.727,0,1.727-4.4T1079.431,601.7Z" fill="#fff"/><path d="M1092.979,599.506v12.915H1090.2v-9.779a3.324,3.324,0,0,1-.542.384,5.444,5.444,0,0,1-.665.325,5.628,5.628,0,0,1-.731.247,5.206,5.206,0,0,1-.749.146V601.4a11.767,11.767,0,0,0,3.779-1.894Z" fill="#fff"/><path d="M1104.439,599.506v12.915h-2.775v-9.779a3.324,3.324,0,0,1-.542.384,5.444,5.444,0,0,1-.665.325,5.628,5.628,0,0,1-.731.247,5.206,5.206,0,0,1-.749.146V601.4a11.767,11.767,0,0,0,3.779-1.894Z" fill="#fff"/><path d="M1113.688,612.641q-4.511,0-4.511-6.334a8.617,8.617,0,0,1,1.22-5.008,4.066,4.066,0,0,1,3.537-1.723q4.4,0,4.4,6.44a8.486,8.486,0,0,1-1.2,4.916A3.961,3.961,0,0,1,1113.688,612.641Zm.123-10.942q-1.806,0-1.806,4.537,0,4.273,1.771,4.273,1.727,0,1.727-4.4T1113.812,601.7Z" fill="#fff"/><path d="M1127.36,599.506v12.915h-2.775v-9.779a3.324,3.324,0,0,1-.542.384,5.444,5.444,0,0,1-.665.325,5.628,5.628,0,0,1-.731.247,5.206,5.206,0,0,1-.749.146V601.4a11.767,11.767,0,0,0,3.779-1.894Z" fill="#fff"/><path d="M1136.609,612.641q-4.511,0-4.511-6.334a8.617,8.617,0,0,1,1.22-5.008,4.066,4.066,0,0,1,3.537-1.723q4.4,0,4.4,6.44a8.486,8.486,0,0,1-1.2,4.916A3.961,3.961,0,0,1,1136.609,612.641Zm.123-10.942q-1.806,0-1.806,4.537,0,4.273,1.771,4.273,1.727,0,1.727-4.4T1136.733,601.7Z" fill="#fff"/><path d="M1150.281,599.506v12.915h-2.775v-9.779a3.324,3.324,0,0,1-.542.384,5.444,5.444,0,0,1-.665.325,5.628,5.628,0,0,1-.731.247,5.206,5.206,0,0,1-.749.146V601.4a11.767,11.767,0,0,0,3.779-1.894Z" fill="#fff"/><path d="M1159.53,612.641q-4.511,0-4.511-6.334a8.617,8.617,0,0,1,1.22-5.008,4.066,4.066,0,0,1,3.537-1.723q4.4,0,4.4,6.44a8.486,8.486,0,0,1-1.2,4.916A3.961,3.961,0,0,1,1159.53,612.641Zm.123-10.942q-1.806,0-1.806,4.537,0,4.273,1.771,4.273,1.727,0,1.727-4.4T1159.653,601.7Z" fill="#fff"/><path d="M1170.99,612.641q-4.511,0-4.511-6.334a8.617,8.617,0,0,1,1.22-5.008,4.066,4.066,0,0,1,3.537-1.723q4.4,0,4.4,6.44a8.486,8.486,0,0,1-1.2,4.916A3.961,3.961,0,0,1,1170.99,612.641Zm.123-10.942q-1.806,0-1.806,4.537,0,4.273,1.771,4.273,1.727,0,1.727-4.4T1171.113,601.7Z" fill="#fff"/><path d="M1184.662,599.506v12.915h-2.775v-9.779a3.324,3.324,0,0,1-.542.384,5.444,5.444,0,0,1-.665.325,5.628,5.628,0,0,1-.731.247,5.206,5.206,0,0,1-.749.146V601.4a11.767,11.767,0,0,0,3.779-1.894Z" fill="#fff"/><path d="M1196.122,599.506v12.915h-2.775v-9.779a3.324,3.324,0,0,1-.542.384,5.444,5.444,0,0,1-.665.325,5.628,5.628,0,0,1-.731.247,5.206,5.206,0,0,1-.749.146V601.4a11.767,11.767,0,0,0,3.779-1.894Z" fill="#fff"/><path d="M1205.371,612.641q-4.511,0-4.511-6.334a8.617,8.617,0,0,1,1.22-5.008,4.066,4.066,0,0,1,3.537-1.723q4.4,0,4.4,6.44a8.486,8.486,0,0,1-1.2,4.916A3.961,3.961,0,0,1,1205.371,612.641Zm.123-10.942q-1.806,0-1.806,4.537,0,4.273,1.771,4.273,1.727,0,1.727-4.4T1205.494,601.7Z" fill="#fff"/><path d="M1219.043,599.506v12.915h-2.775v-9.779a3.324,3.324,0,0,1-.542.384,5.444,5.444,0,0,1-.665.325,5.628,5.628,0,0,1-.731.247,5.206,5.206,0,0,1-.749.146V601.4a11.767,11.767,0,0,0,3.779-1.894Z" fill="#fff"/><path d="M1230.5,599.506v12.915h-2.775v-9.779a3.324,3.324,0,0,1-.542.384,5.444,5.444,0,0,1-.665.325,5.628,5.628,0,0,1-.731.247,5.206,5.206,0,0,1-.749.146V601.4a11.767,11.767,0,0,0,3.779-1.894Z" fill="#fff"/><path d="M1239.752,612.641q-4.511,0-4.511-6.334a8.617,8.617,0,0,1,1.22-5.008,4.066,4.066,0,0,1,3.537-1.723q4.4,0,4.4,6.44a8.486,8.486,0,0,1-1.2,4.916A3.961,3.961,0,0,1,1239.752,612.641Zm.123-10.942q-1.806,0-1.806,4.537,0,4.273,1.771,4.273,1.727,0,1.727-4.4T1239.875,601.7Z" fill="#fff"/><path d="M1253.423,599.506v12.915h-2.775v-9.779a3.324,3.324,0,0,1-.542.384,5.444,5.444,0,0,1-.665.325,5.628,5.628,0,0,1-.731.247,5.206,5.206,0,0,1-.749.146V601.4a11.767,11.767,0,0,0,3.779-1.894Z" fill="#fff"/><path d="M1262.673,612.641q-4.511,0-4.511-6.334a8.617,8.617,0,0,1,1.22-5.008,4.066,4.066,0,0,1,3.537-1.723q4.4,0,4.4,6.44a8.486,8.486,0,0,1-1.2,4.916A3.961,3.961,0,0,1,1262.673,612.641Zm.123-10.942q-1.806,0-1.806,4.537,0,4.273,1.771,4.273,1.727,0,1.727-4.4T1262.8,601.7Z" fill="#fff"/><path d="M1274.133,612.641q-4.511,0-4.511-6.334a8.617,8.617,0,0,1,1.22-5.008,4.066,4.066,0,0,1,3.537-1.723q4.4,0,4.4,6.44a8.486,8.486,0,0,1-1.2,4.916A3.961,3.961,0,0,1,1274.133,612.641Zm.123-10.942q-1.806,0-1.806,4.537,0,4.273,1.771,4.273,1.727,0,1.727-4.4T1274.256,601.7Z" fill="#fff"/><path d="M1287.8,599.506v12.915h-2.775v-9.779a3.324,3.324,0,0,1-.542.384,5.444,5.444,0,0,1-.665.325,5.628,5.628,0,0,1-.731.247,5.206,5.206,0,0,1-.749.146V601.4a11.767,11.767,0,0,0,3.779-1.894Z" fill="#fff"/><path d="M1299.265,599.506v12.915h-2.775v-9.779a3.324,3.324,0,0,1-.542.384,5.444,5.444,0,0,1-.665.325,5.628,5.628,0,0,1-.731.247,5.206,5.206,0,0,1-.749.146V601.4a11.767,11.767,0,0,0,3.779-1.894Z" fill="#fff"/><path d="M1308.514,612.641q-4.511,0-4.511-6.334a8.617,8.617,0,0,1,1.22-5.008,4.066,4.066,0,0,1,3.537-1.723q4.4,0,4.4,6.44a8.486,8.486,0,0,1-1.2,4.916A3.961,3.961,0,0,1,1308.514,612.641Zm.123-10.942q-1.806,0-1.806,4.537,0,4.273,1.771,4.273,1.727,0,1.727-4.4T1308.637,601.7Z" fill="#fff"/><path d="M1322.185,599.506v12.915h-2.775v-9.779a3.324,3.324,0,0,1-.542.384,5.444,5.444,0,0,1-.665.325,5.628,5.628,0,0,1-.731.247,5.206,5.206,0,0,1-.749.146V601.4a11.767,11.767,0,0,0,3.779-1.894Z" fill="#fff"/><path d="M1333.646,599.506v12.915h-2.775v-9.779a3.324,3.324,0,0,1-.542.384,5.444,5.444,0,0,1-.665.325,5.628,5.628,0,0,1-.731.247,5.206,5.206,0,0,1-.749.146V601.4a11.767,11.767,0,0,0,3.779-1.894Z" fill="#fff"/><path d="M1342.895,612.641q-4.511,0-4.511-6.334a8.617,8.617,0,0,1,1.22-5.008,4.066,4.066,0,0,1,3.537-1.723q4.4,0,4.4,6.44a8.486,8.486,0,0,1-1.2,4.916A3.961,3.961,0,0,1,1342.895,612.641Zm.123-10.942q-1.806,0-1.806,4.537,0,4.273,1.771,4.273,1.727,0,1.727-4.4T1343.018,601.7Z" fill="#fff"/><path d="M1356.566,599.506v12.915h-2.775v-9.779a3.324,3.324,0,0,1-.542.384,5.444,5.444,0,0,1-.665.325,5.628,5.628,0,0,1-.731.247,5.206,5.206,0,0,1-.749.146V601.4a11.767,11.767,0,0,0,3.779-1.894Z" fill="#fff"/><path d="M1365.816,612.641q-4.511,0-4.511-6.334a8.617,8.617,0,0,1,1.22-5.008,4.066,4.066,0,0,1,3.537-1.723q4.4,0,4.4,6.44a8.486,8.486,0,0,1-1.2,4.916A3.961,3.961,0,0,1,1365.816,612.641Zm.123-10.942q-1.806,0-1.806,4.537,0,4.273,1.771,4.273,1.727,0,1.727-4.4T1365.939,601.7Z" fill="#fff"/><path d="M1377.276,612.641q-4.511,0-4.511-6.334a8.617,8.617,0,0,1,1.22-5.008,4.066,4.066,0,0,1,3.537-1.723q4.4,0,4.4,6.44a8.486,8.486,0,0,1-1.2,4.916A3.961,3.961,0,0,1,1377.276,612.641Zm.123-10.942q-1.806,0-1.806,4.537,0,4.273,1.771,4.273,1.727,0,1.727-4.4T1377.4,601.7Z" fill="#fff"/><path d="M1390.947,599.506v12.915h-2.775v-9.779a3.324,3.324,0,0,1-.542.384,5.444,5.444,0,0,1-.665.325,5.628,5.628,0,0,1-.731.247,5.206,5.206,0,0,1-.749.146V601.4a11.767,11.767,0,0,0,3.779-1.894Z" fill="#fff"/><path d="M1332.162,673.719s-12.934,15.485-19.208,31.053h37.178C1343.858,689.2,1332.162,673.719,1332.162,673.719Z" fill="#212121"/><polygon points="1343.751 815.647 1321.548 815.647 1324.26 803.952 1341.039 803.952 1343.751 815.647" fill="#212121"/><path d="M1311.779,775.817c-11.186,4.068-17.485,10.681-17.8,25.931-.312,15.315,2.251,23.551,2.654,24.745h2.213c.909-2.479,7.227-18.287,21.743-22.033C1332.612,801.359,1311.779,775.817,1311.779,775.817Z" fill="#ec6401"/><path d="M1352.606,775.817c11.186,4.068,17.485,10.681,17.8,25.931.312,15.315-2.251,23.551-2.654,24.745h-2.213c-.909-2.479-7.227-18.287-21.743-22.033C1331.772,801.359,1352.606,775.817,1352.606,775.817Z" fill="#bd3604"/><path d="M1350.571,721.8H1312.5a72.614,72.614,0,0,0-7.191,29.984c-.073,26.774,13.047,50.71,14.359,53.161h25.925c0-1.337,12.79-26.243,12.863-53.017C1358.481,742.242,1355.021,731.53,1350.571,721.8Z" fill="#ec6401"/><path d="M1312.578,721.8h5.152c-3.739,9.631-6.336,19.674-6.31,28.95.058,21.616,7.237,42.228,11.871,54.2h-4.787c0-1.337-13.126-26.243-13.2-53.017C1305.281,742.242,1308.128,731.53,1312.578,721.8Z" fill="#ff8c00"/><circle cx="1332.25" cy="744.929" r="9.992" fill="#fff"/><path d="M1332.31,690.75s-12.934,15.485-19.208,31.053h37.178C1344.006,706.235,1332.31,690.75,1332.31,690.75Z" fill="none" stroke="#fff" stroke-miterlimit="10" stroke-width="1.182"/><path d="M897.084,776.216H881.446v-9.622a.69.69,0,0,0-.689-.689H871.4A3.011,3.011,0,0,1,868.4,762.9V744.229h2.426V762.9a.582.582,0,0,0,.582.582h9.354a3.119,3.119,0,0,1,3.115,3.115v7.2h10.786v-29.24h2.426Z" fill="#9c2801"/><polygon points="919.392 745.518 852.08 745.518 849.654 743.168 916.816 719.746 919.392 721.337 919.392 745.518" fill="#9c2801"/><rect x="849.654" y="719.746" width="67.312" height="23.347" fill="#ff8c00"/><circle cx="858.675" cy="730.813" r="5.609" fill="#ffa940"/><rect x="868.984" y="725.886" width="9.627" height="9.627" fill="#d83b01"/><circle cx="890.208" cy="730.813" r="5.609" fill="#ffa940"/><rect x="900.517" y="725.886" width="9.627" height="9.627" fill="#d83b01"/><polygon points="915.562 833.831 858.078 833.831 856.242 832.101 913.71 772.628 915.562 774.591 915.562 833.831" fill="#9c2801"/><rect x="856.073" y="772.587" width="57.484" height="59.376" fill="#ff8c00"/><path d="M869.837,779.259v12.915h-2.775V782.4a3.324,3.324,0,0,1-.542.384,5.444,5.444,0,0,1-.665.325,5.628,5.628,0,0,1-.731.247,5.206,5.206,0,0,1-.749.146v-2.343a11.767,11.767,0,0,0,3.779-1.894Z" fill="#9c2801"/><path d="M879.086,792.394q-4.511,0-4.511-6.334a8.617,8.617,0,0,1,1.22-5.008,4.066,4.066,0,0,1,3.537-1.723q4.4,0,4.4,6.44a8.486,8.486,0,0,1-1.2,4.916A3.961,3.961,0,0,1,879.086,792.394Zm.123-10.942q-1.806,0-1.806,4.537,0,4.273,1.771,4.273,1.727,0,1.727-4.4T879.209,781.453Z" fill="#9c2801"/><path d="M892.757,779.259v12.915h-2.775V782.4a3.324,3.324,0,0,1-.542.384,5.444,5.444,0,0,1-.665.325,5.628,5.628,0,0,1-.731.247,5.206,5.206,0,0,1-.749.146v-2.343a11.767,11.767,0,0,0,3.779-1.894Z" fill="#9c2801"/><path d="M904.218,779.259v12.915h-2.775V782.4a3.324,3.324,0,0,1-.542.384,5.444,5.444,0,0,1-.665.325,5.628,5.628,0,0,1-.731.247,5.206,5.206,0,0,1-.749.146v-2.343a11.767,11.767,0,0,0,3.779-1.894Z" fill="#9c2801"/><path d="M867.625,809.434q-4.511,0-4.511-6.334a8.617,8.617,0,0,1,1.22-5.008,4.066,4.066,0,0,1,3.537-1.723q4.4,0,4.4,6.44a8.486,8.486,0,0,1-1.2,4.916A3.961,3.961,0,0,1,867.625,809.434Zm.123-10.942q-1.806,0-1.806,4.537,0,4.273,1.771,4.273,1.727,0,1.727-4.4T867.749,798.492Z" fill="#9c2801"/><path d="M881.3,796.3v12.915h-2.775v-9.779a3.324,3.324,0,0,1-.542.384,5.444,5.444,0,0,1-.665.325,5.628,5.628,0,0,1-.731.247,5.206,5.206,0,0,1-.749.146v-2.343a11.767,11.767,0,0,0,3.779-1.894Z" fill="#9c2801"/><path d="M890.546,809.434q-4.511,0-4.511-6.334a8.617,8.617,0,0,1,1.22-5.008,4.066,4.066,0,0,1,3.537-1.723q4.4,0,4.4,6.44a8.486,8.486,0,0,1-1.2,4.916A3.961,3.961,0,0,1,890.546,809.434Zm.123-10.942q-1.806,0-1.806,4.537,0,4.273,1.771,4.273,1.727,0,1.727-4.4T890.669,798.492Z" fill="#9c2801"/><path d="M902.006,809.434q-4.511,0-4.511-6.334a8.617,8.617,0,0,1,1.22-5.008,4.066,4.066,0,0,1,3.537-1.723q4.4,0,4.4,6.44a8.486,8.486,0,0,1-1.2,4.916A3.961,3.961,0,0,1,902.006,809.434Zm.123-10.942q-1.806,0-1.806,4.537,0,4.273,1.771,4.273,1.727,0,1.727-4.4T902.13,798.492Z" fill="#9c2801"/><path d="M869.837,813.339v12.915h-2.775v-9.779a3.324,3.324,0,0,1-.542.384,5.444,5.444,0,0,1-.665.325,5.628,5.628,0,0,1-.731.247,5.206,5.206,0,0,1-.749.146v-2.343a11.767,11.767,0,0,0,3.779-1.894Z" fill="#9c2801"/><path d="M881.3,813.339v12.915h-2.775v-9.779a3.324,3.324,0,0,1-.542.384,5.444,5.444,0,0,1-.665.325,5.628,5.628,0,0,1-.731.247,5.206,5.206,0,0,1-.749.146v-2.343a11.767,11.767,0,0,0,3.779-1.894Z" fill="#9c2801"/><path d="M890.546,826.474q-4.511,0-4.511-6.334a8.617,8.617,0,0,1,1.22-5.008,4.066,4.066,0,0,1,3.537-1.723q4.4,0,4.4,6.44a8.486,8.486,0,0,1-1.2,4.916A3.961,3.961,0,0,1,890.546,826.474Zm.123-10.942q-1.806,0-1.806,4.537,0,4.273,1.771,4.273,1.727,0,1.727-4.4T890.669,815.532Z" fill="#9c2801"/><path d="M904.218,813.339v12.915h-2.775v-9.779a3.324,3.324,0,0,1-.542.384,5.444,5.444,0,0,1-.665.325,5.628,5.628,0,0,1-.731.247,5.206,5.206,0,0,1-.749.146v-2.343a11.767,11.767,0,0,0,3.779-1.894Z" fill="#9c2801"/><path d="M1212.822,776.216h-15.638v-9.622a.69.69,0,0,0-.689-.689h-9.354a3.011,3.011,0,0,1-3.007-3.007V744.229h2.426V762.9a.582.582,0,0,0,.582.582h9.354a3.119,3.119,0,0,1,3.115,3.115v7.2H1210.4v-29.24h2.426Z" fill="#9c2801"/><polygon points="1235.13 745.518 1167.818 745.518 1165.392 743.168 1232.554 719.746 1235.13 721.337 1235.13 745.518" fill="#9c2801"/><rect x="1165.392" y="719.746" width="67.312" height="23.347" fill="#ff8c00"/><circle cx="1174.413" cy="730.813" r="5.609" fill="#ffa940"/><rect x="1184.722" y="725.886" width="9.627" height="9.627" fill="#d83b01"/><circle cx="1205.947" cy="730.813" r="5.609" fill="#ffa940"/><rect x="1216.256" y="725.886" width="9.627" height="9.627" fill="#d83b01"/><polygon points="1231.3 833.831 1173.816 833.831 1171.981 832.101 1229.448 772.628 1231.3 774.591 1231.3 833.831" fill="#9c2801"/><rect x="1171.812" y="772.587" width="57.484" height="59.376" fill="#ff8c00"/><path d="M1185.575,779.259v12.915H1182.8V782.4a3.324,3.324,0,0,1-.542.384,5.444,5.444,0,0,1-.665.325,5.628,5.628,0,0,1-.731.247,5.206,5.206,0,0,1-.749.146v-2.343a11.767,11.767,0,0,0,3.779-1.894Z" fill="#9c2801"/><path d="M1194.824,792.394q-4.511,0-4.511-6.334a8.617,8.617,0,0,1,1.22-5.008,4.066,4.066,0,0,1,3.537-1.723q4.4,0,4.4,6.44a8.486,8.486,0,0,1-1.2,4.916A3.961,3.961,0,0,1,1194.824,792.394Zm.123-10.942q-1.806,0-1.806,4.537,0,4.273,1.771,4.273,1.727,0,1.727-4.4T1194.947,781.453Z" fill="#9c2801"/><path d="M1208.5,779.259v12.915h-2.775V782.4a3.324,3.324,0,0,1-.542.384,5.444,5.444,0,0,1-.665.325,5.628,5.628,0,0,1-.731.247,5.206,5.206,0,0,1-.749.146v-2.343a11.767,11.767,0,0,0,3.779-1.894Z" fill="#9c2801"/><path d="M1219.956,779.259v12.915h-2.775V782.4a3.324,3.324,0,0,1-.542.384,5.444,5.444,0,0,1-.665.325,5.628,5.628,0,0,1-.731.247,5.206,5.206,0,0,1-.749.146v-2.343a11.767,11.767,0,0,0,3.779-1.894Z" fill="#9c2801"/><path d="M1183.364,809.434q-4.511,0-4.511-6.334a8.617,8.617,0,0,1,1.22-5.008,4.066,4.066,0,0,1,3.537-1.723q4.4,0,4.4,6.44a8.486,8.486,0,0,1-1.2,4.916A3.961,3.961,0,0,1,1183.364,809.434Zm.123-10.942q-1.806,0-1.806,4.537,0,4.273,1.771,4.273,1.727,0,1.727-4.4T1183.487,798.492Z" fill="#9c2801"/><path d="M1197.035,796.3v12.915h-2.775v-9.779a3.324,3.324,0,0,1-.542.384,5.444,5.444,0,0,1-.665.325,5.628,5.628,0,0,1-.731.247,5.206,5.206,0,0,1-.749.146v-2.343a11.767,11.767,0,0,0,3.779-1.894Z" fill="#9c2801"/><path d="M1206.284,809.434q-4.511,0-4.511-6.334a8.617,8.617,0,0,1,1.22-5.008,4.066,4.066,0,0,1,3.537-1.723q4.4,0,4.4,6.44a8.486,8.486,0,0,1-1.2,4.916A3.961,3.961,0,0,1,1206.284,809.434Zm.123-10.942q-1.806,0-1.806,4.537,0,4.273,1.771,4.273,1.727,0,1.727-4.4T1206.408,798.492Z" fill="#9c2801"/><path d="M1217.745,809.434q-4.511,0-4.511-6.334a8.617,8.617,0,0,1,1.22-5.008,4.066,4.066,0,0,1,3.537-1.723q4.4,0,4.4,6.44a8.486,8.486,0,0,1-1.2,4.916A3.961,3.961,0,0,1,1217.745,809.434Zm.123-10.942q-1.806,0-1.806,4.537,0,4.273,1.771,4.273,1.727,0,1.727-4.4T1217.868,798.492Z" fill="#9c2801"/><path d="M1185.575,813.339v12.915H1182.8v-9.779a3.324,3.324,0,0,1-.542.384,5.444,5.444,0,0,1-.665.325,5.628,5.628,0,0,1-.731.247,5.206,5.206,0,0,1-.749.146v-2.343a11.767,11.767,0,0,0,3.779-1.894Z" fill="#9c2801"/><path d="M1197.035,813.339v12.915h-2.775v-9.779a3.324,3.324,0,0,1-.542.384,5.444,5.444,0,0,1-.665.325,5.628,5.628,0,0,1-.731.247,5.206,5.206,0,0,1-.749.146v-2.343a11.767,11.767,0,0,0,3.779-1.894Z" fill="#9c2801"/><path d="M1206.284,826.474q-4.511,0-4.511-6.334a8.617,8.617,0,0,1,1.22-5.008,4.066,4.066,0,0,1,3.537-1.723q4.4,0,4.4,6.44a8.486,8.486,0,0,1-1.2,4.916A3.961,3.961,0,0,1,1206.284,826.474Zm.123-10.942q-1.806,0-1.806,4.537,0,4.273,1.771,4.273,1.727,0,1.727-4.4T1206.408,815.532Z" fill="#9c2801"/><path d="M1219.956,813.339v12.915h-2.775v-9.779a3.324,3.324,0,0,1-.542.384,5.444,5.444,0,0,1-.665.325,5.628,5.628,0,0,1-.731.247,5.206,5.206,0,0,1-.749.146v-2.343a11.767,11.767,0,0,0,3.779-1.894Z" fill="#9c2801"/><path d="M1019.317,692.6a10.008,10.008,0,0,1,10.005,9.881h15.7a88.421,88.421,0,0,0-7.344-23.041h-37.25a85.949,85.949,0,0,0-7.528,23.041h16.416A10.008,10.008,0,0,1,1019.317,692.6Z" fill="#ec6401"/><path d="M1682.4,776.552c-.117-5.728-2.458-8.251-6.614-9.8a40.224,40.224,0,0,0,1.156-9.091c.01-3.655-1.3-7.7-2.974-11.366h.077a60.836,60.836,0,0,0-6.835-11.811,52.645,52.645,0,0,0-7.306,11.811h-.1c-1.679,3.67-3.06,7.887-3.05,11.542a38.393,38.393,0,0,0,1.286,9.36c-3.481,1.588-5.431,4.144-5.538,9.357a29.371,29.371,0,0,0,1.009,9.412h.841c.34-.928,2.673-6.757,8-8.3h1.543l-1.07,4.613h8.758l-1.07-4.613h1.571a.585.585,0,0,1,.033-.131c.053.017.1.039.156.054,5.521,1.425,7.924,7.437,8.27,8.38h.842A29.372,29.372,0,0,0,1682.4,776.552Z" fill="#6597bf"/><polygon points="1640.638 782.446 1618.415 760.222 1640.638 737.999 1637.803 735.164 1612.745 760.222 1637.803 785.281 1640.638 782.446" fill="#6597bf"/><polygon points="1694.27 737.999 1716.493 760.222 1694.27 782.446 1697.105 785.281 1722.164 760.222 1697.105 735.164 1694.27 737.999" fill="#6597bf"/><path d="M1173.932,398.557a30.536,30.536,0,0,0-3.842-5v-2.778c0-17.778-11.527-32.779-27.994-37.224a59.807,59.807,0,0,0-9.88-1.111,37.617,37.617,0,0,0-22.5,7.223A50.96,50.96,0,0,0,1093.793,343a40.947,40.947,0,0,0-9.88-4.445,47.1,47.1,0,0,0-15.369-2.778,47.994,47.994,0,0,0-47.754,46.113V383h-.549c-20.858,0-37.874,17.223-37.874,38.335a38.341,38.341,0,0,0,7.684,23.334c7.136,8.889,17.564,15,30.189,15h148.2c6.038,0,12.075-1.667,16.467-5a30.156,30.156,0,0,0,14.271-25.557A31.4,31.4,0,0,0,1173.932,398.557Z" fill="#235a89" fill-rule="evenodd"/></g></svg>