<svg xmlns="http://www.w3.org/2000/svg" xmlns:xlink="http://www.w3.org/1999/xlink" viewBox="0 0 1000 1000"><defs><clipPath id="a"><rect width="1000" height="1000" fill="none"/></clipPath></defs><title>socialmedia-devops-avatar</title><g clip-path="url(#a)"><rect x="-5.164" y="-7.759" width="1012.432" height="1007.759" fill="#235a89"/><polygon points="563.519 762.386 433.067 762.386 449 694.039 547.586 694.039 563.519 762.386" fill="#212121"/><path d="M380.053,531.486c-63.373,22.923-99.058,60.19-100.821,146.132-1.77,86.305,12.755,132.719,15.035,139.446H306.8c5.152-13.971,40.945-103.055,123.181-124.164C498.083,675.419,380.053,531.486,380.053,531.486Z" fill="#ec6401"/><path d="M623.734,531.486c63.373,22.923,99.058,60.19,100.821,146.132,1.77,86.305-12.755,132.719-15.035,139.446H696.985C691.833,803.093,656.04,714.009,573.8,692.9,505.7,675.419,623.734,531.486,623.734,531.486Z" fill="#bd3604"/><path d="M598.965,229.278H390.049c-25.671,54.089-45.3,113.636-45.444,167.6-.408,149.661,73.32,283.454,80.692,297.156l145.688,0c0-7.474,71.876-146.692,72.284-296.353C643.416,343.53,623.975,283.654,598.965,229.278Z" fill="#ec6401"/><path d="M388,229.278h27.5c-21.013,53.836-35.6,109.969-35.461,161.822.327,120.829,38.784,236.042,64.829,302.939h-26.9c0-7.474-74.994-144.083-75.4-293.744C342.42,346.138,363,283.653,388,229.278Z" fill="#ff8c00"/><ellipse cx="496.031" cy="360.412" rx="56.609" ry="56.309" fill="#fff"/><path d="M1575.17,955.571H-2993.153a62.25,62.25,0,0,1-62.415-62.084,62.25,62.25,0,0,1,62.415-62.084H1575.17a62.085,62.085,0,1,1,0,124.168Z" fill="#a7a9ac"/><path d="M1575.167,966.373h-4568.32c-40.4,0-73.274-32.7-73.274-72.886s32.873-72.886,73.274-72.886h4568.32c40.408,0,73.274,32.7,73.274,72.886S1615.575,966.373,1575.167,966.373ZM-2993.153,842.2a51.482,51.482,0,0,0-51.56,51.287,51.482,51.482,0,0,0,51.56,51.287h4568.32a51.288,51.288,0,1,0,0-102.574Z" fill="#212121"/><ellipse cx="229.876" cy="893.406" rx="29.513" ry="29.356" fill="#737373"/><ellipse cx="498.217" cy="893.406" rx="29.513" ry="29.356" fill="#737373"/><ellipse cx="766.558" cy="893.406" rx="29.513" ry="29.356" fill="#737373"/><rect x="-4.893" y="771.429" width="1005.33" height="227.143" fill="none"/><path d="M497.05,54.286s-73.277,87.263-108.822,174.993H598.856C563.312,141.549,497.05,54.286,497.05,54.286Z" fill="#212121"/></g></svg>