<svg xmlns="http://www.w3.org/2000/svg" viewBox="0 0 270 270"><title>spot-notebooks-languages</title><path d="M111.3,146.217,35.953,167.5a4.191,4.191,0,0,1-5.173-2.894L2.862,65.791a4.192,4.192,0,0,1,2.894-5.173L82.827,38.844A4.191,4.191,0,0,1,88,41.738L116.525,142.7a1.967,1.967,0,0,1-1.28,2.407C114.32,145.416,113.1,145.709,111.3,146.217Z" fill="#d2d2d2"/><path d="M6.35,60.45l-.594.168a4.191,4.191,0,0,0-2.894,5.173L30.78,164.609a4.191,4.191,0,0,0,5.173,2.894l.594-.168Z" fill="#c2c2c2"/><path d="M30.566,163.85l.263.931c.6,2.137,1.845,3.657,5.026,2.759L111.3,146.225c3.181-.9,4.555-1.175,5.7-1.835l-2.166-7.666-80.562,22.76C31.746,160.2,30.086,162.153,30.566,163.85Z" fill="#d2d2d2"/><polygon points="30.445 162.98 77.8 149.764 77.18 147.566 31.675 160.26 30.445 162.98" fill="#b2b2b2"/><path d="M117.37,145.252,36.041,168.229c-3.109.879-5.052-.222-5.94-3.365-.892-3.16.187-5.115,3.3-5.993l81.329-22.977.393,1.391L33.79,160.262c-2.68.757-2.859,2.223-2.3,4.193s1.48,3.141,4.16,2.384l81.329-22.978Z" fill="#737373"/><circle cx="56.395" cy="85.315" r="25.993" fill="#fff"/><path d="M60.446,76.963c-.427-1.513-2.691-1.89-5.345-1.14s-4.527,2.08-4.108,3.564l.613,2.169,4.708-1.331.194.685-6.792,1.919c-1,.282-2.905,1.5-1.776,5.494s3.169,4.343,4.139,4.069l1.683-.476c-.036-.02-.346-1.227-.709-2.511a3.016,3.016,0,0,1,2.039-3.472l4.765-1.347c1.969-.556,2.279-1.969,1.836-3.538S60.8,78.218,60.446,76.963Zm-7.161,2.793a.89.89,0,1,1,.614-1.1A.889.889,0,0,1,53.285,79.756Z" fill="#b2b2b2"/><path d="M55.218,94.124c.428,1.513,2.691,1.89,5.345,1.14s4.528-2.08,4.108-3.564l-.612-2.169L59.35,90.862l-.193-.685,6.791-1.919c1-.282,2.905-1.5,1.776-5.494s-3.168-4.343-4.138-4.069l-1.684.476c.037.02.347,1.227.709,2.511a3.016,3.016,0,0,1-2.038,3.472L55.807,86.5c-1.969.556-2.279,1.969-1.835,3.538S54.864,92.869,55.218,94.124Zm7.161-2.793a.89.89,0,1,1-.614,1.1A.889.889,0,0,1,62.379,91.331Z" fill="#b2b2b2"/><path d="M231.507,168.721l-75.172-21.885a4.192,4.192,0,0,1-2.853-5.2l28.7-98.593a4.192,4.192,0,0,1,5.2-2.853l76.9,22.387a4.192,4.192,0,0,1,2.853,5.2l-27.547,94.632c-.295,1.015-3.114,7.717-4.142,7.466C234.494,169.644,233.3,169.243,231.507,168.721Z" fill="#d2d2d2"/><path d="M187.526,40.237l-.145-.043a4.192,4.192,0,0,0-5.2,2.853l-28.7,98.593a4.191,4.191,0,0,0,2.853,5.2l.145.042Z" fill="#c2c2c2"/><rect x="197.633" y="66.339" width="41.77" height="34.13" rx="6.303" ry="6.303" transform="translate(30.569 -55.813) rotate(15.637)" fill="#fff"/><path d="M206.711,79.706l15.753-8.613-1.785,6.092L212.8,81.491l4.306,7.877-1.785,6.091Z" fill="#c2c2c2"/><path d="M214.543,82l5.626-3.076-2.55,8.7Z" fill="#c2c2c2"/><path d="M232.382,87.229l-9.048-15.881-1.785,6.092,4.307,7.876-7.877,4.307-1.785,6.091Z" fill="#b2b2b2"/><path d="M153.854,139.785l-.288.924c-.662,2.12-.452,4.071,2.7,5.056l74.837,23.36c3.155.985,4.562,1.538,5.883,1.612l2.373-7.6-80.018-24.979C156.838,137.371,154.38,138.1,153.854,139.785Z" fill="#d2d2d2"/><path d="M160.862,145.958l.288-.924c.526-1.683,2.984-2.414,5.49-1.631l71.989,22.1.846-2.708-80.131-24.641c-2.506-.782-4.964-.052-5.489,1.632l-.289.924c-.662,2.119-.452,4.071,2.7,5.056l4.328,1.351A6.992,6.992,0,0,1,160.862,145.958Z" fill="#b2b2b2"/><path d="M236.721,171.626l-80.673-25.182c-3.084-.963-4.11-2.946-3.136-6.064.978-3.134,2.95-4.182,6.034-3.219l80.673,25.182-.43,1.38L158.515,138.54c-2.658-.829-3.609.3-4.219,2.255-.614,1.969-.476,3.439,2.183,4.269l80.673,25.183Z" fill="#737373"/><path d="M62.448,231.315h146.74a4.207,4.207,0,0,0,4.207-4.207V126.783c0-2.318-2.432-4.468-5.682-4.468l-143.242,2.19a4.2,4.2,0,0,0-4.2,4.2l-2.024,98.416A4.2,4.2,0,0,0,62.448,231.315Z" fill="#737373"/><rect x="57.395" y="122.315" width="153" height="107" rx="4.087" ry="4.087" fill="#939393"/><rect x="134.395" y="128.315" width="70" height="94" fill="#fff"/><rect x="65.395" y="128.315" width="70" height="94" fill="#d2d2d2"/><path d="M142.5,159.315h51.584a1.5,1.5,0,1,0,0-3H142.5a1.5,1.5,0,1,0,0,3Z" fill="#c8c8c8"/><path d="M140.9,166.757a1.58,1.58,0,0,0,1.591,1.558h51.589a1.419,1.419,0,0,0,1.6-1.5c0-1.131-.406-1.5-1.6-1.5H142.5A1.418,1.418,0,0,0,140.9,166.757Z" fill="#c8c8c8"/><path d="M142.5,150.315h51.584a1.5,1.5,0,1,0,0-3H142.5a1.5,1.5,0,1,0,0,3Z" fill="#c8c8c8"/><path d="M142.5,177.315h51.584c1.19,0,1.6-.381,1.6-1.5a1.419,1.419,0,0,0-1.6-1.5H142.5a1.572,1.572,0,0,0-1.6,1.555A1.425,1.425,0,0,0,142.5,177.315Z" fill="#c8c8c8"/><path d="M142.5,186.315h51.584a1.5,1.5,0,1,0,0-3H142.5a1.5,1.5,0,1,0,0,3Z" fill="#c8c8c8"/><path d="M142.5,194.315h51.584a1.5,1.5,0,1,0,0-3H142.5a1.5,1.5,0,1,0,0,3Z" fill="#c8c8c8"/><path d="M142.5,203.315h51.584a1.5,1.5,0,1,0,0-3H142.5a1.5,1.5,0,1,0,0,3Z" fill="#c8c8c8"/><path d="M142.521,211.315H170.47a1.58,1.58,0,0,0,1.591-1.558,1.417,1.417,0,0,0-1.595-1.442h-27.94a1.417,1.417,0,0,0-1.595,1.442A1.579,1.579,0,0,0,142.521,211.315Z" fill="#c8c8c8"/><path d="M73.9,159.315h51.95a1.5,1.5,0,1,0,0-3H73.9a1.5,1.5,0,1,0,0,3Z" fill="#b2b2b2"/><path d="M73.892,168.315h51.96a1.579,1.579,0,0,0,1.59-1.558,1.417,1.417,0,0,0-1.595-1.442H73.9a1.427,1.427,0,0,0-1.608,1.43A1.588,1.588,0,0,0,73.892,168.315Z" fill="#b2b2b2"/><path d="M73.9,150.315h51.95a1.5,1.5,0,1,0,0-3H73.9a1.5,1.5,0,1,0,0,3Z" fill="#b2b2b2"/><path d="M73.9,177.315h51.95a1.424,1.424,0,0,0,1.595-1.445,1.57,1.57,0,0,0-1.6-1.555H73.892a1.589,1.589,0,0,0-1.6,1.561A1.436,1.436,0,0,0,73.9,177.315Z" fill="#b2b2b2"/><path d="M73.9,186.315h51.95a1.5,1.5,0,1,0,0-3H73.9a1.5,1.5,0,1,0,0,3Z" fill="#b2b2b2"/><path d="M73.9,194.315h51.95a1.5,1.5,0,1,0,0-3H73.9a1.5,1.5,0,1,0,0,3Z" fill="#b2b2b2"/><path d="M73.9,203.315h51.95a1.5,1.5,0,1,0,0-3H73.9a1.5,1.5,0,1,0,0,3Z" fill="#b2b2b2"/><path d="M73.92,211.315h27.949a1.58,1.58,0,0,0,1.591-1.558,1.418,1.418,0,0,0-1.6-1.442H73.925a1.428,1.428,0,0,0-1.609,1.43A1.589,1.589,0,0,0,73.92,211.315Z" fill="#b2b2b2"/><polygon points="150.395 176.199 144.915 173.81 139.395 176.199 139.395 122.315 150.395 122.315 150.395 176.199" fill="#106ebe"/><polygon points="110.395 107.252 110.395 200.662 134.395 222.442 134.395 129.018 110.395 107.252" fill="#69afe5"/></svg>