<svg xmlns="http://www.w3.org/2000/svg" viewBox="0 0 270 270"><title>spot-azure-accessible-everywhere</title><path d="M109.336,165.48c-30.374,1.85-52.095-3.075-55.035-14.354-2.682-10.292,10.867-23.6,34.087-35.889" fill="none" stroke="#737373" stroke-miterlimit="10" stroke-width="2" stroke-dasharray="2 4"/><path d="M91.412,62.048a6.976,6.976,0,0,0-2.046.323,13.24,13.24,0,0,0-25.807-2.16,9.235,9.235,0,0,0-4.969-.8,9.016,9.016,0,0,0,.979,17.974H91.31v-.106c.106,0,.215.106.321.106a7.68,7.68,0,0,0,7.135-10.293A7.538,7.538,0,0,0,91.412,62.048Z" fill="#e6e6e6"/><path d="M254.521,128.688a84.787,84.787,0,1,1-24.833-59.956,84.794,84.794,0,0,1,24.833,59.956" fill="#c2c2c2"/><path d="M221.831,87.18l0,0c0-3.073,3.39-5.323,3.117-8.324q-.132-1.446-.306-2.891c-.137-1.144-1.486-13.112-1.486-13.112l-3.277-2.662A84.891,84.891,0,0,0,106.952,185.833a84.519,84.519,0,0,0,16.6,1.748c.723.016,1.446.026,2.168.026a100.282,100.282,0,0,0,18.452-1.7c1.143-2.854,7.849-4.422,12.039-5.811,4.491-1.489,9.691-4.38,13.906-2.9a100.088,100.088,0,0,0,41.664-38.979c1.814-2.372,3.483-14.335,5.753-21.745,1.793-5.853,2.738-15.987,7.227-17.466q.361-3.315.511-6.7C225.331,90.869,221.831,88.634,221.831,87.18Z" fill="#d2d2d2"/><path d="M221.45,73.447h.426l.775,3.482L226.746,75v3.867h-4.785q.212,3.254.216,6.556c0,1.908-.059,3.8-.165,5.683l1.8-1.5v1.8l6.808,4.256v1.39h-3.173v1.927h4.8v-3.4l1.162-.464-5.421-3.559-.852-3.327h3.173l4.874,3.946v3.8l3.094,3.253,1.471-4.72,2.9-1.625v3.753l2.321,2.321,4.161.019q-.548-1.462-1.147-2.9l-3.284-.019.015-6.955A87.687,87.687,0,0,0,236.5,76.428l-2.247,2.279h-6.263V77.623L231.55,75.3l.014-4.642a86.889,86.889,0,0,0-6.624-6.291l.034,3.282-2.746.929-1.331.9q.318,1.976.555,3.976" fill="#939393"/><path d="M169.515,173.305a99,99,0,0,1-24.539,9.216l-1.084,5.432,2.786,3.252v7.429l3.714,7.427,5.106,4.178H160.6l.812-1.914-3.772-3.192.812-3.656v-1.858h-2.379l-1.392-1.391,2.553-2.322v-1.335l-2.263-.464v-1.566h3.364l5.223-2.669,6.731-10.27v-1.686l-1.044-4.237Z" fill="#939393"/><path d="M251.577,106.508l-.106-.024h-7.538l-3.6-3.482h-4.643v3.6h-1.741l-1.508-1.277-6.38-1.973V98.94h-4.8a99,99,0,0,1-13.831,38.646h4.7l3.106-1.933,2.232-.04,1.857,2.669h4.526v7.312l6.263,10.444-3.252,5.8v3.713l2.552,1.51v7.543l3.366,4.758v5.221h.729A83.419,83.419,0,0,0,253.1,144.659c2.468-13.722,1.993-25.4-1.521-38.154" fill="#939393"/><path d="M172.881,171.415h3.039l3.656-3.655.032-.663Q176.338,169.388,172.881,171.415Z" fill="#ed8422"/><path d="M219.71,78.862l-3.252,4.875h-4.1l-.773,4.487h2.168v2.862L210.5,90h-3.327l-3.327,1.391v5.421l2.4,1.927h7.273v-1.7l4.951-5.18H221.1l2.708-2.262v1.8l1.445.905c.063-1.439.1-2.882.1-4.337,0-3.069-.146-6.1-.418-9.1Z" fill="#b2b2b2"/><path d="M192.98,120.874v8.24l8.471,8.472h10.681l.033-.034A99.008,99.008,0,0,0,224.756,98.94h-9.027l-2.554,2.089h-6.614l-3.946,2.553v4.758l-9.636,6.731v2.67h2.785v3.132Z" fill="#b2b2b2"/><path d="M170.111,177.186l-.865-3.508,1.625-2.263h5.049l3.656-3.655.463-9.285,2.938-3.453a5.693,5.693,0,0,0,1.357-3.689V150.7l-3.424-.812-1.74-3.657h-7.893l-6.034-2.5v-3.011a4.536,4.536,0,0,0-.723-2.457l-1.367-2.129h-5.281l-3.887-5.743-2.321-.755v1.624h-5.281l-2.031-2.9-5.281-.581-3.655,4.643-7.37-.871v-6.429a1.413,1.413,0,0,0-1.218-1.4l-4.177-.584,2.088-3.481v-1.419a1.024,1.024,0,0,0-.154-.542,1.036,1.036,0,0,0-.416-.38,1.05,1.05,0,0,0-.554-.1,1.028,1.028,0,0,0-.526.2l-5.139,3.866h-4.293l-.379-.772a7.309,7.309,0,0,1-.175-6.08l.843-1.978a7.313,7.313,0,0,1,3.466-3.692l1.265-.632a7.321,7.321,0,0,1,3.27-.773h8.485v2.3a3.629,3.629,0,0,0,1.686,3.058l.685.434a.843.843,0,0,0,1.291-.71v-5.782l4-3.656,4-2.146V98.246l5.4-5.454,5.687-2.844V88.67l3.132-2.728,1.069.331a2.019,2.019,0,0,0,2.22-.723.4.4,0,0,0,.078-.208.412.412,0,0,0-.042-.218.409.409,0,0,0-.363-.224h-1.054a1.426,1.426,0,0,1-1.418-1.117,1.393,1.393,0,0,1,1.366-1.668h1.02a2.1,2.1,0,0,1,1.841,1.091l.389.708h2.958l1.686-1.625h1.16v1.566l-1.391,1.392a.715.715,0,0,0-.183.31.724.724,0,0,0-.01.361.732.732,0,0,0,.165.32.718.718,0,0,0,.3.2l4.318,1.514a1.036,1.036,0,0,0,.946-.133,1.046,1.046,0,0,0,.44-.85V85.943L168.039,84.2V83.1l2.785-1.044v-2.3a1.828,1.828,0,0,0-.933-1.595l-2.374-1.333V73.709a1.077,1.077,0,0,0-1.59-.946l-2.589,1.4h-1.856l.29-3.831-5.919-1.445-2.843,1.8v5.745l-4.469,1.686-1.972,3.83h-1.8V77.48l-4.469-.639-2.148-1.915-.167-1.749a2.047,2.047,0,0,1,.964-1.939l5.825-3.623,2.925-.75a1.085,1.085,0,0,1,.494-.012,1.1,1.1,0,0,1,.45.207,1.1,1.1,0,0,1,.424.866V69.24h1.706a1.139,1.139,0,0,0,1.138-1.138v-.661h1.065a.509.509,0,0,0,.455-.283.512.512,0,0,0-.049-.534L152.377,65.3h2.9l2.205-2.727,4.81-.434a2.136,2.136,0,0,1,1.7.617l.549.549a1.031,1.031,0,0,1,.253.412,1.03,1.03,0,0,1-.146.928,1.027,1.027,0,0,1-.366.314c-1.006.513-2.409,1.232-3.409,1.764a.6.6,0,0,0-.175.934.6.6,0,0,0,.307.186l5.291,1.409a1.332,1.332,0,0,0,.518.034,1.324,1.324,0,0,0,1.107-.977l.152-.571a1.324,1.324,0,0,1,1.284-.988h2.866l.92-1.767a.7.7,0,0,0,.079-.344.7.7,0,0,0-.354-.584.693.693,0,0,0-.342-.09h-1.638V60.642l-5.346-2.409a9.624,9.624,0,0,0-7.089-.324l-4.216,1.456v2.671a.958.958,0,0,1-.085.4.983.983,0,0,1-1.009.577l-1.687-.185a.991.991,0,0,1-.877-.981V60.4l1.552-1.461a.773.773,0,0,0,.225-.392.764.764,0,0,0-.749-.933H147.76a1.521,1.521,0,0,0-1.371.856L145.646,60h.827a1.029,1.029,0,0,1,1.029,1.029v.554a1.028,1.028,0,0,1-1.029,1.029h-2.916l-.547.836a1.483,1.483,0,0,1-1.244.672h-2.874a1.485,1.485,0,0,1-1.486-1.485V61.107h4.584l2.494-3.075-.826-.59a1.1,1.1,0,0,0-1.456.156l-1.039,1.147a1.7,1.7,0,0,1-1.267.563h-2.228a1.715,1.715,0,0,1-1.459-.818l-1.414-2.315h-4.134a3.672,3.672,0,0,0-2.419.907l-2.019,1.751a.536.536,0,0,0,.352.94h3.445v1.508l-.214.206a.655.655,0,0,0,.453,1.128h2.522a1.594,1.594,0,0,1,1.526,1.135l.182.6H129.7a1.786,1.786,0,0,1-1.678-1.175l-.268-.739-5.165-1.915-3.307.12-.872.42A85.3,85.3,0,0,0,96.656,85.468v.978l-1.345,1.373A84.5,84.5,0,0,0,89.89,99.793v1.7l3.52,1.858v4.793a7.488,7.488,0,0,0,.977,3.7l2.621,4.625h1.469v-2.4L96.661,109v-2.979a1.586,1.586,0,0,1,1.585-1.586v4.178l3.714,5.687v2.359h.851v1.9l2.32,4.642,7.212,2.06a.462.462,0,0,0,.206.009.449.449,0,0,0,.188-.083.442.442,0,0,0,.132-.159.457.457,0,0,0,.048-.2v-.78a.3.3,0,0,1,.03-.133.3.3,0,0,1,.207-.167.3.3,0,0,1,.136,0l2.19.474a.308.308,0,0,1,.173.109.3.3,0,0,1,.068.192v1.365a.447.447,0,0,0,.091.271.455.455,0,0,0,.236.163l4.808,1.373a1.8,1.8,0,0,1,.873.564l4.756,5.62h5.706a1.369,1.369,0,0,1,.525.1,1.4,1.4,0,0,1,.446.3,1.371,1.371,0,0,1,.4.971v3.385l-4.294,4.294v9.051L136,158.714v2.321h2.786l5.1,5.106V181h1.387l-.975,4.878a98.954,98.954,0,0,0,25.805-8.682ZM123.754,70.681h-4.176a.335.335,0,0,1-.207-.069.343.343,0,0,1-.121-.182.337.337,0,0,1,.16-.38l1.306-.743A2.359,2.359,0,0,1,121.882,69h1.872Zm16.552,22.626-.64.641a2.2,2.2,0,0,1-1.554.643H136.92a.689.689,0,0,1-.683-.6.678.678,0,0,1,.035-.325l.421-1.173,2.723-.832a.7.7,0,0,1,.318-.02.69.69,0,0,1,.572.679Zm.45-4.155a1.019,1.019,0,0,1-.084.407,1.04,1.04,0,0,1-.237.342l-.6.57a1.036,1.036,0,0,1-.712.284h-1.211V88.26h2.844Zm2.205-.6a.333.333,0,0,1,.207-.313.334.334,0,0,1,.368.073l.517.516a.346.346,0,0,1,.093.173.336.336,0,0,1-.146.347.329.329,0,0,1-.188.056h-.854ZM141.366,90l2.944.584a1.062,1.062,0,0,1,.856,1.043v1.365h-1.71a1.908,1.908,0,0,1-1.584-.843l-.506-.755Zm-2.119-3.874a.344.344,0,0,1,.409-.335.345.345,0,0,1,.175.094l.949.951a.336.336,0,0,1,.075.372.334.334,0,0,1-.125.153.343.343,0,0,1-.191.058h-1.292Zm-8.181,4.917a1.719,1.719,0,0,1,.448-1.159l2.22-2.438h-2.668V86.222l2.853-1.711a1.4,1.4,0,0,1,.731-.2h2.04a1.419,1.419,0,0,1,1.3.854l.21.482v1.8h-2.148l-3.423,5.863-.444-.212a1.985,1.985,0,0,1-1.124-1.79ZM128.054,78.27a1.084,1.084,0,0,1,.869-.18l.766.171a1.085,1.085,0,0,1,.843,1.057V81l-1.582.753a1.085,1.085,0,0,1-1.372-.386L126.353,79.5ZM117.829,65.742a.992.992,0,0,1,.8-.972l2.159-.423h2.96v1.741L123,66.66a1.75,1.75,0,0,1-1.057.362h-3.115a.992.992,0,0,1-.915-.611.98.98,0,0,1-.075-.378Z" fill="#b2b2b2"/><path d="M224.6,75.689c-.053-.584-.494-5.4-.865-7.617-.744.237-1.51.507-1.51.507l-1.387.885.211,1.235-2.038,1.093v1.651h2.862l.775,3.482,1.987-.938Z" fill="#b2b2b2"/><path d="M232.344,32.857a6.2,6.2,0,0,0-2.5.208,10.092,10.092,0,0,0-9.93-8.721,9.991,9.991,0,0,0-9.528,7.092,7,7,0,0,0-5.02-.337,6.559,6.559,0,0,0-4.457,4.416,6.871,6.871,0,0,0,6.468,8.872H231.31v-.08c.08,0,.162.08.242.08,4.2,0,7.273-4.561,4.846-8.982A5.114,5.114,0,0,0,232.344,32.857Z" fill="#e6e6e6"/><path d="M240.816,83.445c12.6,2.159,20.778,6.588,22.5,13.2,4.6,17.636-38.467,44.129-96.185,59.173a307.962,307.962,0,0,1-57.8,9.66" fill="none" stroke="#737373" stroke-miterlimit="10" stroke-width="2" stroke-dasharray="2 4"/><rect x="6.345" y="135.997" width="112.774" height="109.659" rx="14.895" ry="14.895" fill="#2488d8"/><path d="M96.917,210.3h-48.4v-.091L77.9,205.066c-.962-1.147-1.805-2.156-2.652-3.165l-12.1-14.309a1.217,1.217,0,0,1-.372-1.4c2.56-6.889,5.077-13.8,7.6-20.7.044-.123.1-.238.23-.554ZM65.3,168.459l3.233-6.916c-.395.288-.554.395-.7.506q-7.957,6.641-15.911,13.292a11.717,11.717,0,0,0-2.96,3.059c-4.234,7.4-8.544,14.763-12.821,22.139-.827,1.429-1.642,2.865-2.537,4.416h1.148c4.084,0,8.167-.031,12.267.024a1.582,1.582,0,0,0,1.717-1.076Q56.976,186.164,65.3,168.459Z" fill="#fff"/></svg>