<svg xmlns="http://www.w3.org/2000/svg" viewBox="0 0 270 270"><title>spot-scientist-developer-student</title><path d="M110.83,219.289h-7.25l.468-13.385H85.682l-.467,13.385s-4.346-.039-8.095,0C97.994,243.5,110.83,219.289,110.83,219.289Z" fill="#b2b2b2"/><path d="M93.69,170.509s16.132,9.748,17.1,26.92a14,14,0,0,1-2.395,7.855s-14.362,11.613-26.73-3.4-11.89-12.36-7.369-20.906S93.69,170.509,93.69,170.509Z" fill="#b2b2b2"/><circle cx="217.119" cy="146" r="42.14" fill="#d2d2d2"/><path d="M198.3,135.415v17.727a6.552,6.552,0,0,0-.07.909c0,6.137,8.722,11.112,19.48,11.112,10.718,0,19.411-4.937,19.478-11.041h0V135.415Z" fill="#737373"/><path d="M197.522,143.362l18.2,21.744q.978.055,1.982.057c10.718,0,19.411-4.937,19.478-11.041h0V135.415Z" fill="#505050"/><polygon points="255.576 138.509 255.611 135.556 217.811 124.374 179.94 136.188 180.011 139.142 217.776 153.278 255.576 138.509" fill="#69afe5"/><polygon points="255.576 135.556 217.811 121.42 180.011 136.188 217.776 150.324 255.576 135.556" fill="#737373"/><path d="M192.107,147.511a.632.632,0,0,1-.633-.633v-6.892a.631.631,0,0,1,.473-.612l25.95-6.753a.632.632,0,1,1,.319,1.224l-25.476,6.63v6.4A.633.633,0,0,1,192.107,147.511Z" fill="#fff"/><polyline points="190.454 170.156 191.966 151.309 193.935 170.209" fill="none" stroke="#fff" stroke-linecap="round" stroke-linejoin="round" stroke-width="1.266"/><line x1="192.177" y1="170.648" x2="191.966" y2="151.309" fill="none" stroke="#fff" stroke-linecap="round" stroke-linejoin="round" stroke-width="1.266"/><rect x="190.63" y="148.214" width="3.024" height="4.782" rx="1.258" ry="1.258" fill="#737373"/><circle cx="192.107" cy="148.144" r="1.989" fill="#fff"/><circle cx="73.751" cy="74.906" r="41.962" fill="#d2d2d2"/><path d="M61.743,62.946c-4.107,2.371-8.89,7.473-4.862,15.611s6.933,13.35,8.758,16.426c3,5.056,13.641,5.083,16.709-.442,2.37-4.266-1.263-10.35-1.263-10.35s-2.172-.632-1.54,1.067a3.736,3.736,0,0,1-2.251,5.175c-2.133.869-4.858-.672-6.319-3.476-1.159-2.226-3.278-6.36-4.3-8.81s-.4-4.424,1.421-5.53,6.99-3.91,6.99-3.91L69.8,60.576Z" fill="#737373"/><rect x="65.812" y="45.044" width="4.839" height="13.656" transform="translate(-16.472 38.778) rotate(-28.456)" fill="#505050"/><path d="M63.281,52.851l10.09,18.667,8.356-4.532-10.214-18.9a.612.612,0,0,0-.829-.247l-7.05,3.824A.876.876,0,0,0,63.281,52.851Z" fill="#939393"/><path d="M67.026,49.829l-3.551,1.926a.7.7,0,0,0-.282.948L73.371,71.518l4.166-2.259" fill="none"/><rect x="61.308" y="44.075" width="6.827" height="3.111" rx="0.722" ry="0.722" transform="translate(-13.924 36.359) rotate(-28.461)" fill="#fff"/><rect x="76.368" y="70.863" width="3.221" height="4.84" rx="0.427" ry="0.427" transform="translate(-25.498 46.013) rotate(-28.458)" fill="#505050"/><rect x="81.837" y="67.897" width="3.221" height="4.84" rx="0.427" ry="0.427" transform="translate(-23.423 48.255) rotate(-28.455)" fill="#505050"/><path d="M67.737,92.974a4.137,4.137,0,0,1,3.712-2.7,3.565,3.565,0,0,1,3.686,3.688l-.417,9.872L62.724,104Z" fill="#939393"/><path d="M76.816,87.386l-.81-1.448a.368.368,0,0,1,.146-.5L95.666,74.852a.367.367,0,0,1,.5.144l.81,1.449a.367.367,0,0,1-.146.5L77.312,87.53A.367.367,0,0,1,76.816,87.386Z" fill="#69afe5"/><polygon points="93.814 106.781 53.665 106.781 55.021 103.256 92.458 103.256 93.814 106.781" fill="#737373"/><path d="M69.882,93.909a1.567,1.567,0,1,0,1.567-1.567,1.567,1.567,0,0,0-1.567,1.567" fill="#737373"/><path d="M60.035,62.272a6.032,6.032,0,1,0,6.032-6.034,6.032,6.032,0,0,0-6.032,6.034" fill="#505050"/><path d="M62.976,62.272a3.091,3.091,0,1,0,3.091-3.092,3.091,3.091,0,0,0-3.091,3.092" fill="#69afe5"/><path d="M74.2,73.142l-.854-1.575L84.7,65.41l.878,1.62a.491.491,0,0,1-.2.665L74.937,73.36A.543.543,0,0,1,74.2,73.142Z" fill="#fff"/><path d="M200.281,34.176a1.611,1.611,0,0,0,.1-2.128l-2.844-3.116a1.9,1.9,0,0,0-2.128-.1l-4.844,3.2c-1.034-.69-2.273-1.6-3.309-2.285l1.555-5.9a1.453,1.453,0,0,0-.776-1.742l-3.55-1.653a1.345,1.345,0,0,0-1.948.551L179.1,26.175a12.409,12.409,0,0,0-3.795-1.023l-.577-6a1.455,1.455,0,0,0-1.423-1.558l-4.055.029c-.629-.241-1.3.37-1.54,1l-1.349,6.127a12.5,12.5,0,0,0-3.872.679l-2.95-5.467a2.148,2.148,0,0,0-1.888-.725l-3.913,1.529a1.45,1.45,0,0,0-.928,1.665l1.226,5.817c-1.1.591-2.208,1.606-3.3,2.2L146,26.6a1.38,1.38,0,0,0-1.927.125l-2.9,2.644a1.379,1.379,0,0,0-.3,1.907l3.394,5.062a17.4,17.4,0,0,0-2.51,3.513l-5.883-1.972a1.864,1.864,0,0,0-1.966.976l-1.659,3.556A1.841,1.841,0,0,0,133,44.579l4.975,3.212c-.484,1.259-.544,2.536-1.029,3.8l-6,.582a1.864,1.864,0,0,0-1.357,1.645l-.176,3.833a1.856,1.856,0,0,0,1.2,1.762l6.147.918a25.123,25.123,0,0,0,.654,4.3l-5.471,2.952a1.348,1.348,0,0,0-.728,1.89l1.326,3.687a2,2,0,0,0,1.866,1.151l6.043-1.435q.885,1.642,1.77,3.281l-3.846,4.736a2,2,0,0,0,.124,1.926l2.845,3.116a1.619,1.619,0,0,0,1.906.3l5.067-3.4c1.033.689,2.273,1.6,3.309,2.284l-1.552,5.905a1.448,1.448,0,0,0,.773,1.743L154.6,94.64a1.823,1.823,0,0,0,1.946-.554l3.216-4.975c1.277.056,2.537.541,3.816.6l.353,6.2a1.854,1.854,0,0,0,1.646,1.354l4.035.4a2.573,2.573,0,0,0,1.559-1.423l1.128-5.923c1.5-.147,2.8-.515,4.3-.66l2.747,5.245a1.462,1.462,0,0,0,1.887.726L184.92,94.3a1.733,1.733,0,0,0,1.154-1.87l-1.226-5.817a15.287,15.287,0,0,0,3.3-2.2l4.734,3.843a1.425,1.425,0,0,0,2.129.1l2.9-2.644a1.423,1.423,0,0,0,.1-2.128l-3.4-5.065a10.637,10.637,0,0,0,2.509-3.512l5.885,1.973a1.451,1.451,0,0,0,1.742-.774l1.88-3.756a2.144,2.144,0,0,0-.55-1.946L200.9,67.07a10.9,10.9,0,0,0,.808-3.593l6.223-.786c.649-.183,1.318-.794,1.337-1.22l.2-4.258a1.454,1.454,0,0,0-1.422-1.558l-5.923-1.121a23.283,23.283,0,0,0-.451-4.077l5.043-2.973a1.556,1.556,0,0,0,.95-2.089l-1.323-3.689a1.344,1.344,0,0,0-1.886-.727l-6.023,1.011q-.885-1.642-1.771-3.281l3.624-4.533" fill="#d2d2d2"/><path d="M188.555,53.089a10.452,10.452,0,0,0,3.1-6.941,11.822,11.822,0,0,0,0-1.22v-.01c-.02-.4-.06-.808-.119-1.207q-.086-.573-.218-1.136a.308.308,0,0,0-.518-.14l-5.991,5.979a1.416,1.416,0,0,1-2,0l-3.394-3.389.006.008-.006-.008-1-1a1.254,1.254,0,0,1,.034-1.807l6.006-5.565a.351.351,0,0,0-.11-.586,9.755,9.755,0,0,0-10.538,2.307c-2.632,3.152-3.685,7.357-2.106,11.038L149.345,71.746a4.346,4.346,0,0,0,.362,6.506c.034.036.064.075.1.11a4.439,4.439,0,0,0,6.049.211,2.019,2.019,0,0,0,.186-.162c1.484-1.484,14.657-14.943,22.412-22.868A9.726,9.726,0,0,0,188.555,53.089Zm-37.4,23.482a2.3,2.3,0,1,1,3.251,0A2.3,2.3,0,0,1,151.155,76.571Z" fill="#737373"/><path d="M187.721,52.046a10.455,10.455,0,0,0,3.1-6.941,11.822,11.822,0,0,0,0-1.22v-.01c-.02-.4-.059-.808-.119-1.207q-.084-.573-.217-1.136a.308.308,0,0,0-.518-.14l-5.991,5.979a1.416,1.416,0,0,1-2,0l-3.394-3.389.006.008-.006-.008-1-1a1.254,1.254,0,0,1,.034-1.807l6.006-5.565a.352.352,0,0,0-.11-.586,9.755,9.755,0,0,0-10.538,2.307c-2.633,3.152-3.685,7.357-2.106,11.038L148.511,70.7a4.346,4.346,0,0,0,.361,6.506c.035.036.065.075.1.11a4.438,4.438,0,0,0,6.049.211,1.9,1.9,0,0,0,.186-.162c1.484-1.484,14.658-14.943,22.412-22.868A9.728,9.728,0,0,0,187.721,52.046Zm-37.4,23.483a2.3,2.3,0,1,1,3.252,0A2.3,2.3,0,0,1,150.32,75.529Z" fill="#fff"/><path d="M157.129,62.1,148.511,70.7a4.345,4.345,0,0,0,.362,6.506c.034.036.064.075.1.11a4.438,4.438,0,0,0,6.049.211,1.9,1.9,0,0,0,.186-.162c1.068-1.067,8.183-8.33,14.979-15.273Zm-3.557,13.434a2.3,2.3,0,1,1,0-3.252A2.3,2.3,0,0,1,153.572,75.529Z" fill="#e6e6e6"/><path d="M194.185,193.806l12.68-14.768a1.953,1.953,0,0,1,1.219,2.825c-.7,1.668-3.4,6.434-3.4,6.434s2.782,2.511,6.878-.4a70.6,70.6,0,0,0,9.063-8.433s2.486,3.976-3.368,11.443-19.545,8.485-19.545,8.485Z" fill="#c2c2c2"/><path d="M24.334,145.854c4.5-4.156,13.46-13.9,13.46-13.9a2.261,2.261,0,0,0-3.116-1.251c-1.628.788-6.178,3.78-6.178,3.78s-3.022-2.935-.607-7.388a62.819,62.819,0,0,1,7.416-9.892s-4.5-2.588-11.388,3.842-5.913,21.14-5.913,21.14S19.831,150.011,24.334,145.854Z" fill="#c2c2c2"/><path d="M94.843,165.888s5.164,5.719-4.709,7.905c-14.591,3.231-3.047,21.554-6.4,19.375s-6.6,1.8-1.689,5.346c6.544,4.729,3.694,10.021,3.694,10.021S67.464,194.841,67.2,186.2C66.382,159.969,94.843,165.888,94.843,165.888Z" fill="#505050"/><path d="M88.627,199.213a.555.555,0,0,1,.718-.807c2.112,1.224,5.148,3.215,6.815,3.385,3.4.348,6.964-1.915,6.964-1.915s-.829-5.506,2.819-8.185,5.45.639,5.45.639a10.825,10.825,0,0,1,1.158,9c-1.82,5.289-12.877,9.67-17.01,6.609C94.34,207.047,90.912,202.44,88.627,199.213Z" fill="#505050"/><path d="M195.288,191.683c-30.5,30.971-70.5,27.65-83.419,27.65,0,0-7.943,7.931-16.9,8.066-5.843.089-12.169-3.827-13.861-8.144-4.155-.755-30.322-7.922-42.822-18.922-24.012-21.13-11.833-56.5-11.833-56.5l-10.393-2.35s-19.941,45.684,17.393,77.35c22.885,19.412,24.274,28.306,24.433,41.748.029,2.407.16,5.682.353,9.419h59.172c.578-3.733,1.181-7.309,1.8-10.511,1.548-8.069,3.584-11.6,8.741-14.718a179.981,179.981,0,0,0,18.781-6.06c30.132-11.174,54.891-39.461,54.891-39.461S200.649,196.687,195.288,191.683Z" fill="#2488d8"/><path d="M107.036,219.292s-3.845,7.335-12.111,7.46c-5.392.082-11.161-3.476-12.722-7.46-.969-.176-3.625-.625-6.25-1.334,1.248,8.4,11.516,14.585,19.02,14.414,12.429-.283,16.884-10.263,17.9-13.039C110.52,219.283,108.56,219.323,107.036,219.292Z" fill="#09538f"/></svg>