<svg xmlns="http://www.w3.org/2000/svg" viewBox="0 0 294.482 150.002"><defs><style>.a{fill:#eaeaea;}.b{fill:#939393;}.c{fill:#009ccc;}.d{fill:#c2c2c2;}.e{fill:#f2cb1d;}.f{fill:#b3d6f2;}.g{fill:#fff;}.h{fill:#c8c8c8;}.i{fill:#231f20;}</style></defs><title>sprint-drag-n-drop</title><path class="a" d="M263.172,6.52H46.65V52.172H263.172Z"/><path class="b" d="M1,15.65v-1H0v1Zm237.391,0h1v-1h-1Zm0,46.957v1h1v-1ZM1,62.606H0v1H1ZM0,15.65v1.467H2V15.65Zm0,4.4v2.935H2V20.052Zm0,5.87v2.935H2V25.922Zm0,5.87v2.935H2V31.791Zm0,5.87V40.6H2V37.661ZM0,43.53v2.935H2V43.53ZM0,49.4v2.935H2V49.4Zm0,5.87V58.2H2V55.27Zm0,5.87v1.467H2V61.139Zm1,2.467H2.484v-2H1Zm4.451,0H8.418v-2H5.451Zm5.935,0h2.967v-2H11.386Zm5.935,0h2.967v-2H17.321Zm5.935,0h2.967v-2H23.255Zm5.935,0h2.967v-2H29.19Zm5.935,0h2.967v-2H35.125Zm5.935,0h2.967v-2H41.06Zm5.935,0h2.967v-2H46.995Zm5.935,0H55.9v-2H52.929Zm5.935,0h2.967v-2H58.864Zm5.935,0h2.967v-2H64.8Zm5.935,0H73.7v-2H70.734Zm5.935,0h2.967v-2H76.669Zm5.935,0h2.967v-2H82.6Zm5.935,0h2.967v-2H88.538Zm5.935,0H97.44v-2H94.473Zm5.935,0h2.967v-2h-2.967Zm5.934,0h2.968v-2h-2.968Zm5.935,0h2.968v-2h-2.968Zm5.935,0h2.967v-2h-2.967Zm5.935,0h2.967v-2h-2.967Zm5.935,0h2.967v-2h-2.967Zm5.934,0h2.968v-2h-2.968Zm5.935,0h2.967v-2h-2.967Zm5.935,0h2.967v-2h-2.967Zm5.935,0h2.967v-2h-2.967Zm5.934,0h2.968v-2h-2.968Zm5.935,0h2.968v-2H165.69Zm5.935,0h2.967v-2h-2.967Zm5.935,0h2.967v-2H177.56Zm5.935,0h2.967v-2h-2.967Zm5.934,0H192.4v-2h-2.968Zm5.935,0h2.968v-2h-2.968Zm5.935,0h2.967v-2H201.3Zm5.935,0H210.2v-2h-2.967Zm5.934,0h2.968v-2h-2.968Zm5.935,0h2.968v-2H219.1Zm5.935,0h2.967v-2h-2.967Zm5.935,0h2.967v-2h-2.967Zm5.935,0h1.483v-2h-1.483Zm2.483-1V61.139h-2v1.467Zm0-4.4V55.27h-2V58.2Zm0-5.869V49.4h-2v2.935Zm0-5.87V43.53h-2v2.935Zm0-5.87V37.661h-2V40.6Zm0-5.87V31.791h-2v2.935Zm0-5.87V25.922h-2v2.935Zm0-5.87V20.052h-2v2.935Zm0-5.87V15.65h-2v1.467Zm-1-2.467h-1.483v2h1.483Zm-4.451,0h-2.967v2h2.967Zm-5.935,0h-2.967v2h2.967Zm-5.934,0H219.1v2h2.968Zm-5.935,0h-2.968v2h2.968Zm-5.935,0h-2.967v2H210.2Zm-5.935,0H201.3v2h2.967Zm-5.934,0h-2.968v2h2.968Zm-5.935,0h-2.968v2H192.4Zm-5.935,0h-2.967v2h2.967Zm-5.935,0H177.56v2h2.967Zm-5.935,0h-2.967v2h2.967Zm-5.934,0H165.69v2h2.968Zm-5.935,0h-2.968v2h2.968Zm-5.935,0h-2.967v2h2.967Zm-5.935,0h-2.967v2h2.967Zm-5.935,0h-2.967v2h2.967Zm-5.934,0h-2.968v2h2.968Zm-5.935,0h-2.967v2h2.967Zm-5.935,0h-2.967v2h2.967Zm-5.935,0h-2.967v2h2.967Zm-5.934,0h-2.968v2h2.968Zm-5.935,0h-2.968v2h2.968Zm-5.935,0h-2.967v2h2.967Zm-5.935,0H94.473v2H97.44Zm-5.935,0H88.538v2h2.967Zm-5.935,0H82.6v2h2.967Zm-5.935,0H76.669v2h2.967Zm-5.935,0H70.734v2H73.7Zm-5.935,0H64.8v2h2.967Zm-5.935,0H58.864v2h2.967Zm-5.935,0H52.929v2H55.9Zm-5.935,0H46.995v2h2.967Zm-5.935,0H41.06v2h2.967Zm-5.935,0H35.125v2h2.967Zm-5.935,0H29.19v2h2.967Zm-5.935,0H23.255v2h2.967Zm-5.935,0H17.321v2h2.967Zm-5.935,0H11.386v2h2.967Zm-5.935,0H5.451v2H8.418Zm-5.935,0H1v2H2.484Z"/><path class="c" d="M14.046,80.87H6.22v6.522h7.826Z"/><path class="d" d="M197.955,80.87H28.39v6.522H197.955Z"/><path class="e" d="M36.216,96.52H28.39v6.522h7.826Z"/><path class="d" d="M197.961,96.52H50.57v6.522H197.961Z"/><path class="e" d="M36.216,112.17H28.39v6.522h7.826Z"/><path class="d" d="M197.961,112.17H50.57v6.522H197.961Z"/><path class="c" d="M14.046,127.83H6.22v6.522h7.826Z"/><path class="d" d="M197.955,127.83H28.39v6.522H197.955Z"/><path class="c" d="M14.046,143.48H6.22V150h7.826Z"/><path class="d" d="M197.955,143.48H28.39V150H197.955Z"/><path class="f" d="M255.352,0H38.83V45.652H255.352Z"/><path class="g" d="M38.17.65V.15h-.5v.5Zm216.522,0h.5V.15h-.5Zm0,45.652v.5h.5v-.5ZM38.17,46.3h-.5v.5h.5Zm0-45.152H254.692v-1H38.17ZM254.192.65V46.3h1V.65Zm.5,45.152H38.17v1H254.692ZM38.67,46.3V.65h-1V46.3Z"/><path class="c" d="M67.808,27.394a6.576,6.576,0,0,0-2.9.676V15.313a4.89,4.89,0,0,1,2.9-.963h2.319V27.394Z"/><path class="c" d="M61,28.693H57.084V15.65h-1.3V30h8.478S63.606,28.693,61,28.693Z"/><path class="c" d="M58.39,14.35V27.394h2.319a6.559,6.559,0,0,1,2.9.677V15.314a4.882,4.882,0,0,0-2.9-.964Z"/><path class="c" d="M71.434,15.65V28.693H67.521c-2.609,0-3.261,1.3-3.261,1.3h8.478V15.65Z"/><path class="b" d="M237.088,18.26H93.61v6.522H237.088Z"/><path class="h" d="M257.96,3.61h36.522v-2H257.96Z"/><path class="h" d="M257.96,14.04h23.478v-2H257.96Z"/><path class="h" d="M257.96,24.48h10.435v-2H257.96Z"/><path class="g" d="M133.919,39.006a2.06,2.06,0,0,0-2.157-.29,1.623,1.623,0,0,0-1.064,1.537l.068,2.223-.184.021-.021-3.934a2.082,2.082,0,0,0-.489-1.569,2.01,2.01,0,0,0-2.141-.367,1.318,1.318,0,0,0-.877,1.366l.1,3.445H126.5l.061-4.667a2.168,2.168,0,0,0-.856-1.508,3.271,3.271,0,0,0-2.744-.2,1.669,1.669,0,0,0-1.054,1.607v4.848h-.652V37.85a1.671,1.671,0,0,0-.6-1.354,2.2,2.2,0,0,0-1.39-.446c-.871,0-2.447.377-2.447,1.7l.021,4.957-.394-.007-.073-.09a2.511,2.511,0,0,0-3.1-.622c-1.084.618-1.286,1.949-.541,3.56,1.666,3.61,4.57,10.093,5.57,11.993l.091.174h13.675V55.783c0-1.449-.21-2.575.367-3.71.13-.257.264-.518.393-.794a13.528,13.528,0,0,0,1.638-5.81V40.579A2.1,2.1,0,0,0,133.919,39.006Z"/><path class="i" d="M134.6,38.292a2.69,2.69,0,0,0-1.9-.74,3.48,3.48,0,0,0-1.205.19,2.4,2.4,0,0,0-.794-1.61,2.674,2.674,0,0,0-1.874-.794,4.264,4.264,0,0,0-1.569.265c-.163-.815-1.406-1.834-3.24-1.834a3.3,3.3,0,0,0-2.937,1.821,4.3,4.3,0,0,0-2.075-.68,3.156,3.156,0,0,0-3.22,2.854l-.021,3.2a3.094,3.094,0,0,0-2.973.158c-1.214.691-2.1,2.322-.946,4.822,1.941,4.207,6.215,12.307,6.257,12.387l.184.348,14.453.013V56.085a7.705,7.705,0,0,1,.545-3.537c.142-.28.287-.565.454-.918a14.158,14.158,0,0,0,1.706-6.172V40.566A3.045,3.045,0,0,0,134.6,38.292Zm-.558,7.358a12.3,12.3,0,0,1-1.512,5.48c-.134.286-.273.558-.41.827a9.371,9.371,0,0,0-.687,4.128v1.3H118.924c-.839-1.6-4.195-8.315-5.892-11.993-.667-1.441-.514-2.617.407-3.141a1.692,1.692,0,0,1,2.347.4v1.69h1.3v-6.4c0-1.081,1.277-1.59,2.018-1.59a2.411,2.411,0,0,1,1.353.378A1.37,1.37,0,0,1,121,37.824v3.913l1.284-.021V37.232a1.813,1.813,0,0,1,2.058-1.977c.537.026,1.876.308,1.876,1.551l.021,1.019.04,3.873,1.182.021V38.374c0-1.273.693-1.366,1.366-1.406a1.244,1.244,0,0,1,1.3,1.08V43h1.3V40.27a1.338,1.338,0,0,1,2.255-1.045,1.468,1.468,0,0,1,.353,1.208Z"/></svg>