<svg width="636" height="300" viewBox="0 0 636 300" fill="none" xmlns="http://www.w3.org/2000/svg">
<path d="M78 145.95H220.69" stroke="#939393" stroke-width="1.5" stroke-miterlimit="10" stroke-linecap="round" stroke-linejoin="round" stroke-dasharray="3 3"/>
<path d="M353.139 145.95H492.529" stroke="#939393" stroke-width="1.5" stroke-miterlimit="10" stroke-linecap="round" stroke-linejoin="round" stroke-dasharray="3 3"/>
<path d="M313.91 107.92H428.05" stroke="#939393" stroke-width="1.5" stroke-miterlimit="10" stroke-linecap="round" stroke-linejoin="round" stroke-dasharray="3 3"/>
<path d="M334.119 183.99H563.859" stroke="#939393" stroke-width="1.5" stroke-miterlimit="10" stroke-linecap="round" stroke-linejoin="round" stroke-dasharray="3 3"/>
<path d="M353.509 140.18C350.979 136.39 326.949 94.6499 323.999 89.5999C321.049 84.5399 316.829 82.8599 311.349 82.8599C309.969 82.8599 306.939 82.8599 302.959 82.8599C291.929 82.8599 271.719 82.8599 259.919 82.8599C255.939 82.8599 252.909 82.8599 251.529 82.8599C246.049 82.8599 241.829 84.5499 238.879 89.5999C235.929 94.6599 211.899 136.39 209.369 140.18C206.839 143.97 206.839 148.61 211.059 156.2C215.279 163.79 236.349 200.88 238.879 205.52C241.409 210.16 245.199 212.9 251.529 212.9C252.939 212.9 256.259 212.9 260.549 212.9C275.489 212.9 302.319 212.9 302.319 212.9C306.619 212.9 309.929 212.9 311.339 212.9C317.659 212.9 321.459 210.16 323.989 205.52C326.519 200.88 347.599 163.79 351.809 156.2C356.019 148.61 356.039 143.97 353.509 140.18ZM314.249 181.7H300.339L281.519 149.07L262.699 181.7H248.799L267.769 147.87L248.799 114.04H262.919L281.529 146.66L300.139 114.04H314.259L295.289 147.87L314.249 181.7Z" fill="#3097D8"/>
<path d="M441.269 96.4899C440.809 96.4899 440.419 96.3299 440.099 96.0199C439.779 95.7099 439.619 95.3099 439.619 94.8299C439.619 94.3499 439.779 93.9499 440.099 93.6299C440.419 93.3099 440.809 93.1499 441.269 93.1499C441.739 93.1499 442.139 93.3099 442.469 93.6299C442.799 93.9499 442.959 94.3499 442.959 94.8299C442.959 95.2899 442.799 95.6799 442.469 95.9999C442.129 96.3299 441.739 96.4899 441.269 96.4899ZM442.519 116.56H439.959V100.56H442.519V116.56Z" fill="#737373"/>
<path d="M457.08 116.93C453.9 116.93 451.36 115.88 449.45 113.79C447.54 111.7 446.58 108.97 446.58 105.62C446.58 102.02 447.55 99.1398 449.5 96.9998C451.45 94.8498 454.1 93.7798 457.45 93.7798C460.54 93.7798 463.04 94.8198 464.93 96.8998C466.82 98.9798 467.77 101.71 467.77 105.07C467.77 108.73 466.8 111.62 464.86 113.74C462.92 115.86 460.33 116.93 457.08 116.93ZM457.27 96.1498C454.92 96.1498 453 96.9998 451.54 98.6998C450.07 100.4 449.34 102.63 449.34 105.39C449.34 108.15 450.06 110.37 451.49 112.05C452.92 113.73 454.79 114.57 457.09 114.57C459.55 114.57 461.49 113.77 462.9 112.16C464.32 110.56 465.02 108.31 465.02 105.43C465.02 102.47 464.33 100.19 462.96 98.5698C461.58 96.9598 459.68 96.1498 457.27 96.1498Z" fill="#737373"/>
<path d="M471.129 115.65V112.56C471.479 112.87 471.909 113.15 472.399 113.4C472.889 113.65 473.419 113.86 473.959 114.03C474.499 114.2 475.059 114.33 475.609 114.43C476.159 114.52 476.669 114.57 477.139 114.57C478.749 114.57 479.959 114.27 480.759 113.67C481.559 113.07 481.959 112.21 481.959 111.08C481.959 110.48 481.829 109.95 481.559 109.5C481.289 109.05 480.929 108.64 480.459 108.27C479.989 107.9 479.439 107.55 478.799 107.21C478.159 106.87 477.469 106.51 476.729 106.14C475.949 105.74 475.219 105.34 474.539 104.94C473.859 104.53 473.269 104.09 472.769 103.6C472.269 103.11 471.879 102.56 471.589 101.94C471.299 101.32 471.159 100.59 471.159 99.7598C471.159 98.7398 471.379 97.8498 471.829 97.0998C472.279 96.3498 472.869 95.7198 473.599 95.2298C474.329 94.7398 475.159 94.3798 476.089 94.1398C477.019 93.8998 477.969 93.7798 478.939 93.7798C481.149 93.7798 482.759 94.0498 483.769 94.5798V97.5298C482.449 96.6098 480.749 96.1498 478.679 96.1498C478.109 96.1498 477.529 96.2098 476.959 96.3298C476.389 96.4498 475.879 96.6498 475.429 96.9198C474.979 97.1898 474.619 97.5398 474.339 97.9698C474.059 98.3998 473.919 98.9198 473.919 99.5298C473.919 100.1 474.029 100.6 474.239 101.01C474.449 101.43 474.769 101.81 475.189 102.15C475.609 102.49 476.109 102.83 476.709 103.15C477.309 103.47 477.999 103.83 478.779 104.21C479.579 104.61 480.339 105.02 481.059 105.46C481.779 105.9 482.409 106.38 482.949 106.91C483.489 107.44 483.919 108.03 484.239 108.68C484.559 109.33 484.719 110.07 484.719 110.9C484.719 112 484.499 112.94 484.069 113.7C483.639 114.47 483.049 115.09 482.319 115.57C481.589 116.05 480.739 116.4 479.779 116.61C478.819 116.82 477.809 116.93 476.749 116.93C476.399 116.93 475.959 116.9 475.439 116.84C474.919 116.78 474.389 116.7 473.849 116.59C473.309 116.48 472.799 116.35 472.309 116.18C471.809 116.03 471.419 115.85 471.129 115.65Z" fill="#737373"/>
<path d="M531.168 121.08L533.688 116.37C533.828 116.11 533.728 115.76 533.478 115.63C533.398 115.59 533.308 115.55 533.228 115.55C533.038 115.55 532.858 115.64 532.758 115.82L530.228 120.49C528.278 119.58 526.108 119.08 523.818 119.08C521.538 119.08 519.378 119.58 517.438 120.48L514.918 115.81C514.778 115.55 514.458 115.46 514.198 115.59C513.938 115.73 513.848 116.05 513.988 116.31L516.498 121.05C512.078 123.49 509.328 128.02 508.998 133.5H539.498C539.158 128.04 535.578 123.53 531.168 121.08ZM516.818 127.59C515.998 127.59 515.328 126.92 515.328 126.1C515.328 125.28 515.998 124.61 516.818 124.61C517.638 124.61 518.308 125.28 518.308 126.1C518.308 126.92 517.638 127.59 516.818 127.59ZM530.848 127.59C530.028 127.59 529.358 126.92 529.358 126.1C529.358 125.28 530.028 124.61 530.848 124.61C531.668 124.61 532.338 125.28 532.338 126.1C532.338 126.92 531.668 127.59 530.848 127.59Z" fill="#82B941"/>
<path d="M507.989 137.15C507.989 135.28 506.369 133.9 504.559 133.9C502.749 133.9 501.129 135.46 501.129 137.02V151.63C501.129 153.2 502.749 154.7 504.559 154.7C506.369 154.7 507.989 153.19 507.989 151.39V137.15Z" fill="#82B941"/>
<path d="M547.729 137.15C547.729 135.29 546.109 133.9 544.299 133.9C542.489 133.9 540.869 135.46 540.869 137.02V151.63C540.869 153.2 542.489 154.7 544.299 154.7C546.109 154.7 547.729 153.19 547.729 151.39V137.15Z" fill="#82B941"/>
<path d="M509.359 134.89V156.44C509.359 159.2 510.549 160.92 513.789 160.92H516.079L516.089 168.01C516.199 169.58 517.769 170.96 519.579 170.96C521.389 170.96 523.069 169.33 523.069 167.54V161.88L527.649 161.9L527.609 167.8C527.719 169.37 529.019 170.86 530.819 170.86C532.619 170.86 534.029 169.34 534.029 167.54V160.92H535.209C537.229 160.92 539.509 160.12 539.509 156.44V134.89H509.359Z" fill="#82B941"/>
<path d="M591.11 182.07V165.01L573.33 167.34V182.07H591.11Z" fill="#2F75BB"/>
<path d="M593.211 182.07H616.541V161.67L593.211 164.73V182.07Z" fill="#2F75BB"/>
<path d="M593.211 183.99V201.55L616.541 204.76V183.99H593.211Z" fill="#2F75BB"/>
<path d="M591.11 183.99H573.34L573.45 198.83L591.11 201.26V183.99Z" fill="#2F75BB"/>
<path d="M65.5 42.98H117.01C124.74 42.98 131 49.24 131 56.97V240.74C131 249.43 123.95 256.48 115.26 256.48H77" stroke="#939393" stroke-width="1.5" stroke-miterlimit="10" stroke-linecap="round" stroke-linejoin="round" stroke-dasharray="3 3"/>
<path d="M72.7184 35.86C72.7184 23.99 62.8884 14.42 50.9184 14.84C40.4584 15.21 31.7084 23.5 30.7484 33.92C30.4784 36.89 30.8384 39.73 31.6884 42.35C31.6984 42.37 31.6984 42.39 31.7084 42.41C34.9384 52.26 46.5884 69.98 50.4384 75.69C51.0384 76.58 52.3384 76.58 52.9384 75.69C56.8184 70 68.5584 52.27 71.7884 42.42C72.2484 41.02 72.4684 39.77 72.5084 38.63C72.6284 37.72 72.7184 36.8 72.7184 35.86Z" fill="#EDAC28"/>
<path d="M51.6891 43.93C56.1461 43.93 59.7591 40.317 59.7591 35.86C59.7591 31.4031 56.1461 27.79 51.6891 27.79C47.2322 27.79 43.6191 31.4031 43.6191 35.86C43.6191 40.317 47.2322 43.93 51.6891 43.93Z" fill="white"/>
<path d="M68.7898 126L66.2898 118.79C65.8598 117.55 64.6898 116.72 63.3798 116.72H39.9798C38.6698 116.72 37.4998 117.55 37.0698 118.79L34.5698 126C34.1398 127.24 32.9698 128.07 31.6598 128.07H23.4198C21.7198 128.07 20.3398 129.45 20.3398 131.15V164.06C20.3398 165.76 21.7198 167.14 23.4198 167.14H80.1998C81.8998 167.14 83.2798 165.76 83.2798 164.06V131.15C83.2798 129.45 81.8998 128.07 80.1998 128.07H71.6998C70.3898 128.07 69.2198 127.24 68.7898 126Z" fill="#C5C5C5"/>
<path d="M20.3398 134.04V164.07C20.3398 165.77 21.7198 167.15 23.4198 167.15H80.1998C81.8998 167.15 83.2798 165.77 83.2798 164.07V134.04H20.3398Z" fill="#939393"/>
<path d="M51.6892 160.71C59.8299 160.71 66.4292 154.111 66.4292 145.97C66.4292 137.829 59.8299 131.23 51.6892 131.23C43.5485 131.23 36.9492 137.829 36.9492 145.97C36.9492 154.111 43.5485 160.71 51.6892 160.71Z" fill="white"/>
<path d="M51.6889 155.53C56.9687 155.53 61.2489 151.25 61.2489 145.97C61.2489 140.69 56.9687 136.41 51.6889 136.41C46.4091 136.41 42.1289 140.69 42.1289 145.97C42.1289 151.25 46.4091 155.53 51.6889 155.53Z" fill="#69AFE5"/>
<path d="M80.7998 285.17H29.3798C27.5198 285.17 26.0098 283.66 26.0098 281.8V219.15C26.0098 217.29 27.5198 215.78 29.3798 215.78H80.7998C82.6598 215.78 84.1698 217.29 84.1698 219.15V281.8C84.1698 283.66 82.6598 285.17 80.7998 285.17Z" fill="#8FC6E5"/>
<path d="M45.9785 265.44L47.1485 257.38C47.3385 256.12 47.9785 254.97 48.9485 254.14C49.9185 253.31 51.1585 252.87 52.4285 252.88H65.9785C67.2485 252.88 68.4685 253.33 69.4285 254.16C70.3885 254.99 71.0185 256.13 71.1985 257.38L72.3585 265.44H45.9785Z" fill="#EDAC28"/>
<path d="M55.3585 251.87V247.95H62.9785V251.87C62.9785 252 63.0085 252.14 63.0585 252.26C63.1085 252.38 63.1885 252.5 63.2885 252.59C63.3885 252.68 63.4985 252.76 63.6285 252.81C63.7585 252.86 63.8885 252.89 64.0285 252.89H64.7985C64.7985 254.34 64.1985 255.74 63.1385 256.77C62.0785 257.8 60.6385 258.38 59.1385 258.38C57.6385 258.38 56.1985 257.8 55.1385 256.77C54.0785 255.74 53.4785 254.35 53.4785 252.89H54.2985C54.4385 252.89 54.5685 252.86 54.6985 252.81C54.8285 252.76 54.9385 252.68 55.0385 252.59C55.1385 252.5 55.2085 252.38 55.2685 252.26C55.3385 252.14 55.3585 252 55.3585 251.87Z" fill="white"/>
<path d="M51.6387 253.34H53.1787C53.1887 254.41 53.5087 255.45 54.0887 256.34C54.6787 257.23 55.4987 257.94 56.4787 258.37L55.3988 264.55H49.9888V265.45H45.9688L47.0987 257.68C47.2787 256.56 47.8288 255.53 48.6488 254.75C49.4588 253.96 50.5087 253.47 51.6387 253.34Z" fill="#EDAC28"/>
<path d="M49.6281 241.4C49.7581 243.16 50.408 244.84 51.498 246.23C52.588 247.62 54.0581 248.66 55.7381 249.21C57.4181 249.76 59.218 249.8 60.918 249.33C62.618 248.86 64.1381 247.89 65.2881 246.55C66.4381 245.21 67.168 243.56 67.378 241.81C67.588 240.06 67.278 238.28 66.488 236.71C65.688 235.13 64.448 233.83 62.908 232.96C61.368 232.09 59.608 231.7 57.848 231.83C56.678 231.92 55.5381 232.23 54.4881 232.76C53.4381 233.29 52.508 234.02 51.748 234.91C50.988 235.8 50.3981 236.83 50.0381 237.94C49.6781 239.06 49.5381 240.23 49.6281 241.4Z" fill="#767576"/>
<path d="M61.3494 250.97C64.4994 250.69 66.8194 247.32 66.5994 244.11L66.0494 236.53L53.6094 237.48L54.1594 245.06C54.4394 249.09 58.1994 251.19 61.3494 250.97Z" fill="white"/>
<path d="M63.2291 235.87C63.2291 235.87 61.0191 241.13 53.8891 241.57L53.1191 236.64L63.2291 235.87Z" fill="#767576"/>
<path d="M62.1789 235.98L65.3889 235.7L66.1589 236.53L66.3289 237.25L66.6089 240.63C61.8989 239.35 62.1789 235.98 62.1789 235.98Z" fill="#767576"/>
<path d="M48.2482 234.49C48.3082 235.29 48.6083 236.06 49.1083 236.69C49.6083 237.32 50.2782 237.8 51.0482 238.05C51.8182 238.3 52.6382 238.32 53.4082 238.1C54.1882 237.88 54.8783 237.44 55.3983 236.83C55.9283 236.22 56.2582 235.47 56.3482 234.67C56.4482 233.87 56.2982 233.06 55.9382 232.34C55.5782 231.62 55.0083 231.03 54.3083 230.63C53.6083 230.23 52.8082 230.05 51.9982 230.11C51.4682 230.15 50.9383 230.3 50.4683 230.54C49.9883 230.78 49.5683 231.12 49.2183 231.52C48.8683 231.93 48.6082 232.4 48.4382 232.91C48.2682 233.42 48.2082 233.95 48.2482 234.49Z" fill="#767576"/>
<path d="M34.5795 215.78H29.3895C27.5295 215.78 26.0195 217.29 26.0195 219.15V281.8C26.0195 283.66 27.5295 285.17 29.3895 285.17H34.5795V215.78Z" fill="#69AFE5"/>
<path d="M27.8492 226.01H21.1292C20.1992 226.01 19.4492 225.26 19.4492 224.33C19.4492 223.4 20.1992 222.65 21.1292 222.65H27.8492C28.7792 222.65 29.5292 223.4 29.5292 224.33C29.5292 225.26 28.7792 226.01 27.8492 226.01Z" fill="#C5C5C5"/>
<path d="M29.5292 234.56C29.5292 235.49 28.7792 236.24 27.8492 236.24H21.1292C20.1992 236.24 19.4492 235.49 19.4492 234.56C19.4492 233.63 20.1992 232.88 21.1292 232.88H27.8492C28.7792 232.88 29.5292 233.64 29.5292 234.56Z" fill="#C5C5C5"/>
<path d="M29.5292 244.8C29.5292 245.73 28.7792 246.48 27.8492 246.48H21.1292C20.1992 246.48 19.4492 245.73 19.4492 244.8C19.4492 243.87 20.1992 243.12 21.1292 243.12H27.8492C28.7792 243.12 29.5292 243.87 29.5292 244.8Z" fill="#C5C5C5"/>
<path d="M29.5292 255.03C29.5292 255.96 28.7792 256.71 27.8492 256.71H21.1292C20.1992 256.71 19.4492 255.96 19.4492 255.03C19.4492 254.1 20.1992 253.35 21.1292 253.35H27.8492C28.7792 253.35 29.5292 254.1 29.5292 255.03Z" fill="#C5C5C5"/>
<path d="M29.5292 265.26C29.5292 266.19 28.7792 266.94 27.8492 266.94H21.1292C20.1992 266.94 19.4492 266.19 19.4492 265.26C19.4492 264.33 20.1992 263.58 21.1292 263.58H27.8492C28.7792 263.58 29.5292 264.33 29.5292 265.26Z" fill="#C5C5C5"/>
<path d="M27.8492 277.17H21.1292C20.1992 277.17 19.4492 276.42 19.4492 275.49C19.4492 274.56 20.1992 273.81 21.1292 273.81H27.8492C28.7792 273.81 29.5292 274.56 29.5292 275.49C29.5292 276.42 28.7792 277.17 27.8492 277.17Z" fill="#C5C5C5"/>
</svg>
