<svg xmlns="http://www.w3.org/2000/svg" viewBox="0 0 636 300"><defs><style>.a{fill:#b3d6f2}.b{fill:#505050}.c{fill:#565656}.d{fill:#212121}.e{fill:#bad80a}.f{fill:#f0ae00}.g{fill:#90c10c}.h{fill:#fff}.i{fill:#737373}.j{fill:#b2b2b2}.k{fill:#d2d2d2}.l{fill:#235a89}.m{fill:#72b4e8}.n{fill:#2488d8}.o{fill:#99bcd7}.p{fill:#939393}.q{fill:#479cdf}.r{fill:#8fc3ec}.s{fill:#0078d7}.t{fill:#282828}.u{fill:#5c2d91}.v{fill:#8867c8}.w{fill:#9e83e3}.x{fill:#b4a0ff}</style></defs><title>swimlane-uwp-iot-core</title><path class="a" d="M184.051 100.454A13.02 13.02 0 0 0 171.387 87.4a11.613 11.613 0 0 0 .183-2.605 17.182 17.182 0 0 0-26.286-14.355 20.368 20.368 0 0 0-37.833 10.443l-.017.016a16.311 16.311 0 1 0-.727 32.6h64.308a13.072 13.072 0 0 0 13.036-13.045z"/><path class="b" d="M263.435 26.5h4.008c0-.549 3.006-4.237 12.024-2.762a89.931 89.931 0 0 1 15.033 3.688S273.455 28.9 271.451 28.9a6.777 6.777 0 0 1-3.551-1.4H263v-1zM261.431 27.5h-4.008c0-.157-3.006 3.531-12.024 2.056a89.931 89.931 0 0 1-15.031-3.688s21.043-1.475 23.047-1.475a4.233 4.233 0 0 1 3.551 2.107H261v1z"/><path class="c" d="M260 22.5h4v12h-4z"/><path class="b" d="M124 26.5h-3.857c0-.549-3.006-4.237-12.024-2.762a89.931 89.931 0 0 0-15.031 3.688s21.043 1.474 23.047 1.474a6.777 6.777 0 0 0 3.551-1.4H124v-1zM126 27.5h4.163c0-.157 3.006 3.531 12.024 2.056a89.931 89.931 0 0 0 15.031-3.688s-21.043-1.475-23.047-1.475a4.233 4.233 0 0 0-3.551 2.107H126v1z"/><path class="c" d="M123 22.5h4v12h-4z"/><path class="b" d="M157.968 93.5h-4.008A24.068 24.068 0 0 1 178 69.46v4.008A20.032 20.032 0 0 0 157.968 93.5zM231.032 93.5h4.008A24.068 24.068 0 0 0 211 69.46v4.008A20.032 20.032 0 0 1 231.032 93.5z"/><path class="d" d="M258.11 31.5h7.78a2.11 2.11 0 0 1 2.11 2.11v3.78a2.11 2.11 0 0 1-2.11 2.11h-7.78a2.11 2.11 0 0 1-2.11-2.11v-3.78a2.11 2.11 0 0 1 2.11-2.11zM128.823 31.5h-7.646A2.177 2.177 0 0 0 119 33.677v3.646a2.177 2.177 0 0 0 2.177 2.177h7.646A2.177 2.177 0 0 0 131 37.323v-3.646a2.177 2.177 0 0 0-2.177-2.177z"/><path class="e" d="M189 40.5h-56v-3h-16s-2 6 4 8 71 11 71 11zM198 40.5h56v-3h16s2 6-4 8-71 11-71 11z"/><path class="d" d="M209.624 76.5h-30.249A4.375 4.375 0 0 1 175 72.125v-19.25a4.375 4.375 0 0 1 4.375-4.375h30.25A4.375 4.375 0 0 1 214 52.875v19.249a4.376 4.376 0 0 1-4.376 4.376z"/><circle class="b" cx="194.294" cy="74.995" r="11.559"/><circle class="f" cx="194.294" cy="74.995" r="4.904"/><path class="g" d="M209.5 60.5h-31A11.5 11.5 0 0 1 167 49v-4a11.5 11.5 0 0 1 11.5-11.5h31A11.5 11.5 0 0 1 221 45v4a11.5 11.5 0 0 1-11.5 11.5z"/><circle class="h" cx="200.149" cy="47.439" r="5.668"/><circle class="h" cx="186.121" cy="47.439" r="3.006"/><path class="i" d="M500.641 157.339a2.1 2.1 0 0 0-1.519-1.1 432.035 432.035 0 0 0-66.1-5.341q-1.264 0-2.526.01c-.56-.005-1.119-.01-1.66-.01-.139 0-.276.02-.414.03a531.233 531.233 0 0 0-65.662 5.328 2.1 2.1 0 0 0-1.556 1.1c-2.075 3.942-9.729 19.774-9.729 38.845 0 22.323 7.873 45.442 9.814 50.8a2.1 2.1 0 0 0 1.635 1.362 432.485 432.485 0 0 0 65.912 5.31c32.235 0 63.534-4.363 70.064-5.328a2.114 2.114 0 0 0 1.679-1.37c1.957-5.409 9.8-28.49 9.8-50.776.002-19.099-7.679-34.955-9.738-38.86z"/><path class="j" d="M503.216 154.763a2.1 2.1 0 0 0-1.519-1.1 432.035 432.035 0 0 0-66.1-5.341q-1.264 0-2.526.01c-.56-.005-1.119-.01-1.66-.01-.139 0-.276.02-.414.03a531.233 531.233 0 0 0-65.662 5.328 2.1 2.1 0 0 0-1.556 1.1c-2.075 3.942-9.729 19.774-9.729 38.845 0 22.323 7.873 45.442 9.814 50.8a2.1 2.1 0 0 0 1.636 1.375 432.485 432.485 0 0 0 65.912 5.31c32.235 0 63.534-4.363 70.064-5.328a2.114 2.114 0 0 0 1.679-1.37c1.957-5.409 9.8-28.49 9.8-50.776.002-19.112-7.68-34.968-9.739-38.873z"/><path class="k" d="M512.771 199.5c.119-2.025.186-4.058.186-6.084 0-19.106-7.682-34.961-9.74-38.867a2.1 2.1 0 0 0-1.519-1.1 432.035 432.035 0 0 0-66.1-5.341q-1.264 0-2.526.009c-.56-.005-1.119-.009-1.66-.009-.139 0-.276.019-.414.029a531.227 531.227 0 0 0-65.664 5.328 2.094 2.094 0 0 0-1.552 1.1c-2.073 3.938-9.73 19.773-9.73 38.848 0 2.026.067 4.059.186 6.084h158.533z"/><circle class="b" cx="403.539" cy="233.156" r="4.616"/><circle class="b" cx="430.063" cy="232.893" r="4.616"/><circle class="b" cx="456.587" cy="232.63" r="4.616"/><path class="l" d="M497.057 194.5h-13.148a1.321 1.321 0 0 1-1.111-2.035l6.574-10.227a1.321 1.321 0 0 1 2.222 0l6.574 10.227a1.321 1.321 0 0 1-1.111 2.035zM497.057 200.5h-13.148a1.321 1.321 0 0 0-1.111 2.035l6.574 10.227a1.321 1.321 0 0 0 2.222 0l6.574-10.227a1.321 1.321 0 0 0-1.111-2.035z"/><path class="d" d="M467.752 222.5h-77.5a7.248 7.248 0 0 1-7.252-7.248v-45.5a7.248 7.248 0 0 1 7.248-7.248h77.5a7.248 7.248 0 0 1 7.252 7.244v45.5a7.248 7.248 0 0 1-7.248 7.252z"/><path class="m" d="M464.858 216.5h-71.716a4.142 4.142 0 0 1-4.142-4.142v-41.716a4.142 4.142 0 0 1 4.142-4.142h71.716a4.142 4.142 0 0 1 4.142 4.142v41.716a4.142 4.142 0 0 1-4.142 4.142z"/><path class="n" d="M417.093 167.5h-24.83a3.263 3.263 0 0 0-3.263 3.263v43.473a3.264 3.264 0 0 0 3.264 3.264H434.7zM465.737 167.5h-20.832l17.606 50h3.226a3.263 3.263 0 0 0 3.263-3.263v-43.474a3.263 3.263 0 0 0-3.263-3.263z"/><path d="M444 175.5v1.306l-6.316 14.694h-2.2L442 177.217v.283h-7v-2zM447 191.5v-1.539l1.682-1.62c4.047-3.822 5.876-5.854 5.9-8.224a2.816 2.816 0 0 0-3.146-3.072 5.426 5.426 0 0 0-3.365 1.33l-.682-1.5a6.987 6.987 0 0 1 4.486-1.6c3.413 0 4.853 2.322 4.853 4.572 0 2.9-2.121 5.248-5.462 8.441L450 189.452v.048h7v2h-10zM461.47 180.34a2.736 2.736 0 1 1 2.736-2.736 2.739 2.739 0 0 1-2.736 2.736zm0-3.9a1.16 1.16 0 1 0 1.16 1.16 1.161 1.161 0 0 0-1.16-1.156z"/><path class="o" d="M301 285.5H80.531A4.531 4.531 0 0 1 76 280.969V139.488a2.988 2.988 0 0 1 2.988-2.988H301z"/><path class="l" d="M314.327 285.5H270v-149h44.536a5.464 5.464 0 0 1 5.464 5.464v137.863a5.673 5.673 0 0 1-5.673 5.673z"/><path class="d" d="M245.082 270.5H93.917A1.917 1.917 0 0 1 92 268.583V154.417a1.917 1.917 0 0 1 1.917-1.917h151.166a1.917 1.917 0 0 1 1.917 1.917v114.167a1.918 1.918 0 0 1-1.918 1.916z"/><path class="p" d="M240.082 265.5H98.917A1.917 1.917 0 0 1 97 263.583V159.417a1.917 1.917 0 0 1 1.917-1.917h141.166a1.917 1.917 0 0 1 1.917 1.917v104.167a1.918 1.918 0 0 1-1.918 1.916z"/><path class="l" d="M240.082 265.5H98.917A1.917 1.917 0 0 1 97 263.583V159.417a1.917 1.917 0 0 1 1.917-1.917h141.166a1.917 1.917 0 0 1 1.917 1.917v104.167a1.918 1.918 0 0 1-1.918 1.916z"/><path class="d" d="M256.554 274.5h3.892a3.554 3.554 0 0 0 3.554-3.554V149.054a3.554 3.554 0 0 0-3.554-3.554h-3.892a3.554 3.554 0 0 0-3.554 3.554v121.892a3.554 3.554 0 0 0 3.554 3.554z"/><path class="f" d="M274 152.5h42v34h-42z"/><path class="q" d="M274 195.5h11v8h-11zM290 195.5h11v8h-11zM305 195.5h11v8h-11zM274 208.5h11v8h-11zM290 208.5h11v8h-11zM305 208.5h11v8h-11zM274 220.5h11v8h-11zM290 220.5h11v8h-11zM305 220.5h11v8h-11z"/><path class="r" d="M274 233.5h11v8h-11zM290 233.5h11v8h-11zM305 233.5h11v8h-11z"/><path class="s" d="M190.445 157.5h-62.76l51.118 108h60.552a2.983 2.983 0 0 0 1.82-.628z"/><path class="h" d="M287.766 164.879c0 2.8-1.039 4.346-2.863 4.346-1.61 0-2.7-1.507-2.725-4.232 0-2.762 1.192-4.283 2.864-4.283 1.735 0 2.724 1.545 2.724 4.169zm-4.473.126c0 2.142.659 3.358 1.673 3.358 1.14 0 1.685-1.331 1.685-3.434 0-2.027-.519-3.358-1.673-3.358-.978 0-1.685 1.192-1.685 3.434zM294.27 164.879c0 2.8-1.039 4.346-2.863 4.346-1.61 0-2.7-1.507-2.725-4.232 0-2.762 1.192-4.283 2.864-4.283 1.736 0 2.724 1.545 2.724 4.169zm-4.473.126c0 2.142.659 3.358 1.673 3.358 1.14 0 1.685-1.331 1.685-3.434 0-2.027-.519-3.358-1.673-3.358-.975 0-1.682 1.192-1.682 3.434zM295.389 163.966a.755.755 0 1 1 1.507 0 .754.754 0 1 1-1.507 0zm0 4.474a.755.755 0 1 1 1.507 0 .754.754 0 1 1-1.507 0zM303.4 164.879c0 2.8-1.039 4.346-2.863 4.346-1.61 0-2.7-1.507-2.725-4.232 0-2.762 1.192-4.283 2.864-4.283 1.734 0 2.724 1.545 2.724 4.169zm-4.472.126c0 2.142.658 3.358 1.673 3.358 1.14 0 1.685-1.331 1.685-3.434 0-2.027-.519-3.358-1.673-3.358-.978 0-1.687 1.192-1.687 3.434zM309.9 164.879c0 2.8-1.039 4.346-2.863 4.346-1.61 0-2.7-1.507-2.725-4.232 0-2.762 1.192-4.283 2.864-4.283 1.737 0 2.724 1.545 2.724 4.169zm-4.473.126c0 2.142.659 3.358 1.673 3.358 1.14 0 1.685-1.331 1.685-3.434 0-2.027-.519-3.358-1.673-3.358-.973 0-1.683 1.192-1.683 3.434zM253 158.5h11v100h-11z"/><path class="d" d="M274 152.5v4h39v30h3v-34h-42z"/><path class="i" d="M544.021 94.736c-8.32-4.871-16.542-18.825-10.49-29.6a26.825 26.825 0 0 1 3.664-4.686c3.588-3.965 7.3-8.065 4.9-16.648-3.078-11-20.9-8.8-38.883-5.608l-.818-4.609c15.821-2.813 39.729-7.061 44.21 8.955 3.1 11.07-2.122 16.839-5.932 21.051a23.652 23.652 0 0 0-3.053 3.837c-3.052 5.434-1.109 17.486 8.773 23.272z"/><path class="t" d="M492.657 28.313l11.782-2.49 4.23 20.017-11.781 2.49zM466.27 95.278l-9.3 1.967a8.582 8.582 0 0 1-10.173-6.623l-7.78-36.792a8.584 8.584 0 0 1 6.623-10.174l9.3-1.967a8.582 8.582 0 0 1 10.173 6.623l7.78 36.788a8.583 8.583 0 0 1-6.623 10.178zM369.29 57.038l9.5-2.008 4.339 20.523-9.501 2.008z"/><path class="u" d="M376.892 55.43l121.62-25.706 5.356 25.337-121.62 25.707z"/><path class="v" d="M548.034 121.755a11.019 11.019 0 0 1-14.379 5.964l-78.39-32.424a11.007 11.007 0 0 1 8.414-20.343l78.39 32.424a11.021 11.021 0 0 1 5.965 14.379z"/><circle class="u" cx="458.492" cy="84.837" r="5.723"/><path class="w" d="M556 154.752l-28-15.767V91.197l28-15.767v79.322z"/><path class="v" d="M528 115.5v23.547l28 15.538V115.5h-28z"/><path class="t" d="M552 69.5h8v94h-8z"/><path class="v" d="M500.645 39.837L396.763 61.799 356.612 59.7l-3.214-15.203L495.288 14.5l5.357 25.337z"/><path class="x" d="M353.406 44.513L495.3 14.52l1.5 7.095-141.893 29.992z"/></svg>