<svg xmlns="http://www.w3.org/2000/svg" xmlns:xlink="http://www.w3.org/1999/xlink" viewBox="0 0 636 300"><defs><clipPath id="a"><circle cx="426.508" cy="81.185" r="34.992" fill="none"/></clipPath></defs><title>swimlane-real-time-chat-app</title><path d="M495.491,291.5H150.947a3.008,3.008,0,0,1-2.863-3,2.941,2.941,0,0,1,2.863-3H495.491a2.882,2.882,0,0,1,2.863,3A2.943,2.943,0,0,1,495.491,291.5Z" fill="#c8c8c8"/><path d="M481.8,241.811H164.276a7.2,7.2,0,0,1-7.2-7.2V27.028a7.2,7.2,0,0,1,7.2-7.2H481.8a7.2,7.2,0,0,1,7.2,7.2V234.609a7.2,7.2,0,0,1-7.2,7.2"/><path d="M270.457,19.827H164.276a7.2,7.2,0,0,0-7.2,7.2V133.211Z" fill="#505050"/><rect x="175.524" y="38.277" width="295.031" height="185.082" fill="#d2d2d2"/><polygon points="175.524 114.76 252.007 38.277 175.524 38.277 175.524 114.76" fill="#e6e6e6"/><path d="M319.107,29.8A3.607,3.607,0,1,1,315.5,26.2a3.607,3.607,0,0,1,3.607,3.606" fill="#505050"/><path d="M261.553,60.533l.379,3.874c48.018,0,64.582,128.542,67.8,158.655h14.93S334.045,120.32,297.082,77.027c-11.6-9.243-21.61-16.494-35.529-16.494" fill="#c2c2c2"/><polygon points="413.122 186.682 390.376 191.064 367.629 186.682 367.629 183.261 390.376 179.599 413.122 183.261 413.122 186.682" fill="#e6e6e6"/><polygon points="413.122 186.682 390.376 191.064 367.629 186.682 367.629 185.087 390.376 185.331 413.122 185.087 413.122 186.682" fill="#d2d2d2"/><rect x="367.182" y="183.26" width="46.386" height="3.421" fill="#939393"/><polygon points="378.569 87.398 376.183 87.398 376.834 49.648 377.918 49.648 378.569 87.398" fill="#fff"/><polygon points="379.116 80.394 382.924 77.527 371.828 77.527 375.449 80.323 352.949 87.186 352.949 90.202 377.353 95.803 401.803 90.202 401.803 87.186 379.116 80.394" fill="#f3f3f3"/><polygon points="379.17 80.353 382.924 77.527 377.307 77.527 377.307 81.757 377.352 81.723 377.352 95.802 401.802 90.201 401.802 87.186 379.17 80.353" fill="#c2c2c2"/><path d="M385.476,102.374l.914-4.736L401.8,92.713V90.2H352.949v2.512l15.415,4.936.912,4.725q.165.864.322,1.729c4.123,22.9,5.516,46.945-2.136,69.532l-13.279,36.777H362.1l10.7-35.627a92.11,92.11,0,0,0,4.559-24.375,91.771,91.771,0,0,0,4.547,24.375l10.255,35.627h7.962L387.29,173.635c-7.651-22.587-6.26-46.63-2.136-69.532q.154-.865.322-1.729m-3.846,1.095a263.281,263.281,0,0,0-4.265,32.861,260.833,260.833,0,0,0-4.244-32.861c-.106-.592-.217-1.182-.331-1.774l-.54-2.8,5.1,1.634L382.5,98.88l-.543,2.815c-.113.592-.224,1.182-.331,1.774" fill="#c2c2c2"/><rect x="346.785" y="88.564" width="61.181" height="2.603" fill="#fff"/><rect x="369.782" y="139.573" width="15.188" height="3.905" fill="#f3f3f3"/><rect x="352.949" y="91.167" width="48.853" height="1.546" fill="#939393"/><polygon points="442.428 213.515 442.428 206.505 426.512 200.037 436.633 184.81 417.909 195.598 391.477 176.918 301 186.178 295.576 197.816 289.188 197.816 289.188 223.452 442.428 223.452 442.428 219.993 460.555 219.993 460.555 213.515 442.428 213.515" fill="#b2b2b2"/><polygon points="294.402 200.334 297.627 197.445 310.855 195.642 318.743 200.334 313.17 179.286 302.76 183.07 294.402 194.242 294.402 200.334" fill="#d2d2d2"/><polygon points="318.743 200.334 321.895 195.642 335.165 193.656 341.595 198.894 338.098 166.968 332.082 165.804 318.743 174.398 318.743 200.334" fill="#e6e6e6"/><path d="M341.594,198.9l7.062-5.532s15.543,4.058,16.422,4.081,15.006-4.081,15.006-4.081l1.3,1.08,4.739-27.474-7.472-5.279s-21.78,1.173-24.127,2.932-12.384,22.744-12.384,22.744Z" fill="#f3f3f3"/><polygon points="429.98 155.514 416.987 184.272 393.773 187.966 393.773 169.608 429.98 155.514" fill="#b2b2b2"/><path d="M287.8,177.015s11-7.553,28.594,3c-7.478-.879-17.156,9.838-22,20.315-6.6-7.675-6.6-23.319-6.6-23.319" fill="#e6e6e6"/><path d="M305.01,185.346c3.789-3.545,7.835-5.744,11.387-5.326a37.341,37.341,0,0,0-14.994-5.439,71.537,71.537,0,0,0,3.607,10.765" fill="#d2d2d2"/><path d="M339.272,158.024s-13.2-9.174-36.512-6.347c2.639,30.542,15.983,48.657,15.983,48.657s8.651-29.993,20.529-42.31" fill="#fff"/><path d="M328.056,175.76c3.166-6.718,6.985-13.349,11.215-17.736,0,0-5.075-3.523-14.482-5.53a69.57,69.57,0,0,0,3.267,23.266" fill="#e6e6e6"/><path d="M392.773,210.079s-3.5-13.872,1-22.112c20.282-13.08,42.861-3.157,42.861-3.157Z" fill="#f3f3f3"/><polygon points="404.313 189.81 392.36 208.127 388.595 204.214 389.128 200.767 391.476 191.896 404.313 189.81" fill="#b2b2b2"/><polygon points="460.555 218.95 400.041 218.95 400.041 216.107 388.595 204.213 337.957 204.213 321.016 204.213 318.743 200.334 281.205 200.334 281.205 216.155 281.205 218.95 259.061 218.95 259.061 223.389 281.205 223.389 281.205 223.512 400.041 223.512 400.041 223.389 460.555 223.389 460.555 218.95" fill="#939393"/><path d="M429.437,155.107c-20.416-2.649-34.806.2-45.137,7.178a80.4,80.4,0,0,0-45.815-35.171,79.693,79.693,0,0,0-5.369,16.777c-25.441-16.1-64.713-25.584-122.334-4.119,9.633-38.733,25.517-75.364,51.149-75.364.616,0,1.245.031,1.881.078.222.016.443.033.663.054,14.624,1.4,33.672,13.947,33.985,14.154-10.146-12.512-22.332-20.545-36.906-20.545-34.424,0-54.37,44.772-65.585,87.66q-4.848,2.141-9.852,4.554c-45.672,22.124-95.155-7.508-95.649-7.81a1.085,1.085,0,0,0-1.132,1.852c.367.224,27.215,16.318,59.833,16.318a86.151,86.151,0,0,0,37.895-8.406q4.162-2.017,8.211-3.826c-2.18,8.59-4.008,17.06-5.539,25.042-42.974,13.358-82.664,4.657-108.541-5.109-28.5-10.753-46.878-25.066-47.06-25.209a1.086,1.086,0,1,0-1.343,1.706c.185.146,18.78,14.633,47.568,25.509,16.605,6.272,38.824,12.118,63.964,12.118a154.661,154.661,0,0,0,44.954-6.59c-4.957,26.569-6.55,47.1-6.55,47.1h14.8c1.17-13.684,4.663-47.7,12.631-80.735,58.123-22.039,97.368-12.345,122.526,3.864a80.58,80.58,0,0,0-1.187,13.721c0,17.224.861,25.911,10.1,38.983,5.166-18.336,17.911-27.747,38.218-33.112-4.424,15.016,1.147,33.112,1.147,33.112l4.453-4.023c.271,3.734.967,7.592,2.64,8.935,3.025-9.458,15.718-14.4,15.718-14.4a32.994,32.994,0,0,0-9-2.982Z" fill="#e6e6e6"/><path d="M85.264,128.428s-21.411,5.524-9.489,19.97c14.381-.817,4.98-11.574,9.489-19.97" fill="#ed8422"/><path d="M76.113,144.809s-2.025,3,2.384,9.371a.7.7,0,0,0,.93.194l.017-.01a.69.69,0,0,0,.189-1c-1.012-1.345-3.373-4.987-2.543-8.773-1.3-1.745-.977.222-.977.222" fill="#ed8422"/><path d="M75.776,148.4c-1.663-13.45,9.488-19.97,9.488-19.97s-21.411,5.522-9.488,19.97" fill="#fda84c"/><path d="M465.493,170.05c26.931,0,46.937-5.126,60.2-10.244,19.9-7.682,29.135-16.774,29.519-17.157a1.085,1.085,0,0,0-1.534-1.536c-.367.366-37.578,36.364-121.536,24.292a1.085,1.085,0,1,0-.308,2.149,236.353,236.353,0,0,0,33.66,2.5" fill="#e8f1fc"/><path d="M565.888,128.019a14.3,14.3,0,0,0-3.153-4.687.689.689,0,0,1,.047-1.021l.014-.011a.7.7,0,0,1,.948.061,15.725,15.725,0,0,1,3.479,5.349l.026-.006c13.83,12.634-6.6,21.1-6.6,21.1,3.175-8.637-6.8-17.636,5.235-20.787" fill="#ed8422"/><path d="M567.249,127.7c3.531,13.084-6.6,21.1-6.6,21.1s20.425-8.468,6.6-21.1" fill="#ba3615"/><path d="M212.78,96.889H198.128a1.086,1.086,0,0,1,0-2.171H212.78a1.086,1.086,0,1,1,0,2.171" fill="#fff"/><path d="M247.985,118.332h0a2.911,2.911,0,0,0-3.143,2.661l-.174,2.089a4.987,4.987,0,0,0,4.558,5.382l.545.045.863-6.914a2.913,2.913,0,0,0-2.649-3.263" fill="#bb9167"/><path d="M325.352,248.02l10.862,11.961,3.022,8.429,27.7-9.925a4.858,4.858,0,0,0,2.934-6.212l-.1-.28-19.148,2.2-8.292-2.169-9.393-10.855Z" fill="#bb9167"/><polygon points="370.933 255.248 363.326 257.973 361.524 252.941 358.652 253.271 360.677 258.923 351.451 262.229 342.509 256.318 345.3 252.803 342.326 252.026 336.215 259.981 337.267 262.918 340.758 258.522 348.529 263.276 338.663 266.811 339.809 270.009 372.079 258.444 370.933 255.248" fill="#e6e6e6"/><path d="M264.437,205.147l36.722,3.22a14.345,14.345,0,0,1,9.843,5.2l27.752,33.871-8.1,6.908-36.125-30.5-43.446-1.769-17.936-9.21,6.128-17.092Z" fill="#505050"/><polygon points="330.65 254.344 338.754 247.437 335.908 243.965 327.637 251.8 330.65 254.344" fill="#737373"/><path d="M291.78,262.525l6.191,14.924V286.4H327.1a5.155,5.155,0,0,0,5.156-5.155l-18.769-4.387-7.075-4.839-5.181-13.386Z" fill="#bb9167"/><polygon points="324.172 284.705 324.172 279.36 321.356 278.701 321.356 284.705 311.557 284.705 305.132 276.124 308.945 273.757 306.408 272.022 297.971 277.449 297.971 280.569 302.741 277.608 308.451 284.705 297.971 284.705 297.971 288.101 332.251 288.101 332.251 284.705 324.172 284.705" fill="#e6e6e6"/><path d="M213.905,214.5a16.181,16.181,0,0,0,8.141,1.9c5.155,0,4.884-13.567,4.884-13.567Z" fill="#380038"/><path d="M217.679,203.962l.936,7.227a20.192,20.192,0,0,0,17.931,17.492l37.685-.027,17.228,40.018,13.592-3.527L292.78,220.682a14.38,14.38,0,0,0-10.7-10.2l-31.023-6.518Z" fill="#737373"/><path d="M273.685,154.117l4.524,30.453L304.757,196.8l-3.528,4.387-30.244-9.281a6.087,6.087,0,0,1-4.215-4.792l-5.649-33Z" fill="#ab845f"/><path d="M262.064,142.876l-15.4,1.14c-20.453,1.283-27.744,28.371-27.744,48.051,0,7.779-5.019,22.431-5.019,22.431l5.63-2.457a96.837,96.837,0,0,1,38.723-8.08h12.6l-4.378-14.155c-.314-2.542.328-6.61,1.24-10.857a8.768,8.768,0,0,0,4.758-10.147l-.964-3.694,1.894-6.027c2.433-7.859-3.121-16.2-11.348-16.2" fill="#ffa940"/><path d="M270.978,195.685l-7.417,3.346-22.819-13.567,1.173-23.007a6.6,6.6,0,0,0-11.349-4.917,13,13,0,0,0-3.636,9.017v19.3a8.95,8.95,0,0,0,5.359,8.2l26.646,11.681v1.845H274.97V197.359Z" fill="#bb9167"/><polygon points="273.279 178.546 263.318 205.861 233.144 205.861 233.144 209.298 262.064 209.298 265.32 209.298 313.438 209.298 324.653 178.546 273.279 178.546" fill="#b2b2b2"/><polygon points="327.91 178.546 276.536 178.546 265.32 209.297 316.695 209.297 327.91 178.546" fill="#043c40"/><polygon points="300.39 192.067 296.363 192.067 295.01 195.777 299.037 195.777 300.39 192.067" fill="#f3f3f3"/><polygon points="305.051 265.145 291.459 268.672 289.338 263.746 303.845 259.452 305.051 265.145" fill="#939393"/><path d="M263.292,103.148h0a15.806,15.806,0,0,0-17.059,14.444l-.71,8.56a16.417,16.417,0,0,0,3.06,10.889l-1.1,2.037a13.09,13.09,0,0,1-5.559,5.426l-3.006,1.442a6.726,6.726,0,0,0,2.591,2.175l5.789,2.214a15.326,15.326,0,0,0,15.829-3.018l1.594-1.462a1.162,1.162,0,0,0-.5-1.984l-2.036-.519a12.385,12.385,0,0,0,4.025-.985h.1l-.038-.023c5.863-2.49,10.258-8.989,10.731-13.26l.737-8.877a15.807,15.807,0,0,0-14.444-17.059" fill="#bb9167"/><path d="M260.576,143.338a14.322,14.322,0,0,1-7.938-2.385,10.605,10.605,0,0,0,3.109,7.262,9.5,9.5,0,0,0,5.1-4.857c0-.007.008-.011.01-.016-.094-.006-.186,0-.281,0" fill="#ab845f"/><path d="M277.593,121.923l-2.55-1.238c-3.178-.264-5.619,1.107-6.757,3.618l3.382,5.145a1.223,1.223,0,0,1-1.123,1.89l-1.574-.2a1.627,1.627,0,0,0-1.822,1.481l-.387,4.665a7.581,7.581,0,0,1-3.84,5.97c7.475-.959,13.518-9.123,14.078-14.174Z" fill="#ab845f"/><path d="M261.571,123.876a1.628,1.628,0,1,1-1.488-1.757,1.627,1.627,0,0,1,1.488,1.757"/><path d="M275.714,125.05a1.628,1.628,0,1,1-1.488-1.757,1.628,1.628,0,0,1,1.488,1.757"/><path d="M247.985,118.332h0a2.911,2.911,0,0,0-3.143,2.661l-.174,2.089a4.987,4.987,0,0,0,4.558,5.382l.545.045.863-6.914a2.913,2.913,0,0,0-2.649-3.263" fill="#bb9167"/><path d="M277.3,122.3a.549.549,0,0,1-.325-.108,4.68,4.68,0,0,0-5.175-.537.542.542,0,1,1-.485-.97,5.781,5.781,0,0,1,6.31.638.543.543,0,0,1-.325.977" fill="#665042"/><path d="M271.9,134.586s-4.63,5.879-10.828-.94Z" fill="#e6e6e6"/><path d="M263.943,101.565a24.236,24.236,0,0,0-17.267,4.712c-1.634,1.067-2.592.961-4.27-.238l0,.017c-4.026-3.133-11.825-4.09-17.236-1.2,5.408.448,8.489,2.487,9.893,4.417-4.875-.857-10.9,1.2-10.913,8.411,3.9-3.155,9.845-2.414,11.5,2.914-4.8-1.052-14.142,1.6-16.425,6.635,12.19-4.161,13.421,5.607,20.092,8.884,2.5,1.229,5.907,1.355,9.18,1.032a74.732,74.732,0,0,0,1.164-8.649l-.437-.036a4.987,4.987,0,0,1-4.557-5.383l.174-2.088a2.911,2.911,0,0,1,3.143-2.661,2.881,2.881,0,0,1,2.232,1.4l.006-.013c.028.062.062.115.091.174.016.03.031.058.046.088a1.543,1.543,0,0,0,1.339.934,25.592,25.592,0,0,0,4.231-.326.537.537,0,0,0,.124.36.546.546,0,0,0,.766.062c.13-.113,3.26-2.695,6.708.6a.543.543,0,1,0,.749-.786,6.879,6.879,0,0,0-3.05-1.787,17.3,17.3,0,0,0,7.608-6.167s3.971,5.23,9.075,5.245c.673-8.112-3.125-15.643-13.967-16.543" fill="#665042"/><path d="M249.02,134.238l.51-5.749-.305-.025a4.962,4.962,0,0,1-3.8-2.331c-.92.869-3.093,1.857-7.576-.763-5.792-3.385-12.752-1.9-15.226,1.01,9.093-1.377,10.7,6.8,16.693,9.736,2.5,1.231,5.907,1.356,9.18,1.032.189-.765.365-1.8.522-2.91" fill="#4f3e33"/><path d="M550.4,179.691a8.386,8.386,0,0,0-3.612.814,15.607,15.607,0,0,0-30.729-3.457,10.806,10.806,0,1,0-6.48,19.452H550.4a8.4,8.4,0,1,0,0-16.809" fill="none"/><path d="M194.579,81.557H155.12a25.015,25.015,0,0,0-49.136,3.29A15.313,15.313,0,0,0,81.761,96.762a8.456,8.456,0,1,0-4.085,15.859h80.945a9.936,9.936,0,1,0-3.433-19.263,25.063,25.063,0,0,0,.372-9.631h39.019a1.085,1.085,0,1,0,0-2.17" fill="none"/><path d="M345.337,74.753a3.358,3.358,0,0,0-1.623.416,12.482,12.482,0,1,0-23.342-6.151c0,.4.021.8.058,1.192a5.842,5.842,0,1,0-2.11,11.29h27.017a3.374,3.374,0,0,0,0-6.747" fill="none"/><path d="M510.5,74.5H462.575A15.12,15.12,0,0,0,447.5,89.575v23.849A15.12,15.12,0,0,0,462.576,128.5H477.5v14.707L492.38,128.5h18.044A15.12,15.12,0,0,0,525.5,113.424V89.277A15.12,15.12,0,0,0,510.424,74.2" fill="#8fc3ec"/><rect x="465.205" y="87.068" width="41.836" height="5.049" fill="#fff"/><rect x="465.205" y="98.608" width="41.836" height="5.049" fill="#fff"/><rect x="465.205" y="109.428" width="16.59" height="5.049" fill="#fff"/><path d="M155.5,46.5l47.935.032A15.12,15.12,0,0,1,218.5,61.617l-.016,23.947a14.963,14.963,0,0,1-14.77,15.066l-.214-.01-.01,14.6L188.639,100.5l-33-.012A15.157,15.157,0,0,1,140.5,85.4l.016-24.15A15.12,15.12,0,0,1,155.6,46.185" fill="#ffa940"/><rect x="158.205" y="64.068" width="41.836" height="5.049" fill="#fff"/><rect x="158.205" y="75.608" width="41.836" height="5.049" fill="#fff"/><g clip-path="url(#a)"><rect x="386.552" y="41.155" width="80.982" height="80.773" fill="#409ae1"/><path d="M434.855,92.1l-.1,4.444a3.2,3.2,0,0,0,2.206,3.031l1.417.517-.484,8.927h-22.3l-.961-8.157,2.136-.887a3.213,3.213,0,0,0,2.046-2.668l.367-5.207,7.059,1.122Z" fill="#e3c6b5"/><path d="M410.1,77.3h1.15a2.127,2.127,0,0,1,2.127,2.127V87.4a0,0,0,0,1,0,0h-2.194a3.21,3.21,0,0,1-3.21-3.21V79.43A2.127,2.127,0,0,1,410.1,77.3Z" transform="translate(-0.26 1.306) rotate(-0.182)" fill="#f7d7c4"/><path d="M444.154,77.194h2.194a0,0,0,0,1,0,0v7.967a2.127,2.127,0,0,1-2.127,2.127h-1.15a2.127,2.127,0,0,1-2.127-2.127V80.4A3.21,3.21,0,0,1,444.154,77.194Z" transform="translate(887.551 163.071) rotate(179.818)" fill="#e3c6b5"/><path d="M427.1,59.043a15.337,15.337,0,0,0-15.3,15.379l0,1.447.1,7.919c.813,7.726,7.357,14.341,15.294,14.319,8.471-.022,14.57-7.513,14.547-15.984l.729-7.783A15.338,15.338,0,0,0,427.1,59.043Z" fill="#f7d7c4"/><path d="M443.651,81.454l-2.083-2.593c-.807-2.482-4.261-3.01-4.261-3.01l-3.55-.459c-2.164.006-3.749,2.913-3.307,5.032l.847,2.849a1.808,1.808,0,0,1-1.765,2.178h-.4a1.485,1.485,0,0,0-1.482,1.489l.015,6.61,0,1.248a5.78,5.78,0,0,1-1.47,3.892l7.062-1.164,1.5-1.437a16.426,16.426,0,0,0,7.656-12.384Z" fill="#e3c6b5"/><path d="M423.888,59.043h6.529a12.074,12.074,0,0,1,12.074,12.074V85.558a12.55,12.55,0,0,1-12.55,12.55h-6.529a11.6,11.6,0,0,1-11.6-11.6V71.116a12.074,12.074,0,0,1,12.074-12.074Z" transform="translate(-0.209 1.147) rotate(-0.154)" fill="none"/><path d="M417.1,99.326l-15.439,3.711a8.314,8.314,0,0,0-6.176,6.3L392.875,121.2h66.778l-2.064-12.029a8.311,8.311,0,0,0-6.288-6.686L436.488,99,435,100.565a11.514,11.514,0,0,1-8.6,3.588h0a11.514,11.514,0,0,1-8.057-3.533Z" fill="#106ebe"/><path d="M415.712,76.367a6.378,6.378,0,0,1,6.956-.019" fill="none" stroke="#665042" stroke-linecap="round" stroke-miterlimit="10" stroke-width="1.095"/><path d="M431.423,76.324a6.38,6.38,0,0,1,6.956-.018" fill="none" stroke="#665042" stroke-linecap="round" stroke-miterlimit="10" stroke-width="1.095"/><path d="M419.879,89.407v6.382a2.812,2.812,0,0,0,1.574,2.46,12,12,0,0,0,5.669,1.235,11.362,11.362,0,0,0,5-.96,2.812,2.812,0,0,0,1.653-2.5v-6.4L431.759,94.9a3.123,3.123,0,0,1-2.906,1.773h-4.166a3.11,3.11,0,0,1-2.942-1.859Z" fill="#bb9167"/><path d="M419.879,89.407l.185-.095a9.377,9.377,0,0,1,4.287-1.046h4.585a9.412,9.412,0,0,1,4.84,1.354h0l-1.387-1.547a4.541,4.541,0,0,0-3.377-1.554h-4.561a4.539,4.539,0,0,0-3.377,1.555Z" fill="#bb9167"/><path d="M424.573,90.079h5.844a0,0,0,0,1,0,0v.472a1.745,1.745,0,0,1-1.745,1.745h-4.1a0,0,0,0,1,0,0V90.079A0,0,0,0,1,424.573,90.079Z" fill="#f7d7c4"/><path d="M422.312,90.079h0a38.983,38.983,0,0,0,9.66,0l.021,0" fill="none" stroke="#cb8c84" stroke-linecap="round" stroke-miterlimit="10" stroke-width="0.605"/><circle cx="419.166" cy="78.479" r="1.341" fill="#282828"/><circle cx="434.795" cy="78.503" r="1.341" fill="#282828"/><path d="M442.5,71.74V82.594h0a.974.974,0,0,1-.973-.933c-.18-4.255-1.712-21.609-14.738-21.609-12.977,0-14.457,16.353-14.623,20.47a.974.974,0,0,1-.974.932h-.122V71.74c0-4.63,2.613-8.5,5.088-11.123a11.914,11.914,0,0,1,8.674-3.722h4.536a11.842,11.842,0,0,1,8.882,3.947A16.227,16.227,0,0,1,442.5,71.74Z" fill="#665042"/><path d="M415.773,65.225A35.075,35.075,0,0,0,436.136,61.4a16.885,16.885,0,0,0-6.424-2.956l-10.177,1.007Z" fill="#665042"/><path d="M431.423,62.628s-6.245,3.537-10.916,4.276c7.559,0,13.436-2.175,14.394-5.756S431.423,62.628,431.423,62.628Z" fill="#665042"/></g></svg>