<svg xmlns="http://www.w3.org/2000/svg" viewBox="0 0 500 350"><title>swimlane-ml-transform-data</title><path d="M319.974,284.421l49.984-78.8-49.984-78.8-1.7,1.1,49.282,77.7-49.282,77.7Z" fill="#666"/><path d="M85.7,344.592l-41.87-19.326a2.082,2.082,0,0,1-1.2-1.793,1.967,1.967,0,0,1,1.2-1.793L85.7,302.353a2.124,2.124,0,0,1,1.9.1,1.954,1.954,0,0,1,.9,1.694V342.7a2.217,2.217,0,0,1-.9,1.694,2.027,2.027,0,0,1-1.1.3A1.189,1.189,0,0,1,85.7,344.592Z" fill="#69afe5"/><path d="M88.5,323.791v19.426a2.214,2.214,0,0,1-.9,1.693,2.031,2.031,0,0,1-1.1.3,2.953,2.953,0,0,1-.9-.2L43.7,325.684a2.081,2.081,0,0,1-1.2-1.793v-.1Z" fill="#8ac5ed"/><path d="M168.7,147.346l-41.87-19.326a2.082,2.082,0,0,1-1.2-1.793,1.967,1.967,0,0,1,1.2-1.793l41.87-19.327a2.124,2.124,0,0,1,1.9.1,1.954,1.954,0,0,1,.9,1.694v38.552a2.217,2.217,0,0,1-.9,1.694,2.027,2.027,0,0,1-1.1.3A1.189,1.189,0,0,1,168.7,147.346Z" fill="#69afe5"/><path d="M171.5,125.791v19.426a2.214,2.214,0,0,1-.9,1.693,2.031,2.031,0,0,1-1.1.3,2.953,2.953,0,0,1-.9-.2L126.7,127.684a2.081,2.081,0,0,1-1.2-1.793v-.1Z" fill="#8ac5ed"/><path d="M282.7,187.892l-41.87-19.326a1.939,1.939,0,0,1,0-3.587l41.87-19.326a2.124,2.124,0,0,1,1.9.1,1.954,1.954,0,0,1,.9,1.694V186a2.217,2.217,0,0,1-.9,1.694,2.027,2.027,0,0,1-1.1.3A1.2,1.2,0,0,1,282.7,187.892Z" fill="#69afe5"/><path d="M285.5,166.791v19.426a2.214,2.214,0,0,1-.9,1.693,2.031,2.031,0,0,1-1.1.3,2.953,2.953,0,0,1-.9-.2L240.7,168.684a2.081,2.081,0,0,1-1.2-1.793v-.1Z" fill="#8ac5ed"/><path d="M76.695,154.021,34.825,134.7a1.939,1.939,0,0,1,0-3.587l41.87-19.326a2.124,2.124,0,0,1,1.9.1,1.954,1.954,0,0,1,.9,1.694v38.552a2.217,2.217,0,0,1-.9,1.694,2.027,2.027,0,0,1-1.1.3A1.2,1.2,0,0,1,76.695,154.021Z" fill="#69afe5"/><path d="M80.5,132.791v19.426a2.214,2.214,0,0,1-.9,1.693,2.033,2.033,0,0,1-1.1.3,2.953,2.953,0,0,1-.9-.2L35.7,134.684a2.081,2.081,0,0,1-1.2-1.793v-.1Z" fill="#8ac5ed"/><path d="M177.5,236.791h41v-41h-41Z" fill="#ffcb40"/><path d="M218.5,196.358l-19.733,19.625L218.5,237.1Z" fill="#e5a600"/><path d="M239.7,263.2l-41.87-19.326a1.938,1.938,0,0,1,0-3.586l41.87-19.327a2.124,2.124,0,0,1,1.9.1,1.955,1.955,0,0,1,.9,1.694V261.31a2.217,2.217,0,0,1-.9,1.694,2.027,2.027,0,0,1-1.1.3A.808.808,0,0,1,239.7,263.2Z" fill="#69afe5"/><path d="M242.5,241.791v19.426a2.214,2.214,0,0,1-.9,1.693,2.033,2.033,0,0,1-1.1.3,2.953,2.953,0,0,1-.9-.2L197.7,243.684a2.081,2.081,0,0,1-1.2-1.793v-.1Z" fill="#8ac5ed"/><path d="M82.5,101.791h41v-41h-41Z" fill="#ffcb40"/><path d="M123.5,61.274,103.667,80.9l19.833,21.12Z" fill="#e5a600"/><path d="M121.5,266.791h41v-41h-41Z" fill="#ffcb40"/><path d="M162.5,226.244l-19.833,19.625L162.5,266.988Z" fill="#e5a600"/><path d="M33.5,264.791h41v-41h-41Z" fill="#ffcb40"/><path d="M74.5,223.555,54.667,243.18,74.5,264.3Z" fill="#e5a600"/><path d="M102.5,189.791h41v-41h-41Z" fill="#ffcb40"/><path d="M143.5,149.338l-19.833,19.625L143.5,190.082Z" fill="#e5a600"/><path d="M305.651,205.624c0-32.875,2.9-81.688,11.018-81.688s11.018,48.813,11.018,81.688-2.9,81.687-11.018,81.687S305.651,238.5,305.651,205.624Zm2,0c0,53.1,5.81,79.7,9.015,79.7s9.015-26.6,9.015-79.7-5.81-79.7-9.015-79.7S307.654,152.626,307.654,205.624Z" fill="#666"/><path d="M275.5,241.791h41v-41h-41Z" fill="#ffcb40"/><path d="M316.5,200.842l-19.733,19.625L316.5,241.586Z" fill="#e5a600"/><path d="M129.7,251.946,87.825,232.62a2.082,2.082,0,0,1-1.2-1.793,1.967,1.967,0,0,1,1.2-1.793l41.87-19.327a2.126,2.126,0,0,1,1.9.1,1.953,1.953,0,0,1,.9,1.694v38.552a2.22,2.22,0,0,1-.9,1.694,2.032,2.032,0,0,1-1.1.3A1.068,1.068,0,0,1,129.7,251.946Z" fill="#69afe5"/><path d="M132.5,230.791v19.426a2.214,2.214,0,0,1-.9,1.693,2.033,2.033,0,0,1-1.1.3,2.953,2.953,0,0,1-.9-.2L87.7,232.684a2.081,2.081,0,0,1-1.2-1.793v-.1Z" fill="#8ac5ed"/><path d="M109.5,250.791h-27" fill="none" stroke="#b2b2b2" stroke-miterlimit="10" stroke-width="2" stroke-dasharray="3 3"/><path d="M262.5,212.791h-40" fill="none" stroke="#b2b2b2" stroke-miterlimit="10" stroke-width="2" stroke-dasharray="3 3"/><path d="M183.5,125.791h31" fill="none" stroke="#b2b2b2" stroke-miterlimit="10" stroke-width="2" stroke-dasharray="3 3"/><path d="M466.5,4.791V170.509c0,20.051-20.5,36.282-45.828,36.282H370.5" fill="none" stroke="#666" stroke-miterlimit="10" stroke-width="2" stroke-dasharray="3 3"/></svg>