<svg width="636" height="300" viewBox="0 0 636 300" fill="none" xmlns="http://www.w3.org/2000/svg">
<path d="M418.72 20.7598H326.66C323.39 20.7598 320.74 23.4098 320.74 26.6798V216.61C320.74 219.88 323.39 222.53 326.66 222.53H418.72C421.99 222.53 424.64 219.88 424.64 216.61V26.6798C424.64 23.4098 421.99 20.7598 418.72 20.7598Z" fill="#E6E6E6"/>
<path d="M417.361 20.7598H348.061L423.001 89.3298V26.3998C423.001 23.2798 420.471 20.7598 417.361 20.7598Z" fill="url(#paint0_linear)"/>
<path d="M413.91 3.22998H331.02C324.07 3.22998 318.43 8.86998 318.43 15.82V222.39C318.43 229.34 324.07 234.98 331.02 234.98H413.91C420.86 234.98 426.5 229.34 426.5 222.39V15.82C426.5 8.85998 420.86 3.22998 413.91 3.22998ZM421.85 214.63C421.85 217.67 419.39 220.13 416.35 220.13H328.94C325.9 220.13 323.44 217.67 323.44 214.63V27.3C323.44 24.26 325.9 21.8 328.94 21.8H416.35C419.39 21.8 421.85 24.26 421.85 27.3V214.63Z" fill="#444444"/>
<path d="M385.58 226.15H360.98C359.94 226.15 359.1 226.99 359.1 228.03C359.1 229.07 359.94 229.91 360.98 229.91H385.58C386.62 229.91 387.46 229.07 387.46 228.03C387.46 227 386.62 226.15 385.58 226.15Z" fill="#737373"/>
<path d="M385.58 9.25H360.98C359.94 9.25 359.1 10.09 359.1 11.13C359.1 12.17 359.94 13.01 360.98 13.01H385.58C386.62 13.01 387.46 12.17 387.46 11.13C387.46 10.09 386.62 9.25 385.58 9.25Z" fill="#737373"/>
<path d="M338.24 16.99C339.421 16.99 340.38 16.0319 340.38 14.85C340.38 13.6681 339.421 12.71 338.24 12.71C337.058 12.71 336.1 13.6681 336.1 14.85C336.1 16.0319 337.058 16.99 338.24 16.99Z" fill="#737373"/>
<path d="M175.28 47.48H81.4798C79.1498 47.48 77.2598 49.43 77.2598 51.83V247.41C77.2598 249.81 79.1498 251.76 81.4798 251.76H175.28C177.61 251.76 179.5 249.81 179.5 247.41V51.83C179.51 49.43 177.62 47.48 175.28 47.48Z" fill="#E6E6E6"/>
<path d="M178.9 53.4699C178.9 51.0799 176.97 49.1499 174.58 49.1499H99.9902L178.9 121.36V53.4699Z" fill="url(#paint1_linear)"/>
<path d="M550.36 63.9302H457.56C454.04 63.9302 451.18 66.7902 451.18 70.3102V263.72C451.18 267.24 454.04 270.1 457.56 270.1H550.36C553.88 270.1 556.74 267.24 556.74 263.72V70.3202C556.74 66.7902 553.89 63.9302 550.36 63.9302Z" fill="#E6E6E6"/>
<path d="M559.34 139.87V63.4199H469.49L559.34 139.87Z" fill="url(#paint2_linear)"/>
<path d="M137.851 144.02H93.8814C92.6714 144.02 91.6914 143.04 91.6914 141.83V76.71C91.6914 75.5 92.6714 74.52 93.8814 74.52H137.851C139.061 74.52 140.041 75.5 140.041 76.71V141.84C140.031 143.05 139.051 144.02 137.851 144.02Z" fill="#8FC6E5"/>
<path d="M371.72 153.8C395.214 153.8 414.26 134.754 414.26 111.26C414.26 87.766 395.214 68.7202 371.72 68.7202C348.226 68.7202 329.18 87.766 329.18 111.26C329.18 134.754 348.226 153.8 371.72 153.8Z" stroke="#939393" stroke-width="1.5557" stroke-miterlimit="10"/>
<path d="M371.72 144.89C390.293 144.89 405.35 129.833 405.35 111.26C405.35 92.6866 390.293 77.6299 371.72 77.6299C353.147 77.6299 338.09 92.6866 338.09 111.26C338.09 129.833 353.147 144.89 371.72 144.89Z" stroke="#939393" stroke-width="1.5557" stroke-miterlimit="10"/>
<path d="M371.72 136C385.384 136 396.46 124.924 396.46 111.26C396.46 97.5965 385.384 86.52 371.72 86.52C358.057 86.52 346.98 97.5965 346.98 111.26C346.98 124.924 358.057 136 371.72 136Z" stroke="#939393" stroke-width="1.5557" stroke-miterlimit="10"/>
<path d="M320.991 87.9302H227.831C224.411 87.9302 221.631 91.2402 221.631 95.3302V284.33C221.631 288.42 224.411 291.73 227.831 291.73H320.991C324.411 291.73 327.191 288.42 327.191 284.33V95.3302C327.191 91.2402 324.411 87.9302 320.991 87.9302Z" fill="#E6E6E6"/>
<path d="M320.99 87.96H236.82L327.19 164.86V94.16C327.19 90.74 324.41 87.96 320.99 87.96Z" fill="url(#paint3_linear)"/>
<path d="M241.951 150.65C247.789 150.65 252.521 145.917 252.521 140.08C252.521 134.242 247.789 129.51 241.951 129.51C236.113 129.51 231.381 134.242 231.381 140.08C231.381 145.917 236.113 150.65 241.951 150.65Z" fill="#FFB900"/>
<path d="M301.521 127.43C307.359 127.43 312.091 122.698 312.091 116.86C312.091 111.022 307.359 106.29 301.521 106.29C295.683 106.29 290.951 111.022 290.951 116.86C290.951 122.698 295.683 127.43 301.521 127.43Z" fill="#FFB900"/>
<path d="M241.951 251.6C247.789 251.6 252.521 246.868 252.521 241.03C252.521 235.192 247.789 230.46 241.951 230.46C236.113 230.46 231.381 235.192 231.381 241.03C231.381 246.868 236.113 251.6 241.951 251.6Z" fill="#FFB900"/>
<path d="M301.521 213.74C307.359 213.74 312.091 209.008 312.091 203.17C312.091 197.332 307.359 192.6 301.521 192.6C295.683 192.6 290.951 197.332 290.951 203.17C290.951 209.008 295.683 213.74 301.521 213.74Z" fill="#FFB900"/>
<path d="M302.201 116.35C302.201 116.35 275.621 126.11 241.291 140.24C344.771 144.78 241.961 241.53 241.961 241.53L301.511 203.18" stroke="#939393" stroke-width="1.5557" stroke-miterlimit="10" stroke-linejoin="bevel"/>
<path d="M131.12 115.82L138.31 137.95H161.58L142.75 151.63L149.94 173.77L131.12 160.09L112.29 173.77L119.48 151.63L100.65 137.95H123.92L131.12 115.82Z" stroke="#939393" stroke-width="1.5557" stroke-miterlimit="10" stroke-linecap="round" stroke-linejoin="round"/>
<path d="M318.4 87.3101V221.46C318.4 228.12 322.37 234.99 330.68 234.99H331.32L331.41 87.3101H318.4Z" fill="#C2C2C2"/>
<path d="M323.291 72.1602H228.791C226.221 72.1602 224.141 74.2402 224.141 76.8202V90.1002H327.951V76.8202C327.951 74.2402 325.861 72.1602 323.291 72.1602Z" fill="#939393"/>
<path d="M316.9 66.6699H234.34C225.27 66.6699 217.91 74.0299 217.91 83.0999V280.35C217.91 289.42 225.27 296.78 234.34 296.78H316.9C325.97 296.78 333.33 289.42 333.33 280.35V83.0899C333.33 74.0199 325.97 66.6699 316.9 66.6699ZM326.49 279.41C326.49 285.06 321.91 289.64 316.26 289.64H234.97C229.32 289.64 224.74 285.06 224.74 279.41V84.0499C224.74 78.3999 229.32 73.8199 234.97 73.8199H316.26C321.91 73.8199 326.49 78.3999 326.49 84.0499V279.41Z" fill="#444444"/>
<path d="M247.881 73.52V75.02C247.881 78.67 250.841 81.63 254.491 81.63H297.501C301.151 81.63 304.111 78.67 304.111 75.02V73.52H247.881Z" fill="#444444"/>
<path d="M288.239 78.4701C289.234 78.4701 290.039 77.6642 290.039 76.6701C290.039 75.676 289.234 74.8701 288.239 74.8701C287.245 74.8701 286.439 75.676 286.439 76.6701C286.439 77.6642 287.245 78.4701 288.239 78.4701Z" fill="#737373"/>
<path d="M270.12 78.2098H281.57C282.32 78.2098 282.92 77.5998 282.92 76.8598C282.92 76.1098 282.31 75.5098 281.57 75.5098H270.12C269.37 75.5098 268.77 76.1198 268.77 76.8598C268.77 77.5998 269.37 78.2098 270.12 78.2098Z" fill="#737373"/>
<path d="M294.01 287.03H257.58C256.98 287.03 256.5 286.55 256.5 285.95C256.5 285.35 256.98 284.87 257.58 284.87H294.01C294.61 284.87 295.09 285.35 295.09 285.95C295.09 286.55 294.61 287.03 294.01 287.03Z" fill="white"/>
<path d="M551.47 47.79H456.97C454.4 47.79 452.32 49.87 452.32 52.45V65.74H556.13V52.44C556.12 49.87 554.04 47.79 551.47 47.79Z" fill="#939393"/>
<path d="M545.07 42.29H462.51C453.44 42.29 446.08 49.65 446.08 58.72V255.97C446.08 265.04 453.44 272.4 462.51 272.4H545.07C554.14 272.4 561.5 265.04 561.5 255.97V58.72C561.5 49.65 554.14 42.29 545.07 42.29ZM554.67 255.04C554.67 260.69 550.09 265.27 544.44 265.27H463.15C457.5 265.27 452.92 260.69 452.92 255.04V59.68C452.92 54.03 457.5 49.45 463.15 49.45H544.44C550.09 49.45 554.67 54.03 554.67 59.68V255.04Z" fill="#444444"/>
<path d="M476.051 49.1401V50.6401C476.051 54.2901 479.011 57.2501 482.661 57.2501H525.671C529.321 57.2501 532.281 54.2901 532.281 50.6401V49.1401H476.051Z" fill="#444444"/>
<path d="M516.419 54.1C517.413 54.1 518.219 53.2941 518.219 52.3C518.219 51.3059 517.413 50.5 516.419 50.5C515.425 50.5 514.619 51.3059 514.619 52.3C514.619 53.2941 515.425 54.1 516.419 54.1Z" fill="#737373"/>
<path d="M498.289 53.8299H509.739C510.489 53.8299 511.089 53.2199 511.089 52.4799C511.089 51.7299 510.479 51.1299 509.739 51.1299H498.289C497.539 51.1299 496.939 51.7399 496.939 52.4799C496.939 53.2299 497.549 53.8299 498.289 53.8299Z" fill="#737373"/>
<path d="M522.19 262.66H485.76C485.16 262.66 484.68 262.18 484.68 261.58C484.68 260.98 485.16 260.5 485.76 260.5H522.19C522.79 260.5 523.27 260.98 523.27 261.58C523.27 262.18 522.79 262.66 522.19 262.66Z" fill="white"/>
<path d="M169.541 31.4502H86.6506C79.7006 31.4502 74.0605 37.0902 74.0605 44.0402V250.61C74.0605 257.56 79.7006 263.2 86.6506 263.2H169.541C176.491 263.2 182.131 257.56 182.131 250.61V44.0402C182.131 37.0902 176.491 31.4502 169.541 31.4502ZM177.491 242.86C177.491 245.9 175.031 248.36 171.991 248.36H84.5806C81.5406 248.36 79.0806 245.9 79.0806 242.86V55.5302C79.0806 52.4902 81.5406 50.0302 84.5806 50.0302H171.991C175.031 50.0302 177.491 52.4902 177.491 55.5302V242.86Z" fill="#444444"/>
<path d="M141.21 254.38H116.61C115.57 254.38 114.73 255.22 114.73 256.26C114.73 257.3 115.57 258.14 116.61 258.14H141.21C142.25 258.14 143.09 257.3 143.09 256.26C143.09 255.22 142.25 254.38 141.21 254.38Z" fill="#737373"/>
<path d="M141.21 37.48H116.61C115.57 37.48 114.73 38.32 114.73 39.36C114.73 40.4 115.57 41.24 116.61 41.24H141.21C142.25 41.24 143.09 40.4 143.09 39.36C143.09 38.32 142.25 37.48 141.21 37.48Z" fill="#737373"/>
<path d="M93.8802 45.2204C95.0621 45.2204 96.0202 44.2623 96.0202 43.0804C96.0202 41.8985 95.0621 40.9404 93.8802 40.9404C92.6983 40.9404 91.7402 41.8985 91.7402 43.0804C91.7402 44.2623 92.6983 45.2204 93.8802 45.2204Z" fill="#737373"/>
<path d="M539.991 195.69C538.751 193.83 526.951 173.34 525.501 170.85C524.051 168.37 521.981 167.54 519.291 167.54C518.611 167.54 517.131 167.54 515.171 167.54C509.751 167.54 499.831 167.54 494.041 167.54C492.081 167.54 490.601 167.54 489.921 167.54C487.231 167.54 485.161 168.37 483.711 170.85C482.261 173.33 470.461 193.83 469.221 195.69C467.981 197.55 467.981 199.83 470.051 203.56C472.121 207.29 482.471 225.5 483.711 227.78C484.951 230.06 486.811 231.4 489.921 231.4C490.611 231.4 492.241 231.4 494.351 231.4C501.691 231.4 514.861 231.4 514.861 231.4C516.971 231.4 518.601 231.4 519.291 231.4C522.391 231.4 524.261 230.05 525.501 227.78C526.741 225.5 537.091 207.29 539.161 203.56C541.231 199.83 541.231 197.56 539.991 195.69ZM520.711 216.08H513.881L504.641 200.06L495.401 216.08H488.571L497.881 199.47L488.571 182.86H495.501L504.641 198.88L513.781 182.86H520.711L511.401 199.47L520.711 216.08Z" fill="#4393D4"/>
<path d="M539.991 114.95C538.751 113.09 526.951 92.5998 525.501 90.1098C524.051 87.6298 521.981 86.7998 519.291 86.7998C518.611 86.7998 517.131 86.7998 515.171 86.7998C509.751 86.7998 499.831 86.7998 494.041 86.7998C492.081 86.7998 490.601 86.7998 489.921 86.7998C487.231 86.7998 485.161 87.6298 483.711 90.1098C482.261 92.5898 470.461 113.09 469.221 114.95C467.981 116.81 467.981 119.09 470.051 122.82C472.121 126.55 482.471 144.76 483.711 147.04C484.951 149.32 486.811 150.66 489.921 150.66C490.611 150.66 492.241 150.66 494.351 150.66C501.691 150.66 514.861 150.66 514.861 150.66C516.971 150.66 518.601 150.66 519.291 150.66C522.391 150.66 524.261 149.31 525.501 147.04C526.741 144.76 537.091 126.55 539.161 122.82C541.231 119.09 541.231 116.81 539.991 114.95ZM520.711 135.34H513.881L504.641 119.32L495.401 135.34H488.571L497.881 118.73L488.571 102.12H495.501L504.641 118.14L513.781 102.12H520.711L511.401 118.73L520.711 135.34Z" stroke="#939393" stroke-width="1.5" stroke-miterlimit="10" stroke-linecap="round" stroke-linejoin="round"/>
<defs>
<linearGradient id="paint0_linear" x1="385.529" y1="89.333" x2="385.529" y2="20.7602" gradientUnits="userSpaceOnUse">
<stop offset="0.0994" stop-color="#E6E6E6"/>
<stop offset="0.9511" stop-color="white"/>
</linearGradient>
<linearGradient id="paint1_linear" x1="139.446" y1="121.365" x2="139.446" y2="49.1543" gradientUnits="userSpaceOnUse">
<stop offset="0.0994" stop-color="#E6E6E6"/>
<stop offset="0.9511" stop-color="white"/>
</linearGradient>
<linearGradient id="paint2_linear" x1="514.413" y1="139.873" x2="514.413" y2="63.4153" gradientUnits="userSpaceOnUse">
<stop offset="0.0994" stop-color="#E6E6E6"/>
<stop offset="0.9511" stop-color="white"/>
</linearGradient>
<linearGradient id="paint3_linear" x1="282.005" y1="164.86" x2="282.005" y2="87.9612" gradientUnits="userSpaceOnUse">
<stop offset="0.0994" stop-color="#E6E6E6"/>
<stop offset="0.9511" stop-color="white"/>
</linearGradient>
</defs>
</svg>
