<svg width="636" height="300" viewBox="0 0 636 300" fill="none" xmlns="http://www.w3.org/2000/svg">
<path d="M612.563 255.931H11.6128C10.568 255.908 9.57195 255.485 8.83102 254.747C8.0901 254.01 7.66107 253.017 7.63281 251.972C7.63863 250.92 8.06051 249.914 8.80628 249.172C9.55204 248.43 10.5611 248.014 11.6128 248.014H612.563C613.087 248.003 613.607 248.098 614.093 248.293C614.58 248.488 615.022 248.778 615.393 249.148C615.765 249.517 616.058 249.958 616.255 250.443C616.453 250.928 616.551 251.448 616.543 251.972C616.537 253.024 616.115 254.031 615.369 254.772C614.624 255.514 613.615 255.931 612.563 255.931Z" fill="#B2B2B2"/>
<path d="M350 231.12V215H299V231.12C299 240.42 288.71 244.555 284.03 246L284 251H367V246C362.32 244.555 350 240.422 350 231.12Z" fill="#A6A6A6"/>
<path d="M457 193V46.821C457 44.7468 456.176 42.7577 454.709 41.291C453.242 39.8243 451.253 39.0003 449.179 39H201.821C199.747 39.0003 197.758 39.8243 196.291 41.291C194.824 42.7577 194 44.7468 194 46.821V193H457Z" fill="#4B4A4B"/>
<path d="M324.255 47.548C325.354 47.548 326.246 46.6566 326.246 45.557C326.246 44.4574 325.354 43.566 324.255 43.566C323.155 43.566 322.264 44.4574 322.264 45.557C322.264 46.6566 323.155 47.548 324.255 47.548Z" fill="#767576"/>
<path d="M194 190V208.179C194 210.253 194.824 212.242 196.291 213.709C197.758 215.176 199.747 216 201.821 216H449.179C451.253 216 453.242 215.176 454.709 213.709C456.176 212.242 457 210.253 457 208.179V190H194Z" fill="#A6A6A6"/>
<path d="M367 246H284V251H367V246Z" fill="#737373"/>
<path d="M350 230V216H299V230H350Z" fill="#737373"/>
<path d="M324.5 206C326.985 206 329 203.985 329 201.5C329 199.015 326.985 197 324.5 197C322.015 197 320 199.015 320 201.5C320 203.985 322.015 206 324.5 206Z" fill="#737373"/>
<path d="M445 52H206V181H445V52Z" fill="#8FC3EC"/>
<path d="M392.051 103H206.123L205.879 80.0001H391.806C394.729 79.9612 397.563 81.0116 399.754 82.9467C401.946 84.8819 403.339 87.5633 403.663 90.4691C403.797 92.0709 403.596 93.6831 403.072 95.2028C402.548 96.7226 401.713 98.1164 400.62 99.2955C399.528 100.475 398.202 101.413 396.726 102.051C395.251 102.689 393.658 103.012 392.051 103Z" fill="#B3D6F2"/>
<path d="M431.685 80H334.672C333.484 80.0253 332.322 79.6433 331.38 78.9173C330.438 78.1914 329.773 77.1652 329.494 76.009C329.355 75.2633 329.385 74.4958 329.581 73.763C329.777 73.0302 330.135 72.3506 330.629 71.7742C331.122 71.1979 331.738 70.7393 332.432 70.4323C333.125 70.1253 333.879 69.9776 334.637 70H431.649C432.838 69.9746 434 70.3565 434.942 71.0825C435.884 71.8085 436.549 72.8348 436.827 73.991C436.967 74.7367 436.937 75.5042 436.741 76.237C436.545 76.9698 436.187 77.6494 435.694 78.2258C435.201 78.8022 434.585 79.2607 433.891 79.5678C433.197 79.8748 432.444 80.0225 431.685 80Z" fill="#B3D6F2"/>
<path d="M205 99.634L214.706 96H232.188L240.5 91.25L250 87.688L263.063 77H268.286L271.932 75H284.184L302.85 69.167L319.184 87.833C319.184 87.833 327.35 86.667 328.517 87.833C329.684 88.999 339.017 86.667 339.017 86.667C339.017 86.667 344.85 96 346.017 96H355.508L365.794 105H369.6L387.6 117H394.8L404.4 111L412.8 109.8C412.8 109.8 416.4 117 421.2 117C426 117 430.8 115.8 433.2 117C435.6 118.2 446 121.8 446 121.8V182H205V99.634Z" fill="#8867C8"/>
<path d="M233.292 144.961C233.292 144.961 219.923 129.161 215.062 125.515C210.201 121.869 210.201 113.362 210.201 113.362C210.201 113.362 216.277 108.501 217.493 108.501C218.709 108.501 219.923 112.147 218.708 114.577C217.493 117.007 219.923 120.654 219.923 120.654C219.923 120.654 218.708 114.577 221.139 115.793C223.57 117.009 226 114.577 226 110.931V102.424L229.646 99.994C229.646 99.994 230.861 112.147 233.292 114.577C235.723 117.007 244.23 124.3 244.23 124.3C244.23 124.3 240.584 112.147 240.584 110.931C240.584 109.715 245.445 104.855 245.445 104.855C245.445 104.855 247.876 113.362 251.522 114.577C255.168 115.792 263.675 104.855 263.675 104.855L273.398 113.362L258.814 141.315L233.292 144.961Z" fill="#7359AE"/>
<path d="M292.75 114C292.75 114 279 97.75 279 95.25V85.25L281.5 87.75C281.5 87.75 282.75 97.75 285.25 99C287.75 100.25 301.5 91.5 301.5 91.5L297.75 99H302.75L307.75 97.75L297.75 114H292.75Z" fill="#7359AE"/>
<path d="M318.538 95C318.538 95 317.308 103.615 316.077 104.846C314.846 106.077 311.154 113.462 311.154 113.462L321 122.077V111H322.231L323.462 95H318.538Z" fill="#7359AE"/>
<path d="M345.46 100.3L338.776 106.073L331.484 120.657L335.13 124.303C335.13 124.303 344.853 114.58 346.068 114.58C347.283 114.58 345.46 100.3 345.46 100.3Z" fill="#7359AE"/>
<path d="M363.14 156.383L359.494 135.723L363.14 126H368.001V134.507L372.862 136.938L369.216 149.091L371.647 169.752L363.14 156.383Z" fill="#7359AE"/>
<path d="M380.096 153.307L378.881 137.507L382.527 129H387.388L383.742 137.507L382.527 156.952L380.096 153.307Z" fill="#7359AE"/>
<path d="M403.189 125.515L412.911 131.592L411.695 136.453C411.695 136.453 410.48 147.391 410.48 148.607C410.48 149.823 406.835 163.19 406.835 163.19L410.48 177.774L403.189 171.698L395.896 153.468L398.327 132.807L395.896 130.377L398.327 119.439L403.189 125.515Z" fill="#7359AE"/>
<path d="M427.54 187C427.54 187 420.34 166.6 420.34 165.4C420.34 164.2 421.54 146.2 421.54 146.2L425.14 148.6C425.14 148.6 423.94 155.8 425.14 158.2C426.34 160.6 431.14 169 431.14 169H434.74L441.94 187H427.54Z" fill="#7359AE"/>
<path d="M394.619 189.6L360.547 152.621L353.56 149.127L338.42 132.822L329.101 122.214L306.974 113.022L301.151 108.364L284.851 116.516L276.518 117.358L269.418 121H267.571L259.091 127.058C259.091 127.058 251.821 129.481 250.61 129.481C249.399 129.481 239.71 136.75 239.71 136.75L234.864 137.961C234.864 137.961 231.229 142.808 226.383 142.808C221.537 142.808 198.518 152.5 198.518 152.5L204.571 184L305.001 185H305.027L394.619 189.6Z" fill="#7359AE"/>
<path d="M230.408 96.348L234.257 101.209L237.903 98.778L240.334 91.486L230.408 96.348Z" fill="#A38CDD"/>
<path d="M250.354 87.84L244.277 99.9941L250.354 101.209L254 90.2711V84.8571L250.354 87.84Z" fill="#A38CDD"/>
<path d="M283.355 74.708L279.709 82H283.355L287.001 78.354V82H295.508L302.8 85.646L308.877 95.369C308.877 95.369 308.877 92.938 310.092 92.938C311.307 92.938 307.662 79.569 307.662 79.569L302.801 68.631L283.355 74.708Z" fill="#A38CDD"/>
<path d="M262 101.6C263.208 101.6 270.458 92 270.458 92H272L273.25 99.292L275.75 102.938L278.25 107.799C278.25 107.799 283.25 111.445 287 112.661C290.75 113.877 294.5 111.445 294.5 111.445L300.75 107.799C300.75 107.799 300.75 112.661 302 112.661C303.25 112.661 305.75 110.23 305.75 110.23L312 112.661L313.25 115.091L317 116.307C317 116.307 319.5 119.952 322 119.952C324.53 120.147 327.038 120.553 329.5 121.168C329.5 121.168 327 127.244 328.25 129.675C329.5 132.106 333.25 141.828 333.25 141.828L320.75 140.613L312 139.4V119.952L309.5 122.383L305.75 138.183C305.75 138.183 302 132.107 302 129.676V124.3L301 120.654V116H297.042L291 122V117.2L282.542 124.4C282.542 124.4 282.542 118.4 278.917 118.4C275.292 118.4 271.667 114.8 271.667 114.8C271.667 114.8 266.833 114.8 264.417 113.6C263.729 113.271 263.141 112.764 262.716 112.131C262.291 111.497 262.043 110.762 262 110V101.6Z" fill="#A38CDD"/>
<path d="M347.342 96L339.93 112.059L341.166 113.294L343.636 117H354V113C354 110.333 352.75 106.333 354 106.333C354.96 106.184 355.841 105.714 356.5 105L364 113C364 113 365.25 117 364 118.333C363.28 119.045 362.837 119.991 362.75 121H366.5L369 115.667V121.714C369 121.714 374.143 124.286 375.429 121.714C376.715 119.142 376.418 109.945 376.418 109.945L371.518 106.681L369 111.429V105H365.143L354.857 96H347.342Z" fill="#A38CDD"/>
<path d="M394.277 117.008L396.708 120.654L401.569 124.3L400.354 118.223L404 115.793V110.931L394.277 117.008Z" fill="#A38CDD"/>
<path d="M421.909 116.631C421.909 116.631 419.478 123.923 418.263 125.139L415.832 127.569C415.832 127.569 417.048 130 418.263 130H424.339L427.985 131.215L436.493 132.431L445 128.582V121.493L432.847 115.416L421.909 116.631Z" fill="#A38CDD"/>
<path d="M338.459 132C338.459 132 334.602 141 335.888 141H342.316L346.173 150H353.888L351.316 141L342.316 133.286L338.459 132Z" fill="#A38CDD"/>
<path d="M361 153V160.292L365.861 165.153C366.413 166.733 366.82 168.361 367.077 170.015C367.077 171.23 369.507 173.661 368.292 174.876C367.183 175.836 365.958 176.653 364.646 177.307C364.646 177.307 380.446 187.029 382.876 187.029C385.306 187.029 401.106 189.46 401.106 189.46L388.952 176.091L384.091 172.445L380.445 163.938L376.799 166.369L371.938 162.723L370.723 157.861L364.646 153H361Z" fill="#A38CDD"/>
<path d="M342.877 98.778L340.446 86.625L332.367 88.07L325.862 86.625L319.786 87.84L318.57 95.132L321.001 97.563V103.639L324.647 104.855L329.508 97.563L331.222 92.421L342.877 98.778Z" fill="#A38CDD"/>
<path d="M445 51H206V56H445V51Z" fill="white"/>
<path d="M396 170H252V181H396V170Z" fill="#505050"/>
<path d="M225 245V122.058C225 120.717 224.467 119.43 223.518 118.482C222.57 117.533 221.283 117 219.942 117H41.058C39.7166 117 38.4302 117.533 37.4817 118.482C36.5332 119.43 36.0003 120.717 36 122.058V245H225Z" fill="#4B4A4B"/>
<path d="M239.715 251H21.9372C14.6782 251 13.4922 241 13.4922 241H248.159C248.159 241 245.344 251 239.715 251Z" fill="#737373"/>
<path d="M132 121H129V124H132V121Z" fill="#5D5F5E"/>
<path fill-rule="evenodd" clip-rule="evenodd" d="M45 224.44C45.0175 225.11 45.2902 225.748 45.7625 226.224C46.2348 226.7 46.871 226.978 47.541 227H212.041C212.561 227 213.076 226.897 213.556 226.698C214.037 226.499 214.473 226.207 214.841 225.839C215.208 225.472 215.5 225.035 215.699 224.555C215.898 224.074 216 223.559 216 223.039V128.049C216 128.036 215.995 128.024 215.986 128.014C215.976 128.005 215.964 128 215.951 128H45.2C45.147 128 45.0961 128.021 45.0586 128.059C45.0211 128.096 45 128.147 45 128.2V224" fill="#69AFE5"/>
<path d="M119 142H45V227H119V142Z" fill="black"/>
<path d="M54.0818 159.954C56.3771 159.954 58.2378 158.173 58.2378 155.977C58.2378 153.781 56.3771 152 54.0818 152C51.7865 152 49.9258 153.781 49.9258 155.977C49.9258 158.173 51.7865 159.954 54.0818 159.954Z" fill="#107C10"/>
<path d="M92 165H75V180H92V165Z" fill="#0078D7"/>
<path d="M83 180H75V187H83V180Z" fill="#0078D7"/>
<path d="M91 180H83V187H91V180Z" fill="#107C10"/>
<path d="M100 165H92V172H100V165Z" fill="#0078D7"/>
<path d="M108 165H101V172H108V165Z" fill="#0078D7"/>
<path d="M92 203H75V218H92V203Z" fill="#107C10"/>
<path d="M100 203H92V210H100V203Z" fill="#0078D7"/>
<path d="M108 203H101V210H108V203Z" fill="#0078D7"/>
<path d="M100 211H92V218H100V211Z" fill="white"/>
<path d="M108 211H101V218H108V211Z" fill="#2F2F2F"/>
<path d="M82 191H75V198H82V191Z" fill="#00188F"/>
<path d="M91 191H83V198H91V191Z" fill="#D83B01"/>
<path d="M99 191H92V198H99V191Z" fill="#5C2D91"/>
<path d="M108 191H100V198H108V191Z" fill="#107C10"/>
<path d="M108 150H75V163H108V150Z" fill="#0078D7"/>
<path d="M108 173H91V187H108V173Z" fill="#0078D7"/>
<path fill-rule="evenodd" clip-rule="evenodd" d="M216 218H45.0004V225.585C44.9948 225.902 45.0526 226.216 45.1705 226.51C45.2885 226.804 45.4641 227.072 45.687 227.297C45.91 227.522 46.1757 227.7 46.4686 227.821C46.7615 227.942 47.0756 228.003 47.3924 228H213.608C213.925 228.003 214.239 227.942 214.532 227.821C214.825 227.7 215.091 227.522 215.314 227.297C215.537 227.072 215.712 226.804 215.83 226.51C215.948 226.216 216.006 225.902 216 225.585V218Z" fill="black"/>
<path d="M57 163H50V168H57V163Z" fill="#0078D7"/>
<path d="M57 170H50V175H57V170Z" fill="#0078D7"/>
<path d="M57 177H50V182H57V177Z" fill="#A80000"/>
<path d="M57 184H50V189H57V184Z" fill="#0078D7"/>
<path d="M57 191H50V196H57V191Z" fill="#0078D7"/>
<path fill-rule="evenodd" clip-rule="evenodd" d="M216 128H157.1L216 217.5C216.042 217.5 216.042 128 216 128Z" fill="#8FC3EC"/>
<path fill-rule="evenodd" clip-rule="evenodd" d="M191.435 156.282C191.558 155.85 191.608 155.401 191.584 154.952C191.578 152.32 190.527 149.799 188.662 147.942C186.797 146.086 184.27 145.046 181.639 145.052C179.667 145.074 177.744 145.673 176.109 146.776C174.474 147.879 173.198 149.438 172.439 151.258C171.309 150.606 170.032 150.25 168.728 150.223C167.753 150.211 166.785 150.394 165.882 150.761C164.978 151.128 164.157 151.671 163.466 152.359C162.775 153.047 162.228 153.866 161.857 154.768C161.486 155.67 161.299 156.637 161.307 157.612C161.317 159.574 162.103 161.452 163.493 162.836C164.883 164.22 166.764 164.998 168.726 165H190.101C191.293 164.965 192.424 164.467 193.256 163.612C194.087 162.757 194.552 161.612 194.553 160.419C194.532 159.49 194.219 158.591 193.66 157.849C193.101 157.106 192.322 156.558 191.435 156.282Z" fill="white"/>
<path fill-rule="evenodd" clip-rule="evenodd" d="M179 180.984V218H156V202H157V195H166V202H167V209.999H172V182.103L179 180.984Z" fill="#0089DE"/>
<path fill-rule="evenodd" clip-rule="evenodd" d="M216 208V218H182V192H192V203H194V188H196V185H203V188H205V208H216Z" fill="#0089DE"/>
<path fill-rule="evenodd" clip-rule="evenodd" d="M145.805 202.176C145.597 199.876 145.483 197.469 145.483 195C145.483 186.5 146.804 178.738 148.848 173.466C151.689 173.183 154.47 172.469 157.096 171.348C153.401 169.817 149.444 169.02 145.445 169L144.645 162H144.214L143.585 169C139.569 169.015 135.595 169.814 131.885 171.351C134.511 172.472 137.293 173.186 140.135 173.469C142.179 178.738 143.5 186.5 143.5 195C143.5 197.469 143.386 199.873 143.178 202.176C141.398 202.262 139.647 202.658 138.005 203.348C139.569 204.009 141.235 204.4 142.93 204.504C142.461 209.146 141.314 213.695 139.525 218.004H140.641C142.218 214.156 143.27 210.114 143.769 205.986V218.015H145.213V205.973C145.711 210.104 146.763 214.15 148.342 218H149.458C147.669 213.691 146.522 209.142 146.053 204.5C147.748 204.396 149.413 204.005 150.977 203.344C149.334 202.656 147.584 202.26 145.805 202.176ZM145.213 184.016V173.7C146.057 173.684 146.888 173.645 147.698 173.578C146.499 176.958 145.666 180.458 145.213 184.016ZM141.284 173.582C142.095 173.649 142.925 173.688 143.769 173.704V184.004C143.315 180.451 142.482 176.957 141.284 173.582Z" fill="#0089DE"/>
<path d="M591 245V139.369C591 138.21 590.54 137.099 589.72 136.28C588.901 135.46 587.79 135 586.631 135H432.369C431.21 135 430.099 135.46 429.28 136.28C428.46 137.099 428 138.21 428 139.369V245H591Z" fill="#4B4A4B"/>
<path d="M451 144H437V234H451V144Z" fill="#750000"/>
<path d="M583 144H451V234H583V144Z" fill="#E27C37"/>
<path d="M583 234H574.681L521.477 144H583V234Z" fill="#EA8B4B"/>
<path d="M604.2 251H415.324C409.024 251 408 244 408 244H611.524C611.524 244 609.083 251 604.2 251Z" fill="#737373"/>
<path d="M511 139H508V141H511V139Z" fill="#5D5F5E"/>
<path d="M583 144H437V150H583V144Z" fill="#737373"/>
<path d="M447 154H440V161H447V154Z" fill="#D83B01"/>
<path d="M447 164H440V171H447V164Z" fill="#0872C4"/>
<path d="M447 173H440V180H447V173Z" fill="#107C10"/>
<path d="M447 183H440V190H447V183Z" fill="#BD3604"/>
<path d="M447 192H440V199H447V192Z" fill="#D83B01"/>
<path d="M447 202H440V209H447V202Z" fill="#0872C4"/>
<path d="M283 171H275V179H283V171Z" fill="#0078D7"/>
<path d="M303 171H295V179H303V171Z" fill="#5C2D91"/>
<path d="M313 171H305V179H313V171Z" fill="#737373"/>
<path d="M269.001 179.243C271.344 179.243 273.244 177.343 273.244 175C273.244 172.657 271.344 170.757 269.001 170.757C266.657 170.757 264.758 172.657 264.758 175C264.758 177.343 266.657 179.243 269.001 179.243Z" fill="#32145A"/>
<path d="M289.001 179.243C291.344 179.243 293.244 177.343 293.244 175C293.244 172.657 291.344 170.757 289.001 170.757C286.657 170.757 284.758 172.657 284.758 175C284.758 177.343 286.657 179.243 289.001 179.243Z" fill="#1AC3F3"/>
<path d="M319.001 179.243C321.344 179.243 323.244 177.343 323.244 175C323.244 172.657 321.344 170.757 319.001 170.757C316.657 170.757 314.758 172.657 314.758 175C314.758 177.343 316.657 179.243 319.001 179.243Z" fill="#107C10"/>
<path d="M333 171H325V179H333V171Z" fill="#0078D7"/>
<path d="M353 171H345V179H353V171Z" fill="#AF5443"/>
<path d="M363 171H355V179H363V171Z" fill="#737373"/>
<path d="M263 171H255V179H263V171Z" fill="#737373"/>
<path d="M383 171H375V179H383V171Z" fill="#0078D7"/>
<path d="M339.001 179.243C341.344 179.243 343.244 177.343 343.244 175C343.244 172.657 341.344 170.757 339.001 170.757C336.657 170.757 334.758 172.657 334.758 175C334.758 177.343 336.657 179.243 339.001 179.243Z" fill="#A6A6A6"/>
<path d="M369.001 179.243C371.344 179.243 373.244 177.343 373.244 175C373.244 172.657 371.344 170.757 369.001 170.757C366.657 170.757 364.758 172.657 364.758 175C364.758 177.343 366.657 179.243 369.001 179.243Z" fill="#32145A"/>
<path d="M389.001 179.243C391.344 179.243 393.244 177.343 393.244 175C393.244 172.657 391.344 170.757 389.001 170.757C386.657 170.757 384.758 172.657 384.758 175C384.758 177.343 386.657 179.243 389.001 179.243Z" fill="#1AC3F3"/>
</svg>
