<svg xmlns="http://www.w3.org/2000/svg" viewBox="0 0 636 350"><title>swimlane-what-are-extensions</title><path d="M323.079,143.4s1.184-2.013,1.334-2.417,2.787-1.38,3.259-1.541.987.646.987.646,1.018-.386,1.283.113,1.141,2.085.872,2.844-5.114,3.271-5.114,3.271Z" fill="#a68463"/><path d="M312.636,157.339c1.089.89,2.855.957,7.064-3.444,1.728-1.805,6.583-7.539,6.583-7.539l-3.264-3.248L311.71,153.766S311.98,156.8,312.636,157.339Z" fill="#0060c5"/><polygon points="445.495 116.201 431.588 120.282 433.165 125.988 447.466 124.093 445.495 116.201" fill="#5c2d91"/><rect x="401.651" y="189.15" width="16" height="31" rx="2.36" transform="translate(614.301 -205.002) rotate(90)" fill="#006761"/><rect x="397.219" y="162.866" width="14.833" height="3.5" transform="translate(385.214 -271.791) rotate(65.314)" fill="#008272"/><rect x="384.498" y="168.713" width="14.833" height="3.5" transform="translate(383.119 -256.828) rotate(65.314)" fill="#008272"/><rect x="384.968" y="139.896" width="16" height="31" rx="2.36" transform="translate(370.042 -266.559) rotate(65.314)" fill="#006761"/><rect x="316.149" y="51.712" width="108.924" height="110.537" transform="translate(-10.81 164.56) rotate(-24.686)" fill="#00a387"/><rect x="504.151" y="78.983" width="15" height="4" transform="translate(430.668 592.634) rotate(-90)" fill="#008272"/><rect x="518.151" y="78.983" width="15" height="4" transform="translate(444.668 606.634) rotate(-90)" fill="#008272"/><rect x="510.151" y="78.983" width="16" height="31" rx="2.36" transform="translate(423.668 612.634) rotate(-90)" fill="#006761"/><rect x="212.651" y="245.483" width="15" height="4" fill="#008272"/><rect x="212.651" y="259.483" width="15" height="4" fill="#008272"/><rect x="198.651" y="238.483" width="16" height="31" rx="2.36" fill="#006761"/><rect x="240.651" y="238.816" width="16" height="31" rx="2.36" fill="#006761"/><path d="M105.422,219.557c2.05-2.241,2.372-2.924,2.838-5.4.393-1.572.082-2.109-.52-1.5.817-1.472.083-2.722-.448-1.788a.68.68,0,0,0-.662-.928c-.423-.106-.46.648-.394.969-.382-.25-1.122-.28-1.265.9-.251,1-.567,1.075-.567,1.075-.066-.929-.555-1.356-1.086-1.029a40.858,40.858,0,0,1-.794,4.37c.071.322.036.463.1.8l-3.435,5.989,3.829.2Z" fill="#38a138"/><polygon points="105.136 221.311 101.102 218.937 100.362 220.119 104.354 222.642 105.136 221.311" fill="#e6e6e6"/><path d="M96.691,230.633a2.9,2.9,0,0,0-3.939.847,3.031,3.031,0,0,0,.612,4.123,2.931,2.931,0,0,0,4.077-.812A3.1,3.1,0,0,0,96.691,230.633Z" fill="#0d520d"/><polygon points="104.354 222.642 97.441 234.791 92.752 231.48 99.974 219.872 104.354 222.642" fill="#0d520d"/><path d="M64.357,305.011c.752,1.368.469,1.309.479,2.68l2.125.443c-.1-.941.3-1.46,1.743-.557Z" fill="#0d520d"/><path d="M240.867,312.483a4.017,4.017,0,0,1-3.829-4,3.927,3.927,0,0,1,3.829-4H584.133a3.847,3.847,0,0,1,3.829,4,3.93,3.93,0,0,1-3.829,4Z" fill="#b2b2b2"/><path d="M51.867,312.48a3.915,3.915,0,0,1-3.829-3.808,3.83,3.83,0,0,1,3.829-3.808H214.133a3.75,3.75,0,0,1,3.829,3.808,3.829,3.829,0,0,1-3.829,3.808Z" fill="#b2b2b2"/><path d="M94.867,312.48c-2.042,0-44.829-1.777-44.829-3.808,0-2.158,42.787-3.808,44.829-3.808" fill="#b2b2b2"/><rect x="97.651" y="199.483" width="111" height="109" fill="#008272"/><rect x="354.651" y="199.483" width="111" height="109" fill="#008272"/><rect x="243.651" y="199.483" width="111" height="109" fill="#00a387"/><rect x="464.651" y="199.483" width="111" height="109" fill="#00a387"/><rect x="464.651" y="90.483" width="111" height="109" fill="#008272"/><polygon points="392.939 315.983 357.409 193.794 359.848 192.591 361.635 192.564 397.523 315.983 392.939 315.983" fill="#40c5af"/><polygon points="391.252 315.983 355.721 193.794 359.948 192.564 395.835 315.983 391.252 315.983" fill="#004b50"/><polygon points="396.693 313.127 397.523 315.983 391.271 315.983 390.44 313.127 396.693 313.127" fill="#939393"/><path d="M346.006,210.1h16.456a1.312,1.312,0,1,0,0-2.608H346.006Z" fill="#40c5af"/><path d="M363.9,209.066a1.3,1.3,0,0,1-1.437,1.031H346.006v-1.031Z" fill="#00746a"/><path d="M350.226,225.287h16.455a1.312,1.312,0,1,0,0-2.608H350.226Z" fill="#40c5af"/><path d="M368.118,224.256a1.3,1.3,0,0,1-1.437,1.031H350.226v-1.031Z" fill="#00746a"/><path d="M354.445,240.477H370.9a1.312,1.312,0,1,0,0-2.608H354.445Z" fill="#40c5af"/><path d="M372.338,239.446a1.3,1.3,0,0,1-1.437,1.031H354.445v-1.031Z" fill="#00746a"/><path d="M358.665,255.667H375.12a1.312,1.312,0,1,0,0-2.608H358.665Z" fill="#40c5af"/><path d="M376.557,254.636a1.3,1.3,0,0,1-1.437,1.031H358.665v-1.031Z" fill="#00746a"/><path d="M362.884,270.857H379.34a1.312,1.312,0,1,0,0-2.608H362.884Z" fill="#40c5af"/><path d="M380.777,269.826a1.3,1.3,0,0,1-1.437,1.031H362.884v-1.031Z" fill="#00746a"/><path d="M367.947,286.047H384.4a1.312,1.312,0,1,0,0-2.608H367.947Z" fill="#40c5af"/><path d="M385.84,285.016a1.3,1.3,0,0,1-1.437,1.031H367.947v-1.031Z" fill="#00746a"/><path d="M372.167,301.237h16.455a1.312,1.312,0,1,0,0-2.608H372.167Z" fill="#40c5af"/><path d="M390.059,300.206a1.3,1.3,0,0,1-1.437,1.031H372.167v-1.031Z" fill="#00746a"/><polygon points="377.749 315.983 342.219 193.794 344.611 192.591 346.445 192.564 382.333 315.983 377.749 315.983" fill="#40c5af"/><polygon points="376.062 315.983 340.531 193.794 344.758 192.564 380.645 315.983 376.062 315.983" fill="#004b50"/><polygon points="381.395 313.127 382.226 315.983 375.973 315.983 375.143 313.127 381.395 313.127" fill="#939393"/><path d="M63.082,306.842c1,1.2.713,1.193,1.132,2.538l2.028.019c-.138-.9.157-1.489,1.612-.885Z" fill="#0d520d"/><path d="M65.284,302.615l-.846,2.093c-.113.579.254.951.909,1.384l4.984,2.482a14.025,14.025,0,0,0,3.321,1.1l2.983.579c1.563.3,1.168-.69.911-.888a31.113,31.113,0,0,1-5.658-3.509C70.242,304.485,65.284,302.615,65.284,302.615Z" fill="#0d520d"/><path d="M66.217,300.844c-.141.722-.85,1.339-.933,1.771-.253.552,7.4,4.45,7.4,4.45.117.17,1.392.418,1.025.046-1.679-1.228-4.793-4.239-4.442-5.225Z" fill="#d8b094"/><path d="M54.687,306.761c1,1.195.714,1.193.99,2.536l2.171.021c-.28-.9.014-1.491,1.6-.885Z" fill="#0d520d"/><path d="M55.008,303.958l-.457,2.211c-.006.591.427.89,1.145,1.2l5.342,1.538a13.983,13.983,0,0,0,3.465.478l3.053.03c1.592.015,1.023-.891.735-1.038a35.207,35.207,0,0,1-6.357-2.428C60.062,304.9,55.008,303.958,55.008,303.958Z" fill="#0d520d"/><path d="M55.605,302.047c-.007.736-.592,1.47-.6,1.911-.152.588,8.072,3.034,8.072,3.034.146.147,1.444.159,1.016-.14-1.873-.9-5.467-3.3-5.315-4.334Z" fill="#d8b094"/><path d="M77.47,275.4a2.922,2.922,0,0,1-1.663,3.691,3.029,3.029,0,0,1-3.7-1.873l-9.289-22.277a4.729,4.729,0,0,1,3-5.912,4.6,4.6,0,0,1,5.908,2.788Z" fill="#d8b094"/><path d="M55.448,303.076c-.008.886,3.027,1.21,3.183.326l4.16-26.288a2.832,2.832,0,1,0-5.641-.5C55.774,284.59,56.856,292.294,55.448,303.076Z" fill="#d8b094"/><path d="M65.881,301.829c-.169.869,2.9,1.765,3.065.9l8.87-25.1a2.823,2.823,0,0,0-1.963-3.541,2.891,2.891,0,0,0-3.5,2.025C69.546,283.706,69.214,291.479,65.881,301.829Z" fill="#d8b094"/><path d="M62.8,276.668a2.83,2.83,0,1,1-5.648.241L54.488,252.92a4.633,4.633,0,0,1,4.531-4.834,4.689,4.689,0,0,1,4.879,4.335Z" fill="#d8b094"/><polygon points="65.651 275.816 78.104 273.382 71.842 251.168 63.195 253.606 65.651 275.816" fill="#0d520d"/><polygon points="54.276 274.815 65.818 275.816 63.615 251.824 54.5 251.736 54.276 274.815" fill="#0d520d"/><polygon points="64.114 254.672 53.28 250.28 59.863 240.648 64.927 225.748 68.065 223.335 75.743 221.901 65.602 252.295 64.114 254.672" fill="#0d520d"/><polygon points="64.675 254.812 71.808 257.965 74.605 246.763 82.394 234.08 82.748 226.698 76.023 221.971 65.286 252.366 64.675 254.812" fill="#0d520d"/><path d="M92.222,232.41a2.895,2.895,0,1,0,5.615,1.4,2.814,2.814,0,0,0-1.952-3.53A3.159,3.159,0,0,0,92.222,232.41Z" fill="#0d520d"/><path d="M80.042,233.952a4,4,0,1,0-2.824-4.83A3.963,3.963,0,0,0,80.042,233.952Z" fill="#0d520d"/><polygon points="81.978 226.201 95.885 230.282 94.308 235.988 80.007 234.093 81.978 226.201" fill="#0d520d"/><path d="M80.644,219l-5.8-1.9-2.1,5.425s-2.527,7.145-.177,7.886,5.311-5.691,5.311-5.691Z" fill="#d8b094"/><path d="M76.411,216.588c-1.453,2.845-.889,4.816,2.585,5.833l1.739-3.386Z" fill="#bf8e6d"/><path d="M83.323,217.235c1.648-.047,1.194-.614,1.092-.794-.071-.322-1.325-2.461-1.217-2.893.035-.14-.071-.322-.036-.462h0a3.165,3.165,0,0,1-2.525-.631,3.6,3.6,0,0,0-1.307,1.654,8.457,8.457,0,0,0-.112,1.034c-.143.573-.735-.029-.735-.029A4.478,4.478,0,0,0,77.4,214.08c-.684.288-.8,1.936-.788,2.546a1.148,1.148,0,0,1,.036.463s-.293,2.366-1.677,2.489h0c1.83,1.674,4.605,1.908,5.905,2.083,1.439.205,1.444-.4,1.444-.4C82.392,220.354,82.934,217.6,83.323,217.235Z" fill="#d8b094"/><path d="M79.449,211.246l-.041,1.356-.036.146a5.459,5.459,0,0,0-.042,1.361,3.6,3.6,0,0,1,1.307-1.654,4.06,4.06,0,0,1-1.188-1.209Z" fill="#bf8e6d"/><path d="M77.4,214.08a.654.654,0,0,0-.928.073,2.077,2.077,0,0,0-.078,1.506c.071.322.137.643.218.967C76.6,216.016,76.714,214.368,77.4,214.08Z" fill="#bf8e6d"/><path d="M76.646,217.089s-.256,2.22-1.677,2.489h0l-.143-.035a6.689,6.689,0,0,1-3.881-3.573,1.041,1.041,0,0,1-.735-.029,3.851,3.851,0,0,1-3.354-4.493,4.127,4.127,0,0,1,4.479-3.615l.7.176a10.562,10.562,0,0,1,2.147-1.439,7.186,7.186,0,0,1,3.027-.77,6.379,6.379,0,0,1,4.608,1.913,2.766,2.766,0,0,1,2.549,2.921,2.986,2.986,0,0,1-1.208,2.452h0a3.165,3.165,0,0,1-2.525-.631,4.06,4.06,0,0,1-1.188-1.209h0l-.231,3.9c-.143.573-.735-.029-.735-.029A4.478,4.478,0,0,0,77.4,214.08a.654.654,0,0,0-.928.073,2.077,2.077,0,0,0-.078,1.506c.071.322.137.643.218.967A1.148,1.148,0,0,1,76.646,217.089Z" fill="#0d520d"/><path d="M81.4,214.776c.138.034.138.034.244.215.037-.145.175-.111.21-.252a.468.468,0,0,0-.311-.536.391.391,0,0,0-.531.326l-.071.286A.521.521,0,0,1,81.4,214.776Z"/><polygon points="73.628 227.921 66.818 248.031 73.784 234.519 77.218 229.122 76.96 224.185 76.357 225.406 73.628 227.921" fill="#38a138"/><polygon points="73.52 220.588 72.463 221.845 69.206 227.121 74.167 223.874 73.52 220.588" fill="#0d520d"/><polygon points="76.96 224.185 78.792 222.817 78.821 224.5 77.107 229.563 76.96 224.185" fill="#38a138"/><path d="M81.031,218.643a3.142,3.142,0,0,0,.807.351c.28.07.418.1.6,0l.281.07c.142.036.142.036.107.177a.146.146,0,0,1-.179.11h0l-.281-.07a1.058,1.058,0,0,1-.524-.286A3.142,3.142,0,0,1,81.031,218.643Z" fill="#8a0000"/><path d="M81.031,218.643a3.142,3.142,0,0,0,.807.351,1.474,1.474,0,0,0,.841.21l.107.181c-.035.141-.035.141-.178.105h0a3.074,3.074,0,0,1-.807-.35C81.415,218.888,81.031,218.643,81.031,218.643Z" fill="#8a0000"/><path d="M73.987,236.7a.391.391,0,0,1-.531.326c-.138-.034-.209-.356-.173-.5a.387.387,0,0,1,.53-.321C73.951,236.236,74.022,236.558,73.987,236.7Z" fill="#0d520d"/><path d="M70.583,242.562c-.036.145-.214.251-.5.181a.3.3,0,0,1-.183-.5c.036-.146.211-.257.5-.183C70.548,242.094,70.655,242.276,70.583,242.562Z" fill="#0d520d"/><path d="M67.135,248.563c-.037.146-.215.251-.5.181a.463.463,0,0,1-.317-.533c.179-.11.352-.216.5-.18A.387.387,0,0,1,67.135,248.563Z" fill="#0d520d"/><polygon points="71.42 257.718 64.675 254.812 65.286 252.366 64.114 254.672 54.473 250.883 54.22 251.897 70.991 259.436 71.42 257.718" fill="#0d520d"/><path d="M82.152,226.7a2.832,2.832,0,0,1,2.72-3.126,3.013,3.013,0,0,1,3.008,2.881,2.873,2.873,0,0,1-2.828,2.949A2.61,2.61,0,0,1,82.152,226.7Z" fill="#0d520d"/><path d="M68.382,223.26a3.983,3.983,0,0,1,4.094,3.914,4.3,4.3,0,0,1-3.888,4.222,4.07,4.07,0,0,1-.206-8.136Z" fill="#0d520d"/><polygon points="68.624 231.25 85.052 229.402 84.872 223.572 68.382 223.26 68.624 231.25" fill="#0d520d"/><path d="M97.312,218.6a9.777,9.777,0,0,0,4.622-3.579c.883-1.151.746-1.794.077-1.5,1.23-.76.991-2.191.251-1.613.214-.25.5-.789-.03-1.074-.245-.211-.7.432-.913.684-.209-.356-.775-.5-1.27.291a5.44,5.44,0,0,1-1.164,1.081c.251-1,.077-1.5-.413-1.32-.536.934-1.7,2.01-2.3,3.231-.071.286-.246.4-.319.693l-4.95,3.637L93.93,220.8Z" fill="#d8b094"/><polygon points="95.605 215.28 98.363 219.166 97.235 220.101 94.478 216.216 95.605 215.28" fill="#78c578"/><path d="M87.151,224.6a3.1,3.1,0,0,1-.3,4.184,2.8,2.8,0,0,1-4.077-.405,2.895,2.895,0,0,1,4.379-3.779Z" fill="#0d520d"/><polygon points="94.335 216.18 83.178 224.366 86.849 228.784 97.48 220.312 94.335 216.18" fill="#0d520d"/><path d="M97.48,220.312l-10.631,8.472a3.734,3.734,0,0,1-1.833.764S68.905,231.32,68.588,231.4a4.075,4.075,0,0,1-4.129-3.774,3.939,3.939,0,0,0,4.058,3.452c.28.07,15.729-2.022,15.729-2.022a4.77,4.77,0,0,0,2.571-.73l.741-.578,9.78-7.468Z" fill="#107c10"/><path d="M463.116,195.011c-.752,1.368-.469,1.309-.479,2.68l-2.125.443c.1-.941-.3-1.46-1.743-.557Z" fill="#32145a"/><path d="M462.19,192.615l.845,2.093c.113.579-.254.951-.909,1.384l-4.984,2.482a14.025,14.025,0,0,1-3.321,1.1l-2.983.579c-1.563.3-1.167-.69-.911-.888a31.113,31.113,0,0,0,5.658-3.509C457.231,194.485,462.19,192.615,462.19,192.615Z" fill="#32145a"/><path d="M461.257,190.844c.14.722.849,1.339.933,1.771.252.552-7.4,4.45-7.4,4.45-.117.17-1.392.418-1.025.046,1.679-1.228,4.793-4.239,4.442-5.225Z" fill="#bb9167"/><path d="M472.723,197.386c-1,1.195-.713,1.193-.989,2.536l-2.171.021c.28-.9-.015-1.491-1.6-.885Z" fill="#32145a"/><path d="M472.4,194.583l.458,2.211c.006.591-.428.89-1.145,1.2l-5.342,1.538a14,14,0,0,1-3.465.478l-3.053.03c-1.593.015-1.023-.891-.736-1.038a35.211,35.211,0,0,0,6.358-2.428C467.349,195.522,472.4,194.583,472.4,194.583Z" fill="#32145a"/><path d="M471.805,192.672c.008.736.593,1.47.6,1.911.153.588-8.072,3.034-8.072,3.034-.145.147-1.444.159-1.015-.14,1.873-.9,5.466-3.3,5.314-4.334Z" fill="#bb9167"/><path d="M450,165.4a2.922,2.922,0,0,0,1.663,3.691,3.029,3.029,0,0,0,3.7-1.873l9.289-22.277a4.729,4.729,0,0,0-3-5.912,4.6,4.6,0,0,0-5.908,2.788Z" fill="#a6d9a6"/><path d="M471.962,193.7c.009.886-3.026,1.21-3.182.326l-4.161-26.288a2.832,2.832,0,1,1,5.641-.5C471.636,175.215,470.554,182.919,471.962,193.7Z" fill="#bb9167"/><path d="M461.593,191.829c.168.869-2.9,1.765-3.066.9l-8.87-25.1a2.823,2.823,0,0,1,1.963-3.541,2.891,2.891,0,0,1,3.5,2.025C457.927,173.706,458.259,181.479,461.593,191.829Z" fill="#bb9167"/><path d="M464.678,166.668a2.83,2.83,0,1,0,5.648.241l2.659-23.989a4.633,4.633,0,0,0-4.531-4.834,4.689,4.689,0,0,0-4.879,4.335Z" fill="#a6d9a6"/><polygon points="463.359 144.672 474.193 140.28 467.61 130.648 462.546 115.748 459.408 113.335 451.731 111.901 461.871 142.295 463.359 144.672" fill="#5c2d91"/><polygon points="462.798 144.812 455.665 147.965 452.868 136.763 445.079 124.08 444.725 116.698 451.45 111.971 462.187 142.366 462.798 144.812" fill="#5c2d91"/><path d="M447.431,123.952a4,4,0,1,1,2.824-4.83A3.963,3.963,0,0,1,447.431,123.952Z" fill="#5c2d91"/><path d="M446.829,109l5.8-1.9,2.1,5.425s2.526,7.145.176,7.886-5.311-5.691-5.311-5.691Z" fill="#bb9167"/><path d="M451.015,106.588c1.453,2.845.889,4.816-2.584,5.833l-1.74-3.386Z" fill="#aa7b50"/><path d="M444.15,107.235c-1.648-.047-1.194-.614-1.092-.794.071-.322,1.325-2.461,1.217-2.893-.035-.14.072-.322.036-.462h0a3.164,3.164,0,0,0,2.525-.631,3.6,3.6,0,0,1,1.307,1.654,8.457,8.457,0,0,1,.112,1.034c.143.573.735-.029.735-.029a4.47,4.47,0,0,1,1.086-1.034c.683.288.8,1.936.787,2.546a1.148,1.148,0,0,0-.036.463s.293,2.366,1.677,2.489h0c-1.83,1.674-4.605,1.908-5.905,2.083-1.439.2-1.444-.4-1.444-.4C445.081,110.354,444.539,107.6,444.15,107.235Z" fill="#bb9167"/><path d="M448.024,101.246l.041,1.356.036.146a5.459,5.459,0,0,1,.042,1.361,3.6,3.6,0,0,0-1.307-1.654,4.06,4.06,0,0,0,1.188-1.209Z" fill="#aa7b50"/><path d="M450.076,104.08a.653.653,0,0,1,.927.073,2.077,2.077,0,0,1,.078,1.506c-.071.322-.137.643-.218.967C450.872,106.016,450.759,104.368,450.076,104.08Z" fill="#aa7b50"/><path d="M450.827,107.089s.256,2.22,1.677,2.489h0l.143-.035c1.647-.566,6.379-7.185.129-11.06-1.525-.946-5.936-1.979-7.124-.77a2.766,2.766,0,0,0-2.549,2.921,2.986,2.986,0,0,0,1.208,2.452h0a3.164,3.164,0,0,0,2.525-.631,4.06,4.06,0,0,0,1.188-1.209h0l.231,3.9c.143.573.735-.029.735-.029a4.47,4.47,0,0,1,1.086-1.034.653.653,0,0,1,.927.073,2.077,2.077,0,0,1,.078,1.506c-.071.322-.137.643-.218.967A1.148,1.148,0,0,0,450.827,107.089Z" fill="#3c3c3c"/><path d="M446.072,104.776c-.138.034-.138.034-.244.215-.037-.145-.175-.111-.21-.252a.468.468,0,0,1,.311-.536.391.391,0,0,1,.531.326l.071.286A.521.521,0,0,0,446.072,104.776Z"/><polygon points="453.845 117.921 460.655 138.031 453.689 124.519 450.255 119.122 450.513 114.185 451.116 115.406 453.845 117.921" fill="#8867c8"/><polygon points="453.845 117.921 460.655 138.031 458.3 123.826 457.701 116.654 453.505 112.979 453.93 114.095 453.845 117.921" fill="#c7b8ff"/><polygon points="453.953 110.588 455.01 111.845 458.267 117.121 453.505 112.979 453.953 110.588" fill="#5c2d91"/><polygon points="450.513 114.185 448.681 112.817 448.652 114.5 450.366 119.563 450.513 114.185" fill="#5c2d91"/><path d="M446.442,108.643a3.142,3.142,0,0,1-.807.351c-.28.07-.418.1-.6,0l-.28.07c-.143.036-.143.036-.108.177a.146.146,0,0,0,.179.11h0l.281-.07a1.058,1.058,0,0,0,.524-.286A3.142,3.142,0,0,0,446.442,108.643Z" fill="#8a0000"/><path d="M446.442,108.643a3.142,3.142,0,0,1-.807.351,1.474,1.474,0,0,1-.841.21l-.107.181c.036.141.036.141.178.1h0a3.074,3.074,0,0,0,.807-.35C446.058,108.888,446.442,108.643,446.442,108.643Z" fill="#8a0000"/><path d="M453.486,126.7a.391.391,0,0,0,.531.326c.138-.034.209-.356.173-.5a.387.387,0,0,0-.53-.321C453.522,126.236,453.451,126.558,453.486,126.7Z" fill="#c7b8ff"/><path d="M456.89,132.562c.036.145.214.251.5.181a.3.3,0,0,0,.183-.5c-.036-.146-.211-.257-.5-.183C456.925,132.094,456.818,132.276,456.89,132.562Z" fill="#c7b8ff"/><path d="M460.338,138.563c.037.146.215.251.5.181a.463.463,0,0,0,.317-.533c-.179-.11-.352-.216-.5-.18A.387.387,0,0,0,460.338,138.563Z" fill="#c7b8ff"/><polygon points="456.053 147.718 462.798 144.812 462.187 142.366 463.359 144.672 473 140.883 473.253 141.897 456.482 149.436 456.053 147.718" fill="#0d520d"/><path d="M445.321,116.7a2.832,2.832,0,0,0-2.72-3.126,3.013,3.013,0,0,0-3.008,2.881,2.873,2.873,0,0,0,2.828,2.949A2.61,2.61,0,0,0,445.321,116.7Z" fill="#0d520d"/><path d="M459.091,113.26A3.983,3.983,0,0,0,455,117.174a4.3,4.3,0,0,0,3.888,4.222,4.07,4.07,0,0,0,.206-8.136Z" fill="#5c2d91"/><polygon points="458.849 121.25 442.421 119.402 442.601 113.572 459.091 113.26 458.849 121.25" fill="#5c2d91"/><path d="M430.161,108.6a9.777,9.777,0,0,1-4.622-3.579c-.883-1.151-.745-1.794-.077-1.5-1.23-.76-.991-2.191-.251-1.613-.214-.25-.5-.789.03-1.074.245-.211.7.432.913.684.209-.356.775-.5,1.27.291a5.44,5.44,0,0,0,1.164,1.081c-.251-1-.077-1.5.413-1.32.536.934,1.7,2.01,2.3,3.231.071.286.246.4.32.693l4.949,3.637-3.029,1.669Z" fill="#bb9167"/><polygon points="431.868 105.28 429.11 109.166 430.238 110.101 432.995 106.216 431.868 105.28" fill="#c7b8ff"/><path d="M440.322,114.6a3.1,3.1,0,0,0,.3,4.184,2.8,2.8,0,0,0,4.077-.405,2.895,2.895,0,0,0-4.379-3.779Z" fill="#5c2d91"/><polygon points="433.138 106.18 444.295 114.366 440.624 118.784 429.993 110.312 433.138 106.18" fill="#5c2d91"/><path d="M429.993,110.312l10.631,8.472a3.734,3.734,0,0,0,1.833.764s16.111,1.772,16.428,1.848a4.075,4.075,0,0,0,4.129-3.774,3.939,3.939,0,0,1-4.058,3.452c-.28.07-15.729-2.022-15.729-2.022a4.77,4.77,0,0,1-2.571-.73l-.741-.578-9.78-7.468Z" fill="#8867c8"/><path d="M448.485,103.233l-5.459-.125s-1.583-5.542,4.25-6.583c6-1.072,9.209,3.5,10.5,8.5,1.69,6.54-4.625,7.333-4.625,7.333s1.75-.625.125-2.25-.25-2.875-.125-5.625.917-4.542-1.458-4.542-3.208.709-3.208.709" fill="#3c3c3c"/><path d="M448.276,167.108c.347.887,8.875,26.375,8.875,26.375l4.875-1.75-4.125-25,5.5-14.375s-.5,16,.625,20.5,3.75,17.375,4.25,17.5a37.68,37.68,0,0,0,4-.125s1.25-12,1.25-15.375a56.664,56.664,0,0,0-1-8.5s3.5-21.125.875-26-18.75,1.875-18.75,1.875S447.151,164.233,448.276,167.108Z" fill="#5c2d91"/><path d="M312.564,132.217a12.046,12.046,0,0,1,5.923-2.826c.7-.115.566,1.056-2.425,3.264C313.71,134.391,312.564,132.217,312.564,132.217Z" fill="#00188f"/><path d="M308.436,147.609s.613.459,1.332-2.968c.46-2.192,5.44-1.237,5.083.667-.715,3.807.493,4.072.493,4.072l-3.293,4.346Z" fill="#a68463"/><ellipse cx="311.319" cy="137.842" rx="5.836" ry="8.442" transform="translate(-20.814 62.958) rotate(-11.177)" fill="#a68463"/><path d="M313.726,136.844l1.224.93a5.765,5.765,0,0,0-.874-4.9c-3.073-.419-9.51-1.634-9.558,3.3a10.151,10.151,0,0,0,1.519,5.41,20.035,20.035,0,0,0,3.717,4.869s5.749-.574,5.606-6.423c-.868.255-1.357.131-1.908-1.259C312.648,136.745,313.726,136.844,313.726,136.844Z"/><path d="M333.085,162.217s1.641-1.825,1.877-2.205,3.238-.966,3.773-1.057.934.783.934.783,1.161-.235,1.352.3.831,2.233.4,2.947-6.079,2.506-6.079,2.506Z" fill="#a68463"/><path d="M315.828,132.775a68.975,68.975,0,0,1-10.986,6.546,6.659,6.659,0,0,1,1.925-9.376c1.654-1.215,4.242-2.456,4.727-2.071A15.01,15.01,0,0,1,315.828,132.775Z" fill="#0060c5"/><path d="M322.792,152.521c-.158-1.394-.646-2.471-2.758-2.867-1.4-.263-5.312-.97-5.312-.97s-.194,1.145-2.829.651-2.98-1.476-3.367-1.852a17.232,17.232,0,0,0-4.625-.5c-6.375.125-5.8,27.527-5.8,27.527l18.212,2.12,2.271-12.222S322.93,153.742,322.792,152.521Z" fill="#0078d7"/><path d="M321.633,170.275c.841,1.082,2.3,1.709,5.426.074,2.214-1.159,8.66-5.018,8.66-5.018l-2.044-4.125-8.548,4.014s-1.883-9.787-2.342-12.823c-.966-6.393-7.21,3.9-4.2,12.011C320.3,169.022,321.113,169.606,321.633,170.275Z" fill="#0060c5"/><path d="M328.818,179.316c-1.213-.316-12.667-2.666-12.667-2.666l-18.333-2.5s-1.067,5.405,1.277,8.765c1.936,2.775,7.222,9.873,7.222,9.873l-12.634-.682-1.624,5.436s11.094,1.369,16.68,2.274c4.279.694,6.581-1.408,5.57-5.923-.393-1.757-1.089-4.881-1.959-8.75,4.931.4,12.086.622,12.086.622l-6.68,9.649,5.507,1.025s5.91-6.543,8.555-9.456S332.651,180.316,328.818,179.316Z" fill="#00188f"/><path d="M318.544,194.842s-1.784,2.379-2.775,3.469-.892,3.172,1.685,3.172h11s1.387-2.379-.5-3.072c-.5-.185-6.244-3.073-6.244-3.073Z" fill="#505050"/><path d="M293.288,194.209s1.052-1.526.038-2.595c-.8-.842-2.782-1.6-3.467-.614-1.473,2.115-7.506,8.994-7.506,8.994s1.306,1.88,3.05.886c.463-.265,6.656-3.338,6.656-3.338Z" fill="#505050"/><path d="M392.646,115.082l-5.944-.646a1.111,1.111,0,0,1-.967-.83,17.36,17.36,0,0,0-1.589-4.133,1.134,1.134,0,0,1,.127-1.245l3.631-4.515a1.125,1.125,0,0,0-.081-1.5l-3.044-3.045a1.126,1.126,0,0,0-1.5-.081l-4.38,3.522a1.114,1.114,0,0,1-1.262.1,17.428,17.428,0,0,0-3.867-1.692,1.118,1.118,0,0,1-.78-.957l-.635-5.85a1.126,1.126,0,0,0-1.12-1h-4.306a1.126,1.126,0,0,0-1.119,1l-.617,5.678a1.139,1.139,0,0,1-.858.973,17.339,17.339,0,0,0-4.314,1.781,1.113,1.113,0,0,1-1.26-.082l-4.321-3.473a1.125,1.125,0,0,0-1.5.081l-3.044,3.045a1.125,1.125,0,0,0-.081,1.5l3.543,4.406a1.114,1.114,0,0,1,.095,1.239,17.342,17.342,0,0,0-1.649,4.253,1.134,1.134,0,0,1-.987.847l-5.744.624a1.126,1.126,0,0,0-1,1.12v4.305a1.126,1.126,0,0,0,1,1.12l6.1.662a1.13,1.13,0,0,1,.96.769,17.372,17.372,0,0,0,1.39,3.21,1.114,1.114,0,0,1-.114,1.238l-3.593,4.467a1.126,1.126,0,0,0,.081,1.5l3.044,3.044a1.126,1.126,0,0,0,1.5.082l4.436-3.566a1.14,1.14,0,0,1,1.284-.089,17.346,17.346,0,0,0,3.726,1.575,1.142,1.142,0,0,1,.829.965l.65,5.991a1.126,1.126,0,0,0,1.12,1h4.3a1.126,1.126,0,0,0,1.12-1l.645-5.937a1.107,1.107,0,0,1,.822-.942,17.342,17.342,0,0,0,4.142-1.732,1.113,1.113,0,0,1,1.25.108l4.51,3.627a1.127,1.127,0,0,0,1.5-.082l3.044-3.044a1.126,1.126,0,0,0,.081-1.5l-3.7-4.6a1.142,1.142,0,0,1-.1-1.267,17.316,17.316,0,0,0,1.285-3,1.139,1.139,0,0,1,.956-.8l6.3-.684a1.126,1.126,0,0,0,1-1.12V116.2A1.126,1.126,0,0,0,392.646,115.082ZM368.812,126.8a8.956,8.956,0,1,1,8.955-8.956A8.956,8.956,0,0,1,368.812,126.8Z" fill="#006761"/><path d="M389.153,79.9l-2.948-.32a.552.552,0,0,1-.479-.412,8.585,8.585,0,0,0-.788-2.049A.562.562,0,0,1,385,76.5l1.8-2.239a.559.559,0,0,0-.041-.745L385.252,72a.559.559,0,0,0-.745-.04l-2.172,1.746a.552.552,0,0,1-.626.05,8.623,8.623,0,0,0-1.917-.839.554.554,0,0,1-.387-.474l-.315-2.9a.559.559,0,0,0-.555-.5H376.4a.558.558,0,0,0-.555.5l-.306,2.815a.566.566,0,0,1-.426.483,8.56,8.56,0,0,0-2.139.883.552.552,0,0,1-.625-.041l-2.142-1.722a.559.559,0,0,0-.745.04l-1.509,1.51a.559.559,0,0,0-.041.745l1.757,2.184a.554.554,0,0,1,.048.615,8.605,8.605,0,0,0-.818,2.109.564.564,0,0,1-.49.42l-2.848.309a.558.558,0,0,0-.5.555v2.135a.559.559,0,0,0,.5.556l3.024.328a.56.56,0,0,1,.476.381,8.577,8.577,0,0,0,.69,1.592.552.552,0,0,1-.057.613l-1.782,2.216a.559.559,0,0,0,.041.745l1.509,1.509a.558.558,0,0,0,.745.041l2.2-1.768a.566.566,0,0,1,.637-.045,8.608,8.608,0,0,0,1.848.782.564.564,0,0,1,.41.478l.323,2.971a.559.559,0,0,0,.555.5h2.135a.558.558,0,0,0,.555-.5l.32-2.944a.55.55,0,0,1,.408-.467,8.612,8.612,0,0,0,2.053-.859.551.551,0,0,1,.62.054l2.237,1.8a.558.558,0,0,0,.745-.041l1.509-1.509a.559.559,0,0,0,.041-.745l-1.834-2.281a.565.565,0,0,1-.049-.627,8.69,8.69,0,0,0,.637-1.488.565.565,0,0,1,.474-.4l3.123-.339a.559.559,0,0,0,.5-.556V80.451A.558.558,0,0,0,389.153,79.9Zm-11.818,5.809a4.441,4.441,0,1,1,4.44-4.44A4.44,4.44,0,0,1,377.335,85.705Z" fill="#fff"/><rect x="129.651" y="228.483" width="52" height="61" rx="3.616" fill="#006761"/><rect x="127.651" y="226.483" width="52" height="61" rx="3.616" fill="#40c5af"/><path d="M166.771,222.483h-6.843a6.287,6.287,0,0,0-12.572,0H140.7a3.046,3.046,0,0,0-3.046,3.046v6.954h32v-7.12A2.88,2.88,0,0,0,166.771,222.483Zm-13.231,2.47a2.4,2.4,0,1,1,2.4-2.4A2.4,2.4,0,0,1,153.54,224.953Z" fill="#fff"/><circle cx="154.226" cy="257.742" r="17.352" fill="#fff"/><polygon points="163.386 247.706 166.185 250.505 149.43 267.26 141.118 258.952 143.917 256.153 149.43 261.662 163.386 247.706" fill="#008272"/><rect x="488.651" y="267.483" width="17" height="21" fill="#fff"/><rect x="510.651" y="259.483" width="17" height="29" fill="#fff"/><rect x="532.651" y="243.483" width="17" height="45" fill="#fff"/><path d="M547.651,217.483,533.41,219.51l-5.186,6.907,9.754-1.391c-9.172,10.617-26.8,27.477-49.327,32.188v6.117c25.261-4.8,44.68-23.625,54.381-34.981l1.461,10.282,5.186-6.907Z" fill="#005850"/><polygon points="556.651 295.483 479.651 295.483 479.651 242.483 482.651 242.483 482.651 292.483 556.651 292.483 556.651 295.483" fill="#005850"/></svg>