<svg id="Layer_1" data-name="Layer 1" xmlns="http://www.w3.org/2000/svg" viewBox="0 0 636 300"><defs><style>.cls-1{fill:#d2d2d2;}.cls-2{fill:#e6e6e6;}.cls-3{fill:#409ae1;}.cls-4{fill:#5c2d91;}.cls-5{fill:#91a80a;}.cls-6{fill:none;stroke:#939393;stroke-miterlimit:10;}.cls-7{font-size:16px;font-family:SegoeUI-Bold, Segoe UI;}.cls-8{fill:#fff;font-weight:700;}.cls-9{letter-spacing:0em;}.cls-10{font-family:SegoeUI, Segoe UI;}.cls-11{letter-spacing:-0.04em;}.cls-12{letter-spacing:-0.1em;}.cls-13{letter-spacing:-0.03em;}.cls-14{letter-spacing:-0.06em;}.cls-15{letter-spacing:0.01em;}</style></defs><title>swimlane-dotnet-node-table</title><rect class="cls-1" x="68" y="47" width="509" height="206"/><rect class="cls-2" x="280" y="47" width="200" height="206"/><rect class="cls-3" x="68" y="47" width="509" height="40"/><rect class="cls-4" x="479" y="47" width="98" height="40"/><rect class="cls-5" x="280" y="47" width="200" height="40"/><line class="cls-6" x1="576" y1="128.5" x2="68" y2="128.5"/><line class="cls-6" x1="576" y1="169.5" x2="68" y2="169.5"/><line class="cls-6" x1="576" y1="211.5" x2="68" y2="211.5"/><text class="cls-7" transform="translate(82.33 73.33)"><tspan class="cls-8">Platfo<tspan class="cls-9" x="45.13" y="0">r</tspan><tspan x="51.54" y="0">m</tspan></tspan><tspan class="cls-10"><tspan class="cls-11" x="0" y="41">W</tspan><tspan x="14.32" y="41">eb Framework</tspan><tspan x="0" y="82">Server Side Language</tspan><tspan x="0" y="123">Server Side </tspan><tspan class="cls-12" x="82.95" y="123">T</tspan><tspan x="89.77" y="123">emplating</tspan><tspan class="cls-13" x="0" y="164">P</tspan><tspan x="8.41" y="164">ackage Management</tspan></tspan></text><text class="cls-7" transform="translate(293.33 73.33)"><tspan class="cls-8">Node.js</tspan><tspan class="cls-10"><tspan x="0" y="41">Express</tspan><tspan x="0" y="82">Javascript/</tspan><tspan class="cls-14" x="74.34" y="82">T</tspan><tspan x="81.84" y="82">ypeScript</tspan><tspan x="0" y="123">Handlebars</tspan><tspan x="0" y="164">NPM</tspan></tspan></text><text class="cls-7" transform="translate(491.33 73.33)"><tspan class="cls-8">.N<tspan class="cls-15" x="16.98" y="0">E</tspan><tspan x="25.63" y="0">T</tspan></tspan><tspan class="cls-10"><tspan x="0" y="41">ASP.NET</tspan><tspan x="0" y="82">C#</tspan><tspan x="0" y="123">Razor</tspan><tspan x="0" y="164">NuGet</tspan></tspan></text></svg>