<svg xmlns="http://www.w3.org/2000/svg" viewBox="0 0 636 300"><title>swimlane-microservices-build</title><path d="M185.457,272.5H40.48a3.022,3.022,0,0,1-2.891-3,2.955,2.955,0,0,1,2.891-3H185.457a2.9,2.9,0,0,1,2.892,3A2.957,2.957,0,0,1,185.457,272.5Z" fill="#c8c8c8"/><polygon points="269.5 166.5 269.549 191.5 295.5 191.5 295.5 217.5 322.5 217.5 322.5 166.5 269.5 166.5" fill="#ffcb40"/><rect x="223.5" y="267.5" width="11" height="6" fill="#666"/><rect x="305.5" y="267.5" width="11" height="6" fill="#666"/><rect x="216.5" y="216.5" width="106" height="53" fill="#ffcb40"/><rect x="216.5" y="216.5" width="27" height="27" fill="#ff8c00"/><polygon points="243.5 242.5 295.5 242.5 295.5 216.5 322.5 216.5 322.5 269.5 243.5 269.5 243.5 242.5" fill="#f57800"/><rect x="352.5" y="267.5" width="11" height="6" fill="#666"/><rect x="434.5" y="267.5" width="11" height="6" fill="#666"/><rect x="482.5" y="267.5" width="11" height="6" fill="#666"/><rect x="564.5" y="267.5" width="11" height="6" fill="#666"/><rect x="352.5" y="157.5" width="11" height="6" fill="#666"/><rect x="434.5" y="157.5" width="11" height="6" fill="#666"/><rect x="482.5" y="157.5" width="11" height="6" fill="#666"/><rect x="564.5" y="157.5" width="11" height="6" fill="#666"/><polygon points="286.5 216.5 286.451 191.5 260.5 191.5 260.5 166.5 233.5 166.5 233.5 216.5 286.5 216.5" fill="#f57800"/><path d="M259.435,193.085a16.2,16.2,0,0,1,2.12-1.958c1.241-.094,2.809-.084,2.809-.084s.276.355-.3.688c.8.042,1.267.042,1.9.042,1.1,0,.992.541.992.541a13.2,13.2,0,0,1-1.4,1.709,29.563,29.563,0,0,1-4.3.937Z" fill="#8d572e"/><path d="M374.588,60.364s-7.6,1.81-9.84,2.471c-3.023.893-2.151,4.61,1.079,3.8s7.477-1.8,9.55-2.4C378.54,63.32,377.478,59.628,374.588,60.364Z" fill="#939393"/><path d="M375.082,55.853c-.622,2.465-1.313,4.363-1.4,5.413-.261,3.141,3.776,3.687,4.19.384.2-1.6.449-3.439.672-5.154Z" fill="#939393"/><path d="M184.445,236.5H57.7a2.209,2.209,0,0,0-2.2,2.2v5.6a2.2,2.2,0,0,0,2.2,2.2H184.456a2.044,2.044,0,0,0,2.044-2.044v-5.9A2.055,2.055,0,0,0,184.445,236.5Z" fill="#868686"/><path d="M53.622,259.544a10.129,10.129,0,1,0,10.129-10.073,10.121,10.121,0,0,0-10.129,10.073Z" fill="#787878"/><path d="M114.282,259.544a10.129,10.129,0,1,0,10.128-10.073,10.121,10.121,0,0,0-10.128,10.073Z" fill="#787878"/><path d="M145.107,259.544a10.129,10.129,0,1,0,10.129-10.073,10.121,10.121,0,0,0-10.129,10.073Z" fill="#787878"/><path d="M75.467,216.5H48.938c-9.674,11.078-7.329,43-7.329,43H68.138s-2.345-31.922,7.329-43Z" fill="#c6c6c6"/><path d="M117.5,246.646a.457.457,0,0,1,.294-.146H117.5Z" fill="#f58b1f"/><path d="M74.5,246.646a.541.541,0,0,1,.44-.146H74.5Z" fill="#f9a743"/><path d="M52.732,216.5H48.921c-9.674,11.078-7.329,43-7.329,43H45.4s-2.345-31.922,7.329-43Z" fill="#d3d3d3"/><path d="M176.456,246.5H94.792a.452.452,0,0,0-.292.146V216.5H72.368c-9.674,11.078-7.329,43-7.329,43H176.456a2.044,2.044,0,0,0,2.044-2.044v-8.765a2.122,2.122,0,0,0-2.044-2.191Z" fill="#d3d3d3"/><path d="M74.475,218.5H94.5v-2H72.368c-9.674,11.078-7.329,43-7.329,43h1.927c-.294-7.468-.736-31.629,7.509-41Z" fill="#e0e0e0"/><polygon points="64.485 257.5 64.485 257.5 64.485 257.5 64.485 257.5 64.485 257.5" fill="none" stroke="#fff" stroke-linecap="round" stroke-linejoin="round" stroke-width="0.108"/><polygon points="64.5 258.084 64.5 257.938 64.5 258.084 64.5 258.084 64.5 258.084" fill="none" stroke="#fff" stroke-linecap="round" stroke-linejoin="round" stroke-width="0.108"/><polygon points="64.485 258.814 64.485 258.814 64.485 258.814 64.485 258.814 64.485 258.814" fill="none" stroke="#fff" stroke-linecap="round" stroke-linejoin="round" stroke-width="0.108"/><path d="M176.5,246.551v8.175c.02,1.168-.861,2.19-2.035,1.774H66.54c0,1.438.146,2.314.146,3H176.52a1.843,1.843,0,0,0,1.98-2v-8.759a2.1,2.1,0,0,0-1.98-2.19Z" fill="silver"/><path d="M90.5,246.5v-25H75.186c-4.623,5.46-5.779,17.1-5.779,25Z" fill="#787878"/><path d="M90.025,246.5s-9.1-14.744-15.559-25.4c-4.7,5.547-5.871,17.371-5.871,25.4Z" fill="#868686"/><path d="M69.182,259.544A10.055,10.055,0,1,0,79.31,249.471a10.12,10.12,0,0,0-10.128,10.073Z" fill="#787878"/><path d="M73.879,259.544a5.358,5.358,0,1,0,5.431-5.4,5.4,5.4,0,0,0-5.431,5.4Z" fill="silver"/><path d="M151.126,259.544a10.128,10.128,0,1,0,10.128-10.073,10.12,10.12,0,0,0-10.128,10.073Z" fill="#787878"/><path d="M129.7,259.544a10.12,10.12,0,0,0,10.128,10.072,10.073,10.073,0,0,0,0-20.145A10.12,10.12,0,0,0,129.7,259.544Z" fill="#787878"/><path d="M79.31,264.945a4.783,4.783,0,0,0,3.67-1.606l-7.633-7.591a5.818,5.818,0,0,0-1.468,3.8,5.4,5.4,0,0,0,5.431,5.4Z" fill="#d3d3d3"/><path d="M58.026,252.5H47.017c-.587-.547-.881-.985-.881-1.423s.294-.876.881-.577H58.026c.44-.3.881.139.881.577a.945.945,0,0,1-.881.876Z" fill="#a0a0a0"/><path d="M58.026,256.5H47.017c-.587-.606-.881-.9-.881-1.482,0-.438.294-.876.881-.518H58.026c.44-.358.881.08.881.518a.844.844,0,0,1-.881.876Z" fill="#a0a0a0"/><path d="M47.178,220.5c-3.287,7.28-4.482,17.68-4.632,26h19.87c.149-8.32,1.344-18.72,4.631-26Z" fill="#787878"/><path d="M47.311,220.954c-3.23,7.153-4.4,17.371-4.551,25.546H62.283c.147-8.175-14.972-25.546-14.972-25.546Z" fill="#868686"/><path d="M155.823,259.544a5.431,5.431,0,1,0,5.431-5.4,5.5,5.5,0,0,0-5.431,5.4Z" fill="silver"/><path d="M134.392,259.544a5.358,5.358,0,1,0,5.431-5.4,5.4,5.4,0,0,0-5.431,5.4Z" fill="silver"/><path d="M139.823,264.945a4.783,4.783,0,0,0,3.67-1.606l-7.486-7.591a5.286,5.286,0,0,0-1.615,3.8,5.4,5.4,0,0,0,5.431,5.4Z" fill="#d3d3d3"/><path d="M161.254,264.945a5.342,5.342,0,0,0,3.816-1.606l-7.633-7.591a5.289,5.289,0,0,0-1.614,3.8,5.5,5.5,0,0,0,5.431,5.4Z" fill="#d3d3d3"/><rect x="346.5" y="163.5" width="106" height="106" fill="#006fc8"/><rect x="476.5" y="163.5" width="106" height="106" fill="#b4a0ff"/><rect x="346.5" y="216.5" width="106" height="53" fill="#409ae1"/><rect x="346.5" y="106.5" width="106" height="53" fill="#006fc8"/><rect x="476.5" y="216.5" width="106" height="53" fill="#b4a0ff"/><rect x="476.5" y="53.5" width="106" height="106" fill="#724aad"/><rect x="476.5" y="106.5" width="106" height="53" fill="#724aad"/><polygon points="150.5 210.5 150.5 184.5 124.5 184.5 124.5 210.5 97.5 210.5 97.5 236.5 177.5 236.5 177.5 210.5 150.5 210.5" fill="#ffcb40"/><rect x="97.5" y="184.5" width="27" height="26" fill="#ff8c00"/><rect x="425.5" y="132.5" width="27" height="27" transform="translate(878 292) rotate(180)" fill="#8fc3ec"/><polygon points="424.5 132.5 373.5 132.5 373.5 159.5 346.5 159.5 346.5 106.5 424.5 106.5 424.5 132.5" fill="#8fc3ec"/><rect x="548.5" y="77.5" width="34" height="29" fill="#9080cf"/><polygon points="528.5 80.5 528.5 106.5 555.5 106.5 555.5 79.5 582.5 79.5 582.5 53.5 501.5 53.5 501.5 80.5 528.5 80.5" fill="#b4a0ff"/><path d="M251.326,175.282a7.923,7.923,0,0,1,4.249.732c.417.2-.1.782-2.539.83C251.116,176.883,251.326,175.282,251.326,175.282Z" fill="#adadad"/><path d="M244.249,183.483s.4.3.875-1.95c.3-1.44,3.574-.813,3.339.438-.469,2.5.325,2.675.325,2.675l-2.164,2.855Z" fill="#8d572e"/><ellipse cx="248.523" cy="177.826" rx="5.546" ry="3.834" transform="translate(-15.314 332.02) rotate(-65.888)" fill="#8d572e"/><path d="M250.193,178.2l.3.963a3.784,3.784,0,0,0,1.391-2.958c-1.488-1.391-4.479-4.486-6.377-1.858a6.658,6.658,0,0,0-1.239,3.477,13.159,13.159,0,0,0,.145,4.022,4.074,4.074,0,0,0,5.444-1.317c-.562-.192-.777-.444-.545-1.4C249.653,177.742,250.193,178.2,250.193,178.2Z"/><path d="M252.865,176.82a45.28,45.28,0,0,1-8.375-.659,4.375,4.375,0,0,1,4.59-4.3c1.348-.023,3.207.293,3.321.684A9.88,9.88,0,0,1,252.865,176.82Z" fill="#adadad"/><path d="M231.969,191.229c.635-1.221,3.652-4.3,5.841-6.269a7.369,7.369,0,0,1,3.459-2.043c.011,0,.021,0,.032,0,1.287.2,3.1.557,3.1.557.254.247-.035.653,1.7.978s2.374-.189,2.374-.189,1.394.275,2.313.448a1.891,1.891,0,0,1,1.812,1.883c.091.8-2.293,7.884-2.293,7.884l-1.492,8.029-11.964-1.393s1.234-5.983,1.588-8.716c-.089-.07-4.411,3.359-5.562,2.25C231.554,193.378,231.334,192.45,231.969,191.229Z" fill="#adadad"/><path d="M249.805,214.137s-1.172,1.563-1.824,2.279-.586,2.084,1.107,2.084h7.228s.911-1.563-.326-2.018c-.329-.122-4.1-2.019-4.1-2.019Z" fill="#6b6b6b"/><path d="M234.314,214.647s.738-.968.107-1.7c-.5-.578-1.775-1.137-2.256-.512-1.033,1.341-5.209,5.664-5.209,5.664s.8,1.276,1.973.678c.313-.159,4.473-1.98,4.473-1.98Z" fill="#6b6b6b"/><path d="M252.3,198.332c.553.71,1.514,1.123,3.565.049,1.454-.762,5.689-3.3,5.689-3.3l-1.343-2.71-5.616,2.637s-1.557-6.244-1.859-8.238c-.635-4.2-4.416,2.378-2.436,7.705C251.43,197.509,251.961,197.892,252.3,198.332Z" fill="#939393"/><path d="M249.918,190.915a26.182,26.182,0,0,0,2.214,5.821c.991,1.768,1.937,1.4,2.5,1.134.468-.223,5.079-2.61,6.618-3.407l.307.621s-4.273,2.465-5.689,3.3c-3.343,1.962-4.716-.4-5.843-3.43C248.873,191.852,249.525,189.308,249.918,190.915Z" fill="#787878"/><path d="M258.739,204.128c-.811-.147-10.1-1.678-10.1-1.678l-11.793-1.336a6.643,6.643,0,0,0,.92,4.592c1.182,1.881,3.9,6.636,3.9,6.636l-8.071.643-.214,4.071s6.285.143,10.178.044c2.847-.071,4.362-.716,3.841-3.711-.2-1.165-.56-3.237-1.009-5.8,3.223.415,7.2,1.042,7.2,1.042l-3.979,5.868,4.265,1.131s4.142-4.785,5.763-6.8S260.171,204.389,258.739,204.128Z" fill="#787878"/><path d="M243.776,215.877c1.711-.09,3.11-.565,3.727-1.5.032,2.151-1.441,2.657-3.941,2.72-3.893.1-10.178-.044-10.178-.044l.055-1.041C235.879,216,242.147,215.963,243.776,215.877Z" fill="#6b6b6b"/><path d="M244.241,207.368c-1.236-.512-.868-.408-.868-.408L244,206.9c4.75.25,9.021.163,9.991.3,1.25.179,1.607.572,1.25,1.215-.305.549-3.443,5.1-4.354,6.418l-1.268-.336,3.979-5.868s-3.979-.627-7.2-1.042l.012.067Z" fill="#6b6b6b"/><path d="M236.847,201.114l1.295.147s-.008.006-.009.01a4.31,4.31,0,0,0,.254,1.89,5.221,5.221,0,0,0,.246.717c.393.893,3.929,7.5,3.929,7.5.464,1.214-.893.964-.893.964s-2.72-4.755-3.9-6.636A6.643,6.643,0,0,1,236.847,201.114Z" fill="#6b6b6b"/><path d="M249.6,184.505a7.68,7.68,0,0,0-3.161-1.553,6.164,6.164,0,0,0-3.4.327s.169.476,2.651,1.119A7.01,7.01,0,0,0,249.6,184.505Z" fill="#d3d3d3"/><path d="M368.659,78.923s3.12,10.7,3.165,12.481-2.719,13.772-2.719,13.772l-4.145.4s1.426-11.857,1.649-13.105a4.547,4.547,0,0,0-.49-2.986,9.327,9.327,0,0,0-.892-1.917,14.1,14.1,0,0,1-.891,5.706c-1.114,2.629-5.616,13.327-5.616,13.327s-3.3-1.739-3.3-2.764,3.343-9.271,3.789-10.786a15.011,15.011,0,0,0,.624-5.349c-.089-2.451-.044-4.635-.044-4.635a8.089,8.089,0,0,1-.179-4.636C360.032,76.235,368.659,78.923,368.659,78.923Z" fill="#939393"/><path d="M368.659,78.923s-8.627-2.689-9.048-.49a8.089,8.089,0,0,0,.179,4.636s-.045,2.184.044,4.635a15.011,15.011,0,0,1-.624,5.349c-.446,1.515-3.789,9.761-3.789,10.786,0,.354.4.793.913,1.217,1.735-5.826,4.316-10.993,4.837-12.984.666-2.541,0-8.825,0-8.825s1.961,3.254,4.056,4.323a9.327,9.327,0,0,1,.892,1.917,4.547,4.547,0,0,1,.49,2.986c-.223,1.248-1.649,13.105-1.649,13.105l4.145-.4s2.764-11.989,2.719-13.772S368.659,78.923,368.659,78.923Z" fill="#787878"/><path d="M355.491,103.187a.149.149,0,0,1,.245-.118,2.568,2.568,0,0,0,1.593.668,1.384,1.384,0,0,0,1.48-1.126c.109-.345.446-.657,1.143-.2a38.339,38.339,0,0,0,4.309,2.055.409.409,0,0,1,.239.377V106.2a.3.3,0,0,1-.3.3H355.88a.379.379,0,0,1-.38-.378Z" fill="#6b6b6b"/><polygon points="365.283 60.281 366.854 60.95 367.891 64.644 365.183 61.367 365.283 60.281" fill="#d9d9d9"/><rect x="361.5" y="55.5" width="4" height="6" fill="#8d572e"/><path d="M367.087,50.78c.73,2.595,2.1,3.179,2.1,3.179s.155.425-.164.552-.93.36-.93.36l.218,1.944c.145,1.3-.167,1.572-1.07,1.623a11.361,11.361,0,0,1-3.31.054c-1.7-.249-2.692-1.823-3.726-4.735s3.229-4.112,4.79-4.363A1.967,1.967,0,0,1,367.087,50.78Z" fill="#8d572e"/><path d="M368.185,55.666a13.835,13.835,0,0,1-1.467-.129c-.315-.054-.362.006.134.352a5.727,5.727,0,0,0,1.441.742C368.25,56.248,368.214,55.923,368.185,55.666Z" fill="#f2f2f2"/><circle cx="367" cy="53" r="0.5"/><path d="M364.479,50.877a21.31,21.31,0,0,0,.439,2.887c.1.388-.316.434-.926-.048-1.232-.972-1.953-.167-1.206,1.032a2.186,2.186,0,0,1-.589,3.126,9.91,9.91,0,0,1-3.491-4.331c-1.124-2.83-.2-5.092,2.187-6.042s4.173.2,5.325.547a1.519,1.519,0,0,0,1.716-.481,3.558,3.558,0,0,1,.439,2.656c-.426,1.815-1.38,1.794-2.253,1.571A4.546,4.546,0,0,1,364.479,50.877Z" fill="#505050"/><path d="M365.935,61.415c2.29,2.123,3.176,4.78,3.727,11.8.331,4.209-.646,6.285-.646,6.285l-9.7-.017a25.207,25.207,0,0,1-.552-6.569c0-3.693.418-10.68,2.073-11.917S365.935,61.415,365.935,61.415Z" fill="#adadad"/><path d="M375.23,67.5l3.571-2.082s.862-2.543,1.1-3.012,1.036-.136.771.834-.7,2.309-.7,2.309l.652-.277.867-2.736S384.1,63.947,384,64.71c-.11.858-.692,2.471-1.625,2.75a8.22,8.22,0,0,1-2.162.161l-4.305,2.787Z" fill="#8d572e"/><path d="M372.614,69.675s-6.346-4.563-8.31-5.821c-2.654-1.7-5.027,1.611-2.3,3.523s6.251,4.477,8.064,5.65C372.833,74.816,375.062,71.377,372.614,69.675Z" fill="#939393"/><path d="M375.7,67.1c-2.27,1.143-4.158,1.863-5.008,2.485-2.545,1.86-.315,5.269,2.453,3.419,1.342-.9,2.893-1.912,4.336-2.866Z" fill="#939393"/><polygon points="361.472 59.462 366.386 61.117 366.654 64.393 360.737 61.401 361.472 59.462" fill="#d9d9d9"/><rect x="373.485" y="37.612" width="27.153" height="26.235" transform="translate(-0.233 99.646) rotate(-14.665)" fill="#006fc8"/><path d="M363.039,50.127c3.5-1.917,4.5-4.584,3.917-4.417a37.592,37.592,0,0,0-3.667,2.25Z" fill="#adadad"/><path d="M364.956,47.71l-5.25,7.667s-4-3.25-1.083-6.917A4.285,4.285,0,0,1,364.956,47.71Z" fill="#adadad"/><path d="M231.625,185.085s-.875-3.187-1.063-3.5,2.938-3.562,2.938-3.562v2.937s.562-1.062.812-1.437.875.125.875.125-1.125,4.5-1.25,5.312S231.625,185.085,231.625,185.085Z" fill="#8d572e"/><path d="M231.44,191.928a21.04,21.04,0,0,1,.227-7.548,16.314,16.314,0,0,1,2.843.219c.062,1.993.627,6.093.627,6.093S231.849,195.429,231.44,191.928Z" fill="#adadad"/><path d="M238.331,192.448l.962-3.882s-4.475,4.758-7.052,5.38a6.332,6.332,0,0,0,.632.7C233.934,195.67,237.678,192.845,238.331,192.448Z" fill="#939393"/><polygon points="503.5 242.5 555.5 242.5 555.5 269.5 582.5 269.5 582.5 216.5 503.5 216.5 503.5 242.5" fill="#724aad"/><rect x="529.5" y="163.5" width="27" height="27" transform="translate(1086 354) rotate(180)" fill="#724aad"/><polygon points="529.5 190.5 529.5 163.5 503.5 163.5 503.5 190.5 476.5 190.5 476.5 216.5 556.5 216.5 556.5 190.5 529.5 190.5" fill="#9080cf"/><rect x="502.5" y="106.5" width="26" height="27" transform="translate(1031 240) rotate(180)" fill="#b4a0ff"/><polygon points="555.5 132.5 502.5 132.5 502.5 106.5 476.5 106.5 476.5 159.5 555.5 159.5 555.5 132.5" fill="#9080cf"/><rect x="346.5" y="189.5" width="27" height="27" fill="#8fc3ec"/><polygon points="373.5 190.5 425.5 190.5 425.5 216.5 452.5 216.5 452.5 163.5 373.5 163.5 373.5 190.5" fill="#4393d4"/><polygon points="373.5 79.5 425.5 79.5 425.5 53.5 452.5 53.5 452.5 106.5 373.5 106.5 373.5 79.5" fill="#409ae1"/><path d="M365.491,103.187a.149.149,0,0,1,.245-.118,2.568,2.568,0,0,0,1.593.668,1.384,1.384,0,0,0,1.48-1.126c.109-.345.446-.657,1.143-.2a38.339,38.339,0,0,0,4.309,2.055.409.409,0,0,1,.239.377V106.2a.3.3,0,0,1-.3.3H365.88a.379.379,0,0,1-.38-.378Z" fill="#6b6b6b"/><rect x="424.5" y="216.5" width="27" height="27" transform="translate(876 460) rotate(180)" fill="#006fc8"/><polygon points="425.5 243.5 425.5 216.5 398.5 216.5 398.5 243.5 371.5 243.5 371.5 269.5 452.5 269.5 452.5 243.5 425.5 243.5" fill="#8fc3ec"/><path d="M238.208,201.481a95.61,95.61,0,0,1,1.8-15.824,69.965,69.965,0,0,0-2.732,10.579c-.455,3.884-.464,5.1-.464,5.1Z" fill="#939393"/><polygon points="248.811 202.507 236.991 201.379 237.026 200.2 249.025 201.307 248.811 202.507" fill="#939393"/></svg>