<svg id="Layer_1" data-name="Layer 1" xmlns="http://www.w3.org/2000/svg" xmlns:xlink="http://www.w3.org/1999/xlink" viewBox="0 0 636 300"><defs><style>.cls-1,.cls-20{fill:none;}.cls-2{fill:#b2b2b2;}.cls-3{fill:#231f20;}.cls-4{fill:#479cdf;}.cls-5{fill:#395b71;}.cls-6{fill:#8fc3ec;}.cls-7{fill:#f3f3f3;}.cls-8{fill:#939393;}.cls-9{fill:#f4eb7a;}.cls-10{fill:#fff;}.cls-11{fill:#f0e300;}.cls-12{fill:#505050;}.cls-13{fill:#409ae1;}.cls-14{clip-path:url(#clip-path);}.cls-15{fill:#d2d2d2;}.cls-16{fill:#d91021;}.cls-17{fill:#ee4d5a;}.cls-18{fill:#e89292;}.cls-19{fill:#b2d672;stroke:#91a80a;stroke-width:0.74px;}.cls-19,.cls-20{stroke-miterlimit:10;}.cls-20{stroke:#737373;}</style><clipPath id="clip-path"><rect class="cls-1" x="311.5" y="108.5" width="144.5" height="105"/></clipPath></defs><title>swimlane-vside-lightbulb-intellisense</title><path class="cls-2" d="M500.76,261.83H135.5a4.5,4.5,0,0,1-4.4-4.38,4.4,4.4,0,0,1,4.4-4.38H500.76a4.31,4.31,0,0,1,4.4,4.38,4.4,4.4,0,0,1-4.4,4.38Z"/><path class="cls-3" d="M467,245V46a8,8,0,0,0-8-8H176a8,8,0,0,0-8,8V245Z"/><rect class="cls-4" x="179" y="51" width="277" height="178"/><path class="cls-3" d="M490.72,254H145.49c-11.51,0-13.39-11-13.39-11h372S499.64,254,490.72,254Z"/><rect class="cls-5" x="316" y="45" width="5" height="4"/><polygon class="cls-6" points="456 51 331.73 51 456 172.44 456 51"/><rect class="cls-7" x="193" y="67" width="218" height="129"/><rect class="cls-8" x="205" y="81" width="23" height="21"/><rect class="cls-9" x="205" y="102" width="128" height="20"/><rect class="cls-2" x="233" y="92" width="96" height="7"/><rect class="cls-2" x="242" y="126" width="96" height="7"/><rect class="cls-2" x="271" y="81" width="126" height="7"/><rect class="cls-10" x="297" y="104" width="15" height="15"/><path class="cls-11" d="M216.44,83A5.44,5.44,0,0,0,211,88.45a5.38,5.38,0,0,0,1.05,3.2h0c1,1.65,1.84,2.71,2,3.9h4.79a10.43,10.43,0,0,1,1.91-3.77s0,0,0,0A5.44,5.44,0,0,0,216.44,83Z"/><rect class="cls-12" x="214.07" y="96.14" width="4.74" height="1.18"/><polygon class="cls-12" points="214.96 99.11 217.92 99.11 218.81 97.92 214.07 97.92 214.96 99.11"/><rect class="cls-2" x="212" y="108" width="78" height="7"/><rect class="cls-2" x="226" y="146" width="96" height="7"/><rect class="cls-2" x="240" y="174" width="67" height="7"/><rect class="cls-13" x="210" y="174" width="25" height="7"/><polygon class="cls-12" points="302 116 302 108 307 112 302 116"/><g class="cls-14"><rect class="cls-10" x="311" y="108" width="286" height="105"/><rect class="cls-15" x="311" y="182" width="286" height="31"/><rect class="cls-15" x="311" y="108" width="286" height="20"/><circle class="cls-16" cx="324" cy="118" r="6"/><polygon class="cls-10" points="327.42 115.7 326.38 114.66 324.07 116.97 321.75 114.66 320.71 115.7 323.03 118.01 320.71 120.33 321.75 121.37 324.07 119.05 326.38 121.37 327.42 120.33 325.11 118.01 327.42 115.7"/><rect class="cls-13" x="335" y="114" width="32" height="7"/><rect class="cls-2" x="373" y="114" width="104" height="7"/><rect class="cls-2" x="385" y="155" width="185" height="7"/><rect class="cls-13" x="318" y="187" width="61" height="7"/><rect class="cls-2" x="318" y="169" width="61" height="7"/><rect class="cls-8" x="318" y="199" width="78" height="7"/><rect class="cls-13" x="402" y="199" width="105" height="7"/><rect class="cls-17" x="319" y="142" width="16" height="11"/><rect class="cls-18" x="335" y="142" width="201" height="11"/><rect class="cls-19" x="319.5" y="153.5" width="59" height="12"/></g><polyline class="cls-20" points="456.04 213 312 213 312 108.5"/><rect class="cls-13" x="233" y="81" width="32" height="7"/><polyline class="cls-20" points="193 67 193 196 312.08 196"/></svg>