<svg width="636" height="300" viewBox="0 0 636 300" fill="none" xmlns="http://www.w3.org/2000/svg">
<path d="M561.5 89.4399V104.76C561.5 111.76 555.82 117.44 548.82 117.44H88.81C81.18 117.44 75 111.26 75 103.63V85.4399" stroke="#939393" stroke-width="1.5" stroke-miterlimit="10" stroke-linecap="round" stroke-linejoin="round" stroke-dasharray="3 3"/>
<path d="M561.15 91.8999C585.578 91.8999 605.38 72.0975 605.38 47.6699C605.38 23.2424 585.578 3.43994 561.15 3.43994C536.722 3.43994 516.92 23.2424 516.92 47.6699C516.92 72.0975 536.722 91.8999 561.15 91.8999Z" fill="#0090DB"/>
<path d="M74.98 91.8999C99.4076 91.8999 119.21 72.0975 119.21 47.6699C119.21 23.2424 99.4076 3.43994 74.98 3.43994C50.5524 3.43994 30.75 23.2424 30.75 47.6699C30.75 72.0975 50.5524 91.8999 74.98 91.8999Z" fill="#939393"/>
<path d="M315.929 91.8999C340.357 91.8999 360.159 72.0975 360.159 47.6699C360.159 23.2424 340.357 3.43994 315.929 3.43994C291.502 3.43994 271.699 23.2424 271.699 47.6699C271.699 72.0975 291.502 91.8999 315.929 91.8999Z" fill="#82B941"/>
<path d="M315.93 91.8999V141.84" stroke="#939393" stroke-width="1.5" stroke-miterlimit="10" stroke-linecap="round" stroke-linejoin="round" stroke-dasharray="3 3"/>
<path d="M54.8091 36.6101C54.3191 36.6101 53.8991 36.4401 53.5591 36.1101C53.2191 35.7801 53.0391 35.3601 53.0391 34.8401C53.0391 34.3301 53.2091 33.9001 53.5591 33.5701C53.8991 33.2301 54.3191 33.0601 54.8091 33.0601C55.3091 33.0601 55.7291 33.2301 56.0791 33.5701C56.4291 33.9101 56.5991 34.3301 56.5991 34.8401C56.5991 35.3301 56.4291 35.7501 56.0791 36.0901C55.7391 36.4401 55.3091 36.6101 54.8091 36.6101ZM56.1391 58.0001H53.4091V40.9401H56.1391V58.0001Z" fill="white"/>
<path d="M71.6687 58.4C68.2787 58.4 65.5687 57.28 63.5287 55.05C61.4887 52.82 60.4688 49.91 60.4688 46.34C60.4688 42.5 61.5087 39.43 63.5887 37.14C65.6687 34.85 68.4887 33.71 72.0687 33.71C75.3687 33.71 78.0287 34.82 80.0387 37.04C82.0588 39.26 83.0587 42.17 83.0587 45.75C83.0587 49.65 82.0287 52.73 79.9587 55C77.8987 57.27 75.1287 58.4 71.6687 58.4ZM71.8688 36.24C69.3588 36.24 67.3188 37.15 65.7588 38.96C64.1888 40.77 63.4087 43.15 63.4087 46.09C63.4087 49.03 64.1687 51.4 65.6987 53.19C67.2287 54.98 69.2187 55.88 71.6687 55.88C74.2887 55.88 76.3588 55.03 77.8688 53.31C79.3788 51.6 80.1387 49.21 80.1387 46.13C80.1387 42.98 79.4088 40.54 77.9388 38.82C76.4688 37.11 74.4488 36.24 71.8688 36.24Z" fill="white"/>
<path d="M86.6484 57.03V53.73C87.0284 54.06 87.4784 54.36 88.0084 54.63C88.5384 54.9 89.0884 55.12 89.6784 55.3C90.2584 55.48 90.8484 55.62 91.4384 55.72C92.0284 55.82 92.5684 55.87 93.0684 55.87C94.7884 55.87 96.0784 55.55 96.9284 54.91C97.7784 54.27 98.1984 53.35 98.1984 52.15C98.1984 51.51 98.0584 50.95 97.7784 50.47C97.4984 49.99 97.1084 49.56 96.6084 49.16C96.1084 48.77 95.5184 48.39 94.8384 48.03C94.1584 47.67 93.4184 47.29 92.6284 46.89C91.7984 46.47 91.0184 46.04 90.2984 45.61C89.5784 45.18 88.9484 44.7 88.4184 44.18C87.8884 43.66 87.4684 43.07 87.1584 42.41C86.8484 41.75 86.6984 40.97 86.6984 40.09C86.6984 39 86.9384 38.06 87.4184 37.25C87.8984 36.45 88.5184 35.78 89.2984 35.26C90.0784 34.74 90.9584 34.35 91.9584 34.09C92.9484 33.83 93.9684 33.71 94.9984 33.71C97.3484 33.71 99.0684 33.99 100.148 34.56V37.71C98.7384 36.73 96.9284 36.24 94.7184 36.24C94.1084 36.24 93.4984 36.3 92.8884 36.43C92.2784 36.56 91.7284 36.77 91.2584 37.05C90.7784 37.34 90.3884 37.71 90.0884 38.17C89.7884 38.63 89.6384 39.18 89.6384 39.84C89.6384 40.45 89.7484 40.98 89.9784 41.42C90.2084 41.86 90.5384 42.27 90.9884 42.64C91.4284 43.01 91.9784 43.36 92.6084 43.71C93.2484 44.05 93.9784 44.43 94.8184 44.84C95.6684 45.26 96.4884 45.71 97.2484 46.17C98.0184 46.64 98.6884 47.15 99.2684 47.72C99.8484 48.29 100.308 48.91 100.638 49.6C100.978 50.29 101.148 51.08 101.148 51.97C101.148 53.15 100.918 54.14 100.458 54.96C99.9984 55.78 99.3784 56.44 98.5884 56.95C97.8084 57.46 96.8984 57.83 95.8784 58.06C94.8584 58.29 93.7784 58.4 92.6484 58.4C92.2684 58.4 91.8084 58.37 91.2484 58.31C90.6884 58.25 90.1284 58.16 89.5484 58.04C88.9684 57.92 88.4284 57.78 87.9084 57.61C87.3684 57.44 86.9584 57.25 86.6484 57.03Z" fill="white"/>
<path d="M320.94 26.6299L323.12 22.5599C323.24 22.3399 323.16 22.0399 322.93 21.9199C322.86 21.8799 322.79 21.8499 322.71 21.8499C322.55 21.8499 322.39 21.9299 322.31 22.0899L320.12 26.1299C318.44 25.3499 316.56 24.9099 314.58 24.9099C312.61 24.9099 310.74 25.3399 309.06 26.1199L306.88 22.0799C306.76 21.8599 306.48 21.7699 306.26 21.8899C306.04 22.0099 305.95 22.2899 306.07 22.5099L308.24 26.6099C304.42 28.7199 302.04 32.6399 301.75 37.3799H328.12C327.85 32.6499 324.75 28.7399 320.94 26.6299ZM308.53 32.2599C307.82 32.2599 307.24 31.6799 307.24 30.9699C307.24 30.2599 307.82 29.6799 308.53 29.6799C309.24 29.6799 309.82 30.2599 309.82 30.9699C309.81 31.6799 309.24 32.2599 308.53 32.2599ZM320.66 32.2599C319.95 32.2599 319.37 31.6799 319.37 30.9699C319.37 30.2599 319.95 29.6799 320.66 29.6799C321.37 29.6799 321.95 30.2599 321.95 30.9699C321.95 31.6799 321.37 32.2599 320.66 32.2599Z" fill="white"/>
<path d="M300.891 40.5297C300.891 38.9097 299.491 37.7197 297.931 37.7197C296.371 37.7197 294.971 39.0697 294.971 40.4197V53.0497C294.971 54.3997 296.371 55.7097 297.931 55.7097C299.491 55.7097 300.891 54.3997 300.891 52.8497V40.5297Z" fill="white"/>
<path d="M335.26 40.5297C335.26 38.9197 333.86 37.7197 332.3 37.7197C330.74 37.7197 329.34 39.0697 329.34 40.4197V53.0497C329.34 54.3997 330.74 55.7097 332.3 55.7097C333.86 55.7097 335.26 54.3997 335.26 52.8497V40.5297Z" fill="white"/>
<path d="M302.08 38.5698V57.2098C302.08 59.5998 303.11 61.0898 305.91 61.0898H307.89L307.9 67.2198C308 68.5698 309.35 69.7698 310.92 69.7698C312.48 69.7698 313.94 68.3598 313.94 66.8098V61.9098L317.9 61.9198L317.86 67.0198C317.96 68.3698 319.08 69.6698 320.64 69.6698C322.2 69.6698 323.42 68.3498 323.42 66.7998V61.0798H324.44C326.19 61.0798 328.16 60.3898 328.16 57.1998V38.5698H302.08Z" fill="white"/>
<path d="M529.571 59.4497C529.061 59.4497 528.621 59.2697 528.261 58.8997C527.901 58.5297 527.721 58.0997 527.721 57.5797C527.721 57.0697 527.901 56.6297 528.261 56.2597C528.621 55.8897 529.061 55.6997 529.571 55.6997C530.091 55.6997 530.541 55.8897 530.901 56.2597C531.271 56.6297 531.451 57.0697 531.451 57.5797C531.451 58.0897 531.271 58.5297 530.901 58.8997C530.541 59.2697 530.091 59.4497 529.571 59.4497Z" fill="white"/>
<path d="M555.641 59.0797H552.211L539.921 40.0397C539.611 39.5597 539.351 39.0597 539.151 38.5397H539.051C539.141 39.0497 539.181 40.1397 539.181 41.8197V59.0797H536.381V35.1997H540.011L551.971 53.9397C552.471 54.7197 552.791 55.2497 552.941 55.5397H553.011C552.901 54.8497 552.841 53.6797 552.841 52.0197V35.1997H555.641V59.0797Z" fill="white"/>
<path d="M574.57 59.0797H561.91V35.1997H574.04V37.7297H564.71V45.6797H573.34V48.1997H564.71V56.5597H574.57V59.0797Z" fill="white"/>
<path d="M593.361 37.7297H586.461V59.0897H583.661V37.7297H576.781V35.1997H593.361V37.7297Z" fill="white"/>
<path d="M440.63 296.44H189.82C179 296.44 170.23 287.67 170.23 276.85V158.24C170.23 147.42 179 138.65 189.82 138.65H440.63C451.451 138.65 460.22 147.42 460.22 158.24V276.85C460.22 287.67 451.451 296.44 440.63 296.44Z" fill="#D2D2D2"/>
<path d="M241.539 184.59V181.29C241.919 181.62 242.369 181.92 242.899 182.19C243.429 182.46 243.979 182.68 244.569 182.86C245.149 183.04 245.739 183.18 246.329 183.28C246.919 183.38 247.459 183.43 247.959 183.43C249.679 183.43 250.969 183.11 251.819 182.47C252.669 181.83 253.089 180.91 253.089 179.71C253.089 179.07 252.949 178.5 252.669 178.03C252.389 177.56 251.999 177.12 251.499 176.72C250.999 176.33 250.409 175.95 249.729 175.59C249.049 175.23 248.309 174.85 247.519 174.45C246.689 174.03 245.909 173.6 245.189 173.17C244.469 172.74 243.839 172.26 243.309 171.74C242.779 171.22 242.359 170.63 242.049 169.97C241.739 169.31 241.589 168.53 241.589 167.65C241.589 166.56 241.829 165.61 242.309 164.81C242.789 164.01 243.409 163.34 244.189 162.82C244.969 162.3 245.849 161.91 246.849 161.65C247.839 161.39 248.859 161.27 249.889 161.27C252.239 161.27 253.959 161.55 255.039 162.12V165.27C253.629 164.29 251.819 163.8 249.609 163.8C248.999 163.8 248.389 163.86 247.779 163.99C247.169 164.12 246.619 164.33 246.149 164.61C245.669 164.9 245.279 165.27 244.979 165.73C244.679 166.19 244.529 166.74 244.529 167.4C244.529 168.01 244.639 168.54 244.869 168.98C245.099 169.42 245.429 169.83 245.879 170.2C246.319 170.57 246.869 170.92 247.499 171.27C248.139 171.61 248.869 171.99 249.709 172.4C250.559 172.82 251.379 173.27 252.139 173.73C252.909 174.2 253.579 174.71 254.159 175.28C254.739 175.85 255.199 176.47 255.529 177.16C255.869 177.85 256.039 178.64 256.039 179.53C256.039 180.71 255.809 181.7 255.349 182.52C254.889 183.34 254.269 184 253.479 184.51C252.699 185.02 251.789 185.39 250.769 185.62C249.749 185.85 248.669 185.96 247.539 185.96C247.159 185.96 246.699 185.93 246.139 185.87C245.579 185.81 245.019 185.72 244.439 185.6C243.859 185.48 243.319 185.34 242.799 185.17C242.259 184.99 241.849 184.8 241.539 184.59Z" fill="#505050"/>
<path d="M274.568 185.56H271.838V175.73C271.838 172.18 270.518 170.4 267.878 170.4C266.548 170.4 265.428 170.91 264.508 171.94C263.598 172.97 263.138 174.29 263.138 175.9V185.56H260.408V160.3H263.138V171.33H263.208C264.518 169.18 266.388 168.1 268.808 168.1C272.648 168.1 274.568 170.42 274.568 175.05V185.56Z" fill="#505050"/>
<path d="M291.929 185.56H289.199V182.89H289.129C287.939 184.93 286.189 185.96 283.879 185.96C282.179 185.96 280.849 185.51 279.889 184.61C278.929 183.71 278.449 182.52 278.449 181.03C278.449 177.84 280.329 175.99 284.079 175.47L289.189 174.75C289.189 171.85 288.019 170.4 285.669 170.4C283.619 170.4 281.759 171.1 280.109 172.5V169.7C281.789 168.63 283.719 168.1 285.909 168.1C289.919 168.1 291.919 170.22 291.919 174.46V185.56H291.929ZM289.199 176.93L285.089 177.5C283.819 177.68 282.869 177.99 282.219 178.44C281.569 178.89 281.249 179.69 281.249 180.83C281.249 181.66 281.549 182.34 282.139 182.87C282.729 183.4 283.529 183.66 284.509 183.66C285.859 183.66 286.979 183.18 287.869 182.24C288.749 181.29 289.189 180.09 289.189 178.63V176.93H289.199Z" fill="#505050"/>
<path d="M305.98 171.26C305.5 170.89 304.81 170.71 303.91 170.71C302.74 170.71 301.77 171.26 300.99 172.36C300.21 173.46 299.82 174.96 299.82 176.86V185.56H297.09V168.5H299.82V172.02H299.89C300.28 170.82 300.87 169.88 301.67 169.21C302.47 168.54 303.36 168.2 304.35 168.2C305.06 168.2 305.6 168.28 305.98 168.43V171.26Z" fill="#505050"/>
<path d="M322.198 177.71H310.158C310.198 179.61 310.718 181.07 311.688 182.11C312.668 183.14 314.008 183.66 315.718 183.66C317.638 183.66 319.408 183.03 321.018 181.76V184.33C319.518 185.42 317.538 185.96 315.068 185.96C312.658 185.96 310.768 185.19 309.388 183.64C308.008 182.09 307.318 179.91 307.318 177.1C307.318 174.45 308.068 172.28 309.578 170.61C311.088 168.94 312.948 168.1 315.188 168.1C317.418 168.1 319.148 168.82 320.368 170.27C321.588 171.71 322.198 173.72 322.198 176.28V177.71ZM319.398 175.4C319.388 173.82 319.008 172.6 318.258 171.72C317.508 170.84 316.468 170.4 315.138 170.4C313.848 170.4 312.758 170.86 311.858 171.78C310.958 172.7 310.398 173.91 310.188 175.39H319.398V175.4Z" fill="#505050"/>
<path d="M340.89 185.56H338.16V182.66H338.09C336.82 184.86 334.87 185.96 332.23 185.96C330.09 185.96 328.37 185.2 327.09 183.67C325.81 182.14 325.17 180.06 325.17 177.43C325.17 174.61 325.88 172.35 327.3 170.65C328.72 168.95 330.62 168.1 332.98 168.1C335.32 168.1 337.03 169.02 338.09 170.87H338.16V160.3H340.89V185.56ZM338.16 177.84V175.32C338.16 173.94 337.7 172.78 336.79 171.82C335.88 170.87 334.72 170.39 333.33 170.39C331.66 170.39 330.35 171 329.4 172.22C328.45 173.44 327.97 175.13 327.97 177.28C327.97 179.25 328.43 180.8 329.34 181.94C330.26 183.08 331.49 183.65 333.03 183.65C334.55 183.65 335.79 183.1 336.74 182C337.69 180.91 338.16 179.52 338.16 177.84Z" fill="#505050"/>
<path d="M372.389 184.56C370.619 185.49 368.429 185.96 365.789 185.96C362.389 185.96 359.669 184.87 357.629 182.68C355.589 180.49 354.559 177.62 354.559 174.07C354.559 170.25 355.709 167.16 358.009 164.81C360.309 162.46 363.219 161.28 366.759 161.28C369.029 161.28 370.899 161.61 372.389 162.26V165.24C370.679 164.28 368.789 163.81 366.729 163.81C363.989 163.81 361.759 164.73 360.059 166.56C358.349 168.39 357.499 170.84 357.499 173.91C357.499 176.82 358.299 179.14 359.889 180.87C361.479 182.6 363.569 183.46 366.159 183.46C368.559 183.46 370.639 182.93 372.389 181.86V184.56Z" fill="#505050"/>
<path d="M393.55 168.37L393.17 170.14H388.82L387.77 175.14H392.45L392 176.91H387.42L385.95 183.52H383.85L385.28 176.91H381.11L379.71 183.52H377.63L379.03 176.91H374.67L375 175.14H379.41L380.43 170.14H375.82L376.17 168.37H380.78L382.18 161.67H384.28L382.88 168.37H387.08L388.51 161.67H390.56L389.16 168.37H393.55ZM386.75 170.13H382.55L381.45 175.13H385.68L386.75 170.13Z" fill="#505050"/>
<path d="M264.451 221.81V209.87H268.241C269.391 209.87 270.311 210.12 270.981 210.63C271.651 211.14 271.991 211.79 271.991 212.6C271.991 213.28 271.801 213.87 271.421 214.37C271.041 214.87 270.511 215.22 269.831 215.44V215.47C270.651 215.56 271.311 215.87 271.801 216.38C272.291 216.89 272.541 217.56 272.541 218.38C272.541 219.4 272.141 220.23 271.331 220.86C270.521 221.49 269.511 221.81 268.281 221.81H264.451ZM266.431 211.45V214.85H267.711C268.401 214.85 268.941 214.69 269.331 214.36C269.721 214.03 269.921 213.58 269.921 212.98C269.921 211.96 269.241 211.45 267.871 211.45H266.431ZM266.431 216.44V220.22H268.121C268.861 220.22 269.431 220.05 269.831 219.71C270.231 219.37 270.431 218.9 270.431 218.3C270.431 217.06 269.571 216.44 267.861 216.44H266.431Z" fill="#505050"/>
<path d="M281.981 221.81H280.051V220.46H280.021C279.461 221.49 278.591 222.01 277.401 222.01C275.381 222.01 274.381 220.8 274.381 218.38V213.28H276.311V218.18C276.311 219.71 276.901 220.48 278.081 220.48C278.651 220.48 279.121 220.27 279.491 219.85C279.861 219.43 280.041 218.88 280.041 218.19V213.28H281.971V221.81H281.981Z" fill="#505050"/>
<path d="M283.961 221.54V219.75C284.681 220.3 285.481 220.57 286.351 220.57C287.521 220.57 288.101 220.23 288.101 219.54C288.101 219.35 288.051 219.18 287.951 219.04C287.851 218.9 287.721 218.78 287.551 218.68C287.381 218.58 287.181 218.48 286.951 218.4C286.721 218.32 286.461 218.22 286.181 218.12C285.831 217.98 285.511 217.83 285.231 217.68C284.951 217.52 284.721 217.35 284.531 217.15C284.341 216.95 284.201 216.73 284.111 216.48C284.021 216.23 283.971 215.94 283.971 215.61C283.971 215.2 284.071 214.84 284.261 214.52C284.451 214.21 284.721 213.94 285.041 213.73C285.361 213.52 285.741 213.35 286.161 213.25C286.581 213.15 287.011 213.09 287.451 213.09C288.241 213.09 288.941 213.21 289.571 213.45V215.14C288.971 214.73 288.281 214.52 287.501 214.52C287.261 214.52 287.031 214.54 286.841 214.59C286.641 214.64 286.471 214.71 286.341 214.8C286.201 214.89 286.091 215 286.021 215.12C285.941 215.24 285.901 215.38 285.901 215.53C285.901 215.71 285.941 215.87 286.021 216C286.101 216.13 286.211 216.24 286.371 216.34C286.521 216.44 286.711 216.53 286.921 216.61C287.131 216.69 287.381 216.78 287.661 216.87C288.031 217.02 288.361 217.17 288.651 217.33C288.941 217.49 289.191 217.66 289.401 217.86C289.611 218.06 289.761 218.28 289.881 218.54C289.991 218.8 290.051 219.11 290.051 219.46C290.051 219.89 289.951 220.27 289.751 220.59C289.551 220.91 289.281 221.18 288.951 221.39C288.621 221.6 288.231 221.76 287.801 221.86C287.371 221.96 286.901 222.01 286.421 222.01C285.451 222.01 284.641 221.85 283.961 221.54Z" fill="#505050"/>
<path d="M292.82 211.49C292.5 211.49 292.23 211.39 292.01 211.18C291.79 210.97 291.67 210.71 291.67 210.4C291.67 210.08 291.78 209.82 292.01 209.61C292.24 209.4 292.51 209.29 292.82 209.29C293.15 209.29 293.42 209.4 293.65 209.61C293.88 209.82 293.99 210.08 293.99 210.4C293.99 210.7 293.88 210.96 293.65 211.17C293.43 211.38 293.15 211.49 292.82 211.49ZM293.78 221.81H291.85V213.28H293.78V221.81Z" fill="#505050"/>
<path d="M303.901 221.81H301.971V217C301.971 215.41 301.411 214.61 300.281 214.61C299.691 214.61 299.211 214.83 298.821 215.27C298.441 215.71 298.251 216.27 298.251 216.94V221.8H296.311V213.27H298.251V214.69H298.281C298.921 213.61 299.841 213.07 301.051 213.07C301.981 213.07 302.691 213.37 303.171 213.97C303.661 214.57 303.901 215.44 303.901 216.58V221.81Z" fill="#505050"/>
<path d="M313.481 218.07H307.671C307.691 218.86 307.941 219.47 308.401 219.89C308.861 220.32 309.501 220.53 310.311 220.53C311.221 220.53 312.061 220.26 312.821 219.71V221.27C312.041 221.76 311.021 222 309.741 222C308.491 222 307.501 221.61 306.791 220.84C306.081 220.07 305.721 218.98 305.721 217.57C305.721 216.24 306.111 215.16 306.901 214.33C307.691 213.49 308.661 213.08 309.831 213.08C311.001 213.08 311.901 213.45 312.541 214.2C313.181 214.95 313.501 215.99 313.501 217.32V218.07H313.481ZM311.621 216.7C311.611 216.01 311.451 215.47 311.131 215.08C310.811 214.69 310.361 214.5 309.801 214.5C309.241 214.5 308.771 214.7 308.391 215.11C308.001 215.52 307.771 216.05 307.681 216.7H311.621Z" fill="#505050"/>
<path d="M314.791 221.54V219.75C315.511 220.3 316.311 220.57 317.181 220.57C318.351 220.57 318.931 220.23 318.931 219.54C318.931 219.35 318.881 219.18 318.781 219.04C318.681 218.9 318.551 218.78 318.381 218.68C318.211 218.58 318.011 218.48 317.781 218.4C317.551 218.32 317.291 218.22 317.011 218.12C316.661 217.98 316.341 217.83 316.061 217.68C315.781 217.52 315.551 217.35 315.361 217.15C315.171 216.95 315.031 216.73 314.941 216.48C314.851 216.23 314.801 215.94 314.801 215.61C314.801 215.2 314.901 214.84 315.091 214.52C315.281 214.21 315.551 213.94 315.871 213.73C316.191 213.52 316.571 213.35 316.991 213.25C317.411 213.15 317.841 213.09 318.281 213.09C319.071 213.09 319.771 213.21 320.401 213.45V215.14C319.801 214.73 319.111 214.52 318.331 214.52C318.091 214.52 317.861 214.54 317.671 214.59C317.471 214.64 317.301 214.71 317.171 214.8C317.031 214.89 316.921 215 316.851 215.12C316.771 215.24 316.731 215.38 316.731 215.53C316.731 215.71 316.771 215.87 316.851 216C316.931 216.13 317.041 216.24 317.201 216.34C317.351 216.44 317.541 216.53 317.751 216.61C317.961 216.69 318.211 216.78 318.491 216.87C318.861 217.02 319.191 217.17 319.481 217.33C319.771 217.49 320.021 217.66 320.231 217.86C320.441 218.06 320.591 218.28 320.711 218.54C320.821 218.8 320.881 219.11 320.881 219.46C320.881 219.89 320.781 220.27 320.581 220.59C320.381 220.91 320.111 221.18 319.781 221.39C319.451 221.6 319.061 221.76 318.631 221.86C318.201 221.96 317.731 222.01 317.251 222.01C316.281 222.01 315.471 221.85 314.791 221.54Z" fill="#505050"/>
<path d="M322.141 221.54V219.75C322.861 220.3 323.661 220.57 324.531 220.57C325.701 220.57 326.281 220.23 326.281 219.54C326.281 219.35 326.231 219.18 326.131 219.04C326.031 218.9 325.901 218.78 325.731 218.68C325.561 218.58 325.361 218.48 325.131 218.4C324.901 218.32 324.641 218.22 324.361 218.12C324.011 217.98 323.691 217.83 323.411 217.68C323.131 217.52 322.901 217.35 322.711 217.15C322.521 216.95 322.381 216.73 322.291 216.48C322.201 216.23 322.151 215.94 322.151 215.61C322.151 215.2 322.251 214.84 322.441 214.52C322.631 214.21 322.901 213.94 323.221 213.73C323.541 213.52 323.921 213.35 324.341 213.25C324.761 213.15 325.191 213.09 325.631 213.09C326.421 213.09 327.121 213.21 327.751 213.45V215.14C327.151 214.73 326.461 214.52 325.681 214.52C325.441 214.52 325.211 214.54 325.021 214.59C324.821 214.64 324.651 214.71 324.521 214.8C324.381 214.89 324.271 215 324.201 215.12C324.121 215.24 324.081 215.38 324.081 215.53C324.081 215.71 324.121 215.87 324.201 216C324.281 216.13 324.391 216.24 324.551 216.34C324.701 216.44 324.891 216.53 325.101 216.61C325.311 216.69 325.561 216.78 325.841 216.87C326.211 217.02 326.541 217.17 326.831 217.33C327.121 217.49 327.371 217.66 327.581 217.86C327.791 218.06 327.941 218.28 328.061 218.54C328.171 218.8 328.231 219.11 328.231 219.46C328.231 219.89 328.131 220.27 327.931 220.59C327.731 220.91 327.461 221.18 327.131 221.39C326.801 221.6 326.411 221.76 325.981 221.86C325.551 221.96 325.081 222.01 324.601 222.01C323.631 222.01 322.831 221.85 322.141 221.54Z" fill="#505050"/>
<path d="M341.549 221.81H334.939V209.87H336.919V220.14H341.549V221.81Z" fill="#505050"/>
<path d="M346.84 222.01C345.52 222.01 344.47 221.61 343.69 220.81C342.9 220.01 342.51 218.96 342.51 217.64C342.51 216.21 342.92 215.09 343.74 214.28C344.56 213.47 345.66 213.07 347.05 213.07C348.38 213.07 349.42 213.46 350.17 214.24C350.91 215.02 351.29 216.11 351.29 217.5C351.29 218.86 350.89 219.95 350.09 220.77C349.27 221.6 348.2 222.01 346.84 222.01ZM346.93 214.62C346.17 214.62 345.58 214.88 345.14 215.41C344.7 215.94 344.48 216.66 344.48 217.59C344.48 218.48 344.7 219.19 345.15 219.7C345.59 220.21 346.19 220.47 346.93 220.47C347.69 220.47 348.28 220.22 348.68 219.71C349.09 219.21 349.29 218.49 349.29 217.55C349.29 216.61 349.09 215.89 348.68 215.38C348.27 214.87 347.69 214.62 346.93 214.62Z" fill="#505050"/>
<path d="M361.011 221.12C361.011 224.25 359.441 225.82 356.291 225.82C355.181 225.82 354.211 225.63 353.381 225.26V223.49C354.311 224.02 355.201 224.29 356.041 224.29C358.071 224.29 359.081 223.29 359.081 221.3V220.37H359.051C358.411 221.46 357.451 222 356.171 222C355.131 222 354.291 221.62 353.661 220.86C353.031 220.1 352.711 219.08 352.711 217.81C352.711 216.36 353.051 215.21 353.731 214.35C354.411 213.49 355.351 213.07 356.551 213.07C357.681 213.07 358.511 213.53 359.061 214.45H359.091V213.27H361.021V221.12H361.011ZM359.091 217.9V216.79C359.091 216.19 358.891 215.68 358.491 215.25C358.091 214.82 357.601 214.61 357.001 214.61C356.271 214.61 355.691 214.88 355.281 215.42C354.871 215.96 354.661 216.72 354.661 217.69C354.661 218.53 354.861 219.2 355.261 219.7C355.661 220.2 356.181 220.45 356.841 220.45C357.511 220.45 358.051 220.21 358.461 219.73C358.871 219.25 359.091 218.65 359.091 217.9Z" fill="#505050"/>
<path d="M364.5 211.49C364.18 211.49 363.91 211.39 363.69 211.18C363.47 210.97 363.35 210.71 363.35 210.4C363.35 210.08 363.46 209.82 363.69 209.61C363.92 209.4 364.19 209.29 364.5 209.29C364.83 209.29 365.1 209.4 365.33 209.61C365.56 209.82 365.67 210.08 365.67 210.4C365.67 210.7 365.56 210.96 365.33 211.17C365.1 211.38 364.83 211.49 364.5 211.49ZM365.46 221.81H363.53V213.28H365.46V221.81Z" fill="#505050"/>
<path d="M374.09 221.42C373.41 221.81 372.6 222.01 371.67 222.01C370.4 222.01 369.38 221.61 368.6 220.82C367.82 220.03 367.43 219 367.43 217.74C367.43 216.34 367.85 215.21 368.68 214.35C369.52 213.5 370.63 213.07 372.03 213.07C372.81 213.07 373.49 213.21 374.09 213.48V215.28C373.5 214.84 372.86 214.61 372.19 214.61C371.37 214.61 370.7 214.89 370.18 215.44C369.66 215.99 369.4 216.72 369.4 217.61C369.4 218.49 369.65 219.19 370.14 219.7C370.63 220.21 371.29 220.47 372.12 220.47C372.81 220.47 373.47 220.22 374.09 219.73V221.42Z" fill="#505050"/>
<path d="M266.431 243.06V247.39H264.461V235.45H268.081C269.451 235.45 270.521 235.77 271.271 236.41C272.031 237.05 272.401 237.95 272.401 239.11C272.401 240.27 272.011 241.22 271.221 241.96C270.431 242.7 269.371 243.07 268.021 243.07H266.431V243.06ZM266.431 237.08V241.44H267.711C268.561 241.44 269.211 241.24 269.651 240.85C270.091 240.46 270.321 239.9 270.321 239.18C270.321 237.78 269.501 237.07 267.871 237.07H266.431V237.08Z" fill="#505050"/>
<path d="M276.151 247.4H274.211V234.77H276.151V247.4Z" fill="#505050"/>
<path d="M285.211 247.4H283.341V246.07H283.311C282.721 247.09 281.861 247.6 280.721 247.6C279.881 247.6 279.221 247.37 278.751 246.92C278.281 246.46 278.041 245.86 278.041 245.11C278.041 243.5 278.971 242.56 280.821 242.29L283.351 241.93C283.351 240.71 282.771 240.11 281.621 240.11C280.601 240.11 279.691 240.46 278.871 241.16V239.47C279.771 238.94 280.811 238.67 281.991 238.67C284.141 238.67 285.221 239.73 285.221 241.85V247.4H285.211ZM283.341 243.21L281.551 243.46C280.991 243.53 280.581 243.67 280.301 243.86C280.021 244.06 279.881 244.4 279.881 244.9C279.881 245.26 280.011 245.56 280.271 245.79C280.531 246.02 280.871 246.14 281.311 246.14C281.901 246.14 282.391 245.93 282.771 245.52C283.161 245.11 283.351 244.59 283.351 243.96V243.21H283.341Z" fill="#505050"/>
<path d="M292.07 247.3C291.69 247.49 291.19 247.58 290.58 247.58C288.93 247.58 288.1 246.79 288.1 245.2V240.38H286.68V238.86H288.1V236.89L290.03 236.34V238.86H292.07V240.38H290.03V244.64C290.03 245.15 290.12 245.51 290.3 245.72C290.48 245.94 290.79 246.05 291.22 246.05C291.55 246.05 291.83 245.96 292.07 245.77V247.3Z" fill="#505050"/>
<path d="M298.551 236.34C298.291 236.19 297.991 236.12 297.661 236.12C296.721 236.12 296.251 236.65 296.251 237.71V238.87H298.231V240.39H296.261V247.4H294.331V240.39H292.871V238.87H294.331V237.49C294.331 236.59 294.621 235.88 295.211 235.36C295.801 234.84 296.531 234.58 297.421 234.58C297.901 234.58 298.271 234.63 298.551 234.74V236.34Z" fill="#505050"/>
<path d="M303.391 247.6C302.071 247.6 301.021 247.2 300.241 246.4C299.451 245.6 299.061 244.55 299.061 243.23C299.061 241.8 299.471 240.68 300.291 239.87C301.111 239.06 302.211 238.66 303.601 238.66C304.931 238.66 305.971 239.05 306.721 239.83C307.461 240.61 307.841 241.7 307.841 243.09C307.841 244.45 307.441 245.54 306.641 246.36C305.831 247.19 304.751 247.6 303.391 247.6ZM303.481 240.21C302.721 240.21 302.131 240.47 301.691 241C301.251 241.53 301.031 242.25 301.031 243.18C301.031 244.07 301.251 244.78 301.701 245.29C302.141 245.8 302.741 246.06 303.481 246.06C304.241 246.06 304.831 245.81 305.231 245.3C305.641 244.8 305.841 244.08 305.841 243.14C305.841 242.2 305.641 241.48 305.231 240.97C304.821 240.46 304.251 240.21 303.481 240.21Z" fill="#505050"/>
<path d="M314.751 240.71C314.521 240.53 314.181 240.44 313.741 240.44C313.171 240.44 312.691 240.7 312.311 241.21C311.931 241.73 311.731 242.43 311.731 243.32V247.4H309.801V238.87H311.731V240.63H311.761C311.951 240.03 312.241 239.56 312.631 239.23C313.021 238.89 313.461 238.73 313.941 238.73C314.291 238.73 314.561 238.78 314.741 238.89V240.71H314.751Z" fill="#505050"/>
<path d="M328.859 247.4H326.929V242.75C326.929 241.86 326.799 241.21 326.549 240.81C326.299 240.41 325.869 240.21 325.269 240.21C324.759 240.21 324.339 240.46 323.979 240.97C323.629 241.48 323.449 242.08 323.449 242.79V247.4H321.509V242.59C321.509 241 320.949 240.21 319.829 240.21C319.309 240.21 318.879 240.45 318.539 240.93C318.199 241.41 318.039 242.03 318.039 242.79V247.4H316.109V238.87H318.039V240.22H318.069C318.689 239.19 319.579 238.67 320.759 238.67C321.349 238.67 321.859 238.83 322.299 239.16C322.739 239.49 323.039 239.91 323.199 240.44C323.829 239.26 324.779 238.67 326.029 238.67C327.909 238.67 328.849 239.83 328.849 242.14V247.4H328.859Z" fill="#505050"/>
<path d="M345.941 247.4H343.771L342.701 244.36H338.001L336.971 247.4H334.801L339.271 235.46H341.501L345.941 247.4ZM342.171 242.74L340.511 237.98C340.461 237.82 340.411 237.57 340.351 237.23H340.321C340.271 237.55 340.211 237.8 340.151 237.98L338.511 242.74H342.171Z" fill="#505050"/>
<path d="M349.55 243.06V247.39H347.58V235.45H351.2C352.57 235.45 353.64 235.77 354.39 236.41C355.15 237.05 355.52 237.95 355.52 239.11C355.52 240.27 355.13 241.22 354.34 241.96C353.55 242.7 352.49 243.07 351.14 243.07H349.55V243.06ZM349.55 237.08V241.44H350.83C351.68 241.44 352.33 241.24 352.77 240.85C353.21 240.46 353.44 239.9 353.44 239.18C353.44 237.78 352.62 237.07 350.99 237.07H349.55V237.08Z" fill="#505050"/>
<path d="M359.581 247.4H357.541V235.46H359.581V247.4Z" fill="#505050"/>
<path d="M361.77 247.13V245.34C362.49 245.89 363.29 246.16 364.16 246.16C365.33 246.16 365.91 245.82 365.91 245.13C365.91 244.94 365.86 244.77 365.76 244.63C365.66 244.49 365.53 244.37 365.36 244.27C365.19 244.17 364.99 244.07 364.76 243.99C364.53 243.91 364.27 243.81 363.99 243.71C363.64 243.57 363.32 243.42 363.04 243.27C362.76 243.11 362.53 242.94 362.34 242.74C362.15 242.54 362.01 242.32 361.92 242.07C361.83 241.82 361.78 241.53 361.78 241.2C361.78 240.79 361.88 240.43 362.07 240.11C362.26 239.8 362.53 239.53 362.85 239.32C363.17 239.11 363.55 238.94 363.97 238.84C364.39 238.74 364.82 238.68 365.26 238.68C366.05 238.68 366.75 238.8 367.38 239.04V240.73C366.78 240.32 366.09 240.11 365.31 240.11C365.07 240.11 364.84 240.13 364.65 240.18C364.45 240.23 364.28 240.3 364.15 240.39C364.01 240.48 363.9 240.59 363.83 240.71C363.75 240.83 363.71 240.97 363.71 241.12C363.71 241.3 363.75 241.46 363.83 241.59C363.91 241.72 364.02 241.83 364.18 241.93C364.33 242.03 364.52 242.12 364.73 242.2C364.94 242.28 365.19 242.37 365.47 242.46C365.84 242.61 366.17 242.76 366.46 242.92C366.75 243.08 367 243.25 367.21 243.45C367.42 243.65 367.57 243.87 367.69 244.13C367.8 244.39 367.86 244.7 367.86 245.05C367.86 245.48 367.76 245.86 367.56 246.18C367.36 246.5 367.09 246.77 366.76 246.98C366.43 247.19 366.04 247.35 365.61 247.45C365.18 247.55 364.71 247.6 364.23 247.6C363.27 247.6 362.46 247.44 361.77 247.13Z" fill="#505050"/>
<path d="M273.64 268.15C273.64 271.5 272.05 273.18 268.88 273.18C265.84 273.18 264.32 271.57 264.32 268.34V261.04H266.3V267.94C266.3 270.28 267.21 271.46 269.03 271.46C270.78 271.46 271.66 270.33 271.66 268.07V261.05H273.64V268.15Z" fill="#505050"/>
<path d="M275.701 272.72V270.93C276.421 271.48 277.221 271.75 278.091 271.75C279.261 271.75 279.841 271.41 279.841 270.72C279.841 270.53 279.791 270.36 279.691 270.22C279.591 270.08 279.461 269.96 279.291 269.86C279.121 269.76 278.921 269.66 278.691 269.58C278.461 269.5 278.201 269.4 277.921 269.3C277.571 269.16 277.251 269.01 276.971 268.86C276.691 268.7 276.461 268.53 276.271 268.33C276.081 268.13 275.941 267.91 275.851 267.66C275.761 267.41 275.711 267.12 275.711 266.79C275.711 266.38 275.811 266.02 276.001 265.7C276.191 265.39 276.461 265.12 276.781 264.91C277.101 264.7 277.481 264.53 277.901 264.43C278.321 264.33 278.751 264.27 279.191 264.27C279.981 264.27 280.681 264.39 281.311 264.63V266.32C280.711 265.91 280.021 265.7 279.241 265.7C279.001 265.7 278.771 265.72 278.581 265.77C278.381 265.82 278.211 265.89 278.081 265.98C277.941 266.07 277.831 266.18 277.761 266.3C277.681 266.42 277.641 266.56 277.641 266.71C277.641 266.89 277.681 267.05 277.761 267.18C277.841 267.31 277.951 267.42 278.111 267.52C278.261 267.62 278.451 267.71 278.661 267.79C278.871 267.87 279.121 267.96 279.401 268.05C279.771 268.2 280.101 268.35 280.391 268.51C280.681 268.67 280.931 268.84 281.141 269.04C281.351 269.24 281.501 269.46 281.621 269.72C281.731 269.98 281.791 270.29 281.791 270.64C281.791 271.07 281.691 271.45 281.491 271.77C281.291 272.09 281.021 272.36 280.691 272.57C280.361 272.78 279.971 272.94 279.541 273.04C279.111 273.14 278.641 273.19 278.161 273.19C277.191 273.18 276.381 273.03 275.701 272.72Z" fill="#505050"/>
<path d="M290.811 269.24H285.001C285.021 270.03 285.271 270.64 285.731 271.06C286.191 271.49 286.831 271.7 287.641 271.7C288.551 271.7 289.391 271.43 290.151 270.88V272.44C289.371 272.93 288.351 273.17 287.071 273.17C285.821 273.17 284.831 272.78 284.121 272.01C283.411 271.24 283.051 270.15 283.051 268.74C283.051 267.41 283.441 266.33 284.231 265.5C285.021 264.66 285.991 264.25 287.161 264.25C288.331 264.25 289.231 264.62 289.871 265.37C290.511 266.12 290.831 267.16 290.831 268.49V269.24H290.811ZM288.941 267.88C288.931 267.19 288.771 266.65 288.451 266.26C288.131 265.87 287.681 265.68 287.121 265.68C286.561 265.68 286.091 265.88 285.711 266.29C285.321 266.7 285.091 267.23 285.001 267.88H288.941Z" fill="#505050"/>
<path d="M297.6 266.29C297.37 266.11 297.03 266.02 296.59 266.02C296.02 266.02 295.54 266.28 295.16 266.79C294.78 267.31 294.58 268.01 294.58 268.9V272.98H292.65V264.45H294.58V266.21H294.61C294.8 265.61 295.09 265.14 295.48 264.81C295.87 264.47 296.31 264.31 296.79 264.31C297.14 264.31 297.41 264.36 297.59 264.47V266.29H297.6Z" fill="#505050"/>
<path d="M305.899 272.98H303.859V261.04H305.899V272.98Z" fill="#505050"/>
<path d="M316.221 272.98H314.291V268.17C314.291 266.58 313.731 265.78 312.601 265.78C312.011 265.78 311.531 266 311.141 266.44C310.761 266.88 310.571 267.44 310.571 268.11V272.97H308.631V264.44H310.571V265.86H310.601C311.241 264.78 312.161 264.24 313.371 264.24C314.301 264.24 315.011 264.54 315.491 265.14C315.981 265.74 316.221 266.61 316.221 267.75V272.98Z" fill="#505050"/>
<path d="M323.079 272.89C322.699 273.08 322.199 273.17 321.589 273.17C319.939 273.17 319.109 272.38 319.109 270.79V265.97H317.689V264.45H319.109V262.48L321.039 261.93V264.45H323.079V265.97H321.039V270.23C321.039 270.74 321.129 271.1 321.309 271.31C321.489 271.53 321.799 271.64 322.229 271.64C322.559 271.64 322.839 271.55 323.079 271.36V272.89Z" fill="#505050"/>
<path d="M331.86 269.24H326.05C326.07 270.03 326.32 270.64 326.78 271.06C327.24 271.49 327.88 271.7 328.69 271.7C329.6 271.7 330.44 271.43 331.2 270.88V272.44C330.42 272.93 329.4 273.17 328.12 273.17C326.87 273.17 325.88 272.78 325.17 272.01C324.46 271.24 324.1 270.15 324.1 268.74C324.1 267.41 324.49 266.33 325.28 265.5C326.07 264.66 327.04 264.25 328.21 264.25C329.38 264.25 330.28 264.62 330.92 265.37C331.56 266.12 331.88 267.16 331.88 268.49V269.24H331.86ZM330 267.88C329.99 267.19 329.83 266.65 329.51 266.26C329.19 265.87 328.74 265.68 328.18 265.68C327.62 265.68 327.15 265.88 326.77 266.29C326.38 266.7 326.15 267.23 326.06 267.88H330Z" fill="#505050"/>
<path d="M338.651 266.29C338.421 266.11 338.081 266.02 337.641 266.02C337.071 266.02 336.591 266.28 336.211 266.79C335.831 267.31 335.631 268.01 335.631 268.9V272.98H333.701V264.45H335.631V266.21H335.661C335.851 265.61 336.141 265.14 336.531 264.81C336.921 264.47 337.361 264.31 337.841 264.31C338.191 264.31 338.461 264.36 338.641 264.47V266.29H338.651Z" fill="#505050"/>
<path d="M345.211 261.93C344.951 261.78 344.651 261.71 344.321 261.71C343.381 261.71 342.911 262.24 342.911 263.3V264.46H344.891V265.98H342.921V272.99H340.991V265.98H339.531V264.46H340.991V263.08C340.991 262.18 341.281 261.47 341.871 260.95C342.461 260.43 343.191 260.17 344.081 260.17C344.561 260.17 344.931 260.22 345.211 260.33V261.93Z" fill="#505050"/>
<path d="M352.811 272.98H350.941V271.65H350.911C350.321 272.67 349.461 273.18 348.321 273.18C347.481 273.18 346.821 272.95 346.351 272.5C345.881 272.04 345.641 271.44 345.641 270.69C345.641 269.08 346.571 268.14 348.421 267.87L350.951 267.51C350.951 266.29 350.371 265.69 349.221 265.69C348.201 265.69 347.291 266.04 346.471 266.74V265.05C347.371 264.52 348.411 264.25 349.591 264.25C351.741 264.25 352.821 265.31 352.821 267.43V272.98H352.811ZM350.951 268.79L349.161 269.04C348.601 269.11 348.191 269.25 347.911 269.44C347.631 269.64 347.491 269.98 347.491 270.48C347.491 270.84 347.621 271.14 347.881 271.37C348.141 271.6 348.481 271.72 348.921 271.72C349.511 271.72 350.001 271.51 350.381 271.1C350.771 270.69 350.961 270.17 350.961 269.54V268.79H350.951Z" fill="#505050"/>
<path d="M361.269 272.59C360.589 272.98 359.779 273.18 358.849 273.18C357.579 273.18 356.559 272.78 355.779 271.99C354.999 271.2 354.609 270.17 354.609 268.91C354.609 267.51 355.029 266.38 355.859 265.52C356.699 264.67 357.809 264.24 359.209 264.24C359.989 264.24 360.669 264.38 361.269 264.65V266.45C360.679 266.01 360.039 265.78 359.369 265.78C358.549 265.78 357.879 266.06 357.359 266.61C356.839 267.16 356.579 267.89 356.579 268.78C356.579 269.66 356.829 270.36 357.319 270.87C357.809 271.38 358.469 271.64 359.299 271.64C359.989 271.64 360.649 271.39 361.269 270.9V272.59Z" fill="#505050"/>
<path d="M370.41 269.24H364.6C364.62 270.03 364.87 270.64 365.33 271.06C365.79 271.49 366.43 271.7 367.24 271.7C368.15 271.7 368.99 271.43 369.75 270.88V272.44C368.97 272.93 367.95 273.17 366.67 273.17C365.42 273.17 364.43 272.78 363.72 272.01C363.01 271.24 362.65 270.15 362.65 268.74C362.65 267.41 363.04 266.33 363.83 265.5C364.62 264.66 365.59 264.25 366.76 264.25C367.93 264.25 368.83 264.62 369.47 265.37C370.11 266.12 370.43 267.16 370.43 268.49V269.24H370.41ZM368.55 267.88C368.54 267.19 368.38 266.65 368.06 266.26C367.74 265.87 367.29 265.68 366.73 265.68C366.17 265.68 365.7 265.88 365.32 266.29C364.93 266.7 364.7 267.23 364.61 267.88H368.55Z" fill="#505050"/>
<path d="M243.311 220.74H245.881C247.771 220.74 249.311 219.21 249.311 217.31V214.74C249.311 212.85 247.781 211.31 245.881 211.31H243.311C241.421 211.31 239.881 212.84 239.881 214.74V217.31C239.881 219.21 241.411 220.74 243.311 220.74Z" fill="white"/>
<path d="M243.501 246.33H245.691C247.691 246.33 249.311 244.71 249.311 242.71V240.52C249.311 238.52 247.691 236.9 245.691 236.9H243.501C241.501 236.9 239.881 238.52 239.881 240.52V242.71C239.881 244.71 241.501 246.33 243.501 246.33Z" fill="white"/>
<path d="M242.671 271.92H246.501C248.041 271.92 249.291 270.67 249.291 269.13V265.3C249.291 263.76 248.041 262.51 246.501 262.51H242.671C241.131 262.51 239.881 263.76 239.881 265.3V269.13C239.881 270.67 241.131 271.92 242.671 271.92Z" fill="white"/>
</svg>
