<svg width="636" height="300" viewBox="0 0 636 300" fill="none" xmlns="http://www.w3.org/2000/svg">
<path d="M123.86 184.74H121.9V195.06H123.86V184.74Z" fill="#2488D8"/>
<path d="M123.86 198.62H121.9V208.94H123.86V198.62Z" fill="#2488D8"/>
<path d="M123.86 212.5H121.9V222.82H123.86V212.5Z" fill="#2488D8"/>
<path d="M158.01 203.96C157.73 200.08 157.59 196.16 157.59 192.21C157.59 102.15 230.6 29.1401 320.66 29.1401C410.72 29.1401 483.73 102.15 483.73 192.21C483.73 195.43 483.64 198.63 483.45 201.81" stroke="#939393" stroke-width="1.5" stroke-miterlimit="10" stroke-linecap="round" stroke-linejoin="round" stroke-dasharray="3.2 3.2"/>
<path d="M466.921 106.8L424.471 106.6C422.821 106.6 421.471 105.26 421.471 103.6V47C421.471 45.35 422.811 44 424.471 44L466.921 44.2C468.571 44.2 469.921 45.54 469.921 47.2V103.8C469.921 105.46 468.571 106.8 466.921 106.8Z" fill="#737373"/>
<path d="M276.14 289.13H366.84C368.45 289.13 369.97 290.18 370.28 291.76C370.68 293.78 368.93 295.54 366.72 295.54H276.4C274.79 295.54 273.27 294.49 272.96 292.91C272.56 290.89 274.31 289.13 276.52 289.13" fill="#C8C8C8"/>
<path d="M464.209 103.22L427.249 103.19C425.929 103.19 424.849 102.12 424.859 100.79L424.889 49.9303C424.889 48.6103 425.959 47.5303 427.289 47.5303H464.229C465.549 47.5303 466.629 48.6003 466.629 49.9303V100.82C466.609 102.15 465.539 103.22 464.209 103.22Z" fill="#C8C8C8"/>
<path d="M466.609 49.9203C466.599 48.6003 465.529 47.5303 464.209 47.5303H438.279C445.219 54.3403 458.829 67.2903 466.599 74.6403V49.9203H466.609Z" fill="url(#paint0_linear)"/>
<path d="M457.39 42.14C457.39 42.14 452.85 42.16 450.34 42.16C450.34 41.14 449.63 38.02 445.91 38C443.86 38 441.61 39.29 441.61 42.16H434.55C434.37 42.15 434.19 42.17 434.02 42.23C433.85 42.29 433.69 42.38 433.55 42.5C433.42 42.62 433.31 42.77 433.23 42.93C433.15 43.09 433.11 43.27 433.1 43.45C433.1 43.89 433.1 47.21 433.1 47.21H458.85V43.64C458.86 43.24 458.71 42.84 458.43 42.55C458.15 42.25 457.8 42.16 457.39 42.14ZM446.02 44.01C445.64 44.02 445.26 43.92 444.94 43.72C444.62 43.52 444.36 43.22 444.21 42.87C444.06 42.52 444.01 42.13 444.07 41.76C444.14 41.38 444.31 41.04 444.58 40.76C444.84 40.49 445.19 40.3 445.56 40.22C445.93 40.14 446.32 40.17 446.68 40.32C447.03 40.46 447.34 40.71 447.55 41.02C447.76 41.34 447.88 41.71 447.88 42.09C447.89 42.34 447.85 42.59 447.76 42.82C447.67 43.05 447.54 43.26 447.36 43.44C447.19 43.62 446.98 43.76 446.75 43.86C446.52 43.96 446.27 44.01 446.02 44.01Z" fill="#F7B548"/>
<path d="M433.1 46.7602L433.08 48.9802C433.07 49.7102 433.67 50.3102 434.4 50.3102L457.57 50.2802C458.29 50.2802 458.88 49.6902 458.88 48.9702V46.7002L433.1 46.7602Z" fill="#C78E00"/>
<path d="M457.59 56.3101H439.54C439.11 56.3101 438.77 56.6601 438.77 57.0801C438.77 57.5101 439.12 57.8501 439.54 57.8501H457.59C458.02 57.8501 458.36 57.5001 458.36 57.0801C458.37 56.6601 458.02 56.3101 457.59 56.3101Z" fill="#939393"/>
<path d="M457.59 64.04H439.54C439.11 64.04 438.77 64.39 438.77 64.81C438.77 65.24 439.12 65.58 439.54 65.58H457.59C458.02 65.58 458.36 65.23 458.36 64.81C458.37 64.39 458.02 64.04 457.59 64.04Z" fill="#939393"/>
<path d="M457.59 72.29H439.54C439.11 72.29 438.77 72.64 438.77 73.06C438.77 73.49 439.12 73.83 439.54 73.83H457.59C458.02 73.83 458.36 73.48 458.36 73.06C458.37 72.63 458.02 72.29 457.59 72.29Z" fill="#939393"/>
<path d="M432.73 60.3101C434.1 60.3101 435.22 59.2001 435.22 57.8201C435.22 56.4501 434.11 55.3301 432.73 55.3301C431.36 55.3301 430.24 56.4401 430.24 57.8201C430.24 59.2001 431.36 60.3101 432.73 60.3101Z" fill="#939393"/>
<path d="M432.73 67.7901C434.1 67.7901 435.22 66.6801 435.22 65.3001C435.22 63.9301 434.11 62.8101 432.73 62.8101C431.36 62.8101 430.24 63.9201 430.24 65.3001C430.24 66.6701 431.36 67.7901 432.73 67.7901Z" fill="#939393"/>
<path d="M432.73 75.2603C434.1 75.2603 435.22 74.1503 435.22 72.7703C435.22 71.4003 434.11 70.2803 432.73 70.2803C431.36 70.2803 430.24 71.3903 430.24 72.7703C430.24 74.1503 431.36 75.2603 432.73 75.2603Z" fill="#939393"/>
<path d="M318.05 9.08017C318.05 9.08017 316.83 7.60017 316.2 6.80017C315.99 6.48017 315.71 6.23017 315.37 6.07017C315.03 5.91017 314.65 5.84017 314.28 5.88017H294.9C294.6 5.87017 294.29 5.92017 294.01 6.02017C293.73 6.13017 293.46 6.29017 293.24 6.50017C293.02 6.71017 292.84 6.96017 292.71 7.24017C292.58 7.52017 292.51 7.82017 292.51 8.12017V49.8102C292.54 50.4202 292.8 50.9902 293.25 51.4102C293.7 51.8202 294.29 52.0402 294.9 52.0202H348.96C349.57 52.0502 350.16 51.8302 350.61 51.4102C351.06 51.0002 351.33 50.4202 351.35 49.8102V12.1502C351.32 11.5502 351.06 10.9802 350.61 10.5702C350.16 10.1602 349.57 9.94017 348.97 9.97017H319.96C319.59 10.0102 319.21 9.95017 318.88 9.80017C318.54 9.64017 318.25 9.39017 318.05 9.08017Z" fill="#2488D8"/>
<path d="M348.96 11.3303H320.36C319.99 11.2903 319.61 11.3603 319.27 11.5303C318.93 11.6903 318.65 11.9503 318.44 12.2603C317.8 13.0603 316.59 14.5403 316.59 14.5403C316.39 14.8603 316.1 15.1103 315.77 15.2803C315.44 15.4503 315.05 15.5103 314.68 15.4703H294.88C294.29 15.4403 293.71 15.6503 293.26 16.0403C292.82 16.4303 292.54 16.9803 292.5 17.5803V50.4403C292.53 51.0503 292.79 51.6203 293.24 52.0403C293.69 52.4503 294.28 52.6703 294.89 52.6503H348.95C349.56 52.6803 350.15 52.4603 350.6 52.0403C351.05 51.6303 351.32 51.0503 351.34 50.4403V13.5403C351.31 12.9303 351.05 12.3603 350.6 11.9403C350.16 11.5303 349.57 11.3103 348.96 11.3303Z" fill="#69AFE5"/>
<path d="M342.471 28.0601H292.801V29.4901H342.471V28.0601Z" fill="white"/>
<path d="M342.47 31.5103C343.98 31.5103 345.21 30.2803 345.21 28.7703C345.21 27.2603 343.98 26.0303 342.47 26.0303C340.96 26.0303 339.73 27.2603 339.73 28.7703C339.73 30.2803 340.96 31.5103 342.47 31.5103Z" fill="#2488D8"/>
<path d="M326.97 38.7601H313.92L306.93 29.5701L308.08 28.7001L314.64 37.3201H326.26L332.82 28.3501L333.98 29.1901L326.97 38.7601Z" fill="white"/>
<path d="M326.439 40.8604C327.949 40.8604 329.179 39.6304 329.179 38.1204C329.179 36.6104 327.949 35.3804 326.439 35.3804C324.929 35.3804 323.699 36.6104 323.699 38.1204C323.699 39.6404 324.929 40.8604 326.439 40.8604Z" fill="#EC6401"/>
<path d="M314.25 40.8604C315.76 40.8604 316.99 39.6304 316.99 38.1204C316.99 36.6104 315.76 35.3804 314.25 35.3804C312.74 35.3804 311.51 36.6104 311.51 38.1204C311.51 39.6404 312.74 40.8604 314.25 40.8604Z" fill="#EC6401"/>
<path d="M191.06 175.08H118.52V221.25H191.06V175.08Z" fill="white"/>
<path d="M187.31 175.08H122.26C120.19 175.08 118.51 176.76 118.51 178.83V223.7C118.51 225.77 120.19 227.45 122.26 227.45H187.31C189.38 227.45 191.06 225.77 191.06 223.7V178.83C191.06 176.76 189.38 175.08 187.31 175.08Z" fill="#EDAC28"/>
<path d="M191.06 178.83C191.06 176.76 189.38 175.08 187.31 175.08H122.26C120.19 175.08 118.51 176.76 118.51 178.83V180.65H191.06V178.83Z" fill="#9082CC"/>
<path d="M136.19 184.74H121.9V195.06H136.19V184.74Z" fill="white"/>
<path d="M153.339 184.74H139.049V195.06H153.339V184.74Z" fill="white"/>
<path d="M170.479 184.74H156.189V195.06H170.479V184.74Z" fill="white"/>
<path d="M187.63 184.74H173.34V195.06H187.63V184.74Z" fill="white"/>
<path d="M140.939 184.74H139.039V195.06H140.939V184.74Z" fill="#EC6401"/>
<path d="M158.2 184.74H156.18V195.06H158.2V184.74Z" fill="#9082CC"/>
<path d="M175.19 184.74H173.32V195.06H175.19V184.74Z" fill="#EC6401"/>
<path d="M136.19 198.62H121.9V208.94H136.19V198.62Z" fill="white"/>
<path d="M153.339 198.62H139.049V208.94H153.339V198.62Z" fill="white"/>
<path d="M170.479 198.62H156.189V208.94H170.479V198.62Z" fill="white"/>
<path d="M140.939 198.62H139.039V208.94H140.939V198.62Z" fill="#EC6401"/>
<path d="M158.2 198.62H156.18V208.94H158.2V198.62Z" fill="#9082CC"/>
<path d="M136.19 212.5H121.9V222.82H136.19V212.5Z" fill="white"/>
<path d="M170.479 212.5H156.189V222.82H170.479V212.5Z" fill="white"/>
<path d="M158.2 212.5H156.18V222.82H158.2V212.5Z" fill="#9082CC"/>
<path d="M133.591 187.14H125.721V188.34H133.591V187.14Z" fill="#C2C2C2"/>
<path d="M133.591 190.34H125.721V191.54H133.591V190.34Z" fill="#E6E6E6"/>
<path d="M150.681 187.14H142.811V188.34H150.681V187.14Z" fill="#C2C2C2"/>
<path d="M150.681 190.34H142.811V191.54H150.681V190.34Z" fill="#E6E6E6"/>
<path d="M167.761 187.14H159.891V188.34H167.761V187.14Z" fill="#C2C2C2"/>
<path d="M167.761 190.34H159.891V191.54H167.761V190.34Z" fill="#E6E6E6"/>
<path d="M184.841 187.14H176.971V188.34H184.841V187.14Z" fill="#C2C2C2"/>
<path d="M184.841 190.34H176.971V191.54H184.841V190.34Z" fill="#E6E6E6"/>
<path d="M133.591 201.02H125.721V202.22H133.591V201.02Z" fill="#C2C2C2"/>
<path d="M133.591 204.22H125.721V205.42H133.591V204.22Z" fill="#E6E6E6"/>
<path d="M150.681 201.02H142.811V202.22H150.681V201.02Z" fill="#C2C2C2"/>
<path d="M150.681 204.22H142.811V205.42H150.681V204.22Z" fill="#E6E6E6"/>
<path d="M167.761 201.02H159.891V202.22H167.761V201.02Z" fill="#C2C2C2"/>
<path d="M167.761 204.22H159.891V205.42H167.761V204.22Z" fill="#E6E6E6"/>
<path d="M133.591 214.9H125.721V216.1H133.591V214.9Z" fill="#C2C2C2"/>
<path d="M133.591 218.101H125.721V219.301H133.591V218.101Z" fill="#E6E6E6"/>
<path d="M167.761 214.9H159.891V216.1H167.761V214.9Z" fill="#C2C2C2"/>
<path d="M167.761 218.101H159.891V219.301H167.761V218.101Z" fill="#E6E6E6"/>
<path d="M460.67 99.8601H446.25C445.46 99.8601 444.76 99.4501 444.38 98.7601C444 98.0701 444.02 97.2601 444.44 96.5901L450.66 87.1501V80.1401H451.73V87.4701L445.34 97.1701C445.14 97.4901 445.13 97.9001 445.32 98.2401C445.51 98.5801 445.86 98.7901 446.25 98.7901H460.67C461.06 98.7901 461.41 98.5901 461.6 98.2501C461.79 97.9101 461.79 97.5101 461.58 97.1701L455.01 87.3401V80.1001H456.08V87.0101L462.48 96.5901C462.9 97.2801 462.91 98.0801 462.53 98.7601C462.15 99.4501 461.45 99.8601 460.67 99.8601Z" fill="white"/>
<path d="M493.671 192.69L499.221 197.43C500.131 198.21 500.611 199.35 500.491 200.51L499.371 211.95C499.341 212.24 498.971 212.36 498.751 212.15L492.621 206.17L493.671 192.69Z" fill="#005A93"/>
<path d="M476.131 192.69L470.581 197.43C469.671 198.21 469.191 199.35 469.311 200.51L470.431 211.95C470.461 212.24 470.831 212.36 471.051 212.15L477.181 206.17L476.131 192.69Z" fill="#005A93"/>
<path d="M494.71 184.64C492.43 171.39 486.501 163.57 485.171 161.95C485.031 161.78 484.771 161.78 484.631 161.95C483.301 163.57 477.36 171.39 475.09 184.64C473.03 196.64 475.81 204.85 476.74 207.15C476.9 207.55 477.29 207.8 477.72 207.8H484.911H492.201C492.571 207.8 492.901 207.58 493.041 207.23C493.921 205.07 496.8 196.8 494.71 184.64Z" fill="#69AFE5"/>
<path d="M494.711 184.64C492.421 171.29 486.421 163.46 485.141 161.92C485.041 161.8 484.841 161.83 484.801 161.99C483.861 165.25 476.941 190.45 483.091 207.81C488.511 207.64 491.001 207.69 492.071 207.75C492.521 207.77 492.931 207.51 493.101 207.1C494.041 204.72 496.761 196.54 494.711 184.64Z" fill="#4393D4"/>
<path d="M480.35 206.69C477 212.15 478.18 216.76 478.22 216.97C478.26 217.18 478.43 217.37 478.57 217.1C478.83 216.61 479.27 215.78 479.74 215C479.57 219.71 483.16 223.71 484.29 224.84C484.47 225.03 484.77 225.02 484.95 224.84C485.87 223.89 488.42 221.03 488.64 218.19C488.97 218.99 489.1 219.5 489.1 219.5C489.1 219.5 489.23 219.88 489.43 219.6C490.33 218.31 492.66 213.92 489.24 206.7H480.35V206.69Z" fill="#DF6C47"/>
<path d="M482.431 206.74C482.431 206.74 480.591 213.2 484.411 220.23C484.501 220.4 484.771 220.41 484.871 220.23C488.971 212.97 486.651 206.66 486.651 206.66L482.431 206.74Z" fill="#EF9324"/>
<path d="M479.25 170.94H490.55C489.69 169.04 488.82 167.42 488.03 166.1H481.77C480.98 167.43 480.11 169.05 479.25 170.94Z" fill="#005A93"/>
<path d="M485.021 183.01C487.346 183.01 489.231 181.121 489.231 178.79C489.231 176.46 487.346 174.57 485.021 174.57C482.695 174.57 480.811 176.46 480.811 178.79C480.811 181.121 482.695 183.01 485.021 183.01Z" fill="white"/>
<path d="M476.26 205.87C476.43 206.39 476.59 206.8 476.72 207.12C476.89 207.54 477.29 207.81 477.74 207.81H484.89H492.06C492.5 207.81 492.9 207.55 493.07 207.14C493.2 206.83 493.36 206.4 493.53 205.88H476.26V205.87Z" fill="#005A93"/>
<path d="M484.55 193.64L482.76 198.49C482.74 198.56 482.73 198.63 482.74 198.7L484.46 212.41C484.52 212.88 485.16 212.89 485.23 212.42L487.21 198.71C487.22 198.63 487.21 198.56 487.18 198.49L485.26 193.64C485.14 193.28 484.68 193.29 484.55 193.64Z" fill="#005A93"/>
<path d="M513.13 228.73C512.73 228.73 512.35 228.8 512 228.93C512.14 228.32 512.22 227.691 512.22 227.031C512.22 222.481 508.53 218.781 503.97 218.781C499.72 218.781 496.23 221.99 495.77 226.12C494.94 225.53 493.93 225.18 492.83 225.18C490.35 225.18 488.3 226.981 487.88 229.34C487.12 228.37 485.95 227.741 484.63 227.741C483.06 227.741 481.72 228.621 481.01 229.891C480.84 227.261 478.66 225.171 475.98 225.171C474.88 225.171 473.87 225.521 473.04 226.111C472.59 221.981 469.09 218.771 464.84 218.771C460.29 218.771 456.59 222.461 456.59 227.021C456.59 227.671 456.67 228.311 456.81 228.921C456.46 228.791 456.08 228.721 455.68 228.721C453.87 228.721 452.4 230.191 452.4 232.001C452.4 233.811 453.87 235.271 455.68 235.271H513.1C514.91 235.271 516.38 233.801 516.38 232.001C516.4 230.191 514.94 228.73 513.13 228.73Z" fill="#9DCCEF"/>
<path d="M355.67 131.45L285.91 131.57C284.26 131.57 282.93 132.91 282.93 134.56L283.14 278.86C283.14 280.51 284.48 281.84 286.13 281.84L355.89 281.72C357.54 281.72 358.87 280.38 358.87 278.73L358.66 134.43C358.66 132.78 357.32 131.45 355.67 131.45Z" fill="#2488D8"/>
<path d="M358.48 186.34L358.39 134.18C358.18 132.64 356.87 131.45 355.27 131.45L298.41 131.55L358.48 186.34Z" fill="url(#paint1_linear)"/>
<path d="M321.151 162.28C324.426 162.28 327.081 159.625 327.081 156.35C327.081 153.075 324.426 150.42 321.151 150.42C317.876 150.42 315.221 153.075 315.221 156.35C315.221 159.625 317.876 162.28 321.151 162.28Z" fill="#EDAC28"/>
<path d="M299.219 162.31C302.494 162.31 305.149 159.655 305.149 156.38C305.149 153.105 302.494 150.45 299.219 150.45C295.944 150.45 293.289 153.105 293.289 156.38C293.289 159.655 295.944 162.31 299.219 162.31Z" fill="#EDAC28"/>
<path d="M343.08 162.24C346.355 162.24 349.01 159.585 349.01 156.31C349.01 153.035 346.355 150.38 343.08 150.38C339.805 150.38 337.15 153.035 337.15 156.31C337.15 159.585 339.805 162.24 343.08 162.24Z" fill="#EDAC28"/>
<path d="M345.79 189.73L296.49 189.81C295 189.81 293.79 188.61 293.79 187.12L293.77 175.86C293.77 174.37 294.97 173.16 296.46 173.16L345.76 173.08C347.25 173.08 348.46 174.28 348.46 175.77L348.48 187.03C348.49 188.52 347.28 189.73 345.79 189.73Z" fill="white"/>
<path d="M345.831 211.66L296.531 211.74C295.041 211.74 293.831 210.54 293.831 209.05L293.811 197.79C293.811 196.3 295.011 195.09 296.501 195.09L345.801 195.01C347.291 195.01 348.501 196.21 348.501 197.7L348.521 208.96C348.531 210.45 347.321 211.66 345.831 211.66Z" fill="#3CACE5"/>
<path d="M457.34 80.4902H449.34C449.06 80.4902 448.83 80.2602 448.83 79.9802V79.9202C448.83 79.6402 449.06 79.4102 449.34 79.4102H457.34C457.62 79.4102 457.85 79.6402 457.85 79.9202V79.9802C457.85 80.2602 457.62 80.4902 457.34 80.4902Z" fill="white"/>
<path d="M218.119 100.39H156.779C155.029 100.39 153.619 98.9704 153.619 97.2304V56.5804C153.619 54.8304 155.039 53.4204 156.779 53.4204H218.119C219.869 53.4204 221.279 54.8404 221.279 56.5804V97.2304C221.279 98.9804 219.859 100.39 218.119 100.39Z" fill="#505050"/>
<path d="M215.03 93.0505H159.86C158.84 93.0505 158.02 92.2305 158.02 91.2105V58.8605C158.02 57.8405 158.84 57.0205 159.86 57.0205H215.03C216.05 57.0205 216.87 57.8405 216.87 58.8605V91.2105C216.88 92.2305 216.05 93.0505 215.03 93.0505Z" fill="#2488D8"/>
<path d="M215.03 57.0205H189.1L216.87 84.7905V58.8605C216.88 57.8405 216.05 57.0205 215.03 57.0205Z" fill="url(#paint2_linear)"/>
<path d="M226.519 101.73H149.209C146.639 101.73 146.209 98.0303 146.209 98.0303H229.479C229.479 98.0303 228.529 101.73 226.519 101.73Z" fill="#444444"/>
<path d="M173.988 64.2205H162.818C162.078 64.2205 161.488 63.6205 161.488 62.8905C161.488 62.1505 162.088 61.5605 162.818 61.5605H173.988C174.728 61.5605 175.318 62.1605 175.318 62.8905C175.318 63.6205 174.718 64.2205 173.988 64.2205Z" fill="#EC6401"/>
<path d="M173.988 69.5907H162.818C162.078 69.5907 161.488 68.9907 161.488 68.2607C161.488 67.5207 162.088 66.9307 162.818 66.9307H173.988C174.728 66.9307 175.318 67.5307 175.318 68.2607C175.318 69.0007 174.718 69.5907 173.988 69.5907Z" fill="#F7B548"/>
<path d="M202.419 69.5907H179.369C178.629 69.5907 178.039 68.9907 178.039 68.2607C178.039 67.5207 178.639 66.9307 179.369 66.9307H202.419C203.159 66.9307 203.749 67.5307 203.749 68.2607C203.749 69.0007 203.149 69.5907 202.419 69.5907Z" fill="white"/>
<path d="M185.418 74.9706H171.088C170.348 74.9706 169.758 74.3705 169.758 73.6405C169.758 72.9005 170.358 72.3105 171.088 72.3105H185.418C186.158 72.3105 186.748 72.9105 186.748 73.6405C186.758 74.3705 186.158 74.9706 185.418 74.9706Z" fill="#EC6401"/>
<path d="M210.688 74.9706H190.728C189.988 74.9706 189.398 74.3705 189.398 73.6405C189.398 72.9005 189.998 72.3105 190.728 72.3105H210.688C211.428 72.3105 212.018 72.9105 212.018 73.6405C212.018 74.3705 211.418 74.9706 210.688 74.9706Z" fill="white"/>
<path d="M182.258 80.3407H171.088C170.348 80.3407 169.758 79.7407 169.758 79.0107C169.758 78.2707 170.358 77.6807 171.088 77.6807H182.258C182.998 77.6807 183.588 78.2807 183.588 79.0107C183.588 79.7407 182.998 80.3407 182.258 80.3407Z" fill="white"/>
<path d="M204.609 80.3407H187.639C186.899 80.3407 186.309 79.7407 186.309 79.0107C186.309 78.2707 186.909 77.6807 187.639 77.6807H204.609C205.349 77.6807 205.939 78.2807 205.939 79.0107C205.939 79.7407 205.349 80.3407 204.609 80.3407Z" fill="white"/>
<path d="M187.769 85.7108H179.369C178.629 85.7108 178.039 85.1108 178.039 84.3808C178.039 83.6408 178.639 83.0508 179.369 83.0508H187.769C188.509 83.0508 189.099 83.6508 189.099 84.3808C189.099 85.1208 188.509 85.7108 187.769 85.7108Z" fill="#F7B548"/>
<path d="M208.578 85.7108H193.498C192.758 85.7108 192.168 85.1108 192.168 84.3808C192.168 83.6408 192.768 83.0508 193.498 83.0508H208.588C209.328 83.0508 209.918 83.6508 209.918 84.3808C209.918 85.1208 209.318 85.7108 208.578 85.7108Z" fill="white"/>
<path d="M187.819 54.4004H186.889V55.3304H187.819V54.4004Z" fill="#737373"/>
<path d="M351.469 119.12H289.809C284.639 119.12 280.439 123.31 280.439 128.49V282.15C280.439 287.32 284.629 291.52 289.809 291.52H351.469C356.639 291.52 360.839 287.33 360.839 282.15V128.48C360.829 123.31 356.639 119.12 351.469 119.12ZM357.379 276.37C357.379 278.63 355.549 280.46 353.289 280.46H288.269C286.009 280.46 284.179 278.63 284.179 276.37V137.02C284.179 134.76 286.009 132.93 288.269 132.93H353.289C355.549 132.93 357.379 134.76 357.379 137.02V276.37Z" fill="#444444"/>
<path d="M330.389 284.94H312.089C311.319 284.94 310.689 285.57 310.689 286.34C310.689 287.11 311.319 287.74 312.089 287.74H330.389C331.159 287.74 331.789 287.11 331.789 286.34C331.789 285.57 331.169 284.94 330.389 284.94Z" fill="#737373"/>
<path d="M330.389 123.6H312.089C311.319 123.6 310.689 124.23 310.689 125C310.689 125.77 311.319 126.4 312.089 126.4H330.389C331.159 126.4 331.789 125.77 331.789 125C331.789 124.23 331.169 123.6 330.389 123.6Z" fill="#737373"/>
<path d="M295.18 129.36C296.058 129.36 296.77 128.648 296.77 127.77C296.77 126.892 296.058 126.18 295.18 126.18C294.302 126.18 293.59 126.892 293.59 127.77C293.59 128.648 294.302 129.36 295.18 129.36Z" fill="#737373"/>
<defs>
<linearGradient id="paint0_linear" x1="452.447" y1="74.6468" x2="452.447" y2="47.5386" gradientUnits="userSpaceOnUse">
<stop stop-color="#C8C8C8"/>
<stop offset="0.5862" stop-color="#D6D7D8"/>
</linearGradient>
<linearGradient id="paint1_linear" x1="328.438" y1="186.341" x2="328.438" y2="131.454" gradientUnits="userSpaceOnUse">
<stop stop-color="#2488D8"/>
<stop offset="0.7829" stop-color="#3CACE5"/>
</linearGradient>
<linearGradient id="paint2_linear" x1="202.991" y1="84.7876" x2="202.991" y2="57.0191" gradientUnits="userSpaceOnUse">
<stop stop-color="#2488D8"/>
<stop offset="0.7829" stop-color="#3CACE5"/>
</linearGradient>
</defs>
</svg>
