<svg width="636" height="300" viewBox="0 0 636 300" fill="none" xmlns="http://www.w3.org/2000/svg">
<path d="M381.039 217.55C381.649 218.1 382.449 218.41 383.269 218.4H521.609C522.489 218.4 523.329 218.05 523.959 217.43C524.579 216.81 524.929 215.97 524.939 215.09L525.319 86.4204L474.169 35.4004H383.269C382.389 35.4004 381.539 35.7504 380.919 36.3704C380.299 36.9904 379.949 37.8404 379.949 38.7204V215.07C379.949 215.54 380.049 216 380.239 216.42C380.419 216.85 380.699 217.23 381.039 217.55Z" fill="#2B9355"/>
<path d="M531.999 145.49C551.119 153.71 559.389 169.86 562.409 177.74L552.999 181.14C550.529 174.79 543.669 161.39 528.049 154.68L531.999 145.49Z" fill="#505050"/>
<path d="M561.348 189.16C560.738 189.39 560.078 189.5 559.428 189.48C558.778 189.46 558.128 189.31 557.528 189.04C556.928 188.77 556.388 188.38 555.948 187.9C555.498 187.42 555.148 186.86 554.918 186.24L552.898 180.85L562.288 177.4L564.288 182.73C564.518 183.34 564.628 184 564.608 184.66C564.588 185.32 564.438 185.96 564.158 186.56C563.888 187.16 563.498 187.7 563.018 188.15C562.528 188.58 561.968 188.93 561.348 189.16Z" fill="#29A55E"/>
<path d="M336.48 157.57L327.6 163.65C327.28 163.87 326.91 164 326.52 164.03C326.13 164.06 325.74 163.98 325.4 163.81L301.67 152.16L297.26 161.14L325.86 175.18C326.32 175.41 326.83 175.5 327.34 175.47C327.85 175.43 328.34 175.26 328.77 174.97L342.12 165.82L336.48 157.57Z" fill="#605D5A"/>
<path d="M347.96 155.77C347.21 154.68 346.06 153.92 344.75 153.68C343.45 153.44 342.1 153.72 341.01 154.47L336.26 157.73L341.97 165.94L346.66 162.73C347.2 162.36 347.66 161.88 348.02 161.33C348.38 160.78 348.63 160.16 348.75 159.52C348.87 158.87 348.86 158.21 348.73 157.57C348.59 156.92 348.33 156.31 347.96 155.77Z" fill="#A58CE1"/>
<path d="M359.609 157.57L368.489 163.65C368.809 163.87 369.179 164 369.569 164.03C369.959 164.06 370.349 163.98 370.689 163.81L394.419 152.16L398.829 161.14L370.229 175.18C369.769 175.41 369.259 175.5 368.749 175.47C368.239 175.43 367.749 175.26 367.319 174.97L353.969 165.82L359.609 157.57Z" fill="#605D5A"/>
<path d="M348.13 155.77C348.88 154.68 350.03 153.92 351.34 153.68C352.64 153.44 353.99 153.72 355.08 154.47L359.83 157.73L354.12 165.94L349.43 162.73C348.89 162.36 348.42 161.88 348.07 161.33C347.71 160.78 347.47 160.16 347.34 159.52C347.22 158.87 347.23 158.21 347.36 157.57C347.5 156.92 347.76 156.31 348.13 155.77Z" fill="#29A55E"/>
<path d="M389.039 224.55C389.649 225.1 390.449 225.41 391.269 225.4H529.609C530.489 225.4 531.329 225.05 531.959 224.43C532.579 223.81 532.929 222.97 532.939 222.09L533.319 93.4204L482.169 42.4004H391.269C390.389 42.4004 389.539 42.7504 388.919 43.3704C388.299 43.9904 387.949 44.8404 387.949 45.7204V222.07C387.949 222.54 388.049 223 388.239 223.42C388.419 223.85 388.699 224.23 389.039 224.55Z" fill="#29A55E"/>
<path d="M452.669 260.1C454.129 260.15 455.509 260.75 456.539 261.78C457.419 262.58 457.949 263.69 458.029 264.87L457.839 270.09C457.809 271.26 457.309 272.36 456.469 273.17C455.629 273.98 454.499 274.42 453.329 274.4L437.639 274.32C437.319 274.34 436.999 274.24 436.739 274.05C436.479 273.86 436.299 273.58 436.229 273.26C436.119 272.96 436.119 272.62 436.229 272.32C436.339 272.02 436.569 271.77 436.849 271.62L444.919 267.56C445.559 267.34 446.129 266.97 446.579 266.47C447.099 265.63 447.369 264.66 447.339 263.67C447.419 261.04 449.199 259.85 452.669 260.1Z" fill="#B2B2B2"/>
<path d="M461.738 186.55C460.498 227.96 458.628 259.63 457.788 266.17C457.518 267.34 456.838 268.37 455.868 269.07C454.898 269.77 453.708 270.1 452.508 269.99C449.228 269.96 447.138 268.71 447.158 265.46C445.668 254.24 441.858 221.56 438.508 187.22C438.358 185.7 438.538 184.17 439.028 182.72C439.518 181.27 440.308 179.95 441.348 178.83C442.388 177.71 443.648 176.83 445.058 176.23C446.468 175.64 447.978 175.35 449.508 175.39C455.478 175.55 461.918 180.58 461.738 186.55Z" fill="#B2B2B2"/>
<path d="M472.48 260.1C471.02 260.14 469.64 260.73 468.6 261.76C467.72 262.55 467.17 263.66 467.09 264.84L467.24 270.06C467.27 271.23 467.75 272.34 468.59 273.15C469.43 273.96 470.55 274.41 471.72 274.4L487.41 274.43C487.73 274.45 488.05 274.36 488.31 274.17C488.57 273.98 488.75 273.7 488.83 273.38C488.95 273.08 488.95 272.74 488.83 272.44C488.72 272.14 488.5 271.88 488.21 271.73L480.17 267.62C479.53 267.4 478.96 267.02 478.52 266.52C478 265.68 477.75 264.71 477.78 263.72C477.72 261.08 475.95 259.88 472.48 260.1Z" fill="#B2B2B2"/>
<path d="M463.139 186.73C464.429 228.13 466.329 259.8 467.179 266.35C467.449 267.52 468.129 268.55 469.109 269.25C470.079 269.95 471.279 270.28 472.469 270.17C475.749 270.14 477.829 268.88 477.809 265.63C479.279 254.41 483.059 221.73 486.369 187.38C486.519 185.86 486.339 184.33 485.849 182.88C485.359 181.43 484.569 180.11 483.529 178.99C482.489 177.87 481.219 176.99 479.819 176.4C478.409 175.81 476.899 175.52 475.369 175.56C469.379 175.72 462.949 180.76 463.139 186.73Z" fill="#B2B2B2"/>
<path d="M398.039 231.55C398.649 232.1 399.449 232.41 400.269 232.4H538.609C539.489 232.4 540.329 232.05 540.959 231.43C541.579 230.81 541.929 229.97 541.939 229.09L542.329 100.42L491.169 49.4004H400.269C399.389 49.4004 398.539 49.7504 397.919 50.3704C397.299 50.9904 396.949 51.8404 396.949 52.7204V229.07C396.949 229.54 397.049 230 397.239 230.42C397.419 230.85 397.699 231.23 398.039 231.55Z" fill="#40BC77"/>
<path d="M490.939 49.4004V96.9904C490.939 97.9004 491.299 98.7604 491.939 99.4004C492.579 100.04 493.449 100.4 494.349 100.4H541.939V100.21L491.029 49.4004H490.939Z" fill="#88D5AA"/>
<path d="M472.18 118.09C472.2 114.37 470.56 111.34 468.51 111.33C466.46 111.32 464.78 114.33 464.76 118.05C464.74 121.77 466.38 124.8 468.43 124.81C470.49 124.83 472.16 121.82 472.18 118.09Z" fill="#3A312E"/>
<path d="M435.43 118.23C435.45 114.51 433.81 111.48 431.76 111.47C429.71 111.46 428.03 114.47 428.01 118.19C427.99 121.91 429.63 124.94 431.68 124.95C433.73 124.96 435.41 121.95 435.43 118.23Z" fill="#3A312E"/>
<path d="M139.549 69.1602H274.299V31.9802V26.1802H139.549C129.399 26.1802 121.139 35.7902 121.139 47.6702C121.139 59.5502 129.389 69.1602 139.549 69.1602Z" fill="#A58CE1"/>
<path d="M201.8 259.6C203.26 259.65 204.64 260.25 205.67 261.28C206.55 262.08 207.08 263.19 207.16 264.37L206.97 269.59C206.93 270.76 206.44 271.86 205.6 272.67C204.76 273.48 203.63 273.92 202.46 273.9L186.77 273.82C186.45 273.84 186.13 273.74 185.87 273.55C185.61 273.36 185.43 273.08 185.36 272.76C185.25 272.46 185.25 272.12 185.36 271.82C185.48 271.52 185.7 271.27 185.98 271.12L194.05 267.06C194.69 266.84 195.26 266.47 195.71 265.97C196.23 265.13 196.5 264.16 196.47 263.17C196.56 260.55 198.33 259.35 201.8 259.6Z" fill="#B2B2B2"/>
<path d="M210.879 186.05C209.639 227.46 207.769 259.13 206.929 265.67C206.659 266.84 205.979 267.87 205.009 268.57C204.039 269.27 202.839 269.6 201.649 269.49C198.369 269.46 196.289 268.21 196.299 264.95C194.809 253.73 190.999 221.05 187.649 186.71C187.499 185.19 187.679 183.66 188.169 182.21C188.659 180.76 189.449 179.44 190.489 178.32C191.529 177.2 192.799 176.32 194.199 175.72C195.609 175.13 197.129 174.84 198.649 174.88C204.609 175.06 211.049 180.08 210.879 186.05Z" fill="#B2B2B2"/>
<path d="M221.609 259.6C220.149 259.64 218.769 260.23 217.729 261.26C216.849 262.05 216.309 263.16 216.219 264.34L216.369 269.56C216.399 270.73 216.879 271.84 217.719 272.65C218.559 273.46 219.679 273.91 220.849 273.9L236.539 273.93C236.859 273.95 237.179 273.86 237.439 273.67C237.699 273.48 237.879 273.2 237.959 272.88C238.079 272.58 238.079 272.24 237.959 271.94C237.849 271.64 237.619 271.38 237.339 271.23L229.299 267.12C228.659 266.9 228.099 266.52 227.649 266.02C227.129 265.18 226.879 264.21 226.909 263.22C226.849 260.59 225.079 259.38 221.609 259.6Z" fill="#B2B2B2"/>
<path d="M212.28 186.23C213.57 227.63 215.47 259.3 216.32 265.85C216.59 267.02 217.27 268.05 218.25 268.75C219.22 269.45 220.42 269.78 221.61 269.67C224.89 269.64 226.97 268.38 226.95 265.13C228.42 253.91 232.199 221.23 235.509 186.88C235.659 185.36 235.48 183.83 234.99 182.38C234.5 180.93 233.709 179.61 232.67 178.49C231.63 177.37 230.359 176.49 228.949 175.9C227.539 175.31 226.03 175.02 224.5 175.06C218.52 175.23 212.09 180.26 212.28 186.23Z" fill="#B2B2B2"/>
<path d="M304.79 104.44H107.5V176.44H304.79V104.44Z" fill="#E1DCFF"/>
<path d="M304.79 104.44H107.5V111.04H304.79V104.44Z" fill="#C1B1FA"/>
<path d="M297 180.01H107C106.2 180.01 105.47 179.53 105.16 178.79C104.95 178.29 100 166.35 100 138.76C100 111.12 103.81 102.97 103.97 102.64C104.3 101.95 105 101.52 105.77 101.52H297.75C298.85 101.52 299.75 102.42 299.75 103.52C299.75 104.62 298.85 105.52 297.75 105.52H116.02C115.09 108.49 112.85 117.8 112.85 138.77C112.85 160.59 116.07 172.4 117.26 176.02H297C298.1 176.02 299 176.92 299 178.02C299 179.12 298.11 180.01 297 180.01Z" fill="#8867C8"/>
<path d="M109.609 205.72C109.609 191.28 119.639 179.6 131.979 179.6H160.829L160.499 231.84H131.979C119.639 231.84 109.609 220.16 109.609 205.72Z" fill="#8867C8"/>
<path d="M149.549 227.98C149.549 227.98 129.709 226.44 129.709 205.5C129.709 184.56 149.769 183.9 149.769 183.9L149.549 227.98Z" fill="#684DAA"/>
<path d="M147.568 227.54H299.548V184.45H147.568V227.54Z" fill="#C7B8FF"/>
<path d="M147.568 191.61H299.548V184.45H147.568V191.61Z" fill="#BCA9F5"/>
<path d="M126.738 205.72C126.738 220.16 136.768 231.84 149.108 231.84H306.828V224.79H149.108C140.068 224.79 132.798 216.19 132.798 205.72C132.798 195.25 140.068 186.65 149.108 186.65H306.828V179.6H149.108C136.758 179.6 126.738 191.28 126.738 205.72Z" fill="#997DD7"/>
<path d="M149.82 69.1602H115.25C112.27 69.1602 109.85 72.0302 109.85 75.5502V95.6102C109.85 99.1402 112.27 102 115.25 102H149.82C150.92 101.89 150.92 69.1602 149.82 69.1602Z" fill="#B09BEB"/>
<path d="M293 71.04H125.25V99.7H293V71.04Z" fill="#C7B8FF"/>
<path d="M293 72.52H125.25V77.81H293V72.52Z" fill="#C7B8FF"/>
<path d="M294.349 69.1602H128.259C125.279 69.1602 122.859 72.0302 122.859 75.5502V95.6102C122.859 99.1402 125.279 102 128.259 102H294.349C295.449 102 296.329 101.01 296.329 99.6902C296.329 98.3702 295.449 97.3801 294.349 97.3801H128.259C127.379 97.3801 126.719 96.6102 126.719 95.6202V75.5502C126.719 74.5602 127.379 73.7902 128.259 73.7902H294.349C295.449 73.7902 296.329 72.8002 296.329 71.4802C296.329 70.1502 295.449 69.1602 294.349 69.1602Z" fill="#997DD7"/>
<path d="M155.09 65.6201C155.09 65.6201 138.59 65.0801 138.59 47.8501C138.59 30.6201 154.91 29.3501 154.91 29.3501L155.09 65.6201Z" fill="#684DAA"/>
<path d="M153.279 65.1702H278.309V29.7202H153.279V65.1702Z" fill="#E1DCFF"/>
<path d="M153.279 37.4203H278.309V31.5303H153.279V37.4203Z" fill="#B09BEB"/>
<path d="M154.549 69.1602H284.299V63.3602H154.549C147.119 63.3602 142.129 56.2902 142.129 47.6702C142.129 39.0502 147.109 31.9802 154.549 31.9802H284.299V26.1802H154.549C144.399 26.1802 136.139 35.7902 136.139 47.6702C136.139 59.5502 144.389 69.1602 154.549 69.1602Z" fill="#9376D2"/>
<path d="M246.758 86.23C246.778 82.12 244.968 78.79 242.708 78.77C240.448 78.76 238.598 82.08 238.578 86.18C238.558 90.28 240.368 93.62 242.628 93.63C244.888 93.65 246.738 90.34 246.758 86.23Z" fill="#3A312E"/>
<path d="M206.249 86.3799C206.269 82.2699 204.459 78.9399 202.199 78.9199C199.939 78.9099 198.089 82.2299 198.069 86.3299C198.049 90.4299 199.859 93.7699 202.119 93.7799C204.379 93.7999 206.229 90.4799 206.249 86.3799Z" fill="#3A312E"/>
<path d="M465.958 201.87C462.118 203.9 457.328 204.91 451.598 204.92C444.198 204.92 438.278 202.54 433.828 197.78C429.378 193.02 427.158 186.77 427.158 179.03C427.158 170.72 429.658 164 434.658 158.87C439.658 153.75 446.008 151.18 453.698 151.18C457.888 151.04 462.058 151.77 465.958 153.32V159.81C462.188 157.72 457.938 156.65 453.628 156.69C447.658 156.69 442.818 158.68 439.108 162.67C435.398 166.66 433.538 171.99 433.538 178.66C433.538 184.99 435.268 190.04 438.738 193.8C440.478 195.67 442.588 197.14 444.948 198.11C447.308 199.08 449.838 199.54 452.388 199.44C457.148 199.56 461.838 198.36 465.948 195.96L465.958 201.87Z" fill="#605D5A"/>
<path d="M511.997 166.63L511.168 170.47H501.707L499.427 181.35H509.617L508.638 185.19H498.668L495.478 199.58H490.908L494.027 185.19H484.967L481.918 199.58H477.388L480.438 185.19H470.938L471.658 181.35H481.267L483.478 170.47H473.438L474.198 166.63H484.237L487.288 152.05H491.857L488.807 166.63H497.948L501.068 152.05H505.527L502.478 166.63H511.997ZM497.207 170.47H488.068L485.677 181.35H494.888L497.207 170.47Z" fill="#605D5A"/>
<path d="M116.25 176.94H119V104.44C119 104.44 118.75 104.19 116.25 104.44C107 129.94 116.25 176.94 116.25 176.94Z" fill="#684DAA"/>
<path d="M308 180.01H118C117.2 180.01 116.47 179.53 116.16 178.79C115.95 178.29 111 166.35 111 138.76C111 111.12 114.81 102.97 114.97 102.64C115.3 101.95 116 101.52 116.77 101.52H308.75C309.85 101.52 310.75 102.42 310.75 103.52C310.75 104.62 309.85 105.52 308.75 105.52H118.17C117.24 108.49 115 117.8 115 138.77C115 160.59 118.22 172.4 119.41 176.02H308C309.1 176.02 310 176.92 310 178.02C310 179.12 309.11 180.01 308 180.01Z" fill="#AA93E6"/>
<path d="M105.75 148.19C86.6298 156.41 77.1098 172.86 74.0898 180.74L83.4998 184.14C85.9698 177.79 91.1298 165.15 106.75 158.44L105.75 148.19Z" fill="#505050"/>
<path d="M75.149 192.16C75.759 192.39 76.419 192.5 77.069 192.48C77.729 192.46 78.369 192.31 78.969 192.04C79.569 191.77 80.109 191.38 80.549 190.9C80.999 190.42 81.349 189.86 81.579 189.24L83.599 183.85L74.209 180.4L72.209 185.73C71.979 186.34 71.869 187 71.889 187.66C71.909 188.32 72.059 188.96 72.329 189.56C72.599 190.16 72.989 190.7 73.469 191.15C73.979 191.58 74.539 191.93 75.149 192.16Z" fill="#A58CE1"/>
<path d="M200.448 166.35C196.608 168.38 191.818 169.39 186.088 169.4C178.688 169.4 172.768 167.02 168.318 162.26C163.868 157.5 161.648 151.25 161.648 143.51C161.648 135.2 164.148 128.48 169.148 123.35C174.148 118.23 180.498 115.66 188.188 115.66C192.378 115.52 196.548 116.25 200.448 117.8V124.29C196.678 122.2 192.428 121.13 188.118 121.17C182.148 121.17 177.308 123.16 173.598 127.15C169.888 131.14 168.028 136.47 168.028 143.14C168.028 149.47 169.758 154.52 173.228 158.28C174.968 160.15 177.078 161.62 179.438 162.59C181.798 163.56 184.328 164.02 186.878 163.92C191.638 164.04 196.328 162.84 200.438 160.44L200.448 166.35Z" fill="#605D5A"/>
<path d="M231.609 144.45H217.799V158.22H213.249V144.45H199.479V139.87H213.249V126.1H217.799V139.87H231.609V144.45Z" fill="#605D5A"/>
<path d="M269.489 144.45H255.679V158.22H251.129V144.45H237.359V139.87H251.129V126.1H255.679V139.87H269.489V144.45Z" fill="#605D5A"/>
<path d="M252 220.44L233.5 212.94L213.5 220.44V196.94H252V220.44Z" fill="#E1DCFF"/>
</svg>
