<svg width="636" height="300" viewBox="0 0 636 300" fill="none" xmlns="http://www.w3.org/2000/svg">
<path d="M282.553 77.5431C279.696 77.5412 276.861 78.045 274.18 79.0311C276.098 70.9309 276.337 62.524 274.883 54.3278C273.43 46.1316 270.314 38.3197 265.728 31.373C261.141 24.4264 255.182 18.492 248.215 13.9352C241.249 9.37844 233.424 6.29575 225.222 4.87693C217.02 3.45811 208.614 3.73319 200.522 5.68524C192.43 7.63728 184.823 11.225 178.17 16.2274C171.517 21.2299 165.958 27.5412 161.835 34.7729C157.713 42.0045 155.115 50.0034 154.2 58.2771C148.709 54.3412 142.254 51.9688 135.521 51.4127C128.788 50.8566 122.031 52.1377 115.969 55.1195C109.907 58.1012 104.767 62.6719 101.098 68.3444C97.429 74.0168 95.3677 80.5785 95.134 87.3301C92.3796 85.8096 89.3139 84.9395 86.1714 84.7865C83.0289 84.6335 79.8931 85.2017 77.0041 86.4475C74.1151 87.6933 71.5495 89.5838 69.5038 91.974C67.458 94.3643 65.9864 97.191 65.2016 100.238C64.4168 103.285 64.3396 106.47 64.976 109.552C65.6123 112.633 66.9453 115.527 68.8729 118.014C70.8005 120.5 73.2716 122.513 76.0969 123.897C78.9222 125.281 82.0268 126.001 85.173 126H282.553C288.952 125.959 295.075 123.388 299.585 118.849C304.095 114.31 306.626 108.171 306.626 101.772C306.626 95.3727 304.095 89.2335 299.585 84.6943C295.075 80.155 288.952 77.5842 282.553 77.5431Z" fill="#BFE1F7"/>
<path d="M615.562 282.931H14.6118C13.567 282.908 12.571 282.485 11.83 281.748C11.0891 281.01 10.6601 280.017 10.6318 278.972C10.6376 277.92 11.0595 276.914 11.8053 276.172C12.5511 275.43 13.5601 275.014 14.6118 275.014H615.562C616.086 275.003 616.606 275.098 617.092 275.293C617.579 275.488 618.021 275.778 618.392 276.148C618.764 276.517 619.057 276.958 619.255 277.443C619.452 277.928 619.55 278.448 619.542 278.972C619.536 280.024 619.114 281.031 618.368 281.772C617.623 282.514 616.614 282.931 615.562 282.931Z" fill="#B2B2B2"/>
<path d="M353 258.12V242H302V258.12C302 267.42 291.71 271.555 287.03 273L287 278H370V273C365.32 271.555 353 267.422 353 258.12Z" fill="#A6A6A6"/>
<path d="M460 220V73.821C460 71.7468 459.176 69.7577 457.709 68.291C456.242 66.8243 454.253 66.0003 452.179 66H204.821C202.747 66.0003 200.758 66.8243 199.291 68.291C197.824 69.7577 197 71.7468 197 73.821V220H460Z" fill="#4B4A4B"/>
<path d="M327.255 74.5479C328.354 74.5479 329.246 73.6565 329.246 72.5569C329.246 71.4573 328.354 70.5659 327.255 70.5659C326.155 70.5659 325.264 71.4573 325.264 72.5569C325.264 73.6565 326.155 74.5479 327.255 74.5479Z" fill="#767576"/>
<path d="M197 217V235.179C197 237.253 197.824 239.242 199.291 240.709C200.758 242.176 202.747 243 204.821 243H452.179C454.253 243 456.242 242.176 457.709 240.709C459.176 239.242 460 237.253 460 235.179V217H197Z" fill="#A6A6A6"/>
<path d="M370 273H287V278H370V273Z" fill="#737373"/>
<path d="M353 257V243H302V257H353Z" fill="#737373"/>
<path d="M327.5 233C329.985 233 332 230.985 332 228.5C332 226.015 329.985 224 327.5 224C325.015 224 323 226.015 323 228.5C323 230.985 325.015 233 327.5 233Z" fill="#737373"/>
<path d="M448 79H209V208H448V79Z" fill="#8FC3EC"/>
<path d="M395.05 130H209.122L208.878 107H394.805C397.728 106.961 400.562 108.012 402.753 109.947C404.945 111.882 406.338 114.563 406.662 117.469C406.796 119.071 406.595 120.683 406.071 122.203C405.547 123.723 404.712 125.116 403.619 126.295C402.527 127.475 401.201 128.413 399.725 129.051C398.25 129.689 396.657 130.012 395.05 130Z" fill="#B3D6F2"/>
<path d="M434.685 107H337.672C336.483 107.025 335.321 106.643 334.379 105.917C333.437 105.191 332.772 104.165 332.494 103.009C332.354 102.263 332.384 101.496 332.58 100.763C332.776 100.03 333.134 99.3506 333.628 98.7742C334.121 98.1979 334.737 97.7393 335.431 97.4323C336.125 97.1253 336.878 96.9776 337.637 97H434.649C435.837 96.9746 436.999 97.3565 437.941 98.0825C438.883 98.8085 439.548 99.8348 439.827 100.991C439.966 101.737 439.937 102.504 439.74 103.237C439.544 103.97 439.186 104.649 438.693 105.226C438.2 105.802 437.584 106.261 436.89 106.568C436.196 106.875 435.443 107.023 434.685 107Z" fill="#B3D6F2"/>
<path d="M208 126.634L217.706 123H235.188L243.5 118.25L253 114.688L266.063 104H271.286L274.932 102H287.184L305.85 96.167L322.184 114.833C322.184 114.833 330.35 113.667 331.517 114.833C332.684 115.999 342.017 113.667 342.017 113.667C342.017 113.667 347.85 123 349.017 123H358.508L368.794 132H372.6L390.6 144H397.8L407.4 138L415.8 136.8C415.8 136.8 419.4 144 424.2 144C429 144 433.8 142.8 436.2 144C438.6 145.2 449 148.8 449 148.8V209H208V126.634Z" fill="#8867C8"/>
<path d="M236.291 171.961C236.291 171.961 222.922 156.161 218.061 152.515C213.2 148.869 213.2 140.362 213.2 140.362C213.2 140.362 219.276 135.501 220.492 135.501C221.708 135.501 222.922 139.147 221.707 141.577C220.492 144.007 222.922 147.654 222.922 147.654C222.922 147.654 221.707 141.577 224.138 142.793C226.569 144.009 228.999 141.577 228.999 137.931V129.424L232.645 126.994C232.645 126.994 233.86 139.147 236.291 141.577C238.722 144.007 247.229 151.3 247.229 151.3C247.229 151.3 243.583 139.147 243.583 137.931C243.583 136.715 248.444 131.855 248.444 131.855C248.444 131.855 250.875 140.362 254.521 141.577C258.167 142.792 266.674 131.855 266.674 131.855L276.397 140.362L261.813 168.315L236.291 171.961Z" fill="#7359AE"/>
<path d="M295.75 141C295.75 141 282 124.75 282 122.25V112.25L284.5 114.75C284.5 114.75 285.75 124.75 288.25 126C290.75 127.25 304.5 118.5 304.5 118.5L300.75 126H305.75L310.75 124.75L300.75 141H295.75Z" fill="#7359AE"/>
<path d="M321.537 122C321.537 122 320.307 130.615 319.076 131.846C317.845 133.077 314.153 140.462 314.153 140.462L323.999 149.077V138H325.23L326.461 122H321.537Z" fill="#7359AE"/>
<path d="M348.458 127.3L341.774 133.073L334.482 147.657L338.128 151.303C338.128 151.303 347.851 141.58 349.066 141.58C350.281 141.58 348.458 127.3 348.458 127.3Z" fill="#7359AE"/>
<path d="M366.138 183.383L362.492 162.723L366.138 153H370.999V161.507L375.86 163.938L372.214 176.091L374.645 196.752L366.138 183.383Z" fill="#7359AE"/>
<path d="M383.096 180.307L381.881 164.507L385.527 156H390.388L386.742 164.507L385.527 183.952L383.096 180.307Z" fill="#7359AE"/>
<path d="M406.187 152.515L415.91 158.592L414.694 163.453C414.694 163.453 413.479 174.391 413.479 175.607C413.479 176.823 409.833 190.19 409.833 190.19L413.479 204.774L406.187 198.698L398.895 180.468L401.326 159.807L398.895 157.377L401.326 146.439L406.187 152.515Z" fill="#7359AE"/>
<path d="M430.54 214C430.54 214 423.34 193.6 423.34 192.4C423.34 191.2 424.54 173.2 424.54 173.2L428.14 175.6C428.14 175.6 426.94 182.8 428.14 185.2C429.34 187.6 434.14 196 434.14 196H437.74L444.94 214H430.54Z" fill="#7359AE"/>
<path d="M397.618 216.6L363.546 179.621L356.559 176.127L341.419 159.822L332.1 149.214L309.973 140.022L304.15 135.364L287.85 143.516L279.517 144.358L272.417 148H270.57L262.09 154.058C262.09 154.058 254.82 156.481 253.609 156.481C252.398 156.481 242.709 163.75 242.709 163.75L237.863 164.961C237.863 164.961 234.228 169.808 229.382 169.808C224.536 169.808 201.517 179.5 201.517 179.5L207.57 211L308 212H308.026L397.618 216.6Z" fill="#7359AE"/>
<path d="M233.407 123.348L237.256 128.209L240.902 125.778L243.333 118.486L233.407 123.348Z" fill="#A38CDD"/>
<path d="M253.353 114.84L247.276 126.994L253.353 128.209L256.999 117.271V111.857L253.353 114.84Z" fill="#A38CDD"/>
<path d="M286.354 101.708L282.708 109H286.354L290 105.354V109H298.507L305.799 112.646L311.876 122.369C311.876 122.369 311.876 119.938 313.091 119.938C314.306 119.938 310.661 106.569 310.661 106.569L305.8 95.6311L286.354 101.708Z" fill="#A38CDD"/>
<path d="M265 128.6C266.208 128.6 273.458 119 273.458 119H275L276.25 126.292L278.75 129.938L281.25 134.799C281.25 134.799 286.25 138.445 290 139.661C293.75 140.877 297.5 138.445 297.5 138.445L303.75 134.799C303.75 134.799 303.75 139.661 305 139.661C306.25 139.661 308.75 137.23 308.75 137.23L315 139.661L316.25 142.091L320 143.307C320 143.307 322.5 146.952 325 146.952C327.53 147.147 330.038 147.553 332.5 148.168C332.5 148.168 330 154.244 331.25 156.675C332.5 159.106 336.25 168.828 336.25 168.828L323.75 167.613L315 166.4V146.952L312.5 149.383L308.75 165.183C308.75 165.183 305 159.107 305 156.676V151.3L304 147.654V143H300.042L294 149V144.2L285.542 151.4C285.542 151.4 285.542 145.4 281.917 145.4C278.292 145.4 274.667 141.8 274.667 141.8C274.667 141.8 269.833 141.8 267.417 140.6C266.729 140.271 266.141 139.764 265.716 139.131C265.291 138.497 265.043 137.762 265 137V128.6Z" fill="#A38CDD"/>
<path d="M350.342 123L342.93 139.059L344.166 140.294L346.636 144H357V140C357 137.333 355.75 133.333 357 133.333C357.96 133.184 358.841 132.714 359.5 132L367 140C367 140 368.25 144 367 145.333C366.28 146.045 365.837 146.991 365.75 148H369.5L372 142.667V148.714C372 148.714 377.143 151.286 378.429 148.714C379.715 146.142 379.418 136.945 379.418 136.945L374.518 133.681L372 138.429V132H368.143L357.857 123H350.342Z" fill="#A38CDD"/>
<path d="M397.276 144.008L399.707 147.654L404.568 151.3L403.353 145.223L406.999 142.793V137.931L397.276 144.008Z" fill="#A38CDD"/>
<path d="M424.909 143.631C424.909 143.631 422.478 150.923 421.263 152.139L418.832 154.569C418.832 154.569 420.048 157 421.263 157H427.339L430.985 158.215L439.493 159.431L448 155.582V148.493L435.847 142.416L424.909 143.631Z" fill="#A38CDD"/>
<path d="M341.458 159C341.458 159 337.601 168 338.887 168H345.315L349.172 177H356.887L354.315 168L345.315 160.286L341.458 159Z" fill="#A38CDD"/>
<path d="M364 180V187.292L368.861 192.153C369.413 193.733 369.82 195.361 370.077 197.015C370.077 198.23 372.507 200.661 371.292 201.876C370.183 202.836 368.958 203.653 367.646 204.307C367.646 204.307 383.446 214.029 385.876 214.029C388.306 214.029 404.106 216.46 404.106 216.46L391.952 203.091L387.091 199.445L383.445 190.938L379.799 193.369L374.938 189.723L373.723 184.861L367.646 180H364Z" fill="#A38CDD"/>
<path d="M345.875 125.778L343.444 113.625L335.365 115.07L328.86 113.625L322.784 114.84L321.568 122.132L323.999 124.563V130.639L327.645 131.855L332.506 124.563L334.22 119.421L345.875 125.778Z" fill="#A38CDD"/>
<path d="M448 78H209V83H448V78Z" fill="white"/>
<path d="M399 197H255V208H399V197Z" fill="#505050"/>
<path d="M228 272V149.058C228 147.717 227.467 146.43 226.518 145.482C225.57 144.533 224.283 144 222.942 144H44.058C42.7166 144 41.4302 144.533 40.4817 145.482C39.5332 146.43 39.0003 147.717 39 149.058V272H228Z" fill="#4B4A4B"/>
<path d="M242.715 278H24.9372C17.6782 278 16.4922 268 16.4922 268H251.159C251.159 268 248.344 278 242.715 278Z" fill="#737373"/>
<path d="M135 148H132V151H135V148Z" fill="#5D5F5E"/>
<path fill-rule="evenodd" clip-rule="evenodd" d="M48 251.44C48.0175 252.11 48.2902 252.748 48.7625 253.224C49.2348 253.7 49.871 253.978 50.541 254H215.041C215.561 254 216.076 253.897 216.556 253.698C217.037 253.499 217.473 253.207 217.841 252.839C218.208 252.472 218.5 252.035 218.699 251.555C218.898 251.074 219 250.559 219 250.039V155.049C219 155.043 218.999 155.036 218.996 155.03C218.994 155.024 218.99 155.019 218.986 155.014C218.981 155.01 218.976 155.006 218.97 155.004C218.964 155.001 218.957 155 218.951 155H48.2C48.147 155 48.0961 155.021 48.0586 155.059C48.0211 155.096 48 155.147 48 155.2V251" fill="#69AFE5"/>
<path d="M122 169H48V254H122V169Z" fill="black"/>
<path d="M57.0808 186.954C59.3761 186.954 61.2368 185.173 61.2368 182.977C61.2368 180.781 59.3761 179 57.0808 179C54.7855 179 52.9248 180.781 52.9248 182.977C52.9248 185.173 54.7855 186.954 57.0808 186.954Z" fill="#107C10"/>
<path d="M95 192H78V207H95V192Z" fill="#0078D7"/>
<path d="M86 207H78V214H86V207Z" fill="#0078D7"/>
<path d="M94 207H86V214H94V207Z" fill="#107C10"/>
<path d="M103 192H95V199H103V192Z" fill="#0078D7"/>
<path d="M111 192H104V199H111V192Z" fill="#0078D7"/>
<path d="M95 230H78V245H95V230Z" fill="#107C10"/>
<path d="M103 230H95V237H103V230Z" fill="#0078D7"/>
<path d="M111 230H104V237H111V230Z" fill="#0078D7"/>
<path d="M103 238H95V245H103V238Z" fill="white"/>
<path d="M111 238H104V245H111V238Z" fill="#2F2F2F"/>
<path d="M85 218H78V225H85V218Z" fill="#00188F"/>
<path d="M94 218H86V225H94V218Z" fill="#D83B01"/>
<path d="M102 218H95V225H102V218Z" fill="#5C2D91"/>
<path d="M111 218H103V225H111V218Z" fill="#107C10"/>
<path d="M111 177H78V190H111V177Z" fill="#0078D7"/>
<path d="M111 200H94V214H111V200Z" fill="#0078D7"/>
<path fill-rule="evenodd" clip-rule="evenodd" d="M219 245H48.0004V252.585C47.9948 252.902 48.0526 253.216 48.1705 253.51C48.2885 253.804 48.4641 254.072 48.687 254.297C48.91 254.522 49.1757 254.7 49.4686 254.821C49.7615 254.942 50.0756 255.003 50.3924 255H216.608C216.925 255.003 217.239 254.942 217.532 254.821C217.825 254.7 218.091 254.522 218.314 254.297C218.537 254.072 218.712 253.804 218.83 253.51C218.948 253.216 219.006 252.902 219 252.585V245Z" fill="black"/>
<path d="M60 190H53V195H60V190Z" fill="#0078D7"/>
<path d="M60 197H53V202H60V197Z" fill="#0078D7"/>
<path d="M60 204H53V209H60V204Z" fill="#A80000"/>
<path d="M60 211H53V216H60V211Z" fill="#0078D7"/>
<path d="M60 218H53V223H60V218Z" fill="#0078D7"/>
<path fill-rule="evenodd" clip-rule="evenodd" d="M219 155H160.1L219 244.5C219.042 244.5 219.042 155 219 155Z" fill="#8FC3EC"/>
<path fill-rule="evenodd" clip-rule="evenodd" d="M194.434 183.282C194.557 182.85 194.607 182.401 194.583 181.952C194.577 179.32 193.526 176.799 191.661 174.942C189.796 173.086 187.269 172.046 184.638 172.052C182.666 172.074 180.743 172.673 179.108 173.776C177.473 174.879 176.197 176.438 175.438 178.258C174.308 177.606 173.031 177.25 171.727 177.223C170.752 177.211 169.784 177.394 168.881 177.761C167.977 178.128 167.156 178.671 166.465 179.359C165.774 180.047 165.227 180.866 164.856 181.768C164.485 182.67 164.298 183.637 164.306 184.612C164.316 186.574 165.102 188.452 166.492 189.836C167.882 191.22 169.763 191.998 171.725 192H193.1C194.292 191.965 195.424 191.467 196.255 190.612C197.086 189.757 197.551 188.612 197.552 187.419C197.531 186.49 197.218 185.591 196.659 184.849C196.1 184.106 195.321 183.558 194.434 183.282Z" fill="white"/>
<path fill-rule="evenodd" clip-rule="evenodd" d="M182 207.984V245H159V229H160V222H169V229H170V236.999H175V209.103L182 207.984Z" fill="#0089DE"/>
<path fill-rule="evenodd" clip-rule="evenodd" d="M219 235V245H185V219H195V230H197V215H199V212H206V215H208V235H219Z" fill="#0089DE"/>
<path fill-rule="evenodd" clip-rule="evenodd" d="M148.805 229.176C148.597 226.876 148.483 224.469 148.483 222C148.483 213.5 149.804 205.738 151.848 200.466C154.689 200.183 157.47 199.469 160.096 198.348C156.401 196.817 152.444 196.02 148.445 196L147.645 189H147.214L146.585 196C142.569 196.015 138.595 196.814 134.885 198.351C137.511 199.472 140.293 200.186 143.135 200.469C145.179 205.738 146.5 213.5 146.5 222C146.5 224.469 146.386 226.873 146.178 229.176C144.398 229.262 142.647 229.658 141.005 230.348C142.569 231.009 144.235 231.4 145.93 231.504C145.461 236.146 144.314 240.695 142.525 245.004H143.641C145.218 241.156 146.27 237.114 146.769 232.986V245.015H148.213V232.973C148.711 237.104 149.763 241.15 151.342 245H152.458C150.669 240.691 149.522 236.142 149.053 231.5C150.748 231.396 152.413 231.005 153.977 230.344C152.334 229.656 150.584 229.26 148.805 229.176ZM148.213 211.016V200.7C149.057 200.684 149.888 200.645 150.698 200.578C149.499 203.958 148.666 207.458 148.213 211.016ZM144.284 200.582C145.095 200.649 145.925 200.688 146.769 200.704V211.004C146.315 207.451 145.482 203.957 144.284 200.582Z" fill="#0089DE"/>
<path d="M594 272V166.369C594 165.21 593.54 164.099 592.72 163.28C591.901 162.46 590.79 162 589.631 162H435.369C434.21 162 433.099 162.46 432.28 163.28C431.46 164.099 431 165.21 431 166.369V272H594Z" fill="#4B4A4B"/>
<path d="M454 171H440V261H454V171Z" fill="#750000"/>
<path d="M586 171H454V261H586V171Z" fill="#E27C37"/>
<path d="M586 261H577.681L524.477 171H586V261Z" fill="#EA8B4B"/>
<path d="M607.2 278H418.324C412.024 278 411 271 411 271H614.524C614.524 271 612.083 278 607.2 278Z" fill="#737373"/>
<path d="M514 166H511V168H514V166Z" fill="#5D5F5E"/>
<path d="M586 171H440V177H586V171Z" fill="#737373"/>
<path d="M450 181H443V188H450V181Z" fill="#D83B01"/>
<path d="M450 191H443V198H450V191Z" fill="#0872C4"/>
<path d="M450 200H443V207H450V200Z" fill="#107C10"/>
<path d="M450 210H443V217H450V210Z" fill="#BD3604"/>
<path d="M450 219H443V226H450V219Z" fill="#D83B01"/>
<path d="M450 229H443V236H450V229Z" fill="#0872C4"/>
<path d="M286 198H278V206H286V198Z" fill="#0078D7"/>
<path d="M306 198H298V206H306V198Z" fill="#5C2D91"/>
<path d="M316 198H308V206H316V198Z" fill="#737373"/>
<path d="M272 206.243C274.343 206.243 276.243 204.343 276.243 202C276.243 199.657 274.343 197.757 272 197.757C269.657 197.757 267.757 199.657 267.757 202C267.757 204.343 269.657 206.243 272 206.243Z" fill="#32145A"/>
<path d="M292 206.243C294.343 206.243 296.243 204.343 296.243 202C296.243 199.657 294.343 197.757 292 197.757C289.657 197.757 287.757 199.657 287.757 202C287.757 204.343 289.657 206.243 292 206.243Z" fill="#1AC3F3"/>
<path d="M322 206.243C324.343 206.243 326.243 204.343 326.243 202C326.243 199.657 324.343 197.757 322 197.757C319.657 197.757 317.757 199.657 317.757 202C317.757 204.343 319.657 206.243 322 206.243Z" fill="#107C10"/>
<path d="M336 198H328V206H336V198Z" fill="#0078D7"/>
<path d="M356 198H348V206H356V198Z" fill="#AF5443"/>
<path d="M366 198H358V206H366V198Z" fill="#737373"/>
<path d="M266 198H258V206H266V198Z" fill="#737373"/>
<path d="M386 198H378V206H386V198Z" fill="#0078D7"/>
<path d="M342 206.243C344.343 206.243 346.243 204.343 346.243 202C346.243 199.657 344.343 197.757 342 197.757C339.657 197.757 337.757 199.657 337.757 202C337.757 204.343 339.657 206.243 342 206.243Z" fill="#A6A6A6"/>
<path d="M372 206.243C374.343 206.243 376.243 204.343 376.243 202C376.243 199.657 374.343 197.757 372 197.757C369.657 197.757 367.757 199.657 367.757 202C367.757 204.343 369.657 206.243 372 206.243Z" fill="#32145A"/>
<path d="M392 206.243C394.343 206.243 396.243 204.343 396.243 202C396.243 199.657 394.343 197.757 392 197.757C389.657 197.757 387.757 199.657 387.757 202C387.757 204.343 389.657 206.243 392 206.243Z" fill="#1AC3F3"/>
</svg>
