<svg xmlns="http://www.w3.org/2000/svg" viewBox="0 0 636 300"><title>swimlane-boxes-and-devices</title><path d="M447.5,197V165.713a8.213,8.213,0,0,1,8.213-8.213h11.17A12.617,12.617,0,0,0,479.5,144.883V131" fill="none" stroke="#b2b2b2" stroke-miterlimit="10"/><line x1="374.5" y1="137" x2="374.5" y2="154" fill="none" stroke="#b2b2b2" stroke-miterlimit="10" stroke-dasharray="2 2"/><line x1="378.5" y1="182" x2="378.5" y2="127" fill="none" stroke="#b2b2b2" stroke-miterlimit="10"/><line x1="433.5" y1="227" x2="433.5" y2="172" fill="none" stroke="#b2b2b2" stroke-miterlimit="10"/><line x1="267.75" y1="195.5" x2="267.75" y2="171.5" fill="none" stroke="#b2b2b2" stroke-miterlimit="10" stroke-dasharray="2 2"/><line x1="279.5" y1="200" x2="279.5" y2="170.25" fill="none" stroke="#b2b2b2" stroke-miterlimit="10"/><path d="M208.5,186.75V173.321c0-3.767-3.554-6.821-7.321-6.821H180.144c-8.364,0-14.644-6.78-14.644-15.144V126.75" fill="none" stroke="#b2b2b2" stroke-miterlimit="10"/><path d="M218.5,186.25V163c0-6.25-5.75-8.75-5.75-8.75" fill="none" stroke="#b2b2b2" stroke-miterlimit="10"/><path d="M484.57,290H186.864a4.627,4.627,0,0,1-4.525-4.5,4.526,4.526,0,0,1,4.525-4.5H484.57a4.432,4.432,0,0,1,4.525,4.5,4.525,4.525,0,0,1-4.525,4.5Z" fill="#b2b2b2"/><line x1="238.5" y1="145" x2="238.5" y2="90" fill="none" stroke="#b2b2b2" stroke-miterlimit="10"/><rect x="355" y="165" width="41" height="120" fill="#939393"/><rect x="355" y="167" width="41" height="118" fill="none"/><polygon points="357 285 326 285 326 168 357 165 357 285" fill="#505050"/><rect x="326" y="167" width="29" height="118" fill="none"/><polygon points="338.649 181 307.658 181 326.456 165 357.699 165 338.649 181" fill="none"/><polygon points="342 193.581 335.572 199 339 199 339 206 345 206 345 199 348.429 199 342 193.581" fill="#303333"/><polygon points="357 165 374.936 185 396 185 396 175.456 357 165" fill="#505050"/><rect x="414" y="192" width="41" height="93" fill="#c2c2c2"/><rect x="414" y="192" width="41" height="92" fill="none"/><rect x="385" y="192" width="29" height="93" fill="#737373"/><rect x="385" y="192" width="29" height="92" fill="none"/><polygon points="396.8 207 367.746 207 385.369 192 414.66 192 396.8 207" fill="#c2c2c2"/><polygon points="396.8 207 367.746 207 385.369 192 414.66 192 396.8 207" fill="none"/><polygon points="476.27 207 435.786 207 414.592 192 455.075 192 476.27 207" fill="#e4d2a9"/><polygon points="400 219.806 393.572 226 397 226 397 234 403 234 403 226 406.429 226 400 219.806" fill="#303333"/><polygon points="416 192.25 433.537 211 455 211 455 201.276 416 192.25" fill="#939393"/><polygon points="476.27 207 435.786 207 414.592 192 455.075 192 476.27 207" fill="#c2c2c2"/><rect x="241" y="183" width="61" height="103" fill="#c2c2c2"/><rect x="244" y="183" width="62" height="103" fill="none"/><rect x="201" y="183" width="41" height="103" fill="#737373"/><rect x="201" y="183" width="44" height="103" fill="none"/><polygon points="214.069 206 173.52 206 200.541 183 241.454 183 214.069 206" fill="#c2c2c2"/><polygon points="214.069 206 169.52 206 196.541 183 241.454 183 214.069 206" fill="none"/><polygon points="334.679 206 272.604 206 240.106 183 302.18 183 334.679 206" fill="#e4d2a9"/><polygon points="222.999 225.71 212.286 235 218 235 218 247 228 247 228 235 233.715 235 222.999 225.71" fill="#303333"/><polygon points="240.957 183.625 269.582 213 302 213 302 198.312 240.957 183.625" fill="#939393"/><polygon points="334.679 206 272.604 206 240.106 183 302.18 183 334.679 206" fill="#c2c2c2"/><line x1="247.75" y1="121.5" x2="247.75" y2="97.5" fill="none" stroke="#b2b2b2" stroke-miterlimit="10" stroke-dasharray="2 2"/><line x1="351.5" y1="158" x2="351.5" y2="88" fill="none" stroke="#b2b2b2" stroke-miterlimit="10"/><line x1="232.5" y1="130" x2="232.5" y2="173.333" fill="none" stroke="#b2b2b2" stroke-miterlimit="10" stroke-dasharray="2 2"/><line x1="407.5" y1="100" x2="407.5" y2="143.333" fill="none" stroke="#b2b2b2" stroke-miterlimit="10" stroke-dasharray="2 2"/><path d="M301.5,81.5V13.923a3.422,3.422,0,0,0-3.423-3.423H198.923a3.422,3.422,0,0,0-3.423,3.423V81.5Z" fill="#2e2e2e" stroke="#909090" stroke-miterlimit="10" stroke-width="1.221"/><rect x="182" y="82" width="132" height="3" fill="#4b4a4b"/><path d="M300.088,86H198.663c-14.858.244-16.7-1.806-16.7-2H313.194C313.194,84.194,311.691,86.244,300.088,86Z" fill="#2e2e2e"/><rect x="200" y="16" width="96" height="61" fill="#8fc3ec"/><path d="M237.14,81c.017,1.422.735,2.133,1.622,2h17.6c.887.133,1.605-.578,1.622-2Z" fill="#c7c7c7"/><polygon points="296 58.789 296 16 259.646 16 296 58.789" fill="#b3d6f2"/><circle cx="247.706" cy="13.366" r="1.115" fill="#767576"/><path d="M359.753,83.724a55.671,55.671,0,0,1-10.041.689,60.286,60.286,0,0,1-10.461-.693C337.907,83.374,337,82.568,337,81.3V40.989c0-1.3.857-2.077,2.311-2.295a92.606,92.606,0,0,1,10.341-.6,70.285,70.285,0,0,1,10.04.593c1.557.247,2.308,1.055,2.308,2.35V81.3C362,82.57,361.33,83.368,359.753,83.724Z" fill="#2e2e2e"/><rect x="339" y="43" width="21" height="37" fill="#8fc3ec"/><circle cx="348.996" cy="40.313" r="0.455" fill="#767576"/><circle cx="341.806" cy="40.672" r="0.365" fill="#767576"/><polygon points="360 60.956 360 43 340.389 43 360 60.956" fill="#b3d6f2"/><path d="M283.841,105H253.127A1.128,1.128,0,0,0,252,106.127v59.746A1.128,1.128,0,0,0,253.127,167h46.746A1.128,1.128,0,0,0,301,165.876l.13-43.549Z" fill="#ffb900"/><path d="M301,121.938,284.03,105H284v15.873A1.128,1.128,0,0,0,285.127,122H301Z" fill="#939393"/><rect x="259" y="130" width="34" height="3" fill="#e26c41"/><rect x="259" y="138" width="34" height="3" fill="#e26c41"/><rect x="259" y="146" width="34" height="3" fill="#e26c41"/><path d="M126.444,114.457c0,5.345,4.319,10.406,9.938,10.406h72.559a16.13,16.13,0,0,0,.076-32.259,15.938,15.938,0,0,0-4.072.528c0-.176.013-.351.013-.528a20.6,20.6,0,0,0-40.874-3.675,15.921,15.921,0,0,0-27.072,15.909,9.762,9.762,0,0,0-1.046-.059A9.546,9.546,0,0,0,126.444,114.457Z" fill="#ffcb40"/><path d="M372,120.827V93.173A2.319,2.319,0,0,0,369.594,91h-9.188A2.319,2.319,0,0,0,358,93.173v27.654A2.319,2.319,0,0,0,360.406,123h9.188A2.319,2.319,0,0,0,372,120.827Z" fill="#ffcb40" fill-rule="evenodd"/><path d="M369.105,91H367v32h2.105c1.579,0,2.895-.988,2.895-2.173V93.173C372,91.988,370.684,91,369.105,91Z" fill="#e6a600" fill-rule="evenodd"/><path d="M386,120.835V88.165a2.291,2.291,0,0,0-2.1-2.165H375.1a2.15,2.15,0,0,0-2.1,2.165v32.67a2,2,0,0,0,1.9,2.165h9A2.15,2.15,0,0,0,386,120.835Z" fill="#ffcb40" fill-rule="evenodd"/><path d="M383.417,86H381v37h2.417A2.333,2.333,0,0,0,386,120.865V87.944C386.033,86.754,384.844,85.961,383.417,86Z" fill="#e6a600" fill-rule="evenodd"/><path d="M401,120.809V78.191A2.3,2.3,0,0,0,398.778,76h-9.334A2.349,2.349,0,0,0,387,78.191v42.618A2.349,2.349,0,0,0,389.444,123h9.112A2.349,2.349,0,0,0,401,120.809Z" fill="#ffcb40" fill-rule="evenodd"/><path d="M398.35,76h-2.121l-.265,47h2.121c1.59,0,2.915-1,2.915-2.191V78.191A2.558,2.558,0,0,0,398.35,76Z" fill="#e6a600" fill-rule="evenodd"/><path d="M186.372,149.8a10,10,0,0,0,1.58,1.4,20.215,20.215,0,0,0,12.251,4.606,20.913,20.913,0,0,0,21.538-20.429,19.727,19.727,0,0,0-2.569-11.016,20.13,20.13,0,0,0-8.1-8.212,22.894,22.894,0,0,0-5.137-2,19.677,19.677,0,0,0-19.957,5.808h0A21.176,21.176,0,0,0,186.372,149.8Z" fill="#69afe5" fill-rule="evenodd"/><path d="M200.262,155.822a20.591,20.591,0,0,0,21.48-19.756c.2-3.873.088-7.506-1.617-10.673a22.381,22.381,0,0,0-8.315-8.889,40.253,40.253,0,0,0-5.06-2.361s-5.1,19.837-5.177,19.985l-.019.026c-13,16.066-13.51,17.214-13.51,17.214A20.529,20.529,0,0,0,200.262,155.822Z" fill="#0078d7" fill-rule="evenodd"/><path d="M201.652,134.178l5.034-20.065a20.659,20.659,0,0,0-20.436,5.593Z" fill="#409ae1" fill-rule="evenodd"/><rect x="402" y="31" width="54" height="40" fill="#fff"/><rect x="402" y="31" width="54" height="40" fill="#505050"/><rect x="402" y="31" width="54" height="5" fill="#e26c41"/><path d="M433.873,43H407.9c-.487-.292-.957-.579-1.1-1.043-.245-.77.324-1.479,1.057-.957h25.972a.6.6,0,0,1,1.1.23A1.509,1.509,0,0,1,433.873,43Z" fill="#939393"/><path d="M421.142,47H407.9a.857.857,0,0,1-1.1-.583A1.053,1.053,0,0,1,407.854,45H421.1a1.021,1.021,0,0,1,1.1.69A.952.952,0,0,1,421.142,47Z" fill="#e26c41"/><path d="M442.236,47H425.557a.859.859,0,0,1-1.105-.583A1.053,1.053,0,0,1,425.51,45h16.679a1.022,1.022,0,0,1,1.1.69A.952.952,0,0,1,442.236,47Z" fill="#939393"/><path d="M440.564,52H414.592c-.487-.371-.957-.658-1.1-1.122-.244-.77.324-1.479,1.058-.878h25.972c.487-.6.957-.314,1.1.151A1.638,1.638,0,0,1,440.564,52Z" fill="#939393"/><path d="M434.8,65h-20.21a1.122,1.122,0,0,1-1.1-.741c-.244-.77.324-1.479,1.058-1.259h20.21a.8.8,0,0,1,1.105.532A1.107,1.107,0,0,1,434.8,65Z" fill="#939393"/><path d="M448,65h-8.873a1.12,1.12,0,0,1-1.105-.741c-.244-.77.324-1.479,1.058-1.259h8.873a.8.8,0,0,1,1.105.532A1.107,1.107,0,0,1,448,65Z" fill="#939393"/><path d="M447.254,56H421.282a1.009,1.009,0,1,1-.047-2h25.972a.9.9,0,0,1,1.105.611A1.025,1.025,0,0,1,447.254,56Z" fill="#939393"/><path d="M428.576,60h-7.294c-.487.55-.957.263-1.1-.2a1.553,1.553,0,0,1,1.057-1.8h7.294c.487.32.958.607,1.105,1.071C429.878,59.841,429.31,60.55,428.576,60Z" fill="#e26c41"/><path d="M443.909,60H432.9c-.487.55-.957.263-1.105-.2a1.554,1.554,0,0,1,1.058-1.8h11.011c.487.32.957.607,1.1,1.071C445.211,59.841,444.642,60.55,443.909,60Z" fill="#939393"/><rect x="291" y="94" width="57" height="40" rx="7.515" ry="7.515" fill="#e26c41"/><path d="M291,105v24.509A4.491,4.491,0,0,0,295.491,134h48.018A4.491,4.491,0,0,0,348,129.509V105Z" fill="#505050"/><rect x="304" y="105" width="2" height="29" fill="#939393"/><rect x="337" y="99" width="6" height="3" fill="#505050"/><rect x="327" y="99" width="6" height="3" fill="#505050"/><path d="M445.231,109.246h0a20.8,20.8,0,0,0-1.956-1.145l-.055-.029c-.2-.1-.4-.2-.607-.3l-.168-.078c-.2-.091-.4-.18-.6-.265l-.16-.065q-.912-.378-1.873-.677c-.121-.038-.242-.076-.365-.112-.158-.046-.318-.09-.478-.133-.145-.039-.292-.076-.438-.112s-.3-.073-.445-.107c-.194-.044-.391-.083-.588-.122-.116-.023-.231-.048-.348-.069-.287-.052-.577-.1-.868-.139-.113-.016-.226-.029-.339-.043-.212-.027-.424-.052-.637-.073l-.358-.032q-.333-.027-.671-.046l-.315-.017c-.329-.013-.659-.022-.992-.022a22.834,22.834,0,0,0-8.181,1.484q-.935.359-1.818.8-.441.218-.869.454-.855.474-1.651,1.018t-1.527,1.155a18.131,18.131,0,0,0-6.694,13.98,17.732,17.732,0,0,0,2.92,9.756q.232.357.482.7a18.947,18.947,0,0,0,1.637,1.973l.007.007.04.041q.17.177.345.351l.109.117.027.029h0c6.177,6.5,8.434,15.475,8.434,15.475h13.55s2.245-9.018,8.393-15.518a18,18,0,0,0,5.535-12.933A18.33,18.33,0,0,0,445.231,109.246Z" fill="#ffb900"/><polygon points="435.85 169 430.123 169 426.805 165 439.168 165 435.85 169" fill="#939393"/><rect x="425" y="153" width="15" height="13" fill="#e26c41"/><rect x="425" y="157" width="12" height="2" fill="#505050"/><rect x="425" y="161" width="12" height="2" fill="#505050"/><rect x="444" y="82" width="65" height="46" rx="3.108" ry="3.108" transform="translate(953 210) rotate(180)" fill="#2e2e2e"/><rect x="448" y="86" width="57" height="38" transform="translate(953 210) rotate(180)" fill="#a6a8ab"/><rect x="448" y="86" width="57" height="38" transform="translate(953 210) rotate(180)" fill="#8fc3ec"/><polygon points="447 105.58 445 105.779 445 104.152 447 104.351 447 105.58" fill="#a6a8ab"/><polygon points="505 114.341 505 86 474.045 86 505 114.341" fill="#b3d6f2"/><line x1="428.5" y1="128" x2="428.5" y2="73" fill="none" stroke="#b2b2b2" stroke-miterlimit="10"/><line x1="433.5" y1="115" x2="433.5" y2="91" fill="none" stroke="#b2b2b2" stroke-miterlimit="10" stroke-dasharray="2 2"/><polygon points="418.782 181 375.6 181 357 165 396.174 165 418.782 181" fill="#c2c2c2"/><polygon points="338.649 181 307.658 181 326.456 165 357 165 338.649 181" fill="#939393"/><line x1="316.75" y1="228" x2="316.75" y2="157.5" fill="none" stroke="#b2b2b2" stroke-miterlimit="10" stroke-dasharray="2 2"/><line x1="310.5" y1="183.75" x2="310.5" y2="138.75" fill="none" stroke="#b2b2b2" stroke-miterlimit="10"/><line x1="340.75" y1="269.5" x2="340.75" y2="215.5" fill="none" stroke="#b2b2b2" stroke-miterlimit="10" stroke-dasharray="2 2"/><rect x="336" y="233" width="39" height="53" fill="#ce9c5f"/><rect x="336" y="233" width="39" height="53" fill="none"/><rect x="308" y="233" width="28" height="53" fill="#8c6943"/><rect x="308" y="233" width="27" height="53" fill="none"/><polygon points="318.872 248 289.818 248 307.441 233 336.731 233 318.872 248" fill="#ce9c5f"/><polygon points="318.872 248 289.818 248 307.441 233 336.731 233 318.872 248" fill="none"/><polygon points="396.045 248 355.561 248 334.367 233 374.85 233 396.045 248" fill="#e4d2a9"/><polygon points="322 260.581 315.572 266 319 266 319 273 325 273 325 266 328.429 266 322 260.581" fill="#303333"/><polygon points="336.297 233.375 354.446 252 375 252 375 242.687 336.297 233.375" fill="#8c6943"/><polygon points="396.045 248 355.561 248 334.367 233 374.85 233 396.045 248" fill="#d8b07f"/></svg>