<svg xmlns="http://www.w3.org/2000/svg" viewBox="0 0 636 350"><title>swimlane-partner-program</title><path d="M587.466,282.856H82.381a4.5,4.5,0,0,1-4.4-4.379,4.4,4.4,0,0,1,4.4-4.379H587.466a4.313,4.313,0,0,1,4.4,4.379,4.4,4.4,0,0,1-4.4,4.379Z" fill="#b2b2b2"/><path d="M62.7,232.092H45.361a1.327,1.327,0,0,1-1.231-1.24,1.165,1.165,0,0,1,1.231-1.231H62.7a1.386,1.386,0,0,1,1.483,1.231A1.611,1.611,0,0,1,62.7,232.092Z" fill="#69afe5"/><path d="M73.331,177.862H56a1.382,1.382,0,0,1-1.483-1.24c0-.494.737-.989,1.483-.989H73.331a1.133,1.133,0,0,1,1.24.989A1.17,1.17,0,0,1,73.331,177.862Z" fill="#69afe5"/><path d="M518.2,161.61s-10.5-8.875-14.625-12.75c-.5-4.75-1.145-18.083-1.145-18.083-2.108,3.75-12.522,21-12.522,21,5.266,5.816,22.76,14.768,22.76,14.768h0l.2.219c1.614,1.722,3.132,3.193,4.952,1.471C519.443,166.505,520.585,163.568,518.2,161.61Z" fill="#e5ad80"/><path d="M501.1,120.337c-.006-.028-.02-.054-.027-.082a7.422,7.422,0,0,0-14.572,2.79c0,.057,0,.111,0,.17l4.611,20.794,13.477-2.4S501.821,123.9,501.1,120.337Z" fill="#e5d800"/><path d="M489.752,137.9l1.354,6.108,13.477-2.4s-.4-2.541-.928-5.89Z" fill="#fff"/><path d="M518.769,166.972h0a4.015,4.015,0,0,0-2.372-3.663c-1.375-.606-7.664-3.476-7.664-3.476-.117.943-2.7,7.871-2.7,7.871,3.343,1.294,3.463,2.516,3.463,2.516v.65a1.761,1.761,0,0,0,1.722,1.941,1.623,1.623,0,0,0,1.511-1.08,3.673,3.673,0,0,0,3.014,0c.431.649.861,1.08,1.511,1.08a1.935,1.935,0,0,0,1.941-1.941Z" fill="#ffc18f"/><path d="M501.289,172.811c-2.795-2.372-27.172-22.019-27.172-22.019l-1.073,23.741,8.853,2.372L471.1,201.077l10.794,5.817,17.239-24.172S504.113,174.964,501.289,172.811Z" fill="#919191"/><path d="M468.3,207.106l2.8,4.328c2.8,1.511,4.956.219,5.605-.642h0a1.157,1.157,0,0,1,1.723-.453.478.478,0,0,1,.43.453h0a.212.212,0,0,1,.219.211l2.817-4.109L471.1,201.077l-2.8,6.248Z" fill="#e5ad80"/><path d="M477.781,210.127m0,0a.807.807,0,0,1,.65.212A.807.807,0,0,0,477.781,210.127Zm.65.212,0,0" fill="#ffa233"/><path d="M480.2,205.954c-1.5,2.153-1.554,2.232-1.554,2.232l-1.73,2.387a1.559,1.559,0,0,1,.861-.446h0a.807.807,0,0,1,.65.212h0a.478.478,0,0,1,.43.453h0a.212.212,0,0,1,.219.211h0l2.817-4.109C480.153,206.033,480.2,205.954,480.2,205.954Z" fill="#ffcda5"/><path d="M487.714,221.994c-1.511-1.934-8.853-11.2-8.853-11.2h0c-.142-.151-.267-.307-.43-.453-.582-.519-1.292-.212-1.723.453h0c-.649.861-2.8,2.153-5.605.642l-2.8-4.328-4.095,7.992a1.536,1.536,0,0,0,.65,2.372l20.056,10.575s1.08.868,1.941-.642l1.292-2.584S489.006,223.936,487.714,221.994Z" fill="#666"/><path d="M224.157,159h0l-5.817-5.831-6.466,6.692,5.816,5.606h0v.219a4.751,4.751,0,0,0,6.678-.219A4.491,4.491,0,0,0,224.157,159Z" fill="#83503a"/><path d="M224.157,159h0l-5.817-5.831-6.466,6.692,5.816,5.606h0v.219a4.751,4.751,0,0,0,6.678-.219A4.491,4.491,0,0,0,224.157,159Z" fill="#8e562e"/><polygon points="211.874 160.725 214.676 163.09 220.062 153.595 216.829 151.653 211.874 160.725" fill="#fff"/><path d="M202.16,140.428c-5.187-9.765-14.033-27.179-14.877-28.965-.43,3.467,0,9.771-.428,13.216h0c-.212,2.8-.642,5.838-1.073,8.852l7.97,14.889,19.2,13.6,6.028-10.152Z" fill="#00b294"/><path d="M187.935,125.759a26.435,26.435,0,0,1-1.511,7.13l8.408,12.517,21.136,11.436,3.014-4.977-1.934,3.233L197.2,142.815Z" fill="#008770"/><path d="M300.731,172.811c-3.014-2.372-27.4-22.019-27.4-22.019l-2.8,23.311,10.583,2.8-10.8,24.172,11.006,5.817,17.042-24.172S303.533,174.964,300.731,172.811Z" fill="#666"/><path d="M284.769,159.856a27.881,27.881,0,0,0-.868,3.453c6.036,4.743,12.071,9.714,13.385,10.575,1.722,1.511.431,5.174-.883,7.758h2.6c1.073-1.5,2.584-4.525,2.584-6.678a2.863,2.863,0,0,0-.861-2.153C299.22,171.512,291.447,165.462,284.769,159.856Zm11.422,26.114H293.6l-14,20.063,1.722.861Z" fill="#919191"/><path d="M286.922,221.994c-1.291-1.722-7.758-10.13-8.619-11.2V211l3.014-4.109-11.006-5.817-6.9,14.021a1.658,1.658,0,0,0,.861,2.372l19.844,10.575a1.251,1.251,0,0,0,1.941-.642l1.5-2.584S288.433,223.936,286.922,221.994Z" fill="#a6a6a6"/><path d="M395.843,89.734a17.367,17.367,0,1,1-17.261-17.275A17.321,17.321,0,0,1,395.843,89.734Z"/><path d="M371.685,100.506a8.742,8.742,0,0,1-8.853,8.853,8.876,8.876,0,0,1-8.838-8.853,9.02,9.02,0,0,1,8.838-8.838A8.877,8.877,0,0,1,371.685,100.506Z"/><path d="M423.445,159.214h0l-5.605-6.05-6.7,6.481,5.62,5.817h0l.219.219a4.69,4.69,0,0,0,6.466,0A4.5,4.5,0,0,0,423.445,159.214Z" fill="#81513c"/><polygon points="411.14 160.506 413.746 163.09 419.562 153.595 416.329 151.434 411.14 160.506" fill="#fff"/><path d="M401.441,140.428,385.91,116.49c-.431,3.233.642,4.744.211,8.189h0c-.211,2.8-.642,5.838-1.073,8.852l7.992,14.889,19.195,13.6,6.036-10.152Z" fill="#2488d8"/><path d="M388.493,120.373a25.239,25.239,0,0,1,2.387,8.619,14.605,14.605,0,0,1-.212,2.817l5.817,11.006L416.329,155.1l1.942-3.233-16.83-11.437Z" fill="#69afe5"/><path d="M404.243,172.811c-2.8-2.372-27.383-22.019-27.383-22.019L373.838,174.1l10.992,2.8-10.992,24.172,10.992,5.817,17.26-24.172S407.046,174.964,404.243,172.811Z" fill="#505050"/><path d="M371.255,207.106l2.8,4.328c2.584,1.511,4.6.64,5.255-.221.219,0,.35-.421.35-.421.431-.665,1.116-.942,1.723-.453.134.108.211.234.43.453h0s-.046.029.165.24c2.8-4.109,2.85-4.138,2.85-4.138l-10.992-5.817-2.8,6.248Z" fill="#9d6853"/><path d="M380.735,210.127m0,0a.807.807,0,0,1,.65.212A.807.807,0,0,0,380.735,210.127Zm.65.212,0,0" fill="#ffa233"/><path d="M385.048,157.273a27.941,27.941,0,0,0,.212,4.313c6.7,5.386,14.028,11.225,15.538,12.3,1.934,1.511.431,5.174-.861,7.758h2.8c.869-1.5,2.372-4.525,2.372-6.678a2.256,2.256,0,0,0-.861-2.153C402.521,171.3,392.391,163.309,385.048,157.273Zm14.67,28.7h-2.372l-14.239,20.063,1.723.861Z" fill="#666"/><path d="M383.107,206.033c-.353.534-3.233,4.54-3.233,4.54a1.082,1.082,0,0,1,.861-.446h0a2.9,2.9,0,0,1,1.08.665h0l.212.211h0l2.8-4.109Z" fill="#b18675"/><path d="M390.449,221.994c-1.306-1.934-8.634-11.2-8.634-11.2h0a5.512,5.512,0,0,0-.43-.453c-.62-.472-1.267-.171-1.848.367-.26.241-2.9,2.239-5.48.728l-2.8-4.328L367.16,215.1a1.523,1.523,0,0,0,.65,2.372l20.041,10.575s1.073.868,1.956-.642l1.292-2.584S391.96,223.936,390.449,221.994Z" fill="#a6a6a6"/><path d="M204.962,172.811c-3.021-2.372-27.39-22.019-27.39-22.019l-.862,23.741,8.642,2.372-10.8,24.172,11.006,5.817L202.8,182.722S207.779,174.964,204.962,172.811Z" fill="#2e2e2e"/><path d="M171.966,207.106l2.591,4.328c2.8,1.511,4.956.219,5.6-.642h0a1.4,1.4,0,0,1,1.942-.453l.452.453h0l.212.211,2.8-4.109-11.006-5.817-2.8,6.248Z" fill="#8e562e"/><path d="M182.761,154.886a18.839,18.839,0,0,1-.431,3.679c7.328,6.035,17.458,14.027,19.18,15.319,1.722,1.511.431,5.174-.861,7.758h2.8c.862-1.5,2.387-4.525,2.387-6.678,0-1.08-.212-1.722-.876-2.153C202.8,171.081,190.307,160.937,182.761,154.886Z" fill="#505050"/><path d="M181.454,210.127m0,0c.212,0,.212,0,.431.212C181.666,210.127,181.666,210.127,181.454,210.127Zm.431.212" fill="#ffa233"/><polygon points="200.43 185.97 197.846 185.97 183.841 206.033 185.563 206.894 200.43 185.97" fill="#7d337d"/><path d="M183.841,206.033l-1.744,2.153-1.511,2.387a1.1,1.1,0,0,1,.868-.446h0c.212,0,.212,0,.431.212h.212l.452.453h0V211h.212l2.8-4.109Z" fill="#bb9167"/><path d="M191.168,221.994c-1.291-1.934-8.619-11.2-8.619-11.2h0l-.452-.453a1.4,1.4,0,0,0-1.942.453h0c-.642.861-2.795,2.153-5.6.642l-2.591-4.328L167.66,215.1a1.659,1.659,0,0,0,.862,2.372l20.055,10.575s1.081.868,1.942-.642l1.292-2.584S192.672,223.936,191.168,221.994Z" fill="#666"/><polygon points="117.623 230.847 114.178 228.264 147.597 182 518.119 182 551.56 228.264 548.093 230.847 515.966 186 149.758 186 117.623 230.847" fill="#724aad"/><rect x="119.432" y="233" width="424" height="4" fill="#724aad"/><path d="M115.9,200.216a35.817,35.817,0,1,0,35.791,35.806A36,36,0,0,0,115.9,200.216Zm0,77.669a41.863,41.863,0,1,1,41.826-41.863A41.89,41.89,0,0,1,115.9,277.885Z" fill="#32145a"/><path d="M115.9,202.369a33.664,33.664,0,1,0,33.638,33.653A33.7,33.7,0,0,0,115.9,202.369Zm0,69.911a36.251,36.251,0,1,1,36.221-36.258A36.322,36.322,0,0,1,115.9,272.28Z" fill="#9e83e3"/><path d="M115.9,262.778a26.815,26.815,0,0,1-12.948-50.264,1.037,1.037,0,0,1,1.292.431c.219.218,0,.861-.43,1.08a25.087,25.087,0,0,0,12.086,47.03,25.684,25.684,0,0,0,10.56-2.153.822.822,0,1,1,.65,1.511A25,25,0,0,1,115.9,262.778Z" fill="#9e83e3"/><path d="M452.12,175.606a6.788,6.788,0,1,1-6.678-6.692A6.759,6.759,0,0,1,452.12,175.606Z" fill="#32145a"/><path d="M115.9,232.146a3.887,3.887,0,1,0,3.882,3.876A3.879,3.879,0,0,0,115.9,232.146Zm0,12.948a9.061,9.061,0,1,1,9.05-9.072A9.114,9.114,0,0,1,115.9,245.094Z" fill="#724aad"/><path d="M549.83,232.146a3.887,3.887,0,1,0,3.883,3.876A3.863,3.863,0,0,0,549.83,232.146Zm0,12.948a9.061,9.061,0,1,1,9.057-9.072A9.113,9.113,0,0,1,549.83,245.094Z" fill="#724aad"/><path d="M549.83,200.216a36.055,36.055,0,0,0-29.989,16.392,35.624,35.624,0,0,0,10.583,49.425,34.736,34.736,0,0,0,19.406,5.816,35.8,35.8,0,0,0,19.4-65.816A34.684,34.684,0,0,0,549.83,200.216Zm0,77.669a41.865,41.865,0,0,1-35.156-64.51,41.82,41.82,0,1,1,35.156,64.51Z" fill="#32145a"/><path d="M549.83,202.369a33.883,33.883,0,0,0-28.266,15.319,34.019,34.019,0,0,0,9.933,46.6A34.751,34.751,0,0,0,549.83,269.7a33.645,33.645,0,0,0,18.319-61.941A34.906,34.906,0,0,0,549.83,202.369Zm0,69.911A36.275,36.275,0,0,1,519.411,216.4a36.192,36.192,0,0,1,30.419-16.619,36.25,36.25,0,0,1,35.361,28.705,35.408,35.408,0,0,1-4.956,27.186A36.159,36.159,0,0,1,549.83,272.28Z" fill="#9e83e3"/><path d="M571.6,250.91h-.43c-.431-.219-.431-.861-.219-1.291a25,25,0,0,0,3.466-18.772,25.633,25.633,0,0,0-11.006-15.961,23.039,23.039,0,0,0-9.918-3.664c-.431-.219-.861-.649-.642-1.095,0-.43.43-.649.861-.649a24.368,24.368,0,0,1,10.772,4.116,26.073,26.073,0,0,1,11.656,16.823,26.93,26.93,0,0,1-3.664,20.274A1.317,1.317,0,0,1,571.6,250.91Z" fill="#9e83e3"/><path d="M58.1,242.933H78.154c.861,0,1.51-.43,1.51-1.291a1.445,1.445,0,0,0-1.51-1.292H58.1a1.441,1.441,0,0,0-1.511,1.292C56.587,242.5,57.229,242.933,58.1,242.933Z" fill="#505050"/><path d="M74.278,245.736H85.051c.861,0,1.722-.642,1.722-1.292a1.667,1.667,0,0,0-1.722-1.511H74.278c-.868,0-1.51,1.511-1.51,1.511Z" fill="#fff"/><path d="M77.723,256.749H88.5a1.311,1.311,0,1,0,0-2.591H77.723c-.861,0-1.511,1.292-1.511,1.292Z" fill="#fff"/><path d="M82.248,242.933H92.612c.861,0,1.722-.43,1.722-1.291,0-.643-.861-1.292-1.722-1.292H82.248c-.861,0-.861.649-.861,1.292C81.387,242.5,81.387,242.933,82.248,242.933Z" fill="#a6a6a6"/><path d="M62.835,254.158H79.876a1.472,1.472,0,0,0,1.511-1.5,1.446,1.446,0,0,0-1.511-1.3H62.835a1.446,1.446,0,0,0-1.511,1.3A1.471,1.471,0,0,0,62.835,254.158Z" fill="#505050"/><path d="M85.262,254.158h19.414a1.472,1.472,0,0,0,1.511-1.5,1.446,1.446,0,0,0-1.511-1.3H85.262c-.861,0-.861.649-.861,1.3C84.4,253.516,84.4,254.158,85.262,254.158Z" fill="#a6a6a6"/><path d="M160.114,173.672a7.676,7.676,0,0,0-2.168-.43H146.524c-3.452,0-2.59,4.094.431,7.758,1.5,1.722,6.247,2.386,13.159,2.386Z" fill="#32145a"/><path d="M226.959,166.972h0a4.6,4.6,0,0,0-2.591-3.663h0l-7.32-3.664-4.094,8.189,4.525,2.386v.65a1.934,1.934,0,0,0,1.934,1.941,1.617,1.617,0,0,0,1.511-1.08,3.673,3.673,0,0,0,3.014,0,1.63,1.63,0,0,0,1.511,1.08,1.761,1.761,0,0,0,1.722-1.941Z" fill="#bb9167"/><path d="M222.865,184.678a1.389,1.389,0,0,1-1.292-1.292V170.22a1.292,1.292,0,1,1,2.584,0v13.166A1.4,1.4,0,0,1,222.865,184.678Z" fill="#724aad"/><path d="M226.31,170.651a3.664,3.664,0,0,1-7.328,0,3.664,3.664,0,1,1,7.328,0Z" fill="#32145a"/><polygon points="210.151 167.403 213.596 168.695 217.69 159.426 214.246 157.922 210.151 167.403" fill="#fff"/><path d="M165.288,233.65a6.408,6.408,0,0,1,1.081-3.233,10.092,10.092,0,0,1,1.934-2.584c.43-.219.861,0,1.3.212.211.219.211.438.43.649.643,1.511,1.5,2.8,2.153,4.095a1,1,0,0,1,0,1.08c0,.212-.43.43-.861.43-1.511,0-3.021.212-4.525.212h-.861C165.507,234.511,165.07,234.081,165.288,233.65Zm.65,1.941h5.386c.431.212.861.212.861.65.212.211.212.43,0,.861a24.216,24.216,0,0,1-2.153,4.109c0,.219-.219.431-.43.65-.219.43-.65.43-1.08.211a10.9,10.9,0,0,1-2.153-2.372,9.464,9.464,0,0,1-1.081-3.248C165.288,236.022,165.507,235.591,165.938,235.591Zm4.737,6.912c0-.212.219-.431.43-.861.65-1.073,1.511-2.372,2.372-3.664a1.2,1.2,0,0,1,.861-.664,1.174,1.174,0,0,1,.862.664c.861,1.292,1.51,2.591,2.372,3.664.219.43.43.649.43.861a.789.789,0,0,1-.43,1.08,8.38,8.38,0,0,1-6.467,0A.794.794,0,0,1,170.675,242.5Zm5.816-5.4a1,1,0,0,1,0-1.08c0-.219.431-.431.869-.431,1.5,0,3.014-.219,4.525-.219h.876c.43,0,.649.431.649.869a9.675,9.675,0,0,1-1.08,3.248,10.578,10.578,0,0,1-1.956,2.583c-.43.219-.861,0-1.292-.211-.219-.219-.219-.431-.43-.65C178,239.7,177.141,238.408,176.491,237.1Zm6.27-2.8h-5.4c-.438-.218-.869-.218-.869-.649a.665.665,0,0,1,0-.861c.65-1.511,1.3-2.8,1.942-4.095.219-.211.43-.43.649-.649.212-.431.643-.431,1.073-.212a11.81,11.81,0,0,1,2.175,2.372,19.085,19.085,0,0,1,1.08,3.233C183.41,233.869,183.191,234.3,182.761,234.3ZM178,227.4c0,.211-.211.43-.43.861-.862,1.08-1.511,2.372-2.372,3.663a1.15,1.15,0,0,1-.862.65,1.173,1.173,0,0,1-.861-.65c-.861-1.291-1.722-2.583-2.372-3.663-.211-.431-.43-.65-.43-.861a.8.8,0,0,1,.43-1.081,8.464,8.464,0,0,1,6.467,0A.79.79,0,0,1,178,227.4Zm-14.655,8.4c0,.219-.212.649-.212.868s.431.431.643.643c0,.452-.431.664-.431,1.094.219.219.65.219.861.65,0,.212-.211.642-.211.861.211.212.642.212.861.431s0,.861,0,1.08c.212.212.861.212.861.431.219.211,0,.642.219.861s.861,0,.861.211c.212.219.212.65.431.862s.212.219.43.219h.431c.212.218.212.649.642.861h.431c.219,0,.219-.212.438,0,.211,0,.211.649.642.649h.431c.219,0,.219-.219.43-.219.219.219.431.65.65.65a.3.3,0,0,0,.43,0,.656.656,0,0,1,.431-.219c.431,0,.65.649.861.649s.65-.43.861-.43.65.43.862.43.43-.649.861-.649a.653.653,0,0,1,.43.219.3.3,0,0,0,.431,0c.219,0,.438-.431.65-.65.219,0,.219.219.43.219h.431c.219,0,.43-.649.649-.649.212-.212.212,0,.431,0h.431c.211-.212.211-.643.642-.861h.438c.211,0,.211,0,.43-.219a1.3,1.3,0,0,0,.212-.862c.219-.211.883,0,1.095-.211s0-.65.219-.861c0-.219.642-.219.861-.431,0-.219-.219-.861,0-1.08s.642-.219.861-.431c0-.219-.219-.649-.219-.861.219-.431.65-.431.65-.65.219-.43-.219-.642-.219-1.094.219-.212.649-.431.649-.643s-.43-.649-.211-.868c0-.212.43-.642.43-.861s-.43-.643-.43-.861c-.219-.212.211-.643.211-.862s-.43-.43-.649-.642c0-.431.438-.65.219-1.08,0-.219-.431-.219-.65-.65,0-.211.219-.642.219-.861-.219-.212-.65-.212-.861-.43s0-.862,0-1.073c-.219-.219-.861-.219-.861-.438-.219-.212,0-.642-.219-.861s-.876,0-1.095-.212,0-.65-.212-.861-.219-.219-.43-.219h-.438c-.431-.212-.431-.642-.642-.861h-.431c-.219,0-.219.219-.431,0-.219,0-.43-.643-.649-.643H178c-.211,0-.211.212-.43.212-.212-.212-.431-.664-.65-.664a.3.3,0,0,0-.431,0,.636.636,0,0,1-.43.233c-.431,0-.642-.664-.861-.664s-.643.431-.862.431-.642-.431-.861-.431-.43.664-.861.664a.639.639,0,0,1-.431-.233.3.3,0,0,0-.43,0c-.219,0-.431.452-.65.664-.211,0-.211-.212-.43-.212h-.431c-.431,0-.431.643-.642.643-.219.219-.219,0-.438,0h-.431c-.43.219-.43.649-.642.861h-.431c-.218,0-.218,0-.43.219s-.219.642-.431.861c0,.212-.649,0-.861.212s0,.649-.219.861c0,.219-.649.219-.861.438,0,.211.212.861,0,1.073s-.65.218-.861.43c0,.219.211.65.211.861-.211.431-.642.431-.861.65,0,.43.431.649.431,1.08-.212.212-.643.431-.643.642s.212.65.212.862-.43.649-.43.861S163.347,235.591,163.347,235.8Z" fill="#5c2d91"/><path d="M174.988,221.133a1.2,1.2,0,0,0-1.08.65,1.257,1.257,0,0,0,.649,1.5l13.809,7.131a1.426,1.426,0,0,0,1.511-.431,1.234,1.234,0,0,0-.431-1.5l-14.027-7.35Z" fill="#5c2d91"/><path d="M157.516,249.619a1.156,1.156,0,0,0-.869.642,1.189,1.189,0,0,0,.431,1.744l14.677,7.539a1.117,1.117,0,0,0,1.511-.642.958.958,0,0,0-.438-1.511l-14.67-7.561A.794.794,0,0,0,157.516,249.619Z" fill="#5c2d91"/><path d="M173.477,175.825l-24.588-2.372L160.333,205.6l-3.686,25.034,11.225,1.941s8.838-30.208,8.838-31.069C176.922,200.647,173.477,175.825,173.477,175.825Z" fill="#2e2e2e"/><path d="M157.946,240.35c2.818,1.511,4.971.219,5.62-.65h0a1.165,1.165,0,0,1,1.722-.43.463.463,0,0,1,.431.43l2.153-7.123-11.225-1.941-1.073,6.035Z" fill="#8e562e"/><path d="M165.507,232.146h0l2.365.431h0Z" fill="#ffa233"/><path d="M169.7,178.652c.861,6.911,2.912,22.207,2.912,22.856,0,.861-6.247,26.975-7.109,30.638h0l2.365.431h0s8.838-30.208,8.838-31.069h0a23.563,23.563,0,0,0-.43-4.313c-.431-3.036-.861-7.342-1.292-11.225-.219-1.5-.431-3.036-.65-4.328,0-.642-.176-1.8-.176-2.449-.219,0-1.247-.041-1.458-.041A11.529,11.529,0,0,1,169.7,178.652Z" fill="#505050"/><path d="M165.507,232.146a.656.656,0,0,0-.219.431h0l-1.941,7.123-.212.219c.212,0,.212,0,.431-.219h0v-.211h0c.431-.219.642-.431,1.073-.431h0a.8.8,0,0,1,.649.212h0a.736.736,0,0,1,.431.219l2.153-6.912-2.365-.431Z" fill="#bb9167"/><path d="M164.639,239.058m0,0c-.431,0-.642.212-1.073.431C164,239.27,164.208,239.058,164.639,239.058Zm.649.212,0,0,0,0a.463.463,0,0,1,.431.43v-.211A.736.736,0,0,0,165.288,239.27Zm-1.722.219,0,.211h0c-.219.219-.219.219-.431.219h0C163.347,239.919,163.347,239.919,163.566,239.7Z" fill="#fff"/><path d="M173.908,100.725l-1.723,3.679,10.145,11.2c5.6-2.365,4.953-4.2,4.953-4.2a10.847,10.847,0,0,0-.418-2.99C181.033,106.471,176.061,103.324,173.908,100.725Z" fill="#bb9167"/><path d="M186.808,84.755l.17-.253A.213.213,0,0,0,186.808,84.755Z" fill="#f9ccac"/><path d="M180.374,143.245s2.175-2.167,5.62-9.5c3.452-7.349-.146-19.117-.146-19.117a9.851,9.851,0,0,1-3.518.762L172.185,104.4Z" fill="#fff"/><path d="M182.761,140c.861-1.511,1.941-3.445,3.233-6.248,3.452-7.349,1.23-22.407,1.23-22.407-2.273,1.855-4.894,4.052-4.894,4.052h0C182.549,119.5,183.191,133.531,182.761,140Z" fill="#d1d1d1"/><path d="M181.666,118c-.431,0-.861-.219-.861-.65l-.861-2.817c0-.431.183-.452.43-.431,3.1.271,4.978.431,4.978.431.43,0,.36.384.211.642-.672,1.168-1.511,2.606-1.511,2.606a.852.852,0,0,1-.861.43C182.324,118.123,181.666,118,181.666,118Z" fill="#666"/><path d="M194.222,108.333l.769-6.764.1-2.684a.779.779,0,0,1,.961-.643l1.829.291c.629-.133,1-.45.867-1.086l-.961-6.622a5.269,5.269,0,0,1-.143-1.731l.828-8.567s-9.75-6.523-12.934-3.873-2.28,3.788-3.113,5.068c-.782,1.486-.421.089-4.119-1.769-3.928-1.817-16.426,6.773-10.347,16.744,3.445,5.88,10.477,11.017,24.17,13.184A1.755,1.755,0,0,0,194.222,108.333Z" fill="#bb9167"/><path d="M170.139,99.756c4.03,4.451,10.792,8.309,21.986,10.125-8.24-3.545-14.675-6.809-18.609-10.84a4.151,4.151,0,0,1-1.433.527A5.917,5.917,0,0,1,170.139,99.756Z" fill="#8e562e"/><path d="M187.755,78.833a2.341,2.341,0,0,0-1.795,1.916l-.217,3.135a4.406,4.406,0,0,1,1.086-1.11,4.638,4.638,0,0,1,2.231-.913h0a16.394,16.394,0,0,1,3.252-.248,16.341,16.341,0,0,0,3.549.129,7.84,7.84,0,0,0,1.314-.061,2.781,2.781,0,0,0,1.22-.475c-2.158.233-4.532-.585-5.93-.953L188.9,79.03A1.613,1.613,0,0,0,187.755,78.833Z" fill="#8e562e"/><path d="M172.185,104.4S195.044,143.9,175.2,179.27c-3.445.869-29.756-5.817-29.756-5.817,12.714-60.642,13.364-59.569,13.364-59.569S160.764,104.192,172.185,104.4Z" fill="#00b294"/><path d="M158.808,113.884m0,0-7.759,32.6,0,.649-.43,1.511,0,.642" fill="#e57d00"/><path d="M162.705,159.645c-.431,0-.65.211-.65.43l-.211,1.081c-.219.43,0,.642.43.861l10.554,2.372h.219c.219,0,.649-.219.649-.438l.212-1.073a1.1,1.1,0,0,0-.431-.861l-10.772-2.372Z" fill="#008770"/><path d="M191.917,102.659l-.207.044a11.819,11.819,0,0,1-4.813-2.965.807.807,0,0,1,.073-.679.787.787,0,0,1,.681.079,8.22,8.22,0,0,0,4.3,2.633c.251.164.51.332.34.585C192.338,102.57,192.131,102.614,191.917,102.659Z" fill="#754c28"/><path d="M198.814,73.844a12.411,12.411,0,0,0-1.435-3.68c-.044-.207-.3-.376-.554-.539h0c-6.916-2.5-14.53-3.095-19.34-1.853-5.455,1.371-5.493,5.347-5.493,5.347a3.569,3.569,0,0,0-4.923,1.7s-6.476,14.164,2.863,24.982c5.789.319,6.876-4.977,6.86-6.077.486-1.864-.831-2.905-1.45-4.774s-.392-4.99,2.874-5.241c3.091.01,3.635,3.64,3.782,5.392.089.421.347.583.814.708l2.409-.07.739-8.989A2.142,2.142,0,0,1,188.9,79.03l3.564,1.223c1.4.368,3.817,1.4,6.138.909A15.73,15.73,0,0,0,198.814,73.844Z" fill="#2e2e2e"/><path d="M177.277,67.816m0,0,0,0,0,0,0,0,0,0a7.434,7.434,0,0,0-3.213,1.56A7.434,7.434,0,0,1,177.277,67.816Zm-3.42,1.6,0,0M198.6,81.162" fill="#ffa233"/><path d="M177.913,67.681l-.428.091h0l-.208.044h0a7.434,7.434,0,0,0-3.213,1.56l-.207.044h0a4.361,4.361,0,0,0-1.336,2.043,7.99,7.99,0,0,1,2.446-.958l.436-.092c5.062-1.071,12.419-.643,19.085,1.706h0c.258.161.349.59.6.753a11.323,11.323,0,0,1,1.225,3.709,10.962,10.962,0,0,1,.308,4.56,6.378,6.378,0,0,0,1.982.021h0a15.537,15.537,0,0,0,.257-7.1l-.046-.214a12.411,12.411,0,0,0-1.435-3.68c-.044-.207-.3-.376-.554-.539h0C190.116,67.076,182.761,66.655,177.913,67.681Z" fill="#666"/><path d="M193.035,89.189a1.234,1.234,0,0,1-1.3,1.155c-.628.133-1.184-.413-1.155-1.3a.947.947,0,0,1,1.086-1.11A1.615,1.615,0,0,1,193.035,89.189Z"/><path d="M320.144,159h0l-6.269-6.262-6.036,7.123,5.825,5.606h0a4.333,4.333,0,0,0,6.48,0A4.491,4.491,0,0,0,320.144,159Z" fill="#f9d3b8"/><path d="M314.094,153.164l-2.153,3.9,6.029,3.445-.643,1.08,3.036,1.5h0v.219a1.114,1.114,0,0,1,.862.43,3.259,3.259,0,0,0,.211-1.511A4.76,4.76,0,0,0,320.144,159h0Z" fill="#e0bda5"/><path d="M298.147,140.428,283.9,113.884c-.431,3.467-.642,7.131-1.073,10.583h0c-.219,3.014-.649,5.831-1.08,8.853l7.977,14.888L308.92,161.8l6.035-9.933Z" fill="#9b9b9b"/><path d="M292.309,129.656a25.578,25.578,0,0,1-1.081,3.875h0a16.623,16.623,0,0,0-1.072,3.453l3.014,5.6L313.014,155.1l1.941-3.233-16.808-11.437Z" fill="#adadad"/><polygon points="211.224 168.695 216.61 157.273 194.832 145.406 170.463 108.717 162.486 129.437 185.563 155.966 211.224 168.695" fill="#00b294"/><path d="M211.443,167.834l-.219.861Z" fill="#ea7f09"/><path d="M212.516,165.892l-1.073,1.942h0l1.073-1.942Z" fill="#eae7ee"/><path d="M166.15,123.387l-1.08,8.853,20.493,23.726L211.224,168.7l.219-.861,1.073-1.942c-.431,0-25.442-15.1-25.442-15.1Z" fill="#008770"/><path d="M255.656,173.672a6.973,6.973,0,0,0-1.941-.43H242.279c-3.453,0-2.591,4.094.43,7.758,1.5,1.722,6.248,2.386,12.947,2.386Z" fill="#32145a"/><path d="M261.043,233.65a9.069,9.069,0,0,1,.861-3.233,23.161,23.161,0,0,1,2.153-2.584,1.432,1.432,0,0,1,1.3.212c0,.219.212.438.431.649a24.171,24.171,0,0,0,2.152,4.095,1,1,0,0,1,0,1.08,1.132,1.132,0,0,1-.861.43c-1.51,0-3.021.212-4.525.212h-.861C261.262,234.511,260.831,234.081,261.043,233.65Zm.649,1.941h5.386c.431.212.861.212.861.65.212.211.212.43,0,.861a24.285,24.285,0,0,1-2.152,4.109c0,.219-.219.431-.431.65a.75.75,0,0,1-1.08.211,7.334,7.334,0,0,1-2.153-2.372,9.462,9.462,0,0,1-1.08-3.248C260.831,236.022,261.262,235.591,261.692,235.591Zm4.737,6.912c0-.212.219-.431.43-.861.65-1.073,1.511-2.372,2.372-3.664.219-.431.431-.664.862-.664a1.175,1.175,0,0,1,.861.664c.861,1.292,1.51,2.591,2.372,3.664.219.43.219.649.452.861a.788.788,0,0,1-.452,1.08,8.38,8.38,0,0,1-6.467,0A.794.794,0,0,1,266.429,242.5Zm5.824-5.4a.97.97,0,0,1,0-1.08c0-.219.43-.431.861-.431,1.525,0,3.029-.219,4.54-.219h.861c.43,0,.649.431.649.869a9.675,9.675,0,0,1-1.08,3.248,9.967,9.967,0,0,1-1.941,2.583c-.431.219-.861,0-1.292-.211-.212-.219-.212-.431-.431-.65C273.778,239.7,272.9,238.408,272.253,237.1Zm6.262-2.8h-5.4c-.431-.218-.861-.218-1.08-.649a1.286,1.286,0,0,1,.219-.861c.642-1.511,1.292-2.8,1.956-4.095.211-.211.43-.43.43-.649a1.009,1.009,0,0,1,1.292-.212,11.31,11.31,0,0,1,2.153,2.372,19.085,19.085,0,0,1,1.08,3.233C279.164,233.869,278.945,234.3,278.515,234.3Zm-4.737-6.9c-.233.211-.233.43-.452.861-.862,1.08-1.511,2.372-2.372,3.663a1.15,1.15,0,0,1-.861.65c-.431,0-.643-.219-.862-.65-.861-1.291-1.722-2.583-2.372-3.663-.211-.431-.43-.65-.43-.861a.8.8,0,0,1,.43-1.081,8.464,8.464,0,0,1,6.467,0A.789.789,0,0,1,273.778,227.4ZM259.1,235.8c0,.219-.43.649-.211.868,0,.212.43.431.43.643.212.452-.219.664-.219,1.094.219.219.65.219.861.65,0,.212-.211.642-.211.861.211.212.642.212.861.431s-.219.861,0,1.08.65.212.861.431,0,.642.219.861.642,0,.861.211.212.65.431.862c0,.219.212.219.431.219h.43c.212.218.212.649.431.861h.649a.3.3,0,0,1,.431,0c.212,0,.212.649.642.649h.431c.219,0,.219-.219.43-.219.219.219.431.65.65.65.212.212.212,0,.43,0a.656.656,0,0,1,.431-.219c.431,0,.65.649.861.649s.65-.43.862-.43.649.43.861.43.43-.649.649-.649.431,0,.431.219c.219,0,.43.212.649,0,.212,0,.431-.431.643-.65a.77.77,0,0,0,.452.219h.431c.211,0,.43-.649.642-.649,0-.212.219,0,.431,0h.43c.219-.212.219-.643.431-.861h.649a.656.656,0,0,0,.431-.219c.219-.212,0-.643.219-.862s.861,0,1.073-.211v-.861c.219-.219.861-.219.861-.431.219-.219,0-.861.219-1.08,0-.219.642-.219.642-.431.219-.219,0-.649,0-.861.219-.431.65-.431.65-.65.219-.43-.212-.642-.212-1.094.212-.212.642-.431.642-.643s-.43-.649-.43-.868c.219-.212.649-.642.649-.861s-.43-.643-.649-.861c0-.212.43-.643.43-.862s-.43-.43-.642-.642c0-.431.431-.65.212-1.08,0-.219-.431-.219-.65-.65,0-.211.219-.642,0-.861,0-.212-.642-.212-.642-.43-.219-.212,0-.862-.219-1.073,0-.219-.642-.219-.861-.438v-.861c-.212-.212-.861,0-1.073-.212s0-.65-.219-.861a.656.656,0,0,0-.431-.219h-.649c-.212-.212-.212-.642-.431-.861h-.43c-.212,0-.431.219-.431,0-.212,0-.431-.643-.642-.643h-.431a.778.778,0,0,0-.452.212c-.212-.212-.431-.664-.643-.664-.219-.219-.43,0-.649,0,0,.233-.219.233-.431.233s-.43-.664-.649-.664-.643.431-.861.431-.643-.431-.862-.431-.43.664-.861.664a.639.639,0,0,1-.431-.233c-.218,0-.218-.219-.43,0-.219,0-.431.452-.65.664-.211,0-.211-.212-.43-.212H266c-.43,0-.43.643-.642.643a.294.294,0,0,1-.431,0h-.649c-.219.219-.219.649-.431.861h-.43c-.219,0-.431,0-.431.219-.219.211-.219.642-.431.861s-.649,0-.861.212,0,.649-.219.861-.642.219-.861.438.219.861,0,1.073-.65.218-.861.43c0,.219.211.65.211.861-.211.431-.642.431-.861.65,0,.43.431.649.219,1.08,0,.212-.43.431-.43.642-.219.219.211.65.211.862s-.43.649-.43.861S259.1,235.591,259.1,235.8Z" fill="#5c2d91"/><path d="M270.742,221.133a1.2,1.2,0,0,0-1.08.65,1.257,1.257,0,0,0,.649,1.5l13.809,7.131a1.426,1.426,0,0,0,1.511-.431,1.11,1.11,0,0,0-.65-1.5l-13.808-7.35Z" fill="#5c2d91"/><path d="M253.284,249.619c-.43,0-.642.211-.861.642a1.183,1.183,0,0,0,.431,1.744l14.655,7.539a1.188,1.188,0,0,0,1.511-.642.959.959,0,0,0-.431-1.511l-14.655-7.561A.81.81,0,0,0,253.284,249.619Z" fill="#5c2d91"/><path d="M269.231,175.176l-24.58-1.723L256.087,205.6,252.2,230.636l11.422,1.941s8.838-30.208,8.838-31.069C272.683,200.647,269.231,175.176,269.231,175.176Z" fill="#666"/><path d="M261.262,232.146h0l2.364.431h0Z" fill="#ffa233"/><path d="M265.787,180.139c.861,7.342,2.583,20.72,2.583,21.369-.219.861-6.466,26.975-7.108,30.638h0l2.364.431h0s8.838-30.208,8.838-31.069h0c0-.431-.211-1.941-.43-4.313-.431-3.036-.861-7.342-1.511-11.225a26.522,26.522,0,0,0-.43-4.328c0-.431-.212-.861-.212-1.292A38.82,38.82,0,0,1,265.787,180.139Z" fill="#919191"/><path d="M261.262,232.146a.656.656,0,0,0-.219.431h0L259.1,239.7a.212.212,0,0,0-.211.219.668.668,0,0,0,.43-.219h0a1.172,1.172,0,0,1,1.073-.642.8.8,0,0,1,.65.212.462.462,0,0,1,.43.43l2.153-7.123-2.364-.431Z" fill="#333"/><path d="M184.271,117.351s-13.808-7.992-46.8.219c-16.392,3.233-29.339-7.131-29.339-7.131l-10.991-.861.642,7.992s14.013,14.451,35.36,9.692c17.261-4.094,33.66-12.728,49.622-8.831A1.267,1.267,0,0,0,184.271,117.351Z" fill="#666"/><path d="M97.137,109.578h0l.211,4.095,10.78.43a39.97,39.97,0,0,0,21.785,6.912,31.837,31.837,0,0,0,7.773-.861c12.5-3.445,22.428-4.547,29.544-4.547,9.692,0,14.867,1.744,16.611,2.394.211,0,.43-.431.43-.65h0a13.466,13.466,0,0,0-3.9-1.511,57.176,57.176,0,0,0-6.247-1.306c-1.73-.219-3.452-.431-5.605-.65h-5.817a23.349,23.349,0,0,0-3.9.219,97.521,97.521,0,0,0-21.341,3.467,34.806,34.806,0,0,1-6.481.642c-13.144,0-22.858-7.773-22.858-7.773Z" fill="#a6a6a6"/><path d="M359.38,173.672a7.547,7.547,0,0,0-2.153-.43H345.805c-3.444,0-2.583,4.094.65,7.758,1.511,1.722,6.036,2.386,12.925,2.386Z" fill="#32145a"/><path d="M364.555,233.65a9.593,9.593,0,0,1,1.08-3.233,10.239,10.239,0,0,1,1.956-2.584c.431-.219.861,0,1.292.212.219.219.219.438.43.649.65,1.511,1.511,2.8,2.153,4.095a.97.97,0,0,1,0,1.08c0,.212-.43.43-.861.43-1.5,0-3.014.212-4.539.212H365.2C364.774,234.511,364.555,234.081,364.555,233.65Zm.649,1.941h5.4c.431.212.861.212.861.65.219.211.219.43,0,.861-.642,1.525-1.292,2.817-1.934,4.109-.219.219-.43.431-.43.65a1.01,1.01,0,0,1-1.292.211,10.824,10.824,0,0,1-2.175-2.372,18.8,18.8,0,0,1-1.08-3.248C364.555,236.022,364.774,235.591,365.2,235.591Zm4.759,6.912c0-.212.211-.431.43-.861.862-1.073,1.511-2.372,2.372-3.664a1.174,1.174,0,0,1,.862-.664c.43,0,.642.233.861.664.861,1.292,1.722,2.591,2.372,3.664.211.43.43.649.43.861a.794.794,0,0,1-.43,1.08,8.38,8.38,0,0,1-6.467,0A.789.789,0,0,1,369.963,242.5Zm5.817-5.4a1,1,0,0,1,0-1.08c0-.219.43-.431.861-.431,1.511,0,3.021-.219,4.525-.219h.861c.431,0,.861.431.65.869a6.461,6.461,0,0,1-1.081,3.248,10.066,10.066,0,0,1-1.934,2.583,1.435,1.435,0,0,1-1.3-.211c-.211-.219-.211-.431-.43-.65A24.935,24.935,0,0,0,375.78,237.1Zm6.247-2.8h-5.386c-.431-.218-.861-.218-.861-.649a.662.662,0,0,1,0-.861,24.614,24.614,0,0,1,2.153-4.095c0-.211.219-.43.43-.649a.75.75,0,0,1,1.08-.212,11.283,11.283,0,0,1,2.153,2.372,9.495,9.495,0,0,1,1.081,3.233C382.888,233.869,382.458,234.3,382.027,234.3Zm-4.737-6.9c0,.211-.219.43-.43.861-.65,1.08-1.511,2.372-2.372,3.663-.219.431-.431.65-.861.65a1.15,1.15,0,0,1-.862-.65c-.861-1.291-1.51-2.583-2.372-3.663-.219-.431-.43-.65-.43-.861a.79.79,0,0,1,.43-1.081,8.464,8.464,0,0,1,6.467,0A.8.8,0,0,1,377.29,227.4Zm-14.458,8.4c0,.219-.43.649-.43.868s.43.431.642.643c0,.452-.431.664-.212,1.094,0,.219.431.219.65.65,0,.212-.219.642,0,.861,0,.212.642.212.642.431.219.219,0,.861,0,1.08.219.212.861.212.861.431a1.267,1.267,0,0,1,.219.861c.212.211.862,0,1.073.211.234.219,0,.65.234.862a.668.668,0,0,0,.43.219h.65c.219.218.219.649.431.861h.43c.219,0,.431-.212.431,0,.219,0,.43.649.649.649h.431a.763.763,0,0,0,.43-.219c.212.219.431.65.643.65a.3.3,0,0,0,.43,0,.8.8,0,0,1,.65-.219c.219,0,.43.649.649.649s.643-.43.862-.43.642.43.861.43.43-.649.861-.649a.656.656,0,0,1,.431.219.3.3,0,0,0,.43,0c.219,0,.431-.431.65-.65.211,0,.211.219.43.219h.431c.431,0,.431-.649.642-.649.219-.212.219,0,.431,0h.43c.438-.212.438-.643.65-.861h.431c.219,0,.219,0,.43-.219s.219-.643.431-.862.649,0,.861-.211,0-.65.219-.861.642-.219.861-.431c0-.219-.219-.861,0-1.08s.65-.219.861-.431c0-.219-.211-.649-.211-.861.211-.431.642-.431.861-.65,0-.43-.431-.642-.219-1.094,0-.212.431-.431.431-.643.218-.219-.212-.649-.212-.868s.43-.642.43-.861-.43-.643-.43-.861.43-.643.212-.862c0-.211-.431-.43-.431-.642-.212-.431.219-.65.219-1.08-.219-.219-.65-.219-.861-.65,0-.211.211-.642.211-.861-.211-.212-.642-.212-.861-.43s0-.862,0-1.073c-.219-.219-.649-.219-.861-.438s0-.642-.219-.861-.642,0-.861-.212-.212-.65-.431-.861-.211-.219-.43-.219h-.431c-.212-.212-.212-.642-.65-.861h-.43c-.212,0-.212.219-.431,0-.211,0-.211-.643-.642-.643h-.431c-.219,0-.219.212-.43.212-.219-.212-.431-.664-.65-.664a.3.3,0,0,0-.43,0,.639.639,0,0,1-.431.233c-.431,0-.65-.664-.861-.664s-.65.431-.861.431-.65-.431-.862-.431-.43.664-.649.664a.768.768,0,0,1-.65-.233.293.293,0,0,0-.43,0c-.212,0-.431.452-.643.664a.77.77,0,0,0-.43-.212h-.431c-.219,0-.43.643-.649.643,0,.219-.212,0-.431,0h-.43c-.212.219-.212.649-.431.861h-.65a.668.668,0,0,0-.43.219c-.234.211,0,.642-.234.861-.211.212-.861,0-1.073.212a1.268,1.268,0,0,1-.219.861c0,.219-.642.219-.861.438,0,.211.219.861,0,1.073,0,.218-.642.218-.642.43-.219.219,0,.65,0,.861-.219.431-.65.431-.65.65-.219.43.212.649.212,1.08-.212.212-.642.431-.642.642s.43.65.43.862c-.219.218-.649.649-.649.861S362.613,235.591,362.832,235.8Z" fill="#5c2d91"/><path d="M374.269,221.133c-.431,0-.861.219-.861.65-.431.43-.212,1.073.43,1.5l13.794,7.131a1.332,1.332,0,0,0,1.511-.431,1.208,1.208,0,0,0-.431-1.5l-13.794-7.35Z" fill="#5c2d91"/><path d="M357.08,249.526a1.188,1.188,0,0,0-1.088.628,1.718,1.718,0,0,0,.408,1.75l14.572,7.726a1.112,1.112,0,0,0,1.519-.623.954.954,0,0,0-.411-1.516l-14.572-7.748C357.292,249.528,357.292,249.528,357.08,249.526Z" fill="#5c2d91"/><path d="M369.313,180.9a42.821,42.821,0,0,1-15.1,9.933c1.511,4.095,3.014,8.2,4.525,12.3a12.385,12.385,0,0,1,.861,2.591c-1.292,8.422-2.372,16.611-3.664,25.033l8.839,1.511c.861-3.664,7.13-29.777,7.13-30.638C371.9,200.978,370.393,188.031,369.313,180.9Z" fill="#505050"/><path d="M357.227,240.35c2.8,1.511,4.956.219,5.605-.65h0c.431-.642.959-.336.852.184.186-.9,2.02-7.573,2.02-7.573-.664-.026-9.769-1.675-9.769-1.675l-1.08,6.035Z" fill="#9d6853"/><path d="M367.16,232.577m-4.328,7.123,0,0" fill="#ffa233"/><path d="M372.02,176.594c-1.073,1.5-2.372,2.8-3.664,4.306,1.08,7.131,2.591,20.078,2.591,20.728,0,.861-6.269,26.974-7.13,30.638l2.386.431s6.467-22,8.408-28.916v-1.723a31.565,31.565,0,0,0-.438-3.663c-.212-3.686-.642-8.211-1.073-12.305a32.014,32.014,0,0,1-.43-4.328A32.84,32.84,0,0,1,372.02,176.594Z" fill="#666"/><path d="M374.488,111.512l-9.072,61.511c10.152-1.723,20.494-9.5,20.494-9.5-3.883-8.634,5.619-28.908,4.97-34.528-.642-5.394-3.46-11.853-7.342-15.319C382.246,112.592,378.363,111.731,374.488,111.512Z" fill="#69afe5"/><path d="M380.093,125.97s6.028,41-40.769,65.817C357.877,147.559,380.093,125.97,380.093,125.97Z" fill="#fff"/><path d="M383.538,113.673c-1.942-1.723-2.584-.862-15.086-1.942-19.625,5.408-22.858,59.781-24.15,64.955-1.3,5.387-8.211,9.715-11.013,15.75,27.39,4.978,41.41-17.26,44.863-24.172S387.42,117.139,383.538,113.673Z" fill="#69afe5"/><path d="M333.508,192.436m0,0h0Zm.642,0a12.55,12.55,0,0,0,3.021.431A12.55,12.55,0,0,1,334.15,192.436Z" fill="#e57d00"/><path d="M368.452,111.731c-19.625,5.408-22.858,59.781-24.15,64.955-1.3,5.387-8.211,9.715-11.013,15.75h.861a12.55,12.55,0,0,0,3.021.431,23.017,23.017,0,0,0,3.876.219,37.041,37.041,0,0,0,15.969-3.452,40.354,40.354,0,0,1-10.561,1.51,34.6,34.6,0,0,1-7.78-.861c2.8-5.817,9.721-10.363,11.013-15.538,1.292-4.737,4.094-51.577,19.844-63.014h-1.08Z" fill="#2488d8"/><path d="M354.213,168.483c-.219,0-.65.212-.65.431v1.094c-.211.212,0,.643.431.643l13.6,1.941h0a.573.573,0,0,0,.649-.649l.212-.862a.566.566,0,0,0-.642-.642l-13.6-1.956Z" fill="#2488d8"/><path d="M380.093,107.418l-9.488-3.014c.219.219-2.153,10.13-2.153,10.13s12.5,14.239,15.305,13.378C386.552,126.832,380.093,107.418,380.093,107.418Z" fill="#9d6853"/><path d="M395.843,103.324c0-.643-1.511-6.481-1.08-7.561a2.783,2.783,0,0,0,.211-1.292h0a8.622,8.622,0,0,1-5.831-3.233,8.306,8.306,0,0,1-1.941-3.9h0l-1.292,3.467v.219c-.219.642-.65,2.153-1.08,3.445a11.028,11.028,0,0,0-.862,2.372c-.642,1.08-1.722-.643-1.722-.643a12.03,12.03,0,0,0-2.153-3.452c-1.73.431-3.022,4.314-3.452,5.6,0,.862-2.153,6.7-5.817,6.051h-.219c3.452,5.386,10.349,7.758,13.152,9.269,3.226,1.5,4.094,0,4.094,0l4.759-9.05C396.7,105.7,396.054,103.754,395.843,103.324Z" fill="#9d6853"/><path d="M390.449,106.345l-4.539-2.372s.43,4.313,3.014,5.175Z" fill="#32145a"/><path d="M390.449,106.126h0l-3.9-1.722s.868,3.664,2.824,4.094Z" fill="#fff"/><path d="M386.983,114.1a20.892,20.892,0,0,1-5.817-2.8,20.314,20.314,0,0,1-6.248-9.05c-1.08,1.292-2.372,2.583-4.094,2.153h-.219c3.452,5.386,10.349,7.758,13.152,9.269C385.479,114.315,386.34,114.315,386.983,114.1Z" fill="#81513c"/><path d="M391.529,97.923a1.237,1.237,0,0,1-2.386-.65c0-.642.876-1.073,1.525-1.073A1.36,1.36,0,0,1,391.529,97.923Z"/><path d="M426.24,166.972h0a4.58,4.58,0,0,0-2.583-3.663h0l-7.328-3.664-4.094,8.189,4.525,2.386v.65a1.935,1.935,0,0,0,1.941,1.941,1.623,1.623,0,0,0,1.511-1.08,3.682,3.682,0,0,0,3.014,0,1.623,1.623,0,0,0,1.511,1.08,1.765,1.765,0,0,0,1.722-1.941Z" fill="#9d6853"/><path d="M422.146,184.678c-.642,0-1.292-.649-1.714-1.292V170.22c.422-.664,1.072-1.306,1.714-1.306a1.37,1.37,0,0,1,1.286,1.306v13.166A1.373,1.373,0,0,1,422.146,184.678Z" fill="#724aad"/><path d="M425.6,170.651a3.664,3.664,0,0,1-7.327,0,3.664,3.664,0,1,1,7.327,0Z" fill="#32145a"/><polygon points="409.629 167.403 412.884 168.695 416.979 159.426 413.527 157.922 409.629 167.403" fill="#fff"/><polygon points="410.49 168.695 415.899 157.273 394.113 145.406 383.326 129.225 361.752 129.437 384.83 155.966 410.49 168.695" fill="#69afe5"/><path d="M410.921,167.834l-.431.861Z" fill="#e57d00"/><path d="M411.79,165.892l-.869,1.942h0l.869-1.942Z" fill="#e5e5e5"/><path d="M365.448,124.542c-.478,4.307-1.1,7.7-1.1,7.7l20.487,23.726L410.49,168.7l.431-.861.869-1.942c-.431,0-25.45-15.1-25.45-15.1C369.963,129.437,365.448,124.542,365.448,124.542Z" fill="#2488d8"/><path d="M322.947,166.972h0a4.611,4.611,0,0,0-2.584-3.663v-.219h0l-7.349-3.445-5.175,7.758,5.606,2.605v.862a1.7,1.7,0,0,0,1.722,1.722,1.959,1.959,0,0,0,1.73-.861,6.318,6.318,0,0,0,2.817,0,1.741,1.741,0,0,0,1.722.861,1.7,1.7,0,0,0,1.723-1.722Z" fill="#f9d3b8"/><path d="M318.4,184.678a1.4,1.4,0,0,1-1.292-1.292V170.22a1.391,1.391,0,0,1,1.292-1.306,1.261,1.261,0,0,1,1.314,1.306v13.166A1.262,1.262,0,0,1,318.4,184.678Z" fill="#724aad"/><path d="M321.867,170.651a3.59,3.59,0,0,1-3.467,3.663,3.633,3.633,0,0,1-3.664-3.663,3.514,3.514,0,0,1,3.664-3.679A3.466,3.466,0,0,1,321.867,170.651Z" fill="#32145a"/><path d="M284.12,150.142c5.605-11.655,9.05-20.7,10.13-29.769,0-.869.212-4.533.212-4.533l-15.728-7.554s.43,1.073-1.292,1.292a29.9,29.9,0,0,1-4.328,2.8c-.65,3.9-1.3,9.926-1.3,9.926-2.8,5.386,7.13,27.4,9.721,33.01A29.488,29.488,0,0,0,284.12,150.142Z" fill="#fff"/><path d="M290.586,128.773c-3.452,0-11.852-20.487-11.852-20.487l3.445-5.824a40.973,40.973,0,0,0,11.134,7.6S291.279,124.383,290.586,128.773Z" fill="#f9d3b8"/><path d="M282.609,166.542c2.372-4.525,7.116-28.916,8.619-33.011-13.144-8.422-12.494-25.245-12.494-25.245s-2.8,3.664-9.714,5.6c-5.6,3.255-10.349,15.553-10.349,15.553s-14.02,37.535-15.962,42.943c5.167,7.54,27.384,7.97,27.384,7.97S277.223,178.409,282.609,166.542Z" fill="#adadad"/><path d="M278.734,108.286m0,.431h0c0,.642.211,1.934.211,3.445h0C278.945,110.651,278.734,109.359,278.734,108.717Z" fill="#e5e5e5"/><path d="M278.084,108.929a22.422,22.422,0,0,1-9.064,4.955c-5.6,3.255-10.349,15.553-10.349,15.553s-14.02,37.535-15.962,42.943h0c1.942-5.408,15.962-42.943,15.962-42.943s4.744-12.3,10.349-15.553A22.422,22.422,0,0,0,278.084,108.929Z" fill="#e57d00"/><path d="M278.734,108.286s-.219.212-.65.643a22.422,22.422,0,0,1-9.064,4.955c-5.6,3.255-10.349,15.553-10.349,15.553s-14.02,37.535-15.962,42.943c5.167,7.54,27.384,7.97,27.384,7.97h.218c-6.9-.649-18.749-2.372-22.435-7.758,1.942-5.408,15.969-42.936,15.969-42.936s.431-.883,1.08-2.606c-.649-3.663,1.934-9.049,6.248-10.341a14.927,14.927,0,0,1,3.036-2.606,19.533,19.533,0,0,0,4.736-1.941c0-1.511-.211-2.8-.211-3.445Z" fill="#9b9b9b"/><path d="M294.25,146.479s-13.794-23.523-17.239-29.128c-8.21-4.328-14.677,7.116-11.224,11.641,3.663,4.539,18.552,27.42,18.552,27.42L311.5,171.731l6.467-11.225Z" fill="#c8c8c8"/><path d="M265.787,128.992m0,0a23.314,23.314,0,0,1,1.5,1.956A23.314,23.314,0,0,0,265.787,128.992Zm1.5,1.956,0,0,0,0,0,0,0,0" fill="#eada09"/><path d="M265.356,122.956c-.65,2.153-.65,4.525.431,6.036h0a23.314,23.314,0,0,1,1.5,1.956h0c5.174,7.108,17.049,25.23,17.049,25.464h0L311.5,171.731l1.511-2.817c-.212,0-26.953-15.108-26.953-15.108Z" fill="#adadad"/><path d="M292.611,88.641l.084-.3A.214.214,0,0,0,292.611,88.641Z" fill="#f8ccad"/><path d="M302.077,90.99h0a8.47,8.47,0,0,1-6.7-.938,9.894,9.894,0,0,1-3.128-2.94h0l.078,3.663.107.191c-.062.771,0,2.215-.029,3.471.153,1.153.2,2.115.218,2.6-.235,1.387-1.752-.005-1.752-.005a11.893,11.893,0,0,0-3.294-2.354,1.42,1.42,0,0,0-2.011.383c-.54.8-.368,2.432-.112,3.769.236.855.657,1.606.791,2.293l.632,1.127h0s-.191,4.064-2.425,5.81c0,0,3.7,2.622,12.084,4.362a6.689,6.689,0,0,0,1.84.208c3.413.312,3.713-1.346,3.713-1.346l1.254-10.107c4.223-.392,2.9-1.875,2.584-2.435-.21-.376-3.722-5.327-3.69-6.583C302.21,91.66,302,91.285,302.077,90.99Z" fill="#f9d3b8"/><path d="M292.739,117.57a2.922,2.922,0,0,1,.861.642c.219,0,.219.219.431.219h0A4.573,4.573,0,0,1,292.739,117.57Z" fill="#e5e5e5"/><path d="M286.429,104.973a5.956,5.956,0,0,1-1.978,3.084,37.53,37.53,0,0,0,12.084,4.362.21.21,0,0,0,.292.088,4.6,4.6,0,0,0,1.548.12h0a4.807,4.807,0,0,1,1.256.032c-.586-.165-.881-.243-1.759-.5a5.835,5.835,0,0,0-1.573-.6C290.565,108.83,287.647,106.265,286.429,104.973Z" fill="#e0bda5"/><path d="M292.433,90.966l.156,3.368a15.2,15.2,0,0,1,2.334-3.777Z" fill="#e0bda5"/><path d="M286.028,94.556c-.191.107-.278.4-.463.5-.54.8-.368,2.432.079,3.662.23.859.466,1.713.6,2.4-.072-1.457-.073-5.414,1.332-6.445A2.279,2.279,0,0,0,286.028,94.556Z" fill="#e0bda5"/><path d="M299.863,94.967c-.161.592-.625,1.095-1.211.93a1.042,1.042,0,0,1-1.007-.917,1.105,1.105,0,0,1,1.107-1.114A1.226,1.226,0,0,1,299.863,94.967Z"/><path d="M298.958,104.368a9.214,9.214,0,0,0,3.5,2.729l-.047.8a11.508,11.508,0,0,1-4.522-3.665Z" fill="#9f6753"/><path d="M302.854,105.154l-.392,1.943a9.214,9.214,0,0,1-3.5-2.729Z" fill="#fff"/><path d="M297.5,77.976a16.837,16.837,0,0,0-12.025-3.392,15.837,15.837,0,0,0-5.265,1.22,16.641,16.641,0,0,0-10.605,18.545,17.375,17.375,0,0,0,13.236,14.359l.291.087c3.54-.745,3.743-6.548,3.743-6.548h0s-1-2.668-1.232-3.527c-.447-1.23-.619-2.865-.079-3.662a1.42,1.42,0,0,1,2.011-.383,14.7,14.7,0,0,1,3.294,2.354s1.517,1.392,1.752.005l-.374-9.922h0a10.515,10.515,0,0,0,3.235,3.131,8.259,8.259,0,0,0,6.594.747h0c1.858-1.535,4.633-4.078,2.7-6.209A33.362,33.362,0,0,0,297.5,77.976Z" fill="#9d6853"/><path d="M269.23,94.559a19.825,19.825,0,0,1-.619-2.866,18.965,18.965,0,1,1,37.468-5.908,13,13,0,0,1,.327,2.779Z" fill="#fff000"/><path d="M266.451,90.929l6.8-1.092,23.391-3.707,11.11-1.777a2.983,2.983,0,0,1,1.053,1.878,3.116,3.116,0,0,1-.28,2.157l-41.3,6.56a3.408,3.408,0,0,1-.772-4.019Z" fill="#fff000"/><path d="M373.838,87.99l24.369,9.933s7.547-11.875-6.459-18.771Z"/><path d="M378.582,72.459h0a18.768,18.768,0,0,1,3.445.212A18.768,18.768,0,0,0,378.582,72.459Z" fill="#ffa233"/><path d="M378.582,72.459A16.91,16.91,0,0,0,365.2,78.721a16.822,16.822,0,0,1,23.508,1.941l3.036-1.51c.212,0,.431.219.643.219a18.258,18.258,0,0,0-10.364-6.7A18.768,18.768,0,0,0,378.582,72.459Z" fill="#333"/><path d="M400.368,90.6a15.651,15.651,0,0,1-2.161,7.328h0A14.592,14.592,0,0,0,400.368,90.6Z" fill="#ffa233"/><path d="M391.748,79.152l-3.036,1.51c.431.431.876.861,1.307,1.292,8.838,4.744,8.407,11.656,7.116,15.538l1.072.431a15.651,15.651,0,0,0,2.161-7.328c-.219-3.685-1.73-7.78-7.977-11.013v-.211C392.179,79.371,391.96,79.152,391.748,79.152Z" fill="#333"/><path d="M278.1,72.028a18.8,18.8,0,0,0-9.633,18.519l4.789-.71,21.759-3.528-21.523.426A19.19,19.19,0,0,1,283.2,71.408a33.009,33.009,0,0,1,3.967-1.73,13.537,13.537,0,0,0-2.789.308h0A17.36,17.36,0,0,0,278.1,72.028Z" fill="#eada09"/><polygon points="268.462 90.547 268.462 90.547 273.251 89.837 268.462 90.547" fill="#eada09"/><path d="M461.623,233.65a18.836,18.836,0,0,1,1.072-3.233,11.675,11.675,0,0,1,2.161-2.584c.211-.219.861,0,1.073.212s.43.438.43.649c.869,1.511,1.511,2.8,2.16,4.095a1.977,1.977,0,0,1,.212,1.08,1.266,1.266,0,0,1-1.073.43c-1.51,0-3.021.212-4.525.212h-.649A.786.786,0,0,1,461.623,233.65Zm.861,1.941h5.386c.431.212.649.212.861.65.219.211.219.43,0,.861-.861,1.525-1.5,2.817-2.153,4.109-.219.219-.219.431-.43.65a1.01,1.01,0,0,1-1.292.211A11.17,11.17,0,0,1,462.7,239.7a18.188,18.188,0,0,1-1.072-3.248A.787.787,0,0,1,462.484,235.591Zm4.525,6.912c.219-.212.219-.431.43-.861a21.376,21.376,0,0,0,2.372-3.664c.431-.431.643-.664.862-.664.43,0,.649.233.861.664.861,1.292,1.722,2.591,2.583,3.664,0,.43.219.649.219.861a.789.789,0,0,1-.43,1.08,8.38,8.38,0,0,1-6.467,0A1.686,1.686,0,0,1,467.009,242.5Zm5.817-5.4a1,1,0,0,1,0-1.08,1.111,1.111,0,0,1,.861-.431c1.51,0,3.021-.219,4.525-.219h.868a.927.927,0,0,1,.861.869,19.692,19.692,0,0,1-1.08,3.248,23.154,23.154,0,0,1-2.153,2.583c-.219.219-.861,0-1.08-.211s-.431-.431-.431-.65C474.336,239.7,473.687,238.408,472.826,237.1Zm6.254-2.8h-5.393c-.431-.218-.643-.218-.861-.649a.662.662,0,0,1,0-.861c.649-1.511,1.51-2.8,2.16-4.095,0-.211.211-.43.43-.649a.742.742,0,0,1,1.073-.212,7.613,7.613,0,0,1,2.161,2.372,6.427,6.427,0,0,1,1.072,3.233C479.941,233.869,479.511,234.3,479.08,234.3Zm-4.744-6.9c0,.211-.219.43-.219.861-.861,1.08-1.722,2.372-2.583,3.663-.212.431-.431.65-.861.65-.219,0-.431-.219-.862-.65a21.683,21.683,0,0,0-2.372-3.663c-.211-.431-.211-.65-.43-.861a1.686,1.686,0,0,1,.43-1.081,8.464,8.464,0,0,1,6.467,0A.79.79,0,0,1,474.336,227.4ZM459.9,235.8c0,.219-.43.649-.43.868s.642.431.642.643c0,.452-.212.664-.212,1.094,0,.219.642.219.642.65.219.212-.211.642,0,.861,0,.212.65.212.65.431.212.219,0,.861.212,1.08,0,.212.649.212.861.431s0,.642.219.861.649,0,.861.211,0,.65.219.862a.776.776,0,0,0,.642.219h.431c.219.218.219.649.43.861h.431c.219,0,.431-.212.431,0,.43,0,.43.649.649.649h.431a.731.731,0,0,0,.43-.219c.431.219.431.65.862.65,0,.212.218,0,.43,0,0-.219.219-.219.431-.219s.43.649.649.649c.431,0,.643-.43.862-.43.43,0,.649.43.861.43.43,0,.649-.649.861-.649s.219,0,.431.219c.218,0,.43.212.43,0,.219,0,.431-.431.65-.65a.763.763,0,0,1,.43.219h.65c.211,0,.211-.649.43-.649.212-.212.431,0,.643,0h.43c.219-.212.219-.643.431-.861h.431c.218,0,.43,0,.43-.219.219-.212.219-.643.431-.862s.649,0,.868-.211,0-.65.212-.861.649-.219.861-.431,0-.861,0-1.08c.219-.219.664-.219.883-.431s-.219-.649,0-.861c0-.431.431-.431.642-.65,0-.43-.211-.642-.211-1.094,0-.212.43-.431.642-.643,0-.219-.431-.649-.431-.868s.431-.642.431-.861-.431-.643-.431-.861.431-.643.431-.862c-.212-.211-.642-.43-.642-.642,0-.431.211-.65.211-1.08-.211-.219-.642-.219-.642-.65-.219-.211.212-.642,0-.861s-.664-.212-.883-.43c0-.212.219-.862,0-1.073s-.642-.219-.861-.438,0-.642-.212-.861-.649,0-.868-.212-.212-.65-.431-.861c0-.219-.212-.219-.43-.219h-.431c-.212-.212-.212-.642-.431-.861h-.43c-.212,0-.431.219-.643,0-.219,0-.219-.643-.43-.643h-.65a.77.77,0,0,1-.43.212c-.219-.212-.431-.664-.65-.664,0-.219-.212,0-.43,0-.212.233-.212.233-.431.233s-.431-.664-.861-.664c-.212,0-.431.431-.861.431-.219,0-.431-.431-.862-.431-.219,0-.43.664-.649.664s-.431,0-.431-.233c-.212,0-.43-.219-.43,0-.431,0-.431.452-.862.664a.738.738,0,0,0-.43-.212h-.431c-.219,0-.219.643-.649.643,0,.219-.212,0-.431,0h-.431c-.211.219-.211.649-.43.861h-.431a.776.776,0,0,0-.642.219c-.219.211,0,.642-.219.861s-.65,0-.861.212,0,.649-.219.861-.861.219-.861.438c-.212.211,0,.861-.212,1.073,0,.218-.65.218-.65.43-.211.219.219.65,0,.861,0,.431-.642.431-.642.65,0,.43.212.649.212,1.08,0,.212-.642.431-.642.642s.43.65.43.862-.43.649-.43.861S459.9,235.591,459.9,235.8Z" fill="#5c2d91"/><path d="M471.322,221.133c-.431,0-.649.219-.868.65a1.419,1.419,0,0,0,.437,1.5l13.809,7.131a1.225,1.225,0,0,0,1.5-.431.917.917,0,0,0-.43-1.5l-13.809-7.35Z" fill="#5c2d91"/><path d="M454.062,249.406a1.192,1.192,0,0,0-1.081.642,1.473,1.473,0,0,0,.65,1.745l14.458,7.539a1.442,1.442,0,0,0,1.722-.642,1.191,1.191,0,0,0-.649-1.511l-14.451-7.561A.813.813,0,0,0,454.062,249.406Z" fill="#5c2d91"/><path d="M470.023,175.825l-24.8-2.372L456.864,205.6l-3.883,25.034,11.225,1.941s8.838-30.208,9.05-31.069C473.256,200.647,470.023,175.825,470.023,175.825Z" fill="#919191"/><path d="M454.273,240.35c5.014,2.76,7.78-.861,7.992-.65l1.941-7.123-11.225-1.941-.861,6.035Z" fill="#e5ad80"/><polygon points="462.053 232.146 462.053 232.146 464.206 232.577 462.053 232.146" fill="#ffa233"/><path d="M470.079,175.86a28.914,28.914,0,0,1-4.125,1.125c.861,6.7,3.208,23.874,3,24.523,0,.861-6.255,26.975-7.116,30.638h.219l2.153.431h0s8.838-30.208,9.05-31.069h0c0-.431-.212-1.941-.43-4.313-.431-3.036-1.073-7.342-1.5-11.225-.219-1.5-.431-3.036-.649-4.328A48.5,48.5,0,0,0,470.079,175.86Z" fill="#adadad"/><path d="M461.834,232.146c-.422,1.8-2.047,8.881-2.047,8.881s2.247-1.4,2.458-1.188c1.942-7.123,1.961-7.262,1.961-7.262C462.053,232.146,461.834,232.146,461.834,232.146Z" fill="#ffcda5"/><path d="M514.674,184.678a1.168,1.168,0,0,1-1.242-1.292V170.22a1.169,1.169,0,0,1,1.242-1.306c.642,0,1.292.642,1.758,1.306v13.166C515.966,184.029,515.316,184.678,514.674,184.678Z" fill="#724aad"/><path d="M518.119,170.651a3.774,3.774,0,0,1-3.664,3.663,3.633,3.633,0,0,1-3.664-3.663,3.514,3.514,0,0,1,3.664-3.679A3.636,3.636,0,0,1,518.119,170.651Z" fill="#32145a"/><path d="M261.262,239.489a.214.214,0,0,0-.219-.219A.214.214,0,0,1,261.262,239.489Zm9.049,11.421c-1.51-1.941-8.838-11.21-8.838-11.21h0l2.153-7.123L252.2,230.636l-.861,6.035-4.539,7.343a1.511,1.511,0,0,0,.861,2.371l19.844,10.576s1.08.861,1.941-.642l1.292-2.591S271.6,252.866,270.311,250.91Z" fill="#a6a6a6"/><path d="M286.922,221.994c-1.262-1.683-7.456-9.737-8.538-11.1l2.933-4-1.9-1-3.691,5.5s9.171,11.643,9.49,12.2-.239,1.276-.558,1.914c-.14.279-.662,1.217-1.205,2.182l.665.355a1.251,1.251,0,0,0,1.941-.642l1.5-2.584S288.433,223.936,286.922,221.994Z" fill="#c8c8c8"/><path d="M270.311,250.91c-1.51-1.941-8.838-11.21-8.838-11.21l2.153-7.123-2.532-.43-2.2,7.772s9.421,12.066,9.66,12.385.08.8-.239,1.356c-.166.291-.83,1.685-1.474,2.943l.672.358s1.08.861,1.941-.642l1.292-2.591S271.6,252.866,270.311,250.91Z" fill="#c8c8c8"/><path d="M191.168,221.994c-1.291-1.934-8.619-11.2-8.619-11.2l-.453-.452a1.379,1.379,0,0,0-1.8.273c1.5,2.013,9.288,12.438,9.558,12.762.3.359.3.658-.059,1.316-.2.359-1.1,1.781-1.885,3l.667.352s1.08.868,1.941-.642l1.292-2.584S192.672,223.936,191.168,221.994Z" fill="#919191"/><path d="M174.539,250.91c-1.292-1.941-8.634-11.21-8.634-11.21a1.564,1.564,0,0,0-2.372,0h0c-.649.869-2.8,2.161-5.6.65l-2.583-4.328-4.314,7.992a1.658,1.658,0,0,0,.861,2.371l19.845,10.576a1.255,1.255,0,0,0,1.941-.642l1.511-2.591S176.05,252.866,174.539,250.91Z" fill="#666"/><path d="M174.539,250.91c-1.292-1.941-8.634-11.21-8.634-11.21a1.564,1.564,0,0,0-2.372,0,2.5,2.5,0,0,1-.353.374l9.868,12.549-2.112,3.911.8.427a1.256,1.256,0,0,0,1.942-.642l1.511-2.591S176.05,252.866,174.539,250.91Z" fill="#919191"/><path d="M487.844,221.994c-1.292-1.934-8.619-11.2-8.619-11.2-.219-.218-.521-.572-.521-.572a1.318,1.318,0,0,0-1.8.344c1.5,2.013,9.354,12.487,9.624,12.811.3.359.3.658-.06,1.316-.195.359-1.1,1.781-1.884,3l.666.352s1.08.868,1.942-.642l1.291-2.584S489.347,223.936,487.844,221.994Z" fill="#919191"/><path d="M471.073,250.84c-1.292-1.942-8.634-11.211-8.634-11.211a1.564,1.564,0,0,0-2.372,0h0c-.649.869-2.8,2.161-5.605.65l-2.583-4.328-4.314,7.992a1.659,1.659,0,0,0,.861,2.372l19.845,10.575a1.255,1.255,0,0,0,1.941-.642l1.511-2.591S472.584,252.8,471.073,250.84Z" fill="#666"/><path d="M471.073,250.84c-1.292-1.942-8.634-11.211-8.634-11.211a1.564,1.564,0,0,0-2.372,0,2.5,2.5,0,0,1-.353.374l9.868,12.549-2.112,3.911.8.427a1.256,1.256,0,0,0,1.942-.642l1.511-2.591S472.584,252.8,471.073,250.84Z" fill="#919191"/><path d="M371.158,215.758l-.878,3.015,17.571,9.272s1.073.868,1.956-.642l.484-.969Z" fill="#c8c8c8"/><path d="M364,231.993l-1.808,8.882a11.59,11.59,0,0,1,2.182-1.15c.346-1.834.93-3.72.93-3.72l.983-3.614C364.847,232.131,364.252,232.031,364,231.993Z" fill="#b18675"/><path d="M373.838,250.91c-1.292-1.941-8.634-11.21-8.634-11.21a1.564,1.564,0,0,0-2.372,0h0c-.649.869-2.8,2.161-5.605.65l-2.583-4.328-4.314,7.992a1.658,1.658,0,0,0,.862,2.371l19.844,10.576a1.255,1.255,0,0,0,1.941-.642l1.511-2.591S375.349,252.866,373.838,250.91Z" fill="#a6a6a6"/><path d="M350.913,242.935l-.583,1.079a1.658,1.658,0,0,0,.861,2.371l19.845,10.576a1.255,1.255,0,0,0,1.941-.642l.36-.618Z" fill="#c8c8c8"/><polygon points="387.515 135.508 390.65 135.508 390.65 131.441 384.803 131.441 387.515 135.508" fill="#fff"/><path d="M480.219,205.969c.5.282,1.678.925,1.678.925l14.867-20.924H494.4C480.153,206.033,480.219,205.969,480.219,205.969Z" fill="#adadad"/><path d="M501.289,172.811c-.806-.81-10.155-8.286-15.085-12.2l-1.5,3c3.229,2.563,12.618,9.858,13.14,10.274,1.942,1.511.431,5.174-.861,7.758h2.8c.861-1.5,2.364-4.525,2.364-6.678A2.256,2.256,0,0,0,501.289,172.811Z" fill="#adadad"/><path d="M499.245,116.777c-.5-.542-2.291-2.1-3.583-3.667-2.474-2.993-8.083-3.375-8.083-3.375a132.847,132.847,0,0,1-18.625,6c-7.625,2.5-7.625,25.125-14.875,41.75-3.269,7.495-11.91,15.068-11.91,15.068s11.365,6.023,19.66,6.182,18.25-6.125,18.25-6.125,10.14-16.472,20-29.333C501.972,140.807,500.579,132.777,499.245,116.777Z" fill="#fff000"/><path d="M511.74,161.276c-5.97-2.827-25.411-12.916-25.411-12.916l-2.25-7.75-11.125,2.75,5.2,12.449a4.3,4.3,0,0,0,1.737,1.489c5.279,2.476,29.335,11.676,29.335,11.676Z" fill="#ffc18f"/><path d="M479.2,120.36c-.008-.028-.024-.052-.034-.079a7.421,7.421,0,0,0-14.311,3.91c0,.057,0,.111.011.169l6.209,20.375,13.25-3.437S480.2,123.86,479.2,120.36Z" fill="#e5d800"/><path d="M469.255,138.749l1.824,5.986,13.25-3.437s-.592-2.5-1.382-5.8Z" fill="#fff"/><path d="M172.828,105.915c-.431-1.081-.643-1.511-.643-1.511h-.219c-11.2,0-13.158,9.48-13.158,9.48v.219a23.349,23.349,0,0,1,3.9-.219A12.348,12.348,0,0,1,172.828,105.915Z" fill="#008770"/><path d="M151.692,161.156c5.6-25.472,8.21-36.908,9.5-42.083a30.193,30.193,0,0,1-3.841,1.026c.05-.691-.029-.734-.275.055-2.167,6.96-9.916,41.623-12.166,53.373,25.708,6.666,30.208,5.833,30.208,5.833C156.137,173.113,151.261,163.739,151.692,161.156Z" fill="#008770"/><path d="M447.579,174.86c17-10,20.25-48.75,21-52.5.654-3.27,9.294-6.352,19.619-12.558-.384-.05-.619-.067-.619-.067a132.847,132.847,0,0,1-18.625,6c-7.625,2.5-7.625,25.125-14.875,41.75-3.269,7.495-11.91,15.068-11.91,15.068s2.13,1.128,5.216,2.42Z" fill="#eada09"/><path d="M482.422,110.821l3.655-12.447s15.812-1.131,12.733,3.81c-2.367,3.8-2.726,12.929-2.726,12.929s-1.4,7.816-5.77,6.27c-3.214-1.136-7.927-9.878-7.927-9.878Z" fill="#ffc18f"/><path d="M506.844,99.7c.888-.022,1.513-.2,1.484-1.084l-1.541-6.284c-.116-.415-.092-1.111-.268-1.737a69.721,69.721,0,0,0-.337-11.543l-22.506,3.625s-2.829,12.23,3.212,20.174c1.682,1.991,5.454,5.858,14.3,6.971,2.633.6,2.544-.5,2.82-1.915l1.444-7.587c-.117-.414.238-.741.653-.858Z" fill="#ffc18f"/><path d="M485.373,95.873A21.06,21.06,0,0,0,487.158,103a13.012,13.012,0,0,0,3.866,3.393c-.059-.21-.327-.355-.386-.565a13.864,13.864,0,0,1-2.865-10.181l-.2.058L486.53,96C486.115,96.112,485.852,95.958,485.373,95.873Z" fill="#e5ad80"/><path d="M478.959,78.625a19.635,19.635,0,0,0-2.512,5.408c-1.764,5.667.173,9.375,3.146,14.361,1,1.97-2.362,6.723-2.035,7.078.119.421,3.311.638,10.154-1.287-4.294-7.314-2.116-18.678,1.837-15.756a4.877,4.877,0,0,0,1.33.74l17.241-6.413S505.763,71.979,495.2,71.821A21.346,21.346,0,0,0,478.959,78.625Z" fill="#9d6853"/><path d="M489.238,92.094a28.948,28.948,0,0,1,.959-2.953,4.416,4.416,0,0,0-4.192-2.179,4.321,4.321,0,0,0-4.252,4.774A4.645,4.645,0,0,0,486.53,96a2.984,2.984,0,0,0,2.224-.853C488.935,94.2,489.057,93.04,489.238,92.094Z" fill="#ffc18f"/><path d="M484.225,88.584a2.582,2.582,0,0,0-1.047,1.857,3.037,3.037,0,0,0,2.412,3.8l1.145-5.47C485.846,88.8,485.111,88.555,484.225,88.584Z" fill="#e5ad80"/><path d="M501.392,93.846c-.06-.211.144-.268.087-.472-.029-.909-.473-1.679-1.359-1.65a1.3,1.3,0,0,0-1.628,1.353.794.794,0,0,0-.031.7A4.723,4.723,0,0,1,501.392,93.846Z" fill="#754c28"/><path d="M487.839,87.12s-.083,6.066,1.312,5.446c1.331-.821.274-2.988,2.676-3.209,11.076,4.283,16.59.033,16.59.033s2.026-2.367-.3-6.634Z" fill="#9d6853"/><path d="M487.724,102.612a7.66,7.66,0,1,1-9.514-5.171A7.726,7.726,0,0,1,487.724,102.612Z" fill="#9d6853"/><path d="M476.419,107.809a7.743,7.743,0,0,1,5.363-9.583l.415-.117c-2.318-4.276-3.782-7.89-2.369-13.215a34.159,34.159,0,0,1,2.5-5.42,21.745,21.745,0,0,1,16.293-6.6c.683.028,1.308-.148,1.839.15a14.4,14.4,0,0,0-5.266-1.2,21.346,21.346,0,0,0-16.236,6.8,19.635,19.635,0,0,0-2.512,5.408c-1.67,5.193,0,8.75,2.381,13.234l-.618.174a7.657,7.657,0,0,0-5.232,9.32,7.517,7.517,0,0,0,6.979,5.648A7.649,7.649,0,0,1,476.419,107.809Z" fill="#81513c"/><path d="M502.972,105.039h0a8.063,8.063,0,0,1-4.162-2.855.416.416,0,0,1,.035-.684c.2-.058.414-.117.473.094,0,0,1.74,2.194,3.631,2.557.263.153.531.3.38.568A.743.743,0,0,1,502.972,105.039Z" fill="#754c28"/></svg>