<svg xmlns="http://www.w3.org/2000/svg" xmlns:xlink="http://www.w3.org/1999/xlink" viewBox="0 0 636 300"><defs><clipPath id="a"><circle cx="496.041" cy="166.171" r="42.426" fill="none"/></clipPath><clipPath id="b"><circle cx="145.016" cy="132.473" r="42.426" fill="none"/></clipPath></defs><title>swimlane-secure-chat-app</title><path d="M148.476,41.653h96.65a4.306,4.306,0,0,0,0-8.611h-48.1c-4.5,0-2.734-4.787,0-4.787H205.2a4.306,4.306,0,0,0,0-8.611H161.516a4.306,4.306,0,1,0,0,8.611h4.156c4.662,0,4.019,4.787-.483,4.787H148.476a4.306,4.306,0,0,0,0,8.611Z" fill="#e8f1fc"/><path d="M347.15,92.405h82.956a5.4,5.4,0,1,0,0-10.8h-51.97c-5.647,0-5.441-6,0-6h6.932a5.4,5.4,0,0,0,0-10.8h-54.8a5.4,5.4,0,0,0,0,10.8h19.34c5.848,0,5.042,6-.606,6H347.15a5.4,5.4,0,1,0,0,10.8Z" fill="#e8f1fc"/><path d="M272.337,109.457V78.17a55.563,55.563,0,1,1,111.125,0v31.287h18.522v-31.6a74.084,74.084,0,0,0-148.168,0v31.6Z" fill="#ededed"/><path d="M325.581,3.83a74.07,74.07,0,0,0-71.765,74.026v31.6H267.7V78.17a55.562,55.562,0,0,1,55.562-55.563c.778,0,1.549.027,2.319.059.77-.032,1.541-.059,2.319-.059A55.562,55.562,0,0,1,383.462,78.17v31.287h13.884v-31.6A74.07,74.07,0,0,0,325.581,3.83Z" fill="#d2d2d2"/><rect x="228" y="107.059" width="203" height="177" rx="6.699" ry="6.699" fill="#b2b2b2"/><path d="M346.322,183.642a18.311,18.311,0,0,0-36.554-1.87A18.66,18.66,0,0,0,322,201.256v33.8h12v-33.8A18.624,18.624,0,0,0,346.322,183.642Z" fill="#939393"/><path d="M308.538,179.021A24.465,24.465,0,0,1,330.5,154.685a24.879,24.879,0,0,0-2.5-.126,24.462,24.462,0,0,0-8.011,47.575V246.49h5V202.134A24.467,24.467,0,0,1,308.538,179.021Z" fill="none"/><path d="M431,137.059V113.765a6.706,6.706,0,0,0-6.706-6.706H234.706A6.706,6.706,0,0,0,228,113.765v23.294Z" fill="#bfbfbf"/><path d="M228,254.059v23.294a6.706,6.706,0,0,0,6.706,6.706H424.294A6.706,6.706,0,0,0,431,277.353V254.059Z" fill="#bfbfbf"/><path d="M431,113.765a6.706,6.706,0,0,0-6.706-6.706H410.541a6.583,6.583,0,0,1,6.459,6.7v163.6a6.583,6.583,0,0,1-6.459,6.7h13.753A6.706,6.706,0,0,0,431,277.353Z" fill="#ccc"/><path d="M461,167.059H380.9a20.961,20.961,0,0,0-20.9,20.9v33.2a20.963,20.963,0,0,0,20.9,20.9H402v20.389l20.5-20.389h38.6a20.963,20.963,0,0,0,20.9-20.9V188.122a20.962,20.962,0,0,0-20.9-20.9" fill="#fec94e"/><rect x="379" y="185.059" width="58" height="7" fill="#fff"/><rect x="379" y="201.059" width="58" height="7" fill="#fff"/><rect x="379" y="216.059" width="23" height="7" fill="#fff"/><circle cx="496.041" cy="166.171" r="42.426" fill="#d69521"/><g clip-path="url(#a)"><path d="M490.036,183.055v8.952A29.912,29.912,0,0,0,498.8,213.16l2.987,2.99A29.918,29.918,0,0,0,510.549,195v-11.94Z" fill="#282828"/><path d="M519.654,159.488l.959,8.416a12.051,12.051,0,0,0,4.3,8.16l4.2,3.488a34.846,34.846,0,0,1,12.44,23.593l.154,1.659a25.087,25.087,0,0,1-27.3-22.662l-1.953-21.053Z" fill="#282828"/><path d="M518.625,189.915h.784A26.988,26.988,0,0,1,543.532,204.8l.893,1.78c4.876,10.926,4.567,38.179,3.939,53.589H500.1l-3.443-9.63-2.353-3.129a17.622,17.622,0,0,1-1.966-17.869l.283-.622a44.142,44.142,0,0,0,3.939-17.8,22.086,22.086,0,0,1,22.067-21.206" fill="#c2c2c2"/><path d="M524.092,189a15.179,15.179,0,0,1-5.23-11.693l.1-6.858a21.125,21.125,0,0,0,.068-4.5l-.753-8.111c-1.062-11.434-10.856-20.348-22.321-19.694-12.036.687-20.316,15.24-19.212,27.143l.715,10.886c.675,7.279,9.021,12.105,16.3,11.43l10.619,3.974,5.461,6.209,18.118-5.435Z" fill="#ab845f"/><path d="M506.8,192.744a14.788,14.788,0,0,0-7.51-5.7,29.278,29.278,0,0,0,2.625-4.4.48.48,0,0,0-.636-.649c-2.207,1.047-7.2,3.294-9.983,3.7-4.839.709-6.292-2.4-6.638-6.125l-.259-2.8a1.166,1.166,0,0,0-1.131-1.056l-1.181-.027a2.323,2.323,0,0,1-2.033-3.757s1.936-3.622,2.839-5.647a4.158,4.158,0,0,0,.34-2.079l-1-10.815-3.292-.8a29.139,29.139,0,0,0-2.4,13.77,62.108,62.108,0,0,0,.355,11.387c.777,4.524,2.646,9.88,7.287,11.426,3.726,1.242,9.2.424,9.2.424a12.076,12.076,0,0,1,10.594,4.544l4.209,5.333,2.912-1.049Z" fill="#b48f75"/><path d="M495.458,164.682a1.934,1.934,0,1,0-1.747,2.1,1.935,1.935,0,0,0,1.747-2.1"/><path d="M480.382,166.008a1.934,1.934,0,1,0-1.747,2.1,1.933,1.933,0,0,0,1.747-2.1"/><path d="M478.988,179.774,491.68,178.6l-2.965,2.5a6.618,6.618,0,0,1-9.727-1.322" fill="#fff"/><path d="M493.762,179.376a3.307,3.307,0,0,0-4.52-3.753Z" fill="#b48f75"/><path d="M505.619,201.378v-4.793c6.2-7.535,12.4-7.3,20.41-5.9l6.162,5.241.409,2.759-26.981,8.688Z" fill="#c2c2c2"/><path d="M521.075,172.875c-.966-3.417-1.426-15.363-1.426-15.363a23.513,23.513,0,0,0-25.584-21.239l-1.763.142a20.186,20.186,0,0,0-18.4,22.62l.619,4.952s11.018-4.461,14.582-14.242c0,0,1.982,2.523,4.776,5.67a9.669,9.669,0,0,0-5.619,2.4,1.123,1.123,0,1,0,1.513,1.661c.144-.131,3.245-2.884,6.541-1.4a57.372,57.372,0,0,0,8.353,7.577l-.265-2.851a4.237,4.237,0,1,1,8.437-.784l.231,2.482a6.27,6.27,0,0,1-2.516,5.621v3.682a36.821,36.821,0,0,0,10.784,26.036l4.7,4.695V181s-3.989-4.708-4.954-8.124" fill="#282828"/><polygon points="502.63 177.555 507.731 178.715 504.183 170.722 509.285 171.882 502.63 177.555" fill="#fff"/></g><path d="M180,133.059h80.1a20.961,20.961,0,0,1,20.9,20.9v33.2a20.963,20.963,0,0,1-20.9,20.9H239v20.389l-20.5-20.389H179.9a20.963,20.963,0,0,1-20.9-20.9V154.425a20.963,20.963,0,0,1,20.9-20.9" fill="#b5d5ea"/><rect x="204.016" y="151.977" width="58.085" height="6.584" fill="#fff"/><rect x="204" y="167.059" width="58" height="7" fill="#fff"/><circle cx="145.016" cy="132.473" r="42.426" fill="#409ae1"/><g clip-path="url(#b)"><path d="M155.358,169.182a41.418,41.418,0,0,0-9.716-17.822l-2.694-2.828H121.989c-18.595,1.312-24.09,22.252-29.492,43.454s-4.843,36.173-4.843,36.173l11.95,1.119,45.253.513-3.811-18.055a39.444,39.444,0,0,1,.8-22.152L150.17,230.3l14.618-.453Z" fill="#505050"/><path d="M122.138,134.028l.095,5.294a27.044,27.044,0,0,1-2.864,12.57,5.316,5.316,0,0,0,1.066,6.647,19.384,19.384,0,0,0,12.533,4.611h4.177a2.9,2.9,0,0,0,2.628-1.66,12.815,12.815,0,0,1,11.929-7.748h1.312L148.4,141.6Z" fill="#d2b69b"/><path d="M139.744,152.47a16.583,16.583,0,0,0-6.6,10.679h4a2.891,2.891,0,0,0,2.627-1.659,12.819,12.819,0,0,1,11.93-7.747h1.312l-1.147-3.018h-9.726Z" fill="#f8d5b9"/><path d="M119.369,151.892a5.378,5.378,0,0,0,.232,5.694c.83.2,11.074,2.435,18.372-5.951-3.985-3.464-12.968-8.409-15.829-9.95a25.425,25.425,0,0,1-2.775,10.207" fill="#b48f75"/><path d="M146.589,103.736h0a21.769,21.769,0,0,0-23.879,18.745,3.48,3.48,0,0,0-3.757,3.1l-.406,3.812a5.216,5.216,0,0,0,3.027,5.3,21.77,21.77,0,0,0,19.455,21.192l9.5,1.014c6.709.716,11.785-5.637,12.5-12.346l2.9-16.854a21.776,21.776,0,0,0-19.342-23.959" fill="#d2b69b"/><path d="M153.153,115.448a32.364,32.364,0,0,1,2.68,11,14.933,14.933,0,0,0,2.311,7.044l3.274,5.164a2.231,2.231,0,0,1-2.121,3.412l-2.138-.227a2.485,2.485,0,0,0-2.733,2.207l-.349,3.271,8.129.866a16.133,16.133,0,0,0,.827-3.635l2.9-16.854a21.682,21.682,0,0,0-3.986-15.033l-10.512-1.12Z" fill="#f8d5b9"/><path d="M168.052,108.287l-1.527-2.829-1.608,4.182a11.961,11.961,0,0,0-3.952-7.248l-.657-.574-3.227,3.358-11.232-3.417A18.148,18.148,0,0,0,122.52,117.2l-.566,5.3a3.453,3.453,0,0,1,3.929,3.814l-.869,8.144a.859.859,0,0,1-.945.765l-.889-.1a5.188,5.188,0,0,1-2.2-.76l.1,3.234c.681,17.569,23.031,21.956,34.152,23.052,3.836.378,6.227-2.112,7.331-5.807.931-3.12.99-9.652-.211-10.9-1.524-1.574-4.333-1.443-6.416-.768l-.268.087a21.649,21.649,0,0,0-12.926-3.394,78.708,78.708,0,0,0-8.7.778l-6.133,1.549.933-3.886a43.65,43.65,0,0,0,1.2-10.89l-.071-4.6,1.632-.962a8.032,8.032,0,0,0,3.908-6.066l.276-2.587,17.087,4.374a20.614,20.614,0,0,0,10.079.037,6.593,6.593,0,0,0,2.717-1.4l1.078-.927a5.685,5.685,0,0,0,1.3-7.006" fill="#282828"/><path d="M147.262,130.724a1.7,1.7,0,1,1-1.508-1.869,1.7,1.7,0,0,1,1.508,1.869" fill="#021760"/><path d="M164.779,132.592a1.7,1.7,0,1,1-1.509-1.87,1.7,1.7,0,0,1,1.509,1.87" fill="#021760"/><path d="M155.587,149.12l-3.961-.422a2.983,2.983,0,0,1-2.65-3.283l9.894,1.056a2.983,2.983,0,0,1-3.283,2.649" fill="#fff"/><path d="M167,128.4l-6.878-.733-10.748-1.146-9.3-.991-14.765-1.574.467,1.2,11.974,1.29a2.7,2.7,0,0,0-.657,1.492l-.473,4.437a2.713,2.713,0,0,0,2.406,2.981l9.3.991a2.861,2.861,0,0,0,.29.015,2.711,2.711,0,0,0,2.691-2.421l.474-4.437a2.692,2.692,0,0,0-.33-1.6l6.348.677a2.675,2.675,0,0,0-.658,1.493l-.145,1.276.993,1.9.3-3.054a1.55,1.55,0,0,1,1.71-1.38l6.877.733a1.557,1.557,0,0,1,1.381,1.71l-.474,4.437a1.556,1.556,0,0,1-1.709,1.381l-6.1-.611.88,1.215,5.095.543a2.83,2.83,0,0,0,.289.016,2.711,2.711,0,0,0,2.691-2.421l.473-4.438A2.712,2.712,0,0,0,167,128.4m-16.368.98-.473,4.437a1.558,1.558,0,0,1-1.71,1.38l-9.3-.992a1.556,1.556,0,0,1-1.381-1.71l.473-4.437a1.555,1.555,0,0,1,1.71-1.38l9.3.992a1.554,1.554,0,0,1,1.38,1.71"/><path d="M123.364,124.263a2.712,2.712,0,0,0-2.985,2.409l-.316,2.967a4.06,4.06,0,0,0,3.606,4.468l1.357.145.252-2.361-.557-.811a1.812,1.812,0,0,1,.586-2.594l.357-.207.109-1.031a2.711,2.711,0,0,0-2.409-2.985" fill="#b48f75"/></g><circle cx="240.333" cy="119.726" r="5.185" fill="none"/><circle cx="404.333" cy="119.726" r="5.185" fill="none"/><circle cx="240.333" cy="270.726" r="5.185" fill="none"/><circle cx="404.333" cy="270.726" r="5.185" fill="none"/></svg>