<svg width="636" height="300" viewBox="0 0 636 300" fill="none" xmlns="http://www.w3.org/2000/svg">
<path d="M37.64 265.79H595.59C597.1 265.79 598.52 266.78 598.81 268.25C599.18 270.14 597.54 271.79 595.48 271.79H37.87C36.36 271.79 34.9401 270.8 34.6501 269.33C34.2801 267.44 35.92 265.79 37.98 265.79" fill="#C8C8C8"/>
<path d="M588.64 264.47L572.56 268.5C569.77 269.15 566.98 267.42 566.32 264.63L529.64 108.15C528.99 105.36 530.72 102.57 533.51 101.91L549.59 97.8799C552.38 97.2299 555.17 98.9599 555.83 101.75L592.51 258.23C593.17 261.02 591.43 263.81 588.64 264.47Z" fill="#B2B2B2"/>
<path d="M585.81 229.58L559.7 235.84L554.88 215.28L581 209.02L585.81 229.58Z" fill="#939393"/>
<path d="M561.08 123.85L534.96 130.55L554.85 215.44L580.98 208.74L561.08 123.85Z" fill="#D2D2D2"/>
<path d="M522.96 267.68H488.98C485.49 267.68 482.66 264.85 482.66 261.36V98.9103C482.66 95.4203 485.49 92.5903 488.98 92.5903H522.96C526.45 92.5903 529.28 95.4203 529.28 98.9103V261.36C529.28 264.85 526.45 267.68 522.96 267.68Z" fill="#B2B2B2"/>
<path d="M488.97 92.5903H522.95C526.44 92.5903 529.27 95.4203 529.27 98.9103V117.75H482.65V98.9103C482.66 95.4203 485.49 92.5903 488.97 92.5903Z" fill="#D2D2D2"/>
<path d="M476.91 77.5H422.09C418.92 77.5 416.34 80.07 416.34 83.25V261.94C416.34 265.11 418.91 267.69 422.09 267.69H476.91C480.08 267.69 482.66 265.12 482.66 261.94V83.25C482.66 80.07 480.08 77.5 476.91 77.5Z" fill="#939393"/>
<path d="M482.65 99.6401H416.34V162.03H482.65V99.6401Z" fill="#B2B2B2"/>
<path d="M482.65 108.69H416.34V152.96H482.65V108.69Z" fill="#848484"/>
<path d="M529.64 203.52H481.9V216.35H529.64V203.52Z" fill="#939393"/>
<path d="M505.01 249.47C511.671 249.47 517.07 244.326 517.07 237.98C517.07 231.634 511.671 226.49 505.01 226.49C498.35 226.49 492.95 231.634 492.95 237.98C492.95 244.326 498.35 249.47 505.01 249.47Z" fill="#FFB900"/>
<path d="M417.1 36.3599H266.43V257.53H417.1V36.3599Z" fill="#9E83E3"/>
<path d="M414.73 122.5V70.5H357.91L414.73 122.5Z" fill="url(#paint0_linear)"/>
<path d="M418.1 36.3599H267.43V73.2799H418.1V36.3599Z" fill="#B2B2B2"/>
<path d="M360.52 73.2801H418.73V36.8701H320.73L360.52 73.2801Z" fill="#C4C4C4"/>
<path d="M53.3304 266.95H238C240.72 266.95 242.94 264.36 242.94 261.19V251.01C242.94 247.83 240.72 245.25 238 245.25H53.3304C52.3404 245.24 52.3404 266.95 53.3304 266.95Z" fill="#B3AFAB"/>
<path d="M42.6396 265.216L228.89 265.216L228.89 247.196L42.6396 247.196L42.6396 265.216Z" fill="#D2D2D2"/>
<path d="M42.6396 252.04L228.89 252.04L228.89 247.2L42.6396 247.2L42.6396 252.04Z" fill="#B2B2B2"/>
<path d="M41.4499 266.95H226.12C228.84 266.95 231.06 264.36 231.06 261.19V251.01C231.06 247.83 228.84 245.25 226.12 245.25H41.4499C40.4699 245.25 39.6699 246.18 39.6699 247.33C39.6699 248.48 40.4699 249.41 41.4499 249.41H226.12C226.88 249.41 227.5 250.13 227.5 251.02V261.2C227.5 262.09 226.88 262.81 226.12 262.81H41.4499C40.4699 262.81 39.6699 263.74 39.6699 264.89C39.6699 266.02 40.4699 266.95 41.4499 266.95Z" fill="#939393"/>
<path d="M215.09 245.22H58.7798V238.78L57.0498 204.22V197.78H215.09C226.3 197.78 235.42 208.42 235.42 221.51C235.42 234.6 226.3 245.22 215.09 245.22Z" fill="#2488D8"/>
<path d="M191.71 201.71C191.71 201.71 209.92 202.3 209.92 221.3C209.92 240.3 191.91 241.69 191.91 241.69L191.71 201.71Z" fill="#737373"/>
<path d="M193.65 202.16H55.7598V241.23H193.65V202.16Z" fill="#D2D2D2"/>
<path d="M193.65 202.16H55.7598V208.69H193.65V202.16Z" fill="#B2B2B2"/>
<path d="M192.27 197.76H52.43C50.65 197.76 49.21 199.2 49.21 200.98C49.21 202.76 50.65 204.2 52.43 204.2H192.27C200.44 204.2 207.08 211.95 207.08 221.48C207.08 231.01 200.44 238.76 192.27 238.76H52.43C50.65 238.76 49.21 240.2 49.21 241.98C49.21 243.76 50.65 245.2 52.43 245.2H192.27C203.48 245.2 212.6 234.56 212.6 221.47C212.6 208.38 203.48 197.76 192.27 197.76Z" fill="#389FE5"/>
<path d="M397.99 61.75H306.57C304.34 61.75 302.53 59.94 302.53 57.71V54.54C302.53 52.31 304.34 50.5 306.57 50.5H397.99C400.22 50.5 402.03 52.31 402.03 54.54V57.71C402.03 59.94 400.22 61.75 397.99 61.75Z" fill="#E6E6E6"/>
<path d="M285.62 61.75H288.49C290.72 61.75 292.53 59.94 292.53 57.71V54.54C292.53 52.31 290.72 50.5 288.49 50.5H285.62C283.39 50.5 281.58 52.31 281.58 54.54V57.71C281.59 59.94 283.39 61.75 285.62 61.75Z" fill="#E6E6E6"/>
<path d="M198.58 192.62V169.18V163.97H73.6198C71.2698 163.97 69.0198 165.06 67.3598 167C65.6998 168.94 64.7598 171.57 64.7598 174.31V187.5C64.7598 188.86 64.9898 190.2 65.4298 191.46C65.8698 192.71 66.5298 193.85 67.3498 194.81C68.1698 195.77 69.1498 196.53 70.2198 197.05C71.2998 197.57 72.4498 197.84 73.6098 197.84H198.57V192.62H198.58Z" fill="#9E83E3"/>
<path d="M220.099 169.18H92.9795V195.23H220.099V169.18Z" fill="#E6E6E6"/>
<path d="M222.33 195.22C222.33 193.78 221.16 192.62 219.73 192.62H98.4998C97.3398 192.62 96.2198 192.08 95.3898 191.12C94.5698 190.16 94.0998 188.85 94.0998 187.49V174.3C94.0998 172.94 94.5598 171.64 95.3898 170.67C96.2098 169.71 97.3298 169.17 98.4998 169.17H219.73C221.17 169.17 222.33 168 222.33 166.57C222.33 165.13 221.16 163.97 219.73 163.97H97.3698C95.0198 163.97 92.7698 165.06 91.1098 167C89.4498 168.94 88.5098 171.57 88.5098 174.31V187.5C88.5098 188.86 88.7398 190.2 89.1798 191.46C89.6198 192.71 90.2798 193.85 91.0998 194.81C91.9198 195.77 92.8998 196.53 93.9698 197.05C95.0498 197.57 96.1998 197.84 97.3598 197.84H219.72C221.16 197.83 222.33 196.66 222.33 195.22Z" fill="#B8A5F9"/>
<path d="M124.719 205.61L118.109 201.75C117.749 201.54 117.309 201.54 116.949 201.75L110.339 205.61C109.569 206.06 108.609 205.5 108.609 204.61V178.14C108.609 177.5 109.129 176.99 109.759 176.99H125.309C125.949 176.99 126.459 177.51 126.459 178.14V204.61C126.449 205.5 125.489 206.06 124.719 205.61Z" fill="#FFB900"/>
<path d="M397.79 206.38H284.95C283.76 206.38 282.8 207.34 282.8 208.53V208.55C282.8 209.74 283.76 210.7 284.95 210.7H397.8C398.99 210.7 399.95 209.74 399.95 208.55V208.53C399.95 207.34 398.98 206.38 397.79 206.38Z" fill="#505050"/>
<path d="M285.46 206.44H284.66C283.47 206.44 282.51 207.4 282.51 208.59C282.51 209.78 283.47 210.74 284.66 210.74H285.46C286.65 210.74 287.61 209.78 287.61 208.59C287.61 207.41 286.65 206.44 285.46 206.44Z" fill="#E6E6E6"/>
<path d="M340.88 181.54C361.97 181.54 379.07 164.44 379.07 143.35C379.07 122.26 361.97 105.16 340.88 105.16C319.79 105.16 302.69 122.26 302.69 143.35C302.69 164.44 319.79 181.54 340.88 181.54Z" fill="white"/>
<path d="M329.63 157.48V129.23C329.63 128.83 329.73 128.45 329.93 128.1C330.13 127.76 330.41 127.47 330.75 127.27C331.09 127.07 331.48 126.97 331.88 126.97C332.27 126.97 332.66 127.07 333.01 127.27L357.73 141.4C358.07 141.6 358.36 141.88 358.56 142.22C358.76 142.56 358.86 142.95 358.86 143.35C358.86 143.75 358.76 144.14 358.56 144.48C358.36 144.82 358.08 145.11 357.73 145.3L333.01 159.43C332.67 159.63 332.28 159.73 331.88 159.73C331.48 159.73 331.09 159.62 330.75 159.43C330.41 159.23 330.12 158.95 329.93 158.61C329.74 158.26 329.63 157.88 329.63 157.48Z" fill="#D2D2D2"/>
<path d="M285.46 233.21C284.59 233.21 283.88 232.5 283.88 231.63V222.97C283.88 222.1 284.59 221.39 285.46 221.39C286.33 221.39 287.04 222.1 287.04 222.97V231.63C287.05 232.5 286.34 233.21 285.46 233.21Z" fill="#E6E6E6"/>
<path d="M292.45 233.21C291.58 233.21 290.87 232.5 290.87 231.63V222.97C290.87 222.1 291.58 221.39 292.45 221.39C293.32 221.39 294.03 222.1 294.03 222.97V231.63C294.03 232.5 293.32 233.21 292.45 233.21Z" fill="#E6E6E6"/>
<path d="M315.7 222.99V231.31C315.7 231.74 316.19 231.97 316.52 231.71L322.09 227.24C322.35 227.03 322.34 226.62 322.06 226.43L316.49 222.58C316.15 222.34 315.7 222.58 315.7 222.99Z" fill="#E6E6E6"/>
<path d="M325.39 222.16H323.45V231.67H325.39V222.16Z" fill="#E6E6E6"/>
<path d="M346.43 221.38L343.39 224.49C343.27 224.61 343.11 224.68 342.94 224.68H341.16C340.81 224.68 340.53 224.96 340.53 225.31V228.64C340.53 228.99 340.81 229.27 341.16 229.27H343.33C343.5 229.27 343.67 229.34 343.78 229.46L346.42 232.21C346.81 232.62 347.5 232.34 347.5 231.77V221.82C347.51 221.26 346.82 220.98 346.43 221.38Z" fill="#E6E6E6"/>
<path d="M349.13 223.61V230C350.43 229.52 351.37 228.27 351.37 226.81C351.36 225.33 350.43 224.09 349.13 223.61Z" fill="#E6E6E6"/>
<path d="M349.13 220.1V221.62C351.5 222.16 353.27 224.27 353.27 226.8C353.27 229.33 351.5 231.45 349.13 231.98V233.5C352.32 232.94 354.76 230.15 354.76 226.8C354.76 223.45 352.32 220.66 349.13 220.1Z" fill="#E6E6E6"/>
<path d="M416.29 25.6001H264.5C260.55 25.6001 257.35 28.8001 257.35 32.7501V260.42C257.35 264.37 260.55 267.57 264.5 267.57H416.29C420.24 267.57 423.44 264.37 423.44 260.42V32.7501C423.44 28.8001 420.24 25.6001 416.29 25.6001ZM412.55 253.23C412.55 254.82 411.26 256.1 409.68 256.1H271.49C269.9 256.1 268.62 254.81 268.62 253.23V40.1401C268.62 38.5501 269.91 37.2701 271.49 37.2701H409.68C411.27 37.2701 412.55 38.5601 412.55 40.1401V253.23Z" fill="#444444"/>
<path d="M265.75 144.22H260V149.97H265.75V144.22Z" fill="#737373"/>
<path d="M469.471 128.99C468.831 128.04 462.791 117.54 462.051 116.27C461.311 115 460.251 114.57 458.871 114.57C458.521 114.57 457.761 114.57 456.761 114.57C453.991 114.57 448.901 114.57 445.931 114.57C444.931 114.57 444.171 114.57 443.821 114.57C442.441 114.57 441.381 114.99 440.641 116.27C439.901 117.54 433.851 128.04 433.221 128.99C432.581 129.94 432.581 131.11 433.641 133.02C434.701 134.93 440.001 144.26 440.641 145.43C441.281 146.6 442.231 147.29 443.821 147.29C444.181 147.29 445.011 147.29 446.091 147.29C449.851 147.29 456.601 147.29 456.601 147.29C457.681 147.29 458.511 147.29 458.871 147.29C460.461 147.29 461.411 146.6 462.051 145.43C462.691 144.26 467.991 134.93 469.051 133.02C470.111 131.11 470.111 129.94 469.471 128.99ZM459.601 139.43H456.101L451.371 131.22L446.641 139.43H443.141L447.911 130.92L443.141 122.41H446.691L451.371 130.61L456.051 122.41H459.601L454.831 130.92L459.601 139.43Z" fill="#B2B2B2"/>
<path d="M511.24 141.2L512.79 138.3C512.88 138.14 512.82 137.93 512.66 137.84C512.61 137.81 512.56 137.79 512.5 137.79C512.38 137.79 512.27 137.85 512.21 137.96L510.65 140.84C509.45 140.28 508.12 139.97 506.71 139.97C505.31 139.97 503.97 140.28 502.78 140.83L501.23 137.96C501.14 137.8 500.95 137.74 500.79 137.83C500.63 137.92 500.57 138.11 500.66 138.27L502.21 141.19C499.49 142.69 497.8 145.48 497.59 148.86H516.36C516.15 145.48 513.95 142.7 511.24 141.2ZM502.4 145.2C501.89 145.2 501.48 144.79 501.48 144.28C501.48 143.77 501.89 143.36 502.4 143.36C502.91 143.36 503.32 143.77 503.32 144.28C503.32 144.79 502.91 145.2 502.4 145.2ZM511.04 145.2C510.53 145.2 510.12 144.79 510.12 144.28C510.12 143.77 510.53 143.36 511.04 143.36C511.55 143.36 511.96 143.77 511.96 144.28C511.95 144.79 511.54 145.2 511.04 145.2Z" fill="#D2D2D2"/>
<path d="M496.97 151.09C496.97 149.94 495.97 149.09 494.86 149.09C493.75 149.09 492.75 150.05 492.75 151.01V160C492.75 160.96 493.75 161.89 494.86 161.89C495.97 161.89 496.97 160.96 496.97 159.85V151.09Z" fill="#D2D2D2"/>
<path d="M521.43 151.09C521.43 149.95 520.43 149.09 519.32 149.09C518.21 149.09 517.21 150.05 517.21 151.01V160C517.21 160.96 518.21 161.89 519.32 161.89C520.43 161.89 521.43 160.96 521.43 159.85V151.09Z" fill="#D2D2D2"/>
<path d="M497.81 149.7V162.97C497.81 164.67 498.54 165.73 500.54 165.73H501.95L501.96 170.09C502.03 171.05 502.99 171.91 504.11 171.91C505.22 171.91 506.26 170.91 506.26 169.8V166.31L509.08 166.32L509.05 169.95C509.12 170.91 509.92 171.83 511.03 171.83C512.14 171.83 513.01 170.89 513.01 169.79V165.72H513.74C514.98 165.72 516.39 165.23 516.39 162.96V149.7H497.81Z" fill="#D2D2D2"/>
<path d="M563.09 156.74C563.01 156.38 563.07 156.05 563.27 155.74C563.46 155.43 563.75 155.24 564.12 155.16C564.5 155.08 564.84 155.14 565.14 155.34C565.44 155.54 565.63 155.82 565.71 156.18C565.79 156.55 565.73 156.89 565.53 157.2C565.33 157.51 565.05 157.71 564.67 157.78C564.31 157.86 563.97 157.79 563.67 157.59C563.36 157.4 563.17 157.11 563.09 156.74ZM547.5 161.04L547.08 159.02L559.68 156.38L560.1 158.4L547.5 161.04Z" fill="#B2B2B2"/>
<path d="M549.61 172.57C549.09 170.07 549.49 167.89 550.82 166.04C552.15 164.19 554.14 162.99 556.78 162.43C559.62 161.83 562.04 162.13 564.05 163.31C566.06 164.49 567.34 166.4 567.9 169.04C568.41 171.48 568 173.61 566.67 175.44C565.34 177.27 563.35 178.47 560.7 179.02C557.82 179.62 555.39 179.34 553.39 178.16C551.41 176.99 550.15 175.13 549.61 172.57ZM566 169.28C565.61 167.43 564.63 166.06 563.05 165.19C561.47 164.31 559.59 164.1 557.42 164.56C555.25 165.02 553.62 165.95 552.53 167.35C551.44 168.76 551.09 170.36 551.47 172.18C551.88 174.12 552.83 175.51 554.32 176.36C555.82 177.21 557.7 177.4 559.97 176.92C562.3 176.43 563.99 175.51 565.03 174.16C566.08 172.81 566.4 171.19 566 169.28Z" fill="#B2B2B2"/>
<path d="M552.94 183.42L555.38 182.91C555.19 183.24 555.04 183.62 554.93 184.05C554.81 184.48 554.73 184.93 554.69 185.38C554.65 185.84 554.63 186.29 554.65 186.74C554.67 187.19 554.71 187.6 554.79 187.97C555.06 189.24 555.49 190.14 556.09 190.67C556.69 191.2 557.44 191.37 558.32 191.18C558.8 191.08 559.19 190.89 559.5 190.61C559.81 190.33 560.07 189.97 560.28 189.54C560.49 189.11 560.68 188.61 560.84 188.05C561 187.49 561.17 186.89 561.34 186.24C561.52 185.56 561.72 184.92 561.93 184.32C562.14 183.72 562.39 183.18 562.7 182.71C563 182.24 563.37 181.83 563.82 181.51C564.26 181.18 564.81 180.95 565.47 180.81C566.27 180.64 567.01 180.67 567.68 180.9C568.35 181.13 568.94 181.49 569.44 181.98C569.95 182.47 570.37 183.07 570.71 183.76C571.05 184.45 571.3 185.18 571.46 185.95C571.82 187.69 571.88 189 571.63 189.88L569.31 190.37C569.81 189.18 569.89 187.76 569.55 186.13C569.46 185.68 569.31 185.24 569.12 184.81C568.93 184.38 568.69 184.01 568.41 183.7C568.12 183.39 567.79 183.16 567.41 183.01C567.03 182.86 566.59 182.83 566.11 182.94C565.66 183.03 565.29 183.2 564.99 183.44C564.7 183.68 564.45 183.99 564.25 184.37C564.05 184.75 563.87 185.21 563.71 185.73C563.55 186.25 563.39 186.86 563.22 187.54C563.04 188.24 562.84 188.9 562.61 189.54C562.38 190.18 562.11 190.75 561.78 191.27C561.45 191.78 561.06 192.22 560.6 192.58C560.14 192.94 559.59 193.18 558.93 193.32C558.06 193.5 557.29 193.49 556.61 193.27C555.94 193.06 555.35 192.7 554.85 192.2C554.35 191.7 553.94 191.09 553.61 190.37C553.28 189.65 553.03 188.87 552.86 188.04C552.8 187.76 552.75 187.41 552.71 186.99C552.67 186.57 552.65 186.14 552.64 185.69C552.64 185.25 552.66 184.82 552.71 184.41C552.75 184.01 552.83 183.68 552.94 183.42Z" fill="#B2B2B2"/>
<defs>
<linearGradient id="paint0_linear" x1="386.323" y1="122.499" x2="386.323" y2="70.5" gradientUnits="userSpaceOnUse">
<stop stop-color="#9E83E3"/>
<stop offset="0.8081" stop-color="#B8A5F9"/>
</linearGradient>
</defs>
</svg>
