<svg xmlns="http://www.w3.org/2000/svg" viewBox="0 0 636 300"><defs><style>.a{fill:#b2b2b2}.b{fill:#bb9167}.c{fill:#a07657}.d{fill:#939393}.e{fill:none;stroke:#939393;stroke-miterlimit:10}.f{fill:#ce9c5f}.g{fill:#bc874d}.h{fill:#737373}.i{fill:#2139b5}.j{fill:#002050}.k{fill:#001129}.l{fill:#282828}.m{fill:#004880}.n{fill:#9c2801}.o{fill:#e24f01}.p{fill:#ddb694}.q{fill:#080001}.r{fill:#a0722a}.s{fill:#a80000}.t{fill:#e5ad70}.u{fill:#c8c8c8}.v{fill:#666}.w{fill:#5c2d91}.x{fill:#8867c8}.y{fill:#f3f3f3}.z{fill:#008c74}.aa{fill:#871a1a}.ab{fill:#bd895e}.ac{fill:#fff}.ad{fill:#32145a}.ae{fill:#8e562e}.af{fill:#a56b44}.ag{fill:#7c4622}</style></defs><title>swimlane-feedback-survey</title><path class="a" d="M215.54 273.021h-100a4.112 4.112 0 0 1-4.022-4 4.022 4.022 0 0 1 4.022-4h100a3.94 3.94 0 0 1 4.022 4 4.022 4.022 0 0 1-4.022 4zM520.46 273.021h-84.841a4.112 4.112 0 0 1-4.022-4 4.022 4.022 0 0 1 4.022-4h84.841a3.94 3.94 0 0 1 4.022 4 4.022 4.022 0 0 1-4.022 4z"/><path class="b" d="M473.495 196.967l-.427-18.109-12.983-2.2v20.769h.029q-.029.308-.029.615l9.328 57.816c.583 2.141 7.579 1.071 8.162-.535.001-.003.001-.003-4.08-58.356z"/><path class="b" d="M494.5 196.771l-.49-14.75h-12.93v14.146a4.448 4.448 0 0 0-.064.713l-3.5 58.352c0 1.606 7.579 2.677 7.579.535l9.328-57.816a4.608 4.608 0 0 0 .059-1.181z"/><path class="c" d="M460.112 197.021h13.419l-.036-.516-.427-18.109-12.983-2.2v20.769h.029a.6.6 0 0 1-.002.056zM494.167 197.021a4.557 4.557 0 0 0 0-.611h.015l-.478-14.39h-12.619v13.8a4.339 4.339 0 0 0-.062.7l-.03.5z"/><path class="d" d="M467.305 81.021h22.751l-9.61 54.33-13.141-54.33z"/><path class="e" d="M216.085 50.521h213"/><path class="f" d="M183.119 73.838c1.029-6 1.624-13.57 1.624-13.57l-14.724-1.208c-.546 6-1.624 13.334-1.624 13.334-.245 2.889 1.445 6.024 6.987 6.5 5.305.486 7.493-2.404 7.737-5.056z"/><path class="g" d="M183.736 69.724c.646-4.865 1.008-9.457 1.008-9.457l-14.724-1.208a203.026 203.026 0 0 1-.638 5.907c4.88 5.068 9.086 5.882 14.354 4.758z"/><path class="f" d="M132.686 135.372c-.482 7.011.482 9.182 3.371 14.724 1.951 3.134 3.64 3.616 3.64 1.69.718 3.608 4.579 4.84 4.1 2.163.482.963 1.926 2.171 3.134 1.445.963-.718-.245-2.408-.726-3.126 1.208 0 2.408-1.208.963-3.616a7.507 7.507 0 0 1-1.208-3.616c2.171 1.681 3.861 1.681 4.342.237-1.926-1.926-3.616-5.8-5.787-8.693l-1.445-1.445-1.69-15.687-10.137 5.787zM216.622 60.734c3.652-4.042 1.272-11.813.246-17.706-.9-3.485-3.783-4.726-3.352-3.075-.856-3.281-3.686-4.686-4-2.011a1.473 1.473 0 0 0-2.021-1.34c-1.136.4-1.05 1.625-.714 2.422-1.137-.455-2.751.231-1.867 2.836.617 2.14 11.708 18.874 11.708 18.874z"/><path class="f" d="M232.3 86.105c-3.486-9.293-16.384-35.728-16.384-35.728l-6.824 2.466s5.561 19.389 8.282 28.389l-19.737-3.751-3.189 16.246s22.966 3.74 30.474 3.747c5.556.005 10.054-4.231 7.378-11.369zM150.055 157.344c1.69-1.951 4.1 1.69 5.069 2.408 2.163 1.208 3.852.482 4.1-.718-2.171-1.445-4.587-4.84-7.232-7.011z"/><path class="h" d="M216.085 29.021h-.244l.244.245v-.245z"/><path class="i" d="M193.477 151.06a11.531 11.531 0 0 1-11.81 11.109c-6.285 0-9.419-5.3-9.419-11.835.245-6.26 3.616-11.345 9.909-11.1a11.734 11.734 0 0 1 11.32 11.826z"/><path class="j" d="M190.343 200.04l-19.295-.482 1.2-49.225 21.229.727-3.134 48.98z"/><path class="j" d="M150.085 175.064c0-1.69 8.431-4.84 19.058-4.84 10.358 0 18.814 3.151 18.814 4.84l3.861-34.044h-41.733z"/><path class="j" d="M146.929 150.814a11.443 11.443 0 0 0 10.839 12.317c6.293.237 13.516-4.579 14-10.864.482-6.268-6.26-11.835-12.79-12.072a11.342 11.342 0 0 0-12.049 10.619z"/><path class="j" d="M145.958 200.04l19.066 1.233 6.742-49.006-24.837-1.453-.971 49.226z"/><path class="k" d="M160.2 261.842l-12.071-.723.726-13.518 11.109.725.236 13.516z"/><path class="l" d="M160.324 268.021h-10.166l-.472-1.415a86.469 86.469 0 0 1-13.948 1.652c-2.829 0-6.842-.237-8.728-1.181-.24 0-.711-.707-.711-1.18.472-4.248 16.777-5.9 21.029-10.876h.232c1.183 1.18 2.6 3.3 5.2 3.3 2.358 0 5.187-2.124 6.386-3.068 1.178 1.184 1.418 12.532 1.178 12.768z"/><path class="j" d="M165.024 201.273a9.692 9.692 0 0 0-9.182-10.145 9.471 9.471 0 0 0-9.884 9.158 9.547 9.547 0 1 0 19.066.987z"/><path class="j" d="M165.024 201.273l-19.066-.989-1.927 57.44 17.377 2.189 3.616-58.64z"/><path class="k" d="M171.284 260.395l12.072.241.482-13.272-11.346-.482-1.208 13.513z"/><path class="l" d="M170.321 268.812l10.366.242.5-1.446a88.07 88.07 0 0 0 14.226 1.928c2.645 0 6.742 0 8.693-.964a1.626 1.626 0 0 0 .963-1.445c-.237-4.1-17.132-6.025-21.23-11.107h-.482c-1.2.964-2.408 3.133-5.322 3.133-2.408 0-5.06-2.41-6.268-3.374-1.446 1.205-1.682 12.794-1.446 13.033z"/><path class="j" d="M171.048 199.8a9.675 9.675 0 0 1 9.9-9.4 9.472 9.472 0 0 1 9.158 9.884 9.129 9.129 0 0 1-9.664 9.174 9.621 9.621 0 0 1-9.394-9.658z"/><path class="j" d="M171.048 199.803l19.058.481-2.408 57.44-17.613.723.963-58.644z"/><path class="k" d="M147.085 158.797l21.791 1.942 2.9-12.363-.721 12.363 22.03 2.171v1.449l-21.792-.721-1.688-2.899-1.212 2.899-21.308 1.205v-6.046z"/><path class="m" d="M174.419 129.1c0 .49-.718.971-1.2.971a1.092 1.092 0 1 1 .237-2.171 1.589 1.589 0 0 1 .963 1.2zM173.219 143.109c-.245.718-.726 1.2-1.208.963a1.036 1.036 0 0 1-.963-.963c0-.726.482-.971 1.2-.971a1.044 1.044 0 0 1 .971.971z"/><path class="n" d="M192.514 162.887l-46.85-3.709 4.9-61.187-7.036 2.447-7.954-16.214s16.826-9.178 20.8-11.014 10.387-2 10.387-2 4.42 6.295 9.009 6.295 9.118-5.753 9.118-5.753 9.1 1.1 12.933 2.809S213.324 80 213.324 80l-.966 18.912-13.458-1.534z"/><path class="o" d="M183.609 71.41a8.406 8.406 0 0 1-7.3 4.269 8.891 8.891 0 0 1-7.815-4.91l-4.45.543a13.131 13.131 0 0 0 12.265 8.371 12.449 12.449 0 0 0 11.454-7.575zM209.091 98.775l2.388-19.539 4.233 1.628-1.954 18.344-4.667-.433z"/><path class="f" d="M132.46 133.833c-.757-4.776-5.21-31.369-5.97-36.253s-.068-8.374 4.45-10.746c4.342-2.279 7.489-3.69 7.489-3.69l6.078 15.3-4.125 1.737 2.822 39.184s-9.333 3.369-10.744-5.532z"/><path class="o" d="M139.407 82.058l7.706 17.15-4.233 1.628-7.815-16.607 4.342-2.171z"/><path class="p" d="M168.61 51.25c.168.171.336.171.336.335a8.2 8.2 0 0 0-1.861-4.207v-.841l1 .165v4.383c-.16-.001.358-.001.525.165zM180.934 62.176a7.75 7.75 0 0 1-5.4-1.848c1.175-2.012 3.2-3.877 5.4-3.877 2.364 0 4.393 1.865 5.568 3.877a7.9 7.9 0 0 1-5.568 1.848z"/><path class="f" d="M168.918 43l-1.018-.34c-.671 0-1.679 0-1.846.841a18.857 18.857 0 0 0 .335 7.066c-.168 1.188-.335 2.865 1.343 3.2l1.356.171zM193.253 43.166l1.021-.171c.84 0 1.846 0 1.846.841a19.232 19.232 0 0 1-.335 7.078c.168 1.177.335 2.854-1.511 3.189l-1.189.171z"/><path class="f" d="M194.085 37.913v15.48a13.242 13.242 0 0 1-7.3 12.285 14.61 14.61 0 0 1-5.948 1.342h-.843a13.068 13.068 0 0 1-5.091-1.006 13.421 13.421 0 0 1-7.819-12.62V37.915l24.116-6.731 1.688 2.865z"/><path class="q" d="M176.206 45.36a.934.934 0 0 1-1.86.17.934.934 0 0 1 1.86-.17zM185.662 45.36a1.028 1.028 0 0 0 2.029.336c0-.671-.335-1.006-1.021-1.171a.94.94 0 0 0-1.008.835z"/><path class="r" d="M180.5 26.979c-6.961 0-13.247 3.695-13.416 10.762v12.28h2v-9.75c7.384 2.683 24-17 24-2.53V50.02h1V37.741c.001-8.073-6.453-10.762-13.584-10.762zM180.934 60.664a7.75 7.75 0 0 1-5.4-1.848c1.175-2.012 3.2-3.871 5.4-3.871 2.364 0 4.393 1.859 5.568 3.871a7.9 7.9 0 0 1-5.568 1.848z"/><path class="r" d="M193.085 45.315v.346c0 4.544-1.4 8.75-4.92 11.193a10.917 10.917 0 0 0-7.9-3.668 11.09 11.09 0 0 0-8.08 3.858c-3.523-2.461-5.1-6.839-5.1-11.383v-.636l1 .171v8.743c-.5 7.4 12.346 14.082 12.346 14.082h.748c7.44-.171 12.906-6.225 12.906-13.792v-8.743z"/><path class="s" d="M180.934 59.322a13.821 13.821 0 0 1-3.385-.506c-.168 0-.336-.335-.336-.5 0-.335.336-.506.518-.335a13.861 13.861 0 0 0 6.406 0c.336-.171.686 0 .686.335 0 .165-.168.5-.35.5a13.863 13.863 0 0 1-3.539.506z"/><path class="r" d="M170.625 44.342s.181 0 .35-.335c.168-.171.335-.341.671-.676a14.76 14.76 0 0 0 1.343-.836c.182 0 1.1-.171 1.1-.171v-.3h1.091a6.37 6.37 0 0 1 1.832.363 14.109 14.109 0 0 1 1.469.541 2.833 2.833 0 0 1 1.272.911c.182 0 .182.185 0 .185h-.844s-.5-.185-1.174-.355c-.853-.165-3.05-.645-3.05-.645h-.335s-.336.145-.336.31a.992.992 0 0 0-.671.171c-.517.165-.853.335-1.357.506a2.9 2.9 0 0 1-.839.335c-.168.182-.336.182-.336-.322h-.181c-.005.5-.005.5-.005.318zM192.085 44.689a4.761 4.761 0 0 1-1.358-.165 3.149 3.149 0 0 0-.84-.517c-.5-.171-.853-.506-1.356-.676-.168 0-.336-.165-.671-.165l-.336-.146h-.273a13.974 13.974 0 0 0-2.732.333 6.788 6.788 0 0 1-1.274.17c-.159.164-.159 0-.159 0v-.17a2.684 2.684 0 0 1 1.274-.666 11 11 0 0 1 1.287-.5 5.133 5.133 0 0 1 1.6-.17h.8l.159.17a1.177 1.177 0 0 1 .8.333c.491.333.809.666 1.128.83.319.333.636.671.8.835a.651.651 0 0 0 .159.35v.483h1z"/><path class="t" d="M177.532 51.021h3.553V43.1c-.335 0-1.189 0-1.189 1.359a9.721 9.721 0 0 1-1.846 5.367 1.587 1.587 0 0 0-.518 1.195z"/><path class="g" d="M184.474 51.021c0 .335-.336.5-.671.671-.84.335-1.343.335-1.693.671a1.809 1.809 0 0 1-1.175.5 1.875 1.875 0 0 1-1.189-.5c-.336-.335-.84-.335-1.679-.671-.335-.171-.686-.335-.686-.671z"/><path class="d" d="M196.085 41.021h26v15h-26z"/><path class="u" d="M196.085 41.021h26v7h-26z"/><path class="v" d="M195.585 57.877a.5.5 0 0 1-.5-.5V40.066a.5.5 0 0 1 1 0v17.312a.5.5 0 0 1-.5.499zM221.585 57.877a.5.5 0 0 1-.5-.5V40.066a.5.5 0 0 1 1 0v17.312a.5.5 0 0 1-.5.499z"/><path class="f" d="M217.152 56.988c-1.774 1.635-8.492-3.944-9.354-4.59-2.2-1.378-4.615-1.06-4.829.121 2.111 1.852 4.748 5.394 8.622 7.272z"/><path class="b" d="M512.745 156.379c.436 6.375-.8 8.8-2.994 14.1-1.475 3.141-3.015 3.917-3.32 2.273-.689 3.345-3.768 4.9-3.32 2.273a2.726 2.726 0 0 1-3.08 1.552c-.546-.924.448-2.624.689-3.345-1.027.517-2.359-.61-1.124-3.03a4.907 4.907 0 0 0 1.2-3.6c-1.78 1.5-3.08 1.552-3.626.628 1.234-2.421 2.95-6.283 4.7-8.962.513-.259.754-.979 1.267-1.238l2.447-15.03 7.928 4.4zM429.753 71.135c-1.085-6.653-.323-9.164 1.649-14.481 1.315-3.544 2.553-3.69 3.133-2.063.077-3.4 3.105-4.723 3.133-2.062.553-1.033 1.553-2.361 2.686-1.768a2.666 2.666 0 0 1-.419 2.955c.79.149 2.266 1.187 1.5 3.7a5.394 5.394 0 0 0-.867 3.25c1.448-1.623 3.028-1.324 3.714-.435-1.553 2.361-2.525 6.35-4.077 8.711a3.722 3.722 0 0 1-1.448 1.623l-.516 15.075-8.275-4.6z"/><path class="w" d="M479.921 265.406c-2.5 2.307-1.874 2.307-3.123 4.615h-5c0-1.384-.625-2.769-4.373-1.846 0 0-2.055-1.246 5.362-3.5s7.134.731 7.134.731z"/><path class="w" d="M487.417 268.174c-3.748-.923-4.373.462-3.748 1.846h-5.622c-.625-2.307-1.049-3.217-3.123-4.615 0 0-2.676-1.935 5.366-.894s7.127 3.663 7.127 3.663z"/><path class="x" d="M480.085 156.021h22v37h-22zM458.085 156.021h22v37h-22z"/><path class="y" d="M428.672 68.829l11.387 1.213-.166 3.069-11.387-1.214.166-3.068zM515.316 149.592l-12.022-2.439-.9 2.961 12.266 3.122.656-3.644z"/><path class="z" d="M504.136 138.021c3.569 0 5.949 2.4 5.949 4.807v2.884a14.045 14.045 0 0 1-10.114 3.846c-8.329 0-14.873-5.288-14.873-11.537z"/><path class="d" d="M425.085 44.021h26v15h-26z"/><path class="u" d="M425.085 44.021h26v7h-26z"/><path class="v" d="M425.585 60.216a.5.5 0 0 1-.5-.5V42.405a.5.5 0 0 1 1 0v17.312a.5.5 0 0 1-.5.499zM451.585 60.216a.5.5 0 0 1-.5-.5V42.405a.5.5 0 0 1 1 0v17.312a.5.5 0 0 1-.5.499z"/><path class="b" d="M444.032 60.806a67.363 67.363 0 0 1 3.758-7.824 1.868 1.868 0 0 0-3.25-.5c-2.116 1.986-5.111 7.588-5.111 7.588s3.813 2.83 4.603.736z"/><path class="aa" d="M469.995 44.361c2.218 2.553 9.529 15.439 9.529 15.439a45.667 45.667 0 0 1-.052 9.054l12.249 1.692c3.146-3.359 6.036-8.308 7.736-15.623 4.433-19.081-10.918-25.927-16.1-27.132-7.259-1.686-14.78 1.047-15.937 6.025s-.875 6.574 2.575 10.545z"/><path class="b" d="M469.133 55.415l15.8-1.216 1.679 20.822v-.3c.258 3.349-3.066 7.336-7.43 7.671s-8.117-3.107-8.1-6.456v.085h-.273z"/><path class="c" d="M470.487 71.445l-1.519-19.035 15.8-1.216.893 10.888c-1.496 4.735-6.98 8.777-15.174 9.363z"/><path class="b" d="M468.978 36.036a57.133 57.133 0 0 0-3.172 8.4 10.1 10.1 0 0 1-4.453 5.134c-1.7.84-.226 1.915.707 2.132s1.148.7.859 1.948l-1.566 6.741c-.458 1.97-.226 4.278 3.819 5.217 5.289 1.229 12.016 1.176 15.97-1.731a9.785 9.785 0 0 0 4.1-6.954s3.386.291 4.188-4c.9-4.819-4.875-5.833-7.774-4.648-3.556-1.157-11.466-6.164-12.678-12.239z"/><circle cx="469.7" cy="47.888" r="1.171"/><path class="c" d="M467.857 38.508a.131.131 0 0 1-.006-.021c.7-1.47 1.127-2.451 1.127-2.451 1.212 6.075 9.121 11.082 12.678 12.236-2.467.739-10.956-1.779-13.799-9.764z"/><path class="aa" d="M485.241 56.92c-.433 6.446-5.2 12.012-5.2 12.012l11.023 1.522 1.036-11.74z"/><path class="ab" d="M468.348 56.833a10.4 10.4 0 0 1-6.289.515l-.277 1.194a2.62 2.62 0 0 0 1.579.5 6.641 6.641 0 0 0 4.987-2.209z"/><path class="ac" d="M469.28 57.616a16.152 16.152 0 0 1-6.825-1.975l-.429 1.847c.03.011.051.022.083.034a13.263 13.263 0 0 0 7.171.094z"/><path class="w" d="M470.522 77.021h-10.557c-4.042 0-5.564 1.289-10.073 4.656-5.466 4.082-11.325 9.21-11.325 9.21l1.258-18.864-12.2-1.132s-2.4 25.206-2.772 30.776 5.082 11.31 11.809 7.662l17.068-9.253 6.547 25.03-4.714 31.915h28.779z"/><path class="w" d="M486.948 77.021h11.083c4.169 0 9.012 1.177 11.616 8.738l10.153 29.474c.534 1.551 1.155 3.179.478 7.2S515.5 150.71 515.5 150.71l-12.2-1.855 3.1-28.213-4.217-8.323-2.139 12.781 6.288 31.916H477.79z"/><path class="ad" d="M486.78 77.021h4.141l4.375 4.526-2.953 4.159 2.953 3.222-14.887 45.873 6.371-57.78zM470.925 77.021h-4.947l-3.569 4.526 2.953 4.159-2.953 3.222 18 45.873-9.484-57.78z"/><path class="ac" d="M468.968 78.389l1.516-4.956 9.873 9.938-6.706 5.619-4.683-10.601z"/><path class="ac" d="M487.534 78.275l-1.281-5.164-7.582 10.26 6.781 5.619 2.082-10.715z"/><path class="ae" d="M505.22 136.021a4.853 4.853 0 0 1 4.865 4.881v22.237a4.853 4.853 0 0 1-4.865 4.881h-15.135v-32z"/><path class="af" d="M505.085 136.019a4.846 4.846 0 0 1 5 4.72v3.147a12.115 12.115 0 0 1-8.334 3.671c-6.667 0-12.222-5.244-12.222-11.537h15.556z"/><path class="ae" d="M462.134 77.021l27.782 73.963-2.644-.123-27.863-73.84h2.725z"/><path class="ag" d="M490.085 135.689a4.945 4.945 0 0 1 5 4.931v22.462a5 5 0 0 1-10 0V140.62a4.946 4.946 0 0 1 5-4.931z"/><ellipse class="b" cx="503.658" cy="146.083" rx="1.249" ry="1.154"/><path class="w" d="M479.348 258.483l.573 5.244c0 1.049-.573 1.573-2.867 2.1l-12.616 3.147a36.829 36.829 0 0 1-8.028 1.049h-7.455c-4.014 0-2.294-2.1-1.72-2.1 2.867-1.049 9.749-2.622 14.91-5.244 4.587-2.1 17.203-4.196 17.203-4.196z"/><path class="b" d="M478.047 253.382c0 1.648 1.249 3.3 1.874 4.395 0 1.648-21.238 6.593-21.238 6.593-1.851.322-2.929.413-1.81-.136 4.583-2.25 13.053-7.556 13.053-9.753z"/><path class="w" d="M476.071 258.483l-1.147 5.244c0 1.049 1.147 1.573 2.867 2.1l12.616 3.147a48.221 48.221 0 0 0 8.6 1.049h6.882c4.014 0 2.867-2.1 1.72-2.1-2.867-1.049-9.175-2.622-14.91-5.244-4.585-2.1-16.628-4.196-16.628-4.196z"/><path class="b" d="M476.8 253.382c0 1.648-1.249 3.3-1.249 4.395-.625 1.648 21.238 6.593 21.238 6.593 1.086.259 2.544.663 1.92.114-5-2.2-13.788-7.806-13.788-10z"/></svg>