<svg xmlns="http://www.w3.org/2000/svg" viewBox="0 0 636 300"><title>swimlane-docker-three-platforms</title><path d="M581.344,177H92.438c-11.42,0-21.35,8.481-22.447,19.849A22.093,22.093,0,0,0,92.087,221h13.037c5.226,0,5.226,8,0,8H50.134c-8.569,0-16.923,6.886-18.117,15.371A18,18,0,0,0,49.831,265H429.64c8.569,0,16.923-6.886,18.117-15.371A18,18,0,0,0,429.943,229H399.024c-5.547,0-7.574-8-.214-8H581.687a22.1,22.1,0,0,0,22.122-23.874C602.851,185.642,592.868,177,581.344,177Z" fill="#b5d5ea"/><path d="M97.737,184c25,8,51.5,12,197,12,36.75,0-87-24.25-87-24.25Z" fill="#505050"/><path d="M257.737,87V76h13V68h-37v83h55V87Z" fill="#ccc"/><path d="M233.737,57h-40V87h40Z" fill="#505050"/><path d="M233.737,57h-14V90h14Z" fill="#737373"/><path d="M451.587,210H169.306a3.169,3.169,0,0,1-3.163-2.43,3.041,3.041,0,0,1,3.044-3.57H451.468a3.166,3.166,0,0,1,3.163,2.43,3.041,3.041,0,0,1-3.044,3.57Z" fill="#7cb9e6"/><path d="M275.722,224h-69.68a3.138,3.138,0,0,1-3.137-2.43,3.012,3.012,0,0,1,2.946-3.57h69.681a3.136,3.136,0,0,1,3.137,2.43,3.012,3.012,0,0,1-2.947,3.57Z" fill="#fff"/><path d="M342.024,224H320.537a3.136,3.136,0,0,1-3.136-2.43,3.011,3.011,0,0,1,2.946-3.57h21.385a3.143,3.143,0,0,1,3.141,2.43,3,3,0,0,1-2.849,3.57Z" fill="#fff"/><path d="M453.737,110h-29v40h29Z" fill="#c78e00"/><path d="M534.737,110h-81v40h81Z" fill="#ffb900"/><path d="M366.737,110h-29v40h29Z" fill="#d63c18"/><path d="M446.737,110h-80v40h80Z" fill="#e06c47"/><path d="M279.737,110h-29v40h29Z" fill="#409ae1"/><path d="M359.737,110h-80v40h80Z" fill="#69afe5"/><path d="M414.737,70h-29v40h29Z" fill="#505050"/><path d="M494.737,70h-80v40h80Z" fill="#737373"/><path d="M327.737,70h-29v40h29Z" fill="#c78e00"/><path d="M407.737,70h-80v40h80Z" fill="#ffb900"/><path d="M219.737,150h-122v34h122Z" fill="#737373"/><path d="M261.737,150V128h-26V87h-88v41h-18v22h90v34s41,12,78,12H472.224a96.284,96.284,0,0,0,80.3-43.371L554.237,150Z" fill="#939393"/><path d="M135.737,156h-19v6h19Z" fill="#939393"/><path d="M165.737,156h-19v6h19Z" fill="#939393"/><path d="M195.737,156h-19v6h19Z" fill="#939393"/><path d="M163.737,96h-6v6h6Z" fill="#fff"/><path d="M225.737,96h-6v6h6Z" fill="#fff"/><path d="M209.737,96h-6v6h6Z" fill="#fff"/><path d="M194.737,96h-6v6h6Z" fill="#fff"/><path d="M178.737,96h-6v6h6Z" fill="#fff"/><path d="M163.737,107h-6v6h6Z" fill="#fff"/><path d="M225.737,107h-6v6h6Z" fill="#fff"/><path d="M209.737,107h-6v6h6Z" fill="#fff"/><path d="M194.737,107h-6v6h6Z" fill="#fff"/><path d="M178.737,107h-6v6h6Z" fill="#fff"/><path d="M163.737,118h-6v6h6Z" fill="#fff"/><path d="M225.737,118h-6v6h6Z" fill="#fff"/><path d="M209.737,118h-6v6h6Z" fill="#fff"/><path d="M194.737,118h-6v6h6Z" fill="#fff"/><path d="M178.737,118h-6v6h6Z" fill="#fff"/><path d="M335.737,76h-2v30h2Z" fill="#e0a100"/><path d="M343.737,76h-2v30h2Z" fill="#e0a100"/><path d="M350.737,76h-2v30h2Z" fill="#e0a100"/><path d="M358.737,76h-2v30h2Z" fill="#e0a100"/><path d="M365.737,76h-2v30h2Z" fill="#e0a100"/><path d="M372.737,76h-2v30h2Z" fill="#e0a100"/><path d="M380.737,76h-2v30h2Z" fill="#e0a100"/><path d="M387.737,76h-2v30h2Z" fill="#e0a100"/><path d="M395.737,76h-2v30h2Z" fill="#e0a100"/><path d="M402.737,76h-2v30h2Z" fill="#e0a100"/><path d="M287.737,116h-2v30h2Z" fill="#409ae1"/><path d="M295.737,116h-2v30h2Z" fill="#409ae1"/><path d="M302.737,116h-2v30h2Z" fill="#409ae1"/><path d="M310.737,116h-2v30h2Z" fill="#409ae1"/><path d="M317.737,116h-2v30h2Z" fill="#409ae1"/><path d="M324.737,116h-2v30h2Z" fill="#409ae1"/><path d="M332.737,116h-2v30h2Z" fill="#409ae1"/><path d="M339.737,116h-2v30h2Z" fill="#409ae1"/><path d="M347.737,116h-2v30h2Z" fill="#409ae1"/><path d="M354.737,116h-2v30h2Z" fill="#409ae1"/><path d="M375.737,115h-2v30h2Z" fill="#d63c18"/><path d="M383.737,115h-2v30h2Z" fill="#d63c18"/><path d="M390.737,115h-2v30h2Z" fill="#d63c18"/><path d="M398.737,115h-2v30h2Z" fill="#d63c18"/><path d="M405.737,115h-2v30h2Z" fill="#d63c18"/><path d="M412.737,115h-2v30h2Z" fill="#d63c18"/><path d="M420.737,115h-2v30h2Z" fill="#d63c18"/><path d="M427.737,115h-2v30h2Z" fill="#d63c18"/><path d="M435.737,115h-2v30h2Z" fill="#d63c18"/><path d="M442.737,115h-2v30h2Z" fill="#d63c18"/><path d="M423.737,77h-2v29h2Z" fill="#505050"/><path d="M430.737,77h-2v29h2Z" fill="#505050"/><path d="M437.737,77h-2v29h2Z" fill="#505050"/><path d="M445.737,77h-2v29h2Z" fill="#505050"/><path d="M452.737,77h-2v29h2Z" fill="#505050"/><path d="M460.737,77h-2v29h2Z" fill="#505050"/><path d="M467.737,77h-2v29h2Z" fill="#505050"/><path d="M474.737,77h-2v29h2Z" fill="#505050"/><path d="M482.737,77h-2v29h2Z" fill="#505050"/><path d="M489.737,77h-2v29h2Z" fill="#505050"/><path d="M461.737,115h-2v30h2Z" fill="#e0a100"/><path d="M469.737,115h-2v30h2Z" fill="#e0a100"/><path d="M476.737,115h-2v30h2Z" fill="#e0a100"/><path d="M483.737,115h-2v30h2Z" fill="#e0a100"/><path d="M491.737,115h-2v30h2Z" fill="#e0a100"/><path d="M498.737,115h-2v30h2Z" fill="#e0a100"/><path d="M506.737,115h-2v30h2Z" fill="#e0a100"/><path d="M513.737,115h-2v30h2Z" fill="#e0a100"/><path d="M520.737,115h-2v30h2Z" fill="#e0a100"/><path d="M528.737,115h-2v30h2Z" fill="#e0a100"/><rect x="235.737" y="87" width="8" height="41" fill="#737373"/><rect x="252.737" y="128" width="9" height="22" fill="#737373"/><path d="M515.737,156s-34,28-73,28h-223s41,12,78,12H477.224A96.263,96.263,0,0,0,554.3,157.221Z" fill="#737373"/><path d="M553.171,158.67c1.519-1.959,2.986-3.962,4.353-6.041L559.237,150h-339.5v8.67Z" fill="#b2b2b2"/><path d="M293.987,133a34.036,34.036,0,1,1,24.031-9.969A34,34,0,0,1,293.987,133Z" fill="#737373"/><path d="M401.987,201a34.036,34.036,0,1,1,24.031-9.969A34,34,0,0,1,401.987,201Z" fill="#737373"/><path d="M450.987,88a34.038,34.038,0,1,1,24.031-9.97A34,34,0,0,1,450.987,88Z" fill="#737373"/><path d="M298.987,131a32,32,0,1,0-32-32A32,32,0,0,0,298.987,131Z" fill="#409ae1"/><path d="M298.987,133a34.036,34.036,0,1,1,24.031-9.969A34,34,0,0,1,298.987,133Zm0-64a30.033,30.033,0,1,0,21.2,8.8A30,30,0,0,0,298.987,69Z" fill="#fff"/><path d="M285.737,88.636l11-1.449V98h-11Zm12-1.672V98h15V85.069Zm0,24.183,15,2.007V99h-15Zm-12-1.783,11,1.56V99h-11Z" fill="#fff"/><path d="M455.987,86a32,32,0,1,0-32-32A32,32,0,0,0,455.987,86Z" fill="#737373"/><path d="M455.987,88a34.038,34.038,0,1,1,24.031-9.97A34,34,0,0,1,455.987,88Zm0-64a30.033,30.033,0,1,0,21.2,8.8A30,30,0,0,0,455.987,24Z" fill="#fff"/><path d="M445.069,58.631h-1.586V54.816a3.1,3.1,0,0,0-.31-1.592,1.147,1.147,0,0,0-1.05-.493,1.262,1.262,0,0,0-1.056.623,2.533,2.533,0,0,0-.434,1.49v3.787H439.04V54.687q0-1.956-1.381-1.956a1.25,1.25,0,0,0-1.057.588,2.6,2.6,0,0,0-.413,1.525v3.787H434.6v-7h1.586v1.107h.028a2.426,2.426,0,0,1,2.208-1.271,2.074,2.074,0,0,1,1.267.4,1.974,1.974,0,0,1,.742,1.049,2.5,2.5,0,0,1,2.325-1.449q2.31,0,2.31,2.85Z" fill="#fff"/><path d="M452.377,58.631h-1.538V57.537h-.028a2.314,2.314,0,0,1-2.126,1.258,2.236,2.236,0,0,1-1.616-.561,1.96,1.96,0,0,1-.585-1.483q0-1.981,2.283-2.311l2.079-.294q0-1.5-1.422-1.5a3.38,3.38,0,0,0-2.256.862V52.123a4.924,4.924,0,0,1,2.556-.656,2.326,2.326,0,0,1,2.653,2.611Zm-1.531-3.439-1.47.2a2.335,2.335,0,0,0-1.029.332.97.97,0,0,0-.345.851.938.938,0,0,0,.317.729,1.239,1.239,0,0,0,.852.283,1.567,1.567,0,0,0,1.2-.51,1.8,1.8,0,0,0,.476-1.281Z" fill="#fff"/><path d="M459.322,58.31a3.913,3.913,0,0,1-1.989.485,3.364,3.364,0,0,1-2.516-.975,3.451,3.451,0,0,1-.957-2.525,3.8,3.8,0,0,1,1.029-2.779,3.676,3.676,0,0,1,2.751-1.049,4.006,4.006,0,0,1,1.689.335v1.476a2.56,2.56,0,0,0-1.559-.547,2.165,2.165,0,0,0-1.647.681,2.483,2.483,0,0,0-.643,1.78,2.368,2.368,0,0,0,.606,1.716,2.146,2.146,0,0,0,1.623.629,2.541,2.541,0,0,0,1.613-.608Z" fill="#fff"/><path d="M465.112,58.8a4.408,4.408,0,0,1-3.394-1.374,5.047,5.047,0,0,1-1.275-3.575,5.348,5.348,0,0,1,1.3-3.774,4.566,4.566,0,0,1,3.527-1.408,4.312,4.312,0,0,1,3.326,1.367,5.064,5.064,0,0,1,1.261,3.575,5.359,5.359,0,0,1-1.292,3.794A4.477,4.477,0,0,1,465.112,58.8Zm.075-8.7a2.725,2.725,0,0,0-2.19,1,3.968,3.968,0,0,0-.845,2.645,4.013,4.013,0,0,0,.821,2.632,2.644,2.644,0,0,0,2.146,1,2.771,2.771,0,0,0,2.222-.95,3.967,3.967,0,0,0,.813-2.659,4.153,4.153,0,0,0-.79-2.714A2.667,2.667,0,0,0,465.187,50.093Z" fill="#fff"/><path d="M471.2,58.241V56.566a2.6,2.6,0,0,0,.536.37,4.307,4.307,0,0,0,.66.277,5.393,5.393,0,0,0,.7.174,3.7,3.7,0,0,0,.642.061,2.735,2.735,0,0,0,1.527-.342,1.121,1.121,0,0,0,.5-.991,1.082,1.082,0,0,0-.167-.605,1.791,1.791,0,0,0-.468-.468,5.042,5.042,0,0,0-.707-.407q-.408-.193-.872-.406-.5-.267-.93-.541a4.029,4.029,0,0,1-.749-.6,2.545,2.545,0,0,1-.5-.749,2.435,2.435,0,0,1-.182-.978,2.256,2.256,0,0,1,.311-1.2,2.647,2.647,0,0,1,.82-.842,3.824,3.824,0,0,1,1.159-.492,5.557,5.557,0,0,1,1.326-.16,5.346,5.346,0,0,1,2.243.349v1.606a3.583,3.583,0,0,0-2.147-.6,3.836,3.836,0,0,0-.722.068,2.159,2.159,0,0,0-.642.226,1.377,1.377,0,0,0-.461.4.991.991,0,0,0-.178.595,1.125,1.125,0,0,0,.137.567,1.446,1.446,0,0,0,.4.437,4.084,4.084,0,0,0,.643.387q.378.188.878.406.513.267.968.561a4.541,4.541,0,0,1,.8.649,2.835,2.835,0,0,1,.547.79,2.311,2.311,0,0,1,.2.988,2.316,2.316,0,0,1-1.11,2.092,3.617,3.617,0,0,1-1.173.464,6.588,6.588,0,0,1-1.4.144c-.164,0-.365-.013-.606-.037s-.483-.063-.734-.11a6.912,6.912,0,0,1-.711-.174A2.251,2.251,0,0,1,471.2,58.241Z" fill="#fff"/><path d="M406.987,199a32,32,0,1,0-32-32A32,32,0,0,0,406.987,199Z" fill="#d63c18"/><path d="M406.987,201a34.036,34.036,0,1,1,24.031-9.969A34,34,0,0,1,406.987,201Zm0-64a30.035,30.035,0,1,0,21.2,8.8A30,30,0,0,0,406.987,137Z" fill="#fff"/><path d="M414.6,174.519a1.661,1.661,0,0,0-.1-1.1,3.521,3.521,0,0,1,3.2.4,2.97,2.97,0,0,1-1.9,1.7C415.1,175.619,414.5,175.219,414.6,174.519Zm6.1,3.2c-1-.8-1.7-1.2-1.7-2.4s-.6-1.5-1.1-.7a2.616,2.616,0,0,1-2.7,1.4,1.19,1.19,0,0,1-1.1-1.3c.1-.6-.2-.9-.7-.9-.7,0-1.2,0-1.2,1.2a26.559,26.559,0,0,1-.3,5.3c-.4,2.5.1,3.5,1.7,3.7,1.8.2,2.6-1.1,4.2-2.1,1.3-.8,2.7-1.7,3.4-2.1S422,178.619,420.7,177.719Zm-12.3,2.7a7.676,7.676,0,0,1-3.8.3l.1,1.7s2-.1,3.2-.1,3,.1,3,.1l.5-3.9A8.647,8.647,0,0,1,408.4,180.419Zm-8.3-6.3s2.2,3.4,2.7,4c.8,1,1.7-.3.4-1.4A37.51,37.51,0,0,0,400.1,174.119Zm-.5.3c-.9-1.1-1.5-2.1-2.8-.4s-1.6,1.5-3.1,2c-.8.3-.7.7-.6,1.3a15.2,15.2,0,0,1-.1,2.9c-.1,1.3.5,1.6,1.4,1.8a26.845,26.845,0,0,1,5.4,1.5,2.9,2.9,0,0,0,3.6-.4,2.27,2.27,0,0,0,.2-3C402.9,179.219,400.5,175.619,399.6,174.419Zm9.5-17.5c.1-.1,0-.3-.1-.4-.029-.029-.059-.057-.088-.081a.962.962,0,0,1,.184.483Zm-4.061,0c.1-.1.1-.2,0-.4-.1-.1-.2-.2-.3-.2v.1a1.216,1.216,0,0,1,.175.492C404.954,156.944,405,156.961,405.037,156.919Zm-7.7,16.281a6.664,6.664,0,0,1,.5-3.1,30.3,30.3,0,0,1,4-6.7c1.5-1.8,1.2-3.7,1-5.9s-.8-7,4-7.3c5.1-.3,6,3.6,6.2,5.9s0,4.1,2.4,7.2,4.7,7.5,3.6,10.1c-.1.3-.6.3-.8.3a3.1,3.1,0,0,0-2.3-.7c1.2-2.7.8-5.4-1.5-6.6-.1-.1-.3-.2,0,0,.8.6,3.1,2.9,1.1,6.6a2.187,2.187,0,0,0-.8.3v.1a.993.993,0,0,0-.4-.1,12.748,12.748,0,0,0-1-6.5c-1.5-3.6-2.4-5.4-2.5-5.7s-.2-.5.1-1.4a1.223,1.223,0,0,0-.5-1.4,4.36,4.36,0,0,0,.3-1.8,1.855,1.855,0,0,0-1.8-1.8,1.687,1.687,0,0,0-1.5,1c-.3.4-.1,1.3-.1,1.3h-1.4s.4-.6-.3-1.5-1.7-.8-2,.5a3.232,3.232,0,0,0-.061,1.074.685.685,0,0,1,1.161-.158v.3c.058.058.117.145.175.192a3.885,3.885,0,0,1,.025.908,2.963,2.963,0,0,1,1.1-.4,3.813,3.813,0,0,1,1.7.4v-1a.759.759,0,0,1,1.2-.6.928.928,0,0,1,.223.219c-.071-.059-.141-.09-.212-.019-.1,0,0,.2.1.4.1.1.2.2.3.1a1.245,1.245,0,0,1-.707,1.2c.1.1.3.1.5.2a1.6,1.6,0,0,1,.918.8,1.122,1.122,0,0,0-.607.1c-.9.4-2.5,1.5-3.5,1.4a3.117,3.117,0,0,1-2-.7c-.4-.3-.5,0-.1.3a3.4,3.4,0,0,0,2.1.9c.9.1,2.7-.9,3.6-1.5.4-.267.534-.41.517-.475a2.429,2.429,0,0,1,.172.475c-.1.7-.9,1.2-2.6,2.1-1.522.913-2.736.385-3.849-.854h0a2.9,2.9,0,0,1-.554,1.938c-1.7,2.1.2,2.4.2,2.4a3.483,3.483,0,0,0-1.6,1.1,10.076,10.076,0,0,0-1.8,6.4,1.86,1.86,0,0,0-.4-.3c-.7-2.1.4-4.4,1-5.8.1-.4,0-.3-.2,0-.5.7-2,3.7-1.3,5.6a1.261,1.261,0,0,0-.6-.1A1.9,1.9,0,0,0,397.337,173.2Zm9.161-15.381c0,.1.1.2.3.2.2.1.4.1.4,0a1.256,1.256,0,0,0-.3-.2C406.7,157.719,406.5,157.719,406.5,157.819Zm4.8,2.7c.2.9.9,1.1,1.3.7.5-.4-.3-.8-.8-1C411.3,159.919,411.2,160.119,411.3,160.519Zm-2.4-8.3c0,.2.2.6.6.4a.527.527,0,0,0,.236-.145.52.52,0,0,0,.13-.246.524.524,0,0,0-.166-.509C409.4,151.419,408.9,151.719,408.9,152.219Zm-6.011,6.984a1.441,1.441,0,0,0,.044.268,2,2,0,0,1,.356-.552,4.359,4.359,0,0,1,.7-.6,2.363,2.363,0,0,1-.391-.45,1.738,1.738,0,0,0-.709,1.334Z" fill="#fff"/></svg>