<svg width="636" height="300" viewBox="0 0 636 300" fill="none" xmlns="http://www.w3.org/2000/svg">
<path d="M99.6908 245.95H383.641C385.151 245.95 386.571 246.94 386.861 248.41C387.231 250.3 385.591 251.95 383.531 251.95H99.9208C98.4108 251.95 96.9908 250.96 96.7008 249.49C96.3308 247.6 97.9708 245.95 100.031 245.95" fill="#C8C8C8"/>
<path d="M169.239 240.18H550.189C551.699 240.18 553.119 241.17 553.409 242.64C553.779 244.53 552.139 246.18 550.079 246.18H169.479C167.969 246.18 166.549 245.19 166.259 243.72C165.889 241.83 167.529 240.18 169.589 240.18" fill="#C8C8C8"/>
<path d="M544.919 69.8501H254.27V241.74H544.919V69.8501Z" fill="#737373"/>
<path d="M528.77 150.3H500.26C497.55 150.3 495.34 148.09 495.34 145.38V113.34H500.65V144.98H528.37V112.01H533.68V145.38C533.69 148.09 531.48 150.3 528.77 150.3Z" fill="#939393"/>
<path d="M482.66 69.8501H237.18V241.74H482.66V69.8501Z" fill="#A80000"/>
<path d="M482.66 69.8501H237.18V241.74H482.66V69.8501Z" fill="#B2B2B2"/>
<path d="M453.17 189.74C436.69 189.74 285.81 189.74 268.73 189.74C251.65 189.74 251.65 178.34 251.65 178.34H470.25C470.25 178.34 469.64 189.74 453.17 189.74Z" fill="#D2D2D2"/>
<path d="M482.661 150.33V70.0801L402.211 69.8501L482.661 150.33Z" fill="url(#paint0_linear)"/>
<path d="M453.17 146.54C436.69 146.54 285.81 146.54 268.73 146.54C251.65 146.54 251.65 135.14 251.65 135.14H470.25C470.25 135.14 469.64 146.54 453.17 146.54Z" fill="#D2D2D2"/>
<path d="M545.19 73.8099V54.9299C545.19 51.6099 542.5 47.9199 539.17 47.9199H260.26C256.94 47.9199 254.24 56.6099 254.24 59.9299V73.8099H545.19Z" fill="#EC6401"/>
<path d="M482.871 73.8099V53.9299C482.871 50.6099 480.181 47.9199 476.851 47.9199H243.151C239.831 47.9199 237.131 50.6099 237.131 53.9299V73.8099H482.871Z" fill="#EC6401"/>
<path d="M318.8 88.9099H296.99C294.51 88.9099 292.51 86.8999 292.51 84.4299V67.8399C292.51 65.3599 294.52 63.3599 296.99 63.3599H318.8C321.28 63.3599 323.28 65.3699 323.28 67.8399V84.4299C323.28 86.9099 321.27 88.9099 318.8 88.9099Z" fill="#737373"/>
<path d="M406.541 73.8099H482.881V53.9299C482.881 50.6099 480.191 47.9199 476.861 47.9199H382.631L406.541 73.8099Z" fill="#F7883C"/>
<path d="M495.66 125.49H533.36C535.01 125.49 536.35 124.15 536.35 122.5V108.17C536.35 106.52 535.01 105.18 533.36 105.18H495.66C494.01 105.18 492.67 106.52 492.67 108.17V122.5C492.67 124.16 494.01 125.49 495.66 125.49Z" fill="#939393"/>
<path d="M422.8 88.9099H400.99C398.51 88.9099 396.51 86.8999 396.51 84.4299V67.8399C396.51 65.3599 398.52 63.3599 400.99 63.3599H422.8C425.28 63.3599 427.28 65.3699 427.28 67.8399V84.4299C427.28 86.9099 425.27 88.9099 422.8 88.9099Z" fill="#737373"/>
<path d="M471.261 223.9H250.471V107.94H471.251V223.9H471.261ZM252.371 221.78H469.351V110.06H252.371V221.78Z" fill="#737373"/>
<path d="M267.14 233.29V230.11L104.52 230.38C103.91 230.38 103.42 230.87 103.43 231.48L103.48 234.46L267.14 233.29Z" fill="#737373"/>
<path d="M261.641 185.71L261.711 230.58L277.211 248.51L281.681 248.5L281.571 183.3L264.001 183.34C262.691 183.35 261.641 184.41 261.641 185.71Z" fill="#737373"/>
<path d="M281.809 248.51L284.049 231.64L104.789 231.91C104.049 231.91 103.439 232.52 103.439 233.26L103.469 247.32C103.469 248.13 104.129 248.78 104.939 248.78L281.809 248.51Z" fill="#8FC6E5"/>
<path d="M284.05 237.77L284.04 231.64L104.75 231.91C104.02 231.91 103.43 232.5 103.43 233.23L103.44 238.04L284.05 237.77Z" fill="#8FC6E5"/>
<path d="M284.053 236.206L103.443 236.555L103.458 244.225L284.068 243.876L284.053 236.206Z" fill="#DAE9F8"/>
<path d="M263.891 185.44L264.061 230.12C264.061 230.52 264.211 230.91 264.471 231.22L279.251 248.52H282.281C283.351 248.52 284.221 247.64 284.221 246.57L283.831 185.22C283.821 184.08 282.901 183.16 281.761 183.16L266.131 183.19C264.891 183.19 263.881 184.2 263.891 185.44Z" fill="#69AFE5"/>
<path d="M270.19 225.57L270.13 186.14H268.28C267.61 186.14 267.07 186.68 267.07 187.35L267.13 227.47C267.13 227.85 267.27 228.21 267.51 228.5L279.92 243C280.25 243.38 280.87 243.14 280.86 242.64L280.77 238.95L270.58 226.64C270.33 226.35 270.19 225.96 270.19 225.57Z" fill="#106EBE"/>
<path d="M156.85 248.81L156.83 241.15" stroke="#666666" stroke-width="1.1332" stroke-miterlimit="10"/>
<path d="M174.69 248.65L174.67 240.98" stroke="#666666" stroke-width="1.1332" stroke-miterlimit="10"/>
<path d="M192.53 248.68L192.51 241.01" stroke="#666666" stroke-width="1.1332" stroke-miterlimit="10"/>
<path d="M210.24 248.64L210.23 240.98" stroke="#666666" stroke-width="1.1332" stroke-miterlimit="10"/>
<path d="M258.596 243.949L257.066 243.952L257.075 248.552L258.605 248.549L258.596 243.949Z" fill="#939393"/>
<path d="M252.655 243.959L251.125 243.962L251.134 248.562L252.664 248.559L252.655 243.959Z" fill="#939393"/>
<path d="M240.776 243.979L239.246 243.982L239.255 248.582L240.785 248.579L240.776 243.979Z" fill="#939393"/>
<path d="M234.837 243.979L233.307 243.982L233.316 248.582L234.846 248.579L234.837 243.979Z" fill="#939393"/>
<path d="M222.956 243.999L221.426 244.002L221.435 248.602L222.965 248.599L222.956 243.999Z" fill="#939393"/>
<path d="M217.016 244.009L215.486 244.012L215.495 248.612L217.025 248.609L217.016 244.009Z" fill="#939393"/>
<path d="M205.126 244.019L203.596 244.022L203.605 248.622L205.135 248.619L205.126 244.019Z" fill="#939393"/>
<path d="M199.186 244.029L197.656 244.032L197.665 248.632L199.195 248.629L199.186 244.029Z" fill="#939393"/>
<path d="M187.305 244.039L185.775 244.042L185.784 248.642L187.314 248.639L187.305 244.039Z" fill="#939393"/>
<path d="M181.366 244.049L179.836 244.052L179.845 248.652L181.375 248.649L181.366 244.049Z" fill="#939393"/>
<path d="M169.485 244.069L167.955 244.072L167.964 248.672L169.494 248.669L169.485 244.069Z" fill="#939393"/>
<path d="M163.546 244.069L162.016 244.072L162.025 248.672L163.555 248.669L163.546 244.069Z" fill="#939393"/>
<path d="M151.665 244.089L150.135 244.092L150.144 248.692L151.674 248.689L151.665 244.089Z" fill="#939393"/>
<path d="M145.725 244.099L144.195 244.102L144.204 248.702L145.734 248.699L145.725 244.099Z" fill="#939393"/>
<path d="M133.846 244.109L132.316 244.112L132.325 248.712L133.855 248.709L133.846 244.109Z" fill="#939393"/>
<path d="M127.895 244.119L126.365 244.122L126.374 248.722L127.904 248.719L127.895 244.119Z" fill="#939393"/>
<path d="M116.016 244.129L114.486 244.132L114.495 248.732L116.025 248.729L116.016 244.129Z" fill="#939393"/>
<path d="M110.075 244.139L108.545 244.142L108.554 248.742L110.084 248.739L110.075 244.139Z" fill="#939393"/>
<path d="M121.19 248.71L121.17 241.05" stroke="#666666" stroke-width="1.1332" stroke-miterlimit="10"/>
<path d="M139.03 248.68L139.01 241.01" stroke="#666666" stroke-width="1.1332" stroke-miterlimit="10"/>
<path d="M228.139 248.55L228.129 240.88" stroke="#666666" stroke-width="1.1332" stroke-miterlimit="10"/>
<path d="M245.92 248.63L245.9 240.97" stroke="#666666" stroke-width="1.1332" stroke-miterlimit="10"/>
<path d="M263.76 248.66L263.74 240.99" stroke="#666666" stroke-miterlimit="10"/>
<path d="M347.25 173.51L329.5 173L329.27 236.03L347.57 236.1L347.25 173.51Z" fill="white"/>
<path d="M343.582 173.407L343.35 236.077L347.57 236.092L347.802 173.422L343.582 173.407Z" fill="#D2D2D2"/>
<path d="M348.22 85.7902C336.9 77.6802 329.93 85.7202 329.93 85.7202L329.51 173.36L347.8 173.43C347.8 173.43 348.27 114.35 348.22 85.7902Z" fill="#9082CC"/>
<path d="M329.336 218.86L329.309 226.24L347.599 226.308L347.626 218.928L329.336 218.86Z" fill="#505050"/>
<path d="M344.44 86.9302L344 173.42L347.81 173.43C347.81 173.43 348.28 114.35 348.23 85.7902C336.91 77.6802 329.94 85.7202 329.94 85.7202L329.93 87.3402C336.85 81.7802 344.44 86.9302 344.44 86.9302Z" fill="#684DAA"/>
<path d="M84.5 165.86H109.25V161.86H84.5L82.25 163.99L84.5 165.86Z" fill="#B2B2B2"/>
<path d="M175.621 189.74L168.601 189.53C166.171 189.46 164.491 191.94 165.461 194.17L170.251 205.12C171.071 207.01 172.971 208.19 175.021 208.12L181.491 207.87L175.621 189.74Z" fill="#C78E00"/>
<path d="M130.684 174.61L133.994 174.61L133.994 152.73L130.684 152.73L130.684 174.61Z" fill="#D2D2D2"/>
<path d="M115.26 152.78H130.66V174.66H115.26C114.84 174.66 114.44 174.54 114.09 174.31L109.48 171.29C108.88 170.89 108.51 170.22 108.51 169.5V157.94C108.51 157.22 108.87 156.55 109.48 156.15L114.09 153.13C114.44 152.9 114.85 152.78 115.26 152.78Z" fill="#505050"/>
<path d="M133.25 174.68L154.5 182.86V144.99L133.25 152.74V174.68Z" fill="#EDAC28"/>
<path d="M212.7 182.86H154.5V144.98H213.44C216.02 144.98 218.11 147.07 218.11 149.65V177.45C218.1 180.44 215.68 182.86 212.7 182.86Z" fill="#FFCB40"/>
<path d="M144.061 158.43H137.681C137.061 158.43 136.561 157.93 136.561 157.31V156.56C136.561 155.94 137.061 155.44 137.681 155.44H144.061C144.681 155.44 145.181 155.94 145.181 156.56V157.31C145.191 157.92 144.681 158.43 144.061 158.43Z" fill="#C78E00"/>
<path d="M144.061 172.43H137.681C137.061 172.43 136.561 171.93 136.561 171.31V170.56C136.561 169.94 137.061 169.44 137.681 169.44H144.061C144.681 169.44 145.181 169.94 145.181 170.56V171.31C145.191 171.92 144.681 172.43 144.061 172.43Z" fill="#C78E00"/>
<path d="M144.061 165.43H137.681C137.061 165.43 136.561 164.93 136.561 164.31V163.56C136.561 162.94 137.061 162.44 137.681 162.44H144.061C144.681 162.44 145.181 162.94 145.181 163.56V164.31C145.191 164.92 144.681 165.43 144.061 165.43Z" fill="#C78E00"/>
<path d="M207.999 145.31V154.17C207.999 155.8 206.679 157.12 205.049 157.12H191.319C189.689 157.12 188.369 155.8 188.369 154.17V145.31C188.369 145.2 188.389 145.1 188.399 144.99H207.959C207.979 145.09 207.999 145.2 207.999 145.31Z" fill="#505050"/>
<path d="M166.931 223.86H173.081C176.401 223.86 179.951 222.74 178.641 217.29L168.621 179.61L198.621 179.4L208.931 220.52C208.941 220.54 208.941 220.56 208.951 220.58C209.571 222.96 210.231 223.77 211.861 223.89L211.871 223.91C214.261 224.19 216.131 226.2 216.131 228.66V244.67C216.131 247.33 213.981 249.48 211.321 249.48H166.941C164.281 249.48 162.131 247.33 162.131 244.67V228.66C162.121 226.02 164.281 223.86 166.931 223.86Z" fill="#FFCB40"/>
<path d="M216.119 235.74V244.68C216.119 247.34 213.969 249.49 211.309 249.49H166.929C164.269 249.49 162.119 247.34 162.119 244.68V235.74H216.119Z" fill="#EDAC28"/>
<path d="M218.1 170.74V177.46C218.1 180.44 215.68 182.86 212.7 182.86H154.5V170.74H218.1Z" fill="#EDAC28"/>
<path d="M322.169 247.93C318.549 245.36 309.879 246.83 308.599 247.88C307.319 248.93 304.049 239.19 304.059 235.3C304.069 231.41 306.249 223.9 308.659 226.83C311.059 229.76 319.809 229.18 322.249 226.93C324.679 224.68 325.279 231.05 325.269 233.33C325.259 235.62 322.169 247.93 322.169 247.93Z" fill="#8FC6E5"/>
<path d="M306.73 245.7C307.44 247.28 308.14 248.25 308.59 247.88C309.87 246.83 318.54 245.36 322.16 247.93C322.16 247.93 322.47 246.68 322.9 244.91C318.92 242.86 312.58 241.81 306.73 245.7Z" fill="#939393"/>
<path d="M297.859 225.75L307.109 225.78C308.039 225.78 308.789 226.54 308.779 227.46L308.709 247.27C308.709 248.2 307.949 248.95 307.029 248.94L297.779 248.91C296.849 248.91 296.099 248.15 296.109 247.23L296.179 227.42C296.179 226.5 296.929 225.75 297.859 225.75Z" fill="#DAE9F8"/>
<path d="M349.991 249.13C381.231 249.25 385.931 232.79 388.211 227.3C388.511 226.57 388.271 225.73 387.621 225.28C386.871 224.76 385.841 224.93 385.311 225.66C382.491 229.57 379.451 235.69 365.621 235.64C354.991 235.6 351.431 229.47 350.431 226.98C350.171 226.35 349.561 225.94 348.881 225.94L323.821 225.85C322.891 225.85 322.141 226.6 322.131 227.52L322.061 247.35C322.061 248.28 322.811 249.03 323.731 249.03L349.991 249.13Z" fill="#DAE9F8"/>
<path d="M388.21 227.31C388.51 226.58 388.27 225.74 387.62 225.29C387.51 225.21 387.39 225.15 387.27 225.11C384.66 231.64 378.34 245.46 349.69 245.35L323.43 245.25C322.87 245.25 322.38 244.97 322.08 244.55L322.07 247.35C322.07 248.28 322.82 249.03 323.74 249.03L350 249.13C381.23 249.25 385.93 232.79 388.21 227.31Z" fill="#939393"/>
<path d="M308.71 246.05L300.67 246.02C299.66 246.02 298.84 245.19 298.85 244.18L298.92 225.76H297.86C296.93 225.76 296.18 226.51 296.17 227.43L296.1 247.24C296.1 248.17 296.85 248.92 297.77 248.92L307.02 248.95C307.95 248.95 308.7 248.2 308.7 247.28L308.71 246.05Z" fill="#939393"/>
<defs>
<linearGradient id="paint0_linear" x1="442.431" y1="150.335" x2="442.431" y2="69.8454" gradientUnits="userSpaceOnUse">
<stop stop-color="#B2B2B2"/>
<stop offset="0.9849" stop-color="#C9C9C9"/>
</linearGradient>
</defs>
</svg>
