<svg width="636" height="300" viewBox="0 0 636 300" fill="none" xmlns="http://www.w3.org/2000/svg">
<path d="M492.682 286.224H109.137C108.37 286.191 107.644 285.864 107.112 285.311C106.579 284.758 106.279 284.021 106.274 283.253C106.262 282.48 106.556 281.734 107.093 281.178C107.629 280.621 108.364 280.3 109.137 280.283H492.682C493.067 280.283 493.448 280.361 493.802 280.512C494.156 280.663 494.477 280.883 494.744 281.16C495.011 281.438 495.22 281.766 495.357 282.125C495.495 282.485 495.559 282.868 495.545 283.253C495.556 284.026 495.261 284.772 494.725 285.328C494.189 285.885 493.454 286.207 492.682 286.224Z" fill="#C8C8C8"/>
<path d="M284.006 264.75H270V283H284.006V264.75Z" fill="#737373"/>
<path d="M413.006 264.75H399V283H413.006V264.75Z" fill="#737373"/>
<path d="M413.089 105.787H278.927C278.312 105.787 277.701 105.875 277.111 106.049L269.622 108.249C268.288 108.641 267.116 109.455 266.283 110.569C265.45 111.683 265 113.036 265 114.427V264.312C265 265.158 265.166 265.995 265.49 266.776C265.813 267.557 266.287 268.267 266.885 268.865C267.483 269.463 268.193 269.937 268.974 270.26C269.755 270.584 270.593 270.75 271.438 270.75H413.089C413.934 270.75 414.772 270.584 415.553 270.26C416.334 269.937 417.044 269.463 417.642 268.865C418.239 268.267 418.714 267.557 419.037 266.776C419.361 265.995 419.527 265.158 419.527 264.312V112.225C419.527 111.38 419.361 110.542 419.037 109.761C418.714 108.98 418.239 108.27 417.642 107.672C417.044 107.075 416.334 106.6 415.553 106.277C414.772 105.953 413.934 105.787 413.089 105.787Z" fill="#C78E00"/>
<path d="M406.369 109.095H269.631C267.073 109.095 265 111.169 265 113.726V266.119C265 268.677 267.073 270.75 269.631 270.75H406.369C408.927 270.75 411 268.677 411 266.119V113.726C411 111.169 408.927 109.095 406.369 109.095Z" fill="#EDAC28"/>
<path d="M383.304 126.5H293.696C287.513 126.5 282.5 131.513 282.5 137.696V219.804C282.5 225.987 287.513 231 293.696 231H383.304C389.487 231 394.5 225.987 394.5 219.804V137.696C394.5 131.513 389.487 126.5 383.304 126.5Z" fill="#FEC94E"/>
<path d="M375.219 179.5C375.222 185.016 373.589 190.409 370.527 194.997C367.464 199.585 363.11 203.162 358.015 205.275C352.919 207.388 347.312 207.942 341.901 206.868C336.491 205.794 331.521 203.139 327.619 199.24C323.717 195.34 321.06 190.371 319.982 184.962C318.905 179.552 319.456 173.944 321.566 168.847C323.676 163.751 327.251 159.394 331.837 156.329C336.423 153.264 341.815 151.628 347.331 151.628C354.721 151.641 361.805 154.581 367.031 159.804C372.258 165.028 375.202 172.11 375.219 179.5Z" fill="#EFEFEF"/>
<path d="M325.305 196.668C328.886 201.239 333.803 204.58 339.371 206.226C344.94 207.873 350.883 207.743 356.374 205.854C361.865 203.965 366.63 200.412 370.008 195.689C373.386 190.965 375.207 185.307 375.219 179.5H347.13L325.305 196.668Z" fill="#B2B2B2"/>
<path d="M347.13 192.83C344.494 192.829 341.917 192.046 339.726 190.58C337.535 189.114 335.827 187.032 334.819 184.596C333.811 182.16 333.549 179.48 334.064 176.895C334.579 174.31 335.849 171.935 337.713 170.072C339.578 168.208 341.953 166.939 344.539 166.426C347.124 165.912 349.804 166.176 352.239 167.185C354.675 168.194 356.756 169.903 358.221 172.095C359.685 174.287 360.467 176.864 360.467 179.5C360.468 181.251 360.124 182.986 359.454 184.604C358.784 186.223 357.802 187.693 356.563 188.931C355.324 190.169 353.853 191.151 352.235 191.82C350.616 192.489 348.881 192.832 347.13 192.83Z" fill="#C2C2C2"/>
<path d="M347.13 167.18C349.566 167.182 351.947 167.906 353.972 169.261C355.996 170.616 357.574 172.541 358.505 174.792C359.436 177.044 359.678 179.521 359.202 181.91C358.725 184.299 357.551 186.493 355.828 188.215C354.104 189.937 351.909 191.11 349.52 191.584C347.13 192.059 344.653 191.814 342.403 190.881C340.152 189.949 338.229 188.37 336.875 186.344C335.522 184.318 334.8 181.936 334.8 179.5C334.814 176.235 336.118 173.108 338.427 170.801C340.737 168.493 343.865 167.191 347.13 167.18ZM347.13 164.958C344.254 164.96 341.443 165.814 339.053 167.413C336.662 169.012 334.8 171.283 333.7 173.941C332.601 176.598 332.314 179.522 332.876 182.342C333.438 185.162 334.824 187.753 336.858 189.786C338.892 191.819 341.483 193.203 344.304 193.763C347.124 194.324 350.048 194.035 352.705 192.934C355.361 191.834 357.632 189.97 359.229 187.578C360.827 185.187 361.68 182.376 361.68 179.5C361.687 177.588 361.316 175.693 360.587 173.924C359.859 172.156 358.787 170.55 357.434 169.198C356.082 167.846 354.475 166.775 352.706 166.047C350.937 165.32 349.042 164.95 347.13 164.958Z" fill="#939393"/>
<path d="M353.192 177.682H341.27V181.116H353.192V177.682Z" fill="#939393"/>
<path d="M340.799 196.265L337.822 205.702L339.942 206.37L342.918 196.932L340.799 196.265Z" fill="#C2C2C2"/>
<path d="M354.526 152.408L353.008 157.223L355.128 157.891L356.646 153.076L354.526 152.408Z" fill="#C8C8C8"/>
<path d="M333.549 197.874L330.742 202.074L332.591 203.309L335.397 199.109L333.549 197.874Z" fill="#C2C2C2"/>
<path d="M361.812 155.663L356.312 163.892L358.16 165.126L363.66 156.898L361.812 155.663Z" fill="#C8C8C8"/>
<path d="M367.975 160.507L364.104 163.752L365.532 165.452L369.403 162.208L367.975 160.507Z" fill="#C8C8C8"/>
<path d="M325.844 187.635L321.219 189.669L322.119 191.703L326.743 189.669L325.844 187.635Z" fill="#B2B2B2"/>
<path d="M372.358 167.282L363.295 171.267L364.19 173.301L373.254 169.316L372.358 167.282Z" fill="#C8C8C8"/>
<path d="M329.15 180.688L319.332 181.981L319.623 184.181L329.44 182.888L329.15 180.688Z" fill="#C8C8C8"/>
<path d="M374.847 174.732L369.838 175.392L370.129 177.592L375.137 176.932L374.847 174.732Z" fill="#C8C8C8"/>
<path d="M319.864 174.183L319.525 176.383L324.319 177.12L324.657 174.92L319.864 174.183Z" fill="#C8C8C8"/>
<path d="M365.047 181.113L364.709 183.313L374.496 184.813L374.834 182.618L365.047 181.113Z" fill="#C2C2C2"/>
<path d="M322.33 166.631L321.391 168.644L330.365 172.827L331.304 170.813L322.33 166.631Z" fill="#C8C8C8"/>
<path d="M368.533 188.189L367.594 190.202L372.172 192.336L373.112 190.323L368.533 188.189Z" fill="#C2C2C2"/>
<path d="M326.826 160.188L325.361 161.858L329.161 165.187L330.627 163.517L326.826 160.188Z" fill="#C8C8C8"/>
<path d="M361.401 190.5L359.936 192.17L367.381 198.695L368.846 197.024L361.401 190.5Z" fill="#C2C2C2"/>
<path d="M333.121 155.234L331.246 156.427L336.567 164.775L338.442 163.58L333.121 155.234Z" fill="#C8C8C8"/>
<path d="M360.6 198.205L358.725 199.398L361.44 203.658L363.314 202.463L360.6 198.205Z" fill="#C2C2C2"/>
<path d="M340.552 152.407L338.418 153.029L339.832 157.876L341.966 157.255L340.552 152.407Z" fill="#C8C8C8"/>
<path d="M353.359 196.343L351.225 196.964L353.995 206.464L356.129 205.842L353.359 196.343Z" fill="#C2C2C2"/>
<path d="M348.341 151.628H346.119V161.528H348.341V151.628Z" fill="#FF8C00"/>
<path d="M348.341 202.323H346.119V207.372H348.341V202.323Z" fill="#C2C2C2"/>
<path d="M398.5 141.5H389.5V161.5H398.5V141.5Z" fill="#939393"/>
<path d="M398.5 196.5H389.5V216.5H398.5V196.5Z" fill="#939393"/>
<path d="M299.332 177.761C304.539 177.761 308.76 173.54 308.76 168.333C308.76 163.126 304.539 158.905 299.332 158.905C294.125 158.905 289.904 163.126 289.904 168.333C289.904 173.54 294.125 177.761 299.332 177.761Z" fill="#EDAC28"/>
<path d="M299.166 165.333H299.165C297.6 165.333 296.332 166.601 296.332 168.166V197.833C296.332 199.398 297.6 200.666 299.165 200.666H299.166C300.731 200.666 301.999 199.398 301.999 197.833V168.166C301.999 166.601 300.731 165.333 299.166 165.333Z" fill="#939393"/>
<path d="M479.771 282.377H441.379C445.946 278.793 451.43 276.568 457.203 275.958V172.225H451.98C451.588 172.204 451.216 172.042 450.933 171.769C450.65 171.497 450.475 171.131 450.44 170.74C450.443 170.542 450.485 170.346 450.564 170.165C450.643 169.984 450.758 169.82 450.902 169.683C451.045 169.547 451.214 169.44 451.4 169.37C451.585 169.3 451.782 169.268 451.98 169.275H457.199V165.6C456.119 165.089 455.203 164.287 454.556 163.282C453.909 162.278 453.556 161.112 453.538 159.918C453.624 158.135 454.392 156.454 455.684 155.222C456.976 153.991 458.692 153.304 460.477 153.304C462.262 153.304 463.978 153.991 465.27 155.222C466.562 156.454 467.33 158.135 467.416 159.918C467.397 161.112 467.045 162.278 466.398 163.282C465.751 164.286 464.835 165.089 463.755 165.6V169.271H468.955C469.154 169.263 469.353 169.295 469.539 169.364C469.726 169.434 469.897 169.54 470.042 169.676C470.187 169.813 470.304 169.977 470.385 170.159C470.466 170.34 470.51 170.537 470.515 170.736C470.475 171.129 470.296 171.495 470.01 171.767C469.724 172.039 469.349 172.2 468.955 172.221H463.755V275.958C469.575 276.606 475.11 278.825 479.767 282.377" fill="#939393"/>
<path d="M456.623 159.921C456.641 161.116 456.994 162.282 457.642 163.286C458.289 164.29 459.205 165.093 460.285 165.604V169.276H457.2V165.6C456.12 165.089 455.204 164.286 454.557 163.282C453.91 162.277 453.557 161.112 453.539 159.917C453.556 159.026 453.75 158.146 454.109 157.33C454.468 156.514 454.985 155.778 455.63 155.163C456.276 154.548 457.037 154.067 457.869 153.747C458.702 153.428 459.589 153.277 460.48 153.303C461 153.262 461.524 153.324 462.02 153.485C460.526 153.79 459.18 154.592 458.199 155.76C457.219 156.928 456.662 158.393 456.62 159.917" fill="#505050"/>
<path d="M453.541 170.74C453.577 171.131 453.752 171.496 454.035 171.769C454.318 172.041 454.689 172.203 455.081 172.224H451.981C451.589 172.203 451.218 172.041 450.935 171.769C450.652 171.496 450.477 171.131 450.441 170.74C450.444 170.542 450.487 170.347 450.566 170.165C450.645 169.984 450.76 169.82 450.903 169.684C451.047 169.547 451.216 169.441 451.401 169.37C451.586 169.3 451.784 169.268 451.981 169.275H455.081C454.884 169.268 454.686 169.3 454.501 169.37C454.316 169.441 454.147 169.547 454.003 169.684C453.86 169.82 453.745 169.984 453.666 170.165C453.587 170.347 453.544 170.542 453.541 170.74Z" fill="#505050"/>
<path d="M457.199 275.958V172.224H460.281V275.958C454.51 276.57 449.028 278.795 444.462 282.378H441.379C445.945 278.793 451.43 276.568 457.203 275.958" fill="#505050"/>
<path d="M248.97 282.377H210.77C215.337 278.793 220.822 276.568 226.596 275.958V172.225H221.372C220.979 172.204 220.608 172.042 220.325 171.769C220.042 171.497 219.867 171.131 219.832 170.74C219.834 170.542 219.876 170.346 219.956 170.165C220.035 169.984 220.15 169.82 220.293 169.683C220.437 169.547 220.606 169.44 220.791 169.37C220.976 169.3 221.174 169.268 221.372 169.275H226.596V165.6C225.512 165.093 224.592 164.291 223.942 163.286C223.292 162.282 222.938 161.114 222.92 159.918C223.005 158.134 223.774 156.451 225.067 155.218C226.36 153.986 228.078 153.298 229.865 153.298C231.651 153.298 233.369 153.986 234.662 155.218C235.955 156.451 236.724 158.134 236.81 159.918C236.791 161.113 236.439 162.278 235.792 163.282C235.145 164.287 234.229 165.09 233.149 165.6V169.271H238.349C238.547 169.264 238.744 169.296 238.93 169.366C239.115 169.436 239.285 169.543 239.429 169.679C239.573 169.815 239.688 169.979 239.768 170.161C239.848 170.342 239.891 170.538 239.895 170.736C239.858 171.128 239.682 171.493 239.398 171.766C239.114 172.039 238.742 172.2 238.349 172.221H233.149V275.958C238.921 276.572 244.404 278.796 248.973 282.377" fill="#939393"/>
<path d="M226.017 159.921C226.035 161.116 226.388 162.282 227.035 163.287C227.683 164.291 228.599 165.094 229.68 165.604V169.276H226.592V165.6C225.508 165.093 224.589 164.291 223.939 163.286C223.289 162.281 222.934 161.114 222.916 159.917C222.935 159.025 223.131 158.146 223.491 157.33C223.852 156.514 224.37 155.778 225.017 155.163C225.663 154.548 226.425 154.067 227.257 153.748C228.09 153.429 228.978 153.278 229.87 153.303C230.39 153.273 230.911 153.335 231.41 153.485C229.917 153.791 228.571 154.593 227.592 155.761C226.613 156.929 226.058 158.394 226.017 159.917" fill="#505050"/>
<path d="M222.916 170.74C222.952 171.131 223.127 171.496 223.41 171.769C223.693 172.041 224.064 172.203 224.456 172.224H221.368C220.976 172.203 220.604 172.041 220.322 171.769C220.039 171.496 219.864 171.131 219.828 170.74C219.831 170.542 219.873 170.346 219.952 170.165C220.032 169.984 220.146 169.82 220.29 169.683C220.433 169.547 220.603 169.44 220.788 169.37C220.973 169.3 221.17 169.268 221.368 169.275H224.456C224.258 169.268 224.061 169.3 223.876 169.371C223.691 169.441 223.522 169.547 223.378 169.684C223.235 169.82 223.12 169.984 223.041 170.165C222.961 170.347 222.919 170.542 222.916 170.74Z" fill="#505050"/>
<path d="M226.592 275.958V172.224H229.679V275.958C223.905 276.567 218.42 278.792 213.855 282.378H210.768C215.334 278.793 220.818 276.568 226.592 275.958Z" fill="#505050"/>
<path d="M236.808 169.641C237.146 169.076 237.627 168.609 238.202 168.288C238.777 167.967 239.427 167.803 240.086 167.811C241.072 167.769 242.038 168.094 242.8 168.722C243.699 167.783 244.863 167.139 246.137 166.877C247.41 166.615 248.734 166.748 249.931 167.256L252.248 168.356L247.037 178.461L244.728 177.361C244.053 177.073 243.445 176.65 242.94 176.118C242.435 175.586 242.044 174.956 241.791 174.268C241.538 173.579 241.429 172.846 241.47 172.114C241.51 171.382 241.7 170.665 242.028 170.009C241.782 169.745 241.478 169.542 241.141 169.415C240.803 169.288 240.441 169.24 240.083 169.276C239.692 169.265 239.305 169.362 238.966 169.556C238.626 169.75 238.346 170.034 238.157 170.376C238.037 170.562 237.856 170.701 237.645 170.768C237.434 170.835 237.207 170.826 237.002 170.743C236.615 170.562 236.615 170.01 236.802 169.643" fill="#FFB900"/>
<path d="M453.926 169.641C453.529 169.085 453.006 168.629 452.401 168.312C451.795 167.994 451.124 167.822 450.44 167.811C449.469 167.833 448.527 168.151 447.74 168.722C446.842 167.782 445.679 167.138 444.406 166.876C443.132 166.614 441.809 166.747 440.613 167.256L438.492 168.356L443.692 178.461L445.815 177.361C447.164 176.759 448.223 175.651 448.764 174.276C449.305 172.901 449.284 171.369 448.706 170.009C448.908 169.748 449.174 169.543 449.478 169.414C449.783 169.286 450.115 169.238 450.443 169.276C450.859 169.284 451.268 169.387 451.638 169.577C452.008 169.768 452.33 170.041 452.577 170.376C452.615 170.465 452.671 170.545 452.741 170.611C452.81 170.678 452.893 170.73 452.983 170.764C453.073 170.799 453.169 170.814 453.266 170.811C453.362 170.807 453.457 170.784 453.544 170.743C453.734 170.641 453.879 170.471 453.95 170.268C454.022 170.064 454.014 169.841 453.929 169.643" fill="#FFB900"/>
<path d="M335.214 195.893C301.836 195.893 274.045 190.211 247.43 177.727L251.667 169.275C284.857 184.708 315.153 186.36 335.214 186.36C376.689 186.36 423.049 176.628 438.873 169.275L443.307 177.727C416.691 190.211 368.407 195.893 335.214 195.893Z" fill="#0078D7"/>
<path d="M448.7 170.194C446.389 171.472 443.884 172.772 441.375 174.057L443.113 177.357L443.688 178.457L445.809 177.357C446.472 177.08 447.074 176.674 447.579 176.162C448.085 175.651 448.483 175.044 448.752 174.378C449.021 173.711 449.155 172.997 449.146 172.279C449.137 171.56 448.986 170.85 448.7 170.19" fill="#DB9D00"/>
<path d="M241.834 170.194C241.489 171.062 241.362 172.002 241.463 172.93C241.565 173.859 241.891 174.749 242.415 175.523H242.605V175.709C243.137 176.454 243.874 177.028 244.726 177.361L247.037 178.461L247.616 177.361L249.354 174.061C246.654 172.776 244.342 171.476 241.834 170.198" fill="#DB9D00"/>
<path d="M441.379 174.056C418.812 184.708 368.209 191.31 335.019 191.31C302.025 191.31 271.727 184.71 249.356 174.056L247.619 177.356L247.43 177.724C274.046 190.207 301.837 195.888 335.215 195.888C368.405 195.888 416.69 190.207 443.306 177.724L443.117 177.356L441.379 174.056Z" fill="#235399"/>
<path d="M447.162 65.8191C447.391 66.2027 447.753 66.4891 448.178 66.6242C448.604 66.7593 449.065 66.7336 449.473 66.5521L452.365 65.0861C452.756 64.8933 453.056 64.5549 453.2 64.1436C453.344 63.7322 453.321 63.2808 453.136 62.8861L449.284 55.7171C449.054 55.3334 448.691 55.0471 448.264 54.9121C447.838 54.7771 447.376 54.8027 446.967 54.9841L444.074 56.4501C443.681 56.6455 443.38 56.9874 443.236 57.4022C443.091 57.8171 443.116 58.272 443.303 58.6691L447.162 65.8191Z" fill="#939393"/>
<path d="M541.887 88.0349H510.05C509.619 88.0118 509.199 87.883 508.829 87.6598C508.459 87.4366 508.149 87.1259 507.927 86.7549L493.648 54.9809L497.907 53.1489L511.607 83.6359H541.886L541.887 88.0349Z" fill="#B2B2B2"/>
<path d="M484.783 54.8C484.783 60.5 489.601 65.084 495.783 65.084C497.181 65.1608 498.58 64.9517 499.895 64.4696C501.209 63.9874 502.412 63.2423 503.429 62.2798C504.446 61.3172 505.256 60.1574 505.809 58.8713C506.363 57.5852 506.648 56.1997 506.648 54.7995C506.648 53.3993 506.363 52.0138 505.809 50.7277C505.256 49.4416 504.446 48.2818 503.429 47.3193C502.412 46.3567 501.209 45.6116 499.895 45.1295C498.58 44.6473 497.181 44.4382 495.783 44.515C489.601 44.515 484.783 49.109 484.783 54.8Z" fill="#008272"/>
<path d="M484.783 54.8C484.783 60.5 489.601 65.084 495.783 65.084C497.181 65.1608 498.58 64.9517 499.895 64.4696C501.209 63.9874 502.412 63.2423 503.429 62.2798C504.446 61.3172 505.256 60.1574 505.809 58.8713C506.363 57.5852 506.648 56.1997 506.648 54.7995C506.648 53.3993 506.363 52.0138 505.809 50.7277C505.256 49.4416 504.446 48.2818 503.429 47.3193C502.412 46.3567 501.209 45.6116 499.895 45.1295C498.58 44.6473 497.181 44.4382 495.783 44.515C489.601 44.515 484.783 49.109 484.783 54.8Z" fill="#B2B2B2"/>
<path d="M530.9 90.052C530.938 90.794 531.259 91.4932 531.797 92.0054C532.335 92.5177 533.049 92.8039 533.792 92.805H539.192C539.915 92.7979 540.606 92.5038 541.112 91.9876C541.619 91.4713 541.899 90.7751 541.892 90.052V81.606C541.896 81.2479 541.83 80.8926 541.696 80.5603C541.562 80.2281 541.364 79.9255 541.113 79.6699C540.863 79.4144 540.564 79.2108 540.234 79.071C539.904 78.9311 539.55 78.8577 539.192 78.855H533.792C533.049 78.8546 532.335 79.14 531.796 79.6521C531.258 80.1643 530.937 80.8638 530.9 81.606V90.052Z" fill="#008272"/>
<path d="M530.9 90.052C530.938 90.794 531.259 91.4932 531.797 92.0054C532.335 92.5177 533.049 92.8039 533.792 92.805H539.192C539.915 92.7979 540.606 92.5038 541.112 91.9876C541.619 91.4713 541.899 90.7751 541.892 90.052V81.606C541.896 81.2479 541.83 80.8926 541.696 80.5603C541.562 80.2281 541.364 79.9255 541.113 79.6699C540.863 79.4144 540.564 79.2108 540.234 79.071C539.904 78.9311 539.55 78.8577 539.192 78.855H533.792C533.049 78.8546 532.335 79.14 531.796 79.6521C531.258 80.1643 530.937 80.8638 530.9 81.606V90.052Z" fill="#004B50"/>
<path d="M530.9 90.052C530.938 90.794 531.259 91.4932 531.797 92.0054C532.335 92.5177 533.049 92.8039 533.792 92.805H539.192C539.915 92.7979 540.606 92.5038 541.112 91.9876C541.619 91.4713 541.899 90.7751 541.892 90.052V81.606C541.896 81.2479 541.83 80.8926 541.696 80.5603C541.562 80.2281 541.364 79.9255 541.113 79.6699C540.863 79.4144 540.564 79.2108 540.234 79.071C539.904 78.9311 539.55 78.8577 539.192 78.855H533.792C533.049 78.8546 532.335 79.14 531.796 79.6521C531.258 80.1643 530.937 80.8638 530.9 81.606V90.052Z" fill="#939393"/>
<path d="M452.365 65.819C452.71 66.4465 453.275 66.9243 453.951 67.1604C454.627 67.3965 455.366 67.3743 456.026 67.098L460.864 64.719C461.187 64.5857 461.477 64.3846 461.715 64.1292C461.952 63.8738 462.132 63.5701 462.242 63.2389C462.352 62.9077 462.389 62.5567 462.351 62.2099C462.313 61.863 462.2 61.5284 462.021 61.229L455.838 49.479C455.673 49.1634 455.446 48.884 455.172 48.6573C454.897 48.4305 454.58 48.2609 454.238 48.1584C453.897 48.056 453.539 48.0227 453.185 48.0606C452.83 48.0984 452.487 48.2067 452.175 48.379L447.351 50.579C447.034 50.7177 446.75 50.9217 446.517 51.1775C446.284 51.4333 446.107 51.7353 445.998 52.0638C445.889 52.3924 445.851 52.7402 445.885 53.0846C445.92 53.429 446.026 53.7623 446.197 54.063L452.365 65.819Z" fill="#B2B2B2"/>
<path d="M520.671 43.0449C521.557 42.6296 522.351 42.0415 523.007 41.3151C523.663 40.5887 524.167 39.7387 524.49 38.8149C524.812 37.891 524.947 36.912 524.887 35.9353C524.826 34.9585 524.571 34.0037 524.137 33.1269L517.008 19.5439C515.993 17.7938 514.362 16.4855 512.434 15.875C510.506 15.2646 508.419 15.3962 506.583 16.2439L453.907 41.2129C452.149 42.0864 450.802 43.6126 450.154 45.4655C449.506 47.3184 449.608 49.3512 450.439 51.1299L457.569 64.7199C458.6 66.4503 460.244 67.7302 462.175 68.3062C464.106 68.8821 466.182 68.7122 467.994 67.8299L520.671 43.0449Z" fill="#939393"/>
<path d="M505.23 85.6562C505.248 86.9744 505.784 88.2325 506.723 89.1585C507.661 90.0844 508.926 90.6038 510.244 90.6042C510.918 90.64 511.591 90.5383 512.224 90.3052C512.857 90.0722 513.436 89.7127 513.925 89.2487C514.414 88.7847 514.804 88.2259 515.07 87.6063C515.337 86.9868 515.474 86.3195 515.474 85.6452C515.474 84.9709 515.337 84.3036 515.07 83.6841C514.804 83.0645 514.414 82.5057 513.925 82.0417C513.436 81.5777 512.857 81.2182 512.224 80.9852C511.591 80.7521 510.918 80.6504 510.244 80.6862C508.923 80.6872 507.654 81.2098 506.716 82.1403C505.777 83.0709 505.243 84.3344 505.23 85.6562Z" fill="#939393"/>
<path d="M508.507 85.6561C508.493 85.8922 508.527 86.1286 508.608 86.3508C508.689 86.573 508.815 86.7761 508.978 86.9477C509.141 87.1193 509.337 87.2556 509.555 87.3482C509.772 87.4408 510.006 87.4877 510.243 87.4861C510.494 87.509 510.748 87.4783 510.986 87.396C511.225 87.3137 511.443 87.1817 511.627 87.0087C511.811 86.8357 511.956 86.6257 512.052 86.3925C512.149 86.1594 512.195 85.9083 512.187 85.6561C512.173 85.1547 511.96 84.6795 511.595 84.3349C511.231 83.9902 510.744 83.8044 510.243 83.8181C509.774 83.8465 509.334 84.0524 509.011 84.3938C508.689 84.7352 508.509 85.1865 508.507 85.6561Z" fill="#B2B2B2"/>
<path d="M550 73.3521H539.19C538.468 73.3592 537.777 73.6531 537.271 74.1691C536.764 74.6852 536.484 75.3811 536.49 76.104V95.5551C536.486 95.9139 536.552 96.2701 536.686 96.6033C536.819 96.9365 537.017 97.2402 537.267 97.4969C537.518 97.7536 537.817 97.9583 538.147 98.0994C538.477 98.2405 538.832 98.3151 539.19 98.3191H550V73.3521Z" fill="#B2B2B2"/>
<path d="M119.692 126.5L113.909 149.275C112.172 155.889 117.57 166.708 123.949 167.275L120.077 126.867L119.692 126.5Z" fill="#004B50"/>
<path d="M119.692 126.5L113.909 149.275C112.172 155.889 117.57 166.708 123.949 167.275L120.077 126.867L119.692 126.5Z" fill="#737373"/>
<path d="M176.999 126.691L172.943 167.1C179.511 166.717 184.712 155.718 182.982 149.284L177.199 126.5L176.999 126.691Z" fill="#004B50"/>
<path d="M176.999 126.691L172.943 167.1C179.511 166.717 184.712 155.718 182.982 149.284L177.199 126.5L176.999 126.691Z" fill="#737373"/>
<path d="M171.975 181.412H124.907L119.691 126.872C120.635 123.315 122.705 120.158 125.591 117.876C128.478 115.593 132.026 114.307 135.705 114.209L161.177 114.021C164.857 114.121 168.406 115.409 171.294 117.692C174.182 119.976 176.254 123.132 177.199 126.69L171.975 181.412Z" fill="#737373"/>
<path d="M148.441 143.589L141.117 114.022H155.766L148.441 143.589Z" fill="white"/>
<path d="M129.732 265.678H140.544L141.7 225.47L146.322 202.336C146.985 201.981 147.701 201.733 148.443 201.603C148.829 201.603 149.214 201.784 150.95 202.15L155.382 225.47L156.559 265.678H167.159L171.594 226.022L171.977 181.413H125.1L125.485 226.022L129.732 265.678Z" fill="#505050"/>
<path d="M148.253 201.6H146.516C145.165 201.781 144.394 201.6 143.042 202.333L138.4 225.47L140.542 265.678L141.7 225.47L146.324 202.336C146.935 202.011 147.583 201.765 148.255 201.603" fill="#3C3C3C"/>
<path d="M168.313 181.412L167.929 226.024L167.156 265.677L171.591 226.024L171.974 181.412H168.313Z" fill="#3C3C3C"/>
<path d="M148.441 201.6C149.022 201.6 149.598 201.414 150.179 201.414C151.316 201.373 152.445 201.625 153.455 202.147L158.483 225.467L156.36 265.675L155.191 225.467L150.949 202.147C150.135 201.877 149.294 201.693 148.441 201.6Z" fill="#737373"/>
<path d="M128.57 181.412L129.151 226.024L129.733 265.677L125.49 226.024L124.908 181.412H128.57Z" fill="#737373"/>
<path d="M169.665 132.026C164.651 131.839 163.685 130.008 163.685 130.008C163.685 130.008 162.726 131.839 157.514 132.026C157.514 132.026 156.941 140.46 163.685 143.59C170.238 140.46 169.665 132.026 169.665 132.026Z" fill="#EDAC28"/>
<path d="M164.841 142.857C164.651 142.857 164.651 142.857 164.651 143.043C164.651 142.857 164.651 142.857 164.841 142.857ZM164.261 143.223C164.066 143.223 164.066 143.223 164.066 143.411C164.066 143.223 164.066 143.223 164.261 143.223Z" fill="#336F73"/>
<path d="M168.118 181.415H128.57V186.548H168.118V181.415Z" fill="#3C3C3C"/>
<path d="M122.4 280.014V282.032C122.386 282.219 122.41 282.406 122.472 282.583C122.533 282.76 122.63 282.922 122.757 283.06C122.884 283.197 123.038 283.307 123.209 283.382C123.38 283.458 123.565 283.497 123.752 283.498H140.731V281.665H123.753C123.364 281.605 123.011 281.403 122.762 281.098C122.513 280.793 122.384 280.407 122.401 280.014" fill="black"/>
<path d="M140.731 257.611V281.665H123.752C123.363 281.604 123.01 281.402 122.761 281.097C122.511 280.792 122.383 280.406 122.4 280.013V277.066C122.4 277.066 122.015 275.781 123.949 274.681C125.488 273.948 128.38 270.647 128.766 269.181V257.611H140.731Z" fill="#737373"/>
<path d="M140.151 257.611L137.442 269.181C136.449 271.414 134.845 273.321 132.814 274.681C130.693 275.781 131.076 277.066 131.076 277.066V280.013C131.058 280.406 131.187 280.793 131.436 281.098C131.686 281.402 132.039 281.604 132.429 281.665H140.729V257.611H140.151Z" fill="#505050"/>
<path d="M174.499 280.014V282.032C174.512 282.219 174.487 282.407 174.424 282.584C174.362 282.762 174.264 282.924 174.136 283.061C174.008 283.199 173.853 283.309 173.681 283.384C173.509 283.459 173.324 283.498 173.136 283.498H156.17V281.665H173.132C173.522 281.605 173.876 281.403 174.128 281.099C174.379 280.795 174.51 280.409 174.495 280.014" fill="black"/>
<path d="M156.17 257.611V281.665H173.132C173.522 281.605 173.877 281.403 174.128 281.098C174.379 280.794 174.51 280.407 174.495 280.013V277.066C174.495 277.066 174.88 275.781 172.943 274.681C171.394 273.948 168.502 270.647 168.118 269.181V257.611H156.17Z" fill="#737373"/>
<path d="M174.499 280.014V282.032C174.512 282.219 174.487 282.407 174.424 282.584C174.362 282.762 174.264 282.924 174.136 283.061C174.008 283.199 173.853 283.309 173.681 283.384C173.509 283.459 173.324 283.498 173.136 283.498H156.17V281.665H173.132C173.522 281.605 173.876 281.403 174.128 281.099C174.379 280.795 174.51 280.409 174.495 280.014" fill="black"/>
<path d="M172.943 274.681C171.395 273.948 168.504 270.647 168.119 269.181V257.61H167.348L164.266 269.181C164.652 270.647 167.544 273.948 169.084 274.681C171.011 275.781 170.626 277.066 170.626 277.066V280.013C170.643 280.405 170.516 280.791 170.268 281.096C170.019 281.4 169.668 281.603 169.28 281.665H173.133C173.523 281.605 173.878 281.403 174.129 281.098C174.38 280.794 174.511 280.408 174.497 280.013V277.066C174.497 277.066 174.881 275.783 172.943 274.681Z" fill="#505050"/>
<path d="M138.018 114.208C138.193 114.217 138.367 114.19 138.532 114.129C138.696 114.069 138.847 113.976 138.974 113.856C139.102 113.736 139.203 113.591 139.274 113.431C139.344 113.27 139.381 113.097 139.383 112.922V103.922H157.518V112.922C157.518 113.096 157.554 113.268 157.623 113.428C157.691 113.588 157.792 113.733 157.918 113.853C158.044 113.973 158.193 114.067 158.357 114.128C158.52 114.189 158.694 114.216 158.868 114.208L151.532 119.17C150.616 119.775 149.541 120.095 148.444 120.089C147.352 120.068 146.286 119.751 145.362 119.17L138.018 114.208Z" fill="#D0B28D"/>
<path d="M141.699 105.221L151.719 118.99L158.866 114.208C158.692 114.216 158.518 114.189 158.355 114.128C158.192 114.067 158.043 113.974 157.917 113.854C157.791 113.734 157.69 113.589 157.621 113.429C157.552 113.269 157.517 113.097 157.516 112.923V104.855L141.699 105.221Z" fill="#A38C6D"/>
<path d="M127.801 93.2849C127.83 94.2814 128.252 95.226 128.975 95.9125C129.698 96.5989 130.663 96.9715 131.66 96.9489C132.634 96.9489 133.569 96.5618 134.258 95.8728C134.947 95.1838 135.334 94.2493 135.334 93.2749C135.334 92.3005 134.947 91.366 134.258 90.677C133.569 89.988 132.634 89.6009 131.66 89.6009C130.66 89.5805 129.693 89.9565 128.97 90.6468C128.247 91.3371 127.827 92.2855 127.801 93.2849Z" fill="#D0B28D"/>
<path d="M161.564 93.2849C161.594 94.2814 162.016 95.226 162.739 95.9125C163.462 96.5989 164.427 96.9715 165.423 96.9489C166.398 96.9489 167.332 96.5618 168.021 95.8728C168.71 95.1838 169.097 94.2493 169.097 93.2749C169.097 92.3005 168.71 91.366 168.021 90.677C167.332 89.988 166.398 89.6009 165.423 89.6009C164.424 89.5805 163.457 89.9565 162.734 90.6468C162.011 91.3371 161.59 92.2855 161.564 93.2849Z" fill="#D0B28D"/>
<path d="M148.442 73.814C139.193 73.814 131.658 77.851 131.658 86.664V100.252C131.652 101.947 132.27 103.584 133.395 104.852L141.503 112.367C141.907 112.839 142.41 113.215 142.977 113.469C143.544 113.723 144.16 113.847 144.781 113.834H152.3C152.889 113.826 153.469 113.69 154.001 113.437C154.532 113.184 155.003 112.819 155.38 112.367L163.495 104.852C164.669 103.6 165.353 101.967 165.421 100.252V86.664C165.421 77.851 157.711 73.814 148.44 73.814" fill="#D0B28D"/>
<path d="M152.1 92.0001C151.356 92.0425 150.659 92.3727 150.155 92.9208C149.651 93.4689 149.38 94.1918 149.4 94.9361L149.973 99.7001C150.504 99.9041 150.938 100.301 151.189 100.812C151.439 101.322 151.488 101.908 151.325 102.453H144.967L148.433 105.222L150.554 110.172C149.869 109.943 149.154 109.82 148.433 109.806C146.697 109.806 145.351 110.537 144.967 111.638H151.136L152.096 113.838C153.309 113.837 154.478 113.381 155.372 112.56L163.488 104.86C164.071 104.249 164.525 103.527 164.823 102.736C165.121 101.946 165.258 101.104 165.224 100.26V87.0361L152.1 92.0001Z" fill="#B89E7C"/>
<path d="M148.253 108.339C145.165 108.339 144.205 107.786 144.009 107.606C143.815 107.606 143.815 107.238 144.009 107.053C144.044 107.01 144.088 106.974 144.138 106.95C144.189 106.926 144.244 106.914 144.3 106.914C144.356 106.914 144.411 106.926 144.461 106.95C144.512 106.974 144.556 107.01 144.591 107.053C145.785 107.366 147.02 107.49 148.253 107.42C149.625 107.505 151.001 107.317 152.301 106.867C152.684 106.867 152.875 106.867 153.071 107.053C153.071 107.42 153.071 107.606 152.684 107.786C151.25 108.226 149.751 108.413 148.253 108.339Z" fill="#B48C70"/>
<path d="M160.988 89.415H136.088V93.285C136.079 93.9882 136.209 94.6862 136.471 95.3386C136.734 95.991 137.123 96.5847 137.617 97.0854C138.111 97.586 138.699 97.9835 139.348 98.2548C139.997 98.5262 140.693 98.6659 141.396 98.6659C142.099 98.6659 142.795 98.5262 143.444 98.2548C144.093 97.9835 144.681 97.586 145.175 97.0854C145.669 96.5847 146.058 95.991 146.32 95.3386C146.583 94.6862 146.713 93.9882 146.703 93.285H150.175C150.173 93.9909 150.312 94.6901 150.584 95.3416C150.855 95.9931 151.254 96.5837 151.757 97.0789C152.26 97.5741 152.857 97.9638 153.513 98.2252C154.168 98.4866 154.87 98.6144 155.575 98.601C157.022 98.5876 158.404 98.0009 159.418 96.9699C160.433 95.9388 160.997 94.5474 160.986 93.101L160.988 89.415Z" fill="#3C3C3C"/>
<path d="M130.691 83.1792V95.4792C130.692 95.6535 130.728 95.826 130.797 95.9861C130.866 96.1462 130.966 96.2906 131.093 96.4107C131.219 96.5308 131.368 96.6241 131.532 96.6848C131.695 96.7456 131.869 96.7726 132.043 96.7642C133.002 96.7642 133.583 96.2122 133.583 95.4792V83.1792H130.691Z" fill="#737373"/>
<path d="M163.301 83.1792V95.4792C163.301 96.2122 163.881 96.7642 164.841 96.7642C165.015 96.773 165.189 96.7463 165.353 96.6857C165.516 96.6251 165.666 96.5319 165.792 96.4117C165.918 96.2915 166.019 96.1468 166.088 95.9865C166.156 95.8262 166.192 95.6536 166.192 95.4792V83.1792H163.301Z" fill="#737373"/>
<path d="M148.441 68.312C119.692 68.312 128.185 82.08 131.461 86.483C131.461 88.316 138.995 92.183 148.441 92.183C157.887 92.183 165.422 88.134 165.422 86.483C168.698 82.083 177.197 68.312 148.441 68.312Z" fill="#737373"/>
<path d="M135.32 86.483C132.042 82.266 123.947 68.864 150.367 68.313H148.441C119.692 68.313 128.186 82.08 131.461 86.483C131.461 88.315 138.996 92.183 148.441 92.183H150.367C141.888 91.617 135.32 88.133 135.32 86.483Z" fill="#505050"/>
<path d="M161.564 86.483C164.841 82.266 172.943 68.864 146.516 68.313H148.442C177.198 68.313 168.698 82.08 165.423 86.483C165.423 88.315 157.902 92.183 148.442 92.183H146.516C154.997 91.617 161.564 88.133 161.564 86.483Z" fill="#939393"/>
<path d="M166.965 84.1002C166.946 83.9055 166.858 83.7241 166.716 83.5894C166.575 83.4547 166.389 83.3757 166.194 83.3672H130.694C130.498 83.3756 130.313 83.4545 130.171 83.5893C130.03 83.7241 129.942 83.9056 129.925 84.1002V86.1182C129.907 86.3414 129.978 86.5626 130.121 86.7343C130.265 86.906 130.471 87.0144 130.694 87.0362L166.194 86.8512C166.389 86.8426 166.575 86.7637 166.716 86.629C166.858 86.4943 166.946 86.3128 166.965 86.1182V84.1002Z" fill="#008272"/>
<path d="M129.922 84.1001V86.1181C129.925 86.3364 130.004 86.5469 130.144 86.7141C130.285 86.8813 130.478 86.995 130.693 87.0361C130.478 86.995 130.285 86.8813 130.144 86.7141C130.004 86.5469 129.925 86.3364 129.922 86.1181V84.1001Z" fill="#339B8E"/>
<path d="M133.401 83.3662H130.701C130.505 83.3748 130.32 83.4537 130.178 83.5884C130.036 83.7231 129.948 83.9046 129.93 84.0992C129.948 83.9046 130.036 83.7231 130.178 83.5884C130.32 83.4537 130.505 83.3748 130.701 83.3662H133.401Z" fill="#336467"/>
<path d="M166.192 83.3662H130.692C130.497 83.3746 130.311 83.4535 130.169 83.5882C130.028 83.723 129.94 83.9046 129.922 84.0992V86.1172C129.925 86.3355 130.004 86.5459 130.144 86.7132C130.284 86.8805 130.478 86.9945 130.692 87.0362L166.192 86.8502C166.387 86.8417 166.573 86.7628 166.715 86.628C166.856 86.4933 166.944 86.3119 166.963 86.1172V84.1002C166.944 83.9056 166.856 83.7241 166.715 83.5894C166.573 83.4547 166.387 83.3758 166.192 83.3672" fill="#FF8C00"/>
<path d="M150.374 117.153H146.518V163.595H150.374V117.153Z" fill="#FF8C00"/>
<path d="M159.252 114.022L157.516 111.636L148.441 117.152L139.381 111.636L137.631 114.022L146.32 119.903L148.441 117.705L150.562 119.903L159.252 114.022Z" fill="white"/>
</svg>
