<svg xmlns="http://www.w3.org/2000/svg" viewBox="0 0 500 350"><title>swimlane-ml-evaluate-model</title><path d="M175.937,230a7.108,7.108,0,0,1-3.742-1.095A6.891,6.891,0,0,1,169,223.064V91.086a7.12,7.12,0,0,1,2.513-5.56,6.949,6.949,0,0,1,7.345-.947L321.53,150.672a6.947,6.947,0,0,1,0,12.6L178.767,229.363A7.531,7.531,0,0,1,175.937,230Z" fill="#69afe5"/><path d="M169,157v66.458a6.935,6.935,0,0,0,6.937,6.938,6.494,6.494,0,0,0,2.921-.639l142.764-66.093a6.836,6.836,0,0,0,4.016-6.3.693.693,0,0,0-.091-.365Z" fill="#8ac5ed"/><path d="M38,307H462" fill="none" stroke="#b2b2b2" stroke-miterlimit="10" stroke-width="2"/><path d="M342.331,156.7l51.848,23.826" fill="none" stroke="#5da6d8" stroke-miterlimit="10" stroke-width="2" stroke-dasharray="3 3"/><path d="M165.793,75.449,342.33,156.7" fill="none" stroke="#69afe5" stroke-miterlimit="10" stroke-width="2" stroke-dasharray="3 3"/><path d="M119.7,54.18l46.1,21.27" fill="none" stroke="#5da6d8" stroke-miterlimit="10" stroke-width="2" stroke-dasharray="3 3"/><path d="M342.331,156.97l51.848-23.826" fill="none" stroke="#5da6d8" stroke-miterlimit="10" stroke-width="2" stroke-dasharray="3 3"/><path d="M165.793,238.218,342.33,156.971" fill="none" stroke="#69afe5" stroke-miterlimit="10" stroke-width="2" stroke-dasharray="3 3"/><path d="M119.7,259.4l46.1-21.179" fill="none" stroke="#5da6d8" stroke-miterlimit="10" stroke-width="2" stroke-dasharray="3 3"/><path d="M166,156H339" fill="none" stroke="#69afe5" stroke-miterlimit="10" stroke-width="2" stroke-dasharray="3 3"/><path d="M166,75V238" fill="none" stroke="#69afe5" stroke-miterlimit="10" stroke-width="2" stroke-dasharray="3 3"/><path d="M166,69V51" fill="none" stroke="#69afe5" stroke-miterlimit="10" stroke-width="2"/><path d="M341,69V51" fill="none" stroke="#69afe5" stroke-miterlimit="10" stroke-width="2"/><path d="M169,60H338" fill="none" stroke="#69afe5" stroke-miterlimit="10" stroke-width="2"/><path d="M172.544,63l-3-3,3-3h-2.559l-3,3,3,3Z" fill="#69afe5"/><path d="M334.76,63l3-3-3-3h2.559l3,3-3,3Z" fill="#69afe5"/><path d="M140,75h18" fill="none" stroke="#69afe5" stroke-miterlimit="10" stroke-width="2"/><path d="M140,238h18" fill="none" stroke="#69afe5" stroke-miterlimit="10" stroke-width="2"/><path d="M149,79V235" fill="none" stroke="#69afe5" stroke-miterlimit="10" stroke-width="2"/><path d="M146,82.2l3-3,3,3V79.641l-3-3-3,3Z" fill="#69afe5"/><path d="M146,231.284l3,3,3-3v2.559l-3,3-3-3Z" fill="#69afe5"/><path d="M166,261V244" fill="none" stroke="#69afe5" stroke-miterlimit="10" stroke-width="2"/><path d="M341,261V244" fill="none" stroke="#69afe5" stroke-miterlimit="10" stroke-width="2"/><path d="M169,253H338" fill="none" stroke="#69afe5" stroke-miterlimit="10" stroke-width="2"/><path d="M172.544,256l-3-3,3-3h-2.559l-3,3,3,3Z" fill="#69afe5"/><path d="M334.76,256l3-3-3-3h2.559l3,3-3,3Z" fill="#69afe5"/><path d="M307.257,261.985l-9.234,10.357,9.471,8.444,9.234-10.356Z" fill="#666"/><path d="M260.816,288.883a62.78,62.78,0,1,0-67-58.242A62.708,62.708,0,0,0,260.816,288.883Zm-.547-7.668a55.047,55.047,0,1,1,51.026-58.79A55.008,55.008,0,0,1,260.269,281.215Z" fill="#666"/><path d="M379.208,326.037l-9.493,10.589a3.616,3.616,0,0,1-5.112.274l-57.324-51.121a3.617,3.617,0,0,1-.274-5.112l9.493-10.59a3.617,3.617,0,0,1,5.112-.274l57.325,51.122A3.7,3.7,0,0,1,379.208,326.037Z" fill="#ffcb40"/><path d="M74,11V339" fill="none" stroke="#b2b2b2" stroke-miterlimit="10" stroke-width="2"/></svg>