<svg id="Layer_1" data-name="Layer 1" xmlns="http://www.w3.org/2000/svg" viewBox="0 0 636 300"><defs><style>.cls-1{fill:#b3d6f2;}.cls-2{fill:#8ec3ec;}.cls-11,.cls-3{fill:none;}.cls-4{fill:#61abe4;}.cls-5{fill:#89c0eb;}.cls-6{fill:#b0d5f1;}.cls-7{fill:#32145a;}.cls-8{fill:#5c2d91;}.cls-9{fill:#008272;}.cls-10{fill:#00b294;}.cls-11{stroke:#003d41;stroke-miterlimit:10;stroke-width:2px;}.cls-12{fill:#8867c8;}.cls-13{fill:#40c5af;}</style></defs><title>swimlane-barchart-skyline_notext</title><rect class="cls-1" x="277" y="174" width="94" height="75"/><rect class="cls-2" x="405" y="174" width="68" height="75"/><polygon class="cls-2" points="577 117 567.8 117 563.23 105 560 105 560 69 557 69 557 105 554.12 105 549.14 117 540 117 540 160 523 160 523 249 577 249 577 117"/><polygon class="cls-2" points="106 249 55 249 55 153 56 153 56 150 55 150 55 146 56 146 56 143 55 143 55 139 56 139 56 136 55 136 55 127 106 127 106 251 106 249"/><polygon class="cls-3" points="106 249 55 249 55 153 56 153 56 150 55 150 55 146 56 146 56 143 55 143 55 139 56 139 56 136 55 136 55 127 106 127 106 251 106 249"/><polyline class="cls-3" points="106 249 55 249 55 167.14 55 164.37 55 160.09 55 157.31 55 153 56 153 56 150 55 150 55 146 56 146 56 143 55 143 55 139 56 139 56 136 56 136 56 127 106 127 106 251"/><polygon class="cls-4" points="90 136 56 136 56 139 90 139 90 136 90 136"/><polygon class="cls-3" points="90 136 56 136 56 139 90 139 90 136 90 136"/><polyline class="cls-1" points="90 136 56 136 56 139 90 139 90 136"/><polygon class="cls-5" points="105 136 91 136 91 139 105 139 105 136 105 136"/><polygon class="cls-3" points="105 136 91 136 91 139 105 139 105 136 105 136"/><polyline class="cls-3" points="105 136 91 136 91 139 105 139 105 136"/><polygon class="cls-4" points="90 143 56 143 56 146 90 146 90 143 90 143"/><polygon class="cls-3" points="90 143 56 143 56 146 90 146 90 143 90 143"/><polyline class="cls-1" points="90 143 56 143 56 146 90 146 90 143"/><polygon class="cls-5" points="105 143 91 143 91 146 105 146 105 143 105 143"/><polygon class="cls-3" points="105 143 91 143 91 146 105 146 105 143 105 143"/><polyline class="cls-3" points="105 143 91 143 91 146 105 146 105 143"/><polygon class="cls-4" points="90 150 56 150 56 153 90 153 90 150 90 150"/><polygon class="cls-3" points="90 150 56 150 56 153 90 153 90 150 90 150"/><polyline class="cls-1" points="90 150 56 150 56 153 90 153 90 150"/><polygon class="cls-5" points="105 150 91 150 91 153 105 153 105 150 105 150"/><polygon class="cls-3" points="105 150 91 150 91 153 105 153 105 150 105 150"/><polyline class="cls-3" points="105 150 91 150 91 153 105 153 105 150"/><polygon class="cls-6" points="91 139 81 139 81 136 91 136 91 139 91 139"/><polygon class="cls-3" points="90 146 80 146 80 143 90 143 90 146 90 146"/><polygon class="cls-6" points="91 153 81 153 81 150 91 150 91 153 91 153"/><rect class="cls-1" x="209" y="137" width="30" height="112"/><rect class="cls-1" x="472" y="146" width="55" height="103"/><rect class="cls-2" x="479" y="152" width="40" height="6"/><rect class="cls-2" x="479" y="166" width="40" height="6"/><rect class="cls-2" x="148" y="144" width="20" height="24"/><path class="cls-1" d="M158,160.24c-3,0-5.91-2.71-5.91-5.42A6.15,6.15,0,0,1,158,149a5.87,5.87,0,0,1,5.92,5.82,5.8,5.8,0,0,1-5.92,5.42"/><polygon class="cls-1" points="168 144 148.08 144 155 135 160.92 135 168 144"/><path class="cls-2" d="M157.8,125.71a2.89,2.89,0,0,0-2.8,2.86V135h6v-6.43a3,3,0,0,0-3.2-2.86"/><rect class="cls-1" x="157" y="130" width="2" height="3"/><rect class="cls-2" x="125" y="168" width="67" height="81"/><rect class="cls-1" x="143" y="188" width="4" height="7"/><rect class="cls-1" x="143" y="175" width="4" height="7"/><rect class="cls-1" x="151" y="188" width="4" height="7"/><rect class="cls-1" x="151" y="175" width="4" height="7"/><rect class="cls-1" x="159" y="188" width="4" height="7"/><rect class="cls-1" x="159" y="175" width="4" height="7"/><rect class="cls-1" x="167" y="188" width="4" height="7"/><rect class="cls-1" x="167" y="175" width="4" height="7"/><rect class="cls-1" x="175" y="188" width="4" height="7"/><rect class="cls-1" x="175" y="175" width="4" height="7"/><rect class="cls-2" x="286" y="152" width="14" height="97"/><rect class="cls-2" x="179" y="126" width="50" height="123"/><polygon class="cls-2" points="350 249 299 249 299 95.07 350 106.04 350 249"/><rect class="cls-1" x="318" y="127" width="4" height="7"/><rect class="cls-1" x="308" y="127" width="4" height="7"/><rect class="cls-1" x="318" y="138" width="4" height="7"/><rect class="cls-1" x="308" y="138" width="4" height="7"/><rect class="cls-1" x="318" y="148" width="4" height="7"/><rect class="cls-1" x="308" y="148" width="4" height="7"/><rect class="cls-1" x="318" y="158" width="4" height="7"/><rect class="cls-1" x="308" y="158" width="4" height="7"/><rect class="cls-1" x="318" y="169" width="4" height="7"/><rect class="cls-1" x="308" y="169" width="4" height="7"/><rect class="cls-1" x="318" y="179" width="4" height="7"/><rect class="cls-1" x="338" y="127" width="4" height="7"/><rect class="cls-1" x="328" y="127" width="4" height="7"/><rect class="cls-1" x="338" y="138" width="4" height="7"/><rect class="cls-1" x="328" y="138" width="4" height="7"/><rect class="cls-1" x="338" y="148" width="4" height="7"/><rect class="cls-1" x="328" y="148" width="4" height="7"/><rect class="cls-1" x="338" y="158" width="4" height="7"/><rect class="cls-1" x="328" y="158" width="4" height="7"/><rect class="cls-1" x="338" y="169" width="4" height="7"/><rect class="cls-1" x="328" y="169" width="4" height="7"/><rect class="cls-1" x="338" y="179" width="4" height="7"/><rect class="cls-1" x="328" y="179" width="4" height="7"/><rect class="cls-1" x="338" y="189" width="4" height="7"/><rect class="cls-1" x="328" y="189" width="4" height="7"/><rect class="cls-1" x="338" y="199" width="4" height="7"/><polygon class="cls-2" points="235 65 281 65 281 249 235 249 235 163.85 235 65"/><rect class="cls-1" x="241" y="89" width="4" height="8"/><rect class="cls-1" x="241" y="101" width="4" height="8"/><rect class="cls-1" x="241" y="113" width="4" height="8"/><rect class="cls-1" x="241" y="125" width="4" height="8"/><rect class="cls-1" x="241" y="136" width="4" height="8"/><rect class="cls-1" x="241" y="148" width="4" height="8"/><rect class="cls-1" x="241" y="160" width="4" height="8"/><rect class="cls-1" x="241" y="171" width="4" height="8"/><rect class="cls-1" x="251" y="89" width="4" height="8"/><rect class="cls-1" x="251" y="101" width="4" height="8"/><rect class="cls-1" x="251" y="113" width="4" height="8"/><rect class="cls-1" x="251" y="125" width="4" height="8"/><rect class="cls-1" x="251" y="136" width="4" height="8"/><rect class="cls-1" x="251" y="148" width="4" height="8"/><rect class="cls-1" x="251" y="160" width="4" height="8"/><rect class="cls-1" x="251" y="171" width="4" height="8"/><rect class="cls-1" x="261" y="89" width="4" height="8"/><rect class="cls-1" x="261" y="101" width="4" height="8"/><rect class="cls-1" x="261" y="113" width="4" height="8"/><rect class="cls-1" x="261" y="125" width="4" height="8"/><rect class="cls-1" x="261" y="136" width="4" height="8"/><rect class="cls-1" x="261" y="148" width="4" height="8"/><rect class="cls-1" x="261" y="160" width="4" height="8"/><rect class="cls-1" x="261" y="171" width="4" height="8"/><rect class="cls-1" x="271" y="89" width="4" height="8"/><rect class="cls-1" x="271" y="101" width="4" height="8"/><rect class="cls-1" x="271" y="113" width="4" height="8"/><rect class="cls-1" x="271" y="125" width="4" height="8"/><rect class="cls-1" x="271" y="136" width="4" height="8"/><rect class="cls-1" x="271" y="148" width="4" height="8"/><rect class="cls-1" x="271" y="160" width="4" height="8"/><rect class="cls-1" x="271" y="171" width="4" height="8"/><rect class="cls-1" x="241" y="57" width="34" height="8"/><rect class="cls-1" x="545" y="123" width="3" height="8"/><rect class="cls-1" x="545" y="134" width="3" height="8"/><rect class="cls-1" x="545" y="145" width="3" height="8"/><rect class="cls-1" x="545" y="156" width="3" height="8"/><rect class="cls-1" x="545" y="167" width="3" height="8"/><rect class="cls-1" x="553" y="123" width="3" height="8"/><rect class="cls-1" x="553" y="134" width="3" height="8"/><rect class="cls-1" x="553" y="145" width="3" height="8"/><rect class="cls-1" x="553" y="156" width="3" height="8"/><rect class="cls-1" x="553" y="167" width="3" height="8"/><rect class="cls-1" x="553" y="178" width="3" height="8"/><rect class="cls-1" x="561" y="123" width="3" height="8"/><rect class="cls-1" x="561" y="134" width="3" height="8"/><rect class="cls-1" x="561" y="145" width="3" height="8"/><rect class="cls-1" x="561" y="156" width="3" height="8"/><rect class="cls-1" x="561" y="167" width="3" height="8"/><rect class="cls-1" x="561" y="178" width="3" height="8"/><rect class="cls-1" x="561" y="189" width="3" height="8"/><rect class="cls-1" x="569" y="123" width="3" height="8"/><rect class="cls-1" x="569" y="134" width="3" height="8"/><rect class="cls-1" x="569" y="145" width="3" height="8"/><rect class="cls-1" x="569" y="156" width="3" height="8"/><rect class="cls-1" x="569" y="167" width="3" height="8"/><rect class="cls-1" x="569" y="178" width="3" height="8"/><rect class="cls-1" x="569" y="189" width="3" height="8"/><rect class="cls-1" x="569" y="200" width="3" height="8"/><polygon class="cls-1" points="299 95.11 299 115 318 115 318 120 350 120 350 106.09 299 95.11"/><path class="cls-2" d="M442,156.57V149h-7v6.86c-3.1,1.33-5.3,8.14-5.3,8.14h.3v5h18c0-4.07,0-4.77,0-4.93A8.09,8.09,0,0,0,442,156.57Z"/><rect class="cls-1" x="422" y="169" width="34" height="5"/><rect class="cls-1" x="413" y="196" width="4" height="7"/><rect class="cls-1" x="413" y="183" width="4" height="7"/><rect class="cls-1" x="421" y="196" width="4" height="7"/><rect class="cls-1" x="421" y="183" width="4" height="7"/><rect class="cls-1" x="429" y="196" width="4" height="7"/><polygon class="cls-1" points="433 183.33 433 190 429 190 429 189.33 429 183 433 183 433 183.33"/><rect class="cls-1" x="437" y="196" width="4" height="7"/><rect class="cls-1" x="437" y="183" width="4" height="7"/><rect class="cls-1" x="445" y="196" width="4" height="7"/><rect class="cls-1" x="445" y="183" width="4" height="7"/><rect class="cls-1" x="453" y="196" width="4" height="7"/><rect class="cls-1" x="453" y="183" width="4" height="7"/><rect class="cls-1" x="461" y="196" width="4" height="7"/><rect class="cls-1" x="461" y="183" width="4" height="7"/><rect class="cls-1" x="361" y="137" width="46" height="112"/><polygon class="cls-2" points="361 180.7 407 136.79 407 249 361 249 361 180.7"/><rect class="cls-1" x="68" y="230" width="26" height="18"/><rect class="cls-1" x="186" y="143" width="36" height="5"/><rect class="cls-1" x="186" y="153" width="36" height="5"/><polygon class="cls-1" points="563.84 105 553.16 105 549.21 117 567.79 117 563.84 105"/><path class="cls-1" d="M168,249V227a10,10,0,0,0-20,0v22Z"/><rect class="cls-7" x="90" y="57" width="46" height="191"/><rect class="cls-8" x="96" y="57" width="46" height="191"/><rect class="cls-9" x="190" y="215" width="46" height="33"/><rect class="cls-10" x="196" y="215" width="46" height="33"/><rect class="cls-9" x="290" y="221" width="46" height="27"/><rect class="cls-10" x="296" y="221" width="46" height="27"/><rect class="cls-9" x="390" y="226" width="46" height="22"/><rect class="cls-10" x="396" y="226" width="46" height="22"/><rect class="cls-9" x="490" y="233" width="46" height="15"/><rect class="cls-10" x="496" y="233" width="46" height="15"/><line class="cls-11" x1="598" y1="249" x2="36" y2="249"/><rect class="cls-12" x="103" y="73" width="6" height="6"/><rect class="cls-12" x="116" y="73" width="6" height="6"/><rect class="cls-12" x="129" y="73" width="6" height="6"/><rect class="cls-12" x="103" y="86" width="6" height="6"/><rect class="cls-12" x="116" y="86" width="6" height="6"/><rect class="cls-12" x="129" y="86" width="6" height="6"/><rect class="cls-12" x="103" y="99" width="6" height="6"/><rect class="cls-12" x="116" y="99" width="6" height="6"/><rect class="cls-12" x="129" y="99" width="6" height="6"/><rect class="cls-12" x="103" y="112" width="6" height="6"/><rect class="cls-12" x="116" y="112" width="6" height="6"/><rect class="cls-12" x="129" y="112" width="6" height="6"/><rect class="cls-12" x="103" y="125" width="6" height="6"/><rect class="cls-12" x="116" y="125" width="6" height="6"/><rect class="cls-12" x="129" y="125" width="6" height="6"/><rect class="cls-12" x="103" y="138" width="6" height="6"/><rect class="cls-12" x="116" y="138" width="6" height="6"/><rect class="cls-12" x="129" y="138" width="6" height="6"/><rect class="cls-12" x="103" y="151" width="6" height="6"/><rect class="cls-12" x="116" y="151" width="6" height="6"/><rect class="cls-12" x="129" y="151" width="6" height="6"/><rect class="cls-12" x="103" y="164" width="6" height="6"/><rect class="cls-12" x="116" y="164" width="6" height="6"/><rect class="cls-12" x="129" y="164" width="6" height="6"/><rect class="cls-12" x="116" y="177" width="6" height="6"/><rect class="cls-12" x="129" y="177" width="6" height="6"/><rect class="cls-12" x="129" y="190" width="6" height="6"/><rect class="cls-13" x="203" y="221" width="6" height="6"/><rect class="cls-13" x="216" y="221" width="6" height="6"/><rect class="cls-13" x="229" y="221" width="6" height="6"/><rect class="cls-13" x="203" y="234" width="6" height="6"/><rect class="cls-13" x="216" y="234" width="6" height="6"/><rect class="cls-13" x="229" y="234" width="6" height="6"/><rect class="cls-13" x="303" y="228" width="6" height="6"/><rect class="cls-13" x="316" y="228" width="6" height="6"/><rect class="cls-13" x="329" y="228" width="6" height="6"/><rect class="cls-13" x="403" y="232" width="6" height="6"/><rect class="cls-13" x="416" y="232" width="6" height="6"/><rect class="cls-13" x="429" y="232" width="6" height="6"/><rect class="cls-13" x="503" y="237" width="6" height="6"/><rect class="cls-13" x="516" y="237" width="6" height="6"/><rect class="cls-13" x="529" y="237" width="6" height="6"/></svg>