<svg xmlns="http://www.w3.org/2000/svg" viewBox="0 0 636 300"><title>swimlane-teamwork-climb-mountain</title><polygon points="331.189 154.597 416.216 57.12 529.416 191.294 319.828 191.294 331.189 154.597" fill="#d2d2d2"/><polygon points="416.215 57.12 416.215 213.312 529.416 191.294 416.215 57.12" fill="#c2c2c2"/><polygon points="222.096 196.441 323.249 103.195 417.955 194.026 222.096 196.441" fill="#d2d2d2"/><polygon points="373.513 196.441 323.249 103.195 417.955 194.026 373.513 196.441" fill="#c2c2c2"/><polygon points="435.847 98.279 446.079 92.517 416.215 57.12 382.681 95.566 395.837 90.211 405.098 95.472 421.955 88.105 435.847 98.279" fill="#e6e6e6"/><polygon points="416.215 57.12 416.215 90.614 421.955 88.105 435.847 98.279 446.079 92.517 416.215 57.12" fill="#d2d2d2"/><polygon points="330.646 131.822 343.821 122.925 323.249 103.195 294.022 130.137 305.347 126.547 314.731 131.822 323.249 123.291 330.646 131.822" fill="#e6e6e6"/><polygon points="343.821 122.925 323.249 103.195 336.537 127.845 343.821 122.925" fill="#d2d2d2"/><path d="M598,222.305c-18.541-25.468-51.641-42.6-89.547-42.6-37.769,0-70.869,17.134-89.409,42.6H598" fill="#b2b2b2"/><polygon points="515.306 140.256 513.107 196.61 517.504 196.61 515.306 140.256" fill="#72a642"/><polygon points="515.306 140.256 513.107 196.61 517.504 196.61 515.306 140.256" fill="#939393"/><polygon points="515.306 127.141 502.556 183.318 527.91 183.318 515.306 127.141" fill="#5b813a"/><polygon points="515.306 127.141 502.556 183.318 527.91 183.318 515.306 127.141" fill="#737373"/><polygon points="515.306 140.256 513.546 183.497 516.918 183.497 515.306 140.256" fill="#939393"/><polygon points="507.246 170.914 513.841 180.484 515.306 178.888 507.246 170.914" fill="#939393"/><polygon points="508.71 159.395 514.28 167.901 515.745 166.306 508.71 159.395" fill="#939393"/><polygon points="510.322 152.306 514.72 159.395 515.745 157.445 510.322 152.306" fill="#939393"/><polygon points="523.072 167.369 516.477 176.939 515.159 175.344 523.072 167.369" fill="#939393"/><polygon points="521.754 161.521 516.038 170.027 514.72 168.433 521.754 161.521" fill="#939393"/><polygon points="518.383 149.293 515.598 154.255 515.306 152.306 518.383 149.293" fill="#72a642"/><polygon points="550.828 192.539 545.177 176.256 548.558 176.256 541.112 154.688 544.192 154.688 535.638 129.735 526.907 154.688 530.088 154.688 522.541 176.256 526.098 176.256 520.448 192.539 550.828 192.539" fill="#c2c2c2"/><polygon points="543.145 175.743 537.387 182.341 536.89 167.337 541.398 159.082 536.791 164.332 536.353 151.103 539.653 144.909 536.266 148.481 535.638 129.493 534.963 149.856 534.938 149.881 534.96 149.936 534.849 153.307 530.574 148.638 534.761 155.977 534.372 167.695 529.527 162.066 534.284 170.37 534.011 178.579 528.653 172.014 533.932 180.991 533.018 208.566 538.255 208.566 537.499 185.731 543.145 175.743" fill="#939393"/><polygon points="235.772 197.722 230.932 185.521 233.828 185.521 227.45 169.358 230.088 169.358 222.761 150.66 215.282 169.358 218.007 169.358 211.542 185.521 214.589 185.521 209.749 197.722 235.772 197.722" fill="#d2d2d2"/><polygon points="229.191 185.137 224.259 190.081 223.834 178.837 227.695 172.651 223.748 176.586 223.373 166.672 226.2 162.03 223.299 164.707 222.761 150.478 222.183 165.737 222.162 165.757 222.18 165.798 222.085 168.324 218.423 164.825 222.009 170.324 221.676 179.106 217.526 174.887 221.601 181.11 221.368 187.262 216.777 182.342 221.299 189.069 220.517 209.733 225.003 209.733 224.355 192.621 229.191 185.137" fill="#d2d2d2"/><path d="M529.448,249.465a183.833,183.833,0,0,0-321.231,0Z" fill="#9ab208"/><path d="M340.943,249.465a125.525,125.525,0,0,0-223.715,0Z" fill="#9ab208"/><path d="M245.776,249.465a159.4,159.4,0,0,0-209.707,0Z" fill="#9ab208"/><path d="M185.333,219.145c-45.166-8-84.833.333-118.333,30.32h41.25c13-14.487,37.667-29.8,92.5-22.8C199.125,223.916,192.835,221.974,185.333,219.145Z" fill="#92a00e"/><path d="M200.667,226.645c28.833-28.333,66.583-33.6,99.646-23.667-3.577-3,.961-3.412-2.938-6-23.971-9.3-78.708-11.666-127.208,27.167C181,221.145,197.167,224.978,200.667,226.645Z" fill="#92a00e"/><path d="M451.346,174.6c-36.716-13.222-103.219-22.53-168.672,18.3a125.336,125.336,0,0,1,17.474,10.061c44.218-37.651,127.6-38.989,163.659-21.481Q457.729,177.81,451.346,174.6Z" fill="#92a00e"/><path d="M199.979,140.945a3.477,3.477,0,0,0,3.168-.132,3.566,3.566,0,0,0,1.633-4.409l-9.462-19.539a3.338,3.338,0,0,0-4.586-1.391,3.031,3.031,0,0,0-1.633,4.409Z" fill="#bb9167"/><path d="M194.179,132.673l7.188-3.319-6.049-12.489a3.338,3.338,0,0,0-4.585-1.391c-1.912.769-3.685,3.255-2.752,4.924Z" fill="#8867c8"/><path d="M224.189,132.815c-.193-1.831-.694-2.631-1.216-2.466s-1.155.311-1.155.311a1.028,1.028,0,0,0,.157-1.058c-.162-.34-.367-.352-.367-.352s-1.148.217-2.559.56a2.819,2.819,0,0,0-2.128,1.818c-.416.95-.9,1.045-.9,1.045l-14.029,2.792c-1.86.786-3.145,2.862-2.352,4.715a3.379,3.379,0,0,0,4.134,2.313l12-4.512c.582-.142,1.161-.28,1.646-.39a29.839,29.839,0,0,0,5.513-1.551c1.7-.682,1.453-1.38,1.259-3.225" fill="#bb9167"/><polygon points="193.417 109.02 186.136 107.156 183.411 116.13 191.426 118.525 193.417 109.02" fill="#bb9167"/><path d="M207.947,181.406a5.043,5.043,0,0,0,1.218-6.79l-8.084-10.372-9.771,6.985,10.684,11.236c1.549,2.046,3.669.656,5.953-1.059" fill="#bb9167"/><path d="M185.555,147.3l-3.666.3c-2.708,2.03-7.32,9.155-5.283,11.852l14.388,15.172,11.8-8.894Z" fill="#724aad"/><polygon points="209.861 176.456 212.915 207.819 207.642 209.199 200.656 179.863 209.861 176.456" fill="#bb9167"/><path d="M211.727,195.363s.727,7.26,1.285,12.142c.162,1.422-5.04,3.223-5.04,3.223l-3.211-13.63Z" fill="#d2d2d2"/><path d="M165.065,184.811a5.62,5.62,0,0,0,7.609-1.935l7.08-13.3-10.127-6.023-6.894,14.171a5.371,5.371,0,0,0,2.332,7.083" fill="#bb9167"/><path d="M177.422,175.77l13.888-21.429.551-4.254-7.647-8.162c-3.347,1.634-3.555,4.018-9.431,7.45s-11.46,18.548-11.46,18.548Z" fill="#724aad"/><path d="M158.812,122.807c-1.7.883-3.316,3.376-2.424,5.356.886,1.693,1.923,2.587,3.63,1.987l23.852-11.356a3.424,3.424,0,0,0,1.639-4.586c-.6-1.7-3.024-1.745-4.73-1.147Z" fill="#bb9167"/><path d="M163.323,126.574c-.127.058-.96-2.007-2.723-2.953-1.511-.809-3.33-.732-4.279,1.025l-7.364,16.009c-.949,1.757-2.2,4.984-.685,5.794,1.763.946,1.843,1.851,3.866-1.72Z" fill="#bb9167"/><polygon points="171.062 184.593 140.809 195.182 139.8 189.64 164.693 176.742 171.062 184.593" fill="#bb9167"/><polygon points="151.033 191.603 140.56 195.381 139.341 189.923 147.375 185.728 151.033 191.603" fill="#d2d2d2"/><path d="M188.781,115.976l-4.369-3.264c-.007,1.491-.517,4.2-4.571,4.393l-5.715,32.865,17.735.116,3.52-20.837a19.753,19.753,0,0,0-3.3-13.9c-.626.975-1.034,1.51-3.3.623" fill="#a996f0"/><path d="M169.583,126.574l14.775-6.5,0-.006c.038-.015.079-.027.116-.043a4.139,4.139,0,1,0-3.984-7.216l-14.229,6.231Z" fill="#8867c8"/><path d="M223.7,203.836a30.1,30.1,0,0,1-7.927-1.631c-2.474-1.2-4.806.947-4.27,2.315a1.872,1.872,0,0,0,.283.5,5.151,5.151,0,0,1-4.827,1.718l.873,5.29,19.735-5.393s.71-2.547-3.867-2.8" fill="#58595b"/><path d="M148.668,203.793a30.056,30.056,0,0,1-2.015-7.834c-.008-2.75-1.956-3.357-2.95-2.271a1.9,1.9,0,0,0-.328.478c-1.293-.88-3.658-4.464-3.687-4.5l-4.515,2.233a1.114,1.114,0,0,0-.344,1.732l13.018,14.874s2.6-.491.821-4.712" fill="#58595b"/><path d="M142.991,144.621c-1.636.749-2.271.989-2.611,2.029-.369,1.132-1.4,4.266.29,4.885a7.07,7.07,0,0,0,2.1-.293,5.263,5.263,0,0,1,2.088-.076,2.573,2.573,0,0,0,1.768-.276s.684.025,1.1.014a2.775,2.775,0,0,0,1.4-2.121c-.152-.62-6.131-4.162-6.131-4.162" fill="#bb9167"/><path d="M152.39,144.9a14.018,14.018,0,0,1-4.678,5.048,33.807,33.807,0,0,0-3.454,2.857,1.346,1.346,0,0,1-.492-2.053,25.446,25.446,0,0,0,2.228-3.368l-3.4.4s-2.314-1.493-1.3-2.279,8.305-3.722,8.305-3.722,4.084.73,2.782,3.116" fill="#bb9167"/><path d="M117.9,118.747s4.354,6.024,4.712,6.455-.258,1.09-1,1.232-3.045.351-3.045.351Z" fill="#deb98c"/><path d="M99.524,225.355l.1,2.051s4.979,1.756,6.273,1.271,1.295-2.38,1.295-2.38Z" fill="#939393"/><path d="M99.549,226.563a30.525,30.525,0,0,0,4.62,1.316c2,.343,3.126-1.791,3.126-1.791l1.78.116a13.082,13.082,0,0,0,5.545,4.474c1.451.677,3.1,1.35,3.131,2.216a5.381,5.381,0,0,1-.327,1.811s-15.748-1.509-16.638-1.567-1.258-.351-1.29-1.217S99.549,226.563,99.549,226.563Z" fill="#8e562e"/><path d="M106.026,171.4s13.612,23.269,14.193,24.438c1.781,3.577,2.914,5.076.846,9.964S109.6,226.669,109.6,226.669l-10.715-.188S107,210.543,110,203.916c1.188-2.625.914-4.693-.684-6.385s-13.911-17.3-13.911-17.3l8.648-10.151Z" fill="#505050"/><path d="M65.559,210.575l-1.7,1.271s1.13,5.377,2.228,6.231,2.717-.238,2.717-.238Z" fill="#939393"/><path d="M64.439,211.2A32.45,32.45,0,0,0,65.756,216c.765,1.954,3.181,1.706,3.181,1.706l.841,1.627a14.446,14.446,0,0,0-.893,7.441c.188,1.662.483,3.494-.239,4.023a5.444,5.444,0,0,1-1.72.758s-7.03-14.672-7.45-15.485-.365-1.305.358-1.833S64.439,211.2,64.439,211.2Z" fill="#8e562e"/><path d="M96.11,147.338l-10.574,5.147s-9.658,18.046-9.658,17.835-4.112-1.434-3.407-3.9,5.519-15.108,6.509-16.684c1.9-3.031,13.182-8.53,13.182-8.53Z" fill="#deb98c"/><path d="M77.852,165.808s.023.106.06.284a21.654,21.654,0,0,1,.574,3.875,19.842,19.842,0,0,1-1.621,3.243,9.052,9.052,0,0,0-.776,1.622s-.987-.141-.987-.7a31.04,31.04,0,0,1,.635-3.173s-2.82,1.481-3.172,1.763a11.378,11.378,0,0,0-1.269,3.1c-.141.634-1.41.493-1.41.493l-.212-.987s-.775.846-.987.353a3.64,3.64,0,0,1,.071-1.622s-1.058,0-.987-.564a17.986,17.986,0,0,1,1.48-4.371c.917-1.9,5.922-7.331,5.922-7.331Z" fill="#deb98c"/><polygon points="104.844 136.086 112.051 137.135 112.944 129.699 105.496 128.725 104.844 136.086" fill="#deb98c"/><path d="M112.608,132.7l-7.063-4.5a11.778,11.778,0,0,0,2.159,4.041,16.772,16.772,0,0,0,4.569,2.926Z" fill="#c1966e"/><path d="M119.648,112.417s.8,6.954,1.031,10.731a66.877,66.877,0,0,1,.133,8.874c-.123,1.7-1.089,2.178-3.709,1.933s-12.107-2.061-13.68-6.767c-1.479-4.426-.453-13.716,5.244-15.969s10.981,1.2,10.981,1.2" fill="#deb98c"/><path d="M120.114,110.891c1.044,3.859.469,5.5-2.781,5.5-4.137,0-4.895,6.708-4.895,6.708l-2.75-.125s.15,4.094-.188,4.917c-1.062,2.583-2.492,3.046-2.492,3.046s-5.445-2.525-6.07-10.713c-.44-5.76,3.5-9.859,9.7-10.338s9.477,1,9.477,1" fill="#8e562e"/><path d="M110.968,119.267c-.05-.006-.1-.021-.148-.023a3.225,3.225,0,0,0-3.49,2.89,3.166,3.166,0,0,0,3.065,3.291c.052,0,.1,0,.151,0Z" fill="#deb98c"/><path d="M97.974,147.982c1.553-5.248,1.691-10.841,5.586-13.011-2.761,1.176-8.968,3.89-13.654,6.446l4.465,8.224Z" fill="#0089de"/><path d="M346.054,76.736s-10.616,9.194-11.921,10.326-2.121,3.441-2.471,4.733c-.771,2.851-4.516,15.292-4.516,15.292l4.458.542s6.227-15.748,6.535-16.429,11.594-8.7,11.594-8.7l-3.992-5.8" fill="#8e562e"/><path d="M332.294,103.265s.885,4.448.52,5.677-2.247,4.862-2.366,5.246-.792,0-.882-.409a17.832,17.832,0,0,1,.213-2.3,3.212,3.212,0,0,0-1.379,1.336,16.094,16.094,0,0,0-1.214,3.042c-.328,1.127-1.714.746-1.386-.883a.6.6,0,0,1-1.1-.378c.065-.627.088-1.364.088-1.364s-1.47.429-1.021-.845a15.885,15.885,0,0,1,4.086-6.809C331.6,101.714,332.294,103.265,332.294,103.265Z" fill="#8e562e"/><path d="M355.4,66.031c-.221,1.356-.813,2.483-1.163,3.951-.341,1.427,5.279,4.46,5.613,3.909,1.242-2.049,2.019-3.49,2.019-3.49Z" fill="#8e562e" fill-rule="evenodd"/><path d="M353.387,164.961s-1,4.481-1.112,5.4-.561,2.049,2.935,2.021c4-.032,15.558-.32,15.558-.32s1.074-2.27-1.3-2.756-8.317-2.4-9.042-4.491S353.387,164.961,353.387,164.961Z" fill="#d2d2d2"/><path d="M353.36,107.853s17.2,24.531,18.545,26.844c1.7,2.922,2.135,4.868.437,9.021s-11.175,22.427-11.175,22.427l-7.667-1.333s9.08-23.691,9.271-24.515-5.074-7.074-9.4-11.218c-5.146-4.935-10.873-10.209-12.338-15.43S343.2,103,343.2,103Z" fill="#505050"/><path d="M309.275,164.508s-3.852,2.494-4.579,3.066-1.837,1.066.674,3.5c2.875,2.786,11.311,10.687,11.311,10.687s2.358-.864,1-2.88-4.242-7.545-3.292-9.544S309.275,164.508,309.275,164.508Z" fill="#d2d2d2"/><path d="M352.848,107.694s-6.021,28.52-12.032,37.611c-2.777,4.2-26.335,24.829-26.335,24.829l-6.429-5.207s20.007-20.839,21.745-24.355,6.187-16.887,5.277-25.429,3.023-11.83,4.785-13.548S352.848,107.694,352.848,107.694Z" fill="#505050"/><path d="M353.375,129.079c4.322,4.144,9.588,10.393,9.4,11.217-.032.139-.3.921-.729,2.107L372.1,144.3c.094-.214.18-.413.247-.579,1.7-4.153,1.267-6.1-.437-9.021-1.348-2.314-18.545-26.844-18.545-26.844L343.2,103s-3.626,5.432-2.161,10.652S348.229,124.144,353.375,129.079Z" fill="#505050"/><path d="M328.254,142.765l8.559,6.929a37.709,37.709,0,0,0,4-4.389c6.011-9.091,12.032-37.611,12.032-37.611s-11.227-7.817-12.989-6.1-5.694,5.006-4.785,13.548-3.54,21.913-5.277,25.429A15.477,15.477,0,0,1,328.254,142.765Z" fill="#505050"/><path d="M354.472,109.341a52.3,52.3,0,0,1-11.239-1.588c-3.666-1.018-8.011-4.211-8.011-4.211s9.3-6.215,10.466-15.387,2.41-13.055,4.551-15.367,3.537-3.3,4.142-3.029,5.952,3.442,5.952,3.442,2.389,9.541,2.547,12.091-3.727,7.428-5.471,9.992S354.472,109.341,354.472,109.341Z" fill="#ffb900"/><polygon points="353.454 70.297 343.676 77.519 347.83 84.048 353.454 70.297" fill="#ffb900"/><path d="M371.737,55.694c-.559-12.18-13.86-13.719-19.17-6.409S351,63.238,355.387,67.049c3.465,3.43,8.559,3.775,10.752,4.242,2.83.511,2.972-.757,2.972-.757.5-1.564,1.348-6.3,2.41-7.186,2.9-.123,1.968-1.084,1.77-1.478a31.557,31.557,0,0,1-1.979-5.246c.354-.3.071-.634.425-.93Z" fill="#8e562e" fill-rule="evenodd"/><path d="M360.467,63.087s-.484,4-3.277,3.936h0a12.875,12.875,0,0,1-7.166-6.616c-.3-.354-.863-.138-1.235-.169-3.834-.315-6.6-5.287-6.119-9.292s4-6.342,8-5.482c.617.084.913.438,1.53.522a14.413,14.413,0,0,1,3.518-2.337,9.01,9.01,0,0,1,5.316-.84,13.5,13.5,0,0,1,8.509,4.3c2.47.338,4.537,2.812,4.724,5.656a5.735,5.735,0,0,1-2.042,4.106h0a8.478,8.478,0,0,1-4.912-1.3l-2.067-2.475h0l-.3,6.849c-.349.892-1.235-.169-1.235-.169a13.257,13.257,0,0,0-2.389-2.205c-.3-.354-1.036-.539-1.235-.169C358.921,59.578,360.467,63.087,360.467,63.087Z" fill="#512c20" fill-rule="evenodd"/><circle cx="368.367" cy="59.37" r="0.709"/><path d="M369.983,67.142q.1-.366.2-.726c-.174-.052-.348-.1-.509-.139a4.858,4.858,0,0,0-2.043-.684,6.091,6.091,0,0,0,1.562,1.139C369.481,66.9,369.747,67.032,369.983,67.142Z" fill="#8a0000" fill-rule="evenodd"/><path d="M359.552,82.254s1.926,12.723,2.063,13.2c.232.816,15.334,7.926,15.334,7.926a20.365,20.365,0,0,1,4.88-1.236,8.516,8.516,0,0,1,4.117,1.536c1.09.693-.162,1.567-.162,1.567s.471,1.052.266,1.506-1.607.731-1.607.731.735.551-.13,1.253-2.151.886-4.5.642a15.734,15.734,0,0,1-4.9-1.617s-14.481-5.462-16.453-6.3-3.224-1.5-4.071-5.544-1.6-12.046-1.6-12.046Z" fill="#8e562e"/><path d="M361.083,88.9,351.782,90s-1.252-7.715-1.376-11.7c-.182-5.879,8.551-6.082,9.036-1.6S361.083,88.9,361.083,88.9Z" fill="#e29e05"/><path d="M257.888,103.479s-6.634,7.792-7.757,9.139a6.16,6.16,0,0,0-1.429,5.964c.715,2.886,5.1,13.852,5.1,13.852l9.084-26.646Z" fill="#bb9167"/><path d="M269.092,98.952l8.135,1.419a.136.136,0,0,0,.14-.122l2.486-12.585a.129.129,0,0,0-.085-.161l-8.135-1.419a.137.137,0,0,0-.141.122l-2.485,12.585A.129.129,0,0,0,269.092,98.952Z" fill="#ab845f"/><path d="M285.277,90.3l.016-3.971-.018-1.479a.483.483,0,0,1,.568-.487l1.158.06a.55.55,0,0,0,.524-.641l-1.041-3.792a2.237,2.237,0,0,1-.1-1.048l0-4.96a.146.146,0,0,0-.121-.14L270.53,70.752a.154.154,0,0,0-.179.105l-.519,1.91a.152.152,0,0,1-.182.1l-3-.669a.154.154,0,0,0-.181.1c-.5,1.608-4.95,17.606,17.577,19.1A1.144,1.144,0,0,0,285.277,90.3Z" fill="#bb9167"/><path d="M280.682,75.062a7.756,7.756,0,0,1,1.92-.253,18.953,18.953,0,0,0,2.2-.049c.238-.032,1.845-.261,1.643-.81l-.062-.085-6.275-1.336-.027,0c-1.234-.071-2.365.17-2.708,1.5-.177.488-.732,4.431.415,3.754.256-.1.312-.385.446-.657a4.037,4.037,0,0,1,1.07-1.425A3.756,3.756,0,0,1,280.682,75.062Z" fill="#ab845f"/><path d="M283.322,79.427a.594.594,0,0,1-.622.46.738.738,0,0,1-.713-.514c-.139-.5.409-.848.868-.766A.714.714,0,0,1,283.322,79.427Z"/><path d="M269.382,70.819a.152.152,0,0,0,.195-.131c.024-.583.322-2.383,3.029-3.25,2.926-.948,7.7-1.053,12.183-.037,1.779.428,2.11-.589,2.163-1.134a.154.154,0,0,1,.26-.084,5.719,5.719,0,0,1,1.538,5.6c-.907,3.367-4.479,2.51-6.113,2.073l-2.231-.544a1.422,1.422,0,0,0-1.749,1.311l-.026,5.088a.147.147,0,0,1-.139.142l-1.294.1a.455.455,0,0,1-.544-.393c-.2-.923-.785-3.084-2.706-2.839a2.088,2.088,0,0,0-1.5,3.192c.5,1.044,1.406,1.574,1.253,2.722a3.869,3.869,0,0,1-3.982,3.84.164.164,0,0,1-.114-.043c-6.2-5.748-3.08-14.345-3.08-14.345A2.343,2.343,0,0,1,269.382,70.819Z"/><path d="M284.505,86.357l-3.651-.126a.144.144,0,0,0-.131.225l.812,1.114a.991.991,0,0,0,.846.444l2.034.021a.148.148,0,0,0,.153-.135l.084-1.392A.147.147,0,0,0,284.505,86.357Z" fill="#ab845f"/><path d="M284.511,86.357l-3.674-.127a.144.144,0,0,0-.135.219l.463.7a.154.154,0,0,0,.128.068l3.2.022a.148.148,0,0,0,.153-.141l.014-.6A.147.147,0,0,0,284.511,86.357Z" fill="#fff"/><path d="M268.91,132.242l13.779,11.832s-3.266,3.463-4.389,4.329-5.613,3.751-5.613,3.751-16.636-10.485-18.065-12.313,0-14.14,0-14.14Z" fill="#464646"/><path d="M266.767,94.148c-2.858,2.117-10.512,9.235-10.512,9.235s6.124,5.1,5.817,5.483S266.767,94.148,266.767,94.148Z" fill="#b2b2b2"/><path d="M274.446,176.019c-1.484,2.94-4.779,8.376-4.779,8.376l6.166,2.375s2.612-4.316,4.75-7.5Z" fill="#f3f3f3"/><path d="M238.156,186.572c-2.031,3.563-4.593,8.031-4.593,8.031l6.218,3.219s2.747-4.241,5.125-7.562C242.4,188.862,239.834,187.467,238.156,186.572Z" fill="#f3f3f3"/><path d="M263.333,147.312l19.254,12.249L271.5,180.812l10.5,3.666s12.13-23.389,12.588-24.761.457-4.576-4.118-8.923-22.65-19.218-22.65-19.218Z" fill="#464646"/><path d="M268.6,129.356s-.408,6.253-1.02,10.774a100.361,100.361,0,0,1-3.266,14.141,46.52,46.52,0,0,1-14.9-2.5c.918-5.58.306-12.891,1.122-17.7.6-3.526,2.96-9.909,4.491-11.64S268.6,129.356,268.6,129.356Z" fill="#505050"/><path d="M251.805,128.83a38.517,38.517,0,0,0-2.138,11.148c0,5.262-.836,24.314-.836,24.314l-14.664,26.769,10.067,4.576s14.663-24.481,15.578-26.083,6.188-19.576,7.779-28.369C268.352,136.979,251.805,128.83,251.805,128.83Z" fill="#505050"/><path d="M247.994,201.914c-3.876-1.914-4.414-2.82-5.488-4.628l-.393-.785s-1.091-2.031-2.435,0c-.428.646-4.98-1.774-5.912-2.258-.6,1.071-1.27,2.305-1.615,3.018-.966,2-1.036,4.287,2.006,4.879,2.828.551,12.561,2.772,13.676,3.005C249.281,205.447,250.781,203.291,247.994,201.914Z" fill="#505050"/><path d="M284.114,188.822a13.4,13.4,0,0,1-5.79-4.5.724.724,0,0,0-.732-.169,1.483,1.483,0,0,0-1.1,1.424c-.1.644-4.918-.611-6.7-1.461a30.46,30.46,0,0,0-1.483,3.026c-.623,1.61-2.389,4.233.363,4.449s14.777.568,15.912.55S287.44,190.153,284.114,188.822Z" fill="#505050"/><path d="M103.625,172.6s-2.625,23.375-7.261,32.67c-1.6,3.2-26.669,14.127-26.669,14.127l-4.7-8.609L87.593,198s-2.435-23.941,3.907-29.269C96.966,164.136,103.625,172.6,103.625,172.6Z" fill="#737373"/><path d="M115,141.417a8.224,8.224,0,0,0-2.926-4.653s-3.665.071-5.075-.634a4.978,4.978,0,0,1-2.01-1.763s-8.882,3.666-15.086,7.05l4.465,8.224,3.6-1.659a54.037,54.037,0,0,1-4.684,10.636c-2.045,3.308-7.425,8.224-7.425,8.224a27.044,27.044,0,0,0,13.065,6.016,28.651,28.651,0,0,0,7.754-.282l3.066-16.6,6.417-1.583S115.708,144.519,115,141.417Z" fill="#00abeb"/><path d="M200.757,106.864a2.6,2.6,0,0,0,.185-1.136l.3-2.423.21-1.252.564.109a1.168,1.168,0,0,0,1.288-1.623l-1.165-2.612.381-2.3A9.618,9.618,0,0,0,194.9,84.358l-1.566-.3a9.62,9.62,0,0,0-11.273,7.62l-1.019,5.268a9.62,9.62,0,0,0,7.618,11.272l1.419,1.431-.81,4.712,2.894-1.587.791-1.625c.5-3.417,3.283-2.81,3.283-2.81l-.028-.011,2.106.031a2.557,2.557,0,0,0,2.438-1.491" fill="#bb9167"/><path d="M190.167,109.4a2.4,2.4,0,0,0,.85-2.9l-7.187-3.039-3.139,3.148-1.143-.473c-1.307-.541-4.756-1.942-6.56-1.035a3.967,3.967,0,0,0-1.982,3.182s-2.745.925-2.271,3.575,5.36,5.859,10.117.359c5.7,5.334,8.856-1.091,9.431-2.431A2.084,2.084,0,0,0,190.167,109.4Z" fill="#505050"/><path d="M195.1,99.563l-.356-.069a1.82,1.82,0,0,1-1.44-2.13l.252-1.3a1.82,1.82,0,0,1,2.13-1.44,1.382,1.382,0,0,1,.8.475,3.7,3.7,0,0,0,.013-.674l-.124-1.543a3.085,3.085,0,0,1,1.41-2.842,2.576,2.576,0,0,1,2.276-.2l2.108.775c-.3-3.947-3.42-6.387-7.045-7.47a11.427,11.427,0,0,0-4.958-.417c-3,.292-7.048,1.984-7.91,6.44l-1.229,6.355a3.535,3.535,0,0,0-3.567,4.248,3.773,3.773,0,1,0,1.949,7.074,4.14,4.14,0,0,0,4.258.716,2.364,2.364,0,0,0,4.415.057c.085.026.166.059.254.077a2.775,2.775,0,0,0,3.25-2.2c.017-.091.015-.178.023-.266l2.084-1.409Z" fill="#505050"/><path d="M199.34,97.375a.839.839,0,1,0,1.149-.3.839.839,0,0,0-1.149.3"/><path d="M190.335,104.738a3.12,3.12,0,1,1,4.27-1.109,3.124,3.124,0,0,1-4.27,1.109m2.866-4.876a2.536,2.536,0,1,0,.9,3.471,2.539,2.539,0,0,0-.9-3.471" fill="#fff"/><path d="M198.462,96.367h0a.293.293,0,0,1-.1-.4,2.031,2.031,0,0,1,2.589-.8l.246.113a.282.282,0,0,1,.145.387.293.293,0,0,1-.387.144l-.247-.113a1.448,1.448,0,0,0-1.845.571.293.293,0,0,1-.4.1"/><path d="M201.336,102.886l-1.564-.031-.133.9a.909.909,0,0,0,.872,1.041l.566-.045Z" fill="#704322"/><path d="M274.758,120.006l-5.2,13.012a22.259,22.259,0,0,1-10.5-.79,69.714,69.714,0,0,1-8.25-3.312l8.84-22.228s5.086-11.08,7.847-13.376,7.916-.043,10,2.166c2.6,2.756,2.78,7.536,1.643,11.976S274.758,120.006,274.758,120.006Z" fill="#c2c2c2"/><path d="M275.083,108.372s1.3,10.257,1.3,11.175,15.267,5.358,15.754,5.2,2.6-1.837,3.9-1.837a45.164,45.164,0,0,1,5.685,1.071v1.072a2.637,2.637,0,0,1,.649,2.755c-.487,1.837-.487,4.746-4.872,4.593a10.935,10.935,0,0,1-6.642-2.184s-14.847-2.816-17.4-3.48c-3.629-.945-4.343-1.811-5.058-5.274-.983-4.767-1.763-11.718-1.763-11.718Z" fill="#bb9167"/><path d="M265.5,112.812l11.044-1.072s-.649-8.572-.974-11.94-10.882-2.909-10.557,2.143S265.5,112.812,265.5,112.812Z" fill="#b2b2b2"/><path d="M141.8,159.338c.048-.523-.587-.808-.587-.808a.963.963,0,0,0,.387-.885c-.158-.864-2.93-.218-2.93-.218s.725-.454.687-.811a1.029,1.029,0,0,0-.3-.593s-.549.068-.975.077a15.565,15.565,0,0,0-3.267.388,30.91,30.91,0,0,0-2.932,2.385c-2.436.382-11.586,1.814-12.988,1.979a1.12,1.12,0,0,1-1.384-.88c-.1-.481-1.573-6.607-1.573-6.607l-7.262.994a74.986,74.986,0,0,0,1.641,7.935c1.032,3.727,2.692,5.717,6.232,5.188,1.908-.285,15.043-3.2,16.468-3.518.961,0,2.431.006,2.986-.007a7.353,7.353,0,0,0,4.331-1.448.7.7,0,0,0-.037-.9s.906-.367.946-.811a.939.939,0,0,0-.319-.643S141.75,159.9,141.8,159.338Z" fill="#deb98c"/><path d="M116.786,154.7s-1.084-8.889-1.71-13.179c-.634-4.34-8.883-3.384-8.389,1.577.519,5.214,1.933,13.057,1.933,13.057Z" fill="#0089de"/></svg>