<svg xmlns="http://www.w3.org/2000/svg" viewBox="0 0 636 300"><title>swimlane-security</title><path d="M492.682,286.224H109.137a2.993,2.993,0,0,1-2.863-2.971,2.926,2.926,0,0,1,2.863-2.97H492.682a2.867,2.867,0,0,1,2.863,2.97A2.929,2.929,0,0,1,492.682,286.224Z" fill="#c8c8c8"/><rect x="270" y="264.75" width="14.006" height="18.25" fill="#737373"/><rect x="399" y="264.75" width="14.006" height="18.25" fill="#737373"/><path d="M413.089,105.787H278.927a6.417,6.417,0,0,0-1.816.262l-7.489,2.2A6.438,6.438,0,0,0,265,114.427V264.312a6.437,6.437,0,0,0,6.438,6.438H413.089a6.437,6.437,0,0,0,6.438-6.438V112.225A6.437,6.437,0,0,0,413.089,105.787Z" fill="#c78e00"/><rect x="265" y="109.095" width="146" height="161.655" rx="4.631" fill="#edac28"/><rect x="282.5" y="126.5" width="112" height="104.5" rx="11.196" fill="#fec94e"/><path d="M375.22,179.5a27.887,27.887,0,1,1-27.888-27.872A27.936,27.936,0,0,1,375.22,179.5Z" fill="#efefef"/><path d="M325.305,196.668A27.929,27.929,0,0,0,375.219,179.5H347.13Z" fill="#b2b2b2"/><path d="M347.13,192.83a13.33,13.33,0,1,1,13.337-13.33A13.32,13.32,0,0,1,347.13,192.83Z" fill="#c2c2c2"/><path d="M347.13,167.18A12.32,12.32,0,1,1,334.8,179.5,12.373,12.373,0,0,1,347.13,167.18Zm0-2.222A14.542,14.542,0,1,0,361.68,179.5,14.485,14.485,0,0,0,347.13,164.958Z" fill="#939393"/><path d="M353.192,177.682H341.27v3.434h11.922Z" fill="#939393"/><path d="M340.8,196.265l-2.977,9.437,2.12.668,2.976-9.438Z" fill="#c2c2c2"/><path d="M354.526,152.408l-1.518,4.815,2.12.668,1.518-4.815Z" fill="#c8c8c8"/><path d="M333.549,197.874l-2.807,4.2,1.849,1.235,2.806-4.2Z" fill="#c2c2c2"/><path d="M361.812,155.663l-5.5,8.229,1.848,1.234,5.5-8.228Z" fill="#c8c8c8"/><path d="M367.974,160.507l-3.871,3.245,1.428,1.7,3.871-3.244Z" fill="#c8c8c8"/><path d="M325.844,187.635l-4.625,2.034.9,2.034,4.624-2.034Z" fill="#b2b2b2"/><path d="M372.359,167.282l-9.063,3.985.895,2.034,9.064-3.985Z" fill="#c8c8c8"/><path d="M329.151,180.688l-9.818,1.293.291,2.2,9.817-1.293Z" fill="#c8c8c8"/><path d="M374.847,174.732l-5.009.66.291,2.2,5.008-.66Z" fill="#c8c8c8"/><path d="M319.864,174.183l-.339,2.2,4.794.737.338-2.2Z" fill="#c8c8c8"/><path d="M365.048,181.113l-.338,2.2,9.787,1.5.338-2.195Z" fill="#c2c2c2"/><path d="M322.33,166.631l-.939,2.013,8.974,4.183.939-2.014Z" fill="#c8c8c8"/><path d="M368.532,188.189l-.939,2.013,4.578,2.134.94-2.013Z" fill="#c2c2c2"/><path d="M326.826,160.188l-1.465,1.67,3.8,3.329,1.466-1.67Z" fill="#c8c8c8"/><path d="M361.4,190.5l-1.465,1.67,7.445,6.525,1.465-1.671Z" fill="#c2c2c2"/><path d="M333.122,155.234l-1.875,1.193,5.321,8.348,1.875-1.195Z" fill="#c8c8c8"/><path d="M360.6,198.205l-1.875,1.193,2.715,4.26,1.874-1.195Z" fill="#c2c2c2"/><path d="M340.552,152.407l-2.134.622,1.414,4.847,2.134-.621Z" fill="#c8c8c8"/><path d="M353.359,196.343l-2.134.621,2.77,9.5,2.134-.622Z" fill="#c2c2c2"/><path d="M348.342,151.628H346.12v9.9h2.222Z" fill="#ff8c00"/><path d="M348.342,202.323H346.12v5.049h2.222Z" fill="#c2c2c2"/><rect x="389.5" y="141.5" width="9" height="20" fill="#939393"/><rect x="389.5" y="196.5" width="9" height="20" fill="#939393"/><circle cx="299.333" cy="168.333" r="9.428" fill="#edac28"/><rect x="296.333" y="165.333" width="5.667" height="35.333" rx="2.833" fill="#939393"/><path d="M479.772,282.377H441.38a30.887,30.887,0,0,1,15.824-6.419V172.225h-5.223a1.634,1.634,0,0,1-1.54-1.485,1.486,1.486,0,0,1,1.54-1.465H457.2V165.6a6.393,6.393,0,0,1-3.661-5.682,6.947,6.947,0,0,1,13.878,0,6.394,6.394,0,0,1-3.661,5.682v3.671h5.2a1.5,1.5,0,0,1,1.56,1.465,1.654,1.654,0,0,1-1.56,1.485h-5.2V275.958a32.3,32.3,0,0,1,16.012,6.419" fill="#939393"/><path d="M456.623,159.921a6.394,6.394,0,0,0,3.662,5.683v3.672H457.2V165.6a6.393,6.393,0,0,1-3.661-5.683,6.747,6.747,0,0,1,6.941-6.614,3.968,3.968,0,0,1,1.54.182,6.756,6.756,0,0,0-5.4,6.432" fill="#505050"/><path d="M453.542,170.74a1.635,1.635,0,0,0,1.54,1.484h-3.1a1.635,1.635,0,0,1-1.54-1.484,1.487,1.487,0,0,1,1.54-1.465h3.1a1.487,1.487,0,0,0-1.54,1.465" fill="#505050"/><path d="M457.2,275.958V172.224h3.082V275.958a30.907,30.907,0,0,0-15.819,6.42H441.38a30.878,30.878,0,0,1,15.824-6.42" fill="#505050"/><path d="M248.97,282.377h-38.2a30.894,30.894,0,0,1,15.826-6.419V172.225h-5.224a1.634,1.634,0,0,1-1.54-1.485,1.486,1.486,0,0,1,1.54-1.465h5.224V165.6a6.38,6.38,0,0,1-3.676-5.682,6.953,6.953,0,0,1,13.89,0,6.391,6.391,0,0,1-3.661,5.682v3.671h5.2a1.492,1.492,0,0,1,1.546,1.465,1.64,1.64,0,0,1-1.546,1.485h-5.2V275.958a30.965,30.965,0,0,1,15.824,6.419" fill="#939393"/><path d="M226.017,159.921a6.391,6.391,0,0,0,3.663,5.683v3.672h-3.088V165.6a6.382,6.382,0,0,1-3.676-5.683,6.763,6.763,0,0,1,6.954-6.614,4.46,4.46,0,0,1,1.54.182,6.75,6.75,0,0,0-5.393,6.432" fill="#505050"/><path d="M222.917,170.74a1.635,1.635,0,0,0,1.54,1.484h-3.088a1.634,1.634,0,0,1-1.54-1.484,1.486,1.486,0,0,1,1.54-1.465h3.088a1.487,1.487,0,0,0-1.54,1.465" fill="#505050"/><path d="M226.592,275.958V172.224h3.087V275.958a30.857,30.857,0,0,0-15.824,6.42h-3.087a30.871,30.871,0,0,1,15.824-6.42" fill="#505050"/><path d="M236.808,169.641a3.765,3.765,0,0,1,3.278-1.83,4,4,0,0,1,2.714.911,6.405,6.405,0,0,1,7.131-1.466l2.317,1.1-5.211,10.105-2.309-1.1a5.382,5.382,0,0,1-2.7-7.352,2.345,2.345,0,0,0-1.945-.733,2.136,2.136,0,0,0-1.926,1.1.948.948,0,0,1-1.155.367c-.387-.181-.387-.733-.2-1.1" fill="#ffb900"/><path d="M453.927,169.641a4.373,4.373,0,0,0-3.486-1.83,4.783,4.783,0,0,0-2.7.911,6.393,6.393,0,0,0-7.127-1.466l-2.121,1.1,5.2,10.105,2.123-1.1a5.637,5.637,0,0,0,2.891-7.352,1.916,1.916,0,0,1,1.737-.733,2.715,2.715,0,0,1,2.134,1.1.72.72,0,0,0,.967.367.863.863,0,0,0,.385-1.1" fill="#ffb900"/><path d="M335.214,195.893c-33.378,0-61.169-5.682-87.784-18.166l4.237-8.452c33.19,15.433,63.486,17.085,83.547,17.085,41.475,0,87.835-9.732,103.659-17.085l4.434,8.452c-26.616,12.484-74.9,18.166-108.093,18.166" fill="#0078d7"/><path d="M448.7,170.194c-2.311,1.278-4.816,2.578-7.325,3.863l1.738,3.3.575,1.1,2.121-1.1a5.43,5.43,0,0,0,2.891-7.167" fill="#db9d00"/><path d="M241.835,170.194a5.734,5.734,0,0,0,.581,5.329h.19v.186a4.713,4.713,0,0,0,2.121,1.652l2.311,1.1.579-1.1,1.738-3.3c-2.7-1.285-5.012-2.585-7.52-3.863" fill="#db9d00"/><path d="M441.379,174.056c-22.567,10.652-73.17,17.254-106.36,17.254-32.994,0-63.292-6.6-85.663-17.254l-1.737,3.3-.189.368c26.616,12.483,54.407,18.164,87.785,18.164,33.19,0,81.475-5.681,108.091-18.164l-.189-.368Z" fill="#235399"/><path d="M447.162,65.819a1.827,1.827,0,0,0,2.311.733l2.892-1.466a1.665,1.665,0,0,0,.771-2.2l-3.852-7.169a1.835,1.835,0,0,0-2.317-.733l-2.893,1.466a1.678,1.678,0,0,0-.771,2.219Z" fill="#939393"/><path d="M541.887,88.035H510.05a2.638,2.638,0,0,1-2.123-1.28L493.648,54.981l4.259-1.832,13.7,30.487h30.279Z" fill="#b2b2b2"/><path d="M484.784,54.8c0,5.7,4.818,10.284,11,10.284a10.3,10.3,0,1,0,0-20.569c-6.182,0-11,4.594-11,10.285" fill="#008272"/><path d="M484.784,54.8c0,5.7,4.818,10.284,11,10.284a10.3,10.3,0,1,0,0-20.569c-6.182,0-11,4.594-11,10.285" fill="#b2b2b2"/><path d="M530.9,90.052a2.9,2.9,0,0,0,2.892,2.753h5.4a2.727,2.727,0,0,0,2.7-2.753V81.606a2.721,2.721,0,0,0-2.7-2.751h-5.4a2.894,2.894,0,0,0-2.892,2.751Z" fill="#008272"/><path d="M530.9,90.052a2.9,2.9,0,0,0,2.892,2.753h5.4a2.727,2.727,0,0,0,2.7-2.753V81.606a2.721,2.721,0,0,0-2.7-2.751h-5.4a2.894,2.894,0,0,0-2.892,2.751Z" fill="#004b50"/><path d="M530.9,90.052a2.9,2.9,0,0,0,2.892,2.753h5.4a2.727,2.727,0,0,0,2.7-2.753V81.606a2.721,2.721,0,0,0-2.7-2.751h-5.4a2.894,2.894,0,0,0-2.892,2.751Z" fill="#939393"/><path d="M452.365,65.819a2.9,2.9,0,0,0,3.661,1.279l4.838-2.379a2.428,2.428,0,0,0,1.157-3.49l-6.183-11.75a2.675,2.675,0,0,0-3.663-1.1l-4.824,2.2a2.468,2.468,0,0,0-1.154,3.484Z" fill="#b2b2b2"/><path d="M520.67,43.045a7.349,7.349,0,0,0,3.466-9.918l-7.129-13.583a8.117,8.117,0,0,0-10.425-3.3L453.906,41.213a7.521,7.521,0,0,0-3.468,9.917l7.13,13.59a8.039,8.039,0,0,0,10.425,3.11Z" fill="#939393"/><path d="M505.23,85.656a5.016,5.016,0,0,0,5.014,4.948,4.966,4.966,0,1,0,0-9.918,5.018,5.018,0,0,0-5.014,4.97" fill="#939393"/><path d="M508.508,85.656a1.727,1.727,0,0,0,1.736,1.83,1.783,1.783,0,0,0,1.944-1.83,1.893,1.893,0,0,0-1.944-1.838,1.848,1.848,0,0,0-1.736,1.838" fill="#b2b2b2"/><path d="M550,73.352H539.19a2.727,2.727,0,0,0-2.7,2.752V95.555a2.73,2.73,0,0,0,2.7,2.764H550Z" fill="#b2b2b2"/><path d="M119.692,126.5l-5.783,22.775c-1.737,6.614,3.661,17.433,10.04,18l-3.872-40.408Z" fill="#004b50"/><path d="M119.692,126.5l-5.783,22.775c-1.737,6.614,3.661,17.433,10.04,18l-3.872-40.408Z" fill="#737373"/><path d="M177,126.691,172.944,167.1c6.568-.383,11.769-11.382,10.039-17.816L177.2,126.5Z" fill="#004b50"/><path d="M177,126.691,172.944,167.1c6.568-.383,11.769-11.382,10.039-17.816L177.2,126.5Z" fill="#737373"/><path d="M171.976,181.412H124.908l-5.216-54.54a17.035,17.035,0,0,1,16.014-12.663l25.472-.188A17.058,17.058,0,0,1,177.2,126.69Z" fill="#737373"/><polygon points="148.442 143.589 141.118 114.022 155.767 114.022 148.442 143.589" fill="#fff"/><path d="M129.732,265.678h10.812L141.7,225.47l4.622-23.134a7.1,7.1,0,0,1,2.121-.733c.386,0,.771.181,2.507.547l4.432,23.32,1.177,40.208h10.6l4.435-39.656.383-44.609H125.1l.385,44.609Z" fill="#505050"/><path d="M148.253,201.6h-1.737c-1.351.181-2.122,0-3.474.733L138.4,225.47l2.142,40.208L141.7,225.47l4.624-23.134a8.2,8.2,0,0,1,1.931-.733" fill="#3c3c3c"/><polygon points="168.314 181.412 167.93 226.024 167.157 265.677 171.592 226.024 171.975 181.412 168.314 181.412" fill="#3c3c3c"/><path d="M148.442,201.6c.581,0,1.157-.186,1.738-.186a6.621,6.621,0,0,1,3.276.733l5.028,23.32-2.123,40.208-1.169-40.208-4.242-23.32a12.17,12.17,0,0,0-2.508-.547" fill="#737373"/><polygon points="128.57 181.412 129.151 226.024 129.733 265.677 125.49 226.024 124.908 181.412 128.57 181.412" fill="#737373"/><path d="M169.666,132.026c-5.014-.187-5.98-2.018-5.98-2.018s-.959,1.831-6.171,2.018c0,0-.573,8.434,6.171,11.564,6.553-3.13,5.98-11.564,5.98-11.564" fill="#edac28"/><path d="M164.842,142.857c-.19,0-.19,0-.19.186,0-.186,0-.186.19-.186m-.19.186h0Zm-.2.18h0Zm-.19,0c-.195,0-.195,0-.195.188,0-.188,0-.188.195-.188m-.195.188h0Zm-.19,0h0Zm-.194,0v0Z" fill="#336f73"/><rect x="128.571" y="181.415" width="39.548" height="5.133" fill="#3c3c3c"/><path d="M122.4,280.014v2.018a1.362,1.362,0,0,0,1.352,1.466h16.979v-1.833H123.753a1.6,1.6,0,0,1-1.352-1.651"/><path d="M140.732,257.611v24.054H123.753a1.6,1.6,0,0,1-1.352-1.652v-2.947s-.385-1.285,1.549-2.385c1.539-.733,4.431-4.034,4.817-5.5v-11.57Z" fill="#737373"/><path d="M140.151,257.611l-2.709,11.57a12.947,12.947,0,0,1-4.628,5.5c-2.121,1.1-1.738,2.385-1.738,2.385v2.947a1.6,1.6,0,0,0,1.353,1.652h8.3V257.611Z" fill="#505050"/><path d="M174.5,280.014v2.018a1.369,1.369,0,0,1-1.363,1.466H156.171v-1.833h16.962a1.61,1.61,0,0,0,1.363-1.651"/><path d="M156.171,257.611v24.054h16.962a1.61,1.61,0,0,0,1.363-1.652v-2.947s.385-1.285-1.552-2.385c-1.549-.733-4.441-4.034-4.825-5.5v-11.57Z" fill="#737373"/><path d="M174.5,280.014v2.018a1.369,1.369,0,0,1-1.363,1.466H156.171v-1.833h16.962a1.61,1.61,0,0,0,1.363-1.651"/><path d="M172.943,274.681c-1.548-.733-4.439-4.034-4.824-5.5V257.61h-.771l-3.082,11.571c.386,1.466,3.278,4.767,4.818,5.5,1.927,1.1,1.542,2.385,1.542,2.385v2.947a1.6,1.6,0,0,1-1.346,1.652h3.853a1.611,1.611,0,0,0,1.364-1.652v-2.947s.384-1.283-1.554-2.385" fill="#505050"/><path d="M138.017,114.208a1.3,1.3,0,0,0,1.365-1.286v-9h18.135v9a1.291,1.291,0,0,0,1.35,1.286l-7.336,4.962a5.545,5.545,0,0,1-3.088.919,6.006,6.006,0,0,1-3.082-.919Z" fill="#d0b28d"/><path d="M141.7,105.221,151.72,118.99l7.147-4.782a1.29,1.29,0,0,1-1.35-1.285v-8.068Z" fill="#a38c6d"/><path d="M127.8,93.285a3.775,3.775,0,0,0,3.859,3.664,3.674,3.674,0,0,0,0-7.348,3.783,3.783,0,0,0-3.859,3.684" fill="#d0b28d"/><path d="M161.564,93.285a3.775,3.775,0,0,0,3.859,3.664,3.674,3.674,0,0,0,0-7.348,3.783,3.783,0,0,0-3.859,3.684" fill="#d0b28d"/><path d="M148.442,73.814c-9.249,0-16.784,4.037-16.784,12.85v13.588a6.891,6.891,0,0,0,1.737,4.6l8.108,7.515a4.193,4.193,0,0,0,3.278,1.467H152.3a4.089,4.089,0,0,0,3.08-1.467l8.115-7.515a7.137,7.137,0,0,0,1.926-4.6V86.664c0-8.813-7.71-12.85-16.981-12.85" fill="#d0b28d"/><path d="M152.1,92a2.864,2.864,0,0,0-2.7,2.936l.573,4.764a2.256,2.256,0,0,1,1.352,2.753h-6.358l3.466,2.769,2.121,4.95a7.118,7.118,0,0,0-2.121-.366c-1.736,0-3.082.731-3.466,1.832h6.169l.96,2.2a4.848,4.848,0,0,0,3.276-1.278l8.116-7.7a6.3,6.3,0,0,0,1.736-4.6V87.036Z" fill="#b89e7c"/><path d="M148.253,108.339c-3.088,0-4.048-.553-4.244-.733-.194,0-.194-.368,0-.553a.373.373,0,0,1,.582,0,11.82,11.82,0,0,0,3.662.367,10.417,10.417,0,0,0,4.048-.553c.383,0,.574,0,.77.186,0,.367,0,.553-.387.733a12.949,12.949,0,0,1-4.431.553" fill="#b48c70"/><path d="M160.989,89.415h-24.9v3.87a5.308,5.308,0,1,0,10.615,0h3.472a5.3,5.3,0,0,0,5.4,5.316,5.462,5.462,0,0,0,5.411-5.5Z" fill="#3c3c3c"/><path d="M130.692,83.179v12.3a1.29,1.29,0,0,0,1.352,1.285c.959,0,1.54-.552,1.54-1.285v-12.3Z" fill="#737373"/><path d="M163.3,83.179v12.3c0,.733.58,1.285,1.54,1.285a1.286,1.286,0,0,0,1.351-1.285v-12.3Z" fill="#737373"/><path d="M148.442,68.312c-28.749,0-20.256,13.768-16.98,18.171,0,1.833,7.534,5.7,16.98,5.7s16.981-4.049,16.981-5.7c3.276-4.4,11.775-18.171-16.981-18.171" fill="#737373"/><path d="M135.321,86.483h0c-3.278-4.217-11.373-17.619,15.047-18.17h-1.926c-28.749,0-20.255,13.767-16.98,18.17,0,1.832,7.535,5.7,16.98,5.7h1.926c-8.479-.566-15.047-4.05-15.047-5.7" fill="#505050"/><path d="M161.564,86.483h0c3.277-4.217,11.379-17.619-15.048-18.17h1.926c28.756,0,20.256,13.767,16.981,18.17,0,1.832-7.521,5.7-16.981,5.7h-1.926c8.481-.566,15.048-4.05,15.048-5.7" fill="#939393"/><path d="M166.964,84.1a.81.81,0,0,0-.771-.733h-35.5a.807.807,0,0,0-.769.733v2.018a.855.855,0,0,0,.769.918l35.5-.185a.81.81,0,0,0,.771-.733Z" fill="#008272"/><path d="M129.922,84.1h0v2.018a.95.95,0,0,0,.771.918.95.95,0,0,1-.771-.918Z" fill="#339b8e"/><path d="M133.4,83.366h-2.7a.81.81,0,0,0-.771.733.81.81,0,0,1,.771-.733Z" fill="#336467"/><path d="M166.193,83.366h-35.5a.808.808,0,0,0-.77.733v2.018a.952.952,0,0,0,.77.919l35.5-.186a.81.81,0,0,0,.771-.733V84.1a.81.81,0,0,0-.771-.733" fill="#ff8c00"/><rect x="146.517" y="117.153" width="3.856" height="46.442" fill="#ff8c00"/><polygon points="159.253 114.022 157.517 111.636 148.442 117.152 139.382 111.636 137.632 114.022 146.321 119.903 148.442 117.705 150.563 119.903 159.253 114.022" fill="#fff"/></svg>