<svg xmlns="http://www.w3.org/2000/svg" viewBox="0 0 636 300"><title>swimlane-docker-three-platforms</title><path d="M570.357,187.5H81.451c-11.42,0-21.35,8.481-22.447,19.849A22.093,22.093,0,0,0,81.1,231.5H94.137c5.226,0,5.226,8,0,8H39.147c-8.569,0-16.923,6.886-18.117,15.371A18,18,0,0,0,38.844,275.5H418.653c8.569,0,16.923-6.886,18.117-15.371A18,18,0,0,0,418.956,239.5H388.037c-5.547,0-7.574-8-.214-8H570.7a22.1,22.1,0,0,0,22.122-23.874C591.864,196.142,581.881,187.5,570.357,187.5Z" fill="#d9ebf9"/><path d="M246.5,97.5v-11h13v-8h-37v83h55v-64Z" fill="#ccc"/><path d="M222.5,67.5h-40v30h40Z" fill="#505050"/><path d="M222.5,67.5h-14v33h14Z" fill="#737373"/><path d="M440.6,220.5H158.319a3.167,3.167,0,0,1-3.163-2.43,3.041,3.041,0,0,1,3.044-3.57H440.481a3.167,3.167,0,0,1,3.163,2.43A3.041,3.041,0,0,1,440.6,220.5Z" fill="#b5d5ea"/><path d="M264.735,234.5h-69.68a3.139,3.139,0,0,1-3.137-2.43,3.012,3.012,0,0,1,2.946-3.57h69.681a3.139,3.139,0,0,1,3.137,2.43A3.013,3.013,0,0,1,264.735,234.5Z" fill="#fff"/><path d="M331.037,234.5H309.55a3.137,3.137,0,0,1-3.136-2.43,3.011,3.011,0,0,1,2.946-3.57h21.385a3.143,3.143,0,0,1,3.141,2.43A3,3,0,0,1,331.037,234.5Z" fill="#fff"/><path d="M442.5,120.5h-29v40h29Z" fill="#c78e00"/><path d="M523.5,120.5h-81v40h81Z" fill="#ffb900"/><path d="M355.5,120.5h-29v40h29Z" fill="#d63c18"/><path d="M435.5,120.5h-80v40h80Z" fill="#e06c47"/><path d="M268.5,120.5h-29v40h29Z" fill="#409ae1"/><path d="M348.5,120.5h-80v40h80Z" fill="#69afe5"/><path d="M403.5,80.5h-29v40h29Z" fill="#505050"/><path d="M483.5,80.5h-80v40h80Z" fill="#737373"/><path d="M316.5,80.5h-29v40h29Z" fill="#c78e00"/><path d="M396.5,80.5h-80v40h80Z" fill="#ffb900"/><path d="M208.5,160.5H86.5v46h122Z" fill="#737373"/><path d="M248.5,160.5v-22h-26v-41h-80v41h-26v22h92v46H465.987a96.28,96.28,0,0,0,80.3-43.371L548,160.5Z" fill="#939393"/><path d="M153.5,106.5h-6v6h6Z" fill="#fff"/><path d="M215.5,106.5h-6v6h6Z" fill="#fff"/><path d="M199.5,106.5h-6v6h6Z" fill="#fff"/><path d="M184.5,106.5h-6v6h6Z" fill="#fff"/><path d="M168.5,106.5h-6v6h6Z" fill="#fff"/><path d="M153.5,117.5h-6v6h6Z" fill="#fff"/><path d="M215.5,117.5h-6v6h6Z" fill="#fff"/><path d="M199.5,117.5h-6v6h6Z" fill="#fff"/><path d="M184.5,117.5h-6v6h6Z" fill="#fff"/><path d="M168.5,117.5h-6v6h6Z" fill="#fff"/><path d="M153.5,128.5h-6v6h6Z" fill="#fff"/><path d="M215.5,128.5h-6v6h6Z" fill="#fff"/><path d="M199.5,128.5h-6v6h6Z" fill="#fff"/><path d="M184.5,128.5h-6v6h6Z" fill="#fff"/><path d="M168.5,128.5h-6v6h6Z" fill="#fff"/><rect x="322.645" y="86.5" width="1.711" height="30" fill="#e0a100"/><rect x="330.645" y="86.5" width="1.711" height="30" fill="#e0a100"/><rect x="337.645" y="86.5" width="1.711" height="30" fill="#e0a100"/><rect x="345.645" y="86.5" width="1.711" height="30" fill="#e0a100"/><rect x="352.645" y="86.5" width="1.711" height="30" fill="#e0a100"/><rect x="359.645" y="86.5" width="1.711" height="30" fill="#e0a100"/><rect x="367.645" y="86.5" width="1.711" height="30" fill="#e0a100"/><rect x="374.645" y="86.5" width="1.711" height="30" fill="#e0a100"/><rect x="382.645" y="86.5" width="1.711" height="30" fill="#e0a100"/><rect x="389.645" y="86.5" width="1.711" height="30" fill="#e0a100"/><rect x="274.644" y="126.5" width="1.712" height="30" fill="#409ae1"/><rect x="282.644" y="126.5" width="1.712" height="30" fill="#409ae1"/><rect x="289.644" y="126.5" width="1.712" height="30" fill="#409ae1"/><rect x="297.644" y="126.5" width="1.712" height="30" fill="#409ae1"/><rect x="304.644" y="126.5" width="1.712" height="30" fill="#409ae1"/><rect x="311.644" y="126.5" width="1.712" height="30" fill="#409ae1"/><rect x="319.645" y="126.5" width="1.711" height="30" fill="#409ae1"/><rect x="326.645" y="126.5" width="1.711" height="30" fill="#409ae1"/><rect x="334.645" y="126.5" width="1.711" height="30" fill="#409ae1"/><rect x="341.645" y="126.5" width="1.711" height="30" fill="#409ae1"/><rect x="362.645" y="125.5" width="1.711" height="30" fill="#d63c18"/><rect x="370.645" y="125.5" width="1.711" height="30" fill="#d63c18"/><rect x="377.645" y="125.5" width="1.711" height="30" fill="#d63c18"/><rect x="385.645" y="125.5" width="1.711" height="30" fill="#d63c18"/><rect x="392.645" y="125.5" width="1.711" height="30" fill="#d63c18"/><rect x="399.645" y="125.5" width="1.711" height="30" fill="#d63c18"/><rect x="407.645" y="125.5" width="1.711" height="30" fill="#d63c18"/><rect x="414.645" y="125.5" width="1.711" height="30" fill="#d63c18"/><rect x="422.645" y="125.5" width="1.711" height="30" fill="#d63c18"/><rect x="429.645" y="125.5" width="1.711" height="30" fill="#d63c18"/><rect x="410.645" y="87.5" width="1.711" height="29" fill="#505050"/><rect x="417.645" y="87.5" width="1.711" height="29" fill="#505050"/><rect x="424.645" y="87.5" width="1.711" height="29" fill="#505050"/><rect x="432.645" y="87.5" width="1.711" height="29" fill="#505050"/><rect x="439.645" y="87.5" width="1.711" height="29" fill="#505050"/><rect x="447.645" y="87.5" width="1.711" height="29" fill="#505050"/><rect x="454.645" y="87.5" width="1.711" height="29" fill="#505050"/><rect x="461.645" y="87.5" width="1.711" height="29" fill="#505050"/><rect x="469.645" y="87.5" width="1.711" height="29" fill="#505050"/><rect x="476.645" y="87.5" width="1.711" height="29" fill="#505050"/><rect x="448.645" y="125.5" width="1.711" height="30" fill="#e0a100"/><rect x="456.645" y="125.5" width="1.711" height="30" fill="#e0a100"/><rect x="463.645" y="125.5" width="1.711" height="30" fill="#e0a100"/><rect x="470.645" y="125.5" width="1.711" height="30" fill="#e0a100"/><rect x="478.645" y="125.5" width="1.711" height="30" fill="#e0a100"/><rect x="485.645" y="125.5" width="1.711" height="30" fill="#e0a100"/><rect x="493.645" y="125.5" width="1.711" height="30" fill="#e0a100"/><rect x="500.645" y="125.5" width="1.711" height="30" fill="#e0a100"/><rect x="507.645" y="125.5" width="1.711" height="30" fill="#e0a100"/><rect x="515.645" y="125.5" width="1.711" height="30" fill="#e0a100"/><circle cx="288" cy="110" r="32" fill="#409ae1"/><path d="M288,144a34,34,0,1,1,34-34A34.038,34.038,0,0,1,288,144Zm0-64a30,30,0,1,0,30,30A30.034,30.034,0,0,0,288,80Z" fill="#fff"/><path d="M274.5,99.136l11-1.449V108.5h-11Zm12-1.672V108.5h15V95.569Zm0,24.183,15,2.007V109.5h-15Zm-12-1.783,11,1.56V109.5h-11Z" fill="#fff"/><circle cx="396" cy="178" r="32" fill="#d63c18"/><path d="M396,212a34,34,0,1,1,34-34A34.038,34.038,0,0,1,396,212Zm0-64a30,30,0,1,0,30,30A30.034,30.034,0,0,0,396,148Z" fill="#fff"/><path d="M403.611,185.516a1.663,1.663,0,0,0-.1-1.1,3.524,3.524,0,0,1,3.2.4,2.967,2.967,0,0,1-1.9,1.7C404.111,186.616,403.511,186.216,403.611,185.516Zm6.1,3.2c-1-.8-1.7-1.2-1.7-2.4s-.6-1.5-1.1-.7a2.616,2.616,0,0,1-2.7,1.4,1.189,1.189,0,0,1-1.1-1.3c.1-.6-.2-.9-.7-.9-.7,0-1.2,0-1.2,1.2a26.565,26.565,0,0,1-.3,5.3c-.4,2.5.1,3.5,1.7,3.7,1.8.2,2.6-1.1,4.2-2.1,1.3-.8,2.7-1.7,3.4-2.1S411.011,189.616,409.711,188.716Zm-12.3,2.7a7.672,7.672,0,0,1-3.8.3l.1,1.7s2-.1,3.2-.1,3,.1,3,.1l.5-3.9A8.639,8.639,0,0,1,397.411,191.416Zm-8.3-6.3s2.2,3.4,2.7,4c.8,1,1.7-.3.4-1.4A37.664,37.664,0,0,0,389.111,185.116Zm-.5.3c-.9-1.1-1.5-2.1-2.8-.4s-1.6,1.5-3.1,2c-.8.3-.7.7-.6,1.3a15.138,15.138,0,0,1-.1,2.9c-.1,1.3.5,1.6,1.4,1.8a26.857,26.857,0,0,1,5.4,1.5,2.9,2.9,0,0,0,3.6-.4,2.268,2.268,0,0,0,.2-3C391.911,190.216,389.511,186.616,388.611,185.416Zm9.5-17.5c.1-.1,0-.3-.1-.4-.029-.029-.059-.057-.088-.081a.957.957,0,0,1,.184.483Zm-4.311,0c.1-.1.1-.2,0-.4-.1-.1-.2-.2-.3-.2v.1a1.221,1.221,0,0,1,.175.492C393.717,167.941,393.758,167.958,393.8,167.916ZM386.1,183.7a6.668,6.668,0,0,1,.5-3.1,30.3,30.3,0,0,1,4-6.7c1.5-1.8,1.2-3.7,1-5.9s-.8-7,4-7.3c5.1-.3,6,3.6,6.2,5.9s0,4.1,2.4,7.2,4.7,7.5,3.6,10.1c-.1.3-.6.3-.8.3a3.1,3.1,0,0,0-2.3-.7c1.2-2.7.8-5.4-1.5-6.6-.1-.1-.3-.2,0,0,.8.6,3.1,2.9,1.1,6.6a2.192,2.192,0,0,0-.8.3v.1a1,1,0,0,0-.4-.1,12.741,12.741,0,0,0-1-6.5c-1.5-3.6-2.4-5.4-2.5-5.7s-.2-.5.1-1.4a1.222,1.222,0,0,0-.5-1.4,4.355,4.355,0,0,0,.3-1.8,1.855,1.855,0,0,0-1.8-1.8,1.688,1.688,0,0,0-1.5,1c-.3.4-.1,1.3-.1,1.3h-1.4s.4-.6-.3-1.5-1.7-.8-2,.5a3.239,3.239,0,0,0-.061,1.074.685.685,0,0,1,1.161-.158v.3c.058.058.117.145.175.192a3.857,3.857,0,0,1,.025.908,2.967,2.967,0,0,1,1.1-.4,3.809,3.809,0,0,1,1.7.4v-1a.759.759,0,0,1,1.2-.6.91.91,0,0,1,.223.219c-.071-.059-.141-.09-.212-.019-.1,0,0,.2.1.4.1.1.2.2.3.1a1.242,1.242,0,0,1-.707,1.2c.1.1.3.1.5.2a1.6,1.6,0,0,1,.918.8,1.118,1.118,0,0,0-.607.1c-.9.4-2.5,1.5-3.5,1.4a3.119,3.119,0,0,1-2-.7c-.4-.3-.5,0-.1.3a3.4,3.4,0,0,0,2.1.9c.9.1,2.7-.9,3.6-1.5.4-.267.534-.41.517-.475a2.419,2.419,0,0,1,.172.475c-.1.7-.9,1.2-2.6,2.1-1.5.9-2.7.4-3.8-.8-.019-.019-.031-.035-.05-.054A2.9,2.9,0,0,1,392,173.8c-1.7,2.1.2,2.4.2,2.4a3.486,3.486,0,0,0-1.6,1.1,10.078,10.078,0,0,0-1.8,6.4,1.866,1.866,0,0,0-.4-.3c-.7-2.1.4-4.4,1-5.8.1-.4,0-.3-.2,0-.5.7-2,3.7-1.3,5.6a1.268,1.268,0,0,0-.6-.1A1.9,1.9,0,0,0,386.1,183.7Zm9.411-14.884c0,.1.1.2.3.2.2.1.4.1.4,0a1.238,1.238,0,0,0-.3-.2C395.711,168.716,395.511,168.716,395.511,168.816Zm4.8,2.7c.2.9.9,1.1,1.3.7.5-.4-.3-.8-.8-1C400.311,170.916,400.211,171.116,400.311,171.516Zm-2.4-8.3c0,.2.2.6.6.4a.526.526,0,0,0,.2-.9C398.411,162.416,397.911,162.716,397.911,163.216ZM391.9,170.2a1.5,1.5,0,0,0,.044.268,2.008,2.008,0,0,1,.356-.552,4.349,4.349,0,0,1,.7-.6,2.382,2.382,0,0,1-.391-.45A1.738,1.738,0,0,0,391.9,170.2Z" fill="#fff"/><circle cx="445" cy="65" r="32" fill="#737373"/><path d="M445,99a34,34,0,1,1,34-34A34.038,34.038,0,0,1,445,99Zm0-64a30,30,0,1,0,30,30A30.034,30.034,0,0,0,445,35Z" fill="#fff"/><path d="M434.25,63.65v4.313h-1.586V64.148a3.093,3.093,0,0,0-.31-1.591,1.145,1.145,0,0,0-1.049-.493,1.263,1.263,0,0,0-1.057.622,2.545,2.545,0,0,0-.434,1.49v3.787h-1.593V64.02q0-1.957-1.381-1.956a1.25,1.25,0,0,0-1.057.588,2.6,2.6,0,0,0-.412,1.524v3.787h-1.586v-7h1.586V62.07h.027a2.427,2.427,0,0,1,2.207-1.271,2.072,2.072,0,0,1,1.268.4,1.983,1.983,0,0,1,.742,1.049,2.5,2.5,0,0,1,2.324-1.449Q434.251,60.8,434.25,63.65Zm7.309-.24v4.553H440.02V66.869h-.028a2.311,2.311,0,0,1-2.125,1.258,2.232,2.232,0,0,1-1.617-.561,1.951,1.951,0,0,1-.584-1.482q0-1.983,2.283-2.311l2.078-.294q0-1.5-1.422-1.5a3.377,3.377,0,0,0-2.255.862V61.455a4.919,4.919,0,0,1,2.556-.656A2.327,2.327,0,0,1,441.559,63.41Zm-1.532,1.115-1.47.2a2.35,2.35,0,0,0-1.03.331.975.975,0,0,0-.343.851.935.935,0,0,0,.316.729,1.235,1.235,0,0,0,.852.283,1.567,1.567,0,0,0,1.2-.51,1.8,1.8,0,0,0,.476-1.281Zm4.043-2.677a3.806,3.806,0,0,0-1.029,2.779A3.45,3.45,0,0,0,444,67.152a3.366,3.366,0,0,0,2.516.975,3.932,3.932,0,0,0,1.99-.484V66.262a2.547,2.547,0,0,1-1.613.607,2.141,2.141,0,0,1-1.623-.629,2.36,2.36,0,0,1-.606-1.715,2.48,2.48,0,0,1,.643-1.781,2.162,2.162,0,0,1,1.646-.68,2.551,2.551,0,0,1,1.559.547V61.135a3.989,3.989,0,0,0-1.688-.336A3.678,3.678,0,0,0,444.07,61.848Zm13.7-2.485a5.062,5.062,0,0,1,1.262,3.576,5.361,5.361,0,0,1-1.291,3.793,4.479,4.479,0,0,1-3.453,1.395,4.414,4.414,0,0,1-3.395-1.373,5.051,5.051,0,0,1-1.273-3.576,5.347,5.347,0,0,1,1.3-3.774A4.567,4.567,0,0,1,454.451,58,4.311,4.311,0,0,1,457.775,59.363Zm-.439,3.733a4.151,4.151,0,0,0-.791-2.713,2.664,2.664,0,0,0-2.176-.957,2.725,2.725,0,0,0-2.191,1,4.6,4.6,0,0,0-.024,5.277,2.643,2.643,0,0,0,2.147,1,2.769,2.769,0,0,0,2.22-.949A3.965,3.965,0,0,0,457.336,63.1Zm9.121,1.343a2.809,2.809,0,0,0-.547-.789,4.481,4.481,0,0,0-.8-.65c-.3-.2-.625-.383-.966-.561-.334-.144-.627-.281-.879-.406a3.981,3.981,0,0,1-.643-.387,1.423,1.423,0,0,1-.4-.437,1.129,1.129,0,0,1-.137-.566,1,1,0,0,1,.178-.6,1.382,1.382,0,0,1,.461-.4,2.16,2.16,0,0,1,.642-.227,3.916,3.916,0,0,1,.723-.068,3.587,3.587,0,0,1,2.146.6V58.346a5.338,5.338,0,0,0-2.242-.35,5.6,5.6,0,0,0-1.326.16,3.809,3.809,0,0,0-1.16.492,2.667,2.667,0,0,0-.82.842,2.252,2.252,0,0,0-.311,1.2,2.44,2.44,0,0,0,.182.979,2.56,2.56,0,0,0,.5.748,4.082,4.082,0,0,0,.75.605c.287.182.595.362.929.54q.464.213.871.406a4.733,4.733,0,0,1,.707.408,1.734,1.734,0,0,1,.469.467,1.082,1.082,0,0,1,.168.605,1.124,1.124,0,0,1-.5.992,2.743,2.743,0,0,1-1.527.342,3.741,3.741,0,0,1-.643-.062,5.419,5.419,0,0,1-.7-.174,4.349,4.349,0,0,1-.66-.277,2.589,2.589,0,0,1-.535-.37v1.676a2.283,2.283,0,0,0,.539.233,6.979,6.979,0,0,0,.711.173c.252.047.5.084.734.11a6,6,0,0,0,.606.037,6.6,6.6,0,0,0,1.4-.143,3.653,3.653,0,0,0,1.172-.464,2.319,2.319,0,0,0,1.111-2.092A2.318,2.318,0,0,0,466.457,64.439Z" fill="#fff"/></svg>