<svg xmlns="http://www.w3.org/2000/svg" viewBox="0 0 636 300"><title>swimlane-aspnet-extends-dotnet</title><polygon points="628.25 109.093 465.659 8.436 176.407 194.575 336.842 296.62 628.25 109.093" fill="#7b91a0"/><polygon points="628.25 107.093 465.659 6.436 176.407 192.575 336.842 294.62 628.25 107.093" fill="#dae9f8"/><path d="M352.443,127.866l-6.167-.257a.5.5,0,0,1-.378-.169l-5.427-7.642c-.063-.088-.012-.173.089-.218l-.025-.01,1.381-.764.9,1.018a32.994,32.994,0,0,1,6.661,1.732,27.631,27.631,0,0,1,7.814,4.974Z" fill="#939393"/><path d="M358.742,145.7s-.172-.373-2.37-1.148-21.669-4.319-21.669-4.319-5.6-2.237-7.141-7.11c-1.253-3.973.883-8.025,1.715-9.388a.253.253,0,0,1,.118-.09l-.017-.032,1.39-.77-.017,2,5.275,7.185a.674.674,0,0,0,.675.18l20.587-5.676s1.022,4.953,2.6,7.062,5.5,7.172,5.5,7.172l4.8,3.731Z" fill="#939393"/><path d="M360.207,144.631a12.859,12.859,0,0,0-3.044-1.4c-2.2-.774-21.854-4.2-21.854-4.2a11.407,11.407,0,0,1-6.358-6.678c-1.253-3.973.883-8.025,1.715-9.388a.478.478,0,0,1,.68.023l6.069,8.267a.674.674,0,0,0,.675.18l20.587-5.676s1.022,4.953,2.6,7.062,5.671,7.355,5.671,7.355l4.634,3.548Z" fill="#f3f3f3"/><path d="M347.289,126.672l-5.429-7.643c-.1-.135.054-.274.28-.251a35.787,35.787,0,0,1,8.723,2.009,27.631,27.631,0,0,1,7.814,4.974l-4.845,1.336-6.17-.257A.492.492,0,0,1,347.289,126.672Z" fill="#f3f3f3"/><path d="M360.5,136.138l-3.975-4.68a2.509,2.509,0,0,0-2.446-.576l-5.646,1.688c-.861.258-1.163.933-.675,1.509l3.975,4.68a2.513,2.513,0,0,0,2.446.576l5.646-1.688C360.684,137.389,360.986,136.714,360.5,136.138Z" fill="#939393"/><path d="M358.643,135.882l-3.023-3.56a.6.6,0,0,0-.585-.138l-5.771,1.726c-.206.061-.278.223-.161.361l3.023,3.56a.6.6,0,0,0,.585.137l5.771-1.725C358.688,136.181,358.76,136.02,358.643,135.882Z" fill="none"/><polygon points="354.211 131.846 355.471 131.469 357.188 137.219 355.941 137.592 354.211 131.846" fill="#d2d2d2"/><polygon points="352.356 132.351 353.616 131.974 355.333 137.724 354.086 138.097 352.356 132.351" fill="#d2d2d2"/><polygon points="350.501 132.856 351.761 132.479 353.478 138.229 352.231 138.601 350.501 132.856" fill="#d2d2d2"/><path d="M427.384,189.427c4.688-.18,10.04-3.435,8.538-7.675-.811-2.286-2.189-3.451-4.846-4.829l-63.349-36.156a1.92,1.92,0,0,0-1.844-.035l-7.372,5.117a2.091,2.091,0,0,0,.608,2.146L418.935,187.5A14.487,14.487,0,0,0,427.384,189.427Zm-1.23-3.186c-2.893-.04-5.445-1.571-5.7-3.419s1.884-3.315,4.777-3.276,5.445,1.571,5.7,3.419S429.047,186.28,426.154,186.241Z" fill="none"/><path d="M427.486,188.148c4.657-.2,8.226-2.525,8.415-5.5.144-2.272-1.56-4.357-4.183-5.714l-62.949-36.85a1.906,1.906,0,0,0-1.832-.026l-8.212,5.272c-.329.211-.311.566.041.8l60.2,39.879.018-.012A14.741,14.741,0,0,0,427.486,188.148Zm-1.187-3.159c-2.873-.027-5.391-1.536-5.624-3.371s1.907-3.3,4.779-3.273,5.391,1.535,5.624,3.37S429.171,185.016,426.3,184.989Z" fill="#b2b2b2"/><polygon points="428.761 68.437 421.36 73.182 413.437 68.167 420.838 63.421 428.761 68.437" fill="#939393"/><polygon points="468.209 39.78 437.731 59.321 435.09 57.649 465.568 38.108 468.802 37.685 468.209 39.78" fill="#fff"/><path d="M415.956,87.329l9.008,10.051a1.981,1.981,0,0,1-.452,3.226l-7.183,4.605L407.605,92.1Z" fill="#b2b2b2"/><path d="M457.954,117.022l-7.413,4.752c-4.265,1.778-9.515.852-14.136-3.111l-27.984-31.3-15.447,15.372L426.13,137.9c-.894,1.53-.235,3.431,1.9,4.785l12.874,8.149c2.808,1.778,7.086,1.936,9.556.353L481,131.609c2.469-1.583,2.194-4.308-.614-6.085l-12.874-8.15C464.7,115.6,460.423,115.439,457.954,117.022Z" fill="#fff"/><path d="M435.855,147.635l6.439,4.076c2.808,1.777,7.086,1.935,9.555.352l30.535-19.577c2.469-1.583,2.194-4.308-.614-6.085l-6.439-4.076Z" fill="#b2b2b2"/><polygon points="439.991 63.34 442.674 59.306 435.246 54.604 428.601 56.13 439.991 63.34" fill="#d2d2d2"/><path d="M441.286,65.244l-8.749,5.609a4.308,4.308,0,0,1-4.238-.12l-11.392-7.211c-1.23-.779-1.327-1.988-.216-2.7l8.749-5.609a4.31,4.31,0,0,1,4.239.12l11.391,7.211C442.3,63.323,442.4,64.531,441.286,65.244Z" fill="#b2b2b2"/><polygon points="430.149 58.451 422.094 63.615 420.113 62.361 428.168 57.197 430.149 58.451" fill="#939393"/><polygon points="434.11 60.959 426.056 66.123 424.075 64.869 432.13 59.705 434.11 60.959" fill="#939393"/><polygon points="438.072 63.466 430.017 68.631 428.036 67.377 436.091 62.212 438.072 63.466" fill="#939393"/><path d="M429.2,77.776l-10.349,8.8L395.679,71.35l13.638-6.7a4.056,4.056,0,0,1,3.659.269l15.638,9.9C429.945,75.658,430.2,76.928,429.2,77.776Z" fill="#b2b2b2"/><path d="M417.949,87.567,374.835,115.21a6.981,6.981,0,0,1-6.871-.2l-17.373-11c-1.994-1.262-2.151-3.221-.35-4.376L393.354,72a6.983,6.983,0,0,1,6.872.2l17.373,11C419.593,84.454,419.75,86.413,417.949,87.567Z" fill="#fff"/><polygon points="381.678 87.267 357.006 103.085 353.705 100.996 378.377 85.177 381.678 87.267" fill="#b2b2b2"/><path d="M358.7,109.15l9.215,5.834a7,7,0,0,0,6.877.253l43.2-27.7c1.777-1.14,1.579-3.1-.442-4.38l-9.215-5.833Z" fill="#d2d2d2"/><polygon points="379.457 100.469 366.685 108.657 365.034 107.613 377.806 99.424 379.457 100.469" fill="#939393"/><polygon points="382.428 102.35 369.656 110.538 368.005 109.493 380.777 101.305 382.428 102.35" fill="#939393"/><polygon points="385.399 104.231 372.627 112.419 370.977 111.374 383.748 103.186 385.399 104.231" fill="#939393"/><path d="M319.477,252.147l64.245-41.222c.947-.607,1.1-1.982.069-3.279l-91.455-56.713s-1.577,2.405-1.349,3.595L314.216,250.8C314.507,252.216,317.837,253.2,319.477,252.147Zm6.621-23.388-11-45.95c-.227-.39.5-.661.971-.362l42.946,27.169c.521.33-.242.333-.712.635L327.182,229.03C326.828,229.257,326.178,229.094,326.1,228.759Z" fill="none"/><path d="M318.22,251.089l65.055-41.742c1.014-.651.925-1.755-.2-2.466L294.261,150.7c-1.017-.644-2.327-.148-2.091.781L315.883,250.5C316.057,251.227,317.458,251.578,318.22,251.089Zm9.717-22.8-11-45.95c-.226-.39.5-.661.971-.362l41.211,26.071c.521.329.562.842.092,1.144l-30.186,19.368C328.667,228.789,328.017,228.626,327.937,228.291Z" fill="#fff"/><polygon points="301.725 156.292 300.689 155.637 297.547 157.654 298.582 158.309 301.725 156.292" fill="#d2d2d2"/><polygon points="308.62 160.654 307.585 159.999 304.442 162.016 305.478 162.671 308.62 160.654" fill="#d2d2d2"/><polygon points="315.516 165.017 314.48 164.362 311.338 166.378 312.373 167.033 315.516 165.017" fill="#d2d2d2"/><polygon points="322.411 169.379 321.376 168.724 318.232 170.74 319.268 171.395 322.411 169.379" fill="#d2d2d2"/><polygon points="329.306 173.741 328.271 173.086 325.128 175.102 326.163 175.757 329.306 173.741" fill="#d2d2d2"/><polygon points="336.201 178.103 335.166 177.448 332.024 179.464 333.059 180.119 336.201 178.103" fill="#d2d2d2"/><polygon points="343.097 182.465 342.061 181.81 338.919 183.826 339.954 184.481 343.097 182.465" fill="#d2d2d2"/><polygon points="349.992 186.827 348.957 186.172 345.814 188.189 346.85 188.844 349.992 186.827" fill="#d2d2d2"/><polygon points="356.888 191.189 355.853 190.534 352.709 192.55 353.745 193.205 356.888 191.189" fill="#d2d2d2"/><polygon points="363.783 195.551 362.747 194.896 359.605 196.912 360.64 197.568 363.783 195.551" fill="#d2d2d2"/><polygon points="370.678 199.913 369.643 199.258 366.5 201.275 367.535 201.93 370.678 199.913" fill="#d2d2d2"/><polygon points="377.574 204.275 376.538 203.62 373.396 205.637 374.431 206.292 377.574 204.275" fill="#d2d2d2"/><polygon points="299.671 239.559 257.354 212.773 254.807 214.406 297.123 241.193 301.53 242.475 299.671 239.559" fill="#f3f3f3"/><polygon points="296.09 239.031 297.123 241.193 253.698 213.704 254.881 212.946 296.09 239.031" fill="#b2b2b2"/><polygon points="245.083 212.424 241.053 209.873 249.787 204.273 253.817 206.824 245.083 212.424" fill="#939393"/><path d="M238.593,210.17l-26.6-16.841c-1-.633-1.079-1.615-.176-2.194l8.375-5.37a3.5,3.5,0,0,1,3.446.1l26.6,16.841c1,.633,1.079,1.615.176,2.194l-8.375,5.37A3.5,3.5,0,0,1,238.593,210.17Z" fill="#b2b2b2"/><path d="M249.071,216.8l-4.036-2.555c-1-.633-1.078-1.615-.175-2.194l8.375-5.37a3.5,3.5,0,0,1,3.445.1l4.036,2.555c1,.633,1.079,1.615.176,2.194l-8.375,5.37A3.5,3.5,0,0,1,249.071,216.8Z" fill="#b2b2b2"/><path d="M245.6,206.378l3.271-2.1c.454-.291.415-.785-.088-1.1l-25.609-16.21a1.908,1.908,0,0,0-1.877-.054l-3.2,2.054Z" fill="#f3f3f3"/><path d="M256.283,213.138l3.313-2.124c.432-.277.394-.746-.083-1.048l-4.014-2.541a1.67,1.67,0,0,0-1.645-.046L250.54,209.5Z" fill="#f3f3f3"/><path d="M428.743,210l-1.881,1.217-1.392-.863,1.961-1.236a.84.84,0,0,1,.27-.124,1.3,1.3,0,0,1,.335-.042,1.381,1.381,0,0,1,.346.047,1.172,1.172,0,0,1,.3.127.787.787,0,0,1,.233.206.459.459,0,0,1,.093.241.378.378,0,0,1-.062.235A.585.585,0,0,1,428.743,210Z" fill="#505050"/><path d="M359.593,248.681l5.092,3.244,2.528,1.6,57.775-37.049-2.559-1.655-5.061-3.189Z" fill="#f3f3f3"/><path d="M364.24,254.41l2.151-1.382-6.055-3.836-2.113,1.435Z" fill="#939393"/><path d="M426.11,209.3l-8.742,2.337,7.62,4.844,3.539-5.62Z" fill="#b2b2b2"/><path d="M367.213,253.525l57.775-37.049-2.559-1.655-57.744,37.1Z" fill="#c2c2c2"/><path d="M353.417,252.661a.945.945,0,0,0-.317.291.613.613,0,0,0-.1.357.7.7,0,0,0,.128.368,1.182,1.182,0,0,0,.34.321l2.933,1.821c.283.181.708.458,1.136.732.315.237.739.512,1.023.695l.4.222a2.244,2.244,0,0,0,1.063.28,1.894,1.894,0,0,0,1.009-.242l4.033-2.6-2.607-1.582-5.059-3.194Z" fill="#f3f3f3"/><path d="M362.192,253.489l-4.424,2.846a.241.241,0,0,0-.067.2.329.329,0,0,0,.121.2,8.646,8.646,0,0,1,.738.51,3.082,3.082,0,0,0,1.434.386,2.666,2.666,0,0,0,1.379-.3l3.378-2.19c.18-.149.17-.322-.052-.4l-1.848-1.192a.667.667,0,0,0-.324-.113A.651.651,0,0,0,362.192,253.489Z" fill="#c2c2c2"/><path d="M406.473,218.571l-8.249,5.348-1.074-.626,8.359-5.314Z" fill="#f3f3f3"/><polygon points="509.504 91.819 545.302 114.48 574.349 116.283 578.25 113.782 509.615 90.172 509.504 91.819" fill="#939393"/><polygon points="563.802 102.36 579.677 112.409 457.529 190.723 441.655 180.675 563.802 102.36" fill="#d2d2d2"/><polygon points="563.847 102.388 569.643 106.057 447.495 184.372 441.699 180.703 563.847 102.388" fill="#d2d2d2"/><polygon points="568.912 105.594 575.661 109.867 453.514 188.182 446.764 183.909 568.912 105.594" fill="#fff"/><polygon points="509.59 90.188 546.396 113.487 576.136 115.137 579.627 112.377 526.97 79.045 509.59 90.188" fill="#b2b2b2"/><polygon points="547.448 107.53 518.386 89.133 515.949 90.695 546.091 109.775 568.218 111.422 571.025 109.623 570.908 109.548 547.448 107.53" fill="#d2d2d2"/><polygon points="457.683 185.353 461.82 187.971 461.102 188.432 456.965 185.813 457.683 185.353" fill="#b2b2b2"/><polygon points="461.617 182.831 465.754 185.449 465.036 185.91 460.899 183.291 461.617 182.831" fill="#b2b2b2"/><polygon points="465.549 180.309 469.686 182.928 468.969 183.388 464.832 180.769 465.549 180.309" fill="#b2b2b2"/><polygon points="469.483 177.787 473.62 180.406 472.902 180.866 468.765 178.247 469.483 177.787" fill="#939393"/><polygon points="473.416 175.265 477.553 177.884 476.836 178.344 472.699 175.725 473.416 175.265" fill="#b2b2b2"/><polygon points="477.349 172.744 481.486 175.363 480.768 175.823 476.631 173.204 477.349 172.744" fill="#b2b2b2"/><polygon points="481.282 170.222 485.419 172.841 484.702 173.301 480.565 170.682 481.282 170.222" fill="#b2b2b2"/><polygon points="485.215 167.701 489.352 170.319 488.634 170.779 484.497 168.161 485.215 167.701" fill="#939393"/><polygon points="489.149 165.179 493.286 167.797 492.568 168.257 488.431 165.639 489.149 165.179" fill="#b2b2b2"/><polygon points="493.081 162.657 497.218 165.276 496.501 165.736 492.364 163.117 493.081 162.657" fill="#b2b2b2"/><polygon points="497.015 160.135 501.152 162.754 500.434 163.214 496.297 160.595 497.015 160.135" fill="#b2b2b2"/><polygon points="500.948 157.613 505.085 160.232 504.368 160.692 500.231 158.073 500.948 157.613" fill="#939393"/><polygon points="504.881 155.092 509.018 157.711 508.3 158.171 504.163 155.552 504.881 155.092" fill="#b2b2b2"/><polygon points="508.814 152.57 512.951 155.189 512.234 155.649 508.097 153.03 508.814 152.57" fill="#b2b2b2"/><polygon points="512.747 150.049 516.884 152.667 516.166 153.127 512.029 150.509 512.747 150.049" fill="#b2b2b2"/><polygon points="516.681 147.527 520.818 150.145 520.1 150.605 515.963 147.987 516.681 147.527" fill="#939393"/><polygon points="520.613 145.005 524.75 147.624 524.033 148.084 519.896 145.465 520.613 145.005" fill="#b2b2b2"/><polygon points="524.547 142.483 528.684 145.102 527.966 145.562 523.829 142.943 524.547 142.483" fill="#b2b2b2"/><polygon points="528.48 139.961 532.617 142.58 531.9 143.04 527.763 140.421 528.48 139.961" fill="#b2b2b2"/><polygon points="532.413 137.44 536.55 140.059 535.832 140.519 531.695 137.9 532.413 137.44" fill="#939393"/><polygon points="536.346 134.918 540.483 137.537 539.766 137.997 535.629 135.378 536.346 134.918" fill="#b2b2b2"/><polygon points="540.279 132.396 544.416 135.015 543.698 135.475 539.561 132.857 540.279 132.396" fill="#b2b2b2"/><polygon points="544.213 129.875 548.35 132.493 547.632 132.953 543.495 130.335 544.213 129.875" fill="#b2b2b2"/><polygon points="548.145 127.353 552.282 129.972 551.565 130.432 547.428 127.813 548.145 127.353" fill="#939393"/><polygon points="552.079 124.831 556.216 127.45 555.498 127.91 551.361 125.291 552.079 124.831" fill="#b2b2b2"/><polygon points="556.012 122.309 560.149 124.928 559.432 125.388 555.295 122.769 556.012 122.309" fill="#b2b2b2"/><polygon points="559.945 119.788 564.082 122.407 563.364 122.867 559.227 120.248 559.945 119.788" fill="#b2b2b2"/><polygon points="563.878 117.266 568.015 119.885 567.298 120.345 563.161 117.726 563.878 117.266" fill="#939393"/><line x1="473.261" y1="180.636" x2="465.616" y2="175.797" fill="none" stroke="#c2c2c2" stroke-miterlimit="10" stroke-width="1.158"/><line x1="488.994" y1="170.55" x2="481.349" y2="165.71" fill="none" stroke="#c2c2c2" stroke-miterlimit="10" stroke-width="1.158"/><line x1="504.726" y1="160.463" x2="497.081" y2="155.623" fill="none" stroke="#c2c2c2" stroke-miterlimit="10" stroke-width="1.158"/><line x1="520.459" y1="150.376" x2="512.814" y2="145.536" fill="none" stroke="#c2c2c2" stroke-miterlimit="10" stroke-width="1.158"/><line x1="536.191" y1="140.289" x2="528.546" y2="135.449" fill="none" stroke="#c2c2c2" stroke-miterlimit="10" stroke-width="1.158"/><line x1="551.924" y1="130.202" x2="544.279" y2="125.363" fill="none" stroke="#c2c2c2" stroke-miterlimit="10" stroke-width="1.158"/><line x1="567.657" y1="120.115" x2="560.012" y2="115.276" fill="none" stroke="#c2c2c2" stroke-miterlimit="10" stroke-width="1.158"/><polygon points="457.516 190.652 441.678 180.626 442.195 181.953 457.741 191.793 579.793 113.539 579.614 112.369 457.516 190.652" fill="#939393"/><line x1="100.465" y1="76.19" x2="276.907" y2="190.433" fill="none" stroke="#939393" stroke-miterlimit="10"/><line x1="411.607" y1="27.712" x2="490.073" y2="81.712" fill="none" stroke="#939393" stroke-miterlimit="10"/><path d="M93.923,109.9h-17.5s2.966-44.789,0-78.9C74.94,17.061,96.3,5.493,93.923,31,90.364,58.291,93.923,109.9,93.923,109.9Z" fill="#999"/><path d="M63.965,7.273c2.892,5.005,9.121,3.337,10.456-.223.559-1.491,1.335-2.669,3.114-2.669H92c1.81,0,2.815.4,3.337,2.225C96,8.941,101.116,9.5,103.9,7.05c3.269-2.876,2.9,20.512-.334,18.465-3.448-2.184-8.119.667-8.008,3.559.017.438-.263,1.3-.276,2.2a2.274,2.274,0,0,1-2.268,2.251H77.205a1.985,1.985,0,0,1-1.985-1.9c-.062-1.382-.132-3.2-.132-4.331,0-3.115-7.341-7.119-11.123-.644C56.4,23.068,63.965,7.273,63.965,7.273Z" fill="#737373"/><rect x="77.353" y="7.05" width="15.644" height="23.803" rx="1.89" fill="#999"/><rect x="74.737" y="106" width="21" height="112" rx="4.623" fill="#4393d4"/><path d="M79.688,113.862a1.722,1.722,0,0,1,1.723-1.723h12.51v-.753a2.806,2.806,0,0,0-2.806-2.806H78.935a2.806,2.806,0,0,0-2.806,2.806V213.42a2.806,2.806,0,0,0,2.806,2.807h.753Z" fill="#69b8ed"/><rect x="103.737" y="5" width="19" height="23" rx="3.077" fill="#c2c2c2"/><path d="M63.737,7.026a9.608,9.608,0,0,0-4.362-.007,10.247,10.247,0,0,0-7.917,10.333,10.042,10.042,0,0,0,12.279,9.3Z" fill="#c2c2c2"/><path d="M120.737,12V8.751A1.751,1.751,0,0,0,118.986,7h-11.5a1.751,1.751,0,0,0-1.751,1.751V12Z" fill="#fff"/><path d="M62.58,12.5a8.58,8.58,0,0,1,1.163.088V9.036A8.1,8.1,0,0,0,54.1,19.029,8.783,8.783,0,0,1,62.58,12.5Z" fill="#fff"/><polygon points="403.029 21.181 401.7 23.015 390.534 23.015 390.534 20.762 403.029 21.181" fill="#3c3c3c"/><path d="M403.029,22.83h-15.72l-9.276-8.562h-9.275c-3.458,0-16.507-2.282-21.852-4.185s-4.244,5.327-.628,6.849c21.176,8.914,22.637,17.313,37.729,17.313C397.213,34.245,402.872,24.922,403.029,22.83Z" fill="#939393"/><path d="M386.026,34.164c11.763-.886,16.854-9.352,17-11.334h-12.51Z" fill="#d2d2d2"/><path d="M403.029,21.181h-15.72l-9.276,8.561h-9.275c-3.458,0-16.507,2.283-21.852,4.186s-4.244-5.327-.628-6.849c21.176-8.914,22.637-17.313,37.729-17.313C397.213,9.766,402.872,19.089,403.029,21.181Z" fill="#d2d2d2"/><ellipse cx="385.265" cy="21.942" rx="7.862" ry="7.802" fill="#fff"/><path d="M346.906,27.629v5.866a2.371,2.371,0,0,1-1.414,2.289c-7.215,2.574-40.448,13.254-63.04.427-2.3-1.3-2.385-5.842,1.414-4.566,28.26,9.491,54.543-1.989,61.344-5.387C346.018,25.854,346.906,26.57,346.906,27.629Z" fill="#ec6401"/><path d="M346.906,16.563V10.7a2.37,2.37,0,0,0-1.414-2.289c-7.215-2.575-40.448-13.254-63.04-.427-2.3,1.3-2.385,5.841,1.414,4.565,28.26-9.49,54.543,1.99,61.344,5.387C346.018,18.337,346.906,17.621,346.906,16.563Z" fill="#ec6401"/><path d="M186.737,87h-6V15.358A11.358,11.358,0,0,1,192.1,4h16.642V9H192.771a6.033,6.033,0,0,0-6.034,6.033Z" fill="#c2c2c2"/><path d="M195.142,91.218h-4.437V20.045a10.042,10.042,0,0,1,10.03-10.031H216v4.438H200.735a5.6,5.6,0,0,0-5.593,5.593Z" fill="#c2c2c2"/><path d="M203.573,96.1h-3.55V23.34a7.269,7.269,0,0,1,7.261-7.261H223.1v3.55H207.284a3.716,3.716,0,0,0-3.711,3.711Z" fill="#c2c2c2"/><path d="M210.82,99.058h-2.662V27.842a5.113,5.113,0,0,1,5.107-5.107h15.749V25.4H213.265a2.448,2.448,0,0,0-2.445,2.445Z" fill="#c2c2c2"/><path d="M212.772,29.359,178.31,11.786a1.769,1.769,0,0,0-2.573,1.576V74.231A1.769,1.769,0,0,0,177.506,76h34.462a1.769,1.769,0,0,0,1.769-1.769v-43.3A1.769,1.769,0,0,0,212.772,29.359Z" fill="#ffcb40"/><path d="M179.939,75a1.814,1.814,0,0,1-1.2-1.267V12l-.994-.573a2.1,2.1,0,0,0-3.006,1.886v61.2c.437.977,1.229,1.769,2.205,1.49h34.624a1.368,1.368,0,0,0,1.74-1Z" fill="#c78e00"/><path d="M207.737,48.47V36.415a1.11,1.11,0,0,0-.608-.991L185.35,24.383a1.111,1.111,0,0,0-1.613.991V48.6a1.4,1.4,0,0,0,1.4,1.4h21.07A1.53,1.53,0,0,0,207.737,48.47Z" fill="#f0ae00"/><line x1="223.098" y1="74" x2="321.476" y2="141.703" fill="none" stroke="#939393" stroke-miterlimit="10"/></svg>