<svg width="636" height="300" viewBox="0 0 636 300" fill="none" xmlns="http://www.w3.org/2000/svg">
<path d="M478 249H512.44V132H478V249Z" fill="#737373"/>
<path d="M389 249H450.61V122H389V249Z" fill="#8867C8"/>
<path d="M338.231 52.44C338.321 48.32 338.931 44 336.341 40.36L334.141 40.09C333.221 40.06 332.371 40.58 331.981 41.41L325.421 55.17C324.141 57.88 320.901 59.03 318.191 57.75L308.051 52.94C305.341 51.66 304.191 48.42 305.471 45.71L314.891 31.55C315.341 30.88 314.851 29.98 314.051 29.98H312.941C301.511 30.92 292.521 40.49 292.521 52.17C292.521 55 293.051 57.7 294.021 60.19C296.891 69.35 298.591 75.43 296.751 84.94L279.631 157.5L296.191 161.41L312.641 91.68C312.671 91.57 312.701 91.47 312.731 91.36C315.541 79.3 325.111 72.3 328.611 69.67C328.691 69.61 328.761 69.54 328.821 69.47C333.841 65.38 338.091 59.42 338.231 52.44Z" fill="#939393"/>
<path d="M340.061 52.1699C340.061 48.0199 338.921 44.1299 336.941 40.7999C336.541 40.1199 335.531 40.1799 335.191 40.8899L328.421 55.1699C327.141 57.8799 323.901 59.0299 321.191 57.7499L311.051 52.9399C308.341 51.6599 307.191 48.4199 308.471 45.7099L315.111 31.7099C315.471 30.9499 314.821 30.0799 313.991 30.2299C303.501 32.0299 295.511 41.1699 295.511 52.1799C295.511 55.0099 296.041 57.7099 297.011 60.1999C299.881 69.3599 301.581 75.4399 299.741 84.9499L282.621 157.51L299.181 161.42L315.631 91.6899C315.661 91.5799 315.691 91.4799 315.721 91.3699C318.531 79.3099 328.101 72.3099 331.601 69.6799C331.681 69.6199 331.751 69.5499 331.811 69.4799C336.841 65.3799 340.061 59.1499 340.061 52.1699Z" fill="#B2B2B2"/>
<path d="M111.54 255.15H212.49C214 255.15 215.42 256.14 215.71 257.61C216.08 259.5 214.44 261.15 212.38 261.15H111.78C110.27 261.15 108.85 260.16 108.56 258.69C108.19 256.8 109.83 255.15 111.89 255.15" fill="#C8C8C8"/>
<path d="M307.21 271.82H408.16C409.67 271.82 411.09 272.81 411.38 274.28C411.75 276.17 410.11 277.82 408.05 277.82H307.45C305.94 277.82 304.52 276.83 304.23 275.36C303.86 273.47 305.5 271.82 307.56 271.82" fill="#C8C8C8"/>
<path d="M436.6 104.5H390.61C373.76 104.5 360.1 90.84 360.1 73.99V53.01C360.1 36.16 373.76 22.5 390.61 22.5H436.6C453.45 22.5 467.11 36.16 467.11 53.01V74C467.11 90.84 453.45 104.5 436.6 104.5Z" fill="#B5D5EA"/>
<path d="M477.29 122H449.71C448.21 122 447 123.21 447 124.71V246.29C447 247.79 448.21 249 449.71 249H477.29C478.79 249 480 247.79 480 246.29V124.71C480 123.21 478.79 122 477.29 122Z" fill="#B4A0FF"/>
<path d="M479.999 137H446.939V177H479.999V137Z" fill="#C7B8FF"/>
<path d="M479.999 142H446.939V172H479.999V142Z" fill="#A996F0"/>
<path d="M501.5 132H485.5C484.12 132 483 133.12 483 134.5V246.5C483 247.88 484.12 249 485.5 249H501.5C502.88 249 504 247.88 504 246.5V134.5C504 133.12 502.88 132 501.5 132Z" fill="#F0AE00"/>
<path d="M504 212H483V215H504V212Z" fill="#DB9D00"/>
<path d="M494.5 233C498.09 233 501 230.09 501 226.5C501 222.91 498.09 220 494.5 220C490.91 220 488 222.91 488 226.5C488 230.09 490.91 233 494.5 233Z" fill="#FFCB40"/>
<path d="M525.5 132H509.5C508.12 132 507 133.12 507 134.5V246.5C507 247.88 508.12 249 509.5 249H525.5C526.88 249 528 247.88 528 246.5V134.5C528 133.12 526.88 132 525.5 132Z" fill="#F0AE00"/>
<path d="M528 212H507V215H528V212Z" fill="#DB9D00"/>
<path d="M517.5 233C521.09 233 524 230.09 524 226.5C524 222.91 521.09 220 517.5 220C513.91 220 511 222.91 511 226.5C511 230.09 513.91 233 517.5 233Z" fill="#FFCB40"/>
<path d="M394 142.73L393.79 94.14C393.79 91.3 387.9 89 385.06 89H373.15C372.47 89 371.8 89.13 371.18 89.39C370.56 89.65 369.99 90.03 369.51 90.51C369.03 90.99 368.65 91.56 368.4 92.18C368.14 92.8 368.01 93.47 368.01 94.15V142.79L341.01 171.89V254H417.06L420.41 171.8L394 142.73Z" fill="#106EBE"/>
<path d="M284.959 47.5401C286.149 48.1301 287.389 46.8601 286.769 45.6901C278.269 29.7901 256.519 28.5301 245.999 30.0001C234.689 31.5801 223.179 36.1201 222.949 37.0301C222.489 40.0001 220.649 40.9101 219.729 41.1401C217.929 41.3301 216.419 40.9401 214.469 40.2301C211.599 39.1901 209.099 38.5101 206.479 38.6301L200.879 40.0101C200.059 40.2301 207.039 62.7601 207.039 62.7601C207.039 62.7601 210.909 62.0001 212.139 61.6201C213.369 61.2301 216.199 59.4101 217.999 57.1601C219.149 55.7701 220.629 54.6801 222.299 53.9901C223.109 53.7301 224.579 53.3601 224.999 54.6601C225.189 55.2401 225.449 56.1101 225.449 56.1101C225.699 56.9501 226.249 57.6701 226.989 58.1301C227.739 58.5901 228.629 58.7501 229.489 58.5901L233.179 57.6301C233.979 57.4201 234.799 57.9101 234.989 58.7201L249.019 119.24L260.469 116.32L246.319 55.4401C246.199 54.9301 246.519 54.4301 247.029 54.3201L251.259 53.4001C252.079 53.1401 252.759 52.5801 253.179 51.8301C253.599 51.0801 253.719 50.2001 253.509 49.3701C253.269 48.2501 253.809 47.4101 255.519 46.8401C257.609 46.1401 270.739 40.4501 284.959 47.5401Z" fill="#C2C2C2"/>
<path d="M280.8 170.82C280.91 171.25 280.93 171.69 280.86 172.13C280.79 172.57 280.64 172.99 280.41 173.36C280.18 173.74 279.88 174.07 279.52 174.33C279.16 174.59 278.76 174.78 278.33 174.88L260.36 179.14C259.5 179.35 258.59 179.21 257.83 178.74C257.07 178.28 256.53 177.53 256.32 176.67L234.76 85.5199C234.58 84.6899 234.75 83.8199 235.21 83.0999C235.67 82.3899 236.4 81.8799 237.23 81.6999L255.2 77.4399C255.63 77.3399 256.07 77.3199 256.5 77.3799C256.93 77.4499 257.35 77.5999 257.73 77.8299C258.11 78.0599 258.43 78.3599 258.69 78.7099C258.95 79.0699 259.13 79.4699 259.24 79.8999L280.8 170.82Z" fill="#939393"/>
<path d="M240.23 81L237.22 81.71C236.39 81.89 235.66 82.39 235.2 83.11C234.74 83.82 234.58 84.69 234.75 85.53L256.08 175.04C256.29 175.9 256.84 176.65 257.59 177.11C258.35 177.57 259.26 177.71 260.12 177.5L263.26 176.6L240.23 81Z" fill="#737373"/>
<path d="M237.241 56.65L233.451 57.53C233.451 57.53 234.721 57.59 235.011 58.69C235.301 59.79 240.231 81.07 240.231 81.07L243.971 80.15L238.871 57.69C238.711 56.94 237.971 56.48 237.241 56.65Z" fill="#939393"/>
<path d="M267.06 248C265.98 248 264.95 247.57 264.19 246.81C263.43 246.05 263 245.02 263 243.94V120.09C263.03 119.02 263.47 117.99 264.23 117.23C264.99 116.47 266.01 116.03 267.08 115.99H356.17C357.2 116.07 358.17 116.54 358.88 117.29C359.59 118.05 359.99 119.04 360.01 120.08V244.13C359.98 245.14 359.57 246.1 358.86 246.82C358.15 247.54 357.19 247.95 356.18 247.98H267.06V248Z" fill="#737373"/>
<path d="M268.84 248C268.34 248 267.84 247.9 267.37 247.71C266.91 247.52 266.48 247.24 266.13 246.88C265.77 246.52 265.49 246.1 265.3 245.64C265.11 245.17 265.01 244.68 265.01 244.17V120.09C264.99 119.04 265.38 118.02 266.1 117.26C266.82 116.49 267.81 116.04 268.86 116H358.16C359.21 116.04 360.201 116.49 360.921 117.26C361.641 118.02 362.03 119.04 362.01 120.09V244.16C362.01 244.67 361.91 245.17 361.71 245.63C361.52 246.1 361.23 246.52 360.87 246.88C360.51 247.24 360.09 247.52 359.62 247.71C359.15 247.9 358.65 248 358.15 248H268.84Z" fill="#505050"/>
<path d="M350 127H276V238H350V127Z" fill="#8867C8"/>
<path d="M353.971 183L354.191 187H356.821L357.481 183H353.971Z" fill="#969696"/>
<path d="M344 140H282V219H344V140Z" fill="white"/>
<path d="M333.081 136H321.791C321.821 134.86 321.621 133.73 321.211 132.66C320.791 131.6 320.171 130.63 319.371 129.81C318.581 128.99 317.621 128.34 316.571 127.9C315.521 127.46 314.391 127.23 313.251 127.23C312.111 127.23 310.981 127.46 309.931 127.9C308.881 128.34 307.931 128.99 307.131 129.81C306.331 130.63 305.711 131.6 305.301 132.66C304.881 133.72 304.691 134.86 304.721 136H292.931C292.671 136 292.421 136.05 292.181 136.16C291.941 136.26 291.731 136.41 291.551 136.6C291.371 136.79 291.231 137.01 291.141 137.25C291.051 137.49 291.001 137.75 291.011 138.01V145.09C291.011 145.6 291.211 146.09 291.571 146.45C291.931 146.81 292.421 147.01 292.921 147.02H333.081C333.341 147.02 333.591 146.97 333.831 146.86C334.071 146.75 334.281 146.61 334.461 146.42C334.641 146.23 334.781 146.01 334.871 145.77C334.961 145.53 335.011 145.27 335.001 145.01V137.93C335.001 137.68 334.951 137.43 334.861 137.19C334.761 136.96 334.621 136.75 334.441 136.57C334.261 136.39 334.051 136.25 333.821 136.15C333.581 136.05 333.331 136 333.081 136ZM308.411 136C308.391 135.38 308.501 134.76 308.731 134.18C308.961 133.6 309.301 133.07 309.731 132.62C310.161 132.17 310.681 131.82 311.261 131.57C311.831 131.33 312.451 131.2 313.071 131.2C313.691 131.2 314.311 131.33 314.891 131.57C315.461 131.81 315.981 132.17 316.421 132.62C316.851 133.07 317.191 133.6 317.421 134.18C317.641 134.76 317.751 135.38 317.731 136H308.411Z" fill="#F0AE00"/>
<path d="M400.07 145.05C398.74 143.61 398 141.73 398 139.77V94.15C398 92.79 397.46 91.48 396.49 90.51C395.53 89.54 394.22 89 392.85 89H384.81C385.49 89 386.16 89.13 386.79 89.39C387.42 89.65 387.99 90.03 388.47 90.5C388.95 90.98 389.33 91.55 389.59 92.17C389.85 92.8 389.99 93.47 389.99 94.14V140.98C389.99 142.14 390.43 143.26 391.22 144.11L413.94 168.69C415.11 169.95 414.21 172 412.49 172H268L240.17 141.31C239.41 140.48 239 139.39 239 138.27V109H377.15C378.78 109.03 380.36 108.47 381.6 107.42C382.84 106.37 383.66 104.9 383.91 103.3C384.01 102.37 383.91 101.43 383.63 100.55C383.34 99.66 382.86 98.85 382.24 98.16C381.61 97.47 380.84 96.92 379.98 96.55C379.12 96.18 378.2 96 377.26 96.01H239V94.16C239 92.8 238.46 91.49 237.49 90.52C236.53 89.55 235.22 89.01 233.85 89.01H214.33C212.11 89.01 210.03 90.4 209.25 92.69C209.07 93.22 209 93.78 209 94.34V150.8L192 171.94V261H413C419.63 261 425 255.63 425 249V175.11C425 173.07 424.23 171.11 422.84 169.61L400.07 145.05Z" fill="#4393D4"/>
<path d="M398.45 261L336.41 172H320.5L383.46 261H398.45Z" fill="#1D77C4"/>
<path d="M402.381 275.05L401.291 271.38L403.701 270.65L404.781 274.44C404.831 274.59 404.851 274.75 404.841 274.91C404.831 275.07 404.791 275.22 404.721 275.37C404.651 275.51 404.551 275.64 404.431 275.74C404.311 275.84 404.171 275.92 404.011 275.97C403.841 276.02 403.671 276.04 403.491 276.02C403.321 276 403.151 275.95 403.001 275.86C402.851 275.78 402.711 275.66 402.611 275.52C402.491 275.38 402.421 275.22 402.381 275.05Z" fill="#505050"/>
<path d="M373.449 146.85L364.469 149.44L360.029 150.73L392.829 263.16L397.389 261.89L406.259 259.28L373.449 146.85Z" fill="#FFB900"/>
<path d="M360.201 146.09L361.431 150.28L372.071 147.18L370.721 142.98L360.201 146.09Z" fill="#505050"/>
<path d="M405.241 272.61L406.241 259.28L392.811 263.16L400.931 273.82L405.241 272.61Z" fill="#737373"/>
<path d="M360.02 150.73L392.82 263.16L397.38 261.89L364.47 149.43L360.02 150.73Z" fill="#DB9D00"/>
<path d="M369.911 134.8C369.851 134.54 369.731 134.3 369.571 134.09C369.411 133.88 369.211 133.7 368.981 133.56C368.751 133.43 368.491 133.34 368.231 133.3C367.971 133.27 367.701 133.28 367.441 133.35L362.351 134.89C361.851 135.03 361.091 135.24 360.331 135.46C359.711 135.58 358.951 135.79 358.451 135.93L357.801 136.17C357.311 136.34 356.901 136.69 356.651 137.16C356.411 137.62 356.351 138.16 356.481 138.67L358.791 146.53L363.251 145.12L372.131 142.52L369.911 134.8Z" fill="#DB9D00"/>
<path d="M363.11 144.62L360.58 136C360.5 135.87 360.39 135.76 360.26 135.69C360.12 135.62 359.97 135.59 359.82 135.61C359.37 135.75 358.91 135.86 358.44 135.94C357.77 136.17 357.21 136.64 356.87 137.26C356.53 137.88 356.43 138.6 356.59 139.29L358.55 145.89C358.71 146.28 359.03 146.46 359.31 146.28L362.6 145.36C362.76 145.33 362.91 145.23 363 145.09C363.11 144.95 363.14 144.78 363.11 144.62Z" fill="#CC8E02"/>
<path d="M400.149 238.13L395.359 222.01L397.149 221.4L401.809 237.62L400.149 238.13Z" fill="#FFB900"/>
<path d="M400.149 238.13L395.359 222.01L396.389 221.61L401.159 237.84L400.149 238.13Z" fill="#FFB900"/>
<path d="M234.34 147.5C231.55 144.49 230 140.54 230 136.44V94.1402C230 93.4602 229.87 92.8002 229.61 92.1702C229.35 91.5502 228.97 90.9802 228.49 90.5002C228.01 90.0202 227.45 89.6402 226.82 89.3802C226.2 89.1202 225.53 88.9902 224.85 88.9902H213.14C211.78 88.9902 210.47 89.5302 209.5 90.5002C208.54 91.4702 207.99 92.7702 207.99 94.1402V139.56C207.99 141.65 207.2 143.66 205.78 145.19L184.19 168.47C182.13 170.69 180.99 173.6 180.99 176.63V248.89C180.99 255.57 186.41 260.99 193.09 260.99H245C251.63 260.99 257 255.62 257 248.99V176.63C257 173.6 255.86 170.69 253.8 168.47L234.34 147.5ZM218.3 109.09C216.98 109.09 215.68 108.7 214.58 107.96C213.48 107.22 212.62 106.18 212.11 104.95C211.6 103.72 211.47 102.38 211.73 101.08C211.99 99.7802 212.63 98.5902 213.56 97.6502C214.5 96.7102 215.69 96.0702 216.99 95.8202C218.29 95.5602 219.64 95.6902 220.86 96.2002C222.08 96.7102 223.13 97.5702 223.87 98.6702C224.61 99.7702 225 101.07 225 102.39C225 104.17 224.29 105.87 223.04 107.13C221.78 108.39 220.08 109.09 218.3 109.09Z" fill="#106EBE"/>
<path d="M297 153H289V161H297V153Z" fill="#D2D2D2"/>
<path d="M297 164H289V172H297V164Z" fill="#D2D2D2"/>
<path d="M335 155H302V158H335V155Z" fill="#D2D2D2"/>
<path d="M335 166H302V169H335V166Z" fill="#D2D2D2"/>
<path d="M412.251 80.81C409.481 82.27 406.041 83 401.911 83C396.581 83 392.321 81.28 389.111 77.86C385.911 74.43 384.311 69.93 384.311 64.36C384.311 58.37 386.111 53.53 389.711 49.84C393.311 46.15 397.881 44.3 403.421 44.3C406.441 44.2 409.441 44.73 412.251 45.84V50.51C409.541 49 406.481 48.23 403.371 48.26C399.071 48.26 395.581 49.7 392.911 52.57C390.241 55.44 388.901 59.28 388.901 64.08C388.901 68.64 390.151 72.27 392.651 74.98C393.901 76.33 395.421 77.38 397.121 78.08C398.821 78.78 400.641 79.11 402.481 79.04C405.911 79.13 409.291 78.26 412.251 76.53V80.81Z" fill="#605D5A"/>
<path d="M445.41 55.4302L444.81 58.2002H438L436.35 66.0302H443.69L442.99 68.8002H435.81L433.51 79.1702H430.22L432.47 68.8002H425.94L423.75 79.1702H420.49L422.68 68.8002H415.84L416.36 66.0302H423.28L424.87 58.2002H417.64L418.19 55.4302H425.42L427.61 44.9302H430.9L428.71 55.4302H435.29L437.54 44.9302H440.75L438.56 55.4302H445.41ZM434.76 58.1902H428.18L426.46 66.0202H433.09L434.76 58.1902Z" fill="#605D5A"/>
<path d="M207.94 59.4102L203.94 42.4702C203.54 40.7802 204.59 39.0902 206.27 38.7002L200.73 40.0102C199.04 40.4102 198 42.1002 198.4 43.7802L202.4 60.7202C202.8 62.4102 204.49 63.4502 206.17 63.0502L211.7 61.7302C210.02 62.1302 208.34 61.1002 207.94 59.4102Z" fill="#939393"/>
<path d="M228.33 34.46C225.13 35.63 223.05 36.64 222.95 37.03C222.49 40 220.65 40.92 219.73 41.14C227.73 39.81 228.33 34.47 228.33 34.46Z" fill="#939393"/>
<path d="M219.731 41.1401C219.471 41.1701 219.231 41.1601 218.971 41.1601C219.181 41.1901 219.431 41.1901 219.731 41.1401Z" fill="#939393"/>
<path d="M230.479 56.11L229.679 53.43C229.489 52.69 228.669 52.39 227.919 52.56C226.959 52.78 225.679 53.09 223.109 53.77C223.859 53.64 224.689 53.71 224.989 54.64C225.179 55.22 225.439 56.09 225.439 56.09C225.689 56.93 226.239 57.65 226.979 58.11C227.729 58.57 228.619 58.73 229.479 58.57L232.989 57.65V57.64C231.899 57.87 230.799 57.2 230.479 56.11Z" fill="#939393"/>
</svg>
