<svg xmlns="http://www.w3.org/2000/svg" viewBox="0 0 636 300"><title>swimlane-swimlane-one-consistent-api-purple</title><path d="M208.605,180.243,207.349,179l-11.673,12.331-7.278-2.2-2.6-7.135,12.928-11.073-1.251-1.252a16.555,16.555,0,0,0-21.011,22.195l-35.431,37.4c-2.332,2.465-2.541,7.032.328,9.22s6.408,2.194,8.74-.271l36.228-37.018c6.043,1.03,13.21-.365,17.875-5.3C208.915,192.158,210.449,186.583,208.605,180.243Zm-63,56.218a2.738,2.738,0,1,1,2.738-2.738A2.737,2.737,0,0,1,145.606,236.461Z" fill="#b2b2b2"/><path d="M208.605,180.243l-11.677,12.335-7.278-2.2-2.6-7.134,11.676-12.325a16.554,16.554,0,0,0-21.01,22.194l-35.431,37.4c-2.333,2.465-2.541,7.032.328,9.219s6.408,2.194,8.74-.271l36.227-37.017c6.043,1.03,13.211-.366,17.875-5.3C210.166,193.41,211.169,186.176,208.605,180.243Zm-61.747,57.469a2.738,2.738,0,1,1,2.737-2.738A2.738,2.738,0,0,1,146.858,237.712Z" fill="#505050"/><polygon points="172.305 208.091 153.739 190.532 146.984 188.049 137.563 175.242 142.053 170.992 155.429 179.816 158.145 186.065 176.346 203.225 172.305 208.091" fill="#b2b2b2"/><polygon points="173.212 206.441 154.646 188.882 147.891 186.399 138.813 174.059 137.563 175.242 146.984 188.049 153.739 190.532 172.305 208.091 176.346 203.225 176.087 202.98 173.212 206.441" fill="#737373"/><path d="M205.7,239.8s-4.178,2.173-7.277-.852l-26.813-24.137c-3.013-2.924-2.353-5.646-.21-7.588l4.29-4.821c2.145-1.9,4.784-2.392,6.965-.552l27.322,25.83c2.6,2.458,2.333,5.682.209,7.593Z" fill="#479cdf"/><path d="M210.182,230.982s-3.53,3.693-4.486,4.527-3.7,2.6-6.8-.421L171.605,210.52a7.861,7.861,0,0,1-1.431-1.824c-1.025,1.745-.881,3.869,1.431,6.113L198.9,239.377c2.321,2.116,5.841,1.463,6.8.421,2.172-1.93,4.486-4.527,4.486-4.527a4.77,4.77,0,0,0,1.137-5.781A5.121,5.121,0,0,1,210.182,230.982Z" fill="#0060c5"/><path d="M160,86v44a1,1,0,0,0,1,1h32a1,1,0,0,1,1,1h0a1,1,0,0,0,1,1h9a1,1,0,0,0,1-1h0a1,1,0,0,1,1-1h32a1,1,0,0,0,1-1V86a1,1,0,0,0-1-1H161A1,1,0,0,0,160,86Z" fill="#333"/><rect x="164.003" y="123" width="71" height="5" fill="#737373"/><path d="M199,128.11s-.761-5.11-7.228-5.11H164V81h28.914c5.929,0,6.086,5.11,6.086,5.11Z" fill="#c7b8ff"/><rect x="171.003" y="87" width="21" height="2" fill="#9e83e3"/><rect x="171.003" y="92" width="21" height="2" fill="#9e83e3"/><rect x="171.003" y="97" width="21" height="2" fill="#9e83e3"/><rect x="171.003" y="102" width="21" height="2" fill="#9e83e3"/><rect x="171.003" y="107" width="21" height="2" fill="#9e83e3"/><rect x="171.003" y="112" width="21" height="2" fill="#9e83e3"/><rect x="171.003" y="117" width="21" height="2" fill="#9e83e3"/><path d="M199,128.11s.761-5.11,7.228-5.11H235V81H205.09C199.16,81,199,86.11,199,86.11Z" fill="#c7b8ff"/><rect x="207.003" y="87" width="21" height="2" transform="translate(435.006 176) rotate(180)" fill="#9e83e3"/><rect x="207.003" y="92" width="21" height="2" transform="translate(435.006 186) rotate(180)" fill="#9e83e3"/><rect x="207.003" y="97" width="21" height="2" transform="translate(435.006 196) rotate(180)" fill="#9e83e3"/><rect x="207.003" y="102" width="21" height="2" transform="translate(435.006 206) rotate(180)" fill="#9e83e3"/><rect x="207.003" y="107" width="21" height="2" transform="translate(435.006 216) rotate(180)" fill="#9e83e3"/><rect x="207.003" y="112" width="21" height="2" transform="translate(435.006 226) rotate(180)" fill="#9e83e3"/><rect x="207.003" y="117" width="21" height="2" transform="translate(435.006 236) rotate(180)" fill="#9e83e3"/><polygon points="212.003 100.875 208.503 99.875 205.003 100.875 205.003 79 212.003 79 212.003 100.875" fill="#5c2d91"/><rect x="198.503" y="86" width="1" height="42" fill="#9e83e3"/><rect x="350.319" y="35.232" width="81.294" height="56.65" rx="7.515" ry="7.515" fill="#3c3c3c"/><path d="M350.319,50.291V85.51a6.372,6.372,0,0,0,6.371,6.372h68.552a6.372,6.372,0,0,0,6.371-6.372V50.291Z" fill="#69afe5"/><rect x="368.721" y="50.291" width="2.6" height="41.138" fill="#3c3c3c"/><rect x="415.565" y="41.843" width="8.081" height="4.04" fill="#b2b2b2"/><rect x="402.342" y="41.843" width="8.081" height="4.04" fill="#b2b2b2"/><path d="M303.245,201.577v16.349c0,4.954,4.661,10.9,16.017,10.9s15.69-5.573,15.69-11.518v-14.12Z" fill="#8e562e"/><path d="M299.777,193.4c9.042,12.633,15.111,22.665,35.175,23.161V203.187Z" fill="#613d30"/><path d="M328.315,149.267s7.2,13.938,8.041,14.845S346.937,174.7,346.937,174.7a1.7,1.7,0,0,1,.208,1.971c-.635,1.063-4.214,2.561-4.356,3.572s3.415,7.922,6.348,12.175c3.2,4.646,1.675,6.492-4.375,8.914-6.333,2.536-23.4,7.2-28.757,6.02S288,187.392,288,187.392s5.676-31.236,10.265-34.957S328.315,149.267,328.315,149.267Z" fill="#8e562e"/><path d="M319.441,128.88s9.624,3.869,12.452,11.791-1.269,11.591-11.823,15.443-10.748,4.371-6.326,10.879a91.047,91.047,0,0,1,6.107,9.98l-4.388,2.791a26.451,26.451,0,0,0-5.323-4.42c-3.393-1.877-6.586-1.05-7.753,2.062s.215,7.948,4.941,9.926a9.907,9.907,0,0,1,6.5,8.811c.414,3.926-5.965,9.58-5.965,9.58s-13.744-2.786-23.341-18.214-5.642-18.087-.482-21.121c-3.773-5.083-.61-18.069,19.29-24.949C319.912,135.706,320.5,131.855,319.441,128.88Z" fill="#282828"/><path d="M344.6,184.7c-1.374.883-3.321,2.093-4.777,2.831-2.483,1.258-8.363,3.373-8.363,3.373s9.5,2.151,14.024-4.525A18.277,18.277,0,0,1,344.6,184.7Z" fill="#f3f3f3"/><path d="M433.6,133.056c9.839-9.493,8.214-10.546,11.721-22,1.6-6.827.018-9.545-2.522-6.766,3.813-6.076.341-12.437-2.518-8.039.637-1.967.327-5.438-2.206-5.841-2.217-.114-2.858,3.762-3.178,5.382-1.58-1.445-4.749-1.154-6.026,4.053a15.721,15.721,0,0,1-3.18,6.654c-.624-5.031-2.838-7.055-5.374-5.549-.011,5.09-2.876,12.67-3.839,19.438a30.4,30.4,0,0,1-.007,3.818c-2.326,18.008-4.555,24.623-4.555,24.623,16.148,2.939,17.024-4.777,17.024-4.777Z" fill="#8e562e"/><path d="M367.407,300V282.426s40.955-44.964,50.533-73.368,16.907-66.845,16.907-66.845l-22.521-5.7s-4.955,31.592-12.221,49.009-21.8,34.6-32.367,34.6H337.352L319.1,227.223l-16.262-8.587s-23.945,5.614-32.532,8.257-11.56,3.633-11.56,10.861c0,3.958.5,34.983.943,62.246Z" fill="#505050"/><path d="M298.7,9.619h0a26.672,26.672,0,0,0-2.521-1.475l-.071-.037c-.258-.132-.519-.259-.783-.383l-.216-.1c-.254-.117-.51-.232-.768-.341l-.206-.085q-1.176-.487-2.414-.872c-.156-.049-.313-.1-.471-.144q-.306-.09-.616-.172c-.187-.05-.376-.1-.565-.145s-.38-.094-.572-.137c-.251-.056-.5-.107-.759-.157-.149-.03-.3-.062-.449-.089-.369-.067-.743-.126-1.118-.18-.145-.02-.291-.037-.437-.055q-.408-.053-.821-.094c-.154-.015-.307-.028-.461-.041-.287-.024-.575-.043-.864-.059-.136-.007-.271-.016-.407-.022-.424-.017-.85-.029-1.279-.029a29.4,29.4,0,0,0-10.543,1.913q-1.2.462-2.344,1.025-.569.282-1.119.586-1.1.611-2.128,1.312T264.8,11.324a23.37,23.37,0,0,0-8.627,18.019,22.863,22.863,0,0,0,3.763,12.574q.3.459.621.9a24.54,24.54,0,0,0,2.111,2.543l.008.009.052.053q.219.228.445.453c.048.05.093.1.141.151l.034.036h0c7.961,8.377,10.87,19.945,10.87,19.945h17.463s2.894-11.622,10.818-20a23.2,23.2,0,0,0,7.134-16.668A23.628,23.628,0,0,0,298.7,9.619Z" fill="#b3d6f2"/><polygon points="286.819 86.767 279.025 86.767 274.508 81.322 291.337 81.322 286.819 86.767" fill="#505050"/><rect x="273.518" y="65.76" width="18.809" height="16.691" fill="#737373"/><circle cx="490.924" cy="166.701" r="38.282" fill="#b4a0ff"/><path d="M478.8,174.6l-16.055-7.323V164.49l16.055-7.683V160.9l-11.448,4.9v.1l11.448,4.607Z" fill="#fff"/><path d="M499.221,151.031l-12.016,28.74h-4.847l11.963-28.74Z" fill="#fff"/><path d="M519.3,167.052l-16.055,7.322V170.3l11.483-4.59v-.068l-11.483-4.916v-4.092l16.055,7.632Z" fill="#fff"/><rect x="273.518" y="71.086" width="14.912" height="2.6" fill="#b2b2b2"/><rect x="273.518" y="76.286" width="14.912" height="2.6" fill="#b2b2b2"/><circle cx="327" cy="169.563" r="2.262" fill="#282828"/><path d="M334.952,211.7l6.694,8.415-4.609,16.515-16.751-8.618L305.718,238.1l-9.652-17.98,7.179-8.415,16.139,12.55Zm77.373-75.189s-4.954,31.592-12.22,49.009-18.166,24.694-28.074,30.639c-3.888,2.333-9.732,3.956-12.208,3.956,14.866,28.223,7.584,62.311,7.584,62.311s40.955-44.964,50.533-73.368,16.907-66.845,16.907-66.845ZM254.781,250.235c-1.5,11.193-2.657,31.223-3.476,49.765h25.576c-1.388-18.837-3.852-41.347-8.228-61.9C265.976,225.514,258.084,225.572,254.781,250.235Z" fill="#b2b2b2"/></svg>