<svg width="636" height="300" viewBox="0 0 636 300" fill="none" xmlns="http://www.w3.org/2000/svg">
<path d="M37.4902 272.32H574.72C576.48 272.32 578.14 273.47 578.47 275.19C578.9 277.4 576.99 279.32 574.58 279.32H37.7602C36.0002 279.32 34.3402 278.17 34.0002 276.45C33.5702 274.24 35.4802 272.32 37.8902 272.32" fill="#C8C8C8"/>
<path d="M370.51 265.73H60.9696C59.9396 265.73 59.0996 264.89 59.0996 263.86V32.6097C59.0996 31.5797 59.9396 30.7397 60.9696 30.7397H370.51C371.54 30.7397 372.38 31.5797 372.38 32.6097V263.85C372.38 264.89 371.54 265.73 370.51 265.73Z" fill="#E6E6E6"/>
<path d="M359.86 33.3999H222.68L368.05 178.35V41.5899C368.05 37.0699 364.38 33.3999 359.86 33.3999Z" fill="url(#paint0_linear)"/>
<path d="M367.62 38.9999C366.54 35.7499 363.47 33.3999 359.86 33.3999H62.94C58.42 33.3999 54.75 37.0599 54.75 41.5899V62.3899H367.62V38.9999Z" fill="#B2B2B2"/>
<path d="M368.05 62.3899C368.05 62.3899 372.85 33.3999 368.33 33.3999H222.68L251.67 62.3899H368.05Z" fill="#BFBFBF"/>
<path d="M484.55 93.29H415.99C411.21 93.29 407.33 97.1 407.33 101.81V263.68C407.33 267.1 410.15 269.88 413.63 269.88H486.04C489.52 269.88 492.34 267.11 492.34 263.68V100.95C492.33 96.72 488.85 93.29 484.55 93.29Z" fill="#E6E6E6"/>
<path d="M488.581 93.29H428.951L492.331 151.29V97.04C492.331 94.97 490.651 93.29 488.581 93.29Z" fill="url(#paint1_linear)"/>
<path d="M488.581 93.29H412.451C410.381 93.29 408.701 94.97 408.701 97.04V107.74H492.331V97.04C492.331 94.97 490.651 93.29 488.581 93.29Z" fill="#4DA1DB"/>
<path d="M520.669 237.64H560.099C562.789 237.64 564.989 239.83 564.989 242.53V249.19C564.989 251.88 562.799 254.08 560.099 254.08H520.669C517.979 254.08 515.779 251.89 515.779 249.19V242.53C515.789 239.83 517.979 237.64 520.669 237.64ZM560.109 250.97C561.099 250.97 561.899 250.17 561.899 249.18V242.52C561.899 241.53 561.099 240.73 560.109 240.73H520.679C519.689 240.73 518.889 241.53 518.889 242.52V249.18C518.889 250.17 519.689 250.97 520.679 250.97H560.109Z" fill="#D69521"/>
<path d="M560.139 248.45L557.879 270.57C557.669 272.64 556.059 274.2 554.149 274.2H526.809C524.899 274.2 523.289 272.64 523.079 270.57L520.819 248.45C520.569 246.03 522.309 243.92 524.549 243.92H556.419C558.649 243.92 560.389 246.03 560.139 248.45Z" fill="#7F7F7F"/>
<path d="M521.659 256.78H559.289L560.139 248.45C560.389 246.03 558.649 243.92 556.409 243.92H524.539C522.299 243.92 520.559 246.03 520.809 248.45L521.659 256.78Z" fill="#505050"/>
<path d="M560.111 189.52H520.681C517.991 189.52 515.791 187.33 515.791 184.63V177.97C515.791 175.28 517.981 173.08 520.681 173.08H560.111C562.801 173.08 565.001 175.27 565.001 177.97V184.63C564.991 187.33 562.801 189.52 560.111 189.52ZM520.671 176.19C519.681 176.19 518.881 176.99 518.881 177.98V184.64C518.881 185.63 519.681 186.43 520.671 186.43H560.101C561.091 186.43 561.891 185.63 561.891 184.64V177.98C561.891 176.99 561.091 176.19 560.101 176.19H520.671Z" fill="#D69521"/>
<path d="M520.641 178.71L522.901 156.59C523.111 154.52 524.721 152.96 526.631 152.96H553.971C555.881 152.96 557.491 154.52 557.701 156.59L559.961 178.71C560.211 181.13 558.471 183.24 556.231 183.24H524.361C522.131 183.24 520.391 181.13 520.641 178.71Z" fill="#7F7F7F"/>
<path d="M559.191 171.07H521.421L520.641 178.71C520.391 181.13 522.131 183.24 524.371 183.24H556.241C558.481 183.24 560.221 181.13 559.971 178.71L559.191 171.07Z" fill="#505050"/>
<path d="M569.31 206.16H572.37C573.28 206.16 574.02 205.42 574.02 204.51V196.2C574.02 195.29 573.28 194.55 572.37 194.55H569.31C568.4 194.55 567.66 195.29 567.66 196.2V204.51C567.66 205.42 568.4 206.16 569.31 206.16Z" fill="#D2D2D2"/>
<path d="M574.031 196.52H572.051V197.55H574.031V196.52Z" fill="#939393"/>
<path d="M574.031 198.59H572.051V199.62H574.031V198.59Z" fill="#939393"/>
<path d="M574.031 200.65H572.051V201.68H574.031V200.65Z" fill="#939393"/>
<path d="M574.031 202.71H572.051V203.74H574.031V202.71Z" fill="#939393"/>
<path d="M561.461 247.27H519.141C514.581 247.27 510.881 243.57 510.881 239.01V188.43C510.881 183.87 514.581 180.17 519.141 180.17H561.461C566.021 180.17 569.721 183.87 569.721 188.43V239.01C569.721 243.57 566.031 247.27 561.461 247.27Z" fill="white"/>
<path d="M569.721 194.54V188.44C569.721 183.88 566.021 180.18 561.461 180.18H519.141C514.581 180.18 510.881 183.88 510.881 188.44V194.54H569.721Z" fill="#D2D2D2"/>
<path d="M561.46 248.82H519.14C513.73 248.82 509.33 244.42 509.33 239.01V188.44C509.33 183.03 513.73 178.63 519.14 178.63H561.46C566.87 178.63 571.27 183.03 571.27 188.44V239.01C571.27 244.42 566.87 248.82 561.46 248.82ZM519.15 181.73C515.45 181.73 512.44 184.74 512.44 188.44V239.01C512.44 242.71 515.45 245.72 519.15 245.72H561.47C565.17 245.72 568.18 242.71 568.18 239.01V188.44C568.18 184.74 565.17 181.73 561.47 181.73H519.15Z" fill="#505050"/>
<path d="M483.429 88.8701H416.919C409.609 88.8701 403.689 94.8001 403.689 102.1V261.01C403.689 268.32 409.619 274.24 416.919 274.24H483.429C490.739 274.24 496.659 268.31 496.659 261.01V102.1C496.659 94.7901 490.739 88.8701 483.429 88.8701ZM491.159 260.25C491.159 264.8 487.469 268.49 482.919 268.49H417.429C412.879 268.49 409.189 264.8 409.189 260.25V102.87C409.189 98.3201 412.879 94.6301 417.429 94.6301H482.919C487.469 94.6301 491.159 98.3201 491.159 102.87V260.25Z" fill="#444444"/>
<path d="M427.83 94.3901V95.6001C427.83 98.5401 430.22 100.93 433.16 100.93H467.81C470.75 100.93 473.14 98.5501 473.14 95.6001V94.3901H427.83Z" fill="#444444"/>
<path d="M460.35 98.38C461.151 98.38 461.8 97.7308 461.8 96.93C461.8 96.1292 461.151 95.48 460.35 95.48C459.55 95.48 458.9 96.1292 458.9 96.93C458.9 97.7308 459.55 98.38 460.35 98.38Z" fill="#737373"/>
<path d="M445.74 98.16H454.97C455.57 98.16 456.06 97.67 456.06 97.07C456.06 96.47 455.57 95.98 454.97 95.98H445.74C445.14 95.98 444.65 96.47 444.65 97.07C444.65 97.68 445.14 98.16 445.74 98.16Z" fill="#737373"/>
<path d="M464.99 266.4H435.64C435.16 266.4 434.77 266.01 434.77 265.53C434.77 265.05 435.16 264.66 435.64 264.66H464.99C465.47 264.66 465.86 265.05 465.86 265.53C465.86 266.01 465.48 266.4 464.99 266.4Z" fill="#E6E6E6"/>
<path d="M375.041 22.21H55.7211C47.2411 22.21 40.3711 29.08 40.3711 37.56V258.87C40.3711 267.35 47.2411 274.22 55.7211 274.22H375.041C383.521 274.22 390.391 267.35 390.391 258.87V37.56C390.401 29.08 383.521 22.21 375.041 22.21ZM367.481 258.61C367.481 260.11 366.271 261.32 364.771 261.32H66.6611C65.1611 261.32 63.9511 260.11 63.9511 258.61V37.4C63.9511 35.9 65.1611 34.69 66.6611 34.69H364.771C366.271 34.69 367.481 35.9 367.481 37.4V258.61Z" fill="#505050"/>
<path d="M52.6702 153.71C55.8513 153.71 58.4302 151.131 58.4302 147.95C58.4302 144.769 55.8513 142.19 52.6702 142.19C49.489 142.19 46.9102 144.769 46.9102 147.95C46.9102 151.131 49.489 153.71 52.6702 153.71Z" fill="#737373"/>
<path d="M367.61 219.39L324.56 229.33L272.77 132.67C272.56 132.28 272.19 132 271.75 131.91C271.32 131.82 270.86 131.93 270.51 132.2L141.3 234.05L105.89 222.95C105.1 222.7 104.26 223.14 104.01 223.93C103.76 224.72 104.2 225.56 104.99 225.81L141.16 237.14C141.31 237.19 141.46 237.21 141.61 237.21C141.94 237.21 142.27 237.1 142.54 236.89L270.97 135.66L322.46 231.75C322.78 232.34 323.46 232.65 324.12 232.5L367.62 222.45V219.39H367.61Z" fill="#B2B2B2"/>
<path d="M271.441 137.43C273.495 137.43 275.161 135.764 275.161 133.71C275.161 131.655 273.495 129.99 271.441 129.99C269.386 129.99 267.721 131.655 267.721 133.71C267.721 135.764 269.386 137.43 271.441 137.43Z" fill="#E6E6E6" stroke="#939393" stroke-width="1.5" stroke-miterlimit="10"/>
<path d="M324.441 235.1C326.495 235.1 328.161 233.435 328.161 231.38C328.161 229.326 326.495 227.66 324.441 227.66C322.386 227.66 320.721 229.326 320.721 231.38C320.721 233.435 322.386 235.1 324.441 235.1Z" fill="#E6E6E6" stroke="#939393" stroke-width="1.5" stroke-miterlimit="10"/>
<path d="M141.441 239.6C143.495 239.6 145.161 237.935 145.161 235.88C145.161 233.826 143.495 232.16 141.441 232.16C139.386 232.16 137.721 233.826 137.721 235.88C137.721 237.935 139.386 239.6 141.441 239.6Z" fill="#E6E6E6" stroke="#939393" stroke-width="1.5" stroke-miterlimit="10"/>
<path d="M105.441 228.1C107.495 228.1 109.161 226.435 109.161 224.38C109.161 222.326 107.495 220.66 105.441 220.66C103.386 220.66 101.721 222.326 101.721 224.38C101.721 226.435 103.386 228.1 105.441 228.1Z" fill="#E6E6E6" stroke="#939393" stroke-width="1.5" stroke-miterlimit="10"/>
<path d="M232.109 93.1699H93.1094V200.45H232.109V93.1699Z" fill="#4DA1DB"/>
<path d="M114.109 103.21H102.609V114.71H114.109V103.21Z" fill="#8FC3EC"/>
<path d="M114.109 128.53H102.609V140.03H114.109V128.53Z" fill="#8FC3EC"/>
<path d="M114.109 153.85H102.609V165.35H114.109V153.85Z" fill="#8FC3EC"/>
<path d="M114.109 179.17H102.609V190.67H114.109V179.17Z" fill="#8FC3EC"/>
<path d="M223.109 103.21H211.609V114.71H223.109V103.21Z" fill="#8FC3EC"/>
<path d="M223.109 128.53H211.609V140.03H223.109V128.53Z" fill="#8FC3EC"/>
<path d="M223.109 153.85H211.609V165.35H223.109V153.85Z" fill="#8FC3EC"/>
<path d="M223.109 179.17H211.609V190.67H223.109V179.17Z" fill="#8FC3EC"/>
<path d="M177.339 183.27H148.379C135.799 183.27 125.609 173.08 125.609 160.5V131.99C125.609 119.41 135.799 109.22 148.379 109.22H177.339C189.919 109.22 200.109 119.41 200.109 131.99V160.5C200.109 173.08 189.919 183.27 177.339 183.27Z" fill="white"/>
<path d="M153 159.42V131.88C153 131.49 153.1 131.12 153.29 130.78C153.48 130.45 153.75 130.17 154.08 129.97C154.41 129.78 154.78 129.68 155.16 129.68C155.54 129.68 155.91 129.78 156.24 129.97L179.92 143.74C180.25 143.93 180.52 144.21 180.71 144.54C180.9 144.88 181 145.26 181 145.64C181 146.03 180.9 146.41 180.71 146.74C180.52 147.07 180.25 147.35 179.92 147.54L156.24 161.31C155.91 161.5 155.54 161.6 155.16 161.6C154.78 161.6 154.41 161.5 154.08 161.3C153.75 161.11 153.48 160.83 153.29 160.5C153.1 160.18 153 159.8 153 159.42Z" fill="#FFB900"/>
<path d="M461.101 156.74C461.101 144.87 451.271 135.3 439.301 135.72C428.841 136.09 420.091 144.38 419.131 154.8C418.861 157.77 419.221 160.61 420.071 163.23C420.081 163.25 420.081 163.27 420.091 163.29C423.321 173.14 434.971 190.86 438.821 196.57C439.421 197.46 440.721 197.46 441.321 196.57C445.201 190.86 456.941 173.13 460.171 163.28C460.631 161.88 460.851 160.63 460.891 159.49C461.011 158.6 461.101 157.68 461.101 156.74Z" fill="#EDAC28"/>
<path d="M440.072 164.81C444.529 164.81 448.142 161.197 448.142 156.74C448.142 152.283 444.529 148.67 440.072 148.67C435.615 148.67 432.002 152.283 432.002 156.74C432.002 161.197 435.615 164.81 440.072 164.81Z" fill="white"/>
<path d="M473.111 229.21L441.261 202.07C440.901 201.76 440.411 201.63 439.951 201.74L409.371 208.5V211.58L439.881 204.84L471.141 231.84C471.531 232.19 474.231 230.96 473.111 229.21Z" fill="#B2B2B2"/>
<path d="M440.281 207.1C442.335 207.1 444.001 205.435 444.001 203.38C444.001 201.326 442.335 199.66 440.281 199.66C438.226 199.66 436.561 201.326 436.561 203.38C436.561 205.435 438.226 207.1 440.281 207.1Z" fill="#E6E6E6" stroke="#939393" stroke-width="1.5" stroke-miterlimit="10"/>
<path d="M473.351 231.5L521.751 204.51C521.751 204.51 522.241 200.8 521.851 201.02L472.061 228.79C472.471 229.64 472.911 230.57 473.351 231.5Z" fill="#B2B2B2"/>
<path d="M522.281 206.43C524.335 206.43 526.001 204.764 526.001 202.71C526.001 200.655 524.335 198.99 522.281 198.99C520.226 198.99 518.561 200.655 518.561 202.71C518.561 204.764 520.226 206.43 522.281 206.43Z" fill="white" stroke="#939393" stroke-width="1.5" stroke-miterlimit="10"/>
<path d="M472.281 234.1C474.335 234.1 476.001 232.435 476.001 230.38C476.001 228.326 474.335 226.66 472.281 226.66C470.226 226.66 468.561 228.326 468.561 230.38C468.561 232.435 470.226 234.1 472.281 234.1Z" fill="#E6E6E6" stroke="#939393" stroke-width="1.5" stroke-miterlimit="10"/>
<path d="M594.49 205.13H532.87C528.78 205.13 525.43 208.48 525.43 212.57V224.23C525.43 228.32 528.78 231.67 532.87 231.67H540.51V238.93L547.77 231.67H594.49C598.58 231.67 601.93 228.32 601.93 224.23V212.57C601.93 208.48 598.58 205.13 594.49 205.13Z" fill="#4DA1DB"/>
<path d="M592.52 216.66H534.19C533.54 216.66 533.02 216.14 533.02 215.49C533.02 214.84 533.54 214.32 534.19 214.32H592.52C593.17 214.32 593.69 214.84 593.69 215.49C593.69 216.14 593.16 216.66 592.52 216.66Z" fill="white"/>
<path d="M592.52 222.15H534.19C533.54 222.15 533.02 221.63 533.02 220.98C533.02 220.33 533.54 219.81 534.19 219.81H592.52C593.17 219.81 593.69 220.33 593.69 220.98C593.69 221.63 593.16 222.15 592.52 222.15Z" fill="white"/>
<defs>
<linearGradient id="paint0_linear" x1="295.362" y1="178.35" x2="295.362" y2="33.4029" gradientUnits="userSpaceOnUse">
<stop offset="0.0994" stop-color="#E6E6E6"/>
<stop offset="0.9511" stop-color="white"/>
</linearGradient>
<linearGradient id="paint1_linear" x1="460.643" y1="151.293" x2="460.643" y2="93.2935" gradientUnits="userSpaceOnUse">
<stop offset="0.0994" stop-color="#E6E6E6"/>
<stop offset="0.9511" stop-color="white"/>
</linearGradient>
</defs>
</svg>
