<svg id="Layer_1" data-name="Layer 1" xmlns="http://www.w3.org/2000/svg" viewBox="0 0 636 300"><defs><style>.cls-1{fill:#e6e6e6;}.cls-2{font-size:48px;fill:#505050;font-family:SegoeUI-Bold, Segoe UI;}.cls-3{font-weight:700;}.cls-4{font-family:SegoeUI-Semibold, Segoe UI;}.cls-5{font-size:24px;font-family:SegoeUI-Semilight, Segoe UI;letter-spacing:0.01em;}.cls-6{letter-spacing:0.01em;}.cls-7{letter-spacing:0em;}.cls-8{letter-spacing:0.02em;}.cls-9{letter-spacing:0em;}.cls-10{letter-spacing:0.01em;}.cls-11{letter-spacing:0em;}</style></defs><title>swimlane-contributors-around-world</title><path class="cls-1" d="M369.12,173.92c-1.55,2.89.63,3.72,2.64,3.58,3-.21,5.89-1.15,9.59-1.95a25.53,25.53,0,0,1-8.16,14.36c-3.08,2.72-6.35,5.26-9.16,8.22-3.16,3.33-2.11,7.46-.78,11.11,2.21,6,1.6,8.57-3.89,12.48-1.5,1.06-2.8,2.4-4.26,3.67a44.84,44.84,0,0,1,1.22,4.52,2.5,2.5,0,0,1-.53,2.09c-4.78,3.4-5.07,9.75-9.48,13.43a16.12,16.12,0,0,1-8.78,3.77c-5,.66-8.36.82-9.92-5.62-1.72-7.08-6-13.55-8.43-20.52-.84-2.38-.28-5.67.71-8.15,1.73-4.36,1.46-11.45-2.12-14.53-3.22-2.77-4-5.67-2.68-9.37,1.09-3.07-.55-3.94-3.29-4.35-1.29-.19-2.44-1.32-3.72-1.48a32.49,32.49,0,0,0-7.17-.2c-4.58.44-9.23,2-13.64,1.51-2.94-.35-5.68-3.36-8.2-5.52-1.75-1.51-2.76-3.84-4.49-5.39-2.1-1.88-2-3.82-1.44-6.19.42-1.93,1-4.21.33-5.92-1.77-4.65,1.61-7.49,3.51-10.74,1-1.79,3.3-2.88,4.84-4.44,1-1,2.1-2.18,2.32-3.43.44-2.46,1.11-4.38,3.7-5.48,1-.44,1.62-1.77,2.53-1.88,4.5-1,9-2.18,13.5-3,3.67-.62,7.51-1.38,11.12-.94s1.59,3.28.92,5.71l14.93,6.12c1.49-4.59,2.25-5.19,6.25-3.23,5.24,2.56,10.77,1.41,16.13,1.61,1.11,0,2.52-3.72,3.49-5.86.41-.91.07-2.15.07-3.21-3.41,0-6.58.42-9.56-.14a10.62,10.62,0,0,1-5.27-3.42c-.93-1-.86-2.9-1.24-4.4l-3.55,1c-.26,2.53-.47,4.5-.68,6.47l-1,.32c-1.56-2.48-3.12-5-4.7-7.43a21.87,21.87,0,0,0-2.52-3.67,36.15,36.15,0,0,0-5.25-4.56c-.86-.6-2.23-.51-3.36-.73.29,1,.25,2.37.91,3,2.26,2.2,4.77,4.16,6.93,6l-1.48,3.43c-1.33-1.37-2.55-3.1-4.22-4.24-4.06-2.77-11.15-5-15.29-4.1-2.38.53-3.66,2.74-5,4.11a8.72,8.72,0,0,0-2.15,3.24c-1.32,4.3-6.16,6.27-10.45,4.18a13.68,13.68,0,0,0-3.4-.53c0-3.3-.13-6.67.12-10,.05-.61,1.66-1.56,2.56-1.58,2.88,0,5.77.29,8.53.46,2-5.23,1.47-6.38-4.55-9.74,1.91-.53,3.66-.61,4.88-1.43,3.52-2.38,6.74-5.22,10.28-7.58,1.8-1.19,4.05-1.73,6.39-2.7.74-2.25-4.39-6.2,2.23-7.47a29.92,29.92,0,0,0,.06,3.4c0,.27.71.48,1.08.72l-2,2.07c2.63.69,5.46,2.39,6.89,1.62,4-2.15,12,1.26,11.74-7.27,0-.15.35-.32.51-.46l3.4.77c-.11-1.16-.6-2.46-.21-3.43a4.11,4.11,0,0,1,2.58-2.09,54.62,54.62,0,0,1,6.67-.71l-.15-1.41a49.74,49.74,0,0,1-7.07.55c-1.87-.11-4.88-.52-5.27-1.55-.83-2.18-1.29-5,1.72-6.82a31.94,31.94,0,0,0,4.47-3.9c-3-2.17-5.36-1.83-6.65.56a10.83,10.83,0,0,1-3.1,3.71c-4.52,3.17-4.82,5-1.1,8.76-1.13,1.84-2.24,3.67-3.37,5.49-.54.89-.91,2.08-1.72,2.58-1.95,1.2-4.13,2.07-6.29,3.12l-1.12-1.53,3.05-2c-1.11-2.31-2.25-4.71-3.38-7.08-.3.07-.46.05-.54.13-1.7,1.55-3.56,4.43-5.83,2.6-1.65-1.32-2.23-4.53-2.24-6.9,0-1.18,2.35-2.36,3.6-3.57,4.41-4.24,8.8-8.49,13.58-13.11l-2.67-.81c4.34-4.33,19.44-9.11,25.77-5.74L347,62.09c2.31.65,4.7,1.19,7,2a97.49,97.49,0,0,1,10.14,4c2,1,2,2.8-.27,3.44a19.47,19.47,0,0,1-6.52.46c-1.29-.08-2.53-.92-4-1.5,3.21,6.57,3.21,6.57,7,7.46-.37-.54-.59-.92-.87-1.25s-.66-.62-1.56-1.44l5.57,1c-.31-3.58,2-4.68,4.58-4.19s2.35-.46,2.09-2.17a27.8,27.8,0,0,1,0-3.8l3.87.63c-1,1.1-1.6,1.74-2.23,2.43,1.67,1.59,2.66,1.83,4.69,0s6.8-4.39,7.95-3.54c3.66,2.72,7.1-2,10.26.57.17.14,1.29-.85,2.26-1.51L393,61.14l15.73,5c-.65-2.43-2.38-5.26-1.76-7.48.66-2.4,3.52-4.22,5.43-6.31,4.43,1.68,2.08,5.83,3.13,8.79.54,1.51,1.43,3.28,1.05,4.64-.62,2.21-2.16,4.18-3.41,6.42,2.83-.15,4.4-2.14,5.76-4.42.52-.87,1-1.76,1.49-2.64l2.84,2.51c.9-2.12-.1-3.59-3.31-3.36-2.35.16-3.07-.12-2.37-2.55.31-1.07-.33-2.41-.63-4.11l3-2.5c.09,1.19.17,2.31.26,3.58h3.69l-2.32-1.23c3.17-4.33,6.43-.57,9.93,0l-3.93-5.12L438,50.94c-.25-.3-.49-.61-.73-.91,1.19-1.14,2.2-3,3.6-3.31,5-1.27,9.63-3.89,15.15-2.87,2.18.41,4-.71,5.54-2.88,1.2-1.74,3.52-4.17,6.14-.42.79,1.14,3.46,1.13,5.3,1.48,1.49.27,3.15,0,4.51.51a5.19,5.19,0,0,1,3,2.64c.22.7-1.27,2.11-2.27,2.87a14,14,0,0,1-3.32,1.37c0,.43,0,.86,0,1.3,2.91.25,5.83.41,8.71.81a39.09,39.09,0,0,1,5.3,1.32c2.74.78,5.15,1.79,8-.61,1.27-1.07,4.48-.31,6.67.2.88.21,1.41,2,2,3.07.73,1.28,1.12,2.92,2.19,3.74.45.34,2.27-1,3.45-1.59,3.18,0,6.55,0,9.92,0a5.68,5.68,0,0,0,1.25-.3c-.43-1.47.1-2.53,1.66-2.67a40.79,40.79,0,0,1,6.72-.12,19,19,0,0,1,5.35,1.29c1.33.53,2.33,2,3.66,2.33,3.1.69,6.3.91,9.46,1.29,2.2.26,5.14-.89,5.42,2.93,0,.42,1.42,1.08,2.16,1.05,4-.13,7.9-.45,11-.65l3.2,3.11.87-.55c-.07-1-.14-2-.2-3,3.89-2.72,21.19,3.61,23,7.43l8.25,2L597.21,77l-9.6-4.5c.25,3-1.71,4-4.94,3.2l3,4.71c-3.87,1.5-7.47,2.49-10.62,4.26a13,13,0,0,1-6.44,1.86c-3.67.17-8.67-.08-10.34,5,1.64,1.76,1.58,2.87.09,5.4-2.08,3.53-5.68,5.62-7.47,9.18-.13.24-.65.3-1.28.56-.59-2.95-1.73-5.81-1.54-8.59a8.46,8.46,0,0,1,3.2-5.79c4.47-3,8.65-6.15,10.81-11.52l-6,4.91c-2-3-4.23-3.33-6.88-1-1.34,1.21-2.28,2.9-3.74,3.91a7,7,0,0,1-3.84.76c-1.45,0-2.88-.57-4.33-.75-.56-.07-1.22.47-1.73.34-7.45-1.85-12,2.51-16.48,7.12-.94,1-2.25,1.57-3.56,3.49a55.08,55.08,0,0,0,6.23.93c2,.08,3.54,2.31,3.11,5-1.15,7.12-5.33,12.39-10.78,16.89-.29.24-.72.63-1,.56-5.93-1.77-6.47,4.27-9.74,6.33,4.12,6.72,4,7.6-2.1,9,.12-1.87.23-3.61.36-5.58l-2.55-.69c.2-.91.38-1.71.77-3.46l-6.07,1.21c.08-.91.17-2,.32-3.68-1.58,1.13-2.64,1.94-3.76,2.66a9.86,9.86,0,0,0-3.19,2.76l7.34,1.93-4,3c1.31,3.91,2.86,7.1,3.37,10.43.58,3.74-8,11.53-12,11.47a5.72,5.72,0,0,0-1.77.46c-2.07.7-3.64,2.72-6.48,1.34-.9-.43-3.37,1.28-4.46,2.55-.54.63.15,2.63.78,3.75.78,1.37,2.25,2.36,3.12,3.7,2.1,3.27,1.5,5.11-1.92,7.24-1.33.83-2.48,2-2.68,1.67q-3.65-3.74-7.28-7.46c-3.81,7.77-3.48,8.18,1.52,13.18,1.66,1.66,2.16,4.42,3.19,6.68l-1.14.84c-1.58-1.91-3.91-3.6-4.57-5.77-1-3.15-4.11-5.28-3.49-9.29.49-3.21-.81-6.68-1.34-10.19l-3.75,1.65-6-10.65c-.5.36-.87.85-1.28.88-5.43.39-8.34,4.54-12.09,7.48-2.75,2.15-5.29,3.91-4.84,8.2a5.66,5.66,0,0,1-4.79,6.18c-1.57-3.37-3.45-6.71-4.7-10.25a104.3,104.3,0,0,1-2.67-10.53c-.74.34-1.85,1.29-2.48,1.05-.93-.36-3.37-.54-1.71-2.71-2.51-1.5-4.86-3.43-7.57-4.34-2-.68-4.59.27-6.81-.1s-4.07-1.46-6.11-2.21c-.65-.24-1.48-.75-2-.55-3.77,1.52-5.75-.87-7.34-3.36-1.27-2-2.5-2.54-4.8-1.34.67,2.92,1.73,5.42,4.8,6.63.19.08.44.15.54.3,2.35,3.59,2.9,3.63,6.28.38.26-.25.55-.49.52-.46l6.47,5.54c-6.2,9.32-15.76,12.84-26,15.26-.69-3.71-1.43-7.4-4-10.45a31.59,31.59,0,0,1-2.81-3.8c-2-3.18-3.74-6.49-5.84-9.58-.52-.75-2-.86-3.38-1.38.31,1,.44,1.57.68,2.12,1.94,4.3,3.62,8.74,5.94,12.84S364.16,172.13,369.12,173.92Zm-7.65-47.44c.06.15.12.3.19.44a29.8,29.8,0,0,0,3.94-1.78c.27-.16.18-1.6-.2-1.91-2.89-2.3-5.58-5.1-10-4.17a3.31,3.31,0,0,1-2.73-.75c-2.52-3.17-3.36-3.29-5.63-.19a14,14,0,0,0-1.91,3.39c-.39,1.09-.93,2.88-.41,3.37.94.91,3.13,1.91,3.91,1.45,3.93-2.29,7.56-1.76,11.32.13C360.37,126.66,361,126.48,361.47,126.48ZM380,120.37c1.2-.76,2-1.59,2.84-1.71a9.31,9.31,0,0,1,3.07.71l-1.62-4c-3.85-.67-8.06.53-9,3.65-.75,2.49,2,6,3,8.64,0,1.77-.71,4.31.15,5,1.88,1.53,4.49,3,7.52.67l-1.36-5.83,2.38-.77Z"/><path class="cls-1" d="M127.31,65.72c1.64.34,3.28.65,4.9,1a47,47,0,0,0,6.59,1.56c2.24.2,5.78.92,3.26-3.51-.22-.38.91-1.49,1.62-2.57l4,3.58-2.86.59c.58,1,1.11,1.91,1.67,2.87,1-.84,1.93-1.58,2.82-2.33,2-1.65.41-3.28-.76-3.67-3.47-1.15-2.57-3.11-1.71-5.38a7.09,7.09,0,0,0,.6-3.32c-.51-3.51.88-4.86,4.5-4.13,1,.19,1.92.31,3.73.59l-6.5,5.37c1.63,2.35,4.44,3.42,3.38,6.09l3.35,3.31c5.26-4.26,1.74,4.21,5.25,3.51L165,62.08l-8.34-1.71,3.13-1.46L156,57.41c.44-1.16.57-2.7,1.43-3.5A14.81,14.81,0,0,1,162.81,51c-1.63,3.72-1.55,4.66.59,6.57.08-1.32-.44-3.46.4-4.26,1.19-1.13,3.38-1.29,5.14-1.85.09,0,.24.14.34.12,4.19-.79,7.27.63,10.47,3.48s7.33,4.33,11,6.54c.71.43,1.67,1.67,1.48,2.11-1.28,3,1,3.23,2.87,4,2.26.88,4.41,2,7.08,3.25l-4.33,4.49-4.54-3.65-.86.37a7.18,7.18,0,0,0,.72,2.43c.56.75,1.83,1.07,2.25,1.85a6.19,6.19,0,0,1,.75,3.57c-.06.42-1.86.6-3.12,1,.22.34.64,1,1.06,1.69l-.71.95a85.47,85.47,0,0,1-8.59-5.23c-2.12-1.65-4.21-1.45-6.55-1.35-.86,0-1.75-.72-2.63-1.12.74-.49,1.45-1.34,2.22-1.4,2-.16,4.11.42,4.15-2.79,0-.77,1.78-1.54,3.19-2.66a20.08,20.08,0,0,0-3.2-2.49c-2.26-1.06-4-3.14-6-4-2.44-1-5.58-.23-7.63-.23.35,2.77,1.67,5.79.68,7.61-.84,1.53-4.38,1.65-7.11,2.51,0-.3,0,.42-.07,1.14l.13-.12L160.15,75c-1.17,1-2.28,2.06-3.51,3-3.4,2.53-6.95,5-8.17,9.25a3.42,3.42,0,0,0,.85,2.63,37.22,37.22,0,0,0,3.52,3.35l15.24,5.87c1,5.89,2.12,7.29,6.33,6.85-.4-2.14-.8-4.25-1.22-6.47,5.56-3.77,5.81-5.08,2.1-8.31.2-3.26.37-6,.56-9.1,4.4-1.22,8.37.87,11.56,3.76,1.39,1.73,2.47,4.15,4.29,4.92,1,.42,3.23-2,5.67-3.61,1.09,2.37,2.3,5.36,3.83,8.17a10,10,0,0,0,3,2.91c1.69,1.22,3.67,2.1,5.26,3.42s1.73,3.31-.4,4.1c-3.28,1.21-6.17,3.25-10.2,2.93-3.08-.24-6.31,1.34-9.48,2.1l.3,1.25,6.88-1.39,1.14,1.45-2.46,1.79c.51.68,1.18,2.52,2.42,3,1.45.56,3.39-.06,5.19-.17.18,1.67-1.68,2.81-8.74,3.86l3-2.15c-4.75-1.06-10.49,2.65-10.53,5.37-2.39,2.44-3.84,4.3-5.68,5.68s-3.16,2.77-2.52,5.51c.22.95-1.42,2.74-2.64,3.52-6.06,3.87-6.15,4-4.22,10.9a17.22,17.22,0,0,1,.24,3.61l-1.11.5c-.88-1.51-1.71-3.05-2.66-4.53-.68-1.08-1.82-3.05-2.23-2.93-3,.87-6-3.18-8.88.28a3.36,3.36,0,0,1-2.66.49c-3.73-.68-8.76.93-9.76,3.28-2,4.73-.66,12.32,2.6,14.41,2.53,1.63,6.58.34,8.21-1.9,1-1.45,3.21-2.13,4.87-3.16.26.33.52.67.79,1-.92,2.82-1.83,5.64-2.8,8.6h3.31c5.18,0,5.44.29,4.9,5-.51,4.43,1.55,5.32,6.08,5.62a11,11,0,0,0,8.86-2.92c2.64-2.16,6.35-1.38,9.71.09a9.91,9.91,0,0,0,6.17.81c2.86-.83,3.55,1.09,5.33,2.11,2.88,1.64,4.34,5.35,8.79,5.05,5.45-.36,9,4.53,7.56,8.36,3.36,1.58,6.67,3.15,10,4.65.41.19,1-.07,1.47.07,4,1.3,8,2.51,11.94,4,1.95.77,2.13,5,.32,6.89-3.12,3.28-5.56,6.55-5.46,11.5.05,2.59-1.73,5.37-3.18,7.78a6.14,6.14,0,0,1-3.89,2.29c-4.65.75-7.12,2.86-8,7.17a8.94,8.94,0,0,1-1.51,3.34c-1.89,2.63-3.53,5.68-6.05,7.55-1.9,1.4-5,1.23-7,1.65.24,1,1.58,3.3.88,4.43a6.84,6.84,0,0,1-5.22,2.58c-3.51-.09-2.83,2.42-3.47,4.38l-4.49-.42,2.43,3.07a67.3,67.3,0,0,0-5.1,6.72c-.31.5,1.22,2.05,2,3.23-.76,2.93-4.82,3.88-4.74,8s3.74,4.53,5.11,7c-4.7,1.54-10.65-.62-12.86-4.35-2.5-4.21-3.27-8.56-.95-13.66,3.44-1.21,1.19-5.36,2.89-8l-.88-.38c-.42.81-.85,1.62-1.28,2.43l-.91-.29c1.36-5.33,2.91-10.64,4-16,1-4.66,1.43-9.43,2.13-14.14.27-1.82.53-3.64.86-5.45.76-4.05-.73-7.54-4.59-9.12-4.62-1.89-5.36-6.45-7.8-9.82-1.58-2.19-3.05-4.45-4.56-6.69-.19-.29-.56-.7-.47-.9,1.57-3.69-1-8.5,3.33-11.45,3.34-2.27,3.2-5.32,1.6-8.5a17.13,17.13,0,0,0-1.83-2.47c-.83.74-1.67,1.47-2.62,2.3a17.75,17.75,0,0,1-3.28-1.73c-1.91-1.53-3.54-3.38-5.45-4.91a29.9,29.9,0,0,0-4.65-2.89c-2.19-1.16-4.44-2.2-6.69-3.25-.89-.41-2-1.16-2.73-1-6.59,1.72-10.56-3.86-16-5.31a1.09,1.09,0,0,1-.62-.83c.7-6.16-5.67-8-8-12.34a35.23,35.23,0,0,0-4.18-5.57,14.8,14.8,0,0,0-2.21-1.86l-1.07.83,7,11-.86.52a56.74,56.74,0,0,1-8.8-12.52,9.17,9.17,0,0,0-3-3.59c-6.51-4.1-9.49-10-8.81-17.3.56-6,.35-11.1-5.67-13.36-.07-1.44.22-2.53-.21-3.17-2.39-3.57-4.81-7.14-7.55-10.46-.9-1.09-2.76-1.43-4.35-1.89-3.22-3.38-7.38-4.77-12-6-5.1-1.33-9.52-1.54-14,3.38.18-2.34.26-3.33.34-4.33C53.21,91.14,49,96.93,40.38,98c3.3-2.21,7.38-2.88,7.95-7.3l-6.76-.82c-.13-.82-.29-1.9-.5-3.24-4,3.09-3.91-1.56-5.77-2.64a29.37,29.37,0,0,1,3.8-4.13c1.43-1.08,5.08-.16,3.34-3.87-3.59.54-7.32,2-9.67-2.63,2.19-.36,3.89-3.41,6.58-.62.19.2,1.58-.58,2.29-1.07a2.55,2.55,0,0,0-.8-1.64c-2.23-1.2-4.55-2.24-8-3.88,6.14-2.72,11.28-5.26,16.65-7.22,1.59-.58,3.8.4,5.72.73,7,1.2,14.09,1.85,20.81,3.84,5.18,1.53,9.52.11,14.19-1,1.91-.46,3.91-.59,6.61-1L98,62.81c4,.45,7.34.76,10.64,1.21,2.1.28,4.15.84,6.24,1.12s2.78,1,1.1,3.36c2.36-.1,4.33-.2,6.3-.26,1,0,1.94,0,2.91,0H129l-1.58-2.63Zm26.08,49.12,10.32,1.35c-3.89,1.53-5.16,5.37-2.62,9.7.41-2.28.42-3.82,1-5.1a9.26,9.26,0,0,1,2.67-2.89,2.43,2.43,0,0,1,1.62,1,8,8,0,0,1,.46,3.94c-.71,2.84.88,2.84,2.67,2.17,2.72-1,5.31-2.35,8-3.55-.09-.34-.19-.67-.29-1-1.44.46-2.93.81-4.31,1.4s-2.88,1.52-4.74,2.53c.73-2.26,1.2-3.7,1.62-5l2.33.23c.13-.34.27-.67.41-1-1.33-.65-2.64-1.37-4-1.94-1-.43-2.71-.37-3.1-1.07-2.84-5.07-6.38-5.15-10.63-1.81C154.47,114.07,154.16,114.28,153.39,114.84Zm-41.07-42-.42-1.74h-9.22c0,.35,0,.7,0,1.05l2.24.24c-.47.92-.92,1.78-1.79,3.45Zm4.13,9.1-3.11,3.2c5.18,1.53,7.77-2.54,11.23-4.57Z"/><path class="cls-1" d="M279.4,25.76l-7.48,2.95,1.1.41-8,7.75L271,41.13l-5.87,1.15c1.33,1,2.66,1.63,3.16,2.62.31.6-.67,1.82-1.16,3l1.6.93c-1.89,3.78-5.21,3.94-8.91,3.11l-.47,1c1.11,1.26,2,2.82,3.38,3.71,2.26,1.46,3.07,4.9.72,5.88-4.75,2-9,5.8-14.87,4.24-2.11,3.93-4.57,6.84-9.82,6.52a4.47,4.47,0,0,0-4.49,4.29c-.35,3.41-2.58,6.64-4,10-10.26-1.56-14.8-10.85-16-18.07-.19-1.09,1.49-2.53,2.39-3.74a24.84,24.84,0,0,1,2-2.15,26.79,26.79,0,0,0-2.4-1.88,6,6,0,0,1-2.66-2.17l3.74.8c-1.13-2.42-1.13-2.42-6.11-2.59,1.41-7.54-4.85-14.3-12.83-13.88A30.26,30.26,0,0,1,193,44c-1.11-.14-2.11-1.05-3.19-1.55a11.41,11.41,0,0,1-3.24-1.92l7-.53v-.58l-9.68-1.28,0-1.28c2.64-.86,5.31-1.67,7.93-2.6,1.42-.51,2.76-1.24,4.14-1.86l-3.5-3.06,9.29-2.95c2.06-4.34,6.61-2.85,10-3.75.72-.19,1.8.94,2,1.08,1.59,0,2.73,0,3.87,0,.6,0,1.19.09,1.79.15-.05-.64-.09-1.28-.17-2.31l4.43.83c2-3.43,5.29-3.9,9-3.4a11.84,11.84,0,0,0,2.21.23c6.63-.39,13.25-.88,19.88-1.18a9.77,9.77,0,0,1,3.56,1c2,.77,4,1.63,6.8,2.78l-16.39,1.6.09,1.1,9.52-.95-1.52,2.05.36.57,6.65-2.57.51.88-3.2,3.7C267.21,26,272.68,22.48,279.4,25.76Z"/><path class="cls-1" d="M502.17,215.67c1.74,1.63,3.17,3,4.93-.46.87-1.71,3.06-3.86,6.16-2.65a11.61,11.61,0,0,0,3.56.35c.23,2.1-.2,4.47.82,5.73,1.18,1.47,3.62,2,6.55,3.42l2-10.62.79-.09c1.87,3.58,3.47,7.33,5.69,10.69a40,40,0,0,0,6.48,7.17c6.5,5.93,6.92,12.87,1.8,19.41a10,10,0,0,0-1.46,3c-1.47,4.39-3.71,5.59-8.64,4.77-.8-.13-1.94,1-2.57.76-2.24-.93-5.66-.38-6-4.09,0-.53-.62-1-1-1.51-.93-1.16-1.9-2.29-2.86-3.46l-1.78,2.23c-5.46-7.24-10.38-6.75-19.24-2.59a16.62,16.62,0,0,1-3.17.85,50.4,50.4,0,0,1-5,1.16,12.17,12.17,0,0,1-4.58,0c-.41-.11-.17-2.16-.47-3.25-.9-3.16-2.08-6.25-2.84-9.43-.48-2-1.2-4.47-.37-6,1-1.83,3.43-3,5.4-4.23,2.9-1.8,6.89-1.45,8.54-5.82C495.84,218.73,499.59,217.48,502.17,215.67Z"/><path class="cls-1" d="M157.75,43.39a20.91,20.91,0,0,1,1-2.45,33,33,0,0,1,1.93-2.76l2.51.72.46-.51-4.25-3.19c-2.68,2.6-5.2,2.57-9.94-.66l2.47-1.11-.36-.57a8.87,8.87,0,0,1-3.07.28c-.87-.22-1.54-1.14-2.3-1.75,1.82-5.29,4.26-6.07,8.67-3.14,1.23.81,3.13.67,4.73,1l3,4.8c.14-.2-.14.22-.73,1.09l3.71-.8-4.14-4.59,6.55.73c0-.4.05-.81.07-1.22-2.84-.16-5.61-1.43-8.57.11l-5.64-4.69c16.07-3.57,31.51-7.75,47.55-3.09l.29,1.21L193.81,25l2.46.8c-5.06,1.55-8.4,5.57-13.55,6-.07,0-.11.21-.19.3-2.42,2.91-4.67,6-8.26,7.74-.34.16-.05,1.55-.05,3.4l-16.54.1Z"/><path class="cls-1" d="M114.54,52.83l3.25.88-.18.66h7.91c.35.54,1.17,1.78,2.45,3.75.26-2.73-1-5.17,1.74-6.13a20.53,20.53,0,0,1,3-.56c-1.17,4.94.07,7.14,5.51,10.62,0,1.19-4.93,0,.13,3.55l-1.67-.07a30,30,0,0,0-5.26-.92c-1.36,0-2.72.71-4.09,1.11a.9.9,0,0,1,.09-.1,15.86,15.86,0,0,1-3.66.32,41.42,41.42,0,0,1-5.45-1.28,15.29,15.29,0,0,1-5.58-2.48l3.32-.67a9,9,0,0,0,3.45-1.16L111.62,60l-.05-.66,1.68-.93-3.13-1.61,2.36-3.3Z"/><path class="cls-1" d="M539.09,210.86c-1.73-1-3.54-1.91-5.18-3.05-2-1.41-3.84-3-6.13-.23-.45.55-2.07.44-3.08.25a42.45,42.45,0,0,1-4.73-1.46c1.42-3.68-1.48-5.09-4.23-5.53-4-.65-4.81-4.22-7.41-6.08,2.43.3,5.48-.61,6,3.12,0,.12,2.19.4,2.7-.07,1.81-1.65,3.57-1.52,5.56-.56,3.45,1.66,7.3,2.82,10.26,5.08,2.66,2,4.36,5.24,6.48,7.93Z"/><path class="cls-1" d="M486.8,183.76l2.23,2c-.61.76-1.34,1.66-2.17,2.67.5,1.15,1,2.36,1.38,3.13-1.39,2.93-2.65,5.56-4,8.39-2-.44-4.59-.47-6.5-1.58-1.72-1-2.83-3.1-4-4.86-.24-.38.39-1.71,1-2.09C478.58,188.88,482.49,186.48,486.8,183.76Z"/><path class="cls-1" d="M379.57,213.31c-.43,3.15-.58,5.75-1.17,8.26a88.74,88.74,0,0,1-2.76,8.8c-.66,1.89-1.12,4.89-3.95,3.62-1.42-.64-2.26-3.47-2.48-5.4-.26-2.26.37-4.64.77-7a3.74,3.74,0,0,1,1.13-2.24C373.52,217.51,376.08,215.8,379.57,213.31Z"/><path class="cls-1" d="M409.55,42.68c-2.44.86-4.82,2.07-7.34,2.51-6.21,1.09-10.38,4.88-13.49,9.72-.7,1.1,1,3.64,1.76,6.28l-8.09-3.46C387,45.23,397.78,43,408.93,41.26,409.13,41.73,409.34,42.2,409.55,42.68Z"/><path class="cls-1" d="M291.4,108.37l2.26-1.69-.89-.21c.32-1.33.67-2.66.94-4,.2-1,.76-2.31.33-3a66.32,66.32,0,0,0-4.67-5.71c1.82-1.94,1.82-1.94,7.05-.54-.46,1-.91,1.94-1.18,2.53l6.77,8.5C300.4,107.52,299.54,107.9,291.4,108.37Z"/><path class="cls-1" d="M469.49,197.48c-.46,1.74-.92,3.46-1.5,5.62-8.38-3.32-9.77-12.58-16.58-16.87l.64-1.13c1.54.65,3.38,1,4.57,2,3.27,2.83,6.21,6,9.43,8.92C466.91,196.78,468.29,197,469.49,197.48Z"/><path class="cls-1" d="M157.68,43.35l-2,.83c5.25,4.24,11.47-1.58,17.57,2.48-1.56.94-2.73,2.25-3.91,2.26-4.69,0-9.38-.26-14.06-.6-.9-.07-2.51-.93-2.5-1.41.05-3.29-2-3.81-4.66-3.92-.71,0-1.4-.74-2.1-1.14.09-.32.19-.63.28-1l11.43,2.49Z"/><path class="cls-1" d="M114.54,52.83l-2.06.66a22.24,22.24,0,0,0-3.71,2.07c-4.38,3.67-4.79,4.48-9,.5l2.61-7c3,.35,6.56.59,10,1.24C113.21,50.48,113.81,52,114.54,52.83Z"/><path class="cls-1" d="M523.69,126.22c3.09,5.19.25,10.69-4.81,11.67-2,.39-3.87,1.46-5.86,1.92a11.8,11.8,0,0,1-3.41-.17l-.9,4.92c-2.07-4.78-.59-7.42,3.84-8.09,2.17-.33,4.3,0,5.05-2.71.08-.3,1.26-.18,1.63-.55a27.2,27.2,0,0,0,3.35-3.85A12.3,12.3,0,0,0,523.69,126.22Z"/><path class="cls-1" d="M264.35,77.72c-.14-1-.31-2.11-.51-3.53h-3.2c2.3-1.92,4-3.53,5.37,0,5.28-3,8.75-2.85,12.07.64C274.24,78.56,270.06,80.46,264.35,77.72Z"/><path class="cls-1" d="M126.35,41.25c.21,3.82,2.47,3.44,4.76,2.72.2,3.11-6.21,5.41-13.65,4.75L120.24,47H113c.71-1.3,1-2.43,1.75-3.12,2.1-2,4.08-.15,6.06.48,1.33.43,2.59,1.08,4,1.66.14-1.78.23-3,.32-4.23Z"/><path class="cls-1" d="M458.29,34.72c-6.78.31-9.45-1-7.89-3.95l-3.66-.8c.87-1.07,1.35-2.08,2.16-2.54,2-1.1,4.09-1.46,5.68.57.19.24-1.05,1.55-1.63,2.36l5.74,1.05C458.57,32.42,458.44,33.45,458.29,34.72Z"/><path class="cls-1" d="M575.27,261.36l2.26,1c-.77,1.07-1.37,2-2.06,2.85-1.65,2.07-3.1,4.41-5.14,6-1,.76-3.1.13-5-.73Z"/><path class="cls-1" d="M141.89,58.43l-6.38-4.65,4,.37c-.17-.94-.58-2.3-.41-2.37a38.45,38.45,0,0,1,4.38-1.39c.13.8.27,1.6.37,2.4,0,.18-.22.43-.16.56C145.14,56.45,145.14,56.45,141.89,58.43Z"/><path class="cls-1" d="M210.89,106.42c-1.49,2.3-1,3.19,1.45,3.92,1.43.42,2.3,2.69,4,4.85l-11.15-2c1.53-2.48,3-4.77,4.38-7.07Z"/><path class="cls-1" d="M290.56,99.25c-.13,4.23-1.9,6.77-6.7,6.2C285.53,98.08,286.75,97,290.56,99.25Z"/><path class="cls-1" d="M133,43.25l11.14-.78c-.41,1.87-.25,3.86-1.19,4.71a2.17,2.17,0,0,1-3.65-1.48c0-.14-1.66.18-2.35-.13A37.31,37.31,0,0,1,133,43.25Z"/><path class="cls-1" d="M526.72,115.86V100.58C530.37,106.32,527.67,111.16,526.72,115.86Z"/><path class="cls-1" d="M161.8,73.66l9.14,4c-.14.3-.29.59-.43.88l-8.58.4V73.54Z"/><path class="cls-1" d="M584,256.21l-4.53,6.65c-.62-3-2.4-4.86-1.29-7.67.79-2,1.31-1.13,2.37-.5A29.83,29.83,0,0,0,584,256.21Z"/><path class="cls-1" d="M494.81,202.43l-4.32-2.06,1.55-1.75c-.18,1.17-.37,2.35-.55,3.53l-1.09,0c-.2-2.61-.39-5.23-.61-8.16l4.08,1.86c.62,2.05,1.18,3.85,1.73,5.65C495.34,201.79,495.07,202.11,494.81,202.43Z"/><path class="cls-1" d="M103.9,43.22l10.78-4.37c-.36,3.16-.42,2.89-3.46,3.5-2.27.46-4.37,1.73-6.54,2.64Z"/><path class="cls-1" d="M522.79,124.43l3.61-5.87,6,3.94Z"/><path class="cls-1" d="M469.14,203.42l14.83,3c-.08.38-.16.76-.23,1.14l-15-2.34Z"/><path class="cls-1" d="M180,162.89l-3.78-1.33-9.79-3.48C168.91,156.32,173.71,157.5,180,162.89Z"/><path class="cls-1" d="M467.73,36.22l-8.67,1.55C460.92,32.52,463,32,467.73,36.22Z"/><path class="cls-1" d="M492,174.89c-.17-3.47-.31-6.49-.46-9.5l1.76-.38c.3,1.1,1.19,2.49.79,3.23-1.12,2.12-.6,3.22,1.37,3.74Z"/><path class="cls-1" d="M132,33.44c3.53.17,7,.39,8.72,4.8l-9.16-3.61C131.7,34.24,131.85,33.84,132,33.44Z"/><path class="cls-1" d="M500.89,179.41c0,1.42.32,2.83-.16,3.91-.2.46-2.16.53-3.15.23s-1.61-1.3-2.44-2Z"/><path class="cls-1" d="M393.28,27.49,384.12,30l-.37-.48c2.57-1.33,5.12-2.72,7.76-3.9C391.74,25.52,392.63,26.78,393.28,27.49Z"/><path class="cls-1" d="M125.32,35.87c-1.39,2.65-2.57,4.83-6.13,3.13C120.59,36.87,121.39,34.22,125.32,35.87Z"/><text class="cls-2" transform="translate(194 87)"><tspan class="cls-3">25,000<tspan class="cls-4" x="151.05" y="0">+</tspan></tspan><tspan class="cls-5"><tspan x="0" y="40">acti</tspan><tspan class="cls-6" x="37.03" y="40">v</tspan><tspan x="48.36" y="40">e OSS contribu</tspan><tspan class="cls-7" x="206.67" y="40">t</tspan><tspan x="214.4" y="40">o</tspan><tspan class="cls-8" x="228.45" y="40">r</tspan><tspan x="237.03" y="40">s</tspan></tspan></text><text class="cls-2" transform="translate(194 195)"><tspan class="cls-3">1,700<tspan class="cls-4" x="123.45" y="0">+</tspan></tspan><tspan class="cls-5"><tspan x="0" y="40">OSS com</tspan><tspan class="cls-9" x="96.26" y="40">p</tspan><tspan class="cls-10" x="110" y="40">any contribu</tspan><tspan class="cls-11" x="242.44" y="40">t</tspan><tspan x="250.17" y="40">o</tspan><tspan class="cls-8" x="264.22" y="40">r</tspan><tspan x="272.8" y="40">s</tspan></tspan></text></svg>