<svg width="636" height="300" viewBox="0 0 636 300" fill="none" xmlns="http://www.w3.org/2000/svg">
<path d="M528.25 146.62C526.7 144.3 512.01 118.78 510.2 115.68C508.4 112.59 505.82 111.55 502.47 111.55C501.62 111.55 499.77 111.55 497.34 111.55C490.59 111.55 478.23 111.55 471.02 111.55C468.58 111.55 466.73 111.55 465.89 111.55C462.54 111.55 459.96 112.58 458.16 115.68C456.36 118.77 441.66 144.3 440.11 146.62C438.56 148.94 438.56 151.78 441.14 156.42C443.72 161.06 456.61 183.75 458.16 186.59C459.71 189.43 462.03 191.1 465.89 191.1C466.75 191.1 468.78 191.1 471.41 191.1C480.55 191.1 496.96 191.1 496.96 191.1C499.59 191.1 501.62 191.1 502.48 191.1C506.35 191.1 508.67 189.42 510.21 186.59C511.76 183.75 524.65 161.07 527.23 156.42C529.79 151.78 529.79 148.94 528.25 146.62ZM504.24 172.01H495.73L484.22 152.05L472.71 172.01H464.2L475.8 151.32L464.2 130.63H472.84L484.22 150.58L495.6 130.63H504.24L492.64 151.32L504.24 172.01Z" fill="#4393D4"/>
<path d="M327.43 243.2H619.85C621.65 243.2 622.45 240.91 621.02 239.81C610.29 231.61 596.19 226.62 580.74 226.62C574.54 226.61 568.37 227.43 562.38 229.06C546.66 218.84 528.28 213.46 509.52 213.59C494.96 213.59 471.24 216.68 459.18 222.15C443.22 213.79 425.45 209.47 407.43 209.55C381.06 209.55 357.1 218.45 339.35 232.97C335.53 230.48 331.54 228.26 327.42 226.31V243.2H327.43Z" fill="#E0E0E0"/>
<path d="M516.27 77.6801C516.28 76.4101 516.04 75.1401 515.56 73.9601C515.08 72.7801 514.37 71.7001 513.48 70.8001C512.58 69.8901 511.52 69.1701 510.34 68.6801C509.17 68.1801 507.91 67.9301 506.63 67.9201C505.65 67.9001 504.68 68.0401 503.74 68.3301C503.26 64.5001 501.47 60.9501 498.68 58.2701C495.89 55.6001 492.27 53.9601 488.42 53.6401C484.57 53.3201 480.72 54.3301 477.53 56.5001C474.33 58.6701 471.98 61.8801 470.87 65.5801C469.32 64.8601 467.63 64.4901 465.92 64.4801C462.87 64.4601 459.94 65.6601 457.78 67.8001C455.61 69.9401 454.39 72.8601 454.37 75.9001C454.35 78.9501 455.54 81.8801 457.69 84.0401C459.83 86.2101 462.75 87.4301 465.79 87.4501H506.22V87.3101C506.35 87.3101 506.49 87.4501 506.63 87.4501C507.9 87.4401 509.17 87.1801 510.34 86.6901C511.51 86.2001 512.58 85.4701 513.48 84.5701C514.38 83.6601 515.08 82.5901 515.56 81.4101C516.04 80.2301 516.28 78.9601 516.27 77.6801Z" fill="#CBE5F3"/>
<path d="M127.11 111.34C125.24 103.86 120.8 97.2597 114.56 92.7197C108.32 88.1797 100.69 85.9697 92.9903 86.4897C85.2903 87.0097 78.0203 90.2097 72.4403 95.5397C66.8703 100.87 63.3403 108 62.4903 115.67C59.5303 113.55 56.0503 112.27 52.4203 111.97C48.7903 111.67 45.1503 112.36 41.8803 113.97C38.6103 115.58 35.8403 118.04 33.8603 121.1C31.8803 124.16 30.7703 127.7 30.6403 131.34C29.1503 130.52 27.5003 130.05 25.8103 129.97C24.1203 129.89 22.4203 130.19 20.8703 130.87C19.3103 131.54 17.9303 132.56 16.8303 133.85C15.7303 135.14 14.9303 136.66 14.5103 138.31C14.0903 139.95 14.0503 141.67 14.3903 143.33C14.7303 144.99 15.4503 146.55 16.4903 147.89C17.5303 149.23 18.8603 150.32 20.3903 151.06C21.9103 151.81 23.5903 152.19 25.2803 152.19H131.73C133.64 152.19 135.52 151.77 137.25 150.96C138.98 150.15 140.51 148.97 141.74 147.51C142.96 146.05 143.85 144.33 144.35 142.49C144.84 140.64 144.92 138.71 144.59 136.84C144.26 134.96 143.51 133.18 142.42 131.62C141.32 130.06 139.89 128.76 138.24 127.81C136.59 126.86 134.74 126.28 132.84 126.12C130.94 125.96 129.02 126.22 127.23 126.87C128.21 122.72 128.38 118.42 127.72 114.21L127.11 111.34Z" fill="#CBE5F3"/>
<path d="M490.681 243.34C490.681 243.34 491.101 238.67 493.261 238.42C494.911 238.29 496.561 238.64 498.011 239.42C498.341 239.67 501.181 243.67 501.181 243.67L506.701 241.73C506.701 241.73 509.101 238.75 511.271 241.33C513.441 243.91 503.521 246.5 503.521 246.5L490.681 243.34Z" fill="#C2BEBC"/>
<path d="M500.9 237.31C501.92 235.45 501.03 233.05 500.81 232.3C500.59 231.55 495.4 231.77 495.4 231.77L496.64 237.75L500.9 237.31Z" fill="#B3B3B3"/>
<path d="M500.701 237.09H497.091C497.091 236.98 497.101 236.87 497.101 236.76V232.68H501.341C501.111 231.36 500.441 230.17 499.441 229.29C498.441 228.41 497.161 227.9 495.831 227.84C495.661 227.84 495.281 227.87 495.191 227.87C493.681 228 492.281 228.67 491.231 229.76C490.181 230.85 489.551 232.27 489.471 233.78C489.491 235.36 490.141 236.87 491.261 237.98C492.391 239.09 493.901 239.72 495.491 239.72L500.301 239.65C500.411 239.65 500.521 239.61 500.601 239.54C500.691 239.47 500.751 239.38 500.781 239.27L501.191 237.69C501.211 237.62 501.211 237.54 501.191 237.47C501.181 237.4 501.141 237.33 501.101 237.27C501.051 237.21 501.001 237.16 500.931 237.13C500.851 237.1 500.771 237.09 500.701 237.09Z" fill="white"/>
<path d="M496.33 232.51V233.61L501.93 233.53L501.42 232.43L496.33 232.51Z" fill="#D3D3D3"/>
<path d="M495.82 227.84C495.71 227.84 495.55 227.85 495.46 227.85C494.68 227.84 493.9 227.99 493.17 228.29C492.44 228.58 491.78 229.02 491.22 229.57C490.66 230.12 490.22 230.78 489.92 231.5C489.62 232.22 489.46 233 489.46 233.78C489.45 234.55 489.59 235.32 489.88 236.04C490.17 236.76 490.59 237.41 491.13 237.96C491.67 238.51 492.31 238.95 493.03 239.25C493.74 239.55 494.5 239.71 495.28 239.72C495.36 239.72 495.72 239.72 495.92 239.72C494.43 239.58 493.04 238.88 492.03 237.77C491.02 236.66 490.47 235.21 490.48 233.7C490.48 232.23 491.03 230.82 492.02 229.74C493.01 228.66 494.36 227.98 495.82 227.84Z" fill="#F3F3F3"/>
<path d="M443.641 249.94L433.351 253.19V242.77L443.641 246.02V249.94Z" fill="white"/>
<path d="M528.18 241.35L521.99 232.34C521.99 232.34 514.19 237.93 503.04 246.28C497.23 250.63 524.83 250.75 527.94 248.31C531.06 245.87 528.18 241.35 528.18 241.35Z" fill="white"/>
<path d="M489.28 229.27C489.28 229.27 476.71 230.51 472.6 238.61C468.49 246.7 489.03 243.71 489.03 243.71L489.28 229.27Z" fill="#D3D3D3"/>
<path d="M472.83 242.33C476.14 245.58 489.03 243.71 489.03 243.71L489.22 232.45C482.31 233.38 476.97 235.93 472.83 242.33Z" fill="#D3D3D3"/>
<path d="M451.28 236.42L450.79 235.15C450.28 234.43 449.73 233.73 449.14 233.07C449.02 233.01 448.46 232.82 447.94 232.65L447.03 234.44C447.33 234.77 447.67 235.06 448.03 235.32C448.64 235.77 449.19 236.28 449.68 236.86C449.68 236.86 450.14 236.69 449.89 236.11C449.65 235.66 449.32 235.25 448.94 234.91L449.43 235.06L449.98 235.51C450.2 235.89 450.48 236.22 450.83 236.5C451.19 236.68 451.28 236.42 451.28 236.42Z" fill="#A88663"/>
<path d="M489.4 245.83C489 245.83 488.62 245.67 488.34 245.39C488.06 245.11 487.9 244.73 487.9 244.33V227.77C487.9 227.37 488.06 226.99 488.34 226.71C488.62 226.43 489 226.27 489.4 226.27C489.8 226.27 490.18 226.43 490.46 226.71C490.74 226.99 490.9 227.37 490.9 227.77V244.33C490.9 244.73 490.74 245.11 490.46 245.39C490.18 245.67 489.8 245.83 489.4 245.83Z" fill="#B3B3B3"/>
<path d="M439.86 228.38C439.86 228.2 439.9 228.02 439.99 227.86C440.07 227.7 440.19 227.56 440.34 227.45C440.49 227.34 440.66 227.27 440.84 227.24C441.02 227.21 441.2 227.23 441.38 227.28C449.56 229.95 488.59 242.62 502.6 245.45C518.28 248.62 528.18 241.34 528.18 241.34C528.18 241.34 563.87 252.95 566.68 253.7C569.48 254.45 570.94 260.58 566.09 260.58H442.52C441.82 260.58 441.14 260.3 440.64 259.8C440.14 259.3 439.86 258.62 439.86 257.92V228.38Z" fill="#C6C6C6"/>
<path d="M567.13 253.83C566.57 253.68 565.29 253.3 562.59 252.44V260.57H566.08C573.18 260.58 570.87 254.82 567.13 253.83Z" fill="#C2BEBC"/>
<path d="M439.86 257.03V257.92C439.86 258.27 439.93 258.62 440.06 258.94C440.19 259.26 440.39 259.56 440.64 259.8C440.89 260.05 441.18 260.24 441.5 260.38C441.82 260.51 442.17 260.58 442.52 260.58H566.08C570.06 260.58 570.98 258.76 570.54 257.03H439.86Z" fill="#C6C6C6"/>
<path d="M562.59 257.03V260.58H566.08C570.06 260.58 570.98 258.76 570.54 257.03H562.59Z" fill="#C2BEBC"/>
<path d="M495.501 243.84C512.691 249.07 525.551 250.71 538.011 244.54C532.361 242.71 528.171 241.35 528.171 241.35C528.171 241.35 518.271 248.63 502.591 245.46C500.341 245 497.451 244.3 494.141 243.42C494.611 243.56 495.071 243.7 495.501 243.84Z" fill="#B3B3B3"/>
<path d="M458.25 263.77C467.07 263.77 474.21 256.62 474.21 247.8C474.21 238.98 467.06 231.84 458.25 231.84C449.43 231.84 442.29 238.99 442.29 247.8C442.29 256.61 449.43 263.77 458.25 263.77Z" fill="#B3B3B3"/>
<path d="M458.85 256.44C463.85 256.44 467.9 252.39 467.9 247.39C467.9 242.39 463.85 238.34 458.85 238.34C453.85 238.34 449.8 242.39 449.8 247.39C449.8 252.39 453.85 256.44 458.85 256.44Z" fill="#F3F3F3"/>
<path d="M458.85 254.84C462.96 254.84 466.3 251.5 466.3 247.39C466.3 243.27 462.96 239.94 458.85 239.94C454.74 239.94 451.4 243.27 451.4 247.39C451.4 251.5 454.73 254.84 458.85 254.84Z" fill="white"/>
<path d="M458.85 239.94C457.87 239.94 456.9 240.13 456 240.51C455.1 240.88 454.28 241.43 453.58 242.12C452.89 242.81 452.34 243.63 451.97 244.54C451.6 245.44 451.4 246.41 451.4 247.39H466.3C466.3 246.41 466.11 245.44 465.73 244.54C465.36 243.64 464.81 242.81 464.12 242.12C463.43 241.43 462.61 240.88 461.7 240.51C460.79 240.13 459.82 239.94 458.85 239.94Z" fill="#CCCCCC"/>
<path d="M458.85 250.58C460.61 250.58 462.04 249.15 462.04 247.39C462.04 245.63 460.61 244.2 458.85 244.2C457.09 244.2 455.66 245.63 455.66 247.39C455.66 249.15 457.08 250.58 458.85 250.58Z" fill="#C6C6C6"/>
<path d="M544.39 263.94C549.82 263.94 554.23 259.53 554.23 254.1C554.23 248.67 549.82 244.26 544.39 244.26C538.95 244.26 534.55 248.67 534.55 254.1C534.55 259.53 538.96 263.94 544.39 263.94Z" fill="#B3B3B3"/>
<path d="M544.761 259.42C547.841 259.42 550.341 256.92 550.341 253.84C550.341 250.76 547.841 248.26 544.761 248.26C541.681 248.26 539.181 250.76 539.181 253.84C539.191 256.92 541.681 259.42 544.761 259.42Z" fill="#F3F3F3"/>
<path d="M544.76 258.43C547.3 258.43 549.35 256.37 549.35 253.84C549.35 251.31 547.29 249.25 544.76 249.25C542.23 249.25 540.17 251.31 540.17 253.84C540.17 256.37 542.22 258.43 544.76 258.43Z" fill="white"/>
<path d="M544.76 249.25C543.54 249.25 542.37 249.73 541.51 250.6C540.65 251.46 540.17 252.63 540.17 253.85H549.35C549.35 252.63 548.87 251.46 548.01 250.6C547.15 249.73 545.98 249.25 544.76 249.25Z" fill="#CCCCCC"/>
<path d="M544.76 255.81C545.85 255.81 546.73 254.93 546.73 253.84C546.73 252.75 545.85 251.87 544.76 251.87C543.67 251.87 542.79 252.75 542.79 253.84C542.79 254.93 543.67 255.81 544.76 255.81Z" fill="#C6C6C6"/>
<path d="M485.32 255.92C488.49 255.92 491.05 253.35 491.05 250.19C491.05 247.03 488.48 244.46 485.32 244.46C482.15 244.46 479.59 247.03 479.59 250.19C479.59 253.35 482.15 255.92 485.32 255.92Z" fill="#EFEFEF"/>
<path d="M249.87 235.94L272.96 207.83C261.15 198.13 252.63 185.03 248.54 170.3C244.46 155.58 245.02 139.95 250.14 125.56C255.27 111.17 264.71 98.6997 277.18 89.8797C289.65 81.0497 304.54 76.2797 319.82 76.2297C335.1 76.1797 350.02 80.8397 362.55 89.5797C375.08 98.3197 384.61 110.72 389.84 125.07C395.07 139.43 395.74 155.05 391.76 169.8C387.78 184.55 379.35 197.72 367.61 207.5L390.71 235.61C408.24 221.07 420.85 201.47 426.82 179.5C432.79 157.53 431.84 134.24 424.08 112.83C416.33 91.4197 402.15 72.9197 383.49 59.8597C364.83 46.7997 342.6 39.8297 319.82 39.8797C297.05 39.9297 274.84 47.0097 256.25 60.1597C237.66 73.3097 223.56 91.8697 215.91 113.32C208.26 134.77 207.41 158.06 213.49 180.01C219.58 201.94 232.28 221.48 249.87 235.94Z" fill="#D2D2D2"/>
<path d="M320.1 276.81C389.87 276.81 446.44 220.25 446.44 150.47C446.44 80.6999 389.88 24.1299 320.1 24.1299C250.32 24.1299 193.76 80.6999 193.76 150.48C193.76 220.25 250.32 276.81 320.1 276.81Z" fill="white"/>
<path d="M214.331 81.3799C198.471 105.66 191.441 134.66 194.441 163.51C197.441 192.36 210.261 219.3 230.771 239.81C251.281 260.32 278.221 273.15 307.071 276.14C335.921 279.13 364.921 272.11 389.201 256.25L214.331 81.3799Z" fill="#E5F2F9"/>
<path d="M249.5 231.5L270.11 211.31C271.68 209.39 271.45 206.61 269.63 204.92C259.55 195.58 252.24 183.6 248.55 170.3C244.47 155.58 245.03 139.95 250.15 125.56C255.28 111.17 264.72 98.6997 277.19 89.8797C289.66 81.0497 304.55 76.2797 319.83 76.2297C335.11 76.1797 350.03 80.8397 362.56 89.5797C375.09 98.3197 384.62 110.72 389.85 125.07C395.08 139.43 395.75 155.05 391.77 169.8C388.21 182.98 381.1 194.9 371.25 204.26C369.25 206.16 369.1 209.3 370.85 211.43L387.59 231.8C389.32 233.91 392.48 234.16 394.5 232.33C410.07 218.18 421.3 199.86 426.84 179.5C432.81 157.52 431.86 134.24 424.1 112.83C416.35 91.4197 402.17 72.9197 383.51 59.8597C364.85 46.7997 342.62 39.8297 319.84 39.8797C297.07 39.9297 274.86 47.0097 256.27 60.1597C237.68 73.3097 223.58 91.8697 215.93 113.32C208.28 134.77 207.43 158.06 213.51 180.01C219.59 201.96 227.66 215.81 245.26 230.27L249.5 231.5Z" fill="#ED8422"/>
<path d="M209.58 154.74C209.6 155.41 209.63 156.07 209.66 156.73C209.69 157.2 209.72 157.67 209.76 158.14C209.8 158.7 209.83 159.26 209.88 159.82C209.92 160.34 209.98 160.86 210.03 161.37C210.08 161.87 210.12 162.37 210.18 162.87C210.24 163.43 210.31 163.98 210.39 164.53C210.45 164.98 210.5 165.43 210.57 165.88C210.65 166.47 210.74 167.05 210.83 167.63C210.89 168.04 210.96 168.45 211.03 168.87C211.13 169.48 211.24 170.09 211.36 170.7C211.43 171.07 211.5 171.45 211.57 171.82C211.7 172.46 211.83 173.1 211.97 173.73C212.04 174.06 212.11 174.4 212.19 174.73C212.34 175.4 212.5 176.06 212.66 176.72C212.73 177.02 212.8 177.31 212.88 177.61C213.06 178.3 213.24 178.99 213.42 179.67C213.49 179.93 213.56 180.18 213.63 180.44C213.83 181.15 214.04 181.87 214.25 182.57C214.32 182.79 214.38 183.01 214.45 183.23C214.68 183.97 214.92 184.7 215.16 185.43C215.22 185.61 215.28 185.8 215.34 185.98C215.6 186.74 215.87 187.5 216.14 188.26C216.19 188.4 216.24 188.54 216.3 188.69C216.59 189.48 216.89 190.26 217.2 191.04C217.24 191.14 217.28 191.24 217.32 191.34C217.65 192.16 217.98 192.97 218.32 193.78C218.34 193.83 218.37 193.88 218.39 193.94C218.75 194.79 219.13 195.64 219.51 196.48C215.53 184.89 213.5 172.72 213.51 160.47C213.51 159.38 213.53 158.29 213.56 157.2C213.57 156.86 213.59 156.53 213.6 156.19C213.63 155.43 213.67 154.67 213.71 153.92C213.73 153.55 213.75 153.17 213.78 152.8C213.83 152.04 213.89 151.29 213.96 150.53C213.99 150.2 214.01 149.88 214.05 149.55C214.15 148.48 214.27 147.42 214.41 146.37C214.41 146.34 214.42 146.3 214.42 146.27C214.55 145.25 214.7 144.23 214.86 143.21C214.91 142.89 214.97 142.56 215.02 142.24C215.14 141.51 215.27 140.77 215.41 140.04C215.48 139.69 215.54 139.33 215.61 138.98C215.75 138.24 215.91 137.5 216.07 136.77C216.14 136.47 216.2 136.16 216.27 135.86C216.5 134.83 216.75 133.81 217.01 132.79C217.02 132.75 217.03 132.71 217.04 132.67C217.29 131.7 217.56 130.73 217.84 129.76C217.93 129.46 218.02 129.16 218.11 128.86C218.32 128.15 218.54 127.43 218.77 126.73C218.87 126.4 218.98 126.08 219.09 125.75C219.33 125.03 219.58 124.3 219.83 123.59C219.92 123.32 220.02 123.05 220.11 122.79C220.47 121.81 220.84 120.83 221.22 119.86C221.23 119.83 221.24 119.8 221.26 119.77C221.63 118.84 222.01 117.91 222.41 116.99C222.53 116.72 222.65 116.45 222.76 116.19C223.06 115.5 223.37 114.81 223.69 114.12C223.82 113.83 223.96 113.54 224.1 113.25C224.44 112.54 224.78 111.83 225.13 111.13C225.24 110.91 225.35 110.68 225.46 110.46C225.94 109.53 226.42 108.6 226.92 107.68L226.95 107.63C227.43 106.74 227.93 105.87 228.44 105C228.58 104.76 228.72 104.53 228.85 104.3C229.25 103.63 229.64 102.97 230.05 102.31C230.21 102.06 230.37 101.8 230.52 101.55C230.96 100.86 231.4 100.18 231.85 99.4999C231.97 99.3199 232.09 99.1399 232.21 98.9499C232.48 98.5499 232.75 98.1599 233.02 97.7599C233.05 97.7199 233.08 97.6799 233.11 97.6299C233.41 97.1999 233.7 96.7699 234 96.3499C234.23 96.0299 234.47 95.7099 234.7 95.3899L234.85 95.1899C235.17 94.7499 235.5 94.3099 235.82 93.8799C235.97 93.6799 236.13 93.4799 236.28 93.2799L236.48 93.0199C236.52 92.9599 236.57 92.9099 236.61 92.8499C236.99 92.3599 237.37 91.8799 237.75 91.4099C237.92 91.1899 238.09 90.9799 238.27 90.7699C238.31 90.7199 238.35 90.6599 238.4 90.6099L238.42 90.5899C238.91 89.9899 239.4 89.3999 239.9 88.8199C240.02 88.6799 240.13 88.5399 240.25 88.3999C241.61 86.8199 243.02 85.2699 244.47 83.7699C244.63 83.5999 244.8 83.4399 244.96 83.2699C245.41 82.8099 245.86 82.3599 246.31 81.9099C246.42 81.7999 246.53 81.6999 246.64 81.5899L246.69 81.5399C246.87 81.3599 247.05 81.1799 247.24 81.0099C247.61 80.6499 247.98 80.2999 248.36 79.9399C248.52 79.7899 248.68 79.6399 248.84 79.4899L249.15 79.1999C249.26 79.0999 249.37 78.9899 249.49 78.8899C249.81 78.5899 250.14 78.3099 250.46 78.0099C250.64 77.8399 250.83 77.6799 251.01 77.5199C251.54 77.0499 252.09 76.5799 252.63 76.1199L253.2 75.6399C253.55 75.3499 253.89 75.0599 254.24 74.7799C254.41 74.6399 254.59 74.4999 254.76 74.3599L254.9 74.2499C255.07 74.1099 255.24 73.9699 255.42 73.8299C255.85 73.4899 256.28 73.1499 256.72 72.8199C256.91 72.6699 257.11 72.5199 257.3 72.3699L257.34 72.3399C257.45 72.2599 257.56 72.1699 257.67 72.0899C258.26 71.6399 258.86 71.1999 259.47 70.7699L259.8 70.5299C278.36 57.2699 300.56 50.0699 323.36 49.9099C346.17 49.7499 368.46 56.6499 387.2 69.6499C387.39 69.7799 387.58 69.9099 387.77 70.0499C388.07 70.2599 388.38 70.4799 388.68 70.6999C403.16 80.8199 414.97 94.3099 423.07 110.01C415.61 91.1199 403.11 74.6399 386.93 62.3699C386.18 61.8099 385.44 61.2499 384.68 60.6999C384.38 60.4799 384.08 60.2699 383.77 60.0499C383.65 59.9599 383.52 59.8799 383.39 59.7899L383.19 59.6499C380.96 58.0999 378.68 56.6299 376.33 55.2499L376.27 55.2199C373.95 53.8499 371.58 52.5599 369.15 51.3599L369.01 51.2899C366.62 50.1099 364.17 49.0099 361.69 47.9999C361.61 47.9699 361.53 47.9299 361.45 47.8999C360.21 47.3999 358.96 46.9199 357.69 46.4599L357.63 46.4399C356.41 45.9999 355.18 45.5799 353.95 45.1899L353.61 45.0799C352.37 44.6899 351.12 44.3099 349.85 43.9599L349.46 43.8499C348.29 43.5299 347.11 43.2299 345.93 42.9399C345.8 42.9099 345.66 42.8699 345.53 42.8399C344.29 42.5499 343.03 42.2799 341.78 42.0299L341.13 41.9099C339.98 41.6899 338.81 41.4799 337.65 41.2899C337.51 41.2699 337.37 41.2399 337.24 41.2199C335.99 41.0199 334.73 40.8599 333.46 40.6999C333.19 40.6699 332.92 40.6399 332.65 40.6099C331.46 40.4799 330.27 40.3599 329.07 40.2599C328.97 40.2499 328.87 40.2399 328.77 40.2299C327.5 40.1299 326.22 40.0599 324.94 40.0099C324.64 39.9999 324.33 39.9899 324.02 39.9799C322.73 39.9399 321.43 39.8999 320.12 39.8999C318.78 39.8999 317.45 39.9299 316.13 39.9799C315.83 39.9899 315.54 39.9999 315.24 40.0099C313.94 40.0699 312.64 40.1399 311.36 40.2399C311.18 40.2499 311.01 40.2699 310.83 40.2899C309.65 40.3899 308.48 40.5099 307.31 40.6399C307.06 40.6699 306.81 40.6999 306.56 40.7199C305.29 40.8799 304.02 41.0499 302.76 41.2499C302.52 41.2899 302.28 41.3299 302.05 41.3699C300.88 41.5599 299.71 41.7699 298.55 41.9999C298.4 42.0299 298.25 42.0599 298.1 42.0899C296.84 42.3499 295.58 42.6299 294.34 42.9199L293.61 43.0999C291.08 43.7199 288.58 44.4299 286.11 45.2299L285.47 45.4399C284.24 45.8499 283.02 46.2699 281.8 46.7199L281.57 46.8099C280.4 47.2499 279.23 47.6999 278.08 48.1799C277.93 48.2399 277.78 48.2999 277.63 48.3699C276.43 48.8699 275.24 49.3899 274.06 49.9299L273.67 50.1099C272.51 50.6499 271.35 51.2099 270.21 51.7799L270.09 51.8399C268.91 52.4399 267.75 53.0599 266.6 53.6999L266.19 53.9299C263.89 55.2199 261.65 56.5799 259.45 58.0199L259.08 58.2599C257.97 58.9899 256.88 59.7399 255.8 60.5099L255.67 60.6099C255.6 60.6599 255.54 60.7099 255.47 60.7599C254.87 61.1899 254.27 61.6299 253.68 62.0699C253.63 62.1099 253.58 62.1499 253.53 62.1799C253.33 62.3299 253.13 62.4899 252.92 62.6399L252.72 62.7999C252.29 63.1299 251.85 63.4699 251.42 63.8099C251.25 63.9499 251.08 64.0899 250.9 64.2299L250.78 64.3299L250.68 64.4099C250.53 64.5299 250.38 64.6499 250.24 64.7699C249.89 65.0499 249.54 65.3399 249.2 65.6299L249.16 65.6699L248.63 66.1199C248.09 66.5799 247.55 67.0499 247.01 67.5199C246.82 67.6799 246.64 67.8499 246.45 68.0099C246.13 68.2999 245.8 68.5899 245.48 68.8799C245.37 68.9799 245.26 69.0899 245.14 69.1899L244.97 69.3399C244.77 69.5199 244.57 69.7099 244.38 69.8899L244.34 69.9299C243.96 70.2799 243.59 70.6399 243.22 70.9999L243.06 71.1499L242.62 71.5799L242.58 71.6199C242.49 71.7099 242.39 71.7999 242.3 71.8999C241.85 72.3499 241.4 72.7999 240.95 73.2599C240.79 73.4299 240.62 73.5999 240.46 73.7699C239.01 75.2699 237.61 76.8199 236.24 78.3999C236.12 78.5399 236.01 78.6799 235.89 78.8199C235.39 79.4099 234.9 79.9999 234.41 80.5899L234.4 80.6099L234.33 80.6999C234.14 80.9399 233.95 81.1799 233.75 81.4199C233.37 81.8999 232.99 82.3799 232.61 82.8599L232.51 82.9899L232.4 83.1299L232.28 83.2899L232.11 83.5099C232.01 83.6399 231.91 83.7699 231.81 83.8899C231.48 84.3199 231.16 84.7599 230.84 85.1999L230.82 85.2299L230.7 85.3999C230.47 85.7199 230.23 86.0399 230 86.3599C229.7 86.7799 229.41 87.2099 229.12 87.6299L229.05 87.7299L229 87.7699C228.73 88.1699 228.45 88.5599 228.19 88.9599C228.13 89.0499 228.07 89.1399 228.01 89.2299L227.83 89.5099C227.38 90.1899 226.94 90.8699 226.51 91.5599L226.47 91.6199C226.33 91.8499 226.18 92.0799 226.04 92.3099C225.63 92.9699 225.23 93.6299 224.84 94.2899C224.7 94.5299 224.56 94.7599 224.42 94.9999C223.91 95.8699 223.42 96.7499 222.93 97.6299L222.92 97.6399L222.9 97.6799C222.4 98.5999 221.91 99.5299 221.44 100.46C221.37 100.6 221.3 100.75 221.22 100.9L221.1 101.14C220.75 101.84 220.41 102.55 220.07 103.26L219.94 103.53C219.85 103.73 219.75 103.93 219.66 104.13C219.34 104.82 219.03 105.51 218.73 106.2C218.61 106.47 218.49 106.74 218.38 107C217.99 107.92 217.6 108.85 217.23 109.78V109.79C217.22 109.82 217.21 109.85 217.2 109.87C216.82 110.84 216.45 111.82 216.09 112.8C215.99 113.07 215.9 113.34 215.81 113.6C215.56 114.32 215.31 115.04 215.07 115.76C215.02 115.91 214.97 116.05 214.93 116.2C214.87 116.38 214.81 116.56 214.75 116.74C214.52 117.45 214.31 118.16 214.09 118.87C214 119.17 213.91 119.47 213.82 119.77C213.54 120.73 213.28 121.7 213.02 122.68C213.01 122.71 213 122.74 213 122.76L212.99 122.79C212.73 123.81 212.48 124.83 212.25 125.86C212.18 126.16 212.12 126.46 212.05 126.77C211.89 127.5 211.73 128.24 211.59 128.98C211.52 129.33 211.46 129.69 211.39 130.05C211.26 130.78 211.13 131.51 211 132.25C210.95 132.57 210.89 132.9 210.84 133.22C210.68 134.23 210.53 135.25 210.4 136.27V136.3L210.39 136.37C210.25 137.43 210.14 138.49 210.03 139.55C210 139.84 209.98 140.13 209.95 140.42L209.94 140.53C209.87 141.28 209.81 142.04 209.76 142.8C209.76 142.87 209.75 142.95 209.75 143.02C209.73 143.32 209.71 143.62 209.69 143.92C209.65 144.68 209.61 145.43 209.58 146.19L209.57 146.39C209.56 146.66 209.55 146.93 209.54 147.2C209.51 148.29 209.49 149.37 209.49 150.47C209.49 151.52 209.5 152.57 209.53 153.61C209.54 153.99 209.56 154.36 209.58 154.74Z" fill="#E27923"/>
<path d="M320.1 276.81C389.87 276.81 446.44 220.25 446.44 150.47C446.44 80.6999 389.88 24.1299 320.1 24.1299C250.32 24.1299 193.76 80.6999 193.76 150.48C193.76 220.25 250.32 276.81 320.1 276.81Z" stroke="#B2B2B2" stroke-width="4" stroke-miterlimit="10"/>
<path d="M245.861 150.48C245.851 138.3 248.851 126.3 254.571 115.55C260.301 104.8 268.591 95.6296 278.701 88.8396L258.421 58.6396C244.101 68.2596 232.231 81.0796 223.761 96.0996C215.281 111.12 210.441 127.91 209.611 145.13C208.781 162.36 211.991 179.54 218.971 195.3C225.111 209.16 234.031 221.58 245.151 231.82C247.651 234.12 251.571 233.85 253.721 231.23L269.741 211.73C271.491 209.6 271.291 206.48 269.281 204.6C262.491 198.23 256.941 190.63 252.951 182.19C248.281 172.28 245.851 161.45 245.861 150.48Z" fill="#FFB900"/>
<path d="M393.72 140.93C394.13 144.1 394.33 147.29 394.33 150.48C394.34 161.36 391.95 172.11 387.33 181.97C383.38 190.39 377.89 197.99 371.16 204.36C369.21 206.21 369.07 209.27 370.77 211.34L388.14 232.48C389.57 234.22 392.16 234.41 393.83 232.92C407.11 221.03 417.34 206.09 423.63 189.36C430.4 171.35 432.36 151.88 429.31 132.88C415.99 135.88 400.68 139.34 393.72 140.93Z" fill="#CCCCCC"/>
<path d="M380.881 58.0601L380.871 58.1701L375.801 55.0601L374.181 75.8101L356.061 85.6901L360.891 88.4701C390.191 106.32 394.231 143.22 394.231 143.33L413.441 149.57L430.051 137.67C426.581 104.36 409.231 76.7501 380.881 58.0601Z" fill="#DF6C47"/>
<path d="M380.881 58.0601L380.871 58.1701L375.801 55.0601L374.181 75.8101L356.061 85.6901L360.891 88.4701C390.191 106.32 394.231 143.22 394.231 143.33L413.441 149.57L430.051 137.67C426.581 104.36 409.231 76.7501 380.881 58.0601Z" fill="#DF6C47"/>
<path d="M423.05 109.97C415.59 91.0801 403.09 74.6001 386.91 62.3301C386.16 61.7701 385.42 61.2101 384.66 60.6601C384.36 60.4401 384.06 60.2301 383.75 60.0101C383.63 59.9201 383.5 59.8401 383.37 59.7501L383.17 59.6101C382.41 59.0801 381.64 58.5801 380.87 58.0801L380.86 58.1701L375.79 55.0601L375.21 62.4001C379.34 64.5501 383.33 66.9601 387.16 69.6201C387.35 69.7501 387.54 69.8901 387.74 70.0201C388.04 70.2301 388.35 70.4501 388.65 70.6701C403.14 80.7901 414.94 94.2701 423.05 109.97Z" fill="#D36244"/>
<path d="M333.5 164.5L387.63 112.3C388.7 111.27 388.86 109.62 388.01 108.4C387.24 107.29 385.82 106.83 384.54 107.28L317.67 130.58C311.79 132.7 306.02 136.38 303.25 142.57C301.46 146.57 301.1 151.07 302.23 155.3C303.36 159.54 305.92 163.25 309.46 165.83C313.01 168.4 317.34 169.68 321.71 169.44C326.09 169.19 330.25 167.45 333.5 164.5Z" fill="#737373"/>
<path d="M320.34 161.1C326.2 161.1 330.95 156.35 330.95 150.49C330.95 144.63 326.2 139.88 320.34 139.88C314.48 139.88 309.73 144.63 309.73 150.49C309.73 156.35 314.49 161.1 320.34 161.1Z" fill="#ADADAD"/>
<path d="M246.31 142.32C247.49 131.58 251.01 121.24 256.6 112C262.2 102.76 269.74 94.8596 278.71 88.8396L277.17 68.5596L258.42 58.6396C245.06 67.6096 233.82 79.3897 225.48 93.1497C217.14 106.91 211.91 122.33 210.15 138.33L231.17 131.56L246.31 142.32Z" fill="#FDA84C"/>
<path d="M259.96 106.95C260.11 106.74 260.26 106.54 260.42 106.33C260.27 106.54 260.12 106.74 259.96 106.95Z" fill="#FFB900"/>
<path d="M243.69 70.52C243.34 70.86 242.98 71.19 242.63 71.54C242.98 71.19 243.34 70.85 243.69 70.52Z" fill="#FFB900"/>
<path d="M247.311 67.21C247.661 66.9 248.021 66.59 248.371 66.29C248.011 66.59 247.661 66.9 247.311 67.21Z" fill="#FFB900"/>
<path d="M261.21 105.29C261.37 105.08 261.54 104.87 261.71 104.66C261.54 104.86 261.37 105.07 261.21 105.29Z" fill="#FFB900"/>
<path d="M249.75 65.13C250.1 64.84 250.45 64.56 250.8 64.27C250.45 64.56 250.1 64.84 249.75 65.13Z" fill="#FFB900"/>
<path d="M262.5 103.65C262.67 103.44 262.85 103.23 263.03 103.02C262.85 103.23 262.67 103.43 262.5 103.65Z" fill="#FFB900"/>
<path d="M252.29 63.0998C252.62 62.8398 252.95 62.5798 253.29 62.3198C252.95 62.5798 252.62 62.8398 252.29 63.0998Z" fill="#FFB900"/>
<path d="M254.98 61.0697C255.26 60.8597 255.54 60.6497 255.83 60.4497C255.55 60.6497 255.27 60.8597 254.98 61.0697Z" fill="#FFB900"/>
<path d="M268.111 97.5C267.841 97.76 267.581 98.03 267.311 98.3C267.581 98.03 267.841 97.76 268.111 97.5Z" fill="#FFB900"/>
<path d="M271.96 93.9699C272.27 93.7099 272.57 93.4499 272.88 93.1899C272.57 93.4599 272.27 93.7099 271.96 93.9699Z" fill="#FFB900"/>
<path d="M275.261 91.32C275.641 91.04 276.021 90.76 276.401 90.48C276.011 90.75 275.631 91.03 275.261 91.32Z" fill="#FFB900"/>
<path d="M273.59 92.6201C273.92 92.3501 274.25 92.0901 274.59 91.8301C274.25 92.1001 273.92 92.3601 273.59 92.6201Z" fill="#FFB900"/>
<path d="M276.971 90.0601C277.551 89.6501 278.131 89.2401 278.711 88.8501C278.121 89.2401 277.541 89.6401 276.971 90.0601Z" fill="#FFB900"/>
<path d="M270.37 95.3699C270.66 95.1099 270.95 94.8498 271.25 94.5898C270.95 94.8498 270.66 95.1099 270.37 95.3699Z" fill="#FFB900"/>
<path d="M265.851 99.8198C266.101 99.5498 266.361 99.2698 266.611 99.0098C266.351 99.2698 266.101 99.5498 265.851 99.8198Z" fill="#FFB900"/>
<path d="M268.82 96.81C269.1 96.55 269.37 96.28 269.65 96.02C269.37 96.28 269.1 96.55 268.82 96.81Z" fill="#FFB900"/>
<path d="M263.84 102.04C264 101.85 264.16 101.67 264.33 101.49C264.17 101.68 264 101.86 263.84 102.04Z" fill="#FFB900"/>
<path d="M258.78 108.64C258.91 108.44 259.05 108.25 259.19 108.05C259.05 108.25 258.91 108.44 258.78 108.64Z" fill="#FFB900"/>
<path d="M215.55 114.3C215.86 113.41 216.18 112.52 216.51 111.64C216.18 112.52 215.86 113.41 215.55 114.3Z" fill="#FFB900"/>
<path d="M216.61 111.39C216.94 110.52 217.28 109.65 217.63 108.79C217.28 109.65 216.94 110.51 216.61 111.39Z" fill="#FFB900"/>
<path d="M257.66 110.33C257.77 110.16 257.89 109.98 258 109.81L257.66 110.33Z" fill="#FFB900"/>
<path d="M217.71 108.57C219.9 103.22 222.51 98.0499 225.52 93.1099C222.52 98.0599 219.91 103.22 217.71 108.57Z" fill="#FFB900"/>
<path d="M225.87 92.5397C226.26 91.9097 226.66 91.2797 227.06 90.6597C226.66 91.2797 226.26 91.9097 225.87 92.5397Z" fill="#FFB900"/>
<path d="M250.58 124.41C250.6 124.35 250.62 124.3 250.64 124.24C250.62 124.3 250.6 124.35 250.58 124.41Z" fill="#FFB900"/>
<path d="M249.9 126.31L249.94 126.2L249.9 126.31Z" fill="#FFB900"/>
<path d="M244.931 69.3401C245.281 69.0101 245.641 68.6901 245.991 68.3701C245.641 68.6901 245.291 69.0101 244.931 69.3401Z" fill="#FFB900"/>
<path d="M256.63 111.98C256.71 111.85 256.78 111.72 256.86 111.59C256.78 111.72 256.7 111.85 256.63 111.98Z" fill="#FFB900"/>
<path d="M251.33 122.49C251.35 122.45 251.37 122.4 251.38 122.36C251.36 122.4 251.34 122.45 251.33 122.49Z" fill="#FFB900"/>
<path d="M236.99 77.5C237.74 76.65 238.5 75.81 239.27 74.98C238.5 75.81 237.74 76.65 236.99 77.5Z" fill="#FFB900"/>
<path d="M240.4 73.7797C240.74 73.4197 241.1 73.0697 241.44 72.7197C241.1 73.0797 240.75 73.4297 240.4 73.7797Z" fill="#FFB900"/>
<path d="M235.07 79.7498C235.47 79.2698 235.87 78.7798 236.28 78.2998C235.87 78.7898 235.47 79.2698 235.07 79.7498Z" fill="#FFB900"/>
<path d="M245.861 150.48C245.861 147.76 246.011 145.03 246.311 142.33L231.171 131.57L210.151 138.34C211.051 130.08 209.481 137.88 209.481 150.49C209.461 166.84 213.081 182.98 220.061 197.76C226.441 211.26 235.491 223.32 246.651 233.21C248.381 234.74 251.041 234.52 252.511 232.74L270.521 210.82C271.861 209.19 271.671 206.8 270.111 205.38C262.941 198.86 257.111 191 252.971 182.22C248.281 172.28 245.851 161.45 245.861 150.48Z" fill="#FFC23B"/>
<path d="M211.09 131.66C211.06 131.82 211.03 131.98 211 132.14C210.96 132.41 210.92 132.68 210.88 132.95C210.99 132.26 211.11 131.57 211.23 130.88C211.2 131.14 211.14 131.4 211.09 131.66Z" fill="#FFB900"/>
<path d="M211.24 130.88C211.39 130.02 211.55 129.17 211.73 128.32C211.56 129.17 211.39 130.02 211.24 130.88Z" fill="#FFB900"/>
<path d="M210.49 135.67C210.61 134.76 210.75 133.85 210.89 132.95C210.75 133.85 210.61 134.76 210.49 135.67Z" fill="#FFB900"/>
<path d="M211.93 127.32C211.9 127.46 211.87 127.6 211.84 127.75C211.8 127.94 211.77 128.14 211.73 128.33C211.83 127.83 211.94 127.33 212.05 126.83C212.01 126.99 211.96 127.15 211.93 127.32Z" fill="#FFB900"/>
<path d="M210.16 138.33H210.17C210.2 138.1 210.22 137.87 210.24 137.64C210.22 137.87 210.19 138.1 210.16 138.33Z" fill="#FFB900"/>
<path d="M210.25 137.64C210.33 136.98 210.41 136.33 210.49 135.67C210.4 136.32 210.32 136.98 210.25 137.64Z" fill="#FFB900"/>
<path d="M213.061 122.56C213.341 121.47 213.641 120.39 213.961 119.31C213.651 120.38 213.351 121.47 213.061 122.56Z" fill="#FFB900"/>
<path d="M215.5 114.47C215.07 115.71 214.68 116.96 214.29 118.22C214.67 116.96 215.07 115.7 215.5 114.47Z" fill="#FFB900"/>
<path d="M209.58 154.74C209.59 154.92 209.6 155.1 209.6 155.28C209.62 155.76 209.64 156.25 209.66 156.73C209.69 157.21 209.72 157.67 209.76 158.13C209.8 158.69 209.83 159.25 209.88 159.81C209.92 160.33 209.98 160.84 210.03 161.36C210.08 161.86 210.12 162.36 210.18 162.86C210.24 163.42 210.31 163.97 210.38 164.52C210.44 164.97 210.49 165.43 210.56 165.88C210.64 166.47 210.73 167.05 210.82 167.63C210.87 167.93 210.92 168.24 210.96 168.54C210.98 168.65 210.99 168.76 211.01 168.87C211.11 169.48 211.22 170.09 211.34 170.7C211.41 171.07 211.48 171.45 211.55 171.82C211.68 172.46 211.81 173.1 211.95 173.73C211.97 173.83 211.99 173.92 212.01 174.02C212.06 174.26 212.11 174.49 212.16 174.73C212.31 175.4 212.46 176.06 212.63 176.72L212.67 176.87C212.73 177.12 212.79 177.36 212.85 177.61C213.02 178.3 213.2 178.99 213.39 179.67C213.44 179.86 213.5 180.06 213.55 180.25C213.57 180.31 213.59 180.38 213.6 180.44C213.8 181.15 214.01 181.87 214.22 182.57C214.29 182.79 214.35 183.01 214.42 183.24C214.65 183.98 214.89 184.71 215.13 185.44C215.19 185.62 215.25 185.81 215.32 185.99C215.58 186.75 215.85 187.51 216.12 188.26C216.14 188.32 216.17 188.38 216.19 188.45L216.28 188.69C216.57 189.48 216.87 190.26 217.18 191.04C217.21 191.1 217.23 191.17 217.26 191.23L217.3 191.34C217.63 192.16 217.96 192.97 218.3 193.78L218.37 193.94C218.73 194.79 219.11 195.63 219.49 196.47C215.51 184.88 213.48 172.71 213.49 160.46C213.49 159.37 213.51 158.28 213.54 157.19C213.55 156.85 213.57 156.52 213.58 156.18C213.61 155.42 213.65 154.66 213.69 153.91C213.71 153.54 213.73 153.16 213.76 152.79C213.81 152.03 213.87 151.28 213.94 150.52C213.97 150.19 213.99 149.87 214.03 149.54C214.13 148.47 214.25 147.41 214.39 146.36C214.39 146.33 214.4 146.29 214.4 146.26C214.53 145.24 214.68 144.22 214.84 143.21C214.89 142.88 214.95 142.56 215 142.24C215.12 141.51 215.25 140.77 215.39 140.04C215.46 139.69 215.52 139.33 215.59 138.98C215.74 138.24 215.89 137.5 216.05 136.77C216.08 136.65 216.1 136.53 216.13 136.41L210.18 138.33C210.09 139.12 210 139.9 209.93 140.7C209.9 141.07 209.87 141.44 209.84 141.8C209.76 142.87 209.69 143.94 209.64 145.02C209.62 145.41 209.6 145.81 209.58 146.2V146.22C209.53 147.63 209.49 149.05 209.49 150.48C209.49 151.53 209.5 152.58 209.53 153.62C209.54 153.99 209.56 154.36 209.58 154.74Z" fill="#FFB900"/>
<path d="M212.05 126.82C212.3 125.66 212.57 124.51 212.86 123.36C212.56 124.5 212.3 125.66 212.05 126.82Z" fill="#FFB900"/>
<path d="M212.851 123.36C212.921 123.09 212.991 122.83 213.061 122.56C212.991 122.82 212.921 123.09 212.851 123.36Z" fill="#FFB900"/>
<path d="M213.96 119.31C214.07 118.94 214.18 118.58 214.29 118.22C214.18 118.58 214.07 118.94 213.96 119.31Z" fill="#FFB900"/>
<path d="M231.181 84.6999C231.571 84.1799 231.951 83.6599 232.351 83.1499C231.951 83.6599 231.571 84.1799 231.181 84.6999Z" fill="#FFB900"/>
<path d="M229.34 87.2599C229.72 86.7099 230.11 86.1699 230.5 85.6299C230.11 86.1699 229.72 86.7099 229.34 87.2599Z" fill="#FFB900"/>
<path d="M227.57 89.8699C227.95 89.2899 228.34 88.7099 228.73 88.1299C228.34 88.7099 227.95 89.2899 227.57 89.8699Z" fill="#FFB900"/>
<path d="M233.09 82.2C233.48 81.7 233.88 81.2 234.28 80.71C233.88 81.19 233.48 81.7 233.09 82.2Z" fill="#FFB900"/>
<path d="M258.45 58.6499C257.57 59.2399 256.69 59.8399 255.83 60.4499C255.1 60.9699 254.38 61.4999 253.67 62.0299L253.66 62.0399C253.61 62.0799 253.56 62.1199 253.51 62.1499L253.33 62.2899C252.69 62.7799 252.05 63.2699 251.42 63.7699L251.41 63.7799C251.24 63.9199 251.07 64.0599 250.89 64.1999C250.32 64.6599 249.75 65.1199 249.19 65.5899L249.15 65.6299C248.97 65.7799 248.8 65.9299 248.62 66.0699C248.07 66.5299 247.53 66.9999 246.99 67.4699L246.44 67.9599C245.89 68.4499 245.35 68.9399 244.82 69.4399L244.38 69.8499L244.34 69.8899C243.76 70.4299 243.19 70.9799 242.62 71.5399L242.58 71.5799C242.49 71.6699 242.39 71.7599 242.3 71.8599C241.67 72.4899 241.04 73.1199 240.43 73.7599C239.77 74.4499 239.12 75.1399 238.48 75.8399C238.43 75.8999 238.37 75.9599 238.32 76.0199C237.64 76.7699 236.97 77.5199 236.31 78.2899C235.67 79.0299 235.04 79.7799 234.42 80.5399L234.41 80.5599C233.81 81.2999 233.22 82.0399 232.63 82.7999L232.62 82.8099L232.52 82.9399L232.49 82.9799C231.94 83.6999 231.39 84.4199 230.86 85.1499V85.1599L230.84 85.1899L230.72 85.3599C230.18 86.0999 229.65 86.8499 229.13 87.5999L229.07 87.6799L229.04 87.7199C228.56 88.4199 228.08 89.1199 227.62 89.8399C227.45 90.0999 227.28 90.3599 227.11 90.6199C226.71 91.2399 226.31 91.8699 225.92 92.4999C225.8 92.6899 225.69 92.8899 225.57 93.0799C222.57 98.0199 219.96 103.19 217.77 108.54L217.68 108.75C217.33 109.61 216.99 110.48 216.66 111.35L216.56 111.61C216.23 112.49 215.91 113.38 215.6 114.27C215.58 114.33 215.56 114.38 215.54 114.43C212.88 122.16 211.09 130.16 210.21 138.29L216.17 136.37C216.21 136.19 216.25 136.01 216.29 135.82C216.52 134.79 216.77 133.77 217.03 132.75C217.04 132.71 217.05 132.67 217.06 132.63C217.31 131.66 217.58 130.69 217.86 129.72C217.95 129.42 218.04 129.12 218.13 128.82C218.34 128.11 218.56 127.39 218.79 126.69C218.89 126.36 219 126.04 219.11 125.71C219.35 124.99 219.6 124.26 219.85 123.55C219.94 123.28 220.04 123.01 220.13 122.75C220.49 121.77 220.85 120.79 221.24 119.81C221.25 119.78 221.26 119.75 221.28 119.72C221.65 118.79 222.03 117.86 222.43 116.94C222.55 116.67 222.67 116.4 222.78 116.14C223.08 115.45 223.39 114.76 223.71 114.07C223.84 113.78 223.98 113.49 224.12 113.2C224.46 112.49 224.8 111.78 225.15 111.08C225.26 110.86 225.37 110.63 225.49 110.41C225.96 109.48 226.45 108.55 226.95 107.63L226.98 107.58C227.46 106.69 227.96 105.82 228.47 104.95C228.61 104.71 228.75 104.48 228.89 104.25C229.28 103.58 229.68 102.92 230.09 102.26C230.25 102.01 230.41 101.76 230.56 101.5C230.99 100.81 231.44 100.13 231.89 99.4499C232.01 99.2699 232.13 99.0899 232.25 98.9099C232.52 98.5099 232.79 98.1199 233.06 97.7199C233.09 97.6799 233.12 97.6399 233.15 97.5899C233.45 97.1599 233.74 96.7299 234.04 96.3099C234.27 95.9899 234.51 95.6699 234.74 95.3499L234.89 95.1499C235.21 94.7099 235.54 94.2699 235.86 93.8399C236.01 93.6399 236.17 93.4399 236.32 93.2399L236.52 92.9799C236.56 92.9199 236.61 92.8699 236.65 92.8099C237.03 92.3199 237.41 91.8399 237.79 91.3699C237.96 91.1599 238.13 90.9399 238.31 90.7299C238.35 90.6799 238.39 90.6199 238.44 90.5699L238.46 90.5499C238.95 89.9499 239.44 89.3599 239.94 88.7799C240.06 88.6399 240.17 88.4999 240.29 88.3599C241.65 86.7799 243.06 85.2299 244.51 83.7299C244.67 83.5599 244.84 83.3999 245 83.2299C245.45 82.7699 245.9 82.3199 246.35 81.8699C246.46 81.7599 246.57 81.6599 246.68 81.5499L246.73 81.4999C246.91 81.3199 247.09 81.1399 247.28 80.9699C247.65 80.6099 248.02 80.2499 248.4 79.8999C248.56 79.7499 248.72 79.5999 248.88 79.4499L249.19 79.1599C249.3 79.0599 249.41 78.9499 249.53 78.8499C249.85 78.5499 250.18 78.2699 250.5 77.9699C250.68 77.7999 250.87 77.6399 251.06 77.4799C251.59 77.0099 252.13 76.5399 252.68 76.0799L253.25 75.5999C253.6 75.3099 253.94 75.0199 254.29 74.7399C254.46 74.5999 254.64 74.4599 254.81 74.3199L254.95 74.2099C255.12 74.0699 255.29 73.9299 255.47 73.7899C255.9 73.4499 256.33 73.1099 256.77 72.7799C256.96 72.6299 257.16 72.4799 257.35 72.3299L257.39 72.2999C257.5 72.2199 257.61 72.1299 257.72 72.0499C258.31 71.5999 258.91 71.1599 259.51 70.7299L259.84 70.4899C262.91 68.2999 266.09 66.2599 269.37 64.3899L258.45 58.6499Z" fill="#F49D47"/>
<path d="M218.11 60.5H133.89C130.91 60.5 128.5 63.22 128.5 66.58V227.09C128.5 230.45 130.91 233.17 133.89 233.17H218.11C221.09 233.17 223.5 230.45 223.5 227.09V66.58C223.5 63.22 221.09 60.5 218.11 60.5Z" fill="#E6E6E6"/>
<path opacity="0.5" d="M219.25 69.1099H159.5L223.5 123.57V73.3599C223.5 71.0099 221.6 69.1099 219.25 69.1099Z" fill="white"/>
<path d="M219.75 231.5C219.75 231.5 223.5 231.23 223.5 228.25V65.8899C223.5 65.4699 223.44 65.0699 223.35 64.6899C203.09 87.5199 190.78 117.56 190.78 150.48C190.78 173.36 198 206.5 219.75 231.5Z" fill="#D4D5D6"/>
<path d="M147.5 105.63C152.206 105.63 156.02 101.815 156.02 97.1098C156.02 92.4044 152.206 88.5898 147.5 88.5898C142.795 88.5898 138.98 92.4044 138.98 97.1098C138.98 101.815 142.795 105.63 147.5 105.63Z" fill="#2488D8"/>
<path d="M196.42 93.9701H164.57C163.15 93.9701 162 92.8201 162 91.4001C162 89.9801 163.15 88.8301 164.57 88.8301H196.42C197.84 88.8301 198.99 89.9801 198.99 91.4001C198.98 92.8301 197.84 93.9701 196.42 93.9701Z" fill="#767576"/>
<path d="M204.43 103.97H164.56C163.14 103.97 161.99 102.82 161.99 101.4C161.99 99.9801 163.14 98.8301 164.56 98.8301H204.43C205.85 98.8301 207 99.9801 207 101.4C207 102.83 205.85 103.97 204.43 103.97Z" fill="#C6C6C6"/>
<path d="M147.5 135.63C152.206 135.63 156.02 131.815 156.02 127.11C156.02 122.404 152.206 118.59 147.5 118.59C142.795 118.59 138.98 122.404 138.98 127.11C138.98 131.815 142.795 135.63 147.5 135.63Z" fill="#C6C6C6"/>
<path d="M210.92 123.97H164.56C163.14 123.97 161.99 122.82 161.99 121.4C161.99 119.98 163.14 118.83 164.56 118.83H210.92C212.34 118.83 213.49 119.98 213.49 121.4C213.49 122.83 212.34 123.97 210.92 123.97Z" fill="#767576"/>
<path d="M204.43 133.97H164.56C163.14 133.97 161.99 132.82 161.99 131.4C161.99 129.98 163.14 128.83 164.56 128.83H204.43C205.85 128.83 207 129.98 207 131.4C207 132.83 205.85 133.97 204.43 133.97Z" fill="#C6C6C6"/>
<path d="M147.5 165.63C152.206 165.63 156.02 161.815 156.02 157.11C156.02 152.404 152.206 148.59 147.5 148.59C142.795 148.59 138.98 152.404 138.98 157.11C138.98 161.815 142.795 165.63 147.5 165.63Z" fill="#C6C6C6"/>
<path d="M196.42 153.98H164.57C163.15 153.98 162 152.83 162 151.41C162 149.99 163.15 148.84 164.57 148.84H196.42C197.84 148.84 198.99 149.99 198.99 151.41C198.98 152.83 197.84 153.98 196.42 153.98Z" fill="#767576"/>
<path d="M204.43 163.98H164.56C163.14 163.98 161.99 162.83 161.99 161.41C161.99 159.99 163.14 158.84 164.56 158.84H204.43C205.85 158.84 207 159.99 207 161.41C207 162.83 205.85 163.98 204.43 163.98Z" fill="#C6C6C6"/>
<path d="M147.5 195.63C152.206 195.63 156.02 191.815 156.02 187.11C156.02 182.404 152.206 178.59 147.5 178.59C142.795 178.59 138.98 182.404 138.98 187.11C138.98 191.815 142.795 195.63 147.5 195.63Z" fill="#C6C6C6"/>
<path d="M210.94 183.98H164.56C163.14 183.98 161.99 182.83 161.99 181.41C161.99 179.99 163.14 178.84 164.56 178.84H210.94C212.36 178.84 213.51 179.99 213.51 181.41C213.51 182.83 212.36 183.98 210.94 183.98Z" fill="#767576"/>
<path d="M204.43 193.98H164.56C163.14 193.98 161.99 192.83 161.99 191.41C161.99 189.99 163.14 188.84 164.56 188.84H204.43C205.85 188.84 207 189.99 207 191.41C207 192.83 205.85 193.98 204.43 193.98Z" fill="#C6C6C6"/>
<path d="M218.11 54.5H133.89C130.91 54.5 128.5 56.91 128.5 59.89V70.5H223.5V59.89C223.5 56.91 221.09 54.5 218.11 54.5Z" fill="#2488D8"/>
<path d="M142.61 54.5H133.89C130.91 54.5 128.5 56.91 128.5 59.89V70.5H161.5L142.61 54.5Z" fill="#106EBE"/>
<path d="M213.1 38.8301H139.3C133.11 38.8301 128.09 43.8501 128.09 50.0401V233.95C128.09 240.14 133.11 245.16 139.3 245.16H213.1C219.29 245.16 224.31 240.14 224.31 233.95V50.0401C224.31 43.8501 219.29 38.8301 213.1 38.8301ZM220.17 227.05C220.17 229.75 217.98 231.95 215.28 231.95H137.45C134.75 231.95 132.56 229.76 132.56 227.05V60.2701C132.56 57.5701 134.75 55.3801 137.45 55.3801H215.28C217.98 55.3801 220.17 57.5701 220.17 60.2701V227.05Z" fill="#444444"/>
<path d="M187.87 237.31H165.97C165.04 237.31 164.29 238.06 164.29 238.99C164.29 239.92 165.04 240.67 165.97 240.67H187.87C188.8 240.67 189.55 239.92 189.55 238.99C189.55 238.06 188.8 237.31 187.87 237.31Z" fill="#737373"/>
<path d="M187.87 44.2002H165.97C165.04 44.2002 164.29 44.9502 164.29 45.8802C164.29 46.8102 165.04 47.5602 165.97 47.5602H187.87C188.8 47.5602 189.55 46.8102 189.55 45.8802C189.55 44.9502 188.8 44.2002 187.87 44.2002Z" fill="#737373"/>
<path d="M145.73 51.1003C146.785 51.1003 147.64 50.2451 147.64 49.1903C147.64 48.1354 146.785 47.2803 145.73 47.2803C144.675 47.2803 143.82 48.1354 143.82 49.1903C143.82 50.2451 144.675 51.1003 145.73 51.1003Z" fill="#737373"/>
</svg>
