<svg xmlns="http://www.w3.org/2000/svg" viewBox="0 0 636 300"><style>.st0{fill:none;stroke:#90c10c;stroke-width:5;stroke-miterlimit:10}.st1{fill:#a88763}.st2{fill:#b2b2b2}.st3{fill:none;stroke:#65aa0d;stroke-width:5;stroke-miterlimit:10}.st4{fill:#2e2e2e}.st5{fill:#2488d8}.st6{fill:#5d5f5e}.st7{fill:#69afe5}.st8{fill:#cbe247;stroke:#90c10c;stroke-width:5.527;stroke-miterlimit:10}.st9{fill:#0078d7}.st10{fill:#004578}.st11{fill:#b3d6f2}.st12{fill:#cbe247;stroke:#90c10c;stroke-width:5;stroke-miterlimit:10}.st13{fill-rule:evenodd;clip-rule:evenodd;fill:#0078d7}.st14{fill:#fff}.st15{fill:#005a93}.st16{fill:#737373}.st17{fill:#acacac}.st18{fill-rule:evenodd;clip-rule:evenodd;fill:#b4b4b4}.st19{fill:#a6a6a6}.st20{fill:#767576}.st21{clip-path:url(#SVGID_2_)}.st22{fill:#502f84}.st23{fill:#5c3d99}.st24{fill:#3d1a68}.st25{fill:#32145a}.st26{fill:#af5443}.st27{fill:#505050}.st28{opacity:.37;fill:#fff}.st29{fill:#99bcd7}.st30{fill:#c8c8c8}.st31{fill:#666}.st32{fill:#45779e}.st33{fill:#6597bf}.st34{fill:#3c3c3c}.st35{fill:#235a89}.st36{fill:#106ebe}.st37{fill:#333}.st38{fill:#1c4768}.st39{fill:#212121}.st40{fill:#11334b}.st41{fill:#cfe0ee}.st42{fill:#eaeaea}.st43{fill:#deecf9}.st44{fill:#e9f0f7}.st45{fill:#f4f4f4}.st46{fill:#231f20}.st47{fill:#a8dceb}.st48,.st49,.st50,.st51{fill-rule:evenodd;clip-rule:evenodd}.st48{stroke:#69afe5;stroke-width:2;stroke-miterlimit:10;stroke-dasharray:1.8146,2.7218;fill:none}.st49,.st50,.st51{fill:#2488d8}.st50,.st51{fill:#d8b094}.st51{fill:#f6caa7}.st52,.st53,.st54,.st55,.st56,.st57{fill-rule:evenodd;clip-rule:evenodd;fill:#00188f}.st53,.st54,.st55,.st56,.st57{fill:#fff}.st54,.st55,.st56,.st57{fill:#c69e83}.st55,.st56,.st57{fill:#b58861}.st56,.st57{fill:#505050}.st57{fill:#8a0000}.st58{fill:#bfc5cc}.st59{fill:#8e562e}.st59,.st60,.st61,.st62,.st63{fill-rule:evenodd;clip-rule:evenodd}.st61,.st62,.st63{fill:#d0b28d}.st62,.st63{fill:#666}.st63{fill:#b89e7c}.st64{fill:#5c005c}.st65,.st66{fill-rule:evenodd;clip-rule:evenodd;fill:#ff8c00}.st66{fill:#f0ae00}.st67{fill:#d0b28d}.st68{fill:#e81123}.st69{fill:#d9c1a4}.st70,.st71,.st72,.st73{fill-rule:evenodd;clip-rule:evenodd;fill:#d9c1a4}.st71,.st72,.st73{fill:#ee4d5a}.st72,.st73{fill:#939393}.st73{fill:#394453}.st74{fill:#f6cba7}.st75{fill:#a996f0}.st76{fill:#bcbec0}.st77{fill:#414042}.st78{fill:#6d6e71}.st79{fill:#8867c8}.st80{fill:#c09f81}.st81{fill:#ddb694}.st82{fill:#5c2d91}.st83{fill:#8c562f}.st84{fill:#451e7c}.st85{fill:#025b56}.st86{fill:#394453}.st87{fill:#999}.st88{fill:#8e562e}.st89{fill:gray}.st90{fill:#6d573e}.st91{fill-rule:evenodd;clip-rule:evenodd}.st91,.st92{fill:#b80409}.st93{fill:#613d30}.st94{fill:#d80d1a}.st95{fill:#ef502a}.st96{fill:none;stroke:#939393;stroke-miterlimit:10;stroke-dasharray:.9773,1.9547}.st97{fill:#0d520d}.st98{fill:#004b1c}.st99{fill:#3b930f}.st100{fill:#936f51}.st101{fill:#bce2bc}.st102{fill:#8a0000}.st103{fill:#003c16}.st104{fill:none}.st105{fill:#8ec3ec}.st106{fill:#395b71}.st107{fill:#65aa0d}.st108{fill:#90c10c}.st109{fill:#107c10}.st110{fill:#d2d2d2}.st111{fill:#939393}.st112{fill:#4d4d4d}.st113{fill-rule:evenodd;clip-rule:evenodd;fill:#69afe5}.st114{fill:#472176}.st115{clip-path:url(#SVGID_4_)}.st116{fill:#724aad}.st117{fill:#282828}.st118{fill:none;stroke:#939393;stroke-width:.75;stroke-miterlimit:10}.st119{fill:#f57800}.st120{fill:#750000}.st121{fill:#900}.st122{fill:#d83b01}.st123{fill:#0872c4}.st124{fill:#bd3604}.st125{fill:#5e0000}.st126{fill:#464646}.st127{fill:#e6e6e6}.st128{fill:#a6a8ab}.st129{fill:#96bcce}.st130{fill-rule:evenodd;clip-rule:evenodd;fill:#fff200}.st131{fill:none;stroke:#fff100;stroke-width:.72;stroke-miterlimit:8}.st132,.st133,.st134,.st135,.st136{fill-rule:evenodd;clip-rule:evenodd;fill:#fff880}.st133,.st134,.st135,.st136{fill:#f0e300}.st134,.st135,.st136{fill:#ccc000}.st135,.st136{fill:#ffb900}.st136{fill:#ffcb40}.st137,.st138,.st139,.st140,.st141,.st142{fill-rule:evenodd;clip-rule:evenodd;fill:#c78e00}.st138,.st139,.st140,.st141,.st142{fill:#ffa940}.st139,.st140,.st141,.st142{fill:#f08400}.st140,.st141,.st142{fill:#ba6800}.st141,.st142{fill:#e81123}.st142{fill:#d91021}.st143,.st144,.st145,.st146,.st147,.st148{fill-rule:evenodd;clip-rule:evenodd;fill:#a3111e}.st144,.st145,.st146,.st147,.st148{fill:#b4009e}.st145,.st146,.st147,.st148{fill:#c740b6}.st146,.st147,.st148{fill:#9e008b}.st147,.st148{fill:#850063}.st148{fill:#5c2d91}.st149,.st150,.st151,.st152,.st153,.st154{fill-rule:evenodd;clip-rule:evenodd;fill:#8562ad}.st150,.st151,.st152,.st153,.st154{fill:#522882}.st151,.st152,.st153,.st154{fill:#401467}.st152,.st153,.st154{fill:#409ae1}.st153,.st154{fill:#006fc8}.st154{fill:#005291}.st155,.st156,.st157,.st158,.st159,.st160{fill-rule:evenodd;clip-rule:evenodd;fill:#008272}.st156,.st157,.st158,.st159,.st160{fill:#40a195}.st157,.st158,.st159,.st160{fill:#007365}.st158,.st159,.st160{fill:#005850}.st159,.st160{fill:#107c10}.st160{fill:#4c9d4c}.st161,.st162,.st163,.st164,.st165,.st166{fill-rule:evenodd;clip-rule:evenodd;fill:#0e6d0e}.st162,.st163,.st164,.st165,.st166{fill:#106110}.st163,.st164,.st165,.st166{fill:#e3008c}.st164,.st165,.st166{fill:#ea40a9}.st165,.st166{fill:#d40083}.st166{fill:#9c005f}.st167,.st168,.st169,.st170,.st171,.st172{fill-rule:evenodd;clip-rule:evenodd;fill:#b4a0ff}.st168,.st169,.st170,.st171,.st172{fill:#c7b8ff}.st169,.st170,.st171,.st172{fill:#a996f0}.st170,.st171,.st172{fill:#9080cf}.st171,.st172{fill:#00bcf2}.st172{fill:#40cdf5}.st173,.st174,.st175,.st176,.st177,.st178{fill-rule:evenodd;clip-rule:evenodd;fill:#00b0e3}.st174,.st175,.st176,.st177,.st178{fill:#0086ad}.st175,.st176,.st177,.st178{fill:#002050}.st176,.st177,.st178{fill:#40587c}.st177,.st178{fill:#001a41}.st178{fill:#001129}.st179,.st180,.st181,.st182,.st183,.st184{fill-rule:evenodd;clip-rule:evenodd;fill:#00b294}.st180,.st181,.st182,.st183,.st184{fill:#40c5af}.st181,.st182,.st183,.st184{fill:#00a387}.st182,.st183,.st184{fill:#008770}.st183,.st184{fill:#bad80a}.st184{fill:#cbe247}.st185,.st186,.st187,.st188,.st189,.st190{fill-rule:evenodd;clip-rule:evenodd;fill:#adc909}.st186,.st187,.st188,.st189,.st190{fill:#91a80a}.st187,.st188,.st189,.st190{fill:#d83b01}.st188,.st189,.st190{fill:#e26c41}.st189,.st190{fill:#bd3604}.st190{fill:#9c2801}.st191,.st192,.st193,.st194,.st195,.st196{fill-rule:evenodd;clip-rule:evenodd;fill:#a80000}.st192,.st193,.st194,.st195,.st196{fill:#be4040}.st193,.st194,.st195,.st196{fill:#900}.st194,.st195,.st196{fill:#750000}.st195,.st196{fill:#5c005c}.st196{fill:#854085}.st197,.st198,.st199,.st200,.st201,.st202{fill-rule:evenodd;clip-rule:evenodd;fill:#4d004d}.st198,.st199,.st200,.st201,.st202{fill:#380038}.st199,.st200,.st201,.st202{fill:#32145a}.st200,.st201,.st202{fill:#654f83}.st201,.st202{fill:#28114a}.st202{fill:#220c3d}.st203,.st204,.st205,.st206,.st207,.st208{fill-rule:evenodd;clip-rule:evenodd;fill:#4052ab}.st204,.st205,.st206,.st207,.st208{fill:#001580}.st205,.st206,.st207,.st208{fill:#001363}.st206,.st207,.st208{fill:#004b50}.st207,.st208{fill:#40787c}.st208{fill:#003d41}.st209,.st210,.st211,.st212,.st213,.st214{fill-rule:evenodd;clip-rule:evenodd;fill:#002f33}.st210,.st211,.st212,.st213,.st214{fill:#004b1c}.st211,.st212,.st213,.st214{fill:#407855}.st212,.st213,.st214{fill:#003c16}.st213,.st214{fill:#00240d}.st214{fill:#282828}.st215,.st216,.st217,.st218,.st219,.st220{fill-rule:evenodd;clip-rule:evenodd;fill:#d2d2d2}.st216,.st217,.st218,.st219,.st220{fill:#f3f3f3}.st217,.st218,.st219,.st220{fill:#e6e6e6}.st218,.st219,.st220{fill:#737373}.st219,.st220{fill:#c2c2c2}.st220{fill:#b2b2b2}.st221{fill:none;stroke:#e6e6e6;stroke-width:.36;stroke-miterlimit:8}.st222,.st223,.st224{fill-rule:evenodd;clip-rule:evenodd;fill:#bb9167}.st223,.st224{fill:#613d30}.st224{fill:#f7d7c4}.st225{fill:#00a68c}.st226{fill:#009a83}.st227{fill:#008e7b}.st228{fill:#00abeb}.st229{fill:#009ae4}.st230{fill:#0089de}.st231{fill:#0060c5}.st232{fill:#0048b3}.st233{fill:#0030a1}.st234{fill:#00746a}.st235{fill:#006761}.st236{fill:#005959}.st237{fill:#0c7013}.st238{fill:#086416}.st239{fill:#045719}.st240{fill:#522783}.st241{fill:#9e008e}.st242{fill:#88007d}.st243{fill:#72006d}.st244{fill:#c80912}.st245{fill:#9e83e3}.st246{fill:#ec6401}.st247{fill:#e24f01}.st248{fill:#323232}.st249{fill:#2f2f2f}.st250{fill:#00188f}.st251{fill:#a80000}.st252{fill-rule:evenodd;clip-rule:evenodd;fill:#1ac3f3}.st253{fill:#d86e26}.st254{opacity:.2;fill:#fff}</style><switch><g><g id="bkgd"><path class="st0" d="M447.5 128.179h62M404.5 61.179h-20M384.537 150.151l45.025 46.153 56.563-.063M447.572 89.775l51.479-51.48M404.5 95.179h25M373.5 160.179h-49M275.5 177.179h-100M271.628 80.74l38.896-38.896M227.412 128.589H164.19M227.412 79.607l-45.969-45.969M271.5 90.179h-31M271.5 114.179h44M261 161.679v-22"/><path class="st1" d="M320.798 58.579c-1.504-2.722-1.657-3.476-1.504-6.035 0-1.651.449-2.105.902-1.351-.454-1.657.601-2.712.902-1.657 0-.454.301-.902.902-.754.454 0 .301.754.153 1.055.449-.153 1.203 0 1.05 1.203 0 1.055.301 1.203.301 1.203.301-.902.902-1.203 1.356-.749-.301 1.203-.148 3.007-.301 4.516-.153.301-.153.449-.301.765l1.957 6.769-3.915-.749-1.502-4.216z"/><path class="st0" d="M404.584 129.077l-23.809-23.808"/><path class="st2" d="M387.601 291.679H285.699c-2.145 0-4.022-1.867-4.022-4 0-2.267 1.877-4 4.022-4h101.902c2.279 0 4.022 1.733 4.022 4 0 2.133-1.743 4-4.022 4z"/><path class="st3" d="M329 288.679V186.102l-57-57V26.679M347 288.679V186.132l57-57V34.679"/><path class="st3" d="M366 288.679v-78.097l82-82V39.679M309 288.679v-78.097l-82-82V33.679"/><path class="st4" d="M337.5 26.751v27.848a2.08 2.08 0 0 1-2.08 2.08h-41.84a2.08 2.08 0 0 1-2.08-2.08v-27.84a2.08 2.08 0 0 1 2.08-2.08h41.85a2.07 2.07 0 0 1 2.07 2.072z"/><path class="st5" d="M295.5 26.679h37v28h-37z"/><circle class="st6" cx="293.518" cy="40.887" r=".543"/><circle class="st6" cx="335.15" cy="40.943" r="1.07"/><path class="st7" d="M332.5 45.236V26.679h-20.269z"/><path class="st4" d="M227.499 203.678v-41.287c0-.946-.767-1.712-1.712-1.712h-60.575c-.946 0-1.712.767-1.712 1.712v41.288l63.999-.001z"/><path class="st5" d="M166.5 163.679h58v37h-58z"/><path class="st4" d="M232.236 205.679h-74.031c-2.468.14-2.871-3.26-2.871-3h79.772c.001-.26-.956 3.139-2.87 3z"/><path class="st6" d="M194.5 161.679h1v1h-1z"/><path class="st7" d="M224.5 163.679h-26.649l26.649 24.934z"/><path class="st0" d="M163.889 88.24l39.429 39.429"/><circle class="st8" cx="447.412" cy="30.3" r="10.34"/><circle class="st8" cx="438.675" cy="94.929" r="10.34"/><circle class="st8" cx="374.412" cy="60.3" r="10.34"/><path class="st9" d="M169.904 142.679h-38.809a1.595 1.595 0 0 1-1.595-1.595v-23.81c0-.881.714-1.595 1.595-1.595h38.809c.881 0 1.595.714 1.595 1.595v23.81a1.595 1.595 0 0 1-1.595 1.595z"/><path class="st10" d="M137.5 120.679h2v17h-2zM143.5 120.679h2v17h-2zM149.5 120.679h2v17h-2zM155.5 120.679h2v17h-2zM161.5 120.679h2v17h-2z"/><path class="st11" d="M135.5 131.679h6v3h-6zM159.5 121.679h6v3h-6zM153.5 129.679h6v3h-6zM147.5 125.679h6v3h-6zM141.5 122.679h6v3h-6z"/><path class="st9" d="M423.238 38.679h-37.477a1.262 1.262 0 0 1-1.262-1.262V12.94c0-.697.565-1.262 1.262-1.262h37.477c.697 0 1.262.565 1.262 1.262v24.477c0 .697-.565 1.262-1.262 1.262z"/><path class="st10" d="M388.5 15.679h31v3h-31zM388.5 20.679h31v3h-31zM388.5 25.679h31v3h-31zM388.5 30.679h31v3h-31z"/><path class="st11" d="M388.5 15.679h9v3h-9zM406.5 20.679h9v3h-9zM394.5 25.679h9v3h-9zM400.5 30.679h9v3h-9z"/><path class="st0" d="M462.833 128.649l27.2-27.2"/><circle class="st8" cx="495.607" cy="94.478" r="10.34"/><circle class="st12" cx="158.646" cy="81.929" r="10.34"/><circle class="st8" cx="227.412" cy="25.3" r="10.34"/><circle class="st8" cx="314.134" cy="160.491" r="10.34"/><g><circle class="st8" cx="271.511" cy="15.179" r="10.34"/></g><circle class="st8" cx="261.171" cy="129.177" r="10.34"/><g><path class="st5" d="M155.5 22.679h48v33h-48z"/><path class="st11" d="M159.5 26.679h12v7h-12zM173.5 26.679h12v7h-12zM187.5 26.679h12v7h-12zM159.5 35.679h12v7h-12zM173.5 35.679h12v7h-12zM187.5 35.679h12v7h-12zM159.5 44.679h12v7h-12zM173.5 44.679h12v7h-12zM187.5 44.679h12v7h-12z"/></g><g><circle class="st13" cx="314.046" cy="113.258" r="22.422"/><path class="st11" d="M327.121 104.02l-4.266 4.257-2.742-.913-.913-2.736 4.265-3.952c-2.132-.912-4.569-.608-6.397 1.215-1.523 1.824-2.132 4.256-1.219 6.386l-13.707 13.68c-.914.911-.914 2.128 0 3.04l.306.304a2.391 2.391 0 0 0 3.35 0l13.403-13.68c2.132.912 4.569.607 6.396-1.216 1.828-1.824 2.132-4.257 1.524-6.385m-24.065 20.368c-.608-.607-.608-1.215 0-1.824.61-.607 1.523-.607 1.828 0 .609.608.609 1.216 0 1.824-.305.609-1.218.609-1.828 0"/><path class="st10" d="M323.832 125.924l1.298-1.295c.955-.953.955-2.224 0-3.179l-9.557-9.22c-.637-.953-1.91-.953-2.549-.317l-6.052-6.041-.637-2.544-5.097-2.862-1.352 1.352 3.068 5.287 2.62.561 6.038 6.038c-.705 1.021-.173 3.03-.173 3.03l9.543 9.525c.637.635 1.909.635 2.864 0"/></g><g><circle class="st7" cx="492.433" cy="44.569" r="21.893"/><path class="st14" d="M484.379 52.31s-3.51-1.254-5.307 6.184c7.187-1.922 5.887-5.637 5.887-5.637l-.58-.547z"/><path class="st10" d="M486.002 54.819l-3.402-3.42 3.053-.562.928.932z"/><path transform="rotate(45.154 486.654 50.788)" class="st10" d="M484.081 49.613h5.116v2.343h-5.116z"/><path class="st15" d="M505.322 32.202l.034-.034-.03.004a.51.51 0 0 0 .004-.03l-.034.034c-.828.111-11.059 1.567-15.654 6.137-4.79 4.765-5.613 10.119-5.613 10.119l2.448 2.462.026.026 2.448 2.461s5.358-.794 10.149-5.558c4.595-4.571 6.106-14.794 6.222-15.621z"/><path class="st15" d="M487.508 44.159s-4.77-2.817-6.789-.554a38.648 38.648 0 0 0-3.339 4.315l.75.637s2.405-2.611 4.346-2.652c1.173-.025 3.233 1.135 3.233 1.135l1.799-2.881z"/><path class="st10" d="M493.405 50.088s2.791 4.785.517 6.792c-2.274 2.007-4.333 3.315-4.333 3.315l-.633-.753s2.624-2.39 2.676-4.331c.031-1.173-1.117-3.239-1.117-3.239l2.89-1.784z"/><path class="st10" d="M505.322 32.202l.034-.034-.03.004a.51.51 0 0 0 .004-.03l-.034.034h-.003l-18.817 18.715.001.001.026.026 2.448 2.461s5.358-.794 10.149-5.558c4.595-4.569 6.106-14.792 6.222-15.619z"/><path class="st14" d="M502.969 41.317c1.639-4.258 2.279-8.589 2.353-9.115l.034-.034-.03.004a.51.51 0 0 0 .004-.03l-.034.034c-.527.071-4.861.688-9.128 2.303l6.801 6.838z"/><path class="st14" d="M499.511 37.84l3.458 3.477c1.639-4.258 2.279-8.589 2.353-9.115l.034-.034-.03.004a.51.51 0 0 0 .004-.03l-.034.034a5.233 5.233 0 0 0-.105.015l-5.68 5.649z"/></g><g><path class="st10" d="M159.5 26.679h2v7h-2zM159.5 35.679h2v7h-2zM159.5 44.679h2v7h-2z"/></g><g><path class="st10" d="M173.5 26.679h2v7h-2zM173.5 35.679h2v7h-2zM173.5 44.679h2v7h-2z"/></g><g><path class="st10" d="M187.5 26.679h2v7h-2zM187.5 35.679h2v7h-2zM187.5 44.679h2v7h-2z"/></g><g><circle class="st8" cx="232.261" cy="90.179" r="10.34"/></g><g><circle class="st8" cx="382.011" cy="107.179" r="10.34"/></g><g><path class="st4" d="M525.51 151.679h-19.02a.99.99 0 0 1-.99-.99v-38.02a.99.99 0 0 1 .99-.99h19.02a.99.99 0 0 1 .99.99v38.02c0 .546-.444.99-.99.99z"/><path class="st4" d="M505.5 146.679v4.016c0 .544.441.984.984.984h19.032a.984.984 0 0 0 .984-.984v-4.016h-21z"/><path class="st5" d="M507.5 116.679h17v29h-17z"/><path class="st7" d="M524.5 131.386v-14.707h-15.874z"/><path class="st16" d="M512.5 113.679h7v1h-7z"/><path class="st17" d="M508.5 147.679h1v1h-1zM515.5 147.679h1v1h-1zM522.5 147.679h1v1h-1z"/></g><g><path class="st7" d="M492 215.179h-29.834v-37.667h19.5l10.417 10.417z"/><path class="st10" d="M493.5 187.679l-10.982-11H463.47a1.971 1.971 0 0 0-1.971 1.971v36.059c0 1.088.882 1.971 1.971 1.971h28.059c1.087 0 1.971-1 1.971-1.971v-27.03zm-11-8.336l8.335 8.335H482.5v-8.335zm9 35.336l-28 .029-.029-36.029 17.029-.018v9.187c0 1.011.82 1.831 1.831 1.831h9.169v25z"/><path class="st11" d="M468.5 193.679h17v3h-17zM468.5 198.679h17v3h-17zM468.5 203.679h17v3h-17z"/></g></g><g id="Layer_1"><path class="st97" d="M354.836 156.229c-1.055 1.208-.754 1.208-1.203 2.574h-2.11c.153-.917-.148-1.519-1.667-.917l4.98-1.657z"/><path class="st97" d="M354.535 153.37l.449 2.258c0 .601-.449.902-1.203 1.208l-5.581 1.514a14.823 14.823 0 0 1-3.609.454h-3.16c-1.657 0-1.055-.917-.754-1.065 1.203-.301 4.215-1.208 6.473-2.411 1.952-1.051 7.385-1.958 7.385-1.958zM363.567 156.229c-1.055 1.208-.754 1.208-1.055 2.574h-2.258c.301-.917 0-1.519-1.657-.917l4.97-1.657z"/><path class="st1" d="M353.934 151.418c0 .749.601 1.504.601 1.952.148.601-8.441 3.012-8.441 3.012-.153.148-1.504.148-1.055-.153 1.957-.902 5.734-3.308 5.571-4.363l3.324-.448z"/><path class="st97" d="M363.261 153.37l.454 2.258c0 .601-.454.902-1.203 1.208l-5.571 1.514a14.823 14.823 0 0 1-3.609.454h-3.175c-1.657 0-1.055-.917-.754-1.065 1.208-.301 4.231-1.208 6.636-2.411 1.957-1.051 7.222-1.958 7.222-1.958z"/><path class="st1" d="M362.66 151.418c0 .749.601 1.504.601 1.952.153.601-8.425 3.012-8.425 3.012-.153.148-1.504.148-1.055-.153 1.957-.902 5.719-3.308 5.571-4.363l3.308-.448zM346.696 125.489c-.153 1.657 1.203 3.012 2.707 3.16 1.672 0 3.028-1.203 3.175-2.859l3.012-24.415c0-2.712-2.11-4.97-4.669-4.97-2.722-.148-4.98 1.809-5.128 4.368l.903 24.716z"/><path class="st1" d="M362.813 152.468c0 .902-3.16 1.203-3.313.301l-4.062-26.826c-.148-1.657 1.055-3.012 2.712-3.16 1.651-.153 3.007 1.055 3.16 2.707 1.35 8.139.147 15.978 1.503 26.978zM354.082 152.468c0 .902-3.308 1.203-3.308.301l-4.078-26.826c-.153-1.657 1.055-3.012 2.707-3.16 1.519-.153 3.028 1.055 3.175 2.707 1.356 8.139.153 15.978 1.504 26.978z"/><path class="st1" d="M355.437 125.489c0 1.657 1.203 3.012 2.712 3.16 1.651 0 3.007-1.203 3.16-2.859l3.007-24.415c0-2.712-1.957-4.97-4.664-4.97-2.559-.148-4.97 1.809-5.117 4.368l.902 24.716z"/><path class="st98" d="M345.492 100.168h9.344v23.516h-9.344z"/><path class="st98" d="M354.835 100.168h9.482v23.516h-9.482z"/><path class="st98" d="M353.633 103.49l12.039-1.667-4.215-11.147-1.356-15.98-2.559-3.16-7.385-3.313 2.574 32.55z"/><path class="st98" d="M353.032 103.49l-7.993 1.356V93.081l-4.663-14.46 1.503-7.386 7.977-3.012 3.176 32.698z"/><path class="st97" d="M330.88 74.543a3.02 3.02 0 0 1-3.007 3.023 3.02 3.02 0 0 1-3.012-3.023c0-1.651 1.203-3.007 2.859-3.007s3.012 1.356 3.16 3.007z"/><path class="st98" d="M342.781 79.075c-2.258.148-4.21-1.809-4.21-4.078a4.043 4.043 0 0 1 4.062-4.062c2.406 0 4.215 1.804 4.215 4.062a4.054 4.054 0 0 1-4.067 4.078z"/><path class="st98" d="M342.781 70.935l-15.062.601.153 6.03 14.909 1.657z"/><path class="st99" d="M320.645 60.384l4.669-1.351.448 1.351-4.664 1.508z"/><path class="st98" d="M326.817 71.684c1.504-.449 3.313.301 3.762 1.809.601 1.504-.148 3.323-1.657 3.925-1.657.601-3.308-.301-3.909-1.809-.607-1.514.301-3.324 1.804-3.925z"/><path class="st98" d="M321.098 61.892l3.915 13.717 5.566-2.116-4.363-13.257z"/><path class="st1" d="M345.942 64.145l6.336-.449.754 5.882s.749 7.686-1.809 7.839c-2.569.148-3.925-6.937-3.925-6.937l-1.356-6.335z"/><path class="st100" d="M350.774 62.795c.749 3.17-.316 4.98-4.078 5.128l-.902-3.777 4.98-1.351z"/><path class="st1" d="M343.684 61.74c-1.651-.454-1.05-.902-.902-1.055.153-.301 1.957-2.105 1.957-2.559 0-.148.153-.301.153-.449 1.05.449 2.105.301 2.707 0 .601.749.902 1.504.902 1.957 0 .449-.148.902-.148 1.05 0 .601.749.153.749.153s.754-.601 1.356-.754c.617.454.316 2.11.153 2.712-.153.301-.153.449-.153.449s-.301 2.411 1.065 2.875c-2.268 1.203-5.128.749-6.483.601-1.504-.153-1.356-.754-1.356-.754.152-.913.3-3.773 0-4.226z"/><path class="st100" d="M349.102 56.775l-.301 1.351v.153c0 .301-.148.902-.301 1.356 0-.454-.301-1.208-.902-1.957.902-.302 1.504-.903 1.504-.903zM350.458 60.083c.464-.148.765 0 .917.301.148.301 0 .902-.301 1.509-.153.301-.301.601-.464.902.164-.602.464-2.258-.152-2.712z"/><path class="st93" d="M350.458 63.243s-.301 2.258 1.065 2.875h.153a6.998 6.998 0 0 0 4.817-2.574c.148.153.449.153.749.153 2.258.301 4.368-1.356 4.516-3.614.301-2.258-1.356-4.378-3.609-4.679h-.754c-.454-.601-1.055-1.351-1.804-1.952a7.539 7.539 0 0 0-2.859-1.509 6.754 6.754 0 0 0-5.133.754c-1.504-.301-3.007.754-3.308 2.258-.306.902 0 1.967.601 2.722 1.05.449 2.105.301 2.707 0 .902-.301 1.504-.902 1.504-.902l-.749 3.909c0 .601.749.153.749.153s.754-.601 1.356-.754c.464-.148.765 0 .917.301.148.301 0 .902-.301 1.509-.153.301-.301.601-.464.902-.153.3-.153.448-.153.448z"/><path d="M346.242 59.782c-.148 0-.148 0-.301.153 0-.153-.148-.153-.148-.301 0-.301.301-.454.449-.454.301 0 .454.153.454.454v.301c-.153-.153-.301-.153-.454-.153z"/><path class="st99" d="M350.774 74.696l1.804 21.561-3.624-15.077-2.105-6.183 1.503-4.817.301 1.356z"/><path class="st101" d="M350.774 74.696l1.804 21.561 1.203-14.624 1.203-7.237-3.308-4.669.148 1.208z"/><path class="st100" d="M352.731 67.474l.403 1.892 2.303 5.631-4.439-4.438z"/><path class="st102" d="M345.641 63.697s-.449.148-.902.148c-.301 0-.449 0-.601-.148h-.301c-.153 0-.153 0-.153.148 0 0 0 .153.153.153h.301c.153 0 .301 0 .601-.153.453 0 .902-.148.902-.148z"/><path class="st102" d="M345.641 63.697s-.449.148-.902.148c-.449.153-.902 0-.902 0l-.153.153c0 .148 0 .148.153.148 0 0 .454 0 .902-.148.453-.153.902-.301.902-.301z"/><path class="st97" d="M348.2 83.285c0 .301.153.454.454.454.148 0 .301-.301.301-.454 0-.301-.153-.449-.454-.449-.149 0-.301.301-.301.449zM350.157 89.921c0 .153.153.301.454.301.163 0 .464-.148.311-.449 0-.153-.148-.306-.464-.306-.148.001-.301.154-.301.454zM352.124 96.705c0 .153.153.301.454.301.153 0 .454-.148.454-.449-.153-.153-.301-.301-.454-.301-.301.001-.454.149-.454.449z"/><path class="st103" d="M345.493 104.698l7.539-1.208v-2.569l.601 2.569 10.683-1.366v1.065l-18.823 3.313z"/><path class="st97" d="M342.481 71.383c.601-1.504-.301-3.308-1.957-3.762-1.504-.454-3.16.454-3.762 2.105-.449 1.509.454 3.165 2.11 3.614 1.504.602 3.16-.3 3.609-1.957z"/><path class="st98" d="M357.242 71.383c-2.105-.601-4.511.601-5.117 2.859-.601 2.12.754 4.378 2.859 5.133 2.258.601 4.516-.754 5.117-2.859.607-2.273-.601-4.531-2.859-5.133z"/><path class="st98" d="M354.984 79.223l-16.112-5.883 1.651-5.718 16.719 3.761z"/><path class="st98" d="M337.965 68.075c-1.351 1.05-1.651 2.859-.749 4.21 1.05 1.356 2.859 1.657 4.215.607 1.351-.907 1.651-2.859.601-4.067-.907-1.351-2.859-1.657-4.067-.75z"/><path class="st1" d="M329.223 59.634c-2.258-1.657-2.707-2.559-3.762-4.679-.601-1.356-.301-1.957.301-1.504-1.05-1.055-.449-2.411.153-1.657-.153-.301-.301-.902.301-1.055.301-.148.601.601.749.902.301-.301.907-.301 1.208.601.449.902.902 1.356.902 1.356 0-1.055.301-1.504.749-1.203.306 1.055 1.208 2.406 1.509 3.762 0 .301.148.454.148.765l4.078 4.817-3.476.902-2.86-3.007z"/><path class="st99" d="M331.93 56.879l-3.91 3.056.902 1.203 4.003-2.933z"/><path class="st98" d="M332.837 57.978l9.195 10.846-4.817 3.461-8.593-10.999z"/><path class="st99" d="M354.984 79.375c2.931.803 4.368-.601 5.117-2.712-.749 1.957-3.007 3.012-4.965 2.411-.301 0-15.363-5.882-15.363-5.882-.454-.153-1.657-.454-2.411-1.356l-.601-.754-7.987-9.797h-.153l8.594 10.999c.301.454.749.754 1.657 1.208"/><path class="st113" d="M162.5 28.679h7v1h-7zM176.5 28.679h7v1h-7zM190.5 28.679h7v1h-7zM162.5 37.679h7v1h-7zM190.5 37.679h7v1h-7zM190.5 46.679h7v1h-7zM162.5 30.679h7v1h-7zM190.5 30.679h7v1h-7zM176.5 37.679h7v1h-7zM176.5 46.679h7v1h-7zM162.5 46.679h7v1h-7zM176.5 39.679h7v1h-7zM162.5 48.679h7v1h-7z"/></g></g></switch></svg>