<svg xmlns="http://www.w3.org/2000/svg" xmlns:xlink="http://www.w3.org/1999/xlink" viewBox="0 0 636 300"><defs><clipPath id="a"><path d="M330.618,45.627l-.161-.054c-21.748.925-44.3,50.684-44.3,104.929,0,54.263,24.269,104.25,44.3,104.938l.212-.038c49.722-5.011,94.4-50.957,94.4-105.811C425.071,94.717,380.631,50.428,330.618,45.627Z" fill="none"/></clipPath></defs><title>swimlane-dotnet-core</title><path d="M544.99,169h-54.7a3.009,3.009,0,1,1-.158-6h25.975c9.783,0,18.135-7.606,18.462-17.384A18,18,0,0,0,516.58,127H453.737v-8h66.031a13.779,13.779,0,0,0,13.91-12.889A13.5,13.5,0,0,0,520.191,92H449.84c-4.572,0-4.5-6-.286-6h95.013a13.779,13.779,0,0,0,13.91-12.889A13.5,13.5,0,0,0,544.99,59H429.661l-.3-4h29.288c9.783,0,18.135-7.607,18.461-17.384A18,18,0,0,0,459.119,19H361.664A18.136,18.136,0,0,0,343.59,35.733,18.074,18.074,0,0,0,330.379,30H193.4c-9.783,0-18.135,7.607-18.462,17.384A18,18,0,0,0,192.925,66h8.812l-1,4h-73.9a13.779,13.779,0,0,0-13.91,12.889A13.5,13.5,0,0,0,126.409,97H169.1c4.5,0,4.95,6,0,6H102.034a13.779,13.779,0,0,0-13.91,12.889A13.5,13.5,0,0,0,101.61,130h34.959l1.134,8H98.435c-9.783,0-18.135,7.607-18.461,17.384A18,18,0,0,0,97.964,174H177.4c4.5,0,4.6,6,0,6H126.833a13.779,13.779,0,0,0-13.91,12.889A13.5,13.5,0,0,0,126.409,207h2.184c5.79,0,4.292,6,.292,6H102.034a13.779,13.779,0,0,0-13.91,12.889A13.5,13.5,0,0,0,101.61,240h68.419c3.1,0,3.409,3.636,0,3.636a18.191,18.191,0,0,0-17.993,20.844A18.394,18.394,0,0,0,170.381,280H350.945a18.148,18.148,0,0,0,16.68-11H479.212c9.784,0,18.136-7.607,18.462-17.384A18,18,0,0,0,479.684,233h-41.2l-.08-4h81.368a13.779,13.779,0,0,0,13.91-12.889A13.5,13.5,0,0,0,520.191,202H500.807c-4.357,0-3.93-6,.065-6h43.695a13.779,13.779,0,0,0,13.91-12.889A13.5,13.5,0,0,0,544.99,169Z" fill="#cee0ec"/><path d="M466.23,150.5c0,77.759-60.047,141.75-136.149,148.156-4.161.35-8.092.336-12.344.336A148.492,148.492,0,1,1,466.23,150.5Z" fill="#c2c2c2"/><path d="M459.987,149.25c0,79.835-69.25,145.805-142.25,145.805a144.555,144.555,0,0,1,0-289.11C391.237,5.945,459.987,69.415,459.987,149.25Z" fill="#b2b2b2"/><polygon points="269.404 285.417 330.071 297.75 330.071 2.5 326.779 2.292 320.166 2.329 267.487 41.167 269.404 285.417" fill="#939393"/><path d="M269.237,150.5c0-74.519,31-142.875,60.875-144.083-.069-1.375-.083-2.667-.083-3.917-2.167-.167-5.167-.417-6.958-.417-76.642,0-146.826,70.843-146.826,148.417,0,78.406,69.215,149.669,146.836,148.375,1.875-.031,3.312.031,7.031-.219,0-1.656-.031-2.718-.031-4.062C302.571,293.667,269.237,225.019,269.237,150.5Z" fill="#b2b2b2"/><path d="M263.268,150.5c0-74.519,25.906-136.378,59.913-148.383-1.808-.065-3.621-.109-5.444-.109a148.492,148.492,0,0,0,0,296.984c1.823,0,3.636-.044,5.444-.109C289.174,286.878,263.268,225.019,263.268,150.5Z" fill="#409ae1"/><path d="M212.874,141.63v2.354a.768.768,0,0,0,.542.745l7.977,2.37a2.957,2.957,0,0,1,1.45.97l7.891,9.693h9.47a2.323,2.323,0,0,1,2.278,2.367v5.837l-7.127,7.4v15.608l11.172,11.6v4h4.623l8.472,8.806V239h2.311l-1.619,8.41h0l-.693,3.6,4.623,5.6v12.805l6.161,12.808,8.475,7.2h8.472l1.35-3.3-6.258-5.5,1.347-6.3v-3.2h-3.949l-2.309-2.4,4.234-4v-2.3l-3.753-.8v-2.7H283.6l1.373-.729C271.8,231.3,263.543,193.94,263.28,152.541l-2.887-4.285-8.762-1-6.069,8-12.229-1.5V142.675a2.409,2.409,0,0,0-2.023-2.415l-6.932-1.008,3.469-6v-2.445a1.708,1.708,0,0,0-2.739-1.421l-8.529,6.665h-7.125l-.63-1.33a13.054,13.054,0,0,1-.29-10.484l1.388-3.411a12.439,12.439,0,0,1,5.752-6.367l2.1-1.087a11.759,11.759,0,0,1,5.428-1.333h14.081v3.97a6.316,6.316,0,0,0,2.79,5.276l1.133.746a1.4,1.4,0,0,0,2.145-1.224v-9.968l6.644-6.3,6.644-3.7v-4.5l8.956-9.406,4.994-2.6a202.733,202.733,0,0,1,12.575-37.683l-3.7-.943-4.718,3.1v9.9l-7.415,2.9-3.273,6.6h-2.989v-7.7l-7.412-1.1-3.564-3.3-.278-3.019a3.585,3.585,0,0,1,1.592-3.345l9.662-6.243,4.858-1.3a1.837,1.837,0,0,1,2.27,1.83V46.3h2.831a1.928,1.928,0,0,0,1.888-1.963V43.2h1.766a.88.88,0,0,0,.676-1.405l-1.671-2.3H278.5l3.659-4.7,7.477-.7q2.231-3.827,4.606-7.284a15.388,15.388,0,0,0-10.473-.03l-7,2.511v4.6a1.662,1.662,0,0,1-1.818,1.691l-2.792-.323a1.678,1.678,0,0,1-1.455-1.691V31.1l2.576-2.52a1.329,1.329,0,0,0-.872-2.284h-6.382a2.523,2.523,0,0,0-2.275,1.48L262.51,30.4h1.375a1.742,1.742,0,0,1,1.708,1.774v.954a1.744,1.744,0,0,1-1.708,1.776h-4.842l-.9,1.44a2.449,2.449,0,0,1-2.065,1.16H251.3a2.514,2.514,0,0,1-2.466-2.562V32.294h7.606l4.14-5.3-1.371-1.018a1.778,1.778,0,0,0-2.417.27l-1.722,1.98a2.791,2.791,0,0,1-2.1.969h-3.7a2.812,2.812,0,0,1-2.42-1.413l-2.347-3.991h-4.224q-4.781,2.928-9.315,6.2h5.64v2.6l-.355.356a1.137,1.137,0,0,0,.754,1.947h4.183a2.66,2.66,0,0,1,2.533,1.956l.3,1.044h-7.937a2.971,2.971,0,0,1-2.785-2.027l-.447-1.275-5.318-2.049Q224.1,35.179,220.822,38l.475-.1h4.912v3l-1.245.985a2.831,2.831,0,0,1-1.756.615H218.03a1.625,1.625,0,0,1-1.371-.767A148.516,148.516,0,0,0,175.846,106.6v6.8a13.355,13.355,0,0,0,1.619,6.377l4.353,7.972h2.438V123.61l-3.016-8.738v-5.135A2.683,2.683,0,0,1,183.87,107v7.2l6.164,9.8v4.066h1.411v3.27l3.852,8,11.967,3.55a.75.75,0,0,0,.951-.745v-1.344a.519.519,0,0,1,.622-.521l3.634.817A.531.531,0,0,1,212.874,141.63Zm40.8-53.8-1.062,1.1a3.578,3.578,0,0,1-2.579,1.109h-1.977a1.182,1.182,0,0,1-1.075-1.59l.7-2.025,4.518-1.432a1.152,1.152,0,0,1,1.476,1.135Zm.748-7.168a1.808,1.808,0,0,1-.535,1.29l-.993.983a1.672,1.672,0,0,1-1.179.492h-2.011v-4.3h4.718Zm3.659-1.034a.557.557,0,0,1,.954-.412l.858.89a.586.586,0,0,1-.395.994h-1.417Zm-2.648,2.5,4.885,1.007a1.816,1.816,0,0,1,1.422,1.8v2.351H258.9a3.136,3.136,0,0,1-2.631-1.456l-.84-1.3Zm-3.515-6.682a.566.566,0,0,1,.969-.417l1.576,1.638a.593.593,0,0,1-.4,1.007h-2.144Zm-13.576,8.48a3.035,3.035,0,0,1,.743-2l3.684-4.2h-4.427v-2.1l4.733-2.952a2.315,2.315,0,0,1,1.216-.35h3.384a2.357,2.357,0,0,1,2.163,1.475l.346.828v3.1h-3.563l-5.68,10.107-.735-.369a3.442,3.442,0,0,1-1.864-3.086ZM233.354,61.9a1.752,1.752,0,0,1,1.443-.31l1.27.3a1.85,1.85,0,0,1,1.409,1.822v2.9l-2.628,1.3a1.757,1.757,0,0,1-2.275-.665l-2.032-3.235ZM219,47.715l2.165-1.28A3.826,3.826,0,0,1,223.1,45.9h3.107v2.9h-6.93A.587.587,0,0,1,219,47.715Z" fill="#40cdf5"/><path d="M330.618,45.627l-.161-.054c-21.748.925-44.3,50.684-44.3,104.929,0,54.263,24.269,104.25,44.3,104.938l.212-.038c49.722-5.011,94.4-50.957,94.4-105.811C425.071,94.717,380.631,50.428,330.618,45.627Z" fill="#e6e6e6"/><path d="M329.737,45.591c-21.675,1.268-44.07,50.86-44.07,104.911s24.081,103.857,44.07,104.921Z" fill="#c2c2c2"/><rect x="367.697" y="118.343" width="7.709" height="7.451"/><polygon points="413.636 123 381.737 123 381.737 121 413.636 121 415.656 122.046 413.636 123" fill="#b2b2b2"/><path d="M353.337,133.679l-3.555,11.681a3.017,3.017,0,0,1-2.87,2.168h-7.481l5.689-14.282Z" fill="#3c3c3c"/><path d="M350.8,175.47h-7.721c-3.659-.706-5.619-3.874-4.771-8.985l11.1-36.344-20.557,4.036L317.264,175.82a4.778,4.778,0,0,0-2.926,4.433V192.36A4.721,4.721,0,0,0,319,197.142h31.8a4.72,4.72,0,0,0,4.656-4.782V180.253A4.721,4.721,0,0,0,350.8,175.47Z" fill="#ffcb40"/><polygon points="385.382 127.347 390.068 125.639 390.068 118.654 385.382 116.636 385.382 127.347"/><rect x="373.29" y="114.462" width="13.302" height="14.903" rx="2.095" fill="#3c3c3c"/><rect x="375.897" y="117.218" width="8.389" height="1.863" fill="#737373"/><rect x="375.897" y="120.944" width="8.389" height="1.863" fill="#737373"/><rect x="375.897" y="124.669" width="8.389" height="1.863" fill="#737373"/><path d="M368,132.894l-12.545,1.594.454-22.2,12.536,1.507a1.924,1.924,0,0,1,1.672,1.93v14.708A2.457,2.457,0,0,1,368,132.894Z" fill="#3c3c3c"/><rect x="305.874" y="111.668" width="51.696" height="23.13" rx="3.396" fill="#ffcb40"/><path d="M305.874,122.69v8.667a3.4,3.4,0,0,0,3.351,3.441h44.993a3.4,3.4,0,0,0,3.351-3.441V122.69Z" fill="#f0ae00"/><path d="M329.737,133.818l-1.133.217-11.869,41.643a4.776,4.776,0,0,0-3,4.432v12.108A4.776,4.776,0,0,0,318.508,197h11.229Z" fill="#efb73a"/><path d="M314.737,188v6.146A4.752,4.752,0,0,0,319.381,199h31.713a4.752,4.752,0,0,0,4.643-4.854V188Z" fill="#c78e00"/><path d="M329.737,188h-16v6.146A4.813,4.813,0,0,0,318.508,199h11.229Z" fill="#ba8102"/><path d="M330.018,111.564l-20.748.1a3.4,3.4,0,0,0-3.4,3.4V131.4a3.4,3.4,0,0,0,3.4,3.4l20.748-.1Z" fill="#efb73a"/><path d="M329.956,122.69H305.874v8.667a3.4,3.4,0,0,0,3.351,3.441h20.731Z" fill="#c78e00"/><rect x="309.955" y="114.307" width="25.697" height="3.105" fill="#c78e00"/><rect x="309.955" y="114.307" width="20.154" height="3.105" fill="#ba8102"/><rect x="310.408" y="124.553" width="13.302" height="1.552" fill="#737373"/><rect x="310.408" y="127.347" width="13.302" height="1.552" fill="#737373"/><rect x="310.408" y="130.141" width="13.302" height="1.552" fill="#737373"/><g clip-path="url(#a)"><path d="M365.729,243.585l-3.2-3.339a.3.3,0,0,1-.061-.326l3.694-8.819a.216.216,0,0,1,.241-.128l0-.02,1.438.1-.4,1.263a16.421,16.421,0,0,1,2.182,4.76,20.052,20.052,0,0,1-.025,7.917Z" fill="#939393"/><path d="M353.568,260.93s.232-.384-.309-2.115-8.253-14.442-8.253-14.442a11.866,11.866,0,0,1,2.275-9.269c2.792-3.787,7.538-5.914,9.2-6.572a.266.266,0,0,1,.144-.011l.02-.035,1.448.1-1.763,1.575-3.377,8.379a.369.369,0,0,0,.217.486l16.428,5.966s-3.78,4.447-4.754,6.923S361.6,260.4,361.6,260.4l-.606,5.4Z" fill="#939393"/><path d="M355.322,260.827a7.81,7.81,0,0,0-.464-2.657c-.541-1.731-8.46-14.442-8.46-14.442s-1.1-3.881,2.33-8.527c2.792-3.788,7.538-5.915,9.2-6.572a.277.277,0,0,1,.358.363l-3.886,9.642a.37.37,0,0,0,.217.486l16.429,5.965s-3.781,4.447-4.755,6.923-3.306,8.716-3.306,8.716l-.541,5.17Z" fill="#ccc"/><path d="M363.912,240.018l3.694-8.821a.22.22,0,0,1,.377-.056,17.457,17.457,0,0,1,3.084,6.027,20.041,20.041,0,0,1-.024,7.917l-3.866-1.4-3.205-3.34A.3.3,0,0,1,363.912,240.018Z" fill="#ccc"/><rect x="355.94" y="246.404" width="8.729" height="7.559" rx="1.345" transform="translate(711.157 -13.092) rotate(108.341)" fill="#939393"/><rect x="357.574" y="247.22" width="5.237" height="5.619" rx="0.322" transform="translate(710.862 -13.188) rotate(108.341)" fill="#939393"/><polygon points="363.216 247.64 364.248 247.982 360.153 253.414 359.133 253.076 363.216 247.64" fill="#c2c2c2"/><polygon points="361.742 247.097 362.773 247.439 358.679 252.871 357.658 252.533 361.742 247.097" fill="#c2c2c2"/><polygon points="360.267 246.555 361.299 246.897 357.204 252.329 356.184 251.99 360.267 246.555" fill="#c2c2c2"/><path d="M353.327,330.5c2.764,2.24,8.6,2.38,11.486-1.746a8.014,8.014,0,0,0,1.547-6.293L362.9,261.586a1,1,0,0,0-1-.965l-8.59.309c-.619.464-1.5,1.186-1.548,2.012l-1.444,61.74A7.3,7.3,0,0,0,353.327,330.5Zm2.114-3.153a4.007,4.007,0,0,1-.166-5.609,3.875,3.875,0,0,1,5.532-.168,4.007,4.007,0,0,1,.166,5.609A3.875,3.875,0,0,1,355.441,327.35Z" fill="#939393"/><path d="M354.507,329.54a7.545,7.545,0,0,0,12.2-6.742l-2.632-61.225a1,1,0,0,0-1-.952l-9.2.006a.684.684,0,0,0-.683.658l-1.555,62.23h.02A7.52,7.52,0,0,0,354.507,329.54Zm2.114-3.109a3.913,3.913,0,1,1,5.532-.166A3.913,3.913,0,0,1,356.621,326.431Z" fill="#b8b8b8"/><path d="M218.126,199.394l78.814-.028a3.95,3.95,0,0,0,3.2-2.811L299,96.31s-3.275,1.212-4.281,2.373l-78.5,96.608A2.611,2.611,0,0,0,218.126,199.394Zm26.544-16.637,37.519-46.064a.5.5,0,0,1,.94.226l.016,47.541c0,.577-.468.154-1.045.154L245.069,183.6A.515.515,0,0,1,244.67,182.757Z" fill="#a6a6a6"/><path d="M218.678,198l79.807-.027a2.253,2.253,0,0,0,2.252-2.254L300.7,97.4c0-1.125-1.275-1.424-2.025-.486l-80.86,99.273A1.109,1.109,0,0,0,218.678,198Zm28-13.987a.515.515,0,0,1-.4-.84L283.8,137.11a.5.5,0,0,1,.94.225l.016,45.619A1.045,1.045,0,0,1,283.708,184Z" fill="#d2d2d2"/><rect x="295.709" y="105.054" width="3.856" height="1.146" fill="#bfbfbf"/><rect x="295.712" y="112.687" width="3.856" height="1.146" fill="#bfbfbf"/><rect x="295.715" y="120.32" width="3.855" height="1.146" fill="#bfbfbf"/><rect x="295.717" y="127.953" width="3.856" height="1.146" fill="#bfbfbf"/><rect x="295.72" y="135.585" width="3.856" height="1.146" fill="#bfbfbf"/><rect x="295.723" y="143.218" width="3.855" height="1.146" fill="#bfbfbf"/><rect x="295.726" y="150.851" width="3.855" height="1.146" fill="#bfbfbf"/><rect x="295.728" y="158.484" width="3.856" height="1.146" fill="#bfbfbf"/><rect x="295.73" y="166.117" width="3.856" height="1.146" fill="#bfbfbf"/><rect x="295.733" y="173.75" width="3.855" height="1.146" fill="#bfbfbf"/><rect x="295.736" y="181.383" width="3.856" height="1.146" fill="#bfbfbf"/><rect x="295.738" y="189.016" width="3.856" height="1.146" fill="#bfbfbf"/><polygon points="417.76 63.943 377.464 63.943 377.464 66.794 417.76 66.794 420.83 65.47 417.76 63.943" fill="#d2d2d2"/><polygon points="415.649 65.47 417.76 66.794 376.409 66.794 376.409 65.47 415.649 65.47" fill="#b8b8b8"/><rect x="367.737" y="61" width="4" height="10" fill="#b8b8b8"/><rect x="339.737" y="59" width="29" height="13" rx="1.781" fill="#b8b8b8"/><rect x="370.737" y="59" width="7" height="13" rx="1.738" fill="#b8b8b8"/><path d="M366.737,65V61a.941.941,0,0,0-.861-1H341.669a1.02,1.02,0,0,0-.932,1.088V65Z" fill="#d2d2d2"/><path d="M377.224,64.859V61.152a.85.85,0,0,0-.823-.874h-3.822a.851.851,0,0,0-.824.874v3.707Z" fill="#d2d2d2"/><path d="M324.327,238.664l-2.115.008-.016-1.392,2.176.017a.656.656,0,0,1,.481.176.658.658,0,0,1,.209.468.7.7,0,0,1-.051.283.723.723,0,0,1-.16.238.709.709,0,0,1-.524.2Z" fill="#737373"/><path d="M251.737,234l1,5.343V242h63l1-2.722V234Z" fill="#d2d2d2"/><path d="M249.467,241.087l2.41,0,0-6.121-2.434.064Z" fill="#505050"/><path d="M323.765,236.746l-7.028-2.635-.018,7.845,7.018-2.7Z" fill="#939393"/><path d="M251.9,241.9l64.653,0,.031-2.613-64.684.065Z" fill="#a6a6a6"/><path d="M244.987,234.2a1.1,1.1,0,0,0-1.147,1.086l.032,2.936c0,.287-.009.722-.012,1.157-.033.348-.038.782-.041,1.071l.026.379a1.141,1.141,0,0,0,1.118,1.083l4.524-.01-.06-2.58-.007-5.1Z" fill="#db9d00"/><path d="M249.137,239.316l-4.958.007a.427.427,0,0,0-.322.345,6.148,6.148,0,0,1-.037.779,1.574,1.574,0,0,0,1.492,1.5l3.8-.019c.231-.027.378-.168.322-.342l.019-1.884a.36.36,0,0,0-.081-.254A.356.356,0,0,0,249.137,239.316Z" fill="#c78e00"/><path d="M304.418,234.139l-9.282.047-.047-1.042,9.313.036Z" fill="#d2d2d2"/><polygon points="381.875 171.287 381.875 207.458 396.439 223.654 400.804 223.654 383.384 170.038 381.875 171.287" fill="#939393"/><rect x="326.445" y="146.933" width="16.039" height="136.677" transform="translate(119.193 549.736) rotate(-90)" fill="#d2d2d2"/><rect x="331.237" y="141.5" width="6" height="137" transform="translate(124.237 544.237) rotate(-90)" fill="#d2d2d2"/><rect x="331.055" y="147.486" width="6.82" height="136.677" transform="translate(118.64 550.289) rotate(-90)" fill="#e4e4e4"/><polygon points="383.737 170 383.737 207.187 398.473 223.616 402.737 223.203 402.737 170 383.737 170" fill="#b8b8b8"/><polygon points="389.737 203.353 389.737 174 386.737 174 386.737 204.127 397.299 217 400.737 217 400.737 216.881 389.737 203.353" fill="#d2d2d2"/><rect x="270.126" y="219.111" width="0.803" height="4.18" fill="#b2b2b2"/><rect x="274.527" y="219.111" width="0.803" height="4.18" fill="#b2b2b2"/><rect x="278.927" y="219.111" width="0.803" height="4.18" fill="#b2b2b2"/><rect x="283.329" y="219.111" width="0.803" height="4.18" fill="#939393"/><rect x="287.73" y="219.111" width="0.803" height="4.18" fill="#b2b2b2"/><rect x="292.131" y="219.111" width="0.803" height="4.18" fill="#b2b2b2"/><rect x="296.532" y="219.111" width="0.803" height="4.18" fill="#b2b2b2"/><rect x="300.932" y="219.111" width="0.803" height="4.18" fill="#939393"/><rect x="305.334" y="219.111" width="0.803" height="4.18" fill="#b2b2b2"/><rect x="309.734" y="219.111" width="0.803" height="4.18" fill="#b2b2b2"/><rect x="314.135" y="219.111" width="0.803" height="4.18" fill="#b2b2b2"/><rect x="318.537" y="219.111" width="0.803" height="4.18" fill="#939393"/><rect x="322.937" y="219.111" width="0.803" height="4.18" fill="#b2b2b2"/><rect x="327.339" y="219.111" width="0.803" height="4.18" fill="#b2b2b2"/><rect x="331.739" y="219.111" width="0.803" height="4.18" fill="#b2b2b2"/><rect x="336.14" y="219.111" width="0.803" height="4.18" fill="#939393"/><rect x="340.541" y="219.111" width="0.803" height="4.18" fill="#b2b2b2"/><rect x="344.942" y="219.111" width="0.803" height="4.18" fill="#b2b2b2"/><rect x="349.344" y="219.111" width="0.803" height="4.18" fill="#b2b2b2"/><rect x="353.744" y="219.111" width="0.803" height="4.18" fill="#939393"/><rect x="358.145" y="219.111" width="0.803" height="4.18" fill="#b2b2b2"/><rect x="362.546" y="219.111" width="0.803" height="4.18" fill="#b2b2b2"/><rect x="366.947" y="219.111" width="0.803" height="4.18" fill="#b2b2b2"/><rect x="371.348" y="219.111" width="0.803" height="4.18" fill="#939393"/><rect x="375.749" y="219.111" width="0.803" height="4.18" fill="#b2b2b2"/><rect x="380.15" y="219.111" width="0.803" height="4.18" fill="#b2b2b2"/><rect x="384.551" y="219.111" width="0.803" height="4.18" fill="#b2b2b2"/><rect x="388.952" y="219.111" width="0.803" height="4.18" fill="#939393"/><line x1="283.73" y1="223.291" x2="283.73" y2="215.567" fill="none" stroke="#b2b2b2" stroke-miterlimit="10" stroke-width="1.091"/><line x1="301.334" y1="223.291" x2="301.334" y2="215.567" fill="none" stroke="#b2b2b2" stroke-miterlimit="10" stroke-width="1.091"/><line x1="318.938" y1="223.291" x2="318.938" y2="215.567" fill="none" stroke="#b2b2b2" stroke-miterlimit="10" stroke-width="1.091"/><line x1="336.542" y1="223.291" x2="336.542" y2="215.567" fill="none" stroke="#b2b2b2" stroke-miterlimit="10" stroke-width="1.091"/><line x1="354.146" y1="223.291" x2="354.146" y2="215.567" fill="none" stroke="#b2b2b2" stroke-miterlimit="10" stroke-width="1.091"/><line x1="371.749" y1="223.291" x2="371.749" y2="215.567" fill="none" stroke="#b2b2b2" stroke-miterlimit="10" stroke-width="1.091"/><line x1="389.353" y1="223.291" x2="389.353" y2="215.567" fill="none" stroke="#b2b2b2" stroke-miterlimit="10" stroke-width="1.091"/><polygon points="266.182 223.228 266.182 207.225 265.305 208.541 265.305 224.247 401.875 224.247 402.803 223.228 266.182 223.228" fill="#939393"/><path d="M433.7,158.364v-11.2s28.655,1.9,50.479,0c8.919-.949,16.32,12.714,0,11.2C466.724,156.087,433.7,158.364,433.7,158.364Z" fill="#d2d2d2"/><path d="M499.365,139.2a3.733,3.733,0,0,0,.142,6.69c.954.358,1.708.854,1.708,1.992v9.252c0,1.158-.254,1.8-1.423,2.135-1.495.427-1.851,3.7-.285,5.479,1.84,2.092-13.123,1.855-11.813-.213,1.4-2.206-.427-5.2-2.278-5.124-.28.011-.833-.168-1.406-.176a1.455,1.455,0,0,1-1.44-1.451V147.668a1.27,1.27,0,0,1,1.214-1.27c.884-.039,2.049-.084,2.771-.084,1.993,0,4.555-4.7.412-7.117C489.259,134.358,499.365,139.2,499.365,139.2Z" fill="#737373"/><rect x="486.888" y="145.152" width="10.009" height="15.229" rx="1.209" transform="translate(644.659 -339.125) rotate(90)" fill="#999"/><rect x="392.737" y="117" width="14" height="72" rx="3.026" transform="translate(552.737 -246.737) rotate(90)" fill="#b8b8b8"/><path d="M431.171,149a6.67,6.67,0,0,1,1.566,1.359V158h.018c.991.363,1.8-.441,1.982-1.433v-7.792c-.187-.991-1.982-1.775-1.982-1.775h-65.28s-1.8.784-1.738,1.775V149Z" fill="#d2d2d2"/><rect x="487.498" y="163.162" width="12.062" height="14.517" rx="1.948" transform="translate(663.95 -323.109) rotate(90)" fill="#c2c2c2"/><path d="M499.523,139.2a6.441,6.441,0,1,0-12.556,0Z" fill="#c2c2c2"/><path d="M496.305,175.206h2.224a1.119,1.119,0,0,0,1.12-1.12v-7.509a1.119,1.119,0,0,0-1.12-1.12h-2.224Z" fill="#f3f3f3"/><path d="M496.02,138.311a5.372,5.372,0,0,1-.057.744h2.274a5.189,5.189,0,0,0-5.068-6.348,5.179,5.179,0,0,0-1.326.177A5.618,5.618,0,0,1,496.02,138.311Z" fill="#f3f3f3"/><polygon points="336.321 94.55 337.171 93.377 344.315 93.377 344.315 94.818 336.321 94.55" fill="#c5c5c5"/><path d="M336.321,93.5h10.057l5.935,5.478h5.934a69.483,69.483,0,0,1,13.98,2.678c3.42,1.217,2.716-3.409.4-4.382-13.548-5.7-14.483-11.077-24.138-11.077C340.042,86.192,336.421,92.157,336.321,93.5Z" fill="#c2c2c2"/><path d="M347.2,86.244c-7.525.567-10.783,5.983-10.878,7.251h8Z" fill="#d2d2d2"/><path d="M336.321,94.55h10.057l5.935-5.477h5.934a69.553,69.553,0,0,0,13.98-2.678c3.42-1.217,2.716,3.408.4,4.382-13.548,5.7-14.483,11.076-24.138,11.076C340.042,101.853,336.421,95.889,336.321,94.55Z" fill="#d2d2d2"/><ellipse cx="347.686" cy="94.063" rx="4.84" ry="4.992" fill="#e6e6e6"/><path d="M372.227,90.425V86.672a1.516,1.516,0,0,1,.905-1.464c4.616-1.647,25.878-8.48,40.332-.274,1.469.834,1.526,3.738-.9,2.922-18.08-6.072-34.9,1.272-39.246,3.446C372.8,91.56,372.227,91.1,372.227,90.425Z" fill="#c2c2c2"/><path d="M372.227,97.505v3.753a1.516,1.516,0,0,0,.905,1.464c4.616,1.647,25.878,8.48,40.332.274,1.469-.834,1.526-3.738-.9-2.922-18.08,6.072-34.9-1.272-39.246-3.446C372.8,96.37,372.227,96.828,372.227,97.505Z" fill="#c2c2c2"/><path d="M302.932,91.505h-3.406V45.4a7.275,7.275,0,0,1,7.267-7.267h10.429v3.407H306.793a3.865,3.865,0,0,0-3.861,3.86Z" fill="#a6a6a6"/><path d="M308.421,93.965h-2.839V48.429A6.425,6.425,0,0,1,312,42.012h9.765v2.839H312a3.582,3.582,0,0,0-3.578,3.578Z" fill="#a6a6a6"/><path d="M313.815,97.088h-2.271V50.538a4.651,4.651,0,0,1,4.645-4.646h10.118v2.271H316.189a2.377,2.377,0,0,0-2.374,2.375Z" fill="#a6a6a6"/><path d="M318.452,98.981h-1.7V53.418a3.272,3.272,0,0,1,3.268-3.268h10.076v1.7H320.016a1.565,1.565,0,0,0-1.564,1.564Z" fill="#a6a6a6"/><path d="M319.125,54.158,297.388,42.931a1.131,1.131,0,0,0-1.651,1.005V82.868A1.132,1.132,0,0,0,296.869,84h21.736a1.132,1.132,0,0,0,1.132-1.132v-27.7A1.134,1.134,0,0,0,319.125,54.158Z" fill="#d2d2d2"/><path d="M298.694,83.461a.682.682,0,0,1-.682-.683V43.686l-.722-.366a1.132,1.132,0,0,0-1.644,1.009V83.276a1.131,1.131,0,0,0,1.131,1.131h22.152a1.129,1.129,0,0,0,1.113-.946Z" fill="#c5c5c5"/><path d="M316.737,67.021V59.3a.711.711,0,0,0-.383-.631l-13.579-7.047a.711.711,0,0,0-1.038.631V67.1a.9.9,0,0,0,.9.9h13.125A.979.979,0,0,0,316.737,67.021Z" fill="#c5c5c5"/></g></svg>