<svg xmlns="http://www.w3.org/2000/svg" xmlns:xlink="http://www.w3.org/1999/xlink" viewBox="0 0 636 300"><defs><style>.a{fill:none;}.b{clip-path:url(#a);}.c{fill:#ffc316;}.d{fill:#a71e22;}.e{fill:#d8b195;}.f{fill:#b8977c;}.g{fill:#e6ccb9;}.h{fill:#515050;}.i{clip-path:url(#b);}.j{fill:#479cdf;}.k{fill:#8b0304;}.l{fill:#f6cba7;}.m{fill:#ddb594;}.n{fill:#e6a1c0;}.o{fill:#f7e0cc;}.p{fill:#fff;}.q{fill:#a6a6a6;}.r{clip-path:url(#c);}.s{fill:#b498ff;}.t{fill:#2a3282;}.u{fill:#bb9167;}.v{fill:#f9d4bb;}.w{fill:#72594b;}.x{fill:#3777bc;}.y{fill:#675042;}.z{fill:#b6b8ba;}.aa{fill:#4f3f34;}.ab{fill:#cc8d85;}.ac{fill:#004c7a;}.ad{fill:#666;}.ae{fill:#c8c8c8;}</style><clipPath id="a"><path class="a" d="M205.029,27.522H78.971A17.984,17.984,0,0,0,60.987,45.506V127.9a17.984,17.984,0,0,0,17.984,17.984H180.093l18.582,26.64.16-26.64h6.193A17.984,17.984,0,0,0,223.013,127.9V45.506A17.984,17.984,0,0,0,205.029,27.522Z"/></clipPath><clipPath id="b"><path class="a" d="M254.971,27.522H381.029a17.984,17.984,0,0,1,17.984,17.984V127.9a17.984,17.984,0,0,1-17.984,17.984H279.907l-18.582,26.64-.16-26.64h-6.193A17.984,17.984,0,0,1,236.987,127.9V45.506A17.984,17.984,0,0,1,254.971,27.522Z"/></clipPath><clipPath id="c"><path class="a" d="M430.971,27.522H557.029a17.984,17.984,0,0,1,17.984,17.984V127.9a17.984,17.984,0,0,1-17.984,17.984H455.907l-18.582,26.64-.16-26.64h-6.193A17.984,17.984,0,0,1,412.987,127.9V45.506A17.984,17.984,0,0,1,430.971,27.522Z"/></clipPath></defs><title>swimlane-programming-languages</title><g class="b"><path class="c" d="M205.029,27.522H78.971A17.984,17.984,0,0,0,60.987,45.506V127.9a17.984,17.984,0,0,0,17.984,17.984H180.093l18.582,26.64.16-26.64h6.193A17.984,17.984,0,0,0,223.013,127.9V45.506A17.984,17.984,0,0,0,205.029,27.522Z"/><path class="d" d="M117.842,168.346A68.74,68.74,0,0,1,83,158.32v-3.662l-.189-3.469-.379-6.939-.584-12.711-.569-10.985h0v-.767l8.769-.576,1.9-.192,25.134-1.743.764-.192h.379v51.261Z"/><polygon class="d" points="83.381 131.154 79.195 109.761 115.929 102.248 120.128 123.639 83.381 131.154"/><path class="d" d="M154.774,119.786v.576h0l-.565,11.177-.758,16.372-.4,6.173V158.7a66.391,66.391,0,0,1-34.646,9.641h-.565V117.084h.379l.565.192,25.33,1.743,1.721.192Z"/><path class="e" d="M155.724,156.977c-.758-3.086-1.515-6.172-2.273-9.066-1.721-6.363-3.429-12.327-4.963-17.332l-.186-.192a2.79,2.79,0,0,0-.379-1.167c-.571-2.3-1.143-4.429-1.708-6.348a12.106,12.106,0,0,1-.379-3.662,9.375,9.375,0,0,1,6.273-7.323,11.382,11.382,0,0,1,4.372-.192,9.015,9.015,0,0,1,6.479,6.348c.571,1.934,1.329,4.045,1.913,6.364.186.384.186.576.379.96,1.515,5.4,3.429,11.56,5.137,18.116A65.337,65.337,0,0,1,155.724,156.977Z"/><polygon class="d" points="152.488 131.154 115.929 123.639 120.128 102.248 156.861 109.761 152.488 131.154"/><path class="d" d="M173.675,147.522c-.584.784-4.435,2.424-5,3-4.186,5.2-7.423,2.794-12.951,6.456-.565.384-.95.576-1.515.96-.379-1.152-.758-2.511-1.156-3.853-2.273-7.9-4.944-17.541-6.838-23.7a.719.719,0,0,0-.193-.591c-.771-2.686-1.342-5-1.721-6.348h0l1.913-.576,8.559-2.51h0l8.186-2.319,2.1-.576a7.632,7.632,0,0,0,.379,1.743c.379,1.343.95,3.07,1.522,4.813C168.3,129.028,171.762,141.366,173.675,147.522Z"/><path class="d" d="M143.923,120.938A10.858,10.858,0,1,0,154.4,109.761,10.9,10.9,0,0,0,143.923,120.938Z"/><path class="e" d="M89.654,123.448c-.759,1.726-1.517,3.853-2.275,6.156,0,.384-.189.576-.189.784-.189.192-.189.384-.189.768-1.533,3.853-3.049,8.282-4.566,13.1-1.153,3.661-2.48,7.323-3.617,11.176a68.008,68.008,0,0,1-14.093-13.67c1.9-6.172,4-11.768,5.7-16.581a12.32,12.32,0,0,1,.379-1.343c.774-2.319,1.533-4.237,2.1-6.172h0a9.446,9.446,0,0,1,6.667-5.964,9.03,9.03,0,0,1,10.475,7.515A10.814,10.814,0,0,1,89.654,123.448Z"/><path class="d" d="M91.565,124.023a.71.71,0,0,0-.189.575h0c-.569,1.343-1.138,3.087-1.912,5.389-1.706,5.6-4.376,13.687-6.651,21.2-.774,1.934-1.343,3.853-1.912,5.788-.758-.591-1.327-.975-2.085-1.551a68.008,68.008,0,0,1-14.093-13.67c-.379-.591-.758-1.167-1.153-1.743,2.859-9.242,6.1-18.692,7.235-22.545a.709.709,0,0,0,.19-.576l1.912.768,8.373,2.894h0l8.374,2.894Z"/><path class="d" d="M91.944,119.594a10.811,10.811,0,1,1-11.8-9.834A10.959,10.959,0,0,1,91.944,119.594Z"/><path class="e" d="M116.892,114.766c-7.047,0-12.766-4.429-12.766-11.563v-9.24h25.518v9.24C129.643,110.337,123.935,114.766,116.892,114.766Z"/><path class="f" d="M116.892,46.364c-11.424,0-19.623,12.34-20,27.753a2.8,2.8,0,0,1,.38-1.163c1.343-4.048,7.82-2.307,6.288,1.742-.758,2.5-2.085,4.815-2.085,7.518a20.575,20.575,0,0,0,.38,4.808,3.175,3.175,0,0,1,2.464,3.282v6.745a19.267,19.267,0,0,0,6.289,4.237,9.716,9.716,0,0,0,12.561,0,18.545,18.545,0,0,0,6.478-4.432v-7.9a3.106,3.106,0,0,1,2.478-3.087V79.895c0-.383-.379-1.15,0-.383-1.721-3.47,2.671-6.557,4.944-4.237C137.066,59.283,131.55,46.364,116.892,46.364Z"/><path class="e" d="M137.066,74.313c0,16.18-8.565,27.168-20.174,27.168s-20-10.988-20-27.168c0-16,8.389-28.91,20-28.91C131.55,45.4,137.066,58.308,137.066,74.313Z"/><path class="e" d="M98.8,70.648h-2.67a2.146,2.146,0,0,0-1.9,2.307v8.09c0,1.358.758,2.32,1.9,2.32h1.912Z"/><path class="e" d="M134.979,70.648h2.658a2.146,2.146,0,0,1,1.907,2.307v8.09c0,1.358-.758,2.32-1.907,2.32h-1.9Z"/><path d="M108.312,75.079a1.543,1.543,0,0,0,0-3.087,1.551,1.551,0,1,0,0,3.087Z"/><path d="M126.022,75.274a1.522,1.522,0,0,0,1.535-1.54,1.846,1.846,0,0,0-1.721-1.546,1.642,1.642,0,0,0-1.522,1.546A1.462,1.462,0,0,0,126.022,75.274Z"/><path class="e" d="M105.089,93.2h23.6c-2.857,5.77-7.044,9.24-11.8,9.24S107.933,98.966,105.089,93.2Z"/><path class="f" d="M121.078,83.169a1.483,1.483,0,0,1-1.535,1.345c-.186,0-.379.383-.944.78a2.4,2.4,0,0,1-1.708.773,2.847,2.847,0,0,1-1.721-.773c-.381-.4-.76-.78-.95-.78a1.476,1.476,0,0,1-1.517-1.345v-.188h8.374Z"/><path class="g" d="M116.892,71.226V82.981H112.7a1.653,1.653,0,0,1,.569-.962,5.378,5.378,0,0,0,1.517-3.47l.189-6.557C114.978,70.459,116.513,71.226,116.892,71.226Z"/><path d="M137.445,62.753V80.278h-1.708l-.944-21-5.721.767a100.05,100.05,0,0,1-23.983,0l-5.53-.767-1.138,20.8H96.7V62.753c0-10.41,7.046-18.883,15.815-18.883h9.135C130.4,43.869,137.445,52.343,137.445,62.753Z"/><path d="M131.743,77.588a3.3,3.3,0,0,1-3.05,1.923h-4.379a4.922,4.922,0,0,1-4.186-3.281,13.892,13.892,0,0,1-.771-4.237v-.572h0v-.195c.186-.383.392-.578.584-.962a4.538,4.538,0,0,1,2.844-.975h4.957a6.658,6.658,0,0,1,3.621.975,3.407,3.407,0,0,1,.944,1.54v.188a28.031,28.031,0,0,1-.186,4.048v.383A10.273,10.273,0,0,1,131.743,77.588Zm.758-5.595V71.8a2.644,2.644,0,0,0-.95-1.728c-.565-.786-2.671-.975-3.808-.975h-4.957a4.082,4.082,0,0,0-3.037.975,2.809,2.809,0,0,0-.77,1.534v.383a10.738,10.738,0,0,0,.963,4.432,5.155,5.155,0,0,0,4.373,3.275,16.4,16.4,0,0,0,4.379,0c1.515-.189,2.478-.572,3.05-1.534a5.624,5.624,0,0,0,.758-2.125v-.195A12.845,12.845,0,0,0,132.5,71.993Z"/><path d="M113.842,76.23a4.938,4.938,0,0,1-4.187,3.281h-4.187c-1.722-.195-2.48-.578-3.049-1.54a3.342,3.342,0,0,1-.568-1.93,27.478,27.478,0,0,1-.19-4.048V71.8a1.44,1.44,0,0,1,.379-.767,1.035,1.035,0,0,1,.569-.773c.569-.591,2.48-.975,3.618-.975h4.945a4.175,4.175,0,0,1,2.86.975c.189.383.38.578.569.962v.767A14.294,14.294,0,0,1,113.842,76.23Zm1.136-4.62a1.986,1.986,0,0,0-.758-1.534,4.089,4.089,0,0,0-3.049-.975h-4.945c-1.138,0-3.239.189-3.808.975-.379.383-.568.572-.758.767a1.756,1.756,0,0,0-.189.962v.188a28.841,28.841,0,0,0,0,4.048,4.538,4.538,0,0,0,.758,2.125h0c.569.962,1.516,1.345,3.049,1.534a16.432,16.432,0,0,0,4.376,0,4.95,4.95,0,0,0,4.376-3.275,10.989,10.989,0,0,0,.947-4.432Z"/><path d="M132.308,69.29c-.758-.767-2.286-.767-3.615-.767a54.193,54.193,0,0,0-5.721-.188c-1.708.188-3.031.188-3.615,1.15a3.11,3.11,0,0,0-.758,1.358v-.195h-3.242v.195a9.267,9.267,0,0,0-.568-1.358c-.758-.962-2.086-.962-3.808-1.15a55.807,55.807,0,0,0-5.7.188c-1.343,0-2.86,0-3.618.767a5.143,5.143,0,0,0-1.153,2.515c0,.188,1.343.188,1.343,0a2.935,2.935,0,0,1,.758-1.54c.569-.591,1.9-.78,3.239-.78a24.311,24.311,0,0,1,5.324,0,3.849,3.849,0,0,1,2.86.78,2.907,2.907,0,0,1,.569,1.345h4.757a2.889,2.889,0,0,1,.584-1.345,4.116,4.116,0,0,1,2.844-.78,24.417,24.417,0,0,1,5.336,0c1.329,0,2.658.188,3.242.78a2.385,2.385,0,0,1,.758,1.54c0,.188,1.329,0,1.329,0A5.132,5.132,0,0,0,132.308,69.29Z"/><path class="d" d="M117.078,93.579a29.2,29.2,0,0,1-6.665-.962c-.569,0-.758-.591-.758-1.163.189-.383.758-.767,1.138-.578a26.887,26.887,0,0,0,12.372,0c.584-.189,1.149.195,1.149.578a.853.853,0,0,1-.758,1.163A27.8,27.8,0,0,1,117.078,93.579Z"/><path class="h" d="M178.576,95.226a20.738,20.738,0,0,1-8.544,1.536c-9.121,0-15.985-5.761-15.985-16.37,0-10.129,6.864-16.993,16.9-16.993a17.342,17.342,0,0,1,7.681,1.44l-1.009,3.408a15.2,15.2,0,0,0-6.528-1.345c-7.585,0-12.625,4.849-12.625,13.346,0,7.921,4.561,13.009,12.433,13.009a16.731,16.731,0,0,0,6.817-1.344Z"/><path class="h" d="M184.623,96.281l1.248-9.409h-3.937V84.04H186.3l.912-6.96h-4.128V74.247h4.56l1.248-9.169h2.785l-1.2,9.169h4.992l1.248-9.169h2.832l-1.2,9.169h3.937V77.08H197.92l-.864,6.96h4.128v2.832h-4.56l-1.248,9.409H192.5l1.248-9.409h-4.992L187.5,96.281Zm9.553-12.241.912-6.96h-4.993l-.912,6.96Z"/></g><g class="i"><path class="j" d="M254.971,27.522H381.029a17.984,17.984,0,0,1,17.984,17.984V127.9a17.984,17.984,0,0,1-17.984,17.984H279.907l-18.582,26.64-.16-26.64h-6.193A17.984,17.984,0,0,1,236.987,127.9V45.506A17.984,17.984,0,0,1,254.971,27.522Z"/><polygon points="370.994 130.637 340.719 118.826 347.365 101.008 377.621 112.819 370.994 130.637"/><path d="M388.564,146.65a.276.276,0,0,1-.512.178c-.9-1.584-19.281.693-19.281.693-.554-3.75-3.5-23.264-3.5-23.825h0c-.187-.187,18.264-3.564,18.264-3.564a.686.686,0,0,1,.187.56h0C384.073,123.408,387.492,138.665,388.564,146.65Z"/><polygon points="310.095 130.264 303.449 112.446 333.89 100.634 340.538 118.453 310.095 130.264"/><path class="k" d="M353.824,47.179l-.18,3.194c-2.956-1.126-6.833-1.682-11.824-1.682-9.951,0-20.838,1.119-23.977,12.56-.368,12.756-1.485,43.321.551,45.2-1.1-.187,31.559,15.188,43.364-2.256,3.69-5.058,0-11.813,1.469-18.941C366.917,68,363.98,48.5,353.824,47.179Z"/><path class="l" d="M350.688,86.383l.734,15.558,9.783,4.513c-2.769,1.494-14.941,6.178-21.22,6.178s-18.819-4.311-21.59-5.8l9.784-4.7.919-15.745Z"/><path class="l" d="M355.48,82.443c3.877,0,6.646-3.187,6.279-8.437-.554-4.882-3.871-9.942-7.561-9.942Z"/><path class="l" d="M324.488,82.443c-4.058,0-6.83-3.187-6.278-8.437.551-4.882,3.874-9.942,7.565-9.942Z"/><path class="l" d="M339.984,98.378c3.69,0,4.792-.934,4.978-1.681,10.884-4.123,12.738-17.631,14.027-27l-2.022-12.016c-1.3-6.179-11.071-11.624-16.983-11.624C333.89,46.059,324.3,51.5,323,57.683L320.8,69.7c1.286,9.366,3.123,22.875,14.011,27C335.192,97.444,336.294,98.378,339.984,98.378Z"/><path d="M348.466,71.938A1.461,1.461,0,0,1,347,70.446c.187-.563.734-1.322,1.469-1.322a1.622,1.622,0,0,1,1.487,1.505A1.447,1.447,0,0,1,348.466,71.938Z"/><path d="M331.5,71.938a1.325,1.325,0,0,0,1.286-1.493,1.389,1.389,0,1,0-2.772.183A1.435,1.435,0,0,0,331.5,71.938Z"/><path class="k" d="M364.715,68.188c-.367-8.993-2.769-16.683-7.38-19.687A6.324,6.324,0,0,0,353.824,47s-2.035-5.433-14.02-5.433c-10.522,0-22.329,5.059-22.145,23.811-.184,4.136,6.646,10.5,6.462-.563,1.1-12.187,2.021-17.057,15.864-15.564,1.469.19,3.136-.557,4.792-.557a.667.667,0,0,1,.554-.19c13.473,1.682,8.314,22.5,16.429,26.252,0,0,1.655.753,2.4-2.625C364.347,70.629,364.715,68.188,364.715,68.188Z"/><path class="m" d="M350.875,92.758h0a19.913,19.913,0,0,1-3.877,3c-.187,0-.367.19-.554.373a.655.655,0,0,0-.548.19,3.087,3.087,0,0,0-.933.372c-.187.747-1.288,1.681-4.978,1.681s-4.792-.934-5.175-1.681c-.184-.187-.368-.187-.551-.372-.184,0-.551-.19-.735-.19-.184-.183-.368-.183-.551-.373a18.9,18.9,0,0,1-3.69-2.814c-.184,0-.368-.19-.551-.373v1.309A22.5,22.5,0,0,0,334.809,98c.383.747,1.485,1.7,5.175,1.7s4.792-.949,4.978-1.7a19.952,19.952,0,0,0,6.092-3.937Z"/><path class="n" d="M339.984,90.133a23.135,23.135,0,0,1-5.911-.753c-.551-.183-.919-.557-.735-1.119.184-.373.551-.759.919-.576a23.4,23.4,0,0,0,11.452,0,.715.715,0,0,1,.921.576.91.91,0,0,1-.554,1.119A25.617,25.617,0,0,1,339.984,90.133Z"/><path class="o" d="M339.984,70.256V81.324h-4.241a2.215,2.215,0,0,1,.551-1.138,6.316,6.316,0,0,0,1.655-3.358l.18-4.7A1.937,1.937,0,0,1,339.984,70.256Z"/><path class="m" d="M344.228,81.324a1.319,1.319,0,0,1-1.475,1.3c-.367,0-.548.379-.933.753a3.224,3.224,0,0,1-1.836.746,3.952,3.952,0,0,1-1.854-.746c-.367-.373-.548-.753-.734-.753-1.1,0-1.652-.557-1.652-1.3h8.485Z"/><path class="p" d="M321.9,83.562v-2.8a.372.372,0,1,0-.735,0v2.8C321.165,83.935,321.9,83.935,321.9,83.562Z"/><path d="M320.231,84.511a1.281,1.281,0,0,0,1.3,1.309A1.43,1.43,0,0,0,323,84.511a1.6,1.6,0,0,0-1.47-1.505A1.451,1.451,0,0,0,320.231,84.511Z"/><path class="p" d="M358.622,83.379v-2.8c0-.576-.554-.576-.554,0v2.8A.277.277,0,1,0,358.622,83.379Z"/><path d="M356.967,84.328a1.261,1.261,0,0,0,1.288,1.3,1.424,1.424,0,0,0,1.469-1.3,1.466,1.466,0,0,0-1.469-1.511A1.33,1.33,0,0,0,356.967,84.328Z"/><path class="k" d="M323.554,65s19.019-9.556,21.222-16.31l-7.38-2.631-11.621,3.75-2.22,10.878Z"/><path class="k" d="M357.7,63.129s-16.429-8.247-18.271-14.065l6.279-2.258L355.666,50l2.035,9.379Z"/><path d="M365.268,119.2a9.54,9.54,0,0,0,6.64,11.625,9.337,9.337,0,0,0,11.625-6.754,9.6,9.6,0,0,0-6.827-11.625A9.371,9.371,0,0,0,365.268,119.2Z"/><path d="M340.719,116.009v43.884h-.367a71.007,71.007,0,0,1-9.034-.56c-.934-.187-1.853-.373-2.771-.56a47.726,47.726,0,0,1-7.2-1.7,73.737,73.737,0,0,1-11.255-4.684v-4.5l-.184-.56-.75-16.885-.184-3.19-.184-5.618-.184-1.136v-2.241l4.809-.373h.735l1.286-.187h.551l9.417-.576,2.955-.373,8.483-.56,2.772-.187h1.1Z"/><path d="M372.462,118.265l-.18,3.751-.373,6.178v2.63l-.915,16.511v5.058a65.9,65.9,0,0,1-11.457,4.684,45.167,45.167,0,0,1-4.972,1.323,42.354,42.354,0,0,1-5.165.934,65.624,65.624,0,0,1-8.681.56h-.367V116.009h1.288l1.114.187,9.59.56,3.871.373,9.6.763h2.222Z"/><path d="M315.99,122.763v.56c-.184.56-3.139,20.822-3.506,24.2l-2.389-.187h-.184c-9.417-1.136-15.868,1.56-16.236,1.187.934-6.94,2.944-23.315,3.863-28.389v-.373C299.575,119.946,315.99,122.763,315.99,122.763Z"/><path d="M315.806,118.826a9.365,9.365,0,1,1-18.084,4.871,9.557,9.557,0,0,1,6.646-11.625A9.374,9.374,0,0,1,315.806,118.826Z"/><path class="q" d="M356.6,108.135l-.2.373v.747l-.187,7.874-.367,7.7L354.565,158.4a42.354,42.354,0,0,1-5.165.934,65.624,65.624,0,0,1-8.681.56h-.367a71.007,71.007,0,0,1-9.034-.56c-.934-.187-1.853-.373-2.771-.56l-4.625-31.139.383-2.988,1.1-7.516.368-3.175.551-4.139v-.187l.184-1.121s.735.187,1.853.56a9.153,9.153,0,0,1,1.654.374h.184c1.485.373,3.139.576,4.992.949h.551c.551,0,1.285.187,1.839.187a33.156,33.156,0,0,0,6.092,0h0a44.819,44.819,0,0,0,8.482-1.136A39.981,39.981,0,0,0,356.6,108.135Z"/><path d="M368.4,129.143v.374h-.187v.373l-1.3,4.311-7.38,22.876a45.167,45.167,0,0,1-4.972,1.323,42.354,42.354,0,0,1-5.165.934c.734-9.2,1.655-20.059,2.209-26.252v-.187h0v-.373l.548-9.2.187-1.494v-5.073c0-1.681-.187-3.564-.187-5.431v-1.883a51.7,51.7,0,0,0-.367-6.552c-.18-.575-.18-.949-.367-.949l3.877,1.7v.187l4.425,1.68.747.374,2.943,1.51h.38l2.576,9.368.367,1.136.566,2.054.18.56-.38.187-2.022,1.7-2.956,2.054,3.51,1.51.548.373,1.3.56.187.187A2.155,2.155,0,0,1,368.4,129.143Z"/><polygon class="l" points="335.743 110.392 339.804 134.201 343.675 110.578 343.121 108.508 335.743 110.392"/><path d="M331.318,159.333c-.934-.187-1.853-.373-2.771-.56a47.726,47.726,0,0,1-7.2-1.7l-7.2-22.5-1.3-4.311-.367-.934v-.373a2.231,2.231,0,0,1,.934-2.443h0l1.653-.747.551-.187,3.139-1.322-2.588-2.054-2.021-1.51-.735-.374.367-1.12.184-.747.184-.56.551-1.7,3.323-9.368.551-.187.184-.187,9.417-4.326v.762l.184,6.178v8.637l.184,3.75.184,1.68.551,9.571C329.832,138.885,330.568,149.949,331.318,159.333Z"/><path d="M356.033,74.753a4.521,4.521,0,0,1-1.1,1.5,7.829,7.829,0,0,1-1.288.759,15.621,15.621,0,0,1-4.244.563c-1.3-.19-2.956,0-4.257-.949a7.548,7.548,0,0,1-1.836-3.365,4.812,4.812,0,0,1-.187-3.561,5.3,5.3,0,0,1,3.51-1.512,36,36,0,0,1,4.425-.373,9.756,9.756,0,0,1,3.323,0c.367,0,.554.19.921.19C358.068,68.751,356.78,72.874,356.033,74.753ZM337.028,73.26a6.39,6.39,0,0,1-2.021,3.365c-1.118.949-2.771.759-4.073.949a15.635,15.635,0,0,1-4.242-.563,3.882,3.882,0,0,1-1.653-1.132,3.922,3.922,0,0,1-.735-1.126c-.567-1.3-1.3-3.75-.75-5.243v-.2A2.134,2.134,0,0,1,325.04,68a.662.662,0,0,0,.551-.19,12.034,12.034,0,0,1,3.69,0,30.414,30.414,0,0,1,4.242.373c1.286.19,2.771.373,3.505,1.512C337.763,70.819,337.215,72.128,337.028,73.26ZM358.8,67.625c0-.183,0-.373-.18-.373s-.367,0-.367-.183h-1.288a12.842,12.842,0,0,0-2.589-.19,12.307,12.307,0,0,0-2.589-.183,24.26,24.26,0,0,0-5.159.557c-1.854.19-3.69.563-5.545.753h-2.022c-1.848-.19-3.5-.563-5.357-.753a26,26,0,0,0-5.344-.557,14,14,0,0,0-2.771.183h-1.67a.661.661,0,0,0-.551.19h-1.286c-.368.183-.551.183-.735.557v2.821c0,.183.184.373.367.557h.184c.184.373.368.753.551,1.126a10.779,10.779,0,0,0,.735,2.251,4.325,4.325,0,0,0,1.669,2.631,1.364,1.364,0,0,0,.736.373,12.093,12.093,0,0,0,5.16.936,7.377,7.377,0,0,0,4.441-.936,7.721,7.721,0,0,0,2.757-3.934v-.19c.18-.386.367-.759.566-1.132,0-.373.18-.753,0-1.126h0c-.2-.93.915-1.119,1.655-1.119.548,0,1.649.19,1.469,1.119a2.464,2.464,0,0,0,.18,1.126,11.608,11.608,0,0,0,.566,1.322c.554,1.493,1.288,3.175,2.757,3.934a7.38,7.38,0,0,0,4.443.936,11.3,11.3,0,0,0,4.978-.936.669.669,0,0,0,.548-.183,4.123,4.123,0,0,0,2.035-2.821,10.588,10.588,0,0,1,.741-2.251c.18-.373.18-.753.548-.936V71c.187-.183.367-.373.367-.557a2.8,2.8,0,0,0,.187-1.322C358.989,68.378,358.989,67.815,358.8,67.625Z"/><path class="p" d="M264.665,96.528,254.1,64.174h4.513l5.04,15.938c1.392,4.368,2.592,8.3,3.457,12.1h.1c.912-3.744,2.256-7.825,3.7-12.049l5.472-15.985h4.464L269.273,96.528Z"/><path class="p" d="M284.345,64.605a40.488,40.488,0,0,1,7.632-.672c4.177,0,6.865.72,8.881,2.353A6.783,6.783,0,0,1,303.546,72c0,3.12-2.064,5.856-5.473,7.1v.1c3.072.768,6.673,3.312,6.673,8.112a8.722,8.722,0,0,1-2.736,6.48c-2.256,2.064-5.9,3.024-11.185,3.024a48.936,48.936,0,0,1-6.48-.384Zm4.176,13.249h3.792c4.416,0,7.008-2.3,7.008-5.424,0-3.793-2.88-5.281-7.1-5.281a17.943,17.943,0,0,0-3.7.288Zm0,15.506a22.385,22.385,0,0,0,3.5.191c4.32,0,8.3-1.584,8.3-6.288,0-4.417-3.792-6.24-8.353-6.24h-3.456Z"/></g><g class="r"><path class="s" d="M430.971,27.522H557.029a17.984,17.984,0,0,1,17.984,17.984V127.9a17.984,17.984,0,0,1-17.984,17.984H455.907l-18.582,26.64-.16-26.64h-6.193A17.984,17.984,0,0,1,412.987,127.9V45.506A17.984,17.984,0,0,1,430.971,27.522Z"/><polygon class="t" points="553.436 137.843 517.052 123.951 525.028 102.9 561.412 116.793 553.436 137.843"/><path class="u" d="M553.843,148.886c-.607.407-1.013.611-1.641,1.018-.82-4.7-1.634-8.99-2.24-12.875,0-.2-.207-.407-.207-.611a2.623,2.623,0,0,0-.2-1.221c-.407-2.256-.813-4.513-1.02-6.344a8.892,8.892,0,0,1,1.02-6.124,9.033,9.033,0,0,1,6.528-4.512,12.032,12.032,0,0,1,4.715.407,9.822,9.822,0,0,1,5.715,7.158c.407,1.849.614,4.088,1.02,6.344.207.611.207,1.221.407,1.628.207,1.238.407,2.256.627,3.477A69.2,69.2,0,0,1,553.843,148.886Z"/><path class="t" d="M571.675,145.522c-.614.611-3.593.389-4,1-4.309,4.5-8.317-.909-13.832,2.364-.607.407-1.013.611-1.641,1.018-1.02.611-2.04,1.035-3.054,1.646-.614-6.14-1.441-11.857-1.854-16.148-.407-2.867-.607-4.919-.814-6.141v-.2l2.054-.2,6.328-1.222,2.661-.407,8.989-1.442,2.054-.407h0C568.775,127.021,571.062,140.6,571.675,145.522Z"/><path class="t" d="M546.687,124.358a11.2,11.2,0,1,0,21.66,5.716,11.2,11.2,0,1,0-21.66-5.716Z"/><path class="t" d="M516.645,159.522h-.421c-2.447,0-4.9-.2-7.348-.407-1.035-.2-2.256-.2-3.274-.424a66.244,66.244,0,0,1-21.05-6.531,1.065,1.065,0,0,1-.831-.407c-1.222-.611-2.442-1.238-3.681-1.849l-.611-12.264-.2-3.885-.407-6.53-.2-4.089,8.379-.407,13.5-1.035h0l4.088-.407,2.036-.2,4.088-.2h1.018l1.644-.2,2.447-.2h1.234v39.048Z"/><polygon class="t" points="480.668 137.232 472.492 116.182 509.08 102.476 517.052 123.34 480.668 137.232"/><path class="t" d="M555.063,123.136l-.2,4.5-.207,7.362-.2,3.053-.613,10.84c-.607.407-1.013.611-1.641,1.018-1.02.611-2.04,1.035-3.054,1.646a73.518,73.518,0,0,1-22.087,7.141,18.2,18.2,0,0,0-3.274.424c-2.24.2-4.495.2-6.735.407h-.407V120.473h1.627l.813.2h1.648l1.427.2h1.627l4.295.407,4.088.2h0l15.125,1.238h2.261Z"/><path class="t" d="M487.605,128.65h0v.2c-.408,1.832-.611,3.885-1.018,6.14-.2.611-.2,1.222-.407,1.832-.814,4.495-1.628,9.6-2.46,14.927-1.222-.611-2.442-1.238-3.681-1.849a76.861,76.861,0,0,1-16.353-12.671.71.71,0,0,0-.2-.407c.2-1.425.407-2.663.611-3.885.424-2.867,1.035-5.309,1.238-7.769a.2.2,0,0,0,.2-.2h0l11.043,1.849,2.239.407Z"/><path class="t" d="M487.605,128.65h0v.2c-.2,1.221-.408,3.274-.814,6.14-.611,4.5-1.425,10.619-2.239,17.167a1.065,1.065,0,0,1-.831-.407c-1.222-.611-2.442-1.238-3.681-1.849-6.124-3.477-14.445,5.521-19.365.618.831-5.513,4.454-23.3,4.658-25.35a.2.2,0,0,0,.2-.2h0l11.043,1.849,2.239.407Z"/><path class="t" d="M487.4,123.951a11.2,11.2,0,0,1-21.662,5.716,11.2,11.2,0,0,1,21.662-5.716Z"/><polygon class="t" points="487.402 110.652 496.816 106.988 498.852 111.483 487.402 110.652"/><path class="v" d="M500.9,113.722s12.06,11.043,29.839,0l-27.192-3.274Z"/><path class="w" d="M509.691,107.4l-9.821,3.681c.2,1.629.2,3.257,1.239,4.5.2.407.407.611.407,1.017l14.1,12.671,15.132-15.538Z"/><path class="x" d="M533.81,106.564v.831c-.2,1.832-.813,7.141-1.641,14.1v.407c-.207,2.256-.613,4.919-.82,7.362-1.22,9.821-2.64,20.847-4.288,29.431a18.2,18.2,0,0,0-3.274.424c-2.24.2-4.495.2-6.735.407h-.827c-2.447,0-4.9-.2-7.348-.407-1.035-.2-2.256-.2-3.274-.424-1.645-8.584-3.07-19.609-4.291-29.431-.2-2.663-.611-5.105-.814-7.565h0c-.831-6.938-1.442-12.264-1.646-14.3v-.831h0l2.867,3.885.814,1.035,4.292,5.716.611.814.407.407h16.352l.627-.814,1.02-1.222,2.24-2.866.421-.407,5.308-6.327Z"/><path class="t" d="M523.787,159.114c-2.24.2-4.495.2-6.735.407h-.827c-2.447,0-4.9-.2-7.348-.407.2-10.228,1.628-22.086,1.628-22.086.2-3.07,3.272-6.955,3.272-6.955a14.164,14.164,0,0,1-2.865-4.291c0-.407-.2-.611-.2-1.017a3.248,3.248,0,0,1-.611-1.629,8.669,8.669,0,0,1-.407-1.238v-.2a4.51,4.51,0,0,0,1.018-.814,30.345,30.345,0,0,1,3.882-2.256.7.7,0,0,0,.407-.2h.407c.207-.2.207-.2.414-.2h.2c0-.2.207-.2.407-.2l.221-.2h.207c2.44-.814,1.22-.2.407,0h0a.7.7,0,0,0-.407.2h0l.2.2h0c.207,0,.207,0,.407.2h.407c.407.2.614.424,1.02.627a12.518,12.518,0,0,1,3.274,1.832c.407.2.607.611.813.814h0v.2a9.117,9.117,0,0,1-.407,1.238,17.533,17.533,0,0,1-.813,2.443,12.956,12.956,0,0,1-2.868,4.495s3.067,3.885,3.274,6.955C522.16,137.029,523.58,148.886,523.787,159.114Z"/><path class="w" d="M516.645,118.217c-7.565,0-13.909-4.9-13.909-12.468v-9.8h27.6v9.8C530.336,113.315,524.193,118.217,516.645,118.217Z"/><path class="y" d="M534.424,82.864a59.079,59.079,0,0,0-2.661-19.626c-.82-3.474-1.227-8.583-3.261-11.65-1.648-2.661-4.922-2.661-7.969-2.461C514.184,49.533,505.2,55.882,502.94,62a43.709,43.709,0,0,0-2.239,10.23c-.627,3.068-2.256,6.949-1.646,10.21a3.372,3.372,0,0,1,3.681,3.474V99.829a19.3,19.3,0,0,0,13.909,5.92,20,20,0,0,0,13.891-5.92v-13.5A3.423,3.423,0,0,1,534.424,82.864Z"/><path class="w" d="M538.512,75.095c0,16.966-9.4,28.823-21.867,28.823-12.688,0-21.678-11.857-21.678-28.823,0-17.179,8.99-31.07,21.678-31.07C532.369,44.025,538.512,57.916,538.512,75.095Z"/><path class="w" d="M497.63,71.214h-2.866a2.094,2.094,0,0,0-2.036,2.24V81.83a2.1,2.1,0,0,0,2.036,2.261h2.052Z"/><path class="w" d="M535.644,71.214h2.868a2.109,2.109,0,0,1,2.054,2.24V81.83a2.116,2.116,0,0,1-2.054,2.261h-2.034Z"/><path d="M507.231,75.915a1.847,1.847,0,0,0,1.849-1.854,2.182,2.182,0,0,0-1.849-1.627,1.794,1.794,0,0,0-1.628,1.834A1.759,1.759,0,0,0,507.231,75.915Z"/><path d="M527.261,76.115a1.68,1.68,0,0,0,1.648-1.848,1.764,1.764,0,0,0-1.648-1.627,1.952,1.952,0,0,0-1.627,1.827A1.753,1.753,0,0,0,527.261,76.115Z"/><path d="M538.712,62.61V74.688a.961.961,0,0,1-1.013,1.02h0a.875.875,0,0,1-.814-.813L535.851,59.97c0-.614-.414-2.868-1.02-2.668l-4.9.614a110.818,110.818,0,0,1-26.175,0l-4.7-.614c-.611-.2-1.017,2.054-1.221,2.668l-1.222,14.718a.756.756,0,0,1-.831.813h0a.931.931,0,0,1-1.017-.813V62.61c0-11.023,7.565-20.033,16.963-20.033h10.027C531.149,42.577,538.712,51.588,538.712,62.61Z"/><path d="M534.424,78.776a.2.2,0,0,1-.207.207c-1.22,1.22-3.474,1.627-5.508,1.627-4.308,0-5.942-1.427-7.769-3.881-4.088-6.142,3.461-7.163,7.769-7.163a13.817,13.817,0,0,1,4.695.614,3.62,3.62,0,0,1,2.447,2.054h0c0,.607.2,1.013.2,1.627a2.677,2.677,0,0,1-.2,1.234A5.306,5.306,0,0,1,534.424,78.776Zm-21.866-2.047c-1.645,2.454-3.478,3.881-7.566,3.881-2.052,0-4.495-.407-5.733-1.627a.2.2,0,0,0-.2-.207c-1.221-1.234-1.425-3.474-1.425-4.915a3.508,3.508,0,0,1,3.274-3.888,23.278,23.278,0,0,1,4.088-.407C509.08,69.566,516.852,70.586,512.558,76.729ZM538.3,69.973a.629.629,0,0,0-.407-.2,8.318,8.318,0,0,1-1.42-.207,14.7,14.7,0,0,0-3.275-.407,26.8,26.8,0,0,0-4.088-.2,62.793,62.793,0,0,0-10.03,1.22h-4.495a66.391,66.391,0,0,0-10.226-1.22h-3.256c-1.442.2-3.07.407-4.089.607a6.605,6.605,0,0,1-1.442.207.637.637,0,0,0-.407.2v2.261c0,.407.611.2,1.018.607a2.372,2.372,0,0,1,.424,1.427c.2.827.407,1.648.611,2.661,0,.207.2.407.2.614a3.915,3.915,0,0,0,1.425,2.254h0a.2.2,0,0,1,.2.207c1.018.813,2.867,1.22,5.53,1.22,4.088,0,6.124-.614,7.973-3.075.813-1.013,1.426-2.234,2.033-3.054a2.514,2.514,0,0,1,1.02-1.641v-.207a2.231,2.231,0,0,1,1.241-.407c1.827,0,2.034,2.868,4.088,5.308,1.827,2.461,3.881,3.075,8.176,3.075,2.44,0,4.288-.407,5.308-1.22a.2.2,0,0,0,.2-.207h0a4.189,4.189,0,0,0,1.427-2.054v-.2a15.52,15.52,0,0,0,.834-3.075c.2-.813.407-1.42.407-1.627.407-.2,1.013-.2,1.013-.607h.207V70.586C538.512,70.18,538.3,70.18,538.3,69.973Z"/><path class="z" d="M496.613,71.414a1.575,1.575,0,0,1-1.035-.2,1.533,1.533,0,0,1,1.035-.207,1.209,1.209,0,0,1,.814.207A1.241,1.241,0,0,1,496.613,71.414Z"/><path class="z" d="M537.085,71.414a1.6,1.6,0,0,1-1.034-.2,1.56,1.56,0,0,1,1.034-.207,1.2,1.2,0,0,1,.813.207A1.229,1.229,0,0,1,537.085,71.414Z"/><path class="y" d="M516.852,73.047a2.312,2.312,0,0,0-2.461,2.254c0,2.44-.813,5.922-2.257,5.922a2.042,2.042,0,0,0-2.036,2.047h6.754Z"/><path class="aa" d="M516.852,86.952A3.191,3.191,0,0,1,515,86.325c-.407-.607-1.627-.813-2.863-.813a2.226,2.226,0,0,1-2.036-2.24h6.754Z"/><path class="aa" d="M516.852,86.952a3.144,3.144,0,0,0,1.827-.627c.407-.607,1.634-.813,2.668-.813a2.252,2.252,0,0,0,2.234-2.24h-6.728Z"/><path class="ab" d="M522.767,92.672c.207.61-.2,1.017-.814,1.221l-1.22.2a25.317,25.317,0,0,1-3.881.407,22.483,22.483,0,0,1-3.888-.407l-1.441-.2a.988.988,0,0,1-.611-1.221h0a.9.9,0,0,1,1.222-.815l1.237.2a13.379,13.379,0,0,0,6.942,0l1.234-.2a.9.9,0,0,1,1.22.815Z"/><polygon class="ac" points="501.718 128.853 517.052 118.013 516.018 117.607 508.046 117.403 501.311 125.172 501.718 128.853"/><polygon class="ac" points="531.149 129.056 515.818 118.421 516.852 117.81 524.821 117.607 531.556 125.375 531.149 129.056"/><path class="x" d="M500.7,105.546s9.6,11.246,16.151,11.857v1.018s-10.231,4.309-15.337,9.618c0,0-2.256-13.5-2.663-21.882Z"/><path class="x" d="M532.369,105.546s-10.01,11.246-16.552,11.857v1.018a2.078,2.078,0,0,1,1.034.424c2.64,1.222,10.21,4.9,14.3,9.194,0,0,2.461-13.5,2.661-21.882Z"/><polygon class="w" points="503.347 104.732 502.94 104.732 500.701 105.546 502.94 108.006 504.161 106.157 503.347 104.732"/><path class="w" d="M532.369,105.546l-2.44-.814a17.28,17.28,0,0,1,0,3.274Z"/><path class="p" d="M437.613,65.439h17.425v3.5H441.79V79.7h12.241v3.456H441.79V97.795h-4.176Z"/><path class="p" d="M461.805,97.795l1.248-9.409h-3.936V85.554h4.368l.912-6.961h-4.128V75.761h4.561l1.248-9.169h2.784l-1.2,9.169h4.993l1.248-9.169h2.832l-1.2,9.169h3.937v2.832H475.1l-.864,6.961h4.128v2.832h-4.561l-1.248,9.409h-2.88l1.248-9.409h-4.992l-1.248,9.409Zm9.553-12.241.912-6.961h-4.992l-.912,6.961Z"/></g><path class="ad" d="M474.642,264.9a7.692,7.692,0,0,1-7.8,7.583H162.41a7.684,7.684,0,0,1-7.768-7.583V189.061a7.7,7.7,0,0,1,7.768-7.583H466.845a7.709,7.709,0,0,1,7.8,7.583Z"/><path class="q" d="M477.642,261.9a7.692,7.692,0,0,1-7.8,7.583H165.41a7.684,7.684,0,0,1-7.768-7.583V186.061a7.7,7.7,0,0,1,7.768-7.583H469.845a7.709,7.709,0,0,1,7.8,7.583Z"/><path class="ae" d="M178.642,192.486c0,.661-.313.992-.626.992h-9.441a.932.932,0,0,1-.932-.932v-5.132a.936.936,0,0,1,.936-.936h9.438c.313,0,.626.33.626.991Z"/><path class="ae" d="M178.642,205.493c0,.639-.313.985-.626.985h-9.441a.932.932,0,0,1-.932-.932v-9.083c0-.666.314-.985.941-.985h9.433c.313,0,.626.319.626.985Z"/><path class="ae" d="M192.642,205.493a1.059,1.059,0,0,1-.965.985h-9.409c-.314,0-.626-.346-.626-.985v-9.03c0-.666.312-.985.626-.985h9.409a1.035,1.035,0,0,1,.965.985Z"/><path class="ae" d="M199.642,219.857a.624.624,0,0,1-.622.622h-9.437c-.626,0-.941-.3-.941-.6v-8.8c0-.3.314-.6.941-.6h9.435a.627.627,0,0,1,.625.625Z"/><path class="ae" d="M203.267,210.478h9.753a.622.622,0,0,1,.622.622v8.753a.625.625,0,0,1-.625.625h-9.753a.622.622,0,0,1-.622-.622V211.1A.625.625,0,0,1,203.267,210.478Z"/><path class="ae" d="M227.642,219.878c0,.3-.313.6-.941.6h-9.438a.623.623,0,0,1-.621-.621V211.1a.627.627,0,0,1,.625-.625H226.7c.628,0,.941.3.941.6Z"/><path class="ae" d="M240.642,219.854a.627.627,0,0,1-.625.625h-9.434c-.628,0-.941-.3-.941-.6v-8.8c0-.3.313-.6.941-.6h9.438a.623.623,0,0,1,.621.621Z"/><rect class="ae" x="243.642" y="210.478" width="11" height="10" rx="0.625" ry="0.625"/><path class="ae" d="M268.642,219.878c0,.3-.308.6-.935.6h-9.444a.624.624,0,0,1-.622-.622V211.1a.627.627,0,0,1,.625-.625h9.441c.627,0,.935.3.935.6Z"/><path class="ae" d="M282.642,219.854a.627.627,0,0,1-.625.625h-9.43c-.626,0-.945-.3-.945-.6v-8.8c0-.3.319-.6.945-.6h9.434a.623.623,0,0,1,.621.621Z"/><path class="ae" d="M296.022,220.478h-9.758a.623.623,0,0,1-.621-.621V211.1a.627.627,0,0,1,.625-.625h9.755a.623.623,0,0,1,.621.621v8.758A.623.623,0,0,1,296.022,220.478Z"/><path class="ae" d="M309.642,219.878c0,.3-.339.6-.963.6h-9.416a.623.623,0,0,1-.621-.621V211.1a.627.627,0,0,1,.625-.625h9.412c.625,0,.963.3.963.6Z"/><path class="ae" d="M323.642,219.854a.627.627,0,0,1-.625.625h-9.43c-.626,0-.945-.3-.945-.6v-8.8c0-.3.319-.6.945-.6h9.434a.623.623,0,0,1,.621.621Z"/><path class="ae" d="M206.642,205.517a.962.962,0,0,1-.962.962H196.27c-.313,0-.627-.346-.627-.985v-9.03c0-.666.314-.985.627-.985H205.7c.627,0,.941.319.941.985Z"/><path class="ae" d="M220.642,205.493c0,.639-.312.985-.652.985h-9.416a.932.932,0,0,1-.932-.932v-9.083c0-.666.313-.985.939-.985h9.41c.339,0,.652.319.652.985Z"/><path class="ae" d="M234.642,205.493c0,.639-.324.985-.646.985h-9.709c-.322,0-.645-.346-.645-.985v-9.03c0-.666.322-.985.645-.985H234c.322,0,.646.319.646.985Z"/><path class="ae" d="M247.642,205.517a.962.962,0,0,1-.962.962h-9.412c-.312,0-.626-.346-.626-.985v-9.03c0-.666.314-.985.626-.985H246.7c.626,0,.939.319.939.985Z"/><path class="ae" d="M261.642,205.493c0,.639-.313.985-.628.985h-9.44a.932.932,0,0,1-.932-.932v-9.083c0-.666.313-.985.941-.985h9.432c.314,0,.628.319.628.985Z"/><path class="ae" d="M275.642,205.493c0,.639-.307.985-.625.985h-9.41a1.055,1.055,0,0,1-.964-.985v-9.03a1.031,1.031,0,0,1,.964-.985h9.41c.318,0,.625.319.625.985Z"/><path class="ae" d="M289.642,205.517a.962.962,0,0,1-.962.962h-9.412c-.319,0-.627-.346-.627-.985v-9.03c0-.666.308-.985.627-.985H288.7c.627,0,.945.319.945.985Z"/><path class="ae" d="M302.68,206.478h-9.112a.926.926,0,0,1-.926-.926v-9.089c0-.666.308-.985.934-.985H302.7c.626,0,.945.319.945.985v9.053A.962.962,0,0,1,302.68,206.478Z"/><path class="ae" d="M316.642,205.493c0,.639-.308.985-.626.985h-9.437a.936.936,0,0,1-.936-.936v-9.078c0-.666.319-.985.945-.985h9.429c.318,0,.626.319.626.985Z"/><path class="ae" d="M330.642,205.493a1.038,1.038,0,0,1-.945.985h-9.429c-.308,0-.626-.346-.626-.985v-9.03c0-.666.318-.985.626-.985H329.7a1.015,1.015,0,0,1,.945.985Z"/><path class="ae" d="M337.642,219.878a.669.669,0,0,1-.657.6h-9.719a.627.627,0,0,1-.625-.625V211.1a.627.627,0,0,1,.625-.625h9.719a.67.67,0,0,1,.657.6Z"/><path class="ae" d="M351.642,219.878c0,.3-.318.6-.945.6h-9.434a.623.623,0,0,1-.621-.621V211.1a.623.623,0,0,1,.621-.621H350.7c.627,0,.945.3.945.6Z"/><path class="ae" d="M202.642,233.517a.847.847,0,0,1-.964.961h-9.41c-.314,0-.626-.32-.626-.961v-9.05c0-.347.312-.988.626-.988h9.41a1.021,1.021,0,0,1,.964.988Z"/><path class="ae" d="M216.642,233.517c0,.641-.313.961-.628.961h-9.433a1.01,1.01,0,0,1-.94-.961v-9.05a1.417,1.417,0,0,1,.94-.988h9.433c.314,0,.628.641.628.988Z"/><path class="ae" d="M230.642,233.542a.937.937,0,0,1-.937.937h-9.1a.847.847,0,0,1-.964-.961v-9.05a1.021,1.021,0,0,1,.964-.988h9.1a1.017,1.017,0,0,1,.938.988Z"/><path class="ae" d="M244.642,233.517a1.01,1.01,0,0,1-.94.961H234.27c-.314,0-.628-.32-.628-.961v-9.05c0-.347.313-.988.628-.988H243.7a1.417,1.417,0,0,1,.94.988Z"/><path class="ae" d="M257.642,233.517c0,.641-.314.961-.628.961h-9.44a.932.932,0,0,1-.932-.932v-9.079a1.019,1.019,0,0,1,.941-.988h9.432c.313,0,.628.641.628.988Z"/><path class="ae" d="M271.642,233.542a.936.936,0,0,1-.936.936H261.27c-.313,0-.628-.32-.628-.961v-9.05c0-.347.314-.988.628-.988H270.7a1.014,1.014,0,0,1,.945.988Z"/><path class="ae" d="M285.642,233.517c0,.641-.308.961-.626.961h-9.429a1.011,1.011,0,0,1-.945-.961v-9.05a1.414,1.414,0,0,1,.945-.988h9.429c.318,0,.626.641.626.988Z"/><path class="ae" d="M299.642,233.517c0,.641-.308.961-.627.961h-9.437a.936.936,0,0,1-.936-.936v-9.075a1.023,1.023,0,0,1,.945-.988h9.429c.319,0,.627.641.627.988Z"/><path class="ae" d="M313.642,233.517a1.011,1.011,0,0,1-.945.961h-9.428c-.308,0-.627-.32-.627-.961v-9.05c0-.347.319-.988.627-.988H312.7a1.414,1.414,0,0,1,.945.988Z"/><path class="ae" d="M209.642,246.854a.663.663,0,0,1-.627.625h-9.433c-.628,0-.941-.3-.941-.625v-8.439a.937.937,0,0,1,.937-.937h9.437c.313,0,.627.3.627.9Z"/><path class="ae" d="M223.642,246.854a.674.674,0,0,1-.646.625h-9.709a.673.673,0,0,1-.645-.625v-8.475c0-.6.322-.9.645-.9H223c.322,0,.646.3.646.9Z"/><path class="ae" d="M237.642,246.854c0,.325-.314.625-.941.625H227.27a.664.664,0,0,1-.628-.625v-8.475c0-.6.314-.9.628-.9h9.436a.937.937,0,0,1,.937.937Z"/><path class="ae" d="M251.642,246.854a.663.663,0,0,1-.626.625h-9.433c-.314,0-.941-.3-.941-.625v-8.475a.982.982,0,0,1,.941-.9h9.433c.313,0,.626.3.626.9Z"/><path class="ae" d="M265.642,246.854c0,.325-.339.625-.964.625h-9.41a.662.662,0,0,1-.625-.625v-8.475c0-.6.313-.9.625-.9h9.417a.958.958,0,0,1,.958.958Z"/><path class="ae" d="M278.642,246.854a.659.659,0,0,1-.626.625h-9.429c-.626,0-.945-.3-.945-.625v-8.475c0-.6.319-.9.945-.9h9.429c.318,0,.626.3.626.9Z"/><path class="ae" d="M292.642,246.854c0,.325-.318.625-.942.625h-9.433a.666.666,0,0,1-.625-.625v-8.475c0-.6.318-.9.625-.9h9.439a.936.936,0,0,1,.936.936Z"/><path class="ae" d="M327.642,233.517c0,.641-.319.961-.626.961h-9.448a.926.926,0,0,1-.926-.926v-9.086a1.013,1.013,0,0,1,.934-.988h9.439c.308,0,.626.641.626.988Z"/><path class="ae" d="M341.642,233.542a.937.937,0,0,1-.937.937h-9.426c-.319,0-.637-.32-.637-.961v-9.05c0-.347.318-.988.637-.988h9.428a1.013,1.013,0,0,1,.934.988Z"/><path class="ae" d="M425.642,233.542a.937.937,0,0,1-.937.937h-9.437c-.308,0-.626-.32-.626-.961v-9.05c0-.347.319-.988.626-.988H424.7a1.023,1.023,0,0,1,.945.988Z"/><path class="ae" d="M439.642,233.517c0,.641-.317.961-.645.961h-9.71c-.328,0-.645-.32-.645-.961v-9.05c0-.347.317-.988.645-.988H439c.328,0,.645.641.645.988Z"/><path class="ae" d="M453.642,233.517c0,.641-.308.961-.626.961h-9.437a.936.936,0,0,1-.936-.936v-9.075a1.023,1.023,0,0,1,.945-.988h9.429c.319,0,.626.641.626.988Z"/><path class="ae" d="M320.642,246.854c0,.325-.625.625-.933.625h-9.421a.686.686,0,0,1-.647-.625v-8.475c0-.6.339-.9.647-.9h9.421a.98.98,0,0,1,.933.9Z"/><path class="ae" d="M306.642,246.854a.659.659,0,0,1-.627.625h-9.438c-.627,0-.935-.3-.935-.625v-8.475c0-.6.308-.9.935-.9h9.438c.319,0,.627.3.627.9Z"/><path class="ae" d="M334.642,246.854a.667.667,0,0,1-.626.625h-9.439c-.626,0-.934-.3-.934-.625V238.4a.926.926,0,0,1,.926-.926h9.448c.308,0,.626.3.626.9Z"/><path class="ae" d="M439.642,246.854a.659.659,0,0,1-.627.625h-9.429c-.319,0-.945-.3-.945-.625v-8.475a.983.983,0,0,1,.945-.9h9.429c.319,0,.627.3.627.9Z"/><path class="ae" d="M425.642,246.854c0,.325-.319.625-.945.625h-9.429a.667.667,0,0,1-.626-.625v-8.475c0-.6.319-.9.626-.9h9.437a.936.936,0,0,1,.936.936Z"/><path class="ae" d="M453.642,246.854c0,.325-.308.625-.934.625h-9.439a.667.667,0,0,1-.627-.625v-8.475c0-.6.319-.9.627-.9h9.437a.937.937,0,0,1,.937.937Z"/><path class="ae" d="M365.642,219.854a.627.627,0,0,1-.625.625h-9.4c-.656,0-.974-.3-.974-.6v-8.8c0-.3.318-.6.974-.6h9.405a.623.623,0,0,1,.621.621Z"/><path class="ae" d="M425.642,219.854a.627.627,0,0,1-.625.625h-9.43c-.626,0-.945-.3-.945-.6v-8.8c0-.3.319-.6.945-.6h9.434a.623.623,0,0,1,.621.621Z"/><rect class="ae" x="428.642" y="210.478" width="11" height="10" rx="0.625" ry="0.625"/><path class="ae" d="M453.642,219.878c0,.3-.308.6-.934.6h-9.445a.623.623,0,0,1-.621-.621V211.1a.627.627,0,0,1,.625-.625h9.441c.627,0,.934.3.934.6Z"/><path class="ae" d="M344.642,205.517a.962.962,0,0,1-.962.962h-9.412c-.319,0-.626-.346-.626-.985v-9.03c0-.666.308-.985.626-.985H343.7c.627,0,.945.319.945.985Z"/><path class="ae" d="M425.642,205.517a.962.962,0,0,1-.962.962h-9.412c-.308,0-.626-.346-.626-.985v-9.03c0-.666.319-.985.626-.985H424.7c.626,0,.945.319.945.985Z"/><path class="ae" d="M439.642,205.493c0,.639-.308.985-.627.985H429.6a.962.962,0,0,1-.962-.962v-9.053c0-.666.318-.985.945-.985h9.429c.319,0,.627.319.627.985Z"/><path class="ae" d="M453.642,205.493c0,.639-.328.985-.645.985h-9.711c-.317,0-.645-.346-.645-.985v-9.03c0-.666.328-.985.645-.985H453c.317,0,.645.319.645.985Z"/><path class="ae" d="M381.018,220.478h-9.754a.623.623,0,0,1-.621-.621V211.1a.627.627,0,0,1,.625-.625h9.449a.929.929,0,0,1,.926.926v8.449A.627.627,0,0,1,381.018,220.478Z"/><path class="ae" d="M395.642,219.878c0,.3-.308.6-.935.6h-9.444a.623.623,0,0,1-.621-.621V211.1a.623.623,0,0,1,.621-.621h9.444c.627,0,.935.3.935.6Z"/><path class="ae" d="M408.642,219.854a.627.627,0,0,1-.625.625h-9.43c-.626,0-.945-.3-.945-.6v-8.8c0-.3.319-.6.945-.6h9.43a.627.627,0,0,1,.625.625Z"/><path class="ae" d="M381.642,205.493c0,.639-.318.985-.626.985h-9.448a.926.926,0,0,1-.926-.926v-9.089c0-.666.308-.985.934-.985h9.439c.308,0,.626.319.626.985Z"/><path class="ae" d="M395.642,205.493a1.038,1.038,0,0,1-.935.985h-9.438c-.319,0-.627-.346-.627-.985v-9.03c0-.666.308-.985.627-.985h9.438a1.015,1.015,0,0,1,.935.985Z"/><path class="ae" d="M408.642,205.517a.962.962,0,0,1-.962.962h-9.412c-.308,0-.627-.346-.627-.985v-9.03c0-.666.319-.985.627-.985h9.439c.626,0,.934.319.934.985Z"/><path class="ae" d="M380.716,263.478h-9.453a.623.623,0,0,1-.621-.621V253.44c0-.641.319-.961.627-.961h9.439a1.01,1.01,0,0,1,.934.961v9.113A.929.929,0,0,1,380.716,263.478Z"/><path class="ae" d="M395.642,262.517a1.008,1.008,0,0,1-.935.961h-9.444a.623.623,0,0,1-.621-.621V253.44c0-.641.308-.961.627-.961h9.447a.926.926,0,0,1,.926.926Z"/><path class="ae" d="M408.642,262.542a.939.939,0,0,1-.936.936h-9.119a1.019,1.019,0,0,1-.945-.961v-9.1a.937.937,0,0,1,.937-.937h9.437c.318,0,.626.32.626.961Z"/><path class="ae" d="M395.642,248.578a.982.982,0,0,1-.935.9h-9.438c-.319,0-.627-.3-.627-.9V240.1a.66.66,0,0,1,.627-.626h9.438c.308,0,.935.3.935.626Z"/><path class="ae" d="M466.642,205.517a.962.962,0,0,1-.962.962h-9.411c-.319,0-.627-.346-.627-.985v-9.03c0-.666.308-.985.627-.985h9.438c.627,0,.935.319.935.985Z"/><path class="ae" d="M466.642,260.861c0,.309-.308.617-.935.617h-9.444a.623.623,0,0,1-.621-.621V238.4c0-.617.308-.926.627-.926h9.447a.926.926,0,0,1,.926.926Z"/><path class="ae" d="M466.642,232.542a.937.937,0,0,1-.937.937h-9.436c-.319,0-.627-.308-.627-.923V211.4c0-.616.308-.923.627-.923h9.447a.926.926,0,0,1,.926.926Z"/><path class="ae" d="M193.642,192.486c0,.661-.313.992-.652.992h-9.416a.932.932,0,0,1-.932-.932v-5.132a.936.936,0,0,1,.936-.936h9.413c.339,0,.652.33.652.991Z"/><path class="ae" d="M207.642,192.486c0,.661-.313.992-.626.992h-9.437a.936.936,0,0,1-.936-.936v-5.128a.936.936,0,0,1,.936-.936h9.438c.313,0,.626.33.626.991Z"/><path class="ae" d="M221.642,192.486c0,.661-.313.992-.626.992h-9.437a.936.936,0,0,1-.936-.936v-5.128a.936.936,0,0,1,.936-.936h9.438c.313,0,.626.33.626.991Z"/><path class="ae" d="M236.642,192.486c0,.661-.314.992-.628.992h-9.436a.936.936,0,0,1-.936-.936v-5.128a.936.936,0,0,1,.936-.936h9.437c.313,0,.628.33.628.991Z"/><path class="ae" d="M250.642,192.486c0,.661-.314.992-.628.992h-9.44a.932.932,0,0,1-.932-.932v-5.132a.936.936,0,0,1,.936-.936h9.437c.313,0,.628.33.628.991Z"/><path class="ae" d="M264.642,192.486c0,.661-.308.992-.627.992h-9.437a.936.936,0,0,1-.936-.936v-5.128a.936.936,0,0,1,.936-.936h9.438c.319,0,.627.33.627.991Z"/><path class="ae" d="M279.642,192.486c0,.661-.319.992-.627.992h-9.448a.926.926,0,0,1-.926-.926v-5.139a.936.936,0,0,1,.936-.936h9.438c.308,0,.627.33.627.991Z"/><path class="ae" d="M293.642,192.486c0,.661-.318.992-.625.992H283.61a.968.968,0,0,1-.968-.968v-5.1a.936.936,0,0,1,.936-.936h9.44c.307,0,.625.33.625.991Z"/><path class="ae" d="M307.642,192.486c0,.661-.318.992-.626.992h-9.448a.926.926,0,0,1-.926-.926v-5.138a.936.936,0,0,1,.936-.936h9.438c.308,0,.626.33.626.991Z"/><path class="ae" d="M322.642,192.486c0,.661-.318.992-.626.992h-9.448a.926.926,0,0,1-.926-.926v-5.139a.936.936,0,0,1,.936-.936h9.438c.308,0,.626.33.626.991Z"/><path class="ae" d="M335.706,193.478h-9.138a.926.926,0,0,1-.926-.926v-5.138a.936.936,0,0,1,.936-.936h9.128a.937.937,0,0,1,.937.937v5.127A.936.936,0,0,1,335.706,193.478Z"/><path class="ae" d="M349.706,193.478h-9.138a.926.926,0,0,1-.926-.926v-5.138a.936.936,0,0,1,.936-.936h9.128a.937.937,0,0,1,.937.937v5.127A.936.936,0,0,1,349.706,193.478Z"/><path class="ae" d="M365.642,192.486c0,.661-.318.992-.625.992h-9.4a.867.867,0,0,1-.974-.992V187.47a.866.866,0,0,1,.974-.991h9.4c.307,0,.625.33.625.991Z"/><path class="ae" d="M364.642,205.493a.864.864,0,0,1-.967.985H348.27c-.319,0-.627-.346-.627-.985v-9.03c0-.666.308-.985.627-.985h15.415a.957.957,0,0,1,.957.957Z"/><path class="ae" d="M364.642,233.517c0,.641-.321.961-.664.961h-18.4a.937.937,0,0,1-.937-.937v-9.075a1.026,1.026,0,0,1,.953-.988H363.99a.654.654,0,0,1,.652.652Z"/><path class="ae" d="M188.642,233.517a1.007,1.007,0,0,1-.935.961H169.574a.932.932,0,0,1-.932-.932v-9.08a1.016,1.016,0,0,1,.935-.988h18.13a1.413,1.413,0,0,1,.935.988Z"/><path class="ae" d="M364.642,246.854a.681.681,0,0,1-.638.625H339.562c-.617,0-.92-.3-.92-.625v-8.439a.937.937,0,0,1,.937-.937H364c.3,0,.638.3.638.9Z"/><path class="ae" d="M194.642,246.854c0,.325-.3.625-.915.625H169.556c-.3,0-.914-.3-.914-.625v-8.475a.966.966,0,0,1,.914-.9H193.71a.932.932,0,0,1,.932.932Z"/><path class="ae" d="M185.642,219.878c0,.3-.309.6-.925.6H169.567c-.616,0-.924-.3-.924-.6v-8.8c0-.3.309-.6.924-.6h15.151c.616,0,.925.3.925.6Z"/><path class="ae" d="M178.642,261.81c0,.347-.313.668-.941.668h-9.432a.687.687,0,0,1-.627-.668v-10.37c0-.642.313-.962.627-.962h9.441a.932.932,0,0,1,.932.932Z"/><path class="ae" d="M192.642,261.81c0,.347-.313.668-.941.668h-9.433a.687.687,0,0,1-.626-.668v-10.37c0-.642.313-.962.626-.962h9.441a.932.932,0,0,1,.932.932Z"/><path class="ae" d="M220.642,261.831a.649.649,0,0,1-.647.647h-9.708a.7.7,0,0,1-.644-.668v-10.37c0-.642.323-.962.644-.962h9.685c.349,0,.671.32.671.962Z"/><path class="ae" d="M289.642,261.81a.688.688,0,0,1-.629.668H227.262a.683.683,0,0,1-.619-.668v-10.37c0-.642.309-.962.619-.962h61.752c.314,0,.629.32.629.962Z"/><path class="ae" d="M206.642,261.81c0,.347-.628.668-.941.668H196.27a.688.688,0,0,1-.627-.668v-10.37c0-.642.314-.962.627-.962H205.7a1.011,1.011,0,0,1,.941.962Z"/><path class="ae" d="M334.642,261.81a.691.691,0,0,1-.626.668h-9.439c-.626,0-.934-.321-.934-.668v-10.4a.937.937,0,0,1,.937-.937h9.437c.308,0,.626.32.626.962Z"/><path class="ae" d="M453.642,261.81c0,.347-.308.668-.934.668h-9.439a.691.691,0,0,1-.627-.668v-10.37c0-.642.319-.962.627-.962h9.448a.926.926,0,0,1,.926.926Z"/><path class="ae" d="M438.642,261.81a.675.675,0,0,1-.611.668H416.564c-.611,0-.921-.321-.921-.668v-10.4a.937.937,0,0,1,.937-.937h21.453c.31,0,.611.32.611.962Z"/><path class="ae" d="M356.642,261.81a.674.674,0,0,1-.608.668h-9.74a.654.654,0,0,1-.652-.652V251.441c0-.642.309-.962.639-.962h9.754c.309,0,.608.32.608.962Z"/><path class="ae" d="M320.642,261.81c0,.347-.307.668-.933.668h-9.421a.709.709,0,0,1-.647-.668v-10.37c0-.642.339-.962.647-.962h9.427a.926.926,0,0,1,.926.926Z"/><path class="ae" d="M306.642,261.81c0,.347-.626.668-.945.668h-9.428a.691.691,0,0,1-.627-.668v-10.37c0-.642.319-.962.627-.962H305.7a1.011,1.011,0,0,1,.945.962Z"/><path class="ae" d="M343.642,262.478h-5.978c-.663,0-1.022-.321-1.022-.668v-10.4a.937.937,0,0,1,.937-.937h6.063Z"/><path class="ae" d="M358.642,262.478h6.336a.7.7,0,0,0,.664-.668v-10.37c0-.642-.326-.962-.664-.962h-6.336Z"/><path class="ae" d="M447.642,256.478h-.305a.3.3,0,0,1,.305-.312v.312Z"/></svg>