<svg width="636" height="300" viewBox="0 0 636 300" fill="none" xmlns="http://www.w3.org/2000/svg">
<path d="M465.821 206.77C466.341 207.24 467.021 207.5 467.731 207.5H585.881C586.631 207.5 587.351 207.2 587.881 206.67C588.411 206.14 588.711 205.42 588.711 204.67L589.041 94.7802L545.361 51.2002H467.731C466.981 51.2002 466.261 51.5002 465.721 52.0302C465.191 52.5602 464.891 53.2802 464.891 54.0402V204.65C464.891 205.05 464.971 205.44 465.131 205.81C465.291 206.17 465.531 206.5 465.821 206.77Z" fill="#EAA844"/>
<path d="M594.751 145.22C611.081 152.24 618.141 166.03 620.721 172.77L612.681 175.67C610.571 170.25 604.711 158.8 591.371 153.07L594.751 145.22Z" fill="#505050"/>
<path d="M619.822 182.52C619.292 182.72 618.742 182.81 618.182 182.79C617.622 182.77 617.072 182.64 616.562 182.41C616.052 182.18 615.592 181.85 615.212 181.44C614.832 181.03 614.532 180.55 614.332 180.02L612.602 175.41L620.622 172.47L622.332 177.02C622.532 177.55 622.622 178.1 622.602 178.66C622.582 179.22 622.452 179.77 622.222 180.28C621.992 180.79 621.662 181.25 621.252 181.63C620.832 182.03 620.352 182.33 619.822 182.52Z" fill="#EAA844"/>
<path d="M447.521 155.54L455.101 160.73C455.371 160.92 455.691 161.03 456.021 161.05C456.351 161.07 456.681 161.01 456.981 160.86L477.251 150.91L481.011 158.58L456.581 170.57C456.191 170.76 455.751 170.85 455.311 170.82C454.871 170.79 454.451 170.64 454.091 170.39L442.691 162.58L447.521 155.54Z" fill="#605D5A"/>
<path d="M437.711 154.01C438.351 153.08 439.331 152.43 440.451 152.23C441.561 152.02 442.711 152.26 443.651 152.9L447.711 155.68L442.831 162.69L438.821 159.95C438.361 159.63 437.961 159.23 437.661 158.76C437.351 158.29 437.141 157.76 437.041 157.21C436.941 156.66 436.941 156.09 437.061 155.54C437.171 154.99 437.401 154.47 437.711 154.01Z" fill="#EAA844"/>
<path d="M435.341 162.59L423.941 170.4C423.581 170.65 423.161 170.79 422.721 170.83C422.281 170.86 421.852 170.78 421.452 170.58L397.021 158.59L400.781 150.92L421.051 160.87C421.351 161.02 421.682 161.08 422.012 161.06C422.342 161.04 422.661 160.93 422.931 160.74L430.512 155.55L435.341 162.59Z" fill="#605D5A"/>
<path d="M440.98 155.54C441.1 156.09 441.1 156.65 441 157.21C440.9 157.76 440.69 158.29 440.38 158.76C440.07 159.23 439.68 159.63 439.22 159.95L435.21 162.69L430.33 155.68L434.39 152.9C435.32 152.26 436.47 152.02 437.59 152.23C438.7 152.44 439.69 153.08 440.33 154.01C440.64 154.47 440.87 154.99 440.98 155.54Z" fill="#29A55E"/>
<path d="M472.661 212.74C473.181 213.21 473.861 213.47 474.571 213.47H592.721C593.471 213.47 594.191 213.17 594.721 212.64C595.251 212.11 595.551 211.39 595.551 210.64L595.881 100.75L552.191 57.1802H474.561C473.811 57.1802 473.081 57.4802 472.551 58.0102C472.021 58.5402 471.721 59.2602 471.721 60.0202V210.63C471.721 211.03 471.801 211.42 471.961 211.79C472.121 212.15 472.361 212.48 472.661 212.74Z" fill="#EDC54A"/>
<path d="M527.002 243.11C528.242 243.15 529.422 243.67 530.312 244.55C531.062 245.23 531.522 246.18 531.582 247.19L531.422 251.65C531.392 252.65 530.972 253.59 530.252 254.28C529.532 254.97 528.572 255.35 527.572 255.33L514.172 255.27C513.892 255.29 513.622 255.21 513.402 255.04C513.182 254.88 513.022 254.64 512.962 254.37C512.862 254.11 512.862 253.83 512.962 253.57C513.062 253.31 513.252 253.1 513.492 252.97L520.382 249.51C520.922 249.33 521.412 249.01 521.802 248.58C522.252 247.86 522.472 247.03 522.442 246.19C522.522 243.92 524.032 242.9 527.002 243.11Z" fill="#B2B2B2"/>
<path d="M534.751 180.29C533.691 215.65 532.091 242.7 531.371 248.29C531.141 249.29 530.561 250.17 529.731 250.77C528.901 251.37 527.881 251.65 526.861 251.56C524.061 251.54 522.281 250.47 522.291 247.69C521.021 238.1 517.761 210.2 514.901 180.87C514.771 179.57 514.921 178.26 515.341 177.03C515.761 175.8 516.431 174.66 517.321 173.71C518.211 172.76 519.291 172 520.491 171.49C521.691 170.98 522.991 170.74 524.291 170.77C529.401 170.9 534.901 175.19 534.751 180.29Z" fill="#B2B2B2"/>
<path d="M543.911 243.11C542.671 243.15 541.481 243.65 540.591 244.52C539.841 245.2 539.371 246.14 539.301 247.15L539.431 251.61C539.451 252.61 539.871 253.55 540.581 254.25C541.301 254.94 542.261 255.33 543.251 255.32L556.651 255.35C556.931 255.37 557.201 255.29 557.421 255.13C557.641 254.97 557.801 254.73 557.861 254.46C557.961 254.2 557.961 253.92 557.861 253.66C557.761 253.4 557.571 253.19 557.331 253.06L550.461 249.55C549.921 249.36 549.431 249.04 549.051 248.61C548.611 247.89 548.391 247.06 548.421 246.22C548.391 243.95 546.881 242.92 543.911 243.11Z" fill="#B2B2B2"/>
<path d="M535.941 180.45C537.041 215.81 538.671 242.86 539.391 248.45C539.621 249.45 540.211 250.33 541.041 250.93C541.871 251.53 542.891 251.81 543.911 251.72C546.711 251.69 548.491 250.62 548.471 247.84C549.731 238.25 552.951 210.35 555.781 181.01C555.911 179.71 555.751 178.4 555.331 177.17C554.911 175.94 554.231 174.8 553.351 173.85C552.461 172.9 551.381 172.14 550.181 171.64C548.981 171.14 547.681 170.89 546.381 170.93C541.271 171.05 535.781 175.35 535.941 180.45Z" fill="#B2B2B2"/>
<path d="M480.34 218.72C480.86 219.19 481.54 219.45 482.25 219.45H600.4C601.15 219.45 601.87 219.15 602.4 218.62C602.93 218.09 603.23 217.37 603.23 216.62L603.56 106.73L559.87 63.1602H482.24C481.49 63.1602 480.77 63.4602 480.23 63.9902C479.7 64.5202 479.4 65.2402 479.4 66.0002V216.61C479.4 217.01 479.48 217.4 479.64 217.77C479.81 218.13 480.05 218.46 480.34 218.72Z" fill="#F0DB4F"/>
<path d="M559.691 63.1599V103.8C559.691 104.57 560.001 105.31 560.541 105.86C561.091 106.41 561.831 106.71 562.601 106.71H603.241V106.55L559.761 63.1499H559.691V63.1599Z" fill="#F4F489"/>
<path d="M543.66 121.83C543.68 118.65 542.271 116.06 540.521 116.05C538.771 116.04 537.341 118.61 537.321 121.79C537.301 124.97 538.711 127.56 540.461 127.57C542.211 127.58 543.65 125.01 543.66 121.83Z" fill="#3A312E"/>
<path d="M512.282 121.94C512.302 118.76 510.892 116.17 509.142 116.16C507.392 116.15 505.962 118.72 505.942 121.9C505.922 125.08 507.332 127.67 509.082 127.68C510.832 127.69 512.262 125.12 512.282 121.94Z" fill="#3A312E"/>
<path d="M272.78 206.77C273.3 207.24 273.98 207.5 274.69 207.5H392.84C393.59 207.5 394.31 207.2 394.84 206.67C395.37 206.14 395.67 205.42 395.67 204.67L396 94.7802L352.31 51.2002H274.68C273.93 51.2002 273.21 51.5002 272.67 52.0302C272.14 52.5602 271.84 53.2802 271.84 54.0402V204.65C271.84 205.05 271.92 205.44 272.08 205.81C272.25 206.17 272.48 206.5 272.78 206.77Z" fill="#2B9355"/>
<path d="M254.48 155.54L262.06 160.73C262.33 160.92 262.65 161.03 262.98 161.05C263.31 161.07 263.64 161.01 263.94 160.86L284.21 150.91L287.97 158.58L263.54 170.57C263.15 170.76 262.71 170.85 262.27 170.82C261.83 170.79 261.41 170.64 261.05 170.39L249.65 162.58L254.48 155.54Z" fill="#605D5A"/>
<path d="M244.67 154.01C245.31 153.08 246.29 152.43 247.41 152.23C248.52 152.02 249.67 152.26 250.61 152.9L254.67 155.68L249.79 162.69L245.78 159.95C245.32 159.63 244.92 159.23 244.62 158.76C244.31 158.29 244.1 157.76 244 157.21C243.9 156.66 243.9 156.09 244.02 155.54C244.13 154.99 244.35 154.47 244.67 154.01Z" fill="#29A55E"/>
<path d="M279.61 212.74C280.13 213.21 280.81 213.47 281.52 213.47H399.67C400.42 213.47 401.14 213.17 401.67 212.64C402.2 212.11 402.5 211.39 402.5 210.64L402.83 100.75L359.14 57.1802H281.51C280.76 57.1802 280.04 57.4802 279.5 58.0102C278.97 58.5402 278.67 59.2602 278.67 60.0202V210.63C278.67 211.03 278.75 211.42 278.91 211.79C279.08 212.15 279.32 212.48 279.61 212.74Z" fill="#29A55E"/>
<path d="M333.951 243.11C335.191 243.15 336.371 243.67 337.261 244.55C338.011 245.23 338.471 246.18 338.531 247.19L338.371 251.65C338.341 252.65 337.921 253.59 337.201 254.28C336.481 254.97 335.521 255.35 334.521 255.33L321.121 255.27C320.841 255.29 320.571 255.21 320.351 255.04C320.131 254.88 319.971 254.64 319.911 254.37C319.811 254.11 319.811 253.83 319.911 253.57C320.011 253.31 320.201 253.1 320.441 252.97L327.331 249.51C327.871 249.33 328.361 249.01 328.751 248.58C329.201 247.86 329.421 247.03 329.391 246.19C329.471 243.92 330.991 242.9 333.951 243.11Z" fill="#B2B2B2"/>
<path d="M341.7 180.29C340.64 215.65 339.04 242.7 338.32 248.29C338.09 249.29 337.51 250.17 336.68 250.77C335.85 251.37 334.83 251.65 333.81 251.56C331.01 251.54 329.23 250.47 329.24 247.69C327.97 238.1 324.71 210.2 321.85 180.87C321.72 179.57 321.87 178.26 322.29 177.03C322.71 175.8 323.38 174.66 324.27 173.71C325.16 172.76 326.24 172 327.44 171.49C328.64 170.98 329.94 170.74 331.24 170.77C336.35 170.9 341.85 175.19 341.7 180.29Z" fill="#B2B2B2"/>
<path d="M350.87 243.11C349.63 243.15 348.44 243.65 347.55 244.52C346.8 245.2 346.33 246.14 346.26 247.15L346.39 251.61C346.41 252.61 346.83 253.55 347.54 254.25C348.26 254.94 349.22 255.33 350.21 255.32L363.61 255.35C363.89 255.37 364.16 255.29 364.38 255.13C364.6 254.97 364.76 254.73 364.82 254.46C364.92 254.2 364.92 253.92 364.82 253.66C364.72 253.4 364.53 253.19 364.29 253.06L357.42 249.55C356.88 249.36 356.39 249.04 356.01 248.61C355.57 247.89 355.35 247.06 355.38 246.22C355.35 243.95 353.84 242.92 350.87 243.11Z" fill="#B2B2B2"/>
<path d="M342.9 180.45C344 215.81 345.63 242.86 346.35 248.45C346.58 249.45 347.17 250.33 348 250.93C348.83 251.53 349.85 251.81 350.87 251.72C353.67 251.69 355.45 250.62 355.43 247.84C356.69 238.25 359.91 210.35 362.74 181.01C362.87 179.71 362.71 178.4 362.29 177.17C361.87 175.94 361.19 174.8 360.31 173.85C359.42 172.9 358.34 172.14 357.14 171.64C355.94 171.14 354.64 170.89 353.34 170.93C348.23 171.05 342.74 175.35 342.9 180.45Z" fill="#B2B2B2"/>
<path d="M287.301 218.72C287.821 219.19 288.501 219.45 289.211 219.45H407.361C408.111 219.45 408.831 219.15 409.361 218.62C409.891 218.09 410.191 217.37 410.191 216.62L410.521 106.73L366.831 63.1602H289.201C288.451 63.1602 287.721 63.4602 287.191 63.9902C286.661 64.5202 286.361 65.2402 286.361 66.0002V216.61C286.361 217.01 286.441 217.4 286.601 217.77C286.771 218.13 287.001 218.46 287.301 218.72Z" fill="#40BC77"/>
<path d="M366.641 63.1604V103.8C366.641 104.57 366.951 105.31 367.491 105.86C368.041 106.41 368.781 106.71 369.551 106.71H410.191V106.55L366.711 63.1504H366.641V63.1604Z" fill="#88D5AA"/>
<path d="M350.62 121.83C350.64 118.65 349.23 116.06 347.48 116.05C345.73 116.04 344.3 118.61 344.28 121.79C344.26 124.97 345.67 127.56 347.42 127.57C349.17 127.58 350.6 125.01 350.62 121.83Z" fill="#3A312E"/>
<path d="M319.231 121.94C319.251 118.76 317.841 116.17 316.091 116.16C314.341 116.15 312.911 118.72 312.891 121.9C312.871 125.08 314.281 127.67 316.031 127.68C317.781 127.69 319.211 125.12 319.231 121.94Z" fill="#3A312E"/>
<path d="M345.3 193.38C342.02 195.11 337.93 195.98 333.04 195.98C326.72 195.98 321.67 193.95 317.87 189.88C314.07 185.81 312.17 180.48 312.17 173.87C312.17 166.77 314.31 161.03 318.58 156.65C322.85 152.27 328.27 150.08 334.84 150.09C338.42 149.97 341.98 150.6 345.31 151.92V157.46C342.09 155.67 338.46 154.76 334.78 154.8C329.68 154.8 325.55 156.5 322.38 159.91C319.21 163.32 317.63 167.87 317.62 173.56C317.62 178.97 319.1 183.28 322.06 186.49C323.54 188.09 325.35 189.34 327.36 190.17C329.37 191 331.54 191.39 333.72 191.3C337.78 191.4 341.79 190.38 345.3 188.33V193.38Z" fill="#605D5A"/>
<path d="M384.629 163.28L383.919 166.56H375.839L373.889 175.85H382.589L381.749 179.13H373.229L370.499 191.42H366.599L369.259 179.13H361.519L358.919 191.42H355.049L357.649 179.13H349.539L350.159 175.85H358.369L360.259 166.56H351.679L352.329 163.28H360.909L363.509 150.83H367.409L364.809 163.28H372.609L375.269 150.83H379.079L376.479 163.28H384.629ZM371.999 166.56H364.199L362.159 175.85H370.029L371.999 166.56Z" fill="#605D5A"/>
<path d="M234.72 155.54L227.14 160.73C226.87 160.92 226.55 161.03 226.22 161.05C225.89 161.07 225.56 161.01 225.26 160.86L204.99 150.91L201.23 158.58L225.66 170.57C226.05 170.76 226.49 170.85 226.93 170.82C227.37 170.79 227.79 170.64 228.15 170.39L239.55 162.58L234.72 155.54Z" fill="#605D5A"/>
<path d="M244.521 154.01C243.881 153.08 242.901 152.43 241.781 152.23C240.671 152.02 239.521 152.26 238.581 152.9L234.521 155.68L239.401 162.69L243.411 159.95C243.871 159.63 244.271 159.23 244.571 158.76C244.881 158.29 245.091 157.76 245.191 157.21C245.291 156.66 245.291 156.09 245.171 155.54C245.061 154.99 244.841 154.47 244.521 154.01Z" fill="#A58CE1"/>
<path d="M70.5305 80.0298H185.611V48.2798V43.3198H70.5305C61.8605 43.3198 54.8105 51.5298 54.8105 61.6698C54.8105 71.8098 61.8605 80.0298 70.5305 80.0298Z" fill="#A58CE1"/>
<path d="M123.701 242.69C124.941 242.73 126.121 243.25 127.011 244.13C127.761 244.81 128.221 245.76 128.281 246.77L128.121 251.23C128.091 252.23 127.671 253.17 126.951 253.86C126.231 254.55 125.271 254.93 124.271 254.91L110.871 254.85C110.591 254.87 110.321 254.79 110.101 254.62C109.881 254.46 109.721 254.22 109.661 253.95C109.561 253.69 109.561 253.41 109.661 253.15C109.761 252.89 109.951 252.68 110.191 252.55L117.081 249.09C117.621 248.91 118.111 248.59 118.501 248.16C118.951 247.44 119.171 246.61 119.141 245.77C119.221 243.49 120.731 242.47 123.701 242.69Z" fill="#B2B2B2"/>
<path d="M131.45 179.87C130.39 215.23 128.79 242.28 128.07 247.87C127.84 248.87 127.26 249.75 126.43 250.35C125.6 250.95 124.58 251.23 123.56 251.14C120.76 251.12 118.98 250.05 118.99 247.27C117.72 237.68 114.46 209.78 111.6 180.45C111.47 179.15 111.62 177.84 112.04 176.61C112.46 175.38 113.13 174.24 114.02 173.29C114.91 172.34 115.99 171.58 117.19 171.07C118.39 170.56 119.69 170.32 120.99 170.35C126.1 170.48 131.6 174.77 131.45 179.87Z" fill="#B2B2B2"/>
<path d="M140.622 242.69C139.382 242.73 138.192 243.23 137.302 244.1C136.552 244.78 136.082 245.72 136.012 246.73L136.142 251.19C136.162 252.19 136.582 253.13 137.292 253.83C138.012 254.52 138.972 254.91 139.962 254.9L153.362 254.93C153.642 254.95 153.912 254.87 154.132 254.71C154.352 254.55 154.512 254.31 154.572 254.04C154.672 253.78 154.672 253.5 154.572 253.24C154.472 252.98 154.282 252.77 154.042 252.64L147.172 249.13C146.632 248.94 146.142 248.62 145.762 248.19C145.322 247.47 145.102 246.64 145.132 245.8C145.092 243.53 143.582 242.49 140.622 242.69Z" fill="#B2B2B2"/>
<path d="M132.64 180.02C133.74 215.38 135.37 242.43 136.09 248.02C136.32 249.02 136.9 249.9 137.73 250.5C138.56 251.1 139.58 251.38 140.6 251.29C143.4 251.26 145.18 250.19 145.16 247.41C146.42 237.82 149.64 209.92 152.47 180.58C152.59 179.28 152.44 177.97 152.02 176.74C151.6 175.51 150.93 174.37 150.04 173.42C149.15 172.47 148.07 171.71 146.87 171.21C145.67 170.71 144.37 170.46 143.07 170.5C137.97 170.62 132.48 174.92 132.64 180.02Z" fill="#B2B2B2"/>
<path d="M211.66 110.17H43.1602V171.66H211.66V110.17Z" fill="#E1DCFF"/>
<path d="M211.66 110.17H43.1602V115.8H211.66V110.17Z" fill="#C1B1FA"/>
<path d="M205 174.71H42.73C42.05 174.71 41.43 174.3 41.16 173.67C40.98 173.25 36.75 163.04 36.75 139.48C36.75 115.87 40.01 108.91 40.14 108.63C40.43 108.04 41.02 107.67 41.68 107.67H205.64C206.58 107.67 207.35 108.43 207.35 109.38C207.35 110.33 206.59 111.09 205.64 111.09H50.43C49.63 113.63 47.72 121.58 47.72 139.49C47.72 158.12 50.47 168.21 51.48 171.3H205C205.94 171.3 206.71 172.06 206.71 173.01C206.71 173.94 205.95 174.71 205 174.71Z" fill="#8867C8"/>
<path d="M44.9609 196.67C44.9609 184.34 53.5309 174.36 64.0709 174.36H88.7109L88.4309 218.98H64.0609C53.5209 218.97 44.9609 209 44.9609 196.67Z" fill="#8867C8"/>
<path d="M79.0709 215.68C79.0709 215.68 62.1309 214.36 62.1309 196.48C62.1309 178.6 79.2609 178.03 79.2609 178.03L79.0709 215.68Z" fill="#684DAA"/>
<path d="M77.3809 215.3H207.181V178.5H77.3809V215.3Z" fill="#C7B8FF"/>
<path d="M77.3809 184.62H207.181V178.5H77.3809V184.62Z" fill="#BCA9F5"/>
<path d="M59.5801 196.67C59.5801 209 68.1501 218.98 78.6901 218.98H213.39V212.96H78.6901C70.9701 212.96 64.7601 205.62 64.7601 196.68C64.7601 187.74 70.9701 180.4 78.6901 180.4H213.39V174.38H78.6901C68.1501 174.36 59.5801 184.33 59.5801 196.67Z" fill="#997DD7"/>
<path d="M79.2999 80.0303H49.7799C47.2399 80.0303 45.1699 82.4803 45.1699 85.4903V102.62C45.1699 105.63 47.2399 108.08 49.7799 108.08H79.2999C80.2399 107.99 80.2399 80.0303 79.2999 80.0303Z" fill="#B09BEB"/>
<path d="M201.58 81.6401H58.3203V106.11H201.58V81.6401Z" fill="#C7B8FF"/>
<path d="M201.58 82.9102H58.3203V87.4302H201.58V82.9102Z" fill="#C7B8FF"/>
<path d="M202.74 80.0303H60.8795C58.3395 80.0303 56.2695 82.4803 56.2695 85.4903V102.62C56.2695 105.63 58.3395 108.08 60.8795 108.08H202.73C203.67 108.08 204.42 107.23 204.42 106.1C204.42 104.97 203.67 104.12 202.73 104.12H60.8795C60.1295 104.12 59.5595 103.46 59.5595 102.61V85.4903C59.5595 84.6403 60.1195 83.9803 60.8795 83.9803H202.73C203.67 83.9803 204.42 83.1303 204.42 82.0003C204.43 80.8803 203.68 80.0303 202.74 80.0303Z" fill="#997DD7"/>
<path d="M83.8009 77.0103C83.8009 77.0103 69.7109 76.5503 69.7109 61.8303C69.7109 47.1103 83.6509 46.0303 83.6509 46.0303L83.8009 77.0103Z" fill="#684DAA"/>
<path d="M82.2617 76.6201H189.042V46.3501H82.2617V76.6201Z" fill="#E1DCFF"/>
<path d="M82.2617 52.9201H189.042V47.8901H82.2617V52.9201Z" fill="#B09BEB"/>
<path d="M83.3411 80.0301H194.151V75.0701H83.3411C76.9911 75.0701 72.7311 69.0301 72.7311 61.6701C72.7311 54.3101 76.9911 48.2701 83.3411 48.2701H194.151V43.3101H83.3411C74.6711 43.3101 67.6211 51.5201 67.6211 61.6601C67.6211 71.8001 74.6711 80.0301 83.3411 80.0301Z" fill="#9376D2"/>
<path d="M162.092 94.62C162.112 91.11 160.562 88.26 158.632 88.25C156.702 88.24 155.122 91.07 155.102 94.58C155.082 98.09 156.632 100.94 158.562 100.95C160.492 100.95 162.072 98.12 162.092 94.62Z" fill="#3A312E"/>
<path d="M127.5 94.7401C127.52 91.2301 125.97 88.3801 124.04 88.3701C122.11 88.3601 120.53 91.1901 120.51 94.7001C120.49 98.2101 122.04 101.06 123.97 101.07C125.9 101.08 127.48 98.2501 127.5 94.7401Z" fill="#3A312E"/>
<path d="M50.6303 172.08H52.9803V110.16C52.9803 110.16 52.7703 109.95 50.6303 110.16C42.7303 131.94 50.6303 172.08 50.6303 172.08Z" fill="#684DAA"/>
<path d="M214.4 174.71H52.1304C51.4504 174.71 50.8304 174.3 50.5604 173.67C50.3804 173.25 46.1504 163.04 46.1504 139.48C46.1504 115.87 49.4104 108.91 49.5404 108.63C49.8304 108.04 50.4204 107.67 51.0804 107.67H215.04C215.98 107.67 216.75 108.43 216.75 109.38C216.75 110.33 215.99 111.09 215.04 111.09H52.2704C51.4704 113.63 49.5604 121.58 49.5604 139.49C49.5604 158.12 52.3104 168.21 53.3204 171.3H214.4C215.34 171.3 216.11 172.06 216.11 173.01C216.11 173.94 215.34 174.71 214.4 174.71Z" fill="#AA93E6"/>
<path d="M41.6611 147.53C25.3311 154.55 17.2011 168.6 14.6211 175.33L22.6611 178.23C24.7711 172.81 29.1711 162.01 42.5211 156.28L41.6611 147.53Z" fill="#505050"/>
<path d="M15.5308 185.09C16.0608 185.29 16.6108 185.38 17.1708 185.36C17.7308 185.34 18.2808 185.21 18.7908 184.98C19.3008 184.75 19.7608 184.42 20.1408 184.01C20.5208 183.6 20.8208 183.12 21.0208 182.59L22.7508 177.98L14.7308 175.04L13.0208 179.59C12.8208 180.12 12.7308 180.67 12.7508 181.23C12.7708 181.79 12.9008 182.34 13.1308 182.85C13.3608 183.36 13.6908 183.82 14.1008 184.2C14.5208 184.59 15.0108 184.89 15.5308 185.09Z" fill="#A58CE1"/>
<path d="M166.571 209.24L150.771 202.83L133.691 209.24V189.17H166.571V209.24Z" fill="#E1DCFF"/>
<path d="M511.981 176.36C511.981 180.45 511.041 183.62 509.151 185.89C507.261 188.16 504.741 189.29 501.581 189.29C500.111 189.29 498.911 189.1 497.961 188.71V184.72C498.901 185.34 500.131 185.66 501.631 185.66C505.591 185.66 507.581 182.58 507.581 176.41V154.25H511.981V176.36Z" fill="#605D5A"/>
<path d="M538.362 188.72H534.062V184.87H533.962C532.092 187.82 529.342 189.29 525.712 189.29C523.042 189.29 520.952 188.64 519.442 187.34C517.932 186.04 517.172 184.32 517.172 182.17C517.172 177.57 520.122 174.9 526.032 174.14L534.072 173.11C534.072 168.93 532.232 166.84 528.542 166.84C525.312 166.84 522.392 167.85 519.792 169.87V165.83C522.432 164.29 525.472 163.52 528.912 163.52C535.222 163.52 538.372 166.58 538.372 172.7V188.72H538.362ZM534.072 176.26L527.602 177.08C525.612 177.34 524.112 177.79 523.092 178.44C522.082 179.09 521.572 180.24 521.572 181.89C521.572 183.09 522.042 184.07 522.972 184.83C523.902 185.59 525.152 185.97 526.702 185.97C528.832 185.97 530.592 185.28 531.982 183.91C533.372 182.54 534.062 180.81 534.062 178.71V176.26H534.072Z" fill="#605D5A"/>
<path d="M566.48 164.1L555.79 188.71H551.57L541.4 164.1H546.12L552.93 181.98C553.44 183.29 553.75 184.44 553.87 185.42H553.97C554.14 184.19 554.42 183.07 554.81 182.08L561.94 164.1H566.48Z" fill="#605D5A"/>
<path d="M588.251 188.72H583.951V184.87H583.851C581.981 187.82 579.231 189.29 575.601 189.29C572.931 189.29 570.841 188.64 569.331 187.34C567.821 186.04 567.061 184.32 567.061 182.17C567.061 177.57 570.011 174.9 575.921 174.14L583.961 173.11C583.961 168.93 582.121 166.84 578.431 166.84C575.201 166.84 572.281 167.85 569.681 169.87V165.83C572.321 164.29 575.361 163.52 578.801 163.52C585.101 163.52 588.261 166.58 588.261 172.7V188.72H588.251ZM583.951 176.26L577.481 177.08C575.491 177.34 573.991 177.79 572.971 178.44C571.961 179.09 571.451 180.24 571.451 181.89C571.451 183.09 571.921 184.07 572.851 184.83C573.781 185.59 575.031 185.97 576.581 185.97C578.711 185.97 580.471 185.28 581.861 183.91C583.251 182.54 583.941 180.81 583.941 178.71V176.26H583.951Z" fill="#605D5A"/>
<path d="M77.3202 150.76C74.7202 150.76 72.6402 149.97 71.0802 148.4C69.5202 146.83 68.7402 144.79 68.7402 142.27C68.7402 139.57 69.5402 137.41 71.1302 135.8C72.7202 134.19 74.8902 133.39 77.6302 133.39C80.1602 133.39 82.2002 134.17 83.7402 135.73C85.2802 137.29 86.0602 139.34 86.0602 141.86C86.0602 144.6 85.2702 146.77 83.6802 148.36C82.0902 149.95 79.9802 150.76 77.3202 150.76ZM77.4802 135.18C75.5602 135.18 73.9902 135.82 72.7902 137.09C71.5902 138.36 70.9902 140.04 70.9902 142.11C70.9902 144.18 71.5702 145.85 72.7502 147.11C73.9302 148.37 75.4502 149 77.3302 149C79.3402 149 80.9202 148.4 82.0802 147.2C83.2402 146 83.8202 144.31 83.8202 142.15C83.8202 139.93 83.2602 138.22 82.1302 137.01C81.0002 135.8 79.4502 135.18 77.4802 135.18Z" fill="#605D5A"/>
<path d="M91.0111 148.75H90.9611V150.48H88.8711V132.71H90.9611V140.59H91.0111C92.0411 139 93.5511 138.2 95.5311 138.2C97.2111 138.2 98.5211 138.74 99.4711 139.81C100.421 140.88 100.891 142.32 100.891 144.13C100.891 146.14 100.361 147.75 99.2911 148.95C98.2211 150.15 96.7711 150.76 94.9211 150.76C93.2011 150.76 91.8911 150.09 91.0111 148.75ZM90.9511 143.91V145.59C90.9511 146.58 91.3011 147.42 92.0011 148.12C92.7011 148.81 93.5911 149.16 94.6811 149.16C95.9511 149.16 96.9411 148.71 97.6611 147.82C98.3811 146.93 98.7411 145.69 98.7411 144.11C98.7411 142.77 98.4011 141.73 97.7311 140.97C97.0611 140.21 96.1511 139.83 95.0011 139.83C93.7811 139.83 92.8011 140.22 92.0611 141C91.3311 141.76 90.9511 142.74 90.9511 143.91Z" fill="#605D5A"/>
<path d="M105.811 149.98C105.811 151.95 105.381 153.47 104.511 154.53C103.641 155.59 102.411 156.13 100.801 156.13C100.201 156.13 99.6305 156.01 99.0605 155.75V153.96C99.6905 154.31 100.291 154.49 100.851 154.49C102.761 154.49 103.711 153.09 103.711 150.29V138.48H105.801V149.98H105.811ZM104.791 135.44C104.411 135.44 104.101 135.32 103.831 135.09C103.561 134.86 103.431 134.56 103.431 134.2C103.431 133.84 103.561 133.54 103.831 133.3C104.101 133.06 104.411 132.94 104.791 132.94C105.171 132.94 105.501 133.06 105.771 133.3C106.041 133.54 106.171 133.84 106.171 134.2C106.171 134.54 106.041 134.84 105.771 135.08C105.501 135.31 105.171 135.44 104.791 135.44Z" fill="#605D5A"/>
<path d="M120.041 144.96H110.801C110.831 146.3 111.231 147.33 111.981 148.05C112.731 148.78 113.761 149.14 115.071 149.14C116.541 149.14 117.901 148.69 119.131 147.8V149.6C117.981 150.37 116.461 150.75 114.571 150.75C112.721 150.75 111.271 150.21 110.211 149.12C109.151 148.03 108.631 146.5 108.631 144.52C108.631 142.65 109.211 141.13 110.361 139.96C111.511 138.79 112.951 138.2 114.661 138.2C116.371 138.2 117.701 138.71 118.631 139.72C119.561 140.73 120.041 142.15 120.041 143.95V144.96ZM117.901 143.33C117.891 142.22 117.601 141.36 117.021 140.74C116.441 140.12 115.651 139.81 114.621 139.81C113.631 139.81 112.791 140.13 112.101 140.78C111.411 141.43 110.981 142.28 110.821 143.32H117.901V143.33Z" fill="#605D5A"/>
<path d="M131.599 149.93C130.599 150.48 129.399 150.76 128.019 150.76C126.149 150.76 124.649 150.2 123.499 149.09C122.349 147.98 121.779 146.53 121.779 144.76C121.779 142.78 122.399 141.2 123.629 140C124.869 138.8 126.509 138.2 128.569 138.2C129.719 138.2 130.729 138.4 131.609 138.79V140.76C130.639 140.14 129.599 139.82 128.489 139.82C127.149 139.82 126.059 140.26 125.199 141.14C124.339 142.02 123.919 143.17 123.919 144.6C123.919 146.01 124.319 147.12 125.129 147.93C125.939 148.74 127.009 149.15 128.369 149.15C129.509 149.15 130.579 148.8 131.589 148.11V149.93H131.599Z" fill="#605D5A"/>
<path d="M140.31 150.37C139.82 150.62 139.16 150.75 138.36 150.75C136.07 150.75 134.92 149.58 134.92 147.23V140.13H132.67V138.49H134.92V135.56L137.01 134.94V138.49H140.3V140.13H137.01V146.89C137.01 147.69 137.16 148.27 137.46 148.61C137.76 148.95 138.25 149.13 138.94 149.13C139.47 149.13 139.92 149 140.31 148.73V150.37Z" fill="#605D5A"/>
<path d="M143.661 135.44C143.281 135.44 142.971 135.32 142.701 135.09C142.431 134.86 142.301 134.56 142.301 134.2C142.301 133.84 142.431 133.54 142.701 133.3C142.971 133.06 143.281 132.94 143.661 132.94C144.041 132.94 144.371 133.06 144.641 133.3C144.911 133.54 145.041 133.84 145.041 134.2C145.041 134.54 144.911 134.84 144.641 135.08C144.371 135.31 144.041 135.44 143.661 135.44ZM144.681 150.48H142.591V138.48H144.681V150.48Z" fill="#605D5A"/>
<path d="M158.681 138.48L153.471 150.48H151.411L146.451 138.48H148.751L152.071 147.2C152.321 147.84 152.471 148.4 152.531 148.88H152.581C152.661 148.28 152.801 147.74 152.991 147.25L156.461 138.48H158.681Z" fill="#605D5A"/>
<path d="M170.769 144.96H161.529C161.559 146.3 161.959 147.33 162.709 148.05C163.459 148.78 164.489 149.14 165.799 149.14C167.269 149.14 168.629 148.69 169.859 147.8V149.6C168.709 150.37 167.189 150.75 165.299 150.75C163.449 150.75 161.999 150.21 160.939 149.12C159.879 148.03 159.359 146.5 159.359 144.52C159.359 142.65 159.939 141.13 161.089 139.96C162.239 138.79 163.679 138.2 165.389 138.2C167.099 138.2 168.429 138.71 169.359 139.72C170.289 140.73 170.769 142.15 170.769 143.95V144.96ZM168.619 143.33C168.609 142.22 168.319 141.36 167.739 140.74C167.159 140.12 166.369 139.81 165.339 139.81C164.349 139.81 163.509 140.13 162.819 140.78C162.129 141.43 161.699 142.28 161.539 143.32H168.619V143.33Z" fill="#605D5A"/>
<path d="M180.101 144.55H173.131V143.04H180.101V144.55Z" fill="#605D5A"/>
<path d="M196.1 149.78C194.75 150.44 193.06 150.76 191.04 150.76C188.43 150.76 186.35 149.99 184.78 148.45C183.21 146.91 182.43 144.89 182.43 142.39C182.43 139.7 183.31 137.53 185.07 135.87C186.83 134.21 189.07 133.39 191.78 133.39C193.52 133.39 194.96 133.62 196.1 134.08V136.18C194.79 135.51 193.34 135.17 191.76 135.17C189.66 135.17 187.95 135.81 186.64 137.1C185.33 138.39 184.68 140.11 184.68 142.27C184.68 144.32 185.29 145.95 186.51 147.16C187.73 148.37 189.33 148.98 191.32 148.98C193.16 148.98 194.75 148.6 196.1 147.86V149.78Z" fill="#605D5A"/>
</svg>
