<svg width="636" height="300" viewBox="0 0 636 300" fill="none" xmlns="http://www.w3.org/2000/svg">
<path d="M326.57 109.94C322.19 115.21 313.29 120.63 313.29 120.63C311.55 121.73 311.39 124.65 312.85 126.13C314.24 127.55 316.26 127.61 318 126.6C318 126.6 327.38 120.52 332.58 111.68C338.41 101.76 337.87 97.7099 338.19 96.2899L335.89 95.1099C335.89 95.1099 331.73 103.73 326.57 109.94Z" fill="#53ADE5"/>
<path d="M441.201 100.46C447.031 99.3798 455.091 94.7598 455.091 94.7598C456.691 93.8798 458.861 95.0798 459.231 96.9298C459.591 98.6898 458.681 100.33 457.141 101.25C457.141 101.25 448.391 105.95 439.621 106.05C429.791 106.16 426.391 103.78 425.221 103.38L425.831 101.33C425.841 101.33 434.341 101.73 441.201 100.46Z" fill="#BF8F68"/>
<path d="M426.913 101.918L426.433 103.499L424.405 103.893C423.965 103.987 423.462 104.023 422.919 103.995C422.459 103.986 422.095 103.945 421.806 103.866C421.633 103.804 421.302 103.715 420.792 103.595C420.361 103.462 420.103 103.346 420.005 103.246C419.86 103.069 419.809 102.815 419.851 102.495C419.73 102.401 419.578 102.3 419.389 102.167C419.271 102.063 419.186 101.955 419.138 101.833C419.12 101.533 419.253 101.388 419.526 101.397L422.708 101.329L422.248 100.902C421.9 100.601 421.642 100.342 421.457 100.145C421.314 99.9577 421.284 99.8076 421.367 99.6843C421.464 99.553 421.622 99.5351 421.836 99.6072C422.475 99.7899 423.018 100.005 423.481 100.235C423.798 100.386 424.216 100.572 424.736 100.793L426.913 101.918Z" fill="#E0BB95"/>
<path d="M104.691 206.92C106.731 202.94 108.291 202.07 109.391 201.43C109.401 201.43 109.411 201.42 109.421 201.41C109.841 201.18 110.191 201.7 109.851 202.04L108.531 203.34L112.131 201.47C112.521 201.27 112.931 201.57 112.831 201.99C112.601 202.92 111.531 204.77 110.091 205.92C108.601 207.11 105.231 208.3 105.231 208.3L104.691 206.92Z" fill="#E0BB95"/>
<path d="M92.2002 221.87C100.06 217.96 107.49 209.01 107.49 209.01L104.7 205.44C104.7 205.44 97.4402 211.04 92.3302 213.91C88.5202 216.06 88.9202 223.5 92.2002 221.87Z" fill="#C7E0F4"/>
<path d="M76.6809 205.62C79.8309 213.35 85.5709 219.19 87.0909 221.06C88.6109 222.93 91.2009 222.55 92.6509 221.57C94.1009 220.59 94.8609 218.71 92.3309 213.9C89.8009 209.09 87.0409 202.46 85.3809 199.8C83.7309 197.15 74.0009 199.04 76.6809 205.62Z" fill="#C7E0F4"/>
<path d="M534.561 65.12V76.33C534.561 77.65 533.481 78.73 532.161 78.73H505.961C504.641 78.73 503.561 77.65 503.561 76.33V65.13C503.561 63.81 504.641 62.73 505.961 62.73H532.261C533.461 62.83 534.561 63.83 534.561 65.12Z" fill="#737373"/>
<path d="M571.241 66.7397H470.881C467.941 66.7397 465.561 69.1197 465.561 72.0597V170.42C465.561 173.36 467.941 175.74 470.881 175.74H571.241C574.181 175.74 576.561 173.36 576.561 170.42V72.0498C576.561 69.1198 574.181 66.7397 571.241 66.7397Z" fill="#939393"/>
<path d="M510.561 49.7397V64.7397H514.561V49.7397H510.561Z" fill="#737373"/>
<path d="M524.561 49.7397V64.7397H528.561V49.7397H524.561Z" fill="#737373"/>
<path d="M54.9605 287.74C85.5605 287.74 213.461 287.74 213.461 287.74C214.961 287.74 216.361 286.34 216.361 284.74C216.361 283.04 215.061 281.74 213.461 281.74C163.061 281.74 54.9605 281.74 54.9605 281.74C53.3605 281.74 52.0605 283.04 52.0605 284.74C52.0605 286.34 53.2605 287.74 54.9605 287.74Z" fill="#C8C8C8"/>
<path d="M241.961 287.74C272.561 287.74 580.461 287.74 580.461 287.74C581.961 287.74 583.361 286.34 583.361 284.74C583.361 283.04 582.061 281.74 580.461 281.74C530.061 281.74 241.961 281.74 241.961 281.74C240.361 281.74 239.061 283.04 239.061 284.74C239.061 286.34 240.261 287.74 241.961 287.74Z" fill="#C8C8C8"/>
<path d="M395.561 185.35V174.14C395.561 172.82 396.641 171.74 397.961 171.74H424.161C425.481 171.74 426.561 172.82 426.561 174.14V185.34C426.561 186.66 425.481 187.74 424.161 187.74H397.951C396.661 187.64 395.561 186.64 395.561 185.35Z" fill="#0078D7"/>
<path d="M410.36 146.81L404.18 133.36L401 134.82L407.18 148.27L410.36 146.81Z" fill="#F49D47"/>
<path d="M397.561 152.61L391.381 139.16L388.201 140.62L394.381 154.07L397.561 152.61Z" fill="#F49D47"/>
<path d="M382.26 143.24L377.56 133.04C377.06 131.84 377.56 130.44 378.76 129.94L402.66 118.94C403.86 118.44 405.26 118.94 405.76 120.14L410.46 130.34C410.96 131.54 410.46 132.94 409.26 133.44L385.36 144.44C384.16 144.94 382.76 144.44 382.26 143.24Z" fill="#F49D47"/>
<path d="M393 12.5598L304.05 53.4398C301.29 54.7098 300.08 57.9698 301.35 60.7298L342.9 151.14C344.17 153.9 347.43 155.11 350.19 153.84L439.14 112.96C441.9 111.69 443.11 108.43 441.84 105.67L400.3 15.2598C399.03 12.4998 395.76 11.2898 393 12.5598Z" fill="#FFB900"/>
<path d="M228.561 221.74H213.561V225.74H228.561V221.74Z" fill="#6E62B2"/>
<path d="M228.561 235.74H213.561V239.74H228.561V235.74Z" fill="#6E62B2"/>
<path d="M213.081 245.74H201.961C200.641 245.74 199.561 244.66 199.561 243.34V217.14C199.561 215.82 200.641 214.74 201.961 214.74H213.161C214.481 214.74 215.561 215.82 215.561 217.14V243.35C215.461 244.64 214.371 245.74 213.081 245.74Z" fill="#6E62B2"/>
<path d="M255.081 245.74H243.961C242.641 245.74 241.561 244.66 241.561 243.34V217.14C241.561 215.82 242.641 214.74 243.961 214.74H255.161C256.481 214.74 257.561 215.82 257.561 217.14V243.35C257.461 244.64 256.371 245.74 255.081 245.74Z" fill="#737373"/>
<path d="M204.061 175.74H104.061C101.021 175.74 98.5605 178.2 98.5605 181.24V279.24C98.5605 282.28 101.021 284.74 104.061 284.74H204.061C207.101 284.74 209.561 282.28 209.561 279.24V181.24C209.561 178.2 207.101 175.74 204.061 175.74Z" fill="#9080CF"/>
<path d="M461.361 175.74H360.801C357.761 175.74 355.301 178.2 355.301 181.24V279.54C355.301 282.41 357.631 284.74 360.501 284.74H461.361C464.231 284.74 466.561 282.41 466.561 279.54V180.94C466.561 178.06 464.231 175.74 461.361 175.74Z" fill="#4393D4"/>
<path d="M349.811 175.94H249.811C246.771 175.94 244.311 178.4 244.311 181.44V279.44C244.311 282.48 246.771 284.94 249.811 284.94H349.811C352.851 284.94 355.311 282.48 355.311 279.44V181.44C355.311 178.41 352.851 175.94 349.811 175.94Z" fill="#939393"/>
<path d="M571.061 175.74H471.061C468.021 175.74 465.561 178.2 465.561 181.24V279.24C465.561 282.28 468.021 284.74 471.061 284.74H570.561C573.871 284.74 576.561 282.05 576.561 278.74V181.24C576.561 178.2 574.101 175.74 571.061 175.74Z" fill="#EC6401"/>
<path d="M396.71 289.74L361.23 167.94L363.73 166.34H365.52L401.29 289.74H396.71Z" fill="#ADADAD"/>
<path d="M395.061 289.74L359.561 167.54L363.761 166.34L399.661 289.74H395.061Z" fill="#787878"/>
<path d="M400.551 286.74L401.481 289.74H394.961L394.131 286.74H400.551Z" fill="#939393"/>
<path d="M349.891 184.74H366.491C368.691 184.54 368.191 181.84 366.491 181.74H349.891V184.74Z" fill="#ADADAD"/>
<path d="M367.961 183.74C367.861 184.24 367.461 184.74 366.561 184.74C364.561 184.74 350.561 184.74 350.561 184.74V183.74H367.961Z" fill="#505050"/>
<path d="M359.24 214.74H374.42C376.62 214.54 376.12 211.84 374.42 211.74H359.24V214.74Z" fill="#ADADAD"/>
<path d="M375.961 213.74C375.861 214.24 375.461 214.74 374.561 214.74C372.561 214.74 358.561 214.74 358.561 214.74V213.74H375.961Z" fill="#505050"/>
<path d="M353.891 199.74H370.491C372.691 199.54 372.191 196.84 370.491 196.74H353.891V199.74Z" fill="#ADADAD"/>
<path d="M371.961 198.74C371.861 199.24 371.461 199.74 370.561 199.74C368.561 199.74 354.561 199.74 354.561 199.74V198.74H371.961Z" fill="#505050"/>
<path d="M362.891 229.74H379.491C381.691 229.54 381.191 226.84 379.491 226.74H362.891V229.74Z" fill="#ADADAD"/>
<path d="M380.961 228.74C380.861 229.24 380.461 229.74 379.561 229.74C377.561 229.74 363.561 229.74 363.561 229.74V228.74H380.961Z" fill="#505050"/>
<path d="M367.891 245.74H384.491C386.691 245.54 386.191 242.84 384.491 242.74H367.891V245.74Z" fill="#ADADAD"/>
<path d="M385.961 244.74C385.861 245.24 385.461 245.74 384.561 245.74C382.561 245.74 368.561 245.74 368.561 245.74V244.74H385.961Z" fill="#505050"/>
<path d="M375.891 275.74H392.491C394.691 275.54 394.191 272.84 392.491 272.74H375.891V275.74Z" fill="#ADADAD"/>
<path d="M393.961 274.74C393.861 275.24 393.461 275.74 392.561 275.74C390.561 275.74 376.561 275.74 376.561 275.74V274.74H393.961Z" fill="#505050"/>
<path d="M371.891 260.74H388.491C390.691 260.54 390.191 257.84 388.491 257.74H371.891V260.74Z" fill="#ADADAD"/>
<path d="M389.961 259.74C389.861 260.24 389.461 260.74 388.561 260.74C386.561 260.74 372.561 260.74 372.561 260.74V259.74H389.961Z" fill="#505050"/>
<path d="M381.511 289.74L346.131 167.94L348.341 166.34H350.231L386.091 289.74H381.511Z" fill="#ADADAD"/>
<path d="M379.861 289.74L344.361 167.54L348.561 166.34L384.461 289.74H379.861Z" fill="#787878"/>
<path d="M385.25 286.74L386.18 289.74H379.66L378.83 286.74H385.25Z" fill="#939393"/>
<path d="M537.581 105.65L535.391 99.3398C535.011 98.2598 533.991 97.5298 532.841 97.5298H512.381C511.231 97.5298 510.211 98.2598 509.831 99.3398L507.641 105.65C507.261 106.73 506.241 107.46 505.091 107.46H497.881C496.391 107.46 495.191 108.67 495.191 110.15V138.93C495.191 140.42 496.401 141.62 497.881 141.62H547.531C549.021 141.62 550.221 140.41 550.221 138.93V110.15C550.221 108.66 549.011 107.46 547.531 107.46H540.101C538.981 107.47 537.961 106.74 537.581 105.65Z" fill="#C5C5C5"/>
<path d="M495.211 112.68V138.93C495.211 140.42 496.421 141.62 497.901 141.62H547.551C549.041 141.62 550.241 140.41 550.241 138.93V112.68H495.211Z" fill="#737373"/>
<path d="M522.62 136.01C529.739 136.01 535.51 130.239 535.51 123.12C535.51 116.001 529.739 110.23 522.62 110.23C515.502 110.23 509.73 116.001 509.73 123.12C509.73 130.239 515.502 136.01 522.62 136.01Z" fill="white"/>
<path d="M522.622 131.48C527.239 131.48 530.982 127.737 530.982 123.12C530.982 118.503 527.239 114.76 522.622 114.76C518.005 114.76 514.262 118.503 514.262 123.12C514.262 127.737 518.005 131.48 522.622 131.48Z" fill="#8AC3EA"/>
<path d="M164.12 205.439H161.84V204.109C161.84 203.329 161.21 202.689 160.42 202.689H155.38V192.439H153.38V202.689H148.34C147.56 202.689 146.92 203.319 146.92 204.109V205.439H144.88C137.45 205.439 131.42 211.469 131.42 218.899V248.979C131.42 256.409 137.45 262.439 144.88 262.439H164.11C171.54 262.439 177.57 256.409 177.57 248.979V218.899C177.58 211.459 171.55 205.439 164.12 205.439Z" fill="#B3AAE8"/>
<path d="M177.58 218.81C177.53 211.42 171.53 205.43 164.12 205.43H161.84V204.1C161.84 203.32 161.21 202.68 160.42 202.68H155.38V192.43H153.38V202.68H148.34C147.56 202.68 146.92 203.31 146.92 204.1V205.43H144.88C137.47 205.43 131.47 211.41 131.42 218.81H177.58Z" fill="#6E62B2"/>
<path d="M152.62 216.19H143.06C142.39 216.19 141.84 215.64 141.84 214.97V211.75C141.84 211.08 142.39 210.53 143.06 210.53H152.62C153.29 210.53 153.84 211.08 153.84 211.75V214.97C153.84 215.64 153.3 216.19 152.62 216.19Z" fill="#B3AAE8"/>
<path d="M166.62 216.19H157.06C156.39 216.19 155.84 215.64 155.84 214.97V211.75C155.84 211.08 156.39 210.53 157.06 210.53H166.62C167.29 210.53 167.84 211.08 167.84 211.75V214.97C167.84 215.64 167.3 216.19 166.62 216.19Z" fill="#B3AAE8"/>
<path d="M164.231 225.72C157.811 219.92 148.701 221.69 144.541 225.46" stroke="white" stroke-width="1.6455" stroke-miterlimit="10" stroke-linecap="round" stroke-linejoin="round"/>
<path d="M154.55 240.42C154.55 240.42 154.38 243.04 152.5 245.56C150.48 248.27 146.28 248.44 143.45 246.59C140.25 244.49 139.42 238.87 141.24 234.09C142.74 230.15 148.23 225.45 154.15 225.45C160.06 225.45 165.58 229.37 167.57 235.99C169.78 243.34 167.31 251.16 161.01 256.37" stroke="white" stroke-width="1.6455" stroke-miterlimit="10" stroke-linecap="round" stroke-linejoin="round"/>
<path d="M143.449 250.86C150.549 253.38 158.049 247.62 158.109 241.35C158.169 235.08 151.899 235.9 151.259 239.81C150.439 244.9 144.939 245.67 144.119 240.12C143.459 235.7 146.789 229.01 153.789 229.01C160.529 229.01 164.999 233.38 164.999 241.81C164.999 249.83 157.549 256.38 153.299 257.12" stroke="white" stroke-width="1.6455" stroke-miterlimit="10" stroke-linecap="round" stroke-linejoin="round"/>
<path d="M147.83 239.55C148.06 235.43 150.36 232.75 154.39 232.75C158.12 232.75 161.61 235.28 161.61 240.89C161.61 247.47 156.56 253.81 150.42 254.5C147.1 254.87 145 254.57 145 254.57" stroke="white" stroke-width="1.6455" stroke-miterlimit="10" stroke-linecap="round" stroke-linejoin="round"/>
<path d="M375.641 79.9799C374.011 84.5799 376.411 89.7199 378.241 92.6799C379.081 94.0499 378.551 95.8298 377.101 96.5198L370.831 99.4999L369.641 82.1799C369.641 82.1899 378.121 72.9999 375.641 79.9799Z" fill="#505050"/>
<path d="M370.92 110.43C371.72 110.05 372.21 109.22 372.16 108.33L370.3 78.0197C370.08 74.4397 366.31 72.2197 363.07 73.7597C361.21 74.6497 360.07 76.5797 360.19 78.6397L362.19 111.27C362.28 112.81 363.9 113.76 365.3 113.1L370.92 110.43Z" fill="white"/>
<path d="M391.83 62.1796C391.17 60.7996 390.15 59.7096 388.93 58.9696C388.5 58.7096 387.93 58.8796 387.71 59.3296C387.5 59.7396 387.65 60.2296 388.04 60.4696C388.97 61.0396 389.76 61.8696 390.26 62.9296C390.89 64.2596 390.97 65.7096 390.6 67.0296C390.47 67.4696 390.71 67.9296 391.14 68.0896C391.61 68.2596 392.14 67.9896 392.28 67.5096C392.76 65.7896 392.65 63.9096 391.83 62.1796Z" fill="white"/>
<path d="M396.17 60.1196C395.04 57.7396 393.23 55.8896 391.1 54.6796C390.67 54.4396 390.13 54.5896 389.9 55.0196L389.88 55.0596C389.68 55.4596 389.81 55.9596 390.2 56.1696C392.05 57.2096 393.61 58.8096 394.59 60.8696C395.8 63.4096 395.9 66.1796 395.11 68.6696C394.97 69.0996 395.21 69.5596 395.64 69.7096L395.68 69.7196C396.14 69.8896 396.64 69.6196 396.79 69.1496C397.7 66.2696 397.57 63.0496 396.17 60.1196Z" fill="white"/>
<path d="M351.7 69.9096C346.52 72.3796 344.35 78.6196 346.92 83.7796C349.44 88.8396 355.73 90.7496 360.84 88.3196L382.6 77.9596C384.01 77.2896 384.88 75.8296 384.79 74.2696L383.95 58.8596C383.84 56.8596 381.74 55.6096 379.93 56.4696L351.7 69.9096Z" fill="white"/>
<path d="M348.551 86.1095C351.591 89.3595 356.611 90.3295 360.841 88.3195L382.601 77.9595C384.011 77.2895 384.881 75.8295 384.791 74.2695L384.501 68.9995L348.551 86.1095Z" fill="#C5C5C5"/>
<path d="M379.919 56.4696L375.689 58.4896C376.209 59.2796 376.679 60.1096 377.099 60.9896C380.289 67.6896 379.629 75.2196 376.009 81.0996L382.599 77.9596C384.009 77.2896 384.879 75.8296 384.789 74.2696L383.949 58.8596C383.839 56.8596 381.729 55.6096 379.919 56.4696Z" fill="#505050"/>
<path d="M281.141 235.51H278.141V224.84C278.141 211.77 288.771 201.14 301.841 201.14H304.441C317.511 201.14 328.141 211.77 328.141 224.84V235.1H325.141V224.84C325.141 213.43 315.851 204.14 304.441 204.14H301.841C290.431 204.14 281.141 213.43 281.141 224.84V235.51Z" fill="#D2D2D2"/>
<path d="M281.862 218.99L279.342 218.25C278.402 217.97 277.882 216.95 278.222 216.03C281.862 206.29 291.322 199.63 301.842 199.63H304.442C314.952 199.63 324.422 206.29 328.062 216.02C328.402 216.94 327.892 217.96 326.942 218.24L324.422 218.98C323.582 219.23 322.692 218.78 322.372 217.96C319.562 210.63 312.392 205.63 304.442 205.63H301.842C293.892 205.63 286.722 210.63 283.912 217.96C283.602 218.79 282.712 219.23 281.862 218.99Z" fill="#737373"/>
<path d="M277.291 249.43H274.451C273.261 249.43 272.291 248.46 272.291 247.27V238.01C272.291 236.82 273.261 235.85 274.451 235.85H277.291C278.481 235.85 279.451 236.82 279.451 238.01V247.27C279.451 248.46 278.481 249.43 277.291 249.43Z" fill="#505050"/>
<path d="M283.031 231.93H278.091C275.991 231.93 274.281 233.63 274.281 235.74V250.96C274.281 253.06 275.981 254.77 278.091 254.77H283.031V231.93Z" fill="#505050"/>
<path d="M287.251 256.43H283.911C283.201 256.43 282.621 255.85 282.621 255.14V231.13C282.621 230.42 283.201 229.84 283.911 229.84H287.251C287.961 229.84 288.541 230.42 288.541 231.13V255.14C288.531 255.85 287.961 256.43 287.251 256.43Z" fill="#D2D2D2"/>
<path d="M329.111 249.43H331.951C333.141 249.43 334.111 248.46 334.111 247.27V238.01C334.111 236.82 333.141 235.85 331.951 235.85H329.111C327.921 235.85 326.951 236.82 326.951 238.01V247.27C326.951 248.46 327.921 249.43 329.111 249.43Z" fill="#505050"/>
<path d="M323.371 231.93H328.311C330.411 231.93 332.121 233.63 332.121 235.74V250.96C332.121 253.06 330.421 254.77 328.311 254.77H323.371V231.93Z" fill="#505050"/>
<path d="M319.161 256.43H322.501C323.211 256.43 323.791 255.85 323.791 255.14V231.13C323.791 230.42 323.211 229.84 322.501 229.84H319.161C318.451 229.84 317.871 230.42 317.871 231.13V255.14C317.871 255.85 318.441 256.43 319.161 256.43Z" fill="#D2D2D2"/>
<path d="M533.42 262.8H508.7C505.18 262.8 502.33 259.95 502.33 256.43V205.49C502.33 201.97 505.18 199.12 508.7 199.12H533.42C536.94 199.12 539.79 201.97 539.79 205.49V256.43C539.79 259.95 536.94 262.8 533.42 262.8Z" fill="#F7883C"/>
<path d="M521.401 256.1C529.238 256.1 535.591 249.747 535.591 241.91C535.591 234.073 529.238 227.72 521.401 227.72C513.564 227.72 507.211 234.073 507.211 241.91C507.211 249.747 513.564 256.1 521.401 256.1Z" fill="#EC6401"/>
<path d="M521.401 253.089C527.575 253.089 532.581 248.084 532.581 241.91C532.581 235.735 527.575 230.729 521.401 230.729C515.226 230.729 510.221 235.735 510.221 241.91C510.221 248.084 515.226 253.089 521.401 253.089Z" fill="#D85700"/>
<path d="M521.401 246.35C523.853 246.35 525.841 244.362 525.841 241.91C525.841 239.458 523.853 237.47 521.401 237.47C518.949 237.47 516.961 239.458 516.961 241.91C516.961 244.362 518.949 246.35 521.401 246.35Z" fill="#B24800"/>
<path d="M521.401 222.9C526.465 222.9 530.57 218.794 530.57 213.73C530.57 208.665 526.465 204.56 521.401 204.56C516.336 204.56 512.23 208.665 512.23 213.73C512.23 218.794 516.336 222.9 521.401 222.9Z" fill="#EC6401"/>
<path d="M521.401 220.17C524.958 220.17 527.841 217.286 527.841 213.73C527.841 210.173 524.958 207.29 521.401 207.29C517.844 207.29 514.961 210.173 514.961 213.73C514.961 217.286 517.844 220.17 521.401 220.17Z" fill="#D85700"/>
<path d="M77.9013 282.11C77.8213 283.03 80.7113 283.67 80.7113 283.67C81.5413 283.77 81.5613 284.77 80.5013 284.77H76.7813C76.2913 284.77 75.8713 284.41 75.8413 283.97L75.6113 282.12L77.9013 282.11Z" fill="url(#paint0_linear)"/>
<path d="M75.6107 282.17H77.8607C81.8207 265.9 83.8907 235.28 83.8907 235.28C83.8907 235.28 82.0007 229.84 75.9607 229.97C70.4607 230.09 69.9707 235.56 69.9707 235.56L75.6107 282.17Z" fill="url(#paint1_linear)"/>
<path d="M58.9711 281.28L60.1111 281.55C59.5811 282.7 62.5411 283.51 62.5411 283.51C63.4311 283.63 62.9811 284.88 61.7711 284.88H57.5711C57.0211 284.88 56.7111 284.43 56.8911 283.87L57.7711 281.16L58.9711 281.28Z" fill="#605D5A"/>
<path d="M57.5215 282.27L59.9415 282.22C71.0515 262.93 81.8115 235.62 82.6415 233.01C83.1615 227.33 69.9715 226.42 67.6315 232.81C63.1515 244.65 57.5215 282.27 57.5215 282.27Z" fill="#605D5A"/>
<path d="M83.5605 174.77L72.8105 183.85L71.7305 184.14L72.2005 183.11L82.9505 174.03C83.1405 173.87 83.4305 173.91 83.5905 174.11C83.7605 174.32 83.7405 174.61 83.5605 174.77Z" fill="#F3AE5A"/>
<path d="M81.6114 176.26C82.2114 178.47 80.8414 180.94 78.5414 181.78C76.2414 182.62 73.8914 181.5 73.2914 179.29C72.6914 177.08 74.0614 174.61 76.3614 173.77C78.6514 172.93 81.0114 174.04 81.6114 176.26Z" fill="url(#paint2_linear)"/>
<path d="M90.8313 189.21C88.6013 193.51 82.7213 195.61 78.3113 195.51C76.2513 195.46 73.3413 192.31 73.3813 188.1C73.4313 182.94 77.4413 177.35 84.7313 178.56C88.6313 179.21 94.2513 182.61 90.8313 189.21Z" fill="#59453C"/>
<path d="M87.0008 200.58C86.2108 200.06 84.6708 199.01 84.7808 197.58L85.2608 192.99L79.8208 193.16L79.3408 197.72C79.2808 198.27 78.6608 198.86 78.1108 198.92C76.7508 199.06 75.4208 203.68 78.4908 205.02C79.6808 205.54 82.5108 205.74 83.8408 205.35C86.9608 204.42 87.0008 200.58 87.0008 200.58Z" fill="url(#paint3_linear)"/>
<path d="M87.9598 235.13C88.9598 228.86 89.9998 218.49 89.8198 211.21C89.7398 207.89 89.0098 202.56 87.0098 200.58C82.5898 200.8 83.9298 198.02 81.5498 198.09C75.5998 198.26 72.1698 202.91 71.4998 208.83C70.4898 217.76 68.9698 229.08 68.0098 235.13C67.9898 235.13 88.0698 235.49 87.9598 235.13Z" fill="#53ADE5"/>
<path d="M84.6515 196.78L86.3815 196.73C88.3215 196.73 90.0615 195.16 90.2615 193.22L90.8815 187.32C91.1215 185 89.4415 183.12 87.1215 183.12H85.0515C81.2915 183.12 79.0015 184.71 78.6115 188.47L78.5115 190.63C78.1115 194.39 81.4215 196.72 84.6515 196.78Z" fill="#E0BB95"/>
<path d="M76.0924 185.246C75.5585 186.14 74.3618 188.35 74.7264 190.765C75.0719 194.756 78.0861 195.994 79.4979 195.863C79.9979 195.813 80.2593 194.883 79.6881 194.529C78.9853 194.079 78.7746 193.54 79.0379 191.406C79.3826 188.612 82.6766 185.674 82.6806 184.479C82.6938 184.089 78.5692 182.656 76.0924 185.246Z" fill="#594539"/>
<path d="M87.0207 189.26L79.4707 189.24" stroke="#9B643D" stroke-width="0.5457" stroke-linecap="round" stroke-linejoin="round"/>
<path d="M81.6216 179.48C75.353 181.428 76.1644 187.374 76.5329 189.759C78.7746 189.847 81.7136 189.398 83.0799 188.989C85.1969 188.359 86.7529 187.576 87.7668 186.331C89.3484 184.41 89.2466 182.033 88.6824 181.209C88.1261 180.372 85.376 178.723 81.6216 179.48Z" fill="#594539"/>
<path d="M78.1813 189.93C77.8013 190.23 77.5813 190.62 77.5013 191.07C77.4313 191.55 77.5213 191.95 77.7913 192.26C78.0613 192.61 78.5113 192.85 78.9713 192.87C79.4613 192.89 80.2413 192.93 80.7013 192.92L81.0813 189.52C80.5213 189.49 79.8813 189.54 79.4113 189.51C78.9613 189.49 78.5513 189.63 78.1813 189.93Z" fill="#E0BB95"/>
<path d="M90.4898 189.99C90.4898 189.99 90.5698 190.93 91.2898 191.62C91.5498 191.87 91.4498 192.4 91.1698 192.72C90.9298 193.01 90.0098 193.31 89.9698 193.41H88.8398L89.2898 190.15L90.4898 189.99Z" fill="#E0BB95"/>
<path d="M90.2873 190.639C90.602 189.431 90.1119 188.258 89.1926 188.019C88.2734 187.779 87.2731 188.564 86.9584 189.772C86.6438 190.98 87.1339 192.153 88.0531 192.393C88.9724 192.632 89.9726 191.847 90.2873 190.639Z" stroke="#9B643D" stroke-width="0.5457" stroke-linecap="round" stroke-linejoin="round"/>
<path d="M89.1158 190.229C89.1854 189.765 89.0427 189.359 88.7969 189.322C88.5511 189.285 88.2954 189.631 88.2257 190.095C88.1561 190.56 88.2988 190.966 88.5446 191.003C88.7904 191.04 89.0461 190.693 89.1158 190.229Z" fill="#33312D"/>
<path d="M86.0101 203.85C84.9101 200.87 83.4601 198.02 81.2801 197.94C75.3701 197.73 72.1201 202.87 71.3701 209.05C70.2901 217.98 69.4501 219.68 68.2101 222.23C65.4001 228 64.5401 232.92 63.5801 238.97C63.5801 238.97 81.7301 239.25 83.8601 239.15C85.9901 230.78 88.0001 209.21 86.0101 203.85Z" fill="url(#paint4_linear)"/>
<path d="M89.5298 194.71C89.1698 194.99 88.6698 195.12 88.1498 195.03C87.6398 194.94 87.1698 194.57 87.0298 194.1C86.9898 193.96 87.0698 193.81 87.2098 193.77C87.2898 193.75 87.3598 193.76 87.4198 193.8L87.4398 193.81C87.7698 194.01 88.0098 194.15 88.3098 194.21C88.5998 194.28 88.9398 194.26 89.3298 194.23H89.3398C89.4898 194.22 89.6098 194.33 89.6198 194.48C89.6398 194.57 89.5998 194.66 89.5298 194.71Z" fill="#BF8F68"/>
<path d="M110.351 198.48C113.621 195.35 115.331 195.06 116.551 194.83C116.561 194.83 116.571 194.83 116.581 194.82C117.041 194.75 117.161 195.38 116.731 195.59L115.071 196.38L118.971 195.85C119.391 195.79 119.651 196.24 119.401 196.61C118.861 197.43 117.231 198.84 115.521 199.44C113.751 200.06 110.301 200.01 110.301 200.01L110.351 198.48Z" fill="#E0BB95"/>
<path d="M84.3197 201.27C81.7697 200.38 79.0297 199.36 75.8797 201.74C71.3897 205.13 73.3497 207.78 73.3497 207.78C76.2297 212 86.5697 210.14 93.7397 208.53C102.14 206.64 112.1 201.53 112.1 201.53L110.9 197.06C110.9 197.06 102.37 199.89 96.7497 200.85C92.5497 201.55 86.9497 202.4 84.3197 201.27Z" fill="#C7E0F4"/>
<path d="M86.9754 179.676C86.7826 180.541 88.3024 181.703 88.6913 183.329C88.993 186.899 91.2084 185.239 90.8355 188.854C90.7254 189.927 91.6988 185.344 91.4103 183.913C91.1673 182.758 89.0879 179.882 86.9754 179.676Z" fill="#594539"/>
<path d="M457.52 172.82C457.67 173.87 454.82 174.6 454.82 174.6C454 174.71 454.05 175.85 455.11 175.85H458.83C459.32 175.85 459.71 175.44 459.71 174.93L459.8 172.82H457.52Z" fill="url(#paint5_linear)"/>
<path d="M459.81 172.88H457.56C455.47 165.29 447.88 155.34 446.31 145.78C444.04 131.94 448.19 119.34 448.19 119.34C448.19 119.34 449.69 113.13 455.75 113.28C461.25 113.42 462.14 119.66 462.14 119.66L455.35 146.4L459.81 172.88Z" fill="url(#paint6_linear)"/>
<path d="M475.2 171.87L474.07 172.18C474.62 173.49 471.68 174.41 471.68 174.41C470.79 174.55 471.27 175.98 472.47 175.98H476.67C477.22 175.98 477.52 175.47 477.33 174.83L476.41 171.74L475.2 171.87Z" fill="#605D5A"/>
<path d="M476.669 173L474.249 172.94C462.799 150.91 451.559 119.74 450.679 116.76C450.059 110.27 463.239 109.24 465.679 116.53C470.369 130.06 476.669 173 476.669 173Z" fill="#53ADE5"/>
<path d="M460.362 100.886C462.002 99.0338 461.649 96.0422 459.573 94.2044C457.497 92.3665 454.485 92.3783 452.845 94.2308C451.205 96.0832 451.558 99.0749 453.633 100.913C455.709 102.751 458.722 102.739 460.362 100.886Z" fill="#8B8CC7"/>
<path d="M466.301 117.55L448.822 117.15C448.822 117.15 445.761 103.91 447.111 97.1997C447.751 94.0297 448.852 91.8897 450.962 90.3197C451.991 89.5597 453.082 89.1997 454.512 89.2497C455.872 89.2997 457.002 89.6397 458.132 90.3397C461.022 92.1297 463.012 96.4497 462.972 101.89C462.962 103.36 462.772 106.18 464.192 110.87L466.301 117.55Z" fill="#E1DFDD"/>
<path d="M460.841 77.87C461.221 81.79 458.201 84.89 454.091 84.8C449.981 84.71 446.341 81.45 445.951 77.53C445.561 73.61 446.961 70.56 452.701 70.6C458.441 70.64 460.461 73.95 460.841 77.87Z" fill="#7F554E"/>
<path d="M457.841 90.08C456.461 88.94 456.221 87.49 456.071 86.08L455.581 81.76L451.221 81.73L452.201 88.03C452.311 88.74 451.871 89.55 451.331 90C451.181 90.13 451.481 90.22 451.701 90.22L457.841 90.08Z" fill="#BF8F68"/>
<path d="M457.2 73.0698C456.03 69.1998 451.01 68.4298 448.05 69.5698C445.45 70.5598 442.79 72.6698 441.74 70.8998C441.74 70.8998 440.86 73.1298 441.69 75.3998C442.52 77.6698 445.36 78.5398 447.29 77.7798C448.58 77.2698 449.59 75.2198 452.03 73.9298C454.06 72.8598 457.2 73.0698 457.2 73.0698Z" fill="#7F554E"/>
<path d="M450.53 86.6998H450.47C448.44 86.6798 446.64 85.2098 446.43 83.4098L445.57 75.7798C445.38 74.0998 446.76 72.7498 448.65 72.7598H448.71C451.44 72.7798 453.87 74.7698 454.15 77.1898L454.75 82.5598C455.02 84.8698 453.12 86.7198 450.53 86.6998Z" fill="#BF8F68"/>
<path d="M453.231 82.7496L455.231 82.7696C456.151 82.7796 456.831 82.1197 456.741 81.2997L456.721 81.1597C456.631 80.3397 455.801 79.6697 454.881 79.6597L452.881 79.6396L453.231 82.7496Z" fill="#BF8F68"/>
<path d="M445.871 78.3799C445.911 79.4699 445.431 80.2099 445.041 80.6299C444.821 80.8599 444.781 81.4299 445.111 81.7599C445.291 81.9399 446.301 82.3399 446.371 82.8399" fill="#BF8F68"/>
<path d="M450.181 77.9199H450.111V77.9899H450.191L450.181 77.9199Z" fill="url(#paint7_radial)"/>
<path d="M442.642 92.4998C448.432 93.7698 457.651 92.6398 457.651 92.6398C459.471 92.4498 460.991 94.3998 460.621 96.2498C460.271 98.0098 458.801 99.1698 457.021 99.4198C457.021 99.4198 447.132 100.35 439.012 97.0398C429.902 93.3198 427.701 89.8098 426.771 88.9898L428.132 87.3398C428.152 87.3498 435.822 91.0098 442.642 92.4998Z" fill="#BF8F68"/>
<path d="M447.45 83.59C447.83 83.62 448 83.57 448.2 83.52C448.3 83.5 448.39 83.46 448.49 83.43C448.59 83.39 448.69 83.35 448.82 83.23L448.86 83.19C448.93 83.12 449.04 83.12 449.11 83.2C449.12 83.21 449.13 83.23 449.14 83.24C449.26 83.47 449.19 83.77 449.04 83.97C448.9 84.19 448.67 84.32 448.43 84.39C447.96 84.53 447.36 84.28 447.23 83.83C447.2 83.73 447.26 83.63 447.35 83.6C447.37 83.59 447.4 83.59 447.42 83.59H447.45Z" fill="#A36E46"/>
<path d="M458.26 90.42C456.84 90.3 455.99 90.16 453.87 90.58C452.22 90.91 450.97 90.79 450.74 90.5C451.64 89.62 452.99 89.01 454.42 89.01C455.82 89.02 456.4 88.85 458.26 90.42Z" fill="#BF8F68"/>
<path d="M428.906 88.3011L427.849 89.5709L425.828 89.1412C425.385 89.0594 424.918 88.895 424.422 88.6686C424.003 88.4827 423.671 88.3058 423.45 88.1221C423.313 88.0021 423.045 87.7854 422.623 87.4774C422.273 87.1866 422.08 86.9765 422.032 86.8552C421.961 86.6408 422.02 86.3906 422.187 86.0999C422.107 85.9713 422.014 85.8065 421.884 85.6111C421.817 85.4744 421.783 85.3347 421.769 85.2103C421.868 84.9258 422.041 84.8453 422.289 84.9585L425.249 86.1248L424.988 85.547C424.79 85.1267 424.637 84.794 424.553 84.5433C424.497 84.3105 424.521 84.1621 424.65 84.0823C424.789 84.005 424.945 84.0416 425.108 84.1898C425.626 84.608 426.047 85.0146 426.373 85.4097C426.597 85.6712 426.914 86.0092 427.314 86.411L428.906 88.3011Z" fill="#BF8F68"/>
<path d="M455.4 85.7699H455.39C454.45 85.7599 453.6 85.0699 453.5 84.2199C453.46 83.8299 453.58 83.4499 453.84 83.1599C454.13 82.8299 454.58 82.6499 455.06 82.6499H455.07C456.01 82.6599 456.86 83.3499 456.96 84.1999C457 84.5899 456.88 84.9699 456.62 85.2599C456.33 85.5899 455.89 85.7699 455.4 85.7699ZM455.06 83.0099C454.67 83.0099 454.32 83.1499 454.1 83.3999C453.91 83.6099 453.82 83.8899 453.85 84.1799C453.93 84.8599 454.62 85.4099 455.39 85.4199H455.4C455.79 85.4199 456.14 85.2799 456.36 85.0299C456.55 84.8199 456.64 84.5399 456.61 84.2499C456.53 83.5699 455.84 83.0199 455.07 83.0099H455.06Z" fill="#E1DFDD"/>
<path d="M455.291 74.2899C454.891 73.2799 455.181 72.1999 448.141 72.5799C445.771 72.7099 445.861 72.5799 445.481 72.6999C444.321 73.0699 444.891 74.1699 445.001 75.1799L451.911 75.1999C452.261 75.1999 452.601 75.4399 452.731 75.7699L454.141 79.7999L456.001 79.6799L455.291 74.2899Z" fill="#7F554E"/>
<path d="M448.016 80.6974C448.28 80.6381 448.42 80.258 448.328 79.8485C448.236 79.439 447.947 79.1551 447.683 79.2144C447.419 79.2737 447.28 79.6538 447.372 80.0633C447.464 80.4728 447.752 80.7568 448.016 80.6974Z" fill="#3A312E"/>
<path d="M454.35 73.95C454.35 73.95 454.41 72.5 449.12 72.61C446.55 72.66 443.8 72.72 443.92 74.63C444.07 76.98 445.69 77.08 445.69 77.08C445.6 75.42 447.31 75.2 447.6 75.2L451.98 75.19C452.27 75.19 452.56 75.42 452.68 75.76L453.98 79.78L455.28 79.64L454.35 73.95Z" fill="#7F554E"/>
<path d="M343.59 133.62C343.59 133.62 347.92 135.01 349.87 134.97C352.34 134.92 353.54 134.82 353.72 133.66C353.77 133.64 354.11 133.5 354.38 133.34C354.75 133.11 355.23 132.53 354.16 132.42C352.79 132.27 350.17 131.95 350.17 131.95C350.17 131.95 351.17 131.37 351.7 131.12C352.23 130.87 352.93 129.84 350.93 130.24C348.27 130.77 343.62 131.8 343.62 131.8L343.59 133.62Z" fill="#9B643D"/>
<path d="M310.351 107.38C311.345 107.38 312.151 106.614 312.151 105.67C312.151 104.726 311.345 103.96 310.351 103.96C309.357 103.96 308.551 104.726 308.551 105.67C308.551 106.614 309.357 107.38 310.351 107.38Z" fill="#594539"/>
<path d="M315.171 99.4865C316.265 99.1755 316.914 98.0836 316.619 97.0476C316.325 96.0117 315.199 95.4241 314.105 95.7351C313.01 96.0462 312.362 97.1381 312.656 98.174C312.951 99.21 314.076 99.7976 315.171 99.4865Z" fill="#594539"/>
<path d="M318.122 100.056C319.216 99.7453 319.865 98.6534 319.57 97.6175C319.276 96.5815 318.15 95.9939 317.056 96.305C315.961 96.616 315.313 97.7079 315.607 98.7439C315.902 99.7798 317.028 100.367 318.122 100.056Z" fill="#594539"/>
<path d="M320.231 102.258C321.326 101.947 321.974 100.855 321.68 99.8191C321.385 98.7832 320.259 98.1956 319.165 98.5066C318.071 98.8177 317.422 99.9096 317.717 100.946C318.011 101.981 319.137 102.569 320.231 102.258Z" fill="#594539"/>
<path d="M309.405 108.136C310.361 107.865 310.927 106.908 310.669 105.999C310.41 105.091 309.426 104.575 308.47 104.847C307.513 105.119 306.948 106.075 307.206 106.984C307.464 107.892 308.448 108.408 309.405 108.136Z" fill="#594539"/>
<path d="M311.86 100.506C312.955 100.195 313.603 99.1026 313.309 98.0667C313.014 97.0308 311.888 96.4431 310.794 96.7542C309.7 97.0652 309.051 98.1572 309.346 99.1931C309.64 100.229 310.766 100.817 311.86 100.506Z" fill="#594539"/>
<path d="M309.433 102.606C310.527 102.295 311.175 101.203 310.881 100.167C310.586 99.1313 309.461 98.5437 308.366 98.8548C307.272 99.1658 306.623 100.258 306.918 101.294C307.212 102.33 308.338 102.917 309.433 102.606Z" fill="#594539"/>
<path d="M309.163 105.777C310.257 105.466 310.906 104.374 310.611 103.338C310.317 102.302 309.191 101.714 308.097 102.025C307.002 102.336 306.354 103.428 306.648 104.464C306.943 105.5 308.069 106.088 309.163 105.777Z" fill="#594539"/>
<path d="M312.351 111.04L319.401 109.04C320.701 108.67 321.201 106.4 320.851 105.17L319.871 101.71C319.061 98.85 315.951 97.23 312.921 98.09L312.121 98.32C309.091 99.18 307.301 102.2 308.111 105.05L309.091 108.51C309.501 110.17 311.051 111.41 312.351 111.04Z" fill="#594539"/>
<path d="M311.301 107.47L317.541 107.53V115.36C317.541 116.74 317.561 117.22 318.591 118.11C318.531 118.25 310.841 117.28 310.811 117.24C311.271 117.07 311.301 116.49 311.301 115.26V107.47Z" fill="url(#paint8_radial)"/>
<path d="M310.941 108.92C311.753 108.92 312.411 108.297 312.411 107.53C312.411 106.762 311.753 106.14 310.941 106.14C310.129 106.14 309.471 106.762 309.471 107.53C309.471 108.297 310.129 108.92 310.941 108.92Z" fill="#594539"/>
<path d="M313.19 107.25L312.8 103.92C312.6 102.89 312.51 102.14 313.59 101.83L316.8 100.91C317.88 100.6 319.04 100.8 319.82 101.82C320.45 102.65 321.04 103.67 321.39 104.71C321.57 105.25 322.67 109.21 322.67 109.21C323.33 111.54 322.88 113.7 319.78 114.58L319.34 114.7C315.99 115.65 314.27 113.86 313.47 111.06L312.48 107.46L313.19 107.25Z" fill="#9B643D"/>
<path d="M320.06 106.786C320.288 106.719 320.378 106.339 320.261 105.936C320.143 105.533 319.864 105.26 319.636 105.326C319.408 105.393 319.318 105.773 319.435 106.176C319.552 106.579 319.832 106.852 320.06 106.786Z" fill="#3A312E"/>
<path d="M311.24 109.77C311.52 110.79 312.63 111.38 313.7 111.08C313.77 111.06 314.72 110.79 314.78 110.76C315.73 110.39 315.4 109.64 315.13 108.68C314.87 107.74 314.78 106.92 313.78 107.07C313.7 107.08 312.74 107.35 312.66 107.37C311.6 107.67 310.96 108.75 311.24 109.77Z" fill="#9B643D"/>
<path d="M319.73 110.24C319.96 110.28 320.15 110.34 320.32 110.38C320.49 110.41 320.63 110.44 320.77 110.45C321.03 110.48 321.35 110.42 321.82 110.41C321.93 110.4 322.02 110.49 322.02 110.59C322.02 110.62 322.01 110.66 322 110.69C321.77 111.12 321.28 111.43 320.69 111.38C320.41 111.35 320.14 111.25 319.95 111.08C319.75 110.92 319.6 110.73 319.51 110.49C319.47 110.39 319.52 110.28 319.62 110.25C319.65 110.24 319.68 110.24 319.72 110.24H319.73Z" fill="#855035"/>
<path d="M316.253 102.276C317.347 101.965 317.996 100.873 317.701 99.8367C317.407 98.8008 316.281 98.2131 315.187 98.5242C314.092 98.8352 313.444 99.9272 313.738 100.963C314.033 101.999 315.158 102.587 316.253 102.276Z" fill="#594539"/>
<path d="M320.57 104.81L321.29 104.47C321.29 104.47 321.36 104.61 321.5 105C321.64 105.39 321.87 105.65 322.15 105.87L323.33 106.81C323.52 106.96 323.55 107.23 323.39 107.41L322.66 108.24C322.52 108.4 322.47 108.62 322.54 108.82L321.84 108.95L320.57 104.81Z" fill="#9B643D"/>
<path d="M310.23 108.03L313.36 107.14C314.57 106.8 315.29 105.58 314.96 104.44C314.96 104.44 314.73 103.67 314.53 102.93C314.33 102.19 315.68 100.69 315.68 100.69L308.74 102.6L310.23 108.03Z" fill="#594539"/>
<path d="M321.61 158.17C322.51 163.92 323.19 166.77 323.61 170.89C323.88 173.48 322.74 177 317.26 175.92C312.79 175.04 303.51 174.16 300.37 173.75C299.64 173.66 299.33 173.82 298.67 174.15L295.69 176C294.81 176.54 293.88 175.94 294.34 175.04L296.01 171.04C296.37 170.33 297.06 169.95 297.81 169.96C305.9 170.03 314.54 167.51 314.54 167.51C314.54 167.51 307.22 158.41 306.68 153.38C306.14 148.35 321.48 157.31 321.61 158.17Z" fill="url(#paint9_linear)"/>
<path d="M325.28 149.28C325.28 149.28 335.07 151.45 338.4 152.27C343.4 153.5 343.93 156.73 341.72 160.54C339.77 163.91 333.45 170.34 331.99 172.38C331.61 172.91 331.89 173.55 332.41 173.92L334.53 175.34C335.07 175.72 335.03 176.54 334.18 176.54L327.87 176.63C326.77 176.59 326.35 175.65 326.95 174.67L334.26 159.86C334.26 159.86 317.98 160.25 311.53 159.1C305.08 157.95 306.19 146.31 306.19 146.31L325.28 149.28Z" fill="#797673"/>
<path d="M327.92 127.86C321.45 125.58 313.28 119.11 313.28 119.11C311.65 117.86 308.85 118.72 307.97 120.61C307.12 122.41 307.77 124.32 309.32 125.61C309.32 125.61 318.27 132.3 328.37 134.11C339.7 136.14 343.3 134.23 344.75 134.03L345.06 131.46C345.06 131.47 335.53 130.55 327.92 127.86Z" fill="#53ADE5"/>
<path d="M305.23 152.25L325.11 149.44C325.11 149.44 326.55 135.92 324.44 128.45C323.07 123.6 321.22 120.58 318.57 118.1C317.55 117.14 316.04 116.57 314.05 116.55C312.46 116.53 310.68 117.1 309.48 118C306.41 120.29 305.18 125.58 306.13 132.87C306.39 134.83 306.46 140.66 305.92 146.33C305.55 150.22 305.23 152.25 305.23 152.25Z" fill="url(#paint10_linear)"/>
<path d="M318.831 120.22C315.811 118.7 313.161 117.87 310.721 117.28C311.471 116.94 312.991 116.53 314.041 116.55C316.031 116.58 317.531 117.15 318.561 118.1C319.361 118.85 320.081 119.64 320.741 120.52C320.621 120.87 319.731 120.67 318.831 120.22Z" fill="#9B643D"/>
<defs>
<linearGradient id="paint0_linear" x1="77.9771" y1="258.964" x2="76.5108" y2="287.746" gradientUnits="userSpaceOnUse">
<stop offset="0.0787" stop-color="#605D5A"/>
<stop offset="0.8899" stop-color="#494B4E"/>
</linearGradient>
<linearGradient id="paint1_linear" x1="77.4109" y1="259.616" x2="76.062" y2="287.396" gradientUnits="userSpaceOnUse">
<stop offset="0.0793" stop-color="#605D5A"/>
<stop offset="0.8899" stop-color="#494B4E"/>
</linearGradient>
<linearGradient id="paint2_linear" x1="74.005" y1="175.006" x2="80.1611" y2="180.317" gradientUnits="userSpaceOnUse">
<stop offset="0.2689" stop-color="#594539"/>
<stop offset="0.8111" stop-color="#463228"/>
</linearGradient>
<linearGradient id="paint3_linear" x1="82.4685" y1="192.243" x2="82.7003" y2="199.497" gradientUnits="userSpaceOnUse">
<stop offset="0.0668" stop-color="#9B643D"/>
<stop offset="0.8469" stop-color="#E0BB95"/>
</linearGradient>
<linearGradient id="paint4_linear" x1="70.5547" y1="266.281" x2="71.2916" y2="229.914" gradientUnits="userSpaceOnUse">
<stop stop-color="#55779D"/>
<stop offset="0.9908" stop-color="#C7E0F4"/>
</linearGradient>
<linearGradient id="paint5_linear" x1="455.621" y1="146.472" x2="457.302" y2="179.346" gradientUnits="userSpaceOnUse">
<stop offset="0.0787" stop-color="#605D5A"/>
<stop offset="0.8899" stop-color="#494B4E"/>
</linearGradient>
<linearGradient id="paint6_linear" x1="484.353" y1="133.708" x2="453.587" y2="145.04" gradientUnits="userSpaceOnUse">
<stop offset="0.00440228" stop-color="#1D7BC3"/>
<stop offset="0.2492" stop-color="#2E8BCE"/>
<stop offset="0.7189" stop-color="#49A4DF"/>
<stop offset="0.9947" stop-color="#53ADE5"/>
</linearGradient>
<radialGradient id="paint7_radial" cx="0" cy="0" r="1" gradientUnits="userSpaceOnUse" gradientTransform="translate(450.119 77.9789) rotate(167.065) scale(0.0322606 0.0350449)">
<stop offset="0.000320513" stop-color="#9B643D"/>
<stop offset="0.8822" stop-color="#BA8A63" stop-opacity="0.1178"/>
<stop offset="1" stop-color="#BF8F68" stop-opacity="0"/>
</radialGradient>
<radialGradient id="paint8_radial" cx="0" cy="0" r="1" gradientUnits="userSpaceOnUse" gradientTransform="translate(319.413 111.304) rotate(144.772) scale(6.94458 6.8132)">
<stop offset="0.0256" stop-color="#724937"/>
<stop offset="0.7799" stop-color="#9B643D"/>
</radialGradient>
<linearGradient id="paint9_linear" x1="332.061" y1="154.285" x2="312.553" y2="164.823" gradientUnits="userSpaceOnUse">
<stop offset="0.1333" stop-color="#303030"/>
<stop offset="0.3452" stop-color="#4B4A49"/>
<stop offset="0.5925" stop-color="#646260"/>
<stop offset="0.818" stop-color="#74716E"/>
<stop offset="1" stop-color="#797673"/>
</linearGradient>
<linearGradient id="paint10_linear" x1="315.467" y1="163.76" x2="315.377" y2="134.094" gradientUnits="userSpaceOnUse">
<stop stop-color="#1D7BC3"/>
<stop offset="0.6199" stop-color="#53ADE5"/>
</linearGradient>
</defs>
</svg>
