<svg xmlns="http://www.w3.org/2000/svg" viewBox="0 0 636 300"><defs><style>.a{fill:none}.b{clip-path:url(#a)}.c{fill:#ffc316}.d{fill:#a71e22}.e{fill:#d8b195}.f{fill:#b8977c}.g{fill:#e6ccb9}.h{fill:#515050}.i{clip-path:url(#ab)}.j{fill:#479cdf}.k{fill:#8b0304}.l{fill:#f6cba7}.m{fill:#ddb594}.n{fill:#e6a1c0}.o{fill:#f7e0cc}.p{fill:#fff}.q{fill:#a6a6a6}.r{clip-path:url(#bi)}.s{fill:#b498ff}.t{fill:#2a3282}.u{fill:#bb9167}.v{fill:#f9d4bb}.w{fill:#72594b}.x{fill:#3777bc}.y{fill:#675042}.z{fill:#b6b8ba}.aa{fill:#4f3f34}.ab{fill:#cc8d85}.ac{fill:#004c7a}.ad{fill:#666}.ae{fill:#c8c8c8}</style><clipPath id="a"><path class="a" d="M205.266 27.5H78.984A17.984 17.984 0 0 0 61 45.484v82.032A17.984 17.984 0 0 0 78.984 145.5h101.691L199 172.059l.158-26.559h5.858A17.984 17.984 0 0 0 223 127.516V45.429A17.832 17.832 0 0 0 205.266 27.5z"/></clipPath><clipPath id="ab"><path class="a" d="M254.733 27.5h126.283A17.984 17.984 0 0 1 399 45.484v82.032a17.984 17.984 0 0 1-17.984 17.984H279.325L261 172.059l-.158-26.559h-5.858A17.984 17.984 0 0 1 237 127.516V45.429A17.83 17.83 0 0 1 254.733 27.5z"/></clipPath><clipPath id="bi"><path class="a" d="M430.733 27.5h126.283A17.984 17.984 0 0 1 575 45.484v82.032a17.984 17.984 0 0 1-17.984 17.984H455.325L437 172.059l-.158-26.559h-5.858A17.984 17.984 0 0 1 413 127.516V45.429A17.83 17.83 0 0 1 430.733 27.5z"/></clipPath></defs><title>swimlane-programming-languages</title><g class="b"><path class="c" d="M205.266 27.5H78.984A17.984 17.984 0 0 0 61 45.484v82.032A17.984 17.984 0 0 0 78.984 145.5h101.691L199 172.059l.158-26.559h5.858A17.984 17.984 0 0 0 223 127.516V45.429A17.832 17.832 0 0 0 205.266 27.5z"/></g><g class="b"><path class="d" d="M117.622 168.763A68 68 0 0 1 83 158.737v-4.1l-.174-3.469-.379-6.939-.584-12.712c-.569-10.986-.863-10.986-.863-10.986v-.767l9.063-.576 1.895-.188 25.134-1.743c.764-.192.764.247.764.247H118v51.261z"/></g><g class="b"><path class="d" d="M83.394 131.133l-4.187-21.394 36.734-7.513 4.2 21.392-36.747 7.515z"/></g><g class="b"><path class="d" d="M155 120.187v.154l-.778 11.177-.758 16.372c-.4 6.173-.464 6.173-.464 6.173v4.621c-10.015 6.172-34.58 9.816-34.58 9.816H118v-51h.38l.566.191 25.377 1.734 1.724.191z"/></g><g class="b"><path class="e" d="M155.737 156.956c-.758-3.086-1.515-6.172-2.273-9.066-1.721-6.363-3.429-12.327-4.963-17.332l-.186-.192a2.788 2.788 0 0 0-.379-1.167c-.571-2.3-1.143-4.429-1.708-6.348a12.1 12.1 0 0 1-.379-3.662 9.373 9.373 0 0 1 6.273-7.323 11.4 11.4 0 0 1 4.372-.192 9.016 9.016 0 0 1 6.479 6.348c.571 1.934 1.329 4.045 1.913 6.364.186.384.186.576.379.96 1.515 5.4 3.429 11.56 5.137 18.116a65.375 65.375 0 0 1-14.665 13.494z"/></g><g class="b"><path class="d" d="M152.501 131.133l-36.56-7.515 4.2-21.392 36.732 7.513-4.372 21.394z"/></g><g class="b"><path class="d" d="M173.688 147.5c-.584.784-4.435 2.424-5 3-4.186 5.2-7.423 2.794-12.951 6.456-.565.384-.95.576-1.515.96-.379-1.152-.758-2.511-1.156-3.853-2.273-7.9-4.944-17.541-6.838-23.7a.716.716 0 0 0-.193-.591c-.771-2.686-1.342-5.005-1.721-6.348l1.913-.576 8.559-2.51 8.186-2.319 2.1-.576a7.656 7.656 0 0 0 .379 1.743c.379 1.343.95 3.07 1.522 4.813 1.342 5.007 4.802 17.345 6.715 23.501z"/></g><g class="b"><path class="d" d="M143.936 120.916a10.858 10.858 0 1 0 10.472-11.177 10.9 10.9 0 0 0-10.472 11.177z"/></g><g class="b"><path class="e" d="M89.667 123.426c-.759 1.726-1.517 3.853-2.275 6.156 0 .384-.189.576-.189.784-.189.192-.189.384-.189.768-1.533 3.853-3.049 8.282-4.566 13.1-1.153 3.661-2.48 7.323-3.617 11.176a68.018 68.018 0 0 1-14.093-13.67c1.9-6.172 4-11.768 5.7-16.581a12.114 12.114 0 0 1 .379-1.343c.774-2.319 1.533-4.237 2.1-6.172a9.448 9.448 0 0 1 6.667-5.964 9.03 9.03 0 0 1 10.475 7.515 10.876 10.876 0 0 1-.392 4.231z"/></g><g class="b"><path class="d" d="M91.578 124a.71.71 0 0 0-.189.575c-.569 1.343-1.138 3.087-1.912 5.389-1.706 5.6-4.376 13.687-6.651 21.2-.774 1.934-1.343 3.853-1.912 5.788-.758-.591-1.327-.975-2.085-1.551a68.017 68.017 0 0 1-14.093-13.67 67.34 67.34 0 0 0-1.153-1.743c2.859-9.242 6.1-18.692 7.235-22.545a.709.709 0 0 0 .19-.576l1.912.768 8.373 2.894 8.374 2.894z"/></g><g class="b"><path class="d" d="M91.957 119.573a10.811 10.811 0 1 1-11.8-9.833 10.959 10.959 0 0 1 11.8 9.833z"/></g><g class="b"><path class="e" d="M117.007 114.3c-7.18 0-13.007-4.429-13.007-11.563V93.5h26v9.24c0 7.134-5.816 11.56-12.993 11.56z"/></g><g class="b"><path class="f" d="M116.663 46.166c-11.5 0-19.76 12.426-20.142 27.947a2.813 2.813 0 0 1 .383-1.171c1.352-4.076 7.875-2.323 6.332 1.754-.763 2.512-2.1 4.849-2.1 7.57a20.682 20.682 0 0 0 .383 4.842 3.2 3.2 0 0 1 2.481 3.3v6.605a19.025 19.025 0 0 0 6.208 4.182 9.589 9.589 0 0 0 12.4 0 18.3 18.3 0 0 0 6.392-4.37v-7.887l3-3.087V79.93c0-.386-.382-1.158 0-.386-1.733-3.494 2.69-6.6 4.978-4.267-.001-16.103-5.554-29.111-20.315-29.111z"/></g><g class="b"><path class="e" d="M137.078 74.291c0 16.18-8.565 27.168-20.174 27.168s-20-10.988-20-27.168c0-16 8.389-28.91 20-28.91 14.659 0 20.174 12.905 20.174 28.91z"/></g><g class="b"><path class="e" d="M98.668 70.5h-2.73A2.194 2.194 0 0 0 94 72.858v8.27c0 1.388.775 2.372 1.938 2.372h1.955z"/></g><g class="b"><path class="e" d="M135.333 70.5h2.76A1.907 1.907 0 0 1 140 72.407v8.721c0 1.388-.775 2.372-1.949 2.372h-1.943z"/></g><path d="M108.325 75.058a1.544 1.544 0 0 0 0-3.087 1.551 1.551 0 1 0 0 3.087zM126.035 75.253a1.522 1.522 0 0 0 1.535-1.54 1.845 1.845 0 0 0-1.721-1.546 1.643 1.643 0 0 0-1.522 1.546 1.462 1.462 0 0 0 1.708 1.54z" class="b"/><g class="b"><path class="e" d="M105.1 93.5h23.6c-2.857 5.77-7.044 9.24-11.8 9.24-4.768.001-8.954-3.469-11.8-9.24z"/></g><g class="b"><path class="f" d="M121 82.688a1.445 1.445 0 0 1-1.466 1.345c-.178 0-.362.383-.9.78a2.253 2.253 0 0 1-1.632.773 2.671 2.671 0 0 1-1.644-.773c-.364-.4-.726-.78-.908-.78a1.439 1.439 0 0 1-1.45-1.345V82.5h8v.188z"/></g><g class="b"><path class="g" d="M117 70.745V82.5h-4.188a1.657 1.657 0 0 1 .569-.962 5.38 5.38 0 0 0 1.517-3.47l.189-6.557c0-1.533 1.535-.766 1.913-.766z"/></g><path d="M138 62.793V79.5h-2.251l-.944-20.239-5.721.767a100.012 100.012 0 0 1-23.983 0l-5.53-.767c-1.138 20.8-1.138 21.239-1.138 21.239H97V62.793c0-10.636 7.09-19.293 15.914-19.293h9.192c8.807 0 15.894 8.657 15.894 19.293z" class="b"/><path d="M131.756 77.566c-.571 1.157-3.05 1.934-3.05 1.934h-4.857a4.815 4.815 0 0 1-4.1-3.21 13.606 13.606 0 0 1-.749-4.145V71.394c.182-.375.383-.565.571-.941a4.442 4.442 0 0 1 2.782-.954h5.4a5.1 5.1 0 0 1 3.621.742c.565.578.758.962.625 1.54v.188a14.562 14.562 0 0 0 1 4.048v.383c-1.057.575-1.057.77-1.243 1.166zm1.244-5.6v-.188c-.487-.578-.866-1.157-1.437-1.728-.565-.786-3.808-.555-3.808-.555h-5.1a3.829 3.829 0 0 0-2.92.975 2.857 2.857 0 0 0-.74 1.534v.383a11.111 11.111 0 0 0 .926 4.432 4.983 4.983 0 0 0 4.2 3.275 15.154 15.154 0 0 0 4.21 0c1.456-.189 2.382-.572 2.932-1.534a5.771 5.771 0 0 0 .737-2.12v-.615a30.793 30.793 0 0 0 1-3.854zM114.238 76.29a4.939 4.939 0 0 1-4.207 3.21h-4.207c-1.73-.191-2.492-.566-3.063-1.507a3.207 3.207 0 0 1-.571-1.888 26.189 26.189 0 0 1-.191-3.96v-.184a1.4 1.4 0 0 1 .381-.75 1.014 1.014 0 0 1 .572-.756c.572-.578 2.492-.954 3.635-.954h4.967a4.262 4.262 0 0 1 2.873.954c.19.375.382.566.572.941v.75a13.645 13.645 0 0 1-.761 4.144zm.762-4.281a1.961 1.961 0 0 0-.786-1.534 4.34 4.34 0 0 0-3.161-.975h-5.125c-1.18 0-3.357.189-3.947.975-.393.383-.589.572-.786.767a1.706 1.706 0 0 0-.2.962v.188a27.878 27.878 0 0 0 0 4.048 4.445 4.445 0 0 0 .786 2.125c.59.962 1.571 1.345 3.161 1.534a17.638 17.638 0 0 0 4.536 0 5.111 5.111 0 0 0 4.536-3.275 10.666 10.666 0 0 0 .986-4.432z" class="b"/><path d="M130.686 69.088c-.7-.8-2.115-.8-3.345-.8a44.754 44.754 0 0 0-5.294-.2c-1.581.2-2.8.2-3.345 1.2A3.361 3.361 0 0 0 118 70.7v-.2h-3v.2a10.236 10.236 0 0 0-.526-1.412c-.7-1-1.93-1-3.524-1.2a46.076 46.076 0 0 0-5.277.2c-1.243 0-2.647 0-3.348.8a5.657 5.657 0 0 0-1.067 2.614c0 .2 1.243.2 1.243 0a3.219 3.219 0 0 1 .7-1.6c.527-.614 1.754-.811 3-.811a20.032 20.032 0 0 1 4.927 0 3.3 3.3 0 0 1 2.647.811 3.226 3.226 0 0 1 .527 1.4h4.4a3.2 3.2 0 0 1 .54-1.4 3.518 3.518 0 0 1 2.632-.811 20.122 20.122 0 0 1 4.938 0 4.247 4.247 0 0 1 3 .811 2.6 2.6 0 0 1 .7 1.6c0 .2 1.23 0 1.23 0a5.645 5.645 0 0 0-1.056-2.614z" class="b"/><g class="b"><path class="d" d="M117.091 93.558a29.167 29.167 0 0 1-6.665-.962c-.569 0-.758-.591-.758-1.163.189-.383.758-.767 1.138-.578a26.876 26.876 0 0 0 12.372 0c.584-.189 1.149.195 1.149.578a.852.852 0 0 1-.758 1.163 27.822 27.822 0 0 1-6.478.962z"/></g><g class="b"><path class="h" d="M178.589 95.2a20.729 20.729 0 0 1-8.544 1.536c-9.121 0-15.985-5.761-15.985-16.37 0-10.129 6.864-16.993 16.9-16.993a17.351 17.351 0 0 1 7.681 1.44l-1.009 3.408a15.2 15.2 0 0 0-6.532-1.341c-7.585 0-12.625 4.849-12.625 13.346 0 7.921 4.561 13.009 12.433 13.009a16.717 16.717 0 0 0 6.817-1.344zM184.654 96.5l1.232-9H182v-3h4.314l.912-7H183v-3h4.512l1.235-9h2.753l-1.187 9h4.939l1.235-9h2.8l-1.187 9h3.9v3h-3.957l-.783 7H201v3h-4.5l-1.232 9h-2.844l1.232-9h-4.927l-1.232 9zm9.546-12l.917-7H190.1l-.917 7z"/></g><g class="i"><path class="j" d="M254.733 27.5h126.283A17.984 17.984 0 0 1 399 45.484v82.032a17.984 17.984 0 0 1-17.984 17.984H279.325L261 172.059l-.158-26.559h-5.858A17.984 17.984 0 0 1 237 127.516V45.429A17.83 17.83 0 0 1 254.733 27.5z"/></g><path d="M371.006 130.615l-30.275-11.811 6.647-17.818 30.256 11.811-6.628 17.818z" class="i"/><path d="M388.577 146.629a.276.276 0 0 1-.512.178c-.9-1.584-19.281.693-19.281.693-.554-3.75-3.5-23.264-3.5-23.825-.187-.187 18.264-3.564 18.264-3.564a.686.686 0 0 1 .187.56c.351 2.715 3.77 17.973 4.842 25.958zM310.107 130.242l-6.645-17.818 30.441-11.811 6.648 17.818-30.444 11.811z" class="i"/><g class="i"><path class="k" d="M353.837 47.157l-.18 3.194c-2.956-1.126-6.833-1.682-11.824-1.682-9.951 0-20.838 1.119-23.977 12.56-.368 12.756-1.485 43.321.551 45.2-1.1-.187 31.559 15.188 43.364-2.257 3.69-5.058 0-11.813 1.469-18.941 3.69-17.248.753-36.752-9.403-38.074z"/></g><g class="i"><path class="l" d="M350.7 86.5l.734 15.558 9.783 4.513c-2.769 1.494-14.941 6.178-21.22 6.178s-18.819-4.311-21.59-5.8l9.784-4.7.919-15.745z"/></g><g class="i"><path class="l" d="M355.492 82.421c3.877 0 6.646-3.187 6.279-8.437-.554-4.882-3.871-9.942-7.561-9.942z"/></g><g class="i"><path class="l" d="M324.5 82.421c-4.058 0-6.83-3.187-6.278-8.437.551-4.882 3.874-9.942 7.565-9.942z"/></g><g class="i"><path class="l" d="M340 98.357c3.69 0 4.792-.934 4.978-1.681 10.884-4.123 12.738-17.631 14.027-27l-2.025-12.014c-1.3-6.179-11.071-11.624-16.983-11.624-6.094 0-15.679 5.445-16.981 11.624l-2.2 12.016c1.286 9.366 3.123 22.875 14.011 27 .373.745 1.48 1.679 5.173 1.679z"/></g><path d="M348.479 71.917a1.462 1.462 0 0 1-1.469-1.493c.187-.563.734-1.322 1.469-1.322a1.621 1.621 0 0 1 1.487 1.5 1.448 1.448 0 0 1-1.487 1.315zM331.514 71.917a1.325 1.325 0 0 0 1.286-1.493 1.389 1.389 0 1 0-2.771.183 1.436 1.436 0 0 0 1.485 1.31z" class="i"/><g class="i"><path class="k" d="M364.727 68.167c-.367-8.993-2.769-16.683-7.38-19.687a6.322 6.322 0 0 0-3.51-1.505s-2.035-5.433-14.02-5.433c-10.522 0-22.329 5.059-22.145 23.811-.184 4.136 6.646 10.5 6.462-.563 1.1-12.187 2.021-17.057 15.864-15.564 1.469.19 3.136-.557 4.792-.557a.666.666 0 0 1 .554-.19c13.473 1.682 8.314 22.5 16.429 26.252 0 0 1.655.753 2.4-2.625.187-1.498.554-3.939.554-3.939z"/></g><g class="i"><path class="m" d="M351.143 92.736a19.91 19.91 0 0 1-3.877 3c-.187 0-.367.19-.554.373a.656.656 0 0 0-.548.19 3.092 3.092 0 0 0-.933.372c-.187.747-1.288 1.681-4.978 1.681s-4.792-.934-5.175-1.681c-.184-.187-.368-.187-.551-.372-.184 0-.551-.19-.735-.19-.184-.183-.368-.183-.551-.373a18.914 18.914 0 0 1-3.69-2.814c-.184 0-.368-.19-.551-.373v1.309a22.508 22.508 0 0 0 6.079 4.121c.383.747 1.485 1.7 5.175 1.7s4.792-.949 4.978-1.7a19.959 19.959 0 0 0 6.092-3.937z"/></g><g class="i"><path class="n" d="M340 90.112a23.139 23.139 0 0 1-5.911-.753c-.551-.183-.919-.557-.735-1.119.184-.373.551-.759.919-.576a23.389 23.389 0 0 0 11.452 0 .715.715 0 0 1 .921.576.91.91 0 0 1-.554 1.119 25.609 25.609 0 0 1-6.092.753z"/></g><g class="i"><path class="o" d="M340 70.433V81.5h-4.241a2.209 2.209 0 0 1 .551-1.138A6.32 6.32 0 0 0 337.965 77l.18-4.7A1.938 1.938 0 0 1 340 70.433z"/></g><g class="i"><path class="m" d="M344.241 81.5a1.32 1.32 0 0 1-1.475 1.3c-.367 0-.548.379-.933.753A3.228 3.228 0 0 1 340 84.3a3.95 3.95 0 0 1-1.854-.746c-.367-.373-.548-.753-.734-.753-1.1 0-1.652-.557-1.652-1.3h8.484z"/></g><g class="i"><path class="p" d="M322 83.541v-2.8c-.087-.575-.822-.575-1 0v2.8c.178.373.913.373 1 0z"/></g><path d="M320.244 84.49a1.281 1.281 0 0 0 1.3 1.309 1.431 1.431 0 0 0 1.47-1.309 1.6 1.6 0 0 0-1.47-1.5 1.45 1.45 0 0 0-1.3 1.5z" class="i"/><g class="i"><path class="p" d="M359 83.357v-2.8c-.365-.576-.919-.576-1 0v2.8c.081.374.635.374 1 0z"/></g><path d="M356.98 84.306a1.262 1.262 0 0 0 1.288 1.3 1.425 1.425 0 0 0 1.469-1.3 1.465 1.465 0 0 0-1.469-1.511c-.741 0-1.288.562-1.288 1.511z" class="i"/><g class="i"><path class="k" d="M324 64.979s19.019-9.556 21.222-16.31l-7.38-2.631-11.621 3.75L324 60.666v4.313z"/></g><g class="i"><path class="k" d="M358 63.107s-16.429-8.247-18.271-14.065l6.279-2.258 9.957 3.194L358 59.357z"/></g><path d="M365.281 119.178a9.541 9.541 0 0 0 6.64 11.625 9.337 9.337 0 0 0 11.625-6.754 9.6 9.6 0 0 0-6.827-11.625 9.372 9.372 0 0 0-11.438 6.754zM341 115.987V159.5h-.372a72.843 72.843 0 0 1-9.145-.56c-.945-.187-1.876-.373-2.805-.56a48.8 48.8 0 0 1-7.285-1.7A75.17 75.17 0 0 1 310 152v-4.126l-.077-.56-.75-16.884-.184-3.19-.184-5.618c-.184-1.136.195-1.136.195-1.136v-2.241l4.43-.745h.735l1.286 1H316l9.417-1.391 2.955-.373 8.483-.56c2.772-.187 2.772-.676 2.772-.676H341z" class="i"/><path d="M372.6 117.9l-.2 3.984-.4 6.557v2.793l-1 17.537v3.208a66.977 66.977 0 0 1-11.591 4.7 46.092 46.092 0 0 1-5.03 1.326 43.323 43.323 0 0 1-5.225.936 67.061 67.061 0 0 1-8.782.561H340v-44h-1.081l1.217.2 10.481.595 4.231.4 10.494.81h2.428zM316 122.928v.56c-.179.56-3.062 20.822-3.42 24.2l-2.33-.187h-.179c-9.186-1.136-15.479 1.56-15.838 1.187.911-6.94 2.872-23.315 3.768-28.389v-.373c1.986.185 17.999 3.002 17.999 3.002z" class="i"/><path d="M315.819 118.8a9.366 9.366 0 1 1-18.085 4.871 9.558 9.558 0 0 1 6.646-11.625 9.375 9.375 0 0 1 11.439 6.754z" class="i"/><g class="i"><path class="q" d="M356.2 108.123l-.2.393v.346l-.187 7.874-.366 7.7-1.279 33.567a42.276 42.276 0 0 1-5.152.934 65.378 65.378 0 0 1-8.659.56h-.366a70.746 70.746 0 0 1-9.011-.56 834.42 834.42 0 0 1-2.764-.56l-4.616-31.136.382-2.988 1.1-7.516.367-3.175.55-4.139v.274l.184-1.181s.733.2 1.848.59a8.733 8.733 0 0 1 1.65.394h.184c1.462.388 3.088.6 4.907.985l.517.018c.558-.029 1.35.194 1.939.194a31.243 31.243 0 0 0 6.077 0 42.5 42.5 0 0 0 8.461-1.2 38.384 38.384 0 0 0 4.434-1.374z"/></g><path d="M368 129.128v.745l-1.332 4.311-7.554 22.876a47.173 47.173 0 0 1-5.089 1.323 44.4 44.4 0 0 1-5.287.934c.751-9.2 1.694-20.059 2.261-26.252v-.565l1.169-9.2c.187-1.494-.169-1.494-.169-1.494v-5.073l1-5.431v-1.883a39.322 39.322 0 0 1-1.2-6.552c-.18-.575-.18-.949-.367-.949 3.877 1.7 3.565 1.7 3.565 1.7v.338l4.39 1.67.741.372 2.919 1.5h.377l2.555 9.314.364 1.129.561 2.042.179.557-.377.186-2.006 1.686-2.932 2.042 3.482 1.5.544.371 1.291.557.186.186a2.143 2.143 0 0 1 .729 2.06z" class="i"/><g class="i"><path class="l" d="M335.756 110.37l4.061 23.809 3.87-23.622-.554-2.07-7.377 1.883z"/></g><path d="M332.165 159.311c-1-.187-1.984-.373-2.967-.56a54.135 54.135 0 0 1-7.706-1.7l-7.706-22.5-1.394-4.311-.393-.934v-.114a2.274 2.274 0 0 1 .952-2.491l1.685-.762.562-.191 3.2-1.348-2.638-2.094-2.06-1.539-.749-.381.374-1.142.188-.762.188-.571.562-1.729 3.388-9.551.562-.191.188-.191 9.6-4.41v1.025l1 6.178v8.637l.2 3.75.2 1.68.59 9.57c.584 6.185 1.371 17.249 2.174 26.632zM356.046 74.731a4.524 4.524 0 0 1-1.1 1.5 7.815 7.815 0 0 1-1.288.759 15.626 15.626 0 0 1-4.244.563c-1.3-.19-2.956 0-4.257-.949a7.542 7.542 0 0 1-1.836-3.365 4.817 4.817 0 0 1-.187-3.561 5.3 5.3 0 0 1 3.51-1.512 36.081 36.081 0 0 1 4.425-.373 9.742 9.742 0 0 1 3.323 0c.367 0 .554.19.921.19 2.768.746 1.48 4.87.733 6.748zm-18.571-1.492a6.4 6.4 0 0 1-2.021 3.365c-1.118.949-2.771.759-4.073.949a15.643 15.643 0 0 1-4.242-.563 3.886 3.886 0 0 1-1.653-1.132 3.928 3.928 0 0 1-.735-1.126c-.567-1.3-1.3-3.75-.751-5.243v-.2a2.136 2.136 0 0 1 1.485-1.3.66.66 0 0 0 .551-.19 12.015 12.015 0 0 1 3.69 0 30.49 30.49 0 0 1 4.242.373c1.286.19 2.771.373 3.505 1.512.736 1.116.189 2.423.002 3.555zm20.884-5.146c0-.2 0-.4-.176-.4s-.358 0-.358-.2h-1.257a11.473 11.473 0 0 0-2.528-.2 11.038 11.038 0 0 0-2.528-.2 21.7 21.7 0 0 0-5.037.594c-1.81.2-3.6.6-5.413.8h-1.988a20.2 20.2 0 0 0-5.357-1.268 26.014 26.014 0 0 0-5.344-.557c-.934 0-2.771-.175-2.771-.175h-3.85c-.377.186-.564.186-.753.566v2.868c0 .186.188.379.376.566h.188c.188.379.377.765.564 1.145a10.9 10.9 0 0 0 .753 2.288 4.4 4.4 0 0 0 1.709 2.674 1.4 1.4 0 0 0 .754.379 12.468 12.468 0 0 0 5.284.951 7.6 7.6 0 0 0 4.548-.951 7.845 7.845 0 0 0 2.823-4v1.121c.176-.412.358-.81.553-1.208 0-.4.176-.8 0-1.2-.194-.993.893-1.194 1.616-1.194.535 0 1.61.2 1.434 1.194a2.86 2.86 0 0 0 .176 1.2 13.147 13.147 0 0 0 .553 1.411c.541 1.593 1.257 3.388 2.692 4.2a6.7 6.7 0 0 0 4.338 1 10.216 10.216 0 0 0 4.86-1 .621.621 0 0 0 .535-.2 4.394 4.394 0 0 0 1.987-3.011 12.034 12.034 0 0 1 .723-2.4c.176-.4.176-.8.535-1v-.2a1.043 1.043 0 0 0 .358-.594 3.237 3.237 0 0 0 .183-1.411 3.275 3.275 0 0 0-.182-1.588z" class="i"/><g class="i"><path class="p" d="M265 96.814L254.452 64.5h4.507l5.034 15.918c1.39 4.363 2.589 8.295 3.453 12.082h-.218c.911-3.739 2.253-7.816 3.692-12.034l5.464-15.966H281l-11.442 32H265zM284 64.272a41.267 41.267 0 0 1 7.783-.685c4.26 0 7 .734 9.057 2.4a6.918 6.918 0 0 1 2.741 5.825c0 3.182-2.1 5.972-5.581 7.245v.1c3.133.783 6.805 3.378 6.805 8.273a8.894 8.894 0 0 1-2.79 6.608c-2.3 2.1-6.022 3.084-11.407 3.084a49.786 49.786 0 0 1-6.608-.394zm5 13.228h3.792c4.416 0 7.008-2.3 7.008-5.424 0-3.793-2.88-5.281-7.1-5.281a17.987 17.987 0 0 0-3.7.288V77.5zm0 16.337a22.337 22.337 0 0 0 3.5.191c4.32 0 8.3-1.584 8.3-6.288 0-4.417-3.792-6.24-8.353-6.24H289z"/></g><g class="r"><path class="s" d="M430.733 27.5h126.283A17.984 17.984 0 0 1 575 45.484v82.032a17.984 17.984 0 0 1-17.984 17.984H455.325L437 172.059l-.158-26.559h-5.858A17.984 17.984 0 0 1 413 127.516V45.429A17.83 17.83 0 0 1 430.733 27.5z"/></g><g class="r"><path class="t" d="M553.449 137.822l-36.385-13.893 7.976-21.051 36.385 13.893-7.976 21.051z"/></g><g class="r"><path class="u" d="M553.856 148.865c-.607.407-1.013.611-1.641 1.018-.82-4.7-1.634-8.99-2.24-12.875 0-.2-.207-.407-.207-.611a2.621 2.621 0 0 0-.2-1.221c-.407-2.256-.813-4.513-1.02-6.344a8.9 8.9 0 0 1 1.02-6.124 9.034 9.034 0 0 1 6.532-4.508 12.026 12.026 0 0 1 4.715.407 9.824 9.824 0 0 1 5.715 7.158c.407 1.849.614 4.088 1.02 6.344.207.611.207 1.221.407 1.628.207 1.238.407 2.256.627 3.477a69.17 69.17 0 0 1-14.728 11.651z"/></g><g class="r"><path class="t" d="M571.2 145.5c-.614.611-3.593.389-4 1-4.309 4.495-8.317-.909-13.832 2.364-.607.407-1.013.611-1.641 1.018-1.02.611-2.041 1.035-3.054 1.646-.614-6.14-1.441-11.857-1.854-16.148-.407-2.867-.607-4.919-.814-6.141v-.2l2.054-.2 6.328-1.222 2.661-.407 8.989-1.442 2.054-.407c.203 1.639 2.491 15.22 3.109 20.139z"/></g><g class="r"><path class="t" d="M546.7 124.336a11.2 11.2 0 1 0 21.66 5.716 11.2 11.2 0 1 0-21.66-5.716z"/></g><g class="r"><path class="t" d="M516.589 159.5h-.425c-2.47 0-4.951-.206-7.416-.411-1.045-.206-2.276-.206-3.3-.428a66.853 66.853 0 0 1-21.248-6.591 1.073 1.073 0 0 1-.839-.411c-1.233-.617-2.465-1.25-3.715-1.866l-.617-12.378-.206-3.921-.411-6.591-.2-4.127 8.457-.411 13.628-1.045 4.126-.411 2.055-.2 4.126-.2h1.142l1.644.156c2.447-.2 2.447.844 2.447.844H517v38z"/></g><g class="r"><path class="t" d="M480.68 137.211l-8.176-21.051 36.589-13.706 7.971 20.865-36.384 13.892z"/></g><g class="r"><path class="t" d="M555.635 122.908l-.2 4.52-.208 7.4-.2 3.07-.616 10.9c-.61.409-1.019.614-1.65 1.024-1.026.614-2.053 1.041-3.071 1.655a73.936 73.936 0 0 1-22.212 7.181 18.347 18.347 0 0 0-3.292.426c-2.253.205-4.52.205-6.773.409H517v-39h1.285l.813 1h1.648l1.427-1h.575l4.646.44 4.422.221 16.36 1.339h1.924z"/></g><g class="r"><path class="t" d="M488 128.628v.2c-.408 1.832-.611 3.885-1.018 6.14-.2.611-.2 1.222-.407 1.832-.814 4.495-1.628 9.6-2.46 14.927-1.222-.611-2.442-1.238-3.681-1.849a76.855 76.855 0 0 1-16.353-12.671.713.713 0 0 0-.2-.407c.2-1.425.407-2.663.611-3.885.424-2.867 1.035-5.309 1.238-7.769a.2.2 0 0 0 .2-.2l11.043 1.849 2.239.407z"/></g><g class="r"><path class="t" d="M488 128.628v.2c-.2 1.221-.408 3.274-.814 6.14a1543.337 1543.337 0 0 0-2.239 17.167 1.063 1.063 0 0 1-.831-.407c-1.222-.611-2.442-1.238-3.681-1.849-6.124-3.477-14.445 5.521-19.365.618.831-5.513 4.454-23.3 4.658-25.35a.2.2 0 0 0 .2-.2l11.043 1.849 2.239.407z"/></g><g class="r"><path class="t" d="M487.415 123.929a11.2 11.2 0 1 1-21.662 5.716 11.2 11.2 0 1 1 21.662-5.716z"/></g><g class="r"><path class="t" d="M487.415 110.63l9.414-3.664 2.035 4.496-11.449-.832z"/></g><g class="r"><path class="v" d="M500.917 113.7s12.06 11.043 29.839 0l-27.192-3.274z"/></g><g class="r"><path class="w" d="M509.7 107.374l-9.821 3.681c.2 1.629.2 3.257 1.239 4.5.2.407.407.611.407 1.017l14.1 12.671 15.131-15.543z"/></g><g class="r"><path class="x" d="M534 106.673v.7c-.377 1.832-.99 7.141-2 14.1v.406c-.025 2.256-.431 4.919-.638 7.362-1.22 9.821-2.64 20.847-4.288 29.431a18.244 18.244 0 0 0-3.274.424c-2.24.2-6.735.408-6.735.408h-.672c-2.45 0-4.911-.2-7.357-.406-1.036-.2-2.258-.2-3.278-.423-1.647-8.562-3.074-19.561-4.3-29.359-.2-2.656-.612-5.092-.815-7.546-.832-6.921-1.444-12.234-1.648-14.265v-.829l2.87 3.875.815 1.032 4.3 5.7.612.812.407.406h16.371l.628-.812 1.021-1.219 2.243-2.859.422-.406 5.316-6.312v-.219z"/></g><g class="r"><path class="t" d="M523.8 159.094c-2.192.2-4.4.2-6.591.406h-.81c-2.395 0-4.8-.2-7.191-.406.2-10.2 1.593-22.033 1.593-22.033.2-3.063 3.2-6.938 3.2-6.938a14.155 14.155 0 0 1-2.8-4.281c0-.406-.2-.61-.2-1.015a3.285 3.285 0 0 1-.6-1.625 8.807 8.807 0 0 1-.4-1.235v-.294a4.768 4.768 0 0 1 .719-.814 30.257 30.257 0 0 1 3.88-2.259c.207 0 .407-.2.407-1.1h.407a3.88 3.88 0 0 0 .414 1h.2s.207-.506.407-.506l.221-.494h.207c2.44-.523 1.22.088.407.291-.207 0-.407.709-.407.709s0-.506.2-.3c.207 0 .407.3.407.3h.53c.4.2.6.423 1 .625a12.191 12.191 0 0 1 3.2 1.828c.4.2.594.61.8.812v.2a9.242 9.242 0 0 1-.4 1.235 17.836 17.836 0 0 1-.8 2.437 12.935 12.935 0 0 1-2.8 4.487s3 3.876 3.2 6.938c.005-.001 1.4 11.829 1.6 22.032z"/></g><g class="r"><path class="w" d="M503 103.8v-8.3h28v9.8c0 8.089-7.125 13.134-15.5 12.4a13.881 13.881 0 0 1-12.5-13.9z"/></g><g class="r"><path class="y" d="M534.916 82.883a59.509 59.509 0 0 0-2.68-19.767c-.826-3.5-1.236-8.645-3.284-11.734-1.66-2.68-4.957-2.68-8.026-2.479-6.395.41-15.447 6.8-17.72 12.97a43.981 43.981 0 0 0-2.255 10.3c-.632 3.09-2.272 7-1.658 10.283a3.4 3.4 0 0 1 3.707 3.5V99.97a19.434 19.434 0 0 0 14.009 5.963A20.145 20.145 0 0 0 531 99.97v-13.6a3.447 3.447 0 0 1 3.916-3.487z"/></g><g class="r"><path class="w" d="M538.524 75.073c0 16.966-9.4 28.823-21.867 28.823-12.688 0-21.678-11.857-21.678-28.823 0-17.179 8.99-31.07 21.678-31.07 15.725-.003 21.867 13.891 21.867 31.07z"/></g><g class="r"><path class="w" d="M497.949 71.5h-2.913A2.036 2.036 0 0 0 493 73.536v8.681a2.12 2.12 0 0 0 2.055 2.283h2.072z"/></g><g class="r"><path class="w" d="M536.031 71.5h2.915A2.054 2.054 0 0 1 541 73.554v8.663a2.135 2.135 0 0 1-2.074 2.283h-2.053z"/></g><path d="M507.244 75.894a1.847 1.847 0 0 0 1.849-1.854 2.182 2.182 0 0 0-1.849-1.627 1.794 1.794 0 0 0-1.628 1.834 1.757 1.757 0 0 0 1.628 1.647zM527.274 76.094a1.68 1.68 0 0 0 1.648-1.847 1.764 1.764 0 0 0-1.648-1.627 1.952 1.952 0 0 0-1.627 1.827 1.752 1.752 0 0 0 1.627 1.647z" class="r"/><path d="M539 62.533v12.078a.961.961 0 0 1-1.014 1.02.876.876 0 0 1-.815-.813l-1.035-14.925c0-.614-.415-2.868-1.021-2.668l-4.907.614a111.088 111.088 0 0 1-26.207 0l-4.7-.614c-.612-.2-1.018 2.054-1.222 2.668l-1.229 14.718a.756.756 0 0 1-.832.813.931.931 0 0 1-1.018-.813V62.533c0-11.023 7.574-20.033 16.983-20.033h10.039c9.407 0 16.978 9.01 16.978 20.033z" class="r"/><path d="M534.436 78.755a.2.2 0 0 1-.207.207c-1.22 1.22-3.474 1.627-5.508 1.627-4.308 0-5.942-1.427-7.769-3.881-4.088-6.142 3.461-7.163 7.769-7.163a13.81 13.81 0 0 1 4.7.614 3.619 3.619 0 0 1 2.447 2.054c0 .607.2 1.013.2 1.627a2.675 2.675 0 0 1-.2 1.234 5.3 5.3 0 0 1-1.432 3.681zm-21.866-2.048c-1.645 2.454-3.478 3.881-7.566 3.881-2.052 0-4.495-.407-5.733-1.627a.2.2 0 0 0-.2-.207c-1.221-1.234-1.425-3.474-1.425-4.915a3.508 3.508 0 0 1 3.274-3.888 23.272 23.272 0 0 1 4.08-.407c4.093.001 11.864 1.021 7.57 7.163zm25.747-6.756a.629.629 0 0 0-.407-.2 8.309 8.309 0 0 1-1.42-.207 14.694 14.694 0 0 0-3.275-.407 26.8 26.8 0 0 0-4.088-.2A49.85 49.85 0 0 0 519.1 70.5h-4.5c0-.343-6.121-1.563-10.226-1h-3.254a9.872 9.872 0 0 0-4.089.044 6.6 6.6 0 0 1-1.441.207 1.472 1.472 0 0 0-.59.2v2.262c.183.407.794.2 1.2.607a2.374 2.374 0 0 1 .424 1.427c.2.827.407 1.648.611 2.661 0 .207.2.407.2.614a3.913 3.913 0 0 0 1.425 2.254.2.2 0 0 1 .2.207c1.018.813 2.867 1.22 5.53 1.22 4.088 0 6.124-.614 7.973-3.075.813-1.013 1.426-2.234 2.033-3.054.207-.827.4-1.641.4-1.641v-.311a2.293 2.293 0 0 1 1.275-.418c1.877 0 2.09 2.947 4.2 5.453 1.877 2.528 3.987 3.159 8.4 3.159 2.507 0 4.405-.418 5.453-1.253a.206.206 0 0 0 .205-.213A4.312 4.312 0 0 0 536 77.74v-.219s.69-2.24.9-3.075c.2-.813.407-1.42.407-1.627.407-.2 1.013-.2 1.013-.319H538v-1.936c.524-.406.317-.406.317-.613z" class="r"/><g class="r"><path class="z" d="M496.625 71.392a1.577 1.577 0 0 1-1.035-.2 1.532 1.532 0 0 1 1.035-.207 1.207 1.207 0 0 1 .814.207 1.239 1.239 0 0 1-.814.2z"/></g><g class="r"><path class="z" d="M537.1 71.392a1.6 1.6 0 0 1-1.034-.2 1.558 1.558 0 0 1 1.034-.207 1.194 1.194 0 0 1 .813.207 1.227 1.227 0 0 1-.813.2z"/></g><g class="r"><path class="y" d="M517 73.277a2.313 2.313 0 0 0-2.461 2.254c0 2.44-.813 5.922-2.257 5.922a2.042 2.042 0 0 0-2.036 2.047H517z"/></g><g class="r"><path class="aa" d="M517 87.18a3.2 3.2 0 0 1-1.855-.627c-.407-.607-1.627-.813-2.863-.813a2.226 2.226 0 0 1-2.036-2.24H517v3.68z"/></g><g class="r"><path class="aa" d="M517 87.5a3.42 3.42 0 0 0 1.986-.682c.442-.66 1.776-.884 2.9-.884a2.448 2.448 0 0 0 2.428-2.435H517v4z"/></g><g class="r"><path class="ab" d="M522.779 92.65c.207.61-.2 1.017-.814 1.221l-1.22.2a25.328 25.328 0 0 1-3.881.407 22.485 22.485 0 0 1-3.888-.407l-1.441-.2a.989.989 0 0 1-.611-1.221.9.9 0 0 1 1.221-.815l1.237.2a13.375 13.375 0 0 0 6.942 0l1.234-.2a.9.9 0 0 1 1.221.815z"/></g><g class="r"><path class="ac" d="M501.731 128.832l15.333-10.84-1.034-.407-7.972-.203-6.734 7.768.407 3.682z"/></g><g class="r"><path class="ac" d="M531.162 129.035l-15.332-10.636 1.034-.61 7.969-.204 6.736 7.769-.407 3.681z"/></g><g class="r"><path class="x" d="M500.849 105.525s9.6 11.246 16.151 11.857v1.018s-10.231 4.309-15.337 9.618c0 0-2.256-13.5-2.663-21.882z"/></g><g class="r"><path class="x" d="M532.552 105.525s-10.01 11.246-16.552 11.857v1.018a2.077 2.077 0 0 1 1.034.424c2.64 1.222 10.21 4.9 14.3 9.194 0 0 2.461-13.5 2.661-21.882z"/></g><g class="r"><path class="w" d="M503.36 104.5h-.408l-2.239.814 2.239 2.459 1.222-1.848-.814-1.425z"/></g><g class="r"><path class="w" d="M532.382 105.525l-2.44-.814a17.283 17.283 0 0 1 0 3.274z"/></g><g class="r"><path class="p" d="M438 65.5h17v4h-13v10h12v3h-12v15h-4zM461.654 97.5l1.232-9H459v-3h4.5l.912-7H460v-3h4.513l1.235-9h2.752l-1.187 9h4.939l1.235-9h2.8l-1.187 9h3.9v3h-3.96l-.783 7H478v3h-4.5l-1.232 9h-2.843l1.232-9h-4.927l-1.232 9zm9.729-12l.917-7h-5.021l-.917 7z"/></g><path class="ad" d="M475 264.917a7.693 7.693 0 0 1-7.8 7.583H162.768a7.685 7.685 0 0 1-7.768-7.583v-75.834a7.7 7.7 0 0 1 7.768-7.583H467.2a7.709 7.709 0 0 1 7.8 7.583z"/><path class="q" d="M478 261.917a7.693 7.693 0 0 1-7.8 7.583H165.768a7.685 7.685 0 0 1-7.768-7.583v-75.834a7.7 7.7 0 0 1 7.768-7.583H470.2a7.709 7.709 0 0 1 7.8 7.583z"/><path class="ae" d="M179 192.5c0 .666-.316 1-.631 1h-9.436a.932.932 0 0 1-.932-.932v-5.132a.936.936 0 0 1 .936-.936h9.438c.313 0 .626.33.626.991v5.009zM179 205.515c0 .639-.313.985-.626.985h-9.441a.932.932 0 0 1-.932-.932v-9.083c0-.666.314-.985.941-.985h9.433c.313 0 .626.319.626.985v9.03zM193 205.515a1.058 1.058 0 0 1-.965.985h-9.409c-.314 0-.626-.346-.626-.985v-9.03c0-.666.312-.985.626-.985h9.409a1.034 1.034 0 0 1 .965.985zM199.655 219.5a1.206 1.206 0 0 1-.622 1h-9.092c-.626 0-.941-.3-.941-.6v-8.8c0-.3.314-.6.941-.6h9.434a.627.627 0 0 1 .625.625v8.375zM213.375 220.5h-9.753a.624.624 0 0 1-.622-.622v-8.753a.627.627 0 0 1 .625-.625h9.753a.624.624 0 0 1 .622.622v8.753a.627.627 0 0 1-.625.625zM228 219.9c0 .3-.313.6-.941.6h-9.438a.623.623 0 0 1-.621-.621v-8.754a.627.627 0 0 1 .625-.625h9.434c.628 0 .941.3.941.6zM241 219.875a.627.627 0 0 1-.625.625h-9.434c-.628 0-.941-.3-.941-.6v-8.8c0-.3.313-.6.941-.6h9.438a.623.623 0 0 1 .621.621zM254.375 220.5h-9.75a.627.627 0 0 1-.625-.625v-8.75a.627.627 0 0 1 .625-.625h9.75a.627.627 0 0 1 .625.625v8.75a.627.627 0 0 1-.625.625zM269 219.9c0 .3-.308.6-.935.6h-9.443a.624.624 0 0 1-.622-.622v-8.753a.627.627 0 0 1 .625-.625h9.44c.627 0 .935.3.935.6zM283 219.875a.627.627 0 0 1-.625.625h-9.43c-.626 0-.945-.3-.945-.6v-8.8c0-.3.319-.6.945-.6h9.434a.623.623 0 0 1 .621.621zM296.379 220.5h-9.758a.623.623 0 0 1-.621-.621v-8.754a.627.627 0 0 1 .625-.625h9.754a.623.623 0 0 1 .621.621v8.758a.623.623 0 0 1-.621.621zM310 219.9c0 .3-.339.6-.963.6h-9.416a.623.623 0 0 1-.621-.621v-8.754a.627.627 0 0 1 .625-.625h9.412c.625 0 .963.3.963.6v8.8zM324 219.875a.627.627 0 0 1-.625.625h-9.43c-.626 0-.945-.3-.945-.6v-8.8c0-.3.319-.6.945-.6h9.434a.623.623 0 0 1 .621.621zM207 205.538a.962.962 0 0 1-.962.962h-9.411c-.313 0-.627-.346-.627-.985v-9.03c0-.666.314-.985.627-.985h9.432c.627 0 .941.319.941.985zM221 205.515c0 .639-.312.985-.652.985h-9.415a.932.932 0 0 1-.932-.932v-9.083c0-.666.313-.985.939-.985h9.409c.339 0 .652.319.652.985v9.03zM235 205.515c0 .639-.324.985-.646.985h-9.709c-.322 0-.645-.346-.645-.985v-9.03c0-.666.322-.985.645-.985h9.709c.322 0 .646.319.646.985zM248 205.538a.962.962 0 0 1-.962.962h-9.412c-.312 0-.626-.346-.626-.985v-9.03c0-.666.314-.985.626-.985h9.435c.626 0 .939.319.939.985v9.053zM262 205.515c0 .639-.313.985-.628.985h-9.439a.932.932 0 0 1-.932-.932v-9.083c0-.666.313-.985.941-.985h9.431c.314 0 .628.319.628.985v9.03zM276 205.515c0 .639-.307.985-.625.985h-9.411a1.054 1.054 0 0 1-.964-.985v-9.03a1.031 1.031 0 0 1 .964-.985h9.411c.318 0 .625.319.625.985zM290 205.538a.962.962 0 0 1-.962.962h-9.412c-.319 0-.627-.346-.627-.985v-9.03c0-.666.308-.985.627-.985h9.428c.627 0 .945.319.945.985v9.053zM303.038 206.5h-9.112a.926.926 0 0 1-.926-.926v-9.089c0-.666.308-.985.934-.985h9.121c.626 0 .945.319.945.985v9.053a.962.962 0 0 1-.962.962zM317 205.515c0 .639-.308.985-.626.985h-9.437a.936.936 0 0 1-.936-.936v-9.079c0-.666.319-.985.945-.985h9.429c.318 0 .626.319.626.985v9.03zM331 205.515a1.037 1.037 0 0 1-.945.985h-9.429c-.308 0-.626-.346-.626-.985v-9.03c0-.666.318-.985.626-.985h9.429a1.014 1.014 0 0 1 .945.985zM338 219.9a.669.669 0 0 1-.657.6h-9.718a.627.627 0 0 1-.625-.625v-8.75a.627.627 0 0 1 .625-.625h9.718a.671.671 0 0 1 .657.6zM352 219.9c0 .3-.318.6-.945.6h-9.434a.623.623 0 0 1-.621-.621v-8.758a.623.623 0 0 1 .621-.621h9.434c.627 0 .945.3.945.6zM203 233.539a.847.847 0 0 1-.964.961h-9.41c-.314 0-.626-.32-.626-.961v-9.051c0-.347.312-.988.626-.988h9.41a1.02 1.02 0 0 1 .964.988zM217 233.539c0 .641-.313.961-.628.961h-9.432a1.01 1.01 0 0 1-.94-.961v-9.051a1.415 1.415 0 0 1 .94-.988h9.432c.314 0 .628.641.628.988zM231 233.563a.937.937 0 0 1-.937.937h-9.1a.847.847 0 0 1-.964-.961v-9.051a1.02 1.02 0 0 1 .964-.988h9.1a1.017 1.017 0 0 1 .938.988v9.075zM245 233.539a1.01 1.01 0 0 1-.94.961h-9.432c-.314 0-.628-.32-.628-.961v-9.051c0-.347.313-.988.628-.988h9.432a1.417 1.417 0 0 1 .94.988zM258 233.539c0 .641-.314.961-.628.961h-9.439a.932.932 0 0 1-.932-.932v-9.08a1.018 1.018 0 0 1 .941-.988h9.431c.313 0 .628.641.628.988v9.051zM272 233.564a.936.936 0 0 1-.936.936h-9.436c-.313 0-.628-.32-.628-.961v-9.051c0-.347.314-.988.628-.988h9.427a1.014 1.014 0 0 1 .945.988zM286 233.539c0 .641-.308.961-.626.961h-9.429a1.011 1.011 0 0 1-.945-.961v-9.051a1.414 1.414 0 0 1 .945-.988h9.429c.318 0 .626.641.626.988zM300 233.539c0 .641-.308.961-.627.961h-9.437a.936.936 0 0 1-.936-.936v-9.076a1.023 1.023 0 0 1 .945-.988h9.428c.319 0 .627.641.627.988zM314 233.539a1.01 1.01 0 0 1-.945.961h-9.428c-.308 0-.627-.32-.627-.961v-9.051c0-.347.319-.988.627-.988h9.428a1.413 1.413 0 0 1 .945.988zM210 246.875a.663.663 0 0 1-.627.625h-9.432c-.628 0-.941-.3-.941-.625v-8.438a.937.937 0 0 1 .937-.937h9.436c.313 0 .627.3.627.9zM223.354 247.5h-9.709a.647.647 0 0 1-.645-.645V238.4c0-.6.322-.9.645-.9h9.709c.322 0 .646.3.646.9v8.454a.648.648 0 0 1-.646.646zM238 246.875c0 .325-.314.625-.941.625h-9.431a.665.665 0 0 1-.628-.625V238.4c0-.6.314-.9.628-.9h9.435a.937.937 0 0 1 .937.937zM252 246.875a.663.663 0 0 1-.626.625h-9.433c-.314 0-.941-.3-.941-.625V238.4a.983.983 0 0 1 .941-.9h9.433c.313 0 .626.3.626.9zM265.655 246.5c0 .657-.964 1-.964 1h-9.066a.662.662 0 0 1-.625-.625V238.4c0-.6.313-.9.625-.9h9.417a.958.958 0 0 1 .958.958v8.042zM279 246.874a.628.628 0 0 1-.626.626h-9.429c-.626 0-.945-.3-.945-.625V238.4c0-.6.319-.9.945-.9h9.429c.318 0 .626.3.626.9zM293 246.875c0 .325-.318.625-.942.625h-9.433a.666.666 0 0 1-.625-.625V238.4c0-.6.318-.9.625-.9h9.439a.936.936 0 0 1 .936.936zM328 233.5c0 .667-.332 1-.651 1h-9.424a.926.926 0 0 1-.926-.926v-9.086a1.012 1.012 0 0 1 .934-.988h9.44c.308 0 .626.641.626.988v9.012zM342 233.5a1 1 0 0 1-1 1h-9.364c-.319 0-.637-.32-.637-.961v-9.051c0-.347.318-.988.637-.988h9.429a1.012 1.012 0 0 1 .934.988v9.012zM426 233.563a.937.937 0 0 1-.937.937h-9.437c-.308 0-.626-.32-.626-.961v-9.051c0-.347.319-.988.626-.988h9.429a1.023 1.023 0 0 1 .945.988v9.075zM440 233.539c0 .641-.317.961-.645.961h-9.71c-.328 0-.645-.32-.645-.961v-9.051c0-.347.317-.988.645-.988h9.71c.328 0 .645.641.645.988zM454 233.539c0 .641-.308.961-.626.961h-9.437a.936.936 0 0 1-.936-.936v-9.076a1.023 1.023 0 0 1 .945-.988h9.429c.319 0 .626.641.626.988v9.051zM321 246.875c0 .325-.625.625-.933.625h-9.42a.687.687 0 0 1-.647-.625V238.4c0-.6.339-.9.647-.9h9.42a.981.981 0 0 1 .933.9zM307 246.875a.627.627 0 0 1-.625.625h-9.44c-.627 0-.935-.3-.935-.625V238.4c0-.6.308-.9.935-.9h9.438c.319 0 .627.3.627.9zM334.655 246.5a1.247 1.247 0 0 1-.626 1h-9.1c-.626 0-.934-.3-.934-.625v-8.449a.926.926 0 0 1 .926-.926h9.448c.308 0 .626.3.626.9v8.1zM439.375 247.5h-9.43a.948.948 0 0 1-.945-.945V238.4a.983.983 0 0 1 .945-.9h9.428c.319 0 .627.3.627.9v8.475a.627.627 0 0 1-.625.625zM426 246.875c0 .325-.319.625-.945.625h-9.43a.667.667 0 0 1-.626-.625V238.4c0-.6.319-.9.626-.9h9.438a.936.936 0 0 1 .936.936v8.439zM453.655 246.5c0 .657-.934 1-.934 1h-9.094a.668.668 0 0 1-.627-.625V238.4c0-.6.319-.9.627-.9h9.436a.937.937 0 0 1 .937.937v8.063zM366 219.875a.627.627 0 0 1-.625.625h-9.4c-.656 0-.974-.3-.974-.6v-8.8c0-.3.318-.6.974-.6h9.4a.623.623 0 0 1 .621.621zM426 219.875a.627.627 0 0 1-.625.625h-9.43c-.626 0-.945-.3-.945-.6v-8.8c0-.3.319-.6.945-.6h9.434a.623.623 0 0 1 .621.621zM439.375 220.5h-9.75a.627.627 0 0 1-.625-.625v-8.75a.627.627 0 0 1 .625-.625h9.75a.627.627 0 0 1 .625.625v8.75a.627.627 0 0 1-.625.625zM454 219.9c0 .3-.308.6-.934.6h-9.445a.623.623 0 0 1-.621-.621v-8.754a.627.627 0 0 1 .625-.625h9.441c.627 0 .934.3.934.6zM345 205.538a.962.962 0 0 1-.962.962h-9.412c-.319 0-.626-.346-.626-.985v-9.03c0-.666.308-.985.626-.985h9.429c.627 0 .945.319.945.985zM426 205.538a.962.962 0 0 1-.962.962h-9.412c-.308 0-.626-.346-.626-.985v-9.03c0-.666.319-.985.626-.985h9.429c.626 0 .945.319.945.985zM440 205.515c0 .639-.308.985-.627.985h-9.411a.962.962 0 0 1-.962-.962v-9.053c0-.666.318-.985.945-.985h9.428c.319 0 .627.319.627.985zM454 205.515c0 .639-.328.985-.645.985h-9.71c-.317 0-.645-.346-.645-.985v-9.03c0-.666.328-.985.645-.985h9.71c.317 0 .645.319.645.985zM381.375 220.5h-9.754a.623.623 0 0 1-.621-.621v-8.754a.627.627 0 0 1 .625-.625h9.449a.929.929 0 0 1 .926.926v8.449a.627.627 0 0 1-.625.625zM396 219.9c0 .3-.308.6-.935.6h-9.444a.623.623 0 0 1-.621-.621v-8.758a.623.623 0 0 1 .621-.621h9.444c.627 0 .935.3.935.6zM409 219.875a.627.627 0 0 1-.625.625h-9.43c-.626 0-.945-.3-.945-.6v-8.8c0-.3.319-.6.945-.6h9.43a.627.627 0 0 1 .625.625zM382 205.5c0 .649-.323 1-.636 1h-9.439a.926.926 0 0 1-.926-.926v-9.089c0-.666.308-.985.934-.985h9.44c.308 0 .626.319.626.985v9.015zM396 205.515a1.038 1.038 0 0 1-.935.985h-9.438c-.319 0-.627-.346-.627-.985v-9.03c0-.666.308-.985.627-.985h9.438a1.014 1.014 0 0 1 .935.985zM409 205.5a1 1 0 0 1-1 1h-9.374c-.308 0-.627-.346-.627-.985v-9.03c0-.666.319-.985.627-.985h9.439c.626 0 .934.319.934.985v9.015zM381.074 263.5h-9.453a.623.623 0 0 1-.621-.621v-9.418c0-.641.319-.961.627-.961h9.439a1.009 1.009 0 0 1 .934.961v9.113a.929.929 0 0 1-.926.926zM396 262.539a1.008 1.008 0 0 1-.935.961h-9.444a.623.623 0 0 1-.621-.621v-9.418c0-.641.308-.961.627-.961h9.447a.926.926 0 0 1 .926.926zM409 262.564a.938.938 0 0 1-.936.936h-9.119a1.019 1.019 0 0 1-.945-.961v-9.1a.937.937 0 0 1 .937-.937h9.437c.318 0 .626.32.626.961v9.1zM396 248.6a.982.982 0 0 1-.935.9h-9.438c-.319 0-.627-.3-.627-.9v-8.474a.628.628 0 0 1 .626-.626h9.439c.308 0 .935.3.935.626zM467 205.538a.962.962 0 0 1-.962.962h-9.411c-.319 0-.627-.346-.627-.985v-9.03c0-.666.308-.985.627-.985h9.438c.627 0 .935.319.935.985v9.053zM467 260.883c0 .309-.308.617-.935.617h-9.444a.623.623 0 0 1-.621-.621v-22.453c0-.617.308-.926.627-.926h9.447a.926.926 0 0 1 .926.926zM467 232.563a.937.937 0 0 1-.937.937h-9.436c-.319 0-.627-.308-.627-.923v-21.154c0-.616.308-.923.627-.923h9.447a.926.926 0 0 1 .926.926v21.137zM194 192.508c0 .661-.313.992-.652.992h-9.415a.932.932 0 0 1-.932-.932v-5.132a.936.936 0 0 1 .936-.936h9.412c.339 0 .652.33.652.991v5.017zM208 192.5c0 .666-.316 1-.631 1h-9.432a.936.936 0 0 1-.936-.936v-5.128a.936.936 0 0 1 .936-.936h9.438c.313 0 .626.33.626.991v5.009zM222 192.5c0 .666-.316 1-.631 1h-9.432a.936.936 0 0 1-.936-.936v-5.128a.936.936 0 0 1 .936-.936h9.438c.313 0 .626.33.626.991v5.009zM237 192.508c0 .661-.314.992-.628.992h-9.435a.936.936 0 0 1-.936-.936v-5.128a.936.936 0 0 1 .936-.936h9.436c.313 0 .628.33.628.991v5.017zM251 192.508c0 .661-.314.992-.628.992h-9.439a.932.932 0 0 1-.932-.932v-5.132a.936.936 0 0 1 .936-.936h9.436c.313 0 .628.33.628.991v5.017zM265 192.5c0 .666-.31 1-.632 1h-9.431a.936.936 0 0 1-.936-.936v-5.128a.936.936 0 0 1 .936-.936h9.437c.319 0 .627.33.627.991v5.009zM280 192.508c0 .661-.319.992-.627.992h-9.447a.926.926 0 0 1-.926-.926v-5.138a.936.936 0 0 1 .936-.936h9.437c.308 0 .627.33.627.991zM294 192.5c0 .666-.321 1-.63 1h-9.4a.968.968 0 0 1-.968-.968v-5.1a.936.936 0 0 1 .936-.936h9.439c.307 0 .625.33.625.991v5.013zM308 192.508c0 .661-.318.992-.626.992h-9.448a.926.926 0 0 1-.926-.926v-5.138a.936.936 0 0 1 .936-.936h9.438c.308 0 .626.33.626.991zM323 192.508c0 .661-.318.992-.626.992h-9.448a.926.926 0 0 1-.926-.926v-5.138a.936.936 0 0 1 .936-.936h9.438c.308 0 .626.33.626.991zM336.064 193.5h-9.138a.926.926 0 0 1-.926-.926v-5.138a.936.936 0 0 1 .936-.936h9.127a.937.937 0 0 1 .937.937v5.127a.936.936 0 0 1-.936.936zM350.064 193.5h-9.138a.926.926 0 0 1-.926-.926v-5.138a.936.936 0 0 1 .936-.936h9.127a.937.937 0 0 1 .937.937v5.127a.936.936 0 0 1-.936.936zM366 192.508c0 .661-.318.992-.625.992h-9.4a.974.974 0 0 1-.974-.974v-5.035a.991.991 0 0 1 .991-.991h9.384c.307 0 .625.33.625.991zM365 205.515a.864.864 0 0 1-.967.985h-15.406c-.319 0-.627-.346-.627-.985v-9.03c0-.666.308-.985.627-.985h15.416a.957.957 0 0 1 .957.957zM365 233.5c0 .667-.334 1-.691 1h-18.372a.937.937 0 0 1-.937-.937v-9.075a1.026 1.026 0 0 1 .953-.988h18.4a.654.654 0 0 1 .652.652v9.348zM189 233.539a1.007 1.007 0 0 1-.935.961h-18.133a.932.932 0 0 1-.932-.932v-9.08a1.016 1.016 0 0 1 .935-.988h18.13a1.413 1.413 0 0 1 .935.988zM364.655 246.5a1.248 1.248 0 0 1-.638 1h-24.1c-.617 0-.92-.3-.92-.625v-8.438a.937.937 0 0 1 .937-.937h24.425c.3 0 .638.3.638.9v8.1zM195 246.875c0 .325-.3.625-.915.625h-24.171c-.3 0-.914-.3-.914-.625V238.4a.966.966 0 0 1 .914-.9h24.154a.932.932 0 0 1 .932.932zM186 219.9c0 .3-.309.6-.925.6h-15.151c-.616 0-.924-.3-.924-.6v-8.8c0-.3.309-.6.924-.6h15.151c.616 0 .925.3.925.6zM179 261.832c0 .347-.313.668-.941.668h-9.432a.687.687 0 0 1-.627-.668v-10.37c0-.642.313-.962.627-.962h9.441a.932.932 0 0 1 .932.932zM193 261.832c0 .347-.313.668-.941.668h-9.434a.687.687 0 0 1-.626-.668v-10.37c0-.642.313-.962.626-.962h9.442a.932.932 0 0 1 .932.932v10.4zM221 261.853a.649.649 0 0 1-.647.647h-9.708a.7.7 0 0 1-.644-.668v-10.37c0-.642.323-.962.644-.962h9.685c.349 0 .671.32.671.962v10.391zM290 261.832a.688.688 0 0 1-.629.668h-61.752a.683.683 0 0 1-.619-.668v-10.37c0-.642.309-.962.619-.962h61.752c.314 0 .629.32.629.962zM207 261.832c0 .347-.628.668-.941.668h-9.432a.688.688 0 0 1-.627-.668v-10.37c0-.642.314-.962.627-.962h9.432a1.011 1.011 0 0 1 .941.962zM334.655 261.5a1.293 1.293 0 0 1-.626 1h-9.1c-.626 0-.934-.321-.934-.668v-10.395a.937.937 0 0 1 .937-.937h9.437c.308 0 .626.32.626.962V261.5zM453.655 261.5c0 .636-.934 1-.934 1h-9.094a.692.692 0 0 1-.627-.668v-10.37c0-.642.319-.962.627-.962h9.447a.926.926 0 0 1 .926.926V261.5zM438.655 261.5a1.292 1.292 0 0 1-.611 1h-21.123c-.611 0-.921-.321-.921-.668v-10.395a.937.937 0 0 1 .937-.937h21.452c.31 0 .611.32.611.962V261.5zM356.655 261.5a1.292 1.292 0 0 1-.608 1h-9.395a.654.654 0 0 1-.652-.652v-10.386c0-.642.309-.962.639-.962h9.753c.309 0 .608.32.608.962V261.5zM320.655 261.5c0 .636-.933 1-.933 1h-9.075a.71.71 0 0 1-.647-.668v-10.37c0-.642.339-.962.647-.962h9.427a.926.926 0 0 1 .926.926V261.5zM307 261.832c0 .347-.626.668-.945.668h-9.428a.692.692 0 0 1-.627-.668v-10.37c0-.642.319-.962.627-.962h9.428a1.01 1.01 0 0 1 .945.962zM344 262.5h-5.978c-.663 0-1.022-.321-1.022-.668v-10.395a.937.937 0 0 1 .937-.937H344zM359 262.5h6.332a.67.67 0 0 0 .668-.668v-10.37c0-.642-.326-.962-.664-.962H359z"/><path class="ae" d="M448 256.5h-.3a.3.3 0 0 1 .3-.312v.312z"/></svg>