<svg xmlns="http://www.w3.org/2000/svg" viewBox="0 0 300 300"><defs><style>.cls-1{fill:#f6f6f6;opacity:0;}.cls-2{fill:#505050;}.cls-3{fill:#737373;}.cls-4{fill:#c2c2c2;}.cls-5{fill:#f08400;}.cls-6{fill:#f0e300;}.cls-7{fill:#91a80a;}.cls-8{fill:#8562ad;}.cls-9{fill:#fff;}.cls-10{fill:#69afe5;}.cls-11{fill:#40cdf5;}.cls-12{fill:#282828;}</style></defs><title>swimlane-any-language</title><g id="Layer_2" data-name="Layer 2"><g id="Layer_1-2" data-name="Layer 1"><path class="cls-1" d="M300,300H0V0H300Z"/><path d="M227.88,274,18.35,196.46l-4.23,4.23a7.76,7.76,0,0,0-.86.86h0a7.54,7.54,0,0,0-1.82,4.93v67.08a7.61,7.61,0,0,0,6.4,7.51c16,2.58,59.59,8.93,100.52,8.93s84.5-6.35,100.53-8.93a7.63,7.63,0,0,0,4.23-2.19Z"/><path class="cls-2" d="M229.5,269.35a7.6,7.6,0,0,1-6.39,7.5c-16,2.59-59.59,8.94-100.53,8.94s-84.5-6.35-100.53-8.94a7.6,7.6,0,0,1-6.4-7.5V202.26a7.61,7.61,0,0,1,7.6-7.6H221.9a7.6,7.6,0,0,1,7.6,7.6Z"/><path class="cls-3" d="M229.5,255.88V202.26a7.6,7.6,0,0,0-7.6-7.6H168.28Z"/><path class="cls-4" d="M183.52,33.46h60a10.18,10.18,0,0,1,10.17,10.18v46.6a10.17,10.17,0,0,1-10.17,10.17H220.43L198.51,134l3.26-33.54H183.52a10.17,10.17,0,0,1-10.17-10.17V43.64A10.17,10.17,0,0,1,183.52,33.46Z"/><path class="cls-4" d="M131,33.46H71A10.17,10.17,0,0,0,60.83,43.64v46.6A10.17,10.17,0,0,0,71,100.41H94.08l20.41,51.84-1.75-51.84H131a10.17,10.17,0,0,0,10.17-10.17V43.64A10.17,10.17,0,0,0,131,33.46Z"/><path class="cls-5" d="M90.94,87.52H31A10.17,10.17,0,0,0,20.78,97.69V144.3A10.17,10.17,0,0,0,31,154.47H68.78L87.35,192l.09-37.56h3.5a10.17,10.17,0,0,0,10.17-10.17V97.69A10.17,10.17,0,0,0,90.94,87.52Z"/><path class="cls-6" d="M173.3,10h60a10.17,10.17,0,0,1,10.17,10.17v46.6A10.17,10.17,0,0,1,233.29,77H206l-18.56,37.56L187.34,77h-14a10.17,10.17,0,0,1-10.17-10.18V20.17A10.17,10.17,0,0,1,173.3,10Z"/><path class="cls-7" d="M159.28,45.15h-60A10.17,10.17,0,0,0,89.12,55.32v46.6A10.17,10.17,0,0,0,99.3,112.09h23.08l14.31,51.85L141,112.09h18.25a10.17,10.17,0,0,0,10.18-10.17V55.32A10.17,10.17,0,0,0,159.28,45.15Z"/><path class="cls-8" d="M215.4,87.52h60a10.17,10.17,0,0,1,10.17,10.17V144.3a10.17,10.17,0,0,1-10.17,10.17H237.56L212.32,185l6.58-30.5h-3.5a10.17,10.17,0,0,1-10.17-10.17V97.69A10.17,10.17,0,0,1,215.4,87.52Z"/><path class="cls-9" d="M116.07,97.79q-6.67-.09-6.67-6.74V84.54c0-2.93-1.13-4.46-3.39-4.61V77.41c2.26-.14,3.39-1.71,3.39-4.69V66.38q0-6.73,6.67-6.83v2.79c-2.31,0-3.46,1.49-3.46,4.3V73c0,3-1.08,4.91-3.26,5.61v.08c2.18.65,3.26,2.51,3.26,5.56v6.28a5.88,5.88,0,0,0,.77,3.44,3.26,3.26,0,0,0,2.69,1.08Z"/><path class="cls-9" d="M153.28,79.93c-2.26.15-3.39,1.68-3.39,4.61v6.51q0,6.65-6.65,6.74V95.05A3.24,3.24,0,0,0,145.92,94a5.73,5.73,0,0,0,.8-3.43V84.25c0-3,1.08-4.91,3.23-5.56v-.08q-3.22-1-3.23-5.61V66.64c0-2.81-1.16-4.25-3.48-4.3V59.55q6.64.09,6.65,6.83v6.34c0,3,1.13,4.55,3.39,4.69Z"/><polygon class="cls-3" points="205.64 43.74 200.62 59.17 196.95 59.17 200.62 43.74 205.64 43.74"/><path class="cls-3" d="M202.82,33.46a3.36,3.36,0,0,1-2.5-1,3.41,3.41,0,0,1-1-2.48,3.31,3.31,0,0,1,1-2.45,3.59,3.59,0,0,1,5,0,3.26,3.26,0,0,1,1,2.45,3.53,3.53,0,0,1-3.51,3.51Z"/><rect class="cls-10" x="31.98" y="204.67" width="11.59" height="5.27"/><rect class="cls-10" x="46.73" y="204.67" width="11.59" height="5.27"/><rect class="cls-10" x="61.48" y="204.67" width="11.59" height="5.27"/><rect class="cls-10" x="76.23" y="204.67" width="11.59" height="5.27"/><rect class="cls-10" x="90.97" y="204.67" width="11.59" height="5.27"/><rect class="cls-10" x="105.72" y="204.67" width="11.59" height="5.27"/><rect class="cls-10" x="120.47" y="204.67" width="11.59" height="5.27"/><rect class="cls-10" x="135.22" y="204.67" width="11.59" height="5.27"/><rect class="cls-10" x="149.97" y="204.67" width="11.59" height="5.27"/><rect class="cls-10" x="164.72" y="204.67" width="11.59" height="5.27"/><rect class="cls-10" x="25.66" y="217.31" width="8.43" height="7.37"/><rect class="cls-10" x="37.25" y="217.31" width="8.43" height="7.37"/><rect class="cls-10" x="48.84" y="217.31" width="8.43" height="7.37"/><rect class="cls-10" x="60.42" y="217.31" width="8.43" height="7.37"/><rect class="cls-10" x="72.01" y="217.31" width="8.43" height="7.37"/><rect class="cls-10" x="83.6" y="217.31" width="8.43" height="7.37"/><rect class="cls-10" x="95.19" y="217.31" width="8.43" height="7.37"/><rect class="cls-10" x="106.78" y="217.31" width="8.43" height="7.37"/><rect class="cls-10" x="118.36" y="217.31" width="8.43" height="7.37"/><rect class="cls-10" x="129.95" y="217.31" width="8.43" height="7.37"/><rect class="cls-10" x="144.7" y="217.31" width="8.43" height="7.37"/><rect class="cls-10" x="156.29" y="217.31" width="8.43" height="7.37"/><rect class="cls-10" x="167.88" y="217.31" width="8.43" height="7.37"/><rect class="cls-10" x="144.7" y="227.85" width="8.43" height="7.37"/><rect class="cls-10" x="156.29" y="227.85" width="8.43" height="7.37"/><rect class="cls-10" x="167.88" y="227.85" width="8.43" height="7.37"/><rect class="cls-10" x="144.7" y="238.38" width="8.43" height="7.37"/><rect class="cls-10" x="156.29" y="238.38" width="8.43" height="7.37"/><rect class="cls-10" x="167.88" y="238.38" width="8.43" height="7.37"/><rect class="cls-10" x="144.7" y="248.92" width="8.43" height="7.37"/><rect class="cls-10" x="156.29" y="248.92" width="8.43" height="7.37"/><rect class="cls-10" x="167.88" y="248.92" width="8.43" height="7.37"/><rect class="cls-10" x="25.66" y="227.85" width="8.43" height="7.37"/><rect class="cls-10" x="37.25" y="227.85" width="8.43" height="7.37"/><rect class="cls-10" x="48.84" y="227.85" width="8.43" height="7.37"/><rect class="cls-10" x="60.42" y="227.85" width="8.43" height="7.37"/><rect class="cls-10" x="72.01" y="227.85" width="8.43" height="7.37"/><rect class="cls-10" x="83.6" y="227.85" width="8.43" height="7.37"/><rect class="cls-10" x="95.19" y="227.85" width="8.43" height="7.37"/><rect class="cls-10" x="106.78" y="227.85" width="8.43" height="7.37"/><rect class="cls-10" x="118.36" y="227.85" width="8.43" height="7.37"/><rect class="cls-10" x="129.95" y="227.85" width="8.43" height="7.37"/><rect class="cls-10" x="25.66" y="238.38" width="8.43" height="7.37"/><rect class="cls-10" x="37.25" y="238.38" width="8.43" height="7.37"/><rect class="cls-10" x="48.84" y="238.38" width="8.43" height="7.37"/><rect class="cls-10" x="60.42" y="238.38" width="8.43" height="7.37"/><rect class="cls-10" x="72.01" y="238.38" width="8.43" height="7.37"/><rect class="cls-10" x="83.6" y="238.38" width="8.43" height="7.37"/><rect class="cls-10" x="95.19" y="238.38" width="8.43" height="7.37"/><rect class="cls-10" x="106.78" y="238.38" width="8.43" height="7.37"/><rect class="cls-10" x="118.36" y="238.38" width="8.43" height="7.37"/><rect class="cls-10" x="129.95" y="238.38" width="8.43" height="7.37"/><rect class="cls-10" x="25.66" y="248.92" width="8.43" height="7.37"/><rect class="cls-10" x="37.25" y="248.92" width="8.43" height="7.37"/><rect class="cls-10" x="48.84" y="248.92" width="8.43" height="7.37"/><rect class="cls-10" x="60.42" y="248.92" width="8.43" height="7.37"/><rect class="cls-10" x="72.01" y="248.92" width="8.43" height="7.37"/><rect class="cls-10" x="83.6" y="248.92" width="8.43" height="7.37"/><rect class="cls-10" x="95.19" y="248.92" width="8.43" height="7.37"/><rect class="cls-10" x="106.78" y="248.92" width="8.43" height="7.37"/><rect class="cls-10" x="118.36" y="248.92" width="8.43" height="7.37"/><rect class="cls-10" x="129.95" y="248.92" width="8.43" height="7.37"/><rect class="cls-10" x="25.66" y="259.45" width="8.43" height="7.37"/><rect class="cls-10" x="37.25" y="259.45" width="8.43" height="7.37"/><rect class="cls-10" x="48.84" y="259.45" width="66.37" height="7.37"/><rect class="cls-10" x="118.36" y="259.45" width="8.43" height="7.37"/><rect class="cls-10" x="129.95" y="259.45" width="8.43" height="7.37"/><rect class="cls-10" x="183.68" y="227.85" width="8.43" height="7.37"/><rect class="cls-10" x="195.27" y="227.85" width="8.43" height="7.37"/><rect class="cls-10" x="206.85" y="227.85" width="8.43" height="7.37"/><rect class="cls-10" x="183.68" y="238.38" width="8.43" height="7.37"/><rect class="cls-10" x="195.27" y="238.38" width="8.43" height="7.37"/><rect class="cls-10" x="206.85" y="238.38" width="8.43" height="7.37"/><rect class="cls-10" x="183.68" y="248.92" width="8.43" height="7.37"/><rect class="cls-10" x="195.27" y="248.92" width="8.43" height="7.37"/><rect class="cls-10" x="183.68" y="259.45" width="8.43" height="7.37"/><rect class="cls-10" x="195.27" y="259.45" width="8.43" height="7.37"/><rect class="cls-10" x="206.85" y="248.92" width="8.43" height="17.91"/><circle class="cls-10" cx="211.07" cy="206.78" r="2.98"/><path class="cls-2" d="M264.4,270c-15.41,0-25.94-8.42-25.38-20.15l2.32-45.75a10.23,10.23,0,0,1,10.22-9.94h25.91a8.63,8.63,0,0,1,8.63,8.39L288.54,250C289,261.56,279.81,270,264.4,270Z"/><path class="cls-3" d="M255.82,197.3h15.5a5.06,5.06,0,0,1,5.06,5.06v42.55a5.06,5.06,0,0,1-5.06,5.06H256.16a5.06,5.06,0,0,1-5.06-5.06V202A4.72,4.72,0,0,1,255.82,197.3Z"/><path class="cls-11" d="M263.74,221.53h0a2.12,2.12,0,0,1-2.11-2.11V202.56a2.11,2.11,0,0,1,2.11-2.1h0a2.11,2.11,0,0,1,2.11,2.1v16.86A2.12,2.12,0,0,1,263.74,221.53Z"/><rect class="cls-12" x="262.69" y="203.62" width="2.11" height="8.43"/><path class="cls-9" d="M261.26,117.23h-7.34L252,126.15h7.81l-.6,2.54h-7.7l-2.41,11h-2.84l2.38-11h-7.15l-2.35,11h-2.84l2.34-11h-7.51l.53-2.54h7.53l1.88-8.92h-7.87l.56-2.54h7.84l2.37-11.2h2.84l-2.37,11.2h7.18l2.4-11.2h2.81l-2.4,11.2h7.43Zm-17.34,0-2,8.92h7.21l1.93-8.92Z"/><path class="cls-9" d="M63.26,138.3v5.14H60.8v-4.95a14.91,14.91,0,0,1-8.21-2v-4.12a11.15,11.15,0,0,0,3.76,2,13.63,13.63,0,0,0,4.45.82V123c-3.48-1.67-5.73-3.22-6.76-4.63a8.79,8.79,0,0,1,.81-11,9.67,9.67,0,0,1,5.95-3v-4.27h2.46v4.17q4.65.15,6.43,1.33v4a10.87,10.87,0,0,0-6.43-2v12.52c3.29,1.56,5.54,3.08,6.75,4.54a7.65,7.65,0,0,1,1.81,5,7.75,7.75,0,0,1-2.26,5.65A11,11,0,0,1,63.26,138.3ZM60.8,118.86v-11a5.44,5.44,0,0,0-3.16,1.77,5,5,0,0,0-1.16,3.31,5.55,5.55,0,0,0,1,3.34A10.06,10.06,0,0,0,60.8,118.86Zm2.46,5.41V135c3.05-.66,4.58-2.31,4.58-4.93Q67.84,126.78,63.26,124.27Z"/></g></g></svg>