<svg width="636" height="300" viewBox="0 0 636 300" fill="none" xmlns="http://www.w3.org/2000/svg">
<path d="M84.8996 279.32H549.85C551.36 279.32 552.78 280.31 553.07 281.78C553.44 283.67 551.8 285.32 549.74 285.32H85.1396C83.6296 285.32 82.2096 284.33 81.9196 282.86C81.5496 280.97 83.1896 279.32 85.2496 279.32" fill="#C8C8C8"/>
<path d="M98.5796 260.31C98.8196 260.13 105.56 266.11 106.72 267.35C107.3 267.97 107.45 269.04 107.8 271.27C108.37 274.84 111.85 275.71 114.4 276.91C114.8 277.1 115.08 277.56 114.91 278.04L113.99 280.31C113.57 281 112.51 280.94 111.63 280.98C111.63 280.98 105.61 280.87 103.94 279.74C100.77 277.59 93.9696 267.28 93.1296 265.78C92.7796 265.31 92.8096 264.7 93.1896 264.41L98.5796 260.31Z" fill="#939393"/>
<path d="M208.14 181.63C204.26 180.4 176.47 173.6 161.14 171.49L145.12 172.89C145.12 172.89 136.37 193.6 144.65 195.33C151.56 196.77 183.18 200.5 193.06 200.53C194.91 200.54 198.95 202.27 199.56 204.02C199.56 204.02 211.08 182.56 208.14 181.63Z" fill="url(#paint0_radial)"/>
<path d="M162.049 177.41C156.829 211.84 152.549 225.27 143.519 239.31C141.689 242.15 118.059 262.02 107.389 268.36C102.719 267.03 98.2188 259.91 98.2188 259.91L129.309 226.53C129.309 226.53 130.529 202.89 130.889 194.84C131.259 186.79 131.809 180.84 138.029 175.34C146.489 167.87 163.889 165.33 162.049 177.41Z" fill="#939393"/>
<path d="M191.169 140.51C191.169 140.51 186.049 140.14 172.499 133.01C168.999 131.17 166.219 114.3 166.199 107.35C170.169 107.52 173.239 108.88 178.229 113.04C185.879 119.43 191.179 123.05 191.179 123.05V140.51H191.169Z" fill="url(#paint1_radial)"/>
<path d="M168.561 79.7958C170.046 78.3918 170.145 76.0857 168.783 74.6451C167.421 73.2044 165.113 73.1748 163.628 74.5788C162.143 75.9829 162.044 78.289 163.406 79.7296C164.768 81.1702 167.076 81.1999 168.561 79.7958Z" fill="#856430"/>
<path d="M161.581 65.1392C163.275 63.5379 163.389 60.9092 161.837 59.2679C160.285 57.6266 157.654 57.5943 155.961 59.1957C154.267 60.797 154.153 63.4257 155.705 65.067C157.257 66.7083 159.888 66.7406 161.581 65.1392Z" fill="#856430"/>
<path d="M166.857 68.1275C168.55 66.5261 168.665 63.8975 167.113 62.2562C165.561 60.6149 162.93 60.5826 161.236 62.1839C159.543 63.7853 159.428 66.414 160.98 68.0553C162.532 69.6966 165.163 69.7289 166.857 68.1275Z" fill="#856430"/>
<path d="M169.456 73.9166C171.15 72.3152 171.264 69.6865 169.712 68.0452C168.16 66.4039 165.529 66.3716 163.836 67.973C162.142 69.5744 162.028 72.2031 163.58 73.8443C165.132 75.4856 167.763 75.518 169.456 73.9166Z" fill="#856430"/>
<path d="M145.259 79.3217C146.743 77.9176 146.843 75.6116 145.48 74.1709C144.118 72.7303 141.81 72.7006 140.325 74.1047C138.84 75.5088 138.741 77.8148 140.103 79.2555C141.466 80.6961 143.774 80.7257 145.259 79.3217Z" fill="#856430"/>
<path d="M154.57 65.1602C156.263 63.5589 156.378 60.9302 154.826 59.2889C153.274 57.6476 150.643 57.6153 148.949 59.2166C147.256 60.818 147.141 63.4467 148.693 65.088C150.245 66.7293 152.876 66.7616 154.57 65.1602Z" fill="#856430"/>
<path d="M148.556 67.9185C150.249 66.3172 150.364 63.6885 148.812 62.0472C147.26 60.4059 144.629 60.3736 142.935 61.9749C141.242 63.5763 141.127 66.205 142.679 67.8463C144.231 69.4876 146.862 69.5199 148.556 67.9185Z" fill="#856430"/>
<path d="M145.956 74.1993C147.65 72.5979 147.764 69.9692 146.212 68.3279C144.66 66.6867 142.029 66.6543 140.336 68.2557C138.642 69.8571 138.528 72.4858 140.08 74.1271C141.632 75.7683 144.263 75.8007 145.956 74.1993Z" fill="#856430"/>
<path d="M147.269 89.32L162.789 89.63C165.659 89.69 168.069 85.17 168.129 82.32L168.289 74.3C168.419 67.69 163.129 62.21 156.469 62.08L154.699 62.04C148.039 61.91 142.529 67.16 142.389 73.77L142.229 81.79C142.039 85.61 144.399 89.26 147.269 89.32Z" fill="#856430"/>
<path d="M130.5 183.81C130.5 183.81 163.78 184.98 171.39 175.01C177.66 161.05 176.49 117.3 176.49 117.3C176.69 107.47 167.86 106.79 156.96 106.57L151.82 106.47C140.92 106.25 132.07 106.58 131.87 116.41L130.5 183.81Z" fill="url(#paint2_radial)"/>
<path d="M144.67 106.6C146.27 108.75 151.22 113.52 153.84 115.96C154.92 116.97 156.23 116.9 157.16 116C159.7 113.56 163.09 108.96 164.06 107.09C160.92 105.79 154.12 105.29 154.12 105.29C154.12 105.29 148.4 105.36 144.67 106.6Z" fill="#F9DDBF"/>
<path d="M148.62 87.5698L161.27 87.8198L160.93 104.49C160.89 106.3 164.06 107.1 164.06 107.1L144.67 106.6C144.67 106.6 148.24 105.83 148.28 104.02L148.62 87.5698Z" fill="url(#paint3_radial)"/>
<path d="M154.169 99.8598L157.319 99.9198C162.459 100.02 166.719 95.9398 166.819 90.7898L167.109 76.2298C167.209 71.0898 163.129 66.8298 157.979 66.7298L154.829 66.6698C149.689 66.5698 145.429 70.6498 145.329 75.7998L145.039 90.3598C144.939 95.5098 149.029 99.7598 154.169 99.8598Z" fill="#F9DDBF"/>
<path d="M156.164 82.4186C156.177 81.5239 155.794 80.793 155.308 80.7859C154.822 80.7788 154.418 81.4983 154.405 82.3929C154.391 83.2875 154.775 84.0184 155.261 84.0255C155.747 84.0326 156.151 83.3132 156.164 82.4186Z" fill="#3A312E"/>
<path d="M166.46 94.3097L160.19 95.9897L160.1 89.9797C160.11 89.5297 160.34 89.1097 160.73 88.8697L162.68 87.6397C163.1 87.3697 163.23 86.8097 162.97 86.3797L161.35 83.7397C160.96 83.1097 160.76 82.3897 160.78 81.6497L160.93 72.4697L166.79 72.5997L166.46 94.3097Z" fill="url(#paint4_radial)"/>
<path d="M165.641 82.5611C165.654 81.6665 165.271 80.9355 164.785 80.9284C164.299 80.9213 163.894 81.6408 163.881 82.5354C163.868 83.4301 164.251 84.161 164.737 84.1681C165.223 84.1752 165.628 83.4557 165.641 82.5611Z" fill="#3A312E"/>
<path d="M141.98 84.7601C141.92 87.0201 143.71 88.8901 145.96 88.9501C146.11 88.9501 148.09 88.9901 148.24 88.9701C150.29 88.8001 150.1 87.0701 150.15 84.9601C150.2 82.8801 150.52 81.1501 148.51 80.8501C148.34 80.8201 146.34 80.7701 146.17 80.7701C143.91 80.7201 142.04 82.5101 141.98 84.7601Z" fill="#F9DDBF"/>
<path d="M150.13 64.3599L165.66 64.5399L168.53 76.5999L167.09 81.4399L166.67 74.1099C166.3 71.3799 164.28 70.3299 162.13 70.2899L152.68 70.0999C150.53 70.0599 148.64 71.6099 148.16 73.8199L147.96 78.8999C147.91 80.0299 147.03 80.9299 145.96 80.9399L144.75 80.9499L145.66 71.1899L150.13 64.3599Z" fill="#856430"/>
<path d="M151.859 72.53C154.157 72.53 156.019 70.6675 156.019 68.37C156.019 66.0725 154.157 64.21 151.859 64.21C149.562 64.21 147.699 66.0725 147.699 68.37C147.699 70.6675 149.562 72.53 151.859 72.53Z" fill="#856430"/>
<path d="M156.059 92.1302C155.669 92.0202 155.269 92.2902 155.239 92.6902C155.159 94.2102 156.129 95.6302 157.649 96.0802C159.159 96.5202 160.749 95.8402 161.489 94.5202C161.689 94.1702 161.489 93.7202 161.099 93.6102L156.059 92.1302Z" fill="#634319"/>
<path d="M155.719 92.1298C156.149 92.9298 157.329 93.6798 158.829 93.9998C159.839 94.2198 160.809 94.1898 161.559 93.9898C161.509 93.8198 161.349 93.6798 161.159 93.6198L156.119 92.1398C155.979 92.0998 155.839 92.0998 155.719 92.1298Z" fill="white"/>
<path d="M408.159 275.32H365.099L355.379 234.1H398.439L408.159 275.32Z" fill="#414042"/>
<path d="M399.618 275.32H356.568L349.918 234.1H392.968L399.618 275.32Z" fill="#737373"/>
<path d="M331.679 281.78H417.749C419.979 281.78 421.789 279.97 421.789 277.74C421.789 275.51 419.979 273.7 417.749 273.7H331.679C329.449 273.7 327.639 275.51 327.639 277.74C327.639 279.97 329.449 281.78 331.679 281.78Z" fill="#737373"/>
<path d="M393.108 281.78H418.968C421.198 281.78 423.008 279.97 423.008 277.74C423.008 275.51 421.198 273.7 418.968 273.7H393.108C390.878 273.7 389.068 275.51 389.068 277.74C389.068 279.97 390.868 281.78 393.108 281.78Z" fill="#505050"/>
<path d="M395.828 251.88L392.698 232.48H349.568L352.698 251.88H395.828Z" fill="#5E5E5E"/>
<path d="M523.849 21.3599H197.459V243.86H523.849V21.3599Z" fill="#4DA1DB"/>
<path d="M364.06 60.3198H213.31C209.82 60.3198 206.99 63.1498 206.99 66.6398V240.96H364.06V60.3198Z" fill="white"/>
<path d="M311.069 28.8198H210.049C208.489 28.8198 207.219 30.0898 207.219 31.6498C207.219 33.2098 208.489 34.4798 210.049 34.4798H311.069C312.629 34.4798 313.899 33.2098 313.899 31.6498C313.899 30.0798 312.639 28.8198 311.069 28.8198Z" fill="#8FC3EC"/>
<path d="M535.099 21.3599H364.139V243.86H535.099V21.3599Z" fill="#505050"/>
<path d="M541.06 60.02H369.27C366.37 60.02 364.02 62.37 364.02 65.27V243.86H541.06V60.02Z" fill="#282828"/>
<path d="M364.219 50.6899H197.459V52.3799V59.9699V243.87H206.819V67.3599C206.819 63.4099 210.019 60.2099 213.969 60.2099H364.219V50.6899Z" fill="#414042"/>
<path d="M379.759 73.3101H378.199C377.199 73.3101 376.379 74.1201 376.379 75.1301V75.8301C376.379 76.8301 377.189 77.6501 378.199 77.6501H379.759C380.759 77.6501 381.579 76.8401 381.579 75.8301V75.1301C381.569 74.1201 380.759 73.3101 379.759 73.3101Z" fill="#505050"/>
<path d="M381.569 83.7002H376.379V88.0302H381.569V83.7002Z" fill="#505050"/>
<path d="M381.569 93.2197H376.379V97.5497H381.569V93.2197Z" fill="#505050"/>
<path d="M381.569 103.61H376.379V107.94H381.569V103.61Z" fill="#505050"/>
<path d="M381.569 114H376.379V118.33H381.569V114Z" fill="#505050"/>
<path d="M381.569 123.52H376.379V127.85H381.569V123.52Z" fill="#505050"/>
<path d="M381.569 133.91H376.379V138.24H381.569V133.91Z" fill="#505050"/>
<path d="M381.569 143.43H376.379V147.76H381.569V143.43Z" fill="#505050"/>
<path d="M381.569 154.69H376.379V159.02H381.569V154.69Z" fill="#505050"/>
<path d="M381.569 164.21H376.379V168.54H381.569V164.21Z" fill="#505050"/>
<path d="M379.909 174.6H378.039C377.119 174.6 376.379 175.34 376.379 176.26V177.27C376.379 178.19 377.119 178.93 378.039 178.93H379.909C380.829 178.93 381.569 178.19 381.569 177.27V176.26C381.569 175.34 380.829 174.6 379.909 174.6Z" fill="#505050"/>
<path d="M380.129 183.99H378.599C377.679 183.99 376.939 184.73 376.939 185.65V186.37C376.939 187.29 377.679 188.03 378.599 188.03H380.129C381.049 188.03 381.789 187.29 381.789 186.37V185.65C381.789 184.73 381.049 183.99 380.129 183.99Z" fill="#505050"/>
<path d="M380.129 194.5H378.599C377.679 194.5 376.939 195.24 376.939 196.16V196.88C376.939 197.8 377.679 198.54 378.599 198.54H380.129C381.049 198.54 381.789 197.8 381.789 196.88V196.16C381.789 195.24 381.049 194.5 380.129 194.5Z" fill="#505050"/>
<path d="M380.129 205H378.599C377.679 205 376.939 205.74 376.939 206.66V207.38C376.939 208.3 377.679 209.04 378.599 209.04H380.129C381.049 209.04 381.789 208.3 381.789 207.38V206.66C381.789 205.75 381.049 205 380.129 205Z" fill="#505050"/>
<path d="M380.129 215.51H378.599C377.679 215.51 376.939 216.25 376.939 217.17V217.89C376.939 218.81 377.679 219.55 378.599 219.55H380.129C381.049 219.55 381.789 218.81 381.789 217.89V217.17C381.789 216.25 381.049 215.51 380.129 215.51Z" fill="#505050"/>
<path d="M409.28 93.2197H395.43V97.5497H409.28V93.2197Z" fill="#505050"/>
<path d="M463.019 73.27H397.559C396.439 73.27 395.539 74.17 395.539 75.29C395.539 76.41 396.439 77.31 397.559 77.31H463.019C464.139 77.31 465.039 76.41 465.039 75.29C465.039 74.17 464.129 73.27 463.019 73.27Z" fill="#505050"/>
<path d="M484.839 93.4702H416.139C415.019 93.4702 414.119 94.3702 414.119 95.4902C414.119 96.6102 415.019 97.5102 416.139 97.5102H484.839C485.959 97.5102 486.859 96.6102 486.859 95.4902C486.859 94.3802 485.949 93.4702 484.839 93.4702Z" fill="#505050"/>
<path d="M441.19 103.98H398.36C397.24 103.98 396.34 104.88 396.34 106C396.34 107.12 397.24 108.02 398.36 108.02H441.19C442.31 108.02 443.21 107.12 443.21 106C443.21 104.88 442.31 103.98 441.19 103.98Z" fill="#505050"/>
<path d="M482.409 123.38H416.139C415.019 123.38 414.119 124.28 414.119 125.4C414.119 126.52 415.019 127.42 416.139 127.42H482.409C483.529 127.42 484.429 126.52 484.429 125.4C484.429 124.28 483.529 123.38 482.409 123.38Z" fill="#505050"/>
<path d="M475.95 133.88H398.36C397.24 133.88 396.34 134.78 396.34 135.9C396.34 137.02 397.24 137.92 398.36 137.92H475.95C477.07 137.92 477.97 137.02 477.97 135.9C477.97 134.79 477.06 133.88 475.95 133.88Z" fill="#505050"/>
<path d="M498.58 154.9H398.36C397.24 154.9 396.34 155.8 396.34 156.92C396.34 158.04 397.24 158.94 398.36 158.94H498.58C499.7 158.94 500.6 158.04 500.6 156.92C500.6 155.8 499.69 154.9 498.58 154.9Z" fill="#505050"/>
<path d="M447.66 164.59H398.36C397.24 164.59 396.34 165.49 396.34 166.61C396.34 167.73 397.24 168.63 398.36 168.63H447.66C448.78 168.63 449.68 167.73 449.68 166.61C449.68 165.5 448.78 164.59 447.66 164.59Z" fill="#505050"/>
<path d="M438.77 183.99H416.95C415.83 183.99 414.93 184.89 414.93 186.01C414.93 187.13 415.83 188.03 416.95 188.03H438.77C439.89 188.03 440.79 187.13 440.79 186.01C440.79 184.9 439.89 183.99 438.77 183.99Z" fill="#505050"/>
<path d="M492.919 183.99H447.659C446.539 183.99 445.639 184.89 445.639 186.01C445.639 187.13 446.539 188.03 447.659 188.03H492.919C494.039 188.03 494.939 187.13 494.939 186.01C494.939 184.9 494.029 183.99 492.919 183.99Z" fill="#505050"/>
<path d="M454.93 194.5H398.36C397.24 194.5 396.34 195.4 396.34 196.52C396.34 197.64 397.24 198.54 398.36 198.54H454.93C456.05 198.54 456.95 197.64 456.95 196.52C456.95 195.4 456.05 194.5 454.93 194.5Z" fill="#505050"/>
<path d="M505.04 205H398.36C397.24 205 396.34 205.9 396.34 207.02C396.34 208.14 397.24 209.04 398.36 209.04H505.04C506.16 209.04 507.06 208.14 507.06 207.02C507.06 205.91 506.16 205 505.04 205Z" fill="#505050"/>
<path d="M452.51 215.51H416.95C415.83 215.51 414.93 216.41 414.93 217.53C414.93 218.65 415.83 219.55 416.95 219.55H452.51C453.63 219.55 454.53 218.65 454.53 217.53C454.53 216.42 453.62 215.51 452.51 215.51Z" fill="#505050"/>
<path d="M325.619 73.27H243.989C242.869 73.27 241.969 74.17 241.969 75.29C241.969 76.41 242.869 77.31 243.989 77.31H325.619C326.739 77.31 327.639 76.41 327.639 75.29C327.639 74.17 326.739 73.27 325.619 73.27Z" fill="#C8C8C8"/>
<path d="M310.269 93.4702H260.969C259.849 93.4702 258.949 94.3702 258.949 95.4902C258.949 96.6102 259.849 97.5102 260.969 97.5102H310.269C311.389 97.5102 312.289 96.6102 312.289 95.4902C312.289 94.3802 311.379 93.4702 310.269 93.4702Z" fill="#C8C8C8"/>
<path d="M332.901 103.98H260.161C259.041 103.98 258.141 104.88 258.141 106C258.141 107.12 259.041 108.02 260.161 108.02H332.901C334.021 108.02 334.921 107.12 334.921 106C334.921 104.88 334.011 103.98 332.901 103.98Z" fill="#C8C8C8"/>
<path d="M268.24 133.88H239.95C238.83 133.88 237.93 134.78 237.93 135.9C237.93 137.02 238.83 137.92 239.95 137.92H268.24C269.36 137.92 270.26 137.02 270.26 135.9C270.26 134.79 269.36 133.88 268.24 133.88Z" fill="#C8C8C8"/>
<path d="M300.569 133.88H277.129C276.009 133.88 275.109 134.78 275.109 135.9C275.109 137.02 276.009 137.92 277.129 137.92H300.569C301.689 137.92 302.589 137.02 302.589 135.9C302.589 134.79 301.679 133.88 300.569 133.88Z" fill="#C8C8C8"/>
<path d="M318.351 143.58H260.161C259.041 143.58 258.141 144.48 258.141 145.6C258.141 146.72 259.041 147.62 260.161 147.62H318.351C319.471 147.62 320.371 146.72 320.371 145.6C320.371 144.49 319.461 143.58 318.351 143.58Z" fill="#C8C8C8"/>
<path d="M350.271 154.9H258.141V158.94H350.271V154.9Z" fill="#C8C8C8"/>
<path d="M318.351 175.1H260.161C259.041 175.1 258.141 176 258.141 177.12C258.141 178.24 259.041 179.14 260.161 179.14H318.351C319.471 179.14 320.371 178.24 320.371 177.12C320.371 176.01 319.461 175.1 318.351 175.1Z" fill="#C8C8C8"/>
<path d="M262.579 194.5H244.799C243.679 194.5 242.779 195.4 242.779 196.52C242.779 197.64 243.679 198.54 244.799 198.54H262.579C263.699 198.54 264.599 197.64 264.599 196.52C264.599 195.4 263.699 194.5 262.579 194.5Z" fill="#C8C8C8"/>
<path d="M279.561 205H260.161C259.041 205 258.141 205.9 258.141 207.02C258.141 208.14 259.041 209.04 260.161 209.04H279.561C280.681 209.04 281.581 208.14 281.581 207.02C281.581 205.91 280.671 205 279.561 205Z" fill="#C8C8C8"/>
<path d="M315.92 205H288.44C287.32 205 286.42 205.9 286.42 207.02C286.42 208.14 287.32 209.04 288.44 209.04H315.92C317.04 209.04 317.94 208.14 317.94 207.02C317.94 205.91 317.04 205 315.92 205Z" fill="#C8C8C8"/>
<path d="M332.489 215.51H258.939V219.55H332.489V215.51Z" fill="#C8C8C8"/>
<path d="M332.489 120.95C332.489 120.5 332.129 120.14 331.679 120.14H273.489H272.679C272.229 120.14 271.869 120.5 271.869 120.95V132.49V138.74C271.869 139.19 272.229 139.55 272.679 139.55C273.129 139.55 273.489 139.19 273.489 138.74V133.08C273.489 132.63 273.849 132.27 274.299 132.27H331.679C332.129 132.27 332.489 131.91 332.489 131.46V120.95Z" fill="#8FC3EC"/>
<path d="M343.809 192.07C343.809 191.62 343.449 191.26 342.999 191.26H284.249C283.659 191.26 283.189 191.73 283.189 192.32V203.56V210.66C283.189 211.11 283.549 211.47 283.999 211.47C284.449 211.47 284.809 211.11 284.809 210.66V204.19C284.809 203.74 285.169 203.38 285.619 203.38H342.999C343.449 203.38 343.809 203.02 343.809 202.57V192.07Z" fill="#FFB900"/>
<path d="M503.02 171.06C503.02 170.61 502.66 170.25 502.21 170.25H443.38C442.84 170.25 442.41 170.69 442.41 171.22V182.54V189.64C442.41 190.09 442.77 190.45 443.22 190.45C443.67 190.45 444.03 190.09 444.03 189.64V183.17C444.03 182.72 444.39 182.36 444.84 182.36H502.22C502.67 182.36 503.03 182 503.03 181.55V171.06H503.02Z" fill="#939393"/>
<path d="M409.899 69.7998L409.459 70.3798L409.899 69.7998Z" fill="#532881"/>
<path d="M519.989 56.8399C523.143 56.8399 525.699 54.2835 525.699 51.1299C525.699 47.9764 523.143 45.4199 519.989 45.4199C516.836 45.4199 514.279 47.9764 514.279 51.1299C514.279 54.2835 516.836 56.8399 519.989 56.8399Z" fill="url(#paint5_radial)"/>
<path d="M502.21 56.8399C505.364 56.8399 507.92 54.2835 507.92 51.1299C507.92 47.9764 505.364 45.4199 502.21 45.4199C499.056 45.4199 496.5 47.9764 496.5 51.1299C496.5 54.2835 499.056 56.8399 502.21 56.8399Z" fill="url(#paint6_radial)"/>
<path d="M484.431 56.8399C487.584 56.8399 490.141 54.2835 490.141 51.1299C490.141 47.9764 487.584 45.4199 484.431 45.4199C481.277 45.4199 478.721 47.9764 478.721 51.1299C478.721 54.2835 481.277 56.8399 484.431 56.8399Z" fill="#FFB900"/>
<path d="M466.649 56.8399C469.803 56.8399 472.359 54.2835 472.359 51.1299C472.359 47.9764 469.803 45.4199 466.649 45.4199C463.496 45.4199 460.939 47.9764 460.939 51.1299C460.939 54.2835 463.496 56.8399 466.649 56.8399Z" fill="#8FC3EC"/>
<path d="M448.87 56.8399C452.024 56.8399 454.58 54.2835 454.58 51.1299C454.58 47.9764 452.024 45.4199 448.87 45.4199C445.717 45.4199 443.16 47.9764 443.16 51.1299C443.16 54.2835 445.717 56.8399 448.87 56.8399Z" fill="url(#paint7_radial)"/>
<path d="M454.03 53.5797C453.24 52.8797 452 52.3497 450.52 52.1197C451.11 51.5597 451.49 50.7297 451.49 49.7797C451.49 48.0997 450.32 46.7397 448.88 46.7397C447.44 46.7397 446.27 48.0997 446.27 49.7797C446.27 50.7397 446.66 51.5797 447.26 52.1397C445.77 52.3797 444.53 52.9397 443.77 53.6597C444.7 55.5397 446.64 56.8397 448.89 56.8397C451.15 56.8397 453.11 55.4997 454.03 53.5797Z" fill="#939393"/>
<path d="M471.811 53.5797C471.021 52.8797 469.781 52.3497 468.301 52.1197C468.891 51.5597 469.271 50.7297 469.271 49.7797C469.271 48.0997 468.101 46.7397 466.661 46.7397C465.221 46.7397 464.051 48.0997 464.051 49.7797C464.051 50.7397 464.441 51.5797 465.041 52.1397C463.551 52.3797 462.311 52.9397 461.551 53.6597C462.481 55.5397 464.421 56.8397 466.671 56.8397C468.931 56.8397 470.891 55.4997 471.811 53.5797Z" fill="#4DA1DB"/>
<path d="M489.59 53.5797C488.8 52.8797 487.56 52.3497 486.08 52.1197C486.67 51.5597 487.05 50.7297 487.05 49.7797C487.05 48.0997 485.88 46.7397 484.44 46.7397C483 46.7397 481.83 48.0997 481.83 49.7797C481.83 50.7397 482.22 51.5797 482.82 52.1397C481.33 52.3797 480.09 52.9397 479.33 53.6597C480.26 55.5397 482.2 56.8397 484.45 56.8397C486.71 56.8397 488.67 55.4997 489.59 53.5797Z" fill="#C78E00"/>
<path d="M507.369 53.5797C506.579 52.8797 505.339 52.3497 503.859 52.1197C504.449 51.5597 504.829 50.7297 504.829 49.7797C504.829 48.0997 503.659 46.7397 502.219 46.7397C500.779 46.7397 499.609 48.0997 499.609 49.7797C499.609 50.7397 499.999 51.5797 500.599 52.1397C499.109 52.3797 497.869 52.9397 497.109 53.6597C498.039 55.5397 499.979 56.8397 502.229 56.8397C504.489 56.8397 506.449 55.4997 507.369 53.5797Z" fill="#939393"/>
<path d="M525.151 53.5797C524.361 52.8797 523.121 52.3497 521.641 52.1197C522.231 51.5597 522.611 50.7297 522.611 49.7797C522.611 48.0997 521.441 46.7397 520.001 46.7397C518.561 46.7397 517.391 48.0997 517.391 49.7797C517.391 50.7397 517.781 51.5797 518.381 52.1397C516.891 52.3797 515.651 52.9397 514.891 53.6597C515.821 55.5397 517.761 56.8397 520.011 56.8397C522.271 56.8397 524.231 55.4997 525.151 53.5797Z" fill="#939393"/>
<path d="M541.68 13.46H533.73V21.54H541.68C542.2 21.54 542.62 21.96 542.62 22.48V238.01C542.62 238.53 542.2 238.95 541.68 238.95H532.92V247.03H541.68C546.66 247.03 550.7 242.99 550.7 238.01V22.48C550.7 17.5 546.67 13.46 541.68 13.46Z" fill="#C8C8C8"/>
<path d="M533.601 247.03H200.081C195.101 247.03 191.061 242.99 191.061 238.01V22.48C191.061 17.5 195.101 13.46 200.081 13.46H533.601C538.581 13.46 542.621 17.5 542.621 22.48V238.01C542.621 242.99 538.581 247.03 533.601 247.03ZM199.141 22.48V238.01C199.141 238.53 199.561 238.95 200.081 238.95H533.601C534.121 238.95 534.541 238.53 534.541 238.01V22.48C534.541 21.96 534.121 21.54 533.601 21.54H200.081C199.561 21.54 199.141 21.96 199.141 22.48Z" fill="#737373"/>
<path d="M390.38 171.01C416.547 171.01 437.76 149.797 437.76 123.63C437.76 97.4627 416.547 76.25 390.38 76.25C364.213 76.25 343 97.4627 343 123.63C343 149.797 364.213 171.01 390.38 171.01Z" fill="#69AFE5"/>
<path d="M410.169 85.9901C408.959 93.5301 403.579 99.2401 397.109 100.72C397.039 100.73 396.969 100.75 396.889 100.76C395.149 101.13 393.329 101.19 391.489 100.9C390.939 100.81 390.399 100.69 389.869 100.54C389.189 100.35 388.519 100.11 387.879 99.8301C386.949 99.4301 386.069 98.9201 385.259 98.3401C380.359 94.8601 377.509 88.5101 378.309 81.7001C378.339 81.4201 378.379 81.1501 378.429 80.8801C378.949 77.6401 380.239 74.7401 382.049 72.3701C382.069 72.3501 382.079 72.3301 382.099 72.3101C382.209 72.1601 382.339 72.0101 382.449 71.8701C382.459 71.8601 382.469 71.8401 382.479 71.8301C382.499 71.8101 382.519 71.7801 382.539 71.7601C383.209 70.9501 383.959 70.2001 384.749 69.5401C384.759 69.5301 384.769 69.5201 384.779 69.5101C388.199 66.6501 392.599 65.2401 397.109 65.9701C401.939 66.7501 405.879 69.8101 408.189 74.0301C408.859 75.2501 409.389 76.5601 409.759 77.9401C409.829 78.1901 409.889 78.4401 409.949 78.6901C410.199 79.7901 410.349 80.9301 410.399 82.0901C410.419 82.3801 410.429 82.6801 410.419 82.9801C410.409 83.6401 410.379 84.3001 410.309 84.9701C410.309 84.9701 410.309 84.9801 410.309 85.0301C410.269 85.3501 410.229 85.6701 410.169 85.9901Z" fill="#7A4622"/>
<path d="M416.86 135.35C406.32 144.58 388.9 144.03 380.11 137.95C372.52 132.7 367.5 125.23 371.56 112.31C372.7 108.68 375.94 101.85 377.32 95.8901C378.72 89.8601 378.33 84.7201 378.33 84.7201L410.44 82.8501C410.44 82.8501 410.98 88.2101 413.28 94.3001C415.92 101.28 420.59 109.26 421.71 112.16C425.77 122.68 421.21 131.55 416.86 135.35Z" fill="#7A4622"/>
<path d="M402.62 102.58L393.49 102.05L393.43 92.8302C393.43 92.8302 400.09 91.5702 402.53 91.4302C400.95 96.8202 402.62 102.58 402.62 102.58Z" fill="#BF8F68"/>
<path d="M385.288 93.7221C386.186 93.3377 386.58 92.244 386.168 91.2793C385.755 90.3145 384.692 89.844 383.793 90.2284C382.895 90.6127 382.5 91.7064 382.913 92.6712C383.326 93.6359 384.389 94.1064 385.288 93.7221Z" fill="#F8C954"/>
<path d="M402.62 102.58L393.49 102.05L393.43 92.8302C393.43 92.8302 400.09 91.5702 402.53 91.4302C400.95 96.8202 402.62 102.58 402.62 102.58Z" fill="url(#paint8_radial)"/>
<path d="M403.32 83.5099C404.01 90.5899 398.8 96.8699 393.71 97.1399C388.62 97.4099 383.93 91.8999 383.24 84.8199C382.55 77.7399 386.19 72.4299 391.29 72.1499C396.39 71.8699 402.64 76.4299 403.32 83.5099Z" fill="#BF8F68"/>
<path d="M396.22 84.2702C396.3 83.4512 395.977 82.7495 395.499 82.7029C395.02 82.6563 394.568 83.2824 394.488 84.1015C394.408 84.9205 394.731 85.6223 395.21 85.6689C395.688 85.7155 396.14 85.0893 396.22 84.2702Z" fill="#3A312E"/>
<path d="M392.639 78.6898L392.019 82.4398C391.649 84.3498 390.509 85.5298 389.679 86.1498C389.219 86.4998 388.909 87.4698 389.339 88.1498C389.579 88.5198 390.689 89.4198 390.599 90.3198L390.119 93.7998L383.109 92.8098L385.089 77.3198L392.639 78.6898Z" fill="url(#paint9_radial)"/>
<path d="M389.789 91.6598C390.129 91.7698 390.399 91.7798 390.699 91.7998C390.999 91.7998 391.299 91.7998 391.609 91.7698C391.919 91.7498 392.219 91.7198 392.509 91.6798C392.799 91.6198 393.029 91.6098 393.309 91.4598L393.449 91.3798C393.579 91.3098 393.739 91.3498 393.819 91.4798C393.839 91.5098 393.849 91.5498 393.849 91.5898C393.909 92.1898 393.449 92.6798 393.049 92.9198C392.629 93.1898 392.169 93.2998 391.709 93.3298C391.249 93.3498 390.779 93.2898 390.329 93.0798C389.899 92.8798 389.449 92.4998 389.339 91.9898C389.309 91.8298 389.409 91.6698 389.569 91.6398C389.619 91.6298 389.679 91.6298 389.729 91.6498L389.789 91.6598Z" fill="white"/>
<path d="M386.91 71.3098C386.91 71.3098 388.25 75.9798 393.72 77.8698C401.62 80.5998 402.89 84.1298 402.94 84.1998C409.08 85.5898 407.49 79.3798 401.69 72.6198C395.73 65.6898 386.91 71.3098 386.91 71.3098Z" fill="#7A4622"/>
<path d="M388.804 84.1438C388.861 83.3228 388.517 82.6307 388.038 82.5979C387.559 82.5652 387.125 83.2041 387.068 84.0252C387.012 84.8462 387.355 85.5383 387.835 85.5711C388.314 85.6038 388.748 84.9648 388.804 84.1438Z" fill="#3A312E"/>
<path d="M400.339 89.86L403.919 89.67C405.439 89.59 406.559 88.27 406.409 86.74C406.259 85.2 404.909 84.02 403.379 84.1L399.799 84.29L400.339 89.86Z" fill="#BF8F68"/>
<path d="M404.196 92.852C405.094 92.4676 405.489 91.3739 405.076 90.4091C404.663 89.4444 403.6 88.9739 402.702 89.3582C401.803 89.7426 401.409 90.8363 401.821 91.8011C402.234 92.7658 403.297 93.2363 404.196 92.852Z" fill="#F8C954"/>
<path d="M353.08 152.82C357.48 158.44 363.12 163.04 369.59 166.21L371.4 164.01L363.78 154.72C361.02 151.35 356.45 150.84 353.08 152.82Z" fill="url(#paint10_radial)"/>
<path d="M411.999 116.14C411.999 117.93 411.679 119.65 411.099 121.24C409.019 126.91 403.579 130.95 397.189 130.95C390.799 130.95 385.359 126.91 383.279 121.24C382.699 119.65 382.379 117.93 382.379 116.14C382.379 116.01 382.379 115.88 382.389 115.75C382.389 115.74 382.389 115.72 382.389 115.71C382.519 111.13 384.729 107.08 388.099 104.45C388.469 104.16 388.849 103.89 389.239 103.64C391.539 102.17 394.259 101.33 397.189 101.33C400.119 101.33 402.859 102.18 405.159 103.66C405.549 103.91 405.939 104.18 406.309 104.47C409.669 107.1 411.869 111.14 411.999 115.71C411.999 115.72 411.999 115.73 411.999 115.75C411.999 115.87 411.999 116.01 411.999 116.14Z" fill="#8B8CC7"/>
<path d="M382.38 117.07L381.41 144.51L352.24 149.58L356.88 152.85H385.5C388.04 152.85 390.1 150.79 390.1 148.25L393.06 116.93L382.38 117.07Z" fill="#7F83C6"/>
<path d="M413.46 151.59H380.91L383.65 139.28C384.5 134.06 384.5 128.74 383.65 123.53L382.38 115.71H412L410.73 123.53C409.88 128.75 409.88 134.07 410.73 139.28L413.46 151.59Z" fill="#8B8CC7"/>
<path d="M356.209 156.43C363.549 164.07 373.419 169.26 384.489 170.63H395.339C395.519 170.65 395.709 170.66 395.889 170.68C398.339 170.4 400.739 169.92 403.059 169.28C409.159 166.16 413.429 159.67 413.429 152.65C399.429 153.03 363.179 152.62 363.179 152.62C360.169 152.63 357.659 154.18 356.209 156.43Z" fill="#FFB900"/>
<path d="M405.16 103.65C402.82 105 400.11 105.78 397.21 105.78C394.31 105.78 391.59 105 389.24 103.64C391.54 102.17 394.26 101.33 397.19 101.33C400.12 101.33 402.86 102.18 405.16 103.65Z" fill="#BF8F68"/>
<path d="M394.06 152.77H413.179C413.179 152.77 411.7 123.53 411.54 117.18C410.89 117.27 403.46 117.61 402.07 120.52C398.96 127.01 395.589 132.88 393.579 135.33C391.409 137.97 384.38 148.76 380.37 150.5C377.84 151.59 394.06 152.77 394.06 152.77Z" fill="url(#paint11_radial)"/>
<path d="M401.439 116.14L403.309 144.51L374.139 149.58V152.85H407.399C409.939 152.85 411.999 150.79 411.999 148.25V116.15H401.439V116.14Z" fill="#8B8CC7"/>
<path d="M384.599 150.49H351.369C351.919 151.29 352.499 152.07 353.099 152.84H384.599C385.249 152.84 385.769 152.31 385.769 151.67C385.769 151.03 385.249 150.49 384.599 150.49Z" fill="#CBC2CC"/>
<path d="M390.38 171C398.94 171 406.97 168.72 413.9 164.74C412.95 164.19 411.86 163.87 410.69 163.87H376.73C374.42 163.87 372.38 165.11 371.25 166.96C377.1 169.55 383.57 171 390.38 171Z" fill="#767677"/>
<path d="M232.15 238.85L210.08 188.35C209.25 186.39 208.41 184.79 206.91 183.45V225.15L214.7 238.85H232.15Z" fill="#D4E7F4"/>
<path d="M195.679 157.91C195.109 157.38 194.389 157.03 193.619 156.9L153.819 150.27C152.209 150 150.589 150.75 149.759 152.16L137.689 172.27C137.399 172.76 136.849 173.01 136.289 172.92L113.219 169.08L113.059 170.04C112.939 170.78 113.439 171.48 114.169 171.6L138.489 175.65L180.319 182.62L196.189 158.39L195.679 157.91Z" fill="#E6E6E6"/>
<path d="M195.709 158.19L155.239 151.44C153.939 151.22 152.639 151.83 151.969 152.96L139.659 173.69C138.959 174.87 137.609 175.5 136.249 175.27L133.369 174.79L181.379 182.79C182.279 182.94 183.179 182.52 183.639 181.74L196.549 160.01C196.999 159.27 196.559 158.33 195.709 158.19Z" fill="#C2C2C2"/>
<path d="M184.949 179.58L140.559 172.18L140.039 173.06L184.429 180.46L184.949 179.58Z" fill="#D2D2D2"/>
<path d="M169.58 166.32L170.55 164.72L167.99 164.29L167.02 165.89L169.58 166.32Z" fill="white"/>
<path d="M170.229 166.43L172.549 166.81L173.509 165.21L171.199 164.83L170.229 166.43Z" fill="white"/>
<path d="M169.239 166.88L166.679 166.46L165.719 168.06L168.269 168.48L169.239 166.88Z" fill="white"/>
<path d="M169.888 166.99L168.918 168.59L171.238 168.98L172.198 167.38L169.888 166.99Z" fill="white"/>
<path d="M135.24 174.6C135.12 174.58 132.14 174.04 132.01 174.02C127.84 173.17 129.04 171.33 129.04 171.33C130.29 171.84 131.69 172.41 132.6 172.28C133.51 172.11 133.91 171.61 133.97 171.12C131.85 170.3 128.75 168.28 126.88 167.11C126.09 166.62 124.08 166.07 121.23 165.9C118.04 159.41 115.62 148.97 115.62 148.97C115.62 148.97 104.94 151.05 106.12 153.29C109.89 160.41 113.49 167.7 120.3 172.77C120.36 172.81 120.41 172.85 120.47 172.89C121.97 174.14 123.49 175.27 124.74 176.12C126.86 176.57 129.48 177.57 131.13 177.76C132.18 178.01 134.73 175.63 135.24 174.6Z" fill="#F9DDBF"/>
<path d="M242.47 124.38C241.88 123.42 240.09 123.65 239.52 123.81C241.01 122.53 237.91 121.44 235.42 123.57C236.27 122.2 234.92 121.8 231.9 123.17C225.6 126.02 225.93 128.31 223.09 129.65C223.01 129.66 222.93 129.66 222.85 129.67C215.72 130.42 210.87 129.74 206.93 129.43L207.07 141.71C212.77 140.94 219.19 138.31 224.66 136.55C228.72 136.58 231.37 135.62 232.48 135.15C235.5 133.88 237.35 133.49 239.64 132.84C239.91 131.63 238.75 130.83 236.39 131.23C236.39 131.23 237.24 129.86 239.16 129.02C241.66 128.02 241.29 126.71 240.2 126.17C241.05 125.92 242.69 125.16 242.47 124.38Z" fill="#D4E7F4"/>
<path d="M136.509 108.23C116.349 118.42 102.299 138.02 104.049 149.02C105.799 160.02 116.759 169.69 116.759 169.69L120.749 165.39C120.749 165.39 115.549 145.56 119.549 142.06C126.219 136.22 139.289 129.78 140.789 122.78C142.289 115.78 144.099 104.39 136.509 108.23Z" fill="#EDAC28"/>
<path d="M219.75 73.27H218.94C217.82 73.27 216.92 74.17 216.92 75.29C216.92 76.41 217.82 77.31 218.94 77.31H219.75C220.87 77.31 221.77 76.41 221.77 75.29C221.77 74.17 220.86 73.27 219.75 73.27Z" fill="#C8C8C8"/>
<path d="M219.75 83.7798H218.94C217.82 83.7798 216.92 84.6798 216.92 85.7998C216.92 86.9198 217.82 87.8198 218.94 87.8198H219.75C220.87 87.8198 221.77 86.9198 221.77 85.7998C221.77 84.6798 220.86 83.7798 219.75 83.7798Z" fill="#C8C8C8"/>
<path d="M219.75 93.4702H218.94C217.82 93.4702 216.92 94.3702 216.92 95.4902C216.92 96.6102 217.82 97.5102 218.94 97.5102H219.75C220.87 97.5102 221.77 96.6102 221.77 95.4902C221.77 94.3802 220.86 93.4702 219.75 93.4702Z" fill="#C8C8C8"/>
<path d="M219.75 103.98H218.94C217.82 103.98 216.92 104.88 216.92 106C216.92 107.12 217.82 108.02 218.94 108.02H219.75C220.87 108.02 221.77 107.12 221.77 106C221.77 104.88 220.86 103.98 219.75 103.98Z" fill="#C8C8C8"/>
<path d="M219.75 114.49H218.94C217.82 114.49 216.92 115.39 216.92 116.51C216.92 117.63 217.82 118.53 218.94 118.53H219.75C220.87 118.53 221.77 117.63 221.77 116.51C221.77 115.39 220.86 114.49 219.75 114.49Z" fill="#C8C8C8"/>
<path d="M221.77 143.58H216.92V147.62H221.77V143.58Z" fill="#C8C8C8"/>
<path d="M221.77 154.9H216.92V158.94H221.77V154.9Z" fill="#C8C8C8"/>
<path d="M221.77 164.59H216.92V168.63H221.77V164.59Z" fill="#C8C8C8"/>
<path d="M221.77 175.1H216.92V179.14H221.77V175.1Z" fill="#C8C8C8"/>
<path d="M221.77 183.99H216.92V188.03H221.77V183.99Z" fill="#C8C8C8"/>
<path d="M221.77 194.5H216.92V198.54H221.77V194.5Z" fill="#C8C8C8"/>
<path d="M221.77 205H216.92V209.04H221.77V205Z" fill="#C8C8C8"/>
<path d="M221.77 215.51H216.92V219.55H221.77V215.51Z" fill="#C8C8C8"/>
<path d="M219.75 123.38H218.94C217.82 123.38 216.92 124.28 216.92 125.4C216.92 126.52 217.82 127.42 218.94 127.42H219.75C220.87 127.42 221.77 126.52 221.77 125.4C221.77 124.28 220.86 123.38 219.75 123.38Z" fill="#C8C8C8"/>
<path d="M220.92 133.88H217.77C217.3 133.88 216.92 134.26 216.92 134.73V137.07C216.92 137.54 217.3 137.92 217.77 137.92H220.92C221.39 137.92 221.77 137.54 221.77 137.07V134.73C221.77 134.26 221.39 133.88 220.92 133.88Z" fill="#C8C8C8"/>
<path d="M399.429 150.37H388.299V152.84H397.209C398.429 152.84 399.429 151.85 399.429 150.62V150.37Z" fill="#B5B5B5"/>
<path d="M386.33 124.81C386.3 124.51 386.21 124.21 386.06 123.94C385.92 123.66 385.72 123.41 385.49 123.2C385.25 122.99 384.98 122.82 384.7 122.71C384.41 122.6 384.11 122.54 383.82 122.55H343.04C343.03 122.91 343.01 123.27 343.01 123.63C343.01 134.66 346.79 144.8 353.11 152.85H387.55C387.85 152.86 388.13 152.8 388.39 152.69C388.65 152.58 388.88 152.41 389.06 152.2C389.24 151.99 389.38 151.74 389.45 151.46C389.53 151.18 389.54 150.89 389.5 150.59L386.33 124.81Z" fill="#D6D6D6"/>
<path d="M353.099 152.84H389.159L388.859 150.37H351.279C351.859 151.22 352.469 152.04 353.099 152.84Z" fill="#707070"/>
<path d="M363.6 135.06H361.93L362.14 136.73H363.81L363.6 135.06Z" fill="#B5B5B5"/>
<path d="M365.891 135.06H364.221L364.431 136.73H366.101L365.891 135.06Z" fill="#B5B5B5"/>
<path d="M363.91 137.57H362.24L362.45 139.24H364.12L363.91 137.57Z" fill="#B5B5B5"/>
<path d="M366.199 137.57H364.529L364.739 139.24H366.409L366.199 137.57Z" fill="#B5B5B5"/>
<path d="M388.889 150.78L385.659 124.47C385.549 123.67 384.999 122.52 383.109 122.52H385.169C386.409 122.52 387.169 123.25 387.339 124.47L390.569 150.78C390.759 152.18 390.209 152.83 388.899 152.84H386.839C387.409 152.66 389.059 152.22 388.889 150.78Z" fill="#B5B5B5"/>
<path d="M508.02 28.8901H454.82C452.3 28.8901 450.25 30.9401 450.25 33.4601V35.5801C450.25 38.1001 452.3 40.1501 454.82 40.1501H508.02C510.54 40.1501 512.59 38.1001 512.59 35.5801V33.4601C512.59 30.9301 510.55 28.8901 508.02 28.8901Z" fill="#737373"/>
<path opacity="0.5" d="M364.06 84.2397C351.36 92.7397 343 107.2 343 123.63C343 140.06 351.36 154.52 364.05 163.02V84.2397H364.06Z" fill="white"/>
<defs>
<radialGradient id="paint0_radial" cx="0" cy="0" r="1" gradientUnits="userSpaceOnUse" gradientTransform="translate(155.355 189.254) scale(26.5021)">
<stop offset="0.2997" stop-color="#737373"/>
<stop offset="0.4039" stop-color="#7F7F7F"/>
<stop offset="0.5934" stop-color="#8E8E8E"/>
<stop offset="0.7468" stop-color="#939393"/>
</radialGradient>
<radialGradient id="paint1_radial" cx="0" cy="0" r="1" gradientUnits="userSpaceOnUse" gradientTransform="translate(174.34 131.148) rotate(-177.329) scale(18.2026)">
<stop offset="0.00546875" stop-color="#C78E00"/>
<stop offset="0.6842" stop-color="#EDAC28"/>
</radialGradient>
<radialGradient id="paint2_radial" cx="0" cy="0" r="1" gradientUnits="userSpaceOnUse" gradientTransform="translate(119.207 128.33) rotate(-178.848) scale(36.6982)">
<stop offset="0.00546875" stop-color="#C78E00"/>
<stop offset="0.6842" stop-color="#EDAC28"/>
</radialGradient>
<radialGradient id="paint3_radial" cx="0" cy="0" r="1" gradientUnits="userSpaceOnUse" gradientTransform="translate(155.938 91.1423) rotate(-178.848) scale(16.6752)">
<stop offset="0.2586" stop-color="#CF8E68"/>
<stop offset="0.7098" stop-color="#F9DDBF"/>
</radialGradient>
<radialGradient id="paint4_radial" cx="0" cy="0" r="1" gradientUnits="userSpaceOnUse" gradientTransform="translate(158.379 86.4126) rotate(-179.569) scale(8.84832)">
<stop offset="0.1937" stop-color="#C78760"/>
<stop offset="0.7053" stop-color="#F9DDBF"/>
</radialGradient>
<radialGradient id="paint5_radial" cx="0" cy="0" r="1" gradientUnits="userSpaceOnUse" gradientTransform="translate(519.992 51.1255) scale(5.71479)">
<stop offset="0.3818" stop-color="#B2B2B2"/>
<stop offset="0.7039" stop-color="#BFBFBF"/>
</radialGradient>
<radialGradient id="paint6_radial" cx="0" cy="0" r="1" gradientUnits="userSpaceOnUse" gradientTransform="translate(502.212 51.1255) scale(5.71481)">
<stop offset="0.3818" stop-color="#B2B2B2"/>
<stop offset="0.7039" stop-color="#BFBFBF"/>
</radialGradient>
<radialGradient id="paint7_radial" cx="0" cy="0" r="1" gradientUnits="userSpaceOnUse" gradientTransform="translate(448.872 51.1255) scale(5.71479)">
<stop offset="0.3818" stop-color="#B2B2B2"/>
<stop offset="0.7039" stop-color="#BFBFBF"/>
</radialGradient>
<radialGradient id="paint8_radial" cx="0" cy="0" r="1" gradientUnits="userSpaceOnUse" gradientTransform="translate(394.865 93.0467) scale(7.1502)">
<stop offset="0.1432" stop-color="#9B643D"/>
<stop offset="0.3956" stop-color="#A16B44" stop-opacity="0.7053"/>
<stop offset="0.7681" stop-color="#B27F58" stop-opacity="0.2704"/>
<stop offset="0.9997" stop-color="#BF8F68" stop-opacity="0"/>
</radialGradient>
<radialGradient id="paint9_radial" cx="0" cy="0" r="1" gradientUnits="userSpaceOnUse" gradientTransform="translate(390.301 87.5218) rotate(-175.921) scale(4.5328 4.86595)">
<stop offset="0.000320513" stop-color="#9B643D"/>
<stop offset="0.8822" stop-color="#BA8A63" stop-opacity="0.1178"/>
<stop offset="1" stop-color="#BF8F68" stop-opacity="0"/>
</radialGradient>
<radialGradient id="paint10_radial" cx="0" cy="0" r="1" gradientUnits="userSpaceOnUse" gradientTransform="translate(374.278 154.929) scale(8.1666)">
<stop stop-color="#E3646A"/>
<stop offset="0.4464" stop-color="#EE9058"/>
<stop offset="0.7956" stop-color="#F4AB4C"/>
<stop offset="1" stop-color="#F7B548"/>
</radialGradient>
<radialGradient id="paint11_radial" cx="0" cy="0" r="1" gradientUnits="userSpaceOnUse" gradientTransform="translate(405.749 146.579) rotate(-175.475) scale(20.6854 29.3421)">
<stop offset="0.1363" stop-color="#7477AE"/>
<stop offset="0.7499" stop-color="#8B8CC7"/>
</radialGradient>
</defs>
</svg>
