<svg xmlns="http://www.w3.org/2000/svg" xmlns:xlink="http://www.w3.org/1999/xlink" viewBox="0 0 636 300"><defs><clipPath id="a"><polygon points="270.167 267.5 359.5 29.5 511.5 29.5 511.5 266.5 270.167 267.5" fill="none"/></clipPath><clipPath id="b"><polygon points="263.5 267.5 352.833 29.5 107.5 29.5 107.5 266.5 263.5 267.5" fill="none"/></clipPath></defs><title>swimlane-browser-server</title><g clip-path="url(#a)"><rect x="267.5" y="34.5" width="239" height="226" rx="7.396" fill="#8867c8"/><path d="M349.5,253.1V41.9a7.4,7.4,0,0,1,7.4-7.4h-82a7.4,7.4,0,0,0-7.4,7.4V253.1a7.4,7.4,0,0,0,7.4,7.4h82A7.4,7.4,0,0,1,349.5,253.1Z" fill="#6f55ad"/><line x1="505.5" y1="67.5" x2="344.5" y2="67.5" fill="none" stroke="#5c2d91" stroke-miterlimit="10" stroke-width="2"/><rect x="369.5" y="41.5" width="126" height="18" rx="2.098" fill="#a996f0"/><circle cx="486" cy="50" r="3.5" fill="#ffb900"/><circle cx="474" cy="50" r="3.5" fill="#ffb900"/><rect x="375.5" y="44.5" width="5" height="12" fill="#b3d6f2"/><rect x="385.5" y="44.5" width="5" height="12" fill="#b3d6f2"/><rect x="395.5" y="44.5" width="5" height="12" fill="#b3d6f2"/><rect x="405.5" y="44.5" width="5" height="12" fill="#b3d6f2"/><rect x="415.5" y="44.5" width="5" height="12" fill="#b3d6f2"/><rect x="425.5" y="44.5" width="5" height="12" fill="#b3d6f2"/><rect x="369.5" y="74.5" width="126" height="18" rx="2.098" fill="#a996f0"/><circle cx="486" cy="83" r="3.5" fill="#ffb900"/><circle cx="474" cy="83" r="3.5" fill="#ffb900"/><rect x="375.5" y="77.5" width="5" height="12" fill="#b3d6f2"/><rect x="385.5" y="77.5" width="5" height="12" fill="#b3d6f2"/><rect x="395.5" y="77.5" width="5" height="12" fill="#b3d6f2"/><rect x="405.5" y="77.5" width="5" height="12" fill="#b3d6f2"/><rect x="415.5" y="77.5" width="5" height="12" fill="#b3d6f2"/><rect x="425.5" y="77.5" width="5" height="12" fill="#b3d6f2"/><rect x="369.5" y="106.5" width="126" height="18" rx="2.098" fill="#a996f0"/><circle cx="486" cy="115" r="3.5" fill="#ffb900"/><circle cx="474" cy="115" r="3.5" fill="#ffb900"/><rect x="375.5" y="109.5" width="5" height="12" fill="#b3d6f2"/><rect x="385.5" y="109.5" width="5" height="12" fill="#b3d6f2"/><rect x="395.5" y="109.5" width="5" height="12" fill="#b3d6f2"/><rect x="405.5" y="109.5" width="5" height="12" fill="#b3d6f2"/><rect x="415.5" y="109.5" width="5" height="12" fill="#b3d6f2"/><rect x="425.5" y="109.5" width="5" height="12" fill="#b3d6f2"/><rect x="369.5" y="138.5" width="126" height="18" rx="2.098" fill="#a996f0"/><circle cx="486" cy="147" r="3.5" fill="#ffb900"/><circle cx="474" cy="147" r="3.5" fill="#ffb900"/><rect x="375.5" y="141.5" width="5" height="12" fill="#b3d6f2"/><rect x="385.5" y="141.5" width="5" height="12" fill="#b3d6f2"/><rect x="395.5" y="141.5" width="5" height="12" fill="#b3d6f2"/><rect x="405.5" y="141.5" width="5" height="12" fill="#b3d6f2"/><rect x="415.5" y="141.5" width="5" height="12" fill="#b3d6f2"/><rect x="425.5" y="141.5" width="5" height="12" fill="#b3d6f2"/><rect x="369.5" y="170.5" width="126" height="18" rx="2.098" fill="#a996f0"/><circle cx="486" cy="179" r="3.5" fill="#ffb900"/><circle cx="474" cy="179" r="3.5" fill="#ffb900"/><rect x="375.5" y="173.5" width="5" height="12" fill="#b3d6f2"/><rect x="385.5" y="173.5" width="5" height="12" fill="#b3d6f2"/><rect x="395.5" y="173.5" width="5" height="12" fill="#b3d6f2"/><rect x="405.5" y="173.5" width="5" height="12" fill="#b3d6f2"/><rect x="415.5" y="173.5" width="5" height="12" fill="#b3d6f2"/><rect x="425.5" y="173.5" width="5" height="12" fill="#b3d6f2"/><rect x="369.5" y="202.5" width="126" height="18" rx="2.098" fill="#a996f0"/><circle cx="486" cy="211" r="3.5" fill="#ffb900"/><circle cx="474" cy="211" r="3.5" fill="#ffb900"/><rect x="375.5" y="205.5" width="5" height="12" fill="#b3d6f2"/><rect x="385.5" y="205.5" width="5" height="12" fill="#b3d6f2"/><rect x="395.5" y="205.5" width="5" height="12" fill="#b3d6f2"/><rect x="405.5" y="205.5" width="5" height="12" fill="#b3d6f2"/><rect x="415.5" y="205.5" width="5" height="12" fill="#b3d6f2"/><rect x="425.5" y="205.5" width="5" height="12" fill="#b3d6f2"/><rect x="369.5" y="235.5" width="126" height="18" rx="2.098" fill="#a996f0"/><circle cx="486" cy="244" r="3.5" fill="#ffb900"/><circle cx="474" cy="244" r="3.5" fill="#ffb900"/><rect x="375.5" y="238.5" width="5" height="12" fill="#b3d6f2"/><rect x="385.5" y="238.5" width="5" height="12" fill="#b3d6f2"/><rect x="395.5" y="238.5" width="5" height="12" fill="#b3d6f2"/><rect x="405.5" y="238.5" width="5" height="12" fill="#b3d6f2"/><rect x="415.5" y="238.5" width="5" height="12" fill="#b3d6f2"/><rect x="425.5" y="238.5" width="5" height="12" fill="#b3d6f2"/><line x1="505.5" y1="163.5" x2="308.5" y2="163.5" fill="none" stroke="#5c2d91" stroke-miterlimit="10" stroke-width="2"/><line x1="505.5" y1="99.5" x2="329.5" y2="99.5" fill="none" stroke="#5c2d91" stroke-miterlimit="10" stroke-width="2"/><line x1="505.5" y1="131.5" x2="317.5" y2="131.5" fill="none" stroke="#5c2d91" stroke-miterlimit="10" stroke-width="2"/><line x1="281.5" y1="228.5" x2="505.5" y2="228.5" fill="none" stroke="#5c2d91" stroke-miterlimit="10" stroke-width="2"/><line x1="505.5" y1="195.5" x2="293.5" y2="195.5" fill="none" stroke="#5c2d91" stroke-miterlimit="10" stroke-width="2"/></g><g clip-path="url(#b)"><rect x="113.5" y="34.5" width="321" height="227" rx="6.075" fill="#b3d6f2"/><path d="M434.5,70.5V40.565a6.066,6.066,0,0,0-6.065-6.065H119.565a6.066,6.066,0,0,0-6.065,6.065V70.5Z" fill="#939393"/><rect x="153.5" y="45.5" width="14" height="14" fill="#b3d6f2"/><rect x="127.5" y="45.5" width="14" height="14" fill="#b3d6f2"/><rect x="406.5" y="45.5" width="14" height="14" fill="#d2d2d2"/><rect x="180.5" y="45.5" width="214" height="14" fill="#fff"/><rect x="179.5" y="45.5" width="14" height="14" fill="#ffb900"/><rect x="156.5" y="98.5" width="135" height="17" fill="#fff"/><rect x="156.5" y="131.5" width="135" height="43" fill="#95bede"/><line x1="156.5" y1="198.5" x2="223.5" y2="198.5" fill="none" stroke="#fff" stroke-miterlimit="10" stroke-width="4"/><line x1="156.5" y1="207.5" x2="223.5" y2="207.5" fill="none" stroke="#fff" stroke-miterlimit="10" stroke-width="4"/><line x1="156.5" y1="216.5" x2="223.5" y2="216.5" fill="none" stroke="#fff" stroke-miterlimit="10" stroke-width="4"/><line x1="156.5" y1="225.5" x2="223.5" y2="225.5" fill="none" stroke="#fff" stroke-miterlimit="10" stroke-width="4"/><polyline points="327.5 99.5 156.5 99.5 156.5 115.5 291.5 115.5" fill="none" stroke="#5c2d91" stroke-miterlimit="10" stroke-width="2" stroke-dasharray="2 3"/><polyline points="315.5 131.5 156.5 131.5 156.5 174.5 198.5 174.5" fill="none" stroke="#5c2d91" stroke-miterlimit="10" stroke-width="2" stroke-dasharray="2 3"/><polyline points="290.5 195.5 156.5 195.5 156.998 227.5 278.5 227.5" fill="none" stroke="#5c2d91" stroke-miterlimit="10" stroke-width="2" stroke-dasharray="2 3"/></g></svg>