<svg xmlns="http://www.w3.org/2000/svg" viewBox="0 0 450 300"><defs><style>.a{fill:#dad0ff;}.b{fill:#a996f0;}.c,.k{fill:#e24f01;}.d,.i{fill:#9c2801;}.e{fill:#ec6401;}.f,.n{fill:#fff;}.g{fill:#220c3d;}.au,.h{fill:#8e562e;}.ac,.ax,.ay,.ba,.bc,.h,.i,.j,.k,.l,.m,.n,.o,.r,.s,.t,.u,.v{fill-rule:evenodd;}.bb,.j{fill:#ffa940;}.l{fill:#d0b28d;}.m{fill:#b89e7c;}.o{fill:#f0ae00;}.p,.r{fill:#d9c1a4;}.q{fill:#e81123;}.s{fill:#ee4d5a;}.al,.t{fill:#737373;}.aj,.u{fill:#666;}.ar,.v{fill:#394453;}.w{fill:#d83b01;}.ac,.x{fill:#f57800;}.y{fill:#c9ad74;}.z{fill:#8867c8;}.aa,.bc{fill:none;}.ab{fill:#b2b2b2;}.ad{fill:#f6cba7;}.ae{fill:#ddb694;}.af{fill:#c8c8c8;}.ag{fill:#bcbec0;}.ah{fill:#414042;}.ai{fill:#505050;}.ak{fill:#c09f81;}.am{fill:#939393;}.an{fill:#eaeaea;}.ao{fill:#8c562f;}.ap{fill:#451e7c;}.aq{fill:#025b56;}.as{fill:#5c2d91;}.at{fill:#999;}.av{fill:#724aad;}.aw{fill:#231f20;}.ax{fill:#333;}.ay{fill:#cb8c84;}.az,.ba{fill:#1b1b1b;}.bc{stroke:#724aad;stroke-linecap:round;stroke-linejoin:round;stroke-width:2px;}.bd{fill:#ff8c00;}</style></defs><title>swimlane-real-time-sharing</title><polygon class="a" points="450 279.68 270.443 279.68 233.498 20.32 450 20.32 450 279.68"/><rect class="b" x="324.384" y="128.202" width="28.818" height="27.34"/><rect class="b" x="354.68" y="43.227" width="28.818" height="27.34"/><rect class="b" x="354.68" y="71.305" width="28.818" height="27.34"/><rect class="b" x="324.384" y="71.305" width="28.818" height="27.34"/><rect class="b" x="324.384" y="100.123" width="28.818" height="27.34"/><rect class="b" x="324.384" y="43.227" width="28.818" height="27.34"/><rect class="b" x="354.68" y="100.123" width="28.818" height="27.34"/><rect class="b" x="384.975" y="100.123" width="28.818" height="27.34"/><rect class="b" x="384.975" y="128.202" width="28.818" height="27.34"/><rect class="b" x="384.975" y="43.227" width="28.818" height="27.34"/><rect class="b" x="384.975" y="71.305" width="28.818" height="27.34"/><rect class="b" x="354.68" y="128.202" width="28.818" height="27.34"/><path class="b" d="M415.09,264.163H70.053a3.023,3.023,0,0,1-2.941-2.956,2.957,2.957,0,0,1,2.941-2.956H415.09a2.9,2.9,0,0,1,2.941,2.956,2.957,2.957,0,0,1-2.941,2.956Z"/><path class="c" d="M362.817,260.468h35.572a5.407,5.407,0,0,0,5.251-4.751l2.574-24.488a4.2,4.2,0,0,0-4.252-4.751H366.39a5.407,5.407,0,0,0-5.251,4.751l-2.574,24.488A4.2,4.2,0,0,0,362.817,260.468Z"/><path class="d" d="M365.034,260.468h35.571a5.407,5.407,0,0,0,5.251-4.751l2.574-24.488a4.2,4.2,0,0,0-4.252-4.751H368.606a5.407,5.407,0,0,0-5.251,4.751l-2.574,24.488A4.2,4.2,0,0,0,365.034,260.468Z"/><path class="e" d="M393.077,226.478c.012.245.027.49.027.739,0,5.7-3.315,10.345-7.389,10.345s-7.389-4.641-7.389-10.345c0-.249.014-.494.027-.739h-1.476c-.012.246-.028.49-.028.739,0,6.519,3.977,11.823,8.867,11.823s8.867-5.3,8.867-11.823c0-.249-.017-.493-.028-.739Z"/><polygon class="f" points="309.108 209.483 367.475 209.833 374.275 260.468 371.938 260.468 365.488 212.438 341.829 212.183 348.313 260.468 345.836 260.468 339.386 212.438 310.965 212.131 301.66 260.468 299.292 260.468 309.108 209.483"/><path class="g" d="M348.546,146.466c6.018-.231,16.172,0,20.365,0s6.24.351,6.147,4.209c-.237,9.829-1.868,44.192-2.378,52.083-.271,4.192-3.132,7.365-9.72,7.464H304.14a7.839,7.839,0,0,1,7.451-6.65h19.288c0,.413,9.332-42.373,10.595-48.337C342.81,148.921,344.6,146.618,348.546,146.466Z"/><path class="h" d="M363.693,146.018c-13.794,4.259-23.053-14.072-23.053-14.072v-11.85l17.762-.556.189,1.3C358.591,134.908,358.591,141.2,363.693,146.018Z"/><path class="i" d="M302.956,261.207v-8.128h-8.75a11.576,11.576,0,0,0-10.893,8.128Z"/><path class="j" d="M294.3,252.34a12.13,12.13,0,0,0-10.685,5.911h13.619a6.57,6.57,0,0,0,6.455-5.911Z"/><path class="k" d="M319.951,193.227v-.739h-12.22c-7.741.749-13.971,8.592-14.381,16.062h0v.747c.221,36.927.3,42.739.317,43.458a.087.087,0,0,0,.09.089c2.767-.016,8.539,0,9.274,0a.087.087,0,0,0,.085-.086c3-37,3.1-45.561,3.1-46.5a.091.091,0,0,1,.091-.093c8.236,0,21.627.185,21.627.185,8.084,0,14.477-5.224,14.531-13.2,0-.055-.045-.1-.1.074Z"/><path class="k" d="M333.99,193.966v-.739H323.26c-7.741.67-13.972,8.61-14.393,16.172h0v43.578c4.505.033,9.968.033,9.968.033,2.426-30.869,2.85-41.756,2.912-45.232a1.478,1.478,0,0,1,1.494-1.458c4.879.043,20.062.176,20.221.176,8.119,0,14.538-4.659,14.538-12.53Z"/><path class="i" d="M319.212,261.207v-8.128h-8.65a11.67,11.67,0,0,0-10.993,8.128Z"/><path class="j" d="M309.708,252.34a12.867,12.867,0,0,0-10.953,5.911h14a6.723,6.723,0,0,0,6.694-5.911Z"/><path class="l" d="M350.985,142.214V131.158H340.271l-.185,10.9a1.389,1.389,0,0,1-1.293.924h-3.325v23.645H356.9V142.98h-5.145A.769.769,0,0,1,350.985,142.214Z"/><path class="m" d="M350.985,137.478v-7.059H340l-.189,11.177C349.091,141.6,350.985,137.478,350.985,137.478Z"/><path class="m" d="M338.5,142.592c0,.187-.175.187-.175.388h-2.116v17.54c-.154.187.2.373.021.933h.175a1.384,1.384,0,0,0,.543-.186v-.374C336.4,154.918,338.5,142.592,338.5,142.592Z"/><path class="n" d="M325.542,193.227s13.586,16.067,32.833,16.067V193.227Z"/><path class="n" d="M356.738,142.98h-4.945c-3.994,6.906-8.749,13.589-15.025,18.069-1.141-5.6-.57-11.909.57-18.069h-.951a13.038,13.038,0,0,0-12.742,12.842v8.586h2.217v29.557h32.512V164.409h10.345v-9.333C368.529,148.73,363.2,142.98,356.738,142.98Z"/><path class="o" d="M326.6,163.887v29.34h13.971Z"/><path class="l" d="M368.719,163.67H358.374v6.246a1.231,1.231,0,0,1-.958,1.131c-4,1.355-20.67,6.2-20.67,6.2-13.985,0-14.579,7.747-14.579,7.747a79.615,79.615,0,0,0,15.47-2.285c10.055-.621,26.1-2.8,26.1-2.8a5.769,5.769,0,0,0,4.981-5.841Z"/><polygon class="m" points="368.719 166.464 368.719 163.67 358.939 163.67 368.719 166.464"/><ellipse class="p" cx="335.296" cy="125.128" rx="3.842" ry="3.493"/><circle class="q" cx="332.502" cy="127.573" r="1.048"/><ellipse class="p" cx="355.555" cy="125.128" rx="3.842" ry="3.493"/><circle class="q" cx="358.349" cy="127.573" r="1.048"/><path class="l" d="M356.6,115.625a13.85,13.85,0,0,0-10.92-4.982c-9.79,0-15.626,10.518-11.673,19.191a16.039,16.039,0,0,0,4.707,6.827,8.486,8.486,0,0,0,2.636,1.845c3.2,1.292,6.025.369,8.66-1.107a41.261,41.261,0,0,0,3.389-2.583,6.77,6.77,0,0,0,2.636-5.351Z"/><path class="r" d="M335.82,119.694a22.239,22.239,0,0,1,3.318-7.839c-4.191,2.24-6.287,6.906-6.287,12.318,0,4.853,1.048,8.212,4.715,12.132C335.122,131.639,334.772,124.547,335.82,119.694Z"/><path class="h" d="M345.708,106.267c-7.343,0-13.367,6.466-13.555,14.7a8.481,8.481,0,0,0,4.33,1.176c6.025,0,11.108-4.311,12.99-10.385,1.318,3.919,2.824,8.229,7.531,10.189.565.392,1.13-1.371,1.694-1.176C358.322,112.733,353.239,106.267,345.708,106.267Z"/><path class="r" d="M342.857,129.68v-5.589c-.524,0-.873.524-1.048,1.048l-.349,4.541Z"/><path class="m" d="M341.234,129.68a2.356,2.356,0,0,0,2.1,1.4,2.183,2.183,0,0,0,2.1-1.4Z"/><path class="s" d="M344.059,131.415a.8.8,0,0,0-.729.752c-.182-.376-.547-.752-.729-.752a8.255,8.255,0,0,0-3.463.752c.547,2.445,2.187,4.138,4.192,4.138s3.645-1.693,4.191-4.138A8.255,8.255,0,0,0,344.059,131.415Z"/><path class="m" d="M339.138,132.636a4.541,4.541,0,0,0,8.383,0Z"/><path class="n" d="M339.138,132.636c.547,1.222,2.187,2.1,4.192,2.1s3.645-.873,4.191-2.1Z"/><circle cx="338.091" cy="124.08" r="1.048"/><circle cx="348.569" cy="124.08" r="1.048"/><path class="t" d="M337.6,151.847H300.443a.889.889,0,0,0-.953,1.144l4.573,28.412h39.252l-4.573-28.794A1.045,1.045,0,0,0,337.6,151.847Z"/><path class="u" d="M342.857,183.456c12.075,0,12.24.555,12.24.555a.367.367,0,0,0,.322-.358v-1.075a.377.377,0,0,0-.322-.358c-4.187-.279-12.24-.913-12.24-.913Z"/><path class="v" d="M342.857,183.621H304.645a.886.886,0,0,1-.951-.924V181.4h39.163Z"/><path class="w" d="M215.525,185.837s13.241,8.867,20.169,8.867H372.757c6.921,0,9.074,2,10,6.921s7.274,58.843,7.274,58.843H393.1l-.2-74.631Z"/><rect class="x" x="200.246" y="182.882" width="205.419" height="4.434"/><path class="y" d="M380.542,181.633c-.322.157-.474.233-.632-.229h-6.436c-.151.462-.3.386-.322.229v-.384c.019-.151.171-.309.322-.583h6.436a1.258,1.258,0,0,0,.632.583Z"/><path class="z" d="M383.066,179.068c1.023-.363,2.269-.841,2.553-1.006a.28.28,0,0,1,.162-.073,2.608,2.608,0,0,0,1.81-3.437,1.965,1.965,0,0,0-1.181-1.49,4.381,4.381,0,0,0-2.913.18v-.254a.5.5,0,0,0-.474-.452H370.576a.379.379,0,0,0-.379.379v4.7c0,.008,0,.016,0,.023s0,.033,0,.05c0,1.694,1.79,3.159,4.347,3.714h-8.129c0,.824,4.645,1.5,10.316,1.5,5.742,0,10.387-.671,10.387-1.5H379.08A6.231,6.231,0,0,0,383.066,179.068Zm2.806-5.06a.843.843,0,0,1,.461.693c.379,1.619-.461,2-1.074,2.237-.152.076-.234.076-.385.151a14.673,14.673,0,0,1-1.378.607c0-.015,0-.03,0-.046s0-.012,0-.019V174.4A3.083,3.083,0,0,1,385.872,174.008Z"/><rect class="aa" y="37.315" width="257.143" height="234.236"/><path class="ab" d="M267.426,258.251l-247.127,0a2.956,2.956,0,0,0-2.941,2.955,3.022,3.022,0,0,0,2.941,2.955l247.928,0Z"/><path class="ac" d="M124.327,29.187c-24.894,0-45.262,20.311-45.262,45.988v67.066h90.148V75.175C169.212,49.5,149.221,29.187,124.327,29.187Z"/><path class="j" d="M169.212,74.6a48.1,48.1,0,0,0-.9-9.3,10.352,10.352,0,0,0-6.218-1.959c-4.564,0-9.128,3.723-9.543,8.272a10.011,10.011,0,0,0-17.011,6.2,8.112,8.112,0,0,0-3.319-.414,9.513,9.513,0,1,0,0,19.027h36.992Z"/><path class="ad" d="M104.962,167.434c-1.881.423-4.137.8-6.131,1.106l-2.512,14.953,11.918-.248Z"/><path class="ae" d="M105.415,169.621l-.453-2.187c-1.881.423-4.137.8-6.131,1.106l-.566,3.371Z"/><polygon class="z" points="196.552 253.733 196.552 247.259 186.322 249.257 183.924 256.61 196.552 253.733"/><path class="g" d="M76.271,148.174c-5.8-.223-15.575,0-19.613,0s-6.01.338-5.92,4.054c.228,9.466,1.8,42.562,2.291,50.162.261,4.038,3.016,7.094,9.362,7.094h56.65a7.028,7.028,0,0,0-7.176-5.911H93.286s-8.988-41.208-10.2-46.953C81.8,150.538,80.075,148.32,76.271,148.174Z"/><path class="e" d="M95.731,168.989a95.184,95.184,0,0,0,11.016-2.008c-1.345-7.086-3.672-18.672-4.007-20.074-1.885-7.892-10.139-2.9-9.188,2.12C94.106,151.95,95.013,161.354,95.731,168.989Z"/><polygon class="af" points="123.317 209.483 57.115 209.828 49.403 259.729 52.089 259.729 59.398 212.438 86.21 212.187 78.862 259.729 81.668 259.729 88.977 212.438 121.185 212.136 131.73 259.729 134.451 259.729 123.317 209.483"/><polygon class="ag" points="112.34 251.346 112.996 245.019 122.791 248.008 124.389 255.437 112.34 251.346"/><path class="ah" d="M112.162,250.775a51.637,51.637,0,0,0,6.238,1.515c1.875.194,2.734-4.2,5.969-1.986s2.885,3.344,10.452,7.321c2.62,1.377-.817,3.31-.817,3.31l-22.729-2.357Z"/><polygon class="ag" points="100.493 253.233 100.493 246.872 110.544 248.836 112.9 256.06 100.493 253.233"/><path class="ai" d="M113.891,193.966h7.067c3.612,0,11.02,1.23,10.288,10.305-1.076,13.325-6.654,45.024-6.654,45.024l-12.382-1.9s3.958-37.564,2.7-38.663-9.816-2.2-9.816-2.2l1.492-12.564Z"/><path class="g" d="M53.54,202.955c.68-7.786,4.312-41.69,5.611-51.388.51-3.807,2.891-4.153,7.652-4.153h7.089s-.475,41.83-.475,48.007c0,5.34,2.487,7.6,6.231,8.116a7.229,7.229,0,0,0,1.412.034s32.417.1,39.882.1,7.466,6.545,7.466,6.545H59.8C54.562,210.222,53.178,207.091,53.54,202.955Z"/><path class="ad" d="M81.589,138.434c-5.643-.394-8.53-6.43-8.53-6.43A30.025,30.025,0,0,1,70.7,120.719l.787-8.136,10.367-5.118,11.024,8,.131,5.249A29.518,29.518,0,0,1,90.644,132s-3.15,6.693-9.055,6.43Z"/><path class="ad" d="M71.32,121.116a1.253,1.253,0,0,0-1.217-.656s-1.218.131-.812,2.1l.271.919.27,1.05.406.919.271.656a5.271,5.271,0,0,1,.271,1.181.826.826,0,0,0,.676.919h.812a58.31,58.31,0,0,1,.135-6.561Z"/><path class="w" d="M60.519,142.324C64.13,141.6,78.5,138.65,78.5,138.65l6.658.167c1.708.412,3.156.705,14.431,3.846a5.178,5.178,0,0,1,3.321,4.779c.131,2.887-5.389,45.785-5.389,45.785l-36.189-.5-.06-28.621L60.5,147.653S56.908,143.044,60.519,142.324Z"/><path class="ad" d="M81.65,144.12c-3.474,0-6.281-1.8-6.281-4.713v-3.816H87.931v3.816c0,2.918-2.806,4.713-6.281,4.713Z"/><path class="aj" d="M92.365,115.053v5.76h-.739V117.7c-4.919,2.756-11.874-5.931-17.386-2.519.394,5.643-2.1,6.37-2.1,6.37H71.063l-.127-6.5v-.265c.127-5.7,4.565-8.753,9.89-8.753H82.6c5.325,0,9.636,3.05,9.763,8.753v.265Z"/><path class="ak" d="M86.307,128.2c0,.394-.263.656-.787.656-.131,0-.131.262-.394.394a1.417,1.417,0,0,1-.919.394,1.191,1.191,0,0,1-.919-.394c-.263-.131-.394-.394-.525-.394a.62.62,0,0,1-.656-.656h4.2Z"/><path class="ae" d="M84.237,122.687V128.2H82.107s0-.135.262-.266A10.951,10.951,0,0,0,83.5,126.1v-2.493c-.341-.656.447-.919.709-.919Z"/><path class="ae" d="M87.931,137.25l-.134.134c-1.737,1.47-4.143,2-7.083,1.737a16.576,16.576,0,0,1-5.345-1.771v-1.837a10.86,10.86,0,0,0,5.345,2.272,9.051,9.051,0,0,0,7.216-2.138Z"/><path class="f" d="M88.8,131.742a20.535,20.535,0,0,1-9.383,0,7.485,7.485,0,0,0,4.692,2.231A7.485,7.485,0,0,0,88.8,131.742Z"/><path class="ai" d="M61.33,192.248v4.543c0,2.35-.783,7.52,7.99,7.52H94.855l5.326,44.335h12.846l-2.977-55.3Z"/><path class="ah" d="M100.571,252.615a51.632,51.632,0,0,0,6.361.864c1.885,0,3.269-4.321,5.733-2.591s3.214,3.029,11.151,6.2c2.748,1.1-.471,3.377-.471,3.377H100.493Z"/><path class="al" d="M237.192,192.027v4.626c0,2.393.8,7.657-8.136,7.657h-26L197.3,251.6h-13.08l3.365-58.458Z"/><path d="M183.594,182.882l-36.173.062c-.879,0-3.185-1.686-3.185-1.686l-4.348-30.775a1.351,1.351,0,0,1,1.368-1.591h38.432a1.893,1.893,0,0,1,1.815,1.591l4.388,31.085C186.013,182.447,184.473,182.882,183.594,182.882Z"/><path class="am" d="M182.985,179.926H146.736a1.079,1.079,0,0,1-1.035-.9l-3.9-27.758a.769.769,0,0,1,.782-.9h36.24a1.089,1.089,0,0,1,1.045.908l3.9,27.749A.769.769,0,0,1,182.985,179.926Z"/><polygon class="an" points="181.906 177.709 147.261 177.709 143.626 151.847 178.271 151.847 181.906 177.709"/><path class="ao" d="M209.409,129.375l1.008,9.231-11.345,4.424-1.376-12.6C199.876,127.726,208.381,126.238,209.409,129.375Z"/><polygon class="z" points="173.645 253.733 173.645 247.259 163.415 249.257 161.017 256.61 173.645 253.733"/><path class="ah" d="M173.567,252.594a51.769,51.769,0,0,1-6.378.866c-1.89,0-3.149-2.6-3.149-2.6h-2.6s-3.223,3.037-11.181,6.22c-2.756,1.1.472,3.386.472,3.386h22.912Z"/><path class="al" d="M183.2,194.7h-7.178c-3.669,0-7.988.847-9.092,9.807-1.515,12.3-5.56,47.09-5.56,47.09H174.45s6.437-41.175,7.713-42.264,23.656-2.179,23.656-2.179L204.3,194.7Z"/><path class="ap" d="M236.46,170.772a4.4,4.4,0,0,0-5.664-3.094c-.131-.028-.131-.028-.289.074,0,0-24.385,7.348-24.932,7.482l2.209,7.35c.391-.065,25.7-5.852,25.7-5.852A4.755,4.755,0,0,0,236.46,170.772Z"/><path class="aq" d="M236.46,170.772a4.4,4.4,0,0,0-5.664-3.094c-.131-.028-.131-.028-.289.074,0,0-24.385,7.348-24.932,7.482l2.209,7.35c.391-.065,25.7-5.852,25.7-5.852A4.755,4.755,0,0,0,236.46,170.772Z"/><path class="ar" d="M192.857,181.777a1.1,1.1,0,0,1-1.1,1.1h-46.8c-.8,0-1.287-.71-1.454-1.53l-.125-.687h49.479Z"/><path class="ah" d="M197.212,252.594a51.769,51.769,0,0,1-6.378.866c-1.89,0-3.15-2.6-3.15-2.6h-2.6s-3.223,3.037-11.181,6.22c-2.756,1.1.472,3.386.472,3.386h22.912Z"/><path class="as" d="M212.718,137.256c-5.723-1.012-16.978,1.093-16.978,1.093s2.487-3.787,8.55-4.3S211.174,135.375,212.718,137.256Z"/><path class="ai" d="M126.507,181.4l4.588-32.642a1.144,1.144,0,0,0-1.158-1.348H111.042a1.6,1.6,0,0,0-1.537,1.348L104.918,181.4Z"/><path class="at" d="M111.059,149.5a1.607,1.607,0,0,1,1.541-1.351h18.6l-1.136-.739H110.936a1.6,1.6,0,0,0-1.537,1.348L104.812,181.4h1.764Z"/><path class="ai" d="M76.226,120.813s4.724-.919,5.643,0Z"/><path class="ai" d="M90.662,120.813s-4.724-.919-5.643,0Z"/><path class="ai" d="M79.113,123.081a.634.634,0,0,1,0-.919.793.793,0,0,1,1.05,0,.634.634,0,0,1,0,.919c-.394.394-.787.394-1.05,0Z"/><path class="ai" d="M87.249,123.212a.8.8,0,0,1,0-1.05.634.634,0,0,1,.919,0,.614.614,0,0,1,0,1.05.634.634,0,0,1-.919,0Z"/><path class="au" d="M172.076,176.645l-4.951.366-5.528-3a49.437,49.437,0,0,0-6.1.873,48.471,48.471,0,0,0-4.975,2.55s-.813,2.165,3.8,1.468c1.173-.177,1.419.9,2.517,1.251a23.839,23.839,0,0,0,5.249,1.711,27.83,27.83,0,0,0,7.516.027l3.6-.294Z"/><path class="e" d="M56.189,145.831l.011,0a5.3,5.3,0,0,1,4.583-3.547c2.887-.262,5.416,5.536,4.393,11.728-1.128,3.275-5.2,15.027-6.254,18.57-2.9-1.784-11.489-4.359-11.489-4.359C48.614,164.29,55.14,148.98,56.189,145.831Z"/><path class="ae" d="M56.974,173.956l.705-2.028a83.354,83.354,0,0,0-9-3.315c-.169.421-.375.938-.6,1.5Z"/><path class="av" d="M256.914,185.837H31.035v74.631h3.073s6.146-53.933,7.068-58.85,3.073-6.914,9.987-6.914h207Z"/><path class="ad" d="M64.674,176.366l12.5,1.063,5.963-3.07a52.729,52.729,0,0,1,6.482,1.071,51.7,51.7,0,0,1,5.247,2.833s.817,2.327-4.088,1.478c-1.247-.216-1.533.928-2.712,1.276a25.425,25.425,0,0,1-5.636,1.7,24.217,24.217,0,0,1-7.648-.3l-11.3-.776Z"/><polygon class="z" points="16.256 187.315 258.517 187.315 257.867 182.882 16.256 182.894 16.256 187.315"/><path class="aw" d="M80.542,180.665h45.813a0,0,0,0,1,0,0v.651a1.566,1.566,0,0,1-1.566,1.566H82.567a2.025,2.025,0,0,1-2.025-2.025v-.192A0,0,0,0,1,80.542,180.665Z"/><path class="ad" d="M56.42,175.549l1.259-3.622a83.354,83.354,0,0,0-9-3.315c-.589,1.469-1.615,4.043-2.386,6.066-1.145,3-.445,7.9,5.59,8.245,6.772.389,22.9-.5,22.9-.5l2.392-5Z"/><path class="ac" d="M115.271,173.83a1.242,1.242,0,0,1,1.13-1.293h1.826v5.172H116.4a1.242,1.242,0,0,1-1.13-1.293Zm-1.478.713v1.893a2.632,2.632,0,0,0,2.453,2.752h1.981v2.446a.465.465,0,0,0,.472.51h.267v.739h9.606v-.739h.623c.193.05.481-.147.115-.442V169.3c.366-.2-.115-.453-.115-.453H118.7a.54.54,0,0,0-.472.528V171.8h-1.981A2.659,2.659,0,0,0,113.793,174.543Z"/><path class="h" d="M192.795,132.987a30.863,30.863,0,0,0-.165-6.974c.009-.645-.378-.779-.638-.652l-1.554.113c-.387-.133-.9-.526-.764-.912l1.1-5.024a3.987,3.987,0,0,0,.278-1.417l-.3-6.588c5.243-1.8,14.11-4.021,14.11-4.021a13.917,13.917,0,0,1,8.682,3.879s10.9,20.874-19.089,23.033C193.545,134.49,192.652,134.018,192.795,132.987Z"/><path class="ax" d="M191.647,103.478c-2.994.788-5.466,2.652-4.526,5.853,1.213,4.4,5.58,3.278,7.45,2.7l2.745-.667a2.041,2.041,0,0,1,2.169,1.94l.258,6.857,1.634.2a.494.494,0,0,0,.745-.361c.223-1.438.8-4.045,3.061-3.812,2.392.5,2.56,2.748,2.089,4.306-.6,1.29-1.714,2.161-1.309,3.628.012.659,2.534,3.517,4.99,5.226,4.194-3.248,4.943-7.875,4.748-11.438.16-4.732-2.623-10.466-6.589-13.054C203.264,101.047,196.89,102.265,191.647,103.478Z"/><path class="ay" d="M192.808,128.282c.723-.122,3.889-.731,3.889-.731a7.582,7.582,0,0,1-3.793,2.36Z"/><circle cx="193.966" cy="118.966" r="1.108"/><circle class="x" cx="25.788" cy="81.292" r="23.287"/><circle class="f" cx="25.788" cy="81.292" r="20.007"/><rect class="az" x="25.123" y="80.911" width="0.739" height="0.739"/><polygon class="ba" points="26.772 80.994 26.772 80.994 27.1 81.65 27.428 81.65 26.772 80.994"/><path class="ba" d="M26.116,81.62l-.656.656Z"/><polygon class="ba" points="24.804 80.172 25.132 80.911 25.46 80.911 25.132 80.172 24.804 80.172"/><polygon class="ba" points="25.862 80.911 25.862 80.911 25.862 81.567 26.518 80.911 25.862 80.911"/><polygon class="ba" points="25.46 80.994 24.804 81.65 25.132 81.65 25.46 80.994"/><path class="ba" d="M25.788,80.964l-.328.328Zm.328.687h0Z"/><path class="ba" d="M25.679,80.911h0Zm.184.052h0v0Z"/><path class="ba" d="M25.788,80.964m-.328.328.4,0v0Zm-.074.328"/><rect class="bb" x="23.645" y="63.177" width="3.695" height="3.695"/><rect class="bb" x="23.645" y="94.951" width="3.695" height="3.695"/><rect class="bb" x="39.902" y="79.433" width="3.695" height="3.695" transform="translate(123.03 39.532) rotate(90)"/><rect class="bb" x="8.128" y="79.433" width="3.695" height="3.695" transform="translate(91.256 71.305) rotate(90)"/><polyline class="bc" points="14.913 68.785 25.788 81.65 36.207 81.65"/><rect class="av" x="185.468" y="176.97" width="2.956" height="4.434"/><path class="av" d="M183.12,146.608a5.876,5.876,0,0,1,3.38-5.16c5.131-2.152,12.828-4.063,14.567-4.635a30.443,30.443,0,0,1,9.146-.372s13.109,2.863,14.823,3.517a5.264,5.264,0,0,1,3.388,3.1s6.834,20.558,8.036,24.459l-33.572,34.514-12.911-3.642S182.987,149.558,183.12,146.608Z"/><polygon class="af" points="177.531 208.744 236.744 209.099 243.642 260.468 241.002 260.468 234.751 212.438 210.674 212.438 217.215 260.468 214.722 260.468 208.485 212.438 180.03 212.438 170.244 260.468 167.573 260.468 177.531 208.744"/><path class="g" d="M207.913,146.055c5.985-.231,16.172,0,20.364,0s6.289.351,6.738,4.209c1.144,9.829,4.342,44.191,4.941,52.083.318,4.192-2.1,7.365-8.685,7.875H172.453c0-.51,0-6.648,6.589-6.65H198.33s3.319-42.784,3.744-48.749C202.522,148.51,203.985,146.207,207.913,146.055Z"/><path class="as" d="M192.625,154.029c.331-8.442-8.455-16-9.727-7.679-.337,2.208-4.319,25.482-4.319,25.482l-12.1,4.871,1.141,6.735c-.354.1,11.932-1.462,15.733-3a10.746,10.746,0,0,0,5.625-6.241C189.447,172.73,192.418,159.306,192.625,154.029Z"/><path class="bd" d="M158.923,168.131l-8.583-3.937-.579-.991,4.312-4.827,1.019,2.05-3.313,3.239.021.038,6.3,2.768Z"/><path class="bd" d="M162.22,154.083l1.25,16.949-1.542-.063-1.695-16.806Z"/><path class="bd" d="M176.109,164.351l-6.521,4.018-.61-1.743,4.8-2.823-.017-.063-7.016-3.492-.763-2.178,9.852,5.16Z"/></svg>