<svg xmlns="http://www.w3.org/2000/svg" xmlns:xlink="http://www.w3.org/1999/xlink" viewBox="0 0 636 300"><defs><style>.a{fill:none;}.b{fill:#ffc316;}.c{isolation:isolate;}.d{fill:#515050;}.e{fill:#479cdf;}.f{clip-path:url(#a);}.g{fill:#a71e22;}.h{fill:#d8b195;}.i{fill:#b8977c;}.j{fill:#e6ccb9;}.k{fill:#fff;}.l{clip-path:url(#b);}.m{fill:#b498ff;}.n{fill:#2a3282;}.o{fill:#bb9167;}.p{fill:#f9d4bb;}.q{fill:#72594b;}.r{fill:#3777bc;}.s{fill:#675042;}.t{fill:#b6b8ba;}.u{fill:#4f3f34;}.v{fill:#cc8d85;}.w{fill:#004c7a;}.x{fill:#666;}.y{fill:#a6a6a6;}.z{fill:#c8c8c8;}.aa{clip-path:url(#an);}.ab{fill:#8b0304;}.ac{fill:#f6cba7;}.ad{fill:#ddb594;}.ae{fill:#e6a1c0;}.af{fill:#f7e0cc;}</style><clipPath id="a"><path class="a" d="M254.95,27.5h126.1a18.053,18.053,0,0,1,18,18v82.4a18.053,18.053,0,0,1-18,18H279.95l-18.6,26.6-.2-26.6h-6.2a18.053,18.053,0,0,1-18-18V45.5A18.053,18.053,0,0,1,254.95,27.5Z"/></clipPath><clipPath id="b"><path class="a" d="M430.95,27.5h126.1a18.053,18.053,0,0,1,18,18v82.4a18.053,18.053,0,0,1-18,18H455.95l-18.6,26.6-.2-26.6h-6.2a18.053,18.053,0,0,1-18-18V45.5A18.053,18.053,0,0,1,430.95,27.5Z"/></clipPath><clipPath id="an"><path class="a" d="M205.05,27.5H78.95a18.053,18.053,0,0,0-18,18v82.4a18.053,18.053,0,0,0,18,18h101.1l18.6,26.6.2-26.6h6.2a18.053,18.053,0,0,0,18-18V45.5A18.053,18.053,0,0,0,205.05,27.5Z"/></clipPath></defs><title>swimlane-programming-languages</title><path class="b" d="M205.05,27.5H78.95a18.053,18.053,0,0,0-18,18v82.4a18.053,18.053,0,0,0,18,18h101.1l18.6,26.6.2-26.6h6.2a18.053,18.053,0,0,0,18-18V45.5A18.053,18.053,0,0,0,205.05,27.5Z"/><g class="c"><path class="d" d="M179.279,95.061a20.653,20.653,0,0,1-8.883,1.828,16.165,16.165,0,0,1-6.469-1.254,14.4,14.4,0,0,1-4.957-3.48,15.53,15.53,0,0,1-3.164-5.3,19.528,19.528,0,0,1-1.113-6.7,20.878,20.878,0,0,1,1.184-7.113,16.9,16.9,0,0,1,3.387-5.719,15.652,15.652,0,0,1,5.332-3.809,17.186,17.186,0,0,1,7.02-1.383,21.02,21.02,0,0,1,7.664,1.313v3.328a17.008,17.008,0,0,0-7.711-1.8,14.121,14.121,0,0,0-5.789,1.125,12,12,0,0,0-4.266,3.129,13.871,13.871,0,0,0-2.648,4.734,18.688,18.688,0,0,0-.914,5.965,17.871,17.871,0,0,0,.82,5.473,13.171,13.171,0,0,0,2.426,4.488,11.514,11.514,0,0,0,4,3.047,12.915,12.915,0,0,0,5.555,1.125,17.313,17.313,0,0,0,8.531-2.039Z"/><path class="d" d="M208.763,74.365h-6.234l-1.641,7.57h6.633l-.516,2.156h-6.539l-2.039,9.328h-2.414l2.016-9.328h-6.07l-1.992,9.328h-2.414l1.992-9.328h-6.375l.445-2.156h6.4l1.594-7.57h-6.68l.469-2.156h6.656l2.016-9.516h2.414l-2.016,9.516h6.094l2.039-9.516h2.391l-2.039,9.516h6.3Zm-14.719,0-1.664,7.57H198.5l1.641-7.57Z"/></g><path class="a" d="M205.05,27.5H78.95a18.053,18.053,0,0,0-18,18v82.4a18.053,18.053,0,0,0,18,18h101.1l18.6,26.6.2-26.6h6.2a18.053,18.053,0,0,0,18-18V45.5A18.053,18.053,0,0,0,205.05,27.5Z"/><path class="e" d="M254.95,27.5h126.1a18.053,18.053,0,0,1,18,18v82.4a18.053,18.053,0,0,1-18,18H279.95l-18.6,26.6-.2-26.6h-6.2a18.053,18.053,0,0,1-18-18V45.5A18.053,18.053,0,0,1,254.95,27.5Z"/><g class="f"><path class="g" d="M341.85,168.4a69,69,0,0,1-34.8-10v-3.7l-.2-3.5-.4-6.9-.6-12.7-.6-11h0v-.8l8.8-.6,1.9-.2,25.1-1.7.8-.2h.4v51.3Z"/><polygon class="g" points="307.35 131.2 303.25 109.8 339.95 102.3 344.15 123.7 307.35 131.2"/><path class="g" d="M378.75,119.8v.6h0l-.6,11.2-.8,16.4-.4,6.2v4.6a66.189,66.189,0,0,1-34.6,9.6h-.6V117.1h.4l.6.2,25.3,1.7,1.7.2Z"/><path class="h" d="M379.75,157c-.8-3.1-1.5-6.2-2.3-9.1-1.7-6.4-3.4-12.3-5-17.3l-.2-.2a2.843,2.843,0,0,0-.4-1.2c-.6-2.3-1.1-4.4-1.7-6.3a11.683,11.683,0,0,1-.4-3.7,9.21,9.21,0,0,1,6.3-7.3,10.978,10.978,0,0,1,4.4-.2,9.349,9.349,0,0,1,6.5,6.3c.6,1.9,1.3,4,1.9,6.4.2.4.2.6.4,1,1.5,5.4,3.4,11.6,5.1,18.1A64.622,64.622,0,0,1,379.75,157Z"/><polygon class="g" points="376.45 131.2 339.95 123.7 344.15 102.3 380.85 109.8 376.45 131.2"/><path class="g" d="M397.65,147.5c-.6.8-4.4,2.4-5,3-4.2,5.2-7.4,2.8-13,6.5-.6.4-1,.6-1.5,1q-.6-1.8-1.2-3.9c-2.3-7.9-4.9-17.5-6.8-23.7a.735.735,0,0,0-.2-.6c-.8-2.7-1.3-5-1.7-6.3h0l1.9-.6,8.6-2.5h0l8.2-2.3,2.1-.6a5.929,5.929,0,0,0,.4,1.7c.4,1.3,1,3.1,1.5,4.8C392.35,129,395.75,141.4,397.65,147.5Z"/><path class="g" d="M367.95,121a10.854,10.854,0,1,0,21.7-.6,10.854,10.854,0,1,0-21.7.6Z"/><path class="h" d="M313.65,123.5c-.8,1.7-1.5,3.9-2.3,6.2,0,.4-.2.6-.2.8-.2.2-.2.4-.2.8-1.5,3.9-3,8.3-4.6,13.1-1.2,3.7-2.5,7.3-3.6,11.2a70.428,70.428,0,0,1-14.1-13.7c1.9-6.2,4-11.8,5.7-16.6a6.835,6.835,0,0,1,.4-1.3c.8-2.3,1.5-4.2,2.1-6.2h0a9.419,9.419,0,0,1,6.7-6,9.156,9.156,0,0,1,4.6.4,9.439,9.439,0,0,1,5.9,7.1A10.5,10.5,0,0,1,313.65,123.5Z"/><path class="g" d="M315.55,124a.735.735,0,0,0-.2.6h0c-.6,1.3-1.1,3.1-1.9,5.4-1.7,5.6-4.4,13.7-6.7,21.2-.8,1.9-1.3,3.9-1.9,5.8-.8-.6-1.3-1-2.1-1.6-5.3-3.9-12.2.2-16.2-4.9-.4-.6,7-29.2,8.2-33a.735.735,0,0,0,.2-.6l1.9.8,8.4,2.9h0l8.4,2.9Z"/><path class="g" d="M315.95,119.6a10.8,10.8,0,1,1-11.8-9.8A10.825,10.825,0,0,1,315.95,119.6Z"/><path class="h" d="M340.85,114.8c-7,0-12.8-4.4-12.8-11.6V94h25.5v9.2C353.65,110.4,347.95,114.8,340.85,114.8Z"/><path class="i" d="M340.85,46.4c-11.4,0-19.6,12.3-20,27.8a2.843,2.843,0,0,1,.4-1.2c1.3-4,7.8-2.3,6.3,1.7-.8,2.5-2.1,4.8-2.1,7.5a19.475,19.475,0,0,0,.4,4.8,3.211,3.211,0,0,1,2.5,3.3V97a18.321,18.321,0,0,0,6.3,4.2,9.778,9.778,0,0,0,12.6,0,19.189,19.189,0,0,0,6.5-4.4V88.9a3.13,3.13,0,0,1,2.5-3.1v-6c0-.4-.4-1.2,0-.4-1.7-3.5,2.7-6.6,4.9-4.2C361.05,59.3,355.55,46.4,340.85,46.4Z"/><path class="h" d="M361.05,74.3c0,16.2-8.6,27.2-20.2,27.2s-20-11-20-27.2c0-16,8.4-28.9,20-28.9C355.55,45.4,361.05,58.3,361.05,74.3Z"/><path class="h" d="M322.85,70.7h-2.7a2.2,2.2,0,0,0-1.9,2.3v8.1c0,1.4.8,2.3,1.9,2.3h1.9Z"/><path class="h" d="M358.95,70.7h2.7a2.2,2.2,0,0,1,1.9,2.3v8.1c0,1.4-.8,2.3-1.9,2.3h-1.9Z"/><path d="M332.35,75.1a1.63,1.63,0,0,0,1.5-1.6,1.612,1.612,0,0,0-1.5-1.5,1.734,1.734,0,0,0-1.7,1.5C330.85,74.5,331.35,75.1,332.35,75.1Z"/><path d="M350.05,75.3a1.473,1.473,0,0,0,1.5-1.5,1.811,1.811,0,0,0-1.7-1.5,1.612,1.612,0,0,0-1.5,1.5A1.431,1.431,0,0,0,350.05,75.3Z"/><path class="h" d="M329.05,93.2h23.6c-2.9,5.8-7,9.2-11.8,9.2C336.15,102.5,331.95,99,329.05,93.2Z"/><path class="i" d="M345.05,83.2a1.444,1.444,0,0,1-1.5,1.3c-.2,0-.4.4-.9.8a2.491,2.491,0,0,1-1.7.8,2.716,2.716,0,0,1-1.7-.8c-.4-.4-.8-.8-1-.8a1.521,1.521,0,0,1-1.5-1.3V83h8.4v.2Z"/><path class="j" d="M340.85,71.2V83h-4.2a1.7,1.7,0,0,1,.6-1,5.2,5.2,0,0,0,1.5-3.5l.2-6.6C338.95,70.5,340.55,71.2,340.85,71.2Z"/><path d="M361.45,62.8V80.3h-1.7l-.9-21-5.7.8a96.375,96.375,0,0,1-24,0l-5.5-.8-1.1,20.8h-1.7V62.8c0-10.4,7-18.9,15.8-18.9h9.1C354.45,43.9,361.45,52.4,361.45,62.8Z"/><path d="M355.75,77.6c-.6,1.2-1.3,1.7-3,1.9h-4.4a4.928,4.928,0,0,1-4.2-3.3,13.6,13.6,0,0,1-.8-4.2v-.6h0v-.2c.2-.4.4-.6.6-1a4.548,4.548,0,0,1,2.8-1h5a6.644,6.644,0,0,1,3.6,1,2.719,2.719,0,0,1,.9,1.5v.2a25.5,25.5,0,0,1-.2,4v.4A3.548,3.548,0,0,1,355.75,77.6Zm.8-5.6v-.2a2.376,2.376,0,0,0-1-1.7c-.6-.8-2.7-1-3.8-1h-5a3.928,3.928,0,0,0-3,1,3.161,3.161,0,0,0-.8,1.5V72a10.444,10.444,0,0,0,1,4.4,5.369,5.369,0,0,0,4.4,3.3,16.134,16.134,0,0,0,4.4,0c1.5-.2,2.5-.6,3-1.5a5.759,5.759,0,0,0,.8-2.1v-.2A12.675,12.675,0,0,0,356.55,72Z"/><path d="M337.85,76.3a5.092,5.092,0,0,1-4.2,3.3h-4.2c-1.7-.2-2.5-.6-3-1.5a3.292,3.292,0,0,1-.6-1.9,25.5,25.5,0,0,1-.2-4V72a1.516,1.516,0,0,1,.4-.8,1.072,1.072,0,0,1,.6-.8,6.644,6.644,0,0,1,3.6-1h5a4.223,4.223,0,0,1,2.9,1c.2.4.4.6.6,1v.8A20.689,20.689,0,0,1,337.85,76.3Zm1.1-4.7a1.768,1.768,0,0,0-.8-1.5,4.064,4.064,0,0,0-3-1h-5c-1.1,0-3.2.2-3.8,1l-.8.8a1.8,1.8,0,0,0-.2,1v.2a26.665,26.665,0,0,0,0,4,4.17,4.17,0,0,0,.8,2.1h0c.6,1,1.5,1.3,3,1.5a16.19,16.19,0,0,0,4.4,0,4.958,4.958,0,0,0,4.4-3.3,10.1,10.1,0,0,0,.9-4.4A.6.6,0,0,0,338.95,71.6Z"/><path d="M356.35,69.3c-.8-.8-2.3-.8-3.6-.8a50.6,50.6,0,0,0-5.7-.2c-1.7.2-3,.2-3.6,1.2a3.223,3.223,0,0,0-.8,1.4v-.2h-3.2v.2a9.751,9.751,0,0,0-.6-1.4c-.8-1-2.1-1-3.8-1.2a52.417,52.417,0,0,0-5.7.2c-1.3,0-2.9,0-3.6.8a5.315,5.315,0,0,0-1.2,2.5c0,.2,1.3.2,1.3,0a2.479,2.479,0,0,1,.8-1.5,4.9,4.9,0,0,1,3.2-.8,23.484,23.484,0,0,1,5.3,0,4.029,4.029,0,0,1,2.9.8c.2.4.6.8.6,1.3h4.7a2.261,2.261,0,0,1,.6-1.3,4.067,4.067,0,0,1,2.8-.8,23.484,23.484,0,0,1,5.3,0c1.3,0,2.7.2,3.2.8a2.479,2.479,0,0,1,.8,1.5c0,.2,1.3,0,1.3,0A5.089,5.089,0,0,0,356.35,69.3Z"/><path class="g" d="M341.05,93.6a28.644,28.644,0,0,1-6.7-1c-.6,0-.8-.6-.8-1.2.2-.4.8-.8,1.1-.6a26,26,0,0,0,12.4,0,.787.787,0,0,1,1.1.6.881.881,0,0,1-.8,1.2A24.245,24.245,0,0,1,341.05,93.6Z"/></g><g class="c"><path class="k" d="M269.881,96.55h-3.047L254.6,62.94h3.492L267.607,89.8q.258.75.457,1.512a14.166,14.166,0,0,1,.316,1.582h.094q.117-.656.328-1.441t.539-1.7l9.914-26.812h3.375Z"/><path class="k" d="M287.67,96.55V62.94h9.188a11.78,11.78,0,0,1,3.762.563,8.438,8.438,0,0,1,2.859,1.582,6.856,6.856,0,0,1,1.816,2.449,7.673,7.673,0,0,1,.633,3.141,9.006,9.006,0,0,1-.4,2.719,8.082,8.082,0,0,1-1.148,2.309,7.623,7.623,0,0,1-1.84,1.8,9.216,9.216,0,0,1-2.473,1.207v.094a9.176,9.176,0,0,1,3.07.82,7.735,7.735,0,0,1,2.367,1.711,7.473,7.473,0,0,1,1.523,2.473,8.671,8.671,0,0,1,.539,3.105,9.639,9.639,0,0,1-.773,3.9,8.933,8.933,0,0,1-2.168,3.047,9.864,9.864,0,0,1-3.316,1.98,12.266,12.266,0,0,1-4.242.7Zm3.117-30.75v11.93h4.359a10.063,10.063,0,0,0,3.094-.445A6.783,6.783,0,0,0,300.607,76a5.66,5.66,0,0,0,1.512-2.039,6.611,6.611,0,0,0,.527-2.7q0-5.461-6.8-5.461Zm0,14.742V93.714h5.789a8.462,8.462,0,0,0,5.73-1.746,6.222,6.222,0,0,0,2-4.957q0-6.469-8.789-6.469Z"/></g><path class="a" d="M254.95,27.5h126.1a18.053,18.053,0,0,1,18,18v82.4a18.053,18.053,0,0,1-18,18H279.95l-18.6,26.6-.2-26.6h-6.2a18.053,18.053,0,0,1-18-18V45.5A18.053,18.053,0,0,1,254.95,27.5Z"/><g class="l"><path class="m" d="M430.95,27.5h126.1a18.053,18.053,0,0,1,18,18v82.4a18.053,18.053,0,0,1-18,18H455.95l-18.6,26.6-.2-26.6h-6.2a18.053,18.053,0,0,1-18-18V45.5A18.053,18.053,0,0,1,430.95,27.5Z"/></g><g class="l"><polygon class="n" points="553.45 137.9 517.05 124 525.05 102.9 561.45 116.8 553.45 137.9"/></g><g class="l"><path class="o" d="M553.85,148.9c-.6.4-1,.6-1.6,1-.8-4.7-1.6-9-2.2-12.9,0-.2-.2-.4-.2-.6a2.537,2.537,0,0,0-.2-1.2c-.4-2.3-.8-4.5-1-6.3a8.975,8.975,0,0,1,1-6.1,8.885,8.885,0,0,1,6.5-4.5,12.172,12.172,0,0,1,4.7.4,9.846,9.846,0,0,1,5.7,7.2c.4,1.8.6,4.1,1,6.3.2.6.2,1.2.4,1.6.2,1.2.4,2.3.6,3.5A73.034,73.034,0,0,1,553.85,148.9Z"/></g><g class="l"><path class="n" d="M571.65,145.5c-.6.6-3.6.4-4,1-4.3,4.5-8.3-.9-13.8,2.4-.6.4-1,.6-1.6,1-1,.6-2,1-3.1,1.6-.6-6.1-1.4-11.9-1.9-16.1-.4-2.9-.6-4.9-.8-6.1v-.2l2.1-.2,6.3-1.2,2.7-.4,9-1.4,2.1-.4h0C568.75,127,571.05,140.6,571.65,145.5Z"/></g><g class="l"><path class="n" d="M546.65,124.4a11.218,11.218,0,0,0,21.7,5.7,11.218,11.218,0,0,0-21.7-5.7Z"/></g><g class="l"><path class="n" d="M516.65,159.5h-.4c-2.4,0-4.9-.2-7.3-.4-1-.2-2.3-.2-3.3-.4a68.232,68.232,0,0,1-21.1-6.5,1.039,1.039,0,0,1-.8-.4c-1.2-.6-2.4-1.2-3.7-1.8l-.6-12.3-.2-3.9-.4-6.5-.2-4.1,8.4-.4,13.5-1h0l4.1-.4,2-.2,4.1-.2h1l1.6-.2,2.4-.2h1.2v39A.438.438,0,0,0,516.65,159.5Z"/></g><g class="l"><polygon class="n" points="480.65 137.3 472.45 116.2 509.05 102.5 517.05 123.4 480.65 137.3"/></g><g class="l"><path class="n" d="M555.05,123.2l-.2,4.5-.2,7.4-.2,3.1-.6,10.8c-.6.4-1,.6-1.6,1-1,.6-2,1-3.1,1.6a72.432,72.432,0,0,1-22.1,7.1,19.768,19.768,0,0,0-3.3.4c-2.2.2-4.5.2-6.7.4h-.4v-39h1.6l.8.2h1.6l1.4.2h1.6l4.3.4,4.1.2h0l15.1,1.2h2.3Z"/></g><g class="l"><path class="n" d="M487.65,128.7h0v.2c-.4,1.8-.6,3.9-1,6.1-.2.6-.2,1.2-.4,1.8-.8,4.5-1.6,9.6-2.5,14.9-1.2-.6-2.4-1.2-3.7-1.8a80.887,80.887,0,0,1-16.4-12.7.7.7,0,0,0-.2-.4q.3-2.1.6-3.9c.4-2.9,1-5.3,1.2-7.8a.2.2,0,0,0,.2-.2h0l11,1.8,2.2.4Z"/></g><g class="l"><path class="n" d="M487.65,128.7h0v.2c-.2,1.2-.4,3.3-.8,6.1-.6,4.5-1.4,10.6-2.2,17.2a1.039,1.039,0,0,1-.8-.4c-1.2-.6-2.4-1.2-3.7-1.8-6.1-3.5-14.4,5.5-19.4.6.8-5.5,4.5-23.3,4.7-25.3a.2.2,0,0,0,.2-.2h0l11,1.8,2.2.4Z"/></g><g class="l"><path class="n" d="M487.45,124a11.218,11.218,0,0,1-21.7,5.7,11.218,11.218,0,0,1,21.7-5.7Z"/></g><g class="l"><polygon class="n" points="487.45 110.7 496.85 107 498.85 111.5 487.45 110.7"/></g><g class="l"><path class="p" d="M500.95,113.7s12.1,11,29.8,0l-27.2-3.3Z"/></g><g class="l"><path class="q" d="M509.65,107.4l-9.8,3.7c.2,1.6.2,3.3,1.2,4.5.2.4.4.6.4,1l14.1,12.7,15.1-15.5Z"/></g><g class="l"><path class="r" d="M533.85,106.6v.8c-.2,1.8-.8,7.1-1.6,14.1v.4c-.2,2.3-.6,4.9-.8,7.4-1.2,9.8-2.6,20.8-4.3,29.4a19.768,19.768,0,0,0-3.3.4c-2.2.2-4.5.2-6.7.4h-.8c-2.4,0-4.9-.2-7.3-.4-1-.2-2.3-.2-3.3-.4-1.6-8.6-3.1-19.6-4.3-29.4-.2-2.7-.6-5.1-.8-7.6h0c-.8-6.9-1.4-12.3-1.6-14.3v-.8h0l2.9,3.9.8,1,4.3,5.7.6.8.4.4h16.4l.6-.8,1-1.2,2.2-2.9.4-.4,5.3-6.3v-.2Z"/></g><g class="l"><path class="n" d="M523.75,159.1c-2.2.2-4.5.2-6.7.4h-.8c-2.4,0-4.9-.2-7.3-.4.2-10.2,1.6-22.1,1.6-22.1.2-3.1,3.3-7,3.3-7a13.417,13.417,0,0,1-2.9-4.3c0-.4-.2-.6-.2-1a3.192,3.192,0,0,1-.6-1.6,7.864,7.864,0,0,1-.4-1.2v-.2a4.44,4.44,0,0,0,1-.8c.8-.6,2.3-1.4,3.9-2.3a.7.7,0,0,0,.4-.2h.4c.2-.2.2-.2.4-.2h.2c0-.2.2-.2.4-.2l.2-.2h.2c2.4-.8,1.2-.2.4,0h0a.7.7,0,0,0-.4.2h0l.2.2h0c.2,0,.2,0,.4.2h.4c.4.2.6.4,1,.6a12.865,12.865,0,0,1,3.3,1.8c.4.2.6.6.8.8h0v.2a7.865,7.865,0,0,1-.4,1.2,16.8,16.8,0,0,1-.8,2.4c-.8,1.8-1.8,3.7-2.9,4.5,0,0,3.1,3.9,3.3,7C522.15,137.1,523.55,148.9,523.75,159.1Z"/></g><g class="l"><path class="q" d="M516.65,118.2c-7.6,0-13.9-4.9-13.9-12.5V95.9h27.6v9.8C530.35,113.3,524.25,118.2,516.65,118.2Z"/></g><g class="l"><path class="s" d="M534.45,82.9a57.686,57.686,0,0,0-2.7-19.6c-.8-3.5-1.2-8.6-3.3-11.7-1.6-2.7-4.9-2.7-8-2.5-6.3.4-15.3,6.8-17.6,12.9a45.342,45.342,0,0,0-2.2,10.2c-.6,3.1-2.3,6.9-1.6,10.2a3.4,3.4,0,0,1,3.7,3.5V99.8a19.265,19.265,0,0,0,13.9,5.9,19.968,19.968,0,0,0,13.9-5.9V86.3A3.38,3.38,0,0,1,534.45,82.9Z"/></g><g class="l"><path class="q" d="M538.55,75.1c0,17-9.4,28.8-21.9,28.8-12.7,0-21.7-11.9-21.7-28.8,0-17.2,9-31.1,21.7-31.1C532.35,44,538.55,57.9,538.55,75.1Z"/></g><g class="l"><path class="q" d="M497.65,71.2h-2.9a2.056,2.056,0,0,0-2,2.2v8.4a2.145,2.145,0,0,0,2,2.3h2.1Z"/></g><g class="l"><path class="q" d="M535.65,71.2h2.9a2.135,2.135,0,0,1,2.1,2.2v8.4a2.159,2.159,0,0,1-2.1,2.3h-2Z"/></g><g class="l"><path d="M507.25,75.9a1.817,1.817,0,0,0,1.8-1.9,2.126,2.126,0,0,0-1.8-1.6,1.763,1.763,0,0,0-1.6,1.8A1.738,1.738,0,0,0,507.25,75.9Z"/></g><g class="l"><path d="M527.25,76.1a1.634,1.634,0,0,0,1.6-1.8,1.721,1.721,0,0,0-1.6-1.6,1.923,1.923,0,0,0-1.6,1.8A1.721,1.721,0,0,0,527.25,76.1Z"/></g><g class="l"><path d="M538.75,62.6V74.7a.945.945,0,0,1-1,1h0a.86.86,0,0,1-.8-.8l-1-14.9c0-.6-.4-2.9-1-2.7l-4.9.6a114.782,114.782,0,0,1-26.2,0l-4.7-.6c-.6-.2-1,2.1-1.2,2.7l-1.3,14.7a.733.733,0,0,1-.8.8h0a.915.915,0,0,1-1-.8V62.6c0-11,7.6-20,17-20h10C531.15,42.6,538.75,51.6,538.75,62.6Z"/></g><g class="l"><path d="M534.45,78.8a.2.2,0,0,1-.2.2c-1.2,1.2-3.5,1.6-5.5,1.6-4.3,0-5.9-1.4-7.8-3.9-4.1-6.1,3.5-7.2,7.8-7.2a14.082,14.082,0,0,1,4.7.6,3.412,3.412,0,0,1,2.4,2.1h0c0,.6.2,1,.2,1.6a2.537,2.537,0,0,1-.2,1.2A5.441,5.441,0,0,1,534.45,78.8Zm-21.9-2c-1.6,2.5-3.5,3.9-7.6,3.9-2.1,0-4.5-.4-5.7-1.6a.2.2,0,0,0-.2-.2c-1.2-1.2-1.4-3.5-1.4-4.9a3.528,3.528,0,0,1,3.3-3.9,22.72,22.72,0,0,1,4.1-.4C509.05,69.6,516.85,70.6,512.55,76.8Zm25.8-6.8a.619.619,0,0,0-.4-.2,8.368,8.368,0,0,1-1.4-.2,14.873,14.873,0,0,0-3.3-.4,26.816,26.816,0,0,0-4.1-.2,62.969,62.969,0,0,0-10,1.2h-4.5a67.013,67.013,0,0,0-10.2-1.2h-3.3c-1.4.2-3.1.4-4.1.6a6.393,6.393,0,0,1-1.4.2.619.619,0,0,0-.4.2v2.2c0,.4.6.2,1,.6a2.331,2.331,0,0,1,.4,1.4c.2.8.4,1.6.6,2.7,0,.2.2.4.2.6a4.371,4.371,0,0,0,1.4,2.3h0a.2.2,0,0,1,.2.2c1,.8,2.9,1.2,5.5,1.2,4.1,0,6.1-.6,8-3.1.8-1,1.4-2.2,2-3.1a2.467,2.467,0,0,1,1-1.6v-.2a2.144,2.144,0,0,1,1.2-.4c1.8,0,2,2.9,4.1,5.3,1.8,2.5,3.9,3.1,8.2,3.1,2.4,0,4.3-.4,5.3-1.2a.2.2,0,0,0,.2-.2h0a3.912,3.912,0,0,0,1.4-2.1v-.2a15.665,15.665,0,0,0,.8-3.1c.2-.8.4-1.4.4-1.6.4-.2,1-.2,1-.6h.2V70.6C538.55,70.2,538.35,70.2,538.35,70Z"/></g><g class="l"><path class="t" d="M496.65,71.4a1.5,1.5,0,0,1-1-.2,1.5,1.5,0,0,1,1-.2,1.2,1.2,0,0,1,.8.2A1.2,1.2,0,0,1,496.65,71.4Z"/></g><g class="l"><path class="t" d="M537.05,71.4a1.5,1.5,0,0,1-1-.2,1.5,1.5,0,0,1,1-.2,1.2,1.2,0,0,1,.8.2C537.75,71.4,537.25,71.4,537.05,71.4Z"/></g><g class="l"><path class="s" d="M516.85,73.1a2.365,2.365,0,0,0-2.5,2.3c0,2.4-.8,5.9-2.3,5.9a2,2,0,0,0-2,2h6.8Z"/></g><g class="l"><path class="u" d="M516.85,87a3.809,3.809,0,0,1-1.9-.6c-.4-.6-1.6-.8-2.9-.8a2.191,2.191,0,0,1-2-2.2h6.8V87Z"/></g><g class="l"><path class="u" d="M516.85,87a3.226,3.226,0,0,0,1.8-.6c.4-.6,1.6-.8,2.7-.8a2.22,2.22,0,0,0,2.2-2.2h-6.7Z"/></g><g class="l"><path class="v" d="M522.75,92.7c.2.6-.2,1-.8,1.2l-1.2.2a25.789,25.789,0,0,1-3.9.4,23.369,23.369,0,0,1-3.9-.4l-1.4-.2a.971.971,0,0,1-.6-1.2h0a.881.881,0,0,1,1.2-.8l1.2.2a13.45,13.45,0,0,0,6.9,0l1.2-.2a.934.934,0,0,1,1.3.8Z"/></g><g class="l"><polygon class="w" points="501.75 128.9 517.05 118 516.05 117.6 508.05 117.4 501.35 125.2 501.75 128.9"/></g><g class="l"><polygon class="w" points="531.15 129.1 515.85 118.4 516.85 117.8 524.85 117.6 531.55 125.4 531.15 129.1"/></g><g class="l"><path class="r" d="M500.75,105.6s9.6,11.2,16.2,11.9v1s-10.2,4.3-15.3,9.6c0,0-2.3-13.5-2.7-21.9Z"/></g><g class="l"><path class="r" d="M532.35,105.6s-10,11.2-16.6,11.9v1a2.02,2.02,0,0,1,1,.4c2.6,1.2,10.2,4.9,14.3,9.2,0,0,2.5-13.5,2.7-21.9Z"/></g><g class="l"><polygon class="q" points="503.35 104.8 502.95 104.8 500.75 105.6 502.95 108 504.15 106.2 503.35 104.8"/></g><g class="l"><path class="q" d="M532.35,105.6l-2.4-.8a17.589,17.589,0,0,1,0,3.3Z"/></g><g class="l"><g class="c"><path class="k" d="M441.449,67.066V79.722H453.73v2.836H441.449V97.816h-3.117V64.207h16.383v2.859Z"/><path class="k" d="M483.52,75.878h-6.234l-1.641,7.57h6.633l-.516,2.156h-6.539l-2.039,9.328H470.77l2.016-9.328h-6.07l-1.992,9.328h-2.414L464.3,85.6h-6.375l.445-2.156h6.4l1.594-7.57h-6.68l.469-2.156h6.656l2.016-9.516h2.414l-2.016,9.516h6.094l2.039-9.516h2.391l-2.039,9.516h6.3Zm-14.719,0-1.664,7.57h6.117l1.641-7.57Z"/></g></g><path class="x" d="M474.65,264.9a7.706,7.706,0,0,1-7.8,7.6H162.45a7.771,7.771,0,0,1-7.8-7.6V189.1a7.706,7.706,0,0,1,7.8-7.6h304.4a7.706,7.706,0,0,1,7.8,7.6Z"/><path class="y" d="M477.65,261.9a7.706,7.706,0,0,1-7.8,7.6H165.45a7.771,7.771,0,0,1-7.8-7.6V186.1a7.706,7.706,0,0,1,7.8-7.6h304.4a7.706,7.706,0,0,1,7.8,7.6Z"/><path class="z" d="M178.65,192.5c0,.7-.3,1-.6,1h-9.4a.9.9,0,0,1-.9-.9v-5.1a.9.9,0,0,1,.9-.9h9.4c.3,0,.6.3.6,1Z"/><path class="z" d="M178.65,205.5c0,.6-.3,1-.6,1h-9.4a.9.9,0,0,1-.9-.9v-9.1c0-.7.3-1,.9-1h9.4c.3,0,.6.3.6,1Z"/><path class="z" d="M192.65,205.5a1.156,1.156,0,0,1-1,1h-9.4c-.3,0-.6-.3-.6-1v-9c0-.7.3-1,.6-1h9.4a1.06,1.06,0,0,1,1,1Z"/><path class="z" d="M199.65,219.9a.645.645,0,0,1-.6.6h-9.4c-.6,0-.9-.3-.9-.6v-8.8c0-.3.3-.6.9-.6h9.4a.645.645,0,0,1,.6.6Z"/><path class="z" d="M213.05,220.5h-9.8a.645.645,0,0,1-.6-.6v-8.8a.645.645,0,0,1,.6-.6h9.8a.645.645,0,0,1,.6.6v8.8A.645.645,0,0,1,213.05,220.5Z"/><path class="z" d="M227.65,219.9c0,.3-.3.6-.9.6h-9.4a.645.645,0,0,1-.6-.6v-8.8a.645.645,0,0,1,.6-.6h9.4c.6,0,.9.3.9.6Z"/><path class="z" d="M240.65,219.9a.645.645,0,0,1-.6.6h-9.4c-.6,0-.9-.3-.9-.6v-8.8c0-.3.3-.6.9-.6h9.4a.645.645,0,0,1,.6.6Z"/><path class="z" d="M254.05,220.5h-9.8a.645.645,0,0,1-.6-.6v-8.8a.645.645,0,0,1,.6-.6h9.8a.645.645,0,0,1,.6.6v8.8A.645.645,0,0,1,254.05,220.5Z"/><path class="z" d="M268.65,219.9c0,.3-.3.6-.9.6h-9.4a.645.645,0,0,1-.6-.6v-8.8a.645.645,0,0,1,.6-.6h9.4c.6,0,.9.3.9.6Z"/><path class="z" d="M282.65,219.9a.645.645,0,0,1-.6.6h-9.4c-.6,0-.9-.3-.9-.6v-8.8c0-.3.3-.6.9-.6h9.4a.645.645,0,0,1,.6.6Z"/><path class="z" d="M296.05,220.5h-9.8a.645.645,0,0,1-.6-.6v-8.8a.645.645,0,0,1,.6-.6h9.8a.645.645,0,0,1,.6.6v8.8A.645.645,0,0,1,296.05,220.5Z"/><path class="z" d="M309.65,219.9c0,.3-.3.6-1,.6h-9.4a.645.645,0,0,1-.6-.6v-8.8a.645.645,0,0,1,.6-.6h9.4c.6,0,1,.3,1,.6Z"/><path class="z" d="M323.65,219.9a.645.645,0,0,1-.6.6h-9.4c-.6,0-.9-.3-.9-.6v-8.8c0-.3.3-.6.9-.6h9.4a.645.645,0,0,1,.6.6Z"/><path class="z" d="M206.65,205.5a1,1,0,0,1-1,1h-9.4c-.3,0-.6-.3-.6-1v-9c0-.7.3-1,.6-1h9.4c.6,0,.9.3.9,1v9Z"/><path class="z" d="M220.65,205.5c0,.6-.3,1-.7,1h-9.4a.9.9,0,0,1-.9-.9v-9.1c0-.7.3-1,.9-1h9.4c.3,0,.7.3.7,1Z"/><path class="z" d="M234.65,205.5c0,.6-.3,1-.6,1h-9.7c-.3,0-.6-.3-.6-1v-9c0-.7.3-1,.6-1h9.7c.3,0,.6.3.6,1Z"/><path class="z" d="M247.65,205.5a1,1,0,0,1-1,1h-9.4c-.3,0-.6-.3-.6-1v-9c0-.7.3-1,.6-1h9.4c.6,0,.9.3.9,1v9Z"/><path class="z" d="M261.65,205.5c0,.6-.3,1-.6,1h-9.4a.9.9,0,0,1-.9-.9v-9.1c0-.7.3-1,.9-1h9.4c.3,0,.6.3.6,1Z"/><path class="z" d="M275.65,205.5c0,.6-.3,1-.6,1h-9.4a1.06,1.06,0,0,1-1-1v-9a1,1,0,0,1,1-1h9.4c.3,0,.6.3.6,1Z"/><path class="z" d="M289.65,205.5a1,1,0,0,1-1,1h-9.4c-.3,0-.6-.3-.6-1v-9c0-.7.3-1,.6-1h9.4c.6,0,.9.3.9,1v9Z"/><path class="z" d="M302.65,206.5h-9.1a.9.9,0,0,1-.9-.9v-9.1c0-.7.3-1,.9-1h9.1c.6,0,.9.3.9,1v9.1C303.65,206.1,303.25,206.5,302.65,206.5Z"/><path class="z" d="M316.65,205.5c0,.6-.3,1-.6,1h-9.4a.9.9,0,0,1-.9-.9v-9.1c0-.7.3-1,.9-1h9.4c.3,0,.6.3.6,1Z"/><path class="z" d="M330.65,205.5a1.069,1.069,0,0,1-.9,1h-9.4c-.3,0-.6-.3-.6-1v-9c0-.7.3-1,.6-1h9.4a.982.982,0,0,1,.9,1Z"/><path class="z" d="M337.65,219.9a.669.669,0,0,1-.7.6h-9.7a.645.645,0,0,1-.6-.6v-8.8a.645.645,0,0,1,.6-.6h9.7c.3,0,.7.3.7.6Z"/><path class="z" d="M351.65,219.9c0,.3-.3.6-.9.6h-9.4a.645.645,0,0,1-.6-.6v-8.8a.645.645,0,0,1,.6-.6h9.4c.6,0,.9.3.9.6Z"/><path class="z" d="M202.65,233.5a.9.9,0,0,1-1,1h-9.4c-.3,0-.6-.3-.6-1v-9.1c0-.3.3-1,.6-1h9.4a1,1,0,0,1,1,1Z"/><path class="z" d="M216.65,233.5c0,.6-.3,1-.6,1h-9.4a.982.982,0,0,1-.9-1v-9.1c0-.3.6-1,.9-1h9.4c.3,0,.6.6.6,1Z"/><path class="z" d="M230.65,233.6a.9.9,0,0,1-.9.9h-9.1c-.7,0-1-.3-1-1v-9.1a1.06,1.06,0,0,1,1-1h9.1a.977.977,0,0,1,.9,1Z"/><path class="z" d="M244.65,233.5a1.069,1.069,0,0,1-.9,1h-9.4c-.3,0-.6-.3-.6-1v-9.1c0-.3.3-1,.6-1h9.4a1.319,1.319,0,0,1,.9,1Z"/><path class="z" d="M257.65,233.5c0,.6-.3,1-.6,1h-9.4a.9.9,0,0,1-.9-.9v-9.1c0-.3.3-1,.9-1h9.4c.3,0,.6.6.6,1Z"/><path class="z" d="M271.65,233.6a.9.9,0,0,1-.9.9h-9.4c-.3,0-.6-.3-.6-1v-9.1c0-.3.3-1,.6-1h9.4a.977.977,0,0,1,.9,1Z"/><path class="z" d="M285.65,233.5c0,.6-.3,1-.6,1h-9.4a.982.982,0,0,1-.9-1v-9.1c0-.3.6-1,.9-1h9.4c.3,0,.6.6.6,1Z"/><path class="z" d="M299.65,233.5c0,.6-.3,1-.6,1h-9.4a.9.9,0,0,1-.9-.9v-9.1c0-.3.3-1,.9-1h9.4c.3,0,.6.6.6,1Z"/><path class="z" d="M313.65,233.5a1.069,1.069,0,0,1-.9,1h-9.4c-.3,0-.6-.3-.6-1v-9.1c0-.3.3-1,.6-1h9.4a1.319,1.319,0,0,1,.9,1Z"/><path class="z" d="M209.65,246.9a.645.645,0,0,1-.6.6h-9.4c-.6,0-.9-.3-.9-.6v-8.4a.9.9,0,0,1,.9-.9h9.4c.3,0,.6.3.6.9Z"/><path class="z" d="M223.65,246.9a.645.645,0,0,1-.6.6h-9.7a.645.645,0,0,1-.6-.6v-8.5c0-.6.3-.9.6-.9h9.7c.3,0,.6.3.6.9Z"/><path class="z" d="M237.65,246.9c0,.3-.3.6-.9.6h-9.4a.645.645,0,0,1-.6-.6v-8.5c0-.6.3-.9.6-.9h9.4a.9.9,0,0,1,.9.9Z"/><path class="z" d="M251.65,246.9a.645.645,0,0,1-.6.6h-9.4c-.3,0-.9-.3-.9-.6v-8.5a.958.958,0,0,1,.9-.9h9.4c.3,0,.6.3.6.9Z"/><path class="z" d="M265.65,246.9c0,.3-.3.6-1,.6h-9.4a.645.645,0,0,1-.6-.6v-8.5c0-.6.3-.9.6-.9h9.4a1,1,0,0,1,1,1Z"/><path class="z" d="M278.65,246.9a.645.645,0,0,1-.6.6h-9.4c-.6,0-.9-.3-.9-.6v-8.5a.8.8,0,0,1,.9-.9h9.4c.3,0,.6.3.6.9Z"/><path class="z" d="M292.65,246.9c0,.3-.3.6-.9.6h-9.4a.645.645,0,0,1-.6-.6v-8.5c0-.6.3-.9.6-.9h9.4a.9.9,0,0,1,.9.9Z"/><path class="z" d="M327.65,233.5c0,.6-.3,1-.6,1h-9.4a.9.9,0,0,1-.9-.9v-9.1c0-.3.3-1,.9-1h9.4c.3,0,.6.6.6,1Z"/><path class="z" d="M341.65,233.6a.9.9,0,0,1-.9.9h-9.4c-.3,0-.6-.3-.6-1v-9.1c0-.3.3-1,.6-1h9.4a.977.977,0,0,1,.9,1Z"/><path class="z" d="M425.65,233.6a.9.9,0,0,1-.9.9h-9.4c-.3,0-.6-.3-.6-1v-9.1c0-.3.3-1,.6-1h9.4a.977.977,0,0,1,.9,1Z"/><path class="z" d="M439.65,233.5c0,.6-.3,1-.6,1h-9.7c-.3,0-.6-.3-.6-1v-9.1c0-.3.3-1,.6-1h9.7c.3,0,.6.6.6,1Z"/><path class="z" d="M453.65,233.5c0,.6-.3,1-.6,1h-9.4a.9.9,0,0,1-.9-.9v-9.1c0-.3.3-1,.9-1h9.4c.3,0,.6.6.6,1Z"/><path class="z" d="M320.65,246.9c0,.3-.6.6-.9.6h-9.4a.645.645,0,0,1-.6-.6v-8.5c0-.6.3-.9.6-.9h9.4a.958.958,0,0,1,.9.9Z"/><path class="z" d="M306.65,246.9a.645.645,0,0,1-.6.6h-9.4c-.6,0-.9-.3-.9-.6v-8.5a.8.8,0,0,1,.9-.9h9.4c.3,0,.6.3.6.9Z"/><path class="z" d="M334.65,246.9a.645.645,0,0,1-.6.6h-9.4c-.6,0-.9-.3-.9-.6v-8.4a.9.9,0,0,1,.9-.9h9.4c.3,0,.6.3.6.9Z"/><path class="z" d="M439.65,246.9a.645.645,0,0,1-.6.6h-9.4c-.3,0-.9-.3-.9-.6v-8.5a.958.958,0,0,1,.9-.9h9.4c.3,0,.6.3.6.9Z"/><path class="z" d="M425.65,246.9c0,.3-.3.6-.9.6h-9.4a.645.645,0,0,1-.6-.6v-8.5c0-.6.3-.9.6-.9h9.4a.9.9,0,0,1,.9.9Z"/><path class="z" d="M453.65,246.9c0,.3-.3.6-.9.6h-9.4a.645.645,0,0,1-.6-.6v-8.5c0-.6.3-.9.6-.9h9.4a.9.9,0,0,1,.9.9Z"/><path class="z" d="M365.65,219.9a.645.645,0,0,1-.6.6h-9.4c-.7,0-1-.3-1-.6v-8.8c0-.3.3-.6,1-.6h9.4a.645.645,0,0,1,.6.6Z"/><path class="z" d="M425.65,219.9a.645.645,0,0,1-.6.6h-9.4c-.6,0-.9-.3-.9-.6v-8.8c0-.3.3-.6.9-.6h9.4a.645.645,0,0,1,.6.6Z"/><path class="z" d="M439.05,220.5h-9.8a.645.645,0,0,1-.6-.6v-8.8a.645.645,0,0,1,.6-.6h9.8a.645.645,0,0,1,.6.6v8.8A.645.645,0,0,1,439.05,220.5Z"/><path class="z" d="M453.65,219.9c0,.3-.3.6-.9.6h-9.4a.645.645,0,0,1-.6-.6v-8.8a.645.645,0,0,1,.6-.6h9.4c.6,0,.9.3.9.6Z"/><path class="z" d="M344.65,205.5a1,1,0,0,1-1,1h-9.4c-.3,0-.6-.3-.6-1v-9c0-.7.3-1,.6-1h9.4c.6,0,.9.3.9,1v9Z"/><path class="z" d="M425.65,205.5a1,1,0,0,1-1,1h-9.4c-.3,0-.6-.3-.6-1v-9c0-.7.3-1,.6-1h9.4c.6,0,.9.3.9,1v9Z"/><path class="z" d="M439.65,205.5c0,.6-.3,1-.6,1h-9.4a1,1,0,0,1-1-1v-9c0-.7.3-1,.9-1h9.4c.3,0,.6.3.6,1v9Z"/><path class="z" d="M453.65,205.5c0,.6-.3,1-.6,1h-9.7c-.3,0-.6-.3-.6-1v-9c0-.7.3-1,.6-1h9.7c.3,0,.6.3.6,1Z"/><path class="z" d="M381.05,220.5h-9.8a.645.645,0,0,1-.6-.6v-8.8a.645.645,0,0,1,.6-.6h9.4a.9.9,0,0,1,.9.9v8.4A.545.545,0,0,1,381.05,220.5Z"/><path class="z" d="M395.65,219.9c0,.3-.3.6-.9.6h-9.4a.645.645,0,0,1-.6-.6v-8.8a.645.645,0,0,1,.6-.6h9.4c.6,0,.9.3.9.6Z"/><path class="z" d="M408.65,219.9a.645.645,0,0,1-.6.6h-9.4c-.6,0-.9-.3-.9-.6v-8.8c0-.3.3-.6.9-.6h9.4a.645.645,0,0,1,.6.6Z"/><path class="z" d="M381.65,205.5c0,.6-.3,1-.6,1h-9.4a.9.9,0,0,1-.9-.9v-9.1c0-.7.3-1,.9-1h9.4c.3,0,.6.3.6,1Z"/><path class="z" d="M395.65,205.5a1.069,1.069,0,0,1-.9,1h-9.4c-.3,0-.6-.3-.6-1v-9c0-.7.3-1,.6-1h9.4a.982.982,0,0,1,.9,1Z"/><path class="z" d="M408.65,205.5a1,1,0,0,1-1,1h-9.4c-.3,0-.6-.3-.6-1v-9c0-.7.3-1,.6-1h9.4c.6,0,.9.3.9,1v9Z"/><path class="z" d="M380.75,263.5h-9.5a.645.645,0,0,1-.6-.6v-9.4c0-.6.3-1,.6-1h9.4a.982.982,0,0,1,.9,1v9.1A.765.765,0,0,1,380.75,263.5Z"/><path class="z" d="M395.65,262.5c0,.3-.3,1-.9,1h-9.4a.645.645,0,0,1-.6-.6v-9.4c0-.6.3-1,.6-1h9.4a.9.9,0,0,1,.9.9Z"/><path class="z" d="M408.65,262.6a.9.9,0,0,1-.9.9h-9.1a.977.977,0,0,1-.9-1v-9.1a.9.9,0,0,1,.9-.9h9.4c.3,0,.6.3.6,1Z"/><path class="z" d="M395.65,248.6a.958.958,0,0,1-.9.9h-9.4c-.3,0-.6-.3-.6-.9v-8.5a.645.645,0,0,1,.6-.6h9.4c.3,0,.9.3.9.6Z"/><path class="z" d="M466.65,205.5a1,1,0,0,1-1,1h-9.4c-.3,0-.6-.3-.6-1v-9c0-.7.3-1,.6-1h9.4c.6,0,.9.3.9,1v9Z"/><path class="z" d="M466.65,260.9c0,.3-.3.6-.9.6h-9.4a.645.645,0,0,1-.6-.6V238.4c0-.6.3-.9.6-.9h9.4a.9.9,0,0,1,.9.9Z"/><path class="z" d="M466.65,232.6a.9.9,0,0,1-.9.9h-9.4c-.3,0-.6-.3-.6-.9V211.4c0-.6.3-.9.6-.9h9.4a.9.9,0,0,1,.9.9Z"/><path class="z" d="M193.65,192.5c0,.7-.3,1-.7,1h-9.4a.9.9,0,0,1-.9-.9v-5.1a.9.9,0,0,1,.9-.9h9.4c.3,0,.7.3.7,1Z"/><path class="z" d="M207.65,192.5c0,.7-.3,1-.6,1h-9.4a.9.9,0,0,1-.9-.9v-5.1a.9.9,0,0,1,.9-.9h9.4c.3,0,.6.3.6,1Z"/><path class="z" d="M221.65,192.5c0,.7-.3,1-.6,1h-9.4a.9.9,0,0,1-.9-.9v-5.1a.9.9,0,0,1,.9-.9h9.4c.3,0,.6.3.6,1Z"/><path class="z" d="M236.65,192.5c0,.7-.3,1-.6,1h-9.4a.9.9,0,0,1-.9-.9v-5.1a.9.9,0,0,1,.9-.9h9.4c.3,0,.6.3.6,1Z"/><path class="z" d="M250.65,192.5c0,.7-.3,1-.6,1h-9.4a.9.9,0,0,1-.9-.9v-5.1a.9.9,0,0,1,.9-.9h9.4c.3,0,.6.3.6,1Z"/><path class="z" d="M264.65,192.5c0,.7-.3,1-.6,1h-9.4a.9.9,0,0,1-.9-.9v-5.1a.9.9,0,0,1,.9-.9h9.4c.3,0,.6.3.6,1Z"/><path class="z" d="M279.65,192.5c0,.7-.3,1-.6,1h-9.4a.9.9,0,0,1-.9-.9v-5.1a.9.9,0,0,1,.9-.9h9.4c.3,0,.6.3.6,1Z"/><path class="z" d="M293.65,192.5c0,.7-.3,1-.6,1h-9.4a1,1,0,0,1-1-1v-5.1a.9.9,0,0,1,.9-.9h9.4c.3,0,.6.3.6,1v5Z"/><path class="z" d="M307.65,192.5c0,.7-.3,1-.6,1h-9.4a.9.9,0,0,1-.9-.9v-5.1a.9.9,0,0,1,.9-.9h9.4c.3,0,.6.3.6,1Z"/><path class="z" d="M322.65,192.5c0,.7-.3,1-.6,1h-9.4a.9.9,0,0,1-.9-.9v-5.1a.9.9,0,0,1,.9-.9h9.4c.3,0,.6.3.6,1Z"/><path class="z" d="M335.75,193.5h-9.1a.9.9,0,0,1-.9-.9v-5.1a.9.9,0,0,1,.9-.9h9.1a.9.9,0,0,1,.9.9v5.1A.9.9,0,0,1,335.75,193.5Z"/><path class="z" d="M349.75,193.5h-9.1a.9.9,0,0,1-.9-.9v-5.1a.9.9,0,0,1,.9-.9h9.1a.9.9,0,0,1,.9.9v5.1A.9.9,0,0,1,349.75,193.5Z"/><path class="z" d="M365.65,192.5c0,.7-.3,1-.6,1h-9.4c-.7,0-1-.3-1-1v-5c0-.7.3-1,1-1h9.4c.3,0,.6.3.6,1Z"/><path class="z" d="M364.65,205.5a.9.9,0,0,1-1,1h-15.4c-.3,0-.6-.3-.6-1v-9c0-.7.3-1,.6-1h15.4a1,1,0,0,1,1,1Z"/><path class="z" d="M364.65,233.5c0,.6-.3,1-.7,1h-18.4a.9.9,0,0,1-.9-.9v-9.1a1.059,1.059,0,0,1,1-1h18.4a.684.684,0,0,1,.7.7v9.3Z"/><path class="z" d="M188.65,233.5a1.069,1.069,0,0,1-.9,1h-18.1a.9.9,0,0,1-.9-.9v-9.1c0-.3.3-1,.9-1h18.1a1.319,1.319,0,0,1,.9,1Z"/><path class="z" d="M364.65,246.9a.645.645,0,0,1-.6.6h-24.4c-.6,0-.9-.3-.9-.6v-8.4a.9.9,0,0,1,.9-.9h24.4c.3,0,.6.3.6.9Z"/><path class="z" d="M194.65,246.9c0,.3-.3.6-.9.6h-24.2c-.3,0-.9-.3-.9-.6v-8.5a.958.958,0,0,1,.9-.9h24.2a.9.9,0,0,1,.9.9Z"/><path class="z" d="M185.65,219.9c0,.3-.3.6-.9.6h-15.2c-.6,0-.9-.3-.9-.6v-8.8c0-.3.3-.6.9-.6h15.2c.6,0,.9.3.9.6Z"/><path class="z" d="M178.65,261.8a.811.811,0,0,1-.9.7h-9.4a.669.669,0,0,1-.6-.7V251.4c0-.6.3-1,.6-1h9.4a.9.9,0,0,1,.9.9Z"/><path class="z" d="M192.65,261.8a.811.811,0,0,1-.9.7h-9.4a.669.669,0,0,1-.6-.7V251.4c0-.6.3-1,.6-1h9.4a.9.9,0,0,1,.9.9Z"/><path class="z" d="M220.65,261.9a.576.576,0,0,1-.6.6h-9.7a.669.669,0,0,1-.6-.7V251.4c0-.6.3-1,.6-1h9.7c.3,0,.7.3.7,1v10.5Z"/><path class="z" d="M289.65,261.8c0,.3-.3.7-.6.7h-61.8a.669.669,0,0,1-.6-.7V251.4c0-.6.3-1,.6-1h61.8c.3,0,.6.3.6,1Z"/><path class="z" d="M206.65,261.8c0,.3-.6.7-.9.7h-9.4a.669.669,0,0,1-.6-.7V251.4c0-.6.3-1,.6-1h9.4a.982.982,0,0,1,.9,1Z"/><path class="z" d="M334.65,261.8c0,.3-.3.7-.6.7h-9.4c-.6,0-.9-.3-.9-.7V251.4a.9.9,0,0,1,.9-.9h9.4c.3,0,.6.3.6,1Z"/><path class="z" d="M453.65,261.8a.811.811,0,0,1-.9.7h-9.4a.669.669,0,0,1-.6-.7V251.4c0-.6.3-1,.6-1h9.4a.9.9,0,0,1,.9.9Z"/><path class="z" d="M438.65,261.8c0,.3-.3.7-.6.7h-21.5c-.6,0-.9-.3-.9-.7V251.4a.9.9,0,0,1,.9-.9h21.5c.3,0,.6.3.6,1Z"/><path class="z" d="M356.65,261.8c0,.3-.3.7-.6.7h-9.7a.684.684,0,0,1-.7-.7V251.5c0-.6.3-1,.6-1h9.8c.3,0,.6.3.6,1v10.3Z"/><path class="z" d="M320.65,261.8a.811.811,0,0,1-.9.7h-9.4a.669.669,0,0,1-.6-.7V251.4c0-.6.3-1,.6-1h9.4a.9.9,0,0,1,.9.9Z"/><path class="z" d="M306.65,261.8c0,.3-.6.7-.9.7h-9.4a.669.669,0,0,1-.6-.7V251.4c0-.6.3-1,.6-1h9.4a.982.982,0,0,1,.9,1Z"/><path class="z" d="M343.65,262.5h-6c-.7,0-1-.3-1-.7V251.4a.9.9,0,0,1,.9-.9h6.1Z"/><path class="z" d="M358.65,262.5h6.3a.751.751,0,0,0,.7-.7V251.4c0-.6-.3-1-.7-1h-6.3Z"/><path class="z" d="M447.65,256.5h-.3a.294.294,0,0,1,.3-.3v.3Z"/><g class="aa"><polygon points="145.05 130.7 114.75 118.8 121.35 101 151.65 112.8 145.05 130.7"/><path d="M162.55,146.7c0,.3-.4.4-.5.2-.9-1.6-19.3.7-19.3.7-.6-3.8-3.5-23.3-3.5-23.8h0c-.2-.2,18.3-3.6,18.3-3.6a.735.735,0,0,1,.2.6h0C158.05,123.4,161.45,138.7,162.55,146.7Z"/><polygon points="84.15 130.3 77.45 112.5 107.85 100.7 114.55 118.5 84.15 130.3"/><path class="ab" d="M127.85,47.2l-.2,3.2a34.293,34.293,0,0,0-11.8-1.7c-10,0-20.8,1.1-24,12.6-.4,12.8-1.5,43.3.6,45.2-1.1-.2,31.6,15.2,43.4-2.3,3.7-5.1,0-11.8,1.5-18.9C140.95,68,137.95,48.5,127.85,47.2Z"/><path class="ac" d="M124.65,86.4l.7,15.6,9.8,4.5c-2.8,1.5-14.9,6.2-21.2,6.2s-18.8-4.3-21.6-5.8l9.8-4.7.9-15.7h21.6Z"/><path class="ac" d="M129.45,82.5c3.9,0,6.6-3.2,6.3-8.4-.6-4.9-3.9-9.9-7.6-9.9Z"/><path class="ac" d="M98.45,82.5c-4.1,0-6.8-3.2-6.3-8.4.6-4.9,3.9-9.9,7.6-9.9Z"/><path class="ac" d="M113.95,98.4c3.7,0,4.8-.9,5-1.7,10.9-4.1,12.7-17.6,14-27l-2-12c-1.3-6.2-11.1-11.6-17-11.6-6.1,0-15.7,5.4-17,11.6l-2.2,12c1.3,9.4,3.1,22.9,14,27C109.15,97.5,110.35,98.4,113.95,98.4Z"/><path d="M122.45,72a1.536,1.536,0,0,1-1.5-1.5,1.507,1.507,0,0,1,3,.2A1.442,1.442,0,0,1,122.45,72Z"/><path d="M105.55,72a1.378,1.378,0,0,0,1.3-1.5,1.52,1.52,0,0,0-1.5-1.3,1.608,1.608,0,0,0-1.3,1.5A1.442,1.442,0,0,0,105.55,72Z"/><path class="ab" d="M138.75,68.2c-.4-9-2.8-16.7-7.4-19.7a6.529,6.529,0,0,0-3.5-1.5s-2-5.4-14-5.4c-10.5,0-22.3,5.1-22.1,23.8-.2,4.1,6.6,10.5,6.5-.6,1.1-12.2,2-17.1,15.9-15.6,1.5.2,3.1-.6,4.8-.6a.735.735,0,0,1,.6-.2c13.5,1.7,8.3,22.5,16.4,26.3,0,0,1.7.8,2.4-2.6A33.349,33.349,0,0,1,138.75,68.2Z"/><path class="ad" d="M124.85,92.8h0a22.723,22.723,0,0,1-3.9,3c-.2,0-.4.2-.6.4-.2,0-.4,0-.5.2a2.263,2.263,0,0,0-.9.4c-.2.7-1.3,1.7-5,1.7s-4.8-.9-5.2-1.7c-.2-.2-.4-.2-.6-.4a6.373,6.373,0,0,1-.7-.2c-.2-.2-.4-.2-.6-.4a22.389,22.389,0,0,1-3.7-2.8c-.2,0-.4-.2-.6-.4v1.3a21.931,21.931,0,0,0,6.1,4.1c.4.7,1.5,1.7,5.2,1.7s4.8-.9,5-1.7a20.649,20.649,0,0,0,6.1-3.9Z"/><path class="ae" d="M113.95,90.2a21.376,21.376,0,0,1-5.9-.8c-.6-.2-.9-.6-.7-1.1.2-.4.6-.8.9-.6a24.827,24.827,0,0,0,11.5,0,.676.676,0,0,1,.9.6c.2.6-.2.9-.6,1.1A23.794,23.794,0,0,1,113.95,90.2Z"/><path class="af" d="M113.95,70.3V81.4h-4.2a1.975,1.975,0,0,1,.6-1.1,7.185,7.185,0,0,0,1.7-3.4l.2-4.7A1.836,1.836,0,0,1,113.95,70.3Z"/><path class="ad" d="M118.25,81.3a1.378,1.378,0,0,1-1.5,1.3c-.4,0-.5.4-.9.8a2.875,2.875,0,0,1-1.8.7,4.9,4.9,0,0,1-1.9-.7c-.4-.4-.5-.8-.7-.8-1.1,0-1.7-.6-1.7-1.3h8.5Z"/><path class="k" d="M95.95,83.6V80.8c0-.6-.7-.6-.7,0v2.8C95.15,84,95.95,84,95.95,83.6Z"/><path d="M94.25,84.5a1.324,1.324,0,0,0,1.3,1.3,1.514,1.514,0,0,0,1.5-1.3,1.538,1.538,0,0,0-1.5-1.5A1.514,1.514,0,0,0,94.25,84.5Z"/><path class="k" d="M132.65,83.4V80.6c0-.6-.6-.6-.6,0v2.8A.3.3,0,0,0,132.65,83.4Z"/><path d="M130.95,84.3a1.261,1.261,0,0,0,1.3,1.3,1.514,1.514,0,0,0,1.5-1.3,1.473,1.473,0,0,0-1.5-1.5A1.378,1.378,0,0,0,130.95,84.3Z"/><path class="ab" d="M97.55,65s19-9.6,21.2-16.3l-7.4-2.6-11.6,3.8-2.2,10.9Z"/><path class="ab" d="M131.75,63.2s-16.4-8.2-18.3-14.1l6.3-2.3,10,3.2,2,9.4Z"/><path d="M139.25,119.2a9.451,9.451,0,0,0,6.6,11.6,9.28,9.28,0,0,0,11.6-6.8,9.411,9.411,0,1,0-18.2-4.8Z"/><path d="M114.75,116v43.9h-.4a65.821,65.821,0,0,1-9-.6c-.9-.2-1.9-.4-2.8-.6a46.93,46.93,0,0,1-7.2-1.7,74.732,74.732,0,0,1-11.3-4.7v-4.5l-.2-.6-.7-16.7-.2-3.2-.2-5.6-.1-1.2v-2.2l4.8-.4h.7l1.3-.2h.6l9.4-.6,3-.4,8.5-.6,2.8-.2h1Z"/><path d="M146.45,118.3l-.2,3.8-.4,6.2v2.6l-.9,16.5v5a63.181,63.181,0,0,1-11.5,4.7,40.715,40.715,0,0,1-5,1.3,40.179,40.179,0,0,1-5.2.9,61.473,61.473,0,0,1-8.7.6h-.4V116h1.3l1.1.2,9.6.6,3.9.4,9.6.8h2.2Z"/><path d="M89.95,122.8v.6c-.2.6-3.1,20.8-3.5,24.2l-2.4-.2h-.2c-9.4-1.1-15.9,1.6-16.2,1.2.9-6.9,2.9-23.3,3.9-28.4v-.4C73.55,120,89.95,122.8,89.95,122.8Z"/><path d="M89.85,118.8a9.316,9.316,0,1,1-18,4.8,9.316,9.316,0,1,1,18-4.8Z"/><path class="y" d="M130.65,108.2l-.2.4v.7l-.2,7.9-.4,7.7-1.3,33.6a40.179,40.179,0,0,1-5.2.9,61.473,61.473,0,0,1-8.7.6h-.4a65.821,65.821,0,0,1-9-.6c-.9-.2-1.9-.4-2.8-.6l-4.6-31.1.4-3,1.1-7.5.4-3.2.6-4.1v-.2l.2-1.1s.7.2,1.9.6a9.54,9.54,0,0,1,1.7.4h.2a50.7,50.7,0,0,0,5,.9h.6c.6,0,1.3.2,1.8.2a31.009,31.009,0,0,0,6.1,0h0a52.138,52.138,0,0,0,8.5-1.1C127.65,109.1,129.15,108.7,130.65,108.2Z"/><path d="M142.45,129.2v.4h-.2v.4l-1.3,4.3-7.4,22.9a40.715,40.715,0,0,1-5,1.3,40.179,40.179,0,0,1-5.2.9c.7-9.2,1.7-20.1,2.2-26.3v-.2h0v-.4l.5-9.2.2-1.5v-5.1c0-1.7-.2-3.6-.2-5.4v-1.9a50.045,50.045,0,0,0-.4-6.6c-.2-.6-.2-.9-.4-.9l3.9,1.7v.2l4.4,1.7.7.4,2.9,1.5h.4l2.6,9.4.4,1.1.6,2.1.2.6-.4.2-2,1.7-3,2.1,3.5,1.5.5.4,1.3.6.2.2C142.05,127.5,142.55,128,142.45,129.2Z"/><polygon class="ac" points="109.75 110.4 113.85 134.2 117.65 110.6 117.15 108.5 109.75 110.4"/><path d="M105.35,159.4c-.9-.2-1.9-.4-2.8-.6a46.93,46.93,0,0,1-7.2-1.7l-7.2-22.5-1.3-4.3-.4-.9V129a2.1,2.1,0,0,1,.9-2.4h0l1.7-.7.6-.2,3.1-1.3-2.6-2.1-2-1.5-.7-.4.4-1.1.2-.7.2-.6.6-1.7,3.3-9.4.6-.2.2-.2,9.4-4.3v.8l.2,6.2v8.6l.2,3.8.2,1.7.6,9.6C103.85,138.9,104.55,150,105.35,159.4Z"/><path d="M130.05,74.8a5.826,5.826,0,0,1-1.1,1.5,7.378,7.378,0,0,1-1.3.8,14.706,14.706,0,0,1-4.2.6c-1.3-.2-3,0-4.3-.9a6.593,6.593,0,0,1-1.8-3.4,4.962,4.962,0,0,1-.2-3.6c.9-1.1,2.4-1.3,3.5-1.5a34.246,34.246,0,0,1,4.4-.4,9.132,9.132,0,0,1,3.3,0c.4,0,.6.2.9.2C132.05,68.8,130.75,72.9,130.05,74.8Zm-19-1.5a7.005,7.005,0,0,1-2,3.4c-1.1.9-2.8.8-4.1.9a14.213,14.213,0,0,1-4.2-.6,5.552,5.552,0,0,1-1.7-1.1,2.824,2.824,0,0,1-.7-1.1c-.6-1.3-1.3-3.8-.8-5.2v-.2a2.2,2.2,0,0,1,1.5-1.3.735.735,0,0,0,.6-.2,11.483,11.483,0,0,1,3.7,0,26.054,26.054,0,0,1,4.2.4c1.3.2,2.8.4,3.5,1.5C111.75,70.8,111.25,72.1,111.05,73.3Zm21.8-5.7c0-.2,0-.4-.2-.4s-.4,0-.4-.2h-1.3a12.3,12.3,0,0,0-2.6-.2,11.4,11.4,0,0,0-2.6-.2,23.058,23.058,0,0,0-5.2.6c-1.9.2-3.7.6-5.5.8h-2c-1.8-.2-3.5-.6-5.4-.8a23.933,23.933,0,0,0-5.3-.6,13.2,13.2,0,0,0-2.8.2h-1.7a.735.735,0,0,0-.6.2h-1.3c-.4.2-.6.2-.7.6v2.8c0,.2.2.4.4.6h.2a10.907,10.907,0,0,0,.6,1.1c.2.7.4,1.5.7,2.3.4,1.1.7,2.1,1.7,2.6a1.719,1.719,0,0,0,.7.4,12.959,12.959,0,0,0,5.2.9,7.466,7.466,0,0,0,4.4-.9,8.044,8.044,0,0,0,2.8-3.9v-.2a10.907,10.907,0,0,1,.6-1.1c0-.4.2-.8,0-1.1h0c-.2-.9.9-1.1,1.7-1.1.5,0,1.6.2,1.5,1.1a1.978,1.978,0,0,0,.2,1.1,8.1,8.1,0,0,0,.6,1.3c.6,1.5,1.3,3.2,2.8,3.9a7.623,7.623,0,0,0,4.4.9,12.012,12.012,0,0,0,5-.9c.2,0,.4,0,.5-.2a3.927,3.927,0,0,0,2-2.8c.2-.7.4-1.5.7-2.3.2-.4.2-.8.5-.9V71c.2-.2.4-.4.4-.6a2.549,2.549,0,0,0,.2-1.3A10.863,10.863,0,0,0,132.85,67.6Z"/></g></svg>