<svg xmlns="http://www.w3.org/2000/svg" viewBox="0 0 636 300"><title>swimlane-toolchest-with-power-drill</title><polygon points="185.596 100.065 171.062 98.827 176.628 101.441 236.601 161.229 237.66 151.969 185.596 100.065" fill="#737373"/><rect x="83" y="97" width="146.542" height="7.082" fill="#737373"/><polygon points="106.215 31.147 79.302 31.367 77.88 30.043 79.279 28.534 106.192 28.314 106.215 31.147" fill="#c2c2c2"/><polygon points="81.276 31.315 83.693 31.307 82.726 29.835 80.353 29.911 81.276 31.315" fill="#939393"/><polygon points="84.516 31.291 86.932 31.276 85.967 29.811 83.595 29.886 84.516 31.291" fill="#939393"/><polygon points="87.757 31.268 90.171 31.245 89.209 29.786 86.836 29.862 87.757 31.268" fill="#939393"/><polygon points="90.997 31.244 93.409 31.215 92.451 29.761 90.078 29.837 90.997 31.244" fill="#939393"/><polygon points="94.238 31.22 96.648 31.184 95.692 29.737 93.32 29.812 94.238 31.22" fill="#939393"/><polygon points="97.478 31.196 99.887 31.154 98.934 29.712 96.561 29.788 97.478 31.196" fill="#939393"/><polygon points="100.719 31.172 103.126 31.123 102.176 29.687 99.803 29.763 100.719 31.172" fill="#939393"/><rect x="118.747" y="26.708" width="6.751" height="6.525" transform="translate(244.245 59.941) rotate(180)"/><path d="M138.073,40.138l3.113,10.229a2.642,2.642,0,0,0,2.514,1.9h6.551l-4.982-12.506Z" fill="#c78e00"/><path d="M140.3,76.735h6.761c3.205-.618,4.921-3.393,4.178-7.869L141.515,37.04l18,3.534,10.146,36.467a4.184,4.184,0,0,1,2.562,3.882v10.6a4.134,4.134,0,0,1-4.078,4.188H140.3a4.134,4.134,0,0,1-4.078-4.188v-10.6A4.134,4.134,0,0,1,140.3,76.735Z" fill="#ffcb40"/><path d="M172.225,87.364v5.3a4.134,4.134,0,0,1-4.078,4.188H140.3a4.134,4.134,0,0,1-4.078-4.188v-5.3Z" fill="#c78e00"/><polygon points="110.011 34.593 105.907 33.097 105.907 26.98 110.011 25.213 110.011 34.593"/><rect x="108.952" y="23.309" width="11.649" height="13.051" rx="1.835" ry="1.835" transform="translate(229.552 59.67) rotate(180)" fill="#2a2a2a"/><rect x="110.97" y="25.722" width="7.347" height="1.631" fill="#737373"/><rect x="110.97" y="28.985" width="7.347" height="1.631" fill="#737373"/><rect x="110.97" y="32.248" width="7.347" height="1.631" fill="#737373"/><path d="M125.235,39.451l10.985,1.395-.4-19.44-10.978,1.32a1.687,1.687,0,0,0-1.465,1.69V37.3A2.153,2.153,0,0,0,125.235,39.451Z" fill="#2a2a2a"/><rect x="134.367" y="20.862" width="45.271" height="20.256" rx="2.974" ry="2.974" transform="translate(314.005 61.981) rotate(180)" fill="#ffcb40"/><rect x="153.561" y="23.174" width="22.503" height="2.719" transform="translate(329.624 49.066) rotate(180)" fill="#c78e00"/><path d="M179.638,30.514V38.1a2.975,2.975,0,0,1-2.935,3.014H137.3a2.975,2.975,0,0,1-2.935-3.014v-7.59Z" fill="#f0ae00"/><rect x="164.018" y="32.146" width="11.649" height="1.359" transform="translate(339.684 65.651) rotate(180)" fill="#737373"/><rect x="164.018" y="34.593" width="11.649" height="1.359" transform="translate(339.684 70.545) rotate(180)" fill="#737373"/><rect x="164.018" y="37.04" width="11.649" height="1.359" transform="translate(339.684 75.439) rotate(180)" fill="#737373"/><path d="M93.75,283H484.829a3.616,3.616,0,0,0,3.612-2.848A3.5,3.5,0,0,0,485,276H93.921a3.616,3.616,0,0,0-3.612,2.848A3.5,3.5,0,0,0,93.75,283Z" fill="#b2b2b2"/><rect x="237" y="58" width="241" height="221" fill="#505050"/><path d="M443.02,127v24.114a1.7,1.7,0,0,0,1.7,1.7H466.18a1.7,1.7,0,0,0,1.7-1.7V126" fill="none" stroke="#737373" stroke-miterlimit="8" stroke-width="4"/><rect x="224" y="58" width="208" height="221" fill="#939393"/><circle cx="327.801" cy="76.192" r="3.575" fill="#b2b2b2"/><path d="M409.275,134h-161.4c-12.857,0-12.857-11-12.857-11H422.131S421.675,134,409.275,134Z" fill="#505050"/><path d="M409.275,131h-161.4c-12.857,0-12.857-9-12.857-9H422.131S421.675,131,409.275,131Z" fill="#b2b2b2"/><polygon points="432 118.401 432 58 371.449 57.821 432 118.401" fill="#b2b2b2"/><path d="M409,109H248c-12.856,0-12.98-12.074-12.98-12.074H422.131S421.4,109,409,109Z" fill="#505050"/><path d="M409.275,106h-161.4c-12.857,0-12.857-9-12.857-9H422.131S421.675,106,409.275,106Z" fill="#b2b2b2"/><path d="M423,260H234V86H423Zm-187-1H422V87H236Z" fill="#737373"/><path d="M478,61V50.522A4.523,4.523,0,0,0,473.478,46H241.522A4.523,4.523,0,0,0,237,50.522V61Z" fill="#282828"/><path d="M432,62.255V50.522A4.523,4.523,0,0,0,427.478,46H228.9a4.917,4.917,0,0,0-4.9,4.9V62Z" fill="#737373"/><rect x="313.446" y="53.819" width="28.046" height="12.442" fill="#b2b2b2"/><path d="M374.769,62H432V50.522A4.523,4.523,0,0,0,427.478,46H359.257Z" fill="#939393"/><path d="M246.871,139.58c-2.253,1.573-7.612.624-8.4-.033s-2.859,5.356-2.869,7.765,1.3,7.064,2.806,5.261,6.913-1.4,8.409,0,1.893-2.532,1.9-3.947-1.848-9.046-1.848-9.046" fill="#598db5"/><path d="M246.87,142c-2.253,1.573-7.612.624-8.4-.033s-2.858,2.941-2.868,5.35,1.3,7.064,2.806,5.261,6.913-1.4,8.409,0,1.893-2.532,1.9-3.947-1.848-9.046-1.848-9.046" fill="#45779e"/><rect x="210.566" y="187.46" width="92.245" height="11.321" transform="translate(62.548 449.039) rotate(-89.772)" fill="#505050"/><rect x="239.085" y="162.414" width="38.781" height="7.961" transform="translate(91.053 424.206) rotate(-89.772)" fill="#737373"/><rect x="241.759" y="165.099" width="38.781" height="2.613" transform="translate(93.706 426.89) rotate(-89.772)" fill="#939393"/><path d="M262.224,240.036c-7.044,4.964-11.321-.045-11.321-.045l.154-54.235,11.322.045S262.387,222.362,262.224,240.036Z" fill="#15212d"/><rect x="254.556" y="149.677" width="4.566" height="11.321" transform="translate(100.481 411.556) rotate(-89.772)" fill="#282828"/><path d="M231.725,153.186l5.725.022a1.039,1.039,0,0,0,1.043-1.034l.048-12.26a1.038,1.038,0,0,0-1.034-1.043l-5.725-.023a1.039,1.039,0,0,0-1.043,1.035l-.049,12.26a1.04,1.04,0,0,0,1.035,1.043" fill="#69afe5"/><path d="M264.1,138.967c19.332.076,22.163,10.281,23.544,13.687a1.039,1.039,0,0,1-1.8,1c-1.729-2.431-3.577-6.232-12.135-6.266-6.581-.027-8.809,3.75-9.442,5.287a1.032,1.032,0,0,1-.961.636l-15.508-.061a1.04,1.04,0,0,1-1.035-1.043l.049-12.271a1.039,1.039,0,0,1,1.043-1.034Z" fill="#69afe5"/><path d="M287.639,152.654a1.026,1.026,0,0,1-.594,1.361c-1.582-4.051-5.431-12.636-23.161-12.707l-16.249-.065a1.036,1.036,0,0,0-.839.426l.007-1.733a1.039,1.039,0,0,1,1.043-1.034l16.249.065C283.427,139.043,286.258,149.248,287.639,152.654Z" fill="#d2d2d2"/><path d="M238.538,140.679l-4.976-.019a1.131,1.131,0,0,0-1.136,1.127l-.046,11.4-.655,0a1.04,1.04,0,0,1-1.035-1.043l.049-12.26a1.039,1.039,0,0,1,1.043-1.035l5.725.023a1.038,1.038,0,0,1,1.034,1.043Z" fill="#d2d2d2"/><path d="M259.887,239.315l.136-53.523,2.356.009s.008,36.561-.155,54.235c-7.044,4.964-11.321-.045-11.321-.045l0-1C255.17,242.461,259.887,239.315,259.887,239.315Z" fill="#505050"/><rect x="439" y="106" width="33" height="24" rx="2.237" ry="2.237" transform="translate(911 236) rotate(180)" fill="#939393"/><rect x="264.862" y="149.828" width="60.293" height="3.508" transform="translate(140.604 445.123) rotate(-89.45)" fill="#d2d2d2"/><polygon points="297.052 121.453 296.308 118.01 295.495 121.439 297.052 121.453" fill="#969696"/><polygon points="295.495 121.439 294.357 117.992 293.545 121.42 295.495 121.439" fill="#969696"/><polygon points="295.16 115.5 294.357 117.991 295.477 123.313 296.308 118.01 295.552 115.504 295.16 115.5" fill="#5e5e5e"/><path d="M301.3,197.681l.363-37.8-13.644-.131-.363,37.8a3.891,3.891,0,0,1,2.695,3.462,3.244,3.244,0,0,1-2.758,3.1l-.021,2.188c-.021,2.186,2.3,4.4,5.415,4.425l2.731.026c3.118.03,5.478-2.134,5.5-4.32l.021-2.188a3.245,3.245,0,0,1-2.7-3.149,3.89,3.89,0,0,1,2.761-3.41" fill="#ff8c00"/><rect x="275.694" y="174.447" width="37.8" height="8.578" transform="translate(113.041 471.601) rotate(-89.45)" fill="#d83b01"/><path d="M361.454,156.368a12.537,12.537,0,0,1-1.077,5.574s-.38.668-.58,1.076c-2.855,5.833-3.792,11.942-3.028,15.277l-4.087.027-.062-9.277-.042-6.309-.124-18.556c4.831-.032,8.968,7.363,9,12.188" fill="#b2b2b2"/><polygon points="352.531 155.684 357.733 155.65 352.455 144.18 352.531 155.684" fill="#505050"/><path d="M345.518,162.783a12.482,12.482,0,0,1-2.016-6.316c-.129-3.7,4.121-12.254,8.953-12.287l.123,18.556.042,6.309.062,9.277-4.087.027c.721-3.344-.067-10.019-3.076-15.566" fill="#b2b2b2"/><polygon points="352.531 155.684 347.33 155.719 352.455 144.18 352.531 155.684" fill="#333"/><path d="M367.223,241.315a2.93,2.93,0,0,1-2.993-2.95c-.176-26.348-5.46-38.56-9.241-48.554l6.317-.042c3.781,9.994,8.7,22.951,8.869,48.556a3.2,3.2,0,0,1-2.952,2.99" fill="#2139b5"/><path d="M350.9,189.839h0l-6.689.044c.367-.744.754-1.71,1.121-2.456,2.558-6.324,4.362-11.311,4.318-17.992.039,5.937,1.555,10.381,3.073,15.2-.731,1.86-1.093,3.347-1.823,5.208" fill="#737373"/><path d="M342.307,238.511a3.2,3.2,0,0,1-2.952,2.989,2.931,2.931,0,0,1-2.993-2.949c-.171-25.606,4.2-38.624,7.851-48.669l6.688-.044c-4.021,10.047-8.77,22.325-8.594,48.673" fill="#2139b5"/><path d="M349.651,169.435a3.2,3.2,0,0,1,2.952-2.988A2.928,2.928,0,0,1,355.6,169.4a39.659,39.659,0,0,1-2.871,15.235c-1.517-4.816-3.034-9.258-3.073-15.2" fill="#b2b2b2"/><path d="M343.629,157.971l8.174-.054.044,6.679s-1.537,5.727-3.33,13.745c.885-3.957-1.462-12.814-3.037-15.355A12.282,12.282,0,0,1,343.629,157.971Z" fill="#505050"/><polygon points="352.531 155.684 347.33 155.719 352.455 144.18 352.531 155.684" fill="#333"/><path d="M347.365,160.915a5.2,5.2,0,0,0,10.4-.069,5.2,5.2,0,0,0-10.4.069" fill="#d2d2d2"/><path d="M360.175,187.55q.565,1.108,1.131,2.219l-6.317.042c-.374-.369-.379-1.112-.754-1.48l2.913-8.926c.761,2.592,1.893,5.184,3.027,8.145" fill="#737373"/><path d="M354.543,178.681a27.7,27.7,0,0,1-1.82,5.95s.728-2.6,1.82-5.95" fill="#505050"/><path d="M354.543,178.681c.362-1.487,1.673-4.458,2.278-6.358a29.013,29.013,0,0,0,.327,7.083l-2.913,8.925a16.027,16.027,0,0,1-1.512-3.7c.48-1.652,1.018-3.607,1.82-5.95" fill="#505050"/><path d="M312.355,151.85l3.385-3.569a.322.322,0,0,0,.062-.347l-3.98-9.352a.231.231,0,0,0-.257-.135l.006-.021-1.529.111.428,1.34a17.428,17.428,0,0,0-2.29,5.073,21.308,21.308,0,0,0,.074,8.416Z" fill="#828282"/><path d="M324.943,172.866a15.972,15.972,0,0,1,.266-4.9c.565-1.843,9.234-16.193,9.234-16.193s1.141-4.133-2.529-9.051c-2.991-4.009-8.049-6.242-9.817-6.93a.28.28,0,0,0-.153-.012l-.021-.036-1.539.112,1.884,1.662,3.641,8.887a.394.394,0,0,1-.228.518l-17.427,6.442s4.046,4.7,5.1,7.33,3.5,9,3.5,9l.678,5.737Z" fill="#828282"/><path d="M323.4,172.977a15.979,15.979,0,0,1,.267-4.9c.565-1.844,9.234-16.194,9.234-16.194s1.141-4.133-2.529-9.051c-2.991-4.009-8.049-6.242-9.817-6.93a.3.3,0,0,0-.377.389l4.189,10.225a.394.394,0,0,1-.228.518l-17.427,6.441s4.046,4.7,5.1,7.33,3.5,9,3.5,9l.678,5.737Z" fill="#d2d2d2"/><path d="M314.265,148.047l-3.98-9.354a.234.234,0,0,0-.4-.058,18.552,18.552,0,0,0-3.242,6.427,21.3,21.3,0,0,0,.074,8.415l4.1-1.516,3.386-3.57A.32.32,0,0,0,314.265,148.047Z" fill="#d2d2d2"/><rect x="313.522" y="154.814" width="9.279" height="8.035" rx="1.43" ry="1.43" transform="translate(366.793 -193.432) rotate(71.331)"/><rect x="315.497" y="155.68" width="5.567" height="5.973" rx="0.342" ry="0.342" transform="translate(366.718 -193.656) rotate(71.331)" fill="#3c3c3c"/><polygon points="315.051 156.145 313.956 156.515 318.342 162.264 319.425 161.898 315.051 156.145" fill="#737373"/><polygon points="316.615 155.559 315.52 155.929 319.906 161.678 320.989 161.312 316.615 155.559" fill="#737373"/><polygon points="318.179 154.973 317.085 155.343 321.47 161.092 322.553 160.727 318.179 154.973" fill="#737373"/><path d="M329.043,236.722h.021l-2.031-66.14a.727.727,0,0,0-.73-.7l-9.775.05a1.057,1.057,0,0,0-1.052,1.017l-2.426,65.1a8.02,8.02,0,1,0,15.993.67Zm-11.129,2.987a4.16,4.16,0,1,1,5.881.143A4.159,4.159,0,0,1,317.914,239.709Z" fill="#6597bf"/><path d="M327.789,236.729h.022l-2.032-66.141a.727.727,0,0,0-.73-.7l-9.775.05a1.059,1.059,0,0,0-1.052,1.018l-2.426,65.1a8.02,8.02,0,1,0,15.993.67Zm-11.129,2.988a4.16,4.16,0,1,1,5.881.143A4.159,4.159,0,0,1,316.66,239.717Z" fill="#45779e"/><rect x="364" y="178" width="58" height="81" fill="#505050"/><rect x="197.124" y="178.432" width="180.724" height="79.797" fill="#b2b2b2"/><path d="M366.377,191h-161.4c-12.857,0-12.857-11-12.857-11H379.233S378.777,191,366.377,191Z" fill="#505050"/><path d="M366.377,187h-161.4c-12.857,0-12.857-9-12.857-9H379.233S378.777,187,366.377,187Z" fill="#b2b2b2"/></svg>