<svg width="636" height="300" viewBox="0 0 636 300" fill="none" xmlns="http://www.w3.org/2000/svg">
<path d="M558.67 291.2H411.81C407.27 291.2 403.59 287.52 403.59 282.98V99.1599C403.59 94.6199 407.27 90.9399 411.81 90.9399H558.68C563.22 90.9399 566.9 94.6199 566.9 99.1599V282.97C566.9 287.51 563.21 291.2 558.67 291.2Z" fill="#B5D5EA"/>
<path d="M485.04 153.21C498.511 153.21 509.43 142.093 509.43 128.38C509.43 114.667 498.511 103.55 485.04 103.55C471.57 103.55 460.65 114.667 460.65 128.38C460.65 142.093 471.57 153.21 485.04 153.21Z" fill="white"/>
<path d="M498.09 117.88C493.77 103.08 475.86 102.93 471.17 118.09C469.16 124.59 469.39 132.71 466 143.87C470.47 149.56 477.33 153.21 485.04 153.21C492.51 153.21 499.19 149.78 503.66 144.4C499.63 132.69 500.12 124.82 498.09 117.88Z" fill="#3A312E"/>
<path d="M498.622 122.68C498.676 113.291 492.483 105.644 484.789 105.6C477.096 105.556 470.816 113.131 470.762 122.52C470.708 131.909 476.901 139.556 484.594 139.6C492.287 139.644 498.568 132.069 498.622 122.68Z" fill="#3A312E"/>
<path d="M478.671 127.15H476.631C475.151 127.15 473.951 125.95 473.951 124.47V124.42C473.951 122.94 475.151 121.74 476.631 121.74H478.671C479.431 121.74 480.051 122.36 480.051 123.12V125.76C480.051 126.53 479.441 127.15 478.671 127.15Z" fill="#BF8F68"/>
<path d="M490.9 127.15H492.94C494.42 127.15 495.62 125.95 495.62 124.47V124.42C495.62 122.94 494.42 121.74 492.94 121.74H490.9C490.14 121.74 489.52 122.36 489.52 123.12V125.76C489.52 126.53 490.14 127.15 490.9 127.15Z" fill="#BF8F68"/>
<path d="M488.451 136.61L488.491 129.47H481.581V136.5C481.531 138.09 481.381 138.66 479.711 139.45C477.631 140.44 481.741 142.96 484.931 142.96C488.121 142.96 492.401 140.14 490.721 139.52C489.271 138.99 488.301 138.56 488.451 136.61Z" fill="#BF8F68"/>
<path d="M488.461 130.39H481.541V141.11H488.461V130.39Z" fill="url(#paint0_radial)"/>
<path d="M493.67 121.68C493.67 128.55 489.64 134.13 484.67 134.13C479.7 134.13 475.67 128.56 475.67 121.68C475.67 114.81 479.7 109.87 484.67 109.87C489.64 109.86 493.67 114.8 493.67 121.68Z" fill="#BF8F68"/>
<path d="M489.562 121.832C489.573 121.037 489.207 120.387 488.743 120.38C488.279 120.373 487.894 121.012 487.882 121.808C487.871 122.603 488.237 123.253 488.701 123.26C489.165 123.266 489.55 122.627 489.562 121.832Z" fill="#3A312E"/>
<path d="M485.28 115.99L485.06 119.67C484.9 121.55 483.93 122.84 483.2 123.56C482.79 123.96 482.6 124.94 483.08 125.52C483.34 125.84 484.5 126.54 484.5 127.41L484.39 130.81L477.59 130.86L477.92 115.76L485.28 115.99Z" fill="url(#paint1_radial)"/>
<path d="M483.361 128.81C483.651 128.98 483.971 129.04 484.301 129.05C484.631 129.05 484.971 129.03 485.291 128.94C485.621 128.88 485.941 128.77 486.241 128.62C486.531 128.48 486.801 128.3 486.951 128.02L486.961 128C486.991 127.94 487.071 127.91 487.141 127.95C487.181 127.97 487.211 128.01 487.211 128.06C487.231 128.53 486.901 128.91 486.571 129.15C486.231 129.4 485.841 129.54 485.451 129.65C485.051 129.72 484.641 129.76 484.221 129.66C483.821 129.57 483.391 129.37 483.171 128.99C483.131 128.93 483.161 128.85 483.221 128.81C483.261 128.79 483.311 128.79 483.351 128.81H483.361Z" fill="#9B643D"/>
<path d="M480.68 108.82C480.68 108.82 481.53 113.4 486.59 115.51C493.9 118.56 493.7 122.96 493.7 122.96C493.7 122.96 497.83 117.8 492.9 110.97C487.83 103.97 480.68 108.82 480.68 108.82Z" fill="#3A312E"/>
<path d="M495.72 128.695C495.731 127.69 494.969 126.867 494.019 126.857C493.07 126.847 492.291 127.654 492.281 128.659C492.27 129.664 493.032 130.487 493.982 130.497C494.931 130.507 495.71 129.7 495.72 128.695Z" fill="#F8C954"/>
<path d="M477.587 128.692C477.598 127.686 476.836 126.864 475.887 126.854C474.937 126.844 474.158 127.651 474.148 128.656C474.137 129.661 474.899 130.484 475.849 130.493C476.799 130.503 477.577 129.697 477.587 128.692Z" fill="#F8C954"/>
<path d="M499.271 144.43C498.851 143.94 498.371 143.53 497.861 143.17C494.761 140.56 490.181 138.9 485.051 138.9C480.131 138.9 475.711 140.43 472.621 142.86C471.951 143.27 471.331 143.79 470.801 144.42C470.381 144.92 469.671 145.76 468.811 146.87C473.121 150.8 478.801 153.2 485.041 153.2C491.281 153.2 496.951 150.8 501.261 146.87C500.401 145.77 499.691 144.93 499.271 144.43Z" fill="#8867C8"/>
<path d="M484.84 142.27C488.14 142.27 491.21 141.67 493.77 140.64C491.22 139.48 488.25 138.8 485.06 138.8C481.79 138.8 478.74 139.51 476.15 140.73C478.65 141.71 481.64 142.27 484.84 142.27Z" fill="#BF8F68"/>
<path d="M481.165 123.252C481.628 123.245 481.995 122.595 481.984 121.8C481.972 121.005 481.587 120.366 481.123 120.372C480.659 120.379 480.292 121.029 480.304 121.824C480.315 122.619 480.701 123.259 481.165 123.252Z" fill="#3A312E"/>
<path d="M403.58 286.44C404.64 289.78 407.71 292.2 411.35 292.2H558.74C563.25 292.2 566.9 288.48 566.9 283.89V256.92H403.58V286.44Z" fill="#8FC3EC"/>
<path d="M566.9 180.5H403.58V215.77H566.9V180.5Z" fill="#8FC3EC"/>
<path d="M566.9 218.8H403.58V254.07H566.9V218.8Z" fill="#8FC3EC"/>
<path d="M529.92 170.85H440.55C438.09 170.85 436.09 168.85 436.09 166.39V166.31C436.09 163.85 438.09 161.85 440.55 161.85H529.92C532.38 161.85 534.38 163.85 534.38 166.31V166.39C534.38 168.86 532.39 170.85 529.92 170.85Z" fill="#D7EFF9"/>
<path d="M430.031 200.42C431.831 199.13 433.011 197.01 433.011 194.6C433.011 190.68 429.881 187.49 426.021 187.49C422.171 187.49 419.041 190.68 419.041 194.6C419.041 197.01 420.221 199.13 422.021 200.42C418.451 202 415.951 205.62 415.951 209.82H418.311C418.311 205.49 421.771 201.97 426.021 201.97C430.271 201.97 433.731 205.49 433.731 209.82H436.091C436.101 205.62 433.591 202 430.031 200.42ZM426.021 189.9C428.571 189.9 430.641 192.01 430.641 194.61C430.641 197.21 428.571 199.32 426.021 199.32C423.471 199.32 421.401 197.21 421.401 194.61C421.401 192.01 423.471 189.9 426.021 189.9Z" fill="white"/>
<path d="M426.521 249.12L425.601 247.94C424.931 247.07 419.051 239.44 418.381 236.35C418.001 235.33 417.811 234.27 417.811 233.2C417.811 228.3 421.721 224.32 426.531 224.32C431.341 224.32 435.251 228.3 435.251 233.2C435.251 234.27 435.061 235.32 434.681 236.33L434.491 236.81C432.601 241.39 427.651 247.69 427.441 247.95L426.521 249.12ZM420.721 235.97C421.201 237.74 424.201 242.12 426.531 245.23C428.051 243.19 431.031 238.99 432.331 235.84L432.441 235.57C432.751 234.77 432.891 233.98 432.891 233.18C432.891 229.61 430.041 226.7 426.531 226.7C423.021 226.7 420.171 229.6 420.171 233.18C420.171 233.99 420.321 234.79 420.621 235.56L420.741 235.87L420.721 235.97ZM432.431 235.61L433.541 236.01L432.431 235.61Z" fill="white"/>
<path d="M426.53 236.4C428.297 236.4 429.73 234.94 429.73 233.14C429.73 231.339 428.297 229.88 426.53 229.88C424.763 229.88 423.33 231.339 423.33 233.14C423.33 234.94 424.763 236.4 426.53 236.4Z" fill="white"/>
<path d="M437.92 279.01H434.17V271.29C434.17 267 430.74 263.52 426.53 263.52C422.32 263.52 418.89 267.01 418.89 271.29V279.01H414.99V281.41H421.54C421.7 284.04 423.83 286.14 426.45 286.14C429.07 286.14 431.2 284.04 431.36 281.41H437.91V279.01H437.92ZM421.26 271.29C421.26 268.33 423.63 265.92 426.54 265.92C429.45 265.92 431.82 268.33 431.82 271.29V279.01H421.27V271.29H421.26ZM426.45 283.74C425.13 283.74 424.05 282.72 423.9 281.42H429C428.85 282.72 427.77 283.74 426.45 283.74Z" fill="white"/>
<path d="M502.941 203.81H448.991C446.531 203.81 444.531 201.81 444.531 199.35V199.27C444.531 196.81 446.531 194.81 448.991 194.81H502.941C505.401 194.81 507.401 196.81 507.401 199.27V199.35C507.391 201.81 505.401 203.81 502.941 203.81Z" fill="#4DA1DB"/>
<path d="M502.941 241.06H448.991C446.531 241.06 444.531 239.06 444.531 236.6V236.52C444.531 234.06 446.531 232.06 448.991 232.06H502.941C505.401 232.06 507.401 234.06 507.401 236.52V236.6C507.391 239.07 505.401 241.06 502.941 241.06Z" fill="#4DA1DB"/>
<path d="M502.941 278.32H448.991C446.531 278.32 444.531 276.32 444.531 273.86V273.78C444.531 271.32 446.531 269.32 448.991 269.32H502.941C505.401 269.32 507.401 271.32 507.401 273.78V273.86C507.391 276.32 505.401 278.32 502.941 278.32Z" fill="#4DA1DB"/>
<path d="M239.39 59.2499H73.3004C70.8704 59.2499 68.9004 57.2799 68.9004 54.8499V29.0699C68.9004 26.6399 70.8704 24.6699 73.3004 24.6699H239.39C241.82 24.6699 243.79 26.6399 243.79 29.0699V54.8499C243.79 57.2799 241.82 59.2499 239.39 59.2499Z" fill="#4DA1DB"/>
<path d="M186.531 47.1298H125.591C122.761 47.1298 120.461 44.8298 120.461 41.9998V41.9098C120.461 39.0798 122.761 36.7798 125.591 36.7798H186.531C189.361 36.7798 191.661 39.0798 191.661 41.9098V41.9998C191.661 44.8298 189.361 47.1298 186.531 47.1298Z" fill="#2488D8"/>
<path d="M107.34 43.2V40.8H101.13C100.98 40.03 100.69 39.31 100.28 38.67L104.66 34.21L102.99 32.51L98.6199 36.96C97.9899 36.53 97.2798 36.22 96.5198 36.07V29.79H94.1599V36.07C93.3999 36.23 92.6898 36.54 92.0598 36.96L87.6898 32.51L86.0198 34.21L90.3998 38.67C89.9898 39.31 89.6899 40.02 89.5499 40.8H83.3398V43.2H89.5598C89.7198 43.96 90.0198 44.67 90.4298 45.3L86.0198 49.79L87.6898 51.49L92.1098 46.99C92.7198 47.4 93.4099 47.7 94.1599 47.85V54.22H96.5198V47.85C97.2598 47.7 97.9498 47.39 98.5698 46.99L102.99 51.49L104.66 49.79L100.25 45.3C100.66 44.67 100.96 43.97 101.12 43.2H107.34Z" fill="#FFB900"/>
<path d="M212.781 34.5298C212.501 35.0198 212.161 35.6298 211.771 36.3598C211.381 37.0898 210.961 37.9098 210.521 38.8298C210.081 39.7398 209.631 40.7198 209.181 41.7698C208.721 42.8198 208.301 43.8998 207.901 45.0198C207.501 46.1398 207.151 47.2698 206.851 48.4198C206.551 49.5698 206.331 50.6998 206.201 51.8098H203.971C204.121 50.7098 204.361 49.5798 204.671 48.4298C204.991 47.2798 205.351 46.1498 205.751 45.0498C206.151 43.9398 206.581 42.8798 207.031 41.8498C207.481 40.8298 207.911 39.8798 208.341 39.0198C208.761 38.1598 209.151 37.3998 209.501 36.7398C209.851 36.0798 210.131 35.5698 210.341 35.1998H201.221V33.2998H212.791V34.5298H212.781Z" fill="#B5D5EA"/>
<path d="M222.961 38.1497C222.961 37.5797 222.871 37.0897 222.701 36.6697C222.531 36.2497 222.291 35.8997 221.991 35.6197C221.691 35.3397 221.341 35.1297 220.931 34.9897C220.521 34.8497 220.081 34.7797 219.611 34.7797C219.201 34.7797 218.811 34.8397 218.421 34.9497C218.031 35.0597 217.651 35.2197 217.291 35.4097C216.921 35.6097 216.571 35.8397 216.221 36.1197C215.881 36.3997 215.561 36.6997 215.261 37.0397V34.7697C215.841 34.1897 216.501 33.7497 217.221 33.4497C217.941 33.1397 218.821 32.9897 219.861 32.9897C220.601 32.9897 221.291 33.0997 221.931 33.3197C222.571 33.5397 223.111 33.8597 223.581 34.2797C224.041 34.6997 224.411 35.2197 224.681 35.8397C224.951 36.4597 225.081 37.1697 225.081 37.9697C225.081 38.6997 225.001 39.3597 224.831 39.9597C224.671 40.5497 224.421 41.1097 224.081 41.6397C223.751 42.1697 223.321 42.6697 222.821 43.1497C222.311 43.6297 221.721 44.1197 221.031 44.6197C220.181 45.2397 219.471 45.7697 218.921 46.2097C218.371 46.6497 217.931 47.0597 217.601 47.4397C217.271 47.8197 217.051 48.2097 216.921 48.5897C216.791 48.9697 216.721 49.4097 216.721 49.9097H225.781V51.8097H214.561V50.8997C214.561 50.1097 214.641 49.4097 214.811 48.8097C214.981 48.2097 215.261 47.6397 215.651 47.0897C216.041 46.5497 216.551 46.0097 217.181 45.4597C217.811 44.9197 218.581 44.3097 219.501 43.6297C220.161 43.1497 220.711 42.6897 221.161 42.2497C221.601 41.8097 221.961 41.3697 222.231 40.9297C222.501 40.4897 222.691 40.0497 222.811 39.5897C222.901 39.1397 222.961 38.6597 222.961 38.1497Z" fill="#B5D5EA"/>
<path d="M230.57 35.5901C229.02 35.5901 227.77 34.3101 227.77 32.7401C227.77 31.1701 229.03 29.8901 230.57 29.8901C232.12 29.8901 233.37 31.1701 233.37 32.7401C233.37 34.3101 232.11 35.5901 230.57 35.5901ZM230.57 31.0801C229.68 31.0801 228.95 31.8201 228.95 32.7301C228.95 33.6401 229.68 34.3801 230.57 34.3801C231.46 34.3801 232.19 33.6401 232.19 32.7301C232.19 31.8201 231.46 31.0801 230.57 31.0801Z" fill="#B5D5EA"/>
<path d="M239.39 96.4999H73.3004C70.8704 96.4999 68.9004 94.5299 68.9004 92.0999V66.3199C68.9004 63.8899 70.8704 61.9199 73.3004 61.9199H239.39C241.82 61.9199 243.79 63.8899 243.79 66.3199V92.0999C243.79 94.5299 241.82 96.4999 239.39 96.4999Z" fill="#4DA1DB"/>
<path d="M186.531 84.39H125.591C122.761 84.39 120.461 82.09 120.461 79.26V79.17C120.461 76.34 122.761 74.04 125.591 74.04H186.531C189.361 74.04 191.661 76.34 191.661 79.17V79.26C191.661 82.09 189.361 84.39 186.531 84.39Z" fill="#2488D8"/>
<path d="M212.131 83.1898C212.131 84.0898 211.971 84.9197 211.661 85.6797C211.351 86.4397 210.911 87.0897 210.361 87.6397C209.811 88.1897 209.151 88.6197 208.381 88.9197C207.621 89.2297 206.791 89.3797 205.891 89.3797C204.901 89.3797 204.001 89.1898 203.221 88.7998C202.431 88.4098 201.761 87.8597 201.221 87.1297C200.671 86.3997 200.251 85.5097 199.971 84.4597C199.681 83.4097 199.541 82.2298 199.541 80.9098C199.541 79.2998 199.731 77.8397 200.111 76.5297C200.491 75.2197 201.041 74.0898 201.741 73.1598C202.451 72.2298 203.301 71.5097 204.291 70.9997C205.291 70.4897 206.401 70.2397 207.621 70.2397C208.981 70.2397 210.081 70.4197 210.911 70.7697V72.7697C209.891 72.2797 208.811 72.0297 207.671 72.0297C206.791 72.0297 205.991 72.2197 205.281 72.5897C204.571 72.9597 203.961 73.4798 203.451 74.1598C202.941 74.8398 202.551 75.6497 202.281 76.6097C202.011 77.5697 201.871 78.6298 201.871 79.7998H201.931C202.841 78.2598 204.351 77.4897 206.451 77.4897C207.321 77.4897 208.101 77.6297 208.791 77.8997C209.491 78.1797 210.081 78.5597 210.571 79.0697C211.061 79.5697 211.441 80.1698 211.711 80.8698C212.001 81.5698 212.131 82.3398 212.131 83.1898ZM209.811 83.4597C209.811 82.8097 209.721 82.2297 209.551 81.7197C209.371 81.1997 209.121 80.7597 208.801 80.3997C208.471 80.0398 208.071 79.7597 207.591 79.5697C207.111 79.3797 206.571 79.2797 205.961 79.2797C205.401 79.2797 204.881 79.3798 204.401 79.5798C203.921 79.7797 203.511 80.0497 203.161 80.3897C202.811 80.7297 202.541 81.1298 202.341 81.5798C202.141 82.0297 202.041 82.5097 202.041 83.0197C202.041 83.6597 202.141 84.2497 202.331 84.8097C202.521 85.3697 202.791 85.8498 203.151 86.2598C203.501 86.6698 203.921 86.9998 204.401 87.2298C204.881 87.4698 205.421 87.5897 206.011 87.5897C206.581 87.5897 207.101 87.4897 207.571 87.2897C208.041 87.0897 208.441 86.8098 208.771 86.4398C209.101 86.0698 209.361 85.6497 209.541 85.1397C209.721 84.6297 209.811 84.0797 209.811 83.4597Z" fill="#B5D5EA"/>
<path d="M225.561 78.7C225.561 80.4 225.381 81.9 225.021 83.22C224.661 84.54 224.141 85.66 223.441 86.58C222.751 87.5 221.911 88.19 220.911 88.67C219.921 89.15 218.781 89.39 217.511 89.39C216.201 89.39 215.051 89.17 214.051 88.74V86.71C215.151 87.29 216.321 87.57 217.561 87.57C218.451 87.57 219.251 87.4 219.961 87.05C220.661 86.71 221.261 86.2 221.751 85.55C222.241 84.89 222.611 84.08 222.871 83.12C223.131 82.16 223.261 81.05 223.261 79.8H223.201C222.351 81.39 220.881 82.19 218.781 82.19C217.931 82.19 217.151 82.05 216.441 81.77C215.731 81.49 215.121 81.09 214.601 80.58C214.081 80.07 213.681 79.46 213.401 78.75C213.111 78.04 212.971 77.27 212.971 76.41C212.971 75.5 213.131 74.66 213.451 73.91C213.771 73.15 214.211 72.5 214.781 71.95C215.351 71.4 216.021 70.98 216.801 70.68C217.581 70.38 218.431 70.23 219.351 70.23C220.351 70.23 221.231 70.42 222.001 70.79C222.771 71.16 223.421 71.71 223.941 72.43C224.471 73.15 224.871 74.03 225.141 75.08C225.421 76.15 225.561 77.35 225.561 78.7ZM223.111 76.8C223.111 76.09 223.011 75.44 222.811 74.85C222.611 74.26 222.341 73.76 221.991 73.35C221.641 72.93 221.221 72.61 220.741 72.38C220.261 72.15 219.731 72.04 219.161 72.04C218.621 72.04 218.111 72.14 217.641 72.34C217.171 72.54 216.761 72.83 216.421 73.19C216.071 73.56 215.801 73.99 215.601 74.49C215.401 74.99 215.301 75.54 215.301 76.14C215.301 76.79 215.391 77.38 215.581 77.9C215.771 78.42 216.041 78.85 216.391 79.21C216.741 79.57 217.161 79.84 217.651 80.03C218.141 80.22 218.691 80.31 219.291 80.31C219.821 80.31 220.311 80.22 220.781 80.03C221.251 79.85 221.651 79.6 222.001 79.28C222.341 78.97 222.621 78.6 222.821 78.17C223.011 77.75 223.111 77.29 223.111 76.8Z" fill="#B5D5EA"/>
<path d="M230.57 72.8401C229.02 72.8401 227.77 71.5601 227.77 69.9901C227.77 68.4201 229.03 67.1401 230.57 67.1401C232.12 67.1401 233.37 68.4201 233.37 69.9901C233.37 71.5601 232.11 72.8401 230.57 72.8401ZM230.57 68.3401C229.68 68.3401 228.95 69.0801 228.95 69.9901C228.95 70.9001 229.68 71.6401 230.57 71.6401C231.46 71.6401 232.19 70.9001 232.19 69.9901C232.19 69.0801 231.46 68.3401 230.57 68.3401Z" fill="#B5D5EA"/>
<path d="M239.39 133.76H73.3004C70.8704 133.76 68.9004 131.79 68.9004 129.36V103.58C68.9004 101.15 70.8704 99.1797 73.3004 99.1797H239.39C241.82 99.1797 243.79 101.15 243.79 103.58V129.36C243.79 131.79 241.82 133.76 239.39 133.76Z" fill="#4DA1DB"/>
<path d="M186.531 121.64H125.591C122.761 121.64 120.461 119.34 120.461 116.51V116.42C120.461 113.59 122.761 111.29 125.591 111.29H186.531C189.361 111.29 191.661 113.59 191.661 116.42V116.51C191.661 119.34 189.361 121.64 186.531 121.64Z" fill="#2488D8"/>
<path d="M230.57 110.1C229.02 110.1 227.77 108.82 227.77 107.25C227.77 105.68 229.03 104.4 230.57 104.4C232.12 104.4 233.37 105.68 233.37 107.25C233.37 108.82 232.11 110.1 230.57 110.1ZM230.57 105.59C229.68 105.59 228.95 106.33 228.95 107.24C228.95 108.15 229.68 108.89 230.57 108.89C231.46 108.89 232.19 108.15 232.19 107.24C232.19 106.33 231.46 105.59 230.57 105.59Z" fill="#B5D5EA"/>
<path d="M239.39 171.01H73.3004C70.8704 171.01 68.9004 169.04 68.9004 166.61V140.83C68.9004 138.4 70.8704 136.43 73.3004 136.43H239.39C241.82 136.43 243.79 138.4 243.79 140.83V166.61C243.79 169.04 241.82 171.01 239.39 171.01Z" fill="#4DA1DB"/>
<path d="M186.531 158.89H125.591C122.761 158.89 120.461 156.59 120.461 153.76V153.67C120.461 150.84 122.761 148.54 125.591 148.54H186.531C189.361 148.54 191.661 150.84 191.661 153.67V153.76C191.661 156.6 189.361 158.89 186.531 158.89Z" fill="#2488D8"/>
<path d="M107.34 154.96V152.56H101.13C100.98 151.79 100.69 151.07 100.28 150.43L104.66 145.97L102.99 144.27L98.6199 148.72C97.9899 148.29 97.2798 147.98 96.5198 147.83V141.55H94.1599V147.83C93.3999 147.99 92.6898 148.3 92.0598 148.72L87.6898 144.27L86.0198 145.97L90.3998 150.43C89.9898 151.07 89.6899 151.78 89.5499 152.56H83.3398V154.96H89.5598C89.7198 155.72 90.0198 156.43 90.4298 157.06L86.0198 161.55L87.6898 163.25L92.1098 158.75C92.7198 159.16 93.4099 159.46 94.1599 159.61V165.98H96.5198V159.61C97.2598 159.46 97.9498 159.15 98.5698 158.75L102.99 163.25L104.66 161.55L100.25 157.06C100.66 156.43 100.96 155.73 101.12 154.96H107.34Z" fill="#FFB900"/>
<path d="M230.57 147.35C229.02 147.35 227.77 146.07 227.77 144.5C227.77 142.93 229.03 141.65 230.57 141.65C232.12 141.65 233.37 142.93 233.37 144.5C233.37 146.07 232.11 147.35 230.57 147.35ZM230.57 142.85C229.68 142.85 228.95 143.59 228.95 144.5C228.95 145.41 229.68 146.15 230.57 146.15C231.46 146.15 232.19 145.41 232.19 144.5C232.19 143.59 231.46 142.85 230.57 142.85Z" fill="#B5D5EA"/>
<path d="M106.501 87.7598H89.3608C87.7308 87.7498 86.2108 87.0998 85.0708 85.9198C83.9308 84.7398 83.3008 83.1898 83.3208 81.5298C83.3308 79.8798 83.9708 78.3298 85.1208 77.1698C86.2808 76.0098 87.7708 75.3398 89.4308 75.3798C89.9008 75.3798 90.3808 75.4398 90.8408 75.5498C91.4808 74.1798 92.4708 72.9898 93.7108 72.1298C95.2908 71.0398 97.2008 70.5198 99.1108 70.6798C101.011 70.8398 102.821 71.6698 104.201 73.0198C105.281 74.0798 106.061 75.4098 106.471 76.8698C106.581 76.8598 106.681 76.8598 106.791 76.8598C107.481 76.8598 108.161 77.0098 108.811 77.2798C109.461 77.5598 110.031 77.9598 110.531 78.4698C111.021 78.9798 111.411 79.5698 111.671 80.2298C111.931 80.8898 112.061 81.5898 112.061 82.2998C112.061 83.0098 111.931 83.6998 111.671 84.3698C111.411 85.0298 111.021 85.6298 110.531 86.1398C110.041 86.6498 109.461 87.0498 108.811 87.3298C108.471 87.4698 108.131 87.5798 107.771 87.6498V87.6898L107.391 87.7098C107.191 87.7398 106.981 87.7498 106.771 87.7498L106.501 87.7598ZM106.171 87.6098C106.181 87.6098 106.191 87.6198 106.201 87.6298L106.171 87.6098ZM107.171 85.4298L107.201 85.4498C107.201 85.4498 107.191 85.4398 107.171 85.4298ZM89.4008 77.7898C88.4108 77.7898 87.4908 78.1798 86.7908 78.8798C86.0808 79.5898 85.6908 80.5398 85.6908 81.5498C85.6808 82.5598 86.0608 83.5098 86.7608 84.2298C87.4608 84.9498 88.3908 85.3498 89.3808 85.3498L106.991 85.3398C107.301 85.3198 107.611 85.2398 107.911 85.1098C108.271 84.9598 108.591 84.7298 108.861 84.4498C109.131 84.1698 109.351 83.8398 109.491 83.4698C109.641 83.0998 109.711 82.7098 109.711 82.3198V82.2998C109.711 81.8998 109.641 81.5198 109.491 81.1498C109.341 80.7798 109.131 80.4498 108.861 80.1698C108.591 79.8898 108.271 79.6698 107.911 79.5098C107.551 79.3598 107.171 79.2798 106.781 79.2698C106.441 79.2698 106.191 79.3098 105.911 79.3898L104.561 79.8198L104.381 78.3998C104.211 77.0098 103.571 75.7198 102.581 74.7498C101.591 73.7798 100.291 73.1898 98.9208 73.0698C97.5508 72.9498 96.1808 73.3198 95.0408 74.1098C93.9108 74.8998 93.0608 76.0598 92.6708 77.3998L92.2808 78.7198L91.0508 78.1398C90.5508 77.8998 89.9908 77.7798 89.4308 77.7698C89.4108 77.7898 89.4008 77.7898 89.4008 77.7898Z" fill="white"/>
<path d="M83.0312 77.69C82.8612 77.18 82.7512 76.71 82.7512 76.38C82.7612 75.38 83.1612 74.41 83.8512 73.71C84.5512 73.01 85.4812 72.62 86.4612 72.62C86.4712 72.62 86.4712 72.62 86.4812 72.62C87.0312 72.62 87.5912 72.75 88.1012 72.99L89.3312 73.57L89.7212 72.25C90.1212 70.91 90.9612 69.74 92.0912 68.96C93.2312 68.17 94.6012 67.81 95.9712 67.92C97.1012 68.02 98.1812 68.46 99.0812 69.15C100.221 69.2 101.581 69.46 102.941 70.18C102.511 69.32 101.951 68.54 101.261 67.86C99.8812 66.51 98.0712 65.68 96.1712 65.52C94.2612 65.36 92.3512 65.87 90.7712 66.96C89.5312 67.82 88.5412 69.01 87.9012 70.38C87.4412 70.27 86.9612 70.21 86.4912 70.21C86.4812 70.21 86.4712 70.21 86.4512 70.21C84.8412 70.21 83.3212 70.84 82.1812 72C81.0412 73.14 80.3812 74.74 80.3712 76.36C80.3612 77.41 80.8912 79.27 81.9112 80.75C82.0412 79.7 82.4012 78.64 83.0312 77.69Z" fill="white"/>
<path d="M211.751 120C211.751 120.9 211.611 121.73 211.321 122.49C211.031 123.25 210.641 123.9 210.131 124.45C209.621 125 209.021 125.43 208.321 125.73C207.621 126.04 206.861 126.19 206.041 126.19C205.131 126.19 204.311 126 203.591 125.61C202.871 125.22 202.251 124.67 201.751 123.94C201.251 123.21 200.861 122.32 200.601 121.27C200.341 120.22 200.211 119.04 200.211 117.72C200.211 116.11 200.391 114.65 200.741 113.34C201.091 112.03 201.591 110.9 202.241 109.97C202.891 109.04 203.671 108.32 204.581 107.81C205.491 107.3 206.511 107.05 207.641 107.05C208.891 107.05 209.901 107.23 210.661 107.58V109.58C209.721 109.09 208.731 108.84 207.691 108.84C206.881 108.84 206.151 109.03 205.501 109.4C204.851 109.77 204.291 110.29 203.831 110.97C203.371 111.65 203.011 112.46 202.761 113.42C202.511 114.38 202.391 115.44 202.391 116.61H202.441C203.281 115.07 204.661 114.3 206.591 114.3C207.381 114.3 208.101 114.44 208.741 114.71C209.381 114.99 209.921 115.37 210.381 115.88C210.831 116.38 211.181 116.98 211.431 117.68C211.631 118.37 211.751 119.15 211.751 120ZM209.621 120.27C209.621 119.62 209.541 119.04 209.381 118.53C209.221 118.01 208.991 117.57 208.691 117.21C208.391 116.85 208.021 116.57 207.581 116.38C207.141 116.19 206.641 116.09 206.081 116.09C205.561 116.09 205.091 116.19 204.651 116.39C204.211 116.59 203.831 116.86 203.511 117.2C203.191 117.54 202.941 117.94 202.761 118.39C202.581 118.84 202.491 119.32 202.491 119.83C202.491 120.47 202.581 121.06 202.761 121.62C202.941 122.18 203.191 122.66 203.511 123.07C203.831 123.48 204.211 123.81 204.661 124.04C205.111 124.28 205.601 124.4 206.141 124.4C206.661 124.4 207.141 124.3 207.571 124.1C208.001 123.9 208.371 123.62 208.671 123.25C208.971 122.88 209.211 122.46 209.381 121.95C209.551 121.44 209.621 120.88 209.621 120.27Z" fill="#B5D5EA"/>
<path d="M225.371 108.59C225.091 109.08 224.751 109.69 224.361 110.42C223.971 111.15 223.551 111.97 223.111 112.89C222.671 113.8 222.221 114.78 221.771 115.83C221.311 116.88 220.891 117.96 220.491 119.08C220.091 120.2 219.741 121.33 219.441 122.48C219.141 123.63 218.921 124.76 218.791 125.87H216.561C216.711 124.77 216.951 123.64 217.261 122.49C217.581 121.34 217.941 120.21 218.341 119.11C218.741 118 219.171 116.94 219.621 115.91C220.071 114.89 220.501 113.94 220.931 113.08C221.351 112.22 221.741 111.46 222.091 110.8C222.441 110.14 222.721 109.63 222.931 109.26H213.811V107.35H225.381V108.59H225.371Z" fill="#B5D5EA"/>
<path d="M211.96 145.84C211.66 146.33 211.29 146.94 210.86 147.67C210.43 148.4 209.98 149.22 209.5 150.14C209.02 151.05 208.53 152.03 208.03 153.08C207.53 154.13 207.07 155.21 206.63 156.33C206.2 157.45 205.82 158.58 205.49 159.73C205.16 160.88 204.93 162.01 204.78 163.12H202.35C202.52 162.02 202.77 160.89 203.12 159.74C203.47 158.59 203.86 157.46 204.29 156.36C204.73 155.25 205.19 154.19 205.68 153.16C206.17 152.14 206.64 151.19 207.1 150.33C207.56 149.47 207.98 148.71 208.36 148.05C208.74 147.39 209.05 146.88 209.28 146.51H199.34V144.6H211.95V145.84H211.96Z" fill="#B5D5EA"/>
<path d="M225.07 157.47C225.07 158.37 224.9 159.19 224.57 159.92C224.24 160.65 223.77 161.28 223.15 161.8C222.54 162.33 221.8 162.73 220.93 163.01C220.06 163.29 219.1 163.44 218.04 163.44C216.2 163.44 214.83 163.18 213.93 162.67V160.42C215.28 161.23 216.65 161.63 218.06 161.63C218.78 161.63 219.43 161.53 220 161.33C220.58 161.13 221.07 160.86 221.47 160.5C221.88 160.15 222.19 159.72 222.4 159.22C222.62 158.72 222.73 158.17 222.73 157.58C222.73 156.38 222.3 155.43 221.43 154.75C220.56 154.07 219.31 153.72 217.66 153.72C217.39 153.72 217.11 153.72 216.82 153.73C216.52 153.74 216.23 153.75 215.94 153.76C215.65 153.77 215.36 153.79 215.08 153.81C214.8 153.83 214.54 153.85 214.31 153.87L214.99 144.59H224.15V146.5H216.95L216.55 151.93C216.85 151.91 217.16 151.9 217.49 151.88C217.82 151.87 218.12 151.86 218.37 151.86C219.42 151.86 220.36 151.99 221.19 152.25C222.02 152.51 222.72 152.88 223.3 153.35C223.88 153.83 224.31 154.41 224.61 155.11C224.92 155.83 225.07 156.61 225.07 157.47Z" fill="#B5D5EA"/>
<path d="M105.321 121.41H88.1811C86.5511 121.4 85.0311 120.75 83.8911 119.57C82.7511 118.39 82.1211 116.84 82.1411 115.18C82.1511 113.53 82.7911 111.98 83.9411 110.82C85.1011 109.66 86.5911 109.04 88.2511 109.03C88.7211 109.03 89.2011 109.09 89.6611 109.2C90.3011 107.83 91.2911 106.64 92.5311 105.78C94.1111 104.69 96.0211 104.17 97.9311 104.33C99.8311 104.49 101.641 105.32 103.021 106.67C104.101 107.73 104.881 109.06 105.291 110.52C105.401 110.51 105.501 110.51 105.611 110.51C106.301 110.51 106.981 110.66 107.631 110.93C108.281 111.21 108.851 111.61 109.351 112.12C109.841 112.63 110.231 113.22 110.491 113.88C110.751 114.54 110.881 115.24 110.881 115.95C110.881 116.66 110.751 117.35 110.491 118.02C110.231 118.68 109.841 119.28 109.351 119.79C108.861 120.3 108.281 120.7 107.631 120.98C107.291 121.12 106.951 121.23 106.591 121.3V121.34L106.211 121.36C106.011 121.39 105.801 121.4 105.591 121.4L105.321 121.41ZM104.991 121.26C105.001 121.26 105.011 121.27 105.021 121.28L104.991 121.26ZM105.991 119.08L106.021 119.1C106.021 119.1 106.011 119.09 105.991 119.08ZM88.2211 111.44C87.2311 111.44 86.3111 111.83 85.6111 112.53C84.9011 113.24 84.5111 114.19 84.5111 115.2C84.5011 116.21 84.8811 117.16 85.5811 117.88C86.2811 118.6 87.2111 119 88.2011 119H105.801C106.111 118.98 106.421 118.9 106.721 118.77C107.081 118.62 107.401 118.39 107.671 118.11C107.941 117.83 108.161 117.5 108.301 117.13C108.451 116.76 108.521 116.37 108.521 115.98V115.96C108.521 115.56 108.451 115.18 108.301 114.81C108.151 114.44 107.941 114.11 107.671 113.83C107.401 113.55 107.081 113.33 106.721 113.17C106.361 113.01 105.981 112.94 105.591 112.93C105.251 112.93 105.001 112.97 104.721 113.05L103.371 113.48L103.191 112.06C103.021 110.67 102.381 109.38 101.391 108.41C100.401 107.44 99.1011 106.85 97.7311 106.73C96.3611 106.61 94.9911 106.98 93.8511 107.77C92.7211 108.56 91.8711 109.72 91.4811 111.06L91.0911 112.38L89.8611 111.8C89.3611 111.56 88.8011 111.44 88.2411 111.43C88.2311 111.44 88.2211 111.44 88.2211 111.44Z" fill="#B3DDF4"/>
<path d="M97.692 123.42H95.332V130.43H97.692V123.42Z" fill="#B3DDF4"/>
<path d="M102.411 123.42H100.051V130.43H102.411V123.42Z" fill="#B3DDF4"/>
<path d="M92.9713 123.42H90.6113V130.43H92.9713V123.42Z" fill="#B3DDF4"/>
<path d="M436.62 158.49H279.22C274.88 158.49 271.35 154.97 271.35 150.62V15.7299C271.35 11.3899 274.87 7.85986 279.22 7.85986H436.62C440.96 7.85986 444.49 11.3799 444.49 15.7299V150.62C444.49 154.96 440.97 158.49 436.62 158.49Z" fill="#E6E6E6"/>
<path d="M271.35 127.44V150.55C271.35 154.93 274.84 158.49 279.15 158.49H436.69C441 158.49 444.49 154.94 444.49 150.55V127.44H271.35Z" fill="#939393"/>
<path d="M412.331 127.44H304.311V158.49H412.331V127.44Z" fill="#737373"/>
<path d="M285.719 150.97H283.749C283.259 150.97 282.859 150.57 282.859 150.08V137.63C282.859 137.14 283.259 136.74 283.749 136.74H285.719C286.209 136.74 286.609 137.14 286.609 137.63V150.08C286.609 150.58 286.209 150.97 285.719 150.97Z" fill="white"/>
<path d="M293.969 150.97H291.999C291.509 150.97 291.109 150.57 291.109 150.08V137.63C291.109 137.14 291.509 136.74 291.999 136.74H293.969C294.459 136.74 294.859 137.14 294.859 137.63V150.08C294.849 150.58 294.459 150.97 293.969 150.97Z" fill="white"/>
<path d="M426.37 136.76L422.78 140.49C422.64 140.64 422.45 140.72 422.25 140.72H420.15C419.74 140.72 419.41 141.06 419.41 141.48V145.48C419.41 145.9 419.74 146.24 420.15 146.24H422.71C422.91 146.24 423.11 146.32 423.25 146.47L426.37 149.78C426.83 150.27 427.65 149.94 427.65 149.26V137.3C427.64 136.61 426.84 136.27 426.37 136.76Z" fill="white"/>
<path d="M429.551 139.43V147.11C431.091 146.53 432.191 145.04 432.191 143.27C432.201 141.5 431.091 140.01 429.551 139.43Z" fill="white"/>
<path d="M429.551 135.21V137.03C432.341 137.68 434.441 140.22 434.441 143.26C434.441 146.3 432.351 148.84 429.551 149.49V151.31C433.321 150.64 436.201 147.29 436.201 143.26C436.201 139.24 433.321 135.89 429.551 135.21Z" fill="white"/>
<path d="M444.489 122.99H281.459V128.19H444.489V122.99Z" fill="#505050"/>
<path d="M281.46 123.07H271.35V128.25H281.46V123.07Z" fill="#FFB900"/>
<path d="M359.289 102.87C379.489 102.87 395.869 86.1999 395.869 65.6399C395.869 45.0799 379.489 28.3999 359.289 28.3999C339.089 28.3999 322.709 45.0699 322.709 65.6299C322.709 86.1899 339.079 102.87 359.289 102.87Z" fill="white"/>
<path d="M348.51 79.4097V51.8597C348.51 51.4697 348.61 51.0997 348.8 50.7597C348.99 50.4297 349.26 50.1497 349.59 49.9497C349.92 49.7597 350.29 49.6597 350.67 49.6597C351.05 49.6597 351.42 49.7597 351.75 49.9497L375.43 63.7197C375.76 63.9097 376.03 64.1897 376.22 64.5197C376.41 64.8597 376.51 65.2397 376.51 65.6197C376.51 65.9997 376.41 66.3897 376.22 66.7197C376.03 67.0497 375.76 67.3297 375.43 67.5197L351.75 81.2897C351.42 81.4797 351.05 81.5797 350.67 81.5797C350.29 81.5797 349.92 81.4797 349.59 81.2797C349.26 81.0897 348.99 80.8097 348.8 80.4797C348.61 80.1697 348.51 79.7897 348.51 79.4097Z" fill="#FFB900"/>
<path d="M393.61 147.1H324.62C322.15 147.1 320.15 145.1 320.15 142.63V141.21C320.15 138.74 322.15 136.74 324.62 136.74H393.61C396.08 136.74 398.08 138.74 398.08 141.21V142.63C398.07 145.1 396.07 147.1 393.61 147.1Z" fill="#B2B2B2"/>
<path d="M273.58 218.2H188.07C184.26 218.2 181.17 215.11 181.17 211.3V187.77C181.17 183.96 184.26 180.87 188.07 180.87H273.58C277.39 180.87 280.48 183.96 280.48 187.77V211.3C280.48 215.12 277.39 218.2 273.58 218.2Z" fill="#B2B2B2"/>
<path d="M216.67 180.88H188.01C184.23 180.88 181.17 184 181.17 187.84V211.25C181.17 215.09 184.23 218.21 188.01 218.21H216.67V180.88Z" fill="#939393"/>
<path d="M264.651 203.67H229.881C227.771 203.67 226.061 201.96 226.061 199.85V199.78C226.061 197.67 227.771 195.96 229.881 195.96H264.651C266.761 195.96 268.471 197.67 268.471 199.78V199.85C268.471 201.96 266.761 203.67 264.651 203.67Z" fill="#D2D2D2"/>
<path d="M200.091 189.19L202.501 194.16C202.641 194.45 202.921 194.66 203.231 194.7L208.621 195.5C209.421 195.62 209.741 196.62 209.161 197.19L205.261 201.06C205.031 201.29 204.931 201.62 204.981 201.94L205.901 207.41C206.041 208.22 205.201 208.84 204.491 208.46L199.671 205.88C199.391 205.73 199.051 205.73 198.761 205.88L193.941 208.46C193.221 208.84 192.391 208.22 192.531 207.41L193.451 201.94C193.501 201.62 193.401 201.29 193.171 201.06L189.271 197.19C188.691 196.62 189.011 195.62 189.811 195.5L195.201 194.7C195.521 194.65 195.791 194.45 195.931 194.16L198.341 189.19C198.701 188.45 199.741 188.45 200.091 189.19Z" fill="#FFB900"/>
<path d="M380.43 218.2H294.92C291.11 218.2 288.02 215.11 288.02 211.3V187.77C288.02 183.96 291.11 180.87 294.92 180.87H380.43C384.24 180.87 387.33 183.96 387.33 187.77V211.3C387.33 215.12 384.24 218.2 380.43 218.2Z" fill="#B2B2B2"/>
<path d="M323.52 180.88H294.86C291.08 180.88 288.02 184 288.02 187.84V211.25C288.02 215.09 291.08 218.21 294.86 218.21H323.52V180.88Z" fill="#939393"/>
<path d="M371.5 203.67H336.73C334.62 203.67 332.91 201.96 332.91 199.85V199.78C332.91 197.67 334.62 195.96 336.73 195.96H371.5C373.61 195.96 375.32 197.67 375.32 199.78V199.85C375.32 201.96 373.61 203.67 371.5 203.67Z" fill="#D2D2D2"/>
<path d="M273.58 261.9H188.07C184.26 261.9 181.17 258.81 181.17 255V231.47C181.17 227.66 184.26 224.57 188.07 224.57H273.58C277.39 224.57 280.48 227.66 280.48 231.47V255C280.48 258.81 277.39 261.9 273.58 261.9Z" fill="#B2B2B2"/>
<path d="M216.67 224.57H188.01C184.23 224.57 181.17 227.69 181.17 231.53V254.94C181.17 258.78 184.23 261.9 188.01 261.9H216.67V224.57Z" fill="#939393"/>
<path d="M264.651 247.36H229.881C227.771 247.36 226.061 245.65 226.061 243.54V243.47C226.061 241.36 227.771 239.65 229.881 239.65H264.651C266.761 239.65 268.471 241.36 268.471 243.47V243.54C268.471 245.65 266.761 247.36 264.651 247.36Z" fill="#D2D2D2"/>
<path d="M380.43 261.9H294.92C291.11 261.9 288.02 258.81 288.02 255V231.47C288.02 227.66 291.11 224.57 294.92 224.57H380.43C384.24 224.57 387.33 227.66 387.33 231.47V255C387.33 258.81 384.24 261.9 380.43 261.9Z" fill="#B2B2B2"/>
<path d="M323.52 224.57H294.86C291.08 224.57 288.02 227.69 288.02 231.53V254.94C288.02 258.78 291.08 261.9 294.86 261.9H323.52V224.57Z" fill="#939393"/>
<path d="M371.5 247.36H336.73C334.62 247.36 332.91 245.65 332.91 243.54V243.47C332.91 241.36 334.62 239.65 336.73 239.65H371.5C373.61 239.65 375.32 241.36 375.32 243.47V243.54C375.32 245.65 373.61 247.36 371.5 247.36Z" fill="#D2D2D2"/>
<path d="M316.241 195.71C316.211 192.49 313.641 189.68 310.481 189.7C308.771 189.71 307.241 190.48 306.201 191.7C305.161 190.48 303.631 189.71 301.921 189.7C298.761 189.68 296.191 192.49 296.161 195.71C296.151 196.56 296.131 197.52 297.071 199.96C298.681 204.14 303.811 208.67 305.591 210.15C305.951 210.45 306.461 210.45 306.821 210.15C308.601 208.67 313.731 204.14 315.341 199.96C316.261 197.52 316.241 196.56 316.241 195.71Z" fill="#FFB900"/>
<path d="M209.35 242.36V241.81C209.35 237.29 205.75 233.63 201.31 233.63H197.05C192.61 233.63 189.01 237.29 189.01 241.81V242.36C189.01 246.88 192.61 250.54 197.05 250.54H201.31H201.32L206.13 254.38C206.64 254.79 207.37 254.37 207.31 253.72L206.76 248.36C208.35 246.86 209.35 244.73 209.35 242.36Z" fill="#FFB900"/>
<path d="M316.751 241.65L313.291 238.13V233.45C313.291 233.22 313.111 233.04 312.881 233.04H311.221C311.001 233.04 310.811 233.23 310.811 233.45V235.6L307.041 231.76C306.601 231.31 305.881 231.31 305.441 231.76L295.731 241.64C295.021 242.36 295.521 243.6 296.531 243.6H298.511V251.9C298.511 252.43 298.941 252.87 299.461 252.87H302.751C303.211 252.87 303.571 252.49 303.571 252.03V245.98C303.571 245.63 303.851 245.34 304.201 245.34H308.511C308.861 245.34 309.141 245.63 309.141 245.98V251.76C309.141 252.37 309.631 252.87 310.231 252.87H313.131C313.651 252.87 314.081 252.44 314.081 251.9V243.6H315.941C316.961 243.61 317.461 242.38 316.751 241.65Z" fill="#FFB900"/>
<path d="M444.59 90.9399H411.73C407.23 90.9399 403.58 94.6499 403.58 99.2399V122.99H444.59V90.9399Z" fill="#D8D8D8"/>
<defs>
<radialGradient id="paint0_radial" cx="0" cy="0" r="1" gradientUnits="userSpaceOnUse" gradientTransform="translate(484.29 132.771) rotate(180) scale(7.75787 7.75213)">
<stop stop-color="#9B643D"/>
<stop offset="0.8819" stop-color="#BA8A63" stop-opacity="0.1178"/>
<stop offset="0.9997" stop-color="#BF8F68" stop-opacity="0"/>
</radialGradient>
<radialGradient id="paint1_radial" cx="0" cy="0" r="1" gradientUnits="userSpaceOnUse" gradientTransform="translate(483.91 124.841) rotate(175.605) scale(4.37112 4.69032)">
<stop offset="0.000320513" stop-color="#9B643D"/>
<stop offset="0.8822" stop-color="#BA8A63" stop-opacity="0.1178"/>
<stop offset="1" stop-color="#BF8F68" stop-opacity="0"/>
</radialGradient>
</defs>
</svg>
