<svg xmlns="http://www.w3.org/2000/svg" viewBox="0 0 300 300"><defs><style>.cls-1{fill:#f6f6f6;opacity:0;}.cls-2{fill:#c2c2c2;}.cls-3{fill:#939393;}.cls-4{fill:#b2b2b2;}.cls-5{fill:#b3d6f2;}.cls-6{fill:#69afe5;}.cls-7{fill:#2488d8;}.cls-8{fill:#401467;}.cls-9{fill:#220c3d;}.cls-10{fill:#666;}.cls-11{fill:#3c3c3c;}.cls-12{fill:#8562ad;}.cls-13{fill:#5c2d91;}.cls-14{fill:#a996f0;}.cls-15{fill:#737373;}</style></defs><title>swimlane-swiss-army-knife</title><g id="Layer_2" data-name="Layer 2"><g id="Layer_1-2" data-name="Layer 1"><path class="cls-1" d="M300,300H0V0H300Z"/><g id="Group"><g id="Vector"><path id="path0_fill" data-name="path0 fill" class="cls-2" d="M92.57,157.83C81.72,143.37,27,71.27,16.08,56.93a1.38,1.38,0,0,0-2.46.61c-.74,4.83-1.48,14.3,2.36,21,5.36,9.38,24.56,42.87,24.56,42.87s11.84-1.78,18.53,7.6S81.91,161.13,85,164.76C89.89,170.56,98,165.07,92.57,157.83Z"/></g><g id="Vector-2" data-name="Vector"><path id="path1_fill" data-name="path1 fill" class="cls-3" d="M33.78,194.79V126.4L43,48.58a1.48,1.48,0,0,1,2.59-.8c2.71,3.21,6.94,9.4,6.94,16.86v54.68s-10.72,4.91-10.72,17.42v34.54a3.42,3.42,0,0,0,3.42,3.42h7a3,3,0,0,1,3,3V194.8H33.78Z"/></g><g id="Vector-3" data-name="Vector"><path id="path2_fill" data-name="path2 fill" class="cls-2" d="M43.89,113.62a4.47,4.47,0,1,0-4.47-4.47A4.47,4.47,0,0,0,43.89,113.62Z"/></g></g><path class="cls-4" d="M166.06,56.86l.26-1.88-2.07-2.06-18.73,27L127.81,67.62,142.6,46.3l6-3.61-2.06-2.06a27.54,27.54,0,0,0-28.39,11.2c-6,8.59-7.27,18.59-2.24,27.53C83.47,126.14,30.53,202.7,26.22,208.92l23.12,15.3c48.24-69.53,89.35-129.06,89.35-129.06a28.11,28.11,0,0,0,25-11.73C168.83,76,169.26,65.39,166.06,56.86Z"/><g id="Group-2" data-name="Group"><g id="Vector-4" data-name="Vector"><path id="path3_fill" data-name="path3 fill" class="cls-2" d="M242.7,87.16l17.35-22.91-4.81-6L229,70l0,8.59L122.09,161.91l5.4,6.78,107-83.41Z"/></g><g id="Vector-5" data-name="Vector"><path id="path4_fill" data-name="path4 fill" class="cls-3" d="M260.05,64.25l-2.38-3-132.89,104,2.7,3.39,107-83.41,8.24,1.88Z"/></g></g><g id="Vector-6" data-name="Vector"><path id="path6_fill" data-name="path6 fill" class="cls-3" d="M166.32,55,147.59,82,129.87,69.69l18.73-27A27.58,27.58,0,0,0,120.21,53.9c-6,8.59-7.27,18.58-2.23,27.53C85.53,128.2,32.6,204.77,28.28,211l23.13,15.3c48.24-69.54,89.35-129.06,89.35-129.06a28.1,28.1,0,0,0,25-11.73C171.72,76.91,171.35,63.93,166.32,55Z"/></g><g id="Group-3" data-name="Group"><g id="Group-4" data-name="Group"><g id="Vector-7" data-name="Vector"><path id="path7_fill" data-name="path7 fill" class="cls-5" d="M246.12,200.23s-16.46-22.64-67.91-18.52S66.06,202.29,66.06,202.29Z"/></g></g><g id="Vector-8" data-name="Vector"><path id="path7_fill-2" data-name="path7 fill" class="cls-6" d="M246.12,201.73s-16.46-22.64-67.91-18.52S66.06,203.79,66.06,203.79Z"/></g><g id="Vector-9" data-name="Vector"><path id="path8_fill" data-name="path8 fill" class="cls-7" d="M215.3,189.55c-8.79-2.44-20.41-3.88-35.5-2.68-7.68.62-15.6,1.56-23.45,2.68Z"/></g></g><g id="Group-5" data-name="Group"><g id="Vector-10" data-name="Vector"><path id="path10_fill" data-name="path10 fill" class="cls-8" d="M264.2,254.75H36.43c-17.24,0-31.7-14.11-31.35-31.35.33-16.68,15.45-30.1,32.21-30.1H263.56c17.25,0,31.7,14.11,31.36,31.35A30.73,30.73,0,0,1,264.2,254.75Z"/></g></g><g id="Group-6" data-name="Group"><g id="Vector-11" data-name="Vector"><path id="path11_fill" data-name="path11 fill" class="cls-9" d="M245.34,230H163.78a19.51,19.51,0,0,0-18.87,24.73h4c0-.46-.05-.91-.05-1.38a19.61,19.61,0,0,1,19.61-19.61h81.51a19.29,19.29,0,0,1,9.8,2.68A19.34,19.34,0,0,0,245.34,230Z"/></g></g><g id="Group-7" data-name="Group"><g id="Vector-12" data-name="Vector"><path id="path12_fill" data-name="path12 fill" class="cls-5" d="M251.56,256.25h0c-2.05,0-7.07-1.18-9.34-11.08-.9-3.92-2.59-5.31-3.42-5.31-1.14,0-3.12,2.29-3.94,7.19-.9,5.41-4.55,9.1-9.09,9.19h-.14c-3.86,0-8.9-2.91-10.58-11.14-.93-4.56-2.64-6.07-3.32-6.09h-.23c-.64,0-2.38,1.4-3.48,5.6-1.72,6.61-5.87,10.76-10.57,10.67-4.35-.12-7.66-3.79-8.88-9.82-.82-4.1-2.65-6-4-6h0c-1.36,0-3,1.86-3.51,5.29-1.1,7.35-5.61,10.67-9.6,10.7h-.79c-3.68,0-8.44-2.88-9.76-11-.75-4.59-4.44-7.57-6.57-8.94-3.67-2.36-7.53-3.13-9.3-2.64l-1.57-5.79c3.77-1,9.31.3,14.11,3.38,5.13,3.3,8.41,7.92,9.24,13,.67,4.12,2.47,6,3.85,6H171c1.42,0,3.15-2,3.7-5.78,1.08-7.42,5.56-10.85,9.52-10.95s8.66,2.82,10.33,11.32c.69,3.54,2.07,5.15,3.14,5.18s3.41-1.67,4.61-6.41c1.69-6.67,5.23-10.62,9.49-10.62H212c4.37.12,7.8,4.35,9.18,11.32.87,4.38,2.92,6.35,4.51,6.32,1.43,0,2.66-1.67,3.05-4.09,1.49-9.17,6.05-12.56,9.83-12.68h.2c3.47,0,7.7,2.71,9.4,10.37,1.06,4.78,2.19,6.58,3.72,7.42,3.62,2,7.25-4.19,8.54-7.72.72-2,2-1.9,1.58.44C261.29,249.62,256,256.25,251.56,256.25Z"/></g><g id="Group-8" data-name="Group"><g id="Vector-13" data-name="Vector"><path id="path12_fill-2" data-name="path12 fill" class="cls-5" d="M251.56,256.25h0c-2.05,0-7.07-1.18-9.34-11.08-.9-3.92-2.59-5.31-3.42-5.31-1.14,0-3.12,2.29-3.94,7.19-.9,5.41-4.55,9.1-9.09,9.19h-.14c-3.86,0-8.9-2.91-10.58-11.14-.93-4.56-2.64-6.07-3.32-6.09h-.23c-.64,0-2.38,1.4-3.48,5.6-1.72,6.61-5.87,10.76-10.57,10.67-4.35-.12-7.66-3.79-8.88-9.82-.82-4.1-2.65-6-4-6h0c-1.36,0-3,1.86-3.51,5.29-1.1,7.35-5.61,10.67-9.6,10.7h-.79c-3.68,0-8.44-2.88-9.76-11-.75-4.59-4.44-7.57-6.57-8.94-3.67-2.36-7.53-3.13-9.3-2.64l-1.57-5.79c3.77-1,9.31.3,14.11,3.38,5.13,3.3,8.41,7.92,9.24,13,.67,4.12,2.47,6,3.85,6H171c1.42,0,3.15-2,3.7-5.78,1.08-7.42,5.56-10.85,9.52-10.95s8.66,2.82,10.33,11.32c.69,3.54,2.07,5.15,3.14,5.18s3.41-1.67,4.61-6.41c1.69-6.67,5.23-10.62,9.49-10.62H212c4.37.12,7.8,4.35,9.18,11.32.87,4.38,2.92,6.35,4.51,6.32,1.43,0,2.66-1.67,3.05-4.09,1.49-9.17,6.05-12.56,9.83-12.68h.2c3.47,0,7.7,2.71,9.4,10.37,1.06,4.78,2.19,6.58,3.72,7.42,3.62,2,7.25-4.19,8.54-7.72.72-2,2-1.9,1.58.44C261.29,249.62,256,256.25,251.56,256.25Z"/></g></g><g id="Group-9" data-name="Group"><g id="Vector-14" data-name="Vector"><path id="path13_fill" data-name="path13 fill" class="cls-6" d="M251.18,260h-.86c-2,0-6.76-1.12-8.93-10.59-.86-3.75-2.48-5.08-3.27-5.08-1.1,0-3,2.19-3.78,6.88-.86,5.17-4.35,8.7-8.68,8.78h-.14c-3.7,0-8.51-2.78-10.12-10.66-.89-4.36-2.52-5.81-3.17-5.82h-1.11c-.64,0-2.37,1.39-3.47,5.6-1.72,6.61-5.87,10.76-10.58,10.67-4.34-.13-7.66-3.8-8.87-9.82-.83-4.1-2.66-6-4-6h0c-1.35,0-3,1.86-3.5,5.29C179.54,256.65,175,260,171,260h-.79c-3.69,0-8.44-2.88-9.77-11-.75-4.58-4.44-7.57-6.57-8.94-3.67-2.36-7.52-3.12-9.29-2.64L143,231.61c3.77-1,9.24.42,14.11,3.38,4.06,2.46,5.78,6.95,6.61,12,.67,4.12,3.52,7,6.48,7h.42c3.18,0,5.94-3.55,6.55-6.91,1-5.48,3.62-8.68,6.87-8.68,3.92,0,5.58,2.61,7.25,10.17a6.25,6.25,0,0,0,6,5.22c1.15,0,5.64-1.13,6.84-5.33,1.69-5.93,3.12-10.29,6.87-10.29s5.52,2.95,6.87,9.14c1.13,5.15,4.62,7,7.39,7,2.48,0,5.83-2.57,6.23-4.72,1.48-8.15,3.09-10.19,6.87-10.29s5.16,2.79,6.87,9.6c1.06,4.24,4.24,5.8,6.37,6,4.08.28,7.78-3.73,9.06-6.87.72-1.75,1.14-3.57.75-1.5C260.74,251.84,255.63,260,251.18,260Z"/></g></g></g><g id="Vector-15" data-name="Vector"><path id="path14_fill" data-name="path14 fill" class="cls-10" d="M73.24,214.56l-5.74-6.95a5.71,5.71,0,0,1,.77-8l62.17-51.36a5.72,5.72,0,0,1,8,.77l5.74,7a5.7,5.7,0,0,1-.77,8L81.28,215.32A5.71,5.71,0,0,1,73.24,214.56Z"/></g><g id="Vector-16" data-name="Vector"><path id="path15_fill" data-name="path15 fill" class="cls-11" d="M146.06,159l-4.43-5.41a5.7,5.7,0,0,0-8-.8L71.2,203.83a5.68,5.68,0,0,0-1.7,6.41l4.43,5.42a5.7,5.7,0,0,0,8,.8l62.4-51.09A5.69,5.69,0,0,0,146.06,159Z"/></g><g id="Group-10" data-name="Group"><g id="Vector-17" data-name="Vector"><path id="path16_fill" data-name="path16 fill" class="cls-12" d="M264.2,193.3H36.43c-17.24,0-31.7,14.11-31.35,31.35a30.72,30.72,0,0,0,30.72,30.1h109A19.51,19.51,0,0,1,163.71,230h81.64a19.51,19.51,0,0,1,18.87,24.73h-.59c16.34,0,30.26-12.52,31.24-28.83A30.73,30.73,0,0,0,264.2,193.3Z"/></g><g id="Vector-18" data-name="Vector"><path id="path17_fill" data-name="path17 fill" class="cls-13" d="M5,224.77a30.74,30.74,0,0,0,30.73,30H144.84A19.51,19.51,0,0,1,163.71,230h81.65a19.57,19.57,0,0,1,19.57,19.58,19.94,19.94,0,0,1-.7,5.15h0a30.74,30.74,0,0,0,30.73-30Z"/></g><g id="Vector-19" data-name="Vector"><path id="path18_fill" data-name="path18 fill" class="cls-4" d="M37.85,235.58a11.32,11.32,0,1,0-11.32-11.31A11.31,11.31,0,0,0,37.85,235.58Z"/></g><g id="Vector-20" data-name="Vector"><path id="path19_fill" data-name="path19 fill" class="cls-14" d="M262.79,196.29H37.46A28.36,28.36,0,0,0,10.09,233h.12a29.1,29.1,0,0,1-.47-5.15,28.52,28.52,0,0,1,12.19-23.4,25.2,25.2,0,0,1,15.33-5.18H262.79c6.18,0,13,.75,13,.75S269.36,196.29,262.79,196.29Z"/></g><g id="Vector-21" data-name="Vector"><path id="path20_fill" data-name="path20 fill" class="cls-15" d="M26.54,224.77a11.31,11.31,0,0,0,22.61,0Z"/></g></g></g></g></svg>