<svg width="636" height="300" viewBox="0 0 636 300" fill="none" xmlns="http://www.w3.org/2000/svg">
<path d="M284.884 151.667L328.384 122.167L373.551 152.167L329.884 181L284.884 151.667Z" fill="#F57800"/>
<path d="M328.718 122.388L328.385 122.167L284.885 151.667L328.718 180.24V122.388Z" fill="#EC6401"/>
<path d="M342.551 172.406V147.167L337.135 143.49V176.032L342.551 172.406Z" fill="#FFB900"/>
<path d="M355.342 149.903L349.925 153.58V179.833L355.342 176.156V149.903Z" fill="#69AFE5"/>
<path d="M324.925 150.903L330.342 154.58V180.833L324.925 177.156V150.903Z" fill="#9080CF"/>
<path d="M346.823 87.1221L338.261 81.3091V39.8091L346.823 45.6221V87.1221Z" fill="#FFB900"/>
<path d="M344.884 132.667L474.051 48.167" stroke="#B2B2B2" stroke-width="1.5" stroke-miterlimit="10"/>
<path d="M361.884 158.333L437.884 109.833L490.801 144L558.551 100.5" stroke="#B2B2B2" stroke-width="1.5" stroke-miterlimit="10"/>
<path d="M348.051 191.5L449.551 258.833L487.051 234.667" stroke="#B2B2B2" stroke-width="1.5" stroke-miterlimit="10"/>
<path d="M317.551 199.25L231.218 257" stroke="#B2B2B2" stroke-width="1.5" stroke-miterlimit="10"/>
<path d="M303.551 183.5L251.051 217.5L168.801 163.25L95.2178 209.667" stroke="#B2B2B2" stroke-width="1.5" stroke-miterlimit="10"/>
<path d="M313.218 132.5L222.551 75L261.551 51.333" stroke="#B2B2B2" stroke-width="1.5" stroke-miterlimit="10"/>
<path d="M288.551 161.5L173.384 85.5L120.051 119.5L75.0508 90" stroke="#B2B2B2" stroke-width="1.5" stroke-miterlimit="10"/>
<path d="M155.551 103L172.932 91.6909L212.266 117.858" stroke="#D2D2D2" stroke-width="2" stroke-miterlimit="10" stroke-dasharray="2.13 2.13"/>
<path d="M269.932 237.024L309.551 210.25" stroke="#D2D2D2" stroke-width="2" stroke-miterlimit="10" stroke-dasharray="2.13 2.13"/>
<path d="M422.884 233L450.766 251.191L466.051 241.5" stroke="#D2D2D2" stroke-width="2" stroke-miterlimit="10" stroke-dasharray="2.13 2.13"/>
<path d="M522.432 117.191L499.932 131.691" stroke="#D2D2D2" stroke-width="2" stroke-miterlimit="10" stroke-dasharray="2.13 2.13"/>
<path d="M328.269 118.46L277.676 151.836L329.989 186.25L380.643 152.432L328.269 118.46ZM329.769 176.71L291.15 151.31L328.5 126.667L367.164 151.745L329.769 176.71Z" fill="#D2D2D2"/>
<path d="M277.676 151.875V183.928L330.083 217.833V186.226L277.676 151.875Z" fill="#B2B2B2"/>
<path d="M380.676 152.323L330.083 186.057V217.576L380.676 184.201V152.323Z" fill="#939393"/>
<path d="M258.849 44.423V70.999L281.849 55.94L281.693 29.416L258.849 44.423Z" fill="#F57800"/>
<path d="M258.849 44.4539V70.8879L236.849 56.3749L236.694 29.6809L258.849 44.4539Z" fill="#FF8C00"/>
<path d="M258.801 44.4999L281.241 29.5879L259.416 15.1909L236.823 29.8449L258.801 44.4999Z" fill="#FFB900"/>
<path d="M220.574 285.996L220.926 293.794L253.384 272.559L252.87 264.586L220.574 285.996Z" fill="#409AE1"/>
<path d="M220.651 286.035L220.926 293.635L189.101 272.61L188.972 264.894L220.651 286.035Z" fill="#69AFE5"/>
<path d="M220.574 286.041L252.861 264.585L221.458 243.869L188.949 264.955L220.574 286.041Z" fill="#7BC0EF"/>
<path d="M220.416 249.979L220.701 280.921L247.009 263.708L246.593 232.625L220.416 249.979Z" fill="#409AE1"/>
<path d="M220.478 250.01L220.701 280.791L194.905 263.75L194.801 232.875L220.478 250.01Z" fill="#69AFE5"/>
<path d="M220.415 250.016L246.585 232.625L221.132 215.833L194.782 232.924L220.415 250.016Z" fill="#7BC0EF"/>
<path d="M438.062 125.68L438.415 133.478L470.872 112.242L470.359 104.269L438.062 125.68Z" fill="#724AAD"/>
<path d="M438.14 125.719L438.415 133.318L406.589 112.294L406.461 104.578L438.14 125.719Z" fill="#9080CF"/>
<path d="M438.062 125.725L470.35 104.269L438.947 83.553L406.438 104.639L438.062 125.725Z" fill="#B4A0FF"/>
<path d="M437.904 89.6631L438.19 120.604L464.498 103.392L464.081 72.3091L437.904 89.6631Z" fill="#724AAD"/>
<path d="M437.967 89.6941L438.19 120.475L412.394 103.434L412.29 72.5591L437.967 89.6941Z" fill="#9080CF"/>
<path d="M437.904 89.6991L464.074 72.3081L438.62 55.5171L412.271 72.6081L437.904 89.6991Z" fill="#B4A0FF"/>
<path d="M495.741 244.33L496.093 252.128L528.551 230.892L528.037 222.919L495.741 244.33Z" fill="#F57800"/>
<path d="M495.818 244.368L496.093 251.968L464.267 230.943L464.139 223.227L495.818 244.368Z" fill="#FF8C00"/>
<path d="M495.74 244.375L528.028 222.919L496.625 202.202L464.116 223.288L495.74 244.375Z" fill="#FFB900"/>
<path d="M495.582 188.313L495.868 239.254L522.176 222.042L521.759 170.958L495.582 188.313Z" fill="#F57800"/>
<path d="M495.645 188.344L495.868 239.125L470.072 222.083L469.968 171.208L495.645 188.344Z" fill="#FF8C00"/>
<path d="M495.582 188.349L521.752 170.958L496.299 154.167L469.949 171.258L495.582 188.349Z" fill="#FFB900"/>
<path d="M82.96 111.731L83.312 119.529L115.771 98.2931L115.256 90.3201L82.96 111.731Z" fill="#409AE1"/>
<path d="M83.0384 111.769L83.3124 119.369L51.4874 98.3439L51.3584 90.6279L83.0384 111.769Z" fill="#69AFE5"/>
<path d="M82.96 111.776L115.247 90.32L83.844 69.603L51.335 90.69L82.96 111.776Z" fill="#7BC0EF"/>
<path d="M82.8018 55.7139L83.0868 106.655L109.396 89.4429L108.979 38.3589L82.8018 55.7139Z" fill="#409AE1"/>
<path d="M82.8635 55.7449L83.0865 106.526L57.2905 89.4839L57.1865 38.6089L82.8635 55.7449Z" fill="#69AFE5"/>
<path d="M82.8009 55.7501L108.972 38.3591L83.5179 21.5681L57.1689 38.6591L82.8009 55.7501Z" fill="#7BC0EF"/>
<path d="M94.1816 203.757V230.332L117.182 215.273L117.027 188.749L94.1816 203.757Z" fill="#724AAD"/>
<path d="M94.1823 203.787V230.221L72.1823 215.708L72.0273 189.015L94.1823 203.787Z" fill="#9080CF"/>
<path d="M94.3013 203.938L117.114 188.813L94.7493 174.524L71.9893 189.063L94.3013 203.938Z" fill="#B4A0FF"/>
<path d="M168.682 153.84V180.416L191.682 165.356L191.527 138.833L168.682 153.84Z" fill="#939393"/>
<path d="M168.682 153.87V180.305L146.682 165.792L146.527 139.098L168.682 153.87Z" fill="#B2B2B2"/>
<path d="M168.634 153.917L191.074 139.005L169.249 124.608L146.656 139.262L168.634 153.917Z" fill="#D2D2D2"/>
<path d="M565.682 86.09V112.666L588.682 97.606L588.527 71.083L565.682 86.09Z" fill="#409AE1"/>
<path d="M565.682 86.1199V112.555L543.682 98.0419L543.527 71.3479L565.682 86.1199Z" fill="#69AFE5"/>
<path d="M565.634 86.1669L588.074 71.2549L566.249 56.8579L543.656 71.5119L565.634 86.1669Z" fill="#7BC0EF"/>
<path d="M478.099 36.507V63.082L501.099 48.023L500.943 21.499L478.099 36.507Z" fill="#939393"/>
<path d="M478.099 36.5369V62.9709L456.099 48.4579L455.944 21.7649L478.099 36.5369Z" fill="#B2B2B2"/>
<path d="M478.051 36.5829L500.491 21.6719L478.666 7.27393L456.073 21.9289L478.051 36.5829Z" fill="#D2D2D2"/>
<path d="M310.989 159.032L302.427 153.219V111.719L310.989 117.532V159.032Z" fill="#69AFE5"/>
<path d="M324.218 120.136L318.801 116.459V90.2061L324.218 93.8831V120.136Z" fill="#D2D2D2"/>
<path d="M350.912 147.754L342.35 141.942V100.442L350.912 106.254V147.754Z" fill="#69AFE5"/>
<path d="M331.884 82.3961L326.468 78.7191V52.4661L331.884 56.1431V82.3961Z" fill="#69AFE5"/>
<path d="M359.718 59.9791L354.301 56.3021V30.0491L359.718 33.7261V59.9791Z" fill="#69AFE5"/>
<path d="M318.412 86.0659L309.85 80.2539V38.7539L318.412 44.5659V86.0659Z" fill="#69AFE5"/>
<path d="M361.718 144.071L356.301 140.394V114.141L361.718 117.818V144.071Z" fill="#FFB900"/>
<path d="M319.999 154.51L314.582 150.833V124.58L319.999 128.257V154.51Z" fill="#FFB900"/>
<path d="M348.884 66.0879L343.468 69.7649V96.0179L348.884 92.3409V66.0879Z" fill="#9080CF"/>
<path d="M362.009 83.406L356.593 87.083V113.336L362.009 109.659V83.406Z" fill="#D2D2D2"/>
<path d="M335.912 86.9819L327.35 92.7939V134.294L335.912 128.482V86.9819Z" fill="#9080CF"/>
<path d="M346.012 6.53491L340.595 10.2119V36.4649L346.012 32.7879V6.53491Z" fill="#9080CF"/>
<path d="M323.04 23.165L317.623 26.842V53.095L323.04 49.418V23.165Z" fill="#FFB900"/>
<path d="M307.425 67.9861L302.008 71.6631V97.9161L307.425 94.2391V67.9861Z" fill="#9080CF"/>
<path d="M330.706 31.345L325.29 27.668V1.41504L330.706 5.09204V31.345Z" fill="#D2D2D2"/>
<path d="M406.432 86.1909L383.932 100.691" stroke="#D2D2D2" stroke-width="2" stroke-miterlimit="10" stroke-dasharray="2.13 2.13"/>
</svg>
