<svg xmlns="http://www.w3.org/2000/svg" viewBox="0 0 636 300"><title>swimlane-build-scalable-web-apps</title><rect x="239.238" y="25.57" width="317.704" height="208.423" rx="4.7" fill="#505050"/><path d="M556.942,219.863V30.27a4.7,4.7,0,0,0-4.7-4.7H417.955Z" fill="#5b5b5b"/><path d="M262.411,295.194H94.866A2.992,2.992,0,0,1,92,292.223a2.926,2.926,0,0,1,2.863-2.97H262.411a2.867,2.867,0,0,1,2.863,2.97A2.928,2.928,0,0,1,262.411,295.194Z" fill="#c8c8c8"/><path d="M557.682,285H245.137a3.008,3.008,0,0,1-2.863-3,2.941,2.941,0,0,1,2.863-3H557.682a2.882,2.882,0,0,1,2.863,3A2.944,2.944,0,0,1,557.682,285Z" fill="#c8c8c8"/><path d="M239,165v84.3a4.7,4.7,0,0,0,4.7,4.7H552.3a4.7,4.7,0,0,0,4.7-4.7V165Z" fill="#444"/><polygon points="556.942 219.863 556.942 165.069 517.745 165.069 556.942 219.863" fill="#505050"/><path d="M556.942,54.105V30.27a4.7,4.7,0,0,0-4.7-4.7h-308.3a4.7,4.7,0,0,0-4.7,4.7V54.105Z" fill="#4393d4"/><path d="M556.039,27.52a4.685,4.685,0,0,0-3.8-1.95H417.955l20.413,28.535H556.942V30.27a4.654,4.654,0,0,0-.605-2.263A5.031,5.031,0,0,0,556.039,27.52Z" fill="#4da1db"/><rect x="255" y="33" width="114" height="14" fill="#106ebe"/><rect x="276.391" y="67.744" width="121.174" height="7.868" fill="#737373"/><rect x="276.391" y="83.481" width="88.913" height="7.868" fill="#737373"/><rect x="529.536" y="135.332" width="8.239" height="113.978" fill="#939393"/><rect x="440" y="135" width="93" height="114" fill="#d2d2d2"/><path d="M332.419,185.66l7.623-1.988s8.72-10.582,8.692-10.444,2.512,1.483,1.724,3.011-5.614,9.2-6.472,10.1c-1.649,1.741-9.782,3.868-9.782,3.868Z" fill="#9d6952"/><path d="M336.439,172.809s3.3,3.336,3.567,3.57-.055.705-.5.866-1.866.515-1.866.515Z" fill="#9d6952"/><path d="M327.24,244.469l.067,1.373s3.336,1.177,4.2.852.867-1.594.867-1.594Z" fill="#939393"/><path d="M304.35,234.431l-1.138.851s.757,3.6,1.492,4.174,1.821-.159,1.821-.159Z" fill="#939393"/><polygon points="330.395 184.666 335.223 185.368 335.821 180.387 330.832 179.735 330.395 184.666" fill="#9d6952"/><path d="M335.6,182.4l-4.732-3.015a7.887,7.887,0,0,0,1.447,2.707,11.24,11.24,0,0,0,3.061,1.961Z" fill="#805443"/><path d="M336.915,168.689s1.177,4.261,1.687,6.6a42.291,42.291,0,0,1,.946,5.524c.087,1.07-.469,1.465-2.127,1.566s-7.168-.207-8.607-2.991c-1.353-2.618-2.2-8.416,1.133-10.375a8.217,8.217,0,0,1,6.968-.32" fill="#9d6952"/><path d="M337.058,167.691c1.027,2.307.828,3.389-1.2,3.7-2.582.4-2.4,4.662-2.4,4.662l-1.728.189a16.394,16.394,0,0,1,.361,3.086,3.128,3.128,0,0,1-1.259,2.143,8.107,8.107,0,0,1-3.719-6.192c-.157-3.645.118-6.395,3.937-7.3a13.276,13.276,0,0,1,6.011-.3" fill="#939393"/><path d="M331.711,173.82c-.033,0-.066,0-.1.009a2.16,2.16,0,0,0-1.809,2.437,2.122,2.122,0,0,0,2.52,1.653c.034-.006.063-.02.1-.028Z" fill="#9d6952"/><rect x="254" y="33" width="102" height="14" fill="#b5d5ea"/><rect x="517" y="33" width="24" height="3" fill="#7abdea"/><rect x="517" y="39" width="24" height="3" fill="#7abdea"/><rect x="517" y="44" width="24" height="3" fill="#7abdea"/><polygon points="467.908 177.312 482.099 249.363 465.06 249.573 467.908 177.312" fill="#b2b2b2"/><rect x="459.307" y="173.31" width="10.705" height="76.263" fill="#409ae1"/><rect x="389" y="173" width="76" height="76" fill="#69afe5"/><path d="M239.28,249.363a4.685,4.685,0,0,0,4.658,4.28h308.3a4.685,4.685,0,0,0,4.658-4.28Z" fill="#737373"/><rect x="245.523" y="231.702" width="1.656" height="43.777" transform="translate(-106.641 233.738) rotate(-42.611)" fill="none"/><polygon points="414.823 173.31 388.797 173.31 388.797 193.827 414.823 173.31" fill="#409ae1"/><rect x="338.4" y="119.7" width="63.097" height="63.097" transform="translate(768.625 179.454) rotate(161.81)" fill="#c78e00"/><rect x="342.874" y="118.118" width="63.778" height="63.097" transform="translate(777.52 174.867) rotate(161.81)" fill="#ffb900"/><path d="M326.848,245.278a20.407,20.407,0,0,0,3.095.881,2.2,2.2,0,0,0,2.094-1.2l1.192.078a8.763,8.763,0,0,0,3.715,3c.972.453,2.076.9,2.1,1.484a3.624,3.624,0,0,1-.22,1.213s-10.549-1.011-11.145-1.05-.843-.235-.865-.815S326.848,245.278,326.848,245.278Z" fill="#939393"/><path d="M331.187,208.324s9.118,15.588,9.508,16.371c1.193,2.4,1.952,3.4.567,6.675s-7.682,13.979-7.682,13.979l-7.179-.126s5.439-10.677,7.448-15.117c.8-1.759.612-3.144-.458-4.277s-9.319-11.586-9.319-11.586l5.793-6.8Z" fill="#737373"/><path d="M303.327,234.983a21.723,21.723,0,0,0,.882,3.221,2.114,2.114,0,0,0,2.132,1.143l.563,1.09a9.687,9.687,0,0,0-.6,4.985c.126,1.113.324,2.341-.16,2.695a3.651,3.651,0,0,1-1.152.507S300.284,238.8,300,238.251s-.244-.874.24-1.228S303.327,234.983,303.327,234.983Z" fill="#939393"/><path d="M329.578,209.129s-1.758,15.66-4.864,21.886c-1.071,2.146-17.866,9.464-17.866,9.464l-3.149-5.767,15.139-8.571s-1.631-16.038,2.618-19.608C325.117,203.457,329.578,209.129,329.578,209.129Z" fill="#737373"/><path d="M337.46,187.735a5.444,5.444,0,0,0-1.795-2.973,13.085,13.085,0,0,1-4-.211,1.866,1.866,0,0,1-1.267-1.282s-4.089.569-4.579,3.963c-2.461,14.406-9.178,21.314-9.178,21.314a21.623,21.623,0,0,0,10.519,3.81,30.236,30.236,0,0,0,6.771-.683s.058-9.878.863-12.463S338.164,190.012,337.46,187.735Z" fill="#409ae1"/><path d="M351.338,191.739s.008-.072.023-.193a14.492,14.492,0,0,1,.471-2.582,13.314,13.314,0,0,1,1.727-1.708,6.023,6.023,0,0,0,.841-.861s.6.3.474.66a20.754,20.754,0,0,1-1.086,1.875s2.108-.331,2.392-.434a7.644,7.644,0,0,0,1.473-1.694c.227-.372,1-.009,1-.009l-.078.671s.674-.369.7-.011a2.444,2.444,0,0,1-.4,1.014s.671.227.5.57a12.042,12.042,0,0,1-1.881,2.453,40,40,0,0,1-5.336,3.375Z" fill="#9d6952"/><path d="M352.2,190.32c-1.24,1.093-5.9,5.193-6.629,5.791a.75.75,0,0,1-1.1,0c-.228-.236-3.266-3.168-3.266-3.168l-3.746,3.174a50.143,50.143,0,0,0,3.781,3.894c1.924,1.735,3.578,2.263,5.388.691.976-.848,7.351-7.22,8.042-7.912C355.215,192.446,352.409,189.588,352.2,190.32Z" fill="#9d6952"/><path d="M342.166,193.4s-3.809-4.634-5.706-6.833c-1.919-2.225-6.237,1.283-4.174,3.908,2.169,2.76,5.789,6.685,5.789,6.685Z" fill="#69afe5"/><rect x="146.883" y="255.887" width="40.101" height="1.517" transform="translate(-135.38 208.275) rotate(-47.868)" fill="none"/><rect x="242.214" y="236.289" width="1.517" height="40.101" transform="translate(-109.394 232.177) rotate(-42.611)" fill="none"/><polygon points="159.656 268.632 159.615 258.381 167.038 258.351 167.079 268.602 262.816 268.218 262.837 273.622 103.322 274.262 103.301 268.858 159.656 268.632" fill="#939393"/><path d="M99.984,260.5a4.207,4.207,0,0,0-3.493,4.164l.066,16.451,63.148-.253-.2-50.083-25.744.1c-3.95.016-7.7,1.918-8.937,6.115l-5.841,20.225-19,3.278m24.834-3.842,3.934-17.363c.645-3.095,3.144-3.914,5.662-3.924l15.459-.062.085,21.249Z" fill="#b2b2b2"/><rect x="93.985" y="275.978" width="10.03" height="8.044" transform="translate(-1.233 0.439) rotate(-0.252)" fill="#505050"/><path d="M130.6,280.982a11.114,11.114,0,1,1-11.158-11.068A11.114,11.114,0,0,1,130.6,280.982" fill="#505050"/><path d="M124.915,281.005a5.433,5.433,0,1,1-5.454-5.411,5.431,5.431,0,0,1,5.454,5.411" fill="#939393"/><path d="M125.848,261.854h0a2.769,2.769,0,0,1-2.78-2.758l-.051-12.717a2.767,2.767,0,0,1,2.757-2.78l.026,6.467Z" fill="#505050"/><path d="M99.9,266.01h0a1.988,1.988,0,0,0-1.981,2l.006,1.585a1.991,1.991,0,0,0,3.981-.016l-.006-1.585a1.99,1.99,0,0,0-2-1.981" fill="#ff8c00"/><rect x="256.593" y="268.23" width="6.409" height="5.404" transform="translate(-1.085 1.045) rotate(-0.23)" fill="#ec6401"/><rect x="142.164" y="258.437" width="7.411" height="2.459" transform="translate(-1.041 0.587) rotate(-0.23)" fill="#d2d2d2"/><path d="M137.833,276.919l21.069-.085a1.944,1.944,0,0,1,.771.17l-.017-4.207,73.409-.3a11.073,11.073,0,0,1,15.254-.061l8.54-.034.033,8.069-5.054.02a11.114,11.114,0,0,1-22.228.089l-69.186.278.018,4.524a1.506,1.506,0,0,1-1.5,1.512l-21.069.085a1.507,1.507,0,0,1-1.512-1.5l-.028-7.053a1.5,1.5,0,0,1,1.5-1.512" fill="#505050"/><path d="M246.156,280.518a5.433,5.433,0,1,1-5.454-5.41,5.432,5.432,0,0,1,5.454,5.41" fill="#939393"/><rect x="170.35" y="226.995" width="38.249" height="38.249" fill="#ec6401"/><rect x="214.063" y="226.995" width="38.249" height="38.249" fill="#409ae1"/><rect x="167" y="227" width="38" height="38" fill="#ff8c00"/><rect x="211" y="227" width="38" height="38" fill="#69afe5"/><rect x="170.35" y="265.244" width="3.279" height="3.279" fill="#d8b094"/><rect x="202.042" y="265.244" width="3.279" height="3.279" fill="#d8b094"/><rect x="214.063" y="265.244" width="3.279" height="3.279" fill="#d8b094"/><rect x="246.848" y="265.244" width="3.279" height="3.279" fill="#d8b094"/><rect x="170.35" y="185.467" width="38.249" height="38.249" fill="#939393"/><rect x="167" y="186" width="38" height="38" fill="#d2d2d2"/><rect x="170.35" y="223.716" width="3.279" height="3.279" fill="#d8b094"/><rect x="202.042" y="223.716" width="3.279" height="3.279" fill="#d8b094"/></svg>