<svg width="636" height="300" viewBox="0 0 636 300" fill="none" xmlns="http://www.w3.org/2000/svg">
<path d="M356.32 288.42H383.269C384.779 288.42 386.199 289.41 386.489 290.88C386.859 292.77 385.22 294.42 383.16 294.42H356.56C355.05 294.42 353.63 293.43 353.34 291.96C352.97 290.07 354.61 288.42 356.67 288.42" fill="#C8C8C8"/>
<path d="M219.06 279.59H400C401.51 279.59 402.93 280.58 403.22 282.05C403.59 283.94 401.95 285.59 399.89 285.59H219.29C217.78 285.59 216.36 284.6 216.07 283.13C215.7 281.24 217.34 279.59 219.4 279.59" fill="#C8C8C8"/>
<path d="M78.4395 174.83C78.4395 100.09 181.709 39.5 309.109 39.5C436.509 39.5 539.779 100.09 539.779 174.83" stroke="#939393" stroke-width="1.5" stroke-miterlimit="10" stroke-linecap="round" stroke-linejoin="round" stroke-dasharray="3 3"/>
<path d="M269.889 5.91016L240.379 25.2502V58.8502L270.309 77.4902L300.379 58.7102V25.5302L269.889 5.91016Z" fill="#ED8422"/>
<path d="M270.429 42.0404L240.379 25.1304V58.8004L270.379 77.4804L270.429 42.0404Z" fill="#FDA84C"/>
<path d="M240.379 25.4904L270.109 44.0004L299.769 25.4804L269.699 6.13037L240.379 25.3504V25.4904Z" fill="#FCC74F"/>
<path d="M409.219 13.5103H336.329C334.089 13.5103 332.279 15.3303 332.279 17.5603V70.4502C332.279 72.6903 334.099 74.5003 336.329 74.5003H409.219C411.459 74.5003 413.269 72.6802 413.269 70.4502V17.5603C413.269 15.3203 411.459 13.5103 409.219 13.5103Z" fill="#EDAC28"/>
<path d="M408.939 74.7303C409.509 74.7303 410.069 74.6203 410.599 74.4003C411.119 74.1803 411.599 73.8703 412.009 73.4703C412.409 73.0703 412.729 72.5903 412.949 72.0703C413.169 71.5503 413.279 70.9803 413.279 70.4202V29.5103H332.279V70.3903C332.279 70.9603 332.389 71.5303 332.609 72.0602C332.829 72.5902 333.149 73.0703 333.559 73.4703C333.959 73.8703 334.439 74.1903 334.969 74.4103C335.499 74.6303 336.059 74.7402 336.639 74.7402" fill="#8867C8"/>
<path d="M354.27 29.5103H350.27V74.5103H354.27V29.5103Z" fill="#5C2D91"/>
<path d="M404.27 18.5103H397.27V23.5103H404.27V18.5103Z" fill="white"/>
<path d="M389.27 18.5103H382.27V23.5103H389.27V18.5103Z" fill="white"/>
<path d="M374.649 59.1103L362.069 53.2203L362.059 51.7303L374.519 45.0703L374.549 47.7303L365.439 52.3703V52.4303L374.639 56.4603L374.649 59.1103Z" fill="#D2D2D2"/>
<path d="M388.61 40.2305L379.13 63.7805L376.17 63.8105L385.61 40.2605L388.61 40.2305Z" fill="#D2D2D2"/>
<path d="M403.02 52.7103L390.56 58.8603L390.53 56.2103L399.66 52.0403V51.9503L390.44 47.5003L390.41 44.8403L403 51.2403L403.02 52.7103Z" fill="#D2D2D2"/>
<path d="M120.529 42.0199V91.4199C120.509 91.5799 120.529 91.7399 120.589 91.8999C120.639 92.0499 120.729 92.1899 120.839 92.3099C120.949 92.4299 121.089 92.5199 121.239 92.5799C121.389 92.6399 121.549 92.6699 121.709 92.6599H157.459C157.639 92.0599 158.119 91.9599 158.469 92.3999C158.819 92.8399 158.879 94.5099 159.809 94.5099H170.379C171.489 94.5099 171.339 92.5999 171.899 92.3799C172.049 92.3299 172.209 92.3199 172.359 92.3699C172.509 92.4199 172.639 92.5199 172.729 92.6499H209.969C210.119 92.6499 210.269 92.6199 210.409 92.5599C210.549 92.4999 210.669 92.4199 210.779 92.3199C210.889 92.2199 210.969 92.0899 211.029 91.9599C211.089 91.8199 211.119 91.6799 211.119 91.5299V42.0199C211.119 41.8699 211.089 41.7299 211.029 41.5899C210.969 41.4499 210.889 41.3299 210.779 41.2299C210.669 41.1299 210.549 41.0399 210.409 40.9899C210.269 40.9299 210.119 40.8999 209.969 40.8999H121.689C121.539 40.8999 121.389 40.9299 121.249 40.9899C121.109 41.0499 120.989 41.1299 120.879 41.2299C120.769 41.3299 120.689 41.4599 120.629 41.5899C120.559 41.7199 120.529 41.8699 120.529 42.0199Z" fill="#939393"/>
<path d="M206.488 83.4102H125.158V88.9602H206.488V83.4102Z" fill="#505050"/>
<path d="M164.898 89.2601C164.898 89.2601 164.028 83.4101 156.688 83.4101H125.148V35.3501H157.978C164.708 35.3501 164.888 41.2001 164.888 41.2001V89.2601H164.898Z" fill="#A9D4EE"/>
<path d="M157.499 42.7402H133.469V44.5902H157.499V42.7402Z" fill="#60ACE5"/>
<path d="M157.499 48.29H133.469V50.14H157.499V48.29Z" fill="#60ACE5"/>
<path d="M157.499 53.8301H133.469V55.6801H157.499V53.8301Z" fill="#60ACE5"/>
<path d="M157.499 59.3799H133.469V61.2299H157.499V59.3799Z" fill="#60ACE5"/>
<path d="M157.499 64.9199H133.469V66.7699H157.499V64.9199Z" fill="#60ACE5"/>
<path d="M157.499 70.4702H133.469V72.3202H157.499V70.4702Z" fill="#60ACE5"/>
<path d="M157.499 76.02H133.469V77.87H157.499V76.02Z" fill="#60ACE5"/>
<path d="M164.898 89.2601C164.898 89.2601 165.778 83.4101 173.248 83.4101H206.488V35.3501H171.938C165.088 35.3501 164.898 41.2001 164.898 41.2001V89.2601Z" fill="#A9D4EE"/>
<path d="M174.139 44.5902H198.169V42.7402H174.139V44.5902Z" fill="#60ACE5"/>
<path d="M174.139 50.14H198.169V48.29H174.139V50.14Z" fill="#60ACE5"/>
<path d="M174.139 55.6801H198.169V53.8301H174.139V55.6801Z" fill="#60ACE5"/>
<path d="M174.139 61.2299H198.169V59.3799H174.139V61.2299Z" fill="#60ACE5"/>
<path d="M174.139 66.7699H198.169V64.9199H174.139V66.7699Z" fill="#60ACE5"/>
<path d="M174.139 72.3202H198.169V70.4702H174.139V72.3202Z" fill="#60ACE5"/>
<path d="M174.139 77.8598H198.169V76.0098H174.139V77.8598Z" fill="#60ACE5"/>
<path d="M180.609 58.58L176.449 57.44L172.289 58.59V33.5H180.609V58.58Z" fill="#8867C8"/>
<path d="M165.818 41.8198H164.898V89.8798H165.818V41.8198Z" fill="#939393"/>
<path d="M110.27 172.25H62.2695V182.25H110.27V172.25Z" fill="#D2D2D2"/>
<path d="M65.3195 172.25H111.27V110.25H62.4095C61.8395 110.25 61.2995 110.48 60.8995 110.88C60.4995 111.28 60.2695 111.83 60.2695 112.39V175.25H61.0195C61.2695 174.18 62.1495 172.25 65.3195 172.25Z" fill="#9C80E0"/>
<path d="M66.2695 110.25H62.4095C61.8395 110.25 61.2995 110.48 60.8995 110.88C60.4995 111.28 60.2695 111.83 60.2695 112.39V175.25H61.0195C61.2595 174.18 62.1395 172.25 65.3195 172.25H66.2695V110.25Z" fill="#7155B7"/>
<path d="M111.269 181.25H64.2393C63.7193 181.25 63.2193 181.04 62.8493 180.67C62.4793 180.3 62.2693 179.8 62.2693 179.28V174.22C62.2693 173.7 62.4793 173.2 62.8493 172.83C63.2193 172.46 63.7193 172.25 64.2393 172.25H111.269V170.25H64.2393C63.1893 170.25 62.1793 170.67 61.4393 171.41C60.6993 172.15 60.2793 173.16 60.2793 174.22V179.28C60.2793 179.8 60.3793 180.32 60.5793 180.8C60.7793 181.28 61.0693 181.72 61.4393 182.09C61.8093 182.46 62.2493 182.75 62.7293 182.95C63.2093 183.15 63.7293 183.25 64.2493 183.25H111.279V181.25H111.269Z" fill="#8867C8"/>
<path d="M77.2695 186.63L73.2695 184.63L69.2695 186.63V175.25H77.2695V186.63Z" fill="#ED8422"/>
<path d="M105.27 118.25H72.2695V134.25H105.27V118.25Z" fill="#A9D4EE"/>
<path d="M479.988 48.8301H448.748C446.308 48.8301 444.328 50.8101 444.328 53.2501V116.35C444.328 118.79 446.308 120.77 448.748 120.77H496.778C499.218 120.77 501.188 118.8 501.198 116.36L501.338 70.2201C501.338 69.3901 501.018 68.6001 500.428 68.0101L482.188 49.7301C481.598 49.1601 480.808 48.8301 479.988 48.8301Z" fill="#D2D2D2"/>
<path d="M500.418 68.02L482.178 49.74C481.798 49.36 481.328 49.1 480.818 48.96V67.96C480.818 68.8 481.498 69.47 482.328 69.47H501.218C501.098 68.93 500.828 68.43 500.418 68.02Z" fill="#B2B2B2"/>
<path d="M480.509 80.98H438.219C435.449 80.98 433.209 83.22 433.209 85.99V103.84C433.209 106.61 435.449 108.85 438.219 108.85H480.509C483.279 108.85 485.519 106.61 485.519 103.84V85.99C485.519 83.22 483.269 80.98 480.509 80.98Z" fill="#B2B2B2"/>
<path d="M554.588 111.49H523.348C520.908 111.49 518.928 113.47 518.928 115.91V179.01C518.928 181.45 520.908 183.43 523.348 183.43H571.378C573.818 183.43 575.788 181.46 575.798 179.02L575.938 132.88C575.938 132.05 575.618 131.26 575.028 130.67L556.788 112.39C556.208 111.82 555.418 111.49 554.588 111.49Z" fill="#A9D4EE"/>
<path d="M575.028 130.68L556.788 112.4C556.408 112.02 555.938 111.76 555.428 111.62V130.62C555.428 131.46 556.108 132.13 556.938 132.13H575.828C575.698 131.59 575.428 131.08 575.028 130.68Z" fill="#349EDC"/>
<path d="M555.109 143.63H512.819C510.049 143.63 507.809 145.87 507.809 148.64V166.49C507.809 169.26 510.049 171.5 512.819 171.5H555.109C557.879 171.5 560.119 169.26 560.119 166.49V148.64C560.119 145.88 557.879 143.63 555.109 143.63Z" fill="#349EDC"/>
<path d="M333.2 137.15C333.26 134.28 333.68 131.28 331.89 128.75L330.36 128.56C329.72 128.54 329.13 128.9 328.86 129.48L324.3 139.05C323.41 140.93 321.16 141.73 319.28 140.84L312.23 137.5C310.35 136.61 309.55 134.36 310.44 132.48L316.99 122.64C317.3 122.17 316.97 121.55 316.4 121.55H315.63C307.68 122.21 301.44 128.86 301.44 136.98C301.44 138.95 301.81 140.83 302.48 142.56C304.47 148.92 305.66 153.15 304.38 159.77L292.48 210.21L303.99 212.93L315.43 164.46C315.45 164.38 315.48 164.31 315.49 164.23C317.45 155.84 324.09 150.98 326.53 149.15C326.59 149.11 326.63 149.06 326.68 149.01C330.15 146.15 333.1 142 333.2 137.15Z" fill="#939393"/>
<path d="M334.471 136.96C334.471 134.07 333.681 131.37 332.301 129.06C332.021 128.59 331.321 128.63 331.081 129.12L326.371 139.05C325.481 140.93 323.231 141.73 321.351 140.84L314.301 137.5C312.421 136.61 311.621 134.36 312.511 132.48L317.131 122.75C317.381 122.22 316.931 121.62 316.351 121.72C309.051 122.97 303.501 129.32 303.501 136.98C303.501 138.95 303.871 140.83 304.541 142.56C306.531 148.92 307.721 153.15 306.441 159.77L294.541 210.21L306.051 212.93L317.491 164.46C317.511 164.38 317.541 164.31 317.551 164.23C319.511 155.84 326.151 150.98 328.591 149.15C328.651 149.11 328.691 149.06 328.741 149.01C332.231 146.15 334.471 141.82 334.471 136.96Z" fill="#B2B2B2"/>
<path d="M371.959 199.92L371.809 166.14C371.809 164.17 367.719 162.57 365.739 162.57H357.459C356.989 162.57 356.529 162.66 356.089 162.84C355.659 163.02 355.259 163.28 354.929 163.62C354.599 163.95 354.329 164.35 354.149 164.78C353.969 165.21 353.879 165.68 353.879 166.15V199.96L335.109 220.19V277.27H387.979L390.309 220.13L371.959 199.92Z" fill="#106EBE"/>
<path d="M296.16 133.74C296.99 134.15 297.85 133.27 297.42 132.46C291.52 121.41 276.39 120.53 269.08 121.55C261.22 122.65 253.22 125.8 253.06 126.44C252.74 128.51 251.46 129.14 250.82 129.3C249.57 129.43 248.52 129.16 247.17 128.67C245.18 127.95 243.44 127.47 241.62 127.56L237.73 128.52C237.16 128.67 242.01 144.33 242.01 144.33C242.01 144.33 244.7 143.8 245.55 143.53C246.4 143.26 248.37 142 249.62 140.43C250.42 139.46 251.45 138.71 252.61 138.23C253.17 138.05 254.19 137.79 254.49 138.69C254.62 139.09 254.8 139.7 254.8 139.7C254.97 140.29 255.35 140.79 255.87 141.11C256.39 141.43 257.01 141.54 257.61 141.43L260.18 140.76C260.74 140.61 261.31 140.96 261.44 141.52L271.2 183.59L279.16 181.56L269.33 139.24C269.25 138.89 269.47 138.54 269.82 138.46L272.76 137.82C273.33 137.64 273.8 137.25 274.09 136.73C274.38 136.21 274.46 135.6 274.32 135.02C274.15 134.24 274.53 133.65 275.71 133.26C277.15 132.77 286.28 128.82 296.16 133.74Z" fill="#C2C2C2"/>
<path d="M293.27 219.44C293.34 219.74 293.36 220.05 293.31 220.35C293.26 220.65 293.16 220.94 293 221.21C292.84 221.47 292.63 221.7 292.38 221.88C292.13 222.06 291.85 222.19 291.55 222.26L279.06 225.22C278.46 225.36 277.83 225.27 277.3 224.94C276.77 224.62 276.39 224.1 276.25 223.5L261.26 160.14C261.14 159.56 261.25 158.96 261.57 158.46C261.89 157.96 262.4 157.61 262.97 157.49L275.46 154.53C275.76 154.46 276.06 154.44 276.37 154.49C276.67 154.54 276.96 154.64 277.22 154.8C277.48 154.96 277.71 155.17 277.89 155.41C278.07 155.66 278.2 155.94 278.27 156.23L293.27 219.44Z" fill="#939393"/>
<path d="M265.07 157L262.98 157.5C262.4 157.63 261.9 157.98 261.58 158.47C261.26 158.97 261.15 159.57 261.27 160.15L276.1 222.37C276.25 222.97 276.62 223.49 277.15 223.81C277.68 224.13 278.31 224.23 278.91 224.08L281.09 223.45L265.07 157Z" fill="#737373"/>
<path d="M262.989 140.08L260.359 140.69C260.359 140.69 261.239 140.73 261.449 141.49C261.649 142.25 265.079 157.04 265.079 157.04L267.679 156.4L264.129 140.79C264.009 140.28 263.499 139.96 262.989 140.08Z" fill="#939393"/>
<path d="M283.72 273.09C282.97 273.09 282.26 272.79 281.73 272.26C281.2 271.73 280.9 271.02 280.9 270.27V184.18C280.92 183.43 281.23 182.72 281.75 182.19C282.28 181.66 282.99 181.35 283.73 181.33H345.66C346.38 181.39 347.05 181.71 347.54 182.24C348.03 182.77 348.31 183.46 348.32 184.18V270.41C348.3 271.11 348.02 271.78 347.52 272.28C347.02 272.78 346.36 273.07 345.65 273.09H283.72Z" fill="#737373"/>
<path d="M284.96 273.09C284.61 273.09 284.26 273.02 283.94 272.89C283.62 272.76 283.32 272.56 283.07 272.31C282.82 272.06 282.63 271.77 282.49 271.45C282.36 271.13 282.29 270.78 282.29 270.43V184.17C282.27 183.44 282.55 182.73 283.05 182.2C283.55 181.67 284.24 181.35 284.97 181.33H347.05C347.78 181.36 348.47 181.67 348.97 182.2C349.47 182.73 349.74 183.44 349.73 184.17V270.41C349.73 270.76 349.66 271.11 349.52 271.43C349.39 271.75 349.19 272.05 348.94 272.3C348.69 272.55 348.4 272.74 348.07 272.88C347.75 273.01 347.4 273.08 347.05 273.08H284.96V273.09Z" fill="#505050"/>
<path d="M341.379 188.98H289.939V266.14H341.379V188.98Z" fill="#8867C8"/>
<path d="M344.139 227.91L344.299 230.69H346.129L346.589 227.91H344.139Z" fill="#969696"/>
<path d="M337.2 198.02H294.1V252.94H337.2V198.02Z" fill="white"/>
<path d="M329.62 195.24H321.77C321.79 194.45 321.65 193.66 321.36 192.92C321.07 192.18 320.64 191.51 320.08 190.94C319.53 190.37 318.87 189.92 318.14 189.61C317.41 189.3 316.63 189.14 315.83 189.14C315.04 189.14 314.25 189.3 313.52 189.61C312.79 189.92 312.13 190.37 311.58 190.94C311.03 191.51 310.59 192.18 310.3 192.92C310.01 193.66 309.87 194.45 309.89 195.24H301.69C301.51 195.24 301.33 195.28 301.17 195.35C301.01 195.42 300.86 195.52 300.73 195.65C300.61 195.78 300.51 195.93 300.44 196.1C300.38 196.27 300.35 196.45 300.35 196.63V201.55C300.35 201.9 300.49 202.24 300.74 202.49C300.99 202.74 301.33 202.88 301.68 202.88H329.59C329.77 202.88 329.95 202.84 330.11 202.77C330.27 202.7 330.42 202.6 330.55 202.47C330.67 202.34 330.77 202.19 330.84 202.02C330.9 201.85 330.94 201.67 330.93 201.49V196.57C330.93 196.39 330.9 196.22 330.83 196.06C330.76 195.9 330.67 195.75 330.54 195.63C330.42 195.51 330.27 195.41 330.11 195.34C329.96 195.27 329.79 195.24 329.62 195.24ZM312.46 195.24C312.45 194.81 312.52 194.38 312.68 193.97C312.84 193.57 313.07 193.2 313.38 192.89C313.68 192.58 314.04 192.33 314.44 192.16C314.84 191.99 315.27 191.9 315.7 191.9C316.13 191.9 316.56 191.99 316.96 192.16C317.36 192.33 317.72 192.58 318.02 192.89C318.32 193.2 318.56 193.57 318.72 193.97C318.88 194.37 318.95 194.81 318.94 195.24H312.46Z" fill="#F0AE00"/>
<path d="M376.179 201.53C375.249 200.53 374.739 199.22 374.739 197.86V166.14C374.739 165.19 374.359 164.28 373.689 163.61C373.019 162.94 372.109 162.56 371.159 162.56H365.569C366.039 162.56 366.509 162.65 366.939 162.83C367.379 163.01 367.769 163.27 368.109 163.6C368.439 163.93 368.709 164.33 368.889 164.76C369.069 165.19 369.169 165.66 369.169 166.13V198.69C369.169 199.5 369.469 200.27 370.019 200.87L385.809 217.95C386.619 218.83 385.999 220.25 384.799 220.25H284.369L265.029 198.92C264.499 198.34 264.209 197.59 264.209 196.81V176.46H360.239C361.369 176.48 362.469 176.09 363.339 175.36C364.199 174.63 364.769 173.61 364.939 172.49C365.009 171.84 364.939 171.19 364.739 170.58C364.539 169.96 364.209 169.4 363.769 168.92C363.329 168.44 362.799 168.06 362.199 167.8C361.599 167.54 360.959 167.42 360.309 167.43H264.199V166.14C264.199 165.19 263.819 164.28 263.149 163.61C262.479 162.94 261.569 162.56 260.619 162.56H247.049C245.499 162.56 244.059 163.52 243.519 165.12C243.389 165.49 243.349 165.88 243.349 166.27V205.52L231.529 220.21V282.12H385.149C389.759 282.12 393.489 278.39 393.489 273.78V222.41C393.489 220.99 392.949 219.63 391.989 218.59L376.179 201.53Z" fill="#4393D4"/>
<path d="M375.059 282.13L347.609 220.26H336.549L364.639 282.13H375.059Z" fill="#1D77C4"/>
<path d="M377.78 291.89L377.02 289.34L378.7 288.83L379.45 291.47C379.49 291.57 379.5 291.69 379.49 291.8C379.48 291.91 379.45 292.02 379.4 292.12C379.35 292.22 379.28 292.31 379.2 292.38C379.12 292.45 379.02 292.51 378.91 292.54C378.79 292.58 378.67 292.59 378.55 292.58C378.43 292.57 378.31 292.53 378.21 292.47C378.1 292.41 378.01 292.33 377.94 292.23C377.87 292.12 377.81 292.01 377.78 291.89Z" fill="#505050"/>
<path d="M357.68 202.78L351.43 204.58L348.34 205.48L371.14 283.64L374.31 282.76L380.47 280.95L357.68 202.78Z" fill="#FFB900"/>
<path d="M348.469 202.25L349.319 205.16L356.719 203.01L355.789 200.09L348.469 202.25Z" fill="#505050"/>
<path d="M379.78 290.2L380.48 280.93L371.15 283.63L376.8 291.04L379.78 290.2Z" fill="#737373"/>
<path d="M348.34 205.47L371.14 283.63L374.31 282.75L351.43 204.58L348.34 205.47Z" fill="#DB9D00"/>
<path d="M355.219 194.41C355.179 194.23 355.089 194.06 354.979 193.91C354.869 193.76 354.729 193.64 354.569 193.54C354.409 193.45 354.229 193.39 354.049 193.36C353.869 193.34 353.679 193.35 353.499 193.4L349.959 194.47C349.609 194.57 349.079 194.71 348.559 194.86C348.129 194.94 347.599 195.09 347.249 195.19L346.799 195.35C346.459 195.47 346.169 195.71 345.999 196.04C345.829 196.36 345.789 196.74 345.879 197.09L347.489 202.56L350.589 201.58L356.759 199.77L355.219 194.41Z" fill="#DB9D00"/>
<path d="M350.49 201.23L348.73 195.24C348.68 195.15 348.6 195.07 348.5 195.03C348.41 194.98 348.3 194.96 348.19 194.98C347.88 195.08 347.56 195.15 347.23 195.21C346.77 195.37 346.38 195.7 346.14 196.13C345.9 196.56 345.83 197.06 345.95 197.54L347.31 202.13C347.42 202.4 347.65 202.53 347.84 202.4L350.12 201.76C350.23 201.74 350.33 201.67 350.4 201.57C350.49 201.46 350.51 201.34 350.49 201.23Z" fill="#CC8E02"/>
<path d="M376.24 266.23L372.91 255.03L374.15 254.61L377.39 265.88L376.24 266.23Z" fill="#FFB900"/>
<path d="M376.24 266.23L372.91 255.03L373.63 254.75L376.95 266.03L376.24 266.23Z" fill="#FFB900"/>
<path d="M260.979 203.23C259.039 201.14 257.959 198.39 257.959 195.54V166.14C257.959 165.67 257.869 165.21 257.689 164.77C257.509 164.34 257.249 163.94 256.909 163.61C256.579 163.28 256.179 163.01 255.749 162.83C255.319 162.65 254.849 162.56 254.379 162.56H246.239C245.289 162.56 244.379 162.94 243.709 163.61C243.039 164.28 242.659 165.19 242.659 166.14V197.72C242.659 199.17 242.109 200.57 241.119 201.63L226.109 217.81C224.679 219.35 223.879 221.38 223.879 223.48V273.71C223.879 278.36 227.649 282.12 232.289 282.12H268.369C272.979 282.12 276.709 278.39 276.709 273.78V223.48C276.709 221.38 275.919 219.35 274.479 217.81L260.979 203.23ZM249.829 176.53C248.909 176.53 248.009 176.26 247.239 175.75C246.469 175.24 245.879 174.51 245.519 173.66C245.169 172.81 245.079 171.87 245.259 170.97C245.439 170.07 245.879 169.24 246.529 168.59C247.179 167.94 248.009 167.5 248.919 167.32C249.819 167.14 250.759 167.23 251.609 167.59C252.459 167.94 253.189 168.54 253.699 169.31C254.209 170.08 254.479 170.98 254.479 171.9C254.479 173.14 253.989 174.32 253.119 175.19C252.249 176.04 251.059 176.53 249.829 176.53Z" fill="#106EBE"/>
<path d="M304.529 207.05H298.969V212.61H304.529V207.05Z" fill="#D2D2D2"/>
<path d="M304.529 214.7H298.969V220.26H304.529V214.7Z" fill="#D2D2D2"/>
<path d="M330.95 208.44H308.01V210.53H330.95V208.44Z" fill="#D2D2D2"/>
<path d="M330.95 216.09H308.01V218.18H330.95V216.09Z" fill="#D2D2D2"/>
<path d="M242.62 142L239.84 130.23C239.56 129.06 240.29 127.88 241.46 127.61L237.61 128.52C236.44 128.8 235.71 129.97 235.99 131.14L238.77 142.91C239.05 144.08 240.22 144.81 241.39 144.53L245.24 143.62C244.07 143.89 242.9 143.17 242.62 142Z" fill="#939393"/>
<path d="M256.798 124.65C254.568 125.46 253.128 126.17 253.058 126.43C252.738 128.5 251.458 129.13 250.818 129.29C256.378 128.37 256.798 124.66 256.798 124.65Z" fill="#939393"/>
<path d="M250.819 129.291C250.639 129.311 250.469 129.301 250.289 129.311C250.439 129.331 250.609 129.331 250.819 129.291Z" fill="#939393"/>
<path d="M258.29 139.7L257.74 137.84C257.61 137.32 257.04 137.12 256.52 137.24C255.85 137.39 254.97 137.61 253.18 138.08C253.7 137.99 254.28 138.04 254.49 138.69C254.62 139.09 254.8 139.7 254.8 139.7C254.97 140.29 255.35 140.79 255.87 141.11C256.39 141.43 257.01 141.54 257.61 141.43L260.05 140.79C259.28 140.92 258.52 140.46 258.29 139.7Z" fill="#939393"/>
</svg>
