<svg xmlns="http://www.w3.org/2000/svg" xmlns:xlink="http://www.w3.org/1999/xlink" viewBox="0 0 636 300"><defs><clipPath id="a"><polygon points="62.722 235.145 112.914 201.612 322.127 201.612 373.054 235.145 62.722 235.145" fill="#d3d3d3"/></clipPath></defs><title>swimlane-fast-performance-gauge</title><path d="M339.5,242.89H637.132c-11.092-10.2-26.843-16.579-44.318-16.579a69.57,69.57,0,0,0-18.357,2.44A95.758,95.758,0,0,0,521.6,213.286c-14.558,0-38.278,3.094-50.336,8.556a110.43,110.43,0,0,0-51.749-12.6c-26.368,0-50.328,8.905-68.084,23.423A102.231,102.231,0,0,0,339.5,226Z" fill="#e0e0e0"/><path d="M110.333,219.652c-4.283,1.494-8.455,3.133-12.489,4.465a82.121,82.121,0,0,0-26.867-4.459c-23.155,0-43.35,7.125-57.011,20.566h96.367Z" fill="#e0e0e0"/><path d="M490.4,54.287a9.693,9.693,0,0,0-9.636-9.77,9.184,9.184,0,0,0-2.886.414A16.865,16.865,0,0,0,445,42.18a11.888,11.888,0,0,0-4.948-1.1,11.488,11.488,0,0,0-.135,22.976H480.35v-.135c.135,0,.274.135.409.135A9.693,9.693,0,0,0,490.4,54.287Z" fill="#cbe5f3"/><rect x="279.794" y="191.45" width="10" height="12" fill="#c6c6c6"/><rect x="144.794" y="191.45" width="10" height="12" fill="#c6c6c6"/><rect x="187.627" y="191.45" width="10" height="12" fill="#c6c6c6"/><rect x="136.037" y="190.117" width="158.756" height="5.483" fill="#c6c6c6"/><rect x="210.794" y="186.45" width="14" height="3" fill="#c6c6c6"/><polygon points="321.75 201.514 113.421 201.514 62.647 235.276 373.178 235.276 321.75 201.514" fill="#e0e0e0"/><polygon points="285.371 236.977 239.57 236.977 231.631 201.612 259.488 201.612 285.371 236.977" fill="#d2d2d2"/><polygon points="373.127 235.117 323.975 236.977 290.344 201.612 322.127 201.612 373.127 235.117" fill="#d2d2d2"/><rect x="62.794" y="235.45" width="310" height="5" fill="#b3b3b3"/><rect x="0.794" y="239.45" width="635.963" height="7" fill="none"/><polygon points="62.722 235.145 112.914 201.612 322.127 201.612 373.054 235.145 62.722 235.145" fill="#d3d3d3"/><g clip-path="url(#a)"><polyline points="90.581 216.5 84.706 220.5 352.5 220.5 352.5 216.5 90.5 216.5" fill="#efefef"/></g><polygon points="130.167 165.461 148.213 170.481 148.213 190.784 150.667 190.784 150.667 161.167 130.167 165.461" fill="#c6c6c6"/><polygon points="173.167 165.461 191.213 170.481 191.213 190.784 193.667 190.784 193.667 161.167 173.167 165.461" fill="#c6c6c6"/><path d="M162.182,108.77A32.9,32.9,0,0,0,97.566,113.1a20.138,20.138,0,0,0-31.854,15.669,11.12,11.12,0,1,0-5.372,20.856H166.786a13.066,13.066,0,1,0-4.514-25.332,32.985,32.985,0,0,0,.489-12.664Z" fill="#cbe5f3"/><path d="M502.755,243.032s.417-4.667,2.584-4.917a8.63,8.63,0,0,1,4.75,1c.333.25,3.166,4.25,3.166,4.25l5.515-1.937s2.4-2.979,4.569-.4-7.75,5.167-7.75,5.167Z" fill="#c2bebc"/><path d="M512.969,237c1.019-1.862.133-4.255-.089-5.009s-5.407-.531-5.407-.531l1.241,5.983Z" fill="#b3b3b3"/><path d="M512.771,236.777h-3.606q.006-.165.006-.33V232.37h4.238a5.847,5.847,0,0,0-5.515-4.837c-.172,0-.552.028-.635.027a6.288,6.288,0,0,0-5.724,5.913,6.028,6.028,0,0,0,6.02,5.943l4.808-.068a.5.5,0,0,0,.481-.373l.408-1.577A.5.5,0,0,0,512.771,236.777Z" fill="#fff"/><polygon points="508.402 232.201 508.402 233.303 514.003 233.22 513.495 232.118 508.402 232.201" fill="#d3d3d3"/><path d="M507.894,227.533c-.11,0-.274.012-.357.012a5.95,5.95,0,0,0-6,5.928,5.866,5.866,0,0,0,5.814,5.941c.084,0,.436,0,.641,0a6.009,6.009,0,0,1-5.439-6.02A5.9,5.9,0,0,1,507.894,227.533Z" fill="#f3f3f3"/><polygon points="455.707 249.626 445.422 252.874 445.422 242.453 455.707 245.701 455.707 249.626" fill="#fff"/><path d="M540.248,241.036l-6.186-9.011s-7.8,5.593-18.946,13.938c-5.813,4.354,21.787,4.466,24.9,2.03S540.248,241.036,540.248,241.036Z" fill="#fff"/><path d="M501.348,228.962s-12.572,1.244-16.68,9.336,16.431,5.1,16.431,5.1Z" fill="#d3d3d3"/><path d="M484.9,242.024c3.31,3.248,16.2,1.377,16.2,1.377l.194-11.259C494.378,233.068,489.042,235.615,484.9,242.024Z" fill="#d3d3d3"/><path d="M463.355,236.112l-.491-1.267a23.687,23.687,0,0,0-1.653-2.077c-.116-.063-.685-.254-1.2-.423l-.91,1.792a6.963,6.963,0,0,0,1,.88,9.672,9.672,0,0,1,1.653,1.541s.463-.166.209-.749a4.29,4.29,0,0,0-.953-1.2l.491.149.55.45a3.425,3.425,0,0,0,.846.985C463.265,236.373,463.355,236.112,463.355,236.112Z" fill="#a88663"/><path d="M501.473,245.518a1.494,1.494,0,0,1-1.494-1.494V227.468a1.494,1.494,0,1,1,2.988,0v16.556A1.494,1.494,0,0,1,501.473,245.518Z" fill="#b3b3b3"/><path d="M451.93,228.073a1.157,1.157,0,0,1,1.515-1.1c8.18,2.674,47.214,15.34,61.223,18.175,15.684,3.174,25.58-4.108,25.58-4.108s35.695,11.608,38.5,12.355,4.263,6.877-.591,6.877H454.59a2.66,2.66,0,0,1-2.66-2.66Z" fill="#c6c6c6"/><path d="M579.2,253.523c-.559-.147-1.839-.533-4.536-1.389v8.134h3.486C585.248,260.268,582.945,254.511,579.2,253.523Z" fill="#c2bebc"/><path d="M451.93,256.721v.887a2.66,2.66,0,0,0,2.66,2.66H578.153c3.976,0,4.9-1.818,4.456-3.547Z" fill="#c6c6c6"/><path d="M574.667,256.721v3.547h3.486c3.976,0,4.9-1.818,4.456-3.547Z" fill="#c2bebc"/><path d="M507.572,243.526c17.192,5.227,30.047,6.874,42.512.7-5.651-1.829-9.836-3.189-9.836-3.189s-9.9,7.282-25.58,4.108c-2.247-.455-5.141-1.163-8.445-2.042C506.686,243.251,507.139,243.394,507.572,243.526Z" fill="#b3b3b3"/><circle cx="470.322" cy="247.498" r="15.965" fill="#b3b3b3"/><circle cx="470.918" cy="247.08" r="9.047" fill="#f3f3f3"/><circle cx="470.918" cy="247.08" r="7.45" fill="#fff"/><path d="M470.918,239.63a7.449,7.449,0,0,0-7.45,7.45h14.9A7.449,7.449,0,0,0,470.918,239.63Z" fill="#ccc"/><circle cx="470.918" cy="247.08" r="3.193" fill="#c6c6c6"/><circle cx="556.466" cy="253.789" r="9.841" fill="#b3b3b3"/><circle cx="556.833" cy="253.532" r="5.576" fill="#f3f3f3"/><circle cx="556.833" cy="253.532" r="4.592" fill="#fff"/><path d="M556.833,248.939a4.593,4.593,0,0,0-4.592,4.593h9.185A4.593,4.593,0,0,0,556.833,248.939Z" fill="#ccc"/><circle cx="556.833" cy="253.532" r="1.968" fill="#c6c6c6"/><circle cx="497.392" cy="249.881" r="5.733" fill="#efefef"/><path d="M261.945,235.626l23.094-28.105a74.238,74.238,0,1,1,94.648-.333l23.1,28.109a110.606,110.606,0,1,0-140.839.329Z" fill="#d2d2d2"/><circle cx="332.167" cy="150.167" r="126.336" fill="#fff"/><path d="M226.4,81.066A126.341,126.341,0,0,0,401.267,255.934Z" fill="#e5f2f9"/><path d="M261.945,235.626l23.094-28.105a74.238,74.238,0,1,1,94.648-.333l23.1,28.109a110.606,110.606,0,1,0-140.839.329Z" fill="#ed8422"/><path d="M221.649,154.426c.025.666.049,1.332.085,1.994.027.47.064.937.1,1.406.038.56.073,1.121.119,1.678.044.519.1,1.035.149,1.552.049.5.094,1,.15,1.5.062.557.135,1.111.205,1.665.057.451.112.9.175,1.353.082.587.173,1.171.264,1.754.064.412.126.825.195,1.235.1.613.214,1.222.327,1.831.069.374.137.747.209,1.119.126.641.259,1.278.4,1.915.071.332.141.665.216,1q.224,1,.467,1.989c.072.3.144.593.218.888q.263,1.035.543,2.063c.071.257.141.514.213.771q.3,1.073.624,2.135c.066.22.134.441.2.661q.344,1.107.708,2.2c.061.183.123.365.185.548q.389,1.145.8,2.277c.052.143.105.285.157.427q.436,1.183.9,2.354c.04.1.081.2.121.3q.489,1.225,1,2.438c.022.053.046.1.068.157q.546,1.276,1.122,2.536a110.419,110.419,0,0,1-6-36.008c0-1.094.02-2.182.051-3.268.01-.337.026-.674.039-1.011q.043-1.14.108-2.274c.022-.374.045-.748.071-1.121q.078-1.137.18-2.268c.029-.326.055-.653.087-.978.1-1.066.22-2.128.355-3.184,0-.034.009-.068.014-.1.131-1.023.279-2.041.438-3.055.051-.325.107-.648.161-.972q.183-1.1.387-2.2.1-.533.2-1.063c.145-.74.3-1.476.46-2.21.066-.3.129-.607.2-.908.233-1.028.477-2.051.739-3.067.01-.039.022-.077.032-.115q.378-1.462.8-2.909c.087-.3.179-.6.268-.9q.32-1.071.658-2.133.156-.491.318-.979.358-1.087.741-2.164c.094-.267.186-.536.283-.8q.534-1.476,1.108-2.935c.011-.03.024-.059.036-.088.369-.933.754-1.858,1.147-2.779.116-.269.235-.536.352-.8q.456-1.041.931-2.07.2-.437.406-.871.506-1.066,1.032-2.12c.112-.224.221-.45.335-.673q.713-1.4,1.46-2.783l.029-.05q.724-1.329,1.486-2.634c.137-.235.277-.468.415-.7q.593-1,1.2-1.986.236-.379.472-.756.653-1.033,1.327-2.051c.12-.181.238-.364.359-.545.268-.4.541-.794.814-1.19.029-.043.059-.085.089-.128.3-.429.591-.86.894-1.285h0c.229-.322.466-.638.7-.958l.146-.2c.323-.44.646-.879.974-1.314.152-.2.307-.4.461-.6l.2-.258c.044-.057.087-.115.132-.172q.563-.728,1.139-1.445c.171-.215.343-.43.517-.643.043-.053.085-.107.129-.16l.019-.023c.486-.6.981-1.186,1.479-1.771.118-.139.234-.279.352-.417q2.044-2.374,4.219-4.631c.162-.167.326-.333.489-.5q.671-.687,1.35-1.364c.108-.107.217-.211.325-.317l.053-.052c.182-.178.364-.357.547-.534q.556-.538,1.12-1.069c.16-.151.322-.3.482-.449l.314-.292c.113-.1.223-.21.336-.313.322-.3.648-.585.974-.876q.276-.248.555-.492.8-.709,1.624-1.4l.568-.481q.519-.434,1.043-.862c.174-.142.35-.282.525-.423l.136-.11c.173-.138.344-.278.517-.416.43-.341.863-.676,1.3-1.011q.291-.225.584-.448l.044-.033c.111-.084.22-.17.331-.254q.889-.669,1.795-1.319l.325-.238a110.63,110.63,0,0,1,127.4-.872c.192.133.384.265.575.4.3.214.605.43.906.647a108.926,108.926,0,0,1,34.394,39.308,110.922,110.922,0,0,0-36.144-47.643c-.746-.558-1.486-1.121-2.25-1.665-.3-.217-.6-.433-.906-.647-.124-.087-.25-.174-.375-.26l-.2-.14q-3.341-2.323-6.856-4.4l-.057-.033q-3.479-2.055-7.116-3.859l-.142-.07q-3.59-1.773-7.324-3.29c-.081-.033-.162-.067-.243-.1q-1.861-.752-3.756-1.438l-.064-.023q-1.827-.659-3.684-1.252l-.336-.109q-1.863-.592-3.755-1.119l-.392-.106q-1.755-.483-3.533-.908c-.134-.032-.268-.067-.4-.1q-1.866-.44-3.755-.813l-.645-.123q-1.733-.334-3.483-.615c-.139-.022-.276-.047-.414-.068-1.252-.2-2.512-.364-3.777-.517-.27-.032-.542-.062-.813-.093-1.19-.134-2.384-.253-3.585-.349-.1-.008-.2-.019-.3-.027-1.27-.1-2.548-.169-3.829-.224-.305-.013-.61-.024-.916-.035-1.294-.045-2.591-.075-3.9-.075-1.338,0-2.667.032-3.993.079-.3.01-.593.021-.888.034-1.3.056-2.6.131-3.883.232-.178.013-.354.032-.532.047q-1.768.147-3.521.351c-.249.029-.5.055-.747.085q-1.91.234-3.8.532c-.238.038-.476.079-.714.118q-1.757.289-3.5.631c-.148.03-.3.056-.446.086-1.263.255-2.517.536-3.764.833l-.729.178q-3.8.936-7.5,2.13l-.642.208q-1.848.609-3.668,1.277l-.229.088q-1.762.655-3.494,1.37c-.15.062-.3.122-.452.185q-1.8.75-3.568,1.56l-.389.182q-1.746.81-3.46,1.674l-.12.06q-1.766.9-3.491,1.857l-.414.232q-3.445,1.929-6.736,4.092l-.372.245q-1.659,1.1-3.278,2.254l-.13.1c-.068.048-.134.1-.2.146q-.9.649-1.789,1.315c-.05.037-.1.076-.149.114-.2.153-.4.309-.605.464l-.2.157c-.435.335-.868.67-1.3,1.011-.173.138-.344.278-.517.416l-.124.1-.095.077c-.147.118-.3.236-.442.356q-.524.427-1.043.862l-.042.036-.53.448q-.817.693-1.62,1.4c-.186.164-.372.328-.557.494-.325.29-.65.58-.972.874-.113.1-.223.209-.336.313l-.165.153q-.3.274-.59.55l-.041.038q-.564.53-1.12,1.069l-.158.154-.439.428,0,0-.042.041c-.094.092-.19.184-.284.277-.453.448-.9.9-1.346,1.359-.164.169-.329.336-.493.506q-2.172,2.254-4.218,4.629c-.118.138-.234.278-.352.417q-.747.878-1.479,1.77l-.015.019,0,.005-.07.087c-.193.237-.385.477-.577.716q-.575.718-1.138,1.445l-.1.129-.109.143-.121.158-.167.217c-.1.129-.2.256-.3.385q-.492.651-.972,1.312l-.023.031-.124.17c-.233.32-.47.636-.7.958h0c-.3.42-.59.845-.883,1.269l-.07.1-.029.042c-.273.4-.546.791-.814,1.19-.061.091-.12.182-.18.273l-.182.277q-.673,1.015-1.324,2.046l-.041.065q-.216.345-.431.691-.61.985-1.2,1.984c-.139.236-.28.47-.418.706q-.759,1.307-1.485,2.633l-.009.015-.02.037q-.75,1.378-1.46,2.781c-.074.144-.145.29-.216.435l-.12.24q-.525,1.053-1.03,2.117l-.128.273c-.093.2-.187.4-.279.6q-.476,1.029-.931,2.07c-.117.268-.236.535-.352.8-.393.921-.778,1.846-1.147,2.779l0,.006c-.011.028-.023.055-.034.083q-.575,1.457-1.107,2.934c-.1.267-.189.536-.283.8q-.381,1.077-.741,2.164c-.049.146-.095.292-.143.439q-.088.27-.176.541-.339,1.061-.657,2.132c-.089.3-.181.6-.268.9q-.417,1.448-.8,2.909c-.008.027-.015.055-.023.082l-.009.033q-.392,1.524-.739,3.067c-.069.3-.132.6-.2.908-.16.734-.315,1.47-.46,2.209q-.1.532-.2,1.067-.2,1.094-.386,2.2c-.054.324-.11.647-.161.972-.159,1.013-.307,2.03-.438,3.053l0,.034-.009.071c-.135,1.056-.25,2.118-.355,3.184-.028.287-.051.576-.077.865l-.01.113q-.1,1.131-.18,2.268c0,.075-.009.149-.014.224-.02.3-.04.6-.057.9q-.066,1.134-.108,2.273l-.008.2c-.011.27-.023.54-.031.81-.031,1.086-.051,2.174-.051,3.268q0,1.576.044,3.142C221.614,153.683,221.635,154.054,221.649,154.426Z" fill="#e27923"/><circle cx="332.167" cy="150.167" r="126.336" fill="none" stroke="#b2b2b2" stroke-miterlimit="10" stroke-width="4"/><path d="M257.934,150.167a74.159,74.159,0,0,1,32.848-61.633l-20.28-30.2a110.621,110.621,0,0,0-8.557,177.294l23.094-28.105A74.084,74.084,0,0,1,257.934,150.167Z" fill="#ffb900"/><path d="M405.79,140.617a74.854,74.854,0,0,1,.61,9.55,74.072,74.072,0,0,1-26.713,57.021l23.1,28.109a110.764,110.764,0,0,0,38.6-102.729C428.066,135.569,412.75,139.026,405.79,140.617Z" fill="#ccc"/><path d="M392.947,57.75l-.006.109-5.066-3.109L386.25,75.5l-18.125,9.875,4.828,2.776c29.3,17.849,33.34,54.748,33.34,54.858L425.5,149.25l16.611-11.9C438.655,104.048,421.3,76.436,392.947,57.75Z" fill="#df6c47"/><path d="M392.947,57.75l-.006.109-5.066-3.109L386.25,75.5l-18.125,9.875,4.828,2.776c29.3,17.849,33.34,54.748,33.34,54.858L425.5,149.25l16.611-11.9C438.655,104.048,421.3,76.436,392.947,57.75Z" fill="#df6c47"/><path d="M435.122,109.661a110.922,110.922,0,0,0-36.144-47.643c-.746-.558-1.486-1.121-2.25-1.665-.3-.217-.6-.433-.906-.647-.124-.087-.25-.174-.375-.26l-.2-.139,0,0c-.755-.526-1.527-1.028-2.3-1.535l-.005.09-5.066-3.109-.575,7.341a110.674,110.674,0,0,1,11.947,7.216c.192.133.384.265.575.4.3.214.605.43.906.647A108.926,108.926,0,0,1,435.122,109.661Z" fill="#d36244"/><path d="M345.572,164.19l55.98-53.99-2.781-3.985-69.029,24.048c-5.879,2.115-11.65,5.8-14.419,11.987a19.088,19.088,0,0,0,30.249,21.94Z" fill="#737373"/><circle cx="332.416" cy="150.181" r="10.607" fill="#adadad"/><path d="M258.386,142.013a74.2,74.2,0,0,1,32.4-53.479L289.25,68.25,270.5,58.332a110.561,110.561,0,0,0-48.27,79.686l21.018-6.768Z" fill="#fda84c"/><path d="M272.036,106.643c.151-.208.3-.414.456-.62C272.339,106.229,272.187,106.435,272.036,106.643Z" fill="#ffb900"/><path d="M255.762,70.206c-.353.337-.707.674-1.056,1.016C255.055,70.88,255.409,70.543,255.762,70.206Z" fill="#ffb900"/><path d="M259.378,66.9q.528-.464,1.063-.919Q259.906,66.434,259.378,66.9Z" fill="#ffb900"/><path d="M273.278,104.977c.164-.213.331-.423.5-.634C273.609,104.554,273.442,104.764,273.278,104.977Z" fill="#ffb900"/><path d="M261.822,64.821q.522-.432,1.05-.859C262.519,64.245,262.171,64.534,261.822,64.821Z" fill="#ffb900"/><path d="M274.572,103.339c.174-.214.352-.423.529-.635C274.924,102.916,274.746,103.125,274.572,103.339Z" fill="#ffb900"/><path d="M264.359,62.79c.333-.259.664-.519,1-.775C265.023,62.271,264.692,62.531,264.359,62.79Z" fill="#ffb900"/><path d="M267.053,60.761c.284-.207.564-.419.85-.623C267.617,60.342,267.337,60.554,267.053,60.761Z" fill="#ffb900"/><path d="M280.18,97.186c-.269.264-.532.532-.8.8C279.648,97.718,279.911,97.45,280.18,97.186Z" fill="#ffb900"/><path d="M284.031,93.665q.459-.392.925-.775Q284.491,93.274,284.031,93.665Z" fill="#ffb900"/><path d="M287.331,91.006c.375-.284.755-.563,1.135-.84C288.086,90.443,287.706,90.722,287.331,91.006Z" fill="#ffb900"/><path d="M285.662,92.313c.329-.265.662-.525,1-.785C286.324,91.788,285.991,92.048,285.662,92.313Z" fill="#ffb900"/><path d="M289.038,89.746q.864-.617,1.744-1.212Q289.9,89.128,289.038,89.746Z" fill="#ffb900"/><path d="M282.44,95.063q.433-.393.875-.779Q282.874,94.67,282.44,95.063Z" fill="#ffb900"/><path d="M277.92,99.509c.253-.272.506-.546.763-.813C278.426,98.963,278.173,99.237,277.92,99.509Z" fill="#ffb900"/><path d="M280.891,96.5c.276-.265.554-.529.834-.789C281.445,95.974,281.167,96.238,280.891,96.5Z" fill="#ffb900"/><path d="M275.915,101.734c.159-.186.325-.366.486-.55C276.24,101.368,276.074,101.548,275.915,101.734Z" fill="#ffb900"/><path d="M270.85,108.329c.134-.2.27-.393.406-.589C271.12,107.936,270.984,108.132,270.85,108.329Z" fill="#ffb900"/><path d="M227.623,113.993q.464-1.34.96-2.662Q228.087,112.654,227.623,113.993Z" fill="#ffb900"/><path d="M228.679,111.076q.494-1.308,1.02-2.6Q229.173,109.767,228.679,111.076Z" fill="#ffb900"/><path d="M269.729,110.018c.113-.174.225-.35.338-.523Z" fill="#ffb900"/><path d="M229.786,108.264a110.032,110.032,0,0,1,7.806-15.458A110.194,110.194,0,0,0,229.786,108.264Z" fill="#ffb900"/><path d="M237.941,92.229c.389-.633.788-1.259,1.19-1.883Q238.528,91.282,237.941,92.229Z" fill="#ffb900"/><path d="M262.649,124.1c.021-.056.042-.111.062-.166C262.691,123.99,262.67,124.045,262.649,124.1Z" fill="#ffb900"/><path d="M261.967,126l.037-.108Z" fill="#ffb900"/><path d="M257.007,69.03c.352-.326.707-.648,1.063-.97C257.714,68.382,257.359,68.7,257.007,69.03Z" fill="#ffb900"/><path d="M268.7,111.67c.078-.128.154-.258.233-.386C268.849,111.412,268.773,111.542,268.7,111.67Z" fill="#ffb900"/><path d="M263.4,122.184c.018-.045.037-.09.055-.134C263.435,122.094,263.416,122.139,263.4,122.184Z" fill="#ffb900"/><path d="M249.062,77.194q1.122-1.278,2.284-2.521Q250.185,75.916,249.062,77.194Z" fill="#ffb900"/><path d="M252.473,73.474c.344-.357.7-.708,1.045-1.061C253.169,72.766,252.817,73.117,252.473,73.474Z" fill="#ffb900"/><path d="M247.137,79.445c.4-.484.8-.969,1.213-1.446C247.939,78.476,247.539,78.961,247.137,79.445Z" fill="#ffb900"/><path d="M257.934,150.167a74.923,74.923,0,0,1,.452-8.154L243.25,131.25l-21.018,6.768c.9-8.262-.673-.461-.673,12.149a110.384,110.384,0,0,0,40.386,85.459l23.094-28.105A74.084,74.084,0,0,1,257.934,150.167Z" fill="#ffc23b"/><path d="M223.166,131.35c-.028.16-.058.32-.085.481-.045.267-.076.539-.119.807.11-.692.229-1.381.352-2.069C223.267,130.83,223.211,131.088,223.166,131.35Z" fill="#ffb900"/><path d="M223.314,130.569c.154-.856.314-1.709.487-2.558Q223.541,129.285,223.314,130.569Z" fill="#ffb900"/><path d="M222.56,135.36q.184-1.367.4-2.722C222.818,133.542,222.682,134.449,222.56,135.36Z" fill="#ffb900"/><path d="M224,127.009c-.031.141-.059.284-.089.426-.04.19-.071.385-.11.576q.153-.755.316-1.5C224.08,126.675,224.036,126.84,224,127.009Z" fill="#ffb900"/><path d="M222.232,138.018l.013,0c.025-.228.046-.458.072-.686C222.291,137.558,222.257,137.787,222.232,138.018Z" fill="#ffb900"/><path d="M222.317,137.327q.114-.986.243-1.967C222.472,136.014,222.393,136.67,222.317,137.327Z" fill="#ffb900"/><path d="M225.134,122.249q.426-1.636.9-3.251Q225.561,120.614,225.134,122.249Z" fill="#ffb900"/><path d="M227.567,114.157c-.426,1.238-.823,2.489-1.205,3.747.383-1.257.779-2.509,1.205-3.748Z" fill="#ffb900"/><path d="M221.649,154.426c.007.181.017.362.023.543.021.484.036.969.063,1.452s.063.937.1,1.405c.038.56.073,1.121.119,1.678.044.518.1,1.034.149,1.551.049.5.094,1,.15,1.5.062.556.135,1.11.205,1.663.057.453.112.906.175,1.356.082.587.173,1.17.264,1.753q.071.454.143.908c.018.109.034.219.052.327.1.613.214,1.222.327,1.831.069.374.137.747.209,1.119q.189.96.4,1.914c.02.1.041.193.062.289.051.237.1.473.154.709q.224,1,.467,1.989l.037.152c.06.246.119.491.181.736q.261,1.035.543,2.062.079.291.16.58c.018.064.035.128.053.192q.3,1.071.623,2.132c.067.222.135.443.2.665q.344,1.106.708,2.2c.061.185.124.369.186.554q.387,1.14.8,2.27c.022.063.046.125.069.187l.089.243q.436,1.182.9,2.352c.025.065.052.13.078.195l.043.109q.489,1.225,1,2.437l.069.161q.546,1.274,1.121,2.533a110.419,110.419,0,0,1-6-36.008c0-1.094.02-2.182.051-3.268.01-.337.026-.674.039-1.011q.043-1.14.108-2.274c.022-.374.045-.748.071-1.121q.078-1.137.18-2.268c.029-.326.055-.653.087-.978.1-1.066.22-2.128.355-3.184,0-.034.009-.068.014-.1.131-1.023.279-2.041.438-3.055.051-.325.107-.648.161-.972q.183-1.1.387-2.2.1-.533.2-1.063c.145-.74.3-1.476.46-2.21.026-.121.053-.241.079-.362l-5.948,1.915c-.086.788-.179,1.574-.249,2.367-.032.367-.059.736-.088,1.1q-.124,1.6-.2,3.221c-.019.394-.041.787-.056,1.183v.023c-.054,1.412-.089,2.83-.089,4.256q0,1.576.044,3.142C221.614,153.683,221.635,154.054,221.649,154.426Z" fill="#ffb900"/><path d="M224.117,126.506c.253-1.159.518-2.313.807-3.459C224.636,124.193,224.37,125.347,224.117,126.506Z" fill="#ffb900"/><path d="M224.924,123.047c.068-.267.141-.532.21-.8C225.064,122.515,224.992,122.78,224.924,123.047Z" fill="#ffb900"/><path d="M226.035,119q.16-.549.327-1.094Q226.2,118.45,226.035,119Z" fill="#ffb900"/><path d="M243.252,84.387c.386-.521.774-1.041,1.169-1.554C244.026,83.346,243.638,83.866,243.252,84.387Z" fill="#ffb900"/><path d="M241.409,86.948q.573-.82,1.16-1.632Q241.981,86.126,241.409,86.948Z" fill="#ffb900"/><path d="M239.638,89.563q.573-.874,1.164-1.735Q240.212,88.691,239.638,89.563Z" fill="#ffb900"/><path d="M245.162,81.886c.393-.5.785-1,1.187-1.494C245.947,80.885,245.555,81.386,245.162,81.886Z" fill="#ffb900"/><path d="M270.517,58.34c-.881.592-1.761,1.188-2.624,1.8q-1.09.78-2.162,1.585l-.008.006c-.05.037-.1.076-.149.114l-.185.142q-.963.73-1.911,1.481l-.012.009c-.173.138-.344.278-.517.416l0,0q-.857.688-1.7,1.392h0l-.042.036c-.176.147-.351.3-.526.445q-.821.694-1.626,1.405l-.555.493q-.819.732-1.623,1.48l-.44.41-.041.038h0q-.867.816-1.716,1.651h0l0,0-.042.041c-.094.092-.189.183-.282.276q-.95.939-1.874,1.9-.99,1.029-1.953,2.084c-.054.059-.11.117-.164.176q-1.02,1.119-2.009,2.268-.96,1.113-1.889,2.252h0l-.015.019,0,.005h0q-.9,1.107-1.778,2.239l-.006.008-.1.129-.031.042q-.828,1.073-1.629,2.167l0,.006-.023.031-.124.17h0q-.81,1.112-1.594,2.244l-.059.085-.029.042v0q-.723,1.049-1.421,2.117c-.17.26-.338.522-.507.784-.4.624-.8,1.25-1.19,1.882-.118.192-.232.385-.349.578a110.111,110.111,0,0,0-7.805,15.456l-.089.213q-.525,1.293-1.019,2.6l-.1.256q-.5,1.322-.96,2.66c-.019.055-.037.11-.056.164a110.057,110.057,0,0,0-5.335,23.862l5.961-1.92c.039-.182.077-.365.119-.546.233-1.028.477-2.051.739-3.067.01-.039.022-.077.032-.115q.378-1.462.8-2.909c.087-.3.179-.6.268-.9q.32-1.071.658-2.133.156-.491.318-.979.358-1.087.741-2.164c.094-.267.186-.536.283-.8q.534-1.476,1.108-2.935c.011-.03.024-.059.036-.088.369-.933.754-1.858,1.147-2.779.116-.269.235-.536.352-.8q.456-1.041.931-2.07.2-.437.406-.871.506-1.066,1.032-2.12c.112-.224.221-.45.335-.673q.713-1.4,1.46-2.783l.029-.05q.724-1.329,1.486-2.634c.137-.235.277-.468.415-.7q.593-1,1.2-1.986.236-.379.472-.756.653-1.033,1.327-2.051c.12-.181.238-.364.359-.545.268-.4.541-.794.814-1.19.029-.043.059-.085.089-.128.3-.429.591-.86.894-1.285h0c.229-.322.466-.638.7-.958l.146-.2c.323-.44.646-.879.974-1.314.152-.2.307-.4.461-.6l.2-.258c.044-.057.087-.115.132-.172q.563-.728,1.139-1.445c.171-.215.343-.43.517-.643.043-.053.085-.107.129-.16l.019-.023c.486-.6.981-1.186,1.479-1.771.118-.139.234-.279.352-.417q2.044-2.374,4.219-4.631c.162-.167.326-.333.489-.5q.671-.687,1.35-1.364c.108-.107.217-.211.325-.317l.053-.052c.182-.178.364-.357.547-.534q.556-.538,1.12-1.069c.16-.151.322-.3.482-.449l.314-.292c.113-.1.223-.21.336-.313.322-.3.648-.585.974-.876q.276-.248.555-.492.8-.709,1.624-1.4l.568-.481q.519-.434,1.043-.862c.174-.142.35-.282.525-.423l.136-.11c.173-.138.344-.278.517-.416.43-.341.863-.676,1.3-1.011q.291-.225.584-.448l.044-.033c.111-.084.22-.17.331-.254q.889-.669,1.795-1.319l.325-.238a110.924,110.924,0,0,1,9.533-6.095Z" fill="#f49d47"/></svg>