<svg xmlns="http://www.w3.org/2000/svg" viewBox="0 0 532 292"><defs><style>.a{fill:#00a387;}.b{fill:#008272;}.c{fill:#40c5af;}.d{fill:#ff8c00;}.e{fill:#fff;}.f{fill:#106110;}</style></defs><title>swimlane-seamless-debugging-with-symbols</title><path class="a" d="M340,0l64,63-65.833,2.333Z"/><path class="b" d="M404,63H344.255A4.188,4.188,0,0,1,340,58.883V0H186.16A5.092,5.092,0,0,0,181,5.022V268.978A5.093,5.093,0,0,0,186.16,274H398.84a5.094,5.094,0,0,0,5.16-5.007Z"/><path class="a" d="M283,18l64,63-65.833,2.333Z"/><path class="c" d="M347,81H287.255A4.188,4.188,0,0,1,283,76.883V18H129.16A5.092,5.092,0,0,0,124,23.022V286.978A5.093,5.093,0,0,0,129.16,292H341.84a5.094,5.094,0,0,0,5.16-5.007Z"/><path class="d" d="M74.1,115H0v31H74.1L89.22,130.5ZM80.8,132.617a2.131,2.131,0,1,1,2.131-2.131A2.131,2.131,0,0,1,80.8,132.617Z"/><path class="d" d="M74.1,196H0v31H74.1L89.22,211.5ZM80.8,213.617a2.131,2.131,0,1,1,2.131-2.131A2.131,2.131,0,0,1,80.8,213.617Z"/><path class="a" d="M200,82H155a3,3,0,0,1,0-6h45a3,3,0,0,1,0,6Z"/><path class="e" d="M259,82H211a3,3,0,0,1,0-6h48a3,3,0,0,1,0,6Z"/><path class="a" d="M215,99H180a3,3,0,0,1,0-6h35a3,3,0,0,1,0,6Z"/><path class="a" d="M270,99H226a3,3,0,0,1,0-6h44a3,3,0,0,1,0,6Z"/><path class="e" d="M289,214H240a3,3,0,0,1,0-6h49a3,3,0,0,1,0,6Z"/><path class="e" d="M199,231H180a3,3,0,0,1,0-6h19a3,3,0,0,1,0,6Z"/><path class="e" d="M297,231H210a3,3,0,0,1,0-6h87a3,3,0,0,1,0,6Z"/><path class="a" d="M234,247H180a3,3,0,0,1,0-6h54a3,3,0,0,1,0,6Z"/><path class="e" d="M322,247H244a3,3,0,0,1,0-6h78a3,3,0,0,1,0,6Z"/><path class="e" d="M220,115H205a3,3,0,0,1,0-6h15a3,3,0,0,1,0,6Z"/><path class="e" d="M290,115H231a3,3,0,0,1,0-6h59a3,3,0,0,1,0,6Z"/><path class="e" d="M296,132H245a3,3,0,0,1,0-6h51a3,3,0,0,1,0,6Z"/><path class="a" d="M220,173H205a3,3,0,0,1,0-6h15a3,3,0,0,1,0,6Z"/><path class="e" d="M290,173H231a3,3,0,0,1,0-6h59a3,3,0,0,1,0,6Z"/><path class="e" d="M266,190H231a3,3,0,0,1,0-6h35a3,3,0,0,1,0,6Z"/><path class="d" d="M227,206H158a5,5,0,0,0,0,10h69a5,5,0,0,0,0-10Z"/><path class="d" d="M231,124H208a5,5,0,0,0,0,10h23a5,5,0,0,0,0-10Z"/><path class="d" d="M313,182H278a5,5,0,0,0,0,10h35a5,5,0,0,0,0-10Z"/><path class="e" d="M290,148H231a3,3,0,0,1,0-6h59a3,3,0,0,1,0,6Z"/><path class="e" d="M325,115H301a3,3,0,0,1,0-6h24a3,3,0,0,1,0,6Z"/><path class="d" d="M457.9,171,442.78,186.5,457.9,202H532V171Zm-6.766,18.4a2.131,2.131,0,1,1,2.131-2.131A2.131,2.131,0,0,1,451.136,189.4Z"/><path class="f" d="M201,131h-2v-2h2Zm-5,0h-2v-2h2Zm-5,0h-2v-2h2Zm-5,0h-2v-2h2Zm-5,0h-2v-2h2Zm-5,0h-2v-2h2Zm-5,0h-2v-2h2Zm-5,0h-2v-2h2Zm-5,0h-2v-2h2Zm-5,0h-2v-2h2Zm-5,0h-2v-2h2Zm-5,0h-2v-2h2Zm-4,0h-2v-2h2Zm-5,0h-2v-2h2Zm-5,0h-2v-2h2Zm-5,0h-2v-2h2Zm-5,0h-2v-2h2Zm-5,0h-2v-2h2Zm-5,0h-2v-2h2Zm-5,0h-2v-2h2Zm-5,0h-2v-2h2Zm-5,0H95v-2h2Zm-5,0H90v-2h2Zm-5,0H85v-2h2Zm-5,0H80v-2h2Z"/><path class="f" d="M152,212h-2v-2h2Zm-5,0h-2v-2h2Zm-5,0h-2v-2h2Zm-5,0h-2v-2h2Zm-5,0h-2v-2h2Zm-5,0h-2v-2h2Zm-5,0h-2v-2h2Zm-5,0h-2v-2h2Zm-5,0h-2v-2h2Zm-5,0h-2v-2h2Zm-4,0h-2v-2h2Zm-5,0H96v-2h2Zm-5,0H91v-2h2Zm-5,0H86v-2h2Zm-5,0H81v-2h2Z"/><path class="f" d="M451,188h-2v-2h2Zm-5,0h-2v-2h2Zm-5,0h-2v-2h2Zm-5,0h-2v-2h2Zm-5,0h-2v-2h2Zm-5,0h-2v-2h2Zm-5,0h-2v-2h2Zm-5,0h-2v-2h2Zm-4,0h-2v-2h2Zm-5,0h-2v-2h2Zm-5,0h-2v-2h2Zm-5,0h-2v-2h2Zm-5,0h-2v-2h2Zm-5,0h-2v-2h2Zm-5,0h-2v-2h2Zm-5,0h-2v-2h2Zm-5,0h-2v-2h2Zm-5,0h-2v-2h2Zm-5,0h-2v-2h2Zm-5,0h-2v-2h2Zm-5,0h-2v-2h2Zm-4,0h-2v-2h2Zm-5,0h-2v-2h2Zm-5,0h-2v-2h2Zm-5,0h-2v-2h2Zm-5,0h-2v-2h2Zm-5,0h-2v-2h2Z"/></svg>