<svg xmlns="http://www.w3.org/2000/svg" xmlns:xlink="http://www.w3.org/1999/xlink" viewBox="0 0 636 300"><defs><clipPath id="a"><rect x="318.773" y="190.219" width="65.461" height="61.145" rx="6.524" ry="6.524" fill="none"/></clipPath></defs><title>swimlane-authentication-authorization</title><rect x="307" y="160.059" width="144" height="109" rx="10.799" ry="10.799" fill="#84c4ef"/><path d="M451,177.059V170.87a10.811,10.811,0,0,0-10.811-10.811H317.811A10.811,10.811,0,0,0,307,170.87v6.189Z" fill="#106ebe"/><rect x="395" y="201.059" width="43" height="6" fill="#69afe5"/><rect x="395" y="215.059" width="43" height="6" fill="#69afe5"/><rect x="395" y="229.059" width="43" height="6" fill="#69afe5"/><rect x="318.773" y="190.219" width="65.461" height="61.145" rx="6.524" ry="6.524" fill="#ededed"/><g clip-path="url(#a)"><path d="M421.614,228.076l-18.955,13.6-30.13-1.926,0-.006a4.717,4.717,0,0,0-5.085-2.763l-32.685,5.233-.031-.078-9.193,1.96a13.035,13.035,0,0,0-8.613,6.3l-16.685,29.308a9.4,9.4,0,0,0,1.729,11.557l19.466,18.208s4.452-.411,7.192-7.809c0-.1-13.712-17.686-13.712-17.686l11.843-9.167a175.379,175.379,0,0,0,7.46,18.7c-4.3,8.051-6.721,31.373-6.721,31.373s19.523,5.754,30.619-10.481c8.221,5.138,26.1,1.757,26.1,1.757s-6.713-18.369-6.439-26.914c.168-5.25,1.94-14.076,3.281-20.1a20.582,20.582,0,0,0-.692-11.354l22.368-.888a3.926,3.926,0,0,0,2.419-.959L428.6,235.564c0-4.877-6.987-7.488-6.987-7.488" fill="#939393"/><path d="M339.663,243.235s12.08,15.618,15.093,25.756,2.327,23.153,2.327,23.153,8.261-9.042,8.378-19.591-3.6-22.879-3.6-22.879l3.6-7.535-5.409-4.154-19.082-1.766Z" fill="#f5f5f5"/><polygon points="361.056 243.783 362.358 241.18 359.618 239.468 360.165 243.441 361.056 243.783" fill="#d2d2d2"/><path d="M369.78,217.963l-1.153-8.986a16.808,16.808,0,0,0-18.756-14.49l-1.031.132a16.81,16.81,0,0,0-14.491,18.757l1.153,8.984a16.754,16.754,0,0,0,8.633,12.561l-.454,5.85,6.552,4.869,6.371,12.8,4.452-14.659-.685-2.6-.316-3.195a3.854,3.854,0,0,1,1.879-3.638,16.8,16.8,0,0,0,7.846-16.384" fill="#db9c94"/><path d="M369.78,217.963l-1.153-8.986a16.821,16.821,0,0,0-13.38-14.3l-2.617,3.349,3.235,2.8a9.659,9.659,0,0,1,3.342,7.306v.984a3.78,3.78,0,0,0,2.18,3.426l3.55,1.659a1.639,1.639,0,0,1,.181,2.872s-1.641.971-1.7,1.466a4.576,4.576,0,0,0,.7,1.7,5.6,5.6,0,0,1,.947,3.108l-3.208.648a3.1,3.1,0,0,0,2.065,2.151c1.713.544,1.748,1.947,1.642,3.165a9.549,9.549,0,0,1-8.272,1.551l-7.3-2.1a.587.587,0,0,0-.615.937l2.451,2.967a11.738,11.738,0,0,1,2.667,6.818l.745,16.233,1.359,2.731,4.452-14.659-.685-2.6-.316-3.195a3.854,3.854,0,0,1,1.879-3.638,16.8,16.8,0,0,0,7.846-16.384" fill="#cb8c84"/><path d="M352.734,213.007a1.562,1.562,0,1,1-1.562-1.562,1.562,1.562,0,0,1,1.562,1.562" fill="#282828"/><path d="M367.025,210.412a1.562,1.562,0,1,1-1.562-1.561,1.561,1.561,0,0,1,1.562,1.561" fill="#282828"/><path d="M356.328,220.836l-.7,3.17s-1.543-2.4.7-3.17" fill="#cb8c84"/><polygon points="350.233 245.64 346.204 252.038 354.556 254.328 350.233 245.64" fill="#d2d2d2"/><path d="M338.862,241.591l.8,1.644s12.08,15.618,15.092,25.755,2.328,23.154,2.328,23.154,8.261-9.042,8.377-19.591-3.6-22.879-3.6-22.879l3.6-7.535-5.408-4.154Z" fill="none"/><polygon points="365.463 242.139 365.714 250.239 362.375 248.338 365.463 242.139" fill="#d2d2d2"/><path d="M349.206,193.778a17.084,17.084,0,0,0-8.973,3.125,7.227,7.227,0,1,0-6.888,11.77,30.257,30.257,0,0,0-.511,3.686,23.439,23.439,0,0,0,11.3,22.562s-6.735-5.668-3.126-12.5c.211-.4.4-.784.582-1.162.366,3.992.774,7.917,1.1,9.657,3.862-7.839,2.127-16.941,1.018-21a21.854,21.854,0,0,1,.516-6.216c1.644-6.713,12.86-6.286,16.49-2.176,2.881,3.261,3.889,3.993,8.015,5-2.535-9.864-8.768-13.563-19.522-12.741m-10.618,28.631c-4.787-1.961-3.356-9.261.548-8.9.822,3.9-.548,8.9-.548,8.9" fill="#72594b"/><path d="M338.473,221.785l-3.481,3.481,3.481,3.481,3.481-3.481Zm-1.644,3.481,1.644-1.644,1.643,1.644-1.643,1.644Z" fill="#f5f5f5"/><path d="M357.405,221.941l10.089-1.686-.275.576c-1.514,3.164-4.887,4.333-7.526,2.607Z" fill="#f5f5f5"/><path d="M370.526,210.389l-.344-2.157a2.162,2.162,0,0,0-2.479-1.792l-6.254,1.037a1.274,1.274,0,0,0-.64.3l-.719-.253a4.07,4.07,0,0,0-3.638.475l-.962.654a1.339,1.339,0,0,0-.438-.009l-7.935,1.268c-.373.06-8.83,3.538-8.83,3.538a.5.5,0,0,0,.186.96.488.488,0,0,0,.185-.037l6.678-2.68a2.178,2.178,0,0,0-.012.694l.345,2.157a2.9,2.9,0,0,0,2.858,2.439,2.977,2.977,0,0,0,.459-.036l5.622-.9a2.9,2.9,0,0,0,2.4-3.317l-.482-3.018a1.284,1.284,0,0,0-.163-.451l.647-.442a3.08,3.08,0,0,1,2.747-.358l.608.214a1.259,1.259,0,0,0,.013.274l.482,3.019c0,.016.009.03.012.046l1.482.813a1.89,1.89,0,0,1-.511-1.016l-.483-3.019a.3.3,0,0,1,.052-.218.3.3,0,0,1,.195-.118l6.255-1.038a1.174,1.174,0,0,1,.186-.014,1.164,1.164,0,0,1,1.148.981l.345,2.158a1.9,1.9,0,0,1-1.581,2.177l-3.943.668a1.871,1.871,0,0,1-.677-.021l1.6.875,3.187-.54a2.894,2.894,0,0,0,2.4-3.317m-14.836,3.917a1.893,1.893,0,0,1-1.239.762l-5.622.9a1.9,1.9,0,0,1-2.177-1.577l-.344-2.157a1.165,1.165,0,0,1,.966-1.334l7.935-1.269a.388.388,0,0,1,.048,0,.294.294,0,0,1,.288.248l.483,3.018a1.893,1.893,0,0,1-.338,1.415" fill="#737373"/></g><rect x="356" y="165.059" width="43" height="6" rx="3" ry="3" fill="#11334b"/><path d="M179.316,77.355a2.878,2.878,0,0,1-2.851-2.515c-.063-.5-.121-1-.171-1.5a2.877,2.877,0,0,1,5.724-.591c.047.456.1.909.157,1.362a2.879,2.879,0,0,1-2.493,3.217A2.81,2.81,0,0,1,179.316,77.355Z" fill="#b8b8b8"/><path d="M180.3,57.348a2.878,2.878,0,0,1-2.809-3.518c.114-.493.232-.987.359-1.476a2.877,2.877,0,0,1,5.572,1.436c-.112.439-.219.878-.319,1.321A2.88,2.88,0,0,1,180.3,57.348Z" fill="#b8b8b8"/><path d="M140.833,67.786c4.218-5.734,22.746-12.221,36.964,2,14.294,14.294,6.344,29.519.484,35.689-3.828,4.029-22.179,22.217-30.429,30.429l9.059,10.268c8.284-8.246,26.369-26.353,30.316-30.507,10.716-11.281,17.44-35.538-1.165-54.143-10.749-10.75-22.407-13.587-30.549-13.156-9.179.486-17.593,3.689-24.176,9.927l-29.57,29.569,9.5,9.5Z" fill="#dbdbdb"/><path d="M177.8,69.783q.663.663,1.263,1.331a32.143,32.143,0,0,0-3.533-4.168c-14.218-14.218-31.79-7.233-36.964-2L108.994,94.518l-6.943-6.942-.284.283,9.5,9.5,29.569-29.57C146.149,62.551,163.579,55.565,177.8,69.783Z" fill="#c5c5c5"/><path d="M188.258,63.9c12.875,17.7,6.439,38.676-3.3,48.93-3.947,4.154-22.032,22.261-30.316,30.506l-6.292-6.65-.213.213,8.775,9.275c8.284-8.246,26.369-26.353,30.316-30.507C197.493,104.855,204.079,82.142,188.258,63.9Z" fill="#c5c5c5"/><rect x="47.39" y="93.085" width="111.919" height="94.012" rx="5.314" ry="5.314" transform="translate(129.33 -32.048) rotate(45)" fill="#fec94e"/><path d="M173.077,143.342l-5.23-5.231a5.4,5.4,0,0,1-.44,7.565L109.191,204c-1.938,2.269-5.51,3.358-7.821.587l4.486,4.592c1.81,2.27,5.959,1.844,8.087-.355L172.177,150.4C174.052,148.433,174.974,145.627,173.077,143.342Z" fill="#c78e00"/><path d="M167.623,145.46a5.446,5.446,0,0,0-.126-7.7l-29.879-29.878v67.582Z" fill="#edac28"/><rect x="59.374" y="132.777" width="89.535" height="6.715" transform="translate(126.764 -33.766) rotate(45)" fill="#edac28"/><rect x="48.294" y="143.856" width="89.535" height="6.715" transform="translate(131.353 -22.687) rotate(45)" fill="#edac28"/><rect x="38.797" y="153.353" width="89.535" height="6.715" transform="translate(135.287 -13.19) rotate(45)" fill="#edac28"/><path d="M234.251,126.9h-.069c-.506-.011-1.01-.031-1.513-.056a2.876,2.876,0,0,1-2.73-3.017,2.91,2.91,0,0,1,3.016-2.73q.679.034,1.362.051a2.877,2.877,0,0,1-.066,5.753Z" fill="#b8b8b8"/><path d="M395.337,123.261a2.878,2.878,0,0,1-1.013-5.572c.423-.159.846-.324,1.264-.5a2.877,2.877,0,1,1,2.175,5.328q-.7.287-1.413.555A2.88,2.88,0,0,1,395.337,123.261Z" fill="#b8b8b8"/><path d="M389.637,111.059H366.363A3.363,3.363,0,0,0,363,114.422V165.7a3.363,3.363,0,0,0,3.363,3.363h23.274A3.363,3.363,0,0,0,393,165.7V114.422A3.363,3.363,0,0,0,389.637,111.059Zm-11.828,26.006a9.442,9.442,0,1,1,9.442-9.441A9.441,9.441,0,0,1,377.809,137.065Z" fill="#dbdbdb"/><path d="M420.014,101.6H594.924a4.457,4.457,0,0,1,4.457,4.457V140.7a4.457,4.457,0,0,1-4.457,4.457H420.478a22.007,22.007,0,0,1-22.007-22.007v0A21.544,21.544,0,0,1,420.014,101.6Z" transform="translate(101.189 -202.128) rotate(25.407)" fill="#dbdbdb"/><path d="M408.966,86.179c5.105-10.747,14.066-17.75,30.477-9.712l157.238,75.187.415-.819a4.458,4.458,0,0,0-2.114-5.939L436.989,69.853a21.544,21.544,0,0,0-28.7,10.216,21.932,21.932,0,0,0-.762,17.048A22.213,22.213,0,0,1,408.966,86.179Z" fill="#b2b2b2"/><path d="M462.732,108.014l-8.577-2.407,2.409,9.268-5.457.884-.71-9.56-7.858,5.491-2.791-4.8,8.734-3.974-7.313-5.141,3.849-3.848,6.023,6.515,3.143-9.008,5.267,2.5-5,8.127,8.854.552Z" fill="#939393"/><path d="M490.063,121l-8.576-2.407,2.409,9.268-5.458.884-.709-9.56-7.858,5.491-2.792-4.8,8.735-3.975-7.314-5.141,3.85-3.848,6.022,6.515,3.143-9.007,5.268,2.5-5,8.127,8.854.552Z" fill="#939393"/><path d="M517.394,133.977l-8.577-2.406,2.409,9.268-5.457.884-.709-9.56-7.858,5.491-2.792-4.8,8.734-3.975-7.313-5.141,3.849-3.847L505.7,126.4l3.143-9.007,5.268,2.5-5,8.128,8.855.552Z" fill="#939393"/><path d="M544.726,146.96l-8.577-2.407,2.409,9.268-5.457.884-.71-9.56-7.858,5.491-2.791-4.8,8.734-3.975-7.313-5.141,3.849-3.847,6.023,6.514,3.143-9.007,5.267,2.5-5,8.128,8.855.552Z" fill="#939393"/><polygon points="578.16 168.686 575.44 160.562 576.637 160.162 578.923 166.989 585.522 164.17 586.019 165.331 578.16 168.686" fill="#fff"/><path d="M571.367,149.973a4.895,4.895,0,0,0-5.475,7.972l-4.235,8.917.811,1.724,0,0,0,.006,1.849-.461,4.221-8.888a4.895,4.895,0,0,0,2.824-9.266Zm-1.946,4.1a1.31,1.31,0,1,1,1.745-.621A1.311,1.311,0,0,1,569.421,154.07Z" fill="#fff"/><circle cx="426.497" cy="92.207" r="7.63" fill="#fff"/><rect x="178.859" y="10.38" width="253.212" height="113.658" rx="56.829" ry="56.829" fill="none"/><path d="M236.2,238.619l11.615,2.855,2.446-9.951-5.786-9.864,9.7-6.058-5.786-9.864,10.189-8.048,5.45-22.173a34.739,34.739,0,0,0,28.995-26.343c4.9-19.926-7.978-39.948-28.361-42.559-15.72-2.014-30.738,7.669-36.169,22.559a34.853,34.853,0,0,0,12.306,40.633l-13.767,56.007Zm24.677-97.29a11.594,11.594,0,1,1,14.025-8.491A11.593,11.593,0,0,1,260.872,141.329Z" fill="#737373"/><path d="M235.243,225.276a2.078,2.078,0,0,1-.491-.059,2.05,2.05,0,0,1-1.5-2.48l12.738-51.82a2.05,2.05,0,1,1,3.981.979l-12.738,51.82A2.051,2.051,0,0,1,235.243,225.276Z" fill="#c2c2c2"/><path d="M375.243,126.916H373.8a2.878,2.878,0,0,1,0-5.755h1.439c.06,0,.12,0,.181.006.508-.045,1.044-.019,1.565-.034a2.839,2.839,0,0,1,2.969,2.783,2.879,2.879,0,0,1-2.784,2.969q-.757.025-1.521.028a1.013,1.013,0,0,1-.188-.006C375.392,126.913,375.317,126.916,375.243,126.916Z" fill="#b8b8b8"/><path d="M365.172,126.916h-1.439a2.878,2.878,0,0,1,0-5.755h1.439a2.878,2.878,0,0,1,0,5.755Z" fill="#b8b8b8"/><path d="M355.1,126.916h-1.439a2.878,2.878,0,0,1,0-5.755H355.1a2.878,2.878,0,0,1,0,5.755Z" fill="#b8b8b8"/><path d="M345.03,126.916h-1.439a2.878,2.878,0,0,1,0-5.755h1.439a2.878,2.878,0,0,1,0,5.755Z" fill="#b8b8b8"/><path d="M334.959,126.916H333.52a2.878,2.878,0,0,1,0-5.755h1.439a2.878,2.878,0,0,1,0,5.755Z" fill="#b8b8b8"/><path d="M324.888,126.916h-1.439a2.878,2.878,0,0,1,0-5.755h1.439a2.878,2.878,0,0,1,0,5.755Z" fill="#b8b8b8"/><path d="M314.817,126.916h-1.439a2.878,2.878,0,0,1,0-5.755h1.439a2.878,2.878,0,0,1,0,5.755Z" fill="#b8b8b8"/><path d="M304.746,126.916h-1.439a2.878,2.878,0,0,1,0-5.755h1.439a2.878,2.878,0,0,1,0,5.755Z" fill="#b8b8b8"/><path d="M294.675,126.916h-1.439a2.878,2.878,0,0,1,0-5.755h1.439a2.878,2.878,0,0,1,0,5.755Z" fill="#b8b8b8"/><path d="M284.6,126.916h-1.439a2.878,2.878,0,0,1,0-5.755H284.6a2.878,2.878,0,1,1,0,5.755Z" fill="#b8b8b8"/><path d="M274.533,126.916h-1.439a2.878,2.878,0,0,1,0-5.755h1.439a2.878,2.878,0,1,1,0,5.755Z" fill="#b8b8b8"/><path d="M264.462,126.916h-1.439a2.878,2.878,0,0,1,0-5.755h1.439a2.878,2.878,0,1,1,0,5.755Z" fill="#b8b8b8"/><path d="M224.261,125.766a2.887,2.887,0,0,1-.574-.057c-.5-.1-.987-.208-1.476-.321a2.877,2.877,0,1,1,1.285-5.608q.666.151,1.334.289a2.877,2.877,0,0,1-.569,5.7Z" fill="#b8b8b8"/><path d="M214.619,122.883a2.9,2.9,0,0,1-1.067-.206q-.7-.281-1.4-.58a2.877,2.877,0,0,1,2.268-5.289c.42.18.841.354,1.267.524a2.878,2.878,0,0,1-1.069,5.551Z" fill="#b8b8b8"/><path d="M404.388,118.883a2.877,2.877,0,0,1-1.476-5.348c.388-.232.775-.471,1.158-.713a2.877,2.877,0,0,1,3.074,4.864q-.638.405-1.287.791A2.852,2.852,0,0,1,404.388,118.883Z" fill="#b8b8b8"/><path d="M205.642,118.335a2.862,2.862,0,0,1-1.52-.436q-.642-.4-1.274-.817a2.878,2.878,0,1,1,3.17-4.8c.379.252.764.5,1.15.741a2.876,2.876,0,0,1-1.526,5.317Z" fill="#b8b8b8"/><path d="M412.521,112.984a2.878,2.878,0,0,1-1.9-5.043q.519-.454,1.029-.918a2.878,2.878,0,1,1,3.88,4.251q-.554.5-1.118,1A2.868,2.868,0,0,1,412.521,112.984Z" fill="#b8b8b8"/><path d="M197.613,112.276a2.862,2.862,0,0,1-1.929-.745c-.371-.334-.736-.674-1.1-1.016a2.878,2.878,0,0,1,3.951-4.187c.333.317.67.628,1.01.938a2.877,2.877,0,0,1-1.932,5.01Z" fill="#b8b8b8"/><path d="M419.5,105.744a2.877,2.877,0,0,1-2.244-4.677c.288-.36.572-.72.851-1.085a2.878,2.878,0,0,1,4.566,3.5q-.456.594-.927,1.18A2.867,2.867,0,0,1,419.5,105.744Z" fill="#b8b8b8"/><path d="M190.775,104.908A2.872,2.872,0,0,1,188.5,103.8q-.466-.6-.915-1.21a2.878,2.878,0,1,1,4.639-3.406q.4.549.819,1.084a2.877,2.877,0,0,1-2.27,4.643Z" fill="#b8b8b8"/><path d="M425.094,97.386a2.877,2.877,0,0,1-2.52-4.262q.329-.6.643-1.208a2.878,2.878,0,0,1,5.114,2.641c-.231.449-.469.894-.71,1.335A2.879,2.879,0,0,1,425.094,97.386Z" fill="#b8b8b8"/><path d="M185.338,96.457a2.876,2.876,0,0,1-2.551-1.54q-.35-.666-.684-1.343a2.878,2.878,0,1,1,5.162-2.546q.3.612.617,1.214a2.878,2.878,0,0,1-2.544,4.215Z" fill="#b8b8b8"/><path d="M426.5,84.577c-.048,0-.092.013-.139.014a2.848,2.848,0,0,0,5.292,2.021A7.58,7.58,0,0,0,426.5,84.577Z" fill="#b8b8b8"/><path d="M181.472,87.177a2.881,2.881,0,0,1-2.744-2.018q-.225-.714-.432-1.437a2.877,2.877,0,1,1,5.527-1.6q.192.662.4,1.316a2.88,2.88,0,0,1-2.747,3.74Z" fill="#b8b8b8"/><path d="M432.043,68.346a2.877,2.877,0,0,1-2.874-2.8q-.019-.678-.058-1.353a2.878,2.878,0,0,1,2.713-3.033,2.909,2.909,0,0,1,3.034,2.713c.028.506.05,1.013.063,1.522a2.876,2.876,0,0,1-2.8,2.952Z" fill="#b8b8b8"/><path d="M430.858,58.364a2.878,2.878,0,0,1-2.812-2.281c-.095-.451-.195-.9-.3-1.344a2.878,2.878,0,0,1,5.6-1.315c.114.486.222.975.327,1.465a2.877,2.877,0,0,1-2.218,3.411A2.8,2.8,0,0,1,430.858,58.364Z" fill="#b8b8b8"/><path d="M427.93,48.745a2.88,2.88,0,0,1-2.667-1.8c-.171-.418-.347-.837-.527-1.25a2.877,2.877,0,0,1,5.272-2.307q.3.691.586,1.391a2.882,2.882,0,0,1-2.664,3.962Z" fill="#b8b8b8"/><path d="M183.4,47.783a2.881,2.881,0,0,1-2.643-4.013c.2-.465.4-.927.614-1.388a2.878,2.878,0,0,1,5.229,2.405q-.286.62-.555,1.251A2.876,2.876,0,0,1,183.4,47.783Z" fill="#b8b8b8"/><path d="M423.345,39.807a2.875,2.875,0,0,1-2.433-1.338c-.245-.386-.492-.769-.745-1.148a2.877,2.877,0,1,1,4.785-3.195c.279.416.551.838.821,1.263a2.878,2.878,0,0,1-2.428,4.418Z" fill="#b8b8b8"/><path d="M188.16,38.916a2.878,2.878,0,0,1-2.4-4.458q.417-.635.849-1.256a2.877,2.877,0,0,1,4.723,3.287q-.39.56-.764,1.13A2.876,2.876,0,0,1,188.16,38.916Z" fill="#b8b8b8"/><path d="M417.252,31.812a2.869,2.869,0,0,1-2.13-.941q-.459-.506-.93-.995a2.877,2.877,0,1,1,4.153-3.984q.525.544,1.034,1.107a2.878,2.878,0,0,1-2.127,4.813Z" fill="#b8b8b8"/><path d="M194.408,31.03a2.878,2.878,0,0,1-2.089-4.857q.519-.546,1.048-1.08a2.877,2.877,0,0,1,4.086,4.052q-.483.488-.956.987A2.87,2.87,0,0,1,194.408,31.03Z" fill="#b8b8b8"/><path d="M409.846,25.005a2.871,2.871,0,0,1-1.751-.594q-.542-.419-1.094-.819a2.879,2.879,0,0,1,3.389-4.654q.611.447,1.209.906a2.877,2.877,0,0,1-1.753,5.161Z" fill="#b8b8b8"/><path d="M201.939,24.361a2.877,2.877,0,0,1-1.716-5.19q.607-.448,1.226-.882A2.878,2.878,0,0,1,204.756,23q-.558.392-1.107.8A2.872,2.872,0,0,1,201.939,24.361Z" fill="#b8b8b8"/><path d="M401.359,19.6a2.868,2.868,0,0,1-1.318-.32c-.4-.209-.814-.416-1.227-.617a2.877,2.877,0,1,1,2.521-5.173c.452.221.9.447,1.347.676a2.877,2.877,0,0,1-1.323,5.434Z" fill="#b8b8b8"/><path d="M210.514,19.125a2.877,2.877,0,0,1-1.28-5.455q.677-.336,1.362-.654a2.878,2.878,0,1,1,2.417,5.224c-.412.19-.819.385-1.225.586A2.853,2.853,0,0,1,210.514,19.125Z" fill="#b8b8b8"/><path d="M392.053,15.785a2.926,2.926,0,0,1-.845-.127q-.656-.2-1.318-.39a2.877,2.877,0,1,1,1.565-5.538c.483.136.962.28,1.441.426a2.878,2.878,0,0,1-.843,5.629Z" fill="#b8b8b8"/><path d="M219.878,15.488a2.879,2.879,0,0,1-.8-5.643q.728-.21,1.465-.4a2.877,2.877,0,1,1,1.447,5.569c-.438.114-.873.235-1.308.361A2.867,2.867,0,0,1,219.878,15.488Z" fill="#b8b8b8"/><path d="M382.224,13.682a2.923,2.923,0,0,1-.36-.022q-.672-.082-1.351-.149a2.877,2.877,0,0,1,.556-5.727q.754.072,1.506.166a2.877,2.877,0,0,1-.351,5.732Z" fill="#b8b8b8"/><path d="M229.745,13.564a2.877,2.877,0,0,1-.291-5.739c.5-.052,1-.1,1.509-.137a2.877,2.877,0,1,1,.438,5.738c-.453.036-.906.076-1.357.123A2.721,2.721,0,0,1,229.745,13.564Z" fill="#b8b8b8"/><path d="M372.169,13.258H370.73a2.878,2.878,0,1,1,0-5.755h1.439a2.878,2.878,0,0,1,0,5.755Z" fill="#b8b8b8"/><path d="M362.1,13.258h-1.439a2.878,2.878,0,1,1,0-5.755H362.1a2.878,2.878,0,0,1,0,5.755Z" fill="#b8b8b8"/><path d="M352.027,13.258h-1.439a2.878,2.878,0,0,1,0-5.755h1.439a2.878,2.878,0,0,1,0,5.755Z" fill="#b8b8b8"/><path d="M341.956,13.258h-1.439a2.878,2.878,0,0,1,0-5.755h1.439a2.878,2.878,0,0,1,0,5.755Z" fill="#b8b8b8"/><path d="M331.885,13.258h-1.439a2.878,2.878,0,0,1,0-5.755h1.439a2.878,2.878,0,0,1,0,5.755Z" fill="#b8b8b8"/><path d="M321.814,13.258h-1.439a2.878,2.878,0,0,1,0-5.755h1.439a2.878,2.878,0,0,1,0,5.755Z" fill="#b8b8b8"/><path d="M311.743,13.258H310.3a2.878,2.878,0,0,1,0-5.755h1.439a2.878,2.878,0,0,1,0,5.755Z" fill="#b8b8b8"/><path d="M301.672,13.258h-1.439a2.878,2.878,0,0,1,0-5.755h1.439a2.878,2.878,0,0,1,0,5.755Z" fill="#b8b8b8"/><path d="M291.6,13.258h-1.439a2.878,2.878,0,0,1,0-5.755H291.6a2.878,2.878,0,0,1,0,5.755Z" fill="#b8b8b8"/><path d="M281.53,13.258h-1.439a2.878,2.878,0,0,1,0-5.755h1.439a2.878,2.878,0,0,1,0,5.755Z" fill="#b8b8b8"/><path d="M271.459,13.258H270.02a2.878,2.878,0,0,1,0-5.755h1.439a2.878,2.878,0,0,1,0,5.755Z" fill="#b8b8b8"/><path d="M261.388,13.258h-1.439a2.878,2.878,0,0,1,0-5.755h1.439a2.878,2.878,0,1,1,0,5.755Z" fill="#b8b8b8"/><path d="M251.317,13.258h-1.439a2.878,2.878,0,0,1,0-5.755h1.439a2.878,2.878,0,1,1,0,5.755Z" fill="#b8b8b8"/><path d="M241.246,13.258h-1.439a2.878,2.878,0,0,1,0-5.755h1.439a2.878,2.878,0,1,1,0,5.755Z" fill="#b8b8b8"/><path d="M384.139,120.649a2.873,2.873,0,0,0,1.51,5.317,2.907,2.907,0,0,0,.531-.049c.3-.055.59-.117.885-.176A8.936,8.936,0,0,0,384.139,120.649Z" fill="#b8b8b8"/><path d="M255.808,121.548a11,11,0,0,0-3.3,5.323,2.806,2.806,0,0,0,.443.045h1.438a2.869,2.869,0,0,0,1.417-5.368Z" fill="#b8b8b8"/><circle cx="451.482" cy="261.541" r="35.518" fill="#fec94e"/><path d="M446.248,278.064a1.945,1.945,0,0,1-1.356-.55l-15.136-14.7a1.946,1.946,0,1,1,2.711-2.792l13.578,13.19,22.884-29.422a1.946,1.946,0,0,1,3.071,2.39l-24.217,31.137a1.941,1.941,0,0,1-1.4.746C446.338,278.063,446.292,278.064,446.248,278.064Z" fill="#c78e00"/></svg>