<svg xmlns="http://www.w3.org/2000/svg" viewBox="0 0 636 300"><title>swimlane-license-certificates</title><path d="M347.4,281.5H111.6a5.115,5.115,0,0,1-5.1-5.1V118.6a5.115,5.115,0,0,1,5.1-5.1H347.4a5.115,5.115,0,0,1,5.1,5.1V276.4A5.115,5.115,0,0,1,347.4,281.5Z" fill="#439ad6"/><path d="M348.4,280.5H112.6a5.115,5.115,0,0,1-5.1-5.1V117.6a5.115,5.115,0,0,1,5.1-5.1H348.4a5.115,5.115,0,0,1,5.1,5.1V275.4A5.115,5.115,0,0,1,348.4,280.5Z" fill="#8fc3ec"/><path d="M325.5,135.5h-190v12h190Z" fill="#d9ebf9"/><path d="M325.5,173.5h-96v9h96Z" fill="#d9ebf9"/><path d="M325.5,193.5h-96v9h96Z" fill="#d9ebf9"/><path d="M325.5,213.5h-96v9h96Z" fill="#d9ebf9"/><path d="M294.5,233.5h-65v9h65Z" fill="#d9ebf9"/><path d="M152.5,183.5v76l17-11.5,17,11.5v-76Z" fill="#439ad6"/><path d="M169.333,158.667l8.4,10.4,12.8-4.4,1.3,13.4,13.1,3.4-6,12.1,9.1,9.7-11.4,7.1,2.4,13.1-13.4-.3-5,12.4-11.3-7.7-11.1,7.7-5-12.4-13.4.3,2.4-13.1-11.4-7.1,9.1-9.7-6-12.1,13.1-3.4,1.3-13.4,12.8,4.4Z" fill="#106ebe"/><path d="M169.033,220.167a22.5,22.5,0,1,0-22.5-22.5A22.534,22.534,0,0,0,169.033,220.167Z" fill="#fff"/><path d="M169.033,217.267a19.7,19.7,0,1,0-19.7-19.7A19.674,19.674,0,0,0,169.033,217.267Z" fill="#f0ae00"/><path d="M167.333,206.167l-9.5-8.3,2-2.4,7.2,6.3,11.4-13.4,2.4,2Z" fill="#fff"/><path d="M342.5,271.5h-225v-149h225Zm-224-1h223v-147h-223Z" fill="#d9ebf9"/><path d="M533.1,178.5H296a4.5,4.5,0,0,1-4.5-4.5V15a4.5,4.5,0,0,1,4.5-4.5H533a4.5,4.5,0,0,1,4.5,4.5V173.9A4.364,4.364,0,0,1,533.1,178.5Z" fill="#939393"/><path d="M534.1,177.5H297a4.5,4.5,0,0,1-4.5-4.5V14A4.5,4.5,0,0,1,297,9.5H534a4.5,4.5,0,0,1,4.5,4.5V172.9A4.364,4.364,0,0,1,534.1,177.5Z" fill="#ccc"/><path d="M510.5,75.5h-96v5h96Z" fill="#e6e6e6"/><path d="M510.5,88.5h-96v5h96Z" fill="#e6e6e6"/><path d="M510.5,101.5h-96v5h96Z" fill="#e6e6e6"/><rect x="414.5" y="162.5" width="96" height="1" fill="#b2b2b2"/><rect x="414.5" y="125.5" width="96" height="1" fill="#b2b2b2"/><rect x="402.5" y="65.5" width="1" height="98" fill="#fff"/><path d="M465.079,149.745l-.291-.957a1.231,1.231,0,0,0,.983-1.3c-.148-.864-1.8-2.255-7.014-2.024-5.569.276-8.9.132-9.463-1.411-.334-.924.409-2.032,2.339-3.488,3.973-3,3.672-3.79,3.657-3.822s-.491-.9-6.551.41c-19.123,4.118-26.961,12.465-27.038,12.549l-.736-.676c.322-.351,8.132-8.665,27.563-12.85,6.094-1.315,7.3-.662,7.671.151.482,1.052-.741,2.606-3.965,5.037-2.13,1.608-2.04,2.238-2,2.348.417,1.148,6.482.85,8.475.754,6.964-.308,7.919,2.1,8.048,2.852A2.213,2.213,0,0,1,465.079,149.745Z" fill="#b2b2b2"/><path d="M489.614,151.491c-1.548,0-2.226-.528-2.508-1.1a2.531,2.531,0,0,1,.445-2.47,7.963,7.963,0,0,1-1.155-.323,3.617,3.617,0,0,1-2.552-2.529,1.853,1.853,0,0,0-1.073-1.526c-2.89-1.127-11.134,4.86-13.843,6.827l-.588-.808c7.989-5.8,12.412-7.884,14.8-6.95a2.8,2.8,0,0,1,1.687,2.256,2.76,2.76,0,0,0,1.918,1.791,7.448,7.448,0,0,0,1.488.366,16.286,16.286,0,0,1,2.813-2.466c3.943-2.815,5.239-1.942,5.614-1.434.649.873.026,2.427-1.418,3.537s-4.168,1.64-6.577,1.419c-.634.831-.842,1.492-.657,1.868.29.59,1.877.9,5.385-.162,7.632-2.309,12.822-1.352,13.039-1.312l-.189.982c-.051-.01-5.185-.943-12.561,1.287A14.548,14.548,0,0,1,489.614,151.491Zm-.108-4.358a8.784,8.784,0,0,0,5.123-1.263c1.078-.83,1.451-1.843,1.225-2.149-.171-.228-1.317-.427-4.23,1.653A17.055,17.055,0,0,0,489.506,147.133Z" fill="#b2b2b2"/><path d="M454.668,148.737,454,148c6.276-5.678,15.317-10.327,15.408-10.374l.455.891C469.771,138.558,460.846,143.149,454.668,148.737Z" fill="#b2b2b2"/><path d="M321.5,9.5v168h44.422l15.578-.7V9.5Z" fill="#b2b2b2"/><path d="M334.5,104.5V164L353,151.2,371.5,164V104.5Z" fill="#e81123"/><path d="M352.833,71.467l6.7-10.5,2.8,12.2,10-7.6-1.6,12.5,11.9-3.8-5.7,11.2,12.5.6-9.2,8.5,11.5,4.8-11.5,4.8,9.2,8.5-12.5.6,5.7,11.1-11.9-3.7,1.6,12.4-10-7.5-2.8,12.2-6.7-10.6-6.8,10.6-2.8-12.2-9.9,7.5,1.6-12.4-12,3.7,5.8-11.1-12.6-.6,9.2-8.5-11.5-4.8,11.5-4.8-9.2-8.5,12.6-.6-5.8-11.2,12,3.8-1.6-12.5,9.9,7.6,2.8-12.2Z" fill="#a80000"/><path d="M352.533,123.867a24.1,24.1,0,1,0-24.1-24.1A24.113,24.113,0,0,0,352.533,123.867Z" fill="#ffb900"/><path d="M352.533,118.967a19.2,19.2,0,1,0-19.2-19.2A19.2,19.2,0,0,0,352.533,118.967Z" fill="#ff8c00"/><path d="M350.733,108.967l-10.2-8.9,2.2-2.6,7.7,6.7,12.2-14.3,2.6,2.2Z" fill="#fff"/><path d="M520.5,29.5h-212v17h212Z" fill="#e6e6e6" opacity="0.75" style="isolation:isolate"/></svg>