<svg xmlns="http://www.w3.org/2000/svg" viewBox="0 0 636 300"><title>swimlane-angular-react-spa</title><path d="M523.759,174.527h-54.7a3.009,3.009,0,1,1-.158-6h25.975c9.783,0,18.135-7.607,18.462-17.384a18,18,0,0,0-17.99-18.616H481.735c-5.073,0-5.378-7,0-7h17a13.826,13.826,0,0,0,13.271-9.494,14.046,14.046,0,0,0-13.3-18.506h-70.1c-4.571,0-4.5-6-.285-6h95.012a13.779,13.779,0,0,0,13.91-12.889,13.5,13.5,0,0,0-13.486-14.111H433.43l-.3-4h4.289c9.783,0,18.135-7.607,18.461-17.384a18,18,0,0,0-17.989-18.616H340.433A18.134,18.134,0,0,0,322.359,41.26a18.074,18.074,0,0,0-13.211-5.733H212.165c-9.783,0-18.135,7.606-18.461,17.384a18,18,0,0,0,17.99,18.616h1.434s2.872,4,0,4H145.6a13.779,13.779,0,0,0-13.91,12.889,13.5,13.5,0,0,0,13.486,14.111h42.691c4.5,0,4.95,6,0,6H120.6a13.824,13.824,0,0,0-13.27,9.494,14.045,14.045,0,0,0,13.3,18.506h34.693c5.172.341,5.061,5.953,1.141,7H117.2c-9.783,0-18.135,7.606-18.461,17.384a18,18,0,0,0,17.989,18.616h79.436c4.5,0,4.6,6,0,6H145.6a13.779,13.779,0,0,0-13.91,12.889,13.5,13.5,0,0,0,13.486,14.111h2.184c5.79,0,4.291,6,.292,6H120.8a13.779,13.779,0,0,0-13.91,12.889,13.5,13.5,0,0,0,13.486,14.111H188.8c3.106,0,3.409,3.636,0,3.636a18.19,18.19,0,0,0-17.992,20.844,18.394,18.394,0,0,0,18.344,15.52H329.713a18.147,18.147,0,0,0,16.68-11H457.981c9.783,0,18.135-7.607,18.462-17.384a18,18,0,0,0-17.99-18.616h-10.2c-3.249,0-3.249-4-.08-4h50.367a13.779,13.779,0,0,0,13.91-12.889,13.5,13.5,0,0,0-13.486-14.111H479.575c-4.357,0-3.929-6,.066-6h43.694a13.779,13.779,0,0,0,13.91-12.889A13.5,13.5,0,0,0,523.759,174.527Z" fill="#cee0ec"/><rect x="235" y="10.527" width="181" height="245" rx="4.232" fill="#737373"/><rect x="240" y="16.527" width="171" height="234" rx="2.512" fill="#fff"/><path d="M413,31.527V15.656a2.9,2.9,0,0,0-2.589-3.129H240.589A2.9,2.9,0,0,0,238,15.656V31.527Z" fill="#737373"/><rect x="248.903" y="20.165" width="61.12" height="7.29" fill="#939393"/><rect x="256" y="48.527" width="65" height="4" fill="#b5d5ea"/><rect x="255.5" y="72.027" width="64" height="35" fill="none" stroke="#b5d5ea" stroke-miterlimit="10" stroke-width="0.996"/><rect x="290" y="116.527" width="30" height="31" fill="#b5d5ea"/><rect x="331" y="48.527" width="65" height="4" fill="#b5d5ea"/><rect x="331" y="57.527" width="55" height="4" fill="#b5d5ea"/><rect x="331" y="218.527" width="65" height="4" fill="#b5d5ea"/><rect x="331" y="227.527" width="55" height="4" fill="#b5d5ea"/><rect x="331" y="122.527" width="65" height="4" fill="#b5d5ea"/><rect x="331" y="130.527" width="27" height="4" fill="#b5d5ea"/><rect x="331" y="139.527" width="27" height="4" fill="#b5d5ea"/><rect x="331.5" y="153.027" width="48" height="58" fill="none" stroke="#b5d5ea" stroke-miterlimit="10" stroke-width="0.952"/><rect x="255" y="57.527" width="48" height="4" fill="#b5d5ea"/><rect x="256" y="208.527" width="65" height="4" fill="#b5d5ea"/><rect x="255" y="216.527" width="48" height="4" fill="#b5d5ea"/><rect x="256" y="116.527" width="28" height="4" fill="#b5d5ea"/><rect x="256" y="125.527" width="28" height="4" fill="#b5d5ea"/><rect x="256" y="225.527" width="28" height="4" fill="#b5d5ea"/><rect x="256" y="133.527" width="22" height="4" fill="#b5d5ea"/><path d="M229.839,83.041,188.646,96.486l6.283,49.853,34.91,17.7,34.911-17.7,6.283-49.853Z" fill="#dd0031"/><path d="M229.839,83.041v81l34.911-17.7,6.283-49.853Z" fill="#c3002f"/><path d="M229.839,91.991l-25.751,52.85h9.6l5.177-11.826h21.858l5.177,11.826h9.6Zm7.522,33.735H222.317l7.522-16.564Z" fill="#fff"/><path d="M370.539,134.527h72.922A3.538,3.538,0,0,1,447,138.066v72.922a3.539,3.539,0,0,1-3.539,3.539H370.539A3.539,3.539,0,0,1,367,210.988V138.066A3.538,3.538,0,0,1,370.539,134.527Z" fill="#222"/><circle cx="406.857" cy="174.265" r="6.718" fill="#00d8ff"/><path d="M406.857,189.66a99.482,99.482,0,0,1-12.826-.782A57.652,57.652,0,0,1,383,186.435a30.341,30.341,0,0,1-9.824-5.261c-2.572-2.2-3.931-4.592-3.931-6.912,0-2.254,1.291-4.55,3.735-6.64a29.391,29.391,0,0,1,9.316-5,62.445,62.445,0,0,1,11.271-2.667,90.579,90.579,0,0,1,13.29-.955c8.966,0,17.573,1.262,24.236,3.555a30.573,30.573,0,0,1,9.5,5.013c2.531,2.112,3.869,4.427,3.869,6.694,0,2.358-1.413,4.767-4.087,6.968a32,32,0,0,1-10.146,5.232,60.473,60.473,0,0,1-10.833,2.393A94.246,94.246,0,0,1,406.857,189.66Zm0-27.447a87.327,87.327,0,0,0-12.817.921,59.3,59.3,0,0,0-10.687,2.522,26.224,26.224,0,0,0-8.284,4.408c-1.684,1.44-2.611,2.931-2.611,4.2,0,1.333,1,2.921,2.808,4.471a27.149,27.149,0,0,0,8.773,4.661,54.358,54.358,0,0,0,10.41,2.3,96.232,96.232,0,0,0,12.408.755c8.515,0,16.458-1.078,22.366-3.036a28.817,28.817,0,0,0,9.115-4.662c1.88-1.548,2.916-3.141,2.916-4.487,0-1.265-.964-2.766-2.714-4.226a27.355,27.355,0,0,0-8.493-4.442A73.8,73.8,0,0,0,406.857,162.213Z" fill="#00d8ff"/><path d="M391.6,207.766a7.088,7.088,0,0,1-3.589-.882c-1.952-1.126-3.3-3.392-3.886-6.552a29.4,29.4,0,0,1,.32-10.569,62.357,62.357,0,0,1,3.32-11.1,90.486,90.486,0,0,1,5.814-11.989h0c4.478-7.767,9.872-14.592,15.189-19.218a30.57,30.57,0,0,1,9.092-5.73c3.094-1.137,5.767-1.139,7.731-.007,2.042,1.178,3.423,3.605,3.994,7.021a31.992,31.992,0,0,1-.537,11.406,60.445,60.445,0,0,1-3.339,10.58,94.214,94.214,0,0,1-5.57,11.269,99.3,99.3,0,0,1-7.084,10.719,57.587,57.587,0,0,1-7.627,8.337,30.344,30.344,0,0,1-9.465,5.882A13.259,13.259,0,0,1,391.6,207.766Zm30.555-63.683a9.455,9.455,0,0,0-3.186.659,27.377,27.377,0,0,0-8.091,5.137,73.719,73.719,0,0,0-14.516,18.4h0a87.243,87.243,0,0,0-5.607,11.561,59.138,59.138,0,0,0-3.153,10.522,26.24,26.24,0,0,0-.318,9.38c.407,2.177,1.235,3.725,2.333,4.359,1.154.665,3.028.595,5.276-.2a27.166,27.166,0,0,0,8.42-5.272,54.407,54.407,0,0,0,7.19-7.87,96.32,96.32,0,0,0,6.853-10.371c4.254-7.375,7.288-14.8,8.545-20.893a28.817,28.817,0,0,0,.515-10.227c-.4-2.4-1.265-4.095-2.43-4.767A3.644,3.644,0,0,0,422.153,144.083Z" fill="#00d8ff"/><path d="M422.127,207.786a12.464,12.464,0,0,1-4.1-.777,29.39,29.39,0,0,1-9-5.556,62.463,62.463,0,0,1-7.954-8.418,90.553,90.553,0,0,1-7.485-11.023h0c-4.492-7.761-7.711-15.843-9.064-22.757a30.561,30.561,0,0,1-.424-10.739c.56-3.249,1.893-5.566,3.856-6.7,2.039-1.181,4.832-1.166,8.077.045a32.03,32.03,0,0,1,9.612,6.16,60.541,60.541,0,0,1,7.5,8.177,94.255,94.255,0,0,1,6.98,10.454,99.517,99.517,0,0,1,5.75,11.491,57.565,57.565,0,0,1,3.412,10.77,30.331,30.331,0,0,1,.368,11.138c-.617,3.329-2,5.7-4.013,6.864A6.922,6.922,0,0,1,422.127,207.786ZM396.37,180.4a87.48,87.48,0,0,0,7.217,10.631,59.26,59.26,0,0,0,7.537,7.984,26.221,26.221,0,0,0,7.968,4.961c2.089.735,3.844.79,4.941.155,1.153-.668,2.028-2.326,2.463-4.669a27.134,27.134,0,0,0-.362-9.928,54.255,54.255,0,0,0-3.226-10.158,96.268,96.268,0,0,0-5.564-11.117c-4.267-7.372-9.179-13.707-13.831-17.838a28.829,28.829,0,0,0-8.6-5.552c-2.281-.852-4.179-.949-5.344-.275-1.095.634-1.911,2.219-2.3,4.466a27.4,27.4,0,0,0,.41,9.575A73.835,73.835,0,0,0,396.37,180.4Z" fill="#00d8ff"/><rect x="337" y="67.527" width="54" height="45" fill="none" stroke="#b5d5ea" stroke-miterlimit="10" stroke-width="1.615" stroke-dasharray="1.92 2.88"/><path d="M371.756,87.757a5,5,0,1,1,5-5.005A5.01,5.01,0,0,1,371.756,87.757Z" fill="#b5d5ea"/><path d="M377.053,89.73l-6.58,4.536a1.812,1.812,0,0,1-2.13-.054l-13.308-10.2a1.81,1.81,0,0,0-2.342.118l-9.123,8.58a1.812,1.812,0,0,0-.57,1.319v9.69a1.811,1.811,0,0,0,1.811,1.811h37.378A1.811,1.811,0,0,0,384,103.716V93.882a1.812,1.812,0,0,0-.826-1.52L379.065,89.7A1.809,1.809,0,0,0,377.053,89.73Z" fill="#b5d5ea"/><rect x="255" y="154.527" width="54" height="45" fill="none" stroke="#b5d5ea" stroke-miterlimit="10" stroke-width="1.615" stroke-dasharray="1.92 2.88"/><path d="M290.692,174.873a5,5,0,1,1,5-5A5.011,5.011,0,0,1,290.692,174.873Z" fill="#b5d5ea"/><path d="M296.053,176.73l-6.58,4.536a1.812,1.812,0,0,1-2.13-.054l-13.308-10.2a1.81,1.81,0,0,0-2.342.118l-9.123,8.58a1.812,1.812,0,0,0-.57,1.319v9.69a1.811,1.811,0,0,0,1.811,1.811h37.378A1.811,1.811,0,0,0,303,190.716v-9.834a1.812,1.812,0,0,0-.826-1.52l-4.109-2.661A1.809,1.809,0,0,0,296.053,176.73Z" fill="#b5d5ea"/></svg>