<svg xmlns="http://www.w3.org/2000/svg" viewBox="0 0 636 300"><defs><style>.a{fill:#b3d6f2}.b{fill:#69afe5}.c{fill:#2488d8}.d{fill:#11334b}.e{fill:#004880}.f{fill:#99bcd7}.g{fill:#854cc7}.h{fill:#fff}.i{fill:#6597bf}.j{fill:#6d6e71}.k{fill:#3d1a68}.l{fill:#d0b28d}.m{fill:#666}.n{fill:#b89e7c}.o{fill:#fff000}.p{fill:#f0ae00}.q{fill:#394453}.r{fill:#939393}.s{fill:#5c2d91}.t{fill:#8867c8}.u{fill:#002f33}.v{fill:#d9c1a4}.w{fill:#ee4d5a}.x{fill:#f7d7c4}.y{fill:none}</style></defs><title>swimlane-dotnet-enterprise</title><path class="a" d="M198.793 2L175 25.794V276h108V2h-84.207zM356 17h108v274H356z"/><path class="b" d="M546 296V79h-20V59h-20V39H398v257h148z"/><path class="c" d="M124 102v33H90v163h118V102h-84z"/><path class="d" d="M308 43h26v255h-26zM436 64h26v232h-26z"/><path class="e" d="M201 43h107v255H201z"/><path class="f" d="M112 155h12v12h-12zM142 155h12v12h-12zM172 155h12v12h-12zM112 185h12v12h-12zM142 185h12v12h-12zM172 185h12v12h-12zM112 215h12v12h-12zM142 215h12v12h-12zM172 215h12v12h-12zM112 245h12v12h-12zM142 245h12v12h-12zM172 245h12v12h-12z"/><path class="a" d="M510 101h13v168h-13zM480 101h13v168h-13z"/><path class="e" d="M330 64h108v233H330z"/><path class="g" d="M342 82h85v8h-85z"/><path class="h" d="M410 82h17v8h-17z"/><path class="g" d="M342 101h85v8h-85z"/><path class="h" d="M410 101h17v8h-17z"/><path class="g" d="M342 120h85v8h-85z"/><path class="h" d="M410 120h17v8h-17z"/><path class="g" d="M342 139h85v8h-85z"/><path class="h" d="M410 139h17v8h-17z"/><path class="g" d="M212 61h85v8h-85z"/><path class="h" d="M280 61h17v8h-17z"/><path class="g" d="M212 80h85v8h-85z"/><path class="h" d="M280 80h17v8h-17z"/><path class="g" d="M212 99h85v8h-85z"/><path class="h" d="M280 99h17v8h-17z"/><path class="g" d="M212 118h85v8h-85z"/><path class="h" d="M280 118h17v8h-17z"/><path class="g" d="M212 137h85v8h-85z"/><path class="h" d="M280 137h17v8h-17z"/><path class="g" d="M212 156h85v8h-85z"/><path class="h" d="M280 156h17v8h-17z"/><path class="g" d="M212 175h85v8h-85z"/><path class="h" d="M280 175h17v8h-17z"/><path class="g" d="M212 194h85v8h-85z"/><path class="h" d="M280 194h17v8h-17z"/><path class="g" d="M342 158h85v8h-85z"/><path class="h" d="M410 158h17v8h-17z"/><path class="g" d="M342 177h85v8h-85z"/><path class="h" d="M410 177h17v8h-17z"/><path class="g" d="M342 196h85v8h-85z"/><path class="h" d="M410 196h17v8h-17z"/><path class="g" d="M342 215h85v8h-85z"/><path class="h" d="M410 215h17v8h-17z"/><path class="g" d="M342 232h85v8h-85z"/><path class="h" d="M410 232h17v8h-17z"/><path class="g" d="M342 251h85v8h-85z"/><path class="h" d="M410 251h17v8h-17z"/><path class="g" d="M342 270h85v8h-85z"/><path class="h" d="M410 270h17v8h-17z"/><path class="g" d="M212 213h85v8h-85z"/><path class="h" d="M280 213h17v8h-17z"/><path class="g" d="M212 232h85v8h-85z"/><path class="h" d="M280 232h17v8h-17z"/><path class="g" d="M212 251h85v8h-85z"/><path class="h" d="M280 251h17v8h-17z"/><path class="g" d="M212 270h85v8h-85z"/><path class="h" d="M280 270h17v8h-17z"/><path class="c" d="M240 155h157v141H240z"/><path class="f" d="M248 162h150v134H248z"/><path class="i" d="M378.079 288H262.921a4.112 4.112 0 0 1-4.022-4 4.022 4.022 0 0 1 4.022-4H378.08a3.94 3.94 0 0 1 4.022 4 4.022 4.022 0 0 1-4.022 4z"/><path class="j" d="M336.835 247l-42.355.254L289.546 284h1.589l4.701-35 17.24-.186L308.351 284h1.804l4.701-35 20.71-.223L342.347 284h1.612l-7.124-37z"/><path class="k" d="M308.008 200.065c-4.524-.174-12.159 0-15.311 0s-4.691.264-4.621 3.164c.178 7.39 1.4 33.225 1.788 39.159.2 3.152 2.354 5.538 7.308 5.612h44.223a5.894 5.894 0 0 0-5.6-5h-14.5c0 .311-7.016-31.858-7.966-36.343-1.009-4.747-2.352-6.478-5.321-6.592z"/><path d="M341 284v-6h6.459a8.545 8.545 0 0 1 8.041 6z"/><path class="l" d="M347.252 278a8.208 8.208 0 0 1 7.23 4h-9.215a4.446 4.446 0 0 1-4.368-4z"/><path class="m" d="M329 236h8.965c5.486 0 9.9 5.626 10.035 10.985v.164c0 25.358-.059 29.335-.069 29.824a.059.059 0 0 1-.061.06c-1.959-.011-6.051 0-6.575 0a.064.064 0 0 1-.061-.063c-2.13-25.449-2.2-31.291-2.2-31.912l-.062-.059c-5.837 0-15.329.127-15.329.127-5.728 0-10.258-3.584-10.3-9.054l.072-.073H329z"/><path class="m" d="M319 237v-1h7.453c5.553.19 10.022 5.885 10.547 11.31v31.261c-3.454.024-7.372.024-7.372.024-1.741-22.144-2.044-29.954-2.089-32.447a1.06 1.06 0 0 0-1.072-1.046l-14.505.126c-5.824 0-10.429-3.342-10.429-8.228z"/><path d="M330 284v-6h6.385a8.616 8.616 0 0 1 8.115 6z"/><path class="l" d="M336.2 278a8.707 8.707 0 0 1 7.412 4h-9.472a4.549 4.549 0 0 1-4.529-4zM306 198.459V191h7.25l.125 7.375a.94.94 0 0 0 .875.625H318v17h-16v-17h3.459a.543.543 0 0 0 .541-.541z"/><path class="n" d="M315.522 199.387c0 .134.125.134.125.613H318v12.247c-.724.134-.974.268-.849.753h-.125c0-.083-.125-.083-.026-.217v-.268c.026-4.287-1.478-13.128-1.478-13.128z"/><path class="o" d="M324.552 236s-9.746 11.526-23.552 11.526V236zM302.506 200h3.511c2.835 4.834 6.211 9.512 10.667 12.648.81-3.92.4-8.336-.4-12.648h.675a9.19 9.19 0 0 1 9.041 8.99V215h-2v21h-23v-21h-7v-6.533a8.812 8.812 0 0 1 8.506-8.467z"/><path class="p" d="M324 214.953V236h-10.022z"/><path class="l" d="M294 214h7v4.481a.87.87 0 0 0 .648.811c2.7.972 13.987 4.445 13.987 4.445 9.463 0 9.865 5.557 9.865 5.557a51.024 51.024 0 0 1-10.468-1.639c-6.8-.445-17.662-2.011-17.662-2.011a4.072 4.072 0 0 1-3.37-4.19V214z"/><path class="n" d="M294 217.005V215h7.016L294 217.005z"/><path class="m" d="M316 229h-8.766a.235.235 0 0 1-.234-.234v-2.092a.262.262 0 0 1 .234-.251l8.766-.25z"/><path class="q" d="M316 229h27.325c.4 0 .675-.5.675-1.25V226h-28z"/><path class="r" d="M320.279 205h26.4a.632.632 0 0 1 .677.813L344.106 226h-27.889l3.249-20.458a.744.744 0 0 1 .813-.542z"/><path class="s" d="M369 230v54h-2.2s-4.392-38.545-5.051-42.059-2.2-4.941-7.138-4.941h-67.2c-4.946 0-6.485 1.429-7.144 4.946s-5.2 42.054-5.2 42.054H273l.144-54H369z"/><path class="t" d="M263 228h116v3H263z"/><path class="n" d="M306.031 195.1s1.833 3.688 4.143 4.688a14.37 14.37 0 0 0 5.59.784l-.117-1.388s-1.085-.009-1.179-1.771c-.095-1.804-8.437-2.313-8.437-2.313z"/><path class="u" d="M321.687 186.126a11.426 11.426 0 0 0-10.23-12.341 11.255 11.255 0 0 0-12.229 10.23l-.6 13.148a9.647 9.647 0 0 0 6.114-2.613l1.2-2.206 8.425-2.813 1 2.314a8.3 8.3 0 0 0 5.521 5.717z"/><path class="v" d="M311.158 198.365c4.007.4 7.614-3.413 7.916-7.421l.909-9.535-15.646-1.5-.9 9.626c-.503 5.017 3.704 8.429 7.721 8.83z"/><path class="l" d="M313.2 191.145c.3 0 .6-.2.5-.509a.924.924 0 0 0-.1-.5 9.356 9.356 0 0 1-.6-2.9v-.5a1.79 1.79 0 0 1 2.005-1.8l4.71.4-.2 1.4-.2 2.806-.2 1.412a8.6 8.6 0 0 1-5.11 7.02c-.2.1-.4.1-.6.2l-1-4.917a2.217 2.217 0 0 0-.8-1.3l-1.5-1.1z"/><path class="w" d="M308.844 193.15a3.641 3.641 0 0 0 2.915 2.8 3.6 3.6 0 0 0 3.3-2.2z"/><path class="h" d="M308.844 193.15a2.958 2.958 0 0 0 2.915 2.2 3.02 3.02 0 0 0 3.3-1.6z"/><path d="M309.153 187.43a.754.754 0 0 0-.709-.9.9.9 0 0 0-1 .7 1.425 1.425 0 0 0 .2.7l1.2.1a.6.6 0 0 0 .309-.6zM317.67 188.231a.973.973 0 0 0-.8-1 .883.883 0 0 0-.9.8.623.623 0 0 0 .2.7l1.1.1c.2-.098.301-.401.4-.6z"/><path class="x" d="M301.532 183.313a2.824 2.824 0 0 0-1.605 2.311 2.859 2.859 0 0 0 1.2 2.606z"/><path class="w" d="M299.727 187.731a.876.876 0 0 0 .8.9.739.739 0 0 0 .6-.2l.1-1.2a.714.714 0 0 0-.6-.3.738.738 0 0 0-.6.2.862.862 0 0 0-.3.6z"/><path class="u" d="M303.534 184.315l9.528.61 2.205-2.011-.101 2.11 5.018.302-.2-4.819-16.548-1.401.098 5.209z"/><circle class="y" cx="235.5" cy="102.666" r="4.36"/><circle class="y" cx="383.5" cy="123.666" r="4.36"/><path class="y" d="M317.426 220l.307-2H261V102h-25v2h23v116h58.426zM383 124v90h-36.769l-.322 2H385v-92h-2z"/></svg>