<svg xmlns="http://www.w3.org/2000/svg" viewBox="0 0 636 300"><title>swimlane-share-code-snippets</title><path d="M360.985,256.5H89.147a18.162,18.162,0,0,1-18.162-18.163V45.5h290Z" fill="#459bdd"/><polygon points="122.36 57.5 122.568 60.5 345.985 60.5 345.985 239.5 135.128 239.5 135.321 242.281 134.985 242.45 134.985 242.5 348.985 242.5 348.985 57.5 122.36 57.5" fill="#49cdf3"/><rect x="231.485" y="175" width="129.5" height="57" fill="#2488d8"/><path d="M233.694,99.727,252.758,61.8a10.724,10.724,0,0,1,.6-1,11.589,11.589,0,0,1,3.973-3.719l9.754-7.832c.245.152.485.311.733.459l0,0,2.11-1.649L273.3,45.47H221.225S186.745,55.719,186,56.855L175.856,72.277a3.2,3.2,0,0,0-.273,3l.819,1.936,2.646,6.258-.148.362a4.434,4.434,0,0,0-.318,1.943l1.083,17.047c0,.628-66.873,16.467-66.873,16.467l7.84,56.458,151.546-21.044-7.84-56.458Zm-23.081,5.982-12.093,1.679c-.1-.834-.16-1.325-.16-1.325s2.187-15.313,4.5-20c5.193-2.54,10.34.5,11.757,3.252.131.319.228.55.283.677a20.2,20.2,0,0,1,1.085,6.508Z" fill="#2488d8"/><path d="M185.575,57.5l-1.973,3h69.981a11,11,0,0,1,1.86-2.087,12.5,12.5,0,0,1,1.217-.913Z" fill="#459bdd"/><rect x="345.985" y="222.25" width="3" height="9.75" fill="#459bdd"/><path d="M82.443,45.5l.012,166.854L70.64,225.562V237.9A18.163,18.163,0,0,0,83.646,255.3c2.143,1.328,15.575.819,24.156.819l27.185-13.911L121.532,45.5Z" fill="#1070c4"/><path d="M79.131,220.241V216.07l-3.055,3.415v.756c0,13.689,8,22.195,20.868,22.195H134.55l.437-.224-.193-2.83H96.944C85.789,239.382,79.131,232.226,79.131,220.241Z" fill="#459bdd"/><polygon points="82.985 57.5 82.985 60.5 122.561 60.5 122.357 57.5 82.985 57.5" fill="#459bdd"/><path d="M97.453,6.537h-7A19.813,19.813,0,0,0,70.64,26.349v210.84a19.814,19.814,0,0,1,19.813-19.813H113.4Z" fill="#09538f"/><rect x="238.985" y="166.5" width="153" height="57" fill="#ffcb40"/><polygon points="266.527 190.574 251.324 182.937 251.324 181.894 266.527 173.373 266.527 176.025 255.177 182.318 255.177 182.389 266.527 187.94 266.527 190.574" fill="#505050"/><polygon points="357.36 206.863 342.157 214.5 342.157 211.866 353.542 206.35 353.542 206.244 342.157 199.951 342.157 197.299 357.36 205.82 357.36 206.863" fill="#505050"/><rect x="272.985" y="179.5" width="101" height="4" fill="#f0ae00"/><rect x="272.985" y="191.5" width="101" height="4" fill="#f0ae00"/><rect x="251.985" y="203.5" width="85" height="4" fill="#f0ae00"/><path d="M446.594,199.455l3.034-12.666a3.7,3.7,0,0,0-.123-2.127l-4.256-11.637a3.69,3.69,0,0,0-1.526-1.871l-8.761-5.419-.531.671a5.7,5.7,0,0,0-1.218,3.539l-7.572-9.765a4.72,4.72,0,0,0-.993-.952L413.419,151.3l-1.091,1.542a6.044,6.044,0,0,0,.59,7.676l6.5,6.734,6.4,10.4,1.466,9.181-4.389-10.91a4.935,4.935,0,0,0-1.269-1.824l-14.27-12.966a5.243,5.243,0,0,0-1.751-1.168l-16.847-6.85-1.026,2.648a6.208,6.208,0,0,0,2.3,7.389l9.394,5.435,11.5,12.725,1.639,5.183-9.858-7.809a4.408,4.408,0,0,0-4.381-.635l-6.348,2.138v11.287l6.6-.027,8.946,7.906,3.1,16.421a9.9,9.9,0,0,1-9.413,11.729l-2.65.084-13.521-7.7-2.012-6.147a8.529,8.529,0,0,0-.349-.932,43.525,43.525,0,0,1-8.569,10.88l1.159,4.719,19.378,19.233,52.712,26.12,18.594-26.337Z" fill="#ce9c5f"/><polygon points="439.052 188.982 437.03 175.88 438.863 177.52 439.927 186.599 439.052 188.982" fill="#ce9c5f"/><path d="M449.115,255.151a31.338,31.338,0,0,0-15.658-6.578l-25.084-3.109a12.172,12.172,0,0,1-4.991-2.433l-12.53-10.186c-4.431-4.5-5.8-12.948-5.8-12.948l-2.012-6.148c-.09-.317-.475-1.212-.343-.916-2.632-5.883-10.234-8.265-13.6-5.184l6.184,20.767,19.379,19.231,52.711,26.12,9.044-12.805Z" fill="#ba8c57"/><path d="M465.122,245.008h0a55.145,55.145,0,0,0-22.294,29.845l-.934,3.05L465.735,300l89-.125Z" fill="#c2c2c2"/><path d="M465.122,245.008A55.129,55.129,0,0,0,452,257.227l65.481,42.648H565.36Z" fill="#d2d2d2"/><path d="M372.016,217.466c-.031.034,4.273-1.054,2.969-4.966-2-6-5.764-4.421-5.764-4.421Z" fill="#d8b094"/><path d="M202.11,102.142c-.438-3.454-.75-6.079-.75-6.079s2.187-15.313,4.5-20c5.625-2.75,11.2,1.046,12.04,3.929s5.71-2.492,5.71-2.492L206.485,38.622l-14.4,5.718A6.616,6.616,0,0,0,189,46.855L178.856,62.277a3.2,3.2,0,0,0-.273,3l3.465,8.194-.148.362a4.434,4.434,0,0,0-.318,1.943l1.083,17.047a4.6,4.6,0,0,0,.391,1.821l6.491,14.745,2.286-1.05a5.5,5.5,0,0,0,.825-.468l1.979,8.47,2.521-.733a7.87,7.87,0,0,0,4.8-3.978A50.706,50.706,0,0,0,202.11,102.142Z" fill="#72594b"/><path d="M199.651,83.417l-1.763,11.972a5.986,5.986,0,0,0,.1,1.944,161.481,161.481,0,0,1,2.228,16.569,7.875,7.875,0,0,0,1.323-1.548,5.031,5.031,0,0,0,.365-1.321l.279-2.128a39.794,39.794,0,0,0-.07-6.763c-.438-3.454-.75-6.079-.75-6.079s2.187-15.313,4.5-20c.218-.107-2.375,1.02-2.375,1.02C201.1,78.276,199.99,80.768,199.651,83.417Z" fill="#665042"/><path d="M194.637,116.344l-1.426-6.108h.669a3.807,3.807,0,0,1,3.679,2.825l.6,2.245Z" fill="#8e7a6f"/><path d="M189.547,109.391l-2.466-5.6.482-.227a2.957,2.957,0,0,1,3.994,1.547L192.688,108Z" fill="#8e7a6f"/><rect x="118.985" y="98.5" width="153" height="57" transform="translate(-15.61 28.095) rotate(-7.906)" fill="#ffcb40"/><polygon points="146.384 129.35 130.274 123.877 130.131 122.844 144.018 112.312 144.383 114.939 134.006 122.734 134.016 122.804 146.021 126.741 146.384 129.35" fill="#505050"/><polygon points="238.594 132.99 224.585 142.646 224.223 140.037 234.741 133.008 234.726 132.903 222.584 128.235 222.219 125.608 238.45 131.957 238.594 132.99" fill="#505050"/><rect x="151.052" y="110.528" width="101" height="4" transform="translate(-13.562 28.792) rotate(-7.906)" fill="#f0ae00"/><rect x="152.702" y="122.414" width="101" height="4" transform="translate(-15.181 29.132) rotate(-7.906)" fill="#f0ae00"/><rect x="133.628" y="138.289" width="85" height="4" transform="matrix(0.99, -0.138, 0.138, 0.99, -17.622, 25.559)" fill="#f0ae00"/><path d="M250.554,16.175A48.483,48.483,0,0,0,256.917,42.2c-1.788,2.3-4.816,4.259-7.64,5.731a21.3,21.3,0,0,0-10.009,10.937L228.325,87.236a5.337,5.337,0,0,1-.928,1.555l-8.769,10.231a5.341,5.341,0,0,1-2.588,1.66L201.3,104.894a7.709,7.709,0,0,0-.393,2.532l.043,3.833,18.613-4.465,17.134-17.067L255.757,51.8a11,11,0,0,1,4.577-4.724l12.957-10.4Z" fill="#665042"/><polygon points="182.048 73.474 189.886 55.894 179.402 67.216 182.048 73.474" fill="#665042"/><path d="M190.143,82.282l5.18-11.852-5.583,5.262a10.03,10.03,0,0,0-2.863,9.7l3.008,12.249Z" fill="#665042"/><path d="M257.11,6.125l-18.633,18.8a10.973,10.973,0,0,1-3.749,2.477L201.957,40.42c4.477,11.16,15.089,37.6,15.943,39.572a20.2,20.2,0,0,1,1.085,6.508l-6.829,11.706-.093-.107L206.6,99.656a8.07,8.07,0,0,0-5.844,8.2l.187,3.4,3.854-.925h0l8.757-2.1,6-1.44h0l17.135-17.067L255.758,51.8c1.007-2.006,2.619-3.029,4.577-4.723l31.222-25.069Z" fill="#72594b"/><path d="M219.559,106.794l-18.612,4.465-.187-3.4s6.893-6.99,14.2-6.845a6.548,6.548,0,0,1,4.7,3.4Z" fill="#665042"/><path d="M200.926,111.259l-.355-4.173,3.512-.884a2.406,2.406,0,0,1,2.953,2.053l.181,1.5Z" fill="#8e7a6f"/><path d="M248.106,11.411l.926,2.407A51.768,51.768,0,0,0,270.826,39.7L319.36,1.75l-61.75.125Z" fill="#fff"/><path d="M276.211,24.829c2.819-2.6,4.9-4.219,4.9-4.219L258.267,2.968l-3.4,1.6s-2.894,11.157,9.6,22.361l-4.465,4.15A51.731,51.731,0,0,0,270.826,39.7l11.684-9.131Z" fill="#e6e6e6"/><path d="M253.783,1.737l1.089,2.832A60.9,60.9,0,0,0,280.5,35.017L328.61,0H255.86Z" fill="#c2c2c2"/></svg>