<svg width="636" height="300" viewBox="0 0 636 300" fill="none" xmlns="http://www.w3.org/2000/svg">
<path d="M559.354 113.5H348.646C346.356 113.5 344.5 115.356 344.5 117.646V264.354C344.5 266.644 346.356 268.5 348.646 268.5H559.354C561.644 268.5 563.5 266.644 563.5 264.354V117.646C563.5 115.356 561.644 113.5 559.354 113.5Z" fill="#FFCB40"/>
<path d="M559.363 113.5H497.727L549.134 268.5H559.363C559.906 268.5 560.444 268.393 560.946 268.185C561.448 267.977 561.904 267.672 562.289 267.288C562.673 266.904 562.978 266.448 563.186 265.946C563.394 265.444 563.501 264.905 563.501 264.362V117.638C563.501 117.095 563.394 116.557 563.186 116.054C562.978 115.552 562.673 115.096 562.289 114.712C561.904 114.328 561.448 114.023 560.946 113.815C560.444 113.607 559.906 113.5 559.363 113.5Z" fill="#FFD867"/>
<path d="M563.5 129.5V117.638C563.5 117.095 563.393 116.557 563.185 116.054C562.977 115.552 562.672 115.096 562.288 114.712C561.904 114.328 561.448 114.023 560.946 113.815C560.444 113.607 559.905 113.5 559.362 113.5H348.638C348.095 113.5 347.556 113.607 347.054 113.815C346.552 114.023 346.096 114.328 345.712 114.712C345.328 115.096 345.023 115.552 344.815 116.054C344.607 116.557 344.5 117.095 344.5 117.638V129.5H563.5Z" fill="#939393"/>
<path d="M357.5 118.5H351.5V124.5H357.5V118.5Z" fill="white"/>
<path d="M394.5 118.5H388.5V124.5H394.5V118.5Z" fill="#D2D2D2"/>
<path d="M383.5 118.5H377.5V124.5H383.5V118.5Z" fill="#D2D2D2"/>
<path d="M557.5 118.5H551.5V124.5H557.5V118.5Z" fill="#D2D2D2"/>
<path d="M545.5 118.5H399.5V124.5H545.5V118.5Z" fill="white"/>
<path d="M458.417 156.826C451.728 156.825 445.122 158.306 439.073 161.163C433.025 164.02 427.685 168.182 423.437 173.349C422.738 171.832 422.146 170.267 421.667 168.667C420.917 165.542 419.375 166.917 419.042 168.917C418.79 170.426 418.23 178.052 417.827 181.993C413.442 190.822 412.055 200.84 413.875 210.528C415.696 220.216 420.625 229.047 427.915 235.682C435.206 242.317 444.46 246.395 454.277 247.298C464.093 248.2 473.936 245.878 482.314 240.683C490.692 235.489 497.149 227.705 500.705 218.511C504.261 209.317 504.724 199.214 502.022 189.734C499.321 180.253 493.602 171.912 485.734 165.974C477.865 160.035 468.275 156.824 458.417 156.826ZM458.417 159.826C466.133 159.817 473.702 161.929 480.298 165.931C477.385 165.593 473.398 165.281 471.17 165.118C471.085 165.112 470.999 165.136 470.929 165.185C470.858 165.234 470.806 165.306 470.782 165.389C470.757 165.471 470.762 165.559 470.794 165.639C470.827 165.719 470.885 165.785 470.96 165.827L478.311 169.993C478.425 170.057 478.519 170.152 478.583 170.266C478.647 170.38 478.679 170.509 478.674 170.64C478.67 170.771 478.63 170.898 478.559 171.007C478.488 171.117 478.388 171.205 478.27 171.262L475.91 172.404C475.773 172.469 475.657 172.572 475.576 172.701C475.496 172.83 475.453 172.979 475.454 173.131C475.455 173.283 475.499 173.432 475.582 173.56C475.664 173.688 475.781 173.789 475.919 173.853C479.51 175.505 488.17 180.065 491.036 186.739C491.071 186.824 491.083 186.917 491.074 187.009C491.064 187.1 491.032 187.188 490.98 187.264C490.929 187.341 490.86 187.403 490.778 187.447C490.697 187.49 490.606 187.513 490.514 187.513C489.629 187.523 488.738 187.513 488.125 187.513C488.029 187.512 487.934 187.532 487.846 187.571C487.758 187.611 487.68 187.669 487.617 187.741C487.554 187.814 487.507 187.9 487.481 187.992C487.454 188.085 487.448 188.182 487.462 188.277C488.189 192.856 488.207 197.519 487.516 202.103C487.498 202.197 487.455 202.286 487.394 202.36C487.332 202.433 487.253 202.491 487.163 202.526C487.073 202.561 486.976 202.573 486.881 202.561C486.785 202.549 486.694 202.513 486.616 202.456C486.1 202.088 485.556 201.739 485.128 201.476C485.045 201.425 484.95 201.395 484.853 201.39C484.755 201.385 484.658 201.404 484.57 201.447C484.482 201.489 484.406 201.553 484.349 201.633C484.292 201.712 484.257 201.805 484.245 201.902C483.727 206.073 480.345 223.339 459.833 223.669C449.001 223.843 445.5 218.169 445.5 218.169C448.627 218.403 451.772 218.179 454.833 217.502C457.917 216.669 463.233 212.436 465.75 210.776C466.017 210.601 466.206 210.33 466.278 210.019C466.35 209.708 466.3 209.382 466.138 209.107C465.165 207.448 462.805 204.586 458.667 206.169C455.567 207.355 452.167 209.794 446.417 208.669C441.804 207.769 439.533 203.329 439.249 200.585C439.221 200.316 439.249 200.044 439.331 199.786C439.414 199.528 439.548 199.29 439.726 199.086C439.905 198.882 440.123 198.718 440.368 198.603C440.613 198.487 440.879 198.424 441.149 198.416L445.001 198.249C445.235 198.239 445.464 198.18 445.674 198.077C445.883 197.974 446.07 197.829 446.221 197.651C446.371 197.472 446.484 197.264 446.551 197.04C446.617 196.816 446.637 196.581 446.608 196.349L446.413 194.787C446.338 194.185 446.407 193.573 446.616 193.003C446.825 192.434 447.167 191.922 447.613 191.511L456.735 183.138C456.858 183.026 456.943 182.879 456.98 182.717C457.016 182.555 457.002 182.386 456.94 182.232C456.878 182.079 456.77 181.947 456.631 181.857C456.493 181.766 456.329 181.719 456.163 181.724C453.472 181.797 450.289 182.047 447.333 182.172C444.813 182.278 445.208 181.713 444.042 180.047C442.876 178.381 443.625 176.588 445.792 173.922C447.959 171.256 446.439 170.522 444.667 171.338C442.042 172.547 437.623 176.618 435.542 176.172C432.275 175.667 428.976 175.397 425.67 175.365C429.635 170.509 434.63 166.595 440.294 163.908C445.958 161.22 452.148 159.826 458.417 159.826Z" fill="#EAA844"/>
<path d="M445.55 2.5H256.45C252.612 2.5 249.5 5.61162 249.5 9.45V146.55C249.5 150.388 252.612 153.5 256.45 153.5H445.55C449.388 153.5 452.5 150.388 452.5 146.55V9.45C452.5 5.61162 449.388 2.5 445.55 2.5Z" fill="#C3E3F4"/>
<path d="M366.758 86.5H391.188C391.346 85.0052 391.426 83.5032 391.427 82C391.426 73.382 388.802 64.9685 383.903 57.8785C379.004 50.7885 372.062 45.3583 364.001 42.31C373.092 38.498 380.601 38.088 384.507 41.995C387.571 45.058 387.985 50.333 386.183 56.851C386.162 56.9173 386.169 56.989 386.202 57.0503C386.234 57.1117 386.29 57.1576 386.356 57.178C386.422 57.1984 386.494 57.1917 386.555 57.1592C386.617 57.1268 386.662 57.0713 386.683 57.005C390.131 47.932 390.266 40.505 386.283 36.516C381.046 31.279 369.871 33.151 356.833 40.306C350.705 39.1502 344.397 39.3605 338.359 40.9219C332.322 42.4833 326.703 45.3573 321.903 49.339C317.103 53.3208 313.241 58.3123 310.592 63.9578C307.942 69.6033 306.571 75.7637 306.575 82C306.575 82.172 306.586 82.341 306.588 82.512C312.67 74.7541 319.929 67.996 328.101 62.483C304.952 85.661 293.39 111.632 302.275 120.518C306.263 124.505 313.692 124.37 322.764 120.918C322.83 120.898 322.886 120.852 322.918 120.79C322.951 120.729 322.957 120.657 322.937 120.591C322.916 120.525 322.871 120.469 322.809 120.437C322.748 120.404 322.676 120.398 322.61 120.418C316.093 122.218 310.817 121.805 307.754 118.742C303.547 114.535 304.345 106.153 309.008 96.116C311.886 104.273 317.19 111.355 324.208 116.412C331.225 121.47 339.621 124.261 348.27 124.412C356.918 124.562 365.407 122.065 372.596 117.255C379.785 112.445 385.332 105.552 388.493 97.5H363.211C359.919 103.272 354.786 107 349.001 107C340.061 107 332.647 98.128 331.244 86.5H366.758ZM349.001 58C356.607 58 363.106 64.424 365.742 73.5H332.26C334.901 64.424 341.395 58 349.001 58Z" fill="#81D0F9"/>
<path d="M318.354 68.5H107.646C105.356 68.5 103.5 70.3562 103.5 72.646V219.354C103.5 221.644 105.356 223.5 107.646 223.5H318.354C320.644 223.5 322.5 221.644 322.5 219.354V72.646C322.5 70.3562 320.644 68.5 318.354 68.5Z" fill="#E6E6E6"/>
<path d="M213 169.5C222.113 169.5 229.5 162.113 229.5 153C229.5 143.887 222.113 136.5 213 136.5C203.887 136.5 196.5 143.887 196.5 153C196.5 162.113 203.887 169.5 213 169.5Z" fill="#6BAFE9"/>
<path d="M191.225 149.372C191.978 144.133 194.594 139.341 198.593 135.875C202.593 132.409 207.708 130.5 213 130.5C213.694 130.5 254.209 130.592 254.209 130.592C250.548 123.703 245.218 117.842 238.706 113.546C232.194 109.249 224.709 106.654 216.935 105.997C209.162 105.341 201.347 106.644 194.207 109.788C187.067 112.931 180.829 117.815 176.064 123.992L191.225 149.372Z" fill="#E96F5F"/>
<path d="M227.286 136.392C229.692 138.467 231.625 141.033 232.956 143.918C234.287 146.803 234.984 149.94 235.001 153.117C235.046 157.07 234.012 160.961 232.01 164.37L208.301 199.55C209.848 199.705 211.415 199.784 213.001 199.786C220.562 199.786 228.011 197.948 234.705 194.431C241.399 190.914 247.138 185.824 251.428 179.597C255.719 173.371 258.433 166.196 259.336 158.688C260.239 151.181 259.304 143.566 256.613 136.5L227.286 136.392Z" fill="#F2D850"/>
<path d="M219.1 173.8C217.117 174.373 215.064 174.664 213 174.665C204.826 174.665 198.083 170.415 193.905 163.586L172.8 128.976C169.075 135.295 166.892 142.404 166.429 149.725C165.966 157.046 167.235 164.373 170.135 171.111C173.034 177.849 177.481 183.809 183.115 188.507C188.749 193.205 195.411 196.508 202.561 198.148L219.1 173.8Z" fill="#8DE265"/>
<path d="M318.363 68.5H256.727L308.134 223.5H318.363C319.46 223.5 320.513 223.064 321.289 222.288C322.065 221.512 322.501 220.459 322.501 219.362V72.638C322.501 71.5405 322.065 70.488 321.289 69.712C320.513 68.936 319.46 68.5 318.363 68.5Z" fill="#F3F3F3"/>
<path d="M322.5 84.5V72.638C322.5 71.5405 322.064 70.488 321.288 69.712C320.512 68.936 319.459 68.5 318.362 68.5H107.638C106.541 68.5 105.488 68.936 104.712 69.712C103.936 70.488 103.5 71.5405 103.5 72.638V84.5H322.5Z" fill="#8867C8"/>
<path d="M116.5 73.5H110.5V79.5H116.5V73.5Z" fill="white"/>
<path d="M153.5 73.5H147.5V79.5H153.5V73.5Z" fill="#81D0F9"/>
<path d="M142.5 73.5H136.5V79.5H142.5V73.5Z" fill="#81D0F9"/>
<path d="M316.5 73.5H310.5V79.5H316.5V73.5Z" fill="#D2D2D2"/>
<path d="M304.5 73.5H158.5V79.5H304.5V73.5Z" fill="white"/>
<path d="M445.55 2.5H394.883L444.963 153.5H445.55C447.393 153.5 449.161 152.768 450.465 151.464C451.769 150.161 452.501 148.393 452.501 146.549V9.451C452.501 8.53818 452.321 7.6343 451.972 6.79097C451.622 5.94763 451.11 5.18136 450.465 4.5359C449.819 3.89044 449.053 3.37843 448.21 3.02911C447.367 2.67979 446.463 2.5 445.55 2.5Z" fill="#D0EBF7"/>
<path d="M452.5 21.5V9.451C452.5 8.53818 452.32 7.6343 451.971 6.79097C451.622 5.94763 451.11 5.18136 450.464 4.5359C449.819 3.89044 449.052 3.37843 448.209 3.02911C447.366 2.67979 446.462 2.5 445.549 2.5H256.449C254.606 2.50053 252.838 3.2331 251.535 4.53661C250.232 5.84012 249.5 7.60783 249.5 9.451V21.5H452.5Z" fill="#939393"/>
<path d="M441.5 8.5H294.5V15.5H441.5V8.5Z" fill="white"/>
<path d="M287.5 15.5H294.5V8.5H287.5V15.5Z" fill="#81D0F9"/>
<path d="M276.5 15.5H283.5V8.5H276.5V15.5Z" fill="#D2D2D2"/>
<path d="M260 15.5C261.933 15.5 263.5 13.933 263.5 12C263.5 10.067 261.933 8.5 260 8.5C258.067 8.5 256.5 10.067 256.5 12C256.5 13.933 258.067 15.5 260 15.5Z" fill="#D2D2D2"/>
<path d="M458.946 292.057C453.646 293.251 444.634 294.376 428.546 294.376C412.458 294.376 400.581 293.209 396.063 292.046C391.545 290.883 388.496 288.172 388.496 283.893V148.38C388.496 144.023 391.378 141.397 396.266 140.664C406.906 139.334 417.619 138.666 428.342 138.664C438.511 138.512 448.675 139.181 458.736 140.664C463.973 141.494 466.496 144.208 466.496 148.564V283.9C466.5 288.179 464.247 290.863 458.946 292.057Z" fill="#505050"/>
<path d="M462.5 155.5H392.5V277.5H462.5V155.5Z" fill="#55A6E4"/>
<path d="M427.313 147.846C428.155 147.846 428.837 147.164 428.837 146.322C428.837 145.48 428.155 144.798 427.313 144.798C426.471 144.798 425.789 145.48 425.789 146.322C425.789 147.164 426.471 147.846 427.313 147.846Z" fill="#939393"/>
<path d="M403.211 148.75C403.887 148.75 404.434 148.202 404.434 147.527C404.434 146.852 403.887 146.304 403.211 146.304C402.536 146.304 401.988 146.852 401.988 147.527C401.988 148.202 402.536 148.75 403.211 148.75Z" fill="#939393"/>
<path d="M462.501 215.682V155.5H396.77L462.501 215.682Z" fill="#95BEDE"/>
<path d="M427.5 243.5C445.173 243.5 459.5 229.173 459.5 211.5C459.5 193.827 445.173 179.5 427.5 179.5C409.827 179.5 395.5 193.827 395.5 211.5C395.5 229.173 409.827 243.5 427.5 243.5Z" fill="white"/>
<path d="M407.201 231.022L423.839 207.951L447.354 193.087L431.603 215.271L407.201 231.022Z" fill="#C2C2C2"/>
<path d="M423.84 207.951L447.355 193.087L431.604 215.271L423.84 207.951Z" fill="#E96F5F"/>
<path d="M423.501 155.5V160.243C423.484 161.188 423.795 162.11 424.381 162.851C424.968 163.593 425.793 164.108 426.717 164.309C427.292 164.427 427.887 164.416 428.457 164.277C429.028 164.138 429.561 163.874 430.018 163.506C430.475 163.137 430.845 162.671 431.102 162.143C431.358 161.614 431.494 161.035 431.501 160.448V155.5H423.501Z" fill="white"/>
<path d="M396.5 268.5H395.5V275.5H396.5V268.5Z" fill="#95BEDE"/>
<path d="M403.5 268.5H402.5V275.5H403.5V268.5Z" fill="#95BEDE"/>
<path d="M410.5 268.5H409.5V275.5H410.5V268.5Z" fill="#95BEDE"/>
<path d="M417.5 268.5H416.5V275.5H417.5V268.5Z" fill="#95BEDE"/>
<path d="M424.5 268.5H423.5V275.5H424.5V268.5Z" fill="#95BEDE"/>
<path d="M431.5 268.5H430.5V275.5H431.5V268.5Z" fill="#95BEDE"/>
<path d="M438.5 268.5H437.5V275.5H438.5V268.5Z" fill="#95BEDE"/>
<path d="M445.5 268.5H444.5V275.5H445.5V268.5Z" fill="#95BEDE"/>
<path d="M452.5 268.5H451.5V275.5H452.5V268.5Z" fill="#95BEDE"/>
<path d="M459.5 268.5H458.5V275.5H459.5V268.5Z" fill="#95BEDE"/>
<path d="M400.5 271.5H399.5V275.5H400.5V271.5Z" fill="#95BEDE"/>
<path d="M407.5 271.5H406.5V275.5H407.5V271.5Z" fill="#95BEDE"/>
<path d="M414.5 271.5H413.5V275.5H414.5V271.5Z" fill="#95BEDE"/>
<path d="M421.5 271.5H420.5V275.5H421.5V271.5Z" fill="#95BEDE"/>
<path d="M428.5 271.5H427.5V275.5H428.5V271.5Z" fill="#95BEDE"/>
<path d="M435.5 271.5H434.5V275.5H435.5V271.5Z" fill="#95BEDE"/>
<path d="M442.5 271.5H441.5V275.5H442.5V271.5Z" fill="#95BEDE"/>
<path d="M449.5 271.5H448.5V275.5H449.5V271.5Z" fill="#95BEDE"/>
<path d="M456.5 271.5H455.5V275.5H456.5V271.5Z" fill="#95BEDE"/>
<path d="M426.047 240.035C425.691 240.022 425.338 240.002 424.986 239.975L425.291 235.993C425.591 236.016 425.891 236.034 426.2 236.046L426.047 240.035ZM429.579 239.957L429.241 235.978C429.547 235.952 429.85 235.922 430.152 235.885L430.631 239.849C430.282 239.891 429.931 239.927 429.579 239.957ZM421.486 239.492C421.138 239.425 420.792 239.349 420.449 239.262L421.387 235.381C421.681 235.452 421.977 235.519 422.277 235.581L421.486 239.492ZM434.111 239.207L433.139 235.334C433.439 235.26 433.73 235.18 434.022 235.096L435.134 238.931C434.795 239.029 434.454 239.121 434.111 239.207ZM417.067 238.219C416.733 238.093 416.404 237.961 416.079 237.824L417.631 234.145C417.912 234.263 418.195 234.376 418.481 234.485L417.067 238.219ZM438.467 237.736L436.885 234.07C437.163 233.949 437.44 233.824 437.716 233.693L439.43 237.299C439.109 237.45 438.787 237.595 438.463 237.736H438.467ZM412.916 236.25C412.609 236.072 412.304 235.889 412.004 235.7L414.131 232.32C414.387 232.482 414.648 232.639 414.912 232.791L412.916 236.25ZM442.516 235.585L440.368 232.22C440.625 232.056 440.878 231.889 441.127 231.72L443.401 235C443.109 235.2 442.814 235.395 442.516 235.585ZM409.13 233.641C408.856 233.417 408.586 233.188 408.32 232.954L410.956 229.954C411.185 230.154 411.418 230.351 411.656 230.544L409.13 233.641ZM446.177 232.812L443.515 229.835C443.743 229.631 443.967 229.423 444.187 229.212L446.953 232.093C446.698 232.337 446.439 232.577 446.177 232.812ZM405.815 230.463C405.579 230.196 405.349 229.928 405.125 229.657L408.206 227.116C408.4 227.351 408.597 227.582 408.799 227.81L405.815 230.463ZM449.346 229.492L446.246 226.975C446.438 226.739 446.625 226.499 446.809 226.255L450 228.655C449.788 228.938 449.569 229.217 449.346 229.492ZM403.046 226.799C402.857 226.501 402.673 226.199 402.494 225.894L405.941 223.878C406.095 224.141 406.253 224.4 406.415 224.656L403.046 226.799ZM451.946 225.705L448.485 223.714C448.636 223.451 448.782 223.185 448.924 222.914L452.46 224.771C452.294 225.086 452.123 225.4 451.946 225.705ZM400.907 222.739C400.768 222.415 400.636 222.088 400.507 221.759L404.233 220.322C404.343 220.606 404.457 220.887 404.576 221.165L400.907 222.739ZM453.907 221.547L450.17 220.138C450.278 219.853 450.379 219.567 450.476 219.278L454.263 220.542C454.151 220.88 454.032 221.215 453.907 221.547ZM399.447 218.385C399.361 218.042 399.283 217.697 399.211 217.349L403.12 216.536C403.182 216.834 403.248 217.13 403.32 217.424L399.447 218.385ZM455.171 217.121L451.255 216.339C451.315 216.041 451.369 215.741 451.418 215.439L455.36 216.076C455.303 216.425 455.24 216.774 455.171 217.121ZM398.706 213.851C398.677 213.499 398.655 213.151 398.639 212.792L402.628 212.615C402.642 212.92 402.661 213.223 402.686 213.526L398.706 213.851ZM455.482 212.665L451.482 212.519C451.493 212.219 451.499 211.911 451.499 211.605V211.505H455.499V211.591C455.501 211.96 455.495 212.313 455.482 212.665ZM402.682 209.572L398.701 209.261C398.728 208.908 398.763 208.561 398.801 208.206L402.769 208.662C402.731 208.963 402.701 209.267 402.678 209.572H402.682ZM451.538 208.366C451.5 208.064 451.456 207.764 451.406 207.466L455.345 206.814C455.403 207.162 455.454 207.512 455.499 207.864L451.538 208.366ZM403.303 205.666L399.423 204.721C399.507 204.376 399.597 204.033 399.694 203.694L403.535 204.784C403.449 205.08 403.371 205.374 403.301 205.67L403.303 205.666ZM450.721 204.5C450.634 204.208 450.542 203.917 450.445 203.63L454.228 202.353C454.34 202.686 454.447 203.023 454.549 203.364L450.721 204.5ZM404.541 201.918L400.865 200.358C401.004 200.031 401.149 199.707 401.299 199.387L404.914 201.082C404.785 201.361 404.661 201.64 404.541 201.92V201.918ZM449.294 200.818C449.16 200.545 449.023 200.275 448.883 200.008L452.41 198.135C452.576 198.447 452.736 198.762 452.89 199.081L449.294 200.818ZM406.374 198.418L403.001 196.286C403.19 195.987 403.384 195.691 403.584 195.399L406.884 197.652C406.706 197.903 406.536 198.158 406.374 198.416V198.418ZM447.296 197.418C447.121 197.169 446.942 196.923 446.759 196.682L449.941 194.269C450.154 194.551 450.362 194.837 450.565 195.126L447.296 197.418ZM408.744 195.255L405.751 192.613C405.985 192.346 406.224 192.085 406.469 191.829L409.361 194.583C409.151 194.801 408.945 195.024 408.744 195.252V195.255ZM444.777 194.377C444.563 194.158 444.346 193.943 444.126 193.732L446.884 190.844C447.138 191.088 447.389 191.336 447.636 191.589L444.777 194.377ZM411.589 192.51L409.055 189.423C409.328 189.2 409.605 188.98 409.886 188.766L412.305 191.943C412.063 192.126 411.824 192.314 411.589 192.507V192.51ZM441.8 191.77C441.556 191.589 441.308 191.413 441.058 191.24L443.318 187.948C443.61 188.148 443.898 188.354 444.183 188.566L441.8 191.77ZM414.833 190.255L412.825 186.804C413.13 186.627 413.438 186.455 413.75 186.288L415.629 189.812C415.36 189.953 415.095 190.1 414.833 190.252V190.255ZM438.449 189.676C438.178 189.536 437.905 189.401 437.629 189.271L439.329 185.659C439.65 185.81 439.968 185.968 440.283 186.13L438.449 189.676ZM418.394 188.551L416.967 184.821C417.298 184.695 417.63 184.575 417.967 184.461L419.253 188.241C418.964 188.336 418.677 188.44 418.394 188.548V188.551ZM434.803 188.151C434.515 188.057 434.224 187.968 433.931 187.884L435.031 184.045C435.372 184.142 435.71 184.246 436.046 184.356L434.803 188.151ZM422.185 187.451L421.378 183.54C421.724 183.469 422.073 183.404 422.424 183.345L423.08 187.284C422.78 187.327 422.481 187.38 422.185 187.441V187.451ZM430.963 187.237C430.663 187.191 430.363 187.15 430.063 187.114L430.527 183.148C430.88 183.189 431.23 183.236 431.578 183.291L430.963 187.237ZM425.61 186.968L425.439 182.979C425.792 182.964 426.145 182.955 426.501 182.953L426.52 186.946C426.216 186.938 425.912 186.946 425.61 186.958V186.968Z" fill="#95BEDE"/>
</svg>
