<svg width="636" height="300" viewBox="0 0 636 300" fill="none" xmlns="http://www.w3.org/2000/svg">
<path d="M399.791 114.8L318.421 114.61L318.381 129.33L399.751 129.52L399.791 114.8Z" fill="#D2D2D2"/>
<path d="M323.451 114.62L397.911 114.79C399.861 114.79 401.441 115.29 401.451 113.34L401.651 26.6298C401.651 24.9098 400.271 23.5198 398.551 23.5098L318.881 23.3198C317.951 23.3198 317.051 23.6498 316.391 24.2398C315.731 24.8298 315.361 25.6298 315.351 26.4598L315.131 119H316.371C316.771 117.44 318.231 114.61 323.451 114.62Z" fill="#9C80E0"/>
<path d="M325.221 23.3501L318.871 23.3301C317.941 23.3301 317.041 23.6601 316.381 24.2501C315.721 24.8401 315.351 25.6401 315.341 26.4701L315.121 119.01H316.361C316.771 117.43 318.221 114.6 323.441 114.61H324.991L325.221 23.3501Z" fill="#8867C8"/>
<path d="M401.401 129.52C401.401 128.71 400.741 128.05 399.931 128.04L321.631 127.86C320.771 127.86 319.951 127.55 319.341 127.01C318.731 126.47 318.401 125.73 318.401 124.96L318.421 117.5C318.421 116.73 318.761 115.99 319.371 115.45C319.981 114.91 320.801 114.61 321.661 114.61L399.971 114.79C400.781 114.79 401.441 114.13 401.451 113.32C401.451 112.51 400.791 111.85 399.981 111.84L321.681 111.66C319.951 111.66 318.291 112.27 317.061 113.36C315.831 114.45 315.141 115.94 315.141 117.49L315.121 124.95C315.121 125.72 315.281 126.48 315.611 127.19C315.941 127.9 316.411 128.54 317.021 129.09C317.621 129.63 318.341 130.07 319.131 130.36C319.921 130.66 320.771 130.81 321.631 130.81L399.941 130.99C400.741 130.99 401.401 130.34 401.401 129.52Z" fill="#8867C8"/>
<path d="M357.251 135.28L351.921 133.03C351.691 132.93 351.421 132.93 351.191 133.03L345.851 135.26C345.231 135.52 344.541 135.06 344.541 134.38L344.571 120.01C344.571 119.49 345.001 119.06 345.521 119.07L357.651 119.1C358.171 119.1 358.601 119.53 358.591 120.05L358.561 134.42C358.571 135.09 357.881 135.55 357.251 135.28Z" fill="#ED8422"/>
<path d="M387.25 35.2699L337.17 35.1499C336.01 35.1499 335.07 36.0899 335.06 37.2499L335.01 56.5999C335.01 57.7599 335.95 58.6999 337.11 58.7099L387.19 58.8299C388.35 58.8299 389.29 57.8899 389.3 56.7299L389.35 37.3799C389.35 36.2199 388.41 35.2799 387.25 35.2699Z" fill="#A9D4EE"/>
<path d="M202.8 16.79V93.64C202.78 93.89 202.8 94.14 202.89 94.38C202.97 94.62 203.1 94.83 203.28 95.02C203.45 95.2 203.66 95.34 203.9 95.44C204.13 95.53 204.38 95.57 204.63 95.56H260.23C260.5 94.63 261.26 94.48 261.8 95.16C262.34 95.84 262.45 98.43 263.89 98.43H280.33C282.06 98.43 281.82 95.46 282.69 95.12C282.92 95.04 283.18 95.03 283.41 95.11C283.64 95.19 283.85 95.34 283.98 95.55H341.9C342.13 95.55 342.37 95.5 342.58 95.42C342.8 95.33 342.99 95.2 343.16 95.04C343.33 94.88 343.46 94.69 343.55 94.47C343.64 94.26 343.69 94.03 343.69 93.8V16.79C343.69 16.56 343.64 16.33 343.55 16.12C343.46 15.91 343.33 15.71 343.16 15.55C342.99 15.39 342.8 15.26 342.58 15.17C342.36 15.08 342.13 15.04 341.89 15.04H204.58C204.35 15.04 204.11 15.09 203.9 15.17C203.69 15.26 203.49 15.39 203.32 15.55C203.15 15.71 203.02 15.9 202.93 16.12C202.85 16.33 202.8 16.56 202.8 16.79Z" fill="#939393"/>
<path d="M336.5 78.4199C336.5 78.4199 335.2 81.1699 333.4 81.1699C331.59 81.1699 209.99 81.1699 209.99 81.1699V89.7999H334.61C335.65 89.7999 336.5 88.9499 336.5 87.9099V78.4199Z" fill="#505050"/>
<path d="M271.81 90.2702C271.81 90.2702 270.46 81.1702 259.04 81.1702H209.99V9.11016C209.99 7.62016 211.2 6.41016 212.69 6.41016H261.06C271.53 6.41016 271.81 15.3502 271.81 15.3502V90.2702Z" fill="#B5D5EA"/>
<path d="M271.811 90.2699C271.811 90.2699 273.181 81.1699 284.801 81.1699H333.431C335.131 81.1699 336.511 79.7899 336.511 78.0899V9.63992C336.511 7.85992 335.071 6.41992 333.291 6.41992H282.771C272.111 6.41992 271.831 15.2099 271.831 15.2099V90.2699H271.811Z" fill="#B5D5EA"/>
<path d="M286.71 20.7902H323.03C323.32 20.7902 323.56 20.5502 323.56 20.2602V18.4402C323.56 18.1502 323.32 17.9102 323.03 17.9102H286.71C286.42 17.9102 286.18 18.1502 286.18 18.4402V20.2602C286.18 20.5502 286.42 20.7902 286.71 20.7902Z" fill="#60ACE5"/>
<path d="M286.71 29.4103H323.03C323.32 29.4103 323.56 29.1703 323.56 28.8803V27.0603C323.56 26.7703 323.32 26.5303 323.03 26.5303H286.71C286.42 26.5303 286.18 26.7703 286.18 27.0603V28.8803C286.18 29.1803 286.42 29.4103 286.71 29.4103Z" fill="#60ACE5"/>
<path d="M286.71 38.0402H323.03C323.32 38.0402 323.56 37.8002 323.56 37.5102V35.6902C323.56 35.4002 323.32 35.1602 323.03 35.1602H286.71C286.42 35.1602 286.18 35.4002 286.18 35.6902V37.5102C286.18 37.8002 286.42 38.0402 286.71 38.0402Z" fill="#60ACE5"/>
<path d="M286.71 46.67H323.03C323.32 46.67 323.56 46.43 323.56 46.14V44.32C323.56 44.03 323.32 43.79 323.03 43.79H286.71C286.42 43.79 286.18 44.03 286.18 44.32V46.14C286.18 46.43 286.42 46.67 286.71 46.67Z" fill="#60ACE5"/>
<path d="M286.71 55.2902H323.03C323.32 55.2902 323.56 55.0502 323.56 54.7602V52.9402C323.56 52.6502 323.32 52.4102 323.03 52.4102H286.71C286.42 52.4102 286.18 52.6502 286.18 52.9402V54.7602C286.18 55.0602 286.42 55.2902 286.71 55.2902Z" fill="#60ACE5"/>
<path d="M286.71 63.92H323.03C323.32 63.92 323.56 63.68 323.56 63.39V61.57C323.56 61.28 323.32 61.04 323.03 61.04H286.71C286.42 61.04 286.18 61.28 286.18 61.57V63.39C286.18 63.68 286.42 63.92 286.71 63.92Z" fill="#60ACE5"/>
<path d="M286.71 72.5399H323.03C323.32 72.5399 323.56 72.2999 323.56 72.0099V70.1999C323.56 69.9099 323.32 69.6699 323.03 69.6699H286.71C286.42 69.6699 286.18 69.9099 286.18 70.1999V72.0199C286.18 72.3099 286.42 72.5399 286.71 72.5399Z" fill="#60ACE5"/>
<path d="M221.68 20.7902H258C258.29 20.7902 258.53 20.5502 258.53 20.2602V18.4402C258.53 18.1502 258.29 17.9102 258 17.9102H221.68C221.39 17.9102 221.15 18.1502 221.15 18.4402V20.2602C221.16 20.5502 221.39 20.7902 221.68 20.7902Z" fill="#60ACE5"/>
<path d="M221.68 29.4103H258C258.29 29.4103 258.53 29.1703 258.53 28.8803V27.0603C258.53 26.7703 258.29 26.5303 258 26.5303H221.68C221.39 26.5303 221.15 26.7703 221.15 27.0603V28.8803C221.16 29.1803 221.39 29.4103 221.68 29.4103Z" fill="#60ACE5"/>
<path d="M221.68 38.0402H258C258.29 38.0402 258.53 37.8002 258.53 37.5102V35.6902C258.53 35.4002 258.29 35.1602 258 35.1602H221.68C221.39 35.1602 221.15 35.4002 221.15 35.6902V37.5102C221.16 37.8002 221.39 38.0402 221.68 38.0402Z" fill="#60ACE5"/>
<path d="M221.68 46.67H258C258.29 46.67 258.53 46.43 258.53 46.14V44.32C258.53 44.03 258.29 43.79 258 43.79H221.68C221.39 43.79 221.15 44.03 221.15 44.32V46.14C221.16 46.43 221.39 46.67 221.68 46.67Z" fill="#60ACE5"/>
<path d="M221.68 55.2902H258C258.29 55.2902 258.53 55.0502 258.53 54.7602V52.9402C258.53 52.6502 258.29 52.4102 258 52.4102H221.68C221.39 52.4102 221.15 52.6502 221.15 52.9402V54.7602C221.16 55.0602 221.39 55.2902 221.68 55.2902Z" fill="#60ACE5"/>
<path d="M221.68 63.92H258C258.29 63.92 258.53 63.68 258.53 63.39V61.57C258.53 61.28 258.29 61.04 258 61.04H221.68C221.39 61.04 221.15 61.28 221.15 61.57V63.39C221.16 63.68 221.39 63.92 221.68 63.92Z" fill="#60ACE5"/>
<path d="M221.68 72.5399H258C258.29 72.5399 258.53 72.2999 258.53 72.0099V70.1999C258.53 69.9099 258.29 69.6699 258 69.6699H221.68C221.39 69.6699 221.15 69.9099 221.15 70.1999V72.0199C221.16 72.3099 221.39 72.5399 221.68 72.5399Z" fill="#60ACE5"/>
<path d="M295.281 42.15L290.041 40C289.871 39.93 289.681 39.93 289.511 40L284.271 42.16C283.811 42.35 283.301 42.01 283.301 41.51V4.24004C283.301 3.85004 283.611 3.54004 284.001 3.54004H295.541C295.931 3.54004 296.241 3.85004 296.241 4.24004V41.5C296.251 42 295.741 42.34 295.281 42.15Z" fill="#684DAA"/>
<path d="M272.641 17.06C272.641 15.84 271.201 15.94 271.201 17.06C271.201 18.45 271.201 91.23 271.201 91.23H272.641C272.641 91.23 272.641 18.43 272.641 17.06Z" fill="#939393"/>
<path d="M447.839 279.89L203.759 189.77L200.469 193.11C200.109 193.42 199.769 193.75 199.469 194.11C198.149 195.66 197.359 197.66 197.359 199.85V278.04C197.359 282.39 200.519 286.1 204.809 286.79C223.479 289.8 274.189 297.2 321.859 297.2C369.529 297.2 420.239 289.8 438.909 286.79C440.839 286.48 442.539 285.55 443.829 284.23L447.839 279.89Z" fill="#7F7F7F"/>
<path d="M449.729 274.64C449.729 278.99 446.579 282.69 442.279 283.39C423.609 286.4 372.899 293.8 325.229 293.8C277.559 293.8 226.849 286.4 208.179 283.39C203.889 282.7 200.729 278.99 200.729 274.64V196.45C200.729 191.56 204.689 187.59 209.579 187.59H440.869C445.759 187.59 449.719 191.56 449.719 196.45V274.64H449.729Z" fill="#A6A6A6"/>
<path d="M449.729 258.94V196.45C449.729 191.56 445.769 187.59 440.879 187.59H378.449L449.729 258.94Z" fill="#989898"/>
<path d="M233.238 199.26H219.748V205.4H233.238V199.26Z" fill="#C8C8C8"/>
<path d="M250.408 199.26H236.918V205.4H250.408V199.26Z" fill="#C8C8C8"/>
<path d="M267.59 199.26H254.1V205.4H267.59V199.26Z" fill="#C8C8C8"/>
<path d="M284.76 199.26H271.27V205.4H284.76V199.26Z" fill="#C8C8C8"/>
<path d="M301.929 199.26H288.439V205.4H301.929V199.26Z" fill="#C8C8C8"/>
<path d="M319.099 199.26H305.609V205.4H319.099V199.26Z" fill="#C8C8C8"/>
<path d="M336.269 199.26H322.779V205.4H336.269V199.26Z" fill="#C8C8C8"/>
<path d="M353.449 199.26H339.959V205.4H353.449V199.26Z" fill="#C8C8C8"/>
<path d="M370.619 199.26H357.129V205.4H370.619V199.26Z" fill="#C8C8C8"/>
<path d="M387.789 199.26H374.299V205.4H387.789V199.26Z" fill="#C8C8C8"/>
<path d="M222.199 213.99H212.389V222.58H222.199V213.99Z" fill="#C8C8C8"/>
<path d="M235.699 213.99H225.889V222.58H235.699V213.99Z" fill="#C8C8C8"/>
<path d="M249.189 213.99H239.379V222.58H249.189V213.99Z" fill="#C8C8C8"/>
<path d="M262.679 213.99H252.869V222.58H262.679V213.99Z" fill="#C8C8C8"/>
<path d="M276.169 213.99H266.359V222.58H276.169V213.99Z" fill="#C8C8C8"/>
<path d="M289.66 213.99H279.85V222.58H289.66V213.99Z" fill="#C8C8C8"/>
<path d="M303.16 213.99H293.35V222.58H303.16V213.99Z" fill="#C8C8C8"/>
<path d="M316.648 213.99H306.838V222.58H316.648V213.99Z" fill="#C8C8C8"/>
<path d="M330.138 213.99H320.328V222.58H330.138V213.99Z" fill="#C8C8C8"/>
<path d="M343.628 213.99H333.818V222.58H343.628V213.99Z" fill="#C8C8C8"/>
<path d="M360.808 213.99H350.998V222.58H360.808V213.99Z" fill="#C8C8C8"/>
<path d="M374.298 213.99H364.488V222.58H374.298V213.99Z" fill="#C8C8C8"/>
<path d="M387.789 213.99H377.979V222.58H387.789V213.99Z" fill="#C8C8C8"/>
<path d="M360.808 226.27H350.998V234.86H360.808V226.27Z" fill="#C8C8C8"/>
<path d="M374.298 226.27H364.488V234.86H374.298V226.27Z" fill="#C8C8C8"/>
<path d="M387.789 226.27H377.979V234.86H387.789V226.27Z" fill="#C8C8C8"/>
<path d="M360.808 238.55H350.998V247.14H360.808V238.55Z" fill="#C8C8C8"/>
<path d="M374.298 238.55H364.488V247.14H374.298V238.55Z" fill="#C8C8C8"/>
<path d="M387.789 238.55H377.979V247.14H387.789V238.55Z" fill="#C8C8C8"/>
<path d="M360.808 250.83H350.998V259.42H360.808V250.83Z" fill="#C8C8C8"/>
<path d="M374.298 250.83H364.488V259.42H374.298V250.83Z" fill="#C8C8C8"/>
<path d="M387.789 250.83H377.979V259.42H387.789V250.83Z" fill="#C8C8C8"/>
<path d="M222.199 226.27H212.389V234.86H222.199V226.27Z" fill="#C8C8C8"/>
<path d="M235.699 226.27H225.889V234.86H235.699V226.27Z" fill="#C8C8C8"/>
<path d="M249.189 226.27H239.379V234.86H249.189V226.27Z" fill="#C8C8C8"/>
<path d="M262.679 226.27H252.869V234.86H262.679V226.27Z" fill="#C8C8C8"/>
<path d="M276.169 226.27H266.359V234.86H276.169V226.27Z" fill="#C8C8C8"/>
<path d="M289.66 226.27H279.85V234.86H289.66V226.27Z" fill="#C8C8C8"/>
<path d="M303.16 226.27H293.35V234.86H303.16V226.27Z" fill="#C8C8C8"/>
<path d="M316.648 226.27H306.838V234.86H316.648V226.27Z" fill="#C8C8C8"/>
<path d="M330.138 226.27H320.328V234.86H330.138V226.27Z" fill="#C8C8C8"/>
<path d="M343.628 226.27H333.818V234.86H343.628V226.27Z" fill="#C8C8C8"/>
<path d="M222.199 238.55H212.389V247.14H222.199V238.55Z" fill="#C8C8C8"/>
<path d="M235.699 238.55H225.889V247.14H235.699V238.55Z" fill="#C8C8C8"/>
<path d="M249.189 238.55H239.379V247.14H249.189V238.55Z" fill="#C8C8C8"/>
<path d="M262.679 238.55H252.869V247.14H262.679V238.55Z" fill="#C8C8C8"/>
<path d="M276.169 238.55H266.359V247.14H276.169V238.55Z" fill="#C8C8C8"/>
<path d="M289.66 238.55H279.85V247.14H289.66V238.55Z" fill="#C8C8C8"/>
<path d="M303.16 238.55H293.35V247.14H303.16V238.55Z" fill="#C8C8C8"/>
<path d="M316.648 238.55H306.838V247.14H316.648V238.55Z" fill="#C8C8C8"/>
<path d="M330.138 238.55H320.328V247.14H330.138V238.55Z" fill="#C8C8C8"/>
<path d="M343.628 238.55H333.818V247.14H343.628V238.55Z" fill="#C8C8C8"/>
<path d="M222.199 250.83H212.389V259.42H222.199V250.83Z" fill="#C8C8C8"/>
<path d="M235.699 250.83H225.889V259.42H235.699V250.83Z" fill="#C8C8C8"/>
<path d="M249.189 250.83H239.379V259.42H249.189V250.83Z" fill="#C8C8C8"/>
<path d="M262.679 250.83H252.869V259.42H262.679V250.83Z" fill="#C8C8C8"/>
<path d="M276.169 250.83H266.359V259.42H276.169V250.83Z" fill="#C8C8C8"/>
<path d="M289.66 250.83H279.85V259.42H289.66V250.83Z" fill="#C8C8C8"/>
<path d="M303.16 250.83H293.35V259.42H303.16V250.83Z" fill="#C8C8C8"/>
<path d="M316.648 250.83H306.838V259.42H316.648V250.83Z" fill="#C8C8C8"/>
<path d="M330.138 250.83H320.328V259.42H330.138V250.83Z" fill="#C8C8C8"/>
<path d="M343.628 250.83H333.818V259.42H343.628V250.83Z" fill="#C8C8C8"/>
<path d="M222.199 263.1H212.389V271.69H222.199V263.1Z" fill="#C8C8C8"/>
<path d="M235.699 263.1H225.889V271.69H235.699V263.1Z" fill="#C8C8C8"/>
<path d="M316.649 263.1H239.379V271.69H316.649V263.1Z" fill="#C8C8C8"/>
<path d="M330.138 263.1H320.328V271.69H330.138V263.1Z" fill="#C8C8C8"/>
<path d="M343.628 263.1H333.818V271.69H343.628V263.1Z" fill="#C8C8C8"/>
<path d="M406.189 226.27H396.379V234.86H406.189V226.27Z" fill="#C8C8C8"/>
<path d="M419.679 226.27H409.869V234.86H419.679V226.27Z" fill="#C8C8C8"/>
<path d="M433.169 226.27H423.359V234.86H433.169V226.27Z" fill="#C8C8C8"/>
<path d="M406.189 238.55H396.379V247.14H406.189V238.55Z" fill="#C8C8C8"/>
<path d="M419.679 238.55H409.869V247.14H419.679V238.55Z" fill="#C8C8C8"/>
<path d="M433.169 238.55H423.359V247.14H433.169V238.55Z" fill="#C8C8C8"/>
<path d="M406.189 250.83H396.379V259.42H406.189V250.83Z" fill="#C8C8C8"/>
<path d="M419.679 250.83H409.869V259.42H419.679V250.83Z" fill="#C8C8C8"/>
<path d="M406.189 263.1H396.379V271.69H406.189V263.1Z" fill="#C8C8C8"/>
<path d="M419.679 263.1H409.869V271.69H419.679V263.1Z" fill="#C8C8C8"/>
<path d="M433.169 250.83H423.359V271.7H433.169V250.83Z" fill="#C8C8C8"/>
<path d="M431.739 201.71C431.739 203.63 430.189 205.18 428.269 205.18C426.349 205.18 424.799 203.62 424.799 201.71C424.799 199.79 426.349 198.24 428.269 198.24C430.179 198.24 431.739 199.79 431.739 201.71Z" fill="#EDAC28"/>
<path d="M192.06 47.1201H141.27C121.19 47.1201 104.91 63.4001 104.91 83.4801V111.37C104.91 131.45 121.19 147.73 141.27 147.73H164.18H178.63L196.12 164.87C197.58 166.3 200.02 165.07 199.74 163.04L197.54 147.32C215.02 144.68 228.42 129.59 228.42 111.38V83.4701C228.42 63.4001 212.14 47.1201 192.06 47.1201Z" fill="#EDAC28"/>
<path d="M101.11 98.76C115.674 98.76 127.48 86.9538 127.48 72.39C127.48 57.8263 115.674 46.02 101.11 46.02C86.5465 46.02 74.7402 57.8263 74.7402 72.39C74.7402 86.9538 86.5465 98.76 101.11 98.76Z" fill="#106EBE"/>
<path d="M98.695 81.2333C98.5672 80.8946 98.4535 80.4581 98.3541 79.9239C98.2547 79.3767 98.205 78.836 98.205 78.3018C98.205 77.4679 98.3825 76.7187 98.7376 76.0542C99.1068 75.3767 99.5613 74.7448 100.101 74.1585C100.641 73.5722 101.23 73.0119 101.869 72.4777C102.508 71.9305 103.098 71.3833 103.637 70.8361C104.177 70.2758 104.624 69.696 104.979 69.0967C105.348 68.4843 105.533 67.8133 105.533 67.0837C105.533 66.4583 105.398 65.9045 105.128 65.4225C104.873 64.9404 104.518 64.5365 104.063 64.2108C103.609 63.885 103.083 63.644 102.487 63.4876C101.89 63.3183 101.258 63.2336 100.591 63.2336C98.1908 63.2336 96.1103 64.1 94.3492 65.8329V62.3932C96.5221 61.1424 98.7731 60.517 101.102 60.517C102.182 60.517 103.197 60.6473 104.148 60.9079C105.1 61.1685 105.931 61.5593 106.641 62.0805C107.365 62.5886 107.933 63.2271 108.345 63.9958C108.757 64.7645 108.963 65.657 108.963 66.6733C108.963 67.6374 108.778 68.4973 108.409 69.253C108.04 70.0087 107.571 70.7058 107.003 71.3442C106.449 71.9696 105.846 72.5559 105.192 73.1031C104.539 73.6504 103.928 74.1976 103.36 74.7448C102.806 75.279 102.345 75.8393 101.976 76.4256C101.606 77.0119 101.422 77.6568 101.422 78.3604C101.422 78.9597 101.5 79.507 101.656 80.0021C101.812 80.4842 101.968 80.8946 102.125 81.2333H98.695ZM100.612 89.3635C99.9873 89.3635 99.4335 89.155 98.9506 88.7381C98.482 88.3212 98.2476 87.813 98.2476 87.2137C98.2476 86.6013 98.482 86.0932 98.9506 85.6893C99.4193 85.2593 99.9731 85.0443 100.612 85.0443C101.251 85.0443 101.805 85.2593 102.274 85.6893C102.742 86.0932 102.977 86.6013 102.977 87.2137C102.977 87.813 102.742 88.3212 102.274 88.7381C101.791 89.155 101.237 89.3635 100.612 89.3635Z" fill="white"/>
<path d="M543.901 65.6602H441.881C432.631 65.6602 425.131 73.1602 425.131 82.4102V133.29C425.131 142.54 432.631 150.04 441.881 150.04H443.591L438.731 167.17C438.231 168.92 440.251 170.29 441.701 169.2L466.951 150.04H543.911C553.161 150.04 560.661 142.54 560.661 133.29V82.4102C560.651 73.1602 553.151 65.6602 543.901 65.6602Z" fill="#7BC0EF"/>
<path d="M449.111 104.66C457.931 104.66 465.081 97.5102 465.081 88.6902C465.081 79.8702 457.931 72.7202 449.111 72.7202C440.291 72.7202 433.141 79.8702 433.141 88.6902C433.141 97.5102 440.291 104.66 449.111 104.66Z" fill="#106EBE"/>
<path d="M452.641 89.8103C454.171 88.7403 455.171 86.9703 455.171 84.9703C455.171 81.7103 452.511 79.0503 449.251 79.0503C445.991 79.0503 443.331 81.7103 443.331 84.9703C443.331 86.9703 444.331 88.7403 445.861 89.8103C442.841 91.1203 440.721 94.1403 440.721 97.6403H442.721C442.721 94.0403 445.651 91.1103 449.251 91.1103C452.851 91.1103 455.781 94.0403 455.781 97.6403H457.781C457.781 94.1303 455.661 91.1203 452.641 89.8103ZM449.251 81.0503C451.411 81.0503 453.171 82.8103 453.171 84.9703C453.171 87.1303 451.411 88.8903 449.251 88.8903C447.091 88.8903 445.331 87.1303 445.331 84.9703C445.331 82.8103 447.091 81.0503 449.251 81.0503Z" fill="#B5D5EA"/>
<path d="M526.711 93.9501H475.841C474.661 93.9501 473.701 92.9901 473.701 91.8101V85.5301C473.701 84.3501 474.661 83.3901 475.841 83.3901H526.711C527.891 83.3901 528.851 84.3501 528.851 85.5301V91.8101C528.851 92.9901 527.891 93.9501 526.711 93.9501Z" fill="white"/>
<path d="M537.24 108.81H475.39C474.2 108.81 473.23 107.84 473.23 106.65C473.23 105.46 474.2 104.49 475.39 104.49H537.24C538.43 104.49 539.4 105.46 539.4 106.65C539.39 107.85 538.43 108.81 537.24 108.81Z" fill="#389FE5"/>
<path d="M537.24 117.44H475.39C474.2 117.44 473.23 116.47 473.23 115.28C473.23 114.09 474.2 113.12 475.39 113.12H537.24C538.43 113.12 539.4 114.09 539.4 115.28C539.39 116.48 538.43 117.44 537.24 117.44Z" fill="#389FE5"/>
<path d="M536.151 140.45H495.771C493.721 140.45 492.051 138.78 492.051 136.72V127.87C492.051 125.82 493.721 124.14 495.771 124.14H536.151C538.201 124.14 539.881 125.81 539.881 127.87V136.72C539.871 138.78 538.201 140.45 536.151 140.45ZM495.761 126.07C494.761 126.07 493.951 126.88 493.951 127.88V136.73C493.951 137.73 494.761 138.54 495.761 138.54H536.141C537.141 138.54 537.951 137.73 537.951 136.73V127.88C537.951 126.88 537.141 126.07 536.141 126.07H495.761Z" fill="#389FE5"/>
<path d="M464.76 131.38C464.72 130.89 464.28 130.52 463.79 130.52L460.44 130.51C460.44 130.51 461.38 128.3 461.34 127.14C461.3 125.98 460.01 126.16 459.96 126.37C459.52 128.14 457.79 130.17 457.31 130.7C457.21 130.8 457.08 130.86 456.94 130.86H454.34C454.15 130.86 453.99 131.02 453.99 131.21V135.97C453.99 136.15 454.14 136.3 454.32 136.3H456.96C456.96 136.3 457.82 136.74 459.93 136.74H462.5C463.02 136.74 463.49 136.32 463.48 135.8C463.48 135.59 463.4 135.39 463.27 135.24C463.64 135.12 463.9 134.77 463.9 134.36C463.9 134.14 463.82 133.94 463.69 133.78C464.06 133.66 464.32 133.31 464.32 132.9C464.32 132.68 464.24 132.48 464.11 132.32C464.52 132.2 464.8 131.82 464.76 131.38Z" fill="white"/>
<path d="M472.141 134.95C472.181 135.44 472.621 135.81 473.111 135.81L476.461 135.82C476.461 135.82 475.521 138.03 475.561 139.19C475.601 140.35 476.891 140.17 476.941 139.96C477.381 138.19 479.111 136.16 479.591 135.63C479.691 135.53 479.821 135.47 479.961 135.47H482.561C482.751 135.47 482.911 135.31 482.911 135.12V130.36C482.911 130.18 482.761 130.03 482.581 130.03H479.941C479.941 130.03 479.081 129.59 476.971 129.59H474.401C473.881 129.59 473.411 130.01 473.421 130.53C473.421 130.74 473.501 130.94 473.631 131.09C473.261 131.21 473.001 131.56 473.001 131.97C473.001 132.19 473.081 132.39 473.211 132.55C472.841 132.67 472.581 133.02 472.581 133.43C472.581 133.65 472.661 133.85 472.791 134.01C472.381 134.13 472.111 134.51 472.141 134.95Z" fill="white"/>
<path opacity="0.61" d="M542.27 156.4L534.36 148.49C534.22 148.35 534.25 148.11 534.43 148.01L540.44 144.61C541.12 144.23 541.05 143.22 540.33 142.93L514.19 132.45C513.5 132.18 512.83 132.86 513.1 133.54L523.52 159.26C523.84 160.04 524.91 160.11 525.33 159.38L528.59 153.72C528.69 153.55 528.93 153.51 529.07 153.66L537.05 161.64C537.52 162.11 538.28 162.11 538.75 161.64L542.28 158.11C542.74 157.64 542.74 156.87 542.27 156.4Z" fill="white" stroke="#797673" stroke-width="1.3744" stroke-miterlimit="10"/>
<path d="M446.97 133.22H438.66L442.48 129.66L441.63 128.75L436.16 133.84L441.63 138.93L442.48 138.02L438.66 134.46H446.97V133.22Z" fill="white"/>
<path d="M228.419 83.47C228.419 67.18 217.709 53.4 202.939 48.77V95.58H228.419V83.47Z" fill="#E09D27"/>
<path d="M192.85 81.8999H138.94C138.05 81.8999 137.33 81.1799 137.33 80.2899V76.2199C137.33 75.3299 138.05 74.6099 138.94 74.6099H192.85C193.74 74.6099 194.46 75.3299 194.46 76.2199V80.2899C194.46 81.1799 193.74 81.8999 192.85 81.8999Z" fill="white"/>
<path d="M192.85 98.6899H138.94C138.05 98.6899 137.33 97.9699 137.33 97.0799V93.0099C137.33 92.1199 138.05 91.3999 138.94 91.3999H192.85C193.74 91.3999 194.46 92.1199 194.46 93.0099V97.0799C194.46 97.9799 193.74 98.6899 192.85 98.6899Z" fill="white"/>
<path d="M192.85 115.49H138.94C138.05 115.49 137.33 114.77 137.33 113.88V109.81C137.33 108.92 138.05 108.2 138.94 108.2H192.85C193.74 108.2 194.46 108.92 194.46 109.81V113.88C194.46 114.77 193.74 115.49 192.85 115.49Z" fill="white"/>
</svg>
