<svg xmlns="http://www.w3.org/2000/svg" viewBox="0 0 636 300"><defs><style>.a{fill:none;stroke:#d2d2d2;stroke-miterlimit:10;}.b{fill:#607b96;}.c{fill:#505050;}.msillu-white{fill:#fff;}</style></defs><title>swimlane-dotnet-perf-diagram</title><line class="a" x1="130" y1="260.5" x2="536" y2="260.5"/><line class="a" x1="130" y1="235.5" x2="536" y2="235.5"/><line class="a" x1="130" y1="209.5" x2="536" y2="209.5"/><line class="a" x1="492" y1="184.5" x2="536" y2="184.5"/><line class="a" x1="129.77" y1="184.5" x2="436" y2="184.5"/><line class="a" x1="130" y1="159.5" x2="536" y2="159.5"/><line class="a" x1="359" y1="133.5" x2="536" y2="133.5"/><line class="a" x1="129.77" y1="133.5" x2="304" y2="133.5"/><line class="a" x1="130" y1="108.5" x2="536" y2="108.5"/><line class="a" x1="130" y1="83.5" x2="536" y2="83.5"/><line class="a" x1="130" y1="57.5" x2="536" y2="57.5"/><line class="a" x1="227" y1="32.5" x2="536" y2="32.5"/><line class="a" x1="130" y1="32.5" x2="172" y2="32.5"/><rect class="b" x="172" y="45" width="55" height="216"/><rect class="b" x="304" y="140" width="55" height="121"/><rect class="b" x="437" y="206" width="55" height="55"/><path class="c" d="M115.277,259.764a8.254,8.254,0,0,1-.19,1.869,4.355,4.355,0,0,1-.551,1.374,2.479,2.479,0,0,1-.885.85,2.422,2.422,0,0,1-1.192.29,2.262,2.262,0,0,1-1.128-.278,2.364,2.364,0,0,1-.835-.812,4.113,4.113,0,0,1-.516-1.31,8.1,8.1,0,0,1-.176-1.778,9.166,9.166,0,0,1,.185-1.945,4.45,4.45,0,0,1,.542-1.415,2.412,2.412,0,0,1,.888-.861,2.492,2.492,0,0,1,1.216-.29Q115.277,255.457,115.277,259.764Zm-.984.094q0-3.586-1.705-3.586-1.8,0-1.8,3.65,0,3.4,1.764,3.4Q114.293,263.326,114.293,259.857Z"/><path class="c" d="M106.207,234.43a8.254,8.254,0,0,1-.19,1.869,4.355,4.355,0,0,1-.551,1.374,2.479,2.479,0,0,1-.885.85,2.422,2.422,0,0,1-1.192.29,2.262,2.262,0,0,1-1.128-.278,2.364,2.364,0,0,1-.835-.812,4.113,4.113,0,0,1-.516-1.31,8.1,8.1,0,0,1-.176-1.778,9.166,9.166,0,0,1,.185-1.945,4.45,4.45,0,0,1,.542-1.415,2.412,2.412,0,0,1,.888-.861,2.492,2.492,0,0,1,1.216-.29Q106.207,230.124,106.207,234.43Zm-.984.094q0-3.586-1.705-3.586-1.8,0-1.8,3.65,0,3.4,1.764,3.4Q105.223,237.993,105.223,234.524Z"/><path class="c" d="M108.006,238.8a.622.622,0,0,1-.46-.193.636.636,0,0,1-.19-.463.646.646,0,0,1,.19-.466.617.617,0,0,1,.46-.2.634.634,0,0,1,.469.2.641.641,0,0,1,.193.466.632.632,0,0,1-.193.463A.638.638,0,0,1,108.006,238.8Z"/><path class="c" d="M113.824,232.467a1.737,1.737,0,0,0-.12-.674,1.3,1.3,0,0,0-.817-.762,1.916,1.916,0,0,0-.609-.094,2.016,2.016,0,0,0-.551.076,2.678,2.678,0,0,0-.524.211,3.226,3.226,0,0,0-.492.322,3.555,3.555,0,0,0-.442.416v-1.031a2.873,2.873,0,0,1,.905-.6,3.187,3.187,0,0,1,1.222-.208,2.949,2.949,0,0,1,.955.149,2.19,2.19,0,0,1,.762.437,2.018,2.018,0,0,1,.507.709,2.391,2.391,0,0,1,.185.967,3.315,3.315,0,0,1-.114.9,2.791,2.791,0,0,1-.346.762,3.676,3.676,0,0,1-.583.686,8.258,8.258,0,0,1-.826.668q-.592.422-.976.721a4.313,4.313,0,0,0-.609.56,1.624,1.624,0,0,0-.316.521,1.823,1.823,0,0,0-.091.6h4.184v.861h-5.186v-.416a3.467,3.467,0,0,1,.117-.949,2.465,2.465,0,0,1,.387-.779,4.325,4.325,0,0,1,.706-.738q.437-.369,1.069-.832a6.76,6.76,0,0,0,.765-.627,3.26,3.26,0,0,0,.5-.6,2.146,2.146,0,0,0,.267-.606A2.615,2.615,0,0,0,113.824,232.467Z"/><path class="c" d="M106.207,209.1a8.254,8.254,0,0,1-.19,1.869,4.355,4.355,0,0,1-.551,1.374,2.479,2.479,0,0,1-.885.85,2.422,2.422,0,0,1-1.192.29,2.262,2.262,0,0,1-1.128-.278,2.364,2.364,0,0,1-.835-.812,4.113,4.113,0,0,1-.516-1.31,8.1,8.1,0,0,1-.176-1.778,9.166,9.166,0,0,1,.185-1.945,4.45,4.45,0,0,1,.542-1.415,2.412,2.412,0,0,1,.888-.861,2.492,2.492,0,0,1,1.216-.29Q106.207,204.791,106.207,209.1Zm-.984.094q0-3.586-1.705-3.586-1.8,0-1.8,3.65,0,3.4,1.764,3.4Q105.223,212.66,105.223,209.191Z"/><path class="c" d="M108.006,213.462a.622.622,0,0,1-.46-.193.636.636,0,0,1-.19-.463.646.646,0,0,1,.19-.466.617.617,0,0,1,.46-.2.634.634,0,0,1,.469.2.641.641,0,0,1,.193.466.632.632,0,0,1-.193.463A.638.638,0,0,1,108.006,213.462Z"/><path class="c" d="M114.281,204.931v5.549h1.078v.879h-1.078v1.975h-.949v-1.975h-3.949v-.832q.551-.621,1.113-1.327t1.075-1.433q.513-.727.949-1.45a13.254,13.254,0,0,0,.735-1.386Zm-3.814,5.549h2.865v-4.113q-.439.768-.832,1.371t-.747,1.1q-.354.492-.677.891Z"/><path class="c" d="M106.207,183.764a8.254,8.254,0,0,1-.19,1.869,4.355,4.355,0,0,1-.551,1.374,2.479,2.479,0,0,1-.885.85,2.422,2.422,0,0,1-1.192.29,2.262,2.262,0,0,1-1.128-.278,2.364,2.364,0,0,1-.835-.812,4.113,4.113,0,0,1-.516-1.31,8.1,8.1,0,0,1-.176-1.778,9.166,9.166,0,0,1,.185-1.945,4.45,4.45,0,0,1,.542-1.415,2.412,2.412,0,0,1,.888-.861,2.492,2.492,0,0,1,1.216-.29Q106.207,179.457,106.207,183.764Zm-.984.094q0-3.586-1.705-3.586-1.8,0-1.8,3.65,0,3.4,1.764,3.4Q105.223,187.326,105.223,183.857Z"/><path class="c" d="M108.006,188.129a.622.622,0,0,1-.46-.193.636.636,0,0,1-.19-.463.646.646,0,0,1,.19-.466.617.617,0,0,1,.46-.2.634.634,0,0,1,.469.2.641.641,0,0,1,.193.466.632.632,0,0,1-.193.463A.638.638,0,0,1,108.006,188.129Z"/><path class="c" d="M115.289,185.334a3.113,3.113,0,0,1-.2,1.131,2.718,2.718,0,0,1-.551.891,2.461,2.461,0,0,1-.838.583,2.654,2.654,0,0,1-1.055.208,2.325,2.325,0,0,1-1.983-1.022,3.639,3.639,0,0,1-.53-1.21,6.555,6.555,0,0,1-.182-1.611,7.572,7.572,0,0,1,.243-1.989,4.833,4.833,0,0,1,.691-1.529,3.187,3.187,0,0,1,1.081-.981,2.9,2.9,0,0,1,1.412-.346,3.4,3.4,0,0,1,1.395.24v.908a2.961,2.961,0,0,0-1.371-.334,2.043,2.043,0,0,0-1.014.252,2.328,2.328,0,0,0-.773.712,3.472,3.472,0,0,0-.5,1.11,5.634,5.634,0,0,0-.173,1.447h.023a2.018,2.018,0,0,1,1.916-1.049,2.522,2.522,0,0,1,.993.188,2.144,2.144,0,0,1,.756.53,2.388,2.388,0,0,1,.483.817A3.111,3.111,0,0,1,115.289,185.334Zm-.984.123a2.615,2.615,0,0,0-.111-.791,1.716,1.716,0,0,0-.319-.6,1.377,1.377,0,0,0-.513-.378,1.725,1.725,0,0,0-.691-.132,1.618,1.618,0,0,0-.662.135,1.649,1.649,0,0,0-.527.366,1.715,1.715,0,0,0-.475,1.192,2.606,2.606,0,0,0,.123.812,2.1,2.1,0,0,0,.346.659,1.644,1.644,0,0,0,.53.442,1.448,1.448,0,0,0,.683.161,1.563,1.563,0,0,0,.662-.138,1.477,1.477,0,0,0,.51-.384,1.777,1.777,0,0,0,.328-.589A2.334,2.334,0,0,0,114.3,185.457Z"/><path class="c" d="M106.207,158.43a8.254,8.254,0,0,1-.19,1.869,4.355,4.355,0,0,1-.551,1.374,2.479,2.479,0,0,1-.885.85,2.422,2.422,0,0,1-1.192.29,2.262,2.262,0,0,1-1.128-.278,2.364,2.364,0,0,1-.835-.812,4.113,4.113,0,0,1-.516-1.31,8.1,8.1,0,0,1-.176-1.778,9.166,9.166,0,0,1,.185-1.945,4.45,4.45,0,0,1,.542-1.415,2.412,2.412,0,0,1,.888-.861,2.492,2.492,0,0,1,1.216-.29Q106.207,154.124,106.207,158.43Zm-.984.094q0-3.586-1.705-3.586-1.8,0-1.8,3.65,0,3.4,1.764,3.4Q105.223,161.993,105.223,158.524Z"/><path class="c" d="M108.006,162.8a.622.622,0,0,1-.46-.193.636.636,0,0,1-.19-.463.646.646,0,0,1,.19-.466.617.617,0,0,1,.46-.2.634.634,0,0,1,.469.2.641.641,0,0,1,.193.466.632.632,0,0,1-.193.463A.638.638,0,0,1,108.006,162.8Z"/><path class="c" d="M109.828,160.323a2.236,2.236,0,0,1,.105-.671,2.43,2.43,0,0,1,.3-.63,2.5,2.5,0,0,1,.486-.533,2.319,2.319,0,0,1,.659-.381,2.491,2.491,0,0,1-.867-.782,1.85,1.85,0,0,1-.322-1.058,2.039,2.039,0,0,1,.674-1.535,2.289,2.289,0,0,1,.75-.448,2.8,2.8,0,0,1,1.881,0,2.329,2.329,0,0,1,.75.451,2.025,2.025,0,0,1,.492.68,2.055,2.055,0,0,1,.176.85,1.85,1.85,0,0,1-.322,1.058,2.522,2.522,0,0,1-.855.782,2.3,2.3,0,0,1,.65.381,2.534,2.534,0,0,1,.483.533,2.43,2.43,0,0,1,.3.63,2.236,2.236,0,0,1,.105.671,2.5,2.5,0,0,1-.2,1.008,2.252,2.252,0,0,1-.56.782,2.583,2.583,0,0,1-.861.507,3.219,3.219,0,0,1-1.1.182,3.177,3.177,0,0,1-1.1-.182,2.623,2.623,0,0,1-.861-.507,2.267,2.267,0,0,1-.565-.782A2.464,2.464,0,0,1,109.828,160.323Zm1.043-.082a1.985,1.985,0,0,0,.12.709,1.528,1.528,0,0,0,.34.539,1.484,1.484,0,0,0,.533.343,1.926,1.926,0,0,0,.694.12,1.829,1.829,0,0,0,.68-.123,1.584,1.584,0,0,0,.536-.346,1.554,1.554,0,0,0,.352-.539,1.885,1.885,0,0,0,.126-.7,1.8,1.8,0,0,0-.12-.659,1.65,1.65,0,0,0-.343-.542,1.61,1.61,0,0,0-.533-.369,1.734,1.734,0,0,0-.7-.135,1.753,1.753,0,0,0-.671.126,1.605,1.605,0,0,0-.533.352,1.628,1.628,0,0,0-.354.539A1.793,1.793,0,0,0,110.871,160.241Zm.3-3.9a1.395,1.395,0,0,0,.85,1.3,1.385,1.385,0,0,0,1.081,0,1.4,1.4,0,0,0,.442-.3,1.462,1.462,0,0,0,.3-.445,1.354,1.354,0,0,0,.111-.548,1.437,1.437,0,0,0-.108-.562,1.381,1.381,0,0,0-1.286-.85,1.4,1.4,0,0,0-.565.111,1.366,1.366,0,0,0-.439.3,1.319,1.319,0,0,0-.284.448A1.515,1.515,0,0,0,111.17,156.344Z"/><path class="c" d="M113.543,137.333h-.961v-7.26a2.224,2.224,0,0,1-.325.255,5.3,5.3,0,0,1-.48.284q-.267.141-.562.264a4.088,4.088,0,0,1-.577.193V130.1a5.586,5.586,0,0,0,.671-.237q.354-.149.7-.334t.647-.387a5.14,5.14,0,0,0,.527-.4h.363Z"/><path class="c" d="M104.473,112h-.961v-7.26a2.224,2.224,0,0,1-.325.255,5.3,5.3,0,0,1-.48.284q-.267.141-.562.264a4.088,4.088,0,0,1-.577.193v-.973a5.586,5.586,0,0,0,.671-.237q.354-.149.7-.334t.647-.387a5.14,5.14,0,0,0,.527-.4h.363Z"/><path class="c" d="M108.006,112.129a.622.622,0,0,1-.46-.193.636.636,0,0,1-.19-.463.646.646,0,0,1,.19-.466.617.617,0,0,1,.46-.2.634.634,0,0,1,.469.2.641.641,0,0,1,.193.466.632.632,0,0,1-.193.463A.638.638,0,0,1,108.006,112.129Z"/><path class="c" d="M113.824,105.8a1.737,1.737,0,0,0-.12-.674,1.3,1.3,0,0,0-.817-.762,1.916,1.916,0,0,0-.609-.094,2.016,2.016,0,0,0-.551.076,2.678,2.678,0,0,0-.524.211,3.226,3.226,0,0,0-.492.322,3.555,3.555,0,0,0-.442.416v-1.031a2.873,2.873,0,0,1,.905-.6,3.187,3.187,0,0,1,1.222-.208,2.949,2.949,0,0,1,.955.149,2.19,2.19,0,0,1,.762.437,2.018,2.018,0,0,1,.507.709,2.391,2.391,0,0,1,.185.967,3.315,3.315,0,0,1-.114.9,2.791,2.791,0,0,1-.346.762,3.676,3.676,0,0,1-.583.686,8.258,8.258,0,0,1-.826.668q-.592.422-.976.721a4.313,4.313,0,0,0-.609.56,1.624,1.624,0,0,0-.316.521,1.823,1.823,0,0,0-.091.6h4.184V112h-5.186v-.416a3.467,3.467,0,0,1,.117-.949,2.465,2.465,0,0,1,.387-.779,4.325,4.325,0,0,1,.706-.738q.437-.369,1.069-.832a6.76,6.76,0,0,0,.765-.627,3.26,3.26,0,0,0,.5-.6,2.146,2.146,0,0,0,.267-.606A2.615,2.615,0,0,0,113.824,105.8Z"/><path class="c" d="M104.473,86.667h-.961v-7.26a2.224,2.224,0,0,1-.325.255,5.3,5.3,0,0,1-.48.284q-.267.141-.562.264a4.088,4.088,0,0,1-.577.193V79.43a5.586,5.586,0,0,0,.671-.237q.354-.149.7-.334t.647-.387a5.14,5.14,0,0,0,.527-.4h.363Z"/><path class="c" d="M108.006,86.8a.622.622,0,0,1-.46-.193.636.636,0,0,1-.19-.463.646.646,0,0,1,.19-.466.617.617,0,0,1,.46-.2.634.634,0,0,1,.469.2.641.641,0,0,1,.193.466.632.632,0,0,1-.193.463A.638.638,0,0,1,108.006,86.8Z"/><path class="c" d="M114.281,78.264v5.549h1.078v.879h-1.078v1.975h-.949V84.692h-3.949V83.86q.551-.621,1.113-1.327t1.075-1.433q.513-.727.949-1.45a13.254,13.254,0,0,0,.735-1.386Zm-3.814,5.549h2.865V79.7q-.439.768-.832,1.371t-.747,1.1q-.354.492-.677.891Z"/><path class="c" d="M104.473,61.333h-.961v-7.26a2.224,2.224,0,0,1-.325.255,5.3,5.3,0,0,1-.48.284q-.267.141-.562.264a4.088,4.088,0,0,1-.577.193V54.1a5.586,5.586,0,0,0,.671-.237q.354-.149.7-.334t.647-.387a5.14,5.14,0,0,0,.527-.4h.363Z"/><path class="c" d="M108.006,61.462a.622.622,0,0,1-.46-.193.636.636,0,0,1-.19-.463.646.646,0,0,1,.19-.466.617.617,0,0,1,.46-.2.634.634,0,0,1,.469.2.641.641,0,0,1,.193.466.632.632,0,0,1-.193.463A.638.638,0,0,1,108.006,61.462Z"/><path class="c" d="M115.289,58.667a3.113,3.113,0,0,1-.2,1.131,2.718,2.718,0,0,1-.551.891,2.461,2.461,0,0,1-.838.583,2.654,2.654,0,0,1-1.055.208,2.325,2.325,0,0,1-1.983-1.022,3.639,3.639,0,0,1-.53-1.21,6.555,6.555,0,0,1-.182-1.611,7.572,7.572,0,0,1,.243-1.989,4.833,4.833,0,0,1,.691-1.529,3.187,3.187,0,0,1,1.081-.981,2.9,2.9,0,0,1,1.412-.346,3.4,3.4,0,0,1,1.395.24v.908A2.961,2.961,0,0,0,113.4,53.6a2.043,2.043,0,0,0-1.014.252,2.328,2.328,0,0,0-.773.712,3.472,3.472,0,0,0-.5,1.11,5.634,5.634,0,0,0-.173,1.447h.023a2.018,2.018,0,0,1,1.916-1.049,2.522,2.522,0,0,1,.993.188,2.144,2.144,0,0,1,.756.53,2.388,2.388,0,0,1,.483.817A3.111,3.111,0,0,1,115.289,58.667Zm-.984.123a2.615,2.615,0,0,0-.111-.791,1.716,1.716,0,0,0-.319-.6,1.377,1.377,0,0,0-.513-.378,1.725,1.725,0,0,0-.691-.132,1.618,1.618,0,0,0-.662.135,1.649,1.649,0,0,0-.527.366,1.715,1.715,0,0,0-.475,1.192,2.606,2.606,0,0,0,.123.812,2.1,2.1,0,0,0,.346.659,1.644,1.644,0,0,0,.53.442,1.448,1.448,0,0,0,.683.161,1.563,1.563,0,0,0,.662-.138,1.477,1.477,0,0,0,.51-.384,1.777,1.777,0,0,0,.328-.589A2.334,2.334,0,0,0,114.3,58.791Z"/><path class="c" d="M104.473,36h-.961V28.74a2.224,2.224,0,0,1-.325.255,5.3,5.3,0,0,1-.48.284q-.267.141-.562.264a4.088,4.088,0,0,1-.577.193v-.973a5.586,5.586,0,0,0,.671-.237q.354-.149.7-.334t.647-.387a5.14,5.14,0,0,0,.527-.4h.363Z"/><path class="c" d="M108.006,36.129a.622.622,0,0,1-.46-.193.636.636,0,0,1-.19-.463.646.646,0,0,1,.19-.466.617.617,0,0,1,.46-.2.634.634,0,0,1,.469.2.641.641,0,0,1,.193.466.632.632,0,0,1-.193.463A.638.638,0,0,1,108.006,36.129Z"/><path class="c" d="M109.828,33.656a2.236,2.236,0,0,1,.105-.671,2.43,2.43,0,0,1,.3-.63,2.5,2.5,0,0,1,.486-.533,2.319,2.319,0,0,1,.659-.381,2.491,2.491,0,0,1-.867-.782,1.85,1.85,0,0,1-.322-1.058,2.039,2.039,0,0,1,.674-1.535,2.289,2.289,0,0,1,.75-.448,2.8,2.8,0,0,1,1.881,0,2.329,2.329,0,0,1,.75.451,2.025,2.025,0,0,1,.492.68,2.055,2.055,0,0,1,.176.85,1.85,1.85,0,0,1-.322,1.058,2.522,2.522,0,0,1-.855.782,2.3,2.3,0,0,1,.65.381,2.534,2.534,0,0,1,.483.533,2.43,2.43,0,0,1,.3.63,2.236,2.236,0,0,1,.105.671,2.5,2.5,0,0,1-.2,1.008,2.252,2.252,0,0,1-.56.782,2.583,2.583,0,0,1-.861.507,3.219,3.219,0,0,1-1.1.182,3.177,3.177,0,0,1-1.1-.182,2.623,2.623,0,0,1-.861-.507,2.267,2.267,0,0,1-.565-.782A2.464,2.464,0,0,1,109.828,33.656Zm1.043-.082a1.985,1.985,0,0,0,.12.709,1.528,1.528,0,0,0,.34.539,1.484,1.484,0,0,0,.533.343,1.926,1.926,0,0,0,.694.12,1.829,1.829,0,0,0,.68-.123,1.584,1.584,0,0,0,.536-.346,1.554,1.554,0,0,0,.352-.539,1.885,1.885,0,0,0,.126-.7,1.8,1.8,0,0,0-.12-.659,1.65,1.65,0,0,0-.343-.542,1.61,1.61,0,0,0-.533-.369,1.734,1.734,0,0,0-.7-.135,1.753,1.753,0,0,0-.671.126,1.605,1.605,0,0,0-.533.352,1.628,1.628,0,0,0-.354.539A1.793,1.793,0,0,0,110.871,33.574Zm.3-3.9a1.395,1.395,0,0,0,.85,1.3,1.385,1.385,0,0,0,1.081,0,1.4,1.4,0,0,0,.442-.3,1.462,1.462,0,0,0,.3-.445,1.354,1.354,0,0,0,.111-.548,1.437,1.437,0,0,0-.108-.562,1.381,1.381,0,0,0-1.286-.85,1.4,1.4,0,0,0-.565.111,1.366,1.366,0,0,0-.439.3,1.319,1.319,0,0,0-.284.448A1.515,1.515,0,0,0,111.17,29.678Z"/><path class="c" d="M174.511,281.462a.622.622,0,0,1-.46-.193.636.636,0,0,1-.19-.463.646.646,0,0,1,.19-.466.617.617,0,0,1,.46-.2.634.634,0,0,1,.469.2.641.641,0,0,1,.193.466.632.632,0,0,1-.193.463A.638.638,0,0,1,174.511,281.462Z"/><path class="c" d="M183.681,281.333h-1.207l-4.324-6.7a2.8,2.8,0,0,1-.27-.527h-.035a8.65,8.65,0,0,1,.047,1.154v6.07h-.984v-8.4h1.277l4.207,6.592q.264.41.34.563h.023a8.89,8.89,0,0,1-.059-1.236v-5.918h.984Z"/><path class="c" d="M190.337,281.333h-4.453v-8.4h4.266v.891h-3.281v2.795H189.9v.885h-3.035v2.941h3.469Z"/><path class="c" d="M196.923,273.822H194.5v7.512h-.984v-7.512h-2.42v-.891h5.83Z"/><path class="c" d="M207.247,280.982a4.928,4.928,0,0,1-2.32.492,3.742,3.742,0,0,1-2.871-1.154,4.259,4.259,0,0,1-1.078-3.029,4.464,4.464,0,0,1,1.213-3.258,4.117,4.117,0,0,1,3.076-1.242,4.932,4.932,0,0,1,1.98.346v1.049a4.016,4.016,0,0,0-1.992-.5,3.057,3.057,0,0,0-2.347.967,3.642,3.642,0,0,0-.9,2.584,3.465,3.465,0,0,0,.841,2.446,2.861,2.861,0,0,0,2.206.911,4.139,4.139,0,0,0,2.191-.562Z"/><path class="c" d="M211.337,281.474a2.783,2.783,0,0,1-2.124-.841,3.114,3.114,0,0,1-.794-2.229,3.244,3.244,0,0,1,.826-2.361,2.97,2.97,0,0,1,2.232-.85,2.691,2.691,0,0,1,2.095.826,3.276,3.276,0,0,1,.753,2.291,3.223,3.223,0,0,1-.812,2.3A2.844,2.844,0,0,1,211.337,281.474Zm.07-5.473a1.828,1.828,0,0,0-1.465.63,2.587,2.587,0,0,0-.539,1.737,2.447,2.447,0,0,0,.545,1.682,1.852,1.852,0,0,0,1.459.615,1.757,1.757,0,0,0,1.433-.6,2.619,2.619,0,0,0,.5-1.717,2.664,2.664,0,0,0-.5-1.734A1.749,1.749,0,0,0,211.407,276Z"/><path class="c" d="M218.989,276.306a1.175,1.175,0,0,0-.727-.193,1.226,1.226,0,0,0-1.028.58,2.682,2.682,0,0,0-.413,1.582v3.059h-.961v-6h.961v1.236h.023a2.1,2.1,0,0,1,.627-.987,1.43,1.43,0,0,1,.943-.354,1.569,1.569,0,0,1,.574.082Z"/><path class="c" d="M224.854,278.574h-4.236a2.244,2.244,0,0,0,.539,1.547,1.858,1.858,0,0,0,1.418.545,2.948,2.948,0,0,0,1.863-.668v.9a3.482,3.482,0,0,1-2.092.574,2.536,2.536,0,0,1-2-.817,3.346,3.346,0,0,1-.727-2.3,3.281,3.281,0,0,1,.794-2.282,2.546,2.546,0,0,1,1.972-.882,2.256,2.256,0,0,1,1.822.762,3.176,3.176,0,0,1,.645,2.115Zm-.984-.814a1.955,1.955,0,0,0-.4-1.295,1.368,1.368,0,0,0-1.1-.463,1.552,1.552,0,0,0-1.154.486,2.207,2.207,0,0,0-.586,1.271Z"/><path class="c" d="M304.989,278.322a3.755,3.755,0,0,1-.633,2.323,2.022,2.022,0,0,1-1.693.829,2,2,0,0,1-.809-.141v-.973a1.368,1.368,0,0,0,.82.229q1.33,0,1.33-2.256v-5.4h.984Z"/><path class="c" d="M311.288,281.333h-.961V280.4H310.3a2.012,2.012,0,0,1-1.846,1.078,1.973,1.973,0,0,1-1.4-.475,1.644,1.644,0,0,1-.507-1.26q0-1.682,1.98-1.957l1.8-.252q0-1.529-1.236-1.529a2.954,2.954,0,0,0-1.957.738v-.984a3.718,3.718,0,0,1,2.039-.562q2.115,0,2.115,2.238Zm-.961-3.035-1.447.2a2.35,2.35,0,0,0-1.008.331.955.955,0,0,0-.34.841.916.916,0,0,0,.313.718,1.211,1.211,0,0,0,.835.278,1.542,1.542,0,0,0,1.181-.5,1.79,1.79,0,0,0,.466-1.269Z"/><path class="c" d="M317.815,275.333l-2.391,6h-.943l-2.273-6h1.055l1.523,4.359a3.913,3.913,0,0,1,.211.838h.023a3.962,3.962,0,0,1,.188-.814l1.594-4.383Z"/><path class="c" d="M323.142,281.333h-.961V280.4h-.023a2.012,2.012,0,0,1-1.846,1.078,1.973,1.973,0,0,1-1.4-.475,1.644,1.644,0,0,1-.507-1.26q0-1.682,1.98-1.957l1.8-.252q0-1.529-1.236-1.529a2.954,2.954,0,0,0-1.957.738v-.984a3.718,3.718,0,0,1,2.039-.562q2.115,0,2.115,2.238Zm-.961-3.035-1.447.2a2.35,2.35,0,0,0-1.008.331.955.955,0,0,0-.34.841.916.916,0,0,0,.313.718,1.211,1.211,0,0,0,.835.278,1.542,1.542,0,0,0,1.181-.5,1.79,1.79,0,0,0,.466-1.269Z"/><path class="c" d="M327.876,281.117v-1.031a2.844,2.844,0,0,0,1.729.58q1.266,0,1.266-.844a.732.732,0,0,0-.108-.407,1.08,1.08,0,0,0-.293-.3,2.255,2.255,0,0,0-.434-.231q-.249-.1-.536-.214a6.9,6.9,0,0,1-.7-.319,2.115,2.115,0,0,1-.5-.363,1.352,1.352,0,0,1-.3-.46,1.627,1.627,0,0,1-.1-.6,1.434,1.434,0,0,1,.193-.747,1.715,1.715,0,0,1,.516-.545,2.4,2.4,0,0,1,.735-.331,3.262,3.262,0,0,1,.853-.111,3.442,3.442,0,0,1,1.395.27v.973a2.718,2.718,0,0,0-1.523-.434,1.781,1.781,0,0,0-.486.062,1.191,1.191,0,0,0-.372.173.8.8,0,0,0-.24.267.7.7,0,0,0-.085.343.822.822,0,0,0,.085.393.864.864,0,0,0,.249.281,1.9,1.9,0,0,0,.4.223q.234.1.533.217a7.421,7.421,0,0,1,.715.313,2.452,2.452,0,0,1,.539.363,1.42,1.42,0,0,1,.343.466,1.5,1.5,0,0,1,.12.627,1.478,1.478,0,0,1-.2.773,1.682,1.682,0,0,1-.524.545,2.4,2.4,0,0,1-.756.322,3.732,3.732,0,0,1-.9.105A3.4,3.4,0,0,1,327.876,281.117Z"/><path class="c" d="M338.153,278.574h-4.236a2.244,2.244,0,0,0,.539,1.547,1.858,1.858,0,0,0,1.418.545,2.948,2.948,0,0,0,1.863-.668v.9a3.482,3.482,0,0,1-2.092.574,2.536,2.536,0,0,1-2-.817,3.346,3.346,0,0,1-.727-2.3,3.281,3.281,0,0,1,.794-2.282,2.546,2.546,0,0,1,1.972-.882,2.256,2.256,0,0,1,1.822.762,3.176,3.176,0,0,1,.645,2.115Zm-.984-.814a1.955,1.955,0,0,0-.4-1.295,1.368,1.368,0,0,0-1.1-.463,1.552,1.552,0,0,0-1.154.486,2.207,2.207,0,0,0-.586,1.271Z"/><path class="c" d="M342.735,276.306a1.175,1.175,0,0,0-.727-.193,1.226,1.226,0,0,0-1.028.58,2.682,2.682,0,0,0-.413,1.582v3.059h-.961v-6h.961v1.236h.023a2.1,2.1,0,0,1,.627-.987,1.43,1.43,0,0,1,.943-.354,1.569,1.569,0,0,1,.574.082Z"/><path class="c" d="M348.5,275.333l-2.391,6h-.943l-2.273-6h1.055l1.523,4.359a3.913,3.913,0,0,1,.211.838h.023a3.962,3.962,0,0,1,.188-.814l1.594-4.383Z"/><path class="c" d="M350.487,281.333h-.961v-8.883h.961Z"/><path class="c" d="M357.255,278.574h-4.236a2.244,2.244,0,0,0,.539,1.547,1.858,1.858,0,0,0,1.418.545,2.948,2.948,0,0,0,1.863-.668v.9a3.482,3.482,0,0,1-2.092.574,2.536,2.536,0,0,1-2-.817,3.346,3.346,0,0,1-.727-2.3,3.281,3.281,0,0,1,.794-2.282,2.546,2.546,0,0,1,1.972-.882,2.256,2.256,0,0,1,1.822.762,3.176,3.176,0,0,1,.645,2.115Zm-.984-.814a1.955,1.955,0,0,0-.4-1.295,1.368,1.368,0,0,0-1.1-.463,1.552,1.552,0,0,0-1.154.486,2.207,2.207,0,0,0-.586,1.271Z"/><path class="c" d="M361.491,281.275a1.853,1.853,0,0,1-.9.188q-1.576,0-1.576-1.758v-3.551h-1.031v-.82h1.031v-1.465l.961-.311v1.775h1.512v.82h-1.512v3.381a1.4,1.4,0,0,0,.205.861.818.818,0,0,0,.68.258,1.01,1.01,0,0,0,.627-.2Z"/><path class="c" d="M451.341,281.333h-.961v-3.422q0-1.91-1.395-1.91a1.513,1.513,0,0,0-1.192.542,2.009,2.009,0,0,0-.472,1.368v3.422h-.961v-6h.961v1h.023a2.166,2.166,0,0,1,1.969-1.137,1.836,1.836,0,0,1,1.506.636,2.832,2.832,0,0,1,.521,1.837Z"/><path class="c" d="M455.659,281.474a2.783,2.783,0,0,1-2.124-.841,3.114,3.114,0,0,1-.794-2.229,3.244,3.244,0,0,1,.826-2.361,2.97,2.97,0,0,1,2.232-.85,2.691,2.691,0,0,1,2.095.826,3.276,3.276,0,0,1,.753,2.291,3.223,3.223,0,0,1-.812,2.3A2.844,2.844,0,0,1,455.659,281.474Zm.07-5.473a1.828,1.828,0,0,0-1.465.63,2.587,2.587,0,0,0-.539,1.737,2.447,2.447,0,0,0,.545,1.682,1.852,1.852,0,0,0,1.459.615,1.757,1.757,0,0,0,1.433-.6,2.619,2.619,0,0,0,.5-1.717,2.664,2.664,0,0,0-.5-1.734A1.749,1.749,0,0,0,455.729,276Z"/><path class="c" d="M465.3,281.333h-.961v-1.02h-.023a2.218,2.218,0,0,1-2.062,1.16,2.241,2.241,0,0,1-1.808-.806,3.305,3.305,0,0,1-.677-2.194,3.6,3.6,0,0,1,.75-2.385,2.474,2.474,0,0,1,2-.9,1.923,1.923,0,0,1,1.8.973h.023v-3.715h.961Zm-.961-2.713v-.885a1.717,1.717,0,0,0-.48-1.23,1.612,1.612,0,0,0-1.219-.5,1.659,1.659,0,0,0-1.383.645,2.824,2.824,0,0,0-.5,1.781,2.54,2.54,0,0,0,.483,1.638,1.58,1.58,0,0,0,1.3.6,1.641,1.641,0,0,0,1.3-.58A2.161,2.161,0,0,0,464.343,278.621Z"/><path class="c" d="M472.071,278.574h-4.236a2.244,2.244,0,0,0,.539,1.547,1.858,1.858,0,0,0,1.418.545,2.948,2.948,0,0,0,1.863-.668v.9a3.482,3.482,0,0,1-2.092.574,2.536,2.536,0,0,1-2-.817,3.346,3.346,0,0,1-.727-2.3,3.281,3.281,0,0,1,.794-2.282,2.546,2.546,0,0,1,1.972-.882,2.256,2.256,0,0,1,1.822.762,3.176,3.176,0,0,1,.645,2.115Zm-.984-.814a1.955,1.955,0,0,0-.4-1.295,1.368,1.368,0,0,0-1.1-.463,1.552,1.552,0,0,0-1.154.486,2.207,2.207,0,0,0-.586,1.271Z"/><path class="c" d="M473.858,281.462a.622.622,0,0,1-.46-.193.636.636,0,0,1-.19-.463.646.646,0,0,1,.19-.466.617.617,0,0,1,.46-.2.634.634,0,0,1,.469.2.641.641,0,0,1,.193.466.632.632,0,0,1-.193.463A.638.638,0,0,1,473.858,281.462Z"/><path class="c" d="M477.087,281.082a3.761,3.761,0,0,1-.595,2.276,1.994,1.994,0,0,1-1.7.8,1.807,1.807,0,0,1-.8-.187v-.9a1.59,1.59,0,0,0,.82.264q1.313,0,1.313-2.1v-5.906h.961Zm-.469-7.271a.609.609,0,0,1-.439-.176.593.593,0,0,1-.182-.445.615.615,0,0,1,.621-.627.621.621,0,0,1,.448.179.626.626,0,0,1,0,.888A.615.615,0,0,1,476.618,273.81Z"/><path class="c" d="M478.669,281.117v-1.031a2.844,2.844,0,0,0,1.729.58q1.266,0,1.266-.844a.732.732,0,0,0-.108-.407,1.08,1.08,0,0,0-.293-.3,2.255,2.255,0,0,0-.434-.231q-.249-.1-.536-.214a6.9,6.9,0,0,1-.7-.319,2.115,2.115,0,0,1-.5-.363,1.352,1.352,0,0,1-.3-.46,1.627,1.627,0,0,1-.1-.6,1.434,1.434,0,0,1,.193-.747,1.715,1.715,0,0,1,.516-.545,2.4,2.4,0,0,1,.735-.331,3.262,3.262,0,0,1,.853-.111,3.442,3.442,0,0,1,1.395.27v.973a2.718,2.718,0,0,0-1.523-.434,1.781,1.781,0,0,0-.486.062,1.191,1.191,0,0,0-.372.173.8.8,0,0,0-.24.267.7.7,0,0,0-.085.343.822.822,0,0,0,.085.393.864.864,0,0,0,.249.281,1.9,1.9,0,0,0,.4.223q.234.1.533.217a7.421,7.421,0,0,1,.715.313,2.452,2.452,0,0,1,.539.363,1.42,1.42,0,0,1,.343.466,1.5,1.5,0,0,1,.12.627,1.478,1.478,0,0,1-.2.773,1.682,1.682,0,0,1-.524.545,2.4,2.4,0,0,1-.756.322,3.732,3.732,0,0,1-.9.105A3.4,3.4,0,0,1,478.669,281.117Z"/><path class="b" d="M189.8,20.547V32h-2.461V23.328a3.022,3.022,0,0,1-.48.34,5.085,5.085,0,0,1-.59.289,5.323,5.323,0,0,1-.648.219,4.708,4.708,0,0,1-.664.129V22.227a10.261,10.261,0,0,0,1.813-.719,10.389,10.389,0,0,0,1.539-.961Z"/><path class="b" d="M194.641,32.2a1.438,1.438,0,0,1-1.016-.375,1.2,1.2,0,0,1-.406-.922,1.159,1.159,0,0,1,.418-.922,1.54,1.54,0,0,1,1.043-.359,1.488,1.488,0,0,1,1.035.363,1.258,1.258,0,0,1-.008,1.852A1.549,1.549,0,0,1,194.641,32.2Z"/><path class="b" d="M205.383,22.219q-.75,1.352-1.344,2.535t-1.047,2.336a21.786,21.786,0,0,0-.773,2.344A22.233,22.233,0,0,0,201.7,32h-2.578a20.742,20.742,0,0,1,.578-2.516,22.965,22.965,0,0,1,.832-2.348Q201,26,201.574,24.922t1.215-2.109h-5.2V20.8h7.8Z"/><path class="b" d="M212.539,20.547V32h-2.461V23.328a3.022,3.022,0,0,1-.48.34,5.085,5.085,0,0,1-.59.289,5.323,5.323,0,0,1-.648.219,4.708,4.708,0,0,1-.664.129V22.227a10.261,10.261,0,0,0,1.813-.719,10.389,10.389,0,0,0,1.539-.961Z"/><path class="msillu-white" d="M199,55a4.991,4.991,0,0,1-3-8.986V40h-8.23a3,3,0,0,1,0-6h23a3,3,0,0,1,0,6H202v6.014A4.991,4.991,0,0,1,199,55Z"/><path class="b" d="M211.77,37a1,1,0,0,1-1,1H200v9.184a3,3,0,1,1-2,0V38H187.77a1,1,0,0,1,0-2h23A1,1,0,0,1,211.77,37Z"/><path class="b" d="M452.836,193.2q-4,0-4-5.617a7.635,7.635,0,0,1,1.082-4.441,3.6,3.6,0,0,1,3.137-1.527q3.905,0,3.906,5.711a7.525,7.525,0,0,1-1.066,4.359A3.512,3.512,0,0,1,452.836,193.2Zm.109-9.7q-1.6,0-1.6,4.023,0,3.79,1.57,3.789,1.529,0,1.531-3.906T452.945,183.492Z"/><path class="b" d="M459.641,193.2a1.438,1.438,0,0,1-1.016-.375,1.2,1.2,0,0,1-.406-.922,1.159,1.159,0,0,1,.418-.922,1.54,1.54,0,0,1,1.043-.359,1.488,1.488,0,0,1,1.035.363,1.258,1.258,0,0,1-.008,1.852A1.549,1.549,0,0,1,459.641,193.2Z"/><path class="b" d="M469.273,181.8v7.063h1.344V190.7h-1.344V193h-2.25v-2.3h-4.883v-1.93q.647-.727,1.344-1.59t1.344-1.777q.647-.914,1.207-1.84a19.043,19.043,0,0,0,.949-1.77Zm-4.922,7.063h2.672v-3.914q-.275.508-.594,1.027c-.215.347-.437.688-.672,1.023s-.473.662-.711.977S464.574,188.583,464.352,188.859Z"/><path class="b" d="M471.953,192.633v-2.148a4.336,4.336,0,0,0,2.625.82,2.365,2.365,0,0,0,1.473-.406,1.348,1.348,0,0,0,.527-1.133,1.29,1.29,0,0,0-.652-1.156,3.386,3.386,0,0,0-1.793-.406h-1.039v-1.891h.961q2.186,0,2.188-1.453,0-1.367-1.68-1.367a3.826,3.826,0,0,0-2.187.727V182.2a6.042,6.042,0,0,1,2.75-.594,4.154,4.154,0,0,1,2.676.773,2.465,2.465,0,0,1,.957,2.008,2.61,2.61,0,0,1-2.227,2.75v.039a3.031,3.031,0,0,1,1.875.863,2.44,2.44,0,0,1,.688,1.754,3.006,3.006,0,0,1-1.148,2.484,4.968,4.968,0,0,1-3.172.914A6.127,6.127,0,0,1,471.953,192.633Z"/><path class="msillu-white" d="M464,216a4.991,4.991,0,0,1-3-8.986V201h-8.23a3,3,0,1,1,0-6h23a3,3,0,0,1,0,6H467v6.014A4.991,4.991,0,0,1,464,216Z"/><path class="b" d="M476.77,198a1,1,0,0,1-1,1H465v9.184a3,3,0,1,1-2,0V199H452.77a1,1,0,1,1,0-2h23A1,1,0,0,1,476.77,198Z"/><path class="b" d="M321.836,127.2q-4,0-4-5.617a7.635,7.635,0,0,1,1.082-4.441,3.6,3.6,0,0,1,3.137-1.527q3.905,0,3.906,5.711a7.525,7.525,0,0,1-1.066,4.359A3.512,3.512,0,0,1,321.836,127.2Zm.109-9.7q-1.6,0-1.6,4.023,0,3.79,1.57,3.789,1.529,0,1.531-3.906T321.945,117.492Z"/><path class="b" d="M328.641,127.2a1.438,1.438,0,0,1-1.016-.375,1.2,1.2,0,0,1-.406-.922,1.159,1.159,0,0,1,.418-.922,1.54,1.54,0,0,1,1.043-.359,1.488,1.488,0,0,1,1.035.363,1.258,1.258,0,0,1-.008,1.852A1.549,1.549,0,0,1,328.641,127.2Z"/><path class="b" d="M339.328,120.859a9.935,9.935,0,0,1-.328,2.668,5.742,5.742,0,0,1-.957,1.988,4.234,4.234,0,0,1-1.535,1.246,4.707,4.707,0,0,1-2.055.434,5.832,5.832,0,0,1-2.367-.437v-2.031a3.789,3.789,0,0,0,2.125.578,2.45,2.45,0,0,0,1.992-.867,3.876,3.876,0,0,0,.727-2.508l-.047-.016a2.539,2.539,0,0,1-2.258,1.1,3.093,3.093,0,0,1-1.27-.258,3.037,3.037,0,0,1-1.008-.715,3.236,3.236,0,0,1-.664-1.09,3.888,3.888,0,0,1-.238-1.391,4.305,4.305,0,0,1,.289-1.609,3.647,3.647,0,0,1,.809-1.25,3.571,3.571,0,0,1,1.246-.809,4.369,4.369,0,0,1,1.609-.285,3.687,3.687,0,0,1,1.641.355,3.458,3.458,0,0,1,1.238,1.027,4.824,4.824,0,0,1,.781,1.648A8.354,8.354,0,0,1,339.328,120.859Zm-2.492-1.312a2.931,2.931,0,0,0-.109-.809,2.2,2.2,0,0,0-.3-.652,1.494,1.494,0,0,0-.477-.434,1.232,1.232,0,0,0-.617-.16,1.252,1.252,0,0,0-.59.141,1.425,1.425,0,0,0-.465.387,1.808,1.808,0,0,0-.3.59,2.4,2.4,0,0,0-.109.742,2.5,2.5,0,0,0,.109.777,1.649,1.649,0,0,0,.309.574,1.293,1.293,0,0,0,.48.355,1.555,1.555,0,0,0,.625.121,1.344,1.344,0,0,0,.594-.129,1.457,1.457,0,0,0,.457-.348,1.578,1.578,0,0,0,.3-.516A1.9,1.9,0,0,0,336.836,119.547Z"/><path class="b" d="M348.711,123.273a4.131,4.131,0,0,1-.289,1.547,3.783,3.783,0,0,1-.8,1.246,3.732,3.732,0,0,1-1.227.828,3.958,3.958,0,0,1-1.555.3,3.916,3.916,0,0,1-1.691-.352,3.409,3.409,0,0,1-1.262-1.02,4.754,4.754,0,0,1-.789-1.637,8.035,8.035,0,0,1-.273-2.2,9,9,0,0,1,.355-2.621,5.986,5.986,0,0,1,1.016-2.012,4.558,4.558,0,0,1,1.6-1.293,4.751,4.751,0,0,1,2.109-.457,5.33,5.33,0,0,1,2.016.3v2.063a3.7,3.7,0,0,0-1.859-.484,2.6,2.6,0,0,0-1.133.242,2.494,2.494,0,0,0-.871.688,3.3,3.3,0,0,0-.57,1.074,4.739,4.739,0,0,0-.223,1.4h.047a2.716,2.716,0,0,1,2.352-1.1,3.069,3.069,0,0,1,1.258.25,2.733,2.733,0,0,1,.961.707,3.258,3.258,0,0,1,.617,1.1A4.417,4.417,0,0,1,348.711,123.273Zm-2.414.156q0-1.8-1.477-1.8a1.45,1.45,0,0,0-.609.125,1.336,1.336,0,0,0-.469.352,1.6,1.6,0,0,0-.3.535,2.1,2.1,0,0,0-.105.684,2.6,2.6,0,0,0,.109.773,2.038,2.038,0,0,0,.309.629,1.512,1.512,0,0,0,.473.426,1.2,1.2,0,0,0,.609.156,1.321,1.321,0,0,0,.605-.137,1.364,1.364,0,0,0,.461-.383,1.782,1.782,0,0,0,.293-.594A2.753,2.753,0,0,0,346.3,123.43Z"/><path class="msillu-white" d="M333,150a4.991,4.991,0,0,1-3-8.986V135h-8.23a3,3,0,0,1,0-6h23a3,3,0,0,1,0,6H336v6.014A4.991,4.991,0,0,1,333,150Z"/><path class="b" d="M345.77,132a1,1,0,0,1-1,1H334v9.184a3,3,0,1,1-2,0V133H321.77a1,1,0,0,1,0-2h23A1,1,0,0,1,345.77,132Z"/></svg>