<svg xmlns="http://www.w3.org/2000/svg" viewBox="0 0 636 300"><title>swimlane-speed-gauge-comparison</title><circle cx="136.552" cy="163.158" r="75.314" transform="translate(-45.623 273.064) rotate(-81.176)" fill="#737373"/><path d="M191.134,215.051A75.313,75.313,0,0,0,84.659,108.576Z" fill="#939393"/><circle cx="136.552" cy="163.158" r="65.524" fill="#fff"/><path d="M98.924,162.583a37.632,37.632,0,0,1,75.256,0h20.7a58.328,58.328,0,0,0-116.65,0Z" fill="#e6e6e6"/><path d="M136.339,104.824a58.4,58.4,0,0,0-58.112,57.759h20.7a37.677,37.677,0,0,1,37.49-37.064Z" fill="#f08400"/><path d="M125.406,109.82l-1.988.473,8.549,44.984a8.532,8.532,0,1,0,6.538-1.632Z"/><circle cx="318.267" cy="138.153" r="97.514" fill="#737373"/><path d="M387.55,206.767a97.509,97.509,0,0,0-137.9-137.9Z" fill="#939393"/><circle cx="318.267" cy="138.153" r="84.839" fill="#fff"/><path d="M269.548,137.408a48.724,48.724,0,0,1,97.438,0h26.8a75.521,75.521,0,0,0-151.034,0Z" fill="#e6e6e6"/><path d="M361.722,116.138l23.893-12.105A75.5,75.5,0,0,0,242.75,137.408h26.8a48.712,48.712,0,0,1,92.174-21.27Z" fill="#5c2d91"/><path d="M317.991,62.624a75.609,75.609,0,0,0-75.241,74.784h26.8a48.784,48.784,0,0,1,48.541-47.989Z" fill="none"/><path d="M259.515,90.8a75.117,75.117,0,0,0-16.765,46.609h26.8A48.467,48.467,0,0,1,280.359,107.6Z" fill="none"/><path d="M366.736,88l-1.913-1.827-42.85,40.972a11.047,11.047,0,1,0,6.378,5.954Z"/><circle cx="501.019" cy="163.158" r="75.314" transform="translate(31.375 402.062) rotate(-45)" fill="#737373"/><path d="M555.079,215.589A75.309,75.309,0,0,0,448.588,109.1Z" fill="#939393"/><circle cx="501.019" cy="163.158" r="65.524" fill="#fff"/><path d="M463.391,162.583a37.632,37.632,0,0,1,75.256,0h20.7a58.328,58.328,0,0,0-116.65,0Z" fill="#e6e6e6"/><path d="M455.643,126.584a58.016,58.016,0,0,0-12.949,36h20.7a37.439,37.439,0,0,1,8.35-23.023Z" fill="#91a80a"/><path d="M451.353,142.953l-.711,1.915L492.8,162.747a8.532,8.532,0,1,0,2.275-6.343Z"/><text transform="translate(283.513 268.512)" font-size="16" font-family="SegoeUI, Segoe UI">.NET Core</text><text transform="translate(95.653 268.512)" font-size="16" font-family="SegoeUI, Segoe UI">Java Servlet</text><text transform="translate(474.386 268.511)" font-size="16" font-family="SegoeUI, Segoe UI">Node.js</text><text transform="translate(121.88 197.398)" font-size="16" font-family="SegoeUI, Segoe UI">0.96</text><text transform="translate(303.595 175.398)" font-size="16" font-family="SegoeUI, Segoe UI">1.71</text><text transform="translate(486.347 197.398)" font-size="16" font-family="SegoeUI, Segoe UI">0.43</text></svg>