<svg id="Layer_1" data-name="Layer 1" xmlns="http://www.w3.org/2000/svg" viewBox="0 0 636 300"><defs><style>.cls-1{fill:#737373;}.cls-2{fill:#939393;}.cls-3{fill:#fff;}.cls-4{fill:#e6e6e6;}.cls-5{fill:#f08400;}.cls-6{fill:#5c2d91;}.cls-7{fill:none;}.cls-8{fill:#91a80a;}</style></defs><title>swimlane-speed-gauge-comparison_notext</title><circle class="cls-1" cx="136.55" cy="163.16" r="75.31" transform="translate(-45.62 273.06) rotate(-81.18)"/><path class="cls-2" d="M191.13,215.05A75.31,75.31,0,0,0,84.66,108.58Z"/><circle class="cls-3" cx="136.55" cy="163.16" r="65.52"/><path class="cls-4" d="M98.92,162.58a37.63,37.63,0,0,1,75.26,0h20.7a58.33,58.33,0,0,0-116.65,0Z"/><path class="cls-5" d="M136.34,104.82a58.4,58.4,0,0,0-58.11,57.76H98.92a37.68,37.68,0,0,1,37.49-37.06Z"/><path d="M125.41,109.82l-2,.47,8.55,45a8.52,8.52,0,1,0,6.54-1.64Z"/><circle class="cls-1" cx="318.27" cy="138.15" r="97.51"/><path class="cls-2" d="M387.55,206.77a97.51,97.51,0,0,0-137.9-137.9Z"/><circle class="cls-3" cx="318.27" cy="138.15" r="84.84"/><path class="cls-4" d="M269.55,137.41a48.73,48.73,0,0,1,97.44,0h26.79a75.52,75.52,0,0,0-151,0Z"/><path class="cls-6" d="M361.72,116.14,385.61,104a75.5,75.5,0,0,0-142.86,33.38h26.8a48.71,48.71,0,0,1,92.17-21.27Z"/><path class="cls-7" d="M318,62.62a75.61,75.61,0,0,0-75.24,74.79h26.8a48.79,48.79,0,0,1,48.54-48Z"/><path class="cls-7" d="M259.52,90.8a75.07,75.07,0,0,0-16.77,46.61h26.8a48.45,48.45,0,0,1,10.81-29.81Z"/><path d="M366.74,88l-1.92-1.82-42.85,41a11,11,0,1,0,6.38,5.95Z"/><circle class="cls-1" cx="501.02" cy="163.16" r="75.31" transform="translate(31.38 402.06) rotate(-45)"/><path class="cls-2" d="M555.08,215.59A75.31,75.31,0,0,0,448.59,109.1Z"/><circle class="cls-3" cx="501.02" cy="163.16" r="65.52"/><path class="cls-4" d="M463.39,162.58a37.63,37.63,0,0,1,75.26,0h20.69a58.33,58.33,0,0,0-116.65,0Z"/><path class="cls-8" d="M455.64,126.58a58.11,58.11,0,0,0-12.95,36h20.7a37.45,37.45,0,0,1,8.35-23Z"/><path d="M451.35,143l-.71,1.92,42.16,17.88a8.53,8.53,0,1,0,2.27-6.35Z"/></svg>