<svg xmlns="http://www.w3.org/2000/svg" viewBox="0 0 636 300"><title>swimlane-data-analytics-pipeline</title><path d="M237.877,137.328l-7.251-4.261-10.3,12.2-11.867,1.65L212.419,161l13.571-7.24a4.472,4.472,0,0,0,1.259-1.095h0Z" fill="#002050" fill-rule="evenodd"/><path d="M280.335,122.911a12.479,12.479,0,0,1,.625,6,9.463,9.463,0,0,1-5.675,7.61,10.574,10.574,0,0,1-6.024.959L218.54,130a16.576,16.576,0,0,1-3.3-.96,13.071,13.071,0,0,0,9.523,6.524l50.72,7.482a9.925,9.925,0,0,0,5.83-.959,9.5,9.5,0,0,0,6.024-7.866A10.481,10.481,0,0,0,280.335,122.911Z" fill="#e6a600" fill-rule="evenodd"/><path d="M489.7,287.453H311.991a4.627,4.627,0,0,1-4.525-4.5,4.526,4.526,0,0,1,4.525-4.5H489.7a4.432,4.432,0,0,1,4.525,4.5,4.525,4.525,0,0,1-4.525,4.5Z" fill="#b2b2b2"/><path d="M246.7,265.453H145.991a4.627,4.627,0,0,1-4.525-4.5,4.526,4.526,0,0,1,4.525-4.5H246.7a4.432,4.432,0,0,1,4.525,4.5,4.525,4.525,0,0,1-4.525,4.5Z" fill="#b2b2b2"/><path d="M479.127,281.7V241.453h-2v40.206a3.266,3.266,0,0,0-2.236,1.936h6.236A3.285,3.285,0,0,0,479.127,281.7Z" fill="#409ae1" fill-rule="evenodd"/><path d="M398,223.754a9.954,9.954,0,0,0,1.58,1.4,20.21,20.21,0,0,0,12.251,4.606,20.913,20.913,0,0,0,21.538-20.429,19.736,19.736,0,0,0-2.569-11.016,20.136,20.136,0,0,0-8.1-8.212,22.883,22.883,0,0,0-5.138-2,19.676,19.676,0,0,0-19.957,5.809h0A21.176,21.176,0,0,0,398,223.754Z" fill="#69afe5" fill-rule="evenodd"/><path d="M411.888,229.775a20.591,20.591,0,0,0,21.48-19.755c.2-3.874.089-7.507-1.616-10.674a22.384,22.384,0,0,0-8.316-8.889,40.26,40.26,0,0,0-5.059-2.361s-5.1,19.837-5.177,19.986l-.02.025c-13,16.066-13.51,17.214-13.51,17.214A20.534,20.534,0,0,0,411.888,229.775Z" fill="#0078d7" fill-rule="evenodd"/><path d="M413.279,208.131l5.034-20.065a20.658,20.658,0,0,0-20.436,5.593Z" fill="#409ae1" fill-rule="evenodd"/><path d="M280.342,122.729c-.4-.6-.792-1.4-1.188-2a1.825,1.825,0,0,1,.2-1,13.742,13.742,0,0,0-7.918-14.22,9.407,9.407,0,0,0-3.366-1,11.809,11.809,0,0,0-8.314,1.4A17.157,17.157,0,0,0,255.2,99.3a17.957,17.957,0,0,0-3.168-2.2,24.042,24.042,0,0,0-5.345-1.8,17.013,17.013,0,0,0-19,13.62v.4h-.2a13.417,13.417,0,0,0-15.243,11.417,13.723,13.723,0,0,0,1.584,8.412,16.57,16.57,0,0,0,3.365,1l51.668,7.811a10.539,10.539,0,0,0,6.137-1,10.658,10.658,0,0,0,6.137-8.212A12.34,12.34,0,0,0,280.342,122.729Z" fill="#ffcb40" fill-rule="evenodd"/><path d="M284.721,105.951v-49.7a41.523,41.523,0,1,1,83.043,0v49.7Z" fill="#d2d2d2" fill-rule="evenodd"/><path d="M326.127,12.547c-23.758,0-43,19.458-43,43.482v51.424h86V56.029C369.127,32.005,349.885,12.547,326.127,12.547Zm.6,3.361c22.27,0,39.4,18.266,39.4,40.7v48.843h-80V56.61a40.649,40.649,0,0,1,40.6-40.7" fill="#409ae1" fill-rule="evenodd"/><circle cx="326.243" cy="54.261" r="34.742" fill="#ffb900"/><ellipse cx="327.09" cy="54.261" rx="28.811" ry="27.963" fill="#ffcb40"/><path d="M390.257,239.837h97.037a5.37,5.37,0,0,0,5.545-5.192,5.5,5.5,0,0,0-5.545-5.192H390.257a5.365,5.365,0,0,0-5.545,5.192A5.25,5.25,0,0,0,390.257,239.837Z" fill="#ff8c00" fill-rule="evenodd"/><path d="M391.952,243.226h97.037a5.9,5.9,0,0,0,0-11.773H391.952a5.9,5.9,0,0,0,0,11.773Z" fill="#0078d7" fill-rule="evenodd"/><rect x="283.127" y="107.453" width="86" height="3" fill="#0064b5"/><path d="M402.962,79.229c-3.967-3.776-9.52-3.776-10.313-3.776H374.54a8.744,8.744,0,0,0-8.413-6.875v18.75a8.743,8.743,0,0,0,8.413-6.875h17.391a10.768,10.768,0,0,1,6.848,2.709c1.565,1.666,2.348,4.166,2.348,7.291v33.4c0,3-.8,5.4-2.395,7a10.158,10.158,0,0,1-6.986,2.6H375.779c-4.59,0-8.183,1.4-10.778,4a14.345,14.345,0,0,0-3.592,9.4,8.819,8.819,0,0,0-6.586,8.6h18.866a8.717,8.717,0,0,0-6.51-8.5,10.959,10.959,0,0,1,2.368-5.93c1.578-1.779,3.945-2.57,7.1-2.57h16c.793,0,6.346.2,10.313-3.776,2.777-2.584,4.165-5.962,4.165-10.533V89.762C407.127,85.39,405.739,81.813,402.962,79.229Z" fill="#0078d7" fill-rule="evenodd"/><circle cx="440.844" cy="237.295" r="2.542" fill="#001129"/><circle cx="434.065" cy="237.295" r="2.542" fill="#001129"/><circle cx="474.844" cy="237.295" r="2.542" fill="#001129"/><circle cx="468.065" cy="237.295" r="2.542" fill="#001129"/><circle cx="461.286" cy="237.295" r="2.542" fill="#001129"/><circle cx="454.507" cy="237.295" r="2.542" fill="#001129"/><circle cx="447.728" cy="237.295" r="2.542" fill="#001129"/><circle cx="399.844" cy="237.295" r="2.542" fill="#001129"/><circle cx="393.065" cy="237.295" r="2.542" fill="#001129"/><circle cx="427.065" cy="237.295" r="2.542" fill="#001129"/><circle cx="420.286" cy="237.295" r="2.542" fill="#001129"/><circle cx="413.507" cy="237.295" r="2.542" fill="#001129"/><circle cx="406.728" cy="237.295" r="2.542" fill="#001129"/><circle cx="488.402" cy="237.295" r="2.542" fill="#001129"/><circle cx="481.623" cy="237.295" r="2.542" fill="#001129"/><path d="M323.127,90.453V228.882a3.833,3.833,0,0,1-3.9,3.768,3.887,3.887,0,0,1-4.1-3.768V188.308c-.195-5.591-5.861-10.025-11.5-10.025a10.412,10.412,0,0,0-10.5,10.411V229.6a4,4,0,0,1-8,0V207.262a11,11,0,0,0-22,0v20.705a3.373,3.373,0,0,1-3.5,3.47,3.483,3.483,0,0,1-3.5-3.47V196.008l12.4-18.838c.2-.2.4-.4.4-.595h0c-.2-1.586-7.4-2.776-16.4-2.776-8.8,0-16,1.19-16.2,2.776h0c0,.2.2.4.4.595l12.4,18.838v32.965a10.5,10.5,0,0,0,21,0V207.067a3.93,3.93,0,0,1,4.1-3.865,3.879,3.879,0,0,1,3.9,3.865v23.55h0a11.042,11.042,0,0,0,22-1.212V187.8a3.878,3.878,0,0,1,3.9-3.864,3.929,3.929,0,0,1,4.1,3.864v41.082a11,11,0,0,0,22,0c0-47.429-.25-138.679-.25-138.679Z" fill="#0078d7" fill-rule="evenodd"/><ellipse cx="252.368" cy="176.284" rx="16.1" ry="2.542" fill="#0064b5"/><path d="M365.01,146.626h-.635a11.131,11.131,0,0,1,6.567,8.473h3.6C374.543,150.392,370.1,146.626,365.01,146.626Z" fill="#0064b5" fill-rule="evenodd"/><rect x="391.491" y="166.453" width="5.636" height="63" fill="#0064b5"/><path d="M393.127,272.714s0,9.739-9.864,9.739H345.188s-10.061,0-10.061-9.739V165.192s0-9.739,10.061-9.739h38.075s9.864,0,9.864,9.739Z" fill="#0064b5" fill-rule="evenodd"/><path d="M364.277,166.811a18.655,18.655,0,0,0-18.545,18.642h37.285A18.7,18.7,0,0,0,364.277,166.811Z" fill="#c2c2c2" fill-rule="evenodd"/><circle cx="365.222" cy="181.368" r="2.542" fill="#a80000"/><polygon points="364.118 183.91 362.68 182.037 376.238 172.047 364.118 183.91" fill="#a80000" fill-rule="evenodd"/><path d="M368.546,199.75a4.563,4.563,0,0,1-6.453-6.454,4.563,4.563,0,0,1,6.453,6.454Z" fill="#ff8c00" fill-rule="evenodd"/><path d="M368.546,199.75a4.563,4.563,0,0,1-6.453-6.454,4.563,4.563,0,0,1,6.453,6.454Z" fill="none" stroke="#505050" stroke-miterlimit="8"/><path d="M353.546,199.75a4.563,4.563,0,0,1-6.453-6.454,4.563,4.563,0,0,1,6.453,6.454Z" fill="#ff8c00" fill-rule="evenodd"/><path d="M353.546,199.75a4.563,4.563,0,0,1-6.453-6.454,4.563,4.563,0,0,1,6.453,6.454Z" fill="none" stroke="#505050" stroke-miterlimit="8"/><circle cx="380.475" cy="196.621" r="5.084" fill="#ff8c00"/><circle cx="380.475" cy="196.621" r="5.084" transform="translate(125.448 540.688) rotate(-80.783)" fill="none" stroke="#505050" stroke-miterlimit="8"/><path d="M374.939,77.953a12.58,12.58,0,0,1-8.807,5.755v3.6h0A9.023,9.023,0,0,0,374.939,77.953Z" fill="#0064b5" fill-rule="evenodd"/><path d="M303.364,54.258a22.879,22.879,0,0,1,45.758,0,22.191,22.191,0,0,1-4.847,13.959h0a10.651,10.651,0,0,1-1.358,1.744c-2.132,2.714-6.01,8.337-6.01,13.959H315.579c0-5.622-3.878-11.245-6.2-13.959-.388-.581-.969-1.163-1.357-1.744h0a23.228,23.228,0,0,1-4.653-13.959" fill="#fff2e2" fill-rule="evenodd"/><path d="M303.364,54.258a22.879,22.879,0,0,1,45.758,0,22.191,22.191,0,0,1-4.847,13.959h0a10.651,10.651,0,0,1-1.358,1.744c-2.132,2.715-6.01,8.337-6.01,13.959H315.579c0-5.622-3.878-11.244-6.2-13.959-.388-.581-.969-1.163-1.357-1.744h0a23.228,23.228,0,0,1-4.653-13.959" fill="none" stroke="#fff" stroke-miterlimit="8" stroke-width="2"/><path d="M303.364,54.258a22.879,22.879,0,0,1,45.758,0,22.191,22.191,0,0,1-4.847,13.959h0a10.651,10.651,0,0,1-1.358,1.744c-2.132,2.715-6.01,8.337-6.01,13.959H315.579c0-5.622-3.878-11.244-6.2-13.959-.388-.581-.969-1.163-1.357-1.744h0a23.228,23.228,0,0,1-4.653-13.959" fill="none" stroke="#fff" stroke-miterlimit="8" stroke-width="2"/><path d="M310.99,55.956a17,17,0,0,1,16.948-16.947" fill="none" stroke="#fff" stroke-linecap="round" stroke-miterlimit="8"/><polygon points="247.935 143.31 246.34 144.636 245.742 143.752 247.935 141.541 249.131 141.541 249.131 151.71 247.935 151.71 247.935 143.31" fill="#ffb900" fill-rule="evenodd"/><polygon points="261.493 159.995 260.098 160.937 259.3 160.372 261.693 158.489 262.69 158.489 262.69 166.963 261.493 166.963 261.493 159.995" fill="#ffb900" fill-rule="evenodd"/><path d="M252.624,160.658c1.643,0,1.849-2.644,1.849-3.864s-.411-4.067-1.849-4.067c-1.644,0-2.055,2.847-2.055,4.067S250.775,160.658,252.624,160.658Z" fill="#e6a600" fill-rule="evenodd"/><path d="M252.624,151.71c2.67,0,3.287,2.847,3.287,5.084,0,2.034-.617,5.084-3.287,5.084-2.876,0-3.493-3.05-3.493-5.084C249.131,154.557,249.748,151.71,252.624,151.71Z" fill="#e6a600" fill-rule="evenodd"/><ellipse cx="255.911" cy="171.199" rx="1.907" ry="3.22" fill="#e6a600"/><ellipse cx="255.911" cy="171.199" rx="3.39" ry="4.237" fill="#e6a600"/><path d="M239.066,162.556c1.643,0,1.848-2.847,1.848-4.067s-.2-3.864-1.848-3.864-1.849,2.644-1.849,3.864S237.217,162.556,239.066,162.556Z" fill="#ffb900" fill-rule="evenodd"/><path d="M239.066,153.405c2.67,0,3.286,3.05,3.286,5.084,0,2.237-.616,5.084-3.286,5.084-2.876,0-3.493-2.847-3.493-5.084C235.573,156.455,236.19,153.405,239.066,153.405Z" fill="#ffb900" fill-rule="evenodd"/><ellipse cx="267.774" cy="156.794" rx="1.907" ry="3.864" fill="#e6a600"/><ellipse cx="267.774" cy="156.794" rx="3.39" ry="5.084" fill="#e6a600"/><polygon points="247.935 143.31 246.34 144.636 245.742 143.752 247.935 141.541 249.131 141.541 249.131 151.71 247.935 151.71 247.935 143.31" fill="#ffb900" fill-rule="evenodd"/><polygon points="261.493 159.995 260.098 160.937 259.3 160.372 261.693 158.489 262.69 158.489 262.69 166.963 261.493 166.963 261.493 159.995" fill="#ffb900" fill-rule="evenodd"/><path d="M252.624,151.71c2.67,0,3.287,2.847,3.287,5.084,0,2.034-.617,5.084-3.287,5.084-2.876,0-3.493-3.05-3.493-5.084C249.131,154.557,249.748,151.71,252.624,151.71Z" fill="#ffcb40" fill-rule="evenodd"/><path d="M252.624,160.658c1.643,0,1.849-2.644,1.849-3.864s-.411-4.067-1.849-4.067c-1.644,0-2.055,2.847-2.055,4.067S250.775,160.658,252.624,160.658Z" fill="#fff" fill-rule="evenodd"/><ellipse cx="255.911" cy="171.199" rx="3.39" ry="4.237" fill="#e6a600"/><ellipse cx="255.911" cy="171.199" rx="1.907" ry="3.22" fill="#fff"/><path d="M242.353,158.489c0,2.237-.617,5.084-3.288,5.084-2.876,0-3.492-2.847-3.492-5.084,0-2.034.616-5.084,3.492-5.084C241.736,153.405,242.353,156.455,242.353,158.489Z" fill="#e6a600" fill-rule="evenodd"/><path d="M240.915,158.489c0,1.22-.206,4.067-1.85,4.067-1.848,0-1.848-2.847-1.848-4.067s.2-3.864,1.848-3.864S240.915,157.269,240.915,158.489Z" fill="#fff" fill-rule="evenodd"/><ellipse cx="267.774" cy="156.794" rx="3.39" ry="5.084" fill="#e6a600"/><ellipse cx="267.774" cy="156.794" rx="1.907" ry="3.864" fill="#fff"/><path d="M451.127,227.28V199.626a2.319,2.319,0,0,0-2.406-2.173h-8.188a2.319,2.319,0,0,0-2.406,2.173V227.28a2.319,2.319,0,0,0,2.406,2.173h8.188A2.319,2.319,0,0,0,451.127,227.28Z" fill="#ffcb40" fill-rule="evenodd"/><path d="M448.317,197.453h-2.141V229.5h2.141c1.605,0,2.81-.854,2.81-2.047v-28C451.127,198.261,449.922,197.453,448.317,197.453Z" fill="#e6a600" fill-rule="evenodd"/><path d="M466.127,227.288v-32.67a2.292,2.292,0,0,0-2.1-2.165h-8.81a2.15,2.15,0,0,0-2.095,2.165v32.67a2,2,0,0,0,1.9,2.165h9A2.15,2.15,0,0,0,466.127,227.288Z" fill="#ffcb40" fill-rule="evenodd"/><path d="M464.127,192.453h-3v37c1.427,0,2.729.047,2.729.047a2.247,2.247,0,0,0,2.271-2.047v-33C466.127,193.263,465.2,192.651,464.127,192.453Z" fill="#e6a600" fill-rule="evenodd"/><path d="M481.127,227.262V183.644a2.3,2.3,0,0,0-2.222-2.191h-8.334a2.349,2.349,0,0,0-2.444,2.191v43.618a2.349,2.349,0,0,0,2.444,2.191h8.111A2.349,2.349,0,0,0,481.127,227.262Z" fill="#ffcb40" fill-rule="evenodd"/><path d="M478.4,181.453h-2.141c-.267,47.453-.267,48.047-.267,48.047h2.141c1.605,0,2.943-1,2.943-2.212V183.453C481.071,182.247,479.733,181.453,478.4,181.453Z" fill="#e6a600" fill-rule="evenodd"/><path d="M349.122,54.258a23.019,23.019,0,0,0-23.075-22.876c-.782,0-1.564.194-2.346.194a22.994,22.994,0,0,1,20.923,22.682,23.266,23.266,0,0,1-4.888,13.959h0c-.391.581-.978,1.163-1.369,1.744-2.151,2.714-6.258,8.337-6.258,13.959H336.8c0-5.622,3.911-11.245,6.062-13.959a10.639,10.639,0,0,0,1.369-1.744h0a22.071,22.071,0,0,0,4.889-13.959" fill="#ffe3c0" fill-rule="evenodd"/><polygon points="241.156 136.344 239.561 137.7 238.963 136.57 241.156 134.762 242.352 134.762 242.352 144.931 241.156 144.931 241.156 136.344" fill="#ffcb40" fill-rule="evenodd"/><polygon points="266.503 138.225 265.02 139.552 264.384 138.446 266.503 136.457 267.774 136.457 267.774 146.626 266.503 146.626 266.503 138.225" fill="#ffcb40" fill-rule="evenodd"/><path d="M257.5,147.1c1.848,0,1.848-2.644,1.848-3.864s-.2-3.864-1.848-3.864-1.849,2.644-1.849,3.864S255.859,147.1,257.5,147.1Z" fill="#ffcb40" fill-rule="evenodd"/><path d="M257.5,138.152c2.876,0,3.492,3.05,3.492,5.084,0,2.237-.616,5.084-3.492,5.084-2.671,0-3.287-2.847-3.287-5.084C254.216,141.2,254.832,138.152,257.5,138.152Z" fill="#ffcb40" fill-rule="evenodd"/><polygon points="266.503 138.225 265.02 139.552 264.384 138.446 266.503 136.457 267.774 136.457 267.774 146.626 266.503 146.626 266.503 138.225" fill="#ffcb40" fill-rule="evenodd"/><path d="M257.5,138.152c2.876,0,3.492,3.05,3.492,5.084,0,2.237-.616,5.084-3.492,5.084-2.671,0-3.287-2.847-3.287-5.084C254.216,141.2,254.832,138.152,257.5,138.152Z" fill="#ffcb40" fill-rule="evenodd"/><path d="M257.5,147.1c1.848,0,1.848-2.644,1.848-3.864s-.2-3.864-1.848-3.864-1.849,2.644-1.849,3.864S255.859,147.1,257.5,147.1Z" fill="#fff" fill-rule="evenodd"/><rect x="348.127" y="214.453" width="3" height="29" fill="#002050"/><rect x="355.127" y="214.453" width="3" height="29" fill="#002050"/><rect x="362.127" y="214.453" width="3" height="29" fill="#002050"/><rect x="369.127" y="214.453" width="3" height="29" fill="#002050"/><rect x="376.127" y="214.453" width="3" height="29" fill="#002050"/><rect x="353.127" y="221.453" width="7" height="2" fill="#ffb900"/><rect x="346.127" y="231.453" width="7" height="2" fill="#ffb900"/><rect x="360.127" y="231.453" width="7" height="2" fill="#ffb900"/><rect x="367.127" y="236.453" width="7" height="2" fill="#ffb900"/><rect x="374.127" y="219.453" width="7" height="2" fill="#ffb900"/><rect x="342.127" y="260.453" width="44" height="2" fill="#002050"/><rect x="342.127" y="263.453" width="44" height="2" fill="#002050"/><polygon points="194.791 197.468 179.647 196.027 182.675 175.855 185.627 151.953 190.032 147.655 199.984 146.626 198.127 189.453 194.791 197.468" fill="#002050" fill-rule="evenodd"/><polygon points="189.815 258.479 183.036 258.045 183.435 250.005 189.616 250.223 189.815 258.479" fill="#001129" fill-rule="evenodd"/><path d="M191.3,261.657l-6.505.212-.209-1.059a61.97,61.97,0,0,1-9.023,1.059c-1.679,0-4.406,0-5.665-.636a1.611,1.611,0,0,1-.42-.847c.21-2.754,10.7-3.813,13.429-6.991h.42c.629.636,1.468,2.118,3.147,2.118s3.357-1.482,3.987-2.118C191.51,254.242,191.51,261.657,191.3,261.657Z" fill="#282828" fill-rule="evenodd"/><polygon points="197.782 256.437 204.361 256.659 204.561 248.186 198.38 248.186 197.782 256.437" fill="#001129" fill-rule="evenodd"/><path d="M196.786,261.249l5.948.206.383-.826c1.727.413,6.14,1.033,8.058,1.24,1.727,0,4.029,0,5.181-.62.191-.207.575-.62.383-.827-.192-2.687-9.784-3.927-12.087-7.027h-.384c-.575.62-1.343,2.067-2.877,2.067s-3.07-1.654-3.646-2.067C196.786,254.015,196.594,261.249,196.786,261.249Z" fill="#282828" fill-rule="evenodd"/><path d="M210.152,192.8l-2.491-.08c-6.451-9.6-22.93-.143-22.93-.143l-2.763-.194-.508,28.236.082,32.761,10.022,1.072.9-33.5h-.008l2.706-17.994c.131,0,.26-.008.392-.008.5,0,.979.019,1.457.045l-.413,17.99.033,33.717,10.168-.62,1.5-34.213h-.018Z" fill="#002050" fill-rule="evenodd"/><polygon points="196.594 198.12 209.627 198.922 213.542 156.216 211.768 147.876 200.141 146.626 197.777 190.615 196.594 198.12" fill="#002050" fill-rule="evenodd"/><path d="M204.432,146.982l.636-6.422-9.321-.713-.636,6.422c-.212,1.6.848,3.211,4.237,3.389C202.738,150.015,204.221,148.409,204.432,146.982Z" fill="#ce9c5f" fill-rule="evenodd"/><path d="M194.9,139.885c2.543,3.467,5.085,5.2,9.533,6.741l.636-6.548L194.9,138.152Z" fill="#ba8c57" fill-rule="evenodd"/><path d="M208.226,137.96c-.971-1.983-2.048-4.912-1.861-4.976a2.8,2.8,0,0,0,.611-.306.645.645,0,0,0,.2-.786c-.76-1.021-2.685-3.267-2.832-3.682-.485-1.375-1.413-3.616-1.413-3.616l-13.624,2.95a11.31,11.31,0,0,0-.41,4.417s1.733,15.707,18.575,7.78A1.274,1.274,0,0,0,208.226,137.96Z" fill="#ce9c5f" fill-rule="evenodd"/><path d="M199.984,119.917c2.071-.408,4.142,0,4.519,2.244.565,3.06-2.448,3.672-3.766,3.876l-1.883.408a1.391,1.391,0,0,0-.753,1.836l1.883,4.284-.942.612a.337.337,0,0,1-.565,0c-.565-.816-1.695-2.244-3.013-1.428-1.318,1.02-.753,2.448,0,3.264.754.612,1.592.911,1.883,1.836.135.429,1.13,3.264-1.506,4.692a10.754,10.754,0,0,1-6.214-6.12,9.676,9.676,0,0,1,.188-9.18C191.71,122.87,196.406,120.733,199.984,119.917Z" fill="#301d19" fill-rule="evenodd"/><polygon points="199.81 149.492 198.289 177.131 202.852 159.933 206.763 147.854 206.328 146.626 199.81 149.492" fill="#d2d2d2" fill-rule="evenodd"/><polygon points="199.984 148.904 198.402 177.131 195.012 159.776 193.205 146.185 193.883 144.931 199.984 148.904" fill="#fff" fill-rule="evenodd"/><polygon points="199.984 149.257 194.962 143.236 193.205 145.02 194.209 151.71 198.477 148.365 199.984 149.257" fill="#d2d2d2" fill-rule="evenodd"/><polygon points="199.984 149.034 205.232 144.931 206.763 146.536 204.357 151.71 201.296 148.499 199.984 149.034" fill="#fff" fill-rule="evenodd"/><polygon points="198.713 148.32 198.289 148.804 199.136 151.71 200.407 151.71 201.678 149.289 201.255 148.804 198.713 148.32" fill="#e81123" fill-rule="evenodd"/><polygon points="198.531 151.71 196.594 174.342 197.805 178.826 199.502 175.286 199.984 151.71 198.531 151.71" fill="#e81123" fill-rule="evenodd"/><path d="M208.457,149.6l-3.155-2.974s-5.073,23.329-7.04,30.876c-1.019-7.857-4.51-32.215-4.51-32.215l-3.937,2.259,1.38,1.809-1.183.6c1.971,8.848,7.883,30.564,7.883,30.564.015-.106.028-.2.041-.3-.006.144-.014.286-.017.438,0,0,7.032-20.359,10.013-28.684l-.877-.594Z" fill="#001129" fill-rule="evenodd"/><polygon points="181.96 196.286 194.847 197.426 196.555 189.689 196.128 197.426 209.752 198.536 209.658 199.609 196.128 199.194 195.274 197.426 194.42 199.194 181.835 199.828 181.96 196.286" fill="#001129" fill-rule="evenodd"/><path d="M228.1,127.78c2.6-3.051,2.972-4.678,3.714-8.338.372-2.237-.185-3.051-.928-2.237.928-2.034-.372-3.864-.929-2.644,0-.407-.186-1.627-.928-1.831-.558,0-.743,1.221-.743,1.831-.557-.61-1.486-.61-1.672,1.22a4.367,4.367,0,0,1-.928,2.237c-.186-1.627-.929-2.237-1.672-1.83,0,1.627-.557,4.067-.557,6.3v1.22l-4.829,8.135,6.5,1.22Z" fill="#ce9c5f" fill-rule="evenodd"/><polygon points="227.289 130.044 221.502 126.312 220.315 128.359 226.252 131.969 227.289 130.044" fill="#f3f3f3" fill-rule="evenodd"/><rect x="342.127" y="279.453" width="5" height="5" fill="#0064b5"/><rect x="381.127" y="279.453" width="5" height="5" fill="#0064b5"/><rect x="314.127" y="83.453" width="25" height="4" fill="#0078d7"/><rect x="314.127" y="91.453" width="25" height="4" fill="#0078d7"/><rect x="314.127" y="95.453" width="25" height="4" fill="#0064b5"/><rect x="314.127" y="87.453" width="25" height="4" fill="#0064b5"/><polygon points="246.503 162.225 245.02 163.552 244.384 162.446 246.503 160.457 247.774 160.457 247.774 170.626 246.503 170.626 246.503 162.225" fill="#ffcb40" fill-rule="evenodd"/><path d="M227.1,132.479l-7.412-4.5-10.376,13.845s-18.683,4.007-19.035,4.106a6.847,6.847,0,0,0-4.358,8.63,6.72,6.72,0,0,0,8.518,4.415c.164-.046,18.53-8.076,18.53-8.076a8.944,8.944,0,0,0,4.6-3.479Z" fill="#002050" fill-rule="evenodd"/><path d="M206.752,134.452l-3.582,1.074a3.854,3.854,0,0,0,4.17.448C207.118,135.434,206.916,134.909,206.752,134.452Z" fill="#fff" fill-rule="evenodd"/><circle cx="203.695" cy="130.354" r="0.858" fill="#301d19"/></svg>