<svg xmlns="http://www.w3.org/2000/svg" xmlns:xlink="http://www.w3.org/1999/xlink" viewBox="0 0 636 300"><defs><clipPath id="a"><rect x="18" y="78.735" width="600" height="142.531" fill="none"/></clipPath></defs><title>swimlane-brand-docker</title><g clip-path="url(#a)"><path d="M334.032,114.711a5.247,5.247,0,0,0-5.213,5.21v21.724a30.272,30.272,0,0,0-19.573-7.766,13.912,13.912,0,0,0-1.968.1,35.058,35.058,0,0,0-10.721,2.163,30.7,30.7,0,0,0-18.688,24.967c-1.377,11.108,2.95,21.528,11.606,27.917a32.117,32.117,0,0,0,19.18,6.389,32.514,32.514,0,0,0,8.067-1.081,29.556,29.556,0,0,0,19.671-16.612,31.725,31.725,0,0,0,2.754-12.386V119.823A5.078,5.078,0,0,0,334.032,114.711Zm-5.213,50.525a24.276,24.276,0,0,1-1.868,8.355A19.327,19.327,0,0,1,314.164,184.4a21.882,21.882,0,0,1-18.492-3.637c-5.607-4.128-8.361-11.009-7.476-18.382a20.713,20.713,0,0,1,12.394-16.71,22.472,22.472,0,0,1,7.475-1.376h1.181a20.4,20.4,0,0,1,19.573,19.954Zm47.115-31.553a4.053,4.053,0,0,0-1.082.1h-.688a29.249,29.249,0,0,0-22.23,11.4,32.027,32.027,0,0,0-6.2,26.344,30.237,30.237,0,0,0,15.149,19.856,30.814,30.814,0,0,0,15.146,3.932,28.386,28.386,0,0,0,9.443-1.573c8.754-2.359,15.738-8.846,19.279-17.693a31.646,31.646,0,0,0-2.558-28.212A30.887,30.887,0,0,0,375.934,133.683Zm19.18,38.729a18.514,18.514,0,0,1-12.392,11.5c-.1,0-.295.1-.394.1a20.728,20.728,0,0,1-26.36-14.843,21.2,21.2,0,0,1,4.228-17.694A18.8,18.8,0,0,1,374.459,144a4.013,4.013,0,0,0,1.082-.1h1.082a20.617,20.617,0,0,1,17.017,9.535A21.769,21.769,0,0,1,395.114,172.412ZM618,139.384a5.162,5.162,0,0,1-5.114,5.209,19.586,19.586,0,0,0-13.476,5.112c-.1.1-.2.1-.2.2-5.017,4.128-6.885,9.24-6.786,18.873l.2,21.527a5.163,5.163,0,0,1-5.115,5.21h-.1a5.079,5.079,0,0,1-5.115-5.112l-.2-21.527c-.1-8.945,1.082-19.07,10.425-26.835a29.926,29.926,0,0,1,20.459-7.766A5.121,5.121,0,0,1,618,139.384ZM460.623,184.306a5.164,5.164,0,0,1-1.869,7.077,30.923,30.923,0,0,1-15.443,4.227,31.3,31.3,0,0,1-15.246-4.03,29.85,29.85,0,0,1-15.048-26.246c0-20.937,15.048-31.062,29.016-31.651h1.573a27.312,27.312,0,0,1,15.148,4.128,5.2,5.2,0,1,1-5.607,8.748,17.341,17.341,0,0,0-9.639-2.457h-1.18c-8.853.393-19.181,6.193-19.181,21.331a19.608,19.608,0,0,0,9.836,17.3,20.364,20.364,0,0,0,20.362-.1A5.137,5.137,0,0,1,460.623,184.306ZM570.1,146.166a31.381,31.381,0,0,0-25.575-12.483c-12.2,0-23.507,7.863-28.229,19.561-4.819,12.09-1.377,25.262,9.147,35.19l.1.1a24.273,24.273,0,0,0,6.983,4.226,35.367,35.367,0,0,0,13.181,2.556c5.508,0,11.017-1.278,15.246-4.423a5.133,5.133,0,1,0-6.1-8.257c-3.541,2.654-10.918,3.047-16.82,1.179,13.476-11.5,32.755-28.015,32.755-28.015a5,5,0,0,0,1.18-6.291A14.968,14.968,0,0,0,570.1,146.166Zm-40.624,31.357c-4.917-6.291-6.294-13.663-3.54-20.544a20.365,20.365,0,0,1,18.589-13.074,20.941,20.941,0,0,1,16.034,6.881C554.065,156.488,539.606,168.873,529.475,177.523Zm-22.328,8.945a5.043,5.043,0,0,1,0,7.274,5.326,5.326,0,0,1-3.639,1.573,5.217,5.217,0,0,1-3.639-1.474l-16.623-16.514v12.68a5.163,5.163,0,0,1-5.115,5.21,5.226,5.226,0,0,1-5.213-5.112V164.941l-.1-44.922a5.163,5.163,0,0,1,5.115-5.21,5.225,5.225,0,0,1,5.213,5.112l.1,32.536,16.524-16.71a5.052,5.052,0,0,1,7.279,0,5.129,5.129,0,0,1,0,7.274l-21.639,21.92Z" fill="#394d54"/><path d="M163.278,123.755H185.8v23h11.409a50.233,50.233,0,0,0,15.64-2.654,34.725,34.725,0,0,0,7.574-3.441,28.435,28.435,0,0,1-5.313-14.548c-.687-6.979.787-16.121,5.509-21.625l2.36-2.753L225.836,104c7.082,5.7,13.082,13.663,14.164,22.707,8.558-2.556,18.59-1.966,26.164,2.457l3.049,1.77-1.672,3.145c-6.393,12.386-19.672,16.318-32.754,15.629-19.475,48.56-61.968,71.463-113.41,71.463-26.557,0-50.951-9.928-64.918-33.52l-.2-.393L54.2,183.127A64.8,64.8,0,0,1,48.984,150l.3-3.44H68.557V123.755H91.082v-22.51h45.049V78.735h27.05v45.02" fill="#364548"/><path d="M236.164,132.208c1.476-11.7-7.278-20.937-12.688-25.361-6.295,7.274-7.28,26.246,2.556,34.306-5.508,4.915-17.114,9.339-28.918,9.339H52.82c-1.181,12.385.983,23.788,6,33.519l1.672,3.047a58.147,58.147,0,0,0,3.442,5.112c5.9.393,11.41.491,16.427.393,9.836-.2,17.9-1.376,23.9-3.44a1.7,1.7,0,0,1,2.164,1.179,1.767,1.767,0,0,1-1.082,2.163,19.343,19.343,0,0,1-2.557.786,74.482,74.482,0,0,1-16.525,2.654c.394,0-.393.1-.393.1a1.666,1.666,0,0,0-.689.1c-2.655.1-5.41.2-8.262.2-3.148,0-6.3-.1-9.738-.2l-.1.1c12,13.467,30.787,21.626,54.393,21.626,49.87,0,92.165-22.117,110.952-71.659,13.278,1.376,26.065-2.065,31.868-13.369C254.951,127.1,243.049,128.768,236.164,132.208Z" fill="#22a0c8"/><path d="M236.164,132.208c1.474-11.7-7.28-20.937-12.689-25.361-6.3,7.274-7.279,26.246,2.557,34.306-5.508,4.915-17.114,9.339-28.918,9.339H61.377c-.591,18.971,6.491,33.323,18.885,41.973,9.836-.2,17.9-1.376,23.9-3.441a1.7,1.7,0,0,1,2.163,1.18,1.764,1.764,0,0,1-1.082,2.162,19.448,19.448,0,0,1-2.557.787A83.753,83.753,0,0,1,85.672,196l-.2-.2c17.016,8.748,41.607,8.65,69.836-2.163,31.672-12.189,61.082-35.289,81.64-61.731A6.626,6.626,0,0,1,236.164,132.208Z" fill="#37b1d9"/><path d="M53.114,165.532a57.9,57.9,0,0,0,5.705,18.48l1.672,3.047a58.071,58.071,0,0,0,3.443,5.111c5.9.394,11.41.492,16.426.394,9.836-.2,17.9-1.377,23.9-3.441a1.7,1.7,0,0,1,2.164,1.18,1.766,1.766,0,0,1-1.082,2.162,19.463,19.463,0,0,1-2.558.787A77.907,77.907,0,0,1,85.869,196h-.886c-2.557.1-5.41.2-8.262.2-3.148,0-6.394-.1-9.836-.2,12,13.467,30.984,21.625,54.492,21.625,42.688,0,79.869-16.219,101.41-52H53.114" fill="#1b81a5"/><path d="M62.656,165.532c2.557,11.6,8.656,20.74,17.607,27.032,9.836-.2,17.9-1.377,23.9-3.441a1.7,1.7,0,0,1,2.164,1.18,1.766,1.766,0,0,1-1.082,2.162,19.494,19.494,0,0,1-2.557.787A78.86,78.86,0,0,1,85.574,196c17.016,8.748,41.508,8.552,69.738-2.261a181.863,181.863,0,0,0,48.2-28.113H62.656" fill="#1d91b4"/><path d="M72.394,127.49v19.463H91.869V127.49Zm3.147,17.89H74.066V129.161H75.64V145.38Zm3.05,0H77.017V129.161h1.574Zm2.95,0H79.968V129.161h1.573Zm2.951,0H82.918V129.161h1.574Zm2.951,0H85.869V129.161h1.574Zm2.852,0H88.82V129.161h1.574V145.38Z" fill="#23a3c2"/><path d="M94.918,104.98v19.463h19.475V104.98Zm3.147,17.89H96.492V106.651h1.573Zm2.951,0H99.442V106.651h1.574Zm3.049,0h-1.573V106.651h1.573Zm2.951,0h-1.574V106.651h1.574Zm2.951,0h-1.574V106.651h1.574Zm2.852,0h-1.573V106.651h1.573Z" fill="#23a3c2"/><path d="M94.918,127.49v19.463h19.475V127.49Zm3.147,17.89H96.492V129.161h1.573Zm2.951,0H99.442V129.161h1.574Zm3.049,0h-1.573V129.161h1.573Zm2.951,0h-1.574V129.161h1.574Zm2.951,0h-1.574V129.161h1.574Zm2.852,0h-1.573V129.161h1.573Z" fill="#34bbde"/><path d="M117.442,127.49v19.463h19.574V127.49Zm3.148,17.89h-1.574V129.161h1.574Zm2.951,0h-1.574V129.161h1.574Zm2.951,0h-1.574V129.161h1.574Zm3.049,0h-1.574V129.161h1.574Zm2.951,0h-1.574V129.161h1.574Zm2.852,0H133.77V129.161h1.574Z" fill="#23a3c2"/><path d="M117.442,104.98v19.463h19.574V104.98Zm3.148,17.89h-1.574V106.651h1.574Zm2.951,0h-1.574V106.651h1.574Zm2.951,0h-1.574V106.651h1.574Zm3.049,0h-1.574V106.651h1.574Zm2.951,0h-1.574V106.651h1.574Zm2.852,0H133.77V106.651h1.574Z" fill="#34bbde"/><path d="M139.967,127.49v19.463h19.475V127.49Zm3.148,17.89h-1.574V129.161h1.574Zm2.951,0h-1.574V129.161h1.574Zm2.95,0h-1.573V129.161h1.573Zm3.05,0h-1.574V129.161h1.574Zm2.95,0h-1.573V129.161h1.573Zm2.853,0h-1.574V129.161h1.574Z" fill="#34bbde"/><path d="M162.492,127.49v19.463h19.476V127.49Zm3.148,17.89h-1.574V129.161h1.574Zm2.95,0h-1.573V129.161h1.573Zm2.951,0h-1.573V129.161h1.573Zm2.951,0h-1.574V129.161h1.574Zm3.049,0h-1.573V129.161h1.573Zm2.853,0h-1.575V129.161h1.575Z" fill="#23a3c2"/><path d="M113.213,178.605a5.357,5.357,0,1,1,.1,10.714h-.1a5.372,5.372,0,0,1-5.311-5.406A5.556,5.556,0,0,1,113.213,178.605Z" fill="#d3ecec"/><path d="M113.213,180.177a3.15,3.15,0,0,1,1.377.3,1.582,1.582,0,1,0,2.164,2.163,3.836,3.836,0,1,1-5.016-2.065A2.784,2.784,0,0,1,113.213,180.177ZM18,167.5H268.427c-5.41-1.376-17.214-3.244-15.345-10.42-9.935,11.5-33.836,8.061-39.836,2.36-6.688,9.731-45.836,6-48.591-1.573-8.459,9.928-34.524,9.928-42.983,0-2.754,7.569-41.9,11.3-48.59,1.573-6,5.7-29.9,9.043-39.836-2.36C35.213,164.253,23.41,166.121,18,167.5Z" fill="#364548"/><path d="M127.574,217.433c-13.377-6.291-20.656-14.942-24.689-24.28a84.872,84.872,0,0,1-17.8,2.753c-2.558.1-5.312.2-8.263.2-3.344,0-6.786-.1-10.524-.3,12.2,12.189,27.246,21.626,55.082,21.822C123.443,217.53,125.508,217.433,127.574,217.433Z" fill="#bdd9d7"/><path d="M107.8,201.705a41.162,41.162,0,0,1-4.918-8.65,84.812,84.812,0,0,1-17.8,2.752C89.705,198.363,96.59,200.722,107.8,201.705Z" fill="#d3ecec"/><path d="M139.967,82.47v19.463h19.475V82.47Zm3.148,17.89h-1.574V84.141h1.574Zm2.951,0h-1.574V84.141h1.574Zm2.95,0h-1.573V84.141h1.573Zm3.05,0h-1.574V84.141h1.574Zm2.95,0h-1.573V84.141h1.573Zm2.853,0h-1.574V84.141h1.574Z" fill="#34bbde"/><path d="M139.967,104.98v19.463h19.475V104.98Zm3.148,17.89h-1.574V106.651h1.574Zm2.951,0h-1.574V106.651h1.574Zm2.95,0h-1.573V106.651h1.573Zm3.05,0h-1.574V106.651h1.574Zm2.95,0h-1.573V106.651h1.573Zm2.853,0h-1.574V106.651h1.574Z" fill="#23a3c2"/></g></svg>