<svg xmlns="http://www.w3.org/2000/svg" viewBox="0 0 636 300"><defs><style>.a{fill:#b2b2b2}.b{fill:#b89e7c}.c{fill:#8e562e}.d{fill:#f6cba7}.e{fill:#ddb694}.f{fill:#6d6e71}.g{fill:#3d1a68}.h{fill:#d0b28d}.i{fill:#666}.j{fill:#ff8c00}.k{fill:#f0ae00}.l{fill:#e81123}.m{fill:#d9c1a4}.n{fill:#ee4d5a}.o{fill:#fff}.p{fill:#939393}.q{fill:#394453}.r{fill:#6597bf}.s{fill:#a996f0}.t{fill:#bcbec0}.u{fill:#414042}.v{fill:#8867c8}.w{fill:#737373}.x{fill:#c09f81}.y{fill:#235a89}.z{fill:#5c2d91}.aa{fill:#c8c8c8}.ab{fill:#eaeaea}.ac{fill:#106ebe}.ad{fill:#8c562f}.ae{fill:#451e7c}.af{fill:#025b56}.ag{fill:#99bcd7}.ah{fill:#45779e}.ai{fill:#999}.aj{fill:#231f20}.ak{fill:#505050}.al{fill:#c9ad74}.am{fill:#997a45}</style></defs><title>swimlane-dotnet-core</title><path class="a" d="M553.03 258H86.243a4.087 4.087 0 0 1-4.088-3.317A4 4 0 0 1 86.08 250h466.95a3.919 3.919 0 0 1 3.98 4 4 4 0 0 1-3.98 4z"/><path class="b" d="M489 254h48.14a7.318 7.318 0 0 0 7.106-6.43l3.483-33.14a5.682 5.682 0 0 0-5.754-6.43h-48.14a7.318 7.318 0 0 0-7.106 6.43l-3.483 33.14A5.681 5.681 0 0 0 489 254z"/><path class="c" d="M492 254h48.14a7.318 7.318 0 0 0 7.106-6.43l3.483-33.14a5.682 5.682 0 0 0-5.754-6.43h-48.14a7.318 7.318 0 0 0-7.106 6.43l-3.483 33.14A5.681 5.681 0 0 0 492 254z"/><path class="b" d="M529.954 208c.017.332.036.663.036 1 0 7.72-4.486 14-10 14s-10-6.28-10-14c0-.337.019-.668.036-1h-2c-.016.333-.038.663-.038 1 0 8.822 5.383 16 12 16s12-7.178 12-16c0-.337-.023-.667-.038-1z"/><path class="d" d="M199.038 127.709c-2.546.573-5.6 1.087-8.3 1.5l-3.4 20.237 16.129-.336z"/><path class="e" d="M199.651 130.669l-.613-2.96c-2.546.573-5.6 1.087-8.3 1.5l-.766 4.561z"/><path class="f" d="M416.317 185l78.988.474L504.508 254h-3.163l-8.729-65-32.018-.346L469.373 254h-3.351l-8.729-65-38.463-.415L406.237 254h-3.204l13.284-69z"/><path class="g" d="M469.689 99.717c8.144-.313 21.886 0 27.56 0s8.444.475 8.319 5.7c-.321 13.3-2.528 59.806-3.219 70.485-.367 5.673-4.238 9.968-13.154 10.1h-79.6a10.607 10.607 0 0 1 10.084-9h26.1c0 .559 12.63-57.344 14.339-65.417 1.808-8.546 4.225-11.663 9.571-11.868z"/><path class="c" d="M490.188 98.727c-18.668 5.763-31.2-19.045-31.2-19.045V63.644l24.038-.752.256 1.754c.002 19.045.002 27.565 6.906 34.081z"/><path d="M407.99 255v-11h-11.842a15.666 15.666 0 0 0-14.742 11z"/><path class="h" d="M396.28 243c-6.774 0-11.283 3.2-14.46 8h18.43a8.892 8.892 0 0 0 8.735-8z"/><path class="i" d="M430.99 163v-1h-16.538c-10.476 1.066-18.908 11.681-19.462 21.79v1.01c.3 50.008.411 57.85.43 58.815l.118.118c3.743-.021 11.559 0 12.555 0a.119.119 0 0 0 .115-.116c4.065-50.158 4.2-61.7 4.2-62.937l.121-.119c11.146 0 29.272.25 29.272.25 10.94 0 19.592-7.07 19.666-17.86 0-.075-.062-.139-.136.048z"/><path class="i" d="M449.99 164v-1h-14.521c-10.476.959-18.908 11.7-19.479 21.939v58.975c6.1.045 13.49.045 13.49.045 3.284-41.776 3.857-56.51 3.941-61.213a2 2 0 0 1 2.022-1.974c6.6.058 27.151.238 27.365.238 10.987 0 19.675-6.3 19.675-17.01H449.99z"/><path d="M429.99 255v-11h-11.706a15.793 15.793 0 0 0-14.877 11z"/><path class="h" d="M417.129 243a17.411 17.411 0 0 0-14.823 8h18.941a9.1 9.1 0 0 0 9.059-8zM472.99 93.962V79h-15l-.259 14.75a1.942 1.942 0 0 1-1.81 1.25h-3.931v32h29V95h-6.962a1.041 1.041 0 0 1-1.038-1.038z"/><path class="b" d="M472.99 87.554V78h-14.87l-.256 15.126c12.562.001 15.126-5.572 15.126-5.572zM456.094 94.527c0 .253-.236.253-.236.473h-2.868v23.79c-.208.253.265.505.028 1.21h.236c0 .053.236.053.736-.2v-.506c-.735-8.087 2.104-24.767 2.104-24.767z"/><path class="j" d="M438.556 163s18.386 21.744 44.434 21.744V163z"/><path class="j" d="M480.775 95h-6.692c-5.4 9.346-11.84 18.39-20.333 24.453-1.544-7.578-.772-16.117.772-24.453h-1.287c-9.523 0-17.245 8.286-17.245 17.38V124h3v40h44v-40h14v-12.63c-.257-8.589-7.464-16.37-16.215-16.37z"/><path class="k" d="M439.99 124.293V164h18.91z"/><path class="h" d="M496.989 123h-14v8.454a1.666 1.666 0 0 1-1.3 1.53c-5.409 1.833-27.972 8.386-27.972 8.386-18.925 0-19.729 10.485-19.729 10.485 9.48-.152 20.934-3.092 20.934-3.092 13.607-.84 35.321-3.793 35.321-3.793a7.807 7.807 0 0 0 6.741-7.9V123z"/><path class="b" d="M496.99 126.782V123h-13.236l13.236 3.782z"/><ellipse class="h" cx="451.758" cy="70.456" rx="5.2" ry="4.727"/><circle class="l" cx="447.976" cy="73.765" r="1.418"/><ellipse class="m" cx="479.174" cy="70.456" rx="5.2" ry="4.727"/><circle class="l" cx="482.956" cy="73.765" r="1.418"/><path class="h" d="M480.592 57.595a18.748 18.748 0 0 0-14.778-6.743c-13.249 0-21.147 14.235-15.8 25.972a21.7 21.7 0 0 0 6.37 9.24 11.472 11.472 0 0 0 3.567 2.5c4.331 1.748 8.153.5 11.72-1.5a55.767 55.767 0 0 0 4.586-3.5 9.162 9.162 0 0 0 3.567-7.242z"/><path class="m" d="M452.467 63.1a30.1 30.1 0 0 1 4.491-10.609c-5.672 3.031-8.509 9.346-8.509 16.671 0 6.567 1.418 11.114 6.381 16.418-3.309-6.313-3.781-15.911-2.363-22.48z"/><path class="c" d="M465.848 44.93c-9.937 0-18.09 8.751-18.345 19.888 2.293 1.061 3.312 1.591 5.86 1.591 8.153 0 15.033-5.834 17.58-14.054 1.784 5.3 3.822 11.137 10.192 13.789.764.53 1.529-1.856 2.293-1.591-.509-10.872-7.388-19.623-17.58-19.623z"/><path class="m" d="M461.99 77v-7.563c-.709 0-1.182.709-1.418 1.418L460.1 77z"/><path class="b" d="M459.794 77a3.189 3.189 0 0 0 2.836 1.891A2.954 2.954 0 0 0 465.466 77z"/><path class="n" d="M463.616 78.964a1.079 1.079 0 0 0-.987 1.018c-.247-.509-.74-1.018-.987-1.018a11.173 11.173 0 0 0-4.686 1.018c.74 3.309 2.959 5.6 5.672 5.6s4.933-2.291 5.672-5.6a11.164 11.164 0 0 0-4.684-1.018z"/><path class="b" d="M456.957 81a6.144 6.144 0 0 0 11.343 0z"/><path class="o" d="M456.957 81c.74 1.654 2.959 2.836 5.672 2.836s4.933-1.182 5.671-2.836z"/><circle cx="455.539" cy="69.038" r="1.418"/><circle cx="469.72" cy="69.038" r="1.418"/><path class="p" d="M454.874 108h-50.285a1.2 1.2 0 0 0-1.289 1.548L409.489 148h53.121l-6.189-38.968a1.415 1.415 0 0 0-1.547-1.032z"/><path class="i" d="M462.99 151h15.584a.481.481 0 0 0 .416-.473v-1.418a.482.482 0 0 0-.416-.473l-15.584-.472z"/><path class="q" d="M461.99 150h-51.714a1.2 1.2 0 0 1-1.286-1.25V147h53z"/><path class="r" d="M322.99 244.501v-8.761l-13.845 2.704-3.245 9.951 17.09-3.894z"/><path class="g" d="M160.21 102.028c-7.843-.3-21.079 0-26.544 0s-8.133.457-8.012 5.486c.309 12.811 2.435 57.6 3.1 67.886.353 5.464 4.082 9.6 12.669 9.6h76.666s-1.124-8-9.712-8h-25.14s-12.164-55.768-13.81-63.543c-1.741-8.229-4.069-11.231-9.217-11.429z"/><path class="s" d="M186.546 129.814a128.9 128.9 0 0 0 14.908-2.717c-1.821-9.59-4.97-25.269-5.423-27.167-2.551-10.68-13.721-3.921-12.431 2.87.747 3.955 1.974 16.682 2.946 27.014z"/><path class="f" d="M223.879 185l-89.592.467L123.849 253h3.636l9.892-64 36.283-.34-9.944 64.34h3.798l9.892-64 43.587-.409L235.263 253h3.683l-15.067-68z"/><path class="t" d="M209.023 241.271l.888-8.563 13.256 4.046 2.163 10.054-16.307-5.537z"/><path class="u" d="M208.782 240.5a69.849 69.849 0 0 0 8.442 2.051c2.537.263 3.7-5.687 8.078-2.688s3.9 4.526 14.144 9.907c3.546 1.864-1.106 4.48-1.106 4.48l-30.761-3.189z"/><path class="t" d="M192.99 243.825v-8.608l13.603 2.656 3.188 9.778-16.791-3.826z"/><path class="f" d="M211.122 164h9.565c4.889 0 14.914 1.664 13.923 13.947-1.456 18.034-9.005 60.933-9.005 60.933l-16.757-2.58s5.357-50.836 3.656-52.324S199.22 181 199.22 181l2.019-17h9.883z"/><path class="g" d="M129.447 176.165c.921-10.537 5.835-56.421 7.594-69.545.69-5.152 3.912-5.62 10.355-5.62h9.594s-.643 56.61-.643 64.97c0 7.227 3.366 10.287 8.433 10.984a9.758 9.758 0 0 0 1.911.046s43.87.142 53.974.142 10.1 8.858 10.1 8.858h-92.843c-7.091 0-8.964-4.237-8.475-9.835z"/><path class="d" d="M167.406 88.464c-7.637-.533-11.544-8.7-11.544-8.7a40.639 40.639 0 0 1-3.2-15.273l1.066-11.011 14.031-6.926 14.919 10.833.178 7.1a39.951 39.951 0 0 1-3.2 15.273s-4.263 9.057-12.256 8.7z"/><path class="d" d="M153.51 65.411a1.7 1.7 0 0 0-1.648-.888s-1.648.178-1.1 2.841l.366 1.243.366 1.421.549 1.243.366.888a7.143 7.143 0 0 1 .366 1.6 1.117 1.117 0 0 0 .917 1.241h1.1a78.964 78.964 0 0 1 .183-8.88z"/><path class="v" d="M138.893 94.112c4.887-.975 24.332-4.973 24.332-4.973l9.01.225c2.311.558 4.271.954 19.529 5.206a7.008 7.008 0 0 1 4.494 6.468c.178 3.907-7.293 61.962-7.293 61.962l-48.975-.674-.082-38.734-1.044-22.268s-4.858-6.237.029-7.212z"/><path class="d" d="M167.49 96.543c-4.7 0-8.5-2.43-8.5-6.379V85h17v5.164c0 3.949-3.8 6.379-8.5 6.379z"/><path class="w" d="M181.99 57.2V65h-1v-4.155c-6.657 3.725-16.07-8.018-23.529-3.4.533 7.628-2.842 8.559-2.842 8.559h-1.457l-.172-8.8v-.359C153.162 49.128 159.168 45 166.375 45h2.4c7.207 0 13.041 4.128 13.213 11.845v.355z"/><path class="x" d="M173.791 75c0 .533-.355.888-1.066.888-.178 0-.178.355-.533.533a1.919 1.919 0 0 1-1.243.533 1.612 1.612 0 0 1-1.243-.533c-.355-.178-.533-.533-.71-.533a.839.839 0 0 1-.888-.888h5.683z"/><path class="e" d="M170.99 67v7h-2.882a.679.679 0 0 1 .355-.29 13.932 13.932 0 0 0 1.527-2.348v-3.188c-.461-.839.6-1.174.96-1.174zM175.99 86.861l-.181.181c-2.351 1.989-5.606 2.713-9.585 2.351-3.074-.181-7.234-2.4-7.234-2.4V84.51a14.689 14.689 0 0 0 7.234 3.074c4.16.362 7.415-.723 9.766-2.894z"/><path class="o" d="M177.166 79.407a27.8 27.8 0 0 1-12.7 0s2.868 3.019 6.349 3.019 6.351-3.019 6.351-3.019z"/><path class="d" d="M144.515 139.8l16.921 1.438 8.071-4.155s6.89.774 8.773 1.449a69.937 69.937 0 0 1 7.1 3.834s1.106 3.15-5.533 2c-1.688-.292-2.075 1.255-3.671 1.727s-2.989 1.508-7.628 2.307a32.766 32.766 0 0 1-10.348-.4l-15.289-1.05z"/><path class="f" d="M139.99 161.675v6.148C139.99 171 138.93 178 150.8 178h34.558l7.208 60h17.385l-4.028-74.841z"/><path class="u" d="M193.1 243.372a69.887 69.887 0 0 0 8.608 1.169c2.55 0 4.424-5.848 7.758-3.507s4.35 4.1 15.091 8.4c3.72 1.488-.638 4.57-.638 4.57H192.99z"/><path class="y" d="M377.99 161.378v6.26c0 3.238 1.079 10.362-11.01 10.362h-35.188L324 242h-17.7l4.554-79.112z"/><path class="z" d="M98.99 153v101h4.159s8.317-72.989 9.565-79.643S116.873 165 126.23 165h375.84c9.366 0 12.28 2.706 13.529 9.366S525.443 254 525.443 254h3.547l-.27-101H98.99z"/><path class="v" d="M78.99 149h468v6h-468z"/><path d="M305.455 149l-48.955.084c-1.189 0-4.31-2.281-4.31-2.281l-5.885-41.65a1.828 1.828 0 0 1 1.85-2.153h52.013a2.562 2.562 0 0 1 2.456 2.153l5.938 42.07c.167 1.189-1.918 1.777-3.107 1.777z"/><path class="aa" d="M304.629 145h-49.057a1.46 1.46 0 0 1-1.4-1.217l-5.28-37.566A1.041 1.041 0 0 1 249.95 105H299a1.474 1.474 0 0 1 1.414 1.229l5.278 37.554a1.041 1.041 0 0 1-1.063 1.217z"/><path class="ab" d="M303.169 142h-46.886l-4.919-35h46.886l4.919 35z"/><path class="ac" d="M298.425 116h-44.76l-1.295-9h44.761l1.294 9z"/><path class="ad" d="M340.39 76.2l1.365 12.492-15.355 5.991-1.863-17.048c2.952-3.663 14.463-5.677 15.853-1.435z"/><path class="c" d="M333.646 42.122c-7.842-.742-17.113 2.021-18.67 5.06s-1.285 22.531 2.992 30.1 16.229 4.1 21.392 3.321c6.939-1.042 8.787-7.665 9.711-13.365s.623-14-1.783-17.651-6.688-6.807-13.642-7.465z"/><path d="M349.071 67.236c.924-5.7.623-14-1.783-17.651s-6.691-6.805-13.643-7.463c-7.842-.742-17.113 2.021-18.67 5.06-.454.886-.752 3.179-.84 6.161a11.026 11.026 0 0 1 4.069.752c2.735 1.208 2.988 3.22 4.552 5.664s3.428 2.253 3.428 2.253l-.354-2.773s6.082-.984 6.813 3.607c.588 3.692-3.445 4.818-3.445 4.818s.5 2.759 1.042 7.567c.3 2.607 4.358 5.379 8.644 5.45.158-.026.329-.057.476-.079 6.94-1.043 8.787-7.666 9.711-13.366z"/><path class="r" d="M291.99 244.501v-8.761l-13.845 2.704-3.245 9.951 17.09-3.894z"/><path class="u" d="M291.883 244.344a70.076 70.076 0 0 1-8.631 1.172c-2.557 0-4.262-3.516-4.262-3.516h-3.516s-4.362 4.11-15.131 8.418c-3.729 1.492.639 4.582.639 4.582h31.008z"/><path class="y" d="M304.92 165h-9.714c-4.965 0-10.81 1.146-12.3 13.272-2.055 16.642-7.528 63.728-7.528 63.728h17.7s8.711-55.723 10.438-57.2 32.015-2.949 32.015-2.949L333.48 165h-28.56z"/><path class="ae" d="M377 132.227a5.95 5.95 0 0 0-7.665-4.187c-.177-.038-.177-.038-.392.1 0 0-33 9.944-33.742 10.125l2.99 9.946c.529-.088 34.781-7.919 34.781-7.919 3.386-1.116 4.928-4.541 4.028-8.065z"/><path class="af" d="M377 132.227a5.95 5.95 0 0 0-7.665-4.187c-.177-.038-.177-.038-.392.1 0 0-33 9.944-33.742 10.125l2.99 9.946c.529-.088 34.781-7.919 34.781-7.919 3.386-1.116 4.928-4.541 4.028-8.065z"/><path class="q" d="M317.99 147.505A1.5 1.5 0 0 1 316.5 149h-63.33c-1.077 0-1.741-.96-1.967-2.07l-.169-.93h66.956z"/><path class="u" d="M323.883 244.344a70.076 70.076 0 0 1-8.631 1.172c-2.557 0-4.262-3.516-4.262-3.516h-3.516s-4.362 4.11-15.131 8.418c-3.729 1.492.639 4.582.639 4.582h31.008z"/><path class="ag" d="M344.869 86.869c-7.745-1.369-22.976 1.479-22.976 1.479s3.366-5.125 11.571-5.813 9.315 1.789 11.405 4.334z"/><path class="ah" d="M304.812 99.526a7.951 7.951 0 0 1 4.574-6.983c6.945-2.912 17.361-5.5 19.714-6.273a41.2 41.2 0 0 1 12.377-.5s17.741 3.875 20.061 4.759a7.126 7.126 0 0 1 4.585 4.2c.005 0 9.249 27.822 10.876 33.1l-45.435 46.708-17.473-4.937s-9.459-66.082-9.279-70.074z"/><path class="f" d="M297.791 185l78.99.474L385.984 255h-2.838l-8.459-66h-32.585l8.852 65h-3.374l-8.44-65h-38.51l-13.242 65h-2.881l13.284-69z"/><path class="g" d="M338.365 99.161c8.1-.313 21.886 0 27.56 0s8.511.475 9.119 5.7c1.549 13.3 5.877 59.806 6.687 70.485.431 5.673-2.837 9.968-11.754 10.658h-79.6c0-.69 0-9 8.916-9h26.1s4.492-57.9 5.066-65.973c.611-8.547 2.59-11.664 7.906-11.87z"/><path class="i" d="M228.2 147l6.208-44.176a1.548 1.548 0 0 0-1.572-1.824h-25.57a2.17 2.17 0 0 0-2.08 1.824L198.977 147z"/><path class="ai" d="M207.289 103.828a2.175 2.175 0 0 1 2.085-1.828h25.169l-1.538-1h-25.882a2.17 2.17 0 0 0-2.08 1.824L198.834 147h2.387z"/><path class="aj" d="M226.424 149h-58.409a2.025 2.025 0 0 1-2.025-2.025V146h62v1.434a1.566 1.566 0 0 1-1.566 1.566z"/><path class="ak" d="M160.149 65s6.394-1.243 7.637 0zM179.685 65s-6.394-1.243-7.637 0zM164.056 67.686a.859.859 0 0 1 0-1.243 1.075 1.075 0 0 1 1.421 0 .859.859 0 0 1 0 1.243c-.533.532-1.066.532-1.421 0zM175.068 67.863a1.081 1.081 0 0 1 0-1.421.858.858 0 0 1 1.243 0 .831.831 0 0 1 0 1.421.859.859 0 0 1-1.243 0z"/><path class="aa" d="M294.078 141h6.767l-3.302-23h-6.867l3.402 23zM291.93 141l-3.238-23h-23.904l3.403 23h23.739zM262.815 118h-7.614l3.302 23h7.549l-3.237-23z"/><path class="c" d="M289.866 140.176l-6.7.5-7.481-4.057a66.888 66.888 0 0 0-8.252 1.181 65.593 65.593 0 0 0-6.734 3.451s-1.1 2.93 5.146 1.986c1.588-.24 1.92 1.218 3.406 1.693a32.28 32.28 0 0 0 7.1 2.316 37.669 37.669 0 0 0 10.172.037l4.871-.4z"/><path class="r" d="M317.675 109.568c.448-11.425-11.442-21.658-13.164-10.392-.457 2.988-5.845 34.486-5.845 34.486l-16.375 6.592 1.545 9.115c-.48.134 16.148-1.979 21.292-4.056 3.138-1.267 6.573-5.224 6.962-8.566.241-2.074 5.31-20.038 5.585-27.179z"/><path class="s" d="M133.033 98.473h.014a7.176 7.176 0 0 1 6.2-4.8c3.907-.355 7.329 7.493 5.945 15.872-1.527 4.432-7.043 20.336-8.464 25.131-3.931-2.414-15.548-5.9-15.548-5.9 1.601-5.321 10.432-26.041 11.853-30.303z"/><path class="d" d="M133.345 138.692l1.7-4.9a112.823 112.823 0 0 0-12.18-4.486c-.8 1.987-2.185 5.471-3.229 8.209-1.549 4.066-.6 10.689 7.566 11.158 9.169.527 30.998-.673 30.998-.673l3.238-6.762z"/><path class="e" d="M134.1 136.536l.955-2.745a112.823 112.823 0 0 0-12.18-4.486 826.32 826.32 0 0 0-.811 2.031z"/><path class="j" d="M217.99 136.75a1.682 1.682 0 0 1 1.529-1.75h2.471v7h-2.471a1.681 1.681 0 0 1-1.529-1.75zm-2 .964v2.562a3.562 3.562 0 0 0 3.319 3.724h2.681v3.31a.629.629 0 0 0 .638.69h.362v1h13v-1h.844c.261.12.651-.147.156-.546v-16.788c.495-.266-.156-.666-.156-.666h-14.206a.731.731 0 0 0-.638.714V134h-2.681a3.6 3.6 0 0 0-3.319 3.714z"/><path class="al" d="M512.99 147.362a1.748 1.748 0 0 0-.855.638h-8.709c-.2-.323-.41-.425-.436-.638v-.52c.026-.205.231-.418.436.158h8.709c.214-.576.419-.363.855-.158zM516.368 143H499.5a.513.513 0 0 1-.513-.513v-6.856a.633.633 0 0 1 .631-.631h16.745a.626.626 0 0 1 .624.624v6.754a.624.624 0 0 1-.619.622z"/><path class="al" d="M516.494 141.612c0 3.019-3.94 5.526-8.812 5.526s-8.71-2.508-8.71-5.526c0-3.13 3.829-5.629 8.71-5.629s8.812 2.499 8.812 5.629z"/><path class="al" d="M514.623 144.009l-.513-1.458c1.863-.734 3.94-1.569 4.248-1.774.205-.1.316-.1.521-.2.829-.316 1.966-.836 1.453-3.027a1.14 1.14 0 0 0-.624-.938c-1.034-.52-3.008.315-3.53.733l-.829-1.458c.316-.111 3.009-1.569 4.983-.733a2.7 2.7 0 0 1 1.555 2.081c.829 3.445-1.453 4.384-2.385 4.8a.364.364 0 0 0-.214.1 47.194 47.194 0 0 1-4.665 1.874zM521.264 147c0 1.151-6.12 2.089-13.684 2.089-7.47 0-13.59-.938-13.59-2.089z"/><path class="am" d="M509.443 141.817a2.836 2.836 0 0 1-3.316.734s.615-2.712 2.171-3.855a6.991 6.991 0 0 0-2.8 3.642 2.437 2.437 0 0 1 .2-3.335c1.034-1.458 2.8-1.978 3.838-1.143 1.146.835 1.044 2.499-.093 3.957z"/></svg>