<svg xmlns="http://www.w3.org/2000/svg" viewBox="0 0 636 300"><style>.st0{fill-rule:evenodd;clip-rule:evenodd;fill:#fff}.st1{fill:none;stroke:#90c10c;stroke-width:5;stroke-miterlimit:10}.st2{fill:#a88763}.st3{fill:#b2b2b2}.st4{fill:none;stroke:#65aa0d;stroke-width:5;stroke-miterlimit:10}.st5{fill:#2e2e2e}.st6{fill:#2488d8}.st7{fill:#5d5f5e}.st8{fill:#69afe5}.st9{fill:#cbe247;stroke:#90c10c;stroke-width:5.527;stroke-miterlimit:10}.st10{fill:#0078d7}.st11{fill:#004578}.st12{fill:#b3d6f2}.st13{fill:#cbe247;stroke:#90c10c;stroke-width:5;stroke-miterlimit:10}.st14{fill-rule:evenodd;clip-rule:evenodd;fill:#0078d7}.st15{fill:#fff}.st16{fill:#005a93}.st17{fill:#737373}.st18{fill:#acacac}.st19{fill-rule:evenodd;clip-rule:evenodd;fill:#b4b4b4}.st20{fill:#a6a6a6}.st21{fill:#767576}.st22{clip-path:url(#SVGID_2_)}.st23{fill:#502f84}.st24{fill:#5c3d99}.st25{fill:#3d1a68}.st26{fill:#32145a}.st27{fill:#af5443}.st28{fill:#505050}.st29{opacity:.37;fill:#fff}.st30{fill:#99bcd7}.st31{fill:#c8c8c8}.st32{fill:#666}.st33{fill:#45779e}.st34{fill:#6597bf}.st35{fill:#3c3c3c}.st36{fill:#235a89}.st37{fill:#106ebe}.st38{fill:#333}.st39{fill:#1c4768}.st40{fill:#212121}.st41{fill:#11334b}.st42{fill:#cfe0ee}.st43{fill:#eaeaea}.st44{fill:#deecf9}.st45{fill:#e9f0f7}.st46{fill:#f4f4f4}.st47{fill:#231f20}.st48{fill:#a8dceb}.st49,.st50,.st51{fill-rule:evenodd;clip-rule:evenodd}.st49{stroke:#69afe5;stroke-width:2;stroke-miterlimit:10;stroke-dasharray:1.8146,2.7218;fill:none}.st50,.st51{fill:#2488d8}.st51{fill:#d8b094}.st52,.st53,.st54,.st55,.st56,.st57{fill-rule:evenodd;clip-rule:evenodd;fill:#f6caa7}.st53,.st54,.st55,.st56,.st57{fill:#00188f}.st54,.st55,.st56,.st57{fill:#c69e83}.st55,.st56,.st57{fill:#b58861}.st56,.st57{fill:#505050}.st57{fill:#8a0000}.st58{fill:#fff880}.st59,.st60,.st61{fill-rule:evenodd;clip-rule:evenodd}.st59{stroke:#ffa940;stroke-width:2;stroke-miterlimit:10;stroke-dasharray:2,3;fill:none}.st60,.st61{fill:#69afe5}.st61{fill:#910f1b}.st62{fill:#ff8c00}.st63,.st64,.st65,.st66{fill-rule:evenodd;clip-rule:evenodd;fill:#bd3604}.st64,.st65,.st66{fill:#e26c41}.st65,.st66{fill:#bb9167}.st66{fill:#ba0e1c}.st67{fill:#bfc5cc}.st68{fill:#8e562e}.st68,.st69,.st70,.st71,.st72{fill-rule:evenodd;clip-rule:evenodd}.st70,.st71,.st72{fill:#d0b28d}.st71,.st72{fill:#666}.st72{fill:#b89e7c}.st73{fill:#5c005c}.st74,.st75{fill-rule:evenodd;clip-rule:evenodd;fill:#ff8c00}.st75{fill:#f0ae00}.st76{fill:#d0b28d}.st77{fill:#e81123}.st78{fill:#d9c1a4}.st79,.st80,.st81,.st82{fill-rule:evenodd;clip-rule:evenodd;fill:#d9c1a4}.st80,.st81,.st82{fill:#ee4d5a}.st81,.st82{fill:#939393}.st82{fill:#394453}.st83{fill:#f6cba7}.st84{fill:#a996f0}.st85{fill:#bcbec0}.st86{fill:#414042}.st87{fill:#6d6e71}.st88{fill:#8867c8}.st89{fill:#c09f81}.st90{fill:#ddb694}.st91{fill:#5c2d91}.st92{fill:#8c562f}.st93{fill:#451e7c}.st94{fill:#025b56}.st95{fill:#394453}.st96{fill:#999}.st97{fill:#8e562e}.st98{fill:gray}.st99{fill:#6d573e}.st100{fill-rule:evenodd;clip-rule:evenodd}.st100,.st101{fill:#b80409}.st102{fill:#613d30}.st103{fill:#d80d1a}.st104{fill:#ef502a}.st105{fill:none;stroke:#939393;stroke-miterlimit:10;stroke-dasharray:.9773,1.9547}.st106{fill:#0d520d}.st107{fill:#004b1c}.st108{fill:#3b930f}.st109{fill:#936f51}.st110{fill:#bce2bc}.st111{fill:#8a0000}.st112{fill:#003c16}.st113{fill:none}.st114{fill:#8ec3ec}.st115{fill:#395b71}.st116{fill:#65aa0d}.st117{fill:#90c10c}.st118{fill:#107c10}.st119{fill:#d2d2d2}.st120{fill:#939393}.st121{fill:#4d4d4d}.st122{fill:#472176}.st123{clip-path:url(#SVGID_4_)}.st124{fill:#724aad}.st125{fill:#282828}.st126{fill:none;stroke:#939393;stroke-width:.75;stroke-miterlimit:10}.st127{fill:#f57800}.st128{fill:#750000}.st129{fill:#900}.st130{fill:#d83b01}.st131{fill:#0872c4}.st132{fill:#bd3604}.st133{fill:#5e0000}.st134{fill:#464646}.st135{fill:#e6e6e6}.st136{fill:#a6a8ab}.st137{fill:#96bcce}.st138{fill-rule:evenodd;clip-rule:evenodd;fill:#fff200}.st139{fill:none;stroke:#fff100;stroke-width:.72;stroke-miterlimit:8}.st140,.st141,.st142{fill-rule:evenodd;clip-rule:evenodd;fill:#fff880}.st141,.st142{fill:#f0e300}.st142{fill:#ccc000}.st143,.st144,.st145,.st146,.st147,.st148{fill-rule:evenodd;clip-rule:evenodd;fill:#ffb900}.st144,.st145,.st146,.st147,.st148{fill:#ffcb40}.st145,.st146,.st147,.st148{fill:#c78e00}.st146,.st147,.st148{fill:#ffa940}.st147,.st148{fill:#f08400}.st148{fill:#ba6800}.st149,.st150,.st151,.st152,.st153,.st154{fill-rule:evenodd;clip-rule:evenodd;fill:#e81123}.st150,.st151,.st152,.st153,.st154{fill:#d91021}.st151,.st152,.st153,.st154{fill:#a3111e}.st152,.st153,.st154{fill:#b4009e}.st153,.st154{fill:#c740b6}.st154{fill:#9e008b}.st155,.st156,.st157,.st158,.st159,.st160{fill-rule:evenodd;clip-rule:evenodd;fill:#850063}.st156,.st157,.st158,.st159,.st160{fill:#5c2d91}.st157,.st158,.st159,.st160{fill:#8562ad}.st158,.st159,.st160{fill:#522882}.st159,.st160{fill:#401467}.st160{fill:#409ae1}.st161,.st162,.st163,.st164,.st165,.st166{fill-rule:evenodd;clip-rule:evenodd;fill:#006fc8}.st162,.st163,.st164,.st165,.st166{fill:#005291}.st163,.st164,.st165,.st166{fill:#008272}.st164,.st165,.st166{fill:#40a195}.st165,.st166{fill:#007365}.st166{fill:#005850}.st167,.st168,.st169,.st170,.st171,.st172{fill-rule:evenodd;clip-rule:evenodd;fill:#107c10}.st168,.st169,.st170,.st171,.st172{fill:#4c9d4c}.st169,.st170,.st171,.st172{fill:#0e6d0e}.st170,.st171,.st172{fill:#106110}.st171,.st172{fill:#e3008c}.st172{fill:#ea40a9}.st173,.st174,.st175,.st176,.st177,.st178{fill-rule:evenodd;clip-rule:evenodd;fill:#d40083}.st174,.st175,.st176,.st177,.st178{fill:#9c005f}.st175,.st176,.st177,.st178{fill:#b4a0ff}.st176,.st177,.st178{fill:#c7b8ff}.st177,.st178{fill:#a996f0}.st178{fill:#9080cf}.st179,.st180,.st181,.st182,.st183,.st184{fill-rule:evenodd;clip-rule:evenodd;fill:#00bcf2}.st180,.st181,.st182,.st183,.st184{fill:#40cdf5}.st181,.st182,.st183,.st184{fill:#00b0e3}.st182,.st183,.st184{fill:#0086ad}.st183,.st184{fill:#002050}.st184{fill:#40587c}.st185,.st186,.st187,.st188,.st189,.st190{fill-rule:evenodd;clip-rule:evenodd;fill:#001a41}.st186,.st187,.st188,.st189,.st190{fill:#001129}.st187,.st188,.st189,.st190{fill:#00b294}.st188,.st189,.st190{fill:#40c5af}.st189,.st190{fill:#00a387}.st190{fill:#008770}.st191,.st192,.st193,.st194,.st195,.st196{fill-rule:evenodd;clip-rule:evenodd;fill:#bad80a}.st192,.st193,.st194,.st195,.st196{fill:#cbe247}.st193,.st194,.st195,.st196{fill:#adc909}.st194,.st195,.st196{fill:#91a80a}.st195,.st196{fill:#d83b01}.st196{fill:#9c2801}.st197,.st198,.st199,.st200,.st201,.st202{fill-rule:evenodd;clip-rule:evenodd;fill:#a80000}.st198,.st199,.st200,.st201,.st202{fill:#be4040}.st199,.st200,.st201,.st202{fill:#900}.st200,.st201,.st202{fill:#750000}.st201,.st202{fill:#5c005c}.st202{fill:#854085}.st203,.st204,.st205,.st206,.st207,.st208{fill-rule:evenodd;clip-rule:evenodd;fill:#4d004d}.st204,.st205,.st206,.st207,.st208{fill:#380038}.st205,.st206,.st207,.st208{fill:#32145a}.st206,.st207,.st208{fill:#654f83}.st207,.st208{fill:#28114a}.st208{fill:#220c3d}.st209,.st210,.st211,.st212,.st213,.st214{fill-rule:evenodd;clip-rule:evenodd;fill:#4052ab}.st210,.st211,.st212,.st213,.st214{fill:#001580}.st211,.st212,.st213,.st214{fill:#001363}.st212,.st213,.st214{fill:#004b50}.st213,.st214{fill:#40787c}.st214{fill:#003d41}.st215,.st216,.st217,.st218,.st219,.st220{fill-rule:evenodd;clip-rule:evenodd;fill:#002f33}.st216,.st217,.st218,.st219,.st220{fill:#004b1c}.st217,.st218,.st219,.st220{fill:#407855}.st218,.st219,.st220{fill:#003c16}.st219,.st220{fill:#00240d}.st220{fill:#282828}.st221,.st222,.st223,.st224,.st225,.st226{fill-rule:evenodd;clip-rule:evenodd;fill:#d2d2d2}.st222,.st223,.st224,.st225,.st226{fill:#f3f3f3}.st223,.st224,.st225,.st226{fill:#e6e6e6}.st224,.st225,.st226{fill:#737373}.st225,.st226{fill:#c2c2c2}.st226{fill:#b2b2b2}.st227{fill:none;stroke:#e6e6e6;stroke-width:.36;stroke-miterlimit:8}.st228,.st229{fill-rule:evenodd;clip-rule:evenodd;fill:#613d30}.st229{fill:#f7d7c4}.st230{fill:#00a68c}.st231{fill:#009a83}.st232{fill:#008e7b}.st233{fill:#00abeb}.st234{fill:#009ae4}.st235{fill:#0089de}.st236{fill:#0060c5}.st237{fill:#0048b3}.st238{fill:#0030a1}.st239{fill:#00746a}.st240{fill:#006761}.st241{fill:#005959}.st242{fill:#0c7013}.st243{fill:#086416}.st244{fill:#045719}.st245{fill:#522783}.st246{fill:#9e008e}.st247{fill:#88007d}.st248{fill:#72006d}.st249{fill:#c80912}.st250{fill:#9e83e3}.st251{fill:#ec6401}.st252{fill:#e24f01}.st253{fill:#323232}.st254{fill:#2f2f2f}.st255{fill:#00188f}.st256{fill:#a80000}.st257{fill-rule:evenodd;clip-rule:evenodd;fill:#1ac3f3}.st258{fill:#d86e26}.st259{opacity:.2;fill:#fff}</style><switch><g><g id="Layer_1"><path class="st48" d="M373.057 40.459c-1.255-15.01-13.454-26.792-28.327-26.792-11.022 0-20.572 6.474-25.294 15.933a28.358 28.358 0 0 0-15.103-4.344c-13.415 0-24.707 9.349-28.109 22.074a26.69 26.69 0 0 0-8.167-1.276c-14.755 0-26.716 11.961-26.716 26.716 0 10.715 6.311 19.951 15.415 24.209 2.542 1.059 4.549 1.954 8.314 2.337.223.025.447.045.671.064 3.848.339 9.134.393 17.093.393h86.42c1.918 0 3.791-.236 5.597-.671 13.283-2.644 23.317-14.697 23.317-29.173.001-15.125-10.948-27.6-25.111-29.47z"/><path class="st3" d="M492.776 294.931h-354.95c-2.123 0-3.98-1.847-3.98-3.958 0-2.243 1.857-3.958 3.98-3.958h354.95c2.255 0 3.98 1.715 3.98 3.958 0 2.11-1.725 3.958-3.98 3.958z"/><path class="st67" d="M427.776 244l53.805.322L487.849 291h-2.356l-5.909-44-21.674-.234L463.85 291h-2.269l-5.909-44-26.037-.281L421.111 291h-2.384z"/><path class="st25" d="M463.922 187.478c5.429-.209 14.591 0 18.373 0s5.63.316 5.546 3.797c-.214 8.868-1.686 39.87-2.146 46.99-.244 3.782-2.825 6.645-8.77 6.735h-53.068c0-.089.778-5.627 6.723-6h17.402c0 .373 8.42-38.23 9.559-43.611 1.207-5.696 2.818-7.774 6.381-7.911z"/><path class="st68" d="M477.682 186.413c-12.553 3.876-20.98-12.807-20.98-12.807v-10.785l16.165-.506.172 1.18c0 12.807 0 18.536 4.643 22.918z"/><path class="st69" d="M422.674 291.22v-7.629h-8.213c-4.693 0-8.715 3.121-10.224 7.629h18.437z"/><path class="st70" d="M414.596 283.591c-4.306 0-7.173 2.034-9.193 5.086h11.717c2.861 0 5.217-2.204 5.553-5.086h-8.077z"/><path class="st71" d="M438.36 229.215v.17h-11.512c-7.045 0-12.715 7.138-12.887 13.936v.68c0 33.606.075 38.895.088 39.55a.08.08 0 0 0 .082.081c2.518-.014 7.771-.001 8.44 0 .044 0 .074-.035.077-.078 2.729-33.672 2.824-41.464 2.825-42.319 0-.047.036-.084.083-.084 7.495.001 19.682.168 19.682.168 7.357 0 13.175-4.754 13.224-12.01a.093.093 0 0 0-.092-.093h-20.01z"/><path class="st71" d="M450.946 229.813v.172h-9.966c-7.045 0-12.715 7.226-12.887 14.108v39.659c3.888.03 8.86.03 8.86.03 2.208-28.093 2.594-38.001 2.65-41.164a1.345 1.345 0 0 1 1.36-1.327c4.44.039 18.258.16 18.402.16 7.388 0 13.23-4.24 13.23-11.638h-21.649z"/><path class="st69" d="M436.994 291.22v-7.629h-8.119c-4.736 0-8.795 3.121-10.318 7.629h18.437z"/><path class="st70" d="M428.618 283.591c-4.014 0-7.504 2.034-9.424 5.086h12.042a5.784 5.784 0 0 0 5.759-5.086h-8.377zM466.379 182.781v-10.293h-10.116l-.174 10.121c-.174.515-.698.858-1.221.858h-2.616v21.444h19.708v-21.444h-4.883c-.349 0-.698-.343-.698-.686z"/><path class="st72" d="M466.239 178.912v-6.424h-10l-.172 10.172c8.448-.001 10.172-3.748 10.172-3.748zM454.848 183.295c0 .17-.159.17-.159.17h-2.384v16.145c.318.17.636.34.477.85h.159s.159 0 .318-.17v-.34c-.318-5.438 1.589-16.655 1.589-16.655z"/><path class="st73" d="M443.988 226.526h28.609v5.086h-28.609z"/><path class="st74" d="M443.193 229.546s12.364 14.622 29.88 14.622v-14.622h-29.88z"/><path class="st74" d="M471.317 183.454h-4.464c-3.605 6.296-7.897 12.388-13.563 16.472-1.03-5.105-.515-10.857.515-16.472h-.858c-6.352 0-11.502 5.582-11.502 11.708v7.827h2.232v26.715h29.415v-26.715h9.04v-8.508c-.171-5.786-4.978-11.027-10.815-11.027z"/><path class="st75" d="M443.988 203.003v26.701h12.715l-12.715-26.701z"/><path class="st70" d="M482.132 202.435h-9.183v5.685c0 .514-.368.861-.85 1.029-3.548 1.233-18.349 5.639-18.349 5.639-12.414 0-12.941 7.051-12.941 7.051 6.219-.102 13.732-2.079 13.732-2.079 8.926-.565 23.17-2.551 23.17-2.551 2.551-.343 4.421-2.572 4.421-5.316v-9.458z"/><path class="st72" d="M482.132 205.057v-2.543h-8.9z"/><ellipse class="st76" cx="451.934" cy="167.402" rx="3.497" ry="3.179"/><circle class="st77" cx="449.391" cy="169.627" r=".954"/><ellipse class="st78" cx="470.371" cy="167.402" rx="3.497" ry="3.179"/><circle class="st77" cx="472.914" cy="169.627" r=".954"/><path class="st70" d="M471.325 158.753c-2.399-2.855-6.168-4.702-9.937-4.534-8.909 0-14.221 9.572-10.623 17.465 1.028 2.519 2.227 4.534 4.283 6.214.685.672 1.542 1.343 2.399 1.679 2.913 1.176 5.483.336 7.881-1.008 1.028-.672 2.056-1.511 3.084-2.351 1.542-1.175 2.399-3.023 2.399-4.87l.514-12.595z"/><path class="st79" d="M452.411 162.456c.477-2.718 1.748-5.096 3.02-7.134-3.814 2.038-5.722 6.285-5.722 11.21 0 4.416.954 7.474 4.291 11.041-2.224-4.246-2.542-10.7-1.589-15.117z"/><path class="st68" d="M461.41 150.236c-6.682 0-12.165 5.885-12.336 13.374 1.542.713 2.227 1.07 3.941 1.07 5.483 0 10.109-3.923 11.822-9.451 1.199 3.566 2.57 7.489 6.853 9.273.514.357 1.028-1.248 1.542-1.07-.343-7.311-4.969-13.196-11.822-13.196z"/><path class="st79" d="M458.61 171.216v-5.086c-.477 0-.795.477-.954.954l-.318 4.132h1.272z"/><path class="st72" d="M457.338 171.216c.477.848 1.113 1.271 1.907 1.271s1.589-.424 1.907-1.271h-3.814z"/><path class="st80" d="M459.909 173.123c-.332 0-.663.342-.663.685-.166-.342-.498-.685-.663-.685-1.824 0-3.151.685-3.151.685.498 2.225 1.99 3.766 3.814 3.766s3.317-1.54 3.814-3.766c0 0-1.327-.685-3.151-.685z"/><path class="st72" d="M455.431 174.395c.498 1.496 1.99 2.543 3.814 2.543s3.317-1.047 3.814-2.543h-7.628z"/><path class="st0" d="M455.431 174.395c.498 1.113 1.99 1.907 3.814 1.907s3.317-.795 3.814-1.907h-7.628z"/><circle cx="454.477" cy="166.448" r=".954"/><circle cx="464.014" cy="166.448" r=".954"/><path class="st81" d="M454.086 192h-33.942c-.522 0-1.044.348-.87 1.045L423.451 219h35.857l-4.178-26.303c-.174-.523-.522-.697-1.044-.697z"/><path class="st71" d="M459.214 221h10.714c.143 0 .286-.159.286-.318v-.954c0-.159-.143-.318-.286-.318l-10.714-.318V221z"/><path class="st82" d="M459.085 220.567h-34.738c-.518 0-.864-.318-.864-.795v-1.113h35.602v1.908z"/><path class="st34" d="M365.483 284.44v-5.892l-9.31 1.819-2.182 6.692z"/><path class="st25" d="M261.119 187.107c-5.429-.209-14.591 0-18.373 0s-5.63.316-5.546 3.797c.214 8.868 1.686 39.87 2.146 46.99.244 3.782 2.825 6.645 8.77 6.645h53.068s-.778-5.538-6.723-5.538h-17.402s-8.42-38.603-9.559-43.984c-1.206-5.695-2.817-7.773-6.381-7.91z"/><path class="st83" d="M287.163 204.474l3.276 15.818-10.846.226 2.373-14.123z"/><path class="st84" d="M279.059 207.318c2.568-.358 7.313-1.036 10.025-1.827-1.224-6.449-3.342-16.992-3.647-18.269-1.715-7.182-9.227-2.637-8.361 1.93.503 2.659 1.329 11.218 1.983 18.166z"/><path class="st67" d="M304.334 244l-60.608.316-7.06 45.684h2.707l6.646-43 24.379-.229L263.717 290h2.551l6.646-43 29.286-.275L311.788 290h2.739z"/><path class="st85" d="M294.173 282.268l.597-5.758 8.915 2.721 1.454 6.761z"/><path class="st86" d="M294.011 281.748s3.971 1.202 5.677 1.379c1.706.177 2.488-3.824 5.432-1.808s2.625 3.044 9.512 6.662c2.385 1.253-.743 3.012-.743 3.012l-20.685-2.145.807-7.1z"/><path class="st85" d="M283.507 283.985v-5.788l9.148 1.786 2.144 6.575z"/><path class="st87" d="M295.585 229.744h6.432c3.288 0 10.029 1.119 9.362 9.379-.979 12.127-6.056 40.975-6.056 40.975l-11.268-1.732s3.602-34.185 2.459-35.186-8.933-2.001-8.933-2.001l1.358-11.434h6.646z"/><path class="st25" d="M240.744 238.405c.617-7.066 3.913-37.835 5.092-46.636.463-3.455 2.623-3.769 6.944-3.769h6.433s-.429 38.073-.429 43.646c0 4.818 2.244 6.858 5.622 7.323-.031.082 1.274.031 1.274.031s29.247.095 35.983.095c6.736 0 6.736 5.905 6.736 5.905h-61.973c-4.754 0-6.01-2.841-5.682-6.595z"/><path class="st83" d="M266.188 179.511c-5.135-.358-7.763-5.852-7.763-5.852-1.433-3.105-2.15-7.404-2.15-10.27l.717-7.404 9.435-4.658 10.032 7.285.119 4.777c0 2.986-.717 7.165-2.15 10.27 0 0-2.866 6.091-8.24 5.852z"/><path class="st83" d="M256.843 163.628s-.246-.597-1.108-.597c0 0-1.108.119-.739 1.911l.246.836.246.955.369.836.246.597s.246.717.246 1.075c0 0-.123.597.616.836h.739s-.123-1.552.123-5.971l-.984-.478z"/><path class="st88" d="M246.775 183.018c3.286-.655 16.362-3.344 16.362-3.344l6.059.152c1.554.375 2.872.642 13.133 3.501 1.746.678 3.022 2.379 3.022 4.349.119 2.627-4.904 41.667-4.904 41.667l-32.934-.454-.055-26.047-.702-14.974s-3.267-4.195.019-4.85z"/><path class="st84" d="M243.073 186.242a.126.126 0 0 0 .01.003 4.826 4.826 0 0 1 4.171-3.228c2.627-.239 4.929 5.038 3.998 10.674-1.027 2.981-4.736 13.675-5.692 16.9-4.335-.555-9.862-.786-9.862-.786 1.074-3.583 6.419-20.697 7.375-23.563z"/><path class="st83" d="M266.427 184.928c-3.105 0-5.613-1.634-5.613-4.29v-3.472h11.227v3.472c-.001 2.656-2.509 4.29-5.614 4.29z"/><path class="st17" d="M276.459 158.134v5.135h-.955v-2.627c-4.658 2.508-10.988-5.397-16.004-2.292.358 5.135-1.911 5.636-1.911 5.636h-1.194l-.119-5.852v-.239c.119-5.135 4.299-7.882 9.316-7.882h1.672c5.016 0 9.077 2.747 9.196 7.882l-.001.239z"/><path class="st89" d="M270.481 170.435c0 .358-.239.597-.717.597-.119 0-.119.239-.358.358a1.289 1.289 0 0 1-.836.358c-.358 0-.597-.119-.836-.358-.239-.119-.358-.358-.478-.358-.358 0-.597-.239-.597-.597h3.822z"/><path class="st90" d="M268.57 165.18v5.255h-1.911c0-.239 0-.358.239-.478.358-.358.597-.955.717-1.672v-2.269c0-.597.717-.836.955-.836zM272.04 178.436l-.119.119c-1.553 1.314-3.702 1.791-6.33 1.552-2.03-.119-4.777-1.583-4.777-1.583v-1.642c1.194.955 2.866 1.791 4.777 2.03 2.747.239 4.897-.478 6.449-1.911v1.435z"/><path class="st15" d="M272.751 173.421c-4.24 1.137-8.539 0-8.539 0s1.929 2.03 4.27 2.03c2.34 0 4.269-2.03 4.269-2.03z"/><path class="st83" d="M250.794 214.032l11.379.967 5.427-2.794s4.634.52 5.899.974c1.266.454 4.775 2.578 4.775 2.578s.744 2.118-3.721 1.345c-1.135-.197-1.395.844-2.468 1.161-1.073.317-2.01 1.014-5.13 1.551-3.119.537-6.961-.269-6.961-.269l-10.281-.706 1.081-4.807z"/><path class="st87" d="M247.417 228.457v4.145c0 2.144-.715 6.861 7.289 6.861h23.298l4.86 40.449h11.72l-2.716-50.454-44.451-1.001z"/><path class="st86" d="M283.293 283.485s4.073.786 5.789.786 2.975-3.932 5.217-2.358c2.242 1.574 2.925 2.757 10.148 5.646 2.501 1-.429 3.073-.429 3.073h-20.796l.071-7.147z"/><path class="st36" d="M402.215 227.925v4.219c0 2.182.727 6.983-7.419 6.983h-23.712l-5.251 43.127h-11.929l3.069-53.31 45.242-1.019z"/><path class="st91" d="M228.2 222.916v67.934h2.802s5.605-49.183 6.445-53.666c.841-4.484 2.802-6.305 9.107-6.305H428.73c6.305 0 8.267 1.821 9.107 6.305.841 4.484 6.627 53.61 6.627 53.61h2.802l-.182-67.877H228.2z"/><path class="st88" d="M188.214 220h305v4h-305z"/><path d="M353.559 220l-32.935.056c-.8 0-2.9-1.535-2.9-1.535l-3.959-28.02c-.112-.8.445-1.449 1.245-1.449h34.991c.8 0 1.54.649 1.652 1.449l3.995 28.302c.114.801-1.289 1.197-2.089 1.197z"/><path class="st31" d="M353.069 217h-33.12a.982.982 0 0 1-.942-.818l-3.565-25.363a.7.7 0 0 1 .711-.818h33.112c.459 0 .887.372.951.826l3.563 25.355a.698.698 0 0 1-.71.818z"/><path class="st43" d="M352.08 215.483h-31.648l-3.32-23.625h31.648z"/><path class="st37" d="M348.691 198h-29.84l-.863-6h29.84z"/><path class="st92" d="M377.044 171.266l.918 8.4-10.325 4.026-1.253-11.464c1.985-2.462 9.724-3.817 10.66-.962z"/><path class="st68" d="M372.509 148.348c-5.274-.499-11.508 1.359-12.555 3.402-1.047 2.043-.864 15.151 2.012 20.24 2.876 5.089 10.913 2.755 14.385 2.233 4.666-.7 5.909-5.155 6.53-8.987.621-3.833.419-9.418-1.199-11.87-1.616-2.451-4.498-4.576-9.173-5.018z"/><path class="st69" d="M382.882 165.236c.621-3.833.419-9.418-1.199-11.87s-4.499-4.576-9.174-5.019c-5.274-.499-11.508 1.359-12.555 3.402-.306.596-.505 2.138-.565 4.143.424.001 1.693.045 2.736.505 1.839.812 2.009 2.166 3.061 3.809 1.052 1.643 2.305 1.515 2.305 1.515l-.238-1.865s4.09-.662 4.582 2.425c.395 2.483-2.317 3.24-2.317 3.24s.334 1.856.7 5.089c.199 1.753 2.931 3.617 5.813 3.665.106-.018.221-.038.32-.053 4.666-.699 5.91-5.153 6.531-8.986z"/><path class="st34" d="M344.535 284.44v-5.892l-9.31 1.819-2.182 6.692z"/><path class="st86" d="M344.669 283.677s-4.146.8-5.892.8c-1.746 0-2.909-2.4-2.909-2.4h-2.4s-2.977 2.806-10.328 5.746c-2.546 1.018.436 3.128.436 3.128h21.166l-.073-7.274z"/><path class="st36" d="M353.191 230.47h-6.546c-3.346 0-7.285.772-8.292 8.944-1.382 11.215-5.071 42.948-5.071 42.948h11.929s5.871-37.553 7.034-38.547c1.164-.994 21.576-1.988 21.576-1.988l-1.382-11.357h-19.248z"/><path class="st93" d="M401.662 208.941c-.632-2.251-2.877-3.567-5.154-2.816-.119-.026-.119-.026-.263.067 0 0-22.192 6.687-22.69 6.809l2.01 6.688c.356-.059 23.389-5.326 23.389-5.326 2.277-.75 3.315-3.053 2.708-5.422z"/><path class="st94" d="M401.662 208.941c-.632-2.251-2.877-3.567-5.154-2.816-.119-.026-.119-.026-.263.067 0 0-22.192 6.687-22.69 6.809l2.01 6.688c.356-.059 23.389-5.326 23.389-5.326 2.277-.75 3.315-3.053 2.708-5.422z"/><path class="st95" d="M362.214 218.995c0 .555-.45 1.005-1.005 1.005h-42.211c-.718 0-1.161-.64-1.312-1.38l-.113-.62h44.641v.995z"/><path class="st86" d="M365.617 283.677s-4.146.8-5.892.8c-1.746 0-2.909-2.4-2.909-2.4h-2.4s-2.977 2.806-10.328 5.746c-2.546 1.018.436 3.128.436 3.128h21.166l-.073-7.274z"/><path class="st30" d="M380.056 178.439c-5.208-.921-15.451.995-15.451.995s2.263-3.447 7.781-3.909c5.518-.463 6.265 1.202 7.67 2.914z"/><path class="st33" d="M353.12 186.95c0-2.005 1.299-3.851 3.076-4.696 4.67-1.958 11.675-3.698 13.257-4.218a27.73 27.73 0 0 1 8.323-.339s11.93 2.606 13.49 3.2c1.56.594 2.605 1.488 3.083 2.823.003-.001 6.22 18.709 7.314 22.26l-30.553 31.41-11.75-3.314c-.001 0-6.362-44.441-6.24-47.126z"/><g><path class="st67" d="M348.03 243.807l53.895.323 6.278 46.756h-2.278L400.214 247h-22l5.977 43.886h-2.278L376.214 247h-26l-8.942 43.886h-2.306z"/><path class="st25" d="M375.67 187.107c5.4-.209 14.591 0 18.373 0s5.674.316 6.079 3.797c1.033 8.868 3.918 39.87 4.458 46.99.287 3.782-1.891 6.645-7.836 7.105h-53.068c0-.46 0-5.998 5.944-6h17.402c0 .002 2.995-38.6 3.377-43.982.408-5.695 1.727-7.773 5.271-7.91z"/></g><path class="st32" d="M307.147 218.484l4.219-30.019c.096-.685-.381-1.24-1.065-1.24h-17.376c-.685 0-1.317.555-1.414 1.24l-4.219 30.019h19.855z"/><path class="st96" d="M293.018 189.218c.096-.685.729-1.24 1.414-1.24h16.903c-.127-.443-.522-.753-1.034-.753h-17.376c-.685 0-1.317.555-1.414 1.24l-4.219 30.019h1.612l4.114-29.266z"/><path class="st47" d="M306.161 220h-39.585c-.752 0-1.362-.61-1.362-1.362V218h42v.947c0 .582-.472 1.053-1.053 1.053z"/><path class="st28" d="M261.307 163.747s4.299-.836 5.136 0h-5.136zM274.445 163.747s-4.299-.836-5.135 0h5.135zM263.935 165.539a.577.577 0 0 1 0-.836c.239-.239.597-.239.955 0a.577.577 0 0 1 0 .836c-.358.358-.716.358-.955 0zM271.34 165.658c-.239-.239-.239-.717 0-.955a.577.577 0 0 1 .836 0 .559.559 0 0 1 0 .955.577.577 0 0 1-.836 0z"/><g><path class="st31" d="M345.92 214.115h4.476l-2.185-15.215h-4.542zM344.308 214.115l-2.142-15.215h-15.813l2.251 15.215zM324.854 198.9h-5.037l2.184 15.215h4.995z"/></g><path class="st97" d="M343.069 214.286l-4.506.333-5.031-2.728s-4.354.394-5.549.794c-1.196.4-4.528 2.32-4.528 2.32s-.74 1.97 3.46 1.336c1.068-.161 1.291.819 2.29 1.138.999.319 1.864.991 4.777 1.557 2.913.566 6.84.025 6.84.025l3.275-.268-1.028-4.507z"/><path class="st34" d="M361.769 193.703c.301-7.683-7.695-14.564-8.853-6.988-.307 2.009-3.93 23.19-3.93 23.19l-11.012 4.433 1.039 6.129c-.322.09 10.859-1.331 14.318-2.727 2.11-.852 4.42-3.513 4.682-5.76.163-1.395 3.568-13.475 3.756-18.277z"/><path class="st98" d="M205.922 219h33.269a.754.754 0 0 0 .745-.642l3.805-26.494a.753.753 0 0 0-.745-.864h-33.269a.754.754 0 0 0-.745.642l-3.805 26.494a.753.753 0 0 0 .745.864z"/><path class="st12" d="M207.267 217.062h30.572a.308.308 0 0 0 .304-.262l3.584-23.387a.306.306 0 0 0-.304-.352H210.85a.308.308 0 0 0-.304.262l-3.584 23.387a.308.308 0 0 0 .305.352z"/><path class="st2" d="M184.708 186.556l9.478 2.019 3.274-11.82-9.478-2.02z"/><path class="st28" d="M194.217 220h44.455c.716 0 1.297-.581 1.297-1.297V218h-46.755v.997c0 .554.449 1.003 1.003 1.003z"/><path class="st2" d="M193.446 167.872c-1.586-.439-3.113.329-3.511 1.767-.429 1.548.485 2.992 2.071 3.431l1.44-5.198"/><g><path class="st99" d="M219.527 284.565l-5.905-4.207h-6.919l-.505 5.775s3.665 2.392 7.1 2.145c3.435-.248 6.229-3.713 6.229-3.713z"/><path class="st47" d="M205.694 290.835h17.897s1.181-1.897.005-3.217c-.564-.633-4.586-3.465-4.586-3.465s-2.163-.577-4.748.495c-1.173.487-3.359 1.485-3.359 1.485l-4.617-2.062-.592 6.764z"/></g><g><path class="st99" d="M191.952 284.672l-4.519-5.67-6.651-1.905-2.075 5.412s2.865 3.309 6.235 4.017c3.37.708 7.01-1.854 7.01-1.854z"/><path class="st47" d="M176.928 286.891l17.205 4.927s1.657-1.499.89-3.092c-.368-.764-3.455-4.593-3.455-4.593s-1.921-1.151-4.701-.831c-1.262.145-3.638.503-3.638.503l-3.87-3.254-2.431 6.34z"/></g><path class="st100" d="M171.824 221.836s-3.737-14.05-4.919-27.054c-.723-7.957 5.16-10.817 9.348-11.07 4.533-.273 7.456-.67 9.888-.704l2.936.074c3.347.515 9.089 2.135 12.316 3.255 3.906 1.356 5.927 3.907 3.418 9.928-2.894 6.944-13.31 25.582-13.31 25.582l-19.677-.011z"/><path class="st28" d="M198.022 230.203c-7.064-.523-25.496-1.558-25.496-1.558s-.708 1.416-.708 3.399c0 3.583 1.275 8.64 5.524 8.64h12.96c.991 0 2.208.632 1.353 3.333-3.766 11.901-9.039 26.212-12.474 35.401l12.173 3.465c5.724-12.202 14.161-32.539 17.324-40.975 1.71-4.557-3.007-11.138-10.656-11.705z"/><path class="st28" d="M191.153 240.685h15.298c.991 0 1.983.283 1.983 3.116 0 2.299-1.586 28.675-2.184 38.527h10.716c1.108-10.929 3.875-38.079 4.357-41.36.708-4.816-1.841-10.198-9.49-10.765-7.064-.523-25.496-1.558-25.496-1.558s-.708 1.416-.708 3.399c0 3.584 1.274 8.641 5.524 8.641z"/><path class="st2" d="M209.512 214.855s6.438.214 7.595.285c1.157.071 7.668 3.638 8.536 3.923.868.285.94 1.355-.579 1.355s-16.276-.071-16.276-.071l.724-5.492zM204.52 163.315c.506.94-.145 6.004-.289 6.438-.145.434-1.079 2.61-1.079 2.61s.283 1.586-.44 3.395c-.723 1.808-2.894 6.51-3.472 7.089-.579.579-3.762 0-5.353-1.302-1.591-1.302-7.378-6.366-7.378-6.366l5.932-15.046 12.079 3.182z"/><path class="st101" d="M203.079 194.968l-.222 11.279-7.917 21.3-.185 12.635H180.41l.631-20.531z"/><g><path class="st67" d="M209.949 244.69l-60.735-1.19-7.335 47.492h2.577l6.712-43.456 24.622-.231-6.747 43.687h2.577l6.712-43.456 29.577-.278 9.684 43.734h2.609z"/><path class="st25" d="M178.682 189h-20.82c-4.242 0-6.364.309-6.818 3.702-1.158 8.647-4.394 38.876-5 45.818-.322 3.688 2.121 6.479 8.788 6.479h59.488s0-5-6.173-5h-19.691s-3.385-37.937-3.818-43.226c-.458-5.596-1.985-7.773-5.956-7.773z"/></g><path class="st8" d="M217.573 201h-6.505l-2.082 14h6.401zM219.566 201l-2.199 14h19.348l2.077-14z"/><path class="st102" d="M201.336 156.935c-.014-.009-.025-.018-.039-.026-.019-.011-.04-.019-.059-.03a10.704 10.704 0 0 0-.466-.238c-5.408-2.811-13.884-.546-17.586 4.598-5.405-1.708-12.965-.207-12.621 6.856.452 9.265-3.954 14.123-3.954 14.123s9.08 5.412 10.507-5.649c.846-6.556.605-12.516 4.46-12.049-2.86 9.09 4.816 16.486 4.816 16.486s6.354-.145 6.836-4.199l.051-.017s0-.984 1.093-5.443c.595-2.427 2.242-2.315 2.677-1.953.434.362-.579 3.472-.579 3.472s.506-.145.796-.289c.289-.145 1.519-2.676 2.676-3.328 1.157-.651 3.914-1.18 5.244-3.092 1.157-1.664 1.555-3.129 1.555-3.129s-1.584-3.947-5.407-6.093z"/><path class="st103" d="M198.01 188.534c-6.851 12.004-8.969 19.021-10.175 22.765-1.229 3.814-1.983 9.218 4.533 9.218h19.612l-.148-6.425-13.822-1.449s5.642-13.125 7.731-18.942c2.117-5.896-5.284-9.455-7.731-5.167z"/><path class="st104" d="M344.676 62.289L321.757 39.37a2.067 2.067 0 0 0-2.923 0l-5.162 5.162 5.368 5.368a3.923 3.923 0 0 1 1.255-.209 3.921 3.921 0 0 1 3.921 3.921c0 .44-.075.861-.209 1.255l5.25 5.25a3.921 3.921 0 1 1-2.279 2.475l-5.002-5.002v13.129a3.918 3.918 0 0 1-1.681 7.459 3.921 3.921 0 0 1-3.921-3.921c0-1.563.917-2.909 2.24-3.538v-13.57a3.9 3.9 0 0 1-1.988-4.91l-5.331-5.331-15.381 15.381a2.067 2.067 0 0 0 0 2.923l22.919 22.919a2.067 2.067 0 0 0 2.923 0l22.919-22.919a2.066 2.066 0 0 0 .001-2.923z"/><path class="st8" d="M212.378 195l-.595 4h26.944l.595-4z"/></g></g></switch></svg>