<svg width="636" height="300" viewBox="0 0 636 300" fill="none" xmlns="http://www.w3.org/2000/svg">
<path d="M156.42 295.06C125.82 295.06 83.8795 295.06 83.8795 295.06C82.3495 295.06 81.0195 293.67 81.0195 292.09C81.0195 290.41 82.3595 289.12 83.8795 289.12C134.33 289.12 156.42 289.12 156.42 289.12C158.04 289.12 159.28 290.41 159.28 292.09C159.29 293.67 158.05 295.06 156.42 295.06Z" fill="#C8C8C8"/>
<path d="M551.24 296.46C520.64 296.46 473.7 296.46 473.7 296.46C472.17 296.46 470.84 295.07 470.84 293.49C470.84 291.81 472.18 290.52 473.7 290.52C524.15 290.52 551.24 290.52 551.24 290.52C552.86 290.52 554.1 291.81 554.1 293.49C554.1 295.07 552.86 296.46 551.24 296.46Z" fill="#C8C8C8"/>
<path d="M548.041 132.16C517.441 132.16 464.501 132.16 464.501 132.16C462.971 132.16 461.641 130.77 461.641 129.19C461.641 127.51 462.981 126.22 464.501 126.22C514.951 126.22 548.041 126.22 548.041 126.22C549.661 126.22 550.901 127.51 550.901 129.19C550.901 130.77 549.661 132.16 548.041 132.16Z" fill="#C8C8C8"/>
<path d="M403.051 216.32V209.56H233.711V216.32C233.711 216.98 234.041 217.56 234.621 217.8L315.441 251.41C317.521 252.08 319.521 252.16 321.271 251.49L402.221 217.79C402.801 217.64 403.051 216.98 403.051 216.32Z" fill="#409AE1"/>
<path d="M402.22 211.13L321.19 244.92C319.44 245.75 318.11 246.09 315.86 245.09L234.62 211.13C233.47 210.63 233.47 208.66 234.62 208.16L317.97 173.53C318.22 173.45 318.55 173.45 318.88 173.53L402.23 208.16C403.38 208.57 403.38 210.63 402.22 211.13Z" fill="#69AFE5"/>
<path d="M404.039 182.6V175.84H234.619V182.6C234.619 183.26 234.949 183.84 235.529 184.08L316.779 217.91C319.529 218.99 320.779 218.41 322.699 217.58L403.139 184.08C403.709 183.84 404.039 183.18 404.039 182.6Z" fill="#B6B6B7"/>
<path d="M403.13 177.33L322.28 211.09C320.7 211.84 319.11 212.09 316.86 211.26L235.53 177.34C234.38 176.84 234.38 174.87 235.53 174.37L318.88 139.74C319.13 139.66 319.46 139.66 319.79 139.74L403.14 174.37C404.37 174.85 404.37 176.83 403.13 177.33Z" fill="#D2D2D2"/>
<path d="M404.039 148.8V142.04H234.619V148.8C234.619 149.46 234.949 150.04 235.529 150.28L316.859 184.16C319.279 184.91 320.859 184.49 322.609 183.83L403.129 150.28C403.709 150.04 404.039 149.46 404.039 148.8Z" fill="#E58B39"/>
<path d="M403.131 143.52L322.361 177.25C320.371 178.31 318.281 178.08 316.941 177.42L235.521 143.53C234.371 143.03 234.371 141.06 235.521 140.56L316.941 106.71C318.441 106.04 320.231 106.09 321.441 106.63L403.131 140.56C404.371 141.05 404.371 143.03 403.131 143.52Z" fill="#FDA84C"/>
<path d="M538.859 246.56C539.449 246.56 539.959 246.49 540.539 246.27C541.049 246.05 541.569 245.75 541.929 245.31C542.299 244.87 542.659 244.43 542.879 243.83C543.099 243.31 543.169 242.72 543.169 242.13V231.8C543.169 230.62 542.729 229.51 541.929 228.63C541.119 227.82 540.029 227.3 538.929 227.3H480.419C479.829 227.3 479.319 227.37 478.739 227.59C478.229 227.81 477.709 228.11 477.349 228.55C476.989 228.99 476.619 229.44 476.399 230.03C476.179 230.55 476.109 231.14 476.109 231.73V242.06C476.109 242.65 476.179 243.24 476.399 243.76C476.619 244.28 476.909 244.79 477.349 245.24C477.719 245.68 478.229 245.98 478.739 246.2C479.249 246.42 479.759 246.49 480.279 246.49V250.92C479.769 250.92 479.259 250.99 478.739 251.21C478.229 251.43 477.709 251.73 477.349 252.17C476.979 252.61 476.619 253.06 476.399 253.65C476.179 254.17 476.109 254.76 476.109 255.35V265.68C476.109 266.27 476.179 266.86 476.399 267.38C476.619 267.9 476.909 268.41 477.349 268.86C477.719 269.3 478.229 269.6 478.739 269.82C479.249 270.04 479.759 270.11 480.279 270.11V274.32C479.769 274.32 479.259 274.39 478.739 274.61C478.229 274.83 477.709 275.13 477.349 275.57C476.979 276.01 476.619 276.46 476.399 277.05C476.179 277.57 476.109 278.16 476.109 278.75V289.08C476.109 289.67 476.179 290.26 476.399 290.78C476.619 291.3 476.909 291.81 477.349 292.26C477.719 292.7 478.229 293 478.739 293.22C479.249 293.44 479.839 293.52 480.419 293.52H538.929C539.519 293.52 540.029 293.45 540.609 293.22C541.119 293 541.639 292.7 541.999 292.26C542.369 291.82 542.729 291.37 542.949 290.78C543.169 290.26 543.239 289.67 543.239 289.08V278.75C543.239 278.16 543.169 277.57 542.949 277.05C542.729 276.53 542.439 276.02 541.999 275.57C541.629 275.13 541.119 274.83 540.609 274.61C540.099 274.39 539.509 274.32 538.929 274.32H537.609V270.11H538.929C539.519 270.11 540.029 270.04 540.609 269.82C541.119 269.6 541.639 269.3 541.999 268.86C542.369 268.42 542.729 267.97 542.949 267.38C543.169 266.86 543.239 266.27 543.239 265.68V255.35C543.239 254.17 542.799 253.06 541.999 252.18C541.189 251.37 540.099 250.85 538.999 250.85H537.679V246.42H538.849V246.56H538.859Z" fill="#5F5F5F"/>
<path d="M542.279 244.82H484.859V276.94H542.279V244.82Z" fill="#505050"/>
<path d="M543.8 227.3H485.29C484.7 227.3 484.19 227.37 483.61 227.6C483.1 227.82 482.58 228.12 482.22 228.57C481.85 229.02 481.49 229.47 481.27 230.07C481.05 230.59 480.98 231.19 480.98 231.79V242.27C480.98 242.87 481.05 243.47 481.27 243.99C481.49 244.51 481.78 245.04 482.22 245.49C482.59 245.94 483.1 246.24 483.61 246.46C484.12 246.68 484.71 246.76 485.29 246.76H543.8C544.39 246.76 544.9 246.68 545.48 246.46C545.99 246.24 546.51 245.94 546.87 245.49C547.24 245.04 547.6 244.59 547.82 243.99C548.04 243.47 548.11 242.87 548.11 242.27V231.79C548.11 230.59 547.67 229.47 546.86 228.57C546.07 227.83 544.97 227.3 543.8 227.3Z" fill="#737373"/>
<path d="M541.31 232.17H528.66V235.09H541.31V232.17Z" fill="#69AFE5"/>
<path d="M543.8 250.66H485.29C484.7 250.66 484.19 250.73 483.61 250.96C483.1 251.18 482.58 251.48 482.22 251.93C481.85 252.38 481.49 252.83 481.27 253.43C481.05 253.95 480.98 254.55 480.98 255.15V265.63C480.98 266.23 481.05 266.83 481.27 267.35C481.49 267.87 481.78 268.4 482.22 268.85C482.59 269.3 483.1 269.6 483.61 269.82C484.12 270.04 484.71 270.12 485.29 270.12H543.8C544.39 270.12 544.9 270.05 545.48 269.82C545.99 269.6 546.51 269.3 546.87 268.85C547.24 268.4 547.6 267.95 547.82 267.35C548.04 266.83 548.11 266.23 548.11 265.63V255.15C548.11 253.95 547.67 252.83 546.86 251.93C546.07 251.18 544.97 250.66 543.8 250.66Z" fill="#737373"/>
<path d="M541.31 255.53H528.66V258.45H541.31V255.53Z" fill="#69AFE5"/>
<path d="M543.8 274.02H485.29C484.7 274.02 484.19 274.1 483.61 274.32C483.1 274.54 482.58 274.84 482.22 275.29C481.85 275.74 481.49 276.19 481.27 276.79C481.05 277.31 480.98 277.91 480.98 278.51V288.99C480.98 289.59 481.05 290.19 481.27 290.71C481.49 291.23 481.78 291.76 482.22 292.21C482.59 292.66 483.1 292.96 483.61 293.18C484.12 293.4 484.71 293.48 485.29 293.48H543.8C544.39 293.48 544.9 293.4 545.48 293.18C545.99 292.96 546.51 292.66 546.87 292.21C547.24 291.76 547.6 291.31 547.82 290.71C548.04 290.19 548.11 289.59 548.11 288.99V278.51C548.11 277.91 548.04 277.31 547.82 276.79C547.6 276.27 547.31 275.74 546.87 275.29C546.5 274.84 545.99 274.54 545.48 274.32C544.97 274.17 544.38 274.02 543.8 274.02Z" fill="#737373"/>
<path d="M541.31 278.88H528.66V281.8H541.31V278.88Z" fill="#69AFE5"/>
<path d="M542.18 66.4399H487.02V125.87H542.18V66.4399Z" fill="#D2D2D2"/>
<path d="M542.181 66.4399H537.461V125.87H542.181V66.4399Z" fill="#C2C2C2"/>
<path d="M503.391 66.4399H492.891V125.87H503.391V66.4399Z" fill="#F3F3F3"/>
<path d="M542.8 128.63H486.48C486.21 128.63 485.95 128.54 485.68 128.45C485.41 128.36 485.23 128.18 484.97 128C484.79 127.82 484.61 127.56 484.53 127.29C484.44 127.02 484.35 126.76 484.35 126.49V126.4C484.35 126.13 484.44 125.87 484.53 125.6C484.62 125.33 484.8 125.07 484.97 124.89C485.15 124.71 485.42 124.53 485.68 124.44C485.95 124.35 486.21 124.26 486.48 124.26H542.8C543.07 124.26 543.33 124.35 543.6 124.44C543.87 124.53 544.04 124.71 544.31 124.89C544.49 125.07 544.67 125.33 544.76 125.6C544.85 125.87 544.94 126.13 544.94 126.4V126.49C544.94 126.76 544.85 127.02 544.76 127.29C544.67 127.56 544.49 127.82 544.31 128C544.13 128.18 543.87 128.36 543.6 128.45C543.33 128.54 543.07 128.63 542.8 128.63Z" fill="#939393"/>
<path d="M542.18 68.04H487.02V71.33H542.18V68.04Z" fill="#737373"/>
<path d="M503.391 68.04H492.891V71.33H503.391V68.04Z" fill="#B2B2B2"/>
<path d="M542.8 68.0399H486.48C486.21 68.0399 485.95 67.9499 485.68 67.8599C485.41 67.7699 485.23 67.5899 484.97 67.4199C484.79 67.2399 484.61 66.9799 484.53 66.7099C484.44 66.4399 484.35 66.1799 484.35 65.9099V65.8199C484.35 65.2899 484.53 64.6599 484.97 64.3099C485.33 63.8699 485.86 63.6899 486.39 63.6899H542.71C543.24 63.6899 543.78 63.9599 544.13 64.3099C544.49 64.6699 544.75 65.2899 544.75 65.8199V65.9099C544.75 66.1799 544.66 66.4399 544.57 66.7099C544.48 66.9799 544.3 67.2399 544.12 67.4199C543.94 67.5999 543.68 67.7799 543.41 67.8599C543.33 68.0399 543.07 68.0399 542.8 68.0399Z" fill="#939393"/>
<path d="M504.631 63.6802C504.631 63.6802 510.861 64.7502 510.861 71.4202V79.8702C510.861 83.9602 515.751 85.3902 520.291 85.3902C524.741 85.3902 528.561 88.2402 528.561 92.1502V102.56C528.561 106.65 534.881 106.92 534.881 102.56V71.7802C534.881 64.0402 528.031 63.7702 528.031 63.7702L504.631 63.6802Z" fill="#FDA84C"/>
<path d="M487.551 70.4499L484.171 69.3799L479.191 87.4399C478.031 90.8199 476.881 94.6499 475.811 98.6499C474.741 102.65 473.761 106.48 472.961 110.04L467.891 128.1L471.271 129.17C473.321 129.79 478.651 117.16 483.101 100.97C487.641 84.6799 489.691 71.0699 487.551 70.4499Z" fill="#939393"/>
<path d="M479.719 99.7199C484.169 83.4399 486.209 69.7399 484.169 69.1199C482.119 68.4999 476.869 81.2199 472.339 97.4999C467.889 113.78 465.849 127.48 467.889 128.02C469.939 128.72 475.269 116 479.719 99.7199Z" fill="#C2C2C2"/>
<path d="M470.909 121.6L469.489 123.11C469.399 123.29 469.309 123.38 469.129 123.47C468.599 122.49 470.109 113.33 474.199 98.2902C478.379 83.2502 481.849 74.7102 482.829 74.0902C482.919 74.3602 482.919 74.6202 482.919 74.8902L483.449 75.9602C483.629 73.7402 483.269 73.5602 483.009 73.4702C482.649 73.3802 481.939 73.1102 479.179 80.5902C477.489 85.2202 475.529 91.4402 473.659 98.1202C471.789 104.79 470.279 111.2 469.389 116C467.969 123.83 468.679 124.01 469.029 124.1C469.219 124.18 469.669 124.27 470.909 121.6Z" fill="white"/>
<path d="M476.43 90.5498C479.54 80.2298 482.04 74.5398 482.75 73.9998C482.84 74.2698 482.84 74.5298 482.84 74.7998L483.37 75.8698C483.55 73.6498 483.19 73.4698 482.92 73.3798C482.56 73.2898 481.85 73.0198 479.09 80.4998C478.11 83.1698 477.13 86.2798 475.98 89.7498L476.43 90.5498Z" fill="#939393"/>
<path d="M530.34 102.03V92.8699C530.34 86.7299 526.78 85.1299 518.51 84.5099C512.46 84.0699 513.26 80.4199 513.26 75.7899C513.26 69.9199 512.19 63.6899 503.92 63.6899C504.9 63.8699 510.15 65.8299 510.15 71.9599V79.7899C510.15 83.9699 515.22 85.3899 519.85 85.6599C525.1 86.0199 528.39 88.4199 528.39 92.3299V102.65C528.39 106.48 534.8 106.65 534.8 102.56C533.81 104.7 530.34 103.81 530.34 102.03Z" fill="#E58B39"/>
<path d="M504.721 27.7403L526.341 34.3203L528.211 28.8903L507.391 19.5503L504.721 27.7403Z" fill="#D2D2D2"/>
<path d="M504.721 27.7401L455.521 6.57007C455.161 6.39007 454.901 6.13007 454.721 5.77007C454.541 5.41007 454.541 4.97007 454.721 4.52007C454.901 4.16007 455.161 3.81007 455.521 3.63007C455.881 3.45007 456.231 3.45007 456.681 3.54007L507.571 19.6401L504.721 27.7401Z" fill="#1070C4"/>
<path d="M505.881 24.1802L504.631 27.7402L526.251 34.3202L526.961 32.1002L505.881 24.1802Z" fill="#B2B2B2"/>
<path d="M454.539 5.06006C454.539 5.42006 454.629 5.68006 454.809 5.95006C454.989 6.22006 455.249 6.39006 455.519 6.57006L504.719 27.6601L505.969 24.1001L454.539 5.06006Z" fill="#09538F"/>
<path d="M545.65 41.8901C545.65 41.8901 543.78 33.4401 538.53 28.7201C537.46 27.6501 536.22 26.8501 534.79 26.3201C534.7 26.2301 534.61 26.2301 534.43 26.2301C529.89 24.7201 525.44 26.3201 524.2 29.8801C522.95 33.5301 525.71 37.9801 530.25 39.6701C532.39 40.4701 534.7 40.5601 536.83 39.8501C541.55 39.5701 545.65 41.8901 545.65 41.8901Z" fill="#676767"/>
<path d="M546.089 42.6003C545.999 37.3503 539.949 27.6503 534.439 26.3203C534.439 26.3203 537.729 28.5403 538.269 30.5903C538.719 32.2803 536.939 31.3903 535.599 31.3903C534.269 31.3003 534.089 32.3703 536.039 33.9703C537.999 35.4803 535.949 35.6603 534.079 35.3003C532.389 34.9403 532.479 36.6303 534.439 37.8803C536.399 39.2103 532.219 40.5503 530.439 40.0203C531.859 40.5503 533.379 40.9103 534.979 40.9103H535.249C544.129 41.6203 546.179 49.0903 546.089 42.6003Z" fill="#FDA84C"/>
<path d="M532.839 35.75C532.839 36.28 533.369 37.08 534.439 37.71C536.399 39.04 532.219 40.38 530.439 39.85C531.859 40.38 533.379 40.74 534.979 40.74H535.249C541.479 41.36 544.409 45.1 545.569 45.19C545.019 43.67 542.269 38.6 532.839 35.75Z" fill="#E58B39"/>
<path d="M551.791 58.7003C550.991 56.3903 548.501 52.9203 546.991 51.3203C546.461 50.7903 546.011 50.8803 546.191 51.5903C546.371 52.9203 545.831 54.7003 544.321 57.6403C543.701 58.7103 543.431 59.9503 543.521 61.2003C543.701 64.2203 545.741 66.5403 548.151 66.4503C550.561 66.3603 552.421 63.7803 552.241 60.7603C552.241 60.3203 552.151 59.8703 552.061 59.4303C551.961 59.1503 551.881 58.8803 551.791 58.7003Z" fill="#FDA84C"/>
<path d="M543.42 61.0202V61.2002C543.6 64.2202 545.64 66.5402 548.05 66.4502C550.45 66.3602 552.23 63.8702 552.14 60.9302C551.78 61.8202 551.16 62.5302 550.36 62.9802C549.56 63.5102 548.76 63.7802 547.78 63.7802C546.89 63.7802 546 63.5102 545.2 63.0702C544.49 62.5302 543.87 61.8202 543.42 61.0202Z" fill="#E58B39"/>
<path d="M154.24 251.36L153.83 247.73C153.83 247.07 153.17 246.49 152.26 246.66L146.65 246.33C146.32 245.18 146.07 244.1 145.74 242.95L149.94 239.57C150.68 239.16 150.76 238.17 150.44 237.67L150.52 233.88C150.27 233.39 147.47 233.47 146.65 233.71L141.62 235.61C140.8 234.79 139.89 233.71 139.15 232.81L141.71 227.7C142.04 227.21 141.88 226.3 141.38 225.97L140.23 223.41C138.25 223.33 136.85 223.58 136.36 224.15L132.57 227.94C131.5 227.28 130.51 226.54 129.35 226.21L130.01 220.6C130.26 219.86 128.28 218.21 127.54 218.04L125.4 218.12C124.82 218.12 124.08 218.45 123.67 218.94L121.36 224.05C120.21 223.72 118.97 223.8 117.73 223.88L117.32 217.28C116.58 217.28 115.26 217.2 114.6 217.28L110.81 217.86C110.23 217.86 109.57 218.52 109.66 219.18L109.58 224.79C108.51 225.12 107.27 225.78 106.2 226.11L104.3 221.16C103.8 221.16 102.16 221.16 101.74 221.16C101.49 221.16 101.24 221.24 100.91 221.41L97.78 223.22C97.04 223.63 96.87 224.37 97.12 224.87L99.18 230.23C98.11 231.14 96.87 231.88 96.21 232.95L93.32 229.82C93.16 229.74 90.93 229.82 90.76 229.82C90.27 229.74 89.77 229.9 89.36 230.4L87.13 233.29C86.8 233.79 86.72 234.86 87.38 235.43L91.17 239.39C90.51 240.46 90.18 241.62 89.52 242.69L86.47 242.03H84C83.34 242.03 82.68 242.53 82.43 243.27L81.52 246.73C81.27 247.47 81.6 248.3 82.26 248.63L87.62 250.69C87.45 252.09 87.29 253.49 87.37 254.73L81.85 256.3C81.19 256.46 80.61 257.04 80.78 257.87L81.19 261.5C81.19 262.16 81.85 262.9 82.67 262.9H88.36C88.69 264.05 88.94 265.04 89.27 266.2L84.9 269.74C84.41 270.15 84.32 271.06 84.65 271.55L86.55 274.85C87.13 275.59 87.62 275.67 88.28 275.67H90.59L93.48 273.61C94.3 274.43 95.21 275.51 95.95 276.41L93.39 281.52C93.06 282.01 93.22 282.92 93.72 283.25L96.69 285.72C98.17 286.71 99.16 286.3 100.73 285.97L102.46 281.77C103.61 282.1 104.6 282.76 105.76 283.09L104.85 288.86C104.85 289.52 105.26 290.26 106.09 290.43L109.63 291.58C110.21 291.66 112.52 291.83 112.85 291.33L113.51 285.39C114.91 285.56 116.15 285.47 117.47 285.64L118.87 291C119.04 291.91 119.78 292.07 120.44 292.07H122.83C123.66 291.9 125.47 290.75 125.47 290.09L125.55 284.48C126.62 284.15 127.78 283.82 128.93 283.16L132.89 288.02C133.39 288.68 135.78 288.76 136.52 288.35L137.51 286.37C138.25 285.96 138.42 285.22 138.01 284.47L135.95 279.11C137.19 278.37 138.01 277.63 138.92 276.39L143.78 279.36C144.28 279.69 147.33 279.86 147.65 279.28L147.98 275.9C148.31 275.4 148.15 274.5 147.9 274L143.94 269.8C144.6 268.73 145.26 267 145.51 265.84L151.28 266.42C151.94 266.42 152.43 266.75 152.6 266.42L153.67 262.55C153.92 261.81 153.42 261.07 152.68 260.82L147.57 258.59C147.74 257.19 148.06 256.03 147.98 254.8L153.09 253.15C153.83 252.84 154.41 252.18 154.24 251.36ZM117.47 266.12C111.12 266.12 105.93 260.84 105.93 254.41C105.93 247.98 111.12 242.7 117.47 242.7C123.82 242.7 129.01 247.98 129.01 254.41C129.02 260.92 123.82 266.12 117.47 266.12Z" fill="#C2C2C2"/>
<path d="M156.88 251.36L156.47 247.73C156.47 247.07 155.73 246.74 154.9 246.66L149.29 246.33C148.96 245.18 148.71 244.1 148.38 242.95L152.58 239.57C153.32 239.16 153.4 238.17 153.07 237.67L151.17 234.21C150.92 233.71 150.43 233.47 149.52 233.63L144.24 235.61C143.41 234.79 142.51 233.71 141.77 232.81L144.33 227.7C144.66 227.21 144.5 226.3 144 225.97L141.12 223.74C140.46 223.16 139.64 223.33 139.22 223.82L135.1 227.86C134.03 227.2 133.04 226.46 131.88 226.13L132.54 220.52C132.79 219.78 132.37 219.04 131.55 218.79L127.92 217.97C127.18 217.8 126.68 218.05 126.35 218.55L123.88 223.91C122.73 223.58 121.49 223.66 120.25 223.74L118.68 218.13C118.43 217.47 117.77 217.06 117.11 217.06L113.32 217.64C112.74 217.64 112.08 218.3 112.17 218.96L112.09 224.57C111.02 224.9 109.78 225.56 108.71 225.89L105.25 221.44C105 220.94 104.18 220.78 103.52 221.19L100.39 223C99.6505 223.41 99.4805 224.15 99.7305 224.65L101.79 230.01C100.72 230.92 99.4805 231.66 98.8205 232.73L93.9605 229.76C93.2205 229.51 92.5605 229.59 91.9805 230.25L89.7505 233.14C89.4205 233.64 89.3405 234.71 90.0005 235.28L93.7905 239.24C93.1305 240.31 92.8005 241.47 92.1405 242.54L86.6205 241.88C85.9605 241.88 85.3005 242.38 85.0505 243.12L84.1405 246.58C83.8905 247.32 84.2205 248.15 84.8805 248.48L90.2405 250.54C90.0805 251.94 89.9105 253.34 89.9905 254.58L84.4705 256.15C83.7305 256.4 83.2305 256.89 83.4005 257.72L83.8105 261.35C83.8105 262.01 84.4705 262.75 85.2905 262.75L90.9805 262.67C91.3105 263.82 91.5605 264.9 91.8905 266.05L87.5205 269.59C86.9405 270.09 86.9405 270.91 87.2705 271.4L89.1705 274.86C89.4205 275.36 90.3205 275.77 91.3105 275.36L96.0905 273.46C96.9105 274.28 97.8205 275.36 98.5605 276.26L96.0005 281.37C95.6705 281.86 95.8305 282.77 96.3305 283.1L99.3005 285.57C99.8005 285.9 100.54 286.07 101.2 285.49L105.07 281.62C106.22 281.95 107.21 282.61 108.37 282.94L107.46 288.71C107.46 289.37 107.87 290.11 108.7 290.28L112.24 291.43C112.9 291.51 113.48 291.26 113.89 290.44L116.12 285.25C117.52 285.42 118.76 285.33 120.08 285.5L121.48 290.86C121.65 291.77 122.39 291.93 123.05 291.93L126.59 291.44C127.41 291.27 128.07 290.61 127.99 289.96L128.07 284.35C129.14 284.02 130.3 283.69 131.45 283.03L134.91 287.48C135.32 288.22 136.06 288.39 136.81 287.98L139.94 286.17C140.68 285.76 140.85 285.02 140.43 284.27L138.37 278.91C139.61 278.17 140.43 277.43 141.34 276.19L146.2 279.16C146.69 279.49 147.6 279.33 147.93 278.83L150.4 275.78C150.73 275.28 150.56 274.38 150.32 273.88L146.36 269.68C147.02 268.61 147.51 267.7 147.84 266.55L153.61 267.13C154.27 267.13 154.93 266.64 155.09 266.31L156.16 262.44C156.41 261.7 155.91 260.96 155.17 260.71L150.06 258.48C150.23 257.08 150.55 255.92 150.47 254.69L155.58 253.04C156.47 252.93 157.05 252.27 156.88 251.36ZM120.11 266.2C113.76 266.2 108.57 260.92 108.57 254.49C108.57 248.06 113.76 242.78 120.11 242.78C126.46 242.78 131.65 248.06 131.65 254.49C131.57 260.92 126.46 266.2 120.11 266.2Z" fill="#939393"/>
<path d="M138.579 237.51L137.669 236.6C137.419 236.27 137.089 236.02 136.759 235.78C132.799 232.15 127.939 229.93 122.579 229.35H122.499C122.169 229.35 121.839 229.27 121.429 229.27H121.259C120.849 229.27 120.439 229.27 120.019 229.27C106.249 229.27 95.1191 240.65 95.1191 254.58C95.1191 254.99 95.1191 255.4 95.1191 255.9V256.15C95.1191 256.48 95.1991 256.81 95.1991 257.22V257.39C95.1991 257.8 95.2791 258.13 95.3691 258.54C96.1091 263.57 98.3391 268.19 101.799 271.98C101.969 272.23 102.209 272.39 102.379 272.64L103.289 273.55C107.909 277.75 113.759 280.06 119.939 280.06C133.709 280.06 144.839 268.68 144.839 254.75C145.009 248.15 142.779 242.21 138.579 237.51ZM97.8491 256.88L98.6791 256.71C98.6791 256.38 98.5991 256.13 98.5991 255.8V255.55C98.5991 255.14 98.5991 254.81 98.5991 254.4C98.5991 242.28 108.249 232.39 120.199 232.39C120.529 232.39 120.939 232.39 121.269 232.39H121.519C121.849 232.39 122.099 232.39 122.429 232.47H122.509C122.839 232.47 123.169 232.55 123.499 232.64C127.699 233.3 131.499 235.2 134.709 238.08C134.959 238.33 135.209 238.57 135.449 238.82C139.489 242.94 141.799 248.47 141.799 254.32C141.799 266.44 132.149 276.33 120.199 276.33C114.509 276.33 109.069 274.02 105.029 269.9C104.539 269.4 104.039 268.83 103.629 268.33C101.159 265.28 99.5091 261.65 98.9291 257.69C98.8491 257.36 98.8491 257.03 98.8491 256.7L97.8491 256.88Z" fill="#C2C2C2"/>
<path d="M345.721 142.15L468.861 92.25" stroke="#E58B39" stroke-width="1.5" stroke-miterlimit="10" stroke-linecap="round" stroke-linejoin="round" stroke-dasharray="3 3"/>
<path d="M361.57 182.95L488.86 222.25" stroke="#939393" stroke-width="1.5" stroke-miterlimit="10" stroke-linecap="round" stroke-linejoin="round" stroke-dasharray="3 3"/>
<path d="M282.129 180.65L147.609 125.5" stroke="#939393" stroke-width="1.5" stroke-miterlimit="10" stroke-linecap="round" stroke-linejoin="round" stroke-dasharray="3 3"/>
<path d="M273.529 216.95L161.109 252" stroke="#409AE1" stroke-width="1.5" stroke-miterlimit="10" stroke-linecap="round" stroke-linejoin="round" stroke-dasharray="3 3"/>
<path d="M138.929 126.56H99.0294C95.9394 126.56 93.4395 124.06 93.4395 120.97V24.9201C93.4395 21.8301 95.9394 19.3301 99.0294 19.3301H138.929C142.019 19.3301 144.519 21.8301 144.519 24.9201V120.97C144.519 124.05 142.009 126.56 138.929 126.56Z" fill="#444444"/>
<path d="M140.339 122H97.6889C96.6889 122 95.8789 121.19 95.8789 120.19V27.3901C95.8789 26.3901 96.6889 25.5801 97.6889 25.5801H140.339C141.339 25.5801 142.149 26.3901 142.149 27.3901V120.19C142.149 121.19 141.339 122 140.339 122Z" fill="#E6E6E6"/>
<path d="M142.15 59.3001V27.3901C142.15 26.3901 141.34 25.5801 140.34 25.5801H108.43L142.15 59.3001Z" fill="url(#paint0_linear)"/>
<defs>
<linearGradient id="paint0_linear" x1="125.291" y1="59.2996" x2="125.291" y2="25.5783" gradientUnits="userSpaceOnUse">
<stop offset="0.0994" stop-color="#E6E6E6"/>
<stop offset="0.9511" stop-color="white"/>
</linearGradient>
</defs>
</svg>
