<svg xmlns="http://www.w3.org/2000/svg" viewBox="0 0 300 300"><title>swimlane-machine-learning-extensible</title><path d="M197.526,284.523H99.82a4.626,4.626,0,0,1-4.525-4.5,4.526,4.526,0,0,1,4.525-4.5h97.706a4.432,4.432,0,0,1,4.525,4.5,4.525,4.525,0,0,1-4.525,4.5Z" fill="#b2b2b2"/><rect x="31.99" y="72.523" width="13" height="18" fill="#ffb900"/><rect x="49.99" y="53.523" width="13" height="37" fill="#ffb900"/><rect x="67.99" y="37.523" width="13" height="53" fill="#ffb900"/><path d="M74.437,69.44a3.467,3.467,0,0,0-2.288.871L59.893,61.954a3.444,3.444,0,0,0,.216-1.174,3.5,3.5,0,0,0-7,0c0,.076.018.146.023.22L42.079,64.648a3.492,3.492,0,1,0,.566,1.9c0-.074-.018-.144-.023-.218l11.053-3.648a3.468,3.468,0,0,0,5.223.73l12.254,8.359a3.493,3.493,0,1,0,3.285-2.328" fill="#e26c41"/><path d="M234.327,163.825a17.506,17.506,0,1,0,0-24.756,17.508,17.508,0,0,0,0,24.756" fill="#69afe5"/><path d="M285.327,183.865l-16.821-16.819a1.038,1.038,0,0,0-1.467,0l-.77.772-3.975-3.975a19.925,19.925,0,1,0-3.191,3.191l3.973,3.975-.771.77a1.039,1.039,0,0,0,0,1.467l16.82,16.82a1.036,1.036,0,0,0,1.467,0l4.735-4.732a1.04,1.04,0,0,0,0-1.469m-49.759-21.279a15.752,15.752,0,1,1,22.277,0,15.75,15.75,0,0,1-22.277,0" fill="#666"/><path d="M243.632,146.1a4.139,4.139,0,1,0,0-5.853,4.139,4.139,0,0,0,0,5.853" fill="#fff"/><path d="M262.305,171.779l2.368-2.367,16.4,16.4a.439.439,0,0,0,.62,0l2.792-2.791.889.889a.971.971,0,0,1,0,1.37l-4.833,4.832a.97.97,0,0,1-1.369,0l-16.869-16.868a1.042,1.042,0,0,1,0-1.469" fill="#3c3c3c"/><path d="M173.607,30.757a8.371,8.371,0,0,0-3.208.637c0-.1.007-.208.007-.313a16.443,16.443,0,0,0-32.357-4.137A12.507,12.507,0,1,0,128.5,47.523h45.109a8.383,8.383,0,1,0,0-16.766" fill="#69afe5"/><path d="M290.429,60.659h-6.724c0-.176.013-.349.013-.525a28.9,28.9,0,1,0-.563,5.687h7.274a2.581,2.581,0,1,0,0-5.162" fill="#fec94e"/><path d="M270.812,60.061a15.949,15.949,0,1,0-27.023,11.472,14.624,14.624,0,0,1,4.372,10.545v.288h13.4v-.287a15.194,15.194,0,0,1,4.564-10.734,15.89,15.89,0,0,0,4.682-11.284" fill="#edac28"/><path d="M252.772,63.446,252.73,62.2h0l-.1-2.873a3.056,3.056,0,1,0-6.112,0v.127a3.046,3.046,0,0,0,1.882,2.822l.081.034a16.529,16.529,0,0,0,3.051.934l.791,23.085,1.231-.043-.783-22.837Zm-3.818-2.277-.081-.034a1.818,1.818,0,0,1-1.123-1.684v-.127a1.823,1.823,0,1,1,3.646.021l.09,2.627a15.259,15.259,0,0,1-2.532-.8" fill="#fff"/><path d="M260.205,56.268h-.052A3.055,3.055,0,0,0,257.1,59.3l-.1,2.9a15.6,15.6,0,0,1-3.38.087l.06,1.239a16.933,16.933,0,0,0,3.277-.077l-.782,22.828,1.232.042.79-23.07.043-1.267.092-2.664a1.825,1.825,0,0,1,1.822-1.824h.052a1.826,1.826,0,0,1,1.824,1.824v.136a1.821,1.821,0,0,1-1.116,1.681,15.439,15.439,0,0,1-1.633.576l-.055,1.3a16.538,16.538,0,0,0,2.166-.736,3.051,3.051,0,0,0,1.87-2.817v-.136a3.06,3.06,0,0,0-3.056-3.056" fill="#fff"/><path d="M248.161,82.079v7.6a2,2,0,0,0,2,2h2.74v1.749h4.085V91.673h2.74a2,2,0,0,0,2-2v-7.6Z" fill="#a6a6a6"/><rect x="248.16" y="84.236" width="10.684" height="1.521" fill="#d2d2d2"/><rect x="248.16" y="87.625" width="10.684" height="1.521" fill="#d2d2d2"/><path d="M229.215,37.512a2.576,2.576,0,0,1-1.826-.756l-3.442-3.442a2.582,2.582,0,0,1,3.652-3.651l3.442,3.442a2.582,2.582,0,0,1-1.826,4.407" fill="#fec94e"/><path d="M171.207,116.872s-2.787-16.847-4.994-27.556-10.221-11.793-14.054-11.793H151.7c-3.833,0-11.847,1.083-14.054,11.793s-4.994,27.556-4.994,27.556l14.353.206-.067.516Z" fill="#282828"/><path d="M213.066,75.665l-5.98.5a2.968,2.968,0,0,0-2.474,1.767l-.567,1.294-12.93,24.549-9.5,6.125,3.562,9.438,12.875-10.25a3.33,3.33,0,0,0,1.049-1.6L207.247,84.8l4.4-1,3.007.2a1.416,1.416,0,0,0,1.309-.685l1.1-1.831a1.416,1.416,0,0,0,.064-1.34l-1.091-2.281,3.055-.15a2.933,2.933,0,0,0,2.721-2.293l.031-.138Z" fill="#bb9167"/><path d="M167.551,218.447a5.67,5.67,0,0,0-11.311-.775l-2.981,52.006c0,1.714,6.287,2.337,6.443.467Z" fill="#bb9167"/><path d="M134.174,218.447a5.7,5.7,0,0,1,5.181-5.931,5.552,5.552,0,0,1,6.13,5.156l2.981,52.006c-.157,1.714-6.287,2.337-6.443.467Z" fill="#bb9167"/><path d="M148.466,218.606l.625,48.89h-9.424l-7.536-47.956-.313-49.813,19.785-4.845C156.8,179.87,148.309,201.422,148.466,218.606Z" fill="#002050"/><polygon points="152.397 267.496 161.508 267.496 170.15 218.447 169.356 164.882 151.134 164.882 153.802 218.759 152.397 267.496" fill="#002050"/><path d="M149.091,273.119l.156,4.688c-.156,1.247-1.08,1.634-2.668,1.87-6.727,1-19.855,1.1-19.855,1.1-2.6.024-2.329-1.908-.917-2.354a63.232,63.232,0,0,0,6.44-2.2C136.657,275.968,149.091,273.119,149.091,273.119Z" fill="#252829"/><path d="M148.466,269.366c0,1.4.625,3.13.468,3.753,0,1.247-14.631,3.592-14.631,3.592-1.164.2-2.931-.208-1.981-.52,4.087-1.4,9.857-5.266,9.545-6.825Z" fill="#bb9167"/><path d="M152.65,273.119l-.156,4.688c.156,1.247,1.08,1.634,2.668,1.87,6.726,1,19.855,1.1,19.855,1.1,2.6.024,2.328-1.908.916-2.354a63.428,63.428,0,0,1-6.44-2.2C165.084,275.968,152.65,273.119,152.65,273.119Z" fill="#252829"/><path d="M153.275,269.366c0,1.4-.625,3.13-.469,3.753,0,1.247,14.631,3.592,14.631,3.592,1.164.2,2.932-.208,1.982-.52-4.087-1.4-9.858-5.266-9.545-6.825Z" fill="#bb9167"/><path d="M124.99,183.461l-5.458-32.094a3.813,3.813,0,0,1,.044-1.677l2.289-9.042,9.312,2.063-2.055,8.463a1.962,1.962,0,0,0-.051.582L130.99,181.9Z" fill="#bb9167"/><polygon points="121.865 141.586 131.094 144.211 130.49 146.398 121.281 143.669 121.865 141.586" fill="#ab845f"/><path d="M156.852,105.922c0,1.722.393,8.607.393,8.607,2.042.374,5.2,1.041,5.2,1.041,10.059,3.081.635,12.032-11.972,11.683-13.124-.362-12.732-11.469-11.985-11.605l6.585-1.209c.311-2.12.629-8.672.629-8.672Z" fill="#bb9167"/><path d="M138.676,92.275h0a1.529,1.529,0,0,0-1.529,1.53v2.561A2.637,2.637,0,0,0,139.784,99h.422v-5.2A1.53,1.53,0,0,0,138.676,92.275Z" fill="#ab845f"/><path d="M152.276,80.842h-1.451A10.994,10.994,0,0,0,139.863,91.8v6.975a11,11,0,0,0,7.378,10.345l9.435-.317a11,11,0,0,0,6.563-10.028V91.8A11,11,0,0,0,152.276,80.842Z" fill="#bb9167"/><path d="M147.24,109.124l-.03.768h0l.4,2.618c.8,2.127,6.055,5.974,13.256,8.762l2.666-5.615s-4.358-.785-6.289-1.128c-.143-2.878-.292-5.846-.3-5.844A10.527,10.527,0,0,0,163.227,99h.089a2.637,2.637,0,0,0,2.638-2.637V93.805a1.523,1.523,0,0,0-2.715-.955V91.8a10.737,10.737,0,0,0-.057-1.1,1.41,1.41,0,0,0-.287-.392l-9.094-6.9-.965,3.011a12.487,12.487,0,0,0,4.856,6.395,10.141,10.141,0,0,0-2.382.479l-.4.134a1.733,1.733,0,0,0-1.18,1.733l.224,4.353c.043.827-.456.963-1.167.96a.764.764,0,0,0-.748.912l.524,2.692-.66.729a5.081,5.081,0,0,0-1.08,4.926h0A10.851,10.851,0,0,1,147.24,109.124Z" fill="#ab845f"/><circle cx="145.565" cy="95.64" r="1.126" fill="#282828"/><circle cx="157.248" cy="95.64" r="1.126" fill="#282828"/><path d="M147.414,102.169a4.468,4.468,0,0,0,8.167,0Z" fill="#fff"/><path d="M160.012,94.505a.545.545,0,0,1-.418-.193h0a3.7,3.7,0,0,0-4.829-.506.549.549,0,1,1-.56-.945,4.829,4.829,0,0,1,6.226.74.549.549,0,0,1-.065.774A.542.542,0,0,1,160.012,94.505Z" fill="#282828"/><path d="M148.049,94.505a.545.545,0,0,1-.418-.193h0a3.7,3.7,0,0,0-4.829-.506.549.549,0,1,1-.56-.945,4.829,4.829,0,0,1,6.226.74.549.549,0,0,1-.065.774A.542.542,0,0,1,148.049,94.505Z" fill="#282828"/><path d="M184.99,106.648c-6,3.375-10.9,6.406-14.25,7.75a15.887,15.887,0,0,1-5.969,1.172c-.609-.015-1.406-.093-1.406-.093s-2.2,11.407-12.047,11.54c-9.851-.133-12.078-11.494-12.078-11.494s-3.625.5-7,1.051-4.5,1.824-5.735,5.6-6.315,19.092-6.315,19.092l10.3,3,1.281,35.672.43.047-.013.111s14.677,1.67,19.114,1.67c5,0,17.953-1.528,19.062-1.66l.063,0v-.012l.021,0-.013-.106v-.009c.036-.026.115-1.044.22-2.8l3.52-44.911a2.938,2.938,0,0,1,.994-1.943L191.865,116.4S187.927,111.336,184.99,106.648Z" fill="#0078d7"/><path d="M132.8,185.093l.387,2.153a1.552,1.552,0,0,0,1.527,1.277h.213v-3.89a2.449,2.449,0,0,0-.931-1.922l-2.012-1.591a2.3,2.3,0,0,1-.859-1.518l-.413-3.2-6.345.779-.288,9.871a4.014,4.014,0,0,0,2.025,3.605l1.85,1.054.863,1.55,2.607,2.569a1.862,1.862,0,0,0,.31-2.593l-.349-.45,2.262,2.228a1.863,1.863,0,0,0,.309-2.594l-1.338-1.728-.215-1.182-.6-4.641Z" fill="#bb9167"/><path d="M152.508,78.719a11.966,11.966,0,0,0-12.595,11.7c-.009.424-.011.865-.018,1.295h5.763c.869-2.156,4-8.866,4-8.866v8.866h14.131l.05-.638A11.969,11.969,0,0,0,152.508,78.719Z" fill="#282828"/><path d="M76.1,135.624H18.907a1.893,1.893,0,0,0-1.892,1.893v36.392H77.99V137.517c0-1.045-.444-1.893-1.489-1.893" fill="#1070c4"/><rect x="19.99" y="138.624" width="55" height="32.9" fill="#edac28"/><path d="M84.958,177.523l-75.633-.14a2.335,2.335,0,0,1-2.335-2.336v-1.524h81v1.524a2.832,2.832,0,0,1-3,2.476Z" fill="#09538f"/><path d="M38.158,155.154l-13.2-4.334a13.614,13.614,0,0,1,13.2-9.532Z" fill="#fff"/><path d="M38.158,155.154l-8.175,11.2a13.19,13.19,0,0,1-5.028-6.936Z" fill="#b2b2b2"/><path d="M38.158,155.154,51.3,159.421a13.947,13.947,0,0,1-17.49,8.934,12.361,12.361,0,0,1-3.823-2Z" fill="#09538f"/><path d="M38.158,155.154V141.288a13.821,13.821,0,0,1,13.807,13.866,13.27,13.27,0,0,1-.669,4.267Z" fill="#1070c4"/><polygon points="74.99 154.288 74.99 138.523 59.225 138.523 74.99 154.288" fill="#fec94e"/><path d="M47.85,137.126a.646.646,0,1,1-.646-.646.646.646,0,0,1,.646.646" fill="#09538f"/><path d="M69.008,148.826H68.7l1,1a.717.717,0,0,0,.049-.258.743.743,0,0,0-.743-.743" fill="#edac28"/><rect x="55.99" y="165.523" width="14" height="2" fill="#c58d1f"/><rect x="55.99" y="161.523" width="14" height="2" fill="#c58d1f"/><rect x="55.99" y="157.523" width="14" height="2" fill="#c58d1f"/><rect x="55.99" y="153.523" width="14" height="2" fill="#c58d1f"/><rect x="55.99" y="149.523" width="14" height="2" fill="#c58d1f"/><rect x="55.99" y="145.523" width="14" height="2" fill="#c58d1f"/><rect x="55.99" y="141.523" width="14" height="2" fill="#c58d1f"/><polygon points="68.225 147.523 69.99 147.523 69.99 145.523 66.225 145.523 68.225 147.523" fill="#edac28"/><polygon points="64.225 143.523 69.99 143.523 69.99 141.523 62.225 141.523 64.225 143.523" fill="#edac28"/></svg>