<svg xmlns="http://www.w3.org/2000/svg" viewBox="0 0 636 300"><title>swimlane-dotnet-compatible-with-other-tools</title><path d="M525.5,62.885V74.1a2.407,2.407,0,0,1-2.4,2.4H496.9a2.407,2.407,0,0,1-2.4-2.4V62.9a2.407,2.407,0,0,1,2.4-2.4h26.3A2.48,2.48,0,0,1,525.5,62.885Z" fill="#737373"/><path d="M567.5,64.5h-111v109h111Z" fill="#939393"/><path d="M454.1,166.6l.8,2.1c.1.6-.3,1-.9,1.4l-5,2.5a14.219,14.219,0,0,1-3.3,1.1l-3,.6c-1.6.3-1.2-.7-.9-.9a28.277,28.277,0,0,0,5.7-3.5C449.2,168.5,454.1,166.6,454.1,166.6Z" fill="#787878"/><path d="M453.2,164.8c.1.7.8,1.3.9,1.8.3.6-7.4,4.4-7.4,4.4-.1.2-1.4.4-1,0,1.7-1.2,4.8-4.2,4.4-5.2Z" fill="#bb9167"/><path d="M464.3,169.1l.5,2.2c0,.6-.4.9-1.1,1.2l-5.3,1.5a14.084,14.084,0,0,1-3.5.5h-3.1c-1.6,0-1-.9-.7-1a33.463,33.463,0,0,0,6.4-2.4C459.3,170,464.3,169.1,464.3,169.1Z" fill="#787878"/><path d="M463.8,166.7c0,.7.6,1.5.6,1.9.2.6-8.1,3-8.1,3-.1.1-1.4.2-1-.1,1.9-.9,5.5-3.3,5.3-4.3Z" fill="#bb9167"/><path d="M501.5,47.5v15h4v-15Z" fill="#737373"/><path d="M515.5,47.5v15h4v-15Z" fill="#737373"/><path d="M443.3,141.1c.3.9,6.1,26.1,6.1,26.1l4.3-1.8-2-24.8,4.8-14.4s-.4,16,.6,20.5,2.9,20.8,3.4,20.9,3.5-.1,3.5-.1,1.5-15.4,1.5-18.8a62.119,62.119,0,0,0-.9-8.5s3.1-21.1.8-26-16.5,1.9-16.5,1.9S442.3,138.2,443.3,141.1Z" fill="#505050"/><path d="M42.9,285.5H204.4a3.059,3.059,0,0,0,2.9-3,2.925,2.925,0,0,0-2.9-3H42.9a3,3,0,0,0,0,6Z" fill="#c8c8c8"/><path d="M232.9,285.5H571.4a3.059,3.059,0,0,0,2.9-3,2.925,2.925,0,0,0-2.9-3H232.9a3,3,0,0,0,0,6Z" fill="#c8c8c8"/><path d="M315,117.4a23.936,23.936,0,0,0,1.3-2.4c.1-.4,2.8-1.4,3.3-1.5.5-.2,1,.6,1,.6s1-.4,1.3.1,1.1,2.1.9,2.8c-.3.8-5.1,3.3-5.1,3.3Z" fill="#a68463"/><path d="M304.6,131.3c1.1.9,2.9,1,7.1-3.4,1.7-1.8,6.6-7.5,6.6-7.5l-3.3-3.2-11.3,10.7C303.7,127.7,303.9,130.8,304.6,131.3Z" fill="#939393"/><path d="M437.4,90.2l-13.9,4.1,1.6,5.7,14.3-1.9Z" fill="#787878"/><path d="M386.5,184.115V172.9a2.407,2.407,0,0,1,2.4-2.4h26.2a2.407,2.407,0,0,1,2.4,2.4v11.2a2.407,2.407,0,0,1-2.4,2.4H388.892A2.491,2.491,0,0,1,386.5,184.115Z" fill="#0078d7"/><path d="M401.3,144.578l-6.18-13.448-3.18,1.462,6.18,13.447Z" fill="#ffb900"/><path d="M388.5,150.375l-6.181-13.448-3.18,1.462,6.181,13.447Z" fill="#ffb900"/><path d="M373.2,141l-4.7-10.2a2.348,2.348,0,0,1,1.2-3.1l23.9-11a2.348,2.348,0,0,1,3.1,1.2l4.7,10.2a2.348,2.348,0,0,1-1.2,3.1l-23.9,11A2.348,2.348,0,0,1,373.2,141Z" fill="#ffb900"/><path d="M388.939,8.029,289.993,53.506l46.145,100.4,98.946-45.476Z" fill="#ffb900"/><path d="M219.5,219.5h-15v4h15Z" fill="#6e62b2"/><path d="M219.5,233.5h-15v4h15Z" fill="#6e62b2"/><path d="M204.016,243.5H192.9a2.407,2.407,0,0,1-2.4-2.4V214.9a2.407,2.407,0,0,1,2.4-2.4h11.2a2.407,2.407,0,0,1,2.4,2.4v26.208A2.582,2.582,0,0,1,204.016,243.5Z" fill="#6e62b2"/><path d="M246.016,243.5H234.9a2.407,2.407,0,0,1-2.4-2.4V214.9a2.407,2.407,0,0,1,2.4-2.4h11.2a2.407,2.407,0,0,1,2.4,2.4v26.208A2.582,2.582,0,0,1,246.016,243.5Z" fill="#737373"/><path d="M97.4,193.5c2-2.2,2.4-2.9,2.8-5.4.4-1.6.1-2.1-.5-1.5.8-1.5.1-2.7-.4-1.8a.691.691,0,0,0-.7-.9c-.4-.1-.5.6-.4,1-.4-.3-1.1-.3-1.3.9-.3,1-.6,1.1-.6,1.1-.1-.9-.6-1.4-1.1-1,0,1.2-.6,2.9-.8,4.4.1.3,0,.5.1.8l-3.4,6,3.8.2Z" fill="#38a138"/><path d="M97.1,195.3,93,192.9l-.7,1.2,4,2.5Z" fill="#e6e6e6"/><path d="M88.6,204.6a2.833,2.833,0,0,0-3.9.8,2.98,2.98,0,0,0,.6,4.1,2.913,2.913,0,0,0,4.1-.8A3.039,3.039,0,0,0,88.6,204.6Z" fill="#0d520d"/><path d="M96.3,196.6l-6.9,12.2-4.7-3.3,7.2-11.6Z" fill="#787878"/><path d="M56.3,279c.8,1.4.5,1.3.5,2.7l2.1.4c-.1-.9.3-1.5,1.7-.6Z" fill="#787878"/><path d="M200.5,173.5H89.5v109h111Z" fill="#9080cf"/><path d="M457.5,173.5h-111v109h111Z" fill="#4393d4"/><path d="M346.5,173.5h-111v109h111Z" fill="#939393"/><path d="M567.5,173.5h-111v109h111Z" fill="#d63c18"/><path d="M55,281c1,1.2.7,1.2,1.1,2.5h2c-.1-.9.2-1.5,1.6-.9Z" fill="#0d520d"/><path d="M57.2,276.6l-.8,2.1c-.1.6.3,1,.9,1.4l5,2.5a14.219,14.219,0,0,0,3.3,1.1l3,.6c1.6.3,1.2-.7.9-.9a28.277,28.277,0,0,1-5.7-3.5C62.2,278.5,57.2,276.6,57.2,276.6Z" fill="#787878"/><path d="M58.2,274.8c-.1.7-.8,1.3-.9,1.8-.3.6,7.4,4.4,7.4,4.4.1.2,1.4.4,1,0-1.7-1.2-4.8-4.2-4.4-5.2Z" fill="#d8b094"/><path d="M46.6,281c1,1.2.7,1.2,1,2.5h2.2c-.3-.9,0-1.5,1.6-.9Z" fill="#787878"/><path d="M47,278.1l-.5,2.2c0,.6.4.9,1.1,1.2l5.3,1.5a14.084,14.084,0,0,0,3.5.5h3.1c1.6,0,1-.9.7-1a33.463,33.463,0,0,1-6.4-2.4C52,279.1,47,278.1,47,278.1Z" fill="#787878"/><path d="M47.6,276c0,.7-.6,1.5-.6,1.9-.2.6,8.1,3,8.1,3,.1.1,1.4.2,1-.1-1.9-.9-5.5-3.3-5.3-4.3Z" fill="#d8b094"/><path d="M69.4,249.4a2.892,2.892,0,0,1-1.7,3.7,3.043,3.043,0,0,1-3.7-1.9l-9.3-22.3a4.706,4.706,0,0,1,3-5.9,4.605,4.605,0,0,1,5.9,2.8Z" fill="#d8b094"/><path d="M47.4,277.1c0,.9,3,1.2,3.2.3l4.2-26.3a2.768,2.768,0,0,0-2.6-3.1,2.821,2.821,0,0,0-3.1,2.6C47.7,258.6,48.8,266.3,47.4,277.1Z" fill="#d8b094"/><path d="M57.8,275.8c-.2.9,2.9,1.8,3.1.9l8.9-25.1a2.693,2.693,0,0,0-2-3.5,2.926,2.926,0,0,0-3.5,2C61.5,257.7,61.2,265.5,57.8,275.8Z" fill="#d8b094"/><path d="M54.7,250.7a3.134,3.134,0,0,1-2.6,3.1,2.971,2.971,0,0,1-3-2.8l-2.7-24c0-2.7,1.9-4.9,4.5-4.8a4.668,4.668,0,0,1,4.9,4.3Z" fill="#d8b094"/><path d="M57.6,249.8l12.5-2.4-6.3-22.2-8.7,2.4Z" fill="#787878"/><path d="M46.3,248.5l11.6,1-2.2-24-9.2-.1Z" fill="#787878"/><path d="M56.1,228.7l-10.9-4.4,6.6-9.7,5.1-14.9,3.1-2.4,7.7-1.4L57.5,226.3Z" fill="#787878"/><path d="M56.6,228.8l10.3,4.4-.3-12.5,7.7-12.6.4-7.4L68,196,57.2,226.3Z" fill="#787878"/><path d="M84.2,206.4a2.888,2.888,0,1,0,5.6,1.4,2.76,2.76,0,0,0-2-3.5A3.1,3.1,0,0,0,84.2,206.4Z" fill="#787878"/><path d="M72,207.9a3.991,3.991,0,1,0-2.8-4.8A3.825,3.825,0,0,0,72,207.9Z" fill="#787878"/><path d="M73.9,200.2l13.9,4.1L86.3,210,72,208.1Z" fill="#787878"/><path d="M72.6,193l-5.8-1.9-2.1,5.4s-2.5,7.1-.2,7.9c2.4.7,5.3-5.7,5.3-5.7Z" fill="#d8b094"/><path d="M68.4,190.6c-1.5,2.8-.9,4.8,2.6,5.8l1.7-3.4Z" fill="#bf8e6d"/><path d="M75.3,191.2c1.6,0,1.2-.6,1.1-.8-.1-.3-1.3-2.5-1.2-2.9,0-.1-.1-.3,0-.5a3.135,3.135,0,0,1-2.5-.6,3.664,3.664,0,0,0-1.3,1.7,4.592,4.592,0,0,0-.1,1c-.1.6-.7,0-.7,0a5.931,5.931,0,0,0-1.1-1c-.7.3-.8,1.9-.8,2.5a.693.693,0,0,1,0,.5s-.3,2.4-1.7,2.5c1.8,1.7,4.6,1.9,5.9,2.1,1.4.2,1.4-.4,1.4-.4A11.2,11.2,0,0,1,75.3,191.2Z" fill="#d8b094"/><path d="M71.5,185.2v1.5a3.268,3.268,0,0,0,0,1.4,4.225,4.225,0,0,1,1.3-1.7A3.586,3.586,0,0,1,71.5,185.2Z" fill="#bf8e6d"/><path d="M69.3,188.1c-.4-.2-.7-.2-.9.1a2.376,2.376,0,0,0-.1,1.5c.1.3.1.6.2,1C68.5,190,68.7,188.4,69.3,188.1Z" fill="#bf8e6d"/><path d="M68.6,191s-.3,2.2-1.7,2.5h-.1a7.2,7.2,0,0,1-3.9-3.6c-.2.1-.5,0-.7,0a3.848,3.848,0,0,1-3.4-4.5,4.115,4.115,0,0,1,4.5-3.6c.3.1.6.1.7.2a10.961,10.961,0,0,1,2.1-1.4,8.381,8.381,0,0,1,3-.8,6.42,6.42,0,0,1,4.6,1.9,2.7,2.7,0,0,1,2.5,2.9,3.17,3.17,0,0,1-1.2,2.5,3.135,3.135,0,0,1-2.5-.6,3.834,3.834,0,0,1-1.2-1.2l-.2,3.9c-.1.6-.7,0-.7,0a5.931,5.931,0,0,0-1.1-1c-.4-.2-.7-.2-.9.1a2.376,2.376,0,0,0-.1,1.5c.1.3.1.6.2,1C68.6,190.8,68.6,191,68.6,191Z" fill="#505050"/><path d="M73.3,188.8c.1,0,.1,0,.2.2,0-.1.2-.1.2-.3a.4.4,0,0,0-.3-.5c-.3-.1-.5,0-.5.3a1.007,1.007,0,0,1-.1.3C73.1,188.7,73.2,188.7,73.3,188.8Z"/><path d="M65.6,201.9,58.8,222l6.9-13.5,3.5-5.4-.3-4.9-.6,1.2Z" fill="#b2b2b2"/><path d="M65.5,194.6l-1.1,1.2-3.2,5.3,4.9-3.2Z" fill="#787878"/><path d="M68.9,198.2l1.8-1.4.1,1.7-1.7,5Z" fill="#787878"/><path d="M73,192.6l.8.4a.629.629,0,0,0,.6,0,1.007,1.007,0,0,1,.3.1c.1,0,.1,0,.1.2,0,0,0,.1-.2.1l-.3-.1a.914.914,0,0,1-.5-.3A2.663,2.663,0,0,1,73,192.6Z" fill="#8a0000"/><path d="M73,192.6l.8.4a1.014,1.014,0,0,0,.8.2l.1.2c0,.1,0,.1-.2.1a2.5,2.5,0,0,1-.8-.4C73.4,192.9,73,192.6,73,192.6Z" fill="#8a0000"/><path d="M65.9,232.5l-9.3-3.7.6-2.5-1.1,2.4-9.7-3.8-.2,1L66.6,235Z" fill="#505050"/><path d="M74.1,200.7a2.791,2.791,0,0,1,2.7-3.1,3.046,3.046,0,0,1,3,2.9,2.816,2.816,0,0,1-2.8,2.9A2.619,2.619,0,0,1,74.1,200.7Z" fill="#0d520d"/><path d="M60.3,197.2a3.946,3.946,0,0,1,4.1,3.9,4,4,0,1,1-4.1-3.9Z" fill="#787878"/><path d="M60.6,205.2,77,203.4l-.2-5.8-16.5-.4Z" fill="#787878"/><path d="M89.3,192.6a9.941,9.941,0,0,0,4.6-3.6c.9-1.2.7-1.8.1-1.5,1.2-.8,1-2.2.3-1.6.2-.3.5-.8,0-1.1-.2-.2-.7.4-.9.7-.2-.4-.8-.5-1.3.3a3.863,3.863,0,0,1-1.2,1.1c.3-1,.1-1.5-.4-1.3-.5.9-1.7,2-2.3,3.2-.1.3-.2.4-.3.7L83,193.1l3,1.7Z" fill="#d8b094"/><path d="M87.5,189.4l2.8,3.9-1.2.9-2.7-3.8Z" fill="#b2b2b2"/><path d="M79.1,198.6a3.09,3.09,0,0,1-.3,4.2,2.874,2.874,0,0,1-4.1-.4,2.91,2.91,0,0,1,4.4-3.8Z" fill="#787878"/><path d="M86.3,190.2l-11.2,8.1,3.7,4.5,10.6-8.5Z" fill="#787878"/><path d="M455.1,169c-.8,1.4-.5,1.3-.5,2.7l-2.1.4c.1-.9-.3-1.5-1.7-.6Z" fill="#787878"/><path d="M464.7,171c-1,1.2-.7,1.2-1,2.5h-2.2c.3-.9,0-1.5-1.6-.9Z" fill="#787878"/><path d="M455.3,118.7l10.8-4.4-6.5-9.7-5.1-14.9-3.1-2.4-7.7-1.4,10.1,30.4Z" fill="#787878"/><path d="M454.7,118.8l-8,3.7-1.9-11.8L437,98.1l-.3-7.4,6.7-4.7,10.7,30.3Z" fill="#787878"/><path d="M439.4,97.9a3.991,3.991,0,1,1,2.8-4.8A3.885,3.885,0,0,1,439.4,97.9Z" fill="#787878"/><path d="M438.8,83l5.8-1.9,2.1,5.4s2.5,7.1.2,7.9c-2.4.7-5.3-5.7-5.3-5.7Z" fill="#bb9167"/><path d="M443,80.6c1.5,2.8.9,4.8-2.6,5.8L438.7,83Z" fill="#aa7b50"/><path d="M436.1,81.2c-1.6,0-1.2-.6-1.1-.8.1-.3,1.3-2.5,1.2-2.9,0-.1.1-.3,0-.5a3.135,3.135,0,0,0,2.5-.6,3.664,3.664,0,0,1,1.3,1.7,4.592,4.592,0,0,1,.1,1c.1.6.7,0,.7,0a5.931,5.931,0,0,1,1.1-1c.7.3.8,1.9.8,2.5a.693.693,0,0,0,0,.5s.3,2.4,1.7,2.5c-1.8,1.7-4.6,1.9-5.9,2.1-1.4.2-1.4-.4-1.4-.4C437,84.3,436.5,81.6,436.1,81.2Z" fill="#bb9167"/><path d="M440.5,75.2v1.5a3.268,3.268,0,0,1,0,1.4,4.225,4.225,0,0,0-1.3-1.7A3.586,3.586,0,0,0,440.5,75.2Z" fill="#aa7b50"/><path d="M442,78.1c.4-.2.7-.2.9.1a2.376,2.376,0,0,1,.1,1.5c-.1.3-.1.6-.2,1C442.8,80,442.7,78.4,442,78.1Z" fill="#aa7b50"/><path d="M442.8,81s.3,2.2,1.7,2.5h.1c1.6-.6,6.4-7.2.1-11.1-1.5-.9-5.9-2-7.1-.8a2.7,2.7,0,0,0-2.5,2.9,3.17,3.17,0,0,0,1.2,2.5,3.135,3.135,0,0,0,2.5-.6,3.834,3.834,0,0,0,1.2-1.2l.2,3.9c.1.6.7,0,.7,0a5.931,5.931,0,0,1,1.1-1c.4-.2.7-.2.9.1a2.376,2.376,0,0,1,.1,1.5c-.1.3-.1.6-.2,1C442.7,80.8,442.8,81,442.8,81Z" fill="#3c3c3c"/><path d="M438,78.8c-.1,0-.1,0-.2.2,0-.1-.2-.1-.2-.3a.4.4,0,0,1,.3-.5c.3-.1.5,0,.5.3a1.007,1.007,0,0,0,.1.3A.454.454,0,0,0,438,78.8Z"/><path d="M445.8,91.9l6.8,20.1-7-13.5-3.4-5.4.3-4.9.6,1.2Z" fill="#505050"/><path d="M445.8,91.9l6.8,20.1-2.4-14.2-.6-7.2L445.5,87l.4,1.1Z" fill="#b9b9b9"/><path d="M445.9,84.6l1.1,1.2,3.2,5.3-5-3Z" fill="#787878"/><path d="M442.4,88.2l-1.9-1.4v1.7l1.7,5Z" fill="#787878"/><path d="M438.4,82.6l-.8.4a.629.629,0,0,1-.6,0,1.007,1.007,0,0,0-.3.1c-.1,0-.1,0-.1.2,0,0,0,.1.2.1l.3-.1a.914.914,0,0,0,.5-.3A2.663,2.663,0,0,0,438.4,82.6Z" fill="#8a0000"/><path d="M438.4,82.6l-.8.4a1.014,1.014,0,0,1-.8.2l-.1.2c0,.1,0,.1.2.1a2.5,2.5,0,0,0,.8-.4C438,82.9,438.4,82.6,438.4,82.6Z" fill="#8a0000"/><path d="M437.3,90.7a2.791,2.791,0,0,0-2.7-3.1,3.046,3.046,0,0,0-3,2.9,2.816,2.816,0,0,0,2.8,2.9A2.668,2.668,0,0,0,437.3,90.7Z" fill="#0d520d"/><path d="M451,87.2a3.946,3.946,0,0,0-4.1,3.9,4,4,0,1,0,8,.3A4.032,4.032,0,0,0,451,87.2Z" fill="#787878"/><path d="M450.9,95.2l-16.4-1.8.1-5.8,16.5-.4Z" fill="#787878"/><path d="M422.1,82.6a9.941,9.941,0,0,1-4.6-3.6c-.9-1.2-.7-1.8-.1-1.5-1.2-.8-1-2.2-.3-1.6-.2-.3-.5-.8,0-1.1.2-.2.7.4.9.7.2-.4.8-.5,1.3.3a3.863,3.863,0,0,0,1.2,1.1c-.3-1-.1-1.5.4-1.3.5.9,1.7,2,2.3,3.2.1.3.2.4.3.7l4.9,3.6-3,1.7Z" fill="#bb9167"/><path d="M423.8,79.3l-2.7,3.8,1.1,1,2.7-3.9Z" fill="#b9b9b9"/><path d="M432.3,88.6a3.09,3.09,0,0,0,.3,4.2,2.874,2.874,0,0,0,4.1-.4,2.91,2.91,0,0,0-4.4-3.8Z" fill="#787878"/><path d="M425.1,80.2l11.1,8.1-3.6,4.5-10.7-8.5Z" fill="#787878"/><path d="M440.4,77.2l-5.5-.1s-1.6-5.5,4.2-6.6c6-1.1,9.2,3.5,10.5,8.5,1.7,6.5-4.6,7.3-4.6,7.3s1.8-.6.1-2.2-.2-2.9-.1-5.6.9-4.5-1.5-4.5-3.2.7-3.2.7" fill="#3c3c3c"/><path d="M304.5,106.2c2.9-2.3,4.9-2.7,5.9-2.8.7-.1.6,1.1-2.4,3.3C305.7,108.4,304.5,106.2,304.5,106.2Z" fill="#939393"/><path d="M300.4,121.6s.6.5,1.3-3c.5-2.2,5.4-1.2,5.1.7-.7,3.8.5,4.1.5,4.1l-3.3,4.3Z" fill="#a68463"/><path d="M304.91,120.039c3.142-.62,4.961-4.813,4.062-9.364s-4.176-7.737-7.318-7.116-4.961,4.813-4.062,9.364S301.767,120.66,304.91,120.039Z" fill="#a68463"/><path d="M305.7,110.8l1.2.9a5.923,5.923,0,0,0-.9-4.9c-3.1-.4-9.5-1.6-9.6,3.3a10.179,10.179,0,0,0,1.5,5.4,19.825,19.825,0,0,0,3.7,4.9s5.7-.6,5.6-6.4c-.9.3-1.4.1-1.9-1.3C304.6,110.7,305.7,110.8,305.7,110.8Z"/><path d="M325,136.2s1.6-1.8,1.9-2.2c.2-.4,3.2-1,3.8-1.1s.9.8.9.8,1.2-.2,1.4.3.8,2.2.4,2.9-6.1,2.5-6.1,2.5Z" fill="#a68463"/><path d="M307.8,106.8a69.47,69.47,0,0,1-11,6.5,6.661,6.661,0,0,1,1.9-9.4c1.7-1.2,4.2-2.5,4.7-2.1A15.744,15.744,0,0,1,307.8,106.8Z" fill="#adadad"/><path d="M314.7,126.5c-.2-1.4-.6-2.5-2.8-2.9-1.4-.3-5.3-1-5.3-1s-.2,1.1-2.8.7c-2.6-.5-3-1.5-3.4-1.9a14.926,14.926,0,0,0-4.6-.5c-6.4.1-5.8,27.5-5.8,27.5l18.2,2.1,2.3-12.2C310.5,138.4,314.9,127.7,314.7,126.5Z" fill="#adadad"/><path d="M313.6,144.3c.8,1.1,2.3,1.7,5.4.1,2.2-1.2,8.7-5,8.7-5l-2-4.1-8.5,4s-1.9-9.8-2.3-12.8c-1-6.4-7.2,3.9-4.2,12C312.3,143,313.1,143.6,313.6,144.3Z" fill="#939393"/><path d="M320.8,153.3c-1.2-.3-12.7-2.7-12.7-2.7l-18.3-2.5s-1.1,5.4,1.3,8.8c1.9,2.8,7.2,9.9,7.2,9.9l-12.6-.7-1.6,5.4s11.1,1.4,16.7,2.3c4.3.7,6.6-1.4,5.6-5.9-.4-1.8-1.1-4.9-2-8.7,4.9.4,12.1.6,12.1.6l-6.7,9.6,5.5,1s5.9-6.5,8.6-9.5C326.4,158.1,324.6,154.3,320.8,153.3Z" fill="#787878"/><path d="M310.5,168.8s-1.8,2.4-2.8,3.5-.9,3.2,1.7,3.2h11s1.4-2.4-.5-3.1c-.5-.2-6.2-3.1-6.2-3.1Z" fill="#505050"/><path d="M285.2,168.2s1.1-1.5,0-2.6c-.8-.8-2.8-1.6-3.5-.6-1.5,2.1-7.5,9-7.5,9s1.3,1.9,3,.9c.5-.3,6.7-3.3,6.7-3.3Z" fill="#505050"/><path d="M384.706,89.211l-5.852-.6a1.209,1.209,0,0,1-.992-.8,18.279,18.279,0,0,0-1.587-4.083,1.047,1.047,0,0,1,.1-1.195l3.57-4.482a1.091,1.091,0,0,0-.1-1.494l-2.976-2.988a1.194,1.194,0,0,0-1.487-.1l-4.365,3.485a1.215,1.215,0,0,1-1.289.1,16.892,16.892,0,0,0-3.869-1.693,1.21,1.21,0,0,1-.793-1l-.6-5.876a1.083,1.083,0,0,0-1.091-1h-4.266a1.021,1.021,0,0,0-1.091,1l-.6,5.677a1.168,1.168,0,0,1-.893,1,16.178,16.178,0,0,0-4.265,1.792,1.213,1.213,0,0,1-1.289-.1l-4.265-3.486a1.081,1.081,0,0,0-1.488.1l-2.976,2.987a1.207,1.207,0,0,0-.1,1.494l3.472,4.382a1.065,1.065,0,0,1,.1,1.2,15.784,15.784,0,0,0-1.587,4.282.968.968,0,0,1-.992.8l-5.654.6a1.085,1.085,0,0,0-.992,1.1v4.282a1.022,1.022,0,0,0,.992,1.1l6.051.7a1.141,1.141,0,0,1,.991.8,18.266,18.266,0,0,0,1.389,3.187,1.049,1.049,0,0,1-.1,1.2l-3.571,4.482a1.091,1.091,0,0,0,.1,1.494l2.976,2.987a1.2,1.2,0,0,0,1.488.1l4.364-3.585a1.217,1.217,0,0,1,1.29-.1,17.1,17.1,0,0,0,3.67,1.594,1.071,1.071,0,0,1,.793,1l.695,5.976a1.082,1.082,0,0,0,1.091,1h4.265a1.021,1.021,0,0,0,1.091-1l.6-5.876a.955.955,0,0,1,.794-.9,16.672,16.672,0,0,0,4.066-1.693,1.036,1.036,0,0,1,1.191.1l4.463,3.586a1.082,1.082,0,0,0,1.488-.1l2.976-2.988a1.207,1.207,0,0,0,.1-1.494l-3.67-4.581a1.227,1.227,0,0,1-.1-1.3c.5-1,.892-1.992,1.289-2.988a1.2,1.2,0,0,1,.992-.8l6.249-.7a1.083,1.083,0,0,0,.992-1.1V90.406A.85.85,0,0,0,384.706,89.211ZM360.8,100.8a9,9,0,1,1,9-9A9.026,9.026,0,0,1,360.8,100.8Z" fill="#ff8c00"/><path d="M380.907,54.025l-2.864-.3a.656.656,0,0,1-.494-.393,6.841,6.841,0,0,0-.79-1.967.461.461,0,0,1,.1-.59l1.778-2.164a.476.476,0,0,0,0-.689l-1.482-1.475a.478.478,0,0,0-.691,0l-2.173,1.672c-.2.1-.4.2-.592,0a6.356,6.356,0,0,0-1.877-.787.652.652,0,0,1-.4-.492l-.3-2.852a.553.553,0,0,0-.593-.492h-2.074a.627.627,0,0,0-.593.492l-.3,2.754a.654.654,0,0,1-.4.492,6.6,6.6,0,0,0-2.074.885.635.635,0,0,1-.593,0l-2.074-1.672a.478.478,0,0,0-.691,0l-1.482,1.475a.476.476,0,0,0,0,.689l1.778,2.164c.1.2.2.393,0,.59a8.885,8.885,0,0,0-.79,2.065.656.656,0,0,1-.494.394l-2.765.295a.552.552,0,0,0-.494.59v2.066a.625.625,0,0,0,.494.59l2.963.3a.658.658,0,0,1,.494.393,7.572,7.572,0,0,0,.691,1.574.461.461,0,0,1-.1.59l-1.778,2.164a.476.476,0,0,0,0,.689l1.482,1.475a.478.478,0,0,0,.691,0l2.173-1.77c.2-.1.395-.2.593,0a14.064,14.064,0,0,0,1.777.787c.2.1.4.2.4.491l.3,2.951a.552.552,0,0,0,.592.492h2.074a.626.626,0,0,0,.593-.492l.3-2.852a.654.654,0,0,1,.395-.492,9.436,9.436,0,0,0,2.075-.885.465.465,0,0,1,.592.1l2.173,1.771a.48.48,0,0,0,.691,0l1.482-1.476a.474.474,0,0,0,0-.688l-1.778-2.263c-.1-.2-.2-.393,0-.59a4.638,4.638,0,0,0,.593-1.475.654.654,0,0,1,.493-.394l3.062-.3a.552.552,0,0,0,.494-.59V54.812C381.4,54.221,381.2,54.025,380.907,54.025ZM369.3,59.7a4.4,4.4,0,0,1,0-8.8,4.4,4.4,0,0,1,0,8.8Z" fill="#ff8c00"/><path d="M387.65,287.5,352.165,165.7l2.492-1.2h1.794l35.784,123Z" fill="#adadad"/><path d="M386,287.5,350.5,165.3l4.2-1.2,35.9,123.4Z" fill="#787878"/><path d="M391.491,284.5l.931,3h-6.517l-.827-3Z" fill="#939393"/><path d="M340.5,182.5h16.6a1.5,1.5,0,0,0,0-3H340.5Z" fill="#adadad"/><path d="M358.9,181.5a1.274,1.274,0,0,1-1.4,1h-16v-1Z" fill="#505050"/><path d="M348.5,212.5h16.6a1.5,1.5,0,0,0,0-3H348.5Z" fill="#adadad"/><path d="M366.9,211.5a1.274,1.274,0,0,1-1.4,1h-16v-1Z" fill="#505050"/><path d="M344.5,197.5h16.6a1.5,1.5,0,0,0,0-3H344.5Z" fill="#adadad"/><path d="M362.9,196.5a1.274,1.274,0,0,1-1.4,1h-16v-1Z" fill="#505050"/><path d="M353.5,227.5h16.6a1.5,1.5,0,0,0,0-3H353.5Z" fill="#adadad"/><path d="M371.9,226.5a1.274,1.274,0,0,1-1.4,1h-16v-1Z" fill="#505050"/><path d="M358.5,243.5h16.6a1.5,1.5,0,0,0,0-3H358.5Z" fill="#adadad"/><path d="M376.9,242.5a1.274,1.274,0,0,1-1.4,1h-16v-1Z" fill="#505050"/><path d="M366.5,273.5h16.6a1.5,1.5,0,0,0,0-3H366.5Z" fill="#adadad"/><path d="M384.9,272.5a1.274,1.274,0,0,1-1.4,1h-16v-1Z" fill="#505050"/><path d="M362.5,258.5h16.6a1.5,1.5,0,0,0,0-3H362.5Z" fill="#adadad"/><path d="M380.9,257.5a1.274,1.274,0,0,1-1.4,1h-16v-1Z" fill="#505050"/><path d="M372.45,287.5,337.065,165.7l2.293-1.2h1.893l35.784,123Z" fill="#adadad"/><path d="M370.8,287.5,335.3,165.3l4.2-1.2,35.9,123.4Z" fill="#787878"/><path d="M376.191,284.5l.931,3h-6.517l-.827-3Z" fill="#939393"/><path d="M108.769,241.353a1.893,1.893,0,0,1-1.389-.58,1.995,1.995,0,0,1,0-2.778,1.868,1.868,0,0,1,1.389-.6,1.976,1.976,0,0,1,1.406,3.375A1.915,1.915,0,0,1,108.769,241.353Zm27.731.147h-3.843L119.5,220.75V241.5h-3v-26h3.751L133.5,236.188V215.5h3Zm20,0h-14v-26h13v3h-9v8h8v3h-8v9h10Zm18-23h-6v23h-4v-23h-6v-3h16Z" fill="#fff"/><path d="M288.4,223.2a10.8,10.8,0,1,1,10.8-10.8A10.819,10.819,0,0,1,288.4,223.2Zm0-18a7.1,7.1,0,1,0,7.1,7.1A7.127,7.127,0,0,0,288.4,205.2Z" fill="#bababa"/><path d="M290.5,198.5h-4v15h4Z" fill="#787878"/><path d="M288.5,242.134a2,2,0,0,1-2-2V226.766a2,2,0,1,1,4,0v13.368A2.149,2.149,0,0,1,288.5,242.134Z" fill="#787878"/><path d="M310.6,259.3l-2.1-4.4,1.1-.7,2.2,4.4Z" fill="#787878"/><path d="M308.5,232.5h-40v2h40Z" fill="#787878"/><path d="M280.3,218.1,265.1,259l1.7.3,7.3-8.5,11.5-29.3Z" fill="#bababa"/><path d="M295.6,218.4l15.7,37.2-3.3,1.2-5.1-5.9L291.1,222Z" fill="#bababa"/><path d="M516.1,100.3a10.734,10.734,0,0,0-2.3,11.5L490,135.7a3.8,3.8,0,0,0,0,5.4l.6.7c1.5,1.5,4,.9,5.5-.7l23.8-23c3.8.8,8.5,0,11.5-3.1,3.1-2.3,3.8-6.9,2.3-10.8l-7.7,7.7-4.6-1.5-1.5-4.6,7.7-7.7A10.7,10.7,0,0,0,516.1,100.3Zm-24.6,36.1c1.8-1.3,3.1-.8,3.8,0a2.55,2.55,0,0,1,0,3.1c-.8,1.2-2.6,1.1-3.8,0A2.3,2.3,0,0,1,491.5,136.4Z" fill="#787878"/><path d="M532.6,138.4l-2.3,2.3c-1.5,1.5-3.8,1.5-4.6,0l-15.8-14.8c-1.5-1.5-1.9-3.9-.3-5.2L498.8,110l-3.8-.8-5.4-8.4,3.1-2.3,7.7,5.4,1.5,3.8,10.4,10.2a3.8,3.8,0,0,1,4.2-.2l16.1,16.1C534.2,135.3,534.2,137.6,532.6,138.4Z" fill="#bababa"/><path d="M497.5,199.7v45.8h43.3Zm8,17.3L526,238.5H505.5Z" fill="#a80000"/><path d="M483.873,254.5H487.5v-6h-3.824a1.267,1.267,0,0,0-1.176,1.309v3.164A1.49,1.49,0,0,0,483.873,254.5Z" fill="#a80000"/><path d="M524.5,248.5h-35v6h35Z" fill="#a80000"/><path d="M526.714,248.5H526.5v6h.214l6.643-3.214Z" fill="#a80000"/></svg>