<svg xmlns="http://www.w3.org/2000/svg" viewBox="0 0 636 300"><title>swimlane-dotnet-speed-bar-chart</title><path d="M122.165,202H592.937a4.614,4.614,0,0,1,4.614,4.614V246.77a4.23,4.23,0,0,1-4.23,4.23H122.165a4.614,4.614,0,0,1-4.614-4.614V206.614A4.614,4.614,0,0,1,122.165,202Z" fill="#e6e6e6"/><path d="M121.551,202h336.77a4.23,4.23,0,0,1,4.23,4.23v40.538A4.232,4.232,0,0,1,458.319,251H121.784a4.232,4.232,0,0,1-4.232-4.232V206a4,4,0,0,1,4-4Z" fill="#ee8f94"/><line x1="128.551" y1="251" x2="128.551" y2="244" fill="none" stroke="#b8b8b8" stroke-miterlimit="10" stroke-width="1.842"/><line x1="137.551" y1="251" x2="137.551" y2="244" fill="none" stroke="#b8b8b8" stroke-miterlimit="10" stroke-width="1.842"/><line x1="147.551" y1="251" x2="147.551" y2="244" fill="none" stroke="#b8b8b8" stroke-miterlimit="10" stroke-width="1.842"/><line x1="156.551" y1="251" x2="156.551" y2="244" fill="none" stroke="#b8b8b8" stroke-miterlimit="10" stroke-width="1.842"/><line x1="165.551" y1="251" x2="165.551" y2="244" fill="none" stroke="#b8b8b8" stroke-miterlimit="10" stroke-width="1.842"/><line x1="175.551" y1="251" x2="175.551" y2="244" fill="none" stroke="#b8b8b8" stroke-miterlimit="10" stroke-width="1.842"/><line x1="184.551" y1="251" x2="184.551" y2="244" fill="none" stroke="#b8b8b8" stroke-miterlimit="10" stroke-width="1.842"/><line x1="193.551" y1="251" x2="193.551" y2="244" fill="none" stroke="#b8b8b8" stroke-miterlimit="10" stroke-width="1.842"/><line x1="203.551" y1="251" x2="203.551" y2="244" fill="none" stroke="#b8b8b8" stroke-miterlimit="10" stroke-width="1.842"/><line x1="212.551" y1="251" x2="212.551" y2="244" fill="none" stroke="#b8b8b8" stroke-miterlimit="10" stroke-width="1.842"/><line x1="221.551" y1="251" x2="221.551" y2="244" fill="none" stroke="#b8b8b8" stroke-miterlimit="10" stroke-width="1.842"/><line x1="231.551" y1="251" x2="231.551" y2="244" fill="none" stroke="#b8b8b8" stroke-miterlimit="10" stroke-width="1.842"/><line x1="240.551" y1="251" x2="240.551" y2="244" fill="none" stroke="#b8b8b8" stroke-miterlimit="10" stroke-width="1.842"/><line x1="249.551" y1="251" x2="249.551" y2="244" fill="none" stroke="#b8b8b8" stroke-miterlimit="10" stroke-width="1.842"/><line x1="259.551" y1="251" x2="259.551" y2="244" fill="none" stroke="#b8b8b8" stroke-miterlimit="10" stroke-width="1.842"/><line x1="268.551" y1="251" x2="268.551" y2="244" fill="none" stroke="#b8b8b8" stroke-miterlimit="10" stroke-width="1.842"/><line x1="277.551" y1="251" x2="277.551" y2="244" fill="none" stroke="#b8b8b8" stroke-miterlimit="10" stroke-width="1.842"/><line x1="287.551" y1="251" x2="287.551" y2="244" fill="none" stroke="#b8b8b8" stroke-miterlimit="10" stroke-width="1.842"/><line x1="296.551" y1="251" x2="296.551" y2="244" fill="none" stroke="#b8b8b8" stroke-miterlimit="10" stroke-width="1.842"/><line x1="305.551" y1="251" x2="305.551" y2="244" fill="none" stroke="#b8b8b8" stroke-miterlimit="10" stroke-width="1.842"/><line x1="315.551" y1="251" x2="315.551" y2="244" fill="none" stroke="#b8b8b8" stroke-miterlimit="10" stroke-width="1.842"/><line x1="324.551" y1="251" x2="324.551" y2="244" fill="none" stroke="#b8b8b8" stroke-miterlimit="10" stroke-width="1.842"/><line x1="334.551" y1="251" x2="334.551" y2="244" fill="none" stroke="#b8b8b8" stroke-miterlimit="10" stroke-width="1.842"/><line x1="343.551" y1="251" x2="343.551" y2="244" fill="none" stroke="#b8b8b8" stroke-miterlimit="10" stroke-width="1.842"/><line x1="352.551" y1="251" x2="352.551" y2="244" fill="none" stroke="#b8b8b8" stroke-miterlimit="10" stroke-width="1.842"/><line x1="362.551" y1="251" x2="362.551" y2="244" fill="none" stroke="#b8b8b8" stroke-miterlimit="10" stroke-width="1.842"/><line x1="371.551" y1="251" x2="371.551" y2="244" fill="none" stroke="#b8b8b8" stroke-miterlimit="10" stroke-width="1.842"/><line x1="380.551" y1="251" x2="380.551" y2="244" fill="none" stroke="#b8b8b8" stroke-miterlimit="10" stroke-width="1.842"/><line x1="390.551" y1="251" x2="390.551" y2="244" fill="none" stroke="#b8b8b8" stroke-miterlimit="10" stroke-width="1.842"/><line x1="399.551" y1="251" x2="399.551" y2="244" fill="none" stroke="#b8b8b8" stroke-miterlimit="10" stroke-width="1.842"/><line x1="408.551" y1="251" x2="408.551" y2="244" fill="none" stroke="#b8b8b8" stroke-miterlimit="10" stroke-width="1.842"/><line x1="418.551" y1="251" x2="418.551" y2="244" fill="none" stroke="#b8b8b8" stroke-miterlimit="10" stroke-width="1.842"/><line x1="427.551" y1="251" x2="427.551" y2="244" fill="none" stroke="#b8b8b8" stroke-miterlimit="10" stroke-width="1.842"/><line x1="436.551" y1="251" x2="436.551" y2="244" fill="none" stroke="#b8b8b8" stroke-miterlimit="10" stroke-width="1.842"/><line x1="446.551" y1="251" x2="446.551" y2="244" fill="none" stroke="#b8b8b8" stroke-miterlimit="10" stroke-width="1.842"/><line x1="455.551" y1="251" x2="455.551" y2="244" fill="none" stroke="#b8b8b8" stroke-miterlimit="10" stroke-width="1.842"/><line x1="464.551" y1="251" x2="464.551" y2="244" fill="none" stroke="#b8b8b8" stroke-miterlimit="10" stroke-width="1.842"/><line x1="474.551" y1="251" x2="474.551" y2="244" fill="none" stroke="#b8b8b8" stroke-miterlimit="10" stroke-width="1.842"/><line x1="483.551" y1="251" x2="483.551" y2="244" fill="none" stroke="#b8b8b8" stroke-miterlimit="10" stroke-width="1.842"/><line x1="492.551" y1="251" x2="492.551" y2="244" fill="none" stroke="#b8b8b8" stroke-miterlimit="10" stroke-width="1.842"/><line x1="502.551" y1="251" x2="502.551" y2="244" fill="none" stroke="#b8b8b8" stroke-miterlimit="10" stroke-width="1.842"/><line x1="511.551" y1="251" x2="511.551" y2="244" fill="none" stroke="#b8b8b8" stroke-miterlimit="10" stroke-width="1.842"/><line x1="521.551" y1="251" x2="521.551" y2="244" fill="none" stroke="#b8b8b8" stroke-miterlimit="10" stroke-width="1.842"/><line x1="530.551" y1="251" x2="530.551" y2="244" fill="none" stroke="#b8b8b8" stroke-miterlimit="10" stroke-width="1.842"/><line x1="539.551" y1="251" x2="539.551" y2="244" fill="none" stroke="#b8b8b8" stroke-miterlimit="10" stroke-width="1.842"/><line x1="549.551" y1="251" x2="549.551" y2="244" fill="none" stroke="#b8b8b8" stroke-miterlimit="10" stroke-width="1.842"/><line x1="558.551" y1="251" x2="558.551" y2="244" fill="none" stroke="#b8b8b8" stroke-miterlimit="10" stroke-width="1.842"/><line x1="567.551" y1="251" x2="567.551" y2="244" fill="none" stroke="#b8b8b8" stroke-miterlimit="10" stroke-width="1.842"/><line x1="577.551" y1="251" x2="577.551" y2="244" fill="none" stroke="#b8b8b8" stroke-miterlimit="10" stroke-width="1.842"/><line x1="586.551" y1="251" x2="586.551" y2="244" fill="none" stroke="#b8b8b8" stroke-miterlimit="10" stroke-width="1.842"/><path d="M119.363,205H594.88a4.643,4.643,0,0,1,2.588.786A4.608,4.608,0,0,0,592.937,202H121.947a4.034,4.034,0,0,0-4.375,3.3A4.333,4.333,0,0,1,119.363,205Z" opacity="0.2"/><path d="M122.165,132H592.937a4.614,4.614,0,0,1,4.614,4.614V176.77a4.23,4.23,0,0,1-4.23,4.23H122.165a4.614,4.614,0,0,1-4.614-4.614V136.614A4.614,4.614,0,0,1,122.165,132Z" fill="#e6e6e6"/><path d="M121.551,132h386.77a4.23,4.23,0,0,1,4.23,4.23v40.538A4.232,4.232,0,0,1,508.319,181H121.784a4.232,4.232,0,0,1-4.232-4.232V136A4,4,0,0,1,121.551,132Z" fill="#f7b548"/><line x1="128.551" y1="181" x2="128.551" y2="174" fill="none" stroke="#b8b8b8" stroke-miterlimit="10" stroke-width="1.842"/><line x1="137.551" y1="181" x2="137.551" y2="174" fill="none" stroke="#b8b8b8" stroke-miterlimit="10" stroke-width="1.842"/><line x1="147.551" y1="181" x2="147.551" y2="174" fill="none" stroke="#b8b8b8" stroke-miterlimit="10" stroke-width="1.842"/><line x1="156.551" y1="181" x2="156.551" y2="174" fill="none" stroke="#b8b8b8" stroke-miterlimit="10" stroke-width="1.842"/><line x1="165.551" y1="181" x2="165.551" y2="174" fill="none" stroke="#b8b8b8" stroke-miterlimit="10" stroke-width="1.842"/><line x1="175.551" y1="181" x2="175.551" y2="174" fill="none" stroke="#b8b8b8" stroke-miterlimit="10" stroke-width="1.842"/><line x1="184.551" y1="181" x2="184.551" y2="174" fill="none" stroke="#b8b8b8" stroke-miterlimit="10" stroke-width="1.842"/><line x1="193.551" y1="181" x2="193.551" y2="174" fill="none" stroke="#b8b8b8" stroke-miterlimit="10" stroke-width="1.842"/><line x1="203.551" y1="181" x2="203.551" y2="174" fill="none" stroke="#b8b8b8" stroke-miterlimit="10" stroke-width="1.842"/><line x1="212.551" y1="181" x2="212.551" y2="174" fill="none" stroke="#b8b8b8" stroke-miterlimit="10" stroke-width="1.842"/><line x1="221.551" y1="181" x2="221.551" y2="174" fill="none" stroke="#b8b8b8" stroke-miterlimit="10" stroke-width="1.842"/><line x1="231.551" y1="181" x2="231.551" y2="174" fill="none" stroke="#b8b8b8" stroke-miterlimit="10" stroke-width="1.842"/><line x1="240.551" y1="181" x2="240.551" y2="174" fill="none" stroke="#b8b8b8" stroke-miterlimit="10" stroke-width="1.842"/><line x1="249.551" y1="181" x2="249.551" y2="174" fill="none" stroke="#b8b8b8" stroke-miterlimit="10" stroke-width="1.842"/><line x1="259.551" y1="181" x2="259.551" y2="174" fill="none" stroke="#b8b8b8" stroke-miterlimit="10" stroke-width="1.842"/><line x1="268.551" y1="181" x2="268.551" y2="174" fill="none" stroke="#b8b8b8" stroke-miterlimit="10" stroke-width="1.842"/><line x1="277.551" y1="181" x2="277.551" y2="174" fill="none" stroke="#b8b8b8" stroke-miterlimit="10" stroke-width="1.842"/><line x1="287.551" y1="181" x2="287.551" y2="174" fill="none" stroke="#b8b8b8" stroke-miterlimit="10" stroke-width="1.842"/><line x1="296.551" y1="181" x2="296.551" y2="174" fill="none" stroke="#b8b8b8" stroke-miterlimit="10" stroke-width="1.842"/><line x1="305.551" y1="181" x2="305.551" y2="174" fill="none" stroke="#b8b8b8" stroke-miterlimit="10" stroke-width="1.842"/><line x1="315.551" y1="181" x2="315.551" y2="174" fill="none" stroke="#b8b8b8" stroke-miterlimit="10" stroke-width="1.842"/><line x1="324.551" y1="181" x2="324.551" y2="174" fill="none" stroke="#b8b8b8" stroke-miterlimit="10" stroke-width="1.842"/><line x1="334.551" y1="181" x2="334.551" y2="174" fill="none" stroke="#b8b8b8" stroke-miterlimit="10" stroke-width="1.842"/><line x1="343.551" y1="181" x2="343.551" y2="174" fill="none" stroke="#b8b8b8" stroke-miterlimit="10" stroke-width="1.842"/><line x1="352.551" y1="181" x2="352.551" y2="174" fill="none" stroke="#b8b8b8" stroke-miterlimit="10" stroke-width="1.842"/><line x1="362.551" y1="181" x2="362.551" y2="174" fill="none" stroke="#b8b8b8" stroke-miterlimit="10" stroke-width="1.842"/><line x1="371.551" y1="181" x2="371.551" y2="174" fill="none" stroke="#b8b8b8" stroke-miterlimit="10" stroke-width="1.842"/><line x1="380.551" y1="181" x2="380.551" y2="174" fill="none" stroke="#b8b8b8" stroke-miterlimit="10" stroke-width="1.842"/><line x1="390.551" y1="181" x2="390.551" y2="174" fill="none" stroke="#b8b8b8" stroke-miterlimit="10" stroke-width="1.842"/><line x1="399.551" y1="181" x2="399.551" y2="174" fill="none" stroke="#b8b8b8" stroke-miterlimit="10" stroke-width="1.842"/><line x1="408.551" y1="181" x2="408.551" y2="174" fill="none" stroke="#b8b8b8" stroke-miterlimit="10" stroke-width="1.842"/><line x1="418.551" y1="181" x2="418.551" y2="174" fill="none" stroke="#b8b8b8" stroke-miterlimit="10" stroke-width="1.842"/><line x1="427.551" y1="181" x2="427.551" y2="174" fill="none" stroke="#b8b8b8" stroke-miterlimit="10" stroke-width="1.842"/><line x1="436.551" y1="181" x2="436.551" y2="174" fill="none" stroke="#b8b8b8" stroke-miterlimit="10" stroke-width="1.842"/><line x1="446.551" y1="181" x2="446.551" y2="174" fill="none" stroke="#b8b8b8" stroke-miterlimit="10" stroke-width="1.842"/><line x1="455.551" y1="181" x2="455.551" y2="174" fill="none" stroke="#b8b8b8" stroke-miterlimit="10" stroke-width="1.842"/><line x1="464.551" y1="181" x2="464.551" y2="174" fill="none" stroke="#b8b8b8" stroke-miterlimit="10" stroke-width="1.842"/><line x1="474.551" y1="181" x2="474.551" y2="174" fill="none" stroke="#b8b8b8" stroke-miterlimit="10" stroke-width="1.842"/><line x1="483.551" y1="181" x2="483.551" y2="174" fill="none" stroke="#b8b8b8" stroke-miterlimit="10" stroke-width="1.842"/><line x1="492.551" y1="181" x2="492.551" y2="174" fill="none" stroke="#b8b8b8" stroke-miterlimit="10" stroke-width="1.842"/><line x1="502.551" y1="181" x2="502.551" y2="174" fill="none" stroke="#b8b8b8" stroke-miterlimit="10" stroke-width="1.842"/><line x1="511.551" y1="181" x2="511.551" y2="174" fill="none" stroke="#b8b8b8" stroke-miterlimit="10" stroke-width="1.842"/><line x1="521.551" y1="181" x2="521.551" y2="174" fill="none" stroke="#b8b8b8" stroke-miterlimit="10" stroke-width="1.842"/><line x1="530.551" y1="181" x2="530.551" y2="174" fill="none" stroke="#b8b8b8" stroke-miterlimit="10" stroke-width="1.842"/><line x1="539.551" y1="181" x2="539.551" y2="174" fill="none" stroke="#b8b8b8" stroke-miterlimit="10" stroke-width="1.842"/><line x1="549.551" y1="181" x2="549.551" y2="174" fill="none" stroke="#b8b8b8" stroke-miterlimit="10" stroke-width="1.842"/><line x1="558.551" y1="181" x2="558.551" y2="174" fill="none" stroke="#b8b8b8" stroke-miterlimit="10" stroke-width="1.842"/><line x1="567.551" y1="181" x2="567.551" y2="174" fill="none" stroke="#b8b8b8" stroke-miterlimit="10" stroke-width="1.842"/><line x1="577.551" y1="181" x2="577.551" y2="174" fill="none" stroke="#b8b8b8" stroke-miterlimit="10" stroke-width="1.842"/><line x1="586.551" y1="181" x2="586.551" y2="174" fill="none" stroke="#b8b8b8" stroke-miterlimit="10" stroke-width="1.842"/><path d="M119.363,135H594.88a4.643,4.643,0,0,1,2.588.786A4.608,4.608,0,0,0,592.937,132H121.989c-2.089,0-3.834.729-4.375,3.3A4.517,4.517,0,0,1,119.363,135Z" opacity="0.2"/><path d="M122.165,62H592.937a4.614,4.614,0,0,1,4.614,4.614V106.77a4.23,4.23,0,0,1-4.23,4.23H122.165a4.614,4.614,0,0,1-4.614-4.614V66.614A4.614,4.614,0,0,1,122.165,62Z" fill="#e6e6e6"/><path d="M121.551,62h366.77a4.23,4.23,0,0,1,4.23,4.23v40.538A4.232,4.232,0,0,1,488.319,111H121.784a4.232,4.232,0,0,1-4.232-4.232V66A4,4,0,0,1,121.551,62Z" fill="#958fe7"/><line x1="128.551" y1="111" x2="128.551" y2="104" fill="none" stroke="#b8b8b8" stroke-miterlimit="10" stroke-width="1.842"/><line x1="137.551" y1="111" x2="137.551" y2="104" fill="none" stroke="#b8b8b8" stroke-miterlimit="10" stroke-width="1.842"/><line x1="147.551" y1="111" x2="147.551" y2="104" fill="none" stroke="#b8b8b8" stroke-miterlimit="10" stroke-width="1.842"/><line x1="156.551" y1="111" x2="156.551" y2="104" fill="none" stroke="#b8b8b8" stroke-miterlimit="10" stroke-width="1.842"/><line x1="165.551" y1="111" x2="165.551" y2="104" fill="none" stroke="#b8b8b8" stroke-miterlimit="10" stroke-width="1.842"/><line x1="175.551" y1="111" x2="175.551" y2="104" fill="none" stroke="#b8b8b8" stroke-miterlimit="10" stroke-width="1.842"/><line x1="184.551" y1="111" x2="184.551" y2="104" fill="none" stroke="#b8b8b8" stroke-miterlimit="10" stroke-width="1.842"/><line x1="193.551" y1="111" x2="193.551" y2="104" fill="none" stroke="#b8b8b8" stroke-miterlimit="10" stroke-width="1.842"/><line x1="203.551" y1="111" x2="203.551" y2="104" fill="none" stroke="#b8b8b8" stroke-miterlimit="10" stroke-width="1.842"/><line x1="212.551" y1="111" x2="212.551" y2="104" fill="none" stroke="#b8b8b8" stroke-miterlimit="10" stroke-width="1.842"/><line x1="221.551" y1="111" x2="221.551" y2="104" fill="none" stroke="#b8b8b8" stroke-miterlimit="10" stroke-width="1.842"/><line x1="231.551" y1="111" x2="231.551" y2="104" fill="none" stroke="#b8b8b8" stroke-miterlimit="10" stroke-width="1.842"/><line x1="240.551" y1="111" x2="240.551" y2="104" fill="none" stroke="#b8b8b8" stroke-miterlimit="10" stroke-width="1.842"/><line x1="249.551" y1="111" x2="249.551" y2="104" fill="none" stroke="#b8b8b8" stroke-miterlimit="10" stroke-width="1.842"/><line x1="259.551" y1="111" x2="259.551" y2="104" fill="none" stroke="#b8b8b8" stroke-miterlimit="10" stroke-width="1.842"/><line x1="268.551" y1="111" x2="268.551" y2="104" fill="none" stroke="#b8b8b8" stroke-miterlimit="10" stroke-width="1.842"/><line x1="277.551" y1="111" x2="277.551" y2="104" fill="none" stroke="#b8b8b8" stroke-miterlimit="10" stroke-width="1.842"/><line x1="287.551" y1="111" x2="287.551" y2="104" fill="none" stroke="#b8b8b8" stroke-miterlimit="10" stroke-width="1.842"/><line x1="296.551" y1="111" x2="296.551" y2="104" fill="none" stroke="#b8b8b8" stroke-miterlimit="10" stroke-width="1.842"/><line x1="305.551" y1="111" x2="305.551" y2="104" fill="none" stroke="#b8b8b8" stroke-miterlimit="10" stroke-width="1.842"/><line x1="315.551" y1="111" x2="315.551" y2="104" fill="none" stroke="#b8b8b8" stroke-miterlimit="10" stroke-width="1.842"/><line x1="324.551" y1="111" x2="324.551" y2="104" fill="none" stroke="#b8b8b8" stroke-miterlimit="10" stroke-width="1.842"/><line x1="334.551" y1="111" x2="334.551" y2="104" fill="none" stroke="#b8b8b8" stroke-miterlimit="10" stroke-width="1.842"/><line x1="343.551" y1="111" x2="343.551" y2="104" fill="none" stroke="#b8b8b8" stroke-miterlimit="10" stroke-width="1.842"/><line x1="352.551" y1="111" x2="352.551" y2="104" fill="none" stroke="#b8b8b8" stroke-miterlimit="10" stroke-width="1.842"/><line x1="362.551" y1="111" x2="362.551" y2="104" fill="none" stroke="#b8b8b8" stroke-miterlimit="10" stroke-width="1.842"/><line x1="371.551" y1="111" x2="371.551" y2="104" fill="none" stroke="#b8b8b8" stroke-miterlimit="10" stroke-width="1.842"/><line x1="380.551" y1="111" x2="380.551" y2="104" fill="none" stroke="#b8b8b8" stroke-miterlimit="10" stroke-width="1.842"/><line x1="390.551" y1="111" x2="390.551" y2="104" fill="none" stroke="#b8b8b8" stroke-miterlimit="10" stroke-width="1.842"/><line x1="399.551" y1="111" x2="399.551" y2="104" fill="none" stroke="#b8b8b8" stroke-miterlimit="10" stroke-width="1.842"/><line x1="408.551" y1="111" x2="408.551" y2="104" fill="none" stroke="#b8b8b8" stroke-miterlimit="10" stroke-width="1.842"/><line x1="418.551" y1="111" x2="418.551" y2="104" fill="none" stroke="#b8b8b8" stroke-miterlimit="10" stroke-width="1.842"/><line x1="427.551" y1="111" x2="427.551" y2="104" fill="none" stroke="#b8b8b8" stroke-miterlimit="10" stroke-width="1.842"/><line x1="436.551" y1="111" x2="436.551" y2="104" fill="none" stroke="#b8b8b8" stroke-miterlimit="10" stroke-width="1.842"/><line x1="446.551" y1="111" x2="446.551" y2="104" fill="none" stroke="#b8b8b8" stroke-miterlimit="10" stroke-width="1.842"/><line x1="455.551" y1="111" x2="455.551" y2="104" fill="none" stroke="#b8b8b8" stroke-miterlimit="10" stroke-width="1.842"/><line x1="464.551" y1="111" x2="464.551" y2="104" fill="none" stroke="#b8b8b8" stroke-miterlimit="10" stroke-width="1.842"/><line x1="474.551" y1="111" x2="474.551" y2="104" fill="none" stroke="#b8b8b8" stroke-miterlimit="10" stroke-width="1.842"/><line x1="483.551" y1="111" x2="483.551" y2="104" fill="none" stroke="#b8b8b8" stroke-miterlimit="10" stroke-width="1.842"/><line x1="492.551" y1="111" x2="492.551" y2="104" fill="none" stroke="#b8b8b8" stroke-miterlimit="10" stroke-width="1.842"/><line x1="502.551" y1="111" x2="502.551" y2="104" fill="none" stroke="#b8b8b8" stroke-miterlimit="10" stroke-width="1.842"/><line x1="511.551" y1="111" x2="511.551" y2="104" fill="none" stroke="#b8b8b8" stroke-miterlimit="10" stroke-width="1.842"/><line x1="521.551" y1="111" x2="521.551" y2="104" fill="none" stroke="#b8b8b8" stroke-miterlimit="10" stroke-width="1.842"/><line x1="530.551" y1="111" x2="530.551" y2="104" fill="none" stroke="#b8b8b8" stroke-miterlimit="10" stroke-width="1.842"/><line x1="539.551" y1="111" x2="539.551" y2="104" fill="none" stroke="#b8b8b8" stroke-miterlimit="10" stroke-width="1.842"/><line x1="549.551" y1="111" x2="549.551" y2="104" fill="none" stroke="#b8b8b8" stroke-miterlimit="10" stroke-width="1.842"/><line x1="558.551" y1="111" x2="558.551" y2="104" fill="none" stroke="#b8b8b8" stroke-miterlimit="10" stroke-width="1.842"/><line x1="567.551" y1="111" x2="567.551" y2="104" fill="none" stroke="#b8b8b8" stroke-miterlimit="10" stroke-width="1.842"/><line x1="577.551" y1="111" x2="577.551" y2="104" fill="none" stroke="#b8b8b8" stroke-miterlimit="10" stroke-width="1.842"/><line x1="586.551" y1="111" x2="586.551" y2="104" fill="none" stroke="#b8b8b8" stroke-miterlimit="10" stroke-width="1.842"/><path d="M119.363,65H594.88a4.643,4.643,0,0,1,2.588.786A4.608,4.608,0,0,0,592.937,62H122.165c-2.239-.083-4.01.792-4.551,3.25A5.476,5.476,0,0,1,119.363,65Z" opacity="0.2"/><path d="M259.908,78.753V87.8h2.08v1.885h-2.08v3.076h-2.2V89.681h-6.338V87.776q.861-.966,1.764-2.094t1.738-2.305q.835-1.176,1.547-2.358a21.193,21.193,0,0,0,1.2-2.266Zm-2.2,9.043V81.917a32.185,32.185,0,0,1-2.1,3.34q-1.04,1.425-1.949,2.539Z"/><path d="M267.789,92.991a3.908,3.908,0,0,1-3.412-1.787,9.1,9.1,0,0,1-1.227-5.166,10.111,10.111,0,0,1,1.28-5.615,4.175,4.175,0,0,1,3.691-1.9q4.62,0,4.619,7.177a9.451,9.451,0,0,1-1.3,5.425A4.2,4.2,0,0,1,267.789,92.991Zm.225-12.666q-2.55,0-2.549,5.615,0,5.255,2.5,5.254,2.46,0,2.461-5.341Q270.426,80.326,268.014,80.325Z"/><path d="M283.893,88.255a5.172,5.172,0,0,1-.346,1.924,4.548,4.548,0,0,1-.963,1.5,4.286,4.286,0,0,1-1.459.976,4.766,4.766,0,0,1-1.832.347,4.549,4.549,0,0,1-1.938-.41,4.161,4.161,0,0,1-1.523-1.221,5.839,5.839,0,0,1-.992-2.016,10.008,10.008,0,0,1-.352-2.8,11.681,11.681,0,0,1,.465-3.448,7.586,7.586,0,0,1,1.274-2.519,5.455,5.455,0,0,1,1.9-1.543,5.366,5.366,0,0,1,2.363-.527,8.967,8.967,0,0,1,1.442.107,3.963,3.963,0,0,1,1.039.293V80.96a6.692,6.692,0,0,0-1.065-.43,4.385,4.385,0,0,0-1.3-.176,3.449,3.449,0,0,0-1.513.333,3.341,3.341,0,0,0-1.2.971,4.8,4.8,0,0,0-.791,1.582,7.672,7.672,0,0,0-.3,2.173h.059a3.173,3.173,0,0,1,1.217-1.094,3.846,3.846,0,0,1,1.8-.4,4.4,4.4,0,0,1,1.656.3,3.5,3.5,0,0,1,1.26.859,3.84,3.84,0,0,1,.8,1.367A5.409,5.409,0,0,1,283.893,88.255Zm-2.286.185a4.045,4.045,0,0,0-.14-1.1,2.407,2.407,0,0,0-.43-.855,1.941,1.941,0,0,0-.723-.551,2.48,2.48,0,0,0-1.021-.2,2.39,2.39,0,0,0-1.029.21,2.312,2.312,0,0,0-.748.552,2.274,2.274,0,0,0-.454.781,2.742,2.742,0,0,0-.152.9,3.824,3.824,0,0,0,.143,1.02,3.088,3.088,0,0,0,.433.952,2.434,2.434,0,0,0,.748.708,2.019,2.019,0,0,0,1.078.279,2.27,2.27,0,0,0,.987-.2,2.033,2.033,0,0,0,.719-.567,2.6,2.6,0,0,0,.439-.854A3.665,3.665,0,0,0,281.607,88.44Z"/><path d="M291,92.444v-2.1a4.528,4.528,0,0,0,2.8.967q2.05,0,2.05-1.211a.954.954,0,0,0-.175-.581,1.706,1.706,0,0,0-.473-.425,3.711,3.711,0,0,0-.7-.332c-.272-.1-.572-.208-.9-.332a9.356,9.356,0,0,1-1.108-.518,3.323,3.323,0,0,1-.82-.62,2.332,2.332,0,0,1-.494-.786,2.912,2.912,0,0,1-.166-1.026,2.378,2.378,0,0,1,.342-1.274,2.994,2.994,0,0,1,.917-.928,4.409,4.409,0,0,1,1.309-.566,6,6,0,0,1,1.514-.191,6.867,6.867,0,0,1,2.48.42v1.983a4.179,4.179,0,0,0-2.422-.723,3.134,3.134,0,0,0-.775.088,2.031,2.031,0,0,0-.592.244,1.233,1.233,0,0,0-.381.376.909.909,0,0,0-.136.484,1.041,1.041,0,0,0,.136.546,1.246,1.246,0,0,0,.407.4,3.364,3.364,0,0,0,.644.312c.25.095.539.2.863.308q.645.264,1.159.537a3.951,3.951,0,0,1,.873.62,2.4,2.4,0,0,1,.556.8,2.7,2.7,0,0,1,.2,1.079,2.47,2.47,0,0,1-.352,1.328,2.918,2.918,0,0,1-.938.938,4.408,4.408,0,0,1-1.351.552,7.067,7.067,0,0,1-1.617.18A6.8,6.8,0,0,1,291,92.444Z"/><path d="M308.717,88.372H301.9a2.884,2.884,0,0,0,.856,2.139,3.179,3.179,0,0,0,2.24.752,4.948,4.948,0,0,0,2.94-.957v1.826a6.715,6.715,0,0,1-3.614.859,4.473,4.473,0,0,1-3.461-1.362,5.443,5.443,0,0,1-1.256-3.833,5.327,5.327,0,0,1,1.383-3.8,4.52,4.52,0,0,1,3.432-1.47,3.941,3.941,0,0,1,3.174,1.319,5.466,5.466,0,0,1,1.123,3.662Zm-2.188-1.6a2.909,2.909,0,0,0-.576-1.9,1.925,1.925,0,0,0-1.562-.679,2.2,2.2,0,0,0-1.655.713,3.268,3.268,0,0,0-.836,1.866Z"/><path d="M318.033,92.3a5.59,5.59,0,0,1-2.842.693A4.815,4.815,0,0,1,311.6,91.6a4.938,4.938,0,0,1-1.368-3.609,5.428,5.428,0,0,1,1.471-3.97,5.252,5.252,0,0,1,3.93-1.5,5.73,5.73,0,0,1,2.412.479V85.11a3.653,3.653,0,0,0-2.227-.781,3.094,3.094,0,0,0-2.353.972,3.556,3.556,0,0,0-.918,2.544,3.389,3.389,0,0,0,.865,2.451,3.069,3.069,0,0,0,2.319.9,3.623,3.623,0,0,0,2.3-.869Z"/><path d="M324.713,92.991a4.952,4.952,0,0,1-3.7-1.4,5.061,5.061,0,0,1-1.383-3.716,4.937,4.937,0,0,1,5.322-5.352,4.794,4.794,0,0,1,3.652,1.377,5.318,5.318,0,0,1,1.309,3.819,5.249,5.249,0,0,1-1.41,3.833A5.072,5.072,0,0,1,324.713,92.991Zm.107-8.662a2.59,2.59,0,0,0-2.1.928,3.886,3.886,0,0,0-.772,2.558,3.671,3.671,0,0,0,.781,2.476,2.625,2.625,0,0,0,2.09.9,2.492,2.492,0,0,0,2.057-.888,3.939,3.939,0,0,0,.717-2.53,3.992,3.992,0,0,0-.717-2.548A2.48,2.48,0,0,0,324.82,84.329Z"/><path d="M341.129,92.757h-2.266V87.122q0-2.8-1.982-2.8a2.163,2.163,0,0,0-1.709.777,2.88,2.88,0,0,0-.674,1.958v5.7h-2.275v-10H334.5v1.66h.039a3.566,3.566,0,0,1,3.242-1.895,3.022,3.022,0,0,1,2.491,1.06,4.751,4.751,0,0,1,.859,3.062Z"/><path d="M352.984,92.757h-2.265v-1.7h-.039a3.91,3.91,0,0,1-6.323.59,5.567,5.567,0,0,1-1.109-3.657,6.062,6.062,0,0,1,1.227-3.974,4.01,4.01,0,0,1,3.265-1.495,3.127,3.127,0,0,1,2.94,1.622h.039V77.952h2.265Zm-2.236-4.57V86.878a2.547,2.547,0,0,0-.693-1.807,2.31,2.31,0,0,0-1.768-.742,2.379,2.379,0,0,0-2,.947,4.215,4.215,0,0,0-.729,2.627,3.775,3.775,0,0,0,.7,2.408,2.272,2.272,0,0,0,1.879.883,2.348,2.348,0,0,0,1.884-.854A3.211,3.211,0,0,0,350.748,88.187Z"/><path d="M355.318,92.444v-2.1a4.53,4.53,0,0,0,2.8.967q2.051,0,2.051-1.211A.954.954,0,0,0,360,89.52a1.678,1.678,0,0,0-.473-.425,3.682,3.682,0,0,0-.7-.332q-.406-.147-.9-.332a9.413,9.413,0,0,1-1.107-.518,3.329,3.329,0,0,1-.821-.62,2.348,2.348,0,0,1-.494-.786,2.935,2.935,0,0,1-.166-1.026,2.378,2.378,0,0,1,.342-1.274,2.986,2.986,0,0,1,.918-.928,4.4,4.4,0,0,1,1.308-.566,6.006,6.006,0,0,1,1.514-.191,6.876,6.876,0,0,1,2.481.42v1.983a4.179,4.179,0,0,0-2.422-.723,3.148,3.148,0,0,0-.776.088,2.024,2.024,0,0,0-.591.244,1.211,1.211,0,0,0-.381.376.91.91,0,0,0-.137.484,1.041,1.041,0,0,0,.137.546,1.233,1.233,0,0,0,.406.4,3.423,3.423,0,0,0,.644.312c.25.095.54.2.864.308.429.176.816.355,1.158.537a3.9,3.9,0,0,1,.873.62,2.4,2.4,0,0,1,.557.8,2.7,2.7,0,0,1,.195,1.079,2.461,2.461,0,0,1-.352,1.328,2.915,2.915,0,0,1-.937.938,4.424,4.424,0,0,1-1.352.552,7.054,7.054,0,0,1-1.617.18A6.8,6.8,0,0,1,355.318,92.444Z"/><path d="M259.938,148.753V157.8h2.08v1.885h-2.08v3.076h-2.2v-3.076H251.4v-1.905c.575-.644,1.16-1.342,1.764-2.094s1.182-1.521,1.738-2.3,1.073-1.57,1.547-2.358a21.014,21.014,0,0,0,1.2-2.266Zm-2.2,9.043v-5.879a32.358,32.358,0,0,1-2.1,3.34q-1.041,1.425-1.949,2.539Z"/><path d="M263.619,162.239V160.11a4.841,4.841,0,0,0,3.086,1.084,3.607,3.607,0,0,0,2.233-.634,2.046,2.046,0,0,0,.833-1.719q0-2.383-3.642-2.383h-1.084v-1.816h1.035q3.234,0,3.232-2.246,0-2.07-2.519-2.071a4.134,4.134,0,0,0-2.647,1.006v-2.012a6.777,6.777,0,0,1,3.37-.8,4.509,4.509,0,0,1,2.988.937,2.985,2.985,0,0,1,1.123,2.4,3.423,3.423,0,0,1-2.813,3.555v.039a3.685,3.685,0,0,1,2.393,1.06,3.157,3.157,0,0,1,.879,2.28,3.735,3.735,0,0,1-1.416,3.042,5.713,5.713,0,0,1-3.731,1.157A6.372,6.372,0,0,1,263.619,162.239Z"/><path d="M274.723,162.239V160.11a4.839,4.839,0,0,0,3.086,1.084,3.606,3.606,0,0,0,2.232-.634,2.045,2.045,0,0,0,.834-1.719q0-2.383-3.643-2.383h-1.084v-1.816h1.036q3.234,0,3.232-2.246,0-2.07-2.52-2.071a4.131,4.131,0,0,0-2.646,1.006v-2.012a6.771,6.771,0,0,1,3.369-.8,4.509,4.509,0,0,1,2.988.937,2.985,2.985,0,0,1,1.123,2.4,3.422,3.422,0,0,1-2.812,3.555v.039a3.685,3.685,0,0,1,2.393,1.06,3.16,3.16,0,0,1,.878,2.28,3.732,3.732,0,0,1-1.416,3.042,5.71,5.71,0,0,1-3.73,1.157A6.369,6.369,0,0,1,274.723,162.239Z"/><path d="M290.973,162.444v-2.1a4.525,4.525,0,0,0,2.8.967q2.052,0,2.051-1.211a.948.948,0,0,0-.176-.581,1.687,1.687,0,0,0-.472-.425,3.711,3.711,0,0,0-.7-.332q-.408-.147-.905-.332a9.413,9.413,0,0,1-1.107-.518,3.3,3.3,0,0,1-.82-.62,2.35,2.35,0,0,1-.495-.786,2.935,2.935,0,0,1-.166-1.026,2.387,2.387,0,0,1,.342-1.274,3,3,0,0,1,.918-.928,4.4,4.4,0,0,1,1.309-.566,5.993,5.993,0,0,1,1.513-.191,6.876,6.876,0,0,1,2.481.42v1.983a4.179,4.179,0,0,0-2.422-.723,3.134,3.134,0,0,0-.775.088,2.02,2.02,0,0,0-.592.244,1.233,1.233,0,0,0-.381.376.91.91,0,0,0-.137.484,1.041,1.041,0,0,0,.137.546,1.253,1.253,0,0,0,.406.4,3.4,3.4,0,0,0,.645.312c.25.095.539.2.863.308q.645.264,1.158.537a3.9,3.9,0,0,1,.873.62,2.4,2.4,0,0,1,.557.8,2.7,2.7,0,0,1,.195,1.079,2.47,2.47,0,0,1-.351,1.328,2.928,2.928,0,0,1-.938.938,4.418,4.418,0,0,1-1.351.552,7.069,7.069,0,0,1-1.618.18A6.8,6.8,0,0,1,290.973,162.444Z"/><path d="M308.688,158.372h-6.817a2.88,2.88,0,0,0,.856,2.139,3.179,3.179,0,0,0,2.24.752,4.943,4.943,0,0,0,2.939-.957v1.826a6.709,6.709,0,0,1-3.613.859,4.471,4.471,0,0,1-3.461-1.362,5.443,5.443,0,0,1-1.256-3.833,5.327,5.327,0,0,1,1.383-3.8,4.519,4.519,0,0,1,3.432-1.47,3.939,3.939,0,0,1,3.173,1.319,5.466,5.466,0,0,1,1.124,3.662Zm-2.188-1.6a2.909,2.909,0,0,0-.576-1.9,1.927,1.927,0,0,0-1.563-.679,2.2,2.2,0,0,0-1.654.713,3.268,3.268,0,0,0-.836,1.866Z"/><path d="M318,162.3a5.59,5.59,0,0,1-2.842.693,4.817,4.817,0,0,1-3.594-1.391,4.937,4.937,0,0,1-1.367-3.609,5.424,5.424,0,0,1,1.471-3.97,5.251,5.251,0,0,1,3.93-1.5,5.734,5.734,0,0,1,2.412.479v2.109a3.655,3.655,0,0,0-2.227-.781,3.094,3.094,0,0,0-2.353.972,3.552,3.552,0,0,0-.918,2.544,3.389,3.389,0,0,0,.865,2.451,3.066,3.066,0,0,0,2.318.9,3.626,3.626,0,0,0,2.305-.869Z"/><path d="M324.684,162.991a4.955,4.955,0,0,1-3.7-1.4,5.061,5.061,0,0,1-1.383-3.716,4.939,4.939,0,0,1,5.323-5.352,4.8,4.8,0,0,1,3.652,1.377,5.318,5.318,0,0,1,1.309,3.819,5.249,5.249,0,0,1-1.41,3.833A5.073,5.073,0,0,1,324.684,162.991Zm.107-8.662a2.592,2.592,0,0,0-2.1.928,3.891,3.891,0,0,0-.771,2.558,3.671,3.671,0,0,0,.781,2.476,2.625,2.625,0,0,0,2.09.9,2.492,2.492,0,0,0,2.057-.888,3.939,3.939,0,0,0,.716-2.53,3.992,3.992,0,0,0-.716-2.548A2.48,2.48,0,0,0,324.791,154.329Z"/><path d="M341.1,162.757h-2.266v-5.635q0-2.8-1.982-2.8a2.163,2.163,0,0,0-1.709.777,2.875,2.875,0,0,0-.674,1.958v5.7h-2.276v-10h2.276v1.66h.039a3.566,3.566,0,0,1,3.242-1.9,3.018,3.018,0,0,1,2.49,1.06,4.751,4.751,0,0,1,.86,3.062Z"/><path d="M352.955,162.757h-2.266v-1.7h-.039a3.909,3.909,0,0,1-6.322.59,5.567,5.567,0,0,1-1.109-3.657,6.067,6.067,0,0,1,1.226-3.974,4.013,4.013,0,0,1,3.266-1.5,3.124,3.124,0,0,1,2.939,1.622h.039v-6.192h2.266Zm-2.236-4.57v-1.309a2.547,2.547,0,0,0-.694-1.807,2.307,2.307,0,0,0-1.767-.742,2.379,2.379,0,0,0-2,.947,4.209,4.209,0,0,0-.729,2.627,3.781,3.781,0,0,0,.7,2.408,2.272,2.272,0,0,0,1.879.883A2.349,2.349,0,0,0,350,160.34,3.211,3.211,0,0,0,350.719,158.187Z"/><path d="M355.289,162.444v-2.1a4.528,4.528,0,0,0,2.8.967q2.051,0,2.051-1.211a.954.954,0,0,0-.176-.581,1.692,1.692,0,0,0-.473-.425,3.682,3.682,0,0,0-.7-.332q-.406-.147-.9-.332a9.431,9.431,0,0,1-1.108-.518,3.323,3.323,0,0,1-.82-.62,2.332,2.332,0,0,1-.494-.786,2.912,2.912,0,0,1-.166-1.026,2.378,2.378,0,0,1,.342-1.274,2.986,2.986,0,0,1,.918-.928,4.392,4.392,0,0,1,1.308-.566,6,6,0,0,1,1.514-.191,6.867,6.867,0,0,1,2.48.42v1.983a4.177,4.177,0,0,0-2.422-.723,3.139,3.139,0,0,0-.775.088,2.031,2.031,0,0,0-.592.244,1.233,1.233,0,0,0-.381.376.918.918,0,0,0-.136.484,1.05,1.05,0,0,0,.136.546,1.246,1.246,0,0,0,.407.4,3.364,3.364,0,0,0,.644.312c.25.095.539.2.863.308q.645.264,1.159.537a3.951,3.951,0,0,1,.873.62,2.4,2.4,0,0,1,.556.8,2.7,2.7,0,0,1,.2,1.079,2.47,2.47,0,0,1-.352,1.328,2.925,2.925,0,0,1-.937.938,4.424,4.424,0,0,1-1.352.552,7.067,7.067,0,0,1-1.617.18A6.8,6.8,0,0,1,355.289,162.444Z"/><path d="M252.5,232.239V230.11a4.841,4.841,0,0,0,3.086,1.084,3.6,3.6,0,0,0,2.232-.634,2.045,2.045,0,0,0,.834-1.719q0-2.383-3.642-2.383h-1.084v-1.816h1.035q3.234,0,3.232-2.246,0-2.07-2.519-2.071a4.134,4.134,0,0,0-2.647,1.006v-2.012a6.777,6.777,0,0,1,3.37-.8,4.509,4.509,0,0,1,2.988.937,2.985,2.985,0,0,1,1.123,2.4,3.423,3.423,0,0,1-2.813,3.555v.039a3.685,3.685,0,0,1,2.393,1.06,3.157,3.157,0,0,1,.879,2.28,3.735,3.735,0,0,1-1.416,3.042,5.713,5.713,0,0,1-3.731,1.157A6.372,6.372,0,0,1,252.5,232.239Z"/><path d="M272.438,219.886q-.879,1.611-1.661,3.188t-1.416,3.169q-.633,1.593-1.1,3.208a25.449,25.449,0,0,0-.723,3.306h-2.373a23.816,23.816,0,0,1,.67-3q.433-1.5,1.02-3t1.314-3.013q.726-1.513,1.547-3.056h-6.631v-1.934h9.356Z"/><path d="M274.635,232.435v-2.178a4.958,4.958,0,0,0,2.793.928,3.455,3.455,0,0,0,2.3-.728,2.4,2.4,0,0,0,.869-1.938,2.191,2.191,0,0,0-.883-1.856,4.167,4.167,0,0,0-2.535-.664q-.565,0-2.295.117l.5-7.363h6.894v1.934h-5.009l-.235,3.5c.45-.026.858-.039,1.221-.039a4.835,4.835,0,0,1,3.443,1.143,4.08,4.08,0,0,1,1.215,3.125,4.274,4.274,0,0,1-1.39,3.335,5.5,5.5,0,0,1-3.825,1.255A6.342,6.342,0,0,1,274.635,232.435Z"/><path d="M290.572,232.444v-2.1a4.53,4.53,0,0,0,2.8.967q2.051,0,2.051-1.211a.954.954,0,0,0-.176-.581,1.678,1.678,0,0,0-.473-.425,3.682,3.682,0,0,0-.7-.332q-.406-.147-.9-.332a9.507,9.507,0,0,1-1.108-.518,3.323,3.323,0,0,1-.82-.62,2.332,2.332,0,0,1-.494-.786,2.935,2.935,0,0,1-.166-1.026,2.378,2.378,0,0,1,.342-1.274,2.986,2.986,0,0,1,.918-.928,4.4,4.4,0,0,1,1.308-.566,6.006,6.006,0,0,1,1.514-.191,6.876,6.876,0,0,1,2.481.42v1.983a4.181,4.181,0,0,0-2.422-.723,3.148,3.148,0,0,0-.776.088,2.043,2.043,0,0,0-.592.244,1.218,1.218,0,0,0-.38.376.91.91,0,0,0-.137.484,1.041,1.041,0,0,0,.137.546,1.233,1.233,0,0,0,.406.4,3.393,3.393,0,0,0,.644.312c.25.095.539.2.864.308.429.176.816.355,1.158.537a3.9,3.9,0,0,1,.873.62,2.4,2.4,0,0,1,.557.8,2.722,2.722,0,0,1,.2,1.079,2.461,2.461,0,0,1-.352,1.328,2.925,2.925,0,0,1-.937.938,4.424,4.424,0,0,1-1.352.552,7.06,7.06,0,0,1-1.617.18A6.8,6.8,0,0,1,290.572,232.444Z"/><path d="M308.287,228.372h-6.816a2.88,2.88,0,0,0,.855,2.139,3.179,3.179,0,0,0,2.24.752,4.946,4.946,0,0,0,2.94-.957v1.826a6.709,6.709,0,0,1-3.613.859,4.471,4.471,0,0,1-3.461-1.362,5.443,5.443,0,0,1-1.256-3.833,5.327,5.327,0,0,1,1.383-3.8,4.518,4.518,0,0,1,3.431-1.47,3.941,3.941,0,0,1,3.174,1.319,5.466,5.466,0,0,1,1.123,3.662Zm-2.187-1.6a2.909,2.909,0,0,0-.577-1.9,1.925,1.925,0,0,0-1.562-.679,2.2,2.2,0,0,0-1.654.713,3.262,3.262,0,0,0-.836,1.866Z"/><path d="M317.6,232.3a5.593,5.593,0,0,1-2.842.693,4.815,4.815,0,0,1-3.594-1.391,4.937,4.937,0,0,1-1.367-3.609,5.427,5.427,0,0,1,1.47-3.97,5.254,5.254,0,0,1,3.93-1.5,5.73,5.73,0,0,1,2.412.479v2.109a3.651,3.651,0,0,0-2.226-.781,3.1,3.1,0,0,0-2.354.972,3.556,3.556,0,0,0-.918,2.544,3.389,3.389,0,0,0,.865,2.451,3.07,3.07,0,0,0,2.319.9,3.628,3.628,0,0,0,2.305-.869Z"/><path d="M324.283,232.991a4.952,4.952,0,0,1-3.695-1.4,5.061,5.061,0,0,1-1.383-3.716,4.937,4.937,0,0,1,5.322-5.352,4.8,4.8,0,0,1,3.653,1.377,5.317,5.317,0,0,1,1.308,3.819,5.245,5.245,0,0,1-1.41,3.833A5.07,5.07,0,0,1,324.283,232.991Zm.108-8.662a2.592,2.592,0,0,0-2.1.928,3.886,3.886,0,0,0-.771,2.558,3.666,3.666,0,0,0,.781,2.476,2.624,2.624,0,0,0,2.09.9,2.49,2.49,0,0,0,2.056-.888,3.934,3.934,0,0,0,.717-2.53,3.986,3.986,0,0,0-.717-2.548A2.478,2.478,0,0,0,324.391,224.329Z"/><path d="M340.7,232.757h-2.265v-5.635q0-2.8-1.983-2.8a2.165,2.165,0,0,0-1.709.777,2.88,2.88,0,0,0-.674,1.958v5.7h-2.275v-10h2.275v1.66h.039a3.568,3.568,0,0,1,3.243-1.9,3.018,3.018,0,0,1,2.49,1.06,4.751,4.751,0,0,1,.859,3.062Z"/><path d="M352.555,232.757h-2.266v-1.7h-.039a3.909,3.909,0,0,1-6.322.59,5.568,5.568,0,0,1-1.11-3.657,6.067,6.067,0,0,1,1.227-3.974,4.01,4.01,0,0,1,3.266-1.5,3.125,3.125,0,0,1,2.939,1.622h.039v-6.192h2.266Zm-2.237-4.57v-1.309a2.547,2.547,0,0,0-.693-1.807,2.31,2.31,0,0,0-1.768-.742,2.381,2.381,0,0,0-2,.947,4.215,4.215,0,0,0-.728,2.627,3.775,3.775,0,0,0,.7,2.408,2.272,2.272,0,0,0,1.879.883,2.351,2.351,0,0,0,1.885-.854A3.215,3.215,0,0,0,350.318,228.187Z"/><path d="M354.889,232.444v-2.1a4.525,4.525,0,0,0,2.8.967q2.052,0,2.051-1.211a.948.948,0,0,0-.176-.581,1.687,1.687,0,0,0-.472-.425,3.711,3.711,0,0,0-.7-.332q-.408-.147-.905-.332a9.413,9.413,0,0,1-1.107-.518,3.3,3.3,0,0,1-.82-.62,2.35,2.35,0,0,1-.5-.786,2.935,2.935,0,0,1-.166-1.026,2.387,2.387,0,0,1,.342-1.274,3,3,0,0,1,.918-.928,4.409,4.409,0,0,1,1.309-.566,5.993,5.993,0,0,1,1.513-.191,6.876,6.876,0,0,1,2.481.42v1.983a4.179,4.179,0,0,0-2.422-.723,3.134,3.134,0,0,0-.775.088,2.02,2.02,0,0,0-.592.244,1.233,1.233,0,0,0-.381.376.91.91,0,0,0-.137.484,1.041,1.041,0,0,0,.137.546,1.253,1.253,0,0,0,.406.4,3.4,3.4,0,0,0,.645.312c.25.095.539.2.863.308q.645.264,1.158.537a3.9,3.9,0,0,1,.873.62,2.391,2.391,0,0,1,.557.8,2.7,2.7,0,0,1,.195,1.079,2.47,2.47,0,0,1-.351,1.328,2.928,2.928,0,0,1-.938.938,4.418,4.418,0,0,1-1.351.552,7.069,7.069,0,0,1-1.618.18A6.8,6.8,0,0,1,354.889,232.444Z"/><path d="M60.74,89.972a1.4,1.4,0,0,1-1-.386,1.225,1.225,0,0,1-.41-.923,1.25,1.25,0,0,1,.41-.937,1.391,1.391,0,0,1,1-.391,1.419,1.419,0,0,1,1.012.391,1.246,1.246,0,0,1,.414.937,1.222,1.222,0,0,1-.414.923A1.432,1.432,0,0,1,60.74,89.972Z"/><path d="M76.756,89.757H74.217l-6.69-10.293a4.729,4.729,0,0,1-.42-.811h-.058a14.271,14.271,0,0,1,.078,1.924v9.18H64.881v-14h2.7L74.051,85.8q.409.625.527.859h.039a12.616,12.616,0,0,1-.1-1.885V75.753h2.236Z"/><path d="M88.084,89.757H80.223v-14h7.548v1.973H82.547V81.69h4.814v1.963H82.547v4.141h5.537Z"/><path d="M99.656,77.726H95.633V89.757H93.309V77.726H89.3V75.753H99.656Z"/><path d="M39.637,154.679v5.078H37.322v-14H41.57a5.623,5.623,0,0,1,3.741,1.123,3.916,3.916,0,0,1,1.328,3.164,4.368,4.368,0,0,1-1.387,3.34,5.263,5.263,0,0,1-3.75,1.3Zm0-7.012v5.117h1.5a3.325,3.325,0,0,0,2.275-.693,2.47,2.47,0,0,0,.781-1.953q0-2.472-2.871-2.471Z"/><path d="M57.42,149.757l-4.512,11.6q-1.406,3.106-3.945,3.106a4.731,4.731,0,0,1-1.192-.127v-1.885a3.187,3.187,0,0,0,.977.176,2.014,2.014,0,0,0,1.9-1.25l.673-1.641-3.974-9.98h2.51l2.382,7.265c.028.091.086.332.176.723h.049c.033-.149.092-.384.176-.7l2.5-7.285Z"/><path d="M64.246,159.649a3.911,3.911,0,0,1-1.748.332q-2.908,0-2.91-2.793v-5.654h-1.67v-1.777h1.67v-2.315l2.266-.644v2.959h2.392v1.777H61.854v5a1.97,1.97,0,0,0,.322,1.27,1.339,1.339,0,0,0,1.074.381,1.556,1.556,0,0,0,1-.332Z"/><path d="M75.086,159.757H72.82v-5.469q0-2.969-1.982-2.969a2.074,2.074,0,0,0-1.68.86,3.424,3.424,0,0,0-.683,2.2v5.381H66.2V144.952h2.276v6.465h.039a3.579,3.579,0,0,1,3.242-1.9q3.332,0,3.33,4.073Z"/><path d="M82.273,159.991a4.952,4.952,0,0,1-3.695-1.4,5.061,5.061,0,0,1-1.383-3.716,4.939,4.939,0,0,1,5.323-5.352A4.8,4.8,0,0,1,86.17,150.9a5.318,5.318,0,0,1,1.309,3.819,5.245,5.245,0,0,1-1.411,3.833A5.07,5.07,0,0,1,82.273,159.991Zm.108-8.662a2.592,2.592,0,0,0-2.1.928,3.891,3.891,0,0,0-.771,2.558,3.666,3.666,0,0,0,.781,2.476,2.624,2.624,0,0,0,2.09.9,2.494,2.494,0,0,0,2.057-.888,3.939,3.939,0,0,0,.716-2.53,3.992,3.992,0,0,0-.716-2.548A2.481,2.481,0,0,0,82.381,151.329Z"/><path d="M98.689,159.757H96.424v-5.635q0-2.8-1.983-2.8a2.166,2.166,0,0,0-1.709.777,2.879,2.879,0,0,0-.673,1.958v5.7H89.783v-10h2.276v1.66H92.1a3.566,3.566,0,0,1,3.242-1.9,3.018,3.018,0,0,1,2.49,1.06,4.751,4.751,0,0,1,.859,3.062Z"/><path d="M54.666,229.2v-2.392a3.691,3.691,0,0,0,.768.527,5.845,5.845,0,0,0,.941.395,7.252,7.252,0,0,0,1,.249,5.28,5.28,0,0,0,.918.088,3.928,3.928,0,0,0,2.184-.488,1.606,1.606,0,0,0,.716-1.416,1.555,1.555,0,0,0-.238-.864,2.518,2.518,0,0,0-.67-.669,6.893,6.893,0,0,0-1.01-.581c-.388-.186-.8-.379-1.246-.581-.474-.254-.918-.511-1.328-.772a5.732,5.732,0,0,1-1.068-.864,3.592,3.592,0,0,1-.713-1.069,3.462,3.462,0,0,1-.26-1.4,3.221,3.221,0,0,1,.446-1.714,3.719,3.719,0,0,1,1.171-1.2,5.4,5.4,0,0,1,1.655-.7,7.862,7.862,0,0,1,1.894-.229,7.644,7.644,0,0,1,3.2.5v2.3a5.1,5.1,0,0,0-3.066-.86,5.41,5.41,0,0,0-1.029.1,3.067,3.067,0,0,0-.918.322,1.965,1.965,0,0,0-.66.576,1.423,1.423,0,0,0-.254.85,1.616,1.616,0,0,0,.2.81,2.075,2.075,0,0,0,.572.625,5.8,5.8,0,0,0,.918.552q.543.268,1.254.581.732.381,1.383.8a6.573,6.573,0,0,1,1.142.928,4.13,4.13,0,0,1,.782,1.128,3.324,3.324,0,0,1,.287,1.411,3.493,3.493,0,0,1-.43,1.8,3.457,3.457,0,0,1-1.156,1.191,5.162,5.162,0,0,1-1.676.664,9.422,9.422,0,0,1-2,.205,8.43,8.43,0,0,1-.863-.053c-.342-.037-.692-.088-1.051-.157a9.6,9.6,0,0,1-1.015-.249A3.177,3.177,0,0,1,54.666,229.2Z"/><path d="M73.1,229.3a5.593,5.593,0,0,1-2.842.693,4.815,4.815,0,0,1-3.594-1.391,4.937,4.937,0,0,1-1.367-3.609,5.427,5.427,0,0,1,1.47-3.97,5.254,5.254,0,0,1,3.93-1.5,5.73,5.73,0,0,1,2.412.479v2.109a3.651,3.651,0,0,0-2.226-.781,3.1,3.1,0,0,0-2.354.972,3.556,3.556,0,0,0-.918,2.544,3.389,3.389,0,0,0,.865,2.451,3.07,3.07,0,0,0,2.319.9,3.628,3.628,0,0,0,2.3-.869Z"/><path d="M83.025,229.757h-2.2v-1.563h-.039a3.3,3.3,0,0,1-3.037,1.8,3.2,3.2,0,0,1-2.309-.8,2.8,2.8,0,0,1-.836-2.119q0-2.831,3.262-3.3l2.969-.42q0-2.139-2.031-2.139a4.826,4.826,0,0,0-3.223,1.23V220.46a7.031,7.031,0,0,1,3.652-.938q3.792,0,3.789,3.731Zm-2.187-4.912-2.1.293a3.328,3.328,0,0,0-1.468.473,1.381,1.381,0,0,0-.495,1.216,1.334,1.334,0,0,0,.455,1.04,1.754,1.754,0,0,0,1.215.405,2.243,2.243,0,0,0,1.715-.727,2.586,2.586,0,0,0,.678-1.831Z"/><path d="M88.064,229.757H85.789V214.952h2.275Z"/><path d="M98.689,229.757h-2.2v-1.563h-.039a3.3,3.3,0,0,1-3.037,1.8,3.2,3.2,0,0,1-2.309-.8,2.8,2.8,0,0,1-.836-2.119q0-2.831,3.262-3.3l2.969-.42q0-2.139-2.031-2.139a4.826,4.826,0,0,0-3.223,1.23V220.46a7.031,7.031,0,0,1,3.652-.938q3.792,0,3.789,3.731ZM96.5,224.845l-2.1.293a3.328,3.328,0,0,0-1.468.473,1.384,1.384,0,0,0-.5,1.216,1.332,1.332,0,0,0,.456,1.04,1.75,1.75,0,0,0,1.214.405,2.243,2.243,0,0,0,1.715-.727,2.586,2.586,0,0,0,.678-1.831Z"/></svg>