<svg xmlns="http://www.w3.org/2000/svg" viewBox="0 0 636 300"><defs><style>.a{fill:none}.b{clip-path:url(#a)}.c{fill:#b3d6f2}.d{fill:#69afe5}.e{fill:#99bcd7}.f{clip-path:url(#n)}.g{fill:#00a09e}.h{fill:#00002b}.i{fill:#72594b}.j{fill:#bb9167}.k{fill:#414042}.l{fill:#f9d4bb}.m{fill:#8e562e}.n{fill:#ab8460}.o{fill:#fff}.p{fill:#9d9fa2}.q{fill:#000d42}.r{fill:#eaebeb}.s{fill:#c48074}.t{fill:#704322}.u{fill:#f6cba7}.v{fill:#8b0304}.w{fill:#ddb594}.x{fill:#e6a1c0}.y{fill:#f7e0cc}.z{fill:#d1d3d4}.aa{fill:#2a3282}.ab{fill:#3777bc}.ac{fill:#f6d8c5}.ad{fill:#ffc20e}.ae{fill:#e3c6b5}.af{fill:#fee7d9}.ag{fill:#cd007a}.ah{fill:#b6b8ba}.ai{fill:#004c7a}.aj{clip-path:url(#dy)}.ak{fill:#ffc316}.al{fill:#675042}.am{fill:#dc9d96}.an{fill:#8f7a70}.ao{fill:#4f3f34}.ap{fill:#f26522}.aq{fill:#17244e}.ar{fill:#a71e22}.as{fill:#aa4611}.at{fill:#c09f81}.au{fill:#cc8d85}.av{fill:#ce9c5e}.aw{fill:#5c2d91}.ax{fill:#ba8d57}.ay{fill:#3a2821}.az{fill:#d9b07f}</style><clipPath id="a"><path class="a" d="M72.5 13.5h491v273h-491z"/></clipPath><clipPath id="n"><path class="a" d="M320.5 120.5h133v134h-133z"/></clipPath><clipPath id="dy"><path class="a" d="M198.5 96.5h133v134h-133z"/></clipPath></defs><title>swimlane-enterprise-customer-stories</title><g class="b"><path class="c" d="M91.5 89.5h100v205h-100z"/></g><g class="b"><path class="c" d="M321.5 54.5h100v232h-100z"/></g><g class="b"><path class="c" d="M222.542 19.5L206.5 35.575V289.5h100v-270h-83.958z"/></g><g class="b"><path class="c" d="M373.5 31.5h100v256h-100z"/></g><g class="b"><path class="d" d="M549.5 291.5v-201h-18v-18h-19v-19h-100v238h137z"/></g><g class="b"><path class="d" d="M157.5 127.5v22h-32v145h120v-167h-88z"/></g><g class="b"><path class="e" d="M147.5 161.5h11v11h-11zM175.5 161.5h11v11h-11zM203.5 161.5h11v11h-11zM147.5 189.5h11v11h-11zM175.5 189.5h11v11h-11zM203.5 189.5h11v11h-11zM147.5 216.5h11v11h-11zM175.5 216.5h11v11h-11zM203.5 216.5h11v11h-11zM147.5 244.5h11v11h-11zM175.5 244.5h11v11h-11zM203.5 244.5h11v11h-11z"/></g><g class="b"><path class="e" d="M516.5 111.5h12v177h-12z"/></g><g class="b"><path class="e" d="M488.5 111.5h12v177h-12z"/></g><g class="b"><path class="e" d="M459.5 111.5h12v177h-12z"/></g><g class="b"><path class="e" d="M431.5 111.5h12v177h-12z"/></g><g class="b"><path class="d" d="M355.849 76.5H259.5v212h139V114.256L355.849 76.5z"/></g><g class="b"><path class="e" d="M280.5 103.5h11v11h-11zM308.5 103.5h11v11h-11zM335.5 103.5h11v11h-11zM280.5 131.5h11v11h-11zM308.5 131.5h11v11h-11zM335.5 131.5h11v11h-11zM280.5 159.5h11v11h-11zM308.5 159.5h11v11h-11zM335.5 159.5h11v11h-11zM280.5 187.5h11v11h-11zM308.5 187.5h11v11h-11zM335.5 187.5h11v11h-11z"/></g><g class="f"><path class="g" d="M453.624 187.776c0 3.774-.182 7.548-2.124 11.134v.939c1.011.564 1.011 1.143.829 1.707a2.023 2.023 0 0 0 .171.564v.188a4.132 4.132 0 0 0-.549.94.7.7 0 0 1-.182.563c0 .376-.2.768-.2 1.144l-.068.188v.064a16.484 16.484 0 0 1-.4 1.627.718.718 0 0 1-.2.407 3.126 3.126 0 0 1-.4 1.237v.252s-.416.939-.6 1.5c-.182.375-.371.939-.553 1.315a2.735 2.735 0 0 1-.371 1.143c-.189.376-.189.564-.371.94 0 .188 0 .188-.189.188 0 .375-.189.564-.189.939-.182 0-.182.188-.182.376-.2 0-.2.188-.2.391-.189.375-.371.752-.56 1.128s-.371.752-.553 1.127c-.189.188-.189.564-.371.752-.371.768-.931 1.707-1.3 2.458-.189.188-.371.564-.56.752 0 .188 0 .188-.2.375a1.407 1.407 0 0 1-.371.752l-.182.2a6.752 6.752 0 0 1-.931 1.5.182.182 0 0 1-.182.188 4.16 4.16 0 0 1-.931 1.5.18.18 0 0 1-.182.188 56.62 56.62 0 0 1-1.013 1.519v.188a18.311 18.311 0 0 0-1.421 1.5 2.953 2.953 0 0 1-.553.768c-.371.376-.56.752-.931 1.128s-.761.939-1.314 1.5c-.742.752-1.484 1.519-2.226 2.271a40.785 40.785 0 0 1-5.05 4.713c-.742.564-1.484 1.128-2.226 1.707-.189 0-.371.188-.56.376-.755.564-1.5 1.128-2.239 1.691-.189 0-.189 0-.371.188-.189 0-.189 0-.371.188-1.5.955-2.987 1.9-4.477 2.646a18.633 18.633 0 0 1-1.868.94 5.6 5.6 0 0 1-1.49.752.637.637 0 0 1-.384.188c-.371.2-.742.392-1.113.579-.189 0-.189 0-.371.188-.742.188-1.49.564-2.044.752-.572.188-.943.376-1.314.258h-.189l-.553.494a.184.184 0 0 0-.189.188 3.42 3.42 0 0 0-1.3.376c-.2 0-.2 0-.384.188a3.027 3.027 0 0 1-.931-.246h-.182a2.582 2.582 0 0 1-.742.81c-.371 0-.931.2-1.3.19h-.189a4.764 4.764 0 0 1-1.5.577 1.381 1.381 0 0 0-.742.188 1.1 1.1 0 0 0-.742.188c-.377 0-.748.188-1.32.188-.371 0-.742.188-1.113.188-.742.188-1.3.188-2.056.376a75.016 75.016 0 0 1-9.313.564c-36.736 0-66.383-30-66.383-66.992 0-37.179 29.647-67.18 66.383-67.18 36.539.021 66.182 30.021 66.182 67.197z"/></g><g class="f"><path class="h" d="M404.405 202.12l6.697-2.459 1.321 3.211-8.018-.752z"/></g><g class="f"><path class="i" d="M415.592 198.5h-.371l-1.503.564 1.503 1.691.931-1.315-.56-.94z"/></g><g class="f"><path class="i" d="M435.539 198.722l-1.673-.564a8.692 8.692 0 0 1 0 2.255z"/></g><g class="f"><path class="h" d="M451.5 198.554v1.295s1.011 1.143.829 1.707a2.023 2.023 0 0 0 .171.564v.188a4.132 4.132 0 0 0-.549.94.7.7 0 0 1-.182.563c0 .376-.2.768-.2 1.144l-.068.188v-.019a14.286 14.286 0 0 1-.4 1.5.648.648 0 0 1-.2.376 2.737 2.737 0 0 1-.4 1.143v.376c-.2.564-.4.939-.606 1.5-.2.375-.4.939-.6 1.315a2.593 2.593 0 0 1-.4 1.143c-.2.376-.2.564-.4.94 0 .188 0 .188-.2.188 0 .375-.2.564-.2.939-.2 0-.2.188-.2.376l-.218-.188-2.212-.563-5.865-2.249-7.051-2.458-8.895-3.21-2.008-.752h1.97l.356-.961.53-1.551v-.388l.181-.384.356-.96.174-.383.537-1.552.548-1.344.356-1.153.711-2.321 1.6-4.24.174-.767h.374l.174.189 1.248.383.537.386 2.863 1.152 1.067.384.356.192z"/></g><g class="f"><path class="j" d="M451.676 202.031a.64.64 0 0 1-.176.525v-.248a4.4 4.4 0 0 1 .451.94.7.7 0 0 1-.182.563c0 .376-.2.768-.2 1.144l-.068.188v.064a16.484 16.484 0 0 1-.4 1.627.718.718 0 0 1-.2.407 3.126 3.126 0 0 1-.4 1.237v.252s-.416.939-.6 1.5c-.182.375-.371.939-.553 1.315a2.735 2.735 0 0 1-.371 1.143c-.189.376-.189.564-.371.94 0 .188 0 .188-.189.188 0 .375-.189.564-.189.939-.182 0-.182.188-.182.376-.2 0-.54.391-.54.391v-1.042a1.046 1.046 0 0 1-.176-.7c-.345-1.573-.514-3.16-.859-4.558a7.906 7.906 0 0 1 .69-4.034 5.976 5.976 0 0 1 4.515-3.157z"/></g><g class="f"><path class="h" d="M450.713 208.728c-.189.564-.371.939-.56 1.5-.182.375-.371.939-.553 1.315a2.735 2.735 0 0 1-.371 1.143c-.189.376-.189.564-.371.94 0 .188 0 .188-.189.188 0 .375-.189.564-.189.939-.182 0-.182.188-.182.376-.2 0-.2.188-.2.391-.189.375-.371.752-.56 1.128s-.371.752-.553 1.127c-.189.188-.189.564-.371.752-.189-1.5-.371-3.006-.56-4.149a41.448 41.448 0 0 0-.553-4.526v-.188l1.484-.375z"/></g><g class="f"><path class="h" d="M452.957 199.849c-.189.564-.189 1.143-.371 1.707a24.115 24.115 0 0 1-.95 3.586 20.262 20.262 0 0 1-.924 3.586c-.742 2.067-1.484 3.962-2.232 6.029-.182-.188-.384-.375-.572-.564a7.786 7.786 0 0 1-2.408-4.338v-.188a7.789 7.789 0 0 1 .182-3.586c.189-.564.189-.939.371-1.315a8.228 8.228 0 0 1 6.904-4.917z"/></g><g class="f"><path class="h" d="M423.238 244.2a74.342 74.342 0 0 1-9.332 5.1c-.189 0-.189 0-.371.188-.742.188-1.49.564-2.044.752-4.672 1.879-15.991 3.962-15.991 3.962v-9.631l1.056-11.51-.182-1.128-.189-7.36c-.182-.564.315-.564.315-.564v-1.143l-1-2.819v-.955l1-3.2v-2.835l-2-1.331v-1.128l1-2.443V205.5h1.056l4.861-.736 5.031-.391 4.842-.373 2.987-.188 1.5-.188 3.911-.188c1.113-.188 1.113-.934 1.113-.934h1.874l.56 1h.262v40.509c-.076-.001-.076-.001-.259.189z"/></g><g class="f"><path class="h" d="M396.557 215.712l-5.955-15.675 27.034-10.365 5.785 15.658-26.864 10.382z"/></g><g class="f"><path class="h" d="M451.5 205.142v.188c-.3.564-.3 1.128-.492 1.5a.663.663 0 0 1-.182.376 4.363 4.363 0 0 1-.326 1.143v.446c-.188.56-.368.932-.556 1.492-.181.372-.368.932-.549 1.305a2.715 2.715 0 0 1-.368 1.135c-.188.373-.188.56-.368.933 0 .187 0 .187-.188.187 0 .372-.188.56-.188.932-.181 0-.181.187-.181.373-.2 0-.2.187-.2.388-.188.372-.368.746-.556 1.12s-.368.746-.549 1.119c-.188.187-.188.56-.368.746-.368.762-.924 1.694-1.292 2.44-.188.187-.368.56-.556.746 0 .187 0 .187-.2.372a1.4 1.4 0 0 1-.368.746l-.181.2a6.7 6.7 0 0 1-.924 1.492.181.181 0 0 1-.181.187 4.129 4.129 0 0 1-.924 1.492.179.179 0 0 1-.181.187 9.344 9.344 0 0 1-1.122 1.513v.259s-.861.94-1.421 1.5a2.953 2.953 0 0 1-.553.768c-.371.376-.56.752-.931 1.128s-.761.939-1.314 1.5c-.742.752-1.484 1.519-2.226 2.271a40.785 40.785 0 0 1-5.05 4.713c-.742.564-1.484 1.128-2.226 1.707-.189 0-.371.188-.56.376-.755.564-1.5 1.128-2.239 1.691-.189 0-.189 0-.371.188-.189 0-.189 0-.109.188V202.5h.109l.924 1h1.686l2.415-.066 2.987.188c2.987.376 2.987.878 2.987.878h.189l5.024-.127 5.974.391 1.673.188z"/></g><g class="f"><path class="k" d="M396.375 251.746l-16.588-.376c.185-14.345 2.8-28.5 4.659-38.867.371-2.271.742-4.15.924-6.045l16.419 2.835c-.371 1.691-.742 3.962-1.113 6.029-1.685 10.005-4.119 23.41-4.301 36.424z"/></g><g class="f"><path class="h" d="M396.186 252.513l-16.4-1.895c.557-5.669 4.841-38.883 5.583-44.16l16.419 2.835c-.741 4.525-4.841 36.799-5.602 43.22z"/></g><g class="f"><path class="h" d="M401.607 205.706a8.312 8.312 0 1 1-16.048 4.338 8.64 8.64 0 0 1 5.974-10.382 8.319 8.319 0 0 1 10.074 6.044z"/></g><g class="f"><path class="l" d="M411.674 197.97s8.948 8.3 22 .188l-20.142-2.646z"/></g><g class="f"><path class="m" d="M418.007 193.241l-7.087 2.835a5.1 5.1 0 0 0 .943 3.4 1.159 1.159 0 0 1 .182.752l10.445 9.442 13.048-13.4z"/></g><g class="f"><path class="n" d="M396.5 252.309l-14.932-1.691 1.315 3.774 13.617-.752v-1.331z"/></g><g class="f"><path class="o" d="M436.047 192.717s-3.959 37.964-7.353 45.783h-11.305c-3.393-7.818-7.537-45.783-7.537-45.783l6.787 8.783h12.246z"/></g><path d="M423.05 204.187a.9.9 0 0 1 .931.955.882.882 0 0 1-.931.939 1.059 1.059 0 0 1-1.132-.939 1.071 1.071 0 0 1 1.132-.955zM423.05 210.232a.882.882 0 0 1 .931.939.9.9 0 0 1-.931.955 1.071 1.071 0 0 1-1.132-.955 1.058 1.058 0 0 1 1.132-.939zM423.05 216.089a1.048 1.048 0 0 1 .931 1.127.883.883 0 0 1-.931.94 1.059 1.059 0 0 1-1.132-.94 1.219 1.219 0 0 1 1.132-1.127zM423.05 222.117a.887.887 0 0 1 .931.955 1.049 1.049 0 0 1-.931 1.128 1.22 1.22 0 0 1-1.132-1.128 1.06 1.06 0 0 1 1.132-.955zM423.05 228.162a.883.883 0 0 1 .931.94.883.883 0 0 1-.931.939 1.059 1.059 0 0 1-1.132-.939 1.059 1.059 0 0 1 1.132-.94zM423.05 234.207a.883.883 0 0 1 .931.94.883.883 0 0 1-.931.939 1.059 1.059 0 0 1-1.132-.939 1.059 1.059 0 0 1 1.132-.94z" class="f"/><g class="f"><path class="p" d="M412.045 209.48l11.376-8.112-.56-.376-5.967-.188-5.031 5.841.182 2.835z"/></g><g class="f"><path class="p" d="M434.055 209.668l-11.376-8.112.742-.375 5.773-.189 5.043 5.841-.182 2.835z"/></g><g class="f"><path class="q" d="M440.764 218.343l-6.71 16.991a40.785 40.785 0 0 1-5.05 4.713l-.371-.375a117.717 117.717 0 0 0 2.616-12.638c0-.188 0-.188.189-.188.742-4.541 2.427-17.346 2.427-17.346h.439a7.589 7.589 0 0 1 .2-2.083v-.375a19.354 19.354 0 0 0 .4-3.21c.2-1.315.4-2.819.6-4.15v-.772s-.333-.188-.151-.188a21.9 21.9 0 0 1 1.151-5.856v-.376l-.22.188 2.8.955.742 10.743.56 7.751z"/></g><g class="f"><path class="q" d="M407.828 193.145l-2.226 24.9 6.9 17.367v5.088h3.735l1.666-1.315s-3.913-12.449-7.46-47.185z"/></g><g class="f"><path class="m" d="M431.5 190.608l3.546 1.317-2.062 3.586-3.54 1.707 2.056-5.668v-.942z"/></g><g class="f"><path class="m" d="M411.492 191.925l3.157 4.714 1.132-4.526-1.321-1.505-2.968 1.317z"/></g><g class="f"><path class="r" d="M411.571 191.925s7.068 8.488 11.929 8.879v.752s-7.64 3.21-11.376 7.172a154.4 154.4 0 0 1-1.868-16.239z"/></g><g class="f"><path class="r" d="M434.618 191.925s-7.276 8.488-12.118 8.879v.752a1.978 1.978 0 0 0 .742.376c1.855.939 7.458 3.586 10.634 6.8a157.6 157.6 0 0 0 1.855-16.239z"/></g><path d="M446.355 163.611a22.842 22.842 0 1 1-22.934-23.2 23.029 23.029 0 0 1 22.934 23.2z" class="f"/><g class="f"><path class="m" d="M424.144 198.427c-5.9 0-10.644-3.774-10.644-10V180.5h19v7.923c0 6.23-2.666 10.004-8.356 10.004z"/></g><g class="f"><path class="m" d="M435.5 163.488V185a3.32 3.32 0 0 1-.924.751 18.914 18.914 0 0 1-6.3 2.832 24.757 24.757 0 0 1-5.363.566 23.207 23.207 0 0 1-5.189-.566A21.456 21.456 0 0 1 410.5 185v-21.512c0-6.593 5.195-6.988 11.475-6.988h2.048c6.294 0 11.477.395 11.477 6.988z"/></g><g class="f"><path class="s" d="M422.861 184.377a8.142 8.142 0 0 1-2.056-.191l-.742-.185c-.371 0-.553-.375-.371-.751 0-.375.371-.566.742-.566l.56.191a6.313 6.313 0 0 0 3.729 0l.742-.191c.371 0 .755.191.755.566a.56.56 0 0 1-.384.751l-.742.185a8.806 8.806 0 0 1-2.233.191z"/></g><g class="f"><path class="t" d="M425.276 175.888c0 .375-1.113.751-2.415.751s-2.427-.375-2.427-.751 1.113-.751 2.427-.751 2.415.375 2.415.751z"/></g><g class="f"><path class="m" d="M435.168 166.369a1.608 1.608 0 0 1 1.868-.942s1.673.191.931 3.4l-.371 1.5-.56 1.33-.572 1.693-.371.942a5.856 5.856 0 0 0-.553 1.708 1.375 1.375 0 0 1-1.113 1.5H433.3a86.186 86.186 0 0 0 .384-10.367z"/></g><g class="f"><path class="m" d="M410.92 166.369a1.811 1.811 0 0 0-1.855-.942s-1.874.191-1.119 3.4l.371 1.5.56 1.33.56 1.693.553.942a7.98 7.98 0 0 1 .371 1.706 1.642 1.642 0 0 0 1.132 1.5h1.113s-.182-2.628-.182-10.367z"/></g><path d="M416.705 171.178a.934.934 0 0 1 0-1.33.883.883 0 0 1 1.3 0 1.688 1.688 0 0 1 0 1.33.892.892 0 0 1-1.3 0zM426.968 170.975c-.377-.191-.377-.751 0-1.126s.924-.382 1.113 0c.371.375.371.936 0 1.126-.189.388-.742.388-1.113 0z" class="f"/><g class="f"><path class="t" d="M416.5 188.744a36.569 36.569 0 0 1-3-2.614v1.606c0 1.007 1.19 2.029 3 2.831v-1.824z"/></g><g class="f"><path class="t" d="M429.274 188.718a4.328 4.328 0 0 1 .182 1.515c1.3-.764 2.044-1.515 2.044-2.081v-1.5a22.961 22.961 0 0 1-2.226 2.066z"/></g><path d="M422.5 181.614c4 0 4 2.4 4 4.61v.546a2.586 2.586 0 0 1-1.649-.18 5.144 5.144 0 0 0-2.17-.751 9.582 9.582 0 0 0-2.188.564 2.614 2.614 0 0 1-1.992.366v-.546c-.001-2.214.184-4.609 3.999-4.609zm6.795 4.289a10.842 10.842 0 0 0-2.295-5.229 5.527 5.527 0 0 0-9.027 0 11.316 11.316 0 0 0-2.289 4.843 5.671 5.671 0 0 0-.187 1.754v3.495a7.87 7.87 0 0 0 2.095.389 20.929 20.929 0 0 0 5 .58 35.353 35.353 0 0 0 6.318-.772.7.7 0 0 1 .588-.2v-3.494a3.22 3.22 0 0 0-.206-1.369zM413.718 168.5s5.792-.955 6.9 0zM431.439 168.5s-5.792-.955-6.9 0zM376.986 209.104l-22.189-8.503 4.843-12.825 22.189 8.487-4.843 12.841z" class="f"/><g class="f"><path class="u" d="M374.185 204.187c1.873 11.525 4.1 22.847 4.487 34.545.185 6.985 11 6.985 10.8 0-.371-12.653-2.779-25.1-4.842-37.552-1.114-6.796-11.559-3.962-10.445 3.007z"/></g><path d="M375.315 221.553c-.758-6.029-2.43-16.411-2.615-17.743l13.431-2.255c.182 1.315 2.044 12.074 2.786 18.306zM332.608 208.916l-4.843-13.028 22.189-8.488 4.843 13.013-22.189 8.503z" class="f"/><g class="f"><path class="v" d="M364.5 148.516l-.186 2.457a22.423 22.423 0 0 0-8.587-1.311c-7.272 0-15.288.751-17.531 9.05-.186 9.444-1.114 31.522.387 32.839-.944 0 22.932 11.134 31.69-1.5 2.615-3.774 0-8.693.928-13.785 2.799-12.655.756-26.605-6.701-27.75z"/></g><g class="f"><path class="u" d="M362.07 177.5l.557 11.328 7.087 3.4c-1.857 1.128-10.816 4.338-15.473 4.338-4.472 0-13.617-3.022-15.659-4.15l7.071-3.4.758-11.513h15.659z"/></g><g class="f"><path class="u" d="M365.613 174.182c2.8 0 4.843-2.253 4.472-6.027-.372-3.589-2.8-7.172-5.4-7.172z"/></g><g class="f"><path class="u" d="M343.053 174.182c-2.986 0-5.044-2.253-4.657-6.027.371-3.589 2.785-7.172 5.586-7.172z"/></g><g class="f"><path class="u" d="M354.24 185.879c2.8 0 3.543-.751 3.729-1.311 8.015-3.023 9.315-12.83 10.259-19.627l-1.5-8.687c-.928-4.525-8.015-8.49-12.487-8.49-4.286 0-11.373 3.965-12.317 8.49l-1.485 8.687c.928 6.8 2.244 16.6 10.259 19.627.184.56.927 1.311 3.542 1.311z"/></g><path d="M360.584 166.634a1.2 1.2 0 0 1-1.129-1.126 1.049 1.049 0 0 1 1.129-.942 1 1 0 0 1 .929.942 1.046 1.046 0 0 1-.929 1.126zM348.081 166.634a.936.936 0 0 0 .929-1.126.884.884 0 0 0-.929-.942 1.037 1.037 0 1 0 0 2.068z" class="f"/><g class="f"><path class="v" d="M372.329 163.653c-.186-6.606-2.058-12.085-5.416-14.345a3.609 3.609 0 0 0-2.6-1.139S363 144.4 354.24 144.4c-7.83 0-16.232 3.583-16.232 17.177-.185 3.023 4.858 7.732 4.673-.375.928-8.878 1.485-12.467 11.559-11.322 1.114.185 2.228-.375 3.543-.375h.557c9.7 1.126 5.973 16.222 11.745 19.054.185 0 1.315.375 1.872-2.081.185-.948.372-2.825.372-2.825z"/></g><g class="f"><path class="w" d="M362.255 181.5v.23a16.343 16.343 0 0 1-2.8 2.081l-.186.191c-.185 0-.372.185-.557.185-.185.191-.557.191-.743.382a.648.648 0 0 0-.185.375c-.186.185-.557-.444-.557-.444h-.186l-.186 1h-.387a2.479 2.479 0 0 0-.371 1h-1.115c-.185-.62-.372-.62-.743-.62-.186 0-.372 0-.557.62h-1.316l-.185-1H351.253a2.63 2.63 0 0 0-.372-.556.591.591 0 0 1-.185-.375.4.4 0 0 0-.557-.069h-.371l-.186-.5c-.186 0-.186 0-.387-.191a29.106 29.106 0 0 1-2.694-1.89v-.191s-.276 0-.276-.185l-.185.955a15.482 15.482 0 0 0 4.658 3c.185.375.928 1.33 3.544 1.33 2.8 0 3.543-.955 3.729-1.33a19.666 19.666 0 0 0 4.53-2.819V181.5z"/></g><g class="f"><path class="x" d="M354.24 179.853a19.121 19.121 0 0 1-4.286-.566.672.672 0 0 1 .186-1.33 15.514 15.514 0 0 0 8.387 0 .6.6 0 0 1 .557.566c.185.2 0 .579-.372.764a19.462 19.462 0 0 1-4.472.566z"/></g><g class="f"><path class="y" d="M354.5 165.577v7.923h-2.986a1.448 1.448 0 0 1 .371-.751 3.677 3.677 0 0 0 1.115-2.266l.185-3.589c0-.942 1.13-1.317 1.315-1.317z"/></g><g class="f"><path class="w" d="M357.412 173.5a1.06 1.06 0 0 1-1.129.873c-.186 0-.372.185-.743.579a2.128 2.128 0 0 1-1.3.56 4.2 4.2 0 0 1-1.316-.56c-.185-.4-.371-.579-.557-.579-.743 0-1.114-.566-.867-.942v-.931h6v1z"/></g><g class="f"><path class="o" d="M341.5 174.952v-2.087c-.32-.185-.877-.185-1 0v2.087c.123.376.68.376 1 0z"/></g><path d="M339.881 175.7a.882.882 0 0 0 .929.936 1.043 1.043 0 0 0 1.114-.936 1.221 1.221 0 0 0-1.114-1.146 1.066 1.066 0 0 0-.929 1.146z" class="f"/><g class="f"><path class="o" d="M367.5 174.952v-2.272c.356-.191-.031-.191 1 0v2.272c-1.03.185-.644.185-1 0z"/></g><path d="M366.727 175.512a.936.936 0 1 0 .944-.955.9.9 0 0 0-.944.955z" class="f"/><g class="f"><path class="v" d="M342.5 161.5s13.973-6.981 15.474-11.882l-5.23-1.9-8.572 2.832-1.671 7.739v3.211z"/></g><g class="f"><path class="v" d="M367.5 160.232s-11.93-6.046-13.23-10.386l4.658-1.515 7.272 2.269 1.3 6.988v2.647z"/></g><path d="M372.7 200.992a7.153 7.153 0 0 0 5.029 8.488 6.822 6.822 0 0 0 8.214-4.9 6.743 6.743 0 0 0-4.856-8.5 6.94 6.94 0 0 0-8.387 4.912zM354.5 246.281c.3-.188.111-.188.111-.188-1.872-1.143-3.729-2.271-5.6-3.586a5.666 5.666 0 0 0-1.3-.94c-.186-.2-.372-.391-.372-.391a2.579 2.579 0 0 1-.743-.564c-.944-.752-1.687-1.5-2.615-2.255a63.381 63.381 0 0 1-11.373-13.029 19.316 19.316 0 0 1-.107-3.21v-1.1l-.6-12.262-.2-2.458-.2-3.962v-2.459l3.4-.188 1.017-.188h.79l6.9-.215 2.244-.188 6.143-.376a19.162 19.162 0 0 0 2.058-.221h.446v47.781z" class="f"/><path d="M360.955 249.3c.185.188.557.188.928.376.186 0 .372.188.743.376a65.016 65.016 0 0 0 13.8 3.774c.372-21.329.072-21.329.072-21.329v-7.924l1-.375V219.3l-.329-2.458c.186-1.9.329-1.9.329-1.9V207.393l1-.188v-1.691l-1-2.458v-2.834l-2.558-.188c-1.129-.188-1.129-.539-1.129-.539h-1.486l-6.159-.213-2.986-.188-6.9-.376a2.728 2.728 0 0 1-.743-.223H354.5v47.594c.109 0 .295 0 .295.188 1.3.563 2.615 1.315 3.914 1.879.186.188.372.188.557.376.557.188.928.391 1.5.579z" class="f"/><g class="f"><path class="u" d="M335.5 203.363v.448a14.292 14.292 0 0 0-.463 2.459c-.185.375-.537 1.127-.537 1.127v.7c0 .19-.187.571-.187.762-.753 4.2-1.317 8.407-1.881 12.613a.707.707 0 0 0-.187.571c-.188.951-.188 1.92-.377 2.872-.753-1.332-1.52-2.491-2.273-3.824a71.32 71.32 0 0 1-6.035-14.151c0-.571.188-.952.188-1.332.188-1.539.564-2.872.753-4.2v-.377a4.851 4.851 0 0 1 3.475-4.116 6.6 6.6 0 0 1 6.741 3.127c.208.195.208.389.4.584 0 .211 0 .211.192.4a8.505 8.505 0 0 0 .192.973l-.001 1.364z"/></g><path d="M337.5 203.325v.193c-.19.58-.19 1.176-.381 1.755a6.925 6.925 0 0 1-.382 1.932c-.19 1.562-.382 3.107-.573 4.862-.573 3.494-3.35 13.421-1.862 15.363a52.918 52.918 0 0 1-4.088-6.251 72.38 72.38 0 0 1-6.125-14.361c-.4-1.16-.588-2.318-.971-3.494a8.571 8.571 0 0 0 .381-1.932v-.386l1.543.193 5.552.965 1.353.193 4.025.58z" class="f"/><path d="M336.709 200.6a6.861 6.861 0 1 1-13.245 3.586 7.019 7.019 0 0 1 4.859-8.488 6.91 6.91 0 0 1 8.386 4.902z" class="f"/><g class="f"><path class="z" d="M366.5 192.865v.766l-.33 5.653-.371 5.669-.186 6.4c-.371 8.5-1.113 8.5-1.113 8.5v.375l1 4.15v5.922l-4.387 13.953-1.346 3.962c-.189-.188-.381-.188-.57-.376-1.331-.563-2.677-1.315-4.006-1.879a.186.186 0 0 0-.19-.188c-1.916-1.143-3.817-2.271-5.733-3.586a5.8 5.8 0 0 0-1.331-.94l-.19-1.9-.381-2.083L342.6 206.7l.38-2.067.761-5.669.381-2.271.38-2.819v-.188l.19-.955a6.366 6.366 0 0 0 1.346.391c.381.188.761.188 1.14.376h-.022a28.183 28.183 0 0 0 3.729.88.467.467 0 0 1 .372.12h1.3a14.959 14.959 0 0 0 4.487.068 22.91 22.91 0 0 0 6.143-.752 26.689 26.689 0 0 0 3.313-.949z"/></g><path d="M361.067 249.6c.377-.779.942-1.542 1.32-2.306l.942-1.908a.648.648 0 0 0 .189-.4l1.146-3.451 4.352-13.787 2.655-8.237 2.451-7.856.189-.207.188-.764v.108l.241-1.5a.839.839 0 0 1 .759-.564v-.955s-.76-.94-.945-1.128l-.186-.188-.929-.376-.371-.188-2.615-1.128 2.058-1.518.928-.752c.743-.563.743.005.743.005h.186l-.186-.756-.371-1.9-.186-.752-1.485-4.714c-.371-1.518-.641-1.518-.641-1.518v-.36h.229l-2.379-1.128-.363-.188-3.286-1.314-2.743-1.33c.182 0 .182.185.182.56a29.791 29.791 0 0 1 .363 4.918v5.277a19.114 19.114 0 0 1 0 3.586v1.127l-.363 7.172a3.852 3.852 0 0 0-.182 1.519c-.181 1.128-.181 2.443-.363 3.774 0 1.315-.181 2.631-.181 4.15-.182 1.127-.182 2.255-.364 3.4-.181 2.255-.364 4.714-.546 6.8v-.011l-1 10.179v1.137a33.88 33.88 0 0 1-1.713 6.312c.189.191.378.191.566.382.566.191.942.4 1.524.588z" class="f"/><g class="f"><path class="u" d="M351.254 194.572l2.986 17.367 2.801-17.367-.372-1.519-5.415 1.519z"/></g><path d="M349.5 241.754c-.49 0-.862-3.586-1.233-8.5a5.252 5.252 0 0 0-.186-1.691c-.557-8.112-1.485-18.87-1.671-23.02l.186 2.067c-.557-6.984-1.1-6.984-1.1-6.984v-14.079l-.191-.538-6.544 3.052-.544.179-2.117 6.46-.354 1.072-.176.536-.177.55-.177.715.354.179 1.411 1.071 1.779 1.444-2.132.892-.354.179-1.059.536a1.231 1.231 0 0 0-.72 1.607v.374l.189.766 1.15 3.268 8.54 26.707c.945.766 1.7 1.53 2.663 2.3a2.625 2.625 0 0 0 .757.574s.189.191.379.4a5.769 5.769 0 0 1 1.324.957zM365.984 168.419a1.74 1.74 0 0 1-.743 1.126 4.024 4.024 0 0 1-.929.566 8.731 8.731 0 0 1-3.172.375 5.611 5.611 0 0 1-2.986-.566 6.058 6.058 0 0 1-1.485-2.647c-.2-.751-.572-1.693 0-2.444a4.159 4.159 0 0 1 2.6-1.126c.928-.2 2.058-.2 2.986-.388a12.524 12.524 0 0 1 2.615.185h.557c2.043.578 1.114 3.589.557 4.919zm-13.613-1.144a6.063 6.063 0 0 1-1.485 2.647 5.637 5.637 0 0 1-2.986.566 8.691 8.691 0 0 1-3.172-.375c-.557-.191-.929-.375-1.114-.757s-.372-.56-.557-.936c-.371-.942-.944-2.647-.557-3.774v-.191a1.989 1.989 0 0 1 1.114-.955h.372a14.173 14.173 0 0 1 2.8-.185c.929.185 2.042.185 2.986.388a4.167 4.167 0 0 1 2.6 1.126c.556.753.184 1.695-.001 2.446zm15.524-4.378c0-.2 0-.2-.2-.4H363a30.6 30.6 0 0 1-3.915.552 17.6 17.6 0 0 1-3.915.448h-1.486a17.49 17.49 0 0 1-3.915-.448 904.26 904.26 0 0 0-3.915-.552h-3.725a1.416 1.416 0 0 1-.937.19c-.185 0-.368 0-.368.372a3.9 3.9 0 0 0 0 2.066c0 .184.184.184.184.372h-1.577a1.485 1.485 0 0 0 .394.8c.2.6.2 1.214.393 1.808a5.3 5.3 0 0 0 1.395 2c.2.2.393.2.59.4a13.641 13.641 0 0 0 3.952.614 7.292 7.292 0 0 0 3.557-.614 6.157 6.157 0 0 0 1.968-2.987l.2-.2c0-.411.213-.614.213-1.012.2-.2.2-.4.2-.8-.2-.8.787-.8 1.181-.8s1.378 0 1.181.8c0 .4 0 .6.2.8a3.031 3.031 0 0 0 .394 1.214 6.182 6.182 0 0 0 1.984 2.987 7.264 7.264 0 0 0 3.557.614 13.743 13.743 0 0 0 3.953-.614l.2-.2a3.317 3.317 0 0 0 1.771-2.191c.2-.593.2-1.207.394-1.808a1.526 1.526 0 0 0 .41-.8c.2-.2.394-.2.394-.4a8.954 8.954 0 0 0 .2-1c-.02-.597-.02-1.016-.217-1.208z" class="f"/><g class="f"><path class="aa" d="M413.536 231.184l-26.292-10.006 5.773-15.472 26.304 10.194-5.785 15.284z"/></g><g class="f"><path class="j" d="M426.4 241.893c-.735.549-1.641 1.281-2.542 1.83-.184 0-.184 0-.361.183a72.411 72.411 0 0 1-9.09 4.972c-.184-.93-.184-1.846-.361-2.76-.184-1.846-.545-3.676-.723-5.339a34.4 34.4 0 0 1-.729-4.225c0-.366-.177-.916-.177-1.281-.361-1.663-.557-3.127-.918-4.592v-.381c0-.365-.184-.549-.184-.732-.177-1.647-.539-3.31-.723-4.775a5.778 5.778 0 0 1 .723-4.225 5.981 5.981 0 0 1 2.371-2.394 5.1 5.1 0 0 1 2.181-.732 4.969 4.969 0 0 1 3.271.183 6.622 6.622 0 0 1 3.994 4.775c.184.183.184.183.184.366 0 .564.184.93.184 1.479v.183c.177.549.177 1.1.361 1.647 0 .366.177.748.177 1.3 0 .365.184.732.184 1.1.539 2.944 1.084 6.254 1.623 9.564.184 1.276.361 2.561.555 3.854z"/></g><g class="f"><path class="aa" d="M426.779 241.754c-.189 0-.371.188-.56.376-.755.564-1.685 1.315-2.61 1.879-.189 0-.189 0-.371.188a74.342 74.342 0 0 1-9.332 5.1c-.189 0-.189 0-.371.188-.742.188-1.49.564-2.044.752-.943-7.172-1.874-15.472-2.427-20.765 0-.564-.189-1.128-.189-1.5-.182-1.315-.371-2.271-.375-2.835v-.188l1.488-.376 4.1-.564.56-.188 1.874-.188c5.584-1.143 5.584-2.135 5.584-2.135h.943l.189 1h.371l.891-.384v.188c.4 2.271 1.146 8.128 1.907 15.864a21.367 21.367 0 0 1 .372 3.588z"/></g><g class="f"><path class="aa" d="M408.694 221.366a8.126 8.126 0 1 0 15.658 4.338 8.444 8.444 0 0 0-5.792-10.179 8.108 8.108 0 0 0-9.866 5.841z"/></g><g class="f"><path class="aa" d="M360.955 249.3c.185.188.557.188.928.376.186 0 .372.188.743.376a65.016 65.016 0 0 0 13.8 3.774 33.65 33.65 0 0 0 4.1.671h.743a25.864 25.864 0 0 1 5.6 1h.627v-37h-1.187l-1.868 1h-1.859l-2.986-.4c-1.5.2-1.5.4-1.5.4h-3.156l-3.543.177c-5.973.563-5.973.823-5.973.823h-.186l-3.172-.072c-2.615.188-2.569.188-2.569.188v2.835l1 4.9v2.835l-.1 9.8a22.62 22.62 0 0 1 .1 3.586v2.27l.269 2.271z"/></g><g class="f"><path class="aa" d="M360.77 230.809l-5.787-15.284 26.289-10.195 5.79 15.472-26.292 10.007z"/></g><g class="f"><path class="aa" d="M414.831 220.614l-.182 3.21c-.189 2.067-1.149 2.067-1.149 2.067v.188l1 3.022v2.458l-.782 9.427c-.182 5.481-.218 5.481-.218 5.481v3.022c-.706.188-1.454.564-2.008.752a63.213 63.213 0 0 1-14.746 3.962 20.089 20.089 0 0 1-4.1.3h-.56a15.379 15.379 0 0 0-4.653 1h-.933v-37h1.675l.371 1h7.269l2.434-.2c1.855.188 1.855.2 1.855.2h.384l5.219.362c3.358.375 3.358-.362 3.358-.362h1.666l2.8 1h.182z"/></g><g class="f"><path class="aa" d="M360.665 250.611c.185.2.556.2.926.4a14.253 14.253 0 0 1 .371-2.794c.742-6.383 1.668-12.353 2.61-17.331 0-.611.186-1.008.186-1.405a44.176 44.176 0 0 0 .742-4.382v-.6h.186l-.926-.2-3.352-.6-2.24-.4-1.668-.2-2.98-.611h-.186l-4.834-.992v.595c-.371 1.8-.572 3.588-.942 5.788a38.487 38.487 0 0 1-.742 3.985c-.185 1.984-.556 4.184-.926 6.366-.186 1.008-.37 2.2-.556 3.191a2.6 2.6 0 0 0 .742.6s.186.2.371.413a5.675 5.675 0 0 1 1.3.993c1.869 1.389 3.722 2.58 5.591 3.787a.186.186 0 0 1 .186.2c1.3.595 2.61 1.389 3.907 1.984.186.2.371.2.556.4.556.2.926.413 1.5.611z"/></g><g class="f"><path class="aa" d="M360.666 250.611c.185.2.556.2.926.4.186 0 .371.2.742.4.186-1.8.371-3.391.556-5.176.742-6.383 1.5-12.568 2.054-16.949.186-1.787.37-3.191.556-4.184v-.6h.186l-.926-.2-3.352-.6-2.24-.4-1.668-.2-2.98-.611h-.186l-4.834-.992v.595c-.371 2.2-.942 6.383-1.5 11.559-.186 2.2-.556 4.382-.742 6.78a4.65 4.65 0 0 0-.186 1.587s.186.2.371.413a5.675 5.675 0 0 1 1.3.993c1.869 1.389 3.722 2.58 5.591 3.787a.186.186 0 0 1 .186.2c1.3.595 2.61 1.389 3.907 1.984.186.2.371.2.556.4.556.2.926.413 1.5.611z"/></g><g class="f"><path class="aa" d="M365.8 220.99a8.376 8.376 0 0 1-5.787 10.195 8.243 8.243 0 0 1-10.058-5.857 8.455 8.455 0 0 1 5.771-10.194 8.347 8.347 0 0 1 10.074 5.856z"/></g><g class="f"><path class="aa" d="M365.613 211.359l6.901-2.631 1.485 3.211-8.386-.58z"/></g><g class="f"><path class="l" d="M375.5 213.63s8.757 8.112 21.629 0l-19.772-2.459z"/></g><g class="f"><path class="u" d="M381.829 208.916l-7.087 2.819a7.967 7.967 0 0 0 .944 3.4.729.729 0 0 1 .185.579l10.26 9.427 11-11.51z"/></g><g class="f"><path class="ab" d="M399.5 208.5v.416a54.633 54.633 0 0 0-1 5.466v.482c-.181 1.331-.181 2.835-.355 4.354 0 .188-.181.188-.181.376-.174 1.691-.355 3.586-.536 5.465-.355 2.458-.53 5.293-.9 7.924-.885 6.984-1.951 13.969-3.024 18.682v.564a11.628 11.628 0 0 1-.548 1.519c0 .376-.174.564-.174.752h-.692a17.631 17.631 0 0 0-4.653 1h-.56a23.83 23.83 0 0 0-5.6-1h-.743a10.035 10.035 0 0 0-1.029-3.129v-.564c-.828-4.714-1.772-11.51-2.7-18.306-.372-2.458-.743-5.089-.929-7.36a26.276 26.276 0 0 1-.371-3.586 7.468 7.468 0 0 0-1-1.879v-.188a49.718 49.718 0 0 0-.316-8.691 2.333 2.333 0 0 0-.684-1.879v-.376l1.242.752.387.563.929 1.315.743.955.557.752 2.429 3.211.557.564a2.2 2.2 0 0 1 .185.846h11.745l.553-1.035.189-.188.384-.564 1.861-2.271.182-.188.189-.188 3.358-4.338c.371-.188-.49-.188-.49-.188v-.04z"/></g><g class="f"><path class="aa" d="M392.5 254.58a35.158 35.158 0 0 1-5.067-.08h-.56a21.333 21.333 0 0 1-5.373.08v-5.28a27.765 27.765 0 0 1-.043-5.857c.186-6.609.944-12.826.944-12.826.186-2.082 2.415-5.1 2.415-5.1a7.717 7.717 0 0 1-1.673-2.255c-.186-.391.357-.955.357-.955v-.188s-.913-.188-.913-.375a2.724 2.724 0 0 1-.387-1.128.183.183 0 0 1-.186-.188.8.8 0 0 0-.514-.752v-.188c.329 0 .514-.188 1.087-.579.185-.188.556-.376.743-.564.185 0 .371-.188.556-.188a10.535 10.535 0 0 1 1.484-.94c.189 0 .371 0 .371-.715h.2c.189.527.371 0 .371 0h.377l.182 1h.371a7.3 7.3 0 0 1 .742-1.225c0 .188-.371.188-.742.376a.159.159 0 0 1-.182-.151h.182c0 .527.189.527.189.527.182 0 .182 0 .371.188a1.424 1.424 0 0 1 .742.376 8.921 8.921 0 0 1 2.245 1.315 2.057 2.057 0 0 1 .71.579v.188c-.157.188-.157.563-.339.939a17.807 17.807 0 0 0-.56 1.691 8.558 8.558 0 0 1-2.056 3.211s2.245 3.022 2.245 5.1c0 0 1.484 10.946 1.113 18.682.182 2.443.6 2.443.6 2.443v2.836z"/></g><g class="f"><path class="ac" d="M377.728 207.209l-.371-.376-2.042.752 2.228 2.271.371-1.691-.186-.956z"/></g><g class="f"><path class="ac" d="M398.249 207.585l-2.249-.752a25.555 25.555 0 0 1-.189 3.4z"/></g><g class="f"><path class="ac" d="M386.728 216.784c-5.278 0-9.228-3.21-9.228-8.488v-6.8h19v6.8c0 5.278-4.512 8.488-9.772 8.488z"/></g><g class="f"><path class="ac" d="M403.5 189.808c0 1.346-.913 2.692-1.833 2.692h-31.332c-.917 0-1.835-1.344-1.835-2.692v-5.6c0-1.536.918-2.706 1.835-2.706h31.332c.92 0 1.833 1.172 1.833 2.706z"/></g><g class="f"><path class="ac" d="M372.5 174.5v24.41a4.121 4.121 0 0 0-.172.939 4.567 4.567 0 0 0 .371 1.519 3.928 3.928 0 0 0 .743 1.127c.186.376.372.564.557.94.185 0 .185 0 .372.188a9.031 9.031 0 0 0 1.315.955c.557.188 1.114.564 1.671.752a.6.6 0 0 1 .371.17h.185c.186.206.186.206.372.206.387.188.758.188 1.129.376s.743.188 1.114.376c.371 0 .928.188 1.3.188a14.476 14.476 0 0 0 2.8.376c.189 0 .742.478.742.478h1.692a10.237 10.237 0 0 1 2.037-.478 24.6 24.6 0 0 0 3.547-.522h.182l.189-.23c.384 0 .572-.188.943-.188a.632.632 0 0 0 .371-.188c.189 0 .56-.394.56-.394h.655a1.383 1.383 0 0 1 .921-.377c0-.188.188-.188.37-.188.389-.188.759-.377 1.128-.565a6.658 6.658 0 0 0 2.407-2.086 5.834 5.834 0 0 0 1.128-3.591V174.5h-29z"/></g><g class="f"><path class="ad" d="M401.5 173.287v16.347l-2.238-1.135-.558-9.312c-7.616 1.327-16.733.192-23.228-3.424l-.941 12.737H372.5v-15.213c0-7.606 5.939-11.787 13.373-11.787h2.419c7.253 0 13.208 4.181 13.208 11.787z"/></g><path d="M381.644 184.377a1.244 1.244 0 0 1-1.3 1.126 1.2 1.2 0 0 1-1.114-1.126 1.253 1.253 0 0 1 1.114-1.317 1.279 1.279 0 0 1 1.3 1.317zM391.715 184.377a1.247 1.247 0 0 0 1.3 1.126 1.207 1.207 0 0 0 1.132-1.126 1.256 1.256 0 0 0-1.132-1.317 1.281 1.281 0 0 0-1.3 1.317z" class="f"/><g class="f"><path class="ae" d="M377.5 207.21a15.688 15.688 0 0 0 2.825.759 24.461 24.461 0 0 0 6.592.964 27.146 27.146 0 0 0 6.771-.964c.939-.19 1.878-.569 2.811-.759v-1.9s-1.872.569-2.811.949a27.582 27.582 0 0 1-6.771.759 25.038 25.038 0 0 1-6.592-.759 24.673 24.673 0 0 1-2.825-.949z"/></g><g class="f"><path class="ae" d="M386.5 192.5v2.082c.371 0 .925 0 1.113-.376a3.841 3.841 0 0 1 2.056-.752 1.042 1.042 0 0 0 1.113-.955H386.5z"/></g><g class="f"><path class="ae" d="M386.5 192.5v2.082a1.8 1.8 0 0 1-1.321-.376 2.814 2.814 0 0 0-1.854-.752 1.045 1.045 0 0 1-1.114-.955h4.289z"/></g><g class="f"><path class="af" d="M386.5 184.2v8.3h-4.289a1.044 1.044 0 0 1 1.114-.94c.93-.939 1.483-3.965 1.483-5.842a1.577 1.577 0 0 1 1.692-1.518z"/></g><g class="f"><path class="ag" d="M386.691 200.037a19.52 19.52 0 0 1-4.49-.564c-.371-.188-.557-.375-.557-.752a.993.993 0 0 1 .758-.564 15.879 15.879 0 0 0 8.389 0c.371 0 .742.188.742.564.182.376 0 .564-.371.752a20.884 20.884 0 0 1-4.471.564z"/></g><g class="f"><path class="ad" d="M385.499 201.5h3.001v6h-3.001z"/></g><path d="M401.236 182.309c-.189 0-.377-.2-.748-.2a5.865 5.865 0 0 0-1.868-.185 18.137 18.137 0 0 0-3.358-.375 46.324 46.324 0 0 0-5.031.56c-1.132.2-1.874.4-1.874-.605h-3.169c0 1-.742.809-1.858.605a46.754 46.754 0 0 0-5.044-.56 20.464 20.464 0 0 0-3.543.375c-.743 0-1.3.185-1.671.185s-.743.2-.743.395h-.186c0-.191-.185 0-.643.184v1.126c.458.191.643.191.643.375a.669.669 0 0 1 .557.191 20.862 20.862 0 0 1 .743 3.208.7.7 0 0 1 .186.566 2.279 2.279 0 0 0 .929.942 5.8 5.8 0 0 0 3.729 1.139c2.986 0 4.3-.56 5.6-2.272a4.347 4.347 0 0 0 1.113-1.69 5.944 5.944 0 0 1 1.132-1.706c.182 0 .371-.191.742-.191 1.113 0 1.484 1.9 2.8 3.583 1.3 1.712 2.6 2.272 5.59 2.272a5.742 5.742 0 0 0 3.729-1.139 2.616 2.616 0 0 0 .742-.566c.182-.185.182-.566.371-.942a20.407 20.407 0 0 1 .755-3.208c0-.191.189-.191.377-.191.182-.185.371-.185.264-.375v-1.126a.267.267 0 0 0-.266-.375z" class="f"/><g class="f"><path class="ah" d="M372.885 183.436c-.185 0-.371-.185-.557-.185a.67.67 0 0 1 .557-.191c.372 0 .557 0 .743.191-.186 0-.371.185-.743.185z"/></g><g class="f"><path class="ah" d="M400.676 183.436c-.39 0-.572-.185-.761-.185.189-.191.371-.191.761-.191a.683.683 0 0 1 .56.191c-.189 0-.378.185-.56.185z"/></g><g class="f"><path class="ai" d="M376.058 224.764l11.186-7.924-.742-.376-5.787-.188-5.029 5.654.372 2.834z"/></g><g class="f"><path class="ai" d="M397.5 224.952l-11.187-7.924.749-.376 5.766-.188 4.861 5.653-.189 2.835z"/></g><g class="f"><path class="ab" d="M375.753 207.585s6.885 8.315 11.747 8.691v.752s-7.46 3.21-11.19 7.172a148.755 148.755 0 0 1-1.872-16.036z"/></g><g class="f"><path class="ab" d="M398.435 207.585s-7.276 8.315-11.935 8.691v.752a2.07 2.07 0 0 0 .748.376c1.855.752 7.458 3.586 10.439 6.8a157.7 157.7 0 0 0 1.861-16.036z"/></g><g class="aj"><path class="ak" d="M331.925 164.209c0 36.988-29.643 66.992-66.191 66.992-36.736 0-66.383-30-66.383-66.992 0-37.179 29.647-67.18 66.383-67.18 36.548.001 66.191 30.001 66.191 67.18z"/></g><g class="aj"><path class="z" d="M263.489 181.576l-22.932-8.879 5.029-13.203 22.946 8.677-5.043 13.405z"/></g><g class="aj"><path class="z" d="M261.632 194.213c-.557-6.045-2.43-16.975-2.615-18.118L273 173.652c.189 1.315 2.044 12.449 2.8 19.058z"/></g><g class="aj"><path class="o" d="M217.625 181.2l-5.044-13.405 22.947-8.677 5.029 13.391-22.932 8.691z"/></g><path d="M250.63 118.922l-.186 2.444a29.224 29.224 0 0 0-8.959-1.317c-7.458 0-15.659.751-18.088 9.444-.186 9.616-1.114 32.444.372 33.965-.928-.191 23.69 11.509 32.633-1.706 2.8-3.774 0-8.865 1.129-14.345 2.785-12.829.743-27.358-6.901-28.485z" class="aj"/><g class="aj"><path class="i" d="M248.015 148.5l.743 11.7 9.516 4.149c-2.058 1.126-12.688 3.774-17.531 3.774-4.657 0-15.1-3.208-17.16-4.34l7.644-3.4.573-11.883h16.215z"/></g><g class="aj"><path class="i" d="M251.744 145.524c2.986 0 5.029-2.457 4.658-6.415-.372-3.774-2.971-7.363-5.586-7.363z"/></g><g class="aj"><path class="i" d="M228.441 145.524c-2.986 0-5.23-2.457-4.673-6.415.387-3.774 2.8-7.363 5.6-7.363z"/></g><g class="aj"><path class="i" d="M240 157.413c2.8 0 3.729-.751 3.915-1.317 8.2-3.023 9.516-13.212 10.445-20.2l-1.5-9.05c-.929-4.716-8.2-8.674-12.858-8.674-4.472 0-11.744 3.958-12.688 8.674l-1.671 9.05c.929 6.988 2.43 17.177 10.63 20.2.183.566.927 1.317 3.727 1.317z"/></g><path d="M245.972 137.6a1.082 1.082 0 0 1-1.129-1.139 1.2 1.2 0 0 1 1.129-1.126 1.181 1.181 0 0 1 .928 1.126 1.049 1.049 0 0 1-.928 1.139zM234.213 137.6a1.133 1.133 0 0 0 0-2.265c-.557.185-1.114.56-1.114 1.126a1.2 1.2 0 0 0 1.114 1.139z" class="aj"/><path d="M258.645 135.219c-.186-6.8-2.058-12.639-5.6-14.911a3.646 3.646 0 0 0-2.6-1.126s-1.5-3.958-10.444-3.958c-8.015 0-16.789 3.774-16.789 17.724-.186 3.214 4.487 14.536 4.286 6.237.944-9.056 2.058-19.436 12.5-18.119 1.114 0 2.429-.566 3.729-.566h.372c10.073 1.126 6.344 16.8 12.3 19.621 0 0 1.315.579 1.872-2.068.188-1.141.374-2.834.374-2.834z" class="aj"/><g class="aj"><path class="al" d="M248.5 153.5h-.3c-1.114.705-2.042 1.456-2.8 1.844a.569.569 0 0 1-.372.191c-.186.185-.186.185-.371-.035h-.186c-.186.411-.371.411-.557.595-.186.566-1.114 1.317-3.915 1.317s-3.544-.751-3.729-1.317c-.186 0-.372-.185-.557-.185a.669.669 0 0 0-.557-.191 13.876 13.876 0 0 1-3.172-2.457c-.186 0-.186-.191-.484-.191v.942a17.04 17.04 0 0 0 4.77 3.023c.185.566.928 1.317 3.729 1.317s3.729-.751 3.915-1.317a16.925 16.925 0 0 0 4.586-3.023v-.513z"/></g><g class="aj"><path class="am" d="M240 151.182a20.774 20.774 0 0 1-4.472-.566c-.372-.185-.557-.375-.372-.751 0-.375.372-.566.743-.566a15.771 15.771 0 0 0 8.387 0c.372 0 .743.191.743.566.185.376 0 .566-.371.751a21.024 21.024 0 0 1-4.658.566z"/></g><path d="M230.3 134.2c-.186 0-.372 0-.372-.185s0-.376.186-.376c.557-.191 5.787-1.146 6.9 0a.351.351 0 0 1 0 .56.253.253 0 0 1-.372 0c-.742-.75-4.285-.375-6.343 0zM249.7 134.2c-2.058-.375-5.6-.751-6.344 0 0 .191-.372 0-.372 0a.351.351 0 0 1 0-.56c1.114-1.146 6.329-.191 6.9 0 .186 0 .186.185.186.376s-.183.184-.37.184z" class="aj"/><g class="aj"><path class="an" d="M240.5 136.182v8.318h-3.172c.186-.375.186-.566.557-.77A4.889 4.889 0 0 0 239 141.1l.2-3.589c0-.935 1.114-1.329 1.3-1.329z"/></g><g class="aj"><path class="ao" d="M243.172 144.5c0 .56-.371.936-1.129.936-.185 0-.185.376-.557.566a2.1 2.1 0 0 1-1.485.566 2 2 0 0 1-1.3-.566 1.386 1.386 0 0 1-.572-.566c-.743 0-1.3-.375-1.3-.936h6.343z"/></g><g class="aj"><path class="o" d="M225.5 146.282v-2.259c.883-.2.512-.2 1 0v2.259c-.488.375-.117.375-1 0z"/></g><g class="aj"><path class="ap" d="M225.084 146.842a1.221 1.221 0 0 0 1.114 1.146 1.065 1.065 0 0 0 .929-1.146.887.887 0 0 0-.929-.942 1.047 1.047 0 0 0-1.114.942z"/></g><g class="aj"><path class="o" d="M254.5 146.091v-2.068c-.327-.388-.884-.388-1 0v2.068c.116.375.673.375 1 0z"/></g><g class="aj"><path class="ap" d="M252.858 146.842a.906.906 0 0 0 .944.955c.743 0 1.114-.388 1.114-.955a.99.99 0 0 0-1.114-1.126c-.557-.001-.944.375-.944 1.126z"/></g><path d="M226.5 132.5s14.359-7.357 16.046-12.448l-5.6-1.877-8.758 2.819-1.687 8.127v3.379z" class="aj"/><path d="M253.5 130.5s-12.316-6.23-13.8-10.755l4.658-1.508 7.642 2.444 1.5 6.988v2.831z" class="aj"/><g class="aj"><path class="z" d="M259.2 173.073a7.042 7.042 0 1 0 13.619 3.586 7.176 7.176 0 0 0-5.031-8.676 7.077 7.077 0 0 0-8.588 5.09z"/></g><g class="aj"><path class="o" d="M240.5 170.5v55.67a.184.184 0 0 1-.188-.188 27.847 27.847 0 0 1-4.147-1.9 11.636 11.636 0 0 1-2.644-1.315.184.184 0 0 1-.188-.188A70.739 70.739 0 0 1 217.5 210.51v-.058l1-15.488v-.94l-1.619-12.637-.186-2.459c-.2-4.149-.195-4.149-.195-4.149v-2.458l5.224-.376 11.93-.939 3.915-.188c2.244-.188 2.244-.318 2.244-.318h.687z"/></g><g class="aj"><path class="o" d="M264.5 172.321v2.834l-1 1.128v3.586l1 1.519v.376l-1 2.255v2.081l1 3.774v.376l-2 3.4v1.315l1 3.211v24.161l-.753 8.863c-.93 0-2.044-.188-2.988-.188a58.611 58.611 0 0 1-13.044-2.647 13.367 13.367 0 0 1-2.615-.752 27.184 27.184 0 0 1-3.543-1.315s-.186 0-.057-.188V170.5h1.929l7.272.691c6.886.564 6.886.309 6.886.309h.944l.928 1h1.3l2.8-.369z"/></g><g class="aj"><path class="o" d="M219.3 194.213l-13.988-1.5c.572-5.481 2.058-14.72 2.8-19.262l13.988 2.271c-.746 4.147-2.246 13.589-2.8 18.491z"/></g><g class="aj"><path class="o" d="M221.911 172.7a7.194 7.194 0 0 1-5.029 8.691 6.841 6.841 0 0 1-8.587-4.918 7.066 7.066 0 1 1 13.616-3.773z"/></g><g class="aj"><path class="o" d="M258.088 164.585l-.186.942-.186.955c-.185.56-.216.56-.216.56v.27l-.559 3.22-.388 1.32-1.118 6.82-2.049 10.042-.187 1.32-.388 1.7-.373 2.467-.187.755-1.118 5.878-.931 4.92-5.809 18.746h-8.23a11.5 11.5 0 0 1-2.624-1.32.183.183 0 0 1-.187-.189l-6.367-41.662 3.183-4.935 3.369-5.3 2.252-3.6h1.222c.372-.08 1.687 1 1.687 1h3.915a3.724 3.724 0 0 1 .372-1.08 41.561 41.561 0 0 0 6.514-.563c.387-.191.573-.191.758-.357h.557a30.916 30.916 0 0 0 5.214-1.164c.372-.185.743-.185.944-.375.372 0 .557-.185.743-.185a.653.653 0 0 1 .373-.185z"/></g><g class="aj"><path class="i" d="M236.828 167.607L240 183.455l2.986-16.036-2.058-2.834-4.1 3.022z"/></g><g class="aj"><path class="aq" d="M299.5 174.5v47.274a.207.207 0 0 1-.2.188 61.483 61.483 0 0 1-8.389 4.337c-.56.188-1.113.376-1.874.564a59.012 59.012 0 0 1-13.985 3.774l-.371-29.065c-.189-.375-1.177-.375-1.177-.375v-2.271l1-4.714V186.852l-1-1.5v-1.522l.064-2.255c-.189-4.15.936-4.15.936-4.15v-.925h.749l1.484.158c2.245-.188 2.245.842 2.245.842h.931l1.113-1.218 6.9-.376 5.785-.563c5.031-.376 5.031-.843 5.031-.843h.764z"/></g><g class="aj"><path class="aq" d="M325.5 176.38v.767l-.4 7.548-.6 9.991v1.514c0-.375-.181-.563-.181-.939a17.6 17.6 0 0 0-1.111 1.879 67.238 67.238 0 0 1-21.854 23.4c-.568.188-1.118.579-1.674.767a.179.179 0 0 1-.181.188V174.5h-1.24l4.005.376 15.225.939 1.411.185 2.992.188z"/></g><g class="aj"><path class="u" d="M331.123 175.87l-.356.18a46.45 46.45 0 0 1-1.979 8.321c-.175.737-.53 1.637-.712 2.358a.173.173 0 0 0-.175.18 48.919 48.919 0 0 1-3.4 7.781v1.456c0-.36-.175-.54-.175-.9q-1.61-5.992-3.221-10.875a1.617 1.617 0 0 1-.181-.9c-.53-1.443-.886-2.9-1.249-4.161a4.2 4.2 0 0 1-.175-2.539v-.36a6.082 6.082 0 0 1 4.114-4.7 8.607 8.607 0 0 1 3.04 0 6.014 6.014 0 0 1 4.288 3.8.557.557 0 0 0 .181.359z"/></g><g class="aj"><path class="aq" d="M330.742 175.493a.581.581 0 0 0 .189.376l-.371.188a48.429 48.429 0 0 1-2.063 8.676 10.068 10.068 0 0 1-1.484.579 5.107 5.107 0 0 1-1.685.188h-.742a9.294 9.294 0 0 1-2.232-.376 8.013 8.013 0 0 1-2.056-1.331 7.061 7.061 0 0 1-2.616-3.962c-.182-.564-.182-1.127-.371-1.691a4.2 4.2 0 0 1 .189-1.519v-.376a7.992 7.992 0 0 1 7.269-6.232 4.818 4.818 0 0 1 1.692.2 7.565 7.565 0 0 1 4.653 2.819 9.855 9.855 0 0 0-.372 2.461z"/></g><g class="aj"><path class="u" d="M261.817 222.526a2.327 2.327 0 0 1-1.114-.188 6.048 6.048 0 0 1-4.858-7.36c2.429-12.653 6.714-25.29 9.89-34.357.742-1.879 1.3-3.774 1.855-5.277a6.118 6.118 0 0 1 7.842-3.962 6.207 6.207 0 0 1 3.918 7.924c-.56 1.707-1.132 3.586-1.874 5.481-3.169 8.863-7.269 20.75-9.5 32.635a6.24 6.24 0 0 1-6.159 5.104z"/></g><g class="aj"><path class="aq" d="M274.859 184.974l-2.969-15.3 26.103-5.28 2.987 15.287-26.121 5.293z"/></g><g class="aj"><path class="aq" d="M323.914 184.974l-25.921-5.293 2.987-15.287 25.921 5.28-2.987 15.3z"/></g><g class="aj"><path class="ar" d="M328.2 186.853a.18.18 0 0 0-.182.188l-.56-2.067-1.685-6.232c.371 1.5 1.132 3.586 1.685 6.232a17.947 17.947 0 0 1 .742 1.879z"/></g><g class="aj"><path class="aq" d="M331.034 175.727a48.429 48.429 0 0 1-2.063 8.676c-.182.768-.553 1.707-.742 2.458a.18.18 0 0 0-.182.188 51 51 0 0 1-3.547 8.112v1.518c0-.375-.182-.563-.182-.939a17.57 17.57 0 0 0-1.119 1.879c-1.314-4.714-2.8-9.819-3.729-13.4l-.182-.188c-.572-2.067-.943-3.586-1.314-4.526h.182l1.314-.375 5.961-1.879z"/></g><g class="aj"><path class="ar" d="M273.375 177.426c-1.484 4.338-8.2 25.087-9.7 30.568z"/></g><g class="aj"><path class="aq" d="M270.947 210.249l-14.547-4.338c1.5-5.653 8.213-26.606 9.886-31.131l14.363 5.089c-1.489 4.338-8.017 24.914-9.702 30.38z"/></g><g class="aj"><path class="u" d="M271.385 231.313c-2.042.187-3.885.187-5.929.187h-2.967c-.924 0-2.031-.187-2.968-.187-.922-2.63-1.66-5.056-2.4-7.125a21.684 21.684 0 0 0-.569-2.442c-.185-.747-.369-1.493-.553-2.053a26.445 26.445 0 0 1-.553-1.509 6.166 6.166 0 0 1 .369-4.122 6.546 6.546 0 0 1 4.074-3.562 4.071 4.071 0 0 1 2.968 0h.181a6.168 6.168 0 0 1 4.46 4.324v.56a15.01 15.01 0 0 1 .369 1.493c.181.56.181 1.121.369 1.883a19.471 19.471 0 0 1 .556 2.24c.551 2.815 1.475 6.564 2.593 10.313z"/></g><g class="aj"><path class="aq" d="M281.021 176.659a7.619 7.619 0 0 1-6.9 8.315 7.486 7.486 0 0 1-8.382-6.8 7.822 7.822 0 0 1 6.9-8.5 7.629 7.629 0 0 1 8.382 6.985z"/></g><g class="aj"><path class="w" d="M257.717 206.287l11.929 3.398-.554 2.647-11.746-4.902.371-1.143z"/></g><g class="aj"><path class="u" d="M298.419 174.552c-4.825 0-8.919-4.337-8.919-9.44V158.5h18v6.612a9.346 9.346 0 0 1-9.081 9.44z"/></g><g class="aj"><path class="u" d="M315.5 147.09c0 1.3-.748 2.41-1.679 2.41H283.2c-.95 0-1.7-1.1-1.7-2.41v-5.18c0-1.286.748-2.41 1.7-2.41h30.623c.931 0 1.679 1.124 1.679 2.41z"/></g><g class="aj"><path class="u" d="M284.5 132.5v23.2a5.824 5.824 0 0 0 3.384 5.282 3.776 3.776 0 0 0 1.5.751.737.737 0 0 0 .576.185l.183.2a5.692 5.692 0 0 0 1.5.375c.374.191.557.191.931.375a29.2 29.2 0 0 0 5.836.751 31.124 31.124 0 0 0 6.014-.751c.19-.185.19-.185.374-.185s.38-.191.754-.191c.183-.185.557-.185.748-.375a2.733 2.733 0 0 0 1.3-.388 3.766 3.766 0 0 0 1.515-.751 5.824 5.824 0 0 0 3.385-5.278v-23.2z"/></g><g class="aj"><path class="ap" d="M312.5 130.775v15.865l-2.262-1.141-.374-8.98c-7.515 1.141-16.341.193-22.544-3.25l-.938 12.23H284.5v-14.724c0-7.259 5.829-11.275 12.97-11.275h2.243c6.958 0 12.787 4.016 12.787 11.275z"/></g><path d="M293.705 142.126a1.222 1.222 0 0 1-1.126 1.133 1.2 1.2 0 0 1-1.113-1.133 1.244 1.244 0 0 1 1.113-1.311 1.258 1.258 0 0 1 1.126 1.311zM303.4 142.126a1.251 1.251 0 0 0 1.314 1.133 1.2 1.2 0 0 0 1.113-1.133 1.244 1.244 0 0 0-1.113-1.311 1.275 1.275 0 0 0-1.314 1.311z" class="aj"/><g class="aj"><path class="as" d="M289.033 140.045c-.182 0-.182 0-.182-.185s0-.191.182-.191l6.9-.185c.182 0 .182 0 .182.185s0 .191-.182.191l-6.9.185z"/></g><g class="aj"><path class="as" d="M308.067 140.045l-6.716-.185c-.189 0-.371 0-.371-.191s.182-.185.371-.185l6.716.185c.182 0 .371 0 .371.191s-.188.185-.371.185z"/></g><g class="aj"><path class="u" d="M298.735 184.225L309.18 166.5l-20.701.184 10.256 17.541z"/></g><g class="aj"><path class="w" d="M289.5 163.834a.186.186 0 0 0 .2.184c.739.19 1.665.563 2.4.753a24.421 24.421 0 0 0 6.315.747 24.912 24.912 0 0 0 6.5-.747 14.39 14.39 0 0 0 2.585-.938v-1.7s-1.846.76-2.585.951a24.917 24.917 0 0 1-6.5.747 24.42 24.42 0 0 1-6.315-.747 14.173 14.173 0 0 1-2.6-.951z"/></g><g class="aj"><path class="u" d="M307.307 166.106l1.314.184.559-.184-2.056-.395.183.395z"/></g><g class="aj"><path class="u" d="M289.976 166.106l-1.497.184 1.314.567.554-.376-.371-.375z"/></g><g class="aj"><path class="at" d="M298.5 150.5v2.081a3.351 3.351 0 0 0 1.3-.375 1.986 1.986 0 0 1 1.874-.764.884.884 0 0 0 .931-.942h-4.1z"/></g><g class="aj"><path class="at" d="M298.5 150.5v2.081a2.633 2.633 0 0 1-1.119-.375 2.18 2.18 0 0 0-1.868-.764 1.041 1.041 0 0 1-1.113-.942h4.1z"/></g><g class="aj"><path class="w" d="M298.5 143.143v7.357h-4.1a1.041 1.041 0 0 1 1.113-.942 9.528 9.528 0 0 0 1.5-4.9 1.524 1.524 0 0 1 1.487-1.515z"/></g><g class="aj"><path class="au" d="M301.54 158.164a10.392 10.392 0 0 1-3.176.375 10.267 10.267 0 0 1-3.169-.375c-.189 0-.371-.185-.189-.56 0-.191.189-.375.371-.191a16 16 0 0 0 5.974 0c.189-.185.371 0 .56.191 0 .375-.189.56-.371.56z"/></g><g class="aj"><path class="ap" d="M298.5 155.284c3.052 0 3.81 1.535 4 3.265v1.937c-1.33.383-2.673-.963-4-.963s-2.673 1.346-4 .963v-1.937c.186-1.73.944-3.265 4-3.265zm5.633 2.794c-.752-3-3.156-6.027-6.13-6.027-2.786 0-5.391 3.023-6.13 6.027a9.7 9.7 0 0 0-.369 2.272v2.081c0 .566 0 .942.181.942a16.035 16.035 0 0 0 4.271.942 5.218 5.218 0 0 1 1.678.185H298c.927 0 1.666-.185 2.6-.185a7.7 7.7 0 0 1 .927-.191c.92-.191 1.847-.375 2.968-.566V160.35a9.8 9.8 0 0 0-.365-2.272z"/></g><g class="aj"><path class="av" d="M251.929 193.086a5.6 5.6 0 0 1-.743 7.548 5.053 5.053 0 0 1-7.272-.752 5.389 5.389 0 0 1 .743-7.548 5.043 5.043 0 0 1 7.272.752z"/></g><g class="aj"><path class="av" d="M252.987 199.506c-.557 1.5-1.114 3.2-1.857 5.089-2.058 6.232-4.843 14.532-6.9 23.02a27.184 27.184 0 0 1-3.543-1.315.183.183 0 0 1-.186-.188 27.4 27.4 0 0 1-4.1-1.9 11.458 11.458 0 0 1-2.615-1.315c2.058-8.112 4.658-15.66 6.716-21.7v-.376c.186-.188.186-.188.186-.376.557-1.707 1.114-3.022 1.485-4.526a8.018 8.018 0 0 1 1.316-2.082 5.509 5.509 0 0 1 5.771-1.5 6.034 6.034 0 0 1 3.172 2.443 10.8 10.8 0 0 1 .743 2.271 11.027 11.027 0 0 1-.188 2.455z"/></g><g class="aj"><path class="av" d="M301.163 221.007c-.572.188-1.126.579-1.685.767a.18.18 0 0 1-.182.188 61.483 61.483 0 0 1-8.389 4.337c-2.245-8.5-4.842-16.615-7.087-23.02-.553-1.707-1.113-3.4-1.685-4.917a5.66 5.66 0 0 1 3.54-7.172 5.407 5.407 0 0 1 7.087 3.586 48.858 48.858 0 0 1 1.692 4.917c1.484 4.15 3.169 9.239 4.842 14.72a8.379 8.379 0 0 0 .182.94c.559 1.88 1.113 3.775 1.685 5.654z"/></g><g class="aj"><path class="aw" d="M288.952 214.133l-.178 6.609-.185 6.42a56.852 56.852 0 0 1-13.7 3.774c-1.09.188-2.18.188-3.276.376-2.014.188-3.83.188-5.845.188h-3.024a10.362 10.362 0 0 0-2.988-.486 58.611 58.611 0 0 1-13.044-2.647c-.371-9.051-.216-9.051-.216-9.051v-.939l-.341-4.541c2.045-5.836 1.345-21.689 1.345-21.689v-1.177l5.651-1.138.936-.19 5.636 5.134.952.963 2.621 2.465.191.19 1.891 1.532 1.123-.775v.072l7.482-5.841.363-.376.363-.188.924-.768 1.275-1.128 2.2-1.691 8.394 1.691v.188c-.182 2.09-.731 16.618 1.45 23.023z"/></g><g class="aj"><path class="av" d="M277.292 190.815a4.484 4.484 0 0 1-2.616-2.255c-.931-.188-2.044-.391-3.157-.579-.572 0-.39 2.083-.943 1.9-.371 0-.371.376-.742.376-.189 0-.371-.752-.56-.752-.742 0-.371.375-1.113.564-.572 1.127-3.547 0-4.861.375-3.355.564-6.9.939-10.257 1.707 2.986 6.029 8.4 11.51 15.118 10.946 6.515-.391 12.489-5.669 14.727-11.525-1.867-.193-3.728-.381-5.596-.757z"/></g><g class="aj"><path class="av" d="M261.074 189.786l10.628 2.068 2.232-3.586 9.514 2.082-.559 1.692-3.541 2.458h-16.601l-9.703-1.879-.743-2.082 8.588-1.896.185 1.143z"/></g><g class="aj"><path class="av" d="M275.5 176.5l.572 10.57 6.515 3.211c-1.673.939-9.873 4.149-14.161 4.149-4.113 0-12.5-2.835-14.356-3.962l6.514-3.211.572-10.758H275.5z"/></g><g class="aj"><path class="ax" d="M261.5 182.51c2.415 2.073 5.374 3.381 7.238 3.195 3.153 0 9.835-4.69 10.762-9.021v.576c.181 4.5-7.42 9.941-10.762 9.941-1.865.187-4.637-1.122-7.238-3.195z"/></g><path d="M258.8 170.5h1.419a2.451 2.451 0 0 1 2.284 2.52v12.958a2.341 2.341 0 0 1-2.284 2.521H258.8a2.255 2.255 0 0 1-2.3-2.521V173.02a2.348 2.348 0 0 1 2.3-2.52zM274.795 147.8c6.163 2.635 13.432 18.87 13.621 35.283 0 7.36-14.916 3.774-14.916 3.774v-34.72z" class="aj"/><g class="aj"><path class="av" d="M269 186.723c3.243 0 10.5-5.209 10.5-9.664v-14.087c0-14.109-21-14.109-21 0v14.088c0 4.455 7.253 9.663 10.5 9.663z"/></g><g class="aj"><path class="ay" d="M271.7 152.888s-7.087 10.755-13.614 13.594l-2.429-9.069 2.8-4.716 9.331-.936z"/></g><path d="M273.934 167.607a.689.689 0 0 1-.371-.941 1.008 1.008 0 0 1 .924-.56.682.682 0 0 1 .371.936c.001.377-.553.565-.924.565zM262.93 167.419a.691.691 0 0 1-.371-.938.668.668 0 0 1 .931-.375.688.688 0 0 1 .371.936.679.679 0 0 1-.931.377z" class="aj"/><path d="M274.859 147.359c-5.395-2.647-13.6-3.978-19.014 5.091-5.4 9.05-9.129 31.319-6.53 33.965 2.615 2.647 12.317 1.9 12.317 1.9l-4.1-21.516 6.329-9.444 7.087-4.34c.943.191 8.772 2.647 8.772 8.49h2.8z" class="aj"/><path d="M272.261 151.946s-7.647 11.513-14.73 14.536l-2.8-9.82 2.986-5.091 10.256.566z" class="aj"/><g class="aj"><path class="av" d="M258.645 165.336a1.484 1.484 0 0 0-1.671-.942s-1.5.191-.944 2.838l.372 1.314.371 1.331.387 1.315.372.939a5.519 5.519 0 0 1 .372 1.519 1.186 1.186 0 0 0 .928 1.315s.743 0 .928-.188a77.838 77.838 0 0 1 .186-8.877z"/></g><g class="aj"><path class="av" d="M278.977 165.151a1.477 1.477 0 0 1 1.673-.942s1.484.185.924 2.832l-.371 1.317-.371 1.315-.371 1.327-.371.939a5.524 5.524 0 0 0-.371 1.5 1.2 1.2 0 0 1-.931 1.331s-.755 0-.943-.188a76.9 76.9 0 0 0-.182-8.88z"/></g><g class="aj"><path class="o" d="M258.459 174.591a.831.831 0 0 1-.743.564.6.6 0 0 1-.557-.564c0-.375.186-.752.557-.752a.805.805 0 0 1 .743.752z"/></g><g class="aj"><path class="ag" d="M268.721 180.244a33.7 33.7 0 0 1-3.918-.375.97.97 0 0 1-.371-.752c0-.188.371-.376.56-.376a16.648 16.648 0 0 0 7.458 0 .966.966 0 0 1 .742.376c0 .375-.189.564-.56.752a30.7 30.7 0 0 1-3.911.375z"/></g><path d="M259.228 165.151a.4.4 0 0 1-.371-.375c0-.191 0-.382.186-.382.743-.185 6.161-1.126 7.457.191v.375a.338.338 0 0 1-.553 0c-.743-.566-4.475-.184-6.719.191zM277.663 164.96c-1.861-.185-5.213-.566-5.773 0-.189.191-.371.191-.371 0-.2-.185-.2-.375 0-.375 1.113-1.126 5.773-.191 6.326-.191a.669.669 0 0 1 .189.382c0 .184-.188.184-.371.184z" class="aj"/><g class="aj"><path class="az" d="M268.5 166.766v7.734h-2.987c.182-.376.182-.564.553-.768a5.143 5.143 0 0 0 .931-2.255l.182-3.4a1.4 1.4 0 0 1 1.321-1.311z"/></g><g class="aj"><path class="ax" d="M271.7 174.5a1.062 1.062 0 0 1-1.126.939c-.189 0-.189.188-.56.376a1.675 1.675 0 0 1-1.3.564 1.362 1.362 0 0 1-1.132-.564c-.371-.188-.56-.376-.742-.376a1.2 1.2 0 0 1-1.113-.939h5.973z"/></g><path class="i" d="M205.324 192.774l12.143 1.259.334 16.788s-5.527-6.112-7.552-9.416-4.925-8.631-4.925-8.631z"/></svg>