<svg xmlns="http://www.w3.org/2000/svg" viewBox="0 0 300 300"><title>swimlane-machine-learning-lightbulb-hand</title><polyline points="160.77 29.75 198.77 38 208.02 54 206.52 70.5 188.27 93.75 171.27 120.75 160.27 144.75 141.77 84.25 157.502 24.757 130.52 8.5 115.52 21 140.52 81.25 103.363 50.168 114.27 23 154.27 26.5 180.02 62 198.77 38 187.02 17.75 155.52 26" fill="none" stroke="#b2b2b2" stroke-miterlimit="10"/><polyline points="159.02 144.75 134.02 128.5 113.02 106.75 100.52 86 101.77 52 156.52 26.75 171.27 120.75 143.77 84.5 191.02 94 182.27 64.25 206.52 70.5" fill="none" stroke="#b2b2b2" stroke-miterlimit="10"/><polyline points="171.27 120.75 134.02 128.5 143.77 84.5 113.02 106.75 154.27 26.5" fill="none" stroke="#b2b2b2" stroke-miterlimit="10"/><polyline points="100.52 86 143.77 81.5 181.27 64.75" fill="none" stroke="#b2b2b2" stroke-miterlimit="10"/><line x1="135.27" y1="129.5" x2="143.52" y2="157" fill="none" stroke="#b2b2b2" stroke-miterlimit="10"/><path d="M124.962,21.246a8.684,8.684,0,1,1-8.684-8.685,8.684,8.684,0,0,1,8.684,8.685v0" fill="#fda84c"/><path d="M203.805,94.48a14.547,14.547,0,1,1,0-.005v0" fill="#fec94e"/><path d="M184.065,120.883a13.156,13.156,0,1,1-13.156-13.156,13.156,13.156,0,0,1,13.156,13.156h0" fill="#fda84c"/><path d="M192.035,18.2a4.986,4.986,0,1,0-4.987,4.985h0a4.986,4.986,0,0,0,4.986-4.984h0" fill="#fda84c"/><path d="M211.425,53.639a3.745,3.745,0,1,0-3.745,3.747,3.745,3.745,0,0,0,3.745-3.747h0" fill="#fda84c"/><path d="M120.342,106.663a7.141,7.141,0,1,1-7.147-7.135h.011a7.135,7.135,0,0,1,7.136,7.135h0" fill="#fda84c"/><path d="M170.563,145.065a10.354,10.354,0,1,1-10.355-10.353h0a10.353,10.353,0,0,1,10.354,10.352h0" fill="#ed8422"/><path d="M134.707,9.3a3.745,3.745,0,1,0-3.745,3.745h0A3.745,3.745,0,0,0,134.707,9.3" fill="#ed8422"/><path d="M177.012,120.074a2.1,2.1,0,0,0-.892.2c0-.065.006-.132.006-.2a4.152,4.152,0,0,0-8.288-.37,2.833,2.833,0,1,0-4.547,3.38,3.133,3.133,0,0,0,2.273,1.416h11.448a2.334,2.334,0,0,0,2.029-2.4,2.077,2.077,0,0,0-2.029-2.028" fill="#fff"/><path d="M110.02,85.979A10.173,10.173,0,1,0,99.847,96.153,10.171,10.171,0,0,0,110.02,85.979v0" fill="#ed8422"/><rect x="95.888" y="90.283" width="2.493" height="2.587" fill="#fff"/><rect x="99.435" y="87.696" width="2.493" height="5.172" fill="#fff"/><rect x="103.031" y="84.375" width="2.493" height="8.493" fill="#fff"/><polygon points="97.881 78.251 97.542 79.933 99.607 80.347 92.446 84.736 93.342 86.199 100.49 81.817 99.895 83.966 101.546 84.425 102.975 79.275 97.881 78.251" fill="#fff"/><path d="M179.738,28.912A23.935,23.935,0,1,1,155.8,4.977a23.935,23.935,0,0,1,23.935,23.935" fill="#fec94e"/><path d="M143.3,26.756a1.708,1.708,0,0,0,1.479-.86h3.039V28.15a1.717,1.717,0,1,0,1.715,0V24.181h-4.754a1.715,1.715,0,1,0-1.479,2.575" fill="#fff"/><path d="M164.786,20.989a1.717,1.717,0,0,0-.97,3.134v4.648h-4.393a1.72,1.72,0,1,0,0,1.716h5.252l.857-.858V24.248a1.714,1.714,0,0,0-.746-3.259" fill="#fff"/><path d="M169.162,26.432V19.5l-2.038-2.039h-4.336a1.719,1.719,0,1,0,0,1.716h3.626l1.033,1.034v6.222a1.717,1.717,0,1,0,1.715,0" fill="#fff"/><path d="M160.666,23.9a1.715,1.715,0,1,1-1.48,2.575h-2.541l-.857-.857V21.962a1.717,1.717,0,1,1,1.714,0v2.8h1.684a1.714,1.714,0,0,1,1.48-.86" fill="#fff"/><path d="M149.523,17.594a1.712,1.712,0,0,0,1.486-.862h4.162a1.717,1.717,0,1,0,0-1.716h-4.163a1.715,1.715,0,1,0-1.48,2.576" fill="#fff"/><path d="M146.451,22.06a1.709,1.709,0,0,0,1.48-.859h4.5V28.15a1.717,1.717,0,1,0,1.716,0V19.489h-6.221a1.714,1.714,0,1,0-1.48,2.575" fill="#fff"/><path d="M155.246,32.1a1.712,1.712,0,0,0-1.48.86h-6.194l-2.584-2.585a1.707,1.707,0,0,0,.032-.31,1.746,1.746,0,1,0-1.152,1.614l3,3h6.9a1.714,1.714,0,1,0,1.48-2.575" fill="#fff"/><path d="M161.8,33.818a1.718,1.718,0,1,0-2.576,1.481v5.17a1.719,1.719,0,1,0,1.716,0V35.3a1.713,1.713,0,0,0,.86-1.481" fill="#fff"/><path d="M166.4,33.818a1.718,1.718,0,1,0-2.574,1.481v2.252a1.718,1.718,0,1,0,1.714,0V35.3a1.71,1.71,0,0,0,.86-1.481" fill="#fff"/><path d="M165.842,82.854a23.626,23.626,0,1,1-23.627-23.625h0a23.625,23.625,0,0,1,23.625,23.625h0" fill="#fda84c"/><path d="M141.89,89.326c1.164,0,1.316,2.48,3.994,2.48,9.077,0,10.168-4.365,10.515-5.7.191-.734.306-1.244.372-1.555a.435.435,0,0,0-.292-.5,48.81,48.81,0,0,0-14.589-2.108h-.023a48.81,48.81,0,0,0-14.589,2.108.435.435,0,0,0-.292.5c.066.311.182.821.371,1.555.348,1.338,1.439,5.7,10.515,5.7,2.676,0,2.831-2.48,3.995-2.48Z" fill="#fff"/><path d="M126.913,82.54V78.726a.35.35,0,0,1,.2-.319c.958-.475,5.463-2.427,14.759-2.427,9.326,0,13.863,2.078,14.812,2.573a.35.35,0,0,1,.189.316V82.54a.253.253,0,0,1-.25.256.255.255,0,0,1-.072-.01,51.139,51.139,0,0,0-29.311,0,.254.254,0,0,1-.314-.175.243.243,0,0,1-.009-.071" fill="#fff"/><path d="M125.524,82.661V79.8a.262.262,0,0,0-.412-.223,6.231,6.231,0,0,0-1.355,1.115v2.837a.265.265,0,0,0,.366.245c.235-.1.557-.223.869-.345a.824.824,0,0,0,.532-.772" fill="#fff"/><path d="M125.854,84.89l.429,1.832a.089.089,0,0,1-.059.111.08.08,0,0,1-.053,0,4.221,4.221,0,0,1-2.368-1.58.093.093,0,0,1,.039-.126l.006,0c.434-.182,1.073-.393,1.489-.526a.405.405,0,0,1,.509.263l.008.032" fill="#fff"/><path d="M158.193,82.661V79.8a.262.262,0,0,1,.412-.223,6.231,6.231,0,0,1,1.355,1.115v2.837a.265.265,0,0,1-.366.245c-.235-.1-.557-.223-.868-.345a.823.823,0,0,1-.533-.772" fill="#fff"/><path d="M157.862,84.89l-.427,1.832a.088.088,0,0,0,.059.111.077.077,0,0,0,.052,0,4.22,4.22,0,0,0,2.367-1.58.091.091,0,0,0-.037-.125l-.007,0c-.435-.182-1.073-.393-1.489-.526a.406.406,0,0,0-.51.266l-.008.029" fill="#fff"/><path d="M197.4,91.638a3.145,3.145,0,0,0-2.364,1.079l-3.706-1.783.841-1.281a1.686,1.686,0,0,0,.214.022,1.911,1.911,0,1,0-1.8-2.53l-4.377.6a1.685,1.685,0,1,0-2.22,2.469l-.154,4.864a4.179,4.179,0,1,0,4.928,4.107c0-.056-.014-.111-.016-.163l6.123-2.341a3.162,3.162,0,1,0,2.531-5.05M186.341,95.4a4.21,4.21,0,0,0-.8-.278l.154-4.864c.042-.023.087-.043.127-.069l2.991,1.436Zm1.491-6.152,2.8-.383-.863,1.313Zm.485,8.094a4.192,4.192,0,0,0-.606-.9l2.667-4.064,3.9,1.877a3.3,3.3,0,0,0-.054.543c0,.1.02.186.028.28Z" fill="#fff"/><path d="M209.175,37.974A10.926,10.926,0,1,0,198.249,48.9a10.926,10.926,0,0,0,10.926-10.926h0" fill="#fec94e"/><path d="M200.636,34.192l-2.39-1.593-2.453,1.593h-1.926v2.694a6.846,6.846,0,0,0,2.707,5.319l1.673,1.338,1.672-1.338a6.839,6.839,0,0,0,2.707-5.319V34.192Z" fill="#fff"/><path d="M123.8,51.157a19.715,19.715,0,1,1-19.716-19.714h0A19.715,19.715,0,0,1,123.8,51.157" fill="#edac28"/><path d="M111.6,45.348c-3.4,0-5.9,2.324-8.241,4.82-2.331-2.489-4.81-4.82-8.181-4.82a6.395,6.395,0,0,0,0,12.788c2.638,0,4.731-1.428,6.633-3.242l-1.4-1.621c-1.621,1.561-3.285,2.72-5.229,2.72a4.252,4.252,0,0,1,0-8.5c2.542,0,4.605,1.982,6.72,4.253l1.461,1.575c2.341,2.495,4.834,4.817,8.241,4.817a6.395,6.395,0,0,0,.169-12.788H111.6m0,10.645c-2.583,0-4.659-1.975-6.782-4.249,2.124-2.275,4.2-4.253,6.782-4.253a4.252,4.252,0,1,1,.138,8.5H111.6" fill="#fff"/><path d="M193.4,62.528a12.6,12.6,0,1,0,0,.005" fill="#ed8422"/><path d="M187.993,63.512V61.547l-2.1-.341a5.228,5.228,0,0,0-.568-1.338l1.256-1.734-1.39-1.39-1.75,1.268a5.253,5.253,0,0,0-1.315-.538l-.341-2.143h-1.967l-.341,2.143a5.166,5.166,0,0,0-1.313.538l-1.752-1.268-1.39,1.39,1.257,1.734a5.178,5.178,0,0,0-.568,1.338l-2.1.341v1.965l2.068.331a5.3,5.3,0,0,0,.561,1.394l-1.218,1.683,1.383,1.39,1.667-1.206a5.225,5.225,0,0,0,1.418.593l.323,2.024h1.967l.325-2.024a5.264,5.264,0,0,0,1.417-.593l1.665,1.206,1.391-1.39-1.219-1.678a5.255,5.255,0,0,0,.568-1.394ZM180.8,65.405a2.82,2.82,0,1,1,2.82-2.82h0a2.82,2.82,0,0,1-2.82,2.82" fill="#fff"/><path d="M125.02,150v14.668A6.332,6.332,0,0,0,131.352,171H143.02v3a3,3,0,0,0,3,3h2v2h4v-2h.708a3.915,3.915,0,0,0,4.292-4.116h0V171H167.8a9.222,9.222,0,0,0,9.221-9.222V150Z" fill="#09538f"/><path d="M134.02,153v2h16v16h-7v2h13.667v-2h11.179a8.82,8.82,0,0,0,8.821-8.82h0V153Z" fill="#021760"/><path d="M215.63,69.867a8.943,8.943,0,1,0-8.943,8.943h0a8.943,8.943,0,0,0,8.942-8.943" fill="#fda84c"/><path d="M202.936,69.867a3.752,3.752,0,0,1,2.322-3.466l-.927,1.338,1.412.973,2.459-3.568-3.233-3.01L203.8,63.389l1.327,1.236a5.462,5.462,0,0,0-1.309,9.891l.9-1.458a3.732,3.732,0,0,1-1.784-3.2" fill="#fff"/><path d="M212.156,69.867a5.463,5.463,0,0,0-2.424-4.543l-.955,1.424a3.754,3.754,0,0,1-.641,6.578l.876-1.256-1.408-.981-2.431,3.485,3.111,2.936,1.177-1.248-1.226-1.156a5.474,5.474,0,0,0,3.921-5.24" fill="#fff"/><path d="M149.277,127.661a14.968,14.968,0,1,1-14.969-14.967h0a14.968,14.968,0,0,1,14.968,14.966h0" fill="#fec94e"/><path d="M137.292,129.462l-2.007,3.344-2.583-5.351-1.586,2.636h-3.78a29.6,29.6,0,0,0,6.976,6.764s5.072-3.435,7.366-7.39Z" fill="#fff"/><path d="M130.38,128.8l2.446-4.053,2.582,5.38,1.187-1.784h5.633a6.213,6.213,0,0,0,.557-2.41,4.275,4.275,0,0,0-4.4-4.137,4.413,4.413,0,0,0-4.07,2.557,4.414,4.414,0,0,0-4.07-2.557,4.276,4.276,0,0,0-4.4,4.137,6.6,6.6,0,0,0,.762,2.865Z" fill="#fff"/><path d="M155.127,278.847c1.193-3.918-1.449-5.11-2.3-5.365s-6.472,8.686-6.472,8.686l6.388-1.533Z" fill="#505050"/><path d="M183.192,218.287l-5.074-14.32-6-2.946-6.417-4.558a1.079,1.079,0,0,0-1.5.253,1.054,1.054,0,0,0-.092.155,6.417,6.417,0,0,0-.274,4.919c1.776,1.144,5.463,3.279,8.154,3.218-.6,2.4.15,5.55.871,7.753l-10.069-5.455-10.734-4.025a1.387,1.387,0,0,0-1.787.81,1.5,1.5,0,0,0-.062.218l-.139.692a7.009,7.009,0,0,0,3.879,7.711l12.933,7.024-1.622,13.779a16.978,16.978,0,0,0-6.077,6.052,2.3,2.3,0,0,1-3.139.83l-7.113-3.963a6.559,6.559,0,0,1-3.218-6.619l1.623-11.27,1.654-4.974a4.273,4.273,0,0,0-2.706-5.4,3.528,3.528,0,0,0-4.087,1.449l-4.612,7.223-4.258,18.737-3.233,5.686a43.869,43.869,0,0,0-5.342,27.561l1.423,10.526L145.934,295.7l4.087-16.352,8.645-16.118A41.666,41.666,0,0,1,162.3,257.6c4.061-5.3,12.3-15.668,15.063-19.148.606-.761,2.788-2.264,2.83-3.233Z" fill="#f6caa7"/><path d="M149.985,202.343h0a2.939,2.939,0,0,0,1.774,3.052,7.509,7.509,0,0,0,6.265.123c-3.152-1.363-8.039-3.175-8.039-3.175" fill="#fff"/><path d="M164.335,195.124l-.446,1.074a1.734,1.734,0,0,0,.435,1.942,6.736,6.736,0,0,0,6.385,1.843c-2.848-1.916-6.376-4.859-6.376-4.859" fill="#fff"/><path d="M151.9,186.718a2.027,2.027,0,1,1-2.028-2.026h0a2.025,2.025,0,0,1,2.026,2.025h0" fill="#09538f"/><path d="M151.9,192.467a2.027,2.027,0,1,1-2.028-2.025h0a2.024,2.024,0,0,1,2.026,2.024h0" fill="#09538f"/><path d="M151.9,198.217a2.027,2.027,0,1,1-2.028-2.026h0a2.026,2.026,0,0,1,2.026,2.025h0" fill="#09538f"/><path d="M151.9,203.967a2.027,2.027,0,1,1-2.028-2.026h0a2.025,2.025,0,0,1,2.026,2.025h0" fill="#09538f"/><path d="M149.873,213.44a2.01,2.01,0,0,0-.915.223c-.258.8-.6,1.819-.892,2.695a2.024,2.024,0,1,0,1.81-2.922" fill="#09538f"/><path d="M149.873,207.691a2.017,2.017,0,0,0-1.941,1.476,3.755,3.755,0,0,1,1.264,2.452,2.022,2.022,0,1,0,1.356-3.81,1.992,1.992,0,0,0-.679-.117" fill="#09538f"/><path d="M144.931,207.188a5.873,5.873,0,0,1,3.849,1.431c-.147.411-1.185,4.3-1.317,4.648a2.593,2.593,0,1,1-4.876-1.767l.027-.072Z" fill="#fff"/><path d="M163.836,201.79a6.391,6.391,0,0,0,1.885,2.788l4.4,3.754.609,3.275,2.134,1.158a18.587,18.587,0,0,1,.112-8.512,21.523,21.523,0,0,1-9.132-2.459" fill="#deb695"/><path d="M184.146,219.687l-1.235-11.595-9.02-10.087-.68.849a5.446,5.446,0,0,0-1.039,2.165l-6.416-4.558,11.905,8.458,4.428,12.945.013,1.3a5.608,5.608,0,0,1-4.906-.209l1.207,16.826v.014a1.978,1.978,0,0,1-1.059,1.616l-9.846,5.419a62.886,62.886,0,0,0-29.1,34.483l-.766,2.206-1.362,5.792,11.973,1.331,1.824-7.293,8.645-16.118a41.483,41.483,0,0,1,3.633-5.634c3.079-4.014,8.551-10.942,12.227-15.576l5.457-4.093a5.51,5.51,0,0,0,2.2-4.46l-.044-4.794Z" fill="#deb695"/><path d="M176.872,201.32l-3.389-3.872-.257.436a1.858,1.858,0,0,0,.363,2.329,3.871,3.871,0,0,0,3.283,1.107" fill="#fff"/><path d="M111.524,279.733s10.39-5.62,18.054-3.407,19.929,5.281,25.55,2.045c-2.9,9.538-6.3,21.629-6.3,21.629H110.5Z" fill="#939393"/><rect x="118.422" y="282.675" width="7.665" height="3.066" transform="translate(-187.127 282.364) rotate(-66.383)" fill="#b2b2b2"/></svg>