<svg xmlns="http://www.w3.org/2000/svg" viewBox="0 0 636 300"><title>swimlane-backend-code</title><rect x="136.737" y="6" width="379" height="247" fill="#dae9f8"/><rect x="161.737" y="67" width="8" height="8" fill="#8fc3ec"/><rect x="161.737" y="83" width="8" height="8" fill="#8fc3ec"/><rect x="161.737" y="100" width="8" height="8" fill="#8fc3ec"/><rect x="161.737" y="115" width="8" height="8" fill="#8fc3ec"/><rect x="161.737" y="132" width="8" height="8" fill="#8fc3ec"/><rect x="161.737" y="147" width="8" height="8" fill="#8fc3ec"/><rect x="161.737" y="164" width="8" height="8" fill="#8fc3ec"/><rect x="161.737" y="180" width="8" height="8" fill="#8fc3ec"/><rect x="161.737" y="195" width="8" height="8" fill="#8fc3ec"/><rect x="161.737" y="211" width="8" height="8" fill="#8fc3ec"/><rect x="161.737" y="227" width="8" height="8" fill="#8fc3ec"/><rect x="178.737" y="67" width="37" height="8" fill="#8fc3ec"/><rect x="221.737" y="67" width="147" height="8" fill="#8fc3ec"/><rect x="197.737" y="83" width="232" height="8" fill="#8fc3ec"/><rect x="197.737" y="100" width="197" height="8" fill="#8fc3ec"/><rect x="237.737" y="132" width="76" height="8" fill="#8fc3ec"/><rect x="218.737" y="164" width="158" height="8" fill="#8fc3ec"/><rect x="237.737" y="180" width="113" height="8" fill="#8fc3ec"/><rect x="282.737" y="211" width="169" height="8" fill="#8fc3ec"/><rect x="281.737" y="227" width="112" height="8" fill="#8fc3ec"/><rect x="262.737" y="147" width="94" height="8" fill="#8fc3ec"/><rect x="198.737" y="147" width="58" height="8" fill="#8fc3ec"/><rect x="217.737" y="115" width="78" height="8" fill="#8fc3ec"/><rect x="300.737" y="115" width="151" height="8" fill="#8fc3ec"/><rect x="314.737" y="195" width="137" height="8" fill="#8fc3ec"/><rect x="262.737" y="195" width="46" height="8" fill="#8fc3ec"/><rect x="136.737" y="5" width="379" height="43" fill="#7b91a0"/><rect x="153.737" y="20" width="125" height="12" fill="#fff"/><rect x="131.737" y="5" width="5" height="248" fill="#409ae1"/><path d="M45.737,287H522.684a3.22,3.22,0,0,1,3.218,2.463A3.136,3.136,0,0,1,522.567,293H45.969a3.221,3.221,0,0,1-3.219-2.463A3.136,3.136,0,0,1,46.084,287" fill="#c8c8c8"/><path d="M136.854,147.183c4.076-2.1,4.963-3.593,6.793-6.771,1.273-2.031.858-3.019-.171-2.659,1.587-1.507.872-3.885-.386-2.72.386-.543.514-1.812-.286-2.257-.858-.244-1.416.9-1.588,1.507-.472-.787-1.544-1.092-2.217.458a4.244,4.244,0,0,1-1.7,1.909c.243-1.672-.444-2.519-1.416-2.361-.458,1.611-2,3.782-2.632,6-.114.4-.023.938-.343,1.208-17.907,15.094-21.264,16.988-21.264,16.988.765.412.4,9.11,7.038,6.76Z" fill="#ab845f" fill-rule="evenodd"/><path d="M215.674,108.055l-.626-5.506c0-1-1.126-1.5-2.378-1.626l-8.508-.5c-.5-1.752-.876-3.378-1.377-5.13l6.382-5.131a2.13,2.13,0,0,0,.75-2.877l-2.878-5.256c-.375-.751-1.125-1.126-2.5-.876l-8.008,3c-1.253-1.251-2.628-2.878-3.755-4.253l3.879-7.76a2.107,2.107,0,0,0-.5-2.628l-4.378-3.377a1.987,1.987,0,0,0-2.879.124l-6.256,6.132a20.6,20.6,0,0,0-4.881-2.628l1-8.509a2.044,2.044,0,0,0-1.5-2.628l-5.5-1.251a2.063,2.063,0,0,0-2.379.876l-3.753,8.134a16.139,16.139,0,0,0-5.506-.25l-2.378-8.51A2.568,2.568,0,0,0,155.36,56l-5.757.876a1.936,1.936,0,0,0-1.752,2l-.124,8.51c-1.626.5-3.5,1.5-5.13,2l-5.256-6.757a1.873,1.873,0,0,0-2.628-.375l-4.755,2.752a1.935,1.935,0,0,0-1,2.5l3.129,8.132c-1.627,1.377-3.5,2.5-4.5,4.13l-7.383-4.5a2.552,2.552,0,0,0-3,.75l-3.378,4.38a2.687,2.687,0,0,0,.375,3.253l5.757,6.008c-1,1.626-1.5,3.377-2.5,5l-8.383-1a2.637,2.637,0,0,0-2.377,1.878l-1.377,5.256a2.389,2.389,0,0,0,1.126,2.877l8.133,3.128a35.16,35.16,0,0,0-.375,6.132l-8.383,2.378a2,2,0,0,0-1.628,2.377l.626,5.506a2.31,2.31,0,0,0,2.253,2.127l8.633-.126c.5,1.752.876,3.38,1.377,5.132l-6.632,5.38a2.137,2.137,0,0,0-.375,2.752l2.878,5.256a2.573,2.573,0,0,0,3.253.751l7.259-2.878c1.251,1.251,2.627,2.878,3.752,4.254l-3.878,7.759a2.108,2.108,0,0,0,.5,2.628l4.5,3.753a2.272,2.272,0,0,0,2.878-.125l5.882-5.881c1.751.5,3.253,1.5,5,2l-1.377,8.76a2.381,2.381,0,0,0,1.878,2.378l5.38,1.751a2.308,2.308,0,0,0,2.5-1.5l3.379-7.883c2.127.251,4,.125,6.006.375l2.127,8.134c.251,1.376,1.377,1.626,2.379,1.626l5.38-.75c1.251-.25,2.252-1.252,2.127-2.252l.125-8.51a24.041,24.041,0,0,0,5.131-2l5.256,6.757a1.96,1.96,0,0,0,2.877.752l4.756-2.754a1.961,1.961,0,0,0,.75-2.877l-3.128-8.134a14.141,14.141,0,0,0,4.5-4.13l7.383,4.5a2.108,2.108,0,0,0,2.627-.5l3.755-4.63a3.331,3.331,0,0,0-.126-2.878l-6.006-6.383a18.265,18.265,0,0,0,2.251-4.755l8.76.876a2.873,2.873,0,0,0,2.253-1.251l1.626-5.881a2.135,2.135,0,0,0-1.5-2.628l-7.758-3.378a32.351,32.351,0,0,0,.625-5.756l7.758-2.5A2.039,2.039,0,0,0,215.674,108.055Zm-55.81,22.525a17.771,17.771,0,1,1,17.519-17.77A17.707,17.707,0,0,1,159.864,130.58Z" fill="#737373"/><path d="M218.158,108.055l-.625-5.506c0-1-1.127-1.5-2.379-1.626l-8.508-.5c-.5-1.752-.876-3.378-1.377-5.13l6.383-5.131a2.131,2.131,0,0,0,.75-2.877l-2.879-5.256c-.375-.751-1.125-1.126-2.5-.876l-8.008,3c-1.252-1.251-2.628-2.878-3.754-4.253l3.879-7.76a2.108,2.108,0,0,0-.5-2.628l-4.379-3.377a1.986,1.986,0,0,0-2.878.124l-6.256,6.132a20.614,20.614,0,0,0-4.881-2.628l1-8.509a2.043,2.043,0,0,0-1.5-2.628l-5.5-1.251a2.064,2.064,0,0,0-2.379.876l-3.753,8.134a16.139,16.139,0,0,0-5.506-.25l-2.377-8.51A2.568,2.568,0,0,0,157.844,56l-5.757.876a1.936,1.936,0,0,0-1.752,2l-.124,8.51c-1.626.5-3.5,1.5-5.13,2l-5.256-6.757a1.872,1.872,0,0,0-2.627-.375l-4.755,2.752a1.934,1.934,0,0,0-1,2.5l3.129,8.132c-1.628,1.377-3.5,2.5-4.5,4.13l-7.382-4.5a2.553,2.553,0,0,0-3.005.75L116.3,80.4a2.688,2.688,0,0,0,.375,3.253l5.757,6.008c-1,1.626-1.5,3.377-2.5,5l-8.383-1a2.638,2.638,0,0,0-2.378,1.878l-1.377,5.256a2.39,2.39,0,0,0,1.127,2.877l8.132,3.128a35.258,35.258,0,0,0-.375,6.132l-8.383,2.378c-1.126.375-1.878,1.126-1.627,2.377l.625,5.506a2.31,2.31,0,0,0,2.253,2.127l8.634-.126c.5,1.752.876,3.38,1.377,5.132l-6.633,5.38a2.137,2.137,0,0,0-.375,2.752l2.878,5.256a2.574,2.574,0,0,0,3.254.751l7.258-2.878c1.251,1.251,2.628,2.878,3.753,4.254L125.81,153.6a2.108,2.108,0,0,0,.5,2.628l4.5,3.753a2.274,2.274,0,0,0,2.879-.125l5.881-5.881c1.752.5,3.253,1.5,5.005,2l-1.377,8.76a2.382,2.382,0,0,0,1.878,2.378l5.38,1.751a2.308,2.308,0,0,0,2.5-1.5l3.38-7.883c2.127.251,4,.125,6.006.375l2.126,8.134c.251,1.376,1.377,1.626,2.379,1.626l5.381-.75c1.251-.25,2.251-1.252,2.127-2.252l.124-8.51a24.041,24.041,0,0,0,5.131-2l5.256,6.757a1.96,1.96,0,0,0,2.877.752l4.756-2.754a1.96,1.96,0,0,0,.75-2.877l-3.127-8.134a14.149,14.149,0,0,0,4.5-4.13l7.383,4.5a2.109,2.109,0,0,0,2.628-.5l3.754-4.63a3.328,3.328,0,0,0-.126-2.878l-6.006-6.383a18.3,18.3,0,0,0,2.252-4.755l8.759.876a2.873,2.873,0,0,0,2.253-1.251l1.626-5.881a2.134,2.134,0,0,0-1.5-2.628l-7.758-3.378a32.357,32.357,0,0,0,.626-5.756l7.757-2.5A2.038,2.038,0,0,0,218.158,108.055ZM162.349,130.58a17.771,17.771,0,1,1,17.519-17.77A17.706,17.706,0,0,1,162.349,130.58Z" fill="#ffcb40"/><path d="M74.862,288.938a16.964,16.964,0,0,1-4.443,1.327l-.376-.935a67,67,0,0,1-8.776,2.524c-1.664.289-4.367.758-5.717.392a1.47,1.47,0,0,1-.551-.7c-.23-2.562,9.853-4.908,12.051-8.291a.8.8,0,0,0,.564-.5c.726.475,1.794,1.69,3.458,1.4s3.288-3.431,3.614-2.628C75.237,282.875,75.07,288.9,74.862,288.938Z" fill="#737373" fill-rule="evenodd"/><path d="M95.076,290.99l6.337.221.409-.881c1.84.44,6.543,1.1,8.587,1.321,1.84,0,4.293,0,5.52-.661.2-.22.614-.66.409-.881-.2-2.863-11.335-3.555-13.788-6.859h-.409c-.613.661-.523,1.574-2.159,1.574s-3.271-1.762-3.884-2.2C95.076,283.282,94.871,290.99,95.076,290.99Z" fill="#737373" fill-rule="evenodd"/><path d="M101.965,164.123l.706-7.137-10.358-.793-.706,7.137c-.235,1.784.942,3.568,4.708,3.766C100.082,167.493,101.73,165.709,101.965,164.123Z" fill="#ab845f" fill-rule="evenodd"/><path d="M91.372,156.236c2.825,3.852,5.649,5.778,10.593,7.49l.706-7.276-11.3-2.14Z" fill="#99704f" fill-rule="evenodd"/><path d="M77,214.575c-3.389,15.905-5.473,32.435-5.056,35.074s-5.139,34.032-5.139,34.032,5.243,1.694,7.93-.806c1-2.312,8.6-34.476,15.822-54.756.851-2.388,2.5-3.195,2.5,1.111S95.143,286.6,95.143,286.6a11.08,11.08,0,0,0,8.094-2.473s.917-26.541,1.75-29.875,2.519-25.575,1.963-34.465S78.406,207.985,77,214.575Z" fill="#b2b2b2" fill-rule="evenodd"/><path d="M101.9,162.185a56.4,56.4,0,0,0,9.261,11.39c2.685-4.63,9.168-9.631,9.168-9.631l-5.834-7.963S105.422,161.074,101.9,162.185Z" fill="#69afe5" fill-rule="evenodd"/><path d="M111.812,175.613a13.459,13.459,0,0,0-9.592-13.721,3.883,3.883,0,0,1-3.187,3.789c-3.342.508-7.223-3.959-7.223-3.959a35.3,35.3,0,0,0-4.445,1.389c-3.056,1.111-7.065,1.595-7.085,15C80.237,207.75,69.987,217.5,69.987,217.5S81.114,220.757,90,222.424a52.109,52.109,0,0,0,17.233.076s-1.833-23.333,2.917-40.667C110.154,181.813,111.811,175.633,111.812,175.613Z" fill="#409ae1" fill-rule="evenodd"/><path d="M106.887,151.486c-.327-1.372-.687-2.9-1.007-4.284l1.253-.387c1.156-.356.979-1.315.188-1.982l-2.558-2.428a12.53,12.53,0,0,0-8.133-8.192c-5.33-1.744-5.673.848-8.71,5.562-4.136,6.426-2.587,14.146,4.028,17.5,2.248,1.14,6.539.848,11.755-.519,3.96-1.038,3.74-2.938,3.184-5.272" fill="#ab845f"/><path d="M98.321,143.147a.453.453,0,0,1-.3-.5,3.509,3.509,0,0,1,1.273-2.092,2.506,2.506,0,0,1,1.971-.353.454.454,0,1,1-.175.89,1.617,1.617,0,0,0-1.279.207,2.607,2.607,0,0,0-.9,1.506.456.456,0,0,1-.526.366.436.436,0,0,1-.073-.02" fill="#4f3e34"/><path d="M102.547,144.213a1.1,1.1,0,1,1-.5-1.469,1.1,1.1,0,0,1,.5,1.469" fill="#505050"/><path d="M99.737,173.047c6.147,1.863,24.728-.772,31.9-3.772s7.475,3.093,1.241,6.481-26.452,8.979-35.53,6.564S99.737,173.047,99.737,173.047Z" fill="#ab845f" fill-rule="evenodd"/><path d="M89.309,165.426c5.2,3.06,15.836,8.057,15.836,8.057l-2.256,10.663s-14.842-2.868-20.155-7.793S82.992,161.707,89.309,165.426Z" fill="#69afe5"/><path d="M135.9,174.726c4.37-.86,5.817-2.02,8.992-4.693,1.869-1.691,1.946-2.784.737-2.589,2.213-1.129,2.346-3.62,1.018-2.943.281-.354.962-1.545.456-2.235-.485-.385-1.49.549-1.911,1.08-.064-.915-.872-1.557-2.3-.092a4.85,4.85,0,0,1-2.354,1.306c.962-1.544.737-2.589-.191-2.748-1.123,1.417-3.294,3.156-4.839,5.1l-.843,1.062-9.822,3.746,4.816,5.552Z" fill="#ab845f" fill-rule="evenodd"/><path d="M87.13,136.818a20.111,20.111,0,0,1,9.323-5.35c2.182-.486,4.364,0,4.761,2.675.595,3.648-2.579,4.377-3.967,4.62l-1.984.486a1.737,1.737,0,0,0-.793,2.189l1.983,5.106-.992.73a.334.334,0,0,1-.595,0c-.595-.973-1.785-2.675-3.173-1.7-1.389,1.216-.794,2.918,0,3.891.793.729,1.785.973,1.983,2.188.2.487,1.19,3.891-1.587,5.593a12.2,12.2,0,0,1-6.546-7.295,13.175,13.175,0,0,1,.2-10.942A5.265,5.265,0,0,1,87.13,136.818Z" fill="#4f3e34" fill-rule="evenodd"/><path d="M285.248,98.327c-1.238-.274-2.448-.524-4.712-1.008s-3.549-1.885-3.814-3.045-.632-2.487-.825-3.817a4.169,4.169,0,0,1,1.381-4.029c.817-.946,1.688-1.586,3.879-3.646,1.342-1.261,1.67-2.24.708-3.676a35.3,35.3,0,0,0-2.651-3.768,2.675,2.675,0,0,0-3.491-.428c-1,.595-2.182,1.356-4.556,2.829s-3.628.688-4.629,0-1.618-1.058-2.915-1.906-1.966-1.82-1.861-2.971.133-4.416.2-6.694-1.36-2.532-2.351-2.674-2.72-.357-4.008-.526a2.292,2.292,0,0,0-2.683,1.7c-.429,1.308-1.187,4.193-1.765,6.224a3.577,3.577,0,0,1-2.978,2.958s-1.577.263-3.322.534a4.3,4.3,0,0,1-3.827-1.3c-1-.891-2.429-2.584-3.93-4.18s-2.916-1.259-3.759-.5-2.458,1.977-3.408,2.74a2.458,2.458,0,0,0-.239,3.307c.732,1.2,1.845,3.3,2.645,4.732a3.635,3.635,0,0,1,.077,3.859c-.773,1.576-1.145,2.112-1.9,3.519a3.6,3.6,0,0,1-3.782,2c-1.7-.162-3.411-.4-5.687-.654a2.334,2.334,0,0,0-2.855,1.981c-.279,1.563-.421,2.947-.669,4.412a2.554,2.554,0,0,0,1.925,3.13c1.485.313,3.562.709,5.47,1.089a3.512,3.512,0,0,1,3,3.165c.28,1.594.94,3.839.94,3.839.557,1.909-.156,2.913-1.38,3.968s-2.182,1.781-3.923,3.2-1.71,2.506-.812,4.015,1.21,2.011,2.008,3.281a2.738,2.738,0,0,0,3.893.974c1.06-.7,2.822-1.82,4.748-3.1a3.963,3.963,0,0,1,4.6.122,18.582,18.582,0,0,1,2.788,1.931c1.376,1.181,1.99,1.628,1.95,3.637-.025,1.249-.04,2.316-.093,5.323-.032,1.841.441,2.759,2.141,3.07a39.409,39.409,0,0,0,4.839.716c1.626.025,2.182-1.061,2.452-2.191s.55-2.509,1.149-5.238,2.038-3.08,3.231-3.316,2.161-.476,3.672-.814a3.532,3.532,0,0,1,3.4,1.286c.946.974,2.823,2.682,4.409,4.317s2.763.792,3.557.18,2.152-1.7,3.171-2.5a2.293,2.293,0,0,0,.651-3.112c-.639-1.219-2.178-3.774-3.23-5.605a3.115,3.115,0,0,1,.163-3.912l1.8-2.814c.98-1.73,2.2-1.92,3.806-1.778s3.1.356,5.331.613,2.61-.259,3.065-1.956.677-2.567,1.03-4.024A2.736,2.736,0,0,0,285.248,98.327Zm-33.257,12.227A12.76,12.76,0,1,1,265.142,98.2,12.761,12.761,0,0,1,251.991,110.554Z" fill="#106ebe"/><path d="M415.479,146.745s-3.773-7.43-4.273-8.215a15.553,15.553,0,0,0-5.3-1.617c-1.24.059-1.734,1.27-2.092,4.711-.273,2.618,3.541,5.039,4.882,5.765s6.046,2.371,6.046,2.371l1.786-2.425Z" fill="#ffc18f"/><path d="M407.571,143.542l-1.416-4.555s2.264.756,2.743.994c.337.167.717,2.405.912,3.714a.514.514,0,0,1-.724.542Z" fill="#e5ad80" fill-rule="evenodd"/><path d="M467.914,288.747s-17.372.508-17.281.432a2.46,2.46,0,0,0,.024-.654,2.343,2.343,0,0,1,2.1-2.169l3.98-.76a9.3,9.3,0,0,0,2.191-.8l3.085-2.119c.849-.7,2.7-.566,3.9-.493l1.982.066a9.89,9.89,0,0,1,.168,5.982Z" fill="#939393"/><polygon points="467.931 288.584 467.663 290.249 450.692 290.674 450.651 289.016 467.931 288.584" fill="#737373"/><path d="M446.914,288.747s-17.372.508-17.281.432a2.46,2.46,0,0,0,.024-.654,2.343,2.343,0,0,1,2.1-2.169l3.98-.76a9.3,9.3,0,0,0,2.191-.8l3.085-2.119c.849-.7,2.7-.566,3.9-.493l1.982.066a9.89,9.89,0,0,1,.168,5.982Z" fill="#939393"/><polygon points="446.931 288.584 446.663 290.249 429.692 290.674 429.651 289.016 446.931 288.584" fill="#737373"/><path d="M454.237,205.167c-5.033,26.216-6.75,78.9-6.75,78.9-1.564.513-6.625-1.25-6.625-1.25s-2.791-52.48-1.8-76.455C439.438,197.342,455.06,200.883,454.237,205.167Z" fill="#09538f" fill-rule="evenodd"/><path d="M462.973,203.631a47.917,47.917,0,0,1,0,22.651,246.489,246.489,0,0,1,5.278,56.238c-1.468.745-6.18-.02-6.18-.02s-3.166-26.415-9.667-45.5c-1.123-3.295-2.019-21.013-2.833-30S462.31,199.32,462.973,203.631Z" fill="#09538f" fill-rule="evenodd"/><path d="M433.821,171.543c.839-3.356,5.663-15.31,8.747-17.511a3.93,3.93,0,0,0,3.228,3.838c3.385.515,7.317-4.01,7.317-4.01a35.637,35.637,0,0,1,4.5,1.407c3.1,1.126,8.709,3.4,4.725,16.383-6.918,22.543,4.617,32.191,4.617,32.191a52.551,52.551,0,0,1-14.261,3.775,47.515,47.515,0,0,1-14.891-.419S437.6,184.756,433.821,171.543Z" fill="#e58b39" fill-rule="evenodd"/><path d="M448.791,157.262c-1.252.094-2.594.221-3.969.334a4,4,0,0,0,.974.274A5.18,5.18,0,0,0,448.791,157.262Z" fill="#fda84c"/><path d="M442.825,156.292l-.715-7.23,10.493-.8c.146,2.311.618,5.457.618,5.457.239,1.807-1.462,3.849-4.876,5.191C444.774,160.31,443.064,157.9,442.825,156.292Z" fill="#ffc18f" fill-rule="evenodd"/><path d="M453.557,148.3c-5.007,6.792-11.132,3.823-11.132,3.823l-.315-3.606,11.447-2.168Z" fill="#e5ad80" fill-rule="evenodd"/><path d="M437.734,137.848c1.1-.915,2.989-2.5,3.355-4.087a39.594,39.594,0,0,1,3.776-8.4l14.395,10.015s-2.114,9.421-8.95,12.916c-1.83.819-4.951,1.939-10.807.475-2.016-.5-2.882-2.168-2.563-3.234.733-2.44,1.77-5.185,1.77-5.185C437.551,139.007,436.869,138.568,437.734,137.848Z" fill="#ffc18f"/><path d="M453.684,143.963a16.2,16.2,0,0,1-3.612,4.345,10.353,10.353,0,0,1-3.8,1.442c.657-.062-.3-.217-.187-.344a12.333,12.333,0,0,0,6.015-6.4l.123.107.623.55C453.09,143.881,453.324,143.862,453.684,143.963Z" fill="#e5ad80"/><path d="M463.88,134.143a15.115,15.115,0,0,1-.06,4.586c-.666,4.517-3.246,6.442-6.968,8.908-1.351,1.032-.6,5.448-.949,5.585-.222.253-2.508-.661-6.61-4.277,5.415-3.639,7.692-12.243,3.978-11.535a3.751,3.751,0,0,1-1.169.069l-9.816-10.192s5.227-6.686,12.606-3.273A16.417,16.417,0,0,1,463.88,134.143Z" fill="#9d6853"/><path d="M452.264,140.055a22.074,22.074,0,0,0,.32-2.367,3.4,3.4,0,0,1,3.633-.114,3.323,3.323,0,0,1,1.356,4.727,3.573,3.573,0,0,1-4.731,1.361,2.3,2.3,0,0,1-1.258-1.333C451.774,141.613,452.075,140.771,452.264,140.055Z" fill="#ffc18f"/><path d="M456.91,139.292a1.984,1.984,0,0,1,.107,1.636,2.336,2.336,0,0,1-2.939,1.832l1.029-4.174C455.716,138.9,456.305,138.976,456.91,139.292Z" fill="#e5ad80"/><path d="M443.255,137.218c.274-.718,1.024-1.239,1.588-1.047a1.232,1.232,0,0,1,.467,1.976A4.546,4.546,0,0,0,443.255,137.218Z" fill="#754c28"/><path d="M454.892,137.073s-1.964,4.233-2.725,3.338c-.648-1.013.807-2.163-.785-3.117-9.107-.722-11.513-5.507-11.513-5.507s-.616-2.316,2.417-4.5Z" fill="#9d6853"/><path d="M449.809,147.851a5.893,5.893,0,1,0,8.319-.414A5.943,5.943,0,0,0,449.809,147.851Z" fill="#9d6853"/><path d="M455.914,155.222a5.956,5.956,0,0,0-.524-8.431l-.248-.219c3.032-2.192,5.251-4.21,6.047-8.373a26.413,26.413,0,0,0,.072-4.591,16.729,16.729,0,0,0-9.1-10.007c-.483-.208-.857-.539-1.325-.509a11.074,11.074,0,0,1,4.052.922,16.417,16.417,0,0,1,8.988,10.129,15.115,15.115,0,0,1-.06,4.586c-.573,4.157-2.915,6.067-6.063,8.382l.371.326a5.891,5.891,0,0,1,.522,8.2,5.783,5.783,0,0,1-6.722,1.59A5.88,5.88,0,0,0,455.914,155.222Z" fill="#81513c"/><path d="M438.223,144.293h0a6.212,6.212,0,0,0,3.87.3c.232.035.408-.29.31-.427s-.192-.27-.329-.173a5.952,5.952,0,0,1-3.409-.223c-.231-.035-.462-.078-.5.157A.566.566,0,0,0,438.223,144.293Z" fill="#9d6853"/><path d="M106.781,151.037c-.125-.525-.252-1.062-.38-1.606a24.542,24.542,0,0,1-3.7.611A7.374,7.374,0,0,0,106.781,151.037Z" fill="#fff"/><path d="M408.361,142.03l-1.706-3.277a3.416,3.416,0,0,0-2.169-1.728l-2.149-.559a1.707,1.707,0,0,1-1.254-1.514,23.785,23.785,0,0,0-1.356-6.014,1.665,1.665,0,0,1,.737-2l.918-.539a3.413,3.413,0,0,0,1.607-2.215l.8-3.654a1.59,1.59,0,0,0-1.076-1.856l-3.523-1.111a3.418,3.418,0,0,0-2.756.312l-1.89,1.11a1.706,1.706,0,0,1-1.962-.188,24.029,24.029,0,0,0-5.239-3.327,1.664,1.664,0,0,1-.885-1.932l.312-1.2a3.414,3.414,0,0,0-.43-2.7l-2.018-3.147a1.59,1.59,0,0,0-2.073-.552l-3.277,1.706a3.413,3.413,0,0,0-1.728,2.169l-.606,2.342a1.591,1.591,0,0,1-1.428,1.174,23.85,23.85,0,0,0-5.622,1.164,1.666,1.666,0,0,1-1.961-.749l-.632-1.077a3.417,3.417,0,0,0-2.217-1.607l-3.653-.8a1.59,1.59,0,0,0-1.856,1.075l-1.111,3.524a3.418,3.418,0,0,0,.312,2.756l1.022,1.74a1.7,1.7,0,0,1-.219,2,24,24,0,0,0-3.561,5.319,1.66,1.66,0,0,1-1.915.85l-1.178-.306a3.416,3.416,0,0,0-2.7.43l-3.148,2.019a1.591,1.591,0,0,0-.552,2.073l1.707,3.277a3.415,3.415,0,0,0,2.169,1.727l2,.521a1.706,1.706,0,0,1,1.257,1.558,23.871,23.871,0,0,0,1.259,6.221,1.663,1.663,0,0,1-.749,1.966l-1.037.609a3.414,3.414,0,0,0-1.608,2.216l-.8,3.654a1.59,1.59,0,0,0,1.076,1.856l3.524,1.11a3.412,3.412,0,0,0,2.755-.312l1.8-1.059a1.708,1.708,0,0,1,1.987.209,23.958,23.958,0,0,0,5.271,3.476,1.662,1.662,0,0,1,.86,1.92l-.258.994a3.414,3.414,0,0,0,.43,2.7l2.019,3.148a1.591,1.591,0,0,0,2.073.552l3.276-1.706a3.417,3.417,0,0,0,1.728-2.17l.5-1.9a1.676,1.676,0,0,1,1.523-1.236,23.862,23.862,0,0,0,6.691-1.462,1.667,1.667,0,0,1,2.019.728l.522.889a3.42,3.42,0,0,0,2.216,1.608l3.654.8a1.59,1.59,0,0,0,1.855-1.076l1.111-3.523a3.418,3.418,0,0,0-.312-2.756l-1.147-1.954a1.708,1.708,0,0,1,.178-1.951,23.945,23.945,0,0,0,3.242-5.19,1.665,1.665,0,0,1,1.937-.9l1.016.265a3.416,3.416,0,0,0,2.7-.43l3.148-2.019A1.589,1.589,0,0,0,408.361,142.03Zm-42.707,7.822a5.186,5.186,0,1,1,5.185-5.185A5.184,5.184,0,0,1,365.654,149.852Zm3.667-19.917a5.185,5.185,0,1,1,5.185-5.185A5.185,5.185,0,0,1,369.321,129.935Zm8.123,11.333a4.225,4.225,0,1,1,4.225-4.225A4.225,4.225,0,0,1,377.444,141.268Zm8.377,12.417a5.185,5.185,0,1,1,5.185-5.185A5.185,5.185,0,0,1,385.821,153.685Zm3.666-19.916a5.186,5.186,0,1,1,5.186-5.186A5.185,5.185,0,0,1,389.487,133.769Z" fill="#ec6401"/><path d="M423.529,152.042l-10.767-7.795-1.371,1.626-3.935-2.319a30.465,30.465,0,0,1-5.141-3.059c-.656-.492-2.373.527-1.011,1.8a61.045,61.045,0,0,0,5.352,4.757,27.3,27.3,0,0,0,3.48,1.477l10.351,8.971C421.521,155.95,422.612,153.792,423.529,152.042Z" fill="#ffc18f"/><path d="M408.987,146.417c-2.826-.521-4.863-2.3-7.932-4.4a2.051,2.051,0,0,0,.249.277c.17.159.363.342.574.541.421.4.91.864,1.417,1.339s1.033.959,1.526,1.4a16.359,16.359,0,0,0,1.835,1.478,27.3,27.3,0,0,0,3.48,1.477l10.685,9.554C421.168,157.562,411.555,146.89,408.987,146.417Z" fill="#e5ad80"/><path d="M438.919,159.173c-3.756-1.452-15.348-7.256-15.348-7.256l-3.167,5.75s13.043,9.9,14.621,10.255A80.168,80.168,0,0,1,438.919,159.173Z" fill="#fda84c"/><path d="M416.8,164.616c-2.355-.544-6.142-1.54-12.1-3.383-.426-.132-.692-.51-1.038-.764-1.9-1.4-5.667-3.074-7.051-4.094-1.062,1.313-.062,2.188,1.569,3.178a23.053,23.053,0,0,1-2.715-.511c-1.453-.307-1.037,1.489-1.037,1.489a1.041,1.041,0,0,0-.762,1.007,3.688,3.688,0,0,0,.256,1.266s-.309.215-.22,1.12a3.463,3.463,0,0,0,1.129,1.736c3.638,1.649,5.31,2.348,9.839,2.058l.518.165c5.481,2.738,21.629,6.48,32.319,6.555C437.508,174.438,423.4,165.474,416.8,164.616Z" fill="#ffc18f" fill-rule="evenodd"/><path d="M396.425,159.25a11.612,11.612,0,0,1-2.658-1c-1.446-.542-1.15,1.594-1.15,1.594a1.04,1.04,0,0,0-.762,1.006,3.675,3.675,0,0,0,.255,1.266s-.309.215-.219,1.121a3.458,3.458,0,0,0,1.129,1.736c1.061.481,3.058,1.334,3.905,1.652C396.675,163.75,396.443,160.822,396.425,159.25Z" fill="#e5ad80" fill-rule="evenodd"/><path d="M405.362,166.75a42.825,42.825,0,0,1-10.805-1.376c.093.1.186.2.275.286,3.638,1.649,5.31,2.348,9.839,2.058l.518.165c2.733,1.365,8.119,2.98,14.158,4.265C419.347,172.148,407.131,166.75,405.362,166.75Z" fill="#e5ad80" fill-rule="evenodd"/><path d="M458.951,168.543c5.928-4.575.23-12.957-6.589-9.543-4.041,2.024-12,6.779-14.5,7.625l-21.56-2.219-.252,7.032s17.6,4.062,21.586,4.136A34.814,34.814,0,0,0,446,173.793C450.6,172.607,455.971,170.843,458.951,168.543Z" fill="#fda84c"/></svg>