<svg xmlns="http://www.w3.org/2000/svg" xmlns:xlink="http://www.w3.org/1999/xlink" viewBox="0 0 636 300"><defs><clipPath id="a"><rect x="399.833" y="29" width="104" height="113" fill="none"/></clipPath></defs><title>swimlane-butler-ide</title><path d="M278.3,148c.222,3.9,3.723,7,8.024,7H512.774c4.3,0,7.8-3.1,8.025-7Z" fill="#d2d2d2" fill-rule="evenodd"/><path d="M280.517,153a5.8,5.8,0,0,0,5.8,2H512.775a5.8,5.8,0,0,0,5.8-2Z" fill="#939393" fill-rule="evenodd"/><rect x="291.833" y="26" width="215" height="122" fill="#4b4a4b"/><rect x="314.833" y="39" width="16" height="3" fill="#e26c41"/><rect x="314.833" y="50" width="13" height="3" fill="#ffa940"/><rect x="320.833" y="56" width="11" height="3" fill="#b2b2b2"/><rect x="330.833" y="50" width="49" height="3" fill="#b2b2b2"/><rect x="334.833" y="56" width="50" height="3" fill="#b2b2b2"/><rect x="314.833" y="114" width="13" height="3" fill="#00b294"/><rect x="320.833" y="121" width="11" height="3" fill="#ffa940"/><rect x="331.833" y="114" width="53" height="3" fill="#b2b2b2"/><rect x="335.833" y="121" width="30" height="3" fill="#b2b2b2"/><rect x="326.833" y="63" width="16" height="3" fill="#00b294"/><rect x="345.833" y="63" width="24" height="3" fill="#b2b2b2"/><rect x="332.833" y="75" width="16" height="3" fill="#ffa940"/><rect x="351.833" y="75" width="31" height="3" fill="#b2b2b2"/><rect x="326.833" y="128" width="53" height="3" fill="#b2b2b2"/><rect x="332.833" y="82" width="16" height="3" fill="#e26c41"/><rect x="340.833" y="89" width="16" height="3" fill="#b2b2b2"/><rect x="351.833" y="82" width="24" height="3" fill="#b2b2b2"/><rect x="351.833" y="95" width="35" height="3" fill="#b2b2b2"/><rect x="351.833" y="103" width="24" height="3" fill="#b2b2b2"/><rect x="368.833" y="121" width="20" height="3" fill="#00b294"/><rect x="379.833" y="82" width="9" height="3" fill="#00b294"/><rect x="378.833" y="103" width="10" height="3" fill="#ffa940"/><rect x="399.833" y="29" width="104" height="113" fill="#f0f0f0"/><rect x="411.833" y="35" width="33" height="5" fill="#b2b2b2"/><rect x="410.833" y="70" width="82" height="2" fill="#0048b3"/><rect x="410.833" y="77" width="82" height="2" fill="#0048b3"/><rect x="410.833" y="83" width="82" height="2" fill="#0048b3"/><rect x="410.833" y="90" width="67" height="2" fill="#0048b3"/><rect x="466.833" y="104" width="26" height="26" fill="#00b294"/><rect x="472.963" y="109.917" width="14.072" height="14.072" transform="translate(57.89 373.665) rotate(-45)" fill="#40c5af"/><rect x="435.833" y="104" width="26" height="26" fill="#479cdf"/><polygon points="439.865 126 457.776 126 448.821 108.089 439.865 126" fill="#8fc3ec"/><g clip-path="url(#a)"><rect x="399.833" y="43" width="104" height="17" fill="#8fc3ec"/><rect x="404.833" y="104" width="26" height="26" fill="#ff8c00"/></g><line x1="305.833" y1="39" x2="305.833" y2="135" fill="none" stroke="#c2c2c2" stroke-miterlimit="10" stroke-width="2"/><circle cx="417.333" cy="116.5" r="7.5" fill="#ffa940"/><path d="M198.794,129.073c.018,0,.036.024.054.029-4.36-.318-8.445-2.188-12.049-4.257V149h26.988l1.237-23.585C215.833,124,198.794,129.073,198.794,129.073Z" fill="#ce9c5f"/><polygon points="215.799 126 196.776 126 208.155 150 215.799 150 215.799 126" fill="#ba8c57"/><path d="M324.022,183.9l-30.6,20.007-24.471-49.371c-2.875-7.139-7.532-11.53-14.481-12.34L216,139.557,201.458,154s-13.717-9.552-19.128-14.18c-12.329,1.035-30.15,2.854-33.872,3.618-5.72,1.171-10.763,5.632-13.139,11.975-6.807,18.157-19.421,64.056-19.421,64.056a76.542,76.542,0,0,0-.7,9.273,13.419,13.419,0,0,0,14.147,12.142c4.054-.225,19.823-.762,24.451-1.037L154.7,300h44.165l5.318-26.81L208.411,300H250.8V189.7l27.765,44.649a11.066,11.066,0,0,0,.711,1.144l.035.055h0a11.987,11.987,0,0,0,12.966,4.52,11.474,11.474,0,0,0,5.82-3.363l40.535-36.923Z" fill="#d2d2d2"/><path d="M279.155,235.638l.034.054h0a11.9,11.9,0,0,0,12.907,4.52,11.392,11.392,0,0,0,5.792-3.363l40.347-36.922-4.565-4.986c-13.938,12.55-31.537,28.417-36.07,32.585-7.792,7.168-11.843,3.74-16.207-2.181-3.076-4.175-31.089-51.888-31.089-51.888l.505,16.39,27.635,44.647a11.013,11.013,0,0,0,.708,1.145" fill="#bababa"/><path d="M381.09,155.2a12.961,12.961,0,0,0-5.153,1.543s-1.73-3.681-4.975-2.917a7.448,7.448,0,0,0-3.766,1.96s-1.776-4.59-7.051-1.373c-2.556,1.558-5.445,4.488-10.278,9.379-4.807,4.864-11.436,2.183-11.436,2.183s-.755-9.222-4.052-13.089c-3.009-3.53-7.194.443-7.194.443a24.538,24.538,0,0,1,2.208,6.1c.844,4.122-1.091,18.542-1.091,18.542l-4.558,6.12,12.806,13.988c21.873-22.757,48.179-39.35,48.179-39.35a3.39,3.39,0,0,0-3.639-3.531" fill="#ce9c5f"/><path d="M217.583,140.188l-16.645,15.618s-13.7-11.212-17.856-15.984c-12.612,1.129-30.557,2.812-34.172,3.557a13.3,13.3,0,0,0-1.639.434c6.4,16.677,5.528,35.1,5.528,35.1V217h29v20.329l-32.135,2.313-.617.227c1.987-.083,3.676-.162,4.752-.225L154.7,300h96.1V189.845a153.834,153.834,0,0,1,4.6-47.532" fill="#2e2e2e"/><polygon points="186.646 135.247 200.38 147.916 215.771 134.875 217.771 139.688 228.333 140.438 200.674 183.585 172.156 140.735 183.997 139.61 186.646 135.247" fill="#d2d2d2"/><path d="M220.127,218.646a3.674,3.674,0,0,0-2.608-2.568,5.557,5.557,0,0,0,0-2.618c-.736-2.206-2.306-3.792-4.816-3.3l-5.92,1.471-9.663.736,7.424-6.994s4.439-6.094-2.208-8.127c-12.609,12.54-13.346,9.96-17.425,14.747-.777,1.12-2.445,4.036-3.112,5.358v20.329c18.578.357,22.745.515,22.745.515l8.9-1.845c2.239-.361,3.342-2.58,2.973-4.787a3.644,3.644,0,0,0-.734-1.471,4.53,4.53,0,0,0,2.606-4.45,2.8,2.8,0,0,0-1.5-2.206,4.158,4.158,0,0,0,3.344-4.787" fill="#ce9c5f"/><path d="M213.845,146.348l-9.681,3.01a.752.752,0,0,1-.559-.06,2.809,2.809,0,0,0-1.258-.3h-3.62a2.759,2.759,0,0,0-1.383.371.747.747,0,0,1-.6.084l-10.011-3.112a.721.721,0,0,0-.936.689V159.49a.722.722,0,0,0,.943.687l9.374-3.027a.771.771,0,0,1,.749.133,2.767,2.767,0,0,0,1.862.717h3.62a2.773,2.773,0,0,0,1.764-.63.762.762,0,0,1,.713-.11l9.031,2.917a.722.722,0,0,0,.944-.687V147.034a.73.73,0,0,0-.954-.686" fill="#2e2e2e"/><path d="M181.8,237.705s-43.894,3.013-51.945,3.325c-7.09.274-13.784-4.725-14.521-12.092a27.048,27.048,0,0,1,.75-9.5S128.621,173.657,135.4,155.5a19.2,19.2,0,0,1,11.331-11.654s-.17.413-.47,1.173c-1.116,2.829-4.04,10.467-6.741,19.556-3.429,11.531-14.649,51.42-15.895,57.341s1.558,11.53,12.466,11.53c8.387,0,34.273-1.136,45.712-1.391Z" fill="#bababa"/><path d="M140.8,279h34V222.255c0-4.225,1.488-5.255,1.488-5.255H143.509a5.141,5.141,0,0,0-2.71,4.946Z" fill="#d2d2d2"/><path d="M174.8,223v-.9c0-4.1,1.487-5.1,1.487-5.1H143.509a4.987,4.987,0,0,0-2.71,4.8V223Z" fill="#fff"/><path d="M209.667,214.667c.333,1-.667,3.166-.667,3.166A4.956,4.956,0,0,1,210.333,221a5.277,5.277,0,0,1-1.166,3.167,4.634,4.634,0,0,1,1.666,3.5,7.672,7.672,0,0,1-1.5,3.666,3.1,3.1,0,0,1,1.5,2.667,7.036,7.036,0,0,1-.757,3.045l3.365-.7c2.239-.361,3.343-2.58,2.973-4.787a3.644,3.644,0,0,0-.734-1.471,4.53,4.53,0,0,0,2.606-4.45,2.8,2.8,0,0,0-1.5-2.206,4.158,4.158,0,0,0,3.343-4.787,3.674,3.674,0,0,0-2.608-2.568,5.557,5.557,0,0,0,0-2.618c-.735-2.206-2.306-3.792-4.816-3.3l-5.92,1.471S209.333,213.667,209.667,214.667Z" fill="#b28252"/><path d="M198.435,57.94h0a29.766,29.766,0,0,0-29.657,27.27,5.143,5.143,0,0,0-1.5-.244,5.2,5.2,0,0,0-5.2,5.2V96a7.431,7.431,0,0,0,7.431,7.431h.84c.687,15.751,12.14,28.386,28.078,28.386h0a29.77,29.77,0,0,0,29.77-29.77V87.709A29.769,29.769,0,0,0,198.435,57.94Z" fill="#ce9c5f"/><path d="M198.435,131.812a29.77,29.77,0,0,0,29.77-29.77V88.1c0-.251-2.609-.139-4.144-.139H211.852s-1.556,2.683.536,6.955l3.052,6.231a2.632,2.632,0,0,1-1.7,3.706l-4.308,1.114a2.633,2.633,0,0,0-1.973,2.549l1.137,9.5a11.983,11.983,0,0,1-7.142,12.425l-3.17,1.371C198.332,131.808,198.383,131.812,198.435,131.812Z" fill="#ba8c57"/><rect x="168.665" y="57.94" width="59.54" height="73.872" rx="23.433" ry="23.433" fill="none"/><circle cx="192.686" cy="93.671" r="2.292"/><circle cx="218.423" cy="93.671" r="2.126"/><path d="M223.642,108.932a14.855,14.855,0,0,0-12.623-.912l-3.564,1.368-2.7-1.238a14.826,14.826,0,0,0-12.562.065l-5.854,3s-9.155-.277-9.155-9.288l.738-13.338a4.91,4.91,0,0,1,2.819-4.173l1.121-.526a4.907,4.907,0,0,0,2.826-4.444v-2.6a5.516,5.516,0,0,1,6.1-5.485l8.3.889a23.779,23.779,0,0,1,11.894,4.741l6.122,4.672-.6-8.7,7.505,5.253-2.909-9.287L225.7,70.1S220.576,57.94,197.731,57.94s-29.066,15.47-29.066,23.424c0,1.045-1.382,2.264-1.368,3.6a5.2,5.2,0,0,1,5.182,5.2v13.264h-2.962a7.554,7.554,0,0,1-.8-.045,48.322,48.322,0,0,0,4.569,14.591v.02a28.593,28.593,0,0,0,25.98,16.651h7.554a21.313,21.313,0,0,0,21.313-21.313l.009-2.313-2.411-1.368Z"/><path d="M194.251,111.38h21.358a10.144,10.144,0,0,1-9.305,5.853C199.4,117.233,194.251,111.38,194.251,111.38Z" fill="#fff"/><polygon points="215.44 101.147 209.867 89.882 208.814 99.349 215.44 101.147" fill="#ce9c5f"/><path d="M223.391,86.92H212.857a12.013,12.013,0,0,0-12.168-.758l-1.5.758H171.336l.111.142a4.823,4.823,0,0,1,.918,1.992h11.766A3.833,3.833,0,0,0,183.7,90.8v4.506a5.107,5.107,0,0,0,5.107,5.108h8.246a5.108,5.108,0,0,0,5.108-5.108V87.851a9.867,9.867,0,0,1,8.321.151v.2a12.5,12.5,0,0,0,1.3,5.546l.852,1.719c0-.055-.017-.107-.017-.164V89.054h10.779a1.748,1.748,0,0,1,1.748,1.748v4.506a2.974,2.974,0,0,1-2.974,2.974h-6.579a2.947,2.947,0,0,1-1.925-.726l1.39,2.806.088.054h7.026a5.108,5.108,0,0,0,5.108-5.108V90.8A3.882,3.882,0,0,0,223.391,86.92Zm-23.368,8.388a2.977,2.977,0,0,1-2.974,2.974H188.8a2.977,2.977,0,0,1-2.974-2.974V90.8a1.749,1.749,0,0,1,1.747-1.748h12.446Z" fill="#737373"/><path d="M221.1,86.909h6.883a.828.828,0,0,1,.828.828v.448a.828.828,0,0,1-.828.828H221.1a0,0,0,0,1,0,0v-2.1A0,0,0,0,1,221.1,86.909Z" fill="#737373"/><path d="M197.731,56c-22.845,0-30.448,17.41-30.448,25.364,0,1.045,0,2.264.014,3.6a5.185,5.185,0,0,1,4.2,2.167V79.376c0-4.772,7.579-18.526,25.588-18.526,15.648,0,24.52,13.562,26.577,17.118l.35.244-1.344-7.8,6.146,1.793S220.576,56,197.731,56Z" fill="#282828"/><path d="M223.642,107.813a14.827,14.827,0,0,0-12.623-.732l-3.564,1.435-2.7-1.214a14.826,14.826,0,0,0-12.561.184l-5.855,2.843s-8.769.575-9.137-7.855l-.138,4.3a8.22,8.22,0,0,0,8.215,8.482h0a12.323,12.323,0,0,0,8.9-3.8l.067-.071h24.5a5.044,5.044,0,0,1,2.673.766h0a5.051,5.051,0,0,0,6.027-.51l.7-.619-.009-6.972-3.147,4.5Z" fill="#282828"/><path d="M201.264,123.853h10.751a5.213,5.213,0,0,0-5.473-4.984A4.978,4.978,0,0,0,201.264,123.853Z" fill="#282828"/></svg>