<svg xmlns="http://www.w3.org/2000/svg" viewBox="0 0 636 300"><title>swimlane-speed-gauge-comparison</title><circle cx="103.27" cy="158.367" r="88.744" transform="translate(-69.065 236.12) rotate(-81.176)" fill="#737373"/><path d="M167.585,219.513A88.743,88.743,0,0,0,42.123,94.052Z" fill="#939393"/><circle cx="103.27" cy="158.367" r="77.209" fill="#fff"/><path d="M58.932,157.689a44.343,44.343,0,0,1,88.676,0H172a68.729,68.729,0,0,0-137.452,0Z" fill="#e6e6e6"/><path d="M103.018,89.63a68.81,68.81,0,0,0-68.474,68.059H58.932a44.4,44.4,0,0,1,44.176-43.673Z" fill="#f08400"/><path d="M90.136,95.518l-2.342.556L97.867,149.08a10.053,10.053,0,1,0,7.7-1.923Z"/><circle cx="317.389" cy="128.903" r="114.903" fill="#737373"/><path d="M399.027,209.752A114.9,114.9,0,0,0,236.54,47.265Z" fill="#939393"/><circle cx="317.389" cy="128.903" r="99.967" fill="#fff"/><path d="M259.982,128.026a57.413,57.413,0,0,1,114.814,0h31.577a88.988,88.988,0,0,0-177.967,0Z" fill="#e6e6e6"/><path d="M368.593,102.962,396.747,88.7a88.963,88.963,0,0,0-168.341,39.327h31.576a57.4,57.4,0,0,1,108.611-25.064Z" fill="#5c2d91"/><path d="M317.064,39.905a89.092,89.092,0,0,0-88.658,88.121h31.576a57.482,57.482,0,0,1,57.2-56.547Z" fill="none"/><path d="M248.16,73.1a88.513,88.513,0,0,0-19.754,54.922h31.576A57.118,57.118,0,0,1,272.721,92.9Z" fill="none"/><path d="M374.5,69.81l-2.255-2.153-50.491,48.278a13.017,13.017,0,1,0,7.516,7.016Z"/><circle cx="532.73" cy="158.367" r="88.744" transform="translate(44.051 423.082) rotate(-45)" fill="#737373"/><path d="M596.43,220.147A88.738,88.738,0,0,0,470.95,94.667Z" fill="#939393"/><circle cx="532.73" cy="158.367" r="77.209" fill="#fff"/><path d="M488.392,157.689a44.343,44.343,0,0,1,88.676,0h24.388a68.729,68.729,0,0,0-137.452,0Z" fill="#e6e6e6"/><path d="M479.262,115.271A68.362,68.362,0,0,0,464,157.689h24.388a44.113,44.113,0,0,1,9.839-27.128Z" fill="#91a80a"/><path d="M474.207,134.558l-.838,2.257,49.671,21.068a10.053,10.053,0,1,0,2.681-7.475Z"/><text transform="translate(62.371 272.512)" font-size="16" font-family="SegoeUI, Segoe UI">Java Servlet</text><text transform="translate(74.901 190.398)" font-size="20" font-family="SegoeUI-Semibold, Segoe UI" font-weight="700">0.96M</text><text transform="translate(66.775 204.883)" font-size="12" font-family="SegoeUI, Segoe UI">requests / sec</text><text transform="translate(506.098 272.512)" font-size="16" font-family="SegoeUI, Segoe UI">Node.js</text><text transform="translate(504.21 190.398)" font-size="20" font-family="SegoeUI-Semibold, Segoe UI" font-weight="700">0.43M</text><text transform="translate(496.235 204.883)" font-size="12" font-family="SegoeUI, Segoe UI">requests / sec</text><text transform="translate(282.635 272.512)" font-size="16" font-family="SegoeUI, Segoe UI">.NET Core</text><text transform="translate(282.3 173.398)" font-size="28" font-family="SegoeUI-Semibold, Segoe UI" font-weight="700">1.71M</text><text transform="translate(280.894 189.883)" font-size="12" font-family="SegoeUI, Segoe UI">requests / sec</text></svg>