<svg xmlns="http://www.w3.org/2000/svg" viewBox="0 0 636 300"><title>swimlane-subscribe-to-news-tips</title><path d="M163.737,128l-85.082.133a2.827,2.827,0,0,0-2.829,2.828V189.15h89.811V130.961c0-1.489.405-2.828-1.233-2.828" fill="#505050"/><path d="M161.737,132h-82v52h82Z" fill="#fff"/><path d="M177.106,193l-112.933-.155a3.445,3.445,0,0,1-3.436-3.562V188h121v1.283A4.519,4.519,0,0,1,177.106,193Z" fill="#7b91a0"/><path d="M121.828,130.366a.894.894,0,1,1-.894-.894C121.381,129.324,121.828,129.77,121.828,130.366Z" fill="#7b91a0"/><line x1="181.737" y1="171" x2="182.623" y2="171.463" fill="none" stroke="#b2b2b2" stroke-miterlimit="10" stroke-width="2"/><line x1="185.244" y1="172.834" x2="314.97" y2="240.685" fill="none" stroke="#b2b2b2" stroke-miterlimit="10" stroke-width="2" stroke-dasharray="1.972 2.958"/><polyline points="316.281 241.37 317.167 241.833 318.061 241.387" fill="none" stroke="#b2b2b2" stroke-miterlimit="10" stroke-width="2"/><line x1="320.763" y1="240.041" x2="449.992" y2="175.62" fill="none" stroke="#b2b2b2" stroke-miterlimit="10" stroke-width="2" stroke-dasharray="2.012 3.019"/><line x1="451.342" y1="174.946" x2="452.237" y2="174.5" fill="none" stroke="#b2b2b2" stroke-miterlimit="10" stroke-width="2"/><line x1="210.737" y1="82" x2="211.291" y2="82.832" fill="none" stroke="#b2b2b2" stroke-miterlimit="10" stroke-width="2"/><line x1="212.972" y1="85.356" x2="315.772" y2="239.739" fill="none" stroke="#b2b2b2" stroke-miterlimit="10" stroke-width="2" stroke-dasharray="2.022 3.032"/><polyline points="316.613 241.001 317.167 241.833 317.758 241.027" fill="none" stroke="#b2b2b2" stroke-miterlimit="10" stroke-width="2"/><line x1="319.551" y1="238.579" x2="423.25" y2="97.031" fill="none" stroke="#b2b2b2" stroke-miterlimit="10" stroke-width="2" stroke-dasharray="2.023 3.034"/><line x1="424.146" y1="95.807" x2="424.737" y2="95" fill="none" stroke="#b2b2b2" stroke-miterlimit="10" stroke-width="2"/><path d="M417.569,266.886a11.221,11.221,0,0,0-.945-2.189c-6-14.53-15.1-34.016-23.024-49.809L368.433,225.3c5.559,12.367,11.987,27.271,17.93,39.431-6.442,2.006-13.146,4.066-16.741,5.089-8.794,2.228-17.278,4.271-23.7,5.523-6.237,1.566-10.726,2.522-10.726,2.522-4.675.644-7.949,5.106-7.432,10.287a9.207,9.207,0,0,0,.339,1.351h42.081c6.464-1.207,22.739-3.077,39.408-7.985C415.675,279.724,419.945,273.082,417.569,266.886Z" fill="#e1bc8f"/><path d="M208.737,278H190.781a3.651,3.651,0,0,0-3.5,2.646l-2.2,7.732a3.628,3.628,0,0,0,3.49,4.622H210.3a3.647,3.647,0,0,0,3.5-4.652l-2.195-7.7A3.642,3.642,0,0,0,208.1,278" fill="#333"/><path d="M277.207,174.292A13.469,13.469,0,0,0,259.1,179.5q-3.436,5.972-6.879,11.95c-7.662,12.159-27.229,52.184-36.926,76.173-.068.182-.116.348-.176.523l0-.007s-18.595.267-22.137.443-3.986.709-7.174,6.387-3.54,6.3-3.54,6.3c-1.064,2.04.529,3.756,3.1,3.816,3.128.073,6.819-5.413,6.819-5.413s-1.427,2.1-2.658,4.171c-1.683,2.839,3.72,4.879,7.174,1.242,2.465-2.6,5.754-7.008,5.754-7.008l6.5.124a3.612,3.612,0,0,1,2.572,2.5l.741,2.6a5.162,5.162,0,1,0,6.838,5.385c6.277-2.68,13.571-7.854,17.644-15.462.1-.184.171-.345.262-.523.265-.464.532-.954.8-1.486,10.273-20.346,29.629-54.4,36.865-66.276,2.293-3.984,4.944-7.894,7.38-12.592A13.453,13.453,0,0,0,277.207,174.292Z" fill="#e1bc8f"/><path d="M256.05,217.85s-.112.251-.316.705l-17.279-1.446,12.98,10.974c-6.9,15.216-19.463,42.549-22.833,47.451-4.718,6.863-5.79,8.149-9.65,9.865-3.516,1.562-5.6,4.9-5.134,7.918.059,0,.115.018.175.018a5.154,5.154,0,0,0,5.111-4.65c6.277-2.68,13.571-7.854,17.644-15.462.1-.184.171-.345.262-.523.265-.464.532-.954.8-1.486,7.456-14.768,19.695-36.75,28.614-52.239Z" fill="#cea684"/><path d="M369.212,181.5c-5.938-26.728-11.531-52.789-16.477-71.629-.336-1.283-.712-2.566-1.116-3.837C347.1,90.717,341.9,76.857,328.906,71.9c-8.9-3.395-13.108,2.091-12.947,4.343-.245-3.427-3.216-8.685-14.807-3.98-11.629,4.721-17.791,15.991-22.182,29.439-.568,1.666-1.093,3.394-1.591,5.175-.243.849-.488,1.7-.723,2.559l.04-.047c-4.8,18.7-6.652,43.282-13.122,72.113Z" fill="#613d30"/><path d="M316.325,198.906l29.287-29.156c-2.726-.521-5.506-1.451-10.765-2.451l-3.744-.8-30.14.364-11.6,3.261Z" fill="#e1bc8f"/><path d="M317.358,180.765c-9.326,0-16.5-5.452-16.858-14.9V153.5l33-.361.231,13.917c0,6.836-7.408,13.709-16.373,13.709" fill="#e1bc8f"/><path d="M270.824,230.145c1.077,27.441,1.834,46.755,2.366,60.355h88.846c2.475-59.25,2.475-59.265,2.475-59.265-5.809-16.36-.725-58.16-.725-58.16l-19.856-3.7c-13.411,17.35-39.381,18.038-54.17.591-9.918,1.564-19.836,3.075-19.836,3.075s6.35,40.75.9,57.107" fill="#724aad"/><path d="M277.207,174.291c-6.326-3.517-15.378.085-18.886,6.417-2.294,3.986-3.807,6.756-6.1,10.739-3.112,4.939-8.186,14.472-13.766,25.662l23.507,9.677c5.241-9.229,9.9-17.222,12.717-21.849,2.29-3.983,4.941-7.893,7.38-12.589a13.463,13.463,0,0,0-4.852-18.057" fill="#724aad"/><path d="M369.325,227.4l25.27-10.4c-5.65-11.34-10.8-21.027-13.943-26.019-2.293-3.983-4.124-7.235-6.415-11.221-3.514-6.332-13.453-8.816-19.776-5.3-6.256,3.873-7.155,11.091-3.644,17.423,2.439,4.693,5.084,8.606,7.38,12.589,2.788,4.578,6.714,13.066,11.128,22.931" fill="#724aad"/><path d="M368.737,289H265.03a5.969,5.969,0,0,1-5.96-5.791l-8.894-80.628c-.1-3.369,2.594-7.581,5.96-7.581H377.461c3.366,0,6.065,4.212,5.96,7.581l-8.658,80.628A5.969,5.969,0,0,1,368.8,289" fill="#b3b3b3"/><path d="M374.737,288H258.607a5.849,5.849,0,0,1-5.935-5.567l-2.467-77.511A5.839,5.839,0,0,1,256.143,199H376.981a5.837,5.837,0,0,1,5.937,5.922l-2.466,77.511A5.852,5.852,0,0,1,374.514,288" fill="#7f7f7f"/><path d="M332.737,242h-30.7a3.305,3.305,0,0,1-3.3-3.305V234.31a3.31,3.31,0,0,1,3.31-3.31h30.385a3.305,3.305,0,0,1,3.305,3.305v4.485a3.265,3.265,0,0,1-3.32,3.21" fill="#b3b3b3"/><path d="M333.55,151.469l-33.063.806v6.288c.166.142.33.276.5.415a152,152,0,0,0,15.148,12.339c4.25,2.934,17.638-4.317,17.638-4.317Z" fill="#c49970"/><path d="M342.5,113.043c-14.711-.425-36.808-1.515-48.309-2.107L286.5,97.305l.365,26.648c0,11.7,3.129,21.83,9.866,27.819l-.024,0c.14.114.276.225.413.341.239.2.476.409.726.6,6.418,5.3,12.579,10.1,17.74,10.1,5.464,0,16.928-8.228,19.189-10.733.142-.153.276-.314.415-.478,6.119-6.185,7.31-16.274,7.31-28.023Z" fill="#e1bc8f"/><path d="M323.477,134.544a2.2,2.2,0,0,1-1.087,2.181c-1.453.726-2.9.361-3.634,1.456a2.174,2.174,0,0,1-2.178,1.087c-.726,0-1.813,0-2.179-.725-.727-1.092-2.178-1.092-3.631-1.818a1.854,1.854,0,0,1-1.453-1.817Z" fill="#c49970"/><path d="M309.5,134.5h7.078l-.362-17.45c-.363,0-2.178,0-2.178,3.638a21.352,21.352,0,0,1-3.994,12c-.728,1.09-.728,1.451-.728,1.815" fill="#e6ccb9"/><path d="M305.681,143.256a12.3,12.3,0,0,0,21.045.244Z" fill="#fff"/><path d="M393.807,215.413c.255.509.51,1.019.768,1.536C394.317,216.432,394.062,215.923,393.807,215.413Z" fill="#cea684"/><path d="M393.342,214.487c-.177-.352-.356-.712-.531-1.059h0C392.986,213.779,393.164,214.131,393.342,214.487Z" fill="#cea684"/><path d="M417.569,267.274a11.2,11.2,0,0,0-.945-2.189c-5.749-13.926-14.35-32.4-22.029-47.816l-11.934,4.913-.109,3.415,12.24-3.394c6.434,16.405,15.762,40.637,16.941,46.319.682,3.287-.214,6.433-4.717,8.792-1.575.825-16.244,6.165-30.076,10.186h7.077a206.486,206.486,0,0,0,25.577-5.6C415.675,280.111,419.945,273.47,417.569,267.274Z" fill="#cea684"/><path d="M415.568,38.45a30.929,30.929,0,1,1,52.41,22.141A28.162,28.162,0,0,0,459.5,80.944V81.5h-26v-.554a29.254,29.254,0,0,0-8.851-20.718,30.592,30.592,0,0,1-9.081-21.778" fill="#ffb900"/><path d="M450.432,45.5,448.92,89.576l2.377.082L452.824,45.1a31.85,31.85,0,0,0,5.888-1.8l.155-.066a5.953,5.953,0,0,0,3.633-5.482v-.027a6.013,6.013,0,0,0-4.576-5.937,5.911,5.911,0,0,0-7.221,5.755l-.189,5.544-.006,0-.08,2.409Zm7.745-4.54a29.609,29.609,0,0,1-4.888,1.549l.173-5.07a3.52,3.52,0,1,1,7.038.038v.147a3.552,3.552,0,0,1-2.168,3.271l-.155.065" fill="#fff"/><path d="M436.5,31.5h0a5.9,5.9,0,0,1,5.9,5.858l.19,5.6a30.1,30.1,0,0,0,6.524.167L449,45.521a32.779,32.779,0,0,1-6.325-.15l1.509,44.058-2.377.082-1.525-44.525-.084-2.447-.177-5.141a4.162,4.162,0,0,0-3.517-3.9h-.1a5,5,0,0,0-3.9,3.9v.263a4.7,4.7,0,0,0,2.533,3.244,29.5,29.5,0,0,0,3.153,1.112l.105,2.5a31.8,31.8,0,0,1-4.18-1.421,5.891,5.891,0,0,1-3.611-5.436V37.4a5.908,5.908,0,0,1,5.9-5.9" fill="#fff"/><path d="M459.737,81V96.146A3.853,3.853,0,0,1,455.883,100h-5.146v3h-8v-3h-5.144a3.856,3.856,0,0,1-3.856-3.856V81Z" fill="#b2b2b2"/><rect x="438.737" y="85" width="21" height="3" fill="#d2d2d2"/><rect x="438.737" y="91" width="21" height="3" fill="#d2d2d2"/><path d="M158.4,33.741V59.48a9.57,9.57,0,0,0-.1,1.32c0,8.911,12.664,16.135,28.285,16.135,15.562,0,28.185-7.169,28.282-16.032V33.741Z" fill="#737373"/><path d="M157.266,45.28l26.426,31.572q1.421.081,2.878.083c15.563,0,28.185-7.169,28.282-16.032V33.741Z" fill="#505050"/><path d="M241.56,38.233l.051-4.288L186.726,17.709,131.737,34.863l.1,4.289,54.835,20.526Z" fill="#69afe5"/><path d="M241.56,33.945,186.726,13.42,131.84,34.863l54.835,20.525Z" fill="#737373"/><path d="M149.4,51.3a.924.924,0,0,1-.651-.269.924.924,0,0,1-.269-.65V40.378a.919.919,0,0,1,.687-.889l37.68-9.8a.917.917,0,0,1,1.12.658.919.919,0,0,1-.657,1.119l-36.991,9.627v9.293a.924.924,0,0,1-.069.352.943.943,0,0,1-.2.3.917.917,0,0,1-.3.2A.906.906,0,0,1,149.4,51.3Z" fill="#e6e6e6"/><path d="M147,84.184l2.2-27.365,2.859,27.442" fill="none" stroke="#c2c2c2" stroke-linecap="round" stroke-linejoin="round" stroke-width="1.838"/><path d="M149.505,84.9l-.306-28.08" fill="none" stroke="#c2c2c2" stroke-linecap="round" stroke-linejoin="round" stroke-width="1.838"/><path d="M149.823,52.325h-.737a1.826,1.826,0,0,0-1.827,1.826v3.291a1.826,1.826,0,0,0,1.827,1.826h.737a1.826,1.826,0,0,0,1.827-1.826V54.151A1.826,1.826,0,0,0,149.823,52.325Z" fill="#737373"/><path d="M149.4,55.111a2.888,2.888,0,1,0-2.888-2.888A2.888,2.888,0,0,0,149.4,55.111Z" fill="#ffb900"/><path d="M458.737,135.261V190.1a1.234,1.234,0,0,0,.364.877,2.864,2.864,0,0,1,.877,1.024h39.7c.329-.661.645-.53.877-.3a1.237,1.237,0,0,1,.363.877,1.238,1.238,0,0,0,.364.877,3.7,3.7,0,0,0,.877.543h11.164a3.682,3.682,0,0,0,.877-.543,1.234,1.234,0,0,0,.364-.877,1.237,1.237,0,0,1,.363-.877c.232-.233.877.3.877.3h39.7a1.228,1.228,0,0,0,.877-.369,1.27,1.27,0,0,0,.363-.892V135.261a1.27,1.27,0,0,0-.363-.892A1.232,1.232,0,0,0,555.5,134H459.978a1.231,1.231,0,0,0-.877.369A1.267,1.267,0,0,0,458.737,135.261Z" fill="#939393"/><path d="M551.779,181.415H463.7v6.2h88.076Z" fill="#505050"/><path d="M506.737,187.327S505.8,181,497.857,181h-34.12V129H499.26c7.284,0,7.477,6.327,7.477,6.327Z" fill="#a9d4ee"/><path d="M498.737,137h-26v2h26Z" fill="#60ace5"/><path d="M498.737,143h-26v2h26Z" fill="#60ace5"/><path d="M498.737,149h-26v2h26Z" fill="#60ace5"/><path d="M498.737,155h-26v2h26Z" fill="#60ace5"/><path d="M498.737,161h-26v2h26Z" fill="#60ace5"/><path d="M498.737,167h-26v2h26Z" fill="#60ace5"/><path d="M498.737,173h-26v2h26Z" fill="#60ace5"/><path d="M506.737,187.327s.951-6.327,9.035-6.327h35.965V129H514.35c-7.413,0-7.613,6.327-7.613,6.327Z" fill="#a9d4ee"/><path d="M516.737,139h26v-2h-26Z" fill="#60ace5"/><path d="M516.737,145h26v-2h-26Z" fill="#60ace5"/><path d="M516.737,151h26v-2h-26Z" fill="#60ace5"/><path d="M516.737,157h26v-2h-26Z" fill="#60ace5"/><path d="M516.737,163h26v-2h-26Z" fill="#60ace5"/><path d="M516.737,169h26v-2h-26Z" fill="#60ace5"/><path d="M516.737,175h26v-2h-26Z" fill="#60ace5"/><path d="M523.737,154.136l-4.5-1.24-4.5,1.24V127h9Z" fill="#e26c41"/><path d="M507.737,136h-1v52h1Z" fill="#939393"/><polygon points="130.346 132 79.737 132 79.737 184 161.737 184 161.737 163.358 130.346 132" fill="#e6e6e6"/><rect x="91.737" y="174" width="60" height="4" fill="#b2b2b2"/><rect x="91.737" y="174" width="19" height="4" fill="#e26c41"/><circle cx="121.737" cy="153" r="16.971" fill="#e26c41"/><path d="M116.737,159.277V146.723a1,1,0,0,1,1.5-.868l10.985,6.277a1,1,0,0,1,0,1.736l-10.985,6.277A1,1,0,0,1,116.737,159.277Z" fill="#fff"/><path d="M240.737,287v2.649A3.635,3.635,0,0,0,244.6,293H388.876a3.635,3.635,0,0,0,3.861-3.351V287Z" fill="#4d4c4d"/></svg>