<svg xmlns="http://www.w3.org/2000/svg" viewBox="0 0 636 300"><title>swimlane-mvc-scenario</title><path d="M448,286.059h68.2a3.219,3.219,0,0,1,3.218,2.463,3.135,3.135,0,0,1-3.334,3.537H448.272a3.221,3.221,0,0,1-3.219-2.463,3.137,3.137,0,0,1,3.335-3.537" fill="#c8c8c8"/><path d="M198,252.059h81.151a3.219,3.219,0,0,1,3.218,2.463,3.135,3.135,0,0,1-3.334,3.537h-81.6a3.22,3.22,0,0,1-3.219-2.463,3.135,3.135,0,0,1,3.334-3.537" fill="#c8c8c8"/><path d="M74,203.059H197.926a3.217,3.217,0,0,1,3.217,2.463,3.134,3.134,0,0,1-3.334,3.537H73.775a3.221,3.221,0,0,1-3.219-2.463,3.136,3.136,0,0,1,3.334-3.537" fill="#c8c8c8"/><rect x="167" y="6.059" width="258" height="181" fill="#6ab1e6"/><rect x="171" y="6.059" width="258" height="181" fill="#c9e6f2"/><rect x="186.138" y="56.934" width="60.471" height="43.774" fill="#b4daef"/><rect x="186.138" y="113.256" width="60.471" height="43.774" fill="#b4daef"/><rect x="186" y="22.059" width="98" height="5" fill="#b4daef"/><rect x="186" y="33.059" width="70" height="5" fill="#b4daef"/><path d="M89.1,198.641l-.962,2.379c-.128.659.289,1.082,1.034,1.574l5.666,2.821a15.9,15.9,0,0,0,3.775,1.249l3.391.659c1.777.345,1.327-.785,1.036-1.01a35.325,35.325,0,0,1-6.433-3.989C94.732,200.767,89.1,198.641,89.1,198.641Z" fill="#737373"/><path d="M97.624,204.623a39.915,39.915,0,0,1-7.391-2.287c-2.2-1.052-8-1.746-8-1.746l-.356,2.543a1.008,1.008,0,0,0,.328.7l-.13-.036c1.226,1.282.9,1.3,1.309,2.8l2.465-.136c-.306-.8-.169-1.385.822-1.31l2.765.606a15.957,15.957,0,0,0,3.967.288l3.465-.191C98.674,205.755,97.961,204.77,97.624,204.623Z" fill="#737373"/><path d="M92.753,203.206c-2.191-.888-6.444-3.342-6.348-4.526h-.011c.945-9.861,3.333-26.739,3.662-29.045a2.378,2.378,0,0,0,.12-.844l-1.651-27.316a5.328,5.328,0,0,0-5.853-4.558,5.265,5.265,0,0,0-4.784,5.816l4.748,26.836c-.924,8.958.773,17.478.058,29.458a9.067,9.067,0,0,0-.463,1.564c-.13.68,9.38,2.849,9.38,2.849C91.787,203.6,93.261,203.514,92.753,203.206Z" fill="#d8b094"/><path d="M103.429,168.054,96.417,140.9a5.23,5.23,0,0,0-6.716-3.17,5.376,5.376,0,0,0-3.408,6.721s-.358.256,9.726,24.474c-2.988,8.383-2.534,16.972-6.086,28.3a9.249,9.249,0,0,0-.837,1.415c-.287.627,8.415,5.058,8.415,5.058.132.194,1.582.475,1.164.052-1.908-1.4-5.448-4.818-5.049-5.939L93.6,197.8l9.742-27.567a3.354,3.354,0,0,0,.118-.635A2.278,2.278,0,0,0,103.429,168.054Z" fill="#d8b094"/><path d="M81.7,164.291c.289,1.636.6,3.383.933,5.277-.083.808-.139,1.613-.183,2.416a63.876,63.876,0,0,0,7.418-1.045c.084-.595.148-1.047.185-1.305a2.378,2.378,0,0,0,.12-.844l-.272-4.5Z" fill="#bf8e6d"/><path d="M102.457,164.291H94.1c.595,1.439,1.232,2.975,1.922,4.631-.158.442-.3.886-.44,1.33a49.6,49.6,0,0,0,7.9-2.006c-.018-.064-.029-.127-.054-.192Z" fill="#bf8e6d"/><polygon points="142.863 108.384 138.38 108.384 133.801 128.647 139.079 128.952 143.286 110.003 142.863 108.384" fill="#69afe5"/><rect x="123.102" y="128.255" width="16.894" height="1.473" fill="#505050"/><path d="M143.944,110.313a1.337,1.337,0,0,0-.379-1.253l-.7-.676-4.553,20.609.769-.041a1,1,0,0,0,.92-.78Z" fill="#505050"/><path d="M109.692,130.5l.558-14.788c.06-2.074-.5-2.818-1.326-3.348-2.215-1.418-5.774.531-6.385,2.975-.035.14-.04.279-.062.418l-.224-.019.449,16.393a3.3,3.3,0,0,0,1.932,3.254l-.023.047,14.881,5.571,2.319-5.415Z" fill="#4393d4"/><path d="M186,152.229a5.268,5.268,0,0,0,1.95-.34,4.213,4.213,0,0,0,1.61-1.105,5.827,5.827,0,0,0,1.1-1.7,4.993,4.993,0,0,0,.339-1.954V135.239a5.368,5.368,0,0,0-1.44-3.651,5.027,5.027,0,0,0-3.475-1.529h-67.91a5.583,5.583,0,0,0-2.016.34,4.35,4.35,0,0,0-1.667,1.108,5.865,5.865,0,0,0-1.141,1.7A4.868,4.868,0,0,0,113,135.17V147.1a4.879,4.879,0,0,0,.351,1.96,5.3,5.3,0,0,0,1.141,1.7,4.361,4.361,0,0,0,1.667,1.108,4.686,4.686,0,0,0,1.841.34v5.113a4.686,4.686,0,0,0-1.841.34,4.35,4.35,0,0,0-1.667,1.108,5.846,5.846,0,0,0-1.141,1.7,4.879,4.879,0,0,0-.351,1.96v11.928a4.871,4.871,0,0,0,.351,1.959,5.3,5.3,0,0,0,1.141,1.7,4.361,4.361,0,0,0,1.667,1.108,4.7,4.7,0,0,0,1.841.34v4.857a4.7,4.7,0,0,0-1.841.34,4.371,4.371,0,0,0-1.667,1.107,5.87,5.87,0,0,0-1.141,1.7A4.871,4.871,0,0,0,113,189.44v11.506a5.005,5.005,0,0,0,.34,1.96,5.322,5.322,0,0,0,1.106,1.7,4.22,4.22,0,0,0,1.616,1.107,4.975,4.975,0,0,0,1.956.342h67.964a5.263,5.263,0,0,0,1.957-.342,4.22,4.22,0,0,0,1.616-1.107,5.91,5.91,0,0,0,1.1-1.7,5.005,5.005,0,0,0,.34-1.96V189.321a4.973,4.973,0,0,0-.364-2.016,5.483,5.483,0,0,0-1.18-1.755,4.535,4.535,0,0,0-1.728-1.14,5.514,5.514,0,0,0-2.091-.351H184v-5h1.637a5.8,5.8,0,0,0,2.091-.351,4.535,4.535,0,0,0,1.728-1.14,6.069,6.069,0,0,0,1.18-1.754A4.981,4.981,0,0,0,191,173.8V162.143a5.428,5.428,0,0,0-1.341-3.584,4.579,4.579,0,0,0-3.238-1.5H185v-5h1Z" fill="#5f5f5f"/><path d="M190,150.059H124v37h66Z" fill="#505050"/><path d="M191.981,130.059H124.019a5.3,5.3,0,0,0-1.957.338,4.225,4.225,0,0,0-1.616,1.1,5.844,5.844,0,0,0-1.106,1.692,4.947,4.947,0,0,0-.34,1.947v11.846a4.942,4.942,0,0,0,.34,1.946,5.3,5.3,0,0,0,1.106,1.693,4.223,4.223,0,0,0,1.616,1.1,5.015,5.015,0,0,0,1.957.339h67.962a5.3,5.3,0,0,0,1.957-.339,4.223,4.223,0,0,0,1.616-1.1,5.849,5.849,0,0,0,1.106-1.693,4.942,4.942,0,0,0,.34-1.946V135.136a5.323,5.323,0,0,0-1.446-3.639A5.417,5.417,0,0,0,191.981,130.059Z" fill="#737373"/><path d="M189,135.059H174v3h15Z" fill="#69afe5"/><path d="M191.981,157.059H124.019a5.3,5.3,0,0,0-1.957.338,4.225,4.225,0,0,0-1.616,1.1,5.836,5.836,0,0,0-1.106,1.693,4.942,4.942,0,0,0-.34,1.946v11.846a4.947,4.947,0,0,0,.34,1.947,5.307,5.307,0,0,0,1.106,1.692,4.225,4.225,0,0,0,1.616,1.1,5.014,5.014,0,0,0,1.957.338h67.962a5.3,5.3,0,0,0,1.957-.338,4.225,4.225,0,0,0,1.616-1.1,5.857,5.857,0,0,0,1.106-1.692,4.947,4.947,0,0,0,.34-1.947V162.136a5.323,5.323,0,0,0-1.446-3.639A5.417,5.417,0,0,0,191.981,157.059Z" fill="#737373"/><path d="M189,162.059H174v3h15Z" fill="#69afe5"/><path d="M191.981,184.059H124.019a5.3,5.3,0,0,0-1.957.339,4.223,4.223,0,0,0-1.616,1.1,5.836,5.836,0,0,0-1.106,1.693,4.942,4.942,0,0,0-.34,1.946v11.846a4.946,4.946,0,0,0,.34,1.946,5.285,5.285,0,0,0,1.106,1.692,4.236,4.236,0,0,0,1.616,1.1,5.015,5.015,0,0,0,1.957.339h67.962a5.3,5.3,0,0,0,1.957-.339,4.236,4.236,0,0,0,1.616-1.1,5.857,5.857,0,0,0,1.106-1.692,4.946,4.946,0,0,0,.34-1.946V189.136a4.942,4.942,0,0,0-.34-1.946,5.289,5.289,0,0,0-1.106-1.693,4.223,4.223,0,0,0-1.616-1.1A7.255,7.255,0,0,0,191.981,184.059Z" fill="#737373"/><path d="M189,189.059H174v3h15Z" fill="#69afe5"/><path d="M103.669,165.41l-7.117-25.252s-13.493-.245-17.747-.573c-5.645,6.463.654,27.733.654,27.733a48.348,48.348,0,0,0,10.244.859C98.667,167.6,103.669,165.41,103.669,165.41Z" fill="#106ebe"/><path d="M106.557,103.59l-6.6-2.163-2.39,6.167s-2.872,8.121-.2,8.965,6.037-6.47,6.037-6.47Z" fill="#d8b094"/><path d="M101.745,100.848c-1.651,3.234-1.011,5.474,2.938,6.631l1.978-3.85Z" fill="#bf8e6d"/><path d="M109.6,101.584c1.874-.054,1.357-.7,1.242-.9-.081-.366-1.507-2.8-1.384-3.288.04-.16-.081-.366-.041-.526h0a3.6,3.6,0,0,1-2.87-.717,4.1,4.1,0,0,0-1.486,1.88,9.765,9.765,0,0,0-.127,1.175c-.162.651-.836-.032-.836-.032A5.075,5.075,0,0,0,102.867,98c-.777.328-.906,2.2-.9,2.895a1.3,1.3,0,0,1,.041.526s-.332,2.689-1.906,2.829h0c2.08,1.9,5.234,2.169,6.712,2.368,1.636.233,1.642-.457,1.642-.457C108.869,104.321,109.16,102,109.6,101.584Z" fill="#d8b094"/><path d="M105.2,94.775l-.046,1.542-.041.166a6.282,6.282,0,0,0-.048,1.547,4.1,4.1,0,0,1,1.486-1.88,4.626,4.626,0,0,1-1.351-1.375Z" fill="#bf8e6d"/><path d="M102.867,98a.744.744,0,0,0-1.055.083,2.356,2.356,0,0,0-.089,1.712c.081.366.157.731.248,1.1C101.961,100.2,102.09,98.325,102.867,98Z" fill="#bf8e6d"/><path d="M102.012,101.418s-.291,2.523-1.906,2.829h0l-.163-.04a7.6,7.6,0,0,1-4.411-4.062,1.184,1.184,0,0,1-.836-.033,4.376,4.376,0,0,1-3.812-5.107,4.691,4.691,0,0,1,5.091-4.11l.8.2a12.047,12.047,0,0,1,2.441-1.635,8.189,8.189,0,0,1,3.44-.876A7.255,7.255,0,0,1,107.9,90.76a3.144,3.144,0,0,1,2.9,3.32,3.4,3.4,0,0,1-1.374,2.787h0a3.6,3.6,0,0,1-2.87-.717,4.626,4.626,0,0,1-1.351-1.375h0l-.262,4.43c-.162.651-.836-.032-.836-.032A5.075,5.075,0,0,0,102.867,98a.744.744,0,0,0-1.055.083,2.356,2.356,0,0,0-.089,1.712c.081.366.157.731.248,1.1A1.3,1.3,0,0,1,102.012,101.418Z" fill="#505050"/><path d="M104.478,109.46l-.295-.94-2.3,2.342-.008-.032-3.99-4.233-1.245,1.056-5.032.928-2.917,2.68L82.933,128.2,75.45,139.148s4.909,5.918,23.561,7.718a54.2,54.2,0,0,1,.681-11.716l8.854-14.417.4-8.393Z" fill="#2d83cb"/><polygon points="123.819 125.821 123.11 131.098 121.454 130.924 122.306 125.596 123.819 125.821" fill="#94c9eb"/><path d="M108.35,123.127,96.6,110.622a4.519,4.519,0,0,0-3.984-2.19,4.633,4.633,0,0,0-2.924,8.04l-.026.026,14.164,11.586a3.373,3.373,0,0,0,2.312,1.283l15.333,1.924.864-5.84Z" fill="#4393d4"/><path d="M121.477,131.291l-15.333-1.924a4.233,4.233,0,0,1-2.077-.885s-14.276-11.645-14.546-11.9c-1.186-1.111-.2-.906.43-.334.244.22,13.968,10.737,13.968,10.737a6.861,6.861,0,0,0,2.925,1.35c1.058.143,14.071,2.209,14.071,2.209Z" fill="#1f7cc9"/><path d="M132.132,126.419c-.238-.152-3.827-1.879-4.213-1.763-.356.107-3.638,1.309-4.144,1.495l-.375,2.787a14.435,14.435,0,0,0,3.584.094,4.993,4.993,0,0,0,2-.771v-.008h3.019a.658.658,0,0,0,.3-.588C132.29,127.326,132.37,126.572,132.132,126.419Z" fill="#d8b094"/><rect x="238" y="46.059" width="258" height="181" fill="#939393"/><rect x="242" y="46.059" width="258" height="181" fill="#dbdbdb"/><path d="M272.649,132.693c3.481-1.8,4.238-3.069,5.8-5.783,1.087-1.735.733-2.579-.146-2.271,1.356-1.287.745-3.318-.33-2.323.33-.464.44-1.548-.244-1.928-.733-.208-1.209.771-1.356,1.287-.4-.672-1.319-.932-1.893.391a3.627,3.627,0,0,1-1.454,1.631c.208-1.428-.378-2.152-1.209-2.016-.391,1.375-1.71,3.23-2.247,5.121-.1.343-.02.8-.294,1.031-15.293,12.891-18.16,14.509-18.16,14.509.653.351.343,7.78,6.011,5.773Z" fill="#ab845f" fill-rule="evenodd"/><path d="M77.862,141.036a11.1,11.1,0,0,0-.9,2.533c7.924,4.4,16.917,5.02,21.947,4.956l-.485-1.721C86.983,145.628,80.839,142.9,77.862,141.036Z" fill="#0a54a5"/><path d="M395.465,81.023a2.25,2.25,0,0,0,1.8-.684l1.152-.8a1.5,1.5,0,0,0,.291-1.627l-.8-1.15a4.408,4.408,0,0,0-1.452-1.267l-.977-.175a1.422,1.422,0,0,1-1.07-1.533l-.93-4.194a1.5,1.5,0,0,1,.291-1.628l.825-.861a3.546,3.546,0,0,0,1-1.834l.232-1.3c.117-.651-.475-1.092-1.125-1.209l-1.246-.558a3.557,3.557,0,0,0-2.071.3l-.767.535c-.707.207-1.743.358-2.011-.026l-3.291-2.265a1.422,1.422,0,0,1-1.07-1.535l-.092-1.359a1.816,1.816,0,0,0-.685-1.8l-.8-1.152a1.484,1.484,0,0,0-1.629-.291l-1.151.8c-.384.267-1.15.8-1.266,1.451l-.233,1.3a1.423,1.423,0,0,1-1.536,1.069l-3.872.985a4.23,4.23,0,0,1-1.9-.673l-.534-.767a6.118,6.118,0,0,0-2.163-1.058l-1.3-.233c-.65-.116-1.093.476-1.21,1.127l-.232,1.3a1.587,1.587,0,0,0,.3,2.066l.153,1.036a1.154,1.154,0,0,1,.035,1.686l-2.267,3.287a1.421,1.421,0,0,1-1.536,1.067l-1.036.152a3.548,3.548,0,0,0-2.07.3l-1.15.8a2.1,2.1,0,0,0-.349,1.951l.8,1.151a11.077,11.077,0,0,0,1.78,1.323l.651.117a2.2,2.2,0,0,1,1.4,1.593l.662,3.812a2.079,2.079,0,0,1-.349,1.952l-.766.534a6.773,6.773,0,0,0-1,1.835l-.29,1.626c-.059.326.477,1.094,1.127,1.211l1.3.232c.652.117,1.628.291,2.07-.3l.709-.21a2.093,2.093,0,0,1,1.955.349l3.616,2.326c.652.117.861.825.745,1.475l.209.71a2.361,2.361,0,0,0,.627,2.127l.8,1.15a1.476,1.476,0,0,0,1.629.291l1.152-.8a3.77,3.77,0,0,0,1.325-1.777l.058-.326a2.194,2.194,0,0,1,1.593-1.394l4.2-.929a1.561,1.561,0,0,1,1.895.675l.266.384a6.143,6.143,0,0,0,2.165,1.058l1.3.233c.708-.208,1.091-.476,1.207-1.128l.558-1.242a3.544,3.544,0,0,0-.3-2.068l-.533-.768a2.069,2.069,0,0,1,.348-1.95l2.326-3.615c.116-.65.826-.859,1.534-1.069ZM389.092,67.8a3.507,3.507,0,1,1-4.884-.873,3.6,3.6,0,0,1,4.884.873m-12.35,5.178a2.806,2.806,0,1,1,3.211,4.6,2.806,2.806,0,1,1-3.211-4.6m-1.872-2.685a3.507,3.507,0,1,1,.872-4.879,3.6,3.6,0,0,1-.872,4.879M367.6,82.758a3.594,3.594,0,0,1,.872-4.88,3.1,3.1,0,0,1,4.885.873,3.507,3.507,0,1,1-5.757,4.007m14.223-2.494a3.1,3.1,0,0,1,4.884.873,3.507,3.507,0,1,1-4.884-.873" fill="#b8b8b8"/><path d="M448.7,91.134c-.908-.2-1.8-.384-3.457-.739a3.439,3.439,0,0,1-2.8-2.234c-.195-.852-.464-1.825-.606-2.8a3.059,3.059,0,0,1,1.013-2.956c.6-.7,1.239-1.164,2.847-2.675.984-.926,1.225-1.644.519-2.7a25.873,25.873,0,0,0-1.945-2.765,1.962,1.962,0,0,0-2.561-.314c-.732.436-1.6,1-3.343,2.076a2.627,2.627,0,0,1-3.4,0c-.735-.506-1.187-.776-2.138-1.4a2.394,2.394,0,0,1-1.366-2.18c.077-.845.1-3.24.146-4.911a1.678,1.678,0,0,0-1.725-1.962c-.728-.1-2-.262-2.94-.386a1.681,1.681,0,0,0-1.969,1.25c-.315.96-.871,3.076-1.3,4.567a2.626,2.626,0,0,1-2.185,2.17s-1.157.193-2.437.392a3.159,3.159,0,0,1-2.808-.955c-.737-.653-1.782-1.895-2.883-3.067s-2.14-.923-2.759-.366-1.8,1.451-2.5,2.011a1.8,1.8,0,0,0-.176,2.426c.537.878,1.354,2.422,1.941,3.472a2.666,2.666,0,0,1,.056,2.831c-.567,1.156-.84,1.55-1.4,2.582a2.644,2.644,0,0,1-2.775,1.47c-1.25-.119-2.5-.292-4.173-.48a1.712,1.712,0,0,0-2.094,1.454c-.2,1.146-.309,2.161-.491,3.236a1.874,1.874,0,0,0,1.413,2.3c1.089.229,2.613.52,4.013.8a2.575,2.575,0,0,1,2.2,2.322c.2,1.169.69,2.817.69,2.817A2.466,2.466,0,0,1,406.3,99.33c-.9.773-1.6,1.307-2.878,2.35s-1.255,1.838-.6,2.946.888,1.475,1.474,2.407a2.008,2.008,0,0,0,2.856.714c.777-.511,2.07-1.335,3.483-2.277a2.907,2.907,0,0,1,3.375.09,13.586,13.586,0,0,1,2.046,1.416c1.009.866,1.46,1.194,1.43,2.668-.018.917-.029,1.7-.068,3.906-.023,1.351.324,2.024,1.571,2.252a28.67,28.67,0,0,0,3.55.525c1.194.019,1.6-.778,1.8-1.607s.4-1.841.843-3.843,1.5-2.26,2.371-2.433,1.585-.349,2.694-.6a2.591,2.591,0,0,1,2.5.943c.694.715,2.071,1.968,3.235,3.168a1.678,1.678,0,0,0,2.61.132c.582-.449,1.579-1.247,2.326-1.838a1.682,1.682,0,0,0,.478-2.283c-.469-.894-1.6-2.769-2.37-4.113a2.285,2.285,0,0,1,.12-2.87l1.32-2.064a2.465,2.465,0,0,1,2.792-1.3c1.181.1,2.273.261,3.912.449s1.914-.19,2.248-1.435.5-1.883.756-2.953A2.008,2.008,0,0,0,448.7,91.134Zm-24.4,8.971a9.361,9.361,0,1,1,9.648-9.065A9.361,9.361,0,0,1,424.3,100.105Z" fill="#b8b8b8"/><path d="M339.965,99.276l-.534-4.7c0-.855-.962-1.282-2.032-1.389l-7.266-.428c-.428-1.5-.748-2.885-1.176-4.381l5.451-4.382a1.819,1.819,0,0,0,.64-2.457l-2.458-4.489c-.32-.642-.961-.962-2.137-.748l-6.839,2.565c-1.07-1.069-2.245-2.459-3.207-3.633L323.72,68.6a1.8,1.8,0,0,0-.428-2.245l-3.739-2.884a1.7,1.7,0,0,0-2.458.106l-5.343,5.237a17.609,17.609,0,0,0-4.169-2.245l.854-7.267a1.744,1.744,0,0,0-1.282-2.244l-4.7-1.069a1.764,1.764,0,0,0-2.032.748l-3.205,6.947a13.8,13.8,0,0,0-4.7-.213l-2.03-7.268a2.194,2.194,0,0,0-2.031-1.39l-4.916.748a1.653,1.653,0,0,0-1.5,1.711l-.107,7.267c-1.388.428-2.992,1.282-4.381,1.71l-4.489-5.771a1.6,1.6,0,0,0-2.244-.32l-4.061,2.351a1.652,1.652,0,0,0-.856,2.138l2.673,6.945c-1.39,1.176-2.993,2.138-3.847,3.527l-6.306-3.847a2.178,2.178,0,0,0-2.565.641l-2.885,3.74a2.3,2.3,0,0,0,.32,2.779l4.917,5.13c-.856,1.389-1.283,2.885-2.138,4.275l-7.16-.856a2.254,2.254,0,0,0-2.031,1.6l-1.176,4.489a2.042,2.042,0,0,0,.962,2.457l6.946,2.672a30.168,30.168,0,0,0-.32,5.237l-7.16,2.03c-.962.321-1.6.962-1.39,2.031l.535,4.7a1.972,1.972,0,0,0,1.924,1.816l7.373-.108c.428,1.5.748,2.887,1.176,4.383l-5.664,4.595a1.825,1.825,0,0,0-.321,2.351l2.459,4.488a2.2,2.2,0,0,0,2.778.642l6.2-2.458c1.068,1.068,2.244,2.458,3.2,3.633l-3.313,6.627a1.8,1.8,0,0,0,.428,2.244l3.847,3.205a1.942,1.942,0,0,0,2.459-.106l5.022-5.023c1.5.428,2.779,1.282,4.275,1.71l-1.176,7.481a2.034,2.034,0,0,0,1.6,2.031l4.6,1.5a1.972,1.972,0,0,0,2.137-1.284l2.886-6.731c1.817.213,3.419.106,5.129.32l1.817,6.947c.214,1.175,1.176,1.388,2.032,1.388l4.6-.64c1.068-.214,1.922-1.07,1.816-1.924l.106-7.267a20.524,20.524,0,0,0,4.383-1.711l4.489,5.771a1.674,1.674,0,0,0,2.457.642l4.062-2.352a1.674,1.674,0,0,0,.64-2.457l-2.671-6.947a12.07,12.07,0,0,0,3.847-3.527l6.305,3.847a1.8,1.8,0,0,0,2.245-.426l3.206-3.955a2.844,2.844,0,0,0-.107-2.458L326.392,123a15.572,15.572,0,0,0,1.923-4.061l7.481.748a2.455,2.455,0,0,0,1.925-1.068l1.388-5.023a1.821,1.821,0,0,0-1.282-2.244l-6.626-2.885a27.671,27.671,0,0,0,.535-4.917l6.625-2.136A1.74,1.74,0,0,0,339.965,99.276ZM292.3,118.513a15.178,15.178,0,1,1,14.963-15.177A15.122,15.122,0,0,1,292.3,118.513Z" fill="#b8b8b8"/><path d="M342.087,99.276l-.534-4.7c0-.855-.963-1.282-2.032-1.389l-7.266-.428c-.428-1.5-.748-2.885-1.176-4.381l5.451-4.382a1.819,1.819,0,0,0,.64-2.457l-2.458-4.489c-.32-.642-.961-.962-2.137-.748l-6.839,2.565c-1.07-1.069-2.245-2.459-3.207-3.633l3.313-6.627a1.8,1.8,0,0,0-.428-2.245l-3.739-2.884a1.7,1.7,0,0,0-2.458.106l-5.344,5.237a17.6,17.6,0,0,0-4.168-2.245l.854-7.267a1.744,1.744,0,0,0-1.282-2.244l-4.7-1.069a1.764,1.764,0,0,0-2.032.748l-3.2,6.947a13.8,13.8,0,0,0-4.7-.213l-2.03-7.268a2.195,2.195,0,0,0-2.031-1.39l-4.916.748a1.653,1.653,0,0,0-1.5,1.711l-.106,7.267c-1.389.428-2.992,1.282-4.381,1.71l-4.489-5.771a1.6,1.6,0,0,0-2.244-.32l-4.061,2.351a1.652,1.652,0,0,0-.856,2.138L270.7,71.6c-1.389,1.176-2.992,2.138-3.846,3.527l-6.306-3.847a2.179,2.179,0,0,0-2.566.641l-2.884,3.74a2.3,2.3,0,0,0,.32,2.779l4.916,5.13c-.855,1.389-1.282,2.885-2.138,4.275l-7.159-.856a2.253,2.253,0,0,0-2.031,1.6l-1.176,4.489a2.042,2.042,0,0,0,.962,2.457l6.946,2.672a29.972,29.972,0,0,0-.32,5.237l-7.16,2.03c-.962.321-1.6.962-1.39,2.031l.534,4.7a1.973,1.973,0,0,0,1.924,1.816l7.374-.108c.428,1.5.748,2.887,1.176,4.383l-5.665,4.595a1.826,1.826,0,0,0-.32,2.351l2.458,4.488a2.2,2.2,0,0,0,2.779.642l6.2-2.458c1.068,1.068,2.244,2.458,3.2,3.633l-3.313,6.627a1.8,1.8,0,0,0,.428,2.244l3.847,3.205a1.941,1.941,0,0,0,2.458-.106l5.023-5.023c1.5.428,2.779,1.282,4.275,1.71l-1.176,7.481a2.034,2.034,0,0,0,1.6,2.031l4.595,1.5a1.973,1.973,0,0,0,2.137-1.284l2.886-6.731c1.816.213,3.419.106,5.129.32l1.817,6.947c.214,1.175,1.176,1.388,2.031,1.388l4.6-.64c1.069-.214,1.923-1.07,1.817-1.924l.106-7.267a20.544,20.544,0,0,0,4.383-1.711l4.488,5.771a1.674,1.674,0,0,0,2.457.642l4.063-2.352a1.674,1.674,0,0,0,.64-2.457l-2.671-6.947A12.07,12.07,0,0,0,322,131.443l6.305,3.847a1.8,1.8,0,0,0,2.245-.426l3.206-3.955a2.84,2.84,0,0,0-.108-2.458L328.514,123a15.6,15.6,0,0,0,1.923-4.061l7.481.748a2.453,2.453,0,0,0,1.924-1.068l1.389-5.023a1.821,1.821,0,0,0-1.282-2.244l-6.626-2.885a27.572,27.572,0,0,0,.534-4.917l6.626-2.136A1.741,1.741,0,0,0,342.087,99.276Zm-47.665,19.237a15.178,15.178,0,1,1,14.963-15.177A15.122,15.122,0,0,1,294.422,118.513Z" fill="#fff"/><path d="M220.833,253.392a18.4,18.4,0,0,1-4.354,1.358l-.334-.865a53.115,53.115,0,0,1-7.482,2.222c-1.421.247-3.731.647-4.89.294a1.381,1.381,0,0,1-.48-.655c-.227-2.363,8.5-4.8,10.342-7.892l.355-.062c.627.446,1.555,1.578,2.976,1.331a5.651,5.651,0,0,0,3.064-2.379C221.043,247.307,221.011,253.361,220.833,253.392Z" fill="#737373" fill-rule="evenodd"/><path d="M236.967,255.512l5.413.188.35-.752c1.571.376,5.587.94,7.333,1.128,1.571,0,3.667,0,4.715-.564.174-.188.523-.564.349-.752-.175-2.446-8.905-3.574-11-6.4h-.349c-.524.565-1.222,1.881-2.619,1.881s-2.794-1.5-3.318-1.881C236.967,248.929,236.793,255.512,236.967,255.512Z" fill="#737373" fill-rule="evenodd"/><path d="M242.851,147.16l.6-6.095-8.847-.677-.6,6.095c-.2,1.524.8,3.047,4.021,3.217C241.243,150.038,242.65,148.515,242.851,147.16Z" fill="#ab845f" fill-rule="evenodd"/><path d="M233.8,140.424c2.413,3.29,4.825,4.935,9.047,6.4l.6-6.214-9.651-1.828Z" fill="#99704f" fill-rule="evenodd"/><path d="M221.532,190.249c-2.9,13.584-4.674,27.7-4.319,29.956s-4.389,29.065-4.389,29.065a15.516,15.516,0,0,0,4.271,1.542c2.135.356,4.033.474,4.033.474s5.813-32.149,11.982-49.47c.727-2.039,2.136-2.728,2.136.949s1.779,49,1.779,49c1.319.433,2.359.017,5.932-.475a5.767,5.767,0,0,0,3.2-1.779s.119-23.371.83-26.218.594-21,.119-28.591S222.731,184.621,221.532,190.249Z" fill="#b2b2b2" fill-rule="evenodd"/><path d="M242.8,145.505a48.156,48.156,0,0,0,7.909,9.728c2.293-3.954,7.829-8.225,7.829-8.225l-4.982-6.8S245.8,144.556,242.8,145.505Z" fill="#737373" fill-rule="evenodd"/><path d="M251.261,156.973a11.494,11.494,0,0,0-8.192-11.718,3.316,3.316,0,0,1-2.722,3.236c-2.854.434-6.169-3.381-6.169-3.381a30.08,30.08,0,0,0-3.8,1.186c-2.61.949-5.813,1.364-6.051,12.812-.215,10.374-6.05,34.641-6.05,34.641s6.762,1.78,14.355,3.2a52.229,52.229,0,0,0,15.659.119s1.805-29.546,2.972-40.049C251.267,157.005,251.261,156.991,251.261,156.973Z" fill="#505050" fill-rule="evenodd"/><path d="M247.055,136.367c-.279-1.171-.587-2.479-.86-3.659l1.07-.33a1.227,1.227,0,0,0,.322-2.191l-2.346-1.575a10.7,10.7,0,0,0-6.946-7c-4.552-1.489-4.845.725-7.439,4.751-3.533,5.488-2.242,12.147,3.441,14.947,3.491,1.721,5.99.605,10.039-.443a3.751,3.751,0,0,0,2.719-4.5" fill="#ab845f"/><path d="M239.739,129.246a.388.388,0,0,1-.252-.431,3.007,3.007,0,0,1,1.087-1.787,2.145,2.145,0,0,1,1.684-.3.387.387,0,1,1-.15.76,1.383,1.383,0,0,0-1.092.177,2.23,2.23,0,0,0-.765,1.286.39.39,0,0,1-.45.313.437.437,0,0,1-.062-.017" fill="#4f3e34"/><path d="M243.348,130.157a.937.937,0,1,1-.426-1.256.938.938,0,0,1,.426,1.256" fill="#505050"/><path d="M246.508,134.008l-3.191.476a3.56,3.56,0,0,0,3.67,1.5c-.069-.31-.479-1.975-.479-1.975" fill="#fff"/><path d="M240.948,154.782c5.25,1.591,21.119-.659,27.241-3.222s6.385,2.642,1.06,5.536-22.591,7.668-30.344,5.6S240.948,154.782,240.948,154.782Z" fill="#ab845f" fill-rule="evenodd"/><path d="M232.043,148.273c4.438,2.613,13.524,6.881,13.524,6.881l-1.927,9.107s-12.675-2.449-17.213-6.655S226.648,145.1,232.043,148.273Z" fill="#737373"/><path d="M271.831,156.216c3.732-.735,4.968-1.725,7.68-4.008,1.6-1.444,1.661-2.378.629-2.211,1.89-.965,2-3.092.869-2.514.24-.3.822-1.319.39-1.908-.414-.329-1.272.469-1.632.922-.055-.782-.745-1.33-1.963-.079a4.145,4.145,0,0,1-2.01,1.116c.822-1.319.629-2.211-.163-2.347-.96,1.209-2.813,2.695-4.133,4.358l-.72.908-8.389,3.2,4.113,4.742Z" fill="#ab845f" fill-rule="evenodd"/><path d="M230.182,123.84a17.169,17.169,0,0,1,7.962-4.569c1.864-.415,3.727,0,4.066,2.285.508,3.115-2.2,3.738-3.388,3.946l-1.694.415a1.482,1.482,0,0,0-.678,1.869l1.694,4.361-.847.623a.285.285,0,0,1-.508,0c-.508-.831-1.525-2.284-2.711-1.454a2.321,2.321,0,0,0,0,3.323c.678.623,1.525.831,1.694,1.869.17.415,1.017,3.323-1.355,4.776a10.414,10.414,0,0,1-5.591-6.23,11.251,11.251,0,0,1,.17-9.345A4.5,4.5,0,0,1,230.182,123.84Z" fill="#4f3e34" fill-rule="evenodd"/><rect x="319" y="92.059" width="258" height="181" fill="#dbdbdb"/><rect x="319" y="91.059" width="258" height="32" fill="#737373"/><rect x="332" y="102.059" width="91" height="9" fill="#939393"/><rect x="512" y="212.059" width="51" height="6" fill="#ccc"/><rect x="384" y="137.059" width="118" height="18" fill="#fff"/><rect x="512" y="192.059" width="51" height="13" fill="#fda84c"/><rect x="512" y="225.059" width="52" height="6" fill="#ccc"/><rect x="399" y="177.059" width="101" height="6" fill="#ccc"/><rect x="383" y="177.059" width="7" height="6" fill="#fff"/><rect x="399" y="193.059" width="101" height="6" fill="#ccc"/><rect x="383" y="193.059" width="7" height="6" fill="#fff"/><rect x="399" y="209.059" width="101" height="6" fill="#ccc"/><rect x="383" y="209.059" width="7" height="6" fill="#fff"/><rect x="399" y="225.059" width="101" height="6" fill="#ccc"/><rect x="383" y="225.059" width="7" height="6" fill="#fff"/><rect x="318" y="123.059" width="51" height="150" fill="#505050"/><rect x="324" y="145.059" width="40" height="11" fill="#5f5f5f"/><rect x="324" y="172.059" width="40" height="11" fill="#5f5f5f"/><rect x="324" y="198.059" width="40" height="11" fill="#5f5f5f"/><rect x="324" y="225.059" width="40" height="11" fill="#5f5f5f"/><path d="M488.424,185.25c5.857-1.237,4.619-10.191-1.438-10.235-3.589-.026-9.838-.136-11.911-.476l-8.4-4.627-4.128,6.2s6.7,5.05,8.28,6.107a22.955,22.955,0,0,0,6.542,1.963C481.05,185.1,485.48,185.871,488.424,185.25Z" fill="#fda84c"/><path d="M463.616,174.512l-1.066,1.6s6.7,5.05,8.28,6.107a22.966,22.966,0,0,0,6.542,1.963c3.678.918,8.108,1.687,11.052,1.066a4.543,4.543,0,0,0,3.5-2.974C471.184,181.608,470.88,179.012,463.616,174.512Z" fill="#f7a147"/><path d="M458.3,164.605s-2.826-6.432-3.21-7.117a13.139,13.139,0,0,0-4.385-1.611c-1.047-.008-1.52.988-1.983,3.868-.353,2.191,2.743,4.408,3.838,5.083s4.977,2.28,4.977,2.28l1.618-1.958Z" fill="#ffc18f"/><path d="M466.934,168.794l-2.783-1.7a.818.818,0,0,0-1.07.192c-1.075,1.363-3.672,4.629-4.516,5.908a.816.816,0,0,0,.039.908c.747.748,2.673,2.241,3.771,3.083a.813.813,0,0,0,1.208-.257l3.71-6.793A1.009,1.009,0,0,0,466.934,168.794Z" fill="#f7a147"/><path d="M450.014,158.633l.805-1s1.871.743,2.263.966.66,3.963.66,3.963Z" fill="#e5ad80" fill-rule="evenodd"/><path d="M453.83,165.143a1.141,1.141,0,0,1-.953-.4l-11.77-13.685a1.147,1.147,0,0,1,1.74-1.5l11.77,13.686a1.147,1.147,0,0,1-.787,1.892Z" fill="#737373"/><path d="M462.628,167.861l-6.494-5.487-1.231,1.3-3.2-2.137a25.758,25.758,0,0,1-4.183-2.817c-.53-.445-2.023.331-.937,1.468a51.454,51.454,0,0,0,4.282,4.255,22.751,22.751,0,0,0,2.859,1.407l5.871,5.916C460.536,170.514,461.785,168.929,462.628,167.861Z" fill="#ffc18f"/><path d="M454.268,164.656a18.5,18.5,0,0,1-3.247-2.461,4.035,4.035,0,0,1-1.724.83,14.369,14.369,0,0,0,1.565,1.422,22.751,22.751,0,0,0,2.859,1.407l4.34,4.373C456.9,168.31,455,164.937,454.268,164.656Z" fill="#e5ad80"/><path d="M444.781,153.428l.028-.023,5.458-3.241c-3.533,2.932-1.914,5.756-1.095,6.743a1.139,1.139,0,0,1-1.753,1.455c-.82-.987-3.282-3.112-6.815-.18Z" fill="#737373"/><path d="M438.43,154.735c-4.789-5.277-6.647-3.865-6.647-3.865s4.576-5.912,8.026-7.5,7.7,4.547,7.7,4.547Z" fill="#9d6853"/><path d="M433.133,150.64c1.047-.386,1.4-2.48,4.282-2.714s2.268-2.179,3.391-2.88,3.9-1.213,1.615-2.164c-5.646-2.352-7.436-.084-7.893,3.66-.2,1.621-2.653,1.178-3.966,2.014S429.281,152.062,433.133,150.64Z" fill="#fda84c"/><rect x="437.18" y="150.31" width="13.703" height="4.373" rx="0.559" ry="0.559" transform="translate(883.126 -13.684) rotate(140.316)" fill="#d2d2d2"/><path d="M437.943,155.888l9.406-7.805a.56.56,0,0,1,.788.074l1.855,2.235.279-.231a.559.559,0,0,0,.073-.787l-2.079-2.5a.558.558,0,0,0-.787-.073l-9.685,8.036a.558.558,0,0,0-.073.787Z" fill="#fff"/><path d="M507.577,286.938s-15.709.469-15.628.391a2.851,2.851,0,0,0,.02-.676,2.293,2.293,0,0,1,1.891-2.233l3.6-.772a2.039,2.039,0,0,0,.974-.506l1.688-1.59a3.871,3.871,0,0,1,2.929-1.012l4.377.322a9.388,9.388,0,0,1,.286,5.544Z" fill="#939393"/><polygon points="507.577 286.938 507.331 288.342 491.984 288.726 491.949 287.329 507.577 286.938" fill="#fff"/><path d="M489.567,287.39s-15.706.645-15.625.565a2.905,2.905,0,0,0,.012-.675,2.292,2.292,0,0,1,1.867-2.254l3.589-.812a2.046,2.046,0,0,0,.968-.517l1.671-1.609a3.878,3.878,0,0,1,2.918-1.045l4.381.274a9.389,9.389,0,0,1,.348,5.54Z" fill="#939393"/><polygon points="489.567 287.39 489.338 288.797 473.992 289.352 473.941 287.955 489.567 287.39" fill="#fff"/><path d="M497.1,216.776c-4.244,22.1-7.25,66.306-7.25,66.306-1.319.433-6.5-1.571-6.5-1.571s-.118-26.554-.83-29.4.14-27.034.614-34.627S497.8,213.164,497.1,216.776Z" fill="#09538f" fill-rule="evenodd"/><path d="M503.291,215.185a40.4,40.4,0,0,1,0,19.1,207.79,207.79,0,0,1,4.45,47.412c-1.238.629-6.748-.379-6.748-.379S499.4,262.4,493.92,246.3c-.946-2.778-4.618-19.653-5.3-27.229S502.732,211.55,503.291,215.185Z" fill="#09538f" fill-rule="evenodd"/><path d="M478.714,188.132c.707-2.829,4.774-12.908,7.374-14.763a3.315,3.315,0,0,0,2.722,3.236c2.853.434,6.169-3.381,6.169-3.381a30.08,30.08,0,0,1,3.8,1.186c2.61.949,7.342,2.865,3.983,13.812-5.832,19.006,3.893,27.139,3.893,27.139a44.285,44.285,0,0,1-12.024,3.183,40.057,40.057,0,0,1-12.554-.354S481.9,199.271,478.714,188.132Z" fill="#e58b39" fill-rule="evenodd"/><path d="M493.133,183.347a75.414,75.414,0,0,1-.7,11.2l8.638,2.545s3.74-11.916,2.245-17.712S492.908,177.294,493.133,183.347Z" fill="#737373"/><path d="M486.305,175.274l-.6-6.095,8.846-.677c.124,1.948.521,4.6.521,4.6.2,1.524-1.232,3.246-4.111,4.376C487.948,178.661,486.506,176.628,486.305,175.274Z" fill="#ffc18f" fill-rule="evenodd"/><path d="M495.353,168.538c-2.413,3.29-7.577,3.835-9.434,3.172.455.162-.217-2.989-.217-2.989l9.651-1.828Z" fill="#e5ad80" fill-rule="evenodd"/><path d="M481.836,161.081c-.513-.263-.829-.541-.562-1.051l2.666-3.24c.184-.209.366-.623.645-.939a45.2,45.2,0,0,1,3.44-6.653l12.136,8.443s-1.783,7.943-7.546,10.889c-1.543.691-4.834,1.891-10.315.057-1.708-.388-1.348-1-1.11-1.912l1.287-4.839a.49.49,0,0,0-.14-.686Z" fill="#ffc18f"/><path d="M495.46,164.88a13.678,13.678,0,0,1-3.045,3.663,8.462,8.462,0,0,1-3.213.9c.093-.107.291-.116.385-.222a8.991,8.991,0,0,0,4.534-5.146l.1.091.526.463C494.959,164.811,495.156,164.8,495.46,164.88Z" fill="#e5ad80"/><path d="M504.056,156.6a12.732,12.732,0,0,1-.051,3.866c-.561,3.808-2.736,5.431-5.875,7.511-1.139.87-.508,4.592-.8,4.708-.188.213-2.115-.557-5.573-3.605,4.565-3.069,6.485-10.323,3.353-9.726a3.151,3.151,0,0,1-.985.059l-8.276-8.593s4.407-5.637,10.628-2.76A13.847,13.847,0,0,1,504.056,156.6Z" fill="#9d6853"/><path d="M494.263,161.585a18.759,18.759,0,0,0,.27-2,2.864,2.864,0,0,1,3.062-.1,2.8,2.8,0,0,1,1.144,3.986,3.013,3.013,0,0,1-3.989,1.147,1.935,1.935,0,0,1-1.06-1.124C493.849,162.9,494.1,162.189,494.263,161.585Z" fill="#ffc18f"/><path d="M498.179,160.942a1.672,1.672,0,0,1,.091,1.379,1.97,1.97,0,0,1-2.478,1.545l.868-3.519C497.173,160.61,497.67,160.676,498.179,160.942Z" fill="#e5ad80"/><path d="M486.667,159.194c.094-.107-.009-.2.082-.3.272-.523.748-.848,1.257-.582a.846.846,0,0,1,.572,1.248.516.516,0,0,1-.178.417A3.06,3.06,0,0,0,486.667,159.194Z" fill="#754c28"/><path d="M496.478,159.071s-1.656,3.569-2.3,2.814c-.547-.854.68-1.823-.662-2.627-7.678-.609-9.706-4.643-9.706-4.643s-.519-1.953,2.037-3.794Z" fill="#9d6853"/><path d="M492.193,168.158a4.968,4.968,0,1,0,7.013-.349A5.009,5.009,0,0,0,492.193,168.158Z" fill="#9d6853"/><path d="M497.34,174.372a5.022,5.022,0,0,0-.442-7.108l-.209-.185c2.556-1.848,4.427-3.549,5.1-7.059a22.234,22.234,0,0,0,.061-3.87,14.1,14.1,0,0,0-7.669-8.437c-.407-.175-.723-.454-1.117-.429a9.358,9.358,0,0,1,3.416.777,13.847,13.847,0,0,1,7.578,8.54,12.732,12.732,0,0,1-.051,3.866c-.483,3.5-2.458,5.115-5.111,7.067l.312.275a4.966,4.966,0,0,1,.44,6.918,4.878,4.878,0,0,1-5.667,1.34A4.962,4.962,0,0,0,497.34,174.372Z" fill="#81513c"/><path d="M482.6,165.292h0a5.237,5.237,0,0,0,3.235-.5.27.27,0,0,0,.172-.41c-.1-.091-.209-.185-.3-.078a5.02,5.02,0,0,1-2.841.474c-.2.016-.394.025-.381.226A.481.481,0,0,0,482.6,165.292Z" fill="#754c28"/><circle cx="471.694" cy="227.821" r="7.362" fill="none" stroke="#b2b2b2" stroke-miterlimit="10" stroke-width="0.756"/><path d="M463.75,228.059H479v17H463.75Z" fill="#fff"/><path d="M477.625,228.279h1.816v17.012h-1.816Z" fill="#c2c2c2"/><path d="M463.528,246.081h16.121a.733.733,0,0,0,.23-.051.87.87,0,0,0,.2-.127.544.544,0,0,0,.127-.2.729.729,0,0,0,.052-.229v-.026a.736.736,0,0,0-.052-.229.538.538,0,0,0-.33-.331.762.762,0,0,0-.23-.051H463.528a.756.756,0,0,0-.229.051.868.868,0,0,0-.2.128.54.54,0,0,0-.127.2.734.734,0,0,0-.051.229v.026a.727.727,0,0,0,.051.229.544.544,0,0,0,.127.2.552.552,0,0,0,.2.127A.727.727,0,0,0,463.528,246.081Z" fill="#939393"/><path d="M463.706,228.737H479.5v.943h-15.79Z" fill="#737373"/><path d="M463.528,228.738h16.121a.762.762,0,0,0,.23-.051.91.91,0,0,0,.2-.128.544.544,0,0,0,.127-.2.723.723,0,0,0,.052-.229V228.1a.56.56,0,0,0-.179-.433.506.506,0,0,0-.407-.178H463.554a.6.6,0,0,0-.408.178.664.664,0,0,0-.178.433v.025a.721.721,0,0,0,.051.229.544.544,0,0,0,.127.2.559.559,0,0,0,.2.128C463.375,228.738,463.452,228.738,463.528,228.738Z" fill="#939393"/><path d="M474.454,227.49a2.2,2.2,0,0,0-1.783,2.215v2.42c0,1.171-1.4,1.579-2.7,1.579a2.171,2.171,0,0,0-2.369,1.935v2.98a.9.9,0,1,1-1.808,0v-8.812a2.1,2.1,0,0,1,1.961-2.292Z" fill="#fda84c"/><path d="M467.094,238.466v-2.623c0-1.757,1.018-2.216,3.387-2.394,1.732-.127,1.5-1.171,1.5-2.5,0-1.681.305-3.463,2.674-3.463a2.4,2.4,0,0,0-1.783,2.368V232.1c0,1.2-1.452,1.605-2.776,1.681-1.5.1-2.445.79-2.445,1.91v2.954a.92.92,0,0,1-1.834-.025C466.1,239.23,467.094,238.975,467.094,238.466Z" fill="#e58b39"/><path d="M500.639,259.919s-3.89-11.67-5.835-18.742a101.979,101.979,0,0,0-4.839-12.96c1.371,7.626,3.305,16.18,3.955,18.087,5.481,16.091,7.073,35.01,7.073,35.01s.5.09,1.22.2C501.976,275.3,500.639,259.919,500.639,259.919Z" fill="#1871ad" fill-rule="evenodd"/><path d="M485.256,257.09a5.857,5.857,0,0,0-2.772-5.169c.012.065.023.138.036.189.712,2.847.83,29.4.83,29.4s.7.27,1.652.591C485.147,273.993,485.383,259.37,485.256,257.09Z" fill="#1871ad" fill-rule="evenodd"/><path d="M492.673,194.62a100.986,100.986,0,0,1-8.223,13.872c-1.316,1.518-3.531,3.92-7.237,7.6a3.542,3.542,0,0,1-1,.5c-1.843.908-3.626,2.357-4.966,3.018-.034.776.77,1.141,2.185.633a4.005,4.005,0,0,1-1.465,1.673c-.789.947.861,1.359.861,1.359a.8.8,0,0,0,.53.884,3.63,3.63,0,0,0,1.12.235s.059.295.824.531a3.42,3.42,0,0,0,1.825-.239c2.687-2.077,3.874-3.051,5.325-6.416l.326-.318c4.254-3.046,13.29-13.454,17.329-21.142Z" fill="#ffc18f" fill-rule="evenodd"/><path d="M473.136,220.758a4.265,4.265,0,0,1-1.174,1.157c-.789.947.861,1.359.861,1.359a.8.8,0,0,0,.53.884,3.63,3.63,0,0,0,1.12.235s.059.295.824.531a3.42,3.42,0,0,0,1.825-.239c.784-.606,1.43-1.118,2-1.623C477.147,222.344,474.415,221.266,473.136,220.758Z" fill="#e5ad80" fill-rule="evenodd"/><path d="M503.313,179.382c-1.5-5.8-10.4-2.088-10.18,3.965a70.207,70.207,0,0,1-.537,9.893l-3.98,7.888,6.719,4.508s4.748-6.918,5.733-8.542a22.934,22.934,0,0,0,1.671-6.624C503.493,186.755,504.064,182.3,503.313,179.382Z" fill="#fda84c"/><path d="M503.313,179.382a4.759,4.759,0,0,0-.35-.94c.793,9.447-6.369,24.167-9.532,25.917l1.9,1.277s4.748-6.918,5.733-8.542a22.934,22.934,0,0,0,1.671-6.624C503.493,186.755,504.064,182.3,503.313,179.382Z" fill="#f7a147"/><path d="M487.534,201.349l-1.574,2.856a.819.819,0,0,0,.239,1.06c1.69,1.214,6.442,4.615,6.66,4.615a42.717,42.717,0,0,0,3.261-4.35.811.811,0,0,0-.31-1.194l-6.951-3.405A1.008,1.008,0,0,0,487.534,201.349Z" fill="#f7a147"/><path d="M425.562,144.79c4.477,1.229,5.248-3.38.266-7.731H384v18h44.764C425.473,152.262,421.025,143.545,425.562,144.79Z" fill="#fda84c"/><path d="M537.167,184.772a24.862,24.862,0,1,1,24.862-24.862A24.889,24.889,0,0,1,537.167,184.772Zm0-38.408a13.546,13.546,0,1,0,13.546,13.546A13.56,13.56,0,0,0,537.167,146.364Z" fill="#ccc"/><path d="M537.167,135.048a24.8,24.8,0,0,0-6.895.98c.72,2.849,1.75,6.987,2.745,10.992a13.537,13.537,0,1,1,4.85,26.4l1.442,11.253a24.859,24.859,0,0,0-2.142-49.626Z" fill="#fda84c"/><path d="M549.191,138.164l-6.787,9.255a13.545,13.545,0,0,1-5.237,26.037,13.393,13.393,0,0,1-1.944-.156l.232,11.385c.568.039,1.134.087,1.712.087a24.853,24.853,0,0,0,12.024-46.608Z" fill="#b2b2b2"/><path d="M550.713,159.91a13.444,13.444,0,0,1-1.877,6.846l8.89,7.112a24.821,24.821,0,0,0-8.535-35.7l-6.787,9.255A13.565,13.565,0,0,1,550.713,159.91Z" fill="#fff"/><ellipse cx="422.252" cy="287.84" rx="4.385" ry="1.265" fill="#fda84c"/><ellipse cx="427.808" cy="289.95" rx="7.508" ry="1.544" fill="#fda84c"/><ellipse cx="411.939" cy="289.808" rx="2.943" ry="1.015" fill="#fda84c"/><rect x="316" y="91.059" width="3" height="182" fill="#e58b39"/><path d="M108.566,99.362c-.025-.109.08-.133.056-.238.009-.463-.2-.866-.65-.874a.666.666,0,0,0-.863.648.4.4,0,0,0-.033.354A2.411,2.411,0,0,1,108.566,99.362Z" fill="#754c28"/><path d="M108.905,104.2h0a4.114,4.114,0,0,1-2.5-.62.212.212,0,0,1-.105-.333c.087-.064.177-.13.242-.04a3.949,3.949,0,0,0,2.19.573c.153.026.306.047.282.2A.377.377,0,0,1,108.905,104.2Z" fill="#754c28"/><rect x="324" y="145.059" width="11" height="11" fill="#848484"/><rect x="324" y="172.059" width="11" height="11" fill="#848484"/><rect x="324" y="198.059" width="11" height="11" fill="#848484"/><rect x="324" y="225.059" width="11" height="11" fill="#848484"/></svg>