<svg width="636" height="300" viewBox="0 0 636 300" fill="none" xmlns="http://www.w3.org/2000/svg">
<path d="M47.8302 255.5H584.78C586.29 255.5 587.71 256.49 588 257.96C588.37 259.85 586.73 261.5 584.67 261.5H48.0702C46.5602 261.5 45.1402 260.51 44.8502 259.04C44.4802 257.15 46.1202 255.5 48.1802 255.5" fill="#C8C8C8"/>
<path d="M376.42 49.8301H89.5V216.83H376.42V49.8301Z" fill="#B2B2B2"/>
<path d="M373.501 50.0103H245.931L373.501 174.8V50.0103Z" fill="#C5C5C5"/>
<path d="M374.901 39.0801H92.0506C85.8906 39.0801 80.8906 44.0801 80.8906 50.2401V242.43C80.8906 243.1 80.9606 243.75 81.0706 244.38H385.881C385.991 243.74 386.061 243.09 386.061 242.43V50.2501C386.061 44.0801 381.061 39.0801 374.901 39.0801ZM374.471 208.28C374.471 210.9 372.351 213.02 369.731 213.02H97.4406C94.8206 213.02 92.7006 210.9 92.7006 208.28V56.4401C92.7006 53.8201 94.8206 51.7001 97.4406 51.7001H369.731C372.351 51.7001 374.471 53.8201 374.471 56.4401V208.28Z" fill="#505050"/>
<path d="M233.61 48.9402C235.477 48.9402 236.99 47.4269 236.99 45.5602C236.99 43.6935 235.477 42.1802 233.61 42.1802C231.744 42.1802 230.23 43.6935 230.23 45.5602C230.23 47.4269 231.744 48.9402 233.61 48.9402Z" fill="#737373"/>
<path d="M410.051 249.51H56.4907C55.2407 249.51 54.2207 248.49 54.2207 247.24V243.93C54.2207 242.68 55.2407 241.66 56.4907 241.66H410.051C411.301 241.66 412.321 242.68 412.321 243.93V247.24C412.321 248.49 411.311 249.51 410.051 249.51Z" fill="#444444"/>
<path d="M54.8203 249.08L78.6103 255.71C80.4703 256.23 82.4003 256.49 84.3403 256.49H388.67C390.66 256.49 392.64 256.13 394.5 255.42L410.05 249.5L54.8203 249.08Z" fill="#505050"/>
<path d="M358.02 72.5H233.81C231.43 72.5 229.5 74.43 229.5 76.81V202.78C229.5 205.16 231.43 207.09 233.81 207.09H358.02C360.4 207.09 362.33 205.16 362.33 202.78V76.81C362.33 74.43 360.4 72.5 358.02 72.5Z" fill="white"/>
<path d="M240.5 72.5H107.56C104.95 72.5 102.83 74.62 102.83 77.23V202.37C102.83 204.98 104.95 207.1 107.56 207.1H240.5C243.11 207.1 245.23 204.98 245.23 202.37V77.23C245.23 74.62 243.12 72.5 240.5 72.5Z" fill="#E6E6E6"/>
<path d="M166.23 171.8H132.33C130.13 171.8 128.33 170 128.33 167.8V97.8003C128.33 95.6003 130.13 93.8003 132.33 93.8003H166.23C168.43 93.8003 170.23 95.6003 170.23 97.8003V167.8C170.23 170 168.43 171.8 166.23 171.8Z" fill="white"/>
<path d="M224.53 171.8H190.63C188.43 171.8 186.63 170 186.63 167.8V97.8003C186.63 95.6003 188.43 93.8003 190.63 93.8003H224.53C226.73 93.8003 228.53 95.6003 228.53 97.8003V167.8C228.53 170 226.73 171.8 224.53 171.8Z" fill="white"/>
<path d="M119.73 96.1001V170.4" stroke="white" stroke-width="2" stroke-miterlimit="10"/>
<path d="M116.33 100.1L119.73 96.7003L123.13 100.1V97.2003L119.73 93.8003L116.33 97.2003V100.1Z" fill="white"/>
<path d="M116.33 166.4L119.73 169.8L123.13 166.4V169.3L119.73 172.6L116.33 169.3V166.4Z" fill="white"/>
<path d="M130.63 179.6H167.93" stroke="white" stroke-width="2" stroke-miterlimit="10"/>
<path d="M134.63 183L131.23 179.6L134.63 176.2H131.73L128.33 179.6L131.73 183H134.63Z" fill="white"/>
<path d="M163.931 183L167.331 179.6L163.931 176.2H166.831L170.231 179.6L166.831 183H163.931Z" fill="white"/>
<path d="M149.231 168.2C151.051 168.2 152.531 166.72 152.531 164.9C152.531 163.08 151.051 161.6 149.231 161.6C147.411 161.6 145.931 163.08 145.931 164.9C145.931 166.72 147.411 168.2 149.231 168.2Z" fill="#8FC3EC"/>
<path d="M162.43 150.1H135.33C133.53 150.1 132.03 151.6 132.03 153.4C132.03 155.2 133.53 156.7 135.33 156.7H162.43C164.23 156.7 165.73 155.2 165.73 153.4C165.63 151.5 164.23 150.1 162.43 150.1Z" fill="#8FC3EC"/>
<path d="M164.82 102.9H133.75C132.14 102.9 130.84 104.2 130.84 105.81V136.08C130.84 137.69 132.14 138.99 133.75 138.99H164.82C166.43 138.99 167.73 137.69 167.73 136.08V105.81C167.73 104.2 166.43 102.9 164.82 102.9Z" fill="#8FC3EC"/>
<path d="M152.131 98.8003H144.731C144.231 98.8003 143.931 99.2003 143.931 99.6003C143.931 100.1 144.331 100.4 144.731 100.4H152.131C152.631 100.4 152.931 100 152.931 99.6003C152.931 99.1003 152.631 98.8003 152.131 98.8003Z" fill="#8FC3EC"/>
<path d="M222.07 102.9H192.89C190.76 102.9 189.03 104.63 189.03 106.76V155.74C189.03 157.87 190.76 159.6 192.89 159.6H222.07C224.2 159.6 225.93 157.87 225.93 155.74V106.76C225.93 104.63 224.21 102.9 222.07 102.9Z" fill="#8FC3EC"/>
<path d="M170.23 153.4H177.53C179.23 153.4 180.53 152.1 180.53 150.4V113.7C180.53 112 181.83 110.7 183.53 110.7H196.93" stroke="white" stroke-width="2" stroke-miterlimit="10"/>
<path d="M197.53 113.2C198.91 113.2 200.03 112.08 200.03 110.7C200.03 109.32 198.91 108.2 197.53 108.2C196.15 108.2 195.03 109.32 195.03 110.7C195.03 112.08 196.15 113.2 197.53 113.2Z" fill="white"/>
<path d="M331.93 136.5H303.23V139.8H331.93V136.5Z" fill="#A6A6A6"/>
<path d="M340.23 162.8H295.03V166.1H340.23V162.8Z" fill="#A6A6A6"/>
<path d="M318.73 169.4H305.63V172.7H318.73V169.4Z" fill="#A6A6A6"/>
<path d="M326.93 143.1H298.23V146.4H326.93V143.1Z" fill="#A6A6A6"/>
<path d="M314.63 156.2H298.23V159.5H314.63V156.2Z" fill="#A6A6A6"/>
<path d="M340.131 175.9H311.431V179.2H340.131V175.9Z" fill="#A6A6A6"/>
<path d="M335.23 182.5H306.53V185.8H335.23V182.5Z" fill="#A6A6A6"/>
<path d="M336.08 81.1001H262.18C261.27 81.1001 260.53 81.8401 260.53 82.7501C260.53 83.6601 261.27 84.4001 262.18 84.4001H336.08C336.99 84.4001 337.73 83.6601 337.73 82.7501C337.73 81.8401 336.99 81.1001 336.08 81.1001Z" fill="#A6A6A6"/>
<path d="M266.47 91.3999H262.18C261.27 91.3999 260.53 92.1399 260.53 93.0499C260.53 93.9599 261.27 94.6999 262.18 94.6999H266.28C267.19 94.6999 267.93 93.9599 267.93 93.0499V92.8599C267.93 92.0599 267.28 91.3999 266.47 91.3999Z" fill="#8FC3EC"/>
<path d="M298.28 91.3999H272.88C271.97 91.3999 271.23 92.1399 271.23 93.0499C271.23 93.9599 271.97 94.6999 272.88 94.6999H298.28C299.19 94.6999 299.93 93.9599 299.93 93.0499C299.93 92.1399 299.19 91.3999 298.28 91.3999Z" fill="#8FC3EC"/>
<path d="M330.28 91.3999H304.88C303.97 91.3999 303.23 92.1399 303.23 93.0499C303.23 93.9599 303.97 94.6999 304.88 94.6999H330.28C331.19 94.6999 331.93 93.9599 331.93 93.0499C331.93 92.1399 331.19 91.3999 330.28 91.3999Z" fill="#A6A6A6"/>
<path d="M290.081 117.6H281.081C280.171 117.6 279.431 118.34 279.431 119.25C279.431 120.16 280.171 120.9 281.081 120.9H290.081C290.991 120.9 291.731 120.16 291.731 119.25C291.731 118.34 290.991 117.6 290.081 117.6Z" fill="#8FC3EC"/>
<path d="M338.58 117.6H296.68C295.77 117.6 295.03 118.34 295.03 119.25C295.03 120.16 295.77 120.9 296.68 120.9H338.58C339.49 120.9 340.23 120.16 340.23 119.25C340.23 118.34 339.49 117.6 338.58 117.6Z" fill="#A6A6A6"/>
<path d="M300.68 124.2H290.88C289.97 124.2 289.23 124.94 289.23 125.85C289.23 126.76 289.97 127.5 290.88 127.5H300.68C301.59 127.5 302.33 126.76 302.33 125.85C302.33 124.94 301.59 124.2 300.68 124.2Z" fill="#8FC3EC"/>
<path d="M317.08 124.2H307.28C306.37 124.2 305.63 124.94 305.63 125.85C305.63 126.76 306.37 127.5 307.28 127.5H317.08C317.99 127.5 318.73 126.76 318.73 125.85C318.73 124.94 317.99 124.2 317.08 124.2Z" fill="#A6A6A6"/>
<path d="M293.38 97.8999H272.88C271.97 97.8999 271.23 98.6399 271.23 99.5499C271.23 100.46 271.97 101.2 272.88 101.2H293.38C294.29 101.2 295.03 100.46 295.03 99.5499C295.03 98.6399 294.29 97.8999 293.38 97.8999Z" fill="#8FC3EC"/>
<path d="M325.28 97.8999H299.88C298.97 97.8999 298.23 98.6399 298.23 99.5499C298.23 100.46 298.97 101.2 299.88 101.2H325.28C326.19 101.2 326.93 100.46 326.93 99.5499C326.93 98.6399 326.19 97.8999 325.28 97.8999Z" fill="#A6A6A6"/>
<path d="M293.38 111.1H272.88C271.97 111.1 271.23 111.84 271.23 112.75C271.23 113.66 271.97 114.4 272.88 114.4H293.38C294.29 114.4 295.03 113.66 295.03 112.75C295.03 111.84 294.29 111.1 293.38 111.1Z" fill="#8FC3EC"/>
<path d="M312.98 111.1H299.88C298.97 111.1 298.23 111.84 298.23 112.75C298.23 113.66 298.97 114.4 299.88 114.4H312.98C313.89 114.4 314.63 113.66 314.63 112.75C314.63 111.84 313.89 111.1 312.98 111.1Z" fill="#A6A6A6"/>
<path d="M281.88 104.5H272.88C271.97 104.5 271.23 105.24 271.23 106.15C271.23 107.06 271.97 107.8 272.88 107.8H281.88C282.79 107.8 283.53 107.06 283.53 106.15C283.53 105.24 282.79 104.5 281.88 104.5Z" fill="#8FC3EC"/>
<path d="M332.78 104.5H288.48C287.57 104.5 286.83 105.24 286.83 106.15C286.83 107.06 287.57 107.8 288.48 107.8H332.78C333.69 107.8 334.43 107.06 334.43 106.15C334.43 105.24 333.69 104.5 332.78 104.5Z" fill="#A6A6A6"/>
<path d="M266.28 136.5H262.18C261.27 136.5 260.53 137.24 260.53 138.15H259.53C259.53 139.06 261.27 139.8 262.18 139.8H266.28C267.19 139.8 267.93 139.06 267.93 138.15C267.93 137.24 267.19 136.5 266.28 136.5Z" fill="#8FC3EC"/>
<path d="M297.28 136.5H271.88C270.97 136.5 270.23 137.24 270.23 138.15C270.23 139.06 270.97 139.8 271.88 139.8H297.28C298.19 139.8 298.93 139.06 298.93 138.15C298.93 137.24 298.19 136.5 297.28 136.5Z" fill="#8FC3EC"/>
<path d="M289.081 162.8H280.081C279.171 162.8 278.431 163.54 278.431 164.45C278.431 165.36 279.171 166.1 280.081 166.1H289.081C289.991 166.1 290.731 165.36 290.731 164.45C290.731 163.54 289.991 162.8 289.081 162.8Z" fill="#8FC3EC"/>
<path d="M300.68 169.4H290.88C289.97 169.4 289.23 170.14 289.23 171.05H288.23C288.23 171.96 289.97 172.7 290.88 172.7H300.68C301.59 172.7 302.33 171.96 302.33 171.05C302.33 170.14 301.59 169.4 300.68 169.4Z" fill="#8FC3EC"/>
<path d="M292.38 143.1H271.88C270.97 143.1 270.23 143.84 270.23 144.75C270.23 145.66 270.97 146.4 271.88 146.4H292.38C293.29 146.4 294.03 145.66 294.03 144.75C294.03 143.84 293.29 143.1 292.38 143.1Z" fill="#8FC3EC"/>
<path d="M292.38 156.2H271.88C270.97 156.2 270.23 156.94 270.23 157.85C270.23 158.76 270.97 159.5 271.88 159.5H292.38C293.29 159.5 294.03 158.76 294.03 157.85C294.03 156.94 293.29 156.2 292.38 156.2Z" fill="#8FC3EC"/>
<path d="M280.88 149.7H271.88C271.97 149.7 271.23 150.44 271.23 151.35C271.23 152.26 271.97 153 272.88 153H281.88C282.79 153 283.53 152.26 283.53 151.35C283.53 150.44 282.79 149.7 280.88 149.7Z" fill="#8FC3EC"/>
<path d="M332.78 149.7H288.48C287.57 149.7 286.83 150.44 286.83 151.35C286.83 152.26 287.57 153 288.48 153H332.78C333.69 153 334.43 152.26 334.43 151.35C334.43 150.44 333.69 149.7 332.78 149.7Z" fill="#A6A6A6"/>
<path d="M274.481 175.9H269.381C268.471 175.9 268.731 176.64 268.731 177.55C268.731 178.46 269.471 179.2 270.381 179.2H274.481C275.391 179.2 276.131 178.46 276.131 177.55C276.131 176.64 275.391 175.9 274.481 175.9Z" fill="#8FC3EC"/>
<path d="M305.481 175.9H280.081C279.171 175.9 278.431 176.64 278.431 177.55C278.431 178.46 279.171 179.2 280.081 179.2H305.481C306.391 179.2 307.131 178.46 307.131 177.55C307.131 176.64 306.391 175.9 305.481 175.9Z" fill="#8FC3EC"/>
<path d="M300.581 182.5H280.081C279.171 182.5 278.431 183.24 278.431 184.15C278.431 185.06 279.171 185.8 280.081 185.8H300.581C301.491 185.8 302.231 185.06 302.231 184.15C302.231 183.24 301.491 182.5 300.581 182.5Z" fill="#8FC3EC"/>
<path d="M289.081 189.1H280.081C280.171 189.1 279.431 189.84 279.431 190.75C279.431 191.66 280.171 192.4 281.081 192.4H290.081C290.991 192.4 291.731 191.66 291.731 190.75C291.731 189.84 290.991 189.1 289.081 189.1Z" fill="#8FC3EC"/>
<path d="M342.63 189.1H295.03V192.4H342.63V189.1Z" fill="#A6A6A6"/>
<path d="M526.61 112.5H332.08V244.5H526.61V112.5Z" fill="#8FC3EC"/>
<path d="M524.04 252.43H338.65C336.13 252.43 334.08 250.38 334.08 247.86V113.07C334.08 110.55 336.13 108.5 338.65 108.5H524.04C526.56 108.5 528.61 110.55 528.61 113.07V247.86C528.61 250.39 526.56 252.43 524.04 252.43Z" fill="#4393D4"/>
<path d="M526.631 125.17H453.061L530.381 202.26V128.92C530.381 126.85 528.701 125.17 526.631 125.17Z" fill="url(#paint0_linear)"/>
<path d="M432.5 157.23C436.29 157.23 439.37 154.15 439.37 150.36C439.37 146.57 436.3 143.49 432.5 143.49C428.71 143.49 425.63 146.57 425.63 150.36C425.63 154.16 428.71 157.23 432.5 157.23Z" fill="#69AFE5"/>
<path d="M478.85 157.23C482.64 157.23 485.72 154.15 485.72 150.36C485.72 146.57 482.64 143.49 478.85 143.49C475.06 143.49 471.98 146.57 471.98 150.36C471.99 154.16 475.06 157.23 478.85 157.23Z" fill="#69AFE5"/>
<path d="M555.09 231.53H582.31C584.17 231.53 585.68 233.04 585.68 234.9V239.5C585.68 241.36 584.17 242.87 582.31 242.87H555.09C553.23 242.87 551.72 241.36 551.72 239.5V234.9C551.71 233.05 553.23 231.53 555.09 231.53ZM582.31 240.74C582.99 240.74 583.54 240.19 583.54 239.5V234.9C583.54 234.22 582.99 233.66 582.31 233.66H555.09C554.41 233.66 553.86 234.21 553.86 234.9V239.5C553.86 240.18 554.41 240.74 555.09 240.74H582.31Z" fill="#D69521"/>
<path d="M582.33 239L580.77 254.27C580.62 255.7 579.51 256.78 578.19 256.78H559.31C557.99 256.78 556.88 255.7 556.73 254.27L555.18 239C555.01 237.33 556.21 235.87 557.76 235.87H579.76C581.3 235.87 582.5 237.33 582.33 239Z" fill="#7F7F7F"/>
<path d="M555.77 244.75H581.75L582.34 239C582.51 237.33 581.31 235.87 579.76 235.87H557.76C556.22 235.87 555.01 237.33 555.18 239L555.77 244.75Z" fill="#505050"/>
<path d="M582.31 198.32H555.09C553.23 198.32 551.72 196.81 551.72 194.95V190.35C551.72 188.49 553.23 186.98 555.09 186.98H582.31C584.17 186.98 585.68 188.49 585.68 190.35V194.95C585.68 196.8 584.17 198.32 582.31 198.32ZM555.09 189.11C554.41 189.11 553.86 189.66 553.86 190.35V194.95C553.86 195.63 554.41 196.19 555.09 196.19H582.31C582.99 196.19 583.54 195.64 583.54 194.95V190.35C583.54 189.67 582.99 189.11 582.31 189.11H555.09Z" fill="#D69521"/>
<path d="M555.06 190.85L556.62 175.58C556.77 174.15 557.88 173.07 559.2 173.07H578.08C579.4 173.07 580.51 174.15 580.66 175.58L582.22 190.85C582.39 192.52 581.19 193.98 579.64 193.98H557.64C556.09 193.98 554.89 192.52 555.06 190.85Z" fill="#7F7F7F"/>
<path d="M581.67 185.58H555.6L555.06 190.86C554.89 192.53 556.09 193.99 557.64 193.99H579.64C581.18 193.99 582.39 192.53 582.22 190.86L581.67 185.58Z" fill="#505050"/>
<path d="M588.659 209.8H590.77C591.4 209.8 591.909 209.29 591.909 208.66V202.92C591.909 202.29 591.4 201.78 590.77 201.78H588.659C588.029 201.78 587.52 202.29 587.52 202.92V208.66C587.52 209.29 588.029 209.8 588.659 209.8Z" fill="#D2D2D2"/>
<path d="M591.92 203.15H590.55V203.86H591.92V203.15Z" fill="#939393"/>
<path d="M591.92 204.57H590.55V205.28H591.92V204.57Z" fill="#939393"/>
<path d="M591.92 206H590.55V206.71H591.92V206Z" fill="#939393"/>
<path d="M591.92 207.42H590.55V208.13H591.92V207.42Z" fill="#939393"/>
<path d="M583.24 238.18H554.03C550.88 238.18 548.33 235.63 548.33 232.48V197.57C548.33 194.42 550.88 191.87 554.03 191.87H583.24C586.39 191.87 588.94 194.42 588.94 197.57V232.48C588.95 235.63 586.39 238.18 583.24 238.18Z" fill="#106EBE"/>
<path d="M583.24 239.25H554.03C550.3 239.25 547.26 236.21 547.26 232.48V197.57C547.26 193.84 550.3 190.8 554.03 190.8H583.24C586.97 190.8 590.01 193.84 590.01 197.57V232.48C590.02 236.22 586.98 239.25 583.24 239.25ZM554.03 192.93C551.48 192.93 549.4 195.01 549.4 197.56V232.47C549.4 235.03 551.48 237.1 554.03 237.1H583.24C585.8 237.1 587.87 235.02 587.87 232.47V197.56C587.87 195 585.79 192.93 583.24 192.93H554.03Z" fill="#444444"/>
<path d="M582.88 219.92H554.12C552.81 219.92 551.75 218.86 551.75 217.55V212.04C551.75 210.73 552.81 209.67 554.12 209.67H582.88C584.19 209.67 585.25 210.73 585.25 212.04V217.55C585.25 218.86 584.19 219.92 582.88 219.92Z" fill="white"/>
<path d="M582.88 232.92H554.12C552.81 232.92 551.75 231.86 551.75 230.55V225.04C551.75 223.73 552.81 222.67 554.12 222.67H582.88C584.19 222.67 585.25 223.73 585.25 225.04V230.55C585.25 231.86 584.19 232.92 582.88 232.92Z" fill="#69AFE5"/>
<path d="M568.75 207.43C572.069 207.43 574.76 204.739 574.76 201.42C574.76 198.101 572.069 195.41 568.75 195.41C565.431 195.41 562.74 198.101 562.74 201.42C562.74 204.739 565.431 207.43 568.75 207.43Z" fill="#EDAC28"/>
<path d="M381.5 118.5H336.46C334.04 118.5 332.08 120.46 332.08 122.88V246.13C332.08 248.55 334.04 250.51 336.46 250.51H381.5V118.5Z" fill="#3186CC"/>
<path d="M331.34 111.32V126.5H526.75V111.32C526.15 109.6 524.53 108.36 522.61 108.36H335.49C333.56 108.37 331.95 109.61 331.34 111.32Z" fill="#EDAC28"/>
<path d="M529.381 126.5V111.32C528.781 109.6 527.991 108.36 526.071 108.36H436.101L454.231 126.49H529.381V126.5Z" fill="#FFB900"/>
<path d="M486.96 168.8H376.23C373.53 168.8 371.34 170.99 371.34 173.69V177.98C371.34 180.68 373.53 182.87 376.23 182.87H486.96C489.66 182.87 491.85 180.68 491.85 177.98V173.69C491.85 170.99 489.66 168.8 486.96 168.8Z" fill="white"/>
<path d="M486.96 187.55H376.23C373.53 187.55 371.34 189.74 371.34 192.44V196.73C371.34 199.43 373.53 201.62 376.23 201.62H486.96C489.66 201.62 491.85 199.43 491.85 196.73V192.44C491.85 189.74 489.66 187.55 486.96 187.55Z" fill="white"/>
<path d="M486.96 206.16H376.23C373.53 206.16 371.34 208.35 371.34 211.05V217.61C371.34 220.31 373.53 222.5 376.23 222.5H486.96C489.66 222.5 491.85 220.31 491.85 217.61V211.05C491.85 208.35 489.66 206.16 486.96 206.16Z" fill="#70B8E8"/>
<path d="M384.19 157.23C387.98 157.23 391.06 154.15 391.06 150.36C391.06 146.57 387.98 143.49 384.19 143.49C380.4 143.49 377.32 146.57 377.32 150.36C377.32 154.16 380.39 157.23 384.19 157.23Z" fill="#69AFE5"/>
<path d="M381.171 108.5H336.461C334.551 108.5 332.941 109.73 332.351 111.43V126.5H381.171V108.5Z" fill="#DD9A24"/>
<path d="M381.5 168.8H376.23C373.53 168.8 371.34 170.99 371.34 173.69V177.98C371.34 180.68 373.53 182.87 376.23 182.87H381.5V168.8Z" fill="#A9D7F7"/>
<path d="M381.83 187.55H376.23C373.53 187.55 371.34 189.74 371.34 192.44V196.73C371.34 199.43 373.53 201.62 376.23 201.62H381.83V187.55Z" fill="#A9D7F7"/>
<path d="M381.5 206.16H376.23C373.53 206.16 371.34 208.35 371.34 211.05V217.61C371.34 220.31 373.53 222.5 376.23 222.5H381.5V206.16Z" fill="#69AFE5"/>
<path d="M531.49 101.81H335.46C330.26 101.81 326.04 106.03 326.04 111.23V247.09C326.04 252.29 330.26 256.51 335.46 256.51H531.49C536.69 256.51 540.91 252.29 540.91 247.09V111.23C540.92 106.03 536.7 101.81 531.49 101.81ZM526.85 246.93C526.85 247.85 526.11 248.59 525.19 248.59H342.18C341.26 248.59 340.52 247.85 340.52 246.93V111.13C340.52 110.21 341.26 109.47 342.18 109.47H525.19C526.11 109.47 526.85 110.21 526.85 111.13V246.93Z" fill="#505050"/>
<path d="M333.59 182.54C335.545 182.54 337.13 180.955 337.13 179C337.13 177.045 335.545 175.46 333.59 175.46C331.635 175.46 330.05 177.045 330.05 179C330.05 180.955 331.635 182.54 333.59 182.54Z" fill="#737373"/>
<path d="M349.33 132H298.37C296.61 132 295.19 133.72 295.19 135.85V248.98C295.19 251.11 296.61 252.83 298.37 252.83H349.33C351.09 252.83 352.51 251.11 352.51 248.98V135.85C352.51 133.72 351.09 132 349.33 132Z" fill="#106EBE"/>
<path d="M350.37 146.7H319.49L352.51 176.95V148.84C352.51 147.66 351.55 146.7 350.37 146.7Z" fill="url(#paint1_linear)"/>
<path d="M349.33 132H298.37C296.61 132 295.19 133.42 295.19 135.18V147.33H352.51V135.18C352.51 133.42 351.09 132 349.33 132Z" fill="#EDAC28"/>
<path d="M346.361 188.07H300.671C299.671 188.07 298.871 188.88 298.871 189.87V196.16C298.871 197.16 299.681 197.96 300.671 197.96H346.361C347.361 197.96 348.161 197.15 348.161 196.16V189.87C348.161 188.87 347.351 188.07 346.361 188.07Z" fill="white"/>
<path d="M346.361 201.27H300.671C299.671 201.27 298.871 202.08 298.871 203.07V209.36C298.871 210.36 299.681 211.16 300.671 211.16H346.361C347.361 211.16 348.161 210.35 348.161 209.36V203.07C348.161 202.07 347.351 201.27 346.361 201.27Z" fill="white"/>
<path d="M346.361 214.37H300.671C299.671 214.37 298.871 215.18 298.871 216.17V224.06C298.871 225.06 299.681 225.86 300.671 225.86H346.361C347.361 225.86 348.161 225.05 348.161 224.06V216.17C348.161 215.17 347.351 214.37 346.361 214.37Z" fill="#69AFE5"/>
<path d="M304.261 178.87C305.811 178.87 307.061 177.62 307.061 176.07C307.061 174.52 305.811 173.27 304.261 173.27C302.711 173.27 301.461 174.52 301.461 176.07C301.461 177.61 302.711 178.87 304.261 178.87Z" fill="#69AFE5"/>
<path d="M323.961 178.87C325.511 178.87 326.761 177.62 326.761 176.07C326.761 174.52 325.511 173.27 323.961 173.27C322.411 173.27 321.161 174.52 321.161 176.07C321.161 177.61 322.411 178.87 323.961 178.87Z" fill="#A6A6A6"/>
<path d="M341.111 157.67H306.711C306.021 157.67 305.461 158.23 305.461 158.92C305.461 159.61 306.021 160.17 306.711 160.17H341.111C341.801 160.17 342.361 159.61 342.361 158.92C342.361 158.23 341.801 157.67 341.111 157.67Z" fill="#69AFE5"/>
<path d="M342.862 178.87C344.412 178.87 345.662 177.62 345.662 176.07C345.662 174.52 344.412 173.27 342.862 173.27C341.312 173.27 340.062 174.52 340.062 176.07C340.062 177.61 341.312 178.87 342.862 178.87Z" fill="#A6A6A6"/>
<path d="M346.431 128.83H300.731C295.711 128.83 291.641 132.9 291.641 137.92V247.11C291.641 252.13 295.711 256.2 300.731 256.2H346.431C351.451 256.2 355.521 252.13 355.521 247.11V137.93C355.531 132.9 351.461 128.83 346.431 128.83ZM351.741 246.6C351.741 249.73 349.211 252.26 346.081 252.26H301.081C297.951 252.26 295.421 249.73 295.421 246.6V138.46C295.421 135.33 297.961 132.8 301.081 132.8H346.081C349.211 132.8 351.741 135.33 351.741 138.46V246.6Z" fill="#444444"/>
<path d="M308.23 132.63V133.46C308.23 135.48 309.87 137.12 311.89 137.12H335.7C337.72 137.12 339.36 135.48 339.36 133.46V132.63H308.23Z" fill="#444444"/>
<path d="M330.57 135.37C331.123 135.37 331.57 134.922 331.57 134.37C331.57 133.818 331.123 133.37 330.57 133.37C330.018 133.37 329.57 133.818 329.57 134.37C329.57 134.922 330.018 135.37 330.57 135.37Z" fill="#737373"/>
<path d="M320.541 135.22H326.881C327.291 135.22 327.631 134.88 327.631 134.47C327.631 134.06 327.291 133.72 326.881 133.72H320.541C320.131 133.72 319.791 134.06 319.791 134.47C319.791 134.89 320.131 135.22 320.541 135.22Z" fill="#737373"/>
<path d="M333.771 250.82H313.601C313.271 250.82 313.001 250.55 313.001 250.22C313.001 249.89 313.271 249.62 313.601 249.62H333.761C334.091 249.62 334.361 249.89 334.361 250.22C334.361 250.55 334.101 250.82 333.771 250.82Z" fill="#E6E6E6"/>
<defs>
<linearGradient id="paint0_linear" x1="491.718" y1="202.257" x2="491.718" y2="125.167" gradientUnits="userSpaceOnUse">
<stop stop-color="#4393D4"/>
<stop offset="0.6223" stop-color="#4DA0DB"/>
</linearGradient>
<linearGradient id="paint1_linear" x1="336.001" y1="176.946" x2="336.001" y2="146.698" gradientUnits="userSpaceOnUse">
<stop stop-color="#106EBE"/>
<stop offset="0.8711" stop-color="#2488D8"/>
</linearGradient>
</defs>
</svg>
