<svg width="636" height="300" viewBox="0 0 636 300" fill="none" xmlns="http://www.w3.org/2000/svg">
<path d="M122.165 202H592.937C594.16 202 595.334 202.486 596.199 203.351C597.065 204.217 597.551 205.39 597.551 206.614V246.77C597.551 247.892 597.105 248.968 596.312 249.761C595.519 250.554 594.443 251 593.321 251H122.165C120.941 251 119.767 250.514 118.902 249.649C118.037 248.783 117.551 247.61 117.551 246.386V206.614C117.551 205.39 118.037 204.217 118.902 203.351C119.767 202.486 120.941 202 122.165 202Z" fill="#E6E6E6"/>
<path d="M121.551 202H458.321C459.443 202 460.519 202.446 461.312 203.239C462.105 204.032 462.551 205.108 462.551 206.23V246.768C462.551 247.89 462.105 248.967 461.311 249.76C460.518 250.554 459.441 251 458.319 251H121.784C120.661 251 119.585 250.554 118.791 249.76C117.998 248.967 117.552 247.89 117.552 246.768V206C117.552 204.939 117.973 203.922 118.723 203.172C119.473 202.421 120.491 202 121.552 202H121.551Z" fill="#EE8F94"/>
<path d="M128.551 251V244" stroke="#B8B8B8" stroke-width="1.842" stroke-miterlimit="10"/>
<path d="M137.551 251V244" stroke="#B8B8B8" stroke-width="1.842" stroke-miterlimit="10"/>
<path d="M147.551 251V244" stroke="#B8B8B8" stroke-width="1.842" stroke-miterlimit="10"/>
<path d="M156.551 251V244" stroke="#B8B8B8" stroke-width="1.842" stroke-miterlimit="10"/>
<path d="M165.551 251V244" stroke="#B8B8B8" stroke-width="1.842" stroke-miterlimit="10"/>
<path d="M175.551 251V244" stroke="#B8B8B8" stroke-width="1.842" stroke-miterlimit="10"/>
<path d="M184.551 251V244" stroke="#B8B8B8" stroke-width="1.842" stroke-miterlimit="10"/>
<path d="M193.551 251V244" stroke="#B8B8B8" stroke-width="1.842" stroke-miterlimit="10"/>
<path d="M203.551 251V244" stroke="#B8B8B8" stroke-width="1.842" stroke-miterlimit="10"/>
<path d="M212.551 251V244" stroke="#B8B8B8" stroke-width="1.842" stroke-miterlimit="10"/>
<path d="M221.551 251V244" stroke="#B8B8B8" stroke-width="1.842" stroke-miterlimit="10"/>
<path d="M231.551 251V244" stroke="#B8B8B8" stroke-width="1.842" stroke-miterlimit="10"/>
<path d="M240.551 251V244" stroke="#B8B8B8" stroke-width="1.842" stroke-miterlimit="10"/>
<path d="M249.551 251V244" stroke="#B8B8B8" stroke-width="1.842" stroke-miterlimit="10"/>
<path d="M259.551 251V244" stroke="#B8B8B8" stroke-width="1.842" stroke-miterlimit="10"/>
<path d="M268.551 251V244" stroke="#B8B8B8" stroke-width="1.842" stroke-miterlimit="10"/>
<path d="M277.551 251V244" stroke="#B8B8B8" stroke-width="1.842" stroke-miterlimit="10"/>
<path d="M287.551 251V244" stroke="#B8B8B8" stroke-width="1.842" stroke-miterlimit="10"/>
<path d="M296.551 251V244" stroke="#B8B8B8" stroke-width="1.842" stroke-miterlimit="10"/>
<path d="M305.551 251V244" stroke="#B8B8B8" stroke-width="1.842" stroke-miterlimit="10"/>
<path d="M315.551 251V244" stroke="#B8B8B8" stroke-width="1.842" stroke-miterlimit="10"/>
<path d="M324.551 251V244" stroke="#B8B8B8" stroke-width="1.842" stroke-miterlimit="10"/>
<path d="M334.551 251V244" stroke="#B8B8B8" stroke-width="1.842" stroke-miterlimit="10"/>
<path d="M343.551 251V244" stroke="#B8B8B8" stroke-width="1.842" stroke-miterlimit="10"/>
<path d="M352.551 251V244" stroke="#B8B8B8" stroke-width="1.842" stroke-miterlimit="10"/>
<path d="M362.551 251V244" stroke="#B8B8B8" stroke-width="1.842" stroke-miterlimit="10"/>
<path d="M371.551 251V244" stroke="#B8B8B8" stroke-width="1.842" stroke-miterlimit="10"/>
<path d="M380.551 251V244" stroke="#B8B8B8" stroke-width="1.842" stroke-miterlimit="10"/>
<path d="M390.551 251V244" stroke="#B8B8B8" stroke-width="1.842" stroke-miterlimit="10"/>
<path d="M399.551 251V244" stroke="#B8B8B8" stroke-width="1.842" stroke-miterlimit="10"/>
<path d="M408.551 251V244" stroke="#B8B8B8" stroke-width="1.842" stroke-miterlimit="10"/>
<path d="M418.551 251V244" stroke="#B8B8B8" stroke-width="1.842" stroke-miterlimit="10"/>
<path d="M427.551 251V244" stroke="#B8B8B8" stroke-width="1.842" stroke-miterlimit="10"/>
<path d="M436.551 251V244" stroke="#B8B8B8" stroke-width="1.842" stroke-miterlimit="10"/>
<path d="M446.551 251V244" stroke="#B8B8B8" stroke-width="1.842" stroke-miterlimit="10"/>
<path d="M455.551 251V244" stroke="#B8B8B8" stroke-width="1.842" stroke-miterlimit="10"/>
<path d="M464.551 251V244" stroke="#B8B8B8" stroke-width="1.842" stroke-miterlimit="10"/>
<path d="M474.551 251V244" stroke="#B8B8B8" stroke-width="1.842" stroke-miterlimit="10"/>
<path d="M483.551 251V244" stroke="#B8B8B8" stroke-width="1.842" stroke-miterlimit="10"/>
<path d="M492.551 251V244" stroke="#B8B8B8" stroke-width="1.842" stroke-miterlimit="10"/>
<path d="M502.551 251V244" stroke="#B8B8B8" stroke-width="1.842" stroke-miterlimit="10"/>
<path d="M511.551 251V244" stroke="#B8B8B8" stroke-width="1.842" stroke-miterlimit="10"/>
<path d="M521.551 251V244" stroke="#B8B8B8" stroke-width="1.842" stroke-miterlimit="10"/>
<path d="M530.551 251V244" stroke="#B8B8B8" stroke-width="1.842" stroke-miterlimit="10"/>
<path d="M539.551 251V244" stroke="#B8B8B8" stroke-width="1.842" stroke-miterlimit="10"/>
<path d="M549.551 251V244" stroke="#B8B8B8" stroke-width="1.842" stroke-miterlimit="10"/>
<path d="M558.551 251V244" stroke="#B8B8B8" stroke-width="1.842" stroke-miterlimit="10"/>
<path d="M567.551 251V244" stroke="#B8B8B8" stroke-width="1.842" stroke-miterlimit="10"/>
<path d="M577.551 251V244" stroke="#B8B8B8" stroke-width="1.842" stroke-miterlimit="10"/>
<path d="M586.551 251V244" stroke="#B8B8B8" stroke-width="1.842" stroke-miterlimit="10"/>
<path opacity="0.2" d="M119.363 205H594.88C595.802 204.999 596.703 205.273 597.468 205.786C597.276 204.724 596.717 203.764 595.889 203.072C595.061 202.38 594.016 202.001 592.937 202H121.947C120.936 201.898 119.924 202.181 119.113 202.793C118.302 203.405 117.752 204.3 117.572 205.3C118.141 205.075 118.752 204.972 119.363 205Z" fill="black"/>
<path d="M122.165 132H592.937C594.16 132 595.334 132.486 596.199 133.351C597.065 134.217 597.551 135.39 597.551 136.614V176.77C597.551 177.892 597.105 178.968 596.312 179.761C595.519 180.554 594.443 181 593.321 181H122.165C120.941 181 119.767 180.514 118.902 179.649C118.037 178.783 117.551 177.61 117.551 176.386V136.614C117.551 135.39 118.037 134.217 118.902 133.351C119.767 132.486 120.941 132 122.165 132Z" fill="#E6E6E6"/>
<path d="M121.551 132H508.321C509.443 132 510.519 132.446 511.312 133.239C512.105 134.032 512.551 135.108 512.551 136.23V176.768C512.551 177.89 512.105 178.967 511.311 179.76C510.518 180.554 509.441 181 508.319 181H121.784C120.661 181 119.585 180.554 118.791 179.76C117.998 178.967 117.552 177.89 117.552 176.768V136C117.552 134.939 117.973 133.922 118.723 133.172C119.473 132.422 120.49 132 121.551 132Z" fill="#F7B548"/>
<path d="M128.551 181V174" stroke="#B8B8B8" stroke-width="1.842" stroke-miterlimit="10"/>
<path d="M137.551 181V174" stroke="#B8B8B8" stroke-width="1.842" stroke-miterlimit="10"/>
<path d="M147.551 181V174" stroke="#B8B8B8" stroke-width="1.842" stroke-miterlimit="10"/>
<path d="M156.551 181V174" stroke="#B8B8B8" stroke-width="1.842" stroke-miterlimit="10"/>
<path d="M165.551 181V174" stroke="#B8B8B8" stroke-width="1.842" stroke-miterlimit="10"/>
<path d="M175.551 181V174" stroke="#B8B8B8" stroke-width="1.842" stroke-miterlimit="10"/>
<path d="M184.551 181V174" stroke="#B8B8B8" stroke-width="1.842" stroke-miterlimit="10"/>
<path d="M193.551 181V174" stroke="#B8B8B8" stroke-width="1.842" stroke-miterlimit="10"/>
<path d="M203.551 181V174" stroke="#B8B8B8" stroke-width="1.842" stroke-miterlimit="10"/>
<path d="M212.551 181V174" stroke="#B8B8B8" stroke-width="1.842" stroke-miterlimit="10"/>
<path d="M221.551 181V174" stroke="#B8B8B8" stroke-width="1.842" stroke-miterlimit="10"/>
<path d="M231.551 181V174" stroke="#B8B8B8" stroke-width="1.842" stroke-miterlimit="10"/>
<path d="M240.551 181V174" stroke="#B8B8B8" stroke-width="1.842" stroke-miterlimit="10"/>
<path d="M249.551 181V174" stroke="#B8B8B8" stroke-width="1.842" stroke-miterlimit="10"/>
<path d="M259.551 181V174" stroke="#B8B8B8" stroke-width="1.842" stroke-miterlimit="10"/>
<path d="M268.551 181V174" stroke="#B8B8B8" stroke-width="1.842" stroke-miterlimit="10"/>
<path d="M277.551 181V174" stroke="#B8B8B8" stroke-width="1.842" stroke-miterlimit="10"/>
<path d="M287.551 181V174" stroke="#B8B8B8" stroke-width="1.842" stroke-miterlimit="10"/>
<path d="M296.551 181V174" stroke="#B8B8B8" stroke-width="1.842" stroke-miterlimit="10"/>
<path d="M305.551 181V174" stroke="#B8B8B8" stroke-width="1.842" stroke-miterlimit="10"/>
<path d="M315.551 181V174" stroke="#B8B8B8" stroke-width="1.842" stroke-miterlimit="10"/>
<path d="M324.551 181V174" stroke="#B8B8B8" stroke-width="1.842" stroke-miterlimit="10"/>
<path d="M334.551 181V174" stroke="#B8B8B8" stroke-width="1.842" stroke-miterlimit="10"/>
<path d="M343.551 181V174" stroke="#B8B8B8" stroke-width="1.842" stroke-miterlimit="10"/>
<path d="M352.551 181V174" stroke="#B8B8B8" stroke-width="1.842" stroke-miterlimit="10"/>
<path d="M362.551 181V174" stroke="#B8B8B8" stroke-width="1.842" stroke-miterlimit="10"/>
<path d="M371.551 181V174" stroke="#B8B8B8" stroke-width="1.842" stroke-miterlimit="10"/>
<path d="M380.551 181V174" stroke="#B8B8B8" stroke-width="1.842" stroke-miterlimit="10"/>
<path d="M390.551 181V174" stroke="#B8B8B8" stroke-width="1.842" stroke-miterlimit="10"/>
<path d="M399.551 181V174" stroke="#B8B8B8" stroke-width="1.842" stroke-miterlimit="10"/>
<path d="M408.551 181V174" stroke="#B8B8B8" stroke-width="1.842" stroke-miterlimit="10"/>
<path d="M418.551 181V174" stroke="#B8B8B8" stroke-width="1.842" stroke-miterlimit="10"/>
<path d="M427.551 181V174" stroke="#B8B8B8" stroke-width="1.842" stroke-miterlimit="10"/>
<path d="M436.551 181V174" stroke="#B8B8B8" stroke-width="1.842" stroke-miterlimit="10"/>
<path d="M446.551 181V174" stroke="#B8B8B8" stroke-width="1.842" stroke-miterlimit="10"/>
<path d="M455.551 181V174" stroke="#B8B8B8" stroke-width="1.842" stroke-miterlimit="10"/>
<path d="M464.551 181V174" stroke="#B8B8B8" stroke-width="1.842" stroke-miterlimit="10"/>
<path d="M474.551 181V174" stroke="#B8B8B8" stroke-width="1.842" stroke-miterlimit="10"/>
<path d="M483.551 181V174" stroke="#B8B8B8" stroke-width="1.842" stroke-miterlimit="10"/>
<path d="M492.551 181V174" stroke="#B8B8B8" stroke-width="1.842" stroke-miterlimit="10"/>
<path d="M502.551 181V174" stroke="#B8B8B8" stroke-width="1.842" stroke-miterlimit="10"/>
<path d="M511.551 181V174" stroke="#B8B8B8" stroke-width="1.842" stroke-miterlimit="10"/>
<path d="M521.551 181V174" stroke="#B8B8B8" stroke-width="1.842" stroke-miterlimit="10"/>
<path d="M530.551 181V174" stroke="#B8B8B8" stroke-width="1.842" stroke-miterlimit="10"/>
<path d="M539.551 181V174" stroke="#B8B8B8" stroke-width="1.842" stroke-miterlimit="10"/>
<path d="M549.551 181V174" stroke="#B8B8B8" stroke-width="1.842" stroke-miterlimit="10"/>
<path d="M558.551 181V174" stroke="#B8B8B8" stroke-width="1.842" stroke-miterlimit="10"/>
<path d="M567.551 181V174" stroke="#B8B8B8" stroke-width="1.842" stroke-miterlimit="10"/>
<path d="M577.551 181V174" stroke="#B8B8B8" stroke-width="1.842" stroke-miterlimit="10"/>
<path d="M586.551 181V174" stroke="#B8B8B8" stroke-width="1.842" stroke-miterlimit="10"/>
<path opacity="0.2" d="M119.363 135H594.88C595.802 134.999 596.703 135.273 597.468 135.786C597.276 134.724 596.717 133.764 595.889 133.072C595.061 132.38 594.016 132.001 592.937 132H121.989C119.9 132 118.155 132.729 117.614 135.3C118.172 135.085 118.766 134.983 119.363 135Z" fill="black"/>
<path d="M122.165 62H592.937C594.16 62 595.334 62.4861 596.199 63.3514C597.065 64.2167 597.551 65.3903 597.551 66.614V106.77C597.551 107.892 597.105 108.968 596.312 109.761C595.519 110.554 594.443 111 593.321 111H122.165C120.941 111 119.767 110.514 118.902 109.649C118.037 108.783 117.551 107.61 117.551 106.386V66.614C117.551 65.3903 118.037 64.2167 118.902 63.3514C119.767 62.4861 120.941 62 122.165 62Z" fill="#E6E6E6"/>
<path d="M121.551 62H488.321C489.443 62 490.519 62.4457 491.312 63.2389C492.105 64.0322 492.551 65.1081 492.551 66.23V106.768C492.551 107.89 492.105 108.967 491.311 109.76C490.518 110.554 489.441 111 488.319 111H121.784C120.661 111 119.585 110.554 118.791 109.76C117.998 108.967 117.552 107.89 117.552 106.768V66C117.552 64.9393 117.973 63.922 118.723 63.1719C119.473 62.4218 120.49 62.0003 121.551 62Z" fill="#958FE7"/>
<path d="M128.551 111V104" stroke="#B8B8B8" stroke-width="1.842" stroke-miterlimit="10"/>
<path d="M137.551 111V104" stroke="#B8B8B8" stroke-width="1.842" stroke-miterlimit="10"/>
<path d="M147.551 111V104" stroke="#B8B8B8" stroke-width="1.842" stroke-miterlimit="10"/>
<path d="M156.551 111V104" stroke="#B8B8B8" stroke-width="1.842" stroke-miterlimit="10"/>
<path d="M165.551 111V104" stroke="#B8B8B8" stroke-width="1.842" stroke-miterlimit="10"/>
<path d="M175.551 111V104" stroke="#B8B8B8" stroke-width="1.842" stroke-miterlimit="10"/>
<path d="M184.551 111V104" stroke="#B8B8B8" stroke-width="1.842" stroke-miterlimit="10"/>
<path d="M193.551 111V104" stroke="#B8B8B8" stroke-width="1.842" stroke-miterlimit="10"/>
<path d="M203.551 111V104" stroke="#B8B8B8" stroke-width="1.842" stroke-miterlimit="10"/>
<path d="M212.551 111V104" stroke="#B8B8B8" stroke-width="1.842" stroke-miterlimit="10"/>
<path d="M221.551 111V104" stroke="#B8B8B8" stroke-width="1.842" stroke-miterlimit="10"/>
<path d="M231.551 111V104" stroke="#B8B8B8" stroke-width="1.842" stroke-miterlimit="10"/>
<path d="M240.551 111V104" stroke="#B8B8B8" stroke-width="1.842" stroke-miterlimit="10"/>
<path d="M249.551 111V104" stroke="#B8B8B8" stroke-width="1.842" stroke-miterlimit="10"/>
<path d="M259.551 111V104" stroke="#B8B8B8" stroke-width="1.842" stroke-miterlimit="10"/>
<path d="M268.551 111V104" stroke="#B8B8B8" stroke-width="1.842" stroke-miterlimit="10"/>
<path d="M277.551 111V104" stroke="#B8B8B8" stroke-width="1.842" stroke-miterlimit="10"/>
<path d="M287.551 111V104" stroke="#B8B8B8" stroke-width="1.842" stroke-miterlimit="10"/>
<path d="M296.551 111V104" stroke="#B8B8B8" stroke-width="1.842" stroke-miterlimit="10"/>
<path d="M305.551 111V104" stroke="#B8B8B8" stroke-width="1.842" stroke-miterlimit="10"/>
<path d="M315.551 111V104" stroke="#B8B8B8" stroke-width="1.842" stroke-miterlimit="10"/>
<path d="M324.551 111V104" stroke="#B8B8B8" stroke-width="1.842" stroke-miterlimit="10"/>
<path d="M334.551 111V104" stroke="#B8B8B8" stroke-width="1.842" stroke-miterlimit="10"/>
<path d="M343.551 111V104" stroke="#B8B8B8" stroke-width="1.842" stroke-miterlimit="10"/>
<path d="M352.551 111V104" stroke="#B8B8B8" stroke-width="1.842" stroke-miterlimit="10"/>
<path d="M362.551 111V104" stroke="#B8B8B8" stroke-width="1.842" stroke-miterlimit="10"/>
<path d="M371.551 111V104" stroke="#B8B8B8" stroke-width="1.842" stroke-miterlimit="10"/>
<path d="M380.551 111V104" stroke="#B8B8B8" stroke-width="1.842" stroke-miterlimit="10"/>
<path d="M390.551 111V104" stroke="#B8B8B8" stroke-width="1.842" stroke-miterlimit="10"/>
<path d="M399.551 111V104" stroke="#B8B8B8" stroke-width="1.842" stroke-miterlimit="10"/>
<path d="M408.551 111V104" stroke="#B8B8B8" stroke-width="1.842" stroke-miterlimit="10"/>
<path d="M418.551 111V104" stroke="#B8B8B8" stroke-width="1.842" stroke-miterlimit="10"/>
<path d="M427.551 111V104" stroke="#B8B8B8" stroke-width="1.842" stroke-miterlimit="10"/>
<path d="M436.551 111V104" stroke="#B8B8B8" stroke-width="1.842" stroke-miterlimit="10"/>
<path d="M446.551 111V104" stroke="#B8B8B8" stroke-width="1.842" stroke-miterlimit="10"/>
<path d="M455.551 111V104" stroke="#B8B8B8" stroke-width="1.842" stroke-miterlimit="10"/>
<path d="M464.551 111V104" stroke="#B8B8B8" stroke-width="1.842" stroke-miterlimit="10"/>
<path d="M474.551 111V104" stroke="#B8B8B8" stroke-width="1.842" stroke-miterlimit="10"/>
<path d="M483.551 111V104" stroke="#B8B8B8" stroke-width="1.842" stroke-miterlimit="10"/>
<path d="M492.551 111V104" stroke="#B8B8B8" stroke-width="1.842" stroke-miterlimit="10"/>
<path d="M502.551 111V104" stroke="#B8B8B8" stroke-width="1.842" stroke-miterlimit="10"/>
<path d="M511.551 111V104" stroke="#B8B8B8" stroke-width="1.842" stroke-miterlimit="10"/>
<path d="M521.551 111V104" stroke="#B8B8B8" stroke-width="1.842" stroke-miterlimit="10"/>
<path d="M530.551 111V104" stroke="#B8B8B8" stroke-width="1.842" stroke-miterlimit="10"/>
<path d="M539.551 111V104" stroke="#B8B8B8" stroke-width="1.842" stroke-miterlimit="10"/>
<path d="M549.551 111V104" stroke="#B8B8B8" stroke-width="1.842" stroke-miterlimit="10"/>
<path d="M558.551 111V104" stroke="#B8B8B8" stroke-width="1.842" stroke-miterlimit="10"/>
<path d="M567.551 111V104" stroke="#B8B8B8" stroke-width="1.842" stroke-miterlimit="10"/>
<path d="M577.551 111V104" stroke="#B8B8B8" stroke-width="1.842" stroke-miterlimit="10"/>
<path d="M586.551 111V104" stroke="#B8B8B8" stroke-width="1.842" stroke-miterlimit="10"/>
<path opacity="0.2" d="M119.363 65H594.88C595.802 64.9993 596.703 65.2729 597.468 65.786C597.276 64.7243 596.717 63.7638 595.889 63.0719C595.061 62.3801 594.016 62.0007 592.937 62H122.165C119.926 61.917 118.155 62.792 117.614 65.25C118.18 65.0725 118.771 64.9881 119.363 65Z" fill="black"/>
<path d="M259.908 78.7529V87.7999H261.988V89.6849H259.908V92.7609H257.708V89.6809H251.37V87.7759C251.944 87.1319 252.532 86.4339 253.134 85.6819C253.736 84.9299 254.315 84.1616 254.872 83.3769C255.429 82.5929 255.944 81.8069 256.419 81.0189C256.864 80.2885 257.265 79.5318 257.619 78.7529H259.908ZM257.708 87.7959V81.9169C257.077 83.0722 256.376 84.1876 255.608 85.2569C254.915 86.2069 254.265 87.0533 253.659 87.7959H257.708Z" fill="black"/>
<path d="M267.789 92.991C267.114 93.0132 266.446 92.8602 265.848 92.547C265.25 92.2339 264.743 91.7712 264.377 91.204C263.464 89.6423 263.036 87.8437 263.15 86.038C263.023 84.0818 263.468 82.131 264.43 80.423C264.826 79.8119 265.375 79.315 266.023 78.9817C266.67 78.6484 267.394 78.4903 268.121 78.523C271.201 78.523 272.741 80.9153 272.74 85.7C272.862 87.598 272.409 89.4887 271.44 91.125C271.042 91.7221 270.497 92.2071 269.858 92.5338C269.219 92.8605 268.506 93.0179 267.789 92.991ZM268.014 80.325C266.314 80.325 265.464 82.1967 265.465 85.94C265.465 89.4433 266.298 91.1947 267.965 91.194C269.605 91.194 270.425 89.4137 270.426 85.853C270.426 82.1683 269.622 80.3257 268.014 80.325Z" fill="black"/>
<path d="M283.893 88.255C283.901 88.9125 283.783 89.5655 283.547 90.179C283.328 90.7376 283.001 91.2474 282.584 91.679C282.17 92.1015 281.673 92.4338 281.125 92.655C280.543 92.8902 279.92 93.0081 279.293 93.002C278.624 93.0094 277.963 92.8694 277.355 92.592C276.757 92.3115 276.235 91.893 275.832 91.371C275.374 90.7696 275.037 90.0849 274.84 89.355C274.591 88.443 274.472 87.5003 274.488 86.555C274.47 85.3889 274.626 84.2267 274.953 83.107C275.216 82.195 275.648 81.3406 276.227 80.588C276.735 79.9364 277.385 79.4088 278.127 79.045C278.864 78.6916 279.672 78.5114 280.49 78.518C280.972 78.5148 281.455 78.5506 281.932 78.625C282.29 78.6748 282.639 78.7734 282.971 78.918V80.96C282.629 80.7864 282.272 80.6426 281.906 80.53C281.484 80.4065 281.045 80.3472 280.606 80.354C280.083 80.3488 279.565 80.4627 279.093 80.687C278.622 80.9126 278.211 81.2451 277.893 81.658C277.533 82.1318 277.265 82.6682 277.102 83.24C276.898 83.9462 276.797 84.6781 276.802 85.413H276.861C277.164 84.9482 277.583 84.571 278.078 84.319C278.636 84.0417 279.254 83.9044 279.878 83.919C280.444 83.9115 281.006 84.0134 281.534 84.219C282.012 84.4093 282.442 84.7026 282.794 85.078C283.152 85.4731 283.425 85.9387 283.594 86.445C283.796 87.0269 283.897 87.6391 283.893 88.255ZM281.607 88.44C281.611 88.0687 281.564 87.6985 281.467 87.34C281.382 87.0291 281.236 86.7384 281.037 86.485C280.843 86.2467 280.595 86.0579 280.314 85.934C279.991 85.7959 279.643 85.7277 279.293 85.734C278.938 85.7269 278.587 85.7986 278.264 85.944C277.98 86.0755 277.725 86.2633 277.516 86.496C277.314 86.7234 277.159 86.9889 277.062 87.277C276.961 87.5664 276.91 87.8706 276.91 88.177C276.911 88.5219 276.959 88.865 277.053 89.197C277.142 89.5367 277.288 89.8586 277.486 90.149C277.682 90.4357 277.937 90.6771 278.234 90.857C278.56 91.0492 278.933 91.1459 279.312 91.136C279.652 91.1441 279.989 91.0757 280.299 90.936C280.578 90.8042 280.824 90.6102 281.018 90.369C281.216 90.1141 281.365 89.8245 281.457 89.515C281.56 89.1661 281.61 88.8038 281.607 88.44Z" fill="black"/>
<path d="M291 92.4439V90.3439C291.799 90.9711 292.785 91.3117 293.8 91.3109C295.167 91.3109 295.85 90.9073 295.85 90.0999C295.856 89.8924 295.795 89.6884 295.675 89.5189C295.545 89.3489 295.385 89.2047 295.202 89.0939C294.981 88.9592 294.746 88.8479 294.502 88.7619C294.23 88.6619 293.93 88.5539 293.602 88.4299C293.222 88.2816 292.852 88.1086 292.494 87.9119C292.19 87.7491 291.914 87.5399 291.674 87.2919C291.458 87.0657 291.29 86.7984 291.18 86.5059C291.064 86.1767 291.007 85.8291 291.014 85.4799C291.006 85.0315 291.124 84.5899 291.356 84.2059C291.59 83.833 291.903 83.5161 292.273 83.2779C292.676 83.0195 293.118 82.8283 293.582 82.7119C294.076 82.5841 294.585 82.5199 295.096 82.5209C295.941 82.5071 296.782 82.6494 297.576 82.9409V84.9239C296.863 84.4387 296.017 84.1862 295.154 84.2009C294.893 84.1979 294.633 84.2275 294.379 84.2889C294.17 84.3385 293.97 84.4208 293.787 84.5329C293.634 84.6289 293.504 84.7572 293.406 84.9089C293.316 85.0543 293.269 85.222 293.27 85.3929C293.264 85.584 293.311 85.7729 293.406 85.9389C293.509 86.102 293.648 86.2389 293.813 86.3389C294.016 86.4655 294.232 86.5701 294.457 86.6509C294.707 86.7459 294.996 86.8509 295.32 86.9589C295.75 87.1349 296.136 87.3139 296.479 87.4959C296.797 87.662 297.09 87.8706 297.352 88.1159C297.59 88.3418 297.779 88.6141 297.908 88.9159C298.048 89.2581 298.116 89.6254 298.108 89.9949C298.119 90.462 297.997 90.9225 297.756 91.3229C297.52 91.7035 297.199 92.0244 296.818 92.2609C296.401 92.5187 295.945 92.7053 295.467 92.8129C294.937 92.935 294.394 92.9954 293.85 92.9929C292.872 93.0172 291.899 92.8299 291 92.4439Z" fill="black"/>
<path d="M308.717 88.372H301.9C301.888 88.7682 301.957 89.1627 302.105 89.5307C302.252 89.8987 302.474 90.2325 302.756 90.511C303.378 91.0402 304.18 91.3095 304.996 91.263C306.053 91.2663 307.083 90.9309 307.936 90.306V92.132C306.836 92.7525 305.583 93.0502 304.322 92.991C303.681 93.0256 303.04 92.9218 302.443 92.6868C301.846 92.4518 301.306 92.091 300.861 91.629C299.966 90.5593 299.517 89.1874 299.605 87.796C299.548 86.3968 300.045 85.0317 300.988 83.996C301.422 83.5207 301.953 83.1436 302.545 82.8901C303.137 82.6366 303.776 82.5125 304.42 82.526C305.014 82.4919 305.608 82.5928 306.158 82.8213C306.708 83.0497 307.198 83.3997 307.594 83.845C308.397 84.8903 308.796 86.1909 308.717 87.507V88.372ZM306.529 86.772C306.565 86.0907 306.361 85.4182 305.953 84.872C305.762 84.6466 305.522 84.4681 305.251 84.3504C304.98 84.2326 304.686 84.1788 304.391 84.193C304.08 84.1883 303.772 84.2494 303.487 84.3723C303.201 84.4952 302.945 84.6771 302.736 84.906C302.264 85.4226 301.971 86.0766 301.9 86.772H306.529Z" fill="black"/>
<path d="M318.033 92.3C317.164 92.7792 316.183 93.0184 315.191 92.993C314.529 93.0205 313.868 92.9109 313.25 92.6712C312.632 92.4316 312.071 92.0669 311.6 91.6C311.142 91.1211 310.784 90.5548 310.549 89.9347C310.314 89.3147 310.206 88.6536 310.232 87.991C310.199 87.2645 310.312 86.5387 310.565 85.8567C310.817 85.1747 311.205 84.5505 311.703 84.021C312.22 83.5137 312.835 83.1185 313.512 82.8604C314.188 82.6023 314.91 82.4867 315.633 82.521C316.462 82.5043 317.285 82.6677 318.045 83V85.11C317.41 84.6105 316.627 84.3358 315.818 84.329C315.38 84.3149 314.943 84.3942 314.537 84.5618C314.131 84.7294 313.766 84.9814 313.465 85.301C312.836 85.995 312.506 86.9092 312.547 87.845C312.523 88.2904 312.587 88.7362 312.735 89.1568C312.884 89.5774 313.114 89.9645 313.412 90.296C313.715 90.5996 314.077 90.8365 314.476 90.9915C314.876 91.1465 315.303 91.2162 315.731 91.196C316.576 91.1833 317.389 90.8759 318.031 90.327L318.033 92.3Z" fill="black"/>
<path d="M324.713 92.9909C324.033 93.0243 323.354 92.9173 322.717 92.6764C322.081 92.4355 321.501 92.066 321.013 91.5909C320.544 91.0965 320.18 90.5125 319.943 89.874C319.705 89.2354 319.599 88.5555 319.63 87.8749C319.567 87.1589 319.662 86.4377 319.906 85.7619C320.151 85.0861 320.541 84.4719 321.048 83.9622C321.554 83.4525 322.166 83.0596 322.841 82.811C323.515 82.5624 324.236 82.4641 324.952 82.5229C325.623 82.4835 326.296 82.5857 326.925 82.8229C327.554 83.0601 328.126 83.4271 328.604 83.8999C329.526 84.9514 329.996 86.3233 329.913 87.7189C329.946 88.4196 329.838 89.1198 329.596 89.7782C329.354 90.4365 328.982 91.0396 328.503 91.5519C328.004 92.0395 327.41 92.4189 326.758 92.6665C326.106 92.9141 325.41 93.0245 324.713 92.9909ZM324.82 84.3289C324.422 84.3117 324.026 84.3865 323.662 84.5475C323.298 84.7084 322.975 84.9512 322.72 85.2569C322.169 85.9915 321.895 86.8978 321.948 87.8149C321.898 88.7078 322.176 89.5882 322.729 90.2909C322.988 90.5881 323.31 90.8233 323.672 90.9791C324.033 91.1349 324.426 91.2073 324.819 91.1909C325.208 91.2137 325.596 91.1453 325.953 90.9911C326.31 90.8369 326.626 90.6012 326.876 90.3029C327.398 89.5666 327.651 88.6735 327.593 87.7729C327.651 86.8667 327.398 85.968 326.876 85.2249C326.628 84.9245 326.313 84.6869 325.955 84.5312C325.598 84.3755 325.209 84.3062 324.82 84.3289Z" fill="black"/>
<path d="M341.129 92.7569H338.863V87.1219C338.863 85.2553 338.202 84.3219 336.881 84.3219C336.556 84.3147 336.233 84.3808 335.937 84.5154C335.642 84.6499 335.38 84.8493 335.172 85.0989C334.712 85.6455 334.472 86.3433 334.498 87.0569V92.7569H332.223V82.7569H334.5V84.4169H334.539C334.849 83.8308 335.317 83.3429 335.89 83.0081C336.463 82.6734 337.118 82.505 337.781 82.5219C338.25 82.4928 338.719 82.5734 339.151 82.7574C339.584 82.9414 339.967 83.2237 340.272 83.5819C340.901 84.4736 341.205 85.5549 341.131 86.6439L341.129 92.7569Z" fill="black"/>
<path d="M352.984 92.7569H350.719V91.0569H350.68C350.366 91.5923 349.93 92.0453 349.406 92.3785C348.883 92.7117 348.288 92.9155 347.67 92.9732C347.052 93.0308 346.429 92.9406 345.853 92.71C345.277 92.4794 344.764 92.115 344.357 91.6469C343.567 90.5969 343.175 89.3016 343.248 87.9899C343.176 86.562 343.61 85.1544 344.475 84.0159C344.866 83.5301 345.364 83.142 345.931 82.8825C346.498 82.623 347.117 82.4992 347.74 82.5209C348.334 82.4837 348.925 82.6165 349.446 82.9038C349.967 83.1911 350.395 83.6209 350.68 84.1429H350.719V77.9519H352.984V92.7569ZM350.748 88.1869V86.8779C350.764 86.2078 350.515 85.5586 350.055 85.0709C349.831 84.8278 349.557 84.6358 349.252 84.5078C348.947 84.3798 348.618 84.3188 348.287 84.3289C347.902 84.3129 347.519 84.3907 347.17 84.5557C346.822 84.7207 346.519 84.9678 346.287 85.2759C345.76 86.0466 345.503 86.9707 345.558 87.9029C345.51 88.7619 345.757 89.6114 346.258 90.3109C346.478 90.5968 346.764 90.826 347.091 90.9796C347.417 91.1331 347.776 91.2066 348.137 91.1939C348.495 91.2049 348.851 91.1336 349.178 90.9855C349.505 90.8375 349.793 90.6166 350.021 90.3399C350.518 89.7348 350.776 88.9692 350.748 88.1869Z" fill="black"/>
<path d="M355.318 92.4439V90.3439C356.117 90.9709 357.103 91.3115 358.118 91.3109C359.486 91.3109 360.169 90.9072 360.169 90.0999C360.177 89.8934 360.118 89.6898 360 89.5199C359.871 89.3494 359.711 89.2051 359.527 89.0949C359.306 88.9599 359.072 88.8487 358.827 88.7629C358.557 88.6649 358.257 88.5542 357.927 88.4309C357.548 88.2824 357.178 88.1094 356.82 87.9129C356.516 87.75 356.239 87.5409 355.999 87.2929C355.784 87.0664 355.616 86.7992 355.505 86.5069C355.389 86.1775 355.333 85.8301 355.339 85.4809C355.331 85.0325 355.45 84.5908 355.681 84.2069C355.915 83.8337 356.229 83.5168 356.599 83.2789C357.002 83.0204 357.444 82.8292 357.907 82.7129C358.402 82.5851 358.911 82.5209 359.421 82.5219C360.267 82.5081 361.108 82.6505 361.902 82.9419V84.9249C361.189 84.4397 360.343 84.1871 359.48 84.2019C359.219 84.1989 358.958 84.2285 358.704 84.2899C358.496 84.3394 358.296 84.4218 358.113 84.5339C357.96 84.6292 357.83 84.7577 357.732 84.9099C357.642 85.0552 357.595 85.2229 357.595 85.3939C357.59 85.585 357.637 85.7739 357.732 85.9399C357.835 86.1031 357.974 86.2401 358.138 86.3399C358.342 86.4661 358.557 86.5707 358.782 86.6519C359.032 86.7469 359.322 86.8519 359.646 86.9599C360.075 87.1359 360.462 87.3149 360.804 87.4969C361.122 87.6625 361.416 87.8711 361.677 88.1169C361.916 88.3427 362.105 88.6149 362.234 88.9169C362.372 89.2595 362.439 89.6267 362.429 89.9959C362.44 90.463 362.318 90.9236 362.077 91.3239C361.841 91.7044 361.521 92.0254 361.14 92.2619C360.723 92.5195 360.266 92.7061 359.788 92.8139C359.258 92.9361 358.715 92.9965 358.171 92.9939C357.192 93.0183 356.219 92.8306 355.318 92.4439Z" fill="black"/>
<path d="M259.938 148.753V157.8H262.018V159.685H259.938V162.761H257.738V159.685H251.4V157.78C251.975 157.136 252.56 156.438 253.164 155.686C253.768 154.934 254.346 154.165 254.902 153.386C255.458 152.607 255.975 151.816 256.449 151.028C256.895 150.298 257.296 149.541 257.649 148.762L259.938 148.753ZM257.738 157.796V151.917C257.107 153.072 256.406 154.187 255.638 155.257C254.944 156.207 254.295 157.053 253.689 157.796H257.738Z" fill="black"/>
<path d="M263.619 162.239V160.11C264.491 160.818 265.582 161.202 266.705 161.194C267.499 161.234 268.284 161.012 268.938 160.56C269.206 160.363 269.422 160.103 269.568 159.804C269.713 159.504 269.783 159.174 269.771 158.841C269.771 157.252 268.557 156.458 266.129 156.458H265.045V154.642H266.08C268.236 154.642 269.313 153.893 269.312 152.396C269.312 151.016 268.472 150.326 266.793 150.325C265.82 150.338 264.883 150.694 264.146 151.331V149.319C265.181 148.765 266.342 148.489 267.516 148.519C268.592 148.464 269.652 148.797 270.504 149.456C270.863 149.743 271.152 150.108 271.347 150.525C271.541 150.941 271.637 151.397 271.627 151.856C271.673 152.69 271.412 153.511 270.893 154.166C270.375 154.821 269.636 155.263 268.814 155.411V155.45C269.715 155.499 270.566 155.876 271.207 156.51C271.498 156.813 271.725 157.17 271.876 157.562C272.027 157.953 272.098 158.371 272.086 158.79C272.104 159.372 271.985 159.951 271.739 160.479C271.493 161.007 271.127 161.471 270.67 161.832C269.601 162.644 268.28 163.054 266.939 162.989C265.785 163.045 264.637 162.785 263.619 162.239Z" fill="black"/>
<path d="M274.723 162.239V160.11C275.594 160.819 276.685 161.202 277.809 161.194C278.602 161.234 279.387 161.011 280.041 160.56C280.309 160.363 280.525 160.103 280.671 159.804C280.816 159.504 280.886 159.174 280.875 158.841C280.875 157.252 279.66 156.458 277.232 156.458H276.148V154.642H277.184C279.34 154.642 280.417 153.893 280.416 152.396C280.416 151.016 279.576 150.326 277.896 150.325C276.923 150.338 275.986 150.694 275.25 151.331V149.319C276.284 148.765 277.445 148.489 278.619 148.519C279.695 148.464 280.755 148.797 281.607 149.456C281.966 149.743 282.254 150.108 282.449 150.525C282.644 150.941 282.74 151.397 282.73 151.856C282.775 152.69 282.515 153.511 281.997 154.166C281.479 154.821 280.739 155.263 279.918 155.411V155.45C280.818 155.499 281.67 155.876 282.311 156.51C282.601 156.813 282.828 157.17 282.979 157.562C283.13 157.953 283.201 158.371 283.189 158.79C283.206 159.372 283.088 159.951 282.842 160.479C282.596 161.007 282.23 161.471 281.773 161.832C280.704 162.644 279.383 163.054 278.043 162.989C276.888 163.045 275.741 162.786 274.723 162.239Z" fill="black"/>
<path d="M290.973 162.444V160.344C291.771 160.971 292.757 161.312 293.773 161.311C295.141 161.311 295.824 160.907 295.824 160.1C295.83 159.892 295.768 159.688 295.648 159.519C295.519 159.349 295.358 159.204 295.176 159.094C294.955 158.959 294.72 158.848 294.476 158.762C294.204 158.664 293.902 158.553 293.571 158.43C293.191 158.281 292.821 158.108 292.464 157.912C292.16 157.749 291.883 157.54 291.644 157.292C291.428 157.065 291.26 156.798 291.149 156.506C291.033 156.177 290.977 155.829 290.983 155.48C290.975 155.032 291.093 154.59 291.325 154.206C291.559 153.833 291.872 153.516 292.243 153.278C292.645 153.019 293.087 152.828 293.552 152.712C294.046 152.584 294.554 152.52 295.065 152.521C295.91 152.507 296.752 152.65 297.546 152.941V154.924C296.832 154.439 295.986 154.186 295.124 154.201C294.863 154.198 294.602 154.227 294.349 154.289C294.14 154.338 293.94 154.421 293.757 154.533C293.604 154.629 293.474 154.757 293.376 154.909C293.285 155.054 293.238 155.222 293.239 155.393C293.233 155.584 293.281 155.773 293.376 155.939C293.478 156.102 293.617 156.239 293.782 156.339C293.985 156.465 294.201 156.57 294.427 156.651C294.677 156.746 294.966 156.851 295.29 156.959C295.72 157.135 296.106 157.314 296.448 157.496C296.766 157.661 297.06 157.87 297.321 158.116C297.559 158.342 297.749 158.614 297.878 158.916C298.016 159.258 298.082 159.626 298.073 159.995C298.084 160.462 297.962 160.922 297.722 161.323C297.485 161.703 297.164 162.024 296.784 162.261C296.367 162.519 295.91 162.705 295.433 162.813C294.902 162.935 294.359 162.995 293.815 162.993C292.839 163.016 291.87 162.829 290.973 162.444Z" fill="black"/>
<path d="M308.688 158.372H301.871C301.859 158.768 301.929 159.163 302.076 159.531C302.223 159.899 302.445 160.233 302.727 160.511C303.35 161.04 304.152 161.309 304.967 161.263C306.024 161.266 307.054 160.931 307.906 160.306V162.132C306.807 162.753 305.554 163.05 304.293 162.991C303.652 163.026 303.012 162.922 302.414 162.687C301.817 162.452 301.278 162.091 300.832 161.629C299.938 160.559 299.489 159.187 299.576 157.796C299.52 156.397 300.017 155.032 300.959 153.996C301.394 153.521 301.924 153.144 302.516 152.89C303.108 152.636 303.747 152.512 304.391 152.526C304.985 152.492 305.58 152.593 306.129 152.821C306.679 153.05 307.169 153.4 307.564 153.845C308.368 154.89 308.768 156.191 308.688 157.507V158.372ZM306.5 156.772C306.537 156.091 306.333 155.418 305.924 154.872C305.733 154.647 305.493 154.468 305.222 154.35C304.951 154.233 304.656 154.179 304.361 154.193C304.051 154.188 303.743 154.25 303.458 154.372C303.173 154.495 302.917 154.677 302.707 154.906C302.236 155.423 301.943 156.077 301.871 156.772H306.5Z" fill="black"/>
<path d="M318 162.3C317.131 162.779 316.15 163.018 315.158 162.993C314.496 163.021 313.834 162.912 313.216 162.673C312.598 162.433 312.035 162.069 311.564 161.602C311.106 161.123 310.748 160.557 310.513 159.937C310.279 159.317 310.171 158.656 310.197 157.993C310.164 157.266 310.277 156.541 310.529 155.859C310.782 155.177 311.169 154.552 311.668 154.023C312.184 153.516 312.8 153.12 313.476 152.862C314.153 152.604 314.875 152.489 315.598 152.523C316.427 152.506 317.25 152.67 318.01 153.002V155.111C317.375 154.612 316.591 154.337 315.783 154.33C315.344 154.316 314.908 154.395 314.502 154.563C314.096 154.73 313.731 154.982 313.43 155.302C312.801 155.996 312.471 156.91 312.512 157.846C312.488 158.291 312.552 158.737 312.7 159.158C312.849 159.578 313.079 159.965 313.377 160.297C313.679 160.601 314.042 160.838 314.441 160.993C314.84 161.148 315.267 161.217 315.695 161.197C316.541 161.185 317.357 160.878 318 160.328V162.3Z" fill="black"/>
<path d="M324.684 162.991C324.004 163.024 323.325 162.917 322.688 162.676C322.051 162.435 321.471 162.066 320.984 161.591C320.515 161.097 320.151 160.513 319.913 159.874C319.676 159.236 319.569 158.556 319.601 157.875C319.538 157.159 319.633 156.438 319.878 155.762C320.123 155.086 320.512 154.472 321.019 153.963C321.526 153.453 322.138 153.06 322.812 152.812C323.487 152.563 324.207 152.464 324.924 152.523C325.595 152.484 326.267 152.586 326.896 152.824C327.525 153.061 328.097 153.428 328.576 153.9C329.497 154.951 329.967 156.323 329.885 157.719C329.918 158.42 329.81 159.12 329.568 159.778C329.326 160.437 328.954 161.04 328.475 161.552C327.976 162.04 327.382 162.419 326.729 162.667C326.077 162.914 325.381 163.025 324.684 162.991ZM324.791 154.329C324.393 154.312 323.997 154.387 323.632 154.548C323.268 154.709 322.946 154.951 322.691 155.257C322.14 155.992 321.867 156.898 321.92 157.815C321.87 158.708 322.147 159.588 322.701 160.291C322.959 160.588 323.281 160.823 323.643 160.979C324.005 161.135 324.397 161.207 324.791 161.191C325.179 161.214 325.567 161.145 325.925 160.991C326.282 160.837 326.598 160.601 326.848 160.303C327.369 159.567 327.622 158.673 327.564 157.773C327.622 156.867 327.369 155.968 326.848 155.225C326.599 154.925 326.284 154.687 325.926 154.531C325.569 154.375 325.18 154.306 324.791 154.329Z" fill="black"/>
<path d="M341.1 162.757H338.834V157.122C338.834 155.255 338.174 154.322 336.852 154.322C336.527 154.315 336.205 154.381 335.909 154.516C335.613 154.65 335.352 154.85 335.143 155.099C334.683 155.645 334.443 156.343 334.469 157.057V162.757H332.193V152.757H334.469V154.417H334.508C334.818 153.83 335.286 153.341 335.859 153.005C336.432 152.67 337.087 152.501 337.75 152.517C338.219 152.488 338.689 152.568 339.121 152.752C339.553 152.936 339.936 153.219 340.24 153.577C340.87 154.469 341.174 155.55 341.1 156.639V162.757Z" fill="black"/>
<path d="M352.955 162.757H350.689V161.057H350.65C350.336 161.592 349.9 162.045 349.376 162.379C348.853 162.712 348.258 162.916 347.64 162.973C347.022 163.031 346.4 162.941 345.824 162.71C345.248 162.48 344.735 162.115 344.328 161.647C343.538 160.597 343.145 159.302 343.219 157.99C343.146 156.562 343.581 155.155 344.445 154.016C344.835 153.529 345.333 153.14 345.9 152.88C346.467 152.62 347.087 152.495 347.711 152.516C348.304 152.479 348.896 152.611 349.417 152.899C349.937 153.186 350.365 153.616 350.65 154.138H350.689V147.946H352.955V162.757ZM350.719 158.187V156.878C350.734 156.208 350.485 155.559 350.025 155.071C349.801 154.828 349.527 154.636 349.222 154.508C348.917 154.38 348.588 154.319 348.258 154.329C347.873 154.313 347.489 154.391 347.141 154.556C346.792 154.721 346.489 154.968 346.258 155.276C345.73 156.047 345.473 156.971 345.529 157.903C345.481 158.762 345.728 159.611 346.229 160.311C346.449 160.597 346.735 160.826 347.061 160.98C347.388 161.133 347.747 161.207 348.108 161.194C348.467 161.206 348.825 161.135 349.153 160.987C349.481 160.839 349.771 160.618 350 160.34C350.493 159.734 350.749 158.968 350.719 158.187Z" fill="black"/>
<path d="M355.289 162.444V160.344C356.088 160.971 357.074 161.312 358.089 161.311C359.456 161.311 360.14 160.907 360.14 160.1C360.146 159.892 360.084 159.688 359.964 159.519C359.835 159.349 359.674 159.204 359.491 159.094C359.27 158.959 359.035 158.848 358.791 158.762C358.52 158.664 358.22 158.553 357.891 158.43C357.511 158.281 357.141 158.108 356.783 157.912C356.479 157.749 356.203 157.54 355.963 157.292C355.747 157.066 355.579 156.798 355.469 156.506C355.353 156.177 355.296 155.829 355.303 155.48C355.295 155.032 355.413 154.59 355.645 154.206C355.879 153.833 356.192 153.516 356.563 153.278C356.965 153.019 357.407 152.828 357.871 152.712C358.366 152.584 358.874 152.52 359.385 152.521C360.231 152.507 361.071 152.649 361.865 152.941V154.924C361.152 154.439 360.306 154.186 359.443 154.201C359.182 154.198 358.922 154.228 358.668 154.289C358.459 154.338 358.259 154.421 358.076 154.533C357.923 154.629 357.793 154.757 357.695 154.909C357.606 155.054 357.558 155.222 357.559 155.393C357.554 155.584 357.601 155.773 357.695 155.939C357.798 156.102 357.937 156.239 358.102 156.339C358.305 156.466 358.521 156.57 358.746 156.651C358.996 156.746 359.285 156.851 359.609 156.959C360.039 157.135 360.425 157.314 360.768 157.496C361.086 157.662 361.38 157.871 361.641 158.116C361.879 158.342 362.068 158.614 362.197 158.916C362.337 159.258 362.405 159.625 362.397 159.995C362.408 160.462 362.286 160.922 362.045 161.323C361.809 161.703 361.488 162.024 361.108 162.261C360.691 162.519 360.234 162.705 359.756 162.813C359.226 162.935 358.683 162.995 358.139 162.993C357.161 163.017 356.188 162.83 355.289 162.444Z" fill="black"/>
<path d="M252.5 232.239V230.11C253.372 230.818 254.463 231.202 255.586 231.194C256.38 231.235 257.164 231.012 257.818 230.56C258.086 230.363 258.303 230.103 258.448 229.804C258.593 229.504 258.663 229.174 258.652 228.841C258.652 227.252 257.438 226.458 255.01 226.458H253.926V224.642H254.961C257.117 224.642 258.194 223.893 258.193 222.396C258.193 221.016 257.353 220.326 255.674 220.325C254.701 220.338 253.763 220.694 253.027 221.331V219.319C254.062 218.765 255.223 218.489 256.397 218.519C257.473 218.464 258.533 218.797 259.385 219.456C259.744 219.743 260.033 220.108 260.227 220.525C260.422 220.941 260.518 221.397 260.508 221.856C260.553 222.69 260.292 223.511 259.774 224.166C259.256 224.821 258.517 225.263 257.695 225.411V225.45C258.596 225.499 259.447 225.876 260.088 226.51C260.379 226.813 260.606 227.17 260.757 227.562C260.908 227.953 260.979 228.371 260.967 228.79C260.985 229.372 260.866 229.951 260.62 230.479C260.374 231.007 260.008 231.471 259.551 231.832C258.482 232.644 257.161 233.054 255.82 232.989C254.666 233.045 253.518 232.785 252.5 232.239Z" fill="black"/>
<path d="M272.438 219.886C271.852 220.96 271.298 222.023 270.777 223.074C270.256 224.125 269.784 225.182 269.361 226.243C268.939 227.305 268.572 228.374 268.261 229.451C267.947 230.536 267.705 231.64 267.538 232.757H265.165C265.323 231.744 265.547 230.741 265.835 229.757C266.124 228.757 266.464 227.757 266.855 226.757C267.246 225.757 267.684 224.753 268.169 223.744C268.653 222.735 269.169 221.717 269.716 220.688H263.085V218.754H272.441L272.438 219.886Z" fill="black"/>
<path d="M274.635 232.435V230.257C275.45 230.842 276.424 231.165 277.428 231.185C278.257 231.226 279.073 230.968 279.728 230.457C280.012 230.222 280.238 229.925 280.388 229.589C280.539 229.253 280.61 228.887 280.597 228.519C280.613 228.161 280.54 227.805 280.386 227.481C280.232 227.157 280.001 226.876 279.714 226.663C278.962 226.175 278.073 225.942 277.179 225.999C276.802 225.999 276.037 226.038 274.884 226.116L275.384 218.753H282.278V220.687H277.269L277.034 224.187C277.484 224.161 277.892 224.148 278.255 224.148C279.507 224.068 280.742 224.477 281.698 225.291C282.11 225.696 282.432 226.184 282.641 226.723C282.851 227.262 282.943 227.839 282.913 228.416C282.939 229.04 282.828 229.661 282.587 230.238C282.347 230.814 281.984 231.33 281.523 231.751C280.452 232.638 279.086 233.086 277.698 233.006C276.645 233.073 275.592 232.877 274.635 232.435Z" fill="black"/>
<path d="M290.572 232.444V230.344C291.371 230.971 292.357 231.312 293.372 231.311C294.74 231.311 295.423 230.907 295.423 230.1C295.429 229.892 295.368 229.688 295.247 229.519C295.118 229.348 294.958 229.204 294.774 229.094C294.553 228.959 294.319 228.848 294.074 228.762C293.804 228.664 293.504 228.553 293.174 228.43C292.794 228.281 292.424 228.108 292.066 227.912C291.762 227.749 291.486 227.54 291.246 227.292C291.031 227.066 290.863 226.798 290.752 226.506C290.636 226.177 290.58 225.829 290.586 225.48C290.578 225.032 290.696 224.59 290.928 224.206C291.162 223.833 291.476 223.516 291.846 223.278C292.249 223.019 292.69 222.828 293.154 222.712C293.649 222.584 294.158 222.52 294.668 222.521C295.514 222.507 296.355 222.65 297.149 222.941V224.924C296.436 224.439 295.59 224.186 294.727 224.201C294.466 224.198 294.205 224.228 293.951 224.289C293.742 224.339 293.543 224.421 293.359 224.533C293.206 224.629 293.077 224.757 292.979 224.909C292.889 225.054 292.842 225.222 292.842 225.393C292.837 225.584 292.884 225.773 292.979 225.939C293.082 226.102 293.221 226.239 293.385 226.339C293.588 226.465 293.804 226.57 294.029 226.651C294.279 226.746 294.568 226.851 294.893 226.959C295.322 227.135 295.709 227.314 296.051 227.496C296.369 227.661 296.663 227.87 296.924 228.116C297.163 228.342 297.352 228.614 297.481 228.916C297.62 229.258 297.689 229.625 297.681 229.995C297.692 230.462 297.57 230.923 297.329 231.323C297.093 231.703 296.772 232.024 296.392 232.261C295.975 232.519 295.518 232.705 295.04 232.813C294.51 232.935 293.967 232.995 293.423 232.993C292.445 233.017 291.472 232.83 290.572 232.444Z" fill="black"/>
<path d="M308.287 228.372H301.471C301.458 228.768 301.528 229.163 301.675 229.531C301.822 229.899 302.044 230.233 302.326 230.511C302.948 231.04 303.75 231.309 304.566 231.263C305.623 231.266 306.653 230.931 307.506 230.306V232.132C306.406 232.753 305.154 233.05 303.893 232.991C303.252 233.026 302.611 232.922 302.014 232.687C301.417 232.452 300.877 232.091 300.432 231.629C299.538 230.559 299.088 229.187 299.176 227.796C299.119 226.397 299.616 225.032 300.559 223.996C300.993 223.521 301.524 223.144 302.115 222.89C302.707 222.637 303.346 222.512 303.99 222.526C304.584 222.492 305.178 222.593 305.728 222.821C306.278 223.05 306.769 223.4 307.164 223.845C307.968 224.89 308.366 226.191 308.287 227.507V228.372ZM306.1 226.772C306.136 226.091 305.932 225.418 305.523 224.872C305.332 224.647 305.092 224.468 304.821 224.35C304.55 224.233 304.256 224.179 303.961 224.193C303.65 224.188 303.343 224.25 303.058 224.372C302.772 224.495 302.517 224.677 302.307 224.906C301.835 225.422 301.542 226.076 301.471 226.772H306.1Z" fill="black"/>
<path d="M317.6 232.3C316.731 232.779 315.75 233.018 314.758 232.993C314.095 233.021 313.434 232.912 312.816 232.673C312.197 232.433 311.635 232.069 311.164 231.602C310.705 231.123 310.348 230.557 310.113 229.937C309.878 229.316 309.771 228.655 309.797 227.993C309.763 227.266 309.876 226.541 310.129 225.859C310.381 225.177 310.768 224.552 311.267 224.023C311.783 223.516 312.399 223.121 313.075 222.862C313.751 222.604 314.474 222.489 315.197 222.523C316.026 222.506 316.849 222.67 317.609 223.002V225.111C316.974 224.611 316.191 224.337 315.383 224.33C314.944 224.316 314.507 224.395 314.101 224.563C313.696 224.731 313.33 224.982 313.029 225.302C312.4 225.996 312.07 226.91 312.111 227.846C312.087 228.291 312.151 228.737 312.299 229.158C312.447 229.578 312.677 229.965 312.976 230.297C313.278 230.6 313.641 230.837 314.04 230.992C314.439 231.147 314.867 231.217 315.295 231.197C316.141 231.185 316.956 230.878 317.6 230.328V232.3Z" fill="black"/>
<path d="M324.283 232.991C323.604 233.024 322.926 232.916 322.29 232.675C321.655 232.435 321.075 232.065 320.588 231.591C320.12 231.096 319.756 230.513 319.518 229.874C319.28 229.235 319.174 228.555 319.205 227.875C319.143 227.159 319.237 226.438 319.482 225.762C319.727 225.086 320.116 224.472 320.623 223.962C321.13 223.453 321.742 223.06 322.416 222.811C323.09 222.562 323.811 222.464 324.527 222.523C325.199 222.484 325.871 222.586 326.5 222.823C327.13 223.06 327.702 223.427 328.18 223.9C329.102 224.951 329.571 226.323 329.488 227.719C329.522 228.42 329.414 229.12 329.172 229.778C328.93 230.437 328.558 231.04 328.078 231.552C327.579 232.04 326.984 232.42 326.331 232.668C325.678 232.915 324.981 233.025 324.283 232.991ZM324.391 224.329C323.994 224.312 323.597 224.387 323.233 224.548C322.869 224.709 322.547 224.951 322.291 225.257C321.74 225.992 321.467 226.898 321.52 227.815C321.47 228.708 321.748 229.588 322.301 230.291C322.56 230.588 322.882 230.823 323.244 230.979C323.606 231.135 323.998 231.207 324.391 231.191C324.78 231.214 325.168 231.145 325.525 230.991C325.882 230.837 326.198 230.601 326.447 230.303C326.97 229.567 327.223 228.674 327.164 227.773C327.223 226.867 326.97 225.968 326.447 225.225C326.199 224.924 325.884 224.687 325.527 224.531C325.169 224.375 324.78 224.306 324.391 224.329Z" fill="black"/>
<path d="M340.7 232.757H338.435V227.122C338.435 225.255 337.774 224.322 336.452 224.322C336.127 224.315 335.805 224.381 335.509 224.516C335.213 224.65 334.951 224.85 334.743 225.099C334.283 225.646 334.043 226.343 334.069 227.057V232.757H331.794V222.757H334.069V224.417H334.108C334.418 223.83 334.886 223.341 335.459 223.005C336.032 222.67 336.687 222.501 337.351 222.517C337.82 222.488 338.289 222.568 338.721 222.752C339.154 222.936 339.537 223.219 339.841 223.577C340.471 224.469 340.774 225.55 340.7 226.639V232.757Z" fill="black"/>
<path d="M352.555 232.757H350.289V231.057H350.25C349.937 231.592 349.5 232.045 348.977 232.379C348.453 232.712 347.858 232.916 347.24 232.973C346.623 233.031 346 232.941 345.424 232.71C344.848 232.48 344.335 232.115 343.928 231.647C343.138 230.597 342.745 229.302 342.818 227.99C342.746 226.562 343.181 225.155 344.045 224.016C344.435 223.529 344.934 223.14 345.501 222.88C346.068 222.619 346.688 222.495 347.311 222.516C347.905 222.479 348.496 222.612 349.017 222.899C349.538 223.186 349.965 223.616 350.25 224.138H350.289V217.946H352.555V232.757ZM350.318 228.187V226.878C350.334 226.208 350.085 225.559 349.625 225.071C349.401 224.828 349.127 224.636 348.822 224.508C348.517 224.38 348.188 224.319 347.857 224.329C347.472 224.313 347.089 224.391 346.74 224.556C346.392 224.721 346.089 224.968 345.857 225.276C345.33 226.047 345.074 226.971 345.129 227.903C345.081 228.762 345.328 229.612 345.829 230.311C346.05 230.597 346.335 230.826 346.662 230.98C346.989 231.133 347.347 231.207 347.708 231.194C348.067 231.205 348.423 231.134 348.75 230.986C349.076 230.838 349.365 230.617 349.593 230.34C350.089 229.735 350.347 228.969 350.318 228.187Z" fill="black"/>
<path d="M354.889 232.444V230.344C355.687 230.971 356.673 231.312 357.689 231.311C359.057 231.311 359.74 230.907 359.74 230.1C359.746 229.892 359.684 229.688 359.564 229.519C359.435 229.349 359.274 229.204 359.092 229.094C358.871 228.959 358.636 228.848 358.392 228.762C358.12 228.664 357.818 228.553 357.487 228.43C357.107 228.281 356.737 228.108 356.38 227.912C356.076 227.749 355.799 227.54 355.56 227.292C355.342 227.066 355.172 226.799 355.06 226.506C354.944 226.177 354.888 225.829 354.894 225.48C354.886 225.032 355.004 224.59 355.236 224.206C355.47 223.833 355.783 223.516 356.154 223.278C356.556 223.019 356.999 222.828 357.463 222.712C357.957 222.584 358.465 222.52 358.976 222.521C359.821 222.507 360.663 222.65 361.457 222.941V224.924C360.743 224.439 359.897 224.186 359.035 224.201C358.774 224.198 358.513 224.227 358.26 224.289C358.051 224.338 357.851 224.421 357.668 224.533C357.515 224.629 357.385 224.757 357.287 224.909C357.196 225.054 357.149 225.222 357.15 225.393C357.144 225.584 357.192 225.773 357.287 225.939C357.389 226.102 357.528 226.239 357.693 226.339C357.896 226.465 358.112 226.57 358.338 226.651C358.588 226.746 358.877 226.851 359.201 226.959C359.631 227.135 360.017 227.314 360.359 227.496C360.677 227.661 360.971 227.87 361.232 228.116C361.47 228.342 361.66 228.614 361.789 228.916C361.927 229.258 361.993 229.626 361.984 229.995C361.995 230.462 361.873 230.922 361.633 231.323C361.396 231.703 361.075 232.024 360.695 232.261C360.278 232.519 359.821 232.705 359.344 232.813C358.813 232.935 358.27 232.995 357.726 232.993C356.752 233.015 355.784 232.828 354.889 232.444Z" fill="black"/>
<path d="M60.7401 89.9721C60.5563 89.9766 60.3733 89.9448 60.2017 89.8786C60.0301 89.8124 59.8733 89.713 59.7401 89.5861C59.6101 89.4702 59.5063 89.328 59.4356 89.1688C59.3649 89.0097 59.3289 88.8373 59.3301 88.6631C59.3285 88.4869 59.3642 88.3122 59.4349 88.1508C59.5056 87.9893 59.6096 87.8446 59.7401 87.7261C59.8726 87.5979 60.0292 87.4974 60.2009 87.4302C60.3726 87.3631 60.5559 87.3308 60.7401 87.3351C61.1159 87.3263 61.4799 87.4669 61.7521 87.7261C61.8836 87.844 61.9885 87.9886 62.0599 88.1501C62.1312 88.3116 62.1675 88.4865 62.1661 88.6631C62.167 88.8376 62.1305 89.0103 62.0591 89.1695C61.9877 89.3287 61.883 89.4707 61.7521 89.5861C61.4783 89.8423 61.115 89.9809 60.7401 89.9721Z" fill="black"/>
<path d="M76.7559 89.7569H74.2169L67.5269 79.4639C67.361 79.2078 67.2204 78.9362 67.1069 78.6529H67.0489C67.1182 79.2918 67.1442 79.9346 67.1269 80.5769V89.7569H64.8809V75.7569H67.5809L74.0509 85.7999C74.3235 86.2166 74.4992 86.5029 74.5779 86.6589H74.6169C74.5365 86.034 74.5031 85.4039 74.5169 84.7739V75.7529H76.7529L76.7559 89.7569Z" fill="black"/>
<path d="M88.0837 89.7571H80.2227V75.7571H87.7707V77.7301H82.5467V81.6901H87.3607V83.6531H82.5467V87.7941H88.0837V89.7571Z" fill="black"/>
<path d="M99.6558 77.7259H95.6328V89.7569H93.3088V77.7259H89.2998V75.7529H99.6558V77.7259Z" fill="black"/>
<path d="M39.6373 154.679V159.757H37.3223V145.757H41.5703C42.9114 145.672 44.2385 146.071 45.3113 146.88C45.7583 147.272 46.1102 147.761 46.3403 148.309C46.5704 148.857 46.6726 149.45 46.6393 150.044C46.66 150.668 46.5469 151.288 46.3077 151.864C46.0684 152.44 45.7086 152.959 45.2523 153.384C44.2198 154.29 42.874 154.757 41.5023 154.684L39.6373 154.679ZM39.6373 147.667V152.784H41.1373C41.9551 152.841 42.7653 152.595 43.4123 152.091C43.6782 151.843 43.886 151.539 44.021 151.202C44.156 150.864 44.2149 150.501 44.1933 150.138C44.1933 148.49 43.2363 147.666 41.3223 147.667H39.6373Z" fill="black"/>
<path d="M57.4197 149.757L52.9077 161.357C51.9703 163.428 50.6553 164.463 48.9627 164.463C48.5616 164.471 48.161 164.429 47.7707 164.336V162.451C48.0852 162.56 48.4148 162.62 48.7477 162.627C49.1534 162.634 49.552 162.519 49.891 162.296C50.23 162.073 50.4938 161.753 50.6477 161.377L51.3207 159.736L47.3467 149.756H49.8567L52.2387 157.021C52.2667 157.112 52.3247 157.353 52.4147 157.744H52.4637C52.4967 157.595 52.5557 157.36 52.6397 157.044L55.1397 149.759L57.4197 149.757Z" fill="black"/>
<path d="M64.246 159.649C63.6966 159.893 63.0984 160.006 62.498 159.981C60.5593 159.981 59.5893 159.05 59.588 157.188V151.534H57.918V149.757H59.588V147.442L61.854 146.798V149.757H64.246V151.534H61.854V156.534C61.8133 156.982 61.9269 157.43 62.176 157.804C62.3159 157.943 62.4848 158.049 62.6704 158.115C62.8561 158.18 63.0539 158.204 63.25 158.185C63.6118 158.194 63.9654 158.077 64.25 157.853L64.246 159.649Z" fill="black"/>
<path d="M75.0862 159.757H72.8202V154.288C72.8202 152.309 72.1595 151.319 70.8382 151.319C70.5101 151.319 70.1868 151.397 69.8947 151.547C69.6027 151.696 69.3502 151.913 69.1582 152.179C68.6833 152.811 68.4419 153.589 68.4752 154.379V159.76H66.2002V144.952H68.4762V151.417H68.5152C68.8263 150.831 69.2943 150.343 69.8668 150.007C70.4393 149.672 71.0938 149.502 71.7572 149.517C73.9785 149.517 75.0885 150.875 75.0872 153.59L75.0862 159.757Z" fill="black"/>
<path d="M82.2735 159.991C81.5945 160.024 80.916 159.916 80.2803 159.676C79.6446 159.435 79.0653 159.066 78.5785 158.591C78.1097 158.097 77.7456 157.513 77.5079 156.874C77.2703 156.236 77.164 155.556 77.1955 154.875C77.133 154.159 77.2275 153.438 77.4725 152.762C77.7175 152.086 78.107 151.472 78.6139 150.963C79.1208 150.453 79.7327 150.06 80.4071 149.812C81.0815 149.563 81.8021 149.464 82.5185 149.523C83.1897 149.484 83.8616 149.586 84.4907 149.824C85.1199 150.061 85.6921 150.428 86.1705 150.9C87.0918 151.951 87.5621 153.323 87.4795 154.719C87.5126 155.42 87.4048 156.12 87.1624 156.779C86.92 157.437 86.5481 158.04 86.0685 158.552C85.5691 159.04 84.9743 159.42 84.3212 159.668C83.6682 159.915 82.971 160.026 82.2735 159.991ZM82.3815 151.329C81.9837 151.312 81.5873 151.387 81.2231 151.548C80.8589 151.709 80.5367 151.951 80.2815 152.257C79.7306 152.992 79.4575 153.898 79.5105 154.815C79.46 155.708 79.7378 156.589 80.2915 157.291C80.5499 157.588 80.872 157.824 81.2338 157.979C81.5956 158.135 81.9879 158.208 82.3815 158.191C82.7698 158.214 83.1581 158.145 83.5153 157.991C83.8725 157.837 84.1886 157.601 84.4385 157.303C84.9599 156.567 85.2126 155.673 85.1545 154.773C85.2125 153.867 84.9599 152.968 84.4385 152.225C84.1901 151.925 83.8744 151.687 83.517 151.531C83.1597 151.376 82.7706 151.306 82.3815 151.329Z" fill="black"/>
<path d="M98.6892 159.757H96.4242V154.122C96.4242 152.255 95.7632 151.322 94.4412 151.322C94.1163 151.315 93.794 151.381 93.4982 151.516C93.2023 151.65 92.9405 151.85 92.7322 152.099C92.2728 152.646 92.033 153.344 92.0592 154.057V159.757H89.7832V149.757H92.0592V151.417H92.1002C92.4102 150.83 92.8779 150.341 93.4506 150.005C94.0234 149.67 94.6785 149.501 95.3422 149.517C95.8111 149.488 96.2804 149.568 96.7127 149.752C97.145 149.936 97.5283 150.219 97.8322 150.577C98.4618 151.469 98.7651 152.55 98.6912 153.639L98.6892 159.757Z" fill="black"/>
<path d="M54.6661 229.2V226.808C54.8989 227.015 55.1569 227.192 55.4341 227.335C55.7357 227.494 56.0506 227.626 56.3751 227.73C56.7021 227.837 57.0363 227.92 57.3751 227.979C57.678 228.035 57.9852 228.064 58.2931 228.067C59.0531 228.119 59.8119 227.95 60.4771 227.579C60.7089 227.425 60.8967 227.214 61.0222 226.966C61.1477 226.717 61.2066 226.441 61.1931 226.163C61.2003 225.858 61.1175 225.557 60.9551 225.299C60.7761 225.036 60.5488 224.809 60.2851 224.63C59.9655 224.408 59.6276 224.214 59.2751 224.049C58.8871 223.863 58.4751 223.67 58.0291 223.468C57.5551 223.214 57.1111 222.957 56.7011 222.696C56.3118 222.452 55.9532 222.162 55.6331 221.832C55.3331 221.521 55.0916 221.159 54.9201 220.763C54.7374 220.319 54.6489 219.843 54.6601 219.363C54.6457 218.761 54.8002 218.167 55.1061 217.649C55.4 217.165 55.8005 216.755 56.2771 216.449C56.7858 216.125 57.3452 215.888 57.9321 215.749C58.5518 215.596 59.1878 215.519 59.8261 215.52C60.9163 215.456 62.0074 215.627 63.0261 216.02V218.32C62.1221 217.713 61.0477 217.412 59.9601 217.46C59.6147 217.46 59.2702 217.494 58.9311 217.56C58.61 217.618 58.3001 217.726 58.0131 217.882C57.7526 218.022 57.527 218.219 57.3531 218.458C57.1801 218.707 57.0911 219.005 57.0991 219.308C57.0938 219.591 57.1627 219.87 57.2991 220.118C57.4448 220.363 57.6395 220.576 57.8711 220.743C58.1595 220.955 58.4668 221.14 58.7891 221.295C59.1511 221.474 59.5691 221.667 60.0431 221.876C60.5311 222.13 60.9921 222.397 61.4261 222.676C61.8403 222.942 62.2234 223.253 62.5681 223.604C62.8899 223.934 63.1542 224.315 63.3501 224.732C63.5477 225.176 63.6457 225.657 63.6371 226.143C63.6582 226.771 63.5097 227.392 63.2071 227.943C62.9242 228.428 62.5275 228.837 62.0511 229.134C61.5357 229.452 60.9684 229.677 60.3751 229.798C59.7177 229.937 59.0472 230.006 58.3751 230.003C58.0868 230 57.7987 229.982 57.5121 229.95C57.1701 229.913 56.8201 229.862 56.4611 229.793C56.1185 229.728 55.7797 229.645 55.4461 229.544C55.1719 229.465 54.9095 229.349 54.6661 229.2Z" fill="black"/>
<path d="M73.0998 229.3C72.2307 229.779 71.2498 230.018 70.2578 229.993C69.5952 230.021 68.934 229.912 68.3155 229.673C67.6971 229.433 67.1348 229.069 66.6638 228.602C66.2052 228.123 65.8479 227.557 65.613 226.937C65.3782 226.316 65.2706 225.655 65.2968 224.993C65.2633 224.266 65.3762 223.541 65.6287 222.859C65.8812 222.177 66.2682 221.552 66.7668 221.023C67.2832 220.516 67.8988 220.121 68.5751 219.862C69.2514 219.604 69.9737 219.489 70.6968 219.523C71.526 219.506 72.3489 219.67 73.1088 220.002V222.111C72.4736 221.611 71.6908 221.337 70.8828 221.33C70.4439 221.316 70.0072 221.395 69.6013 221.563C69.1955 221.731 68.8299 221.982 68.5288 222.302C67.8996 222.996 67.5698 223.91 67.6108 224.846C67.5866 225.291 67.6505 225.737 67.799 226.158C67.9474 226.578 68.1774 226.965 68.4758 227.297C68.7781 227.6 69.1406 227.837 69.54 227.992C69.9394 228.147 70.3668 228.217 70.7948 228.197C71.6392 228.184 72.4526 227.877 73.0948 227.328L73.0998 229.3Z" fill="black"/>
<path d="M83.0252 229.757H80.8252V228.194H80.7862C80.5024 228.751 80.0663 229.216 79.5286 229.534C78.991 229.853 78.3739 230.012 77.7492 229.994C76.904 230.043 76.0737 229.756 75.4402 229.194C75.1601 228.919 74.941 228.588 74.7969 228.223C74.6529 227.858 74.5872 227.467 74.6042 227.075C74.6042 225.188 75.6915 224.088 77.8662 223.775L80.8352 223.355C80.8352 221.929 80.1582 221.216 78.8042 221.216C77.615 221.215 76.4673 221.653 75.5812 222.446V220.46C76.6904 219.821 77.9531 219.496 79.2332 219.522C81.7612 219.522 83.0242 220.766 83.0222 223.253L83.0252 229.757ZM80.8382 224.845L78.7382 225.138C78.2186 225.178 77.7157 225.34 77.2702 225.611C77.0932 225.757 76.9553 225.944 76.8689 226.156C76.7825 226.369 76.7503 226.599 76.7752 226.827C76.7699 227.023 76.8079 227.218 76.8865 227.398C76.9652 227.577 77.0825 227.738 77.2302 227.867C77.5696 228.15 78.0036 228.295 78.4452 228.272C78.7664 228.281 79.0858 228.22 79.3817 228.095C79.6776 227.969 79.9431 227.782 80.1602 227.545C80.6168 227.047 80.8601 226.389 80.8382 225.714V224.845Z" fill="black"/>
<path d="M88.0641 229.757H85.7891V214.952H88.0641V229.757Z" fill="black"/>
<path d="M98.6892 229.757H96.4892V228.194H96.4502C96.1664 228.751 95.7303 229.216 95.1927 229.534C94.655 229.853 94.0379 230.012 93.4132 229.994C92.568 230.043 91.7378 229.756 91.1042 229.194C90.8242 228.919 90.605 228.588 90.461 228.223C90.317 227.858 90.2513 227.467 90.2682 227.075C90.2682 225.188 91.3556 224.088 93.5302 223.775L96.4992 223.355C96.4992 221.929 95.8222 221.216 94.4682 221.216C93.2791 221.215 92.1313 221.653 91.2452 222.446V220.46C92.3545 219.821 93.6172 219.496 94.8972 219.522C97.4252 219.522 98.6882 220.766 98.6862 223.253L98.6892 229.757ZM96.5002 224.845L94.4002 225.138C93.8806 225.178 93.3778 225.34 92.9322 225.611C92.7546 225.756 92.6159 225.943 92.5286 226.156C92.4413 226.368 92.4082 226.599 92.4322 226.827C92.4269 227.023 92.465 227.218 92.5439 227.398C92.6227 227.578 92.7403 227.738 92.8882 227.867C93.2273 228.15 93.6609 228.295 94.1022 228.272C94.4235 228.281 94.7429 228.22 95.0388 228.095C95.3347 227.969 95.6001 227.782 95.8172 227.545C96.2738 227.047 96.5172 226.389 96.4952 225.714L96.5002 224.845Z" fill="black"/>
</svg>
