<svg xmlns="http://www.w3.org/2000/svg" viewBox="0 0 636 300"><title>swimlane-machine-learning-pipeline</title><path d="M568.536,285.857H50.83a4.627,4.627,0,0,1-4.525-4.5,4.526,4.526,0,0,1,4.525-4.5H568.536a4.432,4.432,0,0,1,4.525,4.5,4.525,4.525,0,0,1-4.525,4.5Z" fill="#b2b2b2"/><path d="M505.327,133.455a16.11,16.11,0,1,0,16.437-15.776,16.112,16.112,0,0,0-16.437,15.776" fill="#69afe5"/><path d="M524.522,180.088l.448-21.887a.955.955,0,0,0-.935-.974l-1-.02.106-5.172a18.336,18.336,0,1,0-4.153-.085l-.107,5.171-1-.02a.954.954,0,0,0-.974.935l-.449,21.886a.953.953,0,0,0,.935.974l6.159.128a.957.957,0,0,0,.975-.936m-17.581-46.6a14.5,14.5,0,1,1,14.2,14.791,14.495,14.495,0,0,1-14.2-14.791" fill="#666"/><path d="M523.028,128.335a3.809,3.809,0,1,0,3.887-3.731,3.81,3.81,0,0,0-3.887,3.731" fill="#fff"/><path d="M517.876,157.1l3.08.063-.439,21.344a.4.4,0,0,0,.395.412l3.633.075-.024,1.157a.893.893,0,0,1-.91.873l-6.288-.13a.891.891,0,0,1-.872-.908l.45-21.951a.956.956,0,0,1,.975-.935" fill="#3c3c3c"/><path d="M372.218,118.205s-2.788-16.846-5-27.556S357,78.857,353.17,78.857h-.465c-3.833,0-11.847,1.083-14.053,11.792s-5,27.556-5,27.556l14.353.207-.067.515Z" fill="#282828"/><path d="M368.561,219.781a5.67,5.67,0,0,0-11.311-.776l-2.98,52.006c0,1.715,6.286,2.338,6.442.467Z" fill="#bb9167"/><path d="M335.185,219.781a5.7,5.7,0,0,1,5.18-5.932,5.553,5.553,0,0,1,6.131,5.156l2.98,52.006c-.156,1.715-6.286,2.338-6.443.467Z" fill="#bb9167"/><path d="M349.476,219.939l.625,48.891h-9.423l-7.537-47.957-.312-49.813,19.784-4.845C357.806,181.2,349.32,202.756,349.476,219.939Z" fill="#002050"/><polygon points="353.407 268.83 362.518 268.83 371.161 219.781 370.367 166.215 352.144 166.215 354.813 220.092 353.407 268.83" fill="#002050"/><path d="M350.1,274.452l.156,4.688c-.156,1.247-1.08,1.635-2.668,1.87-6.727,1-19.855,1.1-19.855,1.1-2.6.025-2.328-1.907-.917-2.353a63.28,63.28,0,0,0,6.441-2.205C337.667,277.3,350.1,274.452,350.1,274.452Z" fill="#252829"/><path d="M349.476,270.7c0,1.4.625,3.129.468,3.752,0,1.247-14.63,3.593-14.63,3.593-1.165.2-2.932-.209-1.982-.521,4.087-1.4,9.858-5.266,9.545-6.824Z" fill="#bb9167"/><path d="M353.66,274.452l-.156,4.688c.156,1.247,1.08,1.635,2.668,1.87,6.727,1,19.855,1.1,19.855,1.1,2.6.025,2.329-1.907.917-2.353a63.28,63.28,0,0,1-6.441-2.205C366.094,277.3,353.66,274.452,353.66,274.452Z" fill="#252829"/><path d="M354.285,270.7c0,1.4-.625,3.129-.468,3.752,0,1.247,14.63,3.593,14.63,3.593,1.165.2,2.932-.209,1.982-.521-4.087-1.4-9.858-5.266-9.545-6.824Z" fill="#bb9167"/><path d="M357.862,107.255c0,1.722.394,8.607.394,8.607,2.041.374,5.2,1.041,5.2,1.041,10.059,3.081.636,12.032-11.971,11.684-13.124-.363-12.733-11.469-11.986-11.6-.426.077,6.585-1.21,6.585-1.21.312-2.119.629-8.671.629-8.671Z" fill="#bb9167"/><path d="M339.687,93.608h0a1.53,1.53,0,0,0-1.53,1.53V97.7a2.638,2.638,0,0,0,2.638,2.638h.421v-5.2A1.53,1.53,0,0,0,339.687,93.608Z" fill="#ab845f"/><path d="M353.287,82.175h-1.452a10.994,10.994,0,0,0-10.962,10.962v6.976a10.994,10.994,0,0,0,7.378,10.344l9.436-.316a11,11,0,0,0,6.562-10.028V93.137A10.994,10.994,0,0,0,353.287,82.175Z" fill="#bb9167"/><path d="M348.25,110.457l-.03.769h0l.4,2.618c.8,2.127,6.055,5.974,13.256,8.761l2.665-5.614s-4.358-.786-6.289-1.129c-.143-2.877-.292-5.846-.3-5.844a10.526,10.526,0,0,0,6.277-9.68h.09a2.638,2.638,0,0,0,2.638-2.638V95.138a1.524,1.524,0,0,0-2.716-.955V93.137c0-.37-.02-.735-.056-1.1a1.458,1.458,0,0,0-.287-.392l-9.094-6.9-.965,3.012a12.482,12.482,0,0,0,4.855,6.394,10.113,10.113,0,0,0-2.382.48l-.4.133a1.734,1.734,0,0,0-1.181,1.733l.225,4.354c.042.827-.457.962-1.168.959a.765.765,0,0,0-.748.912l.525,2.692-.66.73a5.078,5.078,0,0,0-1.081,4.926h0A10.851,10.851,0,0,1,348.25,110.457Z" fill="#ab845f"/><circle cx="346.575" cy="96.973" r="1.126" fill="#282828"/><circle cx="358.259" cy="96.973" r="1.126" fill="#282828"/><path d="M348.424,103.5a4.469,4.469,0,0,0,8.168,0Z" fill="#fff"/><path d="M361.022,95.839a.55.55,0,0,1-.418-.193h0a3.7,3.7,0,0,0-4.829-.507.549.549,0,1,1-.56-.944,4.829,4.829,0,0,1,6.227.739.55.55,0,0,1-.42.905Z" fill="#282828"/><path d="M349.059,95.839a.55.55,0,0,1-.418-.193h0a3.7,3.7,0,0,0-4.829-.507.549.549,0,1,1-.56-.944,4.83,4.83,0,0,1,6.227.739.55.55,0,0,1-.42.905Z" fill="#282828"/><path d="M372.375,118.357a52.015,52.015,0,0,1-8-1.547s-2.195,11.408-12.046,11.541c-9.852-.133-12.079-11.494-12.079-11.494s-3.625.5-7,1.05-5.1,1.921-6.332,5.7-6.5,18.75-6.5,18.75l11.083,3.25,1.282,35.672.429.047-.013.11s14.677,1.671,19.115,1.671c5,0,17.952-1.529,19.061-1.661l.064,0v-.012l.021,0-.012-.105v-.01c.035-.025.115-1.043.219-2.8l3.521-44.911C375.257,132.855,375.983,118.521,372.375,118.357Z" fill="#0078d7"/><path d="M353.519,80.052a11.966,11.966,0,0,0-12.6,11.7c-.009.423-.01.864-.017,1.294h5.762c.87-2.156,4-8.866,4-8.866v8.866H364.8l.05-.637A11.969,11.969,0,0,0,353.519,80.052Z" fill="#282828"/><path d="M285.151,138.875h-57.19a1.892,1.892,0,0,0-1.892,1.892V177.16h60.975V140.767c0-1.045-.444-1.892-1.489-1.892" fill="#1070c4"/><rect x="229.044" y="141.874" width="55" height="32.9" fill="#edac28"/><path d="M294.012,180.774l-75.633-.141a2.334,2.334,0,0,1-2.335-2.335v-1.524h81V178.3a2.832,2.832,0,0,1-3,2.476Z" fill="#09538f"/><path d="M247.212,158.4l-13.2-4.334a13.615,13.615,0,0,1,13.2-9.532Z" fill="#fff"/><path d="M247.212,158.4l-8.175,11.2a13.19,13.19,0,0,1-5.028-6.936Z" fill="#b2b2b2"/><path d="M247.212,158.4l13.138,4.267a13.947,13.947,0,0,1-17.49,8.934,12.34,12.34,0,0,1-3.823-2Z" fill="#09538f"/><path d="M247.212,158.4V144.538A13.821,13.821,0,0,1,261.019,158.4a13.266,13.266,0,0,1-.669,4.267Z" fill="#1070c4"/><polygon points="284.044 157.538 284.044 141.774 268.279 141.774 284.044 157.538" fill="#fec94e"/><path d="M256.9,140.376a.646.646,0,1,1-.646-.645.646.646,0,0,1,.646.645" fill="#09538f"/><path d="M278.062,152.076h-.307l1,1a.729.729,0,0,0,.049-.257.744.744,0,0,0-.743-.744" fill="#edac28"/><rect x="265.044" y="168.774" width="14" height="2" fill="#c58d1f"/><rect x="265.044" y="164.774" width="14" height="2" fill="#c58d1f"/><rect x="265.044" y="160.774" width="14" height="2" fill="#c58d1f"/><rect x="265.044" y="156.774" width="14" height="2" fill="#c58d1f"/><rect x="265.044" y="152.774" width="14" height="2" fill="#c58d1f"/><rect x="265.044" y="148.774" width="14" height="2" fill="#c58d1f"/><rect x="265.044" y="144.774" width="14" height="2" fill="#c58d1f"/><polygon points="277.279 150.774 279.044 150.774 279.044 148.774 275.279 148.774 277.279 150.774" fill="#edac28"/><polygon points="273.279 146.774 279.044 146.774 279.044 144.774 271.279 144.774 273.279 146.774" fill="#edac28"/><path d="M359.1,189.76l-2.278-6.162-10.856,3.674c1.04,2.842,2.239,6.114,2.364,6.446a5.737,5.737,0,1,0,10.77-3.958Z" fill="#e0bb8d"/><polygon points="141.112 82.256 141.112 280.946 147.777 280.946 147.777 232.388 159.416 232.388 159.416 280.946 166.177 280.946 166.177 82.256 141.112 82.256" fill="#4d4d4d"/><rect x="146.306" y="91.771" width="15.276" height="123.653"/><polygon points="564.876 204.485 144.325 203.938 144.34 199.011 564.891 199.559 564.876 204.485" fill="#505050"/><path d="M567.829,199.622l-429.618-.629a8.622,8.622,0,1,1,.052-17.243l429.617.629a8.622,8.622,0,1,1-.051,17.243Z" fill="#a7a9ac"/><path d="M567.829,199.622l-429.618-.629a8.622,8.622,0,1,1,.052-17.243l429.617.629a8.622,8.622,0,1,1-.051,17.243Z" fill="none" stroke="#6d6e71" stroke-miterlimit="10" stroke-width="3"/><polygon points="196.852 281.642 193.773 281.632 193.812 203.781 196.891 203.791 196.852 281.642" fill="#505050"/><polygon points="312.692 281.795 309.613 281.785 309.652 203.935 312.731 203.944 312.692 281.795" fill="#505050"/><polygon points="428.531 281.948 425.452 281.938 425.492 204.088 428.571 204.098 428.531 281.948" fill="#505050"/><polygon points="544.371 282.101 541.292 282.092 541.332 204.241 544.411 204.251 544.371 282.101" fill="#505050"/><path d="M91.13,191.546v-2.284a.462.462,0,0,0-.131-.323.443.443,0,0,0-.315-.133l-1.229,0a2.389,2.389,0,0,0-.113-.269,5.414,5.414,0,0,0-.342-.794l.879-.879a.464.464,0,0,0,.007-.645L88.5,184.774a.456.456,0,0,0-.652-.007l-.857.858a4.275,4.275,0,0,0-1.149-.5l.011-1.191a.429.429,0,0,0-.407-.452l-1.8-.019a.454.454,0,0,0-.46.451l-.013,1.225a4.6,4.6,0,0,0-1.061.464l-.748-.832a.456.456,0,0,0-.671-.007l-1.273,1.355a.473.473,0,0,0-.124.315.467.467,0,0,0,.118.318l.784.871,0,.006-.013-.014,0,.01a4.776,4.776,0,0,0-.256.562h0a4.68,4.68,0,0,0-.181.588l-1.288,0a.526.526,0,0,0-.595.521l-.02,2.195a.449.449,0,0,0,.126.316l.02.017a.436.436,0,0,0,.318.136H79.5a11,11,0,0,0,.494,1.142l-.861.869a.447.447,0,0,0,0,.63l1.39,1.4a.457.457,0,0,0,.647,0l.84-.847a4.287,4.287,0,0,0,1.144.476l0,1.215a.441.441,0,0,0,.441.445l1.767,0a.441.441,0,0,0,.441-.441v-1.218a5.3,5.3,0,0,0,1.143-.471l.869.86a.446.446,0,0,0,.629,0l1.411-1.4a.437.437,0,0,0,0-.624l-.729-1.114a1.759,1.759,0,0,0,.147-.291,4.6,4.6,0,0,0,.2-.587h1.214a.448.448,0,0,0,.314-.129A.435.435,0,0,0,91.13,191.546Z" fill="#fff"/><circle cx="84.566" cy="190.11" r="2.306" fill="#75beff"/><path d="M574.064,192.172v-2.284a.458.458,0,0,0-.131-.322.439.439,0,0,0-.315-.133l-1.229,0a2.7,2.7,0,0,0-.113-.269,5.512,5.512,0,0,0-.342-.793l.879-.88a.464.464,0,0,0,.007-.645l-1.387-1.448a.458.458,0,0,0-.652-.007l-.858.858a4.319,4.319,0,0,0-1.148-.5l.011-1.191a.43.43,0,0,0-.407-.452l-1.8-.019a.457.457,0,0,0-.461.451l-.012,1.225a4.684,4.684,0,0,0-1.061.464l-.748-.832a.456.456,0,0,0-.671-.007l-1.273,1.355a.474.474,0,0,0-.006.633l.784.872,0,.006-.013-.015,0,.01a5.034,5.034,0,0,0-.257.562h0a5.02,5.02,0,0,0-.181.587l-1.288,0a.528.528,0,0,0-.595.522l-.019,2.194a.443.443,0,0,0,.126.316.163.163,0,0,0,.02.017.43.43,0,0,0,.317.137l1.193,0a10.937,10.937,0,0,0,.5,1.143l-.862.868a.449.449,0,0,0,0,.631l1.39,1.4a.456.456,0,0,0,.647,0l.84-.847a4.267,4.267,0,0,0,1.143.476l0,1.216a.441.441,0,0,0,.442.444l1.767,0a.442.442,0,0,0,.441-.442v-1.218a5.241,5.241,0,0,0,1.143-.47l.869.86a.447.447,0,0,0,.629,0l1.411-1.4a.435.435,0,0,0,.13-.313.441.441,0,0,0-.13-.312l-.729-1.114a1.68,1.68,0,0,0,.146-.29,4.511,4.511,0,0,0,.2-.588h1.213a.446.446,0,0,0,.315-.129A.434.434,0,0,0,574.064,192.172Z" fill="#fff"/><circle cx="567.499" cy="190.736" r="2.306" fill="#75beff"/><circle cx="138.643" cy="190.362" r="4.077" fill="#737373"/><circle cx="177.617" cy="190.419" r="4.077" fill="#737373"/><circle cx="216.591" cy="190.476" r="4.077" fill="#737373"/><circle cx="255.565" cy="190.532" r="4.077" fill="#737373"/><circle cx="294.539" cy="190.589" r="4.077" fill="#737373"/><circle cx="333.513" cy="190.646" r="4.077" fill="#737373"/><circle cx="372.488" cy="190.703" r="4.077" fill="#737373"/><circle cx="411.462" cy="190.76" r="4.077" fill="#737373"/><circle cx="450.436" cy="190.817" r="4.077" fill="#737373"/><circle cx="489.41" cy="190.874" r="4.077" fill="#737373"/><circle cx="528.384" cy="190.931" r="4.077" fill="#737373"/><circle cx="567.359" cy="190.987" r="4.077" fill="#737373"/><polygon points="59.769 82.256 59.769 280.946 68.857 280.946 68.857 232.388 131.087 232.388 131.087 280.946 141.112 280.946 141.112 82.256 59.769 82.256" fill="#999"/><rect x="68.857" y="91.771" width="60.454" height="16.752" fill="#ccc"/><polygon points="72.15 93.738 129.311 93.738 129.311 91.771 68.857 91.771 68.857 108.523 72.15 108.523 72.15 93.738" fill="#4d4d4d"/><rect x="68.857" y="114.591" width="28.406" height="18.166" fill="#ccc"/><rect x="106.645" y="114.227" width="22.666" height="0.728" fill="#fff"/><rect x="106.645" y="117.14" width="22.666" height="0.728" fill="#fff"/><rect x="106.645" y="120.054" width="22.666" height="0.728" fill="#fff"/><rect x="106.645" y="122.967" width="22.666" height="0.728" fill="#fff"/><rect x="106.645" y="125.88" width="22.666" height="0.728" fill="#fff"/><rect x="106.645" y="128.794" width="22.666" height="0.728" fill="#fff"/><rect x="106.645" y="131.707" width="22.666" height="0.728" fill="#fff"/><path d="M91.292,139.719H89.107c-.3,0-.372,4.69,0,4.69h2.185a2.345,2.345,0,0,0,0-4.69Z" fill="#4d4d4d"/><circle cx="89.107" cy="142.064" r="2.345" fill="#ccc"/><path d="M100.032,139.719H97.847c-.3,0-.371,4.69,0,4.69h2.185a2.345,2.345,0,1,0,0-4.69Z" fill="#4d4d4d"/><circle cx="97.847" cy="142.064" r="2.345" fill="#ccc"/><path d="M108.773,139.719h-2.185c-.3,0-.372,4.69,0,4.69h2.185a2.345,2.345,0,0,0,0-4.69Z" fill="#4d4d4d"/><circle cx="106.588" cy="142.064" r="2.345" fill="#ccc"/><rect x="141.112" y="82.256" width="5.193" height="198.69" fill="#4d4d4d"/><path d="M193.137,163.633a8.362,8.362,0,0,0-3.207.636c0-.1.007-.208.007-.312a16.444,16.444,0,0,0-32.358-4.138,12.48,12.48,0,0,0-9.551-4.435,12.608,12.608,0,0,0-2.23.209v24.6a12.514,12.514,0,0,0,2.23.21h45.109a8.383,8.383,0,1,0,0-16.766Z" fill="#69afe5"/><rect x="427.224" y="164.228" width="12.01" height="16.629" fill="#ffb900"/><rect x="443.852" y="146.676" width="12.01" height="34.181" fill="#ffb900"/><rect x="460.481" y="131.895" width="12.01" height="48.962" fill="#ffb900"/><path d="M466.437,161.379a3.2,3.2,0,0,0-2.113.806L453,154.464a3.178,3.178,0,0,0,.2-1.084,3.234,3.234,0,0,0-6.467,0c0,.07.017.135.022.2l-10.211,3.37a3.227,3.227,0,1,0,.522,1.753c0-.069-.017-.134-.021-.2l10.211-3.37a3.2,3.2,0,0,0,4.825.674l11.321,7.723a3.226,3.226,0,1,0,3.034-2.152" fill="#e26c41"/><path d="M342,155.357l-15.5,1.833,3.524-11.92-9.184-2.922c-2.134,6.408-5.024,15.065-5.423,16.175-1.5,4.167.666,9.334,8,7.667s21.416-4.583,21.416-4.583Z" fill="#bb9167"/><polygon points="320.875 142.503 330.104 145.128 329.5 147.315 320.292 144.586 320.875 142.503" fill="#ab845f"/><path d="M347.382,152.878l1.833-.552a1.55,1.55,0,0,0,1.1-1.662l-.024-.212-3.751.431Z" fill="#bb9167"/><path d="M396.965,143.744c.035,1.113-.5,4.858-.5,4.858a25.491,25.491,0,1,1,.5-5.013" fill="#fec94e"/><path d="M385.589,143.525a14.058,14.058,0,1,0-23.82,10.112,12.894,12.894,0,0,1,3.854,9.295v.254h11.816v-.253a13.394,13.394,0,0,1,4.023-9.462,14.007,14.007,0,0,0,4.127-9.946" fill="#edac28"/><path d="M369.687,146.509l-.036-1.1h0l-.086-2.531a2.694,2.694,0,1,0-5.388,0v.112a2.685,2.685,0,0,0,1.659,2.487l.071.03a14.614,14.614,0,0,0,2.689.823l.7,20.348,1.086-.037-.691-20.13Zm-3.365-2.007-.071-.03a1.6,1.6,0,0,1-.99-1.484v-.112a1.607,1.607,0,1,1,3.214.018l.079,2.315a13.485,13.485,0,0,1-2.232-.707" fill="#fff"/><path d="M376.239,140.181h-.045a2.694,2.694,0,0,0-2.694,2.676l-.086,2.559a13.752,13.752,0,0,1-2.98.076l.053,1.093a14.909,14.909,0,0,0,2.888-.069l-.689,20.122,1.086.038.7-20.335.039-1.118.081-2.348a1.608,1.608,0,0,1,1.606-1.607h.045a1.609,1.609,0,0,1,1.608,1.607V143a1.606,1.606,0,0,1-.983,1.482,13.747,13.747,0,0,1-1.44.508l-.048,1.142a14.6,14.6,0,0,0,1.909-.649A2.689,2.689,0,0,0,378.933,143v-.12a2.7,2.7,0,0,0-2.694-2.694" fill="#fff"/><path d="M365.623,162.933v6.7a1.759,1.759,0,0,0,1.76,1.76H369.8v1.542h3.6V171.39h2.415a1.76,1.76,0,0,0,1.761-1.76v-6.7Z" fill="#a6a6a6"/><rect x="365.622" y="164.834" width="9.418" height="1.341" fill="#d2d2d2"/><rect x="365.622" y="167.822" width="9.418" height="1.341" fill="#d2d2d2"/><path d="M355.332,153.088l-.407.4,1.956-2.5a1.862,1.862,0,0,0-2.612-.011L352.7,152.5l-1.15.348-4.542,1.124.108-1.016.492-.148-.647-1.975-.544.063a2.445,2.445,0,0,0-1.8,1.144l-1.351,2.181a2.308,2.308,0,0,1-1.41,1.026l-3.132.775,1.5,6.214,9.841-.839a4.012,4.012,0,0,0,3.35-2.422l.836-1.958,1.442-1.034,2.255-2.883A1.862,1.862,0,0,0,355.332,153.088Z" fill="#bb9167"/><path d="M395.329,153.046l-.583.39s-2.424-1.031-3.236-1.344-1.361.8-1.361.8-1.441-.264-1.707.556c-.412,1.27.935,2.05.935,2.05s-1.023,1.088-.374,1.853a6.373,6.373,0,0,0,1.49.892s-.649,1.144.108,1.83,3.3,1.274,4.131,1.43a1.266,1.266,0,0,0,1.554-.817,1.468,1.468,0,0,0,1.305-1.38c.022-.661,1.7-.51,1.555-1.773-.087-.756.824-1.036.7-1.805-.2-1.223-3.91-4.5-3.91-4.5Z" fill="#bb9167"/></svg>