<svg width="636" height="300" viewBox="0 0 636 300" fill="none" xmlns="http://www.w3.org/2000/svg">
<path d="M258 176.33V284.67" stroke="#939393" stroke-width="1.5" stroke-miterlimit="10" stroke-dasharray="2.56 2.56"/>
<path d="M330.83 103.83V276.17" stroke="#939393" stroke-width="1.5" stroke-miterlimit="10" stroke-dasharray="2.56 2.56"/>
<path d="M292.56 81.75H269.98C268.22 81.75 266.79 83.18 266.79 84.94V130.55C266.79 132.31 268.22 133.74 269.98 133.74H304.69C306.45 133.74 307.88 132.32 307.88 130.56L307.98 97.21C307.98 96.61 307.75 96.04 307.32 95.61L294.14 82.4C293.73 81.99 293.15 81.75 292.56 81.75Z" fill="#D2D2D2"/>
<path d="M307.33 95.6301L294.15 82.4201C293.88 82.1401 293.53 81.9601 293.17 81.8501V95.5901C293.17 96.1901 293.66 96.6801 294.26 96.6801H307.92C307.82 96.2801 307.62 95.9201 307.33 95.6301Z" fill="#B2B2B2"/>
<path d="M298.48 101.52H275.78C275.45 101.52 275.18 101.25 275.18 100.92V99.6C275.18 99.27 275.45 99 275.78 99H298.48C298.81 99 299.08 99.27 299.08 99.6V100.92C299.07 101.25 298.81 101.52 298.48 101.52Z" fill="white"/>
<path d="M298.48 107.39H275.78C275.45 107.39 275.18 107.12 275.18 106.79V105.47C275.18 105.14 275.45 104.87 275.78 104.87H298.48C298.81 104.87 299.08 105.14 299.08 105.47V106.79C299.07 107.12 298.81 107.39 298.48 107.39Z" fill="white"/>
<path d="M298.48 113.26H275.78C275.45 113.26 275.18 112.99 275.18 112.66V111.34C275.18 111.01 275.45 110.74 275.78 110.74H298.48C298.81 110.74 299.08 111.01 299.08 111.34V112.66C299.07 112.99 298.81 113.26 298.48 113.26Z" fill="white"/>
<path d="M302.71 116.56V127.98C302.71 128.23 302.51 128.44 302.25 128.44H273.47C273.08 128.44 272.87 127.98 273.12 127.68L279.4 120.44C279.52 120.3 279.71 120.25 279.88 120.3L286.88 122.46C287.03 122.51 287.19 122.47 287.31 122.37L293.38 117.3C293.52 117.18 293.72 117.16 293.89 117.25L297.19 119C297.34 119.08 297.51 119.07 297.65 118.98L301.99 116.17C302.3 115.97 302.71 116.19 302.71 116.56Z" fill="#B2B2B2"/>
<path d="M407.62 110.04C409.97 112.39 411.14 114.74 411.14 114.74C411.73 115.91 411.14 117.09 409.97 117.68L398.82 120.03C397.65 120.62 396.47 119.44 397.06 118.27L399.41 107.11C400 105.94 401.17 105.35 402.34 105.94C402.93 105.92 405.86 107.69 407.62 110.04ZM397.64 106.51L391.77 115.91C391.18 117.08 390.01 117.08 388.84 115.91L382.97 106.51C382.38 105.34 382.38 104.16 384.14 103.57C384.14 103.57 387.07 102.98 390.01 102.98C392.94 102.98 395.88 103.57 395.88 103.57C398.23 104.16 398.23 105.34 397.64 106.51ZM373.58 110.04C375.34 107.69 378.28 106.52 378.28 106.52C379.45 105.93 380.63 106.52 381.21 107.69L383.56 118.27C384.15 119.44 382.98 120.62 381.8 120.03L370.65 117.68C369.48 117.09 368.89 115.92 369.48 114.74C370.25 113.67 371.23 112.39 373.58 110.04ZM370.64 120.03L380.03 125.91C381.2 126.5 381.2 127.67 380.03 128.26L370.64 134.13C369.47 135.31 367.71 134.72 367.71 133.54C367.71 133.54 367.12 130.6 367.12 127.67C367.12 124.73 367.71 121.79 367.71 121.79C367.71 120.03 369.47 119.44 370.64 120.03ZM373.58 144.12C371.82 142.36 370.06 139.42 370.06 139.42C369.48 138.25 370.06 137.07 371.23 136.48L382.38 134.13C383.55 133.54 384.14 134.72 384.14 135.89L381.21 147.05C380.62 148.22 379.45 148.81 378.28 148.22C377.33 147.5 375.93 146.47 373.58 144.12ZM391.19 132.95C387.67 132.95 385.32 130.6 385.32 127.08C385.32 123.55 388.25 121.2 391.19 121.2C394.71 121.2 397.06 123.55 397.06 127.08C397.06 130.01 394.12 132.95 391.19 132.95ZM383.56 147.64L389.43 138.24C390.02 137.07 391.19 137.07 391.78 138.24L397.65 147.64C398.24 148.81 397.65 149.99 396.48 150.58C396.48 150.58 393.55 151.17 390.61 151.17C387.68 151.17 384.74 150.58 384.74 150.58C383.56 149.99 382.97 148.82 383.56 147.64ZM408.21 144.12C405.86 145.89 403.52 147.65 403.52 147.65C402.35 148.24 401.17 147.65 400.59 146.48L398.24 135.9C397.07 134.14 398.24 133.55 399.41 133.55L410.56 136.49C411.73 137.08 412.32 138.25 411.73 139.43C411.73 139.42 409.97 142.35 408.21 144.12ZM414.67 127.08C414.67 130.02 414.09 132.95 414.09 132.95C413.5 134.12 412.33 134.72 411.15 134.12L401.76 128.25C400.59 127.66 400.59 126.49 401.76 125.9L411.15 120.02C412.32 119.43 413.5 120.02 414.09 121.19C414.08 120.61 414.67 124.14 414.67 127.08ZM428.17 128.84V124.73C428.17 124.14 427.58 123.55 427 123.55L421.13 122.96C421.13 121.79 420.54 120.61 420.54 118.85L425.23 115.91C425.82 115.32 425.82 114.74 425.82 114.14L424.65 110.62C424.06 110.03 423.48 109.45 422.89 110.03L417.02 111.2C416.43 110.03 415.85 108.85 415.26 108.26L418.78 103.56C419.37 102.97 419.37 101.8 418.78 101.21L415.85 98.2698C415.26 97.6798 414.68 97.6798 414.09 98.2698L409.39 101.79C408.22 101.2 407.04 100.03 405.87 99.4398L407.63 93.5598C407.63 92.9698 407.05 92.3898 406.46 91.7998L402.94 90.6298C402.35 90.0398 401.18 90.6298 401.18 91.2198L398.25 95.9198C397.08 95.9198 395.9 95.3298 394.73 95.3298L394.14 89.4498C394.14 88.8598 393.56 88.2798 392.97 88.2798H388.86C388.27 88.2798 387.69 88.8698 387.69 89.4498L387.1 95.3298C385.93 95.3298 384.75 95.9198 382.99 95.9198L380.05 91.2198C379.47 90.6298 378.88 90.6298 378.29 90.6298L374.77 91.7998C374.18 92.3898 374.02 92.8998 374.18 93.5598L375.35 99.4398C374.18 100.03 373.59 100.61 372.42 101.2L367.72 98.8498C367.13 98.2598 365.96 98.2598 365.37 98.8498L363.02 101.79C362.44 102.38 362.44 102.96 363.02 104.14L366.54 108.84C365.96 110.01 364.78 111.19 364.19 112.36L358.91 110.01C358.32 110.01 357.42 109.81 357.15 110.6L355.98 114.12C355.4 114.71 355.98 115.89 356.57 115.89L361.27 118.83C360.68 120 360.68 121.18 360.68 122.35L354.81 122.94C354.22 122.94 353.64 123.53 353.64 124.11V128.22C353.64 128.81 354.23 129.39 354.81 129.39L360.68 129.98C361.27 131.15 361.27 132.33 361.27 134.09L355.99 138.2C355.41 138.79 355.41 139.37 355.41 139.96L356.58 143.48C357.17 144.07 357.69 144.28 358.34 144.07L363.62 142.9C364.21 144.07 364.79 144.66 365.38 145.84L361.86 150.54C361.27 151.13 361.27 152.3 361.86 152.3L364.21 154.65C364.8 155.24 365.38 155.24 366.56 154.65L371.26 151.13C372.43 151.72 373.02 152.89 374.78 153.48L373.61 159.36C373.61 159.95 373.61 160.53 374.2 161.12L377.72 162.29C378.31 162.88 379.48 162.29 379.48 161.7L382.41 157C383.58 157 384.76 157.59 385.93 157.59L386.52 163.46C386.52 164.05 387.1 164.63 387.69 164.63H391.8C392.39 164.63 392.97 164.04 392.97 163.46L393.56 157.59C394.73 157.59 395.91 157 397.67 157L400.61 161.7C401.19 162.29 401.78 162.29 402.37 162.29L405.89 161.12C406.48 160.53 407.06 159.95 406.48 159.36L405.31 153.48C406.48 152.89 407.07 152.31 408.24 151.13L412.94 154.65C413.53 155.24 414.7 155.24 414.7 154.65L417.64 152.3C418.22 151.71 418.22 151.13 417.64 150.54L414.12 145.84C414.7 144.66 415.88 143.49 416.47 142.31L422.34 143.48C422.93 143.48 423.51 143.48 424.1 142.89L426.45 139.37C427.04 138.78 426.45 137.61 425.86 137.61L421.17 134.67C421.17 133.5 421.75 132.32 421.75 131.15L427.62 130.56C428.17 130.01 428.17 129.43 428.17 128.84Z" fill="#D2D2D2"/>
<path d="M579.5 157.14C579.5 123.65 552.5 97.2098 519.63 97.2098C517.28 97.2098 515.52 97.2099 513.17 97.7999C517.28 89.5798 519.63 80.7598 519.63 71.3598C519.63 37.8698 492.63 10.8398 459.76 10.8398C429.24 10.8398 404 33.7598 400.47 63.7198C394.6 57.2598 387.56 51.9698 378.75 48.4398V217.08H519.62C552.5 217.07 579.5 190.04 579.5 157.14Z" fill="#B5D5EA"/>
<path d="M198.029 166.14L201.029 169.14C202.529 170.64 202.529 171.39 202.529 172.14C202.529 172.89 201.779 173.64 201.779 174.39C201.779 175.14 201.029 175.89 199.529 176.64L195.029 178.14C194.279 178.14 193.529 179.64 193.529 179.64L194.279 183.39C194.279 184.14 195.029 184.89 195.779 184.89H200.279C201.779 184.89 202.529 185.64 203.279 186.39C204.029 187.14 204.029 187.89 204.779 189.39C205.529 190.14 205.529 190.89 204.779 192.39L202.529 196.14C201.779 196.89 202.529 197.64 202.529 198.39L205.529 200.64C206.279 200.64 207.029 201.39 207.779 200.64L210.779 197.64C212.279 196.14 213.029 196.14 213.779 196.89C214.529 196.89 215.279 197.64 216.029 197.64C216.779 197.64 217.529 198.39 218.279 199.89L219.029 204.39C219.029 205.14 220.529 205.89 220.529 205.89L224.279 205.14C225.029 205.14 225.779 204.39 225.779 203.64V199.14C225.779 197.64 226.529 196.89 227.279 196.14C228.029 196.14 228.779 195.39 229.529 194.64C230.279 193.89 231.029 193.89 232.529 194.64L236.279 196.89C237.029 197.64 237.779 196.89 238.529 196.89L240.779 193.89C240.779 193.14 241.529 192.39 240.779 191.64L237.779 188.64C236.279 187.14 236.279 186.39 237.029 185.64C237.029 184.89 237.779 184.14 237.779 183.39C237.779 182.64 238.529 181.89 240.029 181.14L244.529 180.39C245.279 180.39 246.029 178.89 246.029 178.89L245.279 175.14C245.279 174.39 244.529 173.64 243.779 173.64H239.279C237.779 173.64 237.029 172.89 236.279 172.14C236.279 171.39 235.529 170.64 235.529 169.89C234.779 169.14 234.779 168.39 235.529 166.89L237.779 163.14C238.529 162.39 237.779 161.64 237.779 160.89L234.779 158.64C234.029 158.64 233.279 157.89 232.529 158.64L229.529 161.64C228.029 163.14 227.279 163.14 226.529 162.39C225.779 162.39 225.029 161.64 224.279 161.64C223.529 161.64 222.779 160.89 222.029 159.39L221.279 154.89C221.279 154.14 219.779 153.39 219.779 153.39L216.029 154.14C215.279 154.14 214.529 154.89 214.529 155.64V160.14C214.529 161.64 213.779 162.39 213.029 163.14C212.279 163.14 211.529 163.89 210.779 164.64C210.029 165.39 209.279 165.39 207.779 164.64L202.529 160.14C201.779 159.39 201.029 160.14 200.279 160.14L198.029 163.14C198.029 163.89 197.279 165.39 198.029 166.14ZM225.759 171.39C230.259 174.39 230.259 181.15 227.259 184.9C224.259 189.4 217.519 189.4 213.769 186.4C209.269 183.4 209.269 176.64 212.269 172.89C216.019 168.39 222.009 167.64 225.759 171.39Z" fill="#D2D2D2"/>
<path d="M196.79 43.73C164.51 43.73 138.68 69 136.92 100.73C130.46 98.38 123.42 97.21 116.38 97.21C83.5098 97.21 56.5098 124.24 56.5098 157.14C56.5098 190.05 83.5098 217.07 116.38 217.07H220.28V48.43C213.22 44.9 205.01 43.73 196.79 43.73Z" fill="#B5D5EA"/>
<path d="M242.47 93.1098C242.47 92.6498 242.53 92.1998 242.63 91.7798H237.12C236.57 91.7798 236.12 92.2298 236.12 92.7798C236.12 93.3298 236.57 93.7798 237.12 93.7798H242.51C242.49 93.5598 242.47 93.3398 242.47 93.1098Z" fill="#C4DCF9"/>
<path d="M248.14 87.4498C248.48 87.4498 248.82 87.4898 249.14 87.5398V81.7598C249.14 81.2098 248.69 80.7598 248.14 80.7598C247.59 80.7598 247.14 81.2098 247.14 81.7598V87.5398C247.46 87.4798 247.8 87.4498 248.14 87.4498Z" fill="#C4DCF9"/>
<path d="M243.63 89.6898C244.04 89.1498 244.54 88.6998 245.1 88.3298L241.05 84.2798C240.66 83.8898 240.03 83.8898 239.63 84.2798C239.24 84.6698 239.24 85.2998 239.63 85.6998L243.63 89.6898Z" fill="#C4DCF9"/>
<path d="M252.64 89.6898L256.63 85.6998C257.02 85.3098 257.02 84.6798 256.63 84.2798C256.24 83.8898 255.61 83.8898 255.21 84.2798L251.16 88.3298C251.74 88.6898 252.23 89.1498 252.64 89.6898Z" fill="#C4DCF9"/>
<path d="M259.15 91.7798H253.64C253.74 92.2098 253.8 92.6498 253.8 93.1098C253.8 93.3398 253.78 93.5598 253.76 93.7798H259.15C259.7 93.7798 260.15 93.3298 260.15 92.7798C260.15 92.2298 259.7 91.7798 259.15 91.7798Z" fill="#C4DCF9"/>
<path d="M252.921 96.1396C252.561 96.7096 252.101 97.2096 251.561 97.6096L255.221 101.27C255.421 101.47 255.671 101.56 255.931 101.56C256.191 101.56 256.441 101.46 256.641 101.27C257.031 100.88 257.031 100.25 256.641 99.8496L252.921 96.1396Z" fill="#C4DCF9"/>
<path d="M243.36 96.1396L239.64 99.8596C239.25 100.25 239.25 100.88 239.64 101.28C239.84 101.48 240.09 101.57 240.35 101.57C240.61 101.57 240.86 101.47 241.06 101.28L244.72 97.6197C244.18 97.2097 243.72 96.7096 243.36 96.1396Z" fill="#C4DCF9"/>
<path d="M248.14 98.7697C247.8 98.7697 247.46 98.7297 247.14 98.6797V103.79C247.14 104.34 247.59 104.79 248.14 104.79C248.69 104.79 249.14 104.34 249.14 103.79V98.6797C248.81 98.7397 248.48 98.7697 248.14 98.7697Z" fill="#C4DCF9"/>
<path d="M310.909 60.0899H304.159L308.929 55.3199C309.239 55.0099 309.239 54.5199 308.929 54.2099C308.619 53.8999 308.129 53.8999 307.819 54.2099L303.049 58.9799V52.2299C303.049 51.7999 302.699 51.4399 302.259 51.4399C301.819 51.4399 301.469 51.7899 301.469 52.2299V58.9799L296.699 54.2099C296.389 53.8999 295.899 53.8999 295.589 54.2099C295.279 54.5199 295.279 55.0099 295.589 55.3199L300.359 60.0899H293.609C293.179 60.0899 292.819 60.4399 292.819 60.8799C292.819 61.3099 293.169 61.6699 293.609 61.6699H300.359L295.589 66.4399C295.279 66.7499 295.279 67.2399 295.589 67.5499C295.739 67.6999 295.939 67.7799 296.149 67.7799C296.349 67.7799 296.549 67.6999 296.709 67.5499L301.479 62.7799V69.5299C301.479 69.9599 301.829 70.3199 302.269 70.3199C302.709 70.3199 303.059 69.9699 303.059 69.5299V62.7799L307.829 67.5499C307.979 67.6999 308.179 67.7799 308.389 67.7799C308.589 67.7799 308.789 67.6999 308.949 67.5499C309.259 67.2399 309.259 66.7499 308.949 66.4399L304.179 61.6699H310.929C311.359 61.6699 311.719 61.3199 311.719 60.8799C311.699 60.4499 311.349 60.0899 310.909 60.0899Z" fill="#D2D2D2"/>
<path opacity="0.65" d="M220.27 188.48C217.91 188.54 215.51 187.8 213.77 186.4C209.27 183.4 209.27 176.64 212.27 172.89C214.47 170.25 217.43 168.91 220.27 169V153.68C219.99 153.5 219.77 153.38 219.77 153.38L216.02 154.13C215.27 154.13 214.52 154.88 214.52 155.63V160.13C214.52 161.63 213.77 162.38 213.02 163.13C212.27 163.13 211.52 163.88 210.77 164.63C210.02 165.38 209.27 165.38 207.77 164.63L202.52 160.13C201.77 159.38 201.02 160.13 200.27 160.13L198.02 163.13C198.02 163.88 197.27 165.38 198.02 166.13L201.02 169.13C202.52 170.63 202.52 171.38 202.52 172.13C202.52 172.88 201.77 173.63 201.77 174.38C201.77 175.13 201.02 175.88 199.52 176.63L195.02 178.13C194.27 178.13 193.52 179.63 193.52 179.63L194.27 183.38C194.27 184.13 195.02 184.88 195.77 184.88H200.27C201.77 184.88 202.52 185.63 203.27 186.38C204.02 187.13 204.02 187.88 204.77 189.38C205.52 190.13 205.52 190.88 204.77 192.38L202.52 196.13C201.77 196.88 202.52 197.63 202.52 198.38L205.52 200.63C206.27 200.63 207.02 201.38 207.77 200.63L210.77 197.63C212.27 196.13 213.02 196.13 213.77 196.88C214.52 196.88 215.27 197.63 216.02 197.63C216.77 197.63 217.52 198.38 218.27 199.88L219.02 204.38C219.02 204.94 219.85 205.5 220.27 205.74V188.48Z" fill="#99C7E0"/>
<path d="M319 216.67V298.67" stroke="#939393" stroke-width="1.5" stroke-miterlimit="10" stroke-dasharray="2 2"/>
<path opacity="0.65" d="M379.449 161.74L382.379 157.04C383.549 157.04 384.729 157.63 385.899 157.63L386.489 163.5C386.489 164.09 387.069 164.67 387.659 164.67H391.769C392.359 164.67 392.939 164.08 392.939 163.5L393.529 157.63C394.699 157.63 395.879 157.04 397.639 157.04L400.579 161.74C401.159 162.33 401.749 162.33 402.339 162.33L405.859 161.16C406.449 160.57 407.029 159.99 406.449 159.4L405.279 153.52C406.449 152.93 407.039 152.35 408.209 151.17L412.909 154.69C413.499 155.28 414.669 155.28 414.669 154.69L417.609 152.34C418.189 151.75 418.189 151.17 417.609 150.58L414.089 145.88C414.669 144.7 415.849 143.53 416.439 142.35L422.309 143.52C422.899 143.52 423.479 143.52 424.069 142.93L426.419 139.41C427.009 138.82 426.419 137.65 425.829 137.65L421.139 134.71C421.139 133.54 421.719 132.36 421.719 131.19L427.589 130.6C428.179 130.01 428.179 129.43 428.179 128.84V124.73C428.179 124.14 427.589 123.55 427.009 123.55L421.139 122.96C421.139 121.79 420.549 120.61 420.549 118.85L425.239 115.91C425.829 115.32 425.829 114.74 425.829 114.14L424.659 110.62C424.069 110.03 423.489 109.44 422.899 110.03L417.029 111.2C416.439 110.03 415.859 108.85 415.269 108.26L418.789 103.56C419.379 102.97 419.379 101.8 418.789 101.21L415.859 98.2698C415.269 97.6798 414.689 97.6798 414.099 98.2698L409.399 101.79C408.229 101.2 407.049 100.03 405.879 99.4398L407.639 93.5598C407.639 92.9698 407.059 92.3898 406.469 91.7998L402.949 90.6298C402.359 90.0398 401.189 90.6298 401.189 91.2198L398.259 95.9198C397.089 95.9198 395.909 95.3298 394.739 95.3298L394.149 89.4498C394.149 88.8598 393.569 88.2798 392.979 88.2798H388.869C388.279 88.2798 387.699 88.8698 387.699 89.4498L387.109 95.3298C385.939 95.3298 384.759 95.9198 382.999 95.9198L380.059 91.2198C379.629 90.7898 379.209 90.6798 378.779 90.6498V106.33C379.779 106.09 380.729 106.66 381.239 107.68L383.589 118.26C384.179 119.43 383.009 120.61 381.829 120.02L378.789 119.38V125.1L380.069 125.9C381.239 126.49 381.239 127.66 380.069 128.25L378.789 129.05V134.89L382.419 134.12C383.589 133.53 384.179 134.71 384.179 135.88L381.249 147.04C380.739 148.05 379.799 148.63 378.789 148.39V162.48C379.139 162.35 379.449 162.05 379.449 161.74ZM411.729 139.42C411.729 139.42 409.969 142.36 408.209 144.12C405.859 145.89 403.519 147.65 403.519 147.65C402.349 148.24 401.169 147.65 400.589 146.48L398.239 135.9C397.069 134.14 398.239 133.55 399.409 133.55L410.559 136.49C411.729 137.07 412.319 138.24 411.729 139.42ZM414.079 121.2C414.079 120.61 414.659 124.14 414.659 127.08C414.659 130.02 414.079 132.95 414.079 132.95C413.489 134.12 412.319 134.72 411.139 134.12L401.749 128.25C400.579 127.66 400.579 126.49 401.749 125.9L411.139 120.02C412.319 119.44 413.489 120.03 414.079 121.2ZM399.409 107.1C399.999 105.93 401.169 105.34 402.339 105.93C402.929 105.93 405.859 107.69 407.619 110.04C409.969 112.39 411.139 114.74 411.139 114.74C411.729 115.91 411.139 117.09 409.969 117.68L398.819 120.03C397.649 120.62 396.469 119.44 397.059 118.27L399.409 107.1ZM397.059 127.08C397.059 130.02 394.119 132.95 391.189 132.95C387.669 132.95 385.319 130.6 385.319 127.08C385.319 123.55 388.249 121.2 391.189 121.2C394.709 121.2 397.059 123.55 397.059 127.08ZM382.969 106.51C382.379 105.34 382.379 104.16 384.139 103.57C384.139 103.57 387.069 102.98 390.009 102.98C392.939 102.98 395.879 103.57 395.879 103.57C398.229 104.16 398.229 105.33 397.639 106.51L391.769 115.91C391.179 117.08 390.009 117.08 388.839 115.91L382.969 106.51ZM383.559 147.64L389.429 138.24C390.019 137.07 391.189 137.07 391.779 138.24L397.649 147.64C398.239 148.81 397.649 149.99 396.479 150.58C396.479 150.58 393.549 151.17 390.609 151.17C387.679 151.17 384.739 150.58 384.739 150.58C383.559 149.99 382.969 148.82 383.559 147.64Z" fill="#99C7E0"/>
<path d="M280.3 164.42V212.6C280.3 214.45 281.8 215.94 283.64 215.94H353.16C355.01 215.94 356.5 214.44 356.5 212.6V164.42C356.5 162.57 355 161.08 353.16 161.08H283.64C281.79 161.08 280.3 162.58 280.3 164.42Z" fill="#505050"/>
<path d="M285.43 164.39V212.55C285.43 212.88 285.69 213.14 286.02 213.14H350.92C351.25 213.14 351.51 212.88 351.51 212.55V164.39C351.51 164.06 351.25 163.8 350.92 163.8H286.02C285.69 163.8 285.43 164.06 285.43 164.39Z" fill="#E6E6E6"/>
<path d="M320.96 163.8L351.51 194.35V164.39C351.51 164.06 351.25 163.8 350.92 163.8H320.96Z" fill="url(#paint0_linear)"/>
<path d="M282.97 189.71C283.66 189.71 284.22 189.15 284.22 188.46C284.22 187.77 283.66 187.21 282.97 187.21C282.279 187.21 281.72 187.77 281.72 188.46C281.72 189.15 282.279 189.71 282.97 189.71Z" fill="#737373"/>
<path d="M351.51 170.75V164.39C351.51 164.06 351.25 163.8 350.92 163.8H286.02C285.69 163.8 285.43 164.06 285.43 164.39V170.75H351.51Z" fill="#B2B2B2"/>
<path d="M350.92 163.8H320.96L327.91 170.75H351.51V164.39C351.51 164.31 351.49 164.23 351.46 164.16C351.38 163.95 351.17 163.8 350.92 163.8Z" fill="#C6C6C6"/>
<path d="M341.46 101.23H319.72C318.04 101.23 316.68 99.8698 316.68 98.1898V45.8598C316.68 44.1798 318.04 42.8198 319.72 42.8198H341.46C343.14 42.8198 344.5 44.1798 344.5 45.8598V98.1898C344.5 99.8698 343.14 101.23 341.46 101.23Z" fill="#444444"/>
<path d="M342.23 98.75H318.99C318.45 98.75 318.01 98.31 318.01 97.77V47.21C318.01 46.67 318.45 46.23 318.99 46.23H342.23C342.77 46.23 343.21 46.67 343.21 47.21V97.77C343.21 98.31 342.77 98.75 342.23 98.75Z" fill="#E6E6E6"/>
<path d="M343.21 64.59V47.21C343.21 46.67 342.77 46.23 342.23 46.23H324.84L343.21 64.59Z" fill="url(#paint1_linear)"/>
<path d="M343.21 51.33V47.21C343.21 46.67 342.77 46.23 342.23 46.23H318.99C318.45 46.23 318.01 46.67 318.01 47.21V51.33H343.21Z" fill="#B2B2B2"/>
<path d="M342.23 46.2197H324.84L329.95 51.3297H343.21V47.2097C343.21 46.6597 342.77 46.2197 342.23 46.2197Z" fill="#C6C6C6"/>
<path d="M270.19 114.14H244.84C243.07 114.14 241.64 115.55 241.64 117.29V177.13C241.64 178.39 242.68 179.42 243.97 179.42H270.74C272.03 179.42 273.07 178.39 273.07 177.13V116.97C273.07 115.4 271.78 114.14 270.19 114.14Z" fill="#2488D8"/>
<path d="M271.68 114.14H249.63L273.06 135.58V115.52C273.07 114.76 272.44 114.14 271.68 114.14Z" fill="url(#paint2_linear)"/>
<path d="M271.68 114.14H243.53C242.76 114.14 242.14 114.76 242.14 115.53V119.49H273.06V115.53C273.07 114.76 272.44 114.14 271.68 114.14Z" fill="#EDAC28"/>
<path d="M269.77 112.5H245.18C242.48 112.5 240.29 114.69 240.29 117.39V176.14C240.29 178.84 242.48 181.03 245.18 181.03H269.77C272.47 181.03 274.66 178.84 274.66 176.14V117.39C274.67 114.69 272.48 112.5 269.77 112.5ZM272.63 175.86C272.63 177.54 271.27 178.91 269.58 178.91H245.37C243.69 178.91 242.32 177.55 242.32 175.86V117.67C242.32 115.99 243.68 114.62 245.37 114.62H269.58C271.26 114.62 272.63 115.98 272.63 117.67V175.86Z" fill="#444444"/>
<path d="M249.22 114.54V114.99C249.22 116.08 250.1 116.96 251.19 116.96H264C265.09 116.96 265.97 116.08 265.97 114.99V114.54H249.22Z" fill="#444444"/>
<path d="M261.24 116.02C261.538 116.02 261.78 115.778 261.78 115.48C261.78 115.182 261.538 114.94 261.24 114.94C260.942 114.94 260.7 115.182 260.7 115.48C260.7 115.778 260.942 116.02 261.24 116.02Z" fill="#737373"/>
<path d="M255.84 115.94H259.25C259.47 115.94 259.65 115.76 259.65 115.54C259.65 115.32 259.47 115.14 259.25 115.14H255.84C255.62 115.14 255.44 115.32 255.44 115.54C255.44 115.76 255.62 115.94 255.84 115.94Z" fill="#737373"/>
<path d="M262.96 178.13H252.11C251.93 178.13 251.79 177.99 251.79 177.81C251.79 177.63 251.93 177.49 252.11 177.49H262.96C263.14 177.49 263.28 177.63 263.28 177.81C263.28 177.99 263.14 178.13 262.96 178.13Z" fill="#E6E6E6"/>
<defs>
<linearGradient id="paint0_linear" x1="336.235" y1="194.353" x2="336.235" y2="163.8" gradientUnits="userSpaceOnUse">
<stop offset="0.0638" stop-color="#E6E6E6"/>
<stop offset="0.8177" stop-color="white"/>
</linearGradient>
<linearGradient id="paint1_linear" x1="334.027" y1="64.5933" x2="334.027" y2="46.223" gradientUnits="userSpaceOnUse">
<stop offset="0.0887" stop-color="#E6E6E6"/>
<stop offset="0.6469" stop-color="white"/>
</linearGradient>
<linearGradient id="paint2_linear" x1="261.349" y1="135.578" x2="261.349" y2="114.136" gradientUnits="userSpaceOnUse">
<stop stop-color="#258AD9"/>
<stop offset="0.7829" stop-color="#3CACE5"/>
</linearGradient>
</defs>
</svg>
