<svg width="636" height="300" viewBox="0 0 636 300" fill="none" xmlns="http://www.w3.org/2000/svg">
<path d="M523.759 174.527H469.059C468.647 174.568 468.232 174.524 467.838 174.397C467.445 174.27 467.081 174.063 466.771 173.79C466.461 173.516 466.211 173.181 466.035 172.807C465.86 172.432 465.764 172.025 465.753 171.612C465.743 171.199 465.817 170.787 465.972 170.404C466.127 170.021 466.36 169.673 466.655 169.384C466.951 169.094 467.302 168.869 467.689 168.721C468.075 168.574 468.488 168.508 468.901 168.527H494.876C504.659 168.527 513.011 160.92 513.338 151.143C513.421 148.729 513.017 146.322 512.15 144.068C511.283 141.813 509.971 139.756 508.292 138.019C506.614 136.281 504.602 134.9 502.379 133.957C500.155 133.013 497.764 132.527 495.348 132.527H481.735C476.662 132.527 476.357 125.527 481.735 125.527H498.735C501.668 125.557 504.535 124.653 506.92 122.946C509.306 121.24 511.087 118.819 512.006 116.033C512.713 113.923 512.908 111.674 512.575 109.474C512.243 107.273 511.392 105.183 510.093 103.376C508.794 101.568 507.084 100.096 505.104 99.0787C503.125 98.0619 500.932 97.53 498.706 97.527H428.606C424.035 97.527 424.106 91.527 428.321 91.527H523.333C526.861 91.5679 530.27 90.254 532.858 87.856C535.446 85.458 537.015 82.1587 537.243 78.638C537.326 76.8156 537.038 74.9953 536.397 73.2872C535.757 71.5791 534.777 70.0184 533.517 68.6996C532.256 67.3808 530.741 66.3311 529.064 65.6139C527.387 64.8968 525.581 64.527 523.757 64.527H433.43L433.13 60.527H437.419C447.202 60.527 455.554 52.92 455.88 43.143C455.963 40.7288 455.559 38.3226 454.692 36.0679C453.825 33.8132 452.513 31.756 450.835 30.0189C449.156 28.2818 447.145 26.9004 444.921 25.9568C442.698 25.0133 440.307 24.527 437.891 24.527H340.433C335.867 24.5284 331.47 26.2523 328.119 29.3542C324.769 32.4561 322.712 36.7077 322.359 41.26C320.667 39.45 318.622 38.0071 316.349 37.0208C314.077 36.0346 311.625 35.5261 309.148 35.527H212.165C202.382 35.527 194.03 43.133 193.704 52.911C193.621 55.3253 194.026 57.7315 194.892 59.9863C195.759 62.2411 197.071 64.2983 198.75 66.0354C200.429 67.7725 202.44 69.154 204.664 70.0974C206.887 71.0409 209.278 71.5271 211.694 71.527H213.128C213.128 71.527 216 75.527 213.128 75.527H145.6C142.072 75.4861 138.663 76.8 136.075 79.198C133.487 81.5959 131.918 84.8952 131.69 88.416C131.607 90.2384 131.895 92.0586 132.536 93.7668C133.176 95.4749 134.156 97.0355 135.417 98.3543C136.677 99.6732 138.192 100.723 139.869 101.44C141.546 102.157 143.352 102.527 145.176 102.527H187.867C192.367 102.527 192.817 108.527 187.867 108.527H120.6C117.667 108.497 114.8 109.401 112.415 111.107C110.029 112.814 108.249 115.235 107.33 118.021C106.623 120.131 106.428 122.38 106.76 124.58C107.093 126.781 107.944 128.871 109.243 130.679C110.542 132.486 112.251 133.959 114.231 134.976C116.211 135.992 118.404 136.524 120.63 136.527H155.323C160.495 136.868 160.384 142.48 156.464 143.527H117.2C107.417 143.527 99.0651 151.133 98.7391 160.911C98.6564 163.325 99.0605 165.731 99.9273 167.986C100.794 170.241 102.106 172.298 103.784 174.035C105.463 175.772 107.474 177.154 109.698 178.097C111.922 179.041 114.312 179.527 116.728 179.527H196.164C200.664 179.527 200.764 185.527 196.164 185.527H145.6C142.072 185.486 138.663 186.8 136.075 189.198C133.487 191.596 131.918 194.895 131.69 198.416C131.607 200.238 131.895 202.059 132.536 203.767C133.176 205.475 134.156 207.036 135.417 208.354C136.677 209.673 138.192 210.723 139.869 211.44C141.546 212.157 143.352 212.527 145.176 212.527H147.36C153.15 212.527 151.651 218.527 147.652 218.527H120.8C117.272 218.486 113.863 219.8 111.275 222.198C108.687 224.596 107.118 227.895 106.89 231.416C106.807 233.238 107.095 235.059 107.736 236.767C108.376 238.475 109.356 240.036 110.617 241.354C111.877 242.673 113.392 243.723 115.069 244.44C116.746 245.157 118.552 245.527 120.376 245.527H188.8C191.906 245.527 192.209 249.163 188.8 249.163C186.187 249.163 183.605 249.727 181.23 250.815C178.854 251.903 176.741 253.489 175.034 255.467C173.326 257.445 172.065 259.768 171.336 262.277C170.607 264.786 170.427 267.422 170.808 270.007C171.497 274.363 173.728 278.327 177.096 281.176C180.463 284.025 184.742 285.569 189.152 285.527H329.713C333.265 285.527 336.738 284.485 339.703 282.529C342.668 280.574 344.994 277.792 346.393 274.527H457.981C467.764 274.527 476.116 266.92 476.443 257.143C476.526 254.729 476.122 252.322 475.255 250.068C474.388 247.813 473.076 245.756 471.397 244.019C469.719 242.281 467.707 240.9 465.484 239.957C463.26 239.013 460.869 238.527 458.453 238.527H448.253C445.004 238.527 445.004 234.527 448.173 234.527H498.54C502.068 234.568 505.477 233.254 508.065 230.856C510.653 228.458 512.222 225.159 512.45 221.638C512.533 219.816 512.245 217.995 511.604 216.287C510.964 214.579 509.984 213.018 508.724 211.7C507.463 210.381 505.948 209.331 504.271 208.614C502.594 207.897 500.788 207.527 498.964 207.527H479.575C475.218 207.527 475.646 201.527 479.641 201.527H523.335C526.863 201.568 530.272 200.254 532.86 197.856C535.448 195.458 537.017 192.159 537.245 188.638C537.328 186.816 537.04 184.995 536.399 183.287C535.759 181.579 534.779 180.018 533.519 178.7C532.258 177.381 530.743 176.331 529.066 175.614C527.389 174.897 525.583 174.527 523.759 174.527Z" fill="#CEE0EC"/>
<path d="M411.768 10.527H239.232C236.895 10.527 235 12.4217 235 14.759V251.295C235 253.632 236.895 255.527 239.232 255.527H411.768C414.105 255.527 416 253.632 416 251.295V14.759C416 12.4217 414.105 10.527 411.768 10.527Z" fill="#737373"/>
<path d="M408.488 16.527H242.512C241.125 16.527 240 17.6516 240 19.039V248.015C240 249.402 241.125 250.527 242.512 250.527H408.488C409.875 250.527 411 249.402 411 248.015V19.039C411 17.6516 409.875 16.527 408.488 16.527Z" fill="white"/>
<path d="M413.001 31.527V15.656C413.065 14.8993 412.829 14.1477 412.345 13.5626C411.861 12.9776 411.167 12.6057 410.412 12.527H240.59C239.834 12.6057 239.14 12.9776 238.656 13.5626C238.172 14.1477 237.937 14.8993 238.001 15.656V31.527H413.001Z" fill="#737373"/>
<path d="M310.022 20.165H248.902V27.455H310.022V20.165Z" fill="#939393"/>
<path d="M321 48.527H256V52.527H321V48.527Z" fill="#B5D5EA"/>
<path d="M319.5 72.027H255.5V107.027H319.5V72.027Z" stroke="#B5D5EA" stroke-width="0.996" stroke-miterlimit="10"/>
<path d="M320 116.527H290V147.527H320V116.527Z" fill="#B5D5EA"/>
<path d="M396 48.527H331V52.527H396V48.527Z" fill="#B5D5EA"/>
<path d="M386 57.527H331V61.527H386V57.527Z" fill="#B5D5EA"/>
<path d="M396 218.527H331V222.527H396V218.527Z" fill="#B5D5EA"/>
<path d="M386 227.527H331V231.527H386V227.527Z" fill="#B5D5EA"/>
<path d="M396 122.527H331V126.527H396V122.527Z" fill="#B5D5EA"/>
<path d="M358 130.527H331V134.527H358V130.527Z" fill="#B5D5EA"/>
<path d="M358 139.527H331V143.527H358V139.527Z" fill="#B5D5EA"/>
<path d="M379.5 153.027H331.5V211.027H379.5V153.027Z" stroke="#B5D5EA" stroke-width="0.952" stroke-miterlimit="10"/>
<path d="M303 57.527H255V61.527H303V57.527Z" fill="#B5D5EA"/>
<path d="M321 208.527H256V212.527H321V208.527Z" fill="#B5D5EA"/>
<path d="M303 216.527H255V220.527H303V216.527Z" fill="#B5D5EA"/>
<path d="M284 116.527H256V120.527H284V116.527Z" fill="#B5D5EA"/>
<path d="M284 125.527H256V129.527H284V125.527Z" fill="#B5D5EA"/>
<path d="M284 225.527H256V229.527H284V225.527Z" fill="#B5D5EA"/>
<path d="M278 133.527H256V137.527H278V133.527Z" fill="#B5D5EA"/>
<path d="M229.839 83.041L188.646 96.486L194.929 146.339L229.839 164.039L264.75 146.339L271.033 96.486L229.839 83.041Z" fill="#DD0031"/>
<path d="M229.84 83.041V164.041L264.751 146.341L271.034 96.488L229.84 83.041Z" fill="#C3002F"/>
<path d="M229.839 91.991L204.088 144.841H213.688L218.865 133.015H240.723L245.9 144.841H255.5L229.839 91.991ZM237.361 125.726H222.317L229.839 109.162L237.361 125.726Z" fill="white"/>
<path d="M370.539 134.527H443.461C443.926 134.527 444.386 134.618 444.815 134.796C445.245 134.974 445.635 135.235 445.964 135.563C446.292 135.892 446.553 136.282 446.731 136.712C446.909 137.141 447 137.601 447 138.066V210.988C447 211.927 446.627 212.827 445.963 213.49C445.3 214.154 444.4 214.527 443.461 214.527H370.539C369.6 214.527 368.7 214.154 368.037 213.49C367.373 212.827 367 211.927 367 210.988V138.066C367 137.601 367.091 137.141 367.269 136.712C367.447 136.282 367.708 135.892 368.036 135.563C368.365 135.235 368.755 134.974 369.185 134.796C369.614 134.618 370.074 134.527 370.539 134.527Z" fill="#222222"/>
<path d="M406.857 180.983C410.567 180.983 413.575 177.975 413.575 174.265C413.575 170.555 410.567 167.547 406.857 167.547C403.146 167.547 400.139 170.555 400.139 174.265C400.139 177.975 403.146 180.983 406.857 180.983Z" fill="#00D8FF"/>
<path d="M406.856 189.66C402.568 189.676 398.284 189.415 394.03 188.878C390.282 188.427 386.587 187.609 382.999 186.435C379.428 185.303 376.097 183.519 373.175 181.174C370.603 178.974 369.244 176.582 369.244 174.262C369.244 172.008 370.535 169.712 372.979 167.622C375.757 165.406 378.913 163.712 382.295 162.622C385.961 161.386 389.735 160.493 393.566 159.955C397.967 159.311 402.409 158.992 406.856 159C415.822 159 424.429 160.262 431.092 162.555C434.53 163.652 437.746 165.349 440.592 167.568C443.123 169.68 444.461 171.995 444.461 174.262C444.461 176.62 443.048 179.029 440.374 181.23C437.333 183.568 433.896 185.34 430.228 186.462C426.698 187.59 423.072 188.391 419.395 188.855C415.238 189.402 411.049 189.671 406.856 189.66ZM406.856 162.213C402.567 162.205 398.283 162.513 394.039 163.134C390.406 163.642 386.829 164.487 383.352 165.656C380.348 166.615 377.542 168.109 375.068 170.064C373.384 171.504 372.457 172.995 372.457 174.264C372.457 175.597 373.457 177.185 375.265 178.735C377.878 180.815 380.852 182.395 384.038 183.396C387.424 184.502 390.911 185.272 394.448 185.696C398.564 186.215 402.708 186.467 406.856 186.451C415.371 186.451 423.314 185.373 429.222 183.415C432.514 182.418 435.601 180.839 438.337 178.753C440.217 177.205 441.253 175.612 441.253 174.266C441.253 173.001 440.289 171.5 438.539 170.04C435.992 168.071 433.116 166.567 430.046 165.598C422.546 163.242 414.717 162.099 406.856 162.213Z" fill="#00D8FF"/>
<path d="M391.6 207.766C390.347 207.795 389.109 207.49 388.011 206.884C386.059 205.758 384.711 203.492 384.125 200.332C383.593 196.819 383.701 193.238 384.445 189.763C385.205 185.968 386.317 182.252 387.766 178.663C389.406 174.529 391.349 170.522 393.579 166.674C398.057 158.907 403.451 152.082 408.768 147.456C411.437 145.024 414.515 143.084 417.86 141.726C420.954 140.589 423.627 140.587 425.591 141.719C427.633 142.897 429.014 145.324 429.585 148.74C430.092 152.543 429.91 156.407 429.048 160.146C428.262 163.768 427.144 167.309 425.709 170.726C424.106 174.602 422.245 178.367 420.139 181.995C418.012 185.717 415.646 189.298 413.055 192.714C410.793 195.736 408.238 198.529 405.428 201.051C402.664 203.579 399.455 205.573 395.963 206.933C394.566 207.454 393.091 207.736 391.6 207.766ZM422.155 144.083C421.063 144.117 419.985 144.34 418.969 144.742C415.991 145.965 413.252 147.704 410.878 149.879C405.09 155.199 400.189 161.411 396.362 168.279C394.212 171.99 392.338 175.854 390.755 179.84C389.38 183.242 388.325 186.764 387.602 190.362C386.934 193.444 386.826 196.622 387.284 199.742C387.691 201.919 388.519 203.467 389.617 204.101C390.771 204.766 392.645 204.696 394.893 203.901C398 202.676 400.855 200.889 403.313 198.629C405.962 196.247 408.37 193.611 410.503 190.759C413.009 187.453 415.298 183.989 417.356 180.388C421.61 173.013 424.644 165.588 425.901 159.495C426.682 156.144 426.857 152.68 426.416 149.268C426.016 146.868 425.151 145.173 423.986 144.501C423.423 144.204 422.791 144.06 422.153 144.083H422.155Z" fill="#00D8FF"/>
<path d="M422.127 207.786C420.726 207.759 419.34 207.497 418.027 207.009C414.716 205.717 411.666 203.834 409.027 201.453C406.121 198.899 403.458 196.081 401.073 193.035C398.311 189.55 395.809 185.865 393.588 182.012C389.096 174.251 385.877 166.169 384.524 159.255C383.749 155.729 383.606 152.093 384.1 148.516C384.66 145.267 385.993 142.95 387.956 141.816C389.995 140.635 392.788 140.65 396.033 141.861C399.58 143.322 402.836 145.409 405.645 148.021C408.39 150.511 410.901 153.249 413.145 156.198C415.702 159.524 418.034 163.016 420.125 166.652C422.287 170.355 424.208 174.193 425.875 178.143C427.363 181.612 428.506 185.22 429.287 188.913C430.097 192.571 430.221 196.348 429.655 200.051C429.038 203.38 427.655 205.751 425.642 206.915C424.568 207.512 423.355 207.813 422.127 207.786ZM396.37 180.4C398.512 184.116 400.924 187.669 403.587 191.031C405.847 193.92 408.37 196.593 411.124 199.015C413.46 201.135 416.159 202.815 419.092 203.976C421.181 204.711 422.936 204.766 424.033 204.131C425.186 203.463 426.061 201.805 426.496 199.462C426.987 196.159 426.865 192.793 426.134 189.534C425.395 186.05 424.314 182.648 422.908 179.376C421.295 175.554 419.436 171.841 417.344 168.259C413.077 160.887 408.165 154.552 403.513 150.421C401.001 148.072 398.088 146.192 394.913 144.869C392.632 144.017 390.734 143.92 389.569 144.594C388.474 145.228 387.658 146.813 387.269 149.06C386.842 152.251 386.981 155.492 387.679 158.635C389.399 166.306 392.333 173.654 396.37 180.4Z" fill="#00D8FF"/>
<path d="M391 67.527H337V112.527H391V67.527Z" stroke="#B5D5EA" stroke-width="1.615" stroke-miterlimit="10" stroke-dasharray="1.92 2.88"/>
<path d="M371.756 87.757C370.767 87.757 369.801 87.4639 368.979 86.9147C368.156 86.3655 367.516 85.5849 367.137 84.6716C366.758 83.7583 366.659 82.7532 366.852 81.7834C367.044 80.8136 367.52 79.9227 368.219 79.2233C368.917 78.5238 369.808 78.0472 370.777 77.8537C371.747 77.6602 372.752 77.7585 373.666 78.1362C374.58 78.5139 375.361 79.1539 375.911 79.9755C376.461 80.7971 376.755 81.7633 376.756 82.752C376.755 84.0782 376.227 85.3497 375.29 86.2879C374.353 87.2261 373.082 87.7544 371.756 87.757Z" fill="#B5D5EA"/>
<path d="M377.053 89.73L370.473 94.266C370.158 94.4832 369.782 94.5949 369.399 94.5852C369.017 94.5755 368.647 94.4448 368.343 94.212L355.035 84.012C354.694 83.7506 354.271 83.6189 353.842 83.6405C353.413 83.6621 353.006 83.8356 352.693 84.13L343.57 92.71C343.39 92.8794 343.247 93.0838 343.149 93.3106C343.051 93.5374 343 93.7819 343 94.029V103.719C343 104.199 343.191 104.66 343.53 105C343.87 105.339 344.331 105.53 344.811 105.53H382.189C382.427 105.53 382.663 105.483 382.883 105.392C383.103 105.301 383.302 105.167 383.471 104.999C383.639 104.83 383.772 104.63 383.863 104.41C383.954 104.19 384 103.954 384 103.716V93.882C384 93.5799 383.924 93.2826 383.78 93.0171C383.636 92.7516 383.428 92.5264 383.174 92.362L379.065 89.7C378.764 89.5052 378.413 89.4041 378.054 89.4095C377.696 89.4148 377.348 89.5264 377.053 89.73Z" fill="#B5D5EA"/>
<path d="M309 154.527H255V199.527H309V154.527Z" stroke="#B5D5EA" stroke-width="1.615" stroke-miterlimit="10" stroke-dasharray="1.92 2.88"/>
<path d="M290.691 174.873C289.702 174.873 288.736 174.58 287.914 174.03C287.091 173.481 286.45 172.7 286.072 171.786C285.694 170.873 285.595 169.868 285.787 168.898C285.98 167.928 286.457 167.037 287.156 166.338C287.855 165.638 288.746 165.162 289.716 164.969C290.686 164.776 291.691 164.875 292.605 165.254C293.518 165.632 294.299 166.273 294.849 167.095C295.398 167.917 295.691 168.884 295.691 169.873C295.688 171.198 295.161 172.468 294.224 173.405C293.287 174.342 292.017 174.87 290.691 174.873Z" fill="#B5D5EA"/>
<path d="M296.053 176.73L289.473 181.266C289.158 181.483 288.782 181.595 288.399 181.585C288.017 181.575 287.647 181.445 287.343 181.212L274.035 171.012C273.694 170.751 273.271 170.619 272.842 170.64C272.413 170.662 272.006 170.836 271.693 171.13L262.57 179.71C262.39 179.879 262.247 180.084 262.149 180.311C262.051 180.537 262 180.782 262 181.029V190.719C262 191.199 262.191 191.66 262.53 192C262.87 192.339 263.331 192.53 263.811 192.53H301.189C301.427 192.53 301.663 192.483 301.883 192.392C302.103 192.301 302.302 192.167 302.471 191.999C302.639 191.83 302.772 191.63 302.863 191.41C302.954 191.19 303 190.954 303 190.716V180.882C303 180.58 302.924 180.283 302.78 180.017C302.636 179.752 302.428 179.526 302.174 179.362L298.065 176.701C297.764 176.506 297.413 176.405 297.055 176.41C296.696 176.415 296.348 176.527 296.053 176.73Z" fill="#B5D5EA"/>
</svg>
