<svg xmlns="http://www.w3.org/2000/svg" viewBox="0 0 500 350"><title>swimlane-ml-train-model</title><path d="M244.651,176.041l87,7.7" fill="none" stroke="#666" stroke-miterlimit="10" stroke-width="2" stroke-dasharray="3 3"/><path d="M189.75,88.359l-37.8-17.5a1.848,1.848,0,0,1-1.1-1.7,2.031,2.031,0,0,1,1.1-1.7l37.7-17.5a1.9,1.9,0,0,1,1.8.1,1.763,1.763,0,0,1,.8,1.5v35a1.763,1.763,0,0,1-.8,1.5,1.929,1.929,0,0,1-1,.3Z" fill="none" stroke="#e5a600" stroke-miterlimit="10" stroke-width="3"/><path d="M191.75,69.359h-41" fill="none" stroke="#e5a600" stroke-miterlimit="10" stroke-width="3"/><path d="M134.65,145.941l-37.8-17.5a1.848,1.848,0,0,1-1.1-1.7,2.031,2.031,0,0,1,1.1-1.7l37.8-17.5a1.9,1.9,0,0,1,1.8.1,1.763,1.763,0,0,1,.8,1.5v35a1.763,1.763,0,0,1-.8,1.5,1.929,1.929,0,0,1-1,.3A2.152,2.152,0,0,0,134.65,145.941Z" fill="none" stroke="#69afe5" stroke-miterlimit="10" stroke-width="3"/><path d="M136.75,126.359h-41" fill="none" stroke="#69afe5" stroke-miterlimit="10" stroke-width="3"/><g opacity="0.48"><g opacity="0.48"><path d="M265.65,56.841l-37.8-17.4a1.848,1.848,0,0,1-1.1-1.7,2.031,2.031,0,0,1,1.1-1.7l37.8-17.5a1.9,1.9,0,0,1,1.8.1,1.763,1.763,0,0,1,.8,1.5v35a1.763,1.763,0,0,1-.8,1.5,1.929,1.929,0,0,1-1,.3A1.949,1.949,0,0,1,265.65,56.841Z" fill="none" stroke="#8ac5ed" stroke-miterlimit="10" stroke-width="3" opacity="0.48" style="isolation:isolate"/></g><path d="M267.75,37.359h-41" fill="none" stroke="#8ac5ed" stroke-miterlimit="10" stroke-width="3" opacity="0.48" style="isolation:isolate"/></g><path d="M357.75,81.541l-37.9-17.4a1.848,1.848,0,0,1-1.1-1.7,2.031,2.031,0,0,1,1.1-1.7l37.8-17.5a1.9,1.9,0,0,1,1.8.1,1.763,1.763,0,0,1,.8,1.5v35a1.763,1.763,0,0,1-.8,1.5,1.929,1.929,0,0,1-1,.3A1.7,1.7,0,0,1,357.75,81.541Z" fill="none" stroke="#ffcb40" stroke-miterlimit="10" stroke-width="3"/><path d="M360.75,62.359h-42" fill="none" stroke="#ffcb40" stroke-miterlimit="10" stroke-width="3"/><g opacity="0.48"><g opacity="0.48"><path d="M443.65,74.941l-37.8-17.3a1.848,1.848,0,0,1-1.1-1.7,2.031,2.031,0,0,1,1.1-1.7l37.8-17.5a1.9,1.9,0,0,1,1.8.1,1.763,1.763,0,0,1,.8,1.5v35a1.763,1.763,0,0,1-.8,1.5,1.929,1.929,0,0,1-1,.3A1.884,1.884,0,0,1,443.65,74.941Z" fill="none" stroke="#b2b2b2" stroke-miterlimit="10" stroke-width="3" opacity="0.48" style="isolation:isolate"/></g><path d="M445.75,55.359h-41" fill="none" stroke="#b2b2b2" stroke-miterlimit="10" stroke-width="3" opacity="0.48" style="isolation:isolate"/></g><g opacity="0.49"><g opacity="0.49"><path d="M439.65,158.041l-37.8-17.3a1.848,1.848,0,0,1-1.1-1.7,2.031,2.031,0,0,1,1.1-1.7l37.8-17.5a1.9,1.9,0,0,1,1.8.1,1.763,1.763,0,0,1,.8,1.5v35a1.763,1.763,0,0,1-.8,1.5,1.929,1.929,0,0,1-1,.3A2.353,2.353,0,0,1,439.65,158.041Z" fill="none" stroke="#e5a600" stroke-miterlimit="10" stroke-width="3" opacity="0.49" style="isolation:isolate"/></g><path d="M441.75,138.359h-41" fill="none" stroke="#e5a600" stroke-miterlimit="10" stroke-width="3" opacity="0.49" style="isolation:isolate"/></g><path d="M206.65,311.541l-37.8-17.4a1.848,1.848,0,0,1-1.1-1.7,2.031,2.031,0,0,1,1.1-1.7l37.8-17.5a1.9,1.9,0,0,1,1.8.1,1.763,1.763,0,0,1,.8,1.5v35a1.763,1.763,0,0,1-.8,1.5,1.929,1.929,0,0,1-1,.3A2.2,2.2,0,0,1,206.65,311.541Z" fill="none" stroke="#b2b2b2" stroke-miterlimit="10" stroke-width="3"/><path d="M209.75,292.359h-42" fill="none" stroke="#b2b2b2" stroke-miterlimit="10" stroke-width="3"/><g opacity="0.48"><g opacity="0.48"><path d="M92.65,234.359l-37.8-17.5a1.848,1.848,0,0,1-1.1-1.7,2.031,2.031,0,0,1,1.1-1.7l37.8-17.5a1.9,1.9,0,0,1,1.8.1,1.763,1.763,0,0,1,.8,1.5v35a1.763,1.763,0,0,1-.8,1.5,1.929,1.929,0,0,1-1,.3Z" fill="none" stroke="#b2b2b2" stroke-miterlimit="10" stroke-width="3" opacity="0.48" style="isolation:isolate"/></g><path d="M94.75,215.359h-41" fill="none" stroke="#b2b2b2" stroke-miterlimit="10" stroke-width="3" opacity="0.48" style="isolation:isolate"/></g><path d="M103.65,71.941l-37.8-17.5a1.848,1.848,0,0,1-1.1-1.7,2.031,2.031,0,0,1,1.1-1.7l37.8-17.5a1.9,1.9,0,0,1,1.8.1,1.763,1.763,0,0,1,.8,1.5v35a1.763,1.763,0,0,1-.8,1.5,1.929,1.929,0,0,1-1,.3A2.152,2.152,0,0,0,103.65,71.941Z" fill="none" stroke="#ffcb40" stroke-miterlimit="10" stroke-width="3"/><path d="M105.75,52.359h-41" fill="none" stroke="#ffcb40" stroke-miterlimit="10" stroke-width="3"/><g opacity="0.48"><g opacity="0.48"><path d="M419.65,278.441l-37.8-17.5a1.848,1.848,0,0,1-1.1-1.7,2.031,2.031,0,0,1,1.1-1.7l37.8-17.5a1.9,1.9,0,0,1,1.8.1,1.763,1.763,0,0,1,.8,1.5v35a1.763,1.763,0,0,1-.8,1.5,1.929,1.929,0,0,1-1,.3A2.152,2.152,0,0,0,419.65,278.441Z" fill="none" stroke="#8ac5ed" stroke-miterlimit="10" stroke-width="3" opacity="0.48" style="isolation:isolate"/></g><path d="M421.75,259.359h-41" fill="none" stroke="#8ac5ed" stroke-miterlimit="10" stroke-width="3" opacity="0.48" style="isolation:isolate"/></g><path d="M370.65,331.641l-37.8-17.5a1.848,1.848,0,0,1-1.1-1.7,2.031,2.031,0,0,1,1.1-1.7l37.8-17.5a1.9,1.9,0,0,1,1.8.1,1.763,1.763,0,0,1,.8,1.5v35a1.763,1.763,0,0,1-.8,1.5,1.929,1.929,0,0,1-1,.3A2.152,2.152,0,0,0,370.65,331.641Z" fill="none" stroke="#ffcb40" stroke-miterlimit="10" stroke-width="3"/><path d="M373.75,312.359h-42" fill="none" stroke="#ffcb40" stroke-miterlimit="10" stroke-width="3"/><path d="M286.65,292.641l-37.8-17.5a1.848,1.848,0,0,1-1.1-1.7,2.031,2.031,0,0,1,1.1-1.7l37.8-17.5a1.9,1.9,0,0,1,1.8.1,1.763,1.763,0,0,1,.8,1.5v35a1.763,1.763,0,0,1-.8,1.5,1.929,1.929,0,0,1-1,.3A2.152,2.152,0,0,0,286.65,292.641Z" fill="none" stroke="#e5a600" stroke-miterlimit="10" stroke-width="3"/><path d="M288.75,273.359h-41" fill="none" stroke="#e5a600" stroke-miterlimit="10" stroke-width="3"/><path d="M168.65,245.359l-37.8-17.5a1.848,1.848,0,0,1-1.1-1.7,2.031,2.031,0,0,1,1.1-1.7l37.8-17.5a1.9,1.9,0,0,1,1.8.1,1.763,1.763,0,0,1,.8,1.5v35a1.763,1.763,0,0,1-.8,1.5,1.929,1.929,0,0,1-1,.3Z" fill="none" stroke="#ffcb40" stroke-miterlimit="10" stroke-width="3"/><path d="M171.75,226.359h-42" fill="none" stroke="#ffcb40" stroke-miterlimit="10" stroke-width="3"/><g opacity="0.48"><g opacity="0.48"><path d="M128.65,325.359l-37.8-17.5a1.848,1.848,0,0,1-1.1-1.7,2.031,2.031,0,0,1,1.1-1.7l37.8-17.5a1.9,1.9,0,0,1,1.8.1,1.763,1.763,0,0,1,.8,1.5v35a1.763,1.763,0,0,1-.8,1.5,1.929,1.929,0,0,1-1,.3Z" fill="none" stroke="#69afe5" stroke-miterlimit="10" stroke-width="3" opacity="0.48" style="isolation:isolate"/></g><path d="M130.75,306.359h-41" fill="none" stroke="#69afe5" stroke-miterlimit="10" stroke-width="3" opacity="0.48" style="isolation:isolate"/></g><path d="M250.651,55.441l-1.7,32.9" fill="none" stroke="#b2b2b2" stroke-miterlimit="10" stroke-width="2" stroke-dasharray="3 3"/><path d="M248.95,88.341l-4.3,85.7,136.2-80.9" fill="none" stroke="#666" stroke-miterlimit="10" stroke-width="2" stroke-dasharray="3 3"/><path d="M380.85,93.14l37.8-22.4" fill="none" stroke="#b2b2b2" stroke-miterlimit="10" stroke-width="2" stroke-dasharray="3 3"/><path d="M194.65,70.74l15.1,27.4" fill="none" stroke="#b2b2b2" stroke-miterlimit="10" stroke-width="2" stroke-dasharray="3 3"/><path d="M209.75,98.141l41.6,75.3,118.9-18" fill="none" stroke="#666" stroke-miterlimit="10" stroke-width="2" stroke-dasharray="3 3"/><path d="M370.25,155.44l37.4-5.7" fill="none" stroke="#b2b2b2" stroke-miterlimit="10" stroke-width="2" stroke-dasharray="3 3"/><path d="M250.651,170.04l84-91.3" fill="none" stroke="#666" stroke-miterlimit="10" stroke-width="2" stroke-dasharray="3 3"/><path d="M110.651,57.441l31,26.3" fill="none" stroke="#b2b2b2" stroke-miterlimit="10" stroke-width="2" stroke-dasharray="3 3"/><path d="M141.65,83.74l106.3,90.3,112.4,56.5" fill="none" stroke="#666" stroke-miterlimit="10" stroke-width="2" stroke-dasharray="3 3"/><path d="M360.351,230.541l30.3,15.2" fill="none" stroke="#b2b2b2" stroke-miterlimit="10" stroke-width="2" stroke-dasharray="3 3"/><path d="M349.35,298.741l-20.8-24.7" fill="none" stroke="#b2b2b2" stroke-miterlimit="10" stroke-width="2" stroke-dasharray="3 3"/><path d="M328.55,274.04l-83.9-100-100-47.3" fill="none" stroke="#666" stroke-miterlimit="10" stroke-width="2" stroke-dasharray="3 3"/><path d="M204.65,269.44l12.4-29.7" fill="none" stroke="#b2b2b2" stroke-miterlimit="10" stroke-width="2" stroke-dasharray="3 3"/><path d="M217.05,239.741l27.6-65.7,24.7,80" fill="none" stroke="#666" stroke-miterlimit="10" stroke-width="2" stroke-dasharray="3 3"/><path d="M99.351,212.04l31.8-8.6" fill="none" stroke="#b2b2b2" stroke-miterlimit="10" stroke-width="2" stroke-dasharray="3 3"/><path d="M131.15,203.44l110.2-30-64,45.3" fill="none" stroke="#666" stroke-miterlimit="10" stroke-width="2" stroke-dasharray="3 3"/><path d="M241.35,176.041l-83.3,102.4" fill="none" stroke="#666" stroke-miterlimit="10" stroke-width="2" stroke-dasharray="3 3"/><path d="M158.05,278.44l-21.4,26.3" fill="none" stroke="#b2b2b2" stroke-miterlimit="10" stroke-width="2" stroke-dasharray="3 3"/><path d="M300.55,239.34l-134-62.1a6.48,6.48,0,0,1,0-11.8l134-62.1a6.256,6.256,0,0,1,6.2.4,6.5,6.5,0,0,1,3,5.5v124.2a6.45,6.45,0,0,1-6.5,6.5A6.264,6.264,0,0,1,300.55,239.34Z" fill="#69afe5"/><path d="M162.75,170.859v.3a6.6,6.6,0,0,0,3.8,5.9l134,62.1a6.264,6.264,0,0,0,2.7.6,6.45,6.45,0,0,0,6.5-6.5v-62.4Z" fill="#8ac5ed"/><path d="M378.65,202.941l-37.8-17.5a1.848,1.848,0,0,1-1.1-1.7,2.031,2.031,0,0,1,1.1-1.7l37.8-17.5a1.9,1.9,0,0,1,1.8.1,1.763,1.763,0,0,1,.8,1.5v35a1.763,1.763,0,0,1-.8,1.5,1.929,1.929,0,0,1-1,.3A2.152,2.152,0,0,0,378.65,202.941Z" fill="none" stroke="#69afe5" stroke-miterlimit="10" stroke-width="3"/><path d="M380.75,183.359h-41" fill="none" stroke="#69afe5" stroke-miterlimit="10" stroke-width="3"/></svg>