<svg xmlns="http://www.w3.org/2000/svg" viewBox="0 0 636 300"><title>swimlane-processing-data-multi-server</title><polygon points="284.884 151.667 328.384 122.167 373.551 152.167 329.884 181 284.884 151.667" fill="#f57800"/><polygon points="328.718 122.388 328.385 122.167 284.885 151.667 328.718 180.24 328.718 122.388" fill="#ec6401"/><polygon points="342.551 172.406 342.551 147.167 337.135 143.49 337.135 176.032 342.551 172.406" fill="#ffb900"/><polygon points="355.342 149.903 349.925 153.58 349.925 179.833 355.342 176.156 355.342 149.903" fill="#69afe5"/><polygon points="324.925 150.903 330.342 154.58 330.342 180.833 324.925 177.156 324.925 150.903" fill="#9080cf"/><polygon points="313.472 16.144 308.055 19.821 308.055 46.075 313.472 42.398 313.472 16.144" fill="none"/><polygon points="346.823 87.122 338.261 81.309 338.261 39.809 346.823 45.622 346.823 87.122" fill="#ffb900"/><line x1="344.884" y1="132.667" x2="474.051" y2="48.167" fill="none" stroke="#b2b2b2" stroke-miterlimit="10" stroke-width="1.5"/><polyline points="361.884 158.333 437.884 109.833 490.801 144 558.551 100.5" fill="none" stroke="#b2b2b2" stroke-miterlimit="10" stroke-width="1.5"/><polyline points="348.051 191.5 449.551 258.833 487.051 234.667" fill="none" stroke="#b2b2b2" stroke-miterlimit="10" stroke-width="1.5"/><line x1="317.551" y1="199.25" x2="231.218" y2="257" fill="none" stroke="#b2b2b2" stroke-miterlimit="10" stroke-width="1.5"/><polyline points="303.551 183.5 251.051 217.5 168.801 163.25 95.218 209.667" fill="none" stroke="#b2b2b2" stroke-miterlimit="10" stroke-width="1.5"/><polyline points="313.218 132.5 222.551 75 261.551 51.333" fill="none" stroke="#b2b2b2" stroke-miterlimit="10" stroke-width="1.5"/><polyline points="288.551 161.5 173.384 85.5 120.051 119.5 75.051 90" fill="none" stroke="#b2b2b2" stroke-miterlimit="10" stroke-width="1.5"/><polyline points="155.551 103 172.932 91.691 212.266 117.858" fill="none" stroke="#d2d2d2" stroke-miterlimit="10" stroke-width="2" stroke-dasharray="2.13 2.13"/><line x1="269.932" y1="237.024" x2="309.551" y2="210.25" fill="none" stroke="#d2d2d2" stroke-miterlimit="10" stroke-width="2" stroke-dasharray="2.13 2.13"/><polyline points="422.884 233 450.766 251.191 466.051 241.5" fill="none" stroke="#d2d2d2" stroke-miterlimit="10" stroke-width="2" stroke-dasharray="2.13 2.13"/><line x1="522.432" y1="117.191" x2="499.932" y2="131.691" fill="none" stroke="#d2d2d2" stroke-miterlimit="10" stroke-width="2" stroke-dasharray="2.13 2.13"/><path d="M328.269,118.46l-50.593,33.376,52.313,34.414,50.654-33.818Zm1.5,58.25-38.619-25.4L328.5,126.667l38.664,25.078Z" fill="#d2d2d2"/><polygon points="277.676 151.875 277.676 183.928 330.083 217.833 330.083 186.226 277.676 151.875" fill="#b2b2b2"/><polygon points="380.676 152.323 330.083 186.057 330.083 217.576 380.676 184.201 380.676 152.323" fill="#939393"/><polygon points="258.849 44.423 258.849 70.999 281.849 55.94 281.693 29.416 258.849 44.423" fill="#f57800"/><polygon points="258.849 44.454 258.849 70.888 236.849 56.375 236.694 29.681 258.849 44.454" fill="#ff8c00"/><polygon points="258.801 44.5 281.241 29.588 259.416 15.191 236.823 29.845 258.801 44.5" fill="#ffb900"/><polygon points="220.574 285.996 220.926 293.794 253.384 272.559 252.87 264.586 220.574 285.996" fill="#409ae1"/><polygon points="220.651 286.035 220.926 293.635 189.101 272.61 188.972 264.894 220.651 286.035" fill="#69afe5"/><polygon points="220.574 286.041 252.861 264.585 221.458 243.869 188.949 264.955 220.574 286.041" fill="#7bc0ef"/><polygon points="220.416 249.979 220.701 280.921 247.009 263.708 246.593 232.625 220.416 249.979" fill="#409ae1"/><polygon points="220.478 250.01 220.701 280.791 194.905 263.75 194.801 232.875 220.478 250.01" fill="#69afe5"/><polygon points="220.415 250.016 246.585 232.625 221.132 215.833 194.782 232.924 220.415 250.016" fill="#7bc0ef"/><polygon points="438.063 125.68 438.415 133.478 470.873 112.242 470.359 104.269 438.063 125.68" fill="#724aad"/><polygon points="438.14 125.719 438.415 133.318 406.589 112.294 406.461 104.578 438.14 125.719" fill="#9080cf"/><polygon points="438.062 125.725 470.35 104.269 438.947 83.553 406.438 104.639 438.062 125.725" fill="#b4a0ff"/><polygon points="437.904 89.663 438.19 120.604 464.498 103.392 464.081 72.309 437.904 89.663" fill="#724aad"/><polygon points="437.967 89.694 438.19 120.475 412.394 103.434 412.29 72.559 437.967 89.694" fill="#9080cf"/><polygon points="437.904 89.699 464.074 72.308 438.62 55.517 412.271 72.608 437.904 89.699" fill="#b4a0ff"/><polygon points="495.741 244.33 496.093 252.128 528.551 230.892 528.037 222.919 495.741 244.33" fill="#f57800"/><polygon points="495.818 244.368 496.093 251.968 464.267 230.943 464.139 223.227 495.818 244.368" fill="#ff8c00"/><polygon points="495.74 244.375 528.028 222.919 496.625 202.202 464.116 223.288 495.74 244.375" fill="#ffb900"/><polygon points="495.582 188.313 495.868 239.254 522.176 222.042 521.759 170.958 495.582 188.313" fill="#f57800"/><polygon points="495.645 188.344 495.868 239.125 470.072 222.083 469.968 171.208 495.645 188.344" fill="#ff8c00"/><polygon points="495.582 188.349 521.752 170.958 496.299 154.167 469.949 171.258 495.582 188.349" fill="#ffb900"/><polygon points="82.96 111.731 83.312 119.529 115.771 98.293 115.256 90.32 82.96 111.731" fill="#409ae1"/><polygon points="83.038 111.769 83.312 119.369 51.487 98.344 51.358 90.628 83.038 111.769" fill="#69afe5"/><polygon points="82.96 111.776 115.247 90.32 83.844 69.603 51.335 90.69 82.96 111.776" fill="#7bc0ef"/><polygon points="82.802 55.714 83.087 106.655 109.396 89.443 108.979 38.359 82.802 55.714" fill="#409ae1"/><polygon points="82.864 55.745 83.087 106.526 57.291 89.484 57.187 38.609 82.864 55.745" fill="#69afe5"/><polygon points="82.801 55.75 108.972 38.359 83.518 21.568 57.169 38.659 82.801 55.75" fill="#7bc0ef"/><polygon points="94.182 203.757 94.182 230.332 117.182 215.273 117.027 188.749 94.182 203.757" fill="#724aad"/><polygon points="94.182 203.787 94.182 230.221 72.182 215.708 72.027 189.015 94.182 203.787" fill="#9080cf"/><polygon points="94.301 203.938 117.114 188.813 94.749 174.524 71.989 189.063 94.301 203.938" fill="#b4a0ff"/><polygon points="168.682 153.84 168.682 180.416 191.682 165.356 191.527 138.833 168.682 153.84" fill="#939393"/><polygon points="168.682 153.87 168.682 180.305 146.682 165.792 146.527 139.098 168.682 153.87" fill="#b2b2b2"/><polygon points="168.634 153.917 191.074 139.005 169.249 124.608 146.656 139.262 168.634 153.917" fill="#d2d2d2"/><polygon points="565.682 86.09 565.682 112.666 588.682 97.606 588.527 71.083 565.682 86.09" fill="#409ae1"/><polygon points="565.682 86.12 565.682 112.555 543.682 98.042 543.527 71.348 565.682 86.12" fill="#69afe5"/><polygon points="565.634 86.167 588.074 71.255 566.249 56.858 543.656 71.512 565.634 86.167" fill="#7bc0ef"/><polygon points="478.099 36.507 478.099 63.082 501.099 48.023 500.943 21.499 478.099 36.507" fill="#939393"/><polygon points="478.099 36.537 478.099 62.971 456.099 48.458 455.944 21.765 478.099 36.537" fill="#b2b2b2"/><polygon points="478.051 36.583 500.491 21.672 478.666 7.274 456.073 21.929 478.051 36.583" fill="#d2d2d2"/><polygon points="310.989 159.032 302.427 153.219 302.427 111.719 310.989 117.532 310.989 159.032" fill="#69afe5"/><polygon points="324.218 120.136 318.801 116.459 318.801 90.206 324.218 93.883 324.218 120.136" fill="#d2d2d2"/><polygon points="350.912 147.754 342.35 141.942 342.35 100.442 350.912 106.254 350.912 147.754" fill="#69afe5"/><polygon points="331.884 82.396 326.468 78.719 326.468 52.466 331.884 56.143 331.884 82.396" fill="#69afe5"/><polygon points="359.718 59.979 354.301 56.302 354.301 30.049 359.718 33.726 359.718 59.979" fill="#69afe5"/><polygon points="318.412 86.066 309.85 80.254 309.85 38.754 318.412 44.566 318.412 86.066" fill="#69afe5"/><polygon points="361.718 144.071 356.301 140.394 356.301 114.141 361.718 117.818 361.718 144.071" fill="#ffb900"/><polygon points="319.999 154.51 314.582 150.833 314.582 124.58 319.999 128.257 319.999 154.51" fill="#ffb900"/><polygon points="360.832 25.523 352.27 31.336 352.27 72.836 360.832 67.023 360.832 25.523" fill="none"/><polygon points="348.884 66.088 343.468 69.765 343.468 96.018 348.884 92.341 348.884 66.088" fill="#9080cf"/><polygon points="362.009 83.406 356.593 87.083 356.593 113.336 362.009 109.659 362.009 83.406" fill="#d2d2d2"/><polygon points="335.912 86.982 327.35 92.794 327.35 134.294 335.912 128.482 335.912 86.982" fill="#9080cf"/><polygon points="346.012 6.535 340.595 10.212 340.595 36.465 346.012 32.788 346.012 6.535" fill="#9080cf"/><polygon points="323.04 23.165 317.623 26.842 317.623 53.095 323.04 49.418 323.04 23.165" fill="#ffb900"/><polygon points="307.425 67.986 302.008 71.663 302.008 97.916 307.425 94.239 307.425 67.986" fill="#9080cf"/><polygon points="330.706 31.345 325.29 27.668 325.29 1.415 330.706 5.092 330.706 31.345" fill="#d2d2d2"/><line x1="406.432" y1="86.191" x2="383.932" y2="100.691" fill="none" stroke="#d2d2d2" stroke-miterlimit="10" stroke-width="2" stroke-dasharray="2.13 2.13"/></svg>