<svg width="636" height="300" viewBox="0 0 636 300" fill="none" xmlns="http://www.w3.org/2000/svg">
<path d="M287.344 95.5H103.656C100.808 95.5 98.5 97.8084 98.5 100.656V238.344C98.5 241.192 100.808 243.5 103.656 243.5H287.344C290.192 243.5 292.5 241.192 292.5 238.344V100.656C292.5 97.8084 290.192 95.5 287.344 95.5Z" fill="#B5D5EA"/>
<path d="M98.5 146.75V238.344C98.5003 239.711 99.0436 241.023 100.01 241.99C100.977 242.956 102.289 243.5 103.656 243.5H195.25L98.5 146.75Z" fill="#99C5E0"/>
<path d="M233.5 120.5H150.5V129.5H233.5V120.5Z" fill="#69AFE5"/>
<path d="M243.5 149.5H150.5V158.5H243.5V149.5Z" fill="#69AFE5"/>
<path d="M220.5 178.5H150.5V187.5H220.5V178.5Z" fill="#69AFE5"/>
<path d="M135.674 116H123.326C121.489 116 120 117.489 120 119.326V131.674C120 133.511 121.489 135 123.326 135H135.674C137.511 135 139 133.511 139 131.674V119.326C139 117.489 137.511 116 135.674 116Z" fill="white"/>
<path d="M135.675 135.5H123.325C122.311 135.499 121.339 135.096 120.621 134.379C119.904 133.661 119.501 132.689 119.5 131.675V119.325C119.501 118.311 119.904 117.339 120.621 116.621C121.339 115.904 122.311 115.501 123.325 115.5H135.675C136.689 115.501 137.661 115.904 138.379 116.621C139.096 117.339 139.499 118.311 139.5 119.325V131.675C139.499 132.689 139.096 133.661 138.379 134.379C137.661 135.096 136.689 135.499 135.675 135.5ZM123.325 116.5C122.576 116.501 121.858 116.799 121.329 117.329C120.799 117.858 120.501 118.576 120.5 119.325V131.675C120.501 132.424 120.799 133.142 121.329 133.671C121.858 134.201 122.576 134.499 123.325 134.5H135.675C136.424 134.499 137.142 134.201 137.671 133.671C138.201 133.142 138.499 132.424 138.5 131.675V119.325C138.499 118.576 138.201 117.858 137.671 117.329C137.142 116.799 136.424 116.501 135.675 116.5H123.325Z" fill="#737373"/>
<path d="M135.674 145H123.326C121.489 145 120 146.489 120 148.326V160.674C120 162.511 121.489 164 123.326 164H135.674C137.511 164 139 162.511 139 160.674V148.326C139 146.489 137.511 145 135.674 145Z" fill="white"/>
<path d="M135.675 164.5H123.325C122.311 164.499 121.339 164.096 120.621 163.379C119.904 162.661 119.501 161.689 119.5 160.675V148.325C119.501 147.311 119.904 146.339 120.621 145.621C121.339 144.904 122.311 144.501 123.325 144.5H135.675C136.689 144.501 137.661 144.904 138.379 145.621C139.096 146.339 139.499 147.311 139.5 148.325V160.675C139.499 161.689 139.096 162.661 138.379 163.379C137.661 164.096 136.689 164.499 135.675 164.5ZM123.325 145.5C122.576 145.501 121.858 145.799 121.329 146.329C120.799 146.858 120.501 147.576 120.5 148.325V160.675C120.501 161.424 120.799 162.142 121.329 162.671C121.858 163.201 122.576 163.499 123.325 163.5H135.675C136.424 163.499 137.142 163.201 137.671 162.671C138.201 162.142 138.499 161.424 138.5 160.675V148.325C138.499 147.576 138.201 146.858 137.671 146.329C137.142 145.799 136.424 145.501 135.675 145.5H123.325Z" fill="#737373"/>
<path d="M135.674 174H123.326C121.489 174 120 175.489 120 177.326V189.674C120 191.511 121.489 193 123.326 193H135.674C137.511 193 139 191.511 139 189.674V177.326C139 175.489 137.511 174 135.674 174Z" fill="white"/>
<path d="M135.675 193.5H123.325C122.311 193.499 121.339 193.096 120.621 192.379C119.904 191.661 119.501 190.689 119.5 189.675V177.325C119.501 176.311 119.904 175.339 120.621 174.621C121.339 173.904 122.311 173.501 123.325 173.5H135.675C136.689 173.501 137.661 173.904 138.379 174.621C139.096 175.339 139.499 176.311 139.5 177.325V189.675C139.499 190.689 139.096 191.661 138.379 192.379C137.661 193.096 136.689 193.499 135.675 193.5ZM123.325 174.5C122.576 174.501 121.858 174.799 121.329 175.329C120.799 175.858 120.501 176.576 120.5 177.325V189.675C120.501 190.424 120.799 191.142 121.329 191.671C121.858 192.201 122.576 192.499 123.325 192.5H135.675C136.424 192.499 137.142 192.201 137.671 191.671C138.201 191.142 138.499 190.424 138.5 189.675V177.325C138.499 176.576 138.201 175.858 137.671 175.329C137.142 174.799 136.424 174.501 135.675 174.5H123.325Z" fill="#737373"/>
<path d="M135.674 203H123.326C121.489 203 120 204.489 120 206.326V218.674C120 220.511 121.489 222 123.326 222H135.674C137.511 222 139 220.511 139 218.674V206.326C139 204.489 137.511 203 135.674 203Z" fill="white"/>
<path d="M135.675 222.5H123.325C122.311 222.499 121.339 222.096 120.621 221.379C119.904 220.661 119.501 219.689 119.5 218.675V206.325C119.501 205.311 119.904 204.339 120.621 203.621C121.339 202.904 122.311 202.501 123.325 202.5H135.675C136.689 202.501 137.661 202.904 138.379 203.621C139.096 204.339 139.499 205.311 139.5 206.325V218.675C139.499 219.689 139.096 220.661 138.379 221.379C137.661 222.096 136.689 222.499 135.675 222.5ZM123.325 203.5C122.576 203.501 121.858 203.799 121.329 204.329C120.799 204.858 120.501 205.576 120.5 206.325V218.675C120.501 219.424 120.799 220.142 121.329 220.671C121.858 221.201 122.576 221.499 123.325 221.5H135.675C136.424 221.499 137.142 221.201 137.671 220.671C138.201 220.142 138.499 219.424 138.5 218.675V206.325C138.499 205.576 138.201 204.858 137.671 204.329C137.142 203.799 136.424 203.501 135.675 203.5H123.325Z" fill="#737373"/>
<path d="M243.5 207.5H150.5V216.5H243.5V207.5Z" fill="#69AFE5"/>
<path d="M128.363 131.01L122.801 125.827L124.001 124.539L128.122 128.379L134.137 120.258L135.552 121.305L128.363 131.01Z" fill="#939393"/>
<path d="M128.362 131.51C128.236 131.51 128.114 131.462 128.021 131.376L122.46 126.193C122.412 126.148 122.373 126.094 122.346 126.035C122.319 125.975 122.303 125.91 122.301 125.845C122.299 125.779 122.309 125.714 122.332 125.652C122.355 125.59 122.39 125.534 122.435 125.486L123.635 124.198C123.726 124.102 123.851 124.045 123.983 124.039C124.115 124.039 124.243 124.086 124.342 124.173L128.054 127.632L133.735 119.96C133.815 119.854 133.933 119.784 134.064 119.765C134.196 119.746 134.329 119.78 134.435 119.86L135.85 120.908C135.956 120.988 136.026 121.106 136.045 121.237C136.064 121.369 136.03 121.502 135.95 121.608L128.762 131.308C128.72 131.365 128.667 131.412 128.605 131.446C128.544 131.48 128.476 131.502 128.406 131.508L128.362 131.51ZM123.507 125.802L128.294 130.263L134.852 121.41L134.24 120.957L128.522 128.677C128.48 128.733 128.427 128.78 128.366 128.815C128.305 128.849 128.237 128.87 128.167 128.877C128.097 128.882 128.027 128.873 127.96 128.85C127.894 128.827 127.833 128.792 127.78 128.745L124.025 125.245L123.507 125.802Z" fill="#939393"/>
<path d="M128.363 160.058L122.801 154.875L124.001 153.588L128.122 157.427L134.137 149.306L135.552 150.354L128.363 160.058Z" fill="#939393"/>
<path d="M128.362 160.559C128.236 160.559 128.114 160.511 128.021 160.425L122.46 155.241C122.412 155.196 122.373 155.143 122.346 155.083C122.319 155.023 122.303 154.958 122.301 154.893C122.299 154.827 122.309 154.762 122.332 154.7C122.355 154.639 122.39 154.582 122.435 154.534L123.635 153.247C123.68 153.199 123.734 153.16 123.793 153.133C123.853 153.106 123.918 153.09 123.983 153.088C124.049 153.086 124.115 153.096 124.176 153.119C124.238 153.142 124.294 153.177 124.342 153.222L128.054 156.68L133.735 149.009C133.775 148.957 133.824 148.912 133.88 148.879C133.937 148.845 133.999 148.823 134.064 148.814C134.129 148.805 134.196 148.808 134.259 148.825C134.323 148.841 134.383 148.87 134.435 148.909L135.85 149.957C135.956 150.037 136.026 150.155 136.045 150.286C136.064 150.418 136.03 150.551 135.95 150.657L128.762 160.357C128.72 160.414 128.667 160.461 128.605 160.495C128.544 160.53 128.476 160.551 128.406 160.557L128.362 160.559ZM123.508 154.85L128.294 159.312L134.852 150.459L134.24 150.006L128.522 157.725C128.48 157.781 128.427 157.828 128.366 157.863C128.305 157.897 128.237 157.919 128.167 157.925C128.097 157.931 128.027 157.922 127.96 157.899C127.893 157.876 127.832 157.84 127.78 157.793L124.025 154.293L123.508 154.85Z" fill="#939393"/>
<path d="M469.175 194.5H272.825C269.884 194.5 267.5 196.884 267.5 199.825V222.175C267.5 225.116 269.884 227.5 272.825 227.5H469.175C472.116 227.5 474.5 225.116 474.5 222.175V199.825C474.5 196.884 472.116 194.5 469.175 194.5Z" fill="#E8F2F9"/>
<path d="M469.175 194.5H272.825C269.884 194.5 267.5 196.884 267.5 199.825V222.175C267.5 225.116 269.884 227.5 272.825 227.5H469.175C472.116 227.5 474.5 225.116 474.5 222.175V199.825C474.5 196.884 472.116 194.5 469.175 194.5Z" fill="#E6E6E6"/>
<path d="M271.5 202.531C271.5 199.5 272.5 198.5 275.554 198.5H474.381C474.083 197.352 473.411 196.336 472.472 195.612C471.533 194.888 470.38 194.497 469.194 194.5H273.263C269.5 194.5 267.5 196.5 267.5 199.805V222.024C267.418 223.261 267.774 224.488 268.505 225.489C269.236 226.49 270.296 227.202 271.5 227.5V202.531Z" fill="#C2C2C2"/>
<path d="M469.2 194.5H431.5V227.5H469.194C469.891 227.5 470.581 227.363 471.225 227.096C471.868 226.83 472.453 226.439 472.946 225.946C473.439 225.453 473.83 224.868 474.096 224.225C474.363 223.581 474.5 222.891 474.5 222.194V199.805C474.501 199.109 474.364 198.419 474.098 197.775C473.832 197.132 473.442 196.547 472.949 196.054C472.457 195.561 471.873 195.171 471.229 194.904C470.586 194.637 469.896 194.5 469.2 194.5Z" fill="#4393D4"/>
<path d="M431.5 210.5V227.5H469.194C469.891 227.5 470.581 227.363 471.225 227.096C471.868 226.83 472.453 226.439 472.946 225.946C473.439 225.453 473.83 224.868 474.096 224.225C474.363 223.581 474.5 222.891 474.5 222.194V210.5H431.5Z" fill="#2D83CB"/>
<path d="M459.826 219.168L461.057 217.937L456.41 213.29C457.431 211.957 457.907 210.285 457.741 208.614C457.575 206.943 456.78 205.398 455.517 204.291C454.254 203.185 452.617 202.6 450.939 202.655C449.261 202.711 447.666 203.402 446.479 204.59C445.291 205.777 444.6 207.371 444.545 209.05C444.489 210.728 445.074 212.364 446.181 213.627C447.287 214.891 448.832 215.686 450.503 215.851C452.174 216.017 453.846 215.542 455.179 214.521L459.826 219.168ZM447.715 212.72C447.033 212.038 446.569 211.17 446.381 210.224C446.193 209.279 446.29 208.299 446.659 207.408C447.028 206.518 447.652 205.756 448.454 205.221C449.255 204.685 450.198 204.4 451.162 204.4C452.126 204.4 453.068 204.685 453.869 205.221C454.671 205.756 455.296 206.518 455.665 207.408C456.033 208.299 456.13 209.279 455.942 210.224C455.754 211.17 455.29 212.038 454.608 212.72C453.693 213.633 452.454 214.145 451.162 214.145C449.869 214.145 448.63 213.633 447.715 212.72Z" fill="white"/>
<path d="M527.558 61.282H362.442C360.265 61.282 358.5 63.0469 358.5 65.224V136.34C358.5 138.517 360.265 140.282 362.442 140.282H527.558C529.735 140.282 531.5 138.517 531.5 136.34V65.224C531.5 63.0469 529.735 61.282 527.558 61.282Z" fill="#E6E6E6"/>
<path d="M497.5 78.5H405.5V87.5H497.5V78.5Z" fill="#C2C2C2"/>
<path d="M497.5 113.5H405.5V122.5H497.5V113.5Z" fill="#C2C2C2"/>
<path d="M386.04 94.177C387.9 94.177 389.719 93.6253 391.266 92.5917C392.813 91.558 394.019 90.0888 394.731 88.3699C395.443 86.651 395.629 84.7596 395.266 82.9348C394.903 81.11 394.007 79.4339 392.692 78.1183C391.376 76.8027 389.7 75.9068 387.875 75.5438C386.05 75.1808 384.159 75.3671 382.44 76.0791C380.721 76.7911 379.252 77.9968 378.218 79.5438C377.185 81.0908 376.633 82.9095 376.633 84.77C376.633 86.0054 376.876 87.2287 377.349 88.3701C377.821 89.5115 378.514 90.5485 379.388 91.4221C380.261 92.2956 381.298 92.9885 382.44 93.4612C383.581 93.9339 384.804 94.1772 386.04 94.177Z" fill="white"/>
<path d="M386.04 128.383C387.9 128.383 389.719 127.831 391.266 126.798C392.813 125.764 394.019 124.295 394.731 122.576C395.443 120.857 395.629 118.966 395.266 117.141C394.903 115.316 394.007 113.64 392.692 112.324C391.376 111.009 389.7 110.113 387.875 109.75C386.05 109.387 384.159 109.573 382.44 110.285C380.721 110.997 379.252 112.203 378.218 113.75C377.185 115.297 376.633 117.116 376.633 118.976C376.633 120.211 376.876 121.435 377.349 122.576C377.821 123.718 378.514 124.755 379.388 125.628C380.261 126.502 381.298 127.195 382.44 127.667C383.581 128.14 384.804 128.383 386.04 128.383Z" fill="white"/>
<path d="M390.999 84.6C390.995 85.9596 390.453 87.2624 389.492 88.2238C388.531 89.1852 387.228 89.727 385.868 89.731C385.191 89.7435 384.518 89.6193 383.89 89.3658C383.262 89.1124 382.691 88.7349 382.212 88.256C381.733 87.777 381.356 87.2064 381.102 86.5782C380.849 85.95 380.725 85.2772 380.737 84.6C380.737 83.2392 381.278 81.9341 382.24 80.9718C383.202 80.0096 384.507 79.469 385.868 79.469C387.229 79.469 388.534 80.0096 389.496 80.9718C390.459 81.9341 390.999 83.2392 390.999 84.6Z" fill="#69AFE5"/>
<path d="M385.869 95.032C383.805 95.0324 381.788 94.4208 380.072 93.2746C378.356 92.1285 377.018 90.4991 376.228 88.5927C375.438 86.6863 375.231 84.5885 375.634 82.5645C376.036 80.5405 377.03 78.6814 378.489 77.2221C379.948 75.7629 381.807 74.7691 383.831 74.3665C385.855 73.9639 387.953 74.1705 389.859 74.9603C391.766 75.75 393.395 77.0874 394.542 78.8033C395.688 80.5191 396.3 82.5364 396.3 84.6C396.289 87.3632 395.186 90.01 393.232 91.964C391.278 93.9179 388.632 95.0207 385.869 95.032ZM385.869 75.877C384.143 75.8768 382.457 76.3883 381.022 77.3467C379.587 78.3051 378.469 79.6674 377.809 81.2614C377.148 82.8554 376.976 84.6094 377.312 86.3015C377.649 87.9937 378.48 89.5481 379.7 90.7681C380.92 91.9881 382.474 92.8189 384.166 93.1555C385.858 93.492 387.612 93.3192 389.206 92.6588C390.8 91.9985 392.163 90.8803 393.121 89.4456C394.079 88.011 394.591 86.3244 394.591 84.599C394.6 83.451 394.381 82.3125 393.946 81.2499C393.511 80.1874 392.869 79.2221 392.057 78.4102C391.246 77.5984 390.28 76.9563 389.218 76.5214C388.155 76.0865 387.017 75.8674 385.869 75.877Z" fill="#6597BF"/>
<path d="M385.869 129.238C383.805 129.238 381.788 128.627 380.072 127.481C378.356 126.335 377.018 124.705 376.228 122.799C375.438 120.893 375.231 118.795 375.634 116.771C376.036 114.747 377.03 112.888 378.489 111.429C379.948 109.969 381.807 108.975 383.831 108.573C385.854 108.17 387.952 108.376 389.859 109.166C391.765 109.956 393.395 111.293 394.541 113.009C395.688 114.724 396.3 116.742 396.3 118.805C396.289 121.568 395.186 124.216 393.233 126.17C391.279 128.124 388.632 129.227 385.869 129.238ZM385.869 110.083C384.144 110.083 382.457 110.595 381.023 111.553C379.589 112.511 378.471 113.874 377.811 115.467C377.15 117.061 376.978 118.815 377.314 120.507C377.651 122.199 378.481 123.753 379.701 124.972C380.921 126.192 382.475 127.023 384.167 127.359C385.859 127.696 387.613 127.523 389.206 126.863C390.8 126.203 392.162 125.085 393.121 123.651C394.079 122.216 394.591 120.53 394.591 118.805C394.6 117.657 394.381 116.518 393.947 115.456C393.512 114.393 392.87 113.428 392.058 112.616C391.246 111.804 390.28 111.162 389.218 110.727C388.155 110.292 387.017 110.073 385.869 110.083Z" fill="#6597BF"/>
<path d="M402.285 135.5H311.715C308.835 135.5 306.5 137.835 306.5 140.715V175.285C306.5 178.165 308.835 180.5 311.715 180.5H402.285C405.165 180.5 407.5 178.165 407.5 175.285V140.715C407.5 137.835 405.165 135.5 402.285 135.5Z" fill="#939393"/>
<path d="M306.5 158.5V176.274C306.5 177.66 307.051 178.989 308.031 179.969C309.011 180.949 310.34 181.5 311.726 181.5H402.274C403.66 181.5 404.989 180.949 405.969 179.969C406.949 178.989 407.5 177.66 407.5 176.274V158.5H306.5Z" fill="#737373"/>
<path d="M402.285 181.5H311.715C310.068 181.498 308.488 180.843 307.324 179.678C306.159 178.513 305.504 176.934 305.502 175.287V140.717C305.504 139.07 306.159 137.49 307.324 136.326C308.488 135.161 310.068 134.506 311.715 134.504H402.285C403.932 134.506 405.511 135.161 406.676 136.326C407.841 137.49 408.496 139.07 408.498 140.717V175.287C408.496 176.934 407.841 178.513 406.676 179.678C405.511 180.843 403.932 181.498 402.285 181.5ZM311.715 136.5C310.597 136.501 309.525 136.946 308.735 137.736C307.944 138.527 307.499 139.599 307.498 140.717V175.287C307.499 176.405 307.944 177.477 308.735 178.267C309.525 179.058 310.597 179.503 311.715 179.504H402.285C403.403 179.503 404.475 179.058 405.265 178.267C406.056 177.477 406.501 176.405 406.502 175.287V140.717C406.501 139.599 406.056 138.527 405.265 137.736C404.475 136.946 403.403 136.501 402.285 136.5H311.715Z" fill="#E6E6E6"/>
<path d="M346.239 169.754C344.886 169.813 343.537 169.58 342.282 169.072C341.027 168.564 339.896 167.792 338.966 166.809C337.093 164.708 336.113 161.96 336.234 159.148C336.083 156.194 337.081 153.297 339.018 151.062C339.987 150.046 341.164 149.251 342.468 148.73C343.772 148.209 345.173 147.976 346.576 148.045C347.904 147.992 349.229 148.226 350.459 148.731C351.689 149.237 352.795 150.002 353.703 150.974C355.56 153.082 356.528 155.828 356.403 158.635C356.564 161.601 355.573 164.514 353.635 166.765C352.688 167.764 351.538 168.548 350.262 169.064C348.986 169.58 347.614 169.815 346.239 169.754ZM346.4 151.106C345.505 151.081 344.616 151.263 343.802 151.636C342.988 152.009 342.271 152.565 341.706 153.259C340.537 154.911 339.905 156.882 339.896 158.905C339.886 160.929 340.5 162.906 341.654 164.568C342.201 165.257 342.902 165.81 343.701 166.181C344.499 166.552 345.373 166.732 346.254 166.707C347.149 166.749 348.043 166.588 348.868 166.235C349.692 165.883 350.426 165.348 351.015 164.671C352.265 163.044 352.884 161.019 352.758 158.971C352.891 156.895 352.292 154.837 351.066 153.156C350.499 152.477 349.783 151.939 348.973 151.583C348.164 151.227 347.283 151.064 346.4 151.106Z" fill="white"/>
<path d="M375.46 169.5H370.92L363.611 159.793C363.337 159.431 363.171 159.187 363.111 159.5H362.5V169.5H359.5V148.5H362.5V158.5H363.113C363.201 158.148 363.372 157.822 363.613 157.551L370.659 148.5H374.832L366.588 158.575L375.46 169.5Z" fill="white"/>
<path d="M326.767 25.5H231.233C226.962 25.5 223.5 28.9622 223.5 33.233V105.767C223.5 110.038 226.962 113.5 231.233 113.5H326.767C331.038 113.5 334.5 110.038 334.5 105.767V33.233C334.5 28.9622 331.038 25.5 326.767 25.5Z" fill="#FFCB40"/>
<path d="M326.714 25.5H231.286C229.221 25.5 227.241 26.3203 225.78 27.7805C224.32 29.2406 223.5 31.221 223.5 33.286V41.5H334.5V33.286C334.5 31.221 333.68 29.2406 332.22 27.7805C330.759 26.3203 328.779 25.5 326.714 25.5Z" fill="#DB9D00"/>
<path d="M252.5 87.5H238.5V101.5H252.5V87.5Z" fill="white"/>
<path d="M275.5 87.5H261.5V101.5H275.5V87.5Z" fill="white"/>
<path d="M298.5 87.5H284.5V101.5H298.5V87.5Z" fill="white"/>
<path d="M252.5 68.5H238.5V82.5H252.5V68.5Z" fill="white"/>
<path d="M321.5 87.5H307.5V101.5H321.5V87.5Z" fill="white"/>
<path d="M275.5 68.5H261.5V82.5H275.5V68.5Z" fill="white"/>
<path d="M298.5 68.5H284.5V82.5H298.5V68.5Z" fill="white"/>
<path d="M321.5 68.5H307.5V82.5H321.5V68.5Z" fill="white"/>
<path d="M275.5 48.5H261.5V62.5H275.5V48.5Z" fill="#939393"/>
<path d="M298.5 48.5H284.5V62.5H298.5V48.5Z" fill="white"/>
<path d="M321.5 48.5H307.5V62.5H321.5V48.5Z" fill="white"/>
<path d="M244.5 21.5H238.5V34.5H244.5V21.5Z" fill="#939393"/>
<path d="M322.5 21.5H315.5V35.5H322.5V21.5Z" fill="#939393"/>
</svg>
