<svg xmlns="http://www.w3.org/2000/svg" viewBox="0 0 636 300"><title>swimlane-dotnet-platform</title><rect x="61.737" y="17" width="502" height="267" fill="#7b91a0"/><rect x="59.737" y="15" width="502" height="267" fill="#dae9f8"/><path d="M89.408,143h130.6a3.728,3.728,0,0,0,3.729-3.729V49.976c0-2.062-2.163-3.976-5.056-3.976L91.209,47.949a3.735,3.735,0,0,0-3.734,3.735l-1.8,87.581A3.735,3.735,0,0,0,89.408,143Z" fill="#737373"/><rect x="85.737" y="46" width="136" height="95" rx="3.623" fill="#939393"/><rect x="153.737" y="52" width="62" height="83" fill="#fff"/><rect x="92.737" y="52" width="62" height="83" fill="#fff"/><path d="M160.948,79h45.727a1.141,1.141,0,0,0,1.415-1.217A1.945,1.945,0,0,0,206.675,76H160.948c-.708.454-1.415,1.118-1.415,1.783A1.3,1.3,0,0,0,160.948,79Z" fill="#c8c8c8"/><path d="M159.534,85.71a1.274,1.274,0,0,0,1.41,1.29h45.731a1.162,1.162,0,0,0,1.415-1.239c0-1-.36-1.329-1.415-1.761H160.948C160.253,84.432,159.557,84.747,159.534,85.71Z" fill="#c8c8c8"/><path d="M160.948,71h45.727a1.12,1.12,0,0,0,1.415-1.195A1.988,1.988,0,0,0,206.675,68H160.948c-.708.476-1.415,1.14-1.415,1.805A1.271,1.271,0,0,0,160.948,71Z" fill="#c8c8c8"/><path d="M160.948,95h45.727c1.055.069,1.415-.269,1.415-1.261A1.861,1.861,0,0,0,206.675,92H160.949c-.766.41-1.434,1.022-1.415,1.788A1.177,1.177,0,0,0,160.948,95Z" fill="#c8c8c8"/><path d="M160.948,103h45.727a1.207,1.207,0,0,0,1.415-1.283A1.82,1.82,0,0,0,206.675,100H160.948c-.708.388-1.415,1.052-1.415,1.717A1.4,1.4,0,0,0,160.948,103Z" fill="#c8c8c8"/><path d="M160.948,110h45.727a1.117,1.117,0,0,0,1.415-1.191A2,2,0,0,0,206.675,107H160.948c-.708.479-1.415,1.144-1.415,1.809A1.265,1.265,0,0,0,160.948,110Z" fill="#c8c8c8"/><path d="M160.948,118h45.727a1.135,1.135,0,0,0,1.415-1.208A1.95,1.95,0,0,0,206.675,115H160.948c-.708.457-1.415,1.119-1.415,1.792A1.293,1.293,0,0,0,160.948,118Z" fill="#c8c8c8"/><path d="M160.968,125h24.775a1.137,1.137,0,0,0,1.41-1.173c-.023-.963-.719-1.278-1.414-1.827H160.972c-.7.549-1.39.864-1.414,1.827A1.137,1.137,0,0,0,160.968,125Z" fill="#c8c8c8"/><path d="M100.136,79h46.051a1.3,1.3,0,0,0,1.415-1.217c0-.665-.708-1.329-1.415-1.783H100.136c-.707.454-1.426,1.118-1.426,1.783A1.312,1.312,0,0,0,100.136,79Z" fill="#b2b2b2"/><path d="M100.132,87h46.059a1.274,1.274,0,0,0,1.41-1.29c-.024-.963-.719-1.278-1.414-1.71H100.136c-.692.432-1.4.745-1.426,1.7A1.283,1.283,0,0,0,100.132,87Z" fill="#b2b2b2"/><path d="M100.136,71h46.051a1.271,1.271,0,0,0,1.415-1.195c0-.665-.708-1.329-1.415-1.805H100.136c-.707.476-1.426,1.14-1.426,1.805A1.281,1.281,0,0,0,100.136,71Z" fill="#b2b2b2"/><path d="M100.136,95h46.051a1.177,1.177,0,0,0,1.414-1.212A2.222,2.222,0,0,0,146.186,92H100.132c-.761.41-1.442,1.033-1.422,1.793A1.187,1.187,0,0,0,100.136,95Z" fill="#b2b2b2"/><path d="M100.136,103h46.051a1.4,1.4,0,0,0,1.415-1.283c0-.665-.708-1.329-1.415-1.717H100.136c-.707.388-1.426,1.052-1.426,1.717A1.411,1.411,0,0,0,100.136,103Z" fill="#b2b2b2"/><path d="M100.136,110h46.051a1.266,1.266,0,0,0,1.415-1.191c0-.665-.708-1.33-1.415-1.809H100.136c-.707.479-1.426,1.144-1.426,1.809A1.276,1.276,0,0,0,100.136,110Z" fill="#b2b2b2"/><path d="M100.136,118h46.051a1.294,1.294,0,0,0,1.415-1.208c0-.673-.708-1.335-1.415-1.792H100.136c-.707.457-1.426,1.119-1.426,1.792A1.3,1.3,0,0,0,100.136,118Z" fill="#b2b2b2"/><path d="M100.157,125h24.775a1.137,1.137,0,0,0,1.41-1.173c-.024-.963-.719-1.278-1.414-1.827H100.161c-.693.549-1.4.862-1.426,1.817A1.146,1.146,0,0,0,100.157,125Z" fill="#b2b2b2"/><polygon points="167.737 93.766 162.755 91.647 157.737 93.766 157.737 46 167.737 46 167.737 93.766" fill="#106ebe"/><polygon points="132.737 33.621 132.737 115.355 153.737 134.412 153.737 52.667 132.737 33.621" fill="#69afe5"/><path d="M301.991,63.836l-4.62-4.815a.438.438,0,0,1-.087-.471l5.326-12.717a.315.315,0,0,1,.348-.185l-.007-.029,2.074.139-.571,1.821a23.611,23.611,0,0,1,3.147,6.865c1.329,5.167-.035,11.416-.035,11.416Z" fill="#828282"/><path d="M284.454,88.849s.334-.553-.447-3.05-11.9-20.827-11.9-20.827a17.111,17.111,0,0,1,3.28-13.366c4.026-5.461,10.871-8.53,13.264-9.477a.374.374,0,0,1,.208-.017l.028-.05,2.088.14-2.542,2.27-4.871,12.085a.533.533,0,0,0,.313.7l23.692,8.6s-5.452,6.414-6.857,9.984-4.673,12.236-4.673,12.236l-.874,7.788Z" fill="#828282"/><path d="M286.983,88.7a11.244,11.244,0,0,0-.67-3.83c-.78-2.5-12.2-20.827-12.2-20.827s-1.579-5.6,3.36-12.3c4.027-5.462,10.871-8.53,13.264-9.478a.4.4,0,0,1,.516.525l-5.6,13.9a.534.534,0,0,0,.313.7L309.653,66s-5.452,6.414-6.857,9.984-4.768,12.568-4.768,12.568l-.779,7.456Z" fill="#fff"/><path d="M299.37,58.691,304.7,45.972a.317.317,0,0,1,.543-.082,25.162,25.162,0,0,1,4.448,8.693c1.33,5.167-.035,11.416-.035,11.416l-5.575-2.024-4.621-4.817A.435.435,0,0,1,299.37,58.691Z" fill="#fff"/><rect x="287.874" y="67.902" width="12.588" height="10.9" rx="1.94" transform="translate(456.36 -182.791) rotate(108.341)"/><rect x="290.23" y="69.078" width="7.552" height="8.104" rx="0.464" transform="translate(455.935 -182.929) rotate(108.341)" fill="#3c3c3c"/><polygon points="298.367 69.684 299.855 70.177 293.95 78.01 292.478 77.522 298.367 69.684" fill="#737373"/><polygon points="296.24 68.901 297.728 69.394 291.823 77.228 290.351 76.74 296.24 68.901" fill="#737373"/><polygon points="294.114 68.118 295.602 68.612 289.697 76.445 288.225 75.957 294.114 68.118" fill="#737373"/><path d="M284.105,189.179c3.986,3.231,12.4,3.434,16.564-2.517a11.554,11.554,0,0,0,2.231-9.075l-5-87.792A1.444,1.444,0,0,0,296.47,88.4l-12.388.446c-.893.669-2.157,1.711-2.232,2.9l-2.083,89.036A10.53,10.53,0,0,0,284.105,189.179Zm3.05-4.546a5.778,5.778,0,0,1-.24-8.089,5.589,5.589,0,0,1,7.977-.242,5.778,5.778,0,0,1,.24,8.088A5.588,5.588,0,0,1,287.155,184.633Z" fill="#0060c5"/><path d="M285.806,187.791a10.881,10.881,0,0,0,17.6-9.722l-3.8-88.293a1.435,1.435,0,0,0-1.435-1.373l-13.261.009a.986.986,0,0,0-.985.949L281.683,179.1h.029A10.848,10.848,0,0,0,285.806,187.791Zm3.05-4.483a5.643,5.643,0,1,1,7.977-.24A5.642,5.642,0,0,1,288.856,183.308Z" fill="#4393d4"/><rect x="462.737" y="60" width="12" height="12"/><polygon points="544.857 68 493.737 68 493.737 64 544.857 64 548.11 65.962 544.857 68" fill="gray"/><path d="M440.7,84.453l-5.507,18.1a4.674,4.674,0,0,1-4.447,3.358H419.159l8.814-22.127Z" fill="#3c3c3c"/><path d="M436.489,149H424.471c-5.7-1.108-8.747-6.078-7.427-14.1l17.281-57.017-32,6.332-18.033,65.332a7.494,7.494,0,0,0-4.555,6.954v19a7.378,7.378,0,0,0,7.248,7.5h49.5a7.378,7.378,0,0,0,7.248-7.5v-19A7.379,7.379,0,0,0,436.489,149Z" fill="#ffcb40"/><path d="M379.737,168v9.5a7.378,7.378,0,0,0,7.248,7.5h49.5a7.378,7.378,0,0,0,7.248-7.5V168Z" fill="#c78e00"/><polygon points="490.352 74.643 497.612 71.997 497.612 61.174 490.352 58.048 490.352 74.643"/><rect x="471.737" y="55" width="21" height="23" rx="3.27" fill="#3c3c3c"/><rect x="475.657" y="58.95" width="12.997" height="2.886" fill="#737373"/><rect x="475.737" y="65" width="13" height="3" fill="#737373"/><rect x="475.737" y="71" width="13" height="3" fill="#737373"/><path d="M463.418,83.237l-19.435,2.469.7-34.392,19.422,2.334a2.983,2.983,0,0,1,2.591,2.99V79.425A3.807,3.807,0,0,1,463.418,83.237Z" fill="#3c3c3c"/><rect x="366.737" y="50" width="80" height="36" rx="5.271" fill="#ffcb40"/><rect x="373.737" y="54" width="40" height="5" fill="#c78e00"/><path d="M366.737,67V80.6a5.3,5.3,0,0,0,5.186,5.4h69.628a5.3,5.3,0,0,0,5.186-5.4V67Z" fill="#f0ae00"/><rect x="373.737" y="71" width="21" height="2" fill="#737373"/><rect x="373.737" y="75" width="21" height="2" fill="#737373"/><rect x="373.737" y="79" width="21" height="2" fill="#737373"/><path d="M154.532,253.957l103.707-.036c1.527,0,3.394-1.459,4.208-3.7l-1.493-131.907s-4.31,1.594-5.633,3.122l-103.3,127.122C150.46,250.392,151.885,253.957,154.532,253.957Zm34.927-21.892,49.371-60.612a.653.653,0,0,1,1.236.3l.021,62.556c0,.76-.615.2-1.375.2l-48.727-1.34A.677.677,0,0,1,189.459,232.065Z" fill="#bd3604"/><path d="M154.76,252l105.014-.036A2.964,2.964,0,0,0,262.737,249l-.044-129.369c0-1.482-1.679-1.874-2.666-.64l-106.4,130.628A1.46,1.46,0,0,0,154.76,252Zm36.9-17.983a.677.677,0,0,1-.525-1.1L240.5,172.3a.654.654,0,0,1,1.237.3l.021,60.028A1.376,1.376,0,0,1,240.383,234Z" fill="#ec6401"/><rect x="256.62" y="129.82" width="5.073" height="1.508" fill="#ffa940"/><rect x="256.624" y="139.864" width="5.073" height="1.508" fill="#ffa940"/><rect x="256.627" y="149.908" width="5.073" height="1.508" fill="#ffa940"/><rect x="256.63" y="159.951" width="5.074" height="1.508" fill="#ffa940"/><rect x="256.634" y="169.995" width="5.073" height="1.508" fill="#ffa940"/><rect x="256.638" y="180.039" width="5.073" height="1.508" fill="#ffa940"/><rect x="256.641" y="190.083" width="5.073" height="1.508" fill="#ffa940"/><rect x="256.644" y="200.127" width="5.073" height="1.508" fill="#ffa940"/><rect x="256.648" y="210.17" width="5.074" height="1.508" fill="#ffa940"/><rect x="256.651" y="220.214" width="5.073" height="1.508" fill="#ffa940"/><rect x="256.654" y="230.258" width="5.073" height="1.508" fill="#ffa940"/><rect x="256.658" y="240.301" width="5.073" height="1.508" fill="#ffa940"/><polygon points="337.739 166.158 337.739 104.5 333.628 104.5 333.628 166.158 335.537 170.856 337.739 166.158" fill="#d2d2d2"/><polygon points="335.537 162.928 333.628 166.158 333.628 102.886 335.537 102.886 335.537 162.928" fill="gray"/><rect x="332.737" y="85" width="6" height="14" transform="translate(427.737 -243.737) rotate(90)" fill="#0060c5"/><rect x="313.237" y="58.5" width="44" height="19" rx="2.652" transform="translate(403.237 -267.237) rotate(90)" fill="#479cdf"/><rect x="329.737" y="91" width="11" height="19" rx="2.634" transform="translate(435.737 -234.737) rotate(90)" fill="#479cdf"/><path d="M335.737,89h5.673a1.327,1.327,0,0,0,1.327-1.327V50.437A1.437,1.437,0,0,0,341.3,49h-5.563Z" fill="#69b8ed"/><path d="M335.737,104h5.74a1.26,1.26,0,0,0,1.26-1.26V97.26a1.26,1.26,0,0,0-1.26-1.26h-5.74Z" fill="#69b8ed"/><path d="M205.163,166.26l-3.049.013-.024-2.007,3.138.023a.965.965,0,0,1,.373.057.953.953,0,0,1,.321.2.918.918,0,0,1,.219.307.954.954,0,0,1,.083.368,1.014,1.014,0,0,1-.075.407,1.017,1.017,0,0,1-.986.634Z" fill="#505050"/><path d="M100.739,159.8l-.026,7.443v3.682l93.236-.007.044-3.768-.018-7.358Z" fill="#ffb900"/><path d="M97.208,169.755l3.475,0,0-8.826-3.51.092Z" fill="#505050"/><path d="M203.941,163.526l-9.966-3.737-.026,11.126,9.953-3.832Z" fill="#737373"/><path d="M100.713,170.922l93.236-.007.044-3.768-93.28.093Z" fill="#c78e00"/><path d="M90.747,159.82a1.591,1.591,0,0,0-1.653,1.566l.045,4.233c0,.414-.012,1.042-.017,1.669-.047.5-.055,1.127-.059,1.544l.037.546a1.644,1.644,0,0,0,1.613,1.562l6.524-.014-.087-3.721-.009-7.362Z" fill="#db9d00"/><path d="M96.733,167.2l-7.15.01a.619.619,0,0,0-.465.5,8.811,8.811,0,0,1-.054,1.125,2.272,2.272,0,0,0,2.152,2.156l5.481-.028c.333-.038.544-.243.463-.494l.028-2.717a.515.515,0,0,0-.455-.549Z" fill="#c78e00"/><path d="M176.453,159.736l-13.386.068L163,158.3l13.431.052Z" fill="#ffb900"/><polygon points="490.196 175.272 490.196 227.433 511.199 250.79 517.493 250.79 492.371 173.47 490.196 175.272" fill="#3c3c3c"/><rect x="410.737" y="140" width="23" height="197" transform="translate(183.737 660.737) rotate(-90)" fill="#b2b2b2"/><rect x="418.237" y="132.5" width="8" height="197" transform="translate(191.237 653.237) rotate(-90)" fill="#939393"/><rect x="416.908" y="140.948" width="9.835" height="197.1" transform="translate(182.327 661.324) rotate(-90)" fill="#d2d2d2"/><polygon points="492.737 173 492.737 226.628 514.453 250.32 520.737 249.724 520.737 173 492.737 173" fill="#ec6401"/><polygon points="500.718 221.057 500.718 178.712 496.787 178.712 496.787 222.63 512.439 240.737 516.968 240.737 516.968 240.566 500.718 221.057" fill="#fa9830"/><rect x="329.043" y="244.237" width="1.158" height="6.028" fill="#939393"/><rect x="335.39" y="244.237" width="1.158" height="6.028" fill="#939393"/><rect x="341.736" y="244.237" width="1.158" height="6.028" fill="#939393"/><rect x="348.083" y="244.237" width="1.158" height="6.028" fill="#939393"/><rect x="354.43" y="244.237" width="1.158" height="6.028" fill="#939393"/><rect x="360.776" y="244.237" width="1.158" height="6.028" fill="#939393"/><rect x="367.123" y="244.237" width="1.158" height="6.028" fill="#939393"/><rect x="373.469" y="244.237" width="1.158" height="6.028" fill="#939393"/><rect x="379.816" y="244.237" width="1.158" height="6.028" fill="#939393"/><rect x="386.162" y="244.237" width="1.158" height="6.028" fill="#939393"/><rect x="392.509" y="244.237" width="1.158" height="6.028" fill="#939393"/><rect x="398.856" y="244.237" width="1.158" height="6.028" fill="#939393"/><rect x="405.202" y="244.237" width="1.158" height="6.028" fill="#939393"/><rect x="411.549" y="244.237" width="1.158" height="6.028" fill="#939393"/><rect x="417.895" y="244.237" width="1.158" height="6.028" fill="#939393"/><rect x="424.242" y="244.237" width="1.158" height="6.028" fill="#939393"/><rect x="430.588" y="244.237" width="1.158" height="6.028" fill="#939393"/><rect x="436.935" y="244.237" width="1.158" height="6.028" fill="#939393"/><rect x="443.282" y="244.237" width="1.158" height="6.028" fill="#939393"/><rect x="449.628" y="244.237" width="1.158" height="6.028" fill="#939393"/><rect x="455.975" y="244.237" width="1.158" height="6.028" fill="#939393"/><rect x="462.321" y="244.237" width="1.158" height="6.028" fill="#939393"/><rect x="468.668" y="244.237" width="1.158" height="6.028" fill="#939393"/><rect x="475.014" y="244.237" width="1.158" height="6.028" fill="#939393"/><rect x="481.361" y="244.237" width="1.158" height="6.028" fill="#939393"/><rect x="487.709" y="244.237" width="1.158" height="6.028" fill="#939393"/><rect x="494.054" y="244.237" width="1.158" height="6.028" fill="#939393"/><rect x="500.402" y="244.237" width="1.158" height="6.028" fill="#939393"/><line x1="348.662" y1="250.266" x2="348.662" y2="239.126" fill="none" stroke="#666" stroke-miterlimit="10" stroke-width="1.573"/><line x1="374.048" y1="250.266" x2="374.048" y2="239.126" fill="none" stroke="#666" stroke-miterlimit="10" stroke-width="1.573"/><line x1="399.435" y1="250.266" x2="399.435" y2="239.126" fill="none" stroke="#666" stroke-miterlimit="10" stroke-width="1.573"/><line x1="424.821" y1="250.266" x2="424.821" y2="239.126" fill="none" stroke="#666" stroke-miterlimit="10" stroke-width="1.573"/><line x1="450.207" y1="250.266" x2="450.207" y2="239.126" fill="none" stroke="#666" stroke-miterlimit="10" stroke-width="1.573"/><line x1="475.594" y1="250.266" x2="475.594" y2="239.126" fill="none" stroke="#666" stroke-miterlimit="10" stroke-width="1.573"/><line x1="500.98" y1="250.266" x2="500.98" y2="239.126" fill="none" stroke="#666" stroke-miterlimit="10" stroke-width="1.573"/><polygon points="323.356 250.174 323.356 227.098 322.09 228.995 322.091 251.644 519.037 251.644 520.375 250.174 323.356 250.174" fill="#3c3c3c"/></svg>