<svg xmlns="http://www.w3.org/2000/svg" viewBox="0 0 636 300"><title>swimlane-rest-api</title><path d="M401,165.059H237.583c-5.083,0-4.666-7,.084-7a2.677,2.677,0,0,0,.63-.077,37.5,37.5,0,0,0,35.169-39.051c-.854-20.176-17.941-35.872-38.135-35.872H109.681c-19.409,0-36.942,15.8-38.111,35.175A37.5,37.5,0,0,0,109,158.059h44c5.333,0,5,7,0,7h-.319c-19.409,0-36.942,15.8-38.111,35.175A37.5,37.5,0,0,0,152,240.059H400.319c19.409,0,36.942-15.8,38.111-35.175A37.5,37.5,0,0,0,401,165.059Z" fill="#e9f1fc"/><path d="M285,155.059H172.3c-17.6,0-22.3-14.444-22.3-23v-34h4v35.87c0,1.744.556,17.13,20.347,17.13H285Z" fill="#b2b2b2"/><path d="M144,87.059v9a4,4,0,0,0,4,4H156a4,4,0,0,0,4-4v-9Z" fill="#939393"/><path d="M158,87.059v9.1a3.744,3.744,0,0,1-3.6,3.9H156a4,4,0,0,0,4-4v-9Z" fill="#b2b2b2"/><path d="M425.7,150.059H353v-4h70.637c19.807,0,20.363-15,20.363-16.7v-19.3h4v17.253C448,135.773,443.3,150.059,425.7,150.059Z" fill="#b2b2b2"/><path d="M438,105.059v9a4,4,0,0,0,4,4H450a4,4,0,0,0,4-4v-9Z" fill="#939393"/><path d="M452,105.059v9.1a3.744,3.744,0,0,1-3.6,3.9H450a4,4,0,0,0,4-4v-9Z" fill="#b2b2b2"/><path d="M477,207.059H333v4H477Z" fill="#b2b2b2"/><path d="M489,217.059h-9a4,4,0,0,1-4-4v-8.008a4,4,0,0,1,4-4h9Z" fill="#939393"/><path d="M489,203.059h-9.1a3.743,3.743,0,0,0-3.9,3.6v-1.6a4,4,0,0,1,4-4h9Z" fill="#b2b2b2"/><path d="M535.084,247.059H519.738l1.269-12h12.808Z" fill="#505050"/><path d="M565.336,236.059H490.665A1.67,1.67,0,0,1,489,234.394v-47.67a1.67,1.67,0,0,1,1.665-1.665h74.67A1.67,1.67,0,0,1,567,186.724v47.545A1.74,1.74,0,0,1,565.336,236.059Z" fill="#737373"/><path d="M564,188.059H492v45h72Z" fill="#b2b2b2"/><path d="M564,221.245V188.059H533.367Z" fill="#ddd"/><path d="M543,245.059H510v3h33Z" fill="#737373"/><path d="M185,84.947V43.186a2.118,2.118,0,0,0-2.111-2.127H123.111A2.118,2.118,0,0,0,121,43.186V85.059h64Z" fill="#505050"/><path d="M192,85.059H112v1h80Z" fill="#939393"/><path d="M184.562,88.059H122.409c-8.909,0-10.211-1.684-10.211-2h80.466C192.553,86.375,191.833,87.976,184.562,88.059Z" fill="#505050"/><path d="M182,44.059H124v38h58Z" fill="#b2b2b2"/><path d="M182,70.252V44.059H159.691Z" fill="#ddd"/><path d="M285,18.059h71v39a2,2,0,0,1-2,2H287a2,2,0,0,1-2-2Z" fill="#505050"/><path d="M287,9.059h67a2,2,0,0,1,2,2v7H285v-7A2,2,0,0,1,287,9.059Z" fill="#b2b2b2"/><path d="M294.612,37.092,293.2,35.777l4.313-4.22L293.2,27.406l1.414-1.314,5.586,5.465Z" fill="#fff"/><path d="M309,35.059h-7v2h7Z" fill="#fff"/><path d="M307.5,130.437l-2.9-3.108c.1-.111,13.4-15.538,13.4-41.732V70.059h4V85.708C322.1,113.678,308.1,129.771,307.5,130.437Z" fill="#b2b2b2"/><path d="M312,59.059v9a4,4,0,0,0,4,4h8.009a4,4,0,0,0,4-4v-9Z" fill="#939393"/><path d="M326,59.059v9.1a3.742,3.742,0,0,1-3.6,3.9h1.6a4,4,0,0,0,4-4v-9Z" fill="#b2b2b2"/><path d="M458.242,104.972a63.309,63.309,0,0,1-12.022.883,68.807,68.807,0,0,1-12.573-.883c-1.654-.441-2.647-1.434-2.647-2.868V53.686c0-1.544.993-2.537,2.758-2.757a114.079,114.079,0,0,1,12.462-.662,94.869,94.869,0,0,1,12.022.662C460.118,51.26,461,52.142,461,53.8V102.1C461,103.649,460.118,104.531,458.242,104.972Z" fill="#505050"/><path d="M459,55.059H434v45h25Z" fill="#b2b2b2"/><path d="M459,76.7V55.059H435.249Z" fill="#ddd"/><path d="M225,132.059V279.1c0,6.509,32.443,11.689,72.566,11.689,39.991,0,72.434-5.18,72.434-11.689V132.059Z" fill="#8fc6e5"/><path d="M247,132.059H224V279.1c0,3.321,8.907,6.376,23,8.5Z" fill="#69afe5"/><path d="M296.988,120.092c-40.114,0-72.79,5.18-72.79,11.556s32.543,11.556,72.79,11.556c40.114,0,72.79-5.18,72.79-11.556S337.235,120.092,296.988,120.092Z" fill="#b5d5ea"/><path d="M370,159.059h-.08a.473.473,0,0,1-.078.21,2.956,2.956,0,0,1-.621.726,14.059,14.059,0,0,1-3.693,2.168,74.933,74.933,0,0,1-15.5,4.242c-13.352,2.476-31.886,4.024-52.384,4.024-20.566,0-39.1-1.548-52.434-4.024a74.514,74.514,0,0,1-15.467-4.241A13.966,13.966,0,0,1,226.063,160a2.963,2.963,0,0,1-.619-.725.483.483,0,0,1-.078-.214H225v6.3a25.257,25.257,0,0,0,2.744,1.39,79.246,79.246,0,0,0,16.558,4.577c13.714,2.546,32.566,4.107,53.341,4.107,20.707,0,39.558-1.561,53.29-4.107a79.634,79.634,0,0,0,16.588-4.576A26.261,26.261,0,0,0,370,165.514Z" fill="#b5d5ea"/><path d="M370,188.059h-.08a.473.473,0,0,1-.078.21,2.956,2.956,0,0,1-.621.726,14.059,14.059,0,0,1-3.693,2.168,74.933,74.933,0,0,1-15.5,4.242c-13.352,2.476-31.886,4.024-52.384,4.024-20.566,0-39.1-1.548-52.434-4.024a74.514,74.514,0,0,1-15.467-4.241A13.966,13.966,0,0,1,226.063,189a2.963,2.963,0,0,1-.619-.725.483.483,0,0,1-.078-.214H225v6.3a25.257,25.257,0,0,0,2.744,1.39,79.246,79.246,0,0,0,16.558,4.577c13.714,2.546,32.566,4.107,53.341,4.107,20.707,0,39.558-1.561,53.29-4.107a79.634,79.634,0,0,0,16.588-4.576A26.261,26.261,0,0,0,370,194.514Z" fill="#b5d5ea"/><path d="M370,217.059h-.08a.473.473,0,0,1-.078.21,2.956,2.956,0,0,1-.621.726,14.059,14.059,0,0,1-3.693,2.168,74.933,74.933,0,0,1-15.5,4.242c-13.352,2.476-31.886,4.024-52.384,4.024-20.566,0-39.1-1.548-52.434-4.024a74.514,74.514,0,0,1-15.467-4.241A13.966,13.966,0,0,1,226.063,218a2.963,2.963,0,0,1-.619-.725.483.483,0,0,1-.078-.214H225v6.3a25.257,25.257,0,0,0,2.744,1.39,79.246,79.246,0,0,0,16.558,4.577c13.714,2.546,32.566,4.107,53.341,4.107,20.707,0,39.558-1.561,53.29-4.107a79.634,79.634,0,0,0,16.588-4.576A26.261,26.261,0,0,0,370,223.514Z" fill="#b5d5ea"/><path d="M370,247.059h-.08a.473.473,0,0,1-.078.21,2.956,2.956,0,0,1-.621.726,14.059,14.059,0,0,1-3.693,2.168,74.933,74.933,0,0,1-15.5,4.242c-13.352,2.476-31.886,4.024-52.384,4.024-20.566,0-39.1-1.548-52.434-4.024a74.514,74.514,0,0,1-15.467-4.241A13.966,13.966,0,0,1,226.063,248a2.963,2.963,0,0,1-.619-.725.483.483,0,0,1-.078-.214H225v6.3a25.257,25.257,0,0,0,2.744,1.39,79.246,79.246,0,0,0,16.558,4.577c13.714,2.546,32.566,4.107,53.341,4.107,20.707,0,39.558-1.561,53.29-4.107a79.634,79.634,0,0,0,16.588-4.576A26.261,26.261,0,0,0,370,253.514Z" fill="#b5d5ea"/><path d="M273.885,165.726a18.415,18.415,0,0,0-7.206,3.87,12.375,12.375,0,0,0-3.47,6.673c-.667,2.535-.934,6.805-.934,13.077a48.9,48.9,0,0,1-.4,7.606,13.168,13.168,0,0,1-1.468,4.405,7.331,7.331,0,0,1-2.269,2.268,14.292,14.292,0,0,1-4.537.8l-1.6.133v14l2.863,1.908c2.591.137,3.273-1.227,4.364-.272,1.091.818,1.909,2.455,2.592,4.636.272,1.092.681,3.955.681,11.046a57.729,57.729,0,0,0,.819,11.455A15.076,15.076,0,0,0,267,254.15a14.383,14.383,0,0,0,6.546,3.818,40.4,40.4,0,0,0,10.5,1.091h4.363l2.863-13.092-2.863-1.908H285.9c-4.27,0-5.6-.4-5.872-.535a2.679,2.679,0,0,1-1.467-1.2,7.316,7.316,0,0,1-.535-3.47c0-1.468-.132-4.8-.266-10.008a32.712,32.712,0,0,0-1.335-8.541,15.77,15.77,0,0,0-3.069-5.737,17.8,17.8,0,0,0-2.8-2.67,19.866,19.866,0,0,0,2.935-2.8,15.565,15.565,0,0,0,2.8-5.337,30.167,30.167,0,0,0,1.334-8.007c.268-5.605.4-9.341.4-11.344a7.3,7.3,0,0,1,.4-3.2,2.79,2.79,0,0,1,1.334-1.067c.4-.134,1.6-.4,6.005-.4l4.538-12.81-2.8-1.869h-4.27A26.475,26.475,0,0,0,273.885,165.726Z" fill="#c99b3f"/><path d="M338.162,204.693a10.372,10.372,0,0,1-5.471-1.468,8.209,8.209,0,0,1-2.535-4.405c-.267-1.067-.668-3.87-.668-10.809,0-5.07-.266-8.807-.933-11.342a14.327,14.327,0,0,0-10.009-10.543,39.519,39.519,0,0,0-10.275-1.067H304v14.679l2.8,1.868c4.537,0,4.671-1.468,5.07-1.335.668.268,1.068.535,1.2.935.133.133.4,1.068.4,4,.134,7.607.4,12.411.8,14.679a20.354,20.354,0,0,0,3.336,8.674,16.7,16.7,0,0,0,3.469,3.337,16.151,16.151,0,0,0-2.668,2.535,16.657,16.657,0,0,0-3.069,5.471,26.731,26.731,0,0,0-1.336,8.274c-.266,5.338-.4,9.074-.4,11.076a6.713,6.713,0,0,1-.534,3.2,2.507,2.507,0,0,1-1.469,1.067c-.4.134-1.734.534-5.871.534H304v14.679l2.8,1.869c4.27,0,8.807-2.135,10.943-2.8a17.5,17.5,0,0,0,7.205-3.87,12.369,12.369,0,0,0,3.47-6.673c.534-2.536.8-6.806.8-13.078a45.743,45.743,0,0,1,.4-7.472,13.168,13.168,0,0,1,1.467-4.405,7.343,7.343,0,0,1,2.27-2.268,14.232,14.232,0,0,1,4.537-.8l4.4-12.81-2.8-1.869Z" fill="#c99b3f"/><path d="M276.579,167.741a17.969,17.969,0,0,0-7.106,3.954,12.81,12.81,0,0,0-3.42,6.818c-.658,2.591-.921,6.955-.921,13.365a51.79,51.79,0,0,1-.395,7.772,13.736,13.736,0,0,1-1.448,4.5,7.349,7.349,0,0,1-2.237,2.318,13.6,13.6,0,0,1-4.473.818l-1.579.137v14.185l1.573.133a10.075,10.075,0,0,1,5.375,1.461c1.049.8,1.835,2.391,2.491,4.517.262,1.062.655,3.852.655,10.759a57.121,57.121,0,0,0,.786,11.157,14.774,14.774,0,0,0,3.539,6.642A13.8,13.8,0,0,0,275.712,260a38.325,38.325,0,0,0,10.094,1.063H290v-15h-1.725c-4.25,0-5.577-.4-5.843-.531a2.679,2.679,0,0,1-1.461-1.194,7.3,7.3,0,0,1-.531-3.453c0-1.461-.133-4.78-.265-9.959a32.567,32.567,0,0,0-1.328-8.5,15.714,15.714,0,0,0-3.054-5.71A17.76,17.76,0,0,0,273,214.059a19.687,19.687,0,0,0,2.922-2.789,15.509,15.509,0,0,0,2.788-5.311,29.971,29.971,0,0,0,1.328-7.967c.265-5.576.4-9.294.4-11.286a7.306,7.306,0,0,1,.4-3.187,2.784,2.784,0,0,1,1.329-1.062c.4-.132,1.593-.4,5.975-.4H290v-15h-4.211C281.71,166.786,278.553,167.059,276.579,167.741Z" fill="#fec94e"/><path d="M340.684,206.405a10.15,10.15,0,0,1-5.394-1.457,8.154,8.154,0,0,1-2.5-4.372c-.263-1.06-.657-3.842-.657-10.73a48.28,48.28,0,0,0-.922-11.262,14.177,14.177,0,0,0-9.868-10.465,38.722,38.722,0,0,0-10.132-1.06H307v15h1.725c4.516,0,5.843.4,6.108.532.665.265,1.063.531,1.2.929.133.132.4,1.062.4,3.983.133,7.569.4,12.349.8,14.606a20.277,20.277,0,0,0,3.32,8.63,16.588,16.588,0,0,0,3.453,3.32,16,16,0,0,0-2.656,2.523,16.589,16.589,0,0,0-3.054,5.444,26.583,26.583,0,0,0-1.328,8.232c-.266,5.311-.4,9.029-.4,11.021a6.686,6.686,0,0,1-.53,3.187,2.5,2.5,0,0,1-1.461,1.062c-.4.132-1.726.531-5.843.531H307v14h4.21c4.211,0,7.369-.265,9.342-.928a17.22,17.22,0,0,0,7.106-3.841,12.317,12.317,0,0,0,3.421-6.624c.527-2.517.789-6.756.789-12.983a45.75,45.75,0,0,1,.395-7.419,13.093,13.093,0,0,1,1.448-4.371,7.222,7.222,0,0,1,2.236-2.252,13.932,13.932,0,0,1,4.474-.795l1.579-.133v-14.44Z" fill="#fec94e"/></svg>