<svg xmlns="http://www.w3.org/2000/svg" viewBox="0 0 636 300"><style>.st0{fill:none;stroke:#90c10c;stroke-width:5;stroke-miterlimit:10}.st1{fill:#a88763}.st2{fill:#b2b2b2}.st3{fill:none;stroke:#65aa0d;stroke-width:5;stroke-miterlimit:10}.st4{fill:#2e2e2e}.st5{fill:#2488d8}.st6{fill:#5d5f5e}.st7{fill:#69afe5}.st8{fill:#cbe247;stroke:#90c10c;stroke-width:5.527;stroke-miterlimit:10}.st9{fill:#0078d7}.st10{fill:#004578}.st11{fill:#b3d6f2}.st12{fill:#cbe247;stroke:#90c10c;stroke-width:5;stroke-miterlimit:10}.st13{fill-rule:evenodd;clip-rule:evenodd;fill:#0078d7}.st14{fill:#fff}.st15{fill:#005a93}.st16{fill:#737373}.st17{fill:#acacac}.st18{fill-rule:evenodd;clip-rule:evenodd;fill:#b4b4b4}.st19{fill:#a6a6a6}.st20{fill:#767576}.st21{clip-path:url(#SVGID_2_)}.st22{fill:#502f84}.st23{fill:#5c3d99}.st24{fill:#3d1a68}.st25{fill:#32145a}.st26{fill:#af5443}.st27{fill:#505050}.st28{opacity:.37;fill:#fff}.st29{fill:#99bcd7}.st30{fill:#c8c8c8}.st31{fill:#666}.st32{fill:#45779e}.st33{fill:#6597bf}.st34{fill:#3c3c3c}.st35{fill:#235a89}.st36{fill:#106ebe}.st37{fill:#333}.st38{fill:#1c4768}.st39{fill:#212121}.st40{fill:#11334b}.st41{fill:#cfe0ee}.st42{fill:#eaeaea}.st43{fill:#deecf9}.st44{fill:#e9f0f7}.st45{fill:#f4f4f4}.st46{fill:#231f20}.st47{fill:#a8dceb}.st48,.st49,.st50,.st51{fill-rule:evenodd;clip-rule:evenodd}.st48{stroke:#69afe5;stroke-width:2;stroke-miterlimit:10;stroke-dasharray:1.8146,2.7218;fill:none}.st49,.st50,.st51{fill:#2488d8}.st50,.st51{fill:#d8b094}.st51{fill:#f6caa7}.st52,.st53,.st54,.st55,.st56,.st57{fill-rule:evenodd;clip-rule:evenodd;fill:#00188f}.st53,.st54,.st55,.st56,.st57{fill:#fff}.st54,.st55,.st56,.st57{fill:#c69e83}.st55,.st56,.st57{fill:#b58861}.st56,.st57{fill:#505050}.st57{fill:#8a0000}.st58{fill:#fff880}.st59,.st60,.st61{fill-rule:evenodd;clip-rule:evenodd}.st59{stroke:#ffa940;stroke-width:2;stroke-miterlimit:10;stroke-dasharray:2,3;fill:none}.st60,.st61{fill:#69afe5}.st61{fill:#910f1b}.st62{fill:#ff8c00}.st63,.st64,.st65,.st66{fill-rule:evenodd;clip-rule:evenodd;fill:#bd3604}.st64,.st65,.st66{fill:#e26c41}.st65,.st66{fill:#bb9167}.st66{fill:#ba0e1c}.st67{fill:#bfc5cc}.st68{fill:#8e562e}.st68,.st69,.st70,.st71,.st72{fill-rule:evenodd;clip-rule:evenodd}.st70,.st71,.st72{fill:#d0b28d}.st71,.st72{fill:#666}.st72{fill:#b89e7c}.st73{fill:#5c005c}.st74,.st75{fill-rule:evenodd;clip-rule:evenodd;fill:#ff8c00}.st75{fill:#f0ae00}.st76{fill:#d0b28d}.st77{fill:#e81123}.st78{fill:#d9c1a4}.st79,.st80,.st81,.st82{fill-rule:evenodd;clip-rule:evenodd;fill:#d9c1a4}.st80,.st81,.st82{fill:#ee4d5a}.st81,.st82{fill:#939393}.st82{fill:#394453}.st83{fill:#f6cba7}.st84{fill:#a996f0}.st85{fill:#bcbec0}.st86{fill:#414042}.st87{fill:#6d6e71}.st88{fill:#8867c8}.st89{fill:#c09f81}.st90{fill:#ddb694}.st91{fill:#5c2d91}.st92{fill:#8c562f}.st93{fill:#451e7c}.st94{fill:#025b56}.st95{fill:#394453}.st96{fill:#999}.st97{fill:#8e562e}.st98{fill:gray}.st99{fill:#6d573e}.st100{fill-rule:evenodd;clip-rule:evenodd}.st100,.st101{fill:#b80409}.st102{fill:#613d30}.st103{fill:#d80d1a}.st104{fill:#ef502a}.st105{fill:none;stroke:#939393;stroke-miterlimit:10;stroke-dasharray:.9773,1.9547}.st106{fill:#0d520d}.st107{fill:#004b1c}.st108{fill:#3b930f}.st109{fill:#936f51}.st110{fill:#bce2bc}.st111{fill:#8a0000}.st112{fill:#003c16}.st113{fill:none}.st114{fill:#8ec3ec}.st115{fill:#395b71}.st116{fill:#65aa0d}.st117{fill:#90c10c}.st118{fill:#107c10}.st119{fill:#d2d2d2}.st120{fill:#939393}.st121{fill:#4d4d4d}.st122{fill:#472176}.st123{clip-path:url(#SVGID_4_)}.st124{fill:#724aad}.st125{fill:#282828}.st126{fill:none;stroke:#939393;stroke-width:.75;stroke-miterlimit:10}.st127{fill:#f57800}.st128{fill:#750000}.st129{fill:#900}.st130{fill:#d83b01}.st131{fill:#0872c4}.st132{fill:#bd3604}.st133{fill:#5e0000}.st134{fill:#464646}.st135{fill:#e6e6e6}.st136{fill:#a6a8ab}.st137{fill:#96bcce}.st138{fill-rule:evenodd;clip-rule:evenodd;fill:#fff200}.st139{fill:none;stroke:#fff100;stroke-width:.72;stroke-miterlimit:8}.st140,.st141,.st142{fill-rule:evenodd;clip-rule:evenodd;fill:#fff880}.st141,.st142{fill:#f0e300}.st142{fill:#ccc000}.st143,.st144,.st145,.st146,.st147,.st148{fill-rule:evenodd;clip-rule:evenodd;fill:#ffb900}.st144,.st145,.st146,.st147,.st148{fill:#ffcb40}.st145,.st146,.st147,.st148{fill:#c78e00}.st146,.st147,.st148{fill:#ffa940}.st147,.st148{fill:#f08400}.st148{fill:#ba6800}.st149,.st150,.st151,.st152,.st153,.st154{fill-rule:evenodd;clip-rule:evenodd;fill:#e81123}.st150,.st151,.st152,.st153,.st154{fill:#d91021}.st151,.st152,.st153,.st154{fill:#a3111e}.st152,.st153,.st154{fill:#b4009e}.st153,.st154{fill:#c740b6}.st154{fill:#9e008b}.st155,.st156,.st157,.st158,.st159,.st160{fill-rule:evenodd;clip-rule:evenodd;fill:#850063}.st156,.st157,.st158,.st159,.st160{fill:#5c2d91}.st157,.st158,.st159,.st160{fill:#8562ad}.st158,.st159,.st160{fill:#522882}.st159,.st160{fill:#401467}.st160{fill:#409ae1}.st161,.st162,.st163,.st164,.st165,.st166{fill-rule:evenodd;clip-rule:evenodd;fill:#006fc8}.st162,.st163,.st164,.st165,.st166{fill:#005291}.st163,.st164,.st165,.st166{fill:#008272}.st164,.st165,.st166{fill:#40a195}.st165,.st166{fill:#007365}.st166{fill:#005850}.st167,.st168,.st169,.st170,.st171,.st172{fill-rule:evenodd;clip-rule:evenodd;fill:#107c10}.st168,.st169,.st170,.st171,.st172{fill:#4c9d4c}.st169,.st170,.st171,.st172{fill:#0e6d0e}.st170,.st171,.st172{fill:#106110}.st171,.st172{fill:#e3008c}.st172{fill:#ea40a9}.st173,.st174,.st175,.st176,.st177,.st178{fill-rule:evenodd;clip-rule:evenodd;fill:#d40083}.st174,.st175,.st176,.st177,.st178{fill:#9c005f}.st175,.st176,.st177,.st178{fill:#b4a0ff}.st176,.st177,.st178{fill:#c7b8ff}.st177,.st178{fill:#a996f0}.st178{fill:#9080cf}.st179,.st180,.st181,.st182,.st183,.st184{fill-rule:evenodd;clip-rule:evenodd;fill:#00bcf2}.st180,.st181,.st182,.st183,.st184{fill:#40cdf5}.st181,.st182,.st183,.st184{fill:#00b0e3}.st182,.st183,.st184{fill:#0086ad}.st183,.st184{fill:#002050}.st184{fill:#40587c}.st185,.st186,.st187,.st188,.st189,.st190{fill-rule:evenodd;clip-rule:evenodd;fill:#001a41}.st186,.st187,.st188,.st189,.st190{fill:#001129}.st187,.st188,.st189,.st190{fill:#00b294}.st188,.st189,.st190{fill:#40c5af}.st189,.st190{fill:#00a387}.st190{fill:#008770}.st191,.st192,.st193,.st194,.st195,.st196{fill-rule:evenodd;clip-rule:evenodd;fill:#bad80a}.st192,.st193,.st194,.st195,.st196{fill:#cbe247}.st193,.st194,.st195,.st196{fill:#adc909}.st194,.st195,.st196{fill:#91a80a}.st195,.st196{fill:#d83b01}.st196{fill:#9c2801}.st197,.st198,.st199,.st200,.st201,.st202{fill-rule:evenodd;clip-rule:evenodd;fill:#a80000}.st198,.st199,.st200,.st201,.st202{fill:#be4040}.st199,.st200,.st201,.st202{fill:#900}.st200,.st201,.st202{fill:#750000}.st201,.st202{fill:#5c005c}.st202{fill:#854085}.st203,.st204,.st205,.st206,.st207,.st208{fill-rule:evenodd;clip-rule:evenodd;fill:#4d004d}.st204,.st205,.st206,.st207,.st208{fill:#380038}.st205,.st206,.st207,.st208{fill:#32145a}.st206,.st207,.st208{fill:#654f83}.st207,.st208{fill:#28114a}.st208{fill:#220c3d}.st209,.st210,.st211,.st212,.st213,.st214{fill-rule:evenodd;clip-rule:evenodd;fill:#4052ab}.st210,.st211,.st212,.st213,.st214{fill:#001580}.st211,.st212,.st213,.st214{fill:#001363}.st212,.st213,.st214{fill:#004b50}.st213,.st214{fill:#40787c}.st214{fill:#003d41}.st215,.st216,.st217,.st218,.st219,.st220{fill-rule:evenodd;clip-rule:evenodd;fill:#002f33}.st216,.st217,.st218,.st219,.st220{fill:#004b1c}.st217,.st218,.st219,.st220{fill:#407855}.st218,.st219,.st220{fill:#003c16}.st219,.st220{fill:#00240d}.st220{fill:#282828}.st221,.st222,.st223,.st224,.st225,.st226{fill-rule:evenodd;clip-rule:evenodd;fill:#d2d2d2}.st222,.st223,.st224,.st225,.st226{fill:#f3f3f3}.st223,.st224,.st225,.st226{fill:#e6e6e6}.st224,.st225,.st226{fill:#737373}.st225,.st226{fill:#c2c2c2}.st226{fill:#b2b2b2}.st227{fill:none;stroke:#e6e6e6;stroke-width:.36;stroke-miterlimit:8}.st228,.st229{fill-rule:evenodd;clip-rule:evenodd;fill:#613d30}.st229{fill:#f7d7c4}.st230{fill:#00a68c}.st231{fill:#009a83}.st232{fill:#008e7b}.st233{fill:#00abeb}.st234{fill:#009ae4}.st235{fill:#0089de}.st236{fill:#0060c5}.st237{fill:#0048b3}.st238{fill:#0030a1}.st239{fill:#00746a}.st240{fill:#006761}.st241{fill:#005959}.st242{fill:#0c7013}.st243{fill:#086416}.st244{fill:#045719}.st245{fill:#522783}.st246{fill:#9e008e}.st247{fill:#88007d}.st248{fill:#72006d}.st249{fill:#c80912}.st250{fill:#9e83e3}.st251{fill:#ec6401}.st252{fill:#e24f01}.st253{fill:#323232}.st254{fill:#2f2f2f}.st255{fill:#00188f}.st256{fill:#a80000}.st257{fill-rule:evenodd;clip-rule:evenodd;fill:#1ac3f3}.st258{fill:#d86e26}.st259{opacity:.2;fill:#fff}</style><switch><g><path class="st2" d="M494.905 260.951H151.728c-2.172 0-4.073-1.867-4.073-4 0-2.267 1.901-4 4.073-4h343.177c2.308 0 4.072 1.733 4.072 4 0 2.133-1.764 4-4.072 4z" id="bkgd"/><g id="Layer_1"><path class="st46" d="M459.5 247.95V57.786c0-4.327-3.253-7.835-7.267-7.835H195.766c-4.013 0-7.267 3.508-7.267 7.835V247.95H459.5z"/><path class="st7" d="M197.5 62.95h253v169h-253z"/><path class="st34" d="M482.16 256.951H167.878c-10.476 0-12.186-16-12.186-16h338.655c0-.001-4.062 16-12.187 16z"/><path class="st114" d="M450.5 62.95H337.369L450.5 176.847z"/><path class="st27" d="M492.655 245.95c1.126-2.782 1.692-5 1.692-5H155.692s.241 2.218 1.08 5h335.883z"/><path class="st115" d="M323.5 56.95h4v4h-4z"/><path class="st38" d="M322.1 256.951l-99.202.073a3.395 3.395 0 0 1-3.399-3.39l.073-152.292a3.395 3.395 0 0 1 3.399-3.39h99.13a3.398 3.398 0 0 1 3.398 3.398v152.21a3.394 3.394 0 0 1-3.399 3.391z"/><path class="st35" d="M323.5 158.95v-55.602a3.398 3.398 0 0 0-3.398-3.398h-97.205a3.398 3.398 0 0 0-3.398 3.398v55.602H323.5z"/><path class="st116" d="M228.5 108.95h87v29h-87z"/><path class="st117" d="M299.555 137.95H315.5v-29h-44.945z"/><path class="st40" d="M232.5 112.95h83v-4h-87v30h4z"/><path class="st14" d="M267.49 125.986a38.35 38.35 0 0 1-.99-1.01v-3.183l1.011-1.011.043.065.946.924v3.205l-1.01 1.01zm0 5.323c-.344-.323-.581-.581-.753-.753l-.237-.258v-3.226l.99-1.011 1.01 1.011v3.226l-1.01 1.011zm5.334-.359l-.999 1h-3.447l-1.021-1.022 1-.978h3.468l.999 1zm-5.447-10l1-1h3.467l.978 1-.999 1h-3.447l-.999-1zm6.123.822v3.203l-.99.988-1.01-1.01v-3.16l1.01-1.01.99.989zm0 5.258v3.289l-.99.989-1.01-1.01v-3.224l.043-.043c.602-.623.924-.946.967-.967l.99.966zM276.49 125.986a38.35 38.35 0 0 1-.99-1.01v-3.183l1.011-1.011.043.065.946.924v3.205l-1.01 1.01zm0 5.323c-.344-.323-.581-.581-.753-.753l-.237-.258v-3.226l.99-1.011 1.01 1.011v3.226l-1.01 1.011zm5.494-.359l-.999 1h-3.447l-1.021-1.022 1-.978h3.468l.999 1zm-5.446-10l1-1h3.467l.978 1-.999 1h-3.447l-.999-1zm6.962.822v3.203l-.99.988-1.01-1.01v-3.16l1.01-1.01.99.989zm0 5.258v3.289l-.99.989-1.01-1.01v-3.224l.043-.043c.602-.623.924-.946.967-.967l.99.966zM287.798 130.94l-1.01 1.01h-1.376l-1.011-1.01.989-.99h1.441l.967.99zM289.49 125.986a38.35 38.35 0 0 1-.99-1.01v-3.183l1.011-1.011.043.065.946.924v3.205l-1.01 1.01zm0 5.323c-.344-.323-.581-.581-.753-.753l-.237-.258v-3.226l.99-1.011 1.01 1.011v3.226l-1.01 1.011zm5.874-.359l-.999 1h-3.447l-1.021-1.022 1-.978h3.468l.999 1zm-5.446-10l1-1h3.467l.978 1-.999 1h-3.447l-.999-1zm6.582.821v3.205l-.989.989-1.011-1.01v-3.162l1.011-1.01.989.988zm0 5.258v3.29l-.989.99-1.011-1.011v-3.226l.043-.043c.603-.624.925-.946.968-.968l.989.968zM299.49 125.986a38.35 38.35 0 0 1-.99-1.01v-3.183l1.011-1.011.043.065.946.924v3.205l-1.01 1.01zm0 5.323c-.344-.323-.581-.581-.753-.753l-.237-.258v-3.226l.99-1.011 1.01 1.011v3.226l-1.01 1.011zm5.033-.359l-.999 1h-3.447l-1.021-1.022 1-.978h3.468l.999 1zm-5.446-10l1-1h3.467l.978 1-.999 1h-3.447l-.999-1zm6.423.822v3.203l-.99.988-1.01-1.01v-3.16l1.01-1.01.99.989zm0 5.258v3.289l-.99.989-1.01-1.01v-3.224l.043-.043c.602-.623.924-.946.967-.967l.99.966z"/><path class="st41" d="M219.5 158.95v94.602a3.398 3.398 0 0 0 3.398 3.398h97.205a3.398 3.398 0 0 0 3.398-3.398V158.95H219.5z"/><path class="st118" d="M241.157 177.95h-11.315a1.342 1.342 0 0 1-1.342-1.342v-10.315c0-.741.601-1.342 1.342-1.342h11.315c.741 0 1.342.601 1.342 1.342v10.315a1.34 1.34 0 0 1-1.342 1.342z"/><g><path class="st33" d="M241.157 194.95h-11.315a1.342 1.342 0 0 1-1.342-1.342v-10.315c0-.741.601-1.342 1.342-1.342h11.315c.741 0 1.342.601 1.342 1.342v10.315a1.34 1.34 0 0 1-1.342 1.342zM260.5 183.293v10.315c0 .741-.601 1.342-1.342 1.342h-11.315a1.342 1.342 0 0 1-1.342-1.342v-10.315c0-.741.601-1.342 1.342-1.342h11.315a1.34 1.34 0 0 1 1.342 1.342zM279.5 183.293v10.315c0 .741-.601 1.342-1.342 1.342h-11.315a1.342 1.342 0 0 1-1.342-1.342v-10.315c0-.741.601-1.342 1.342-1.342h11.315a1.34 1.34 0 0 1 1.342 1.342zM241.157 211.95h-11.315a1.342 1.342 0 0 1-1.342-1.342v-10.315c0-.741.601-1.342 1.342-1.342h11.315c.741 0 1.342.601 1.342 1.342v10.315a1.34 1.34 0 0 1-1.342 1.342zM260.5 200.293v10.315c0 .741-.601 1.342-1.342 1.342h-11.315a1.342 1.342 0 0 1-1.342-1.342v-10.315c0-.741.601-1.342 1.342-1.342h11.315a1.34 1.34 0 0 1 1.342 1.342zM279.5 200.293v10.315c0 .741-.601 1.342-1.342 1.342h-11.315a1.342 1.342 0 0 1-1.342-1.342v-10.315c0-.741.601-1.342 1.342-1.342h11.315a1.34 1.34 0 0 1 1.342 1.342zM241.157 227.95h-11.315a1.342 1.342 0 0 1-1.342-1.342v-10.315c0-.741.601-1.342 1.342-1.342h11.315c.741 0 1.342.601 1.342 1.342v10.315a1.34 1.34 0 0 1-1.342 1.342zM260.5 216.293v10.315c0 .741-.601 1.342-1.342 1.342h-11.315a1.342 1.342 0 0 1-1.342-1.342v-10.315c0-.741.601-1.342 1.342-1.342h11.315a1.34 1.34 0 0 1 1.342 1.342zM279.5 216.293v10.315c0 .741-.601 1.342-1.342 1.342h-11.315a1.342 1.342 0 0 1-1.342-1.342v-10.315c0-.741.601-1.342 1.342-1.342h11.315a1.34 1.34 0 0 1 1.342 1.342zM241.157 245.95h-11.315a1.342 1.342 0 0 1-1.342-1.342v-10.315c0-.741.601-1.342 1.342-1.342h11.315c.741 0 1.342.601 1.342 1.342v10.315a1.34 1.34 0 0 1-1.342 1.342zM260.5 234.293v10.315c0 .741-.601 1.342-1.342 1.342h-11.315a1.342 1.342 0 0 1-1.342-1.342v-10.315c0-.741.601-1.342 1.342-1.342h11.315a1.34 1.34 0 0 1 1.342 1.342zM279.5 234.293v10.315c0 .741-.601 1.342-1.342 1.342h-11.315a1.342 1.342 0 0 1-1.342-1.342v-10.315c0-.741.601-1.342 1.342-1.342h11.315a1.34 1.34 0 0 1 1.342 1.342z"/></g><g><path class="st35" d="M260.5 166.293v10.315c0 .741-.601 1.342-1.342 1.342h-11.315a1.342 1.342 0 0 1-1.342-1.342v-10.315c0-.741.601-1.342 1.342-1.342h11.315a1.34 1.34 0 0 1 1.342 1.342zM279.5 166.293v10.315c0 .741-.601 1.342-1.342 1.342h-11.315a1.342 1.342 0 0 1-1.342-1.342v-10.315c0-.741.601-1.342 1.342-1.342h11.315a1.34 1.34 0 0 1 1.342 1.342zM297.5 166.293v10.315c0 .741-.601 1.342-1.342 1.342h-11.315a1.342 1.342 0 0 1-1.342-1.342v-10.315c0-.741.601-1.342 1.342-1.342h11.315a1.34 1.34 0 0 1 1.342 1.342zM314.157 177.95h-11.315a1.342 1.342 0 0 1-1.342-1.342v-10.315c0-.741.601-1.342 1.342-1.342h11.315c.741 0 1.342.601 1.342 1.342v10.315a1.34 1.34 0 0 1-1.342 1.342zM297.5 183.293v10.315c0 .741-.601 1.342-1.342 1.342h-11.315a1.342 1.342 0 0 1-1.342-1.342v-10.315c0-.741.601-1.342 1.342-1.342h11.315a1.34 1.34 0 0 1 1.342 1.342zM314.157 194.95h-11.315a1.342 1.342 0 0 1-1.342-1.342v-10.315c0-.741.601-1.342 1.342-1.342h11.315c.741 0 1.342.601 1.342 1.342v10.315a1.34 1.34 0 0 1-1.342 1.342zM297.5 200.293v10.315c0 .741-.601 1.342-1.342 1.342h-11.315a1.342 1.342 0 0 1-1.342-1.342v-10.315c0-.741.601-1.342 1.342-1.342h11.315a1.34 1.34 0 0 1 1.342 1.342zM314.157 211.95h-11.315a1.342 1.342 0 0 1-1.342-1.342v-10.315c0-.741.601-1.342 1.342-1.342h11.315c.741 0 1.342.601 1.342 1.342v10.315a1.34 1.34 0 0 1-1.342 1.342zM314.157 227.95h-11.315a1.342 1.342 0 0 1-1.342-1.342v-10.315c0-.741.601-1.342 1.342-1.342h11.315c.741 0 1.342.601 1.342 1.342v10.315a1.34 1.34 0 0 1-1.342 1.342zM296.157 214.95h-11.315c-.741 0-1.342.601-1.342 1.342v28.315c0 .741.601 1.342 1.342 1.342h11.315c.741 0 1.342-.601 1.342-1.342v-28.315a1.34 1.34 0 0 0-1.342-1.342zM314.157 245.95h-11.315a1.342 1.342 0 0 1-1.342-1.342v-10.315c0-.741.601-1.342 1.342-1.342h11.315c.741 0 1.342.601 1.342 1.342v10.315a1.34 1.34 0 0 1-1.342 1.342z"/></g><g><path class="st119" d="M351.462 120.67l-21.031-49.847a2.418 2.418 0 0 0-3.168-1.288l-3.955 1.669c-.24.101-.446.244-.633.405l3.03 7.181 2.412-1.018c1.175-.496 2.253-.878 3.114 1.163l16.753 39.707-.556 1.619 1.696 4.02 1.05-.443a2.418 2.418 0 0 0 1.288-3.168z"/><path transform="rotate(67.125 394.704 254.721)" class="st46" d="M392.669 253.57h4.028v2.282h-4.028z"/><path transform="rotate(67.125 352.96 155.609)" class="st118" d="M265.003 150.099h175.876v11.009H265.003z"/><path transform="rotate(67.125 349.694 156.987)" class="st107" d="M261.737 155.021h175.876v3.921H261.737z"/><path class="st119" d="M382.053 238.765l11.225 15.552 2.227-.939-3.308-18.893z"/><path class="st120" d="M382.053 238.765l11.225 15.552 1.155-.487-8.669-16.631z"/><path class="st121" d="M322.293 70.175c-.138-.389-.288-.79-.467-1.214a3.395 3.395 0 0 0-4.447-1.808l-2.984 1.259a3.395 3.395 0 0 0-1.808 4.447c.18.426.36.813.54 1.183l9.166-3.867z"/><path transform="rotate(67.125 318.893 74.87)" class="st119" d="M315.15 69.364h7.453v11.009h-7.453z"/><path transform="rotate(67.125 348.183 144.29)" class="st119" d="M345.354 138.78h5.622v11.009h-5.622z"/><path transform="rotate(67.125 315.557 76.278)" class="st120" d="M311.814 74.393h7.453v3.766h-7.453z"/><path transform="rotate(67.125 344.937 145.66)" class="st120" d="M342.108 143.674h5.622v3.962h-5.622z"/></g></g></g></switch></svg>