<svg xmlns="http://www.w3.org/2000/svg" viewBox="0 0 636 300"><title>swimlane-community-documentation</title><rect x="83.5" y="47.5" width="476" height="212" fill="#d9ebf9"/><polygon points="129.5 72.5 134.5 72.5 250.5 188.5 245.5 188.5 129.5 72.5" fill="#fff"/><polygon points="120.736 48.5 130.264 48.5 185.264 103.5 175.736 103.5 120.736 48.5" fill="#fff"/><polygon points="505.628 80.5 495.597 80.5 541.597 126.5 551.628 126.5 505.628 80.5" fill="#fff"/><polygon points="559.392 163.09 454.803 58.5 449.244 58.5 559.5 169.864 559.392 163.09" fill="#fff"/><polygon points="89.167 112.5 94.167 112.5 210.167 228.5 205.167 228.5 89.167 112.5" fill="#fff"/><polygon points="214.5 125.5 219.5 125.5 335.5 241.5 330.5 241.5 214.5 125.5" fill="#fff"/><polygon points="559.5 231.726 465.274 137.5 460.274 137.5 559.5 236.726 559.5 231.726" fill="#fff"/><path d="M561.5,261.5H82.5V46.5h479Zm-476-3h473V49.5H85.5Z" fill="#8fc3ec"/><path d="M378.93,56.5H308.1a2.6,2.6,0,0,0-2.6,2.6V196.9a2.6,2.6,0,0,0,2.6,2.6H415.9a2.6,2.6,0,0,0,2.6-2.6l.3-100.438Z" fill="#8fc3ec"/><path d="M418.5,95.358,379.569,56.5H379.5V92.9a2.6,2.6,0,0,0,2.6,2.6h36.4Z" fill="#5eaee5"/><rect x="328.5" y="114.502" width="37" height="6.995" fill="#fff"/><rect x="328.5" y="130.5" width="66" height="7" fill="#fff"/><rect x="328.5" y="146.5" width="66" height="7" fill="#fff"/><rect x="328.5" y="162.5" width="66" height="7" fill="#fff"/><path d="M416.479,131.5H341.268a2.768,2.768,0,0,0-2.768,2.768V280.732a2.768,2.768,0,0,0,2.768,2.768H455.732a2.768,2.768,0,0,0,2.768-2.76l.318-106.76Z" fill="#b2b2b2"/><path d="M459.5,173.347,417.574,131.5H417.5v39.232a2.768,2.768,0,0,0,2.768,2.768H459.5Z" fill="#b2b2b2"/><rect x="363.133" y="193.126" width="62.534" height="7.367" fill="#b2b2b2"/><rect x="363.5" y="212.5" width="70" height="7" fill="#b2b2b2"/><rect x="363.5" y="232.5" width="70" height="7" fill="#b2b2b2"/><path d="M116.975,226.526c2.971-1.905,15.142-10.721,26.173-18.494-2.142-3.012-4.936-5-9.6-3.438a143.46,143.46,0,0,0-13.723,8.123c-3.922,2.558-7.315.94-6.474-3.251,1.728-8.613,16.464-12.416,23.131-14.773,0,0,6.161,3.764,9.893,5.651,3.069,1.546,7.434-.9,8.215-3.459,0,0-8.439-6.525-11.366-9.235-2.811-2.6-18.8,2.521-18.8,2.521l15.491-4.9,20.909-.725.054,0a6.342,6.342,0,0,0,6.14-6.538l-29.3.9-15.376,6.107,11.878-6.532,22.457-4.233.072-.014a6.332,6.332,0,0,0,5.012-7.422l-30.207,5.658h0l-10.695,6.2,4.561-5.651,12.352-3.95a6.508,6.508,0,0,0,4.089-8.243l-21.647,7.082h0L91.265,204.156l-31.432-4.323-2.056,26.136s13.39.2,31.39-.136C100.167,230.5,108.833,232.167,116.975,226.526Z" fill="#d8b07f"/><path d="M.25,225l57.1,3.686,3.786-28.708c-19.63-3.915-41.325-8.7-60.637-16.228Z" fill="#aea3ef"/><path d="M.25,225.5,57.6,228.686,61,203.5a463.039,463.039,0,0,1-60.5-13Z" fill="#8282e0"/><path d="M202.351,117.634l-74.671,10.64a2.768,2.768,0,0,0-2.35,3.131l20.7,145.251a2.768,2.768,0,0,0,3.131,2.35l113.646-16.195a2.767,2.767,0,0,0,2.351-3.122L250.385,153.77Z" fill="#c7b8ff"/><path d="M249.935,152.868l-47.125-35.3-.073.011,5.5,38.589a2.769,2.769,0,0,0,3.131,2.35l38.59-5.5Z" fill="#f0ae00"/><rect x="158.082" y="181.006" width="69.988" height="7.367" transform="translate(-24.124 29.085) rotate(-8.11)" fill="#aea3ef"/><rect x="160.853" y="200.455" width="69.988" height="7.367" transform="translate(-26.84 29.671) rotate(-8.11)" fill="#aea3ef"/><rect x="163.625" y="219.904" width="69.988" height="7.367" transform="translate(-29.556 30.256) rotate(-8.11)" fill="#aea3ef"/><path d="M122.972,222.412c5.288-3.763,12.972-9.305,20.171-14.4-2.149-3.007-4.947-4.985-9.607-3.417,0,0-4.036,1.982-11.105,6.474Z" fill="#d8b07f"/><path d="M142.476,208.511s-3.643-2.844-6.309-.678-2.5,6-1,5.5S142.476,208.511,142.476,208.511Z" fill="#efbc9a"/><path d="M280.547,93.3l-73-9.8a2.7,2.7,0,0,0-3.038,2.319l-19.075,142a2.7,2.7,0,0,0,2.32,3.039l111.1,14.924a2.7,2.7,0,0,0,3.038-2.311l14.212-103.464Z" fill="#b2b2b2"/><path d="M315.922,139.039,281,93.364l-.072-.01-5.068,37.726a2.7,2.7,0,0,0,2.32,3.039l37.726,5.067Z" fill="#b2b2b2"/><rect x="219.958" y="148.944" width="48.155" height="7.194" transform="translate(22.644 -31.328) rotate(7.702)" fill="#b2b2b2"/><rect x="217.636" y="166.904" width="68.346" height="7.194" transform="translate(24.94 -32.005) rotate(7.65)" fill="#b2b2b2"/><rect x="215.542" y="181.457" width="37.268" height="7.194" transform="translate(26.531 -29.345) rotate(7.6)" fill="#b2b2b2"/><polygon points="270.917 210.833 212.992 202.792 213.949 195.662 271.874 203.703 270.917 210.833" fill="#b2b2b2"/><path d="M250.444,100.434a6.517,6.517,0,0,0,3.975,3.294l2.087.607,1.639-7.014a4.693,4.693,0,0,0,.683.388l1.893.869L266.1,86.369a3.825,3.825,0,0,0,.324-1.508l.9-14.116a3.693,3.693,0,0,0-.264-1.609l-.122-.3,2.869-6.785a2.646,2.646,0,0,0-.226-2.484l-8.4-12.77a5.483,5.483,0,0,0-2.554-2.083L246.7,39.98l-14.18,32.193s4.032,4.451,4.728,2.063,5.312-5.53,9.969-3.253c1.916,3.881,3.727,16.561,3.727,16.561s-.259,2.173-.621,5.033A42.006,42.006,0,0,0,250.444,100.434Z" fill="#8c6943"/><path d="M249.178,71.828s-2.148-.934-1.967-.845c1.915,3.881,3.726,16.561,3.726,16.561s-.258,2.173-.621,5.033a32.935,32.935,0,0,0-.058,5.6l.231,1.762a4.232,4.232,0,0,0,.3,1.094,6.518,6.518,0,0,0,1.1,1.282,133.685,133.685,0,0,1,1.845-13.72,4.971,4.971,0,0,0,.083-1.609l-1.46-9.914C252.074,74.879,251.155,72.815,249.178,71.828Z" fill="#6d523b"/><path d="M253.59,103.7l.5-1.859a3.153,3.153,0,0,1,3.046-2.339h.554l-1.181,5.058Z" fill="#8e7a6f"/><path d="M258.12,97.428l.937-2.392a2.443,2.443,0,0,1,2.35-1.513,2.444,2.444,0,0,1,.957.232l.4.188-2.042,4.637Z" fill="#8e7a6f"/><path d="M269.122,63.657l-8.681-9.375,6.49,14.557Z" fill="#6d523b"/><path d="M260.714,88.85l2.49-10.142a8.3,8.3,0,0,0-2.37-8.032l-4.623-4.357,4.289,9.814Z" fill="#6d523b"/><path d="M394.589,211.976c-.031.034,4.273-1.054,2.969-4.966-2-6-5.764-4.421-5.764-4.421Z" fill="#d8b094"/><path d="M418.479,129.5H343.268a2.768,2.768,0,0,0-2.768,2.768V278.732a2.768,2.768,0,0,0,2.768,2.768H457.732a2.768,2.768,0,0,0,2.768-2.76l.318-106.76Z" fill="#ffcb40"/><path d="M460.5,171.347,418.574,129.5H418.5v39.232a2.768,2.768,0,0,0,2.768,2.768H460.5Z" fill="#f0ae00"/><rect x="364.966" y="191.126" width="62.534" height="7.367" fill="#f0ae00"/><rect x="364.5" y="210.5" width="70" height="7" fill="#f0ae00"/><rect x="364.5" y="230.5" width="70" height="7" fill="#f0ae00"/><path d="M502.5,210.635l2.333-9.739a2.844,2.844,0,0,0-.094-1.636l-3.273-8.948a2.833,2.833,0,0,0-1.171-1.437l-6.739-4.169-.409.516a4.388,4.388,0,0,0-.936,2.722l-5.823-7.509a3.6,3.6,0,0,0-.763-.732l-8.635-6.1-.839,1.185a4.649,4.649,0,0,0,.454,5.9l5,5.178,4.921,8,1.128,7.06-3.375-8.39a3.811,3.811,0,0,0-.976-1.4l-10.973-9.97a4.013,4.013,0,0,0-1.347-.9L458.024,175l-.789,2.036A4.774,4.774,0,0,0,459,182.72l7.223,4.179,8.843,9.785,1.26,3.986-7.58-6a3.394,3.394,0,0,0-3.369-.488l-4.881,1.644V204.5l5.075-.021,6.879,6.08,2.384,12.627a7.614,7.614,0,0,1-7.238,9.019l-2.038.064-10.4-5.921-1.547-4.726a6.581,6.581,0,0,0-.269-.717,33.433,33.433,0,0,1-6.589,8.366l.892,3.629,14.9,14.789,40.533,20.085,14.3-20.252Z" fill="#ce9c5f"/><path d="M504.52,253.838a24.091,24.091,0,0,0-12.04-5.059l-19.288-2.39a9.361,9.361,0,0,1-3.838-1.871l-9.635-7.833c-3.407-3.46-4.46-9.956-4.46-9.956L453.712,222c-.069-.243-.366-.932-.264-.7-2.024-4.524-7.869-6.355-10.458-3.986l4.755,15.969,14.9,14.787,40.532,20.085,6.955-9.846Z" fill="#ba8c57"/><path d="M516.829,246.538a42.408,42.408,0,0,0-17.143,22.949l-.718,2.346L540.5,300.5h69Z" fill="#c2c2c2"/><path d="M516.829,245.788a42.405,42.405,0,0,0-10.09,9.4L572.683,299.5H609.5Z" fill="#d2d2d2"/><path d="M282.88,90.97l-73-9.806a2.7,2.7,0,0,0-3.039,2.32l-19.074,142a2.7,2.7,0,0,0,2.319,3.039l111.1,14.924a2.7,2.7,0,0,0,3.038-2.311l14.212-103.465Z" fill="#fff"/><path d="M318.255,136.706,283.329,91.03l-.072-.009-5.067,37.726a2.7,2.7,0,0,0,2.319,3.039l37.726,5.067Z" fill="#e6e6e6"/><rect x="222.291" y="146.611" width="48.155" height="7.194" transform="translate(22.352 -31.662) rotate(7.702)" fill="#e6e6e6"/><rect x="219.969" y="164.571" width="68.346" height="7.194" transform="translate(24.65 -32.336) rotate(7.65)" fill="#e6e6e6"/><rect x="217.875" y="179.123" width="37.268" height="7.194" transform="translate(26.242 -29.674) rotate(7.6)" fill="#e6e6e6"/><polygon points="273.25 208.5 215.325 200.459 216.283 193.328 274.208 201.37 273.25 208.5" fill="#e6e6e6"/><path d="M176.253,26.223l25.853,20.759c1.621,1.4,2.956,2.249,3.79,3.91l15.79,31.4,14.188,14.132,4.968,1.192,7.252,1.739,3.191.766.155-2.815a6.684,6.684,0,0,0-4.839-6.79l-4.524-1.289-.077.088-5.655-9.693a16.721,16.721,0,0,1,.9-5.389c.707-1.633,9.494-23.526,13.2-32.767L223.31,30.69a9.092,9.092,0,0,1-3.1-2.051L204.777,13.072Z" fill="#8c6943"/><path d="M191.6,38.369l10.729,8.612a9.107,9.107,0,0,1,3.79,3.911L221.9,82.3l14.188,14.132,15.412,3.7.036-3.174a6.385,6.385,0,0,0-.326-2.1l-12.205-3.487a4.433,4.433,0,0,1-2.143-1.375l-7.259-8.47a4.434,4.434,0,0,1-.771-1.289l-9.061-23.49a17.637,17.637,0,0,0-8.288-9.056,19.8,19.8,0,0,1-6.326-4.746,40.149,40.149,0,0,0,5.269-21.55Z" fill="#6d523b"/><path d="M204.363,9.5l-51.132-.1,40.188,31.425a42.861,42.861,0,0,0,18.046-21.432l.767-1.993Z" fill="#fff"/><path d="M183.744,33.312l9.675,7.561a42.836,42.836,0,0,0,8.963-7.138l-3.7-3.437c10.345-9.277,7.949-18.516,7.949-18.516l-2.816-1.324L184.9,25.066s1.723,1.34,4.057,3.493Z" fill="#e6e6e6"/><path d="M195.74.5H135.5l49.909,36.995A50.428,50.428,0,0,0,206.63,12.283l.9-2.345Z" fill="#c2c2c2"/><path d="M235.787,94.459a5.419,5.419,0,0,1,3.891-2.816c6.051-.12,11.758,5.668,11.758,5.668l-.154,2.816-15.412-3.7Z" fill="#665042"/><path d="M246.09,98.881l.15-1.242a2.014,2.014,0,0,1,.27-.789,1.966,1.966,0,0,1,.571-.609,1.991,1.991,0,0,1,1.6-.3l2.908.732-.294,3.456Z" fill="#8e7a6f"/><path d="M446.25,228.5s4.25-.75,2.75-5a7.16,7.16,0,0,0-5.5-4.75Z" fill="#ce9c5f"/><path d="M409.444,48.757c3.309,7.073,8.286,11.68,11.117,10.29a2.97,2.97,0,0,0,1.365-1.593c-2.87-.405-6.8-4.579-9.562-10.491-2.6-5.567-3.39-10.99-2.23-13.73a2.637,2.637,0,0,0-1.556.2C405.747,34.823,406.135,41.684,409.444,48.757Z" fill="#ad8128"/><path d="M368.4,90.537c.225.15,4.821,5.074,5.921,6.3.674.75,4.347-.9,3.522-4.422a15.941,15.941,0,0,0-4.5-7.27Z" fill="#ba8c57"/><path d="M372.593,86.565c.225.15,4.821,5.074,5.921,6.3.674.749,4.347-.9,3.522-4.422a15.944,15.944,0,0,0-4.5-7.27Z" fill="#ba8c57"/><path d="M378.106,82.8c.24.035,6.062,2.376,7.477,2.974.868.367,2.747-2.608.391-5.318a16.392,16.392,0,0,0-6.914-4.419Z" fill="#ba8c57"/><polygon points="385.271 57.5 363.755 57.795 351.671 69.584 356.681 85.5 367.587 85.5 381.439 68.7 385.271 57.5" fill="#ad7d4d"/><path d="M398.485,42.424c-3.493,2.693-14.125,2.7-29.415,6.592-3.007.767-17.29,11.929-19.5,14.671-.857,1.061.274,3.9.892,6.206s5.535,1.338,6.865.2c2.7-2.3,13.041-8.207,14.109-8.207s6.689,2.755,6.521,3.823a19.261,19.261,0,0,1-.787,2.754Z" fill="#ce9c5f"/><path d="M451.813,1.062S401,42.021,396.563,43.9c-9.958,4.217-14.551,11.351-14.452,11.351.338,0-5.059,15.177-8.769,19.111s-9.555,7.982-11.242,10.231-5.621,7.307-3.316,9.443c2.164,2.006,5.47,3.735,15.542-6.77,9.568-9.979,14.537-10.964,23.868-15.123S412.915,55.7,412.915,55.7L517.468.5Z" fill="#ce9c5f"/><path d="M384.526,45.87c-2.111.349-4.417.747-6.9,1.233l-6.193,14.785a8.831,8.831,0,0,1,2.479.883Z" fill="#c18c52"/><path d="M348.432,102.022l4.71,2.151,31.218-68.31-1.889-2.094-2.82-.057Z" fill="#db9b25"/><path d="M348.432,102.022l2.334.9,31.217-68.31.488-.839-2.82-.057Z" fill="#feb62d"/><path d="M347.248,110.157l1.184-8.134,4.71,2.15-5.371,6.224Z" fill="#fff"/><path d="M349.325,65.263c.385,1.828,2.264,13.882,2.151,14.276s-.618,9.724-.73,10.68,2.933,3.9,5.575-1.5,3.108-14.975,1.646-19.753S348.876,63.127,349.325,65.263Z" fill="#ce9c5f"/><path d="M351.926,84.542c1.41,1.409.562,5.733.169,6.408a2.146,2.146,0,0,1-1.462.787s-.112-5.453.394-6.633S351.645,84.26,351.926,84.542Z" fill="#e2b89c"/><polygon points="349.27 108.656 347.556 107.968 347.176 110.624 347.499 110.75 349.27 108.656" fill="#737373"/><path d="M366.063,87.315c-2.794-2.285-4.982-.67-6.633,2.361-2.164,3.972-.253,6.445,3.541,4.5C365.276,92.989,369.154,89.844,366.063,87.315Z" fill="#e2b89c"/><path d="M377.91,37.479l4.753,2.157,1.519-3.334a31.186,31.186,0,0,0-4.645-2.385Z" fill="#fff"/><path d="M381.868,34.889l-1.654,3.629,2.45,1.118,1.553-3.405A25.234,25.234,0,0,0,381.868,34.889Z" fill="#c2c2c2"/><path d="M379.415,34.227l4.71,2.149,1.261-2.774a.715.715,0,0,0,.067-.28.738.738,0,0,0-.431-.7l-3.369-1.537a.739.739,0,0,0-.978.364Z" fill="#df6c47"/><path d="M385.256,32.793a.767.767,0,0,0-.234-.168l-1.726-.787-1.62,3.42,2.449,1.118,1.261-2.774a.733.733,0,0,0,.067-.28.746.746,0,0,0-.046-.284A.755.755,0,0,0,385.256,32.793Z" fill="#d35f40"/><path d="M498.565.662c-27.384,22.814-78.38,46.9-84.3,49.529-6.071,2.7-11.467,14.39-15.289,17.987s-9.219,4.272-15.739,8.319c-5.77,3.582-9.6,10.674-11.184,13.041.719-.687,1.472-1.437,2.274-2.273,9.568-9.979,14.537-10.964,23.868-15.123S412.915,55.7,412.915,55.7L517.468.5Z" fill="#ba8c57"/><path d="M420.163,43.651c-3.292-7.174-8.348-11.9-11.292-10.544a3.019,3.019,0,0,0-1.436,1.581c2.954.456,6.933,4.723,9.684,10.719,2.591,5.646,3.308,11.117,2.064,13.855a2.778,2.778,0,0,0,1.608-.175C423.736,57.736,423.455,50.825,420.163,43.651Z" fill="#ffcb40"/></svg>