<svg xmlns="http://www.w3.org/2000/svg" xmlns:xlink="http://www.w3.org/1999/xlink" viewBox="0 0 636 300"><defs><clipPath id="a"><rect x="209" y="79" width="239" height="129" fill="none"/></clipPath></defs><title>swimlane-cross-platform-cloud</title><path d="M282.553,77.543a24.212,24.212,0,0,0-8.373,1.488A60.995,60.995,0,1,0,154.2,58.277,37.336,37.336,0,0,0,95.134,87.33,20.619,20.619,0,1,0,85.173,126h197.38a24.229,24.229,0,0,0,0-48.457" fill="#bfe1f7"/><path d="M615.562,282.931H14.612a4.07,4.07,0,0,1-3.98-3.959,3.98,3.98,0,0,1,3.98-3.958h600.95a3.9,3.9,0,0,1,3.98,3.958,3.981,3.981,0,0,1-3.98,3.959Z" fill="#b2b2b2"/><path d="M353,258.12V242H302v16.12c0,9.3-10.29,13.435-14.97,14.88l-.03,5h83v-5C365.32,271.555,353,267.422,353,258.12Z" fill="#a6a6a6"/><path d="M460,220V73.821A7.822,7.822,0,0,0,452.179,66H204.821A7.822,7.822,0,0,0,197,73.821V220Z" fill="#4b4a4b"/><circle cx="327.255" cy="72.557" r="1.991" fill="#767576"/><path d="M197,217v18.179A7.822,7.822,0,0,0,204.821,243H452.179A7.822,7.822,0,0,0,460,235.179V217Z" fill="#a6a6a6"/><rect x="287" y="273" width="83" height="5" fill="#737373"/><path d="M353,257V243H302v14Z" fill="#737373"/><circle cx="327.5" cy="228.5" r="4.5" fill="#737373"/><g clip-path="url(#a)"><rect x="209" y="79" width="239" height="129" fill="#8fc3ec"/><path d="M395.05,130H209.122l-.244-23H394.805a11.773,11.773,0,0,1,11.857,10.469A11.567,11.567,0,0,1,395.05,130Z" fill="#b3d6f2"/><path d="M434.685,107H337.672a5.212,5.212,0,0,1-5.178-3.991A5.079,5.079,0,0,1,337.637,97h97.012a5.211,5.211,0,0,1,5.178,3.991A5.078,5.078,0,0,1,434.685,107Z" fill="#b3d6f2"/><path d="M208,126.634,217.706,123h17.482l8.312-4.75,9.5-3.562L266.063,104h5.223l3.646-2h12.252l18.666-5.833,16.334,18.666s8.166-1.166,9.333,0,10.5-1.166,10.5-1.166,5.833,9.333,7,9.333h9.491l10.286,9H372.6l18,12h7.2l9.6-6,8.4-1.2s3.6,7.2,8.4,7.2,9.6-1.2,12,0,12.8,4.8,12.8,4.8V209H208Z" fill="#8867c8"/><path d="M236.292,171.961s-13.369-15.8-18.23-19.446-4.861-12.153-4.861-12.153,6.076-4.861,7.292-4.861,2.43,3.646,1.215,6.076,1.215,6.077,1.215,6.077-1.215-6.077,1.216-4.861S229,141.577,229,137.931v-8.507l3.646-2.43s1.215,12.153,3.646,14.583S247.23,151.3,247.23,151.3s-3.646-12.153-3.646-13.369,4.861-6.076,4.861-6.076,2.431,8.507,6.077,9.722,12.153-9.722,12.153-9.722l9.723,8.507-14.584,27.953Z" fill="#7359ae"/><path d="M295.75,141S282,124.75,282,122.25v-10l2.5,2.5s1.25,10,3.75,11.25,16.25-7.5,16.25-7.5l-3.75,7.5h5l5-1.25-10,16.25Z" fill="#7359ae"/><path d="M321.538,122s-1.23,8.615-2.461,9.846-4.923,8.616-4.923,8.616L324,149.077V138h1.231l1.231-16Z" fill="#7359ae"/><path d="M348.459,127.3l-6.684,5.773-7.292,14.584,3.646,3.646s9.723-9.723,10.938-9.723S348.459,127.3,348.459,127.3Z" fill="#7359ae"/><polygon points="366.139 183.383 362.493 162.723 366.139 153 371 153 371 161.507 375.861 163.938 372.215 176.091 374.646 196.752 366.139 183.383" fill="#7359ae"/><polygon points="383.096 180.307 381.881 164.507 385.527 156 390.388 156 386.742 164.507 385.527 183.952 383.096 180.307" fill="#7359ae"/><path d="M406.187,152.515l9.723,6.077-1.216,4.861s-1.215,10.938-1.215,12.154-3.646,14.583-3.646,14.583l3.646,14.584-7.292-6.076-7.292-18.23,2.431-20.661-2.431-2.43,2.431-10.938Z" fill="#7359ae"/><path d="M430.54,214s-7.2-20.4-7.2-21.6,1.2-19.2,1.2-19.2l3.6,2.4s-1.2,7.2,0,9.6,6,10.8,6,10.8h3.6l7.2,18Z" fill="#7359ae"/><path d="M397.618,216.6l-34.072-36.979-6.987-3.494-15.14-16.305L332.1,149.214l-22.127-9.192-5.823-4.658-16.3,8.152-8.333.842-7.1,3.642H270.57l-8.48,6.058s-7.27,2.423-8.481,2.423-10.9,7.269-10.9,7.269l-4.846,1.211s-3.635,4.847-8.481,4.847-27.865,9.692-27.865,9.692L207.57,211,308,212h.026Z" fill="#7359ae"/><polygon points="233.408 123.348 237.257 128.209 240.903 125.778 243.334 118.486 233.408 123.348" fill="#a38cdd"/><polygon points="253.354 114.84 247.277 126.994 253.354 128.209 257 117.271 257 111.857 253.354 114.84" fill="#a38cdd"/><path d="M286.354,101.708,282.708,109h3.646L290,105.354V109h8.507l7.292,3.646,6.077,9.723s0-2.431,1.215-2.431-2.43-13.369-2.43-13.369L305.8,95.631Z" fill="#a38cdd"/><path d="M265,128.6c1.208,0,8.458-9.6,8.458-9.6H275l1.25,7.292,2.5,3.646,2.5,4.861s5,3.646,8.75,4.862,7.5-1.216,7.5-1.216l6.25-3.646s0,4.862,1.25,4.862,3.75-2.431,3.75-2.431l6.25,2.431,1.25,2.43,3.75,1.216s2.5,3.645,5,3.645a45.325,45.325,0,0,1,7.5,1.216s-2.5,6.076-1.25,8.507,5,12.153,5,12.153l-12.5-1.215L315,166.4V146.952l-2.5,2.431-3.75,15.8s-3.75-6.076-3.75-8.507V151.3l-1-3.646V143h-3.958L294,149v-4.8l-8.458,7.2s0-6-3.625-6-7.25-3.6-7.25-3.6-4.834,0-7.25-1.2A4.258,4.258,0,0,1,265,137Z" fill="#a38cdd"/><path d="M350.342,123l-7.412,16.059,1.236,1.235,2.47,3.706H357v-4c0-2.667-1.25-6.667,0-6.667A4.292,4.292,0,0,0,359.5,132l7.5,8s1.25,4,0,5.333A4.266,4.266,0,0,0,365.75,148h3.75l2.5-5.333v6.047s5.143,2.572,6.429,0,.989-11.769.989-11.769l-4.9-3.264L372,138.429V132h-3.857l-10.286-9Z" fill="#a38cdd"/><polygon points="397.277 144.008 399.708 147.654 404.569 151.3 403.354 145.223 407 142.793 407 137.931 397.277 144.008" fill="#a38cdd"/><path d="M424.909,143.631s-2.431,7.292-3.646,8.508l-2.431,2.43S420.048,157,421.263,157h6.076l3.646,1.215,8.508,1.216L448,155.582v-7.089l-12.153-6.077Z" fill="#a38cdd"/><path d="M341.458,159s-3.857,9-2.571,9h6.428l3.857,9h7.715l-2.572-9-9-7.714Z" fill="#a38cdd"/><path d="M364,180v7.292l4.861,4.861a27.552,27.552,0,0,1,1.216,4.862c0,1.215,2.43,3.646,1.215,4.861a17.5,17.5,0,0,1-3.646,2.431s15.8,9.722,18.23,9.722,18.23,2.431,18.23,2.431l-12.154-13.369-4.861-3.646-3.646-8.507-3.646,2.431-4.861-3.646-1.215-4.862L367.646,180Z" fill="#a38cdd"/><polygon points="345.876 125.778 343.445 113.625 335.366 115.07 328.861 113.625 322.785 114.84 321.569 122.132 324 124.563 324 130.639 327.646 131.855 332.507 124.563 334.221 119.421 345.876 125.778" fill="#a38cdd"/></g><rect x="209" y="78" width="239" height="5" fill="#fff"/><rect x="255" y="197" width="144" height="11" fill="#505050"/><path d="M228,272V149.058A5.059,5.059,0,0,0,222.942,144H44.058A5.059,5.059,0,0,0,39,149.058V272Z" fill="#4b4a4b"/><path d="M242.715,278H24.937c-7.259,0-8.445-10-8.445-10H251.159S248.344,278,242.715,278Z" fill="#737373"/><rect x="132" y="148" width="3" height="3" fill="#5d5f5e"/><path d="M48,251.44A2.63,2.63,0,0,0,50.541,254h164.5A3.96,3.96,0,0,0,219,250.039v-94.99a.049.049,0,0,0-.049-.049H48.2a.2.2,0,0,0-.2.2V251" fill="#69afe5" fill-rule="evenodd"/><path d="M154.042,230Zm-1.086.074" fill="#0078d7" fill-rule="evenodd"/><rect x="48" y="169" width="74" height="85"/><ellipse cx="57.081" cy="182.977" rx="4.156" ry="3.977" fill="#107c10"/><rect x="78" y="192" width="17" height="15" fill="#0078d7"/><rect x="78" y="207" width="8" height="7" fill="#0078d7"/><rect x="86" y="207" width="8" height="7" fill="#107c10"/><rect x="95" y="192" width="8" height="7" fill="#0078d7"/><rect x="104" y="192" width="7" height="7" fill="#0078d7"/><rect x="78" y="230" width="17" height="15" fill="#107c10"/><rect x="95" y="230" width="8" height="7" fill="#0078d7"/><rect x="104" y="230" width="7" height="7" fill="#0078d7"/><rect x="95" y="238" width="8" height="7" fill="#fff"/><rect x="104" y="238" width="7" height="7" fill="#2f2f2f"/><rect x="78" y="218" width="7" height="7" fill="#00188f"/><rect x="86" y="218" width="8" height="7" fill="#d83b01"/><rect x="95" y="218" width="7" height="7" fill="#5c2d91"/><rect x="103" y="218" width="8" height="7" fill="#107c10"/><rect x="78" y="177" width="33" height="13" fill="#0078d7"/><rect x="94" y="200" width="17" height="14" fill="#0078d7"/><path d="M219,245H48v7.585A2.373,2.373,0,0,0,50.392,255H216.608A2.373,2.373,0,0,0,219,252.585V245" fill-rule="evenodd"/><rect x="53" y="190" width="7" height="5" fill="#0078d7"/><rect x="53" y="197" width="7" height="5" fill="#0078d7"/><rect x="53" y="204" width="7" height="5" fill="#a80000"/><rect x="53" y="211" width="7" height="5" fill="#0078d7"/><rect x="53" y="218" width="7" height="5" fill="#0078d7"/><path d="M219,155H160.1L219,244.5h0c.042,0,.042-89.5,0-89.5" fill="#8fc3ec" fill-rule="evenodd"/><path d="M194.434,183.282a4.059,4.059,0,0,0,.149-1.33,9.923,9.923,0,0,0-9.945-9.9,10.089,10.089,0,0,0-9.2,6.206,7.74,7.74,0,0,0-3.711-1.035,7.333,7.333,0,0,0-7.421,7.389A7.426,7.426,0,0,0,171.725,192H193.1a4.586,4.586,0,0,0,4.452-4.581A4.439,4.439,0,0,0,194.434,183.282Z" fill="#fff" fill-rule="evenodd"/><polygon points="182 207.984 182 245 159 245 159 229 160 229 160 222 169 222 169 229 170 229 170 236.999 175 236.999 175 209.103 182 207.984" fill="#0089de" fill-rule="evenodd"/><polygon points="219 235 219 245 185 245 185 219 195 219 195 230 197 230 197 215 199 215 199 212 206 212 206 215 208 215 208 235 219 235" fill="#0089de" fill-rule="evenodd"/><path d="M148.805,229.176c-.208-2.3-.322-4.707-.322-7.176,0-8.5,1.321-16.262,3.365-21.534a28.105,28.105,0,0,0,8.248-2.118A30.841,30.841,0,0,0,148.445,196l-.8-7h-.431l-.629,7a30.876,30.876,0,0,0-11.7,2.351,28.1,28.1,0,0,0,8.25,2.118C145.179,205.738,146.5,213.5,146.5,222c0,2.469-.114,4.873-.322,7.176a15.254,15.254,0,0,0-5.173,1.172,15.013,15.013,0,0,0,4.925,1.156,47.708,47.708,0,0,1-3.405,13.5h1.116a46.361,46.361,0,0,0,3.128-12.018v12.029h1.444V232.973A46.332,46.332,0,0,0,151.342,245h1.116a47.708,47.708,0,0,1-3.405-13.5,15.007,15.007,0,0,0,4.924-1.156A15.253,15.253,0,0,0,148.805,229.176Zm-.592-18.16V200.7c.844-.016,1.675-.055,2.485-.122A50.158,50.158,0,0,0,148.213,211.016Zm-3.929-10.434c.811.067,1.641.106,2.485.122v10.3A50.154,50.154,0,0,0,144.284,200.582Z" fill="#0089de" fill-rule="evenodd"/><path d="M594,272V166.369A4.369,4.369,0,0,0,589.631,162H435.369A4.369,4.369,0,0,0,431,166.369V272Z" fill="#4b4a4b"/><rect x="440" y="171" width="14" height="90" fill="#750000"/><rect x="454" y="171" width="132" height="90" fill="#e27c37"/><polygon points="586 261 577.681 261 524.477 171 586 171 586 261" fill="#ea8b4b"/><path d="M607.2,278H418.324c-6.3,0-7.324-7-7.324-7H614.524S612.083,278,607.2,278Z" fill="#737373"/><rect x="511" y="166" width="3" height="2" fill="#5d5f5e"/><rect x="440" y="171" width="146" height="6" fill="#737373"/><rect x="443" y="181" width="7" height="7" fill="#d83b01"/><rect x="443" y="191" width="7" height="7" fill="#0872c4"/><rect x="443" y="200" width="7" height="7" fill="#107c10"/><rect x="443" y="210" width="7" height="7" fill="#bd3604"/><rect x="443" y="219" width="7" height="7" fill="#d83b01"/><rect x="443" y="229" width="7" height="7" fill="#0872c4"/><rect x="278" y="198" width="8" height="8" fill="#0078d7"/><rect x="298" y="198" width="8" height="8" fill="#5c2d91"/><rect x="308" y="198" width="8" height="8" fill="#737373"/><circle cx="272" cy="202" r="4.243" fill="#32145a"/><circle cx="292" cy="202" r="4.243" fill="#1ac3f3"/><circle cx="322" cy="202" r="4.243" fill="#107c10"/><rect x="328" y="198" width="8" height="8" fill="#0078d7"/><rect x="348" y="198" width="8" height="8" fill="#af5443"/><rect x="358" y="198" width="8" height="8" fill="#737373"/><rect x="258" y="198" width="8" height="8" fill="#737373"/><rect x="378" y="198" width="8" height="8" fill="#0078d7"/><circle cx="342" cy="202" r="4.243" fill="#a6a6a6"/><circle cx="372" cy="202" r="4.243" fill="#32145a"/><circle cx="392" cy="202" r="4.243" fill="#1ac3f3"/></svg>