<svg xmlns="http://www.w3.org/2000/svg" viewBox="0 0 300 300"><defs><style>.cls-1{fill:#f6f6f6;opacity:0;}.cls-2{fill:#b3d6f2;}.cls-3{fill:#b2b2b2;stroke:#b2b2b2;stroke-miterlimit:10;}.cls-4{fill:#282828;}.cls-5{fill:#5d5f5e;}.cls-6{fill:#00bcf2;}.cls-10,.cls-6,.cls-7,.cls-8{fill-rule:evenodd;}.cls-7{fill:#2488d8;}.cls-8{fill:#0078d7;}.cls-9{fill:#666;}.cls-10{fill:#69afe5;}.cls-11{fill:#724aad;}.cls-12{fill:#9080cf;}.cls-13{fill:#2e2e2e;}.cls-14{fill:#939393;}.cls-15{fill:#767576;}.cls-16{fill:#e6e6e6;}.cls-17{fill:#f08400;}.cls-18{fill:#ffb900;}</style></defs><title>swimlane-deploy-cross-platform</title><g id="Layer_2" data-name="Layer 2"><g id="Layer_1-2" data-name="Layer 1"><path class="cls-1" d="M300,300H0V0H300Z"/><path class="cls-2" d="M29.85,52.93a8.14,8.14,0,0,0,8,8.07l57.52.1A12.76,12.76,0,1,0,92.13,36c0-.14,0-.28,0-.42a16.34,16.34,0,0,0-32.42-2.92A12.63,12.63,0,0,0,38.24,45.3a7.7,7.7,0,0,0-.83,0A7.58,7.58,0,0,0,29.85,52.93Z"/><polygon class="cls-3" points="228.62 115.41 277.78 49.31 276.97 48.71 229.38 112.7 246.44 51.82 245.47 51.55 228.13 113.4 208.05 48.42 207.08 48.72 226.84 112.63 177.93 48.7 177.13 49.31 227.7 115.42 228.18 116.97 228.62 115.41"/><path class="cls-2" d="M239.71,237.61c-.62,0-1.24,0-1.85.1a28.11,28.11,0,0,0-47.79-28.09,36.38,36.38,0,0,0-72.17,6.49c0,.31,0,.62,0,.93a28.35,28.35,0,1,0-7.19,55.84l128-.23c9.93,0,17.77-8.52,17.77-18A16.85,16.85,0,0,0,239.71,237.61Z"/><path class="cls-4" d="M269,166.25V112.94a2.19,2.19,0,0,0-2.19-2.19H189.23a2.19,2.19,0,0,0-2.19,2.19v53.31Z"/><path d="M275.37,168.85H180.94c-3.15,0-3.66-4.34-3.66-4.34H279S277.81,168.85,275.37,168.85Z"/><rect class="cls-5" x="227.36" y="112.48" width="1.3" height="1.3"/><path class="cls-6" d="M190.94,157.33a1.14,1.14,0,0,0,1.1,1.11h73a0,0,0,0,0,0,0V115.54s0,0,0,0H191a.08.08,0,0,0-.09.08v41.54"/><path class="cls-7" d="M190.94,157.33a1.14,1.14,0,0,0,1.1,1.11h73a0,0,0,0,0,0,0V115.54s0,0,0,0H191a.08.08,0,0,0-.09.08v41.54"/><path class="cls-8" d="M236.92,148Z"/><path class="cls-9" d="M278.69,165.81a14,14,0,0,1,.55-1.3H177.07c0-.16.08.5.36,1.3Z"/><path class="cls-10" d="M265.09,150.54v-35s0,0,0,0h-35Z"/><polygon class="cls-3" points="120.33 190.71 185.12 97.86 184.29 97.28 122.04 186.5 156.14 103.68 155.21 103.3 120.38 187.9 121.57 111.56 120.56 111.54 119.36 188.45 85.52 119.5 84.61 119.95 118.23 188.43 50.41 127.4 49.74 128.15 115.95 187.74 22.34 133.87 21.84 134.75 119.45 190.91 120.3 192.66 120.33 190.71"/><path class="cls-11" d="M50.1,129.69l2.43-.56c1.8-4,7.49-7.92,14.81-9.6s14.14-.69,17.52,2.17l2.56-.59c1.8-4,7.5-7.92,14.82-9.6s14.13-.69,17.52,2.16l2.56-.59c1.79-4,7.49-7.91,14.81-9.6s14.14-.68,17.52,2.17l2.14-.49c-.71-21.06-28.39-69.07-69.68-59.58S44,107.39,50.1,129.69Z"/><path class="cls-12" d="M88.56,45.29c-.48.1-1,.18-1.45.29-.69.16-1.37.35-2.06.53-16.54,42-.19,75.59-.19,75.59l2.56-.59c1.8-4,7.5-7.92,14.82-9.6s14.13-.69,17.52,2.16l2.56-.59S121.8,75.82,88.56,45.29Z"/><path class="cls-12" d="M20.83,135.25l.84-.19c2-3.47,6.67-6.56,12.52-7.91,6.59-1.51,12.78-.37,15.91,2.54l1.2-.28C40.56,77.28,71.49,49.17,87.11,45.58,46.2,55,19.15,93.23,20.83,135.25Z"/><path class="cls-12" d="M184.71,97.57l.84-.19c-16.85-38.54-57.89-61.12-98.8-51.71,15.63-3.6,55.73,8.18,68.83,59.77l1.21-.28c1.53-4,6.61-7.72,13.19-9.23C175.83,94.58,181.35,95.34,184.71,97.57Z"/><path class="cls-13" d="M160.5,280.77c-3.21,1.54-8.8,3.58-19.08,5.94s-18,3.37-21.09,3.29-5.41-1.37-6-4.1l-19.9-86.58c-.65-2.78.81-4.89,3.83-6.07a168.64,168.64,0,0,1,20.19-6,122.76,122.76,0,0,1,19.72-3.19c3.46-.24,5.48,1.12,6.11,3.9l19.89,86.48C164.76,277.18,163.71,279.22,160.5,280.77Z"/><rect class="cls-14" x="106.24" y="197.36" width="46.14" height="80.13" transform="translate(-49.92 35.02) rotate(-12.95)"/><path class="cls-15" d="M119.83,192.05a1,1,0,0,1-2,.45,1,1,0,1,1,2-.45Z"/><path class="cls-15" d="M104.4,196.41a.8.8,0,1,1-1-.61A.8.8,0,0,1,104.4,196.41Z"/><polygon class="cls-16" points="151.66 231.69 142.81 193.21 100.78 202.87 151.66 231.69"/><path class="cls-17" d="M190.16,46.59c8.37,0,15.55,2.75,18.6,6.67,3.06-3.92,10.23-6.67,18.6-6.67s15.7,2.82,18.7,6.81c3-4,10.22-6.81,18.69-6.81A31.59,31.59,0,0,1,278,49.3a52.32,52.32,0,0,0-101.38.11A31.26,31.26,0,0,1,190.16,46.59Z"/><path class="cls-18" d="M227.36,10.2c-7,5.06-18.32,17.23-18.6,43.05h0c3.06-3.92,10.23-6.67,18.6-6.67s15.55,2.76,18.6,6.68C245.67,27.44,234.35,15.26,227.36,10.2Z"/></g></g></svg>