<svg width="636" height="300" viewBox="0 0 636 300" fill="none" xmlns="http://www.w3.org/2000/svg">
<path d="M50.1496 261.21H586.1C587.61 261.21 589.03 262.2 589.32 263.67C589.69 265.56 588.05 267.21 585.99 267.21H50.3896C48.8796 267.21 47.4596 266.22 47.1696 264.75C46.7996 262.86 48.4396 261.21 50.4996 261.21" fill="#C8C8C8"/>
<path d="M462.589 40.17H157.529V239.34H462.589V40.17Z" fill="#AFD7F1"/>
<path d="M460.45 153.44V44.45H341.35L460.45 153.44Z" fill="url(#paint0_linear)"/>
<path d="M267.53 131.28V153.44L252.25 167.81V131.19L267.53 131.28Z" fill="#389FE5"/>
<path d="M251.812 132.409L270.342 132.409L270.342 128.849L251.812 128.849L251.812 132.409Z" fill="#5AB0EA"/>
<path d="M374.4 163.32H338.89V199.9H374.4V163.32Z" fill="#2488D8"/>
<path d="M320.58 163.3H302.5V207.93H320.58V163.3Z" fill="#389FE5"/>
<path d="M213.829 82.34H210.409C214.119 81.51 216.899 78.22 216.899 74.26C216.899 72.51 216.349 70.89 215.429 69.56C215.279 69.31 215.069 69.05 214.779 68.74C210.359 63.84 208.979 57.22 208.569 55.6V55.28C208.569 55.28 208.549 55.35 208.529 55.45C208.509 55.35 208.489 55.28 208.489 55.28V55.61C208.089 57.2 206.579 64.69 202.799 68.36C201.269 69.86 200.319 71.95 200.319 74.26C200.319 78.22 203.099 81.52 206.809 82.34H203.179V84.24H201.209V218.09H215.939V84.25H213.839V82.34H213.829Z" fill="#389FE5"/>
<path d="M227.96 114.01H258.26L255.29 119.44L230.89 119.4L227.96 114.01Z" fill="#2488D8"/>
<path d="M339.619 136.33V158.24H339.979C340.579 149.98 347.449 143.47 355.859 143.47C364.269 143.47 371.139 149.99 371.739 158.24H372.559V136.33H339.619Z" fill="#5AB0EA"/>
<path d="M367.599 158.36V162.1H364.309V158.36H360.689V162.1H357.389V158.36H353.769V162.1H350.479V158.36H346.859V162.1H343.569V158.36H340.189V166.16H370.809V158.36H367.599Z" fill="#7BC0EF"/>
<path d="M343.58 79.56H313.27L316.25 84.99L340.64 84.95L343.58 79.56Z" fill="#2488D8"/>
<path d="M340.4 71.75V75.5H337.14V71.75H333.56V75.5H330.3V71.75H326.72V75.5H323.46V71.75H319.88V75.5H316.62V71.75H313.27V79.56H343.58V71.75H340.4Z" fill="#7BC0EF"/>
<path d="M243.919 80.47H242.609V108.37H243.919V80.47Z" fill="#7BC0EF"/>
<path d="M244.039 94.91H260.879C261.359 94.91 261.649 94.39 261.409 93.98L258.229 88.68C258.109 88.48 258.109 88.24 258.229 88.04L261.389 82.93C261.639 82.52 261.349 81.99 260.869 81.99H244.049C243.709 81.99 243.439 82.27 243.439 82.6V94.3C243.419 94.64 243.699 94.91 244.039 94.91Z" fill="#7BC0EF"/>
<path d="M408.439 113.15H403.839C401.899 106.08 395.549 100.85 387.929 100.58V76.26C387.929 75.48 387.299 74.85 386.519 74.85C385.739 74.85 385.109 75.48 385.109 76.26V100.7C378.209 101.59 372.619 106.58 370.809 113.14H365.699V126.18H370.849V198.33H403.889V126.18H408.439V113.15Z" fill="#389FE5"/>
<path d="M395.809 133.7H391.569V144.41H395.809V133.7Z" fill="#5AB0EA"/>
<path d="M384.289 149.46H380.049V160.17H384.289V149.46Z" fill="#5AB0EA"/>
<path d="M447.39 129.65H417.09L420.06 135.08L444.46 135.04L447.39 129.65Z" fill="#389FE5"/>
<path d="M444.21 121.84V125.59H440.95V121.84H437.37V125.59H434.11V121.84H430.53V125.59H427.27V121.84H423.69V125.59H420.43V121.84H417.09V129.65H447.39V121.84H444.21Z" fill="#7BC0EF"/>
<path d="M403.73 177.47H185.5V237.41H403.73V177.47Z" fill="#2488D8"/>
<path d="M460.499 186.68H390.619V237.41H460.499V186.68Z" fill="#2488D8"/>
<path d="M444.46 185.9L420.02 185.69V135.04H444.46V185.9Z" fill="#5AB0EA"/>
<path d="M436.43 165.18V146.71C436.43 144.53 434.67 142.77 432.49 142.77C430.31 142.77 428.55 144.53 428.55 146.71V165.18H436.43Z" fill="#389FE5"/>
<path d="M340.81 170.7H304.55V197.29H340.81V170.7Z" fill="#389FE5"/>
<path d="M338.229 191.66V195.41H334.979V191.66H331.389V195.41H328.129V191.66H324.549V195.41H321.289V191.66H317.709V195.41H314.459V191.66H314.449H311.279H311.109V195.41H308.019V191.66H304.439V195.41H301.179V191.66H297.599V195.41H294.339V191.66H290.759V195.41H287.499V191.66H284.159V199.47H311.109H314.459H341.409V191.66H338.229Z" fill="#2488D8"/>
<path d="M367.6 237.4V193.15C367.6 187.44 362.97 182.81 357.26 182.81C351.55 182.81 346.92 187.44 346.92 193.15V237.4H367.6Z" fill="#389FE5"/>
<path d="M213.589 92.57H210.699V101.88H213.589V92.57Z" fill="#5AB0EA"/>
<path d="M196.6 115.51L208.79 144.07L220.22 115.51H196.6Z" fill="#389FE5"/>
<path d="M404 125.94H370.81V129.95H404V125.94Z" fill="#2488D8"/>
<path d="M292.95 171.82V175.56H289.69V171.82H286.11V175.56H282.85V171.82H279.27V175.56H276.01V171.82H272.43V175.56H269.17V171.82H268.86H265.82H265.68V175.56H262.42V171.82H258.84V175.56H255.58V171.82H251.99V175.56H248.74V171.82H245.15V175.56H241.9V171.82H241.74H238.56H238.55V175.56H235.31V171.82H231.72V175.56H228.46V171.82H224.88V175.56H221.62V171.82H218.04V175.56H214.78V171.82H214.47H211.44H211.29V175.56H208.03V171.82H204.45V175.56H201.19V171.82H197.61V175.56H194.35V171.82H190.77V175.56H187.51V171.82H184.17V179.63H211.44H214.47H238.55H241.74H265.82H268.86H296.13V171.82H292.95Z" fill="#7BC0EF"/>
<path d="M309.369 139.22H305.069C303.459 134.21 298.419 129.87 293.099 129.09V109.5C293.099 108.87 292.589 108.36 291.959 108.36C291.329 108.36 290.819 108.87 290.819 109.5V129.2C285.259 129.92 279.899 133.94 278.439 139.23H274.329V149.74H278.479V201.16L291.829 238.67H305.109V149.73H309.369V139.22Z" fill="#389FE5"/>
<path d="M298.589 150.7H295.169V159.33H298.589V150.7Z" fill="#5AB0EA"/>
<path d="M289.309 163.41H285.889V172.04H289.309V163.41Z" fill="#5AB0EA"/>
<path d="M222.819 196.9V237.41H223.489C224.619 221.83 237.589 210.37 253.459 210.37C269.329 210.37 282.289 221.83 283.429 237.41H284.979V196.9H222.819Z" fill="#389FE5"/>
<path d="M286.69 224.6H284.88V228.35H281.62V224.6H281.31H278.27H278.13V228.35H274.87V224.6H271.28V228.35H268.03V224.6H264.44V228.35H261.19V224.6H257.6V228.35H254.34V224.6H254.19H251.01H251V228.35H247.75V224.6H244.17V228.35H240.91V224.6H237.33V228.35H234.07V224.6H230.49V228.35H227.23V224.6H226.92H223.89H223.74V228.35H220.6V237.41H286.69V224.6Z" fill="#389FE5"/>
<path d="M220.86 193.64C221.68 193.12 222.24 192.2 222.24 191.15C222.24 189.52 220.92 188.2 219.29 188.2C217.66 188.2 216.34 189.52 216.34 191.15C216.34 192.2 216.89 193.11 217.72 193.64H215.76V237.41H223.03V193.64H220.86Z" fill="#5AB0EA"/>
<path d="M289.36 193.64C290.18 193.12 290.74 192.2 290.74 191.15C290.74 189.52 289.42 188.2 287.79 188.2C286.16 188.2 284.84 189.52 284.84 191.15C284.84 192.2 285.39 193.11 286.22 193.64H284.26V237.41H291.53V193.64H289.36Z" fill="#5AB0EA"/>
<path d="M386.949 196.9V237.4H387.619C388.749 221.82 401.719 210.37 417.589 210.37C433.459 210.37 446.419 221.82 447.559 237.4H449.109V196.9H386.949Z" fill="#389FE5"/>
<path d="M450.829 224.6H449.009V228.35H445.749V224.6H445.439H442.409H442.259V228.35H438.999V224.6H435.419V228.35H432.159V224.6H428.579V228.35H425.319V224.6H421.729V228.35H418.479V224.6H418.329H415.139H415.129V228.35H411.889V224.6H408.299V228.35H405.049V224.6H401.459V228.35H398.199V224.6H394.619V228.35H391.359V224.6H391.049H388.019H387.869V228.35H384.729V237.4H450.829V224.6Z" fill="#389FE5"/>
<path d="M384.99 193.64C385.81 193.12 386.37 192.2 386.37 191.15C386.37 189.52 385.05 188.2 383.42 188.2C381.79 188.2 380.47 189.52 380.47 191.15C380.47 192.2 381.02 193.11 381.85 193.64H379.89V237.4H387.16V193.64H384.99Z" fill="#5AB0EA"/>
<path d="M452.82 193.64C453.64 193.12 454.2 192.2 454.2 191.15C454.2 189.52 452.88 188.2 451.25 188.2C449.62 188.2 448.3 189.52 448.3 191.15C448.3 192.2 448.85 193.11 449.68 193.64H447.72V237.4H454.99V193.64H452.82Z" fill="#5AB0EA"/>
<path d="M213.83 82.34H210.41C214.12 81.51 216.9 78.22 216.9 74.26C216.9 72.51 216.35 70.89 215.43 69.56C215.28 69.31 215.07 69.05 214.78 68.74C211.85 65.49 210.07 60.64 209.21 57.73C209.02 57.09 208.12 57.1 207.94 57.74C207.08 60.79 205.34 65.88 202.79 68.35C201.26 69.85 200.31 71.94 200.31 74.25C200.31 78.21 203.09 81.51 206.8 82.33H203.17V84.23H201.2V154.25H215.93V84.25H213.83V82.34Z" fill="#389FE5"/>
<path d="M220.23 108.45H196.6V115.51H220.23V108.45Z" fill="#5AB0EA"/>
<path d="M461.249 179.36H458.009V183.11H454.759V179.36H451.169V183.11H447.919V179.36H444.329V183.11H441.379H441.189V179.36H441.069H437.729H437.609V183.11H434.349V179.36H434.039H430.999H430.859V183.11H427.599V179.36H424.009V183.11H420.759V179.36H417.169V183.11H413.919V179.36H410.329V183.11H407.069V179.36H403.729V187.17H437.729H441.379H461.249V179.36Z" fill="#7BC0EF"/>
<path d="M340.64 84.95H316.21V190.16H340.64V84.95Z" fill="#389FE5"/>
<path d="M332.35 116.07V97.61C332.35 95.43 330.59 93.67 328.41 93.67C326.23 93.67 324.47 95.43 324.47 97.61V116.08H332.35V116.07Z" fill="#5AB0EA"/>
<path d="M326.6 118.4C326.7 118.39 328.25 117.27 328.65 117.11C329.05 116.95 328.93 117.51 329.02 117.52C329.11 117.53 329.82 117.28 330.06 117.49C330.3 117.71 330.32 118.84 330.26 119.09C330.2 119.34 328.81 119.62 328.54 119.58C328.1 119.66 327.67 119.81 327.27 120.01L326.6 118.4Z" fill="#D3A37F"/>
<path d="M319.7 116.44C319.7 116.44 322.01 121.17 322.3 121.39C323.07 121.97 323.47 121.74 324.52 121.31C325.49 120.89 326.43 120.39 327.31 119.82L326.66 118.35L324.54 118.95C323.99 119.1 323.43 118.77 323.3 118.21L322.39 114.21L319.7 116.44Z" fill="url(#paint1_linear)"/>
<path d="M315.02 130.48L320.28 134.98C320.67 135.32 320.98 135.74 321.16 136.22L324.6 144.98C324.6 144.98 326.68 145.02 326.76 144.69C326.84 144.36 326.57 137.31 325.05 133.94C324.17 132 319.58 127.25 318.48 126.84C317.4 126.43 315.02 130.48 315.02 130.48Z" fill="url(#paint2_linear)"/>
<path d="M324.29 144.43C324.29 144.43 325.78 144.29 326.08 144.28C326.37 144.27 326.6 143.43 326.72 143.57C327.11 144 329.31 144.87 329.12 144.19C329.03 143.85 329.57 145.02 329.57 145.02C328.17 145.61 326.71 146.06 325.22 146.37C325.04 146.39 324.87 146.17 324.69 145.6C324.56 145.21 324.29 144.43 324.29 144.43Z" fill="#737373"/>
<path d="M299.07 137.2C299.07 137.2 308.94 137.62 312.33 136.77C314.75 136.16 316.68 132.74 317.78 131.64C318.89 130.54 319.35 127.32 319.35 127.32L313.68 125.07C313.19 125.51 312.79 126.04 312.5 126.62L311.83 128.6C311.83 128.6 310.82 131.86 309.62 132.83C307.41 133.09 298.14 134.81 298.14 134.81L299.07 137.2Z" fill="#7F7F7F"/>
<path d="M299.59 134.66C299.59 134.66 299 136.23 298.9 136.51C298.8 136.79 299.46 137.25 299.32 137.37C299.18 137.49 298.08 139.1 297.85 139.36C297.62 139.62 296.92 139.46 296.92 139.46C296.97 137.89 297.15 136.33 297.45 134.79C297.5 134.61 297.77 134.55 298.36 134.59C298.77 134.61 299.59 134.66 299.59 134.66Z" fill="#737373"/>
<path d="M313.21 124.9C313.53 125.07 319.35 127.32 319.35 127.32C319.35 127.32 320.97 122.35 321.93 118.55C322.89 114.75 322.79 113.23 320.77 112.08C318.74 110.94 317.63 111.12 316.76 111.44C316.03 111.89 315.42 112.53 315 113.28C314.58 114.03 314.35 114.88 314.35 115.74C314.51 117.64 313.21 124.9 313.21 124.9Z" fill="url(#paint3_linear)"/>
<path d="M319.87 120.92C319.87 118.32 317.76 116.21 315.16 116.21C312.56 116.21 310.45 118.32 310.45 120.92C310.45 123.52 312.56 125.63 315.16 125.63C317.76 125.62 319.87 123.52 319.87 120.92Z" fill="#ED8422"/>
<path d="M319.03 120.92C319.03 118.32 316.92 116.21 314.32 116.21C311.72 116.21 309.61 118.32 309.61 120.92C309.61 123.52 311.72 125.63 314.32 125.63C316.93 125.62 319.03 123.52 319.03 120.92Z" fill="#FFD35C"/>
<path d="M312.58 121C312.58 121 313.31 122.98 313.37 123.34C313.43 123.7 314.43 123.98 314.43 123.98L316.11 123.67L315.35 122.62L316.41 122.56L313.7 120.61L312.58 121Z" fill="#D3A37F"/>
<path d="M316.82 111.34C314.48 112.3 312.21 113.42 310.02 114.69C309.39 115.07 308.5 116.19 309.13 117.38C309.47 118.13 312.66 121.84 312.66 121.84L314.38 121.09L313.07 117.55C312.91 117.11 313.12 116.62 313.55 116.43C314.79 115.89 317.25 114.85 318.68 114.32C320.65 113.58 319.53 110.38 316.82 111.34Z" fill="#7F7F7F"/>
<path d="M319.6 106.32C318.55 108.1 318.77 110.17 318.67 111.27C319.41 111.42 320.12 111.7 320.76 112.08C320.86 112.14 320.93 112.2 321.02 112.25L321.23 111.34C321.23 111.34 323 111.98 323.36 111.22C323.83 109.68 324.13 108.09 324.27 106.48C324.27 105.79 320.73 104.41 319.6 106.32Z" fill="#D3A37F"/>
<path d="M321.45 108.6C321.95 108.61 321.8 106.74 322.56 106.84C323.13 106.94 323.72 106.94 324.29 106.85C324.29 106.85 324.47 105.02 323 104.78C321.53 104.54 319.68 104.47 319 105.76C318.32 107.05 318.74 110.25 318.74 110.25C318.74 110.25 320.44 110.32 320.12 109.09C319.82 107.91 320.04 107.5 320.49 107.44C320.84 107.39 320.95 108.59 321.45 108.6Z" fill="#7A4622"/>
<path d="M188.64 125.9H185.26C183.83 120.7 179.16 116.85 173.56 116.65V97.73H171.48V116.75C166.41 117.41 162.29 121.07 160.96 125.9H157.21V135.49H161V188.56H185.3V135.49H188.64V125.9Z" fill="#389FE5"/>
<path d="M179.35 136.38H176.229V144.26H179.35V136.38Z" fill="#5AB0EA"/>
<path d="M171.53 136.38H168.41V144.26H171.53V136.38Z" fill="#5AB0EA"/>
<path d="M170.84 194.26V175.79C170.84 173.61 169.08 171.85 166.9 171.85C164.72 171.85 162.96 173.61 162.96 175.79V194.26H170.84Z" fill="#389FE5"/>
<path d="M184.279 194.26V175.79C184.279 173.61 182.519 171.85 180.339 171.85C178.159 171.85 176.399 173.61 176.399 175.79V194.26H184.279Z" fill="#389FE5"/>
<path d="M231.14 106.21V109.95H234.4V106.21H237.98V109.95H241.24V106.21H244.82V109.95H248.08V106.21H251.66V109.95H254.92V106.21H258.26V114.01H227.96V106.21H231.14Z" fill="#5AB0EA"/>
<path d="M96.8994 256.57L522.199 257.37C522.199 257.37 512.879 263.1 501.329 263.1C489.779 263.1 126.049 263.1 117.129 263.1C108.209 263.1 96.8994 256.57 96.8994 256.57Z" fill="#444444"/>
<path d="M457.06 32.77H163.15C155.24 32.77 148.83 39.18 148.83 47.09V245.43C148.83 253.34 155.24 255.93 163.15 255.93H457.06C464.97 255.93 471.38 253.34 471.38 245.43V47.1C471.39 39.19 464.97 32.77 457.06 32.77ZM456.57 226.97C456.57 229.5 454.52 231.56 451.98 231.56H167.28C164.75 231.56 162.69 229.51 162.69 226.97V52.17C162.69 49.64 164.74 47.58 167.28 47.58H451.99C454.52 47.58 456.58 49.63 456.58 52.17V226.97H456.57Z" fill="#505050"/>
<path d="M521.23 257.37H98.9798C96.9498 257.37 95.2998 255.72 95.2998 253.69V248.14C95.2998 246.11 96.9498 244.46 98.9798 244.46H521.23C523.26 244.46 524.91 246.11 524.91 248.14V253.69C524.91 255.72 523.26 257.37 521.23 257.37Z" fill="#C2C2C2"/>
<path d="M279.76 244.47V244.6C279.76 247.96 282.48 250.68 285.84 250.68H332.94C336.3 250.68 339.02 247.96 339.02 244.6V244.47H279.76Z" fill="#939393"/>
<path d="M454.05 193.42C454.87 192.9 455.43 191.98 455.43 190.93C455.43 189.3 454.11 187.98 452.48 187.98C450.85 187.98 449.53 189.3 449.53 190.93C449.53 191.98 450.08 192.89 450.91 193.42H448.95V237.18H456.22V193.42H454.05Z" fill="#5AB0EA"/>
<path d="M577.52 259.78H444.31C439.39 259.78 435.4 255.79 435.4 250.87V186.95C435.4 182.03 439.39 178.04 444.31 178.04H577.52C582.44 178.04 586.43 182.03 586.43 186.95V250.87C586.43 255.79 582.44 259.78 577.52 259.78Z" fill="#D2D2D2"/>
<path d="M586.52 232.22V189.64C586.52 183.61 581.64 178.73 575.61 178.73H528.07L586.52 232.22Z" fill="url(#paint4_linear)"/>
<path d="M427.59 259.22H471.22V177.69H427.93C422.63 177.69 418.33 181.99 418.33 187.29V249.96C418.33 255.07 422.48 259.22 427.59 259.22Z" fill="url(#paint5_linear)"/>
<path d="M529.86 247.65H431.58V259.12H529.86V247.65Z" fill="#939393"/>
<path d="M562.86 252.6H504.95V259.84H562.86V252.6Z" fill="#939393"/>
<path d="M496.06 249.1H476.59V258.29H496.06V249.1Z" fill="#939393"/>
<path d="M510.45 260.03V252.32C510.45 249.25 507.96 246.77 504.9 246.77C501.83 246.77 499.35 249.26 499.35 252.32V260.03H510.45Z" fill="#B2B2B2"/>
<path d="M494.04 250.27V252.28H492.29V250.27H490.37V252.28H488.62V250.27H486.7V252.28H484.95V250.27H483.02V252.28H481.28V250.27H481.27H479.57H479.48V252.28H477.82V250.27H475.9V252.28H474.15V250.27H472.22V252.28H470.47V250.27H468.55V252.28H466.8V250.27H465V254.47H479.48H481.28H495.75V250.27H494.04Z" fill="#B2B2B2"/>
<path d="M473.9 244.62V246.63H472.15V244.62H470.22V246.63H468.47V244.62H466.55V246.63H464.8V244.62H462.87V246.63H461.13V244.62H460.96H459.33H459.25V246.63H457.5V244.62H455.58V246.63H453.83V244.62H451.9V246.63H450.15V244.62H448.23V246.63H446.48V244.62H446.4H444.69H444.68V246.63H442.94V244.62H441.02V246.63H439.27V244.62H437.34V246.63H435.59V244.62H433.67V246.63H431.92V244.62H431.75H431.27V248.81H431.75H444.68H446.4H459.33H460.96H475.61V244.62H473.9Z" fill="#B2B2B2"/>
<path d="M514.02 240.33H494.92V259.93H514.02V240.33Z" fill="#939393"/>
<path d="M485.12 240.33H475.42V259.63H485.12V240.33Z" fill="#939393"/>
<path d="M495.32 225.83V237.63H495.52C495.82 233.23 499.52 229.73 504.02 229.73C508.52 229.73 512.22 233.23 512.52 237.63H512.92V225.83H495.32Z" fill="#B2B2B2"/>
<path d="M510.32 237.73V239.73H508.52V237.73H506.62V239.73H504.82V237.73H502.92V239.73H501.12V237.73H499.22V239.73H497.42V237.73H495.62V241.93H512.02V237.73H510.32Z" fill="#B2B2B2"/>
<path d="M497.42 195.43H481.12L482.72 198.33L495.82 198.23L497.42 195.43Z" fill="#939393"/>
<path d="M495.72 191.23V193.23H494.02V191.23H492.02V193.23H490.32V191.23H488.42V193.23H486.62V191.23H484.72V193.23H482.92V191.23H481.12V195.43H497.42V191.23H495.72Z" fill="#B2B2B2"/>
<path d="M551.35 222.33H535.05L536.65 225.23L549.75 225.13L551.35 222.33Z" fill="#939393"/>
<path d="M549.65 218.13V220.13H547.85V218.13H545.95V220.13H544.15V218.13H542.25V220.13H540.55V218.13H538.55V220.13H536.85V218.13H535.05V222.33H551.35V218.13H549.65Z" fill="#B2B2B2"/>
<path d="M562.23 208.13V202.83L571.99 200.33L562.23 197.93V197.13H561.18V208.63L558.16 224.13H555.72V260.13H567.93V224.13H565.37L562.23 208.13Z" fill="#939393"/>
<path d="M563.25 227.93H560.95V234.93H563.25V227.93Z" fill="#B2B2B2"/>
<path d="M563.25 239.33H560.95V246.33H563.25V239.33Z" fill="#B2B2B2"/>
<path d="M529.72 247.93H431.42V259.43H529.72V247.93Z" fill="#939393"/>
<path d="M562.72 252.93H504.82V260.13H562.72V252.93Z" fill="#939393"/>
<path d="M549.75 261.93L536.65 261.83V225.13H549.75V261.93Z" fill="#B2B2B2"/>
<path d="M545.45 241.33V231.43C545.45 230.23 544.55 229.33 543.35 229.33C542.15 229.33 541.25 230.23 541.25 231.43V241.33H545.45Z" fill="#939393"/>
<path d="M496.02 249.43H476.52V258.63H496.02V249.43Z" fill="#939393"/>
<path d="M510.32 260.33V252.63C510.32 249.53 507.82 247.03 504.72 247.03C501.62 247.03 499.12 249.53 499.12 252.63V260.33H510.32Z" fill="#B2B2B2"/>
<path d="M479.02 226.73H476.72C475.92 223.63 473.12 221.43 469.82 221.33V210.23H468.62V221.43C465.62 221.83 463.22 223.93 462.42 226.83H460.22V232.43H462.42V260.03L476.72 259.73V232.43H479.02V226.73Z" fill="#939393"/>
<path d="M473.22 232.13H471.42V236.73H473.22V232.13Z" fill="#B2B2B2"/>
<path d="M468.22 237.93H466.42V242.53H468.22V237.93Z" fill="#B2B2B2"/>
<path d="M495.82 198.23H482.72V254.73H495.82V198.23Z" fill="#B2B2B2"/>
<path d="M491.42 213.73V203.83C491.42 202.63 490.52 201.73 489.32 201.73C488.12 201.73 487.22 202.63 487.22 203.83V213.73H491.42Z" fill="#939393"/>
<path d="M493.92 250.63V252.63H492.22V250.63H490.22V252.63H488.52V250.63H486.62V252.63H484.82V250.63H482.92V252.63H481.12V250.63H479.42H479.32V252.63H477.72V250.63H475.82V252.63H474.02V250.63H472.12V252.63H470.32V250.63H468.42V252.63H466.72V250.63H464.92V254.73H479.32H481.12H495.62V250.63H493.92Z" fill="#B2B2B2"/>
<path d="M564.02 249.03H562.32V251.03H560.62V249.03H560.52H558.82V251.03H557.02V249.03H555.12V251.03H553.42V249.03H551.42V251.03H549.72V249.03H547.82V251.03H546.02V249.03H545.92H544.22V251.03H542.42V249.03H540.52V251.03H538.72V249.03H536.82V251.03H535.12V249.03H533.12V251.03H531.42V249.03H529.62V253.13H564.02V249.03Z" fill="#B2B2B2"/>
<path d="M473.82 244.93V246.93H472.02V244.93H470.12V246.93H468.32V244.93H466.42V246.93H464.72V244.93H462.72V246.93H461.02V244.93H460.82H459.22H459.12V246.93H457.42V244.93H455.42V246.93H453.72V244.93H451.82V246.93H450.02V244.93H448.12V246.93H446.32V244.93H444.62H444.52V246.93H442.82V244.93H440.92V246.93H439.12V244.93H437.22V246.93H435.52V244.93H433.52V246.93H431.82V244.93H431.62H431.12V249.13H431.62H444.52H446.32H459.22H460.82H475.52V244.93H473.82Z" fill="#B2B2B2"/>
<path d="M440.62 222.63V235.83L447.22 242.33L448.22 222.63H440.62Z" fill="#B2B2B2"/>
<path d="M448.32 221.33H439.12V223.23H448.32V221.33Z" fill="#939393"/>
<path d="M461.82 213.93H445.62L447.22 216.83H460.32L461.82 213.93Z" fill="#939393"/>
<path d="M460.12 209.73V211.73H458.42V209.73H456.52V211.73H454.72V209.73H452.82V211.73H451.02V209.73H449.12V211.73H447.42V209.73H445.62V213.93H461.82V209.73H460.12Z" fill="#B2B2B2"/>
<path d="M460.22 216.83H447.12V247.73H460.22V216.83Z" fill="#B2B2B2"/>
<path d="M456.02 232.93V223.03C456.02 221.83 455.12 220.93 453.92 220.93C452.72 220.93 451.82 221.83 451.82 223.03V232.93H456.02Z" fill="#939393"/>
<path d="M454.02 195.83H453.32V210.83H454.02V195.83Z" fill="#B2B2B2"/>
<path d="M461.82 200.23L463.92 196.83H454.06V195.72H453.31V211.3H454.06V203.73H463.92L461.82 200.23Z" fill="#B2B2B2"/>
<path d="M586.77 244.2H567.67V259.34H578.98C583.28 259.34 586.77 255.85 586.77 251.55V244.2Z" fill="#939393"/>
<path d="M567.86 229.83V241.63H568.06C568.36 237.23 572.06 233.73 576.56 233.73C581.06 233.73 584.76 237.23 585.06 241.63H585.46V229.83H567.86Z" fill="#B2B2B2"/>
<path d="M582.86 241.6V243.6H581.02V241.6H579.08V243.6H577.24V241.6H575.3V243.6H573.46V241.6H571.52V243.6H569.68V241.6H567.84V245.8H584.57V241.6H582.86Z" fill="#B2B2B2"/>
<path d="M581.32 259.59V256.5C581.32 253.4 578.82 250.9 575.72 250.9C572.62 250.9 570.12 253.4 570.12 256.5V259.59H581.32Z" fill="#B2B2B2"/>
<path d="M437.72 224.76H435.22C434.02 221.56 431.12 218.06 427.02 217.96V207.51C427.02 207.1 426.68 206.76 426.27 206.76C425.86 206.76 425.52 207.1 425.52 207.51V217.96C421.82 218.46 418.42 221.16 417.52 224.76H414.82V231.76H417.62V249.44C417.62 254.75 421.92 259.05 427.23 259.05H435.32V231.76H437.72V224.76Z" fill="#939393"/>
<path d="M424.821 244.26H422.521V250.06H424.821V244.26Z" fill="#B2B2B2"/>
<path d="M431.021 235.76H428.721V241.56H431.021V235.76Z" fill="#B2B2B2"/>
<path d="M435.301 231.76H417.601V233.96H435.301V231.76Z" fill="#B2B2B2"/>
<path d="M577.45 175.01H427.03C420.11 175.01 414.5 180.62 414.5 187.54V250.5C414.5 257.42 420.11 263.03 427.03 263.03H577.45C584.37 263.03 589.98 257.42 589.98 250.5V187.54C589.97 180.62 584.36 175.01 577.45 175.01ZM584.51 250.01C584.51 254.32 581.02 257.81 576.71 257.81H427.74C423.43 257.81 419.94 254.32 419.94 250.01V188.02C419.94 183.71 423.43 180.22 427.74 180.22H576.71C581.02 180.22 584.51 183.71 584.51 188.02V250.01Z" fill="#444444"/>
<path d="M584.75 197.86H583.6C580.82 197.86 578.56 200.12 578.56 202.9V235.7C578.56 238.48 580.82 240.74 583.6 240.74H584.75V197.86Z" fill="#444444"/>
<path d="M582.34 230.02C583.102 230.02 583.72 229.402 583.72 228.64C583.72 227.878 583.102 227.26 582.34 227.26C581.578 227.26 580.96 227.878 580.96 228.64C580.96 229.402 581.578 230.02 582.34 230.02Z" fill="#737373"/>
<path d="M581.17 214.82V223.55C581.17 224.12 581.63 224.58 582.2 224.58C582.77 224.58 583.23 224.12 583.23 223.55V214.82C583.23 214.25 582.77 213.79 582.2 213.79C581.63 213.79 581.17 214.25 581.17 214.82Z" fill="#737373"/>
<path d="M168.59 194.26V175.79C168.59 173.61 166.83 171.85 164.65 171.85C162.47 171.85 160.71 173.61 160.71 175.79V194.26H168.59Z" fill="#389FE5"/>
<path d="M183.4 78.68H52.4805V255.23H183.4V78.68Z" fill="#FFD35C"/>
<path opacity="0.3" d="M178.51 146.11V79.96H106.23L178.51 146.11Z" fill="white"/>
<path d="M184.04 72.94H148.75V253.66H184.04V72.94Z" fill="#FEBC53"/>
<path d="M148.75 119.32L182.48 150.19V75.21H148.75V119.32Z" fill="#FEC758"/>
<path d="M170.55 176.07V199.01L158.99 210.38L157.24 177.12L170.55 176.07Z" fill="#ED8422"/>
<path d="M116.48 177.77V191.86H116.71C117.1 186.55 121.51 182.36 126.92 182.36C132.33 182.36 136.75 186.55 137.13 191.86H137.66V177.77H116.48Z" fill="#FDA84C"/>
<path d="M157.243 177.124L173.173 177.124L173.173 173.794L157.243 173.794L157.243 177.124Z" fill="#FDA84C"/>
<path d="M103.39 149.9H75.0596L77.8396 154.97L100.64 154.94L103.39 149.9Z" fill="#ED8422"/>
<path d="M100.41 142.6V146.1H97.3696V142.6H94.0196V146.1H90.9696V142.6H87.6196V146.1H84.5796V142.6H81.2296V146.1H78.1796V142.6H75.0596V149.9H103.39V142.6H100.41Z" fill="#FDA84C"/>
<path d="M115.09 125.19V116.08L127.78 112.21C128.36 112.03 128.34 111.21 127.76 111.06L115.09 107.58V106.11H113.51V126.2L108.93 153.18H106.81C105.99 153.18 105.32 153.85 105.32 154.67V233.06H123.7V154.06C123.7 153.57 123.3 153.18 122.82 153.18H119.84L115.09 125.19Z" fill="#ED8422"/>
<path d="M116.58 159.81H112.62V171.99H116.58V159.81Z" fill="#FDA84C"/>
<path d="M116.58 179.13H112.62V191.31H116.58V179.13Z" fill="#FDA84C"/>
<path d="M141.27 203.21H52.3301V250.64H141.27V203.21Z" fill="#ED8422"/>
<path d="M149.95 250.634H184.14V218.354H149.95V250.634Z" fill="#ED8422"/>
<path d="M136.296 250.601L159.136 250.601L159.136 165.901L136.296 165.901L136.296 250.601Z" fill="#FDA84C"/>
<path d="M133.55 160.86H161.88L159.1 165.94L136.3 165.9L133.55 160.86Z" fill="#ED8422"/>
<path d="M136.53 153.57V157.07H139.57V153.57H142.92V157.07H145.97V153.57H149.32V157.07H152.36V153.57H155.71V157.07H158.76V153.57H161.88V160.86H133.55V153.57H136.53Z" fill="#FDA84C"/>
<path d="M143.8 194.08V176.81C143.8 174.78 145.45 173.13 147.48 173.13C149.51 173.13 151.16 174.78 151.16 176.81V194.08H143.8Z" fill="#ED8422"/>
<path d="M141.7 196.37V199.87H138.65V196.37H135.3V199.87H132.26V196.37H128.91V199.87H125.86V196.37H122.51V199.87H119.47V196.37H119.17H116.34H116.2V199.87H113.16V196.37H109.81V199.87H106.76V196.37H103.41V199.87H100.37V196.37H97.0197V199.87H93.9697V196.37H93.8297H90.8597H90.8397V199.87H87.8097V196.37H84.4597V199.87H81.4197V196.37H78.0697V199.87H75.0197V196.37H71.6697V199.87H68.6197V196.37H68.3297H65.4997H65.3597V199.87H62.3097V196.37H58.9697V199.87H55.9197V196.37H53.6797V203.67H144.67V196.37H141.7Z" fill="#FDA84C"/>
<path d="M108.33 209.72C109.1 209.23 109.62 208.38 109.62 207.4C109.62 205.88 108.39 204.64 106.86 204.64C105.34 204.64 104.1 205.87 104.1 207.4C104.1 208.38 104.62 209.24 105.39 209.72H103.56V250.63H110.36V209.72H108.33Z" fill="#FDA84C"/>
<path d="M158.78 213.81V217.31H161.82V213.81H165.17V217.31H168.22V213.81H171.57V217.31H174.61V213.81H177.96V217.31H181.01V213.81H184.14V221.11H155.8V213.81H158.78Z" fill="#FDA84C"/>
<path d="M130.14 241.75V217.46C130.14 213.25 126.72 209.83 122.51 209.83C118.3 209.83 114.88 213.25 114.88 217.46V241.75H130.14Z" fill="#FDA84C"/>
<path d="M89.48 212.77H77.67H77.49H71.92H71.74H59.92H51.25V238.48C55.81 231.05 63.9 226.09 73.28 225.44C73.49 225.43 73.7 225.42 73.91 225.41C74.17 225.4 74.43 225.38 74.7 225.38C74.96 225.39 75.23 225.4 75.49 225.41C75.7 225.42 75.91 225.43 76.12 225.44C89.98 226.4 101.03 236.75 102.03 250.62H103.48V212.76H89.48V212.77Z" fill="#FDA84C"/>
<path d="M100.55 238.66V242.16H97.5099V238.66H97.2199H94.3799H94.2399V242.16H91.1999V238.66H87.8499V242.16H84.7999V238.66H81.4499V242.16H78.4099V238.66H75.0599V242.16H72.0099V238.66H71.8699H70.9999H69.2999H69.1399V242.16H66.2599V238.66H65.9699H65.2499H63.1299H63.0599H62.9899V242.16H61.1699H60.0099V238.66H59.8699H58.9999H57.2999H57.1399V242.16H54.2599V238.66H53.9699H51.1299H50.9899V242.16H49.1699V250.62H57.1399H58.9999H61.1699H65.2499H69.1399H70.9999H102.25V238.66H100.55Z" fill="#FDA84C"/>
<path d="M179.9 67.73H56.32C51.59 67.73 47.75 71.57 47.75 76.3V254.6C47.75 259.33 51.59 263.17 56.32 263.17H179.9C184.63 263.17 188.47 259.33 188.47 254.6V76.3C188.47 71.57 184.63 67.73 179.9 67.73ZM181.5 248.5C181.5 249.34 180.82 250.01 179.99 250.01H56.47C55.64 250.01 54.96 249.33 54.96 248.5V82.04C54.96 81.21 55.64 80.53 56.47 80.53H179.99C180.83 80.53 181.5 81.21 181.5 82.04V248.5Z" fill="#505050"/>
<path d="M118.25 259.53C120.029 259.53 121.47 258.088 121.47 256.31C121.47 254.532 120.029 253.09 118.25 253.09C116.472 253.09 115.03 254.532 115.03 256.31C115.03 258.088 116.472 259.53 118.25 259.53Z" fill="#737373"/>
<path d="M55.3291 188.94H122.749C128.129 188.94 132.499 184.57 132.499 179.19C132.499 173.81 136.869 169.44 142.249 169.44H201.249C206.629 169.44 210.999 165.07 210.999 159.69V157.69C210.999 152.31 215.369 147.94 220.749 147.94H254.249C259.629 147.94 263.999 152.31 263.999 157.69V177.19C263.999 182.57 268.369 186.94 273.749 186.94H291.749C297.129 186.94 301.499 182.57 301.499 177.19V159.19C301.499 153.81 305.869 149.44 311.249 149.44H383.249C388.629 149.44 392.999 153.81 392.999 159.19V194.69C392.999 200.07 397.369 204.44 402.749 204.44H471.249C476.629 204.44 480.999 208.81 480.999 214.19V218.19C480.999 223.57 485.369 227.94 490.749 227.94H578.459" stroke="white" stroke-width="7" stroke-miterlimit="10"/>
<path d="M55.3291 188.94H122.749C128.129 188.94 132.499 184.57 132.499 179.19C132.499 173.81 136.869 169.44 142.249 169.44H201.249C206.629 169.44 210.999 165.07 210.999 159.69V157.69C210.999 152.31 215.369 147.94 220.749 147.94H254.249C259.629 147.94 263.999 152.31 263.999 157.69V177.19C263.999 182.57 268.369 186.94 273.749 186.94H291.749C297.129 186.94 301.499 182.57 301.499 177.19V159.19C301.499 153.81 305.869 149.44 311.249 149.44H383.249C388.629 149.44 392.999 153.81 392.999 159.19V194.69C392.999 200.07 397.369 204.44 402.749 204.44H471.249C476.629 204.44 480.999 208.81 480.999 214.19V218.19C480.999 223.57 485.369 227.94 490.749 227.94H578.459" stroke="#E6E6E6" stroke-width="7" stroke-miterlimit="10" stroke-dasharray="10 10"/>
<path d="M230.901 176.957L255.331 176.957L255.331 119.397L230.901 119.397L230.901 176.957Z" fill="#5AB0EA"/>
<path d="M238.92 149.55V131.08C238.92 128.9 240.68 127.14 242.86 127.14C245.04 127.14 246.8 128.9 246.8 131.08V149.55H238.92Z" fill="#389FE5"/>
<path d="M255.32 175.56V171.82H251.74V175.56H248.48V171.82H248.33H245.15H245.13V175.56H241.89V171.82H238.31V175.56H235.05V171.82H231.46V175.56H229.17V179.63H245.13H248.33H256.17V175.56H255.32Z" fill="#7BC0EF"/>
<path d="M532.219 213.43H529.719C528.519 210.23 525.619 206.73 521.519 206.63V196.18C521.519 195.77 521.179 195.43 520.769 195.43C520.359 195.43 520.019 195.77 520.019 196.18V206.63C516.319 207.13 512.919 209.83 512.019 213.43H509.319V220.43H512.119V257.53H529.819V220.43H532.219V213.43Z" fill="#939393"/>
<path d="M519.32 232.93H517.02V238.73H519.32V232.93Z" fill="#B2B2B2"/>
<path d="M525.52 224.43H523.22V230.23H525.52V224.43Z" fill="#B2B2B2"/>
<path d="M529.8 220.43H512.1V222.63H529.8V220.43Z" fill="#B2B2B2"/>
<path d="M100.64 218.97L77.7998 218.77V154.94H100.64V218.97Z" fill="#FDA84C"/>
<path d="M93.1403 182.98V166.07C93.1403 164.25 91.9103 162.55 90.1203 162.24C87.8003 161.84 85.7803 163.62 85.7803 165.87V182.99C85.7703 183.05 93.1403 183.05 93.1403 182.98Z" fill="#ED8422"/>
<defs>
<linearGradient id="paint0_linear" x1="400.9" y1="153.439" x2="400.9" y2="44.452" gradientUnits="userSpaceOnUse">
<stop offset="0.2142" stop-color="#AFD7F1"/>
<stop offset="0.7523" stop-color="#CDE9F9"/>
</linearGradient>
<linearGradient id="paint1_linear" x1="319.703" y1="117.964" x2="327.317" y2="117.964" gradientUnits="userSpaceOnUse">
<stop offset="0.3381" stop-color="#737373"/>
<stop offset="0.6659" stop-color="#7F7F7F"/>
</linearGradient>
<linearGradient id="paint2_linear" x1="315.543" y1="133.137" x2="322.118" y2="136.169" gradientUnits="userSpaceOnUse">
<stop offset="0.3381" stop-color="#737373"/>
<stop offset="0.6659" stop-color="#7F7F7F"/>
</linearGradient>
<linearGradient id="paint3_linear" x1="313.209" y1="119.267" x2="322.519" y2="119.267" gradientUnits="userSpaceOnUse">
<stop offset="0.3381" stop-color="#737373"/>
<stop offset="0.6659" stop-color="#7F7F7F"/>
</linearGradient>
<linearGradient id="paint4_linear" x1="557.3" y1="232.216" x2="557.3" y2="178.727" gradientUnits="userSpaceOnUse">
<stop offset="0.197" stop-color="#D2D4D5"/>
<stop offset="0.7855" stop-color="#E2E2E2"/>
</linearGradient>
<linearGradient id="paint5_linear" x1="444.777" y1="259.216" x2="444.777" y2="177.682" gradientUnits="userSpaceOnUse">
<stop offset="0.4382" stop-color="#C7C7C7"/>
<stop offset="1" stop-color="#B2B2B2"/>
</linearGradient>
</defs>
</svg>
