<svg width="636" height="300" viewBox="0 0 636 300" fill="none" xmlns="http://www.w3.org/2000/svg">
<path d="M147.615 142.57V141.217C147.785 141.363 147.972 141.487 148.173 141.586C148.393 141.697 148.621 141.789 148.856 141.863C149.092 141.937 149.333 141.995 149.577 142.037C149.798 142.076 150.023 142.097 150.247 142.099C150.803 142.14 151.357 142.002 151.829 141.705C152.087 141.488 152.263 141.188 152.327 140.856C152.39 140.525 152.338 140.182 152.179 139.884C152.053 139.677 151.889 139.495 151.696 139.348C151.469 139.171 151.225 139.015 150.968 138.883C150.688 138.734 150.386 138.577 150.062 138.414C149.721 138.241 149.401 138.065 149.105 137.888C148.826 137.722 148.567 137.525 148.333 137.3C148.118 137.091 147.943 136.844 147.817 136.572C147.677 136.233 147.614 135.867 147.632 135.501C147.651 135.134 147.75 134.776 147.923 134.453C148.116 134.126 148.38 133.847 148.695 133.636C149.029 133.416 149.398 133.254 149.786 133.157C150.194 133.053 150.613 133 151.033 133C151.755 132.955 152.477 133.074 153.146 133.349V134.641C152.483 134.216 151.704 134.007 150.917 134.041C150.665 134.041 150.413 134.067 150.165 134.119C149.929 134.167 149.703 134.253 149.495 134.376C149.303 134.491 149.14 134.647 149.017 134.834C148.889 135.039 148.825 135.277 148.832 135.518C148.827 135.742 148.875 135.965 148.972 136.167C149.074 136.361 149.215 136.531 149.386 136.667C149.594 136.834 149.817 136.981 150.052 137.105C150.314 137.246 150.616 137.4 150.958 137.569C151.3 137.738 151.634 137.92 151.958 138.116C152.257 138.296 152.535 138.509 152.785 138.752C153.016 138.975 153.207 139.236 153.349 139.524C153.493 139.827 153.564 140.16 153.558 140.495C153.572 140.922 153.474 141.345 153.274 141.722C153.089 142.052 152.827 142.333 152.509 142.539C152.169 142.756 151.793 142.91 151.398 142.993C150.962 143.089 150.517 143.136 150.071 143.134C149.879 143.131 149.688 143.119 149.497 143.097C149.27 143.071 149.037 143.034 148.797 142.987C148.569 142.941 148.344 142.882 148.123 142.81C147.944 142.753 147.773 142.672 147.615 142.57Z" fill="black"/>
<path d="M156.509 141.955H156.481V146.187H155.36V135.967H156.481V137.197H156.509C156.743 136.762 157.093 136.402 157.521 136.156C157.948 135.909 158.436 135.787 158.929 135.803C159.33 135.783 159.73 135.858 160.097 136.021C160.464 136.184 160.787 136.431 161.041 136.742C161.579 137.469 161.847 138.359 161.8 139.262C161.852 140.27 161.549 141.265 160.945 142.074C160.666 142.421 160.309 142.698 159.902 142.881C159.496 143.065 159.053 143.15 158.607 143.131C158.184 143.143 157.765 143.04 157.396 142.833C157.026 142.626 156.72 142.322 156.509 141.955ZM156.481 139.132V140.109C156.468 140.655 156.671 141.184 157.046 141.582C157.247 141.788 157.49 141.948 157.758 142.052C158.025 142.156 158.313 142.201 158.599 142.184C158.886 142.168 159.166 142.09 159.421 141.956C159.675 141.822 159.898 141.635 160.073 141.408C160.494 140.766 160.697 140.007 160.651 139.241C160.69 138.586 160.499 137.938 160.111 137.409C159.936 137.192 159.713 137.019 159.459 136.904C159.205 136.789 158.927 136.734 158.648 136.746C158.352 136.735 158.057 136.79 157.785 136.908C157.513 137.026 157.271 137.203 157.076 137.426C156.672 137.9 156.46 138.509 156.481 139.132Z" fill="black"/>
<path d="M168.6 142.967H167.48V141.873H167.453C167.249 142.264 166.938 142.589 166.558 142.812C166.177 143.035 165.741 143.145 165.3 143.131C164.703 143.166 164.116 142.968 163.663 142.577C163.465 142.388 163.31 142.16 163.208 141.906C163.106 141.653 163.059 141.38 163.071 141.107C163.071 139.8 163.841 139.039 165.382 138.824L167.482 138.53C167.482 137.341 167.001 136.747 166.04 136.746C165.2 136.745 164.388 137.051 163.757 137.607V136.459C164.47 136.014 165.296 135.787 166.136 135.803C167.781 135.803 168.604 136.673 168.604 138.414L168.6 142.967ZM167.478 139.426L165.79 139.658C165.374 139.695 164.971 139.828 164.614 140.045C164.471 140.162 164.36 140.313 164.29 140.484C164.22 140.656 164.194 140.841 164.214 141.025C164.209 141.183 164.24 141.34 164.303 141.485C164.366 141.63 164.46 141.759 164.579 141.863C164.852 142.09 165.2 142.205 165.554 142.188C165.812 142.195 166.069 142.147 166.306 142.046C166.544 141.945 166.757 141.794 166.931 141.604C167.299 141.2 167.493 140.669 167.474 140.123L167.478 139.426Z" fill="black"/>
<path d="M174.364 137.1C174.114 136.934 173.816 136.854 173.517 136.874C173.276 136.877 173.04 136.94 172.83 137.059C172.62 137.177 172.444 137.346 172.317 137.551C171.968 138.101 171.799 138.746 171.835 139.396V142.965H170.714V135.965H171.835V137.407H171.862C171.991 136.962 172.245 136.562 172.594 136.256C172.898 135.989 173.289 135.841 173.694 135.842C173.921 135.832 174.148 135.864 174.364 135.937V137.1Z" fill="black"/>
<path d="M181.392 142.967H179.819L176.729 139.604H176.7V142.967H175.579V132.6H176.7V139.169H176.727L179.667 135.963H181.137L177.89 139.34L181.392 142.967Z" fill="black"/>
<path d="M189.718 142.967H188.351L186.71 140.219C186.579 139.992 186.433 139.773 186.272 139.566C186.147 139.402 186.001 139.254 185.839 139.125C185.696 139.014 185.534 138.929 185.36 138.875C185.173 138.821 184.978 138.794 184.782 138.797H183.839V142.967H182.69V133.167H185.616C186.017 133.163 186.417 133.217 186.802 133.327C187.146 133.425 187.467 133.591 187.745 133.816C188.014 134.037 188.229 134.317 188.371 134.634C188.646 135.297 188.671 136.037 188.442 136.718C188.344 136.997 188.196 137.255 188.005 137.481C187.811 137.708 187.58 137.902 187.321 138.052C187.04 138.215 186.737 138.338 186.421 138.417V138.444C186.573 138.511 186.717 138.595 186.849 138.694C186.975 138.792 187.09 138.903 187.193 139.025C187.311 139.163 187.42 139.308 187.519 139.46C187.625 139.621 187.745 139.81 187.877 140.024L189.718 142.967ZM183.839 134.203V137.758H185.4C185.673 137.761 185.943 137.717 186.2 137.628C186.434 137.547 186.649 137.421 186.832 137.256C187.014 137.089 187.156 136.884 187.249 136.656C187.353 136.406 187.405 136.137 187.4 135.867C187.413 135.637 187.373 135.408 187.285 135.196C187.197 134.984 187.062 134.794 186.89 134.641C186.469 134.32 185.946 134.162 185.417 134.199L183.839 134.203Z" fill="black"/>
<path d="M286.811 48.7831V52.4831H285.663V42.6831H288.356C289.235 42.6277 290.103 42.9002 290.793 43.4481C291.087 43.7224 291.317 44.0582 291.467 44.4315C291.616 44.8049 291.682 45.2066 291.658 45.6081C291.672 46.0354 291.593 46.4606 291.427 46.8547C291.261 47.2489 291.013 47.6027 290.698 47.8921C289.98 48.5123 289.05 48.8306 288.103 48.7801L286.811 48.7831ZM286.811 43.7251V47.7441H288.011C288.662 47.7882 289.307 47.5954 289.826 47.2011C290.038 47.0082 290.205 46.7702 290.313 46.5046C290.422 46.239 290.469 45.9524 290.452 45.6661C290.452 44.3734 289.685 43.7264 288.152 43.7251H286.811Z" fill="black"/>
<path d="M298.924 45.488L295.705 53.609C295.13 55.059 294.323 55.7837 293.285 55.783C293.039 55.7888 292.792 55.7592 292.553 55.695V54.689C292.766 54.7659 292.99 54.8074 293.216 54.812C293.509 54.8011 293.79 54.6972 294.018 54.5153C294.247 54.3334 294.412 54.0831 294.488 53.801L295.048 52.475L292.314 45.488H293.558L295.452 50.875C295.474 50.9417 295.522 51.1194 295.595 51.408H295.636C295.659 51.299 295.705 51.127 295.773 50.889L297.762 45.489L298.924 45.488Z" fill="black"/>
<path d="M299.82 52.092V50.738C299.989 50.8843 300.177 51.0083 300.377 51.107C300.597 51.2183 300.826 51.3113 301.061 51.385C301.298 51.4589 301.538 51.517 301.782 51.559C302.004 51.5983 302.228 51.6191 302.452 51.621C303.008 51.6616 303.562 51.5236 304.034 51.227C304.292 51.0093 304.467 50.7097 304.531 50.3783C304.594 50.0468 304.542 49.7036 304.383 49.406C304.257 49.1988 304.094 49.0168 303.901 48.869C303.673 48.6922 303.429 48.5366 303.172 48.404C302.893 48.256 302.59 48.104 302.267 47.936C301.925 47.764 301.606 47.5887 301.31 47.41C301.031 47.2446 300.772 47.0472 300.538 46.822C300.323 46.6129 300.148 46.3662 300.022 46.094C299.882 45.7551 299.818 45.3892 299.836 45.0227C299.854 44.6562 299.954 44.2984 300.127 43.975C300.32 43.648 300.585 43.3688 300.9 43.158C301.233 42.9365 301.603 42.7748 301.991 42.68C302.398 42.574 302.818 42.5206 303.238 42.521C303.96 42.4766 304.682 42.5962 305.35 42.871V44.162C304.687 43.738 303.909 43.5286 303.122 43.562C302.87 43.5627 302.618 43.5888 302.37 43.64C302.134 43.6866 301.907 43.7735 301.7 43.897C301.508 44.0115 301.344 44.1681 301.221 44.355C301.094 44.5595 301.03 44.7972 301.037 45.038C301.031 45.263 301.079 45.4861 301.176 45.689C301.279 45.8818 301.42 46.0519 301.59 46.189C301.798 46.3554 302.021 46.5018 302.256 46.626C302.519 46.769 302.821 46.926 303.163 47.091C303.505 47.256 303.846 47.446 304.163 47.638C304.462 47.8181 304.74 48.0314 304.99 48.274C305.22 48.4976 305.411 48.7586 305.553 49.046C305.697 49.3491 305.769 49.6815 305.762 50.017C305.776 50.4433 305.679 50.8659 305.479 51.243C305.294 51.5741 305.031 51.8551 304.713 52.062C304.373 52.2789 303.997 52.4324 303.602 52.515C303.167 52.61 302.722 52.6569 302.276 52.655C302.084 52.6534 301.893 52.6411 301.702 52.618C301.474 52.593 301.242 52.556 301.002 52.509C300.775 52.4625 300.55 52.4031 300.329 52.331C300.149 52.2752 299.978 52.1948 299.82 52.092Z" fill="black"/>
<path d="M308.713 51.4769H308.686V55.7089H307.565V45.4879H308.686V46.7189H308.713C308.946 46.2833 309.296 45.9215 309.724 45.6741C310.152 45.4268 310.64 45.3037 311.133 45.3189C311.535 45.2995 311.935 45.3745 312.302 45.5377C312.669 45.701 312.992 45.948 313.246 46.2589C313.783 46.9873 314.049 47.8796 314 48.7829C314.052 49.7914 313.75 50.7862 313.146 51.5959C312.867 51.9429 312.51 52.2193 312.103 52.4027C311.697 52.5862 311.254 52.6715 310.808 52.6519C310.386 52.6637 309.968 52.5606 309.599 52.3537C309.23 52.1468 308.924 51.8438 308.713 51.4769ZM308.686 48.6539V49.6309C308.674 50.177 308.876 50.7061 309.25 51.1039C309.451 51.3093 309.694 51.4693 309.962 51.5731C310.23 51.6768 310.517 51.722 310.804 51.7055C311.091 51.689 311.371 51.6113 311.625 51.4775C311.88 51.3437 312.102 51.157 312.278 50.9299C312.699 50.2887 312.901 49.5293 312.856 48.7639C312.895 48.109 312.704 47.4611 312.316 46.9319C312.142 46.7145 311.918 46.5411 311.664 46.4258C311.41 46.3105 311.132 46.2564 310.853 46.2679C310.557 46.2567 310.263 46.3119 309.991 46.4294C309.719 46.5469 309.476 46.7237 309.281 46.9469C308.877 47.4218 308.665 48.0306 308.686 48.6539Z" fill="black"/>
<path d="M320.807 52.488H319.686V51.4H319.658C319.454 51.7909 319.143 52.1161 318.762 52.3384C318.381 52.5608 317.945 52.6712 317.504 52.657C316.908 52.6925 316.321 52.4945 315.868 52.105C315.67 51.9161 315.515 51.6872 315.413 51.4335C315.311 51.1798 315.264 50.9072 315.276 50.634C315.276 49.3273 316.046 48.5663 317.586 48.351L319.686 48.058C319.686 46.868 319.205 46.273 318.243 46.273C317.402 46.272 316.59 46.5782 315.959 47.134V45.98C316.672 45.5361 317.498 45.3082 318.338 45.324C319.984 45.324 320.807 46.1947 320.807 47.936V52.488ZM319.686 48.947L318 49.18C317.584 49.2176 317.182 49.3496 316.824 49.566C316.681 49.6834 316.57 49.8345 316.5 50.0058C316.43 50.1771 316.404 50.3631 316.424 50.547C316.42 50.7051 316.45 50.8622 316.513 51.0071C316.576 51.152 316.671 51.281 316.79 51.385C317.063 51.6115 317.41 51.7271 317.764 51.709C318.022 51.7161 318.279 51.6676 318.516 51.5668C318.754 51.466 318.967 51.3154 319.141 51.125C319.509 50.7218 319.705 50.1906 319.686 49.645V48.947Z" fill="black"/>
<path d="M326.568 46.623C326.318 46.4573 326.02 46.3783 325.721 46.398C325.48 46.4006 325.244 46.4639 325.034 46.582C324.824 46.7002 324.648 46.8694 324.521 47.074C324.172 47.6241 324.003 48.2695 324.039 48.92V52.488H322.918V45.488H324.039V46.932H324.066C324.197 46.4862 324.451 46.0864 324.799 45.779C325.103 45.5124 325.494 45.3653 325.899 45.365C326.127 45.3566 326.354 45.3905 326.569 45.465L326.568 46.623Z" fill="black"/>
<path d="M333.6 52.488H332.027L328.938 49.125H328.91V52.488H327.789V42.125H328.91V48.7H328.938L331.877 45.493H333.348L330.1 48.865L333.6 52.488Z" fill="black"/>
<path d="M487.721 53.8059C487.621 53.8073 487.522 53.788 487.43 53.7491C487.338 53.7102 487.255 53.6526 487.186 53.5799C487.114 53.5098 487.057 53.4258 487.019 53.3329C486.98 53.2401 486.961 53.1404 486.963 53.0399C486.962 52.9391 486.981 52.839 487.019 52.7456C487.057 52.6523 487.114 52.5677 487.186 52.4969C487.254 52.4233 487.337 52.3648 487.429 52.3254C487.521 52.2859 487.621 52.2663 487.721 52.2679C487.823 52.2662 487.924 52.2857 488.018 52.3251C488.113 52.3645 488.198 52.423 488.268 52.4969C488.34 52.5674 488.398 52.6519 488.437 52.7453C488.475 52.8386 488.495 52.9388 488.494 53.0399C488.495 53.1406 488.476 53.2405 488.437 53.3333C488.398 53.4262 488.341 53.5101 488.268 53.5799C488.197 53.6529 488.112 53.7105 488.018 53.7494C487.924 53.7883 487.823 53.8075 487.721 53.8059Z" fill="black"/>
<path d="M498.42 53.655H497.012L491.967 45.842C491.84 45.6489 491.734 45.4427 491.652 45.227H491.611C491.658 45.674 491.677 46.1236 491.666 46.573V53.655H490.518V43.855H492.008L496.916 51.545C497.116 51.864 497.252 52.083 497.316 52.201H497.344C497.286 51.7226 497.263 51.2407 497.275 50.759V43.859H498.424L498.42 53.655Z" fill="black"/>
<path d="M506.186 53.655H500.986V43.855H505.963V44.894H502.135V48.154H505.676V49.187H502.135V52.618H506.182L506.186 53.655Z" fill="black"/>
<path d="M513.869 44.892H511.039V53.655H509.891V44.892H507.066V43.853H513.866L513.869 44.892Z" fill="black"/>
<path d="M522.551 44.276C522.323 44.1509 522.066 44.0875 521.805 44.092C521.021 44.092 520.629 44.5863 520.629 45.575V46.655H522.27V47.612H520.629V53.655H519.516V47.612H518.316V46.655H519.516V45.521C519.499 45.203 519.547 44.8849 519.656 44.5858C519.765 44.2866 519.933 44.0125 520.15 43.78C520.357 43.5707 520.604 43.4061 520.877 43.2964C521.15 43.1867 521.442 43.1341 521.736 43.142C522.013 43.1314 522.29 43.1732 522.551 43.265V44.276Z" fill="black"/>
<path d="M526.4 53.8191C525.941 53.8399 525.483 53.7633 525.056 53.5944C524.629 53.4255 524.242 53.1681 523.922 52.8391C523.284 52.1277 522.951 51.1937 522.996 50.2391C522.966 49.7389 523.037 49.2378 523.202 48.7649C523.368 48.292 523.626 47.8566 523.961 47.4841C524.302 47.1481 524.709 46.8866 525.157 46.716C525.604 46.5454 526.082 46.4695 526.561 46.4931C527.014 46.4673 527.467 46.5402 527.889 46.7066C528.311 46.8731 528.691 47.1291 529.005 47.4571C529.627 48.2038 529.942 49.1597 529.884 50.1301C529.932 51.1143 529.592 52.078 528.937 52.8141C528.609 53.1518 528.214 53.416 527.776 53.5893C527.339 53.7626 526.87 53.8409 526.4 53.8191ZM526.482 47.4351C526.16 47.4208 525.839 47.4794 525.543 47.6065C525.247 47.7336 524.984 47.9259 524.773 48.1691C524.326 48.747 524.103 49.4668 524.145 50.1961C524.105 50.9065 524.332 51.6062 524.781 52.1581C524.993 52.396 525.256 52.5838 525.55 52.708C525.844 52.8321 526.162 52.8895 526.481 52.8761C526.795 52.8955 527.109 52.8424 527.398 52.721C527.688 52.5997 527.946 52.4132 528.153 52.1761C528.575 51.5983 528.782 50.8905 528.737 50.1761C528.783 49.4543 528.577 48.7389 528.153 48.1531C527.949 47.9122 527.691 47.7219 527.401 47.5973C527.11 47.4727 526.795 47.4172 526.48 47.4351H526.482Z" fill="black"/>
<path d="M535.326 47.7901C535.076 47.6241 534.778 47.5447 534.479 47.5641C534.238 47.5669 534.002 47.6303 533.792 47.7487C533.582 47.867 533.406 48.0364 533.279 48.2411C532.93 48.7912 532.761 49.4366 532.797 50.0871V53.6551H531.676V46.6551H532.8V48.1001H532.827C532.957 47.6544 533.211 47.2549 533.56 46.9481C533.864 46.6811 534.255 46.5339 534.66 46.5341C534.887 46.5252 535.115 46.5591 535.33 46.6341L535.326 47.7901Z" fill="black"/>
<path d="M548.117 53.655H546.846L545.807 50.907H541.65L540.672 53.655H539.4L543.159 43.855H544.349L548.117 53.655ZM545.43 49.875L543.893 45.7C543.824 45.4863 543.773 45.2667 543.742 45.044H543.715C543.683 45.267 543.63 45.4866 543.557 45.7L542.033 49.877L545.43 49.875Z" fill="black"/>
<path d="M550.557 52.644H550.529V56.875H549.408V46.655H550.529V47.886H550.557C550.79 47.4504 551.14 47.0885 551.568 46.8412C551.995 46.5938 552.483 46.4708 552.977 46.486C553.378 46.4664 553.779 46.5413 554.146 46.7045C554.512 46.8678 554.836 47.1149 555.09 47.426C555.628 48.1522 555.896 49.0428 555.848 49.945C555.899 50.9534 555.597 51.948 554.994 52.758C554.715 53.1049 554.357 53.3812 553.951 53.5647C553.545 53.7481 553.101 53.8335 552.656 53.814C552.233 53.8269 551.815 53.725 551.445 53.519C551.075 53.3129 550.769 53.0105 550.557 52.644ZM550.529 49.82V50.8C550.516 51.3462 550.719 51.8754 551.094 52.273C551.295 52.4783 551.538 52.6383 551.806 52.7421C552.073 52.8458 552.36 52.891 552.647 52.8745C552.934 52.858 553.214 52.7803 553.468 52.6465C553.723 52.5127 553.945 52.326 554.121 52.099C554.542 51.4576 554.745 50.6977 554.699 49.932C554.738 49.2772 554.547 48.6294 554.16 48.1C553.985 47.8829 553.762 47.7098 553.507 47.5947C553.253 47.4796 552.976 47.4255 552.697 47.437C552.401 47.4256 552.106 47.4807 551.834 47.5982C551.562 47.7157 551.32 47.8926 551.125 48.116C550.721 48.5899 550.509 49.1975 550.529 49.82Z" fill="black"/>
<path d="M562.65 53.655H561.529V52.562H561.5C561.295 52.9527 560.985 53.2778 560.604 53.5001C560.223 53.7224 559.787 53.833 559.346 53.819C558.749 53.8544 558.162 53.6561 557.709 53.266C557.511 53.0773 557.356 52.8485 557.254 52.595C557.152 52.3415 557.105 52.0691 557.117 51.796C557.117 50.488 557.887 49.727 559.428 49.513L561.528 49.219C561.528 48.029 561.047 47.4343 560.085 47.435C559.245 47.4342 558.433 47.7403 557.802 48.296V47.147C558.515 46.7031 559.341 46.4752 560.181 46.491C561.827 46.491 562.65 47.3617 562.649 49.103L562.65 53.655ZM561.529 50.114L559.84 50.347C559.424 50.3844 559.021 50.5165 558.664 50.733C558.521 50.8504 558.41 51.0016 558.34 51.1729C558.27 51.3441 558.244 51.5301 558.264 51.714C558.259 51.8719 558.29 52.0289 558.353 52.1737C558.416 52.3186 558.51 52.4477 558.629 52.552C558.902 52.7778 559.249 52.8934 559.603 52.876C559.861 52.8831 560.117 52.8346 560.355 52.7338C560.593 52.633 560.806 52.4824 560.98 52.292C561.348 51.889 561.544 51.3576 561.525 50.812L561.529 50.114Z" fill="black"/>
<path d="M569.533 53.334C568.951 53.6687 568.289 53.8365 567.619 53.819C567.17 53.8373 566.722 53.76 566.306 53.592C565.889 53.4241 565.513 53.1695 565.203 52.845C564.575 52.1574 564.244 51.2494 564.283 50.319C564.234 49.2982 564.591 48.2994 565.275 47.54C565.616 47.1882 566.029 46.9128 566.485 46.732C566.941 46.5511 567.43 46.469 567.92 46.491C568.481 46.4794 569.038 46.5964 569.547 46.833V47.981C569.062 47.6282 568.478 47.4371 567.879 47.435C567.547 47.4253 567.217 47.4893 566.912 47.6222C566.608 47.7552 566.337 47.9539 566.119 48.204C565.642 48.7662 565.397 49.488 565.432 50.224C565.392 50.9297 565.623 51.6241 566.078 52.165C566.297 52.4024 566.566 52.589 566.866 52.7118C567.165 52.8346 567.487 52.8906 567.811 52.876C568.436 52.8708 569.042 52.6568 569.533 52.268V53.334Z" fill="black"/>
<path d="M577.039 53.655H575.918V49.622C575.918 48.164 575.375 47.435 574.291 47.435C574.028 47.4317 573.768 47.4867 573.529 47.596C573.29 47.7053 573.079 47.8662 572.909 48.067C572.525 48.5184 572.325 49.0978 572.349 49.69V53.655H571.229V43.292H572.349V47.817H572.377C572.601 47.4062 572.935 47.0651 573.34 46.8312C573.746 46.5973 574.208 46.4796 574.677 46.491C576.255 46.491 577.043 47.4413 577.042 49.342L577.039 53.655Z" fill="black"/>
<path d="M584.777 50.4361H579.836C579.811 51.094 580.035 51.737 580.465 52.2361C580.68 52.4528 580.939 52.6215 581.224 52.7311C581.509 52.8407 581.814 52.8888 582.119 52.8721C582.911 52.87 583.679 52.5949 584.293 52.0931V53.1451C583.571 53.6226 582.716 53.8573 581.852 53.8151C581.417 53.8374 580.983 53.7635 580.58 53.5988C580.177 53.4341 579.815 53.1825 579.521 52.8621C578.914 52.1043 578.612 51.1476 578.674 50.1791C578.632 49.2062 578.963 48.2541 579.6 47.5171C579.884 47.187 580.237 46.9236 580.635 46.7456C581.033 46.5676 581.464 46.4793 581.9 46.4871C582.298 46.464 582.697 46.5321 583.065 46.6861C583.433 46.8402 583.761 47.0761 584.025 47.3761C584.563 48.0818 584.83 48.9578 584.777 49.8441V50.4361ZM583.629 49.4851C583.658 48.9421 583.493 48.4066 583.162 47.9751C583.002 47.7942 582.804 47.6517 582.582 47.5582C582.36 47.4647 582.12 47.4226 581.879 47.4351C581.627 47.431 581.378 47.4793 581.146 47.5769C580.914 47.6745 580.706 47.8193 580.533 48.0021C580.15 48.4091 579.91 48.9297 579.85 49.4851H583.629Z" fill="black"/>
<path d="M590 53.2591V51.9051C590.17 52.0514 590.358 52.1754 590.559 52.2741C590.779 52.3857 591.007 52.4787 591.242 52.5521C591.478 52.6261 591.719 52.6842 591.963 52.7261C592.184 52.7652 592.408 52.7856 592.633 52.7871C593.189 52.8274 593.743 52.6897 594.215 52.3941C594.473 52.1762 594.648 51.8764 594.712 51.5448C594.775 51.2132 594.723 50.8699 594.564 50.5721C594.438 50.3652 594.274 50.1835 594.082 50.0361C593.854 49.8592 593.61 49.7035 593.354 49.5711C593.074 49.4231 592.772 49.2671 592.447 49.1031C592.105 48.9301 591.787 48.7541 591.49 48.5761C591.211 48.4105 590.952 48.2132 590.719 47.9881C590.504 47.7794 590.329 47.533 590.203 47.2611C590.062 46.9222 589.999 46.5562 590.017 46.1896C590.035 45.8231 590.135 45.4653 590.309 45.1421C590.501 44.8147 590.765 44.535 591.08 44.3241C591.414 44.1035 591.783 43.9418 592.172 43.8461C592.579 43.7408 592.998 43.6877 593.418 43.6881C594.14 43.6435 594.862 43.7628 595.531 44.0371V45.3291C594.868 44.9049 594.09 44.6954 593.303 44.7291C593.05 44.7292 592.798 44.7553 592.551 44.8071C592.315 44.8534 592.088 44.94 591.881 45.0631C591.689 45.1779 591.525 45.3348 591.402 45.5221C591.274 45.7263 591.209 45.9641 591.217 46.2051C591.211 46.4298 591.259 46.6526 591.357 46.8551C591.459 47.0483 591.6 47.2185 591.771 47.3551C591.979 47.5216 592.202 47.668 592.438 47.7921C592.699 47.9341 593.002 48.0921 593.344 48.2571C593.686 48.4221 594.027 48.6121 594.344 48.8041C594.643 48.9833 594.92 49.1968 595.17 49.4401C595.401 49.663 595.592 49.9242 595.734 50.2121C595.878 50.5152 595.949 50.8476 595.943 51.1831C595.956 51.6093 595.859 52.0318 595.66 52.4091C595.475 52.7398 595.213 53.0205 594.895 53.2271C594.555 53.444 594.178 53.5978 593.783 53.6811C593.347 53.776 592.903 53.8229 592.457 53.8211C592.265 53.8191 592.074 53.8067 591.883 53.7841C591.654 53.7591 591.422 53.7221 591.183 53.6751C590.955 53.6288 590.73 53.5694 590.509 53.4971C590.33 53.4405 590.158 53.3604 590 53.2591Z" fill="black"/>
<path d="M598.9 52.644H598.872V56.875H597.751V46.655H598.872V47.886H598.9C599.133 47.4502 599.482 47.0882 599.91 46.8408C600.337 46.5934 600.825 46.4705 601.319 46.486C601.72 46.4663 602.12 46.5412 602.487 46.7044C602.854 46.8677 603.177 47.1149 603.431 47.426C603.969 48.152 604.238 49.0426 604.191 49.945C604.242 50.9537 603.939 51.9486 603.335 52.758C603.056 53.1052 602.698 53.3817 602.292 53.5651C601.886 53.7486 601.442 53.8338 600.997 53.814C600.574 53.8267 600.156 53.7246 599.787 53.5186C599.418 53.3126 599.111 53.0103 598.9 52.644ZM598.872 49.82V50.8C598.859 51.3462 599.062 51.8755 599.437 52.273C599.638 52.4784 599.88 52.6383 600.148 52.7421C600.416 52.8459 600.703 52.891 600.99 52.8745C601.277 52.858 601.557 52.7803 601.811 52.6465C602.065 52.5127 602.288 52.326 602.464 52.099C602.884 51.4572 603.086 50.6976 603.042 49.932C603.08 49.2768 602.889 48.6288 602.5 48.1C602.325 47.8828 602.101 47.7097 601.847 47.5945C601.593 47.4794 601.316 47.4254 601.037 47.437C600.741 47.4259 600.446 47.4811 600.174 47.5985C599.902 47.716 599.66 47.8928 599.465 48.116C599.06 48.5896 598.847 49.1973 598.867 49.82H598.872Z" fill="black"/>
<path d="M610.986 53.6551H609.865V52.5621H609.838C609.634 52.9527 609.323 53.2778 608.943 53.5001C608.562 53.7224 608.126 53.833 607.686 53.8191C607.089 53.8545 606.502 53.6561 606.049 53.2661C605.851 53.0773 605.696 52.8485 605.594 52.595C605.492 52.3415 605.445 52.0691 605.457 51.7961C605.457 50.4881 606.227 49.7271 607.768 49.5131L609.868 49.2191C609.868 48.0291 609.388 47.4344 608.427 47.4351C607.586 47.4336 606.774 47.7398 606.144 48.2961V47.1471C606.857 46.7026 607.683 46.4747 608.523 46.4911C610.167 46.4911 610.989 47.3617 610.989 49.1031L610.986 53.6551ZM609.865 50.1141L608.178 50.3471C607.761 50.3841 607.359 50.5162 607.002 50.7331C606.859 50.8502 606.747 51.0014 606.677 51.1727C606.607 51.344 606.581 51.5301 606.602 51.7141C606.597 51.8721 606.628 52.0292 606.691 52.1741C606.754 52.319 606.849 52.4481 606.968 52.5521C607.241 52.7782 607.588 52.8939 607.942 52.8761C608.2 52.8831 608.456 52.8346 608.694 52.7339C608.931 52.6331 609.145 52.4824 609.319 52.2921C609.687 51.8889 609.882 51.3575 609.862 50.8121L609.865 50.1141Z" fill="black"/>
<path d="M616.75 47.79C616.499 47.6242 616.201 47.5449 615.902 47.564C615.661 47.5666 615.424 47.63 615.215 47.7483C615.005 47.8667 614.828 48.0362 614.702 48.241C614.352 48.7911 614.184 49.4365 614.22 50.087V53.655H613.1V46.655H614.221V48.1H614.248C614.376 47.654 614.63 47.2541 614.979 46.948C615.283 46.6811 615.674 46.5339 616.079 46.534C616.306 46.5254 616.533 46.5593 616.749 46.634L616.75 47.79Z" fill="black"/>
<path d="M623.777 53.655H622.205L619.115 50.292H619.088V53.655H617.967V43.292H619.088V49.861H619.115L622.055 46.655H623.523L620.277 50.032L623.777 53.655Z" fill="black"/>
<path d="M17.0234 186.653V185.3C17.1928 185.447 17.3803 185.571 17.5814 185.669C17.8012 185.78 18.0296 185.872 18.2644 185.946C18.5005 186.02 18.7414 186.079 18.9854 186.12C19.2066 186.159 19.4308 186.18 19.6554 186.182C20.2113 186.223 20.7656 186.085 21.2374 185.788C21.4953 185.57 21.6706 185.271 21.7341 184.939C21.7976 184.608 21.7455 184.265 21.5864 183.967C21.4602 183.76 21.2968 183.578 21.1044 183.431C20.8765 183.254 20.6325 183.098 20.3754 182.966C20.0964 182.817 19.7934 182.661 19.4704 182.497C19.1284 182.324 18.8094 182.148 18.5134 181.971C18.234 181.806 17.9749 181.609 17.7414 181.383C17.5262 181.174 17.3512 180.927 17.2254 180.655C17.0853 180.316 17.0222 179.95 17.0405 179.584C17.0588 179.217 17.1582 178.859 17.3314 178.536C17.5238 178.209 17.7877 177.93 18.1034 177.719C18.4372 177.498 18.8062 177.336 19.1944 177.24C19.6019 177.136 20.0208 177.083 20.4414 177.083C21.1628 177.038 21.885 177.157 22.5534 177.432V178.724C21.8904 178.299 21.1122 178.09 20.3254 178.124C20.0728 178.124 19.8208 178.15 19.5734 178.202C19.3373 178.25 19.1108 178.336 18.9034 178.459C18.7114 178.574 18.5477 178.73 18.4244 178.917C18.2966 179.122 18.2326 179.36 18.2404 179.601C18.235 179.825 18.2827 180.048 18.3794 180.25C18.4817 180.443 18.6226 180.614 18.7934 180.75C19.0013 180.917 19.2243 181.063 19.4594 181.188C19.7228 181.329 20.0251 181.484 20.3664 181.652C20.7078 181.82 21.0411 182.002 21.3664 182.199C21.6652 182.379 21.9426 182.593 22.1934 182.835C22.4239 183.058 22.6144 183.319 22.7564 183.607C22.9005 183.91 22.972 184.243 22.9654 184.578C22.9792 185.005 22.8817 185.428 22.6824 185.805C22.4975 186.135 22.235 186.416 21.9174 186.622C21.5771 186.839 21.2004 186.993 20.8054 187.076C20.37 187.172 19.9253 187.219 19.4794 187.217C19.2876 187.214 19.096 187.202 18.9054 187.18C18.6774 187.154 18.4441 187.117 18.2054 187.07C17.9775 187.024 17.7524 186.965 17.5314 186.893C17.3523 186.836 17.1816 186.755 17.0234 186.653Z" fill="black"/>
<path d="M25.9166 186.038H25.8886V190.27H24.7676V180.05H25.8886V181.28H25.9166C26.1502 180.846 26.5004 180.485 26.9277 180.239C27.355 179.992 27.8426 179.87 28.3356 179.886C28.7367 179.866 29.1369 179.941 29.5039 180.104C29.8709 180.267 30.1945 180.514 30.4486 180.825C30.9859 181.552 31.2542 182.442 31.2076 183.345C31.2585 184.353 30.9561 185.348 30.3526 186.157C30.0731 186.504 29.7158 186.781 29.3097 186.964C28.9035 187.148 28.4599 187.233 28.0146 187.214C27.5912 187.226 27.1725 187.123 26.803 186.916C26.4335 186.709 26.1272 186.405 25.9166 186.038ZM25.8886 183.215V184.192C25.8756 184.738 26.0787 185.267 26.4536 185.665C26.6543 185.871 26.8968 186.031 27.1647 186.135C27.4327 186.239 27.7198 186.284 28.0067 186.268C28.2936 186.251 28.5737 186.173 28.8279 186.039C29.0822 185.905 29.3048 185.718 29.4806 185.491C29.9012 184.85 30.1038 184.09 30.0586 183.324C30.0967 182.669 29.9058 182.021 29.5186 181.492C29.3433 181.275 29.1197 181.102 28.8657 180.987C28.6117 180.872 28.3342 180.818 28.0556 180.829C27.7594 180.818 27.4646 180.873 27.1925 180.991C26.9205 181.109 26.6783 181.286 26.4836 181.509C26.0795 181.984 25.8673 182.592 25.8886 183.215Z" fill="black"/>
<path d="M38.0094 187.05H36.8884V185.956H36.8614C36.6571 186.347 36.3468 186.672 35.9659 186.895C35.5851 187.118 35.1492 187.228 34.7084 187.214C34.1114 187.249 33.5243 187.051 33.0714 186.66C32.8735 186.471 32.7184 186.243 32.6162 185.989C32.5141 185.736 32.4675 185.463 32.4794 185.19C32.4794 183.883 33.2497 183.122 34.7904 182.907L36.8904 182.613C36.8904 181.424 36.4097 180.829 35.4484 180.829C34.6078 180.828 33.7958 181.134 33.1654 181.69V180.542C33.878 180.097 34.7045 179.87 35.5444 179.886C37.189 179.886 38.0114 180.756 38.0114 182.497L38.0094 187.05ZM36.8884 183.509L35.2004 183.741C34.7839 183.778 34.3815 183.911 34.0243 184.128C33.8814 184.245 33.7699 184.396 33.7 184.567C33.6302 184.738 33.6042 184.924 33.6244 185.108C33.6199 185.266 33.6503 185.423 33.7136 185.568C33.7769 185.713 33.8714 185.842 33.9904 185.946C34.263 186.172 34.6105 186.288 34.9644 186.271C35.2223 186.278 35.4788 186.23 35.7164 186.129C35.954 186.028 36.1671 185.877 36.3414 185.687C36.7096 185.284 36.9049 184.752 36.8854 184.206L36.8884 183.509Z" fill="black"/>
<path d="M43.7721 181.185C43.5219 181.019 43.2239 180.939 42.9241 180.959C42.6832 180.962 42.4469 181.025 42.2371 181.143C42.0273 181.262 41.8508 181.431 41.7241 181.636C41.3749 182.186 41.2064 182.831 41.2421 183.481V187.05H40.1221V180.05H41.2431V181.492H41.2701C41.3989 181.047 41.6521 180.647 42.0001 180.341C42.3043 180.074 42.6953 179.927 43.1001 179.927C43.3273 179.917 43.5545 179.949 43.7701 180.022L43.7721 181.185Z" fill="black"/>
<path d="M50.8003 187.05H49.2273L46.1373 183.687H46.1103V187.05H44.9893V176.687H46.1103V183.256H46.1373L49.0773 180.05H50.5463L47.3003 183.427L50.8003 187.05Z" fill="black"/>
<path d="M57.0816 187.05H55.9326V177.25H57.0816V187.05Z" fill="black"/>
<path d="M65.3188 187.05H64.1998V183.058C64.1998 181.572 63.6575 180.829 62.5728 180.829C62.3083 180.823 62.0459 180.877 61.8051 180.987C61.5643 181.097 61.3513 181.259 61.1818 181.462C60.8051 181.908 60.6085 182.479 60.6308 183.062V187.054H59.5078V180.054H60.6288V181.216H60.6568C60.8793 180.803 61.2124 180.461 61.6186 180.227C62.0248 179.992 62.4881 179.876 62.9568 179.89C63.287 179.87 63.6174 179.926 63.922 180.055C64.2267 180.183 64.4974 180.381 64.7128 180.632C65.1581 181.254 65.3734 182.012 65.3218 182.775L65.3188 187.05Z" fill="black"/>
<path d="M70.6778 186.981C70.353 187.141 69.9933 187.216 69.6318 187.2C68.4064 187.2 67.7934 186.516 67.7928 185.149V181.007H66.5928V180.05H67.7928V178.341L68.9148 177.979V180.05H70.6778V181.007H68.9148V184.951C68.885 185.301 68.9688 185.652 69.1538 185.951C69.254 186.059 69.3777 186.142 69.5152 186.194C69.6527 186.246 69.8004 186.265 69.9468 186.251C70.2097 186.258 70.4671 186.175 70.6778 186.018V186.981Z" fill="black"/>
<path d="M77.8001 183.83H72.8591C72.8347 184.488 73.0593 185.131 73.4881 185.63C73.7034 185.847 73.9621 186.015 74.2472 186.125C74.5322 186.234 74.8372 186.283 75.1421 186.266C75.9351 186.264 76.7031 185.989 77.3161 185.486V186.539C76.5944 187.016 75.7393 187.251 74.8751 187.209C74.4404 187.231 74.0062 187.157 73.6033 186.993C73.2004 186.828 72.8388 186.576 72.5441 186.256C71.9383 185.498 71.6363 184.541 71.6971 183.572C71.6556 182.599 71.9868 181.647 72.6231 180.91C72.9076 180.58 73.2611 180.317 73.6586 180.14C74.0561 179.962 74.4878 179.873 74.9231 179.881C75.3216 179.858 75.7201 179.926 76.0885 180.08C76.4568 180.234 76.7853 180.47 77.0491 180.769C77.5872 181.475 77.854 182.351 77.8011 183.237L77.8001 183.83ZM76.6521 182.88C76.6809 182.337 76.515 181.801 76.1841 181.369C76.0249 181.188 75.8269 181.046 75.6049 180.952C75.3829 180.859 75.1427 180.817 74.9021 180.829C74.6506 180.825 74.401 180.874 74.1691 180.971C73.9373 181.069 73.7282 181.213 73.5551 181.396C73.1724 181.803 72.9327 182.324 72.8721 182.88H76.6521Z" fill="black"/>
<path d="M83.147 181.185C82.8968 181.019 82.5988 180.939 82.299 180.959C82.0581 180.962 81.8218 181.025 81.612 181.143C81.4022 181.262 81.2257 181.431 81.099 181.636C80.7498 182.186 80.5813 182.831 80.617 183.481V187.05H79.5V180.05H80.621V181.492H80.648C80.7771 181.047 81.0307 180.647 81.379 180.341C81.6832 180.074 82.0742 179.927 82.479 179.927C82.7063 179.917 82.9334 179.949 83.149 180.022L83.147 181.185Z" fill="black"/>
<path d="M85.4853 187.05H84.3643V176.687H85.4853V187.05Z" fill="black"/>
<path d="M90.6802 187.214C90.2213 187.235 89.7631 187.159 89.3359 186.989C88.9088 186.82 88.5224 186.563 88.2022 186.233C87.5633 185.522 87.2306 184.588 87.2762 183.633C87.2465 183.133 87.3164 182.632 87.4819 182.159C87.6473 181.686 87.9051 181.251 88.2402 180.878C88.5814 180.542 88.9887 180.28 89.4363 180.11C89.8838 179.939 90.3618 179.863 90.8402 179.887C91.293 179.862 91.746 179.934 92.168 180.101C92.5899 180.267 92.9707 180.523 93.2842 180.851C93.9067 181.597 94.221 182.553 94.1632 183.523C94.211 184.507 93.8706 185.471 93.2152 186.207C92.8882 186.545 92.4931 186.81 92.056 186.983C91.619 187.157 91.15 187.236 90.6802 187.214ZM90.7622 180.829C90.4404 180.814 90.1195 180.873 89.8235 181C89.5275 181.127 89.2642 181.32 89.0532 181.563C88.6053 182.141 88.3818 182.861 88.4242 183.591C88.3843 184.301 88.6111 185.001 89.0602 185.553C89.273 185.791 89.5358 185.978 89.8297 186.103C90.1237 186.227 90.4414 186.284 90.7602 186.271C91.0739 186.29 91.3878 186.237 91.6777 186.116C91.9676 185.994 92.2258 185.808 92.4322 185.571C92.8551 184.993 93.0618 184.286 93.0162 183.571C93.0627 182.849 92.8562 182.134 92.4322 181.548C92.2282 181.307 91.9713 181.117 91.6816 180.993C91.3919 180.868 91.0772 180.812 90.7622 180.829Z" fill="black"/>
<path d="M97.106 186.038H97.079V190.27H95.958V180.05H97.079V181.28H97.106C97.3398 180.845 97.6901 180.485 98.1176 180.239C98.5452 179.992 99.0329 179.87 99.526 179.886C99.927 179.866 100.327 179.941 100.694 180.104C101.061 180.267 101.384 180.514 101.638 180.825C102.175 181.552 102.444 182.442 102.397 183.345C102.448 184.353 102.146 185.348 101.542 186.157C101.263 186.504 100.906 186.781 100.5 186.964C100.094 187.148 99.6502 187.233 99.205 187.214C98.7815 187.226 98.3625 187.123 97.9929 186.916C97.6232 186.709 97.3167 186.406 97.106 186.038ZM97.079 183.215V184.192C97.0657 184.738 97.2684 185.267 97.643 185.665C97.8437 185.871 98.0862 186.031 98.3542 186.135C98.6221 186.239 98.9092 186.284 99.1961 186.267C99.4831 186.251 99.7631 186.173 100.017 186.039C100.272 185.905 100.494 185.718 100.67 185.491C101.091 184.85 101.294 184.09 101.249 183.324C101.287 182.669 101.096 182.021 100.708 181.492C100.533 181.275 100.31 181.102 100.056 180.987C99.8018 180.872 99.5245 180.818 99.246 180.829C98.9497 180.818 98.6547 180.873 98.3825 180.991C98.1104 181.108 97.8679 181.285 97.673 181.509C97.2693 181.984 97.0575 182.592 97.079 183.215Z" fill="black"/>
<path d="M113.259 187.05H108.173V177.25H109.322V186.014H113.259V187.05Z" fill="black"/>
<path d="M119.624 187.05H118.5V185.956H118.473C118.268 186.347 117.958 186.672 117.577 186.895C117.196 187.118 116.76 187.228 116.32 187.214C115.723 187.249 115.136 187.051 114.683 186.66C114.485 186.471 114.33 186.243 114.228 185.989C114.126 185.736 114.079 185.463 114.091 185.19C114.091 183.883 114.861 183.122 116.402 182.907L118.502 182.613C118.502 181.424 118.021 180.829 117.06 180.829C116.219 180.828 115.407 181.134 114.777 181.69V180.542C115.489 180.097 116.316 179.87 117.156 179.886C118.801 179.886 119.624 180.756 119.624 182.497V187.05ZM118.502 183.509L116.814 183.741C116.397 183.778 115.995 183.911 115.638 184.128C115.495 184.245 115.383 184.396 115.314 184.567C115.244 184.739 115.218 184.924 115.238 185.108C115.233 185.266 115.263 185.423 115.326 185.568C115.389 185.713 115.484 185.842 115.603 185.946C115.876 186.173 116.223 186.288 116.578 186.271C116.835 186.278 117.092 186.229 117.329 186.129C117.566 186.028 117.779 185.877 117.954 185.687C118.322 185.284 118.517 184.752 118.498 184.206L118.502 183.509Z" fill="black"/>
<path d="M127.307 180.05L124.087 188.171C123.513 189.62 122.707 190.345 121.667 190.345C121.421 190.351 121.174 190.321 120.936 190.256V189.256C121.149 189.333 121.373 189.374 121.599 189.379C121.891 189.368 122.172 189.263 122.401 189.081C122.63 188.899 122.794 188.649 122.871 188.367L123.431 187.041L120.7 180.05H121.944L123.837 185.437C123.86 185.504 123.908 185.681 123.981 185.97H124.022C124.045 185.86 124.09 185.688 124.159 185.45L126.148 180.05H127.307Z" fill="black"/>
<path d="M134.136 183.83H129.194C129.17 184.488 129.394 185.131 129.823 185.63C130.038 185.847 130.297 186.015 130.582 186.125C130.867 186.234 131.172 186.283 131.477 186.266C132.27 186.264 133.038 185.989 133.651 185.486V186.539C132.929 187.016 132.074 187.251 131.21 187.209C130.775 187.231 130.341 187.157 129.938 186.993C129.535 186.828 129.174 186.576 128.879 186.256C128.273 185.498 127.971 184.541 128.032 183.572C127.991 182.599 128.322 181.647 128.958 180.91C129.243 180.58 129.596 180.317 129.994 180.14C130.391 179.962 130.823 179.873 131.258 179.881C131.657 179.858 132.055 179.926 132.423 180.08C132.792 180.234 133.12 180.47 133.384 180.769C133.922 181.475 134.189 182.351 134.136 183.237V183.83ZM132.988 182.88C133.017 182.337 132.851 181.801 132.52 181.369C132.361 181.188 132.163 181.046 131.941 180.952C131.719 180.859 131.479 180.817 131.238 180.829C130.987 180.825 130.737 180.873 130.505 180.971C130.273 181.069 130.064 181.213 129.891 181.396C129.508 181.803 129.269 182.324 129.208 182.88H132.988Z" fill="black"/>
<path d="M139.482 181.185C139.232 181.019 138.934 180.939 138.634 180.959C138.393 180.962 138.157 181.025 137.947 181.143C137.737 181.262 137.561 181.431 137.434 181.636C137.085 182.186 136.916 182.831 136.952 183.481V187.05H135.831V180.05H136.952V181.492H136.979C137.108 181.047 137.362 180.647 137.71 180.341C138.014 180.074 138.405 179.927 138.81 179.927C139.037 179.917 139.264 179.949 139.48 180.022L139.482 181.185Z" fill="black"/>
<path d="M56.0186 213.986V212.633C56.1879 212.78 56.3754 212.904 56.5766 213.002C56.7963 213.113 57.0247 213.205 57.2596 213.279C57.4957 213.353 57.7366 213.411 57.9806 213.453C58.2018 213.492 58.4259 213.513 58.6506 213.515C59.2064 213.556 59.7607 213.418 60.2326 213.121C60.4901 212.903 60.6653 212.604 60.7289 212.272C60.7926 211.941 60.741 211.598 60.5826 211.3C60.4556 211.093 60.2919 210.912 60.0996 210.764C59.8719 210.587 59.6281 210.431 59.3716 210.299C59.0916 210.15 58.7896 209.993 58.4656 209.83C58.1246 209.657 57.8046 209.481 57.5086 209.304C57.2293 209.139 56.9702 208.941 56.7366 208.716C56.5213 208.507 56.3464 208.26 56.2206 207.988C56.0805 207.649 56.0173 207.283 56.0356 206.917C56.054 206.55 56.1533 206.192 56.3266 205.869C56.5189 205.542 56.7828 205.263 57.0986 205.052C57.4323 204.831 57.8013 204.669 58.1896 204.573C58.597 204.469 59.016 204.416 59.4366 204.416C60.1579 204.371 60.8801 204.49 61.5486 204.765V206.057C60.8855 205.632 60.1073 205.423 59.3206 205.457C59.0679 205.457 58.8159 205.483 58.5686 205.535C58.3324 205.583 58.1059 205.669 57.8986 205.792C57.7065 205.907 57.5428 206.063 57.4196 206.25C57.2918 206.455 57.2277 206.693 57.2356 206.934C57.2302 207.158 57.2778 207.381 57.3746 207.583C57.4768 207.777 57.6181 207.947 57.7896 208.083C57.9971 208.25 58.2201 208.397 58.4556 208.521C58.7176 208.662 59.0196 208.816 59.3616 208.985C59.7036 209.154 60.0369 209.336 60.3616 209.532C60.6603 209.712 60.9378 209.926 61.1886 210.168C61.4193 210.391 61.6098 210.653 61.7516 210.941C61.8957 211.244 61.9673 211.576 61.9606 211.911C61.9744 212.338 61.8768 212.761 61.6776 213.138C61.4927 213.468 61.2301 213.749 60.9126 213.955C60.5723 214.172 60.1955 214.326 59.8006 214.409C59.3651 214.505 58.9204 214.552 58.4746 214.55C58.2827 214.547 58.0911 214.535 57.9006 214.513C57.6726 214.487 57.4392 214.45 57.2006 214.403C56.9726 214.357 56.7475 214.298 56.5266 214.226C56.3475 214.169 56.1767 214.088 56.0186 213.986Z" fill="black"/>
<path d="M68.5356 214.062C67.9543 214.396 67.2921 214.564 66.6216 214.547C66.1728 214.565 65.7251 214.488 65.3085 214.32C64.8919 214.152 64.5159 213.897 64.2056 213.572C63.5773 212.885 63.2465 211.977 63.2856 211.047C63.2372 210.026 63.5933 209.028 64.2766 208.268C64.6182 207.916 65.0305 207.64 65.4865 207.459C65.9425 207.279 66.4316 207.197 66.9216 207.219C67.4829 207.207 68.0395 207.324 68.5486 207.561V208.709C68.0639 208.356 67.4803 208.164 66.8806 208.162C66.5487 208.152 66.2189 208.216 65.9147 208.35C65.6106 208.483 65.3397 208.682 65.1216 208.932C64.6448 209.493 64.3989 210.215 64.4336 210.951C64.3939 211.657 64.6254 212.352 65.0806 212.893C65.3003 213.13 65.5691 213.317 65.8682 213.439C66.1673 213.562 66.4896 213.618 66.8126 213.604C67.4381 213.599 68.0443 213.387 68.5356 213V214.062Z" fill="black"/>
<path d="M75.2417 214.383H74.1207V213.289H74.0927C73.8885 213.68 73.5781 214.005 73.1973 214.228C72.8165 214.45 72.3806 214.561 71.9397 214.547C71.3428 214.582 70.7556 214.383 70.3027 213.993C70.1051 213.804 69.9501 213.575 69.848 213.322C69.7459 213.068 69.6991 212.796 69.7107 212.523C69.7107 211.216 70.4811 210.455 72.0217 210.24L74.1217 209.946C74.1217 208.757 73.6407 208.163 72.6787 208.162C71.8382 208.161 71.0263 208.467 70.3957 209.023V207.875C71.1086 207.431 71.935 207.203 72.7747 207.219C74.4201 207.219 75.2427 208.089 75.2427 209.83L75.2417 214.383ZM74.1207 210.842L72.4317 211.074C72.0153 211.111 71.6129 211.244 71.2557 211.461C71.1129 211.578 71.0015 211.729 70.9316 211.9C70.8618 212.072 70.8357 212.257 70.8557 212.441C70.851 212.599 70.8813 212.756 70.9444 212.901C71.0075 213.046 71.1019 213.175 71.2207 213.279C71.4937 213.506 71.8415 213.621 72.1957 213.604C72.4537 213.611 72.7102 213.563 72.9478 213.462C73.1853 213.361 73.3985 213.21 73.5727 213.02C73.9406 212.616 74.1358 212.085 74.1167 211.539L74.1207 210.842Z" fill="black"/>
<path d="M78.4745 214.383H77.3535V204.02H78.4745V214.383Z" fill="black"/>
<path d="M85.7554 214.383H84.6344V213.289H84.6074C84.4032 213.68 84.0929 214.005 83.712 214.228C83.3312 214.45 82.8953 214.561 82.4544 214.547C81.8575 214.582 81.2704 214.383 80.8174 213.993C80.6196 213.804 80.4645 213.576 80.3623 213.322C80.2602 213.069 80.2136 212.796 80.2254 212.523C80.2254 211.216 80.9958 210.455 82.5365 210.24L84.6364 209.946C84.6364 208.757 84.1558 208.163 83.1944 208.162C82.3539 208.161 81.5419 208.467 80.9115 209.023V207.875C81.6243 207.431 82.4507 207.203 83.2904 207.219C84.9358 207.219 85.7581 208.089 85.7575 209.83L85.7554 214.383ZM84.6344 210.842L82.9464 211.074C82.5299 211.111 82.1276 211.244 81.7704 211.461C81.6274 211.578 81.516 211.729 81.4461 211.9C81.3763 212.071 81.3503 212.257 81.3704 212.441C81.3658 212.599 81.3961 212.756 81.4592 212.901C81.5223 213.046 81.6166 213.175 81.7354 213.279C82.0081 213.505 82.3556 213.621 82.7094 213.604C82.9674 213.611 83.2239 213.563 83.4615 213.462C83.6991 213.361 83.9122 213.21 84.0864 213.02C84.4547 212.617 84.65 212.085 84.6304 211.539L84.6344 210.842Z" fill="black"/>
<path d="M92.291 204.58L87.591 216.01H86.542L91.231 204.58H92.291Z" fill="black"/>
<path d="M95.9822 210.869C96.0402 211.829 95.7809 212.782 95.2442 213.58C94.904 214.004 94.4386 214.31 93.9144 214.453C93.3902 214.597 92.834 214.571 92.3252 214.38V213.245C92.6076 213.434 92.9429 213.527 93.2822 213.512C94.3162 213.512 94.8332 212.635 94.8332 210.88V204.58H95.9822V210.869Z" fill="black"/>
<path d="M103.331 214.383H102.209V213.289H102.182C101.977 213.68 101.667 214.005 101.286 214.228C100.905 214.45 100.469 214.561 100.029 214.547C99.4316 214.582 98.8445 214.383 98.3916 213.993C98.194 213.804 98.0389 213.575 97.9369 213.322C97.8348 213.068 97.788 212.796 97.7996 212.523C97.7996 211.216 98.5699 210.455 100.111 210.24L102.211 209.946C102.211 208.757 101.73 208.163 100.769 208.162C99.928 208.161 99.1161 208.467 98.4856 209.023V207.875C99.1984 207.431 100.025 207.203 100.865 207.219C102.51 207.219 103.333 208.089 103.333 209.83L103.331 214.383ZM102.209 210.842L100.521 211.074C100.104 211.111 99.7017 211.244 99.3446 211.461C99.2017 211.578 99.0903 211.729 99.0205 211.9C98.9507 212.072 98.9246 212.257 98.9446 212.441C98.9399 212.599 98.9702 212.756 99.0333 212.901C99.0964 213.046 99.1907 213.175 99.3096 213.279C99.5825 213.506 99.9304 213.621 100.285 213.604C100.543 213.611 100.799 213.563 101.037 213.462C101.274 213.361 101.487 213.21 101.662 213.02C102.029 212.616 102.224 212.085 102.205 211.539L102.209 210.842Z" fill="black"/>
<path d="M110.946 207.383L108.157 214.383H107.057L104.405 207.383H105.635L107.413 212.469C107.53 212.785 107.613 213.113 107.659 213.446H107.686C107.725 213.123 107.799 212.804 107.905 212.496L109.764 207.383H110.946Z" fill="black"/>
<path d="M117.16 214.383H116.039V213.289H116.011C115.806 213.68 115.496 214.005 115.115 214.228C114.734 214.45 114.299 214.561 113.858 214.547C113.261 214.582 112.674 214.383 112.221 213.993C112.023 213.804 111.868 213.575 111.766 213.322C111.664 213.068 111.617 212.796 111.629 212.523C111.629 211.216 112.399 210.455 113.94 210.24L116.04 209.946C116.04 208.757 115.559 208.163 114.597 208.162C113.756 208.161 112.944 208.467 112.314 209.023V207.875C113.027 207.431 113.853 207.203 114.693 207.219C116.338 207.219 117.161 208.089 117.161 209.83L117.16 214.383ZM116.039 210.842L114.35 211.074C113.933 211.111 113.531 211.244 113.174 211.461C113.031 211.578 112.919 211.729 112.85 211.9C112.78 212.072 112.754 212.257 112.774 212.441C112.769 212.599 112.799 212.756 112.862 212.901C112.926 213.046 113.02 213.175 113.139 213.279C113.412 213.506 113.759 213.621 114.114 213.604C114.372 213.611 114.628 213.563 114.866 213.462C115.103 213.361 115.316 213.21 115.491 213.02C115.859 212.616 116.054 212.085 116.035 211.539L116.039 210.842Z" fill="black"/>
<path d="M130.845 214.383H129.574L128.535 211.635H124.378L123.401 214.383H122.123L125.882 204.583H127.072L130.845 214.383ZM128.159 210.603L126.621 206.426C126.552 206.212 126.502 205.993 126.47 205.77H126.443C126.411 205.993 126.358 206.213 126.286 206.426L124.761 210.603H128.159Z" fill="black"/>
<path d="M133.436 210.678V214.383H132.288V204.583H134.981C135.86 204.527 136.729 204.8 137.418 205.349C137.712 205.623 137.943 205.959 138.092 206.332C138.242 206.706 138.307 207.108 138.283 207.509C138.296 207.936 138.218 208.361 138.052 208.755C137.886 209.149 137.638 209.503 137.323 209.792C136.605 210.413 135.675 210.731 134.728 210.681L133.436 210.678ZM133.436 205.619V209.639H134.636C135.287 209.683 135.932 209.49 136.451 209.096C136.663 208.903 136.83 208.665 136.938 208.399C137.046 208.134 137.094 207.847 137.077 207.561C137.077 206.267 136.31 205.62 134.777 205.619H133.436Z" fill="black"/>
<path d="M141.277 214.383H140.128V204.583H141.277V214.383Z" fill="black"/>
<path d="M35.3656 239.717H34.0996L33.0606 236.969H28.8996L27.9226 239.717H26.6436L30.4026 229.917H31.5926L35.3656 239.717ZM32.6796 235.936L31.1416 231.76C31.0729 231.546 31.0224 231.327 30.9906 231.104H30.9636C30.931 231.327 30.8785 231.546 30.8066 231.76L29.2816 235.936H32.6796Z" fill="black"/>
<path d="M37.8072 238.705H37.7792V242.936H36.6582V232.717H37.7792V233.947H37.8072C38.0409 233.512 38.3912 233.152 38.8188 232.905C39.2463 232.659 39.7341 232.537 40.2272 232.553C40.6282 232.533 41.0282 232.608 41.3951 232.771C41.762 232.934 42.0854 233.181 42.3392 233.492C42.8765 234.219 43.1448 235.109 43.0982 236.012C43.1489 237.02 42.8466 238.015 42.2432 238.824C41.9637 239.171 41.6065 239.448 41.2003 239.631C40.7942 239.815 40.3505 239.901 39.9052 239.881C39.4818 239.893 39.0632 239.79 38.6937 239.583C38.3243 239.376 38.0179 239.072 37.8072 238.705ZM37.7792 235.881V236.859C37.7663 237.405 37.9693 237.935 38.3442 238.332C38.5449 238.538 38.7874 238.698 39.0554 238.802C39.3233 238.906 39.6104 238.951 39.8973 238.935C40.1843 238.918 40.4643 238.84 40.7186 238.706C40.9728 238.572 41.1954 238.385 41.3712 238.158C41.7919 237.516 41.9946 236.756 41.9492 235.99C41.9877 235.335 41.7967 234.687 41.4092 234.158C41.2338 233.941 41.0102 233.769 40.7561 233.654C40.5021 233.539 40.2248 233.485 39.9462 233.496C39.6501 233.485 39.3552 233.54 39.0833 233.658C38.8113 233.776 38.569 233.953 38.3742 234.176C37.9704 234.65 37.7582 235.258 37.7792 235.881Z" fill="black"/>
<path d="M49.9 239.717H48.778V238.623H48.751C48.5466 239.014 48.2362 239.339 47.8554 239.562C47.4746 239.784 47.0388 239.895 46.598 239.881C46.0009 239.916 45.4137 239.717 44.961 239.326C44.7632 239.137 44.6081 238.909 44.506 238.656C44.4039 238.402 44.3572 238.13 44.369 237.857C44.369 236.549 45.1393 235.788 46.68 235.574L48.78 235.274C48.78 234.085 48.2993 233.49 47.338 233.491C46.4974 233.49 45.6855 233.796 45.055 234.352V233.204C45.7676 232.759 46.5942 232.531 47.434 232.548C49.0786 232.548 49.901 233.418 49.901 235.159L49.9 239.717ZM48.779 236.176L47.091 236.408C46.6744 236.445 46.2719 236.577 45.915 236.795C45.7719 236.912 45.6604 237.063 45.5905 237.234C45.5207 237.405 45.4947 237.591 45.515 237.775C45.5103 237.933 45.5406 238.09 45.6037 238.235C45.6668 238.38 45.7611 238.509 45.88 238.613C46.1528 238.839 46.5002 238.955 46.854 238.938C47.112 238.945 47.3684 238.897 47.606 238.796C47.8436 238.695 48.0567 238.544 48.231 238.354C48.599 237.95 48.7943 237.419 48.775 236.873L48.779 236.176Z" fill="black"/>
<path d="M56.7827 239.4C56.2017 239.735 55.5393 239.903 54.8687 239.886C54.4199 239.904 53.9722 239.827 53.5556 239.659C53.1391 239.491 52.7631 239.236 52.4527 238.911C51.825 238.224 51.4943 237.316 51.5327 236.386C51.484 235.365 51.8402 234.367 52.5237 233.607C52.8655 233.255 53.278 232.979 53.7342 232.799C54.1903 232.618 54.6796 232.536 55.1697 232.558C55.7311 232.546 56.2877 232.663 56.7967 232.9V234.048C56.3122 233.695 55.7285 233.503 55.1287 233.501C54.7967 233.491 54.4667 233.555 54.1623 233.689C53.858 233.822 53.587 234.021 53.3687 234.271C52.8923 234.833 52.6468 235.554 52.6817 236.29C52.6419 236.996 52.8729 237.691 53.3277 238.232C53.5478 238.469 53.8168 238.655 54.116 238.778C54.4153 238.901 54.7376 238.957 55.0607 238.943C55.6867 238.937 56.2927 238.723 56.7827 238.333V239.4Z" fill="black"/>
<path d="M64.2885 239.717H63.1675V235.684C63.1675 234.225 62.6252 233.495 61.5405 233.496C61.2778 233.493 61.0176 233.548 60.7788 233.657C60.5399 233.767 60.3284 233.928 60.1595 234.129C59.7747 234.58 59.5746 235.16 59.5995 235.752V239.717H58.4785V229.354H59.5995V233.879H59.6265C59.8507 233.468 60.1841 233.126 60.5899 232.892C60.9957 232.658 61.4582 232.541 61.9265 232.553C63.5038 232.553 64.2922 233.503 64.2915 235.402L64.2885 239.717Z" fill="black"/>
<path d="M72.0267 236.5H67.0847C67.0608 237.158 67.2853 237.8 67.7137 238.3C67.9289 238.517 68.1876 238.686 68.4726 238.795C68.7577 238.905 69.0627 238.953 69.3677 238.937C70.1606 238.935 70.9286 238.66 71.5417 238.157V239.21C70.8201 239.687 69.9655 239.921 69.1017 239.88C68.667 239.902 68.2328 239.828 67.8299 239.664C67.427 239.499 67.0654 239.247 66.7707 238.927C66.1642 238.169 65.8619 237.212 65.9227 236.243C65.8811 235.27 66.2123 234.318 66.8487 233.581C67.1331 233.251 67.4866 232.988 67.8841 232.81C68.2816 232.632 68.7133 232.544 69.1487 232.552C69.5473 232.529 69.9458 232.597 70.3142 232.751C70.6825 232.905 71.011 233.14 71.2747 233.44C71.8131 234.146 72.08 235.021 72.0267 235.907V236.5ZM70.8787 235.551C70.9075 235.007 70.7415 234.471 70.4107 234.039C70.2514 233.858 70.0533 233.716 69.8313 233.623C69.6094 233.53 69.3692 233.488 69.1287 233.5C68.8773 233.496 68.6278 233.544 68.3959 233.642C68.1641 233.739 67.955 233.884 67.7817 234.066C67.3994 234.474 67.1597 234.995 67.0987 235.551H70.8787Z" fill="black"/>
<path d="M77.25 239.32V237.967C77.4193 238.113 77.6069 238.237 77.808 238.336C78.0278 238.447 78.2562 238.539 78.491 238.613C78.7271 238.687 78.968 238.745 79.212 238.787C79.4332 238.826 79.6574 238.846 79.882 238.848C80.4377 238.888 80.9918 238.751 81.464 238.455C81.7219 238.237 81.8973 237.937 81.9608 237.606C82.0243 237.274 81.9721 236.931 81.813 236.633C81.6867 236.426 81.5233 236.245 81.331 236.098C81.1036 235.92 80.8598 235.765 80.603 235.633C80.323 235.484 80.021 235.327 79.697 235.164C79.355 234.99 79.036 234.814 78.74 234.637C78.4605 234.472 78.2014 234.275 77.968 234.049C77.7528 233.84 77.5778 233.594 77.452 233.322C77.3119 232.983 77.2487 232.617 77.2671 232.25C77.2854 231.884 77.3848 231.526 77.558 231.203C77.7503 230.875 78.0142 230.596 78.33 230.385C78.6642 230.165 79.033 230.003 79.421 229.906C79.8286 229.802 80.2475 229.75 80.668 229.75C81.3893 229.705 82.1114 229.824 82.78 230.098V231.391C82.1171 230.966 81.3388 230.756 80.552 230.791C80.2993 230.791 80.0473 230.817 79.8 230.869C79.564 230.917 79.3376 231.003 79.13 231.125C78.9379 231.24 78.7742 231.397 78.651 231.584C78.523 231.789 78.4589 232.027 78.467 232.268C78.4616 232.492 78.5092 232.714 78.606 232.916C78.7081 233.11 78.8494 233.28 79.021 233.416C79.2288 233.582 79.4518 233.729 79.687 233.854C79.949 233.994 80.251 234.149 80.593 234.318C80.943 234.49 81.276 234.674 81.593 234.865C81.8917 235.045 82.1692 235.258 82.42 235.5C82.6508 235.723 82.8412 235.985 82.983 236.273C83.1273 236.576 83.1988 236.908 83.192 237.244C83.2057 237.671 83.1082 238.093 82.909 238.471C82.7244 238.801 82.4617 239.081 82.144 239.287C81.8038 239.504 81.427 239.658 81.032 239.742C80.5966 239.838 80.1518 239.885 79.706 239.883C79.551 239.883 79.359 239.869 79.132 239.846C78.905 239.823 78.672 239.783 78.432 239.736C78.204 239.69 77.979 239.631 77.758 239.559C77.5793 239.501 77.4086 239.421 77.25 239.32Z" fill="black"/>
<path d="M86.144 238.705H86.116V242.936H85V232.717H86.121V233.947H86.149C86.3826 233.513 86.7328 233.152 87.1601 232.906C87.5875 232.66 88.075 232.537 88.568 232.553C88.9692 232.533 89.3694 232.607 89.7365 232.771C90.1035 232.934 90.4271 233.181 90.681 233.492C91.2183 234.219 91.4866 235.109 91.44 236.012C91.4907 237.02 91.1884 238.015 90.585 238.824C90.3055 239.171 89.9482 239.448 89.5421 239.631C89.1359 239.815 88.6923 239.901 88.247 239.881C87.8228 239.894 87.4031 239.791 87.0327 239.584C86.6623 239.377 86.3551 239.073 86.144 238.705ZM86.116 235.881V236.859C86.103 237.405 86.3061 237.935 86.681 238.332C86.8817 238.538 87.1242 238.698 87.3922 238.802C87.6601 238.906 87.9472 238.951 88.2341 238.935C88.5211 238.918 88.8011 238.84 89.0554 238.706C89.3096 238.572 89.5322 238.385 89.708 238.158C90.1287 237.516 90.3314 236.756 90.286 235.99C90.3241 235.335 90.1332 234.688 89.746 234.158C89.5705 233.941 89.3469 233.769 89.0929 233.654C88.8389 233.539 88.5616 233.485 88.283 233.496C87.9868 233.485 87.692 233.54 87.42 233.658C87.148 233.776 86.9057 233.953 86.711 234.176C86.3065 234.65 86.0942 235.258 86.116 235.881Z" fill="black"/>
<path d="M98.2359 239.717H97.1149V238.623H97.0879C96.8835 239.014 96.5731 239.339 96.1923 239.562C95.8115 239.784 95.3757 239.895 94.9349 239.881C94.3378 239.916 93.7506 239.717 93.2979 239.326C93.1001 239.137 92.945 238.909 92.8429 238.656C92.7408 238.402 92.6941 238.13 92.7059 237.857C92.7059 236.549 93.4762 235.788 95.0169 235.574L97.1169 235.274C97.1169 234.085 96.6362 233.49 95.6749 233.491C94.8343 233.49 94.0224 233.796 93.3919 234.352V233.204C94.1045 232.759 94.9311 232.531 95.7709 232.548C97.4162 232.548 98.2386 233.418 98.2379 235.159L98.2359 239.717ZM97.1149 236.176L95.4269 236.408C95.0103 236.445 94.6078 236.577 94.2509 236.795C94.1078 236.912 93.9963 237.063 93.9264 237.234C93.8566 237.405 93.8306 237.591 93.8509 237.775C93.8464 237.933 93.8769 238.09 93.9402 238.235C94.0034 238.38 94.0979 238.509 94.2169 238.613C94.4898 238.839 94.8371 238.955 95.1909 238.938C95.4489 238.945 95.7053 238.897 95.9429 238.796C96.1805 238.695 96.3936 238.544 96.5679 238.354C96.9359 237.95 97.1312 237.419 97.1119 236.873L97.1149 236.176Z" fill="black"/>
<path d="M104 233.852C103.75 233.685 103.452 233.605 103.152 233.625C102.911 233.628 102.674 233.691 102.465 233.81C102.255 233.928 102.078 234.098 101.952 234.303C101.602 234.853 101.434 235.498 101.47 236.148V239.717H100.349V232.717H101.47V234.158H101.497C101.626 233.713 101.88 233.313 102.229 233.008C102.532 232.74 102.924 232.593 103.329 232.594C103.556 232.584 103.783 232.616 103.999 232.689L104 233.852Z" fill="black"/>
<path d="M111.026 239.717H109.454L106.364 236.354H106.337V239.717H105.216V229.354H106.337V235.922H106.364L109.304 232.722H110.773L107.526 236.099L111.026 239.717Z" fill="black"/>
<path d="M122.832 239.307C121.989 239.716 121.06 239.913 120.125 239.881C119.503 239.909 118.882 239.802 118.304 239.57C117.726 239.337 117.205 238.984 116.775 238.533C115.91 237.565 115.459 236.297 115.518 235C115.487 234.304 115.597 233.609 115.84 232.957C116.083 232.304 116.454 231.706 116.933 231.2C117.398 230.723 117.957 230.348 118.574 230.098C119.192 229.849 119.855 229.73 120.521 229.751C121.31 229.725 122.097 229.861 122.832 230.151V231.376C122.121 230.982 121.32 230.779 120.508 230.788C119.997 230.769 119.489 230.86 119.016 231.054C118.544 231.248 118.119 231.542 117.77 231.915C117.041 232.746 116.665 233.828 116.721 234.931C116.668 235.973 117.019 236.995 117.701 237.784C118.028 238.136 118.427 238.413 118.872 238.597C119.316 238.78 119.795 238.866 120.275 238.847C121.172 238.87 122.057 238.643 122.832 238.19V239.307Z" fill="black"/>
<path d="M127.6 239.881C127.141 239.902 126.683 239.825 126.255 239.656C125.828 239.487 125.441 239.229 125.121 238.9C124.483 238.189 124.15 237.255 124.195 236.3C124.166 235.8 124.236 235.298 124.401 234.825C124.567 234.352 124.824 233.917 125.159 233.544C125.501 233.208 125.909 232.946 126.358 232.776C126.806 232.605 127.285 232.53 127.764 232.554C128.217 232.528 128.669 232.601 129.091 232.767C129.513 232.933 129.894 233.189 130.207 233.517C130.83 234.263 131.144 235.219 131.086 236.19C131.133 237.174 130.793 238.137 130.139 238.874C129.812 239.212 129.416 239.477 128.978 239.651C128.54 239.824 128.07 239.903 127.6 239.881ZM127.682 233.496C127.36 233.481 127.039 233.539 126.743 233.667C126.447 233.794 126.184 233.986 125.973 234.23C125.525 234.808 125.302 235.528 125.344 236.258C125.304 236.968 125.531 237.667 125.979 238.219C126.192 238.457 126.455 238.644 126.749 238.769C127.042 238.893 127.36 238.951 127.679 238.938C127.993 238.957 128.307 238.903 128.597 238.78C128.887 238.658 129.145 238.47 129.35 238.232C129.773 237.654 129.98 236.946 129.934 236.232C129.981 235.51 129.774 234.795 129.35 234.209C129.146 233.971 128.89 233.783 128.601 233.66C128.312 233.537 127.999 233.482 127.686 233.5L127.682 233.496Z" fill="black"/>
<path d="M136.531 233.852C136.281 233.685 135.983 233.605 135.684 233.625C135.443 233.628 135.207 233.692 134.997 233.81C134.787 233.929 134.611 234.098 134.484 234.303C134.135 234.853 133.966 235.498 134.002 236.148V239.717H132.881V232.717H134V234.158H134.027C134.156 233.713 134.41 233.314 134.759 233.008C135.063 232.74 135.454 232.593 135.859 232.594C136.086 232.584 136.313 232.616 136.529 232.689L136.531 233.852Z" fill="black"/>
<path d="M143.374 236.5H138.432C138.408 237.158 138.633 237.801 139.061 238.3C139.277 238.517 139.535 238.686 139.82 238.795C140.105 238.905 140.41 238.953 140.715 238.937C141.508 238.935 142.276 238.66 142.889 238.157V239.21C142.167 239.687 141.312 239.921 140.448 239.88C140.014 239.902 139.579 239.828 139.177 239.663C138.774 239.499 138.412 239.247 138.117 238.927C137.512 238.169 137.21 237.212 137.27 236.243C137.229 235.27 137.56 234.318 138.195 233.581C138.48 233.251 138.833 232.988 139.231 232.81C139.628 232.633 140.06 232.544 140.495 232.552C140.894 232.529 141.292 232.597 141.661 232.751C142.029 232.905 142.358 233.14 142.621 233.44C143.16 234.146 143.427 235.021 143.373 235.907L143.374 236.5ZM142.226 235.551C142.255 235.007 142.089 234.472 141.758 234.039C141.599 233.858 141.401 233.716 141.179 233.623C140.957 233.53 140.717 233.488 140.476 233.5C140.225 233.496 139.975 233.544 139.743 233.642C139.512 233.739 139.302 233.884 139.129 234.066C138.747 234.474 138.507 234.995 138.445 235.551H142.226Z" fill="black"/>
<path d="M385.325 214.509C375.565 214.521 366.196 218.341 359.21 225.156C352.224 231.972 348.173 241.244 347.92 251H422.728C422.475 241.244 418.425 231.972 411.439 225.156C404.454 218.341 395.084 214.521 385.325 214.509Z" fill="#FFD590"/>
<path d="M473.621 251C473.429 227.708 464.042 205.436 447.504 189.034C430.966 172.631 408.617 163.428 385.324 163.428C362.032 163.428 339.683 172.631 323.145 189.034C306.607 205.436 297.219 227.708 297.027 251H341.37C341.609 239.501 346.345 228.553 354.562 220.505C362.779 212.457 373.823 207.95 385.325 207.95C396.827 207.95 407.87 212.457 416.087 220.505C424.304 228.553 429.04 239.501 429.279 251H473.621Z" fill="#F7B548"/>
<path d="M524.5 251C524 174.681 461.762 112.747 385.326 112.747C308.89 112.747 246.653 174.681 246.146 251H290.477C290.64 225.951 300.705 201.983 318.475 184.328C336.245 166.673 360.278 156.764 385.327 156.764C410.377 156.764 434.41 166.673 452.18 184.328C469.95 201.983 480.015 225.951 480.177 251H524.5Z" fill="#FFD590"/>
<path d="M287.614 90.6521C273.297 99.3472 260.196 109.902 248.654 122.041H248.646L248.56 122.134C248.416 122.285 248.276 122.44 248.132 122.592C247.409 123.366 246.653 124.183 245.884 125.025C245.653 125.278 245.416 125.525 245.184 125.779C243.2 127.968 241.227 130.221 239.799 132.016C239.79 132.026 239.79 132.041 239.782 132.051C212.119 165.533 196.917 207.569 196.766 251H239.6C239.776 218.571 250.817 187.137 270.958 161.719C273.393 158.719 275.507 156.179 278.458 152.974C287.189 143.554 297.117 135.321 307.99 128.483L287.614 90.6521Z" fill="#EE8F94"/>
<path d="M478.672 88.082C462.153 78.6432 444.293 71.7758 425.706 67.716V67.73C423.651 67.268 421.769 66.874 419.287 66.43V66.422C408.081 64.3848 396.715 63.3614 385.326 63.364C353.244 63.3171 321.687 71.4973 293.668 87.123L314 124.894C335.761 112.609 360.332 106.167 385.322 106.194C392.366 106.195 399.4 106.705 406.37 107.719L406.384 107.725C409.05 108.142 413.402 108.781 421.548 110.781C421.585 110.79 421.622 110.79 421.659 110.796C434.514 114.112 446.852 119.18 458.327 125.856L478.672 88.082Z" fill="#A7CBF6"/>
<path d="M484.694 91.6641L464.306 129.527C484.642 142.641 501.392 160.613 513.045 181.82C524.698 203.027 530.887 226.803 531.053 251H573.882C573.739 219.059 565.48 187.678 549.878 159.806C534.277 131.934 511.846 108.486 484.694 91.6641Z" fill="#958FE7"/>
<path d="M197.67 139.283L250.551 159.367" stroke="#505050" stroke-miterlimit="10"/>
<path d="M321.051 64.3669L336.551 95.8669" stroke="#505050" stroke-miterlimit="10"/>
<path d="M534.051 65.8669L497.051 124.034" stroke="#505050" stroke-miterlimit="10"/>
<path d="M153.884 234.964H385.551" stroke="#505050" stroke-miterlimit="10"/>
<path d="M153.884 208.964H337.389" stroke="#505050" stroke-miterlimit="10"/>
<path d="M153.884 182.964H294.681" stroke="#505050" stroke-miterlimit="10"/>
</svg>
