<svg xmlns="http://www.w3.org/2000/svg" viewBox="0 0 300 300"><title>swimlane-machine-learning-lightbulb-hand</title><path d="M125.28,51.657a19.715,19.715,0,1,1-19.716-19.714h0A19.715,19.715,0,0,1,125.28,51.657" fill="#edac28"/><path d="M108.084,83.6A10.173,10.173,0,1,0,97.91,93.778,10.173,10.173,0,0,0,108.084,83.6v0" fill="#ed8422"/><path d="M173.8,33.287A23.936,23.936,0,1,1,149.866,9.352,23.936,23.936,0,0,1,173.8,33.287" fill="#fec94e"/><path d="M124.276,21.579a8.685,8.685,0,1,1-8.685-8.684,8.684,8.684,0,0,1,8.685,8.684v0" fill="#fda84c"/><path d="M162.781,83.6a23.627,23.627,0,1,1-23.628-23.625h0A23.626,23.626,0,0,1,162.781,83.6h0" fill="#fda84c"/><path d="M187.11,64.015a12.358,12.358,0,1,0-12.357,12.362A12.357,12.357,0,0,0,187.11,64.015" fill="#ed8422"/><path d="M195.493,94.605a14.547,14.547,0,1,1,0-.005v0" fill="#fec94e"/><path d="M199.238,38.974A10.926,10.926,0,1,0,188.312,49.9a10.925,10.925,0,0,0,10.926-10.926h0" fill="#fec94e"/><path d="M206.193,71.117a8.943,8.943,0,1,0-8.942,8.943h0a8.943,8.943,0,0,0,8.941-8.943" fill="#fda84c"/><path d="M177.378,120.383a13.156,13.156,0,1,1-13.156-13.156,13.156,13.156,0,0,1,13.156,13.156h0" fill="#fda84c"/><path d="M184.723,20.705a4.986,4.986,0,1,0-4.987,4.985h0a4.985,4.985,0,0,0,4.986-4.984h0" fill="#fda84c"/><path d="M199.238,54.889a3.745,3.745,0,1,0-3.745,3.747,3.745,3.745,0,0,0,3.745-3.747h0" fill="#fda84c"/><path d="M146.465,127.036A14.968,14.968,0,1,1,131.5,112.069h0a14.968,14.968,0,0,1,14.968,14.966h0" fill="#fec94e"/><path d="M116.53,105.538a7.141,7.141,0,1,1-7.146-7.135h.011a7.134,7.134,0,0,1,7.135,7.135h0" fill="#fda84c"/><path d="M164.877,145.065a10.355,10.355,0,1,1-10.356-10.353h0a10.354,10.354,0,0,1,10.355,10.352h0" fill="#ed8422"/><path d="M132.77,12.3a3.745,3.745,0,1,0-3.745,3.745h0A3.745,3.745,0,0,0,132.77,12.3" fill="#ed8422"/><path d="M170.325,119.574a2.1,2.1,0,0,0-.892.2c0-.065.006-.132.006-.2a4.152,4.152,0,0,0-8.287-.37,2.833,2.833,0,1,0-4.548,3.38A3.135,3.135,0,0,0,158.877,124h11.448a2.334,2.334,0,0,0,2.029-2.4,2.077,2.077,0,0,0-2.029-2.028" fill="#fff"/><rect x="93.951" y="87.908" width="2.493" height="2.587" fill="#fff"/><rect x="97.498" y="85.321" width="2.493" height="5.172" fill="#fff"/><rect x="101.094" y="82" width="2.493" height="8.493" fill="#fff"/><polygon points="95.944 75.876 95.605 77.558 97.67 77.972 90.509 82.361 91.405 83.824 98.553 79.442 97.958 81.591 99.609 82.05 101.038 76.9 95.944 75.876" fill="#fff"/><path d="M137.366,31.131a1.705,1.705,0,0,0,1.479-.86h3.04v2.254a1.718,1.718,0,1,0,1.714,0V28.556h-4.754a1.715,1.715,0,1,0-1.479,2.575" fill="#fff"/><path d="M158.849,25.364a1.717,1.717,0,0,0-.97,3.134v4.648h-4.392a1.719,1.719,0,1,0,0,1.716h5.251L159.6,34V28.623a1.714,1.714,0,0,0-.746-3.259" fill="#fff"/><path d="M163.225,30.807V23.874l-2.038-2.039h-4.336a1.72,1.72,0,1,0,0,1.716h3.626l1.034,1.034v6.222a1.718,1.718,0,1,0,1.714,0" fill="#fff"/><path d="M154.73,28.272a1.714,1.714,0,0,0-1.481.86h-1.683v-2.8a1.717,1.717,0,1,0-1.715,0V29.99l.857.857h2.541a1.715,1.715,0,1,0,1.481-2.575" fill="#fff"/><path d="M143.586,21.969a1.712,1.712,0,0,0,1.486-.862h4.162a1.716,1.716,0,1,0,0-1.716h-4.163a1.715,1.715,0,1,0-1.479,2.576" fill="#fff"/><path d="M140.514,26.435a1.709,1.709,0,0,0,1.48-.859h4.5v6.949a1.719,1.719,0,1,0,1.716,0V23.864h-6.221a1.714,1.714,0,1,0-1.48,2.575" fill="#fff"/><path d="M149.309,36.476a1.714,1.714,0,0,0-1.48.86h-6.194l-2.583-2.585a1.706,1.706,0,0,0,.031-.31,1.746,1.746,0,1,0-1.152,1.614l3,3h6.905a1.714,1.714,0,1,0,1.479-2.575" fill="#fff"/><path d="M155.86,38.193a1.718,1.718,0,1,0-2.575,1.481v5.17a1.716,1.716,0,1,0,1.716,0v-5.17a1.714,1.714,0,0,0,.859-1.481" fill="#fff"/><path d="M160.458,38.193a1.718,1.718,0,1,0-2.574,1.481v2.252a1.717,1.717,0,1,0,1.715,0V39.674a1.711,1.711,0,0,0,.859-1.481" fill="#fff"/><path d="M138.829,90.076c1.164,0,1.315,2.48,3.993,2.48,9.077,0,10.168-4.365,10.515-5.7.191-.734.307-1.244.372-1.555a.433.433,0,0,0-.292-.5,48.808,48.808,0,0,0-14.588-2.108h-.024a48.819,48.819,0,0,0-14.589,2.108.435.435,0,0,0-.292.5c.066.311.182.821.372,1.555.347,1.338,1.438,5.7,10.514,5.7,2.676,0,2.831-2.48,4-2.48Z" fill="#fff"/><path d="M123.851,83.29V79.476a.352.352,0,0,1,.2-.319c.958-.475,5.463-2.427,14.759-2.427,9.327,0,13.863,2.078,14.812,2.573a.353.353,0,0,1,.19.316V83.29a.253.253,0,0,1-.323.246,51.139,51.139,0,0,0-29.311,0,.255.255,0,0,1-.314-.175.282.282,0,0,1-.009-.071" fill="#fff"/><path d="M122.463,83.411V80.553a.263.263,0,0,0-.413-.223,6.249,6.249,0,0,0-1.354,1.115v2.837a.265.265,0,0,0,.265.265.259.259,0,0,0,.1-.02c.236-.1.558-.223.869-.345a.825.825,0,0,0,.533-.772" fill="#fff"/><path d="M122.793,85.64l.428,1.832a.089.089,0,0,1-.059.111.08.08,0,0,1-.053,0A4.221,4.221,0,0,1,120.741,86a.094.094,0,0,1,.039-.126l.006,0c.435-.182,1.074-.393,1.489-.526a.405.405,0,0,1,.509.263l.009.032" fill="#fff"/><path d="M155.131,83.411V80.553a.263.263,0,0,1,.413-.223,6.249,6.249,0,0,1,1.354,1.115v2.837a.265.265,0,0,1-.366.245c-.235-.1-.557-.223-.868-.345a.825.825,0,0,1-.533-.772" fill="#fff"/><path d="M154.8,85.64l-.427,1.832a.088.088,0,0,0,.059.111.077.077,0,0,0,.052,0A4.22,4.22,0,0,0,156.851,86a.092.092,0,0,0-.036-.125l-.008,0c-.435-.182-1.073-.393-1.489-.526a.406.406,0,0,0-.51.266l-.008.029" fill="#fff"/><path d="M189.085,91.763a3.147,3.147,0,0,0-2.364,1.079l-3.706-1.783.841-1.281a1.705,1.705,0,0,0,.214.022,1.911,1.911,0,1,0-1.8-2.53l-4.377.6a1.685,1.685,0,1,0-2.22,2.469L175.52,95.2a4.179,4.179,0,1,0,4.928,4.107c0-.056-.015-.111-.017-.163l6.123-2.341a3.162,3.162,0,1,0,2.531-5.05m-11.056,3.772a4.21,4.21,0,0,0-.795-.278l.154-4.864c.043-.023.087-.043.127-.069l2.992,1.436Zm1.491-6.152,2.8-.383-.863,1.313Zm.485,8.094a4.225,4.225,0,0,0-.6-.9l2.666-4.064,3.9,1.877a3.194,3.194,0,0,0-.055.543c0,.1.02.186.028.28Z" fill="#fff"/><path d="M134.48,128.837l-2.006,3.344-2.584-5.351-1.586,2.636h-3.78a29.6,29.6,0,0,0,6.976,6.764s5.072-3.435,7.367-7.39Z" fill="#fff"/><path d="M190.7,35.192l-2.39-1.593-2.453,1.593h-1.925v2.694a6.843,6.843,0,0,0,2.707,5.319l1.672,1.338,1.672-1.338a6.839,6.839,0,0,0,2.707-5.319V35.192Z" fill="#fff"/><path d="M113.084,45.848c-3.4,0-5.9,2.324-8.242,4.82-2.33-2.489-4.809-4.82-8.18-4.82a6.395,6.395,0,0,0,0,12.788c2.638,0,4.731-1.428,6.633-3.242l-1.4-1.621c-1.621,1.561-3.285,2.72-5.229,2.72a4.252,4.252,0,0,1,0-8.5c2.542,0,4.6,1.982,6.72,4.253l1.46,1.575c2.342,2.495,4.835,4.817,8.242,4.817a6.395,6.395,0,0,0,.169-12.788h-.169m0,10.645c-2.583,0-4.659-1.975-6.782-4.249,2.124-2.275,4.2-4.253,6.782-4.253a4.252,4.252,0,0,1,.138,8.5h-.138" fill="#fff"/><path d="M181.81,64.981V63.052l-2.058-.335a5.1,5.1,0,0,0-.558-1.312l1.234-1.7-1.365-1.365-1.717,1.244a5.142,5.142,0,0,0-1.29-.527l-.335-2.1h-1.93l-.334,2.1a5.1,5.1,0,0,0-1.289.527l-1.719-1.244L169.085,59.7l1.233,1.7a5.1,5.1,0,0,0-.557,1.312l-2.059.335v1.929l2.029.324a5.157,5.157,0,0,0,.551,1.368l-1.2,1.651,1.356,1.364,1.636-1.183a5.167,5.167,0,0,0,1.391.582l.317,1.985h1.93l.319-1.985a5.161,5.161,0,0,0,1.39-.582l1.635,1.183,1.364-1.364-1.2-1.647a5.112,5.112,0,0,0,.557-1.368Zm-7.057,1.857a2.767,2.767,0,1,1,2.767-2.767h0a2.767,2.767,0,0,1-2.767,2.767" fill="#fff"/><path d="M119.333,150v14.668A6.332,6.332,0,0,0,125.666,171h11.667v3a3,3,0,0,0,3,3h2v2h4v-2h.708a3.915,3.915,0,0,0,4.292-4.116h0V171h10.779a9.221,9.221,0,0,0,9.221-9.222V150Z" fill="#09538f"/><path d="M128.333,153v2h16v16h-7v2H151v-2h11.18a8.82,8.82,0,0,0,8.82-8.82h0V153Z" fill="#021760"/><path d="M193.5,71.117a3.752,3.752,0,0,1,2.322-3.466l-.926,1.338,1.411.973,2.46-3.568-3.234-3.01-1.168,1.255,1.327,1.236a5.463,5.463,0,0,0-1.309,9.891l.9-1.458a3.732,3.732,0,0,1-1.784-3.2" fill="#fff"/><path d="M202.719,71.117a5.463,5.463,0,0,0-2.424-4.543L199.34,68a3.753,3.753,0,0,1-.641,6.578l.876-1.256-1.408-.981-2.431,3.485,3.111,2.936,1.177-1.248L198.8,76.356a5.474,5.474,0,0,0,3.921-5.24" fill="#fff"/><path d="M127.568,128.175l2.446-4.053,2.582,5.38,1.188-1.784h5.632a6.232,6.232,0,0,0,.558-2.41,4.277,4.277,0,0,0-4.4-4.137,4.414,4.414,0,0,0-4.07,2.557,4.414,4.414,0,0,0-4.07-2.557,4.277,4.277,0,0,0-4.4,4.137,6.583,6.583,0,0,0,.763,2.865Z" fill="#fff"/><path d="M149.44,278.847c1.193-3.918-1.449-5.11-2.3-5.365s-6.473,8.686-6.473,8.686l6.388-1.533Z" fill="#505050"/><path d="M177.505,218.287l-5.074-14.32-6-2.946-6.417-4.558a1.079,1.079,0,0,0-1.5.253,1.15,1.15,0,0,0-.092.155,6.417,6.417,0,0,0-.274,4.919c1.776,1.144,5.463,3.279,8.155,3.218-.6,2.4.149,5.55.87,7.753l-10.068-5.455-10.735-4.025a1.386,1.386,0,0,0-1.786.81,1.288,1.288,0,0,0-.062.218l-.14.692a7.01,7.01,0,0,0,3.879,7.711l12.933,7.024-1.622,13.779a16.975,16.975,0,0,0-6.076,6.052,2.305,2.305,0,0,1-3.14.83l-7.113-3.963a6.559,6.559,0,0,1-3.218-6.619l1.623-11.27,1.654-4.974a4.273,4.273,0,0,0-2.706-5.4,3.527,3.527,0,0,0-4.086,1.449l-4.613,7.223-4.258,18.737-3.233,5.686a43.862,43.862,0,0,0-5.341,27.561l1.422,10.526L140.247,295.7l4.087-16.352,8.645-16.118a41.763,41.763,0,0,1,3.635-5.635c4.062-5.3,12.3-15.668,15.064-19.148.6-.761,2.787-2.264,2.829-3.233Z" fill="#f6caa7"/><path d="M144.3,202.343h0a2.94,2.94,0,0,0,1.774,3.052,7.509,7.509,0,0,0,6.265.123c-3.152-1.363-8.039-3.175-8.039-3.175" fill="#fff"/><path d="M158.649,195.124,158.2,196.2a1.732,1.732,0,0,0,.434,1.942,6.738,6.738,0,0,0,6.386,1.843c-2.849-1.916-6.377-4.859-6.377-4.859" fill="#fff"/><path d="M146.212,186.718a2.027,2.027,0,1,1-2.028-2.026h0a2.026,2.026,0,0,1,2.027,2.025h0" fill="#09538f"/><path d="M146.212,192.467a2.027,2.027,0,1,1-2.028-2.025h0a2.025,2.025,0,0,1,2.027,2.024h0" fill="#09538f"/><path d="M146.212,198.217a2.027,2.027,0,1,1-2.028-2.026h0a2.027,2.027,0,0,1,2.027,2.025h0" fill="#09538f"/><path d="M146.212,203.967a2.027,2.027,0,1,1-2.028-2.026h0a2.026,2.026,0,0,1,2.027,2.025h0" fill="#09538f"/><path d="M144.186,213.44a2,2,0,0,0-.914.223c-.259.8-.6,1.819-.892,2.695a2.023,2.023,0,1,0,1.809-2.922" fill="#09538f"/><path d="M144.186,207.691a2.017,2.017,0,0,0-1.941,1.476,3.755,3.755,0,0,1,1.264,2.452,2.022,2.022,0,1,0,1.356-3.81,1.992,1.992,0,0,0-.679-.117" fill="#09538f"/><path d="M139.245,207.188a5.873,5.873,0,0,1,3.848,1.431c-.147.411-1.185,4.3-1.317,4.648A2.593,2.593,0,1,1,136.9,211.5c.009-.024.018-.048.028-.072Z" fill="#fff"/><path d="M158.149,201.79a6.391,6.391,0,0,0,1.885,2.788l4.4,3.754.608,3.275,2.134,1.158a18.6,18.6,0,0,1,.112-8.512,21.515,21.515,0,0,1-9.131-2.459" fill="#deb695"/><path d="M178.46,219.687l-1.236-11.595-9.019-10.087-.68.849a5.461,5.461,0,0,0-1.04,2.165l-6.416-4.558,11.905,8.458,4.429,12.945.012,1.3a5.608,5.608,0,0,1-4.906-.209l1.208,16.826v.014a1.977,1.977,0,0,1-1.06,1.616l-9.845,5.419a62.884,62.884,0,0,0-29.1,34.483l-.766,2.206-1.362,5.792,11.973,1.331,1.824-7.293,8.645-16.118a41.394,41.394,0,0,1,3.634-5.634c3.078-4.014,8.55-10.942,12.226-15.576l5.457-4.093a5.51,5.51,0,0,0,2.2-4.46l-.044-4.794Z" fill="#deb695"/><path d="M171.185,201.32l-3.388-3.872-.258.436a1.858,1.858,0,0,0,.363,2.329,3.871,3.871,0,0,0,3.283,1.107" fill="#fff"/><path d="M105.837,279.733s10.39-5.62,18.054-3.407,19.929,5.281,25.551,2.045c-2.9,9.538-6.3,21.629-6.3,21.629H104.815Z" fill="#939393"/><rect x="112.736" y="282.675" width="7.665" height="3.066" transform="translate(-190.536 277.153) rotate(-66.383)" fill="#b2b2b2"/></svg>