<svg width="636" height="300" viewBox="0 0 636 300" fill="none" xmlns="http://www.w3.org/2000/svg">
<path d="M47.5402 254.95H588.49C590 254.95 591.42 255.94 591.71 257.41C592.08 259.3 590.44 260.95 588.38 260.95H47.7802C46.2702 260.95 44.8502 259.96 44.5602 258.49C44.1902 256.6 45.8302 254.95 47.8902 254.95" fill="#C8C8C8"/>
<path d="M550.109 49.6104H261.109V217.79H550.109V49.6104Z" fill="#E6E6E6"/>
<path d="M549.609 49.6104H259.109V71.9404H549.609V49.6104Z" fill="#8FC3EC"/>
<path d="M550.271 69.1104H440.201L550.271 176.79V69.1104Z" fill="url(#paint0_linear)"/>
<path d="M421.07 50.4004L443.09 71.9504H548.11V50.4004H421.07Z" fill="#B5D5EA"/>
<path d="M105.729 149.23H54.8594V250.29H105.739V149.23H105.729Z" fill="#E6E6E6"/>
<path d="M103.2 158.13H77.2598L104.84 183.37V159.77C104.83 158.86 104.1 158.13 103.2 158.13Z" fill="url(#paint1_linear)"/>
<path d="M407.77 44.3003H403.07V48.6003H407.77V44.3003Z" fill="#737373"/>
<path d="M105.55 158.95V151.44C105.55 150.22 104.53 149.23 103.27 149.23H56.9499C55.6899 149.23 54.6699 150.22 54.6699 151.44V158.95H105.55Z" fill="#8FC3EC"/>
<path d="M105.83 158.95V152.3C105.83 149.68 102.78 149.24 102.62 149.24H67.5195L78.1395 158.96H105.83V158.95Z" fill="#B5D5EA"/>
<path d="M87.5302 198.82L90.3002 196.26C90.5502 196.03 90.4602 195.62 90.1302 195.52C87.6802 194.76 84.8602 195.45 83.0502 197.66C81.5902 199.44 81.2202 201.87 81.9502 203.99L65.7902 218.94C64.5902 220.05 64.5102 221.93 65.6302 223.14C66.7502 224.35 68.6202 224.42 69.8302 223.3L86.2402 208.13C88.4202 208.8 90.8902 208.33 92.6802 206.67C94.2702 205.2 94.9702 203.12 94.7602 201.12C94.7302 200.8 94.3302 200.65 94.0902 200.87L91.5802 203.19C91.2202 203.53 90.6502 203.5 90.3102 203.14L87.4902 200.1C87.1402 199.73 87.1702 199.16 87.5302 198.82ZM68.8902 222.21C68.2402 222.81 67.2302 222.77 66.6402 222.12C66.0502 221.47 66.0802 220.46 66.7302 219.87C67.3802 219.27 68.3902 219.31 68.9802 219.96C69.5702 220.6 69.5302 221.61 68.8902 222.21Z" fill="#3097D8"/>
<path d="M370.109 94.79H293.109V204.79H370.109V94.79Z" fill="#D2D2D2"/>
<path d="M515.11 81.29H344.67V189.22H515.11V81.29Z" stroke="#939393" stroke-width="1.5" stroke-miterlimit="10" stroke-linecap="round" stroke-linejoin="round" stroke-dasharray="3.26 3.26"/>
<path d="M373.91 130.07H362.5V146.67H373.91V130.07Z" fill="#FFB900"/>
<path d="M390.51 112.43H379.1V146.67H390.51V112.43Z" fill="#FFB900"/>
<path d="M407.109 96.8701H395.699V146.67H407.109V96.8701Z" fill="#FFB900"/>
<path d="M401.319 126.97C400.539 126.97 399.779 127.26 399.199 127.78L387.819 120.02C387.949 119.67 388.019 119.3 388.019 118.93C388.019 118.07 387.679 117.24 387.069 116.63C386.459 116.02 385.629 115.68 384.769 115.68C383.909 115.68 383.079 116.02 382.469 116.63C381.859 117.24 381.519 118.07 381.519 118.93C381.519 119 381.539 119.07 381.539 119.13L371.279 122.52C370.849 121.87 370.209 121.39 369.459 121.17C368.709 120.95 367.909 121.02 367.199 121.34C366.489 121.67 365.929 122.24 365.609 122.95C365.289 123.66 365.229 124.46 365.459 125.21C365.679 125.96 366.169 126.6 366.819 127.02C367.479 127.44 368.259 127.61 369.029 127.49C369.799 127.38 370.509 126.99 371.009 126.4C371.519 125.81 371.799 125.06 371.799 124.28C371.799 124.21 371.779 124.15 371.779 124.08L382.039 120.69C382.289 121.08 382.619 121.42 383.009 121.67C383.399 121.92 383.839 122.09 384.299 122.15C384.759 122.21 385.229 122.18 385.679 122.04C386.129 121.91 386.539 121.68 386.889 121.37L398.269 129.13C398.039 129.78 398.019 130.48 398.219 131.14C398.419 131.8 398.819 132.38 399.369 132.79C399.919 133.21 400.589 133.43 401.279 133.45C401.969 133.46 402.639 133.25 403.209 132.85C403.769 132.45 404.189 131.88 404.409 131.23C404.629 130.58 404.629 129.87 404.419 129.21C404.209 128.55 403.799 127.98 403.239 127.58C402.679 127.18 401.999 126.97 401.319 126.97Z" fill="#E26C41"/>
<path d="M476.55 188.96L470.3 183.2C469.81 182.66 469.61 181.97 469.84 181.42C470.67 179.35 471.22 177.42 471.54 175.32C471.66 174.69 472.09 174.11 472.69 174.02L480.7 171.93C481.5 171.81 481.99 170.92 481.88 170.12L481.02 164.09C480.91 163.29 480.1 162.68 479.38 162.69L471.31 162.94C470.59 162.94 470.02 162.51 469.73 161.94C468.96 160.1 467.98 158.3 466.72 156.63C466.35 156.17 466.35 155.45 466.66 154.79L471.06 147.48C471.46 146.7 471.35 145.9 470.66 145.38L465.73 141.69C465.04 141.17 464.12 141.21 463.61 141.9L458.01 147.95C457.46 148.44 456.77 148.64 456.11 148.33C454.04 147.5 451.8 146.91 449.62 146.71C448.99 146.6 448.41 146.17 448.21 145.48L446.29 137.75C446.18 136.95 445.29 136.46 444.48 136.58L438.45 137.46C437.65 137.58 437.04 138.38 437.04 139.1L437.26 147.18C437.26 147.9 436.91 148.36 436.34 148.65C434.42 149.55 432.43 150.76 430.8 152.23C430.25 152.72 429.54 152.72 428.96 152.29L421.9 148.09C421.13 147.69 420.32 147.81 419.8 148.5L416.09 153.45C415.57 154.14 415.6 155.06 416.29 155.58L422.69 161.63C423.15 161.97 423.35 162.66 423.15 163.41C422.66 165.02 422.17 166.63 422 168.3C421.88 168.93 421.45 169.51 420.85 169.6L412.84 171.69C412.04 171.81 411.55 172.7 411.66 173.5L412.52 179.53C412.63 180.33 413.44 180.94 414.16 180.93L422.31 180.56C423.03 180.56 423.6 180.99 423.89 181.56C424.66 183.4 425.61 185 426.76 186.58C427.13 187.04 427.25 187.84 426.82 188.42L422.45 195.93C422.05 196.71 422.16 197.51 422.85 198.03L427.78 201.72C428.47 202.24 429.39 202.2 429.9 201.51L435.68 195.23C436.11 194.65 436.83 194.65 437.37 194.88C439.44 195.71 441.56 196.22 443.54 196.44C444.17 196.55 444.75 196.98 444.83 197.59L446.89 205.6C447 206.4 447.89 206.89 448.7 206.77L454.73 205.89C455.53 205.77 456.14 204.97 456.14 204.25L455.86 195.77C455.86 195.05 456.29 194.48 456.87 194.19C458.31 193.47 459.63 192.66 460.95 191.85C461.41 191.47 462.13 191.47 462.79 191.79L470.62 196.39C471.39 196.79 472.2 196.67 472.72 195.98L476.43 191.03C477.27 190.39 477.24 189.47 476.55 188.96ZM438.86 181.67C433.19 177.43 431.91 169.25 436.24 163.47C440.48 157.8 448.66 156.52 454.44 160.85C460.23 165.18 461.39 173.27 457.06 179.05C452.62 184.75 444.53 185.91 438.86 181.67Z" fill="#3097D8"/>
<path d="M502.619 144.96L499.559 142.14C499.329 141.97 499.269 141.57 499.329 141.26C499.699 140.29 500.069 139.32 500.119 138.3C500.179 137.99 500.349 137.76 500.749 137.7L504.679 136.74C505.079 136.68 505.329 136.34 505.279 135.94L504.839 132.95C504.779 132.55 504.439 132.29 504.039 132.35L500.079 132.4C499.769 132.34 499.449 132.29 499.389 131.89C499.049 130.92 498.529 130.18 497.899 129.35C497.759 129.07 497.699 128.67 497.869 128.44L499.999 124.88C500.259 124.54 500.079 124.05 499.739 123.8L497.339 122C496.999 121.74 496.599 121.8 496.229 122.06L493.499 124.99C493.329 125.22 492.929 125.27 492.619 125.22C491.539 124.76 490.479 124.51 489.449 124.45C489.139 124.39 488.909 124.22 488.759 123.94L487.809 120.21C487.749 119.81 487.409 119.55 487.009 119.61L484.019 120.03C483.619 120.09 483.369 120.43 483.419 120.83L483.599 124.87C483.539 125.18 483.489 125.5 483.089 125.55C482.039 126 481.209 126.63 480.389 127.26C480.109 127.4 479.709 127.46 479.479 127.29L476.019 125.24C475.679 124.98 475.189 125.15 474.939 125.5L473.149 127.89C472.889 128.23 472.949 128.63 473.209 129L476.379 131.91C476.609 132.08 476.669 132.48 476.609 132.79C476.329 133.64 476.129 134.38 476.049 135.21C475.989 135.52 475.819 135.75 475.419 135.81L471.489 136.77C471.089 136.83 470.839 137.17 470.889 137.57L471.329 140.56C471.389 140.96 471.729 141.22 472.129 141.16L476.179 140.99C476.489 141.05 476.809 141.1 476.869 141.5C477.299 142.35 477.729 143.21 478.249 143.95C478.389 144.23 478.539 144.52 478.279 144.86L476.069 148.53C475.809 148.87 475.989 149.36 476.329 149.61L478.729 151.41C479.069 151.67 479.469 151.61 479.839 151.35L482.649 148.31C482.819 148.08 483.219 148.03 483.529 148.08C484.499 148.45 485.559 148.71 486.699 148.85C487.009 148.91 487.239 149.08 487.299 149.48L488.279 153.41C488.339 153.81 488.679 154.07 489.079 154.01L492.069 153.59C492.469 153.53 492.719 153.19 492.669 152.79L492.569 148.63C492.629 148.32 492.679 148 493.079 147.95C493.849 147.64 494.499 147.24 495.039 146.76C495.319 146.62 495.719 146.56 495.949 146.73L499.749 149.04C500.089 149.3 500.579 149.13 500.829 148.78L502.619 146.39C503.019 145.61 502.959 145.21 502.619 144.96ZM484.269 141.48C481.379 139.32 480.909 135.36 482.989 132.58C485.149 129.69 489.109 129.22 491.889 131.3C494.669 133.38 495.249 137.42 493.169 140.2C491.099 142.97 487.049 143.55 484.269 141.48Z" fill="#3097D8"/>
<path d="M98.1094 169.54H61.1094V179.54H98.1094V169.54Z" fill="#D2D2D2"/>
<path d="M99.5795 187.84H60.7695V231.55H99.5795V187.84Z" stroke="#939393" stroke-width="1.5" stroke-miterlimit="10" stroke-linecap="round" stroke-linejoin="round" stroke-dasharray="3.54 3.54"/>
<path d="M546.919 38.9902H262.919C256.729 38.9902 251.709 44.0102 251.709 50.2002V243.18C251.709 243.85 251.779 244.5 251.889 245.14H557.939C558.049 244.5 558.119 243.85 558.119 243.18V50.1902C558.129 44.0002 553.109 38.9902 546.919 38.9902ZM546.489 208.88C546.489 211.51 544.359 213.64 541.729 213.64H268.329C265.699 213.64 263.569 211.51 263.569 208.88V56.4102C263.569 53.7802 265.699 51.6502 268.329 51.6502H541.739C544.369 51.6502 546.499 53.7802 546.499 56.4102V208.88H546.489Z" fill="#505050"/>
<path d="M405.06 48.8801C406.932 48.8801 408.45 47.3623 408.45 45.4901C408.45 43.6179 406.932 42.1001 405.06 42.1001C403.188 42.1001 401.67 43.6179 401.67 45.4901C401.67 47.3623 403.188 48.8801 405.06 48.8801Z" fill="#737373"/>
<path d="M582.22 250.27H227.21C225.95 250.27 224.93 249.25 224.93 247.99V244.67C224.93 243.41 225.95 242.39 227.21 242.39H582.22C583.48 242.39 584.5 243.41 584.5 244.67V248C584.5 249.25 583.48 250.27 582.22 250.27Z" fill="#444444"/>
<path d="M225.539 249.84L249.429 256.5C251.299 257.02 253.239 257.29 255.179 257.29H560.759C562.759 257.29 564.749 256.93 566.619 256.21L582.229 250.27L225.539 249.84Z" fill="#505050"/>
<path d="M129.436 101.617V250.977H227.896V101.617H129.436Z" fill="#E6E6E6"/>
<path d="M129.57 101.617V118.247H227.89V101.617H129.57Z" fill="#8FC3EC"/>
<path d="M177.641 117.61L227.891 168.01V117.61H177.641Z" fill="url(#paint2_linear)"/>
<path d="M161.689 101.61L178.269 118.24H227.889V101.61H161.689Z" fill="#B5D5EA"/>
<path d="M217.859 133.29H171.859V176.29H217.859V133.29Z" fill="#D2D2D2"/>
<path d="M207.109 148.29H145.109V237.29H207.109V148.29Z" stroke="#939393" stroke-width="1.5" stroke-miterlimit="10" stroke-linecap="round" stroke-linejoin="round" stroke-dasharray="3.26 3.26"/>
<path d="M178.701 228.3C191.956 228.3 202.701 217.555 202.701 204.3C202.701 191.045 191.956 180.3 178.701 180.3C165.446 180.3 154.701 191.045 154.701 204.3C154.701 217.555 165.446 228.3 178.701 228.3Z" fill="#0078D7"/>
<path fill-rule="evenodd" clip-rule="evenodd" d="M154.701 204.3C154.701 211.63 158.001 218.18 163.171 222.58L178.571 204.35L175.101 180.59C163.561 182.33 154.701 192.27 154.701 204.3Z" fill="#FFB900"/>
<path fill-rule="evenodd" clip-rule="evenodd" d="M161.141 187.97L178.571 204.35C182.271 189.6 183.801 183.52 184.431 181.01C182.591 180.56 180.681 180.29 178.701 180.29C171.761 180.29 165.531 183.26 161.141 187.97Z" fill="#EC6401"/>
<path d="M100.921 140.84H59.4211C55.9411 140.84 53.1211 143.66 53.1211 147.14V250.57C53.1211 254.05 55.9411 256.87 59.4211 256.87H100.921C104.401 256.87 107.221 254.05 107.221 250.57V147.15C107.221 143.67 104.401 140.84 100.921 140.84ZM104.901 246.69C104.901 248.21 103.671 249.44 102.151 249.44H58.3811C56.8611 249.44 55.6311 248.21 55.6311 246.69V152.9C55.6311 151.38 56.8611 150.15 58.3811 150.15H102.151C103.671 150.15 104.901 151.38 104.901 152.9V246.69Z" fill="#444444"/>
<path d="M86.7305 252.46H74.4205C73.9005 252.46 73.4805 252.88 73.4805 253.4C73.4805 253.92 73.9005 254.34 74.4205 254.34H86.7405C87.2605 254.34 87.6805 253.92 87.6805 253.4C87.6805 252.88 87.2505 252.46 86.7305 252.46Z" fill="#737373"/>
<path d="M86.7305 143.86H74.4205C73.9005 143.86 73.4805 144.28 73.4805 144.8C73.4805 145.32 73.9005 145.74 74.4205 145.74H86.7405C87.2605 145.74 87.6805 145.32 87.6805 144.8C87.6805 144.28 87.2505 143.86 86.7305 143.86Z" fill="#737373"/>
<path d="M63.0309 147.741C63.6219 147.741 64.1009 147.262 64.1009 146.671C64.1009 146.08 63.6219 145.601 63.0309 145.601C62.44 145.601 61.9609 146.08 61.9609 146.671C61.9609 147.262 62.44 147.741 63.0309 147.741Z" fill="#737373"/>
<path d="M229.241 95.29H127.971C125.341 95.29 123.201 97.42 123.201 100.06V251.95C123.201 254.58 125.331 256.72 127.971 256.72H229.241C231.871 256.72 234.011 254.59 234.011 251.95V100.06C234.011 97.43 231.871 95.29 229.241 95.29ZM226.741 247.16C226.741 248.22 225.881 249.08 224.821 249.08H132.631C131.571 249.08 130.711 248.22 130.711 247.16V104.99C130.711 103.93 131.571 103.07 132.631 103.07H224.821C225.881 103.07 226.741 103.93 226.741 104.99V247.16Z" fill="#444444"/>
<path d="M128.811 174.43H124.971V178.27H128.811V174.43Z" fill="#737373"/>
<defs>
<linearGradient id="paint0_linear" x1="495.234" y1="176.793" x2="495.234" y2="69.1144" gradientUnits="userSpaceOnUse">
<stop offset="0.0994" stop-color="#E6E6E6"/>
<stop offset="0.9511" stop-color="white"/>
</linearGradient>
<linearGradient id="paint1_linear" x1="91.046" y1="183.369" x2="91.046" y2="158.133" gradientUnits="userSpaceOnUse">
<stop offset="0.2336" stop-color="#E6E6E6"/>
<stop offset="0.9511" stop-color="white"/>
</linearGradient>
<linearGradient id="paint2_linear" x1="202.765" y1="168.008" x2="202.765" y2="117.614" gradientUnits="userSpaceOnUse">
<stop offset="0.0994" stop-color="#E6E6E6"/>
<stop offset="0.9511" stop-color="white"/>
</linearGradient>
</defs>
</svg>
