<svg width="636" height="300" viewBox="0 0 636 300" fill="none" xmlns="http://www.w3.org/2000/svg">
<mask id="mask0" mask-type="alpha" maskUnits="userSpaceOnUse" x="0" y="55" width="636" height="190">
<path d="M636 55H0V245H636V55Z" fill="white"/>
</mask>
<g mask="url(#mask0)">
<path d="M584.257 166.914C586.157 164.85 587.429 163.289 587.429 163.289L585.702 160.843C583.665 158.702 582.487 155.885 582.394 152.931C581.962 146.601 582.25 126.031 582.25 126.031C582.25 126.031 544.127 109.631 547.292 125.024C550.313 139.41 550.169 151.924 548.011 157.536C547.731 158.232 547.256 158.832 546.644 159.266C546.032 159.7 545.308 159.948 544.558 159.982L544.743 160.094C542.314 159.979 540.1 159.847 538.228 159.694C538.228 159.694 534.056 167.606 536.502 170.771C538.939 173.782 565.655 178.505 571.966 176.689L580.666 181.989L584.257 166.914Z" fill="#9B643D"/>
<path d="M493.344 191.485C493.344 191.485 518.232 244.714 508.597 286.577C512.481 290.749 524.278 294.202 540.966 292.763C557.078 291.325 573.047 290.318 580.671 289.886C596.208 289.023 602.971 291.9 602.971 291.9C602.971 291.9 602.683 283.556 606.136 264.135C608.681 250.392 624.283 206.82 627.851 196.942C628.36 195.55 628.607 194.076 628.581 192.595C628.209 175.504 619.229 161.395 603.402 160.987L585.707 160.843C580.241 166.166 571.465 169.619 561.683 169.331C551.901 169.043 543.412 165.303 538.089 159.692C529.774 159.304 521.446 160.078 513.345 161.992C506.003 163.576 493.775 173.215 493.344 191.485Z" fill="#8867C8"/>
<path d="M544.558 159.98C544.558 159.98 550.888 165.015 564.699 165.015C578.51 165.015 585.699 160.843 585.699 160.843C583.661 158.702 582.483 155.885 582.391 152.931C581.959 146.601 582.247 126.031 582.247 126.031C582.247 126.031 544.124 109.631 547.289 125.024C550.31 139.41 550.166 151.924 548.008 157.536C547.727 158.231 547.252 158.831 546.641 159.264C546.029 159.697 545.306 159.946 544.558 159.98Z" fill="url(#paint0_radial)"/>
<path d="M553.334 115.815C553.55 115.143 554.013 114.577 554.628 114.232C555.317 113.97 556.068 113.92 556.786 114.088C557.451 114.263 558.051 114.628 558.511 115.139C558.971 115.65 559.272 116.285 559.376 116.965C559.371 117.039 559.339 117.11 559.286 117.163C559.233 117.216 559.163 117.248 559.088 117.253C558.944 117.253 558.944 117.253 558.8 117.109C558.161 116.318 557.314 115.72 556.355 115.383C555.912 115.233 555.436 115.208 554.98 115.309C554.523 115.41 554.103 115.635 553.765 115.958C553.621 116.102 553.478 115.958 553.334 115.958V115.815Z" fill="#5D4033"/>
<path d="M536.934 115.815C537.149 115.142 537.612 114.577 538.228 114.232C538.917 113.97 539.668 113.92 540.386 114.088C541.051 114.263 541.65 114.628 542.11 115.139C542.57 115.65 542.871 116.285 542.976 116.965C542.971 117.039 542.938 117.11 542.886 117.163C542.833 117.216 542.762 117.248 542.688 117.253C542.544 117.253 542.544 117.253 542.4 117.109C541.76 116.318 540.914 115.72 539.955 115.383C539.512 115.233 539.036 115.208 538.579 115.309C538.123 115.41 537.703 115.635 537.365 115.958C537.221 116.102 537.077 115.958 536.934 115.958V115.815Z" fill="#5D4033"/>
<path d="M556.067 125.885L585.415 126.029L585.558 108.909C585.538 106.689 584.657 104.564 583.101 102.981C581.545 101.398 579.435 100.48 577.215 100.421H556.215C554.713 100.41 553.223 100.695 551.831 101.26C550.439 101.825 549.172 102.66 548.103 103.715C547.033 104.771 546.183 106.027 545.6 107.412C545.018 108.797 544.714 110.284 544.707 111.786V114.376C544.683 115.882 544.959 117.377 545.52 118.774C546.08 120.172 546.914 121.444 547.972 122.515C549.029 123.587 550.29 124.437 551.68 125.015C553.07 125.594 554.562 125.89 556.067 125.885Z" fill="#CBC2CC"/>
<path d="M579.229 132.646C583.281 132.646 586.566 129.361 586.566 125.309C586.566 121.257 583.281 117.972 579.229 117.972C575.177 117.972 571.892 121.257 571.892 125.309C571.892 129.361 575.177 132.646 579.229 132.646Z" fill="#9B643D"/>
<path d="M553.334 154.513H556.497C562.544 154.53 568.35 152.146 572.639 147.883C576.928 143.621 579.349 137.83 579.37 131.783L579.514 116.534C579.528 114.075 578.566 111.71 576.841 109.958C575.116 108.205 572.766 107.208 570.307 107.183L536.356 107.039L536.212 137.106C536.188 139.375 536.612 141.626 537.461 143.73C538.309 145.834 539.565 147.75 541.156 149.368C542.747 150.985 544.642 152.272 546.731 153.155C548.821 154.038 551.065 154.5 553.334 154.513Z" fill="#9B643D"/>
<path d="M545.134 135.38L561.534 135.524C564.711 135.513 567.757 134.256 570.016 132.023C572.276 129.79 573.569 126.759 573.618 123.583L573.762 108.478C573.763 107.663 573.449 106.879 572.886 106.29C572.324 105.7 571.555 105.351 570.741 105.313L543.841 105.169C542.972 105.167 542.11 105.336 541.306 105.668C540.502 105.999 539.772 106.487 539.157 107.102C538.542 107.717 538.054 108.447 537.723 109.251C537.391 110.055 537.221 110.916 537.223 111.786L536.936 127.036C536.921 128.124 537.122 129.204 537.526 130.213C537.931 131.223 538.532 132.143 539.294 132.919C540.057 133.694 540.965 134.312 541.968 134.734C542.97 135.157 544.047 135.376 545.134 135.38Z" fill="#9B643D"/>
<path d="M544.99 108.622C550.627 107.142 556.426 106.369 562.253 106.322C568.183 106.077 574.122 106.513 579.953 107.622L579.809 104.744C579.665 98.1267 575.493 92.0847 567.581 93.2347C555.353 94.9617 557.942 91.3647 552.619 91.0777C547.584 90.7897 546.577 95.6777 544.419 95.8247C539.384 95.9687 540.247 89.3507 532.619 91.0777C526.288 92.5087 522.547 114.232 544.99 108.622Z" fill="#CBC2CC"/>
<path d="M562.554 124.65C562.563 123.061 561.862 121.77 560.988 121.765C560.114 121.76 559.399 123.044 559.39 124.633C559.381 126.222 560.082 127.514 560.956 127.519C561.83 127.523 562.545 126.239 562.554 124.65Z" fill="#3A312E"/>
<path d="M536.358 152.787L553.765 152.931V137.681C553.765 137.29 553.674 136.905 553.499 136.555C553.325 136.206 553.071 135.902 552.758 135.667L549.306 133.367C549.121 133.25 548.961 133.095 548.838 132.914C548.715 132.732 548.631 132.527 548.59 132.311C548.55 132.095 548.554 131.874 548.603 131.66C548.652 131.446 548.744 131.244 548.874 131.067L551.895 126.467C552.62 125.352 553.019 124.057 553.046 122.727V106.327H535.497L536.358 152.787Z" fill="url(#paint1_radial)"/>
<path d="M580.955 104.45C580.955 104.45 568.155 102.15 569.014 111.211C569.59 116.39 571.029 117.253 574.337 117.541C576.783 117.685 581.243 118.404 581.243 118.404L580.955 104.45Z" fill="#CBC2CC"/>
<path d="M547.12 124.757C547.129 123.168 546.429 121.876 545.555 121.871C544.681 121.866 543.965 123.149 543.956 124.738C543.946 126.327 544.647 127.619 545.52 127.625C546.394 127.63 547.11 126.346 547.12 124.757Z" fill="#3A312E"/>
<g opacity="0.7">
<path opacity="0.7" d="M561.534 138.545C561.308 139.652 560.788 140.677 560.029 141.512C559.269 142.348 558.298 142.963 557.218 143.292C556.146 143.624 555.006 143.674 553.909 143.436C552.79 143.183 551.782 142.578 551.032 141.71C550.95 141.573 550.919 141.41 550.946 141.252C550.972 141.094 551.054 140.95 551.176 140.846C551.233 140.792 551.301 140.75 551.375 140.725C551.45 140.701 551.529 140.693 551.607 140.702C552.421 140.775 553.239 140.775 554.053 140.702L556.211 140.271C557.74 139.788 559.158 139.007 560.383 137.971C560.521 137.889 560.683 137.859 560.841 137.885C560.999 137.912 561.142 137.993 561.246 138.115C561.534 138.257 561.534 138.398 561.534 138.545Z" fill="#594539"/>
</g>
<path d="M513.34 161.998C506.003 163.58 493.775 173.219 493.34 191.489C493.34 191.489 518.228 244.718 508.589 286.581C512.473 290.753 524.27 294.206 540.958 292.767C557.07 291.329 573.039 290.322 580.663 289.89C596.2 289.027 602.963 291.904 602.963 291.904C602.963 291.904 602.675 283.56 606.128 264.139C608.673 250.396 624.275 206.824 627.843 196.946C628.352 195.555 628.599 194.081 628.573 192.599C628.201 175.508 619.221 161.399 603.394 160.991L585.699 160.847C580.233 166.17 571.457 169.623 561.675 169.335C551.893 169.047 543.404 165.307 538.081 159.696" fill="url(#paint2_radial)"/>
<path d="M525.281 250.468L589.73 255.647C602.246 256.654 612.097 248.598 615.769 235.794C621.254 221.285 625.769 204.933 627.551 198.194C627.786 197.303 627.706 196.359 627.325 195.52C626.943 194.682 626.283 194.001 625.457 193.594L579.516 170.914L577.934 225.869L524.997 233.498L525.281 250.468Z" fill="url(#paint3_radial)"/>
<path d="M207.097 215.041C215.939 217.965 220.85 212.624 222.624 208.241C228.415 193.956 240.715 174.252 247.667 163.791C251.075 159.719 254.519 147.137 244.516 141.783C239.478 138.975 234.564 138.383 225.745 148.134C217.339 157.426 206.19 176.673 199.377 201.534C198.736 206.553 201.097 213.056 207.097 215.041Z" fill="url(#paint4_radial)"/>
<path d="M317.941 216.458C309.099 219.381 304.188 214.04 302.413 209.658C296.623 195.373 284.323 175.669 277.371 165.208C273.963 161.136 269.761 147.531 279.764 142.177C284.802 139.37 288.097 137.844 299.293 149.551C307.953 158.606 318.848 178.089 325.661 202.951C326.303 207.969 323.945 214.472 317.941 216.458Z" fill="url(#paint5_radial)"/>
<path d="M294.067 260.098C291.816 260.553 227.967 260.42 227.367 260.048C221.692 199.587 224.099 157.429 224.099 157.429C224.099 141.75 240.766 136.929 257.068 136.21H265.268C282.656 136.21 297.895 141.398 297.895 157.077C297.897 157.079 299.716 207.243 294.067 260.098Z" fill="url(#paint6_radial)"/>
<path d="M546.464 245.598H455.297L437.354 193.65C437.196 193.189 437.15 192.697 437.221 192.215C437.291 191.734 437.475 191.275 437.758 190.879C438.041 190.483 438.415 190.16 438.848 189.937C439.281 189.714 439.761 189.598 440.248 189.598H524.175C525.009 189.612 525.818 189.884 526.492 190.376C527.165 190.868 527.67 191.557 527.938 192.347L546.464 245.598Z" fill="#B2B2B2"/>
<path d="M244.022 100.228C247.233 100.228 249.836 97.6251 249.836 94.4141C249.836 91.2031 247.233 88.6001 244.022 88.6001C240.811 88.6001 238.208 91.2031 238.208 94.4141C238.208 97.6251 240.811 100.228 244.022 100.228Z" fill="#594539"/>
<path d="M256.917 77.337C260.577 77.337 263.544 74.37 263.544 70.71C263.544 67.05 260.577 64.083 256.917 64.083C253.257 64.083 250.29 67.05 250.29 70.71C250.29 74.37 253.257 77.337 256.917 77.337Z" fill="#594539"/>
<path d="M248.276 81.9239C251.936 81.9239 254.903 78.9569 254.903 75.2969C254.903 71.6369 251.936 68.6699 248.276 68.6699C244.616 68.6699 241.649 71.6369 241.649 75.2969C241.649 78.9569 244.616 81.9239 248.276 81.9239Z" fill="#594539"/>
<path d="M243.662 91.0724C247.322 91.0724 250.289 88.1053 250.289 84.4454C250.289 80.7854 247.322 77.8184 243.662 77.8184C240.002 77.8184 237.035 80.7854 237.035 84.4454C237.035 88.1053 240.002 91.0724 243.662 91.0724Z" fill="#594539"/>
<path d="M281.193 100.228C284.404 100.228 287.007 97.6251 287.007 94.4141C287.007 91.2031 284.404 88.6001 281.193 88.6001C277.982 88.6001 275.379 91.2031 275.379 94.4141C275.379 97.6251 277.982 100.228 281.193 100.228Z" fill="#594539"/>
<path d="M268.081 77.5968C271.741 77.5968 274.708 74.6298 274.708 70.9698C274.708 67.3098 271.741 64.3428 268.081 64.3428C264.421 64.3428 261.454 67.3098 261.454 70.9698C261.454 74.6298 264.421 77.5968 268.081 77.5968Z" fill="#594539"/>
<path d="M277.448 82.1788C281.108 82.1788 284.075 79.2118 284.075 75.5518C284.075 71.8918 281.108 68.9248 277.448 68.9248C273.788 68.9248 270.821 71.8918 270.821 75.5518C270.821 79.2118 273.788 82.1788 277.448 82.1788Z" fill="#594539"/>
<path d="M281.073 92.2721C284.733 92.2721 287.7 89.3051 287.7 85.6451C287.7 81.9851 284.733 79.0181 281.073 79.0181C277.413 79.0181 274.446 81.9851 274.446 85.6451C274.446 89.3051 277.413 92.2721 281.073 92.2721Z" fill="#594539"/>
<path d="M261.237 70.23H264.037C269.102 70.23 273.961 72.2423 277.543 75.8242C281.124 79.4062 283.137 84.2643 283.137 89.33V102.114C283.137 104.294 282.271 106.384 280.73 107.925C279.189 109.466 277.098 110.332 274.919 110.332H250.353C248.173 110.332 246.083 109.466 244.542 107.925C243.001 106.384 242.135 104.294 242.135 102.114V89.332C242.135 86.8234 242.628 84.3393 243.588 82.0216C244.548 79.704 245.955 77.5981 247.729 75.8242C249.503 74.0504 251.609 72.6434 253.926 71.6835C256.244 70.7236 258.728 70.2297 261.237 70.23Z" fill="#594539"/>
<path d="M278.858 137.566C277.494 140.701 270.018 148.222 265.934 152.192C265.223 152.884 264.268 153.268 263.276 153.261C262.284 153.254 261.334 152.856 260.634 152.154C256.661 148.182 249.332 140.098 247.847 137.098C252.43 135.765 263.84 135.18 263.84 135.18C263.84 135.18 272.957 135.469 278.858 137.566Z" fill="#9B643D"/>
<path d="M273.26 110.014H253.084V136.598C253.084 139.479 253.184 140.653 253.184 140.653L272.518 140.486C273.097 139.152 273.355 137.702 273.272 136.251L273.26 110.014Z" fill="url(#paint7_radial)"/>
<path d="M238.783 106.841C238.779 107.697 238.943 108.546 239.266 109.339C239.589 110.132 240.065 110.853 240.667 111.462C241.27 112.071 241.986 112.555 242.775 112.887C243.564 113.219 244.411 113.392 245.267 113.397C245.512 113.397 248.667 113.386 248.908 113.361C252.171 113.02 251.808 110.27 251.823 106.913C251.842 103.588 252.286 100.83 249.071 100.413C248.805 100.378 245.615 100.359 245.34 100.358C243.611 100.348 241.949 101.026 240.719 102.242C239.49 103.458 238.793 105.112 238.783 106.841Z" fill="#9B643D"/>
<path d="M265.137 77.5977H260.12C251.917 77.5977 245.267 84.2476 245.267 92.4507V111.666C245.267 119.869 251.917 126.519 260.12 126.519H265.137C273.34 126.519 279.99 119.869 279.99 111.666V92.4507C279.99 84.2476 273.34 77.5977 265.137 77.5977Z" fill="#9B643D"/>
<path d="M268.887 104.976C268.895 103.551 268.276 102.393 267.504 102.388C266.732 102.383 266.099 103.535 266.091 104.96C266.082 106.384 266.701 107.543 267.473 107.548C268.245 107.553 268.878 106.401 268.887 104.976Z" fill="#3A312E"/>
<path d="M248.297 120.335L260.958 120.127L261.291 114.55C261.291 114.196 261.203 113.848 261.036 113.536C260.868 113.225 260.625 112.96 260.33 112.765L257.258 110.74C256.937 110.528 256.713 110.198 256.633 109.822C256.554 109.446 256.626 109.053 256.834 108.73L259.508 104.579C260.145 103.589 260.486 102.438 260.49 101.261L260.547 86.6211L247.247 86.8211L248.297 120.335Z" fill="url(#paint8_radial)"/>
<path d="M253.646 104.854C253.654 103.429 253.035 102.27 252.263 102.266C251.49 102.262 250.858 103.413 250.85 104.838C250.842 106.263 251.462 107.421 252.234 107.426C253.006 107.43 253.638 106.278 253.646 104.854Z" fill="#3A312E"/>
<path d="M286.659 106.841C286.664 107.697 286.5 108.546 286.176 109.339C285.853 110.132 285.377 110.853 284.775 111.462C284.172 112.071 283.456 112.555 282.667 112.887C281.878 113.219 281.031 113.392 280.175 113.397C279.93 113.397 276.775 113.386 276.534 113.361C273.271 113.02 273.634 110.27 273.619 106.913C273.6 103.588 273.156 100.83 276.371 100.413C276.637 100.378 279.827 100.359 280.102 100.358C281.831 100.348 283.493 101.026 284.723 102.242C285.952 103.458 286.649 105.112 286.659 106.841Z" fill="#9B643D"/>
<path d="M267.461 118.113C267.409 119.203 266.979 120.241 266.245 121.049C265.489 121.888 264.509 122.495 263.42 122.798C262.332 123.1 261.18 123.086 260.099 122.758C259.031 122.455 258.114 121.765 257.528 120.823C257.465 120.714 257.433 120.59 257.434 120.464C257.434 120.339 257.468 120.215 257.532 120.107C257.596 119.999 257.687 119.909 257.797 119.847C257.906 119.786 258.03 119.754 258.156 119.756H258.245C259.018 119.777 259.791 119.748 260.561 119.672C261.205 119.603 261.842 119.487 262.47 119.327C263.088 119.165 263.691 118.946 264.27 118.674C264.975 118.331 265.659 117.946 266.319 117.522L266.375 117.487C266.484 117.42 266.609 117.384 266.737 117.382C266.865 117.38 266.991 117.413 267.102 117.477C267.213 117.541 267.305 117.633 267.368 117.745C267.431 117.856 267.463 117.983 267.46 118.111L267.461 118.113Z" fill="#855035"/>
<path d="M274.286 74.0469H250.971L243.697 85.0869L245.145 100.364L247.089 89.2039C247.445 87.4874 248.381 85.9459 249.741 84.8391C251.1 83.7324 252.799 83.128 254.552 83.1279H270.713C272.466 83.1279 274.166 83.7323 275.525 84.8393C276.885 85.9463 277.821 87.4881 278.176 89.2049L280.119 100.365L281.568 85.0869L274.286 74.0469Z" fill="#594539"/>
<path d="M271.03 87.0069C274.69 87.0069 277.657 84.0399 277.657 80.3799C277.657 76.7199 274.69 73.7529 271.03 73.7529C267.37 73.7529 264.403 76.7199 264.403 80.3799C264.403 84.0399 267.37 87.0069 271.03 87.0069Z" fill="#594539"/>
<path d="M281.327 226.566L282.41 232.766L274.987 237.86C273.175 239.105 271.237 240.155 269.205 240.991C267.699 241.711 266.119 242.265 264.494 242.642C263.694 242.765 262.165 243.094 259.908 243.629C258.654 243.943 257.357 244.044 256.07 243.929C255.578 243.739 255.137 243.437 254.782 243.048C254.426 242.659 254.166 242.193 254.021 241.686C253.371 241.608 252.537 241.53 251.521 241.453C250.929 241.355 250.363 241.142 249.853 240.827C249.211 239.858 249.45 239.136 250.572 238.661L263.256 232.472L260.582 231.897C258.591 231.52 257.053 231.171 255.969 230.852C255.029 230.49 254.611 230.033 254.716 229.48C254.856 228.865 255.43 228.493 256.44 228.364C259.014 227.837 261.626 227.516 264.251 227.403C265.8 227.33 267.847 227.167 270.391 226.916L281.327 226.566Z" fill="#9B643D"/>
<path d="M322.382 196.318C330.108 204.718 323.606 212.046 321.303 214.904C301.671 232.246 280.264 234.431 280.264 234.431L276.411 226.744C293.134 216.811 297.018 205.644 304.802 197.144C306.997 194.748 314.963 188.25 322.382 196.318Z" fill="#5C8EB6"/>
<path d="M270.158 240.598H187.326L176.497 190.313C176.352 189.891 176.309 189.44 176.372 188.998C176.436 188.556 176.605 188.136 176.864 187.772C177.123 187.408 177.466 187.112 177.863 186.908C178.26 186.704 178.7 186.597 179.146 186.598H255.446C256.206 186.598 256.946 186.835 257.564 187.275C258.183 187.716 258.648 188.339 258.895 189.057L270.158 240.598Z" fill="#CBC2CC"/>
<path d="M281.47 240.179H190.318C188.625 240.179 187.253 241.551 187.253 243.244C187.253 244.936 188.625 246.309 190.318 246.309H281.47C283.163 246.309 284.535 244.936 284.535 243.244C284.535 241.551 283.163 240.179 281.47 240.179Z" fill="#B6B0B7"/>
<path d="M134.856 191.563C133.79 187.808 134.174 182.984 136.009 177.091C137.946 171.158 138.222 165.666 136.837 160.615C135.493 155.615 132.355 150.79 127.421 146.139C123.141 142.015 120.983 138.362 120.947 135.179C120.929 131.091 121.044 126.891 121.292 122.579L121.667 117.25C121.956 111.144 119.928 105.154 115.988 100.48C110.994 94.3588 103.731 91.1031 94.1973 90.7131C83.2573 89.2545 74.896 90.7655 69.1133 95.2461C64.3041 98.9094 61.0086 104.212 59.8533 110.146L58.9103 115.41C58.0943 119.655 57.176 123.762 56.1553 127.73C55.3393 130.814 52.3457 133.875 47.1743 136.913C41.241 140.317 37.0077 144.295 34.4743 148.847C31.813 153.807 30.6859 159.446 31.2363 165.047C31.5743 171.19 30.7643 175.965 28.8063 179.372C27.463 181.69 23.6173 185.435 17.2693 190.607C11.8247 195.074 8.32467 199.893 6.76934 205.064C5.27467 210.139 6.49134 216.155 10.4193 223.114C11.486 224.952 13.0703 227.631 15.1723 231.152C16.6219 233.54 17.6341 236.168 18.1613 238.911C18.618 241.789 18.218 247.116 16.9613 254.891C15.9131 260.962 16.4494 267.201 18.5183 273.004C22.2691 283.809 30.0414 292.752 40.2183 297.972C46.885 301.411 55.8807 303.858 67.2053 305.311C78.1387 306.416 87.268 306.053 94.5933 304.221C105.809 301.463 115.561 294.552 121.879 284.883C125.305 279.737 127.356 273.799 127.836 267.635C128.524 259.794 129.443 254.527 130.593 251.835C131.782 249.283 133.41 246.96 135.402 244.972C138.309 242.027 141.486 241.392 142.973 239.848C147.639 234.907 150.156 228.318 149.973 221.524C149.731 216.149 147.513 210.673 143.317 205.095C138.413 198.63 135.593 194.12 134.856 191.563Z" fill="url(#paint9_linear)"/>
<path d="M173.814 215.323C175.534 216.523 174.975 217.323 174.975 217.323C174.975 217.323 179.055 217.743 178.894 218.561C178.777 220.215 173.312 220.853 168.844 220.954C163.974 221.344 160.371 221.954 159.138 223.571C157.108 226.242 150.568 230.357 147.792 228.771C147.326 228.505 140.697 232.513 137.384 233.009C132.96 233.672 132.991 226.444 137.055 223.909C141.119 221.374 157.418 213.661 161.428 212.821C164.715 212.137 172.782 214.604 173.814 215.323Z" fill="#F9DDBF"/>
<path d="M142.552 220.905C132.492 222.847 122.452 223.873 114.341 217.795C108.306 213.273 101.91 181.507 102.009 181.513C102.009 181.513 99.8022 169.772 84.9322 173.999C73.1942 177.335 81.4092 193.446 81.4092 193.446C81.4092 193.446 87.5522 212.811 90.3092 222.232C93.0662 231.653 101.409 240.305 112.634 239.862C126.323 239.321 133.312 235.699 144.773 230.407L142.552 220.905Z" fill="url(#paint10_radial)"/>
<path d="M90.397 161.02C86.462 159.541 83.481 159.984 76.656 158.958C71.0427 158.754 65.422 158.933 59.833 159.493C52.703 160.133 45.993 168.63 44.612 171.776C40.427 181.559 40.297 192.776 40.664 202.328C41.806 215.865 42.581 224.205 41.898 228.645C40.436 238.145 37.619 252.945 35.415 261.026C38.998 263.116 100.873 265.613 104.577 264.404C101.271 247.14 91.763 235.018 91.763 226.937C93.232 216.652 96.086 213.047 99.277 207.811C101.745 201.37 104.425 193.036 102.692 182.537C101.667 173.657 96.203 162.728 90.397 161.02Z" fill="url(#paint11_radial)"/>
<path d="M59.4135 119.186C58.8441 126.697 60.6925 134.194 64.6885 140.58C66.8986 144.129 69.7871 147.206 73.1885 149.637C76.6349 152.037 80.5667 153.649 84.7055 154.361L85.2055 154.447C89.0271 155.132 92.9485 155.03 96.7289 154.145C100.509 153.26 104.069 151.612 107.19 149.302C114.933 143.573 120.168 135.078 121.805 125.586C122.502 121.636 122.459 117.591 121.68 113.656C120.997 109.964 119.628 106.433 117.643 103.247C115.786 100.262 113.356 97.6762 110.493 95.6379C107.481 93.4124 103.988 91.9258 100.297 91.2979L91.7225 89.8139C87.9334 89.1714 84.0473 89.4071 80.3635 90.5029C75.1928 92.0667 70.6002 95.125 67.1635 99.2929C63.3803 103.734 60.8824 109.124 59.9395 114.882C59.6906 116.307 59.515 117.743 59.4135 119.186Z" fill="#DFBC97"/>
<path d="M73.1567 162.375C76.2894 162.547 79.4291 162.547 82.5617 162.375C83.6537 162.28 89.6897 160.975 88.7977 160.337C86.2787 158.537 87.5347 154.547 88.4057 149.759L91.8887 137.134L74.2347 134.172L72.9167 144.351C72.0707 150.984 66.6477 157.958 62.9287 159.351C64.4237 161.047 68.0737 162.175 73.1567 162.375Z" fill="url(#paint12_radial)"/>
<path d="M96.0283 103.982C90.5653 102.919 84.903 104.035 80.2523 107.092C77.9914 108.466 76.0539 110.312 74.5719 112.504C73.0899 114.696 72.0985 117.182 71.6653 119.792L69.3193 133.343C68.8478 135.936 68.9464 138.6 69.6083 141.151C70.2703 143.702 71.4796 146.078 73.1523 148.115C76.4771 152.595 81.4371 155.58 86.9523 156.42L87.0323 156.434C92.5326 157.491 98.2281 156.353 102.9 153.264C105.143 151.893 107.064 150.054 108.531 147.873C109.998 145.692 110.976 143.22 111.4 140.626L113.746 127.075C114.216 124.479 114.126 121.812 113.481 119.254C112.835 116.696 111.65 114.306 110.005 112.243C106.614 107.8 101.633 104.845 96.1083 103.998L96.0283 103.982Z" fill="#F9DDBF"/>
<path d="M93.8086 146.998L107.876 149.433L112.286 123.951L98.2196 121.516L93.8086 146.998Z" fill="url(#paint13_radial)"/>
<path d="M84.8326 131.969C84.9058 132.245 85.0543 132.495 85.2614 132.692C85.4685 132.888 85.7262 133.023 86.0056 133.082C86.2874 133.108 86.5712 133.061 86.83 132.947C87.0888 132.832 87.3141 132.654 87.4846 132.428C87.957 131.808 88.2665 131.079 88.3846 130.308C88.4989 129.532 88.428 128.74 88.1776 127.996C88.1138 127.715 87.9684 127.46 87.7596 127.262C87.5509 127.064 87.2882 126.932 87.0046 126.883C86.721 126.834 86.4293 126.87 86.1661 126.986C85.9029 127.102 85.6801 127.294 85.5256 127.537C85.0528 128.157 84.7434 128.886 84.6256 129.657C84.5109 130.433 84.5818 131.226 84.8326 131.969Z" fill="#33312D"/>
<path d="M106.297 130.223C106.015 130.197 105.732 130.243 105.473 130.358C105.214 130.472 104.989 130.651 104.818 130.877C104.344 131.5 104.012 132.219 103.846 132.985C103.698 133.75 103.743 134.541 103.979 135.285C104.064 135.555 104.216 135.799 104.421 135.994C104.627 136.188 104.878 136.327 105.152 136.398C105.425 136.426 105.7 136.378 105.948 136.261C106.196 136.143 106.406 135.96 106.557 135.731C107.074 135.165 107.408 134.456 107.516 133.698C107.722 132.947 107.702 132.151 107.457 131.412C107.398 131.123 107.257 130.858 107.051 130.647C106.846 130.437 106.584 130.289 106.297 130.223Z" fill="#33312D"/>
<path d="M94.8835 141.977C94.9082 141.829 95.3929 141.559 96.3375 141.166C97.1432 140.854 97.897 140.421 98.5735 139.884C99.2416 139.415 99.7063 138.71 99.8735 137.911C99.9114 137.514 99.8629 137.114 99.7316 136.738C99.6002 136.361 99.3891 136.018 99.1125 135.731C97.9827 134.484 97.2465 132.932 96.9965 131.268L97.0725 129.309C93.5125 129.263 91.8605 135.69 91.6795 139.097C91.6205 140.806 93.0155 141.431 94.8835 141.977Z" fill="#F9DDBF"/>
<path d="M72.4905 123.776L70.9555 123.511C70.2547 123.382 69.5351 123.399 68.8409 123.559C68.1467 123.719 67.4928 124.02 66.9195 124.443C65.7516 125.285 64.9638 126.555 64.7274 127.975C64.491 129.395 64.8253 130.851 65.6575 132.026C66.0604 132.61 66.5789 133.106 67.1809 133.482C67.7829 133.858 68.4556 134.106 69.1575 134.212L70.6425 134.47L72.4905 123.776Z" fill="#F9DDBF"/>
<path d="M85.8493 111.73L103.847 114.845L104.89 108.814L86.8931 105.699L85.8493 111.73Z" fill="#BF8F68"/>
<path d="M102.971 112.275C102.774 111.937 102.507 111.645 102.187 111.418C101.868 111.192 101.504 111.037 101.119 110.963C100.763 110.91 100.399 110.941 100.056 111.053C99.7133 111.165 99.4012 111.354 99.1442 111.607C98.6157 112.069 98.2306 112.673 98.0342 113.347L100.81 96.8979C103.792 97.1524 106.677 98.0788 109.249 99.6078C111.821 101.137 114.014 103.228 115.662 105.726C123.281 117.218 119.555 130.277 119.43 130.757C117.458 131.823 115.184 132.193 112.975 131.81C109.679 131.239 107.103 129.262 105.245 125.88C103.371 122.292 102.707 118.195 103.354 114.199C103.376 113.537 103.245 112.878 102.971 112.275Z" fill="#DFBC97"/>
<g style="mix-blend-mode:multiply" opacity="0.5">
<g style="mix-blend-mode:multiply" opacity="0.5">
<path d="M89.4566 147.164C88.8511 147.713 88.0774 148.041 87.2616 148.095C86.4629 148.175 85.6566 148.068 84.9066 147.782C84.1391 147.503 83.4546 147.034 82.9166 146.42C82.3453 145.809 82.0242 145.006 82.0166 144.17C82.0191 144.08 82.0463 143.993 82.0953 143.918C82.1442 143.842 82.213 143.782 82.294 143.744C82.375 143.705 82.465 143.69 82.5543 143.699C82.6435 143.708 82.7284 143.742 82.7996 143.797L82.8396 143.827C83.3078 144.185 83.8033 144.506 84.3216 144.787C84.8008 145.032 85.292 145.253 85.7936 145.449C86.2936 145.649 86.8216 145.81 87.3646 145.966C87.9466 146.12 88.5365 146.243 89.1316 146.334L89.1906 146.343C89.3164 146.363 89.4291 146.432 89.5041 146.535C89.5791 146.637 89.6102 146.766 89.5906 146.892C89.5768 146.995 89.5297 147.09 89.4566 147.164Z" fill="#BF8F68"/>
</g>
</g>
<path d="M79.2611 98.7729C89.7511 92.9099 101.044 96.0129 101.044 96.0129L98.0441 113.354C97.9263 112.59 97.6148 111.869 97.1391 111.26C96.9035 110.907 96.5987 110.606 96.2432 110.375C95.8877 110.144 95.4889 109.988 95.0711 109.916C94.2876 109.794 93.486 109.946 92.8018 110.347C92.1176 110.748 91.5928 111.373 91.3161 112.116C90.4322 116.225 88.0538 119.86 84.6421 122.316C83.0473 123.51 81.2226 124.361 79.2829 124.815C77.3432 125.27 75.3304 125.318 73.3711 124.957C70.8875 124.54 68.5582 123.475 66.6191 121.868C66.6691 120.982 67.7051 105.232 79.2611 98.7729Z" fill="#DFBC97"/>
<path d="M98.0391 113.341L109.086 115.253C109.086 115.253 112.537 95.5718 112.521 95.5178C109.245 93.4597 105.569 92.1211 101.737 91.5908L98.0391 113.341Z" fill="url(#paint14_radial)"/>
<path d="M136.26 230.249C142.545 230.757 144.881 230.828 149.17 231.787C155.499 233.201 166.37 236.169 166.807 234.637C167.119 233.925 163.207 231.549 163.207 231.549C163.207 231.549 166.645 232.787 166.889 231.949C167.149 231.049 160.901 227.304 159.248 225.381C161.374 225.562 167.133 226.092 167.141 224.594C167.141 223.509 159.598 222.806 154.617 221.528C140.192 220.189 136.417 220.768 132.051 221.358C127.685 221.948 125.605 228.497 129.975 229.758C131.851 230.298 134.21 230.137 136.26 230.249Z" fill="#F9DDBF"/>
<path d="M74.8249 215.064C70.3249 211.7 68.5719 196.875 68.0129 189.545C68.0839 188.992 67.0939 174.054 55.3609 173.495C43.6279 172.936 41.7969 186.549 41.7969 186.549C41.7969 186.549 42.5079 208.974 45.5809 218.472C48.6029 227.812 53.7159 236.772 71.4369 239.112C95.5859 242.296 132.837 230.497 132.837 230.497L133.537 220.94C133.537 220.94 92.6029 228.346 74.8249 215.064Z" fill="url(#paint15_radial)"/>
<path d="M137.861 240.598H209.421L223.487 199.789C223.612 199.426 223.649 199.039 223.594 198.66C223.539 198.28 223.395 197.919 223.172 197.607C222.949 197.295 222.655 197.04 222.315 196.865C221.974 196.689 221.596 196.598 221.212 196.598H155.261C154.609 196.598 153.973 196.801 153.442 197.18C152.911 197.558 152.512 198.093 152.299 198.71L137.861 240.598Z" fill="#505050"/>
<path d="M112.836 245.598H208.358C209.87 245.598 211.097 244.371 211.097 242.859V242.337C211.097 240.824 209.87 239.598 208.358 239.598H112.836C111.323 239.598 110.097 240.824 110.097 242.337V242.859C110.097 244.371 111.323 245.598 112.836 245.598Z" fill="#737373"/>
<path d="M441.135 220.219L440.003 223.502H444.904L446.036 220.219H441.135Z" fill="white"/>
<path d="M439.885 220.219H435.447L434.314 223.502H438.753L439.885 220.219Z" fill="white"/>
<path d="M441.536 219.058H446.436L447.567 215.774H442.668L441.536 219.058Z" fill="white"/>
<path d="M440.286 219.058L441.418 215.774H436.979L435.848 219.058H440.286Z" fill="white"/>
<path d="M458.097 239.598H575.097V240.946C575.097 242.445 574.501 243.882 573.441 244.942C572.381 246.002 570.944 246.598 569.445 246.598H458.097V239.598Z" fill="#C2C2C2"/>
<path d="M349.771 121.86C351.871 134.954 361.211 144.879 372.453 147.449H372.462C372.587 147.472 372.713 147.504 372.836 147.519C375.918 148.179 379.096 148.261 382.208 147.76C383.158 147.609 384.098 147.403 385.023 147.143C386.203 146.809 387.359 146.395 388.483 145.903C390.087 145.201 391.615 144.335 393.041 143.32C401.55 137.282 406.505 126.244 405.116 114.428C405.056 113.944 404.988 113.471 404.916 112.999C404.074 107.628 401.914 102.548 398.631 98.2149C398.6 98.1859 398.577 98.1459 398.544 98.1079C398.344 97.8459 398.133 97.5949 397.928 97.3419C397.907 97.3199 397.895 97.2959 397.874 97.2729C397.842 97.2302 397.806 97.1897 397.768 97.1519C396.609 95.7523 395.323 94.4622 393.927 93.2979C393.909 93.2788 393.889 93.2617 393.867 93.2469C390.86 90.6211 387.294 88.7155 383.44 87.675C379.586 86.6346 375.546 86.4867 371.626 87.2426C367.706 87.9985 364.01 89.6383 360.819 92.0373C357.629 94.4362 355.027 97.5312 353.212 101.087C352.036 103.238 351.12 105.52 350.482 107.887C350.361 108.322 350.258 108.754 350.155 109.194C349.717 111.133 349.456 113.108 349.374 115.094C349.343 115.601 349.331 116.113 349.336 116.631C349.346 117.772 349.41 118.92 349.528 120.086C349.528 120.086 349.528 120.111 349.536 120.186C349.608 120.744 349.68 121.298 349.771 121.86Z" fill="#3A312E"/>
<path d="M338.156 207.588C356.456 223.621 386.713 222.671 401.976 212.109C415.162 202.985 423.882 190.02 416.833 167.58C414.852 161.271 409.233 149.406 406.833 139.064C405.37 132.707 404.778 126.18 405.075 119.664L349.303 116.42C348.444 123.216 346.79 129.889 344.376 136.3C339.796 148.427 331.687 162.285 329.736 167.327C322.679 185.582 330.606 200.972 338.156 207.588Z" fill="#3A312E"/>
<path d="M362.887 150.672L378.75 149.753L378.862 133.733C378.862 133.733 367.303 131.546 363.062 131.297C365.786 140.659 362.887 150.672 362.887 150.672Z" fill="#BF8F68"/>
<path d="M397.089 133.45C397.806 131.775 397.117 129.875 395.552 129.205C393.987 128.536 392.138 129.351 391.422 131.026C390.706 132.7 391.394 134.601 392.959 135.27C394.524 135.939 396.373 135.124 397.089 133.45Z" fill="#F8C954"/>
<path d="M362.887 150.672L378.75 149.753L378.862 133.733C378.862 133.733 367.303 131.546 363.062 131.297C365.786 140.659 362.887 150.672 362.887 150.672Z" fill="url(#paint16_radial)"/>
<path d="M361.67 117.552C360.478 129.852 369.518 140.752 378.37 141.227C387.222 141.702 395.361 132.127 396.553 119.827C397.745 107.527 391.427 98.3009 382.577 97.8269C373.727 97.3529 362.862 105.252 361.67 117.552Z" fill="#BF8F68"/>
<path d="M377.511 119.121C377.66 117.705 377.106 116.485 376.274 116.398C375.443 116.311 374.648 117.389 374.5 118.805C374.351 120.222 374.905 121.441 375.736 121.528C376.568 121.615 377.362 120.538 377.511 119.121Z" fill="#3A312E"/>
<path d="M382.877 108.852L382.627 115.452C382.6 118.082 383.557 120.626 385.31 122.586C385.691 123.101 385.886 123.73 385.863 124.37C385.841 125.01 385.602 125.623 385.186 126.11C384.655 126.655 382.446 127.801 382.295 129.36L381.901 135.46L394.17 136.215L396.199 109.166L382.877 108.852Z" fill="url(#paint17_radial)"/>
<path d="M383.884 132.615C383.676 133.007 383.382 133.347 383.024 133.61C382.666 133.872 382.253 134.05 381.816 134.13C381.012 134.307 380.178 134.289 379.382 134.077C378.587 133.865 377.854 133.465 377.246 132.911C376.915 132.601 376.648 132.23 376.46 131.818C376.244 131.366 376.203 130.851 376.344 130.371C376.369 130.297 376.412 130.231 376.468 130.178C376.525 130.125 376.593 130.087 376.668 130.066C376.743 130.046 376.822 130.044 376.897 130.062C376.973 130.079 377.043 130.114 377.102 130.165L377.302 130.342C377.69 130.637 378.129 130.859 378.597 130.998C379.071 131.171 379.582 131.328 380.097 131.473C380.612 131.618 381.126 131.735 381.636 131.835C382.163 131.938 382.702 131.964 383.236 131.912L383.362 131.897C383.452 131.886 383.544 131.899 383.627 131.934C383.711 131.97 383.783 132.027 383.838 132.1C383.892 132.173 383.926 132.26 383.936 132.35C383.946 132.44 383.932 132.532 383.895 132.615H383.884Z" fill="#9B643D"/>
<path d="M390.169 96.351C389.196 99.0241 387.625 101.439 385.576 103.413C383.528 105.386 381.055 106.866 378.348 107.738C364.63 112.475 362.427 118.607 362.331 118.738C351.667 121.157 354.431 110.368 364.509 98.638C374.849 86.598 390.169 96.351 390.169 96.351Z" fill="#3A312E"/>
<path d="M390.473 119.921C390.663 118.507 390.146 117.272 389.318 117.161C388.49 117.05 387.666 118.105 387.476 119.518C387.287 120.932 387.804 122.167 388.631 122.278C389.459 122.389 390.283 121.334 390.473 119.921Z" fill="#3A312E"/>
<path d="M366.848 128.569L360.636 128.233C360.011 128.201 359.399 128.041 358.838 127.764C358.277 127.486 357.778 127.097 357.374 126.62C356.969 126.143 356.666 125.587 356.483 124.989C356.301 124.39 356.243 123.76 356.313 123.138C356.441 121.848 357.057 120.656 358.035 119.805C359.012 118.955 360.278 118.509 361.573 118.56L367.785 118.896L366.848 128.569Z" fill="#BF8F68"/>
<path d="M364.25 131.942C364.967 130.268 364.279 128.367 362.714 127.698C361.149 127.029 359.299 127.844 358.583 129.518C357.867 131.193 358.555 133.093 360.12 133.763C361.685 134.432 363.534 133.617 364.25 131.942Z" fill="#F8C954"/>
<path d="M346.597 174.212C346.576 177.603 347.226 180.965 348.509 184.103C349.792 187.242 351.683 190.096 354.073 192.502C356.463 194.907 359.306 196.816 362.436 198.118C365.567 199.421 368.925 200.091 372.316 200.091C375.707 200.091 379.064 199.421 382.195 198.118C385.326 196.816 388.168 194.907 390.558 192.502C392.949 190.096 394.84 187.242 396.123 184.103C397.406 180.965 398.055 177.603 398.034 174.212C398.034 173.984 398.034 173.755 398.025 173.527C398.027 173.505 398.027 173.484 398.025 173.462C397.919 169.673 396.975 165.955 395.26 162.575C393.545 159.194 391.102 156.236 388.107 153.913C387.47 153.414 386.808 152.948 386.122 152.513C381.991 149.886 377.196 148.493 372.301 148.497C367.406 148.501 362.613 149.902 358.486 152.535C357.8 152.973 357.137 153.442 356.497 153.942C353.512 156.266 351.078 159.222 349.369 162.597C347.661 165.972 346.72 169.683 346.614 173.465C346.613 173.487 346.613 173.508 346.614 173.53C346.604 173.755 346.597 173.984 346.597 174.212Z" fill="#FFB900"/>
<path d="M343.683 240.398C343.683 247.993 346.7 255.276 352.07 260.646C357.44 266.016 364.723 269.033 372.318 269.033C388.133 269.033 402.93 255.743 402.93 239.933C402.93 224.123 388.13 211.768 372.318 211.768C364.724 211.768 357.442 214.785 352.072 220.154C346.702 225.523 343.684 232.805 343.683 240.398Z" fill="#EAA306"/>
<path d="M398.037 175.838L399.728 223.488L450.386 232.288V237.959H392.618C390.499 237.959 388.466 237.117 386.968 235.619C385.469 234.12 384.627 232.088 384.626 229.968L379.481 175.579L398.037 175.838Z" fill="#EDA605"/>
<path d="M346.847 228.098L400.58 235.78L395.822 214.398C394.345 205.338 394.345 196.099 395.822 187.04L398.036 173.463H346.597L348.811 187.04C350.288 196.099 350.288 205.338 348.811 214.398L346.847 228.098Z" fill="url(#paint18_radial)"/>
<path d="M358.485 152.532C362.689 154.954 367.455 156.227 372.306 156.223C377.157 156.219 381.922 154.939 386.121 152.51C381.99 149.883 377.196 148.49 372.3 148.494C367.405 148.498 362.612 149.899 358.485 152.532Z" fill="#BF8F68"/>
<path d="M364.946 174.212L361.703 224.63L412.361 233.43V240.422H354.597C353.547 240.423 352.507 240.217 351.536 239.816C350.566 239.415 349.684 238.826 348.941 238.084C348.198 237.342 347.608 236.461 347.206 235.491C346.804 234.521 346.597 233.481 346.597 232.431V174.212H364.946Z" fill="url(#paint19_radial)"/>
<path d="M400.958 240.598H466.013L478.793 203.52C478.908 203.188 478.942 202.833 478.893 202.485C478.843 202.137 478.71 201.806 478.506 201.52C478.302 201.234 478.032 201.001 477.72 200.841C477.407 200.68 477.06 200.597 476.709 200.598H416.791C416.194 200.598 415.611 200.784 415.125 201.13C414.639 201.477 414.273 201.967 414.078 202.532L400.958 240.598Z" fill="#737373"/>
<path d="M465.65 240.598H392.544C391.192 240.598 390.097 241.693 390.097 243.045V243.151C390.097 244.502 391.192 245.598 392.544 245.598H465.65C467.001 245.598 468.097 244.502 468.097 243.151V243.045C468.097 241.693 467.001 240.598 465.65 240.598Z" fill="#939393"/>
</g>
<defs>
<radialGradient id="paint0_radial" cx="0" cy="0" r="1" gradientUnits="userSpaceOnUse" gradientTransform="translate(554.851 141.626) scale(21.267)">
<stop stop-color="#594539"/>
<stop offset="0.197" stop-color="#5C4739" stop-opacity="0.949"/>
<stop offset="0.417" stop-color="#664B3A" stop-opacity="0.798"/>
<stop offset="0.649" stop-color="#77533B" stop-opacity="0.547"/>
<stop offset="0.886" stop-color="#8E5E3C" stop-opacity="0.199"/>
<stop offset="1" stop-color="#9B643D" stop-opacity="0"/>
</radialGradient>
<radialGradient id="paint1_radial" cx="0" cy="0" r="1" gradientUnits="userSpaceOnUse" gradientTransform="translate(559.274 132.347) rotate(0.707319) scale(14.2914 12.88)">
<stop stop-color="#33312D"/>
<stop offset="0.319" stop-color="#4C3D31" stop-opacity="0.76"/>
<stop offset="0.897" stop-color="#8E5E3B" stop-opacity="0.127"/>
<stop offset="1" stop-color="#9B643D" stop-opacity="0"/>
</radialGradient>
<radialGradient id="paint2_radial" cx="0" cy="0" r="1" gradientUnits="userSpaceOnUse" gradientTransform="translate(561.961 214.387) scale(32.631)">
<stop offset="0.303" stop-color="#7359AE"/>
<stop offset="0.767" stop-color="#8867C8"/>
</radialGradient>
<radialGradient id="paint3_radial" cx="0" cy="0" r="1" gradientUnits="userSpaceOnUse" gradientTransform="translate(61442.9 22412.4) scale(3942.95 3256.83)">
<stop offset="0.303" stop-color="#7359AE"/>
<stop offset="0.767" stop-color="#8867C8"/>
</radialGradient>
<radialGradient id="paint4_radial" cx="0" cy="0" r="1" gradientUnits="userSpaceOnUse" gradientTransform="translate(225.133 188.846) rotate(-4.19929) scale(19.2204 19.5353)">
<stop offset="0.259" stop-color="#45779E"/>
<stop offset="0.84" stop-color="#5C8EB6"/>
</radialGradient>
<radialGradient id="paint5_radial" cx="0" cy="0" r="1" gradientUnits="userSpaceOnUse" gradientTransform="translate(350506 30942.1) rotate(-175.801) scale(1203.71 1805.56)">
<stop offset="0.259" stop-color="#45779E"/>
<stop offset="0.84" stop-color="#5C8EB6"/>
</radialGradient>
<radialGradient id="paint6_radial" cx="0" cy="0" r="1" gradientUnits="userSpaceOnUse" gradientTransform="translate(22421.1 30170.7) scale(3819.73 6359.59)">
<stop offset="0.259" stop-color="#45779E"/>
<stop offset="0.84" stop-color="#5C8EB6"/>
</radialGradient>
<radialGradient id="paint7_radial" cx="0" cy="0" r="1" gradientUnits="userSpaceOnUse" gradientTransform="translate(263.176 125.332) scale(12.971)">
<stop offset="0.173" stop-color="#724937"/>
<stop offset="0.703" stop-color="#9B643D"/>
</radialGradient>
<radialGradient id="paint8_radial" cx="0" cy="0" r="1" gradientUnits="userSpaceOnUse" gradientTransform="translate(5782.93 6336.18) rotate(0.723) scale(179.289 387.892)">
<stop offset="0.173" stop-color="#724937"/>
<stop offset="0.703" stop-color="#9B643D"/>
</radialGradient>
<linearGradient id="paint9_linear" x1="66.9273" y1="309.525" x2="79.8807" y2="197.261" gradientUnits="userSpaceOnUse">
<stop stop-color="#BB946C"/>
<stop offset="1" stop-color="#DFBC97"/>
</linearGradient>
<radialGradient id="paint10_radial" cx="0" cy="0" r="1" gradientUnits="userSpaceOnUse" gradientTransform="translate(83.1347 213.214) rotate(0.077) scale(33.248)">
<stop offset="0.222" stop-color="#D87401"/>
<stop offset="0.83" stop-color="#FF8C00"/>
</radialGradient>
<radialGradient id="paint11_radial" cx="0" cy="0" r="1" gradientUnits="userSpaceOnUse" gradientTransform="translate(4523.96 23782.8) scale(3091.96 4731.87)">
<stop offset="0.222" stop-color="#D87401"/>
<stop offset="0.83" stop-color="#FF8C00"/>
</radialGradient>
<radialGradient id="paint12_radial" cx="0" cy="0" r="1" gradientUnits="userSpaceOnUse" gradientTransform="translate(93.5417 139.374) scale(22.696)">
<stop offset="0.114" stop-color="#9A6541"/>
<stop offset="0.999" stop-color="#F9DDBF"/>
</radialGradient>
<radialGradient id="paint13_radial" cx="0" cy="0" r="1" gradientUnits="userSpaceOnUse" gradientTransform="translate(96.9454 135.638) rotate(-170.151) scale(9.05958 8.98505)">
<stop stop-color="#9A6541" stop-opacity="0.847"/>
<stop offset="1" stop-color="#F9DDBF" stop-opacity="0"/>
</radialGradient>
<radialGradient id="paint14_radial" cx="0" cy="0" r="1" gradientUnits="userSpaceOnUse" gradientTransform="translate(88.1896 88.8095) rotate(9.84862) scale(21.0914 24.4314)">
<stop stop-color="#5C2C07" stop-opacity="0.847"/>
<stop offset="1" stop-color="#BE906B" stop-opacity="0"/>
</radialGradient>
<radialGradient id="paint15_radial" cx="0" cy="0" r="1" gradientUnits="userSpaceOnUse" gradientTransform="translate(3626.63 16120.6) scale(3669.23 2646.9)">
<stop offset="0.222" stop-color="#D87401"/>
<stop offset="0.83" stop-color="#FF8C00"/>
</radialGradient>
<radialGradient id="paint16_radial" cx="0" cy="0" r="1" gradientUnits="userSpaceOnUse" gradientTransform="translate(376.357 134.108) rotate(180) scale(12.418)">
<stop offset="0.143" stop-color="#9B643D"/>
<stop offset="0.248" stop-color="#9D663F" stop-opacity="0.953"/>
<stop offset="0.404" stop-color="#A16C45" stop-opacity="0.824"/>
<stop offset="0.591" stop-color="#A9754E" stop-opacity="0.613"/>
<stop offset="0.8" stop-color="#B3815A" stop-opacity="0.322"/>
<stop offset="1" stop-color="#BF8F68" stop-opacity="0"/>
</radialGradient>
<radialGradient id="paint17_radial" cx="0" cy="0" r="1" gradientUnits="userSpaceOnUse" gradientTransform="translate(386.621 125.226) rotate(7.47626) scale(7.87591 8.4495)">
<stop stop-color="#9B643D"/>
<stop offset="0.27" stop-color="#A46E47" stop-opacity="0.756"/>
<stop offset="0.868" stop-color="#BA8962" stop-opacity="0.141"/>
<stop offset="1" stop-color="#BF8F68" stop-opacity="0"/>
</radialGradient>
<radialGradient id="paint18_radial" cx="0" cy="0" r="1" gradientUnits="userSpaceOnUse" gradientTransform="translate(367.576 221.832) scale(22.409)">
<stop offset="0.302" stop-color="#EAA306"/>
<stop offset="0.84" stop-color="#FFB900"/>
</radialGradient>
<radialGradient id="paint19_radial" cx="0" cy="0" r="1" gradientUnits="userSpaceOnUse" gradientTransform="translate(26508.6 16029) scale(842.7 848.415)">
<stop offset="0.302" stop-color="#EAA306"/>
<stop offset="0.84" stop-color="#FFB900"/>
</radialGradient>
</defs>
</svg>
