<svg xmlns="http://www.w3.org/2000/svg" viewBox="0 0 500 350"><title>swimlane-ml-choose-algorithms</title><path d="M316.8,154.7a1.929,1.929,0,0,1-1-.3,2.136,2.136,0,0,1-.8-1.7V114a2.136,2.136,0,0,1,.8-1.7,1.514,1.514,0,0,1,1.7-.1L355,131.6a2.194,2.194,0,0,1,1.1,1.8,1.992,1.992,0,0,1-1.1,1.8l-37.5,19.4C317.3,154.6,317.1,154.7,316.8,154.7Z" fill="#69afe5"/><path d="M315,133v19.5a2.142,2.142,0,0,0,.8,1.7,1.676,1.676,0,0,0,1,.3,2.327,2.327,0,0,0,.8-.2l37.318-19.4a2.2,2.2,0,0,0,1.1-1.8V133Z" fill="#8ac5ed"/><path d="M356.8,194.7a1.929,1.929,0,0,1-1-.3,2.136,2.136,0,0,1-.8-1.7V154a2.136,2.136,0,0,1,.8-1.7,1.669,1.669,0,0,1,1.8-.1l37.7,19.4a2.194,2.194,0,0,1,1.1,1.8,1.992,1.992,0,0,1-1.1,1.8l-37.7,19.4C357.4,194.6,357.1,194.7,356.8,194.7Z" fill="#69afe5"/><path d="M355,173v19.5a2.144,2.144,0,0,0,.792,1.7,1.662,1.662,0,0,0,.991.3,2.311,2.311,0,0,0,.792-.2l37.336-19.4A2.2,2.2,0,0,0,396,173.1V173Z" fill="#8ac5ed"/><path d="M316.9,234.2a1.929,1.929,0,0,1-1-.3,2.227,2.227,0,0,1-.9-1.7V193.5a1.965,1.965,0,0,1,.9-1.7,1.669,1.669,0,0,1,1.8-.1l38,19.4a2.023,2.023,0,0,1,0,3.6l-38,19.4C317.5,234.1,317.2,234.2,316.9,234.2Z" fill="#69afe5"/><path d="M315,213v19.5a1.962,1.962,0,0,0,.9,1.7,1.7,1.7,0,0,0,1,.3,2.375,2.375,0,0,0,.8-.2L355.9,214.9A1.991,1.991,0,0,0,357,213.1V213Z" fill="#8ac5ed"/><path d="M276,72H235v41h41Z" fill="#ffcb40"/><path d="M235,71.9l19.7,19.7L235,112.8Z" fill="#e5a600"/><path d="M315,72H274v41h41Z" fill="#ffcb40"/><path d="M274,71.9l19.8,19.7L274,112.8Z" fill="#e5a600"/><path d="M316,151H275v41h41Z" fill="#ffcb40"/><path d="M275,151.4l19.8,19.7L275,192.3Z" fill="#e5a600"/><path d="M355,232H314v41h41Z" fill="#ffcb40"/><path d="M314,232.4l19.8,19.7L314,273.3Z" fill="#e5a600"/><path d="M276,192H235v41h41Z" fill="#ffcb40"/><path d="M235,192.4l19.7,19.7L235,233.3Z" fill="#e5a600"/><path d="M75,272v43" fill="none" stroke="#b2b2b2" stroke-miterlimit="10" stroke-width="2" stroke-dasharray="3 3"/><path d="M75,63V272" fill="none" stroke="#666" stroke-miterlimit="10" stroke-width="2" stroke-dasharray="3 3"/><path d="M75,43V63" fill="none" stroke="#b2b2b2" stroke-miterlimit="10" stroke-width="2" stroke-dasharray="3 3"/><path d="M115,296v43" fill="none" stroke="#b2b2b2" stroke-miterlimit="10" stroke-width="2" stroke-dasharray="3 3"/><path d="M115,63V296" fill="none" stroke="#666" stroke-miterlimit="10" stroke-width="2" stroke-dasharray="3 3"/><path d="M115,25V63" fill="none" stroke="#b2b2b2" stroke-miterlimit="10" stroke-width="2" stroke-dasharray="3 3"/><path d="M155,256v43" fill="none" stroke="#b2b2b2" stroke-miterlimit="10" stroke-width="2" stroke-dasharray="3 3"/><path d="M155,83V256" fill="none" stroke="#666" stroke-miterlimit="10" stroke-width="2" stroke-dasharray="3 3"/><path d="M155,45V83" fill="none" stroke="#b2b2b2" stroke-miterlimit="10" stroke-width="2" stroke-dasharray="3 3"/><path d="M195,292v43" fill="none" stroke="#b2b2b2" stroke-miterlimit="10" stroke-width="2" stroke-dasharray="3 3"/><path d="M195,49V292" fill="none" stroke="#666" stroke-miterlimit="10" stroke-width="2" stroke-dasharray="3 3"/><path d="M195,11V49" fill="none" stroke="#b2b2b2" stroke-miterlimit="10" stroke-width="2" stroke-dasharray="3 3"/><path d="M235,296v43" fill="none" stroke="#b2b2b2" stroke-miterlimit="10" stroke-width="2" stroke-dasharray="3 3"/><path d="M235,63V296" fill="none" stroke="#666" stroke-miterlimit="10" stroke-width="2" stroke-dasharray="3 3"/><path d="M235,25V63" fill="none" stroke="#b2b2b2" stroke-miterlimit="10" stroke-width="2" stroke-dasharray="3 3"/><path d="M275,286v43" fill="none" stroke="#b2b2b2" stroke-miterlimit="10" stroke-width="2" stroke-dasharray="3 3"/><path d="M275,58V286" fill="none" stroke="#666" stroke-miterlimit="10" stroke-width="2" stroke-dasharray="3 3"/><path d="M275,18V58" fill="none" stroke="#b2b2b2" stroke-miterlimit="10" stroke-width="2" stroke-dasharray="3 3"/><path d="M315,272v43" fill="none" stroke="#b2b2b2" stroke-miterlimit="10" stroke-width="2" stroke-dasharray="3 3"/><path d="M315,49V272" fill="none" stroke="#666" stroke-miterlimit="10" stroke-width="2" stroke-dasharray="3 3"/><path d="M315,11V49" fill="none" stroke="#b2b2b2" stroke-miterlimit="10" stroke-width="2" stroke-dasharray="3 3"/><path d="M355,296v43" fill="none" stroke="#b2b2b2" stroke-miterlimit="10" stroke-width="2" stroke-dasharray="3 3"/><path d="M355,63V296" fill="none" stroke="#666" stroke-miterlimit="10" stroke-width="2" stroke-dasharray="3 3"/><path d="M355,25V63" fill="none" stroke="#b2b2b2" stroke-miterlimit="10" stroke-width="2" stroke-dasharray="3 3"/><path d="M435,251v35" fill="none" stroke="#b2b2b2" stroke-miterlimit="10" stroke-width="2" stroke-dasharray="3 3"/><path d="M435,78V251" fill="none" stroke="#666" stroke-miterlimit="10" stroke-width="2" stroke-dasharray="3 3"/><path d="M435,48V78" fill="none" stroke="#b2b2b2" stroke-miterlimit="10" stroke-width="2" stroke-dasharray="3 3"/><path d="M395,286v43" fill="none" stroke="#b2b2b2" stroke-miterlimit="10" stroke-width="2" stroke-dasharray="3 3"/><path d="M395,83V286" fill="none" stroke="#666" stroke-miterlimit="10" stroke-width="2" stroke-dasharray="3 3"/><path d="M395,45V83" fill="none" stroke="#b2b2b2" stroke-miterlimit="10" stroke-width="2" stroke-dasharray="3 3"/><path d="M147,33H121" fill="none" stroke="#b2b2b2" stroke-miterlimit="10" stroke-width="2" stroke-dasharray="3 3"/><path d="M395,33H147" fill="none" stroke="#666" stroke-miterlimit="10" stroke-width="2" stroke-dasharray="3 3"/><path d="M429,33H395" fill="none" stroke="#b2b2b2" stroke-miterlimit="10" stroke-width="2" stroke-dasharray="3 3"/><path d="M117,73H44" fill="none" stroke="#b2b2b2" stroke-miterlimit="10" stroke-width="2" stroke-dasharray="3 3"/><path d="M370,73H117" fill="none" stroke="#666" stroke-miterlimit="10" stroke-width="2" stroke-dasharray="3 3"/><path d="M418,73H370" fill="none" stroke="#b2b2b2" stroke-miterlimit="10" stroke-width="2" stroke-dasharray="3 3"/><path d="M134,113H80" fill="none" stroke="#b2b2b2" stroke-miterlimit="10" stroke-width="2" stroke-dasharray="3 3"/><path d="M413,113H134" fill="none" stroke="#666" stroke-miterlimit="10" stroke-width="2" stroke-dasharray="3 3"/><path d="M460,113H413" fill="none" stroke="#b2b2b2" stroke-miterlimit="10" stroke-width="2" stroke-dasharray="3 3"/><path d="M104,153H50" fill="none" stroke="#b2b2b2" stroke-miterlimit="10" stroke-width="2" stroke-dasharray="3 3"/><path d="M395,153H104" fill="none" stroke="#666" stroke-miterlimit="10" stroke-width="2" stroke-dasharray="3 3"/><path d="M443,153H395" fill="none" stroke="#b2b2b2" stroke-miterlimit="10" stroke-width="2" stroke-dasharray="3 3"/><path d="M117,193H63" fill="none" stroke="#b2b2b2" stroke-miterlimit="10" stroke-width="2" stroke-dasharray="3 3"/><path d="M370,193H117" fill="none" stroke="#666" stroke-miterlimit="10" stroke-width="2" stroke-dasharray="3 3"/><path d="M418,193H370" fill="none" stroke="#b2b2b2" stroke-miterlimit="10" stroke-width="2" stroke-dasharray="3 3"/><path d="M134,233H52" fill="none" stroke="#b2b2b2" stroke-miterlimit="10" stroke-width="2" stroke-dasharray="3 3"/><path d="M413,233H134" fill="none" stroke="#666" stroke-miterlimit="10" stroke-width="2" stroke-dasharray="3 3"/><path d="M460,233H413" fill="none" stroke="#b2b2b2" stroke-miterlimit="10" stroke-width="2" stroke-dasharray="3 3"/><path d="M104,273H50" fill="none" stroke="#b2b2b2" stroke-miterlimit="10" stroke-width="2" stroke-dasharray="3 3"/><path d="M395,273H104" fill="none" stroke="#666" stroke-miterlimit="10" stroke-width="2" stroke-dasharray="3 3"/><path d="M443,273H395" fill="none" stroke="#b2b2b2" stroke-miterlimit="10" stroke-width="2" stroke-dasharray="3 3"/><path d="M147,313H93" fill="none" stroke="#b2b2b2" stroke-miterlimit="10" stroke-width="2" stroke-dasharray="3 3"/><path d="M365,313H147" fill="none" stroke="#666" stroke-miterlimit="10" stroke-width="2" stroke-dasharray="3 3"/><path d="M410,313H370" fill="none" stroke="#b2b2b2" stroke-miterlimit="10" stroke-width="2" stroke-dasharray="3 3"/><g opacity="0.66"><path d="M125,99H84v41h41Z" fill="#ffcb40" opacity="0.66" style="isolation:isolate"/><path d="M84,99.4l19.8,19.7L84,140.3Z" fill="#e5a600" opacity="0.66" style="isolation:isolate"/></g><g opacity="0.58"><g opacity="0.58"><path d="M42,223.4a2.016,2.016,0,0,1-1.1-.3,1.965,1.965,0,0,1-.9-1.7V182.7a2.227,2.227,0,0,1,.9-1.7,1.857,1.857,0,0,1,1.9-.1l41.8,19.4a1.95,1.95,0,0,1,0,3.6L42.9,223.2A1.486,1.486,0,0,1,42,223.4Z" fill="#69afe5" opacity="0.58" style="isolation:isolate"/></g><path d="M40,202v19.5a2.226,2.226,0,0,0,.9,1.7,2.023,2.023,0,0,0,1.1.3,2.926,2.926,0,0,0,.9-.2L84.8,203.9a2.089,2.089,0,0,0,1.2-1.8V202Z" fill="#8ac5ed" opacity="0.58" style="isolation:isolate"/></g><g opacity="0.86"><path d="M204,159H163v41h41Z" fill="#ffcb40" opacity="0.86" style="isolation:isolate"/><path d="M163,159l19.7,19.8L163,200Z" fill="#e5a600" opacity="0.86" style="isolation:isolate"/></g><g opacity="0.9"><g opacity="0.9"><path d="M203,282.5a2.016,2.016,0,0,1-1.1-.3,1.965,1.965,0,0,1-.9-1.7V241.8a2.227,2.227,0,0,1,.9-1.7,1.857,1.857,0,0,1,1.9-.1l41.8,19.4a1.95,1.95,0,0,1,0,3.6l-41.8,19.4C203.6,282.4,203.3,282.5,203,282.5Z" fill="#69afe5" opacity="0.9" style="isolation:isolate"/></g><path d="M201,261v19.5a2.226,2.226,0,0,0,.9,1.7,2.023,2.023,0,0,0,1.1.3,2.926,2.926,0,0,0,.9-.2L245.8,262.9a2.089,2.089,0,0,0,1.2-1.8V261Z" fill="#8ac5ed" opacity="0.9" style="isolation:isolate"/></g><g opacity="0.9"><g opacity="0.9"><path d="M220,163.7a2.016,2.016,0,0,1-1.1-.3,1.965,1.965,0,0,1-.9-1.7V123a2.227,2.227,0,0,1,.9-1.7,1.857,1.857,0,0,1,1.9-.1l41.8,19.4a1.95,1.95,0,0,1,0,3.6l-41.8,19.4C220.6,163.6,220.3,163.7,220,163.7Z" fill="#69afe5" opacity="0.9" style="isolation:isolate"/></g><path d="M218,142v19.5a2.226,2.226,0,0,0,.9,1.7,2.023,2.023,0,0,0,1.1.3,2.926,2.926,0,0,0,.9-.2L262.8,143.9a2.089,2.089,0,0,0,1.2-1.8V142Z" fill="#8ac5ed" opacity="0.9" style="isolation:isolate"/></g><g opacity="0.66"><g opacity="0.66"><path d="M101,259a2.016,2.016,0,0,1-1.1-.3A1.965,1.965,0,0,1,99,257V218.3a2.227,2.227,0,0,1,.9-1.7,1.857,1.857,0,0,1,1.9-.1l41.8,19.4a1.95,1.95,0,0,1,0,3.6l-41.8,19.4C101.6,258.9,101.3,259,101,259Z" fill="#69afe5" opacity="0.66" style="isolation:isolate"/></g><path d="M98,238v19.5a2.226,2.226,0,0,0,.9,1.7,2.023,2.023,0,0,0,1.1.3,2.926,2.926,0,0,0,.9-.2L142.8,239.9a2.089,2.089,0,0,0,1.2-1.8V238Z" fill="#8ac5ed" opacity="0.66" style="isolation:isolate"/></g></svg>