<svg xmlns="http://www.w3.org/2000/svg" viewBox="0 0 636 300"><title>swimlane-vsts-extensibility-ree</title><path d="M447.5,128.179h62m-105-67h-20m.037,88.972L429.562,196.3l56.563-.063M447.572,89.775,499.051,38.3M404.5,95.179h25m-56,65h-49m-49,17h-100M271.628,80.74l38.9-38.9m-83.112,86.745H164.19m63.222-48.982L181.443,33.638M271.5,90.179h-31m31,24h44m-54.5,47.5v-22" fill="none" stroke="#90c10c" stroke-miterlimit="10" stroke-width="5"/><path d="M320.8,58.579c-1.5-2.722-1.657-3.476-1.5-6.035,0-1.651.449-2.1.9-1.351-.454-1.657.6-2.712.9-1.657a.7.7,0,0,1,.9-.754c.454,0,.3.754.153,1.055.449-.153,1.2,0,1.05,1.2,0,1.055.3,1.2.3,1.2.3-.9.9-1.2,1.356-.749a40.573,40.573,0,0,0-.3,4.516c-.153.3-.153.449-.3.765l1.957,6.769L322.3,62.8Z" fill="#a88763"/><path d="M404.584,129.077l-23.809-23.808" fill="none" stroke="#90c10c" stroke-miterlimit="10" stroke-width="5"/><path d="M387.6,291.679H285.7a4.113,4.113,0,0,1-4.022-4,4.022,4.022,0,0,1,4.022-4H387.6a3.939,3.939,0,0,1,4.022,4A4.023,4.023,0,0,1,387.6,291.679Z" fill="#b2b2b2"/><path d="M329,288.679V186.1l-57-57V26.679m75,262V186.132l57-57V34.679" fill="none" stroke="#65aa0d" stroke-miterlimit="10" stroke-width="5"/><path d="M366,288.679v-78.1l82-82v-88.9m-139,249v-78.1l-82-82v-94.9" fill="none" stroke="#65aa0d" stroke-miterlimit="10" stroke-width="5"/><path d="M337.5,26.751V54.6a2.08,2.08,0,0,1-2.08,2.08H293.58a2.08,2.08,0,0,1-2.08-2.08V26.759a2.08,2.08,0,0,1,2.08-2.08h41.85a2.07,2.07,0,0,1,2.07,2.07v0Z" fill="#2e2e2e"/><path d="M295.5,26.679h37v28h-37Z" fill="#2488d8"/><circle cx="293.518" cy="40.887" r="0.543" fill="#5d5f5e"/><circle cx="335.15" cy="40.943" r="1.07" fill="#5d5f5e"/><path d="M332.5,45.236V26.679H312.231Z" fill="#69afe5"/><path d="M227.5,203.678V162.391a1.712,1.712,0,0,0-1.712-1.712H165.212a1.712,1.712,0,0,0-1.712,1.712v41.288Z" fill="#2e2e2e"/><path d="M166.5,163.679h58v37h-58Z" fill="#2488d8"/><path d="M232.236,205.679H158.205c-2.468.14-2.871-3.26-2.871-3h79.772C235.107,202.419,234.15,205.818,232.236,205.679Z" fill="#2e2e2e"/><path d="M194.5,161.679h1v1h-1Z" fill="#5d5f5e"/><path d="M224.5,163.679H197.851L224.5,188.613Z" fill="#69afe5"/><path d="M163.889,88.24l39.429,39.429" fill="none" stroke="#90c10c" stroke-miterlimit="10" stroke-width="5"/><circle cx="447.412" cy="30.3" r="10.34" fill="#cbe247" stroke="#90c10c" stroke-miterlimit="10" stroke-width="5.527"/><circle cx="438.675" cy="94.929" r="10.34" fill="#cbe247" stroke="#90c10c" stroke-miterlimit="10" stroke-width="5.527"/><circle cx="374.412" cy="60.3" r="10.34" fill="#cbe247" stroke="#90c10c" stroke-miterlimit="10" stroke-width="5.527"/><path d="M169.9,142.679H131.1a1.6,1.6,0,0,1-1.595-1.595h0v-23.81a1.6,1.6,0,0,1,1.595-1.595H169.9a1.6,1.6,0,0,1,1.595,1.595v23.81a1.6,1.6,0,0,1-1.595,1.595Z" fill="#0078d7"/><path d="M137.5,120.679h2v17h-2Zm6,0h2v17h-2Zm6,0h2v17h-2Zm6,0h2v17h-2Zm6,0h2v17h-2Z" fill="#004578"/><path d="M135.5,131.679h6v3h-6Zm24-10h6v3h-6Zm-6,8h6v3h-6Zm-6-4h6v3h-6Zm-6-3h6v3h-6Z" fill="#b3d6f2"/><path d="M423.238,38.679H385.761a1.262,1.262,0,0,1-1.262-1.262V12.94a1.262,1.262,0,0,1,1.262-1.262h37.477A1.262,1.262,0,0,1,424.5,12.94V37.417A1.262,1.262,0,0,1,423.238,38.679Z" fill="#0078d7"/><path d="M388.5,15.679h31v3h-31Zm0,5h31v3h-31Zm0,5h31v3h-31Zm0,5h31v3h-31Z" fill="#004578"/><path d="M388.5,15.679h9v3h-9Zm18,5h9v3h-9Zm-12,5h9v3h-9Zm6,5h9v3h-9Z" fill="#b3d6f2"/><path d="M462.833,128.649l27.2-27.2" fill="none" stroke="#90c10c" stroke-miterlimit="10" stroke-width="5"/><circle cx="495.607" cy="94.478" r="10.34" fill="#cbe247" stroke="#90c10c" stroke-miterlimit="10" stroke-width="5.527"/><circle cx="158.646" cy="81.929" r="10.34" fill="#cbe247" stroke="#90c10c" stroke-miterlimit="10" stroke-width="5"/><circle cx="227.412" cy="25.3" r="10.34" fill="#cbe247" stroke="#90c10c" stroke-miterlimit="10" stroke-width="5.527"/><circle cx="314.134" cy="160.491" r="10.34" fill="#cbe247" stroke="#90c10c" stroke-miterlimit="10" stroke-width="5.527"/><circle cx="271.511" cy="15.179" r="10.34" fill="#cbe247" stroke="#90c10c" stroke-miterlimit="10" stroke-width="5.527"/><circle cx="261.171" cy="129.177" r="10.34" fill="#cbe247" stroke="#90c10c" stroke-miterlimit="10" stroke-width="5.527"/><path d="M155.5,22.679h48v33h-48Z" fill="#2488d8"/><path d="M159.5,26.679h12v7h-12Zm14,0h12v7h-12Zm14,0h12v7h-12Zm-28,9h12v7h-12Zm14,0h12v7h-12Zm14,0h12v7h-12Zm-28,9h12v7h-12Zm14,0h12v7h-12Zm14,0h12v7h-12Z" fill="#b3d6f2"/><circle cx="314.046" cy="113.258" r="22.422" fill="#0078d7"/><path d="M327.121,104.02l-4.266,4.257-2.742-.913-.913-2.736,4.265-3.952a5.663,5.663,0,0,0-6.4,1.215,6.208,6.208,0,0,0-1.219,6.386l-13.707,13.68a2.028,2.028,0,0,0,0,3.04l.306.3a2.391,2.391,0,0,0,3.35,0l13.4-13.68a5.661,5.661,0,0,0,6.4-1.216,6.339,6.339,0,0,0,1.524-6.385m-24.065,20.368a1.14,1.14,0,0,1,0-1.824c.61-.607,1.523-.607,1.828,0a1.139,1.139,0,0,1,0,1.824c-.305.609-1.218.609-1.828,0" fill="#b3d6f2"/><path d="M323.832,125.924l1.3-1.3a2.122,2.122,0,0,0,0-3.179l-9.557-9.22a1.687,1.687,0,0,0-2.549-.317l-6.052-6.041-.637-2.544-5.1-2.862-1.352,1.352,3.068,5.287,2.62.561,6.038,6.038c-.705,1.021-.173,3.03-.173,3.03l9.543,9.525a2.379,2.379,0,0,0,2.864,0" fill="#004578"/><circle cx="492.433" cy="44.569" r="21.893" fill="#69afe5"/><path d="M484.379,52.31s-3.51-1.254-5.307,6.184c7.187-1.922,5.887-5.637,5.887-5.637Z" fill="#fff"/><path d="M486,54.819l-3.4-3.42,3.053-.562.928.932Z" fill="#004578"/><path d="M485.673,48.135l3.607,3.627-1.661,1.653-3.608-3.628Z" fill="#004578"/><path d="M505.322,32.2l.034-.034-.03,0,0-.03-.034.034c-.828.111-11.059,1.567-15.654,6.137a20.067,20.067,0,0,0-5.613,10.119l2.448,2.462.026.026,2.448,2.461A20.068,20.068,0,0,0,499.1,47.823c4.595-4.571,6.106-14.794,6.222-15.621Z" fill="#005a93"/><path d="M487.508,44.159s-4.77-2.817-6.789-.554a38.714,38.714,0,0,0-3.339,4.315l.75.637s2.405-2.611,4.346-2.652a9.033,9.033,0,0,1,3.233,1.135l1.8-2.881Z" fill="#005a93"/><path d="M493.405,50.088s2.791,4.785.517,6.792a38.712,38.712,0,0,1-4.333,3.315l-.633-.753s2.624-2.39,2.676-4.331a9.041,9.041,0,0,0-1.117-3.239Z" fill="#004578"/><path d="M505.322,32.2l.034-.034-.03,0,0-.03-.034.034h0L486.476,50.891h0l.026.026,2.448,2.461A20.068,20.068,0,0,0,499.1,47.821c4.595-4.569,6.106-14.792,6.222-15.619Z" fill="#004578"/><path d="M502.969,41.317a45.684,45.684,0,0,0,2.353-9.115l.034-.034-.03,0,0-.03-.034.034a45.715,45.715,0,0,0-9.128,2.3Z" fill="#fff"/><path d="M499.511,37.84l3.458,3.477a45.684,45.684,0,0,0,2.353-9.115l.034-.034-.03,0,0-.03-.034.034-.105.015Z" fill="#fff"/><path d="M159.5,26.679h2v7h-2Zm0,9h2v7h-2Zm0,9h2v7h-2Z" fill="#004578"/><path d="M173.5,26.679h2v7h-2Zm0,9h2v7h-2Zm0,9h2v7h-2Z" fill="#004578"/><path d="M187.5,26.679h2v7h-2Zm0,9h2v7h-2Zm0,9h2v7h-2Z" fill="#004578"/><circle cx="232.261" cy="90.179" r="10.34" fill="#cbe247" stroke="#90c10c" stroke-miterlimit="10" stroke-width="5.527"/><circle cx="382.011" cy="107.179" r="10.34" fill="#cbe247" stroke="#90c10c" stroke-miterlimit="10" stroke-width="5.527"/><path d="M525.51,151.679H506.49a.99.99,0,0,1-.99-.99v-38.02a.99.99,0,0,1,.99-.99h19.02a.99.99,0,0,1,.99.99v38.02A.991.991,0,0,1,525.51,151.679Z" fill="#2e2e2e"/><path d="M505.5,146.679V150.7a.984.984,0,0,0,.984.984h19.032a.985.985,0,0,0,.984-.984h0v-4.016Z" fill="#2e2e2e"/><path d="M507.5,116.679h17v29h-17Z" fill="#2488d8"/><path d="M524.5,131.386V116.679H508.626Z" fill="#69afe5"/><path d="M512.5,113.679h7v1h-7Z" fill="#737373"/><path d="M508.5,147.679h1v1h-1Zm7,0h1v1h-1Zm7,0h1v1h-1Z" fill="#acacac"/><path d="M492,215.179H462.166V177.512h19.5l10.417,10.417Z" fill="#69afe5"/><path d="M493.5,187.679l-10.982-11H463.47a1.97,1.97,0,0,0-1.971,1.971h0v36.059a1.971,1.971,0,0,0,1.971,1.971h28.059a2.052,2.052,0,0,0,1.971-1.971v-27.03Zm-11-8.336,8.335,8.335H482.5Zm9,35.336-28,.029-.029-36.029,17.029-.018v9.187a1.831,1.831,0,0,0,1.831,1.831H491.5Z" fill="#004578"/><path d="M468.5,193.679h17v3h-17Zm0,5h17v3h-17Zm0,5h17v3h-17Z" fill="#b3d6f2"/><path d="M354.836,156.229c-1.055,1.208-.754,1.208-1.2,2.574h-2.11c.153-.917-.148-1.519-1.667-.917l4.98-1.657Z" fill="#0d520d"/><path d="M354.535,153.37l.449,2.258c0,.6-.449.9-1.2,1.208L348.2,158.35a14.841,14.841,0,0,1-3.609.454h-3.16c-1.657,0-1.055-.917-.754-1.065a32.765,32.765,0,0,0,6.473-2.411C349.1,154.277,354.535,153.37,354.535,153.37Zm9.032,2.859c-1.055,1.208-.754,1.208-1.055,2.574h-2.258c.3-.917,0-1.519-1.657-.917Z" fill="#0d520d"/><path d="M353.934,151.418c0,.749.6,1.5.6,1.952.148.6-8.441,3.012-8.441,3.012-.153.148-1.5.148-1.055-.153,1.957-.9,5.734-3.308,5.571-4.363l3.324-.448Z" fill="#a88763"/><path d="M363.261,153.37l.454,2.258c0,.6-.454.9-1.2,1.208l-5.571,1.514a14.841,14.841,0,0,1-3.609.454h-3.175c-1.657,0-1.055-.917-.754-1.065a37.058,37.058,0,0,0,6.636-2.411C358,154.277,363.261,153.37,363.261,153.37Z" fill="#0d520d"/><path d="M362.66,151.418c0,.749.6,1.5.6,1.952.153.6-8.425,3.012-8.425,3.012-.153.148-1.5.148-1.055-.153,1.957-.9,5.719-3.308,5.571-4.363l3.308-.448ZM346.7,125.489a3,3,0,0,0,2.707,3.16,3.125,3.125,0,0,0,3.175-2.859l3.012-24.415a4.861,4.861,0,0,0-4.669-4.97,4.753,4.753,0,0,0-5.128,4.368Z" fill="#a88763"/><path d="M362.813,152.468c0,.9-3.16,1.2-3.313.3l-4.062-26.826a2.945,2.945,0,0,1,5.872-.453c1.35,8.139.147,15.978,1.5,26.978Zm-8.731,0c0,.9-3.308,1.2-3.308.3L346.7,125.943a2.894,2.894,0,0,1,2.707-3.16,2.987,2.987,0,0,1,3.175,2.707c1.356,8.139.153,15.978,1.5,26.978Z" fill="#a88763"/><path d="M355.437,125.489a2.941,2.941,0,1,0,5.872.3l3.007-24.415a4.761,4.761,0,0,0-4.664-4.97,4.842,4.842,0,0,0-5.117,4.368Z" fill="#a88763"/><path d="M345.492,100.168h9.344v23.516h-9.344Z" fill="#004b1c"/><path d="M354.835,100.168h9.482v23.516h-9.482Z" fill="#004b1c"/><path d="M353.633,103.49l12.039-1.667-4.215-11.147L360.1,74.7l-2.559-3.16-7.385-3.313,2.574,32.55Z" fill="#004b1c"/><path d="M353.032,103.49l-7.993,1.356V93.081l-4.663-14.46,1.5-7.386,7.977-3.012,3.176,32.7Z" fill="#004b1c"/><path d="M330.88,74.543a3.01,3.01,0,1,1-6.019,0,2.893,2.893,0,0,1,2.859-3.007,3.256,3.256,0,0,1,3.16,3.007Z" fill="#0d520d"/><path d="M342.781,79.075a4.071,4.071,0,1,1-.186-8.14h.038a4.071,4.071,0,1,1,.185,8.14Z" fill="#004b1c"/><path d="M342.781,70.935l-15.062.6.153,6.03,14.909,1.657Z" fill="#004b1c"/><path d="M320.645,60.384l4.669-1.351.448,1.351L321.1,61.892Z" fill="#3b930f"/><path d="M326.817,71.684a3.031,3.031,0,0,1,3.762,1.809,2.979,2.979,0,1,1-5.566,2.116,3.137,3.137,0,0,1,1.8-3.925Z" fill="#004b1c"/><path d="M321.1,61.892l3.915,13.717,5.566-2.116-4.363-13.257Z" fill="#004b1c"/><path d="M345.942,64.145l6.336-.449.754,5.882s.749,7.686-1.809,7.839S347.3,70.48,347.3,70.48l-1.356-6.335Z" fill="#a88763"/><path d="M350.774,62.8c.749,3.17-.316,4.98-4.078,5.128l-.9-3.777Z" fill="#936f51"/><path d="M343.684,61.74c-1.651-.454-1.05-.9-.9-1.055.153-.3,1.957-2.105,1.957-2.559,0-.148.153-.3.153-.449a3.351,3.351,0,0,0,2.707,0,3.633,3.633,0,0,1,.9,1.957,8.534,8.534,0,0,1-.148,1.05c0,.6.749.153.749.153a4.661,4.661,0,0,1,1.356-.754c.617.454.316,2.11.153,2.712a1.148,1.148,0,0,0-.153.449s-.3,2.411,1.065,2.875c-2.268,1.2-5.128.749-6.483.6-1.5-.153-1.356-.754-1.356-.754C343.836,65.053,343.984,62.193,343.684,61.74Z" fill="#a88763"/><path d="M349.1,56.775l-.3,1.351v.153a5.5,5.5,0,0,1-.3,1.356,3.63,3.63,0,0,0-.9-1.957A4.26,4.26,0,0,0,349.1,56.775Zm1.356,3.308a.685.685,0,0,1,.917.3,2.077,2.077,0,0,1-.3,1.509c-.153.3-.3.6-.464.9C350.774,62.193,351.074,60.537,350.458,60.083Z" fill="#936f51"/><path d="M350.458,63.243s-.3,2.258,1.065,2.875h.153a7,7,0,0,0,4.817-2.574c.148.153.449.153.749.153a3.984,3.984,0,0,0,4.516-3.614,4.221,4.221,0,0,0-3.609-4.679H357.4a10.876,10.876,0,0,0-1.8-1.952,7.533,7.533,0,0,0-2.859-1.509,6.753,6.753,0,0,0-5.133.754,2.872,2.872,0,0,0-3.308,2.258,3,3,0,0,0,.6,2.722,3.351,3.351,0,0,0,2.707,0,4.249,4.249,0,0,0,1.5-.9l-.749,3.909c0,.6.749.153.749.153a4.661,4.661,0,0,1,1.356-.754.685.685,0,0,1,.917.3,2.077,2.077,0,0,1-.3,1.509c-.153.3-.3.6-.464.9a1.142,1.142,0,0,0-.153.448Z" fill="#613d30"/><path d="M346.242,59.782c-.148,0-.148,0-.3.153,0-.153-.148-.153-.148-.3a.483.483,0,0,1,.449-.454.4.4,0,0,1,.454.454v.3A.552.552,0,0,0,346.242,59.782Z"/><path d="M350.774,74.7l1.8,21.561L348.954,81.18,346.849,75l1.5-4.817.3,1.356Z" fill="#3b930f"/><path d="M350.774,74.7l1.8,21.561,1.2-14.624,1.2-7.237-3.308-4.669.148,1.208Z" fill="#bce2bc"/><path d="M352.731,67.474l.4,1.892,2.3,5.631L351,70.559Z" fill="#936f51"/><path d="M345.641,63.7a3.3,3.3,0,0,1-.9.148c-.3,0-.449,0-.6-.148h-.3c-.153,0-.153,0-.153.148a.15.15,0,0,0,.153.153h.3a1.113,1.113,0,0,0,.6-.153A3.3,3.3,0,0,0,345.641,63.7Z" fill="#8a0000"/><path d="M345.641,63.7a3.3,3.3,0,0,1-.9.148,1.563,1.563,0,0,1-.9,0l-.153.153c0,.148,0,.148.153.148a3.253,3.253,0,0,0,.9-.148C345.192,63.845,345.641,63.7,345.641,63.7Z" fill="#8a0000"/><path d="M348.2,83.285a.4.4,0,0,0,.454.454c.148,0,.3-.3.3-.454a.4.4,0,0,0-.454-.449C348.352,82.836,348.2,83.137,348.2,83.285Zm1.957,6.636c0,.153.153.3.454.3.163,0,.464-.148.311-.449,0-.153-.148-.306-.464-.306-.148,0-.3.154-.3.454Zm1.967,6.784c0,.153.153.3.454.3a.478.478,0,0,0,.454-.449c-.153-.153-.3-.3-.454-.3A.4.4,0,0,0,352.124,96.705Z" fill="#0d520d"/><path d="M345.493,104.7l7.539-1.208v-2.569l.6,2.569,10.683-1.366v1.065L345.493,106.5Z" fill="#003c16"/><path d="M342.481,71.383a2.876,2.876,0,0,0-1.957-3.762,3.144,3.144,0,0,0-3.762,2.105,2.922,2.922,0,0,0,2.11,3.614A2.723,2.723,0,0,0,342.481,71.383Z" fill="#0d520d"/><path d="M357.242,71.383a4.154,4.154,0,0,0-5.117,2.859,4.367,4.367,0,0,0,2.859,5.133,4.206,4.206,0,0,0,5.117-2.859A4.092,4.092,0,0,0,357.242,71.383Z" fill="#004b1c"/><path d="M354.984,79.223,338.872,73.34l1.651-5.718,16.719,3.761Z" fill="#004b1c"/><path d="M337.965,68.075a3.109,3.109,0,0,0-.749,4.21,2.947,2.947,0,0,0,4.215.607,2.782,2.782,0,0,0,.6-4.067,2.932,2.932,0,0,0-4.067-.75Z" fill="#004b1c"/><path d="M329.223,59.634a9.995,9.995,0,0,1-3.762-4.679c-.6-1.356-.3-1.957.3-1.5-1.05-1.055-.449-2.411.153-1.657-.153-.3-.3-.9.3-1.055.3-.148.6.6.749.9.3-.3.907-.3,1.208.6a5.578,5.578,0,0,0,.9,1.356c0-1.055.3-1.5.749-1.2.306,1.055,1.208,2.406,1.509,3.762,0,.3.148.454.148.765l4.078,4.817-3.476.9-2.86-3.007Z" fill="#a88763"/><path d="M331.93,56.879l-3.91,3.056.9,1.2,4-2.933Z" fill="#3b930f"/><path d="M332.837,57.978l9.195,10.846-4.817,3.461-8.593-11Z" fill="#004b1c"/><path d="M354.984,79.375c2.931.8,4.368-.6,5.117-2.712a4.12,4.12,0,0,1-4.965,2.411c-.3,0-15.363-5.882-15.363-5.882a5,5,0,0,1-2.411-1.356l-.6-.754-7.987-9.8h-.153l8.594,11a3.865,3.865,0,0,0,1.657,1.208" fill="#3b930f"/><path d="M162.5,28.679h7v1h-7Zm14,0h7v1h-7Zm14,0h7v1h-7Zm-28,9h7v1h-7Zm28,0h7v1h-7Zm0,9h7v1h-7Zm-28-16h7v1h-7Zm28,0h7v1h-7Zm-14,7h7v1h-7Zm0,9h7v1h-7Zm-14,0h7v1h-7Zm14-7h7v1h-7Zm-14,9h7v1h-7Z" fill="#69afe5"/></svg>