<svg xmlns="http://www.w3.org/2000/svg" viewBox="0 0 636 300"><title>swimlane-machine-learning-for-dotnet</title><line x1="399.778" y1="205.25" x2="399.778" y2="49.75" fill="none" stroke="#b2b2b2" stroke-miterlimit="10"/><path d="M240.778,155.75v6.1a7.4,7.4,0,0,0,7.4,7.4h26.471a10.131,10.131,0,0,1,10.131,10.131V208.75" fill="none" stroke="#b2b2b2" stroke-miterlimit="10"/><path d="M264.778,84.75v71.316a7.184,7.184,0,0,0,7.184,7.184h11.474a13.343,13.343,0,0,1,13.342,13.342V199.75" fill="none" stroke="#b2b2b2" stroke-miterlimit="10"/><line x1="354.778" y1="235.75" x2="354.778" y2="95.75" fill="none" stroke="#b2b2b2" stroke-miterlimit="10"/><path d="M407.778,233.75V182.463a8.213,8.213,0,0,1,8.213-8.213H444.16a12.617,12.617,0,0,0,12.618-12.617V126.75" fill="none" stroke="#b2b2b2" stroke-miterlimit="10"/><path d="M398.509,106h0a20.933,20.933,0,0,0-1.956-1.145l-.055-.028c-.2-.1-.4-.2-.608-.3l-.168-.078c-.2-.091-.395-.18-.6-.265l-.16-.065q-.912-.378-1.873-.677c-.121-.038-.242-.076-.365-.112q-.238-.069-.478-.133c-.146-.039-.292-.076-.439-.112s-.295-.073-.444-.107c-.194-.044-.391-.083-.588-.122-.116-.023-.231-.048-.348-.069q-.43-.078-.869-.139c-.112-.016-.225-.029-.338-.043-.212-.027-.424-.052-.637-.073l-.358-.032c-.223-.018-.446-.033-.671-.046l-.315-.017c-.329-.013-.659-.022-.993-.022a22.829,22.829,0,0,0-8.18,1.484q-.935.359-1.818.8-.441.218-.869.454-.855.474-1.651,1.018t-1.527,1.154a18.133,18.133,0,0,0-6.694,13.981,17.732,17.732,0,0,0,2.92,9.756q.233.357.482.7a18.947,18.947,0,0,0,1.637,1.973l.007.007.04.041q.169.177.345.351c.037.039.072.079.109.117l.027.029h0c6.177,6.5,8.434,15.475,8.434,15.475h13.549s2.246-9.018,8.394-15.518A18,18,0,0,0,406.99,121.3,18.33,18.33,0,0,0,398.509,106Z" fill="#ffb900"/><polygon points="389.128 165.75 383.401 165.75 380.083 161.75 392.446 161.75 389.128 165.75" fill="#939393"/><rect x="378.278" y="149.75" width="16" height="13" fill="#939393"/><rect x="378.278" y="153.75" width="14" height="2" fill="#505050"/><rect x="378.278" y="157.75" width="14" height="2" fill="#505050"/><rect x="423.278" y="78.75" width="68" height="45" transform="translate(914.556 202.5) rotate(180)" fill="#00b294"/><rect x="423.278" y="78.75" width="68" height="15" transform="translate(914.556 172.5) rotate(180)" fill="#40c5af"/><rect x="423.278" y="108.75" width="68" height="15" transform="translate(914.556 232.5) rotate(180)" fill="#40c5af"/><line x1="303.778" y1="205.75" x2="303.778" y2="159" fill="none" stroke="#b2b2b2" stroke-miterlimit="10"/><path d="M278.778,203.5V180.071c0-3.767-3.554-6.821-7.321-6.821H220.422c-8.364,0-14.644-6.78-14.644-15.144V123.5" fill="none" stroke="#b2b2b2" stroke-miterlimit="10"/><path d="M454.848,292.75H242.142a4.627,4.627,0,0,1-4.525-4.5,4.526,4.526,0,0,1,4.525-4.5H454.848a4.432,4.432,0,0,1,4.525,4.5,4.525,4.525,0,0,1-4.525,4.5Z" fill="#b2b2b2"/><line x1="407.778" y1="62.75" x2="407.778" y2="96.083" fill="none" stroke="#b2b2b2" stroke-miterlimit="10" stroke-dasharray="2 2"/><line x1="333.778" y1="129.75" x2="333.778" y2="173.083" fill="none" stroke="#b2b2b2" stroke-miterlimit="10" stroke-dasharray="2 2"/><line x1="314.778" y1="172.75" x2="314.778" y2="216.083" fill="none" stroke="#b2b2b2" stroke-miterlimit="10" stroke-dasharray="2 2"/><line x1="271.778" y1="102.75" x2="271.778" y2="146.083" fill="none" stroke="#b2b2b2" stroke-miterlimit="10" stroke-dasharray="2 2"/><path d="M316.778,79.25V10.673a3.423,3.423,0,0,0-3.423-3.423H214.2a3.422,3.422,0,0,0-3.422,3.423V79.25Z" fill="#2e2e2e" stroke="#909090" stroke-miterlimit="10" stroke-width="1.221"/><rect x="197.278" y="78.75" width="132" height="3" fill="#4b4a4b"/><path d="M315.366,82.75H213.941c-14.859.245-16.695-1.806-16.695-2H328.472C328.472,80.944,326.969,83,315.366,82.75Z" fill="#2e2e2e"/><rect x="215.278" y="12.75" width="96" height="61" fill="#8fc3ec"/><path d="M252.418,78.75c.017,1.422.735,2.133,1.622,2h17.6c.887.133,1.6-.578,1.622-2Z" fill="#c7c7c7"/><polygon points="311.278 55.539 311.278 12.75 274.924 12.75 311.278 55.539" fill="#b3d6f2"/><path d="M264.1,10.116A1.115,1.115,0,1,1,262.984,9,1.115,1.115,0,0,1,264.1,10.116Z" fill="#767576"/><path d="M310.119,93.75H279.4a1.128,1.128,0,0,0-1.127,1.127v59.746a1.128,1.128,0,0,0,1.127,1.127h46.746a1.128,1.128,0,0,0,1.127-1.124l.13-43.549Z" fill="#c2c2c2"/><path d="M327.278,110.688,310.308,93.75h-.03v15.873a1.128,1.128,0,0,0,1.127,1.127h15.873Z" fill="#939393"/><rect x="285.278" y="118.75" width="34" height="3" fill="#fff"/><rect x="285.278" y="126.75" width="34" height="3" fill="#fff"/><rect x="285.278" y="134.75" width="34" height="3" fill="#fff"/><path d="M144.722,111.207c0,5.345,4.319,10.406,9.938,10.406h72.559a16.13,16.13,0,0,0,.076-32.259,15.938,15.938,0,0,0-4.072.528c0-.176.013-.351.013-.528a20.6,20.6,0,0,0-40.875-3.675,15.921,15.921,0,0,0-27.071,15.909,9.762,9.762,0,0,0-1.046-.059A9.546,9.546,0,0,0,144.722,111.207Z" fill="#ffcb40"/><path d="M348.278,90.577V62.923a2.319,2.319,0,0,0-2.406-2.173h-9.188a2.319,2.319,0,0,0-2.406,2.173V90.577a2.319,2.319,0,0,0,2.406,2.173h9.188A2.319,2.319,0,0,0,348.278,90.577Z" fill="#ffcb40" fill-rule="evenodd"/><path d="M345.383,60.75h-2.1v32h2.1c1.579,0,2.9-.988,2.9-2.173V62.923C348.278,61.738,346.962,60.75,345.383,60.75Z" fill="#e6a600" fill-rule="evenodd"/><path d="M362.278,90.585V57.915a2.292,2.292,0,0,0-2.1-2.165h-8.81a2.15,2.15,0,0,0-2.095,2.165v32.67a2,2,0,0,0,1.9,2.165h9A2.15,2.15,0,0,0,362.278,90.585Z" fill="#ffcb40" fill-rule="evenodd"/><path d="M359.694,55.75h-2.416v37h2.416a2.333,2.333,0,0,0,2.584-2.135V57.694C362.311,56.5,361.122,55.711,359.694,55.75Z" fill="#e6a600" fill-rule="evenodd"/><path d="M377.278,90.559V47.941a2.3,2.3,0,0,0-2.222-2.191h-9.334a2.349,2.349,0,0,0-2.444,2.191V90.559a2.349,2.349,0,0,0,2.444,2.191h9.112A2.349,2.349,0,0,0,377.278,90.559Z" fill="#ffcb40" fill-rule="evenodd"/><path d="M374.628,45.75h-2.121l-.265,47h2.121c1.59,0,2.915-1,2.915-2.191V47.941A2.558,2.558,0,0,0,374.628,45.75Z" fill="#e6a600" fill-rule="evenodd"/><path d="M226.65,146.551a10,10,0,0,0,1.58,1.4,20.212,20.212,0,0,0,12.251,4.606,20.913,20.913,0,0,0,21.538-20.429,19.727,19.727,0,0,0-2.569-11.016,20.13,20.13,0,0,0-8.1-8.212,22.883,22.883,0,0,0-5.138-2,19.677,19.677,0,0,0-19.957,5.809h0A21.176,21.176,0,0,0,226.65,146.551Z" fill="#00b294" fill-rule="evenodd"/><path d="M240.539,152.572a20.591,20.591,0,0,0,21.48-19.755c.2-3.874.089-7.507-1.616-10.674a22.384,22.384,0,0,0-8.316-8.889,40.26,40.26,0,0,0-5.059-2.361s-5.1,19.837-5.177,19.985l-.019.026c-13,16.066-13.51,17.214-13.51,17.214A20.529,20.529,0,0,0,240.539,152.572Z" fill="#007365" fill-rule="evenodd"/><path d="M241.93,130.928l5.034-20.065a20.658,20.658,0,0,0-20.436,5.593Z" fill="#008770" fill-rule="evenodd"/><rect x="388.278" y="7.75" width="54" height="40" fill="#fff"/><rect x="388.278" y="7.75" width="54" height="40" fill="#505050"/><rect x="388.278" y="7.75" width="54" height="5" fill="#c2c2c2"/><path d="M420.151,19.75H394a.949.949,0,0,1-1.062-.875c-.039-.807.285-1.125,1.015-1.125H420.1a.989.989,0,0,1,1.111,1.094C421.215,19.469,420.715,19.75,420.151,19.75Z" fill="#939393"/><path d="M407.42,23.75H394.179a1.007,1.007,0,0,1-1.089-.875.975.975,0,0,1,1.042-1.125h13.241a1.022,1.022,0,0,1,1.105.69C408.722,23.21,408.215,23.75,407.42,23.75Z" fill="#00b294"/><path d="M428.514,23.75H411.835a1.031,1.031,0,0,1-1.088-.844c-.063-.75.307-1.217,1.041-1.156h16.679a1.054,1.054,0,0,1,1.14.977A1.021,1.021,0,0,1,428.514,23.75Z" fill="#939393"/><path d="M426.972,28.75h-26.1a1.113,1.113,0,0,1-1.18-.835c-.106-.812.447-1.165,1.133-1.165h26.1c.872,0,1.156.442,1.165.929C428.1,28.362,427.749,28.75,426.972,28.75Z" fill="#939393"/><path d="M421.08,41.75H400.87a1.021,1.021,0,0,1-1.086-.894.913.913,0,0,1,1.039-1.106h20.21a1.1,1.1,0,0,1,1.151.882A.968.968,0,0,1,421.08,41.75Z" fill="#939393"/><path d="M434.275,41.75H425.4a1.044,1.044,0,0,1-1.112-.965c0-.623.223-1.035,1.065-1.035h8.873c.7,0,1.182.4,1.191.882A1.046,1.046,0,0,1,434.275,41.75Z" fill="#939393"/><path d="M433.532,32.75H407.56a1.088,1.088,0,0,1-1.106-.894.935.935,0,0,1,1.059-1.106h25.972a1.053,1.053,0,0,1,1.158.882A.987.987,0,0,1,433.532,32.75Z" fill="#939393"/><path d="M414.854,36.75H407.56a1.05,1.05,0,0,1-1.082-.965.916.916,0,0,1,1.035-1.035h7.294a1,1,0,0,1,1.071.906A.911.911,0,0,1,414.854,36.75Z" fill="#00b294"/><path d="M430.187,36.75H419.176a1.04,1.04,0,0,1-1.11-.918.94.94,0,0,1,1.063-1.082H430.14c.8,0,1.22.432,1.256.918C431.443,36.315,430.949,36.75,430.187,36.75Z" fill="#939393"/><line x1="385.778" y1="242.75" x2="385.778" y2="168.75" fill="none" stroke="#b2b2b2" stroke-miterlimit="10"/><line x1="360.778" y1="196.75" x2="360.778" y2="142.75" fill="none" stroke="#b2b2b2" stroke-miterlimit="10" stroke-dasharray="2 2"/><rect x="333.278" y="199.75" width="85" height="89" fill="#ce9c5f"/><rect x="333.278" y="193.75" width="85" height="89" fill="none"/><rect x="273.278" y="199.75" width="60" height="89" fill="#8c6943"/><polygon points="297.065 230.75 237.02 230.75 273.44 199.75 333.974 199.75 297.065 230.75" fill="#ce9c5f"/><polygon points="297.065 224.75 237.02 224.75 273.44 193.75 333.974 193.75 297.065 224.75" fill="none"/><path d="M334.283,199.75s40,39.75,40.745,40,43.25,0,43.25,0V202.5Z" fill="#8c6943"/><polygon points="462.344 230.75 378.678 230.75 334.876 199.75 418.541 199.75 462.344 230.75" fill="#d8b07f"/><path d="M384.278,139.593a1,1,0,0,1-1-1v-3.848l-2.695-.892a1,1,0,0,1,.628-1.9l3.419,1.132a.944.944,0,0,1,.648.9v4.61a1,1,0,0,1-1,1" fill="#ffcb40"/><path d="M391.457,132.461a.933.933,0,0,1,.66,1.187.959.959,0,0,1-.436.517l-2.4,1.378v1.9a.945.945,0,0,1-.945.944" fill="#ffcb40"/><path d="M377.8,131.75h-3.31a1,1,0,0,1,0-2h2.784v-3h-2.012a1,1,0,0,1,0-2h2.612a1.4,1.4,0,0,1,1.4,1.4v4.124A1.474,1.474,0,0,1,377.8,131.75Zm.38-5h0Z" fill="none"/><path d="M397.278,131.75h-3.631a1.369,1.369,0,0,1-1.369-1.369v-4.262a1.369,1.369,0,0,1,1.369-1.369h2.976a1,1,0,0,1,0,2h-2.345v3h3.255a.945.945,0,0,1,0,1.89" fill="none"/><polygon points="430.637 114.639 429.253 113.194 441.672 101.293 455.082 105.266 469.847 86.684 484.243 88.592 483.979 90.575 470.709 88.816 455.808 107.567 442.217 103.54 430.637 114.639" fill="#fff"/><path d="M433.807,112.626a3.065,3.065,0,1,1-3.587-2.431A3.065,3.065,0,0,1,433.807,112.626Z" fill="#ffcb40"/><path d="M458.261,106.087a3.064,3.064,0,1,1-3.587-2.432A3.065,3.065,0,0,1,458.261,106.087Z" fill="#ffcb40"/><path d="M473.317,87.539a3.064,3.064,0,1,1-3.587-2.432A3.064,3.064,0,0,1,473.317,87.539Z" fill="#ffcb40"/><path d="M486.349,89.052a3.064,3.064,0,1,1-3.587-2.431A3.065,3.065,0,0,1,486.349,89.052Z" fill="#ffcb40"/><path d="M444.562,101.94a3.064,3.064,0,1,1-3.587-2.432A3.065,3.065,0,0,1,444.562,101.94Z" fill="#ffcb40"/><path d="M388.278,140.75a1,1,0,0,1-1-1v-6a1,1,0,0,1,.668-.943l7.1-2.5a.992.992,0,0,1,.333-.057h2.377a.429.429,0,0,0,.432-.419l.055-1.858a.215.215,0,0,0-.216-.223h-5.748v.335a2.256,2.256,0,0,1-2.875,2.169l-5.4-1.543a1,1,0,0,1-.726-.961v-21a1,1,0,0,1,2,0V127l4.674,1.336a.256.256,0,0,0,.326-.247V126.75a1,1,0,0,1,1-1h6.748a2.217,2.217,0,0,1,2.216,2.28l-.055,1.859a2.42,2.42,0,0,1-2.432,2.361h-2.207l-6.27,2.208v5.292A1,1,0,0,1,388.278,140.75Z" fill="#fff880"/><path d="M384.278,140.75a1,1,0,0,1-1-1v-5.292l-6.271-2.208h-4.6a1,1,0,0,1-1-.971l-.131-4.5a1,1,0,0,1,1-1.029h8a1,1,0,0,1,1,1v3a1,1,0,0,1-2,0v-2h-5.971l.073,2.5h3.8a.982.982,0,0,1,.332.057l7.1,2.5a1,1,0,0,1,.668.943v6A1,1,0,0,1,384.278,140.75Z" fill="#fff880"/><path d="M388.278,125.75a1,1,0,0,1-1-1v-18a1,1,0,0,1,2,0v18A1,1,0,0,1,388.278,125.75Z" fill="#fff880"/><path d="M398.932,123.75h-7.654a1,1,0,0,1,0-2h7.654a.346.346,0,0,0,.346-.345v-1.157a.5.5,0,0,0-.5-.5h-5.067a2.439,2.439,0,0,1-2.435-2.435v-7.9a1.691,1.691,0,0,1,2.888-1.195l4.257,4.257a1.915,1.915,0,0,1-1.353,3.269h-1.792a1,1,0,0,1,0-2h1.586l-3.586-3.586v7.151a.435.435,0,0,0,.435.435h5.067a2.5,2.5,0,0,1,2.5,2.5v1.157A2.349,2.349,0,0,1,398.932,123.75Z" fill="#fff880"/><path d="M381.278,123.75h-7.623a2.379,2.379,0,0,1-2.377-2.377v-1.016a2.611,2.611,0,0,1,2.607-2.607h5.031a.362.362,0,0,0,.362-.362v-7.224l-3.585,3.586h1.585a1,1,0,0,1,0,2h-2.36a1.679,1.679,0,0,1-1.186-2.868l4.775-4.776a1.623,1.623,0,0,1,2.771,1.148v8.134a2.365,2.365,0,0,1-2.362,2.362h-5.031a.607.607,0,0,0-.607.607v1.016a.377.377,0,0,0,.377.377h7.623a1,1,0,0,1,0,2Z" fill="#fff880"/><path d="M348.7,282.238a1.756,1.756,0,0,1-1.3-.548,1.8,1.8,0,0,1-.539-1.309,1.828,1.828,0,0,1,.539-1.318,1.741,1.741,0,0,1,1.3-.556,1.788,1.788,0,0,1,1.327.556,1.812,1.812,0,0,1,.547,1.318,1.784,1.784,0,0,1-.547,1.309A1.8,1.8,0,0,1,348.7,282.238Z" fill="#fff"/><path d="M374.652,281.873h-3.416L359,262.918a7.936,7.936,0,0,1-.763-1.493h-.1a24.6,24.6,0,0,1,.132,3.267v17.181h-2.786V258.092H359.1L371,276.749q.745,1.159.962,1.592h.066a25.089,25.089,0,0,1-.166-3.5v-16.75h2.786Z" fill="#fff"/><path d="M393.492,281.873h-12.6V258.092h12.073v2.52h-9.287v7.91h8.591v2.5h-8.591v8.326h9.818Z" fill="#fff"/><path d="M412.132,260.612h-6.865v21.261H402.48V260.612h-6.849v-2.52h16.5Z" fill="#fff"/></svg>