<svg xmlns="http://www.w3.org/2000/svg" viewBox="0 0 636 350"><title>swimlane-marketplace</title><polygon points="426 77.5 426 55.5 211 55.5 211 77.5 132 77.5 132 299.5 503 299.5 503 77.5 426 77.5" fill="#ac7d54"/><rect x="132" y="280.5" width="371" height="19" transform="translate(635 580) rotate(-180)" fill="#505050"/><polygon points="503 155.833 482.667 97.833 154.417 159.583 161.833 177.5 503 177.5 503 155.833" fill="#9d6a41"/><rect x="211" y="49.5" width="215" height="8" transform="translate(637 107) rotate(-180)" fill="#eecfa0"/><rect x="132" y="72.5" width="79" height="8" fill="#eecfa0"/><rect x="426" y="72.5" width="78" height="8" fill="#eecfa0"/><rect x="191" y="177.5" width="253" height="122" transform="translate(635 477) rotate(-180)" fill="#eecfa0"/><rect x="261" y="186.5" width="54" height="114" fill="#235a89"/><rect x="321" y="187.5" width="54" height="93" fill="#2488d8"/><rect x="382" y="187.5" width="54" height="93" fill="#2488d8"/><rect x="270" y="196.5" width="35" height="19" fill="#3a96dd"/><rect x="270" y="219.5" width="35" height="69" fill="#2488d8"/><rect x="305" y="243.5" width="7" height="21" transform="translate(617 508) rotate(-180)" fill="#69afe5"/><circle cx="309" cy="248.5" r="2" fill="#2488d8"/><rect x="307" y="252.5" width="3" height="10" transform="translate(617 515) rotate(-180)" fill="#2488d8"/><polygon points="321 224.793 321 187.5 358.293 187.5 321 224.793" fill="#69afe5"/><polygon points="382 224.749 382 187.5 419.249 187.5 382 224.749" fill="#69afe5"/><polygon points="432 193.5 382 193.5 382 187.5 436 187.5 436 280.5 432 280.5 432 193.5" fill="#235a89"/><polygon points="371 193.5 321 193.5 321 187.5 375 187.5 375 280.5 371 280.5 371 193.5" fill="#235a89"/><rect x="200" y="187.5" width="54" height="93" fill="#2488d8"/><polygon points="200 224.793 200 187.5 237.293 187.5 200 224.793" fill="#69afe5"/><polygon points="250 193.5 200 193.5 200 187.5 254 187.5 254 280.5 250 280.5 250 193.5" fill="#235a89"/><path d="M275,226.5v16h26v-16h-3.258l-9.584-8.641L278.8,226.5Zm20.7,0H280.75l7.375-6.812Z" fill="#b3d6f2"/><rect x="167" y="145.5" width="326" height="18" fill="#32145a"/><rect x="166" y="145.5" width="18" height="18" fill="#472176"/><rect x="201" y="145.5" width="18" height="18" fill="#472176"/><rect x="235" y="145.5" width="18" height="18" fill="#472176"/><rect x="269" y="145.5" width="18" height="18" fill="#472176"/><rect x="304" y="145.5" width="18" height="18" fill="#472176"/><rect x="339" y="145.5" width="18" height="18" fill="#472176"/><rect x="373" y="145.5" width="18" height="18" fill="#c95096"/><polygon points="392.156 145.5 165.688 145.5 153.952 97.5 380.419 97.5 392.156 145.5" fill="#724aad"/><polygon points="184.309 145.5 165.917 145.5 154 97.5 172.572 97.5 184.309 145.5" fill="#8867c8"/><polygon points="218.655 145.5 200.875 145.5 189.138 97.5 206.919 97.5 218.655 145.5" fill="#8867c8"/><polygon points="253.002 145.5 235.221 145.5 223.485 97.5 241.265 97.5 253.002 145.5" fill="#8867c8"/><polygon points="287.348 145.5 269.568 145.5 257.831 97.5 275.612 97.5 287.348 145.5" fill="#8867c8"/><polygon points="321.694 145.5 303.914 145.5 292.178 97.5 309.958 97.5 321.694 145.5" fill="#8867c8"/><polygon points="356.969 145.5 339.189 145.5 327.452 97.5 345.233 97.5 356.969 145.5" fill="#8867c8"/><polygon points="391.316 145.5 373.535 145.5 361.799 97.5 379.579 97.5 391.316 145.5" fill="#f376b2"/><rect x="373" y="145.5" width="18" height="18" fill="#472176"/><rect x="408" y="145.5" width="18" height="18" fill="#472176"/><rect x="442" y="145.5" width="18" height="18" fill="#472176"/><rect x="476" y="145.5" width="18" height="18" fill="#472176"/><polygon points="491.647 145.5 373.044 145.5 361.307 97.5 479.911 97.5 491.647 145.5" fill="#724aad"/><polygon points="391.23 145.5 373.449 145.5 361.713 97.5 379.494 97.5 391.23 145.5" fill="#8867c8"/><polygon points="425.576 145.5 407.796 145.5 396.06 97.5 413.84 97.5 425.576 145.5" fill="#8867c8"/><polygon points="459.923 145.5 442.142 145.5 430.406 97.5 448.186 97.5 459.923 145.5" fill="#8867c8"/><polygon points="494.269 145.5 476.489 145.5 464.752 97.5 482.533 97.5 494.269 145.5" fill="#8867c8"/><polygon points="166.069 163.689 154 159.834 153.916 97.394 166 146.039 166.069 163.689" fill="#32145a"/><rect x="191" y="163.5" width="253" height="14" fill="#d1ae80"/><rect x="253.204" y="68.61" width="13.93" height="14.678" transform="translate(22.498 206.212) rotate(-45)" fill="none"/><rect x="311.538" y="68.61" width="13.93" height="14.678" transform="translate(39.583 247.46) rotate(-45)" fill="none"/><rect x="369.871" y="68.61" width="13.93" height="14.678" transform="translate(56.669 288.708) rotate(-45)" fill="none"/><rect x="206" y="201.5" width="38" height="63" fill="#c2c2c2"/><rect x="210" y="205.5" width="30" height="30" fill="#1970db"/><rect x="210" y="241.5" width="30" height="5" fill="#939393"/><rect x="210" y="250.5" width="30" height="5" fill="#939393"/><rect x="328" y="201.5" width="38" height="63" fill="#c2c2c2"/><rect x="332" y="205.5" width="30" height="30" fill="#d6782a"/><rect x="332" y="241.5" width="30" height="5" fill="#939393"/><rect x="332" y="250.5" width="30" height="5" fill="#939393"/><rect x="388" y="201.5" width="38" height="63" fill="#c2c2c2"/><rect x="392" y="205.5" width="30" height="30" fill="#8554c8"/><rect x="392" y="241.5" width="30" height="5" fill="#939393"/><rect x="392" y="250.5" width="30" height="5" fill="#939393"/></svg>