<svg xmlns="http://www.w3.org/2000/svg" viewBox="0 0 500 350"><title>swimlane-ml-deploy-model</title><path d="M119.585,125.934l132.4,137.2L381.636,124.256" fill="none" stroke="#b2b2b2" stroke-miterlimit="10" stroke-width="2"/><path d="M165.478,130.246,251.63,261.571l84-131.684" fill="none" stroke="#b2b2b2" stroke-miterlimit="10" stroke-width="2"/><path d="M221.793,129.887l29.835,131.684,29.357-133.242" fill="none" stroke="#b2b2b2" stroke-miterlimit="10" stroke-width="2"/><path d="M163.8,131h3.954c4.194-6.231,14.379-10.664,26.361-10.664s22.167,4.433,26.361,10.664h4.193c4.194-6.231,14.379-10.664,26.361-10.664S273.2,124.769,277.39,131h4.194c4.194-6.231,14.379-10.664,26.361-10.664s22.167,4.433,26.361,10.664h3.475C344.131,94.334,318.489.274,251.149.274,183.689.274,162.241,90.021,163.8,131Z" fill="#e5a600"/><path d="M253.306.394c-.839,0-1.558-.12-2.4-.12a31.359,31.359,0,0,0-3.355.12C207.055,66.416,220.355,131,220.355,131h4.194c4.193-6.231,14.378-10.664,26.36-10.664S273.076,124.769,277.27,131h4.194C281.464,131.12,293.925,66.416,253.306.394Z" fill="#ffcb40"/><path d="M116.47,129h1.318c4.433-5.344,12.7-8.938,22.167-8.938,10.784,0,19.89,4.433,23.724,10.938H165.6C167.514,36.306,225.388,0,250.79,0,184.289.12,128.931,55.478,116.47,129Z" fill="#ffcb40"/><path d="M382.236,129h1.294c-12.116-72-66.586-126.351-132-126.351C276.473,2.649,333.3,38.3,335.179,131h1.882c3.764-6.118,12.705-10.47,23.293-10.47C369.766,120.412,377.884,123.824,382.236,129Z" fill="#ffcb40"/><path d="M199.742,350a5.029,5.029,0,0,1-2.876-.839,5.117,5.117,0,0,1-2.4-4.434V244.077a5.24,5.24,0,0,1,7.428-4.793l108.68,50.325a5.245,5.245,0,0,1,0,9.586L201.9,349.52A6.292,6.292,0,0,1,199.742,350Z" fill="#69afe5"/><path d="M194.47,294v50.565A5.405,5.405,0,0,0,196.859,349a4.753,4.753,0,0,0,2.868.838,5.159,5.159,0,0,0,2.27-.479l108.365-50.325a5.243,5.243,0,0,0,3.108-4.793V294Z" fill="#8ac5ed"/></svg>