<svg xmlns="http://www.w3.org/2000/svg" viewBox="0 0 500 350"><title>swimlane-ml-load-data</title><path d="M230.852,214.557c-1.357-24.723-17.742-41.5-17.742-41.5l-20.263,16.094Z" fill="#ffcb40"/><path d="M216.115,176.744c-1.842-2.327-3-3.587-3-3.587l-20.263,16.094,15.609,10.374Z" fill="#e5a600"/><path d="M227.6,74.17l-21.78,16.2,16.2,21.78,21.78-16.2Z" fill="#69afe5"/><path d="M243.844,95.983l-9.6,6.787-8.822-26.759,2.133-1.842Z" fill="#8ac5ed"/><path d="M356.018,80.762l-19.876-3.587L323.054,92.493,329.84,111.4l19.779,3.684,13.088-15.318Z" fill="#ffcb40"/><path d="M349.91,114.792l-6.593-18.809L323.248,92.2l-.194.291L329.84,111.4l19.779,3.684Z" fill="#e5a600"/><path d="M390.533,47.7l-17.548,5.624-.194.969,2.52,7.756,14.737-4.75c.1.1.1.29.194.387a15.951,15.951,0,0,1-10.277,20.07c-.969.291-1.939.484-2.908.678l5.817,5.236,17.548-5.623L404.3,60.014Z" fill="#69afe5"/><path d="M389.564,69.419a15.706,15.706,0,0,1-9.6,8.435c-.969.291-1.939.485-2.908.679l5.817,5.235,17.548-5.623.776-3.684Z" fill="#8ac5ed"/><path d="M293.829,16.513,306.7,28.374V8h-33V30h10.451Z" fill="#8ac5ed"/><path d="M276.761,8H273.7V30h10.33l2.3-3.252Z" fill="#69afe5"/><path d="M235.6,3.1,228.04,34.224l-21.523-5.138-4.266,17.839,31.122,7.466L245.2,5.429Z" fill="#ffcb40"/><path d="M217.666,31.994,202.445,46.052l-.194.873,31.122,7.465,4.362-17.839Z" fill="#e5a600"/><path d="M159.591,99.668A16.967,16.967,0,1,0,142.625,82.7,16.967,16.967,0,0,0,159.591,99.668Z" fill="#ffcb40"/><path d="M159.786,65.914A17.194,17.194,0,0,1,164.157,82.9,16.794,16.794,0,0,1,147.864,95h-.2a16.954,16.954,0,1,0,12.119-29.086Z" fill="#e5a600"/><path d="M184.218,133.019A15.144,15.144,0,0,1,169.093,117.9a15.859,15.859,0,0,1,.776-4.848l-15.8,6.5,12.507,30.346,30.346-12.507-3.2-7.756A14.965,14.965,0,0,1,184.218,133.019Z" fill="#69afe5"/><path d="M174.814,129.723A15.024,15.024,0,0,1,169,117.8a15.859,15.859,0,0,1,.776-4.848l-15.8,6.5,4.653,11.246Z" fill="#8ac5ed"/><path d="M288.7,129V113h0c-9.049,0-16.928,7.4-16.941,16.445a16.428,16.428,0,0,0,16.5,16.5C297.3,145.928,304.7,138.049,304.7,129h-16Z" fill="#69afe5"/><path d="M280.606,144.059,294.723,129H288.7V113h-.021c-8.67,0-16.195,6.515-16.869,15.159A16.528,16.528,0,0,0,280.606,144.059Z" fill="#8ac5ed"/><path d="M275.16,163.269l-18.615,7.659L253.928,190.9l15.9,12.313,18.615-7.66,2.715-19.972Z" fill="#69afe5"/><path d="M269.827,177.424l14.349-7.174-9.016-6.981-18.421,7.562Z" fill="#8ac5ed"/><path d="M318.3,175.485l13.573-35.873L350.3,144.46,340.6,155.125l4.751,24.335Z" fill="#ffcb40"/><path d="M335.367,158.518l3.1-17.161-6.593-1.745-9.21,24.238Z" fill="#e5a600"/><path d="M219.412,156.094l10.664-28.116,30.056,13.573Z" fill="#e5a600"/><path d="M237.736,131.371l-3.975,4.751,9.6,11.44,16.773-6.011Z" fill="#ffcb40"/><path d="M262.944,85.9,280.783,63.41l16.579-1.357L304.536,51l13.768-.194L306.572,74.56,286.5,76.305,277.971,87.26Z" fill="#ffcb40"/><path d="M288.442,76.5l-7.756-12.7L262.944,86.288l15.027,1.357L286.5,76.69Z" fill="#e5a600"/><path d="M310.353,67.094,318.3,51l-13.768.194-.581.97Z" fill="#e5a600"/><path d="M254.315,240.444c43.372,0,78.532-4.341,78.532-9.7s-35.16-9.695-78.532-9.695-78.532,4.341-78.532,9.695S210.943,240.444,254.315,240.444Z" fill="none" stroke="#666" stroke-miterlimit="10" stroke-width="2"/><path d="M120.617,46.925,95.7,17.742,108.788,3.975l4.654,13.573L137.1,25.11Z" fill="#ffcb40"/><path d="M113.927,23.85,100.353,12.8,95.7,17.742,112.569,37.52Z" fill="#e5a600"/><path d="M347.971,27.05a15.2,15.2,0,0,1,24.626-.581l3.491-16.676L344,3.006,337.21,35.1l8.144,1.746A15.773,15.773,0,0,1,347.971,27.05Z" fill="#69afe5"/><path d="M355.922,21.136a14.778,14.778,0,0,1,13.088,1.939,15.018,15.018,0,0,1,3.588,3.393l3.49-16.676L364.26,7.272Z" fill="#8ac5ed"/><path d="M162.791,32.576,181.6,39.848l15.706-12.7-3.2-19.875L175.3,0,159.689,12.7Z" fill="#69afe5"/><path d="M176.461,25.984,161.046,21.33l1.745,11.247L181.5,39.751Z" fill="#8ac5ed"/><path d="M178.11,233.075l76.2,48.089,76.108-48.089" fill="none" stroke="#666" stroke-miterlimit="10" stroke-width="2"/><path d="M305.118,237.825a16.956,16.956,0,1,0-29.279,2.23C284.952,239.473,296.586,238.6,305.118,237.825Z" fill="#ffcb40"/><path d="M288.732,223.379A16.81,16.81,0,0,1,296.2,238.6c3.2-.291,6.205-.485,8.919-.776a16.928,16.928,0,0,0-29.182-16.967A16.942,16.942,0,0,1,288.732,223.379Z" fill="#e5a600"/><path d="M254.024,240.54l-9.793-15.706L221.254,239.28l.29.388C229.882,239.959,243.262,240.443,254.024,240.54Z" fill="#69afe5"/><path d="M229.5,239.959l21.038-5.139-6.2-9.986L221.351,239.28l.291.388C223.774,239.765,226.489,239.862,229.5,239.959Z" fill="#8ac5ed"/><path d="M311.807,237.341c-14.349,1.842-34.709,3.1-57.3,3.1-15.512,0-30.055-.582-42.174-1.552" fill="none" stroke="#666" stroke-miterlimit="10" stroke-width="2"/><path d="M254.7,286v64" fill="none" stroke="#666" stroke-miterlimit="10" stroke-width="2" stroke-dasharray="3 3"/></svg>