<svg xmlns="http://www.w3.org/2000/svg" viewBox="0 0 636 300"><defs><style>.a{fill:#b2b2b2}.b{fill:#a80000}.c{fill:#505050}.d{fill:#737373}.e{fill:#8ec3ec}.f{fill:#69afe5}.g{fill:#e81123}.h{fill:#ba1121}.i{fill:#8a0000}.j{fill:#ffb900}.k{fill:#969696}.l{fill:#db9d00}.m{fill:#cc8e02}.n{fill:#fff}.o{fill:#002050}.p{fill:#939393}</style></defs><title>swimlane-toolbox</title><path class="a" d="M432.451 289.294H110.525a6.467 6.467 0 0 1-6.428-4.963 6.3 6.3 0 0 1 6.351-7.474h321.927a6.467 6.467 0 0 1 6.428 4.965 6.3 6.3 0 0 1-6.352 7.472z"/><path class="a" d="M525.623 298H287.286a6.448 6.448 0 0 1-6.41-4.963 6.28 6.28 0 0 1 6.281-7.474h238.337a6.448 6.448 0 0 1 6.41 4.963 6.279 6.279 0 0 1-6.281 7.474z"/><path class="b" d="M403.612 160.247l-19.5-20.676a7.363 7.363 0 0 0-4.043-2.3V90.3H153.717v62.185H167.4v-48.5h200.233v44.281l-10.2 12.083c-2.734 3.012-4.72 8.789-4.72 12.585V273.3a7.258 7.258 0 0 0 7.227 7.284h41.38a7.338 7.338 0 0 0 7.359-7.3c.155-80.843 0-108.2 0-108.2-.315-.315-2.279-2.064-5.067-4.837z"/><path class="c" d="M285.116 41.051l-8.568-21.206a4.157 4.157 0 0 0-3.277-2.517l-1.255-.256-2.516 17.911-6.075 7.074-10.079-1.257-4.028-8.841 2.517-17.659-1.264-.247a4.3 4.3 0 0 0-3.771 1.507l-14.133 18.159a4.532 4.532 0 0 0-.5 4.053l8.559 21.189A4.592 4.592 0 0 0 244 61.735l1.783.247-12.869 91.071 19.175 2.791 12.851-91.336 1.757.247a4.346 4.346 0 0 0 3.806-1.511l14.107-17.911a5.16 5.16 0 0 0 .506-4.282z"/><path class="d" d="M285.116 41.051l-7.057-17.912-1.757 12.6L270 43.064l-6.579-1.007-10.074-1.257-4.028-8.841 2.517-17.659-.751 5.291-11.87 14.891a5.249 5.249 0 0 0-.5 4.3l8.585 21.185a4.157 4.157 0 0 0 3.268 2.517l2.022.5-12.877 91.071 12.374 1.783 12.851-91.336 1.757.247a4.346 4.346 0 0 0 3.806-1.511l14.106-17.912a5.165 5.165 0 0 0 .509-4.275z"/><path class="a" d="M229.579 46.8c-9.848-28-47.669-21.937-47.669-22.413h-.248c-2.526.724-10.864 1.244-10.864 1.244h-.939a1.83 1.83 0 0 1-.76 1.244h-.751c-7.7 1.987-12.427 4.48-12.68 5.472-.5 3.234-2.5 4.226-3.5 4.471a10.58 10.58 0 0 1-5.717-.994 44.149 44.149 0 0 0-8.7-1.742l-3.234.75-2.239.749h-.971a3.9 3.9 0 0 0-2.832 4.364l4.624 19.2a3.71 3.71 0 0 0 4.347 2.555h.511l6.14-1.532s4.6-2.555 6.643-5.109a12.65 12.65 0 0 1 4.884-3.6 4.99 4.99 0 0 1 3.066.762v.136l.52 1.766a3.972 3.972 0 0 0 4.539 2.791l5.794-1.511 16.146 69.626 12.851-3.277-16.128-69.4 5.794-1.262a3.808 3.808 0 0 0 2.526-4.531l-.256-1.264c16.908-12.368 36.833.757 39.103 1.505z"/><path class="d" d="M217.521 169.7a3.758 3.758 0 0 1-2.765 4.557l-20.181 4.787a3.762 3.762 0 0 1-4.539-2.765L169.1 86.706a3.621 3.621 0 0 1 2.773-4.283l20.181-4.787a3.742 3.742 0 0 1 4.531 2.765z"/><path class="c" d="M175.4 81.662l-3.525.76a3.621 3.621 0 0 0-2.773 4.283l20.933 89.577a3.763 3.763 0 0 0 4.539 2.765l3.525-1.007z"/><path class="d" d="M139.4 57.611l-4.347-18.948a3.872 3.872 0 0 1 2.555-4.624l-3.326.771-2.3.77h-.511a3.9 3.9 0 0 0-2.832 4.364l4.624 19.2A3.71 3.71 0 0 0 137.6 61.7h.511l6.14-1.532-.26.26a4.03 4.03 0 0 1-4.591-2.817zM173.385 53.928l-4.284 1.007 6.298 26.727 4.054-1.007-6.068-26.727z"/><path class="e" d="M230.1 116.375a31.375 31.375 0 0 1-.751-6.814 34.324 34.324 0 0 1 54.5-27.519 43.26 43.26 0 0 1 37.357-21.449 42.656 42.656 0 0 1 42.65 42.146h11.758a13.371 13.371 0 0 1 9.7 4.089c28.018 29.423 7.563 64.314-20.95 64.314H222.049a12.6 12.6 0 0 1-7.922-3.365c-22.235-23.277-6.634-51.025 15.973-51.402z"/><path class="f" d="M213.055 123.557a26.646 26.646 0 0 0-3.481 12.962 27.224 27.224 0 0 0 27.146 27.162h131.767a33.458 33.458 0 0 0 21.415-7.737 34.081 34.081 0 0 1-28.882 16.443H229.877c-13.375 0-25.193-9.434-27.394-22.627a27.031 27.031 0 0 1 10.572-26.203z"/><path class="g" d="M159.936 167.412h248.739v113.176H159.936z"/><path class="h" d="M184.809 258.263s38.342-92.095 224.725-92.095H184.809z"/><path class="i" d="M408.675 280.588v-6.218H187.986a7.393 7.393 0 0 1-7.313 6.218z"/><path class="b" d="M189.783 165.537l-24.668-25.968a6.507 6.507 0 0 0-9.9 0l-22.38 25.465a.921.921 0 0 0-.257.76v111.27a3.525 3.525 0 0 0 3.525 3.525H186a3.792 3.792 0 0 0 3.781-3.781V165.537z"/><path d="M300.473 290.076c-1.993 0-3.731-4.283-3.731-4.283V155.561a4.433 4.433 0 0 1 4.288-4.317h93.663a4.391 4.391 0 0 1 4.032 4.317V286.47a4.17 4.17 0 0 1-4.032 4.068h-94.22z"/><path class="c" d="M303.267 290.538a4.037 4.037 0 0 1-4.037-4.037v-130.94a4.219 4.219 0 0 1 4.051-4.317h93.882a4.22 4.22 0 0 1 4.051 4.317v130.924a4.053 4.053 0 0 1-4.053 4.053z"/><path class="j" d="M310.423 162.437h78.353v116.908h-78.353z"/><path class="k" d="M392.724 222.134l.235 3.732h2.781l.699-3.732h-3.715z"/><path class="c" d="M489.156 287.025l-3.781-7.3 4.787-2.526 3.806 7.56a2.564 2.564 0 0 1-1.007 3.533 2.749 2.749 0 0 1-3.805-1.267z"/><path class="j" d="M376.171 28.43l-17.896 9.096-8.841 4.532 114.752 223.777 9.098-4.53 17.638-9.097L376.171 28.43z"/><path class="c" d="M347.924 32.211l4.283 8.336 21.19-10.855-4.54-8.312-20.933 10.831z"/><path class="d" d="M494.216 280.727l-3.294-28.519-26.736 13.627 21.445 19.176 8.585-4.284z"/><path class="l" d="M349.434 42.058l114.752 223.777 9.098-4.53L358.275 37.526l-8.841 4.532zM363.822 4.476a4.3 4.3 0 0 0-5.794-2.04l-10.1 5.317c-1.007.5-2.517 1.255-4.028 2.014-1.262.5-2.773 1.255-3.781 1.757l-1.264.76a4.439 4.439 0 0 0-1.766 5.794l8.064 15.642 8.824-4.787 17.656-9.089z"/><path class="m" d="M353.471 27.926l-8.824-17.153a1.667 1.667 0 0 0-1.766-.5 23.973 23.973 0 0 1-2.765 1.255 6.122 6.122 0 0 0-2.526 7.817l6.81 13.12c.5.751 1.255 1.007 1.757.5l6.554-3.277a1.392 1.392 0 0 0 .76-1.762z"/><path class="l" d="M469.485 210.085l-16.632-32.043 3.525-2.014 16.402 32.3-3.295 1.757z"/><path class="l" d="M469.485 210.085l-16.632-32.043 2.014-1.255 16.649 32.291-2.031 1.007z"/><path class="n" d="M316.641 184.824h65.916v83.328h-65.916z"/><path class="o" d="M344.647 176.118a4.917 4.917 0 1 1 9.83 0z"/><path class="c" d="M370.586 176.118h-11.794a8.929 8.929 0 0 0-17.857 0H328.6a2 2 0 0 0-2.007 2.041v7.13a2.028 2.028 0 0 0 2.022 2.022h41.979a2 2 0 0 0 2.016-2.041v-7.13a2.022 2.022 0 0 0-2.024-2.022z"/><path class="p" d="M370.624 222.134h-41.985a2.359 2.359 0 0 1-2.268-1.6 2.474 2.474 0 0 1 2.131-3.375h42a2.344 2.344 0 0 1 2.262 1.621 2.471 2.471 0 0 1-2.14 3.354zM349.293 208.454h-21.154a2.382 2.382 0 0 1-2.169-3.336 2.636 2.636 0 0 1 2.49-1.639h20.514a2.635 2.635 0 0 1 2.491 1.642 2.383 2.383 0 0 1-2.172 3.333zM370.624 229.6h-42.011a2.334 2.334 0 0 1-2.254-1.619 2.474 2.474 0 0 1 2.142-3.355h41.986a2.358 2.358 0 0 1 2.27 1.609 2.469 2.469 0 0 1-2.133 3.365zM370.624 238.3h-42a2.344 2.344 0 0 1-2.262-1.621 2.471 2.471 0 0 1 2.14-3.354h42a2.344 2.344 0 0 1 2.262 1.621 2.471 2.471 0 0 1-2.14 3.354zM370.624 247.008h-41.986a2.358 2.358 0 0 1-2.27-1.609 2.469 2.469 0 0 1 2.134-3.366h42.011a2.333 2.333 0 0 1 2.254 1.621 2.476 2.476 0 0 1-2.143 3.354zM370.624 254.471h-42.011a2.334 2.334 0 0 1-2.254-1.619 2.474 2.474 0 0 1 2.141-3.352h41.986a2.358 2.358 0 0 1 2.27 1.609 2.469 2.469 0 0 1-2.132 3.362z"/></svg>