<svg xmlns="http://www.w3.org/2000/svg" viewBox="0 0 636 300"><title>swimlane-model-view-controller</title><path d="M523.321,208.543H450.052a3.022,3.022,0,0,1-2.891-3,2.955,2.955,0,0,1,2.891-3h73.269a2.9,2.9,0,0,1,2.891,3A2.956,2.956,0,0,1,523.321,208.543Z" fill="#c8c8c8"/><path d="M413.161,294.543H334.843a3.022,3.022,0,0,1-2.892-3,2.955,2.955,0,0,1,2.892-3h78.318a2.9,2.9,0,0,1,2.891,3A2.956,2.956,0,0,1,413.161,294.543Z" fill="#c8c8c8"/><path d="M409.993,130.543H325.615a3.022,3.022,0,0,1-2.891-3,2.955,2.955,0,0,1,2.891-3h84.378a2.9,2.9,0,0,1,2.892,3A2.957,2.957,0,0,1,409.993,130.543Z" fill="#c8c8c8"/><path d="M284.582,214.418v-6.76H115.247v6.76a1.556,1.556,0,0,0,.907,1.483L199.5,250.527a1.676,1.676,0,0,0,.907,0L283.758,215.9A1.424,1.424,0,0,0,284.582,214.418Z" fill="#409ae1"/><path d="M283.758,209.224,200.41,243.849a1.676,1.676,0,0,1-.907,0l-83.349-34.625a1.7,1.7,0,0,1,0-2.968L199.5,171.63a1.7,1.7,0,0,1,.907,0l83.348,34.626A1.7,1.7,0,0,1,283.758,209.224Z" fill="#69afe5"/><path d="M285.572,180.7v-6.76H116.154v6.76a1.559,1.559,0,0,0,.907,1.484l83.349,34.626a1.7,1.7,0,0,0,.907,0l83.348-34.626A1.643,1.643,0,0,0,285.572,180.7Z" fill="#b6b6b7"/><path d="M284.665,175.423l-83.348,34.625a1.676,1.676,0,0,1-.907,0l-83.349-34.625a1.706,1.706,0,0,1,0-2.969l83.349-34.625a1.7,1.7,0,0,1,.907,0l83.348,34.625A1.652,1.652,0,0,1,284.665,175.423Z" fill="#d2d2d2"/><path d="M285.572,146.9v-6.76H116.154v6.76a1.556,1.556,0,0,0,.907,1.483l83.349,34.627a1.7,1.7,0,0,0,.907,0l83.348-34.627A1.556,1.556,0,0,0,285.572,146.9Z" fill="#e58b39"/><path d="M284.665,141.622l-83.348,34.625a1.7,1.7,0,0,1-.907,0l-83.349-34.625a1.706,1.706,0,0,1,0-2.969l83.349-34.625a1.7,1.7,0,0,1,.907,0l83.348,34.625A1.652,1.652,0,0,1,284.665,141.622Z" fill="#fda84c"/><path d="M401,244.689a3.926,3.926,0,0,0,1.56-.293,3.368,3.368,0,0,0,1.288-.954,5.132,5.132,0,0,0,.881-1.467,4.63,4.63,0,0,0,.271-1.688v-10.27a4.846,4.846,0,0,0-1.152-3.154,3.888,3.888,0,0,0-2.78-1.32H342.14a4.144,4.144,0,0,0-1.613.295,3.473,3.473,0,0,0-1.334.959,5.1,5.1,0,0,0-.912,1.475,4.521,4.521,0,0,0-.281,1.7V240.3a4.518,4.518,0,0,0,.281,1.7,4.644,4.644,0,0,0,.912,1.476A3.717,3.717,0,0,0,342,244.725v4.428a3.723,3.723,0,0,0-2.807,1.254,5.1,5.1,0,0,0-.912,1.475,4.525,4.525,0,0,0-.281,1.7v10.33a4.518,4.518,0,0,0,.281,1.7,4.644,4.644,0,0,0,.912,1.476A3.723,3.723,0,0,0,342,268.336v4.2a3.723,3.723,0,0,0-2.807,1.254,5.128,5.128,0,0,0-.912,1.477,4.509,4.509,0,0,0-.281,1.7v10.147a4.366,4.366,0,0,0,.292,1.7,4.609,4.609,0,0,0,.95,1.476,3.636,3.636,0,0,0,1.389.959,4.231,4.231,0,0,0,1.679.3h58.38a4.476,4.476,0,0,0,1.68-.3,3.636,3.636,0,0,0,1.389-.959,5.117,5.117,0,0,0,.949-1.476,4.366,4.366,0,0,0,.292-1.7V276.753a3.744,3.744,0,0,0-.312-1.613,4.384,4.384,0,0,0-1.012-1.4,3.93,3.93,0,0,0-1.481-.912,5.035,5.035,0,0,0-1.792-.28H399v-4h1.4a5.3,5.3,0,0,0,1.792-.281,3.905,3.905,0,0,0,1.481-.912,4.843,4.843,0,0,0,1.012-1.4,3.752,3.752,0,0,0,.312-1.614V252.61a3.882,3.882,0,0,0-1.341-2.867,5.136,5.136,0,0,0-3.238-1.2H399v-4h2Z" fill="#5f5f5f"/><path d="M404,242.543H347v32h57Z" fill="#505050"/><path d="M405.689,225.543H347.311a4.535,4.535,0,0,0-1.681.291,3.642,3.642,0,0,0-1.388.951,5.048,5.048,0,0,0-.95,1.461,4.3,4.3,0,0,0-.292,1.682v10.23a4.293,4.293,0,0,0,.292,1.681,4.586,4.586,0,0,0,.95,1.462,3.638,3.638,0,0,0,1.388.949,4.293,4.293,0,0,0,1.681.293h58.378a4.541,4.541,0,0,0,1.681-.293,3.638,3.638,0,0,0,1.388-.949,5.053,5.053,0,0,0,.95-1.462,4.293,4.293,0,0,0,.292-1.681v-10.23a4.245,4.245,0,0,0-4.311-4.385Z" fill="#737373"/><path d="M403,230.543H390v3h13Z" fill="#69afe5"/><path d="M405.689,248.543H347.311a4.535,4.535,0,0,0-1.681.291,3.642,3.642,0,0,0-1.388.951,5.04,5.04,0,0,0-.95,1.462,4.29,4.29,0,0,0-.292,1.681v10.23a4.3,4.3,0,0,0,.292,1.682,4.593,4.593,0,0,0,.95,1.461,3.64,3.64,0,0,0,1.388.95,4.293,4.293,0,0,0,1.681.292h58.378a4.54,4.54,0,0,0,1.681-.292,3.64,3.64,0,0,0,1.388-.95,5.062,5.062,0,0,0,.95-1.461,4.3,4.3,0,0,0,.292-1.682v-10.23a4.245,4.245,0,0,0-4.311-4.385Z" fill="#737373"/><path d="M403,253.543H390v3h13Z" fill="#69afe5"/><path d="M405.689,272.543H347.311a4.536,4.536,0,0,0-1.681.292,3.64,3.64,0,0,0-1.388.95,5.04,5.04,0,0,0-.95,1.462,4.288,4.288,0,0,0-.292,1.68v10.231a4.293,4.293,0,0,0,.292,1.681,4.571,4.571,0,0,0,.95,1.461,3.64,3.64,0,0,0,1.388.95,4.293,4.293,0,0,0,1.681.293h58.378a4.541,4.541,0,0,0,1.681-.293,3.64,3.64,0,0,0,1.388-.95,5.062,5.062,0,0,0,.95-1.461,4.293,4.293,0,0,0,.292-1.681V276.927a4.288,4.288,0,0,0-.292-1.68,4.564,4.564,0,0,0-.95-1.462,3.64,3.64,0,0,0-1.388-.95A6.24,6.24,0,0,0,405.689,272.543Z" fill="#737373"/><path d="M403,276.543H390v3h13Z" fill="#69afe5"/><path d="M403.712,64.539H348.553V123.97h55.159Z" fill="#d2d2d2"/><path d="M403.712,64.539H399V123.97h4.716Z" fill="#c2c2c2"/><path d="M364.922,64.539h-10.5V123.97h10.5Z" fill="#f3f3f3"/><path d="M404.851,126.543h-56.7a2.853,2.853,0,0,1-.806-.163,3.22,3.22,0,0,1-.717-.409,1.758,1.758,0,0,1-.447-.652,2.181,2.181,0,0,1-.18-.735V124.5a2.175,2.175,0,0,1,.18-.735,1.749,1.749,0,0,1,.447-.652,1.974,1.974,0,0,1,.717-.409,2.819,2.819,0,0,1,.806-.163h56.7a2.826,2.826,0,0,1,.806.163,3.175,3.175,0,0,1,.716.409,1.74,1.74,0,0,1,.448.652,2.2,2.2,0,0,1,.179.735v.082a2.2,2.2,0,0,1-.179.735,1.748,1.748,0,0,1-.448.652,1.984,1.984,0,0,1-.716.409A2.86,2.86,0,0,1,404.851,126.543Z" fill="#939393"/><path d="M403.712,66.141H348.553v3.292h55.159Z" fill="#737373"/><path d="M364.922,66.141h-10.5v3.292h10.5Z" fill="#b2b2b2"/><path d="M404.335,66.141H348.019a2.592,2.592,0,0,1-.8-.178,3.1,3.1,0,0,1-.712-.445,1.923,1.923,0,0,1-.444-.712,2.56,2.56,0,0,1-.179-.8v-.089a1.955,1.955,0,0,1,.623-1.513,1.773,1.773,0,0,1,1.424-.622h56.315a2.1,2.1,0,0,1,1.424.622,2.322,2.322,0,0,1,.623,1.513v.089a2.586,2.586,0,0,1-.178.8,1.867,1.867,0,0,1-1.157,1.157C404.868,66.141,404.6,66.141,404.335,66.141Z" fill="#939393"/><path d="M366.167,61.782a7.688,7.688,0,0,1,6.228,7.74v8.452c0,4.092,4.893,5.516,9.43,5.516,4.448,0,8.274,2.847,8.274,6.761V100.66c0,4.093,6.317,4.359,6.317,0V69.878c0-7.741-6.851-8.007-6.851-8.007Z" fill="#fda84c"/><path d="M349.086,68.543l-3.381-1.068-4.982,18.061c-1.156,3.38-2.313,7.206-3.381,11.21s-2.046,7.828-2.847,11.388l-5.071,18.059,3.38,1.068c2.047.622,7.385-12.011,11.834-28.2C349.175,82.778,351.221,69.166,349.086,68.543Z" fill="#939393"/><path d="M341.257,97.813c4.448-16.281,6.494-29.982,4.448-30.6s-7.295,12.1-11.832,28.38c-4.449,16.281-6.5,29.982-4.449,30.515C331.471,126.816,336.808,114.094,341.257,97.813Z" fill="#c2c2c2"/><path d="M332.449,119.7l-1.424,1.513a.688.688,0,0,1-.355.355c-.534-.978.978-10.142,5.071-25.177,4.181-15.036,7.651-23.576,8.629-24.2a2.461,2.461,0,0,1,.089.8l.534,1.068c.178-2.224-.177-2.4-.444-2.491-.356-.089-1.068-.356-3.826,7.117-1.69,4.627-3.647,10.854-5.516,17.527s-3.381,13.078-4.271,17.882c-1.423,7.83-.711,8.008-.355,8.1C330.759,122.279,331.2,122.368,332.449,119.7Z" fill="#fff"/><path d="M337.964,88.65c3.114-10.32,5.606-16.014,6.317-16.548a2.461,2.461,0,0,1,.089.8l.534,1.068c.178-2.224-.177-2.4-.445-2.491-.355-.089-1.067-.356-3.825,7.117-.979,2.669-1.958,5.783-3.114,9.253Z" fill="#939393"/><path d="M391.879,100.126V90.963c0-6.139-3.559-7.74-11.833-8.363-6.049-.445-5.249-4.093-5.249-8.719,0-5.872-1.067-12.1-9.341-12.1a8.4,8.4,0,0,1,6.227,8.274v7.829c0,4.181,5.071,5.6,9.7,5.871,5.249.356,8.541,2.758,8.541,6.673v10.32c0,3.826,6.406,4,6.406-.089C395.348,102.8,391.879,101.905,391.879,100.126Z" fill="#e58b39"/><path d="M366.257,25.839l21.619,6.584L389.744,27l-20.818-9.341Z" fill="#d2d2d2"/><path d="M366.257,25.839l-49.2-21.174a1.746,1.746,0,0,1-.8-.8,1.514,1.514,0,0,1,0-1.245,1.948,1.948,0,0,1,.8-.89,1.689,1.689,0,0,1,1.156-.089l50.889,16.1Z" fill="#1070c4"/><path d="M367.413,22.28l-1.246,3.559,21.619,6.583L388.5,30.2Z" fill="#b2b2b2"/><path d="M316.079,3.152a1.5,1.5,0,0,0,.267.89,2.4,2.4,0,0,0,.712.623l49.2,21.085,1.245-3.559Z" fill="#09538f"/><path d="M407.181,39.985s-1.869-8.452-7.117-13.168a10.4,10.4,0,0,0-3.736-2.4c-.089-.089-.179-.089-.357-.089-4.537-1.512-8.986.089-10.231,3.648-1.246,3.648,1.513,8.1,6.05,9.786a9.841,9.841,0,0,0,6.583.178A17.958,17.958,0,0,1,407.181,39.985Z" fill="#676767"/><path d="M407.627,40.7c-.09-5.249-6.14-14.946-11.655-16.281,0,0,3.291,2.224,3.825,4.271.445,1.69-1.334.8-2.669.8-1.335-.089-1.512.979.445,2.58,1.958,1.513-.089,1.691-1.957,1.335-1.691-.356-1.6,1.334.356,2.58,1.957,1.335-2.224,2.669-4,2.135a12.866,12.866,0,0,0,4.537.89h.267C405.669,39.718,407.716,47.191,407.627,40.7Z" fill="#fda84c"/><path d="M394.371,33.846a2.79,2.79,0,0,0,1.6,1.957c1.957,1.335-2.224,2.669-4,2.135a12.866,12.866,0,0,0,4.537.89h.267c6.228.623,9.163,4.359,10.321,4.448C406.558,41.764,403.8,36.693,394.371,33.846Z" fill="#e58b39"/><path d="M413.32,56.8a26.428,26.428,0,0,0-4.8-7.384c-.534-.534-.978-.445-.8.267.177,1.335-.357,3.114-1.869,6.05a6.181,6.181,0,0,0-.8,3.559c.178,3.024,2.223,5.338,4.626,5.249s4.27-2.669,4.092-5.694a6.87,6.87,0,0,0-.178-1.335A5.787,5.787,0,0,0,413.32,56.8Z" fill="#fda84c"/><path d="M404.957,59.112v.178c.178,3.025,2.224,5.338,4.627,5.249s4.181-2.58,4.092-5.516A4.022,4.022,0,0,1,411.9,61.07a4.428,4.428,0,0,1-2.581.8,5.362,5.362,0,0,1-2.58-.711A6.592,6.592,0,0,1,404.957,59.112Z" fill="#e58b39"/><path d="M520.778,164.458l-.412-3.628a1.222,1.222,0,0,0-1.566-1.071l-5.606-.33c-.331-1.155-.578-2.226-.907-3.38l4.2-3.381a1.4,1.4,0,0,0,.5-1.9l.082-3.793c-.247-.494-3.05-.412-3.874-.165l-5.029,1.9c-.825-.824-1.732-1.9-2.473-2.8l2.556-5.112a1.389,1.389,0,0,0-.331-1.731l-1.154-2.556c-1.978-.082-3.38.165-3.875.742l-3.791,3.792a13.569,13.569,0,0,0-3.216-1.73l.659-5.607c.248-.742-1.731-2.391-2.472-2.555l-2.144.082a2.465,2.465,0,0,0-1.731.824l-2.309,5.112a10.631,10.631,0,0,0-3.627-.165l-.413-6.595c-.742,0-2.061-.083-2.72,0l-3.793.577a1.274,1.274,0,0,0-1.154,1.318l-.082,5.606c-1.071.33-2.309.989-3.38,1.32l-1.9-4.946h-2.556a1.841,1.841,0,0,0-.825.247l-3.133,1.813a1.274,1.274,0,0,0-.659,1.649l2.062,5.358a13.623,13.623,0,0,0-2.969,2.721l-2.885-3.133c-.165-.082-2.391,0-2.556,0a1.457,1.457,0,0,0-1.4.577l-2.226,2.886a1.769,1.769,0,0,0,.247,2.143l3.792,3.958c-.659,1.071-.989,2.226-1.648,3.3l-3.051-.659h-2.473a1.74,1.74,0,0,0-1.567,1.236l-.906,3.463a1.575,1.575,0,0,0,.741,1.9l5.359,2.062a23,23,0,0,0-.247,4.039l-5.524,1.567a1.336,1.336,0,0,0-1.071,1.566l.412,3.627a1.521,1.521,0,0,0,1.484,1.4h5.688c.331,1.153.578,2.144.908,3.3l-4.37,3.545a1.5,1.5,0,0,0-.247,1.813l1.9,3.3a1.854,1.854,0,0,0,1.73.824h2.309l2.886-2.061c.824.824,1.731,1.9,2.473,2.8l-2.555,5.112a1.385,1.385,0,0,0,.33,1.73l2.967,2.474c1.484.989,2.474.577,4.04.247l1.731-4.2c1.154.329,2.144.989,3.3,1.319l-.907,5.77a1.567,1.567,0,0,0,1.236,1.567l3.545,1.154c.577.083,2.886.248,3.216-.247l.659-5.936c1.4.165,2.638.083,3.957.248l1.4,5.358c.165.907.907,1.072,1.566,1.072h2.391c.825-.165,2.638-1.319,2.638-1.978l.082-5.606a15.9,15.9,0,0,0,3.381-1.32l3.957,4.864c.5.659,2.885.742,3.627.33l.99-1.978a1.292,1.292,0,0,0,.5-1.9l-2.062-5.36a9.287,9.287,0,0,0,2.968-2.72l4.864,2.968c.5.33,3.546.5,3.875-.082l.33-3.38a2.193,2.193,0,0,0-.082-1.9l-3.958-4.2a14.65,14.65,0,0,0,1.566-3.957l5.771.577c.66,0,1.155.33,1.32,0l1.071-3.875a1.406,1.406,0,0,0-.989-1.731l-5.111-2.227a21.3,21.3,0,0,0,.412-3.792l5.111-1.649A1.686,1.686,0,0,0,520.778,164.458Zm-36.769,14.757a11.708,11.708,0,1,1,11.542-11.707A11.665,11.665,0,0,1,484.009,179.215Z" fill="#c2c2c2"/><path d="M523.417,164.458l-.412-3.628c0-.659-.743-.989-1.568-1.071l-5.605-.33c-.33-1.155-.577-2.226-.907-3.38l4.205-3.381a1.4,1.4,0,0,0,.494-1.9l-1.9-3.463c-.247-.5-.741-.742-1.648-.577l-5.276,1.978c-.825-.824-1.731-1.9-2.473-2.8l2.555-5.112a1.388,1.388,0,0,0-.33-1.731l-2.885-2.226a1.309,1.309,0,0,0-1.9.082l-4.122,4.04a13.571,13.571,0,0,0-3.216-1.731l.66-5.607a1.346,1.346,0,0,0-.99-1.731l-3.626-.824a1.361,1.361,0,0,0-1.568.577l-2.472,5.359a10.637,10.637,0,0,0-3.628-.165l-1.566-5.606a1.692,1.692,0,0,0-1.567-1.072l-3.792.577a1.276,1.276,0,0,0-1.155,1.319l-.082,5.606c-1.071.33-2.308.989-3.379,1.319l-3.463-4.451a1.233,1.233,0,0,0-1.731-.247l-3.133,1.813a1.274,1.274,0,0,0-.66,1.649l2.061,5.358a13.588,13.588,0,0,0-2.967,2.721l-4.864-2.968a1.682,1.682,0,0,0-1.98.494l-2.225,2.886a1.771,1.771,0,0,0,.247,2.143l3.793,3.958c-.66,1.071-.99,2.226-1.65,3.3l-5.523-.66a1.737,1.737,0,0,0-1.566,1.237l-.907,3.463a1.574,1.574,0,0,0,.742,1.9l5.358,2.062a23.193,23.193,0,0,0-.247,4.039l-5.523,1.567c-.742.247-1.238.742-1.073,1.566l.413,3.628a1.522,1.522,0,0,0,1.484,1.4l5.688-.083c.33,1.154.577,2.227.907,3.381l-4.37,3.544a1.409,1.409,0,0,0-.247,1.814l1.9,3.463a1.7,1.7,0,0,0,2.143.5l4.782-1.9c.824.824,1.731,1.9,2.473,2.8l-2.556,5.112a1.39,1.39,0,0,0,.33,1.731l2.968,2.473a1.5,1.5,0,0,0,1.9-.082l3.875-3.875c1.154.33,2.143.989,3.3,1.319l-.908,5.771a1.57,1.57,0,0,0,1.238,1.567l3.544,1.154a1.521,1.521,0,0,0,1.649-.99l2.226-5.193c1.4.165,2.638.082,3.957.247l1.4,5.359c.165.906.908,1.071,1.568,1.071l3.544-.494c.825-.165,1.484-.825,1.4-1.484l.082-5.606a15.892,15.892,0,0,0,3.38-1.32l3.463,4.452a1.292,1.292,0,0,0,1.9.5l3.133-1.814a1.291,1.291,0,0,0,.494-1.895l-2.06-5.36a9.316,9.316,0,0,0,2.967-2.72l4.864,2.967a1.388,1.388,0,0,0,1.732-.329l2.473-3.05a2.2,2.2,0,0,0-.083-1.9l-3.957-4.2a12.045,12.045,0,0,0,1.484-3.133l5.771.577a1.893,1.893,0,0,0,1.484-.824l1.072-3.875a1.406,1.406,0,0,0-.99-1.731l-5.111-2.226a21.319,21.319,0,0,0,.412-3.793l5.111-1.648A1.343,1.343,0,0,0,523.417,164.458Zm-36.77,14.84a11.708,11.708,0,1,1,11.542-11.708A11.665,11.665,0,0,1,486.647,179.3Z" fill="#939393"/><path d="M505.114,150.608l-.906-.907a4.3,4.3,0,0,0-.908-.824,24.694,24.694,0,0,0-14.179-6.431h-.083c-.33,0-.66-.083-1.072-.083h-1.4a25.125,25.125,0,0,0-24.9,25.31v1.567c0,.329.083.659.083,1.071v.165a5.528,5.528,0,0,0,.165,1.154,25.321,25.321,0,0,0,6.43,13.438c.165.248.412.412.577.66l.907.906a24.6,24.6,0,0,0,16.653,6.514,25.125,25.125,0,0,0,24.9-25.31A24.457,24.457,0,0,0,505.114,150.608Zm-40.727,19.374.826-.165c0-.33-.083-.577-.083-.907v-1.4a21.817,21.817,0,0,1,21.6-22.012h1.318a3.372,3.372,0,0,1,.908.083h.082a4.116,4.116,0,0,1,.99.165,21.711,21.711,0,0,1,11.211,5.441q.372.37.742.742a22.1,22.1,0,0,1,6.349,15.5,21.817,21.817,0,0,1-21.6,22.013,21.223,21.223,0,0,1-15.17-6.43c-.494-.5-.989-1.073-1.4-1.567a21.834,21.834,0,0,1-4.7-10.635,4.036,4.036,0,0,1-.082-.989Z" fill="#c2c2c2"/><path d="M214.755,129.75l115.913-47.4" fill="none" stroke="#e58b39" stroke-miterlimit="10" stroke-width="1.953" stroke-dasharray="3.349 3.349"/><path d="M438.666,174.681H258.355" fill="none" stroke="#b6b6b7" stroke-miterlimit="10" stroke-width="1.953" stroke-dasharray="3.349 3.349"/><path d="M220.105,223.043l109.319,33.965" fill="none" stroke="#409ae1" stroke-miterlimit="10" stroke-width="1.953" stroke-dasharray="3.349 3.349"/></svg>