<svg xmlns="http://www.w3.org/2000/svg" viewBox="0 0 636 300"><title>swimlane-contributors-around-world</title><path d="M374.222,171.549c-1.676,3.008.679,3.874,2.86,3.727,3.215-.217,6.371-1.2,10.384-2.025a26.4,26.4,0,0,1-8.844,14.971c-3.332,2.831-6.874,5.483-9.913,8.569-3.423,3.477-2.285,7.785-.843,11.59,2.386,6.3,1.727,8.935-4.214,13.007-1.625,1.114-3.033,2.507-4.616,3.834a46.513,46.513,0,0,1,1.325,4.707,2.538,2.538,0,0,1-.574,2.18c-5.175,3.55-5.489,10.169-10.272,14.013a17.875,17.875,0,0,1-9.5,3.93c-5.464.683-9.062.853-10.752-5.862-1.86-7.387-6.446-14.135-9.122-21.4-.916-2.487-.306-5.921.762-8.5,1.88-4.545,1.59-11.937-2.292-15.155-3.487-2.89-4.312-5.912-2.9-9.765,1.174-3.2-.6-4.111-3.563-4.538-1.4-.2-2.642-1.379-4.034-1.547a36.759,36.759,0,0,0-7.766-.209c-4.955.464-9.991,2.122-14.771,1.576-3.177-.363-6.15-3.5-8.873-5.758-1.9-1.577-2.991-4.007-4.868-5.621-2.272-1.954-2.117-3.983-1.56-6.45.456-2.017,1.063-4.395.357-6.179-1.918-4.848,1.75-7.808,3.8-11.2,1.13-1.869,3.577-3,5.246-4.631,1.052-1.026,2.279-2.276,2.518-3.574.471-2.565,1.2-4.568,4-5.721,1.1-.452,1.755-1.844,2.743-1.956,4.869-1.047,9.7-2.275,14.616-3.082,3.973-.652,8.128-1.446,12.04-.982,3.806.452,1.726,3.422,1,5.952l16.166,6.378c1.611-4.783,2.433-5.406,6.768-3.365,5.674,2.672,11.669,1.47,17.474,1.678,1.2.042,2.719-3.881,3.771-6.108.449-.949.075-2.24.075-3.344-3.685,0-7.123.434-10.348-.155a11.578,11.578,0,0,1-5.712-3.56c-1.006-1.062-.928-3.026-1.334-4.587l-3.844,1.058c-.29,2.641-.516,4.693-.741,6.745l-1.025.335c-1.7-2.584-3.381-5.175-5.095-7.749a23.309,23.309,0,0,0-2.726-3.828,39.329,39.329,0,0,0-5.693-4.75c-.928-.624-2.405-.529-3.633-.761.308,1.07.265,2.468.989,3.149,2.443,2.3,5.159,4.336,7.5,6.249l-1.594,3.571c-1.439-1.422-2.769-3.235-4.569-4.419-4.4-2.892-12.082-5.251-16.564-4.279-2.572.557-3.96,2.861-5.379,4.285a9.081,9.081,0,0,0-2.329,3.378c-1.427,4.488-6.672,6.54-11.321,4.369-.906-.423-2.083-.335-3.679-.559,0-3.436-.144-6.956.131-10.447.05-.638,1.794-1.632,2.769-1.645,3.123-.043,6.252.3,9.24.481,2.162-5.458,1.588-6.661-4.924-10.16,2.065-.552,3.958-.633,5.276-1.491,3.822-2.488,7.3-5.443,11.142-7.9,1.943-1.243,4.377-1.812,6.921-2.816.8-2.355-4.755-6.467,2.414-7.793a31.459,31.459,0,0,0,.057,3.542c.032.287.768.5,1.177.754l-2.184,2.155c2.854.72,5.915,2.494,7.47,1.694,4.358-2.242,12.943,1.311,12.7-7.582,0-.162.381-.334.555-.477l3.682.8c-.114-1.21-.645-2.573-.221-3.585a4.4,4.4,0,0,1,2.788-2.175,61.183,61.183,0,0,1,7.223-.737l-.158-1.471a55.633,55.633,0,0,1-7.665.57c-2.016-.109-5.281-.538-5.7-1.616-.895-2.271-1.4-5.234,1.87-7.107,1.807-1.036,3.218-2.68,4.832-4.071-3.259-2.259-5.8-1.91-7.2.581a11.471,11.471,0,0,1-3.359,3.872c-4.9,3.309-5.221,5.258-1.194,9.131-1.223,1.925-2.426,3.829-3.641,5.726-.6.927-.987,2.176-1.864,2.7-2.12,1.252-4.471,2.161-6.816,3.248l-1.216-1.594,3.3-2.1L317.5,82.288c-.319.066-.5.052-.582.128-1.84,1.62-3.85,4.624-6.317,2.717-1.784-1.379-2.408-4.726-2.42-7.2-.006-1.233,2.54-2.459,3.9-3.719,4.769-4.419,9.524-8.851,14.7-13.669L323.9,59.7c4.691-4.525,21.043-9.509,27.9-5.994l-1.588,1.226c2.5.676,5.091,1.24,7.577,2.084a108.174,108.174,0,0,1,10.981,4.166c2.139,1,2.135,2.924-.292,3.6a22,22,0,0,1-7.056.478c-1.4-.085-2.746-.966-4.32-1.566,3.47,6.847,3.47,6.847,7.594,7.782a14.937,14.937,0,0,0-.938-1.3c-.32-.352-.714-.646-1.687-1.5l6.029,1.071c-.332-3.728,2.161-4.879,4.961-4.369,2.849.52,2.542-.481,2.266-2.256a27.467,27.467,0,0,1-.036-3.962l4.187.652-2.408,2.529c1.811,1.667,2.878,1.912,5.082.023,2.324-1.992,7.357-4.574,8.6-3.687,3.968,2.831,7.693-2.075,11.118.6.18.14,1.394-.886,2.445-1.579L400.05,53.94,417.084,59.1c-.71-2.527-2.578-5.484-1.91-7.8.722-2.5,3.812-4.4,5.887-6.58,4.8,1.753,2.249,6.08,3.386,9.164.581,1.577,1.552,3.424,1.137,4.836-.677,2.308-2.343,4.361-3.7,6.7,3.067-.156,4.773-2.231,6.245-4.615.559-.906,1.078-1.835,1.615-2.753l3.071,2.617c.976-2.213-.11-3.744-3.586-3.506-2.545.175-3.327-.118-2.57-2.651.336-1.121-.357-2.513-.674-4.293l3.225-2.6c.093,1.235.18,2.408.278,3.724h4l-2.509-1.283c3.436-4.512,6.962-.591,10.747-.052l-4.252-5.336,11.28-1.378-.788-.945c1.29-1.194,2.385-3.081,3.9-3.455,5.368-1.323,10.431-4.054,16.407-2.986,2.361.423,4.357-.74,5.992-3.011,1.3-1.812,3.821-4.344,6.65-.432.862,1.191,3.747,1.18,5.742,1.537,1.612.288,3.413-.013,4.885.531,1.323.489,2.879,1.614,3.244,2.762.23.725-1.382,2.2-2.461,2.984a15.319,15.319,0,0,1-3.594,1.432q.018.676.037,1.353c3.149.268,6.313.428,9.439.844a44.3,44.3,0,0,1,5.731,1.384c2.968.807,5.583,1.866,8.688-.644,1.375-1.113,4.857-.323,7.222.218.959.219,1.534,2.054,2.209,3.193.79,1.333,1.215,3.045,2.377,3.9.485.359,2.462-1.057,3.738-1.655,3.443,0,7.094.012,10.745-.014a6.108,6.108,0,0,0,1.345-.314c-.458-1.533.109-2.641,1.8-2.78a44.989,44.989,0,0,1,7.274-.126,21.164,21.164,0,0,1,5.792,1.339c1.442.555,2.529,2.133,3.971,2.438,3.35.71,6.818.942,10.242,1.337,2.384.274,5.561-.923,5.87,3.056.034.437,1.538,1.125,2.338,1.1,4.282-.14,8.557-.47,11.962-.681l3.474,3.244.933-.571q-.107-1.551-.209-3.1c4.213-2.838,22.949,3.764,24.853,7.756l8.932,2.118-6.27,5.35-10.392-4.693c.268,3.151-1.853,4.122-5.357,3.339l3.238,4.91c-4.185,1.566-8.087,2.6-11.493,4.447a14.536,14.536,0,0,1-6.983,1.934c-3.967.183-9.382-.082-11.2,5.184,1.776,1.836,1.71,2.992.1,5.631-2.255,3.683-6.151,5.863-8.092,9.572-.134.257-.7.313-1.379.588-.643-3.071-1.874-6.058-1.674-8.957a8.77,8.77,0,0,1,3.467-6.038c4.839-3.154,9.368-6.412,11.707-12.016l-6.488,5.124c-2.125-3.107-4.582-3.478-7.444-1.011-1.458,1.257-2.474,3.017-4.052,4.077a7.692,7.692,0,0,1-4.16.786c-1.568-.032-3.115-.591-4.69-.779-.6-.072-1.321.49-1.876.358-8.061-1.929-12.979,2.618-17.848,7.427-1.012,1-2.43,1.637-3.853,3.636a62.456,62.456,0,0,0,6.746.966c2.215.089,3.839,2.415,3.371,5.189-1.251,7.418-5.771,12.917-11.674,17.613-.311.248-.777.654-1.038.579-6.419-1.848-7.006,4.456-10.55,6.6,4.461,7.006,4.29,7.933-2.273,9.393.13-1.957.25-3.766.386-5.823l-2.762-.721c.221-.949.414-1.78.839-3.6l-6.575,1.261c.085-.953.186-2.079.344-3.844-1.711,1.178-2.855,2.025-4.064,2.78a10.424,10.424,0,0,0-3.455,2.88l7.947,2-4.346,3.117c1.421,4.08,3.093,7.4,3.654,10.883.628,3.9-8.692,12.025-13,11.957a6.286,6.286,0,0,0-1.914.485c-2.241.721-3.94,2.828-7.02,1.4-.977-.454-3.655,1.328-4.832,2.652-.585.658.164,2.748.849,3.912.842,1.429,2.437,2.456,3.372,3.854,2.283,3.412,1.625,5.328-2.077,7.556-1.445.869-2.684,2.039-2.9,1.735l-7.884-7.773c-4.122,8.1-3.769,8.532,1.649,13.744,1.8,1.73,2.337,4.61,3.452,6.964l-1.233.879c-1.715-1.989-4.232-3.755-4.953-6.022-1.043-3.28-4.446-5.5-3.776-9.688.535-3.346-.876-6.965-1.449-10.624l-4.066,1.726-6.49-11.107c-.545.375-.947.888-1.386.918-5.879.4-9.034,4.728-13.1,7.8-2.977,2.247-5.729,4.082-5.24,8.551.262,2.388-1.049,5.607-5.186,6.443-1.7-3.508-3.734-6.989-5.093-10.688a108.7,108.7,0,0,1-2.895-10.978c-.8.356-2,1.341-2.678,1.09-1.014-.376-3.651-.554-1.859-2.824-2.715-1.558-5.261-3.574-8.2-4.525-2.2-.711-4.963.281-7.366-.1-2.281-.359-4.415-1.524-6.624-2.31-.7-.25-1.594-.777-2.131-.569-4.078,1.584-6.226-.913-7.945-3.507-1.38-2.082-2.706-2.644-5.2-1.4.72,3.047,1.869,5.655,5.189,6.918.208.079.479.15.584.306,2.545,3.754,3.141,3.791,6.8.4.289-.266.6-.51.57-.483l7.007,5.776c-6.722,9.719-17.075,13.393-28.181,15.919-.742-3.878-1.55-7.722-4.349-10.9a33.5,33.5,0,0,1-3.051-3.965c-2.136-3.316-4.045-6.768-6.326-9.99-.557-.787-2.2-.9-3.653-1.439a22.793,22.793,0,0,0,.739,2.209c2.1,4.485,3.92,9.117,6.428,13.393C366.382,165.19,368.851,169.683,374.222,171.549Zm-8.287-49.467.2.458a34.4,34.4,0,0,0,4.275-1.858c.284-.165.195-1.67-.219-1.989-3.131-2.408-6.049-5.32-10.814-4.35a3.673,3.673,0,0,1-2.949-.782c-2.731-3.309-3.637-3.433-6.1-.2a14.3,14.3,0,0,0-2.071,3.534c-.425,1.136-1.009,3-.449,3.513,1.029.949,3.39,1.993,4.245,1.512,4.254-2.393,8.182-1.839,12.253.132A4.208,4.208,0,0,0,365.935,122.082ZM386,115.7c1.3-.794,2.136-1.656,3.077-1.778,1-.129,2.111.441,3.323.743-.628-1.492-1.173-2.785-1.754-4.166-4.166-.7-8.721.552-9.727,3.8-.8,2.6,2.146,6.215,3.28,9.011,0,1.843-.776,4.5.159,5.227,2.039,1.6,4.858,3.126,8.143.693l-1.476-6.074,2.58-.806Z" fill="#d9ebf9"/><path d="M112.355,58.719c1.767.352,3.543.67,5.3,1.066a54.787,54.787,0,0,0,7.142,1.626c2.42.207,6.26.957,3.522-3.661-.236-.4.993-1.561,1.755-2.685L134.42,58.8l-3.092.616,1.8,2.991c1.106-.878,2.089-1.642,3.052-2.426,2.12-1.725.44-3.419-.827-3.825-3.754-1.2-2.78-3.252-1.847-5.614a7.122,7.122,0,0,0,.647-3.465c-.548-3.656.955-5.061,4.881-4.3,1.031.2,2.08.319,4.038.612l-7.039,5.6c1.764,2.448,4.8,3.569,3.657,6.354l3.632,3.449c5.692-4.444,1.885,4.383,5.682,3.656l4.127-7.53L144.1,53.141l3.4-1.522-4.087-1.569c.474-1.2.613-2.818,1.546-3.644A16.1,16.1,0,0,1,150.8,43.4c-1.769,3.881-1.678,4.865.638,6.851.083-1.371-.474-3.6.433-4.439,1.29-1.186,3.654-1.348,5.565-1.931.1-.031.262.147.374.127,4.533-.829,7.866.652,11.33,3.628,3.361,2.888,7.942,4.512,11.9,6.818.768.448,1.807,1.739,1.6,2.2-1.386,3.132,1.04,3.367,3.113,4.148,2.442.919,4.775,2.093,7.672,3.387l-4.7,4.683-4.921-3.81-.923.384a7.251,7.251,0,0,0,.773,2.535c.614.787,1.99,1.115,2.445,1.931a6.205,6.205,0,0,1,.8,3.724c-.065.436-2.011.623-3.373,1l1.149,1.761-.77.991c-3.122-1.792-6.457-3.335-9.3-5.455-2.3-1.714-4.565-1.507-7.1-1.4-.927.04-1.894-.756-2.843-1.171.8-.512,1.565-1.4,2.4-1.465,2.171-.16,4.455.441,4.492-2.9.009-.812,1.932-1.606,3.457-2.779a20.554,20.554,0,0,0-3.47-2.592c-2.444-1.114-4.318-3.282-6.55-4.133-2.638-1.006-6.045-.236-8.264-.236.381,2.886,1.812,6.038.733,7.932-.906,1.591-4.739,1.715-7.693,2.616.02-.309-.027.439-.074,1.187l.138-.126c-.644.523-1.29,1.044-1.931,1.57-1.262,1.033-2.463,2.14-3.793,3.089-3.692,2.633-7.53,5.171-8.856,9.639a3.53,3.53,0,0,0,.92,2.747A39.088,39.088,0,0,0,140,87.406l16.5,6.115c1.1,6.151,2.3,7.6,6.859,7.151-.437-2.234-.867-4.433-1.319-6.746,6.02-3.934,6.293-5.3,2.275-8.674.215-3.4.4-6.284.6-9.488,4.77-1.266,9.067.906,12.522,3.922,1.5,1.807,2.676,4.331,4.645,5.133,1.071.436,3.5-2.056,6.141-3.763,1.178,2.468,2.486,5.583,4.154,8.519a10.664,10.664,0,0,0,3.286,3.032c1.832,1.275,3.971,2.189,5.695,3.568,1.76,1.408,1.876,3.454-.43,4.274-3.549,1.261-6.686,3.385-11.044,3.054-3.338-.253-6.84,1.394-10.269,2.2l.324,1.3,7.455-1.446,1.235,1.51-2.666,1.864c.547.706,1.28,2.626,2.613,3.119,1.58.584,3.678-.061,5.629-.179.191,1.746-1.823,2.928-9.469,4.03L188,113.653c-5.143-1.105-11.352,2.757-11.4,5.6-2.593,2.544-4.162,4.487-6.147,5.923-2.136,1.545-3.426,2.889-2.739,5.741.241,1-1.536,2.861-2.852,3.671-6.561,4.038-6.659,4.154-4.573,11.369a17.486,17.486,0,0,1,.266,3.763l-1.212.528c-.951-1.579-1.851-3.187-2.87-4.726-.744-1.123-1.979-3.186-2.425-3.059-3.2.906-6.53-3.31-9.617.291-.475.554-1.953.678-2.871.517-4.048-.708-9.487.968-10.58,3.422-2.193,4.925-.708,12.844,2.817,15.027,2.742,1.7,7.131.352,8.895-1.986,1.139-1.51,3.473-2.226,5.271-3.3l.855,1.044c-.992,2.939-1.983,5.879-3.028,8.974,1.457,0,2.519,0,3.581,0,5.615.013,5.9.292,5.309,5.247-.549,4.625,1.674,5.554,6.582,5.866a12.262,12.262,0,0,0,9.6-3.045c2.861-2.256,6.874-1.442,10.51.089,2.006.844,4.707,1.414,6.692.853,3.094-.875,3.841,1.135,5.765,2.192,3.123,1.715,4.7,5.579,9.525,5.269,5.9-.379,9.77,4.719,8.178,8.722,3.645,1.643,7.223,3.279,10.833,4.85.446.194,1.107-.083,1.594.069,4.329,1.358,8.7,2.62,12.933,4.216,2.1.794,2.3,5.2.341,7.185-3.372,3.415-6.019,6.822-5.916,11.984.054,2.708-1.871,5.605-3.443,8.119a6.65,6.65,0,0,1-4.211,2.381c-5.035.787-7.7,2.986-8.642,7.483a9.161,9.161,0,0,1-1.631,3.484c-2.046,2.743-3.82,5.92-6.558,7.867-2.055,1.462-5.435,1.286-7.621,1.72.262,1.034,1.712,3.449.959,4.629-.945,1.481-3.716,2.737-5.66,2.689-3.8-.094-3.062,2.524-3.759,4.562l-4.856-.435,2.629,3.2a69.243,69.243,0,0,0-5.525,7c-.329.527,1.319,2.14,2.134,3.371-.821,3.052-5.214,4.049-5.127,8.375.086,4.236,4.041,4.72,5.533,7.329-5.094,1.6-11.535-.641-13.933-4.531-2.706-4.391-3.541-8.925-1.027-14.245,3.728-1.261,1.293-5.593,3.135-8.39l-.956-.4-1.385,2.539-.991-.3c1.474-5.566,3.154-11.093,4.36-16.71,1.044-4.863,1.545-9.828,2.3-14.747.291-1.9.574-3.795.939-5.679.82-4.227-.8-7.861-4.974-9.509-5.009-1.975-5.8-6.724-8.451-10.247-1.713-2.278-3.3-4.639-4.933-6.969-.212-.3-.611-.732-.517-.944,1.709-3.844-1.1-8.859,3.612-11.942,3.611-2.361,3.464-5.539,1.732-8.856a18.355,18.355,0,0,0-1.978-2.576l-2.839,2.393a19.269,19.269,0,0,1-3.56-1.806c-2.062-1.594-3.829-3.525-5.9-5.114a32.531,32.531,0,0,0-5.039-3.01c-2.368-1.212-4.808-2.3-7.243-3.393-.958-.43-2.124-1.216-2.957-1.007-7.14,1.794-11.44-4.023-17.315-5.536a1.117,1.117,0,0,1-.669-.863c.757-6.419-6.144-8.335-8.622-12.864a36.6,36.6,0,0,0-4.525-5.814,16.491,16.491,0,0,0-2.4-1.942l-1.155.873,7.581,11.46-.94.544a59.28,59.28,0,0,1-9.525-13.061,9.685,9.685,0,0,0-3.271-3.738c-7.047-4.277-10.282-10.435-9.543-18.042.6-6.2.377-11.582-6.141-13.94-.073-1.5.239-2.635-.222-3.3-2.593-3.723-5.216-7.45-8.178-10.913-.975-1.14-2.993-1.495-4.712-1.97-3.487-3.525-7.99-4.969-13.027-6.241-5.528-1.4-10.312-1.607-15.194,3.517l.364-4.511c-5.35,5.278-9.956,11.316-19.243,12.406,3.58-2.3,7.991-3,8.609-7.606L19.5,83.885l-.548-3.37c-4.291,3.217-4.231-1.631-6.24-2.758a31.1,31.1,0,0,1,4.112-4.307c1.551-1.13,5.5-.165,3.616-4.032-3.886.557-7.929,2.027-10.473-2.741,2.376-.376,4.216-3.559,7.126-.653.211.21,1.712-.6,2.476-1.115a2.614,2.614,0,0,0-.858-1.707c-2.415-1.257-4.934-2.34-8.64-4.05C16.728,56.314,22.3,53.673,28.1,51.625c1.721-.607,4.12.419,6.2.764,7.536,1.252,15.264,1.926,22.537,4,5.607,1.6,10.307.119,15.366-1.056,2.073-.481,4.237-.615,7.159-1.017l1.219,1.372c4.356.466,7.95.792,11.523,1.254,2.266.293,4.488.882,6.754,1.168,2.2.277,3.011,1.035,1.187,3.511,2.564-.107,4.693-.212,6.823-.278,1.049-.033,2.1.007,3.151.009,1.3,0,2.6,0,4.154,0-.914-1.454-1.317-2.094-1.711-2.742C112.469,58.6,112.355,58.719,112.355,58.719Zm28.234,51.224,11.185,1.405c-4.212,1.593-5.6,5.6-2.84,10.118.447-2.377.449-3.987,1.093-5.326a9.835,9.835,0,0,1,2.885-3.007,2.621,2.621,0,0,1,1.763,1.07,8.092,8.092,0,0,1,.5,4.113c-.767,2.959.949,2.954,2.887,2.256,2.945-1.061,5.756-2.451,8.624-3.7l-.314-1.049c-1.561.477-3.176.839-4.669,1.46-1.618.672-3.122,1.585-5.137,2.632l1.757-5.193,2.519.239.446-1.034c-1.443-.684-2.857-1.43-4.339-2.031-1.109-.45-2.941-.386-3.36-1.108-3.071-5.294-6.905-5.369-11.509-1.893C141.762,109.134,141.428,109.353,140.589,109.943ZM96.121,66.137l-.461-1.815H85.679l-.013,1.1,2.43.253-1.938,3.593Zm4.47,9.5-3.37,3.333c5.611,1.6,8.418-2.653,12.16-4.767Z" fill="#d9ebf9"/><path d="M277.055,17.049l-8.1,3.075,1.187.423-8.679,8.083,6.44,4.444-6.35,1.2c1.435,1.074,2.874,1.7,3.42,2.732.329.624-.731,1.893-1.261,3.081l1.736.972c-2.051,3.943-5.64,4.11-9.651,3.249l-.511,1.02c1.205,1.313,2.184,2.944,3.666,3.868,2.443,1.523,3.321,5.114.771,6.126-5.14,2.041-9.771,6.056-16.094,4.431-2.29,4.095-4.952,7.126-10.644,6.794a4.779,4.779,0,0,0-4.863,4.473c-.379,3.557-2.785,6.924-4.314,10.4C212.692,79.8,207.782,70.1,206.43,62.576c-.205-1.139,1.61-2.637,2.584-3.906a28.009,28.009,0,0,1,2.12-2.234,26.131,26.131,0,0,0-2.6-1.959,6.414,6.414,0,0,1-2.871-2.272l4.041.841c-1.217-2.524-1.217-2.524-6.608-2.7,1.521-7.861-5.254-14.916-13.894-14.478a34.324,34.324,0,0,1-5.732.15c-1.2-.145-2.288-1.091-3.457-1.617a12.207,12.207,0,0,1-3.506-2l7.6-.556-.015-.6L173.617,29.9l-.039-1.337c2.865-.9,5.752-1.738,8.586-2.712,1.541-.53,2.993-1.286,4.485-1.94l-3.793-3.185,10.066-3.083c2.235-4.525,7.153-2.964,10.867-3.909.771-.2,1.941.988,2.2,1.129,1.723,0,2.955-.018,4.186.007.649.013,1.3.1,1.943.154-.052-.662-.1-1.325-.189-2.4l4.8.86c2.169-3.574,5.724-4.064,9.7-3.539a13.028,13.028,0,0,0,2.389.237c7.179-.406,14.353-.919,21.537-1.228a10.777,10.777,0,0,1,3.845,1.08c2.2.806,4.35,1.706,7.366,2.9L243.818,14.6l.1,1.148,10.31-.984c-.756.982-1.2,1.555-1.641,2.129l.384.6,7.208-2.679.545.917-3.459,3.864C263.852,17.28,269.779,13.622,277.055,17.049Z" fill="#d9ebf9"/><path d="M518.306,215.083c1.887,1.7,3.435,3.1,5.339-.484a5.315,5.315,0,0,1,6.675-2.76,12.856,12.856,0,0,0,3.852.365c.253,2.195-.213,4.659.885,5.979,1.275,1.535,3.922,2.068,7.1,3.566.759-3.88,1.464-7.477,2.168-11.074l.851-.095c2.025,3.735,3.762,7.644,6.168,11.15a41.982,41.982,0,0,0,7.011,7.478c7.037,6.182,7.5,13.418,1.956,20.233a10.263,10.263,0,0,0-1.583,3.091c-1.6,4.578-4.023,5.824-9.357,4.972-.863-.138-2.105,1.063-2.785.792-2.426-.967-6.134-.391-6.453-4.264-.046-.55-.673-1.078-1.088-1.575-1.008-1.207-2.049-2.39-3.1-3.6l-1.921,2.321c-5.917-7.544-11.242-7.033-20.84-2.695a19.04,19.04,0,0,1-3.436.882c-1.789.424-3.562.96-5.38,1.21a13.722,13.722,0,0,1-4.961.016c-.443-.107-.179-2.244-.513-3.379-.97-3.3-2.243-6.52-3.074-9.843-.512-2.046-1.292-4.652-.4-6.23,1.084-1.911,3.715-3.142,5.849-4.414,3.139-1.872,7.459-1.507,9.248-6.071C511.454,218.271,515.512,216.97,518.306,215.083Z" fill="#d9ebf9"/><path d="M145.316,35.433a21.025,21.025,0,0,1,1.072-2.559A35.29,35.29,0,0,1,148.476,30l2.724.754.49-.539-4.6-3.323c-2.9,2.714-5.636,2.676-10.764-.684L139,25.045l-.387-.591a10.176,10.176,0,0,1-3.334.292c-.935-.235-1.663-1.191-2.483-1.829,1.972-5.518,4.612-6.327,9.383-3.277,1.332.852,3.391.7,5.121,1.008,1.027,1.553,2.05,3.114,3.289,5,.152-.217-.154.221-.791,1.137l4.017-.84-4.489-4.783,7.1.764.071-1.277c-3.079-.162-6.072-1.488-9.28.116l-6.112-4.895c17.407-3.724,34.126-8.08,51.5-3.222l.313,1.261-8.558,2.38,2.672.838c-5.478,1.616-9.1,5.806-14.677,6.221-.076.006-.12.22-.2.317-2.626,3.028-5.057,6.224-8.948,8.065-.366.174-.049,1.618-.049,3.554l-17.912.1Z" fill="#d9ebf9"/><path d="M98.522,45.278l3.522.914-.2.689h8.559l2.664,3.911c.28-2.843-1.071-5.391,1.88-6.394a22.7,22.7,0,0,1,3.242-.58c-1.272,5.144.067,7.441,5.962,11.073.047,1.234-5.344-.031.136,3.7l-1.8-.073a33.3,33.3,0,0,0-5.7-.956c-1.473,0-2.95.735-4.431,1.151-.006.006.108-.111.1-.1a18.02,18.02,0,0,1-3.964.34,47.86,47.86,0,0,1-5.9-1.335,17.106,17.106,0,0,1-6.05-2.585c1.2-.233,2.4-.473,3.6-.7a10.192,10.192,0,0,0,3.735-1.217l-8.53-.368-.054-.7,1.82-.969L93.739,49.4,96.3,45.96Z" fill="#d9ebf9"/><path d="M558.293,210.064c-1.88-1.05-3.843-1.991-5.619-3.177-2.208-1.473-4.148-3.159-6.632-.235-.487.573-2.248.459-3.337.257a47.065,47.065,0,0,1-5.126-1.528c1.54-3.828-1.6-5.3-4.58-5.766-4.3-.674-5.206-4.4-8.018-6.335,2.622.313,5.932-.632,6.52,3.251.02.131,2.363.418,2.919-.071,1.958-1.723,3.868-1.587,6.02-.589,3.738,1.735,7.9,2.95,11.118,5.307,2.877,2.109,4.717,5.463,7.015,8.269C558.48,209.652,558.386,209.858,558.293,210.064Z" fill="#d9ebf9"/><path d="M501.666,181.8l2.414,2.106c-.664.786-1.457,1.723-2.352,2.78.543,1.194,1.118,2.457,1.488,3.268-1.5,3.048-2.861,5.793-4.32,8.749-2.192-.463-4.965-.5-7.031-1.648-1.864-1.039-3.068-3.233-4.292-5.076-.262-.394.417-1.778,1.045-2.18C492.755,187.149,497,184.64,501.666,181.8Z" fill="#d9ebf9"/><path d="M385.537,212.627c-.463,3.277-.625,6-1.272,8.609a91.2,91.2,0,0,1-2.984,9.175c-.718,1.976-1.215,5.106-4.277,3.776-1.536-.667-2.45-3.612-2.689-5.627-.28-2.363.4-4.846.831-7.252a3.91,3.91,0,0,1,1.225-2.339C378.989,217.007,381.753,215.216,385.537,212.627Z" fill="#d9ebf9"/><path d="M418,34.69c-2.645.9-5.22,2.157-7.949,2.617-6.73,1.135-11.246,5.091-14.606,10.136-.765,1.149,1.03,3.8,1.9,6.549l-8.76-3.606c5-13.036,16.676-15.408,28.743-17.182Q417.666,33.948,418,34.69Z" fill="#d9ebf9"/><path d="M326.644,24.379c.144-.444.37-1.143.59-1.824a3.165,3.165,0,0,1,.959.146c4.243,2.484,8.474,4.988,13.054,7.693-5.024,4.092-5.586-3.044-9.022-2.5l-4.933,7.224c-1.674-2.1-3.083-3.866-4.489-5.634-.081-.1-.107-.282-.208-.326a20.015,20.015,0,0,1-4.269-1.986c-.425-.329.211-1.86.5-3.742Z" fill="#d9ebf9"/><path d="M290.051,103.187l2.447-1.76-.966-.215c.345-1.391.729-2.774,1.02-4.175.215-1.035.825-2.406.36-3.082a68.61,68.61,0,0,0-5.063-5.961c1.976-2.019,1.976-2.019,7.64-.557l-1.282,2.634,7.33,8.867C299.8,102.306,298.864,102.7,290.051,103.187Z" fill="#d9ebf9"/><path d="M482.919,196.12c-.5,1.813-1,3.608-1.629,5.856-9.078-3.464-10.584-13.122-17.951-17.593q.348-.587.695-1.175c1.667.674,3.652,1.012,4.942,2.085,3.545,2.949,6.727,6.278,10.213,9.295C480.117,195.391,481.619,195.609,482.919,196.12Z" fill="#d9ebf9"/><path d="M145.242,35.393l-2.157.86c5.68,4.42,12.42-1.645,19.029,2.592-1.69.979-2.959,2.337-4.241,2.347-5.072.042-10.154-.264-15.218-.625-.983-.069-2.722-.969-2.715-1.466.055-3.43-2.127-3.973-5.041-4.086-.775-.03-1.519-.777-2.278-1.2l.307-.981q6.186,1.292,12.38,2.588C145.316,35.433,145.242,35.393,145.242,35.393Z" fill="#d9ebf9"/><path d="M98.522,45.278,96.3,45.96a24.4,24.4,0,0,0-4.021,2.162c-4.747,3.827-5.19,4.672-9.8.52.878-2.264,1.744-4.5,2.826-7.287,3.285.358,7.106.613,10.838,1.3C97.076,42.824,97.734,44.365,98.522,45.278Z" fill="#d9ebf9"/><path d="M541.616,121.805c3.341,5.417.27,11.151-5.217,12.169-2.171.4-4.185,1.52-6.348,2.007a13.294,13.294,0,0,1-3.685-.18c-.228,1.19-.5,2.631-.98,5.125-2.235-4.979-.634-7.734,4.163-8.436,2.346-.343,4.651-.016,5.465-2.821.09-.31,1.366-.191,1.764-.572a28.028,28.028,0,0,0,3.629-4.013A13.089,13.089,0,0,0,541.616,121.805Z" fill="#d9ebf9"/><path d="M260.762,71.227c-.152-1-.336-2.2-.561-3.676h-3.46c2.486-2,4.373-3.687,5.815.053,5.715-3.145,9.479-2.979,13.073.665C271.465,72.106,266.939,74.089,260.762,71.227Z" fill="#d9ebf9"/><path d="M111.313,33.194c.22,3.991,2.672,3.59,5.148,2.846.226,3.238-6.717,5.632-14.783,4.951l3.011-1.786H96.825c.762-1.358,1.089-2.536,1.887-3.253,2.276-2.044,4.427-.158,6.562.505,1.443.448,2.806,1.121,4.287,1.727.145-1.86.245-3.137.345-4.415Z" fill="#d9ebf9"/><path d="M470.788,26.386c-7.346.323-10.232-1.028-8.55-4.118l-3.965-.834c.95-1.109,1.467-2.169,2.344-2.645,2.117-1.151,4.432-1.522,6.15.589.207.255-1.138,1.621-1.759,2.465l6.212,1.1C471.088,24,470.953,25.068,470.788,26.386Z" fill="#d9ebf9"/><path d="M597.469,262.728l2.446,1c-.831,1.117-1.481,2.079-2.224,2.972-1.794,2.158-3.36,4.595-5.57,6.284-1.043.8-3.355.137-5.377-.757Z" fill="#d9ebf9"/><path d="M128.134,51.116l-6.9-4.848,4.326.378c-.187-.979-.629-2.392-.445-2.468a43.348,43.348,0,0,1,4.738-1.444c.138.834.292,1.666.4,2.5.024.184-.239.438-.172.575C131.654,49.052,131.659,49.05,128.134,51.116Z" fill="#d9ebf9"/><path d="M202.862,101.156c-1.613,2.405-1.14,3.325,1.571,4.09,1.554.439,2.488,2.808,4.311,5.062l-12.077-2.071,4.743-7.367Z" fill="#d9ebf9"/><path d="M331.124,22.343c4.832-1.832,9.689-1.189,15.094-.061C340.878,27.256,336,24.621,331.124,22.343Z" fill="#d9ebf9"/><path d="M549.324,38.281c-1.269.671-2.469,1.7-3.823,1.93a23.857,23.857,0,0,1-6.733.191c-1.071-.128-2-1.32-2.99-2.03.933-.776,1.883-2.228,2.8-2.208,3.4.074,6.8.631,10.193,1.007Z" fill="#d9ebf9"/><path d="M289.138,93.676c-.136,4.421-2.052,7.062-7.255,6.472C283.69,92.46,285.016,91.346,289.138,93.676Z" fill="#d9ebf9"/><path d="M118.489,35.281l12.063-.807c-.437,1.944-.271,4.026-1.287,4.9a2.362,2.362,0,0,1-3.954-1.543c-.021-.138-1.8.19-2.547-.131A40.787,40.787,0,0,1,118.489,35.281Z" fill="#d9ebf9"/><path d="M544.9,111V95.069C548.848,101.051,545.918,106.1,544.9,111Z" fill="#d9ebf9"/><path d="M149.7,66.994l9.9,4.184-.469.922-9.287.416c0-2.193,0-3.92,0-5.648Z" fill="#d9ebf9"/><path d="M606.948,257.359c-1.324,1.872-2.891,4.086-4.908,6.935-.671-3.109-2.6-5.064-1.395-8,.851-2.072,1.421-1.182,2.562-.524A33.076,33.076,0,0,0,606.948,257.359Z" fill="#d9ebf9"/><path d="M510.339,201.281l-4.679-2.154,1.676-1.825q-.3,1.839-.6,3.678l-1.18-.031c-.212-2.73-.425-5.46-.662-8.515l4.418,1.939c.68,2.137,1.279,4.017,1.877,5.9Z" fill="#d9ebf9"/><path d="M86.993,35.254,98.673,30.7c-.393,3.289-.456,3.007-3.747,3.648-2.459.479-4.731,1.805-7.087,2.754Z" fill="#d9ebf9"/><path d="M540.64,119.936l3.908-6.119,6.509,4.106Z" fill="#d9ebf9"/><path d="M482.533,202.314l16.064,3.1-.255,1.19-16.191-2.443Q482.342,203.236,482.533,202.314Z" fill="#d9ebf9"/><path d="M169.405,160.047c-1.367-.462-2.736-.921-4.1-1.388-3.76-1.285-7.519-2.574-10.6-3.629C157.405,153.2,162.6,154.425,169.405,160.047Z" fill="#d9ebf9"/><path d="M481.012,27.95l-9.4,1.616C473.635,24.1,475.919,23.577,481.012,27.95Z" fill="#d9ebf9"/><path d="M507.279,172.56l-.5-9.911,1.906-.392c.327,1.143,1.287,2.593.859,3.37-1.214,2.2-.655,3.351,1.481,3.9Z" fill="#d9ebf9"/><path d="M117.423,25.054c3.817.178,7.612.4,9.436,5L116.943,26.3Z" fill="#d9ebf9"/><path d="M551.767,268.915c-1.284-2.683-2.084-4.354-3.354-7.009l6.658,2.137C554.148,265.4,553.226,266.764,551.767,268.915Z" fill="#d9ebf9"/><path d="M516.915,177.27c0,1.486.351,2.958-.165,4.08-.221.482-2.346.552-3.411.235-1-.3-1.748-1.354-2.648-2.111Z" fill="#d9ebf9"/><path d="M400.384,18.853l-9.919,2.613-.4-.5c2.783-1.39,5.537-2.839,8.4-4.068C398.72,16.791,399.674,18.112,400.384,18.853Z" fill="#d9ebf9"/><path d="M110.2,27.584c-1.511,2.766-2.786,5.043-6.634,3.269C105.068,28.627,105.941,25.864,110.2,27.584Z" fill="#d9ebf9"/><path d="M211.684,77.389a13.351,13.351,0,0,1-.94,5.027,12.268,12.268,0,0,1-2.615,4.05,12.1,12.1,0,0,1-3.986,2.691,13.671,13.671,0,0,1-10.55-.165,11.1,11.1,0,0,1-4.1-3.313,15.5,15.5,0,0,1-2.564-5.32,26.257,26.257,0,0,1-.889-7.134,29.385,29.385,0,0,1,1.155-8.519,19.545,19.545,0,0,1,3.3-6.538,14.818,14.818,0,0,1,5.193-4.2,15.441,15.441,0,0,1,6.855-1.486,17.3,17.3,0,0,1,6.551.991v6.7a12.019,12.019,0,0,0-6.043-1.574,8.439,8.439,0,0,0-3.682.787,8.139,8.139,0,0,0-2.831,2.234,10.8,10.8,0,0,0-1.853,3.491,15.531,15.531,0,0,0-.724,4.558h.152a8.83,8.83,0,0,1,7.643-3.58,9.972,9.972,0,0,1,4.088.812,8.871,8.871,0,0,1,3.123,2.3,10.548,10.548,0,0,1,2.006,3.568A14.257,14.257,0,0,1,211.684,77.389Zm-7.846.507q0-5.865-4.8-5.865a4.7,4.7,0,0,0-1.98.407,4.388,4.388,0,0,0-1.524,1.142,5.212,5.212,0,0,0-.977,1.739,6.829,6.829,0,0,0-.343,2.222,8.6,8.6,0,0,0,.355,2.514,6.7,6.7,0,0,0,1,2.044,4.965,4.965,0,0,0,1.536,1.383,3.919,3.919,0,0,0,1.981.508,4.294,4.294,0,0,0,1.968-.444,4.408,4.408,0,0,0,1.5-1.244,5.732,5.732,0,0,0,.952-1.93A8.8,8.8,0,0,0,203.838,77.9Z" fill="#737373"/><path d="M228.682,90.135q-13,0-13-18.256,0-9.471,3.517-14.435t10.194-4.964q12.694,0,12.695,18.561,0,9.243-3.465,14.168A11.418,11.418,0,0,1,228.682,90.135Zm.356-31.535q-5.207,0-5.205,13.076,0,12.315,5.1,12.314,4.975,0,4.977-12.695T229.038,58.6Z" fill="#737373"/><path d="M255.329,83.1,251.6,95.949h-6.246L247.94,83.1Z" fill="#737373"/><path d="M273.724,90.135q-13,0-13-18.256,0-9.471,3.517-14.435t10.194-4.964q12.695,0,12.695,18.561,0,9.243-3.465,14.168A11.418,11.418,0,0,1,273.724,90.135ZM274.08,58.6q-5.207,0-5.2,13.076,0,12.315,5.1,12.314,4.976,0,4.977-12.695T274.08,58.6Z" fill="#737373"/><path d="M304.154,90.135q-13,0-13-18.256,0-9.471,3.517-14.435t10.194-4.964q12.7,0,12.7,18.561,0,9.243-3.466,14.168A11.418,11.418,0,0,1,304.154,90.135ZM304.51,58.6q-5.2,0-5.2,13.076,0,12.315,5.1,12.314,4.977,0,4.977-12.695T304.51,58.6Z" fill="#737373"/><path d="M334.584,90.135q-13,0-13-18.256,0-9.471,3.517-14.435T335.3,52.48q12.7,0,12.7,18.561,0,9.243-3.466,14.168A11.418,11.418,0,0,1,334.584,90.135ZM334.94,58.6q-5.2,0-5.2,13.076,0,12.315,5.1,12.314,4.977,0,4.977-12.695T334.94,58.6Z" fill="#737373"/><path d="M381.036,77.186h-9.775v9.775h-5.129V77.186h-9.826V72.031h9.826V62.205h5.129v9.826h9.775Z" fill="#737373"/><path d="M194.474,132.5h-2v-1.953h-.049a4.191,4.191,0,0,1-3.845,2.246,4.112,4.112,0,0,1-2.924-.989,3.426,3.426,0,0,1-1.055-2.624q0-3.5,4.126-4.077l3.747-.525q0-3.186-2.576-3.186a6.152,6.152,0,0,0-4.077,1.538v-2.051a7.749,7.749,0,0,1,4.248-1.172q4.407,0,4.407,4.663Zm-2-6.323-3.015.415a4.9,4.9,0,0,0-2.1.689,1.99,1.99,0,0,0-.708,1.752,1.9,1.9,0,0,0,.654,1.5,2.518,2.518,0,0,0,1.739.58,3.211,3.211,0,0,0,2.46-1.044,3.73,3.73,0,0,0,.97-2.642Z" fill="#737373"/><path d="M207.017,131.926a6.506,6.506,0,0,1-3.418.867,5.662,5.662,0,0,1-4.316-1.739,6.307,6.307,0,0,1-1.641-4.511,6.925,6.925,0,0,1,1.77-4.962,6.19,6.19,0,0,1,4.724-1.874,6.588,6.588,0,0,1,2.905.61v2.051a5.091,5.091,0,0,0-2.978-.976,4.028,4.028,0,0,0-3.144,1.373,5.216,5.216,0,0,0-1.227,3.607,4.962,4.962,0,0,0,1.154,3.467,3.972,3.972,0,0,0,3.094,1.269,5.015,5.015,0,0,0,3.077-1.086Z" fill="#737373"/><path d="M216.092,132.378a3.862,3.862,0,0,1-1.867.391q-3.285,0-3.284-3.663v-7.4h-2.149V120h2.149v-3.052l2-.647V120h3.149v1.709h-3.149v7.043a2.919,2.919,0,0,0,.427,1.795,1.706,1.706,0,0,0,1.416.537,2.1,2.1,0,0,0,1.306-.415Z" fill="#737373"/><path d="M220.041,116.826a1.27,1.27,0,0,1-.916-.366,1.236,1.236,0,0,1-.378-.928,1.282,1.282,0,0,1,1.294-1.306,1.29,1.29,0,0,1,.934.373,1.3,1.3,0,0,1,0,1.849A1.283,1.283,0,0,1,220.041,116.826Zm.977,15.674h-2V120h2Z" fill="#737373"/><path d="M235.147,120l-4.98,12.5H228.2L223.465,120h2.2l3.174,9.082a8.168,8.168,0,0,1,.439,1.746h.049a8.235,8.235,0,0,1,.391-1.7l3.32-9.131Z" fill="#737373"/><path d="M247.592,126.75h-8.826a4.674,4.674,0,0,0,1.123,3.223,3.871,3.871,0,0,0,2.954,1.135,6.14,6.14,0,0,0,3.882-1.391v1.88a7.252,7.252,0,0,1-4.358,1.2,5.278,5.278,0,0,1-4.162-1.7,6.964,6.964,0,0,1-1.514-4.791,6.835,6.835,0,0,1,1.654-4.755,5.3,5.3,0,0,1,4.108-1.837,4.7,4.7,0,0,1,3.8,1.587,6.618,6.618,0,0,1,1.343,4.407Zm-2.051-1.7a4.074,4.074,0,0,0-.836-2.7,2.848,2.848,0,0,0-2.289-.964,3.232,3.232,0,0,0-2.405,1.013,4.6,4.6,0,0,0-1.22,2.649Z" fill="#737373"/><path d="M265.292,132.793a7.681,7.681,0,0,1-5.963-2.454,9.1,9.1,0,0,1-2.241-6.384,9.643,9.643,0,0,1,2.283-6.738,7.975,7.975,0,0,1,6.213-2.515,7.508,7.508,0,0,1,5.841,2.442,9.127,9.127,0,0,1,2.216,6.384,9.678,9.678,0,0,1-2.27,6.775A7.826,7.826,0,0,1,265.292,132.793Zm.146-16.235a5.644,5.644,0,0,0-4.48,1.989,8.852,8.852,0,0,0-.042,10.432,5.475,5.475,0,0,0,4.376,1.971,5.749,5.749,0,0,0,4.541-1.88,7.686,7.686,0,0,0,1.66-5.261,8.024,8.024,0,0,0-1.612-5.359A5.522,5.522,0,0,0,265.438,116.558Z" fill="#737373"/><path d="M276.516,131.792v-2.417a4.677,4.677,0,0,0,.994.659,7.992,7.992,0,0,0,1.221.494,9.577,9.577,0,0,0,1.288.312,7.2,7.2,0,0,0,1.2.11,4.691,4.691,0,0,0,2.827-.7,2.634,2.634,0,0,0,.622-3.253,3.506,3.506,0,0,0-.861-.959,8.663,8.663,0,0,0-1.3-.83q-.751-.4-1.617-.836-.917-.463-1.709-.94a7.351,7.351,0,0,1-1.38-1.05,4.41,4.41,0,0,1-.922-1.3,4.435,4.435,0,0,1,.19-3.784,4.515,4.515,0,0,1,1.379-1.459,6.267,6.267,0,0,1,1.947-.854,8.928,8.928,0,0,1,2.228-.281,8.536,8.536,0,0,1,3.772.623v2.307a6.839,6.839,0,0,0-3.979-1.074,6.511,6.511,0,0,0-1.343.14,3.779,3.779,0,0,0-1.2.458,2.645,2.645,0,0,0-.855.818,2.168,2.168,0,0,0-.33,1.22,2.51,2.51,0,0,0,.251,1.16,2.824,2.824,0,0,0,.738.891,7.249,7.249,0,0,0,1.191.781q.7.379,1.617.83.939.465,1.782.977a8.133,8.133,0,0,1,1.477,1.135,5.039,5.039,0,0,1,1.007,1.38,3.867,3.867,0,0,1,.373,1.733,4.391,4.391,0,0,1-.507,2.191,4.156,4.156,0,0,1-1.367,1.459,5.984,5.984,0,0,1-1.984.812,10.916,10.916,0,0,1-2.368.25,9.556,9.556,0,0,1-1.025-.067q-.612-.067-1.246-.2a10.082,10.082,0,0,1-1.2-.317A3.693,3.693,0,0,1,276.516,131.792Z" fill="#737373"/><path d="M290.047,131.792v-2.417a4.659,4.659,0,0,0,.995.659,7.939,7.939,0,0,0,1.22.494,9.614,9.614,0,0,0,1.288.312,7.2,7.2,0,0,0,1.2.11,4.687,4.687,0,0,0,2.826-.7A2.634,2.634,0,0,0,298.2,127a3.49,3.49,0,0,0-.861-.959,8.65,8.65,0,0,0-1.3-.83q-.752-.4-1.618-.836-.915-.463-1.709-.94a7.343,7.343,0,0,1-1.379-1.05,4.373,4.373,0,0,1-.922-1.3,4.429,4.429,0,0,1,.189-3.784,4.507,4.507,0,0,1,1.38-1.459,6.251,6.251,0,0,1,1.946-.854,8.934,8.934,0,0,1,2.228-.281,8.536,8.536,0,0,1,3.772.623v2.307a6.837,6.837,0,0,0-3.979-1.074,6.511,6.511,0,0,0-1.343.14,3.779,3.779,0,0,0-1.2.458,2.655,2.655,0,0,0-.855.818,2.175,2.175,0,0,0-.329,1.22,2.51,2.51,0,0,0,.25,1.16,2.838,2.838,0,0,0,.738.891,7.336,7.336,0,0,0,1.191.781q.7.379,1.617.83.94.465,1.782.977a8.133,8.133,0,0,1,1.477,1.135,5.064,5.064,0,0,1,1.008,1.38,3.88,3.88,0,0,1,.372,1.733,4.391,4.391,0,0,1-.507,2.191,4.147,4.147,0,0,1-1.367,1.459,5.975,5.975,0,0,1-1.984.812,10.916,10.916,0,0,1-2.368.25,9.572,9.572,0,0,1-1.025-.067q-.611-.067-1.245-.2a9.982,9.982,0,0,1-1.2-.317A3.7,3.7,0,0,1,290.047,131.792Z" fill="#737373"/><path d="M319.746,131.926a6.5,6.5,0,0,1-3.418.867,5.66,5.66,0,0,1-4.315-1.739,6.3,6.3,0,0,1-1.642-4.511,6.929,6.929,0,0,1,1.77-4.962,6.193,6.193,0,0,1,4.724-1.874,6.593,6.593,0,0,1,2.906.61v2.051a5.092,5.092,0,0,0-2.979-.976,4.029,4.029,0,0,0-3.144,1.373,5.216,5.216,0,0,0-1.226,3.607,4.966,4.966,0,0,0,1.153,3.467,3.976,3.976,0,0,0,3.1,1.269,5.012,5.012,0,0,0,3.076-1.086Z" fill="#737373"/><path d="M328.248,132.793a5.8,5.8,0,0,1-4.425-1.752,6.486,6.486,0,0,1-1.654-4.645,6.761,6.761,0,0,1,1.721-4.919,6.189,6.189,0,0,1,4.651-1.77,5.609,5.609,0,0,1,4.364,1.721,6.825,6.825,0,0,1,1.569,4.773,6.715,6.715,0,0,1-1.691,4.791A5.922,5.922,0,0,1,328.248,132.793Zm.147-11.4a3.805,3.805,0,0,0-3.052,1.312,5.387,5.387,0,0,0-1.123,3.619,5.1,5.1,0,0,0,1.135,3.5,3.86,3.86,0,0,0,3.04,1.281,3.659,3.659,0,0,0,2.984-1.257,5.454,5.454,0,0,0,1.044-3.577,5.55,5.55,0,0,0-1.044-3.613A3.643,3.643,0,0,0,328.4,121.392Z" fill="#737373"/><path d="M348.3,132.5h-2v-7.129q0-3.979-2.9-3.979a3.153,3.153,0,0,0-2.485,1.129,4.184,4.184,0,0,0-.982,2.85V132.5h-2V120h2v2.075h.049a4.512,4.512,0,0,1,4.1-2.368,3.823,3.823,0,0,1,3.137,1.324,5.9,5.9,0,0,1,1.087,3.827Z" fill="#737373"/><path d="M358.118,132.378a3.866,3.866,0,0,1-1.868.391q-3.284,0-3.283-3.663v-7.4h-2.149V120h2.149v-3.052l2-.647V120h3.149v1.709h-3.149v7.043a2.919,2.919,0,0,0,.427,1.795,1.706,1.706,0,0,0,1.416.537,2.1,2.1,0,0,0,1.306-.415Z" fill="#737373"/><path d="M367.56,122.026a2.451,2.451,0,0,0-1.514-.4,2.554,2.554,0,0,0-2.142,1.208,5.593,5.593,0,0,0-.861,3.3V132.5h-2V120h2v2.576h.049a4.371,4.371,0,0,1,1.306-2.057,2.976,2.976,0,0,1,1.966-.739,3.269,3.269,0,0,1,1.2.171Z" fill="#737373"/><path d="M371.008,116.826a1.267,1.267,0,0,1-.915-.366,1.233,1.233,0,0,1-.379-.928,1.284,1.284,0,0,1,1.294-1.306,1.289,1.289,0,0,1,.934.373,1.3,1.3,0,0,1,0,1.849A1.281,1.281,0,0,1,371.008,116.826Zm.977,15.674h-2V120h2Z" fill="#737373"/><path d="M378.338,130.693h-.048V132.5h-2V113.994h2v8.2h.048a4.734,4.734,0,0,1,4.322-2.49,4.58,4.58,0,0,1,3.765,1.679,6.924,6.924,0,0,1,1.362,4.5,7.749,7.749,0,0,1-1.526,5.023,5.083,5.083,0,0,1-4.175,1.886A4.113,4.113,0,0,1,378.338,130.693Zm-.048-5.041V127.4a3.717,3.717,0,0,0,1.006,2.631,3.6,3.6,0,0,0,5.409-.311,6.389,6.389,0,0,0,1.031-3.87,5.038,5.038,0,0,0-.965-3.271,3.192,3.192,0,0,0-2.612-1.184,3.544,3.544,0,0,0-2.807,1.214A4.461,4.461,0,0,0,378.29,125.652Z" fill="#737373"/><path d="M401.342,132.5h-2v-1.978h-.048a4.113,4.113,0,0,1-3.858,2.271q-4.467,0-4.468-5.322V120h1.99v7.153q0,3.955,3.027,3.955a3.062,3.062,0,0,0,2.411-1.08,4.131,4.131,0,0,0,.946-2.826V120h2Z" fill="#737373"/><path d="M411.431,132.378a3.866,3.866,0,0,1-1.868.391q-3.283,0-3.283-3.663v-7.4h-2.149V120h2.149v-3.052l2-.647V120h3.149v1.709h-3.149v7.043a2.919,2.919,0,0,0,.427,1.795,1.706,1.706,0,0,0,1.416.537,2.1,2.1,0,0,0,1.306-.415Z" fill="#737373"/><path d="M419.579,132.793a5.8,5.8,0,0,1-4.425-1.752A6.486,6.486,0,0,1,413.5,126.4a6.761,6.761,0,0,1,1.721-4.919,6.189,6.189,0,0,1,4.651-1.77,5.609,5.609,0,0,1,4.364,1.721,6.825,6.825,0,0,1,1.569,4.773,6.715,6.715,0,0,1-1.691,4.791A5.922,5.922,0,0,1,419.579,132.793Zm.147-11.4a3.805,3.805,0,0,0-3.052,1.312,5.387,5.387,0,0,0-1.123,3.619,5.1,5.1,0,0,0,1.135,3.5,3.86,3.86,0,0,0,3.04,1.281,3.658,3.658,0,0,0,2.984-1.257,5.454,5.454,0,0,0,1.044-3.577,5.55,5.55,0,0,0-1.044-3.613A3.642,3.642,0,0,0,419.726,121.392Z" fill="#737373"/><path d="M435.771,122.026a2.45,2.45,0,0,0-1.513-.4,2.554,2.554,0,0,0-2.143,1.208,5.593,5.593,0,0,0-.86,3.3V132.5h-2V120h2v2.576h.049a4.356,4.356,0,0,1,1.306-2.057,2.975,2.975,0,0,1,1.965-.739,3.262,3.262,0,0,1,1.2.171Z" fill="#737373"/><path d="M437.438,132.048V129.9a5.919,5.919,0,0,0,3.6,1.208q2.635,0,2.636-1.757a1.523,1.523,0,0,0-.226-.849,2.243,2.243,0,0,0-.61-.616,4.716,4.716,0,0,0-.9-.483q-.519-.213-1.117-.445a14.337,14.337,0,0,1-1.459-.665,4.415,4.415,0,0,1-1.049-.757,2.8,2.8,0,0,1-.635-.958,3.378,3.378,0,0,1-.214-1.258,2.982,2.982,0,0,1,.4-1.556,3.565,3.565,0,0,1,1.074-1.135,4.99,4.99,0,0,1,1.532-.69,6.824,6.824,0,0,1,1.776-.232,7.176,7.176,0,0,1,2.9.562V122.3a5.662,5.662,0,0,0-3.173-.9,3.73,3.73,0,0,0-1.014.128,2.488,2.488,0,0,0-.775.36,1.685,1.685,0,0,0-.5.556,1.468,1.468,0,0,0-.176.713,1.722,1.722,0,0,0,.176.818,1.81,1.81,0,0,0,.519.586,3.945,3.945,0,0,0,.831.464q.487.209,1.11.452a15.523,15.523,0,0,1,1.49.653,5.135,5.135,0,0,1,1.123.757,2.955,2.955,0,0,1,.714.97,3.128,3.128,0,0,1,.25,1.306,3.078,3.078,0,0,1-.409,1.612,3.51,3.51,0,0,1-1.092,1.135,5,5,0,0,1-1.575.671,7.752,7.752,0,0,1-1.868.22A7.091,7.091,0,0,1,437.438,132.048Z" fill="#737373"/><path d="M186.471,203.307v-6.983A14.087,14.087,0,0,0,195,198.99a7.681,7.681,0,0,0,4.786-1.32,4.382,4.382,0,0,0,1.714-3.682,4.187,4.187,0,0,0-2.12-3.758,11,11,0,0,0-5.827-1.32h-3.377v-6.144H193.3q7.108,0,7.109-4.723,0-4.443-5.459-4.443a12.447,12.447,0,0,0-7.109,2.361V169.41a19.637,19.637,0,0,1,8.937-1.93q5.586,0,8.7,2.514a8,8,0,0,1,3.11,6.526q0,7.134-7.236,8.937v.127a9.838,9.838,0,0,1,6.093,2.806,7.908,7.908,0,0,1,2.235,5.7,9.767,9.767,0,0,1-3.733,8.074q-3.732,2.972-10.308,2.971A19.93,19.93,0,0,1,186.471,203.307Z" fill="#737373"/><path d="M224.9,198.1l-3.732,12.847H214.92l2.59-12.847Z" fill="#737373"/><path d="M256.319,172.711q-2.438,4.393-4.367,8.239t-3.4,7.592a71.588,71.588,0,0,0-2.514,7.617,73.594,73.594,0,0,0-1.7,8.341h-8.379a68.505,68.505,0,0,1,1.879-8.176,76.607,76.607,0,0,1,2.7-7.63q1.536-3.694,3.4-7.2t3.949-6.855H230.979V168.09h25.34Z" fill="#737373"/><path d="M273.724,205.135q-13,0-13-18.256,0-9.471,3.517-14.435t10.194-4.964q12.695,0,12.695,18.561,0,9.243-3.465,14.168A11.418,11.418,0,0,1,273.724,205.135Zm.356-31.535q-5.207,0-5.2,13.076,0,12.315,5.1,12.314,4.976,0,4.977-12.7T274.08,173.6Z" fill="#737373"/><path d="M304.154,205.135q-13,0-13-18.256,0-9.471,3.517-14.435t10.194-4.964q12.7,0,12.7,18.561,0,9.243-3.466,14.168A11.418,11.418,0,0,1,304.154,205.135Zm.356-31.535q-5.2,0-5.2,13.076,0,12.315,5.1,12.314,4.977,0,4.977-12.7T304.51,173.6Z" fill="#737373"/><path d="M350.606,192.186h-9.775v9.775H335.7v-9.775h-9.827v-5.155H335.7v-9.826h5.129v9.826h9.775Z" fill="#737373"/><path d="M192.851,247.793a7.681,7.681,0,0,1-5.963-2.454,9.1,9.1,0,0,1-2.241-6.384,9.643,9.643,0,0,1,2.283-6.738,7.975,7.975,0,0,1,6.214-2.515,7.506,7.506,0,0,1,5.84,2.442,9.127,9.127,0,0,1,2.216,6.384,9.678,9.678,0,0,1-2.27,6.775A7.826,7.826,0,0,1,192.851,247.793ZM193,231.558a5.646,5.646,0,0,0-4.48,1.989,8.852,8.852,0,0,0-.042,10.432,5.475,5.475,0,0,0,4.376,1.971,5.749,5.749,0,0,0,4.541-1.88,7.686,7.686,0,0,0,1.66-5.261,8.024,8.024,0,0,0-1.612-5.359A5.522,5.522,0,0,0,193,231.558Z" fill="#737373"/><path d="M204.075,246.792v-2.417a4.677,4.677,0,0,0,.994.659,7.992,7.992,0,0,0,1.221.494,9.577,9.577,0,0,0,1.288.312,7.2,7.2,0,0,0,1.2.11,4.689,4.689,0,0,0,2.827-.7,2.634,2.634,0,0,0,.622-3.253,3.49,3.49,0,0,0-.861-.959,8.65,8.65,0,0,0-1.3-.83q-.751-.4-1.618-.836-.916-.464-1.709-.94a7.384,7.384,0,0,1-1.38-1.05,4.388,4.388,0,0,1-.921-1.3,4.429,4.429,0,0,1,.189-3.784A4.515,4.515,0,0,1,206,230.837a6.267,6.267,0,0,1,1.947-.854,8.928,8.928,0,0,1,2.228-.281,8.536,8.536,0,0,1,3.772.623v2.307a6.837,6.837,0,0,0-3.979-1.074,6.511,6.511,0,0,0-1.343.14,3.779,3.779,0,0,0-1.2.458,2.655,2.655,0,0,0-.855.818,2.167,2.167,0,0,0-.329,1.22,2.51,2.51,0,0,0,.25,1.16,2.838,2.838,0,0,0,.738.891,7.292,7.292,0,0,0,1.191.781q.7.379,1.617.83.939.465,1.782.977a8.133,8.133,0,0,1,1.477,1.135,5.064,5.064,0,0,1,1.008,1.38,3.88,3.88,0,0,1,.372,1.733,4.391,4.391,0,0,1-.507,2.191,4.156,4.156,0,0,1-1.367,1.459,5.984,5.984,0,0,1-1.984.812,10.916,10.916,0,0,1-2.368.25,9.556,9.556,0,0,1-1.025-.067q-.612-.067-1.245-.2a10.049,10.049,0,0,1-1.2-.317A3.693,3.693,0,0,1,204.075,246.792Z" fill="#737373"/><path d="M217.606,246.792v-2.417a4.659,4.659,0,0,0,1,.659,7.98,7.98,0,0,0,1.22.494,9.614,9.614,0,0,0,1.288.312,7.214,7.214,0,0,0,1.2.11,4.687,4.687,0,0,0,2.826-.7,2.634,2.634,0,0,0,.622-3.253,3.5,3.5,0,0,0-.86-.959,8.715,8.715,0,0,0-1.3-.83q-.752-.4-1.618-.836-.915-.464-1.709-.94a7.343,7.343,0,0,1-1.379-1.05,4.373,4.373,0,0,1-.922-1.3,4.429,4.429,0,0,1,.189-3.784,4.507,4.507,0,0,1,1.38-1.459,6.251,6.251,0,0,1,1.946-.854,8.934,8.934,0,0,1,2.228-.281,8.533,8.533,0,0,1,3.772.623v2.307a6.837,6.837,0,0,0-3.979-1.074,6.511,6.511,0,0,0-1.343.14,3.788,3.788,0,0,0-1.2.458,2.655,2.655,0,0,0-.855.818,2.175,2.175,0,0,0-.329,1.22,2.51,2.51,0,0,0,.25,1.16,2.828,2.828,0,0,0,.739.891,7.28,7.28,0,0,0,1.19.781q.7.379,1.617.83.941.465,1.782.977a8.133,8.133,0,0,1,1.477,1.135,5.064,5.064,0,0,1,1.008,1.38,3.88,3.88,0,0,1,.372,1.733,4.391,4.391,0,0,1-.507,2.191,4.147,4.147,0,0,1-1.367,1.459,5.975,5.975,0,0,1-1.984.812,10.916,10.916,0,0,1-2.368.25,9.572,9.572,0,0,1-1.025-.067q-.61-.067-1.245-.2a10.032,10.032,0,0,1-1.2-.317A3.7,3.7,0,0,1,217.606,246.792Z" fill="#737373"/><path d="M247.305,246.926a6.5,6.5,0,0,1-3.418.867,5.662,5.662,0,0,1-4.315-1.739,6.307,6.307,0,0,1-1.642-4.511,6.929,6.929,0,0,1,1.77-4.962,6.193,6.193,0,0,1,4.724-1.874,6.593,6.593,0,0,1,2.906.61v2.051a5.092,5.092,0,0,0-2.979-.976,4.026,4.026,0,0,0-3.143,1.373,5.211,5.211,0,0,0-1.227,3.607,4.966,4.966,0,0,0,1.153,3.467,3.976,3.976,0,0,0,3.1,1.269,5.012,5.012,0,0,0,3.076-1.086Z" fill="#737373"/><path d="M255.807,247.793a5.8,5.8,0,0,1-4.425-1.752,6.486,6.486,0,0,1-1.654-4.645,6.761,6.761,0,0,1,1.721-4.919,6.189,6.189,0,0,1,4.651-1.77,5.609,5.609,0,0,1,4.364,1.721,6.825,6.825,0,0,1,1.569,4.773,6.715,6.715,0,0,1-1.691,4.791A5.922,5.922,0,0,1,255.807,247.793Zm.147-11.4A3.805,3.805,0,0,0,252.9,237.7a5.387,5.387,0,0,0-1.123,3.619,5.1,5.1,0,0,0,1.135,3.5,3.86,3.86,0,0,0,3.04,1.281,3.658,3.658,0,0,0,2.984-1.257,5.454,5.454,0,0,0,1.044-3.577,5.55,5.55,0,0,0-1.044-3.613A3.642,3.642,0,0,0,255.954,236.392Z" fill="#737373"/><path d="M283.23,247.5h-2v-7.178a5.419,5.419,0,0,0-.641-3,2.431,2.431,0,0,0-2.154-.927,2.67,2.67,0,0,0-2.18,1.171,4.494,4.494,0,0,0-.9,2.808V247.5h-2v-7.422q0-3.685-2.844-3.686a2.636,2.636,0,0,0-2.173,1.1,4.572,4.572,0,0,0-.854,2.875V247.5h-2V235h2v1.978h.049a4.245,4.245,0,0,1,3.882-2.271,3.612,3.612,0,0,1,3.54,2.588,4.46,4.46,0,0,1,4.15-2.588q4.125,0,4.126,5.09Z" fill="#737373"/><path d="M289.315,245.693h-.049v7.557h-2V235h2v2.2h.049a4.733,4.733,0,0,1,4.321-2.49,4.577,4.577,0,0,1,3.772,1.679,6.945,6.945,0,0,1,1.355,4.5,7.749,7.749,0,0,1-1.526,5.023,5.081,5.081,0,0,1-4.174,1.886A4.182,4.182,0,0,1,289.315,245.693Zm-.049-5.041V242.4a3.718,3.718,0,0,0,1.007,2.631,3.594,3.594,0,0,0,5.408-.311,6.382,6.382,0,0,0,1.031-3.87,5.038,5.038,0,0,0-.964-3.271,3.193,3.193,0,0,0-2.612-1.184,3.546,3.546,0,0,0-2.808,1.214A4.461,4.461,0,0,0,289.266,240.652Z" fill="#737373"/><path d="M311.159,247.5h-2v-1.953h-.049a4.191,4.191,0,0,1-3.845,2.246,4.112,4.112,0,0,1-2.924-.989,3.426,3.426,0,0,1-1.055-2.624q0-3.5,4.126-4.077l3.747-.525q0-3.186-2.575-3.186a6.153,6.153,0,0,0-4.078,1.538v-2.051a7.749,7.749,0,0,1,4.248-1.172q4.407,0,4.407,4.663Zm-2-6.323-3.015.415a4.9,4.9,0,0,0-2.1.689,1.99,1.99,0,0,0-.708,1.752,1.9,1.9,0,0,0,.654,1.5,2.518,2.518,0,0,0,1.739.58,3.21,3.21,0,0,0,2.46-1.044,3.73,3.73,0,0,0,.97-2.642Z" fill="#737373"/><path d="M325.557,247.5h-2v-7.129q0-3.98-2.905-3.979a3.15,3.15,0,0,0-2.484,1.129,4.185,4.185,0,0,0-.983,2.85V247.5h-2V235h2v2.075h.049a4.512,4.512,0,0,1,4.1-2.368,3.825,3.825,0,0,1,3.138,1.324,5.9,5.9,0,0,1,1.086,3.827Z" fill="#737373"/><path d="M339.528,235l-5.75,14.5q-1.538,3.882-4.321,3.882a4.566,4.566,0,0,1-1.306-.159v-1.794a3.72,3.72,0,0,0,1.184.219,2.453,2.453,0,0,0,2.27-1.806l1-2.368L327.724,235h2.221l3.382,9.619q.06.183.256.952h.073q.061-.292.244-.927L337.453,235Z" fill="#737373"/><path d="M357.545,246.926a6.506,6.506,0,0,1-3.418.867,5.66,5.66,0,0,1-4.315-1.739,6.3,6.3,0,0,1-1.642-4.511,6.929,6.929,0,0,1,1.77-4.962,6.192,6.192,0,0,1,4.724-1.874,6.585,6.585,0,0,1,2.905.61v2.051a5.089,5.089,0,0,0-2.978-.976,4.029,4.029,0,0,0-3.144,1.373,5.216,5.216,0,0,0-1.226,3.607,4.961,4.961,0,0,0,1.153,3.467,3.976,3.976,0,0,0,3.095,1.269,5.015,5.015,0,0,0,3.076-1.086Z" fill="#737373"/><path d="M366.047,247.793a5.8,5.8,0,0,1-4.425-1.752,6.486,6.486,0,0,1-1.654-4.645,6.761,6.761,0,0,1,1.721-4.919,6.188,6.188,0,0,1,4.651-1.77,5.609,5.609,0,0,1,4.364,1.721,6.825,6.825,0,0,1,1.568,4.773,6.714,6.714,0,0,1-1.69,4.791A5.922,5.922,0,0,1,366.047,247.793Zm.146-11.4a3.8,3.8,0,0,0-3.051,1.312,5.387,5.387,0,0,0-1.123,3.619,5.1,5.1,0,0,0,1.135,3.5,3.859,3.859,0,0,0,3.039,1.281,3.661,3.661,0,0,0,2.985-1.257,5.454,5.454,0,0,0,1.044-3.577,5.55,5.55,0,0,0-1.044-3.613A3.645,3.645,0,0,0,366.193,236.392Z" fill="#737373"/><path d="M386.1,247.5h-2v-7.129q0-3.98-2.906-3.979a3.15,3.15,0,0,0-2.484,1.129,4.184,4.184,0,0,0-.982,2.85V247.5h-2V235h2v2.075h.048a4.514,4.514,0,0,1,4.1-2.368,3.823,3.823,0,0,1,3.137,1.324,5.9,5.9,0,0,1,1.087,3.827Z" fill="#737373"/><path d="M395.917,247.378a3.866,3.866,0,0,1-1.868.391q-3.283,0-3.283-3.663v-7.4h-2.149V235h2.149v-3.052l2-.647V235h3.149v1.709h-3.149v7.043a2.919,2.919,0,0,0,.427,1.795,1.7,1.7,0,0,0,1.416.537,2.1,2.1,0,0,0,1.306-.415Z" fill="#737373"/><path d="M405.359,237.026a2.453,2.453,0,0,0-1.514-.4,2.554,2.554,0,0,0-2.142,1.208,5.586,5.586,0,0,0-.861,3.3V247.5h-2V235h2v2.576h.049a4.364,4.364,0,0,1,1.306-2.057,2.976,2.976,0,0,1,1.966-.739,3.269,3.269,0,0,1,1.2.171Z" fill="#737373"/><path d="M408.807,231.826a1.267,1.267,0,0,1-.915-.366,1.233,1.233,0,0,1-.379-.928,1.284,1.284,0,0,1,1.294-1.306,1.29,1.29,0,0,1,.934.373,1.3,1.3,0,0,1,0,1.849A1.283,1.283,0,0,1,408.807,231.826Zm.977,15.674h-2V235h2Z" fill="#737373"/><path d="M416.137,245.693h-.049V247.5h-2V228.994h2v8.2h.049a4.734,4.734,0,0,1,4.321-2.49,4.581,4.581,0,0,1,3.766,1.679,6.924,6.924,0,0,1,1.361,4.5,7.749,7.749,0,0,1-1.525,5.023,5.084,5.084,0,0,1-4.175,1.886A4.111,4.111,0,0,1,416.137,245.693Zm-.049-5.041V242.4a3.718,3.718,0,0,0,1.007,2.631,3.594,3.594,0,0,0,5.408-.311,6.382,6.382,0,0,0,1.032-3.87,5.038,5.038,0,0,0-.965-3.271,3.192,3.192,0,0,0-2.612-1.184,3.546,3.546,0,0,0-2.808,1.214A4.461,4.461,0,0,0,416.088,240.652Z" fill="#737373"/><path d="M439.141,247.5h-2v-1.978h-.049a4.111,4.111,0,0,1-3.857,2.271q-4.469,0-4.468-5.322V235h1.99v7.153q0,3.956,3.027,3.955a3.062,3.062,0,0,0,2.411-1.08,4.131,4.131,0,0,0,.946-2.826V235h2Z" fill="#737373"/><path d="M449.23,247.378a3.866,3.866,0,0,1-1.868.391q-3.284,0-3.283-3.663v-7.4H441.93V235h2.149v-3.052l2-.647V235h3.149v1.709h-3.149v7.043a2.919,2.919,0,0,0,.427,1.795,1.7,1.7,0,0,0,1.416.537,2.1,2.1,0,0,0,1.306-.415Z" fill="#737373"/><path d="M457.378,247.793a5.8,5.8,0,0,1-4.425-1.752A6.486,6.486,0,0,1,451.3,241.4a6.761,6.761,0,0,1,1.721-4.919,6.188,6.188,0,0,1,4.651-1.77,5.609,5.609,0,0,1,4.364,1.721A6.825,6.825,0,0,1,463.6,241.2a6.715,6.715,0,0,1-1.691,4.791A5.922,5.922,0,0,1,457.378,247.793Zm.146-11.4a3.8,3.8,0,0,0-3.051,1.312,5.387,5.387,0,0,0-1.123,3.619,5.1,5.1,0,0,0,1.135,3.5,3.859,3.859,0,0,0,3.039,1.281,3.661,3.661,0,0,0,2.985-1.257,5.454,5.454,0,0,0,1.044-3.577,5.55,5.55,0,0,0-1.044-3.613A3.645,3.645,0,0,0,457.524,236.392Z" fill="#737373"/><path d="M473.57,237.026a2.45,2.45,0,0,0-1.513-.4,2.554,2.554,0,0,0-2.143,1.208,5.593,5.593,0,0,0-.86,3.3V247.5h-2V235h2v2.576h.049a4.356,4.356,0,0,1,1.306-2.057,2.974,2.974,0,0,1,1.965-.739,3.265,3.265,0,0,1,1.2.171Z" fill="#737373"/><path d="M475.236,247.048V244.9a5.923,5.923,0,0,0,3.6,1.208q2.637,0,2.637-1.757a1.523,1.523,0,0,0-.226-.849,2.243,2.243,0,0,0-.61-.616,4.7,4.7,0,0,0-.9-.483c-.345-.142-.718-.29-1.116-.445a14.337,14.337,0,0,1-1.459-.665,4.443,4.443,0,0,1-1.05-.757,2.807,2.807,0,0,1-.634-.958,3.378,3.378,0,0,1-.214-1.258,2.982,2.982,0,0,1,.4-1.556,3.565,3.565,0,0,1,1.074-1.135,4.99,4.99,0,0,1,1.532-.69,6.824,6.824,0,0,1,1.776-.232,7.176,7.176,0,0,1,2.905.562V237.3a5.663,5.663,0,0,0-3.174-.9,3.727,3.727,0,0,0-1.013.128,2.488,2.488,0,0,0-.775.36,1.664,1.664,0,0,0-.5.556,1.468,1.468,0,0,0-.176.713,1.722,1.722,0,0,0,.176.818,1.8,1.8,0,0,0,.519.586,3.961,3.961,0,0,0,.83.464q.489.209,1.111.452a15.634,15.634,0,0,1,1.49.653,5.135,5.135,0,0,1,1.123.757,2.938,2.938,0,0,1,.713.97,3.127,3.127,0,0,1,.251,1.306,3.078,3.078,0,0,1-.409,1.612,3.5,3.5,0,0,1-1.093,1.135,5,5,0,0,1-1.574.671,7.758,7.758,0,0,1-1.868.22A7.1,7.1,0,0,1,475.236,247.048Z" fill="#737373"/></svg>