<svg width="636" height="300" viewBox="0 0 636 300" fill="none" xmlns="http://www.w3.org/2000/svg">
<path d="M237.52 58.451V239.351C237.52 247.292 278.091 253.729 328.137 253.729C378.183 253.729 418.755 247.292 418.755 239.351V58.451H237.52Z" fill="#B5D5EA"/>
<path d="M283.38 58.451H237.52V239.351C237.52 244.708 255.998 249.377 283.38 251.851V58.451Z" fill="#939393"/>
<path d="M283.38 58.451H237.52V239.351C237.52 244.708 255.998 249.377 283.38 251.851V58.451Z" fill="#8FC6E5"/>
<path d="M235.057 202.783C235.057 210.939 276.731 217.551 328.137 217.551C379.543 217.551 421.217 210.939 421.217 202.783" stroke="#9CCBE7" stroke-width="2" stroke-miterlimit="10"/>
<path d="M235.057 166.474C235.057 174.631 276.731 181.243 328.137 181.243C379.543 181.243 421.217 174.631 421.217 166.474" stroke="#9CCBE7" stroke-width="2" stroke-miterlimit="10"/>
<path d="M235.057 130.166C235.057 138.323 276.731 144.934 328.137 144.934C379.543 144.934 421.217 138.323 421.217 130.166" stroke="#9CCBE7" stroke-width="2" stroke-miterlimit="10"/>
<path d="M235.057 93.858C235.057 102.014 276.731 108.626 328.137 108.626C379.543 108.626 421.217 102.014 421.217 93.858" stroke="#9CCBE7" stroke-width="2" stroke-miterlimit="10"/>
<path d="M248.985 61.474C248.985 61.474 241.752 46.25 328.864 46.25C415.976 46.25 408.428 58.914 408.428 58.914C408.428 58.914 388.616 69.014 336.097 69.014C283.578 69.014 248.985 61.474 248.985 61.474Z" fill="#69AFE5"/>
<path d="M328.136 71.475C367.473 71.475 399.362 67.3265 399.362 62.209C399.362 57.0915 367.473 52.943 328.136 52.943C288.799 52.943 256.91 57.0915 256.91 62.209C256.91 67.3265 288.799 71.475 328.136 71.475Z" fill="#8FC6E5"/>
<path d="M328.137 44.074C278.091 44.074 237.52 50.511 237.52 58.451C237.52 66.391 278.091 72.829 328.137 72.829C378.183 72.829 418.755 66.392 418.755 58.451C418.755 50.51 378.183 44.074 328.137 44.074ZM328.137 66.439C288.8 66.439 256.911 62.291 256.911 57.173C256.911 52.055 288.8 47.908 328.137 47.908C367.474 47.908 399.363 52.056 399.363 57.173C399.363 62.29 367.474 66.439 328.137 66.439Z" fill="#DAEAF4"/>
<path d="M190.623 97.342V252.625C190.623 259.442 225.448 264.967 268.409 264.967C311.37 264.967 346.195 259.442 346.195 252.625V97.342H190.623Z" fill="#C5C5C5"/>
<path d="M229.989 97.342H190.623V252.625C190.623 257.225 206.484 261.232 229.989 263.355V97.342Z" fill="#939393"/>
<path d="M229.989 97.342H190.623V252.625C190.623 257.225 206.484 261.232 229.989 263.355V97.342Z" fill="#B2B2B2"/>
<path d="M188.51 221.236C188.51 228.236 224.282 233.913 268.41 233.913C312.538 233.913 348.31 228.238 348.31 221.236" stroke="#D2D2D2" stroke-width="2" stroke-miterlimit="10"/>
<path d="M188.51 190.069C188.51 197.069 224.282 202.746 268.41 202.746C312.538 202.746 348.31 197.07 348.31 190.069" stroke="#D2D2D2" stroke-width="2" stroke-miterlimit="10"/>
<path d="M188.51 158.9C188.51 165.9 224.282 171.577 268.41 171.577C312.538 171.577 348.31 165.901 348.31 158.9" stroke="#D2D2D2" stroke-width="2" stroke-miterlimit="10"/>
<path d="M188.51 127.735C188.51 134.735 224.282 140.412 268.41 140.412C312.538 140.412 348.31 134.736 348.31 127.735" stroke="#D2D2D2" stroke-width="2" stroke-miterlimit="10"/>
<path d="M200.466 99.936C200.466 99.936 194.257 86.868 269.034 86.868C343.811 86.868 337.334 97.739 337.334 97.739C337.334 97.739 320.326 106.412 275.244 106.412C230.162 106.412 200.466 99.936 200.466 99.936Z" fill="#737373"/>
<path d="M268.41 108.521C302.176 108.521 329.55 104.96 329.55 100.567C329.55 96.1741 302.176 92.613 268.41 92.613C234.643 92.613 207.27 96.1741 207.27 100.567C207.27 104.96 234.643 108.521 268.41 108.521Z" fill="#939393"/>
<path d="M268.409 85C225.448 85 190.623 90.526 190.623 97.342C190.623 104.158 225.448 109.684 268.409 109.684C311.37 109.684 346.199 104.158 346.199 97.342C346.199 90.526 311.368 85 268.409 85ZM268.409 104.2C234.642 104.2 207.268 100.639 207.268 96.247C207.268 91.855 234.642 88.293 268.409 88.293C302.176 88.293 329.549 91.854 329.549 96.247C329.549 100.64 302.176 104.2 268.409 104.2Z" fill="#E6E6E6"/>
<path d="M311.3 248.6C305.685 249.331 299.237 249.937 292.043 250.246V258.355C296.696 257.978 304.294 257.286 311.3 256.496V248.6Z" fill="#B2B2B2"/>
<path d="M315.678 247.982V255.982C319.732 255.476 323.278 254.949 325.492 254.452C328.084 253.869 330.192 253.368 331.872 252.952V244.745C328.278 245.67 322.789 246.9 315.678 247.982Z" fill="#B2B2B2"/>
<path d="M309.812 248.788V255.309C303.506 256.021 296.729 256.651 292.043 257.045V258.357C296.696 257.98 304.294 257.288 311.3 256.498V248.598C310.813 248.666 310.312 248.727 309.812 248.788Z" fill="#999999"/>
<path d="M330.384 245.118V251.764C328.707 252.176 326.596 252.678 324.004 253.264C322.067 253.7 319.104 254.158 315.678 254.605V255.983C319.732 255.477 323.278 254.95 325.492 254.453C328.084 253.87 330.192 253.369 331.872 252.953V244.747C331.408 244.865 330.91 244.99 330.384 245.118Z" fill="#999999"/>
<path d="M429.49 160.612C430.173 162.397 431.369 163.939 432.928 165.044C434.487 166.148 436.339 166.766 438.249 166.818C440.159 166.871 442.042 166.355 443.659 165.338C445.276 164.32 446.555 162.846 447.334 161.101C448.114 159.357 448.358 157.42 448.037 155.537C447.716 153.653 446.843 151.907 445.53 150.52C444.216 149.132 442.521 148.165 440.658 147.741C438.795 147.317 436.848 147.455 435.063 148.137C432.67 149.053 430.739 150.881 429.694 153.221C428.649 155.56 428.576 158.219 429.49 160.612Z" fill="#4393D4"/>
<path d="M177.574 176.978C179.983 183.275 184.204 188.716 189.705 192.613C195.206 196.51 201.739 198.689 208.478 198.873C215.218 199.057 221.86 197.239 227.566 193.648C233.271 190.057 237.784 184.855 240.533 178.7C243.283 172.544 244.145 165.711 243.01 159.066C241.876 152.42 238.797 146.26 234.162 141.365C229.527 136.469 223.544 133.058 216.971 131.563C210.397 130.068 203.528 130.555 197.231 132.964C188.788 136.194 181.973 142.646 178.287 150.9C174.601 159.154 174.344 168.535 177.574 176.978Z" fill="#4393D4"/>
<path d="M354.454 240.793C356.778 246.871 360.853 252.123 366.163 255.885C371.472 259.647 377.778 261.75 384.283 261.928C390.788 262.106 397.199 260.351 402.707 256.885C408.214 253.42 412.57 248.398 415.223 242.457C417.877 236.515 418.709 229.92 417.614 223.506C416.52 217.091 413.547 211.145 409.073 206.42C404.599 201.695 398.824 198.403 392.479 196.96C386.134 195.517 379.503 195.988 373.426 198.313C365.277 201.431 358.701 207.658 355.143 215.624C351.585 223.591 351.337 232.644 354.454 240.793Z" fill="#4393D4"/>
<path d="M263.459 210.691C266.335 218.207 271.374 224.701 277.94 229.353C284.507 234.005 292.305 236.605 300.349 236.825C308.393 237.045 316.322 234.875 323.132 230.588C329.943 226.302 335.329 220.092 338.611 212.745C341.892 205.397 342.921 197.241 341.568 189.309C340.214 181.377 336.538 174.024 331.006 168.18C325.473 162.337 318.332 158.265 310.486 156.48C302.639 154.695 294.439 155.277 286.923 158.152C281.933 160.061 277.367 162.934 273.487 166.608C269.607 170.281 266.489 174.683 264.31 179.562C262.131 184.441 260.935 189.701 260.789 195.042C260.643 200.383 261.55 205.701 263.459 210.691Z" fill="#4393D4"/>
<path d="M126.801 125.94C125.061 121.392 124.709 116.43 125.789 111.682C126.87 106.934 129.334 102.612 132.87 99.2646C136.406 95.9168 140.856 93.6928 145.656 92.8738C150.456 92.0548 155.391 92.6777 159.838 94.6635C164.284 96.6494 168.041 99.9091 170.635 104.03C173.228 108.152 174.542 112.95 174.409 117.817C174.275 122.685 172.702 127.404 169.887 131.377C167.072 135.351 163.142 138.4 158.594 140.14C155.574 141.295 152.356 141.844 149.124 141.756C145.891 141.668 142.708 140.943 139.756 139.625C136.804 138.306 134.14 136.419 131.917 134.071C129.694 131.723 127.956 128.96 126.801 125.94Z" fill="#4393D4"/>
<path d="M91.0721 81.817C92.5309 85.63 95.0877 88.9247 98.419 91.2846C101.75 93.6444 105.707 94.9633 109.788 95.0746C113.869 95.1859 117.891 94.0844 121.346 91.9096C124.801 89.7348 127.534 86.5842 129.198 82.8564C130.862 79.1285 131.384 74.9909 130.697 70.9666C130.009 66.9424 128.144 63.2123 125.337 60.2481C122.53 57.2839 118.907 55.2187 114.926 54.3138C110.945 53.4088 106.785 53.7047 102.972 55.164C97.8597 57.1204 93.7338 61.0276 91.5022 66.026C89.2705 71.0244 89.1158 76.7046 91.0721 81.817Z" fill="#4393D4"/>
<path d="M166.268 41.164C167.279 43.8091 169.053 46.0947 171.364 47.7318C173.675 49.3689 176.419 50.284 179.25 50.3613C182.081 50.4386 184.872 49.6746 187.269 48.1661C189.665 46.6576 191.561 44.4722 192.716 41.8862C193.871 39.3003 194.233 36.43 193.756 33.6384C193.28 30.8467 191.986 28.259 190.039 26.2026C188.092 24.1461 185.578 22.7133 182.817 22.0852C180.055 21.4571 177.17 21.662 174.525 22.674C170.978 24.031 168.115 26.7414 166.567 30.2089C165.018 33.6765 164.911 37.6171 166.268 41.164Z" fill="#4393D4"/>
<path d="M110.04 33.505C111.264 36.7031 113.408 39.4664 116.202 41.4457C118.996 43.425 122.315 44.5313 125.737 44.6248C129.16 44.7182 132.534 43.7945 135.432 41.9706C138.33 40.1466 140.622 37.5043 142.018 34.3778C143.414 31.2512 143.852 27.7808 143.276 24.4055C142.7 21.0302 141.136 17.9014 138.782 15.415C136.428 12.9285 133.389 11.196 130.05 10.4365C126.711 9.67697 123.222 9.92458 120.024 11.148C117.9 11.9603 115.957 13.1829 114.306 14.7461C112.655 16.3093 111.328 18.1824 110.401 20.2585C109.474 22.3346 108.965 24.573 108.903 26.8458C108.841 29.1187 109.227 31.3815 110.04 33.505Z" fill="#4393D4"/>
<path d="M208.527 59.894C209.284 61.872 210.611 63.5812 212.339 64.8053C214.067 66.0295 216.12 66.7136 218.237 66.7711C220.354 66.8287 222.441 66.2571 224.233 65.1287C226.025 64.0003 227.443 62.3657 228.306 60.4317C229.169 58.4977 229.44 56.3512 229.083 54.2635C228.726 52.1758 227.758 50.2408 226.302 48.7032C224.845 47.1656 222.966 46.0944 220.9 45.6252C218.835 45.156 216.677 45.3097 214.699 46.067C213.386 46.5694 212.184 47.3255 211.163 48.2922C210.142 49.259 209.321 50.4174 208.747 51.7014C208.174 52.9853 207.859 54.3697 207.82 55.7754C207.782 57.1811 208.021 58.5806 208.523 59.894" fill="#4393D4"/>
<path d="M483.253 214.263C484.471 217.446 486.605 220.196 489.386 222.166C492.166 224.135 495.469 225.237 498.875 225.33C502.282 225.423 505.639 224.503 508.523 222.688C511.407 220.873 513.688 218.244 515.078 215.132C516.467 212.021 516.903 208.567 516.33 205.208C515.757 201.849 514.2 198.735 511.858 196.26C509.515 193.786 506.491 192.061 503.168 191.305C499.845 190.549 496.373 190.796 493.19 192.013C491.077 192.821 489.143 194.038 487.5 195.594C485.856 197.149 484.536 199.013 483.613 201.08C482.69 203.146 482.183 205.374 482.122 207.636C482.06 209.898 482.444 212.15 483.253 214.263Z" fill="#4393D4"/>
<path d="M460.815 178.757C461.714 181.109 463.291 183.141 465.346 184.596C467.4 186.052 469.84 186.865 472.357 186.934C474.874 187.003 477.355 186.324 479.486 184.983C481.617 183.642 483.303 181.699 484.329 179.4C485.356 177.101 485.678 174.549 485.255 172.067C484.832 169.585 483.682 167.284 481.951 165.456C480.22 163.627 477.985 162.353 475.53 161.794C473.075 161.236 470.51 161.418 468.158 162.317C465.004 163.523 462.459 165.933 461.082 169.016C459.704 172.099 459.608 175.603 460.815 178.757Z" fill="#4393D4"/>
<path d="M434.699 257.956C432.959 253.408 432.607 248.446 433.688 243.698C434.768 238.949 437.232 234.628 440.768 231.28C444.305 227.932 448.754 225.708 453.554 224.889C458.355 224.07 463.29 224.693 467.736 226.679C472.182 228.665 475.94 231.925 478.533 236.046C481.127 240.168 482.44 244.966 482.307 249.834C482.174 254.701 480.6 259.42 477.785 263.394C474.97 267.367 471.039 270.416 466.491 272.156C463.471 273.311 460.253 273.86 457.021 273.772C453.789 273.683 450.606 272.959 447.654 271.641C444.702 270.322 442.038 268.435 439.816 266.087C437.593 263.739 435.854 260.976 434.699 257.956Z" fill="#4393D4"/>
<path d="M227.722 179.553L189.601 179.38C189.249 179.379 188.902 179.308 188.578 179.172C188.254 179.037 187.96 178.838 187.713 178.589C187.466 178.34 187.27 178.044 187.137 177.719C187.004 177.394 186.936 177.046 186.938 176.695L187.045 153.08C187.046 152.729 187.117 152.381 187.253 152.058C187.389 151.734 187.587 151.44 187.837 151.193C188.086 150.946 188.382 150.75 188.707 150.617C189.032 150.485 189.38 150.417 189.732 150.419L227.858 150.591C228.209 150.592 228.556 150.663 228.88 150.799C229.203 150.935 229.497 151.133 229.744 151.382C229.992 151.631 230.187 151.927 230.32 152.252C230.453 152.577 230.52 152.925 230.519 153.276L230.412 176.892C230.41 177.243 230.339 177.59 230.204 177.914C230.068 178.238 229.87 178.532 229.62 178.779C229.371 179.026 229.075 179.222 228.751 179.354C228.426 179.487 228.078 179.555 227.727 179.553" fill="#09538F"/>
<path d="M228.2 148.744L189.389 148.568C188.771 148.566 188.177 148.809 187.738 149.245C187.299 149.681 187.051 150.273 187.048 150.891L187.033 154.104L230.508 154.304L230.522 151.092C230.524 150.786 230.465 150.482 230.349 150.198C230.233 149.915 230.062 149.657 229.847 149.439C229.631 149.221 229.375 149.048 229.092 148.93C228.81 148.811 228.507 148.749 228.2 148.748" fill="white"/>
<path d="M193.635 167.359L202.689 171.934V169.806L196.717 166.869L202.689 163.542V161.405L193.635 166.483V167.359Z" fill="#EDAC28"/>
<path d="M203.904 175.375H205.985L213.1 158.273H210.988L203.904 175.375Z" fill="#EDAC28"/>
<path d="M214.451 161.405V163.542L220.447 166.874L214.451 169.805V171.934L223.505 167.359V166.483L214.451 161.405Z" fill="#EDAC28"/>
<path d="M153.364 101.2H137.641C137.566 101.2 137.491 101.215 137.422 101.244C137.352 101.273 137.289 101.315 137.236 101.368C137.183 101.421 137.14 101.485 137.112 101.554C137.083 101.624 137.068 101.699 137.068 101.774V132C137.068 132.075 137.083 132.15 137.112 132.219C137.141 132.289 137.183 132.352 137.236 132.405C137.289 132.458 137.353 132.501 137.422 132.529C137.492 132.558 137.566 132.573 137.641 132.573H161.573C161.725 132.573 161.871 132.513 161.978 132.406C162.086 132.298 162.146 132.153 162.146 132.001L162.213 109.971L153.364 101.2Z" fill="white"/>
<path d="M162.145 109.794L153.539 101.194H153.525V109.249C153.525 109.324 153.54 109.398 153.569 109.468C153.597 109.537 153.639 109.6 153.692 109.653C153.745 109.707 153.808 109.749 153.878 109.777C153.947 109.806 154.021 109.821 154.096 109.821H162.145V109.794Z" fill="#EDAC28"/>
<path d="M158.228 113.746H140.986V115.314H158.228V113.746Z" fill="#EDAC28"/>
<path d="M158.228 117.667H140.986V119.236H158.228V117.667Z" fill="#EDAC28"/>
<path d="M158.228 121.589H140.986V123.158H158.228V121.589Z" fill="#EDAC28"/>
<path d="M407.199 217.161L363.184 217.116L363.16 242.199C363.159 242.787 363.274 243.368 363.499 243.912C363.723 244.455 364.052 244.948 364.467 245.364C364.882 245.78 365.375 246.11 365.917 246.335C366.46 246.56 367.042 246.677 367.629 246.677L402.694 246.714C403.881 246.715 405.019 246.244 405.859 245.406C406.698 244.568 407.171 243.431 407.172 242.244L407.199 217.161Z" fill="white"/>
<path d="M362.999 210.953L362.992 217L406.998 217.046L407.005 210.999L362.999 210.953Z" fill="#09538F"/>
<path d="M369.598 232.379L369.59 240.483L373.735 240.488L373.743 232.384L369.598 232.379Z" fill="#EDAC28"/>
<path d="M378.595 236.201L378.59 240.491L382.734 240.496L382.739 236.206L378.595 236.201Z" fill="#EDAC28"/>
<path d="M387.61 224.767L387.592 240.5L391.736 240.505L391.754 224.772L387.61 224.767Z" fill="#EDAC28"/>
<path d="M396.619 220.962L396.596 240.509L400.74 240.514L400.763 220.967L396.619 220.962Z" fill="#EDAC28"/>
<path d="M300.934 196.138L277.887 188.577C279.422 183.691 282.496 179.431 286.649 176.433C290.802 173.435 295.812 171.859 300.934 171.939V196.138Z" fill="white"/>
<path d="M300.934 196.138L286.664 215.693C282.474 212.745 279.385 208.485 277.887 203.586L300.934 196.138Z" fill="#E6E6E6"/>
<path d="M300.934 196.138L323.868 203.586C321.864 209.686 317.531 214.747 311.813 217.668C306.095 220.588 299.455 221.132 293.338 219.18C290.926 218.416 288.667 217.234 286.664 215.688L300.934 196.138Z" fill="#EDAC28"/>
<path d="M300.934 196.138V171.938C304.106 171.942 307.246 172.571 310.175 173.789C313.104 175.008 315.764 176.792 318.002 179.04C320.241 181.288 322.014 183.955 323.221 186.889C324.427 189.823 325.043 192.966 325.034 196.138C325.054 198.668 324.66 201.184 323.866 203.586L300.934 196.138Z" fill="#09538F"/>
</svg>
