<svg xmlns="http://www.w3.org/2000/svg" viewBox="0 0 636 300"><title>swimlane-build-scalable-apps</title><path d="M539.556,85.792a19.284,19.284,0,0,0-8.317,1.875,35.939,35.939,0,0,0-70.76-7.961A24.883,24.883,0,1,0,445.554,124.5h93.563c10.089,0,18.827-7.546,19.714-17.595a19.356,19.356,0,0,0-19.275-21.113" fill="#bfe1f7"/><polygon points="513.5 244.5 513.5 199.5 463.5 199.5 463.5 221.5 453.5 221.5 453.5 259.5 442.5 259.5 442.5 161.065 407.5 184.637 407.5 243.5 334.5 243.5 334.5 215.5 246.5 215.5 246.5 244.5 230.5 244.5 230.5 177.5 222.5 177.5 222.5 159.5 218.5 159.5 218.5 139.5 213.5 139.5 213.5 125.5 210.5 125.5 210.5 106.5 208.5 106.5 208.5 125.5 204.5 125.5 204.5 139.5 199.5 139.5 199.5 158.5 195.5 158.5 195.5 178.5 189.5 178.5 189.5 219.5 176.5 219.5 176.5 194.285 151.5 211.837 151.5 269.5 143.5 269.5 143.5 228.5 117.5 228.5 117.5 257.5 103.5 257.5 104 278.333 532.667 278.333 532.5 244.5 513.5 244.5" fill="#bababa" fill-rule="evenodd"/><polygon points="210.5 125.5 210.5 106.5 208.5 106.5 208.5 125.5 204.5 125.5 204.5 139.5 199.5 139.5 199.5 158.5 195.5 158.5 195.5 177.5 189.5 177.5 189.5 218.913 189.5 244.5 176.5 244.579 176.5 193.469 151.5 211.428 151.5 225.5 169.5 225.5 169.5 229.5 151.5 229.5 151.333 278.5 209.5 278.5 209.5 125.5 210.5 125.5" fill="#d2d2d2" fill-rule="evenodd"/><polygon points="442.5 259.5 442.5 159.824 407.5 183.375 407.5 200.5 426.5 200.5 426.5 206.5 407.5 206.5 407.5 243.5 324.5 243.5 324.5 215.5 271.5 215.5 271.5 278.5 443.5 278.5 443.5 259.5 442.5 259.5" fill="#d2d2d2" fill-rule="evenodd"/><polygon points="131.5 228.5 117.5 228.5 117.5 257.5 102.5 257.5 102.333 278.495 131.5 278.5 131.5 228.5" fill="#d2d2d2" fill-rule="evenodd"/><polygon points="499.5 199.5 463.5 199.5 463.5 221.287 463.5 271.5 499.5 271.506 499.5 199.5" fill="#d2d2d2" fill-rule="evenodd"/><path d="M489.986,246.774a15.554,15.554,0,1,1-15.555-15.553,15.554,15.554,0,0,1,15.555,15.553" fill="#fff"/><polygon points="483.908 244.68 482.494 243.169 475.5 250.637 475.5 241.73 479.6 237.352 478.186 235.84 475.5 238.709 475.5 238.5 473.5 238.5 473.5 243.939 470.04 240.246 468.626 241.758 470.372 243.621 468.855 245.244 470.269 246.755 471.788 245.132 473.5 246.962 473.5 255.665 466.148 247.816 464.734 249.328 473.432 258.614 473.5 258.542 473.5 278.5 475.5 278.5 475.5 253.658 478.788 250.146 481.028 252.539 482.442 251.028 480.202 248.636 483.908 244.68" fill="#939393"/><path d="M238.5,214.5H224.59l.094-.094c-.431-.072-.867-.094-1.3-.14.231-.207.476-.395.7-.618A15.949,15.949,0,0,0,228.53,199.7l-11.851,11.85-12.705-12.7a14.98,14.98,0,0,0,4.176,13.1c.1.1.221.188.327.289-.229-.012-.455-.044-.687-.044a14.971,14.971,0,0,0-12.216,6.312h13.2a20,20,0,0,0-1.9,1.626,19.294,19.294,0,0,0-5.67,17.216l13.3-12.875V278.5h5V229.056a17.7,17.7,0,0,0,17.683,7.4l-14.109-14.108c.524.047,1.049.1,1.586.1a17.607,17.607,0,0,0,14.362-7.418" fill="#939393"/><path d="M179.214,121.741a9.356,9.356,0,0,0-3.241.575,23.451,23.451,0,0,0,.378-8.888,23.611,23.611,0,0,0-46.825.853A14.456,14.456,0,0,0,106.66,125.53,7.983,7.983,0,1,0,102.8,140.5h76.115a9.57,9.57,0,0,0,9.573-7.988,9.383,9.383,0,0,0-9.278-10.771" fill="#bfe1f7"/><polygon points="294.5 278.5 294.5 151.445 320 176.667 319.125 260.75 319.998 278.5 294.5 278.5" fill="#4393d4" fill-rule="evenodd"/><path d="M377.5,48.508,363.281,33.5H304.9l.007-.034L258.1,21.512a2.661,2.661,0,0,0-2.481-1.91A2.733,2.733,0,0,0,253,22.224L224.5,44.116V43.5h-12v21h12v-12h23v13h4v158h-14v55h52v-55h-18V65.5h4.04l.238-.47a16.9,16.9,0,0,0,1.063-12.53H363.5v4h5v32h1v-32h4v-4h4Zm-153-.008V47.021l29.657-21.256.343.176V48.5Zm42,175h-10v-20h10Zm0-25h-10v-18h10Zm0-23h-10v-18h10Zm0-23h-10v-18h10Zm0-23h-10v-18h10Zm0-23h-10v-18h10Zm0-23h-10v-18h10Zm5.68-35H257.5V27.4l6.714,21.1h2.517l-7.607-22.823L296.58,34.5H285.606Zm5.242-2,9.592-10h.032l9.59,10Zm22.144,0-9.592-10h19.2l-9.592,10Zm2.944,0,9.592-10h.03l9.59,10Zm22.142,0-9.59-10h19.2l-9.592,10Zm2.944,0,9.592-10h.03l9.592,10Zm22.144,0-9.592-10h19.2l-9.591,10Zm2.944,0,9.59-10h.032l9.59,10Z" fill="#737373" fill-rule="evenodd"/><path d="M271.5,52.5h-7v11h6.651l.162-.319a11.447,11.447,0,0,0-.162-10.681" fill="#f3f3f3" fill-rule="evenodd"/><rect x="340.5" y="88.5" width="56" height="5" fill="#ffb900"/><rect x="340.5" y="95.5" width="56" height="5" fill="#ffb900"/><rect x="340.5" y="102.5" width="56" height="5" fill="#ffb900"/><rect x="340.5" y="109.5" width="56" height="5" fill="#ffb900"/><rect x="339.5" y="160.5" width="57" height="5" fill="#ffb900"/><rect x="339.5" y="167.5" width="57" height="5" fill="#ffb900"/><path d="M215.76,254.608a11.522,11.522,0,1,1-11.522-11.521,11.522,11.522,0,0,1,11.522,11.521" fill="#fff"/><polygon points="211.069 255.536 209.655 254.143 205.5 258.232 205.5 249.5 203.5 249.5 203.5 254.655 199.054 250.276 197.639 251.669 203.5 257.442 203.5 278.5 205.5 278.5 205.5 261.019 211.069 255.536" fill="#939393"/><polygon points="396.5 216.5 396.5 174.5 339.5 174.5 339.5 260.5 328.75 260.576 328.75 260.625 320.125 260.625 320.125 176.606 294.338 203.543 318.688 228.047 294.683 253.974 319.5 277.505 319.5 278.5 341.696 278.5 414.5 278.5 414.5 216.5 396.5 216.5" fill="#106ebe"/><rect x="339.5" y="176.5" width="57" height="5" fill="#4393d4"/><rect x="339.5" y="183.5" width="57" height="5" fill="#4393d4"/><rect x="339.5" y="190.5" width="57" height="5" fill="#4393d4"/><rect x="339.5" y="197.5" width="57" height="5" fill="#4393d4"/><rect x="339.5" y="204.5" width="57" height="5" fill="#4393d4"/><rect x="339.5" y="211.5" width="57" height="5" fill="#4393d4"/><rect x="339.5" y="218.5" width="57" height="5" fill="#4393d4"/><rect x="339.5" y="225.5" width="57" height="5" fill="#4393d4"/></svg>