<svg width="636" height="300" viewBox="0 0 636 300" fill="none" xmlns="http://www.w3.org/2000/svg">
<path d="M51.3203 272.28H578.55C580.31 272.28 581.97 273.43 582.3 275.15C582.73 277.36 580.82 279.28 578.41 279.28H51.5903C49.8303 279.28 48.1703 278.13 47.8303 276.41C47.4003 274.2 49.3103 272.28 51.7203 272.28" fill="#C8C8C8"/>
<path d="M384.341 265.69H74.8007C73.7707 265.69 72.9307 264.85 72.9307 263.82V32.5697C72.9307 31.5397 73.7707 30.6997 74.8007 30.6997H384.341C385.371 30.6997 386.211 31.5397 386.211 32.5697V263.81C386.221 264.85 385.381 265.69 384.341 265.69Z" fill="#E6E6E6"/>
<path d="M373.701 33.3599H236.511L381.881 178.31V41.5499C381.881 37.0299 378.221 33.3599 373.701 33.3599Z" fill="url(#paint0_linear)"/>
<path d="M381.46 38.9599C380.38 35.7099 377.31 33.3599 373.7 33.3599H76.7798C72.2598 33.3599 68.5898 37.0199 68.5898 41.5499V62.3499H381.46V38.9599Z" fill="#B2B2B2"/>
<path d="M381.881 62.3499C381.881 62.3499 386.681 33.3599 382.161 33.3599H236.511L265.501 62.3499H381.881Z" fill="#BFBFBF"/>
<path d="M296.89 163.01H230.38C220.84 163.01 213.03 170.82 213.03 180.36V207.55C213.03 217.09 220.84 224.9 230.38 224.9H248.2V238.8C248.2 239.92 249.55 240.47 250.34 239.69L265.13 224.9H296.89C306.43 224.9 314.24 217.09 314.24 207.55V180.36C314.24 170.81 306.43 163.01 296.89 163.01Z" fill="#B2B2B2"/>
<path d="M274.16 183.79H231.42C229.91 183.79 228.69 182.57 228.69 181.06C228.69 179.55 229.91 178.33 231.42 178.33H274.16C275.67 178.33 276.89 179.55 276.89 181.06C276.89 182.56 275.67 183.79 274.16 183.79Z" fill="white"/>
<path d="M274.16 196.58H231.42C229.91 196.58 228.69 195.36 228.69 193.85C228.69 192.34 229.91 191.12 231.42 191.12H274.16C275.67 191.12 276.89 192.34 276.89 193.85C276.89 195.36 275.67 196.58 274.16 196.58Z" fill="white"/>
<path d="M244.7 209.38H231.42C229.91 209.38 228.69 208.16 228.69 206.65C228.69 205.14 229.91 203.92 231.42 203.92H244.7C246.21 203.92 247.43 205.14 247.43 206.65C247.43 208.16 246.21 209.38 244.7 209.38Z" fill="white"/>
<path d="M153.611 91.1401H220.12C229.66 91.1401 237.471 98.9501 237.471 108.49V135.68C237.471 145.22 229.66 153.03 220.12 153.03H202.301V166.77C202.301 167.94 200.881 168.53 200.051 167.7L185.381 153.03H153.62C144.08 153.03 136.271 145.22 136.271 135.68V108.49C136.271 98.9401 144.071 91.1401 153.611 91.1401Z" fill="white"/>
<path d="M176.35 111.92H219.09C220.6 111.92 221.82 110.7 221.82 109.19C221.82 107.68 220.6 106.46 219.09 106.46H176.35C174.84 106.46 173.62 107.68 173.62 109.19C173.61 110.69 174.84 111.92 176.35 111.92Z" fill="#B5D5EA"/>
<path d="M176.35 124.71H219.09C220.6 124.71 221.82 123.49 221.82 121.98C221.82 120.47 220.6 119.25 219.09 119.25H176.35C174.84 119.25 173.62 120.47 173.62 121.98C173.61 123.49 174.84 124.71 176.35 124.71Z" fill="#B5D5EA"/>
<path d="M324.91 199.74C344.356 199.74 360.12 183.976 360.12 164.53C360.12 145.084 344.356 129.32 324.91 129.32C305.464 129.32 289.7 145.084 289.7 164.53C289.7 183.976 305.464 199.74 324.91 199.74Z" fill="#B5D5EA"/>
<path d="M356.621 179.85C356.411 179.83 356.191 179.81 355.981 179.8H324.701H295.921C295.061 179.81 294.201 179.93 293.351 180.13C299.101 191.74 311.071 199.73 324.911 199.73C338.871 199.74 350.931 191.62 356.621 179.85Z" fill="#2B88D8"/>
<path d="M348.38 180.43L348.521 179.81H300.521L300.66 180.43C301.66 184.58 303.85 187.97 307.22 190.58C310.62 193.19 314.491 194.5 318.831 194.5H330.26C332.75 194.5 335.13 194.04 337.41 193.12C339.66 192.2 341.661 190.88 343.421 189.16C345.931 186.69 347.59 183.78 348.38 180.43Z" fill="#2B88D8"/>
<path d="M308.94 188.3C311.82 190.55 315.12 191.68 318.82 191.68H330.25C334.56 191.68 338.28 190.18 341.41 187.19C343.5 185.14 344.9 182.68 345.6 179.8H303.43C304.25 183.25 306.09 186.08 308.94 188.3Z" fill="#9A6541"/>
<path d="M321.701 166.56C322.281 166.95 322.931 167.23 323.661 167.38C324.421 167.53 325.121 167.55 325.751 167.43C326.691 167.25 327.361 166.88 327.751 166.34C327.871 166.22 327.921 166.08 327.891 165.93C327.861 165.78 327.781 165.66 327.661 165.57C327.541 165.45 327.371 165.42 327.161 165.48L326.981 165.53C326.311 165.77 325.341 165.77 324.071 165.53C323.401 165.38 322.901 165.21 322.571 165.03C322.051 164.82 321.661 164.57 321.391 164.3L321.341 164.21C321.011 163.94 320.701 163.94 320.431 164.21C320.221 164.36 320.171 164.56 320.291 164.8C320.501 165.51 320.971 166.1 321.701 166.56Z" fill="#9A6541"/>
<path d="M341.92 177.12C341.94 175.01 342.19 155.49 342.19 155.49L307.81 156.79L307.91 177.2C307.83 179.48 304.59 179.98 304.59 179.98C306.9 182.6 315.67 186.06 325.44 185.39C336 185.3 341.65 182.01 344.51 179.72C344.5 179.72 341.9 179.9 341.92 177.12Z" fill="#9A6541"/>
<path d="M339.461 160.05C340.191 160.84 341.041 161.22 342.011 161.19C342.981 161.16 343.801 160.72 344.471 159.87C345.141 159.05 345.461 158.08 345.431 156.96C345.371 155.81 344.991 154.85 344.291 154.09C343.561 153.33 342.711 152.97 341.741 153C340.771 153.06 339.951 153.5 339.281 154.32C338.581 155.14 338.261 156.11 338.321 157.23C338.351 158.35 338.731 159.29 339.461 160.05Z" fill="#9A6541"/>
<path d="M304.36 157.38C304.39 158.53 304.77 159.49 305.5 160.25C306.23 161.04 307.08 161.4 308.05 161.34C309.02 161.31 309.84 160.88 310.51 160.06C311.15 159.24 311.45 158.27 311.42 157.15C311.39 156.03 311.01 155.07 310.28 154.28C309.55 153.52 308.7 153.16 307.73 153.19C306.76 153.22 305.94 153.65 305.27 154.47C304.6 155.28 304.3 156.25 304.36 157.38Z" fill="#9A6541"/>
<path d="M307.731 153.19L307.721 163.59C307.841 167.71 309.541 171.73 312.541 174.55C315.541 177.37 319.081 178.7 323.151 178.55L328.111 178.31C332.181 178.18 335.611 176.6 338.401 173.55C341.191 170.5 342.201 167.53 342.271 163.25L342.051 152.77C341.901 148.43 340.241 144.76 337.091 141.78C333.931 138.83 330.881 137.33 326.571 137.49H322.421C318.111 137.65 314.631 139.58 311.681 142.78C308.741 145.98 307.581 148.84 307.731 153.19Z" fill="#9A6541"/>
<path d="M325.391 143.06L326.481 172.07L340.001 170.66L339.001 144.07L325.391 143.06Z" fill="url(#paint1_radial)"/>
<path opacity="0.75" d="M340.44 153.32L340.41 156.55C340.47 158.59 339.77 160.36 338.32 161.85C336.83 163.34 335.3 164.15 333.19 164.41C329.82 164.83 329.15 162.83 324.59 162.93C320.52 163.02 318.47 164.92 315.78 164.63C314.11 164.45 312.53 163.58 311.32 162.3C310.11 160.99 309.47 159.47 309.41 157.73L309.36 153.65L307.46 153.58L307.87 164.13C307.99 168.25 309.55 171.72 312.56 174.55C315.57 177.37 318.34 178.51 322 178.55L328.16 178.52C332.73 178.52 335.63 176.6 338.43 173.56C341.22 170.52 342.56 166.93 342.44 162.81L342.17 153.39L340.44 153.32Z" fill="url(#paint2_linear)"/>
<path d="M327.161 161.91C327.861 161.67 328.441 161.26 328.891 160.68C329.351 160.07 329.561 159.4 329.531 158.68C329.471 157.53 328.921 156.63 327.891 155.99C326.711 155.26 326.021 154.43 325.841 153.49L324.161 155.54C323.041 157.03 322.491 158.15 322.521 158.91C322.551 159.91 322.911 160.88 323.611 161.82C324.251 162.43 325.001 162.89 325.911 162.86C326.361 162.37 326.861 162 327.161 161.91Z" fill="#9A6541"/>
<path d="M328.6 166.77C328.19 167.43 327.53 167.91 326.81 168.2C326.08 168.49 325.28 168.61 324.49 168.53C323.7 168.46 322.92 168.17 322.27 167.71C321.62 167.25 321.09 166.58 320.91 165.82C320.86 165.59 320.99 165.37 321.22 165.31C321.32 165.28 321.43 165.3 321.52 165.35L321.55 165.36C322.71 165.97 323.66 166.24 324.73 166.36C325.8 166.48 326.85 166.41 328.14 166.15L328.16 166.14C328.39 166.09 328.61 166.24 328.65 166.47C328.68 166.57 328.66 166.68 328.6 166.77Z" fill="#9A6541"/>
<path d="M319.1 157C319.691 157 320.17 156.136 320.17 155.07C320.17 154.004 319.691 153.14 319.1 153.14C318.509 153.14 318.03 154.004 318.03 155.07C318.03 156.136 318.509 157 319.1 157Z" fill="#33312D"/>
<path d="M331.53 156.99C332.121 156.99 332.6 156.126 332.6 155.06C332.6 153.994 332.121 153.13 331.53 153.13C330.939 153.13 330.46 153.994 330.46 155.06C330.46 156.126 330.939 156.99 331.53 156.99Z" fill="#33312D"/>
<path d="M125.59 122.52C145.036 122.52 160.8 106.756 160.8 87.3101C160.8 67.8642 145.036 52.1001 125.59 52.1001C106.144 52.1001 90.3799 67.8642 90.3799 87.3101C90.3799 106.756 106.144 122.52 125.59 122.52Z" fill="#FFB900"/>
<path d="M153.6 108.64C151.23 105.6 148.77 103.2 146.2 101.49C142.9 99.2999 139.1 97.9799 134.83 97.5099C133.59 97.2399 132.34 97.1199 131.09 97.1599H120.18C118.87 97.1099 117.57 97.2599 116.27 97.5599C112.16 98.0699 108.49 99.3699 105.29 101.49C102.67 103.24 100.15 105.69 97.7402 108.83C104.18 117.15 114.26 122.52 125.6 122.52C137.02 122.52 147.17 117.07 153.6 108.64Z" fill="#53ADE5"/>
<path d="M113.33 98.0702C115.4 97.4702 117.59 97.1602 119.91 97.1602H132.2C134.27 97.1602 136.24 97.4001 138.11 97.8701C137.87 99.1801 134.5 103.66 125.62 103.66C116.75 103.67 113.73 99.3602 113.33 98.0702Z" fill="#BE906B"/>
<path d="M118.42 100.83V89.21H133.2V100.83H118.42Z" fill="url(#paint3_linear)"/>
<path d="M106.689 79.0001V75.6901C106.689 71.1201 108.309 67.2201 111.539 63.9901C114.769 60.7601 118.669 59.1401 123.239 59.1401H127.929C132.499 59.1401 136.399 60.7601 139.629 63.9901C142.859 67.2201 144.479 71.1201 144.479 75.6901V79.0001C144.479 82.8601 143.109 86.1601 140.379 88.8901C137.649 91.6201 134.359 92.9901 130.529 92.9901H120.639C116.779 92.9901 113.479 91.6201 110.749 88.8901C108.049 86.1601 106.689 82.8601 106.689 79.0001Z" fill="#E1DFDD"/>
<path d="M137.119 85.5755C138.036 84.8449 139.034 84.5902 140.101 84.7895C141.148 85.022 141.966 85.6641 142.535 86.7047C143.113 87.7564 143.283 88.8967 143.043 90.1476C142.804 91.3986 142.235 92.406 141.318 93.1588C140.4 93.8895 139.403 94.1331 138.335 93.9006C137.288 93.7013 136.46 93.0592 135.862 91.9854C135.283 90.9337 135.114 89.7934 135.353 88.5424C135.612 87.2914 136.201 86.2951 137.119 85.5755Z" fill="#E1DFDD"/>
<path d="M133.309 94.2161C133.698 93.2457 134.332 92.5437 135.23 92.1065C136.155 91.6439 137.068 91.5878 137.957 91.9297C138.853 92.2497 139.481 92.8759 139.831 93.8099C140.166 94.7155 140.132 95.6442 139.752 96.6128C139.362 97.5831 138.71 98.2987 137.785 98.7613C136.889 99.2085 135.994 99.2511 135.105 98.9092C134.216 98.5673 133.586 97.9311 133.231 97.029C132.896 96.1234 132.919 95.1864 133.309 94.2161Z" fill="#E1DFDD"/>
<path d="M130.79 100.14C131.047 99.0796 131.57 98.2305 132.367 97.605C133.128 96.9526 133.935 96.7153 134.8 96.8753C135.645 96.9807 136.281 97.4442 136.693 98.2423C137.113 99.0522 137.185 99.9808 136.928 101.042C136.654 102.028 136.126 102.846 135.334 103.503C134.541 104.16 133.729 104.426 132.874 104.319C132.025 104.183 131.391 103.709 130.969 102.909C130.6 102.099 130.528 101.17 130.79 100.14Z" fill="#E1DFDD"/>
<path d="M131.58 102.49C132.34 102.36 133.02 102.54 133.63 103.04C134.21 103.57 134.55 104.3 134.65 105.25C134.73 106.17 134.53 107.02 134.06 107.81C133.59 108.57 132.97 109.04 132.21 109.23C131.45 109.39 130.77 109.22 130.16 108.72C129.56 108.17 129.21 107.43 129.14 106.51C129.06 105.59 129.26 104.74 129.73 103.95C130.2 103.16 130.82 102.67 131.58 102.49Z" fill="#E1DFDD"/>
<path d="M131.656 108.347C133.296 108.574 134.201 109.653 134.349 111.584C134.498 113.484 133.887 114.994 132.507 116.092C131.847 116.638 131.513 117.271 131.524 118.013C131.525 118.384 131.608 118.698 131.743 118.976L130.795 118.365C130.192 117.832 129.927 117.157 130 116.35C130.062 115.753 129.889 115.243 129.5 114.821C128.929 114.26 128.566 113.751 128.399 113.301C128.013 112.279 128.07 111.201 128.58 110.076C129.172 108.736 130.194 108.159 131.656 108.347Z" fill="#E1DFDD"/>
<path d="M128.74 67.9468C131.52 67.9468 133.92 68.9439 135.91 70.9282C137.88 72.8926 138.87 75.2758 138.87 78.0778V85.3071C138.87 88.1091 137.88 90.4923 135.91 92.4566C133.91 94.4509 131.52 95.4381 128.74 95.4381H122.44C119.66 95.4381 117.26 94.441 115.27 92.4566C113.3 90.4923 112.31 88.1091 112.31 85.3071V78.0778C112.31 75.2758 113.3 72.8926 115.27 70.9282C117.27 68.9339 119.66 67.9468 122.44 67.9468H128.74Z" fill="#BE906B"/>
<path d="M129.5 81.32C129.5 80.8 129.6 80.36 129.8 80C130 79.64 130.25 79.46 130.53 79.46C130.82 79.46 131.05 79.64 131.22 80C131.42 80.36 131.52 80.8 131.52 81.32C131.52 81.87 131.42 82.32 131.22 82.68C131.02 83.04 130.77 83.22 130.49 83.22C130.2 83.22 129.97 83.03 129.8 82.64C129.6 82.28 129.5 81.84 129.5 81.32Z" fill="#33312D"/>
<path d="M138.87 78.8099C138.87 78.8099 134.38 77.6299 132.62 77.1699C130.33 76.5699 126.76 74.8399 125.74 71.5399C124.71 68.2199 125.07 63.3599 125.07 63.3599L138.6 64.6299L138.87 78.8099Z" fill="#E1DFDD"/>
<path d="M116.29 79.1602H124.76L124.72 89.4802L116.29 89.4402V79.1602Z" fill="url(#paint4_radial)"/>
<path d="M118.77 81.32C118.77 80.8 118.87 80.36 119.07 80C119.27 79.64 119.52 79.46 119.8 79.46C120.09 79.46 120.32 79.64 120.49 80C120.69 80.36 120.79 80.8 120.79 81.32C120.79 81.87 120.69 82.32 120.49 82.68C120.29 83.04 120.04 83.22 119.76 83.22C119.47 83.22 119.24 83.03 119.07 82.64C118.87 82.28 118.77 81.84 118.77 81.32Z" fill="#33312D"/>
<path d="M136.66 78.4116H137.88C139.04 78.4116 140.03 78.8394 140.87 79.695C141.68 80.5505 142.09 81.569 142.09 82.7403C142.09 83.9422 141.67 84.9709 140.83 85.8265C140.02 86.6515 139.02 87.0691 137.84 87.0691H136.66V78.4116Z" fill="#BE906B"/>
<path d="M114.04 78.5703H112.82C111.66 78.5703 110.67 78.9903 109.83 79.8303C109.02 80.6703 108.61 81.6703 108.61 82.8203C108.61 84.0003 109.03 85.0103 109.87 85.8503C110.68 86.6603 111.68 87.0703 112.86 87.0703H114.04V78.5703Z" fill="#BE906B"/>
<g opacity="0.5">
<path opacity="0.5" d="M123.76 89.1099C124.11 89.1299 124.43 89.0699 124.78 88.9999C125.12 88.9199 125.47 88.8199 125.8 88.6999C126.13 88.5899 126.45 88.4499 126.75 88.3099C127.05 88.1499 127.33 87.9999 127.63 87.7099L127.66 87.6799C127.78 87.5599 127.97 87.5699 128.09 87.6899C128.14 87.7399 128.16 87.7999 128.17 87.8599C128.25 88.4099 127.98 88.9799 127.61 89.3599C127.24 89.7599 126.78 90.0199 126.3 90.1899C125.81 90.3499 125.3 90.4199 124.78 90.3499C124.28 90.2799 123.68 90.0699 123.37 89.5299C123.29 89.3999 123.34 89.2299 123.47 89.1499C123.52 89.1199 123.57 89.1099 123.63 89.1099H123.76Z" fill="#9A6541"/>
</g>
<path d="M126.759 83.8499C126.759 84.9999 125.769 88.3099 124.739 88.5599C124.739 88.5699 124.689 88.1899 124.629 87.7499C124.529 86.9699 124.049 86.2999 123.349 85.9299C122.739 85.6099 121.939 84.9899 121.939 83.8499C121.939 82.6699 122.829 82.0499 123.479 81.7299C124.099 81.4199 124.509 80.7899 124.589 80.0999C124.679 79.3999 124.759 78.6899 124.749 78.6899C125.459 79.1099 126.759 82.9499 126.759 83.8499Z" fill="#BE906B"/>
<path d="M498.39 93.25H429.83C425.05 93.25 421.17 97.06 421.17 101.77V263.64C421.17 267.06 423.99 269.84 427.47 269.84H499.88C503.36 269.84 506.18 267.07 506.18 263.64V100.91C506.17 96.68 502.68 93.25 498.39 93.25Z" fill="#E6E6E6"/>
<path d="M502.42 93.25H442.79L506.17 151.25V97C506.17 94.93 504.49 93.25 502.42 93.25Z" fill="url(#paint5_linear)"/>
<path d="M502.42 93.25H426.29C424.22 93.25 422.54 94.93 422.54 97V107.7H506.17V97C506.17 94.93 504.49 93.25 502.42 93.25Z" fill="#EDAC28"/>
<path d="M442.52 150.78C447.48 150.78 451.5 146.759 451.5 141.8C451.5 136.84 447.48 132.82 442.52 132.82C437.561 132.82 433.54 136.84 433.54 141.8C433.54 146.759 437.561 150.78 442.52 150.78Z" fill="#409AE1"/>
<path d="M441.45 154.91H469.37C473.37 154.91 476.65 158.19 476.65 162.19V173.6C476.65 177.6 473.37 180.88 469.37 180.88H461.89V187.98L454.79 180.88H441.46C437.46 180.88 434.18 177.6 434.18 173.6V162.19C434.17 158.19 437.44 154.91 441.45 154.91Z" fill="white"/>
<path d="M443.48 164.89H467.25C467.88 164.89 468.4 164.38 468.4 163.74C468.4 163.11 467.89 162.59 467.25 162.59H443.48C442.85 162.59 442.33 163.1 442.33 163.74C442.34 164.37 442.85 164.89 443.48 164.89Z" fill="#B5D5EA"/>
<path d="M443.48 170.26H467.25C467.88 170.26 468.4 169.75 468.4 169.11C468.4 168.48 467.89 167.96 467.25 167.96H443.48C442.85 167.96 442.33 168.47 442.33 169.11C442.34 169.74 442.85 170.26 443.48 170.26Z" fill="#B5D5EA"/>
<path d="M488.45 193.71H460.53C456.53 193.71 453.25 196.99 453.25 200.99V216.16C453.25 220.16 456.53 223.44 460.53 223.44H468.01V230.54L475.11 223.44H488.44C492.44 223.44 495.72 220.16 495.72 216.16V200.99C495.73 196.98 492.46 193.71 488.45 193.71Z" fill="#B2B2B2"/>
<path d="M462.25 203.68H486.02C486.65 203.68 487.17 203.17 487.17 202.53C487.17 201.9 486.66 201.38 486.02 201.38H462.25C461.62 201.38 461.1 201.89 461.1 202.53C461.11 203.17 461.62 203.68 462.25 203.68Z" fill="white"/>
<path d="M462.25 209.05H486.02C486.65 209.05 487.17 208.54 487.17 207.9C487.17 207.27 486.66 206.75 486.02 206.75H462.25C461.62 206.75 461.1 207.26 461.1 207.9C461.11 208.54 461.62 209.05 462.25 209.05Z" fill="white"/>
<path d="M462.25 214.48H475.28C475.91 214.48 476.43 213.97 476.43 213.33C476.43 212.7 475.92 212.18 475.28 212.18H462.25C461.62 212.18 461.1 212.69 461.1 213.33C461.11 213.96 461.62 214.48 462.25 214.48Z" fill="white"/>
<path d="M534.51 237.6H573.94C576.63 237.6 578.83 239.79 578.83 242.49V249.15C578.83 251.84 576.64 254.04 573.94 254.04H534.51C531.82 254.04 529.62 251.85 529.62 249.15V242.49C529.62 239.79 531.82 237.6 534.51 237.6ZM573.94 250.93C574.93 250.93 575.73 250.13 575.73 249.14V242.48C575.73 241.49 574.93 240.69 573.94 240.69H534.51C533.52 240.69 532.72 241.49 532.72 242.48V249.14C532.72 250.13 533.52 250.93 534.51 250.93H573.94Z" fill="#D69521"/>
<path d="M573.98 248.41L571.72 270.53C571.51 272.6 569.9 274.16 567.99 274.16H540.65C538.74 274.16 537.13 272.6 536.92 270.53L534.66 248.41C534.41 245.99 536.15 243.88 538.39 243.88H570.26C572.48 243.88 574.22 245.99 573.98 248.41Z" fill="#7F7F7F"/>
<path d="M535.5 256.74H573.13L573.98 248.41C574.23 245.99 572.49 243.88 570.25 243.88H538.38C536.14 243.88 534.4 245.99 534.65 248.41L535.5 256.74Z" fill="#505050"/>
<path d="M573.94 189.48H534.51C531.82 189.48 529.62 187.29 529.62 184.59V177.93C529.62 175.24 531.81 173.04 534.51 173.04H573.94C576.63 173.04 578.83 175.23 578.83 177.93V184.59C578.83 187.29 576.64 189.48 573.94 189.48ZM534.51 176.15C533.52 176.15 532.72 176.95 532.72 177.94V184.6C532.72 185.59 533.52 186.39 534.51 186.39H573.94C574.93 186.39 575.73 185.59 575.73 184.6V177.94C575.73 176.95 574.93 176.15 573.94 176.15H534.51Z" fill="#D69521"/>
<path d="M534.47 178.67L536.73 156.55C536.94 154.48 538.55 152.92 540.46 152.92H567.8C569.71 152.92 571.32 154.48 571.53 156.55L573.79 178.67C574.04 181.09 572.3 183.2 570.06 183.2H538.19C535.97 183.2 534.23 181.09 534.47 178.67Z" fill="#7F7F7F"/>
<path d="M573.02 171.03H535.25L534.47 178.67C534.22 181.09 535.96 183.2 538.2 183.2H570.07C572.31 183.2 574.05 181.09 573.8 178.67L573.02 171.03Z" fill="#505050"/>
<path d="M583.15 206.12H586.21C587.12 206.12 587.86 205.38 587.86 204.47V196.16C587.86 195.25 587.12 194.51 586.21 194.51H583.15C582.24 194.51 581.5 195.25 581.5 196.16V204.47C581.49 205.38 582.23 206.12 583.15 206.12Z" fill="#D2D2D2"/>
<path d="M587.86 196.48H585.88V197.51H587.86V196.48Z" fill="#939393"/>
<path d="M587.86 198.55H585.88V199.58H587.86V198.55Z" fill="#939393"/>
<path d="M587.86 200.61H585.88V201.64H587.86V200.61Z" fill="#939393"/>
<path d="M587.86 202.67H585.88V203.7H587.86V202.67Z" fill="#939393"/>
<path d="M575.3 247.23H532.98C528.42 247.23 524.72 243.53 524.72 238.97V188.4C524.72 183.84 528.42 180.14 532.98 180.14H575.3C579.86 180.14 583.56 183.84 583.56 188.4V238.98C583.56 243.53 579.86 247.23 575.3 247.23Z" fill="white"/>
<path d="M583.56 194.5V188.39C583.56 183.83 579.86 180.13 575.3 180.13H532.98C528.42 180.13 524.72 183.83 524.72 188.39V194.5H583.56Z" fill="#D2D2D2"/>
<path d="M575.3 248.78H532.98C527.57 248.78 523.17 244.38 523.17 238.97V188.4C523.17 182.99 527.57 178.59 532.98 178.59H575.3C580.71 178.59 585.11 182.99 585.11 188.4V238.97C585.11 244.38 580.71 248.78 575.3 248.78ZM532.98 181.69C529.28 181.69 526.27 184.7 526.27 188.4V238.97C526.27 242.67 529.28 245.68 532.98 245.68H575.3C579 245.68 582.01 242.67 582.01 238.97V188.4C582.01 184.7 579 181.69 575.3 181.69H532.98Z" fill="#505050"/>
<path d="M543.33 201.28H564.95C569.04 201.28 572.39 204.63 572.39 208.72V220.38C572.39 224.47 569.04 227.82 564.95 227.82H557.31V235.08L550.05 227.82H543.33C539.24 227.82 535.89 224.47 535.89 220.38V208.72C535.89 204.63 539.24 201.28 543.33 201.28Z" fill="#B5D5EA"/>
<path d="M545.3 212.81H563.63C564.28 212.81 564.8 212.29 564.8 211.64C564.8 210.99 564.28 210.47 563.63 210.47H545.3C544.65 210.47 544.13 210.99 544.13 211.64C544.13 212.29 544.65 212.81 545.3 212.81Z" fill="white"/>
<path d="M545.3 218.3H563.63C564.28 218.3 564.8 217.78 564.8 217.13C564.8 216.48 564.28 215.96 563.63 215.96H545.3C544.65 215.96 544.13 216.48 544.13 217.13C544.13 217.78 544.65 218.3 545.3 218.3Z" fill="white"/>
<path d="M497.27 88.8301H430.76C423.45 88.8301 417.53 94.7601 417.53 102.06V260.97C417.53 268.28 423.46 274.2 430.76 274.2H497.27C504.58 274.2 510.5 268.27 510.5 260.97V102.06C510.5 94.7501 504.57 88.8301 497.27 88.8301ZM504.99 260.21C504.99 264.76 501.3 268.45 496.75 268.45H431.26C426.71 268.45 423.02 264.76 423.02 260.21V102.83C423.02 98.2801 426.71 94.5901 431.26 94.5901H496.75C501.3 94.5901 504.99 98.2801 504.99 102.83V260.21Z" fill="#444444"/>
<path d="M441.66 94.3501V95.5601C441.66 98.5001 444.05 100.89 446.99 100.89H481.64C484.58 100.89 486.97 98.5101 486.97 95.5601V94.3501H441.66Z" fill="#444444"/>
<path d="M474.18 98.3399C474.981 98.3399 475.63 97.6908 475.63 96.8899C475.63 96.0891 474.981 95.4399 474.18 95.4399C473.38 95.4399 472.73 96.0891 472.73 96.8899C472.73 97.6908 473.38 98.3399 474.18 98.3399Z" fill="#737373"/>
<path d="M459.58 98.1199H468.81C469.41 98.1199 469.9 97.6299 469.9 97.0299C469.9 96.4299 469.41 95.9399 468.81 95.9399H459.58C458.98 95.9399 458.49 96.4299 458.49 97.0299C458.49 97.6399 458.98 98.1199 459.58 98.1199Z" fill="#737373"/>
<path d="M478.83 266.36H449.48C449 266.36 448.61 265.97 448.61 265.49C448.61 265.01 449 264.62 449.48 264.62H478.83C479.31 264.62 479.7 265.01 479.7 265.49C479.7 265.97 479.31 266.36 478.83 266.36Z" fill="#E6E6E6"/>
<path d="M388.88 22.1699H69.56C61.08 22.1699 54.21 29.0399 54.21 37.5199V258.83C54.21 267.31 61.08 274.18 69.56 274.18H388.88C397.36 274.18 404.23 267.31 404.23 258.83V37.5199C404.23 29.0399 397.36 22.1699 388.88 22.1699ZM381.31 258.57C381.31 260.07 380.1 261.28 378.6 261.28H80.5C79 261.28 77.79 260.07 77.79 258.57V37.3599C77.79 35.8599 79 34.6499 80.5 34.6499H378.6C380.1 34.6499 381.31 35.8599 381.31 37.3599V258.57Z" fill="#505050"/>
<path d="M66.5002 153.67C69.6814 153.67 72.2602 151.091 72.2602 147.91C72.2602 144.729 69.6814 142.15 66.5002 142.15C63.3191 142.15 60.7402 144.729 60.7402 147.91C60.7402 151.091 63.3191 153.67 66.5002 153.67Z" fill="#737373"/>
<defs>
<linearGradient id="paint0_linear" x1="309.199" y1="178.31" x2="309.199" y2="33.3627" gradientUnits="userSpaceOnUse">
<stop offset="0.0994" stop-color="#E6E6E6"/>
<stop offset="0.9511" stop-color="white"/>
</linearGradient>
<radialGradient id="paint1_radial" cx="0" cy="0" r="1" gradientUnits="userSpaceOnUse" gradientTransform="translate(326.198 159.379) rotate(177.897) scale(9.60324 8.42937)">
<stop stop-color="#59453A"/>
<stop offset="1" stop-color="#9A6541" stop-opacity="0"/>
</radialGradient>
<linearGradient id="paint2_linear" x1="324.919" y1="173.072" x2="324.944" y2="154.035" gradientUnits="userSpaceOnUse">
<stop offset="0.0144" stop-color="#48372D"/>
<stop offset="0.4807" stop-color="#59453A"/>
<stop offset="1" stop-color="#9A6541"/>
</linearGradient>
<linearGradient id="paint3_linear" x1="125.805" y1="98.9297" x2="125.805" y2="94.7724" gradientUnits="userSpaceOnUse">
<stop stop-color="#BE906B"/>
<stop offset="0.9922" stop-color="#9F7757"/>
</linearGradient>
<radialGradient id="paint4_radial" cx="0" cy="0" r="1" gradientUnits="userSpaceOnUse" gradientTransform="translate(124.367 84.0885) rotate(-179.915) scale(6.65961 4.92543)">
<stop stop-color="#744D2C"/>
<stop offset="1" stop-color="#BE906B" stop-opacity="0"/>
</radialGradient>
<linearGradient id="paint5_linear" x1="474.477" y1="151.252" x2="474.477" y2="93.2533" gradientUnits="userSpaceOnUse">
<stop offset="0.0994" stop-color="#E6E6E6"/>
<stop offset="0.9511" stop-color="white"/>
</linearGradient>
</defs>
</svg>
