<svg xmlns="http://www.w3.org/2000/svg" viewBox="0 0 636 300"><title>swimlane-pages-realtime-apis-microservices</title><path d="M198.366,88.742a31.037,31.037,0,1,0-31.037-31.037A31.037,31.037,0,0,0,198.366,88.742Z" fill="#939393"/><path d="M250.748,290.513H352.161a3.4,3.4,0,0,1,3.4,2.654,3.284,3.284,0,0,1-3.334,3.81H250.805a3.393,3.393,0,0,1-3.392-2.645,3.284,3.284,0,0,1,3.333-3.819" fill="#c8c8c8"/><polygon points="315.321 161.325 321.69 186.422 311.075 186.65 305.389 164.813 315.321 161.325" fill="#ce9c5f" fill-rule="evenodd"/><polygon points="316.976 167.846 316.16 164.628 308.425 168 307.925 173.125 316.976 167.846" fill="#ba8c57" fill-rule="evenodd"/><polygon points="300.737 288.063 309.274 289.442 308.109 279.731 299.638 279.462 300.737 288.063" fill="#737373" fill-rule="evenodd"/><path d="M301.393,293.166c2.235.117,5.657.3,5.657.3.5-.094.582-.592,1.37-.881,1.971-.29,4.192,1.157,9.065,1.157,1.971,0,4.73,0,6.306-.579,0,0,.395-.289.395-.578,0-3.761-11.824-3.472-14.978-6.076h-.394c-.788.579-1.576,1.736-3.547,1.736s-3.547-1.446-4.729-1.736c-.789.29-.327,4.05-.327,5.786C300.211,292.877,301,293.166,301.393,293.166Z" fill="#333" fill-rule="evenodd"/><polygon points="284.419 288.063 275.883 289.442 277.048 279.731 285.519 279.462 284.419 288.063" fill="#737373" fill-rule="evenodd"/><path d="M283.763,293.166c-2.234.117-5.656.3-5.656.3-.5-.094-.582-.592-1.371-.881-1.97-.29-4.192,1.157-9.065,1.157-1.971,0-4.729,0-6.306-.579,0,0-.394-.289-.394-.578,0-3.761,11.824-3.472,14.977-6.076h.394c.788.579,1.577,1.736,3.547,1.736s3.548-1.446,4.73-1.736c.788.29.326,4.05.326,5.786C284.945,292.877,284.157,293.166,283.763,293.166Z" fill="#333" fill-rule="evenodd"/><path d="M309.265,240.417l-.663-30.7H275.71l-.68,30.7h-.009l.006.135-.006.27h.018l1.186,44.429,8.929.08,3.38-43.586s-.283,12.084.019,0a185.309,185.309,0,0,1,2.185-23.212l0,0c.744-3.532,2.308-5.809,2.887.065s1.517,13.729,2.325,23.579h0l3.57,43.535h9.321l.4-44.886.023,0-.006-.294.006-.111Z" fill="#b2b2b2" fill-rule="evenodd"/><path d="M318.55,164.875s-5-12.193-6.666-15.925c-1.4-3.131-6.219-3.495-6.219-3.495l-13.552-1.222s-11.4.9-14.125,1.2c-3.1.342-5,1.89-6.812,4.406l-11.332,16.888,11.56,6.854s1.686-1.644,3.617-3.584c.966,13.168-1.434,41.788-1.434,41.788s13.35,5.2,36.833,0c-3.016-18.6-.728-43.087-.728-43.087Z" fill="#d63c18" fill-rule="evenodd"/><path d="M298.021,145.952V137.4h-12.4v8.555c0,1.944,1.837,3.889,6.429,3.889C296.184,149.841,298.021,147.9,298.021,145.952Z" fill="#ce9c5f" fill-rule="evenodd"/><path d="M285.623,137.406c3.42,4.428,6.84,6.642,12.4,8.413v-9.3l-12.4-1.328Z" fill="#ba8c57" fill-rule="evenodd"/><path d="M295.1,120.085l2.935,4.523s1.587,1.7,3.233,3.254c.464.437.089.907-.4,1.069s-1.084.469-.8,1.2,1.074,2.532,1.074,2.532a12.778,12.778,0,0,1-2.717.573,7.731,7.731,0,0,0,3.069.293,10.042,10.042,0,0,0,.959,1.743c.55.761.656,1.766-1.092,2.573s-9.757,3.642-15.1,1.588c-5.916-2.276-5.539-13.127-3.273-16.842S293.841,118.261,295.1,120.085Z" fill="#ce9c5f" fill-rule="evenodd"/><path d="M297.672,133.15a20.467,20.467,0,0,0,2.924-.768c.587-.252.758.291.677.392C301.1,133,299.755,133.538,297.672,133.15Z" fill="#bf7e7c" fill-rule="evenodd"/><circle cx="294.528" cy="126.155" r="1.033"/><path d="M297.672,133.15a7.155,7.155,0,0,0,3.795.759c.6-.024.3-.722-.106-.661A15.451,15.451,0,0,1,297.672,133.15Z" fill="#bf7e7c" fill-rule="evenodd"/><path d="M295.723,121.04s1.442-2.661-.443-3.546c-3.655-1.715-12.86-3.028-16.3,4.532s2.732,15.675,8.388,17.982c2.908-2.595.648-6.451-1.635-7.822s-1.9-3.028-1.126-3.767a2.56,2.56,0,0,1,3.232.112c.862.8,1.518,1.75,2.1,1.187l.977-.94a26.506,26.506,0,0,1-2.883-5.411c-.612-2.088,1.313-3.913,4.356-3.122C293.357,120.5,295.723,121.04,295.723,121.04Z" fill="#282828" fill-rule="evenodd"/><path d="M323.561,193.19H294.506a2.266,2.266,0,0,1-2.2-2.814l4.538-18.2a2.266,2.266,0,0,1,2.2-1.717H328.1a2.265,2.265,0,0,1,2.2,2.813l-.493,1.978-4.045,16.222A2.266,2.266,0,0,1,323.561,193.19Z" fill="#939393" fill-rule="evenodd"/><path d="M293.2,191.058l4.542-18.216c.252-1.009.976-1.373,2.2-1.35,0,0,29.371-.035,30.05-.007a1.815,1.815,0,0,0-1.663-1.026h-29.3a2.136,2.136,0,0,0-2.2,1.625L292.294,190.3a2.261,2.261,0,0,0,1.263,2.6A2.244,2.244,0,0,1,293.2,191.058Z" fill="#d2d2d2" fill-rule="evenodd"/><path d="M328.725,186.043c1.251-.076,1.516-.606,1.82-2.275s.644-4.056.872-4.852c.178-.623-.364-1.2-.953-1.563-.365-.144-.733-.286-1.1-.425l-.45,1.76a31.341,31.341,0,0,1-5.3-.294c-1.491-.281-1.457.644-1.227,1.26-.575-.126-1.725-.379-1.851.2-.475.8.55,1.627,1.475,1.529-1.851.2-.5,2.3,1.925,2.23-1.276.323-.108,1.461,2.192,1.966.94.206,1.783.366,2.6.47Z" fill="#ce9c5f" fill-rule="evenodd"/><path d="M321.237,170V139.422a3.922,3.922,0,0,1,3.922-3.922h11.078V38" fill="none" stroke="#939393" stroke-miterlimit="10" stroke-width="3" fill-rule="evenodd"/><path d="M332.737,135.5h54.394a4.375,4.375,0,0,0,3.093-1.281l37.188-37.188" fill="none" stroke="#939393" stroke-miterlimit="10" stroke-width="3" fill-rule="evenodd"/><line x1="408.574" y1="115.699" x2="460.234" y2="115.699" fill="none" stroke="#939393" stroke-miterlimit="10" stroke-width="3"/><path d="M336.4,122.333l-27.865-27.37a5.044,5.044,0,0,0-3.566-1.478h-64.34a4.513,4.513,0,0,1-3.192-1.322L202.472,57.194" fill="none" stroke="#939393" stroke-miterlimit="10" stroke-width="3" fill-rule="evenodd"/><path d="M263.071,94,226.82,130.224a4.005,4.005,0,0,1-2.834,1.174H167.4" fill="none" stroke="#939393" stroke-miterlimit="10" stroke-width="3" fill-rule="evenodd"/><path d="M299.714,93.227,274.165,67.679a4.971,4.971,0,0,1-1.455-3.513V21.333" fill="none" stroke="#939393" stroke-miterlimit="10" stroke-width="3" fill-rule="evenodd"/><polyline points="336.487 108 401.6 42.859 451.969 42.859" fill="none" stroke="#939393" stroke-miterlimit="10" stroke-width="3" fill-rule="evenodd"/><line x1="360.013" y1="83.67" x2="393.076" y2="83.67" fill="none" stroke="#939393" stroke-miterlimit="10" stroke-width="3"/><line x1="401.342" y1="42.342" x2="401.342" y2="19.611" fill="none" stroke="#939393" stroke-miterlimit="10" stroke-width="3"/><line x1="272.904" y1="56.167" x2="245.013" y2="28.63" fill="none" stroke="#939393" stroke-miterlimit="10" stroke-width="3"/><line x1="363.571" y1="135.417" x2="386.479" y2="158.459" fill="none" stroke="#939393" stroke-miterlimit="10" stroke-width="3"/><circle cx="244.264" cy="27.646" r="4.384" fill="#ccc"/><circle cx="272.56" cy="21.313" r="4.384" fill="#ccc"/><circle cx="401.342" cy="17.545" r="4.384" fill="#ccc"/><circle cx="451.969" cy="42.342" r="4.384" fill="#ccc"/><circle cx="427.412" cy="98.325" r="4.384" fill="#ccc"/><circle cx="386.479" cy="158.459" r="4.384" fill="#ccc"/><path d="M181.8,141.87a5.415,5.415,0,0,0-2.063-3.608l1-2.262h-5.6c-1.665,0-3.157,1.793-4.146,3.053-.5,0,0,0,0,0-.881,1.082-1.231.774-1.231-.521a1.678,1.678,0,0,0-.019-.263V121H151.314a.982.982,0,0,0-.269-.026c-1.359,0-1.915-1.7-.623-2.738.012-.01.018-.019.03-.029a5.527,5.527,0,0,0,.285-8.866V108h-4v0a5.751,5.751,0,0,0-5.829,5.652A5.57,5.57,0,0,0,143.014,118l0,0c1.1.924.79,2.973-.533,2.973-.118,0-.214-.989-.3-.974H123.737v17.25c.005.058.01.118.01.187,0,.841.824,1.284,1.692,1.244l4.16,0,.64-2.4a6.013,6.013,0,0,1,4.672.8,5.682,5.682,0,0,1,2.422,2.956,6.112,6.112,0,0,1-5.71,8.252,6.015,6.015,0,0,1-3.02-.817,12.6,12.6,0,0,0,.5-3.093h-3.915a1.28,1.28,0,0,0-1.439,1.3c0,1.179,0,.75-.009.8V163h18.81c.911-.4,1.028-2.046.081-2.843l0,0a5.5,5.5,0,0,1-1.955-5.385,5.623,5.623,0,0,1,4.332-4.34,5.7,5.7,0,0,1,7.023,5.441,5.517,5.517,0,0,1-2.344,4.491c-.011.009-.018.018-.03.028a1.477,1.477,0,0,0,.116,2.612h18.97V146.544a1.008,1.008,0,0,0,.021-.232c0-1.29,1.717-1.817,2.76-.591.01.011.019.018.028.028,1.038,1.363,2.705,1.751,4.59,1.751h4.6v-.747C182.168,145.623,182.025,143.839,181.8,141.87Z" fill="#c78e00"/><path d="M185.775,140.451a5.719,5.719,0,0,0-10-2.43l0,0c-.936,1.09-3.014.78-3.014-.525a1.681,1.681,0,0,0-.02-.264V120h-18.2a.962.962,0,0,0-.266-.026c-1.343,0-1.892-1.739-.616-2.8.012-.01.019-.019.03-.029a5.793,5.793,0,0,0,2.184-6.028,5.731,5.731,0,0,0-11.3,1.382,5.771,5.771,0,0,0,2.064,4.432l0,0c1.083.943.775,3.035-.521,3.035a1.632,1.632,0,0,0-.295.026H127.737v17.331c.005.055.009.112.009.178,0,1.3,2.078,1.614,3.014.524l0,0a5.775,5.775,0,1,1-.213,7.1c-.01-.011-.019-.018-.029-.03-1.048-1.285-2.776-.733-2.776.619a1.445,1.445,0,0,1-.009.178V163h18.81c.911-.414,1.028-2.117.081-2.942l0,0a5.8,5.8,0,0,1-1.946-5.618,5.737,5.737,0,1,1,9,5.832c-.011.01-.018.019-.03.029a1.552,1.552,0,0,0,.117,2.7h18.969V145.958a1.113,1.113,0,0,0,.02-.243c0-1.352,1.728-1.905,2.776-.62.01.012.019.019.029.03a5.7,5.7,0,0,0,4.615,2.359A5.767,5.767,0,0,0,185.775,140.451Z" fill="#ffb900"/><path d="M301.781,179.055c-.146-.558-1.261-.265-1.819-.119.2-.611.2-1.518-1.251-1.184a31.311,31.311,0,0,1-4.427.641c.453-.32.838-.617,1.166-.893l.555-2.209c-1.618.709-4.573,1.857-6.38,2.848-.558.146-.764.5-1.322.645-.219-.026-17.836-1.888-21.293-2.252l2.352-4.157-8.469-5-6.288,10.783c-.891,4.455,3.364,7.335,6.123,7.082l26.915-.344c3.6,1.159,5.686.828,8.9-.015,2.231-.586,3.328-1.746,2.066-2.011,2.377-.028,3.613-2.142,1.794-2.26C301.308,180.669,302.278,179.818,301.781,179.055Z" fill="#ce9c5f" fill-rule="evenodd"/><path d="M267.749,175.235l1.623-2.859-8.458-5.011-.883,1.506C262.023,170.537,265.771,173.656,267.749,175.235Z" fill="#ba8c57" fill-rule="evenodd"/><circle cx="395.371" cy="83.902" r="4.384" fill="#ccc"/><path d="M202.737,88.742A31.037,31.037,0,1,0,171.7,57.705,31.037,31.037,0,0,0,202.737,88.742Z" fill="#a2cce9"/><path d="M202.737,84.37a26.666,26.666,0,1,0-26.665-26.665A26.665,26.665,0,0,0,202.737,84.37Z" fill="#fff"/><path d="M203.435,57.018h-.772v.772h.772Z" fill="#1b1b1b"/><path d="M204.048,56.916l.437.874h.438Z" fill="#1b1b1b"/><path d="M203.175,58.142l-.875.875Z" fill="#1b1b1b"/><path d="M201.41,56.246l.452.772h.453l-.453-.772Z" fill="#1b1b1b"/><path d="M203.435,57.018v.875l.874-.875Z" fill="#1b1b1b"/><path d="M202.3,56.916l-.875.874h.437Z" fill="#1b1b1b"/><path d="M202.737,57.269l-.437.437Z" fill="#1b1b1b"/><path d="M205.75,33.093h-5.4v5.4h5.4Z" fill="#c8c8c8"/><path d="M205.75,76.313h-5.4v5.4h5.4Z" fill="#c8c8c8"/><path d="M226.588,60.105V54.7h-5.4v5.4Z" fill="#c8c8c8"/><path d="M184.14,60.105V54.7h-5.4v5.4Z" fill="#c8c8c8"/><path d="M217.023,59.333H202.737a.606.606,0,0,1-1.012-.048L187.231,42.139a1.325,1.325,0,0,1,2.024-1.712l14.1,16.591h13.671a1.464,1.464,0,0,1,1.325,1.412C218.348,59.162,217.755,59.755,217.023,59.333Z" fill="#f57800"/><path d="M457.979,87a6.987,6.987,0,0,0-13.974,0Z" fill="#724aad"/><path d="M516.4,136H471.716a7.078,7.078,0,0,1-7.077,7h44.682A7.079,7.079,0,0,0,516.4,136Z" fill="#724aad"/><path d="M495.711,80h-45a7.024,7.024,0,0,1,7.023,6.947V136a7.023,7.023,0,0,0,14.046,0h30.954V87.026A7.081,7.081,0,0,0,495.711,80Z" fill="#9e83e3"/><rect x="463.737" y="90" width="33" height="9" fill="#ccc1f4"/><rect x="464.737" y="103" width="14" height="8" fill="#ccc1f4"/><rect x="481.737" y="103" width="15" height="8" transform="translate(978.474 214) rotate(180)" fill="#ccc1f4"/><rect x="464.737" y="115" width="14" height="15" fill="#ccc1f4"/><rect x="481.737" y="114" width="15" height="9" fill="#ccc1f4"/><rect x="316.737" y="8" width="50" height="50" fill="#69afe5"/><rect x="329.737" y="21" width="25" height="25" fill="#409ae1"/><polygon points="352.71 2 302.954 2 316.737 8 366.737 8 352.71 2" fill="#7bc0ef"/><polygon points="302.954 51.662 316.675 58 316.737 8.063 302.954 1.906 302.954 51.662" fill="#409ae1"/><path d="M348.364,41.974a2.466,2.466,0,0,1-1.13-.273l-13.428-6.9a2.479,2.479,0,0,1,2.264-4.412L349.5,37.288a2.48,2.48,0,0,1-1.135,4.686Z" fill="none"/><path d="M363.243,41.974a2.463,2.463,0,0,1-1.13-.273l-13.428-6.9a2.479,2.479,0,0,1,2.264-4.412l13.428,6.894a2.48,2.48,0,0,1-1.134,4.686Z" fill="none"/></svg>