<svg width="636" height="300" viewBox="0 0 636 300" fill="none" xmlns="http://www.w3.org/2000/svg">
<path d="M374.222 171.549C372.546 174.557 374.901 175.423 377.082 175.276C380.297 175.059 383.453 174.076 387.466 173.251C386.293 179.097 383.176 184.374 378.622 188.222C375.29 191.053 371.748 193.705 368.709 196.791C365.286 200.268 366.424 204.576 367.866 208.381C370.252 214.681 369.593 217.316 363.652 221.388C362.027 222.502 360.619 223.895 359.036 225.222C359.56 226.767 360.002 228.338 360.361 229.929C360.439 230.312 360.428 230.708 360.329 231.086C360.229 231.464 360.044 231.814 359.787 232.109C354.612 235.659 354.298 242.278 349.515 246.122C346.801 248.334 343.498 249.701 340.015 250.052C334.551 250.735 330.953 250.905 329.263 244.19C327.403 236.803 322.817 230.055 320.141 222.79C319.225 220.303 319.835 216.869 320.903 214.29C322.783 209.745 322.493 202.353 318.611 199.135C315.124 196.245 314.299 193.223 315.711 189.37C316.885 186.17 315.111 185.259 312.148 184.832C310.748 184.632 309.506 183.453 308.114 183.285C305.54 182.941 302.936 182.871 300.348 183.076C295.393 183.54 290.357 185.198 285.577 184.652C282.4 184.289 279.427 181.152 276.704 178.894C274.804 177.317 273.713 174.887 271.836 173.273C269.564 171.319 269.719 169.29 270.276 166.823C270.732 164.806 271.339 162.428 270.633 160.644C268.715 155.796 272.383 152.836 274.433 149.444C275.563 147.575 278.01 146.444 279.679 144.813C280.731 143.787 281.958 142.537 282.197 141.239C282.668 138.674 283.397 136.671 286.197 135.518C287.297 135.066 287.952 133.674 288.94 133.562C293.809 132.515 298.64 131.287 303.556 130.48C307.529 129.828 311.684 129.034 315.596 129.498C319.402 129.95 317.322 132.92 316.596 135.45L332.762 141.828C334.373 137.045 335.195 136.422 339.53 138.463C345.204 141.135 351.199 139.933 357.004 140.141C358.204 140.183 359.723 136.26 360.775 134.033C361.224 133.084 360.85 131.793 360.85 130.689C357.165 130.689 353.727 131.123 350.502 130.534C348.287 129.939 346.299 128.7 344.79 126.974C343.784 125.912 343.862 123.948 343.456 122.387L339.612 123.445C339.322 126.086 339.096 128.138 338.871 130.19L337.846 130.525C336.146 127.941 334.465 125.35 332.751 122.776C331.973 121.411 331.06 120.129 330.025 118.948C328.281 117.189 326.375 115.599 324.332 114.198C323.404 113.574 321.927 113.669 320.699 113.437C321.007 114.507 320.964 115.905 321.688 116.586C324.131 118.886 326.847 120.922 329.188 122.835L327.594 126.406C326.155 124.984 324.825 123.171 323.025 121.987C318.625 119.095 310.943 116.736 306.461 117.708C303.889 118.265 302.501 120.569 301.082 121.993C300.058 122.927 299.261 124.082 298.753 125.371C297.326 129.859 292.081 131.911 287.432 129.74C286.526 129.317 285.349 129.405 283.753 129.181C283.753 125.745 283.609 122.225 283.884 118.734C283.934 118.096 285.678 117.102 286.653 117.089C289.776 117.046 292.905 117.389 295.893 117.57C298.055 112.112 297.481 110.909 290.969 107.41C293.034 106.858 294.927 106.777 296.245 105.919C300.067 103.431 303.545 100.476 307.387 98.019C309.33 96.776 311.764 96.207 314.308 95.203C315.108 92.848 309.553 88.7361 316.722 87.4101C316.674 88.5909 316.693 89.7734 316.779 90.9521C316.811 91.2391 317.547 91.452 317.956 91.7061L315.772 93.861C318.626 94.581 321.687 96.355 323.242 95.555C327.6 93.313 336.185 96.8661 335.942 87.973C335.942 87.8111 336.323 87.6391 336.497 87.4961L340.179 88.296C340.065 87.086 339.534 85.723 339.958 84.711C340.247 84.1754 340.644 83.7055 341.124 83.3312C341.603 82.9568 342.156 82.686 342.746 82.5361C345.137 82.1476 347.548 81.9015 349.969 81.7991L349.811 80.3281C347.272 80.6945 344.711 80.885 342.146 80.8981C340.13 80.7891 336.865 80.36 336.446 79.282C335.551 77.011 335.046 74.0481 338.316 72.1751C340.123 71.1391 341.534 69.495 343.148 68.104C339.889 65.845 337.348 66.194 335.948 68.685C335.134 70.2126 333.986 71.5363 332.589 72.557C327.689 75.8661 327.368 77.8151 331.395 81.6881C330.172 83.6131 328.969 85.5171 327.754 87.4141C327.154 88.341 326.767 89.59 325.89 90.114C323.77 91.366 321.419 92.275 319.074 93.362L317.858 91.768L321.158 89.668L317.5 82.2881C317.181 82.3541 317 82.34 316.918 82.416C315.078 84.036 313.068 87.0401 310.601 85.1331C308.817 83.7541 308.193 80.407 308.181 77.933C308.175 76.7 310.721 75.474 312.081 74.214C316.85 69.795 321.605 65.363 326.781 60.545L323.9 59.7001C328.591 55.1751 344.943 50.1911 351.8 53.7061L350.212 54.932C352.712 55.608 355.303 56.172 357.789 57.016C361.522 58.2048 365.187 59.5956 368.77 61.182C370.909 62.182 370.905 64.106 368.478 64.782C366.167 65.3209 363.784 65.4823 361.422 65.2601C360.022 65.1751 358.676 64.294 357.102 63.694C360.572 70.541 360.572 70.541 364.696 71.476C364.406 71.0262 364.093 70.5923 363.758 70.1761C363.438 69.8241 363.044 69.5301 362.071 68.6761L368.1 69.7471C367.768 66.0191 370.261 64.868 373.061 65.378C375.91 65.898 375.603 64.8971 375.327 63.1221C375.219 61.804 375.207 60.4799 375.291 59.16L379.478 59.812L377.07 62.341C378.881 64.008 379.948 64.253 382.152 62.364C384.476 60.372 389.509 57.79 390.752 58.677C394.72 61.508 398.445 56.6021 401.87 59.2771C402.05 59.417 403.264 58.3911 404.315 57.6981L400.05 53.94L417.084 59.1C416.374 56.573 414.506 53.616 415.174 51.3C415.896 48.8 418.986 46.9001 421.061 44.7201C425.861 46.4731 423.31 50.8 424.447 53.884C425.028 55.461 425.999 57.3081 425.584 58.7201C424.907 61.0281 423.241 63.081 421.884 65.42C424.951 65.264 426.657 63.189 428.129 60.805C428.688 59.899 429.207 58.97 429.744 58.052L432.815 60.669C433.791 58.456 432.705 56.925 429.229 57.163C426.684 57.338 425.902 57.0451 426.659 54.5121C426.995 53.3911 426.302 51.9991 425.985 50.2191L429.21 47.619C429.303 48.854 429.39 50.027 429.488 51.343H433.488L430.979 50.0601C434.415 45.5481 437.941 49.469 441.726 50.008L437.474 44.6721L448.754 43.294L447.966 42.349C449.256 41.155 450.351 39.2681 451.866 38.8941C457.234 37.5711 462.297 34.8401 468.273 35.9081C470.634 36.3311 472.63 35.168 474.265 32.897C475.565 31.085 478.086 28.553 480.915 32.465C481.777 33.656 484.662 33.645 486.657 34.002C488.269 34.29 490.07 33.9891 491.542 34.5331C492.865 35.0221 494.421 36.147 494.786 37.295C495.016 38.02 493.404 39.495 492.325 40.279C491.192 40.9063 489.984 41.3875 488.731 41.711C488.743 42.1617 488.755 42.6127 488.768 43.064C491.917 43.332 495.081 43.4921 498.207 43.9081C500.146 44.2416 502.06 44.704 503.938 45.292C506.906 46.099 509.521 47.158 512.626 44.648C514.001 43.535 517.483 44.3251 519.848 44.8661C520.807 45.0851 521.382 46.92 522.057 48.059C522.847 49.392 523.272 51.104 524.434 51.959C524.919 52.318 526.896 50.9021 528.172 50.3041C531.615 50.3041 535.266 50.316 538.917 50.2901C539.375 50.2366 539.827 50.1312 540.262 49.9761C539.804 48.4431 540.371 47.335 542.062 47.196C544.479 46.9578 546.911 46.9156 549.336 47.07C551.32 47.2417 553.27 47.6924 555.128 48.409C556.57 48.9641 557.657 50.542 559.099 50.847C562.449 51.557 565.917 51.789 569.341 52.184C571.725 52.458 574.902 51.2611 575.211 55.2401C575.245 55.6771 576.749 56.365 577.549 56.34C581.831 56.2001 586.106 55.8701 589.511 55.659L592.985 58.903L593.918 58.3321C593.846 57.298 593.777 56.2647 593.709 55.232C597.922 52.394 616.658 58.996 618.562 62.988L627.494 65.1061L621.224 70.4561L610.832 65.7631C611.1 68.9141 608.979 69.885 605.475 69.102L608.713 74.0121C604.528 75.578 600.626 76.612 597.22 78.459C595.092 79.6828 592.69 80.3482 590.237 80.393C586.27 80.576 580.855 80.3111 579.037 85.5771C580.813 87.4131 580.747 88.569 579.137 91.208C576.882 94.8911 572.986 97.071 571.045 100.78C570.911 101.037 570.345 101.093 569.666 101.368C569.023 98.297 567.792 95.3101 567.992 92.4111C568.127 91.2212 568.504 90.0717 569.1 89.0333C569.697 87.9948 570.499 87.0895 571.459 86.3731C576.298 83.2191 580.827 79.9611 583.166 74.3571L576.678 79.4811C574.553 76.3741 572.096 76.0031 569.234 78.4701C567.776 79.7271 566.76 81.487 565.182 82.547C563.896 83.193 562.454 83.4653 561.022 83.333C559.454 83.301 557.907 82.7421 556.332 82.5541C555.732 82.4821 555.011 83.0441 554.456 82.9121C546.395 80.9831 541.477 85.53 536.608 90.339C535.596 91.339 534.178 91.976 532.755 93.975C534.984 94.4196 537.236 94.7421 539.501 94.941C541.716 95.03 543.34 97.356 542.872 100.13C541.621 107.548 537.101 113.047 531.198 117.743C530.887 117.991 530.421 118.397 530.16 118.322C523.741 116.474 523.154 122.778 519.61 124.922C524.071 131.928 523.9 132.855 517.337 134.315C517.467 132.358 517.587 130.549 517.723 128.492L514.961 127.771C515.182 126.822 515.375 125.991 515.8 124.171L509.225 125.432C509.31 124.479 509.411 123.353 509.569 121.588C507.858 122.766 506.714 123.613 505.505 124.368C504.157 125.065 502.978 126.048 502.05 127.248L509.997 129.248L505.651 132.365C507.072 136.445 508.744 139.765 509.305 143.248C509.933 147.148 500.613 155.273 496.305 155.205C495.645 155.265 494.999 155.429 494.391 155.69C492.15 156.411 490.451 158.518 487.371 157.09C486.394 156.636 483.716 158.418 482.539 159.742C481.954 160.4 482.703 162.49 483.388 163.654C484.23 165.083 485.825 166.11 486.76 167.508C489.043 170.92 488.385 172.836 484.683 175.064C483.238 175.933 481.999 177.103 481.783 176.799L473.899 169.026C469.777 177.126 470.13 177.558 475.548 182.77C477.348 184.5 477.885 187.38 479 189.734L477.767 190.613C476.052 188.624 473.535 186.858 472.814 184.591C471.771 181.311 468.368 179.091 469.038 174.903C469.573 171.557 468.162 167.938 467.589 164.279L463.523 166.005L457.033 154.898C456.488 155.273 456.086 155.786 455.647 155.816C449.768 156.216 446.613 160.544 442.547 163.616C439.57 165.863 436.818 167.698 437.307 172.167C437.569 174.555 436.258 177.774 432.121 178.61C430.421 175.102 428.387 171.621 427.028 167.922C425.872 164.316 424.906 160.651 424.133 156.944C423.333 157.3 422.133 158.285 421.455 158.034C420.441 157.658 417.804 157.48 419.596 155.21C416.881 153.652 414.335 151.636 411.396 150.685C409.196 149.974 406.433 150.966 404.03 150.585C401.749 150.226 399.615 149.061 397.406 148.275C396.706 148.025 395.812 147.498 395.275 147.706C391.197 149.29 389.049 146.793 387.33 144.199C385.95 142.117 384.624 141.555 382.13 142.799C382.85 145.846 383.999 148.454 387.319 149.717C387.527 149.796 387.798 149.867 387.903 150.023C390.448 153.777 391.044 153.814 394.703 150.423C394.992 150.157 395.303 149.913 395.273 149.94L402.28 155.716C395.558 165.435 385.205 169.109 374.099 171.635C373.357 167.757 372.549 163.913 369.75 160.735C368.635 159.491 367.615 158.166 366.699 156.77C364.563 153.454 362.654 150.002 360.373 146.78C359.816 145.993 358.173 145.88 356.72 145.341C356.928 146.089 357.175 146.827 357.459 147.55C359.559 152.035 361.379 156.667 363.887 160.943C366.382 165.19 368.851 169.683 374.222 171.549ZM365.935 122.082L366.135 122.54C367.6 122.018 369.028 121.397 370.41 120.682C370.694 120.517 370.605 119.012 370.191 118.693C367.06 116.285 364.142 113.373 359.377 114.343C358.858 114.432 358.326 114.408 357.817 114.273C357.308 114.138 356.834 113.895 356.428 113.561C353.697 110.252 352.791 110.128 350.328 113.361C349.471 114.434 348.774 115.624 348.257 116.895C347.832 118.031 347.248 119.895 347.808 120.408C348.837 121.357 351.198 122.401 352.053 121.92C356.307 119.527 360.235 120.081 364.306 122.052C364.841 122.168 365.395 122.178 365.935 122.082ZM386 115.7C387.3 114.906 388.136 114.044 389.077 113.922C390.077 113.793 391.188 114.363 392.4 114.665C391.772 113.173 391.227 111.88 390.646 110.499C386.48 109.799 381.925 111.051 380.919 114.299C380.119 116.899 383.065 120.514 384.199 123.31C384.199 125.153 383.423 127.81 384.358 128.537C386.397 130.137 389.216 131.663 392.501 129.23L391.025 123.156L393.605 122.35L386 115.7Z" fill="#D9EBF9"/>
<path d="M112.355 58.719C114.122 59.071 115.898 59.389 117.655 59.785C119.997 60.4857 122.383 61.0289 124.797 61.411C127.217 61.618 131.057 62.368 128.319 57.75C128.083 57.35 129.312 56.189 130.074 55.065L134.42 58.8L131.328 59.416L133.128 62.407C134.234 61.529 135.217 60.765 136.18 59.981C138.3 58.256 136.62 56.562 135.353 56.156C131.599 54.956 132.573 52.904 133.506 50.542C134.008 49.4594 134.231 48.2679 134.153 47.077C133.605 43.421 135.108 42.016 139.034 42.777C140.065 42.977 141.114 43.096 143.072 43.389L136.033 48.989C137.797 51.437 140.833 52.558 139.69 55.343L143.322 58.792C149.014 54.348 145.207 63.175 149.004 62.448L153.131 54.918L144.1 53.141L147.5 51.619L143.413 50.05C143.887 48.85 144.026 47.232 144.959 46.406C146.679 45.0132 148.667 43.9899 150.8 43.4C149.031 47.281 149.122 48.265 151.438 50.251C151.521 48.88 150.964 46.651 151.871 45.812C153.161 44.626 155.525 44.464 157.436 43.881C157.536 43.85 157.698 44.028 157.81 44.008C162.343 43.179 165.676 44.66 169.14 47.636C172.501 50.524 177.082 52.148 181.04 54.454C181.808 54.902 182.847 56.193 182.64 56.654C181.254 59.786 183.68 60.021 185.753 60.802C188.195 61.721 190.528 62.895 193.425 64.189L188.725 68.872L183.804 65.062L182.881 65.446C182.981 66.3313 183.243 67.1906 183.654 67.981C184.268 68.768 185.644 69.096 186.099 69.912C186.749 71.0387 187.029 72.3415 186.899 73.636C186.834 74.072 184.888 74.259 183.526 74.636L184.675 76.397L183.905 77.388C180.783 75.596 177.448 74.053 174.605 71.933C172.305 70.219 170.04 70.426 167.505 70.533C166.578 70.573 165.611 69.777 164.662 69.362C165.462 68.85 166.227 67.962 167.062 67.897C169.233 67.737 171.517 68.338 171.554 64.997C171.563 64.185 173.486 63.391 175.011 62.218C173.949 61.2342 172.786 60.3654 171.541 59.626C169.097 58.512 167.223 56.344 164.991 55.493C162.353 54.487 158.946 55.257 156.727 55.257C157.108 58.143 158.539 61.295 157.46 63.189C156.554 64.78 152.721 64.904 149.767 65.805C149.787 65.496 149.74 66.244 149.693 66.992L149.831 66.866C149.187 67.389 148.541 67.91 147.9 68.436C146.638 69.469 145.437 70.576 144.107 71.525C140.415 74.158 136.577 76.696 135.251 81.164C135.201 81.6609 135.257 82.1627 135.416 82.6362C135.575 83.1097 135.832 83.5442 136.171 83.911C137.368 85.1594 138.648 86.327 140 87.406L156.5 93.521C157.6 99.672 158.8 101.121 163.359 100.672C162.922 98.438 162.492 96.239 162.04 93.926C168.06 89.992 168.333 88.626 164.315 85.252C164.53 81.852 164.715 78.968 164.915 75.764C169.685 74.498 173.982 76.67 177.437 79.686C178.937 81.493 180.113 84.017 182.082 84.819C183.153 85.255 185.582 82.763 188.223 81.056C189.401 83.524 190.709 86.639 192.377 89.575C193.246 90.8065 194.366 91.8399 195.663 92.607C197.495 93.882 199.634 94.796 201.358 96.175C203.118 97.583 203.234 99.629 200.928 100.449C197.379 101.71 194.242 103.834 189.884 103.503C186.546 103.25 183.044 104.897 179.615 105.703L179.939 107.003L187.394 105.557L188.629 107.067L185.963 108.931C186.51 109.637 187.243 111.557 188.576 112.05C190.156 112.634 192.254 111.989 194.205 111.871C194.396 113.617 192.382 114.799 184.736 115.901L188 113.653C182.857 112.548 176.648 116.41 176.6 119.253C174.007 121.797 172.438 123.74 170.453 125.176C168.317 126.721 167.027 128.065 167.714 130.917C167.955 131.917 166.178 133.778 164.862 134.588C158.301 138.626 158.203 138.742 160.289 145.957C160.513 147.198 160.602 148.46 160.555 149.72L159.343 150.248C158.392 148.669 157.492 147.061 156.473 145.522C155.729 144.399 154.494 142.336 154.048 142.463C150.848 143.369 147.518 139.153 144.431 142.754C143.956 143.308 142.478 143.432 141.56 143.271C137.512 142.563 132.073 144.239 130.98 146.693C128.787 151.618 130.272 159.537 133.797 161.72C136.539 163.42 140.928 162.072 142.692 159.734C143.831 158.224 146.165 157.508 147.963 156.434L148.818 157.478C147.826 160.417 146.835 163.357 145.79 166.452C147.247 166.452 148.309 166.452 149.371 166.452C154.986 166.465 155.271 166.744 154.68 171.699C154.131 176.324 156.354 177.253 161.262 177.565C162.986 177.766 164.734 177.598 166.389 177.074C168.044 176.549 169.568 175.678 170.862 174.52C173.723 172.264 177.736 173.078 181.372 174.609C183.378 175.453 186.079 176.023 188.064 175.462C191.158 174.587 191.905 176.597 193.829 177.654C196.952 179.369 198.529 183.233 203.354 182.923C209.254 182.544 213.124 187.642 211.532 191.645C215.177 193.288 218.755 194.924 222.365 196.495C222.811 196.689 223.472 196.412 223.959 196.564C228.288 197.922 232.659 199.184 236.892 200.78C238.992 201.574 239.192 205.98 237.233 207.965C233.861 211.38 231.214 214.787 231.317 219.949C231.371 222.657 229.446 225.554 227.874 228.068C226.819 229.362 225.316 230.212 223.663 230.449C218.628 231.236 215.963 233.435 215.021 237.932C214.73 239.196 214.174 240.383 213.39 241.416C211.344 244.159 209.57 247.336 206.832 249.283C204.777 250.745 201.397 250.569 199.211 251.003C199.473 252.037 200.923 254.452 200.17 255.632C199.225 257.113 196.454 258.369 194.51 258.321C190.71 258.227 191.448 260.845 190.751 262.883L185.895 262.448L188.524 265.648C186.534 267.86 184.688 270.198 182.999 272.648C182.67 273.175 184.318 274.788 185.133 276.019C184.312 279.071 179.919 280.068 180.006 284.394C180.092 288.63 184.047 289.114 185.539 291.723C180.445 293.323 174.004 291.082 171.606 287.192C168.9 282.801 168.065 278.267 170.579 272.947C174.307 271.686 171.872 267.354 173.714 264.557L172.758 264.157L171.373 266.696L170.382 266.396C171.856 260.83 173.536 255.303 174.742 249.686C175.786 244.823 176.287 239.858 177.042 234.939C177.333 233.039 177.616 231.144 177.981 229.26C178.801 225.033 177.181 221.399 173.007 219.751C167.998 217.776 167.207 213.027 164.556 209.504C162.843 207.226 161.256 204.865 159.623 202.535C159.411 202.235 159.012 201.803 159.106 201.591C160.815 197.747 158.006 192.732 162.718 189.649C166.329 187.288 166.182 184.11 164.45 180.793C163.868 179.878 163.206 179.016 162.472 178.217L159.633 180.61C158.387 180.133 157.194 179.528 156.073 178.804C154.011 177.21 152.244 175.279 150.173 173.69C148.587 172.537 146.901 171.529 145.134 170.68C142.766 169.468 140.326 168.38 137.891 167.287C136.933 166.857 135.767 166.071 134.934 166.28C127.794 168.074 123.494 162.257 117.619 160.744C117.443 160.669 117.289 160.551 117.172 160.4C117.055 160.249 116.978 160.07 116.95 159.881C117.707 153.462 110.806 151.546 108.328 147.017C107.019 144.932 105.503 142.984 103.803 141.203C103.065 140.482 102.262 139.832 101.403 139.261L100.248 140.134L107.829 151.594L106.889 152.138C103.132 148.24 99.9275 143.845 97.3638 139.077C96.6169 137.568 95.4895 136.279 94.0928 135.339C87.0458 131.062 83.8108 124.904 84.5498 117.297C85.1498 111.097 84.9268 105.715 78.4088 103.357C78.3358 101.857 78.6478 100.722 78.1868 100.057C75.5938 96.334 72.9708 92.607 70.0088 89.144C69.0338 88.004 67.0158 87.649 65.2968 87.174C61.8098 83.649 57.3068 82.205 52.2698 80.933C46.7418 79.533 41.9578 79.326 37.0758 84.45L37.4398 79.939C32.0898 85.217 27.4838 91.255 18.1968 92.345C21.7768 90.045 26.1878 89.345 26.8058 84.739L19.4998 83.885L18.9518 80.515C14.6608 83.732 14.7208 78.884 12.7118 77.757C13.9415 76.1931 15.3185 74.7508 16.8238 73.45C18.3748 72.32 22.3238 73.285 20.4398 69.418C16.5538 69.975 12.5108 71.445 9.9668 66.677C12.3428 66.301 14.1828 63.118 17.0928 66.024C17.3038 66.234 18.8048 65.424 19.5688 64.909C19.5084 64.2521 19.2019 63.6423 18.7108 63.202C16.2958 61.945 13.7768 60.862 10.0708 59.152C16.7278 56.314 22.2998 53.673 28.0998 51.625C29.8208 51.018 32.2198 52.044 34.2998 52.389C41.8358 53.641 49.5638 54.315 56.8368 56.389C62.4438 57.989 67.1438 56.508 72.2028 55.333C74.2758 54.852 76.4398 54.718 79.3618 54.316L80.5808 55.688C84.9368 56.154 88.5308 56.48 92.1038 56.942C94.3698 57.235 96.5918 57.824 98.8578 58.11C101.058 58.387 101.869 59.145 100.045 61.621C102.609 61.514 104.738 61.409 106.868 61.343C107.917 61.31 108.968 61.35 110.019 61.352C111.319 61.352 112.619 61.352 114.173 61.352C113.259 59.898 112.856 59.258 112.462 58.61C112.469 58.6 112.355 58.719 112.355 58.719ZM140.589 109.943L151.774 111.348C147.562 112.941 146.174 116.948 148.934 121.466C149.381 119.089 149.383 117.479 150.027 116.14C150.763 114.943 151.746 113.918 152.912 113.133C153.263 113.183 153.6 113.303 153.903 113.487C154.206 113.671 154.469 113.915 154.675 114.203C155.196 115.507 155.368 116.925 155.175 118.316C154.408 121.275 156.124 121.27 158.062 120.572C161.007 119.511 163.818 118.121 166.686 116.872L166.372 115.823C164.811 116.3 163.196 116.662 161.703 117.283C160.085 117.955 158.581 118.868 156.566 119.915L158.323 114.722L160.842 114.961L161.288 113.927C159.845 113.243 158.431 112.497 156.949 111.896C155.84 111.446 154.008 111.51 153.589 110.788C150.518 105.494 146.684 105.419 142.08 108.895C141.762 109.134 141.428 109.353 140.589 109.943ZM96.1208 66.137L95.6598 64.322H85.6788L85.6658 65.422L88.0958 65.675L86.1578 69.268L96.1208 66.137ZM100.591 75.637L97.2208 78.97C102.832 80.57 105.639 76.317 109.381 74.203L100.591 75.637Z" fill="#D9EBF9"/>
<path d="M277.055 17.0491L268.955 20.1241L270.142 20.5471L261.463 28.6301L267.903 33.0741L261.553 34.2741C262.988 35.3481 264.427 35.9741 264.973 37.0061C265.302 37.6301 264.242 38.8991 263.712 40.0871L265.448 41.0591C263.397 45.0021 259.808 45.1691 255.797 44.3081L255.286 45.3281C256.491 46.6411 257.47 48.2721 258.952 49.1961C261.395 50.7191 262.273 54.3101 259.723 55.3221C254.583 57.3631 249.952 61.3781 243.629 59.7531C241.339 63.8481 238.677 66.8791 232.985 66.5471C231.755 66.5229 230.562 66.9746 229.656 67.8078C228.75 68.6411 228.201 69.7917 228.122 71.0201C227.743 74.5771 225.337 77.9441 223.808 81.4201C212.692 79.8001 207.782 70.1001 206.43 62.5761C206.225 61.4371 208.04 59.9391 209.014 58.6701C209.679 57.8871 210.387 57.1413 211.134 56.4361C210.309 55.7297 209.441 55.0754 208.534 54.4771C207.377 54.0148 206.379 53.2253 205.663 52.2051L209.704 53.0461C208.487 50.5221 208.487 50.5221 203.096 50.3461C204.617 42.4851 197.842 35.4301 189.202 35.8681C187.299 36.0779 185.382 36.1281 183.47 36.0181C182.27 35.8731 181.182 34.9271 180.013 34.4011C178.742 33.9336 177.557 33.2577 176.507 32.4011L184.107 31.8451L184.092 31.2451L173.617 29.9001L173.578 28.5631C176.443 27.6631 179.33 26.8251 182.164 25.8511C183.705 25.3211 185.157 24.5651 186.649 23.9111L182.856 20.7261L192.922 17.6431C195.157 13.1181 200.075 14.6791 203.789 13.7341C204.56 13.5341 205.73 14.7221 205.989 14.8631C207.712 14.8631 208.944 14.8451 210.175 14.8701C210.824 14.8831 211.475 14.9701 212.118 15.0241C212.066 14.3621 212.018 13.6991 211.929 12.6241L216.729 13.4841C218.898 9.9101 222.453 9.4201 226.429 9.9451C227.216 10.0975 228.016 10.1768 228.818 10.1821C235.997 9.7761 243.171 9.2631 250.355 8.9541C251.693 9.0714 252.997 9.43769 254.2 10.0341C256.4 10.8401 258.55 11.7401 261.566 12.9341L243.818 14.6001L243.918 15.7481L254.228 14.7641C253.472 15.7461 253.028 16.3191 252.587 16.8931L252.971 17.4931L260.179 14.8141L260.724 15.7311L257.265 19.5951C263.852 17.2801 269.779 13.6221 277.055 17.0491Z" fill="#D9EBF9"/>
<path d="M518.306 215.083C520.193 216.783 521.741 218.183 523.645 214.599C524.205 213.383 525.204 212.423 526.442 211.911C527.679 211.399 529.065 211.374 530.32 211.839C531.578 212.154 532.877 212.277 534.172 212.204C534.425 214.399 533.959 216.863 535.057 218.183C536.332 219.718 538.979 220.251 542.157 221.749C542.916 217.869 543.621 214.272 544.325 210.675L545.176 210.58C547.201 214.315 548.938 218.224 551.344 221.73C553.367 224.5 555.722 227.011 558.355 229.208C565.392 235.39 565.855 242.626 560.311 249.441C559.612 250.374 559.076 251.419 558.728 252.532C557.128 257.11 554.705 258.356 549.371 257.504C548.508 257.366 547.266 258.567 546.586 258.296C544.16 257.329 540.452 257.905 540.133 254.032C540.087 253.482 539.46 252.954 539.045 252.457C538.037 251.25 536.996 250.067 535.945 248.857L534.024 251.178C528.107 243.634 522.782 244.145 513.184 248.483C512.069 248.883 510.918 249.179 509.748 249.365C507.959 249.789 506.186 250.325 504.368 250.575C502.729 250.882 501.048 250.887 499.407 250.591C498.964 250.484 499.228 248.347 498.894 247.212C497.924 243.912 496.651 240.692 495.82 237.369C495.308 235.323 494.528 232.717 495.42 231.139C496.504 229.228 499.135 227.997 501.269 226.725C504.408 224.853 508.728 225.218 510.517 220.654C511.454 218.271 515.512 216.97 518.306 215.083Z" fill="#D9EBF9"/>
<path d="M145.316 35.4331C145.616 34.5574 145.975 33.7025 146.388 32.8741C147.035 31.8816 147.732 30.9224 148.476 30.0001L151.2 30.7541L151.69 30.2151L147.09 26.8921C144.19 29.6061 141.454 29.5681 136.326 26.2081L139 25.0451L138.613 24.4541C137.525 24.7347 136.399 24.8334 135.279 24.7461C134.344 24.5111 133.616 23.5551 132.796 22.9171C134.768 17.3991 137.408 16.5901 142.179 19.6401C143.511 20.4921 145.57 20.3401 147.3 20.6481C148.327 22.2011 149.35 23.7621 150.589 25.6481C150.741 25.4311 150.435 25.8691 149.798 26.7851L153.815 25.9451L149.326 21.1621L156.426 21.9261L156.497 20.6491C153.418 20.4871 150.425 19.1611 147.217 20.7651L141.105 15.8701C158.512 12.1461 175.231 7.79008 192.605 12.6481L192.918 13.9091L184.36 16.2891L187.032 17.1271C181.554 18.7431 177.932 22.9331 172.355 23.3481C172.279 23.3541 172.235 23.5681 172.155 23.6651C169.529 26.6931 167.098 29.8891 163.207 31.7301C162.841 31.9041 163.158 33.3481 163.158 35.2841L145.246 35.3841L145.316 35.4331Z" fill="#D9EBF9"/>
<path d="M98.5223 45.2781L102.044 46.1921L101.844 46.8811H110.403L113.067 50.7921C113.347 47.9491 111.996 45.4011 114.947 44.3981C116.012 44.1265 117.096 43.9327 118.189 43.8181C116.917 48.9621 118.256 51.2591 124.151 54.8911C124.198 56.1251 118.807 54.8601 124.287 58.5911L122.487 58.5181C120.619 58.0349 118.711 57.715 116.787 57.5621C115.314 57.5621 113.837 58.2971 112.356 58.7131C112.35 58.7191 112.464 58.6021 112.456 58.6131C111.152 58.8724 109.822 58.9864 108.492 58.9531C106.499 58.633 104.529 58.1871 102.592 57.6181C100.427 57.156 98.3727 56.2781 96.5423 55.0331C97.7423 54.8001 98.9423 54.5601 100.142 54.3331C101.454 54.1735 102.723 53.7601 103.877 53.1161L95.3473 52.7481L95.2933 52.0481L97.1133 51.0791L93.7393 49.4001L96.3003 45.9601L98.5223 45.2781Z" fill="#D9EBF9"/>
<path d="M558.293 210.064C556.413 209.014 554.45 208.073 552.674 206.887C550.466 205.414 548.526 203.728 546.042 206.652C545.555 207.225 543.794 207.111 542.705 206.909C540.969 206.497 539.258 205.987 537.579 205.381C539.119 201.553 535.979 200.081 532.999 199.615C528.699 198.941 527.793 195.215 524.981 193.28C527.603 193.593 530.913 192.648 531.501 196.531C531.521 196.662 533.864 196.949 534.42 196.46C536.378 194.737 538.288 194.873 540.44 195.871C544.178 197.606 548.34 198.821 551.558 201.178C554.435 203.287 556.275 206.641 558.573 209.447C558.48 209.652 558.386 209.858 558.293 210.064Z" fill="#D9EBF9"/>
<path d="M501.666 181.8L504.08 183.906C503.416 184.692 502.623 185.629 501.728 186.686C502.271 187.88 502.846 189.143 503.216 189.954C501.716 193.002 500.355 195.747 498.896 198.703C496.704 198.24 493.931 198.203 491.865 197.055C490.001 196.016 488.797 193.822 487.573 191.979C487.311 191.585 487.99 190.201 488.618 189.799C492.755 187.149 497 184.64 501.666 181.8Z" fill="#D9EBF9"/>
<path d="M385.537 212.627C385.074 215.904 384.912 218.627 384.265 221.236C383.433 224.345 382.437 227.407 381.281 230.411C380.563 232.387 380.066 235.517 377.004 234.187C375.468 233.52 374.554 230.575 374.315 228.56C374.035 226.197 374.715 223.714 375.146 221.308C375.27 220.41 375.703 219.583 376.371 218.969C378.989 217.007 381.753 215.216 385.537 212.627Z" fill="#D9EBF9"/>
<path d="M418 34.6901C415.355 35.5901 412.78 36.8471 410.051 37.3071C403.321 38.4421 398.805 42.3981 395.445 47.4431C394.68 48.5921 396.475 51.2431 397.345 53.9921L388.585 50.3861C393.585 37.3501 405.261 34.9781 417.328 33.2041C417.553 33.7001 417.777 34.1954 418 34.6901Z" fill="#D9EBF9"/>
<path d="M326.644 24.3789C326.788 23.9349 327.014 23.2359 327.234 22.5549C327.559 22.554 327.882 22.6033 328.193 22.7009C332.436 25.1849 336.667 27.6889 341.247 30.3939C336.223 34.4859 335.661 27.3499 332.225 27.8939L327.292 35.1179C325.618 33.0179 324.209 31.2519 322.803 29.4839C322.722 29.3839 322.696 29.2019 322.595 29.1579C321.099 28.6662 319.666 27.9996 318.326 27.1719C317.901 26.8429 318.537 25.3119 318.826 23.4299L326.644 24.3789Z" fill="#D9EBF9"/>
<path d="M290.051 103.187L292.498 101.427L291.532 101.212C291.877 99.8211 292.261 98.4381 292.552 97.0371C292.767 96.0021 293.377 94.6311 292.912 93.9551C291.339 91.8735 289.648 89.8832 287.849 87.9941C289.825 85.9751 289.825 85.9751 295.489 87.4371L294.207 90.0711L301.537 98.9381C299.8 102.306 298.864 102.7 290.051 103.187Z" fill="#D9EBF9"/>
<path d="M482.919 196.12C482.419 197.933 481.919 199.728 481.29 201.976C472.212 198.512 470.706 188.854 463.339 184.383C463.571 183.992 463.803 183.6 464.034 183.208C465.701 183.882 467.686 184.22 468.976 185.293C472.521 188.242 475.703 191.571 479.189 194.588C480.117 195.391 481.619 195.609 482.919 196.12Z" fill="#D9EBF9"/>
<path d="M145.242 35.393L143.085 36.253C148.765 40.673 155.505 34.608 162.114 38.845C160.424 39.824 159.155 41.182 157.873 41.192C152.801 41.234 147.719 40.928 142.655 40.567C141.672 40.498 139.933 39.598 139.94 39.101C139.995 35.671 137.813 35.128 134.899 35.015C134.124 34.985 133.38 34.238 132.621 33.815L132.928 32.834C137.052 33.6953 141.179 34.558 145.308 35.422C145.316 35.433 145.242 35.393 145.242 35.393Z" fill="#D9EBF9"/>
<path d="M98.5215 45.278L96.2995 45.96C94.8946 46.5534 93.5483 47.2772 92.2785 48.122C87.5315 51.949 87.0885 52.794 82.4785 48.642C83.3565 46.378 84.2225 44.142 85.3045 41.355C88.5895 41.713 92.4105 41.968 96.1425 42.655C97.0755 42.824 97.7335 44.365 98.5215 45.278Z" fill="#D9EBF9"/>
<path d="M541.616 121.805C544.957 127.222 541.886 132.956 536.399 133.974C534.228 134.374 532.214 135.494 530.051 135.981C528.82 136.093 527.58 136.032 526.366 135.801C526.138 136.991 525.866 138.432 525.386 140.926C523.151 135.947 524.752 133.192 529.549 132.49C531.895 132.147 534.2 132.474 535.014 129.669C535.104 129.359 536.38 129.478 536.778 129.097C538.114 127.88 539.329 126.536 540.407 125.084C540.954 124.05 541.361 122.947 541.616 121.805Z" fill="#D9EBF9"/>
<path d="M260.762 71.227C260.61 70.227 260.426 69.027 260.201 67.551H256.741C259.227 65.551 261.114 63.864 262.556 67.604C268.271 64.459 272.035 64.625 275.629 68.269C271.465 72.106 266.939 74.089 260.762 71.227Z" fill="#D9EBF9"/>
<path d="M111.313 33.1941C111.533 37.1851 113.985 36.7841 116.461 36.0401C116.687 39.2781 109.744 41.6721 101.678 40.9911L104.689 39.2051H96.8252C97.5872 37.8471 97.9142 36.6691 98.7122 35.9521C100.988 33.9081 103.139 35.7941 105.274 36.4571C106.717 36.9051 108.08 37.5781 109.561 38.1841C109.706 36.3241 109.806 35.0471 109.906 33.7691L111.313 33.1941Z" fill="#D9EBF9"/>
<path d="M470.788 26.386C463.442 26.709 460.556 25.358 462.238 22.268L458.273 21.434C459.223 20.325 459.74 19.265 460.617 18.789C462.734 17.638 465.049 17.267 466.767 19.378C466.974 19.633 465.629 20.999 465.008 21.843L471.22 22.943C471.088 24 470.953 25.068 470.788 26.386Z" fill="#D9EBF9"/>
<path d="M597.469 262.728L599.915 263.728C599.084 264.845 598.434 265.807 597.691 266.7C595.897 268.858 594.331 271.295 592.121 272.984C591.078 273.784 588.766 273.121 586.744 272.227L597.469 262.728Z" fill="#D9EBF9"/>
<path d="M128.134 51.1159L121.234 46.2679L125.56 46.6459C125.373 45.6669 124.931 44.2539 125.115 44.1779C126.666 43.6066 128.248 43.1245 129.853 42.7339C129.991 43.5679 130.145 44.3999 130.253 45.2339C130.277 45.4179 130.014 45.6719 130.081 45.8089C131.654 49.0519 131.659 49.0499 128.134 51.1159Z" fill="#D9EBF9"/>
<path d="M202.862 101.156C201.249 103.561 201.722 104.481 204.433 105.246C205.987 105.685 206.921 108.054 208.744 110.308L196.667 108.237L201.41 100.87L202.862 101.156Z" fill="#D9EBF9"/>
<path d="M331.124 22.3429C335.956 20.5109 340.813 21.1539 346.218 22.2819C340.878 27.2559 336 24.6209 331.124 22.3429Z" fill="#D9EBF9"/>
<path d="M549.324 38.281C548.055 38.952 546.855 39.981 545.501 40.211C543.277 40.5928 541.01 40.6571 538.768 40.402C537.697 40.274 536.768 39.082 535.778 38.372C536.711 37.596 537.661 36.144 538.578 36.164C541.978 36.238 545.378 36.795 548.771 37.171L549.324 38.281Z" fill="#D9EBF9"/>
<path d="M289.138 93.6759C289.002 98.0969 287.086 100.738 281.883 100.148C283.69 92.4599 285.016 91.3459 289.138 93.6759Z" fill="#D9EBF9"/>
<path d="M118.489 35.2811L130.552 34.4741C130.115 36.4181 130.281 38.5001 129.265 39.3741C128.94 39.6738 128.537 39.876 128.102 39.9578C127.668 40.0397 127.219 39.9978 126.807 39.837C126.395 39.6762 126.036 39.4029 125.772 39.0483C125.507 38.6937 125.348 38.2719 125.311 37.8311C125.29 37.6931 123.511 38.0211 122.764 37.7001C121.292 36.9804 119.864 36.1726 118.489 35.2811Z" fill="#D9EBF9"/>
<path d="M544.9 111V95.0688C548.848 101.051 545.918 106.1 544.9 111Z" fill="#D9EBF9"/>
<path d="M149.7 66.9939L159.6 71.1779L159.131 72.0999L149.844 72.5159C149.844 70.3229 149.844 68.5959 149.844 66.8679L149.7 66.9939Z" fill="#D9EBF9"/>
<path d="M606.948 257.359C605.624 259.231 604.057 261.445 602.04 264.294C601.369 261.185 599.44 259.23 600.645 256.294C601.496 254.222 602.066 255.112 603.207 255.77C604.421 256.376 605.67 256.907 606.948 257.359Z" fill="#D9EBF9"/>
<path d="M510.339 201.281L505.66 199.127L507.336 197.302C507.136 198.528 506.936 199.754 506.736 200.98L505.556 200.949C505.344 198.219 505.131 195.489 504.894 192.434L509.312 194.373C509.992 196.51 510.591 198.39 511.189 200.273L510.339 201.281Z" fill="#D9EBF9"/>
<path d="M86.9932 35.254L98.6732 30.7C98.2802 33.989 98.2172 33.7069 94.9262 34.3479C92.4672 34.827 90.1952 36.153 87.8392 37.102L86.9932 35.254Z" fill="#D9EBF9"/>
<path d="M540.64 119.936L544.548 113.817L551.057 117.923L540.64 119.936Z" fill="#D9EBF9"/>
<path d="M482.533 202.314L498.597 205.414L498.342 206.604L482.151 204.161C482.279 203.544 482.406 202.929 482.533 202.314Z" fill="#D9EBF9"/>
<path d="M169.405 160.047C168.038 159.585 166.669 159.126 165.305 158.659C161.545 157.374 157.786 156.085 154.705 155.03C157.405 153.2 162.6 154.425 169.405 160.047Z" fill="#D9EBF9"/>
<path d="M481.012 27.9499L471.612 29.5659C473.635 24.0999 475.919 23.5769 481.012 27.9499Z" fill="#D9EBF9"/>
<path d="M507.279 172.56L506.779 162.649L508.685 162.257C509.012 163.4 509.972 164.85 509.544 165.627C508.33 167.827 508.889 168.978 511.025 169.527L507.279 172.56Z" fill="#D9EBF9"/>
<path d="M117.423 25.054C121.24 25.232 125.035 25.454 126.859 30.054L116.943 26.3L117.423 25.054Z" fill="#D9EBF9"/>
<path d="M551.767 268.915C550.483 266.232 549.683 264.561 548.413 261.906L555.071 264.043C554.148 265.4 553.226 266.764 551.767 268.915Z" fill="#D9EBF9"/>
<path d="M516.915 177.27C516.915 178.756 517.266 180.228 516.75 181.35C516.529 181.832 514.404 181.902 513.339 181.585C512.339 181.285 511.591 180.231 510.691 179.474L516.915 177.27Z" fill="#D9EBF9"/>
<path d="M400.384 18.853L390.465 21.466L390.065 20.966C392.848 19.576 395.602 18.127 398.465 16.898C398.72 16.791 399.674 18.112 400.384 18.853Z" fill="#D9EBF9"/>
<path d="M110.2 27.5839C108.689 30.3499 107.414 32.6269 103.566 30.8529C105.068 28.6269 105.941 25.8639 110.2 27.5839Z" fill="#D9EBF9"/>
<path d="M211.684 77.389C211.698 79.1095 211.379 80.8165 210.744 82.416C210.149 83.9256 209.26 85.3022 208.129 86.466C206.994 87.6206 205.639 88.5357 204.143 89.157C202.462 89.8297 200.663 90.1616 198.852 90.1333C197.041 90.105 195.253 89.717 193.593 88.992C191.981 88.2329 190.574 87.0965 189.493 85.679C188.306 84.0863 187.435 82.2802 186.929 80.359C186.307 78.033 186.008 75.6325 186.04 73.225C186.006 70.344 186.395 67.4737 187.195 64.706C187.874 62.3382 188.993 60.1199 190.495 58.168C191.884 56.391 193.66 54.9545 195.688 53.968C197.829 52.9533 200.175 52.4449 202.543 52.482C204.771 52.3872 206.995 52.7237 209.094 53.473V60.173C207.254 59.125 205.169 58.582 203.051 58.599C201.78 58.5807 200.522 58.8497 199.369 59.386C198.271 59.9096 197.303 60.673 196.538 61.62C195.711 62.6597 195.083 63.8432 194.685 65.111C194.218 66.5858 193.974 68.1221 193.961 69.669H194.113C194.987 68.4816 196.144 67.532 197.48 66.9067C198.815 66.2814 200.285 66.0002 201.756 66.089C203.161 66.0687 204.554 66.3454 205.844 66.901C207.042 67.4279 208.109 68.2133 208.967 69.201C209.863 70.2479 210.544 71.4601 210.973 72.769C211.463 74.2594 211.703 75.8203 211.684 77.389ZM203.838 77.896C203.838 73.986 202.238 72.031 199.038 72.031C198.357 72.0214 197.681 72.1603 197.058 72.438C196.473 72.7025 195.953 73.0923 195.534 73.58C195.1 74.0913 194.768 74.6818 194.557 75.319C194.321 76.0356 194.205 76.7864 194.214 77.541C194.208 78.3919 194.327 79.2391 194.569 80.055C194.784 80.7883 195.122 81.4796 195.569 82.099C195.979 82.6626 196.502 83.1338 197.105 83.482C197.709 83.8236 198.393 83.9989 199.086 83.99C199.768 84.0004 200.443 83.8482 201.054 83.546C201.641 83.2484 202.154 82.8233 202.554 82.302C202.991 81.7245 203.314 81.0696 203.506 80.372C203.734 79.5679 203.846 78.7355 203.838 77.9V77.896Z" fill="#737373"/>
<path d="M228.682 90.135C220.015 90.135 215.682 84.0496 215.682 71.879C215.682 65.565 216.854 60.7533 219.199 57.444C221.543 54.1346 224.941 52.48 229.393 52.48C237.855 52.48 242.087 58.667 242.088 71.041C242.088 77.203 240.933 81.9256 238.623 85.209C237.521 86.8074 236.03 88.0986 234.291 88.9606C232.551 89.8225 230.621 90.2267 228.682 90.135ZM229.038 58.6C225.566 58.6 223.831 62.9586 223.833 71.676C223.833 79.886 225.533 83.9906 228.933 83.99C232.249 83.99 233.908 79.7583 233.91 71.295C233.911 62.8316 232.287 58.6 229.038 58.6Z" fill="#737373"/>
<path d="M255.329 83.1001L251.6 95.9491H245.354L247.94 83.1001H255.329Z" fill="#737373"/>
<path d="M273.724 90.135C265.057 90.135 260.724 84.0496 260.724 71.879C260.724 65.565 261.896 60.7533 264.241 57.444C266.585 54.1346 269.983 52.48 274.435 52.48C282.898 52.48 287.13 58.667 287.13 71.041C287.13 77.203 285.975 81.9256 283.665 85.209C282.563 86.8074 281.072 88.0986 279.333 88.9606C277.593 89.8225 275.663 90.2267 273.724 90.135ZM274.08 58.6C270.608 58.6 268.875 62.9586 268.88 71.676C268.88 79.886 270.58 83.9906 273.98 83.99C277.297 83.99 278.956 79.7583 278.957 71.295C278.957 62.8316 277.332 58.6 274.08 58.6Z" fill="#737373"/>
<path d="M304.154 90.135C295.488 90.135 291.154 84.0496 291.154 71.879C291.154 65.565 292.327 60.7533 294.671 57.444C297.016 54.1346 300.414 52.48 304.865 52.48C313.332 52.48 317.565 58.667 317.565 71.041C317.565 77.203 316.41 81.9256 314.099 85.209C312.997 86.808 311.506 88.0996 309.766 88.9615C308.025 89.8235 306.094 90.2274 304.154 90.135ZM304.51 58.6C301.044 58.6 299.31 62.9586 299.31 71.676C299.31 79.886 301.01 83.9906 304.41 83.99C307.728 83.99 309.387 79.7583 309.387 71.295C309.387 62.8316 307.762 58.6 304.51 58.6Z" fill="#737373"/>
<path d="M334.584 90.135C325.917 90.135 321.584 84.0496 321.584 71.879C321.584 65.565 322.756 60.7533 325.101 57.444C327.446 54.1346 330.845 52.48 335.3 52.48C343.767 52.48 348 58.667 348 71.041C348 77.203 346.845 81.9256 344.534 85.209C343.432 86.8088 341.939 88.1008 340.198 88.9628C338.457 89.8248 336.525 90.2282 334.584 90.135ZM334.94 58.6C331.473 58.6 329.74 62.9586 329.74 71.676C329.74 79.886 331.44 83.9906 334.84 83.99C338.158 83.99 339.817 79.7583 339.817 71.295C339.817 62.8316 338.191 58.6 334.94 58.6Z" fill="#737373"/>
<path d="M381.036 77.1861H371.261V86.9611H366.132V77.1861H356.306V72.0311H366.132V62.2051H371.261V72.0311H381.036V77.1861Z" fill="#737373"/>
<path d="M194.474 132.5H192.474V130.547H192.425C192.06 131.245 191.505 131.826 190.825 132.223C190.145 132.62 189.367 132.818 188.58 132.793C187.514 132.856 186.465 132.501 185.656 131.804C185.303 131.467 185.027 131.058 184.845 130.606C184.663 130.153 184.58 129.667 184.601 129.18C184.601 126.847 185.976 125.488 188.727 125.103L192.474 124.578C192.474 122.454 191.615 121.392 189.898 121.392C188.397 121.39 186.947 121.937 185.821 122.93V120.879C187.094 120.085 188.569 119.678 190.069 119.707C193.007 119.707 194.476 121.261 194.476 124.37L194.474 132.5ZM192.474 126.177L189.459 126.592C188.716 126.659 187.997 126.894 187.359 127.281C187.105 127.491 186.907 127.762 186.784 128.068C186.66 128.373 186.614 128.705 186.651 129.033C186.641 129.316 186.695 129.597 186.808 129.857C186.921 130.117 187.091 130.347 187.305 130.533C187.791 130.938 188.412 131.145 189.044 131.113C189.505 131.126 189.963 131.039 190.388 130.859C190.812 130.679 191.193 130.409 191.504 130.069C192.16 129.349 192.508 128.401 192.474 127.427V126.177Z" fill="#737373"/>
<path d="M207.017 131.926C205.979 132.524 204.796 132.824 203.599 132.793C202.797 132.825 201.998 132.687 201.254 132.387C200.51 132.088 199.838 131.633 199.283 131.054C198.162 129.825 197.573 128.204 197.642 126.543C197.555 124.72 198.191 122.937 199.412 121.581C200.022 120.952 200.758 120.46 201.572 120.137C202.387 119.814 203.26 119.667 204.136 119.707C205.138 119.687 206.131 119.895 207.041 120.317V122.368C206.175 121.738 205.133 121.396 204.063 121.392C203.47 121.375 202.881 121.49 202.337 121.727C201.794 121.964 201.309 122.319 200.919 122.765C200.069 123.77 199.631 125.058 199.692 126.372C199.621 127.632 200.034 128.872 200.846 129.839C201.238 130.263 201.718 130.596 202.253 130.815C202.787 131.034 203.363 131.134 203.94 131.108C205.058 131.099 206.141 130.717 207.017 130.022V131.926Z" fill="#737373"/>
<path d="M216.092 132.378C215.512 132.662 214.87 132.797 214.225 132.769C212.035 132.769 210.94 131.548 210.941 129.106V121.706H208.792V120H210.941V116.948L212.941 116.301V120H216.09V121.709H212.941V128.752C212.885 129.381 213.035 130.01 213.368 130.547C213.547 130.739 213.768 130.888 214.013 130.981C214.259 131.074 214.523 131.109 214.784 131.084C215.253 131.095 215.713 130.949 216.09 130.669L216.092 132.378Z" fill="#737373"/>
<path d="M220.041 116.826C219.871 116.829 219.703 116.798 219.546 116.735C219.388 116.673 219.245 116.579 219.125 116.46C219 116.34 218.903 116.196 218.837 116.036C218.772 115.876 218.741 115.704 218.747 115.532C218.743 115.36 218.775 115.19 218.838 115.031C218.902 114.872 218.997 114.727 219.118 114.605C219.238 114.484 219.382 114.387 219.541 114.322C219.699 114.257 219.869 114.224 220.041 114.226C220.213 114.222 220.385 114.254 220.546 114.318C220.706 114.382 220.852 114.477 220.975 114.599C221.097 114.72 221.194 114.864 221.26 115.022C221.327 115.181 221.361 115.351 221.361 115.523C221.361 115.695 221.327 115.866 221.26 116.024C221.194 116.183 221.097 116.327 220.975 116.448C220.853 116.571 220.707 116.667 220.546 116.732C220.386 116.797 220.214 116.829 220.041 116.826ZM221.018 132.5H219.018V120H221.018V132.5Z" fill="#737373"/>
<path d="M235.147 120L230.167 132.5H228.2L223.465 120H225.665L228.839 129.082C229.049 129.646 229.196 130.232 229.278 130.828H229.327C229.397 130.249 229.528 129.679 229.718 129.128L233.038 119.997L235.147 120Z" fill="#737373"/>
<path d="M247.592 126.75H238.766C238.72 127.927 239.121 129.079 239.889 129.973C240.273 130.36 240.735 130.66 241.244 130.856C241.753 131.052 242.298 131.137 242.843 131.108C244.258 131.106 245.63 130.614 246.725 129.717V131.597C245.437 132.451 243.91 132.871 242.367 132.797C241.59 132.837 240.815 132.706 240.096 132.412C239.376 132.118 238.73 131.669 238.205 131.097C237.121 129.744 236.581 128.036 236.691 126.306C236.617 124.568 237.208 122.868 238.345 121.551C238.853 120.962 239.484 120.492 240.194 120.175C240.904 119.857 241.675 119.7 242.453 119.714C243.165 119.673 243.877 119.794 244.536 120.069C245.194 120.344 245.781 120.765 246.253 121.301C247.214 122.562 247.69 124.125 247.596 125.708L247.592 126.75ZM245.541 125.05C245.593 124.079 245.297 123.121 244.705 122.35C244.421 122.027 244.067 121.772 243.671 121.605C243.274 121.438 242.845 121.363 242.416 121.386C241.966 121.378 241.52 121.464 241.106 121.639C240.692 121.813 240.319 122.072 240.011 122.399C239.327 123.126 238.899 124.056 238.791 125.048L245.541 125.05Z" fill="#737373"/>
<path d="M265.292 132.793C264.179 132.841 263.07 132.646 262.04 132.222C261.011 131.798 260.085 131.156 259.329 130.339C257.789 128.578 256.987 126.292 257.088 123.955C256.962 121.5 257.779 119.09 259.371 117.217C260.162 116.372 261.127 115.709 262.2 115.275C263.273 114.841 264.428 114.645 265.584 114.702C266.677 114.659 267.765 114.855 268.774 115.277C269.783 115.699 270.688 116.336 271.425 117.144C272.953 118.91 273.746 121.195 273.641 123.528C273.776 125.993 272.964 128.417 271.371 130.303C270.599 131.134 269.655 131.787 268.605 132.217C267.556 132.647 266.425 132.843 265.292 132.793ZM265.438 116.558C264.59 116.531 263.746 116.696 262.971 117.041C262.195 117.385 261.507 117.9 260.958 118.547C259.847 120.057 259.244 121.881 259.237 123.756C259.229 125.631 259.817 127.46 260.916 128.979C261.448 129.618 262.118 130.128 262.876 130.47C263.635 130.811 264.461 130.975 265.292 130.95C266.141 130.992 266.988 130.845 267.773 130.52C268.559 130.195 269.262 129.7 269.833 129.07C271.018 127.582 271.61 125.708 271.493 123.809C271.616 121.887 271.044 119.985 269.881 118.45C269.332 117.819 268.647 117.32 267.877 116.993C267.107 116.665 266.273 116.516 265.438 116.558Z" fill="#737373"/>
<path d="M276.516 131.792V129.375C276.817 129.636 277.152 129.858 277.51 130.034C277.902 130.232 278.311 130.397 278.731 130.528C279.152 130.662 279.583 130.766 280.019 130.84C280.415 130.91 280.816 130.947 281.219 130.95C282.211 131.022 283.201 130.777 284.046 130.25C284.506 129.861 284.819 129.325 284.932 128.733C285.045 128.141 284.952 127.529 284.668 126.997C284.442 126.627 284.15 126.302 283.807 126.038C283.399 125.723 282.964 125.445 282.507 125.208C282.006 124.941 281.467 124.663 280.89 124.372C280.278 124.063 279.709 123.75 279.181 123.432C278.681 123.138 278.218 122.785 277.801 122.382C277.417 122.008 277.104 121.568 276.879 121.082C276.629 120.476 276.516 119.823 276.549 119.169C276.582 118.514 276.759 117.876 277.069 117.298C277.413 116.714 277.884 116.216 278.448 115.839C279.043 115.446 279.702 115.157 280.395 114.985C281.123 114.798 281.871 114.704 282.623 114.704C283.911 114.624 285.201 114.837 286.395 115.327V117.634C285.21 116.875 283.821 116.5 282.416 116.56C281.964 116.56 281.514 116.607 281.073 116.7C280.649 116.783 280.244 116.938 279.873 117.158C279.53 117.363 279.237 117.642 279.018 117.976C278.789 118.341 278.674 118.766 278.688 119.196C278.677 119.597 278.763 119.995 278.939 120.356C279.121 120.701 279.372 121.004 279.677 121.247C280.047 121.546 280.446 121.807 280.868 122.028C281.334 122.281 281.873 122.557 282.485 122.858C283.111 123.168 283.705 123.494 284.267 123.835C284.801 124.156 285.296 124.536 285.744 124.97C286.155 125.369 286.496 125.836 286.751 126.35C287.007 126.891 287.135 127.484 287.124 128.083C287.148 128.845 286.973 129.6 286.617 130.274C286.286 130.864 285.817 131.365 285.25 131.733C284.643 132.121 283.97 132.396 283.266 132.545C282.488 132.714 281.694 132.798 280.898 132.795C280.555 132.791 280.213 132.769 279.873 132.728C279.465 132.683 279.049 132.617 278.627 132.528C278.221 132.447 277.82 132.341 277.427 132.211C277.105 132.113 276.799 131.972 276.516 131.792Z" fill="#737373"/>
<path d="M290.047 131.792V129.375C290.349 129.636 290.683 129.858 291.042 130.034C291.434 130.232 291.842 130.397 292.262 130.528C292.684 130.661 293.114 130.766 293.55 130.84C293.946 130.91 294.348 130.947 294.75 130.95C295.742 131.022 296.732 130.777 297.576 130.25C298.036 129.861 298.348 129.327 298.462 128.735C298.576 128.144 298.483 127.531 298.2 127C297.975 126.63 297.683 126.304 297.339 126.041C296.931 125.726 296.496 125.448 296.039 125.211C295.538 124.944 294.998 124.666 294.421 124.375C293.811 124.066 293.241 123.753 292.712 123.435C292.212 123.141 291.749 122.788 291.333 122.385C290.949 122.012 290.636 121.571 290.411 121.085C290.161 120.479 290.048 119.826 290.08 119.172C290.113 118.517 290.29 117.878 290.6 117.301C290.944 116.717 291.416 116.218 291.98 115.842C292.575 115.448 293.233 115.159 293.926 114.988C294.654 114.801 295.402 114.707 296.154 114.707C297.442 114.627 298.732 114.84 299.926 115.33V117.637C298.742 116.878 297.352 116.503 295.947 116.563C295.496 116.563 295.045 116.61 294.604 116.703C294.181 116.786 293.775 116.941 293.404 117.161C293.061 117.366 292.769 117.645 292.549 117.979C292.321 118.344 292.206 118.769 292.22 119.199C292.209 119.6 292.295 119.998 292.47 120.359C292.652 120.703 292.903 121.007 293.208 121.25C293.579 121.548 293.977 121.81 294.399 122.031C294.866 122.284 295.405 122.56 296.016 122.861C296.643 123.171 297.237 123.497 297.798 123.838C298.332 124.158 298.828 124.539 299.275 124.973C299.687 125.372 300.027 125.839 300.283 126.353C300.539 126.894 300.666 127.487 300.655 128.086C300.679 128.848 300.504 129.603 300.148 130.277C299.818 130.867 299.349 131.368 298.781 131.736C298.174 132.124 297.502 132.399 296.797 132.548C296.019 132.717 295.225 132.801 294.429 132.798C294.086 132.794 293.744 132.772 293.404 132.731C292.997 132.686 292.582 132.62 292.159 132.531C291.753 132.45 291.352 132.344 290.959 132.214C290.637 132.115 290.33 131.973 290.047 131.792Z" fill="#737373"/>
<path d="M319.746 131.926C318.708 132.524 317.526 132.824 316.328 132.793C315.527 132.825 314.728 132.687 313.984 132.387C313.24 132.088 312.568 131.633 312.013 131.054C310.892 129.826 310.302 128.204 310.371 126.543C310.285 124.72 310.921 122.937 312.141 121.581C312.751 120.952 313.488 120.46 314.302 120.137C315.116 119.814 315.99 119.667 316.865 119.707C317.867 119.687 318.861 119.895 319.771 120.317V122.368C318.905 121.737 317.863 121.396 316.792 121.392C316.199 121.375 315.61 121.49 315.067 121.727C314.523 121.964 314.039 122.319 313.648 122.765C312.799 123.77 312.361 125.058 312.422 126.372C312.352 127.632 312.764 128.872 313.575 129.839C313.968 130.263 314.449 130.597 314.985 130.816C315.52 131.035 316.097 131.135 316.675 131.108C317.793 131.099 318.876 130.717 319.751 130.022L319.746 131.926Z" fill="#737373"/>
<path d="M328.248 132.793C327.428 132.831 326.61 132.694 325.848 132.392C325.085 132.09 324.395 131.629 323.823 131.041C322.682 129.771 322.087 128.102 322.169 126.396C322.116 125.503 322.241 124.608 322.537 123.764C322.832 122.92 323.292 122.142 323.89 121.477C324.501 120.876 325.229 120.409 326.03 120.104C326.83 119.799 327.685 119.664 328.541 119.707C329.35 119.662 330.158 119.792 330.912 120.089C331.665 120.386 332.345 120.843 332.905 121.428C334.016 122.762 334.577 124.468 334.474 126.201C334.56 127.958 333.952 129.678 332.783 130.992C332.198 131.597 331.492 132.071 330.71 132.381C329.928 132.692 329.088 132.832 328.248 132.793ZM328.395 121.393C327.82 121.367 327.247 121.471 326.718 121.698C326.19 121.926 325.719 122.27 325.343 122.705C324.543 123.736 324.144 125.021 324.22 126.324C324.15 127.591 324.554 128.839 325.355 129.824C325.736 130.249 326.206 130.584 326.731 130.806C327.257 131.027 327.825 131.129 328.395 131.105C328.955 131.138 329.516 131.042 330.034 130.825C330.551 130.607 331.011 130.272 331.379 129.848C332.136 128.815 332.506 127.549 332.423 126.271C332.506 124.982 332.137 123.704 331.379 122.658C331.014 122.232 330.555 121.896 330.038 121.676C329.521 121.456 328.961 121.359 328.4 121.392L328.395 121.393Z" fill="#737373"/>
<path d="M348.3 132.5H346.3V125.371C346.3 122.718 345.333 121.392 343.4 121.392C342.927 121.382 342.459 121.478 342.029 121.674C341.598 121.869 341.218 122.159 340.915 122.521C340.245 123.316 339.894 124.332 339.933 125.371V132.5H337.933V120H339.933V122.075H339.982C340.379 121.339 340.972 120.728 341.696 120.31C342.42 119.892 343.246 119.683 344.082 119.707C344.671 119.67 345.261 119.771 345.806 120.001C346.35 120.23 346.834 120.583 347.219 121.031C348.013 122.142 348.397 123.495 348.306 124.858L348.3 132.5Z" fill="#737373"/>
<path d="M358.118 132.378C357.538 132.662 356.896 132.797 356.25 132.769C354.061 132.769 352.967 131.548 352.967 129.106V121.706H350.818V120H352.967V116.948L354.967 116.301V120H358.116V121.709H354.967V128.752C354.912 129.381 355.062 130.01 355.394 130.547C355.573 130.739 355.794 130.888 356.04 130.981C356.285 131.074 356.549 131.109 356.81 131.084C357.28 131.095 357.74 130.949 358.116 130.669L358.118 132.378Z" fill="#737373"/>
<path d="M367.56 122.026C367.113 121.731 366.581 121.59 366.046 121.626C365.616 121.631 365.194 121.744 364.82 121.955C364.446 122.167 364.13 122.469 363.904 122.834C363.28 123.818 362.979 124.971 363.043 126.134V132.5H361.043V120H363.043V122.576H363.092C363.324 121.781 363.776 121.067 364.398 120.519C364.942 120.042 365.641 119.779 366.364 119.78C366.771 119.762 367.178 119.82 367.564 119.951L367.56 122.026Z" fill="#737373"/>
<path d="M371.008 116.826C370.839 116.829 370.671 116.798 370.514 116.735C370.357 116.673 370.214 116.579 370.093 116.46C369.969 116.34 369.871 116.196 369.805 116.036C369.74 115.876 369.709 115.704 369.714 115.532C369.712 115.361 369.743 115.19 369.807 115.031C369.871 114.872 369.966 114.728 370.086 114.606C370.207 114.484 370.35 114.388 370.509 114.323C370.667 114.257 370.837 114.225 371.008 114.226C371.181 114.222 371.353 114.253 371.513 114.318C371.674 114.382 371.82 114.477 371.942 114.599C372.065 114.72 372.162 114.864 372.228 115.022C372.294 115.181 372.329 115.351 372.329 115.523C372.329 115.695 372.294 115.866 372.228 116.024C372.162 116.183 372.065 116.327 371.942 116.448C371.82 116.571 371.675 116.668 371.514 116.733C371.354 116.798 371.182 116.829 371.008 116.826ZM371.985 132.5H369.985V120H371.985V132.5Z" fill="#737373"/>
<path d="M378.338 130.693H378.29V132.5H376.29V113.994H378.29V122.194H378.338C378.755 121.418 379.381 120.774 380.145 120.334C380.908 119.894 381.779 119.676 382.66 119.704C383.375 119.67 384.088 119.805 384.742 120.096C385.396 120.388 385.972 120.828 386.425 121.383C387.39 122.678 387.872 124.27 387.787 125.883C387.878 127.684 387.339 129.46 386.261 130.906C385.761 131.525 385.123 132.019 384.398 132.346C383.673 132.674 382.881 132.826 382.086 132.792C381.329 132.822 380.578 132.641 379.916 132.271C379.255 131.9 378.709 131.354 378.338 130.693ZM378.29 125.652V127.4C378.267 128.375 378.629 129.32 379.296 130.031C379.656 130.397 380.089 130.682 380.568 130.867C381.046 131.052 381.559 131.132 382.071 131.103C382.583 131.073 383.083 130.935 383.538 130.696C383.992 130.458 384.39 130.125 384.705 129.72C385.455 128.574 385.816 127.217 385.736 125.85C385.804 124.681 385.463 123.524 384.771 122.579C384.458 122.192 384.059 121.883 383.605 121.677C383.152 121.472 382.657 121.375 382.159 121.395C381.63 121.375 381.104 121.474 380.618 121.684C380.132 121.894 379.7 122.21 379.352 122.609C378.631 123.456 378.252 124.541 378.29 125.652Z" fill="#737373"/>
<path d="M401.342 132.5H399.342V130.522H399.294C398.939 131.233 398.385 131.825 397.701 132.228C397.016 132.631 396.229 132.827 395.436 132.793C392.458 132.793 390.968 131.019 390.968 127.471V120H392.958V127.153C392.958 129.79 393.967 131.108 395.985 131.108C396.442 131.119 396.896 131.028 397.313 130.841C397.73 130.655 398.1 130.377 398.396 130.028C399.052 129.237 399.389 128.229 399.342 127.202V120H401.342V132.5Z" fill="#737373"/>
<path d="M411.431 132.378C410.851 132.662 410.208 132.797 409.563 132.769C407.374 132.769 406.28 131.548 406.28 129.106V121.706H404.131V120H406.28V116.948L408.28 116.301V120H411.429V121.709H408.28V128.752C408.224 129.381 408.374 130.01 408.707 130.547C408.886 130.739 409.106 130.888 409.352 130.981C409.598 131.074 409.861 131.109 410.123 131.084C410.592 131.095 411.052 130.949 411.429 130.669L411.431 132.378Z" fill="#737373"/>
<path d="M419.579 132.793C418.76 132.83 417.941 132.694 417.179 132.392C416.416 132.09 415.726 131.629 415.154 131.041C414.014 129.772 413.42 128.104 413.5 126.4C413.447 125.507 413.572 124.612 413.868 123.768C414.163 122.924 414.623 122.146 415.221 121.481C415.832 120.88 416.56 120.412 417.361 120.108C418.161 119.803 419.017 119.668 419.872 119.711C420.681 119.666 421.489 119.796 422.243 120.093C422.996 120.39 423.676 120.847 424.236 121.432C425.347 122.765 425.908 124.472 425.805 126.205C425.891 127.962 425.283 129.682 424.114 130.996C423.529 131.6 422.822 132.073 422.04 132.383C421.258 132.693 420.419 132.833 419.579 132.793ZM419.726 121.393C419.151 121.367 418.578 121.471 418.049 121.698C417.521 121.925 417.05 122.27 416.674 122.705C415.874 123.735 415.475 125.021 415.551 126.324C415.481 127.591 415.885 128.839 416.686 129.824C417.067 130.249 417.537 130.584 418.062 130.805C418.588 131.027 419.156 131.129 419.726 131.105C420.287 131.138 420.847 131.043 421.365 130.825C421.882 130.607 422.343 130.272 422.71 129.848C423.467 128.815 423.837 127.549 423.754 126.271C423.837 124.982 423.468 123.704 422.71 122.658C422.344 122.231 421.884 121.894 421.367 121.675C420.849 121.455 420.287 121.358 419.726 121.392V121.393Z" fill="#737373"/>
<path d="M435.771 122.026C435.324 121.731 434.792 121.591 434.258 121.626C433.828 121.631 433.406 121.744 433.031 121.955C432.657 122.166 432.341 122.469 432.115 122.834C431.492 123.818 431.191 124.972 431.255 126.134V132.5H429.255V120H431.255V122.576H431.304C431.535 121.78 431.988 121.067 432.61 120.519C433.153 120.042 433.852 119.78 434.575 119.78C434.982 119.762 435.389 119.82 435.775 119.951L435.771 122.026Z" fill="#737373"/>
<path d="M437.438 132.048V129.9C438.472 130.687 439.737 131.112 441.038 131.108C442.794 131.108 443.673 130.522 443.674 129.351C443.683 129.052 443.605 128.757 443.448 128.502C443.286 128.259 443.079 128.05 442.838 127.886C442.556 127.693 442.254 127.531 441.938 127.403C441.591 127.261 441.219 127.113 440.821 126.958C440.322 126.764 439.835 126.542 439.362 126.293C438.977 126.093 438.623 125.838 438.312 125.536C438.037 125.264 437.821 124.938 437.678 124.578C437.527 124.176 437.454 123.749 437.464 123.32C437.452 122.774 437.59 122.236 437.864 121.764C438.133 121.311 438.5 120.923 438.938 120.629C439.405 120.314 439.924 120.081 440.47 119.939C441.049 119.784 441.646 119.706 442.246 119.707C443.241 119.691 444.228 119.883 445.146 120.269V122.3C444.201 121.692 443.096 121.378 441.973 121.4C441.63 121.396 441.289 121.439 440.959 121.528C440.681 121.602 440.419 121.724 440.184 121.888C439.977 122.034 439.806 122.224 439.684 122.444C439.565 122.663 439.505 122.908 439.508 123.157C439.498 123.44 439.558 123.721 439.684 123.975C439.812 124.206 439.989 124.406 440.203 124.561C440.46 124.749 440.739 124.904 441.034 125.025C441.358 125.164 441.728 125.315 442.144 125.477C442.651 125.668 443.149 125.886 443.634 126.13C444.04 126.332 444.417 126.586 444.757 126.887C445.059 127.158 445.302 127.488 445.471 127.857C445.646 128.269 445.732 128.715 445.721 129.163C445.735 129.728 445.593 130.285 445.312 130.775C445.038 131.231 444.665 131.619 444.22 131.91C443.737 132.223 443.204 132.449 442.645 132.581C442.033 132.73 441.406 132.804 440.777 132.801C439.619 132.826 438.472 132.568 437.438 132.048Z" fill="#737373"/>
<path d="M186.471 203.307V196.324C188.949 198.115 191.943 199.05 195 198.99C196.697 199.092 198.38 198.628 199.786 197.67C200.347 197.24 200.797 196.681 201.095 196.04C201.394 195.398 201.532 194.694 201.5 193.988C201.521 193.228 201.335 192.477 200.961 191.815C200.588 191.153 200.041 190.605 199.38 190.23C197.596 189.261 195.58 188.804 193.553 188.91H190.176V182.766H193.3C198.038 182.766 200.408 181.192 200.409 178.043C200.409 175.081 198.589 173.6 194.95 173.6C192.394 173.638 189.912 174.463 187.841 175.961V169.41C190.626 168.072 193.688 167.411 196.778 167.48C200.502 167.48 203.402 168.318 205.478 169.994C206.472 170.761 207.272 171.752 207.812 172.886C208.352 174.019 208.618 175.264 208.588 176.52C208.588 181.276 206.176 184.255 201.352 185.457V185.584C203.649 185.777 205.805 186.77 207.445 188.39C208.177 189.144 208.752 190.036 209.136 191.015C209.52 191.994 209.705 193.039 209.68 194.09C209.741 195.635 209.435 197.173 208.786 198.577C208.137 199.98 207.164 201.21 205.947 202.164C203.459 204.145 200.023 205.136 195.639 205.135C192.481 205.261 189.339 204.635 186.471 203.307Z" fill="#737373"/>
<path d="M224.9 198.1L221.168 210.947H214.92L217.51 198.1H224.9Z" fill="#737373"/>
<path d="M256.319 172.711C254.693 175.64 253.238 178.386 251.952 180.95C250.666 183.514 249.532 186.045 248.552 188.542C247.572 191.032 246.732 193.575 246.038 196.159C245.31 198.904 244.743 201.689 244.338 204.5H235.959C236.417 201.739 237.045 199.008 237.838 196.324C238.602 193.735 239.504 191.188 240.538 188.694C241.562 186.231 242.695 183.831 243.938 181.494C245.18 179.157 246.497 176.872 247.887 174.639H230.979V168.09H256.319V172.711Z" fill="#737373"/>
<path d="M273.724 205.135C265.057 205.135 260.724 199.05 260.724 186.879C260.724 180.565 261.896 175.753 264.241 172.444C266.585 169.135 269.983 167.48 274.435 167.48C282.898 167.48 287.13 173.667 287.13 186.041C287.13 192.203 285.975 196.926 283.665 200.209C282.563 201.807 281.072 203.099 279.333 203.961C277.593 204.822 275.663 205.227 273.724 205.135ZM274.08 173.6C270.608 173.6 268.875 177.959 268.88 186.676C268.88 194.886 270.58 198.991 273.98 198.99C277.297 198.99 278.956 194.757 278.957 186.29C278.957 177.823 277.332 173.593 274.08 173.6Z" fill="#737373"/>
<path d="M304.154 205.135C295.488 205.135 291.154 199.05 291.154 186.879C291.154 180.565 292.327 175.753 294.671 172.444C297.016 169.135 300.414 167.48 304.865 167.48C313.332 167.48 317.565 173.667 317.565 186.041C317.565 192.203 316.41 196.926 314.099 200.209C312.997 201.808 311.506 203.1 309.766 203.962C308.025 204.824 306.094 205.227 304.154 205.135ZM304.51 173.6C301.044 173.6 299.31 177.959 299.31 186.676C299.31 194.886 301.01 198.991 304.41 198.99C307.728 198.99 309.387 194.757 309.387 186.29C309.387 177.823 307.762 173.593 304.51 173.6Z" fill="#737373"/>
<path d="M350.606 192.186H340.831V201.961H335.7V192.186H325.873V187.031H335.7V177.205H340.829V187.031H350.604L350.606 192.186Z" fill="#737373"/>
<path d="M192.851 247.793C191.739 247.841 190.63 247.646 189.6 247.222C188.57 246.798 187.645 246.156 186.888 245.339C185.349 243.578 184.546 241.292 184.647 238.955C184.522 236.5 185.338 234.09 186.93 232.217C187.722 231.372 188.687 230.709 189.76 230.275C190.833 229.841 191.988 229.645 193.144 229.702C194.237 229.659 195.326 229.855 196.334 230.277C197.343 230.699 198.248 231.336 198.984 232.144C200.513 233.91 201.306 236.195 201.2 238.528C201.336 240.993 200.524 243.417 198.93 245.303C198.158 246.134 197.214 246.787 196.165 247.217C195.115 247.647 193.985 247.843 192.851 247.793ZM193 231.558C192.152 231.532 191.309 231.697 190.533 232.041C189.758 232.385 189.07 232.9 188.52 233.547C187.41 235.057 186.807 236.881 186.799 238.756C186.792 240.631 187.38 242.46 188.478 243.979C189.01 244.618 189.681 245.128 190.439 245.47C191.197 245.811 192.023 245.975 192.854 245.95C193.703 245.992 194.551 245.845 195.336 245.52C196.121 245.195 196.824 244.7 197.395 244.07C198.581 242.582 199.172 240.708 199.055 238.809C199.179 236.887 198.606 234.985 197.443 233.45C196.894 232.819 196.209 232.32 195.44 231.993C194.67 231.665 193.836 231.516 193 231.558Z" fill="#737373"/>
<path d="M204.075 246.792V244.375C204.377 244.636 204.711 244.858 205.069 245.034C205.462 245.232 205.87 245.397 206.29 245.528C206.712 245.662 207.142 245.766 207.578 245.84C207.974 245.91 208.376 245.947 208.778 245.95C209.771 246.023 210.761 245.778 211.605 245.25C212.065 244.861 212.378 244.326 212.491 243.734C212.605 243.142 212.511 242.529 212.227 241.997C212.002 241.627 211.71 241.301 211.366 241.038C210.958 240.723 210.523 240.445 210.066 240.208C209.566 239.941 209.026 239.663 208.448 239.372C207.838 239.063 207.268 238.749 206.739 238.432C206.24 238.137 205.776 237.785 205.359 237.382C204.975 237.009 204.663 236.568 204.438 236.082C204.188 235.477 204.075 234.823 204.108 234.169C204.14 233.514 204.318 232.876 204.627 232.298C204.97 231.714 205.439 231.215 206 230.837C206.596 230.444 207.254 230.155 207.947 229.983C208.675 229.796 209.424 229.702 210.175 229.702C211.463 229.622 212.753 229.835 213.947 230.325V232.632C212.763 231.873 211.373 231.498 209.968 231.558C209.517 231.558 209.067 231.605 208.625 231.698C208.202 231.781 207.796 231.936 207.425 232.156C207.082 232.361 206.79 232.641 206.57 232.974C206.342 233.339 206.227 233.764 206.241 234.194C206.231 234.595 206.316 234.993 206.491 235.354C206.673 235.699 206.925 236.002 207.229 236.245C207.6 236.544 207.999 236.805 208.42 237.026C208.887 237.279 209.426 237.555 210.037 237.856C210.663 238.166 211.257 238.492 211.819 238.833C212.353 239.154 212.849 239.534 213.296 239.968C213.708 240.368 214.049 240.834 214.304 241.348C214.56 241.889 214.688 242.482 214.676 243.081C214.7 243.843 214.526 244.598 214.169 245.272C213.839 245.862 213.37 246.363 212.802 246.731C212.195 247.119 211.523 247.394 210.818 247.543C210.04 247.712 209.246 247.796 208.45 247.793C208.108 247.789 207.765 247.767 207.425 247.726C207.017 247.681 206.602 247.615 206.18 247.526C205.774 247.445 205.373 247.339 204.98 247.209C204.661 247.112 204.357 246.971 204.075 246.792Z" fill="#737373"/>
<path d="M217.606 246.792V244.375C217.91 244.637 218.246 244.858 218.606 245.034C218.999 245.232 219.407 245.397 219.826 245.528C220.248 245.662 220.678 245.766 221.114 245.84C221.511 245.91 221.912 245.947 222.314 245.95C223.307 246.023 224.297 245.777 225.14 245.25C225.601 244.861 225.913 244.326 226.027 243.734C226.14 243.142 226.047 242.529 225.762 241.997C225.538 241.627 225.246 241.302 224.902 241.038C224.494 240.723 224.059 240.446 223.602 240.208C223.101 239.941 222.562 239.663 221.984 239.372C221.374 239.063 220.805 238.749 220.275 238.432C219.776 238.138 219.313 237.785 218.896 237.382C218.512 237.009 218.2 236.568 217.974 236.082C217.724 235.477 217.611 234.823 217.644 234.169C217.677 233.514 217.854 232.876 218.163 232.298C218.508 231.714 218.98 231.215 219.543 230.839C220.139 230.445 220.797 230.157 221.489 229.985C222.217 229.798 222.966 229.704 223.717 229.704C225.006 229.624 226.295 229.837 227.489 230.327V232.634C226.305 231.875 224.916 231.5 223.51 231.56C223.059 231.56 222.609 231.607 222.167 231.7C221.744 231.783 221.338 231.938 220.967 232.158C220.625 232.363 220.332 232.643 220.112 232.976C219.884 233.341 219.77 233.766 219.783 234.196C219.773 234.597 219.859 234.995 220.033 235.356C220.216 235.701 220.467 236.004 220.772 236.247C221.143 236.546 221.541 236.807 221.962 237.028C222.429 237.281 222.968 237.557 223.579 237.858C224.207 238.168 224.801 238.494 225.361 238.835C225.896 239.156 226.391 239.536 226.838 239.97C227.25 240.37 227.591 240.836 227.846 241.35C228.102 241.891 228.23 242.484 228.218 243.083C228.243 243.845 228.068 244.6 227.711 245.274C227.382 245.865 226.912 246.365 226.344 246.733C225.737 247.121 225.065 247.396 224.36 247.545C223.583 247.714 222.789 247.798 221.992 247.795C221.65 247.791 221.308 247.769 220.967 247.728C220.561 247.683 220.146 247.617 219.722 247.528C219.316 247.447 218.916 247.341 218.522 247.211C218.199 247.114 217.891 246.973 217.606 246.792Z" fill="#737373"/>
<path d="M247.305 246.926C246.267 247.524 245.084 247.824 243.887 247.793C243.085 247.825 242.286 247.687 241.542 247.387C240.798 247.087 240.127 246.633 239.572 246.054C238.451 244.826 237.861 243.204 237.93 241.543C237.843 239.72 238.479 237.937 239.7 236.581C240.31 235.952 241.046 235.46 241.861 235.137C242.675 234.814 243.548 234.667 244.424 234.707C245.426 234.687 246.42 234.895 247.33 235.317V237.368C246.464 236.737 245.422 236.396 244.351 236.392C243.758 236.375 243.169 236.49 242.626 236.727C242.082 236.964 241.598 237.319 241.208 237.765C240.358 238.769 239.92 240.058 239.981 241.372C239.91 242.632 240.323 243.872 241.134 244.839C241.527 245.263 242.008 245.597 242.543 245.816C243.079 246.035 243.656 246.135 244.234 246.108C245.351 246.099 246.434 245.717 247.31 245.022L247.305 246.926Z" fill="#737373"/>
<path d="M255.807 247.793C254.987 247.831 254.169 247.694 253.406 247.392C252.643 247.09 251.953 246.629 251.382 246.041C250.24 244.771 249.646 243.102 249.728 241.396C249.675 240.503 249.8 239.608 250.095 238.764C250.391 237.92 250.851 237.142 251.449 236.477C252.059 235.876 252.788 235.409 253.588 235.104C254.389 234.799 255.244 234.664 256.1 234.707C256.908 234.662 257.717 234.792 258.47 235.089C259.223 235.386 259.904 235.843 260.464 236.428C261.575 237.762 262.136 239.468 262.033 241.201C262.118 242.958 261.511 244.678 260.342 245.992C259.757 246.597 259.05 247.071 258.268 247.381C257.486 247.692 256.647 247.832 255.807 247.793ZM255.954 236.393C255.379 236.366 254.805 236.469 254.276 236.696C253.747 236.922 253.277 237.265 252.9 237.7C252.099 238.73 251.7 240.016 251.777 241.319C251.706 242.586 252.111 243.834 252.912 244.819C253.292 245.244 253.762 245.579 254.288 245.801C254.814 246.022 255.382 246.124 255.952 246.1C256.512 246.134 257.073 246.038 257.59 245.82C258.108 245.602 258.568 245.267 258.936 244.843C259.693 243.81 260.062 242.544 259.98 241.266C260.063 239.977 259.693 238.699 258.936 237.653C258.569 237.227 258.11 236.892 257.592 236.673C257.075 236.454 256.514 236.358 255.954 236.392V236.393Z" fill="#737373"/>
<path d="M283.23 247.5H281.23V240.322C281.31 239.281 281.088 238.239 280.589 237.322C280.338 236.998 280.008 236.744 279.632 236.581C279.255 236.419 278.843 236.355 278.435 236.395C278.004 236.4 277.581 236.509 277.202 236.713C276.822 236.916 276.497 237.209 276.255 237.566C275.648 238.374 275.331 239.363 275.355 240.374V247.5H273.355V240.078C273.355 237.621 272.407 236.393 270.511 236.392C270.087 236.387 269.668 236.484 269.29 236.676C268.912 236.867 268.585 237.147 268.338 237.492C267.739 238.327 267.438 239.34 267.484 240.367V247.5H265.484V235H267.484V236.978H267.533C267.903 236.274 268.463 235.688 269.149 235.286C269.835 234.884 270.621 234.684 271.415 234.707C272.208 234.69 272.983 234.935 273.623 235.402C274.263 235.87 274.731 236.535 274.955 237.295C275.32 236.506 275.907 235.841 276.644 235.381C277.381 234.922 278.237 234.687 279.105 234.707C281.855 234.707 283.231 236.404 283.231 239.797L283.23 247.5Z" fill="#737373"/>
<path d="M289.315 245.693H289.266V253.25H287.266V235H289.266V237.2H289.315C289.732 236.424 290.357 235.78 291.121 235.34C291.884 234.9 292.755 234.682 293.636 234.71C294.352 234.675 295.067 234.808 295.722 235.1C296.377 235.392 296.954 235.833 297.408 236.389C298.369 237.686 298.848 239.277 298.763 240.889C298.854 242.69 298.314 244.466 297.237 245.912C296.737 246.531 296.099 247.025 295.374 247.352C294.649 247.68 293.857 247.832 293.063 247.798C292.306 247.819 291.558 247.635 290.897 247.264C290.237 246.893 289.69 246.35 289.315 245.693ZM289.266 240.652V242.4C289.243 243.375 289.605 244.32 290.273 245.031C290.632 245.398 291.065 245.683 291.544 245.869C292.022 246.054 292.535 246.135 293.047 246.105C293.56 246.076 294.06 245.937 294.514 245.698C294.968 245.459 295.366 245.126 295.681 244.72C296.431 243.574 296.792 242.217 296.712 240.85C296.78 239.681 296.439 238.524 295.748 237.579C295.435 237.192 295.036 236.883 294.582 236.677C294.129 236.472 293.633 236.375 293.136 236.395C292.607 236.375 292.08 236.474 291.594 236.684C291.108 236.894 290.675 237.21 290.328 237.609C289.607 238.456 289.228 239.541 289.266 240.652Z" fill="#737373"/>
<path d="M311.159 247.5H309.159V245.547H309.11C308.745 246.245 308.191 246.826 307.511 247.223C306.831 247.62 306.053 247.818 305.265 247.793C304.199 247.856 303.151 247.501 302.341 246.804C301.989 246.467 301.712 246.058 301.53 245.606C301.349 245.153 301.265 244.667 301.286 244.18C301.286 241.847 302.662 240.488 305.412 240.103L309.159 239.578C309.159 237.454 308.301 236.392 306.584 236.392C305.083 236.39 303.633 236.937 302.506 237.93V235.879C303.779 235.085 305.255 234.678 306.754 234.707C309.692 234.707 311.161 236.261 311.161 239.37L311.159 247.5ZM309.159 241.177L306.144 241.592C305.401 241.659 304.683 241.894 304.044 242.281C303.79 242.491 303.593 242.762 303.469 243.068C303.346 243.373 303.3 243.705 303.336 244.033C303.327 244.316 303.38 244.597 303.494 244.857C303.607 245.117 303.776 245.347 303.99 245.533C304.477 245.938 305.097 246.145 305.729 246.113C306.19 246.126 306.649 246.039 307.073 245.859C307.498 245.679 307.878 245.409 308.189 245.069C308.845 244.349 309.193 243.401 309.159 242.427V241.177Z" fill="#737373"/>
<path d="M325.557 247.5H323.557V240.371C323.557 237.718 322.588 236.391 320.652 236.392C320.179 236.382 319.711 236.478 319.281 236.674C318.851 236.869 318.47 237.159 318.168 237.521C317.497 238.316 317.147 239.332 317.185 240.371V247.5H315.185V235H317.185V237.075H317.234C317.631 236.339 318.224 235.728 318.948 235.31C319.672 234.892 320.498 234.683 321.334 234.707C321.923 234.67 322.514 234.771 323.058 235.001C323.603 235.23 324.086 235.583 324.472 236.031C325.266 237.143 325.65 238.495 325.558 239.858L325.557 247.5Z" fill="#737373"/>
<path d="M339.528 235L333.778 249.5C332.752 252.088 331.312 253.382 329.457 253.382C329.016 253.392 328.576 253.339 328.151 253.223V251.429C328.531 251.566 328.931 251.64 329.335 251.648C329.856 251.627 330.357 251.441 330.765 251.117C331.173 250.792 331.467 250.345 331.605 249.842L332.605 247.474L327.724 235H329.945L333.327 244.619C333.367 244.741 333.452 245.058 333.583 245.571H333.656C333.696 245.376 333.778 245.067 333.9 244.644L337.453 235H339.528Z" fill="#737373"/>
<path d="M357.545 246.926C356.507 247.524 355.324 247.824 354.127 247.793C353.325 247.825 352.526 247.687 351.782 247.387C351.039 247.088 350.367 246.633 349.812 246.054C348.691 244.826 348.1 243.204 348.17 241.543C348.084 239.72 348.72 237.937 349.94 236.581C350.55 235.952 351.286 235.46 352.101 235.137C352.915 234.814 353.789 234.667 354.664 234.707C355.666 234.687 356.66 234.895 357.569 235.317V237.368C356.704 236.738 355.661 236.396 354.591 236.392C353.998 236.375 353.409 236.49 352.865 236.727C352.322 236.964 351.838 237.319 351.447 237.765C350.598 238.77 350.16 240.058 350.221 241.372C350.15 242.632 350.562 243.872 351.374 244.839C351.767 245.263 352.247 245.596 352.781 245.815C353.316 246.034 353.892 246.134 354.469 246.108C355.587 246.099 356.669 245.717 357.545 245.022V246.926Z" fill="#737373"/>
<path d="M366.047 247.793C365.227 247.831 364.409 247.694 363.646 247.392C362.884 247.09 362.194 246.629 361.622 246.041C360.481 244.771 359.886 243.102 359.968 241.396C359.915 240.503 360.04 239.608 360.335 238.764C360.631 237.92 361.091 237.142 361.689 236.477C362.299 235.876 363.028 235.409 363.829 235.104C364.629 234.799 365.484 234.664 366.34 234.707C367.148 234.662 367.957 234.792 368.71 235.089C369.464 235.386 370.144 235.843 370.704 236.428C371.814 237.762 372.375 239.468 372.272 241.201C372.358 242.958 371.751 244.678 370.582 245.992C369.997 246.597 369.29 247.071 368.508 247.381C367.726 247.692 366.887 247.832 366.047 247.793ZM366.193 236.393C365.618 236.366 365.045 236.471 364.516 236.698C363.988 236.925 363.518 237.27 363.142 237.705C362.342 238.736 361.943 240.021 362.019 241.324C361.949 242.591 362.353 243.839 363.154 244.824C363.534 245.249 364.004 245.584 364.53 245.805C365.055 246.027 365.623 246.129 366.193 246.105C366.753 246.138 367.314 246.042 367.832 245.825C368.35 245.607 368.81 245.272 369.178 244.848C369.935 243.815 370.305 242.549 370.222 241.271C370.305 239.982 369.936 238.704 369.178 237.658C368.812 237.231 368.352 236.894 367.834 236.675C367.316 236.455 366.754 236.358 366.193 236.392V236.393Z" fill="#737373"/>
<path d="M386.1 247.5H384.1V240.371C384.1 237.718 383.131 236.391 381.194 236.392C380.721 236.382 380.253 236.478 379.823 236.674C379.393 236.869 379.012 237.159 378.71 237.521C378.039 238.316 377.689 239.332 377.728 240.371V247.5H375.728V235H377.728V237.075H377.776C378.173 236.339 378.766 235.729 379.49 235.31C380.214 234.892 381.04 234.683 381.876 234.707C382.465 234.67 383.055 234.771 383.6 235.001C384.144 235.23 384.628 235.583 385.013 236.031C385.807 237.142 386.191 238.495 386.1 239.858V247.5Z" fill="#737373"/>
<path d="M395.917 247.378C395.337 247.662 394.695 247.797 394.049 247.769C391.861 247.769 390.766 246.548 390.766 244.106V236.706H388.617V235H390.766V231.948L392.766 231.301V235H395.915V236.709H392.766V243.752C392.711 244.381 392.861 245.01 393.193 245.547C393.372 245.74 393.592 245.889 393.838 245.982C394.084 246.075 394.348 246.11 394.609 246.084C395.079 246.095 395.539 245.949 395.915 245.669L395.917 247.378Z" fill="#737373"/>
<path d="M405.359 237.026C404.911 236.731 404.38 236.591 403.845 236.626C403.415 236.631 402.993 236.744 402.619 236.955C402.244 237.167 401.929 237.469 401.703 237.834C401.079 238.818 400.778 239.971 400.842 241.134V247.5H398.842V235H400.842V237.576H400.891C401.122 236.78 401.575 236.067 402.197 235.519C402.741 235.042 403.439 234.779 404.163 234.78C404.57 234.762 404.977 234.82 405.363 234.951L405.359 237.026Z" fill="#737373"/>
<path d="M408.807 231.826C408.638 231.829 408.47 231.798 408.313 231.735C408.156 231.673 408.013 231.579 407.892 231.46C407.768 231.34 407.67 231.196 407.604 231.036C407.539 230.876 407.508 230.704 407.513 230.532C407.51 230.361 407.542 230.19 407.606 230.031C407.669 229.872 407.764 229.728 407.885 229.606C408.006 229.484 408.149 229.388 408.308 229.323C408.466 229.257 408.636 229.224 408.807 229.226C408.98 229.222 409.152 229.254 409.312 229.318C409.473 229.382 409.619 229.477 409.741 229.599C409.864 229.72 409.961 229.864 410.027 230.022C410.093 230.181 410.127 230.351 410.127 230.523C410.127 230.695 410.093 230.866 410.027 231.024C409.961 231.183 409.864 231.327 409.741 231.448C409.619 231.571 409.473 231.667 409.313 231.732C409.152 231.797 408.98 231.829 408.807 231.826ZM409.784 247.5H407.784V235H409.784V247.5Z" fill="#737373"/>
<path d="M416.137 245.693H416.088V247.5H414.088V228.994H416.088V237.194H416.137C416.554 236.418 417.18 235.774 417.943 235.334C418.706 234.894 419.577 234.676 420.458 234.704C421.173 234.67 421.886 234.804 422.54 235.096C423.194 235.388 423.771 235.828 424.224 236.383C425.188 237.678 425.67 239.27 425.585 240.883C425.676 242.684 425.137 244.46 424.06 245.906C423.56 246.525 422.922 247.018 422.197 247.346C421.472 247.674 420.68 247.826 419.885 247.792C419.127 247.822 418.376 247.642 417.715 247.271C417.053 246.901 416.507 246.355 416.137 245.693ZM416.088 240.652V242.4C416.065 243.375 416.427 244.32 417.095 245.031C417.454 245.398 417.887 245.684 418.366 245.869C418.844 246.054 419.357 246.135 419.87 246.105C420.382 246.076 420.882 245.937 421.336 245.698C421.791 245.459 422.188 245.126 422.503 244.72C423.253 243.574 423.615 242.217 423.535 240.85C423.603 239.681 423.262 238.524 422.57 237.579C422.257 237.192 421.858 236.883 421.404 236.677C420.951 236.472 420.455 236.375 419.958 236.395C419.429 236.375 418.902 236.474 418.416 236.684C417.93 236.894 417.498 237.21 417.15 237.609C416.429 238.456 416.05 239.541 416.088 240.652Z" fill="#737373"/>
<path d="M439.141 247.5H437.141V245.522H437.092C436.737 246.233 436.184 246.825 435.499 247.228C434.815 247.631 434.028 247.828 433.235 247.793C430.255 247.793 428.766 246.019 428.767 242.471V235H430.757V242.153C430.757 244.79 431.766 246.109 433.784 246.108C434.241 246.119 434.694 246.028 435.112 245.841C435.529 245.655 435.899 245.377 436.195 245.028C436.851 244.237 437.188 243.229 437.141 242.202V235H439.141V247.5Z" fill="#737373"/>
<path d="M449.23 247.378C448.649 247.662 448.007 247.797 447.362 247.769C445.172 247.769 444.078 246.548 444.079 244.106V236.706H441.93V235H444.079V231.948L446.079 231.301V235H449.228V236.709H446.079V243.752C446.023 244.381 446.173 245.01 446.506 245.547C446.684 245.74 446.905 245.889 447.151 245.982C447.396 246.075 447.66 246.11 447.922 246.084C448.391 246.095 448.851 245.949 449.228 245.669L449.23 247.378Z" fill="#737373"/>
<path d="M457.378 247.793C456.558 247.83 455.74 247.694 454.977 247.392C454.215 247.09 453.525 246.629 452.953 246.041C451.813 244.771 451.219 243.104 451.3 241.4C451.247 240.507 451.372 239.612 451.667 238.768C451.963 237.924 452.423 237.146 453.021 236.481C453.631 235.88 454.36 235.412 455.161 235.108C455.961 234.803 456.816 234.668 457.672 234.711C458.48 234.666 459.289 234.796 460.042 235.093C460.796 235.39 461.476 235.847 462.036 236.432C463.144 237.765 463.703 239.47 463.6 241.2C463.685 242.957 463.078 244.677 461.909 245.991C461.325 246.596 460.619 247.069 459.837 247.38C459.056 247.691 458.218 247.831 457.378 247.793ZM457.524 236.393C456.949 236.366 456.376 236.471 455.847 236.698C455.319 236.925 454.849 237.27 454.473 237.705C453.673 238.735 453.274 240.021 453.35 241.324C453.28 242.591 453.684 243.839 454.485 244.824C454.865 245.249 455.335 245.584 455.861 245.805C456.386 246.027 456.954 246.129 457.524 246.105C458.085 246.138 458.645 246.042 459.163 245.824C459.681 245.606 460.141 245.272 460.509 244.848C461.266 243.815 461.636 242.549 461.553 241.271C461.636 239.982 461.267 238.704 460.509 237.658C460.143 237.231 459.683 236.894 459.165 236.675C458.647 236.455 458.085 236.358 457.524 236.392V236.393Z" fill="#737373"/>
<path d="M473.57 237.026C473.123 236.731 472.591 236.591 472.057 236.626C471.627 236.631 471.205 236.744 470.83 236.955C470.456 237.166 470.14 237.469 469.914 237.834C469.291 238.818 468.99 239.971 469.054 241.134V247.5H467.054V235H469.054V237.576H469.103C469.334 236.78 469.787 236.067 470.409 235.519C470.952 235.042 471.651 234.779 472.374 234.78C472.781 234.762 473.188 234.82 473.574 234.951L473.57 237.026Z" fill="#737373"/>
<path d="M475.236 247.048V244.9C476.271 245.687 477.536 246.111 478.836 246.108C480.594 246.108 481.473 245.522 481.473 244.351C481.483 244.052 481.404 243.757 481.247 243.502C481.086 243.259 480.879 243.05 480.637 242.886C480.356 242.693 480.054 242.531 479.737 242.403C479.392 242.261 479.019 242.113 478.621 241.958C478.123 241.764 477.636 241.542 477.162 241.293C476.777 241.093 476.424 240.838 476.112 240.536C475.837 240.264 475.621 239.938 475.478 239.578C475.328 239.176 475.255 238.749 475.264 238.32C475.253 237.775 475.391 237.236 475.664 236.764C475.934 236.311 476.301 235.923 476.738 235.629C477.206 235.314 477.724 235.081 478.27 234.939C478.85 234.784 479.447 234.706 480.046 234.707C481.043 234.691 482.033 234.882 482.951 235.269V237.3C482.006 236.692 480.901 236.378 479.777 236.4C479.435 236.396 479.095 236.439 478.764 236.528C478.487 236.602 478.225 236.724 477.989 236.888C477.783 237.033 477.612 237.223 477.489 237.444C477.371 237.663 477.311 237.908 477.313 238.157C477.304 238.44 477.364 238.721 477.489 238.975C477.617 239.206 477.794 239.406 478.008 239.561C478.265 239.748 478.544 239.904 478.838 240.025C479.164 240.164 479.535 240.315 479.949 240.477C480.457 240.669 480.954 240.887 481.439 241.13C481.845 241.332 482.223 241.586 482.562 241.887C482.864 242.158 483.107 242.488 483.275 242.857C483.452 243.269 483.537 243.715 483.526 244.163C483.54 244.728 483.399 245.285 483.117 245.775C482.844 246.232 482.47 246.62 482.024 246.91C481.542 247.222 481.01 247.449 480.45 247.581C479.839 247.73 479.212 247.804 478.582 247.801C477.422 247.827 476.273 247.569 475.236 247.048Z" fill="#737373"/>
</svg>
