<svg width="636" height="300" viewBox="0 0 636 300" fill="none" xmlns="http://www.w3.org/2000/svg">
<path d="M523.32 208.543H450.052C449.277 208.509 448.545 208.179 448.006 207.621C447.468 207.062 447.165 206.318 447.161 205.543C447.148 204.762 447.446 204.009 447.987 203.447C448.529 202.885 449.271 202.56 450.052 202.543H523.32C523.709 202.544 524.094 202.623 524.451 202.776C524.809 202.928 525.132 203.151 525.401 203.431C525.671 203.71 525.882 204.042 526.021 204.405C526.16 204.767 526.225 205.155 526.211 205.543C526.223 206.323 525.926 207.077 525.384 207.639C524.843 208.201 524.101 208.526 523.32 208.543Z" fill="#C8C8C8"/>
<path d="M413.162 294.543H334.844C334.069 294.51 333.336 294.18 332.798 293.621C332.259 293.063 331.956 292.319 331.952 291.543C331.939 290.762 332.237 290.009 332.779 289.446C333.321 288.884 334.063 288.56 334.844 288.543H413.162C413.55 288.544 413.935 288.623 414.292 288.776C414.65 288.928 414.973 289.151 415.242 289.431C415.512 289.71 415.723 290.042 415.862 290.405C416.001 290.767 416.066 291.155 416.053 291.543C416.064 292.323 415.767 293.077 415.225 293.639C414.684 294.201 413.942 294.526 413.162 294.543Z" fill="#C8C8C8"/>
<path d="M409.992 130.543H325.614C324.839 130.509 324.107 130.179 323.569 129.621C323.031 129.062 322.728 128.318 322.723 127.543C322.711 126.762 323.008 126.009 323.55 125.447C324.092 124.885 324.834 124.56 325.614 124.543H409.992C410.381 124.544 410.765 124.623 411.123 124.775C411.48 124.928 411.804 125.15 412.074 125.43C412.343 125.71 412.554 126.041 412.693 126.404C412.833 126.767 412.897 127.154 412.884 127.543C412.896 128.323 412.598 129.077 412.056 129.639C411.514 130.201 410.772 130.526 409.992 130.543Z" fill="#C8C8C8"/>
<path d="M284.583 214.418V207.658H115.248V214.418C115.234 214.727 115.313 215.034 115.475 215.298C115.636 215.562 115.873 215.772 116.155 215.901L199.501 250.527C199.797 250.61 200.111 250.61 200.408 250.527L283.759 215.9C284.037 215.774 284.267 215.562 284.415 215.295C284.564 215.028 284.622 214.721 284.583 214.418Z" fill="#409AE1"/>
<path d="M283.758 209.224L200.41 243.849C200.113 243.932 199.799 243.932 199.503 243.849L116.154 209.224C115.89 209.076 115.67 208.861 115.517 208.6C115.364 208.339 115.283 208.042 115.283 207.74C115.283 207.438 115.364 207.141 115.517 206.88C115.67 206.619 115.89 206.403 116.154 206.256L199.5 171.63C199.797 171.548 200.11 171.548 200.407 171.63L283.755 206.256C284.019 206.403 284.239 206.618 284.392 206.879C284.546 207.14 284.627 207.437 284.627 207.739C284.627 208.042 284.547 208.339 284.394 208.6C284.241 208.861 284.022 209.076 283.758 209.224Z" fill="#69AFE5"/>
<path d="M285.572 180.7V173.94H116.154V180.7C116.14 181.009 116.22 181.316 116.381 181.58C116.543 181.844 116.779 182.055 117.061 182.184L200.41 216.81C200.707 216.892 201.02 216.892 201.317 216.81L284.665 182.184C284.94 182.046 285.17 181.834 285.331 181.572C285.491 181.309 285.575 181.007 285.572 180.7Z" fill="#B6B6B7"/>
<path d="M284.665 175.423L201.317 210.048C201.02 210.131 200.706 210.131 200.41 210.048L117.061 175.423C116.798 175.274 116.579 175.058 116.427 174.798C116.275 174.537 116.195 174.24 116.195 173.938C116.195 173.637 116.275 173.34 116.427 173.079C116.579 172.818 116.798 172.603 117.061 172.454L200.41 137.829C200.706 137.747 201.02 137.747 201.317 137.829L284.665 172.454C284.943 172.59 285.177 172.801 285.341 173.063C285.505 173.326 285.592 173.629 285.592 173.938C285.592 174.248 285.505 174.551 285.341 174.814C285.177 175.076 284.943 175.287 284.665 175.423Z" fill="#D2D2D2"/>
<path d="M285.572 146.9V140.14H116.154V146.9C116.14 147.209 116.219 147.516 116.381 147.78C116.543 148.044 116.779 148.254 117.061 148.383L200.41 183.01C200.707 183.092 201.02 183.092 201.317 183.01L284.665 148.383C284.946 148.254 285.183 148.044 285.345 147.78C285.506 147.516 285.585 147.209 285.572 146.9Z" fill="#E58B39"/>
<path d="M284.665 141.622L201.317 176.247C201.02 176.329 200.706 176.329 200.41 176.247L117.061 141.622C116.798 141.473 116.579 141.257 116.427 140.997C116.275 140.736 116.195 140.439 116.195 140.138C116.195 139.836 116.275 139.539 116.427 139.278C116.579 139.018 116.798 138.802 117.061 138.653L200.41 104.028C200.706 103.946 201.02 103.946 201.317 104.028L284.665 138.653C284.943 138.789 285.177 139 285.341 139.262C285.505 139.525 285.592 139.828 285.592 140.138C285.592 140.447 285.505 140.75 285.341 141.013C285.177 141.275 284.943 141.486 284.665 141.622Z" fill="#FDA84C"/>
<path d="M401 244.689C401.534 244.699 402.065 244.599 402.56 244.396C403.06 244.186 403.502 243.859 403.848 243.442C404.222 243.006 404.519 242.51 404.729 241.975C404.923 241.434 405.015 240.862 405 240.287V230.017C405.004 228.862 404.595 227.744 403.848 226.863C403.499 226.465 403.072 226.143 402.594 225.916C402.116 225.689 401.597 225.562 401.068 225.543H342.14C341.588 225.533 341.04 225.633 340.527 225.838C340.012 226.046 339.554 226.375 339.193 226.797C338.807 227.233 338.498 227.732 338.281 228.272C338.079 228.815 337.984 229.393 338 229.972V240.3C337.984 240.879 338.079 241.457 338.281 242C338.489 242.545 338.799 243.046 339.193 243.476C339.545 243.872 339.977 244.189 340.461 244.404C340.945 244.62 341.47 244.729 342 244.725V249.153C341.47 249.15 340.945 249.261 340.461 249.477C339.977 249.693 339.544 250.01 339.193 250.407C338.807 250.843 338.498 251.342 338.281 251.882C338.079 252.425 337.984 253.003 338 253.582V263.912C337.984 264.491 338.079 265.069 338.281 265.612C338.489 266.157 338.799 266.658 339.193 267.088C339.545 267.484 339.978 267.8 340.462 268.015C340.946 268.23 341.47 268.34 342 268.336V272.536C341.47 272.533 340.945 272.644 340.461 272.86C339.977 273.076 339.544 273.393 339.193 273.79C338.807 274.227 338.499 274.726 338.281 275.267C338.079 275.81 337.983 276.388 338 276.967V287.114C337.983 287.695 338.082 288.272 338.292 288.814C338.511 289.362 338.834 289.863 339.242 290.29C339.623 290.714 340.099 291.043 340.631 291.249C341.164 291.462 341.736 291.564 342.31 291.549H400.69C401.264 291.558 401.834 291.456 402.37 291.249C402.902 291.043 403.378 290.714 403.759 290.29C404.158 289.856 404.479 289.357 404.708 288.814C404.917 288.272 405.017 287.695 405 287.114V276.753C405.017 276.199 404.91 275.648 404.688 275.14C404.447 274.611 404.103 274.135 403.676 273.74C403.257 273.329 402.75 273.018 402.195 272.828C401.619 272.627 401.012 272.532 400.403 272.548H399V268.548H400.4C401.009 268.558 401.615 268.463 402.192 268.267C402.748 268.078 403.254 267.767 403.673 267.355C404.091 266.953 404.434 266.479 404.685 265.955C404.907 265.447 405.013 264.896 404.997 264.341V252.61C404.987 252.065 404.863 251.528 404.632 251.034C404.401 250.54 404.068 250.1 403.656 249.743C402.747 248.981 401.603 248.557 400.418 248.543H399V244.543H401V244.689Z" fill="#5F5F5F"/>
<path d="M404 242.543H347V274.543H404V242.543Z" fill="#505050"/>
<path d="M405.689 225.543H347.311C346.737 225.533 346.167 225.631 345.63 225.834C345.099 226.038 344.624 226.364 344.242 226.785C343.843 227.213 343.521 227.708 343.292 228.246C343.083 228.781 342.984 229.353 343 229.928V240.158C342.984 240.732 343.083 241.304 343.292 241.839C343.512 242.383 343.834 242.879 344.242 243.301C344.624 243.721 345.099 244.046 345.63 244.25C346.165 244.459 346.736 244.559 347.311 244.543H405.689C406.263 244.552 406.833 244.453 407.37 244.25C407.9 244.046 408.376 243.721 408.758 243.301C409.157 242.872 409.478 242.378 409.708 241.839C409.917 241.304 410.016 240.732 410 240.158V229.928C410.019 229.353 409.921 228.781 409.712 228.245C409.503 227.709 409.187 227.221 408.784 226.811C408.381 226.401 407.899 226.077 407.367 225.859C406.835 225.641 406.264 225.534 405.689 225.543Z" fill="#737373"/>
<path d="M403 230.543H390V233.543H403V230.543Z" fill="#69AFE5"/>
<path d="M405.689 248.543H347.311C346.737 248.533 346.167 248.631 345.63 248.834C345.099 249.038 344.624 249.364 344.242 249.785C343.843 250.213 343.521 250.708 343.292 251.247C343.083 251.782 342.984 252.354 343 252.928V263.158C342.984 263.732 343.083 264.304 343.292 264.84C343.512 265.383 343.835 265.879 344.242 266.301C344.624 266.722 345.099 267.047 345.63 267.251C346.165 267.46 346.737 267.559 347.311 267.543H405.689C406.263 267.553 406.833 267.454 407.37 267.251C407.9 267.047 408.376 266.722 408.758 266.301C409.156 265.873 409.478 265.378 409.708 264.84C409.917 264.304 410.016 263.732 410 263.158V252.928C410.019 252.353 409.921 251.781 409.712 251.245C409.503 250.709 409.187 250.221 408.784 249.811C408.381 249.401 407.899 249.077 407.367 248.859C406.835 248.641 406.264 248.534 405.689 248.543Z" fill="#737373"/>
<path d="M403 253.543H390V256.543H403V253.543Z" fill="#69AFE5"/>
<path d="M405.689 272.543H347.311C346.737 272.533 346.167 272.632 345.63 272.835C345.099 273.039 344.624 273.364 344.242 273.785C343.843 274.213 343.521 274.708 343.292 275.247C343.083 275.782 342.984 276.353 343 276.927V287.158C342.984 287.732 343.083 288.304 343.292 288.839C343.512 289.382 343.834 289.878 344.242 290.3C344.624 290.721 345.099 291.046 345.63 291.25C346.165 291.459 346.736 291.559 347.311 291.543H405.689C406.263 291.552 406.833 291.453 407.37 291.25C407.9 291.046 408.376 290.721 408.758 290.3C409.156 289.872 409.478 289.377 409.708 288.839C409.917 288.304 410.016 287.732 410 287.158V276.927C410.016 276.353 409.917 275.782 409.708 275.247C409.488 274.703 409.165 274.207 408.758 273.785C408.376 273.364 407.9 273.039 407.37 272.835C406.825 272.661 406.26 272.563 405.689 272.543Z" fill="#737373"/>
<path d="M403 276.543H390V279.543H403V276.543Z" fill="#69AFE5"/>
<path d="M403.712 64.5391H348.553V123.97H403.712V64.5391Z" fill="#D2D2D2"/>
<path d="M403.712 64.5391H399V123.97H403.716L403.712 64.5391Z" fill="#C2C2C2"/>
<path d="M364.922 64.5391H354.422V123.97H364.922V64.5391Z" fill="#F3F3F3"/>
<path d="M404.852 126.543H348.152C347.877 126.528 347.605 126.473 347.346 126.38C347.09 126.275 346.849 126.138 346.629 125.971C346.432 125.79 346.28 125.567 346.182 125.319C346.08 125.086 346.019 124.838 346.002 124.584V124.5C346.019 124.246 346.079 123.998 346.182 123.765C346.279 123.516 346.432 123.293 346.629 123.113C346.836 122.928 347.081 122.788 347.346 122.704C347.605 122.611 347.877 122.556 348.152 122.541H404.852C405.127 122.556 405.399 122.611 405.658 122.704C405.913 122.809 406.154 122.946 406.374 123.113C406.571 123.293 406.725 123.516 406.822 123.765C406.924 123.998 406.984 124.247 407.001 124.5V124.582C406.984 124.836 406.924 125.084 406.822 125.317C406.724 125.566 406.571 125.789 406.374 125.969C406.167 126.154 405.923 126.293 405.658 126.378C405.399 126.472 405.127 126.527 404.852 126.543Z" fill="#939393"/>
<path d="M403.712 66.141H348.553V69.433H403.712V66.141Z" fill="#737373"/>
<path d="M364.922 66.141H354.422V69.433H364.922V66.141Z" fill="#B2B2B2"/>
<path d="M404.335 66.1409H348.019C347.745 66.1244 347.475 66.0643 347.219 65.9629C346.963 65.8476 346.724 65.6979 346.507 65.5179C346.309 65.3162 346.157 65.0731 346.063 64.8059C345.961 64.5506 345.901 64.2805 345.884 64.0059V63.9169C345.873 63.6347 345.923 63.3533 346.03 63.0921C346.138 62.8309 346.3 62.5962 346.507 62.4039C346.682 62.1989 346.901 62.0364 347.148 61.9286C347.394 61.8209 347.662 61.7707 347.931 61.7819H404.246C404.783 61.7996 405.293 62.0222 405.67 62.4039C406.055 62.816 406.276 63.3537 406.293 63.9169V64.0059C406.277 64.2804 406.217 64.5504 406.115 64.8059C406.023 65.074 405.871 65.3175 405.67 65.5179C405.47 65.7184 405.227 65.8706 404.958 65.9629C404.868 66.1409 404.6 66.1409 404.335 66.1409Z" fill="#939393"/>
<path d="M366.168 61.782C367.954 62.1268 369.56 63.0938 370.7 64.5109C371.84 65.9281 372.441 67.7036 372.396 69.522V77.974C372.396 82.066 377.289 83.49 381.826 83.49C386.274 83.49 390.1 86.337 390.1 90.251V100.66C390.1 104.753 396.417 105.019 396.417 100.66V69.878C396.417 62.137 389.566 61.871 389.566 61.871L366.168 61.782Z" fill="#FDA84C"/>
<path d="M349.086 68.543L345.705 67.475L340.723 85.536C339.567 88.916 338.41 92.742 337.342 96.746C336.274 100.75 335.296 104.574 334.495 108.134L329.424 126.193L332.804 127.261C334.851 127.883 340.189 115.25 344.638 99.061C349.175 82.778 351.221 69.166 349.086 68.543Z" fill="#939393"/>
<path d="M341.256 97.813C345.704 81.532 347.75 67.831 345.704 67.213C343.658 66.595 338.409 79.313 333.872 95.593C329.423 111.874 327.372 125.575 329.423 126.108C331.47 126.816 336.807 114.094 341.256 97.813Z" fill="#C2C2C2"/>
<path d="M332.448 119.7L331.024 121.213C330.955 121.372 330.828 121.499 330.669 121.568C330.135 120.59 331.647 111.426 335.74 96.391C339.921 81.355 343.391 72.815 344.369 72.191C344.442 72.4509 344.472 72.7212 344.458 72.991L344.992 74.059C345.17 71.835 344.815 71.659 344.548 71.568C344.192 71.479 343.48 71.212 340.722 78.685C339.032 83.312 337.075 89.539 335.206 96.212C333.337 102.885 331.825 109.29 330.935 114.094C329.512 121.924 330.224 122.102 330.58 122.194C330.758 122.279 331.199 122.368 332.448 119.7Z" fill="white"/>
<path d="M337.964 88.65C341.078 78.33 343.57 72.636 344.281 72.102C344.354 72.362 344.384 72.6322 344.37 72.902L344.904 73.97C345.082 71.746 344.727 71.57 344.459 71.479C344.104 71.39 343.392 71.123 340.634 78.596C339.655 81.265 338.676 84.379 337.52 87.849L337.964 88.65Z" fill="#939393"/>
<path d="M391.878 100.126V90.963C391.878 84.824 388.319 83.223 380.045 82.6C373.996 82.155 374.796 78.507 374.796 73.881C374.796 68.009 373.729 61.781 365.455 61.781C367.268 62.2662 368.867 63.3447 369.995 64.8443C371.124 66.344 371.718 68.1784 371.682 70.055V77.884C371.682 82.065 376.753 83.484 381.382 83.755C386.631 84.111 389.923 86.513 389.923 90.428V100.748C389.923 104.574 396.329 104.748 396.329 100.659C395.347 102.8 391.878 101.905 391.878 100.126Z" fill="#E58B39"/>
<path d="M366.258 25.8391L387.877 32.4231L389.745 27.0001L368.927 17.6591L366.258 25.8391Z" fill="#D2D2D2"/>
<path d="M366.257 25.839L317.057 4.66503C316.709 4.49455 316.427 4.2131 316.257 3.86503C316.169 3.66937 316.123 3.45718 316.123 3.24253C316.123 3.02789 316.169 2.81569 316.257 2.62003C316.424 2.24677 316.704 1.93541 317.057 1.73003C317.42 1.56489 317.829 1.53337 318.213 1.64103L369.102 17.741L366.257 25.839Z" fill="#1070C4"/>
<path d="M367.414 22.28L366.168 25.839L387.787 32.422L388.501 30.2L367.414 22.28Z" fill="#B2B2B2"/>
<path d="M316.079 3.15198C316.071 3.46943 316.165 3.78105 316.346 4.04198C316.539 4.29483 316.781 4.50661 317.058 4.66498L366.258 25.75L367.503 22.191L316.079 3.15198Z" fill="#09538F"/>
<path d="M407.18 39.985C407.18 39.985 405.311 31.533 400.063 26.817C399.005 25.7573 397.731 24.9387 396.327 24.417C396.238 24.328 396.148 24.328 395.97 24.328C391.433 22.816 386.984 24.417 385.739 27.976C384.493 31.624 387.252 36.076 391.789 37.762C393.898 38.5755 396.222 38.6384 398.372 37.94C401.435 37.8592 404.467 38.5632 407.18 39.985Z" fill="#676767"/>
<path d="M407.628 40.6999C407.538 35.4509 401.488 25.7539 395.973 24.4189C395.973 24.4189 399.264 26.6429 399.798 28.6899C400.243 30.3799 398.464 29.4899 397.129 29.4899C395.794 29.4009 395.617 30.4689 397.574 32.0699C399.532 33.5829 397.485 33.7609 395.617 33.4049C393.926 33.0489 394.017 34.7389 395.973 35.9849C397.93 37.3199 393.749 38.6539 391.973 38.1199C393.419 38.6881 394.956 38.9897 396.51 39.0099H396.777C405.67 39.7179 407.717 47.1909 407.628 40.6999Z" fill="#FDA84C"/>
<path d="M394.371 33.8459C394.465 34.2751 394.658 34.676 394.936 35.016C395.214 35.3561 395.569 35.6257 395.971 35.8029C397.928 37.1379 393.747 38.4719 391.971 37.9379C393.417 38.5061 394.954 38.8077 396.508 38.8279H396.775C403.003 39.4509 405.938 43.1869 407.096 43.2759C406.558 41.7639 403.8 36.6929 394.371 33.8459Z" fill="#E58B39"/>
<path d="M413.319 56.8C412.144 54.0876 410.521 51.5916 408.519 49.416C407.985 48.882 407.541 48.971 407.719 49.683C407.896 51.018 407.362 52.797 405.85 55.733C405.232 56.8119 404.953 58.0522 405.05 59.292C405.228 62.316 407.273 64.63 409.676 64.541C412.079 64.452 413.946 61.872 413.768 58.847C413.753 58.3973 413.693 57.9501 413.59 57.512C413.516 57.269 413.425 57.0312 413.319 56.8Z" fill="#FDA84C"/>
<path d="M404.957 59.1119V59.29C405.135 62.315 407.181 64.628 409.584 64.539C411.987 64.45 413.765 61.9589 413.676 59.0229C413.339 59.8902 412.711 60.6136 411.9 61.07C411.144 61.599 410.242 61.8787 409.319 61.8699C408.413 61.8548 407.525 61.6102 406.739 61.159C406.009 60.6076 405.403 59.9105 404.957 59.1119Z" fill="#E58B39"/>
<path d="M520.778 164.458L520.366 160.83C520.351 160.649 520.296 160.473 520.204 160.316C520.113 160.159 519.988 160.024 519.838 159.922C519.688 159.819 519.517 159.751 519.337 159.723C519.158 159.695 518.974 159.707 518.8 159.759L513.194 159.429C512.863 158.274 512.616 157.203 512.287 156.049L516.487 152.668C516.803 152.48 517.033 152.176 517.126 151.82C517.22 151.465 517.17 151.087 516.987 150.768L517.069 146.975C516.822 146.481 514.019 146.563 513.195 146.81L508.166 148.71C507.341 147.886 506.434 146.81 505.693 145.91L508.249 140.798C508.402 140.516 508.453 140.189 508.393 139.873C508.333 139.558 508.165 139.273 507.918 139.067L506.764 136.511C504.786 136.429 503.384 136.676 502.889 137.253L499.098 141.045C498.109 140.326 497.027 139.744 495.882 139.315L496.541 133.708C496.789 132.966 494.81 131.317 494.069 131.153L491.925 131.235C491.596 131.25 491.273 131.33 490.976 131.472C490.679 131.613 490.413 131.813 490.194 132.059L487.885 137.171C486.694 136.908 485.467 136.853 484.258 137.006L483.845 130.411C483.103 130.411 481.784 130.328 481.125 130.411L477.332 130.988C477.007 131.018 476.707 131.172 476.492 131.417C476.278 131.662 476.165 131.98 476.178 132.306L476.096 137.912C475.025 138.242 473.787 138.901 472.716 139.232L470.816 134.286H468.26C467.969 134.302 467.686 134.387 467.435 134.533L464.302 136.346C463.999 136.481 463.761 136.729 463.638 137.037C463.515 137.345 463.516 137.688 463.643 137.995L465.705 143.353C464.586 144.108 463.585 145.025 462.736 146.074L459.851 142.941C459.686 142.859 457.46 142.941 457.295 142.941C457.031 142.9 456.761 142.932 456.514 143.033C456.267 143.135 456.053 143.303 455.895 143.518L453.669 146.404C453.468 146.738 453.383 147.13 453.428 147.518C453.473 147.905 453.644 148.267 453.916 148.547L457.708 152.505C457.049 153.576 456.719 154.731 456.06 155.805L453.009 155.146H450.536C450.179 155.166 449.838 155.296 449.558 155.517C449.277 155.738 449.072 156.04 448.969 156.382L448.063 159.845C447.941 160.198 447.949 160.583 448.084 160.931C448.22 161.279 448.475 161.568 448.804 161.745L454.163 163.807C453.962 165.144 453.879 166.495 453.916 167.846L448.392 169.413C448.218 169.445 448.053 169.511 447.905 169.607C447.757 169.703 447.63 169.827 447.53 169.973C447.431 170.119 447.361 170.282 447.325 170.455C447.289 170.628 447.288 170.806 447.321 170.979L447.733 174.606C447.763 174.982 447.931 175.333 448.205 175.592C448.48 175.85 448.84 175.998 449.217 176.006H454.905C455.236 177.159 455.483 178.15 455.813 179.306L451.443 182.851C451.207 183.084 451.056 183.388 451.011 183.716C450.966 184.043 451.031 184.377 451.196 184.664L453.096 187.964C453.282 188.246 453.541 188.472 453.846 188.617C454.151 188.762 454.49 188.821 454.826 188.788H457.135L460.021 186.727C460.845 187.551 461.752 188.627 462.494 189.527L459.939 194.639C459.785 194.921 459.733 195.248 459.793 195.563C459.854 195.879 460.022 196.164 460.269 196.369L463.236 198.843C464.72 199.832 465.71 199.42 467.276 199.09L469.007 194.89C470.161 195.219 471.151 195.879 472.307 196.209L471.4 201.979C471.392 202.343 471.511 202.699 471.736 202.985C471.962 203.271 472.28 203.469 472.636 203.546L476.181 204.7C476.758 204.783 479.067 204.948 479.397 204.453L480.056 198.517C481.456 198.682 482.694 198.6 484.013 198.765L485.413 204.123C485.578 205.03 486.32 205.195 486.979 205.195H489.37C490.195 205.03 492.008 203.876 492.008 203.217L492.09 197.611C493.264 197.302 494.398 196.859 495.471 196.291L499.428 201.155C499.928 201.814 502.313 201.897 503.055 201.485L504.045 199.507C504.213 199.426 504.362 199.309 504.48 199.165C504.599 199.021 504.685 198.853 504.733 198.672C504.78 198.492 504.788 198.303 504.756 198.119C504.723 197.935 504.651 197.76 504.545 197.607L502.483 192.247C503.659 191.568 504.672 190.64 505.451 189.527L510.315 192.495C510.815 192.825 513.861 192.995 514.19 192.413L514.52 189.033C514.65 188.73 514.71 188.403 514.696 188.074C514.681 187.745 514.593 187.423 514.438 187.133L510.48 182.933C511.192 181.697 511.719 180.364 512.046 178.976L517.817 179.553C518.477 179.553 518.972 179.883 519.137 179.553L520.208 175.678C520.257 175.499 520.271 175.313 520.247 175.129C520.224 174.945 520.165 174.768 520.073 174.607C519.981 174.446 519.858 174.305 519.712 174.192C519.565 174.078 519.398 173.995 519.219 173.947L514.108 171.72C514.358 170.471 514.496 169.202 514.52 167.928L519.631 166.279C520.004 166.157 520.323 165.908 520.533 165.575C520.742 165.243 520.829 164.848 520.778 164.458ZM484.009 179.215C481.686 179.248 479.407 178.589 477.46 177.323C475.512 176.057 473.986 174.24 473.074 172.103C472.163 169.967 471.907 167.608 472.34 165.326C472.773 163.044 473.875 160.942 475.505 159.288C477.136 157.634 479.222 156.503 481.498 156.038C483.773 155.572 486.136 155.794 488.285 156.676C490.434 157.557 492.272 159.057 493.566 160.986C494.86 162.915 495.551 165.185 495.551 167.508C495.562 170.588 494.355 173.547 492.193 175.74C490.03 177.934 487.089 179.183 484.009 179.215Z" fill="#C2C2C2"/>
<path d="M523.418 164.458L523.006 160.83C523.006 160.171 522.263 159.841 521.438 159.759L515.833 159.429C515.503 158.274 515.256 157.203 514.926 156.049L519.131 152.668C519.446 152.479 519.674 152.174 519.766 151.819C519.859 151.464 519.808 151.086 519.625 150.768L517.725 147.305C517.478 146.805 516.984 146.563 516.077 146.728L510.801 148.706C509.976 147.882 509.07 146.806 508.328 145.906L510.883 140.794C511.036 140.512 511.088 140.185 511.028 139.869C510.967 139.554 510.8 139.269 510.553 139.063L507.668 136.837C507.54 136.713 507.388 136.616 507.222 136.553C507.055 136.49 506.878 136.461 506.7 136.469C506.522 136.477 506.348 136.52 506.187 136.598C506.027 136.675 505.884 136.784 505.768 136.919L501.646 140.959C500.657 140.24 499.575 139.657 498.43 139.228L499.09 133.621C499.148 133.442 499.168 133.254 499.149 133.067C499.129 132.88 499.071 132.699 498.978 132.536C498.885 132.373 498.759 132.231 498.607 132.12C498.456 132.009 498.283 131.93 498.1 131.89L494.474 131.066C494.185 130.974 493.875 130.981 493.591 131.086C493.307 131.19 493.066 131.386 492.906 131.643L490.434 137.002C489.243 136.739 488.015 136.684 486.806 136.837L485.24 131.231C485.116 130.916 484.9 130.646 484.621 130.454C484.341 130.263 484.011 130.16 483.673 130.159L479.881 130.736C479.556 130.767 479.256 130.92 479.041 131.166C478.826 131.411 478.713 131.729 478.726 132.055L478.644 137.661C477.573 137.991 476.336 138.65 475.265 138.98L471.802 134.529C471.704 134.399 471.583 134.289 471.443 134.206C471.303 134.123 471.148 134.068 470.987 134.046C470.827 134.023 470.663 134.032 470.505 134.072C470.348 134.113 470.2 134.184 470.071 134.282L466.938 136.095C466.635 136.23 466.396 136.478 466.273 136.785C466.15 137.093 466.151 137.437 466.278 137.744L468.339 143.102C467.22 143.857 466.22 144.774 465.372 145.823L460.508 142.855C460.169 142.709 459.792 142.678 459.434 142.767C459.076 142.857 458.758 143.061 458.528 143.349L456.303 146.235C456.102 146.569 456.018 146.961 456.062 147.348C456.107 147.736 456.278 148.098 456.55 148.378L460.343 152.336C459.683 153.407 459.353 154.562 458.693 155.636L453.17 154.976C452.813 154.996 452.471 155.126 452.191 155.347C451.911 155.568 451.706 155.871 451.604 156.213L450.697 159.676C450.575 160.029 450.582 160.414 450.718 160.762C450.854 161.11 451.11 161.399 451.439 161.576L456.797 163.638C456.597 164.975 456.514 166.326 456.55 167.677L451.027 169.244C450.285 169.491 449.789 169.986 449.954 170.81L450.367 174.438C450.397 174.814 450.565 175.165 450.839 175.423C451.113 175.682 451.474 175.83 451.851 175.838L457.539 175.755C457.869 176.909 458.116 177.982 458.446 179.136L454.076 182.68C453.825 182.903 453.663 183.209 453.617 183.541C453.572 183.874 453.647 184.212 453.829 184.494L455.729 187.957C455.969 188.281 456.316 188.509 456.708 188.6C457.101 188.692 457.513 188.641 457.872 188.457L462.654 186.557C463.478 187.381 464.385 188.457 465.127 189.357L462.571 194.469C462.417 194.751 462.366 195.078 462.426 195.393C462.486 195.709 462.654 195.994 462.901 196.2L465.869 198.673C466.146 198.881 466.487 198.986 466.833 198.972C467.18 198.957 467.51 198.822 467.769 198.591L471.644 194.716C472.798 195.046 473.787 195.705 474.944 196.035L474.036 201.806C474.028 202.17 474.147 202.526 474.373 202.812C474.599 203.098 474.918 203.296 475.274 203.373L478.818 204.527C479.164 204.577 479.518 204.506 479.818 204.326C480.119 204.145 480.348 203.867 480.467 203.537L482.693 198.344C484.093 198.509 485.331 198.426 486.65 198.591L488.05 203.95C488.215 204.856 488.958 205.021 489.618 205.021L493.162 204.527C493.987 204.362 494.646 203.702 494.562 203.043L494.644 197.437C495.817 197.127 496.951 196.685 498.024 196.117L501.487 200.569C501.568 200.737 501.684 200.886 501.829 201.004C501.973 201.123 502.141 201.209 502.321 201.257C502.502 201.304 502.691 201.312 502.875 201.28C503.059 201.247 503.233 201.175 503.387 201.069L506.52 199.255C506.687 199.173 506.834 199.056 506.952 198.912C507.07 198.769 507.155 198.601 507.202 198.421C507.249 198.241 507.256 198.053 507.224 197.87C507.191 197.687 507.12 197.513 507.014 197.36L504.954 192C506.129 191.32 507.142 190.392 507.921 189.28L512.785 192.247C513.067 192.401 513.394 192.453 513.71 192.393C514.025 192.333 514.311 192.165 514.517 191.918L516.99 188.868C517.119 188.565 517.178 188.237 517.164 187.909C517.15 187.58 517.062 187.258 516.907 186.968L512.95 182.768C513.593 181.801 514.093 180.745 514.434 179.635L520.205 180.212C520.499 180.2 520.786 180.119 521.044 179.976C521.302 179.833 521.522 179.631 521.689 179.388L522.761 175.513C522.81 175.334 522.823 175.148 522.8 174.964C522.777 174.78 522.718 174.602 522.626 174.442C522.534 174.281 522.411 174.14 522.264 174.026C522.117 173.913 521.95 173.83 521.771 173.782L516.66 171.556C516.91 170.306 517.048 169.037 517.072 167.763L522.183 166.115C522.38 166.105 522.572 166.051 522.746 165.958C522.92 165.865 523.071 165.735 523.189 165.576C523.307 165.418 523.389 165.236 523.428 165.043C523.468 164.849 523.464 164.65 523.418 164.458ZM486.648 179.298C484.325 179.331 482.045 178.672 480.098 177.406C478.151 176.14 476.625 174.323 475.713 172.187C474.802 170.05 474.546 167.691 474.979 165.409C475.412 163.127 476.513 161.026 478.144 159.372C479.775 157.718 481.86 156.586 484.136 156.121C486.411 155.655 488.774 155.877 490.923 156.758C493.072 157.639 494.91 159.14 496.204 161.068C497.498 162.997 498.189 165.267 498.19 167.59C498.202 170.67 496.995 173.63 494.833 175.824C492.67 178.018 489.728 179.267 486.648 179.3V179.298Z" fill="#939393"/>
<path d="M505.115 150.608L504.209 149.701C503.947 149.384 503.641 149.107 503.301 148.877C499.391 145.261 494.418 143.005 489.122 142.446H489.039C488.709 142.446 488.379 142.363 487.967 142.363H486.567C479.91 142.422 473.549 145.121 468.881 149.867C464.212 154.612 461.617 161.016 461.667 167.673V169.24C461.667 169.569 461.75 169.899 461.75 170.311V170.476C461.764 170.865 461.819 171.252 461.915 171.63C462.662 176.653 464.902 181.335 468.345 185.068C468.51 185.316 468.757 185.48 468.922 185.728L469.829 186.634C474.366 190.817 480.31 193.142 486.482 193.148C493.138 193.089 499.499 190.39 504.168 185.644C508.837 180.899 511.431 174.495 511.382 167.838C511.606 161.499 509.359 155.321 505.115 150.608ZM464.388 169.982L465.214 169.817C465.214 169.487 465.131 169.24 465.131 168.91V167.51C465.079 161.728 467.325 156.161 471.375 152.033C475.425 147.906 480.948 145.555 486.731 145.498H488.049C488.354 145.484 488.659 145.512 488.957 145.581H489.039C489.374 145.595 489.707 145.651 490.029 145.746C494.217 146.425 498.115 148.317 501.24 151.187C501.488 151.434 501.735 151.681 501.982 151.929C506.05 156.062 508.33 161.629 508.331 167.429C508.383 173.212 506.137 178.779 502.087 182.906C498.037 187.034 492.513 189.385 486.731 189.442C483.901 189.436 481.101 188.864 478.496 187.759C475.891 186.655 473.533 185.041 471.561 183.012C471.067 182.512 470.572 181.939 470.161 181.445C467.662 178.39 466.037 174.715 465.461 170.81C465.393 170.485 465.365 170.153 465.379 169.821L464.388 169.982Z" fill="#C2C2C2"/>
<path d="M214.756 129.75L330.669 82.35" stroke="#E58B39" stroke-width="1.953" stroke-miterlimit="10" stroke-dasharray="3.35 3.35"/>
<path d="M438.666 174.681H258.355" stroke="#B6B6B7" stroke-width="1.953" stroke-miterlimit="10" stroke-dasharray="3.35 3.35"/>
<path d="M220.105 223.043L329.424 257.008" stroke="#409AE1" stroke-width="1.953" stroke-miterlimit="10" stroke-dasharray="3.35 3.35"/>
</svg>
