<svg xmlns="http://www.w3.org/2000/svg" xmlns:xlink="http://www.w3.org/1999/xlink" viewBox="0 0 636 300"><defs><clipPath id="a"><path d="M237.462,75.373a59.428,59.428,0,0,0-97.01-46.042A46.837,46.837,0,0,0,63.73,78.823,48.13,48.13,0,0,0,110.59,162.6a50.74,50.74,0,0,0,94.972-34.561A59.413,59.413,0,0,0,237.462,75.373Z" fill="none"/></clipPath><clipPath id="b"><path d="M391.558,81.744a60.592,60.592,0,0,0,64.864,88.2,47.753,47.753,0,0,0,92.795-7.377,49.073,49.073,0,0,0-1.605-97.861A51.733,51.733,0,0,0,445.643,49.863,60.576,60.576,0,0,0,391.558,81.744Z" fill="none"/></clipPath></defs><title>swimlane-developer-scenarios</title><g clip-path="url(#a)"><path d="M96.131,7.2h90.414a57.816,57.816,0,0,1,57.816,57.816v68.1a60.816,60.816,0,0,1-60.816,60.816H96.131a57.816,57.816,0,0,1-57.816-57.816v-71.1A57.816,57.816,0,0,1,96.131,7.2Z" fill="#ffb900"/><path d="M170.435,82.653a5.027,5.027,0,0,0-4.848-3.767l-47.476-.164-5.749-.02L82.193,78.6a3.391,3.391,0,0,0-3.3,4.24l18.716,72.319,91.667.319Z" fill="#0078d7"/><rect x="99.025" y="64.577" width="67.149" height="88.803" fill="#fff"/><path d="M135.428,47.146l3.913,17.547,8.479-3.006a4.724,4.724,0,0,1,6.222,3.58l.236,1.242-2.639,6.945-2.753,1.4a4.185,4.185,0,0,0-2.383,4.521l.352,2.036,9.52-3.974,7.65-10.552,7.833-24.822L183.311,31.7l-15.294-9.913-10.51,12.117,0,.066Z" fill="#ce9c5f"/><path d="M121.592,64.655l2.691-3.551,4.438-3.783,4.223-1.367-4.825,2.873a2.376,2.376,0,0,0-.767.733l-3.361,5.095h7.078l.47-.58,2.325-1.153-.982,1.733h7.583l.346-.482-.364-1.5a2.969,2.969,0,0,1,1.986-3.534l5.763-1.833a13.578,13.578,0,0,0,7.885-6.583l3.7-6.993a7.411,7.411,0,0,1,1.522-1.975l6.04-5.573-.181-1.688-6.3-4.291-3.351,3.7-20.214,12-6.014-.487a1.764,1.764,0,0,0-.994.215L125.11,48.5a1.754,1.754,0,0,0-.771.857l-1.912,4.531.354.2a2.721,2.721,0,0,0,1.759.316l-4.05,4.287a2.2,2.2,0,0,0-.376.54l-2.692,5.427ZM127.7,51.181l4.2-1.171,1.188.238-6.032,1.917Z" fill="#ba8c57"/><path d="M163.107,24.064l-5.257,6.494.21.2a39.453,39.453,0,0,0,17.007,9.647l7.295-6.793L174.44,25.79Z" fill="#e6e6e6"/><path d="M163.193,34.912l5.294-6.013-5.076-4.79-.3-.045-5.258,6.5.21.2a39.347,39.347,0,0,0,5.133,4.152" fill="#fff"/><path d="M182.787,35.283h-.112c-8.912-.006-16.449-4.9-21.818-12.01l34.631-43.58L223.7-6.317Z" fill="#505050"/><path d="M179.377,28.8a2.019,2.019,0,1,1,.911,2.705,2.019,2.019,0,0,1-.911-2.705" fill="#939393"/><path d="M208.071-14.066,168.843,30.966a29.791,29.791,0,0,1-7.986-7.694c8.588-10.668,34.631-43.58,34.631-43.58Z" fill="#737373"/><path d="M205,92.268H155.131a5.16,5.16,0,0,0-4,1.894l-3.358,4.1H119.038a4.327,4.327,0,0,0-4.122,3.015L97.731,155.289H189.4L208.1,96.505A3.251,3.251,0,0,0,205,92.268Z" fill="#409ae1"/></g><circle cx="218.98" cy="169.439" r="9.899" fill="#ffb900"/><circle cx="233.98" cy="179.439" r="4.243" fill="#ffb900"/><circle cx="395.99" cy="172.105" r="9.899" fill="#ffb900"/><circle cx="380.99" cy="182.105" r="4.243" fill="#ffb900"/><g clip-path="url(#b)"><path d="M391.558,81.744a60.592,60.592,0,0,0,64.864,88.2,47.753,47.753,0,0,0,92.795-7.377,49.073,49.073,0,0,0-1.605-97.861A51.733,51.733,0,0,0,445.643,49.863,60.576,60.576,0,0,0,391.558,81.744Z" fill="#ffb900"/><polyline points="385.323 140.793 414.715 109.718 444.801 120.285 460.498 98.902" fill="none" stroke="#fff" stroke-miterlimit="10" stroke-width="6"/><circle cx="414.073" cy="111.714" r="6.632" fill="#e26c41"/><circle cx="444.801" cy="120.285" r="6.632" fill="#e26c41"/><path d="M546.809,129.012l-1.109-5.6,3.557-29.377.236-1.778a14.928,14.928,0,0,0-1.835-9.36l-1.548-2.712a2.668,2.668,0,0,0-4.05-.7l-1.152.985-2.192-.629a1.265,1.265,0,0,0-1.523.752l-1.066,2.752-2.684-8.081a2.4,2.4,0,0,0-1.925-1.456l-9.689-1.758a2.438,2.438,0,0,0-1.184.078l-6.32,2.041.148.508a4.339,4.339,0,0,0,4.736,3.093l3.478-.459,5.423,2.963,1.821,5.1-2.782,8.393a5.407,5.407,0,0,1-7.6,3.112l-1.287-.659-4.413-7.251.666-3.464a4.781,4.781,0,0,0-2.407-5.32l-2.085-1.109-3.088,11.374,2.364,8.138-.069.021,2.187,7.467L527.532,129.3l-.042,31.768a3.619,3.619,0,0,0,2.7.409L554.15,153.5Z" fill="#8e562e"/><path d="M515.834,76.758l5.1-1.464a3.335,3.335,0,0,1,2.284.163l5.423,2.43a3.333,3.333,0,0,1,1.5,1.338l3.2,5.38a2.617,2.617,0,0,0,3.981.619l-.967-2.483.83-2.145a1.262,1.262,0,0,1,1.526-.758l2.192.629,1.152-.985a2.666,2.666,0,0,1,4.049.7L547.66,82.9a15.018,15.018,0,0,1,1,2.139l-1.537-5.285-4.171-9.051a2.521,2.521,0,0,0-.412-.629l-4.989-5.594-.77.685a3.289,3.289,0,0,0-.633,4.15l2.627,4.381,1.118,3.328-5.645-7.054a2.861,2.861,0,0,0-.841-.781l-8.486-5.14-.781,1.338a3.384,3.384,0,0,0,.6,4.177l4.592,3.738.075.117-7.587-1.376a2.422,2.422,0,0,0-1.183.079l-6.319,2.039.147.5a4.306,4.306,0,0,0,1.362,2.088" fill="#8e562e"/><path d="M527.6,114.354,515.661,103.8a7.558,7.558,0,0,1-2.2-3.385l-.956-3.019a23.772,23.772,0,0,1-2.348.937c-.307.1-.614.187-.922.276l2.187,7.467,16.11,23.223-.042,31.768a3.619,3.619,0,0,0,2.7.409l23.963-7.973L538.3,149.256l-1.68-15.877a31.818,31.818,0,0,0-9.023-19.025" fill="#704322"/><path d="M550.471,143.277l-1.834-11.638-.408.029a55.613,55.613,0,0,0-26.161,8.691l.221,14.053,15.672-.9Z" fill="#fff"/><path d="M538.92,133.147a55.572,55.572,0,0,1,9.31-1.479l.408-.029,1.834,11.638-6.738,5.509-13.446-.856Z" fill="#e6e6e6"/><path d="M520.14,153.28l.108-.118A40.093,40.093,0,0,1,553.492,140.1l11.422,55.46-41.286,16.312Z" fill="#282828"/><path d="M535.25,142.762a40.062,40.062,0,0,0-15,10.4l-.108.118,3.489,58.594,29.129-11.509Zm-8.8,11.465a2.852,2.852,0,0,1,3.88,2.347,2.814,2.814,0,0,1-1.121,2.58,2.849,2.849,0,1,1-2.759-4.927" fill="#505050"/><polyline points="472.567 89.773 498.898 66.835 526.641 87.189" fill="none" stroke="#fff" stroke-miterlimit="10" stroke-width="6"/><circle cx="497.822" cy="63.635" r="6.632" fill="#e26c41"/></g><path d="M271.3,115.361a5.405,5.405,0,0,1,4.217,2.043s.054,22.5.042,21.881h-.319a9.378,9.378,0,0,1-9.378-9.377V120.8A5.438,5.438,0,0,1,271.3,115.361Z" fill="#ab845f"/><path d="M356.555,122.041v27.327a70.94,70.94,0,0,1-20.778,50.162H308.55v-58.4Z" fill="#301d19"/><path d="M274.291,110.393,270.8,143.761a23.622,23.622,0,0,1-13.772,19.073h0c-7.5,3.387-15.15,42.463-12.807,46.793l9.4,17.384,70.926-39.256-2.743-72.08Z" fill="#301d19"/><path d="M257.032,162.834h0A23.622,23.622,0,0,0,270.8,143.761l1.652-15.811,10.973-7.874L278.6,149.784v6.436a24.2,24.2,0,0,1-9.792,19.44h0a24.194,24.194,0,0,0-8.525,27.169l3.243,9.621-12.358,10-6.938-12.826C238.73,198.355,238.98,172.105,257.032,162.834Z" fill="#613d30"/><path d="M356.634,115.361h0a5.438,5.438,0,0,1,5.438,5.438v9.108a9.378,9.378,0,0,1-9.377,9.378h-1.5V120.8A5.438,5.438,0,0,1,356.634,115.361Z" fill="#ab845f"/><path d="M312.421,74.714h5.161a39.087,39.087,0,0,1,38.973,38.972v24.8a39.089,39.089,0,0,1-26.23,36.776l.509,12.929,17.128,4.947L326.646,227.93c-3.5,7.343-19.038,6.8-21.975-.785l-21.7-34.8,13.365-4.158.447-14.054a39.091,39.091,0,0,1-23.33-35.651v-24.8A39.086,39.086,0,0,1,312.421,74.714Z" fill="#bb9167"/><path d="M330.327,175.262l.108,2.733h0L329,187.3A39.2,39.2,0,0,1,308.4,209.586l-19.164,6.8L276.626,194.32l19.706-6.129.447-14.054c.038.016.077.027.115.045a39.1,39.1,0,0,1-23.4-34.9h-.319c.278-.8.278-25.6.278-25.6a38.941,38.941,0,0,1,.2-3.9,5.08,5.08,0,0,1,1.021-1.392L307,83.869l3.431,10.706s-4.4,14.794-17.263,22.733a36.008,36.008,0,0,1,8.469,1.706l1.413.474a6.162,6.162,0,0,1,4.2,6.162l-.8,15.477c-.151,2.94,1.624,3.422,4.151,3.41a2.72,2.72,0,0,1,2.658,3.244l-1.864,9.569,2.347,2.595c-3.862,6.91-3.112,15.66,3.841,17.513h0A38.564,38.564,0,0,0,330.327,175.262Z" fill="#ab845f"/><path d="M315.052,163.578h-5.627a9.3,9.3,0,0,1-7.744-3.985c-1.832-2.729-3.886-6.213-4.009-8.268l14.184,5.912,14.851-5.912c-.23,2.209-2.143,5.566-3.871,8.207A9.27,9.27,0,0,1,315.052,163.578Z" fill="#d83b01"/><path d="M326.708,151.325a15.888,15.888,0,0,1-29.036,0Z" fill="#fff"/><path d="M284.919,123.291a1.949,1.949,0,0,0,1.487-.686h0c.278-.322,6.946-7.854,17.169-1.8a1.952,1.952,0,1,0,1.991-3.359c-13.116-7.775-22.048,2.525-22.137,2.63a1.954,1.954,0,0,0,1.49,3.215Z" fill="#301d19"/><path d="M346.108,123.291a1.949,1.949,0,0,1-1.487-.686h0c-.278-.322-6.945-7.854-17.169-1.8a1.952,1.952,0,0,1-1.991-3.359c13.117-7.775,22.048,2.525,22.137,2.63a1.954,1.954,0,0,1-1.49,3.215Z" fill="#301d19"/><path d="M270.227,194.694l19.033-6.5,6.694,11.792a19.967,19.967,0,0,0,35.439-1.375l4.889-10.417,26.219,7.293a29.976,29.976,0,0,1,18.783,26.021l8.882,62.934H239.314l10.849-65.015A29.975,29.975,0,0,1,270.227,194.694Z" fill="#871a1a"/><path d="M311.6,67.165a42.546,42.546,0,0,1,44.78,41.6c.033,1.608.061,3.237.087,4.872l.091.053v30.159c-3.2-.5-7.017-6.828-7.017-15.06s-3.668-13.611-10.032-19.43c-12.323-11.268-18.207-21.9-18.207-21.9-30.558,10.008-33.244,45.775-50,57.6V111.1A42.553,42.553,0,0,1,311.6,67.165Z" fill="#301d19"/><path d="M297.114,91.369c-14.763,12.245-16.888,32.141-25.813,42.293V111.1a42.553,42.553,0,0,1,40.3-43.931c.712-.037,1.421-.054,2.126-.057L321.3,87.456A23.218,23.218,0,0,0,297.114,91.369Z" fill="#613d30"/><path d="M321.3,80.024s-20.611-4.344-34.131,12.711C290.124,73.817,315.525,72.93,321.3,80.024Z" fill="#301d19"/><path d="M332.706,129.119a4.005,4.005,0,1,1,7.152,0Z" fill="none"/><path d="M291.17,129.119a4,4,0,1,1,7.151,0Z" fill="none"/><path d="M339.97,128.785c-8.367,6.693-15.9,0-15.9,0Z" fill="none"/><path d="M303.992,128.785c-8.367,6.693-15.9,0-15.9,0Z" fill="none"/><path d="M326.4,130.374a3.278,3.278,0,1,0,3.277-3.277,3.277,3.277,0,0,0-3.277,3.277"/><path d="M290.4,130.374a3.278,3.278,0,1,0,3.277-3.277,3.277,3.277,0,0,0-3.277,3.277"/><path d="M359.314,281.772l-2.667-38.667s-3.523,15.173-8,20.667a67.131,67.131,0,0,0-10.667,19.333Z" fill="#690000"/><path d="M315.832,277.38l-19.819-60.46H201.78l22.107,67.441H363.663v-5.278H318.182a2.473,2.473,0,0,1-2.35-1.7" fill="#b2b2b2"/><path d="M289.866,216.92H195.633l22.106,67.44h97.583a4.625,4.625,0,0,1-4.394-3.184Z" fill="#939393"/><polygon points="257.236 247.272 247.637 247.272 250.37 255.606 259.967 255.606 257.236 247.272" fill="#fff"/><path d="M251.839,283.01a3.53,3.53,0,0,0-4.6-5.061l-8.9,4.656,3.6-4.426a3.557,3.557,0,0,0-5.053-5l-11.606,10.451a.178.178,0,0,1-.277-.215l4.781-9.232a3.686,3.686,0,0,0-6.323-3.765l-6.451,11.307L213.392,271.1c-1.352,1.645-1.325,3.8-.7,5.833l1.75,6.769.609,2.237a4.36,4.36,0,0,0,5.8,2.915l3.708-1.457.119.146a6.193,6.193,0,0,0,9.435.251l1.559-1.916.041.147a4.214,4.214,0,0,0,5.941,2.63l1.288-.645h6.67a4.162,4.162,0,0,0,4.162-4.163v-.7Z" fill="#bb9167"/></svg>