<svg id="Layer_1" data-name="Layer 1" xmlns="http://www.w3.org/2000/svg" xmlns:xlink="http://www.w3.org/1999/xlink" viewBox="0 0 636 300"><defs><style>.cls-1,.cls-4{fill:none;}.cls-2{fill:#a6a6a6;}.cls-3{fill:#939393;}.cls-4{stroke:#fff;stroke-miterlimit:10;}.cls-5{fill:#bb9167;}.cls-6{fill:#8867c8;}.cls-7{fill:#505050;}.cls-8{clip-path:url(#clip-path);}.cls-9{clip-path:url(#clip-path-2);}.cls-10{fill:#9b7553;}.cls-11{fill:#724aad;}.cls-12{fill:#d2d2d2;}.cls-13{fill:#a996f0;}.cls-14{fill:#58595b;}.cls-15{fill:#deb98c;}.cls-16,.cls-26{fill:#8e562e;}.cls-17{fill:#737373;}.cls-18{fill:#c1966e;}.cls-19{fill:#00abeb;}.cls-20{fill:#0089de;}.cls-21{fill:#deb695;}.cls-21,.cls-26,.cls-27,.cls-28,.cls-29{fill-rule:evenodd;}.cls-22{fill:#522882;}.cls-23{fill:#7b6fc1;}.cls-24{fill:#9080cf;}.cls-25{fill:#ffb900;}.cls-27{fill:#512c20;}.cls-29{fill:#8a0000;}.cls-30{fill:#e29e05;}.cls-31{fill:#d0b28d;}.cls-32{fill:#a38c6d;}.cls-33{fill:#b89e7c;}.cls-34{fill:#fff;}.cls-35{fill:#464646;}.cls-36{fill:#90c10c;}.cls-37{fill:#bad80a;}.cls-38{fill:#f3f3f3;}.cls-39{fill:#333;}.cls-40{fill:#008770;}.cls-41{fill:#40c5af;}</style><clipPath id="clip-path"><polygon class="cls-1" points="432.92 40.73 440.8 42.86 443.45 34.13 435.57 32 432.92 40.73"/></clipPath><clipPath id="clip-path-2"><rect class="cls-1" x="227.23" y="11.63" width="269.83" height="131.73"/></clipPath></defs><title>swimlane-async-await-runners</title><rect class="cls-2" x="118" y="115" width="396" height="159"/><path class="cls-3" d="M353.76,200.83H278.5a4.5,4.5,0,0,1-4.4-4.38,4.4,4.4,0,0,1,4.4-4.38h75.26a4.31,4.31,0,0,1,4.4,4.38,4.4,4.4,0,0,1-4.4,4.38Z"/><path class="cls-3" d="M404.26,169.83H329a4.5,4.5,0,0,1-4.4-4.38,4.4,4.4,0,0,1,4.4-4.38h75.26a4.31,4.31,0,0,1,4.4,4.38,4.4,4.4,0,0,1-4.4,4.38Z"/><path class="cls-3" d="M474.26,136.83H399a4.5,4.5,0,0,1-4.4-4.38,4.4,4.4,0,0,1,4.4-4.38h75.26a4.31,4.31,0,0,1,4.4,4.38,4.4,4.4,0,0,1-4.4,4.38Z"/><path class="cls-3" d="M244.76,264.83H169.5a4.5,4.5,0,0,1-4.4-4.38,4.4,4.4,0,0,1,4.4-4.38h75.26a4.31,4.31,0,0,1,4.4,4.38,4.4,4.4,0,0,1-4.4,4.38Z"/><path class="cls-3" d="M298.76,232.83H223.5a4.5,4.5,0,0,1-4.4-4.38,4.4,4.4,0,0,1,4.4-4.38h75.26a4.31,4.31,0,0,1,4.4,4.38,4.4,4.4,0,0,1-4.4,4.38Z"/><line class="cls-4" x1="118" y1="145" x2="514" y2="145"/><line class="cls-4" x1="118" y1="178" x2="514" y2="178"/><line class="cls-4" x1="118" y1="211" x2="514" y2="211"/><line class="cls-4" x1="118" y1="244" x2="514" y2="244"/><path class="cls-5" d="M449.12,64.68a3.42,3.42,0,0,0,3.09-.13,3.47,3.47,0,0,0,1.58-4.29l-9.2-19a3.25,3.25,0,0,0-4.46-1.36,3,3,0,0,0-1.59,4.29Z"/><path class="cls-6" d="M443.48,56.63l7-3.23-5.88-12.15a3.25,3.25,0,0,0-4.46-1.36c-1.86.75-3.59,3.17-2.68,4.8Z"/><path class="cls-5" d="M472.68,56.77c-.19-1.78-.68-2.56-1.18-2.4s-1.13.3-1.13.3a1,1,0,0,0,.15-1c-.15-.33-.35-.34-.35-.34s-1.12.21-2.49.54a2.75,2.75,0,0,0-2.07,1.77c-.41.93-.88,1-.88,1l-13.65,2.71c-1.81.77-3.06,2.79-2.29,4.59a3.29,3.29,0,0,0,4,2.25l11.67-4.39,1.6-.38a28.19,28.19,0,0,0,5.36-1.51c1.66-.66,1.42-1.34,1.23-3.13"/><path class="cls-7" d="M445.86,12.75c5.46,1.65,7.79,6.61,6.06,12.33l-2.69,8.86c-1,3.27-.39,5-.39,5s-9.58.11-12.91-3.61a18.94,18.94,0,0,1-4.12-8.57l2.53-6.51c1.73-5.72,6.05-9.11,11.52-7.46"/><polygon class="cls-5" points="443.45 34.13 435.65 31.8 433 40.53 440.8 42.86 443.45 34.13"/><g class="cls-8"><g class="cls-9"><polygon class="cls-10" points="435.23 45.55 420.24 41.03 425.35 24.2 440.34 28.72 435.23 45.55"/></g></g><path class="cls-5" d="M440.2,36c2.83.86,6.08,1.68,6.64.32C448.62,32,452,19.51,452,19.51s-14-5.88-16.92,1.69c-2.19,5.74-1.83,8.46-.4,10.53A9.68,9.68,0,0,0,440.2,36"/><path class="cls-7" d="M447,12.47c7.68,2.88,6.46,11.18,6.46,11.18l-8.77-.93-3.15,5.75.08-4-1.45,3.48s-2.26,6.81.31,9.64c0,0-3.76-.32-5.75-1.93-1.6-1.3-4.89-5.4-3.69-12.18,1.29-7.26,7.2-14.26,16-11"/><path class="cls-5" d="M441.66,24.52c.12-.4-.38-.81-.79-.94-.9-.27-1.93.66-2.36,2.06s-.1,2.73.8,3c.41.12,1.08.06,1.2-.33Z"/><path class="cls-5" d="M449.72,25.67l.8,4.47s0,.55-.72.55h-2.4Z"/><path class="cls-5" d="M456.88,104.05a4.91,4.91,0,0,0,1.18-6.61l-7.87-10.09-9.5,6.79,10.39,10.94c1.51,2,3.57.63,5.8-1"/><path class="cls-11" d="M435.09,70.86l-3.57.28c-2.63,2-7.12,8.91-5.14,11.54l14,14.76,11.48-8.66Z"/><polygon class="cls-5" points="458.74 99.23 461.71 129.75 456.58 131.09 449.78 102.54 458.74 99.23"/><path class="cls-12" d="M460.55,117.63s.71,7.06,1.25,11.81c.16,1.38-4.9,3.14-4.9,3.14l-3.12-13.27Z"/><path class="cls-5" d="M411.1,106.36a5.47,5.47,0,0,0,7.6-.77l8.72-11.78-8.89-7.25-8.66,12.65a5.23,5.23,0,0,0,1.23,7.15"/><path class="cls-11" d="M427.18,98.56l13.51-20.85.53-4.14-7.44-7.94c-3.25,1.59-3.46,3.91-9.17,7.25s-11.15,18.05-11.15,18.05Z"/><path class="cls-5" d="M409.07,47c-1.66.86-3.23,3.28-2.36,5.21.86,1.65,1.87,2.52,3.53,1.93l23.21-11.05A3.33,3.33,0,0,0,435,38.66c-.58-1.65-2.94-1.7-4.6-1.11Z"/><path class="cls-5" d="M413.46,50.69c-.13.06-.94-1.95-2.65-2.87-1.47-.79-3.24-.71-4.17,1L399.48,64.4c-.92,1.7-2.14,4.84-.67,5.63,1.72.92,1.8,1.8,3.76-1.67Z"/><polygon class="cls-5" points="414.08 107.49 383.68 100.55 385.71 95.47 412.9 97.72 414.08 107.49"/><polygon class="cls-12" points="393.95 102.9 383.37 100.59 385.19 95.46 395.22 96.24 393.95 102.9"/><path class="cls-13" d="M438.23,40.38,434,37.21c0,1.45-.51,4.08-4.45,4.27l-5.56,32,17.25.11,3.43-20.27a18.64,18.64,0,0,0-2.89-13.38c-.61.95-1.33,1.33-3.53.46"/><path class="cls-6" d="M419.55,50.69l14.37-6.32h0l.11,0A4,4,0,1,0,430.78,37a4.14,4.14,0,0,0-.62.35l-13.85,6.06Z"/><path class="cls-14" d="M472.2,125.87a29,29,0,0,1-7.71-1.59c-2.41-1.16-4.68.92-4.16,2.26a2,2,0,0,0,.28.49,5,5,0,0,1-4.7,1.67l.85,5.14L476,128.6s.69-2.48-3.76-2.73"/><path class="cls-14" d="M374.66,107.9a28.84,28.84,0,0,1,7.22-3.13c2.64-.43,3.29-3.44,2.09-4.23a1.73,1.73,0,0,0-.5-.24,15.84,15.84,0,0,1,3.42-4.65l.09-.1-5.6-1.38L370,107.83s.86,2.42,4.65.07"/><path class="cls-5" d="M393.67,68.25c-1.59.73-2.21,1-2.54,2s-1.36,4.15.28,4.75a6.82,6.82,0,0,0,2-.28,5.1,5.1,0,0,1,2-.08,2.49,2.49,0,0,0,1.72-.27s.66,0,1.07,0a2.71,2.71,0,0,0,1.36-2.07c-.15-.6-6-4-6-4"/><path class="cls-5" d="M402.82,68.53a13.7,13.7,0,0,1-4.55,4.91,32.06,32.06,0,0,0-3.36,2.78,1.31,1.31,0,0,1-.48-2A24.79,24.79,0,0,0,396.6,71l-3.31.39S391,69.88,392,69.12s8.08-3.62,8.08-3.62,4,.71,2.71,3"/><path class="cls-15" d="M397,50.27s2.59,7,2.82,7.48-.54,1-1.3.92-3-.47-3-.47Z"/><path class="cls-3" d="M376.26,155.5l.1,2.05s5,1.76,6.27,1.27,1.29-2.38,1.29-2.38Z"/><path class="cls-16" d="M376.28,156.71A30.19,30.19,0,0,0,380.9,158c2,.35,3.13-1.79,3.13-1.79l1.78.12a13,13,0,0,0,5.54,4.47c1.45.68,3.1,1.35,3.13,2.22a5.24,5.24,0,0,1-.32,1.81s-15.75-1.51-16.64-1.57-1.26-.35-1.29-1.21S376.28,156.71,376.28,156.71Z"/><path class="cls-7" d="M382.76,101.55,397,126a10.87,10.87,0,0,1,.85,10c-2.07,4.89-11.47,20.87-11.47,20.87l-10.72-.19s6.68-12.79,9.78-19.37,2.26-7.89.66-9.58-13.91-17.3-13.91-17.3l8.64-10.15Z"/><path class="cls-3" d="M349.61,126.8l-2-.43s-3,4.37-2.82,5.75,2,1.85,2,1.85Z"/><path class="cls-17" d="M381.35,100.14s.56,24.62.37,27.82-2.63,6.2-9.77,7.33c-5.95.94-25.19-1.32-25.19-1.32l2.44-7.51s11.09,1.12,19.74,0c1.68-.22,2.82-2.45,1.69-7s-5.26-15.6-3.38-20.87S381.35,100.14,381.35,100.14Z"/><path class="cls-16" d="M348.44,126.51a30.13,30.13,0,0,0-2.45,4.14c-.84,1.85.94,3.48.94,3.48l-.56,1.69a13.08,13.08,0,0,0-5.73,4.23c-1,1.23-2.09,2.65-2.94,2.47a5.36,5.36,0,0,1-1.67-.78s5.45-14.85,5.73-15.7.66-1.12,1.51-.94S348.44,126.51,348.44,126.51Z"/><path class="cls-15" d="M420.1,87.35c0-.52-.66-.75-.66-.75a1,1,0,0,0,.3-.91c-.23-.85-2.93,0-2.93,0s.68-.51.61-.87a1,1,0,0,0-.35-.56,9.42,9.42,0,0,1-1,.16,15.54,15.54,0,0,0-3.22.69,32.08,32.08,0,0,0-2.7,2.63c-2.39.6-11.38,2.85-12.76,3.15a1.13,1.13,0,0,1-1.46-.76c-.14-.47-2.16-6.43-2.16-6.43l-7.14,1.64A75.21,75.21,0,0,0,389,93.13c1.36,3.62,3.19,5.46,6.67,4.61,1.88-.46,14.7-4.54,16.09-5,1-.08,2.42-.21,3-.27a7.36,7.36,0,0,0,4.18-1.84.7.7,0,0,0-.12-.89s.87-.45.87-.89a.94.94,0,0,0-.37-.61S420.1,87.92,420.1,87.35Z"/><path class="cls-15" d="M372.84,77.48l-10.57,5.15s-9.66,18.05-9.66,17.84-4.11-1.44-3.41-3.9,5.52-15.11,6.51-16.69c1.9-3,13.18-8.53,13.18-8.53Z"/><path class="cls-15" d="M354.58,96s0,.11.06.29a22.32,22.32,0,0,1,.58,3.87,20,20,0,0,1-1.62,3.25,8.53,8.53,0,0,0-.78,1.62s-1-.14-1-.71a31,31,0,0,1,.64-3.17s-2.82,1.48-3.17,1.76A11.16,11.16,0,0,0,348,106c-.14.64-1.41.5-1.41.5l-.21-1s-.78.85-1,.35a3.66,3.66,0,0,1,.07-1.62s-1.06,0-1-.56A18.12,18.12,0,0,1,346,99.27c.92-1.91,5.92-7.33,5.92-7.33Z"/><polygon class="cls-15" points="381.57 66.23 388.78 67.28 389.68 59.84 382.23 58.87 381.57 66.23"/><path class="cls-18" d="M389.34,62.85l-7.06-4.5a11.68,11.68,0,0,0,2.16,4A16.73,16.73,0,0,0,389,65.32Z"/><path class="cls-15" d="M399.47,44.47s-1.08,6.91-1.87,10.62a66.23,66.23,0,0,1-2.24,8.58c-.57,1.6-1.63,1.81-4.09.88s-11.11-5.22-11.38-10.17c-.24-4.66,3.22-13.34,9.32-14s10.26,4.08,10.26,4.08"/><path class="cls-16" d="M400.33,43.12c0,4-5,5-8.93,3.73s-4.16,4.51-4.16,4.51l-2.38,0-.38,1.91a11.6,11.6,0,0,1-.33,3,11.5,11.5,0,0,1-1.8,2.73s-4.69-3.55-3.75-13.11c.56-5.65,6.76-7.4,12.86-6.21s8.87,3.49,8.87,3.49"/><path class="cls-15" d="M385.7,47.58l-.15,0a3.22,3.22,0,0,0-3.49,2.89,3.18,3.18,0,0,0,3.07,3.29h.15Z"/><path class="cls-19" d="M391.73,71.56a8.2,8.2,0,0,0-2.92-4.65s-3.67.07-5.08-.63a5,5,0,0,1-2-1.77s-8.88,3.67-15.08,7l4.46,8.23,3.61-1.66A54.23,54.23,0,0,1,370,88.76C368,92.07,362.6,97,362.6,97a27,27,0,0,0,13.06,6,28.75,28.75,0,0,0,7.76-.28l3.38-16.07,7.61-2.26S392.44,74.66,391.73,71.56Z"/><path class="cls-20" d="M394.77,85s-1.88-8.75-2.89-13-9.16-2.57-8.22,2.33c1,5.14,3.1,12.83,3.1,12.83Z"/><path class="cls-20" d="M374.71,78.13c1.55-5.25,1.69-10.84,5.58-13-2.76,1.17-9,3.89-13.65,6.44l4.46,8.23Z"/><path class="cls-16" d="M323.12,93.22,311.2,103.54c-1.31,1.13-2.12,3.44-2.47,4.73-.77,2.86-4.52,15.3-4.52,15.3l4.46.54s6.23-15.75,6.53-16.43S326.8,99,326.8,99l-4-5.8"/><path class="cls-16" d="M309.36,119.74s.88,4.45.52,5.68-2.25,4.86-2.37,5.25-.79,0-.88-.41a17.83,17.83,0,0,1,.21-2.3,3.26,3.26,0,0,0-1.38,1.33,16.6,16.6,0,0,0-1.21,3.05c-.33,1.12-1.71.74-1.39-.89a.59.59,0,0,1-1.09-.38c.06-.62.09-1.36.09-1.36s-1.47.43-1-.84a15.87,15.87,0,0,1,4.08-6.81C308.66,118.19,309.36,119.74,309.36,119.74Z"/><path class="cls-21" d="M332.47,82.51c-.22,1.36-.82,2.48-1.17,3.95s5.28,4.46,5.62,3.91c1.24-2.05,2-3.49,2-3.49Z"/><path class="cls-12" d="M331.6,180.24s-3.2,3.3-3.78,4-1.55,1.45,1.45,3.26c3.42,2.06,13.42,7.86,13.42,7.86s2.11-1.37.33-3-5.83-6.39-5.35-8.56S331.6,180.24,331.6,180.24Z"/><path class="cls-22" d="M330.42,124.33s17.2,24.53,18.55,26.85c1.7,2.92,2.14,4.86.44,9s-11.88,23.9-11.88,23.9l-6.4-3.41s8.51-23.09,8.71-23.91-5.08-7.08-9.4-11.22c-5.15-4.94-10.87-10.21-12.34-15.43s2.16-10.65,2.16-10.65Z"/><path class="cls-12" d="M286.34,181s-3.85,2.49-4.58,3.06-1.84,1.07.67,3.5c2.88,2.79,11.32,10.69,11.32,10.69s2.35-.86,1-2.88-4.24-7.55-3.29-9.54S286.34,181,286.34,181Z"/><path class="cls-22" d="M329.91,124.17s-6,28.52-12,37.61c-2.78,4.2-26.33,24.83-26.33,24.83l-6.43-5.2s20-20.84,21.74-24.36,6.19-16.89,5.28-25.43,3-11.83,4.78-13.55S329.91,124.17,329.91,124.17Z"/><path class="cls-23" d="M330.44,145.56c4.32,4.14,9.59,10.39,9.4,11.22,0,.13-.31.92-.73,2.1l10.05,1.9c.09-.22.18-.42.25-.58,1.7-4.16,1.26-6.1-.44-9-1.35-2.32-18.55-26.85-18.55-26.85l-10.16-4.85s-3.62,5.43-2.16,10.65S325.29,140.62,330.44,145.56Z"/><path class="cls-24" d="M305.32,159.24l8.56,6.93a36.56,36.56,0,0,0,4-4.39c6-9.09,12-37.61,12-37.61s-11.22-7.81-13-6.1-5.69,5-4.78,13.55-3.54,21.92-5.28,25.43A14.9,14.9,0,0,1,305.32,159.24Z"/><path class="cls-25" d="M331.54,125.82a51.94,51.94,0,0,1-11.24-1.59c-3.67-1-8-4.21-8-4.21s9.3-6.21,10.46-15.39,2.41-13,4.55-15.36,3.54-3.31,4.15-3,5.95,3.44,5.95,3.44,2.39,9.54,2.55,12.09-3.73,7.43-5.48,10S331.54,125.82,331.54,125.82Z"/><polygon class="cls-25" points="330.52 86.78 320.74 94 324.89 100.53 330.52 86.78"/><path class="cls-26" d="M348.8,72.17c-.56-12.18-13.86-13.72-19.17-6.41s-1.56,14,2.82,17.77C335.92,87,341,87.3,343.2,87.77c2.83.51,3-.76,3-.76.49-1.56,1.34-6.3,2.41-7.18,2.9-.13,2-1.09,1.77-1.48a30.8,30.8,0,0,1-2-5.25c.35-.29.07-.63.42-.93Z"/><path class="cls-27" d="M337.53,79.57s-.48,4-3.27,3.93h0a12.83,12.83,0,0,1-7.17-6.61c-.3-.36-.86-.14-1.24-.17-3.83-.32-6.6-5.29-6.12-9.29a6.36,6.36,0,0,1,8-5.49c.61.09.91.44,1.53.53a14.15,14.15,0,0,1,3.51-2.34,9.07,9.07,0,0,1,5.32-.84,13.5,13.5,0,0,1,8.51,4.29c2.47.34,4.54,2.82,4.72,5.66a5.73,5.73,0,0,1-2,4.11h0a8.54,8.54,0,0,1-4.91-1.3l-2.07-2.48h0L342,76.42c-.35.89-1.24-.17-1.24-.17a13.22,13.22,0,0,0-2.39-2.2c-.29-.36-1-.54-1.23-.17C336,76.06,337.53,79.57,337.53,79.57Z"/><path class="cls-28" d="M346.14,75.92a.71.71,0,0,1-1.41-.14.71.71,0,1,1,1.41.14Z"/><path class="cls-29" d="M347.05,83.62c.06-.24.13-.48.2-.72a3.94,3.94,0,0,0-.51-.14,5,5,0,0,0-2.05-.69,6.08,6.08,0,0,0,1.56,1.14C346.55,83.38,346.81,83.51,347.05,83.62Z"/><path class="cls-16" d="M336.62,98.73s1.92,12.73,2.06,13.21c.23.81,15.33,7.92,15.33,7.92a20.3,20.3,0,0,1,4.88-1.23,8.49,8.49,0,0,1,4.12,1.53c1.09.7-.16,1.57-.16,1.57s.47,1,.26,1.51-1.6.73-1.6.73.73.55-.13,1.25-2.15.89-4.5.64a15.58,15.58,0,0,1-4.9-1.62s-14.49-5.46-16.46-6.3-3.22-1.49-4.07-5.54-1.6-12.05-1.6-12.05Z"/><path class="cls-30" d="M337.35,101.82l-9.3,1.09s-.46-4.15-.58-8.13c-.18-5.88,8.55-6.09,9-1.6S337.35,101.82,337.35,101.82Z"/><path class="cls-7" d="M235.15,217.69s-2.06,3.6-2.76,5.05c-1,2-1,4.28,2,4.88,2.83.55,13.91,3.15,15,3.35s2.53-1.78-1.19-3.58c-6.7-3.22-7.72-7.23-8.25-9S235.15,217.69,235.15,217.69Z"/><path class="cls-5" d="M258.13,129s-6.63,7.79-7.76,9.13a6.19,6.19,0,0,0-1.43,6c.72,2.88,5.11,13.85,5.11,13.85l9.08-26.65Z"/><path class="cls-31" d="M268.31,123.75l10.78,1.92a.15.15,0,0,0,.18-.12L281.79,113a.14.14,0,0,0-.12-.16l-10.79-1.92a.13.13,0,0,0-.17.11l-2.52,12.58A.14.14,0,0,0,268.31,123.75Z"/><path class="cls-32" d="M273.88,124.74l5.21.93a.16.16,0,0,0,.18-.12L281.79,113a.14.14,0,0,0-.12-.16l-5.21-.93a.16.16,0,0,0-.18.11l-2.52,12.58A.15.15,0,0,0,273.88,124.74Z"/><path class="cls-5" d="M285.52,115.78v-5.45a.48.48,0,0,1,.56-.49l1.16.06a.55.55,0,0,0,.53-.64l-1-3.79a2.19,2.19,0,0,1-.11-1v-5a.14.14,0,0,0-.12-.14l-15.74-3.09a.15.15,0,0,0-.18.1l-.52,1.91a.15.15,0,0,1-.18.11l-3-.67a.14.14,0,0,0-.18.1c-.51,1.61-4.95,17.6,17.57,19.1A1.14,1.14,0,0,0,285.52,115.78Z"/><path class="cls-33" d="M280.92,100.54a7.66,7.66,0,0,1,1.92-.25,20,20,0,0,0,2.21-.05c.23,0,1.84-.26,1.64-.81l-.06-.09L280.35,98h0c-1.23-.07-2.36.17-2.7,1.5-.18.49-.73,4.43.41,3.76.26-.1.31-.39.45-.66a4,4,0,0,1,1.07-1.43A3.74,3.74,0,0,1,280.92,100.54Z"/><path d="M283.56,104.9a.58.58,0,0,1-.62.46.72.72,0,0,1-.71-.51c-.14-.5.41-.85.87-.77A.71.71,0,0,1,283.56,104.9Z"/><path d="M269.62,96.3a.16.16,0,0,0,.2-.14c0-.58.32-2.38,3-3.25,2.92-.94,7.7-1,12.18,0,1.78.43,2.11-.59,2.16-1.14a.15.15,0,0,1,.26-.08,5.72,5.72,0,0,1,1.54,5.6c-.91,3.37-4.48,2.51-6.11,2.08l-2.23-.55a1.43,1.43,0,0,0-1.75,1.31l0,5.09a.14.14,0,0,1-.14.14l-1.29.11a.45.45,0,0,1-.54-.4c-.21-.92-.79-3.08-2.71-2.84a2.09,2.09,0,0,0-1.5,3.2c.5,1,1.4,1.57,1.25,2.72a3.87,3.87,0,0,1-4,3.84.25.25,0,0,1-.12,0c-6.2-5.75-3.08-14.35-3.08-14.35A2.34,2.34,0,0,1,269.62,96.3Z"/><path class="cls-32" d="M284.75,111.83l-3.65-.12a.14.14,0,0,0-.14.22l.82,1.12a1,1,0,0,0,.84.44l2,0a.14.14,0,0,0,.15-.13l.08-1.4A.14.14,0,0,0,284.75,111.83Z"/><path class="cls-34" d="M284.75,111.83l-3.67-.12a.15.15,0,0,0-.14.22l.47.7a.14.14,0,0,0,.12.07l3.2,0a.15.15,0,0,0,.15-.14l0-.6A.15.15,0,0,0,284.75,111.83Z"/><path class="cls-7" d="M272.32,206.3a33.2,33.2,0,0,0-2.56,3.84c-.71,1.45-2.55,3.47-.1,4.91s12.45,6.64,13.47,7.12,2.76-.87-.1-3.75-5.3-8.95-5.3-10.78S272.32,206.3,272.32,206.3Z"/><path class="cls-5" d="M280.68,168.78s8.58,6.93,10.52,8.47,5.3,5.77,2.34,10.67-15,22.71-15,22.71l-6.43-4s10.21-20.11,10.72-21.55-12.05-10.1-12.05-10.1Z"/><path class="cls-5" d="M264.25,176.48s-3.88,15-4.49,17.12a17.5,17.5,0,0,1-3.47,7.21c-4.39,5.87-15,20.78-15,20.78l-6.23-3.65s7.8-16.95,10.52-20.88a69.36,69.36,0,0,1,4.89-6.64l2.15-20.1Z"/><path class="cls-35" d="M269.15,157.72l13.78,11.83s-3.27,3.46-4.39,4.33-5.61,3.75-5.61,3.75-16.64-10.48-18.07-12.31,0-14.14,0-14.14Z"/><path class="cls-7" d="M268.85,154.83s-.41,6.26-1,10.78a100.05,100.05,0,0,1-3.27,14.14,46.58,46.58,0,0,1-14.9-2.5c.92-5.58.3-12.89,1.12-17.7.6-3.53,3-9.91,4.49-11.64S268.85,154.83,268.85,154.83Z"/><path class="cls-36" d="M267,119.63c-2.86,2.11-10.51,9.23-10.51,9.23s6.12,5.1,5.81,5.48S267,119.63,267,119.63Z"/><path class="cls-37" d="M275,145.48l-5.2,13a25.87,25.87,0,0,1-10.39-1.22,34.45,34.45,0,0,1-8-3.67l8.44-21.44s4.23-10.1,7-12.39,9.45.23,11.53,2.44c2.6,2.76,2.11,6.28,1,10.72S275,145.48,275,145.48Z"/><path class="cls-5" d="M275.32,133.85s1.3,10.26,1.3,11.17,15.27,5.36,15.76,5.21,2.6-1.84,3.9-1.84a45.42,45.42,0,0,1,5.68,1.07v1.07a2.64,2.64,0,0,1,.65,2.76c-.49,1.84-.49,4.75-4.87,4.59a10.9,10.9,0,0,1-6.64-2.18s-14.85-2.82-17.4-3.48c-3.63-.95-4.34-1.81-5.06-5.28-1-4.76-1.76-11.71-1.76-11.71Z"/><path class="cls-36" d="M265.74,138.29l11.05-1.07s-.65-8.58-1-11.94-10.88-2.91-10.56,2.14S265.74,138.29,265.74,138.29Z"/><path class="cls-38" d="M274.69,201.5l-2.58,5.09,6.43,4,3.71-5.5Z"/><path class="cls-38" d="M238,211.71c-1.68,3.51-2.93,6.23-2.93,6.23l6.23,3.65,4.13-5.79C242.91,214.41,239.66,212.6,238,211.71Z"/><path class="cls-15" d="M208,175.65l-22.69-3.92,0,0a4.78,4.78,0,0,0-3.31.79l-15.15,10.28a2.64,2.64,0,0,0-.58.45,22.91,22.91,0,0,1-4.52,2.2c-.81.29-1.29.93-2.72,3.43s-.29,3.11-.29,3.11.44,1.56,1.3,1.4,1.29,1.09,2.29.47.91,1.12,3.06-1.22a20.51,20.51,0,0,0,3.66-4.87l.5-.28,16-8.92,20.8,4.14a4,4,0,0,0,4.13-3.22,3,3,0,0,0-2.48-3.86"/><path class="cls-15" d="M261.66,206.43c-.14-.27-.71-.46-.71-.46l.63-.35a1.34,1.34,0,0,0-1.71-1c-.93.16-3.57.91-3.57.91l-3.17-2-.18-.13s1.36-.33,3.74-.87c1.4-.31.93-1.81.93-1.81a27.91,27.91,0,0,1-4-.13c-2-.22-3.43-.52-5.58.25l-14.49-1.14-11-17.58a3.25,3.25,0,0,0-4.59-.86c-1.76.94-2.92,3-1.84,4.53l12,18c1.1,1.7,2.4,2.77,4,2.85l16-.41a3.1,3.1,0,0,0,.44,0c1.89.82,7.32,3.3,8,3.15s5.2-2.19,5.2-2.19,0-.49-.11-.74"/><path class="cls-15" d="M227.29,228a5.24,5.24,0,0,0-1.2-7.08l-23.73-14.93-5.94,9.14L220.16,230c2.16,1.4,5.44.55,7.13-2.06"/><path class="cls-39" d="M193.29,173.09l-1.58,7.32L205,183.07c1.85.26,6.12-.25,6.38-2.09.53-1.93.75-4.86-1.1-5.12Z"/><path class="cls-39" d="M222.43,197.9l7.26-4.38-7.2-11.42a3.47,3.47,0,0,0-4.89-.68c-1.94,1.05-3.61,3.78-2.52,5.29Z"/><path class="cls-40" d="M196.13,202.63l-2.67,4.61c-1.58,2.71-2.2,8.39.28,9.82l15.34,8.87,6.85-11.85Z"/><polygon class="cls-15" points="228.26 225.85 225.33 257.1 217.98 257.08 218.09 224.53 228.26 225.85"/><path class="cls-12" d="M226.27,247.08l-.64,7.16c-.72,8.1-7.65,4.19-7.65,4.19l0-11.34Z"/><path class="cls-15" d="M173.08,233.15c2,2.58,5.4,3,7.56,1.21L192,224.54l-6.71-8.9-12.42,10.57c-2.16,2.13-1.53,4.64.22,6.94"/><path class="cls-40" d="M194.44,225.89l11.33-23.21-12.48-8.91c-2.44,1.84-5.6,4.42-6.43,7.48l-6.71,18.45Z"/><polygon class="cls-15" points="213.34 175.09 221.4 177.41 223.59 169.08 215.24 166.8 213.34 175.09"/><polygon class="cls-18" points="223.13 170.75 214.83 169.56 222.35 173.81 223.13 170.75"/><polygon class="cls-15" points="177.56 235.44 147.97 234.51 147.74 227.51 173.87 225.96 177.56 235.44"/><polygon class="cls-12" points="158.93 234.89 147.44 234.43 147.22 227.58 157.26 226.93 158.93 234.89"/><path class="cls-14" d="M229.17,254.86l-3.67.42c-3.16,2-5,2.55-7.51.82,0,0-4.27,7.92,1.5,6.71l18.83-3.95c.28-4.14-4.89-4.61-9.15-4"/><path class="cls-15" d="M232.39,165.05a.89.89,0,0,0,.56-.75,7.4,7.4,0,0,1-1.43-2.3,1,1,0,0,1-.09-.21c0-.07-.05-.12-.07-.19a32.17,32.17,0,0,1-1.28-5.73l.07,0c-.34-1.72-.62-3.19-.62-3.19l-9.05-1.23c-5.42-.42-7.93,1.65-8.62,7.06s.83,11.83,6.25,12.51c0,0,9.45,1.38,10.85.34s1.62-6,1.62-6a7.09,7.09,0,0,0,1.81-.32"/><rect class="cls-41" x="208.95" y="153" width="22.01" height="4.59" transform="translate(-9.23 13.97) rotate(-3.56)"/><path class="cls-16" d="M229.69,151.12c-.23-3.57-.22-7.09-7.33-7.88s-16.51,7.21-23.06,4.27c0,0,4.67,6.49,9.78,6.17l20.69-1.29Z"/><path class="cls-16" d="M223.92,157.35l-14.81.92.14,2.29a6.53,6.53,0,0,1-6,7l5.19-.32a6.31,6.31,0,0,1-5,3.12l12.77-.79c8.43-.53,7.69-12.24,7.69-12.24Z"/><rect class="cls-34" x="208.95" y="154.79" width="22.01" height="1.02" transform="translate(-9.23 13.97) rotate(-3.56)"/><path class="cls-18" d="M221.71,158.77l-.68,5.66a2.85,2.85,0,1,1,.68-5.66"/><path class="cls-14" d="M152.75,237.87l-1.2-3.38c-2.6-2.55-3.51-4.2-2.4-6.92,0,0-8.46-2.31-6.06,2.88s7.84,16.92,7.84,16.92c4-.63,3.32-5.61,1.82-9.5"/><path class="cls-39" d="M223,175l-.76-.84c-.77,1.24-4.78,1.46-7.43-1.85a2.94,2.94,0,0,1-.59-1.22,7.31,7.31,0,0,0-4,2.28l-20.84,23.54L204.08,206l14.66-15.35C223,185.86,227,180.14,223,175"/></svg>