<svg xmlns="http://www.w3.org/2000/svg" viewBox="0 0 636 300"><title>swimlane-machine-learning-books-lab</title><path d="M41.853,271.634a4.079,4.079,0,0,1-3.99-3.967,3.99,3.99,0,0,1,3.99-3.968c70.306,0,552.234-2,552.234-2a4,4,0,0,1,.148,8Z" fill="#b2b2b2"/><path d="M471.681,109.27c-14.21,8.2-23.775,24.328-9.838,52.483s29.208,57.151,35.525,67.793c10.385,17.494,40.212,19.116,50.828,0,8.2-14.761-4.371-35.81-4.371-35.81s-7.515-2.186-5.33,3.691c2.895,7.779.326,14.6-7.788,17.905-7.378,3.006-16.806-2.324-21.861-12.028-4.012-7.7-11.342-22.006-14.894-30.48s-1.366-15.307,4.919-19.135,24.185-13.53,24.185-13.53l-23.5-39.09Z" fill="#939393"/><rect x="480.787" y="36.997" width="16.744" height="47.248" transform="translate(30.214 240.401) rotate(-28.456)" fill="#106ebe"/><rect x="493.914" y="58.315" width="32.889" height="89.115" transform="translate(12.646 255.618) rotate(-28.457)" fill="#d2d2d2"/><rect x="494.911" y="62.247" width="16.396" height="89.115" transform="translate(9.897 252.639) rotate(-28.457)" fill="#b2b2b2"/><rect x="465.653" y="33.345" width="23.62" height="10.765" transform="translate(39.249 232.221) rotate(-28.461)" fill="#b2b2b2"/><rect x="527.603" y="148.121" width="11.146" height="16.746" transform="translate(-10.146 272.977) rotate(-28.458)" fill="#939393"/><rect x="546.527" y="137.859" width="11.146" height="16.746" transform="translate(-2.977 280.723) rotate(-28.455)" fill="#939393"/><path d="M497.641,224.124c1.914-5.057,6.978-9.341,12.844-9.341,7.044,0,13.255,5.514,12.753,12.757L521.794,261.7l-41.5.584Z" fill="#106ebe"/><rect x="522.055" y="179.452" width="79.351" height="6.418" transform="translate(-19.181 289.655) rotate(-28.449)" fill="#505050"/><polygon points="587.866 264.699 448.954 264.699 453.645 259.699 583.175 259.699 587.866 264.699"/><path d="M505.063,227.359a5.423,5.423,0,1,0,5.423-5.423,5.423,5.423,0,0,0-5.423,5.423" fill="#b2b2b2"/><path d="M465.3,113.1a20.869,20.869,0,1,0,20.87-20.876A20.872,20.872,0,0,0,465.3,113.1" fill="#106ebe"/><path d="M475.471,113.1a10.694,10.694,0,1,0,10.693-10.7,10.7,10.7,0,0,0-10.693,10.7" fill="#fff"/><rect x="516.378" y="139.415" width="44.684" height="8.074" transform="translate(-3.251 274.087) rotate(-28.463)" fill="#505050"/><rect x="400.405" y="75.699" width="49" height="189" transform="translate(849.811 340.398) rotate(-180)" fill="#0078d7"/><rect x="400.405" y="97.699" width="49" height="62" transform="translate(849.811 257.398) rotate(-180)" fill="#69afe5"/><rect x="400.405" y="106.699" width="49" height="44" transform="translate(849.811 257.398) rotate(-180)" fill="#004578"/><rect x="369.405" y="90.699" width="31" height="174" transform="translate(769.811 355.398) rotate(-180)" fill="#939393"/><rect x="369.405" y="208.699" width="31" height="5" transform="translate(769.811 422.398) rotate(-180)" fill="#737373"/><rect x="369.405" y="90.699" width="31" height="25" transform="translate(769.811 206.398) rotate(-180)" fill="#c2c2c2"/><circle cx="385.405" cy="231.699" r="10" fill="#c2c2c2"/><rect x="200.905" y="92.199" width="204" height="143" rx="4.017" ry="4.017" transform="translate(466.604 -139.206) rotate(90)" fill="#2e2e2e"/><rect x="211.905" y="104.199" width="181" height="120" transform="translate(466.604 -138.206) rotate(90)" fill="#8fc3ec"/><polygon points="299.958 257.699 299.333 262.699 304.438 262.699 303.812 257.699 299.958 257.699" fill="#a6a8ab"/><polygon points="273.117 73.699 362.405 73.699 362.405 171.22 273.117 73.699" fill="#b3d6f2"/><path d="M298.4,162.2V125c0-1.346-1.224-2.3-2.947-2.3H283.633c-1.715,0-2.948.957-2.948,2.3-.241,30.789-.241,37.2-.241,37.2,0,1.34,1.474,2.5,3.189,2.5h11.825A2.717,2.717,0,0,0,298.4,162.2Z" fill="#fff"/><path d="M280.759,123.459a1.42,1.42,0,0,0-.251.97c-.243,30.991-.243,37.443-.243,37.443.243-30.992.243-37.443.243-37.443A1.42,1.42,0,0,1,280.759,123.459Zm-.494,38.725h0c0,1.349,1.483,2.515,3.21,2.515h0C281.748,164.7,280.265,163.533,280.265,162.184Z" fill="#2b6aa9"/><path d="M285.4,122.7H283.19a3.161,3.161,0,0,0-2.7,1.34,1.407,1.407,0,0,0-.25.963C280,155.791,280,162.2,280,162.2h0c0,1.34,1.474,2.5,3.189,2.5H285.4Z" fill="#0078d7"/><path d="M277.4,162.2V138c0-1.347-1.243-2.3-2.994-2.3H262.4c-1.743,0-3,.957-3,2.3,0,11.125-.245,24.2-.245,24.2,0,1.34,1.5,2.5,3.24,2.5h12.011A2.746,2.746,0,0,0,277.4,162.2Z" fill="#fff"/><path d="M264.4,135.7H262.52s-2.221.086-2.716.859a3.858,3.858,0,0,0-.4.969l1,24.345h0s.388,2.515,2.115,2.827H264.4Z" fill="#0078d7"/><path d="M319.4,162.189v-42.96a2.765,2.765,0,0,0-3.018-2.53h-11.98c-1.75,0-3,1.164-3,2.333v43.157a2.758,2.758,0,0,0,3,2.51h11.98A2.763,2.763,0,0,0,319.4,162.189Z" fill="#fff"/><path d="M301.069,162.184h0a2.743,2.743,0,0,0,2.975,2.515h0A2.743,2.743,0,0,1,301.069,162.184Z" fill="#2b6aa9"/><path d="M306.4,116.7h-2.137a2.678,2.678,0,0,0-2.863,2.53v42.96a2.675,2.675,0,0,0,2.863,2.51H306.4Z" fill="#0078d7"/><path d="M340.306,162.173c.252-47.658.252-54.138.252-54.138,0-1.362-1.5-2.336-3.233-2.336H325.386c-1.735,0-2.981.974-2.981,2.336v54.138a2.753,2.753,0,0,0,2.981,2.526h11.939A2.753,2.753,0,0,0,340.306,162.173Z" fill="#fff"/><path d="M322.375,162.184h0a2.741,2.741,0,0,0,2.968,2.515h0A2.741,2.741,0,0,1,322.375,162.184Z" fill="#2b6aa9"/><path d="M327.4,105.7H325.26c-1.661,0-2.855.974-2.855,2.336v54.138a2.679,2.679,0,0,0,2.855,2.526H327.4Z" fill="#0078d7"/><polygon points="310.173 106.811 291.647 111.693 291.333 110.792 309.93 105.841 332.405 92.413 332.405 93.704 310.173 106.811" fill="#0078d7"/><polygon points="267.228 126.864 266.463 126.154 288.098 111.913 288.863 112.623 267.228 126.864" fill="#0078d7"/><circle cx="267.905" cy="126.199" r="3.5" fill="#fff"/><circle cx="289.905" cy="112.199" r="3.5" fill="#fff"/><circle cx="309.905" cy="106.199" r="3.5" fill="#fff"/><circle cx="331.905" cy="94.199" r="3.5" fill="#fff"/><rect x="259.405" y="180.699" width="81" height="12" fill="#737373"/><rect x="259.405" y="198.699" width="81" height="12" fill="#737373"/><rect x="259.405" y="216.699" width="81" height="12" fill="#737373"/><rect x="288.405" y="180.699" width="30" height="12" fill="#939393"/><rect x="271.405" y="198.699" width="30" height="12" fill="#939393"/><rect x="304.405" y="216.699" width="30" height="12" fill="#939393"/><rect x="47.405" y="123.699" width="205" height="142.999" fill="#ff8c00"/><rect x="150.405" y="131.699" width="92.999" height="126" fill="#fff"/><rect x="57.405" y="131.699" width="93" height="126" fill="#c8c8c8"/><path d="M160.822,157.7H229.6a2,2,0,1,0,0-4H160.822a2,2,0,1,0,0,4Z" fill="#c8c8c8"/><path d="M160.822,168.7H229.6a2,2,0,1,0,0-4H160.822a2,2,0,1,0,0,4Z" fill="#c8c8c8"/><path d="M158.7,178.618a2.106,2.106,0,0,0,2.124,2.081H229.6a1.892,1.892,0,0,0,2.128-2c0-1.508-.541-2-2.128-2H160.822A1.889,1.889,0,0,0,158.7,178.618Z" fill="#c8c8c8"/><path d="M160.822,190.7H229.6c1.587,0,2.128-.508,2.128-2a1.892,1.892,0,0,0-2.128-2H160.827a2.1,2.1,0,0,0-2.126,2.2A1.9,1.9,0,0,0,160.822,190.7Z" fill="#c8c8c8"/><path d="M160.822,201.7H229.6a2,2,0,1,0,0-4H160.822a2,2,0,1,0,0,4Z" fill="#c8c8c8"/><path d="M160.822,213.7H229.6a2,2,0,1,0,0-4H160.822a2,2,0,1,0,0,4Z" fill="#c8c8c8"/><path d="M160.822,224.7H229.6a2,2,0,1,0,0-4H160.822a2,2,0,1,0,0,4Z" fill="#c8c8c8"/><path d="M160.819,235.7h50.1a2.107,2.107,0,0,0,2.125-2.08,1.89,1.89,0,0,0-2.127-1.92h-50.1a1.889,1.889,0,0,0-2.127,1.92A2.106,2.106,0,0,0,160.819,235.7Z" fill="#c8c8c8"/><path d="M69.194,157.7h69.267a2,2,0,1,0,0-4H69.194a2,2,0,1,0,0,4Z" fill="#939393"/><path d="M69.194,168.7h69.267a2,2,0,1,0,0-4H69.194a2,2,0,1,0,0,4Z" fill="#939393"/><path d="M69.192,180.7h69.271a2.105,2.105,0,0,0,2.124-2.08,1.889,1.889,0,0,0-2.126-1.92H69.194a1.9,1.9,0,0,0-2.144,1.9A2.118,2.118,0,0,0,69.192,180.7Z" fill="#939393"/><path d="M69.194,190.7h69.267a1.9,1.9,0,0,0,2.121-1.8,2.1,2.1,0,0,0-2.127-2.2H69.191a2.12,2.12,0,0,0-2.142,2.086A1.914,1.914,0,0,0,69.194,190.7Z" fill="#939393"/><path d="M69.194,201.7h69.267a2,2,0,1,0,0-4H69.194a2,2,0,1,0,0,4Z" fill="#939393"/><path d="M69.194,213.7h69.267a2,2,0,1,0,0-4H69.194a2,2,0,1,0,0,4Z" fill="#939393"/><path d="M69.194,224.7h69.267a2,2,0,1,0,0-4H69.194a2,2,0,1,0,0,4Z" fill="#939393"/><path d="M69.192,235.7h50.1a2.106,2.106,0,0,0,2.124-2.08,1.889,1.889,0,0,0-2.127-1.92h-50.1a1.9,1.9,0,0,0-2.144,1.9A2.118,2.118,0,0,0,69.192,235.7Z" fill="#939393"/><polygon points="182.405 195.67 174.932 192.479 167.405 195.67 167.405 123.699 182.405 123.699 182.405 195.67" fill="#106ebe"/><polygon points="150.405 257.078 104.405 227.967 104.405 103.118 150.405 132.21 150.405 257.078" fill="#fff"/><polygon points="104.405 103.118 104.405 227.967 150.405 257.078 150.405 132.21 137.201 123.765 104.405 103.118" fill="#d1d1d1"/></svg>