<svg xmlns="http://www.w3.org/2000/svg" viewBox="0 0 636 300"><title>swimlane-dotnet-for-spark-rainbow-chart</title><path d="M147.615,142.57v-1.353a2.624,2.624,0,0,0,.558.369,4.579,4.579,0,0,0,.683.277,5.477,5.477,0,0,0,.721.174,4.023,4.023,0,0,0,.67.062,2.615,2.615,0,0,0,1.582-.394,1.473,1.473,0,0,0,.35-1.821,1.968,1.968,0,0,0-.483-.536,4.644,4.644,0,0,0-.728-.465q-.42-.224-.906-.469c-.341-.173-.661-.349-.957-.526a4.213,4.213,0,0,1-.772-.588,2.441,2.441,0,0,1-.516-.728,2.481,2.481,0,0,1,.106-2.119,2.513,2.513,0,0,1,.772-.817,3.524,3.524,0,0,1,1.091-.479,5.02,5.02,0,0,1,1.247-.157,4.778,4.778,0,0,1,2.113.349v1.292a3.826,3.826,0,0,0-2.229-.6,3.693,3.693,0,0,0-.752.078,2.149,2.149,0,0,0-.67.257,1.485,1.485,0,0,0-.478.458,1.218,1.218,0,0,0-.185.684,1.412,1.412,0,0,0,.14.649,1.566,1.566,0,0,0,.414.5,4.177,4.177,0,0,0,.666.438q.393.211.906.464t1,.547a4.589,4.589,0,0,1,.827.636,2.8,2.8,0,0,1,.564.772,2.176,2.176,0,0,1,.209.971,2.458,2.458,0,0,1-.284,1.227,2.332,2.332,0,0,1-.765.817,3.345,3.345,0,0,1-1.111.454,6.053,6.053,0,0,1-1.327.141,5.677,5.677,0,0,1-.574-.037c-.227-.026-.46-.063-.7-.11a5.916,5.916,0,0,1-.674-.177A2.152,2.152,0,0,1,147.615,142.57Z"/><path d="M156.509,141.955h-.028v4.232H155.36v-10.22h1.121v1.23h.028a2.652,2.652,0,0,1,2.42-1.394,2.565,2.565,0,0,1,2.112.939,3.9,3.9,0,0,1,.759,2.52,4.332,4.332,0,0,1-.855,2.812,2.841,2.841,0,0,1-2.338,1.057A2.341,2.341,0,0,1,156.509,141.955Zm-.028-2.823v.977a2.075,2.075,0,0,0,.565,1.473,2.009,2.009,0,0,0,3.027-.174,3.568,3.568,0,0,0,.578-2.167,2.819,2.819,0,0,0-.54-1.832,1.786,1.786,0,0,0-1.463-.663,1.989,1.989,0,0,0-1.572.68A2.5,2.5,0,0,0,156.481,139.132Z"/><path d="M168.6,142.967H167.48v-1.094h-.027a2.345,2.345,0,0,1-2.153,1.258,2.3,2.3,0,0,1-1.637-.554,1.92,1.92,0,0,1-.592-1.47q0-1.96,2.311-2.283l2.1-.294q0-1.783-1.442-1.784a3.446,3.446,0,0,0-2.283.861v-1.148a4.333,4.333,0,0,1,2.379-.656q2.468,0,2.468,2.611Zm-1.122-3.541-1.688.232a2.725,2.725,0,0,0-1.176.387,1.112,1.112,0,0,0-.4.98,1.072,1.072,0,0,0,.365.838,1.418,1.418,0,0,0,.975.325,1.8,1.8,0,0,0,1.377-.584,2.09,2.09,0,0,0,.543-1.481Z"/><path d="M174.364,137.1a1.365,1.365,0,0,0-.847-.226,1.431,1.431,0,0,0-1.2.677,3.122,3.122,0,0,0-.482,1.845v3.569h-1.121v-7h1.121v1.442h.027a2.437,2.437,0,0,1,.732-1.151,1.661,1.661,0,0,1,1.1-.414,1.849,1.849,0,0,1,.67.095Z"/><path d="M181.392,142.967h-1.573l-3.09-3.363H176.7v3.363h-1.121V132.6H176.7v6.569h.027l2.94-3.206h1.47l-3.247,3.377Z"/><path d="M189.718,142.967h-1.367l-1.641-2.748a5.848,5.848,0,0,0-.438-.653,2.523,2.523,0,0,0-.433-.441,1.537,1.537,0,0,0-.479-.25,1.991,1.991,0,0,0-.578-.078h-.943v4.17H182.69v-9.8h2.926a4.2,4.2,0,0,1,1.186.16,2.668,2.668,0,0,1,.943.489,2.258,2.258,0,0,1,.626.818,2.972,2.972,0,0,1,.071,2.084,2.436,2.436,0,0,1-.437.763,2.651,2.651,0,0,1-.684.571,3.512,3.512,0,0,1-.9.365v.027a2.182,2.182,0,0,1,.428.25,2.369,2.369,0,0,1,.344.331,4.478,4.478,0,0,1,.326.435c.106.161.226.35.358.564Zm-5.879-8.764v3.555H185.4a2.354,2.354,0,0,0,.8-.13,1.861,1.861,0,0,0,.632-.372,1.678,1.678,0,0,0,.417-.6,1.972,1.972,0,0,0,.151-.789,1.532,1.532,0,0,0-.51-1.226,2.18,2.18,0,0,0-1.473-.442Z"/><path d="M286.811,48.783v3.7h-1.148v-9.8h2.693a3.558,3.558,0,0,1,2.437.765,2.735,2.735,0,0,1,.865,2.16,2.976,2.976,0,0,1-.96,2.284,3.67,3.67,0,0,1-2.595.888Zm0-5.058v4.019h1.2a2.7,2.7,0,0,0,1.815-.543,1.921,1.921,0,0,0,.626-1.535q0-1.939-2.3-1.941Z"/><path d="M298.924,45.488l-3.219,8.121q-.863,2.175-2.42,2.174a2.584,2.584,0,0,1-.732-.088V54.689a2.078,2.078,0,0,0,.663.123,1.371,1.371,0,0,0,1.272-1.011l.56-1.326-2.734-6.987h1.244l1.894,5.387q.033.1.143.533h.041c.023-.109.069-.281.137-.519l1.989-5.4Z"/><path d="M299.82,52.092V50.738a2.616,2.616,0,0,0,.557.369,4.49,4.49,0,0,0,.684.278,5.6,5.6,0,0,0,.721.174,4.023,4.023,0,0,0,.67.062,2.615,2.615,0,0,0,1.582-.394,1.474,1.474,0,0,0,.349-1.821,1.968,1.968,0,0,0-.482-.537,4.757,4.757,0,0,0-.729-.465c-.279-.148-.582-.3-.905-.468q-.513-.258-.957-.526a4.19,4.19,0,0,1-.772-.588,2.454,2.454,0,0,1-.516-.728,2.476,2.476,0,0,1,.105-2.119,2.526,2.526,0,0,1,.773-.817,3.444,3.444,0,0,1,1.091-.478,4.929,4.929,0,0,1,1.247-.159,4.782,4.782,0,0,1,2.112.35v1.291a3.835,3.835,0,0,0-2.228-.6,3.765,3.765,0,0,0-.752.078,2.1,2.1,0,0,0-.67.257,1.479,1.479,0,0,0-.479.458,1.218,1.218,0,0,0-.184.683,1.421,1.421,0,0,0,.139.651,1.624,1.624,0,0,0,.414.5,4.2,4.2,0,0,0,.666.437c.263.143.565.3.907.465s.683.355,1,.547a4.614,4.614,0,0,1,.827.636,2.83,2.83,0,0,1,.563.772,2.163,2.163,0,0,1,.209.971,2.454,2.454,0,0,1-.283,1.226,2.34,2.34,0,0,1-.766.819,3.335,3.335,0,0,1-1.111.453,6.105,6.105,0,0,1-1.326.14,5.131,5.131,0,0,1-.574-.037c-.228-.025-.46-.062-.7-.109a6.113,6.113,0,0,1-.673-.178A2.041,2.041,0,0,1,299.82,52.092Z"/><path d="M308.713,51.477h-.027v4.232h-1.121V45.488h1.121v1.231h.027a2.652,2.652,0,0,1,2.42-1.4,2.569,2.569,0,0,1,2.113.94A3.9,3.9,0,0,1,314,48.783a4.339,4.339,0,0,1-.854,2.813,2.842,2.842,0,0,1-2.338,1.056A2.34,2.34,0,0,1,308.713,51.477Zm-.027-2.823v.977a2.078,2.078,0,0,0,.564,1.473,2.012,2.012,0,0,0,3.028-.174,3.569,3.569,0,0,0,.578-2.166,2.819,2.819,0,0,0-.54-1.832,1.783,1.783,0,0,0-1.463-.664,1.987,1.987,0,0,0-1.572.679A2.5,2.5,0,0,0,308.686,48.654Z"/><path d="M320.807,52.488h-1.121V51.4h-.028a2.346,2.346,0,0,1-2.154,1.257,2.3,2.3,0,0,1-1.636-.552,1.92,1.92,0,0,1-.592-1.471q0-1.96,2.31-2.283l2.1-.293q0-1.785-1.443-1.785a3.449,3.449,0,0,0-2.284.861V45.98a4.346,4.346,0,0,1,2.379-.656q2.469,0,2.469,2.612Zm-1.121-3.541L318,49.18a2.748,2.748,0,0,0-1.176.386,1.112,1.112,0,0,0-.4.981,1.07,1.07,0,0,0,.366.838,1.411,1.411,0,0,0,.974.324,1.8,1.8,0,0,0,1.377-.584,2.089,2.089,0,0,0,.545-1.48Z"/><path d="M326.568,46.623a1.37,1.37,0,0,0-.847-.225,1.43,1.43,0,0,0-1.2.676,3.125,3.125,0,0,0-.482,1.846v3.568h-1.121v-7h1.121v1.444h.027a2.46,2.46,0,0,1,.733-1.153,1.671,1.671,0,0,1,1.1-.414,1.839,1.839,0,0,1,.67.1Z"/><path d="M333.6,52.488h-1.573l-3.089-3.363h-.028v3.363h-1.121V42.125h1.121V48.7h.028l2.939-3.207h1.471L330.1,48.865Z"/><path d="M487.721,53.806a.722.722,0,0,1-.535-.226.738.738,0,0,1-.223-.54.748.748,0,0,1,.223-.543.713.713,0,0,1,.535-.229.738.738,0,0,1,.547.229.747.747,0,0,1,.226.543.737.737,0,0,1-.226.54A.747.747,0,0,1,487.721,53.806Z"/><path d="M498.42,53.655h-1.408l-5.045-7.813a3.219,3.219,0,0,1-.315-.615h-.041a10.334,10.334,0,0,1,.055,1.346v7.082h-1.148v-9.8h1.49l4.908,7.69c.2.319.336.538.4.656h.028a10.11,10.11,0,0,1-.069-1.442v-6.9h1.149Z"/><path d="M506.186,53.655h-5.2v-9.8h4.977v1.039h-3.828v3.26h3.541v1.033h-3.541v3.431h4.047Z"/><path d="M513.869,44.892h-2.83v8.763h-1.148V44.892h-2.825V43.853h6.8Z"/><path d="M522.551,44.276a1.5,1.5,0,0,0-.746-.184q-1.176,0-1.176,1.483v1.08h1.641v.957h-1.641v6.043h-1.113V47.612h-1.2v-.957h1.2V45.521a2.364,2.364,0,0,1,.634-1.741,2.148,2.148,0,0,1,1.586-.638,2.207,2.207,0,0,1,.815.123Z"/><path d="M526.4,53.819a3.254,3.254,0,0,1-2.478-.98,3.638,3.638,0,0,1-.926-2.6,3.787,3.787,0,0,1,.965-2.755,3.463,3.463,0,0,1,2.6-.991,3.134,3.134,0,0,1,2.444.964,3.82,3.82,0,0,1,.879,2.673,3.762,3.762,0,0,1-.947,2.684A3.32,3.32,0,0,1,526.4,53.819Zm.082-6.384a2.138,2.138,0,0,0-1.709.734,3.031,3.031,0,0,0-.628,2.027,2.854,2.854,0,0,0,.636,1.962,2.158,2.158,0,0,0,1.7.718,2.049,2.049,0,0,0,1.672-.7,3.06,3.06,0,0,0,.584-2,3.108,3.108,0,0,0-.584-2.023A2.042,2.042,0,0,0,526.48,47.435Z"/><path d="M535.326,47.79a1.37,1.37,0,0,0-.847-.226,1.431,1.431,0,0,0-1.2.677,3.125,3.125,0,0,0-.482,1.846v3.568h-1.121v-7H532.8V48.1h.027a2.449,2.449,0,0,1,.733-1.152,1.666,1.666,0,0,1,1.1-.414,1.817,1.817,0,0,1,.67.1Z"/><path d="M548.117,53.655h-1.271l-1.039-2.748H541.65l-.978,2.748H539.4l3.759-9.8h1.19Zm-2.687-3.78L543.893,45.7a3.761,3.761,0,0,1-.151-.656h-.027a3.7,3.7,0,0,1-.158.656l-1.524,4.177Z"/><path d="M550.557,52.644h-.028v4.231h-1.121V46.655h1.121v1.231h.028a2.652,2.652,0,0,1,2.42-1.4,2.567,2.567,0,0,1,2.113.94,3.892,3.892,0,0,1,.758,2.519,4.346,4.346,0,0,1-.854,2.813,2.843,2.843,0,0,1-2.338,1.056A2.34,2.34,0,0,1,550.557,52.644Zm-.028-2.824V50.8a2.076,2.076,0,0,0,.565,1.473,2.011,2.011,0,0,0,3.027-.174,3.565,3.565,0,0,0,.578-2.167,2.821,2.821,0,0,0-.539-1.832,1.786,1.786,0,0,0-1.463-.663,1.985,1.985,0,0,0-1.572.679A2.5,2.5,0,0,0,550.529,49.82Z"/><path d="M562.65,53.655h-1.121V52.562H561.5a2.348,2.348,0,0,1-2.154,1.257,2.3,2.3,0,0,1-1.637-.553,1.919,1.919,0,0,1-.592-1.47q0-1.962,2.311-2.283l2.1-.294q0-1.785-1.443-1.784a3.448,3.448,0,0,0-2.283.861V47.147a4.346,4.346,0,0,1,2.379-.656q2.469,0,2.468,2.612Zm-1.121-3.541-1.689.233a2.744,2.744,0,0,0-1.176.386,1.113,1.113,0,0,0-.4.981,1.075,1.075,0,0,0,.365.838,1.418,1.418,0,0,0,.974.324,1.8,1.8,0,0,0,1.377-.584,2.086,2.086,0,0,0,.545-1.48Z"/><path d="M569.533,53.334a3.646,3.646,0,0,1-1.914.485,3.166,3.166,0,0,1-2.416-.974,3.529,3.529,0,0,1-.92-2.526,3.877,3.877,0,0,1,.992-2.779,3.47,3.47,0,0,1,2.645-1.049,3.68,3.68,0,0,1,1.627.342v1.148a2.851,2.851,0,0,0-1.668-.546,2.249,2.249,0,0,0-1.76.769,2.912,2.912,0,0,0-.687,2.02,2.772,2.772,0,0,0,.646,1.941,2.225,2.225,0,0,0,1.733.711,2.809,2.809,0,0,0,1.722-.608Z"/><path d="M577.039,53.655h-1.121V49.622q0-2.187-1.627-2.187a1.777,1.777,0,0,0-1.381.632,2.357,2.357,0,0,0-.56,1.623v3.965h-1.121V43.292h1.121v4.525h.027a2.551,2.551,0,0,1,2.3-1.326q2.367,0,2.365,2.851Z"/><path d="M584.777,50.436h-4.941a2.607,2.607,0,0,0,.629,1.8,2.164,2.164,0,0,0,1.654.636,3.448,3.448,0,0,0,2.174-.779v1.052a4.063,4.063,0,0,1-2.441.67,2.96,2.96,0,0,1-2.331-.953,3.9,3.9,0,0,1-.847-2.683,3.823,3.823,0,0,1,.926-2.662,2.966,2.966,0,0,1,2.3-1.03,2.626,2.626,0,0,1,2.125.889,3.7,3.7,0,0,1,.752,2.468Zm-1.148-.951a2.279,2.279,0,0,0-.467-1.51,1.6,1.6,0,0,0-1.283-.54,1.812,1.812,0,0,0-1.346.567,2.572,2.572,0,0,0-.683,1.483Z"/><path d="M590,53.259V51.905a2.631,2.631,0,0,0,.559.369,4.4,4.4,0,0,0,.683.278,5.56,5.56,0,0,0,.721.174,4.006,4.006,0,0,0,.67.061,2.624,2.624,0,0,0,1.582-.393,1.475,1.475,0,0,0,.349-1.822,1.964,1.964,0,0,0-.482-.536,4.718,4.718,0,0,0-.728-.465q-.42-.222-.907-.468c-.342-.173-.66-.349-.957-.527a4.2,4.2,0,0,1-.771-.588,2.449,2.449,0,0,1-.516-.727,2.472,2.472,0,0,1,.106-2.119,2.513,2.513,0,0,1,.771-.818,3.5,3.5,0,0,1,1.092-.478,4.96,4.96,0,0,1,1.246-.158,4.79,4.79,0,0,1,2.113.349v1.292a3.832,3.832,0,0,0-2.228-.6,3.679,3.679,0,0,0-.752.078,2.1,2.1,0,0,0-.67.256,1.481,1.481,0,0,0-.479.459,1.214,1.214,0,0,0-.185.683,1.416,1.416,0,0,0,.14.65,1.6,1.6,0,0,0,.414.5,4.189,4.189,0,0,0,.667.437c.261.142.564.3.906.465s.683.355,1,.547a4.492,4.492,0,0,1,.826.636,2.784,2.784,0,0,1,.564.772,2.17,2.17,0,0,1,.209.971,2.467,2.467,0,0,1-.283,1.226,2.335,2.335,0,0,1-.765.818,3.359,3.359,0,0,1-1.112.454,6.112,6.112,0,0,1-1.326.14,5.351,5.351,0,0,1-.574-.037c-.229-.025-.461-.062-.7-.109a6.015,6.015,0,0,1-.674-.178A2.142,2.142,0,0,1,590,53.259Z"/><path d="M598.9,52.644h-.028v4.231h-1.121V46.655h1.121v1.231h.028a2.648,2.648,0,0,1,2.419-1.4,2.564,2.564,0,0,1,2.112.94,3.893,3.893,0,0,1,.76,2.519,4.336,4.336,0,0,1-.856,2.813,2.839,2.839,0,0,1-2.338,1.056A2.339,2.339,0,0,1,598.9,52.644Zm-.028-2.824V50.8a2.076,2.076,0,0,0,.565,1.473,2.011,2.011,0,0,0,3.027-.174,3.579,3.579,0,0,0,.578-2.167A2.815,2.815,0,0,0,602.5,48.1a1.784,1.784,0,0,0-1.463-.663,1.988,1.988,0,0,0-1.572.679A2.5,2.5,0,0,0,598.867,49.82Z"/><path d="M610.986,53.655h-1.121V52.562h-.027a2.345,2.345,0,0,1-2.152,1.257,2.3,2.3,0,0,1-1.637-.553,1.919,1.919,0,0,1-.592-1.47q0-1.962,2.311-2.283l2.1-.294q0-1.785-1.441-1.784a3.441,3.441,0,0,0-2.283.861V47.147a4.337,4.337,0,0,1,2.379-.656q2.466,0,2.466,2.612Zm-1.121-3.541-1.687.233a2.734,2.734,0,0,0-1.176.386,1.109,1.109,0,0,0-.4.981,1.07,1.07,0,0,0,.366.838,1.414,1.414,0,0,0,.974.324,1.8,1.8,0,0,0,1.377-.584,2.084,2.084,0,0,0,.543-1.48Z"/><path d="M616.75,47.79a1.377,1.377,0,0,0-.848-.226,1.429,1.429,0,0,0-1.2.677,3.125,3.125,0,0,0-.482,1.846v3.568H613.1v-7h1.121V48.1h.027a2.424,2.424,0,0,1,.731-1.152,1.667,1.667,0,0,1,1.1-.414,1.832,1.832,0,0,1,.67.1Z"/><path d="M623.777,53.655h-1.572l-3.09-3.363h-.027v3.363h-1.121V43.292h1.121v6.569h.027l2.94-3.206h1.468l-3.246,3.377Z"/><path d="M17.023,186.653V185.3a2.6,2.6,0,0,0,.558.369,4.536,4.536,0,0,0,.683.277,5.439,5.439,0,0,0,.721.174,4.023,4.023,0,0,0,.67.062,2.615,2.615,0,0,0,1.582-.394,1.474,1.474,0,0,0,.349-1.821,1.964,1.964,0,0,0-.482-.536,4.61,4.61,0,0,0-.729-.465c-.279-.149-.582-.305-.905-.469q-.513-.26-.957-.526a4.146,4.146,0,0,1-.772-.588,2.441,2.441,0,0,1-.516-.728,2.481,2.481,0,0,1,.106-2.119,2.513,2.513,0,0,1,.772-.817,3.514,3.514,0,0,1,1.091-.479,5.02,5.02,0,0,1,1.247-.157,4.77,4.77,0,0,1,2.112.349v1.292a3.82,3.82,0,0,0-2.228-.6,3.693,3.693,0,0,0-.752.078,2.149,2.149,0,0,0-.67.257,1.489,1.489,0,0,0-.479.458,1.217,1.217,0,0,0-.184.684,1.425,1.425,0,0,0,.139.649,1.593,1.593,0,0,0,.414.5,4.27,4.27,0,0,0,.666.438q.395.212.907.464t1,.547a4.625,4.625,0,0,1,.827.636,2.8,2.8,0,0,1,.563.772,2.163,2.163,0,0,1,.209.971,2.458,2.458,0,0,1-.283,1.227,2.332,2.332,0,0,1-.765.817,3.35,3.35,0,0,1-1.112.454,6.043,6.043,0,0,1-1.326.141,5.66,5.66,0,0,1-.574-.037q-.342-.039-.7-.11a5.862,5.862,0,0,1-.674-.177A2.152,2.152,0,0,1,17.023,186.653Z"/><path d="M25.917,186.038h-.028v4.232H24.768V180.05h1.121v1.23h.028a2.651,2.651,0,0,1,2.419-1.394,2.565,2.565,0,0,1,2.113.939,3.9,3.9,0,0,1,.759,2.52,4.338,4.338,0,0,1-.855,2.812,2.842,2.842,0,0,1-2.338,1.057A2.341,2.341,0,0,1,25.917,186.038Zm-.028-2.823v.977a2.075,2.075,0,0,0,.565,1.473,2.009,2.009,0,0,0,3.027-.174,3.568,3.568,0,0,0,.578-2.167,2.825,2.825,0,0,0-.54-1.832,1.788,1.788,0,0,0-1.463-.663,1.987,1.987,0,0,0-1.572.68A2.5,2.5,0,0,0,25.889,183.215Z"/><path d="M38.009,187.05H36.888v-1.094h-.027a2.345,2.345,0,0,1-2.153,1.258,2.3,2.3,0,0,1-1.637-.554,1.916,1.916,0,0,1-.592-1.47q0-1.96,2.311-2.283l2.1-.294q0-1.784-1.442-1.784a3.445,3.445,0,0,0-2.283.861v-1.148a4.333,4.333,0,0,1,2.379-.656q2.467,0,2.467,2.611Zm-1.121-3.541-1.688.232a2.725,2.725,0,0,0-1.176.387,1.11,1.11,0,0,0-.4.98,1.073,1.073,0,0,0,.366.838,1.417,1.417,0,0,0,.974.325,1.8,1.8,0,0,0,1.377-.584,2.086,2.086,0,0,0,.544-1.481Z"/><path d="M43.772,181.185a1.368,1.368,0,0,0-.848-.226,1.429,1.429,0,0,0-1.2.677,3.122,3.122,0,0,0-.482,1.845v3.569H40.122v-7h1.121v1.442h.027A2.435,2.435,0,0,1,42,180.341a1.666,1.666,0,0,1,1.1-.414,1.849,1.849,0,0,1,.67.095Z"/><path d="M50.8,187.05H49.227l-3.09-3.363H46.11v3.363H44.989V176.687H46.11v6.569h.027l2.94-3.206h1.469L47.3,183.427Z"/><path d="M57.082,187.05H55.933v-9.8h1.149Z"/><path d="M65.319,187.05H64.2v-3.992q0-2.229-1.627-2.229a1.762,1.762,0,0,0-1.391.633,2.341,2.341,0,0,0-.551,1.6v3.992H59.508v-7h1.121v1.162h.028a2.526,2.526,0,0,1,2.3-1.326,2.139,2.139,0,0,1,1.756.742,3.3,3.3,0,0,1,.609,2.143Z"/><path d="M70.678,186.981a2.159,2.159,0,0,1-1.046.219q-1.838,0-1.839-2.051v-4.142h-1.2v-.957h1.2v-1.709l1.122-.362v2.071h1.763v.957H68.915v3.944a1.637,1.637,0,0,0,.239,1,.956.956,0,0,0,.793.3,1.172,1.172,0,0,0,.731-.233Z"/><path d="M77.8,183.83H72.859a2.614,2.614,0,0,0,.629,1.8,2.167,2.167,0,0,0,1.654.636,3.439,3.439,0,0,0,2.174-.78v1.053a4.068,4.068,0,0,1-2.441.67,2.962,2.962,0,0,1-2.331-.953,3.908,3.908,0,0,1-.847-2.684,3.824,3.824,0,0,1,.926-2.662,2.97,2.97,0,0,1,2.3-1.029,2.632,2.632,0,0,1,2.126.888,3.708,3.708,0,0,1,.752,2.468Zm-1.148-.95a2.286,2.286,0,0,0-.468-1.511,1.6,1.6,0,0,0-1.282-.54,1.817,1.817,0,0,0-1.347.567,2.575,2.575,0,0,0-.683,1.484Z"/><path d="M83.147,181.185a1.368,1.368,0,0,0-.848-.226,1.429,1.429,0,0,0-1.2.677,3.122,3.122,0,0,0-.482,1.845v3.569H79.5v-7h1.121v1.442h.027a2.435,2.435,0,0,1,.731-1.151,1.666,1.666,0,0,1,1.1-.414,1.849,1.849,0,0,1,.67.095Z"/><path d="M85.485,187.05H84.364V176.687h1.121Z"/><path d="M90.68,187.214a3.248,3.248,0,0,1-2.478-.981,3.631,3.631,0,0,1-.926-2.6,3.784,3.784,0,0,1,.964-2.755,3.462,3.462,0,0,1,2.6-.991,3.137,3.137,0,0,1,2.444.964,3.817,3.817,0,0,1,.879,2.672,3.761,3.761,0,0,1-.948,2.684A3.316,3.316,0,0,1,90.68,187.214Zm.082-6.385a2.134,2.134,0,0,0-1.709.734,3.024,3.024,0,0,0-.629,2.028,2.855,2.855,0,0,0,.636,1.962,2.162,2.162,0,0,0,1.7.718,2.051,2.051,0,0,0,1.672-.7,3.056,3.056,0,0,0,.584-2,3.11,3.11,0,0,0-.584-2.023A2.043,2.043,0,0,0,90.762,180.829Z"/><path d="M97.106,186.038h-.027v4.232H95.958V180.05h1.121v1.23h.027a2.652,2.652,0,0,1,2.42-1.394,2.565,2.565,0,0,1,2.112.939,3.9,3.9,0,0,1,.759,2.52,4.332,4.332,0,0,1-.855,2.812,2.84,2.84,0,0,1-2.337,1.057A2.341,2.341,0,0,1,97.106,186.038Zm-.027-2.823v.977a2.074,2.074,0,0,0,.564,1.473,2.009,2.009,0,0,0,3.027-.174,3.568,3.568,0,0,0,.579-2.167,2.819,2.819,0,0,0-.541-1.832,1.786,1.786,0,0,0-1.462-.663,1.989,1.989,0,0,0-1.573.68A2.5,2.5,0,0,0,97.079,183.215Z"/><path d="M113.259,187.05h-5.086v-9.8h1.149v8.764h3.937Z"/><path d="M119.624,187.05H118.5v-1.094h-.027a2.345,2.345,0,0,1-2.153,1.258,2.3,2.3,0,0,1-1.637-.554,1.92,1.92,0,0,1-.592-1.47q0-1.96,2.311-2.283l2.1-.294q0-1.784-1.442-1.784a3.446,3.446,0,0,0-2.283.861v-1.148a4.333,4.333,0,0,1,2.379-.656q2.468,0,2.468,2.611Zm-1.122-3.541-1.688.232a2.725,2.725,0,0,0-1.176.387,1.112,1.112,0,0,0-.4.98,1.072,1.072,0,0,0,.365.838,1.418,1.418,0,0,0,.975.325,1.8,1.8,0,0,0,1.376-.584,2.086,2.086,0,0,0,.544-1.481Z"/><path d="M127.307,180.05l-3.22,8.121q-.861,2.174-2.42,2.174a2.569,2.569,0,0,1-.731-.089v-1a2.078,2.078,0,0,0,.663.123,1.374,1.374,0,0,0,1.272-1.012l.56-1.326L120.7,180.05h1.244l1.893,5.387q.034.1.144.533h.041c.023-.11.068-.282.137-.52l1.989-5.4Z"/><path d="M134.136,183.83h-4.942a2.614,2.614,0,0,0,.629,1.8,2.167,2.167,0,0,0,1.654.636,3.439,3.439,0,0,0,2.174-.78v1.053a4.068,4.068,0,0,1-2.441.67,2.962,2.962,0,0,1-2.331-.953,3.908,3.908,0,0,1-.847-2.684,3.824,3.824,0,0,1,.926-2.662,2.97,2.97,0,0,1,2.3-1.029,2.632,2.632,0,0,1,2.126.888,3.708,3.708,0,0,1,.752,2.468Zm-1.148-.95a2.286,2.286,0,0,0-.468-1.511,1.6,1.6,0,0,0-1.282-.54,1.815,1.815,0,0,0-1.347.567,2.575,2.575,0,0,0-.683,1.484Z"/><path d="M139.482,181.185a1.368,1.368,0,0,0-.848-.226,1.429,1.429,0,0,0-1.2.677,3.122,3.122,0,0,0-.482,1.845v3.569h-1.121v-7h1.121v1.442h.027a2.435,2.435,0,0,1,.731-1.151,1.666,1.666,0,0,1,1.1-.414,1.849,1.849,0,0,1,.67.095Z"/><path d="M56.019,213.986v-1.353a2.6,2.6,0,0,0,.558.369,4.536,4.536,0,0,0,.683.277,5.477,5.477,0,0,0,.721.174,4.023,4.023,0,0,0,.67.062,2.615,2.615,0,0,0,1.582-.394,1.477,1.477,0,0,0,.35-1.821,1.985,1.985,0,0,0-.483-.536,4.644,4.644,0,0,0-.728-.465q-.42-.224-.906-.469c-.341-.173-.661-.349-.957-.526a4.179,4.179,0,0,1-.772-.588,2.441,2.441,0,0,1-.516-.728,2.481,2.481,0,0,1,.106-2.119,2.513,2.513,0,0,1,.772-.817,3.514,3.514,0,0,1,1.091-.479,5.02,5.02,0,0,1,1.247-.157,4.77,4.77,0,0,1,2.112.349v1.292a3.82,3.82,0,0,0-2.228-.6,3.693,3.693,0,0,0-.752.078,2.149,2.149,0,0,0-.67.257,1.489,1.489,0,0,0-.479.458,1.217,1.217,0,0,0-.184.684,1.425,1.425,0,0,0,.139.649,1.583,1.583,0,0,0,.415.5,4.177,4.177,0,0,0,.666.438q.393.211.906.464t1,.547a4.625,4.625,0,0,1,.827.636,2.79,2.79,0,0,1,.563.773,2.155,2.155,0,0,1,.209.97,2.458,2.458,0,0,1-.283,1.227,2.332,2.332,0,0,1-.765.817,3.35,3.35,0,0,1-1.112.454,6.043,6.043,0,0,1-1.326.141,5.66,5.66,0,0,1-.574-.037q-.342-.039-.7-.11a5.862,5.862,0,0,1-.674-.177A2.152,2.152,0,0,1,56.019,213.986Z"/><path d="M68.536,214.062a3.649,3.649,0,0,1-1.914.485,3.162,3.162,0,0,1-2.416-.975,3.522,3.522,0,0,1-.92-2.525,3.881,3.881,0,0,1,.991-2.779,3.466,3.466,0,0,1,2.645-1.049,3.677,3.677,0,0,1,1.627.342v1.148a2.852,2.852,0,0,0-1.668-.547,2.247,2.247,0,0,0-1.759.77,2.908,2.908,0,0,0-.688,2.019,2.775,2.775,0,0,0,.647,1.942,2.225,2.225,0,0,0,1.732.711A2.817,2.817,0,0,0,68.536,213Z"/><path d="M75.242,214.383H74.121v-1.094h-.028a2.345,2.345,0,0,1-2.153,1.258,2.3,2.3,0,0,1-1.637-.554,1.92,1.92,0,0,1-.592-1.47q0-1.96,2.311-2.283l2.1-.294q0-1.783-1.443-1.784a3.446,3.446,0,0,0-2.283.861v-1.148a4.342,4.342,0,0,1,2.379-.656q2.468,0,2.468,2.611Zm-1.121-3.541-1.689.232a2.73,2.73,0,0,0-1.176.387,1.112,1.112,0,0,0-.4.98,1.072,1.072,0,0,0,.365.838,1.418,1.418,0,0,0,.975.325,1.8,1.8,0,0,0,1.377-.584,2.09,2.09,0,0,0,.544-1.481Z"/><path d="M78.475,214.383H77.354V204.02h1.121Z"/><path d="M85.755,214.383H84.634v-1.094h-.027a2.345,2.345,0,0,1-2.153,1.258,2.3,2.3,0,0,1-1.637-.554,1.916,1.916,0,0,1-.592-1.47q0-1.96,2.311-2.283l2.1-.294q0-1.783-1.442-1.784a3.445,3.445,0,0,0-2.283.861v-1.148a4.342,4.342,0,0,1,2.379-.656q2.468,0,2.467,2.611Zm-1.121-3.541-1.688.232a2.725,2.725,0,0,0-1.176.387,1.11,1.11,0,0,0-.4.98,1.072,1.072,0,0,0,.365.838,1.417,1.417,0,0,0,.974.325,1.8,1.8,0,0,0,1.377-.584,2.086,2.086,0,0,0,.544-1.481Z"/><path d="M92.291,204.58l-4.7,11.43H86.542l4.689-11.43Z"/><path d="M95.982,210.869a4.385,4.385,0,0,1-.738,2.711,2.579,2.579,0,0,1-2.919.8v-1.135a1.594,1.594,0,0,0,.957.267q1.551,0,1.551-2.632v-6.3h1.149Z"/><path d="M103.331,214.383h-1.122v-1.094h-.027a2.345,2.345,0,0,1-2.153,1.258,2.3,2.3,0,0,1-1.637-.554,1.92,1.92,0,0,1-.592-1.47q0-1.96,2.311-2.283l2.1-.294q0-1.783-1.442-1.784a3.446,3.446,0,0,0-2.283.861v-1.148a4.342,4.342,0,0,1,2.379-.656q2.468,0,2.468,2.611Zm-1.122-3.541-1.688.232a2.725,2.725,0,0,0-1.176.387,1.112,1.112,0,0,0-.4.98,1.072,1.072,0,0,0,.365.838,1.418,1.418,0,0,0,.975.325,1.8,1.8,0,0,0,1.377-.584,2.09,2.09,0,0,0,.543-1.481Z"/><path d="M110.946,207.383l-2.789,7h-1.1l-2.652-7h1.23l1.778,5.086a4.7,4.7,0,0,1,.246.977h.027a4.605,4.605,0,0,1,.219-.95l1.859-5.113Z"/><path d="M117.16,214.383h-1.121v-1.094h-.028a2.345,2.345,0,0,1-2.153,1.258,2.3,2.3,0,0,1-1.637-.554,1.92,1.92,0,0,1-.592-1.47q0-1.96,2.311-2.283l2.1-.294q0-1.783-1.443-1.784a3.446,3.446,0,0,0-2.283.861v-1.148a4.342,4.342,0,0,1,2.379-.656q2.468,0,2.468,2.611Zm-1.121-3.541-1.689.232a2.73,2.73,0,0,0-1.176.387,1.112,1.112,0,0,0-.4.98,1.072,1.072,0,0,0,.365.838,1.418,1.418,0,0,0,.975.325,1.8,1.8,0,0,0,1.377-.584,2.09,2.09,0,0,0,.544-1.481Z"/><path d="M130.845,214.383h-1.271l-1.039-2.748h-4.157l-.977,2.748h-1.278l3.759-9.8h1.19Zm-2.686-3.78-1.538-4.177a4.009,4.009,0,0,1-.151-.656h-.027a3.708,3.708,0,0,1-.157.656l-1.525,4.177Z"/><path d="M133.436,210.678v3.705h-1.148v-9.8h2.693a3.553,3.553,0,0,1,2.437.766,2.731,2.731,0,0,1,.865,2.16,2.975,2.975,0,0,1-.96,2.283,3.671,3.671,0,0,1-2.595.889Zm0-5.059v4.02h1.2a2.7,2.7,0,0,0,1.815-.543,1.924,1.924,0,0,0,.626-1.535q0-1.941-2.3-1.942Z"/><path d="M141.277,214.383h-1.149v-9.8h1.149Z"/><path d="M35.366,239.717H34.1l-1.039-2.748H28.9l-.977,2.748H26.644l3.759-9.8h1.19Zm-2.686-3.781-1.538-4.176a4.009,4.009,0,0,1-.151-.656h-.027a3.753,3.753,0,0,1-.157.656l-1.525,4.176Z"/><path d="M37.807,238.705h-.028v4.231H36.658V232.717h1.121v1.23h.028a2.651,2.651,0,0,1,2.42-1.394,2.562,2.562,0,0,1,2.112.939,3.9,3.9,0,0,1,.759,2.52,4.34,4.34,0,0,1-.855,2.812,2.841,2.841,0,0,1-2.338,1.057A2.342,2.342,0,0,1,37.807,238.705Zm-.028-2.824v.978a2.075,2.075,0,0,0,.565,1.473,2.009,2.009,0,0,0,3.027-.174,3.569,3.569,0,0,0,.578-2.168,2.821,2.821,0,0,0-.54-1.832,1.789,1.789,0,0,0-1.463-.662,1.989,1.989,0,0,0-1.572.68A2.5,2.5,0,0,0,37.779,235.881Z"/><path d="M49.9,239.717H48.778v-1.094h-.027a2.347,2.347,0,0,1-2.153,1.258,2.3,2.3,0,0,1-1.637-.555,1.915,1.915,0,0,1-.592-1.469q0-1.962,2.311-2.283l2.1-.3q0-1.784-1.442-1.783a3.445,3.445,0,0,0-2.283.861v-1.148a4.333,4.333,0,0,1,2.379-.656q2.467,0,2.467,2.611Zm-1.121-3.541-1.688.232a2.711,2.711,0,0,0-1.176.387,1.109,1.109,0,0,0-.4.98,1.072,1.072,0,0,0,.365.838,1.422,1.422,0,0,0,.974.325,1.8,1.8,0,0,0,1.377-.584,2.088,2.088,0,0,0,.544-1.481Z"/><path d="M56.783,239.4a3.64,3.64,0,0,1-1.914.486,3.162,3.162,0,0,1-2.416-.975,3.528,3.528,0,0,1-.92-2.525,3.878,3.878,0,0,1,.991-2.779,3.468,3.468,0,0,1,2.646-1.049,3.67,3.67,0,0,1,1.627.342v1.148a2.848,2.848,0,0,0-1.668-.547,2.248,2.248,0,0,0-1.76.77,2.908,2.908,0,0,0-.687,2.019,2.776,2.776,0,0,0,.646,1.942,2.232,2.232,0,0,0,1.733.711,2.809,2.809,0,0,0,1.722-.61Z"/><path d="M64.289,239.717H63.168v-4.033q0-2.189-1.627-2.188a1.773,1.773,0,0,0-1.381.633,2.348,2.348,0,0,0-.56,1.623v3.965H58.479V229.354H59.6v4.525h.027a2.545,2.545,0,0,1,2.3-1.326q2.366,0,2.365,2.849Z"/><path d="M72.027,236.5H67.085a2.619,2.619,0,0,0,.629,1.8,2.167,2.167,0,0,0,1.654.637,3.439,3.439,0,0,0,2.174-.78v1.053a4.074,4.074,0,0,1-2.44.67,2.962,2.962,0,0,1-2.331-.953,3.905,3.905,0,0,1-.848-2.684,3.823,3.823,0,0,1,.926-2.662,2.967,2.967,0,0,1,2.3-1.029,2.629,2.629,0,0,1,2.126.888,3.7,3.7,0,0,1,.752,2.467Zm-1.148-.949a2.289,2.289,0,0,0-.468-1.512,1.6,1.6,0,0,0-1.282-.539,1.82,1.82,0,0,0-1.347.566,2.584,2.584,0,0,0-.683,1.485Z"/><path d="M77.25,239.32v-1.353a2.6,2.6,0,0,0,.558.369,4.536,4.536,0,0,0,.683.277,5.439,5.439,0,0,0,.721.174,4.015,4.015,0,0,0,.67.061,2.622,2.622,0,0,0,1.582-.393,1.475,1.475,0,0,0,.349-1.822,1.961,1.961,0,0,0-.482-.535,4.572,4.572,0,0,0-.728-.465q-.42-.224-.906-.469-.513-.261-.957-.527a4.136,4.136,0,0,1-.772-.588,2.437,2.437,0,0,1-.516-.727,2.481,2.481,0,0,1,.106-2.119,2.516,2.516,0,0,1,.772-.818,3.561,3.561,0,0,1,1.091-.479,5.066,5.066,0,0,1,1.247-.156,4.773,4.773,0,0,1,2.112.348v1.293a3.813,3.813,0,0,0-2.228-.6,3.624,3.624,0,0,0-.752.078,2.172,2.172,0,0,0-.67.256,1.492,1.492,0,0,0-.479.459,1.213,1.213,0,0,0-.184.684,1.421,1.421,0,0,0,.139.648,1.575,1.575,0,0,0,.415.5,4.247,4.247,0,0,0,.666.438q.393.21.906.464c.35.172.683.356,1,.547a4.621,4.621,0,0,1,.827.635,2.79,2.79,0,0,1,.563.773,2.157,2.157,0,0,1,.209.971,2.46,2.46,0,0,1-.283,1.227,2.32,2.32,0,0,1-.765.816,3.351,3.351,0,0,1-1.112.455,6.043,6.043,0,0,1-1.326.141c-.155,0-.347-.014-.574-.037s-.46-.063-.7-.11a5.862,5.862,0,0,1-.674-.177A2.234,2.234,0,0,1,77.25,239.32Z"/><path d="M86.144,238.705h-.028v4.231H85V232.717h1.121v1.23h.028a2.651,2.651,0,0,1,2.419-1.394,2.562,2.562,0,0,1,2.113.939,3.9,3.9,0,0,1,.759,2.52,4.34,4.34,0,0,1-.855,2.812,2.842,2.842,0,0,1-2.338,1.057A2.342,2.342,0,0,1,86.144,238.705Zm-.028-2.824v.978a2.075,2.075,0,0,0,.565,1.473,2.009,2.009,0,0,0,3.027-.174,3.569,3.569,0,0,0,.578-2.168,2.826,2.826,0,0,0-.54-1.832,1.79,1.79,0,0,0-1.463-.662,1.987,1.987,0,0,0-1.572.68A2.492,2.492,0,0,0,86.116,235.881Z"/><path d="M98.236,239.717H97.115v-1.094h-.027a2.347,2.347,0,0,1-2.153,1.258,2.3,2.3,0,0,1-1.637-.555,1.915,1.915,0,0,1-.592-1.469q0-1.962,2.311-2.283l2.1-.3q0-1.784-1.442-1.783a3.445,3.445,0,0,0-2.283.861v-1.148a4.333,4.333,0,0,1,2.379-.656q2.468,0,2.467,2.611Zm-1.121-3.541-1.688.232a2.711,2.711,0,0,0-1.176.387,1.109,1.109,0,0,0-.4.98,1.073,1.073,0,0,0,.366.838,1.422,1.422,0,0,0,.974.325,1.8,1.8,0,0,0,1.377-.584,2.088,2.088,0,0,0,.544-1.481Z"/><path d="M104,233.852a1.366,1.366,0,0,0-.848-.227,1.43,1.43,0,0,0-1.2.678,3.122,3.122,0,0,0-.482,1.845v3.569h-1.121v-7h1.121v1.441h.027a2.426,2.426,0,0,1,.732-1.15,1.656,1.656,0,0,1,1.1-.414,1.828,1.828,0,0,1,.67.095Z"/><path d="M111.026,239.717h-1.572l-3.09-3.363h-.027v3.363h-1.121V229.354h1.121v6.568h.027l2.94-3.2h1.469l-3.247,3.377Z"/><path d="M122.832,239.307a5.761,5.761,0,0,1-2.707.574,4.363,4.363,0,0,1-3.35-1.348A4.967,4.967,0,0,1,115.518,235a5.2,5.2,0,0,1,1.415-3.8,4.8,4.8,0,0,1,3.588-1.449,5.787,5.787,0,0,1,2.311.4v1.225a4.676,4.676,0,0,0-2.324-.588,3.566,3.566,0,0,0-2.738,1.127,4.25,4.25,0,0,0-1.049,3.016,4.047,4.047,0,0,0,.98,2.853,3.339,3.339,0,0,0,2.574,1.063,4.824,4.824,0,0,0,2.557-.657Z"/><path d="M127.6,239.881a3.253,3.253,0,0,1-2.479-.981,3.636,3.636,0,0,1-.926-2.6,3.792,3.792,0,0,1,.964-2.756,3.469,3.469,0,0,1,2.605-.99,3.134,3.134,0,0,1,2.443.963,3.818,3.818,0,0,1,.879,2.673,3.768,3.768,0,0,1-.947,2.684A3.318,3.318,0,0,1,127.6,239.881Zm.082-6.385a2.131,2.131,0,0,0-1.709.734,3.024,3.024,0,0,0-.629,2.028,2.859,2.859,0,0,0,.635,1.961,2.165,2.165,0,0,0,1.7.719,2.046,2.046,0,0,0,1.671-.706,3.054,3.054,0,0,0,.584-2,3.108,3.108,0,0,0-.584-2.023A2.038,2.038,0,0,0,127.686,233.5Z"/><path d="M136.531,233.852a1.365,1.365,0,0,0-.847-.227,1.432,1.432,0,0,0-1.2.678,3.122,3.122,0,0,0-.482,1.845v3.569h-1.121v-7H134v1.441h.027a2.433,2.433,0,0,1,.732-1.15,1.656,1.656,0,0,1,1.1-.414,1.828,1.828,0,0,1,.67.095Z"/><path d="M143.374,236.5h-4.942a2.614,2.614,0,0,0,.629,1.8,2.167,2.167,0,0,0,1.654.637,3.439,3.439,0,0,0,2.174-.78v1.053a4.077,4.077,0,0,1-2.441.67,2.965,2.965,0,0,1-2.331-.953,3.91,3.91,0,0,1-.847-2.684,3.827,3.827,0,0,1,.925-2.662,2.969,2.969,0,0,1,2.3-1.029,2.629,2.629,0,0,1,2.126.888,3.7,3.7,0,0,1,.752,2.467Zm-1.148-.949a2.294,2.294,0,0,0-.468-1.512,1.6,1.6,0,0,0-1.282-.539,1.818,1.818,0,0,0-1.347.566,2.585,2.585,0,0,0-.684,1.485Z"/><path d="M385.325,214.509A37.464,37.464,0,0,0,347.92,251h74.808A37.462,37.462,0,0,0,385.325,214.509Z" fill="#ffd590"/><path d="M473.621,251a88.3,88.3,0,0,0-176.594,0H341.37a43.964,43.964,0,0,1,87.909,0Z" fill="#f7b548"/><path d="M524.5,251C524,174.681,461.761,112.747,385.325,112.747S246.653,174.681,246.146,251h44.331a94.852,94.852,0,0,1,189.7,0Z" fill="#ffd590"/><path d="M287.614,90.652a189.5,189.5,0,0,0-38.96,31.389l-.008,0-.086.093c-.144.151-.284.306-.428.458-.723.774-1.479,1.591-2.248,2.433-.231.253-.468.5-.7.754l0,0c-1.984,2.189-3.957,4.442-5.385,6.237-.009.01-.009.025-.017.035A187.781,187.781,0,0,0,196.766,251H239.6a145.031,145.031,0,0,1,31.358-89.281c2.435-3,4.549-5.54,7.5-8.745a146.892,146.892,0,0,1,29.532-24.491Z" fill="#ee8f94"/><path d="M478.672,88.082a187.34,187.34,0,0,0-52.966-20.366l0,.014c-2.055-.462-3.937-.856-6.419-1.3v-.008a189.625,189.625,0,0,0-33.961-3.058,187.623,187.623,0,0,0-91.658,23.759L314,124.894a144.765,144.765,0,0,1,71.322-18.7,146.287,146.287,0,0,1,21.048,1.525l.014.006c2.666.417,7.018,1.056,15.164,3.056.037.009.074.009.111.015a144.888,144.888,0,0,1,36.668,15.06Z" fill="#a7cbf6"/><path d="M484.694,91.664l-20.388,37.863A145.728,145.728,0,0,1,531.053,251h42.829A188.423,188.423,0,0,0,484.694,91.664Z" fill="#958fe7"/><line x1="197.67" y1="139.283" x2="250.551" y2="159.367" fill="none" stroke="#505050" stroke-miterlimit="10"/><line x1="321.051" y1="64.367" x2="336.551" y2="95.867" fill="none" stroke="#505050" stroke-miterlimit="10"/><line x1="534.051" y1="65.867" x2="497.051" y2="124.034" fill="none" stroke="#505050" stroke-miterlimit="10"/><line x1="153.884" y1="234.964" x2="385.551" y2="234.964" fill="none" stroke="#505050" stroke-miterlimit="10"/><line x1="153.884" y1="208.964" x2="337.389" y2="208.964" fill="none" stroke="#505050" stroke-miterlimit="10"/><line x1="153.884" y1="182.964" x2="294.681" y2="182.964" fill="none" stroke="#505050" stroke-miterlimit="10"/></svg>