<svg xmlns="http://www.w3.org/2000/svg" viewBox="0 0 636 300"><title>swimlane-machine-learning-proven-extensible</title><line x1="441.582" y1="128.023" x2="494.582" y2="128.023" fill="none" stroke="#c2c2c2" stroke-miterlimit="10" stroke-width="5"/><line x1="398.582" y1="61.183" x2="378.582" y2="61.183" fill="none" stroke="#c2c2c2" stroke-miterlimit="10" stroke-width="5"/><polyline points="378.62 150.156 423.645 196.308 480.207 196.245" fill="none" stroke="#c2c2c2" stroke-miterlimit="10" stroke-width="5"/><line x1="398.582" y1="95.183" x2="423.582" y2="95.183" fill="none" stroke="#c2c2c2" stroke-miterlimit="10" stroke-width="5"/><line x1="367.582" y1="160.183" x2="318.582" y2="160.183" fill="none" stroke="#c2c2c2" stroke-miterlimit="10" stroke-width="5"/><line x1="269.582" y1="177.183" x2="169.582" y2="177.183" fill="none" stroke="#c2c2c2" stroke-miterlimit="10" stroke-width="5"/><line x1="265.711" y1="80.744" x2="304.607" y2="41.849" fill="none" stroke="#c2c2c2" stroke-miterlimit="10" stroke-width="5"/><line x1="221.495" y1="128.593" x2="158.272" y2="128.593" fill="none" stroke="#c2c2c2" stroke-miterlimit="10" stroke-width="5"/><line x1="221.495" y1="79.611" x2="175.525" y2="33.642" fill="none" stroke="#c2c2c2" stroke-miterlimit="10" stroke-width="5"/><line x1="265.582" y1="90.183" x2="234.582" y2="90.183" fill="none" stroke="#c2c2c2" stroke-miterlimit="10" stroke-width="5"/><line x1="265.582" y1="114.183" x2="309.582" y2="114.183" fill="none" stroke="#c2c2c2" stroke-miterlimit="10" stroke-width="5"/><line x1="255.082" y1="161.683" x2="255.082" y2="139.683" fill="none" stroke="#c2c2c2" stroke-miterlimit="10" stroke-width="5"/><path d="M314.88,58.584c-1.5-2.722-1.656-3.477-1.5-6.035,0-1.652.448-2.1.9-1.351-.454-1.657.6-2.712.9-1.657a.7.7,0,0,1,.9-.754c.454,0,.3.754.153,1.055.449-.153,1.2,0,1.05,1.2,0,1.055.3,1.2.3,1.2.3-.9.9-1.2,1.356-.749a40.573,40.573,0,0,0-.3,4.516c-.153.3-.153.448-.3.764l1.957,6.769-3.914-.749Z" fill="#a88763"/><line x1="398.666" y1="129.081" x2="374.858" y2="105.273" fill="none" stroke="#c2c2c2" stroke-miterlimit="10" stroke-width="5"/><path d="M381.683,291.683h-101.9a4.113,4.113,0,0,1-4.022-4,4.022,4.022,0,0,1,4.022-4h101.9a3.939,3.939,0,0,1,4.022,4,4.022,4.022,0,0,1-4.022,4Z" fill="#b2b2b2"/><polyline points="323.082 288.683 323.082 186.107 266.082 129.107 266.082 26.683" fill="none" stroke="#c2c2c2" stroke-miterlimit="10" stroke-width="5"/><polyline points="341.082 288.683 341.082 186.136 398.082 129.136 398.082 34.683" fill="none" stroke="#c2c2c2" stroke-miterlimit="10" stroke-width="5"/><polyline points="360.082 288.683 360.082 210.586 442.082 128.586 442.082 89.523 493.134 38.3" fill="none" stroke="#c2c2c2" stroke-miterlimit="10" stroke-width="5"/><polyline points="303.082 288.683 303.082 210.587 221.082 128.587 221.082 33.683" fill="none" stroke="#c2c2c2" stroke-miterlimit="10" stroke-width="5"/><circle cx="288.101" cy="112.891" r="0.543" fill="#5d5f5e"/><line x1="157.972" y1="88.244" x2="197.401" y2="127.673" fill="none" stroke="#c2c2c2" stroke-miterlimit="10" stroke-width="5"/><circle cx="398.495" cy="29.304" r="10.34" fill="#e6e6e6" stroke="#c2c2c2" stroke-miterlimit="10" stroke-width="5.527"/><circle cx="422.758" cy="94.933" r="10.34" fill="#e6e6e6" stroke="#c2c2c2" stroke-miterlimit="10" stroke-width="5.527"/><circle cx="368.495" cy="60.304" r="10.34" fill="#e6e6e6" stroke="#c2c2c2" stroke-miterlimit="10" stroke-width="5.527"/><line x1="456.916" y1="128.653" x2="484.116" y2="101.453" fill="none" stroke="#c2c2c2" stroke-miterlimit="10" stroke-width="5"/><circle cx="489.69" cy="94.482" r="10.34" fill="#e6e6e6" stroke="#c2c2c2" stroke-miterlimit="10" stroke-width="5.527"/><circle cx="152.729" cy="81.933" r="10.34" fill="#e6e6e6" stroke="#c2c2c2" stroke-miterlimit="10" stroke-width="5"/><circle cx="221.495" cy="25.304" r="10.34" fill="#e6e6e6" stroke="#c2c2c2" stroke-miterlimit="10" stroke-width="5.527"/><circle cx="308.216" cy="114.496" r="10.34" fill="#e6e6e6" stroke="#c2c2c2" stroke-miterlimit="10" stroke-width="5.527"/><circle cx="265.594" cy="15.183" r="10.34" fill="#e6e6e6" stroke="#c2c2c2" stroke-miterlimit="10" stroke-width="5.527"/><circle cx="255.254" cy="129.181" r="10.34" fill="#e6e6e6" stroke="#c2c2c2" stroke-miterlimit="10" stroke-width="5.527"/><circle cx="226.344" cy="90.183" r="10.34" fill="#e6e6e6" stroke="#c2c2c2" stroke-miterlimit="10" stroke-width="5.527"/><circle cx="376.094" cy="107.183" r="10.34" fill="#e6e6e6" stroke="#c2c2c2" stroke-miterlimit="10" stroke-width="5.527"/><path d="M348.919,156.233c-1.056,1.208-.755,1.208-1.2,2.574h-2.111c.153-.917-.147-1.519-1.666-.917Z" fill="#0d520d"/><path d="M348.618,153.374l.448,2.258c0,.6-.448.9-1.2,1.208l-5.581,1.514a14.87,14.87,0,0,1-3.609.453h-3.16c-1.656,0-1.055-.917-.754-1.065a32.765,32.765,0,0,0,6.473-2.411C343.184,154.281,348.618,153.374,348.618,153.374Z" fill="#737373"/><path d="M357.65,156.233c-1.055,1.208-.755,1.208-1.055,2.574h-2.258c.3-.917,0-1.519-1.657-.917Z" fill="#737373"/><path d="M348.016,151.422c0,.749.6,1.5.6,1.952.148.6-8.441,3.012-8.441,3.012-.153.148-1.5.148-1.055-.153,1.957-.9,5.734-3.308,5.571-4.363Z" fill="#a88763"/><path d="M357.344,153.374l.454,2.258c0,.6-.454.9-1.2,1.208l-5.571,1.514a14.87,14.87,0,0,1-3.609.453h-3.176c-1.656,0-1.055-.917-.754-1.065a37.058,37.058,0,0,0,6.636-2.411C352.079,154.281,357.344,153.374,357.344,153.374Z" fill="#737373"/><path d="M356.743,151.422c0,.749.6,1.5.6,1.952.153.6-8.425,3.012-8.425,3.012-.153.148-1.5.148-1.056-.153,1.958-.9,5.719-3.308,5.572-4.363Z" fill="#a88763"/><path d="M340.779,125.493a3,3,0,0,0,2.706,3.16,3.127,3.127,0,0,0,3.176-2.859l3.012-24.415A4.861,4.861,0,0,0,345,96.409a4.753,4.753,0,0,0-5.128,4.368Z" fill="#a88763"/><path d="M356.9,152.472c0,.9-3.16,1.2-3.313.3l-4.062-26.825a2.945,2.945,0,0,1,5.872-.454C356.743,133.633,355.54,141.472,356.9,152.472Z" fill="#a88763"/><path d="M348.164,152.472c0,.9-3.308,1.2-3.308.3l-4.077-26.825a2.9,2.9,0,0,1,2.706-3.161,2.988,2.988,0,0,1,3.176,2.707C348.016,133.633,346.813,141.472,348.164,152.472Z" fill="#a88763"/><path d="M349.52,125.493a2.941,2.941,0,1,0,5.872.3l3.007-24.415a4.761,4.761,0,0,0-4.664-4.97,4.843,4.843,0,0,0-5.117,4.368Z" fill="#a88763"/><rect x="339.575" y="100.172" width="9.344" height="23.516" fill="#2488d8"/><rect x="348.918" y="100.172" width="9.482" height="23.516" fill="#2488d8"/><polygon points="347.716 103.494 359.755 101.827 355.54 90.68 354.184 74.701 351.625 71.54 344.239 68.227 346.813 100.777 347.716 103.494" fill="#2488d8"/><polygon points="347.114 103.494 339.122 104.85 339.122 93.086 334.458 78.625 335.962 71.24 343.939 68.227 347.114 100.925 347.114 103.494" fill="#2488d8"/><path d="M324.962,74.548a3.01,3.01,0,1,1-6.019,0A2.893,2.893,0,0,1,321.8,71.54,3.256,3.256,0,0,1,324.962,74.548Z" fill="#0d520d"/><polygon points="336.864 70.939 321.802 71.54 321.955 77.57 336.864 79.227 336.864 70.939" fill="#2488d8"/><polygon points="314.727 60.388 319.396 59.037 319.845 60.388 315.181 61.897 314.727 60.388" fill="#3b930f"/><path d="M320.9,71.688a3.032,3.032,0,0,1,3.762,1.81,2.979,2.979,0,1,1-5.566,2.115A3.136,3.136,0,0,1,320.9,71.688Z" fill="#2488d8"/><polygon points="315.181 61.897 319.096 75.613 324.662 73.498 320.298 60.24 315.181 61.897" fill="#2488d8"/><path d="M340.024,64.15l6.336-.449.754,5.882s.749,7.686-1.809,7.839-3.925-6.937-3.925-6.937Z" fill="#a88763"/><path d="M344.856,62.8c.749,3.17-.316,4.98-4.077,5.128l-.9-3.777Z" fill="#936f51"/><path d="M337.766,61.744c-1.651-.454-1.05-.9-.9-1.055.153-.3,1.957-2.1,1.957-2.559,0-.148.153-.3.153-.449h0a3.351,3.351,0,0,0,2.707,0,3.635,3.635,0,0,1,.9,1.958,8.565,8.565,0,0,1-.148,1.05c0,.6.749.153.749.153a4.67,4.67,0,0,1,1.356-.755c.617.454.316,2.11.153,2.712a1.147,1.147,0,0,0-.153.448s-.3,2.411,1.065,2.875h0c-2.268,1.2-5.127.749-6.483.6-1.5-.153-1.356-.755-1.356-.755C337.919,65.057,338.067,62.2,337.766,61.744Z" fill="#a88763"/><path d="M343.184,56.779l-.3,1.351v.153a5.5,5.5,0,0,1-.3,1.356,3.635,3.635,0,0,0-.9-1.958,4.223,4.223,0,0,0,1.5-.9Z" fill="#936f51"/><path d="M344.54,60.087a.686.686,0,0,1,.918.3,2.082,2.082,0,0,1-.3,1.509c-.153.3-.3.6-.464.9C344.856,62.2,345.157,60.541,344.54,60.087Z" fill="#936f51"/><path d="M344.54,63.247s-.3,2.258,1.065,2.875h.153a7,7,0,0,0,4.817-2.574c.148.153.449.153.749.153a3.984,3.984,0,0,0,4.516-3.614,4.22,4.22,0,0,0-3.608-4.679h-.755a10.839,10.839,0,0,0-1.8-1.952,7.542,7.542,0,0,0-2.86-1.509,6.752,6.752,0,0,0-5.132.755,2.871,2.871,0,0,0-3.308,2.258,2.992,2.992,0,0,0,.6,2.721h0a3.351,3.351,0,0,0,2.707,0,4.223,4.223,0,0,0,1.5-.9h0l-.749,3.91c0,.6.749.153.749.153a4.67,4.67,0,0,1,1.356-.755.686.686,0,0,1,.918.3,2.082,2.082,0,0,1-.3,1.509c-.153.3-.3.6-.464.9A1.147,1.147,0,0,0,344.54,63.247Z" fill="#72594b"/><path d="M340.325,59.786c-.148,0-.148,0-.3.153,0-.153-.148-.153-.148-.3a.483.483,0,0,1,.449-.454.4.4,0,0,1,.454.454v.3A.552.552,0,0,0,340.325,59.786Z"/><polygon points="344.856 74.701 346.661 96.261 343.037 81.184 340.931 75.001 342.435 70.185 342.736 71.54 344.856 74.701" fill="#106ebe"/><polygon points="344.856 74.701 346.661 96.261 347.863 81.638 349.066 74.4 345.758 69.731 345.906 70.939 344.856 74.701" fill="#b3d6f2"/><polygon points="346.813 67.478 347.216 69.37 349.52 75.001 345.081 70.563 346.813 67.478" fill="#936f51"/><path d="M339.723,63.7a3.3,3.3,0,0,1-.9.148c-.3,0-.448,0-.6-.148h-.3c-.153,0-.153,0-.153.148a.15.15,0,0,0,.153.153h.3a1.113,1.113,0,0,0,.6-.153A3.3,3.3,0,0,0,339.723,63.7Z" fill="#8a0000"/><path d="M339.723,63.7a3.3,3.3,0,0,1-.9.148,1.564,1.564,0,0,1-.9,0l-.153.153c0,.148,0,.148.153.148h0a3.253,3.253,0,0,0,.9-.148C339.275,63.849,339.723,63.7,339.723,63.7Z" fill="#8a0000"/><path d="M342.282,83.289a.4.4,0,0,0,.454.454c.148,0,.3-.3.3-.454a.4.4,0,0,0-.454-.448C342.435,82.841,342.282,83.141,342.282,83.289Z" fill="#0d520d"/><path d="M344.239,89.925c0,.153.153.3.454.3.163,0,.464-.148.311-.448,0-.153-.148-.306-.464-.306C344.392,89.472,344.239,89.625,344.239,89.925Z" fill="#0d520d"/><path d="M346.207,96.71c0,.153.153.3.454.3a.477.477,0,0,0,.453-.448c-.153-.153-.3-.3-.453-.3A.4.4,0,0,0,346.207,96.71Z" fill="#0d520d"/><polygon points="339.576 104.702 347.114 103.494 347.114 100.925 347.716 103.494 358.399 102.128 358.399 103.193 339.576 106.506 339.576 104.702" fill="#106ebe"/><path d="M336.563,71.387a2.874,2.874,0,0,0-1.957-3.761,3.143,3.143,0,0,0-3.762,2.1,2.922,2.922,0,0,0,2.111,3.614A2.723,2.723,0,0,0,336.563,71.387Z" fill="#0d520d"/><path d="M308.377,134.523H288.313a.731.731,0,0,0-.731.731v38.539a.73.73,0,0,0,.731.73h30.539a.73.73,0,0,0,.73-.728l.085-28.093Z" fill="#e26c41"/><path d="M319.582,145.483l-10.98-10.96h-.02v10.27a.73.73,0,0,0,.731.73h10.269Z" fill="#ffa940"/><rect x="292.582" y="150.523" width="22" height="2" fill="#ffa940"/><rect x="292.582" y="155.523" width="22" height="2" fill="#ffa940"/><rect x="292.582" y="160.523" width="22" height="2" fill="#ffa940"/><rect x="464.582" y="175.523" width="54" height="40" fill="#fff"/><rect x="464.582" y="175.523" width="54" height="40" fill="#737373"/><rect x="464.582" y="175.523" width="54" height="5" fill="#e26c41"/><rect x="469.582" y="185.523" width="31" height="2" fill="#d2d2d2"/><rect x="482.582" y="194.523" width="31" height="2" fill="#d2d2d2"/><rect x="482.582" y="198.523" width="31" height="2" fill="#d2d2d2"/><rect x="482.582" y="202.523" width="14" height="2" fill="#d2d2d2"/><rect x="476.582" y="207.523" width="22" height="2" fill="#e26c41"/><rect x="501.582" y="207.523" width="12" height="2" fill="#d2d2d2"/><rect x="499.582" y="202.523" width="14" height="2" fill="#d2d2d2"/><rect x="469.582" y="189.523" width="15" height="2" fill="#e26c41"/><rect x="487.582" y="189.523" width="15" height="2" fill="#d2d2d2"/><path d="M330.54,38.061a19.821,19.821,0,1,0-33.584,14.258,18.176,18.176,0,0,1,5.433,13.106v.358H319.05v-.357a18.885,18.885,0,0,1,5.671-13.341,19.748,19.748,0,0,0,5.819-14.024" fill="#ffa940"/><path d="M328.01,47.734a19.794,19.794,0,0,0-26.956-26.956Z" fill="#ffb900"/><path d="M308.12,42.269l-.052-1.552h0l-.121-3.57a3.8,3.8,0,1,0-7.6,0V37.3a3.786,3.786,0,0,0,2.339,3.507l.1.042a20.51,20.51,0,0,0,3.792,1.16L307.56,70.7l1.531-.053-.974-28.382Zm-4.746-2.83-.1-.042a2.261,2.261,0,0,1-1.4-2.093v-.158a2.266,2.266,0,1,1,4.532.026l.112,3.264a19.049,19.049,0,0,1-3.148-1" fill="#fff"/><path d="M317.358,33.347h-.064a3.8,3.8,0,0,0-3.8,3.773l-.121,3.608a19.427,19.427,0,0,1-4.2.108l.075,1.54a21.087,21.087,0,0,0,4.073-.1l-.972,28.371,1.531.053.982-28.671.054-1.576.114-3.311a2.268,2.268,0,0,1,2.265-2.266h.064a2.269,2.269,0,0,1,2.267,2.266v.17a2.265,2.265,0,0,1-1.387,2.089,19.324,19.324,0,0,1-2.03.716l-.068,1.61a20.463,20.463,0,0,0,2.692-.915,3.79,3.79,0,0,0,2.324-3.5v-.17a3.8,3.8,0,0,0-3.8-3.8" fill="#fff"/><path d="M302.39,65.425v9.443a2.48,2.48,0,0,0,2.481,2.482h3.406v2.173h5.076V77.35h3.4a2.482,2.482,0,0,0,2.483-2.482V65.425Z" fill="#e26c41"/><rect x="302.388" y="68.106" width="13.278" height="1.89" fill="#737373"/><rect x="302.388" y="72.319" width="13.278" height="1.89" fill="#737373"/><path d="M323.306,59.639a9.995,9.995,0,0,1-3.762-4.679c-.6-1.356-.3-1.958.3-1.5C318.8,52.4,319.4,51.045,320,51.8c-.153-.3-.3-.9.3-1.055.3-.148.6.6.75.9.3-.3.907-.3,1.208.6a5.543,5.543,0,0,0,.9,1.356c0-1.055.3-1.5.749-1.2.306,1.055,1.208,2.406,1.509,3.761,0,.3.148.454.148.765l4.077,4.817-3.476.9Z" fill="#a88763"/><polygon points="326.013 56.883 322.103 59.939 323.005 61.142 327.008 58.209 326.013 56.883" fill="#b3d6f2"/><path d="M351.324,71.387,335.21,67.762l-8.29-9.78L322.7,61.29l8.594,11a3.1,3.1,0,0,0,2.08,1.209l14.711,5.371a4.581,4.581,0,0,0,.977.51,4.208,4.208,0,0,0,5.118-2.86A4.093,4.093,0,0,0,351.324,71.387Z" fill="#2488d8"/><path d="M349.066,79.38c2.931.8,4.369-.6,5.118-2.712a4.12,4.12,0,0,1-4.965,2.411c-.3,0-15.362-5.882-15.362-5.882a5,5,0,0,1-2.411-1.356l-.6-.754-7.987-9.8H322.7l8.594,11a3.873,3.873,0,0,0,1.657,1.208" fill="#b3d6f2"/><rect x="472.582" y="25.523" width="43" height="23" fill="#505050"/><rect x="469.607" y="13.329" width="49.975" height="13.855" rx="3.211" ry="3.211" fill="#737373"/><rect x="505.728" y="16.545" width="9.154" height="1.732" fill="#e26c41"/><rect x="469.607" y="29.657" width="49.975" height="13.855" rx="3.211" ry="3.211" fill="#737373"/><rect x="505.728" y="32.874" width="9.154" height="1.732" fill="#e26c41"/><rect x="469.607" y="45.986" width="49.975" height="13.855" rx="3.211" ry="3.211" fill="#737373"/><rect x="505.728" y="49.202" width="9.154" height="1.732" fill="#e26c41"/><circle cx="174" cy="31.018" r="16.046" fill="#b3d6f2"/><path d="M140.076,63.612l1.593,1.559a2.445,2.445,0,0,0,3.412.319l18.252-18.313a2.463,2.463,0,0,0-.4-3.414L161.341,42.2a2.445,2.445,0,0,0-3.412-.319L139.677,60.2A2.465,2.465,0,0,0,140.076,63.612Z" fill="#505050"/><path d="M163.163,44.016a2.384,2.384,0,0,1,.17,3.161L145.081,65.49a2.368,2.368,0,0,1-3.155-.094" fill="#282828"/><polygon points="153.14 46.806 157.929 41.885 157.937 41.878 163.34 47.169 163.333 47.177 158.508 52.057 153.14 46.806" fill="#939393"/><polygon points="157.937 41.878 161.674 45.54 156.836 50.458 153.059 46.775 157.929 41.885 157.937 41.878" fill="#d2d2d2"/><path d="M160.831,41.661A16.943,16.943,0,1,0,163.1,17.807,16.9,16.9,0,0,0,160.831,41.661Zm1.605-1.326a14.862,14.862,0,1,1,20.922,1.995A14.88,14.88,0,0,1,162.436,40.335Z" fill="#505050"/><path d="M173.834,18.419l-.626-.776a13.534,13.534,0,0,0-11.45,7.864l.666.825C164.5,21.859,168.336,19.261,173.834,18.419Z" fill="#fff"/><rect x="144.582" y="167.842" width="54.409" height="33.682" fill="#505050"/><path d="M171.355,198.069V167.842a4.08,4.08,0,0,0-4.318-4.319H146.31v34.546Z" fill="#d2d2d2"/><path d="M171.355,198.069V167.842a4.08,4.08,0,0,1,4.318-4.319H196.4v34.546Z" fill="#e6e6e6"/><polygon points="183.446 180.796 180.855 178.205 178.264 180.796 178.264 163.523 183.446 163.523 183.446 180.796" fill="#e26c41"/><polyline points="146.31 196.342 146.31 198.069 196.4 198.069 196.4 196.342" fill="#b2b2b2"/><circle cx="171.355" cy="198.069" r="2.591" fill="#505050"/><path d="M510.1,151.523a1.689,1.689,0,0,1-1.689-1.689V105.058a1.69,1.69,0,1,1,3.379,0v44.776A1.689,1.689,0,0,1,510.1,151.523Z" fill="#c2c2c2"/><path d="M517.7,151.523a1.69,1.69,0,0,1-1.69-1.689V105.058a1.69,1.69,0,0,1,3.38,0v44.776A1.69,1.69,0,0,1,517.7,151.523Z" fill="#c2c2c2"/><path d="M525.306,151.523a1.689,1.689,0,0,1-1.689-1.689V105.058a1.69,1.69,0,1,1,3.379,0v44.776A1.689,1.689,0,0,1,525.306,151.523Z" fill="#c2c2c2"/><path d="M532.91,151.523a1.69,1.69,0,0,1-1.69-1.689V105.058a1.69,1.69,0,1,1,3.379,0v44.776A1.689,1.689,0,0,1,532.91,151.523Z" fill="#c2c2c2"/><path d="M496.582,116.041a1.69,1.69,0,0,1,1.69-1.69h45.621a1.69,1.69,0,0,1,0,3.379H498.272A1.69,1.69,0,0,1,496.582,116.041Z" fill="#c2c2c2"/><path d="M496.582,123.644a1.69,1.69,0,0,1,1.69-1.689h45.621a1.69,1.69,0,0,1,0,3.379H498.272A1.69,1.69,0,0,1,496.582,123.644Z" fill="#c2c2c2"/><path d="M496.582,131.248a1.69,1.69,0,0,1,1.69-1.69h45.621a1.69,1.69,0,0,1,0,3.379H498.272A1.69,1.69,0,0,1,496.582,131.248Z" fill="#c2c2c2"/><path d="M496.582,138.851a1.69,1.69,0,0,1,1.69-1.69h45.621a1.69,1.69,0,0,1,0,3.38H498.272A1.69,1.69,0,0,1,496.582,138.851Z" fill="#c2c2c2"/><rect x="501.651" y="108.437" width="38.017" height="38.017" fill="#737373"/><rect x="510.099" y="116.041" width="19.431" height="19.431" fill="#e26c41"/><polygon points="537.979 108.437 537.979 143.92 502.496 143.92 502.496 146.455 540.513 146.455 540.513 108.437 537.979 108.437" fill="#505050"/><path d="M491.15,45.335a18.845,18.845,0,0,0-18.877-17.812,19.053,19.053,0,0,0-18.609,14.871,13.967,13.967,0,1,0-10.557,23.129h47.338a10.105,10.105,0,0,0,.7-20.188" fill="#b3d6f2"/><path d="M162.582,142.523V101.236a1.713,1.713,0,0,0-1.713-1.713H100.3a1.713,1.713,0,0,0-1.713,1.713v41.287Z" fill="#505050"/><rect x="101.582" y="102.523" width="58" height="37" fill="#939393"/><path d="M167.319,144.523H93.288c-2.467.14-2.87-3.259-2.87-3h79.771C170.189,141.264,169.233,144.663,167.319,144.523Z" fill="#505050"/><rect x="129.582" y="100.523" width="1" height="1" fill="#5d5f5e"/><polygon points="159.582 102.523 132.934 102.523 159.582 127.458 159.582 102.523" fill="#b2b2b2"/></svg>