<svg xmlns="http://www.w3.org/2000/svg" viewBox="0 0 636 300"><title>swimlane-create-your-own-extension</title><path d="M426.264,281.765H121.739a6.119,6.119,0,0,1-6.08-4.695,5.962,5.962,0,0,1,6.009-7.07H426.192a6.118,6.118,0,0,1,6.081,4.7A5.962,5.962,0,0,1,426.264,281.765Z" fill="#b2b2b2"/><path d="M514.4,290H288.947a6.1,6.1,0,0,1-6.064-4.695,5.941,5.941,0,0,1,5.941-7.07H514.278a6.1,6.1,0,0,1,6.064,4.695A5.94,5.94,0,0,1,514.4,290Z" fill="#b2b2b2"/><path d="M398.984,159.693,380.54,140.134a6.973,6.973,0,0,0-3.825-2.172V93.529H162.6v58.824h12.941V106.471H364.95v41.887L355.3,159.787a20.6,20.6,0,0,0-4.465,11.905v94.947a6.865,6.865,0,0,0,6.837,6.89h39.144a6.941,6.941,0,0,0,6.961-6.909c.147-76.473,0-102.355,0-102.355C403.48,163.971,401.618,162.317,398.984,159.693Z" fill="#a80000"/><path d="M286.893,46.94l-8.1-20.06a3.934,3.934,0,0,0-3.1-2.381l-1.187-.243L272.12,41.2l-5.747,6.692-9.533-1.187-3.81-8.364,2.381-16.709-1.195-.234a4.066,4.066,0,0,0-3.568,1.429L237.279,40.005a4.285,4.285,0,0,0-.476,3.834l8.1,20.043a4.346,4.346,0,0,0,3.1,2.624l1.687.234-12.173,86.148,18.139,2.64,12.157-86.4,1.662.234a4.108,4.108,0,0,0,3.6-1.429L286.415,50.99A4.879,4.879,0,0,0,286.893,46.94Z" fill="#505050"/><path d="M286.893,46.94,280.218,30l-1.662,11.923L272.6,48.845l-6.223-.953-9.533-1.187-3.811-8.364,2.381-16.709-.71,5L243.473,40.722A4.966,4.966,0,0,0,243,44.79l8.129,20.044a3.934,3.934,0,0,0,3.092,2.381l1.913.477L243.95,153.84l11.705,1.687,12.156-86.4,1.662.234a4.107,4.107,0,0,0,3.6-1.429l13.344-16.944A4.883,4.883,0,0,0,286.893,46.94Z" fill="#737373"/><path d="M234.358,52.381c-9.315-26.493-45.091-20.754-45.091-21.2h-.235c-2.389.684-10.276,1.176-10.276,1.176h-.888a1.731,1.731,0,0,1-.719,1.176h-.711c-7.287,1.88-11.755,4.238-11.994,5.177-.469,3.059-2.366,4-3.313,4.229a10.005,10.005,0,0,1-5.408-.94,41.747,41.747,0,0,0-8.227-1.648l-3.059.709-2.118.709H141.4a3.686,3.686,0,0,0-2.679,4.128L143.1,64.054a3.511,3.511,0,0,0,4.112,2.417h.483l5.809-1.45s4.349-2.416,6.283-4.833a11.967,11.967,0,0,1,4.62-3.408,4.721,4.721,0,0,1,2.9.721v.128L167.8,59.3a3.757,3.757,0,0,0,4.294,2.64l5.481-1.429,15.273,65.862,12.156-3.1L189.743,57.628l5.481-1.194a3.6,3.6,0,0,0,2.39-4.286l-.243-1.2C213.363,39.255,232.211,51.671,234.358,52.381Z" fill="#b2b2b2"/><path d="M222.952,168.639a3.553,3.553,0,0,1-2.615,4.31l-19.091,4.529a3.56,3.56,0,0,1-4.294-2.616l-19.8-84.735a3.425,3.425,0,0,1,2.624-4.052l19.09-4.528a3.54,3.54,0,0,1,4.286,2.615Z" fill="#737373"/><path d="M183.108,85.356l-3.335.719a3.425,3.425,0,0,0-2.623,4.052l19.8,84.735a3.56,3.56,0,0,0,4.294,2.616l3.334-.953Z" fill="#505050"/><path d="M149.052,62.605l-4.111-17.924a3.663,3.663,0,0,1,2.416-4.374h0l-3.146.729-2.18.729h-.483a3.686,3.686,0,0,0-2.679,4.128l4.374,18.161a3.51,3.51,0,0,0,4.112,2.417h.483l5.808-1.45h0l-.246.246A3.812,3.812,0,0,1,149.052,62.605Z" fill="#737373"/><polygon points="181.202 59.121 177.15 60.074 183.108 85.356 186.942 84.403 181.202 59.121" fill="#737373"/><path d="M234.852,118.193a29.709,29.709,0,0,1-.71-6.446A32.469,32.469,0,0,1,285.7,85.715a40.922,40.922,0,0,1,35.338-20.289,40.352,40.352,0,0,1,40.345,39.868H372.5a12.65,12.65,0,0,1,9.172,3.868C408.178,137,388.829,170,361.857,170H227.236a11.919,11.919,0,0,1-7.494-3.184C198.709,144.8,213.466,118.549,234.852,118.193Z" fill="#8ec3ec"/><path d="M218.728,124.986a25.2,25.2,0,0,0-3.293,12.261,25.752,25.752,0,0,0,25.678,25.694H365.758a31.648,31.648,0,0,0,20.258-7.319A32.24,32.24,0,0,1,358.7,171.177H234.64c-12.651,0-23.831-8.925-25.913-21.4A25.57,25.57,0,0,1,218.728,124.986Z" fill="#69afe5"/><rect x="168.48" y="166.471" width="235.294" height="107.059" fill="#e81123"/><path d="M192.009,252.411s36.269-87.117,212.578-87.117H192.009Z" fill="#ba1121"/><path d="M403.774,273.529v-5.882H195.014a6.993,6.993,0,0,1-6.918,5.882Z" fill="#8a0000"/><path d="M196.714,164.7l-23.335-24.565a6.156,6.156,0,0,0-9.368,0l-21.17,24.088a.871.871,0,0,0-.244.719V270.2a3.334,3.334,0,0,0,3.334,3.334h47.207a3.587,3.587,0,0,0,3.577-3.576V164.7Z" fill="#a80000"/><path d="M301.421,282.505c-1.885,0-3.53-4.052-3.53-4.052V155.26a4.194,4.194,0,0,1,4.057-4.084h88.6a4.154,4.154,0,0,1,3.814,4.084V279.093a3.944,3.944,0,0,1-3.814,3.848H301.421Z"/><path d="M304.063,282.941a3.819,3.819,0,0,1-3.819-3.819V155.26a3.992,3.992,0,0,1,3.832-4.084h88.807a3.992,3.992,0,0,1,3.832,4.084V279.107a3.834,3.834,0,0,1-3.834,3.834Z" fill="#505050"/><rect x="310.832" y="161.765" width="74.118" height="110.588" fill="#ffb900"/><polygon points="388.685 218.235 388.908 221.765 391.538 221.765 392.199 218.235 388.685 218.235" fill="#969696"/><path d="M479.9,279.619l-3.576-6.91,4.528-2.389,3.6,7.152a2.426,2.426,0,0,1-.953,3.342h0A2.6,2.6,0,0,1,479.9,279.619Z" fill="#505050"/><polygon points="373.026 35.001 356.098 43.606 347.735 47.893 456.284 259.574 464.89 255.288 481.575 246.683 373.026 35.001" fill="#ffb900"/><polygon points="346.306 38.578 350.358 46.463 370.403 36.195 366.108 28.333 346.306 38.578" fill="#505050"/><polygon points="484.691 273.661 481.575 246.683 456.284 259.574 476.57 277.713 484.691 273.661" fill="#737373"/><polygon points="347.735 47.893 456.284 259.574 464.89 255.288 356.098 43.606 347.735 47.893" fill="#db9d00"/><path d="M361.345,12.342a4.067,4.067,0,0,0-5.481-1.929l-9.558,5.029c-.953.477-2.381,1.187-3.81,1.905-1.194.476-2.624,1.187-3.577,1.662l-1.195.719a4.2,4.2,0,0,0-1.671,5.481l7.629,14.8,8.347-4.528,16.7-8.6Z" fill="#db9d00"/><path d="M351.553,34.525,343.206,18.3a1.576,1.576,0,0,0-1.67-.477,22.614,22.614,0,0,1-2.615,1.187h0a5.791,5.791,0,0,0-2.39,7.394l6.441,12.416c.477.71,1.187.953,1.663.476l6.2-3.1A1.315,1.315,0,0,0,351.553,34.525Z" fill="#cc8e02"/><polygon points="461.297 206.838 445.564 176.526 448.898 174.621 464.413 205.175 461.297 206.838" fill="#db9d00"/><polygon points="461.297 206.838 445.564 176.526 447.469 175.339 463.218 205.885 461.297 206.838" fill="#db9d00"/><rect x="316.715" y="182.941" width="62.353" height="78.824" fill="#fff"/><path d="M343.206,174.706a4.652,4.652,0,1,1,9.3,0Z" fill="#002050"/><path d="M367.743,174.706H356.587a8.446,8.446,0,0,0-16.892,0h-11.67a1.888,1.888,0,0,0-1.9,1.931v6.744a1.918,1.918,0,0,0,1.913,1.913h39.709a1.89,1.89,0,0,0,1.907-1.93v-6.745A1.912,1.912,0,0,0,367.743,174.706Z" fill="#505050"/><path d="M367.779,218.235H328.064a2.232,2.232,0,0,1-2.146-1.513,2.341,2.341,0,0,1,2.017-3.193h39.729a2.217,2.217,0,0,1,2.14,1.533A2.337,2.337,0,0,1,367.779,218.235Z" fill="#939393"/><path d="M347.6,205.294H327.591a2.253,2.253,0,0,1-2.052-3.155,2.5,2.5,0,0,1,2.356-1.551h19.4a2.493,2.493,0,0,1,2.357,1.554A2.255,2.255,0,0,1,347.6,205.294Z" fill="#939393"/><path d="M367.779,225.294h-39.74a2.206,2.206,0,0,1-2.131-1.532,2.34,2.34,0,0,1,2.025-3.174H367.65a2.232,2.232,0,0,1,2.147,1.522A2.336,2.336,0,0,1,367.779,225.294Z" fill="#939393"/><path d="M367.779,233.529H328.05A2.217,2.217,0,0,1,325.91,232a2.337,2.337,0,0,1,2.025-3.172h39.729a2.217,2.217,0,0,1,2.14,1.533A2.337,2.337,0,0,1,367.779,233.529Z" fill="#939393"/><path d="M367.779,241.765H328.063a2.231,2.231,0,0,1-2.147-1.523,2.335,2.335,0,0,1,2.019-3.183h39.74a2.207,2.207,0,0,1,2.132,1.533A2.343,2.343,0,0,1,367.779,241.765Z" fill="#939393"/><path d="M367.779,248.824h-39.74a2.207,2.207,0,0,1-2.131-1.532,2.34,2.34,0,0,1,2.025-3.174H367.65a2.23,2.23,0,0,1,2.147,1.522A2.336,2.336,0,0,1,367.779,248.824Z" fill="#939393"/></svg>