<svg width="636" height="300" viewBox="0 0 636 300" fill="none" xmlns="http://www.w3.org/2000/svg">
<path d="M406.181 271.62L164.811 182.5L161.551 185.8C161.191 186.1 160.861 186.43 160.561 186.79C159.261 188.32 158.471 190.3 158.471 192.46V269.78C158.471 274.08 161.591 277.75 165.841 278.43C184.301 281.41 234.451 288.72 281.591 288.72C328.731 288.72 378.881 281.4 397.341 278.43C399.251 278.12 400.931 277.2 402.201 275.9L406.181 271.62Z" fill="#7F7F7F"/>
<path d="M408.051 266.43C408.051 270.73 404.931 274.39 400.681 275.08C382.221 278.06 332.071 285.38 284.931 285.38C237.791 285.38 187.641 278.06 169.171 275.08C164.931 274.39 161.811 270.73 161.811 266.43V189.1C161.811 184.26 165.731 180.34 170.561 180.34H399.301C404.141 180.34 408.051 184.26 408.051 189.1V266.43Z" fill="#A6A6A6"/>
<path d="M408.051 250.91V189.11C408.051 184.27 404.131 180.35 399.301 180.35H337.561L408.051 250.91Z" fill="#989898"/>
<path d="M193.959 191.88H180.619V197.95H193.959V191.88Z" fill="#C8C8C8"/>
<path d="M210.94 191.88H197.6V197.95H210.94V191.88Z" fill="#C8C8C8"/>
<path d="M227.92 191.88H214.58V197.95H227.92V191.88Z" fill="#C8C8C8"/>
<path d="M244.901 191.88H231.561V197.95H244.901V191.88Z" fill="#C8C8C8"/>
<path d="M261.891 191.88H248.551V197.95H261.891V191.88Z" fill="#C8C8C8"/>
<path d="M278.869 191.88H265.529V197.95H278.869V191.88Z" fill="#C8C8C8"/>
<path d="M295.85 191.88H282.51V197.95H295.85V191.88Z" fill="#C8C8C8"/>
<path d="M312.83 191.88H299.49V197.95H312.83V191.88Z" fill="#C8C8C8"/>
<path d="M329.811 191.88H316.471V197.95H329.811V191.88Z" fill="#C8C8C8"/>
<path d="M346.799 191.88H333.459V197.95H346.799V191.88Z" fill="#C8C8C8"/>
<path d="M183.04 206.46H173.34V214.96H183.04V206.46Z" fill="#C8C8C8"/>
<path d="M196.38 206.46H186.68V214.96H196.38V206.46Z" fill="#C8C8C8"/>
<path d="M209.729 206.46H200.029V214.96H209.729V206.46Z" fill="#C8C8C8"/>
<path d="M223.069 206.46H213.369V214.96H223.069V206.46Z" fill="#C8C8C8"/>
<path d="M236.409 206.46H226.709V214.96H236.409V206.46Z" fill="#C8C8C8"/>
<path d="M249.761 206.46H240.061V214.96H249.761V206.46Z" fill="#C8C8C8"/>
<path d="M263.1 206.46H253.4V214.96H263.1V206.46Z" fill="#C8C8C8"/>
<path d="M276.44 206.46H266.74V214.96H276.44V206.46Z" fill="#C8C8C8"/>
<path d="M289.79 206.46H280.09V214.96H289.79V206.46Z" fill="#C8C8C8"/>
<path d="M303.13 206.46H293.43V214.96H303.13V206.46Z" fill="#C8C8C8"/>
<path d="M320.11 206.46H310.41V214.96H320.11V206.46Z" fill="#C8C8C8"/>
<path d="M333.45 206.46H323.75V214.96H333.45V206.46Z" fill="#C8C8C8"/>
<path d="M346.8 206.46H337.1V214.96H346.8V206.46Z" fill="#C8C8C8"/>
<path d="M320.11 218.6H310.41V227.1H320.11V218.6Z" fill="#C8C8C8"/>
<path d="M333.45 218.6H323.75V227.1H333.45V218.6Z" fill="#C8C8C8"/>
<path d="M346.8 218.6H337.1V227.1H346.8V218.6Z" fill="#C8C8C8"/>
<path d="M320.11 230.74H310.41V239.24H320.11V230.74Z" fill="#C8C8C8"/>
<path d="M333.45 230.74H323.75V239.24H333.45V230.74Z" fill="#C8C8C8"/>
<path d="M346.8 230.74H337.1V239.24H346.8V230.74Z" fill="#C8C8C8"/>
<path d="M320.11 242.88H310.41V251.38H320.11V242.88Z" fill="#C8C8C8"/>
<path d="M333.45 242.88H323.75V251.38H333.45V242.88Z" fill="#C8C8C8"/>
<path d="M346.8 242.88H337.1V251.38H346.8V242.88Z" fill="#C8C8C8"/>
<path d="M183.04 218.6H173.34V227.1H183.04V218.6Z" fill="#C8C8C8"/>
<path d="M196.38 218.6H186.68V227.1H196.38V218.6Z" fill="#C8C8C8"/>
<path d="M209.729 218.6H200.029V227.1H209.729V218.6Z" fill="#C8C8C8"/>
<path d="M223.069 218.6H213.369V227.1H223.069V218.6Z" fill="#C8C8C8"/>
<path d="M236.409 218.6H226.709V227.1H236.409V218.6Z" fill="#C8C8C8"/>
<path d="M249.761 218.6H240.061V227.1H249.761V218.6Z" fill="#C8C8C8"/>
<path d="M263.1 218.6H253.4V227.1H263.1V218.6Z" fill="#C8C8C8"/>
<path d="M276.44 218.6H266.74V227.1H276.44V218.6Z" fill="#C8C8C8"/>
<path d="M289.79 218.6H280.09V227.1H289.79V218.6Z" fill="#C8C8C8"/>
<path d="M303.13 218.6H293.43V227.1H303.13V218.6Z" fill="#C8C8C8"/>
<path d="M183.04 230.74H173.34V239.24H183.04V230.74Z" fill="#C8C8C8"/>
<path d="M196.38 230.74H186.68V239.24H196.38V230.74Z" fill="#C8C8C8"/>
<path d="M209.729 230.74H200.029V239.24H209.729V230.74Z" fill="#C8C8C8"/>
<path d="M223.069 230.74H213.369V239.24H223.069V230.74Z" fill="#C8C8C8"/>
<path d="M236.409 230.74H226.709V239.24H236.409V230.74Z" fill="#C8C8C8"/>
<path d="M249.761 230.74H240.061V239.24H249.761V230.74Z" fill="#C8C8C8"/>
<path d="M263.1 230.74H253.4V239.24H263.1V230.74Z" fill="#C8C8C8"/>
<path d="M276.44 230.74H266.74V239.24H276.44V230.74Z" fill="#C8C8C8"/>
<path d="M289.79 230.74H280.09V239.24H289.79V230.74Z" fill="#C8C8C8"/>
<path d="M303.13 230.74H293.43V239.24H303.13V230.74Z" fill="#C8C8C8"/>
<path d="M183.04 242.88H173.34V251.38H183.04V242.88Z" fill="#C8C8C8"/>
<path d="M196.38 242.88H186.68V251.38H196.38V242.88Z" fill="#C8C8C8"/>
<path d="M209.729 242.88H200.029V251.38H209.729V242.88Z" fill="#C8C8C8"/>
<path d="M223.069 242.88H213.369V251.38H223.069V242.88Z" fill="#C8C8C8"/>
<path d="M236.409 242.88H226.709V251.38H236.409V242.88Z" fill="#C8C8C8"/>
<path d="M249.761 242.88H240.061V251.38H249.761V242.88Z" fill="#C8C8C8"/>
<path d="M263.1 242.88H253.4V251.38H263.1V242.88Z" fill="#C8C8C8"/>
<path d="M276.44 242.88H266.74V251.38H276.44V242.88Z" fill="#C8C8C8"/>
<path d="M289.79 242.88H280.09V251.38H289.79V242.88Z" fill="#C8C8C8"/>
<path d="M303.13 242.88H293.43V251.38H303.13V242.88Z" fill="#C8C8C8"/>
<path d="M183.04 255.03H173.34V263.53H183.04V255.03Z" fill="#C8C8C8"/>
<path d="M196.38 255.03H186.68V263.53H196.38V255.03Z" fill="#C8C8C8"/>
<path d="M276.449 255.03H200.029V263.53H276.449V255.03Z" fill="#C8C8C8"/>
<path d="M289.79 255.03H280.09V263.53H289.79V255.03Z" fill="#C8C8C8"/>
<path d="M303.13 255.03H293.43V263.53H303.13V255.03Z" fill="#C8C8C8"/>
<path d="M364.989 218.6H355.289V227.1H364.989V218.6Z" fill="#C8C8C8"/>
<path d="M378.329 218.6H368.629V227.1H378.329V218.6Z" fill="#C8C8C8"/>
<path d="M391.68 218.6H381.98V227.1H391.68V218.6Z" fill="#C8C8C8"/>
<path d="M364.989 230.74H355.289V239.24H364.989V230.74Z" fill="#C8C8C8"/>
<path d="M378.329 230.74H368.629V239.24H378.329V230.74Z" fill="#C8C8C8"/>
<path d="M391.68 230.74H381.98V239.24H391.68V230.74Z" fill="#C8C8C8"/>
<path d="M364.989 242.88H355.289V251.38H364.989V242.88Z" fill="#C8C8C8"/>
<path d="M378.329 242.88H368.629V251.38H378.329V242.88Z" fill="#C8C8C8"/>
<path d="M364.989 255.03H355.289V263.53H364.989V255.03Z" fill="#C8C8C8"/>
<path d="M378.329 255.03H368.629V263.53H378.329V255.03Z" fill="#C8C8C8"/>
<path d="M391.68 242.88H381.98V263.52H391.68V242.88Z" fill="#C8C8C8"/>
<path d="M390.26 194.31C390.26 196.21 388.72 197.74 386.83 197.74C384.93 197.74 383.4 196.2 383.4 194.31C383.4 192.41 384.93 190.88 386.83 190.88C388.72 190.88 390.26 192.42 390.26 194.31Z" fill="#EDAC28"/>
<path d="M448.231 267.17C430.491 267.17 418.361 257.46 419.011 243.95L421.691 191.21C421.871 184.83 427.081 179.75 433.461 179.75H463.291C468.671 179.75 473.071 184.04 473.221 189.42L476.041 244.1C476.591 257.45 465.981 267.17 448.231 267.17Z" fill="#A6A6A6"/>
<path d="M455.89 244.1H439.06C435.67 244.1 432.92 241.35 432.92 237.95V189.12C432.92 185.95 435.48 183.39 438.65 183.39H455.89C459.28 183.39 462.03 186.14 462.03 189.54V237.96C462.03 241.34 459.28 244.1 455.89 244.1Z" fill="#C8C8C8"/>
<path d="M447.481 211.31C446.141 211.31 445.051 210.22 445.051 208.88V189.45C445.051 188.11 446.141 187.02 447.481 187.02C448.821 187.02 449.911 188.11 449.911 189.45V208.88C449.901 210.22 448.821 211.31 447.481 211.31Z" fill="#A6A6A6"/>
<path d="M448.69 190.67H446.26V200.38H448.69V190.67Z" fill="#7F7F7F"/>
<path d="M260.391 52.1099H209.391C189.231 52.1099 172.891 68.4499 172.891 88.6099V116.61C172.891 136.77 189.231 153.11 209.391 153.11H232.391H255.891H260.391C280.551 153.11 296.891 136.77 296.891 116.61V88.6099C296.891 68.4499 280.551 52.1099 260.391 52.1099Z" fill="#EDAC28"/>
<path d="M274.98 150.07C274.6 148.81 274.21 147.51 273.77 146.14C266.3 122.77 245.77 100.22 232.75 106.3C228.45 108.31 231.77 116.38 234.93 119.85L258.62 153.11H260.39C265.58 153.11 270.51 152.02 274.98 150.07Z" fill="url(#paint0_radial)"/>
<path d="M254.641 130.86C254.371 122.02 248.641 101.4 224.971 105.91C218.731 107.1 211.521 110.36 208.971 112.86C206.371 115.4 208.481 117.23 206.891 123.61C205.541 129 205.741 141.3 206.331 152.97C207.341 153.05 208.361 153.11 209.391 153.11H229.451L251.121 175C252.061 175.95 253.691 175.28 253.681 173.94L253.121 153.11C252.381 142.5 254.681 132.26 254.641 130.86Z" fill="url(#paint1_radial)"/>
<path d="M210.54 111.44C195.3 119.45 189.08 138.72 186.26 144.73C190.64 148.35 195.25 151.17 202.21 152.44C204.13 149.12 207.37 144.54 211.01 140.5C227.89 121.73 217.99 107.52 210.54 111.44Z" fill="url(#paint2_radial)"/>
<path d="M178.631 75.9699C178.641 75.9599 178.641 75.9599 178.641 75.9599C178.631 75.9499 178.621 75.9299 178.621 75.9299C178.611 75.9199 178.601 75.8999 178.591 75.8899C176.941 73.6599 177.151 70.6499 178.941 68.6499C176.361 67.9499 174.551 65.5199 174.731 62.7499C174.911 59.9999 177.011 57.8099 179.651 57.4399C178.121 55.2499 178.301 52.2099 180.221 50.2199C182.131 48.2099 185.151 47.8899 187.401 49.2999C187.641 46.6299 189.731 44.4299 192.481 44.1199C195.231 43.8099 197.741 45.5099 198.571 48.0299C200.461 46.1499 203.471 45.7999 205.781 47.3199C208.081 48.8599 208.931 51.7799 207.941 54.2499C210.591 54.0199 213.131 55.6899 213.911 58.3299C214.701 60.9899 213.471 63.7599 211.121 65.0199C213.301 66.5499 214.181 69.4499 213.091 71.9899C211.981 74.5299 209.261 75.8699 206.641 75.3199C207.251 77.5699 206.411 79.9799 204.521 81.3799C204.261 81.5799 203.961 81.7499 203.671 81.9099C201.191 83.1599 198.241 82.4299 196.591 80.3399C195.461 82.7299 192.751 84.1099 190.071 83.4599C187.371 82.8299 185.581 80.3799 185.661 77.7099C183.231 78.8599 180.271 78.1799 178.631 75.9699Z" fill="url(#paint3_radial)"/>
<path d="M226.241 94.3701L224.821 94.9101C214.201 98.9601 202.301 93.6301 198.251 83.0101L197.711 81.5901C193.761 71.2301 198.961 59.6201 209.321 55.6701L211.211 54.9501C221.571 51.0001 233.181 56.2001 237.131 66.5601L237.851 68.4501C241.801 78.8201 236.611 90.4201 226.241 94.3701Z" fill="#EBC9A7"/>
<path d="M215.061 109.04C215.061 109.04 219.721 113.28 229.191 111.23C237.491 108.41 238.001 105.37 238.001 105.37C238.001 105.37 232.661 105.31 230.781 99.94L228.871 90.48L213.951 91.5C213.951 91.5 218.781 98.7 218.831 106.27C217.791 107.98 215.061 109.04 215.061 109.04Z" fill="url(#paint4_radial)"/>
<path d="M232.32 97.5299L231.15 97.9699C222.18 101.39 212.13 96.8899 208.71 87.9199L206.66 82.5399C203.33 73.7999 207.71 64.0099 216.45 60.6799L219.2 59.6299C226.57 56.8199 234.82 60.5199 237.63 67.8899L241.29 77.4799C244.36 85.4999 240.34 94.4799 232.32 97.5299Z" fill="#9B643D"/>
<path d="M234.212 68.9399L240.392 85.3599L231.212 88.2199L225.602 73.4999L234.212 68.9399Z" fill="url(#paint5_radial)"/>
<path d="M206.661 81.96C203.661 82.96 202.031 86.19 203.031 89.19C204.031 92.19 207.261 93.82 210.261 92.82L212.091 92.21L206.661 81.96Z" fill="#9B643D"/>
<path d="M218.341 82.0198C218.091 80.7698 218.711 79.3598 220.051 78.6498C220.681 78.3798 221.441 78.2198 222.171 78.4398C222.891 78.6598 223.441 79.1098 223.721 79.7698C223.821 79.9998 223.721 80.2598 223.491 80.3598C223.391 80.4098 223.281 80.4098 223.181 80.3798L223.031 80.3298C222.141 80.0498 221.571 80.0798 220.941 80.4498C220.341 80.6698 219.891 81.3498 219.291 82.1398L219.231 82.2298C219.071 82.4498 218.751 82.4898 218.541 82.3298C218.431 82.2398 218.361 82.1398 218.341 82.0198Z" fill="#231F20"/>
<path d="M231.3 77.0501C231.05 75.8001 231.67 74.3901 233.01 73.6801C233.64 73.4101 234.4 73.2501 235.13 73.4701C235.85 73.6901 236.4 74.1401 236.68 74.8001C236.78 75.0301 236.68 75.2901 236.45 75.3901C236.35 75.4401 236.24 75.4401 236.14 75.4101L235.99 75.3601C235.1 75.0801 234.53 75.1101 233.9 75.4801C233.3 75.7001 232.85 76.3801 232.25 77.1701L232.19 77.2601C232.03 77.4801 231.71 77.5201 231.5 77.3601C231.38 77.2701 231.32 77.1701 231.3 77.0501Z" fill="#231F20"/>
<path d="M225.041 82.59C225.801 83.85 230.281 85.8 230.281 85.8C230.281 85.8 229.931 84.67 230.991 83.81C232.701 82.43 232.881 79.88 231.461 78.21C230.411 76.97 229.461 76.86 227.961 76.63C226.611 76.43 226.051 74.77 226.051 74.77C226.051 74.77 223.051 79.28 225.041 82.59Z" fill="#9B643D"/>
<path d="M231.851 87.48C232.341 87.42 232.781 87.83 232.721 88.32C232.511 90.16 231.051 91.68 229.131 91.91C227.221 92.14 225.451 91 224.821 89.25C224.651 88.79 224.981 88.29 225.471 88.23L231.851 87.48Z" fill="#6D3713"/>
<path d="M208.42 73.7C211.364 73.7 213.75 71.3137 213.75 68.37C213.75 65.4264 211.364 63.04 208.42 63.04C205.476 63.04 203.09 65.4264 203.09 68.37C203.09 71.3137 205.476 73.7 208.42 73.7Z" fill="#EBC9A7"/>
<path d="M205.56 82.1501C208.117 82.1501 210.19 80.0772 210.19 77.5201C210.19 74.9631 208.117 72.8901 205.56 72.8901C203.003 72.8901 200.93 74.9631 200.93 77.5201C200.93 80.0772 203.003 82.1501 205.56 82.1501Z" fill="#EBC9A7"/>
<path d="M232.31 87.5598C231.63 88.4398 230.05 89.0998 228.19 89.1798C226.93 89.2298 225.76 89.0098 224.91 88.6098C225.01 88.4098 225.23 88.2798 225.47 88.2398L231.85 87.4798C232 87.4598 232.17 87.4998 232.31 87.5598Z" fill="white"/>
<path d="M266.582 96.6698C264.922 97.5498 262.862 97.9798 260.392 97.9798C257.202 97.9798 254.652 96.9498 252.732 94.8998C250.812 92.8498 249.852 90.1598 249.852 86.8198C249.852 83.2398 250.932 80.3398 253.082 78.1298C255.242 75.9198 257.972 74.8198 261.282 74.8198C263.402 74.8198 265.172 75.1298 266.562 75.7398V78.5398C264.962 77.6398 263.182 77.1998 261.252 77.1998C258.682 77.1998 256.592 78.0598 254.992 79.7798C253.392 81.4998 252.592 83.7998 252.592 86.6698C252.592 89.3998 253.342 91.5698 254.832 93.1898C256.322 94.8098 258.292 95.6198 260.712 95.6198C262.962 95.6198 264.912 95.1198 266.552 94.1198V96.6698H266.582Z" fill="#505050"/>
<path d="M286.421 81.4797L286.061 83.1397H281.981L281.001 87.8297H285.391L284.971 89.4897H280.671L279.291 95.6897H277.321L278.661 89.4897H274.751L273.441 95.6897H271.491L272.801 89.4897H268.711L269.021 87.8297H273.161L274.111 83.1397H269.781L270.111 81.4797H274.441L275.751 75.1997H277.721L276.411 81.4797H280.351L281.691 75.1997H283.611L282.301 81.4797H286.421ZM280.051 83.1397H276.111L275.081 87.8297H279.051L280.051 83.1397Z" fill="#505050"/>
<path d="M343.74 33.8901H394.74C414.9 33.8901 431.24 50.2301 431.24 70.3901V98.3901C431.24 118.55 414.9 134.89 394.74 134.89H371.74L352.11 156.27C351.05 157.42 349.13 156.72 349.07 155.16L348.24 134.9H343.74C323.58 134.9 307.24 118.56 307.24 98.4001V70.4001C307.24 50.2301 323.58 33.8901 343.74 33.8901Z" fill="#8FC6E5"/>
<path d="M309.49 111.02C311.88 117.48 316.04 123.08 321.39 127.23C325.45 122.19 329.94 116 334.08 108.92C336.67 104.5 343.49 84.7598 343.86 75.7598C338.71 75.7898 333.86 77.3798 327.64 82.7698C324.02 85.9098 315.65 99.4698 309.49 111.02Z" fill="url(#paint6_radial)"/>
<path d="M348.495 40.3087C350.334 38.5071 350.319 35.5118 348.464 33.6185C346.608 31.7252 343.614 31.6508 341.775 33.4524C339.937 35.2539 339.952 38.2492 341.807 40.1425C343.663 42.0358 346.657 42.1102 348.495 40.3087Z" fill="#856430"/>
<path d="M359.203 21.6922C361.297 19.6393 361.278 16.2229 359.159 14.0614C357.041 11.8998 353.625 11.8117 351.531 13.8645C349.436 15.9174 349.456 19.3338 351.574 21.4954C353.693 23.6569 357.108 23.745 359.203 21.6922Z" fill="#856430"/>
<path d="M352.232 25.2962C354.326 23.2433 354.307 19.8269 352.188 17.6654C350.07 15.5038 346.654 15.4157 344.56 17.4685C342.465 19.5214 342.485 22.9378 344.604 25.0994C346.722 27.2609 350.137 27.349 352.232 25.2962Z" fill="#856430"/>
<path d="M348.576 32.6805C350.67 30.6276 350.651 27.2112 348.532 25.0496C346.414 22.8881 342.998 22.8 340.904 24.8528C338.809 26.9057 338.829 30.3221 340.947 32.4836C343.066 34.6452 346.481 34.7333 348.576 32.6805Z" fill="#856430"/>
<path d="M378.734 40.8434C380.572 39.0418 380.558 36.0465 378.702 34.1532C376.846 32.2599 373.852 32.1855 372.014 33.987C370.176 35.7886 370.19 38.7839 372.046 40.6772C373.901 42.5705 376.896 42.6449 378.734 40.8434Z" fill="#856430"/>
<path d="M368.289 22.0589C370.383 20.006 370.364 16.5896 368.245 14.4281C366.126 12.2665 362.711 12.1784 360.617 14.2312C358.522 16.2841 358.542 19.7005 360.66 21.8621C362.779 24.0236 366.194 24.1117 368.289 22.0589Z" fill="#856430"/>
<path d="M375.962 25.9256C378.057 23.8727 378.037 20.4563 375.919 18.2947C373.8 16.1332 370.385 16.0451 368.29 18.0979C366.196 20.1508 366.215 23.5672 368.334 25.7288C370.453 27.8903 373.868 27.9784 375.962 25.9256Z" fill="#856430"/>
<path d="M379.011 34.1941C381.106 32.1413 381.086 28.7249 378.968 26.5633C376.849 24.4018 373.434 24.3137 371.339 26.3665C369.245 28.4193 369.264 31.8358 371.383 33.9973C373.501 36.1589 376.917 36.247 379.011 34.1941Z" fill="#856430"/>
<path d="M368.92 53.54L348.79 53.18C345.07 53.11 342.16 47.14 342.23 43.45L342.42 33.05C342.57 24.47 349.7 17.64 358.35 17.79L360.65 17.83C369.29 17.98 376.18 25.07 376.02 33.65L375.83 44.05C375.89 48.98 372.64 53.6 368.92 53.54Z" fill="#856430"/>
<path d="M362.19 75.5501L355.52 75.4301C341.38 75.1801 329.9 75.6301 329.67 88.3801L328.9 131.73C333.44 133.75 338.45 134.88 343.74 134.88H348.24L349.1 155.98C349.15 157.23 350.69 157.8 351.54 156.87L371.74 134.88H386.75L387.56 89.4101C387.79 76.6601 376.34 75.8001 362.19 75.5501Z" fill="url(#paint7_radial)"/>
<path d="M371.529 75.9699C369.339 78.6699 362.599 84.7099 359.089 87.7399C357.639 88.9899 355.949 88.8399 354.779 87.6299C351.599 84.3399 347.349 78.0099 346.189 75.5499C350.329 74.0199 359.249 73.8999 359.249 73.8999C359.249 73.8999 366.759 74.1799 371.529 75.9699Z" fill="#F9DDBF"/>
<path d="M367.259 51.2002L350.849 50.9102L350.459 72.5302C350.419 74.8702 346.279 75.7502 346.279 75.7502L371.429 76.0602C371.429 76.0602 366.839 74.8802 366.879 72.5302L367.259 51.2002Z" fill="url(#paint8_radial)"/>
<path d="M359.459 66.86L355.379 66.79C348.709 66.67 343.399 61.17 343.509 54.49L343.849 35.61C343.969 28.94 349.469 23.63 356.149 23.74L360.229 23.81C366.899 23.93 372.209 29.43 372.099 36.11L371.759 54.99C371.639 61.67 366.139 66.98 359.459 66.86Z" fill="#F9DDBF"/>
<path d="M362.18 44.2904C362.207 43.131 361.719 42.1791 361.09 42.1643C360.46 42.1496 359.928 43.0776 359.901 44.237C359.874 45.3965 360.362 46.3484 360.991 46.3631C361.621 46.3778 362.153 45.4499 362.18 44.2904Z" fill="#3A312E"/>
<path d="M345.971 59.14L354.021 61.63L354.431 53.85C354.441 53.27 354.161 52.71 353.671 52.38L351.201 50.69C350.661 50.32 350.521 49.59 350.881 49.05L353.111 45.71C353.641 44.91 353.941 43.98 353.961 43.03L354.221 31.12L346.621 31L345.971 59.14Z" fill="url(#paint9_radial)"/>
<path d="M349.887 44.0131C349.914 42.8536 349.426 41.9018 348.797 41.887C348.167 41.8723 347.635 42.8003 347.608 43.9597C347.581 45.1192 348.069 46.071 348.698 46.0858C349.328 46.1005 349.86 45.1725 349.887 44.0131Z" fill="#3A312E"/>
<path d="M376.011 47.8898C375.971 50.8198 373.571 53.1598 370.641 53.1298C370.441 53.1298 367.871 53.0698 367.681 53.0498C365.031 52.7198 365.371 50.4898 365.401 47.7598C365.431 45.0598 365.111 42.8098 367.731 42.5098C367.951 42.4898 370.541 42.5198 370.771 42.5198C373.701 42.5598 376.041 44.9598 376.011 47.8898Z" fill="#F9DDBF"/>
<path d="M366.45 21.0398L346.31 20.5098L342 35.9998L343.62 42.3398L344.52 32.8598C345.13 29.3398 347.8 28.0798 350.59 28.1298L362.85 28.3498C365.64 28.3998 368.01 30.5098 368.53 33.3998L368.54 39.9898C368.54 41.4598 369.64 42.6598 371.03 42.7298L372.59 42.7998L371.89 30.1098L366.45 21.0398Z" fill="#856430"/>
<path d="M364.011 31.5398C366.988 31.5398 369.401 29.1266 369.401 26.1498C369.401 23.173 366.988 20.7598 364.011 20.7598C361.034 20.7598 358.621 23.173 358.621 26.1498C358.621 29.1266 361.034 31.5398 364.011 31.5398Z" fill="#856430"/>
<path d="M359.56 56.8299C360.07 56.6999 360.58 57.0699 360.59 57.5899C360.62 59.5599 359.29 61.3599 357.3 61.8699C355.32 62.3699 353.3 61.4099 352.39 59.6599C352.15 59.1999 352.43 58.6299 352.94 58.4999L359.56 56.8299Z" fill="#634319"/>
<path d="M360 56.85C359.41 57.87 357.83 58.78 355.88 59.12C354.56 59.35 353.3 59.27 352.34 58.97C352.42 58.75 352.63 58.58 352.88 58.51L359.49 56.84C359.66 56.79 359.84 56.8 360 56.85Z" fill="white"/>
<path d="M398.05 54.35H389.3V62.1H397.39V64.46H389.3V74.38H386.68V51.98H398.06V54.35H398.05Z" fill="#505050"/>
<path d="M417.579 58.26L417.219 59.92H413.139L412.159 64.61H416.549L416.129 66.27H411.829L410.449 72.47H408.479L409.819 66.27H405.909L404.599 72.47H402.649L403.959 66.27H399.869L400.179 64.61H404.319L405.269 59.92H400.939L401.269 58.26H405.599L406.909 51.98H408.879L407.569 58.26H411.509L412.849 51.98H414.769L413.459 58.26H417.579ZM411.209 59.92H407.269L406.239 64.61H410.209L411.209 59.92Z" fill="#505050"/>
<path d="M409.44 129.48C402.42 101.72 392.9 88.2502 386.99 82.4202C381.08 76.5802 377.75 76.7802 372.86 79.4102C367.73 82.1702 365.74 90.0802 369.47 94.4502C369.47 94.4502 382.88 116.15 390.21 133.83C390.35 134.18 390.5 134.53 390.64 134.89H394.74C400.17 134.89 405.31 133.7 409.94 131.57C409.78 130.87 409.62 130.18 409.44 129.48Z" fill="#106EBE"/>
<defs>
<radialGradient id="paint0_radial" cx="0" cy="0" r="1" gradientUnits="userSpaceOnUse" gradientTransform="translate(247.85 143.68) scale(20.7786)">
<stop stop-color="#106EBE"/>
<stop offset="0.1567" stop-color="#0B84CD"/>
<stop offset="0.4107" stop-color="#05A3E1"/>
<stop offset="0.6276" stop-color="#01B5EE"/>
<stop offset="0.7804" stop-color="#00BCF2"/>
</radialGradient>
<radialGradient id="paint1_radial" cx="0" cy="0" r="1" gradientUnits="userSpaceOnUse" gradientTransform="translate(205.369 137.413) scale(19.484)">
<stop stop-color="#106EBE"/>
<stop offset="0.7804" stop-color="#00BCF2"/>
</radialGradient>
<radialGradient id="paint2_radial" cx="0" cy="0" r="1" gradientUnits="userSpaceOnUse" gradientTransform="translate(164.048 125.447) scale(24.413)">
<stop stop-color="#106EBE"/>
<stop offset="0.1964" stop-color="#0A8BD1"/>
<stop offset="0.4235" stop-color="#05A6E3"/>
<stop offset="0.6255" stop-color="#01B6EE"/>
<stop offset="0.7804" stop-color="#00BCF2"/>
</radialGradient>
<radialGradient id="paint3_radial" cx="0" cy="0" r="1" gradientUnits="userSpaceOnUse" gradientTransform="translate(208.116 72.646) scale(17.7126)">
<stop offset="0.0727" stop-color="#BD875E"/>
<stop offset="0.64" stop-color="#DBB28E"/>
<stop offset="1" stop-color="#EBC9A7"/>
</radialGradient>
<radialGradient id="paint4_radial" cx="0" cy="0" r="1" gradientUnits="userSpaceOnUse" gradientTransform="translate(226.735 92.0516) rotate(-11.5257) scale(11.6766)">
<stop stop-color="#591C17"/>
<stop offset="0.5453" stop-color="#7B422B"/>
<stop offset="0.9994" stop-color="#9B643D"/>
</radialGradient>
<radialGradient id="paint5_radial" cx="0" cy="0" r="1" gradientUnits="userSpaceOnUse" gradientTransform="translate(229.159 81.3697) rotate(-20.8672) scale(8.60732 8.1845)">
<stop stop-color="#591C17"/>
<stop offset="0.5455" stop-color="#7B422B" stop-opacity="0.4543"/>
<stop offset="0.9997" stop-color="#9B643D" stop-opacity="0"/>
</radialGradient>
<radialGradient id="paint6_radial" cx="0" cy="0" r="1" gradientUnits="userSpaceOnUse" gradientTransform="translate(335.316 121.792) scale(21.2656)">
<stop stop-color="#185D98"/>
<stop offset="0.8794" stop-color="#106EBE"/>
</radialGradient>
<radialGradient id="paint7_radial" cx="0" cy="0" r="1" gradientUnits="userSpaceOnUse" gradientTransform="translate(387.444 119.671) scale(24.5448)">
<stop offset="0.0243" stop-color="#164FA6"/>
<stop offset="0.9166" stop-color="#106EBE"/>
</radialGradient>
<radialGradient id="paint8_radial" cx="0" cy="0" r="1" gradientUnits="userSpaceOnUse" gradientTransform="translate(357.592 55.4738) rotate(1.01996) scale(21.6284)">
<stop offset="0.2586" stop-color="#CF8E68"/>
<stop offset="0.7098" stop-color="#F9DDBF"/>
</radialGradient>
<radialGradient id="paint9_radial" cx="0" cy="0" r="1" gradientUnits="userSpaceOnUse" gradientTransform="translate(356.84 49.3034) rotate(1.74463) scale(11.4774)">
<stop offset="0.1937" stop-color="#C78760"/>
<stop offset="0.7053" stop-color="#F9DDBF"/>
</radialGradient>
</defs>
</svg>
