<svg id="Layer_1" data-name="Layer 1" xmlns="http://www.w3.org/2000/svg" xmlns:xlink="http://www.w3.org/1999/xlink" viewBox="0 0 636 300"><defs><style>.cls-1,.cls-14{fill:none;}.cls-2{fill:#b2b2b2;}.cls-3{fill:#b3d6f2;}.cls-4{fill:#505050;}.cls-5{fill:#282828;}.cls-6{fill:#939393;}.cls-7{fill:#d2d2d2;}.cls-8{fill:#fff;}.cls-9{fill:#bad80a;}.cls-10{fill:#91a80a;}.cls-11{fill:#3c3c3c;}.cls-12{fill:#107c10;}.cls-13{fill:#004b1c;}.cls-14{stroke:#666;stroke-miterlimit:10;stroke-width:1.83px;}.cls-15{fill:#c78e00;}.cls-16{fill:#737373;}.cls-17{fill:#f0ae00;}.cls-18{fill:#828282;}.cls-19{fill:#6597bf;}.cls-20{fill:#45779e;}.cls-21{fill:#c2c2c2;}.cls-22{fill:#ffcb40;}.cls-23{clip-path:url(#clip-path);}.cls-24{fill:#333;}.cls-25{fill:#969696;}.cls-26{fill:#3b930f;}.cls-27{fill:#a5b50f;}.cls-28{fill:#15212d;}.cls-29{fill:#045719;}.cls-30{clip-path:url(#clip-path-2);}.cls-31{fill:#5e5e5e;}.cls-32{fill:#f30;}.cls-33{fill:#7fba00;}.cls-34{fill:#008a00;}.cls-35{fill:#69afe5;}.cls-36{fill:#2488d8;}.cls-37{fill:#401467;}.cls-38{fill:#220c3d;}.cls-39{fill:#666;}.cls-40{fill:#8562ad;}.cls-41{fill:#5c2d91;}.cls-42{fill:#a996f0;}</style><clipPath id="clip-path"><polygon class="cls-1" points="596.49 108.55 537.76 92.16 495.31 255.13 552.07 270.83 596.49 108.55"/></clipPath><clipPath id="clip-path-2"><rect class="cls-1" x="443.87" y="112.41" width="19.32" height="158.49" transform="translate(-38.6 176.57) rotate(-21.15)"/></clipPath></defs><title>swimlane-one-vs-many-tools</title><path class="cls-2" d="M613.26,267H274.17a4.57,4.57,0,0,1-4.4-4.5,4.47,4.47,0,0,1,4.4-4.5H613.26a4.37,4.37,0,0,1,4.4,4.5,4.46,4.46,0,0,1-4.4,4.5Z"/><circle class="cls-3" cx="472.76" cy="128.11" r="36.73" transform="translate(257.85 568.25) rotate(-79.14)"/><path class="cls-4" d="M579.2,127.55l-.18-5.1c-.12-3.37-2.43-6-5.16-5.91l-59.16,1.61c-2.73.1-4.84,2.92-4.72,6.29l.18,5.1c.12,3.37,2.43,6,5.16,5.91l59.16-1.6C577.21,133.74,579.32,130.92,579.2,127.55Z"/><path class="cls-5" d="M510,123.66c.2-3,2.19-5.42,4.7-5.51l59.16-1.61c2.51-.09,4.67,2.15,5.08,5.14"/><path class="cls-6" d="M531,134.84l-15.7.61h0l-.63-17.3h0l15.7-.49Z"/><path class="cls-7" d="M515.3,135.45l-.43-12,15.78-.53.46,12.06-15.79.44Z"/><path class="cls-4" d="M499.89,154.93a38.78,38.78,0,1,0-54.81,2A38.68,38.68,0,0,0,499.89,154.93Zm-3.49-3.24a34,34,0,1,1-1.8-48.08A34.06,34.06,0,0,1,496.4,151.69Z"/><path class="cls-8" d="M460.44,155.28l.66,2.18a32,32,0,0,0,4.93,1.2,31.08,31.08,0,0,0,26.11-8.1l-.7-2.32C483.2,156,472.83,158.19,460.44,155.28Z"/><path class="cls-9" d="M474.15,260.75,364.53,53.19a1.87,1.87,0,0,0-3.66.32L330.56,236.06a4.09,4.09,0,0,0,3.21,4.83l138.33,23a2.1,2.1,0,0,0,2-3.11m-46.87-30.18L363.1,219.91a1.9,1.9,0,0,1-1.49-2.24L375.67,133a.87.87,0,0,1,1.7-.14l50.86,96.31a1,1,0,0,1-1,1.44"/><path class="cls-10" d="M472.25,260.43,362.63,52.87a1.87,1.87,0,0,0-3.66.32L328.66,235.75a4.1,4.1,0,0,0,3.21,4.83l138.33,23a2.11,2.11,0,0,0,2.05-3.12m-46.87-30.18L361.2,219.6a1.91,1.91,0,0,1-1.49-2.24l14.06-84.71a.87.87,0,0,1,1.7-.15l50.86,96.31a1,1,0,0,1-.95,1.44"/><polygon class="cls-11" points="430.38 208.47 372.04 222.55 349.75 253.57 351.44 260.58 437.93 239.7 430.38 208.47"/><rect class="cls-2" x="325.25" y="35.56" width="27.19" height="229.84" transform="translate(-25.85 83.73) rotate(-13.57)"/><rect class="cls-6" x="342.31" y="33.53" width="9.89" height="229.84" transform="translate(-25.14 85.65) rotate(-13.57)"/><rect class="cls-11" x="352.02" y="32.08" width="2.47" height="229.84" transform="translate(-24.63 87.01) rotate(-13.57)"/><rect class="cls-7" x="332.66" y="35.56" width="12.36" height="229.84" transform="translate(-25.85 83.73) rotate(-13.57)"/><polygon class="cls-12" points="431.71 212.98 372.92 227.36 350.77 257.82 352.64 265.63 439.26 244.21 431.71 212.98"/><polygon class="cls-13" points="382.39 235.24 428.78 224.04 427.62 219.24 378.29 231.15 362.57 255.18 363.75 260.08 363.95 260.03 382.39 235.24"/><rect class="cls-6" x="300" y="45.86" width="7.41" height="2.47" transform="translate(-2.57 72.59) rotate(-13.57)"/><rect class="cls-6" x="301.74" y="53.07" width="7.41" height="2.47" transform="translate(-4.21 73.2) rotate(-13.57)"/><rect class="cls-6" x="303.48" y="60.27" width="7.41" height="2.47" transform="translate(-5.86 73.82) rotate(-13.57)"/><rect class="cls-6" x="305.22" y="67.48" width="7.41" height="2.47" transform="translate(-7.5 74.42) rotate(-13.57)"/><rect class="cls-6" x="306.96" y="74.69" width="7.41" height="2.47" transform="translate(-9.14 75.03) rotate(-13.57)"/><rect class="cls-6" x="308.7" y="81.9" width="7.41" height="2.47" transform="translate(-10.78 75.64) rotate(-13.57)"/><rect class="cls-6" x="310.44" y="89.1" width="7.41" height="2.47" transform="translate(-12.43 76.25) rotate(-13.57)"/><rect class="cls-6" x="312.18" y="96.31" width="7.41" height="2.47" transform="translate(-14.07 76.86) rotate(-13.57)"/><rect class="cls-6" x="313.92" y="103.52" width="7.41" height="2.47" transform="translate(-15.71 77.47) rotate(-13.57)"/><rect class="cls-6" x="315.66" y="110.73" width="7.41" height="2.47" transform="translate(-17.36 78.08) rotate(-13.57)"/><rect class="cls-6" x="317.4" y="117.93" width="7.41" height="2.47" transform="translate(-19 78.69) rotate(-13.57)"/><rect class="cls-6" x="319.14" y="125.14" width="7.41" height="2.47" transform="translate(-20.64 79.3) rotate(-13.57)"/><rect class="cls-6" x="320.88" y="132.35" width="7.41" height="2.47" transform="translate(-22.29 79.91) rotate(-13.57)"/><rect class="cls-6" x="322.62" y="139.55" width="7.41" height="2.47" transform="translate(-23.93 80.52) rotate(-13.57)"/><rect class="cls-6" x="324.36" y="146.76" width="7.41" height="2.47" transform="translate(-25.57 81.13) rotate(-13.57)"/><rect class="cls-6" x="326.1" y="153.97" width="7.41" height="2.47" transform="translate(-27.21 81.74) rotate(-13.57)"/><rect class="cls-6" x="327.84" y="161.18" width="7.41" height="2.47" transform="translate(-28.86 82.35) rotate(-13.57)"/><rect class="cls-6" x="329.58" y="168.38" width="7.41" height="2.47" transform="translate(-30.5 82.96) rotate(-13.57)"/><rect class="cls-6" x="331.32" y="175.59" width="7.41" height="2.47" transform="translate(-32.14 83.57) rotate(-13.57)"/><rect class="cls-6" x="333.06" y="182.8" width="7.41" height="2.47" transform="translate(-33.79 84.18) rotate(-13.57)"/><rect class="cls-6" x="334.8" y="190" width="7.41" height="2.47" transform="translate(-35.43 84.79) rotate(-13.57)"/><rect class="cls-6" x="336.54" y="197.21" width="7.41" height="2.47" transform="translate(-37.07 85.4) rotate(-13.57)"/><rect class="cls-6" x="338.29" y="204.42" width="7.41" height="2.47" transform="translate(-38.71 86.01) rotate(-13.57)"/><rect class="cls-6" x="340.03" y="211.63" width="7.41" height="2.47" transform="translate(-40.36 86.62) rotate(-13.57)"/><rect class="cls-6" x="341.77" y="218.83" width="7.41" height="2.47" transform="translate(-42 87.23) rotate(-13.57)"/><rect class="cls-6" x="343.51" y="226.04" width="7.41" height="2.47" transform="translate(-43.64 87.84) rotate(-13.57)"/><rect class="cls-6" x="345.25" y="233.25" width="7.41" height="2.47" transform="translate(-45.29 88.45) rotate(-13.57)"/><rect class="cls-6" x="346.99" y="240.45" width="7.41" height="2.47" transform="translate(-46.93 89.06) rotate(-13.57)"/><line class="cls-14" x1="305.33" y1="69.59" x2="317.34" y2="66.69"/><line class="cls-14" x1="312.29" y1="98.42" x2="324.3" y2="95.52"/><line class="cls-14" x1="319.25" y1="127.25" x2="331.26" y2="124.35"/><line class="cls-14" x1="326.21" y1="156.07" x2="338.22" y2="153.17"/><line class="cls-14" x1="333.17" y1="184.9" x2="345.18" y2="182"/><line class="cls-14" x1="340.13" y1="213.73" x2="352.14" y2="210.83"/><line class="cls-14" x1="347.09" y1="242.56" x2="359.1" y2="239.66"/><path class="cls-4" d="M285.72,260.15l.61-4.15,2.74.38-.68,4.26a1.31,1.31,0,0,1-1.47,1.17,1.42,1.42,0,0,1-1.2-1.66"/><polygon class="cls-15" points="315.97 119.45 305.85 117.89 300.84 117.13 281.7 243.94 286.81 244.78 296.83 246.26 315.97 119.45"/><polygon class="cls-4" points="303.15 112.61 302.44 117.33 314.45 119.15 315.05 114.36 303.15 112.61"/><polygon class="cls-16" points="289.69 259.05 296.83 246.26 281.7 243.94 284.86 258.27 289.69 259.05"/><polygon class="cls-17" points="300.84 117.13 281.7 243.94 286.81 244.78 305.86 117.89 300.84 117.13"/><path class="cls-15" d="M318,105.86a2.19,2.19,0,0,0-1.8-2.57l-5.76-.81-2.27-.36c-.67-.17-1.52-.31-2.09-.4l-.75-.06a2.26,2.26,0,0,0-2.46,1.87l-1.32,8.87,5.08.65,10,1.5Z"/><path class="cls-17" d="M306.72,112.49l1.46-9.73a.87.87,0,0,0-.58-.74,12.37,12.37,0,0,1-1.52-.3,3.11,3.11,0,0,0-3.37,2.48l-1.09,7.46c0,.46.22.79.57.73l3.69.6a.7.7,0,0,0,.84-.5"/><path class="cls-18" d="M326.43,247.72,317.17,243a.69.69,0,0,0-.74.08L299.81,256.7a.48.48,0,0,0-.12.6h-.05l1.14,3,2.47-1.67a36.65,36.65,0,0,0,11.66,1.64c8.31-.33,17-5.16,17-5.16Z"/><path class="cls-18" d="M361.6,209.66s-6,2.42-10.1,2.37-38.38-9.11-38.38-9.11-9.06.15-16.86,10.53c-6.36,8.45-7.88,20.05-8.23,24.05a.66.66,0,0,0,.07.32l-.06.06,1.14,3.06,2.25-4.81,15.88-12.68a.83.83,0,0,1,1.19.15L332,255.15s7.14-11,11.85-14.72S360,228,360,228l11.24-4.79Z"/><path class="cls-7" d="M362.74,212.71s-6,2.43-10.1,2.38S314.27,206,314.27,206s-9.07.15-16.87,10.52c-6.36,8.46-7.88,20.06-8.23,24.06a.62.62,0,0,0,1,.53l18.26-14.59a.84.84,0,0,1,1.19.15l23.45,31.55s7.14-11,11.85-14.71S361.13,231,361.13,231l11.24-4.79Z"/><path class="cls-7" d="M317.57,246.11,301,259.76a.49.49,0,0,0,.12.84,39.25,39.25,0,0,0,15,2.76c8.31-.33,17-5.16,17-5.16l-5.52-7.42L318.31,246a.67.67,0,0,0-.74.08"/><path d="M347.58,234.84l-11.12,7.79a3,3,0,0,1-4.21-.74l-6.28-9a3,3,0,0,1,.74-4.21l11.12-7.79a3,3,0,0,1,4.22.74l6.28,9a3,3,0,0,1-.75,4.21"/><path class="cls-11" d="M344.6,233.84l-8.46,5.93a.72.72,0,0,1-1-.18l-6.42-9.16a.72.72,0,0,1,.18-1l8.46-5.93a.72.72,0,0,1,1,.18l6.43,9.17a.73.73,0,0,1-.18,1"/><polygon class="cls-16" points="333.54 239.69 334.95 241.69 344.01 229.37 342.62 227.38 333.54 239.69"/><polygon class="cls-16" points="331.43 236.86 332.83 238.87 341.89 226.54 340.5 224.56 331.43 236.86"/><polygon class="cls-16" points="329.3 234.04 330.71 236.04 339.77 223.71 338.38 221.73 329.3 234.04"/><path class="cls-19" d="M488.15,163.51v0L355.08,207a1.54,1.54,0,0,0-1,1.9L360,228.67a2.23,2.23,0,0,0,2.69,1.53l133.61-33.83a17,17,0,1,0-8.17-32.86m13.34,20.62a8.8,8.8,0,1,1-3.21-12,8.8,8.8,0,0,1,3.21,12"/><path class="cls-20" d="M488.92,166.05l0,0-133.06,43.5a1.52,1.52,0,0,0-1,1.89l5.92,19.82a2.25,2.25,0,0,0,2.69,1.53l133.61-33.84a17,17,0,1,0-8.16-32.86m13.33,20.62a8.8,8.8,0,1,1-3.21-12,8.79,8.79,0,0,1,3.21,12"/><rect x="396.54" y="125.82" width="14.93" height="17.12" transform="translate(204.22 510.36) rotate(-80.41)"/><polygon class="cls-21" points="411.47 106.77 420.92 50.82 418.63 47.41 415.03 49.82 405.58 105.77 411.47 106.77"/><path class="cls-11" d="M418,170.87l20,10a5.52,5.52,0,0,1,3,5.84l-2.28,13.49-24-14.61Z"/><path class="cls-22" d="M492,189.62l-2.33,13.83c-2.36,6.34-8.55,8.9-17.32,5.86l-57-28.67-5.4,34.84,72.55,34.29a8.55,8.55,0,0,0,6.95,6.56L510.81,260a8.52,8.52,0,0,0,9.86-6.91l9.62-56.95a8.53,8.53,0,0,0-7-9.77l-21.39-3.61a8.52,8.52,0,0,0-9.86,6.91"/><path class="cls-15" d="M504.54,258.89l11.51,1.94c5,.85,9.73-2.2,10.51-6.8l9.62-56.95c.77-4.6-2.67-9-7.69-9.87l-11.52-2Z"/><polygon points="417.33 110.89 415.6 101.51 402.43 99.28 397.14 107.48 417.33 110.89"/><path class="cls-11" d="M420.26,112.24l-2.7,16a3.83,3.83,0,0,1-4.42,3.14l-18.94-3.2a3.82,3.82,0,0,1-3.14-4.41l2.7-16a3.84,3.84,0,0,1,4.42-3.14l18.94,3.2a3.83,3.83,0,0,1,3.14,4.42"/><rect class="cls-16" x="392.06" y="116.99" width="14.93" height="2.99" transform="translate(216.16 492.69) rotate(-80.41)"/><rect class="cls-16" x="397.95" y="117.98" width="14.93" height="2.99" transform="translate(220.09 499.33) rotate(-80.41)"/><rect class="cls-16" x="403.83" y="118.98" width="14.93" height="2.99" transform="translate(224.02 505.96) rotate(-80.41)"/><path class="cls-11" d="M420,142.22l-.94,23.11-38.16-7,6.54-22.15a3.51,3.51,0,0,1,4-2.43l24.78,3.87A4.52,4.52,0,0,1,420,142.22Z"/><path class="cls-22" d="M419.75,169.09l-13.85,82a6.21,6.21,0,0,1-7.16,5.09l-29-4.89a6.22,6.22,0,0,1-5.09-7.16l13.85-82a6.22,6.22,0,0,1,7.16-5.09l29,4.9a6.22,6.22,0,0,1,5.09,7.16"/><rect class="cls-15" x="354.05" y="216.35" width="47.79" height="5.97" transform="translate(98.73 555.47) rotate(-80.41)"/><path class="cls-17" d="M384.25,253.72,399,256.21a6.08,6.08,0,0,0,6.89-5.12l13.85-82a6.08,6.08,0,0,0-4.83-7.1l-14.75-2.49Z"/><rect class="cls-16" x="380.21" y="232.35" width="23.89" height="2.99" transform="translate(96.26 581.58) rotate(-80.41)"/><rect class="cls-16" x="386.1" y="233.35" width="23.89" height="2.99" transform="matrix(0.17, -0.99, 0.99, 0.17, 100.19, 588.22)"/><rect class="cls-16" x="389.04" y="233.85" width="23.89" height="2.99" transform="matrix(0.17, -0.99, 0.99, 0.17, 102.16, 591.53)"/><g class="cls-23"><path class="cls-16" d="M542.89,244.68a21.33,21.33,0,0,0,.69-9.65s-.32-1.27-.47-2c-2.11-10.87-1-21.34,1.79-26.49l-6.71-1.86L534,219.89l-2.87,10.37-8.44,30.49c7.94,2.19,18-8.14,20.23-16.07"/><polygon class="cls-4" points="527.9 241.84 536.44 244.21 522.67 260.75 527.9 241.84"/><path class="cls-16" d="M519.5,227.05a21.21,21.21,0,0,0-6.12,9.5c-1.85,6,1.35,22,9.29,24.2l8.43-30.49L534,219.89l4.22-15.24-6.72-1.86c-.3,5.83-4.55,16.46-12,24.26"/><polygon class="cls-24" points="527.9 241.84 519.35 239.48 522.67 260.75 527.9 241.84"/><path class="cls-12" d="M590.07,107.41a5,5,0,0,0-6.24,3.53c-12,43.29-26.09,61.05-36.75,75.82l10.38,2.87c10.66-14.77,24.5-33.92,36.14-76a5.45,5.45,0,0,0-3.53-6.23"/><path class="cls-16" d="M540.36,184.9h0l-11-3c.28,1.39.55,2.78.82,4.17,1.41,11.54,2.1,20.93-.94,31.9,2.7-9.75,7.17-16.4,11.8-23.65-.37-3.38-.31-6-.69-9.38"/><path class="cls-12" d="M547.81,101a5.45,5.45,0,0,0-3.53-6.23A5,5,0,0,0,538,98.27c-11.64,42.07-10.22,65.44-8.67,83.59l11,3c-2.16-18.32-4.53-40.64,7.45-83.93"/><path class="cls-16" d="M529.25,217.93a5.45,5.45,0,0,0,3.54,6.23,5,5,0,0,0,6.23-3.53,67.57,67.57,0,0,0,2-26.35c-4.63,7.26-9.1,13.9-11.8,23.65"/><path class="cls-4" d="M514.26,234.13l13.43,3.72,3-11s.14-10.08.75-24.08c-.3,6.91-8.25,20.78-12,24.26S515.54,231.86,514.26,234.13Z"/><polygon class="cls-24" points="527.9 241.84 519.35 239.48 522.67 260.75 527.9 241.84"/><path class="cls-25" d="M521.71,230.94a8.87,8.87,0,0,1,17.09,4.73,8.87,8.87,0,0,1-17.09-4.73"/><path class="cls-16" d="M554.61,192.78l2.85-3.15-10.38-2.87c-.78.44-1.12,1.66-1.9,2.1l.84,16c2.4-3.93,5.41-7.7,8.59-12.07"/><path class="cls-16" d="M539,220.63a33.54,33.54,0,0,1,2.81-7.75c.06-2.61-.49-5.39-.42-8A60,60,0,0,1,539,220.63"/><path class="cls-4" d="M541.41,204.88a47.33,47.33,0,0,0-.36-10.6s.05,4.61.36,10.6"/><path class="cls-4" d="M541.41,204.88c-.07,2.61.48,5.39.42,8,1.28-2.27,2.73-5.15,4.19-8l-.84-16c-1.11,1.66-3,3.76-4.13,5.42a47.33,47.33,0,0,1,.36,10.6"/></g><path class="cls-16" d="M585.11,235.3c-5.85,1.5-12,11.79-12,14s-13-2.91-17-6.34-9.9-12.29-4.74-12.21,12.24-9.51,12-14,6.93.48,9.3,2.49,12.43,16,12.43,16"/><rect class="cls-26" x="497.51" y="40.88" width="24.88" height="202.71" transform="translate(70.83 437.97) rotate(-49.54)"/><rect class="cls-10" x="548.3" y="134.94" width="17.49" height="85.22" transform="translate(60.49 486.2) rotate(-49.54)"/><rect class="cls-27" x="557.99" y="130.47" width="5.74" height="85.22" transform="translate(65.24 487.53) rotate(-49.54)"/><path class="cls-28" d="M439.7,65.81c-18.36,4.63-16.14,18.93-16.14,18.93l90.6,77.44,16.14-18.93S469.39,90.86,439.7,65.81Z"/><rect class="cls-29" x="560.69" y="191.1" width="24.88" height="10.03" transform="translate(52.02 504.95) rotate(-49.54)"/><path class="cls-7" d="M540.74,241.05l8.16-9.57a2.28,2.28,0,0,1,3.22-.26l20.5,17.48a2.28,2.28,0,0,1,.25,3.22l-8.16,9.57a2.28,2.28,0,0,1-3.22.26L541,244.27a2.28,2.28,0,0,1-.25-3.22"/><path class="cls-7" d="M610.8,207.48c27.57-32.33,14.62-51.66,10.92-58.84a2.28,2.28,0,0,0-4.25,1.57c1.58,6.36,5.26,14.89-6.94,29.2-9.38,11-18.87,9.31-22.34,8.16a2.27,2.27,0,0,0-2.43.69l-22.12,25.93a2.29,2.29,0,0,0,.26,3.22l20.52,17.5a2.28,2.28,0,0,0,3.21-.26Z"/><path class="cls-6" d="M621.72,148.64a2.25,2.25,0,0,0-3.12-1c4.49,8.44,13.28,27.15-12,56.8l-23.17,27.17a2.26,2.26,0,0,1-1.91.78l2.9,2.48a2.28,2.28,0,0,0,3.21-.26l23.17-27.17C638.37,175.15,625.42,155.82,621.72,148.64Z"/><path class="cls-6" d="M571.34,247.61l-7.1,8.32a2.48,2.48,0,0,1-3.5.28L541.67,240l-.93,1.1a2.28,2.28,0,0,0,.25,3.22l20.5,17.48a2.28,2.28,0,0,0,3.22-.26l8.16-9.57a2.28,2.28,0,0,0-.25-3.22Z"/><g class="cls-30"><rect class="cls-25" x="458.81" y="168.68" width="4.46" height="90.24" transform="translate(-46.09 180.77) rotate(-21.15)"/><polygon class="cls-25" points="475.24 256.68 478.01 261.12 477.08 255.97 475.24 256.68"/><polygon class="cls-25" points="477.08 255.97 480.33 260.23 479.39 255.07 477.08 255.97"/><polygon class="cls-31" points="480.75 264.07 480.33 260.23 476.07 253.35 478.01 261.12 480.29 264.25 480.75 264.07"/><rect class="cls-25" x="458.81" y="168.68" width="4.46" height="90.24" transform="translate(-46.09 180.77) rotate(-21.15)"/><polygon class="cls-25" points="475.24 256.68 478.01 261.12 477.08 255.97 475.24 256.68"/><polygon class="cls-25" points="477.08 255.97 480.33 260.23 479.39 255.07 477.08 255.97"/><polygon class="cls-31" points="480.75 264.07 480.33 260.23 476.07 253.35 478.01 261.12 480.29 264.25 480.75 264.07"/><path class="cls-32" d="M423.17,140l20.41,52.76,16.17-6.25L439.34,133.7a5.71,5.71,0,0,1-5.09-3.54,4.67,4.67,0,0,1,1.55-5.61l-1.19-3.06a6.89,6.89,0,0,0-8.83-3.6l-3.23,1.25a6.89,6.89,0,0,0-4.11,8.61l1.18,3.05a4.67,4.67,0,0,1,4.92,3.11,5.73,5.73,0,0,1-1.37,6.05"/><path class="cls-33" d="M423.17,140l20.41,52.76,16.17-6.25L439.34,133.7a5.71,5.71,0,0,1-5.09-3.54,4.67,4.67,0,0,1,1.55-5.61l-1.19-3.06a6.89,6.89,0,0,0-8.83-3.6l-3.23,1.25a6.89,6.89,0,0,0-4.11,8.61l1.18,3.05a4.67,4.67,0,0,1,4.92,3.11,5.73,5.73,0,0,1-1.37,6.05"/><path class="cls-34" d="M422.4,129.73l10.16-3.93-3.2-8.29a7.44,7.44,0,0,0-3.58.38l-3.23,1.25a8.06,8.06,0,0,0-3.31,2.61Z"/><rect class="cls-34" x="436.08" y="134.87" width="10.9" height="56.57" transform="translate(-29.13 170.32) rotate(-21.15)"/></g><polygon class="cls-6" points="420.15 54.91 419.32 59.94 416.58 57.43 417.53 52.52 420.15 54.91"/><polygon class="cls-6" points="419.02 61.65 418.18 66.67 415.45 64.17 416.4 59.26 419.02 61.65"/><polygon class="cls-6" points="417.88 68.38 417.03 73.4 414.31 70.91 415.26 66 417.88 68.38"/><polygon class="cls-6" points="416.75 75.12 415.89 80.13 413.18 77.65 414.13 72.74 416.75 75.12"/><polygon class="cls-6" points="415.62 81.86 414.74 86.86 412.05 84.39 413 79.48 415.62 81.86"/><polygon class="cls-6" points="414.49 88.6 413.59 93.6 410.91 91.13 411.86 86.22 414.49 88.6"/><polygon class="cls-6" points="413.36 95.33 412.45 100.33 409.78 97.87 410.73 92.96 413.36 95.33"/><path class="cls-4" d="M437.55,70.74l89.39,76.44,3.36-3.93s-60.91-52.39-90.6-77.44c-18.36,4.63-16.14,18.93-16.14,18.93l1.67,1.43C425.56,74.09,437.55,70.74,437.55,70.74Z"/><path class="cls-1" d="M385.68,157l2.68.46,5.52-23.3-2.42-.41a3.51,3.51,0,0,0-4,2.43L381,158.14A6.19,6.19,0,0,1,385.68,157Z"/><path class="cls-2" d="M209.26,267H29.17a4.57,4.57,0,0,1-4.4-4.5,4.47,4.47,0,0,1,4.4-4.5H209.26a4.37,4.37,0,0,1,4.4,4.5,4.46,4.46,0,0,1-4.4,4.5Z"/><g id="Group"><g id="Vector"><path id="path0_fill" data-name="path0 fill" class="cls-21" d="M78.83,195.81c-7.16-9.55-43.32-57.16-50.51-66.64a.91.91,0,0,0-1.63.41c-.48,3.19-1,9.45,1.56,13.88,3.54,6.2,16.22,28.32,16.22,28.32s7.82-1.18,12.24,5,15.08,21.2,17.11,23.6C77.06,204.22,82.42,200.59,78.83,195.81Z"/></g><g id="Vector-2" data-name="Vector"><path id="path1_fill" data-name="path1 fill" class="cls-6" d="M40,220.22V175.06l6.09-51.4a1,1,0,0,1,1.71-.52c1.79,2.11,4.58,6.2,4.58,11.13v36.11a13,13,0,0,0-7.08,11.5v22.81A2.26,2.26,0,0,0,47.57,207h4.62a2,2,0,0,1,2,2v11.3H40Z"/></g><g id="Vector-3" data-name="Vector"><path id="path2_fill" data-name="path2 fill" class="cls-21" d="M46.68,166.62a2.95,2.95,0,1,0-3-3A3,3,0,0,0,46.68,166.62Z"/></g></g><path class="cls-2" d="M127.37,129.13l.17-1.24-1.37-1.36L113.8,144.35l-11.7-8.11,9.77-14.08,4-2.38-1.37-1.37a18.22,18.22,0,0,0-18.75,7.4c-3.93,5.67-4.8,12.27-1.47,18.18C72.82,174.88,37.86,225.45,35,229.56l15.27,10.1c31.86-45.92,59-85.23,59-85.23a18.56,18.56,0,0,0,16.51-7.75C129.19,141.79,129.48,134.76,127.37,129.13Z"/><g id="Group-2" data-name="Group"><g id="Vector-4" data-name="Vector"><path id="path3_fill" data-name="path3 fill" class="cls-21" d="M178,149.14,189.44,134l-3.18-4L169,137.79l0,5.67-70.6,55,3.56,4.47,70.65-55.08Z"/></g><g id="Vector-5" data-name="Vector"><path id="path4_fill" data-name="path4 fill" class="cls-6" d="M189.44,134l-1.57-2-87.76,68.71,1.78,2.24,70.64-55.09,5.45,1.24Z"/></g></g><g id="Vector-6" data-name="Vector"><path id="path6_fill" data-name="path6 fill" class="cls-6" d="M127.54,127.89l-12.37,17.83-11.7-8.12,12.37-17.82a18.18,18.18,0,0,0-18.75,7.4c-3.94,5.67-4.8,12.27-1.48,18.18-21.42,30.89-56.38,81.45-59.23,85.56L51.65,241c31.86-45.93,59-85.24,59-85.24a18.57,18.57,0,0,0,16.52-7.74C131.11,142.37,130.86,133.8,127.54,127.89Z"/></g><g id="Group-3" data-name="Group"><g id="Group-4" data-name="Group"><g id="Vector-7" data-name="Vector"><path id="path7_fill" data-name="path7 fill" class="cls-3" d="M180.24,223.81s-10.87-14.94-44.85-12.23-74.06,13.59-74.06,13.59Z"/></g></g><g id="Vector-8" data-name="Vector"><path id="path7_fill-2" data-name="path7 fill" class="cls-35" d="M180.24,224.8s-10.87-14.94-44.85-12.23-74.06,13.59-74.06,13.59Z"/></g><g id="Vector-9" data-name="Vector"><path id="path8_fill" data-name="path8 fill" class="cls-36" d="M159.88,216.76c-5.8-1.61-13.47-2.56-23.44-1.77-5.07.41-10.3,1-15.49,1.77Z"/></g></g><g id="Group-5" data-name="Group"><g id="Vector-10" data-name="Vector"><path id="path10_fill" data-name="path10 fill" class="cls-37" d="M192.18,259.82H41.76c-11.39,0-20.94-9.32-20.71-20.71.22-11,10.21-19.88,21.28-19.88H191.76c11.39,0,20.93,9.32,20.7,20.71A20.28,20.28,0,0,1,192.18,259.82Z"/></g></g><g id="Group-6" data-name="Group"><g id="Vector-11" data-name="Vector"><path id="path11_fill" data-name="path11 fill" class="cls-38" d="M179.72,243.49H125.86a12.93,12.93,0,0,0-12.93,12.93,12.74,12.74,0,0,0,.47,3.4H116c0-.3,0-.6,0-.91a13,13,0,0,1,13-13h53.83a12.7,12.7,0,0,1,6.47,1.77A12.76,12.76,0,0,0,179.72,243.49Z"/></g></g><g id="Group-7" data-name="Group"><g id="Vector-12" data-name="Vector"><path id="path12_fill" data-name="path12 fill" class="cls-3" d="M183.83,260.81h0c-1.35,0-4.67-.78-6.17-7.32-.59-2.59-1.71-3.5-2.25-3.51-.76,0-2.07,1.52-2.61,4.76-.59,3.57-3,6-6,6.06h-.09c-2.55,0-5.88-1.92-7-7.36-.62-3-1.74-4-2.19-4h-.16c-.42,0-1.57.92-2.29,3.7-1.14,4.36-3.88,7.1-7,7-2.87-.08-5.06-2.51-5.87-6.49-.54-2.7-1.75-3.92-2.65-3.92h0c-.9,0-2,1.23-2.32,3.49-.73,4.86-3.71,7.05-6.34,7.06h-.52c-2.44,0-5.57-1.9-6.45-7.27-.49-3-2.93-5-4.34-5.91-2.42-1.56-5-2.06-6.14-1.74l-1-3.82c2.49-.68,6.15.19,9.32,2.23a12.89,12.89,0,0,1,6.11,8.6c.44,2.72,1.62,4,2.54,4h.27c.94,0,2.08-1.32,2.44-3.81.71-4.9,3.67-7.17,6.29-7.24s5.72,1.87,6.82,7.48c.45,2.34,1.37,3.4,2.08,3.42s2.25-1.1,3-4.23c1.11-4.41,3.45-7,6.27-7h.12c2.89.08,5.15,2.87,6.06,7.47.58,2.89,1.93,4.19,3,4.17s1.76-1.1,2-2.7c1-6.05,4-8.29,6.49-8.37h.13c2.29,0,5.09,1.79,6.21,6.85.7,3.15,1.44,4.34,2.46,4.9,2.39,1.31,4.78-2.77,5.63-5.1.48-1.31,1.31-1.26,1.05.29C190.26,256.43,186.77,260.81,183.83,260.81Z"/></g><g id="Group-8" data-name="Group"><g id="Vector-13" data-name="Vector"><path id="path12_fill-2" data-name="path12 fill" class="cls-3" d="M183.83,260.81h0c-1.35,0-4.67-.78-6.17-7.32-.59-2.59-1.71-3.5-2.25-3.51-.76,0-2.07,1.52-2.61,4.76-.59,3.57-3,6-6,6.06h-.09c-2.55,0-5.88-1.92-7-7.36-.62-3-1.74-4-2.19-4h-.16c-.42,0-1.57.92-2.29,3.7-1.14,4.36-3.88,7.1-7,7-2.87-.08-5.06-2.51-5.87-6.49-.54-2.7-1.75-3.92-2.65-3.92h0c-.9,0-2,1.23-2.32,3.49-.73,4.86-3.71,7.05-6.34,7.06h-.52c-2.44,0-5.57-1.9-6.45-7.27-.49-3-2.93-5-4.34-5.91-2.42-1.56-5-2.06-6.14-1.74l-1-3.82c2.49-.68,6.15.19,9.32,2.23a12.89,12.89,0,0,1,6.11,8.6c.44,2.72,1.62,4,2.54,4h.27c.94,0,2.08-1.32,2.44-3.81.71-4.9,3.67-7.17,6.29-7.24s5.72,1.87,6.82,7.48c.45,2.34,1.37,3.4,2.08,3.42s2.25-1.1,3-4.23c1.11-4.41,3.45-7,6.27-7h.12c2.89.08,5.15,2.87,6.06,7.47.58,2.89,1.93,4.19,3,4.17s1.76-1.1,2-2.7c1-6.05,4-8.29,6.49-8.37h.13c2.29,0,5.09,1.79,6.21,6.85.7,3.15,1.44,4.34,2.46,4.9,2.39,1.31,4.78-2.77,5.63-5.1.48-1.31,1.31-1.26,1.05.29C190.26,256.43,186.77,260.81,183.83,260.81Z"/></g></g><g id="Group-9" data-name="Group"><g id="Vector-14" data-name="Vector"><path id="path13_fill" data-name="path13 fill" class="cls-35" d="M183.58,263.28H183c-1.29,0-4.46-.74-5.9-7-.56-2.47-1.64-3.35-2.16-3.35-.72,0-2,1.45-2.49,4.55-.57,3.41-2.87,5.74-5.74,5.8h-.08c-2.45,0-5.63-1.84-6.69-7-.59-2.88-1.67-3.83-2.09-3.84h-.73c-.43,0-1.57.92-2.3,3.7-1.13,4.36-3.87,7.1-7,7-2.87-.08-5.06-2.51-5.86-6.49-.55-2.7-1.76-3.92-2.66-3.92h0c-.9,0-2,1.23-2.32,3.49-.72,4.86-3.71,7-6.34,7.06h-.52c-2.43,0-5.57-1.9-6.45-7.27-.49-3-2.93-5-4.34-5.91-2.42-1.56-5-2.06-6.13-1.74l-1-3.82c2.5-.68,6.1.28,9.32,2.23,2.68,1.63,3.82,4.59,4.37,7.95.44,2.73,2.32,4.6,4.28,4.6h.27c2.1,0,3.93-2.34,4.33-4.56.66-3.62,2.39-5.73,4.54-5.73,2.59,0,3.68,1.72,4.78,6.72a4.13,4.13,0,0,0,4,3.44,5.22,5.22,0,0,0,4.52-3.52c1.11-3.92,2.06-6.79,4.54-6.79s3.64,1.94,4.53,6c.74,3.4,3,4.64,4.88,4.64,1.64,0,3.85-1.7,4.11-3.13,1-5.38,2-6.72,4.54-6.79s3.41,1.84,4.54,6.34a4.85,4.85,0,0,0,4.2,3.93c2.7.18,5.14-2.46,6-4.54.48-1.16.75-2.36.5-1C189.9,257.9,186.52,263.28,183.58,263.28Z"/></g></g></g><g id="Vector-15" data-name="Vector"><path id="path14_fill" data-name="path14 fill" class="cls-39" d="M66.07,233.28l-3.79-4.6a3.76,3.76,0,0,1,.5-5.3l41.06-33.92a3.77,3.77,0,0,1,5.31.51l3.79,4.59a3.76,3.76,0,0,1-.5,5.3L71.37,233.78A3.76,3.76,0,0,1,66.07,233.28Z"/></g><g id="Vector-16" data-name="Vector"><path id="path15_fill" data-name="path15 fill" class="cls-11" d="M114.16,196.55,111.23,193a3.76,3.76,0,0,0-5.3-.53L64.72,226.19a3.75,3.75,0,0,0-1.12,4.24L66.53,234a3.76,3.76,0,0,0,5.3.53L113,200.79A3.76,3.76,0,0,0,114.16,196.55Z"/></g><g id="Group-10" data-name="Group"><g id="Vector-17" data-name="Vector"><path id="path16_fill" data-name="path16 fill" class="cls-40" d="M192.18,219.23H41.76c-11.39,0-20.94,9.32-20.71,20.71a20.29,20.29,0,0,0,20.29,19.88h72a12.74,12.74,0,0,1-.47-3.4,12.93,12.93,0,0,1,12.93-12.93h53.92a12.93,12.93,0,0,1,12.93,12.93,12.74,12.74,0,0,1-.47,3.4h-.39a20.53,20.53,0,0,0,20.63-19A20.3,20.3,0,0,0,192.18,219.23Z"/></g><g id="Vector-18" data-name="Vector"><path id="path17_fill" data-name="path17 fill" class="cls-41" d="M21,240a20.3,20.3,0,0,0,20.29,19.8h72.06a13.16,13.16,0,0,1-.47-3.4,12.93,12.93,0,0,1,12.93-12.93h53.92a12.93,12.93,0,0,1,12.93,12.93,13.16,13.16,0,0,1-.46,3.4h0A20.3,20.3,0,0,0,212.52,240Z"/></g><g id="Vector-19" data-name="Vector"><path id="path18_fill" data-name="path18 fill" class="cls-2" d="M42.69,247.16a7.48,7.48,0,1,0-7.47-7.47A7.47,7.47,0,0,0,42.69,247.16Z"/></g><g id="Vector-20" data-name="Vector"><path id="path19_fill" data-name="path19 fill" class="cls-42" d="M191.25,221.21H42.43a18.74,18.74,0,0,0-18.07,24.26h.08a19.11,19.11,0,0,1-.31-3.4,18.86,18.86,0,0,1,8.05-15.46,16.71,16.71,0,0,1,10.13-3.42H191.25c4.08,0,8.56.5,8.56.5A19.57,19.57,0,0,0,191.25,221.21Z"/></g><g id="Vector-21" data-name="Vector"><path id="path20_fill" data-name="path20 fill" class="cls-16" d="M35.23,240a7.47,7.47,0,0,0,14.93,0Z"/></g></g></svg>