<svg xmlns="http://www.w3.org/2000/svg" xmlns:xlink="http://www.w3.org/1999/xlink" viewBox="0 0 636 300"><defs><linearGradient id="a" x1="-20.919" y1="470.677" x2="21.945" y2="422.882" gradientTransform="translate(342.948 -182.14) rotate(-7.459)" gradientUnits="userSpaceOnUse"><stop offset="0.133" stop-color="#303030"/><stop offset="0.345" stop-color="#4b4a49"/><stop offset="0.593" stop-color="#646260"/><stop offset="0.818" stop-color="#74716e"/><stop offset="1" stop-color="#797673"/></linearGradient><radialGradient id="b" cx="-4510.615" cy="-3436.626" fx="-4501.957150640468" r="25.978" gradientTransform="translate(192.493 -5440.31) rotate(-130.259)" gradientUnits="userSpaceOnUse"><stop offset="0" stop-color="#c78a3a"/><stop offset="0.033" stop-color="#644cad"/><stop offset="0.48" stop-color="#8b8cc7"/></radialGradient><radialGradient id="c" cx="62.908" cy="431.454" fx="79.86811626650834" fy="457.071969279711" r="59.852" gradientTransform="translate(342.948 -182.14) rotate(-7.459)" xlink:href="#b"/><radialGradient id="d" cx="1895.483" cy="-1351.737" r="20.534" gradientTransform="translate(-1855.8 189.866) rotate(35.424)" gradientUnits="userSpaceOnUse"><stop offset="0.173" stop-color="#724937"/><stop offset="0.703" stop-color="#9b643d"/></radialGradient><radialGradient id="e" cx="1998.435" cy="-1308.334" r="6.446" gradientTransform="matrix(0.785, 0.573, -0.517, 0.708, -1774.142, -31.394)" xlink:href="#d"/><linearGradient id="f" x1="-2463.446" y1="541.464" x2="-2402.242" y2="541.464" gradientTransform="translate(1523.155 -1889.663) rotate(-44.639)" gradientUnits="userSpaceOnUse"><stop offset="0.269" stop-color="#594539"/><stop offset="0.811" stop-color="#463228"/></linearGradient><radialGradient id="g" cx="12662.638" cy="-11098.728" r="27.054" gradientTransform="matrix(-0.982, 0.188, -0.188, -0.982, 10570.336, -13059.412)" gradientUnits="userSpaceOnUse"><stop offset="0" stop-color="#646589"/><stop offset="0.996" stop-color="#eaeaf3"/></radialGradient><linearGradient id="h" x1="-4067.069" y1="-583.453" x2="-4066.693" y2="-571.713" gradientTransform="matrix(0.737, -0.594, 0.605, 0.869, 3541.586, -1711.926)" gradientUnits="userSpaceOnUse"><stop offset="0.067" stop-color="#9b643d"/><stop offset="0.847" stop-color="#e0bb95"/></linearGradient><radialGradient id="i" cx="-1514.904" cy="489.872" r="29.45" gradientTransform="matrix(0.743, -0.481, 0.501, 0.774, 1066.85, -861.274)" gradientUnits="userSpaceOnUse"><stop offset="0" stop-color="#6a6b8e"/><stop offset="0.996" stop-color="#eaeaf3"/></radialGradient><radialGradient id="j" cx="13953.266" cy="-612.207" r="26.376" gradientTransform="matrix(-0.68, 0.561, 0.676, 0.82, 10133.515, -7115.397)" gradientUnits="userSpaceOnUse"><stop offset="0.55" stop-color="#eaeaf3"/><stop offset="0.822" stop-color="#eaeaf3"/></radialGradient><radialGradient id="k" cx="25057.172" cy="357.074" r="11.141" gradientTransform="matrix(-0.243, 0.255, 0.253, 0.241, 6197.208, -6279.198)" gradientUnits="userSpaceOnUse"><stop offset="0.083" stop-color="#9b643d"/><stop offset="0.831" stop-color="#e0bb95"/></radialGradient><radialGradient id="l" cx="-8844.402" cy="-3426.337" r="23.968" gradientTransform="matrix(-0.415, -0.91, -0.91, 0.415, -6609.322, -6424.365)" xlink:href="#j"/><radialGradient id="m" cx="-4641.663" cy="-2238.322" r="31.049" gradientTransform="matrix(-0.322, -0.947, 0.947, -0.322, 1074.111, -4973.766)" gradientUnits="userSpaceOnUse"><stop offset="0.398" stop-color="#b2b2b2"/><stop offset="0.837" stop-color="#c2c2c2"/></radialGradient><radialGradient id="n" cx="-4587.191" cy="-2214.513" fy="-2207.6070611492582" r="25.215" gradientTransform="matrix(-0.322, -0.947, 0.947, -0.322, 1074.111, -4973.766)" gradientUnits="userSpaceOnUse"><stop offset="0.251" stop-color="#b2b2b2"/><stop offset="0.837" stop-color="#c2c2c2"/></radialGradient><radialGradient id="o" cx="-4572.298" cy="-2229.82" r="21.42" gradientTransform="matrix(-0.322, -0.947, 0.947, -0.322, 1074.111, -4973.766)" gradientUnits="userSpaceOnUse"><stop offset="0.132" stop-color="#28abc5"/><stop offset="0.802" stop-color="#28c2d1"/></radialGradient><radialGradient id="p" cx="-4572.15" cy="-2284.493" fx="-4587.758192124537" r="18.847" xlink:href="#o"/><radialGradient id="q" cx="13865.675" cy="-6115.392" r="15.945" gradientTransform="translate(7300.193 -13477.01) rotate(140.881)" xlink:href="#o"/><radialGradient id="r" cx="-2623.147" cy="207.462" r="9.013" gradientTransform="matrix(0.601, -0.799, 0.799, 0.601, 1797.589, -2159.849)" gradientUnits="userSpaceOnUse"><stop offset="0" stop-color="#9a6541"/><stop offset="1" stop-color="#be906b"/></radialGradient><radialGradient id="s" cx="-2365.475" cy="1209.728" r="3.226" gradientTransform="matrix(0.759, -0.651, 0.646, 0.752, 1397.384, -2390.168)" gradientUnits="userSpaceOnUse"><stop offset="0" stop-color="#956d4e" stop-opacity="0.878"/><stop offset="0.937" stop-color="#a7754b" stop-opacity="0"/></radialGradient><radialGradient id="t" cx="-4907.37" cy="-1678.387" r="25.389" gradientTransform="matrix(-0.715, -0.699, -0.699, 0.715, -4462.186, -2154.185)" gradientUnits="userSpaceOnUse"><stop offset="0.116" stop-color="#3682c1"/><stop offset="0.179" stop-color="#3682c1"/><stop offset="0.817" stop-color="#409ae1"/></radialGradient><radialGradient id="u" cx="-4943.389" cy="-1673.98" fx="-4950.753946909219" fy="-1686.7273370964026" r="24.774" xlink:href="#t"/><radialGradient id="v" cx="-4894.307" cy="-1702.669" r="29.189" gradientTransform="matrix(-0.715, -0.699, -0.699, 0.715, -4462.186, -2154.185)" gradientUnits="userSpaceOnUse"><stop offset="0.24" stop-color="#d89705"/><stop offset="0.839" stop-color="#ffb900"/></radialGradient><radialGradient id="w" cx="-7306.053" cy="-1199.588" r="10.409" gradientTransform="matrix(-0.469, -0.561, 0.493, -0.412, -2561.039, -4543.287)" gradientUnits="userSpaceOnUse"><stop offset="0" stop-color="#9f6c4a"/><stop offset="0.604" stop-color="#dfbc97"/></radialGradient><radialGradient id="x" cx="-4958.573" cy="-1709.672" fx="-4973.117419269649" r="25.607" xlink:href="#v"/><radialGradient id="y" cx="-4977.805" cy="-1733.672" r="20.296" xlink:href="#v"/></defs><title>swimlane-100-percent-free</title><path d="M398.433,230.307a2.762,2.762,0,0,0,.967-1.777,2.193,2.193,0,0,0-.35-1.607l-1.615-1.917a2.13,2.13,0,0,0-1.423-.758,2.108,2.108,0,0,0-1.556.46l-5.915,4.655a.65.65,0,0,0-.222.815.639.639,0,0,0,.724.436l4.254-.847a1.908,1.908,0,0,1,.95-.08,2.4,2.4,0,0,1,1.113.834Q396.572,231.984,398.433,230.307Z" fill="#63615e"/><path d="M436.852,244.514c-8.972,10.574-17.035,15.045-23.36,16.281-12.349,2.414-18.892-27.478-19.431-29.16s4.942-6.064,6.053-3.66,13.276,18.654,13.276,18.654,9.555-14.633,14.594-17.523c12.072-6.925,18.6,6.965,16.282,9.976S436.852,244.514,436.852,244.514Z" fill="url(#a)"/><path d="M458.581,165.579l-1.574-2.13,1.834-3.314a13.024,13.024,0,0,1,1.586-2.267,9.661,9.661,0,0,1,1.462-1.508q.418-.3,1.54-1.235a4.879,4.879,0,0,1,1.387-.837,1.438,1.438,0,0,1,1.194.458q.389-.14.984-.382a1.937,1.937,0,0,1,.745-.079q.636.366.137.95l-3.608,4.717,1.115-.287q1.23-.35,1.933-.475c.421-.041.665.053.729.28.064.258-.083.506-.438.745a20.767,20.767,0,0,1-2.759,1.832q-.853.479-2.219,1.339Z" fill="#9b643d"/><path d="M457.975,161.7s-13.392,4.061-19.942,16.967c-8.5,16.738,6.954,30.588,6.954,30.588l13.479-14.314s-13.63-6.4-11.187-14.529c2.924-9.736,13.178-15.849,13.178-15.849Z" fill="#8b8cc7"/><path d="M400.489,277.7a2.767,2.767,0,0,0-1.368-1.493,2.2,2.2,0,0,0-1.635-.193l-2.339.9a2.13,2.13,0,0,0-1.249,2.717l2.486,7.105a.652.652,0,0,0,.7.475.639.639,0,0,0,.648-.542l.578-4.294a1.921,1.921,0,0,1,.233-.924,2.389,2.389,0,0,1,1.151-.779Q401.472,280,400.489,277.7Z" fill="#63615e"/><path d="M450.9,245.6c1.479-2.318,4.653-5.786-1.056-9.982-6.695-4.921-11.115-.458-11.91.713-3.82,5.628-5.566,15.234-11.055,24.469-4.57,7.688-29.265,14.983-29.265,14.983a6.521,6.521,0,0,0,1.168,5.264c1,1.216,1.917,1.263,4.011.829,9.061-1.983,25.409-4.282,32.563-12.308C442.34,261.724,448.351,250.815,450.9,245.6Z" fill="#797673"/><path d="M516.748,193.964l2.435,1.307,3.148-2.39a13.594,13.594,0,0,0,2.1-1.977,10.029,10.029,0,0,0,1.339-1.735q.243-.477,1.045-1.775a5.119,5.119,0,0,0,.657-1.557,1.5,1.5,0,0,0-.652-1.164q.086-.423.248-1.074a2.044,2.044,0,0,0-.03-.782q-.474-.6-1,0l-4.332,4.431.13-1.194q.177-1.322.2-2.067-.03-.661-.4-.711-.414-.04-.7.564a21.816,21.816,0,0,0-1.479,3.123q-.366.952-1.051,2.491Z" fill="#9b643d"/><path d="M491.57,207.291c-9.895,2.969-21.06-3.827-21.06-3.827-3.1-.068-7.956,6.052-7.356,9.138.571,2.941,3.7,5.818,8.16,6.295s11,4.457,25-2.083c12.592-5.882,22.43-20.885,24.023-22.407l-2.294-2.611S503.221,203.794,491.57,207.291Z" fill="url(#b)"/><path d="M450.984,245.372c-.2.056-25.421-14.284-25.543-14.571,13.356-23.076,20.528-34.455,20.528-34.455,3.99-5.609,10.263-3.171,16.805,1.132l1.106-.062c6.221,4.425,13.93,13.547,9.939,19.157C473.819,216.573,470.086,228.214,450.984,245.372Z" fill="url(#c)"/><path d="M469.572,202.75c-1.286.775-5.874,1.563-8.346,1.944a1.656,1.656,0,0,1-1.885-1.361c-.412-2.433-1.108-6.941-.875-8.392,2.31.579,6.34,3.134,6.34,3.134A26.943,26.943,0,0,1,469.572,202.75Z" fill="#9b643d"/><path d="M475.293,190.4l-7.218-5.134-6.765,9.51c-.733,1.031-2.844.162-2.844.162l11.106,7.809s-1.686-1.924-.952-2.959Z" fill="url(#d)"/><circle cx="467.859" cy="178.77" r="2.553" fill="#594539"/><circle cx="478.505" cy="173.571" r="2.91" fill="#594539"/><circle cx="474.246" cy="173.013" r="2.91" fill="#594539"/><circle cx="470.267" cy="175.112" r="2.91" fill="#594539"/><circle cx="481.158" cy="188.229" r="2.553" fill="#594539"/><circle cx="482.433" cy="176.505" r="2.91" fill="#594539"/><circle cx="484.619" cy="180.528" r="2.91" fill="#594539"/><circle cx="483.347" cy="185.062" r="2.91" fill="#594539"/><path d="M474,173.225h3.134a7.435,7.435,0,0,1,7.435,7.435v6.974a3.2,3.2,0,0,1-3.2,3.2H469.768a3.2,3.2,0,0,1-3.2-3.2v-6.974A7.435,7.435,0,0,1,474,173.225Z" transform="translate(193.544 -241.956) rotate(35.424)" fill="#594539"/><path d="M462.823,181.883a2.863,2.863,0,0,0,.651,4c.087.062,1.22.862,1.312.913,1.254.708,1.823-.369,2.684-1.565s1.713-2.058.67-3.026c-.087-.08-1.223-.9-1.322-.969A2.862,2.862,0,0,0,462.823,181.883Z" fill="#9b643d"/><path d="M469.771,175.338h4.583a5.331,5.331,0,0,1,5.331,5.331v10.281a7.623,7.623,0,0,1-7.623,7.623h0a7.623,7.623,0,0,1-7.623-7.623V180.669A5.331,5.331,0,0,1,469.771,175.338Z" transform="translate(195.75 -239.01) rotate(35.424)" fill="#9b643d"/><path d="M462.278,190.742l4.583,3.148,2.556-3.342a.938.938,0,0,0,.111-.883l-.584-1.507a.641.641,0,0,1,.36-.827l2.013-.8a2.72,2.72,0,0,0,1.2-.937l3.746-5.223-4.809-3.313Z" fill="url(#e)"/><ellipse cx="469.635" cy="184.456" rx="1.259" ry="0.652" transform="translate(45.589 457.89) rotate(-54.258)" fill="#3a312e"/><ellipse cx="474.901" cy="188.202" rx="1.259" ry="0.652" transform="translate(44.739 463.722) rotate(-54.258)" fill="#3a312e"/><path d="M479.951,194.067a2.863,2.863,0,0,1-3.988.695c-.088-.062-1.215-.87-1.293-.939-1.081-.953-.25-1.843.6-3.049s1.382-2.294,2.639-1.626c.1.056,1.25.861,1.349.93A2.863,2.863,0,0,1,479.951,194.067Z" fill="#9b643d"/><path d="M470.693,193.346a2.134,2.134,0,0,1-1.168.66,2.568,2.568,0,0,1-1.4-.1,2.333,2.333,0,0,1-1.6-2.087.246.246,0,0,1,.249-.243.238.238,0,0,1,.163.064l.019.017a4.953,4.953,0,0,0,1.619,1.039,4.573,4.573,0,0,0,1.911.244h.019a.246.246,0,0,1,.192.411Z" fill="#855035"/><path d="M483.87,179.185l-8.341-5.934-5.414,2.1-3.369,5.835,3.535-3.5a3.345,3.345,0,0,1,4.216-.275l5.783,4.113A3.344,3.344,0,0,1,481.4,185.6l-2.145,4.488,4.407-5.1Z" fill="#594539"/><circle cx="481.094" cy="180.622" r="2.91" fill="#594539"/><path d="M199.167,197.333c-2.815,6.227-6.013,8.919-10.09,9.451-7.278.95-7.247,4.884-9.119,8.3-2.375,4.334-7.552,9.139-15.458,7.417-4.462-.972-10.39-3.509-14.75-.917-4.592,2.731-5.017-2.021-3.833-6.25,1.77-6.325,8.519-15.972,17.386-19.049,7.745-2.689,11.719-8.294,14.806-11.81s10.021-6.127,13.558-3.474S201.079,193.1,199.167,197.333Z" fill="url(#f)"/><path d="M213.429,284.525l.157,1.944c-1.787.281-1.516,5.43-1.516,5.43.241,1.441-1.642,1.923-2.192.137l-1.92-6.244A1.56,1.56,0,0,1,209,283.847l4.032-1.215Z" fill="#737373"/><path d="M284.017,250.636l1.537-1.2c1.217,1.338,5.37-1.717,5.37-1.717,1.072-.993,2.509.316,1.319,1.756l-4.162,5.036a1.56,1.56,0,0,1-2.2.2l-3.23-2.7Z" fill="#737373"/><path d="M285.5,248.667c-1.6-.878-7.693-5.945-16.254-10.531a35.169,35.169,0,0,0-12-4.188c-2.82-.427-8.742-.781-25.575-.948l-9.167,3.667s5.5,12.166,9.5,12.5c3.647.3,16.572-1.747,25.773-3.5a.6.6,0,0,0,.06,0c4.584-.667,19.311,5.435,25.25,7.291C287.083,254.208,288.083,250.083,285.5,248.667Z" fill="#505050"/><path d="M227.083,233.833c15.5,22.5,19.311,39.232,14.25,43-7.833,5.834-24.057,8.921-27.187,10.125-1.625.625-3.688-3.5-1.75-4.375,3.811-1.721,12.531-8.335,16.128-11.261a1.96,1.96,0,0,0,.056-2.992c-4.381-3.884-15.447-14.522-15.247-22.747C213.583,235.333,227.083,233.833,227.083,233.833Z" fill="#505050"/><path d="M171.468,211.663c-1.374.351-1.435,4.567-2.017,4.569-.734,0-5.145-5.216-6.137-4.88-.911.207,2.661,3.994,2.661,3.994s-4.5-2.448-4.989-1.513c-.3.586.047,1.453-.345,1.624-.922.4,2.3,2.346,3.562,3.252.587.422-3.4-.321-3.262.291.167.738,4.879,1.618,6.277,2.3,2.214,1.085,3.547,2.068,4.392,3.621.918,1.69,3.036-.769,2.985-1.188-.15-1.22-1.636-4.175-2.367-6.172C171.549,215.711,171.954,211.539,171.468,211.663Z" fill="#e0bb95"/><path d="M193.216,161.469c.51-1.323,4.7-.885,4.774-1.463.089-.729-4.572-5.725-4.121-6.67.313-.88,3.652,3.113,3.652,3.113s-1.9-4.759-.914-5.132c.618-.234,1.437.218,1.654-.151.509-.868,2.057,2.563,2.808,3.921.351.633.083-3.415.674-3.2.713.253,1.031,5.035,1.547,6.5.816,2.327,1.634,3.766,3.078,4.788,1.569,1.111-1.123,2.925-1.532,2.824-1.2-.293-3.953-2.117-5.85-3.079C197.226,162.028,193.035,161.937,193.216,161.469Z" fill="#e0bb95"/><ellipse cx="188.168" cy="193.195" rx="13.743" ry="13.114" transform="translate(-81.49 197.163) rotate(-46.598)" fill="#59453c"/><path d="M208.45,196.68c-2.918,3.487-6.551,5.591-6.922,8.207-.821,5.8,9.119,9.48,9.119,9.48,8-4.872,19.931-19.9,17.172-33.245-2.4-11.613-22.223-20.463-22.223-20.463l-3.451,5.862s15.236,10.3,14.062,16.483C215.06,189.046,211.373,193.106,208.45,196.68Z" fill="url(#g)"/><path d="M206.615,200.049a25.832,25.832,0,0,0-4.38,1.927c-.818.44-1.785-.131-2.942-1.255l-5.288-5.428-6.031,6.311,5.712,4.834a2.317,2.317,0,0,1-.144,2.642,16.081,16.081,0,0,0-3.151,4.363s5.129,4.1,10.071,2.939a14.133,14.133,0,0,0,6.488-4.531C209.543,207.813,206.615,200.049,206.615,200.049Z" fill="url(#h)"/><path d="M191.642,213.644a13.142,13.142,0,0,0-.534,1.565c-1.562,5.4,6.036,4.25,9.6,9.749l16.375,22.125s11.375-5.562,15.875-12.75c-6.471-10.541-11.647-19.359-10.983-19.1-3.381-5.216-8.286-10.664-11.071-12.152a6.781,6.781,0,0,0-2.5-.293A24.194,24.194,0,0,1,191.642,213.644Z" fill="#e06c47"/><path d="M193.018,209.618s10.9,2.768,17.565,12.465c6.448,9.374,15.5,12.1,17.875,19-5.25,6.125-15.75,8.75-15.75,8.75s-6.625-12-16.625-16.5a11.327,11.327,0,0,1-6-4.75C186.047,220.694,186.564,215.06,193.018,209.618Z" fill="url(#i)"/><path d="M201.943,202.052s6.564,3.318,16.856,16.454c9.686,12.363,9.612,15.128,12.159,20.39a6.867,6.867,0,0,0,3.209-5.9s-7.834-14.292-13.334-22.292a49.774,49.774,0,0,0-7.464-8.266c-3.27-3.229-5.611-4.626-7.056-3.426A16.665,16.665,0,0,1,201.943,202.052Z" fill="url(#j)"/><path d="M198.015,186.461c5.928,5.785,5.262,11.037,1.529,14.984s-10.468,3.637-15.046-.692-5.261-11.037-1.529-14.984S193.506,182.061,198.015,186.461Z" fill="#e0bb95"/><line x1="185.852" y1="196.639" x2="182.945" y2="199.739" fill="none" stroke="#9b643d" stroke-linecap="square" stroke-linejoin="round" stroke-width="0.849"/><path d="M176.719,193.548c.766,4.024,3.873,9.378,8.3,10.438,1.424-2.207,2.22-6.45,2.536-8.336a22.444,22.444,0,0,0-1.087-10.7,5.8,5.8,0,0,0-2.464-2.7C183.56,181.9,176.016,185.9,176.719,193.548Z" fill="#594539"/><path d="M184.008,182.251c.517,2.258,8.117,8.338,14.111,2.663-2.248-2.287-4.731-4.12-7.887-4.467C187.3,180.231,183.9,181.763,184.008,182.251Z" fill="#594539"/><path d="M184.33,203.86a2.465,2.465,0,0,0,.615,1.883,2.376,2.376,0,0,0,1.751.88,2.463,2.463,0,0,0,1.883-.615c.578-.513,2.335-2.154,2.335-2.154l-4.04-3.634c-.469.4-1.117,1.28-1.664,1.888A2.488,2.488,0,0,0,184.33,203.86Z" fill="#e0bb95"/><polygon points="191.15 190.807 198.015 197.071 201.708 193.254 194.617 186.895 191.15 190.807" fill="url(#k)"/><circle cx="196.543" cy="189.452" r="3.47" fill="none" stroke="#9b643d" stroke-linecap="round" stroke-linejoin="round" stroke-width="0.96"/><path d="M193.629,192.05a4.756,4.756,0,0,0,2.4.8,1.448,1.448,0,0,1,1.249,1.181c.1.553-.5,1.873-.434,2.016l-1.211,1.28-3.577-3.61Z" fill="#e0bb95"/><circle cx="190.715" cy="195.765" r="3.47" fill="none" stroke="#9b643d" stroke-linecap="round" stroke-linejoin="round" stroke-width="0.96"/><line x1="192.444" y1="192.624" x2="193.55" y2="191.423" fill="none" stroke="#9b643d" stroke-linecap="round" stroke-linejoin="round" stroke-width="0.96"/><path d="M198.6,196.727a2.717,2.717,0,0,1-1.142,1.93,2.507,2.507,0,0,1-1.11.438,2.309,2.309,0,0,1-1.131-.127.413.413,0,0,1,.022-.774l.035-.012c.3-.1.558-.166.793-.271a3.884,3.884,0,0,0,.652-.335,4.79,4.79,0,0,0,1.138-1.126l.012-.015a.409.409,0,0,1,.576-.067A.414.414,0,0,1,198.6,196.727Z" fill="#bf8f68"/><path d="M188.333,224.9c-1.6-3.534-.5-7.316,4.642-9.758,7.75-3.679,8.227-.612,8.227-.612,3.768,10.767,3.061,29.769-5.982,34.575-15.8,8.4-25.7-24.642-25.7-24.642l5.945-2.6s8.753,17.855,13.754,15.841C191.533,236.767,190.771,232.146,188.333,224.9Z" fill="url(#l)"/><ellipse cx="189.765" cy="195.836" rx="0.7" ry="1.314" transform="translate(-82.929 195.271) rotate(-45.783)" fill="#33312d"/><ellipse cx="195.322" cy="189.832" rx="0.7" ry="1.314" transform="translate(-76.944 197.436) rotate(-45.783)" fill="#33312d"/><path d="M464.873,121.619l-3.821-2.107c-1-.6-2.234.652-2.234.652a1.863,1.863,0,0,1-2.7-.454,2.005,2.005,0,0,1-.009-2.561l-.031-.035,2.9-2.439a1.462,1.462,0,0,1,2.021.182l4.714,5.521A.782.782,0,0,1,464.873,121.619Z" fill="#b2b2b2"/><path d="M473.237,99.672l-4.327-.557c-1.152-.185-1.839,1.426-1.839,1.426a1.864,1.864,0,0,1-2.674.569,2.008,2.008,0,0,1-.949-2.38l-.042-.02,1.805-3.335a1.463,1.463,0,0,1,1.947-.573l6.412,3.4A.782.782,0,0,1,473.237,99.672Z" fill="#b2b2b2"/><path d="M359.828,53.276q-.46,1.671-1.517,1.56-1.116-.088-1.367-1.673l-.49-3.1a12.251,12.251,0,0,1-.17-2.469,6.967,6.967,0,0,1,.2-1.879,15.079,15.079,0,0,0,.373-1.708,4.407,4.407,0,0,1,.5-1.355,1.374,1.374,0,0,1,1.165-.31q.159-.3.485-.828a1.583,1.583,0,0,1,.473-.467q.675-.05.66.643l.086,5.3.686-.811a16.077,16.077,0,0,1,1.093-1.372c.264-.244.489-.316.677-.215q.286.221.119.783a17.091,17.091,0,0,1-.936,2.8q-.344.82-.8,2.16Z" fill="#be906b"/><path d="M415.95,101.081S418.082,131,417.993,135.6c-.132,6.792,6.352,12.772,14,5.29s14.227-14.742,14.227-14.742l-2.918-6.473-11.762,7.469a.213.213,0,0,1-.325-.214l5.77-35.975-11.955-8.139Z" fill="url(#m)"/><path d="M431.849,80.065c6.759,1.722,14.426,4.428,15.308,15.47.664,8.3,1.748,18.08,2.246,22.425a.793.793,0,0,0,1.462.329c3.147-5.119,11.465-18.647,12.214-19.84,1.49-2.373,6.319.006,5.3,2.935-1.69,4.882-12.042,27.925-14.595,32.239s-10.945,10.037-15.5-4.207-13.885-43.8-13.885-43.8Z" fill="url(#n)"/><path d="M434.508,78.463c-.224-.295-4.313-1.48-9.424-3.284-3.089-1.09-8.423-5.312-9.885-6.821-2.2-2.272-3.911-4.876-5.234-5.871-4.33-3.259-11.55-.969-16.127,5.113s-4.778,13.653-.448,16.912a33.613,33.613,0,0,0,6.752,3.58c3.121,1.321,8.428,3.923,10.333,6.463a97.111,97.111,0,0,1,5.721,8.12c.018.058,3.031-3.525,8.893-11.314S434.51,78.467,434.508,78.463Z" fill="url(#o)"/><path d="M391.334,74.193c-9.626,2.808-20.183,2.282-24.9,1.837a3.206,3.206,0,0,1-2.878-2.727l-3.095-21.228-3.866.452s-.892,23.561,2.271,27.8,13.98,7.047,26.72,5.512c2.52-.3,9.941.05,14.329,2.077C408.156,91.722,394.288,73.331,391.334,74.193Z" fill="url(#p)"/><path d="M390.5,21.2q1.464.928,2.172.137.768-.814-.11-2.157l-1.72-2.628a12.155,12.155,0,0,0-1.532-1.944,6.884,6.884,0,0,0-1.412-1.256,15.389,15.389,0,0,1-1.423-1.016,4.387,4.387,0,0,0-1.28-.668,1.37,1.37,0,0,0-1.071.552q-.32-.114-.916-.287a1.587,1.587,0,0,0-.664-.03.547.547,0,0,0-.058.921l3.493,3.983-1.052-.141a16.177,16.177,0,0,0-1.732-.282q-.538-.006-.646.295-.065.356.437.66a17.214,17.214,0,0,0,2.576,1.449q.807.377,2.046,1.061Z" fill="#be906b"/><path d="M408.152,48.877a57.587,57.587,0,0,0-15.24-29.75l-2.975,2.321c11.886,20.75,9.583,30.065,9.5,33.448l-.1,7.6a7.848,7.848,0,0,0,1.917,4.887q2.1,2.788,3.562,1.6c1.981-1.611,10.807,1.055,7.468-3.853C408.5,59.555,408.554,50.95,408.152,48.877Z" fill="url(#q)"/><path d="M381.388,50.573a17.345,17.345,0,0,0,.751,5.083s2.291-3.183,7.568-2.775q1.2.114,3.689,2.321a10.678,10.678,0,0,0,3.574,2.234c1,.3,3.336.474,5.376-2.4,2.41-3.393.935-6.271.894-6.169-.982,2.428-3.787.662-3.787.662-6.312-4.816-8.318-6.107-9.315-6.495a5.634,5.634,0,0,0-6.435,1.216Q381.614,46.322,381.388,50.573Z" fill="#41312c"/><path d="M395.889,69.363a19.991,19.991,0,0,0,3.333-6.6,17.821,17.821,0,0,0-8.575,11.516A20.1,20.1,0,0,0,395.889,69.363Z" fill="#bf8f68"/><path d="M381.956,46.993a10.3,10.3,0,0,0-11.6,9.658,11.633,11.633,0,0,0,10.153,12.192A10.32,10.32,0,0,0,392.1,59.169a11.609,11.609,0,0,0-10.14-12.176Z" fill="#59453c"/><path d="M400.247,63.569a13.768,13.768,0,0,0-.852-1.823,61.686,61.686,0,0,0-5.757,6,68.421,68.421,0,0,0-3.992,6.954,7.222,7.222,0,0,0,1.712.457,3.129,3.129,0,0,0,2.784-1.134l5.839-7.759A3.012,3.012,0,0,0,400.247,63.569Z" fill="#be906b"/><path d="M398.649,62.594a13.265,13.265,0,0,1-2.11,1.742,1.816,1.816,0,0,1-1.723-.5l-4.757-3.679L385.5,66.217l4.719,3.552a3.21,3.21,0,0,1,.967,1.193,4.7,4.7,0,0,1-.973,2.729C393.632,73.9,399.431,67.775,398.649,62.594Z" fill="url(#r)"/><ellipse cx="382.714" cy="59.246" rx="7.632" ry="10.472" transform="translate(53.742 263.593) rotate(-40.647)" fill="#be906b"/><path d="M380.916,56.8l-3.855,3.31,6,6.984,3.855-3.31Z" fill="url(#s)"/><path d="M384.77,62.191a2.009,2.009,0,0,1,.669-.119l.021-.017c.218-1.462-.815-2.739-3-3.455l.33.629A3.258,3.258,0,0,1,382.937,61a.958.958,0,0,0,.2.808,1.169,1.169,0,0,0,.644.464A2.111,2.111,0,0,0,384.77,62.191Z" fill="#be906b"/><path d="M382.024,47.249c-.731-.077-2.99.873-1.016,3.444,3.09,2.782,5.17.645,7.371,3.548.329.435,2.411.258,2.987.417C390.608,51.392,385.077,47.555,382.024,47.249Z" fill="#59453c"/><ellipse cx="379.058" cy="61.852" rx="0.711" ry="1.178" transform="translate(51.163 261.84) rotate(-40.647)" fill="#3a312e"/><ellipse cx="384.303" cy="57.392" rx="0.711" ry="1.178" transform="translate(55.333 264.181) rotate(-40.647)" fill="#3a312e"/><circle cx="378.581" cy="65.343" r="2.145" fill="#be906b"/><circle cx="389.077" cy="56.331" r="2.145" fill="#be906b"/><path d="M383.423,47.81a11.28,11.28,0,0,1,.225,2.834,14.517,14.517,0,0,0-4.682,7.187c-.775,2.6-4.941,8.43-10.789,5.131,1.468-.537,1.929-.318,1.64-3.837-.36-4.366,1.148-7.648,4.339-9.92C377.317,46.954,380.069,46.877,383.423,47.81Z" fill="#59453c"/><path d="M385.156,65.462c2.492.573,4.209-1.509,2.7-3.544a7.356,7.356,0,0,1-1.109,2.027A8.847,8.847,0,0,1,385.156,65.462Z" fill="#fff"/><path d="M387.865,61.881a3.745,3.745,0,0,1-.661,2.156,3.683,3.683,0,0,1-.886.912,3,3,0,0,1-1.153.494.229.229,0,0,1-.294-.2.308.308,0,0,1,.138-.26l.037-.025a5.452,5.452,0,0,0,.791-.592,3.923,3.923,0,0,0,.622-.708,5.911,5.911,0,0,0,.48-.836c.132-.292.271-.611.371-.907l.008-.022a.336.336,0,0,1,.354-.222A.217.217,0,0,1,387.865,61.881Z" fill="#9a6541"/><path d="M297.234,160h-5.156V127.275l-5.742,3.692v-5.186l5.742-3.955h5.156Z" fill="#505050"/><path d="M307.576,130.322a13.808,13.808,0,0,1,.366-3.149,7.579,7.579,0,0,1,1.289-2.813,6.89,6.89,0,0,1,2.5-2.036,10.58,10.58,0,0,1,8.028,0,6.89,6.89,0,0,1,2.5,2.036,7.579,7.579,0,0,1,1.289,2.813,13.808,13.808,0,0,1,.366,3.149V151.5a13.8,13.8,0,0,1-.366,3.149,7.572,7.572,0,0,1-1.289,2.813,6.88,6.88,0,0,1-2.5,2.036,10.58,10.58,0,0,1-8.028,0,6.88,6.88,0,0,1-2.5-2.036,7.572,7.572,0,0,1-1.289-2.813,13.8,13.8,0,0,1-.366-3.149Zm11.192,0a5.025,5.025,0,0,0-.718-2.885,3.061,3.061,0,0,0-4.6,0,5.018,5.018,0,0,0-.718,2.885V151.5a5.021,5.021,0,0,0,.718,2.886,3.063,3.063,0,0,0,4.6,0,5.029,5.029,0,0,0,.718-2.886Z" fill="#505050"/><path d="M330.076,130.322a13.808,13.808,0,0,1,.366-3.149,7.579,7.579,0,0,1,1.289-2.813,6.89,6.89,0,0,1,2.5-2.036,10.58,10.58,0,0,1,8.028,0,6.89,6.89,0,0,1,2.5,2.036,7.579,7.579,0,0,1,1.289,2.813,13.808,13.808,0,0,1,.366,3.149V151.5a13.8,13.8,0,0,1-.366,3.149,7.572,7.572,0,0,1-1.289,2.813,6.88,6.88,0,0,1-2.5,2.036,10.58,10.58,0,0,1-8.028,0,6.88,6.88,0,0,1-2.5-2.036,7.572,7.572,0,0,1-1.289-2.813,13.8,13.8,0,0,1-.366-3.149Zm11.192,0a5.025,5.025,0,0,0-.718-2.885,3.061,3.061,0,0,0-4.6,0,5.018,5.018,0,0,0-.718,2.885V151.5a5.021,5.021,0,0,0,.718,2.886,3.063,3.063,0,0,0,4.6,0,5.029,5.029,0,0,0,.718-2.886Z" fill="#505050"/><path d="M351.873,136.826v-7.295a22.14,22.14,0,0,1,.147-2.358,7.45,7.45,0,0,1,.791-2.622,5.742,5.742,0,0,1,1.933-2.139,6.221,6.221,0,0,1,3.545-.879,6.09,6.09,0,0,1,3.5.879,5.8,5.8,0,0,1,1.919,2.139,7.735,7.735,0,0,1,.806,2.622,20.56,20.56,0,0,1,.161,2.358v7.295q0,.645-.059,1.494a9.978,9.978,0,0,1-.278,1.729,9.027,9.027,0,0,1-.63,1.728,5.143,5.143,0,0,1-1.128,1.524,5.485,5.485,0,0,1-1.758,1.084,6.91,6.91,0,0,1-2.534.41,7.123,7.123,0,0,1-2.578-.41,5.584,5.584,0,0,1-1.773-1.07,4.934,4.934,0,0,1-1.127-1.508,8.219,8.219,0,0,1-.616-1.744,11.3,11.3,0,0,1-.263-1.728C351.892,137.778,351.873,137.276,351.873,136.826Zm8.379,0v-7.295c0-.429-.015-.879-.044-1.347a5.4,5.4,0,0,0-.234-1.3,2.428,2.428,0,0,0-.586-1,1.485,1.485,0,0,0-1.1-.4,1.526,1.526,0,0,0-1.128.4,2.406,2.406,0,0,0-.586,1,5.4,5.4,0,0,0-.234,1.3c-.029.468-.044.918-.044,1.347v7.295q0,.615.044,1.319a5.4,5.4,0,0,0,.234,1.3,2.4,2.4,0,0,0,.586,1,1.526,1.526,0,0,0,1.128.4,1.485,1.485,0,0,0,1.1-.4,2.421,2.421,0,0,0,.586-1,5.4,5.4,0,0,0,.234-1.3Q360.252,137.441,360.252,136.826ZM362.537,160h-4.248l14.941-38.174h4.249Zm8.525-7.676v-7.3a22.408,22.408,0,0,1,.147-2.358,7.471,7.471,0,0,1,.791-2.622,5.745,5.745,0,0,1,1.934-2.139,6.217,6.217,0,0,1,3.545-.879,6.086,6.086,0,0,1,3.5.879,5.787,5.787,0,0,1,1.919,2.139,7.691,7.691,0,0,1,.806,2.622,20.56,20.56,0,0,1,.161,2.358v7.3q0,.645-.058,1.494a9.981,9.981,0,0,1-.279,1.729,8.894,8.894,0,0,1-.63,1.728,5.14,5.14,0,0,1-1.127,1.524A5.435,5.435,0,0,1,380,159.883a6.959,6.959,0,0,1-2.519.41,7.154,7.154,0,0,1-2.579-.41,5.568,5.568,0,0,1-1.772-1.07A4.937,4.937,0,0,1,372,157.305a8.172,8.172,0,0,1-.615-1.743,11.218,11.218,0,0,1-.264-1.744Q371.063,152.969,371.062,152.324Zm8.379,0v-7.3c0-.429-.014-.879-.044-1.347a5.4,5.4,0,0,0-.234-1.3,2.413,2.413,0,0,0-.586-1,1.484,1.484,0,0,0-1.1-.4,1.523,1.523,0,0,0-1.128.4,2.413,2.413,0,0,0-.586,1,5.4,5.4,0,0,0-.235,1.3c-.029.468-.044.918-.044,1.347v7.3q0,.615.044,1.319a5.4,5.4,0,0,0,.235,1.3,2.4,2.4,0,0,0,.586,1,1.523,1.523,0,0,0,1.128.4,1.484,1.484,0,0,0,1.1-.4,2.4,2.4,0,0,0,.586-1,5.4,5.4,0,0,0,.234-1.3Q379.442,152.94,379.441,152.324Z" fill="#505050"/><path d="M307.725,203.359h-9.493V220h-5.156V181.826h16.348v4.863H298.232V198.5h9.493Z" fill="#505050"/><path d="M333.3,220h-5.6l-4.687-15.938h-4.336V220h-5.157V181.826h8.907a11.327,11.327,0,0,1,3.208.5,7.98,7.98,0,0,1,3.076,1.743,9.393,9.393,0,0,1,2.3,3.384,13.963,13.963,0,0,1,.908,5.42,14.576,14.576,0,0,1-.366,3.4,12.817,12.817,0,0,1-.967,2.724,9.652,9.652,0,0,1-1.392,2.095,10.159,10.159,0,0,1-1.64,1.509Zm-10.576-20.654a3.056,3.056,0,0,0,1.655-.469,3.975,3.975,0,0,0,1.274-1.333,7.265,7.265,0,0,0,.821-2.051,11.006,11.006,0,0,0,.293-2.622,8.01,8.01,0,0,0-1.114-4.541,3.394,3.394,0,0,0-2.929-1.641h-4.043v12.657Z" fill="#505050"/><path d="M352.051,203.359h-9.492v11.778H353.75V220H337.4V181.826H353.75v4.863H342.559V198.5h9.492Z" fill="#505050"/><path d="M373.848,203.359h-9.493v11.778h11.192V220H359.2V181.826h16.348v4.863H364.355V198.5h9.493Z" fill="#505050"/><path d="M195.979,130.773a2.7,2.7,0,0,1,1.681,1.019,2.138,2.138,0,0,1,.5,1.516l-.4,2.389a2.044,2.044,0,0,1-2.334,1.695l-7.22-1.027a.636.636,0,0,1-.586-.575.613.613,0,0,1,.388-.717l3.96-1.355a1.825,1.825,0,0,0,.83-.394,2.3,2.3,0,0,0,.516-1.239Q193.6,130.273,195.979,130.773Z" fill="#c2c2c2"/><path d="M221.978,83.98a263.382,263.382,0,0,0-26.288,9.142,10.67,10.67,0,0,0-6.494,10.093c.41,5.339,2.917,27.765,2.943,29.35s5.215,2.96,5.762.9c.771-2.9,3.458-18.552,4.489-24.05a3.127,3.127,0,0,1,2.456-2.493c5.992-1.214,28.253-.887,31.376-4.458C240.019,98.125,221.978,83.98,221.978,83.98Z" fill="url(#t)"/><path d="M231.844,140.121a2.7,2.7,0,0,1,1.568-1.185,2.138,2.138,0,0,1,1.593.095l2.073,1.255a2.044,2.044,0,0,1,.712,2.795l-3.622,6.329a.634.634,0,0,1-.751.332.612.612,0,0,1-.523-.625l.2-4.18a1.82,1.82,0,0,0-.059-.917,2.3,2.3,0,0,0-.961-.937Q230.5,142.142,231.844,140.121Z" fill="#c2c2c2"/><path d="M226.165,92.78c-8.238,9.754-16.965,20.308-22,27.141-5.175,7.027-2.281,11.375,3.206,14.17A251.493,251.493,0,0,0,232.652,144.6c2.672.861,5.194-3.6,2.65-5.584s-16.043-11.261-16.043-11.261,20.5-9.692,26.079-26.056S226.165,92.78,226.165,92.78Z" fill="url(#u)"/><path d="M312.653,54.005l-.793,2.964q-.978,2.157.37,3.082a1.755,1.755,0,0,0,2.6-.344l2.707-3.194a14.65,14.65,0,0,0,1.606-2.554,9.914,9.914,0,0,0,.925-2.083,19.581,19.581,0,0,1,.6-2.091,5.615,5.615,0,0,0,.3-1.756,1.794,1.794,0,0,0-.959-1.012l-.029-1.149a2.478,2.478,0,0,0-.242-.781q-.633-.507-1.007.274l-3.276,5.58-.186-1.233a17.1,17.1,0,0,0-.3-2.156q-.192-.667-.565-.622-.464.035-.6.741a21.536,21.536,0,0,0-.716,3.563Q312.97,52.208,312.653,54.005Z" fill="#dbb48e"/><path d="M273.537,17.974q-2.079.067-2.328-1.184-.3-1.311,1.432-2.162l3.382-1.665a14.6,14.6,0,0,1,2.769-1.073,8.346,8.346,0,0,1,2.226-.436,18.135,18.135,0,0,0,2.091-.181,5.311,5.311,0,0,1,1.731.092,1.642,1.642,0,0,1,.769,1.225q.4.076,1.122.262a1.878,1.878,0,0,1,.7.375.656.656,0,0,1-.5.986L280.891,16.2l1.174.5a19.135,19.135,0,0,1,1.961.766q.561.323.488.7-.151.406-.855.415a20.6,20.6,0,0,1-3.546-.076q-1.064-.1-2.762-.153Z" fill="#dcb38b"/><path d="M259.7,51.174c-2.581,14.459-17.4,6.078-18.4,4.491,2.676-18.816,11.7-37.849,32.538-41.681a26.922,26.922,0,0,1,2.149,4.211C255.074,28.647,256.341,47.467,259.7,51.174Z" fill="url(#v)"/><path d="M276.232,43.6l8.282,11.447s-10.532,6.314-12.665,7.532c0,0-9.515-8.954-9.7-10.454C264.506,50.324,276.232,43.6,276.232,43.6Z" fill="url(#w)"/><path d="M288.983,47.936a4.368,4.368,0,0,1,.325,3.393,4.143,4.143,0,0,1-2.15,2.621l-5.035,2.727-8.349-15.468,8.38-4.51a.486.486,0,0,1,.494-.039.65.65,0,0,1,.4.324Z" fill="#e1dfdd"/><path d="M279.389,58.272a2.713,2.713,0,0,1-.5-.7,2.63,2.63,0,0,1-.318-1.484,2.256,2.256,0,0,1,.73-1.394,2.3,2.3,0,0,1,1.525-.769q.984-.133,1.586,1.083.468,1.231.479,1.253Z" fill="#e1dfdd"/><path d="M278.366,51.821a2.415,2.415,0,0,1,1.207-1.487,2.344,2.344,0,0,1,1.873-.191,2.375,2.375,0,0,1,1.473,1.19,2.427,2.427,0,0,1,.205,1.891,2.467,2.467,0,0,1-1.222,1.469,2.343,2.343,0,0,1-1.873.191,2.375,2.375,0,0,1-1.473-1.19A2.347,2.347,0,0,1,278.366,51.821Z" fill="#dfbc97"/><path d="M283.349,49.967a66.75,66.75,0,0,1-6.547,3.687q-3.167,1.659-5.375,1.046-2.346-.647-4.537-3.957a7.3,7.3,0,0,1-1.487-4.129,2.607,2.607,0,0,1,1.133-2.085,43.078,43.078,0,0,1,5.2-2.857q4.819-2.326,5.239-2.555a5.36,5.36,0,0,1,4.241-.73,7.36,7.36,0,0,1,3.133,2.493,5.893,5.893,0,0,1,.877,1.613Q287.218,47.343,283.349,49.967Z" fill="#dfbc97"/><path d="M275.558,41.792a1.422,1.422,0,0,1,.686-.276.386.386,0,0,1,.395.641,1.956,1.956,0,0,1-1.282.792q-.348.009-.433-.176a.441.441,0,0,1,.059-.478A1.966,1.966,0,0,1,275.558,41.792Z" fill="#605d5a"/><path d="M272.409,59.012a16.2,16.2,0,0,1,5.132,11.855c.066,4.661-1.2,8.1-4.778,12s-19.847,16.839-19.847,16.839a36.988,36.988,0,0,0-8.208,7.748q-2.6-1.842-7.25-4.5a66.986,66.986,0,0,1-6.373-3.976q-6.607-4.941-10.116-15.137,1.152-1.428,2.691-3.759,1.573-2.325,2.212-3.126.445-.549,4.8-8.675,4.1-7.578,6.969-10.581A22.166,22.166,0,0,1,254,50.613a22.5,22.5,0,0,1,16.588,6.631Z" fill="url(#x)"/><path d="M273.735,39.906a2.012,2.012,0,0,0,1.532.234l-3.547,2.19a4.691,4.691,0,0,1-.509-1.781,1.359,1.359,0,0,1,.33-.853,1.146,1.146,0,0,1,.843-.4A2.681,2.681,0,0,1,273.735,39.906Z" fill="#dfbc97"/><path d="M280.173,33.751q-2.683,2.586,1.336,6.467a30.762,30.762,0,0,1,7.05,10.608l.892-.609a4.7,4.7,0,0,0,2.1-2.664,3.485,3.485,0,0,0-.83-3.351,7.351,7.351,0,0,1-1.849-3.187,7.838,7.838,0,0,0-.345-1.849,2.3,2.3,0,0,0-1.7-1.185q-1.211-.24-1.34-.451a2.728,2.728,0,0,1-.008-2.115,2.406,2.406,0,0,0-.777-2.455,2.325,2.325,0,0,0-2.078-.4A4.418,4.418,0,0,0,280.173,33.751Z" fill="#e1dfdd"/><path d="M286.891,45.339a3.3,3.3,0,0,1-.55,4.706,3.209,3.209,0,0,1-2.452.706,3.247,3.247,0,0,1-2.254-1.256,3.377,3.377,0,0,1,.55-4.706,3.25,3.25,0,0,1,2.483-.7A3.215,3.215,0,0,1,286.891,45.339Z" fill="#e1dfdd"/><path d="M272.57,59.024a17.248,17.248,0,0,1,2.9,3.921q-4.581.645-9.757-3.364T259.728,51.2a20.472,20.472,0,0,1,10.874,5.8Q271.525,57.853,272.57,59.024Z" fill="#dfbc97"/><g opacity="0.7"><path d="M272.341,45.324a1.246,1.246,0,0,1-1,.2,1.849,1.849,0,0,1-.9-.445,1.87,1.87,0,0,1-.555-.854,1.2,1.2,0,0,1,.133-1.055.275.275,0,0,1,.384-.06.278.278,0,0,1,.1.152l.017.065a1.653,1.653,0,0,0,.265.513,3.279,3.279,0,0,0,.383.435,3.524,3.524,0,0,0,.466.377,1.826,1.826,0,0,0,.574.255l.046.012a.232.232,0,0,1,.089.405Z" fill="#bf8f68"/></g><path d="M275.388,62.887c-14.609-1.515-12.553,15.713-4.562,17.447,9.7,1.353,22.048,1.009,25.537-.14,3.7-1.218,14.466-11.232,19.043-20.427a32.452,32.452,0,0,0-3.453-3.229,55.382,55.382,0,0,1-18.53,12.67C290.7,70.263,279.094,65.836,275.388,62.887Z" fill="url(#y)"/><path d="M229.5,52.833c8-38.666,34.667-44,34.667-44" fill="none" stroke="#b2b2b2" stroke-miterlimit="10"/><path d="M410.5,140.5c24,33.5,55-8,55-8" fill="none" stroke="#b2b2b2" stroke-miterlimit="10"/><path d="M418.617,287.806c32.526-5.771,40.512-29.509,40.512-29.509" fill="none" stroke="#b2b2b2" stroke-miterlimit="10"/><path d="M247.75,260c10.5,26.25-17.75,28.25-17.75,28.25" fill="none" stroke="#b2b2b2" stroke-miterlimit="10"/></svg>