<svg xmlns="http://www.w3.org/2000/svg" xmlns:xlink="http://www.w3.org/1999/xlink" viewBox="0 0 300 300"><defs><clipPath id="a"><path d="M156.768,185a27.028,27.028,0,0,1,27.126,24.077,30.243,30.243,0,0,1,21.1-9.028c9.872,0,19.025,5.725,24,13.966V51H135V195.4A27.968,27.968,0,0,1,156.768,185Z" fill="none"/></clipPath><clipPath id="b"><path d="M81.463,251.65a28.029,28.029,0,0,1,12.448,2.915,27.754,27.754,0,0,1,23.6-13.251A26.881,26.881,0,0,1,125,242.38V128H63V258.612A28.206,28.206,0,0,1,81.463,251.65Z" fill="none"/></clipPath></defs><title>tile-cloud-hosted-server</title><rect width="300" height="300" fill="#69afe5"/><rect x="174" y="108" width="80" height="117" rx="5.039" ry="5.039" fill="#0078d7"/><rect x="52" y="89" width="80" height="117" rx="5.039" ry="5.039" fill="#0078d7"/><path d="M112.642,33h65.716A4.642,4.642,0,0,1,183,37.642V246.358A4.642,4.642,0,0,1,178.358,251H112.642A4.642,4.642,0,0,1,108,246.358V37.642A4.642,4.642,0,0,1,112.642,33Z" fill="#2488d8"/><path d="M239.012,190.314h-4.645c2.324-5.794,4.645-12.746,4.645-18.538A42.808,42.808,0,0,0,196.068,128.9a41.624,41.624,0,0,0-41.774,37.078c-8.122-8.111-19.729-13.9-32.5-13.9-22.049,0-41.769,18.54-42.936,40.554-4.639-1.161-9.279-2.316-13.92-2.316C40.567,190.314,22,208.851,22,233.186,22,256.359,40.567,274.9,64.942,274.9h174.07c23.208,0,42.938-18.542,42.938-41.715a42.806,42.806,0,0,0-42.938-42.872" fill="#fff"/><g clip-path="url(#a)"><rect x="149" y="60" width="74" height="155" rx="6.003" ry="6.003" fill="#002f33"/><rect x="138" y="60" width="74" height="155" rx="6.003" ry="6.003" fill="#007365"/><rect x="146" y="68" width="56" height="19" rx="2.553" ry="2.553" fill="#00b294"/><circle cx="195.5" cy="75.5" r="2.5" fill="#b3d6f2"/><rect x="150" y="72" width="4" height="11" fill="#ff8c00"/><rect x="158" y="72" width="4" height="11" fill="#ff8c00"/><rect x="167" y="72" width="4" height="11" fill="#ff8c00"/><rect x="175" y="72" width="4" height="11" fill="#ff8c00"/><rect x="146" y="96" width="56" height="19" rx="2.553" ry="2.553" fill="#00b294"/><circle cx="195.5" cy="102.5" r="2.5" fill="#b3d6f2"/><rect x="150" y="100" width="4" height="11" fill="#ff8c00"/><rect x="158" y="100" width="4" height="11" fill="#ff8c00"/><rect x="167" y="100" width="4" height="11" fill="#ff8c00"/><rect x="175" y="100" width="4" height="11" fill="#ff8c00"/><rect x="146" y="123" width="56" height="19" rx="2.553" ry="2.553" fill="#00b294"/><circle cx="195.5" cy="130.5" r="2.5" fill="#b3d6f2"/><rect x="150" y="127" width="4" height="11" fill="#ff8c00"/><rect x="158" y="127" width="4" height="11" fill="#ff8c00"/><rect x="167" y="127" width="4" height="11" fill="#ff8c00"/><rect x="175" y="127" width="4" height="11" fill="#ff8c00"/><rect x="146" y="151" width="56" height="19" rx="2.553" ry="2.553" fill="#00b294"/><circle cx="195.5" cy="157.5" r="2.5" fill="#b3d6f2"/><rect x="150" y="155" width="4" height="11" fill="#ff8c00"/><rect x="158" y="155" width="4" height="11" fill="#ff8c00"/><rect x="167" y="155" width="4" height="11" fill="#ff8c00"/><rect x="175" y="155" width="4" height="11" fill="#ff8c00"/></g><g clip-path="url(#b)"><rect x="64" y="130" width="51" height="138" rx="4.158" ry="4.158" transform="translate(179 398) rotate(-180)" fill="#9c2801"/><rect x="72" y="130" width="51" height="138" rx="4.158" ry="4.158" transform="translate(195 398) rotate(-180)" fill="#ff8c00"/><rect x="78" y="136" width="39" height="13" rx="1.762" ry="1.762" transform="translate(195 285) rotate(-180)" fill="#fff880"/><circle cx="83" cy="141" r="2" fill="#d83b01"/><rect x="112" y="139" width="3" height="8" transform="translate(227 286) rotate(-180)" fill="#ff8c00"/><rect x="106" y="139" width="3" height="8" transform="translate(215 286) rotate(-180)" fill="#ff8c00"/><rect x="100" y="139" width="3" height="8" transform="translate(203 286) rotate(-180)" fill="#ff8c00"/><rect x="95" y="139" width="2.999" height="8" transform="translate(192.999 286) rotate(-180)" fill="#ff8c00"/><rect x="78" y="155" width="39" height="13" rx="1.762" ry="1.762" transform="translate(195 323) rotate(-180)" fill="#fff880"/><circle cx="83" cy="160" r="2" fill="#d83b01"/><rect x="112" y="158" width="3" height="8" transform="translate(227 324) rotate(-180)" fill="#ff8c00"/><rect x="106" y="158" width="3" height="8" transform="translate(215 324) rotate(-180)" fill="#ff8c00"/><rect x="100" y="158" width="3" height="8" transform="translate(203 324) rotate(-180)" fill="#ff8c00"/><rect x="95" y="158" width="2.999" height="8" transform="translate(192.999 324) rotate(-180)" fill="#ff8c00"/><rect x="78" y="174" width="39" height="13" rx="1.762" ry="1.762" transform="translate(195 361) rotate(-180)" fill="#fff880"/><circle cx="83" cy="179" r="2" fill="#d83b01"/><rect x="112" y="177" width="3" height="8" transform="translate(227 362) rotate(-180)" fill="#ff8c00"/><rect x="106" y="177" width="3" height="8" transform="translate(215 362) rotate(-180)" fill="#ff8c00"/><rect x="100" y="177" width="3" height="8" transform="translate(203 362) rotate(-180)" fill="#ff8c00"/><rect x="95" y="177" width="2.999" height="8" transform="translate(192.999 362) rotate(-180)" fill="#ff8c00"/><rect x="78" y="193" width="39" height="13" rx="1.762" ry="1.762" transform="translate(195 399) rotate(-180)" fill="#fff880"/><circle cx="83" cy="198" r="2" fill="#d83b01"/><rect x="112" y="196" width="3" height="8" transform="translate(227 400) rotate(-180)" fill="#ff8c00"/><rect x="106" y="196" width="3" height="8" transform="translate(215 400) rotate(-180)" fill="#ff8c00"/><rect x="100" y="196" width="3" height="8" transform="translate(203 400) rotate(-180)" fill="#ff8c00"/><rect x="95" y="196" width="2.999" height="8" transform="translate(192.999 400) rotate(-180)" fill="#ff8c00"/></g></svg>