<svg xmlns="http://www.w3.org/2000/svg" viewBox="0 0 301 301"><title>tile-self-hosted-server</title><rect width="301" height="301" fill="#235a89"/><polygon points="95.828 22 76 41.799 76 250 166 250 166 22 95.828 22" fill="#2488d8"/><polygon points="301 272 301 103 251 103 251 87 234 87 234 70 144 70 144 272 301 272" fill="#2488d8"/><rect x="226" y="105" width="11" height="140" fill="#69afe5"/><rect x="251" y="119" width="11" height="126" fill="#69afe5"/><polygon points="60 110 60 137 0 137 0 272 130 272 130 110 60 110" fill="#2488d8"/><rect x="25" y="151" width="10" height="10" fill="#69afe5"/><rect x="49" y="151" width="10" height="10" fill="#69afe5"/><rect x="74" y="151" width="10" height="10" fill="#69afe5"/><rect x="25" y="175" width="10" height="10" fill="#69afe5"/><rect x="49" y="175" width="10" height="10" fill="#69afe5"/><rect x="74" y="175" width="10" height="10" fill="#69afe5"/><rect x="25" y="200" width="10" height="10" fill="#69afe5"/><rect x="49" y="200" width="10" height="10" fill="#69afe5"/><rect x="74" y="200" width="10" height="10" fill="#69afe5"/><rect x="25" y="225" width="10" height="10" fill="#69afe5"/><rect x="49" y="225" width="10" height="10" fill="#69afe5"/><rect x="74" y="225" width="10" height="10" fill="#69afe5"/><rect x="114" y="54" width="100" height="218" rx="8.084" ry="8.084" fill="#002f33"/><rect x="99" y="54" width="100" height="218" rx="8.084" ry="8.084" fill="#00b294"/><rect x="110" y="65" width="76" height="26" rx="3.479" ry="3.479" fill="#007365"/><circle cx="176.5" cy="74.5" r="3.5" fill="#b3d6f2"/><rect x="115" y="70" width="6" height="15" fill="#ff8c00"/><rect x="127" y="70" width="6" height="15" fill="#ff8c00"/><rect x="138" y="70" width="6" height="15" fill="#ff8c00"/><rect x="149" y="70" width="6" height="15" fill="#ff8c00"/><rect x="110" y="102" width="76" height="26" rx="3.479" ry="3.479" fill="#007365"/><circle cx="176.5" cy="111.5" r="3.5" fill="#b3d6f2"/><rect x="115" y="107" width="6" height="15" fill="#ff8c00"/><rect x="127" y="107" width="6" height="15" fill="#ff8c00"/><rect x="138" y="107" width="6" height="15" fill="#ff8c00"/><rect x="149" y="107" width="6" height="15" fill="#ff8c00"/><rect x="110" y="139" width="76" height="26" rx="3.479" ry="3.479" fill="#007365"/><circle cx="176.5" cy="147.5" r="3.5" fill="#b3d6f2"/><rect x="115" y="144" width="6" height="15" fill="#ff8c00"/><rect x="127" y="144" width="6" height="15" fill="#ff8c00"/><rect x="138" y="144" width="6" height="15" fill="#ff8c00"/><rect x="149" y="144" width="6" height="15" fill="#ff8c00"/><rect x="110" y="176" width="76" height="26" rx="3.479" ry="3.479" fill="#007365"/><circle cx="176.5" cy="184.5" r="3.5" fill="#b3d6f2"/><rect x="115" y="181" width="6" height="15" fill="#ff8c00"/><rect x="127" y="181" width="6" height="15" fill="#ff8c00"/><rect x="138" y="181" width="6" height="15" fill="#ff8c00"/><rect x="149" y="181" width="6" height="15" fill="#ff8c00"/></svg>