<svg xmlns="http://www.w3.org/2000/svg" viewBox="0 0 300 300"><title>tile-integrate-with-cloud-services</title><rect width="300" height="300" fill="#0078d7"/><path d="M272.26,247.828H27.175a4.5,4.5,0,0,1-4.4-4.379,4.4,4.4,0,0,1,4.4-4.379H272.26a4.313,4.313,0,0,1,4.4,4.379,4.4,4.4,0,0,1-4.4,4.379Z" fill="#005a93"/><polygon points="170.695 185.683 148.88 165.467 156.676 156.852 178.707 177.082 170.695 185.683" fill="#00188f"/><path d="M175.511,189.7v.2a5.99,5.99,0,0,0,8.4-.406,5.928,5.928,0,0,0-.6-8.215v-.2h0l-4.6-4.2-7.816,8.8,4.416,4.016Z" fill="#69afe5"/><polygon points="192.727 185.683 214.542 165.467 206.543 156.852 184.708 177.082 192.727 185.683" fill="#00188f"/><path d="M187.911,189.7v.2a5.816,5.816,0,1,1-7.8-8.622.2.2,0,0,1,.2-.2h0l4.4-4.2,7.816,8.8Z" fill="#ff8c00"/><polygon points="132 240.712 121.596 230 108 230 108 244 132 244 132 240.712" fill="#00188f"/><rect x="108" y="142" width="13" height="88" fill="#69afe5"/><rect x="79.224" y="142.439" width="13.415" height="88.107" fill="#69afe5"/><polygon points="103 240.712 92.511 230 79 230 79 244 103 244 103 240.712" fill="#00188f"/><polygon points="207 240.712 217.285 230 231 230 231 244 207 244 207 240.712" fill="#00188f"/><rect x="218" y="142" width="13" height="88" fill="#a6a6a6"/><rect x="247" y="142" width="13" height="88" fill="#a6a6a6"/><polygon points="236 240.712 246.404 230 260 230 260 244 236 244 236 240.712" fill="#00188f"/><rect x="211" y="56" width="63" height="132" rx="5.112" ry="5.112" fill="#00188f"/><rect x="202" y="56" width="63" height="132" rx="5.112" ry="5.112" fill="#ff8c00"/><rect x="209" y="64" width="48" height="16" rx="2.169" ry="2.169" fill="#fff880"/><circle cx="250.5" cy="69.5" r="2.5" fill="#d83b01"/><rect x="212" y="67" width="4" height="9" fill="#c8c8c8"/><rect x="219" y="67" width="4" height="9" fill="#c8c8c8"/><rect x="226" y="67" width="4" height="9" fill="#c8c8c8"/><rect x="233" y="67" width="4" height="9" fill="#c8c8c8"/><rect x="209" y="87" width="48" height="16" rx="2.169" ry="2.169" fill="#fff880"/><circle cx="250.5" cy="92.5" r="2.5" fill="#d83b01"/><rect x="212" y="90" width="4" height="9" fill="#c8c8c8"/><rect x="219" y="90" width="4" height="9" fill="#c8c8c8"/><rect x="226" y="90" width="4" height="9" fill="#c8c8c8"/><rect x="233" y="90" width="4" height="9" fill="#c8c8c8"/><rect x="209" y="110" width="48" height="16" rx="2.169" ry="2.169" fill="#fff880"/><circle cx="250.5" cy="115.5" r="2.5" fill="#d83b01"/><rect x="212" y="114" width="4" height="9" fill="#c8c8c8"/><rect x="219" y="114" width="4" height="9" fill="#c8c8c8"/><rect x="226" y="114" width="4" height="9" fill="#c8c8c8"/><rect x="233" y="114" width="4" height="9" fill="#c8c8c8"/><rect x="209" y="134" width="48" height="16" rx="2.169" ry="2.169" fill="#fff880"/><circle cx="250.5" cy="139.5" r="2.5" fill="#d83b01"/><rect x="212" y="137" width="4" height="9" fill="#c8c8c8"/><rect x="219" y="137" width="4" height="9" fill="#c8c8c8"/><rect x="226" y="137" width="4" height="9" fill="#c8c8c8"/><rect x="233" y="137" width="4" height="9" fill="#c8c8c8"/><path d="M169.6,153.262a26.109,26.109,0,0,0-16.853-24.411,23.2,23.2,0,0,0-30.289-27.215,36.259,36.259,0,0,0-70.183,17.094,30.45,30.45,0,0,0,.98,60.885l91.267-.275A26.1,26.1,0,0,0,169.6,153.262Z" fill="#fff"/><path d="M53.938,101.185a36.377,36.377,0,0,0-1.661,17.546,30.45,30.45,0,0,0,.98,60.885l78.874-.238Z" fill="#d2d2d2"/></svg>