<svg xmlns="http://www.w3.org/2000/svg" xmlns:xlink="http://www.w3.org/1999/xlink" viewBox="0 0 1600 934"><defs><clipPath id="a"><path d="M426.456,470.727a124.279,124.279,0,0,0,160.935,68.746,124.251,124.251,0,0,0,135.123,23.878s10.1-104.474-101.5-136.874S426.456,470.727,426.456,470.727Z" fill="none"/></clipPath><clipPath id="b"><path d="M989.649,526.572a170.131,170.131,0,0,0,184.1-124.236s-52.787-47.859-130.187-6.459C970.4,435.013,989.649,526.572,989.649,526.572Z" fill="none"/></clipPath></defs><title>vsmac-installer-screen</title><path d="M544.849,645.929c-1.031-.7-.656-3.3.628-3.241,3.812.187,8.125-.938,9.437-.875,2.736.13,8.187,3.1,10.744,4.142a1.434,1.434,0,0,1,.876.968l.576,2.36a1.41,1.41,0,0,1-1.462,1.652l-12.377.342a1.719,1.719,0,0,1-1.012-.291Z" fill="#b9a6f3"/><path d="M552.164,767.5l-.5-9.75s11.75-.25,13.25,1,1.75,17.5,1.75,17.5Z" fill="#b2b2b2"/><path d="M992.986,188.743a170.522,170.522,0,0,0-35.594,7.411,122.373,122.373,0,0,0-123.248-23.519,99.3,99.3,0,0,0-180.4-4.217A139.421,139.421,0,0,0,509.12,304.275a124.137,124.137,0,1,0,78.271,235.2,124.251,124.251,0,0,0,135.123,23.878,137.5,137.5,0,0,0,251.734-39.327,169.925,169.925,0,1,0,18.738-335.281Z" fill="#d3c8ff"/><path d="M631.258,228.693a5.85,5.85,0,1,0,.064-11.7l-43.758-.238c-6.116-.033-5.858-6.536.035-6.5l7.508.041a5.85,5.85,0,1,0,.064-11.7l-33.236-.181a139.977,139.977,0,0,0-12.911,11.63l7.679.042c6.335.035,5.426,6.534-.691,6.5L554,216.572a5.85,5.85,0,0,0-.064,11.7Z" fill="#dad0ff"/><path d="M932.32,430.034h131.32a5.85,5.85,0,0,0,0-11.7H998.281c-6.117,0-3.714-6.5,0-6.5h11.108a5.85,5.85,0,1,0,0-11.7H950.037a5.85,5.85,0,0,0,0,11.7h5.647c6.335,0,5.461,6.5-.655,6.5H932.32a5.85,5.85,0,0,0,0,11.7Z" fill="#dad0ff"/><path d="M825.238,429.69l-77.318-.421a5.85,5.85,0,1,0-.063,11.7l43.758.238c6.116.033,5.857,6.536-.036,6.5l-7.507-.041a5.85,5.85,0,0,0-.064,11.7l59.35.323a5.85,5.85,0,1,0,.064-11.7l-20.946-.114c-6.335-.034-5.426-6.533.69-6.5l2.009.011a5.85,5.85,0,0,0,.063-11.7Z" fill="#dad0ff"/><polygon points="649.679 282.323 648.053 281.759 658.97 261.821 660.597 262.385 649.679 282.323" fill="#c7b8ff"/><polygon points="624.225 272.196 622.599 271.633 633.516 251.694 635.143 252.258 624.225 272.196" fill="#c7b8ff"/><polygon points="591.417 263.355 589.791 262.791 601.932 240.748 603.558 241.312 591.417 263.355" fill="#c7b8ff"/><path d="M586.444,279.617l-7.979-2.765a1.038,1.038,0,0,1-.569-1.481l9.668-17.554a1.037,1.037,0,0,1,1.249-.48l7.978,2.765a1.038,1.038,0,0,1,.569,1.481l-9.668,17.554A1.039,1.039,0,0,1,586.444,279.617Z" fill="#fff"/><path d="M604.179,247.559l-8.138-2.82a.955.955,0,0,1-.524-1.362l9.75-17.7a.954.954,0,0,1,1.148-.441l8.138,2.82a.954.954,0,0,1,.523,1.362l-9.749,17.7A.954.954,0,0,1,604.179,247.559Z" fill="#fff"/><path d="M614.608,253.653a6.892,6.892,0,0,0-6.049.823,4.13,4.13,0,0,0-3.029-3.969L590.794,245.4a.97.97,0,0,0-1.139.389l-4.185,7.6a.643.643,0,0,0,.414.927l14.737,5.107a6.015,6.015,0,0,0,6.739-2,5.442,5.442,0,0,0,3.439,3.145,7.641,7.641,0,0,0,6.782-.959c1.078-2.379-.193-4.992-2.973-5.956" fill="#ece7ff"/><path d="M611.345,259.578a1.436,1.436,0,0,1-.926-2.069,2.165,2.165,0,0,1,2.542-.867,1.436,1.436,0,0,1,.927,2.069,2.165,2.165,0,0,1-2.543.867" fill="#ece7ff"/><path d="M612.753,257.021a1.065,1.065,0,0,1,.686,1.535,1.6,1.6,0,0,1-1.885.643,1.065,1.065,0,0,1-.687-1.535,1.607,1.607,0,0,1,1.886-.643m.417-.758a2.718,2.718,0,0,0-3.2,1.091,1.8,1.8,0,0,0,1.165,2.6,2.719,2.719,0,0,0,3.2-1.091,1.8,1.8,0,0,0-1.165-2.6" fill="#ece7ff"/><polygon points="595.056 246.877 593.824 246.45 588.915 255.364 590.147 255.791 595.056 246.877" fill="#ece7ff"/><polygon points="603.792 249.905 602.56 249.477 597.651 258.392 598.883 258.819 603.792 249.905" fill="#ece7ff"/><polygon points="598.883 258.819 597.651 258.392 598.979 255.98 600.211 256.407 598.883 258.819" fill="#ece7ff"/><polygon points="590.147 255.791 588.915 255.364 590.244 252.952 591.475 253.379 590.147 255.791" fill="#ece7ff"/><path d="M658.434,271.718l-40.476-13.8a4.146,4.146,0,0,1-.377,1.685l-.02.013a7.644,7.644,0,0,1-6.762.948,5.117,5.117,0,0,1-3.719-4.593c-.066.1-.134.2-.193.309a4.346,4.346,0,0,0-.5,1.448,8.207,8.207,0,0,1-3.58-.379l-16.4-5.682-.945,1.715a.643.643,0,0,0,.415.927l14.737,5.107a6.2,6.2,0,0,0,5.729-.943,4.621,4.621,0,0,0,3.349,4.089,6.878,6.878,0,0,0,6.225-.95L656.45,275.43a1.39,1.39,0,0,0,1.665-.645l.885-1.606A1.023,1.023,0,0,0,658.434,271.718Z" fill="#e0d8ff"/><path d="M635.591,258.446l-7.723-2.677a1.17,1.17,0,0,1-.642-1.671l9.538-17.317a1.17,1.17,0,0,1,1.408-.541l7.723,2.676a1.171,1.171,0,0,1,.642,1.671L637,257.9A1.171,1.171,0,0,1,635.591,258.446Z" fill="#fff"/><polygon points="621.146 266.836 619.914 266.409 621.884 262.832 623.116 263.259 621.146 266.836" fill="#ece7ff"/><path d="M617.914,290.867l-7.715-2.673a1.175,1.175,0,0,1-.645-1.677l9.534-17.31a1.174,1.174,0,0,1,1.414-.543l7.715,2.674a1.175,1.175,0,0,1,.644,1.677l-9.533,17.309A1.175,1.175,0,0,1,617.914,290.867Z" fill="#fff"/><path d="M618.4,265.877l14.3,4.957a1,1,0,0,0,.657,0l2.571-.892a1,1,0,0,0,.545-.455l2.667-4.747a1,1,0,0,0,.05-.88l-.805-1.911a1,1,0,0,0-.595-.558l-14.534-5.037a1,1,0,0,0-1.206.463l-4.2,7.629A1,1,0,0,0,618.4,265.877Z" fill="#ece7ff"/><ellipse cx="646.462" cy="269.944" rx="5.987" ry="4.901" transform="translate(-28.328 81.687) rotate(-7.076)" fill="#ece7ff"/><path d="M647.731,272.745c-3.281.407-6.212-1.44-6.545-4.126a3.989,3.989,0,0,1-.017-.732,4.269,4.269,0,0,0-.648,2.794c.333,2.686,3.263,4.533,6.545,4.126,2.98-.37,5.218-2.474,5.355-4.869A6.407,6.407,0,0,1,647.731,272.745Z" fill="#e0d8ff"/><path d="M646.38,293.977l-6.56-2.214a1.245,1.245,0,0,1-.692-1.78l6.972-12.659a1.245,1.245,0,0,1,1.489-.579l6.559,2.215a1.244,1.244,0,0,1,.692,1.78L647.869,293.4A1.245,1.245,0,0,1,646.38,293.977Z" fill="#fff"/><path d="M660.809,267.852l-6.3-2.127a1.378,1.378,0,0,1-.766-1.971l6.841-12.421a1.378,1.378,0,0,1,1.648-.642l6.3,2.129a1.378,1.378,0,0,1,.767,1.971l-6.841,12.42A1.378,1.378,0,0,1,660.809,267.852Z" fill="#fff"/><path d="M637.08,268.4l2.057-3.662a1,1,0,0,0,.05-.88l-.282-.671-2.332,4.118-3.027,1.047-14.927-5.313-.774,1.405a1,1,0,0,0,.55,1.431l14.3,4.957a1,1,0,0,0,.656,0l2.448-.849.124-.043a1,1,0,0,0,.545-.455Z" fill="#e0d8ff"/><path d="M1035.221,307.933h77.319a5.85,5.85,0,1,0,0-11.7h-43.758c-6.117,0-5.893-6.5,0-6.5h7.507a5.85,5.85,0,0,0,0-11.7h-59.351a5.85,5.85,0,0,0,0,11.7h20.947c6.335,0,5.461,6.5-.656,6.5h-2.008a5.85,5.85,0,1,0,0,11.7Z" fill="#c7b8ff"/><path d="M727.24,322.43H595.92a5.85,5.85,0,1,0,0,11.7h65.359c6.116,0,3.714,6.5,0,6.5H650.171a5.85,5.85,0,0,0,0,11.7h59.352a5.85,5.85,0,1,0,0-11.7h-5.647c-6.335,0-5.461-6.5.655-6.5H727.24a5.85,5.85,0,1,0,0-11.7Z" fill="#c7b8ff"/><g clip-path="url(#a)"><circle cx="557.565" cy="574.077" r="145.098" fill="#ece7ff"/><path d="M702.664,574.077a144.458,144.458,0,0,0-17.545-69.221c-27.2-40.579-74.6-66.679-120.354-66.679-80.135,0-146.7,67.014-146.7,147.15,0,25.066,15.159,59,26.347,79.57a145.094,145.094,0,0,0,258.252-90.82Z" fill="#e0d8ff"/><ellipse cx="608.757" cy="468.971" rx="11.68" ry="14.303" transform="translate(-25.085 903.439) rotate(-72.038)" fill="none"/><path d="M597.44,471.158c0-6.275,5.984-11.361,13.365-11.361a14.819,14.819,0,0,1,8.374,2.514,13.727,13.727,0,0,0-11.974-6.34c-7.381,0-13.365,5.087-13.365,11.362a10.8,10.8,0,0,0,4.99,8.848A9.947,9.947,0,0,1,597.44,471.158Z" fill="none"/><ellipse cx="539.278" cy="500.325" rx="27.557" ry="31.1" transform="translate(-102.965 859.031) rotate(-72.038)" fill="#d3c8ff"/><path d="M509.918,501.631c0-14.343,13.677-25.97,30.547-25.97a33.247,33.247,0,0,1,21.957,7.924c-5.458-7.074-14.862-11.75-25.557-11.75-16.87,0-30.547,11.627-30.547,25.97a24.025,24.025,0,0,0,8.591,18.046A23.162,23.162,0,0,1,509.918,501.631Z" fill="#c7b8ff"/><ellipse cx="573.587" cy="470.024" rx="8.153" ry="9.094" transform="translate(-50.412 870.711) rotate(-72.038)" fill="#d3c8ff"/><ellipse cx="614.972" cy="509.053" rx="8.153" ry="9.094" transform="translate(-58.916 937.073) rotate(-72.038)" fill="#d3c8ff"/><path d="M565.768,471.531c0-4.305,4.105-7.794,9.168-7.794a10.168,10.168,0,0,1,5.745,1.724,9.418,9.418,0,0,0-8.215-4.349c-5.063,0-9.167,3.49-9.167,7.794a7.408,7.408,0,0,0,3.423,6.07A6.817,6.817,0,0,1,565.768,471.531Z" fill="#c7b8ff"/><ellipse cx="566.562" cy="538.186" rx="11.68" ry="14.303" transform="translate(-120.11 911.17) rotate(-72.038)" fill="#d3c8ff"/><path d="M555.245,540.373c0-6.275,5.983-11.362,13.364-11.362a14.816,14.816,0,0,1,8.374,2.514,13.728,13.728,0,0,0-11.974-6.339c-7.381,0-13.364,5.086-13.364,11.361a10.8,10.8,0,0,0,4.99,8.848A9.933,9.933,0,0,1,555.245,540.373Z" fill="#c7b8ff"/><ellipse cx="651.502" cy="554.635" rx="31.994" ry="35.088" transform="translate(-77.012 1003.347) rotate(-72.038)" fill="#d3c8ff"/><path d="M616.69,554.346c0-16.434,15.67-29.757,35-29.757a38.011,38.011,0,0,1,25.477,9.363c-6.283-7.954-16.96-13.189-29.077-13.189-19.331,0-35,13.323-35,29.757,0,7.9,3.623,15.067,9.525,20.394A26.594,26.594,0,0,1,616.69,554.346Z" fill="#c7b8ff"/><path d="M606.853,510.005c0-4.3,4.1-7.794,9.167-7.794a10.164,10.164,0,0,1,5.745,1.725,9.416,9.416,0,0,0-8.214-4.349c-5.063,0-9.168,3.489-9.168,7.794a7.41,7.41,0,0,0,3.423,6.069A6.823,6.823,0,0,1,606.853,510.005Z" fill="#c7b8ff"/></g><path d="M740.326,190.98c-1.53,0-4.847,1.242-8.041,2.612a32.838,32.838,0,0,1-12.951,2.641H693.9a.957.957,0,0,0-.96.768.922.922,0,0,0,.91,1.077h25.485a32.842,32.842,0,0,1,12.952,2.641c3.193,1.37,6.51,2.613,8.04,2.613a6.176,6.176,0,0,0,0-12.352" fill="#fff"/><path d="M743.734,197.3a3.088,3.088,0,0,1-3.088,3.088c-1.7,0-7.854-3.088-7.854-3.088s6.149-3.087,7.854-3.087a3.088,3.088,0,0,1,3.088,3.087" fill="#ffcb40"/><path d="M672.119,194.5a1.049,1.049,0,0,1,.5-1.973l43.653.153a1.049,1.049,0,1,1-.007,2.1l-43.653-.153a1.045,1.045,0,0,1-.5-.125" fill="#fff"/><path d="M659.448,202.476a1.049,1.049,0,0,1,.493-1.975l43.653-.053a1.049,1.049,0,1,1,0,2.1l-43.653.053a1.05,1.05,0,0,1-.5-.123" fill="#e0d8ff"/><path d="M695.748,210.276a1.049,1.049,0,0,1,.493-1.975l16.653-.053a1.049,1.049,0,1,1,0,2.1l-16.653.053a1.05,1.05,0,0,1-.5-.123" fill="#fff"/><path d="M1064.6,381.54c1.19-.962,2.99-4.013,4.613-7.085a32.84,32.84,0,0,1,8.415-10.193l19.786-15.984a.956.956,0,0,0,.264-1.2.922.922,0,0,0-1.384-.266l-19.826,16.015a32.83,32.83,0,0,1-11.734,6.084c-3.345.941-6.706,2.059-7.9,3.02a6.176,6.176,0,0,0,7.762,9.609" fill="#fff"/><path d="M1057.977,378.767a3.088,3.088,0,0,1,.462-4.343c1.326-1.071,8.05-2.533,8.05-2.533s-2.843,6.266-4.17,7.337a3.088,3.088,0,0,1-4.342-.461" fill="#ffcb40"/><path d="M1115.446,335.944a1.049,1.049,0,0,1,.849,1.85l-34.053,27.313a1.049,1.049,0,1,1-1.313-1.637l34.054-27.313a1.046,1.046,0,0,1,.463-.213" fill="#e0d8ff"/><path d="M1120.288,321.774a1.049,1.049,0,0,1,.858,1.846l-33.925,27.473a1.049,1.049,0,0,1-1.32-1.631l33.925-27.472a1.048,1.048,0,0,1,.462-.216" fill="#e0d8ff"/><path d="M1087.149,338.517a1.049,1.049,0,0,1,.858,1.846l-12.921,10.506a1.049,1.049,0,0,1-1.321-1.631l12.922-10.506a1.052,1.052,0,0,1,.462-.215" fill="#fff"/><path d="M1163.834,795H416.641a7.23,7.23,0,0,1-7.277-6.151A7.076,7.076,0,0,1,416.512,781h747.194a7.231,7.231,0,0,1,7.277,6.151A7.077,7.077,0,0,1,1163.834,795Z" fill="#e6e6e6"/><path d="M799.327,210.262c11.968.287,28.622,2.535,46.751,6.628,17.548,3.962,33.105,8.891,44,13.631l.778-3.447a301.406,301.406,0,0,0-44.08-13.26,297.578,297.578,0,0,0-46.8-7.045C799.785,207.85,799.561,209.067,799.327,210.262Z" fill="#fff"/><circle cx="842.651" cy="229.81" r="41.552" fill="#ece7ff"/><path d="M860.81,201.028a41.546,41.546,0,0,0-46.1,59.531,41.546,41.546,0,0,0,64.89-49.748A41.353,41.353,0,0,0,860.81,201.028Z" fill="#e0d8ff"/><path d="M889.068,226.371l-.766,3.394c11.684,4.884,18.6,9.634,17.839,13-1.461,6.472-30.721,5.379-65.354-2.441s-61.524-19.4-60.063-25.875c.712-3.152,8.025-4.509,19.34-4.168l.782-3.46c-18.132-1.132-30.4.739-31.519,5.7-1.921,8.51,29.637,22.886,70.487,32.109s75.524,9.8,77.446,1.291C918.428,240.749,907.218,233.406,889.068,226.371Z" fill="#fff"/><g clip-path="url(#b)"><path d="M1207.911,472.9a107.1,107.1,0,1,0-203.7,65.128Z" fill="#ece7ff"/><path d="M1207.871,472.916a107.1,107.1,0,0,0-33.338-54,112.752,112.752,0,0,0-41.4-7.86c-63.882,0-115.67,53.14-115.67,118.691,0,1.348.047,2.685.091,4.022Z" fill="#e0d8ff"/><path d="M1082.9,488.88h-69.179a6.324,6.324,0,1,1,0-12.647H1082.9a6.324,6.324,0,1,1,0,12.647" fill="#ece7ff"/><path d="M1113.861,458.376h-21.577a6.7,6.7,0,0,1,0-13.392h21.577a6.7,6.7,0,0,1,0,13.392" fill="#ece7ff"/><path d="M1200.831,475.166a23.635,23.635,0,0,0-13.369-4.142h-19.544a23.866,23.866,0,0,0-23.727,22.252Z" fill="#ed8422"/><path d="M1158.129,451.68H1145.48a6.324,6.324,0,0,1,0-12.647h12.649a6.324,6.324,0,0,1,0,12.647" fill="#ece7ff"/><path d="M1024,393.394a13.459,13.459,0,1,1-13.458-13.457A13.458,13.458,0,0,1,1024,393.394" fill="#df6c47"/></g><path d="M625.965,420.177l.357-.346" fill="none" stroke="#fff" stroke-linecap="round" stroke-linejoin="round" stroke-width="2"/><path d="M632.934,413.763c36.911-32.335,114.37-78.032,187.431-97.986,166.932-45.592,284.45-25.513,301.34,36.327,12.461,45.626-33.248,101.5-133.648,147.708" fill="none" stroke="#fff" stroke-linecap="round" stroke-linejoin="round" stroke-width="2" stroke-dasharray="0.997 8.977"/><path d="M983.967,501.675l-.456.206" fill="none" stroke="#fff" stroke-linecap="round" stroke-linejoin="round" stroke-width="2"/><polygon points="1020.942 256.036 1011.686 256.036 987.506 219.765 988.504 219.099 1012.328 254.836 1020.275 254.836 1041.501 220.715 1042.52 221.349 1020.942 256.036" fill="#fff"/><rect x="1007.849" y="249.793" width="16.139" height="16.575" rx="3.565" fill="#fff"/><path d="M1049.128,202.73A33.521,33.521,0,1,0,990.214,224.6l11.192,16.037h28.8l12.593-18.317A33.358,33.358,0,0,0,1049.128,202.73Z" fill="#b9a6f3"/><path d="M1024.028,240.634c2.583-4.071,15.342-22.864,15.342-39.4,0-12.249-4.7-23.161-11.616-29.741a33.527,33.527,0,0,0-24.021-.107c-6.978,6.568-11.728,17.533-11.728,29.848,0,16.54,12.76,35.333,15.343,39.4Z" fill="#d3c8ff"/><path d="M1013.161,169.309a70.441,70.441,0,0,0-7.954,32.521c0,16.193,5.619,31.935,8.433,38.8h3.335c2.815-6.869,8.434-22.611,8.434-38.8a69.359,69.359,0,0,0-8.144-32.578c-.549-.027-1.1-.042-1.657-.042C1014.784,169.21,1013.97,169.25,1013.161,169.309Z" fill="#e0d8ff"/><polygon points="994.147 230.233 1001.406 240.634 1030.209 240.634 1037.36 230.233 994.147 230.233" fill="#b9a6f3"/><path d="M769.983,421.541h-.016q-.909-.011-1.815-.031a1.349,1.349,0,0,1-1.32-1.379,1.327,1.327,0,0,1,1.379-1.32q.894.02,1.787.03a1.35,1.35,0,0,1-.015,2.7Zm4.5-.009a1.35,1.35,0,0,1-.019-2.7q.894-.012,1.787-.036a1.35,1.35,0,0,1,.069,2.7q-.909.023-1.816.036Zm-10.806-.179h-.065q-.906-.043-1.813-.1a1.35,1.35,0,1,1,.158-2.695q.891.053,1.784.095a1.35,1.35,0,0,1-.064,2.7Zm17.109-.033a1.35,1.35,0,0,1-.071-2.7q.892-.048,1.785-.1a1.35,1.35,0,1,1,.17,2.7q-.906.057-1.812.1Zm-23.4-.383c-.037,0-.075,0-.113,0q-.906-.077-1.81-.161a1.35,1.35,0,1,1,.254-2.688q.89.084,1.781.158a1.35,1.35,0,0,1-.112,2.695Zm29.687-.066a1.35,1.35,0,0,1-.12-2.695q.891-.081,1.78-.171a1.35,1.35,0,0,1,.271,2.687q-.9.091-1.807.173C787.16,420.869,787.119,420.871,787.078,420.871Zm-35.962-.571a1.466,1.466,0,0,1-.162-.009q-.9-.108-1.8-.224a1.35,1.35,0,1,1,.345-2.678q.89.114,1.778.221a1.35,1.35,0,0,1-.158,2.69Zm42.231-.117a1.35,1.35,0,0,1-.172-2.689q.887-.114,1.772-.237a1.35,1.35,0,1,1,.373,2.674q-.9.125-1.8.241A1.305,1.305,0,0,1,793.347,420.183Zm-48.489-.737a1.331,1.331,0,0,1-.207-.016q-.9-.138-1.8-.286a1.35,1.35,0,0,1,.437-2.664q.885.145,1.771.281a1.35,1.35,0,0,1-.2,2.685Zm54.725-.188a1.35,1.35,0,0,1-.222-2.682q.88-.147,1.76-.305a1.35,1.35,0,0,1,.478,2.658q-.9.161-1.79.31A1.335,1.335,0,0,1,799.583,419.258Zm-60.959-.878a1.36,1.36,0,0,1-.252-.024q-.894-.168-1.787-.345a1.35,1.35,0,0,1,.523-2.649q.882.174,1.764.341a1.35,1.35,0,0,1-.248,2.677Zm67.157-.283a1.35,1.35,0,0,1-.273-2.672q.874-.182,1.747-.372a1.35,1.35,0,0,1,.577,2.637q-.888.195-1.776.378A1.3,1.3,0,0,1,805.781,418.1Zm-73.341-.983a1.344,1.344,0,0,1-.294-.032q-.885-.2-1.768-.4a1.35,1.35,0,1,1,.606-2.631q.875.2,1.747.4a1.35,1.35,0,0,1-.291,2.668Zm79.552-.429a1.37,1.37,0,0,1-1.336-1.013,1.321,1.321,0,0,1,.942-1.629l.091-.023c.543-.134,1.1-.275,1.651-.418a1.35,1.35,0,0,1,.677,2.614q-.843.219-1.694.429A1.4,1.4,0,0,1,811.992,416.685Zm-85.687-1.029a1.318,1.318,0,0,1-.333-.043q-.879-.222-1.755-.453a1.35,1.35,0,1,1,.687-2.611q.865.228,1.732.448a1.35,1.35,0,0,1-.331,2.659Zm91.713-.592a1.351,1.351,0,0,1-.378-2.647q.859-.25,1.712-.51a1.35,1.35,0,1,1,.786,2.583q-.867.264-1.741.519A1.342,1.342,0,0,1,818.018,415.064Zm-97.8-1.051a1.383,1.383,0,0,1-.373-.053q-.87-.249-1.74-.506a1.35,1.35,0,1,1,.764-2.589q.859.253,1.72.5a1.351,1.351,0,0,1-.371,2.649Zm103.813-.844a1.35,1.35,0,0,1-.434-2.629q.848-.287,1.688-.584a1.35,1.35,0,0,1,.9,2.547q-.857.3-1.718.594A1.338,1.338,0,0,1,824.031,413.169Zm-109.85-.978a1.34,1.34,0,0,1-.407-.064q-.864-.273-1.727-.555a1.35,1.35,0,1,1,.837-2.567q.852.278,1.7.548a1.35,1.35,0,0,1-.407,2.638Zm115.775-1.176a1.35,1.35,0,0,1-.49-2.608q.834-.324,1.659-.657a1.35,1.35,0,1,1,1.01,2.5q-.841.339-1.691.669A1.331,1.331,0,0,1,829.956,411.015ZM708.2,410.2a1.353,1.353,0,0,1-.444-.075q-.855-.3-1.709-.6a1.35,1.35,0,1,1,.906-2.543q.844.3,1.691.595a1.35,1.35,0,0,1-.444,2.625Zm127.582-1.6a1.351,1.351,0,0,1-.546-2.586q.819-.362,1.628-.73a1.35,1.35,0,1,1,1.122,2.456q-.827.376-1.661.744A1.33,1.33,0,0,1,835.78,408.6Zm-133.51-.553a1.331,1.331,0,0,1-.476-.088q-.847-.32-1.693-.646a1.35,1.35,0,0,1,.973-2.519q.836.324,1.673.639a1.351,1.351,0,0,1-.477,2.614Zm139.219-2.119a1.351,1.351,0,0,1-.6-2.56q.8-.4,1.594-.8a1.35,1.35,0,1,1,1.23,2.4q-.808.414-1.624.819A1.353,1.353,0,0,1,841.489,405.93ZM696.4,405.744a1.34,1.34,0,0,1-.508-.1q-.839-.342-1.676-.689a1.35,1.35,0,1,1,1.036-2.494q.828.343,1.657.682a1.35,1.35,0,0,1-.509,2.6Zm-5.81-2.451a1.341,1.341,0,0,1-.539-.113q-.829-.361-1.658-.729a1.35,1.35,0,1,1,1.1-2.468q.82.364,1.641.722a1.35,1.35,0,0,1-.54,2.588ZM847.072,403a1.351,1.351,0,0,1-.655-2.532q.781-.432,1.555-.874a1.35,1.35,0,1,1,1.338,2.345q-.789.45-1.585.891A1.343,1.343,0,0,1,847.072,403Zm-162.233-2.3a1.327,1.327,0,0,1-.566-.126q-.822-.379-1.641-.767a1.35,1.35,0,0,1,1.152-2.442q.812.382,1.623.76a1.35,1.35,0,0,1-.568,2.575Zm167.678-.88a1.35,1.35,0,0,1-.708-2.5q.761-.467,1.513-.943a1.35,1.35,0,1,1,1.444,2.281q-.768.486-1.544.963A1.339,1.339,0,0,1,852.517,399.825Zm-173.368-1.839a1.338,1.338,0,0,1-.6-.14q-.811-.4-1.622-.8a1.35,1.35,0,0,1,1.206-2.416q.8.4,1.608.8a1.35,1.35,0,0,1-.6,2.562ZM857.811,396.4a1.35,1.35,0,0,1-.759-2.467q.739-.5,1.469-1.011a1.35,1.35,0,1,1,1.546,2.213q-.745.52-1.5,1.032A1.34,1.34,0,0,1,857.811,396.4Zm-184.291-1.26a1.359,1.359,0,0,1-.621-.152q-.8-.417-1.6-.839a1.35,1.35,0,1,1,1.256-2.389q.795.418,1.591.831a1.351,1.351,0,0,1-.623,2.549Zm189.425-2.4a1.35,1.35,0,0,1-.809-2.431q.719-.537,1.429-1.081a1.35,1.35,0,0,1,1.643,2.142q-.723.555-1.455,1.1A1.346,1.346,0,0,1,862.945,392.743Zm-194.993-.563a1.354,1.354,0,0,1-.645-.165q-.793-.432-1.587-.871a1.35,1.35,0,0,1,1.306-2.364q.786.435,1.573.864a1.35,1.35,0,0,1-.647,2.536Zm-5.508-3.074a1.338,1.338,0,0,1-.668-.178q-.784-.448-1.569-.9a1.35,1.35,0,0,1,1.352-2.337q.777.45,1.556.894a1.35,1.35,0,0,1-.671,2.523Zm205.48-.26a4.192,4.192,0,0,1-1.695-2.439,1.322,1.322,0,0,1,1.368-1.332q.606.007,1.216.013a1.35,1.35,0,0,1,1.534.386,1.309,1.309,0,0,1,.141.2,1.351,1.351,0,0,1-.743,2.067q-.481.4-.965.8A1.352,1.352,0,0,1,867.924,388.846Zm5.954-1.056a1.35,1.35,0,0,1-.012-2.7q.894-.007,1.791-.021a1.367,1.367,0,0,1,1.369,1.331,1.35,1.35,0,0,1-1.33,1.369q-.9.014-1.806.021Zm-10.8-.112h-.041q-.906-.025-1.81-.059a1.35,1.35,0,0,1,.1-2.7q.894.031,1.792.058a1.35,1.35,0,0,1-.038,2.7Zm17.1-.009a1.35,1.35,0,0,1-.04-2.7q.894-.027,1.789-.06a1.35,1.35,0,1,1,.1,2.7q-.9.033-1.806.061Zm-23.4-.248-.071,0q-.906-.047-1.808-.1a1.35,1.35,0,0,1-1.269-1.427,1.365,1.365,0,0,1,1.427-1.269q.893.053,1.79.1a1.35,1.35,0,0,1-.069,2.7Zm29.7-.009a1.35,1.35,0,0,1-.068-2.7q.893-.046,1.788-.1a1.35,1.35,0,0,1,.154,2.7q-.9.051-1.8.1Zm6.29-.388a1.35,1.35,0,0,1-.1-2.7q.892-.065,1.785-.134a1.35,1.35,0,1,1,.21,2.692q-.9.071-1.8.135C892.829,387.022,892.8,387.024,892.763,387.024Zm-42.28,0c-.034,0-.069,0-.1,0q-.9-.069-1.8-.142a1.35,1.35,0,1,1,.22-2.691q.893.074,1.788.141a1.35,1.35,0,0,1-.1,2.7Zm48.561-.515a1.35,1.35,0,0,1-.124-2.694l1.783-.17a1.35,1.35,0,0,1,.263,2.687l-1.8.172C899.128,386.5,899.086,386.505,899.044,386.505Zm-54.843-.031a1.221,1.221,0,0,1-.135-.007q-.9-.09-1.8-.184a1.35,1.35,0,1,1,.283-2.685c.593.062,1.188.124,1.784.182a1.35,1.35,0,0,1-.131,2.694ZM657,385.927a1.337,1.337,0,0,1-.69-.191l-1.551-.93a1.35,1.35,0,1,1,1.395-2.312l1.539.924a1.35,1.35,0,0,1-.693,2.509Zm248.315-.067a1.35,1.35,0,0,1-.15-2.691q.887-.1,1.778-.206a1.35,1.35,0,1,1,.318,2.681q-.9.106-1.793.208A1.318,1.318,0,0,1,905.312,385.86Zm-67.378-.081a1.36,1.36,0,0,1-.167-.01q-.9-.109-1.8-.226a1.35,1.35,0,1,1,.347-2.678q.888.115,1.779.225a1.35,1.35,0,0,1-.163,2.689Zm73.632-.688a1.35,1.35,0,0,1-.176-2.688q.885-.119,1.773-.241a1.35,1.35,0,0,1,.372,2.674q-.9.124-1.79.243A1.357,1.357,0,0,1,911.566,385.091Zm-79.882-.154a1.34,1.34,0,0,1-.2-.015q-.9-.132-1.79-.27a1.35,1.35,0,1,1,.411-2.668q.885.137,1.772.267a1.35,1.35,0,0,1-.2,2.686Zm41.036-.2a1.35,1.35,0,0,1-.9-2.355q.666-.6,1.324-1.2a1.35,1.35,0,0,1,1.827,1.987q-.669.617-1.349,1.225A1.341,1.341,0,0,1,872.72,384.734Zm45.085-.534a1.35,1.35,0,0,1-.2-2.685q.882-.134,1.768-.274a1.35,1.35,0,0,1,.422,2.666q-.893.143-1.783.278A1.438,1.438,0,0,1,917.805,384.2Zm-92.346-.257a1.4,1.4,0,0,1-.231-.019q-.894-.154-1.785-.314a1.35,1.35,0,1,1,.478-2.657q.879.158,1.765.309a1.35,1.35,0,0,1-.227,2.681Zm98.567-.752a1.35,1.35,0,0,1-.227-2.681q.879-.151,1.762-.308a1.35,1.35,0,0,1,.473,2.659q-.889.158-1.777.31A1.4,1.4,0,0,1,924.026,383.191ZM819.258,382.8a1.31,1.31,0,0,1-.263-.026q-.889-.175-1.776-.357a1.35,1.35,0,1,1,.542-2.645c.584.119,1.17.238,1.757.353a1.35,1.35,0,0,1-.26,2.675Zm-167.648-.151a1.342,1.342,0,0,1-.711-.2q-.768-.476-1.534-.958A1.35,1.35,0,0,1,650.8,379.2q.76.478,1.522.951a1.349,1.349,0,0,1-.713,2.5Zm278.617-.581a1.351,1.351,0,0,1-.252-2.677q.876-.166,1.756-.34a1.35,1.35,0,0,1,.522,2.649q-.888.176-1.772.344A1.381,1.381,0,0,1,930.227,382.066Zm-117.14-.566a1.289,1.289,0,0,1-.295-.033q-.885-.2-1.767-.4a1.35,1.35,0,0,1,.607-2.631q.873.2,1.748.4a1.35,1.35,0,0,1-.293,2.668Zm123.318-.671a1.35,1.35,0,0,1-.276-2.672q.875-.183,1.751-.372a1.35,1.35,0,1,1,.569,2.639q-.883.191-1.766.376A1.4,1.4,0,0,1,936.405,380.829Zm-59.079-.41a1.35,1.35,0,0,1-.944-2.315q.639-.625,1.27-1.257a1.35,1.35,0,0,1,1.911,1.907q-.642.643-1.293,1.28A1.344,1.344,0,0,1,877.326,380.419Zm-70.376-.37a1.377,1.377,0,0,1-.328-.041q-.879-.22-1.755-.445a1.35,1.35,0,0,1,.672-2.615q.869.222,1.738.441a1.35,1.35,0,0,1-.327,2.66Zm-160.669-.776a1.344,1.344,0,0,1-.731-.216l-1.517-.984a1.35,1.35,0,1,1,1.475-2.262l1.507.978a1.35,1.35,0,0,1-.734,2.484Zm154.572-.831a1.319,1.319,0,0,1-.361-.049q-.874-.241-1.745-.49a1.35,1.35,0,0,1,.741-2.6q.86.246,1.724.485a1.35,1.35,0,0,1-.359,2.651Zm-6.055-1.761a1.35,1.35,0,0,1-.394-.059q-.867-.266-1.731-.534a1.35,1.35,0,1,1,.8-2.577q.855.267,1.713.528a1.35,1.35,0,0,1-.393,2.642Zm86.942-.769a1.35,1.35,0,0,1-.984-2.273q.611-.653,1.215-1.311a1.35,1.35,0,1,1,1.99,1.825q-.613.669-1.235,1.332A1.345,1.345,0,0,1,881.74,375.912Zm-240.729-.1a1.344,1.344,0,0,1-.75-.228l-1.5-1.009a1.35,1.35,0,1,1,1.512-2.237l1.49,1a1.35,1.35,0,0,1-.752,2.472Zm147.778-1.042a1.353,1.353,0,0,1-.426-.07q-.861-.287-1.717-.579a1.35,1.35,0,0,1,.872-2.555q.847.289,1.7.572a1.351,1.351,0,0,1-.427,2.632Zm-5.955-2.07a1.354,1.354,0,0,1-.461-.081q-.852-.31-1.7-.623a1.351,1.351,0,0,1,.938-2.533q.838.312,1.683.617a1.35,1.35,0,0,1-.46,2.62ZM635.8,372.259a1.344,1.344,0,0,1-.767-.24l-1.484-1.033a1.35,1.35,0,1,1,1.547-2.212l1.474,1.025a1.35,1.35,0,0,1-.77,2.46Zm250.16-1.033a1.35,1.35,0,0,1-1.021-2.232q.582-.677,1.158-1.359a1.35,1.35,0,0,1,2.065,1.741q-.587.695-1.179,1.382A1.349,1.349,0,0,1,885.957,371.226Zm-109.025-.753a1.335,1.335,0,0,1-.493-.094q-.845-.332-1.684-.668a1.35,1.35,0,1,1,1-2.5q.831.332,1.666.66a1.35,1.35,0,0,1-.494,2.607ZM630.64,368.628a1.34,1.34,0,0,1-.785-.252l-1.468-1.055a1.35,1.35,0,1,1,1.581-2.189l1.459,1.049a1.35,1.35,0,0,1-.787,2.447Zm140.452-.533a1.344,1.344,0,0,1-.524-.106q-.837-.352-1.668-.712a1.35,1.35,0,0,1,1.07-2.479q.821.354,1.647.7a1.35,1.35,0,0,1-.525,2.594Zm118.884-1.724a1.349,1.349,0,0,1-1.057-2.189q.555-.7,1.1-1.4a1.35,1.35,0,0,1,2.134,1.655q-.556.717-1.121,1.428A1.347,1.347,0,0,1,889.976,366.371Zm-124.661-.806a1.349,1.349,0,0,1-.557-.121c-.55-.249-1.1-.5-1.646-.755a1.35,1.35,0,1,1,1.133-2.45q.813.375,1.629.746a1.35,1.35,0,0,1-.559,2.58Zm-139.777-.645a1.344,1.344,0,0,1-.8-.264l-1.452-1.076a1.35,1.35,0,0,1,1.612-2.166l1.444,1.07a1.35,1.35,0,0,1-.8,2.436Zm134.07-2.036a1.349,1.349,0,0,1-.589-.136q-.816-.4-1.627-.8a1.35,1.35,0,1,1,1.2-2.42q.8.4,1.608.789a1.351,1.351,0,0,1-.591,2.565Zm134.185-1.522a1.35,1.35,0,0,1-1.088-2.147q.527-.72,1.045-1.446a1.35,1.35,0,0,1,2.2,1.569q-.528.739-1.063,1.47A1.348,1.348,0,0,1,893.793,361.362Zm-273.3-.224a1.34,1.34,0,0,1-.816-.275l-1.437-1.1a1.35,1.35,0,0,1,1.642-2.144l1.429,1.091a1.35,1.35,0,0,1-.818,2.424Zm133.484-1.086a1.349,1.349,0,0,1-.621-.152q-.8-.418-1.6-.841a1.35,1.35,0,1,1,1.262-2.387q.791.417,1.587.831a1.35,1.35,0,0,1-.623,2.549ZM615.5,357.287a1.346,1.346,0,0,1-.831-.287l-1.422-1.116a1.35,1.35,0,1,1,1.672-2.12l1.413,1.109a1.35,1.35,0,0,1-.832,2.414Zm132.921-.216a1.338,1.338,0,0,1-.652-.169q-.793-.44-1.582-.884a1.35,1.35,0,0,1,1.325-2.352q.78.44,1.564.874a1.35,1.35,0,0,1-.655,2.531Zm148.995-.864a1.35,1.35,0,0,1-1.119-2.1q.5-.739.988-1.484a1.35,1.35,0,1,1,2.256,1.482q-.5.759-1,1.51A1.347,1.347,0,0,1,897.411,356.207ZM742.94,353.943a1.346,1.346,0,0,1-.684-.187q-.781-.46-1.558-.926a1.35,1.35,0,0,1,1.389-2.316q.768.461,1.54.916a1.35,1.35,0,0,1-.687,2.513Zm-132.389-.574a1.344,1.344,0,0,1-.844-.3l-1.406-1.134a1.35,1.35,0,0,1,1.7-2.1l1.4,1.128a1.35,1.35,0,0,1-.846,2.4Zm290.277-2.45a1.349,1.349,0,0,1-1.146-2.061q.469-.757.932-1.521a1.35,1.35,0,1,1,2.309,1.4q-.468.775-.946,1.545A1.348,1.348,0,0,1,900.828,350.919Zm-163.278-.25a1.336,1.336,0,0,1-.715-.206q-.768-.48-1.532-.966a1.35,1.35,0,0,1,1.45-2.278q.754.48,1.515.956a1.35,1.35,0,0,1-.718,2.494Zm-131.891-1.281a1.344,1.344,0,0,1-.858-.308l-1.392-1.152a1.35,1.35,0,1,1,1.724-2.077L606.519,347a1.35,1.35,0,0,1-.86,2.391Zm126.591-2.135a1.335,1.335,0,0,1-.745-.225q-.756-.5-1.507-1.008a1.35,1.35,0,0,1,1.511-2.238q.741.5,1.489,1a1.35,1.35,0,0,1-.748,2.474Zm171.8-1.743a1.335,1.335,0,0,1-.667-.178,1.35,1.35,0,0,1-.5-1.842q.441-.772.875-1.554a1.35,1.35,0,0,1,2.359,1.313q-.441.792-.889,1.579A1.349,1.349,0,0,1,904.046,345.51Zm-303.23-.162a1.347,1.347,0,0,1-.871-.319l-1.378-1.169a1.35,1.35,0,1,1,1.749-2.056l1.372,1.163a1.35,1.35,0,0,1-.872,2.381ZM727.043,343.7a1.336,1.336,0,0,1-.775-.246q-.743-.522-1.479-1.048a1.35,1.35,0,0,1,1.57-2.2q.729.519,1.462,1.036a1.35,1.35,0,0,1-.778,2.454Zm-131.022-2.448a1.342,1.342,0,0,1-.882-.329l-1.365-1.184a1.35,1.35,0,0,1,1.773-2.036l1.358,1.179a1.349,1.349,0,0,1-.884,2.37ZM721.934,340a1.345,1.345,0,0,1-.8-.267q-.728-.542-1.45-1.088a1.35,1.35,0,0,1,1.629-2.153q.714.54,1.433,1.075a1.35,1.35,0,0,1-.807,2.433Zm185.132-.012a1.351,1.351,0,0,1-1.2-1.977q.414-.789.82-1.583a1.35,1.35,0,1,1,2.4,1.227q-.411.807-.832,1.61A1.351,1.351,0,0,1,907.066,339.987ZM591.274,337.1a1.346,1.346,0,0,1-.894-.339l-1.351-1.2a1.35,1.35,0,0,1,1.8-2.016l1.345,1.194a1.35,1.35,0,0,1-.9,2.361Zm125.652-.93a1.343,1.343,0,0,1-.834-.29q-.712-.559-1.42-1.126a1.35,1.35,0,0,1,1.687-2.109q.7.56,1.4,1.114a1.35,1.35,0,0,1-.836,2.411Zm192.964-1.8a1.35,1.35,0,0,1-1.216-1.935q.386-.8.765-1.613a1.35,1.35,0,0,1,2.445,1.147q-.384.819-.777,1.635A1.349,1.349,0,0,1,909.89,334.362ZM586.573,332.89a1.342,1.342,0,0,1-.9-.349l-1.338-1.214a1.35,1.35,0,0,1,1.818-2l1.332,1.208a1.35,1.35,0,0,1-.907,2.351Zm125.451-.692a1.345,1.345,0,0,1-.863-.312q-.7-.58-1.388-1.164a1.35,1.35,0,0,1,1.742-2.063q.684.577,1.374,1.152a1.35,1.35,0,0,1-.865,2.387Zm200.5-3.555a1.351,1.351,0,0,1-1.235-1.894q.359-.816.711-1.637a1.35,1.35,0,1,1,2.482,1.063q-.357.833-.722,1.661A1.349,1.349,0,0,1,912.519,328.643Zm-330.6-.01a1.345,1.345,0,0,1-.916-.358l-1.325-1.227a1.35,1.35,0,1,1,1.838-1.978l1.319,1.222a1.349,1.349,0,0,1-.916,2.341Zm125.313-.534a1.349,1.349,0,0,1-.891-.336q-.681-.6-1.356-1.2a1.35,1.35,0,1,1,1.8-2.014q.667.6,1.341,1.188a1.35,1.35,0,0,1-.892,2.364ZM577.307,324.33a1.346,1.346,0,0,1-.926-.368l-1.312-1.241a1.35,1.35,0,1,1,1.857-1.959L578.233,322a1.35,1.35,0,0,1-.926,2.332Zm125.245-.459a1.342,1.342,0,0,1-.918-.361q-.666-.616-1.324-1.239a1.35,1.35,0,1,1,1.853-1.963q.649.613,1.308,1.223a1.35,1.35,0,0,1-.919,2.34Zm212.4-1.033a1.35,1.35,0,0,1-1.252-1.852q.332-.829.657-1.662a1.35,1.35,0,0,1,2.515.984q-.33.843-.666,1.682A1.349,1.349,0,0,1,914.956,322.838Zm-342.218-2.857a1.349,1.349,0,0,1-.935-.377l-1.3-1.254a1.35,1.35,0,1,1,1.877-1.941l1.294,1.248a1.35,1.35,0,0,1-.936,2.324Zm125.252-.464a1.347,1.347,0,0,1-.946-.386q-.648-.636-1.289-1.275a1.35,1.35,0,1,1,1.906-1.912q.635.632,1.274,1.259a1.35,1.35,0,0,1-.945,2.314Zm219.214-2.56a1.331,1.331,0,0,1-.461-.082,1.349,1.349,0,0,1-.807-1.73q.3-.838.6-1.682a1.35,1.35,0,0,1,2.545.9q-.3.855-.611,1.7A1.351,1.351,0,0,1,917.2,316.957Zm-348.991-1.37a1.348,1.348,0,0,1-.945-.385l-1.289-1.267a1.35,1.35,0,0,1,1.9-1.923l1.282,1.26a1.35,1.35,0,0,1-.944,2.315Zm125.336-.548a1.348,1.348,0,0,1-.972-.412q-.63-.652-1.254-1.31a1.35,1.35,0,0,1,1.958-1.859q.617.649,1.239,1.294a1.349,1.349,0,0,1-.971,2.287Zm-129.821-3.887a1.348,1.348,0,0,1-.954-.395l-1.276-1.278a1.35,1.35,0,1,1,1.912-1.9l1.271,1.272a1.35,1.35,0,0,1-.953,2.306Zm355.536-.146a1.351,1.351,0,0,1-1.282-1.772q.279-.849.55-1.7a1.35,1.35,0,1,1,2.572.82q-.274.864-.558,1.723A1.348,1.348,0,0,1,919.264,311.006Zm-230.032-.566a1.345,1.345,0,0,1-1-.44q-.612-.671-1.217-1.344a1.35,1.35,0,0,1,2.01-1.8q.6.666,1.2,1.328a1.349,1.349,0,0,1-1,2.259Zm-129.949-3.765a1.343,1.343,0,0,1-.962-.4l-1.265-1.288a1.35,1.35,0,0,1,1.929-1.889l1.26,1.283a1.349,1.349,0,0,1-.962,2.3Zm125.762-.951a1.343,1.343,0,0,1-1.022-.468q-.594-.687-1.18-1.377a1.35,1.35,0,0,1,2.059-1.747q.579.681,1.165,1.36a1.35,1.35,0,0,1-1.022,2.232Zm236.094-.731a1.353,1.353,0,0,1-1.3-1.733q.253-.856.5-1.717a1.35,1.35,0,1,1,2.6.742q-.249.87-.5,1.739A1.35,1.35,0,0,1,921.139,304.993Zm-366.273-2.846a1.346,1.346,0,0,1-.971-.411l-1.259-1.305a1.35,1.35,0,0,1,1.945-1.873l1.255,1.3a1.351,1.351,0,0,1-.97,2.289Zm126.125-1.254a1.344,1.344,0,0,1-1.047-.5q-.573-.7-1.14-1.409a1.35,1.35,0,0,1,2.107-1.689q.56.7,1.126,1.393a1.35,1.35,0,0,1-1.046,2.2Zm241.839-1.969a1.353,1.353,0,0,1-1.307-1.693q.226-.865.447-1.732a1.35,1.35,0,1,1,2.617.662q-.222.879-.453,1.755A1.35,1.35,0,0,1,922.83,298.924Zm-372.348-1.346a1.348,1.348,0,0,1-.978-.42l-1.248-1.315a1.35,1.35,0,0,1,1.961-1.856l1.243,1.31a1.351,1.351,0,0,1-.978,2.281Zm126.594-1.63a1.347,1.347,0,0,1-1.07-.526q-.555-.719-1.1-1.442a1.35,1.35,0,0,1,2.154-1.629q.539.713,1.086,1.423a1.35,1.35,0,0,1-1.069,2.174Zm-130.937-2.974a1.345,1.345,0,0,1-.986-.427l-1.236-1.325a1.35,1.35,0,1,1,1.975-1.84l1.232,1.319a1.351,1.351,0,0,1-.985,2.273Zm378.2-.169a1.384,1.384,0,0,1-.3-.035,1.349,1.349,0,0,1-1.012-1.619q.2-.872.395-1.745a1.35,1.35,0,1,1,2.636.585q-.2.884-.4,1.767A1.35,1.35,0,0,1,924.339,292.805ZM673.3,290.9a1.347,1.347,0,0,1-1.1-.558q-.533-.735-1.058-1.472a1.35,1.35,0,0,1,2.2-1.567q.519.729,1.045,1.455A1.349,1.349,0,0,1,673.3,290.9Zm-131.468-2.558a1.345,1.345,0,0,1-.993-.435l-1.226-1.333a1.35,1.35,0,1,1,1.99-1.825l1.221,1.328a1.349,1.349,0,0,1-.992,2.265Zm383.834-1.695a1.353,1.353,0,0,1-1.325-1.616q.177-.878.345-1.756a1.35,1.35,0,1,1,2.651.508q-.17.889-.349,1.779A1.349,1.349,0,0,1,925.668,286.642Zm-255.993-.907a1.348,1.348,0,0,1-1.116-.589q-.513-.752-1.016-1.5a1.35,1.35,0,1,1,2.243-1.5q.5.743,1,1.483a1.349,1.349,0,0,1-1.113,2.111Zm-132.107-2.066a1.346,1.346,0,0,1-1-.443l-1.214-1.342a1.35,1.35,0,0,1,2-1.809l1.21,1.338a1.349,1.349,0,0,1-1,2.256Zm128.631-3.2a1.348,1.348,0,0,1-1.138-.623q-.49-.765-.971-1.533a1.35,1.35,0,0,1,2.288-1.434q.474.757.957,1.512a1.351,1.351,0,0,1-1.136,2.078Zm260.621-.03a1.266,1.266,0,0,1-.229-.02,1.349,1.349,0,0,1-1.1-1.558q.15-.882.3-1.767a1.349,1.349,0,1,1,2.664.433q-.144.894-.3,1.789A1.35,1.35,0,0,1,926.82,280.442Zm-393.482-1.471a1.348,1.348,0,0,1-1.007-.45l-1.2-1.35a1.35,1.35,0,0,1,2.017-1.8l1.2,1.346a1.349,1.349,0,0,1-1.006,2.249Zm129.544-3.863a1.353,1.353,0,0,1-1.16-.657q-.466-.78-.924-1.561a1.35,1.35,0,1,1,2.329-1.366q.452.771.912,1.54a1.351,1.351,0,0,1-1.157,2.044Zm-133.737-.863a1.348,1.348,0,0,1-1.014-.459l-1.193-1.357a1.35,1.35,0,0,1,2.029-1.781L530.158,272a1.351,1.351,0,0,1-1.013,2.242Zm398.648-.037a1.373,1.373,0,0,1-.191-.013,1.35,1.35,0,0,1-1.147-1.526q.126-.888.245-1.777a1.35,1.35,0,0,1,2.676.359q-.121.9-.248,1.8A1.349,1.349,0,0,1,927.793,274.208Zm-268.066-4.562a1.35,1.35,0,0,1-1.18-.693q-.443-.793-.876-1.589a1.349,1.349,0,0,1,2.369-1.293q.429.784.865,1.566a1.352,1.352,0,0,1-1.178,2.009Zm-134.739-.156a1.347,1.347,0,0,1-1.02-.464l-1.184-1.366a1.35,1.35,0,0,1,2.043-1.766l1.179,1.361a1.349,1.349,0,0,1-1.018,2.235Zm403.6-1.542a1.353,1.353,0,0,1-1.343-1.5q.1-.891.194-1.783a1.35,1.35,0,0,1,2.685.282q-.094.9-.2,1.805A1.35,1.35,0,0,1,928.59,267.948ZM520.865,264.71a1.346,1.346,0,0,1-1.026-.472l-1.173-1.372a1.35,1.35,0,1,1,2.054-1.753l1.17,1.369a1.35,1.35,0,0,1-1.025,2.228Zm135.877-.62a1.348,1.348,0,0,1-1.2-.729q-.418-.807-.827-1.616a1.35,1.35,0,1,1,2.409-1.218q.4.8.815,1.592a1.35,1.35,0,0,1-1.2,1.971Zm272.469-2.425c-.038,0-.077,0-.116,0a1.349,1.349,0,0,1-1.23-1.46q.075-.892.144-1.788a1.35,1.35,0,0,1,2.692.207q-.069.906-.146,1.81A1.351,1.351,0,0,1,929.211,261.665Zm-275.279-3.222a1.348,1.348,0,0,1-1.219-.769q-.391-.82-.775-1.64a1.35,1.35,0,1,1,2.447-1.142q.378.81.764,1.619a1.351,1.351,0,0,1-1.217,1.932Zm275.725-3.079-.078,0a1.35,1.35,0,0,1-1.271-1.425q.051-.9.1-1.792a1.35,1.35,0,0,1,2.7.132q-.043.908-.1,1.814A1.351,1.351,0,0,1,929.657,255.364ZM651.3,252.708a1.35,1.35,0,0,1-1.237-.807q-.364-.834-.721-1.666a1.35,1.35,0,0,1,2.483-1.061q.351.821.711,1.641a1.351,1.351,0,0,1-1.236,1.893Zm278.622-3.654h-.041a1.351,1.351,0,0,1-1.31-1.389q.027-.9.046-1.792a1.35,1.35,0,1,1,2.7.057q-.019.906-.045,1.814A1.351,1.351,0,0,1,929.927,249.054ZM648.869,246.89a1.351,1.351,0,0,1-1.254-.85q-.338-.844-.664-1.69a1.35,1.35,0,0,1,2.517-.975q.323.831.655,1.664a1.35,1.35,0,0,1-.754,1.754A1.331,1.331,0,0,1,648.869,246.89Zm281.152-4.143a1.351,1.351,0,0,1-1.35-1.35v-.254q0-.771,0-1.544a1.351,1.351,0,0,1,1.341-1.359h.009a1.351,1.351,0,0,1,1.35,1.341q.006.782,0,1.562v.254A1.35,1.35,0,0,1,930.021,242.747Zm-283.388-1.755a1.351,1.351,0,0,1-1.271-.894q-.306-.857-.605-1.712a1.35,1.35,0,0,1,2.551-.886q.293.843.6,1.686a1.35,1.35,0,0,1-1.271,1.806Zm283.306-4.566a1.35,1.35,0,0,1-1.349-1.313q-.024-.9-.054-1.8a1.35,1.35,0,1,1,2.7-.093q.03.909.056,1.817a1.35,1.35,0,0,1-1.313,1.386Zm-285.332-1.407a1.352,1.352,0,0,1-1.286-.941q-.276-.865-.543-1.732a1.35,1.35,0,0,1,2.581-.794q.262.854.535,1.706a1.351,1.351,0,0,1-.876,1.7A1.37,1.37,0,0,1,644.607,235.019Zm285.073-4.911a1.351,1.351,0,0,1-1.347-1.276q-.049-.9-.106-1.794a1.35,1.35,0,0,1,2.7-.171q.057.909.107,1.817a1.35,1.35,0,0,1-1.274,1.422C929.73,230.108,929.705,230.108,929.68,230.108ZM642.8,228.976a1.35,1.35,0,0,1-1.3-.989q-.245-.876-.477-1.752a1.35,1.35,0,0,1,2.608-.7q.23.863.47,1.725a1.349,1.349,0,0,1-.939,1.662A1.333,1.333,0,0,1,642.8,228.976ZM929.242,223.8a1.35,1.35,0,0,1-1.344-1.237q-.075-.9-.157-1.791a1.35,1.35,0,0,1,2.689-.248q.083.908.159,1.814a1.35,1.35,0,0,1-1.233,1.458C929.317,223.8,929.28,223.8,929.242,223.8Zm-288.015-.928a1.35,1.35,0,0,1-1.313-1.039q-.21-.887-.409-1.772a1.35,1.35,0,1,1,2.635-.591q.2.868.4,1.74a1.352,1.352,0,0,1-1.314,1.662Zm287.4-5.369a1.349,1.349,0,0,1-1.339-1.2q-.1-.889-.208-1.778a1.349,1.349,0,1,1,2.679-.326q.111.9.212,1.8a1.35,1.35,0,0,1-1.191,1.492A1.308,1.308,0,0,1,928.623,217.5ZM639.9,216.7a1.35,1.35,0,0,1-1.323-1.093q-.174-.894-.336-1.787a1.35,1.35,0,1,1,2.656-.482q.16.876.33,1.755A1.351,1.351,0,0,1,639.9,216.7Zm287.929-5.46a1.35,1.35,0,0,1-1.335-1.16q-.126-.887-.26-1.771a1.35,1.35,0,0,1,2.669-.405q.136.9.264,1.795a1.35,1.35,0,0,1-1.146,1.527A1.389,1.389,0,0,1,927.826,211.243Zm-289-.755a1.35,1.35,0,0,1-1.333-1.15q-.135-.9-.258-1.8a1.35,1.35,0,1,1,2.675-.366q.12.882.253,1.767a1.35,1.35,0,0,1-1.135,1.535A1.383,1.383,0,0,1,638.827,210.488Zm288.017-5.475a1.351,1.351,0,0,1-1.329-1.121q-.153-.882-.313-1.763a1.35,1.35,0,0,1,2.657-.483q.162.893.317,1.786a1.35,1.35,0,0,1-1.1,1.56A1.306,1.306,0,0,1,926.844,205.013Zm-288.812-.782a1.351,1.351,0,0,1-1.341-1.21q-.094-.907-.176-1.812a1.35,1.35,0,1,1,2.689-.242q.081.885.173,1.775a1.35,1.35,0,0,1-1.2,1.482A1.363,1.363,0,0,1,638.032,204.231Zm287.644-5.416a1.352,1.352,0,0,1-1.322-1.081q-.178-.878-.366-1.752a1.35,1.35,0,0,1,2.64-.564q.189.888.372,1.776a1.351,1.351,0,0,1-1.053,1.593A1.4,1.4,0,0,1,925.676,198.815Zm-288.146-.87a1.35,1.35,0,0,1-1.347-1.275q-.05-.912-.088-1.819a1.35,1.35,0,1,1,2.7-.112q.038.888.086,1.781a1.349,1.349,0,0,1-1.273,1.423Zm286.787-5.29a1.35,1.35,0,0,1-1.312-1.038q-.207-.873-.421-1.74a1.35,1.35,0,1,1,2.621-.647q.217.879.427,1.763a1.352,1.352,0,0,1-1.315,1.662ZM637.34,191.642a1.351,1.351,0,0,1-1.35-1.343v-.556q0-.635.007-1.267a1.328,1.328,0,0,1,1.364-1.336,1.352,1.352,0,0,1,1.336,1.365q-.008.618-.007,1.238v.543a1.349,1.349,0,0,1-1.343,1.356Zm285.425-5.1a1.351,1.351,0,0,1-1.3-1q-.234-.864-.476-1.725a1.35,1.35,0,1,1,2.6-.73q.245.871.483,1.749a1.353,1.353,0,0,1-1.3,1.7Zm-285.283-1.2-.068,0a1.35,1.35,0,0,1-1.282-1.415q.047-.913.106-1.821a1.35,1.35,0,0,1,2.694.179q-.058.885-.1,1.776A1.35,1.35,0,0,1,637.482,185.338Zm283.534-4.856a1.351,1.351,0,0,1-1.291-.955q-.261-.855-.532-1.708a1.35,1.35,0,1,1,2.573-.816q.274.864.541,1.733a1.35,1.35,0,0,1-.895,1.686A1.331,1.331,0,0,1,921.016,180.482Zm-283.04-1.43a1.229,1.229,0,0,1-.147-.008,1.349,1.349,0,0,1-1.2-1.487q.1-.909.211-1.812a1.35,1.35,0,0,1,2.679.337q-.111.879-.206,1.766A1.35,1.35,0,0,1,637.976,179.052Zm.87-6.244a1.4,1.4,0,0,1-.23-.019,1.35,1.35,0,0,1-1.1-1.559q.154-.9.325-1.8a1.35,1.35,0,0,1,2.653.5q-.167.87-.317,1.748A1.35,1.35,0,0,1,638.846,172.808Z" fill="#e0d8ff"/><path d="M942.787,379.429a1.35,1.35,0,0,1-.3-2.666l.876-.2a1.35,1.35,0,0,1,.609,2.631l-.879.2A1.382,1.382,0,0,1,942.787,379.429Z" fill="#e0d8ff"/><polygon points="979.44 371.802 947.153 382.489 948.728 373.827 979.44 371.802" fill="#b9a6f3"/><polygon points="940.628 363.364 948.053 370.941 947.265 382.602 954.326 377.119 962.565 385.527 1007.115 363.027 940.628 363.364" fill="#fff"/><polygon points="998.565 364.602 947.94 370.603 947.265 382.714 954.326 377.119 998.565 364.602" fill="#f3efff"/><rect x="594.371" y="357.828" width="4" height="3.81" transform="translate(-97.781 416.466) rotate(-35.771)" fill="#fff"/><rect x="587.091" y="354.993" width="4" height="3.81" transform="translate(-97.497 411.675) rotate(-35.771)" fill="#fff"/><rect x="595.623" y="365.189" width="4" height="3.81" transform="translate(-101.848 418.586) rotate(-35.771)" fill="#fff"/><path d="M580.922,376.962A9.528,9.528,0,0,1,580.19,382l13.833-9.967-2.227-3.091-10.9,7.855C580.9,376.855,580.915,376.907,580.922,376.962Z" fill="#fff"/><path d="M579.979,373.891l12.792-9.216-2.227-3.091-12.919,9.307A9.554,9.554,0,0,1,579.979,373.891Z" fill="#fff"/><path d="M570.207,368.671a9.513,9.513,0,0,1,4.884.662l10.4-7.493-2.227-3.091-14.008,10.092A9.509,9.509,0,0,1,570.207,368.671Z" fill="#fff"/><path d="M574.074,382.476l-33.768,23.186c-2.236,1.558-5.078.843-6.869-1.227s-1.009-5.311,1.227-6.869l33.767-23.187a4.935,4.935,0,0,1,5.643,8.1Z" fill="#9379cd"/><path d="M576.781,374.6a6.8,6.8,0,0,0-9.364-1.695l-34.435,23.677a7.053,7.053,0,0,0-2.933,4.834,5.921,5.921,0,0,0,1.376,4.676,7.3,7.3,0,0,0,6.394,2.63,6.357,6.357,0,0,0,2.843-1.1l34.426-23.671.01-.006A6.859,6.859,0,0,0,576.781,374.6Z" fill="#e0d8ff"/><circle cx="571.418" cy="378.174" r="3.292" fill="#c7b8ff"/><polygon points="552.908 433.179 542.636 408.246 531.929 409.611 529.801 436.018 552.908 433.179" fill="#e0d8ff"/><path d="M537.012,418.528l-1.093,16.729,16.979-2.086-7.892-19.156-5.344.681C537.628,414.955,537.146,416.482,537.012,418.528Z" fill="#d3c8ff"/><rect x="523.586" y="432.781" width="35" height="3.809" transform="matrix(0.992, -0.126, 0.126, 0.992, -50.628, 71.918)" fill="#c7b8ff"/><path d="M549.155,350.719a34.57,34.57,0,0,0,40.5,55.895Z" fill="#ece7ff"/><path d="M550.55,362.972a1.91,1.91,0,0,0-2.95-.19,30.62,30.62,0,0,0-7.415,25.414c2.525,16.313,16.766,27.291,31.94,24.943,4.209-.651,8.673-1.252,11.957-3.622Z" fill="#c7b8ff"/><circle cx="536.53" cy="401.983" r="3.292" fill="#c7b8ff"/><path d="M582.236,410.6a31.735,31.735,0,0,0,7.416-3.989l-40.5-55.895c-2.7,2.21-3.412,4.293-5.33,7.189Z" fill="#e0d8ff"/><path d="M553.646,356.919l-4.491-6.2c-2.7,2.21-4.106,3.34-6.024,6.236l4.368,5.973A84.316,84.316,0,0,1,553.646,356.919Z" fill="#fff"/><path d="M908.384,477.735l-2.875-8.684a6.468,6.468,0,0,0,.931-12.366,18.845,18.845,0,0,0,4.3-13.312l11.645-3a1.049,1.049,0,1,0-.523-2.031l-11.381,2.929a18.853,18.853,0,0,0-8.876-12.826l3.481-6.925a1.049,1.049,0,1,0-1.875-.943l-3.463,6.89a18.785,18.785,0,0,0-9.187-1.666,7.449,7.449,0,0,0-4.991-3.625l-3.242-9.8a1.049,1.049,0,0,0-1.992.659l2.982,9.011a7.5,7.5,0,0,0-6.717,8.583l-39.637-31.2a1.049,1.049,0,1,0-1.3,1.649L876.723,433.4a18.843,18.843,0,0,0-2.469,17.966l-8.28,2.051a1.049,1.049,0,0,0,.5,2.037l8.647-2.143a18.871,18.871,0,0,0,22.547,9.3,6.438,6.438,0,0,0,5.658,6.527l3.061,9.251a1.049,1.049,0,1,0,1.992-.66" fill="#fff"/><path d="M885.441,465.272a1.051,1.051,0,0,0-1.409.466l-3.455,6.875a1.049,1.049,0,0,0,1.875.942l3.455-6.874a1.05,1.05,0,0,0-.466-1.409" fill="#fff"/><path d="M871.433,433.18l-4.374-2.2a1.049,1.049,0,1,0-.943,1.875l4.375,2.2a1.049,1.049,0,0,0,.942-1.874" fill="#fff"/><path d="M859.717,426.9l-4.375-2.2a1.049,1.049,0,0,0-.942,1.875l4.374,2.2a1.049,1.049,0,0,0,.943-1.875" fill="#fff"/><path d="M865.321,439.5a3.323,3.323,0,1,0,1.476,4.46,3.323,3.323,0,0,0-1.476-4.46" fill="#fff"/><path d="M899.42,437.462a9.97,9.97,0,0,0-1.229-.506,3.322,3.322,0,1,0-4.67-.413,9.781,9.781,0,1,0,5.9.919" fill="#ffcb40"/><path d="M900.043,457.248a3.06,3.06,0,1,1,1.359,4.108,3.058,3.058,0,0,1-1.359-4.108" fill="#ffcb40"/><path d="M892.291,331.451a21.777,21.777,0,0,0-13.305,14.118,21.774,21.774,0,0,0-13.3-14.118,21.77,21.77,0,0,0,13.3-14.117,21.774,21.774,0,0,0,13.305,14.117" fill="#e0d8ff"/><path d="M556.241,327.5a21.776,21.776,0,0,0-13.3,14.118,21.781,21.781,0,0,0-13.3-14.118,21.775,21.775,0,0,0,13.3-14.117,21.77,21.77,0,0,0,13.3,14.117" fill="#e0d8ff"/><path d="M965.215,241.385a4.872,4.872,0,1,1-4.871-4.872,4.87,4.87,0,0,1,4.871,4.872" fill="#e0d8ff"/><path d="M843.294,325.07a3.413,3.413,0,1,1-3.413-3.413,3.411,3.411,0,0,1,3.413,3.413" fill="#e0d8ff"/><path d="M892.609,183.428a3.413,3.413,0,1,1-3.413-3.413,3.413,3.413,0,0,1,3.413,3.413" fill="#fff"/><path d="M715.2,253.532a4.873,4.873,0,1,1,2.978,6.215,4.874,4.874,0,0,1-2.978-6.215" fill="#e0d8ff"/><path d="M472.478,409.762a4.873,4.873,0,1,1,2.978,6.216,4.873,4.873,0,0,1-2.978-6.216" fill="#ffcb40"/><path d="M727.817,388.222a4.874,4.874,0,1,1-6.326-2.733,4.874,4.874,0,0,1,6.326,2.733" fill="#e0d8ff"/><path d="M591.431,306.051A3.413,3.413,0,1,1,587,304.138a3.412,3.412,0,0,1,4.431,1.913" fill="#fff"/><path d="M1058.8,341.99a3.411,3.411,0,1,1-4.43-1.913,3.413,3.413,0,0,1,4.43,1.913" fill="#e0d8ff"/><path d="M738.508,135.96a3.412,3.412,0,1,1-4.431-1.913,3.413,3.413,0,0,1,4.431,1.913" fill="#ffcb40"/><path d="M1019.884,387.674a3.413,3.413,0,1,1,3.088-3.709,3.416,3.416,0,0,1-3.088,3.709" fill="#fff"/><path d="M715.965,155.577a3.413,3.413,0,1,1,3.091-3.709,3.416,3.416,0,0,1-3.091,3.709" fill="#e0d8ff"/><path d="M1116.675,263.894a4.873,4.873,0,1,1,6.277-2.846,4.874,4.874,0,0,1-6.277,2.846" fill="#fff"/><path d="M1148.446,371.268a3.413,3.413,0,1,1-4.808.419,3.415,3.415,0,0,1,4.808-.419" fill="#ffcb40"/><path d="M974.152,272.749a3.412,3.412,0,1,1-4.807.421,3.413,3.413,0,0,1,4.807-.421" fill="#fff"/><path d="M932.581,342.34a4.873,4.873,0,1,1,4.784-4.963,4.876,4.876,0,0,1-4.784,4.963" fill="#ffcb40"/><path d="M751.5,493.463a3.413,3.413,0,1,1,3.35-3.474,3.413,3.413,0,0,1-3.35,3.474" fill="#ffcb40"/><path d="M799.509,281.354a3.413,3.413,0,1,1,.106,4.824,3.412,3.412,0,0,1-.106-4.824" fill="#e0d8ff"/><polygon points="786.55 520 780.671 520 780.55 361 786.671 361 786.55 520" fill="#fff"/><path d="M778.158,361.942c-4.693,7.509-.469,11.968-.469,11.968a8.041,8.041,0,0,0-3.285,6.571c0,4.458,3.285,4.458,3.285,4.458s-3.051,6.337-2.112,9.153a6.535,6.535,0,0,0,3.989,3.754s.939,8.683,2.816,11.734,3.755-2.112,4.928-7.275-1.642-10.56-.938-10.8a7.958,7.958,0,0,0,4.459-6.805c0-4.224-3.521-8.214-3.521-8.214s2.347-2.346,2.113-7.04a23.355,23.355,0,0,0-2.817-9.152Z" fill="#edb026"/><polygon points="805.062 351.016 784.885 351.016 781.522 351.016 761.345 351.016 757.742 375.891 761.345 375.891 770.953 354.226 783.204 351.404 795.454 354.226 805.062 375.891 808.665 375.891 805.062 351.016" fill="#b9a6f3"/><polygon points="791.535 363.454 772.761 363.454 776.985 347.027 787.31 347.027 791.535 363.454" fill="#fff"/><path d="M801.156,355.24H765.721s-2.112-48.811,16.427-68.054C801.156,304.786,801.156,355.24,801.156,355.24Z" fill="#c7b8ff"/><path d="M782.148,355.24h19.008s0-50.454-19.008-68.054Z" fill="#bfaef1"/><circle cx="782.617" cy="308.837" r="4.76" fill="#e0d8ff"/><circle cx="782.617" cy="323.891" r="4.76" fill="#e0d8ff"/><path d="M682.107,453.5c1.451.487,4.991.364,8.455.08a32.835,32.835,0,0,1,13.119,1.613l24.116,8.086a.956.956,0,0,0,1.153-.423.924.924,0,0,0-.52-1.311l-24.163-8.1a32.844,32.844,0,0,1-11.44-6.621c-2.593-2.314-5.342-4.546-6.793-5.033a6.176,6.176,0,0,0-3.927,11.711" fill="#fff"/><path d="M680.885,446.424a3.087,3.087,0,0,1,3.909-1.946c1.617.543,6.465,5.425,6.465,5.425s-6.811.972-8.428.43a3.087,3.087,0,0,1-1.946-3.909" fill="#ffcb40"/><path d="M762.444,468.309a1.049,1.049,0,0,1-1.095,1.716L719.943,456.2a1.05,1.05,0,0,1,.665-1.991l41.406,13.828a1.059,1.059,0,0,1,.43.274" fill="#fff"/><path d="M730.507,449.374a1.05,1.05,0,0,1-1.095,1.716l-15.806-5.244a1.049,1.049,0,0,1,.664-1.991l15.807,5.245a1.039,1.039,0,0,1,.43.274" fill="#fff"/><path d="M912.863,453.514a1.049,1.049,0,0,0,.61,1.352l7.2,2.723a1.049,1.049,0,1,0,.742-1.962l-7.2-2.723a1.049,1.049,0,0,0-1.352.61" fill="#fff"/><path d="M1089.141,637.678c-4.33-35.31,1.516-50.656,11.089-44.858.921-44.96,33.056-69.8,38.278-19.917.055.53.1,1.041.146,1.566,5.386-3.886,10.811-1.873,14.075,13.373a103.991,103.991,0,0,1,1.167,33.421c12.743-7.564,13.09,22.9-5.449,56.121,8.867,2.569,7.216,24.506-3.793,49.156-14.656,32.815-42.207,1.092-42.207,1.092C1067.759,678.009,1079.814,642.23,1089.141,637.678Z" fill="#e0d8ff"/><path d="M1089.141,637.678c-4.33-35.31,1.516-50.656,11.089-44.858.363-17.732,5.583-32.33,12.091-40.453,2.153,49.412,22.5,119.9,37.45,160.946a135.643,135.643,0,0,1-5.117,13.227c-14.656,32.815-42.207,1.092-42.207,1.092C1067.759,678.009,1079.814,642.23,1089.141,637.678Z" fill="#d3c8ff"/><path d="M1130.925,725.669c-9.072-44.813-12.657-59.387-7.772-95.091s0-68.859,0-68.859" fill="none" stroke="#b29ded" stroke-linecap="round" stroke-linejoin="round" stroke-width="1.585"/><path d="M1124.367,619.648c2.714-12.023,19.372-27.325,19.372-27.325" fill="none" stroke="#b29ded" stroke-linecap="round" stroke-linejoin="round" stroke-width="1.585"/><path d="M1121.133,663.777c5.74-16.288,22.606-29.92,22.606-29.92" fill="none" stroke="#b29ded" stroke-linecap="round" stroke-linejoin="round" stroke-width="1.585"/><path d="M1122.346,636.263c-3.838-10.93-20.129-27.545-20.129-27.545" fill="none" stroke="#b29ded" stroke-linecap="round" stroke-linejoin="round" stroke-width="1.585"/><path d="M1123.481,687.137c-8.953-19.033-31.731-30.692-31.731-30.692" fill="none" stroke="#b29ded" stroke-linecap="round" stroke-linejoin="round" stroke-width="1.585"/><polygon points="1098.03 788.091 1148.275 788.091 1159.441 721.661 1086.865 721.661 1098.03 788.091" fill="#edb026"/><polygon points="1139.436 721.661 1159.441 721.661 1148.275 788.091 1139.436 788.091 1139.436 721.661" fill="#f9c237"/><line x1="1150.369" y1="775.635" x2="1095.937" y2="775.635" fill="none" stroke="#cc9017" stroke-miterlimit="10"/><polygon points="646.938 655 627.969 789 633.076 789 662.746 655 646.938 655" fill="gray"/><rect x="647.164" y="651.831" width="401.505" height="16.274" fill="gray"/><polygon points="1055.227 654.745 1074.172 788.577 1069.072 788.577 1037.253 654.745 1055.227 654.745" fill="gray"/><rect x="627.164" y="651" width="447.507" height="8" fill="#b2b2b2"/><polygon points="857.391 649.469 831.888 649.469 829.702 626.57 859.577 626.57 857.391 649.469" fill="#b3b3b3"/><polygon points="858.725 635.496 859.577 626.57 829.702 626.57 830.554 635.496 858.725 635.496" fill="#999"/><rect x="759.671" y="519" width="169" height="110" rx="1.986" fill="#282828"/><rect x="765.671" y="524" width="157" height="97" fill="#8867c8"/><rect x="795.671" y="646" width="97" height="5" fill="#737373"/><path d="M846.643,512.615h-5.829v-5.748h5.829Zm0-11.5h-5.829V495.37h5.829Zm0-11.5h-5.829v-5.748h5.829Zm0-11.5h-5.829v-5.748h5.829Z" fill="#fff"/><circle cx="843.726" cy="573.667" r="39.11" fill="#9274d0"/><circle cx="843.726" cy="573.667" r="28.849" fill="#9d82d8"/><circle cx="843.726" cy="573.667" r="18.588" fill="#a78fdf"/><polygon points="863.294 548.682 846.643 566.595 846.643 524.127 840.814 524.127 840.814 566.607 824.157 548.682 819.888 552.659 843.723 578.296 867.564 552.659 863.294 548.682" fill="#fff"/><rect x="816.222" y="594.509" width="56.472" height="5.829" fill="#fff"/><path d="M554.053,787.919c-.823-8.773-22.644-15.8-49.445-15.8s-48.623,7.028-49.445,15.8Z" fill="#a48be0"/><path d="M507.926,779.545s-3.695,1.131-6.637,0V718.61h6.637Z" fill="#737373"/><path d="M407.752,599.605c2.512,29.86,24.434,125.686,95.474,130.653s84.977-21.3,92.307-36.011c10.051-20.181,2.262-51.038-28.507-45.314s-55.2-2.353-54.751-38.73-12.669-46.378-38.913-38.241-42.534,7.475-54.3.757S406.267,581.963,407.752,599.605Z" fill="#8867c8"/><path d="M598,664.716c-2.311-10.118-11.451-19.363-30.969-15.783-30.788,5.647-55.2-2.353-54.751-38.73s-12.669-46.378-38.913-38.241-42.534,7.475-54.3.757a14.818,14.818,0,0,0-2.107-1.007h0c-4.6-.208-7.418,14.288-3.543,33.913,3.949,20,7.007,53.691,38.681,46.69,35.728-7.9,46.153,3.8,43.891,35.294s26.414,43.624,63.8,33.752C595.207,712.008,601.264,679.565,598,664.716Z" fill="#9679d4"/><path d="M585.555,693.569c-1.154-10.842-29.577-18.606-63.484-17.341a174.3,174.3,0,0,0-25.8,2.813,77.793,77.793,0,0,1-.288,8.568c-1.961,19.9,8.157,27.166,19.381,33.08a106.338,106.338,0,0,0,16.969.63C566.243,720.053,586.709,704.411,585.555,693.569Z" fill="#b9a6f3"/><path d="M443.549,273.41l-12.08,21.963s20.041-13.178,20.865-13.452S443.549,273.41,443.549,273.41Z" fill="#c7b8ff"/><polygon points="445.196 258.859 443.274 236.347 455.354 256.938 445.196 258.859" fill="#c7b8ff"/><polygon points="460.296 254.192 469.081 247.329 467.983 259.408 460.296 254.192" fill="#d3c8ff"/><polygon points="438.881 262.703 425.154 266.547 439.98 272.861 438.881 262.703" fill="#d3c8ff"/><polygon points="450.687 287.137 453.981 297.295 458.923 288.235 450.687 287.137" fill="#d3c8ff"/><path d="M461.943,284.941c.823.274,20.041,12.629,20.041,12.629l-13.727-19.493Z" fill="#c7b8ff"/><polygon points="471.552 277.528 482.808 276.43 473.199 270.116 471.552 277.528" fill="#d3c8ff"/><polygon points="469.63 259.408 487.615 256.527 472.101 269.292 469.63 259.408" fill="#c7b8ff"/><circle cx="456.101" cy="270.588" r="19.723" fill="#ece7ff"/><path d="M466.333,253.724a23.683,23.683,0,0,1-21.8,32.836,19.723,19.723,0,1,0,21.8-32.836Z" fill="#e0d8ff"/><path d="M463.027,391.865c1.352-.718,3.7-3.371,5.876-6.079a32.834,32.834,0,0,1,10.2-8.409l22.463-11.933a.957.957,0,0,0,.487-1.128.923.923,0,0,0-1.309-.525l-22.507,11.957a32.844,32.844,0,0,1-12.676,3.744c-3.464.288-6.975.747-8.326,1.465a6.176,6.176,0,0,0,5.794,10.908" fill="#fff"/><path d="M457.054,387.885a3.088,3.088,0,0,1,1.278-4.176c1.506-.8,8.385-.958,8.385-.958s-3.981,5.612-5.488,6.412a3.087,3.087,0,0,1-4.175-1.278" fill="#ffcb40"/><path d="M521.612,356.761a1.049,1.049,0,0,1,.483,1.977l-38.623,20.346a1.049,1.049,0,0,1-.978-1.857l38.623-20.345a1.037,1.037,0,0,1,.5-.121" fill="#e0d8ff"/><path d="M529.059,343.769a1.049,1.049,0,0,1,.491,1.975l-38.526,20.527a1.049,1.049,0,1,1-.987-1.852l38.527-20.527a1.046,1.046,0,0,1,.5-.123" fill="#e0d8ff"/><path d="M493.342,353.911a1.049,1.049,0,0,1,.491,1.975l-14.682,7.86a1.049,1.049,0,0,1-.987-1.852l14.683-7.86a1.04,1.04,0,0,1,.5-.123" fill="#fff"/><polygon points="620.741 716.514 630.844 722.88 613.729 732.048 603.233 724.295 615.79 715.315 620.741 716.514" fill="#d2d2d2"/><path d="M495.992,671.966l1.4,2.552a.851.851,0,0,1-.327,1.164l-.051.028,5.941-3.183a.93.93,0,0,0,.357-1.275l-1.362-2.476a7.592,7.592,0,0,1,2.912-10.393l-5.955,3.19a7.592,7.592,0,0,0-2.912,10.393" fill="#737373"/><path d="M613.377,730.024a64.53,64.53,0,0,0,4.464,13.8l37.64-20.163s-6.024-8.5-15.186-3.587-15.723-3.337-15.723-3.337a9.488,9.488,0,0,0-1.77,7.6l.111.58Z" fill="#737373"/><path d="M537.136,672.06l33.279,3.715a12.524,12.524,0,0,1,8.071,4.286c7.012,8.125,26.117,22.32,42.255,36.454-1.274,4.645-9.035,15.854-9.035,15.854-20.753-14.592-41.193-30.57-41.193-30.57l-5.712.987a102.735,102.735,0,0,1-58.667-7.249l.416-28.583Z" fill="#878787"/><path d="M508.978,677.955,478.081,683l.43,18.6a26.677,26.677,0,0,0,28.975,13.753l35.161-6.8c1.252,24.041,8.444,50.88,8.444,50.88s5.358,2.114,14.209-2.627c.649-17.021,2.547-41.373,4.7-61.037.7-6.367-2.565-12.533-8.748-14.026-20.233-4.885-52.278-3.781-52.278-3.781" fill="#939393"/><path d="M496.164,591.5c-3.812-4.562-12.774-6.367-17.22-5.391l-17.492,3.835-5.12,4.1c-16.195,12.954-18.5,23.628-5.168,55.294L477.664,700s3.39-17.632,26.667-20.333c17.562-2.04,21.347-10.1,21.347-10.1l-13.847-13.9a27.707,27.707,0,0,1-6-13.667l-3.667-17.375a24.209,24.209,0,0,0,6.125-1.75C514.164,619.5,515,617,515,617Z" fill="#edac28"/><path d="M486.726,594.4,479,589.167l-.286,8.367,2.9,10.455,3.5-9.313c2.013.839,4.788,2.061,7.438,3.453-1.384-3.861-5.829-7.733-5.829-7.733" fill="#c48c00"/><path d="M466.789,644.7l1.751-.937a4.688,4.688,0,0,0,2.427-3.6l.311-2.649-8.607-1.008Z" fill="#c48c00"/><path d="M444.237,546.876h0a17.886,17.886,0,0,0-4.943,24.886l2.238,3.437a3.236,3.236,0,0,0-1.719.506,3.373,3.373,0,0,0-.756,4.924l2.442,3.134a5.282,5.282,0,0,0,6.674,1.468A18.03,18.03,0,0,0,471.92,589.4l3.4-2.189c6.349-4.092,6.283-15.581,3.816-19.208l-10.047-15.432a18.093,18.093,0,0,0-24.851-5.69" fill="#d3c8ff"/><path d="M467.711,557.032a4.987,4.987,0,0,0-.668,7.274l4.7,5.578a1.88,1.88,0,0,1-.323,2.8l-3.072,1.979s7.466,4.99,6.97,12.542l-3.4,2.19a17.658,17.658,0,0,1-16.773,1.188l0,.016,6.081,4.844,12.688,5.932,5.625-.687-.375-11.355-2-3c3.989-4.508,5.512-12.9,1.971-18.335l-8.5-13.06Z" fill="#b9a6f3"/><path d="M455.539,590.688a11.651,11.651,0,0,1-.477,4.407s7.565,14.8,21.5,19.723c-1.469-9.959,1.37-13.827,1.37-13.827s-11.335-3.241-18.46-7.741Z" fill="#ffc100"/><path d="M459.348,569.148a1.923,1.923,0,0,1-.532,2.675,1.945,1.945,0,0,1-2.673-.612,1.922,1.922,0,0,1,.533-2.675,1.945,1.945,0,0,1,2.672.612" fill="#8867c8"/><path d="M473.489,560.089a1.923,1.923,0,0,1-.531,2.676,1.944,1.944,0,0,1-2.673-.612,1.922,1.922,0,0,1,.532-2.675,1.946,1.946,0,0,1,2.672.611" fill="#8867c8"/><path d="M465.483,581.721l9.932-6.4-1.222,2.36a7.06,7.06,0,0,1-5.716,3.795Z" fill="#fff"/><path d="M457.335,543.274l-.35.071-1.089-3.358-2.716,2.118a15.837,15.837,0,0,1-5.439,2.74,22.916,22.916,0,0,0-6.049,2.894c-5.445,3.509-11.634,12.162-4.785,22.684.727,1.115,2.013,3.09,3.307,5.079a3.409,3.409,0,0,1,4.3,1.309l2.131,3.362,2.526-1.629-7.131-8.6a4.343,4.343,0,0,1-.913-3.681l.622-2.869a7.6,7.6,0,0,1,6.393-5.948l5.146-.717a4.513,4.513,0,0,0,1.825-.675l2.118-1.364a9.481,9.481,0,0,0,4.311-7.589l.278-6.476a7.927,7.927,0,0,1-4.481,2.653" fill="#a78fdf"/><path d="M451.6,570.446a.78.78,0,0,1-.675.134.826.826,0,0,1-.6-.979c.038-.171,1-4.17,4.792-5.237a.821.821,0,0,1,1,.561.782.782,0,0,1-.529.988c-2.92.819-3.7,4.06-3.707,4.092a.768.768,0,0,1-.281.441" fill="#8867c8"/><path d="M466.188,559.979a.782.782,0,0,1-.754.11.826.826,0,0,1-.5-1.034c1.283-3.741,5.313-4.468,5.484-4.5a.823.823,0,0,1,.937.658.778.778,0,0,1-.626.926c-.053.009-3.308.623-4.286,3.475a.768.768,0,0,1-.259.361" fill="#8867c8"/><path d="M447.091,581.845a1.839,1.839,0,0,1-1.356-2.285l.129-.443.139.024-.885-1.395a2.5,2.5,0,1,0-4.076,2.853l1.826,2.343a3.94,3.94,0,0,0,5.226.96l.658-.424-.521-.823a1.846,1.846,0,0,0-1.14-.81" fill="#b9a6f3"/><path d="M482.016,613.03a1.689,1.689,0,1,0,.667-2.329,1.713,1.713,0,0,0-.667,2.329" fill="#c48c00"/><path d="M542.647,708.546a51.713,51.713,0,0,1,2.9-11.035c-7.358,2.721-4.864,8.9-2.9,11.035" fill="gray"/><path d="M604.774,728.1a177.185,177.185,0,0,0,10.234-17.726l7.26,6.214a125.43,125.43,0,0,1-9.623,16.877Z" fill="#b2b2b2"/><path d="M549.028,756.612s9.922-2.525,19.54-.339a74.837,74.837,0,0,0-.623,8.782,46.74,46.74,0,0,0-19.429,1.644Z" fill="#b2b2b2"/><path d="M966.9,763.7l1-24.322h1.358v-4.828h.972V703.435H978.2v16.631h6.3c4.281,0,7.764,3.742,7.764,8.343v2.152a19.277,19.277,0,0,1,2.964,8.354.86.86,0,0,1-.819.952h-6.786a.861.861,0,0,1-.82-.952,19.282,19.282,0,0,1,2.965-8.353v-2.153a5.48,5.48,0,0,0-5.268-5.659h-6.3v11.8h.972v4.828h1.357l1,24.322h-2.357v13.77h-9.915V763.7Z" fill="#737373"/><path d="M974.361,762.274s31.583.982,50.327,8.545a3,3,0,0,1,1.675,3.568l-.82,3.083h-8.654v-1.819a240.952,240.952,0,0,0-42.528-3.813Z" fill="#b2b2b2"/><path d="M1016.889,779.069v-1.6h8.654v9.3h-2.989a5.929,5.929,0,0,1-5.664,4.818,6.276,6.276,0,0,1,0-12.519" fill="#737373"/><path d="M923.178,779.069v-1.6h8.656v9.3h-2.992a5.928,5.928,0,0,1-5.664,4.818,6.276,6.276,0,0,1,0-12.519" fill="#737373"/><path d="M924.035,770.819c18.742-7.562,50.326-8.544,50.326-8.544l12.8,6.18a4.428,4.428,0,0,1,2.306,4.806l-.537,2.906h-8.137v-1.915l-6.428-2.415a240.853,240.853,0,0,0-42.527,3.814v1.82h-8.656l-.82-3.084a3,3,0,0,1,1.677-3.568" fill="#d2d2d2"/><polygon points="980.789 779.069 980.789 776.167 989.011 776.167 989.011 779.069 991.01 779.069 991.01 791.588 978.948 791.588 978.948 779.069 980.789 779.069" fill="#737373"/><path d="M945.925,660.248h-19.18c-4.883,0-8.84,4.253-8.84,9.5V703.2a12.044,12.044,0,0,0,4.224,9.259l1.027.854a1.089,1.089,0,0,1-.613,1.924h-4.072l-3.339-2.778a12.043,12.043,0,0,1-4.223-9.259V668.136c0-5.246,3.957-9.5,8.84-9.5h33.172c4.311,0,7.791,3.782,7.741,8.413l-.032,4.563a1.108,1.108,0,0,1-1.067,1.133h-4.808a1.164,1.164,0,0,1-1.12-1.218l.03-2.868c.051-4.63-3.429-8.413-7.74-8.413" fill="#d2d2d2"/><path d="M958.663,668.661l-.027,3.145a.9.9,0,0,0,.867.942h-6.92a.988.988,0,0,1-.949-1.033l.032-3.054c.05-4.63-3.429-8.413-7.74-8.413h7c4.311,0,7.791,3.783,7.741,8.413" fill="#737373"/><path d="M917.75,658.638h7c-4.883,0-8.84,4.252-8.84,9.5v36.139a12.04,12.04,0,0,0,4.224,9.258l2.049,1.7h-6.242a2.106,2.106,0,0,1-1.351-.5l-1.453-1.21a12.039,12.039,0,0,1-4.223-9.258V668.135c0-5.245,3.957-9.5,8.84-9.5" fill="gray"/><path d="M1011.226,680.642l9.051-82.678a4.853,4.853,0,0,0-1.129-3.687l-.379-.437a6.891,6.891,0,0,0-6.188-2.413,198.247,198.247,0,0,1-55.644.147,4.72,4.72,0,0,0-5.189,4.173L940.7,677.058l4.026,32.681h61.679c8.026,0,13.365-8.912,10.042-16.76Z" fill="#b2b2b2"/><rect x="912.215" y="711.657" width="96.92" height="3.826" transform="translate(1921.349 1427.139) rotate(180)" fill="#737373"/><path d="M905.652,711.233a30.1,30.1,0,0,1,17.1-5.669l2.22.025,37.66.339a3.9,3.9,0,0,0,2.842-1.205l1.888,4.465a10.012,10.012,0,0,1-7.868,3.912H921.879a23.629,23.629,0,0,0-11.225,2.856l-1.762.951a3.091,3.091,0,0,1-3.811-.708A3.384,3.384,0,0,1,905.652,711.233Z" fill="#b2b2b2"/><path d="M956.8,717.354H907.686s-.929-6.238,13-6.238,37.39-.5,37.39-.5Z" fill="#b2b2b2"/><path d="M955.041,711.233a30.613,30.613,0,0,1,17.344-5.442l34.659.137a4.312,4.312,0,0,0,4.013-5.371l-.9-4.183h-67.08l-.264-2.146h66.9a120.947,120.947,0,0,1-2.21-16.109H940.833l-.131-1.061.148-1.085h66.506a121.267,121.267,0,0,1,.334-17.119c-5.289.125-18.2.386-33.367.386-9.926,0-20.812-.113-31.139-.449l.29-2.138c26.253.847,56.018.249,64.406.049l1.7-16.547c-5.03.445-20.275,1.663-36.568,1.663a201.789,201.789,0,0,1-27.3-1.589l.287-2.114c22.946,3.252,56.719.5,63.805-.134l1.545-15.076c-4.019.371-19.883,1.732-36.965,1.732a204.378,204.378,0,0,1-26.354-1.472l.288-2.117c23.886,3.206,58.427.138,63.254-.318l1.474-14.388c-4.888.456-19.155,1.65-34.684,1.65a189.23,189.23,0,0,1-28.028-1.785l.288-2.121c22.8,3.547,55.6.75,62.646.08l1.3-12.709a5.9,5.9,0,0,1,4.72,2.529,4.864,4.864,0,0,1,1.036,3.58l-5.114,64.383a98.046,98.046,0,0,0,1.723,27.625l2.066,9.979c1.438,6.952-3.483,13.547-10.111,13.547H971.268a23.629,23.629,0,0,0-11.225,2.856l-1.762.951a3.091,3.091,0,0,1-3.811-.708A3.383,3.383,0,0,1,955.041,711.233Z" fill="gray"/><path d="M997.4,660.248h-19.18c-4.882,0-8.84,4.253-8.84,9.5V703.2a12.044,12.044,0,0,0,4.224,9.259l1.027.854a1.088,1.088,0,0,1-.612,1.924h-4.073l-3.338-2.778a12.044,12.044,0,0,1-4.224-9.259V668.136c0-5.246,3.957-9.5,8.84-9.5h33.172c4.312,0,7.791,3.782,7.741,8.413l-.031,4.563a1.109,1.109,0,0,1-1.068,1.133h-4.808a1.166,1.166,0,0,1-1.12-1.218l.031-2.868c.05-4.63-3.43-8.413-7.741-8.413" fill="#d2d2d2"/><path d="M1010.136,668.661l-.027,3.145a.9.9,0,0,0,.868.942h-6.921a.988.988,0,0,1-.949-1.033l.033-3.054c.05-4.63-3.43-8.413-7.741-8.413h7c4.311,0,7.791,3.783,7.741,8.413" fill="gray"/><path d="M969.223,658.638h7c-4.882,0-8.84,4.252-8.84,9.5v36.139a12.04,12.04,0,0,0,4.224,9.258l2.049,1.7H967.41a2.106,2.106,0,0,1-1.35-.5l-1.453-1.21a12.043,12.043,0,0,1-4.224-9.258V668.135c0-5.245,3.957-9.5,8.84-9.5" fill="gray"/><path d="M538.218,724.67c-24.1.078-43.986-12.638-42.232-37.061,2.262-31.494-8.163-43.191-43.891-35.294-31.674,7-34.406-28.315-38.931-48.19-.347-1.524-.631-3-.87-4.44l-4.546-.124,0,.044c2.512,29.86,24.434,125.686,95.474,130.653a200.487,200.487,0,0,0,34.992-.293Z" fill="#8867c8"/><path d="M771.6,632.34c1.715,4.457,8.817,10.114,10.178,12.261,1.264,1.855,2.532-.1-.438-5.775,1.917.347,2.28.835,3.756,2.463s4.76,7.991,4.76,7.991,2.732-.134.5-10.062c-.649-2.887-10.445-9.838-11-10.731S771.218,631.34,771.6,632.34Z" fill="#a78fdf"/><path d="M697.976,504.114s-5.419,11.356-6.168,21.316,4.414,12.423,4.552,13.552c.686,5.624.859,13.387.859,13.387l16.018-2.978s-1.567-7.021-.656-8.878c2.239-4.564,4.928-23.212.311-29.139S697.976,504.114,697.976,504.114Z" fill="#a78fdf"/><path d="M696.432,496.174s-7.455,4.709,1.161,21,1.305,27.421,1.305,27.421,23.188,5.911,30.442-8.986c3.558-7.305,1.778-27.578-12.324-35.693C709.423,495.543,696.432,496.174,696.432,496.174Z" fill="#8867c8"/><path d="M653.379,516.173a10.5,10.5,0,0,0,.723-7.281c-.741-2.63-2.477-9.314-2.477-9.314s-2.79-.642-2.058,2.808c1.228,5.79-.5,8.224-.5,8.224Z" fill="#a78fdf"/><path d="M651.438,522.211s2.019-5.765,2.47-7.067c1.3-3.765-1.629-8.4-3.6-8.742-1.879,1.3-4.356-.465-5.351-2.654s-1.573-7.393-1.613-8.283c-.078-1.716-1.451-2.849-2.463-.336-.489-1.717-1.847-.2-2.386,1.635-1.078-.7-.512,6.862.216,10.891.389,2.16,5.342,7.892,5.607,9.057s.323,6.47.323,6.47Z" fill="#a78fdf"/><path d="M749.226,567.828c-7-21.158-28.472-22.059-47.611-19.266-1.045.153-4.039.68-4.528.732-14.487,1.544-32.976,7.378-38.415,3.682-5.48-3.725-6.266-33.87-6.266-33.87l-8.818.611s-4.731,36.782,3.576,42.873c16.057,11.775,35.434,10.44,35.434,10.44l19.791,51.707,38.368-4.09-5.595-45.564a38.374,38.374,0,0,1,6.392,10.338c8.621,22.238,30.774,48.855,30.774,48.855l9.5-4.276S759.216,598.011,749.226,567.828Z" fill="#edb026"/><path d="M658.672,552.976a3.925,3.925,0,0,1-.85-.846l-.178.406c1.53,3.052,3.546,7.805,20.725,4.22s50.726-12.714,65.831,2.627c.813.826,1.69,1.8,2.614,2.888-8.7-15.737-27.9-16.233-45.2-13.709-1.045.153-4.039.68-4.528.732C682.6,550.838,664.111,556.672,658.672,552.976Z" fill="#ffc100"/><path d="M693.807,583.167c-1.647-4.268-6.39-6.631-10.219-7.88l18.8,49.45,3.66-.39C705.108,621.551,696.548,590.27,693.807,583.167Z" fill="#ffc100"/><path d="M717.446,777.82s-11.1,5.754-13.93,6.672.1,4.3.481,4.467c.321.138,20.244-.11,26.829-.195a1.712,1.712,0,0,0,1.651-2.071l-2.035-9.5Z" fill="#737373"/><path d="M719.436,678.565c11,18.574,18.457,37.095,38.161,48.1s62.082,11.6,62.082,11.6l-.527-10.076s-50.016-11.616-57.726-25.172-22.87-61.2-22.87-61.2Z" fill="#999"/><path d="M816.229,738.151s8.54,10,10.368,14.875c1,2.679,4.937.158,4.937.158l-1.45-25.229-13.113-.329Z" fill="#737373"/><path d="M702.441,624.039s-11.49,31.53-6.128,69.452,21,84.64,21,84.64l13.355-.979s-10.324-73.112-6.8-88.494,17.1-22.11,19.7-40.655-3.1-28.017-3.1-28.017Z" fill="#b2b2b2"/><path d="M723.429,670.891l-3.993,7.673c11,18.575,18.457,37.1,38.161,48.1.783.437,1.605.856,2.455,1.261C751.068,721.753,740.13,706.293,723.429,670.891Z" fill="#b2b2b2"/><polygon points="608.267 465.447 634.63 490.593 637.285 481.247 608.267 465.447" fill="#b9a6f3"/><polygon points="650.026 474.774 639.279 478.759 634.652 490.396 630.302 481.91 618.376 486.332 585.335 444.486 650.026 474.774" fill="#fff"/><polygon points="592.945 449.863 639.545 478.483 634.6 490.505 630.302 481.91 592.945 449.863" fill="#f3efff"/><path d="M551.24,766.6a64.463,64.463,0,0,0-7.111,12.64l40.346,13.981s2.156-10.189-7.664-13.592-8.213-13.817-8.213-13.817a9.49,9.49,0,0,0-6.786,3.855l-.351.475Z" fill="#737373"/><path d="M472.866,618.924c-6.63-5.893-17.685-14.93-24.934-10.382A10.3,10.3,0,0,0,443.31,621.3c1.225,6.067,9.265,13.173,15.6,17.948-.12-5.04,1.277-15.529,13.956-20.327" fill="#ffc100"/><path d="M567.414,651.917c-2.625-1.125-7.494-2.054-8.5-2.542s-6.761-5.37-7.5-5.5c-4.25-.75-19.625-4.375-28.415-7.95l-9.7-16.692a24.5,24.5,0,0,1-5.014,3.642,24.209,24.209,0,0,1-6.125,1.75l1.167,8.708c4,5.834,8.552,11.524,9.783,12.459,2.27,1.723,33.059,4.861,33.059,4.861s5.8,1.986,8.029,2.406c2.337.441,14.295,1.108,14.295,1.108A2.065,2.065,0,0,0,567.414,651.917Z" fill="#b9a6f3"/><polygon points="464.306 639.552 485.764 650.068 527.876 627.51 519.539 621.375 488.666 632.7 477.431 622.94 468.974 625.046 463.008 634.152 464.306 639.552" fill="#d3c8ff"/><path d="M474.117,620.043c-13.659,4.764-14.022,16.293-13.7,20.321,3.62,2.64,6.373,4.336,6.373,4.336s-5.619-14.742,10.641-21.76c-.754-.584-1.9-1.625-3.313-2.9" fill="#ffc100"/><path d="M522.289,620.375c-1.71-.139-1.16-3.52-1.16-3.52l-.84-2.855-2.766-.263s-2.1,6.623-1.543,10.6,7.1,5.747,7.1,5.747c4.707-.957,9.957-1.832,10.707-2.707l4.875-13.625-8.375,2S526.914,620.75,522.289,620.375Z" fill="#d3c8ff"/><polygon points="523.794 592.135 516.998 602.173 518.937 607.775 512.784 608.036 503.717 621.79 578.66 608.317 523.794 592.135" fill="#e0d8ff"/><polygon points="516.923 602.052 571.745 608.173 518.937 607.775 516.923 602.052" fill="#c7b8ff"/><polygon points="989.991 475.83 1001.085 483.987 1001.324 491.355 1007.819 488.631 1022.767 499.93 939.513 521.318 989.991 475.83" fill="#fff"/><polygon points="1001.114 483.812 946.637 517.756 1001.324 491.355 1001.114 483.812" fill="#e0d8ff"/></svg>