<svg xmlns="http://www.w3.org/2000/svg" viewBox="0 0 100 100"><title>widget-you-dont-have-permission</title><path d="M83.334 49.489l-.02.015-4.823-10.187a7.88 7.88 0 0 0-.831-1.756 7.212 7.212 0 0 0-4.679-2.729l-16.163-3.118-2.124.133-16.52 3.543a7.04 7.04 0 0 0-5.119 2.835l-8.5 12.622 13.983 4.5.62 34.3h33.325l.531-32.418v-.114l2.441 3.338 10.13-6.253z" fill="#a6a6a6"/><path d="M73.151 100.072c-.346-3.567-.528-10.646-.566-11h-33c-.127 1.27 0 6-.677 11z" fill="#666"/><path d="M9.155 72.676c0-1.19.529-2.589 3.177-4.354s.754 3.073-.623 3.89-2.555 1.151-2.554.464zm47.064-33.894c-3.717 0-6.77-2.392-6.77-6.112v-4.783H62.99v4.783c-.001 3.72-3.054 6.112-6.771 6.112z" fill="#c8c8c8"/><path d="M46.528 15.664h-1.46a1.085 1.085 0 0 0-1.062 1.2v4.252a1.085 1.085 0 0 0 1.062 1.2H46m19.91-6.652h1.46a1.085 1.085 0 0 1 1.062 1.2v4.252a1.085 1.085 0 0 1-1.062 1.2h-.929" fill="#a6a6a6"/><path d="M62.989 28.684v1.063c0 1.063-4.381 3.322-6.77 3.322-2.257 0-6.77-1.727-6.77-3.322v-1.063c3.851.182 10.478.221 13.54 0z" fill="#868686"/><circle cx="38.025" cy="66.979" r="26.827" fill="#d83b01"/><path d="M12.834 70.67a4.2 4.2 0 0 1-2.24.361s-1.557.35-1.439 1.645a20.285 20.285 0 0 0 1.345 4.312 1.569 1.569 0 0 0 1.683.664 9.4 9.4 0 0 0 1.7-.687c.831-.388 1.224-1.293.281-1.55 2.19-.18 3.26-2.321 1.663-2.174.461-.263 1.416-1.268 1.021-1.96-.214-.643-1.548-.034-2.009.23.136-.84-.439-1.582-2.005-.841zm54.138-53.013c0 8.37-4.646 14.083-10.753 14.083S45.6 26.027 45.6 17.657 50.113 2.511 56.219 2.511c7.699 0 10.753 6.776 10.753 15.146z" fill="#c8c8c8"/><path d="M67.105 20.713h-.929l-.532-11.028-2.921.531a51.175 51.175 0 0 1-12.744 0l-2.921-.531L46.4 20.58h-.8v-9.035c0-6.89 4.152-8.973 8.231-9.832a10.758 10.758 0 0 1 4.912 0c3.51.525 8.363 4.192 8.363 9.832z" fill="#868686"/><path d="M56.484 16.087V22.2h-2.257a1.008 1.008 0 0 1 .266-.532 3.443 3.443 0 0 0 .8-1.86l.133-2.657a1.116 1.116 0 0 1 1.058-1.064z" fill="#eaeaea"/><path d="M52.573 26.3a30.193 30.193 0 0 0 7.413.059c1.025-.155.884.082-.176.451a10.142 10.142 0 0 1-7.374-.157c-1.087-.433-.51-.474.137-.353z" fill="#a6a6a6"/><path d="M44.584 62.072v-6.461c0-4.17-2.2-6.866-6.367-6.866s-6.633 2.695-6.633 6.866v6.461h-5v19h23v-19zm-5.221 9.207v4.929h-2.286v-4.927a2.256 2.256 0 0 1-1.146-1.939 2.29 2.29 0 0 1 4.578 0 2.256 2.256 0 0 1-1.146 1.937zm3.221-9.207h-9v-7c0-3 1.724-4.038 4.633-4.038s4.367 1.13 4.367 4.038z" fill="#fff"/><path d="M58.648 22.174a.664.664 0 0 1-.8.664c-.133 0-.266.266-.531.4a1.343 1.343 0 0 1-.929.531 1.689 1.689 0 0 1-.929-.531.987.987 0 0 1-.4-.4.619.619 0 0 1-.8-.664z" fill="#868686"/><path d="M67.339 15.049c-.006-.165-.13-.177-.13-.177l-1.309-.128v.022a.222.222 0 0 0-.131-.1 23.349 23.349 0 0 0-3.839-.431 22.5 22.5 0 0 0-4.479.646h-2.132a25.888 25.888 0 0 0-4.479-.646 20.154 20.154 0 0 0-3.84.435.759.759 0 0 0-.206.077l-1.28.125s-.124.012-.13.177 0 .617 0 .617l1.473.314a1.006 1.006 0 0 1 .359.2c.213.215.121 1.322.427 2.155a2.808 2.808 0 0 0 .64.862 4.07 4.07 0 0 0 2.56.647c1.92 0 2.773-.216 3.626-1.293.853-1.293 1.067-2.371 1.92-2.371s1.066 1.078 1.92 2.371c.64 1.078 1.706 1.293 3.626 1.293a5.7 5.7 0 0 0 2.56-.647 1.306 1.306 0 0 0 .64-.862 5.9 5.9 0 0 1 .427-2.155 1.24 1.24 0 0 1 .246-.185l1.539-.327s-.002-.454-.008-.619z" fill="#666"/><path d="M90.166 64.557c-.913-2.864-5.5-12.325-5.5-12.325l-.016.01.935 1.956-8.275 5.108 2.927 4.113-13.3 11.248-2.622 1.953a5.407 5.407 0 0 0-1.361-.127c-2.1.011-4.69.974-6.421.916-.341.733.31 1.662 2 2.014a4.773 4.773 0 0 1-2.112.969c-1.771.236-1.783 1.194-1.276 1.863-.479-.006-1.846.346-1.633.975.063.848 1.424.975 1.9.981-1.3.721.748 1.962 2.641.843-.71.8.166 1.4 2.347.8 3.658-.876 5.21-1.263 8.235-4.5 0 0 17.324-9.617 19.266-11.117s3.116-3 2.263-5.677z" fill="#c8c8c8"/></svg>