<svg xmlns="http://www.w3.org/2000/svg" xmlns:xlink="http://www.w3.org/1999/xlink" viewBox="0 0 955 270"><defs><clipPath id="a"><rect x="819.35" y="162.629" width="26.95" height="60.965" fill="none"/></clipPath></defs><title>willow-bike-adventure</title><rect width="955" height="270" fill="#e8f1fc"/><polygon points="246.752 244.712 246.752 191.775 235.736 191.775 235.736 184.289 218.781 184.289 218.781 201.79 210.031 201.79 210.031 190.131 188.965 190.131 188.965 201.147 165.138 201.161 165.138 210.67 152.091 210.67 152.091 204.794 146.487 204.794 146.487 197.706 130.129 197.706 130.129 204.794 124.54 204.794 124.54 226.991 105.889 226.991 105.889 217.496 80.343 217.496 80.343 230.357 70.438 230.357 70.438 244.712 246.752 244.712" fill="#b3d6f2"/><polygon points="545.062 239.262 545.062 214.791 531.617 214.791 531.617 200.965 510.36 200.965 510.36 217.854 488.334 217.854 488.334 197.183 473.582 197.183 473.582 189.468 455.623 189.468 455.623 197.183 449.676 197.183 449.676 204.165 438.043 204.165 438.043 193.83 434.295 193.83 427.874 193.83 427.874 239.262 545.062 239.262" fill="#b3d6f2"/><polygon points="752.097 145.442 752.097 221.01 842.64 221.01 752.097 145.442" fill="#79b7e7"/><polygon points="684.09 200.342 752.098 145.442 842.64 221.01 675.003 221.01 684.09 200.342" fill="#a9d1f0"/><polygon points="752.097 145.442 752.097 221.01 842.64 221.01 752.097 145.442" fill="#79b7e7"/><polygon points="607.23 223.909 688.137 171.392 763.887 222.549 607.23 223.909" fill="#a9d1f0"/><polygon points="728.34 223.909 688.137 171.392 763.887 222.549 728.34 223.909" fill="#79b7e7"/><polygon points="767.8 168.623 775.984 165.378 752.097 145.442 725.275 167.095 735.798 164.079 743.205 167.042 756.688 162.893 767.8 168.623" fill="#fff"/><polygon points="752.097 145.442 752.097 164.306 756.688 162.893 767.8 168.623 775.984 165.378 752.097 145.442" fill="#a9d1f0"/><polygon points="694.053 187.515 704.591 182.504 688.137 171.392 664.76 186.566 673.818 184.544 681.324 187.515 688.137 182.71 694.053 187.515" fill="#fff"/><polygon points="704.591 182.504 688.137 171.392 698.765 185.275 704.591 182.504" fill="#a9d1f0"/><polygon points="618.126 192.152 609.881 222.375 626.369 222.375 618.126 192.152" fill="#699142"/><path d="M21.257,248.164H933.692s-22.62-20.621-58.049-21.984c-31.089-1.2-51.509,7.358-51.509,7.358l-633.907.545-27.253,7s-15.807-9.811-33.249-9.811-34.884,10.9-34.884,10.9-11.992-3.271-31.614-4.361S21.257,248.164,21.257,248.164Z" fill="#a1bf45"/><path d="M836.465,234.116c-19.147-18.519-53.327-30.978-92.471-30.978-39,0-73.182,12.459-92.328,30.978h184.8" fill="#72a642"/><path d="M761.553,210.463a9.7,9.7,0,0,1-.323-6.524c-1.464-.156-3.012-.3-4.43-.4a14.843,14.843,0,0,0,.647,8.4c1.37,3.824,5.356,10.883,16.674,15.195l1.552-4.076C765.988,219.364,762.669,213.581,761.553,210.463Z" fill="#5b813a"/><path d="M892.551,238.476c-14.83-14.344-41.305-23.994-71.624-23.994-30.209,0-56.684,9.65-71.513,23.994H892.551" fill="#7fba42"/><polygon points="810.333 205.699 803.538 230.584 817.127 230.584 810.333 205.699" fill="#7fba42"/><polygon points="810.333 205.699 803.538 230.584 817.127 230.584 810.333 205.699" fill="#5b813a"/><g clip-path="url(#a)"><polygon points="832.673 173.958 830.349 223.281 834.996 223.281 832.673 173.958" fill="#72a642"/><polygon points="832.673 173.958 830.349 223.281 834.996 223.281 832.673 173.958" fill="none"/><polygon points="832.673 162.48 819.196 211.647 845.995 211.647 832.673 162.48" fill="#5b813a"/><polygon points="832.673 162.48 819.196 211.647 845.995 211.647 832.673 162.48" fill="none"/><polygon points="832.673 173.958 830.813 211.804 834.377 211.804 832.673 173.958" fill="#72a642"/><polygon points="824.153 200.791 831.124 209.167 832.673 207.77 824.153 200.791" fill="#72a642"/><polygon points="825.701 190.709 831.588 198.154 833.137 196.758 825.701 190.709" fill="#72a642"/><polygon points="827.405 184.505 832.053 190.709 833.137 189.003 827.405 184.505" fill="#72a642"/><polygon points="840.882 197.688 833.911 206.064 832.518 204.668 840.882 197.688" fill="#72a642"/><polygon points="839.489 192.57 833.447 200.015 832.053 198.62 839.489 192.57" fill="#72a642"/><polygon points="835.925 181.868 832.982 186.211 832.673 184.505 835.925 181.868" fill="#72a642"/></g><polygon points="868.309 217.967 862.336 203.716 865.91 203.716 858.04 184.839 861.295 184.839 852.253 163 843.025 184.839 846.387 184.839 838.41 203.716 842.169 203.716 836.197 217.967 868.309 217.967" fill="#699142"/><polygon points="860.188 206.308 854.102 211.219 853.577 200.051 858.342 193.907 853.472 197.815 853.009 187.968 856.497 183.358 852.917 186.017 852.253 171.884 851.54 187.04 851.514 187.059 851.537 187.1 851.419 189.609 846.901 186.134 851.326 191.596 850.915 200.318 845.794 196.128 850.822 202.309 850.534 208.419 844.87 203.532 850.45 210.214 849.484 230.738 855.02 230.738 854.221 213.742 860.188 206.308" fill="#72a642"/><path d="M788.573,218.362c-2.016.509-4.23,1.11-6.445,1.765,6.351,2.513,9.393,4.989,9.393,10.686,0,7.243-7.823,9.176-12.445,9.176H741.648c-10.444,0-15.731,3.881-17.654,8.252h5.132c2.25-2.445,6.681-3.892,12.522-3.892h37.428c8.094,0,16.8-4.236,16.8-13.536C795.881,224.408,792.758,220.817,788.573,218.362Z" fill="#5b813a"/><path d="M666.619,113a15.868,15.868,0,0,0-15.773-16,14.988,14.988,0,0,0-4.725.679,27.609,27.609,0,0,0-53.814-4.5,19.462,19.462,0,0,0-8.1-1.8,18.807,18.807,0,0,0-.221,37.613h66.189v-.221c.221,0,.45.221.671.221A15.868,15.868,0,0,0,666.619,113Z" fill="#fff"/><path d="M713.044,234.116c-14.83-14.344-41.3-23.994-71.624-23.994-30.209,0-56.684,9.65-71.514,23.994H713.044" fill="#7fba42"/><polygon points="463.715 210.702 458.513 229.775 468.916 229.775 463.715 210.702" fill="none"/><polygon points="482.788 206.464 477.393 223.417 488.182 223.417 482.788 206.464" fill="none"/><polygon points="482.788 196.253 480.283 204.537 485.485 204.537 482.788 196.253" fill="none"/><polygon points="734.406 189.972 726.161 220.194 742.649 220.194 734.406 189.972" fill="#5b813a"/><polygon points="165.818 190.717 155.021 230.364 176.437 230.364 165.818 190.717" fill="#5b813a"/><path d="M205.787,241.372a49.74,49.74,0,0,0-84.779,0Z" fill="#7fba42"/><polygon points="148.817 211.214 144.039 228.736 153.596 228.736 148.817 211.214" fill="#72a642"/><polygon points="191.274 228.836 186.629 217.755 189.409 217.755 183.288 203.075 185.82 203.075 178.788 186.092 171.611 203.075 174.226 203.075 168.023 217.755 170.946 217.755 166.302 228.836 191.274 228.836" fill="#699142"/><polygon points="184.958 219.77 180.226 223.589 179.818 214.904 183.523 210.126 179.736 213.165 179.376 205.508 182.088 201.923 179.304 203.991 178.788 193 178.233 204.786 178.213 204.801 178.231 204.833 178.139 206.784 174.626 204.082 178.067 208.329 177.747 215.112 173.765 211.854 177.675 216.661 177.451 221.412 173.047 217.611 177.386 222.807 176.635 238.768 180.94 238.768 180.318 225.551 184.958 219.77" fill="#72a642"/><path d="M878.2,97.7a9.418,9.418,0,0,0-9.363-9.494,8.9,8.9,0,0,0-2.8.4,16.567,16.567,0,0,0-16.3-14.316,16.4,16.4,0,0,0-15.64,11.642,11.566,11.566,0,0,0-4.808-1.067,11.163,11.163,0,0,0-.131,22.325h39.286v-.131c.132,0,.267.131.4.131A9.418,9.418,0,0,0,878.2,97.7Z" fill="#fff"/><path d="M481.123,253.018a2.692,2.692,0,0,1,2.632,2.618,2.633,2.633,0,0,1-2.632,2.617H254.383a2.578,2.578,0,0,1-2.632-2.617,2.633,2.633,0,0,1,2.632-2.618Z" fill="#99bcd7"/><rect x="464.185" y="231.18" width="21.837" height="5.095" fill="#3c3c3c"/><rect x="482.625" y="174.405" width="3.397" height="63.584" fill="#3c3c3c"/><path d="M495.7,173.829c-.422,1.245-.627,2.143-2.015,2.143-1.411,0-1.634-.927-2.037-2.205l-1.906-.009,1.618,3.477h4.61l1.617-3.4Z" fill="#3c3c3c"/><path d="M508.8,173.829c-.422,1.245-.627,2.143-2.015,2.143-1.411,0-1.634-.927-2.037-2.205l-1.906-.009,1.618,3.477h4.61l1.617-3.4Z" fill="#3c3c3c"/><rect x="478.501" y="176.588" width="35.181" height="3.639" fill="#666"/><rect x="273.301" y="203.959" width="181.805" height="33.49" fill="#333"/><path d="M442.238,153.723H357.275c-4.949,0-19.943,15.442-32.171,33.655-12.473,2.066-51.143,5.746-65.166,16.417a139.781,139.781,0,0,0,0,33.655h15.673a23.881,23.881,0,0,1,23.922-23.8c14.023,0,24.746,10.671,24.746,23.8h76.715a23.922,23.922,0,0,1,47.844,0H469.46a46.57,46.57,0,0,0-.825-10.671C467.81,190.661,454.612,153.723,442.238,153.723Z" fill="#69afe5" fill-rule="evenodd"/><path d="M259.746,211.136a76.061,76.061,0,0,0,0,19.137,9.709,9.709,0,0,0,6.379-9.153C266.125,216.128,263.733,212.8,259.746,211.136Z" fill="#fff100" fill-rule="evenodd"/><circle cx="299.897" cy="236.253" r="20.333" fill="#3c3c3c"/><circle cx="299.938" cy="236.215" r="13.608" fill="#fff"/><circle cx="299.938" cy="236.215" r="3.888" fill="#666"/><path d="M301.31,224.551h-2.675a.5.5,0,0,0-.451.7l1.36,2.993a.5.5,0,0,0,.905-.006l1.315-2.992A.5.5,0,0,0,301.31,224.551Z" fill="#a6a6a6"/><path d="M298.635,248.852h2.675a.5.5,0,0,0,.452-.7l-1.361-2.992a.5.5,0,0,0-.905.006l-1.315,2.992A.5.5,0,0,0,298.635,248.852Z" fill="#a6a6a6"/><path d="M312.574,237.911v-2.675a.5.5,0,0,0-.7-.451l-2.993,1.36a.5.5,0,0,0,.006.905l2.992,1.315A.5.5,0,0,0,312.574,237.911Z" fill="#a6a6a6"/><path d="M288.273,235.236v2.675a.5.5,0,0,0,.7.451l2.992-1.36a.5.5,0,0,0-.006-.905l-2.992-1.315A.5.5,0,0,0,288.273,235.236Z" fill="#a6a6a6"/><path d="M309.508,228.93l-1.891-1.892a.5.5,0,0,0-.815.177l-1.155,3.077a.5.5,0,0,0,.645.637l3.045-1.187A.5.5,0,0,0,309.508,228.93Z" fill="#a6a6a6"/><path d="M290.437,244.217l1.892,1.892a.5.5,0,0,0,.815-.177l1.154-3.077a.5.5,0,0,0-.644-.637l-3.046,1.187A.5.5,0,0,0,290.437,244.217Z" fill="#a6a6a6"/><path d="M307.455,245.866l1.891-1.892a.5.5,0,0,0-.177-.815l-3.077-1.154a.5.5,0,0,0-.636.645l1.186,3.045A.5.5,0,0,0,307.455,245.866Z" fill="#a6a6a6"/><path d="M292.167,226.8l-1.892,1.892a.5.5,0,0,0,.177.815l3.077,1.154a.5.5,0,0,0,.637-.645l-1.186-3.045A.5.5,0,0,0,292.167,226.8Z" fill="#a6a6a6"/><circle cx="424.543" cy="236.253" r="20.333" fill="#3c3c3c"/><circle cx="424.584" cy="236.215" r="13.608" fill="#fff"/><circle cx="424.584" cy="236.215" r="3.888" fill="#666"/><path d="M425.957,224.551h-2.675a.5.5,0,0,0-.452.7l1.36,2.993a.5.5,0,0,0,.906-.006l1.315-2.992A.5.5,0,0,0,425.957,224.551Z" fill="#a6a6a6"/><path d="M423.282,248.852h2.675a.5.5,0,0,0,.451-.7l-1.36-2.992a.5.5,0,0,0-.906.006l-1.314,2.992A.5.5,0,0,0,423.282,248.852Z" fill="#a6a6a6"/><path d="M437.22,237.911v-2.675a.5.5,0,0,0-.7-.451l-2.992,1.36a.5.5,0,0,0,.006.905l2.992,1.315A.5.5,0,0,0,437.22,237.911Z" fill="#a6a6a6"/><path d="M412.92,235.236v2.675a.5.5,0,0,0,.7.451l2.992-1.36a.5.5,0,0,0,0-.905l-2.993-1.315A.5.5,0,0,0,412.92,235.236Z" fill="#a6a6a6"/><path d="M434.154,228.93l-1.891-1.892a.5.5,0,0,0-.815.177l-1.154,3.077a.5.5,0,0,0,.644.637l3.046-1.187A.5.5,0,0,0,434.154,228.93Z" fill="#a6a6a6"/><path d="M415.084,244.217l1.891,1.892a.5.5,0,0,0,.815-.177l1.154-3.077a.5.5,0,0,0-.644-.637l-3.045,1.187A.5.5,0,0,0,415.084,244.217Z" fill="#a6a6a6"/><path d="M432.1,245.866l1.891-1.892a.5.5,0,0,0-.176-.815l-3.078-1.154a.5.5,0,0,0-.636.645l1.186,3.045A.5.5,0,0,0,432.1,245.866Z" fill="#a6a6a6"/><path d="M416.813,226.8l-1.891,1.892a.5.5,0,0,0,.176.815l3.078,1.154a.5.5,0,0,0,.636-.645l-1.186-3.045A.5.5,0,0,0,416.813,226.8Z" fill="#a6a6a6"/><path d="M354.709,158.645h-5.942s-15,14.621-23.663,28.733c6.129-.068,13.905,0,13.905,0l16.645-27.041A1.11,1.11,0,0,0,354.709,158.645Z" fill="#fff" fill-rule="evenodd"/><path d="M401.955,186.961h44.264a2.327,2.327,0,0,0,2.223-3.033,101.547,101.547,0,0,0-11.479-24.285A2.6,2.6,0,0,0,434.8,158.5h-34.71a1.28,1.28,0,0,0-1.279,1.332l1.01,25.08A2.139,2.139,0,0,0,401.955,186.961Z" fill="#fff" fill-rule="evenodd"/><path d="M391.8,158.5H362.25a1.928,1.928,0,0,0-1.658.944l-16.323,27.521h47.792a2.23,2.23,0,0,0,2.228-2.32l-1-24.706A1.5,1.5,0,0,0,391.8,158.5Z" fill="#fff" fill-rule="evenodd"/><path d="M399.264,171.148l.557,13.818a2.078,2.078,0,0,0,2.076,2h40.971a1.969,1.969,0,0,0,1.885-2.557,108.174,108.174,0,0,0-5.195-13.256Z" fill="#b3d6f2" fill-rule="evenodd"/><path d="M353.648,171.148l-9.379,15.813h48.1a1.938,1.938,0,0,0,1.936-2.016l-.556-13.8Z" fill="#b3d6f2" fill-rule="evenodd"/><path d="M337.194,171.148a134.684,134.684,0,0,0-12.089,16.23c6.128-.068,13.9,0,13.9,0l9.99-16.23Z" fill="#b3d6f2" fill-rule="evenodd"/><path d="M441.106,186.961H452.79a1.733,1.733,0,0,0,1.66-2.247,101.667,101.667,0,0,0-11.883-25.3,2.087,2.087,0,0,0-1.729-.914h-9.8A203.084,203.084,0,0,1,441.106,186.961Z" fill="#005a93" fill-rule="evenodd"/><path d="M259.938,203.8h5.617a1.887,1.887,0,0,1,1.887,1.887v31.469h-9.754C255.047,220.488,259.938,203.8,259.938,203.8Z" fill="#11334b"/><path d="M257.3,218.658h4.311a2.176,2.176,0,0,0,2.176-2.176v-7.026a2.176,2.176,0,0,0-2.176-2.176h-2.532A95.464,95.464,0,0,0,257.3,218.658Z" fill="#ecf5bd"/><rect x="270.663" y="211.4" width="4.46" height="9.034" rx="0.86" ry="0.86" fill="#ec6401"/><path d="M279.8,224.041a2.538,2.538,0,0,0-1.435-.443h-22.8a2.551,2.551,0,0,0-2.551,2.551v8.926a2.551,2.551,0,0,0,2.551,2.551h20.071A24.5,24.5,0,0,1,279.8,224.041Z" fill="#235a89"/><path d="M405.693,223.293H319.527a23.3,23.3,0,0,1,4.753,14.157h76.714A23.606,23.606,0,0,1,405.693,223.293Z" fill="#235a89" fill-rule="evenodd"/><path d="M469.873,217.423h-6.184a3.617,3.617,0,0,0-3.617,3.617v2.253H444.139a23.606,23.606,0,0,1,4.7,14.157H469.46V237.4h.413a3.617,3.617,0,0,0,3.617-3.617V221.04A3.617,3.617,0,0,0,469.873,217.423Z" fill="#235a89" fill-rule="evenodd"/><path d="M462.326,192.472a2.254,2.254,0,0,0-2.254,2.253v15.946a2.254,2.254,0,0,0,2.254,2.254h5.408a173.774,173.774,0,0,0-3.4-20.453Z" fill="#11334b" fill-rule="evenodd"/><path d="M464.932,195.276h-2.42v14.752h4.871C466.762,204.968,465.934,200.021,464.932,195.276Z" fill="#a80000" fill-rule="evenodd"/><path d="M347.459,182.431h-4.711c-5.889,0-10.6,2.657-10.6,5.979s4.711,5.98,10.6,5.98h4.711Z" fill="#005a93" fill-rule="evenodd"/><rect x="382.311" y="192.951" width="12.198" height="4.574" rx="1.222" ry="1.222" fill="#ecf5bd"/><path d="M601.714,233.811c-9.84-7.376-23.861-12.033-39.365-12.033-15.656,0-29.586,4.657-39.481,12.033Z" fill="#72a642"/><path d="M716.4,253.018a2.692,2.692,0,0,1,2.632,2.618,2.633,2.633,0,0,1-2.632,2.617H516.914a2.578,2.578,0,0,1-2.632-2.617,2.633,2.633,0,0,1,2.632-2.618Z" fill="#99bcd7"/><circle cx="632.117" cy="236.604" r="6.052" fill="#fff"/><path d="M661.984,197.809a4.264,4.264,0,0,0,2.745-.046,3.093,3.093,0,0,0,1.729-3.787l-6.307-17.022a2.767,2.767,0,0,0-3.68-1.639,2.73,2.73,0,0,0-1.746,3.592Z" fill="#75411d"/><polygon points="658.309 188.411 663.63 186.37 661.187 179.809 656.356 184.066 658.309 188.411" fill="#714eb7"/><polygon points="654.366 181.694 657.132 176.712 651.046 173.252 650.078 179.618 654.366 181.694" fill="none"/><path d="M659.9,242.58a1.3,1.3,0,0,0,1.245-.691l3.735-9.548a1.12,1.12,0,0,0-.692-1.522,1.142,1.142,0,0,0-1.384.691l-3.734,9.548a.973.973,0,0,0,.553,1.384.429.429,0,0,0,.277.138" fill="#666"/><path d="M660.867,232.617h5.394a1.018,1.018,0,0,0,1.107-1.107,1.091,1.091,0,0,0-1.107-1.107h-5.394a1.09,1.09,0,0,0-1.106,1.107,1.018,1.018,0,0,0,1.106,1.107" fill="#666"/><path d="M643.993,197.33v4.29a4.194,4.194,0,0,0,4.288,4.152h14.661V197.33Z" fill="#004578"/><path d="M674.422,201.62c0-2.352-1.366-4.417-3.717-4.417l-7.763.127v8.441h7.192a4.193,4.193,0,0,0,4.288-4.151" fill="#75411d"/><polygon points="673.869 203.696 664.878 224.453 658.101 224.315 661.005 216.842 664.463 203.973 673.869 203.696" fill="#75411d"/><polygon points="673.869 203.696 664.878 224.453 658.101 224.315 661.005 216.842 664.463 203.973 673.869 203.696" fill="none"/><polygon points="668.059 217.118 664.878 224.591 658.101 224.453 661.005 216.98 668.059 217.118" fill="#ecf5bd"/><polygon points="668.059 217.118 664.878 224.591 658.101 224.453 661.005 216.98 668.059 217.118" fill="none"/><path d="M665.432,224.314c3.734.139,5.671,2.768,4.563,6.227l-7.053-.138-7.469-.138,2.628-6.089Z" fill="#5c2d91"/><path d="M675.667,236.63a19.641,19.641,0,1,1,19.641,19.651,19.631,19.631,0,0,1-19.641-19.651m3.043,0a16.6,16.6,0,1,0,16.6-16.606,16.65,16.65,0,0,0-16.6,16.606" fill="#3c3c3c"/><path d="M612.594,236.63a19.641,19.641,0,1,1,19.642,19.651,19.632,19.632,0,0,1-19.642-19.651m3.043,0a16.6,16.6,0,1,0,16.6-16.606,16.651,16.651,0,0,0-16.6,16.606" fill="#3c3c3c"/><path d="M695.308,234.555c-.277,0-.415,0-.554.138-1.8-1.522-4.841-4.566-6.086-7.472-.829-2.076-2.766-7.2-4.425-12.178L683,211.583c-1.107-3.321-2.076-6.226-2.49-7.2l1.383-3.044a1.056,1.056,0,0,0-.277-1.245l-2.351-2.491a1.965,1.965,0,0,0-.83-.276H671.1A1.091,1.091,0,0,0,670,198.438a1.018,1.018,0,0,0,1.106,1.107h6.916l1.522,1.521-1.245,2.768a.886.886,0,0,0,0,.831c0,.277.968,2.906,2.074,6.365H652.015l-.553-1.937a1.142,1.142,0,0,0-1.384-.692,1.111,1.111,0,0,0-.83,1.384L649.94,212l-17.566,22.556h-.138a2.128,2.128,0,0,0-2.075,2.075c0,.139.138.415.138.553l.138.278a1.856,1.856,0,0,0,1.8,1.107,1.6,1.6,0,0,0,1.383-.554L660.175,243l22.546-25.185c1.522,4.289,3.043,8.441,3.873,10.378,1.383,3.321,4.841,6.5,6.639,8.165v.276a2.01,2.01,0,0,0,2.075,1.938,1.891,1.891,0,0,0,1.936-1.938,2.01,2.01,0,0,0-1.936-2.075m-61,1.245,16.46-21.034,7.469,25.6Zm26,3.736-7.607-26.153H681.2c.276.691.414,1.245.691,1.937Z" fill="#ec6401"/><path d="M658.93,204.941c-1.659,3.045-7.192,4.982-10.927,4.982-3.6,0-6.362-2.491-6.362-4.982Z" fill="#666"/><path d="M655.058,241.75a4.664,4.664,0,0,0,4.7,4.705,4.707,4.707,0,1,0,0-9.41,4.665,4.665,0,0,0-4.7,4.705" fill="#fff"/><path d="M656.579,250.745a1.052,1.052,0,0,0,1.245-.692l3.181-8.717a1.164,1.164,0,0,0-.553-1.523,1.393,1.393,0,0,0-1.522.692l-3.319,8.718a1.392,1.392,0,0,0,.691,1.522Z" fill="#666"/><path d="M676.635,198.437a1.019,1.019,0,0,1-1.107,1.108h-4.564a1.02,1.02,0,0,1-1.107-1.108,1.092,1.092,0,0,1,1.107-1.107h4.564a1.092,1.092,0,0,1,1.107,1.107" fill="#3c3c3c"/><path d="M685.9,200.928a3.391,3.391,0,1,0,0,6.781Z" fill="#fff"/><path d="M661.7,221.547a4.644,4.644,0,0,0,.968-6.5l-7.607-10.1-7.469,5.673,7.745,10.24a4.723,4.723,0,0,0,6.363.692" fill="#8e562e"/><path d="M660.314,211.86l-13.556-17.989-5.394,3.46c0,2.767.415,5.535,1.937,7.611l9.544,12.454Z" fill="#004578"/><rect x="655.538" y="167.71" width="5.812" height="6.916" transform="translate(202.101 675.745) rotate(-62.446)" fill="#deb98c"/><path d="M657.484,173.008c6.5,3.391,3.575,11.387,1.079,16.171l-5.27,8.18H640.741l13.677-25.951Z" fill="#8867c8"/><path d="M656.359,195.2c.243,1.471,2.295,2.25,3.795,1.871,1.634-.349,2-1.206,1.619-2.705l-3.428-17.9a2.945,2.945,0,0,0-5.773,1.139Z" fill="#8e562e"/><polygon points="653.26 197.33 641.364 197.33 653.26 206.048 653.26 197.33" fill="#004578"/><polygon points="661.947 171.865 655.398 169.994 660.295 175.146 661.947 171.865" fill="#8e562e"/><polygon points="652.874 185.893 659.983 184.481 657.754 173.364 654.176 173.372 651.162 178.154 652.874 185.893" fill="#8867c8"/><path d="M659.346,242.858a7.124,7.124,0,0,1,5.809,7.749l-7.054-1.384L650.77,247.7l1.383-6.365Z" fill="#5c2d91"/><polygon points="663.495 218.088 658.931 242.719 652.153 241.336 653.536 233.448 654.366 219.333 663.495 218.088" fill="#93b444"/><polygon points="663.495 218.088 658.931 242.719 652.153 241.336 653.536 233.448 654.366 219.333 663.495 218.088" fill="#8e562e"/><polygon points="660.452 234.831 658.931 242.719 652.153 241.336 653.536 233.447 660.452 234.831" fill="#ecf5bd"/><polygon points="660.452 234.831 658.931 242.719 652.153 241.336 653.536 233.447 660.452 234.831" fill="none"/><path d="M653.4,250.607l5.256,1.107a1.14,1.14,0,0,0,1.383-.969,1.02,1.02,0,0,0-.968-1.245l-5.256-1.107a1.224,1.224,0,0,0-1.383.83,1.14,1.14,0,0,0,.968,1.384" fill="#666"/><path d="M658.965,191.64a2.791,2.791,0,0,0-2.7,2.773,2.825,2.825,0,0,0,2.708,2.9l13.89-.031a2.724,2.724,0,0,0,2.567-2.912,2.683,2.683,0,0,0-2.578-2.762Z" fill="#8e562e"/><path d="M666.575,197.315h11.48a5.738,5.738,0,0,0-11.476-.028" fill="#8e562e"/><path d="M663.067,151.806a8.12,8.12,0,0,0-3.147-.684,7.943,7.943,0,0,0-7.934,7.939v3.833a12.648,12.648,0,0,0,11.081-11.088" fill="#352e2a"/><rect x="652.123" y="156.187" width="15.186" height="2.326" fill="none" stroke="#fff" stroke-linecap="round" stroke-linejoin="round" stroke-width="0.615"/><path d="M659.783,148.522a7.651,7.651,0,0,0-7.661,7.664v2.739h15.187v-2.739a7.536,7.536,0,0,0-7.526-7.664" fill="#b4a0ff"/><rect x="652.123" y="156.187" width="15.186" height="2.326" fill="#8867c8"/><path d="M664.093,171.722h-10.5a14.879,14.879,0,0,1-1.47-.89V158.65h15.6v8.8h-1.887V170A1.662,1.662,0,0,1,664.093,171.722Z" fill="#8e562e"/><path d="M654.722,161.8h13v3.969h-13a.935.935,0,0,1-.957-.958v-2.053A.935.935,0,0,1,654.722,161.8Z" fill="#75411d"/><path d="M660.725,161.73c3.186,10.907-3.2,14.792-3.2,14.792l-5.481.333s-5.456-3.559.39-15.662C654.346,157.239,660.725,161.73,660.725,161.73Z" fill="#024410"/><path d="M645.418,158.514a20.722,20.722,0,0,0,14.366,5.477,20.374,20.374,0,0,0,14.228-5.477Z" fill="#b4a0ff"/><circle cx="543.488" cy="236.517" r="5.753" fill="#ecf5bd"/><path d="M573.556,197.492a4.275,4.275,0,0,0,2.755-.047,3.1,3.1,0,0,0,1.736-3.8l-6.33-17.086a2.778,2.778,0,0,0-3.694-1.646,2.741,2.741,0,0,0-1.753,3.6Z" fill="#a07657"/><polygon points="569.868 188.058 575.208 186.01 572.757 179.424 567.907 183.697 569.868 188.058" fill="#e24f01"/><polygon points="565.909 181.316 568.686 176.316 562.577 172.843 561.605 179.232 565.909 181.316" fill="none"/><path d="M571.463,242.432a1.3,1.3,0,0,0,1.25-.694l3.749-9.584a1.124,1.124,0,0,0-.695-1.528,1.146,1.146,0,0,0-1.388.694L570.63,240.9a.976.976,0,0,0,.556,1.389.427.427,0,0,0,.277.139" fill="#666"/><path d="M572.435,232.431h5.414a1.022,1.022,0,0,0,1.111-1.111,1.1,1.1,0,0,0-1.111-1.111h-5.414a1.1,1.1,0,0,0-1.111,1.111,1.022,1.022,0,0,0,1.111,1.111" fill="#666"/><path d="M555.5,197.011v4.307a4.21,4.21,0,0,0,4.3,4.167h14.717v-8.474Z" fill="#3c3c3c"/><path d="M586.041,201.318c0-2.362-1.371-4.434-3.731-4.434l-7.792.127v8.473h7.219a4.209,4.209,0,0,0,4.3-4.166" fill="#a07657"/><polygon points="585.486 203.401 576.461 224.236 569.658 224.098 572.573 216.597 576.045 203.679 585.486 203.401" fill="#a07657"/><polygon points="585.486 203.401 576.461 224.236 569.658 224.098 572.573 216.597 576.045 203.679 585.486 203.401" fill="none"/><polygon points="579.654 216.874 576.461 224.375 569.658 224.236 572.574 216.735 579.654 216.874" fill="#fff"/><polygon points="579.654 216.874 576.461 224.375 569.658 224.236 572.574 216.735 579.654 216.874" fill="#c8c8c8"/><path d="M577.017,224.1c3.748.139,5.692,2.778,4.581,6.251l-7.08-.139-7.5-.139,2.637-6.112Z" fill="#3c3c3c"/><path d="M587.29,236.46a19.715,19.715,0,1,1,19.715,19.724A19.706,19.706,0,0,1,587.29,236.46m3.055,0a16.661,16.661,0,1,0,16.66-16.669,16.714,16.714,0,0,0-16.66,16.669" fill="#3c3c3c"/><path d="M523.981,236.46A19.715,19.715,0,1,1,543.7,256.184a19.705,19.705,0,0,1-19.715-19.724m3.054,0A16.661,16.661,0,1,0,543.7,219.791a16.713,16.713,0,0,0-16.661,16.669" fill="#3c3c3c"/><path d="M607.005,234.376c-.277,0-.416,0-.555.139-1.805-1.528-4.86-4.584-6.109-7.5-.833-2.083-2.776-7.223-4.443-12.223l-1.249-3.473c-1.11-3.333-2.083-6.25-2.5-7.223l1.389-3.055a1.065,1.065,0,0,0-.279-1.251l-2.36-2.5a1.979,1.979,0,0,0-.833-.277h-7.358a1.1,1.1,0,0,0-1.111,1.111,1.022,1.022,0,0,0,1.111,1.111h6.941l1.528,1.528-1.25,2.778a.89.89,0,0,0,0,.833c0,.279.972,2.917,2.083,6.39H563.549l-.555-1.945a1.146,1.146,0,0,0-1.389-.694,1.114,1.114,0,0,0-.832,1.389l.694,2.222-17.633,22.641H543.7a2.137,2.137,0,0,0-2.083,2.084c0,.139.139.416.139.555l.139.278A1.86,1.86,0,0,0,543.7,238.4a1.611,1.611,0,0,0,1.388-.555l26.657,5,22.63-25.28c1.527,4.306,3.055,8.473,3.887,10.418,1.389,3.333,4.86,6.528,6.665,8.195v.278a2.017,2.017,0,0,0,2.082,1.944,1.9,1.9,0,0,0,1.944-1.944,2.018,2.018,0,0,0-1.944-2.084m-61.227,1.25L562.3,214.513l7.5,25.7Zm26.1,3.75-7.635-26.252h28.6c.278.695.416,1.25.695,1.945Z" fill="#8867c8"/><path d="M570.491,204.651c-1.665,3.056-7.219,5-10.968,5-3.61,0-6.386-2.5-6.386-5Z" fill="#3c3c3c"/><path d="M566.6,241.6a4.683,4.683,0,0,0,4.72,4.723,4.725,4.725,0,1,0,0-9.446,4.683,4.683,0,0,0-4.72,4.723" fill="#fff"/><path d="M568.131,250.628a1.057,1.057,0,0,0,1.25-.695l3.192-8.751a1.168,1.168,0,0,0-.555-1.528,1.4,1.4,0,0,0-1.527.695l-3.331,8.75a1.4,1.4,0,0,0,.693,1.529Z" fill="#666"/><path d="M588.262,198.123a1.022,1.022,0,0,1-1.11,1.111H582.57a1.022,1.022,0,0,1-1.111-1.111,1.1,1.1,0,0,1,1.111-1.112h4.582a1.1,1.1,0,0,1,1.11,1.112" fill="#3c3c3c"/><path d="M597.565,200.623a3.4,3.4,0,1,0,0,6.806Z" fill="#fff"/><path d="M573.268,221.32a4.661,4.661,0,0,0,.971-6.529L566.6,204.652l-7.5,5.694,7.774,10.279a4.743,4.743,0,0,0,6.387.695" fill="#bb9167"/><path d="M571.879,211.6l-13.606-18.057-5.414,3.473c0,2.777.416,5.556,1.944,7.64l9.58,12.5Z" fill="#666"/><rect x="567.086" y="167.28" width="5.834" height="6.942" transform="translate(154.942 597.111) rotate(-62.446)" fill="#bb9167"/><path d="M569.039,172.6c6.524,3.4,3.589,11.43,1.083,16.233l-5.29,8.21h-12.6l13.729-26.048Z" fill="#ec6401"/><path d="M567.91,194.875c.244,1.477,2.3,2.258,3.809,1.878,1.641-.35,2.006-1.21,1.626-2.715L569.9,176.072a2.956,2.956,0,0,0-5.795,1.143Z" fill="#bb9167"/><polygon points="564.799 197.011 552.859 197.011 564.799 205.762 564.799 197.011" fill="#699142"/><polygon points="564.799 197.011 552.859 197.011 564.799 205.762 564.799 197.011" fill="#666"/><polygon points="573.519 171.45 566.945 169.572 571.861 174.743 573.519 171.45" fill="#a07657"/><polygon points="564.412 185.531 571.547 184.114 569.31 172.955 565.719 172.963 562.693 177.763 564.412 185.531" fill="#ec6401"/><path d="M570.908,242.71a7.151,7.151,0,0,1,5.831,7.779l-7.081-1.389-7.358-1.528,1.388-6.39Z" fill="#3c3c3c"/><polygon points="575.073 217.847 570.492 242.572 563.688 241.182 565.077 233.265 565.909 219.097 575.073 217.847" fill="#93b444"/><polygon points="575.073 217.847 570.492 242.572 563.688 241.182 565.077 233.265 565.909 219.097 575.073 217.847" fill="#bb9167"/><polygon points="572.018 234.654 570.492 242.572 563.688 241.182 565.077 233.265 572.018 234.654" fill="#c8c8c8"/><polygon points="572.018 234.654 570.492 242.572 563.688 241.182 565.077 233.265 572.018 234.654" fill="none"/><path d="M564.938,250.489l5.275,1.111a1.145,1.145,0,0,0,1.389-.972,1.024,1.024,0,0,0-.972-1.251l-5.276-1.111a1.231,1.231,0,0,0-1.388.833,1.145,1.145,0,0,0,.972,1.39" fill="#666"/><path d="M570.526,191.3a2.8,2.8,0,0,0-2.706,2.784A2.835,2.835,0,0,0,570.538,197l13.942-.032a2.734,2.734,0,0,0,2.577-2.923,2.693,2.693,0,0,0-2.588-2.772Z" fill="#bb9167"/><path d="M578.164,197h11.524a5.76,5.76,0,0,0-11.52-.028" fill="#bb9167"/><path d="M562.272,159.348a9.683,9.683,0,0,1,11.283-7.756l8.769,1.569s1.054,8.275,1.129,8.53a3.208,3.208,0,0,0,1.728,2.481l-.356,1.988-2.221-.4-1.235,6.9-11.342-2.03-.117-.021a9.659,9.659,0,0,1-7.638-11.264" fill="#bb9167"/><path d="M573.229,164.206l1.465-8.186,8.184,1.464c-.208-2.209-.553-4.323-.553-4.323l-8.77-1.569a9.683,9.683,0,0,0-11.283,7.756,9.881,9.881,0,0,0,3.713,9.6Z" fill="#282828"/><path d="M574.213,158.709l-.984,5.5a2.717,2.717,0,0,1-2.187-3.288,2.689,2.689,0,0,1,3.171-2.209" fill="#bb9167"/><rect x="571.206" y="158.938" width="8.316" height="2.851" transform="translate(316.152 698.481) rotate(-79.854)" fill="#282828"/><path d="M583.419,157.61l-18.756-3.357s2.409-7.749,10.041-6.87C583.763,148.426,583.419,157.61,583.419,157.61Z" fill="#ec6401"/><path d="M579.78,156.958l4.9.877s2.406-3.759,2.047-4.979S579.78,156.958,579.78,156.958Z" fill="#e24f01"/></svg>