<svg xmlns="http://www.w3.org/2000/svg" xmlns:xlink="http://www.w3.org/1999/xlink" viewBox="0 0 955 270"><defs><clipPath id="a"><polygon points="177.144 234.411 215.945 208.488 377.68 208.488 417.05 234.411 177.144 234.411" fill="none"/></clipPath></defs><title>willow-car-racing-get-ready</title><rect width="955" height="270" fill="#e8f1fc"/><rect x="82.762" y="243.512" width="842" height="2" fill="#737373"/><path d="M576.807,162.742a9.692,9.692,0,0,0-9.636-9.77,9.156,9.156,0,0,0-2.886.414,16.865,16.865,0,0,0-32.872-2.751,11.889,11.889,0,0,0-4.948-1.1,11.488,11.488,0,0,0-.135,22.976h40.432v-.135c.135,0,.274.135.409.135A9.692,9.692,0,0,0,576.807,162.742Z" fill="#fff"/><path d="M296.434,244.286H921.1c-11.093-10.205-26.843-16.58-44.318-16.58a69.564,69.564,0,0,0-18.357,2.441,95.752,95.752,0,0,0-52.857-15.466c-14.557,0-38.277,3.095-50.336,8.557a110.411,110.411,0,0,0-51.748-12.6c-26.368,0-50.328,8.9-68.085,23.422a109.13,109.13,0,0,0-59.653-17.257A110.687,110.687,0,0,0,525.7,228.521a139.3,139.3,0,0,0-69.573-18.174,142.869,142.869,0,0,0-44.356,6.978q-2.776-.852-5.652-1.509a113.1,113.1,0,0,0-31.583-4.463,110.521,110.521,0,0,0-50.989,12.2,81.775,81.775,0,0,0-29.235-5.328,80.78,80.78,0,0,0-36.529,8.552A101.678,101.678,0,0,0,207,213.512c-11.518,0-22.536,5.315-32.69,8.667a82.147,82.147,0,0,0-26.867-4.458c-23.155,0-43.35,7.125-57.011,20.565H302.409C300.316,240.206,298.317,242.205,296.434,244.286Z" fill="#7fba42"/><rect x="118.571" y="229.19" width="1.8" height="10.401" fill="#699142"/><circle cx="119.371" cy="223.989" r="7.354" fill="#5b813a"/><rect x="105.918" y="226.854" width="1.34" height="12.536" fill="#699142"/><path d="M106.619,227.874V200.212s-7.482,6.8-7.482,15.872A12.361,12.361,0,0,0,106.619,227.874Z" fill="#699142"/><path d="M106.633,227.874V200.212s7.483,6.8,7.483,15.872A12.361,12.361,0,0,1,106.633,227.874Z" fill="#5b813a"/><path d="M868.845,256.648a2.468,2.468,0,0,1,2.414,2.4,2.414,2.414,0,0,1-2.414,2.4H591.762a2.366,2.366,0,0,1-2.415-2.4,2.415,2.415,0,0,1,2.415-2.4Z" fill="#99bcd7"/><path d="M489.251,256.648a2.468,2.468,0,0,1,2.414,2.4,2.414,2.414,0,0,1-2.414,2.4H428.428a2.365,2.365,0,0,1-2.414-2.4,2.414,2.414,0,0,1,2.414-2.4Z" fill="#99bcd7"/><rect x="293.159" y="198.313" width="7.731" height="10.823" fill="#737373"/><rect x="289.294" y="195.221" width="15.461" height="3.865" fill="#b2b2b2"/><rect x="344.954" y="200.632" width="7.731" height="9.277" fill="#737373"/><rect x="240.591" y="200.632" width="7.731" height="9.277" fill="#737373"/><rect x="236.725" y="199.086" width="119.824" height="6.185" fill="#b2b2b2"/><rect x="236.725" y="200.632" width="119.824" height="3.092" fill="#505050"/><rect x="291.613" y="196.767" width="10.823" height="2.319" fill="#505050"/><polygon points="377.389 208.412 216.337 208.412 177.086 234.512 417.146 234.512 377.389 208.412" fill="#b2b2b2"/><polygon points="349.266 235.828 313.859 235.828 307.721 208.488 329.256 208.488 349.266 235.828" fill="#d2d2d2"/><polygon points="245.202 235.828 280.61 235.828 286.747 208.488 265.212 208.488 245.202 235.828" fill="#d2d2d2"/><polygon points="417.107 234.389 379.109 235.828 353.11 208.488 377.68 208.488 417.107 234.389" fill="#d2d2d2"/><polygon points="184.816 234.295 222.247 235.702 248.246 208.363 223.676 208.363 184.816 234.295" fill="#d2d2d2"/><rect x="177.199" y="234.647" width="239.65" height="3.865" fill="#505050"/><g clip-path="url(#a)"><rect x="172.561" y="231.555" width="247.38" height="0.773" fill="#939393"/><rect x="172.561" y="228.463" width="247.38" height="0.773" fill="#939393"/><rect x="172.561" y="225.37" width="247.38" height="0.773" fill="#939393"/><rect x="172.561" y="222.278" width="247.38" height="0.773" fill="#939393"/><rect x="172.561" y="219.186" width="247.38" height="0.773" fill="#939393"/><rect x="172.561" y="216.094" width="247.38" height="0.773" fill="#939393"/><rect x="172.561" y="213.001" width="247.38" height="0.773" fill="#939393"/><rect x="172.561" y="209.909" width="247.38" height="0.773" fill="#939393"/><rect x="193.434" y="219.959" width="207.954" height="3.092" fill="#939393"/></g><polygon points="342.302 187.908 348.819 190.124 348.819 199.086 349.592 199.086 349.592 186.012 342.302 187.908" fill="#900"/><polygon points="307.514 187.908 314.032 190.124 314.032 199.086 314.805 199.086 314.805 186.012 307.514 187.908" fill="#0078d7"/><polygon points="272.726 187.908 279.244 190.124 279.244 199.086 280.017 199.086 280.017 186.012 272.726 187.908" fill="#e81123"/><polygon points="237.938 187.908 244.456 190.124 244.456 199.086 245.229 199.086 245.229 186.012 237.938 187.908" fill="#7fba42"/><path d="M770.085,125.691a17.681,17.681,0,0,0-17.576-17.822,16.7,16.7,0,0,0-5.264.756,31.1,31.1,0,0,0-30.6-26.873,30.789,30.789,0,0,0-29.361,21.855,21.668,21.668,0,0,0-9.025-2,20.955,20.955,0,0,0-.247,41.909h73.75v-.246c.246,0,.5.246.747.246A17.68,17.68,0,0,0,770.085,125.691Z" fill="#fff"/><rect x="82.762" y="237.512" width="831" height="7" fill="#fff"/><rect x="82.762" y="237.512" width="43" height="7" fill="#d91021"/><rect x="162.662" y="237.512" width="43" height="7" fill="#d91021"/><rect x="242.562" y="237.512" width="43" height="7" fill="#d91021"/><rect x="322.462" y="237.512" width="43" height="7" fill="#d91021"/><rect x="402.362" y="237.512" width="43" height="7" fill="#d91021"/><rect x="482.262" y="237.512" width="43" height="7" fill="#d91021"/><rect x="562.162" y="237.512" width="43" height="7" fill="#d91021"/><rect x="642.062" y="237.512" width="43" height="7" fill="#d91021"/><rect x="721.962" y="237.512" width="43" height="7" fill="#d91021"/><rect x="801.862" y="237.512" width="43" height="7" fill="#d91021"/><rect x="881.762" y="237.512" width="43" height="7" fill="#d91021"/><polygon points="612.898 235.988 592.132 242.545 592.132 221.506 612.898 228.064 612.898 235.988" fill="#231f20"/><polygon points="612.898 231.186 612.898 228.064 592.132 221.506 592.132 231.186 612.898 231.186" fill="#666"/><path d="M783.594,212.924,771.1,194.729s-15.757,11.294-38.254,28.143c-11.736,8.791,43.992,9.017,50.276,4.1S783.594,212.924,783.594,212.924Z" fill="#69afe5"/><path d="M705.052,188.544s-25.385,2.514-33.679,18.85S704.549,217.7,704.549,217.7Z" fill="#e81123"/><path d="M671.845,214.919c6.684,6.557,32.7,2.78,32.7,2.78l.392-22.733C690.978,196.835,680.2,201.978,671.845,214.919Z" fill="#900"/><path d="M628.341,202.982l-.992-2.56a47.987,47.987,0,0,0-3.338-4.193c-.233-.126-1.382-.513-2.424-.853l-1.839,3.618a14.176,14.176,0,0,0,2.028,1.776,19.466,19.466,0,0,1,3.337,3.113s.935-.337.423-1.513a8.669,8.669,0,0,0-1.923-2.434l.991.3,1.11.91a6.929,6.929,0,0,0,1.707,1.989C628.159,203.508,628.341,202.982,628.341,202.982Z" fill="#a88663"/><path d="M705.3,221.972a3.017,3.017,0,0,1-3.016-3.016V185.528a3.016,3.016,0,1,1,6.032,0v33.428A3.016,3.016,0,0,1,705.3,221.972Z" fill="#231f20"/><path d="M605.272,186.749a2.336,2.336,0,0,1,3.059-2.229c16.516,5.4,95.329,30.974,123.614,36.7,31.668,6.409,51.649-8.294,51.649-8.294s72.071,23.437,77.726,24.945,8.608,13.886-1.194,13.886H610.644a5.372,5.372,0,0,1-5.372-5.372Z" fill="#e81123"/><path d="M862.247,238.136c-1.128-.3-3.712-1.077-9.158-2.8v16.423h7.037C874.452,251.755,869.8,240.131,862.247,238.136Z" fill="#c2bebc"/><path d="M605.272,244.592v1.791a5.372,5.372,0,0,0,5.372,5.372H860.126c8.029,0,9.9-3.67,9-7.163Z" fill="#b80409"/><path d="M853.089,244.592v7.163h7.037c8.029,0,9.9-3.67,9-7.163Z" fill="#939393"/><path d="M717.619,217.951c34.71,10.553,60.666,13.879,85.833,1.412-11.409-3.695-19.858-6.439-19.858-6.439s-19.981,14.7-51.649,8.294c-4.537-.918-10.379-2.349-17.05-4.124C715.828,217.4,716.743,217.684,717.619,217.951Z" fill="#b80409"/><circle cx="642.406" cy="225.97" r="32.234" fill="#393939"/><circle cx="643.611" cy="225.127" r="18.266" fill="#c2bebc"/><circle cx="643.611" cy="225.127" r="15.042" fill="#fff"/><path d="M643.611,210.084a15.043,15.043,0,0,0-15.043,15.043h30.085A15.043,15.043,0,0,0,643.611,210.084Z" fill="#939393"/><circle cx="643.611" cy="225.127" r="6.447" fill="#c2bebc"/><circle cx="816.338" cy="238.673" r="19.869" fill="#393939"/><circle cx="817.081" cy="238.154" r="11.259" fill="#c2bebc"/><circle cx="817.081" cy="238.154" r="9.272" fill="#fff"/><path d="M817.081,228.881a9.273,9.273,0,0,0-9.273,9.273h18.545A9.273,9.273,0,0,0,817.081,228.881Z" fill="#939393"/><circle cx="817.081" cy="238.154" r="3.974" fill="#c2bebc"/><circle cx="696.727" cy="228.763" r="11.576" fill="#fff"/><path d="M471.7,198.547l.393.835a4.6,4.6,0,0,0-.348,1.152c-.367,1.828.008,4.242-.348,5.744.575.421,1.5.014,2.106-1.392a4.159,4.159,0,0,1,.462,2c-.113,1.582.73,1.76,1.4,1.438-.088.412-.033,1.664.558,1.583.742.093,1.1-1.067,1.186-1.484.4,1.252,1.835-.31,1.2-2.144.57.758,1.25.1,1.119-1.9-.1-2.991-.18-4.444-1.832-7.015Z" fill="#bb9167"/><path d="M470.39,153c5.076-.055,5.845,4.7,5.506,9.489s-.678,19.057-.678,19.057l4.928,17.106L471.9,200.61s-6.485-12.953-6.555-22S470.39,153,470.39,153Z" fill="#b80409"/><rect x="461.419" y="143.086" width="7.737" height="11.408" transform="translate(9.056 -25.807) rotate(3.208)" fill="#bb9167"/><path d="M451.149,176.828A87.375,87.375,0,0,0,451.2,189.8h24.675a42.244,42.244,0,0,0,1.018-10.815c-.147-6.543-2.523-9.967-3.213-13.9l-3.262-11.924s-2.752,1.179-4.857.58a12.986,12.986,0,0,1-5.762-3.384s-5.038.3-9.895,6.972C448.083,163.659,451.477,170.983,451.149,176.828Z" fill="#b80409"/><path d="M479.208,217.232c-1.362-8.6-5.4-25.712-5.4-25.712s-20.058-7.506-21.344-2.36c-1.773,7.095-.193,10.992-.193,10.992s-.395,5.161-.509,10.974a35.923,35.923,0,0,1-1.678,11.075l-7.829,13.374,9.786,3.044s5.98-8.807,7.393-11.09,3.48-5.11,3.888-7.058c.6-2.561,1.218-8.947,1.218-8.947a22.134,22.134,0,0,1,1.855,4.654c.983,3.228,1.457,4.207.764,7.13a.88.88,0,0,0-.013.317l-3.036,15.429,10.981.87s4.132-15.44,4.567-16.853C480.067,221.753,479.622,219.4,479.208,217.232Z" fill="#e81123"/><rect x="450.849" y="189.8" width="25.986" height="3.1" fill="#bd3604"/><path d="M482.718,254.419a103.7,103.7,0,0,1-9.832-5.213l2.209-9.5-11.078-.63-2.066,11.768,0,0c-.445,2.764-.684,6.3-.684,6.3a.9.9,0,0,0,.848.946l20.2,1.132a.713.713,0,0,0,.751-.672l.18-3.211A.971.971,0,0,0,482.718,254.419Z" fill="#b80409"/><path d="M454.822,254.02c-1.305-1.074-5.877-4.5-7.964-6.787l5.4-8.614-9.677-3.7-7.121,11.784,0,0c-1.383,2.524-2.827,5.819-2.827,5.819a.749.749,0,0,0,.518,1.054l19.626,4.9a.868.868,0,0,0,.974-.492l1.273-3A.811.811,0,0,0,454.822,254.02Z" fill="#b80409"/><path d="M469.876,225.463a12.1,12.1,0,0,0-.217-6.959c-.653-2.392-4.675-11.742-4.675-11.742l-.633,6.62c.08-.732.14-1.316.17-1.622.015-.152.023-.236.023-.236a22.134,22.134,0,0,1,1.855,4.654c.983,3.228,1.457,4.207.764,7.13a.88.88,0,0,0-.013.317l-3.036,15.429,2.453.194C467.792,234.14,469.329,227.791,469.876,225.463Z" fill="#900"/><path d="M466.793,239.235l-2.776-.158-2.066,11.768,0,0c-.445,2.764-.684,6.3-.684,6.3a.9.9,0,0,0,.848.946l1.673.094C464.213,255.327,465.745,245.03,466.793,239.235Z" fill="#900"/><path d="M473.4,133.476c1.195,5.388,3.934,6.74,3.934,6.74s.27.886-.4,1.108-1.943.629-1.943.629l.223,4c.148,2.666-.521,3.2-2.372,3.2s-3.329.434-6.772-.269-5.3-4.034-7.073-10.106,7.07-8.035,10.29-8.369S473.4,133.476,473.4,133.476Z" fill="#bb9167"/><path d="M475.081,143.588a28.4,28.4,0,0,1-2.984-.43c-.637-.147-.739-.031.235.733a11.594,11.594,0,0,0,2.86,1.682C475.148,144.785,475.111,144.117,475.081,143.588Z" fill="#f3f3f3"/><circle cx="472.842" cy="138.659" r="0.644"/><path d="M468.056,133.375a43.555,43.555,0,0,0,.566,5.951c.153.805-.7.851-1.888-.2-2.407-2.129-3.972-.566-2.582,1.971a4.475,4.475,0,0,1-1.563,6.322s-6.4-1.905-8.378-7.819,1.9-11.866,6.9-13.533,8.506.9,10.82,1.729a3.111,3.111,0,0,0,3.563-.787,7.289,7.289,0,0,1,.594,5.479c-1.079,3.661-3.026,3.508-4.785,2.953A9.266,9.266,0,0,1,468.056,133.375Z"/><path d="M482.428,257.211l-20.2-1.132a.9.9,0,0,1-.819-.683c-.093,1.037-.142,1.753-.142,1.753a.9.9,0,0,0,.848.946l20.2,1.132a.713.713,0,0,0,.751-.672l.113-2.016A.712.712,0,0,1,482.428,257.211Z" fill="#900"/><path d="M474.008,166.641l-3.017-11.394a9.568,9.568,0,0,1-3.466.538l2.51,10.39A15.424,15.424,0,0,1,474.008,166.641Z" fill="#e81123"/><path d="M454.333,192.7h-2.526c-.588,4.839.468,7.453.468,7.453s-.395,5.161-.509,10.974a35.923,35.923,0,0,1-1.678,11.075l-7.829,13.374,2.132.663c2.317-3.78,5.562-8.96,6.893-10.557A10.967,10.967,0,0,0,454,219.266c.326-2.066,1.087-16.419.761-18.049A37.318,37.318,0,0,1,454.333,192.7Z" fill="#900"/><path d="M461.4,168.105a16.177,16.177,0,0,1,6.518-2.334L465.7,155.613a15.105,15.105,0,0,1-7.254-3.431C458.866,154.444,460.578,163.61,461.4,168.105Z" fill="#e81123"/><path d="M481.945,188.169c2.5-4.567.326-10.438-.217-12.286s-13.265-1.305-13.265-1.305l3.044,14.678Z" fill="#0078d7"/><path d="M481.459,187.625h-8.846c.009-.269.015-.539.015-.809v-10h10.4c-1.246-6.444-6.638-11.726-13.53-11.868-.421-.008-1.353.07-1.558.067-5.988-.075-14.043,6.4-14.043,14.506a14.786,14.786,0,0,0,14.77,14.579h.415l.162-.166h11.218a1.219,1.219,0,0,0,1.18-.914l1-3.869A1.219,1.219,0,0,0,481.459,187.625Z" fill="#fff"/><polygon points="470.741 176.399 470.741 179.103 484.482 178.899 483.236 176.194 470.741 176.399" fill="#99bcd7"/><path d="M469.494,164.946c-.269-.008-.671.03-.875.03a14.6,14.6,0,0,0-14.726,14.543,14.786,14.786,0,0,0,14.77,14.579,1.557,1.557,0,0,0,.831-.211,14.541,14.541,0,0,1,0-28.941Z" fill="#99bcd7"/><path d="M453.682,181.374l8.04,5.6s4.893-.456,6.132-.423,1.327,2.09-1.022,2.489-3.734.526-3.734.526l1.559.942,5.943-.63s-1.378,4.589-3.116,5.142c-1.954.622-5.7,1.62-7.23-.109a12.067,12.067,0,0,1-1.86-2.709l-10.284-6.473Z" fill="#bb9167"/><rect x="455.131" y="183.146" width="3.012" height="8.26" transform="translate(195.965 -231.818) rotate(35.819)" fill="#900"/><path d="M451.211,155.659a208.739,208.739,0,0,0-13.662,17.175c-2.71,3.771-1.041,6.837,1.448,8.521,3.673,2.484,10.909,6.742,14.381,8.663l5.038-6.552c-3.091-2.447-7.087-5.361-10.091-7.421,2.6-3.642,7.235-9.3,9.41-12.267C462.146,157.75,456.505,149.808,451.211,155.659Z" fill="#b80409"/><path d="M440.121,180.377c-3.045-1.957-2.247-4.712-1.232-6.306.94-1.479,11.474-16.848,13-19.082a8.553,8.553,0,0,0-.683.67,208.739,208.739,0,0,0-13.662,17.175c-2.71,3.771-1.6,7.18.905,8.7,6.717,3.963,12.612,7.139,14.924,8.481l1.027-1.336C450.875,186.678,442.5,181.908,440.121,180.377Z" fill="#900"/><circle cx="465.636" cy="180.884" r="3.69" fill="#99bcd7"/><path d="M434.974,252.754c.5-1.007,6.879-12.08,9.805-16.993l-2.194-.839-7.121,11.784,0,0c-1.383,2.524-2.827,5.819-2.827,5.819a.749.749,0,0,0,.518,1.054l1.418.354A7.014,7.014,0,0,1,434.974,252.754Z" fill="#900"/><path d="M454.567,256.084a.949.949,0,0,1-1.053.455l-19.626-4.9a.739.739,0,0,1-.573-.6c-.41.887-.675,1.492-.675,1.492a.748.748,0,0,0,.517,1.054l19.626,4.9a.868.868,0,0,0,.974-.492Z" fill="#900"/><polygon points="472.631 179.108 482.598 178.963 482.851 180.268 472.631 180.413 472.631 179.108" fill="#0078d7"/></svg>