<svg xmlns="http://www.w3.org/2000/svg" xmlns:xlink="http://www.w3.org/1999/xlink" viewBox="0 0 955 270"><defs><clipPath id="a"><rect x="819.35" y="162.629" width="26.95" height="60.965" fill="none"/></clipPath></defs><title>willow-bike-adventure-issue</title><rect width="955" height="270" fill="#e8f1fc"/><polygon points="246.752 244.712 246.752 191.775 235.736 191.775 235.736 184.289 218.781 184.289 218.781 201.79 210.031 201.79 210.031 190.131 188.965 190.131 188.965 201.147 165.138 201.161 165.138 210.67 152.091 210.67 152.091 204.794 146.487 204.794 146.487 197.706 130.129 197.706 130.129 204.794 124.54 204.794 124.54 226.991 105.889 226.991 105.889 217.496 80.343 217.496 80.343 230.357 70.438 230.357 70.438 244.712 246.752 244.712" fill="#b3d6f2"/><polygon points="545.062 239.262 545.062 214.791 531.617 214.791 531.617 200.965 510.36 200.965 510.36 217.854 488.334 217.854 488.334 197.183 473.582 197.183 473.582 189.468 455.623 189.468 455.623 197.183 449.676 197.183 449.676 204.165 438.043 204.165 438.043 193.83 434.295 193.83 427.874 193.83 427.874 239.262 545.062 239.262" fill="#b3d6f2"/><polygon points="752.097 145.442 752.097 221.01 842.64 221.01 752.097 145.442" fill="#79b7e7"/><polygon points="684.09 200.342 752.098 145.442 842.64 221.01 675.003 221.01 684.09 200.342" fill="#a9d1f0"/><polygon points="752.097 145.442 752.097 221.01 842.64 221.01 752.097 145.442" fill="#79b7e7"/><polygon points="607.23 223.909 688.137 171.392 763.887 222.549 607.23 223.909" fill="#a9d1f0"/><polygon points="728.34 223.909 688.137 171.392 763.887 222.549 728.34 223.909" fill="#79b7e7"/><polygon points="767.8 168.623 775.984 165.378 752.097 145.442 725.275 167.095 735.798 164.079 743.205 167.042 756.688 162.893 767.8 168.623" fill="#fff"/><polygon points="752.097 145.442 752.097 164.306 756.688 162.893 767.8 168.623 775.984 165.378 752.097 145.442" fill="#a9d1f0"/><polygon points="694.053 187.515 704.591 182.504 688.137 171.392 664.76 186.566 673.818 184.544 681.324 187.515 688.137 182.71 694.053 187.515" fill="#fff"/><polygon points="704.591 182.504 688.137 171.392 698.765 185.275 704.591 182.504" fill="#a9d1f0"/><polygon points="618.126 192.152 609.881 222.375 626.369 222.375 618.126 192.152" fill="#699142"/><path d="M21.257,248.164H933.692s-22.62-20.621-58.049-21.984c-31.089-1.2-51.509,7.358-51.509,7.358l-633.907.545-27.253,7s-15.807-9.811-33.249-9.811-34.884,10.9-34.884,10.9-11.992-3.271-31.614-4.361S21.257,248.164,21.257,248.164Z" fill="#a1bf45"/><path d="M836.465,234.116c-19.147-18.519-53.327-30.978-92.471-30.978-39,0-73.182,12.459-92.328,30.978h184.8" fill="#72a642"/><path d="M761.553,210.463a9.7,9.7,0,0,1-.323-6.524c-1.464-.156-3.012-.3-4.43-.4a14.843,14.843,0,0,0,.647,8.4c1.37,3.824,5.356,10.883,16.674,15.195l1.552-4.076C765.988,219.364,762.669,213.581,761.553,210.463Z" fill="#5b813a"/><path d="M892.551,238.476c-14.83-14.344-41.305-23.994-71.624-23.994-30.209,0-56.684,9.65-71.513,23.994H892.551" fill="#7fba42"/><polygon points="810.333 205.699 803.538 230.584 817.127 230.584 810.333 205.699" fill="#7fba42"/><polygon points="810.333 205.699 803.538 230.584 817.127 230.584 810.333 205.699" fill="#5b813a"/><g clip-path="url(#a)"><polygon points="832.673 173.958 830.349 223.281 834.996 223.281 832.673 173.958" fill="#72a642"/><polygon points="832.673 173.958 830.349 223.281 834.996 223.281 832.673 173.958" fill="none"/><polygon points="832.673 162.48 819.196 211.647 845.995 211.647 832.673 162.48" fill="#5b813a"/><polygon points="832.673 162.48 819.196 211.647 845.995 211.647 832.673 162.48" fill="none"/><polygon points="832.673 173.958 830.813 211.804 834.377 211.804 832.673 173.958" fill="#72a642"/><polygon points="824.153 200.791 831.124 209.167 832.673 207.77 824.153 200.791" fill="#72a642"/><polygon points="825.701 190.709 831.588 198.154 833.137 196.758 825.701 190.709" fill="#72a642"/><polygon points="827.405 184.505 832.053 190.709 833.137 189.003 827.405 184.505" fill="#72a642"/><polygon points="840.882 197.688 833.911 206.064 832.518 204.668 840.882 197.688" fill="#72a642"/><polygon points="839.489 192.57 833.447 200.015 832.053 198.62 839.489 192.57" fill="#72a642"/><polygon points="835.925 181.868 832.982 186.211 832.673 184.505 835.925 181.868" fill="#72a642"/></g><polygon points="868.309 217.967 862.336 203.716 865.91 203.716 858.04 184.839 861.295 184.839 852.253 163 843.025 184.839 846.387 184.839 838.41 203.716 842.169 203.716 836.197 217.967 868.309 217.967" fill="#699142"/><polygon points="860.188 206.308 854.102 211.219 853.577 200.051 858.342 193.907 853.472 197.815 853.009 187.968 856.497 183.358 852.917 186.017 852.253 171.884 851.54 187.04 851.514 187.059 851.537 187.1 851.419 189.609 846.901 186.134 851.326 191.596 850.915 200.318 845.794 196.128 850.822 202.309 850.534 208.419 844.87 203.532 850.45 210.214 849.484 230.738 855.02 230.738 854.221 213.742 860.188 206.308" fill="#72a642"/><path d="M788.573,218.362c-2.016.509-4.23,1.11-6.445,1.765,6.351,2.513,9.393,4.989,9.393,10.686,0,7.243-7.823,9.176-12.445,9.176H741.648c-10.444,0-15.731,3.881-17.654,8.252h5.132c2.25-2.445,6.681-3.892,12.522-3.892h37.428c8.094,0,16.8-4.236,16.8-13.536C795.881,224.408,792.758,220.817,788.573,218.362Z" fill="#5b813a"/><path d="M666.619,113a15.868,15.868,0,0,0-15.773-16,14.988,14.988,0,0,0-4.725.679,27.609,27.609,0,0,0-53.814-4.5,19.462,19.462,0,0,0-8.1-1.8,18.807,18.807,0,0,0-.221,37.613h66.189v-.221c.221,0,.45.221.671.221A15.868,15.868,0,0,0,666.619,113Z" fill="#fff"/><path d="M713.044,234.116c-14.83-14.344-41.3-23.994-71.624-23.994-30.209,0-56.684,9.65-71.514,23.994H713.044" fill="#7fba42"/><polygon points="463.715 210.702 458.513 229.775 468.916 229.775 463.715 210.702" fill="none"/><polygon points="482.788 206.464 477.393 223.417 488.182 223.417 482.788 206.464" fill="none"/><polygon points="482.788 196.253 480.283 204.537 485.485 204.537 482.788 196.253" fill="none"/><polygon points="734.406 189.972 726.161 220.194 742.649 220.194 734.406 189.972" fill="#5b813a"/><polygon points="165.818 190.717 155.021 230.364 176.437 230.364 165.818 190.717" fill="#5b813a"/><path d="M205.787,241.372a49.74,49.74,0,0,0-84.779,0Z" fill="#7fba42"/><polygon points="148.817 211.214 144.039 228.736 153.596 228.736 148.817 211.214" fill="#72a642"/><polygon points="191.274 228.836 186.629 217.755 189.409 217.755 183.288 203.075 185.82 203.075 178.788 186.092 171.611 203.075 174.226 203.075 168.023 217.755 170.946 217.755 166.302 228.836 191.274 228.836" fill="#699142"/><polygon points="184.958 219.77 180.226 223.589 179.818 214.904 183.523 210.126 179.736 213.165 179.376 205.508 182.088 201.923 179.304 203.991 178.788 193 178.233 204.786 178.213 204.801 178.231 204.833 178.139 206.784 174.626 204.082 178.067 208.329 177.747 215.112 173.765 211.854 177.675 216.661 177.451 221.412 173.047 217.611 177.386 222.807 176.635 238.768 180.94 238.768 180.318 225.551 184.958 219.77" fill="#72a642"/><path d="M878.2,97.7a9.418,9.418,0,0,0-9.363-9.494,8.9,8.9,0,0,0-2.8.4,16.567,16.567,0,0,0-16.3-14.316,16.4,16.4,0,0,0-15.64,11.642,11.566,11.566,0,0,0-4.808-1.067,11.163,11.163,0,0,0-.131,22.325h39.286v-.131c.132,0,.267.131.4.131A9.418,9.418,0,0,0,878.2,97.7Z" fill="#fff"/><path d="M481.123,253.018a2.692,2.692,0,0,1,2.632,2.618,2.633,2.633,0,0,1-2.632,2.617H254.383a2.578,2.578,0,0,1-2.632-2.617,2.633,2.633,0,0,1,2.632-2.618Z" fill="#99bcd7"/><rect x="464.185" y="231.18" width="21.837" height="5.095" fill="#3c3c3c"/><rect x="482.625" y="174.405" width="3.397" height="63.584" fill="#3c3c3c"/><path d="M495.7,173.829c-.422,1.245-.627,2.143-2.015,2.143-1.411,0-1.634-.927-2.037-2.205l-1.906-.009,1.618,3.477h4.61l1.617-3.4Z" fill="#3c3c3c"/><path d="M508.8,173.829c-.422,1.245-.627,2.143-2.015,2.143-1.411,0-1.634-.927-2.037-2.205l-1.906-.009,1.618,3.477h4.61l1.617-3.4Z" fill="#3c3c3c"/><rect x="478.501" y="176.588" width="35.181" height="3.639" fill="#666"/><rect x="273.301" y="203.959" width="181.805" height="33.49" fill="#333"/><path d="M442.238,153.723H357.275c-4.949,0-19.943,15.442-32.171,33.655-12.473,2.066-51.143,5.746-65.166,16.417a139.781,139.781,0,0,0,0,33.655h15.673a23.881,23.881,0,0,1,23.922-23.8c14.023,0,24.746,10.671,24.746,23.8h76.715a23.922,23.922,0,0,1,47.844,0H469.46a46.57,46.57,0,0,0-.825-10.671C467.81,190.661,454.612,153.723,442.238,153.723Z" fill="#69afe5" fill-rule="evenodd"/><path d="M259.746,211.136a76.061,76.061,0,0,0,0,19.137,9.709,9.709,0,0,0,6.379-9.153C266.125,216.128,263.733,212.8,259.746,211.136Z" fill="#fff100" fill-rule="evenodd"/><circle cx="299.897" cy="236.253" r="20.333" fill="#3c3c3c"/><circle cx="299.938" cy="236.215" r="13.608" fill="#fff"/><circle cx="299.938" cy="236.215" r="3.888" fill="#666"/><path d="M301.31,224.551h-2.675a.5.5,0,0,0-.451.7l1.36,2.993a.5.5,0,0,0,.905-.006l1.315-2.992A.5.5,0,0,0,301.31,224.551Z" fill="#a6a6a6"/><path d="M298.635,248.852h2.675a.5.5,0,0,0,.452-.7l-1.361-2.992a.5.5,0,0,0-.905.006l-1.315,2.992A.5.5,0,0,0,298.635,248.852Z" fill="#a6a6a6"/><path d="M312.574,237.911v-2.675a.5.5,0,0,0-.7-.451l-2.993,1.36a.5.5,0,0,0,.006.905l2.992,1.315A.5.5,0,0,0,312.574,237.911Z" fill="#a6a6a6"/><path d="M288.273,235.236v2.675a.5.5,0,0,0,.7.451l2.992-1.36a.5.5,0,0,0-.006-.905l-2.992-1.315A.5.5,0,0,0,288.273,235.236Z" fill="#a6a6a6"/><path d="M309.508,228.93l-1.891-1.892a.5.5,0,0,0-.815.177l-1.155,3.077a.5.5,0,0,0,.645.637l3.045-1.187A.5.5,0,0,0,309.508,228.93Z" fill="#a6a6a6"/><path d="M290.437,244.217l1.892,1.892a.5.5,0,0,0,.815-.177l1.154-3.077a.5.5,0,0,0-.644-.637l-3.046,1.187A.5.5,0,0,0,290.437,244.217Z" fill="#a6a6a6"/><path d="M307.455,245.866l1.891-1.892a.5.5,0,0,0-.177-.815l-3.077-1.154a.5.5,0,0,0-.636.645l1.186,3.045A.5.5,0,0,0,307.455,245.866Z" fill="#a6a6a6"/><path d="M292.167,226.8l-1.892,1.892a.5.5,0,0,0,.177.815l3.077,1.154a.5.5,0,0,0,.637-.645l-1.186-3.045A.5.5,0,0,0,292.167,226.8Z" fill="#a6a6a6"/><circle cx="424.543" cy="236.253" r="20.333" fill="#3c3c3c"/><circle cx="424.584" cy="236.215" r="13.608" fill="#fff"/><circle cx="424.584" cy="236.215" r="3.888" fill="#666"/><path d="M425.957,224.551h-2.675a.5.5,0,0,0-.452.7l1.36,2.993a.5.5,0,0,0,.906-.006l1.315-2.992A.5.5,0,0,0,425.957,224.551Z" fill="#a6a6a6"/><path d="M423.282,248.852h2.675a.5.5,0,0,0,.451-.7l-1.36-2.992a.5.5,0,0,0-.906.006l-1.314,2.992A.5.5,0,0,0,423.282,248.852Z" fill="#a6a6a6"/><path d="M437.22,237.911v-2.675a.5.5,0,0,0-.7-.451l-2.992,1.36a.5.5,0,0,0,.006.905l2.992,1.315A.5.5,0,0,0,437.22,237.911Z" fill="#a6a6a6"/><path d="M412.92,235.236v2.675a.5.5,0,0,0,.7.451l2.992-1.36a.5.5,0,0,0,0-.905l-2.993-1.315A.5.5,0,0,0,412.92,235.236Z" fill="#a6a6a6"/><path d="M434.154,228.93l-1.891-1.892a.5.5,0,0,0-.815.177l-1.154,3.077a.5.5,0,0,0,.644.637l3.046-1.187A.5.5,0,0,0,434.154,228.93Z" fill="#a6a6a6"/><path d="M415.084,244.217l1.891,1.892a.5.5,0,0,0,.815-.177l1.154-3.077a.5.5,0,0,0-.644-.637l-3.045,1.187A.5.5,0,0,0,415.084,244.217Z" fill="#a6a6a6"/><path d="M432.1,245.866l1.891-1.892a.5.5,0,0,0-.176-.815l-3.078-1.154a.5.5,0,0,0-.636.645l1.186,3.045A.5.5,0,0,0,432.1,245.866Z" fill="#a6a6a6"/><path d="M416.813,226.8l-1.891,1.892a.5.5,0,0,0,.176.815l3.078,1.154a.5.5,0,0,0,.636-.645l-1.186-3.045A.5.5,0,0,0,416.813,226.8Z" fill="#a6a6a6"/><path d="M354.709,158.645h-5.942s-15,14.621-23.663,28.733c6.129-.068,13.905,0,13.905,0l16.645-27.041A1.11,1.11,0,0,0,354.709,158.645Z" fill="#fff" fill-rule="evenodd"/><path d="M401.955,186.961h44.264a2.327,2.327,0,0,0,2.223-3.033,101.547,101.547,0,0,0-11.479-24.285A2.6,2.6,0,0,0,434.8,158.5h-34.71a1.28,1.28,0,0,0-1.279,1.332l1.01,25.08A2.139,2.139,0,0,0,401.955,186.961Z" fill="#fff" fill-rule="evenodd"/><path d="M391.8,158.5H362.25a1.928,1.928,0,0,0-1.658.944l-16.323,27.521h47.792a2.23,2.23,0,0,0,2.228-2.32l-1-24.706A1.5,1.5,0,0,0,391.8,158.5Z" fill="#fff" fill-rule="evenodd"/><path d="M399.264,171.148l.557,13.818a2.078,2.078,0,0,0,2.076,2h40.971a1.969,1.969,0,0,0,1.885-2.557,108.174,108.174,0,0,0-5.195-13.256Z" fill="#b3d6f2" fill-rule="evenodd"/><path d="M353.648,171.148l-9.379,15.813h48.1a1.938,1.938,0,0,0,1.936-2.016l-.556-13.8Z" fill="#b3d6f2" fill-rule="evenodd"/><path d="M337.194,171.148a134.684,134.684,0,0,0-12.089,16.23c6.128-.068,13.9,0,13.9,0l9.99-16.23Z" fill="#b3d6f2" fill-rule="evenodd"/><path d="M441.106,186.961H452.79a1.733,1.733,0,0,0,1.66-2.247,101.667,101.667,0,0,0-11.883-25.3,2.087,2.087,0,0,0-1.729-.914h-9.8A203.084,203.084,0,0,1,441.106,186.961Z" fill="#005a93" fill-rule="evenodd"/><path d="M259.938,203.8h5.617a1.887,1.887,0,0,1,1.887,1.887v31.469h-9.754C255.047,220.488,259.938,203.8,259.938,203.8Z" fill="#11334b"/><path d="M257.3,218.658h4.311a2.176,2.176,0,0,0,2.176-2.176v-7.026a2.176,2.176,0,0,0-2.176-2.176h-2.532A95.464,95.464,0,0,0,257.3,218.658Z" fill="#ecf5bd"/><rect x="270.663" y="211.4" width="4.46" height="9.034" rx="0.86" ry="0.86" fill="#ec6401"/><path d="M279.8,224.041a2.538,2.538,0,0,0-1.435-.443h-22.8a2.551,2.551,0,0,0-2.551,2.551v8.926a2.551,2.551,0,0,0,2.551,2.551h20.071A24.5,24.5,0,0,1,279.8,224.041Z" fill="#235a89"/><path d="M405.693,223.293H319.527a23.3,23.3,0,0,1,4.753,14.157h76.714A23.606,23.606,0,0,1,405.693,223.293Z" fill="#235a89" fill-rule="evenodd"/><path d="M469.873,217.423h-6.184a3.617,3.617,0,0,0-3.617,3.617v2.253H444.139a23.606,23.606,0,0,1,4.7,14.157H469.46V237.4h.413a3.617,3.617,0,0,0,3.617-3.617V221.04A3.617,3.617,0,0,0,469.873,217.423Z" fill="#235a89" fill-rule="evenodd"/><path d="M462.326,192.472a2.254,2.254,0,0,0-2.254,2.253v15.946a2.254,2.254,0,0,0,2.254,2.254h5.408a173.774,173.774,0,0,0-3.4-20.453Z" fill="#11334b" fill-rule="evenodd"/><path d="M464.932,195.276h-2.42v14.752h4.871C466.762,204.968,465.934,200.021,464.932,195.276Z" fill="#a80000" fill-rule="evenodd"/><path d="M347.459,182.431h-4.711c-5.889,0-10.6,2.657-10.6,5.979s4.711,5.98,10.6,5.98h4.711Z" fill="#005a93" fill-rule="evenodd"/><rect x="382.311" y="192.951" width="12.198" height="4.574" rx="1.222" ry="1.222" fill="#ecf5bd"/><path d="M601.714,233.811c-9.84-7.376-23.861-12.033-39.365-12.033-15.656,0-29.586,4.657-39.481,12.033Z" fill="#72a642"/><path d="M741.2,253.451a2.468,2.468,0,0,1,2.414,2.4,2.414,2.414,0,0,1-2.414,2.4H527.2a2.364,2.364,0,0,1-2.415-2.4,2.414,2.414,0,0,1,2.415-2.4Z" fill="#99bcd7"/><path d="M560.858,228.732c0-1.484-5.822.959-5.864,1.663,0,0,.9,11.365,1.084,16.488-.017.287,4.681,2.4,4.751,2.4C560.829,249.287,560.856,230.829,560.858,228.732Z" fill="#8e562e"/><polygon points="561.047 232.865 560.996 233.713 555.115 233.856 555.036 232.436 561.047 232.865" fill="#75411d"/><path d="M555.108,250.486a5.48,5.48,0,0,0-5.317,4.545.48.48,0,0,0,.479.566l4.972-.136,5.74-.221-.238-4.992Z" fill="#5c2d91"/><polygon points="555.911 244.208 556.276 250.383 560.744 250.248 560.699 244.104 555.911 244.208" fill="#ecf5bd"/><path d="M561.989,228.828c-.047-1.484,5.848.78,5.911,1.482,0,0-.551,11.387-.578,16.514.026.286-4.605,2.542-4.676,2.548C562.646,249.372,562.055,230.924,561.989,228.828Z" fill="#8e562e"/><polygon points="561.981 232.801 562.057 233.648 567.94 233.61 567.976 232.189 561.981 232.801" fill="#75411d"/><path d="M568.4,250.4a5.478,5.478,0,0,1,5.454,4.379.48.48,0,0,1-.462.581l-4.973.016-5.744-.045.085-5Z" fill="#5c2d91"/><polygon points="567.407 244.145 567.23 250.328 562.761 250.33 562.617 244.187 567.407 244.145" fill="#ecf5bd"/><path d="M548.462,203.758h-.071a2.473,2.473,0,0,1-2.479-2.537,58.875,58.875,0,0,1,1.131-10.293c.141-.7.282-1.484.422-2.327a2.515,2.515,0,0,1,4.959.843c-.141.851-.281,1.694-.422,2.468a51.193,51.193,0,0,0-1.061,9.378A2.459,2.459,0,0,1,548.462,203.758Z" fill="#8e562e"/><path d="M573.6,203.617a2.507,2.507,0,0,1-2.477-2.467,52.869,52.869,0,0,0-1.063-9.448c-.14-.774-.28-1.548-.421-2.4a2.512,2.512,0,0,1,4.952-.844c.148.844.288,1.553.429,2.328a58.275,58.275,0,0,1,1.131,10.221,2.579,2.579,0,0,1-2.479,2.608Z" fill="#8e562e"/><path d="M561.038,232.874c.07-7.543,2.113-21.019-.156-27.5-6.588,1.618-5.768,1.486-5.768,1.486l-2.4,6.418c.076,7.22,1,19.742,1,19.742Z" fill="#004578"/><polygon points="569.018 232.657 569.78 214.122 566.732 207.991 560.757 214.311 562.32 232.811 569.018 232.657" fill="#004578"/><rect x="557.951" y="187.189" width="5.451" height="16.922" fill="#e81123"/><polygon points="570.842 190.788 561.28 187.048 563.543 181.338 573.109 185.149 570.842 190.788" fill="#8867c8"/><path d="M570.558,196.285c-.145-1.195-.567-3.03-.919-4.654-.287-1.265-.569-2.327-.709-3.171l6.018-.983c.141.631.353,1.686.641,2.748a44.492,44.492,0,0,1,1.06,5.358Z" fill="#8867c8"/><path d="M569.422,187.188a3.083,3.083,0,0,0,2.2,3.74,2.672,2.672,0,0,0,3.327-2.187,3.073,3.073,0,0,0-2.2-3.732A2.672,2.672,0,0,0,569.422,187.188Z" fill="#8867c8"/><polygon points="551.791 190.647 549.523 185.009 559.083 181.197 561.351 186.907 551.791 190.647" fill="#8867c8"/><polygon points="561.21 215.394 570.982 215.394 568.291 204.32 569.851 193.818 571.761 186.907 561.421 184.861 561.21 215.394" fill="#8867c8"/><polygon points="565.389 215.394 551.574 215.394 554.265 204.32 552.711 193.818 550.795 186.907 561.14 184.861 565.389 215.394" fill="#8867c8"/><path d="M552,196.285l-6.09-.7c.211-1.553.7-3.6,1.131-5.429.282-1.131.5-2.187.639-2.825l6.02.991c-.141.843-.428,1.905-.709,3.17C552.641,193.184,552.143,195.09,552,196.285Z" fill="#8867c8"/><path d="M553.2,187.048a3.077,3.077,0,0,1-2.193,3.74,2.674,2.674,0,0,1-3.329-2.187,3.079,3.079,0,0,1,2.192-3.74A2.678,2.678,0,0,1,553.2,187.048Z" fill="#8867c8"/><path d="M557.594,176.826l-.071,4.652-2.971,1.554s4.888,6.624,6.658,6.624,6.3-6.693,6.3-6.693l-3.118-1.413-.07-4.724Z" fill="#8e562e"/><polygon points="568.572 205.383 554.054 205.102 554.265 204.32 553.983 202.774 568.502 202.984 568.291 204.32 568.572 205.383" fill="#b4a0ff"/><path d="M558.092,180.635l.07.843Z" fill="#b8977c"/><polygon points="570.842 196.848 575.939 196.848 575.799 195.723 570.77 196.285 570.842 196.848" fill="#75411d"/><polygon points="551.293 196.214 551.222 196.638 546.193 196.848 546.264 195.652 551.293 196.214" fill="#75411d"/><rect x="558.411" y="177.171" width="4.861" height="5.783" transform="translate(141.762 593.993) rotate(-62.446)" fill="#8e562e"/><path d="M564.707,163.871a6.786,6.786,0,0,0-2.631-.572,6.642,6.642,0,0,0-6.636,6.639v3.205a10.575,10.575,0,0,0,9.267-9.272" fill="#352e2a"/><path d="M565.565,180.526h-8.782a12.545,12.545,0,0,1-1.229-.744V169.6H568.6v7.356H567.02v2.135A1.39,1.39,0,0,1,565.565,180.526Z" fill="#8e562e"/><path d="M557.729,172.228H568.6v3.319H557.729a.782.782,0,0,1-.8-.8v-1.717A.782.782,0,0,1,557.729,172.228Z" fill="#75411d"/><path d="M562.749,172.17c2.664,9.122-2.675,12.371-2.675,12.371l-4.584.278s-4.563-2.976.327-13.1C557.414,168.415,562.749,172.17,562.749,172.17Z" fill="#352e2a"/><circle cx="544.358" cy="237.748" r="5.826" fill="#fff"/><path d="M571.107,243.5a1.247,1.247,0,0,0,1.2-.666l3.6-9.193a1.079,1.079,0,0,0-.666-1.466,1.1,1.1,0,0,0-1.332.666l-3.6,9.194a.937.937,0,0,0,.533,1.332.413.413,0,0,0,.267.133" fill="#666"/><path d="M572.039,233.91h5.194a.979.979,0,0,0,1.065-1.065,1.051,1.051,0,0,0-1.065-1.067h-5.194a1.051,1.051,0,0,0-1.065,1.067.979.979,0,0,0,1.065,1.065" fill="#666"/><path d="M586.288,237.774a18.911,18.911,0,1,1,18.911,18.92,18.9,18.9,0,0,1-18.911-18.92m2.93,0A15.981,15.981,0,1,0,605.2,221.786a16.032,16.032,0,0,0-15.981,15.988" fill="#3c3c3c"/><path d="M525.561,237.774a18.911,18.911,0,1,1,18.911,18.92,18.9,18.9,0,0,1-18.911-18.92m2.93,0a15.981,15.981,0,1,0,15.981-15.988,16.032,16.032,0,0,0-15.981,15.988" fill="#3c3c3c"/><path d="M605.2,235.776c-.266,0-.4,0-.533.133-1.731-1.466-4.661-4.4-5.86-7.195-.8-2-2.663-6.928-4.261-11.725l-1.2-3.331c-1.065-3.2-2-5.995-2.4-6.928l1.333-2.931a1.019,1.019,0,0,0-.267-1.2l-2.265-2.4a1.886,1.886,0,0,0-.8-.266h-7.058A1.05,1.05,0,0,0,580.829,201a.98.98,0,0,0,1.065,1.066h6.658l1.465,1.465-1.2,2.665a.85.85,0,0,0,0,.8c0,.267.931,2.8,2,6.129h-27.3l-.533-1.865a1.1,1.1,0,0,0-1.332-.667,1.07,1.07,0,0,0-.8,1.333l.666,2.131-16.913,21.718h-.133a2.049,2.049,0,0,0-2,2c0,.134.132.4.132.533l.134.266a1.783,1.783,0,0,0,1.731,1.067,1.547,1.547,0,0,0,1.332-.533l25.569,4.8,21.707-24.248c1.465,4.129,2.93,8.127,3.729,9.992,1.332,3.2,4.661,6.262,6.393,7.861v.266a1.935,1.935,0,0,0,2,1.866,1.821,1.821,0,0,0,1.864-1.866,1.935,1.935,0,0,0-1.864-2m-58.73,1.2,15.848-20.252,7.192,24.648Zm25.037,3.6-7.324-25.181h27.433c.267.666.4,1.2.667,1.865Z" fill="#ec6401"/><path d="M566.446,242.7a4.492,4.492,0,0,0,4.528,4.53,4.532,4.532,0,1,0,0-9.06,4.491,4.491,0,0,0-4.528,4.53" fill="#fff"/><path d="M567.911,251.364a1.013,1.013,0,0,0,1.2-.666l3.063-8.394a1.121,1.121,0,0,0-.533-1.466,1.34,1.34,0,0,0-1.465.667l-3.195,8.393a1.338,1.338,0,0,0,.665,1.466Z" fill="#666"/><path d="M587.221,201a.981.981,0,0,1-1.066,1.067H581.76A.981.981,0,0,1,580.7,201a1.052,1.052,0,0,1,1.065-1.066h4.395A1.052,1.052,0,0,1,587.221,201" fill="#3c3c3c"/><path d="M596.143,203.4a3.265,3.265,0,1,0,0,6.528Z" fill="#fff"/><polygon points="571.639 236.042 570.175 243.637 563.649 242.304 564.981 234.709 571.639 236.042" fill="none"/><path d="M564.848,251.231l5.06,1.066a1.1,1.1,0,0,0,1.332-.933.982.982,0,0,0-.932-1.2l-5.061-1.066a1.18,1.18,0,0,0-1.331.8,1.1,1.1,0,0,0,.932,1.333" fill="#666"/><path d="M570.174,207.263c-1.6,2.932-6.924,4.8-10.52,4.8-3.463,0-6.126-2.4-6.126-4.8Z" fill="#3c3c3c"/><path d="M566.09,204.89a1.323,1.323,0,0,0-1.573-.786c-.356.057-2.884.786-2.884.786s-2.574.91-2.08,1.623c-.281.232-.361.441-.105.591a5.02,5.02,0,0,0,2.739.874c1.252,0,3.35-.058,4.486,0,.7.036,1.038-.23.834-.636C567.013,206.513,566.366,205.349,566.09,204.89Z" fill="#8e562e"/><path d="M587.95,213.447a.284.284,0,0,0,.243-.43c-.556-.92-1.9-3.008-2.622-3.069a13.884,13.884,0,0,0-2.963.455l-6.9-10.165a2.453,2.453,0,0,0-3.2-.885,2.292,2.292,0,0,0-.956,3.086c.009.066.08.057.089.125,0,0,7.558,9.606,8.179,10.3a1.948,1.948,0,0,0,1.387.61l.01.016Z" fill="#8e562e"/><path d="M549.321,199.363s.2.1.543.263a3.258,3.258,0,0,1,.588.311,7.316,7.316,0,0,1,.793.314c1.234.581,2.819,1.216,4.5,1.849,1.585.634,3.218,1.217,4.509,1.645s2.132.7,2.132.7a1.8,1.8,0,0,1,1.138,2.324,1.753,1.753,0,0,1-2.185,1.2h0s-.889-.219-2.18-.545c-1.393-.331-3.127-.817-4.814-1.355-1.785-.539-3.518-1.125-4.758-1.6a4.579,4.579,0,0,0-.887-.32,4.279,4.279,0,0,1-.695-.312,3.4,3.4,0,0,1-.6-.216,2.262,2.262,0,0,1-1.272-2.974,2.305,2.305,0,0,1,3.036-1.334A.248.248,0,0,1,549.321,199.363Z" fill="#8e562e"/><path d="M559.551,161.768a6.4,6.4,0,0,0-4.857,7.651l.5,2.235,12.395-2.767-.5-2.235a6.3,6.3,0,0,0-7.538-4.884" fill="#b4a0ff"/><rect x="554.754" y="168.013" width="12.7" height="1.946" transform="translate(-23.339 126.322) rotate(-12.585)" fill="#8867c8"/><path d="M549.646,172.54a17.324,17.324,0,0,0,12.724,1.853,17.036,17.036,0,0,0,10.615-7.063Z" fill="#b4a0ff"/><polygon points="699.849 231.415 705.629 252.499 712.132 253.288 710.37 245.743 708.811 232.959 699.849 231.415" fill="#bb9167"/><path d="M700.95,249.065a6.907,6.907,0,0,0-5.608,6.578.775.775,0,0,0,.929.772l5.926-1.207,6.165-1.326a.921.921,0,0,0,.705-1.1l-1.177-5.235Z" fill="#3c3c3c"/><polygon points="702.627 241.325 704.259 248.877 710.827 247.625 709.411 239.962 702.627 241.325" fill="#fff"/><path d="M700.039,229.292c.32-2.252,1.908-4.041,4.158-3.722l7.41,1.178-1.148,8.076-6.881-.978a4.053,4.053,0,0,1-3.539-4.554" fill="#bb9167"/><path d="M729.3,229.387l-.584,4.1a4.053,4.053,0,0,1-4.667,3.389l-14.028-1.994,1.148-8.077Z" fill="#3c3c3c"/><path d="M707.278,256.019c3.563-1.125,22.5-7.062,22.5-7.062l-2.25-6.313-7.5,2.116-13.393,2.715S703.716,257.144,707.278,256.019Z" fill="#bb9167"/><circle cx="615.778" cy="237.082" r="5.539" fill="#fff"/><path d="M711.968,208.575a2.677,2.677,0,0,0-3.4,1.894L703.952,227.4a2.765,2.765,0,0,0-.041,1.139c-.189.015-.307.026-.307.026l-7.162,3.564a.466.466,0,0,0-.335-.083l-3.866.594a.68.68,0,0,0-.533.7.541.541,0,0,0,.324.5.518.518,0,0,0,.114.012l-.508.07a.675.675,0,0,0-.541.688.541.541,0,0,0,.323.51.467.467,0,0,0,.242.027l.256-.035a.689.689,0,0,0-.4.636.543.543,0,0,0,.323.51.467.467,0,0,0,.242.027l.45-.062a.722.722,0,0,0-.131.441.535.535,0,0,0,.323.489.481.481,0,0,0,.26.025l2.5-.432a5.728,5.728,0,0,0,2.577-.489c.739-.309,8.37-3.47,9.4-4.024.964-.517,1.16-1.294,1.6-3.2l4.891-17.147A2.639,2.639,0,0,0,711.968,208.575Z" fill="#a07657"/><polygon points="711.32 221.34 706.024 219.83 708.653 210.019 712.828 216.989 711.32 221.34" fill="#e24f01"/><path d="M642.713,242.777a1.254,1.254,0,0,0,1.2-.668l3.61-9.228a1.083,1.083,0,0,0-.669-1.471,1.1,1.1,0,0,0-1.337.668l-3.609,9.228a.94.94,0,0,0,.535,1.337.412.412,0,0,0,.267.134" fill="#666"/><path d="M643.649,233.148h5.213a.984.984,0,0,0,1.069-1.07,1.055,1.055,0,0,0-1.069-1.07h-5.213a1.055,1.055,0,0,0-1.07,1.07.984.984,0,0,0,1.07,1.07" fill="#666"/><path d="M657.952,237.026a18.982,18.982,0,1,1,18.981,18.991,18.973,18.973,0,0,1-18.981-18.991m2.94,0a16.041,16.041,0,1,0,16.041-16.048,16.093,16.093,0,0,0-16.041,16.048" fill="#3c3c3c"/><path d="M597,237.026a18.982,18.982,0,1,1,18.982,18.991A18.973,18.973,0,0,1,597,237.026m2.941,0a16.041,16.041,0,1,0,16.041-16.048,16.092,16.092,0,0,0-16.041,16.048" fill="#3c3c3c"/><path d="M676.933,235.02c-.267,0-.4,0-.535.134-1.737-1.471-4.678-4.413-5.881-7.222-.8-2.006-2.673-6.954-4.277-11.769l-1.2-3.343c-1.069-3.21-2-6.018-2.406-6.954l1.337-2.943a1.022,1.022,0,0,0-.267-1.2l-2.273-2.408a1.906,1.906,0,0,0-.8-.266H653.54a1.054,1.054,0,0,0-1.069,1.07.984.984,0,0,0,1.069,1.069h6.684l1.471,1.471-1.2,2.675a.85.85,0,0,0,0,.8c0,.268.935,2.809,2,6.152h-27.4l-.534-1.872a1.1,1.1,0,0,0-1.337-.669,1.074,1.074,0,0,0-.8,1.337l.668,2.14-16.976,21.8h-.134a2.056,2.056,0,0,0-2,2.006c0,.134.133.4.133.535l.134.268a1.793,1.793,0,0,0,1.738,1.07,1.552,1.552,0,0,0,1.337-.535l25.665,4.814,21.789-24.339c1.471,4.145,2.941,8.158,3.743,10.029,1.337,3.21,4.679,6.286,6.417,7.891v.267a1.942,1.942,0,0,0,2,1.873,1.828,1.828,0,0,0,1.872-1.873,1.943,1.943,0,0,0-1.872-2.006m-58.95,1.2L633.89,215.9l7.219,24.741Zm25.131,3.611-7.352-25.276H663.3c.267.668.4,1.2.668,1.872Z" fill="#8867c8"/><path d="M641.777,206.4c-1.6,2.942-6.951,4.814-10.56,4.814-3.476,0-6.149-2.407-6.149-4.814Z" fill="#3c3c3c"/><path d="M638.034,241.975a4.508,4.508,0,0,0,4.545,4.547,4.549,4.549,0,1,0,0-9.095,4.509,4.509,0,0,0-4.545,4.548" fill="#fff"/><path d="M639.505,250.668a1.018,1.018,0,0,0,1.2-.669l3.074-8.425a1.125,1.125,0,0,0-.535-1.472,1.344,1.344,0,0,0-1.47.669l-3.208,8.425a1.345,1.345,0,0,0,.668,1.472Z" fill="#666"/><path d="M658.888,200.115a.984.984,0,0,1-1.07,1.07h-4.411a.985.985,0,0,1-1.07-1.07,1.056,1.056,0,0,1,1.07-1.07h4.411a1.055,1.055,0,0,1,1.07,1.07" fill="#3c3c3c"/><path d="M667.844,202.522a3.278,3.278,0,1,0,0,6.554Z" fill="#fff"/><path d="M703.054,254.9a4.487,4.487,0,0,1-.223-6.351l8.4-8.874,6.557,6.258-8.55,8.994a4.564,4.564,0,0,1-6.185-.027" fill="#bb9167"/><path d="M707.767,243.287l13.511-16.705,10.25-.25a7.887,7.887,0,0,1-1.125,7.75l-15.6,14.8Z" fill="#666"/><rect x="707.096" y="202.557" width="6.683" height="5.617" transform="translate(26.817 487.43) rotate(-38.544)" fill="#a07657"/><path d="M711.063,206.184c-5.542,4.415-1.295,11.462,1.955,15.542l6.507,6.789,13.253-2.371-19.1-22.042Z" fill="#ec6401"/><path d="M730.921,248.969A6.905,6.905,0,0,0,738,253.928a.776.776,0,0,0,.681-1l-1.763-5.785-1.9-6.012a.921.921,0,0,0-1.164-.6l-5.1,1.668Z" fill="#3c3c3c"/><polygon points="723.341 251.019 730.704 248.678 728.835 242.259 721.341 244.394 723.341 251.019" fill="#fff"/><polygon points="643.247 235.288 641.777 242.911 635.227 241.574 636.564 233.95 643.247 235.288" fill="none"/><path d="M636.43,250.534l5.08,1.069a1.1,1.1,0,0,0,1.336-.935.985.985,0,0,0-.935-1.2l-5.08-1.07a1.183,1.183,0,0,0-1.336.8,1.1,1.1,0,0,0,.935,1.338" fill="#666"/><path d="M714.776,192.5a8.533,8.533,0,0,0-11.666-3.079l-6.807,3.909s1.586,7.177,1.6,7.411a2.827,2.827,0,0,1-.7,2.572l.887,1.543,1.724-.99,3.076,5.356,8.8-5.055.091-.053a8.511,8.511,0,0,0,2.987-11.614" fill="#bb9167"/><path d="M707.131,199.785l-3.648-6.354-6.354,3.648c-.484-1.9-.826-3.751-.826-3.751l6.808-3.909a8.532,8.532,0,0,1,11.665,3.079,8.71,8.71,0,0,1-.227,9.064Z" fill="#282828"/><path d="M704.681,195.518l2.45,4.267a2.394,2.394,0,0,0,.837-3.377,2.368,2.368,0,0,0-3.287-.89" fill="#bb9167"/><rect x="702.962" y="193.569" width="2.512" height="7.328" transform="translate(-4.692 376.872) rotate(-29.866)" fill="#282828"/><path d="M696.718,197.344l14.559-8.361s-4.3-5.712-10.371-2.714C693.7,189.828,696.718,197.344,696.718,197.344Z" fill="#ec6401"/><path d="M699.543,195.721l-3.8,2.184s-3.114-2.4-3.178-3.521S699.543,195.721,699.543,195.721Z" fill="#e24f01"/><path d="M710.028,216.769l-2.187,7.75-10.438.938-2.767-.714a.553.553,0,0,0-.54.006l-4,2.325a.806.806,0,0,0-.287,1,.639.639,0,0,0,.573.412.6.6,0,0,0,.132-.036l-.53.3a.8.8,0,0,0-.3.992.638.638,0,0,0,.576.422.559.559,0,0,0,.277-.074l.268-.151a.817.817,0,0,0-.161.873.638.638,0,0,0,.576.421.555.555,0,0,0,.278-.074l.469-.263a.839.839,0,0,0,.046.542.634.634,0,0,0,.567.4.574.574,0,0,0,.3-.085l2.241-1.359c.252.035.479.063.627.069a6.106,6.106,0,0,0,1.812-.344s10.251-.419,11.563-.469c1.656-.062,3.738-.524,4.406-3.062.938-3.563,2.25-9.5,2.25-9.5Z" fill="#bb9167"/><path d="M699.175,231.516s-2.962-.455-3.806-.582a1.93,1.93,0,0,0-1.231.338,12.332,12.332,0,0,0-1.441,1.513s.587.969,1.4.392a9.306,9.306,0,0,0,.97-.774l2.637.224Z" fill="#a07657"/><path d="M717.777,210.332a3.615,3.615,0,0,0-7.2-.446L709,216.925l6.719,1.875s1.187-5.031,1.906-7.468v-.008A3.577,3.577,0,0,0,717.777,210.332Z" fill="#e24f01"/></svg>