<svg xmlns="http://www.w3.org/2000/svg" viewBox="0 0 200 150"><title>wizard-upgrade-from-xml-to-inheritance</title><path d="M200,150H0V0H200Z" fill="#f6f6f6" opacity="0"/><polygon points="29.93 100 24.93 95 10 95 10 148 74 148 74 100 29.93 100" fill="#737373"/><path d="M45.216,121.107a1.185,1.185,0,0,0,.657,1.209l2.285.988a1.274,1.274,0,0,0,1.469-.738l1.424-2.7a1.767,1.767,0,0,1,1.905-1.156c.515-.159,1.111-.062,1.627-.222a2.14,2.14,0,0,1,1.771,1.148l1.731,2.854a1.446,1.446,0,0,0,1.272.453l2.5-1.057a1.322,1.322,0,0,0,.375-1.53l-.958-3.092a1.553,1.553,0,0,1,.55-1.867l-.079-.259a2.07,2.07,0,0,0,1.132-.914A1.682,1.682,0,0,1,65.2,113.5l2.8.825a1.509,1.509,0,0,0,1.467-.737l.91-2.543a.938.938,0,0,0-.658-1.208l-2.7-1.425a1.82,1.82,0,0,1-1.155-1.9c-.16-.516-.061-1.112-.221-1.627a3.056,3.056,0,0,1,1.067-2.026l2.679-1.395a1.379,1.379,0,0,0,.633-1.61L68.785,97.7a1.162,1.162,0,0,0-1.352-.711L64.417,98.2a1.947,1.947,0,0,1-2.125-.47,5.879,5.879,0,0,0-1.175-1.05l-.08-.259a2.01,2.01,0,0,1-.638-2.062l1.009-3.138a1.183,1.183,0,0,0-.658-1.208l-2.545-.908A.939.939,0,0,0,57,89.766l-1.685,2.781c-.533,1.013-1.049,1.173-1.646,1.075-.516.161-1.111.063-1.628.223a2.008,2.008,0,0,1-2.027-1.067l-1.474-2.934a1.487,1.487,0,0,0-1.529-.375l-2.5,1.058a1.687,1.687,0,0,0-.372,1.53l.958,3.092c.32,1.032.222,1.628-.553,1.868-.178.338-.615.755-.971,1.431a1.7,1.7,0,0,1-2.143.381l-3.059-.747a1.19,1.19,0,0,0-1.211.657l-.908,2.542a1.216,1.216,0,0,0,.4,1.29l2.961,1.343c1.013.534,1.171,1.048,1.075,1.643a17.4,17.4,0,0,1,.043,1.965,1.715,1.715,0,0,1-.812,1.948l-2.936,1.475a1.48,1.48,0,0,0-.374,1.527l.977,2.241a1.162,1.162,0,0,0,1.352.712l3.016-1.217a1.944,1.944,0,0,1,2.126.47q.624.654,1.254,1.308c.675.356.835.872.639,2.062l-.751,3.059m14.2-12.592a6.715,6.715,0,0,1-8.453,3.75,6.235,6.235,0,0,1-3.748-8.447,6.411,6.411,0,0,1,8.194-3.668,6.494,6.494,0,0,1,4.007,8.365" fill="#ffb900"/><path d="M19.247,122.713a.724.724,0,0,0,.4.74l1.4.605a.779.779,0,0,0,.9-.452l.872-1.654a1.081,1.081,0,0,1,1.166-.707c.315-.1.68-.038,1-.136a1.311,1.311,0,0,1,1.084.7l1.059,1.748a.885.885,0,0,0,.779.277l1.53-.647a.808.808,0,0,0,.23-.936l-.587-1.893a.951.951,0,0,1,.337-1.143l-.048-.158a1.273,1.273,0,0,0,.693-.56,1.028,1.028,0,0,1,1.42-.44l1.716.5a.925.925,0,0,0,.9-.451l.557-1.557a.573.573,0,0,0-.4-.739l-1.655-.872a1.116,1.116,0,0,1-.707-1.165c-.1-.315-.038-.68-.135-1a1.87,1.87,0,0,1,.653-1.241l1.64-.853a.845.845,0,0,0,.387-.986l-.756-1.322a.712.712,0,0,0-.827-.436L31,108.693a1.2,1.2,0,0,1-1.3-.288,3.587,3.587,0,0,0-.718-.643l-.049-.158a1.23,1.23,0,0,1-.391-1.263l.617-1.92a.724.724,0,0,0-.4-.74l-1.558-.556a.575.575,0,0,0-.74.4l-1.032,1.7c-.326.619-.642.718-1.007.658-.316.1-.68.038-1,.136a1.227,1.227,0,0,1-1.24-.653l-.9-1.8a.91.91,0,0,0-.935-.23l-1.532.648a1.03,1.03,0,0,0-.228.936l.586,1.893c.2.632.136,1-.338,1.143-.109.207-.377.463-.6.877a1.038,1.038,0,0,1-1.311.233l-1.873-.458a.729.729,0,0,0-.741.4l-.556,1.556a.742.742,0,0,0,.245.789l1.812.822c.62.327.718.642.658,1.006a10.529,10.529,0,0,1,.027,1.2,1.049,1.049,0,0,1-.5,1.192l-1.8.9a.9.9,0,0,0-.229.934l.6,1.372a.711.711,0,0,0,.827.436l1.847-.746a1.191,1.191,0,0,1,1.3.288c.255.268.511.534.767.8.414.218.512.534.391,1.262l-.459,1.873m8.69-7.708a4.111,4.111,0,0,1-5.175,2.3,3.815,3.815,0,0,1-2.294-5.17,3.926,3.926,0,0,1,5.016-2.246,3.975,3.975,0,0,1,2.453,5.121" fill="#ffb900"/><polygon points="40.542 109 36.17 115 10 115 10 148 74 148 74 109 40.542 109" fill="#b2b2b2"/><path d="M38.714,141H36.963l9.948-24h1.794Z" fill="#fff"/><polygon points="36.932 135.614 30.081 128.762 36.932 121.911 35.769 120.749 27.755 128.762 35.769 136.777 36.932 135.614" fill="#fff"/><polygon points="48.808 135.614 55.659 128.762 48.808 121.911 49.971 120.749 57.985 128.762 49.971 136.777 48.808 135.614" fill="#fff"/><polygon points="129.303 15 122.303 8 98 8 98 85 191 85 191 15 129.303 15" fill="#2488d8"/><path d="M148.434,47.948a1.739,1.739,0,0,0,.963,1.771l3.346,1.446a1.863,1.863,0,0,0,2.151-1.081l2.086-3.956a2.587,2.587,0,0,1,2.79-1.692c.754-.233,1.628-.091,2.383-.325a3.127,3.127,0,0,1,2.593,1.68l2.535,4.18a2.119,2.119,0,0,0,1.863.664l3.662-1.547a1.94,1.94,0,0,0,.549-2.241l-1.4-4.529a2.278,2.278,0,0,1,.807-2.735l-.117-.378a3.034,3.034,0,0,0,1.658-1.339c.522-.991,1.539-1.72,3.4-1.053l4.1,1.208a2.213,2.213,0,0,0,2.149-1.079l1.333-3.724a1.373,1.373,0,0,0-.963-1.769l-3.959-2.087a2.668,2.668,0,0,1-1.692-2.786c-.234-.755-.09-1.628-.324-2.381a4.476,4.476,0,0,1,1.564-2.968l3.923-2.043a2.018,2.018,0,0,0,.927-2.357l-1.809-3.163a1.7,1.7,0,0,0-1.98-1.043L176.555,14.4a2.853,2.853,0,0,1-3.113-.689,8.672,8.672,0,0,0-1.719-1.538l-.118-.378a2.943,2.943,0,0,1-.935-3.02l1.478-4.6a1.735,1.735,0,0,0-.963-1.769l-3.728-1.329a1.374,1.374,0,0,0-1.77.962l-2.468,4.074c-.78,1.483-1.536,1.718-2.41,1.575-.756.234-1.628.091-2.386.326a2.939,2.939,0,0,1-2.967-1.563l-2.16-4.3a2.175,2.175,0,0,0-2.238-.55l-3.665,1.55a2.469,2.469,0,0,0-.545,2.239l1.4,4.529c.469,1.511.325,2.385-.81,2.736-.261.494-.9,1.106-1.422,2.1-.64.611-1.277,1.223-3.138.558l-4.48-1.094a1.744,1.744,0,0,0-1.774.962L135.3,18.912a1.782,1.782,0,0,0,.585,1.889l4.336,1.967c1.484.782,1.717,1.534,1.575,2.407a24.941,24.941,0,0,1,.063,2.877,2.508,2.508,0,0,1-1.189,2.852l-4.3,2.162a2.168,2.168,0,0,0-.549,2.235l1.432,3.282a1.7,1.7,0,0,0,1.979,1.043l4.418-1.783a2.846,2.846,0,0,1,3.112.689q.917.959,1.838,1.916c.988.521,1.222,1.277.935,3.02l-1.1,4.48m20.792-18.442A9.837,9.837,0,0,1,156.845,35a9.131,9.131,0,0,1-5.489-12.37,9.391,9.391,0,0,1,12-5.373,9.511,9.511,0,0,1,5.869,12.251" fill="#ffb900"/><path d="M110.4,50.3a1.06,1.06,0,0,0,.589,1.083l2.048.886a1.141,1.141,0,0,0,1.317-.662l1.277-2.421a1.582,1.582,0,0,1,1.708-1.036c.461-.143,1-.056,1.459-.2a1.916,1.916,0,0,1,1.587,1.028l1.552,2.559a1.3,1.3,0,0,0,1.14.406L125.32,51a1.183,1.183,0,0,0,.336-1.371l-.859-2.773a1.394,1.394,0,0,1,.494-1.674l-.071-.232a1.848,1.848,0,0,0,1.014-.819,1.509,1.509,0,0,1,2.082-.645l2.512.74a1.351,1.351,0,0,0,1.315-.661l.816-2.279a.84.84,0,0,0-.589-1.083l-2.423-1.278a1.632,1.632,0,0,1-1.036-1.7c-.143-.462-.055-1-.2-1.457a2.736,2.736,0,0,1,.957-1.817l2.4-1.25a1.239,1.239,0,0,0,.568-1.444l-1.108-1.936a1.041,1.041,0,0,0-1.211-.638l-2.7,1.092a1.748,1.748,0,0,1-1.905-.422,5.29,5.29,0,0,0-1.053-.942l-.071-.232a1.8,1.8,0,0,1-.573-1.848l.905-2.813a1.061,1.061,0,0,0-.59-1.083l-2.282-.814a.841.841,0,0,0-1.083.589L119.452,24.7c-.477.908-.94,1.052-1.475.964-.463.143-1,.056-1.46.2A1.8,1.8,0,0,1,114.7,24.9l-1.322-2.63a1.333,1.333,0,0,0-1.37-.337l-2.243.949a1.511,1.511,0,0,0-.334,1.371l.859,2.772c.287.925.2,1.46-.5,1.675-.16.3-.551.677-.87,1.283a1.522,1.522,0,0,1-1.922.342l-2.742-.67a1.068,1.068,0,0,0-1.086.589l-.813,2.279a1.089,1.089,0,0,0,.358,1.156l2.654,1.2c.909.479,1.051.939.964,1.473a15.076,15.076,0,0,1,.038,1.761,1.537,1.537,0,0,1-.727,1.747l-2.632,1.323a1.327,1.327,0,0,0-.336,1.368l.877,2.009a1.041,1.041,0,0,0,1.211.639l2.7-1.092a1.744,1.744,0,0,1,1.906.422q.559.587,1.124,1.173c.605.318.749.781.573,1.848L110.4,50.3m12.727-11.29a6.021,6.021,0,0,1-7.579,3.362,5.588,5.588,0,0,1-3.359-7.572,5.747,5.747,0,0,1,7.345-3.288,5.821,5.821,0,0,1,3.593,7.5" fill="#ffb900"/><polygon points="140.814 27 134.254 36 98 36 98 85 191 85 191 27 140.814 27" fill="#69afe5"/><rect x="120" y="45" width="31" height="13" fill="none" stroke="#fff" stroke-miterlimit="10" stroke-width="2"/><rect x="140" y="63" width="31" height="13" fill="none" stroke="#fff" stroke-miterlimit="10" stroke-width="2"/><polyline points="127 58 127 69 140 69" fill="none" stroke="#fff" stroke-miterlimit="10" stroke-width="2"/><rect x="77" y="128" width="2" height="2" fill="#939393"/><polygon points="118.877 130 117 130 117 128 119 128 119.023 130 118.877 130" fill="#939393"/><rect x="113" y="128" width="2" height="2" fill="#939393"/><rect x="109" y="128" width="2" height="2" fill="#939393"/><rect x="105" y="128" width="2" height="2" fill="#939393"/><rect x="101" y="128" width="2" height="2" fill="#939393"/><rect x="97" y="128" width="2" height="2" fill="#939393"/><rect x="93" y="128" width="2" height="2" fill="#939393"/><rect x="89" y="128" width="2" height="2" fill="#939393"/><rect x="85" y="128" width="2" height="2" fill="#939393"/><rect x="81" y="128" width="2" height="2" fill="#939393"/><path d="M121.191,130.194l-.161-1.993c.63-.051,1.266-.127,1.89-.226l.313,1.976C122.559,130.057,121.872,130.139,121.191,130.194Z" fill="#939393"/><path d="M125.251,129.55l-.465-1.945c.616-.147,1.233-.32,1.833-.513l.613,1.9C126.583,129.2,125.917,129.391,125.251,129.55Z" fill="#939393"/><path d="M129.167,128.288l-.759-1.85c.586-.241,1.169-.506,1.733-.791l.9,1.787C130.431,127.741,129.8,128.028,129.167,128.288Z" fill="#939393"/><path d="M132.842,126.438l-1.033-1.711c.54-.326,1.075-.678,1.591-1.047l1.162,1.628C134,125.707,133.426,126.087,132.842,126.438Z" fill="#939393"/><path d="M136.19,124.05l-1.283-1.534c.482-.4.958-.833,1.415-1.277l1.394,1.433C137.223,123.152,136.71,123.615,136.19,124.05Z" fill="#939393"/><path d="M139.133,121.181l-1.5-1.322c.418-.474.822-.97,1.2-1.476l1.6,1.2C140.021,120.133,139.584,120.669,139.133,121.181Z" fill="#939393"/><path d="M141.607,117.9l-1.685-1.078c.342-.533.666-1.085.963-1.64l1.763.945C142.326,116.725,141.976,117.322,141.607,117.9Z" fill="#939393"/><path d="M143.549,114.277l-1.83-.806c.256-.581.491-1.176.7-1.768l1.887.663C144.081,113.007,143.826,113.65,143.549,114.277Z" fill="#939393"/><path d="M144.913,110.4l-1.933-.517c.164-.611.305-1.236.42-1.855l1.967.365C145.242,109.064,145.089,109.739,144.913,110.4Z" fill="#939393"/><path d="M145.665,106.358l-1.988-.212c.067-.63.111-1.27.131-1.9l2,.061C145.786,104.989,145.738,105.679,145.665,106.358Z" fill="#939393"/><rect x="144" y="100" width="2" height="2" fill="#939393"/><rect x="144" y="96" width="2" height="2" fill="#939393"/><rect x="144" y="92" width="2" height="2" fill="#939393"/><rect x="144" y="88" width="2" height="2" fill="#939393"/></svg>