<svg xmlns="http://www.w3.org/2000/svg" viewBox="0 0 202.454 150"><title>zerodata-get-started-with-sprint</title><path d="M199.192 150H3.448a3.387 3.387 0 0 1-3.395-2.677 3.262 3.262 0 0 1 3.21-3.845h195.743a3.387 3.387 0 0 1 3.395 2.677 3.261 3.261 0 0 1-3.209 3.845z" fill="#c8c8c8"/><path d="M147.411 58.7h-64.1a5.45 5.45 0 0 1-5.45-5.45V5.45A5.45 5.45 0 0 1 83.311 0h64.1a5.45 5.45 0 0 1 5.45 5.45v47.8a5.451 5.451 0 0 1-5.45 5.449z" fill="#69afe5"/><path d="M130.6 29.7a16.021 16.021 0 0 0-13.613-15.755v-3.3l-4.976 4.961 4.976 4.961V17.3a12.655 12.655 0 0 1-2.367 25.087H86.556v3.261h28.07A16.013 16.013 0 0 0 130.6 29.7z" fill="#fff"/><path d="M103.73 41.3h5.87l-.143-.076a13.314 13.314 0 0 1-6.889-9.447l-.088-.391a13.427 13.427 0 0 1 3.045-10.783 13.568 13.568 0 0 1 6.542-4.206l-1.071-3.382a16.939 16.939 0 0 0-11.971 19.1l.1.49a17.022 17.022 0 0 0 4.605 8.695zm44.25 3.02l-5.989-5.1v3.171h-14.4c-1.336 1.693-2.673 2.9-4.484 3.261h19.973v3.782z" fill="#fff"/><path d="M167.551 88.118s-6.474 22.195-6.566 25.893 5.641 28.576 5.641 28.576l8.6.833s-2.96-24.6-3.422-27.189 0-3.422 1.017-6.2a19.393 19.393 0 0 1 1.85-3.976 29.239 29.239 0 0 0 1.85 11.837c2.312 5.457 10.262 23.676 10.262 23.676s8.234.368 8.234-1.759-6.936-19.236-7.861-22.379a31.148 31.148 0 0 1-1.295-11.1c.185-5.086.092-9.617.092-9.617s1.572-3.329.37-9.617c-.872-4.563-18.773 1.016-18.773 1.016z" fill="#0030a1"/><path d="M167.551 87.031s17.9-5.579 18.773-1.017c1.2 6.288-.37 9.617-.37 9.617s.092 4.532-.092 9.617a31.151 31.151 0 0 0 1.295 11.1c.925 3.145 7.861 20.253 7.861 22.379 0 .735-.823 1.646-1.892 2.524-3.6-12.087-8.954-22.808-10.037-26.938-1.382-5.273 0-18.311 0-18.311s-4.07 6.751-8.415 8.971a19.392 19.392 0 0 0-1.85 3.976c-1.017 2.774-1.479 3.607-1.017 6.2s3.422 27.189 3.422 27.189l-8.6-.833s-5.734-24.877-5.641-28.576 6.565-25.892 6.565-25.892z" fill="#002050"/><path d="M176.774 140.943a.338.338 0 0 0-.551-.242 6.21 6.21 0 0 1-3.662 1.392 3.111 3.111 0 0 1-3.393-2.335c-.25-.716-1.022-1.364-2.619-.416-2.568 1.524-8.265 3.6-9.88 4.262a.85.85 0 0 0-.547.783v2.813a.624.624 0 0 0 .624.624h18.2s.786-.809.741-1.243l1.087-6.1z"/><path d="M196.339 138.77a.338.338 0 0 0-.551-.242 6.21 6.21 0 0 1-3.662 1.392 3.111 3.111 0 0 1-3.393-2.335c-.25-.716-1.022-1.364-2.619-.416-2.568 1.524-8.265 3.6-9.88 4.262a.85.85 0 0 0-.547.783v2.815a.624.624 0 0 0 .624.624h18.2s.786-.809.741-1.243l1.087-6.1z"/><path d="M174.556 49.439l-3.26 1.387-2.15 7.664 5.618-6.8z" fill="#fff"/><path d="M143.245 61.616l-3.736-12.01.972-.321 4.707 11.989z" fill="#00188f"/><path d="M182.208 52.174h-8.7V40.217h8.7z" fill="#613d30"/><path d="M170.365 29.177c-1.582 5.621-4.554 6.886-4.554 6.886s-.337.92.353 1.193 2.015.779 2.015.779l-.472 4.21c-.315 2.807.361 3.405 2.316 3.515s3.49.655 7.168.116 5.832-3.948 8.068-10.255-6.991-8.905-10.374-9.449-4.522 3-4.522 3z" fill="#8e562e"/><path d="M167.988 39.759a29.833 29.833 0 0 0 3.177-.278c.683-.117.783.012-.291.761a12.266 12.266 0 0 1-3.12 1.608z" fill="#f3f3f3"/><circle cx="170.844" cy="34.875" r=".543" transform="rotate(-68.34 170.932 34.88)"/><path d="M176.012 29.387a46.011 46.011 0 0 1-.95 6.252c-.21.841.685.94 2.007-.1 2.668-2.105 4.228-.362 2.61 2.236a4.733 4.733 0 0 0 1.276 6.77s6.878-1.634 9.312-7.763-1.309-12.646-6.489-14.7-9.037.443-11.53 1.185a3.291 3.291 0 0 1-3.717-1.042 7.714 7.714 0 0 0-.951 5.752c.923 3.932 2.988 3.885 4.878 3.4a9.8 9.8 0 0 0 3.554-1.99z"/><path d="M173.2 52.695c-4.751 4.4-6.589 9.918-7.734 24.484-.686 8.732 1.341 13.039 1.341 13.039l20.126-.035s1.145-3.607 1.145-13.629c0-7.664-.867-22.16-4.3-24.726s-10.578.867-10.578.867z" fill="#0030a1"/><path d="M153.919 64.419L146.51 60.1s-1.789-5.276-2.272-6.249-2.149-.284-1.6 1.729 1.443 4.79 1.443 4.79l-1.111.343-2.039-6.595s-3.773 2.637-3.572 4.221c.226 1.78.683 5.116 2.62 5.695a19.782 19.782 0 0 0 3.605.634l8.932 5.782z" fill="#8e562e"/><path d="M159.346 68.93s13.167-9.467 17.241-12.078c5.507-3.528 10.429 3.342 4.774 7.311s-12.971 9.287-16.733 11.721c-5.737 3.716-10.362-3.423-5.282-6.954z" fill="#002050"/><path d="M152.95 63.585c4.71 2.371 8.626 3.866 10.39 5.155 5.28 3.859.654 10.932-5.09 7.095-2.784-1.86-6-3.968-9-5.947z" fill="#002050"/><path d="M182.463 47.74l-10.2 3.433-.554 6.8 12.276-6.208z" fill="#fff"/><path d="M79.036 16.139l-11.574.795 11.486-8.4zm0 26.087l-11.574.795 11.486-8.4zm72.65-1.63l11.574.795-11.486-8.4z" fill="#69afe5"/><path d="M64.817 138.043v.852l5.435 4.577v1.416c0 .436-.526.763-1.052.763H58.09a1.893 1.893 0 0 1-1.968-2.021v-5.588h8.7z"/><path d="M87.507 51.943s1.334-3.533 1.607-4.021c.675-1.207 2.514-4 2.514-4a.9.9 0 0 1 .725.951 18.554 18.554 0 0 1-.675 2.561s4.27-4.6 4.88-5.14 1.695.307.912 1.266-1.529 2.083-1.529 2.083 1.451 3.313.8 4.258c-.985 1.436-3.685 2.861-5.334 3.358s-3.9-1.316-3.9-1.316z" fill="#e6ae80"/><path d="M67.67 47.1l13.13 8.149 7.427-6.432 3.714 4.529s-7.917 8.673-10.227 9.013c-.965.142-3.255.295-12.4-4.846-8.287-4.657-4.541-12.771-1.644-10.413z" fill="#724aad"/><path d="M68.71 135.555l-5.388-1.03c-.934 5.89-1.12 6.6-1.12 6.6a.934.934 0 0 0 .659 1.089c9.076 1.773 13.587 2.582 13.587 2.582a4.091 4.091 0 0 0 .361-1.143c.124-.651.095-1.589-.5-1.926-6.316-3.588-7.8-5.148-7.8-5.148z"/><path d="M68.531 78.151s4.484 7.473 6.612 27.672c.414 3.935-6.975 32.427-6.975 32.427l-8.786-1.812.543-60.326 8.605 2.039z" fill="#323232"/><path d="M51.832 77.607c-3.079 8.877-2.9 13.9-1.449 20.607s5.435 42.029 5.435 42.029l9.239-.182s.182-49.638-.182-52.536q-.72-5.707-1.449-11.413z" fill="#505050"/><path d="M51.832 77.607c-3.079 8.877-2.9 13.9-1.449 20.607s5.435 42.029 5.435 42.029l9.239-.182s.182-49.638-.182-52.536q-.72-5.707-1.449-11.413z" fill="#3c3c3c"/><path d="M71.113 60.658C69.494 50.47 69.632 47.346 66 47.012c-2.579-.237-13.414 0-17.652 0a5.619 5.619 0 0 0-5.886 5.841c0 2.59 6.129 18.075 6.129 18.075l2.7 8.42H68.68s1.21-8.908 2.433-18.69z" fill="#8867c8"/><path d="M63.732 39.13H52.861v7.622c0 2.032 2.434 3.678 5.435 3.678s5.435-1.647 5.435-3.678V39.13z" fill="#ffc18f"/><path d="M63.73 45.452V39.13H52.861v1.38a20.619 20.619 0 0 0 10.869 4.942z" fill="#e6ae80"/><path d="M56.775 37.821c-.979 6.553.723 9.907.723 9.907s-9.387-.439-11.56-13.264c-1.809-10.678 6.891-13.942 9.792-14.435 4.062-.688 8.122 1.072 8.593 3.858s.261 3.657-1.775 5.734c-1.308 1.333-5.773 8.2-5.773 8.2z" fill="#a60000"/><path d="M63.388 25.06a40.824 40.824 0 0 0 3.755 7.722c.605.855.061 1.064-.461 1.153s-.657.35-.539 1.047l.639 3.772c.187 1.1.111 1.712-2.152 2.1-2.96.5-5.979.3-8.064-1.439a6.262 6.262 0 0 1-2.351-3.3 2.729 2.729 0 0 1-2.677-2.412c-.336-2.689 2.885-3.055 4.445-2.305 2.002-.529 6.533-3.027 7.405-6.338z" fill="#ffc18f"/><path d="M65.59 37.522a7.226 7.226 0 0 1-3.158-.208.235.235 0 0 1 .137-.45 6.762 6.762 0 0 0 3.018.179h.013a.236.236 0 0 1 .087.463z" fill="#bd895e"/><circle cx="62.147" cy="30.525" r=".543" transform="rotate(-9.6 62.15 30.523)"/><path d="M63.924 26.461v-.011c-.338-.835-.54-1.39-.54-1.39-.872 3.312-5.4 5.811-7.405 6.329 1.34.489 6.109-.617 7.945-4.928z" fill="#e6ae80"/><path d="M55.773 85.734l13.892-4.246c-.17-.51-.611-1.392-.951-2.14H51.425c-2.646 8.124-2.423 13-1.042 19.384 1.449 6.7 5.435 42.029 5.435 42.029l2.45-.048c-.9-9.927-2.291-25.215-3.311-36.093-1.63-17.392.816-18.886.816-18.886z" fill="#282828"/><path d="M56.711 70.652h18.478a.543.543 0 0 1 0 1.087H56.711a.543.543 0 0 1 0-1.087zm11.093 0h7.883a1.211 1.211 0 0 0 1.189-.98l3.211-16.493a.845.845 0 0 0-.828-1.005H72a.726.726 0 0 0-.712.587z" fill="#3c3c3c"/><path d="M72.928 69.565h2.134l3.159-16.3h-2.134z" fill="none"/><path d="M75.38 56.522l.632-3.261h2.265l-.633 3.261z" fill="none"/><path d="M53.312 70.481l4.836-1.821 4.978.6s.148.99-.536 1.12a18.184 18.184 0 0 1-2.678.01s.743.849.9.865 2.93.379 2.93.379-3.333 2.654-4 3.092-6.978-.672-6.978-.672z" fill="#e6ae80"/><path d="M55.8 69.548l-9.967-1.487s3.122-12.1 3.816-15.3c.951-4.393-5.083-7.55-7.107-2.38s-4.893 18.666-5.151 19.911.136 3.521 3.484 4 14.209.8 14.209.8z" fill="#724aad"/><path d="M9.315 81.166l-1.471 61.225h8.729s5.246-48.536 5.621-50.228 1.374-2.176 1.5.363c.2 4.073 5.246 50.952 5.246 50.952h9.487l-3.613-61.956z" fill="#006fc8"/><path d="M36.994 82.242s.625 3.626 1.187 5.682c.3 1.109 1.28-.272 1.28-.272s.312 1.127.593 2.025c.53 1.692 3.56.09 3-2.115-.751-2.947-1.936-7.011-1.936-7.011z" fill="#bb9167"/><path d="M8.3 64.278v17.244h26.082V44.759c0-2.993-2.44-5.628-6.568-5.628h-9.259z" fill="#ffb900"/><path d="M34.746 44.017c.429 4.348 2.748 19.911 2.748 19.911l5 17.649-6.062 1.813-7.37-28.65z" fill="#ffb900"/><path d="M21.377 75.693l-10.048-9.725a1.672 1.672 0 0 1-.055-2.364l.055-.055 15.179-14.692a1.809 1.809 0 0 1 2.5 0l10.048 9.725a1.671 1.671 0 0 1 0 2.418l-15.18 14.693a1.81 1.81 0 0 1-2.499 0z" fill="#3c3c3c"/><path d="M22.06 74.117l-9.367-9.066a.675.675 0 0 1-.022-.954l.022-.022 14.483-13.837a.73.73 0 0 1 1.009 0l9.367 9.062a.675.675 0 0 1 .022.954l-.022.022-14.484 13.841a.73.73 0 0 1-1.008 0z" fill="#a6a6a6"/><path d="M34.2 67.914a.722.722 0 1 0 .3-1.413c-.812-.121-.486-.068-1.749-.287 1.175.184 1.81-1.224.437-1.465-.583-.1-5.073-.962-6.341-1.2l.471.116-.948 5.61a21.588 21.588 0 0 0 6.577 1.215c.9-.2.776-.9.776-.9s1.416.061 1.437-.716c.016-.699-.408-.846-.96-.96z" fill="#bb9167"/><path d="M14.781 86.523l20.033-4.2-.046-.8-25.668.066-1.36 61.889h2.279z" fill="#0063b0"/><path d="M28.814 106.246L23.678 92.5c.005.067.012.129.015.2.2 4.073 5.246 50.772 5.246 50.772H31.7z" fill="#0063b0"/><path d="M21.444 39.13h-7.493a6.842 6.842 0 0 0-6.995 6.347q-1.017 8.06-1.874 16.138c-.25 2.478.437 4.714 4.934 5.621s16.237 3.505 16.237 3.505l1.062-6.286-13.239-3.264z" fill="#ffb900"/><path d="M16.991 32.609v5.445a4.348 4.348 0 0 0 4.348 4.346 4.348 4.348 0 0 0 4.348-4.348v-5.443z" fill="#bb9167"/><path d="M16.991 34.726v-2.117h8.7V36.3c-5.215.275-7.473-.5-8.7-1.574z" fill="#a07657"/><path d="M25.423 15.773c2.027 5.1 4.426 8.045 5.1 8.634s.845 1.21-.135 1.6c-1.016.408-.89.332-.338 1.57.743 1.667 1.149 2.518 1.758 3.63s-.135 2.126-2.5 2.584-9.732 1.308-12.57.13-7.772-8.83-1.96-14.651 10.645-3.497 10.645-3.497z" fill="#bb9167"/><path d="M23.5 9.461s3.346 2.257 3.649 4.251c.407 2.665-1.055 3.371-3.447 3.924-4.8 1.112-4.325 2.551-2.974 4.643s1.048 2.584.811 2.812a1.692 1.692 0 0 1-.946.523 5.7 5.7 0 0 0-2.163-1.962c-1.85-.775-3.176 1.407-2.095 3.041a4.859 4.859 0 0 0 2.765 2.322c.461.165.676 1.7.067 3.336a2.575 2.575 0 0 1-2.433 1.57s-3.243-.327-6.555-6.475-.338-6.867-.338-6.867-.868-3.992 5.677-7c3.992-1.828 8.79-1.763 7.982-4.118z" fill="#593a29"/><path d="M30.281 28.089a10.819 10.819 0 0 1-4.655 1.451c-.3-.032.673 1.022 5.434.221q-.403-.83-.779-1.672z" fill="#f3f3f3"/><circle cx="25.189" cy="22.912" r=".543" fill="#593a29"/><path d="M27.315 63.661L14.076 60.4l-1.545-14.662-1.54 16.3L27.205 65.3z" fill="#f0e300"/><path d="M28.932 140.434a.267.267 0 0 1 .434-.184 9.976 9.976 0 0 0 4.04 1.055 2.434 2.434 0 0 0 2.668-1.771c.2-.543.8-1.035 2.061-.315a74.019 74.019 0 0 0 7.773 3.232.647.647 0 0 1 .43.593v2.135a.5.5 0 0 1-.529.473H29.616a.636.636 0 0 1-.668-.6zm-21.739 0a.267.267 0 0 1 .434-.184 9.976 9.976 0 0 0 4.04 1.055 2.434 2.434 0 0 0 2.668-1.771c.2-.543.8-1.035 2.061-.315a74.019 74.019 0 0 0 7.773 3.232.647.647 0 0 1 .43.593v2.135a.5.5 0 0 1-.529.473H7.877a.636.636 0 0 1-.668-.6z"/></svg>