<svg xmlns="http://www.w3.org/2000/svg" viewBox="0 0 230 150"><title>dayzero-invalid-workitem-type</title><path d="M230 47.333h-7.763a16.128 16.128 0 0 0-16.075 15.278 10.174 10.174 0 0 1-10.144 9.722H182v6h14.016a16.132 16.132 0 0 0 16.1-15.677 10.177 10.177 0 0 1 10.124-9.323H230v-6z" fill="#40cdf5"/><path d="M170.835 86.333h17.329A1.835 1.835 0 0 0 190 84.5V66.169a1.835 1.835 0 0 0-1.835-1.835h-17.33A1.835 1.835 0 0 0 169 66.169V84.5a1.835 1.835 0 0 0 1.835 1.833z" fill="#0078d7"/><path d="M156.4 49.333h20.835a3.231 3.231 0 0 1 2.293.954l5.533 5.566a3.234 3.234 0 0 1 .94 2.279v32.992a3.234 3.234 0 0 1-.94 2.279l-6.935 6.977a3.235 3.235 0 0 1-2.293.954H156.4a7.4 7.4 0 0 1-7.4-7.4v-37.2a7.4 7.4 0 0 1 7.4-7.401z" fill="#00188f"/><path d="M48 72.333h-7.763a16.129 16.129 0 0 0-16.075 15.278 10.174 10.174 0 0 1-10.144 9.722H0v6h14.016a16.132 16.132 0 0 0 16.1-15.677 10.177 10.177 0 0 1 10.124-9.323H48v-6z" fill="#49c8b3"/><path d="M46.835 86.333h17.329A1.835 1.835 0 0 0 66 84.5V66.169a1.835 1.835 0 0 0-1.835-1.835h-17.33A1.835 1.835 0 0 0 45 66.169V84.5a1.835 1.835 0 0 0 1.835 1.833z" fill="#003631"/><path d="M79.6 49.333H58.765a3.231 3.231 0 0 0-2.293.954l-5.533 5.566A3.237 3.237 0 0 0 50 58.132v32.992a3.234 3.234 0 0 0 .94 2.279l6.935 6.977a3.235 3.235 0 0 0 2.293.954H79.6a7.4 7.4 0 0 0 7.4-7.4v-37.2a7.4 7.4 0 0 0-7.4-7.401z" fill="#008c74"/><path d="M129.167 101.333h24.667A4.167 4.167 0 0 0 158 97.166V53.5a4.167 4.167 0 0 0-4.167-4.167h-24.666A4.167 4.167 0 0 0 125 53.5v43.667a4.166 4.166 0 0 0 4.166 4.166z" fill="#0078d7"/><path d="M80.167 101.333h21.667A4.167 4.167 0 0 0 106 97.166V53.5a4.167 4.167 0 0 0-4.167-4.167H80.167A4.167 4.167 0 0 0 76 53.5v43.667a4.166 4.166 0 0 0 4.166 4.166zm66.833-7v-8.318a5.694 5.694 0 0 0-4.392-5.663A5.546 5.546 0 0 0 136 85.884v8.449zm-14-32h3v13h-3zm15 2h3v11h-3z" fill="#003631"/><path d="M115.117 60.333H91.57a2.576 2.576 0 0 1-2.542-1.878 2.5 2.5 0 0 1 2.425-3.122H115a2.576 2.576 0 0 1 2.542 1.878 2.5 2.5 0 0 1-2.425 3.122z" fill="#40c5af"/><path d="M97.689 57.833a2.5 2.5 0 0 1 2.5-2.5h-8.61a2.576 2.576 0 0 0-2.542 1.878 2.5 2.5 0 0 0 2.425 3.122h8.727a2.5 2.5 0 0 1-2.5-2.5z" fill="#fff"/><path d="M115.117 94.333H91.57a2.576 2.576 0 0 1-2.542-1.878 2.5 2.5 0 0 1 2.425-3.122H115a2.576 2.576 0 0 1 2.542 1.878 2.5 2.5 0 0 1-2.425 3.122z" fill="#40c5af"/><path d="M97.689 91.833a2.5 2.5 0 0 1 2.5-2.5h-8.61a2.576 2.576 0 0 0-2.542 1.878 2.5 2.5 0 0 0 2.425 3.122h8.727a2.5 2.5 0 0 1-2.5-2.5zm38.4-4.916c-.053.315-.086-1.363-.086-1.032v8.449h11v-.894z" fill="#fff"/><path d="M70 60.333h2v30h-2zM65 60.333h2v30h-2z" fill="#003631"/><path d="M169 60.333h2v30h-2zM164 60.333h2v30h-2z" fill="#0078d7"/></svg>