<svg xmlns="http://www.w3.org/2000/svg" viewBox="0 0 258.44 134"><title>zerodata-verify-analytics-views</title><path d="M52,98.291V66.913c0-4.121,2.315-7.937,5.694-8.669C66,57,66,61.349,66,66.5V98.7c0,5.153-2,9.3-8.306,8.258C54,106,52,102.412,52,98.291Z" fill="#f0ae00"/><path d="M55,98.307V66.929c0-4.121,2.315-7.937,5.694-8.669C65.134,57.3,69,61.365,69,66.518v32.2c0,5.153-3.866,9.221-8.306,8.258C57.315,106.244,55,102.428,55,98.307Z" fill="#ffcb40"/><path d="M0,98.291V77.913c0-4.121,2.315-7.937,5.694-8.669C14,68,14,72.349,14,77.5V98.7c0,5.153-2,9.3-8.306,8.258C2,106,0,102.412,0,98.291Z" fill="#f0ae00"/><path d="M3,98.307V77.929c0-4.121,2.315-7.937,5.694-8.669C13.134,68.3,17,72.365,17,77.518v21.2c0,5.153-3.866,9.221-8.306,8.258C5.315,106.244,3,102.428,3,98.307Z" fill="#ffcb40"/><path d="M26,98.291V50.913c0-4.121,2.315-7.937,5.694-8.669C40,41,40,45.349,40,50.5V98.7c0,5.153-2,9.3-8.306,8.258C28,106,26,102.412,26,98.291Z" fill="#f0ae00"/><path d="M29,98.307V50.929c0-4.121,2.315-7.937,5.694-8.669C39.134,41.3,43,45.365,43,50.518v48.2c0,5.153-3.866,9.221-8.306,8.258C31.315,106.244,29,102.428,29,98.307Z" fill="#ffcb40"/><path d="M78,98.291V34.913c0-4.121,2.315-7.937,5.694-8.669C92,25,92,29.349,92,34.5V98.7c0,5.153-2,9.3-8.306,8.258C80,106,78,102.412,78,98.291Z" fill="#f0ae00"/><path d="M81,98.307V34.929c0-4.121,2.315-7.937,5.694-8.669C91.134,25.3,95,29.365,95,34.518v64.2c0,5.153-3.866,9.221-8.306,8.258C83.315,106.244,81,102.428,81,98.307Z" fill="#ffcb40"/><path d="M255.44,134H64.8a3.117,3.117,0,0,1-3.123-2.463A3,3,0,0,1,64.63,128H255.27a3.117,3.117,0,0,1,3.123,2.463A3,3,0,0,1,255.44,134Z" fill="#b2b2b2"/><rect x="66" width="188" height="130" rx="5.136" ry="5.136" fill="#002f33"/><path d="M254,102.321V4.694A3.694,3.694,0,0,0,250.306,1H141.364Z" fill="none"/><rect x="76" y="9" width="166" height="111" fill="#a6a8ab"/><rect x="76" y="9" width="166" height="111" fill="#106ebe"/><polygon points="247 66.957 251 67.457 251 63.374 247 63.874 247 66.957" fill="#106ebe"/><polygon points="242 75.767 242 9 169.077 9 242 75.767" fill="#2488d8"/><rect x="76" y="3" width="63" height="111" fill="none"/><rect x="76" y="113" width="166" height="1" fill="#69afe5"/><rect x="84" y="109" width="1" height="4" fill="#69afe5"/><rect x="101" y="109" width="1" height="4" fill="#69afe5"/><rect x="118" y="109" width="1" height="4" fill="#69afe5"/><rect x="134" y="109" width="1" height="4" fill="#69afe5"/><rect x="151" y="109" width="1" height="4" fill="#69afe5"/><rect x="168" y="109" width="1" height="4" fill="#69afe5"/><rect x="185" y="109" width="1" height="4" fill="#69afe5"/><rect x="201" y="109" width="1" height="4" fill="#69afe5"/><rect x="218" y="109" width="1" height="4" fill="#69afe5"/><rect x="234" y="109" width="1" height="4" fill="#69afe5"/><circle cx="157.5" cy="64.5" r="34.5" fill="#409ae1" stroke="#fff" stroke-miterlimit="10" stroke-width="2"/><polyline points="158 30 158 64.81 179.577 39.346" fill="none" stroke="#fff" stroke-linecap="round" stroke-linejoin="round" stroke-width="2"/><polyline points="185.056 45.555 158.667 64.583 190.169 56.877" fill="none" stroke="#fff" stroke-linecap="round" stroke-linejoin="round" stroke-width="2"/><polyline points="189.804 75.139 158.125 65.083 178.482 91.574" fill="none" stroke="#fff" stroke-linecap="round" stroke-linejoin="round" stroke-width="2"/><rect x="215" y="17" width="19" height="5" fill="#69afe5"/><path d="M80.271,98.36V34.64c0-4.041,2.27-7.783,5.584-8.5C90.209,25.2,94,29.184,94,34.237V98.763c0,5.053-3.791,9.042-8.145,8.1C82.541,106.143,80.271,102.4,80.271,98.36Z" fill="#409ae1" stroke="#fff" stroke-miterlimit="10" stroke-width="2"/></svg>