<svg xmlns="http://www.w3.org/2000/svg" viewBox="0 0 142 150.456"><title>zerodata-get-everyone-on-same-page</title><path d="M73 126h-2V68.313L37.269 34.582l1.414-1.414L73 67.485z" fill="#69afe5"/><path d="M71.411 67.526L105.435 33.5l1.415 1.414L72.826 68.94z" fill="#69afe5"/><circle cx="72.048" cy="65.472" r="25.535" fill="#bad80a"/><path d="M75 84.771l2.428-1.557L80 84.771V75h-5z" fill="#235a89"/><path d="M59.294 77c.079 1.424 1.806 2 1.806 2h20.921A1.942 1.942 0 0 0 84 77.266V50.75A1.756 1.756 0 0 0 82.238 49H60.8a1.772 1.772 0 0 0-1.8 1.734V77z" fill="#fff"/><path d="M63 49h-4v30h4z" fill="#235a89"/><path d="M66 59.375a1.654 1.654 0 0 0 1.679 1.632 1.833 1.833 0 0 0 .2-.007h11.25A1.774 1.774 0 0 0 81 59.375v-3.664A1.784 1.784 0 0 0 79.168 54H67.875A1.769 1.769 0 0 0 66 55.625v3.75z" fill="#69afe5"/><circle cx="71.041" cy="126" r="24" fill="#69afe5"/><path d="M76.792 134.136c-.1-4.639-9-3.7-9 .309 0 8.025-2.561 8.1-2.561 8.1L68.9 149.9c.706.063 1.42.1 2.142.1.542 0 1.078-.024 1.611-.06l7.322-8.358s-3.028-.193-3.183-7.446z" fill="#8e562e"/><path d="M71.041 150.456A23.941 23.941 0 0 0 89.319 142c-5.528.074-9.811-.078-9.811-.078-.931.617-7.76 8.45-7.76 8.45L66.432 142h-8.923a7.626 7.626 0 0 0-3.959.882 23.927 23.927 0 0 0 17.491 7.574z" fill="#282828"/><path d="M76.86 135.183c-.274-2.4-9.728-3.194-9.33-1.189a13.137 13.137 0 0 1-.046 4.688 9.474 9.474 0 0 0 5.573 1.122 9.623 9.623 0 0 0 4.24-1.585c-.14-.69-.277-1.638-.437-3.036z" fill="#613d30"/><path d="M60.961 122.169c-.77 8.147 3.171 15.188 8.8 15.727s10.82-5.628 11.589-13.775-3.171-15.188-8.8-15.727-10.819 5.628-11.589 13.775z" fill="#8e562e"/><path d="M61.717 113.744a41.212 41.212 0 0 0 12.765 2.649c.335 3.012 1.224 8.5 1.224 8.5l1.572-2.192s2.434-.355 1.642 3.5a4.506 4.506 0 0 1-2.913 3.29l1.916 3.893a18.57 18.57 0 0 0 4.81-14.365c-.965-8.606-4.8-7.7-4.8-7.7s-.847-3.652-5.53-4.24c-6.957-.869-10.686 6.665-10.686 6.665z" fill="#282828"/><circle cx="24" cy="24.02" r="24" fill="#69afe5"/><path d="M7.964 41.447a23.992 23.992 0 0 0 32.117-.039c-3.548-.441-10.426-1.149-13.524-1.408h-4.342c-3.588.3-11.146 1.057-14.251 1.447z" fill="#282828"/><path d="M23.532 39.741c-3.935 0-7.126 2.127-7.126 4.75a3.743 3.743 0 0 0 1.234 2.671 24 24 0 0 0 11.427.318 3.912 3.912 0 0 0 1.59-2.989c0-2.624-3.19-4.75-7.125-4.75z" fill="#bb9167"/><path d="M26.037 5.714a3.654 3.654 0 0 0-3.085-1.506A11.783 11.783 0 0 0 12 16.265V37h16v-.065c1.848.135 8 .148 8-5.643V16.265c0-8.158-5.964-11.645-9.963-10.551z" fill="#282828"/><path d="M20 28h8v17h-8z" fill="#bb9167"/><path d="M20 30v6.046c0 .274 2.508.417 3.962.417A19.551 19.551 0 0 0 28 36v-6z" fill="#8e562e"/><path d="M12 23.71A1.371 1.371 0 0 0 13.259 25H33.9a1.241 1.241 0 0 0 1.1-1.29v-2.581A1.091 1.091 0 0 0 33.95 20H13.259A1.231 1.231 0 0 0 12 21.129z" fill="#bb9167"/><path d="M33 16.007v-.291a9.42 9.42 0 0 0-6.455-9.055A9.531 9.531 0 0 0 14 15.688v16.624a19.336 19.336 0 0 0 9.659 3.009A16.039 16.039 0 0 0 33 32.314V16.007z" fill="#bb9167"/><path d="M33.535 12.851C33.069 6.677 25.5 6.327 25.5 6.327c-1.1-1.6-2.942-1.182-5.1.052q-.247.081-.487.181c-2.8 1.165-5.562 3.071-6.64 6.523-1.15 3.684 1.081 4.047 1.107 3.786.437-4.514 7.863-5.184 7.863-5.184a11.607 11.607 0 0 0-4.543 3.844c6.023-2.65 9.528-2.692 10.056-2.681l-2.025-6.055 3.352 6.54c4.016 1.469 3.9 6.23 3.9 6.216s1.017-.524.552-6.698z" fill="#282828"/><circle cx="24" cy="24.02" r="24" fill="none"/><path d="M13.428 19.209c11.656.53 14.835-6.146 14.835-6.146s.324 2.693 4.719 6.486a18.586 18.586 0 0 0 .368-9.665s-7.418-5.4-11.762-4.239-7.918 8.148-8.2 8.9a25.114 25.114 0 0 0 .04 4.664z" fill="#282828"/><circle cx="118" cy="24" r="24" fill="#69afe5"/><path d="M105 23.452A1.629 1.629 0 0 0 106.478 25h24.227A1.47 1.47 0 0 0 132 23.452v-3.1A1.3 1.3 0 0 0 130.767 19h-24.289A1.452 1.452 0 0 0 105 20.355zM114 35h9v11h-9z" fill="#f7d7c4"/><path d="M121 35h1v1h-1z" fill="#71563b"/><path d="M114 32v6.782a22.958 22.958 0 0 0 4.35.378 24.724 24.724 0 0 0 4.65-.473V32z" fill="#d8b094"/><path d="M118.962 5.839A13.145 13.145 0 0 0 108 12.213v18.879a12.625 12.625 0 0 0 22-.112V12.326a13.168 13.168 0 0 0-11.038-6.487z" fill="#f7d7c4"/><path d="M130 20.47v-8.246a12.624 12.624 0 0 0-22-.112v7.075c1.576-3.422 4.5-6.223 7.524-6.786 5.49 6.792 10.22 8.315 14.476 8.069z" fill="#282828"/><path d="M118.962 5.839A13.145 13.145 0 0 0 108 12.213v18.879a12.625 12.625 0 0 0 22-.112V12.326a13.168 13.168 0 0 0-11.038-6.487z" fill="none"/><path d="M134.83 40.79l-.225-.033c-3.051-.405-7.532-.931-11.6-1.267v3.658c0 .954-2.04 1.708-4.517 1.708S114 44.082 114 43.129v-3.566c-4.252.366-6.546.477-9.27.832-.223.029-.434.062-.654.094a18.3 18.3 0 0 0-2.557.555l-.076.026c-.049.016-.1.035-.146.051a23.6 23.6 0 0 0 33.378-.178l.156-.159z" fill="#282828"/></svg>