<svg id="Layer_1" xmlns="http://www.w3.org/2000/svg" viewBox="0 0 230 150"><style>.st0{fill:#b2b2b2}.st1{fill:#69afe5}.st2{fill:#99bcd7}.st3{fill:#c8c8c8}.st4{fill:#666}.st5{fill:#45779e}.st6{fill:#0078d7}.st7{fill:#a6a6a6}.st8{fill:#6597bf}.st9{fill:#2488d8}.st10{fill:#3c3c3c}.st11{fill:#235a89}.st12{fill:#106ebe}.st13{fill:#333}.st14{fill:#1c4768}.st15{fill:#005a93}.st16{fill:#212121}.st17{fill:#11334b}.st18{fill:#004578}.st19{fill:#b3d6f2}.st20{fill:#cfe0ee}.st21{fill:#eaeaea}.st22{fill:#deecf9}.st23{fill:#e9f0f7}.st24{fill:#f4f4f4}.st25{fill:#fff}.st26{fill:#231f20}.st27{fill-rule:evenodd;clip-rule:evenodd;fill:#fff200}.st28{fill:none;stroke:#fff100;stroke-width:.72;stroke-miterlimit:8}.st29,.st30,.st31,.st32,.st33{fill-rule:evenodd;clip-rule:evenodd;fill:#fff880}.st30,.st31,.st32,.st33{fill:#f0e300}.st31,.st32,.st33{fill:#ccc000}.st32,.st33{fill:#ffb900}.st33{fill:#ffcb40}.st34,.st35,.st36,.st37,.st38,.st39{fill-rule:evenodd;clip-rule:evenodd;fill:#f0ae00}.st35,.st36,.st37,.st38,.st39{fill:#c78e00}.st36,.st37,.st38,.st39{fill:#ff8c00}.st37,.st38,.st39{fill:#ffa940}.st38,.st39{fill:#f08400}.st39{fill:#ba6800}.st40,.st41,.st42,.st43,.st44,.st45{fill-rule:evenodd;clip-rule:evenodd;fill:#e81123}.st41,.st42,.st43,.st44,.st45{fill:#ee4d5a}.st42,.st43,.st44,.st45{fill:#d91021}.st43,.st44,.st45{fill:#a3111e}.st44,.st45{fill:#b4009e}.st45{fill:#c740b6}.st46,.st47,.st48,.st49,.st50,.st51{fill-rule:evenodd;clip-rule:evenodd;fill:#9e008b}.st47,.st48,.st49,.st50,.st51{fill:#850063}.st48,.st49,.st50,.st51{fill:#5c2d91}.st49,.st50,.st51{fill:#8562ad}.st50,.st51{fill:#522882}.st51{fill:#401467}.st52,.st53,.st54,.st55,.st56,.st57{fill-rule:evenodd;clip-rule:evenodd;fill:#0078d7}.st53,.st54,.st55,.st56,.st57{fill:#409ae1}.st54,.st55,.st56,.st57{fill:#006fc8}.st55,.st56,.st57{fill:#005291}.st56,.st57{fill:#008272}.st57{fill:#40a195}.st58,.st59,.st60,.st61,.st62,.st63{fill-rule:evenodd;clip-rule:evenodd;fill:#007365}.st59,.st60,.st61,.st62,.st63{fill:#005850}.st60,.st61,.st62,.st63{fill:#107c10}.st61,.st62,.st63{fill:#4c9d4c}.st62,.st63{fill:#0e6d0e}.st63{fill:#106110}.st64,.st65,.st66,.st67,.st68,.st69{fill-rule:evenodd;clip-rule:evenodd;fill:#e3008c}.st65,.st66,.st67,.st68,.st69{fill:#ea40a9}.st66,.st67,.st68,.st69{fill:#d40083}.st67,.st68,.st69{fill:#9c005f}.st68,.st69{fill:#b4a0ff}.st69{fill:#c7b8ff}.st70,.st71,.st72,.st73,.st74,.st75{fill-rule:evenodd;clip-rule:evenodd;fill:#a996f0}.st71,.st72,.st73,.st74,.st75{fill:#9080cf}.st72,.st73,.st74,.st75{fill:#00bcf2}.st73,.st74,.st75{fill:#40cdf5}.st74,.st75{fill:#00b0e3}.st75{fill:#0086ad}.st76,.st77,.st78,.st79,.st80,.st81{fill-rule:evenodd;clip-rule:evenodd;fill:#002050}.st77,.st78,.st79,.st80,.st81{fill:#40587c}.st78,.st79,.st80,.st81{fill:#001a41}.st79,.st80,.st81{fill:#001129}.st80,.st81{fill:#00b294}.st81{fill:#40c5af}.st82,.st83,.st84,.st85,.st86,.st87{fill-rule:evenodd;clip-rule:evenodd;fill:#00a387}.st83,.st84,.st85,.st86,.st87{fill:#008770}.st84,.st85,.st86,.st87{fill:#bad80a}.st85,.st86,.st87{fill:#cbe247}.st86,.st87{fill:#adc909}.st87{fill:#91a80a}.st88,.st89,.st90,.st91,.st92,.st93{fill-rule:evenodd;clip-rule:evenodd;fill:#d83b01}.st89,.st90,.st91,.st92,.st93{fill:#e26c41}.st90,.st91,.st92,.st93{fill:#bd3604}.st91,.st92,.st93{fill:#9c2801}.st92,.st93{fill:#a80000}.st93{fill:#be4040}.st94,.st95,.st96,.st97,.st98,.st99{fill-rule:evenodd;clip-rule:evenodd;fill:#900}.st95,.st96,.st97,.st98,.st99{fill:#750000}.st96,.st97,.st98,.st99{fill:#5c005c}.st97,.st98,.st99{fill:#854085}.st98,.st99{fill:#4d004d}.st99{fill:#380038}.st100,.st101,.st102,.st103,.st104,.st105{fill-rule:evenodd;clip-rule:evenodd;fill:#32145a}.st101,.st102,.st103,.st104,.st105{fill:#654f83}.st102,.st103,.st104,.st105{fill:#28114a}.st103,.st104,.st105{fill:#220c3d}.st104,.st105{fill:#00188f}.st105{fill:#4052ab}.st106,.st107,.st108,.st109,.st110,.st111{fill-rule:evenodd;clip-rule:evenodd;fill:#001580}.st107,.st108,.st109,.st110,.st111{fill:#001363}.st108,.st109,.st110,.st111{fill:#004b50}.st109,.st110,.st111{fill:#40787c}.st110,.st111{fill:#003d41}.st111{fill:#002f33}.st112,.st113,.st114,.st115,.st116,.st117{fill-rule:evenodd;clip-rule:evenodd;fill:#004b1c}.st113,.st114,.st115,.st116,.st117{fill:#407855}.st114,.st115,.st116,.st117{fill:#003c16}.st115,.st116,.st117{fill:#00240d}.st116,.st117{fill:#505050}.st117{fill:#282828}.st118,.st119,.st120,.st121,.st122,.st123{fill-rule:evenodd;clip-rule:evenodd;fill:#d2d2d2}.st119,.st120,.st121,.st122,.st123{fill:#f3f3f3}.st120,.st121,.st122,.st123{fill:#e6e6e6}.st121,.st122,.st123{fill:#939393}.st122,.st123{fill:#737373}.st123{fill:#c2c2c2}.st124{fill:#b2b2b2}.st124,.st125,.st126{fill-rule:evenodd;clip-rule:evenodd}.st126{fill:#fff}.st127{fill:none;stroke:#e6e6e6;stroke-width:.36;stroke-miterlimit:8}.st128,.st129,.st130,.st131,.st132{fill-rule:evenodd;clip-rule:evenodd;fill:#8e562e}.st129,.st130,.st131,.st132{fill:#d8b094}.st130,.st131,.st132{fill:#bb9167}.st131,.st132{fill:#613d30}.st132{fill:#f7d7c4}.st133{fill:#90c10c}.st134{fill:#65aa0d}.st135{fill:#3b930f}.st136{fill:#00a68c}.st137{fill:#009a83}.st138{fill:#008e7b}.st139{fill:#00abeb}.st140{fill:#009ae4}.st141{fill:#0089de}.st142{fill:#0060c5}.st143{fill:#0048b3}.st144{fill:#0030a1}.st145{fill:#00746a}.st146{fill:#006761}.st147{fill:#005959}.st148{fill:#0c7013}.st149{fill:#086416}.st150{fill:#045719}.st151{fill:#522783}.st152{fill:#472176}.st153{fill:#3d1a68}.st154{fill:#9e008e}.st155{fill:#88007d}.st156{fill:#72006d}.st157{fill:#d80d1a}.st158{fill:#c80912}.st159{fill:#b80409}.st160{fill:#9e83e3}.st161{fill:#8867c8}.st162{fill:#724aad}.st163{fill:#f57800}.st164{fill:#ec6401}.st165{fill:#e24f01}.st166{fill:#464646}.st167{fill:#323232}.st168{fill:#fff880}.st169{fill:none;stroke:#f08400;stroke-width:.9522;stroke-miterlimit:10}.st170{fill:#f08400}.st171,.st172{fill-rule:evenodd;clip-rule:evenodd;fill:#2488d8}.st172{fill:#005a93}.st173{fill:#32145a}.st174{fill:#c7b8ff}.st175{fill:#522882}.st176{fill:#b4a0ff}.st177{fill:#ffa940}.st178{fill:#d83b01}.st179,.st180{fill:none;stroke:#522882;stroke-miterlimit:10}.st180{stroke:#0089de;stroke-width:1.8193}.st181{fill:#bad80a}.st182{fill:#106110}.st183{fill:#395b71}.st184{fill:#e3e3e3}.st185{fill:#613d30}.st186{fill:#ffd940}.st187{fill:#ff8c00}.st188{fill:#939393}.st189{fill:#ffd160}.st190{fill:#ffb900}</style><switch><g><path class="st0" d="M223.416 143.631H7.332c-1.485 0-2.869-.999-3.123-2.463a3.001 3.001 0 0 1 2.953-3.537h216.084c1.485 0 2.869.999 3.123 2.463a3.002 3.002 0 0 1-2.953 3.537z"/><path class="st26" d="M208 134.631V35.707c0-2.251-1.693-4.076-3.781-4.076H68.781c-2.088 0-3.781 1.825-3.781 4.076v98.924h143z"/><path class="st2" d="M70 38.631h131v88H70z"/><path class="st10" d="M217.081 139.631H55.161c-5.398 0-6.279-8-6.279-8H223.36s-2.093 8-6.279 8z"/><path class="st183" d="M135 35.631h2v2h-2z"/><path class="st184" d="M201 38.631h-58.77L201 97.799z"/><g><path class="st185" d="M130.437 139.631l-85.937-.043a3.501 3.501 0 0 1-3.5-3.503l.057-111.954a3.502 3.502 0 0 1 3.503-3.5l85.223.043c2.591 0 4.155 2.031 4.154 3.957v111.515a3.492 3.492 0 0 1-3.5 3.485z"/><path class="st186" d="M128 133.631l-81-.062.062-107.938H128z"/><path class="st168" d="M128 78.212V25.631l-44.438.062C95.023 39.495 112.773 59.891 128 78.212z"/><path class="st187" d="M109.948 15.631H96.205s-1.142-8.375-8.35-8.419c-4.614-.028-8.356 3.85-8.359 9.419h-13.68c-2.128 0-2.816 2.218-2.816 2.218l.062 6.907 49.812-.062.007-7.007c-.131-1.743-1.312-3.055-2.933-3.056zm-22.1 3.899c-1.989-.001-3.601-1.663-3.6-3.713s1.614-3.71 3.604-3.709c1.989.001 3.601 1.663 3.6 3.713-.001 2.05-1.615 3.71-3.604 3.709z"/><path class="st164" d="M63.062 24.819l-.066 6.812L113 31.569v-6.875z"/><path class="st163" d="M120.983 73.631L54 73.597l.017-32.966 66.983.034-.017 32.966zm-64.998-2l63.015.032.015-29.032L56 42.599l-.015 29.032zM120.983 112.631L54 112.597l.017-32.966 66.983.034-.017 32.966zm-64.998-2l63.015.032.015-29.032L56 81.599l-.015 29.032z"/><path class="st165" d="M82.998 24.631l-19.873.063-.063 6.812 25.376.125z"/></g><g><path class="st6" d="M159 62.631h67v42h-67z"/><path class="st18" d="M165 93.631h55v5h-55z"/><path class="st1" d="M165 82.631h6v9h-6zM173 73.631h6v18h-6zM181 77.631h6v14h-6zM189 68.631h6v23h-6zM197 71.631h6v20h-6zM205 83.631h6v8h-6zM213 69.631h6v22h-6z"/></g><g><path class="st12" d="M9.738 135.804l.768 2.475a3.1 3.1 0 0 0 3.881 2.042l41.219-12.375a3.1 3.1 0 0 0 2.042-3.881l-.768-2.475a3.1 3.1 0 0 0-3.881-2.042L11.78 131.923a3.102 3.102 0 0 0-2.042 3.881z"/><path class="st14" d="M57.738 124.452a3.1 3.1 0 0 1-2.133 3.494l-41.219 12.375a3.1 3.1 0 0 1-3.736-1.672"/><path class="st188" d="M43.585 122.471l9.414-2.922.015-.004 2.606 8.396-.015.005-9.428 2.859-2.592-8.334z"/><path class="st25" d="M53.014 119.545l1.801 5.809-9.473 2.895-1.833-5.851 9.49-2.849.015-.004z"/><path class="st26" d="M58.862 104.251c-3.125 5.937-3.541 12.595-1.691 18.546 1.848 5.945 5.957 11.187 11.889 14.309 11.869 6.246 26.607 1.671 32.855-10.198 6.246-11.868 1.672-26.608-10.198-32.855-11.869-6.246-26.607-1.672-32.855 10.198zm2.646 1.391c5.479-10.411 18.407-14.424 28.818-8.944 5.202 2.738 8.807 7.336 10.428 12.551 1.623 5.221 1.257 11.058-1.484 16.267-5.479 10.411-18.407 14.424-28.818 8.944-10.41-5.478-14.423-18.406-8.944-28.818z"/><path class="st25" d="M84.371 101.516a21.982 21.982 0 0 1 11.508 3.983c-3.175-4.649-8.391-7.822-14.447-8.147-10.334-.555-19.161 7.373-19.716 17.707-.051.945-.01 1.871.081 2.784 2.667-9.878 11.945-16.898 22.574-16.327z"/></g></g></switch></svg>