<svg xmlns="http://www.w3.org/2000/svg" viewBox="0 0 172.163 150"><title>zerodata-keep-an-eye-on-important-work</title><path d="M101.749 95.39c-4.27 0-6.955-.431-12.626-.431L81.108 98.1l-7.141-3.8s-9.934 3.313-13.705 4.484-5.077 1.6-5.077 4.8.142 46.416.142 46.416h46.995l-.124-26.508s2.084-2.3 5-5.827z" fill="#00188f"/><path d="M127.74 38.481H98.748a3.323 3.323 0 0 1-3.324-3.321V16.511a3.323 3.323 0 0 1 3.321-3.324h29a3.323 3.323 0 0 1 3.324 3.321v18.65a3.321 3.321 0 0 1-3.321 3.321z" fill="#5c2d91"/><path d="M95.424 20.086v15.577a2.817 2.817 0 0 0 2.816 2.818h30.007a2.817 2.817 0 0 0 2.818-2.816V20.086z" fill="#8562ad"/><path d="M103.472 20.086h1.15v18.395h-1.15z" fill="#5c2d91"/><path d="M124.166 16.636h3.449v2.3h-3.449zm-5.748 0h3.449v2.3h-3.449z" fill="#c7b8ff"/><path d="M74.73 87.768v7.114c0 2.156 2.028 4.742 6.969 4.742s6.827-2.429 6.827-5.016v-6.143z" fill="#8e562e"/><path d="M72.969 84.051c4 5.587 6.683 10.024 15.556 10.244v-5.916z" fill="#613d30"/><path d="M85.615 64.532S88.8 70.7 89.171 71.1s4.679 4.684 4.679 4.684a.75.75 0 0 1 .092.871c-.281.47-1.864 1.132-1.927 1.58a21.5 21.5 0 0 0 2.808 5.384c1.416 2.054.74 2.874-1.935 3.942-2.8 1.121-10.347 3.183-12.719 2.663s-12.387-8.83-12.387-8.83 2.51-13.815 4.54-15.46 13.293-1.402 13.293-1.402z" fill="#8e562e"/><path d="M81.691 55.515s4.254 1.711 5.507 5.215-.561 5.126-5.229 6.83-4.754 1.933-2.8 4.811a40.262 40.262 0 0 1 2.7 4.414l-1.938 1.235a11.727 11.727 0 0 0-2.355-1.954c-1.5-.83-2.913-.46-3.43.912a3.587 3.587 0 0 0 2.184 4.39 4.38 4.38 0 0 1 2.874 3.9c.183 1.735-2.636 4.23-2.636 4.23a17.542 17.542 0 0 1-10.325-8.048c-4.245-6.823-2.5-8-.214-9.341-1.669-2.248-.27-7.991 8.532-11.037 7.339-2.538 7.599-4.242 7.13-5.557z" fill="#282828"/><path d="M92.816 80.2c-.607.39-1.468.925-2.113 1.252-1.1.556-3.7 1.495-3.7 1.495s4.2.952 6.2-2a8.049 8.049 0 0 1-.387-.747z" fill="#f3f3f3"/><path d="M132.178 57.362c4.352-4.2 3.633-4.664 5.184-9.731.706-3.019.008-4.222-1.115-2.989 1.687-2.687.151-5.5-1.114-3.555.282-.87.145-2.405-.976-2.583-.981-.051-1.265 1.664-1.4 2.38-.7-.639-2.1-.51-2.665 1.792a6.958 6.958 0 0 1-1.406 2.943c-.276-2.226-1.255-3.12-2.376-2.455 0 2.251-1.272 5.6-1.7 8.6a13.338 13.338 0 0 1 0 1.688 66.127 66.127 0 0 1-2.014 10.89c7.142 1.3 7.529-2.113 7.529-2.113z" fill="#8e562e"/><path d="M74.527 92.144l7.138 5.551 6.884-5.551 2.965 3.722-2.043 7.309-7.407-3.817-6.444 4.46-4.268-7.951zM50.9 150s.73-29.892 2.191-40.8 4.951-10.934 6.135-5.369C63.66 124.653 63.66 150 63.66 150zm71.87-91.11s-2.191 13.972-5.4 21.675-8.034 10.922-12.417 13.55a13.575 13.575 0 0 1-5.4 1.75c6.575 12.482 3.355 27.558 3.355 27.558s18.113-19.89 22.349-32.449a270.228 270.228 0 0 0 7.473-29.563z" fill="#0078d7"/><path d="M34.491 99.326a2.387 2.387 0 0 1-2.387 2.387H2.388A2.388 2.388 0 0 1 0 99.325V81.107a2.388 2.388 0 0 1 2.388-2.387H32.1a2.388 2.388 0 0 1 2.387 2.388z" fill="#5c2d91"/><path d="M17.13 91.948L34.286 80.1a1.814 1.814 0 0 0-1.759-1.38H1.737a1.816 1.816 0 0 0-1.684 1.139zm24.329-59.216H17.175A5.678 5.678 0 0 0 11.5 38.41V51.2a5.677 5.677 0 0 0 5.677 5.677h14.315l8.747 7.473v-7.475h1.22a5.678 5.678 0 0 0 5.678-5.675V38.41a5.678 5.678 0 0 0-5.678-5.678z" fill="#8562ad"/><path d="M18.395 38.481H37.94v2.3H18.395zm0 4.6H37.94v2.3H18.395zm0 4.6h13.8v2.3h-13.8zM72.519 2.044a11.788 11.788 0 0 0-1.119-.653l-.031-.016q-.172-.088-.345-.169l-.1-.045q-.213-.1-.43-.187-.517-.218-1.06-.387c-.069-.022-.134-.044-.208-.063l-.272-.076L68.7.383l-.249-.061a25.331 25.331 0 0 0-.336-.07c-.067-.013-.132-.028-.2-.039q-.245-.045-.493-.079L67.229.11a9.344 9.344 0 0 0-.363-.041l-.2-.018c-.126-.01-.254-.02-.382-.026L66.1.014a13 13 0 0 0-5.229.834A12.128 12.128 0 0 0 58.4 2.14q-.454.31-.87.658a10.336 10.336 0 0 0-3.817 7.975 10.11 10.11 0 0 0 1.934 5.955 10.712 10.712 0 0 0 .934 1.124l.023.023.2.2.062.067.015.016a22.374 22.374 0 0 1 4.815 8.825h7.724a22.419 22.419 0 0 1 4.78-8.845 10.262 10.262 0 0 0 3.155-7.372 10.446 10.446 0 0 0-4.836-8.722z" fill="#b4a0ff"/><path d="M67.185 36.181h-3.291l-1.908-2.3H69.1zm-5.1-9.2h8.048v6.9h-8.05z" fill="#5c2d91"/><circle cx="155.233" cy="72.242" r="16.93" fill="#8562ad"/><path d="M149.459 75.621l-6.9-3.145v-1.2l6.9-3.3v1.891l-4.6 1.97v.041l4.6 1.852zm9.424-10.7L153.6 77.57h-2.133l5.261-12.647zm8.971 7.454l-6.9 3.145v-1.886l4.6-1.839v-.027l-4.6-1.966V67.9l6.9 3.279v1.2z" fill="#b4a0ff"/><path d="M60.933 29.283h6.9v1.15h-6.9zm0 2.3h6.9v1.15h-6.9z" fill="#8562ad"/></svg>