<svg xmlns="http://www.w3.org/2000/svg" viewBox="0 0 164.08 150"><defs><style>.a{fill:#2488d8}.b{fill:#69afe5}.c{fill:#00abeb}.d{fill:#ffb900}</style></defs><title>zerodata-favorites</title><path class="a" d="M114.121 3.568h42.822v13.084h-42.822z"/><path class="b" d="M124.512 9.516L115.111 0H96.279v46.39h60.664V9.516h-32.431z"/><path class="c" d="M54.301 14.274l30.083 21.831v13.854h-47.58V36.105L6.721 14.274h47.58z"/><path class="a" d="M36.804 67.462L7.067 46.282V14.368l29.737 21.18v31.914zM54.349 45.795V14.274l30.035 21.708v12.787H58.446l-4.097-2.974z"/><path class="b" d="M51.04 35.685a9.554 9.554 0 0 0 19.108 0h14.236V67.8H36.8V35.685z"/><path class="a" d="M162.465 68.791l-18.127-10.62a5 5 0 0 0-3.1-1.076h-39.933a5.026 5.026 0 0 0-5.026 5.026v64.843a5.016 5.016 0 0 0 1.829 3.878c.4.328 17.351 11.152 17.351 11.152l30.8-47.276z"/><path class="c" d="M162.3 71.369l.593-2.875-17.96-10.287a5.166 5.166 0 0 0-3.2-1.112h-40.597c-1.7 0-3.315 1.41-4.262 2.676L116 71.369z"/><rect class="b" x="114.121" y="67.801" width="49.959" height="74.938" rx="2.601" ry="2.601"/><path class="a" d="M121.258 79.696h24.979v4.758h-24.979zM121.258 89.212h24.979v4.758h-24.979zM121.258 99.917h24.979v4.758h-24.979zM121.258 109.433h24.979v4.758h-24.979z"/><circle class="a" cx="156.943" cy="82.075" r="2.379"/><circle class="a" cx="156.943" cy="91.591" r="2.379"/><circle class="a" cx="156.943" cy="102.296" r="2.379"/><circle class="a" cx="156.943" cy="111.812" r="2.379"/><path class="a" d="M75.652 78.506H25.315A11.111 11.111 0 0 0 14.2 89.617V123.3a11.111 11.111 0 0 0 11.111 11.111h27.8L71.3 150v-15.588h4.352A11.111 11.111 0 0 0 86.763 123.3V89.617a11.111 11.111 0 0 0-11.111-11.111z"/><path class="b" d="M48.59 113l-.1-1.317c-.3-2.739.609-5.731 3.143-8.772 2.282-2.688 3.551-4.666 3.551-6.947 0-2.587-1.623-4.31-4.818-4.361a9.009 9.009 0 0 0-5.121 1.572l-1.217-3.2a13.294 13.294 0 0 1 7.251-2.028c5.831 0 8.467 3.6 8.467 7.453 0 3.449-1.926 5.933-4.36 8.824-2.23 2.636-3.041 4.868-2.89 7.453l.05 1.317zm-1.115 7.384a3 3 0 0 1 3.041-3.2 3.173 3.173 0 1 1-3.041 3.2z"/><path class="d" d="M16.648 88.2l4.152 8.405a.946.946 0 0 0 .713.518l9.277 1.348a.946.946 0 0 1 .525 1.614l-6.715 6.544a.946.946 0 0 0-.272.838l1.585 9.24a.946.946 0 0 1-1.373 1l-8.3-4.362a.946.946 0 0 0-.881 0l-8.3 4.362a.946.946 0 0 1-1.373-1l1.585-9.24a.946.946 0 0 0-.271-.838l-6.713-6.544a.946.946 0 0 1 .525-1.614l9.277-1.348a.946.946 0 0 0 .713-.518L14.95 88.2a.946.946 0 0 1 1.698 0zM117.518 10.855l4.149 8.407a.946.946 0 0 0 .713.518l9.277 1.348a.946.946 0 0 1 .525 1.614l-6.713 6.544a.946.946 0 0 0-.272.838l1.585 9.24a.946.946 0 0 1-1.373 1l-8.3-4.364a.946.946 0 0 0-.881 0l-8.3 4.362a.946.946 0 0 1-1.373-1l1.585-9.24a.946.946 0 0 0-.272-.838l-6.713-6.544a.946.946 0 0 1 .525-1.614l9.277-1.348a.946.946 0 0 0 .713-.518l4.149-8.407a.946.946 0 0 1 1.699.002z"/></svg>