<svg xmlns="http://www.w3.org/2000/svg" viewBox="0 0 215.254 136.419"><title>zerodata-no-analytics-views</title><path d="M212.254,136.419H3.17a3.117,3.117,0,0,1-3.123-2.463A3,3,0,0,1,3,130.419H212.084a3.117,3.117,0,0,1,3.123,2.463A3,3,0,0,1,212.254,136.419Z" fill="#b2b2b2"/><path d="M197.171,127.419V28.5a3.937,3.937,0,0,0-3.781-4.076H57.952A3.937,3.937,0,0,0,54.171,28.5v98.924Z" fill="#231f20"/><rect x="59.171" y="31.419" width="131" height="88" fill="#99bcd7"/><path d="M205.919,132.419H44c-5.4,0-6.279-8-6.279-8H212.2S210.1,132.419,205.919,132.419Z" fill="#3c3c3c"/><rect x="124.171" y="28.419" width="2" height="2" fill="#395b71"/><polygon points="190.171 31.419 131.401 31.419 190.171 90.587 190.171 31.419" fill="#e3e3e3"/><path d="M119.668,132.419l-86-.043a3.5,3.5,0,0,1-3.5-3.5l.057-111.954a3.5,3.5,0,0,1,3.5-3.5l85.283.043a4.033,4.033,0,0,1,4.157,3.957V128.935A3.494,3.494,0,0,1,119.668,132.419Z" fill="#613d30"/><polygon points="117.171 126.419 36.171 126.357 36.234 18.419 117.171 18.419 117.171 126.419" fill="#ffcb40"/><path d="M117.171,71V18.419l-44.438.063C84.194,32.283,101.945,52.679,117.171,71Z" fill="#fff880"/><path d="M99.237,8.419H85.376S84.234.044,77.026,0c-4.614-.028-8.356,3.85-8.359,9.419H55.14a2.862,2.862,0,0,0-2.969,3.063c0,.813.063,5.938.063,5.938l49.906-.031.028-6.941A3.031,3.031,0,0,0,99.237,8.419Zm-22.551,3.8a3.657,3.657,0,0,1-3.6-3.713,3.6,3.6,0,1,1,7.2,0A3.657,3.657,0,0,1,76.686,12.221Z" fill="#ff8c00"/><polygon points="52.171 17.546 52.421 24.294 102.171 24.356 102.171 17.419 52.171 17.546" fill="#ec6401"/><path d="M110.154,66.419l-66.983-.034.017-32.966,66.983.034Zm-65-2,63.015.032.015-29.032-63.015-.032Z" fill="#f57800"/><path d="M110.154,105.419l-66.983-.034.017-32.966,66.983.034Zm-65-2,63.015.032.015-29.032-63.015-.032Z" fill="#f57800"/><polygon points="72.39 17.482 52.234 17.544 52.234 24.294 77.671 24.294 72.39 17.482" fill="#d83b01"/><rect x="151.171" y="55.419" width="60" height="42" fill="#0078d7"/><polygon points="25.409 48.313 29.488 49.215 31.505 49.669 15.461 121.28 13.392 120.84 9.364 119.924 25.409 48.313" fill="#f0ae00"/><polygon points="31.505 49.669 15.461 121.28 13.392 120.84 29.488 49.215 31.505 49.669" fill="#c78e00"/><path d="M26.652,42.843a.9.9,0,0,1,1.062-.712l2.313.546.916.2c.281.036.624.109.853.158l.294.087a.924.924,0,0,1,.657,1.076c-.812,3.572-.874,3.854-.874,3.854l-2.027-.506-4.031-.913Z" fill="#e3008c"/><path d="M29.858,47.476c.886-3.916.985-4.361.985-4.361a.347.347,0,0,1,.33-.193,4.991,4.991,0,0,0,.622.109h0c.825.183,1.094.595.9,1.425-.56,2.445-.882,3.8-.8,3.448-.062.178-.176.283-.3.208l-1.491-.32A.29.29,0,0,1,29.858,47.476Z" fill="#b4009e"/><polygon points="9.171 129.454 9.153 119.924 15.25 121.28 11.124 129.871 9.171 129.454" fill="#737373"/><rect x="26.405" y="45.95" width="4.067" height="6.247" transform="translate(82.504 31.933) rotate(102.503)" fill="#fff"/><rect x="28.435" y="48.48" width="4.067" height="2.087" transform="translate(85.414 30.498) rotate(102.503)" fill="#c2c2c2"/><polygon points="9.383 129.454 11.332 129.887 9.509 133.109 9.383 129.454"/><path d="M161.171,88.734V81.528a3.037,3.037,0,0,1,2.034-3.1c4.633-.056,2.966,1.109,2.966,2.949v7.5c0,1.84,0,3.187-2.966,2.949A3.037,3.037,0,0,1,161.171,88.734Z" fill="#f0ae00"/><path d="M163.171,88.746V81.54a3.037,3.037,0,0,1,2.034-3.1c1.586-.344,2.966,1.109,2.966,2.949v7.5c0,1.84-1.381,3.293-2.966,2.949A3.037,3.037,0,0,1,163.171,88.746Z" fill="#ffcb40"/><path d="M172.171,88.734V72.528a3.037,3.037,0,0,1,2.034-3.1c4.633-.056,2.966,1.109,2.966,2.949v16.5c0,1.84,0,3.187-2.966,2.949A3.037,3.037,0,0,1,172.171,88.734Z" fill="#f0ae00"/><path d="M174.171,88.746V72.54a3.037,3.037,0,0,1,2.034-3.1c1.586-.344,2.966,1.109,2.966,2.949v16.5c0,1.84-1.381,3.293-2.966,2.949A3.037,3.037,0,0,1,174.171,88.746Z" fill="#ffcb40"/><path d="M183.171,88.734V77.528a3.037,3.037,0,0,1,2.034-3.1c4.633-.056,2.966,1.109,2.966,2.949v11.5c0,1.84,0,3.187-2.966,2.949A3.037,3.037,0,0,1,183.171,88.734Z" fill="#f0ae00"/><path d="M185.171,88.746V77.54a3.037,3.037,0,0,1,2.034-3.1c1.586-.344,2.966,1.109,2.966,2.949v11.5c0,1.84-1.381,3.293-2.966,2.949A3.037,3.037,0,0,1,185.171,88.746Z" fill="#ffcb40"/><path d="M194.171,88.734V65.528a3.037,3.037,0,0,1,2.034-3.1c4.633-.056,2.966,1.109,2.966,2.949v23.5c0,1.84,0,3.187-2.966,2.949A3.037,3.037,0,0,1,194.171,88.734Z" fill="#f0ae00"/><path d="M196.171,88.746V65.54a3.037,3.037,0,0,1,2.034-3.1c1.586-.344,2.966,1.109,2.966,2.949v23.5c0,1.84-1.381,3.293-2.966,2.949A3.037,3.037,0,0,1,196.171,88.746Z" fill="#ffcb40"/></svg>