<svg xmlns="http://www.w3.org/2000/svg" viewBox="0 0 200 150"><defs><clipPath id="a"><circle cx="36.5" cy="54.5" r="30.5" fill="none"/></clipPath><clipPath id="b"><circle cx="154" cy="102" r="24" fill="none"/></clipPath></defs><title>dayzero-mention-someone</title><g clip-path="url(#a)"><path d="M0 14h77v76H0z" fill="#00b0e3"/></g><g clip-path="url(#a)"><path d="M39.769 34.693s-3.428-5.444-10.39-1.035C15.858 42.22 16 60.646 16 60.646s3.416 6.594 16.511 11.5C38.23 74.29 47.585 65.4 47.585 65.4s5.641-7.267 3.428-19.475-8.824-14.797-11.244-11.232z" fill="#231f20"/><path d="M60.1 92q-.249-4.354-.483-8.709c-.348-6.593-2.84-6.964-6.78-7.877-4-.926-10.7-3.129-13.944-3.414h-4.28c-3.243.285-10.168 2.549-13.943 3.414-3.942.9-6.432 1.284-6.78 7.877-.081 1.543-.252 4.723-.468 8.709z" fill="#fff200"/><path d="M42 74.642v-6.549a5.724 5.724 0 0 0-5.5-5.925 5.724 5.724 0 0 0-5.5 5.925v6.653c0 3.273 3.86 7.381 5.5 7.381 1.737-.001 5.5-4.213 5.5-7.485z" fill="#d8b094"/><path d="M31 66.714l-.018 5.508a12 12 0 0 0 5.775 1.67A9.533 9.533 0 0 0 42 72.142l-.027-6.84zm-8-10.262A1.629 1.629 0 0 0 24.479 58h24.227A1.474 1.474 0 0 0 50 56.452v-3.1A1.294 1.294 0 0 0 48.705 52H24.479A1.453 1.453 0 0 0 23 53.355z" fill="#bb9167"/><path d="M36 34.534c6.05 0 11 5.422 11 12.048V51H25v-4.418c0-6.626 4.95-12.048 11-12.048" fill="#231f20"/><path d="M44.969 49.993c-2.475-2.974-1.45-8.653-4.1-8.653C37.566 49.069 25 50.647 25 50.6v13.383s5.266 6.665 11.179 6.665c3.942 0 8.036-3.653 10.821-6.665V50.641a2.95 2.95 0 0 1-2.031-.648z" fill="#d8b094"/><path d="M30.969 72.656l5.531 9.305 5.579-9.421 2.988.773L36.4 88.248l-8.384-14.875z" fill="#939393"/></g><path d="M185.357 45H79.643A6.643 6.643 0 0 0 73 51.643v10.006l-13.643.378L73 75.27v19.087A6.643 6.643 0 0 0 79.643 101h105.714A6.643 6.643 0 0 0 192 94.357V51.643A6.643 6.643 0 0 0 185.357 45z" fill="#fff"/><path d="M185.357 103H79.643A8.652 8.652 0 0 1 71 94.357V76.116L54.561 60.16 71 59.7v-8.058A8.652 8.652 0 0 1 79.643 43h105.714A8.652 8.652 0 0 1 194 51.643v42.715a8.652 8.652 0 0 1-8.643 8.642zM64.152 63.9L75 74.425v19.933A4.648 4.648 0 0 0 79.643 99h105.714A4.648 4.648 0 0 0 190 94.357V51.643A4.648 4.648 0 0 0 185.357 47H79.643A4.648 4.648 0 0 0 75 51.643v11.951z" fill="#737373"/><path d="M88.512 62.631a2.214 2.214 0 0 1-2.15 1.765 2.1 2.1 0 0 1-.979-.219 2.067 2.067 0 0 1-.7-.59 2.615 2.615 0 0 1-.426-.875 3.863 3.863 0 0 1-.145-1.067 5.23 5.23 0 0 1 .327-1.812 4.007 4.007 0 0 1 .415-.815 3.063 3.063 0 0 1 .593-.668 2.633 2.633 0 0 1 .782-.448 2.809 2.809 0 0 1 .975-.163 1.852 1.852 0 0 1 .92.248 1.593 1.593 0 0 1 .371.305 1.3 1.3 0 0 1 .252.419h.029l.074-.868h.786l-.363 4.248q0 1.573 1.008 1.572a1.476 1.476 0 0 0 .671-.148 1.649 1.649 0 0 0 .511-.4 2.528 2.528 0 0 0 .375-.582 3.9 3.9 0 0 0 .249-.686 5.717 5.717 0 0 0 .181-1.4 5.119 5.119 0 0 0-.36-1.965 4.244 4.244 0 0 0-1.016-1.494 4.453 4.453 0 0 0-1.575-.948 6 6 0 0 0-2.032-.33 5.407 5.407 0 0 0-1.464.192 5.062 5.062 0 0 0-1.264.545 4.849 4.849 0 0 0-1.038.85 5.031 5.031 0 0 0-.778 1.108 5.733 5.733 0 0 0-.489 1.323 6.36 6.36 0 0 0-.17 1.49 5.934 5.934 0 0 0 .363 2.116 4.569 4.569 0 0 0 2.665 2.71 5.777 5.777 0 0 0 2.139.378 7.173 7.173 0 0 0 3.143-.63v.808a8.351 8.351 0 0 1-3.217.563 6.48 6.48 0 0 1-2.424-.438 5.455 5.455 0 0 1-1.883-1.225 5.517 5.517 0 0 1-1.216-1.876 6.4 6.4 0 0 1-.434-2.388 6.791 6.791 0 0 1 .2-1.656 6.452 6.452 0 0 1 .575-1.494 5.982 5.982 0 0 1 .912-1.271 5.567 5.567 0 0 1 1.219-.982 6.1 6.1 0 0 1 1.494-.634 6.453 6.453 0 0 1 1.731-.227 6.615 6.615 0 0 1 1.542.178 6.13 6.13 0 0 1 1.383.509 5.393 5.393 0 0 1 1.168.808 5.073 5.073 0 0 1 1.486 2.391 5.5 5.5 0 0 1 .2 1.521 5.964 5.964 0 0 1-.07.894 5.542 5.542 0 0 1-.219.911 4.638 4.638 0 0 1-.378.85 3.081 3.081 0 0 1-.549.7 2.37 2.37 0 0 1-1.676.66q-1.63 0-1.7-1.765h-.03zm-1.334-4.159a1.754 1.754 0 0 0-1.012.285 2.248 2.248 0 0 0-.682.741 3.461 3.461 0 0 0-.382 1.016 5.34 5.34 0 0 0-.118 1.108 3.162 3.162 0 0 0 .1.846 1.912 1.912 0 0 0 .3.641 1.329 1.329 0 0 0 .475.4 1.363 1.363 0 0 0 .626.141 1.55 1.55 0 0 0 .73-.166 1.87 1.87 0 0 0 .549-.441 2.472 2.472 0 0 0 .389-.634 4.708 4.708 0 0 0 .252-.749 5.745 5.745 0 0 0 .137-.782 7.2 7.2 0 0 0 .041-.734 1.879 1.879 0 0 0-.363-1.253 1.3 1.3 0 0 0-1.042-.419z" fill="#3c3c3c"/><path d="M98 58h73v5H98z" fill="#b2b2b2"/><circle cx="86" cy="78" r="4" fill="#0078d7"/><circle cx="99" cy="78" r="4" fill="#0078d7"/><circle cx="112" cy="78" r="4" fill="#0078d7"/><g clip-path="url(#b)"><path d="M126 74h59v59h-59z" fill="#00b0e3"/></g><g clip-path="url(#b)"><circle cx="146.142" cy="93.944" r="4.571" fill="#613d30"/><circle cx="161.962" cy="92.241" r="4.501" fill="#613d30"/><path d="M150.833 111H159v14h-8.167z" fill="#bb9167"/><path d="M150.9 108.1l.1-.1-.1 6.769c0 .32 2.592.381 4.108.381 1.577 0 4-.174 4-.521V108z" fill="#8e562e"/><path d="M143.214 103h21.571a1.215 1.215 0 0 0 1.215-1.215v-2.57A1.215 1.215 0 0 0 164.785 98h-21.571A1.214 1.214 0 0 0 142 99.214v2.572a1.215 1.215 0 0 0 1.214 1.214z" fill="#bb9167"/><path d="M165 94.3c0-3.316-3.117-10.136-9.831-9.986-.121 0-.24.009-.359.013s-.051-.013-.172-.013c-7.13 0-9.639 7.573-9.639 9.986v15.926s-.123.04-.027.1a17.639 17.639 0 0 0 9.837 3.086H154.916a17.937 17.937 0 0 0 9.928-3.087c.1-.059.154-.1.154-.1z" fill="#bb9167"/><path d="M145 96.43c8.372 0 14.651-6.857 14.651-6.857S163 91.392 163 95.031V102h2v-8.067c0-2.121-1.258-9.79-9.726-9.79S145 92.319 145 93.695z" fill="#613d30"/><path d="M145 94h2v8h-2zm14.42-13.164s-1.008 4.281-6.334 2.305a5.2 5.2 0 1 0 3.355 4.332c1.748.279 3.482.242 4.379-.669 3.079-3.124-1.4-5.97-1.4-5.97z" fill="#613d30"/><path d="M160.82 86.807a4.395 4.395 0 0 0 2.705-3.079 3.325 3.325 0 0 1 .653 3.079 4.274 4.274 0 0 1-1.912 1.959z" fill="#613d30"/><path d="M148 120h13v14h-13z" fill="#fff"/><path d="M175.545 121.762c-1.016-2.645-2.294-4.637-6.814-4.637h-9.689l-4.25 16.792-3.933-16.792h-10.746c-4.521 0-5.8 1.993-6.814 4.637-.578 1.5-2.887 7.137-5.04 12.363h52.327c-2.154-5.226-4.463-10.859-5.041-12.363z" fill="#5c2d91"/></g><path d="M36.367 63.495a20.664 20.664 0 0 1-5.593-.765 7.878 7.878 0 0 0 11.186 0 20.658 20.658 0 0 1-5.593.765zm118.2 44.431a18.438 18.438 0 0 1-5-.684 7.04 7.04 0 0 0 10 0 18.438 18.438 0 0 1-5.003.684z" fill="#fff"/></svg>