<svg xmlns="http://www.w3.org/2000/svg" viewBox="0 0 148.865 150.028"><defs><style>.a{fill:#007596}.b{fill:#69afe5}.c{fill:#f3f3f3}.d{fill:#2488d8}.e{fill:#8e562e}.f{fill:#106ebe}.g{fill:#bb9167}.h{fill:#00b294}.i{fill:#008272}.j{fill:#f8d5b9}.k{fill:#613d30}.l{fill:#e6e6e6}.m{fill:#5c005c}.n{fill:none;stroke:#fff;stroke-linecap:round;stroke-linejoin:round;stroke-width:.057px}.o{fill:#409ae1}.p{fill:#004578}.q{fill:#0078d7}.r{fill:#005a93}.s{fill:#d8b094}.t{fill:#737373}.u{fill:#004880}</style></defs><title>zerodata-no-plan</title><path class="a" d="M49.376 99.459a13.476 13.476 0 0 0 2.877 21.283l.8.4a11.291 11.291 0 0 1-14.05-16.1 11.462 11.462 0 0 1 10.37-5.587"/><path class="b" d="M0 35.078h119.627v88.191H6.757A6.762 6.762 0 0 1 0 116.552z"/><path class="c" d="M116.148 38.4H21.811v1.264h93.066v79.016H.4a7.182 7.182 0 0 0 .535 1.264h115.213z"/><path class="d" d="M21.744 35.078v79.944H10.37c-4.081 0-7.493 2.86-7.493 6.983a6.164 6.164 0 0 1-2.81-4.789C.067 108.438 0 35.078 0 35.078z"/><path class="b" d="M7.493 26.9A7.459 7.459 0 0 0 0 34.347v82.6a7.4 7.4 0 0 1 7.493-6.85h8.029V26.9z"/><path class="e" d="M121.233 117.217c-2.007-1.8-5.152-3.924-6.691-8.114s-3.68-5.254 1.2-7.05a75.317 75.317 0 0 1 9.768 12.371 10.2 10.2 0 0 1-4.282 2.793zM101.161 106.775a1.72 1.72 0 0 0 2.141 1.2 1.748 1.748 0 0 0 1.271-2.128 1.769 1.769 0 1 0-3.412.931zM104.373 113.426a1.779 1.779 0 0 0 3.211-1.53 1.85 1.85 0 0 0-2.409-.865 1.824 1.824 0 0 0-.8 2.394zM106.714 116.618a1.794 1.794 0 0 0 2.342.865 1.852 1.852 0 0 0 .87-2.394 1.805 1.805 0 0 0-2.409-.8 1.692 1.692 0 0 0-.8 2.328zM109.591 119.478a1.737 1.737 0 0 0 2.342.865 1.719 1.719 0 0 0 .87-2.328 1.737 1.737 0 0 0-2.342-.865 1.719 1.719 0 0 0-.87 2.328z"/><path class="f" d="M92.196 72.39l35.326 53.34-8.43 5.454L83.833 77.91l8.363-5.52z"/><path class="g" d="M106.581 98.395a41.11 41.11 0 0 0 9.166 1.33l14.585 4.589s2.141 12.5-3.078 11.972c-5.219-.6-11.441-11.173-11.441-11.173a11.867 11.867 0 0 0-3.747-.865c-4.616.532-7.025-3.858-5.486-5.853z"/><path class="g" d="M146.457 109.169l-30.71-9.444 10.972 16.428 18.199 7.05 1.539-14.034z"/><path class="h" d="M147.862 109.036l-11.776-3.924-1.873 15.098 13.649 5.72v-16.894z"/><path class="i" d="M147.862 121.806l-13.181-5.454-.468 3.858 13.649 5.72v-4.124z"/><path class="j" d="M93 53.634s-3.747-6.717-.937-12.371c-6.824 4.456-7.092 5.387-7.092 5.387l1.137 8.912z"/><path class="k" d="M93 53.634s-3.747-6.717-.937-12.371c-6.824 4.456-7.092 5.387-7.092 5.387l1.137 8.912z"/><path class="e" d="M81.625 43.459s.87 3.858 2.743 4.19c1.806.266 6.958-4.456 7.025-4.922 7.627 2.527 4.951 9.777 4.951 9.777s.4.6 5.286 3.259c9.367-2.86 8.5-9.644 8.5-9.644l2.877-.2-.134-11.24-10.437 1.862s-11.173-2-12.311-.665c-.8.865-8.5 7.582-8.5 7.582z"/><path class="l" d="M111.331 33.283L112 46.784l6.49-.266-.736-14.1-6.423.865z"/><path class="k" d="M95.407 45.321l4.416-9.178a11.01 11.01 0 0 0-1.673-.266s-4.817 7.648-4.55 7.848a8.553 8.553 0 0 1 1.806 1.6z"/><path class="m" d="M97.883 28.694L81.625 58.889l1.07.598 16.259-30.195-1.071-.598z"/><path class="n" d="M97.883 28.694L81.625 58.889l1.07.598 16.259-30.195-1.071-.598z"/><path class="f" d="M101.094 30.423l-2.14-1.131-1.071-.598-16.258 30.195 1.07.598 2.141 1.131 16.258-30.195z"/><path class="c" d="M81.625 58.889l-.134 4.123 3.345-2.394-3.211-1.729z"/><path class="f" d="M83.164 61.815l-1.673 1.197.067-2.061 1.606.864z"/><path class="c" d="M99.689 28.029l-.735 1.263 2.14 1.131.736-1.264-2.141-1.13z"/><path class="n" d="M99.689 28.029l-.735 1.263 2.14 1.131.736-1.264-2.141-1.13z"/><path class="o" d="M99.689 28.029l-.735 1.263-1.071-.598.736-1.264 1.07.599z"/><path class="n" d="M99.689 28.029l-.735 1.263-1.071-.598.736-1.264 1.07.599z"/><path class="f" d="M102.7 27.43a.46.46 0 0 0-.2-.665l-1.2-.665a3.863 3.863 0 0 1-.468-.266 1.679 1.679 0 0 1-.468-.266l-.134-.067a.564.564 0 0 0-.736.266l-1 1.8 1.07.6 2.141 1.131z"/><path class="b" d="M99.556 28.162l1.271-2.328a1.679 1.679 0 0 1-.468-.266l-.134-.067a.564.564 0 0 0-.736.266l-1 1.8zM97.883 28.694L81.625 58.889l1.07.598 16.259-30.195-1.071-.598z"/><path class="e" d="M84.7 56.1a2.068 2.068 0 0 1-2.342-1.862l-1.268-9.183a2.145 2.145 0 0 1 1.873-2.328 2.113 2.113 0 0 1 2.337 1.862l1.271 9.178A2.106 2.106 0 0 1 84.7 56.1zM86.576 57.292a2.766 2.766 0 0 1 1.94-3.392l11.642-3.458a2.76 2.76 0 1 1 1.472 5.321l-11.642 3.458a2.787 2.787 0 0 1-3.412-1.929z"/><path class="k" d="M95.407 56.228l-8.029 2.394a2.858 2.858 0 0 0 2.609.6l11.642-3.458c8.965-2.727 8.564-9.045 8.5-9.577 0 0-1.271 6.451-14.719 10.043z"/><path class="h" d="M148.865 25.967c-9.166 1.463-34.724 5.52-34.724 5.52l.8 16.295s25.424-.133 33.921-.333z"/><path class="i" d="M148.865 44.789l-33.988.931.067 2.062 33.921-.133v-2.86z"/><path class="f" d="M78.012 31.354l-38.538-13.3-13.448 38.374 51.986-25.074zM43.489 26.1l18.131 6.252L37.2 44.124 43.489 26.1z"/><path class="p" d="M29.171 54.898l-1.137.532-.803-1.662 1.137-.532.803 1.662zM31.379 53.834l-1.071.532-.803-1.663 1.071-.532.803 1.663zM33.587 52.77l-1.071.532-.803-1.663 1.071-.532.803 1.663zM35.861 51.706l-1.137.532-.803-1.663 1.138-.532.802 1.663zM38.069 50.642l-1.07.532-.87-1.73 1.137-.532.803 1.73zM40.277 49.511l-1.07.532-.803-1.663 1.07-.532.803 1.663zM42.552 48.447l-1.137.532-.803-1.663 1.137-.532.803 1.663zM44.76 47.383l-1.071.532-.869-1.663 1.137-.532.803 1.663zM46.968 46.319l-1.071.532-.803-1.663 1.071-.532.803 1.663zM49.243 45.254l-1.138.533-.803-1.663 1.071-.532.87 1.662zM51.45 44.19l-1.07.532-.87-1.662 1.138-.532.802 1.662zM53.658 43.126l-1.07.532-.803-1.729 1.07-.532.803 1.729zM55.933 41.995l-1.137.533-.803-1.663 1.07-.532.87 1.662zM58.141 40.931l-1.07.532-.87-1.662 1.137-.532.803 1.662zM60.349 39.867l-1.071.532-.802-1.662 1.07-.533.803 1.663zM62.624 38.803l-1.138.532-.803-1.663 1.071-.532.87 1.663zM64.832 37.739l-1.138.532-.803-1.663 1.138-.532.803 1.663zM67.04 36.675l-1.071.532-.803-1.663 1.071-.532.803 1.663zM69.314 35.611l-1.137.532-.803-1.73 1.071-.465.869 1.663zM71.522 34.546l-1.137.466-.803-1.663 1.137-.532.803 1.729zM73.73 33.416l-1.07.532-.803-1.663 1.07-.532.803 1.663zM75.938 32.352l-1.071.532-.802-1.663 1.07-.532.803 1.663zM39.474 18.052l4.55 8.314 2.275-3.924-.669-2.262-6.156-2.128z"/><path class="g" d="M59.345 24.969L64.43 26.7c-1.673-5.188-.937-5.587-2.208-7.981a9.3 9.3 0 0 0-6.757-4.589H55.4l-3.145-12.1-12.179 6.711 4.416 13.767-1.07 4.855a2.2 2.2 0 0 0 1.673 2.594 2.165 2.165 0 0 0 1.137-.067 2.238 2.238 0 0 0 1.74 2.328 1.64 1.64 0 0 0 1.271-.133v.067a2.245 2.245 0 0 0 1.74 2.594 2.38 2.38 0 0 0 2.141-.8 1.81 1.81 0 0 0 1.137.665 2.163 2.163 0 0 0 2.609-1.661l.669-3.259 1.74-4.988z"/><path class="l" d="M50.781 1.425l-12.979 5.72 1.338 2.993 14.518-5.92-.736-2.793h-2.141z"/><path class="h" d="M33.854.028l3.68 7.981 15.79-6.318-.535-1.663H33.854z"/><path class="n" d="M33.854.028l3.68 7.981 15.79-6.318-.535-1.663H33.854z"/><path class="i" d="M47.771.028l2.274 2.993 3.279-1.33-.535-1.663h-5.018z"/><path class="e" d="M59.345 24.969L64.43 26.7c-.134-.4-.335-1.064-.335-1.064zM40.411 9.606l12.511-5.055.603 2.195-13.114 2.86z"/><path class="l" d="M132.139 104.647a1.281 1.281 0 0 1-1.405 1.131 1.294 1.294 0 0 1-1.137-1.463 1.281 1.281 0 0 1 1.403-1.131 1.294 1.294 0 0 1 1.137 1.463z"/><path class="l" d="M131.871 107.174a1.272 1.272 0 0 1-1.405 1.131 1.193 1.193 0 0 1-1.137-1.4 1.278 1.278 0 0 1 2.542.266z"/><path class="l" d="M131.6 109.768a1.322 1.322 0 0 1-1.4 1.132 1.344 1.344 0 0 1-1.2-1.463 1.39 1.39 0 0 1 1.472-1.131 1.342 1.342 0 0 1 1.137 1.463z"/><path class="l" d="M131.336 112.3a1.3 1.3 0 0 1-1.472 1.131 1.277 1.277 0 0 1-1.137-1.4 1.3 1.3 0 0 1 1.473-1.131 1.277 1.277 0 0 1 1.137 1.4z"/><path class="l" d="M131.068 114.889a1.39 1.39 0 0 1-1.472 1.131 1.342 1.342 0 0 1-1.137-1.463 1.322 1.322 0 0 1 1.405-1.131 1.344 1.344 0 0 1 1.2 1.463z"/><path class="l" d="M130.734 117.417a1.278 1.278 0 0 1-2.542-.266 1.272 1.272 0 0 1 1.405-1.131 1.193 1.193 0 0 1 1.137 1.4z"/><path class="b" d="M15.589 39.668h6.222v-1.264h-6.222v1.264zM3.747 118.68a7.184 7.184 0 0 0-.535 1.264H.937A7.182 7.182 0 0 1 .4 118.68z"/><path class="q" d="M85.372 76.846l-1.539 1.064 14.585 22.081 20.674 31.193 1.606-.998-35.326-53.34z"/><path class="r" d="M117.486 125.331l-1.605 1.064-.469-.798 1.539-1.064.535.798zM116.416 123.668l-1.606 1.065-.535-.799 1.606-1.064.535.798zM115.345 122.006l-1.605 1.064-.536-.798 1.606-1.064.535.798zM114.208 120.343l-1.606 1.064-.468-.798 1.606-.998.468.732zM113.137 118.747l-1.605.997-.535-.731 1.605-1.064.535.798zM112.067 117.084l-1.606 1.064-.535-.798 1.606-1.064.535.798zM110.93 115.421l-1.539 1.064-.535-.798 1.605-1.064.469.798zM109.859 113.759l-1.606 1.064-.535-.798 1.606-1.065.535.799zM108.789 112.162l-1.606.998-.535-.798 1.605-.998.536.798zM107.718 110.5l-1.606 1.064-.535-.798 1.606-1.064.535.798zM106.581 108.837l-1.606 1.064-.535-.798h.067l1.539-1.064.535.798zM105.51 107.174l-1.605 1.064-.536-.798 1.606-1.064.535.798zM104.44 105.511l-1.606 1.065-.535-.799 1.606-.997.535.731zM103.302 103.915l-1.605.998-.469-.732 1.606-1.064.468.798zM102.232 102.253l-1.606 1.064-.535-.798 1.606-1.065.535.799zM101.161 100.59l-1.605 1.064-.536-.798 1.606-1.064.535.798zM100.024 98.927l-1.606 1.064-.468-.798 1.606-1.064.468.798zM98.954 97.264l-1.606 1.065-.535-.799 1.605-.997.536.731zM97.883 95.668l-1.606.998-.535-.732 1.606-1.064.535.798zM96.746 94.005l-1.539 1.065-.535-.799 1.605-1.064.469.798zM95.675 92.343l-1.606 1.064-.535-.798 1.606-1.064.535.798zM94.605 90.68l-1.606 1.064-.535-.798 1.605-1.064.536.798zM93.467 89.084l-1.539.997-.535-.798 1.606-.997.468.798zM92.397 87.421l-1.606.998-.535-.732 1.605-1.064.536.798zM91.326 85.758l-1.605 1.064-.536-.798 1.606-1.064.535.798zM90.256 84.096L88.65 85.16l-.535-.798 1.606-1.064.535.798zM89.118 82.433l-1.605 1.064-.469-.798 1.539-.998.535.732zM88.048 80.837l-1.606.997-.535-.731 1.606-1.064.535.798z"/><path class="b" d="M120.029 126.063l-1.405.931-.535-.798 1.405-.931.535.798zM118.891 124.4l-1.405.931-.535-.798 1.405-.931.535.798zM117.821 122.737l-1.405.931-.535-.798 1.405-.931.535.798zM116.75 121.141l-1.405.865-.535-.798 1.405-.865.535.798zM116.817 118.68l-2.609 1.663-.468-.732 2.609-1.729.468.798zM114.543 117.816l-1.406.931-.535-.798 1.405-.932.536.799zM113.472 116.153l-1.405.931-.535-.798 1.405-.931.535.798zM112.335 114.49l-1.405.931-.469-.798 1.405-.864.469.731zM111.264 112.894l-1.405.865-.535-.799 1.405-.864.535.798zM111.398 110.433l-2.609 1.729-.536-.798 2.61-1.729.535.798zM109.123 109.568l-1.405.932-.535-.798 1.405-.932.535.798zM107.986 107.906l-1.405.931-.535-.798 1.405-.931.535.798zM106.915 106.243l-1.405.931-.535-.798 1.405-.865.535.732zM105.845 104.647l-1.405.864-.535-.731 1.405-.931.535.798zM105.912 102.186l-2.61 1.729-.468-.798 2.542-1.729.536.798zM103.637 101.321l-1.405.932-.535-.799 1.405-.931.535.798zM102.566 99.659l-1.405.931-.535-.798 1.405-.931.535.798zM101.429 97.996l-1.405.931-.468-.798 1.405-.865.468.732zM100.359 96.4l-1.405.931-.536-.798 1.405-.931.536.798zM100.492 93.939l-2.609 1.729-.535-.798 2.609-1.729.535.798zM98.151 93.074l-1.405.931-.469-.798 1.405-.931.469.798zM97.08 91.412l-1.405.931-.535-.798 1.405-.865.535.732zM96.01 89.815l-1.405.865-.536-.732 1.405-.931.536.798zM94.872 88.153l-1.405.931-.468-.798 1.405-.931.468.798zM95.006 85.692l-2.609 1.729-.536-.798 2.61-1.729.535.798zM92.731 84.827l-1.405.931-.535-.798 1.405-.931.535.798zM91.661 83.164l-1.405.932-.535-.798 1.405-.865.535.731zM90.523 81.568l-1.405.865-.535-.732 1.405-.931.535.798zM89.453 79.906l-1.405.931-.535-.798 1.405-.932.535.799z"/><path class="r" d="M118.585 127.021l-1.606 1.065-.468-.799 1.539-1.064.535.798z"/><path class="a" d="M51.533 88.639A13.476 13.476 0 0 0 60.4 108.2l.884.152a11.291 11.291 0 0 1-18.082-11.38 11.462 11.462 0 0 1 8.328-8.331"/><path class="g" d="M41.255 106.3a1.853 1.853 0 1 1-1.239-2.267 1.853 1.853 0 0 1 1.239 2.267z"/><path class="r" d="M40.792 96.374a13.675 13.675 0 0 0 10.214 16.587 13.789 13.789 0 1 0-10.214-16.587"/><path class="o" d="M43.205 96.969a11.315 11.315 0 1 0 13.7-8.345 11.389 11.389 0 0 0-13.7 8.345"/><path class="q" d="M51.424 88.741a13.426 13.426 0 0 0 8.851 19.5 5 5 0 0 0 .9.215A11.321 11.321 0 0 1 43.1 97.071a11.263 11.263 0 0 1 8.328-8.331"/><path class="r" d="M26.06 118.985l18.84-11.693-1.948-3.235-18.905 11.712a1.844 1.844 0 0 0-.632 2.55 1.886 1.886 0 0 0 2.644.665"/><path class="p" d="M25.625 114.741l-1.577 1.029-.192.058c-.045.083-.109.1-.154.185l1.654 3.184a.607.607 0 0 0 .34-.032.065.065 0 0 1 .045-.083l.128-.038.192-.058 1.706-1.067z"/><path class="s" d="M42.544 120.845l.774-6.967a4.54 4.54 0 0 0-.77-3.033l-4.893-7.7a2.287 2.287 0 0 0-2.894-.8 2.168 2.168 0 0 0-1.068 2.959l.038.127a2.21 2.21 0 0 0-2.689-.582 2.172 2.172 0 0 0-1.171 2.851 2.285 2.285 0 0 0-3.7 2.568 1.743 1.743 0 0 0 .735.821 2.293 2.293 0 0 0-1.634.143 2.171 2.171 0 0 0-1.132 2.978l.019.064 7.241 14.148c.269.2 6.343 9.971 6.343 9.971l13.516-4.54z"/><path class="g" d="M42.368 137.493l-16.414-24.448-.019-.064a2.072 2.072 0 0 1 .042-1.957 1.383 1.383 0 0 0-.7.211 2.171 2.171 0 0 0-1.132 2.978l.019.064 7.236 14.145c.269.2 6.848 10.722 6.848 10.722"/><path class="t" d="M48 125.528a.613.613 0 0 1-.238.835l-14.238 7.256a.616.616 0 0 1-.839-.234l-1.532-3.012a.611.611 0 0 1 .3-.855l14.174-7.237a.616.616 0 0 1 .839.234z"/><path class="u" d="M48 125.528a.613.613 0 0 1-.238.835l-14.238 7.256a.616.616 0 0 1-.839-.234l-1.532-3.012a.611.611 0 0 1 .3-.855l14.174-7.237a.616.616 0 0 1 .839.234z"/><path d="M45.46 127.539l-9.572 4.885-2.132-4.082 9.571-4.885 2.133 4.082z"/><path class="o" d="M43.942 127.37l-2.366 1.195-1.334-2.585 2.365-1.196 1.335 2.586z"/><path class="c" d="M42.182 126.162l-.596.109.134.446.128-.039-.057-.191.192-.058.07.466-.033.357-.327.306.103.108.391-.325-.006-.485.314.114-.014.421.129-.038.058-.504-.378-.095-.031-.338.249.134.219-.204-.103-.109-.173.122-.269-.197z"/><path class="n" d="M42.182 126.162l-.596.109.134.446.128-.039-.057-.191.192-.058.07.466-.033.357-.327.306.103.108.391-.325-.006-.485.314.114-.014.421.129-.038.058-.504-.378-.095-.031-.338.249.134.219-.204-.103-.109-.173.122-.269-.197z"/><path class="c" d="M42.234 125.868a.213.213 0 0 1-.135.249q-.221-.038-.25-.133a.2.2 0 0 1 .385-.115z"/><path class="o" d="M41.448 128.604l-2.346 1.259-1.335-2.586 2.347-1.259 1.334 2.586z"/><path class="c" d="M38.74 127.958l.395.853 1.398-.697-.396-.853-.43.893-.967-.196z"/><path class="n" d="M38.74 127.958l.395.853 1.398-.697-.396-.853-.43.893-.967-.196z"/><path class="c" d="M38.618 127.786l.019.064.967.196.431-.893-.019-.064-1.398.697z"/><path class="n" d="M38.618 127.786l.019.064.967.196.431-.893-.019-.064-1.398.697z"/><path class="o" d="M38.973 129.901l-2.365 1.196-1.334-2.585 2.365-1.196 1.334 2.585z"/><path class="c" d="M37.682 128.622a.423.423 0 0 0-.589-.1c-.128.038-.237.141-.2.268a.513.513 0 0 0-.359-.031.487.487 0 0 0-.251.561c.179.363.832.445 1.126.5.116-.313.45-.829.271-1.192"/><path class="h" d="M49.675 130.649l-13.147 6.235 6.312 13.06 20.875.084-14.04-19.379z"/><path class="i" d="M50.869 150.028h-8.367l-5.974-13.144 4.102-1.925 10.239 15.069z"/></svg>