<svg xmlns="http://www.w3.org/2000/svg" viewBox="0 0 141.054 141.054"><title>zerodata-get-back-to-recent-work</title><path d="M11.965,70.844c0,32.259,26.448,58.193,58.562,58.193S129.09,103.1,129.09,70.844a58.563,58.563,0,1,0-117.125,0Zm129.09,0A70.528,70.528,0,1,1,70.527,0,70.435,70.435,0,0,1,141.054,70.844Z" fill="#106ebe" fill-rule="evenodd"/><circle cx="70.527" cy="70.527" r="59.677" fill="#ffcb40"/><path d="M111.924,113.489A59.661,59.661,0,1,0,27.565,29.131Z" fill="#ffcb40"/><path d="M71.547,75.282A5,5,0,0,1,68.9,68.724L81.829,38.36a5,5,0,0,1,9.2,3.917L78.106,72.64A5,5,0,0,1,71.547,75.282Z" fill="#f5b815"/><path d="M72.738,75.756a5,5,0,0,1-4.192-5.694L73.5,37.436a5,5,0,1,1,9.887,1.5L78.432,71.564A5,5,0,0,1,72.738,75.756Z" fill="#dd9a05"/><path d="M24.222,66.434a5,5,0,0,1,5.56-4.369l42.562,4.941a5,5,0,1,1-1.191,9.929L28.591,71.994A5,5,0,0,1,24.222,66.434Z" fill="#dd9a05"/><path d="M111.967,91.5a1.5,1.5,0,0,1-.643-.146l-40-19a1.5,1.5,0,0,1,1.287-2.71l40,19a1.5,1.5,0,0,1-.645,2.855Z" fill="#d83b01"/><path d="M26.607,87.453a5,5,0,0,1,3.03-6.389l40.3-14.547A5,5,0,0,1,73.3,75.936L33,90.483A5,5,0,0,1,26.607,87.453Z" fill="#c98909"/><path d="M36.837,103.188a5,5,0,0,1,.389-7.06l31.812-28.7a5,5,0,0,1,6.671,7.45L43.9,103.577A5,5,0,0,1,36.837,103.188Z" fill="#004880"/><path d="M71.968,76a5,5,0,0,1-5-5V38a5,5,0,0,1,10,0V71A5,5,0,0,1,71.968,76Z" fill="#004880"/><circle cx="72.343" cy="71.75" r="10.076" fill="#106ebe"/><circle cx="72.343" cy="71.75" r="4.75" fill="#004880"/></svg>