<svg xmlns="http://www.w3.org/2000/svg" viewBox="0 0 161.811 150"><title>zerodata-build-release-monitor-activities</title><rect x="9.449" width="142.913" height="87.402" fill="#b3d6f2"/><path d="M119.875,67.323h-.742a10.363,10.363,0,0,0,.843-2.96,7.77,7.77,0,0,0-7.8-7.783,7.556,7.556,0,0,0-7.583,6.731,8.45,8.45,0,0,0-5.9-2.524,7.987,7.987,0,0,0-7.793,7.361,10.547,10.547,0,0,0-2.527-.42A7.77,7.77,0,0,0,82.8,69.993a7.887,7.887,0,0,0-6.313-3.008,10.792,10.792,0,0,0-2.585.431,8.171,8.171,0,0,0-7.973-7.531,8.643,8.643,0,0,0-6.034,2.582,7.73,7.73,0,0,0-7.758-6.886,7.993,7.993,0,0,0-6.646,3.551,7.975,7.975,0,0,0-8.5,13.483,7.325,7.325,0,0,0-.607,2.935c0,3.959-2.9,11.852,1.069,11.852l85.427.4c4.322,0,5-8.178,5-12.493A7.971,7.971,0,0,0,119.875,67.323Z" fill="#fff"/><path d="M60.236,72.047h-5.9V23.35l5.9-5.822Zm-4.724-1.181h3.543V20.352l-3.543,3.493Z" fill="#3290db"/><polygon points="54.738 70.778 53.891 69.954 58.804 65.628 54.454 61.319 54.449 60.5 58.783 56.147 54.511 51.922 54.506 51.096 58.91 46.73 55.266 42.963 54.528 41.24 58.865 37.163 54.316 33.234 54.318 32.462 59 28.666 54.507 24.536 55.335 23.692 60.162 28.096 60.195 29.166 55.692 32.849 60.119 36.807 60.089 37.611 55.881 41.88 60.155 46.305 60.162 47.133 55.758 51.501 60.025 55.723 60.033 56.545 55.696 60.901 60.052 65.216 60.052 66.041 54.738 70.778" fill="#3290db"/><rect x="55.019" y="23.622" width="4.036" height="1.181" fill="#3290db"/><rect x="54.331" y="28.027" width="4.724" height="1.181" fill="#3290db"/><rect x="54.454" y="32.185" width="4.724" height="1.181" fill="#3290db"/><rect x="54.331" y="36.614" width="4.724" height="1.181" fill="#3290db"/><polygon points="59.055 42.52 54.331 42.52 54.601 41.339 59.055 41.339 59.055 42.52" fill="#3290db"/><rect x="54.331" y="46.063" width="4.724" height="1.181" fill="#3290db"/><rect x="54.331" y="50.787" width="4.724" height="1.181" fill="#3290db"/><rect x="54.331" y="55.512" width="4.724" height="1.181" fill="#3290db"/><rect x="54.331" y="60.236" width="4.724" height="1.181" fill="#3290db"/><rect x="54.331" y="64.961" width="4.724" height="1.181" fill="#3290db"/><rect x="56.073" y="21.4" width="17.106" height="1.182" transform="translate(5.772 56.579) rotate(-49.235)" fill="#3290db"/><polygon points="59.305 32.529 59.24 30.848 62.587 26.998 62.598 23.62 63.78 23.624 63.767 27.223 63.62 27.61 59.305 32.529" fill="#3290db"/><path d="M55.512,72.047H49.606V46.091l5.906-5.835Zm-4.725-1.181h3.544l.32-28-3.864,3.755Z" fill="#3290db"/><polygon points="54.792 70.684 49.669 66.027 49.669 65.248 54.158 60.851 49.664 56.545 49.665 55.815 54.157 51.507 49.902 47.982 50.413 46.822 55.363 51.033 55.413 51.821 50.88 56.182 55.39 60.508 55.37 61.261 50.898 65.638 55.68 69.905 54.792 70.684" fill="#3290db"/><rect x="49.606" y="46.063" width="4.724" height="1.181" fill="#3290db"/><rect x="49.606" y="50.787" width="4.724" height="1.181" fill="#3290db"/><rect x="49.606" y="55.512" width="4.724" height="1.181" fill="#3290db"/><rect x="49.606" y="60.236" width="4.724" height="1.181" fill="#3290db"/><rect x="49.606" y="64.961" width="4.724" height="1.181" fill="#3290db"/><path d="M35.6,87.4H85.886a4.677,4.677,0,0,0-6.877-1.993,9.864,9.864,0,0,0-8.11-8.325,10.372,10.372,0,0,0-7.611,2.02,9.275,9.275,0,0,0-8.018-9.518,9.579,9.579,0,0,0-6.151,1.168A8.067,8.067,0,1,0,36.56,80.732Z" fill="#b3d6f2"/><path d="M134.407,150H94.944a3.681,3.681,0,0,1-3.689-2.909,3.547,3.547,0,0,1,3.488-4.178h39.463a3.681,3.681,0,0,1,3.689,2.909A3.546,3.546,0,0,1,134.407,150Z" fill="#b2b2b2"/><path d="M76.727,32.774c-3.148,1.225-4.911,3.117-4.966,7.362a21.047,21.047,0,0,0,.8,6.861l.625-.018c.251-.7,2-5.148,6.088-6.311,3.385-.964-2.548-7.894-2.548-7.894" fill="#2488d8"/><path d="M88.246,32.432c3.165,1.038,4.956,2.825,5.077,7.065a21.368,21.368,0,0,1-.7,6.905L92,46.421c-.262-.682-2.079-5.027-6.182-5.948-3.4-.762,2.425-8.041,2.425-8.041" fill="#005a93"/><path d="M81.805,39.071s-6.682,2.543,1.326,11.9c7.333-9.685.261-11.986.261-11.986Z" fill="#ff8c00"/><path d="M87.556,17.424l-10.489.311a20.729,20.729,0,0,0-2.218,8.408c.037,7.449,3.79,14,4.165,14.668l7.315-.217c0-.372,3.553-7.407,3.516-14.855a20.441,20.441,0,0,0-2.289-8.315" fill="#005a93"/><path d="M82.434,8.936a39.6,39.6,0,0,0-5.354,8.8l5.42-.161,5.07-.151a43.064,43.064,0,0,0-5.136-8.487" fill="#2488d8"/><path d="M87.556,17.424l-1.281.038a22.182,22.182,0,0,1,1.843,8,43.736,43.736,0,0,1-3.139,15.172l1.35-.04c0-.372,3.553-7.407,3.516-14.855a20.441,20.441,0,0,0-2.289-8.315" fill="#2488d8"/><path d="M85.256,23.927a2.875,2.875,0,0,1-2.8,2.863,2.728,2.728,0,0,1-2.841-2.7,2.876,2.876,0,0,1,2.8-2.863,2.728,2.728,0,0,1,2.841,2.7" fill="#ffb900"/><path d="M86.244,17.463l1.326-.04a43.1,43.1,0,0,0-5.136-8.487s-.294.359-.753.972a42.824,42.824,0,0,1,4.563,7.555" fill="#69afe5"/><rect width="36.614" height="87.402" fill="#69afe5"/><rect x="125.197" width="36.614" height="87.402" fill="#69afe5"/><rect x="12.992" y="56.693" width="31.89" height="20.079" fill="none"/><path d="M32.9,21.26h-.925a13.442,13.442,0,1,0-26.883,0H4.164a14.367,14.367,0,1,1,28.733,0Z" fill="#b3d6f2"/><path d="M27.347,21.26h-.925a7.892,7.892,0,1,0-15.783,0H9.714a8.817,8.817,0,0,1,17.633,0Z" fill="#b3d6f2"/><rect x="10.895" y="9.87" width="0.925" height="16.094" transform="translate(-9.743 20.107) rotate(-63.557)" fill="#b3d6f2"/><rect x="16.545" y="17.339" width="16.749" height="0.925" transform="translate(-5.298 12.826) rotate(-26.19)" fill="#b3d6f2"/><rect x="17.717" y="5.906" width="1.181" height="15.354" fill="#b3d6f2"/><rect x="2.362" y="21.26" width="31.89" height="1.181" fill="#b3d6f2"/><rect x="12.992" y="68.504" width="3.543" height="9.449" fill="#b3d6f2"/><rect x="7.087" y="69.685" width="3.543" height="8.268" fill="#b3d6f2"/><rect x="18.898" y="66.142" width="3.543" height="11.811" fill="#b3d6f2"/><rect x="24.803" y="61.417" width="3.543" height="16.535" fill="#b3d6f2"/><rect x="129.921" y="5.906" width="25.984" height="16.535" fill="#b3d6f2"/><rect x="133.465" y="9.449" width="9.449" height="3.543" fill="#69afe5"/><rect x="133.465" y="15.354" width="15.354" height="3.543" fill="#69afe5"/><circle cx="142.913" cy="69.685" r="10.63" fill="#b3d6f2"/><line x1="148.819" y1="70.276" x2="152.362" y2="70.276" fill="#b3d6f2"/><rect x="148.819" y="69.685" width="3.543" height="1.181" fill="#69afe5"/><rect x="133.465" y="69.685" width="3.543" height="1.181" fill="#69afe5"/><rect x="141.732" y="75.591" width="1.181" height="3.543" fill="#69afe5"/><line x1="142.323" y1="60.236" x2="142.323" y2="63.78" fill="#b3d6f2"/><rect x="141.732" y="60.236" width="1.181" height="3.543" fill="#69afe5"/><rect x="141.572" y="66.928" width="9.186" height="1.182" transform="translate(-3.006 128.106) rotate(-46.899)" fill="#fff"/><circle cx="142.913" cy="70.866" r="1.181" fill="#fff"/><rect x="5.906" y="47.244" width="15.354" height="2.362" fill="#fff"/><rect x="5.906" y="35.433" width="7.087" height="2.362" fill="#fff"/><rect x="5.906" y="41.339" width="3.543" height="2.362" fill="#fff"/><rect x="15.354" y="35.433" width="15.354" height="2.362" fill="#b3d6f2"/><rect x="11.811" y="41.339" width="18.898" height="2.362" fill="#b3d6f2"/><rect x="23.622" y="47.244" width="7.087" height="2.362" fill="#b3d6f2"/><rect x="125.197" y="56.693" width="36.614" height="1.181" fill="#b3d6f2"/><rect x="125.197" y="28.346" width="36.614" height="1.181" fill="#b3d6f2"/><rect y="56.693" width="36.614" height="1.181" fill="#b3d6f2"/><rect y="28.346" width="36.614" height="1.181" fill="#b3d6f2"/><path d="M103.812,87.058H94.678a.871.871,0,0,1-.691-.341l-8.264-10.8a.522.522,0,0,1,.415-.84h9.181a.774.774,0,0,1,.615.3l8.293,10.833A.523.523,0,0,1,103.812,87.058Z" fill="#505050"/><path d="M103.448,86.448H94.69a.561.561,0,0,1-.445-.22l-7.933-10.3a.249.249,0,0,1,.2-.4h8.8a.476.476,0,0,1,.377.186l7.959,10.329A.249.249,0,0,1,103.448,86.448Z" fill="#69afe5"/><path d="M95.727,83.6a1.066,1.066,0,0,0-.349-1.211c-.468-.3-3.794-2.988-3.794-2.988-.272-.284-.6.017-.71.276-.139.317.131.8.42,1.1s3.425,3.023,3.425,3.023a.567.567,0,0,0,.861,0c.073-.067.145-.134.147-.2" fill="#bb9167"/><path d="M123.527,142.751a43.351,43.351,0,0,1-5.385,2.948c-.219.1.111,1.588.111,1.588l10.986-.765-.435-4.241Z" fill="#737373"/><path d="M128.915,143.122a6.253,6.253,0,0,0-4.739,2.929l5.025-.324Z" fill="#505050"/><polygon points="118.109 146.473 129.165 145.704 129.274 146.52 118.253 147.287 118.109 146.473"/><path d="M112.443,142.983a47.739,47.739,0,0,1-5.959,2.567c-.241.082,0,1.592,0,1.592h11.769l-.149-4.262Z" fill="#737373"/><path d="M118.16,143.727a6.763,6.763,0,0,0-5.27,2.593l5.382.026Z" fill="#505050"/><polygon points="106.391 146.32 118.235 146.32 118.29 147.142 106.484 147.142 106.391 146.32"/><polygon points="129.051 142.413 124.578 142.966 123.949 138.06 128.142 137.507 129.051 142.413" fill="#909090"/><path d="M119.652,101.848l-8.494-1.162-1.606,19.864v.431l2.376,22.039,6.569.288-1.8-22.425Z" fill="#005850"/><path d="M125.7,120.356l.186-17.656c-.753-.1-2.812-.384-8.407-1.15l1.089,19.36v.36l4.263,21.894,6.5-.36Z" fill="#005850"/><path d="M125.7,120.356l.186-17.656c-.753-.1-4.7.813-6.853.555l1.55,17.462v.359l4.132,21.955,4.616-.227Z" fill="#003d41"/><path d="M120.583,101.791c-.418-.057-1.25.065-1.722,0l-3.855,19.032,2.22,22.429,1.271.056-1.8-22.425Z" fill="#003d41"/><path d="M116.106,67.611v4.563l5.854-.086a11.319,11.319,0,0,1-1.334-6.436C121.056,62.209,116.106,67.611,116.106,67.611Z" fill="#a8825c"/><path d="M115.166,56.8c-.644,1.34-1.365,2.674-1.31,3.281a10.09,10.09,0,0,1-.477,2.908s-.245,3.865-.183,4.238a6.792,6.792,0,0,0,3.914.793c1.771-.109,5.952-1.872,7.1-5.248S117.021,52.944,115.166,56.8Z" fill="#bb9167"/><path d="M112.18,66.188l.083-.511a21.478,21.478,0,0,0,3.762.281,6.04,6.04,0,0,0,3.482-1.925l.389.339a6.476,6.476,0,0,1-3.833,2.1A21.733,21.733,0,0,1,112.18,66.188Z"/><ellipse cx="111.973" cy="65.975" rx="0.984" ry="1.08" transform="translate(-13.838 98.569) rotate(-45.031)"/><path d="M125.714,58.883c-.421-3.034-3.094-4.909-6.773-4.9-5.907.01-3.7,2.4-3.7,2.4s.226-.15,1.032-.055c2,.236-.551,1.312-.008,2.1.5.737.235,2.434.094,3.721,0,.009,0,.013,0,.022l.921.171a8.124,8.124,0,0,1,.582-1.446c.279-.441.987-.189,1.028.475a3.883,3.883,0,0,1-1.524,2.782c.359,2.19.766,2.677,1.521,3.4.189.029.314.037.314.037a11.854,11.854,0,0,0,3.169-1.152A7.818,7.818,0,0,0,125.714,58.883Z"/><path d="M115.48,71.854l-2-1.82a25.606,25.606,0,0,1,7.749-.118c1.2.238,1.458,1.871,1.458,1.871Z" fill="#40c5af"/><path d="M111.005,71.754c5.036-1.42,13.4-.613,15.981.42s-.032,33.061-.032,33.061H109.907l-.258-28.455Z" fill="#008272"/><path d="M95.314,82.393c-.652-.7-2.531-1.5-3.282-1.137l-2.372-.594c-.417-.081-.762.045-.854.415a.79.79,0,0,0,.5.863c.131.047.2.079.2.079-.339.049-.472.617-.293.955a9.739,9.739,0,0,0,1.775,2.163c.5.42,1.97.29,2.583.5L99.8,87.663l.641-4.051Z" fill="#bb9167"/><path d="M109.56,73.453c-1.823,5.277-3.153,10.486-3.363,11.151-1.779-.161-8.754-1.873-9.4-2.034-1.033-.258-2.538,3.852-.775,4.456s7.856,2.651,9.815,3.034c2.97.582,4.584.711,5.488-2.2,1.263-4.059,2.425-8.915,3.481-11.924C116.484,71.165,110.734,70.055,109.56,73.453Z" fill="#005850"/><rect x="109.95" y="74.172" width="3.054" height="4.315" transform="translate(27.423 -29.445) rotate(17.128)" fill="#40c5af"/><rect x="153.543" y="34.252" width="2.362" height="17.717" fill="#b3d6f2"/><rect x="153.543" y="44.882" width="2.362" height="3.543" fill="#fff"/><rect x="146.457" y="34.252" width="2.362" height="17.717" fill="#b3d6f2"/><rect x="146.457" y="44.882" width="2.362" height="3.543" fill="#fff"/><rect x="139.37" y="34.252" width="2.362" height="17.717" fill="#b3d6f2"/><rect x="139.37" y="44.882" width="2.362" height="3.543" fill="#fff"/><rect x="132.283" y="34.252" width="2.362" height="17.717" fill="#b3d6f2"/><rect x="132.283" y="44.882" width="2.362" height="3.543" fill="#fff"/></svg>