<svg xmlns="http://www.w3.org/2000/svg" viewBox="0 0 142.4 120"><title>zerodata-this-repository-has-no-tags-yet</title><path d="M142.4 16v98.26a6.009 6.009 0 0 1-6.248 5.74H6.248A6.01 6.01 0 0 1 0 114.26V5.653C0 2.531 2.8 0 6.248 0h45a5.4 5.4 0 0 1 5 2.285c1.652 2.048 4.831 5.83 4.831 5.83 1.516 2.048 3.028 2.285 5 2.285h70.1c3.441 0 6.221 2.507 6.221 5.6z" fill="#235a89"/><path d="M142.4 18.453v95.807a6.01 6.01 0 0 1-6.248 5.74H6.248A6.01 6.01 0 0 1 0 114.26V28.8c0-3.093 2.779-5.6 6.208-5.6h46.049c1.976 0 3.488-.236 5-2.285 0 0 3.179-3.782 4.831-5.83a5.4 5.4 0 0 1 5-2.285h69.057c3.449 0 6.247 2.531 6.247 5.653z" fill="#69afe5"/><path d="M35.2 57.6h-1.6V56h1.6zM32 84h1.6v-1.6H32zm-3.2-3.2h-1.6v1.6h1.6zm0-3.2h-1.6v1.6h1.6zm6.4 6.4h1.6v-1.6h-1.6zm9.6 0h1.6v-1.6h-1.6zm0-28h-1.6v1.6h1.6zm-3.2 28h1.6v-1.6h-1.6zm0-28H40v1.6h1.6zm-3.2 0h-1.6v1.6h1.6zm0 28H40v-1.6h-1.6zm-9.6 0h1.6v-1.6h-1.6zm52.619-20.839l1.181-1.078-1.076-1.183-1.183 1.078zM79.264 60.8l1.183-1.078-1.077-1.188-1.183 1.078zm4.309 4.732l1.181-1.078-1.075-1.182-1.179 1.073zM28.8 74.4h-1.6V76h1.6zm59.082-4.141l1.183-1.078L87.987 68 86.8 69.076zM28 57.6h1.6V56h-2.4v.8h.8zm57.727 10.293l1.183-1.078-1.078-1.183-1.182 1.075zM28.8 68h-1.6v1.6h1.6zm0 3.2h-1.6v1.6h1.6zm0-12.8h-1.6V60h1.6zm0 3.2h-1.6v1.6h1.6zm0 3.2h-1.6v1.6h1.6zM32 56h-1.6v1.6H32zm41.6 28h1.6v-1.6h-1.6zm0-28H72v1.6h1.6zm3.286 2.522l1.183-1.078L76.753 56H75.2v1.6h.85zM70.4 84H72v-1.6h-1.6zm5.959-1.35l.441.417V84h.486l1.238-1.312-1.163-1.1zM70.4 56h-1.6v1.6h1.6zm9.94 22.487l1.163 1.1 1.1-1.163-1.163-1.1zm7.694-8.142l-1.1 1.162 1.163 1.1 1.1-1.163zm-9.888 10.469l1.163 1.1 1.1-1.163-1.166-1.1zm6.592-6.978l1.163 1.1L87 73.77l-1.163-1.1zM67.2 84h1.6v-1.6h-1.6zm15.338-7.838l1.163 1.1L84.8 76.1 83.634 75zM67.2 56h-1.6v1.6h1.6zm-12.8 0h-1.6v1.6h1.6zm3.2 0H56v1.6h1.6zm-3.2 28H56v-1.6h-1.6zm-3.2 0h1.6v-1.6h-1.6zm0-28h-1.6v1.6h1.6zM48 84h1.6v-1.6H48zm16 0h1.6v-1.6H64zM48 56h-1.6v1.6H48zm16 0h-1.6v1.6H64zm-3.2 28h1.6v-1.6h-1.6zm-3.2 0h1.6v-1.6h-1.6zm3.2-28h-1.6v1.6h1.6z" fill="#fff"/><path d="M97.6 12.8V120H96V12.8z" fill="#505050"/><path d="M100.754 70.147a3.84 3.84 0 1 1-3.84-3.84 3.84 3.84 0 0 1 3.84 3.84z" fill="#fff"/></svg>