<svg xmlns="http://www.w3.org/2000/svg" viewBox="0 0 150 150"><defs><clipPath id="a"><path fill="none" d="M6 82h137v60H6z"/></clipPath></defs><title>dayzero-no-charts</title><circle cx="34.167" cy="41" r="29" fill="#804097"/><path d="M17.284 64.572L34 40.667V12a28.993 28.993 0 0 0-16.716 52.572z" fill="#009bcc"/><path d="M33.4 41.529l.6-.862V12A28.981 28.981 0 0 0 7.479 52.328z" fill="#c8c5c6"/><path d="M33.418 41.5l.582-.833V12A29 29 0 0 0 7.242 30.229z" fill="#f58b1f"/><path d="M33.791 40.966l.209-.3V12a28.857 28.857 0 0 0-12.644 2.979z" fill="#ffcc05"/><circle cx="34.167" cy="41" r="14.5" fill="#fff"/><path fill="#92d4e9" d="M73 55h71v15H73zM73 37h55v15H73zM73 19h29v15H73z"/><path fill="#6dc6e2" d="M73 55h60v15H73zM73 37h33v15H73z"/><path fill="#009bcc" d="M73 55h24v15H73zM73 37h9v15h-9z"/><path fill="#6dc6e2" d="M73 19h19v15H73z"/><path fill="#009bcc" d="M73 19h3v15h-3z"/><g clip-path="url(#a)"><path fill="#c8c5c6" d="M143.667 93.621l-7.334 4.046h-6l-10 6.333h-10l-18-11.667H69L57.333 85l-5 2L46 86.333 38 87l-10-3.667-22.667 7.158V142h138.334V93.621z"/><path fill="#ffcc05" d="M143.667 99.118l-7.334 3.587h-6l-10 5.613h-10l-18-10.341H69l-11.667-6.5-5 1.773L46 92.659l-8 .591L28 90 5.333 96.344V142h138.334V99.118z"/><path fill="#f58b1f" d="M143.667 106.966l-10.854 4.212h-7.606l-13.797 4.692-9.332-1.389-14.586-.878-19.941-11.981-9.766 1.503-11.872-7.458-10.116 3.113L26 94 5.667 98v36.005l138 2.209v-29.248z"/><path fill="#009bcc" d="M143.667 110.967l-10.854 3.637h-7.606l-13.797 4.049-9.332-1.198-14.586-.759-16.941-8.615-9.766 1.298-10.872-4.712-10.116 2.687-17.02-2.314-17.11 4.771v24.496l138 1.907v-25.247z"/><path fill="#006c63" d="M132.684 117l-4.447 5.816-5.132 1.026L112.5 130H77.109l-5.885-9H41.439l-9.545-7H5v29l140 .674V117h-12.316z"/></g></svg>