<svg xmlns="http://www.w3.org/2000/svg" viewBox="0 0 145.344 150"><defs><style>.a{fill:#333}.b{fill:#9080cf}.c{fill:#522882}.d{fill:#737373}.e{fill:#505050}.f{fill:#ff8c00}.g{fill:#ffb900}</style></defs><title>zerodata-automate-build-definitions</title><path class="a" d="M103.607 122.688h6.466v4.043h-6.466zM133.452 122.688h6.466v4.043h-6.466z"/><path class="b" d="M106.258 99.037h39.086v24.27h-39.086z"/><path class="c" d="M106.258 123.306h-9.75v-24.27h9.75z"/><path class="b" d="M106.258 125.73h39.086V150h-39.086z"/><path class="c" d="M106.258 150h-9.75v-24.27h9.75z"/><path class="d" d="M77.726 49.913h2.142V4.001h-2.142v45.912z"/><path class="c" d="M62.848 83.417h-9.75v-24.27h9.75z"/><path class="b" d="M62.848 125.73h39.086V150H62.848z"/><path class="c" d="M62.848 150h-9.75v-24.27h9.75z"/><path class="d" d="M59.058 83.417h-2.171V58.46L78.63 48.155l21.162 11.31-1.987 1.399-19.235-10.28-19.512 9.249v23.584z"/><path class="b" d="M62.848 59.147h39.086v24.27H62.848z"/><path class="e" d="M68.314 3.449h15.143v4.904H68.314z"/><path class="f" d="M12.5 63.661a5.913 5.913 0 0 1-.346-8.355l48.237-53.4a5.913 5.913 0 0 1 8.7 8.009l-48.237 53.4a5.913 5.913 0 0 1-8.354.346z"/><circle class="d" cx="64.745" cy="5.913" r="4.041" transform="rotate(-47.374 64.744 5.913)"/><path class="g" d="M9.192 143V57.744a8.653 8.653 0 0 1 17.307 0V143c.001 4.778-17.307 4.778-17.307 0z"/><circle class="d" cx="17.846" cy="57.744" r="5.913"/><path class="e" d="M31.238 139.393H4.097L0 149.666h35.335l-4.097-10.273z"/></svg>