<svg xmlns="http://www.w3.org/2000/svg" viewBox="0 0 150 150"><title>dayzero-unsaved-query</title><path fill="#eaeaea" d="M3 14h135v85H3z"/><path d="M35.625 75.9a21.987 21.987 0 1 0-21.987-21.983A21.987 21.987 0 0 0 35.625 75.9zM119.191 65H68v10h60V65h-8.809zM95.921 58H114V48H68v10h27.921zM83.591 42H92V32H68v10H83.591z" fill="none" stroke="#ea4300" stroke-miterlimit="10" stroke-width="2" stroke-dasharray="2 2"/><path fill="none" stroke="#ea4300" stroke-miterlimit="10" stroke-width="2" stroke-dasharray="2 2" d="M18.618 66.906L37 54.652V33M25 35.504l10.467 18.637"/><circle cx="110.5" cy="104.5" r="34.5" fill="#2488d8"/><path d="M127.572 121H95.428A1.428 1.428 0 0 1 94 119.572V85.428A1.428 1.428 0 0 1 95.428 84h27.756a1.43 1.43 0 0 1 1.009.417l4.389 4.382a1.428 1.428 0 0 1 .419 1.01v29.762a1.429 1.429 0 0 1-1.429 1.429z" fill="#11334b"/><path fill="#fff" d="M98 98h27v23H98z"/><path d="M103 84v9.207a.793.793 0 0 0 .793.793h15.414a.793.793 0 0 0 .793-.793V84z" fill="#c8c8c8"/><path fill="#11334b" d="M116 86h3v7h-3z"/><path fill="#2488d8" d="M98.479 84.979L96.935 88H98v2h1v-2h1l-1.521-3.021z"/></svg>