<svg xmlns="http://www.w3.org/2000/svg" viewBox="0 0 229.861 147.522"><title>zerodata-build-release-pipeline</title><path d="M33.636,89.167c-4.4,2.109-7.666,5.736-7.8,12.39-.155,7.63,1.123,11.732,1.323,12.327h1.1c.434-1.185,3.709-9.209,10.708-11.44" fill="none" stroke="#b2b2b2" stroke-miterlimit="10"/><polygon points="50.635 108.48 39.572 108.48 40.922 102.654 49.284 102.654 50.635 108.48"/><path d="M63.916,101.557c-.143-6.989-2.756-10.31-7.521-12.379a71.935,71.935,0,0,1-4.734,13.756l-.106.27c6.635,2.342,9.5,9.49,9.935,10.68h1.1C62.794,113.289,64.071,109.187,63.916,101.557Z" fill="#69afe5"/><path d="M51.02,102.4c7.25,2.188,10.034,10.3,10.47,11.487h1.1c.2-.595,1.478-4.7,1.323-12.327-.143-6.989-3.131-10.529-7.9-12.6" fill="none" stroke="#006fc8" stroke-miterlimit="10"/><path d="M177.779,88.639c-5.574,2.026-8.713,5.321-8.869,12.918-.155,7.63,1.123,11.732,1.323,12.327h1.1c.453-1.235,3.6-9.11,10.834-10.976,5.991-1.545-4.391-14.269-4.391-14.269" fill="#2488d8"/><path d="M198.124,88.639c5.574,2.026,8.713,5.321,8.868,12.918.155,7.63-1.122,11.732-1.323,12.327h-1.1c-.452-1.235-3.6-9.11-10.834-10.976-5.99-1.545,4.392-14.269,4.392-14.269" fill="#005a93"/><polygon points="121.635 108.48 110.572 108.48 111.922 102.654 120.284 102.654 121.635 108.48"/><path d="M134.916,101.557c-.143-6.989-2.816-10.333-7.582-12.4a108.37,108.37,0,0,1-4.782,14h-.135c6.686,2.2,9.637,9.543,10.073,10.733h1.1C133.794,113.289,135.071,109.187,134.916,101.557Z" fill="#005a93"/><path d="M104.936,88.939c-4.623,2.076-7.961,5.741-8.1,12.618-.155,7.63,1.123,11.732,1.323,12.327h1.1c.442-1.2,4.093-9.445,11.343-11.445A54.443,54.443,0,0,1,104.936,88.939Z" fill="none" stroke="#b2b2b2" stroke-linecap="round" stroke-miterlimit="10"/><path d="M125.033,61.731H106.507c-2.276,4.82-4.016,10.127-4.029,14.937-.036,13.337,6.5,25.262,7.155,26.483h12.919c0-.666,6.374-13.074,6.41-26.411.013-4.827-1.71-10.163-3.929-15.009" fill="#69afe5"/><rect x="187.52" y="7.522" width="2" height="27" fill="#b2b2b2"/><path d="M187.707,5.577a1.772,1.772,0,0,0-2.367-.824l-19.474,9.4a1.772,1.772,0,1,0,1.542,3.19l19.474-9.405a1.771,1.771,0,0,0,.825-2.365h0" fill="#b2b2b2"/><path d="M143.619,22.268l21.245-10.074,3.416,6.828L146.943,29.141a3.817,3.817,0,1,1-3.324-6.873" fill="#ffa940"/><path d="M183.746,4.689A4.692,4.692,0,1,0,188.438,0a4.69,4.69,0,0,0-4.692,4.689" fill="#f08400"/><path d="M190.4,4.664a2.033,2.033,0,1,1-2.034-2.03,2.032,2.032,0,0,1,2.034,2.03" fill="#737373"/><path d="M150.52,147.522V24.661a4.583,4.583,0,0,0-3.552-4.543,4.5,4.5,0,0,0-5.448,4.366V147.522Z" fill="#f08400"/><path d="M148.236,25.259a2.128,2.128,0,1,1-2.127-2.126,2.127,2.127,0,0,1,2.127,2.126" fill="#737373"/><rect x="29.52" y="131.522" width="169" height="5" fill="#505050"/><path d="M219.74,132.027H10.121a8.622,8.622,0,0,1,0-17.243H219.74a8.622,8.622,0,0,1,0,17.243Z" fill="#a7a9ac"/><path d="M219.52,133.522h-209C4.938,133.522,0,128.987,0,123.406s4.938-9.884,10.52-9.884h209a10.123,10.123,0,0,1,10.341,9.884A10.318,10.318,0,0,1,219.52,133.522Zm-209.4-17.237a7.121,7.121,0,1,0,0,14.242H219.74a7.121,7.121,0,0,0,0-14.242Z" fill="#6d6e71"/><rect x="41.52" y="135.522" width="3" height="12" fill="#505050"/><rect x="185.52" y="135.522" width="3" height="12" fill="#505050"/><path d="M17.019,124.56l-.008-2.285a.463.463,0,0,0-.132-.322.446.446,0,0,0-.316-.132l-1.229.006a2.705,2.705,0,0,0-.114-.268,5.267,5.267,0,0,0-.345-.793l.877-.882a.453.453,0,0,0,.133-.321.46.46,0,0,0-.128-.324L14.366,117.8a.457.457,0,0,0-.652,0l-.855.861a4.26,4.26,0,0,0-1.15-.5l.007-1.191a.429.429,0,0,0-.408-.451L9.513,116.5a.455.455,0,0,0-.459.452l-.009,1.225a4.68,4.68,0,0,0-1.059.467l-.751-.829a.455.455,0,0,0-.671,0L5.3,119.166a.476.476,0,0,0,0,.634l.787.868,0,.007-.013-.015,0,.01a4.942,4.942,0,0,0-.254.563h0a5.094,5.094,0,0,0-.18.588H4.337a.527.527,0,0,0-.593.524l-.013,2.194a.448.448,0,0,0,.127.316l.02.017a.435.435,0,0,0,.318.135L5.389,125a10.781,10.781,0,0,0,.5,1.141l-.859.871a.443.443,0,0,0-.128.316.448.448,0,0,0,.13.315l1.394,1.392a.456.456,0,0,0,.647,0l.838-.85a4.254,4.254,0,0,0,1.145.473l.006,1.216a.441.441,0,0,0,.443.443l1.767-.009a.441.441,0,0,0,.439-.443l0-1.218a5.227,5.227,0,0,0,1.142-.474l.871.858a.447.447,0,0,0,.629,0l1.408-1.4a.44.44,0,0,0,.129-.313.436.436,0,0,0-.132-.312l-.732-1.112a1.665,1.665,0,0,0,.146-.291,4.659,4.659,0,0,0,.2-.588l1.214,0a.453.453,0,0,0,.314-.13A.441.441,0,0,0,17.019,124.56Z" fill="#fff"/><circle cx="10.449" cy="123.143" r="2.306" fill="#75beff"/><path d="M225.953,124.56l-.008-2.285a.459.459,0,0,0-.132-.322.444.444,0,0,0-.315-.132l-1.229.006a2.705,2.705,0,0,0-.114-.268,5.267,5.267,0,0,0-.345-.793l.877-.882a.464.464,0,0,0,0-.645L223.3,117.8a.457.457,0,0,0-.652,0l-.855.861a4.287,4.287,0,0,0-1.15-.5l.007-1.191a.429.429,0,0,0-.408-.451l-1.795-.013a.454.454,0,0,0-.459.452l-.009,1.225a4.641,4.641,0,0,0-1.059.467l-.751-.829a.455.455,0,0,0-.671,0l-1.269,1.358a.477.477,0,0,0,0,.634l.787.868,0,.007L215,120.66l0,.01a4.95,4.95,0,0,0-.255.563h0a4.9,4.9,0,0,0-.179.588h-1.288a.527.527,0,0,0-.593.524l-.013,2.194a.444.444,0,0,0,.127.316l.02.017a.435.435,0,0,0,.318.135l1.193-.005a10.781,10.781,0,0,0,.5,1.141l-.859.871a.443.443,0,0,0-.128.316.448.448,0,0,0,.13.315l1.394,1.392a.456.456,0,0,0,.647,0l.837-.85a4.26,4.26,0,0,0,1.146.473l0,1.216a.442.442,0,0,0,.444.443l1.766-.009a.442.442,0,0,0,.44-.443l0-1.218a5.247,5.247,0,0,0,1.142-.474l.871.858a.447.447,0,0,0,.629,0l1.407-1.4a.438.438,0,0,0,0-.625l-.732-1.112a1.746,1.746,0,0,0,.146-.291,4.659,4.659,0,0,0,.2-.588l1.214,0a.453.453,0,0,0,.314-.13A.44.44,0,0,0,225.953,124.56Z" fill="#fff"/><circle cx="219.384" cy="123.143" r="2.306" fill="#75beff"/><circle cx="10.527" cy="123.395" r="4.077" fill="#737373"/><circle cx="52.27" cy="123.395" r="4.077" fill="#737373"/><circle cx="94.014" cy="123.395" r="4.077" fill="#737373"/><circle cx="135.757" cy="123.395" r="4.077" fill="#737373"/><circle cx="177.501" cy="123.395" r="4.077" fill="#737373"/><circle cx="219.244" cy="123.395" r="4.077" fill="#737373"/><polygon points="193.711 108.48 182.647 108.48 183.998 102.654 192.36 102.654 193.711 108.48"/><path d="M197.109,61.731H178.583c-2.276,4.82-4.016,10.127-4.029,14.937-.036,13.337,6.5,25.262,7.155,26.483h12.919c0-.666,6.374-13.074,6.41-26.411.013-4.827-1.71-10.163-3.929-15.009" fill="#005a93"/><path d="M197.109,61.731h-2.262a40.753,40.753,0,0,1,3.144,14.422c-.028,10.768-3.438,21.036-5.748,27h2.385c0-.666,6.374-13.074,6.41-26.411.013-4.827-1.711-10.163-3.929-15.009" fill="#2488d8"/><path d="M192.96,73.252a4.98,4.98,0,1,1-4.98-4.979,4.98,4.98,0,0,1,4.98,4.979" fill="#f0ae00"/><path d="M38.933,102.651c-1.844-3.489-6.988-14.267-6.955-25.981.011-4.128,1.3-8.985,3.847-14.439H53.711c2.5,5.533,3.763,10.413,3.751,14.507C57.44,84.8,55.228,94,51.232,102.649v0Z" fill="#69afe5"/><path d="M53.388,62.731c2.383,5.346,3.585,10.055,3.574,14.006-.021,7.9-2.169,16.911-6.051,25.414H39.235c-1.874-3.585-6.788-14.086-6.757-25.48.011-3.982,1.244-8.669,3.667-13.94H53.388m.645-1H35.507c-2.276,4.82-4.016,10.127-4.029,14.937-.036,13.337,6.5,25.262,7.155,26.483H51.552c.53-1.191,6.374-13.074,6.41-26.411.013-4.827-1.71-10.163-3.929-15.009Z" fill="#0078d7"/><path d="M40.582,103.151H38.633c-.653-1.221-7.191-13.146-7.155-26.483.013-4.81,1.753-10.117,4.029-14.937H54.033c2.219,4.846,3.942,10.182,3.929,15.009-.036,13.337-5.88,25.22-6.41,26.411Z" fill="#69afe5"/><path d="M128.962,76.74c0-6-2.671-12.32-3.982-15.06h-8.794v41.509h6.362C125.583,97.557,128.962,84.522,128.962,76.74Z" fill="#2488d8"/><path d="M120.884,73.252a4.98,4.98,0,1,1-4.98-4.979,4.98,4.98,0,0,1,4.98,4.979" fill="#f0ae00" stroke="#006fc8" stroke-miterlimit="10"/><path d="M115.966,47.808a92.483,92.483,0,0,1,7.577,12.9H107.984c1.374-2.791,4.637-9.061,7.982-12.9m.054-1.536C111.207,51.21,106.4,61.71,106.4,61.71h18.75s-4.938-10.438-9.125-15.438Z" fill="#b2b2b2"/><path d="M187.966,47.808a92.483,92.483,0,0,1,7.577,12.9H179.984c1.374-2.791,4.637-9.061,7.982-12.9m.054-1.536C183.207,51.21,178.4,61.71,178.4,61.71h18.75s-4.938-10.438-9.125-15.438Z" fill="#b2b2b2"/><path d="M35.4,61.71s4.812-10.5,9.625-15.438c4.187,5,9.125,15.438,9.125,15.438Z" fill="none"/><path d="M188.178,32.69s-6.609,8.069-9.783,16.079l9.9-.294,9.266-.275a78.737,78.737,0,0,0-9.387-15.51" fill="#2488d8"/><path d="M195.142,48.272l2.423-.072a78.8,78.8,0,0,0-9.387-15.511s-.537.657-1.375,1.776a78.445,78.445,0,0,1,8.339,13.807" fill="#69afe5"/><path d="M31.478,76.668c-.032,11.881,5.149,22.633,6.743,25.705H45.07V62.355H35.225C33.092,67.008,31.49,72.064,31.478,76.668Z" fill="#fff"/><path d="M53.388,62.731c2.383,5.346,3.585,10.055,3.574,14.006-.021,7.9-2.169,16.911-6.051,25.414H39.235c-1.874-3.585-6.788-14.086-6.757-25.48.011-3.982,1.244-8.669,3.667-13.94H53.388m.645-1H35.507c-2.276,4.82-4.016,10.127-4.029,14.937-.036,13.337,6.5,25.262,7.155,26.483H51.552c.53-1.191,6.374-13.074,6.41-26.411.013-4.827-1.71-10.163-3.929-15.009Z" fill="#b2b2b2"/><path d="M49.884,73.252a4.98,4.98,0,1,1-4.98-4.979,4.98,4.98,0,0,1,4.98,4.979" fill="#f0ae00" stroke="#006fc8" stroke-miterlimit="10"/></svg>