<svg xmlns="http://www.w3.org/2000/svg" viewBox="0 0 266 150"><title>dayzero-custom-rules</title><path d="M42.787 96.587h4v11.284h-4a1.565 1.565 0 0 1-1.455-1.456v-8.372a1.565 1.565 0 0 1 1.455-1.456z" fill="#99bcd7"/><path d="M217 136H46.945a3.14 3.14 0 0 1-3.145-2.463A3.03 3.03 0 0 1 46.843 130H216.9a3.14 3.14 0 0 1 3.145 2.463A3.03 3.03 0 0 1 217 136z" fill="#c8c8c8"/><path fill="#ff8c00" d="M50.798 70.832h15.998L55.359 45.381h-5.487l.926 25.451z"/><path d="M56.505 47.83h-7.188a.5.5 0 0 1-.493-.583l3.188-19.031a.5.5 0 0 1 .482-.417.464.464 0 0 1 .5.4l4 19.031a.5.5 0 0 1-.489.6zm-6.6-1h5.98L52.56 30.994z" fill="#939393"/><path d="M171.981 79.115c-7.036-8-6.352-7.971-16.439-19.656-2.377-2.754-6.115 2.912-6.115 2.912l16.37 21.84 6.184-4.732zM80.325 59.459S66.865 76.931 64.683 81.3v2.912h8.731l13.46-21.84z" fill="#d3e2ee"/><path d="M107.972 98.043v17.472h57.652V98.043h40.743v26.572H54.947V98.043h53.025z"/><path d="M210.733 88.215c-12.039-3.589-38.751-9.1-38.751-9.1s-3.717 3.253-5.172 1.8a199.992 199.992 0 0 1-13.381-16.721c-2.361-3.373 1.186-4.571 1.186-4.571l.627-.155c-64.843 0-74.361-.006-74.892-.006h75.192s-3.664-5.441-8.271-5.441h-58.5c-4.278 0-8.446 5.441-8.446 5.441 2.547.728 3.274 3.276 2.183 4.368-1.091 1.456-7.23 10.02-10.913 15.288a4.665 4.665 0 0 1-4 2.184s-13.885-.1-16.066 0c-6.354.282-6.4 11.284-6.4 14.56v9.464c0 4 1.323 12.685 7.345 15.946s14.394 1.89 14.394 1.89v-4.368a18.637 18.637 0 0 1 18.553-18.564 18.337 18.337 0 0 1 17.461 13.1l.727 1.82c.728 2.184 1.455 2.912 4 2.912h56.561c4.365 0 5.093-2.912 5.093-2.912l.728-1.82a18.009 18.009 0 0 1 17.461-13.1c7.639 0 13.46 4.732 16.734 10.92 1.455 2.912 1.091 8.736 1.091 8.736h3.274a5.667 5.667 0 0 0 2.183-4.368s3.138-26.367-.001-27.303z" fill="#99bcd7"/><path d="M70.5 118.427a14.986 14.986 0 0 0 14.915 14.924c8 0 14.551-6.916 14.551-14.924a14.734 14.734 0 1 0-29.466 0z" fill="#262729"/><path d="M75.959 118.427a9.4 9.4 0 0 0 9.458 9.464 9.464 9.464 0 0 0 0-18.928 9.4 9.4 0 0 0-9.458 9.464z" fill="#babcbe"/><path d="M82.871 112.967a2.433 2.433 0 0 0 2.546 2.184 2.349 2.349 0 0 0 2.183-2.184 2.433 2.433 0 0 0-2.183-2.548 2.488 2.488 0 0 0-2.546 2.548zM87.6 123.886a2.348 2.348 0 0 0-2.183-2.184 2.433 2.433 0 0 0-2.546 2.184 2.487 2.487 0 0 0 2.546 2.548 2.433 2.433 0 0 0 2.183-2.548zM89.055 113.695a2.937 2.937 0 0 0-1.091 3.276 2.369 2.369 0 0 0 3.274.728 2.013 2.013 0 0 0 1.091-2.912c-.727-1.092-2.182-1.82-3.274-1.092zM81.416 123.158c1.091-.728 1.819-2.184 1.091-3.276a2.933 2.933 0 0 0-3.274-1.092 2.371 2.371 0 0 0-.727 3.276 2.29 2.29 0 0 0 2.91 1.092zM91.238 119.155a2.372 2.372 0 0 0-2.546 4 2.3 2.3 0 0 0 3.274-.728 2.372 2.372 0 0 0-.728-3.276zM79.233 117.7a2.933 2.933 0 0 0 3.274-1.092 2.371 2.371 0 0 0-.728-3.276 2.933 2.933 0 0 0-3.274 1.092 2.373 2.373 0 0 0 .728 3.276z" fill="none"/><path d="M82.871 118.427a2.433 2.433 0 0 0 2.546 2.184 2.349 2.349 0 0 0 2.183-2.184 2.433 2.433 0 0 0-2.183-2.548 2.488 2.488 0 0 0-2.546 2.548z" fill="#fff"/><path d="M172.172 118.427a14.986 14.986 0 0 0 14.915 14.924c8 0 14.551-6.916 14.551-14.924a14.734 14.734 0 1 0-29.466 0z" fill="#262729"/><path d="M177.629 118.427a9.4 9.4 0 0 0 9.458 9.464 9.464 9.464 0 0 0 0-18.928 9.4 9.4 0 0 0-9.458 9.464z" fill="#babcbe"/><path d="M184.54 112.967a2.433 2.433 0 0 0 2.547 2.184 2.349 2.349 0 0 0 2.183-2.184 2.433 2.433 0 0 0-2.183-2.548 2.488 2.488 0 0 0-2.547 2.548zM189.27 123.886a2.348 2.348 0 0 0-2.183-2.184 2.434 2.434 0 0 0-2.547 2.184 2.487 2.487 0 0 0 2.547 2.548 2.434 2.434 0 0 0 2.183-2.548zM190.725 113.695a2.937 2.937 0 0 0-1.091 3.276 2.369 2.369 0 0 0 3.274.728 2.013 2.013 0 0 0 1.092-2.912c-.728-1.092-2.183-1.82-3.274-1.092zM183.085 123.158c1.091-.728 1.819-2.184 1.091-3.276a2.933 2.933 0 0 0-3.274-1.092 2.373 2.373 0 0 0-.728 3.276 2.291 2.291 0 0 0 2.911 1.092zM192.907 119.155a2.373 2.373 0 0 0-2.547 4c1.455.728 2.91.364 3.274-.728a2.37 2.37 0 0 0-.727-3.276zM180.9 117.7a2.933 2.933 0 0 0 3.274-1.092 2.371 2.371 0 0 0-.728-3.276 2.933 2.933 0 0 0-3.274 1.092 2.371 2.371 0 0 0 .728 3.276z" fill="none"/><path d="M184.54 118.427a2.433 2.433 0 0 0 2.547 2.184 2.349 2.349 0 0 0 2.183-2.184 2.433 2.433 0 0 0-2.183-2.548 2.488 2.488 0 0 0-2.547 2.548z" fill="#fff"/><path d="M210.733 88.579a2.87 2.87 0 0 1 2.91 2.912v9.464a3.13 3.13 0 0 1-2.91 2.912z" fill="#969696"/><path d="M111.949 80.935a3.261 3.261 0 0 1-3.274 3.276H82.143a1.89 1.89 0 0 1-1.819-2.911l10.55-16.38a6.877 6.877 0 0 1 4.726-2.549c12.551-.02.342-.017 13.072 0a3.261 3.261 0 0 1 3.274 3.276z" fill="#d3e2ee"/><path d="M213.643 91.491a5.681 5.681 0 0 1 2.546 4.732 5.05 5.05 0 0 1-2.546 4.368z" fill="#fff"/><path d="M119.042 93.675a1.641 1.641 0 0 0 1.091 1.092h7.276a1.161 1.161 0 0 0 1.091-1.092v-.364a1.162 1.162 0 0 0-1.091-1.092h-7.276a1.639 1.639 0 0 0-1.091 1.092z" fill="#d2d2d2"/><path d="M120.5 84.211a3.261 3.261 0 0 1-3.274-3.276V65.647a3.261 3.261 0 0 1 3.274-3.276h21.654a7.641 7.641 0 0 1 5.093 2.548l13.824 16.744c1.091 1.456.364 2.548-1.091 2.548z" fill="#d3e2ee"/><path d="M115.768 84.939v28.392c0 .728.728 1.092 1.455 1.092h45.3a.964.964 0 0 0 1.091-1.092V84.939" fill="none"/><path fill="none" d="M217.656 134.811H42.203l11.19-85.15h169.529l-5.266 85.15z"/><path d="M58.206 46.08H39.892a.706.706 0 0 1-.762-.633v-6.512a.761.761 0 0 1 1.063-.581l18.314 6.512a.659.659 0 0 1 .457.509.689.689 0 0 1-.758.705z" fill="#ff8c00"/><path fill="#939393" d="M49.957 46.535l.977-5.833-.929-.507-1.057 6.312 1.009.028zM216.959 79.387a.656.656 0 0 1-.64-.508l-9.654-41.249a.658.658 0 1 1 1.282-.3l9.653 41.249a.657.657 0 0 1-.642.808z"/><path d="M210.215 38.16a4.429 4.429 0 0 1-6.025.682 2.406 2.406 0 0 1-.688-.69 4.4 4.4 0 0 1 1.524-6.568.536.536 0 0 0 .517.417h3.14a.317.317 0 0 0 .317-.317v-3.139a.544.544 0 0 0-.543-.544H208V13h-2v15h-.457a.543.543 0 0 0-.543.544v.876c-3.715 1.194-5.94 5.749-3.069 10.076a3.313 3.313 0 0 0 .919.92c3.49 2.32 7.108 1.319 9.013-1.1z" fill="#737373"/><path fill="#939393" d="M37 19h18v4H37z"/><path d="M15.19 52.2a4.89 4.89 0 0 1-1.21-6.81l19.214-27.539a4.891 4.891 0 0 1 8.02 5.6L22 50.994a4.891 4.891 0 0 1-6.81 1.206z" fill="#737373"/><path d="M10 129.373v-79.35a7.214 7.214 0 0 1 6.815-7.323 7 7 0 0 1 7.185 7v79.674c0 3.865-14 3.865-14-.001z" fill="#939393"/><circle cx="17.108" cy="49.837" r="4.891" fill="#737373"/><path fill="#505050" d="M6.481 128h21.136l3.19 8H3.29l3.191-8z"/><path fill="#939393" d="M204 12h13v4h-13z"/><path d="M250.255 75.464a4.891 4.891 0 0 0 2.076-6.6l-29.667-57.493a4.891 4.891 0 0 0-8.674 4.522l29.667 57.5a4.891 4.891 0 0 0 6.598 2.071z" fill="#737373"/><path d="M255 129.612V71.5a7.214 7.214 0 0 0-6.815-7.322 7 7 0 0 0-7.185 7v58.431c0 3.869 14 3.869 14 .003z" fill="#939393"/><circle cx="247.901" cy="71.559" r="4.891" fill="#737373"/><path d="M205.276 106.718v-3.964c0-5.869-5.869-13-12.506-14.92V68.746s23.53 5.266 29.13 8.554a14.362 14.362 0 0 1 6.582 9.215h1.781a1.251 1.251 0 0 1 1.249 1.195c.045 1 .1 2.606.1 4.729 0 3.785-10.7 10.2-10.7 10.2l-2.8 6.2z" fill="#ff8c00"/><path d="M221.9 77.3a41.654 41.654 0 0 0-7.449-2.894l.373 2.236s7.4 5.924 9.215 7.076a12.67 12.67 0 0 0 3.957 1.084A14.2 14.2 0 0 0 221.9 77.3z" fill="#a6a6a6"/><path d="M195.01 89.9a.666.666 0 0 1-.153-.018.658.658 0 0 1-.488-.793l12.3-51.765a.658.658 0 0 1 1.281.305L195.65 89.4a.658.658 0 0 1-.64.5z" fill="#939393"/><path fill="#505050" d="M237.481 128h21.136l3.19 8H234.29l3.191-8z"/><path d="M53.988 33.583l.012.007V31h1v-.3a6.243 6.243 0 0 1-1.122-.7H54v-8h-2v8h-1.455a.544.544 0 0 0-.545.544v2.942a.514.514 0 0 0 .514.514h2.955a.536.536 0 0 0 .519-.417z" fill="#737373"/></svg>