<svg xmlns="http://www.w3.org/2000/svg" viewBox="0 0 157.744 150"><defs><style>.a{fill:#e6e6e6}.b{fill:#737373}.c{fill:#99bcd7}</style></defs><title>zerodata-choose-a-template</title><path class="a" d="M147.279 4.426H7.053C3.718 4.426 0 7.13 0 10.465v132.481C0 146.282 3.718 150 7.053 150h140.226a6.04 6.04 0 0 0 6.04-6.04V10.465a6.04 6.04 0 0 0-6.04-6.039zM19.953 36.694h8.422a4.913 4.913 0 0 0 4.673-3.394l2.6-8.01a4.913 4.913 0 0 1 9.344 0l2.6 8.01a4.912 4.912 0 0 0 4.672 3.394h8.422a4.912 4.912 0 0 1 2.887 8.886l-6.814 4.951a4.912 4.912 0 0 0-1.785 5.492l2.6 8.01a4.912 4.912 0 0 1-7.559 5.492l-6.814-4.95a4.912 4.912 0 0 0-5.775 0l-6.814 4.95a4.912 4.912 0 0 1-7.559-5.492l2.6-8.01a4.912 4.912 0 0 0-1.784-5.492l-6.803-4.951a4.912 4.912 0 0 1 2.887-8.886zM71.212 112.7l-25.393 21.494a3.65 3.65 0 0 1-4.717 0L15.709 112.7a3.65 3.65 0 0 1 0-5.573L41.1 85.638a3.651 3.651 0 0 1 4.717 0l25.395 21.492a3.65 3.65 0 0 1 0 5.57zm13.7-57.753V35.218a2.59 2.59 0 0 1 2.748-2.4h12.574a2.59 2.59 0 0 0 2.748-2.4V18.655s1.768-3.234 3.4-1.811l29.658 25.911a2.386 2.386 0 0 1 .005 3.618L106.533 72.3c-1.617 1.421-4.216.33-4.844-1.78V59.482a2.227 2.227 0 0 0-2.053-2.137H87.659a2.59 2.59 0 0 1-2.749-2.396zm54.379 56.69l-10.708 18.547a4.04 4.04 0 0 1-3.5 2.02h-21.418a4.04 4.04 0 0 1-3.5-2.02l-10.707-18.545a4.04 4.04 0 0 1 0-4.04l10.708-18.547a4.04 4.04 0 0 1 3.5-2.02h21.417a4.04 4.04 0 0 1 3.5 2.02l10.706 18.548a4.039 4.039 0 0 1 0 4.039z"/><path class="b" d="M149.4 2.3L11.479 0C8.144 0 3.135 5.009 3.135 8.344v132.481a6.04 6.04 0 0 0 6.04 6.04H149.4c3.336 0 8.344-5.009 8.344-8.344L155.44 8.344A6.04 6.04 0 0 0 149.4 2.3zM22.075 34.572H30.5a4.913 4.913 0 0 0 4.672-3.394l2.6-8.01a4.913 4.913 0 0 1 9.344 0l2.6 8.01a4.912 4.912 0 0 0 4.672 3.394h8.422a4.912 4.912 0 0 1 2.89 8.887l-6.814 4.951A4.912 4.912 0 0 0 57.1 53.9l2.6 8.01a4.912 4.912 0 0 1-7.555 5.49l-6.814-4.95a4.912 4.912 0 0 0-5.775 0l-6.814 4.95a4.912 4.912 0 0 1-7.559-5.492l2.6-8.01A4.912 4.912 0 0 0 26 48.41l-6.814-4.951a4.912 4.912 0 0 1 2.889-8.887zm51.258 76.009L47.94 132.072a3.65 3.65 0 0 1-4.717 0L17.83 110.581a3.65 3.65 0 0 1 0-5.573l25.393-21.491a3.651 3.651 0 0 1 4.717 0l25.393 21.491a3.65 3.65 0 0 1 0 5.573zm13.7-57.753V33.1a2.59 2.59 0 0 1 2.748-2.4h12.574a2.59 2.59 0 0 0 2.748-2.4V16.533s1.768-3.234 3.4-1.811l29.658 25.911a2.386 2.386 0 0 1 .005 3.618l-29.511 25.931c-1.617 1.421-4.216.33-4.844-1.78V57.361a2.227 2.227 0 0 0-2.053-2.137H89.78a2.59 2.59 0 0 1-2.748-2.396zm54.379 56.69L130.7 128.065a4.04 4.04 0 0 1-3.5 2.02h-21.413a4.04 4.04 0 0 1-3.5-2.02L91.58 109.518a4.04 4.04 0 0 1 0-4.04l10.708-18.548a4.04 4.04 0 0 1 3.5-2.02H127.2a4.04 4.04 0 0 1 3.5 2.02l10.708 18.547a4.039 4.039 0 0 1 .002 4.041z"/><path class="c" d="M151.7 0H11.479A6.04 6.04 0 0 0 5.44 6.04v132.481a6.04 6.04 0 0 0 6.04 6.04H151.7a6.04 6.04 0 0 0 6.04-6.04V6.04A6.04 6.04 0 0 0 151.7 0zM24.379 32.268H32.8a4.913 4.913 0 0 0 4.672-3.394l2.6-8.01a4.913 4.913 0 0 1 9.344 0l2.6 8.01a4.912 4.912 0 0 0 4.672 3.394h8.422A4.912 4.912 0 0 1 68 41.154L61.191 46.1a4.912 4.912 0 0 0-1.785 5.5l2.6 8.01a4.912 4.912 0 0 1-7.557 5.49l-6.814-4.95a4.912 4.912 0 0 0-5.775 0l-6.813 4.95a4.912 4.912 0 0 1-7.559-5.492l2.6-8.01a4.912 4.912 0 0 0-1.782-5.498l-6.814-4.951a4.912 4.912 0 0 1 2.887-8.881zm51.258 76.009l-25.392 21.491a3.65 3.65 0 0 1-4.717 0l-25.393-21.492a3.65 3.65 0 0 1 0-5.573l25.393-21.49a3.651 3.651 0 0 1 4.717 0L75.638 102.7a3.65 3.65 0 0 1 0 5.576zm13.7-57.753V30.792a2.59 2.59 0 0 1 2.748-2.4h12.574a2.59 2.59 0 0 0 2.748-2.4V14.229s1.768-3.234 3.4-1.811l29.653 25.91a2.386 2.386 0 0 1 .005 3.618l-29.506 25.932c-1.617 1.421-4.216.33-4.844-1.78V55.056a2.227 2.227 0 0 0-2.053-2.137H92.084a2.59 2.59 0 0 1-2.748-2.396zm54.379 56.69l-10.708 18.547a4.04 4.04 0 0 1-3.5 2.02h-21.417a4.04 4.04 0 0 1-3.5-2.02l-10.707-18.548a4.04 4.04 0 0 1 0-4.04l10.708-18.547a4.04 4.04 0 0 1 3.5-2.02h21.417a4.04 4.04 0 0 1 3.5 2.02l10.708 18.547a4.039 4.039 0 0 1-.002 4.04z"/></svg>