<svg xmlns="http://www.w3.org/2000/svg" viewBox="0 0 147.213 170.628"><defs><clipPath id="a" transform="translate(-3.303 -5.03)"><path fill="none" d="M0 0h158.882v150H0z"/></clipPath></defs><title>zerodata-add-a-feed</title><g clip-path="url(#a)"><path d="M123.64 25.15C122.463 11.06 111.011 0 97.05 0a26.608 26.608 0 0 0-23.743 14.956 26.625 26.625 0 0 0-14.177-4.079 27.532 27.532 0 0 0-26.385 20.721A25.08 25.08 0 0 0 14.47 78.203a18.484 18.484 0 0 0 7.8 2.194c.209.024.419.042.631.06 3.611.318 8.573.368 16.044.368h81.121a22.4 22.4 0 0 0 5.254-.631c12.469-2.482 21.888-13.8 21.888-27.385 0-14.195-10.279-25.9-23.574-27.66z" fill="#69afe5"/><path d="M121.043 24.49c.751.077 1.85.224 2.632.34A27.278 27.278 0 0 0 103.661.53c9.544 3.367 16.484 13.213 17.382 23.96zm9.25 2.305a27.251 27.251 0 0 1 13.769 23.854c0 13.22-9.164 24.227-21.293 26.642a19.913 19.913 0 0 1-5.111.574H38.737c-3.277.038-6.054.029-8.442-.011a50.408 50.408 0 0 1-8.321-.431 20.44 20.44 0 0 1-5.1-1.149c-5.917-1.858-11.796-5.771-15.82-13.851a25.133 25.133 0 0 0 13.436 15.6 18.473 18.473 0 0 0 7.8 2.193c.209.024.419.042.63.06 3.611.318 8.571.369 16.04.547h81.094a38.92 38.92 0 0 0 5.252-.808c12.464-2.481 21.88-13.79 21.88-27.376a27.886 27.886 0 0 0-16.889-25.844z" fill="#2488d8"/></g><g clip-path="url(#a)" fill="#fff"><path d="M103.276 63.062h-1.974v-1.974h1.974zm-5.921-1.974h1.974v1.974h-1.974zm-3.947 0h1.974v1.974h-1.974zm-3.947 0h1.974v1.974H89.46zm-3.947 0h1.974v1.974h-1.975zm-3.947 0h1.974v1.974h-1.976zm-3.947 0h1.974v1.974h-1.976zm-3.947 0h1.974v1.974h-1.976zm-3.947 0h1.971v1.974h-1.974zm-3.947 0h1.974v1.974h-1.977zm-1.974 1.974h-1.976v-1.974h1.974zm33.553-25.658h1.974v1.974h-1.974zm-3.947 0h1.974v1.974h-1.977zm-3.947 0h1.974v1.974H89.46zm-3.947 0h1.974v1.974h-1.978zm-3.947 0h1.974v1.974h-1.979zm-3.947 0h1.974v1.974h-1.979zm-3.947 0h1.974v1.974h-1.979zm-3.947 0h1.968v1.974h-1.974zm-3.947 0h1.974v1.974h-1.98zm-1.974 1.974h-1.979v-1.974h1.974zm37.5 17.763h1.974v1.974h-1.974zm-39.474 0h1.974v1.974h-1.979zm39.474-3.947h1.974v1.976h-1.974zm-39.474 0h1.974v1.976h-1.979zm39.474-3.947h1.974v1.973h-1.974zm-39.474 0h1.974v1.973h-1.979zm39.474-3.947h1.974v1.97h-1.974zm-39.474 0h1.974v1.97h-1.979zm39.474-3.947h1.974v1.974h-1.974zm-39.474 0h1.974v1.974h-1.979zm39.474-3.947h1.974v1.974h-1.974zM101.302 29.509h1.974v1.974h-1.974zm-3.947 0h1.974v1.974h-1.974zm-3.947 0h1.974v1.974h-1.974zm-3.947 0h1.974v1.974H89.46zm-3.947 0h1.974v1.974h-1.975zm-3.947 0h1.974v1.974h-1.976zm-3.947 0h1.974v1.974h-1.976zm-3.947 0h1.974v1.974h-1.976zm-3.947 0h1.971v1.974h-1.974zm-1.974 1.974h-1.976v-1.974h1.974zM105.25 37.404h1.974v1.974h-1.974zm-47.368 0h1.974v1.974h-1.975zm47.368-3.947h1.974v1.974h-1.974zm-47.368 0h1.974v1.974h-1.975zm0-3.947h1.974v1.974h-1.975zm3.947 0h1.974v1.974h-1.974zm43.421 0h1.974v1.974h-1.974z"/></g><g clip-path="url(#a)"><path d="M58.946 31.006c.031-.037.068-.084.095-.114a.494.494 0 1 1 .761.629l-.031.039c.452-.2.923.3.564.865-.433.685-1.923 2.473-1.923 2.473a14.428 14.428 0 0 1 1.415-.651c.633-.251.864.559.864.559s-.991.6-1.914 1.206a10.278 10.278 0 0 1-1.841.68l-1.029 1.227-2.164-1.481a8.087 8.087 0 0 1 1.154-2.756c.406-.527 1.829-2.367 2.212-2.819a.489.489 0 0 1 .839.126l.14-.172a.492.492 0 0 1 .858.189z" fill="#bb9167"/></g><g clip-path="url(#a)"><path d="M52.784 36.37S42.118 51.999 39.897 55.131s2.445 5.9 4.42 2.525c1.934-3.307 11.729-19.009 11.729-19.009z" fill="#472176"/></g><g clip-path="url(#a)"><path d="M57.986 170.628l-12.325-70.066h-5.159L27.86 170.628h-2.069l12.846-71.2.152-.844h8.592l12.672 72.039z" fill="#9b9b9b"/></g><g clip-path="url(#a)"><path d="M37.158 110.431h19.739v1.974H37.158z" fill="#666"/></g><g clip-path="url(#a)"><path d="M34.197 122.27h19.737v1.974H34.197z" fill="#666"/></g><g clip-path="url(#a)"><path d="M32.223 135.102H51.96v1.974H32.223z" fill="#666"/></g><g clip-path="url(#a)"><path d="M59.268 101.549l-.583-3.947H37.96l-.673 3.947zM34.579 122.27h2.087l-8.725 48.355h-2.087z" fill="#9b9b9b"/></g><g clip-path="url(#a)"><path d="M51.059 41.238l-6.171 4.849s.821 1.559.683 7.577l-.324 2.506 5.021 1.5-.123-5.489 2.274-.635a7.416 7.416 0 0 0 .875-4.127 12.128 12.128 0 0 0-2.235-6.181z" fill="#bb9167"/></g><g clip-path="url(#a)"><path d="M50.936 39.808c-1.717-.142-1.46-.471-3.251.061-.255.076-3.934.621-4.363 3.93s2.228 6.609 2.228 6.609a2.731 2.731 0 0 0 3.463-.065c.7-1.116 1.007-1.439.175-4.537-.566-2.107 1.357-.778 1.536-.334l1.394-2.587s.535-2.935-1.182-3.077z" fill="#4d4d4d"/></g><g clip-path="url(#a)"><path d="M53.542 74.57l-12.263 1.192a8 8 0 0 0-2.835 4.566 36.022 36.022 0 0 0-.9 8.722l-4.547 32.73s6.371-1.012 5.583-2.116 1.551-9.022 6.155-26.89c2.143 16.36 3.086 28.842 3.086 28.842l5.325.689 1.191-1.749a4.427 4.427 0 0 1-2.127-1.828c-.599-1.228 1.332-44.158 1.332-44.158z" fill="#333"/></g><g clip-path="url(#a)"><path d="M32.919 122.27l.493-4.083 4.933.34s1.616 1.361 2.3 1.786.432 1.956.432 1.956zm14.12 0l.493-4.083 4.648.3s1.9 1.4 2.583 1.825.432 1.956.432 1.956z" fill="#3c3c3c"/></g><g clip-path="url(#a)"><path d="M59.675 100.507l-12.719 70.121h-2.074l12.774-70.791z" fill="#9b9b9b"/></g><g clip-path="url(#a)"><path d="M52.365 54.777c-2.653-.288-6.682-.452-9.6-.617-2.329-.131-3.344.988-3.824 3.084-2.138 9.334-2.056 16.776-2.806 24q8.55.969 17.155 1.292c.74-5.242 2.35-18.91 2.59-20.477.617-4.014.432-6.789-3.515-7.282z" fill="#5c2d91"/></g><g clip-path="url(#a)"><path d="M66.349 98.997l12.6 71.631h-2.073L64.397 99.614z" fill="#9b9b9b"/></g><g clip-path="url(#a)"><path d="M66.844 101.505l-.576-3.9-8.431.044-.665 3.9z" fill="#666"/></g><g clip-path="url(#a)"><path d="M80.382 63.206l.142-.042a.494.494 0 1 0-.283-.946l-.048.013c.364-.337.084-.966-.577-.858-.8.132-3.027.809-3.027.809a14.487 14.487 0 0 0 1.151-1.05c.478-.486-.178-1.014-.178-1.014s-.943.677-1.856 1.295a10.293 10.293 0 0 0-1.344 1.432l-1.531.47-.049 2.4a3.343 3.343 0 0 0 2.418.433c.643-.168 4.031-1.01 4.6-1.186a.489.489 0 0 0 .21-.822l.212-.062a.491.491 0 0 0 .164-.866z" fill="#bb9167"/><path d="M73.008 63.034l.965-.158.569 3.479-.965.158z" fill="#fff"/><path d="M73.009 63.035l-10.112 1.609s-5.5-5.922-7.679-8.593-6.723.717-4.04 3.632c5.887 6.392 6.59 7.036 8.23 8.435a4.76 4.76 0 0 0 4.771 1.11c3.733-.861 9.481-2.265 9.481-2.265z" fill="#472176"/><path d="M54.363 56.444c2.176 2.671 8.257 9.235 8.257 9.235l10.54-1.725-.152-.919-10.111 1.609s-5.534-5.967-7.71-8.639a2.535 2.535 0 0 0-2.992-.77 3.634 3.634 0 0 1 2.168 1.209z" fill="#724aad"/></g><g clip-path="url(#a)"><path d="M48.659 118.37l-1.127-.078s-1.135-12.322-2.428-22.648c-.094-.839-.4-2.63-.371-2.877a134.759 134.759 0 0 1 3.926 25.603zm-9.392-36.794q-.539-.053-1.088-.112a38.5 38.5 0 0 0-.635 7.586l-4.047 29.332 1.1.076 4.058-29.408a38.682 38.682 0 0 1 .612-7.474z" fill="#666"/></g></svg>