<svg xmlns="http://www.w3.org/2000/svg" viewBox="0 0 123.478 130"><title>zerodata-add-deployment-group</title><rect x="13.913" y="24.783" width="52.174" height="105.217" rx="3.804" ry="3.804" fill="#002f33"/><rect y="24.783" width="52.174" height="105.217" rx="3.804" ry="3.804" fill="#007365"/><rect x="6.087" y="30.87" width="39.13" height="13.043" rx="1.63" ry="1.63" fill="#00a387"/><circle cx="40.168" cy="35.411" r="1.92" fill="#bad80a"/><path d="M8.7 33.478h2.6V41.3H8.7zm6.087 0h2.609V41.3h-2.613zm5.217 0h2.609V41.3H20zm6.087 0H28.7V41.3h-2.613z" fill="#007365"/><rect x="6.087" y="50" width="39.13" height="13.043" rx="1.63" ry="1.63" fill="#00a387"/><circle cx="40.168" cy="54.61" r="1.92" fill="#bad80a"/><path d="M8.7 52.609h2.6v7.826H8.7zm6.087 0h2.609v7.826h-2.613zm5.217 0h2.609v7.826H20zm6.087 0H28.7v7.826h-2.613z" fill="#007365"/><rect x="6.087" y="69.13" width="39.13" height="13.043" rx="1.63" ry="1.63" fill="#00a387"/><circle cx="40.168" cy="73.809" r="1.92" fill="#bad80a"/><path d="M8.7 71.739h2.6v7.826H8.7zm6.087 0h2.609v7.826h-2.613zm5.217 0h2.609v7.826H20zm6.087 0H28.7v7.826h-2.613z" fill="#007365"/><rect x="6.087" y="88.261" width="39.13" height="13.043" rx="1.63" ry="1.63" fill="#00a387"/><circle cx="40.168" cy="93.008" r="1.92" fill="#bad80a"/><path d="M8.7 90.87h2.6v7.83H8.7zm6.087 0h2.609v7.83h-2.613zm5.217 0h2.609v7.83H20zm6.087 0H28.7v7.83h-2.613z" fill="#007365"/><rect x="71.304" y="24.783" width="52.174" height="105.217" rx="3.804" ry="3.804" fill="#002f33"/><rect x="57.391" y="24.783" width="52.174" height="105.217" rx="3.804" ry="3.804" fill="#007365"/><rect x="63.478" y="30.87" width="39.13" height="13.043" rx="1.63" ry="1.63" fill="#00a387"/><circle cx="97.764" cy="35.411" r="1.92" fill="#bad80a"/><path d="M66.087 33.478H68.7V41.3h-2.613zm6.087 0h2.609V41.3h-2.609zm5.217 0H80V41.3h-2.609zm6.087 0h2.609V41.3h-2.609z" fill="#007365"/><rect x="63.478" y="50" width="39.13" height="13.043" rx="1.63" ry="1.63" fill="#00a387"/><circle cx="97.764" cy="54.61" r="1.92" fill="#bad80a"/><path d="M66.087 52.609H68.7v7.826h-2.613zm6.087 0h2.609v7.826h-2.609zm5.217 0H80v7.826h-2.609zm6.087 0h2.609v7.826h-2.609z" fill="#007365"/><rect x="63.478" y="69.13" width="39.13" height="13.043" rx="1.63" ry="1.63" fill="#00a387"/><circle cx="97.764" cy="73.809" r="1.92" fill="#bad80a"/><path d="M66.087 71.739H68.7v7.826h-2.613zm6.087 0h2.609v7.826h-2.609zm5.217 0H80v7.826h-2.609zm6.087 0h2.609v7.826h-2.609z" fill="#007365"/><rect x="63.478" y="88.261" width="39.13" height="13.043" rx="1.63" ry="1.63" fill="#00a387"/><circle cx="97.764" cy="93.008" r="1.92" fill="#bad80a"/><path d="M66.087 90.87H68.7v7.83h-2.613zm6.087 0h2.609v7.83h-2.609zm5.217 0H80v7.83h-2.609zm6.087 0h2.609v7.83h-2.609z" fill="#007365"/><path d="M41.568 14.6a14.584 14.584 0 1 0-27.3 7.123L27.22 49.81l13.195-29.522a14.536 14.536 0 0 0 1.153-5.688z" fill="#ffb900"/><circle cx="26.984" cy="14.596" r="7.114" fill="#fff"/></svg>