<svg xmlns="http://www.w3.org/2000/svg" viewBox="0 0 156.122 150"><defs><style>.a{fill:#69afe5}.b{fill:#bad80a}.c,.k{fill:#282828}.d{fill:#bb9167}.e{fill:#8e562e}.f,.l{fill:none}.g,.j{fill:#f7d7c4}.h{fill:#71563b}.i{fill:#d8b094}.j,.k,.l{fill-rule:evenodd}.m{fill:#613d30}.n{fill:#505050}</style></defs><title>zerodata-pull-request</title><path class="a" d="M131.369 106.427h-2V47.463c0-15.1-10.2-25.647-24.8-25.647H63.931v-2h40.642c15.778 0 26.8 11.369 26.8 27.647z"/><path class="a" d="M70.562 12.636l1.365 1.465-7.224 6.712 7.224 6.715-1.365 1.465-8.796-8.18 8.796-8.177zM24.764 45.762h2v71.722h-2z"/><circle class="a" cx="26.02" cy="26.02" r="26.02"/><path class="b" d="M102.551 52.551v45.918h-6.122v10.906L85.523 98.469H70.408L59.5 109.375V98.469h-7.459V52.551H59.5v-11.48l11.48 11.48z"/><path class="c" d="M8.634 45.376a26.012 26.012 0 0 0 34.82-.042c-3.847-.478-11.3-1.246-14.663-1.526h-4.706C20.2 44.133 12 44.953 8.634 45.376z"/><path class="d" d="M25.513 43.064c-4.267 0-7.725 2.306-7.725 5.15a4.058 4.058 0 0 0 1.338 2.9 26.021 26.021 0 0 0 12.389.344 4.242 4.242 0 0 0 1.724-3.24c-.001-2.848-3.46-5.154-7.726-5.154z"/><path class="c" d="M27.905 6.26a3.988 3.988 0 0 0-3.355-1.632A12.8 12.8 0 0 0 12.615 17.7v22.48h17.429v-.071c2.014.146 8.714.161 8.714-6.118V17.7c0-8.845-6.496-12.623-10.853-11.44z"/><path class="d" d="M21.047 30.755h9.191v18.382h-9.191z"/><path class="e" d="M21.047 32.594V39.148c0 .3 2.883.452 4.551.452a23.759 23.759 0 0 0 4.64-.5v-6.5z"/><path class="d" d="M13.4 25.333a1.443 1.443 0 0 0 1.342 1.342H36.74a1.3 1.3 0 0 0 1.175-1.342v-2.685a1.147 1.147 0 0 0-1.175-1.174H14.747a1.3 1.3 0 0 0-1.347 1.174z"/><path class="d" d="M35.732 17.446v-.336a10.072 10.072 0 0 0-20.145 0v17.624a20.5 20.5 0 0 0 10.241 3.189 17.005 17.005 0 0 0 9.905-3.189V17.446z"/><path class="c" d="M36.358 13.91c-.505-6.694-8.714-7.073-8.714-7.073-1.189-1.738-3.19-1.282-5.534.056a6.315 6.315 0 0 0-.528.2c-3.031 1.263-6.03 3.329-7.2 7.073-1.247 3.994 1.172 4.388 1.2 4.1.474-4.894 8.525-5.62 8.525-5.62a12.584 12.584 0 0 0-4.926 4.168c6.53-2.873 10.33-2.918 10.9-2.907L27.9 7.343l3.634 7.09c4.354 1.593 4.229 6.754 4.228 6.739-.003 0 1.102-.572.596-7.262z"/><circle class="f" cx="26.02" cy="26.02" r="26.02"/><path class="c" d="M14.558 20.8c12.638.574 16.084-6.664 16.084-6.664s.351 2.92 5.116 7.032a20.15 20.15 0 0 0 .4-10.479S28.115 4.834 23.4 6.1s-8.585 8.833-8.888 9.644.046 5.056.046 5.056z"/><circle class="a" cx="26.02" cy="123.98" r="26.02"/><path class="g" d="M12.094 123.655a1.7 1.7 0 0 0 1.581 1.572h25.9a1.522 1.522 0 0 0 1.384-1.572v-3.145a1.348 1.348 0 0 0-1.384-1.376h-25.9a1.524 1.524 0 0 0-1.581 1.376zM21.736 135.773h9.906v12.232h-9.906z"/><path class="h" d="M29.74 136.685h.792v.158h-.792z"/><path class="i" d="M21.736 132.881v7.353a25.645 25.645 0 0 0 4.787.409 27.613 27.613 0 0 0 5.119-.512v-7.25z"/><path class="j" d="M26.532 104.108a14.394 14.394 0 0 0-12.008 6.98v20.673a14.394 14.394 0 0 0 12.008 6.979 14.418 14.418 0 0 0 12.083-7.1v-20.429a14.418 14.418 0 0 0-12.083-7.103z"/><path class="k" d="M38.615 120.241v-9.03a14.418 14.418 0 0 0-12.083-7.1 14.394 14.394 0 0 0-12.008 6.98v7.748c1.726-3.747 4.929-6.815 8.242-7.431 6.01 7.435 11.188 9.102 15.849 8.833z"/><path class="l" d="M26.532 104.108a14.394 14.394 0 0 0-12.008 6.98v20.673a14.394 14.394 0 0 0 12.008 6.979 14.418 14.418 0 0 0 12.083-7.1v-20.429a14.418 14.418 0 0 0-12.083-7.103z"/><path class="c" d="M44.676 142.11l-.249-.037c-3.356-.446-8.3-1.025-12.785-1.4v4.03c0 1.05-2.248 1.882-4.976 1.882s-4.94-.852-4.94-1.9V140.76c-4.685.4-7.212.526-10.213.918a34.75 34.75 0 0 0-.636.091 15.194 15.194 0 0 0-2.625.547q-.139.04-.277.083l-.084.028c-.054.017-.107.039-.161.056a26 26 0 0 0 36.946-.372z"/><circle class="a" cx="130.102" cy="123.979" r="26.02"/><path class="e" d="M136.337 132.8c-.107-5.03-9.759-4.016-9.759.334 0 8.7-2.776 8.785-2.776 8.785l3.978 7.972c.766.068 1.539.109 2.323.109.588 0 1.169-.027 1.747-.065l7.938-9.062s-3.282-.208-3.451-8.073z"/><path class="c" d="M130.1 150a25.956 25.956 0 0 0 19.817-9.167c-5.993.08-10.637-.085-10.637-.085-1.01.669-8.413 9.161-8.413 9.161l-5.763-9.078h-9.675a8.268 8.268 0 0 0-4.292.956A25.941 25.941 0 0 0 130.1 150z"/><path class="m" d="M136.411 133.936c-.3-2.6-10.547-3.463-10.116-1.29a14.243 14.243 0 0 1-.05 5.083 10.271 10.271 0 0 0 6.042 1.216 10.433 10.433 0 0 0 4.6-1.719c-.154-.747-.302-1.775-.476-3.29z"/><path class="e" d="M119.174 119.827c-.834 8.833 3.438 16.467 9.543 17.051s11.73-6.1 12.565-14.935-3.438-16.467-9.543-17.051-11.731 6.102-12.565 14.935z"/><path class="c" d="M119.994 110.692a44.681 44.681 0 0 0 13.839 2.872c.363 3.265 1.327 9.214 1.327 9.214l1.7-2.377s2.639-.385 1.78 3.795a4.886 4.886 0 0 1-3.159 3.567l2.077 4.221a20.134 20.134 0 0 0 5.214-15.574c-1.046-9.331-5.207-8.343-5.207-8.343s-.918-3.959-6-4.6c-7.529-.943-11.571 7.225-11.571 7.225z"/><path class="n" d="M61.605 73.681l12.412-5.939V70.9l-8.85 3.787v.08l8.85 3.561v3.163l-12.412-5.657zm19.242-6.073v3.163l8.877 3.8v.053l-8.877 3.548v3.149l12.412-5.661v-2.151z"/></svg>