<svg xmlns="http://www.w3.org/2000/svg" viewBox="0 0 164.421 150"><title>zerodata-favorites</title><path d="M114.293 4.01H157.4v13.034h-43.107z" fill="#2488d8"/><path d="M123.235 10.026L113.331 0H96.247v46.118H157.4V10.026z" fill="#69afe5"/><path d="M54.792 14.036l30.427 22.08v14.013H37.1V36.116L6.669 14.036z" fill="#00abeb"/><path d="M37.1 67.871L7.018 46.449V14.17L37.1 35.592zm17.039-21.727v-31.6l30.077 21.762v12.82H58.242z" fill="#2488d8"/><path d="M51.5 36.093a9.663 9.663 0 0 0 19.325 0h14.4v32.082H37.1V36.093z" fill="#69afe5"/><path d="M162.6 68.873l-18.171-10.648a5.013 5.013 0 0 0-3.108-1.079h-40.035a5.039 5.039 0 0 0-5.039 5.039V127.2a5.029 5.029 0 0 0 1.834 3.888c.4.329 17.4 11.181 17.4 11.181l30.879-47.4z" fill="#2488d8"/><path d="M162.092 71.182l.583-2.827-17.66-10.115a5.08 5.08 0 0 0-3.147-1.093h-39.92c-1.672 0-3.26 1.386-4.191 2.631l18.807 11.4z" fill="#00abeb"/><rect x="114.293" y="68.175" width="50.129" height="75.193" rx="2.608" ry="2.608" fill="#69afe5"/><path d="M121.311 80.206h25.064v5.013h-25.064zm0 9.023h25.064v5.013h-25.064zm0 11.028h25.064v5.013h-25.064zm0 9.023h25.064v5.013h-25.064z" fill="#2488d8"/><circle cx="157.345" cy="82.286" r="2.385" fill="#2488d8"/><circle cx="157.345" cy="91.826" r="2.385" fill="#2488d8"/><circle cx="157.345" cy="102.559" r="2.385" fill="#2488d8"/><circle cx="157.345" cy="112.099" r="2.385" fill="#2488d8"/><path d="M79.7 78.2H25.2a11.158 11.158 0 0 0-11.164 11.155V123.2a11.14 11.14 0 0 0 11.14 11.14H54.5L72.185 150v-15.655H79.7a7.519 7.519 0 0 0 7.519-7.519V85.72A7.519 7.519 0 0 0 79.7 78.2z" fill="#2488d8"/><path d="M48.714 113.3l-.1-1.32c-.3-2.746.611-5.746 3.151-8.795 2.288-2.695 3.56-4.678 3.56-6.965 0-2.594-1.627-4.321-4.83-4.372a9.032 9.032 0 0 0-5.135 1.572l-1.22-3.208a13.328 13.328 0 0 1 7.27-2.033c5.846 0 8.489 3.609 8.489 7.472 0 3.458-1.931 5.948-4.371 8.847-2.236 2.643-3.049 4.881-2.9 7.472l.05 1.32zm-1.118 7.4a3.008 3.008 0 0 1 2.8-3.2q.124-.008.249-.006A3.181 3.181 0 1 1 47.6 120.8v-.107z" fill="#69afe5"/><path d="M16.69 88.427l4.163 8.427a.948.948 0 0 0 .715.519l9.3 1.351a.948.948 0 0 1 .526 1.618l-6.732 6.558a.948.948 0 0 0-.273.84l1.589 9.264a.948.948 0 0 1-1.377 1l-8.321-4.373a.948.948 0 0 0-.883 0l-8.321 4.379a.948.948 0 0 1-1.377-1l1.589-9.264a.948.948 0 0 0-.272-.84l-6.73-6.561a.948.948 0 0 1 .526-1.618l9.3-1.351a.948.948 0 0 0 .715-.519l4.159-8.427a.948.948 0 0 1 1.7 0zm101.129-77.544l4.16 8.429a.948.948 0 0 0 .715.519l9.3 1.351a.948.948 0 0 1 .526 1.618l-6.73 6.561a.948.948 0 0 0-.273.84l1.589 9.264a.948.948 0 0 1-1.377 1l-8.321-4.375a.948.948 0 0 0-.883 0l-8.325 4.376a.948.948 0 0 1-1.377-1l1.589-9.264a.948.948 0 0 0-.273-.84l-6.73-6.561a.948.948 0 0 1 .526-1.618l9.3-1.351a.948.948 0 0 0 .715-.519l4.16-8.429a.948.948 0 0 1 1.7 0z" fill="#ffb900"/></svg>