<svg xmlns="http://www.w3.org/2000/svg" viewBox="0 0 169.781 150"><title>zerodata-unsaved-query</title><path d="M0 0h161.411v101.629H0z" fill="#eaeaea"/><path d="M31.642 73.434a26.324 26.324 0 1 0-18.49-25.167 26.044 26.044 0 0 0 18.49 25.167zm107.28-12.456H77.716v11.956h71.738V60.978zm-27.822-8.37h21.616V40.652h-55v11.956zm-14.742-19.13h10.054V21.521h-28.7v11.957z" fill="none" stroke="#ea4300" stroke-miterlimit="10" stroke-width="2" stroke-dasharray="2 2"/><path d="M18.673 63.8l21.979-14.65V22.717M26.3 26.256l12.519 22.283" fill="none" stroke="#ea4300" stroke-miterlimit="10" stroke-width="2" stroke-dasharray="2 2"/><circle cx="128.531" cy="108.75" r="41.25" fill="#2488d8"/><path d="M148.942 127.933H110.51a1.707 1.707 0 0 1-1.707-1.707V85.4a1.707 1.707 0 0 1 1.707-1.707h33.19a1.706 1.706 0 0 1 1.205.5l5.248 5.239a1.707 1.707 0 0 1 .5 1.208v35.584a1.709 1.709 0 0 1-1.709 1.709z" fill="#11334b"/><path d="M113.586 100.434h32.282v27.5h-32.282z" fill="#fff"/><path d="M119.564 83.695V94.7a.948.948 0 0 0 .948.948h18.43a.948.948 0 0 0 .948-.948V83.695z" fill="#c8c8c8"/><path d="M135.107 86.086h3.587v8.369h-3.587z" fill="#11334b"/><path d="M114.158 84.865l-1.846 3.612h1.273v2.391h1.2v-2.391h1.2z" fill="#2488d8"/></svg>