<svg xmlns="http://www.w3.org/2000/svg" viewBox="0 0 142 150"><defs><style>.a,.e{fill:#69afe5}.b{fill:#bad80a}.c{fill:#235a89}.c,.d,.e,.n,.o,.p{fill-rule:evenodd}.d{fill:#fff}.f{fill:#8e562e}.g,.o{fill:#282828}.h{fill:#613d30}.i{fill:#bb9167}.j,.p{fill:none}.k,.n{fill:#f7d7c4}.l{fill:#71563b}.m{fill:#d8b094}</style></defs><title>zerodata-get-everyone-on-same-page</title><path class="a" d="M72.857 126.334h-2V68.647L37.126 34.916l1.414-1.414 34.317 34.317v58.515z"/><path class="a" d="M71.411 67.526l34.024-34.024 1.415 1.414L72.826 68.94z"/><circle class="b" cx="72.048" cy="65.472" r="25.535"/><path class="c" d="M74.998 84.808l2.542-1.557 2.692 1.557v-9.771h-5.234v9.771z"/><path class="d" d="M59.294 77.47a1.916 1.916 0 0 0 1.806 1.755h21.331a1.957 1.957 0 0 0 1.989-1.755V50.636a1.771 1.771 0 0 0-1.771-1.771H61.1a1.787 1.787 0 0 0-1.808 1.755v26.85z"/><path class="c" d="M63.482 48.865h-4.188v30.36h4.188v-30.36z"/><path class="e" d="M66.623 59.724a1.674 1.674 0 0 0 1.832 1.7h10.992a1.778 1.778 0 0 0 1.832-1.7V55.89a1.8 1.8 0 0 0-1.79-1.79H68.455a1.773 1.773 0 0 0-1.832 1.7v3.92z"/><circle class="a" cx="71.041" cy="126" r="24"/><path class="f" d="M76.792 134.136c-.1-4.639-9-3.7-9 .309 0 8.025-2.561 8.1-2.561 8.1L68.9 149.9c.706.063 1.42.1 2.142.1.542 0 1.078-.024 1.611-.06l7.322-8.358s-3.028-.193-3.183-7.446z"/><path class="g" d="M71.041 150a23.941 23.941 0 0 0 18.278-8.455c-5.528.074-9.811-.078-9.811-.078-.931.617-7.76 8.45-7.76 8.45l-5.316-8.373h-8.923a7.626 7.626 0 0 0-3.959.882A23.927 23.927 0 0 0 71.041 150z"/><path class="h" d="M76.86 135.183c-.274-2.4-9.728-3.194-9.33-1.189a13.137 13.137 0 0 1-.046 4.688 9.474 9.474 0 0 0 5.573 1.122 9.623 9.623 0 0 0 4.24-1.585c-.14-.69-.277-1.638-.437-3.036z"/><path class="f" d="M60.961 122.169c-.77 8.147 3.171 15.188 8.8 15.727s10.82-5.628 11.589-13.775-3.171-15.188-8.8-15.727-10.819 5.628-11.589 13.775z"/><path class="g" d="M61.717 113.744a41.212 41.212 0 0 0 12.765 2.649c.335 3.012 1.224 8.5 1.224 8.5l1.572-2.192s2.434-.355 1.642 3.5a4.506 4.506 0 0 1-2.913 3.29l1.916 3.893a18.57 18.57 0 0 0 4.81-14.365c-.965-8.606-4.8-7.7-4.8-7.7s-.847-3.652-5.53-4.24c-6.957-.869-10.686 6.665-10.686 6.665z"/><circle class="a" cx="24" cy="24.02" r="24"/><path class="g" d="M7.964 41.873a23.992 23.992 0 0 0 32.117-.039c-3.548-.441-10.426-1.149-13.524-1.408h-4.342c-3.588.3-11.146 1.057-14.251 1.447z"/><path class="i" d="M23.532 39.741c-3.935 0-7.126 2.127-7.126 4.75a3.743 3.743 0 0 0 1.234 2.671 24 24 0 0 0 11.427.318 3.912 3.912 0 0 0 1.59-2.989c0-2.624-3.19-4.75-7.125-4.75z"/><path class="g" d="M25.739 5.794a3.678 3.678 0 0 0-3.1-1.506 11.805 11.805 0 0 0-11.004 12.057V37.08h16.076v-.065c1.857.135 8.038.148 8.038-5.643V16.345c0-8.158-5.992-11.645-10.01-10.551z"/><path class="i" d="M19.413 28.388h8.477v16.955h-8.477z"/><path class="f" d="M19.413 30.083v6.046c0 .274 2.659.417 4.2.417a21.914 21.914 0 0 0 4.28-.465v-6z"/><path class="i" d="M12.364 23.386a1.331 1.331 0 0 0 1.236 1.238h20.287a1.2 1.2 0 0 0 1.084-1.238V20.91a1.058 1.058 0 0 0-1.084-1.083H13.6a1.2 1.2 0 0 0-1.238 1.083z"/><path class="i" d="M32.957 16.112V15.8a9.29 9.29 0 0 0-18.581 0V32.057A18.91 18.91 0 0 0 23.822 35a15.685 15.685 0 0 0 9.136-2.941V16.112z"/><path class="g" d="M33.535 12.851C33.069 6.677 25.5 6.327 25.5 6.327c-1.1-1.6-2.942-1.182-5.1.052a7.045 7.045 0 0 0-.487.181c-2.8 1.165-5.562 3.071-6.64 6.523-1.15 3.684 1.081 4.047 1.107 3.786.437-4.514 7.863-5.184 7.863-5.184a11.607 11.607 0 0 0-4.543 3.844c6.023-2.65 9.528-2.692 10.056-2.681l-2.025-6.055 3.352 6.54c4.016 1.469 3.9 6.23 3.9 6.216s1.017-.524.552-6.698z"/><circle class="j" cx="24" cy="24.02" r="24"/><path class="g" d="M13.428 19.209c11.656.53 14.835-6.146 14.835-6.146s.324 2.693 4.719 6.486a18.586 18.586 0 0 0 .368-9.665s-7.418-5.4-11.762-4.239-7.918 8.148-8.2 8.9a25.114 25.114 0 0 0 .04 4.664z"/><circle class="a" cx="118" cy="24" r="24"/><path class="k" d="M105.155 23.7a1.564 1.564 0 0 0 1.458 1.45h23.893a1.4 1.4 0 0 0 1.277-1.45v-2.9a1.243 1.243 0 0 0-1.277-1.269h-23.893a1.406 1.406 0 0 0-1.458 1.269zM114.048 34.877h9.137V46.16h-9.137z"/><path class="l" d="M121.43 35.719h.731v.146h-.731z"/><path class="m" d="M114.048 32.21v6.782a23.653 23.653 0 0 0 4.416.378 25.469 25.469 0 0 0 4.721-.473V32.21z"/><path class="n" d="M118.472 5.671a13.277 13.277 0 0 0-11.072 6.438v19.069a12.752 12.752 0 0 0 22.221-.113V12.223a13.3 13.3 0 0 0-11.149-6.552z"/><path class="o" d="M129.617 20.552v-8.329a12.751 12.751 0 0 0-22.221-.113v7.146c1.592-3.456 4.546-6.286 7.6-6.854 5.545 6.86 10.322 8.398 14.621 8.15z"/><path class="p" d="M118.472 5.671a13.277 13.277 0 0 0-11.072 6.438v19.069a12.752 12.752 0 0 0 22.221-.113V12.223a13.3 13.3 0 0 0-11.149-6.552z"/><path class="g" d="M135.207 40.723l-.229-.034c-3.1-.412-7.654-.946-11.793-1.288v3.717c0 .969-2.073 1.736-4.59 1.736s-4.556-.785-4.556-1.754v-3.623c-4.321.372-6.652.485-9.42.846-.2.026-.391.055-.587.084a14.014 14.014 0 0 0-2.421.5l-.256.076-.077.026c-.05.016-.1.036-.148.052a23.985 23.985 0 0 0 34.078-.343z"/></svg>