<svg xmlns="http://www.w3.org/2000/svg" viewBox="0 0 150 150"><defs><clipPath id="a"><circle cx="75.324" cy="76.97" r="65.667" fill="none"/></clipPath></defs><title>dayzero-your-work-in-one-place</title><g clip-path="url(#a)"><circle cx="75.324" cy="76.97" r="65.667" fill="#40cdf5"/></g><g clip-path="url(#a)"><circle cx="75.324" cy="76.97" r="65.667" fill="none"/></g><g clip-path="url(#a)"><path d="M135.991 156.467c-1.2-10.4-3.849-26.992-4.342-30.265a11.633 11.633 0 0 0-7.568-9.632l.02-.051-38.951-14.693-17.078-.6L29.42 115.92l.013.035a11.751 11.751 0 0 0-7.827 11.327c-1.261 7.963-3.485 21.1-4.378 29.185z" fill="#5c2d91"/><path d="M102.828 70.638c0 15.294-11.685 26.09-26.067 26.09s-26.367-10.8-26.367-26.09c0-15.594 11.985-27.889 26.367-27.889s26.067 12.295 26.067 27.889z" fill="#3c3c3c"/><path d="M62.978 83.533v18.593l-13.183 6.3s19.775 8.4 26.666 8.7c6.891-.3 27.266-8.4 27.266-8.4l-13.783-6.3-.3-18.893H62.978z" fill="#bb9167"/><path d="M52.192 70.938c-5.094-7.2-3.6-22.791-3.6-22.791 0-14.394 11.386-26.09 27.266-26.09 15.58 0 28.464 11.695 28.464 26.09 0 0 .6 16.793-8.989 25.79" fill="#3c3c3c"/><path d="M53.989 57.143a2.842 2.842 0 0 0-3.3-1.8s-3.6.3-2.4 6l.9 2.7.6 2.7 1.2 2.7.6 1.8a11.623 11.623 0 0 1 .9 3.3 2.459 2.459 0 0 0 1.8 2.7h2.1s-.3-4.8.3-18.593zm44.644 2.4a2.99 2.99 0 0 1 3-1.8s3 .6 2.1 5.7l-.6 2.4-.9 2.4-.9 2.4-.6 1.8a5.563 5.563 0 0 0-.6 3 2.623 2.623 0 0 1-1.8 2.4h-2.1s.3-4.5-.3-16.794l2.7-1.5z" fill="#bb9167"/><path d="M94.7 65.855c.6-4.8 1.837-17.408-2.358-17.408-4.494 0-1.8-11.995-1.8-11.995l8.389 10.5v15.59c0 2.7-4.068 3.049-4.068 3.049z" fill="#333"/><path d="M55.787 69.738c-.6-5.1.6-32.387.6-32.387l-4.794-.3v28.788c-.001 3 4.194 3.899 4.194 3.899z" fill="#3c3c3c"/><path d="M96.835 77.535c0 9-14.382 17.993-20.674 17.993s-20.674-9-20.674-17.993c0 0-2.4-17.993 0-28.489" fill="#bb9167"/><path d="M97.135 49.046c2.1 10.5 0 29.689 0 29.689 0 9-14.681 14.994-20.974 14.994s-20.674-6-20.674-14.994" fill="#bb9167"/><path d="M97.434 52.345c0 11.4-9.588 20.392-21.273 20.392s-21.273-9-21.273-20.392 9.588-20.692 21.273-20.692 21.273 9.296 21.273 20.692z" fill="#bb9167"/><path d="M62.978 93.129c4.2 3.6 9.288 6.3 12.584 6.6h.9c3.3-.3 8.989-2.7 13.483-6.9v-3.6c-4.494 4.2-10.187 7.2-13.483 7.5h-.9c-3.3-.3-8.389-3.6-12.584-7.2z" fill="#a4744b"/><path d="M53.09 57.143s5.693-21.292 13.783-23.091l8.389-7.8-23.37 11.1-2.1 11.695z" fill="#3c3c3c"/><path d="M67.173 61.941a1.5 1.5 0 1 1-3 0 1.523 1.523 0 1 1 3 0zm20.674 0a1.605 1.605 0 0 1-1.5 1.5 1.679 1.679 0 0 1-1.8-1.5 1.655 1.655 0 1 1 3.3 0z" fill="none"/><path d="M59.382 35.251s6.891 9.6 17.977 11.4c0 0 11.086 1.8 14.082 9.6 0 0 2.69 6.632 6.585 8.132 0-.134.3-.479.3-.611.02-23.3 1.541-23.072 1.541-23.072C79.195 27.807 77.36 27.755 77.36 27.755z" fill="#3c3c3c"/><path d="M65.974 37.65s-11.985 10.5-11.685 24.291l-2.4-16.794 6.891-12.295 8.689-.6z" fill="#3c3c3c"/><path d="M76.461 85.032a26.694 26.694 0 0 1-6.592-.9c-.6 0-.9-.6-.9-1.2a1.555 1.555 0 0 1 1.2-.6 29.663 29.663 0 0 0 12.584 0c.3 0 .9.3.9.6.3.6 0 1.2-.6 1.2a26.68 26.68 0 0 1-6.592.9z" fill="#fff"/><path d="M81.255 58.942c-.3-.3-.3-.3 0-.6 3.895-3 9.588-1.5 9.888-1.5a.3.3 0 1 1 0 .6s-5.992-1.5-9.588 1.5h-.3zm-11.386 0c-3.895-3-9.588-1.5-9.588-1.5-.3 0-.3 0-.3-.3-.3 0 0-.3 0-.3.3 0 5.992-1.5 10.187 1.5v.6h-.299z" fill="none"/><path d="M76.461 64.94v7.2h-4.794c1.2-1.8 2.4-2.7 2.4-4.8a2.564 2.564 0 0 1 2.394-2.4z" fill="#d8b094"/><path d="M80.356 72.137h-8.09a1.416 1.416 0 0 0-1.5 1.5v.9a3.685 3.685 0 0 1 1.5-.6c.9 0 1.8.9 2.4 1.5.3.9 1.2.9 1.8.9a1.422 1.422 0 0 0 1.5-.9c.6-.6 1.5-1.5 2.4-1.5a3.685 3.685 0 0 1 1.5.6c0-.3.3-.6.3-.9a1.679 1.679 0 0 0-1.8-1.5z" fill="#a4744b"/><path d="M98.633 76.036a1.047 1.047 0 0 1-.3.6.644.644 0 0 1-.6-.6 1.047 1.047 0 0 1 .6-.3z" fill="#854085"/><path d="M98.633 76.935a1.047 1.047 0 0 1-.3.6.644.644 0 0 1-.6-.6 1.047 1.047 0 0 1 .6-.3zm0 1.2l-.3.3a1.043 1.043 0 0 1-.6-.3.645.645 0 0 1 .6-.6 1.047 1.047 0 0 1 .3.6zm0 .9l-.3.3a1.043 1.043 0 0 1-.6-.3.645.645 0 0 1 .6-.6 1.047 1.047 0 0 1 .3.6z" fill="#854085"/><path d="M98.633 79.934l-.3.3a1.043 1.043 0 0 1-.6-.3.645.645 0 0 1 .6-.6 1.047 1.047 0 0 1 .3.6zm0 .9l-.3.3a1.043 1.043 0 0 1-.6-.3.645.645 0 0 1 .6-.6 1.047 1.047 0 0 1 .3.6zm0 .9l-.3.3a1.043 1.043 0 0 1-.6-.3c0-.3.3-.3.6-.3a.292.292 0 0 1 .3.3zm0 .9l-.3.3a1.043 1.043 0 0 1-.6-.3c0-.3.3-.3.6-.3a.294.294 0 0 1 .3.299zM54.89 76.036a1.047 1.047 0 0 1-.3.6.644.644 0 0 1-.6-.6 1.047 1.047 0 0 1 .6-.3z" fill="#854085"/><path d="M54.89 76.935a1.047 1.047 0 0 1-.3.6.644.644 0 0 1-.6-.6 1.047 1.047 0 0 1 .6-.3zm0 1.2l-.3.3a1.043 1.043 0 0 1-.6-.3.645.645 0 0 1 .6-.6 1.047 1.047 0 0 1 .3.6zm0 .9l-.3.3a1.043 1.043 0 0 1-.6-.3.645.645 0 0 1 .6-.6 1.047 1.047 0 0 1 .3.6z" fill="#854085"/><path d="M54.89 79.934l-.3.3a1.043 1.043 0 0 1-.6-.3.645.645 0 0 1 .6-.6 1.047 1.047 0 0 1 .3.6zm0 .9l-.3.3a1.043 1.043 0 0 1-.6-.3.645.645 0 0 1 .6-.6 1.047 1.047 0 0 1 .3.6zm0 .9l-.3.3a1.043 1.043 0 0 1-.6-.3c0-.3.3-.3.6-.3a.292.292 0 0 1 .3.3zm0 .9l-.3.3a1.043 1.043 0 0 1-.6-.3c0-.3.3-.3.6-.3a.294.294 0 0 1 .3.299z" fill="#854085"/></g></svg>