<svg xmlns="http://www.w3.org/2000/svg" viewBox="0 0 177.898 150"><title>zerodata-connect-to-feed</title><path d="M153.358 26.18C152.132 11.513 140.211 0 125.677 0a27.7 27.7 0 0 0-24.717 15.57 27.721 27.721 0 0 0-14.76-4.245 28.662 28.662 0 0 0-27.467 21.57 26.108 26.108 0 0 0-19.022 48.516 19.232 19.232 0 0 0 8.124 2.283c.218.024.437.044.656.062 3.761.329 8.927.382 16.7.382h84.448a23.331 23.331 0 0 0 5.47-.656C168.092 80.9 177.9 69.122 177.9 54.975c0-14.775-10.7-26.967-24.542-28.795z" fill="#69afe5"/><path d="M150.655 26.474c.781.081 1.926.233 2.74.355A28.4 28.4 0 0 0 132.56 1.538c9.94 3.499 17.16 13.748 18.095 24.936zm9.645 1.956a28.378 28.378 0 0 1 14.338 24.84c0 13.767-9.542 25.229-22.174 27.744a38.473 38.473 0 0 1-5.323.815h-82.18c-3.412-.176-6.3-.187-8.791-.228a52.527 52.527 0 0 1-8.665-.449 21.218 21.218 0 0 1-5.315-1.2c-6.157-1.932-12.28-6.006-16.471-14.422a26.171 26.171 0 0 0 13.993 16.248 19.232 19.232 0 0 0 8.124 2.283c.218.024.437.044.656.062a127.978 127.978 0 0 0 16.7.015h84.448a12.693 12.693 0 0 0 5.47-.287c12.982-2.582 22.79-14.36 22.79-28.506a29.04 29.04 0 0 0-17.6-26.915z" fill="#2488d8"/><path d="M4.622 102.626h55.462V150H4.622z" fill="#009a83"/><path d="M71.638 150H60.084v-47.374h11.554z" fill="#007365"/><path d="M71.638 108.4H6.581l5.369 5.777h59.688z" fill="#005850"/><path d="M0 94.538h64.705V108.4H0z" fill="#00b294"/><path d="M76.26 108.4H64.705V94.538H76.26z" fill="#008272"/><path d="M86.659 129.2h33.355a15.159 15.159 0 0 0 15.141-12.754 14.936 14.936 0 0 0-14.084-17.087A15.132 15.132 0 0 1 106.3 84.418V54.1" fill="none" stroke="#666" stroke-miterlimit="10" stroke-width="2"/><path d="M115.753 62.226l-1.692 1.574-7.761-8.344-7.755 8.344-1.693-1.576 9.448-10.162z" fill="#666"/><path d="M64.705 119.958h2.311v17.332h-2.311z" fill="#282828"/><path d="M65.861 123.425h28.886v11.555H65.861z" fill="#fff"/><path d="M65.861 125.735h28.886v9.244H65.861z" fill="#b4a0ff"/><path d="M106.3 127.234l-6.123-6.185a2.568 2.568 0 0 0-1.893-1.091H71.527a2.2 2.2 0 0 0-2.2 2.2v12.932a2.2 2.2 0 0 0 2.2 2.2h26.759a2.475 2.475 0 0 0 1.9-1.1L106.3 130z" fill="#282828"/><path d="M99.917 121.371a5.122 5.122 0 0 0-1.879-1.413H71.486a2.717 2.717 0 0 0-2.158 2.542v2.6a3.356 3.356 0 0 1 2.158-2.827h26.552a12.98 12.98 0 0 1 1.879 1.7l6.385 6.074v-2.6z" fill="#737373"/><path d="M130.566 71.429h-2.311v-2.311h2.311zm-6.933-2.311h2.311v2.311h-2.311zm-4.622 0h2.311v2.311h-2.311zm-4.622 0h2.311v2.311h-2.31z" fill="#fff"/><path d="M109.768 69.118h2.311v2.311h-2.311zm-9.244 0h2.311v2.311h-2.311z" fill="none"/><path d="M95.9 69.118h2.311v2.311H95.9zm-4.622 0h2.311v2.311h-2.308zm-4.622 0h2.314v2.311h-2.311zm-2.311 2.311h-2.308v-2.311h2.311zm39.285-30.042h2.311V43.7h-2.311zm-4.622 0h2.311V43.7h-2.311zm-4.622 0h2.314V43.7h-2.31zm-4.622 0h2.311V43.7h-2.311zm-4.622 0h2.311V43.7h-2.311zm-4.622 0h2.311V43.7h-2.311zm-4.622 0h2.311V43.7H95.9zm-4.622 0h2.311V43.7h-2.306zm-4.622 0h2.316V43.7h-2.311zM84.348 43.7h-2.311v-2.313h2.311zm43.907 20.8h2.311v2.311h-2.311zm-46.218 0h2.311v2.311h-2.311zm46.218-4.622h2.311v2.311h-2.311zm-46.218 0h2.311v2.311h-2.311zm46.218-4.622h2.311v2.311h-2.311zm-46.218 0h2.311v2.311h-2.311zm46.218-4.622h2.311v2.311h-2.311zm-46.218 0h2.311v2.311h-2.311zm46.218-4.622h2.311v2.308h-2.311zm-46.218 0h2.311v2.308h-2.311zm46.218-4.622h2.311v2.31h-2.311zM128.255 32.144h2.311v2.311h-2.311zm-4.622 0h2.311v2.311h-2.311zm-4.622 0h2.311v2.311h-2.311zm-4.622 0h2.311v2.311h-2.31zm-4.622 0h2.311v2.311h-2.311zm-4.622 0h2.311v2.311h-2.311zm-4.622 0h2.311v2.311h-2.311zm-4.622 0h2.311v2.311H95.9zm-4.622 0h2.311v2.311h-2.309zm-2.309 2.311h-2.311v-2.311h2.311zM132.877 41.387h2.311V43.7h-2.311zm-55.462 0h2.311V43.7h-2.311zm55.462-4.622h2.311v2.311h-2.311zm-55.462 0h2.311v2.311h-2.311zm0-4.622h2.311v2.311h-2.311zm4.622 0h2.311v2.311h-2.311zm50.84 0h2.311v2.311h-2.311z" fill="#fff"/></svg>