<svg xmlns="http://www.w3.org/2000/svg" viewBox="0 0 180.78 134.085"><title>zerodata-feature-not-configured</title><path d="M72.32,6.089C75.943,2.468,80.353,4.8,85.583,8.955S91,17.45,89.133,18.939s-5.093,4.032-5.093,4.032A14.6,14.6,0,0,0,78.756,14.9C74.2,11.2,68.69,10.909,66.7,13S72.32,6.089,72.32,6.089Z" fill="#ce9c5f"/><path d="M76.2,13.186,68.65,18.77s2.157,3.687,4.527,5.131,4.977,2.274,7.033,1.852c.613-.126,8.923-6.814,8.923-6.814s-2.695,2.141-9.581-1.293C76.4,16.071,75.009,14.991,76.2,13.186Z" fill="#8c6943"/><path d="M78.053,16.843c-2.05-1.179-2.83-2.175-1.851-3.657,2.538-1.693,17.459-2.466,21.744-5-1.911,1.436-6.528,4.879-8.33,5.984C86.135,16.3,80.509,16.721,78.053,16.843Z" fill="#ba8c57"/><path d="M114.148,31.933s-13.452-8.3-17.375-19c-2.75-7.5-4.625-11.75-8.625-5.25a41.569,41.569,0,0,0-5.125,11.75l24.125,16.875Z" fill="#737373"/><rect x="77.273" y="19.433" width="68" height="113" fill="#ce9c5f"/><rect x="77.273" y="19.433" width="68" height="113" fill="none"/><rect x="29.273" y="19.433" width="48" height="113" fill="#8c6943"/><rect x="29.273" y="19.433" width="48" height="113" fill="none"/><polygon points="48.423 44.433 0 44.433 29.371 19.433 78.189 19.433 48.423 44.433" fill="#ce9c5f"/><polygon points="48.423 44.433 0 44.433 29.371 19.433 78.189 19.433 48.423 44.433" fill="none"/><polygon points="180.78 44.433 113.308 44.433 77.983 19.433 145.456 19.433 180.78 44.433" fill="#e4d2a9"/><polygon points="53.772 66.368 41.988 76.433 48.273 76.433 48.273 89.433 59.273 89.433 59.273 76.433 65.559 76.433 53.772 66.368" fill="#303333"/><polygon points="77.983 19.051 109.537 51.433 145.273 51.433 145.273 35.242 77.983 19.051" fill="#8c6943"/><polygon points="180.78 44.433 113.308 44.433 77.983 19.433 145.456 19.433 180.78 44.433" fill="#d8b07f"/><path d="M72.838,5.692s-9.565,7.741-9.565,10.741v36s3.429,1.856,6.026.588c1.206-.589,1.974-1.588,1.974-4.588,0-8-.067-36.379,0-38A8.62,8.62,0,0,1,72.838,5.692Z" fill="#d8b07f"/><path d="M66.135,52.907a5.75,5.75,0,0,1-2.029-1.4l-13.681,1.73s4.907,4.593,6.594,4.128c3.557-.743,10.281-3.507,12.476-4.411A3.909,3.909,0,0,1,66.135,52.907Z" fill="#ba8c57"/><polygon points="98.023 132.433 84.273 132.433 75.317 85.933 98.023 132.433" fill="#8c6943"/><polygon points="117.273 82.433 74.273 82.433 92.273 132.433 135.273 132.433 117.273 82.433" fill="#b3d6f2"/><polyline points="120.273 115.433 110.553 88.433 87.333 88.433 97.053 115.433" fill="#69afe5"/><polygon points="172.464 127.774 160.96 131.188 159.252 125.436 170.757 122.022 171.326 123.939 161.739 126.784 162.308 128.701 171.895 125.856 172.464 127.774" fill="#737373"/><rect x="155.172" y="123.144" width="11" height="10" rx="1.716" ry="1.716" transform="translate(-29.818 51.009) rotate(-16.53)" fill="#282828"/><path d="M162.876,122.274l-7.254,2.153a1.716,1.716,0,0,0-1.157,2.134l.569,1.917a1.716,1.716,0,0,1,1.157-2.134l7.254-2.153a1.718,1.718,0,0,1,2.134,1.157l-.569-1.917A1.716,1.716,0,0,0,162.876,122.274Z" fill="#505050"/><path d="M123.068,131.344c-12.476,1-16.524-2.846-15.333-6.48,1.917-5.848,17.357,3.369,21.857,5.392s20.093-1.778,17.849-7.232c-.88-2.14-2.614-3.455-7.373-.591C129.958,128.517,127.94,130.953,123.068,131.344Z" fill="none" stroke="#282828" stroke-miterlimit="10" stroke-width="2"/><path d="M124.737,130.725c-4.331.289-12.919-.209-14-5.126s4.083-5.333,8.5-2.666,8.5,8.161,18,8.33,13.924-1.792,13.165-5.914c-.584-3.166-5.816-3-11.084-.666S128.487,130.475,124.737,130.725Z" fill="none" stroke="#282828" stroke-miterlimit="10" stroke-width="2"/><path d="M114.485,130.349c-3.333-1.166-4.25-8.463,3-9.046s11.083,10.2,25.667,10.2a46.089,46.089,0,0,0,12.416-1.572" fill="none" stroke="#282828" stroke-miterlimit="10" stroke-width="2"/><path d="M131,128.855c-8.444-2.1-20.894-2.25-26.311,0" fill="none" stroke="#282828" stroke-miterlimit="10" stroke-width="2"/><rect x="99.793" y="127.301" width="6.736" height="4.78" rx="1.659" ry="1.659" transform="translate(-32.635 34.71) rotate(-16.53)" fill="#282828"/><path d="M96.773,12.933c-1.8-4.9-3.221-8.411-5.107-8.445l25.2-4.467a1.329,1.329,0,0,1,1.544,1.525l-2.094,12.72,3.334,3,3,11.042-8.5,3.625S100.7,23.634,96.773,12.933Z" fill="#c2c2c2"/><polygon points="114.148 31.933 126.398 21.683 123.648 29.433 114.148 31.933" fill="#939393"/><path d="M119.648,17.266c-.334,0-15.167-2.5-15.167-2.5l11.833-.5Z" fill="#d2d2d2"/></svg>