<svg id="Layer_1" xmlns="http://www.w3.org/2000/svg" viewBox="0 0 260 150"><style>.st0{fill:#b2b2b2}.st1{fill:none;stroke:#a7a9ac;stroke-width:2;stroke-miterlimit:10}.st2{fill:#a7a9ac}.st3{fill:none;stroke:#a7a9ac;stroke-width:2;stroke-miterlimit:10;stroke-dasharray:2,2}.st4{clip-path:url(#SVGID_2_);fill:#99bcd7}.st5{clip-path:url(#SVGID_4_);fill:#6597bf}.st6{clip-path:url(#SVGID_6_)}.st7{fill:#004b50}.st8{fill:#00746a}.st9{clip-path:url(#SVGID_8_)}.st10{fill:#17244e}.st11{fill:#34487a}.st12,.st13,.st14,.st15{clip-path:url(#SVGID_10_);fill:#b3d6f2}.st13,.st14,.st15{fill:#73594b}.st14,.st15{fill:#d1d3d4}.st15{fill:#40c5af}.st16{fill:#231f20}.st16,.st17,.st18,.st19{clip-path:url(#SVGID_10_)}.st18,.st19{fill:#6a5143}.st19{fill:#d39590}.st20,.st21,.st22,.st23,.st24{clip-path:url(#SVGID_10_);fill:#907a70}.st21,.st22,.st23,.st24{fill:#503f34}.st22,.st23,.st24{fill:#fff}.st23,.st24{fill:#f6641a}.st24{fill:#002050}.st25,.st26,.st27,.st28,.st29{clip-path:url(#SVGID_10_);fill:#f6cba7}.st26,.st27,.st28,.st29{fill:#a71e22}.st27,.st28,.st29{fill:#16214e}.st28,.st29{fill:#17244e}.st29{fill:#ddb594}.st30,.st31,.st32,.st33,.st34{clip-path:url(#SVGID_10_);fill:#f8cca7}.st31,.st32,.st33,.st34{fill:#dfb694}.st32,.st33,.st34{fill:#c1a081}.st33,.st34{fill:#e8b49a}.st34{fill:#666}.st35,.st36,.st37,.st38,.st39{clip-path:url(#SVGID_10_);fill:#bd9267}.st36,.st37,.st38,.st39{fill:#5c2d91}.st37,.st38,.st39{fill:#aa7a52}.st38,.st39{fill:#623d30}.st39{fill:#dbb17f}.st40,.st41,.st42,.st43{clip-path:url(#SVGID_12_);fill:#b3d6f2}.st41,.st42,.st43{fill:#73594b}.st42,.st43{fill:#d1d3d4}.st43{fill:#40c5af}.st44{fill:#231f20}.st44,.st45,.st46,.st47{clip-path:url(#SVGID_12_)}.st46,.st47{fill:#6a5143}.st47{fill:#d39590}.st48,.st49,.st50,.st51,.st52{clip-path:url(#SVGID_12_);fill:#907a70}.st49,.st50,.st51,.st52{fill:#503f34}.st50,.st51,.st52{fill:#fff}.st51,.st52{fill:#f6641a}.st52{fill:#002050}.st53,.st54,.st55,.st56,.st57{clip-path:url(#SVGID_12_);fill:#f6cba7}.st54,.st55,.st56,.st57{fill:#a71e22}.st55,.st56,.st57{fill:#16214e}.st56,.st57{fill:#17244e}.st57{fill:#ddb594}.st58,.st59,.st60,.st61,.st62{clip-path:url(#SVGID_12_);fill:#f8cca7}.st59,.st60,.st61,.st62{fill:#dfb694}.st60,.st61,.st62{fill:#c1a081}.st61,.st62{fill:#e8b49a}.st62{fill:#666}.st63,.st64,.st65,.st66,.st67{clip-path:url(#SVGID_12_);fill:#bd9267}.st64,.st65,.st66,.st67{fill:#5c2d91}.st65,.st66,.st67{fill:#aa7a52}.st66,.st67{fill:#623d30}.st67{fill:#dbb17f}.st68,.st69{clip-path:url(#SVGID_14_);fill:#d1d3d4}.st69{fill:#f6cba7}.st70,.st71,.st72,.st73,.st74{clip-path:url(#SVGID_14_);fill:#a71e22}.st71,.st72,.st73,.st74{fill:#17244e}.st72,.st73,.st74{fill:#ddb594}.st73,.st74{fill:#0078d7}.st74{fill:#004578}.st75{clip-path:url(#SVGID_16_);fill:#45779e}.st76{fill:#d0b28d}.st77{fill:#e81123}.st78{fill:#fff}.st79{fill:#dedede}.st80{fill:#ffb900}.st81{fill:#ba1121}.st82{fill:#db9d00}.st83{fill:#f6caa7}.st84{fill-rule:evenodd;clip-rule:evenodd;fill:#005a93}.st85{fill:#212121}.st86{fill:#666}.st87{fill:#ff8c00}.st88{fill:#2488d8}.st89{fill:#69afe5}.st90{fill:#0078d7}.st91{fill:#a88763}.st92{fill:#3b3b3b}.st93{fill:#220c3d}.st94{fill:#d8b094}.st95{fill:#bb9167}.st96{fill:#a996f0}.st97{fill:#3a2621}.st98{fill:#333}.st99{fill:#c7b8ff}.st100{fill:#ea6206}.st101{fill:#deecf9}.st102{fill:#005a93}.st103{fill:#231f20}.st104{fill:#8e562e}.st105{fill-rule:evenodd;clip-rule:evenodd;fill:#854cc7}.st106{fill:#b4a0ff}.st107{fill:#5c2d91}.st108{fill:#613d30}.st109{fill:#401467}.st110{fill:#625496}.st111{fill:#002050}.st112{fill:#deb695}.st113{fill:#282828}.st114{fill:#8a0000}.st115{fill:#f3f3f3}.st116{fill:#8a79c7}.st117{fill:#854cc7}.st118{fill:#ffa940}.st119{fill:#fff880}.st120{fill:#99bcd7}.st121{fill:#c8c8c8}.st122{fill:#45779e}.st123{fill:#a6a6a6}.st124{fill:#6597bf}.st125{fill:#3c3c3c}.st126{fill:#235a89}.st127{fill:#106ebe}.st128{fill:#1c4768}.st129{fill:#11334b}.st130{fill:#004578}.st131{fill:#b3d6f2}.st132{fill:#cfe0ee}.st133{fill:#eaeaea}.st134{fill:#e9f0f7}.st135{fill:#f4f4f4}.st136{fill-rule:evenodd;clip-rule:evenodd;fill:#fff200}.st137{fill:none;stroke:#fff100;stroke-width:.72;stroke-miterlimit:8}.st138,.st139,.st140,.st141,.st142{fill-rule:evenodd;clip-rule:evenodd;fill:#fff880}.st139,.st140,.st141,.st142{fill:#f0e300}.st140,.st141,.st142{fill:#ccc000}.st141,.st142{fill:#ffb900}.st142{fill:#ffcb40}.st143,.st144,.st145,.st146,.st147,.st148{fill-rule:evenodd;clip-rule:evenodd;fill:#f0ae00}.st144,.st145,.st146,.st147,.st148{fill:#c78e00}.st145,.st146,.st147,.st148{fill:#ff8c00}.st146,.st147,.st148{fill:#ffa940}.st147,.st148{fill:#f08400}.st148{fill:#ba6800}.st149,.st150,.st151,.st152,.st153,.st154{fill-rule:evenodd;clip-rule:evenodd;fill:#e81123}.st150,.st151,.st152,.st153,.st154{fill:#ee4d5a}.st151,.st152,.st153,.st154{fill:#d91021}.st152,.st153,.st154{fill:#a3111e}.st153,.st154{fill:#b4009e}.st154{fill:#c740b6}.st155,.st156,.st157,.st158,.st159,.st160{fill-rule:evenodd;clip-rule:evenodd;fill:#9e008b}.st156,.st157,.st158,.st159,.st160{fill:#850063}.st157,.st158,.st159,.st160{fill:#5c2d91}.st158,.st159,.st160{fill:#8562ad}.st159,.st160{fill:#522882}.st160{fill:#401467}.st161,.st162,.st163,.st164,.st165,.st166{fill-rule:evenodd;clip-rule:evenodd;fill:#0078d7}.st162,.st163,.st164,.st165,.st166{fill:#409ae1}.st163,.st164,.st165,.st166{fill:#006fc8}.st164,.st165,.st166{fill:#005291}.st165,.st166{fill:#008272}.st166{fill:#40a195}.st167,.st168,.st169,.st170,.st171,.st172{fill-rule:evenodd;clip-rule:evenodd;fill:#007365}.st168,.st169,.st170,.st171,.st172{fill:#005850}.st169,.st170,.st171,.st172{fill:#107c10}.st170,.st171,.st172{fill:#4c9d4c}.st171,.st172{fill:#0e6d0e}.st172{fill:#106110}.st173,.st174,.st175,.st176,.st177,.st178{fill-rule:evenodd;clip-rule:evenodd;fill:#e3008c}.st174,.st175,.st176,.st177,.st178{fill:#ea40a9}.st175,.st176,.st177,.st178{fill:#d40083}.st176,.st177,.st178{fill:#9c005f}.st177,.st178{fill:#b4a0ff}.st178{fill:#c7b8ff}.st179,.st180,.st181,.st182,.st183,.st184{fill-rule:evenodd;clip-rule:evenodd;fill:#a996f0}.st180,.st181,.st182,.st183,.st184{fill:#9080cf}.st181,.st182,.st183,.st184{fill:#00bcf2}.st182,.st183,.st184{fill:#40cdf5}.st183,.st184{fill:#00b0e3}.st184{fill:#0086ad}.st185,.st186,.st187,.st188,.st189,.st190{fill-rule:evenodd;clip-rule:evenodd;fill:#002050}.st186,.st187,.st188,.st189,.st190{fill:#40587c}.st187,.st188,.st189,.st190{fill:#001a41}.st188,.st189,.st190{fill:#001129}.st189,.st190{fill:#00b294}.st190{fill:#40c5af}.st191,.st192,.st193,.st194,.st195,.st196{fill-rule:evenodd;clip-rule:evenodd;fill:#00a387}.st192,.st193,.st194,.st195,.st196{fill:#008770}.st193,.st194,.st195,.st196{fill:#bad80a}.st194,.st195,.st196{fill:#cbe247}.st195,.st196{fill:#adc909}.st196{fill:#91a80a}.st197,.st198,.st199,.st200,.st201,.st202{fill-rule:evenodd;clip-rule:evenodd;fill:#d83b01}.st198,.st199,.st200,.st201,.st202{fill:#e26c41}.st199,.st200,.st201,.st202{fill:#bd3604}.st200,.st201,.st202{fill:#9c2801}.st201,.st202{fill:#a80000}.st202{fill:#be4040}.st203,.st204,.st205,.st206,.st207,.st208{fill-rule:evenodd;clip-rule:evenodd;fill:#900}.st204,.st205,.st206,.st207,.st208{fill:#750000}.st205,.st206,.st207,.st208{fill:#5c005c}.st206,.st207,.st208{fill:#854085}.st207,.st208{fill:#4d004d}.st208{fill:#380038}.st209,.st210,.st211,.st212,.st213,.st214{fill-rule:evenodd;clip-rule:evenodd;fill:#32145a}.st210,.st211,.st212,.st213,.st214{fill:#654f83}.st211,.st212,.st213,.st214{fill:#28114a}.st212,.st213,.st214{fill:#220c3d}.st213,.st214{fill:#00188f}.st214{fill:#4052ab}.st215,.st216,.st217,.st218,.st219,.st220{fill-rule:evenodd;clip-rule:evenodd;fill:#001580}.st216,.st217,.st218,.st219,.st220{fill:#001363}.st217,.st218,.st219,.st220{fill:#004b50}.st218,.st219,.st220{fill:#40787c}.st219,.st220{fill:#003d41}.st220{fill:#002f33}.st221,.st222,.st223,.st224,.st225,.st226{fill-rule:evenodd;clip-rule:evenodd;fill:#004b1c}.st222,.st223,.st224,.st225,.st226{fill:#407855}.st223,.st224,.st225,.st226{fill:#003c16}.st224,.st225,.st226{fill:#00240d}.st225,.st226{fill:#505050}.st226{fill:#282828}.st227,.st228,.st229,.st230,.st231,.st232{fill-rule:evenodd;clip-rule:evenodd;fill:#d2d2d2}.st228,.st229,.st230,.st231,.st232{fill:#f3f3f3}.st229,.st230,.st231,.st232{fill:#e6e6e6}.st230,.st231,.st232{fill:#939393}.st231,.st232{fill:#737373}.st232{fill:#c2c2c2}.st233{fill:#b2b2b2}.st233,.st234,.st235{fill-rule:evenodd;clip-rule:evenodd}.st235{fill:#fff}.st236{fill:none;stroke:#e6e6e6;stroke-width:.36;stroke-miterlimit:8}.st237,.st238,.st239,.st240,.st241{fill-rule:evenodd;clip-rule:evenodd;fill:#8e562e}.st238,.st239,.st240,.st241{fill:#d8b094}.st239,.st240,.st241{fill:#bb9167}.st240,.st241{fill:#613d30}.st241{fill:#f7d7c4}.st242{fill:#90c10c}.st243{fill:#65aa0d}.st244{fill:#3b930f}.st245{fill:#00a68c}.st246{fill:#009a83}.st247{fill:#008e7b}.st248{fill:#00abeb}.st249{fill:#009ae4}.st250{fill:#0089de}.st251{fill:#0060c5}.st252{fill:#0048b3}.st253{fill:#0030a1}.st254{fill:#006761}.st255{fill:#005959}.st256{fill:#0c7013}.st257{fill:#086416}.st258{fill:#045719}.st259{fill:#522783}.st260{fill:#472176}.st261{fill:#3d1a68}.st262{fill:#9e008e}.st263{fill:#88007d}.st264{fill:#72006d}.st265{fill:#d80d1a}.st266{fill:#c80912}.st267{fill:#b80409}.st268{fill:#9e83e3}.st269{fill:#8867c8}.st270{fill:#724aad}.st271{fill:#f57800}.st272{fill:#ec6401}.st273{fill:#e24f01}.st274{fill:#464646}.st275{fill:#323232}.st276{fill:#939393}.st277{fill:#ff8c20}.st278{opacity:0;fill:#fff}.st279{fill:#e6e6e6}.st280,.st281{stroke:#000;stroke-miterlimit:8}.st280{fill:none;stroke-linecap:square}.st281{stroke-linecap:round}.st281,.st282,.st283{fill:none}.st283{stroke:#f57800;stroke-miterlimit:8}.st284{fill:#c2c2c2}</style><path class="st0" d="M16.002 146.92h230.104c1.221 0 2.594-.932 2.926-2.107.597-2.116-1.009-3.893-2.89-3.893H16.046c-1.054 0-2.08.509-2.615 1.417a3.01 3.01 0 0 0 2.571 4.583z"/><path class="st276" d="M181.087 102.366l54.507-1.068 6.582 42.622h-2.313l-6.024-39-22.097-.207 6.056 39.207h-2.313l-6.024-39-26.544-.249-8.691 39.249h-2.341z"/><path class="st120" d="M209.12 52.92h18.779c3.788 0 5.682.275 6.088 3.306 1.034 7.72 3.923 34.711 4.464 40.909.287 3.293-1.894 5.785-7.846 5.785h-53.481s1.699-5 5.528-5h17.845s2.987-33.474 3.369-38.14c.403-4.939 1.751-6.86 5.254-6.86z"/><path class="st271" d="M67.5 81.92v62h2.57s5.14-45.106 5.911-49.218c.771-4.112 2.57-5.782 8.352-5.782h90.011c5.788 0 7.589 1.672 8.36 5.788.772 4.116 6.083 49.212 6.083 49.212h2.712l-.164-62H67.5z"/><path class="st277" d="M30.5 78.92h185v4h-185z"/><path class="st276" d="M115.838 100.92l49.225.295 5.735 42.705h-2.142l-5.206-40h-20.052l5.447 40h-2.076l-5.194-40h-23.698l-8.15 40h-2.168z"/><path class="st120" d="M141.049 53.676c4.836-.174 13.066 0 16.454 0s5.081.264 5.444 3.164c.925 7.39 3.509 33.225 3.992 39.159.257 3.152-1.694 5.538-7.017 5.921h-47.524c0-.384 0-4.998 5.323-5h15.584c0 .002 2.682-32.167 3.025-36.652.364-4.746 1.545-6.478 4.719-6.592z"/><g><path class="st276" d="M81.095 102.366l-54.507-1.068-6.582 42.622h2.313l6.024-39 22.097-.207-6.056 39.207h2.313l6.024-39 26.544-.249 8.691 39.249h2.341z"/><path class="st120" d="M53.062 52.92H34.283c-3.788 0-5.682.275-6.088 3.306-1.034 7.72-3.923 34.711-4.464 40.909-.287 3.293 1.894 5.785 7.846 5.785h53.481s-1.518-5-5.528-5H61.685s-2.987-33.474-3.369-38.14c-.403-4.939-1.751-6.86-5.254-6.86z"/></g><g><path class="st278" d="M75.5 6.92h49v50h-49z"/><ellipse class="st0" cx="100" cy="31.92" rx="25.5" ry="25"/><ellipse class="st279" cx="100" cy="31.92" rx="21.5" ry="21"/><ellipse class="st113" cx="100" cy="31.92" rx="1.5" ry="1"/><path class="st280" d="M100 12.42v40M81 32.42h39M83 22.42l35 20M91 49.42l19-34M90 15.42l20 34M83 42.42l35-20"/><ellipse class="st279" cx="100" cy="31.92" rx="16.5" ry="16"/><ellipse class="st113" cx="100" cy="31.92" rx="1.5" ry="1"/><path class="st281" d="M100 32.42l-12-12M100 32.42h10"/><path class="st282" d="M75.5 6.92h49v50h-49z"/><path class="st283" d="M103 29.42l-15 15"/></g></svg>