<svg xmlns="http://www.w3.org/2000/svg" xmlns:xlink="http://www.w3.org/1999/xlink" viewBox="0 0 160 150"><style>.st0{display:none}.st1,.st2{display:inline}.st2{fill:#fff}.st3{fill:#bcbec0}.st4{fill-rule:evenodd;clip-rule:evenodd;fill:#b3d6f2}.st5{fill:#d1d3d4}.st6{fill:#b2b2b2}.st7{fill:none}.st8{fill:#333}.st9{fill:#a7a9ac}.st10{fill:#ffb900}.st11{fill:#11334b}.st12{fill:#45779e}.st13{fill:#235a89}.st14{fill:#1c4768}.st15{fill:#99bcd7}.st16{fill:#6597bf}.st17{clip-path:url(#SVGID_4_)}.st18{fill:#fff200}.st18,.st19{clip-path:url(#SVGID_6_)}.st20{fill:#8e562e}.st21{fill:#bb9167}.st22{fill:#71563b}.st23{fill-rule:evenodd;clip-rule:evenodd;fill:#bb9167}.st24{clip-path:url(#SVGID_8_)}.st25{fill-rule:evenodd;clip-rule:evenodd;fill:#282828}.st26{fill:#40c5af}.st27{fill:#002f33}.st28{fill:#fff}.st29{fill:#008770}.st30{fill:#005850}.st31{clip-path:url(#SVGID_10_)}.st32{fill:#fff880}.st32,.st33{clip-path:url(#SVGID_12_)}.st34{clip-path:url(#SVGID_14_)}.st35{clip-path:url(#SVGID_16_)}.st36{fill:#00b294}.st37{fill:#9080cf}.st38{fill:#522882}.st39{fill:#737373}.st40{fill:#505050}.st41{fill:#ff8c00}.st42{fill:#69afe5}.st43{fill:#c8c8c8}.st44{fill:#666}.st45{fill:#0078d7}.st46{fill:#a6a6a6}.st47{fill:#2488d8}.st48{fill:#3c3c3c}.st49{fill:#106ebe}.st50{fill:#005a93}.st51{fill:#212121}.st52{fill:#004578}.st53{fill:#b3d6f2}.st54{fill:#cfe0ee}.st55{fill:#eaeaea}.st56{fill:#deecf9}.st57{fill:#e9f0f7}.st58{fill:#f4f4f4}.st59{fill:#231f20}.st60{fill:#00abeb}.st61{fill:#e6e6e6}.st62{fill:#0078d7}.st62,.st63,.st64,.st65,.st66{fill-rule:evenodd;clip-rule:evenodd}.st64,.st65,.st66{fill:#2488d8}.st65,.st66{fill:#ffb900}.st66{fill:#69afe5}.st67{fill:#006761}.st68{fill:none;stroke:#6d6e71;stroke-width:3;stroke-miterlimit:10}.st69{fill:#75beff}.st70{fill:#107c10}.st71{fill:none;stroke:#737373;stroke-width:2;stroke-miterlimit:10}.st72{fill:#bad80a}.st73{clip-path:url(#SVGID_18_)}.st74{clip-path:url(#SVGID_20_)}.st75{fill:#69afe5}.st75,.st76{clip-path:url(#SVGID_22_)}.st77{fill:#282828}.st78{clip-path:url(#SVGID_24_)}.st79{fill:#69afe5}.st79,.st80{clip-path:url(#SVGID_26_)}.st81{fill:#f7d7c4}.st82{fill:#d8b094}.st83{fill-rule:evenodd;clip-rule:evenodd;fill:#f7d7c4}.st84{clip-path:url(#SVGID_28_)}.st85{clip-path:url(#SVGID_30_)}.st86{fill:#69afe5}.st86,.st87{clip-path:url(#SVGID_32_)}.st88{clip-path:url(#SVGID_34_)}.st89{clip-path:url(#SVGID_36_)}.st90{fill:#613d30}.st91{fill:none;stroke:#69afe5;stroke-width:2;stroke-miterlimit:10}.st92{clip-path:url(#SVGID_38_)}.st93{clip-path:url(#SVGID_40_)}.st94{fill:#69afe5}.st94,.st95{clip-path:url(#SVGID_42_)}.st96{clip-path:url(#SVGID_44_)}.st97{fill:#69afe5}.st97,.st98{clip-path:url(#SVGID_46_)}.st99{clip-path:url(#SVGID_48_)}.st100{clip-path:url(#SVGID_50_)}.st101{fill:#69afe5}.st101,.st102{clip-path:url(#SVGID_52_)}.st103{clip-path:url(#SVGID_54_)}.st104{clip-path:url(#SVGID_56_)}.st105{fill:#007596}.st106{fill:#f3f3f3}.st107{fill:#008272}.st108{fill:#f8d5b9}.st109{fill:#5c005c}.st110{fill:none;stroke:#fff;stroke-width:.0567;stroke-linecap:round;stroke-linejoin:round;stroke-miterlimit:10}.st111{fill:#409ae1}.st112{fill:#004880}.st113{fill:none;stroke:#666;stroke-width:2;stroke-miterlimit:10}.st114{fill:#009a83}.st115{fill:#00746a}.st116{fill:#90908f}.st117{fill:#b4a0ff}.st118,.st119,.st120{fill-rule:evenodd;clip-rule:evenodd;fill:#939393}.st119,.st120{fill:#e81123}.st120{fill:none;stroke:#fff;stroke-miterlimit:10}.st121{clip-path:url(#SVGID_58_)}.st122{fill:#8ec3ec}.st123{fill:none;stroke:#fff;stroke-width:2;stroke-miterlimit:10;stroke-dasharray:2,3}.st124{fill:#472176}.st125{fill:#4d4e4e}.st126{fill:#70553a}.st127{fill:#682a7b}.st128{fill:#9b9b9b}.st129{fill:#5e5e5e}.st130{fill:#a88663}.st131{fill:#4d4d4d}.st132{fill:#5c2d91}.st133{fill:#724aad}.st134{fill:#e24f01}.st135{fill:#007365}.st136{fill:#00a387}.st137{fill:#90c10c}.st138{fill:none;stroke:#fff;stroke-width:2;stroke-miterlimit:10;stroke-dasharray:2,2}.st139,.st140,.st141{clip-path:url(#SVGID_60_);fill:#fff}.st140,.st141{fill:#fff200}.st141{fill:#bad80a}.st142,.st143,.st144,.st145{clip-path:url(#SVGID_60_);fill:#65aa0d}.st143,.st144,.st145{fill:#f08400}.st144,.st145{fill:#bd3604}.st145{fill:none}.st146{clip-path:url(#SVGID_62_)}.st147{clip-path:url(#SVGID_64_)}.st148{fill:#69afe5}.st148,.st149{clip-path:url(#SVGID_66_)}.st150{clip-path:url(#SVGID_68_)}.st151{fill:#69afe5}.st151,.st152{clip-path:url(#SVGID_70_)}.st153{clip-path:url(#SVGID_72_)}.st154{clip-path:url(#SVGID_74_)}.st155{fill:#69afe5}.st155,.st156{clip-path:url(#SVGID_76_)}.st157{clip-path:url(#SVGID_78_)}.st158{clip-path:url(#SVGID_80_)}.st159,.st160{fill-rule:evenodd;clip-rule:evenodd;fill:#235a89}.st160{fill:#fff}.st161{clip-path:url(#SVGID_82_)}.st162{clip-path:url(#SVGID_84_)}.st163{fill:#69afe5}.st163,.st164{clip-path:url(#SVGID_86_)}.st165{clip-path:url(#SVGID_88_)}.st166{fill:#69afe5}.st166,.st167{clip-path:url(#SVGID_90_)}.st168{clip-path:url(#SVGID_92_)}.st169{clip-path:url(#SVGID_94_)}.st170{fill:#69afe5}.st170,.st171{clip-path:url(#SVGID_96_)}.st172{clip-path:url(#SVGID_98_)}.st173{clip-path:url(#SVGID_100_)}.st174{fill-rule:evenodd;clip-rule:evenodd;fill:#fff200}.st175{fill:none;stroke:#fff100;stroke-width:.72;stroke-miterlimit:8}.st176{fill-rule:evenodd;clip-rule:evenodd;fill:#fff880}.st177,.st178,.st179,.st180,.st181,.st182{fill-rule:evenodd;clip-rule:evenodd;fill:#f0e300}.st178,.st179,.st180,.st181,.st182{fill:#ccc000}.st179,.st180,.st181,.st182{fill:#ffcb40}.st180,.st181,.st182{fill:#f0ae00}.st181,.st182{fill:#c78e00}.st182{fill:#ff8c00}.st183,.st184,.st185,.st186,.st187,.st188{fill-rule:evenodd;clip-rule:evenodd;fill:#ffa940}.st184,.st185,.st186,.st187,.st188{fill:#f08400}.st185,.st186,.st187,.st188{fill:#ba6800}.st186,.st187,.st188{fill:#ee4d5a}.st187,.st188{fill:#d91021}.st188{fill:#a3111e}.st189,.st190,.st191,.st192,.st193,.st194{fill-rule:evenodd;clip-rule:evenodd;fill:#b4009e}.st190,.st191,.st192,.st193,.st194{fill:#c740b6}.st191,.st192,.st193,.st194{fill:#9e008b}.st192,.st193,.st194{fill:#850063}.st193,.st194{fill:#5c2d91}.st194{fill:#8562ad}.st195,.st196,.st197,.st198,.st199,.st200{fill-rule:evenodd;clip-rule:evenodd;fill:#522882}.st196,.st197,.st198,.st199,.st200{fill:#401467}.st197,.st198,.st199,.st200{fill:#409ae1}.st198,.st199,.st200{fill:#006fc8}.st199,.st200{fill:#005291}.st200{fill:#008272}.st201,.st202,.st203,.st204,.st205,.st206{fill-rule:evenodd;clip-rule:evenodd;fill:#40a195}.st202,.st203,.st204,.st205,.st206{fill:#007365}.st203,.st204,.st205,.st206{fill:#005850}.st204,.st205,.st206{fill:#107c10}.st205,.st206{fill:#4c9d4c}.st206{fill:#0e6d0e}.st207,.st208,.st209,.st210,.st211,.st212{fill-rule:evenodd;clip-rule:evenodd;fill:#106110}.st208,.st209,.st210,.st211,.st212{fill:#e3008c}.st209,.st210,.st211,.st212{fill:#ea40a9}.st210,.st211,.st212{fill:#d40083}.st211,.st212{fill:#9c005f}.st212{fill:#b4a0ff}.st213,.st214,.st215,.st216,.st217,.st218{fill-rule:evenodd;clip-rule:evenodd;fill:#c7b8ff}.st214,.st215,.st216,.st217,.st218{fill:#a996f0}.st215,.st216,.st217,.st218{fill:#9080cf}.st216,.st217,.st218{fill:#00bcf2}.st217,.st218{fill:#40cdf5}.st218{fill:#00b0e3}.st219,.st220,.st221,.st222,.st223,.st224{fill-rule:evenodd;clip-rule:evenodd;fill:#0086ad}.st220,.st221,.st222,.st223,.st224{fill:#002050}.st221,.st222,.st223,.st224{fill:#40587c}.st222,.st223,.st224{fill:#001a41}.st223,.st224{fill:#001129}.st224{fill:#00b294}.st225,.st226,.st227,.st228,.st229,.st230{fill-rule:evenodd;clip-rule:evenodd;fill:#40c5af}.st226,.st227,.st228,.st229,.st230{fill:#00a387}.st227,.st228,.st229,.st230{fill:#008770}.st228,.st229,.st230{fill:#bad80a}.st229,.st230{fill:#cbe247}.st230{fill:#adc909}.st231,.st232,.st233,.st234,.st235,.st236{fill-rule:evenodd;clip-rule:evenodd;fill:#91a80a}.st232,.st233,.st234,.st235,.st236{fill:#d83b01}.st233,.st234,.st235,.st236{fill:#e26c41}.st234,.st235,.st236{fill:#bd3604}.st235,.st236{fill:#9c2801}.st236{fill:#a80000}.st237,.st238,.st239,.st240,.st241,.st242{fill-rule:evenodd;clip-rule:evenodd;fill:#be4040}.st238,.st239,.st240,.st241,.st242{fill:#900}.st239,.st240,.st241,.st242{fill:#750000}.st240,.st241,.st242{fill:#5c005c}.st241,.st242{fill:#854085}.st242{fill:#4d004d}.st243,.st244,.st245,.st246,.st247,.st248{fill-rule:evenodd;clip-rule:evenodd;fill:#380038}.st244,.st245,.st246,.st247,.st248{fill:#32145a}.st245,.st246,.st247,.st248{fill:#654f83}.st246,.st247,.st248{fill:#28114a}.st247,.st248{fill:#220c3d}.st248{fill:#00188f}.st249,.st250,.st251,.st252,.st253,.st254{fill-rule:evenodd;clip-rule:evenodd;fill:#4052ab}.st250,.st251,.st252,.st253,.st254{fill:#001580}.st251,.st252,.st253,.st254{fill:#001363}.st252,.st253,.st254{fill:#004b50}.st253,.st254{fill:#40787c}.st254{fill:#003d41}.st255,.st256,.st257,.st258,.st259,.st260{fill-rule:evenodd;clip-rule:evenodd;fill:#002f33}.st256,.st257,.st258,.st259,.st260{fill:#004b1c}.st257,.st258,.st259,.st260{fill:#407855}.st258,.st259,.st260{fill:#003c16}.st259,.st260{fill:#00240d}.st260{fill:#505050}.st261,.st262,.st263,.st264,.st265,.st266{fill-rule:evenodd;clip-rule:evenodd;fill:#d2d2d2}.st262,.st263,.st264,.st265,.st266{fill:#f3f3f3}.st263,.st264,.st265,.st266{fill:#e6e6e6}.st264,.st265,.st266{fill:#737373}.st265,.st266{fill:#c2c2c2}.st266{fill:#b2b2b2}.st267{fill:none;stroke:#e6e6e6;stroke-width:.36;stroke-miterlimit:8}.st268,.st269,.st270{fill-rule:evenodd;clip-rule:evenodd;fill:#8e562e}.st269,.st270{fill:#d8b094}.st270{fill:#613d30}.st271{fill:#65aa0d}.st272{fill:#3b930f}.st273{fill:#00a68c}.st274{fill:#008e7b}.st275{fill:#009ae4}.st276{fill:#0089de}.st277{fill:#0060c5}.st278{fill:#0048b3}.st279{fill:#0030a1}.st280{fill:#005959}.st281{fill:#0c7013}.st282{fill:#086416}.st283{fill:#045719}.st284{fill:#522783}.st285{fill:#3d1a68}.st286{fill:#9e008e}.st287{fill:#88007d}.st288{fill:#72006d}.st289{fill:#d80d1a}.st290{fill:#c80912}.st291{fill:#b80409}.st292{fill:#9e83e3}.st293{fill:#8867c8}.st294{fill:#f57800}.st295{fill:#ec6401}.st296{fill:#464646}.st297{fill:#323232}.st298{fill:#939393}.st299{stroke:#a6a6a6;stroke-dasharray:1,1}.st299,.st300,.st301{fill:none;stroke-miterlimit:10}.st300{clip-path:url(#SVGID_102_);stroke-dasharray:1,1;stroke:#a6a6a6}.st301{stroke:#bcbec0}.st302{fill:#d2d2d2}.st303{fill:#8e6b4e}.st304{fill:#4d4c4d}.st305{fill:#2f2f2f}.st306{fill:#9b2438}.st307{fill:#5d5f5e}.st308{fill:#acacac}.st309{fill:#d07f1c}.st310{fill-rule:evenodd;clip-rule:evenodd;fill:#005a93}.st311{fill:#a88763}.st312{fill:#3b3b3b}.st313{fill:#220c3d}.st314{fill:#a996f0}.st315{fill:#3a2621}.st316{fill:#c7b8ff}.st317{fill:#ea6206}.st318{fill:#692a7b}.st319{fill:#0e3c5e}.st320{fill:#fff880}.st321{fill:#fcb71e}.st322{fill:none;stroke:#4d4c4d;stroke-miterlimit:10}.st323{fill:#0757a4}.st324{fill:#393939}.st325{fill:#c2bdbb}.st326{fill:#929292}.st327{fill:#fff200}.st328{fill:#bd3604}.st329{fill:#f08400}.st330,.st331{fill:none;stroke:#737373;stroke-miterlimit:10}.st331{stroke-linejoin:bevel}.st332{clip-path:url(#SVGID_104_);fill:#2488d8}.st333{fill:#69afe5}.st333,.st334,.st335,.st336{clip-path:url(#SVGID_104_)}.st334{stroke:#fff;stroke-width:2;stroke-miterlimit:10;stroke-dasharray:2,3;fill:none}.st335,.st336{fill:#bb9167}.st336{fill:#fff}.st337,.st338,.st339,.st340{clip-path:url(#SVGID_104_);fill:#472176}.st338,.st339,.st340{fill:#4d4e4e}.st339,.st340{fill:#70553a}.st340{fill:#682a7b}.st341{fill:#9b9b9b}.st341,.st342,.st343{clip-path:url(#SVGID_104_)}.st343{fill:#4d4d4d}.st344,.st345,.st346,.st347{clip-path:url(#SVGID_104_);fill:#333}.st345,.st346,.st347{fill:#3c3c3c}.st346,.st347{fill:#5c2d91}.st347{fill:#666}.st348,.st349{clip-path:url(#SVGID_106_)}.st349{fill:none;stroke:#fff;stroke-width:2;stroke-miterlimit:10;stroke-dasharray:2,3}.st350,.st351,.st352{clip-path:url(#SVGID_106_);fill:#bb9167}.st351,.st352{fill:#fff}.st352{fill:#472176}.st353,.st354,.st355,.st356{clip-path:url(#SVGID_106_);fill:#4d4e4e}.st354,.st355,.st356{fill:#682a7b}.st355,.st356{fill:#9b9b9b}.st356{fill:#4d4d4d}.st357,.st358,.st359,.st360{clip-path:url(#SVGID_106_);fill:#333}.st358,.st359,.st360{fill:#3c3c3c}.st359,.st360{fill:#5c2d91}.st360{fill:#666}.st361{fill:#fff;stroke:#69afe5;stroke-width:.5;stroke-miterlimit:10}.st362,.st363,.st364,.st365{clip-path:url(#SVGID_108_)}.st363,.st364,.st365{fill:#bb9167}.st364,.st365{fill:#fff}.st365{fill:#472176}.st366,.st367,.st368,.st369{clip-path:url(#SVGID_108_);fill:#4d4e4e}.st367,.st368,.st369{fill:#682a7b}.st368,.st369{fill:#9b9b9b}.st369{fill:#4d4d4d}.st370,.st371,.st372,.st373{clip-path:url(#SVGID_108_);fill:#333}.st371,.st372,.st373{fill:#3c3c3c}.st372,.st373{fill:#5c2d91}.st373{fill:#666}.st374{fill:#65abe4}.st375{fill:#8cc1eb}.st376,.st377,.st378,.st379{clip-path:url(#SVGID_110_)}.st377,.st378,.st379{fill:#bb9167}.st378,.st379{fill:#fff}.st379{fill:#472176}.st380,.st381,.st382,.st383{clip-path:url(#SVGID_110_);fill:#4d4e4e}.st381,.st382,.st383{fill:#682a7b}.st382,.st383{fill:#9b9b9b}.st383{fill:#4d4d4d}.st384,.st385,.st386,.st387{clip-path:url(#SVGID_110_);fill:#333}.st385,.st386,.st387{fill:#3c3c3c}.st386,.st387{fill:#5c2d91}.st387{fill:#666}</style><switch><g><g id="Layer_1"><path class="st126" d="M83.979 112.172h.551v.11h-.551z"/><defs><path id="SVGID_109_" d="M-.25-2h161v152h-161z"/></defs><clipPath id="SVGID_2_"><use xlink:href="#SVGID_109_" overflow="visible"/></clipPath><g clip-path="url(#SVGID_2_)"><path class="st42" d="M128.076 28.582c-1.193-14.278-12.797-25.485-26.945-25.485-10.484 0-19.569 6.158-24.059 15.155a26.98 26.98 0 0 0-14.366-4.133c-12.761 0-23.501 8.892-26.737 20.997a25.539 25.539 0 0 0-11.428-.955C12.744 35.829 3.588 45.781 2.84 57.671c-.685 10.885 5.488 20.406 14.611 24.672 2.105 1.197 4.327 1.859 7.909 2.223.212.024.425.043.639.061 3.659.322 8.687.373 16.258.373h82.203a22.7 22.7 0 0 0 5.324-.639c12.635-2.515 22.18-13.98 22.18-27.75 0-14.384-10.416-26.25-23.888-28.029z"/><path class="st47" d="M125.445 28.059c.761.078 1.875.227 2.667.345-.945-12.196-9.572-21.802-20.281-24.619 9.671 3.407 16.704 13.384 17.614 24.274zM134.837 30.233c8.312 4.656 13.957 13.735 13.957 24.18 0 13.401-9.289 24.558-21.584 27.006a20.185 20.185 0 0 1-5.181.582h-80c-3.322.039-6.137.029-8.557-.011-2.506.052-5.402.004-8.435-.437-2.126-.246-3.753-.616-5.173-1.165-5.994-1.883-11.954-5.849-16.033-14.04 2.073 7.013 7.089 12.762 13.62 15.816 2.104 1.197 4.327 1.859 7.908 2.223.212.024.425.043.639.061 3.66.322 8.688.374 16.259.554h82.203c1.824-.181 3.606-.406 5.324-.819 12.634-2.515 22.179-13.979 22.179-27.75 0-11.865-7.086-22.008-17.126-26.2z"/></g><g clip-path="url(#SVGID_2_)"><path class="st28" d="M107.75 67h-2v-2h2zM101.75 65h2v2h-2zM97.75 65h2v2h-2zM93.75 65h2v2h-2zM89.75 65h2v2h-2zM85.75 65h2v2h-2zM81.75 65h2v2h-2zM77.75 65h2v2h-2zM73.75 65h2v2h-2zM69.75 65h2v2h-2zM67.75 67h-2v-2h2zM101.75 41h2v2h-2zM97.75 41h2v2h-2zM93.75 41h2v2h-2zM89.75 41h2v2h-2zM85.75 41h2v2h-2zM81.75 41h2v2h-2zM77.75 41h2v2h-2zM73.75 41h2v2h-2zM69.75 41h2v2h-2zM67.75 43h-2v-2h2zM105.75 61h2v2h-2zM65.75 61h2v2h-2zM105.75 57h2v2h-2zM65.75 57h2v2h-2zM105.75 53h2v2h-2zM65.75 53h2v2h-2zM105.75 49h2v2h-2zM65.75 49h2v2h-2zM105.75 45h2v2h-2zM65.75 45h2v2h-2zM105.75 41h2v2h-2z"/><g><path class="st28" d="M105.75 33h2v2h-2zM101.75 33h2v2h-2zM97.75 33h2v2h-2zM93.75 33h2v2h-2zM89.75 33h2v2h-2zM85.75 33h2v2h-2zM81.75 33h2v2h-2zM77.75 33h2v2h-2zM73.75 33h2v2h-2zM71.75 35h-2v-2h2z"/></g><path class="st28" d="M109.75 41h2v2h-2zM61.75 41h2v2h-2zM109.75 37h2v2h-2zM61.75 37h2v2h-2zM61.75 33h2v2h-2zM65.75 33h2v2h-2zM109.75 33h2v2h-2z"/></g><path d="M62.52 34.662c.031-.038.069-.085.096-.116.42-.496 1.192.068.771.637l-.031.04c.458-.207.935.303.572.877-.439.694-1.949 2.506-1.949 2.506s.632-.343 1.434-.66c.641-.254.876.566.876.566s-1.004.613-1.94 1.222c-.461.3-1.866.689-1.866.689l-1.043 1.244-2.193-1.501s.364-1.749 1.167-2.792c.411-.534 1.853-2.399 2.241-2.857.285-.337.723-.181.85.128l.142-.174c.304-.358.785-.16.873.191z" clip-path="url(#SVGID_2_)" fill="#bb9167"/><path transform="rotate(-54.823 57.98 40.811)" clip-path="url(#SVGID_2_)" fill="#fff" d="M57.481 39.026h.991v3.572h-.991z"/><path d="M56.276 40.097S45.467 55.935 43.22 59.109c-2.247 3.174 2.478 5.98 4.479 2.559 1.96-3.351 11.885-19.262 11.885-19.262l-3.308-2.309z" clip-path="url(#SVGID_2_)" fill="#472176"/><path clip-path="url(#SVGID_2_)" fill="#9b9b9b" d="M61.547 176l-12.489-71H43.83l-12.811 71h-2.096l13.017-72.145.154-.855h8.707l12.841 73z"/><g clip-path="url(#SVGID_2_)"><path class="st44" d="M40.75 115h20v2h-20z"/></g><g clip-path="url(#SVGID_2_)"><path class="st44" d="M37.75 127h20v2h-20z"/></g><g clip-path="url(#SVGID_2_)"><path class="st44" d="M35.75 140h20v2h-20z"/></g><path clip-path="url(#SVGID_2_)" fill="#9b9b9b" d="M62.846 106l-.591-4H41.254l-.682 4zM37.828 127h2.115l-8.841 49h-2.115z"/><path d="M54.528 45.031l-6.253 4.914s.832 1.58.692 7.678l-.329 2.54 5.088 1.524-.125-5.562 2.304-.643s1.09-1.788.887-4.182c-.098-3.413-2.264-6.269-2.264-6.269z" clip-path="url(#SVGID_2_)" fill="#bb9167"/><path d="M54.403 43.581c-1.74-.144-1.479-.477-3.294.062-.258.077-3.986.629-4.421 3.982-.435 3.353 2.258 6.697 2.258 6.697s1.779 1.428 3.509-.066c.708-1.131 1.02-1.458.177-4.597-.574-2.135 1.375-.788 1.556-.338l1.413-2.621c0 .001.542-2.975-1.198-3.119z" clip-path="url(#SVGID_2_)" fill="#4d4d4d"/><path d="M57.044 78.808l-12.427 1.207s-1.976 1.284-2.873 4.627c-1.047 3.903-.91 8.838-.91 8.838l-4.608 33.166s6.456-1.025 5.657-2.144c-.8-1.119 1.572-9.142 6.237-27.249 2.172 16.578 3.127 29.227 3.127 29.227l5.396.698 1.207-1.772s-1.547-.607-2.155-1.852 1.349-44.746 1.349-44.746z" clip-path="url(#SVGID_2_)" fill="#333"/><path d="M36.146 127l.5-4.137 4.999.345s1.638 1.379 2.327 1.81c.69.431.438 1.982.438 1.982h-8.264zM50.454 127l.5-4.137 4.71.306s1.927 1.418 2.617 1.849c.69.431.438 1.982.438 1.982h-8.265z" clip-path="url(#SVGID_2_)" fill="#3c3c3c"/><path clip-path="url(#SVGID_2_)" fill="#9b9b9b" d="M63.258 104.944L50.37 176h-2.102l12.944-71.735z"/><path d="M55.851 58.75c-2.688-.292-6.771-.458-9.729-.625-2.36-.133-3.389 1.001-3.875 3.125-2.167 9.458-2.083 17-2.843 24.316a231.01 231.01 0 0 0 17.384 1.309c.75-5.312 2.381-19.162 2.625-20.75.626-4.063.438-6.875-3.562-7.375z" clip-path="url(#SVGID_2_)" fill="#5c2d91"/><path clip-path="url(#SVGID_2_)" fill="#9b9b9b" d="M70.021 103.414L82.79 176h-2.101l-12.647-71.961z"/><path clip-path="url(#SVGID_2_)" fill="#666" d="M70.523 105.955L69.939 102l-8.543.045-.674 3.955z"/><g clip-path="url(#SVGID_2_)"><path class="st21" d="M84.242 67.291c.047-.014.105-.03.144-.043.621-.194.401-1.124-.287-.959l-.049.013c.369-.341.085-.979-.585-.869-.811.134-3.067.82-3.067.82s.562-.449 1.166-1.064c.484-.492-.18-1.028-.18-1.028s-.956.686-1.881 1.312c-.456.308-1.362 1.451-1.362 1.451l-1.551.476-.05 2.428s1.177.772 2.45.439c.652-.17 4.085-1.023 4.658-1.202.421-.131.449-.595.213-.833l.215-.063a.498.498 0 0 0 .166-.878z"/><path transform="rotate(-9.284 77.546 68.804)" class="st28" d="M77.052 67.014h.991v3.572h-.991z"/><path class="st124" d="M76.77 67.118l-10.251 1.631s-5.576-6.001-7.781-8.708-6.813.727-4.094 3.68c5.965 6.477 6.678 7.13 8.34 8.547 1.608 1.371 2.925 1.566 4.835 1.125 3.783-.872 9.607-2.295 9.607-2.295l-.656-3.98z"/><path class="st133" d="M57.876 60.439c2.205 2.707 8.367 9.358 8.367 9.358l10.681-1.748-.154-.931-10.251 1.631s-5.608-6.047-7.813-8.754c-.842-1.033-2.031-1.168-3.032-.78.855.164 1.656.554 2.202 1.224z"/></g><path d="M52.096 123.19l-1.142-.079s-1.151-12.49-2.461-22.949c-.095-.85-.407-2.665-.376-2.915 2.712 9.983 3.659 20.666 3.979 25.943zM42.578 85.906c-.364-.036-.732-.074-1.102-.113-.751 3.657-.643 7.687-.643 7.687l-4.101 29.723 1.115.077 4.111-29.8s-.106-3.947.62-7.574z" clip-path="url(#SVGID_2_)" fill="#666"/></g></g></switch></svg>