<svg id="Layer_1" xmlns="http://www.w3.org/2000/svg" viewBox="0 0 260 150"><style>.st0{fill:none}.st1{fill:#fff}.st2{fill:#69afe5}.st3{fill:#99bcd7}.st4{fill:#c8c8c8}.st5{fill:#666}.st6{fill:#45779e}.st7{fill:#0078d7}.st8{fill:#a6a6a6}.st9{fill:#6597bf}.st10{fill:#2488d8}.st11{fill:#3c3c3c}.st12{fill:#235a89}.st13{fill:#106ebe}.st14{fill:#333}.st15{fill:#1c4768}.st16{fill:#005a93}.st17{fill:#212121}.st18{fill:#11334b}.st19{fill:#004578}.st20{fill:#b3d6f2}.st21{fill:#cfe0ee}.st22{fill:#eaeaea}.st23{fill:#deecf9}.st24{fill:#e9f0f7}.st25{fill:#f4f4f4}.st26{fill:#231f20}.st27{fill:none;stroke:#4d4d4d;stroke-width:2;stroke-miterlimit:10}.st28{fill:#999}.st29{clip-path:url(#SVGID_2_)}.st29,.st30{fill:#ccc}.st31{fill:#4d4d4d}.st32{fill:#b3b3b3}.st33{fill:gray}.st34,.st35{fill:none;stroke:#666;stroke-linecap:round;stroke-linejoin:round;stroke-miterlimit:10}.st35{stroke-width:1.6939}.st36{fill:#006761}.st37{clip-path:url(#SVGID_4_);fill:#002f33}.st38{fill:#b2b2b2}.st39{fill:#724aad}.st40{fill:#5c2d91}.st41{fill:#522882}.st42{fill:#3d1a68}.st43,.st44,.st45,.st46,.st47{clip-path:url(#SVGID_6_);fill:#bea15f}.st44,.st45,.st46,.st47{fill:none}.st45,.st46,.st47{fill:#937a47}.st46,.st47{fill:#e4d2a9}.st47{fill:#303333}.st48{clip-path:url(#SVGID_12_)}.st49{fill:#00a68c}.st50{fill:#bea15f}.st51{fill:#937a47}.st52{fill:#82693c}.st53{fill:#e4d2a9}.st54{fill:#008272}.st55{fill:#d8b094}.st56{fill:#002f33}.st57{fill:#004b50}.st58{fill:#c99e81}.st59{fill:#613d30}.st60,.st61,.st62,.st63,.st64{clip-path:url(#SVGID_12_);fill:#40c5af}.st61,.st62,.st63,.st64{fill:#a0e2d7}.st62,.st63,.st64{fill:#40a195}.st63,.st64{fill:#00a68c}.st64{fill:#003d41}.st65,.st66,.st67,.st68,.st69{clip-path:url(#SVGID_12_);fill:#008e7b}.st66,.st67,.st68,.st69{fill:#008272}.st67,.st68,.st69{fill:#004b50}.st68,.st69{fill:#002f33}.st69{fill:#006761}.st70{fill:#0078d7}.st70,.st71,.st72{clip-path:url(#SVGID_12_)}.st71{stroke:#fff;stroke-miterlimit:10;fill:none}.st72{fill:#2488d8}.st73{fill-rule:evenodd;clip-rule:evenodd;fill:#fff200}.st74{fill:none;stroke:#fff100;stroke-width:.72;stroke-miterlimit:8}.st75,.st76,.st77,.st78,.st79{fill-rule:evenodd;clip-rule:evenodd;fill:#fff880}.st76,.st77,.st78,.st79{fill:#f0e300}.st77,.st78,.st79{fill:#ccc000}.st78,.st79{fill:#ffb900}.st79{fill:#ffcb40}.st80,.st81,.st82,.st83,.st84,.st85{fill-rule:evenodd;clip-rule:evenodd;fill:#f0ae00}.st81,.st82,.st83,.st84,.st85{fill:#c78e00}.st82,.st83,.st84,.st85{fill:#ff8c00}.st83,.st84,.st85{fill:#ffa940}.st84,.st85{fill:#f08400}.st85{fill:#ba6800}.st86,.st87,.st88,.st89,.st90,.st91{fill-rule:evenodd;clip-rule:evenodd;fill:#e81123}.st87,.st88,.st89,.st90,.st91{fill:#ee4d5a}.st88,.st89,.st90,.st91{fill:#d91021}.st89,.st90,.st91{fill:#a3111e}.st90,.st91{fill:#b4009e}.st91{fill:#c740b6}.st92,.st93,.st94,.st95,.st96,.st97{fill-rule:evenodd;clip-rule:evenodd;fill:#9e008b}.st93,.st94,.st95,.st96,.st97{fill:#850063}.st94,.st95,.st96,.st97{fill:#5c2d91}.st95,.st96,.st97{fill:#8562ad}.st96,.st97{fill:#522882}.st97{fill:#401467}.st100,.st101,.st102,.st103,.st98,.st99{fill-rule:evenodd;clip-rule:evenodd;fill:#0078d7}.st100,.st101,.st102,.st103,.st99{fill:#409ae1}.st100,.st101,.st102,.st103{fill:#006fc8}.st101,.st102,.st103{fill:#005291}.st102,.st103{fill:#008272}.st103{fill:#40a195}.st104,.st105,.st106,.st107,.st108,.st109{fill-rule:evenodd;clip-rule:evenodd;fill:#007365}.st105,.st106,.st107,.st108,.st109{fill:#005850}.st106,.st107,.st108,.st109{fill:#107c10}.st107,.st108,.st109{fill:#4c9d4c}.st108,.st109{fill:#0e6d0e}.st109{fill:#106110}.st110,.st111,.st112,.st113,.st114,.st115{fill-rule:evenodd;clip-rule:evenodd;fill:#e3008c}.st111,.st112,.st113,.st114,.st115{fill:#ea40a9}.st112,.st113,.st114,.st115{fill:#d40083}.st113,.st114,.st115{fill:#9c005f}.st114,.st115{fill:#b4a0ff}.st115{fill:#c7b8ff}.st116,.st117,.st118,.st119,.st120,.st121{fill-rule:evenodd;clip-rule:evenodd;fill:#a996f0}.st117,.st118,.st119,.st120,.st121{fill:#9080cf}.st118,.st119,.st120,.st121{fill:#00bcf2}.st119,.st120,.st121{fill:#40cdf5}.st120,.st121{fill:#00b0e3}.st121{fill:#0086ad}.st122,.st123,.st124,.st125,.st126,.st127{fill-rule:evenodd;clip-rule:evenodd;fill:#002050}.st123,.st124,.st125,.st126,.st127{fill:#40587c}.st124,.st125,.st126,.st127{fill:#001a41}.st125,.st126,.st127{fill:#001129}.st126,.st127{fill:#00b294}.st127{fill:#40c5af}.st128,.st129,.st130,.st131,.st132,.st133{fill-rule:evenodd;clip-rule:evenodd;fill:#00a387}.st129,.st130,.st131,.st132,.st133{fill:#008770}.st130,.st131,.st132,.st133{fill:#bad80a}.st131,.st132,.st133{fill:#cbe247}.st132,.st133{fill:#adc909}.st133{fill:#91a80a}.st134,.st135,.st136,.st137,.st138,.st139{fill-rule:evenodd;clip-rule:evenodd;fill:#d83b01}.st135,.st136,.st137,.st138,.st139{fill:#e26c41}.st136,.st137,.st138,.st139{fill:#bd3604}.st137,.st138,.st139{fill:#9c2801}.st138,.st139{fill:#a80000}.st139{fill:#be4040}.st140,.st141,.st142,.st143,.st144,.st145{fill-rule:evenodd;clip-rule:evenodd;fill:#900}.st141,.st142,.st143,.st144,.st145{fill:#750000}.st142,.st143,.st144,.st145{fill:#5c005c}.st143,.st144,.st145{fill:#854085}.st144,.st145{fill:#4d004d}.st145{fill:#380038}.st146,.st147,.st148,.st149,.st150,.st151{fill-rule:evenodd;clip-rule:evenodd;fill:#32145a}.st147,.st148,.st149,.st150,.st151{fill:#654f83}.st148,.st149,.st150,.st151{fill:#28114a}.st149,.st150,.st151{fill:#220c3d}.st150,.st151{fill:#00188f}.st151{fill:#4052ab}.st152,.st153,.st154,.st155,.st156,.st157{fill-rule:evenodd;clip-rule:evenodd;fill:#001580}.st153,.st154,.st155,.st156,.st157{fill:#001363}.st154,.st155,.st156,.st157{fill:#004b50}.st155,.st156,.st157{fill:#40787c}.st156,.st157{fill:#003d41}.st157{fill:#002f33}.st158,.st159,.st160,.st161,.st162,.st163{fill-rule:evenodd;clip-rule:evenodd;fill:#004b1c}.st159,.st160,.st161,.st162,.st163{fill:#407855}.st160,.st161,.st162,.st163{fill:#003c16}.st161,.st162,.st163{fill:#00240d}.st162,.st163{fill:#505050}.st163{fill:#282828}.st164,.st165,.st166,.st167,.st168,.st169{fill-rule:evenodd;clip-rule:evenodd;fill:#d2d2d2}.st165,.st166,.st167,.st168,.st169{fill:#f3f3f3}.st166,.st167,.st168,.st169{fill:#e6e6e6}.st167,.st168,.st169{fill:#939393}.st168,.st169{fill:#737373}.st169{fill:#c2c2c2}.st170{fill:#b2b2b2}.st170,.st171,.st172{fill-rule:evenodd;clip-rule:evenodd}.st172{fill:#fff}.st173{fill:none;stroke:#e6e6e6;stroke-width:.36;stroke-miterlimit:8}.st174,.st175,.st176,.st177,.st178{fill-rule:evenodd;clip-rule:evenodd;fill:#8e562e}.st175,.st176,.st177,.st178{fill:#d8b094}.st176,.st177,.st178{fill:#bb9167}.st177,.st178{fill:#613d30}.st178{fill:#f7d7c4}.st179{fill:#90c10c}.st180{fill:#65aa0d}.st181{fill:#3b930f}.st182{fill:#009a83}.st183{fill:#008e7b}.st184{fill:#00abeb}.st185{fill:#009ae4}.st186{fill:#0089de}.st187{fill:#0060c5}.st188{fill:#0048b3}.st189{fill:#0030a1}.st190{fill:#00746a}.st191{fill:#005959}.st192{fill:#0c7013}.st193{fill:#086416}.st194{fill:#045719}.st195{fill:#522783}.st196{fill:#472176}.st197{fill:#9e008e}.st198{fill:#88007d}.st199{fill:#72006d}.st200{fill:#d80d1a}.st201{fill:#c80912}.st202{fill:#b80409}.st203{fill:#9e83e3}.st204{fill:#8867c8}.st205{fill:#f57800}.st206{fill:#ec6401}.st207{fill:#e24f01}.st208{fill:#464646}.st209{fill:#323232}.st210{clip-path:url(#SVGID_14_);fill:#bea15f}.st211,.st212,.st213,.st214{clip-path:url(#SVGID_14_);fill:none}.st212,.st213,.st214{fill:#937a47}.st213,.st214{fill:#e4d2a9}.st214{fill:#303333}.st215{fill:#a6a8ab}.st216{fill:#00a387}.st217{fill:#00b294}.st218{fill:#a0e2d7}.st219{clip-path:url(#SVGID_16_);fill:#002f33}.st220{clip-path:url(#SVGID_18_)}.st221,.st222{clip-path:url(#SVGID_20_);fill:#bea15f}.st222{fill:#40c5af}.st223,.st224,.st225,.st226{clip-path:url(#SVGID_20_);fill:#937a47}.st224,.st225,.st226{fill:none}.st225,.st226{fill:#80d8ca}.st226{fill:#303333}.st227{fill:#220c3d}.st228{fill:#32145a}.st229{clip-path:url(#SVGID_22_);fill:#bea15f}.st230,.st231,.st232,.st233{clip-path:url(#SVGID_22_);fill:none}.st231,.st232,.st233{fill:#937a47}.st232,.st233{fill:#e4d2a9}.st233{fill:#303333}.st234,.st235,.st236{fill-rule:evenodd;clip-rule:evenodd;fill:#8e543a}.st235,.st236{fill:#724aad}.st236{fill:#8867c8}.st237{fill:#40c5af}.st238,.st239,.st240{fill-rule:evenodd;clip-rule:evenodd;fill:#744530}.st239,.st240{fill:#3c3c3c}.st240{fill:#8a0000}.st241{fill:#573894}.st242{fill-rule:evenodd;clip-rule:evenodd;fill:#9e83e3}.st243{clip-path:url(#SVGID_24_);fill:#bea15f}.st244,.st245,.st246,.st247{clip-path:url(#SVGID_24_);fill:none}.st245,.st246,.st247{fill:#937a47}.st246,.st247{fill:#e4d2a9}.st247{fill:#303333}.st248{clip-path:url(#SVGID_26_)}.st249{stroke:#fff;stroke-width:2}.st249,.st250,.st251{fill:none;stroke-miterlimit:10}.st250{stroke-width:2;stroke-linejoin:bevel;stroke:#fff}.st251{stroke:#69afe5}.st252{fill:#303333}.st253{clip-path:url(#SVGID_28_)}.st254{clip-path:url(#SVGID_30_)}</style><switch><g><path class="st234" d="M95.902 88.607c.184-.53 0-1.06-.368-1.413.184-.353.368-.53.552-.883.184-.707-.368-1.413-1.104-1.766l-2.209-.53-3.313-1.236 3.681-1.06s2.025-1.59.552-3.003c-6.258 1.943-6.258.883-8.283 1.943-1.289.53-2.209 1.413-2.761 2.473-.368.53-9.019 4.239-9.019 4.239l1.841 7.948 10.308-2.473 4.97.353c.736.177 1.473-.177 1.841-1.06v-.707c.736.177 1.288-.353 1.657-1.06 0-.177 0-.53-.184-.883.919.354 1.655-.176 1.839-.882z"/><path class="st115" d="M77.779 85.462l3.388 8.955-3.084.958-2.923-8.464-.145-.508z"/><path class="st235" d="M74.954 86.429l3.246 9.16c-7.7 3.578-29.7 13.744-29.7 13.744-3.076 1.383-3.961-1.819-5.328-5.103-1.196-3.111.171-6.913 3.417-8.123l.171-.173.683-.173 27.511-9.332z"/><path class="st236" d="M75.644 88.378l-.691-1.948-27.51 9.333-.683.173-.171.173c-2.593.966-3.982 3.587-3.829 6.188 9.962-4.223 27.845-11.8 32.884-13.919z"/><path class="st50" d="M121 49h48v67h-48z"/><path class="st0" d="M120.597 48.741h48.058v67.026h-48.058z"/><path class="st51" d="M88 49h33v67H88z"/><path class="st0" d="M88.135 48.741h32.462v67.026H88.135z"/><path class="st50" d="M100.944 66H68.016l19.972-17h33.196z"/><path class="st0" d="M100.803 66H68.604l19.531-17h32.462z"/><path class="st53" d="M192.952 66h-49.143l-24.02-17h49.143z"/><path class="st0" d="M192.144 65.366h-48.057l-23.49-16.625h48.057zM103.178 83.046h7.39v8.181h-7.39z"/><path transform="rotate(-12.41 104.385 86.895)" class="st1" d="M92.264 78.184h24.205v17.397H92.264z"/><path class="st183" d="M60.423 116H199v13H60.282c-3.944 0-7.086-3.345-6.611-7.288.399-3.319 3.408-5.712 6.752-5.712z"/><path class="st237" d="M248.722 116H85c-3.678 0-6.562 2.61-6.562 6.288a6.659 6.659 0 0 0 6.659 6.659l163.324.053c3.576 0 6.707-2.755 6.799-6.329a6.5 6.5 0 0 0-6.498-6.671z"/><circle class="st218" cx="85.601" cy="122.468" r="4.695"/><circle class="st218" cx="126.385" cy="122.468" r="4.695"/><circle class="st218" cx="167.17" cy="122.468" r="4.695"/><circle class="st218" cx="207.789" cy="122.468" r="4.695"/><circle class="st218" cx="248.789" cy="122.468" r="4.695"/><path class="st234" d="M37.226 47.123c-3.351-.123-12.893.044-12.893.044-.417 5.667-1.958 13.375-1.958 13.375s-2.884 19.646 3.258 20.282c6.142.636 8.74-17.805 8.74-17.805l2.853-15.896z"/><path class="st238" d="M23.792 44.458c-2.746 6.51 2.417 12.083 11.5 13.375.667-3.75 1.417-7.5 1.417-7.5l-12.917-5.875z"/><path class="st234" d="M46.268 44.667c4.158-.173 2.997-1.726 2.837-2.363-.219-.462-3.016-6.062-2.944-7.399.117-.35.065-.756.014-1.163l.058-.175c-2.984.564-7.791-3.328-9.463-4.468-1.59 1.417-.686 5.796-.793 7.281-.083 1.16-.196 2.269-.144 2.675-.298 1.457-1.795-.208-1.795-.208s-1.212-3.012-3-2.749c-1.665.245-3.304 3.023-3.266 4.592.161.637 1.315 3.514 1.315 3.514s-.69 5.996-4.513 6.28c4.664 4.47 11.96 4.952 15.098 5.606 3.531.591 3.888-1.041 3.888-1.041.363-2.214 1.519-9.611 2.708-10.382z"/><path class="st238" d="M36.801 29.295l-.48 3.72-.116.349c-.096.744-.288 2.232-.422 3.545.68-1.132 1.728-2.917 3.127-4.391-1.405-1.242-2.031-3.003-2.109-3.223z"/><path class="st239" d="M29.649 46.014s-.741 5.555-4.402 6.021l-.166-.055c-4.319-1.437-7.966-4.896-9.892-9.092-.554.003-1.109.005-1.829-.047-5.596-.926-9.403-6.122-8.44-11.79s6.133-9.562 11.73-8.636c.721.053 1.219.218 1.884.439 1.391-1.408 3.115-2.707 5.503-3.784 2.222-1.132 4.774-1.593 7.546-1.607 4.602.034 8.587 1.921 11.681 4.822 3.713.487 6.529 3.669 6.515 7.594-.12 2.58-1.403 4.773-3.349 6.184l.056-.168c-2.94.519-5.044-.368-6.703-1.481-1.769-1.337-2.65-3.127-2.76-3.351l-.757 10.041c-.282 1.403-1.773-.216-1.773-.216s-1.435-1.787-2.984-2.677c-.775-.445-1.495-.497-2.052.066-.669.9-.619 2.414-.402 3.983.108.785.382 1.624.49 2.409.162.616.104 1.345.104 1.345z"/><path class="st171" d="M41.591 37.951c.441.147.838.423 1.015.627.264-.057.307-.187.393-.447.13-.391-.401-1.001-1.282-1.294-.704-.09-1.495.081-1.625.472-.087.26.09.464.267.667.264-.058.791-.172 1.232-.025z"/><path class="st234" d="M108.473 97.782c.56-.175.933-.7.933-1.4s-.56-1.4-1.306-1.4c.187-.35.187-.525.187-.875 0-.875-1.04-1.241-1.786-1.066 0 0-3.745.643-6.5.708 0 0 2.69-.343 3.249-.868.56-.35.933-1.4.187-1.925-3.918.35-6.343.875-7.462 1.225-.373.175-.56.35-.933.7-.373.525-1.119 1.4-1.679 2.1-.135.253-.336.453-.969.593l-6.596.529.463 6.854 8.1-.556c1.02.182 7.543 1.276 12.62.455 1.061-.274 1.679-.7 1.492-1.575 0-.35-.187-.525-.373-.875.746-.175 1.119-.7 1.119-1.4 0-.524-.373-.874-.746-1.224z"/><path class="st240" d="M44.591 49.654s-2.466-.737-5.966-2.779c2.083 3 5.208 4.292 5.625 4.167.75-.459.341-1.388.341-1.388z"/><path class="st115" d="M91.936 95.485l.867 8.824-3.661.232h-.193l-.674-8.359v-.464z"/><path class="st235" d="M49.412 129c-1.731-18.179 1.894-41.224-.245-50.5-1.971-8.503-7.231-19.062-13.86-19.062-1.792 0-9.675-.177-11.467-.177-7.346 0-8.421 4.252-9.138 6.023-2.329 6.023-3.404 40.213-3.404 50.843 0 5.436.002 9.837.777 12.873h37.337z"/><path class="st236" d="M24.125 61.688h16.434c-1.612-1.404-3.377-2.249-5.252-2.249-1.792 0-9.675-.177-11.467-.177-7.346 0-8.421 4.252-9.138 6.023-.046.12-.091.269-.136.41 3.841-3.465 5.735-4.007 9.559-4.007zM49.856 88.703l-3.266 7.405c-1.614 16.601-1.743 24.701-.2 32.893h3.023c-1.263-13.256.321-29.093.443-40.298z"/><path class="st235" d="M89.075 96.379v-.536-.179l-27.006-.161c-1.975-3.242-6.865-11.412-18.986-32.003-2.913-3.934-8.637-5.748-12.407-2.53-3.77 3.04-4.284 8.583-1.371 12.516 0 0 17.794 24.392 23.93 31.874 1.276 2.195 3.804 3.57 6.433 3.172l30.116-2.681-.709-9.472z"/><g><path class="st241" d="M59.668 108.533l30.116-2.681-.232-3.107c-4.997.559-25.946 2.895-27.927 3.005-2.25.125-3.25.625-6.875-2.75-2.819-2.625-17.417-18.875-24.792-28.583.358.586.819 1.483 1.208 2.125 3.697 6.908 12.764 19.889 21.75 29 2.14 2.389 4.124 3.389 6.752 2.991z"/></g><path class="st242" d="M60.937 97.438s17.675-.181 28.184-.446l-.046-.612v-.536-.179l-27.006-.161c-1.975-3.242-6.865-11.412-18.986-32.003 1.073 2 2.198 4.281 3.698 7.281 4.25 7.333 14.156 26.656 14.156 26.656z"/></g></switch></svg>