<svg xmlns="http://www.w3.org/2000/svg" viewBox="0 0 244.384 150"><title>zerodata-no-assessments</title><path d="M241.083 150H3.488a3.427 3.427 0 0 1-3.434-2.708A3.3 3.3 0 0 1 3.3 143.4h237.6a3.427 3.427 0 0 1 3.434 2.708 3.3 3.3 0 0 1-3.251 3.892z" fill="#b2b2b2"/><path d="M224.309 140.1V31.332a4.329 4.329 0 0 0-4.157-4.482H71.23a4.329 4.329 0 0 0-4.157 4.482V140.1h157.236z" fill="#231f20"/><path d="M72.57 34.547h144.042v96.761H72.57z" fill="#99bcd7"/><path d="M234.118 145.6H56.078c-5.935 0-6.9-8.8-6.9-8.8h191.844s-2.302 8.8-6.904 8.8z" fill="#3c3c3c"/><path d="M144.041 31.248h2.2v2.2h-2.2z" fill="#395b71"/><path d="M216.612 34.547h-64.621l64.621 65.058z" fill="#e3e3e3"/><path d="M139.091 145.6l-94.556-.047a3.851 3.851 0 0 1-3.851-3.851l.063-123.1a3.852 3.852 0 0 1 3.853-3.847l93.771.047a4.435 4.435 0 0 1 4.571 4.351V141.77a3.841 3.841 0 0 1-3.85 3.832z" fill="#613d30"/><path d="M136.345 139l-89.064-.068.068-118.683h89z" fill="#ffd940"/><path d="M136.345 78.068V20.253l-48.862.068C100.085 35.5 119.6 57.923 136.345 78.068z" fill="#fff880"/><path d="M116.626 9.257h-15.242S100.129.049 92.2 0c-5.073-.031-9.188 4.233-9.191 10.357H67.97a3.48 3.48 0 0 0-3.1 2.439l.068 7.457 54.909-.067.008-7.609a3.332 3.332 0 0 0-3.229-3.32zm-24.607 4.748a4.022 4.022 0 0 1-3.958-4.083 3.962 3.962 0 1 1 7.921 0 4.022 4.022 0 0 1-3.963 4.083z" fill="#ff8c00"/><path d="M64.874 19.292L64.8 26.85l55.05-.069v-7.628z" fill="#ec6401"/><path d="M128.629 73.031l-73.651-.037L55 36.746l73.651.037zm-71.469-2.2l69.288.035.016-31.922-69.287-.034zm71.469 45.082l-73.651-.037L55 79.629l73.651.037zm-71.469-2.2l69.288.035.016-31.922-69.288-.035z" fill="#f57800"/><path d="M87.122 19.153l-22.249.071-.073 7.626 28.41.14z" fill="#e24f01"/><path d="M170.431 60.936H244.1v46.181h-73.67z" fill="#0078d7"/><path d="M177.028 95.022H237.5v5.5h-60.472z" fill="#004578"/><path d="M177.028 82.927h6.6v9.9h-6.6zm8.8-9.9h6.6v19.796h-6.6zm8.8 4.4h6.6v15.396h-6.6zm8.8-9.9h6.6v25.29h-6.6zm8.8 3.3h6.6v21.996h-6.6zm8.8 13.195h6.6v8.8h-6.6zm8.8-15.394h6.6v24.19h-6.6z" fill="#69afe5"/><path d="M6.133 141.855l.844 2.721a3.409 3.409 0 0 0 4.265 2.246l45.322-13.607a3.409 3.409 0 0 0 2.246-4.265l-.844-2.721a3.409 3.409 0 0 0-4.266-2.249L8.378 137.587a3.411 3.411 0 0 0-2.245 4.268z" fill="#106ebe"/><path d="M58.912 129.373a3.409 3.409 0 0 1-2.345 3.842l-45.323 13.606a3.409 3.409 0 0 1-4.108-1.838" fill="#1c4768"/><path d="M43.35 127.194l10.35-3.213h.016l2.865 9.232-.016.005-10.365 3.14z" fill="#939393"/><path d="M53.717 123.977l1.98 6.387-10.416 3.183-2.015-6.433 10.434-3.133z" fill="#fff"/><path d="M60.147 107.161a26.747 26.747 0 1 0 36.126-11.214 26.664 26.664 0 0 0-36.126 11.214zm2.909 1.529a23.46 23.46 0 1 1 9.834 31.687 23.486 23.486 0 0 1-9.833-31.687z" fill="#231f20"/><path d="M88.2 104.153a24.17 24.17 0 0 1 12.654 4.38 20.585 20.585 0 0 0-37.564 10.512 19.929 19.929 0 0 0 .089 3.061A24.368 24.368 0 0 1 88.2 104.153z" fill="#fff"/></svg>