<svg xmlns="http://www.w3.org/2000/svg" viewBox="0 0 148.988 150.028"><title>zerodata-no-plan</title><path d="M49.416 99.013a13.468 13.468 0 0 0 2.875 21.271l.8.4a11.285 11.285 0 0 1-14.042-16.091 11.456 11.456 0 0 1 10.364-5.584" fill="#007596"/><path d="M.068 35.009H120v87.951H6.842a6.762 6.762 0 0 1-6.774-6.7z" fill="#69afe5"/><path d="M116 38.007H22.056v1H115v78.956H.468a1.7 1.7 0 0 0 .535 1H116z" fill="#f3f3f3"/><path d="M22.056 35.009v79.955H10.519c-4.139 0-7.6 2.86-7.6 6.984a6.15 6.15 0 0 1-2.85-4.79c0-8.779-.068-82.15-.068-82.15z" fill="#2488d8"/><path d="M7.787 27.013a7.567 7.567 0 0 0-7.719 7.4V116.8a7.531 7.531 0 0 1 7.719-6.83h8.272V27.013z" fill="#69afe5"/><path d="M121.233 116.963c-2.006-1.8-5.149-3.922-6.687-8.109s-3.678-5.251 1.2-7.046a75.275 75.275 0 0 1 9.763 12.364 10.194 10.194 0 0 1-4.28 2.791zm-20.222-10.638a1.719 1.719 0 0 0 2.11 1.208l.086-.024a1.741 1.741 0 0 0 1.216-2.1v-.009a1.768 1.768 0 1 0-3.435.839q.011.046.025.091zm3.371 6.647a1.778 1.778 0 0 0 3.209-1.529 1.849 1.849 0 0 0-2.408-.865 1.823 1.823 0 0 0-.8 2.393zm2.34 3.19a1.793 1.793 0 0 0 2.341.865 1.851 1.851 0 0 0 .87-2.393 1.8 1.8 0 0 0-2.408-.8 1.691 1.691 0 0 0-.843 2.238q.02.045.043.089zm2.875 2.858a1.736 1.736 0 0 0 2.289.888l.052-.024a1.718 1.718 0 0 0 .9-2.256q-.015-.036-.032-.071a1.736 1.736 0 0 0-2.289-.888l-.052.024a1.718 1.718 0 0 0-.9 2.256q.016.037.035.072z" fill="#8e562e"/><path d="M92.212 71.96l35.306 53.31-8.425 5.451-35.239-53.245z" fill="#106ebe"/><path d="M106.589 97.974a41.087 41.087 0 0 0 9.161 1.326l14.577 4.586s2.14 12.493-3.076 11.965c-5.216-.6-11.435-11.167-11.435-11.167a11.86 11.86 0 0 0-3.745-.865c-4.613.532-7.021-3.856-5.483-5.85z" fill="#bb9167"/><path d="M146.443 108.718l-30.693-9.439 10.966 16.421 18.189 7.046z" fill="#bb9167"/><path d="M147.985 108.585l-11.769-3.922-1.872 15.09 13.641 5.717z" fill="#00b294"/><path d="M147.985 121.348l-13.173-5.448-.468 3.856 13.641 5.717z" fill="#008272"/><path d="M93.016 53.214s-3.745-6.714-.937-12.364c-6.82 4.454-7.088 5.384-7.088 5.384l1.136 8.907z" fill="#f8d5b9"/><path d="M93.016 53.214s-3.745-6.714-.937-12.364c-6.82 4.454-7.088 5.384-7.088 5.384l1.136 8.907z" fill="#613d30"/><path d="M82.022 43.065s.859 3.809 2.708 4.137c1.783.263 6.869-4.4 6.936-4.859C99.2 44.838 96.554 52 96.554 52s.395.592 5.219 3.218c9.248-2.824 8.392-9.521 8.392-9.521l2.84-.2-.132-11.1-10.3 1.838s-11.031-1.975-12.154-.657c-.79.854-8.392 7.486-8.392 7.486z" fill="#8e562e"/><path d="M111.337 32.874l.669 13.493 6.486-.266-.736-14.092z" fill="#e6e6e6"/><path d="M95.422 44.906l4.414-9.173a11 11 0 0 0-1.672-.266s-4.814 7.644-4.547 7.844a8.548 8.548 0 0 1 1.8 1.6z" fill="#613d30"/><path d="M97.9 28.288L81.647 58.466l1.069.6 16.25-30.178z" fill="#5c005c"/><path d="M97.9 28.288L81.647 58.466l1.069.6 16.25-30.178z" fill="none" stroke="#fff" stroke-linecap="round" stroke-linejoin="round" stroke-width=".057"/><path d="M101.105 30.016l-2.139-1.13-1.07-.6-16.249 30.18 1.069.6 2.14 1.13z" fill="#106ebe"/><path d="M81.647 58.466l-.134 4.121 3.343-2.393z" fill="#f3f3f3"/><path d="M83.185 61.39l-1.672 1.2.067-2.06z" fill="#106ebe"/><path d="M99.7 27.623l-.735 1.262 2.139 1.13.736-1.263z" fill="#f3f3f3"/><path d="M99.7 27.623l-.735 1.262 2.139 1.13.736-1.263z" fill="none" stroke="#fff" stroke-linecap="round" stroke-linejoin="round" stroke-width=".057"/><path d="M99.7 27.623l-.735 1.262-1.07-.6.736-1.263z" fill="#409ae1"/><path d="M99.7 27.623l-.735 1.262-1.07-.6.736-1.263z" fill="none" stroke="#fff" stroke-linecap="round" stroke-linejoin="round" stroke-width=".057"/><path d="M102.71 27.025a.46.46 0 0 0-.2-.665l-1.2-.665a3.861 3.861 0 0 1-.468-.266 1.678 1.678 0 0 1-.468-.266l-.134-.067a.564.564 0 0 0-.736.266l-1 1.8 1.069.6 2.14 1.13z" fill="#106ebe"/><path d="M99.568 27.756l1.27-2.327a1.678 1.678 0 0 1-.468-.266l-.134-.067a.564.564 0 0 0-.736.266l-1 1.8zm-1.672.532L81.647 58.466l1.069.6 16.25-30.178z" fill="#69afe5"/><path d="M84.721 55.679a2.067 2.067 0 0 1-2.33-1.765q-.007-.048-.011-.1l-1.267-9.174a2.144 2.144 0 0 1 1.872-2.327 2.112 2.112 0 0 1 2.336 1.861l1.27 9.173a2.1 2.1 0 0 1-1.853 2.33zM86.6 56.87a2.764 2.764 0 0 1 1.939-3.39l11.635-3.456a2.759 2.759 0 1 1 1.471 5.318L90.006 58.8a2.785 2.785 0 0 1-3.406-1.93z" fill="#8e562e"/><path d="M95.422 55.807L87.4 58.2a2.856 2.856 0 0 0 2.6.6l11.635-3.456c8.96-2.725 8.559-9.04 8.5-9.572 0 0-1.27 6.447-14.711 10.037z" fill="#613d30"/><path d="M148.988 25.563c-9.161 1.462-34.7 5.517-34.7 5.517l.8 16.286s25.41-.133 33.9-.333z" fill="#00b294"/><path d="M148.985 44.011l-33.969.93.067 2.059 33.9-.133z" fill="#008272"/><path d="M78.036 30.947L39.52 17.654 26.079 56.007zM43.533 25.7l18.121 6.249-24.407 11.76z" fill="#106ebe"/><path d="M29.223 54.477l-1.136.532-.8-1.661 1.136-.532zm2.207-1.063l-1.07.532-.8-1.662 1.07-.532zm2.207-1.063l-1.07.532-.8-1.662 1.07-.532zm2.273-1.063l-1.136.532-.8-1.662 1.137-.532zm2.207-1.063l-1.069.532-.87-1.729 1.136-.532zm2.207-1.13l-1.069.532-.8-1.662 1.069-.532zM42.6 48.03l-1.136.532-.8-1.662 1.136-.532zm2.2-1.063l-1.07.532-.869-1.662L44 45.3zm2.21-1.067l-1.07.532-.8-1.662 1.07-.532zm2.274-1.064l-1.137.533-.8-1.662 1.07-.532zm2.206-1.063l-1.069.532-.87-1.661 1.137-.532zm2.21-1.061l-1.069.532-.8-1.728 1.069-.532zm2.274-1.13l-1.136.533-.8-1.662 1.069-.532zm2.207-1.063l-1.069.532-.87-1.661 1.136-.532zm2.207-1.063l-1.07.532-.8-1.661 1.069-.533zm2.274-1.063l-1.137.532-.8-1.662 1.07-.532zm2.207-1.063l-1.137.532-.8-1.662 1.137-.532zm2.207-1.063L66 36.8l-.8-1.662 1.07-.532zm2.267-1.067l-1.136.532L67.4 34l1.07-.465zm2.207-1.064l-1.136.466-.8-1.662 1.136-.532zm2.207-1.129l-1.069.532-.8-1.662 1.069-.532zm2.207-1.063l-1.07.532-.8-1.662 1.069-.532zM39.52 17.652l4.547 8.309 2.274-3.922-.669-2.261z" fill="#004578"/><path d="M59.137 24.854l5.082 1.73c-1.672-5.184-.936-5.584-2.207-7.977a9.3 9.3 0 0 0-6.753-4.586h-.065L52.051 1.927 39.879 8.635l4.414 13.759-1.069 4.852a2.2 2.2 0 0 0 1.672 2.593 2.164 2.164 0 0 0 1.136-.067A2.237 2.237 0 0 0 47.77 32.1a1.639 1.639 0 0 0 1.27-.133v.067a2.244 2.244 0 0 0 1.739 2.593 2.379 2.379 0 0 0 2.14-.8 1.809 1.809 0 0 0 1.136.665 2.162 2.162 0 0 0 2.6-1.613l.01-.047.669-3.257 1.739-4.985z" fill="#bb9167"/><path d="M50.821 1.028L37.849 6.745l1.337 2.991L53.7 3.819l-.74-2.791z" fill="#e6e6e6"/><path d="M33.9.029l3.678 7.977 15.784-6.315-.535-1.662z" fill="#00b294"/><path d="M33.9.029l3.678 7.977 15.784-6.315-.535-1.662z" fill="none" stroke="#fff" stroke-linecap="round" stroke-linejoin="round" stroke-width=".057"/><path d="M47.812.028l2.273 2.992 3.277-1.329-.535-1.662z" fill="#008272"/><path d="M59.38 24.565l5.082 1.73c-.134-.4-.335-1.063-.335-1.063zM40.456 9.211l12.5-5.052.6 2.194z" fill="#8e562e"/><path d="M132.133 103.97a1.28 1.28 0 0 1-1.4 1.13 1.293 1.293 0 0 1-1.14-1.43v-.032a1.28 1.28 0 0 1 1.4-1.13 1.293 1.293 0 0 1 1.14 1.43v.032zM131.994 106.724a1.271 1.271 0 0 1-1.4 1.131h-.007a1.192 1.192 0 0 1-1.136-1.4 1.277 1.277 0 0 1 2.541.266z" fill="#e6e6e6"/><path d="M131.594 109.317a1.321 1.321 0 0 1-1.4 1.131 1.343 1.343 0 0 1-1.2-1.462 1.389 1.389 0 0 1 1.471-1.13 1.341 1.341 0 0 1 1.136 1.462zM131.33 111.966a1.3 1.3 0 0 1-1.446 1.134h-.025a1.276 1.276 0 0 1-1.136-1.4 1.3 1.3 0 0 1 1.446-1.134h.026a1.276 1.276 0 0 1 1.136 1.4z" fill="#e6e6e6"/><path d="M131.063 113.965a1.389 1.389 0 0 1-1.471 1.13 1.341 1.341 0 0 1-1.136-1.462 1.321 1.321 0 0 1 1.4-1.13 1.343 1.343 0 0 1 1.2 1.462zM130.995 116.961a1.277 1.277 0 1 1-1.143-1.4h.007a1.192 1.192 0 0 1 1.136 1.4z" fill="#e6e6e6"/><path d="M16.059 39.007h6v-1h-6zM3.813 117.962c-.218.664-.4 1.087-.535 1H1c-.219.122-.4-.3-.537-1z" fill="#69afe5"/><path d="M85.392 76.413l-1.538 1.063 14.577 22.069 20.662 31.176 1.605-1z" fill="#0078d7"/><path d="M117.488 124.871l-1.6 1.063-.469-.8 1.538-1.063zm-1.069-1.662l-1.605 1.064-.535-.8 1.605-1.063zm-1.07-1.661l-1.6 1.063-.536-.8 1.605-1.063zm-1.136-1.662l-1.605 1.063-.468-.8 1.605-1zm-1.07-1.6l-1.6 1-.535-.731 1.6-1.063zm-1.069-1.662l-1.605 1.063-.535-.8 1.605-1.063zm-1.136-1.662l-1.538 1.068-.535-.8 1.6-1.063zm-1.07-1.661l-1.605 1.063-.535-.8 1.605-1.064zm-1.069-1.6l-1.605 1-.535-.8 1.6-1zm-1.07-1.661l-1.605 1.063-.535-.8 1.605-1.063zm-1.136-1.347l-1.605 1.063-.535-.8h.067l1.538-1.063zm-1.07-1.978l-1.6 1.063-.536-.8 1.605-1.063zm-1.069-1.662l-1.605 1.064-.535-.8 1.605-1zm-1.137-1.6l-1.6 1-.469-.732 1.605-1.063zm-1.069-1.661l-1.605 1.063-.535-.8 1.605-1.064zm-1.07-1.662l-1.6 1.063-.536-.8 1.605-1.063zm-1.136-1.662l-1.605 1.063-.468-.8 1.605-1.063zm-1.075-1.648l-1.605 1.064-.535-.8 1.6-1zm-1.07-1.6l-1.605 1-.535-.732 1.605-1.063zm-1.137-1.658l-1.538 1.064-.535-.8 1.6-1.063zM95.689 91.9l-1.605 1.063-.535-.8 1.606-1.063zm-1.069-1.661L93.015 91.3l-.535-.8 1.6-1.063zm-1.137-1.6l-1.538 1-.535-.8 1.605-1zm-1.069-1.662l-1.605 1-.535-.732 1.6-1.063zm-1.07-1.662l-1.6 1.063-.536-.8 1.605-1.063zm-1.069-1.661l-1.605 1.063-.535-.8 1.605-1.063zM89.136 82l-1.6 1.063-.469-.8 1.538-1zm-1.069-1.6l-1.605 1-.535-.731 1.605-1.069z" fill="#005a93"/><path d="M120.03 125.6l-1.4.93-.535-.8 1.4-.93zm-1.137-1.662l-1.4.93-.535-.8 1.4-.93zm-1.069-1.662l-1.4.93-.535-.8 1.4-.93zm-1.07-1.6l-1.4.865-.535-.8 1.4-.865zm.067-2.46l-2.608 1.662-.468-.732 2.608-1.728zm-2.273-.864l-1.405.93-.535-.8 1.4-.931zm-1.07-1.662l-1.4.93-.535-.8 1.4-.93zm-1.136-1.662l-1.4.93-.469-.8 1.4-.864zm-1.07-1.6l-1.4.865-.535-.8 1.4-.864zm.134-2.46l-2.608 1.728-.536-.8 2.609-1.728zm-2.274-.865l-1.4.931-.535-.8 1.4-.931zm-1.136-1.661l-1.4.93-.535-.8 1.4-.93zm-1.07-1.662l-1.4.93-.535-.8 1.4-.865zm-1.069-1.6l-1.4.864-.535-.731 1.4-.93zm.067-2.46l-2.609 1.728-.468-.8 2.541-1.728zm-2.274-.865l-1.4.931-.535-.8 1.4-.93zm-1.07-1.661l-1.4.93-.535-.8 1.4-.93zm-1.136-1.662l-1.4.93-.468-.8 1.4-.865zm-1.069-1.6l-1.4.93-.536-.8 1.4-.93zm.133-2.46L97.9 95.225l-.535-.8 2.604-1.725zm-2.34-.865l-1.4.93-.469-.8 1.4-.93zm-1.07-1.661l-1.4.93-.535-.8 1.4-.865zm-1.069-1.6l-1.4.865-.536-.732 1.4-.93zm-1.137-1.661l-1.4.93-.468-.8 1.4-.93zm.134-2.46l-2.608 1.728-.536-.8 2.609-1.728zm-2.274-.865l-1.4.93-.535-.8 1.4-.93zm-1.069-1.662l-1.4.931-.535-.8 1.4-.865zm-1.137-1.6l-1.4.865-.535-.732 1.4-.93zm-1.069-1.661l-1.4.93-.535-.8 1.4-.931z" fill="#69afe5"/><path d="M118.587 126.56l-1.605 1.064-.468-.8 1.538-1.063.535.8z" fill="#005a93"/><path d="M51.572 88.2a13.468 13.468 0 0 0 8.862 19.55l.884.152a11.285 11.285 0 0 1-18.072-11.374 11.456 11.456 0 0 1 8.323-8.328" fill="#007596"/><path d="M41.3 105.851a1.852 1.852 0 1 1-1.288-2.28l.05.015a1.852 1.852 0 0 1 1.238 2.265z" fill="#bb9167"/><path d="M40.837 95.93a13.667 13.667 0 0 0 10.015 16.532l.194.046A13.781 13.781 0 1 0 40.844 95.9l-.007.029" fill="#005a93"/><path d="M43.249 96.525a11.309 11.309 0 1 0 13.692-8.34 11.309 11.309 0 0 0-13.692 8.34" fill="#409ae1"/><path d="M51.463 88.3a13.418 13.418 0 0 0 8.846 19.489 5 5 0 0 0 .9.215 11.27 11.27 0 1 1-9.742-19.7" fill="#0078d7"/><path d="M26.113 118.528l18.829-11.686L43 103.609l-18.9 11.705a1.843 1.843 0 0 0-.646 2.525l.014.024a1.885 1.885 0 0 0 2.57.708l.073-.043" fill="#005a93"/><path d="M25.679 114.287l-1.579 1.028-.192.058c-.045.083-.109.1-.154.185l1.653 3.182a.607.607 0 0 0 .34-.032.065.065 0 0 1 .042-.082l.128-.038.192-.058 1.705-1.066z" fill="#004578"/><path d="M42.588 120.387l.774-6.963a4.537 4.537 0 0 0-.77-3.031l-4.89-7.7a2.286 2.286 0 0 0-2.892-.8 2.167 2.167 0 0 0-1.116 2.854q.023.052.049.1l.038.127a2.209 2.209 0 0 0-2.687-.582 2.171 2.171 0 0 0-1.176 2.836l.006.014a2.284 2.284 0 0 0-3.7 2.567 1.742 1.742 0 0 0 .735.821 2.292 2.292 0 0 0-1.633.143 2.17 2.17 0 0 0-1.2 2.824q.031.077.068.152l.019.064 7.237 14.14c.269.2 6.339 9.965 6.339 9.965l13.511-4.53z" fill="#d8b094"/><path d="M42.412 137.026l-16.4-24.434-.019-.064a2.071 2.071 0 0 1 .042-1.956 1.382 1.382 0 0 0-.7.211 2.17 2.17 0 0 0-1.2 2.824q.031.077.068.152l.019.064 7.228 14.137c.269.2 6.844 10.716 6.844 10.716" fill="#bb9167"/><path d="M48.041 125.068a.613.613 0 0 1-.236.834l-14.23 7.252a.616.616 0 0 1-.839-.234l-1.536-3.01a.611.611 0 0 1 .245-.828q.027-.015.055-.026l14.166-7.233a.616.616 0 0 1 .839.234z" fill="#737373"/><path d="M48.041 125.068a.613.613 0 0 1-.236.834l-14.23 7.252a.616.616 0 0 1-.839-.234l-1.536-3.01a.611.611 0 0 1 .245-.828q.027-.015.055-.026l14.166-7.233a.616.616 0 0 1 .839.234z" fill="#004880"/><path d="M45.5 127.078l-9.567 4.882-2.131-4.08 9.569-4.88z"/><path d="M43.985 126.909l-2.364 1.191-1.333-2.584 2.364-1.2z" fill="#409ae1"/><path d="M42.039 125.7l-.6.109.134.446.128-.039-.057-.191.192-.058.07.466-.033.357-.327.306.1.108.391-.325-.006-.485.314.114-.014.421.129-.038.058-.5-.378-.095-.031-.338.249.134.219-.2-.1-.109-.173.122z" fill="#f3f3f3"/><path d="M42.039 125.7l-.6.109.134.446.128-.039-.057-.191.192-.058.07.466-.033.357-.327.306.1.108.391-.325-.006-.485.314.114-.014.421.129-.038.058-.5-.378-.095-.031-.338.249.134.219-.2-.1-.109-.173.122z" fill="none" stroke="#fff" stroke-linecap="round" stroke-linejoin="round" stroke-width=".057"/><path d="M42.278 125.408a.213.213 0 0 1-.135.249q-.221-.038-.25-.133a.2.2 0 1 1 .385-.115z" fill="#f3f3f3"/><path d="M41.493 128.142l-2.345 1.258-1.334-2.585 2.346-1.258z" fill="#409ae1"/><path d="M38.786 127.5l.395.853 1.4-.7-.4-.853-.43.893z" fill="#f3f3f3"/><path d="M38.786 127.5l.395.853 1.4-.7-.4-.853-.43.893z" fill="none" stroke="#fff" stroke-linecap="round" stroke-linejoin="round" stroke-width=".057"/><path d="M38.664 127.325l.019.064.966.2.431-.892-.019-.064z" fill="#f3f3f3"/><path d="M38.664 127.325l.019.064.966.2.431-.892-.019-.064z" fill="none" stroke="#fff" stroke-linecap="round" stroke-linejoin="round" stroke-width=".057"/><path d="M39.019 129.438l-2.364 1.2-1.333-2.584 2.364-1.2z" fill="#409ae1"/><path d="M37.729 128.16a.423.423 0 0 0-.589-.1c-.128.038-.237.141-.2.268a.513.513 0 0 0-.359-.031.487.487 0 0 0-.251.561c.179.363.832.445 1.125.5.116-.313.45-.829.271-1.191" fill="#f3f3f3"/><path d="M49.715 130.66l-13.14 6.232 6.308 13.053 20.863.084z" fill="#00b294"/><path d="M50.908 149.945h-8.362l-5.971-13.137 4.1-1.924z" fill="#008272"/></svg>