<svg xmlns="http://www.w3.org/2000/svg" viewBox="0 0 158.074 150.307"><title>zerodata-choose-a-template</title><path d="M146.973 4.307H7.053A7.074 7.074 0 0 0 0 11.36v131.894a7.074 7.074 0 0 0 7.053 7.053H146.96a6.04 6.04 0 0 0 6.04-6.04V10.364a6.043 6.043 0 0 0-6.027-6.057zm-126.848 33h8.253a4.91 4.91 0 0 0 4.67-3.394l2.6-8.01a4.917 4.917 0 0 1 6.977-2.822 5.908 5.908 0 0 1 2.421 2.988l2.545 7.842a4.913 4.913 0 0 0 4.673 3.4h8.243a5.042 5.042 0 0 1 4.774 3.162 4.924 4.924 0 0 1-1.708 5.724l-6.814 4.951a4.913 4.913 0 0 0-1.785 5.492l2.546 7.842a5.042 5.042 0 0 1-1.533 5.516 4.924 4.924 0 0 1-5.972.144L43.2 65.188a4.913 4.913 0 0 0-5.775 0l-6.67 4.845a5.042 5.042 0 0 1-5.72.248 4.924 4.924 0 0 1-1.983-5.635l2.6-8.01a4.912 4.912 0 0 0-1.784-5.492l-6.8-4.951a4.916 4.916 0 0 1-.53-7.506 5.907 5.907 0 0 1 3.587-1.38zm51.087 75.7L45.819 134.5a3.65 3.65 0 0 1-4.717 0l-25.393-21.493a3.65 3.65 0 0 1 0-5.573L41.1 85.945a3.651 3.651 0 0 1 4.717 0l25.4 21.492a3.65 3.65 0 0 1 0 5.57zM85 55.863v-20.11a2.63 2.63 0 0 1 2.785-2.446h12.449s2.647-1.163 2.766-2.582V18.962c-.018 0 1.75-3.234 3.382-1.811l29.658 25.911a2.386 2.386 0 0 1 .005 3.618l-29.512 25.927c-1.617 1.421-4.533-1.78-4.533-1.78V60.485a2.264 2.264 0 0 0-2.08-2.178H87.784A2.63 2.63 0 0 1 85 55.865zm54.2 55.956l-10.663 18.469a4.04 4.04 0 0 1-3.5 2.02h-21.32a4.042 4.042 0 0 1-3.5-2.021l-10.66-18.459a4.04 4.04 0 0 1 0-4.04l10.658-18.46a4.042 4.042 0 0 1 3.5-2.021h21.319a4.039 4.039 0 0 1 3.5 2.02l10.661 18.47a4.024 4.024 0 0 1 0 4.024z" fill="#e6e6e6"/><path d="M149.705 2.307L11.369 0C8.024 0 3 5.024 3 8.369v132.9a6.04 6.04 0 0 0 6.04 6.04h140.665c3.346 0 8.369-5.024 8.369-8.369L155.763 8.369a6.058 6.058 0 0 0-6.054-6.062zm-127.63 33H30.5a4.913 4.913 0 0 0 4.673-3.4l2.6-8.008a4.917 4.917 0 0 1 6.977-2.822 5.908 5.908 0 0 1 2.421 2.988l2.545 7.842a4.913 4.913 0 0 0 4.673 3.4h8.421a4.916 4.916 0 0 1 4.846 5.759 5.906 5.906 0 0 1-2.093 3.228l-6.679 4.853a4.911 4.911 0 0 0-1.784 5.488l2.6 8.01a4.912 4.912 0 0 1-7.555 5.49l-6.814-4.95a4.913 4.913 0 0 0-5.775 0l-6.67 4.845a5.042 5.042 0 0 1-5.72.248 4.924 4.924 0 0 1-1.983-5.635l2.6-8.01A4.911 4.911 0 0 0 26 49.144L19.329 44.3a5.042 5.042 0 0 1-2-5.365 4.924 4.924 0 0 1 4.746-3.628zm51.258 75.581L47.94 132.379a3.65 3.65 0 0 1-4.717 0L17.83 110.888a3.65 3.65 0 0 1 0-5.573l25.393-21.491a3.651 3.651 0 0 1 4.717 0l25.393 21.491a3.65 3.65 0 0 1 0 5.573zM87 52.864v-20.11a2.63 2.63 0 0 1 2.784-2.447h12.571s2.647-.281 2.645-1.7V16.84c.1 0 1.871-3.234 3.5-1.811l29.661 25.911a2.386 2.386 0 0 1 .005 3.618l-29.511 25.931c-1.617 1.421-4.655-1.78-4.655-1.78V57.485a2.264 2.264 0 0 0-2.08-2.178H89.783A2.63 2.63 0 0 1 87 52.864zm54.562 56.443L130.6 128.286a4.042 4.042 0 0 1-3.5 2.021h-21.333a4.042 4.042 0 0 1-3.5-2.021l-10.656-18.459a4.04 4.04 0 0 1 0-4.04l10.657-18.459a4.042 4.042 0 0 1 3.5-2.021h21.559a4.042 4.042 0 0 1 3.5 2.021l10.414 18.038a3.939 3.939 0 0 1 0 3.941z" fill="#737373"/><path d="M158 6.347a6.04 6.04 0 0 0-6.04-6.04H12.027A6.043 6.043 0 0 0 6 6.365v132.9a6.04 6.04 0 0 0 6.04 6.04h139.92a6.04 6.04 0 0 0 6.04-6.04zM24.379 32.307H32.8a4.913 4.913 0 0 0 4.673-3.4l2.6-8.008a4.917 4.917 0 0 1 6.977-2.822 5.908 5.908 0 0 1 2.421 2.988l2.545 7.842a4.913 4.913 0 0 0 4.673 3.4h8.421a4.916 4.916 0 0 1 4.844 5.76 5.907 5.907 0 0 1-2.093 3.227l-6.67 4.845a4.912 4.912 0 0 0-1.785 5.5l2.6 8.01a4.916 4.916 0 0 1-3.987 6.38 5.908 5.908 0 0 1-3.712-.993l-6.673-4.847a4.912 4.912 0 0 0-5.775 0l-6.669 4.845a5.042 5.042 0 0 1-5.72.248 4.924 4.924 0 0 1-1.983-5.635l2.6-8.01a4.912 4.912 0 0 0-1.782-5.5l-6.814-4.951a4.912 4.912 0 0 1 2.887-8.881zm51.258 76.277l-25.392 21.491a3.65 3.65 0 0 1-4.717 0l-25.393-21.492a3.65 3.65 0 0 1 0-5.573l25.393-21.49a3.651 3.651 0 0 1 4.717 0l25.393 21.487a3.65 3.65 0 0 1 0 5.576zM89 50.866V30.753a2.63 2.63 0 0 1 2.784-2.446h12.875s2.647-.589 2.341-2.008V14.536c.407 0 2.175-3.234 3.807-1.811l29.653 25.91a2.386 2.386 0 0 1 .005 3.618l-29.506 25.932C109.342 69.606 106 66.4 106 66.4V55.485a2.264 2.264 0 0 0-2.08-2.178H91.783A2.63 2.63 0 0 1 89 50.865zm54.619 56.954l-10.661 18.466a4.042 4.042 0 0 1-3.5 2.021h-21.316a4.042 4.042 0 0 1-3.5-2.021l-10.657-18.46a4.04 4.04 0 0 1 0-4.04l10.657-18.458a4.042 4.042 0 0 1 3.5-2.021h21.316a4.042 4.042 0 0 1 3.5 2.021l10.661 18.466a4.023 4.023 0 0 1 0 4.024z" fill="#99bcd7"/></svg>