<svg xmlns="http://www.w3.org/2000/svg" viewBox="0 0 150 166.179"><defs><clipPath id="a"><circle cx="75" cy="75" r="75" fill="none"/></clipPath></defs><title>zerodata-your-work-in-one-place</title><g clip-path="url(#a)"><circle cx="75" cy="75" r="75" fill="#40cdf5"/></g><g clip-path="url(#a)"><circle cx="75" cy="75" r="75" fill="none"/></g><g clip-path="url(#a)"><path d="M144.289 166.179c-1.371-11.878-4.4-30.828-4.959-34.566a13.286 13.286 0 0 0-8.644-11l.023-.058-44.486-16.783-19.505-.685-44.146 16.783.015.04a13.421 13.421 0 0 0-8.939 12.937c-1.44 9.095-3.98 24.1-5 33.333z" fill="#5c2d91"/><path d="M106.413 67.768c0 17.468-13.346 29.8-29.772 29.8s-30.114-12.335-30.114-29.8c0-17.81 13.688-31.853 30.114-31.853s29.772 14.043 29.772 31.853z" fill="#3c3c3c"/><path d="M60.533 82.8v21.24l-15.076 7.2s22.614 9.594 30.494 9.936c7.88-.343 31.18-9.594 31.18-9.594l-15.762-7.2-.342-21.582z" fill="#bb9167"/><path d="M48.58 68.111c-5.818-8.223-4.112-26.03-4.112-26.03 0-16.44 13-29.8 31.141-29.8 17.794 0 32.509 13.357 32.509 29.8 0 0 .685 19.18-10.267 29.455" fill="#3c3c3c"/><path d="M50.633 51.853a3.246 3.246 0 0 0-3.769-2.053s-4.112.343-2.741 6.853l1.028 3.084.685 3.084 1.37 3.079.685 2.056a13.275 13.275 0 0 1 1.028 3.769 2.808 2.808 0 0 0 2.056 3.084h2.4s-.343-5.482.343-21.236zm51.017 3.2a3.415 3.415 0 0 1 3.426-2.056s3.426.685 2.4 6.51l-.685 2.741-1.028 2.741-1.028 2.741-.685 2.056a6.354 6.354 0 0 0-.685 3.426 3 3 0 0 1-2.056 2.741h-2.4s.343-5.14-.343-19.181l3.084-1.713z" fill="#bb9167"/><path d="M96.817 62.305c.685-5.482 2.1-19.882-2.693-19.882-5.133 0-2.056-13.7-2.056-13.7l9.581 11.992v17.806C101.649 61.605 97 62 97 62z" fill="#333"/><path d="M52.759 66.74c-.685-5.825.685-36.99.685-36.99l-5.475-.343v32.88c-.001 3.426 4.79 4.453 4.79 4.453z" fill="#3c3c3c"/><path d="M99.568 75.645c0 10.279-16.426 20.55-23.612 20.55s-23.612-10.279-23.612-20.55c0 0-2.741-20.55 0-32.538" fill="#bb9167"/><path d="M99.911 43.107c2.4 11.992 0 33.909 0 33.909 0 10.279-16.768 17.125-23.955 17.125s-23.612-6.853-23.612-17.125" fill="#bb9167"/><path d="M100.252 46.875c0 13.02-10.951 23.29-24.3 23.29s-24.3-10.279-24.3-23.29 10.951-23.633 24.3-23.633 24.3 10.617 24.3 23.633z" fill="#bb9167"/><path d="M60.533 93.54c4.8 4.112 10.621 7.2 14.39 7.538h1.029c3.774-.343 10.279-3.084 15.418-7.881v-4.111c-5.139 4.8-11.649 8.223-15.418 8.566h-1.029c-3.774-.343-9.593-4.112-14.39-8.223z" fill="#a4744b"/><path d="M49.606 52.355s6.5-24.318 15.742-26.373l9.581-8.909-26.691 12.678-2.4 13.357z" fill="#3c3c3c"/><path d="M65.691 57.835a1.713 1.713 0 1 1-3.426 0 1.739 1.739 0 1 1 3.426 0zm23.612 0a1.833 1.833 0 0 1-1.713 1.713 1.918 1.918 0 0 1-2.056-1.713 1.89 1.89 0 1 1 3.769 0z" fill="none"/><path d="M56.792 27.352s7.87 10.964 20.532 13.02c0 0 12.662 2.056 16.083 10.964 0 0 3.072 7.575 7.521 9.288 0-.153.343-.547.343-.7.023-26.612 1.76-26.351 1.76-26.351C79.421 18.85 77.325 18.79 77.325 18.79z" fill="#3c3c3c"/><path d="M64.321 30.092S50.633 42.084 50.975 57.835l-2.741-19.181L56.1 24.612l9.924-.685z" fill="#3c3c3c"/><path d="M76.3 84.208a30.488 30.488 0 0 1-7.53-1.028c-.685 0-1.028-.685-1.028-1.371a1.776 1.776 0 0 1 1.371-.685 33.879 33.879 0 0 0 14.373 0c.343 0 1.028.343 1.028.685.343.685 0 1.371-.685 1.371a30.472 30.472 0 0 1-7.529 1.028z" fill="#fff"/><path d="M81.774 54.251c-.343-.343-.343-.343 0-.685 4.449-3.426 10.951-1.713 11.293-1.713a.343.343 0 1 1 0 .685s-6.844-1.713-10.951 1.713zm-12.446 0c-4.449-3.426-10.951-1.713-10.951-1.713-.343 0-.343 0-.343-.343-.343 0 0-.343 0-.343.343 0 6.844-1.713 11.635 1.713v.685z" fill="none"/><path d="M76.522 60.875V69.1h-5.475c1.371-2.056 2.741-3.084 2.741-5.482a2.928 2.928 0 0 1 2.734-2.743z" fill="#d8b094"/><path d="M80.623 69.1h-9.24a1.617 1.617 0 0 0-1.713 1.713v1.027a4.209 4.209 0 0 1 1.713-.685c1.028 0 2.056 1.028 2.741 1.713.343 1.032 1.371 1.032 2.056 1.032a1.624 1.624 0 0 0 1.713-1.028c.685-.685 1.713-1.713 2.741-1.713a4.209 4.209 0 0 1 1.713.685c0-.343.343-.685.343-1.028a1.918 1.918 0 0 0-2.056-1.716z" fill="#a4744b"/><path d="M101.622 73.933a1.2 1.2 0 0 1-.343.685.736.736 0 0 1-.685-.685 1.2 1.2 0 0 1 .685-.343z" fill="#854085"/><path d="M101.622 74.96a1.2 1.2 0 0 1-.343.685.736.736 0 0 1-.685-.685 1.2 1.2 0 0 1 .685-.343zm0 1.371l-.343.343a1.191 1.191 0 0 1-.685-.343.737.737 0 0 1 .685-.685 1.2 1.2 0 0 1 .343.685zm0 1.028l-.343.343a1.191 1.191 0 0 1-.685-.343.737.737 0 0 1 .685-.685 1.2 1.2 0 0 1 .343.684z" fill="#854085"/><path d="M101.622 78.385l-.343.343a1.191 1.191 0 0 1-.685-.343.737.737 0 0 1 .685-.685 1.2 1.2 0 0 1 .343.685zm0 1.028l-.343.343a1.191 1.191 0 0 1-.685-.343.737.737 0 0 1 .685-.685 1.2 1.2 0 0 1 .343.685zm.027 1.028l-.343.343a1.191 1.191 0 0 1-.685-.343c0-.343.343-.343.685-.343a.334.334 0 0 1 .343.324v.019zm0 1.028l-.343.343a1.191 1.191 0 0 1-.685-.343c0-.343.343-.343.685-.343a.336.336 0 0 1 .343.329v.013zm-49.987-7.536a1.2 1.2 0 0 1-.343.685.736.736 0 0 1-.685-.685 1.2 1.2 0 0 1 .685-.343z" fill="#854085"/><path d="M51.662 74.96a1.2 1.2 0 0 1-.343.685.736.736 0 0 1-.685-.685 1.2 1.2 0 0 1 .685-.343zm0 1.371l-.343.343a1.191 1.191 0 0 1-.685-.343.737.737 0 0 1 .685-.685 1.2 1.2 0 0 1 .343.685zm0 1.028l-.343.343a1.191 1.191 0 0 1-.685-.343.737.737 0 0 1 .685-.685 1.2 1.2 0 0 1 .343.684z" fill="#854085"/><path d="M51.662 78.385l-.343.343a1.191 1.191 0 0 1-.685-.343.737.737 0 0 1 .685-.685 1.2 1.2 0 0 1 .343.685zm0 1.028l-.343.343a1.191 1.191 0 0 1-.685-.343.737.737 0 0 1 .685-.685 1.2 1.2 0 0 1 .343.685zm-.262 1.028l-.343.343a1.191 1.191 0 0 1-.685-.343c0-.343.343-.343.685-.343a.334.334 0 0 1 .343.324v.019zm0 1.028l-.343.343a1.191 1.191 0 0 1-.685-.343c0-.343.343-.343.685-.343a.336.336 0 0 1 .343.329v.013z" fill="#854085"/></g></svg>