<svg xmlns="http://www.w3.org/2000/svg" viewBox="0 0 192.919 146.314"><title>zerodata-preparing-data</title><path d="M136.837,112.629v-7.206a3.037,3.037,0,0,1,2.034-3.1c4.633-.056,2.966,1.109,2.966,2.949v7.5c0,1.84,0,3.187-2.966,2.949A3.037,3.037,0,0,1,136.837,112.629Z" fill="#f0ae00"/><path d="M138.837,112.641v-7.206a3.037,3.037,0,0,1,2.034-3.1c1.586-.344,2.966,1.109,2.966,2.949v7.5c0,1.84-1.381,3.293-2.966,2.949A3.037,3.037,0,0,1,138.837,112.641Z" fill="#ffcb40"/><path d="M147.837,112.629V96.423a3.037,3.037,0,0,1,2.034-3.1c4.633-.056,2.966,1.109,2.966,2.949v16.5c0,1.84,0,3.187-2.966,2.949A3.037,3.037,0,0,1,147.837,112.629Z" fill="#f0ae00"/><path d="M149.837,112.641V96.435a3.037,3.037,0,0,1,2.034-3.1c1.586-.344,2.966,1.109,2.966,2.949v16.5c0,1.84-1.381,3.293-2.966,2.949A3.037,3.037,0,0,1,149.837,112.641Z" fill="#ffcb40"/><path d="M158.837,112.629V101.423a3.037,3.037,0,0,1,2.034-3.1c4.633-.056,2.966,1.109,2.966,2.949v11.5c0,1.84,0,3.187-2.966,2.949A3.037,3.037,0,0,1,158.837,112.629Z" fill="#f0ae00"/><path d="M160.837,112.641V101.435a3.037,3.037,0,0,1,2.034-3.1c1.586-.344,2.966,1.109,2.966,2.949v11.5c0,1.84-1.381,3.293-2.966,2.949A3.037,3.037,0,0,1,160.837,112.641Z" fill="#ffcb40"/><path d="M169.837,112.629V89.423a3.037,3.037,0,0,1,2.034-3.1c4.633-.056,2.966,1.109,2.966,2.949v23.5c0,1.84,0,3.187-2.966,2.949A3.037,3.037,0,0,1,169.837,112.629Z" fill="#f0ae00"/><path d="M171.837,112.641V89.435a3.037,3.037,0,0,1,2.034-3.1c1.586-.344,2.966,1.109,2.966,2.949v23.5c0,1.84-1.381,3.293-2.966,2.949A3.037,3.037,0,0,1,171.837,112.641Z" fill="#ffcb40"/><path d="M189.919,146.314H3.17a3.117,3.117,0,0,1-3.123-2.463A3,3,0,0,1,3,140.314H189.75a3.117,3.117,0,0,1,3.123,2.463A3,3,0,0,1,189.919,146.314Z" fill="#b2b2b2"/><rect x="125.837" y="82.314" width="3" height="33" fill="#0078d7"/><path d="M184.755,143.648a1.883,1.883,0,0,0-.919-1V120.314h-2v22.343a1.872,1.872,0,0,0-.919.99l-.237.666h4.31Z" fill="#0078d7"/><path d="M125.447,120.314h60.841a2.745,2.745,0,0,0,2.94-2.5,2.808,2.808,0,0,0-2.94-2.5H125.447a2.739,2.739,0,0,0-2.94,2.5A2.681,2.681,0,0,0,125.447,120.314Z" fill="#ff8c00" fill-rule="evenodd"/><path d="M123.483,120.005a3.314,3.314,0,0,0,3.092,2.309h60.611a3,3,0,0,0,0-6H126.345A2.985,2.985,0,0,0,123.483,120.005Z" fill="#0078d7" fill-rule="evenodd"/><circle cx="186.184" cy="119.097" r="1.348" fill="#001129"/><circle cx="180.091" cy="119.097" r="1.348" fill="#001129"/><circle cx="173.998" cy="119.097" r="1.348" fill="#001129"/><circle cx="167.905" cy="119.097" r="1.348" fill="#001129"/><circle cx="161.812" cy="119.097" r="1.348" fill="#001129"/><circle cx="155.719" cy="119.097" r="1.348" fill="#001129"/><circle cx="149.626" cy="119.097" r="1.348" fill="#001129"/><circle cx="143.533" cy="119.097" r="1.348" fill="#001129"/><circle cx="137.44" cy="119.097" r="1.348" fill="#001129"/><circle cx="131.347" cy="119.097" r="1.348" fill="#001129"/><path d="M79.837,51.314v73.953a5.511,5.511,0,0,1-11,.631V114.2a1.951,1.951,0,0,0-2.977-1.643,2.264,2.264,0,0,0-1.023,1.967s0-.151,0,10.958a5.5,5.5,0,0,1-11,0V108.042s-.71,0-7.284-9.988c-.106-.105-.212-.21-.212-.315h0c.106-.841,3.924-1.472,8.589-1.472,4.772,0,8.589.631,8.7,1.472h0c0,.105-.106.21-.212.315l-6.576,9.988v17.5a2,2,0,1,0,4-.07s0,.457,0-11.55a6,6,0,0,1,12,0v11.242a2.122,2.122,0,0,0,1.83,2.095,1.945,1.945,0,0,0,2.17-1.992V51.314Z" fill="#0078d7" fill-rule="evenodd"/><rect x="89.837" y="140.614" width="3" height="3.7" fill="#001129"/><rect x="120.837" y="140.597" width="3" height="3.717" fill="#001129"/><circle cx="144.852" cy="49.887" r="9.883" fill="#d2d2d2"/><rect x="55.837" y="50.364" width="46" height="1.797" fill="#0064b5"/><path d="M122.743,35.033c-1.75-1.875-5.375-1.719-6.49-1.719H104.777a3.829,3.829,0,0,0-3.816-3.25v9.094a3.892,3.892,0,0,0,3.816-2.844h11.859c1.451,0,2.92-.179,4.388,1.188.839.841.813,3.233.813,3.233V58.078A5.237,5.237,0,0,1,120.53,61.9a5.54,5.54,0,0,1-3.81,1.418h-3.709a7.964,7.964,0,0,0-5.879,2.182,7.823,7.823,0,0,0-1.96,5.127,4.81,4.81,0,0,0-3.593,4.691h10.079a4.615,4.615,0,0,0-3.446-4.5,5.8,5.8,0,0,1,1.253-3.14,4.743,4.743,0,0,1,3.76-1.36h3.027c.416,0,4.131.332,6.209-1.75a7.707,7.707,0,0,0,2.375-5.745V39.809A5.62,5.62,0,0,0,122.743,35.033Z" fill="#0078d7" fill-rule="evenodd"/><path d="M126.837,137.176s0,5.138-5.272,5.138H91.214s-5.378,0-5.378-5.138V80.452a5.11,5.11,0,0,1,5.378-5.138h30.35s5.272,0,5.272,5.138Z" fill="#106ebe" fill-rule="evenodd"/><path d="M106.674,82.431a9.89,9.89,0,0,0-9.831,9.883h19.766A9.912,9.912,0,0,0,106.674,82.431Z" fill="#c2c2c2" fill-rule="evenodd"/><path d="M112.113,85.142a.252.252,0,0,0-.335-.04L107.5,88.166a1.3,1.3,0,0,0-.327-.066,1.348,1.348,0,1,0,1.348,1.348,1.273,1.273,0,0,0-.043-.211l3.623-3.757A.25.25,0,0,0,112.113,85.142Z" fill="#a80000"/><circle cx="116.261" cy="97.534" r="2.695" fill="#ff8c00"/><circle cx="96.261" cy="97.534" r="2.695" fill="#ff8c00"/><circle cx="106.261" cy="97.534" r="2.695" fill="#ff8c00"/><path d="M151.036,53.952,146.3,50.643a1.532,1.532,0,0,0,.211-.641,1.671,1.671,0,0,0-.632-1.281v-4.27a.842.842,0,1,0-1.685,0v4.27a1.658,1.658,0,0,0-.632.854l-5.37,2.242a1.021,1.021,0,0,0-.421,1.067c.211.32.421.534.737.534a.384.384,0,0,0,.316-.107l5.37-2.135a1.993,1.993,0,0,0,.842.32,1.29,1.29,0,0,0,1.053-.534l4.738,3.416h.105c.105,0,.105,0,.211-.107A.4.4,0,0,0,151.036,53.952Z" fill="#004880" fill-rule="evenodd"/><path d="M135.153,49.939a9.7,9.7,0,1,0,9.7-9.742A9.68,9.68,0,0,0,135.153,49.939Zm21.379,0a11.68,11.68,0,1,1-11.68-11.732A11.665,11.665,0,0,1,156.532,49.939Z" fill="#005a93" fill-rule="evenodd"/><rect x="93.837" y="105.314" width="3" height="19" fill="#002050"/><rect x="100.837" y="105.314" width="3" height="19" fill="#002050"/><rect x="107.837" y="105.314" width="3" height="19" fill="#002050"/><rect x="114.837" y="105.314" width="3" height="19" fill="#002050"/><rect x="99.837" y="112.314" width="5" height="2" fill="#ffcb40"/><rect x="113.837" y="108.314" width="5" height="2" fill="#ffcb40"/><rect x="92.837" y="118.314" width="5" height="2" fill="#ffcb40"/><rect x="106.837" y="116.314" width="5" height="2" fill="#ffcb40"/><rect x="93.837" y="130.314" width="24" height="2" fill="#002050"/><rect x="93.837" y="133.314" width="24" height="2" fill="#002050"/><path d="M47.381,75.939a6.422,6.422,0,0,0,2.234-3.993c.319-1.1,0-1.5-.426-1.2.532-.9-.106-1.9-.532-1.2.106-.3,0-.9-.426-1-.426,0-.532.6-.532.9-.319-.3-.851-.3-.958.5a2.022,2.022,0,0,1-.532,1.1c-.106-.8-.532-1.1-.958-.9,0,.8-.426,2-.426,3.095v.6l-2.979,3.794,3.618.8Z" fill="#ce9c5f" fill-rule="evenodd"/><polygon points="47.239 76.526 43.62 73.943 42.746 74.953 46.365 77.536 47.239 76.526" fill="#f3f3f3" fill-rule="evenodd"/><path d="M36.226,82.744a3.1,3.1,0,0,1,3.818-.392,2.284,2.284,0,0,1,.562,3.431,3.125,3.125,0,0,1-3.931.392A2.186,2.186,0,0,1,36.226,82.744Z" fill="#1c4768" fill-rule="evenodd"/><polygon points="46.34 77.507 42.819 74.841 36.457 82.377 40.66 85.623 46.34 77.507" fill="#1c4768" fill-rule="evenodd"/><path d="M69.176,69.36c-.21-.319-.42-.743-.63-1.062a.967.967,0,0,1,.1-.531,7.286,7.286,0,0,0-4.2-7.539,4.987,4.987,0,0,0-1.784-.531,6.262,6.262,0,0,0-4.408.743,9.092,9.092,0,0,0-2.414-3.5,9.513,9.513,0,0,0-1.679-1.168,12.743,12.743,0,0,0-2.834-.956,9.02,9.02,0,0,0-10.075,7.22v.212h-.1A7.113,7.113,0,0,0,33.073,68.3a7.276,7.276,0,0,0,.84,4.46,8.786,8.786,0,0,0,1.784.531L63.089,77.43a5.588,5.588,0,0,0,3.253-.531A5.65,5.65,0,0,0,69.6,72.546,6.543,6.543,0,0,0,69.176,69.36Z" fill="#ffcb40" fill-rule="evenodd"/><ellipse cx="54.876" cy="97.752" rx="8.535" ry="1.348" fill="#005a93"/><polygon points="51.995 80.271 51.15 80.974 50.833 80.505 51.995 79.333 52.63 79.333 52.63 84.724 51.995 84.724 51.995 80.271" fill="#ffb900" fill-rule="evenodd"/><polygon points="50.991 90.175 50.357 90.894 49.934 90.414 51.097 89.216 51.731 89.216 51.731 94.607 50.991 94.607 50.991 90.175" fill="#ffcb40" fill-rule="evenodd"/><polygon points="59.183 89.117 58.443 89.616 58.02 89.316 59.289 88.318 59.817 88.318 59.817 92.81 59.183 92.81 59.183 89.117" fill="#ffb900" fill-rule="evenodd"/><path d="M54.481,89.468c.871,0,.98-1.4.98-2.049s-.218-2.156-.98-2.156c-.871,0-1.089,1.509-1.089,2.156S53.5,89.468,54.481,89.468Zm0-4.744c1.416,0,1.742,1.509,1.742,2.7,0,1.078-.327,2.7-1.742,2.7-1.525,0-1.851-1.617-1.851-2.7C52.63,86.234,52.956,84.724,54.481,84.724Z" fill="#e6a600" fill-rule="evenodd"/><path d="M56.223,96.764c.9,0,1.011-1.168,1.011-1.707s-.112-1.707-1.011-1.707-1.011,1.168-1.011,1.707S55.325,96.764,56.223,96.764Zm0-3.953c1.46,0,1.8,1.258,1.8,2.246s-.337,2.246-1.8,2.246-1.8-1.258-1.8-2.246S54.763,92.81,56.223,92.81Z" fill="#e6a600" fill-rule="evenodd"/><path d="M47.293,90.474c.871,0,.98-1.509.98-2.156s-.109-2.049-.98-2.049-.98,1.4-.98,2.049S46.313,90.474,47.293,90.474Zm0-4.852c1.416,0,1.742,1.617,1.742,2.7,0,1.186-.327,2.7-1.742,2.7-1.525,0-1.851-1.509-1.851-2.7C45.442,87.24,45.768,85.623,47.293,85.623Z" fill="#ffb900" fill-rule="evenodd"/><path d="M62.513,89.468c.9,0,1.011-1.4,1.011-2.049s-.112-2.049-1.011-2.049S61.5,86.773,61.5,87.42,61.614,89.468,62.513,89.468Zm0-4.744c1.46,0,1.8,1.617,1.8,2.7,0,1.186-.337,2.7-1.8,2.7s-1.8-1.509-1.8-2.7C60.716,86.341,61.053,84.724,62.513,84.724Z" fill="#e6a600" fill-rule="evenodd"/><polygon points="51.995 80.271 51.15 80.974 50.833 80.505 51.995 79.333 52.63 79.333 52.63 84.724 51.995 84.724 51.995 80.271" fill="#ffb900" fill-rule="evenodd"/><polygon points="50.991 90.175 50.357 90.894 49.934 90.414 51.097 89.216 51.731 89.216 51.731 94.607 50.991 94.607 50.991 90.175" fill="#ffcb40" fill-rule="evenodd"/><polygon points="59.183 89.117 58.443 89.616 58.02 89.316 59.289 88.318 59.817 88.318 59.817 92.81 59.183 92.81 59.183 89.117" fill="#ffb900" fill-rule="evenodd"/><path d="M54.481,89.468c.871,0,.98-1.4.98-2.049s-.218-2.156-.98-2.156c-.871,0-1.089,1.509-1.089,2.156S53.5,89.468,54.481,89.468Zm0-4.744c1.416,0,1.742,1.509,1.742,2.7,0,1.078-.327,2.7-1.742,2.7-1.525,0-1.851-1.617-1.851-2.7C52.63,86.234,52.956,84.724,54.481,84.724Z" fill="#e6a600" fill-rule="evenodd"/><path d="M56.223,96.764c.9,0,1.011-1.168,1.011-1.707s-.112-1.707-1.011-1.707-1.011,1.168-1.011,1.707S55.325,96.764,56.223,96.764Zm0-3.953c1.46,0,1.8,1.258,1.8,2.246s-.337,2.246-1.8,2.246-1.8-1.258-1.8-2.246S54.763,92.81,56.223,92.81Z" fill="#e6a600" fill-rule="evenodd"/><path d="M47.293,90.474c.871,0,.98-1.509.98-2.156s-.109-2.049-.98-2.049-.98,1.4-.98,2.049S46.313,90.474,47.293,90.474Zm0-4.852c1.416,0,1.742,1.617,1.742,2.7,0,1.186-.327,2.7-1.742,2.7-1.525,0-1.851-1.509-1.851-2.7C45.442,87.24,45.768,85.623,47.293,85.623Z" fill="#ffb900" fill-rule="evenodd"/><path d="M62.513,89.468c.9,0,1.011-1.4,1.011-2.049s-.112-2.049-1.011-2.049S61.5,86.773,61.5,87.42,61.614,89.468,62.513,89.468Zm0-4.744c1.46,0,1.8,1.617,1.8,2.7,0,1.186-.337,2.7-1.8,2.7s-1.8-1.509-1.8-2.7C60.716,86.341,61.053,84.724,62.513,84.724Z" fill="#e6a600" fill-rule="evenodd"/><path d="M69.276,69.45a6.128,6.128,0,0,1,.412,3.051,5.43,5.43,0,0,1-3.194,4.17,5.6,5.6,0,0,1-3.194.509L36.412,73.214A8.781,8.781,0,0,1,34.66,72.7a6.928,6.928,0,0,0,5.048,3.458L66.6,80.13a5.262,5.262,0,0,0,3.091-.509,5.04,5.04,0,0,0,3.194-4.17A5.488,5.488,0,0,0,69.276,69.45Z" fill="#f0ae00" fill-rule="evenodd"/><polygon points="48.401 76.578 47.556 77.297 47.239 76.698 48.401 75.739 49.036 75.739 49.036 81.13 48.401 81.13 48.401 76.578" fill="#ffcb40" fill-rule="evenodd"/><polygon points="61.839 77.575 61.053 78.279 60.716 77.693 61.839 76.638 62.513 76.638 62.513 82.029 61.839 82.029 61.839 77.575" fill="#ffcb40" fill-rule="evenodd"/><path d="M57.067,82.28c.98,0,.98-1.4.98-2.049s-.109-2.049-.98-2.049-.98,1.4-.98,2.049S56.2,82.28,57.067,82.28Zm0-4.744c1.525,0,1.851,1.617,1.851,2.7,0,1.186-.327,2.7-1.851,2.7-1.416,0-1.742-1.509-1.742-2.7C55.325,79.154,55.652,77.536,57.067,77.536Z" fill="#ffcb40" fill-rule="evenodd"/><polygon points="61.839 77.575 61.053 78.279 60.716 77.693 61.839 76.638 62.513 76.638 62.513 82.029 61.839 82.029 61.839 77.575" fill="#ffcb40" fill-rule="evenodd"/><path d="M57.067,82.28c.98,0,.98-1.4.98-2.049s-.109-2.049-.98-2.049-.98,1.4-.98,2.049S56.2,82.28,57.067,82.28Zm0-4.744c1.525,0,1.851,1.617,1.851,2.7,0,1.186-.327,2.7-1.851,2.7-1.416,0-1.742-1.509-1.742-2.7C55.325,79.154,55.652,77.536,57.067,77.536Z" fill="#ffcb40" fill-rule="evenodd"/><polygon points="31.055 121.627 24.777 121.451 25.125 106.287 31.965 106.509 31.055 121.627" fill="#1c4768" fill-rule="evenodd"/><polygon points="24.212 109.356 15.792 108.219 17.398 97.525 19.024 84.595 21.298 82.574 26.795 82.043 25.191 105.523 24.212 109.356" fill="#1c4768" fill-rule="evenodd"/><polygon points="16.68 121.408 22.899 121.564 24.777 106.833 17.023 106.287 16.68 121.408" fill="#1c4768" fill-rule="evenodd"/><polygon points="21.183 141.328 17.589 141.097 17.801 136.835 21.077 136.951 21.183 141.328" fill="#001129" fill-rule="evenodd"/><path d="M21.97,143.012l-3.448.112-.111-.562a32.793,32.793,0,0,1-4.783.562,8.517,8.517,0,0,1-3-.337.855.855,0,0,1-.222-.449c.111-1.46,5.673-2.022,7.119-3.706h.222c.334.337.779,1.123,1.669,1.123a3.489,3.489,0,0,0,2.114-1.123C22.082,139.081,22.082,143.012,21.97,143.012Z" fill="#282828" fill-rule="evenodd"/><path d="M22.9,121.8a3.068,3.068,0,0,0-2.938-3.264,3.16,3.16,0,0,0-.326,6.31A3.232,3.232,0,0,0,22.9,121.8Z" fill="#1c4768" fill-rule="evenodd"/><polygon points="22.899 121.908 16.774 122.064 16.691 139.611 22.004 140.179 22.899 121.908" fill="#1c4768" fill-rule="evenodd"/><polygon points="25.024 140.252 28.265 140.429 28.371 135.937 25.094 135.937 25.024 140.252" fill="#001129" fill-rule="evenodd"/><path d="M24.879,142.8l3.153.11.2-.438c.915.219,3.255.548,4.272.657a7.065,7.065,0,0,0,2.746-.329c.1-.11.305-.329.2-.438-.1-1.424-5.187-2.082-6.408-3.725h-.2c-.305.329-.712,1.1-1.526,1.1s-1.627-.877-1.933-1.1C24.879,138.961,24.777,142.8,24.879,142.8Z" fill="#282828" fill-rule="evenodd"/><path d="M24.777,121.516a2.976,2.976,0,0,1,3.253-2.558,2.828,2.828,0,0,1,3.036,2.65,2.976,2.976,0,0,1-3.253,2.558A2.9,2.9,0,0,1,24.777,121.516Z" fill="#1c4768" fill-rule="evenodd"/><polygon points="24.837 121.752 31.066 121.671 30.168 139.202 24.777 139.531 24.837 121.752" fill="#1c4768" fill-rule="evenodd"/><polygon points="39.962 86.314 38.651 81.13 31.066 82.185 33.283 89.216 39.962 86.314" fill="#1c4768" fill-rule="evenodd"/><path d="M33.517,89.477A3.546,3.546,0,0,1,29,87.242a3.629,3.629,0,0,1,2.31-4.575A3.505,3.505,0,0,1,35.827,84.9,3.629,3.629,0,0,1,33.517,89.477Z" fill="#1c4768" fill-rule="evenodd"/><polygon points="24.777 109.329 31.774 109.814 33.762 87.113 32.821 82.692 26.658 82.029 25.212 105.439 24.777 109.329" fill="#1c4768" fill-rule="evenodd"/><path d="M28.932,82.218l.337-3.4-4.942-.378-.337,3.4c-.112.851.449,1.7,2.246,1.8C28.034,83.826,28.82,82.974,28.932,82.218Z" fill="#ce9c5f" fill-rule="evenodd"/><path d="M23.879,78.455a9.27,9.27,0,0,0,5.054,3.573l.337-3.471-5.391-1.021Z" fill="#ba8c57" fill-rule="evenodd"/><path d="M30.857,77.649a6.454,6.454,0,0,1-1.047-2.294c-.1-.209,0-.313.1-.313l.523-.209c.1-.1.209-.313.1-.417l-1.151-1.46a1.441,1.441,0,0,1-.314-.417l-.942-2.19-7.223,1.564.209,1.043-.837.209s.209,8.864,10.258,5.214A.479.479,0,0,0,30.857,77.649Z" fill="#ce9c5f" fill-rule="evenodd"/><path d="M21.882,70.249a10.485,10.485,0,0,1,4.692-2.379c1.1-.216,2.2,0,2.4,1.19.3,1.622-1.3,1.947-2,2.055l-1,.216a.738.738,0,0,0-.4.973l1,2.271-.5.324a.179.179,0,0,1-.3,0c-.3-.433-.9-1.19-1.6-.757a1.114,1.114,0,0,0,0,1.73c.4.325.9.433,1,.973a1.935,1.935,0,0,1-.8,2.487,5.7,5.7,0,0,1-3.294-3.244,5.245,5.245,0,0,1,.1-4.867A2.335,2.335,0,0,1,21.882,70.249Z" fill="#301d19" fill-rule="evenodd"/><path d="M29.269,73.344a.625.625,0,0,1-.385.6.444.444,0,0,1-.385-.449.294.294,0,0,1,.257-.449A.642.642,0,0,1,29.269,73.344Z" fill-rule="evenodd"/><polygon points="26.482 83.548 25.774 98.71 28.094 89.084 30.168 82.68 29.937 82.029 26.482 83.548" fill="#d2d2d2" fill-rule="evenodd"/><polygon points="26.574 83.236 25.735 98.201 23.938 89.001 22.98 81.795 23.339 81.13 26.574 83.236" fill="#fff" fill-rule="evenodd"/><polygon points="26.574 83.424 23.912 80.232 22.98 81.178 23.513 84.724 25.775 82.951 26.574 83.424" fill="#d2d2d2" fill-rule="evenodd"/><polygon points="26.574 83.306 29.356 81.13 30.168 81.981 28.893 84.724 27.27 83.022 26.574 83.306" fill="#fff" fill-rule="evenodd"/><polygon points="25.9 82.927 25.675 83.184 26.125 84.724 26.799 84.724 27.472 83.441 27.248 83.184 25.9 82.927" fill="#e81123" fill-rule="evenodd"/><polygon points="25.804 84.724 24.777 96.723 25.419 99.1 26.317 97.741 26.574 84.724 25.804 84.724" fill="#e81123" fill-rule="evenodd"/><path d="M31.066,83.6l-.744.946.465.315c-1.58,4.414-5.284,15.177-5.284,15.177l.186-1.471c1.022-3.888,3.7-16.544,3.7-16.544Z" fill="#001129" fill-rule="evenodd"/><path d="M21.183,82.516l.731.959-.627.32c1.045,4.69,4.179,16.2,4.179,16.2a12.512,12.512,0,0,0,.209-1.492c-.522-4.051-2.4-17.375-2.4-17.375Z" fill="#001129" fill-rule="evenodd"/><polygon points="16.962 108.322 24.1 109.334 25.305 104.22 24.779 109.334 31.684 109.92 31.684 110.506 25.024 110.283 24.68 109.47 24.305 110.252 16.962 110.314 16.962 108.322" fill="#001129" fill-rule="evenodd"/><path d="M25.821,102.666a.467.467,0,0,1-.513.449c-.128,0-.385-.3-.385-.449.128-.3.257-.449.513-.449S25.821,102.516,25.821,102.666Z" fill="#0078d7" fill-rule="evenodd"/><path d="M30.6,76.638l-2.227.6a6.714,6.714,0,0,0,2.7,0Z" fill="#cb8c84" fill-rule="evenodd"/><path d="M30.7,76.638l-2.328.653a6.4,6.4,0,0,0,2.7-.163Z" fill="#fff" fill-rule="evenodd"/><polygon points="33.762 84.163 32.219 79.333 21.524 81.627 23.624 88.318 33.762 84.163" fill="#1c4768" fill-rule="evenodd"/><path d="M23.634,88.578a3.563,3.563,0,0,1-4.516-2.341,3.629,3.629,0,0,1,2.31-4.575,3.711,3.711,0,0,1,4.516,2.447A3.474,3.474,0,0,1,23.634,88.578Z" fill="#1c4768" fill-rule="evenodd"/><path d="M41.479,72.038a7.762,7.762,0,0,0,1.969-4.42c.2-1.186-.1-1.617-.492-1.186.492-1.078-.2-2.049-.492-1.4,0-.216-.1-.863-.492-.97-.3,0-.394.647-.394.97-.3-.323-.788-.323-.886.647a2.314,2.314,0,0,1-.492,1.186c-.1-.863-.492-1.186-.886-.97,0,.863-.3,2.156-.3,3.342v.647l-2.56,4.313,3.446.647Z" fill="#ce9c5f" fill-rule="evenodd"/><path d="M31.051,80.09a2.708,2.708,0,1,1,.772,3.751A2.6,2.6,0,0,1,31.051,80.09Z" fill="#1c4768" fill-rule="evenodd"/><polygon points="40.949 74.529 37.02 72.146 31.066 80.09 35.591 82.927 40.949 74.529" fill="#1c4768" fill-rule="evenodd"/><polygon points="40.949 73.763 37.938 71.247 37.356 72.325 40.367 74.841 40.949 73.763" fill="#f3f3f3" fill-rule="evenodd"/><path d="M108.213,70.814a6.42,6.42,0,0,1,1.872,4.5h1.575A4.615,4.615,0,0,0,108.213,70.814Z" fill="#005a93" fill-rule="evenodd"/><path d="M104.777,36.314a5.976,5.976,0,0,1-3.816,1.518v1.326A3.892,3.892,0,0,0,104.777,36.314Z" fill="#005a93" fill-rule="evenodd"/><path d="M57.837,49.314V22.964C57.837,10.73,66.7.8,78.837.8a22.1,22.1,0,0,1,22,22.167v26.35Z" fill="#d2d2d2" fill-rule="evenodd"/><path d="M78.837,0a23.019,23.019,0,0,0-23,23.052V50.314h46V23.052A23.019,23.019,0,0,0,78.837,0Zm-.448,1.842A21.543,21.543,0,0,1,99.837,23.42V48.314h-42V23.42c0-11.894,8.625-21.578,20.552-21.578" fill="#69afe5" fill-rule="evenodd"/><circle cx="78.51" cy="22.062" r="18.419" fill="#f0ae00"/><ellipse cx="78.959" cy="22.062" rx="15.274" ry="14.825" fill="#ffcb40"/><path d="M66.381,22.061a12.129,12.129,0,0,1,24.259,0,11.763,11.763,0,0,1-2.57,7.4h0a5.644,5.644,0,0,1-.719.925c-1.131,1.439-3.187,4.419-3.187,7.4H72.856c0-2.98-2.056-5.961-3.289-7.4-.206-.308-.514-.617-.719-.925h0a12.312,12.312,0,0,1-2.467-7.4" fill="#fff2e2" fill-rule="evenodd"/><path d="M66.381,22.061a12.129,12.129,0,0,1,24.259,0,11.763,11.763,0,0,1-2.57,7.4h0a5.649,5.649,0,0,1-.72.925c-1.131,1.439-3.187,4.419-3.187,7.4H72.856c0-2.981-2.056-5.961-3.289-7.4-.206-.308-.514-.617-.72-.925h0a12.312,12.312,0,0,1-2.467-7.4" fill="none" stroke="#fff" stroke-miterlimit="8" stroke-width="2"/><path d="M66.381,22.061a12.129,12.129,0,0,1,24.259,0,11.763,11.763,0,0,1-2.57,7.4h0a5.649,5.649,0,0,1-.72.925c-1.131,1.439-3.187,4.419-3.187,7.4H72.856c0-2.981-2.056-5.961-3.289-7.4-.206-.308-.514-.617-.72-.925h0a12.312,12.312,0,0,1-2.467-7.4" fill="none" stroke="#fff" stroke-miterlimit="8" stroke-width="2"/><path d="M70.424,22.961a9.014,9.014,0,0,1,8.985-8.985" fill="none" stroke="#fff" stroke-linecap="round" stroke-miterlimit="8"/><path d="M90.639,22.061A12.2,12.2,0,0,0,78.406,9.933c-.415,0-.829.1-1.244.1A12.191,12.191,0,0,1,88.255,22.061a12.332,12.332,0,0,1-2.592,7.4h0c-.207.308-.518.617-.726.925-1.14,1.439-3.317,4.419-3.317,7.4h2.488c0-2.98,2.073-5.961,3.214-7.4a5.655,5.655,0,0,0,.726-.925h0a11.7,11.7,0,0,0,2.592-7.4" fill="#ffe3c0" fill-rule="evenodd"/><path d="M84.6,37.785s.647,0,.647.567v.662a.584.584,0,0,1-.647.567H72.418s-.647,0-.647-.567v-.662a.584.584,0,0,1,.647-.567Z" fill="#0078d7" fill-rule="evenodd"/><path d="M84.6,39.582s.647,0,.647.943v.943s0,.809-.647.809H72.418s-.647,0-.647-.809v-.943s0-.943.647-.943Z" fill="#0064b5" fill-rule="evenodd"/><path d="M84.6,44.075s.647,0,.647.539v.719a.568.568,0,0,1-.647.539H72.418s-.647,0-.647-.539v-.719a.568.568,0,0,1,.647-.539Z" fill="#0064b5" fill-rule="evenodd"/><path d="M84.6,42.278s.647,0,.647.539v.719a.568.568,0,0,1-.647.539H72.418s-.647,0-.647-.539v-.719a.568.568,0,0,1,.647-.539Z" fill="#0078d7" fill-rule="evenodd"/></svg>