<svg xmlns="http://www.w3.org/2000/svg" viewBox="0 0 142.409 150"><defs><style>.a{fill:#002f33}.b{fill:#007365}.c{fill:#00a387}.d{fill:#bad80a}.msillu-yellow{fill:#ffb900}.e{fill:#fff}</style></defs><title>zerodata-add-deployment-group</title><rect class="a" x="16.559" y="28.566" width="59.613" height="121.434" rx="4.375" ry="4.375"/><rect class="b" y="28.566" width="59.613" height="121.434" rx="4.375" ry="4.375"/><rect class="c" x="6.624" y="35.19" width="45.262" height="15.455" rx="1.875" ry="1.875"/><circle class="d" cx="46.366" cy="40.71" r="2.208"/><path class="b" d="M9.935 38.502h3.312v8.832H9.935zM16.559 38.502h3.312v8.832h-3.312zM23.183 38.502h3.312v8.832h-3.312zM29.806 38.502h3.312v8.832h-3.312z"/><rect class="c" x="6.624" y="57.269" width="45.262" height="15.455" rx="1.875" ry="1.875"/><circle class="d" cx="46.366" cy="62.789" r="2.208"/><path class="b" d="M9.935 60.581h3.312v8.832H9.935zM16.559 60.581h3.312v8.832h-3.312zM23.183 60.581h3.312v8.832h-3.312zM29.806 60.581h3.312v8.832h-3.312z"/><rect class="c" x="6.624" y="79.348" width="45.262" height="15.455" rx="1.875" ry="1.875"/><circle class="d" cx="46.366" cy="84.867" r="2.208"/><path class="b" d="M9.935 82.66h3.312v8.832H9.935zM16.559 82.66h3.312v8.832h-3.312zM23.183 82.66h3.312v8.832h-3.312zM29.806 82.66h3.312v8.832h-3.312z"/><rect class="c" x="6.624" y="101.427" width="45.262" height="15.455" rx="1.875" ry="1.875"/><circle class="d" cx="46.366" cy="106.946" r="2.208"/><path class="b" d="M9.935 104.738h3.312v8.832H9.935zM16.559 104.738h3.312v8.832h-3.312zM23.183 104.738h3.312v8.832h-3.312zM29.806 104.738h3.312v8.832h-3.312z"/><rect class="a" x="82.796" y="28.566" width="59.613" height="121.434" rx="4.375" ry="4.375"/><rect class="b" x="66.237" y="28.566" width="59.613" height="121.434" rx="4.375" ry="4.375"/><rect class="c" x="72.86" y="35.19" width="45.262" height="15.455" rx="1.875" ry="1.875"/><circle class="d" cx="112.602" cy="40.71" r="2.208"/><path class="b" d="M76.172 38.502h3.312v8.832h-3.312zM82.796 38.502h3.312v8.832h-3.312zM89.419 38.502h3.312v8.832h-3.312zM96.043 38.502h3.312v8.832h-3.312z"/><rect class="c" x="72.86" y="57.269" width="45.262" height="15.455" rx="1.875" ry="1.875"/><circle class="d" cx="112.602" cy="62.789" r="2.208"/><path class="b" d="M76.172 60.581h3.312v8.832h-3.312zM82.796 60.581h3.312v8.832h-3.312zM89.419 60.581h3.312v8.832h-3.312zM96.043 60.581h3.312v8.832h-3.312z"/><rect class="c" x="72.86" y="79.348" width="45.262" height="15.455" rx="1.875" ry="1.875"/><circle class="d" cx="112.602" cy="84.867" r="2.208"/><path class="b" d="M76.172 82.66h3.312v8.832h-3.312zM82.796 82.66h3.312v8.832h-3.312zM89.419 82.66h3.312v8.832h-3.312zM96.043 82.66h3.312v8.832h-3.312z"/><rect class="c" x="72.86" y="101.427" width="45.262" height="15.455" rx="1.875" ry="1.875"/><circle class="d" cx="112.602" cy="106.946" r="2.208"/><path class="b" d="M76.172 104.738h3.312v8.832h-3.312zM82.796 104.738h3.312v8.832h-3.312zM89.419 104.738h3.312v8.832h-3.312zM96.043 104.738h3.312v8.832h-3.312z"/><path class="msillu-yellow" d="M47.976 16.772a16.772 16.772 0 1 0-31.4 8.192l14.9 32.305L46.65 23.318a16.716 16.716 0 0 0 1.326-6.546z"/><circle class="e" cx="31.205" cy="16.772" r="8.181"/></svg>