<svg xmlns="http://www.w3.org/2000/svg" viewBox="0 0 328.571 80"><title>zerodata-invalid-workitem-type</title><path d="M328.571 0h-11.09a23.04 23.04 0 0 0-22.964 21.826 14.534 14.534 0 0 1-14.491 13.889H260v8.571h20.023a23.046 23.046 0 0 0 23-22.4 14.539 14.539 0 0 1 14.463-13.315h11.086z" fill="#40cdf5"/><path d="M244.05 55.714h24.756a2.621 2.621 0 0 0 2.623-2.619V26.907a2.621 2.621 0 0 0-2.621-2.622H244.05a2.621 2.621 0 0 0-2.621 2.621V53.1a2.621 2.621 0 0 0 2.621 2.614z" fill="#0078d7"/><path d="M223.428 2.857h29.763a4.618 4.618 0 0 1 3.275 1.362l7.9 7.952a4.618 4.618 0 0 1 1.343 3.256v47.13a4.618 4.618 0 0 1-1.343 3.256l-9.907 9.967a4.618 4.618 0 0 1-3.275 1.362h-27.76a10.571 10.571 0 0 1-10.571-10.571V13.43a10.571 10.571 0 0 1 10.57-10.573z" fill="#00188f"/><path d="M68.571 35.714h-11.09A23.041 23.041 0 0 0 34.517 57.54a14.534 14.534 0 0 1-14.491 13.889H0V80h20.023a23.046 23.046 0 0 0 23-22.4 14.539 14.539 0 0 1 14.463-13.314h11.085z" fill="#49c8b3"/><path d="M66.907 55.714h24.756a2.621 2.621 0 0 0 2.623-2.614V26.907a2.621 2.621 0 0 0-2.621-2.621H66.907a2.621 2.621 0 0 0-2.621 2.621V53.1a2.621 2.621 0 0 0 2.621 2.614z" fill="#003631"/><path d="M113.714 2.857H83.951a4.62 4.62 0 0 0-3.277 1.363l-7.9 7.949a4.622 4.622 0 0 0-1.344 3.258v47.13a4.618 4.618 0 0 0 1.343 3.256l9.907 9.967a4.618 4.618 0 0 0 3.275 1.362h27.76a10.571 10.571 0 0 0 10.571-10.571V13.43a10.571 10.571 0 0 0-10.57-10.573z" fill="#008c74"/><path d="M184.524 77.143h35.239a5.953 5.953 0 0 0 5.951-5.953V8.81a5.953 5.953 0 0 0-5.953-5.953h-35.237a5.953 5.953 0 0 0-5.953 5.953v62.381a5.951 5.951 0 0 0 5.951 5.951z" fill="#0078d7"/><path d="M114.524 77.143h30.953a5.953 5.953 0 0 0 5.951-5.953V8.81a5.953 5.953 0 0 0-5.953-5.953h-30.951a5.953 5.953 0 0 0-5.953 5.953v62.381a5.951 5.951 0 0 0 5.951 5.951zm95.476-10V55.26a8.134 8.134 0 0 0-6.274-8.09 7.923 7.923 0 0 0-9.44 7.9v12.07zm-20-45.714h4.286V40H190zm21.429 2.857h4.286V40h-4.286z" fill="#003631"/><path d="M164.687 18.571h-33.638a3.68 3.68 0 0 1-3.631-2.683 3.571 3.571 0 0 1 3.464-4.46h33.638a3.68 3.68 0 0 1 3.631 2.683 3.571 3.571 0 0 1-3.464 4.46z" fill="#40c5af"/><path d="M139.79 15a3.571 3.571 0 0 1 3.571-3.571h-12.3a3.68 3.68 0 0 0-3.631 2.683 3.571 3.571 0 0 0 3.464 4.46h12.467A3.571 3.571 0 0 1 139.79 15z" fill="#fff"/><path d="M164.687 67.143h-33.638a3.68 3.68 0 0 1-3.631-2.683 3.571 3.571 0 0 1 3.463-4.46h33.639a3.68 3.68 0 0 1 3.631 2.683 3.571 3.571 0 0 1-3.464 4.46z" fill="#40c5af"/><path d="M139.79 63.571A3.571 3.571 0 0 1 143.361 60h-12.3a3.68 3.68 0 0 0-3.631 2.683 3.571 3.571 0 0 0 3.464 4.46h12.467a3.571 3.571 0 0 1-3.571-3.572zm54.619-7.024c-.076.45-.123-1.947-.123-1.474v12.07H210v-1.277z" fill="#fff"/><path d="M100 18.571h2.857v42.858H100zm-7.143 0h2.857v42.858h-2.857z" fill="#003631"/><path d="M241.429 18.571h2.857v42.858h-2.857zm-7.143 0h2.857v42.858h-2.857z" fill="#0078d7"/></svg>