<svg xmlns="http://www.w3.org/2000/svg" viewBox="0 0 169.375 150"><title>zerodata-charting-not-supported</title><path d="M141.406 150H4.844A4.844 4.844 0 0 1 0 145.156V37.344A4.844 4.844 0 0 1 4.844 32.5h136.562a4.844 4.844 0 0 1 4.844 4.844v107.812a4.844 4.844 0 0 1-4.844 4.844z" fill="#0078d7"/><path d="M76.25 87.5v-15h-2.5v15H32.5v18.75H35V90h38.75v15h2.5V90H115v16.25h2.5V87.5z" fill="#fff"/><path d="M61.25 50H90v22.5H61.25zM20 103.75h28.75v22.5H20zm41.25 0H90v22.5H61.25zm41.25 0h28.75v22.5H102.5z" fill="#69afe5"/><circle cx="134.375" cy="35" r="35" fill="#ffb900"/><path d="M134.239 56.354a3.325 3.325 0 0 1-2.419-.985 3.25 3.25 0 0 1-1-2.4 3.419 3.419 0 0 1 6.836 0 3.214 3.214 0 0 1-1.018 2.4 3.33 3.33 0 0 1-2.399.985zm3.125-43.854l-.6 32.5H132.5l-.566-32.5z" fill="#231f20"/></svg>