<svg xmlns="http://www.w3.org/2000/svg" viewBox="0 0 155.946 150"><title>zerodata-pull-request</title><path d="M130.849 106.88h-1.994V47.711c0-15.152-10.12-25.736-24.606-25.736H63.928v-2h40.33c15.657 0 26.594 11.407 26.594 27.74z" fill="#69afe5"/><path d="M70.483 12.622l1.363 1.463-7.216 6.7 7.216 6.715-1.363 1.46-8.783-8.17zM24.972 45.948h2v71.919h-2z" fill="#69afe5"/><circle cx="25.991" cy="25.991" r="25.991" fill="#69afe5"/><path d="M101.885 52.94v45.949h-5.993V109.8L85.215 98.889H69.159L58.934 109.8V98.889h-6.993V52.94h6.992V41.453L69.7 52.94z" fill="#bad80a"/><path d="M8.624 45.517a25.983 25.983 0 0 0 34.781-.042C39.562 45 32.118 44.23 28.759 43.95h-4.7c-3.882.325-12.073 1.144-15.435 1.567z" fill="#282828"/><path d="M25.484 43.016c-4.262 0-7.716 2.3-7.716 5.144a4.053 4.053 0 0 0 1.336 2.9 25.992 25.992 0 0 0 12.376.34 4.237 4.237 0 0 0 1.72-3.236c0-2.845-3.455-5.148-7.716-5.148z" fill="#bb9167"/><path d="M28.175 6.073a3.954 3.954 0 0 0-3.333-1.63A12.759 12.759 0 0 0 12.985 17.5v22.455h16.981v-.071c2.078.146 8.99.161 8.99-6.111V17.5c0-8.835-6.456-12.609-10.781-11.427z" fill="#282828"/><path d="M20.976 30.965h8.99v17.98h-8.99z" fill="#bb9167"/><path d="M20.976 32.957V39.5c0 .3 2.82.451 4.451.451a22.775 22.775 0 0 0 4.538-.5v-6.488z" fill="#8e562e"/><path d="M12.985 25.681a1.43 1.43 0 0 0 1.367 1.289H36.76a1.276 1.276 0 0 0 1.2-1.289V23.1a1.133 1.133 0 0 0-1.14-1.127H14.357a1.3 1.3 0 0 0-1.372 1.127z" fill="#bb9167"/><path d="M35.959 17.463v-.013a10.2 10.2 0 0 0-8.516-10.2 9.994 9.994 0 0 0-11.461 9.883v17.474a20.33 20.33 0 0 0 10.156 3.162 16.864 16.864 0 0 0 9.823-3.162V17.463z" fill="#bb9167"/><path d="M36.317 13.894c-.5-6.686-8.7-7.065-8.7-7.065-1.188-1.736-3.186-1.281-5.528.056q-.268.088-.527.2c-3.028 1.262-6.023 3.325-7.192 7.065-1.246 3.99 1.171 4.383 1.2 4.1.473-4.888 8.515-5.614 8.515-5.614a12.57 12.57 0 0 0-4.92 4.163c6.523-2.87 10.318-2.915 10.888-2.9l-2.184-6.564 3.63 7.082c4.349 1.591 4.224 6.746 4.223 6.731s1.101-.571.595-7.254z" fill="#282828"/><circle cx="25.991" cy="25.991" r="25.991" fill="none"/><path d="M14.542 20.777c12.624.573 16.066-6.656 16.066-6.656s.351 2.917 5.11 7.024a20.127 20.127 0 0 0 .4-10.467s-8.035-5.849-12.744-4.585-8.574 8.823-8.874 9.633.042 5.051.042 5.051z" fill="#282828"/><circle cx="25.991" cy="123.84" r="25.991" fill="#69afe5"/><path d="M11.986 123.313a1.69 1.69 0 0 0 1.587 1.546h25.992a1.508 1.508 0 0 0 1.389-1.546v-3.093a1.338 1.338 0 0 0-1.324-1.354H13.573a1.52 1.52 0 0 0-1.587 1.353zm9.989 12.534h9.989v11.986h-9.989z" fill="#f7d7c4"/><path d="M29.966 135.847h1v1h-1z" fill="#71563b"/><path d="M21.975 132.85v7.35a26.1 26.1 0 0 0 4.827.409 28.1 28.1 0 0 0 5.162-.511v-7.248z" fill="#d8b094"/><path d="M26.932 104.056A14.323 14.323 0 0 0 14.983 111v20.572a14.323 14.323 0 0 0 11.949 6.945 14.347 14.347 0 0 0 12.024-7.065v-20.328a14.347 14.347 0 0 0-12.024-7.068z" fill="#f7d7c4"/><path d="M38.956 120.076v-8.986a14.347 14.347 0 0 0-12.024-7.065 14.323 14.323 0 0 0-11.949 6.946v7.71c1.718-3.729 4.9-6.782 8.2-7.395 5.982 7.399 11.135 9.057 15.773 8.79z" fill="#282828"/><path d="M26.932 104.056A14.323 14.323 0 0 0 14.983 111v20.572a14.323 14.323 0 0 0 11.949 6.945 14.347 14.347 0 0 0 12.024-7.065v-20.328a14.347 14.347 0 0 0-12.024-7.068z" fill="none"/><path d="M45.094 141.912l-.251-.037c-3.381-.449-8.361-1.033-12.879-1.41v4.06c0 1.058-2.264 1.9-5.013 1.9s-4.976-.858-4.976-1.914v-3.954c-4.719.4-7.265.53-10.288.925q-.321.043-.641.092a15.3 15.3 0 0 0-2.644.551q-.14.04-.279.084l-.085.028c-.054.017-.108.039-.162.056a26.191 26.191 0 0 0 37.039-.193l.178-.182z" fill="#282828"/><circle cx="129.956" cy="123.839" r="25.991" fill="#69afe5"/><path d="M136.184 132.651c-.107-5.024-9.748-4.011-9.748.334 0 8.69-2.773 8.775-2.773 8.775l3.974 7.963c.765.068 1.537.109 2.32.109.587 0 1.168-.027 1.745-.065l7.929-9.052s-3.278-.208-3.447-8.064z" fill="#8e562e"/><path d="M129.954 150a25.927 25.927 0 0 0 19.795-9.157c-5.986.08-10.625-.085-10.625-.085-1.009.668-8.4 9.151-8.4 9.151l-5.757-9.068H115.3a8.259 8.259 0 0 0-4.287.955A25.912 25.912 0 0 0 129.954 150z" fill="#282828"/><path d="M136.257 133.785c-.3-2.6-10.535-3.459-10.1-1.289a14.227 14.227 0 0 1-.05 5.077 10.259 10.259 0 0 0 6.035 1.215 10.421 10.421 0 0 0 4.595-1.717c-.154-.746-.3-1.773-.475-3.286z" fill="#613d30"/><path d="M119.04 119.692c-.833 8.823 3.434 16.448 9.532 17.032s11.717-6.093 12.551-14.918-3.434-16.448-9.532-17.032-11.718 6.095-12.551 14.918z" fill="#8e562e"/><path d="M119.859 110.567a44.631 44.631 0 0 0 13.823 2.869c.363 3.261 1.326 9.2 1.326 9.2l1.7-2.374s2.636-.385 1.778 3.791a4.88 4.88 0 0 1-3.155 3.563l2.075 4.216a20.111 20.111 0 0 0 5.208-15.556c-1.045-9.32-5.2-8.334-5.2-8.334s-.917-3.955-5.993-4.595c-7.521-.938-11.562 7.22-11.562 7.22z" fill="#282828"/><path d="M61.93 73.629l11.986-5.735v2.864L64.927 74.6v.081l8.99 3.617v2.869L61.93 75.708zm18.979-5.87v2.881l8.99 3.848v.054l-8.99 3.593V81L92.9 75.535v-2.077z" fill="#505050"/></svg>