<svg xmlns="http://www.w3.org/2000/svg" viewBox="0 0 157.874 150"><defs><style>.a{fill:#231f20}.b{fill:#2488d8}.c{fill:#005a93}.d{fill:#b3d6f2}.e{fill:#fff}.f{fill:#69afe5}.g{fill:#737373}</style></defs><title>zerodata-release-management</title><path class="a" d="M93.703 136.781H76.891l2.053-8.855h12.705l2.054 8.855z"/><path class="b" d="M69.493 106.622c-8.47 3.08-13.24 8.088-13.475 19.635-.237 11.6 1.7 17.833 2.01 18.737H59.7c.689-1.877 5.473-13.847 16.464-16.684 9.105-2.348-6.671-21.688-6.671-21.688z"/><path class="c" d="M100.408 106.622c8.47 3.08 13.24 8.088 13.475 19.635.237 11.6-1.7 17.833-2.01 18.737H110.2c-.689-1.877-5.473-13.847-16.464-16.684-9.104-2.348 6.672-21.688 6.672-21.688z"/><path class="d" d="M24.891 88.581C10.464 85.681 0 72.6 0 57.455c0-15.12 10.439-28.085 24.629-31.069C26.97 11.418 39.781 0 54.722 0a30.159 30.159 0 0 1 25.642 14.405 30.451 30.451 0 0 1 13.526-3.169 31.314 31.314 0 0 1 29.189 20.792 28.811 28.811 0 0 1 18.173 54.289l-.442.187a26.528 26.528 0 0 1-8.525 2.334c-.243.028-.485.05-.723.07-3.741.329-8.8.392-16.828.392H30.942a26.1 26.1 0 0 1-6.051-.719z"/><path class="c" d="M98.867 65.722H70.716c-3.459 7.327-6.1 15.394-6.123 22.7-.055 20.274 9.88 38.4 10.873 40.254H95.1c0-1.012 9.685-19.871 9.74-40.145.016-7.331-2.603-15.443-5.973-22.809z"/><path class="b" d="M85.3 42.209s-9.8 11.725-14.547 23.513H98.9c-4.746-11.788-13.6-23.513-13.6-23.513z"/><path class="b" d="M98.867 65.722h-3.438c2.831 7.293 4.8 14.9 4.778 21.921-.044 16.368-5.226 31.975-8.735 41.037H95.1c0-1.012 9.685-19.871 9.74-40.145.016-7.335-2.603-15.447-5.973-22.813z"/><circle class="e" cx="84.994" cy="83.234" r="7.566"/><path class="f" d="M95.345 65.722H98.9c-4.746-11.788-13.6-23.513-13.6-23.513s-.8.954-2.039 2.583a120.527 120.527 0 0 1 12.084 20.93z"/><path class="g" d="M47.959 144.524V60.6h8.463l.354-.146 4.94-4.941-.11-.11h22.215v-1H47.959V32.791L36.863 43.7v40.964l-10.01 9.683v50.178H9.493V150h120.554v-5.476zm0-89.121h12.453l-4.2 4.2h-8.253zm-11.1 59.687v8.476l-8.4-8.476zm-8.215-1l8.215-8.285v8.285zm8.215 20.925v8.407l-8.408-8.407zm-8.2-1l8.2-8.2v8.2zm.152-38.851h8.046v8.046zm18.142-29.8v8.563l-8.49-8.563zm-8.3-1l8.3-8.372v8.372zm8.3 20.925v8.493l-8.493-8.493zm-8.284-1L46.959 76v8.284zm.394 39.851l7.89-8.314v8.314zm7.89 1v8.5l-8.272-8.5zM38.9 104.215l8.053-8.336v8.336zm8.053 1v8.5l-8.423-8.5zm-.944-10.962h-8.06v-8.069zm.159 1l-8.225 8.514v-8.518zm-.16 18.925h-8.059v-8.135zm.183 1l-8.247 8.69v-8.69zm-.173 18.922h-8.069v-8.287zm0 1l-8.068 8.278V135.1zm-7.789 9.425l8.73-8.957v8.957zm.6-99.089h8.132v8.132zm-.964-1.317l9.1-8.941v9.259h-9.1zm0 1.768l8.51 8.513h-8.512zm0 9.513h8.272l-8.272 8.343zm0 10.773l8.083 8.153h-8.085zm0 9.153h8.36l-8.36 8.36zm-1 10.731v8.11H28.48zm-9.01 9.56l8.512 8.513h-8.514zm0 9.513h8.272l-8.272 8.343zm0 10.773l8.083 8.153h-8.085zm0 9.153h8.36l-8.36 8.36zm0 10.774l8.7 8.7h-8.7z"/></svg>