<svg xmlns="http://www.w3.org/2000/svg" viewBox="0 0 150 150"><title>dayzero-charting-not-supported</title><path d="M120.125 132H10.875A3.875 3.875 0 0 1 7 128.125v-86.25A3.875 3.875 0 0 1 10.875 38h109.25A3.875 3.875 0 0 1 124 41.875v86.25a3.875 3.875 0 0 1-3.875 3.875z" fill="#0078d7"/><path fill="#fff" d="M68 82V70h-2v12H33v15h2V84h31v12h2V84h31v13h2V82H68z"/><path fill="#69afe5" d="M56 52h23v18H56zM23 95h23v18H23zM56 95h23v18H56zM89 95h23v18H89z"/><circle cx="115" cy="40" r="28" fill="#ffb900"/><path d="M114.891 57.083a2.66 2.66 0 0 1-1.935-.788 2.6 2.6 0 0 1-.8-1.922 2.735 2.735 0 0 1 5.469 0 2.571 2.571 0 0 1-.814 1.922 2.664 2.664 0 0 1-1.92.788zm2-35.083l-.48 26H113l-.453-26z" fill="#231f20"/></svg>