<svg xmlns="http://www.w3.org/2000/svg" viewBox="0 0 348.94 150"><defs><clipPath id="a"><path fill="none" d="M141.026 17.949h44.872v98.718h-44.872z"/></clipPath></defs><title>zerodata-configure-component-governance</title><path d="M106.41 33.333h33.333v79.487H106.41z" fill="#bea15f"/><path d="M345.092 150H123.66a4 4 0 0 1-4-3.158 3.847 3.847 0 0 1 3.786-4.535h221.428a4 4 0 0 1 4 3.158 3.849 3.849 0 0 1-3.782 4.535z" fill="#b2b2b2"/><path d="M334.349 144.872H133.6a4.112 4.112 0 0 1-4.112-4.112V4.112A4.112 4.112 0 0 1 133.6 0h200.75a4.112 4.112 0 0 1 4.112 4.112v136.65a4.114 4.114 0 0 1-4.113 4.11z" fill="#002f33"/><path d="M338.462 112.647V4.108A4.108 4.108 0 0 0 334.354 0H213.233z" fill="none"/><path d="M141.026 10.256h184.615v123.077H141.026z" fill="#a6a8ab"/><path d="M141.026 10.256h184.615v123.077H141.026zm188.461 64.333l5.128.641V70l-5.128.641z" fill="#106ebe"/><path d="M325.641 101.581V10.256H225.9z" fill="#2488d8"/><path d="M0 33.333h50V35.9H0zM10.256 43.59H50v2.564H10.256zm10.257 10.256H50v2.564H20.513z" fill="#69afe5"/><path d="M141.026 2.564h69.231v123.077h-69.231z" fill="none"/><path d="M305.128 18.621v11.2l6.319-9.074a8.313 8.313 0 0 0-3.364-1.729c-1.538-.191-2.955-.4-2.955-.4z" fill="#69afe5"/><circle cx="305.151" cy="29.823" r="11.203" fill="none" stroke="#69afe5" stroke-miterlimit="10"/><path d="M141.026 125.641h184.615v1.282H141.026zm8.974-5.128h1.282v5.128H150zm17.949 0h1.282v5.128h-1.282zm19.231 0h1.282v5.128h-1.282zm17.949 0h1.282v5.128h-1.282zm19.231 0h1.282v5.128h-1.282zm17.949 0h1.282v5.128h-1.282zm19.231 0h1.282v5.128h-1.282zm17.949 0h1.282v5.128h-1.282zm19.231 0H300v5.128h-1.282zm17.949 0h1.282v5.128h-1.282z" fill="#69afe5"/><g clip-path="url(#a)"><path d="M95.813 32.581s82.865-.71 83.675-.337l.512 77.564c.031 1.659-2.111 3.013-4.763 3.013l-79.083.049z" fill="#2488d8"/><path d="M180.769 114.1H97.436v-2.564h80.769V34.615H97.436v-2.564h83.333z" fill="#fff"/><path d="M153.846 60.256h-24.359V33.333h2.564v24.359h19.231V32.051h2.564z" fill="#fff"/></g><path d="M112.821 112.821H56.41V33.333h56.41z" fill="#937a47"/><path d="M108.695 37.179H57.4c-.529 0-.959-.573-.959-1.282s.428-1.282.959-1.282h51.295c.529 0 .959.573.959 1.282s-.428 1.282-.959 1.282z" fill="#82693c"/><path d="M94.872 58.974H73.077V33.333h21.795z" fill="#bea15f"/><path d="M86.538 73.408l-12.361 9.925h6.592v12.821h11.539V83.333H98.9z" fill="#303333"/></svg>