<svg xmlns="http://www.w3.org/2000/svg" viewBox="0 0 304.164 150"><title>zerodata-custom-rules</title><path d="M46.279 102.936h4.314v12.942h-4.314a1.744 1.744 0 0 1-1.569-1.67v-9.6a1.744 1.744 0 0 1 1.569-1.672z" fill="#99bcd7"/><path d="M251.445 150H51.363a3.694 3.694 0 0 1-3.7-2.9 3.565 3.565 0 0 1 3.58-4.162h200.085a3.694 3.694 0 0 1 3.7 2.9 3.565 3.565 0 0 1-3.583 4.162z" fill="#c8c8c8"/><path d="M56.054 72.345h18.489L61.325 42.931h-6.341z" fill="#ff8c00"/><path d="M62.611 46.46h-8.457a.588.588 0 0 1-.58-.686l3.751-22.391a.588.588 0 0 1 .567-.491.546.546 0 0 1 .588.471l4.706 22.391a.588.588 0 0 1-.575.706zm-7.765-1.177h7.036L57.97 26.652z" fill="#939393"/><path d="M198.841 82.786c-8.278-9.413-7.474-9.378-19.342-23.127-2.8-3.24-7.195 3.426-7.195 3.426l19.26 25.7 7.276-5.568zM90.175 59.693s-15.837 20.557-18.4 25.7v3.426h10.269l15.837-25.7z" fill="#d3e2ee"/><path d="M123.54 105.289v20h68.241v-20h47.063v31.767H61.182v-31.767z"/><path d="M243.595 92.992c-14.067-4.193-45.278-10.633-45.278-10.633s-4.343 3.8-6.043 2.1a233.678 233.678 0 0 1-15.635-19.537c-2.759-3.941 1.386-5.341 1.386-5.341l.733-.181c-75.765 0-88.091 1.177-88.091 1.177h88.469s-4.311-7.318-9.731-7.059h-68.83c-5.033-.259-9.937 6.143-9.937 6.143 3 .857 3.852 3.854 2.568 5.139-1.284 1.715-8.506 11.792-12.84 17.99a5.489 5.489 0 0 1-4.706 2.57s-16.337-.118-18.9 0c-7.476.332-7.341 17.131-7.341 17.131v11.135s1.367 14.925 8.453 18.762 16.928 2.223 17.428 2.223v-5.139a21.2 21.2 0 0 1 21.333-21.842 21.575 21.575 0 0 1 20.544 15.413l.855 2.141c.857 2.57 1.712 3.426 4.706 3.637h66.548c5.136-.21 5.992-3.637 5.992-3.637l.857-2.141a21.189 21.189 0 0 1 20.545-15.413c8.988 0 15.837 5.568 19.689 12.848 1.712 3.426 1.284 9.519 1.284 9.519h3.393a6.621 6.621 0 0 0 2.551-5.1s3.667-30.808 0-31.9z" fill="#99bcd7"/><path d="M79.077 129.04a17.632 17.632 0 0 0 17.549 17.56c9.413 0 17.12-8.137 17.12-17.559a17.336 17.336 0 0 0-34.669-.4q-.002.197 0 .399z" fill="#262729"/><path d="M96.684 140.583a10.328 10.328 0 0 0 1.981-.139 11.336 11.336 0 0 0 9.473-10.414 11.136 11.136 0 0 0-11.12-11.714 11.06 11.06 0 0 0-11.128 10.991 10.635 10.635 0 0 0 1.2 4.858 10.968 10.968 0 0 0 9.594 6.418z" fill="#babcbe"/><path d="M94.126 122.616a2.863 2.863 0 0 0 3 2.57 2.764 2.764 0 0 0 2.568-2.57 2.863 2.863 0 0 0-2.568-3 2.927 2.927 0 0 0-3 2.857q-.002.072 0 .143zm5.071 12.62a2.763 2.763 0 0 0-2.568-2.57 2.863 2.863 0 0 0-3 2.57 2.926 2.926 0 0 0 2.853 3h.143a2.863 2.863 0 0 0 2.575-3.001zm1.712-11.763a3.456 3.456 0 0 0-1.284 3.854 2.787 2.787 0 0 0 3.847.86h.005a2.368 2.368 0 0 0 1.284-3.426c-.856-1.289-2.567-2.145-3.852-1.289zm-8.988 11.134c1.284-.857 2.14-2.57 1.284-3.854a3.451 3.451 0 0 0-3.852-1.285 2.79 2.79 0 0 0-.858 3.851 2.694 2.694 0 0 0 3.426 1.287zm11.617-4.71a2.792 2.792 0 0 0-3.564 4.194 2.712 2.712 0 0 0 4.329-.2q.048-.071.092-.144a2.791 2.791 0 0 0-.855-3.853zm-14.186-1.712A3.451 3.451 0 0 0 93.2 126.9a2.79 2.79 0 0 0-.853-3.852 3.451 3.451 0 0 0-3.847 1.282 2.792 2.792 0 0 0 .852 3.854z" fill="none"/><path d="M94.126 129.04a2.863 2.863 0 0 0 3 2.57 2.764 2.764 0 0 0 2.568-2.57 2.863 2.863 0 0 0-2.568-3 2.927 2.927 0 0 0-3 2.857q-.002.072 0 .143z" fill="#fff"/><path d="M198.7 129.04a17.632 17.632 0 0 0 17.55 17.56c9.413 0 17.12-8.137 17.12-17.559a17.336 17.336 0 0 0-34.669-.4v.4z" fill="#262729"/><path d="M204.844 131.046a11.165 11.165 0 0 0 10.926 9.541h.082a11.135 11.135 0 1 0-11.128-11.279 11.772 11.772 0 0 0 .12 1.738z" fill="#babcbe"/><path d="M212.96 122.616a2.863 2.863 0 0 0 3 2.57 2.764 2.764 0 0 0 2.568-2.57 2.863 2.863 0 0 0-2.568-3 2.927 2.927 0 0 0-3 2.856q-.002.073 0 .144zm5.859 12.847a2.763 2.763 0 0 0-2.568-2.57 2.864 2.864 0 0 0-3 2.57 2.926 2.926 0 0 0 2.853 3h.144a2.864 2.864 0 0 0 2.571-3zm1.712-11.99a3.456 3.456 0 0 0-1.284 3.854 2.787 2.787 0 0 0 3.847.86h.005a2.368 2.368 0 0 0 1.285-3.426c-.857-1.285-2.568-2.141-3.852-1.285zm-8.989 11.134c1.284-.857 2.14-2.57 1.284-3.854a3.451 3.451 0 0 0-3.852-1.285 2.792 2.792 0 0 0-.857 3.854 2.7 2.7 0 0 0 3.425 1.284zm12.007-4.71a2.792 2.792 0 0 0-3 4.706c1.712.857 3.424.428 3.852-.857a2.788 2.788 0 0 0-.85-3.851h-.006zm-14.578-1.712a3.451 3.451 0 0 0 3.852-1.285 2.79 2.79 0 0 0-.853-3.852 3.451 3.451 0 0 0-3.852 1.285 2.79 2.79 0 0 0 .853 3.852z" fill="none"/><path d="M212.96 129.04a2.863 2.863 0 0 0 3 2.57 2.764 2.764 0 0 0 2.568-2.57 2.863 2.863 0 0 0-2.568-3 2.927 2.927 0 0 0-3 2.856q-.002.073 0 .144z" fill="#fff"/><path d="M243.55 93.644a3.481 3.481 0 0 1 3.53 3.432V108.655a3.8 3.8 0 0 1-3.53 3.532z" fill="#969696"/><path d="M128.25 84.963a3.837 3.837 0 0 1-3.819 3.854h-31.25a2.224 2.224 0 0 1-2.14-3.425l12.413-19.272a8.091 8.091 0 0 1 5.56-3c14.767-.024.4-.02 15.38 0a3.837 3.837 0 0 1 3.852 3.821v.033z" fill="#d3e2ee"/><path d="M247.08 97.347a6.684 6.684 0 0 1 3 5.568 5.942 5.942 0 0 1-3 5.139z" fill="#fff"/><path d="M136.482 99.917c-.1.615.377 1.1.992 1.842h8.561c.692-.6 1.244-1.15 1.037-1.842v-.428a1 1 0 0 0-1.037-1.259h-8.561a1.169 1.169 0 0 0-.992 1.259z" fill="#d2d2d2"/><path d="M138.01 88.817a3.865 3.865 0 0 1-3.88-3.849V66.815a3.865 3.865 0 0 1 3.847-3.883h25.7a9.056 9.056 0 0 1 6.036 3.02L186.094 85.8c1.293 1.726.431 3.02-1.293 3.02z" fill="#d3e2ee"/><path d="M131.776 89.994v32.836a1.285 1.285 0 0 0 1.285 1.285h53.9a1.135 1.135 0 0 0 1.288-1.285V89.994" fill="none"/><path d="M252.041 147.646H45.971L59.114 47.637h199.112l-6.185 100.009z" fill="none"/><path d="M64.8 44.107H43.253a.831.831 0 0 1-.9-.745V35.7a.9.9 0 0 1 1.251-.684l21.548 7.662a.775.775 0 0 1 .538.6.811.811 0 0 1-.892.829z" fill="#ff8c00"/><path d="M54.907 44.453l1.15-6.863-1.093-.6-1.244 7.431zM251.4 82.934a.772.772 0 0 1-.753-.6L239.285 33.8a.775.775 0 1 1 1.508-.353l11.357 48.532a.773.773 0 0 1-.755.951z" fill="#939393"/><path d="M243.8 34.882a5.211 5.211 0 0 1-7.089.8 2.831 2.831 0 0 1-.809-.812 5.177 5.177 0 0 1 1.793-7.728.631.631 0 0 0 .608.491H242a.373.373 0 0 0 .373-.373v-3.691a.64.64 0 0 0-.639-.64h-.534V5.28h-2.353v17.648h-.538a.639.639 0 0 0-.639.639V24.6c-4.371 1.4-6.989 6.764-3.611 11.855a3.9 3.9 0 0 0 1.086 1.086c4.105 2.726 8.36 1.548 10.6-1.3z" fill="#737373"/><path d="M40 12.34h21.182v4.706H40z" fill="#939393"/><path d="M14 51.119a5.753 5.753 0 0 1-1.425-8.011L35.184 10.7a5.755 5.755 0 0 1 9.436 6.589L22.014 49.7A5.755 5.755 0 0 1 14 51.119z" fill="#737373"/><path d="M8.236 141.918V48.557a8.488 8.488 0 0 1 8.018-8.616 8.236 8.236 0 0 1 8.451 8.015v93.964c.003 4.547-16.469 4.547-16.469-.002z" fill="#939393"/><circle cx="16.258" cy="48.339" r="5.755" fill="#737373"/><path d="M3.754 140.586h24.868L32.376 150H0z" fill="#505050"/><path d="M236.491 4.1h15.3v4.71h-15.3z" fill="#939393"/><path d="M290.572 78.491a5.755 5.755 0 0 0 2.444-7.763L258.109 3.081A5.755 5.755 0 0 0 247.9 8.4l34.905 67.653a5.755 5.755 0 0 0 7.763 2.437z" fill="#737373"/><path d="M296.5 142.2V73.827a8.488 8.488 0 0 0-8.018-8.615 8.236 8.236 0 0 0-8.451 8.015V142.2c0 4.552 16.472 4.552 16.472 0z" fill="#939393"/><circle cx="287.802" cy="73.896" r="5.755" fill="#737373"/><path d="M237.668 114.941v-4.664c0-6.905-7.178-15.3-15.3-17.554V70.264S251.15 76.46 258 80.328a16.94 16.94 0 0 1 8.05 10.842h2.178a1.5 1.5 0 0 1 1.528 1.406c.055 1.177.122 3.066.122 5.564 0 4.453-13.087 12-13.087 12l-3.425 7.295z" fill="#ff8c00"/><path d="M257.21 80.651a49.009 49.009 0 0 0-8.764-3.4l.439 2.631s8.707 6.97 10.842 8.325a14.907 14.907 0 0 0 4.656 1.275 16.707 16.707 0 0 0-7.173-8.831z" fill="#a6a6a6"/><path d="M225.572 95.476a.784.784 0 0 1-.18-.021.774.774 0 0 1-.574-.932l14.472-60.907a.775.775 0 0 1 1.507.359l-14.472 60.912a.774.774 0 0 1-.753.589z" fill="#939393"/><path d="M275.543 140.586h24.868l3.753 9.414h-32.376l3.754-9.413z" fill="#505050"/><path d="M59.991 29.5l.014.008v-3.049h1.177v-.353a7.345 7.345 0 0 1-1.32-.824h.144V15.87h-2.354v9.413H55.94a.64.64 0 0 0-.641.639v3.461a.6.6 0 0 0 .6.6h3.481a.631.631 0 0 0 .611-.483z" fill="#737373"/></svg>