<svg xmlns="http://www.w3.org/2000/svg" viewBox="0 0 161.019 151.925"><defs><clipPath id="a"><path fill="none" d="M1.15 80.992h157.569V150H1.15z"/></clipPath></defs><title>zerodata-no-charts</title><circle cx="33.546" cy="33.354" r="33.354" fill="#804097"/><path d="M14.128 60.465l19.226-27.494V0a33.346 33.346 0 0 0-19.226 60.465z" fill="#009bcc"/><path d="M32.664 33.962l.69-.991V0a33.332 33.332 0 0 0-30.5 46.383z" fill="#c8c5c6"/><path d="M32.685 33.929l.669-.958V0A33.354 33.354 0 0 0 2.579 20.966z" fill="#f58b1f"/><path d="M33.114 33.315l.24-.345V0a33.19 33.19 0 0 0-14.542 3.426z" fill="#ffcc05"/><circle cx="33.546" cy="33.354" r="16.677" fill="#fff"/><path d="M78.209 49.938h81.66V67.19h-81.66zm0-20.7h63.258v17.25H78.209zm0-20.7h33.354v17.247H78.209z" fill="#92d4e9"/><path d="M78.209 49.938h69.008V67.19H78.209zm0-20.7h37.955v17.25H78.209z" fill="#6dc6e2"/><path d="M78.209 49.938h27.6V67.19h-27.6zm0-20.7h10.352v17.25H78.209z" fill="#009bcc"/><path d="M78.209 8.533h21.853v17.252H78.209z" fill="#6dc6e2"/><path d="M78.209 8.533h3.45v17.252h-3.45z" fill="#009bcc"/><g clip-path="url(#a)"><path d="M158.719 93.625l-8.419 4.619h-6.456l-10.9 6.9h-12.18l-20.7-12.652H73.226l-13.419-7.951-5.751 2.169-7.284-.723-9.2.723-11.5-3.976L0 90.5v58.35h158.719V93.625z" fill="#c8c5c6"/><path d="M158.719 99.9l-8.415 4.095h-5.758l-12.294 6.9h-11.488l-20.7-11.5H73.226l-13.419-7.23-5.751 1.972-7.284-.657-9.2.657-11.5-3.615L0 97.578v51.272h158.719V99.9z" fill="#ffcc05"/><path d="M159.869 109.465l-12.484 4.881h-8.748l-15.868 5.437-10.733-1.61-16.776-1.017-22.935-13.884-11.232 1.742-13.654-8.643L35.8 99.978l-11.264-5.539L1.15 99.074V140.8l158.719 2.56v-33.895z" fill="#f58b1f"/><path d="M159.869 113.55l-12.483 4.25h-8.748l-15.868 4.727-10.733-1.4-16.776-.886-19.485-10.06-11.233 1.519-12.5-5.5-11.643 3.132-19.575-2.7L1.15 112.2v28.6l158.719 2.226V113.55z" fill="#009bcc"/><path d="M146.854 121.247l-5.115 6.689-5.9 1.18-12.2 7.083h-40.7l-6.769-10.351H41.91L30.932 117.8H0v33.35l161.019.775v-30.678z" fill="#006c63"/></g></svg>