<svg xmlns="http://www.w3.org/2000/svg" viewBox="0 0 190.366 150"><title>zerodata-no-variable-groups</title><path d="M128 45h7v8h-7zm40 0h7v8h-7z" fill="#333"/><path d="M137 0h44v46h-44z" fill="#008770"/><path d="M137 46h-15V0h15z" fill="#006761"/><path d="M146.571 30h2.089a11.743 11.743 0 0 1-3.409-8.594A11.844 11.844 0 0 1 148.467 13h-2.1a11.353 11.353 0 0 0-3.49 8.406A11.292 11.292 0 0 0 146.571 30zm23.739 0h-2.089a11.743 11.743 0 0 0 3.409-8.594A11.844 11.844 0 0 0 168.415 13h2.1A11.353 11.353 0 0 1 174 21.406 11.292 11.292 0 0 1 170.311 30zm-7.6-12.962c.434.185.634.463 1.249.463a1.2 1.2 0 0 0 1.15-1.243q0-.055-.009-.109c-.018-1-2.025-1.741-3.443-.074q-1.1 1.319-2.158 2.677l-.014-.047c-.964-3.154-1.667-3.7-1.667-3.7H153v2.074c1.629-1.482 2.519-1.148 3.111.333.372.931.73 2.153 1.317 3.9q-1.127 1.4-2.284 2.771c-.741.852-1.114.889-1.556.7s-.648-.463-1.278-.463a1.207 1.207 0 0 0-1.175 1.238q0 .057.008.113c.018 1 2.074 1.741 3.519.074.76-.877 2.006-2.431 3.017-3.7.3.865.658 1.845 1.095 2.963 1.519 3.889 4.371.741 5.519-.7.083-.1.157-.2.224-.3h-.632c-1.148 1.556-1.8 1.783-2.185.889a48.515 48.515 0 0 1-1.971-5.375c.562-.7 1.141-1.41 1.45-1.773.733-.852 1.095-.888 1.529-.7z" fill="#40c5af"/><path d="M128 96h7v8h-7zm39 0h7v8h-7z" fill="#333"/><path d="M136 51h44v46h-44z" fill="#008770"/><path d="M136 97h-15V51h15z" fill="#006761"/><path d="M146.164 80h2.089a12.563 12.563 0 0 1-.194-17h-2.1a11.851 11.851 0 0 0-.039 16.76q.121.122.246.24zm23.736 0h-2.089a12.563 12.563 0 0 0 .194-17h2.1a11.851 11.851 0 0 1 .039 16.76q-.121.122-.246.24zm-7.192-11.962c.434.185.634.463 1.249.463a1.2 1.2 0 0 0 1.15-1.243q0-.055-.009-.109c-.018-1-2.025-1.741-3.443-.074q-1.1 1.319-2.158 2.677l-.014-.047c-.964-3.154-1.667-3.7-1.667-3.7H153v2.074c1.629-1.482 2.519-1.148 3.111.333.372.931.73 2.153 1.317 3.9q-1.127 1.4-2.284 2.771c-.741.852-1.114.889-1.556.7s-.648-.463-1.278-.463a1.207 1.207 0 0 0-1.175 1.238q0 .057.008.113c.018 1 2.074 1.741 3.519.074.76-.877 2.006-2.431 3.017-3.7.3.865.658 1.845 1.095 2.963 1.519 3.889 4.371.741 5.519-.7.083-.1.157-.2.224-.3h-.632c-1.148 1.556-1.8 1.783-2.185.889a48.515 48.515 0 0 1-1.971-5.375c.562-.7 1.141-1.41 1.45-1.773.733-.851 1.095-.888 1.529-.7z" fill="#40c5af"/><path d="M72 96h7v8h-7zm39 0h7v8h-7z" fill="#333"/><path d="M80 51h44v46H80z" fill="#008770"/><path d="M80 97H65V51h15z" fill="#006761"/><path d="M90.254 80h2.089a12.563 12.563 0 0 1-.194-17h-2.1a11.851 11.851 0 0 0-.039 16.76q.121.122.246.24zm23.739 0H111.9a12.563 12.563 0 0 0 .2-17h2.1a11.851 11.851 0 0 1 .039 16.76q-.121.122-.246.24zM106.7 68.038c.434.185.634.463 1.249.463a1.2 1.2 0 0 0 1.15-1.243q0-.055-.009-.109c-.018-1-2.025-1.741-3.443-.074q-1.1 1.319-2.158 2.677l-.014-.047c-.964-3.154-1.667-3.7-1.667-3.7H97v2.074c1.629-1.482 2.519-1.148 3.111.333.372.931.73 2.153 1.317 3.9q-1.127 1.4-2.284 2.771c-.741.852-1.114.889-1.556.7s-.648-.463-1.278-.463a1.207 1.207 0 0 0-1.175 1.238q0 .057.008.113c.018 1 2.074 1.741 3.519.074.76-.877 2.006-2.431 3.017-3.7.3.865.658 1.845 1.095 2.963 1.519 3.889 4.371.741 5.519-.7.083-.1.157-.2.224-.3h-.632c-1.148 1.556-1.8 1.783-2.185.889a48.518 48.518 0 0 1-1.971-5.375c.562-.7 1.141-1.41 1.45-1.773.729-.859 1.091-.897 1.521-.711z" fill="#40c5af"/><path d="M3.017 150h184.332a3.085 3.085 0 0 0 3.017-3 3.017 3.017 0 0 0-3.017-3H3.017A2.958 2.958 0 0 0 0 146.9v.1a3.017 3.017 0 0 0 3.017 3z" fill="#b2b2b2"/><path d="M136 101h44v46h-44z" fill="#008770"/><path d="M136 147h-15v-46h15z" fill="#006761"/><path d="M145.961 131h2.089a12.563 12.563 0 0 1-.194-17h-2.1a11.851 11.851 0 0 0-.039 16.76q.121.122.246.24zm23.74 0h-2.089a12.563 12.563 0 0 0 .194-17h2.1a11.851 11.851 0 0 1 .039 16.76q-.121.122-.246.24zm-6.992-11.962c.434.185.634.463 1.249.463a1.2 1.2 0 0 0 1.15-1.243q0-.055-.009-.109c-.018-1-2.025-1.741-3.443-.074q-1.1 1.319-2.158 2.677l-.014-.047c-.964-3.154-1.667-3.7-1.667-3.7H153v2.074c1.629-1.482 2.519-1.148 3.111.333.372.931.73 2.153 1.317 3.9q-1.127 1.4-2.284 2.771c-.741.852-1.114.889-1.556.7s-.648-.463-1.278-.463a1.207 1.207 0 0 0-1.175 1.238q0 .057.008.113c.018 1 2.074 1.741 3.519.074.76-.877 2.006-2.431 3.017-3.7.3.865.658 1.845 1.095 2.963 1.519 3.889 4.371.741 5.519-.7.083-.1.157-.2.224-.3h-.632c-1.148 1.556-1.8 1.783-2.185.889a48.515 48.515 0 0 1-1.971-5.375c.562-.7 1.141-1.41 1.45-1.773.732-.853 1.095-.889 1.529-.7z" fill="#40c5af"/><path d="M81 101h44v46H81z" fill="#008770"/><path d="M81 147H66v-46h15z" fill="#006761"/><path d="M90.633 131h2.089a12.563 12.563 0 0 1-.194-17h-2.1a11.851 11.851 0 0 0-.039 16.76q.121.122.245.24zm23.74 0h-2.089a12.563 12.563 0 0 0 .194-17h2.1a11.851 11.851 0 0 1 .039 16.76q-.121.122-.245.24zm-6.673-11.962c.434.185.634.463 1.249.463a1.2 1.2 0 0 0 1.15-1.243q0-.055-.009-.109c-.018-1-2.025-1.741-3.443-.074q-1.1 1.319-2.158 2.677l-.014-.047c-.964-3.154-1.667-3.7-1.667-3.7H98v2.074c1.629-1.482 2.519-1.148 3.111.333.372.931.73 2.153 1.317 3.9q-1.127 1.4-2.284 2.771c-.741.852-1.114.889-1.556.7s-.648-.463-1.278-.463a1.207 1.207 0 0 0-1.175 1.238q0 .057.008.113c.018 1 2.074 1.741 3.519.074.76-.877 2.006-2.431 3.017-3.7.3.865.658 1.845 1.095 2.963 1.519 3.889 4.371.741 5.519-.7.083-.1.157-.2.224-.3h-.632c-1.148 1.556-1.8 1.783-2.185.889a48.518 48.518 0 0 1-1.971-5.375c.562-.7 1.141-1.41 1.45-1.773.729-.861 1.096-.898 1.521-.711z" fill="#40c5af"/><path d="M25 101h44v46H25z" fill="#008770"/><path d="M25 147H10v-46h15z" fill="#006761"/><path d="M35.305 131H37.4a12.563 12.563 0 0 1-.194-17H35.1a11.851 11.851 0 0 0-.039 16.76q.121.122.246.24zm23.74 0h-2.088a12.563 12.563 0 0 0 .194-17h2.1a11.851 11.851 0 0 1 .039 16.76q-.121.122-.246.24zm-7.337-11.962c.434.185.634.463 1.249.463a1.2 1.2 0 0 0 1.15-1.243q0-.055-.009-.109c-.018-1-2.025-1.741-3.443-.074q-1.1 1.319-2.158 2.677l-.014-.047c-.964-3.154-1.667-3.7-1.667-3.7H42v2.074c1.629-1.482 2.519-1.148 3.111.333.372.931.73 2.153 1.317 3.9q-1.127 1.4-2.284 2.771c-.741.852-1.114.889-1.556.7s-.648-.463-1.278-.463a1.207 1.207 0 0 0-1.175 1.238q0 .057.008.113c.018 1 2.074 1.741 3.519.074.76-.877 2.006-2.431 3.017-3.7.3.865.658 1.845 1.095 2.963 1.519 3.889 4.371.741 5.519-.7.083-.1.157-.2.224-.3h-.632c-1.148 1.556-1.8 1.783-2.185.889a48.518 48.518 0 0 1-1.971-5.375c.562-.7 1.141-1.41 1.45-1.773.729-.861 1.091-.898 1.529-.711z" fill="#40c5af"/></svg>