<svg xmlns="http://www.w3.org/2000/svg" viewBox="0 0 182.809 140"><title>zerodata-analytics-views-error</title><path d="M179.809,140H3.17a3.117,3.117,0,0,1-3.123-2.463A3,3,0,0,1,3,134H179.639a3.117,3.117,0,0,1,3.123,2.463A3,3,0,0,1,179.809,140Z" fill="#b2b2b2"/><rect x="1.036" y="10" width="179" height="105" fill="#cfe0ee"/><path d="M87.036,108h-76V80h76Zm-75-1h74V81h-74Z" fill="#99bcd7"/><rect x="11.036" y="21" width="93.659" height="55" fill="#99bcd7"/><rect x="16.036" y="84" width="49" height="4" fill="#9ecdec"/><rect x="16.036" y="92" width="49" height="4" fill="#9ecdec"/><rect x="16.036" y="99" width="49" height="4" fill="#9ecdec"/><path d="M.036,1.967V113.5c0,2.25,2.414,3.5,3.5,3.5H178.411a3.744,3.744,0,0,0,3.625-4V1.967A1.967,1.967,0,0,0,180.069,0H2A1.967,1.967,0,0,0,.036,1.967ZM176.069,113H6a1.967,1.967,0,0,1-1.967-1.967V13.967A1.967,1.967,0,0,1,6,12H176.069a1.967,1.967,0,0,1,1.967,1.967v97.066A1.967,1.967,0,0,1,176.069,113Z" fill="#99bcd7"/><rect x="5.036" y="5" width="47" height="4" fill="#cfe0ee"/><path d="M163.715,134.928a3.662,3.662,0,0,0-.938,2.305h-1.872c.17-.765-.087-1.37-1.541-.935Z" fill="#282828"/><path d="M163.545,132.372l.34,2.043c0,.6-.427.854-1.108,1.024L158,136.809a14.033,14.033,0,0,1-3.237.34h-2.819c-1.362,0-.851-.767-.594-.851a33.06,33.06,0,0,0,5.712-2.224C158.767,133.14,163.545,132.372,163.545,132.372Z" fill="#505050"/><path d="M162.948,130.667c0,.681.511,1.365.511,1.705.087.6-7.331,2.726-7.331,2.726-.17,0-1.278.084-.938-.087,1.7-.938,5.031-2.98,4.855-3.834Z" fill="#bb9167"/><path d="M171.389,134.928a3.662,3.662,0,0,0-.938,2.305h-1.872c.17-.765-.173-1.37-1.535-.935Z" fill="#505050"/><path d="M171.133,132.372l.433,2.043c0,.6-.433.854-1.114,1.024l-4.778,1.37a14.033,14.033,0,0,1-3.237.34h-2.819c-1.448,0-.938-.767-.594-.851a35.882,35.882,0,0,0,5.712-2.224C166.447,133.14,171.133,132.372,171.133,132.372Z" fill="#505050"/><path d="M170.622,130.667c0,.681.511,1.365.511,1.705.087.6-7.331,2.726-7.331,2.726-.257,0-1.365.084-.938-.087,1.7-.938,5.031-2.98,4.861-3.834Z" fill="#bb9167"/><path d="M156.638,108.4a2.562,2.562,0,0,0,2.726,2.392,2.568,2.568,0,1,0-.427-5.118A2.559,2.559,0,0,0,156.638,108.4Z" fill="#bb9167"/><path d="M156.638,108.057a2.563,2.563,0,1,0,5.118.257l2.556-18.507a4.063,4.063,0,0,0-4-4.267,4.123,4.123,0,0,0-4.437,3.84Z" fill="#bb9167"/><path d="M170.708,131.691c0,.765-2.813,1.021-2.9.17l-3.5-23.464a2.525,2.525,0,0,1,5.031-.424C170.538,115.227,169.514,122.05,170.708,131.691Z" fill="#bb9167"/><path d="M163.034,131.691c0,.765-2.813,1.021-2.9.17l-3.5-23.464a2.559,2.559,0,0,1,2.3-2.726,2.645,2.645,0,0,1,2.819,2.3C162.864,115.227,161.84,122.05,163.034,131.691Z" fill="#bb9167"/><path d="M164.312,108.4a2.526,2.526,0,1,0,5.031-.424,2.525,2.525,0,0,0-5.031.424Z" fill="#bb9167"/><path d="M164.312,108.057a2.571,2.571,0,0,0,2.392,2.732,2.461,2.461,0,0,0,2.64-2.475l2.648-18.507a4.066,4.066,0,0,0-4.01-4.267,4.123,4.123,0,0,0-4.437,3.84Z" fill="#bb9167"/><rect x="155.703" y="88.333" width="8" height="18" fill="#005a93"/><rect x="163.703" y="88.333" width="8" height="18" fill="#005a93"/><polygon points="163.449 91.333 154.756 91.333 156.612 78.417 154.538 65.632 156.444 59.333 163.703 59.333 163.703 89.14 163.449 91.333" fill="#0078d7"/><polygon points="164.04 91.333 172.652 91.333 170.876 78.417 174.029 63.933 170.959 59.333 163.703 59.333 163.703 89.14 164.04 91.333" fill="#0078d7"/><path d="M171.88,66.288a3.591,3.591,0,0,0-1.968-6.907,3.591,3.591,0,1,0,1.968,6.907Z" fill="#0078d7"/><path d="M161.244,53.637l5.458.427v5.288s-.34,6.48-2.556,6.48-2.562-6.48-2.562-6.48Z" fill="#bb9167"/><path d="M165.189,53.21c.17,2.735-.935,4.1-4.18,3.927l-.34-3.416Z" fill="#ab845f"/><path d="M158.661,51.516c-1.357-.409-.774-.843-.633-.971a17.033,17.033,0,0,0,1.706-2.087l.233-.421h0a2.741,2.741,0,0,0,2.347.124,4.044,4.044,0,0,1,.7,1.836c-.07.374-.161.674-.2.861-.046.457.645.082.645.082a3.576,3.576,0,0,1,1.262-.54c.471.4.167,1.813.04,2.294a.9.9,0,0,0-.21.5s-.407,1.978.812,2.522h0l-.023-.08c-2.01,1.018-4.5.4-5.685.294-1.2-.186-1.18-.724-1.18-.724C158.621,54.46,158.967,51.965,158.661,51.516Z" fill="#bb9167"/><path d="M163.668,47.328l-.325,1.336.023.08A9.317,9.317,0,0,0,163.018,50a4.044,4.044,0,0,0-.7-1.836,4.339,4.339,0,0,0,1.378-.75Z" fill="#ab845f"/><path d="M164.728,50.4c.33-.095.6-.084.692.246a1.973,1.973,0,0,1-.245,1.31c-.173.317-.29.527-.406.738C164.895,52.214,165.2,50.8,164.728,50.4Z" fill="#ab845f"/><path d="M164.558,53.2s-.407,1.978.812,2.522h0l.083-.024a5.964,5.964,0,0,0,4.318-1.958,5.3,5.3,0,0,1,.669.165,3.788,3.788,0,0,0,4.178-3.064,3.686,3.686,0,0,0-3.067-4.177c-.271-.012-.457-.046-.725-.059a7.307,7.307,0,0,0-1.432-1.891,6.917,6.917,0,0,0-2.4-1.267,5.786,5.786,0,0,0-4.44.3,2.724,2.724,0,0,0-3.1,1.867,2.825,2.825,0,0,0,.52,2.426h0a2.741,2.741,0,0,0,2.347.124,4.339,4.339,0,0,0,1.378-.75l-.024-.083-.847,3.53c-.046.457.645.082.645.082a3.576,3.576,0,0,1,1.262-.54c.33-.095.6-.084.692.246a1.973,1.973,0,0,1-.245,1.31c-.173.317-.29.527-.406.738A.9.9,0,0,0,164.558,53.2Z" fill="#665042"/><path d="M161.052,49.944c-.1-.06-.252.072-.333.1l-.071-.247c.033-.187.239-.423.425-.389a.381.381,0,0,1,.389.423.441.441,0,0,1-.094.291A.27.27,0,0,0,161.052,49.944Z"/><polygon points="163.703 63.533 163.703 82.297 165.924 68.991 167.116 63.192 165.321 59.182 165.235 60.46 163.703 63.533" fill="#d2d2d2"/><polygon points="163.703 63.533 163.703 82.297 161.741 69.675 160.123 63.619 162.425 59.266 162.338 60.29 163.703 63.533" fill="#fff"/><polygon points="161.246 57.393 160.905 58.842 159.875 64.3 162.524 59.266 161.246 57.393" fill="#d2d2d2"/><polygon points="165.42 59.182 166.534 57.477 167.131 58.842 167.385 63.533 165.42 59.182" fill="#fff"/><path d="M160.339,53.345s-.434.035-.785.048a1.408,1.408,0,0,1-.562-.106.383.383,0,0,1-.27-.01l-.164.047c.023.08.047.164.13.14h0a.37.37,0,0,0,.267.01c.19.035.354-.012.541.022A4.853,4.853,0,0,0,160.339,53.345Z" fill="#8a0000"/><path d="M160.339,53.345a4.657,4.657,0,0,0-.761.129,2.183,2.183,0,0,0-.621,0,.263.263,0,0,0-.187-.033c-.08.023-.164.047-.141.127a.085.085,0,0,0,.107.059h0a.666.666,0,0,1,.267.01,1.069,1.069,0,0,1,.517-.059Z" fill="#8a0000"/><path d="M166.874,70.78c0,.257-.17.34-.427.34a.311.311,0,0,1-.34-.34.366.366,0,0,1,.34-.34A.39.39,0,0,1,166.874,70.78Z" fill="#401467"/><path d="M164.142,82.473a.366.366,0,0,1-.34.34.353.353,0,1,1,0-.69A.37.37,0,0,1,164.142,82.473Z" fill="#004578"/><path d="M164.226,88.018a.366.366,0,0,1-.34.34.39.39,0,0,1-.427-.34.407.407,0,0,1,.427-.433A.4.4,0,0,1,164.226,88.018Z" fill="#004578"/><polygon points="171.703 91.333 164.142 91.333 163.802 89.38 163.545 91.333 155.703 91.333 155.703 92.333 171.703 92.333 171.703 91.333" fill="#004578"/><path d="M159.705,64.554a3.6,3.6,0,0,1-6.4-3.321,3.541,3.541,0,0,1,4.861-1.541A3.611,3.611,0,0,1,159.705,64.554Z" fill="#0078d7"/><polygon points="158.039 59.795 142.855 53.981 141.804 59.121 154.925 66.294 158.039 59.795" fill="#0078d7"/><polygon points="168.853 60.441 160.26 70.267 162.199 75.774 173.887 64.897 168.853 60.441" fill="#0078d7"/><path d="M157.934,75.155a2.611,2.611,0,1,1,4.772-2.12,2.611,2.611,0,0,1-4.772,2.12Z" fill="#0078d7"/><circle cx="123.203" cy="64.5" r="25.5" fill="#a80000"/><path d="M123.17,75.852a2.558,2.558,0,0,1-1.793-.677,2.148,2.148,0,0,1-.738-1.644,2.267,2.267,0,0,1,.738-1.705,2.6,2.6,0,0,1,3.56,0,2.255,2.255,0,0,1,.747,1.705,2.137,2.137,0,0,1-.747,1.644A2.544,2.544,0,0,1,123.17,75.852Zm1.951-25.559-.334,17.789h-3.34l-.457-17.789Z" fill="#fff"/><path d="M134.549,41.775s-.064-1.5-.6-1.753a.869.869,0,0,0-.759.053,1.262,1.262,0,0,0-.665-.533,3.426,3.426,0,0,0-.971.206.746.746,0,0,0-.553-.307,1.544,1.544,0,0,0-.815.346,1.08,1.08,0,0,0-1,.237,7.191,7.191,0,0,0-.967,1.781c-.157.445.753.675.753.675a.665.665,0,0,0,.491.593,1.118,1.118,0,0,0,.877-.3.689.689,0,0,0,.642.536c.272.039.693-.406.693-.406a.539.539,0,0,0,.537.379.99.99,0,0,0,.863-.576l.744-1.056Z" fill="#bb9167"/><path d="M146.715,81.3c-2.294,1.436-2.83,1.712-5.18,1.722-1.454-.032-1.865-.429-1.279-.815-1.367.479-2.376-.342-1.412-.679a.742.742,0,0,1-.794-.722c.048-.378.7-.335,1.023-.178-.223-.374-.1-1.048.981-1.065.887-.042,1.02-.177,1.02-.177-.922-.31-1.09-.792-.772-1.175,1.059.17,2.672-.122,3.965-.034a3.56,3.56,0,0,1,.7.206l5.768-2.112-.376,3.571Z" fill="#bb9167"/><polygon points="148.338 81.275 146.956 77.329 148.055 76.853 149.544 80.852 148.338 81.275" fill="#e6e6e6"/><polygon points="149.573 80.934 161.378 76.708 159.255 71.937 147.915 76.452 149.573 80.934" fill="#0078d7"/><path d="M32.4,63.093l4.849-4.351s.521-4.2.731-5,1.555-.541,1.456,1.041-.339,3.784-.339,3.784l.891-.192.494-4.941s3.211,1.383,3.3,2.592c.1,1.359-.7,4.155-2.051,4.882a13.719,13.719,0,0,1-1.609.78l-5.757,5.671Z" fill="#8e562e"/><path d="M33.937,61.347c-3.14,2.486-6.772,5.176-7.887,6.406-3.336,3.68,1.19,8.232,4.875,4.5,1.786-1.811,4.805-4.85,6.728-6.781Z" fill="#106ebe"/><path d="M40.508,72.743l5.628-3.282s1.359-4.007,1.725-4.746,1.633-.215,1.215,1.314-1.1,3.638-1.1,3.638l.911-.008,1.482-4.74s2.866,2,2.713,3.206c-.172,1.353-1.523,3.928-2.995,4.368a13.719,13.719,0,0,1-1.733.439l-6.784,4.391Z" fill="#8e562e"/><path d="M86.325,69l-47.066.351a3.078,3.078,0,0,1-3.223-2.688V31.114A3.353,3.353,0,0,1,39.259,28H86.325a2.9,2.9,0,0,1,2.711,2.58L88.66,66.663A2.336,2.336,0,0,1,86.325,69Z" fill="#0078d7"/><rect x="37.036" y="29" width="53" height="41" rx="3.045" ry="3.045" fill="#fff"/><path d="M30.154,91.332s4.6,17.878,4.67,20.688-4.362,22.52-4.362,22.52l-5.895-.432s2-17.19,2.356-19.156a10.931,10.931,0,0,0-.194-6,26.685,26.685,0,0,0-2.043-4.166s.411,7.282-1.345,11.427-8.85,19.776-8.85,19.776-5.2-1.514-5.2-3.129,5.268-14.61,5.97-17a29.418,29.418,0,0,0,.983-9.335c-.14-3.863-.07-7.3-.07-7.3a38.766,38.766,0,0,1,.65-8.8C17.488,86.957,30.154,91.332,30.154,91.332Z" fill="#004578"/><path d="M30.154,90.506s-13.727-3.353-14.389.112a14.12,14.12,0,0,0,.411,7.78s-.07,3.442.07,7.305a29.415,29.415,0,0,1-.983,9.335c-.7,2.388-5.97,15.383-5.97,17,0,.558.625,1.25,1.437,1.917,2.734-9.18,6.8-18.23,7.624-21.367,1.049-4,0-13.908,0-13.908s3.091,5.128,6.392,6.813a14.735,14.735,0,0,1,1.4,3.02c.773,2.107,1.124,2.739.773,4.706s-2.6,21.557-2.6,21.557l6.532-.632s4.355-19.8,4.285-22.611S30.154,90.506,30.154,90.506Z" fill="#005a93"/><path d="M24.148,133.444c0-.166.265-.469.419-.363a4.5,4.5,0,0,0,2.511,1.075c1.665,0,3.6-.607,3.853-1.249.173-.444,1.262-.009,2.372.579a28.555,28.555,0,0,0,4.827,1.606.533.533,0,0,1,.381.485v1.745a.434.434,0,0,1-.468.387H24.753a.547.547,0,0,1-.591-.487Z" fill="#613d30"/><path d="M8.873,132.668c0-.16.265-.614.419-.512a4.62,4.62,0,0,0,2.511,1.2c1.665,0,3.564-.332,4.374-1.257.3-.348.394-.1,1.5.463a34.438,34.438,0,0,0,5.174,1.7.518.518,0,0,1,.381.468v1.684a.429.429,0,0,1-.468.373H9.478a.542.542,0,0,1-.591-.47Z" fill="#613d30"/><polygon points="24.833 61.954 27.309 63.008 28.942 68.829 24.675 63.666 24.833 61.954" fill="#fff"/><rect x="19.37" y="54.667" width="6" height="9" fill="#8e562e"/><path d="M25.86,64.167c3.609,3.345,4.293,4.1,5.163,15.158a76.1,76.1,0,0,1-.307,13.342L15.43,92.64s-.869-2.739-.869-10.352c0-5.821.659-16.831,3.266-18.781S25.86,64.167,25.86,64.167Z" fill="#0078d7"/><path d="M36.386,76.758s-10-7.191-13.1-9.174c-4.182-2.68-7.921,2.539-3.626,5.553s9.852,7.054,12.709,8.9C36.731,84.859,40.244,79.44,36.386,76.758Z" fill="#106ebe"/><path d="M41.244,72.7c-3.577,1.8-6.552,2.937-7.892,3.916-4.01,2.931-.5,8.3,3.866,5.388,2.114-1.413,4.559-3.014,6.833-4.517Z" fill="#106ebe"/><polygon points="18.828 60.663 26.572 63.271 26.993 68.434 17.669 63.719 18.828 60.663" fill="#fff"/><path d="M45.127,71.035l2.952-4.886a1.254,1.254,0,0,1,.739,1.84c-.653,1.4-1.84,3.774-1.84,3.774Z" fill="#8e562e"/><path d="M25.37,60.348V54.667h-6v2.906A13.357,13.357,0,0,0,25.37,60.348Z" fill="#824923"/><path d="M27.212,46.754l.945,3.141s.652,1.27,1.371,2.46c.2.336-.118.54-.451.546s-.757.077-.724.551S28.532,55,28.532,55a7.7,7.7,0,0,1-2.265-.146,3.729,3.729,0,0,0,2.318.94,5.483,5.483,0,0,0,.257,1.057,1.316,1.316,0,0,1-1.211,1.737c-1.231.154-6.658-.086-9.557-2.231-3.21-2.375-.908-8.581,1.2-10.323S26.783,45.473,27.212,46.754Z" fill="#8e562e" fill-rule="evenodd"/><circle cx="25.87" cy="51.167" r="0.5" transform="translate(-31.389 54.126) rotate(-66.137)"/><path d="M27.412,47.417s1.4-1.28.4-2.129c-1.924-1.646-7.344-4.053-10.905-.3s-1.308,9.552,1.737,11.9c2.286-.98,1.63-3.614.485-4.815s-.592-2.091.025-2.379a1.706,1.706,0,0,1,1.969.643c.379.617.6,1.284,1.07,1.063l.781-.368a15.185,15.185,0,0,1-.743-3.644c.022-1.317,1.555-2.028,3.279-1.025C26.059,46.679,27.412,47.417,27.412,47.417Z" fill-rule="evenodd"/><polygon points="31.021 93.667 15.37 93.667 15.37 92.667 30.729 92.667 31.021 93.667" fill="#004578"/><path d="M86.7,110.341c-2.3,1.6-2.846,1.908-5.277,2.032-1.506.037-1.95-.354-1.362-.781-1.391.561-2.475-.239-1.493-.635a.768.768,0,0,1-.856-.708c.032-.393.7-.38,1.05-.233-.249-.377-.152-1.079.964-1.149.916-.086,1.047-.232,1.047-.232-.969-.276-1.166-.767-.856-1.179,1.1.125,2.758-.255,4.1-.227a3.688,3.688,0,0,1,.739.179l5.867-2.463-.217,3.713Z" fill="#a78563"/><path d="M92.98,90.132a11.033,11.033,0,0,1-1.031-5.545c.049-2.061-5.2,1.676-4.872,3.427.658,3.5-.454,3.747-.454,3.747l3.03,4Z" fill="#a78563"/><path d="M97.4,89.358c.939-.235,1.95,0,3.762,2.668a104.97,104.97,0,0,1,5.062,9.2c.889,1.71.581,3.01-1.266,4.788a31.933,31.933,0,0,1-2.36,2.155S99.655,91.41,97.4,89.358Z" fill="#106ebe"/><path d="M72.874,119.8c1.135-.206,13.955-3.1,13.955-3.1l16.52-1.872a9.308,9.308,0,0,1-1.288,6.432c-1.657,2.636-6.2,9.395-6.2,9.395s6.884-.766,11.584-1.186,1.733,4.925,1.733,4.925-10.137,1.748-15.232,2.827c-3.9.827-6.111-1-5.381-5.2.284-1.632.785-4.535,1.414-8.129C85.461,124.476,78.894,125,78.894,125l7.848,9.835-4.629,1.678s-8.139-8.314-10.7-10.875A3.347,3.347,0,0,1,72.874,119.8Z" fill="#005a93"/><path d="M84.5,105.533l2.09,11.247,16.76-1.951s-2.428-26.266-6.239-25.49c-2.432.5-4.343.78-4.343.78-.356.346-.674,1.249-3.1,1.7s-2.6-.6-2.6-.6l-3.9.731a2.65,2.65,0,0,0-2.538,2.639C80.5,95.718,84.5,105.533,84.5,105.533Z" fill="#0078d7"/><path d="M93.943,137.223c5.1-1.08,15.232-2.827,15.232-2.827a9.412,9.412,0,0,0,.525-1.175c-2.06.333-16.046,2.592-17.4,2.735-1.466.154-2.931-.077-2.391-3.857s1.311-7.252,1.234-7.714-.322-.9-1.164-.488c-.629,3.595-1.13,6.5-1.414,8.129C87.832,136.22,90.041,138.05,93.943,137.223Z" fill="#004578"/><path d="M98.623,123.766c-2.391,4.089-4.166,6.634-4.32,6.943-.105.211.906.061,1.557-.054.017-.026,4.548-6.763,6.2-9.393a9.308,9.308,0,0,0,1.288-6.432l-1.082.123C102.364,117.787,100.831,119.99,98.623,123.766Z" fill="#004578"/><path d="M94.92,121.529a14.071,14.071,0,0,1-4.089,1.157c-2.391.309-9.643.926-11.495,1.157s-2.469.463-1.851,1.466c.558.907,6.724,8.556,7.9,10.018l1.353-.49L78.894,125s6.567-.524,11.082-1.106l-.038.217A8.448,8.448,0,0,0,94.92,121.529Z" fill="#004578"/><path d="M86.114,134.026s1.061,1.4,1.979,2.4.826,2.919-1.561,2.919H76.343s-1.285-2.189.459-2.827a34.923,34.923,0,0,0,3.954-1.454C86.055,135.936,86.114,134.026,86.114,134.026Z" fill="#737373"/><path d="M107.34,129.455c.7-.809,2.895-2.045,3.568-1.171,1.447,1.879,6.615,7.42,6.615,7.42s-1.118,1.786-2.764.949c-.438-.223-5.584-2.258-5.584-2.258A4.621,4.621,0,0,0,107.34,129.455Z" fill="#737373"/><polygon points="86.59 116.781 102.75 116.399 102.943 114.817 86.59 116.781" fill="#004578"/><path d="M101.16,92.026a11.227,11.227,0,0,0-1.587-1.939,106.1,106.1,0,0,1,5.684,11.385,3.6,3.6,0,0,1-.617,3.317c-.39.468-1.548,1.529-2.264,2.173.141.756.221,1.209.221,1.209a31.932,31.932,0,0,0,2.36-2.155c1.847-1.779,2.155-3.078,1.266-4.788A104.967,104.967,0,0,0,101.16,92.026Z" fill="#005a93"/><path d="M103.386,114.8s-1.543-14.6-3.105-19.595c-1.4-4.475.289,4.224.868,8.679s1.061,11.032,1.061,11.032Z" fill="#005a93"/><path d="M85.874,91.5l.984-1.1L92.47,89.07l1.62.868A7.191,7.191,0,0,1,90.5,91.905,8.835,8.835,0,0,1,85.874,91.5Z" fill="#005a93"/><path d="M80.813,95.251c-.376.143-.74.288-1.425.554a1.487,1.487,0,0,1-1.542-.143c-.272-.262-.6-.549-.884-.868a1.323,1.323,0,0,1-.336-1.309c.052-.393.846-.305,1.068-1.233a1.059,1.059,0,0,0-.636-1.273c-.391-.165-1.481-.684-1.851-.772a.848.848,0,0,0-1,.495c-.161.332-.342.74-.715,1.544a1.136,1.136,0,0,1-1.228.806c-.386-.008-.613,0-1.1,0a1.035,1.035,0,0,1-1.011-.463c-.173-.324-.734-1.194-1.114-1.809a.726.726,0,0,0-1.09-.3c-.288.135-.783.379-1.154.559a.727.727,0,0,0-.415.919c.114.422.416,1.319.617,1.958a1.136,1.136,0,0,1-.274,1.3s-.372.345-.788.721a1.367,1.367,0,0,1-1.242.322c-.422-.061-1.094-.262-1.771-.423s-.993.174-1.084.523-.424,1.507-.543,1.875.347.926.984,1.215c.4.183.692-.307,1.172-.057a1.153,1.153,0,0,1,.693,1.01c.07.552.065.759.109,1.264a1.143,1.143,0,0,1-.654,1.191c-.48.254-.974.489-1.622.818a.741.741,0,0,0-.411,1.023c.2.463.856,1.868,1.046,2.3a.81.81,0,0,0,1.056.494c.448-.176.614-1.446,1.186-1.678a1.114,1.114,0,0,1,1.346.317c.352.374.918.854.918.854a1.066,1.066,0,0,1,.326,1.293c-.141.493-.262,1-.476,1.682a1.79,1.79,0,0,0,.75,1.871c.5.244.724.41,1.157.608.575.262.718-.952.877-1.322s.431-.974.718-1.651a1.258,1.258,0,0,1,1.241-.769,5.875,5.875,0,0,1,1.076.026c.571.073.811.085,1.151.624.211.336.393.621.9,1.428.312.494.6.655,1.1.441a12.47,12.47,0,0,0,1.408-.654.751.751,0,0,0,.268-1.008c-.125-.347-.291-.761-.608-1.589a1.136,1.136,0,0,1,.279-1.442c.275-.271.49-.5.832-.856a1.121,1.121,0,0,1,1.126-.252c.421.093,1.216.219,1.922.376a.726.726,0,0,0,.974-.572c.1-.3.274-.826.4-1.217a.727.727,0,0,0-.37-.938c-.382-.212-1.235-.621-1.834-.923a.988.988,0,0,1-.638-1.066l-.013-1.06a1.066,1.066,0,0,1,.7-1.135c.452-.243.884-.446,1.52-.767s.647-.523.472-1.053-.268-.8-.428-1.247A.868.868,0,0,0,80.813,95.251Zm-6.694,9.039a4.049,4.049,0,1,1,1.333-5.568A4.049,4.049,0,0,1,74.119,104.29Z" fill="#c78e00"/><path d="M81.611,78.494a9.812,9.812,0,0,0,.473,4.038c.116.55-.09.887-.492,2.575-.066.279.839.318.839.318a18.514,18.514,0,0,0,.977,3.124c.506,1.011,1.067,1.18,2.415.955s4.883-1.43,5.894-2.835.9-6.827.9-6.827L86.049,77.2Z" fill="#a78563"/><path d="M87.234,89.128s3.066-1.389,4.224-2.951c.34-.458-.164,1.747-1.1,2.517a11.4,11.4,0,0,1-3.066,1.446Z" fill="#967150"/><path d="M81.1,78.627c-.116,1.128.81,1.446,1.938,1.88a2.578,2.578,0,0,1,1.389,2.343c.116.752,1.157.55,1.157.55a5.453,5.453,0,0,1,.116-2.083c.289-.608,1.475-.579,1.244,1.013s-.029,2.661.984,3.385a4.947,4.947,0,0,0,4.05.492c.81-.289,1.967-4.484.608-7.377s-5.93-4.86-8.361-3.443A7.244,7.244,0,0,0,81.1,78.627Z" fill="#665042"/><path d="M92.179,80.034a63.411,63.411,0,0,1-11.735-.886s.107-6.1,5.314-6.047c1.888.021,5.59.4,5.752.949A13.823,13.823,0,0,1,92.179,80.034Z" fill="#005a93"/><path d="M86.279,79.871a9.209,9.209,0,0,0,3.934-.694,7.747,7.747,0,0,0,2.141-1.041,30.252,30.252,0,0,1,3.529.636c1.389.463-.878,2.494-4.86,2.2A12.874,12.874,0,0,1,86.279,79.871Z" fill="#0078d7"/><path d="M81.813,96.269c-.376.143-.74.288-1.425.554a1.487,1.487,0,0,1-1.542-.143c-.272-.262-.6-.549-.884-.868a1.323,1.323,0,0,1-.336-1.309c.052-.393.171-.715.393-1.643.136-.568.052-.885-.453-1.1a11.167,11.167,0,0,0-1.36-.537.848.848,0,0,0-1,.495c-.161.332-.342.74-.715,1.544a1.136,1.136,0,0,1-1.228.806c-.386-.008-.613,0-1.1,0a1.035,1.035,0,0,1-1.011-.463c-.173-.324-.734-1.194-1.114-1.809a.726.726,0,0,0-1.09-.3c-.288.135-.783.379-1.154.559a.727.727,0,0,0-.415.919c.114.422.416,1.319.617,1.958a1.136,1.136,0,0,1-.274,1.3s-.372.345-.788.721a1.367,1.367,0,0,1-1.242.322c-.422-.061-1.094-.262-1.771-.423s-.993.174-1.084.523-.307.953-.426,1.321a.78.78,0,0,0,.513.918c.4.19,1.065.554,1.526.794a1.153,1.153,0,0,1,.693,1.01c.07.552.065.759.109,1.264a1.143,1.143,0,0,1-.654,1.191c-.48.254-.974.489-1.622.818a.741.741,0,0,0-.411,1.023c.2.463.4.855.591,1.286a.81.81,0,0,0,1.056.494c.448-.176,1.068-.433,1.64-.665a1.114,1.114,0,0,1,1.346.317c.352.374.918.854.918.854a1.066,1.066,0,0,1,.326,1.293c-.141.493-.268.853-.482,1.533s-.017.962.485,1.206.671.322,1.1.52a.868.868,0,0,0,1.2-.42c.159-.369.431-.974.718-1.651a1.258,1.258,0,0,1,1.241-.769,5.875,5.875,0,0,1,1.076.026c.571.073.811.085,1.151.624.211.336.393.621.9,1.428.312.494.6.655,1.1.441a12.47,12.47,0,0,0,1.408-.654.751.751,0,0,0,.268-1.008c-.125-.347-.291-.761-.608-1.589a1.136,1.136,0,0,1,.279-1.442c.275-.271.49-.5.832-.856a1.121,1.121,0,0,1,1.126-.252c.421.093,1.216.219,1.922.376a.726.726,0,0,0,.974-.572c.1-.3.274-.826.4-1.217a.727.727,0,0,0-.37-.938c-.382-.212-1.235-.621-1.834-.923A.988.988,0,0,1,80.7,102.1l-.013-1.06a1.066,1.066,0,0,1,.7-1.135c.452-.243.884-.446,1.52-.767s.647-.523.472-1.053-.268-.8-.428-1.247A.868.868,0,0,0,81.813,96.269ZM74.7,105.308a4.049,4.049,0,1,1,1.333-5.568A4.049,4.049,0,0,1,74.7,105.308Z" fill="#ffcb40"/><path d="M68.6,105.876c-2.739-.6-3.336-.783-5.083-2.478-1.053-1.077-1.07-1.669-.356-1.53-1.359-.636-1.511-1.974-.553-1.526a.768.768,0,0,1-.065-1.109c.309-.245.758.256.886.609.106-.439.687-.847,1.5-.077.687.612.883.608.883.608-.458-.9-.233-1.376.28-1.43.661.893,2.066,1.845,2.96,2.847a3.688,3.688,0,0,1,.373.663l5.8,2.616-2.865,2.371Z" fill="#a78563"/><path d="M81.7,110.932c-.774,1-2.121,1.573-4.994.068-2.037-1.067-7.969-4.617-7.969-4.617l1.881-3.8,7.867,3.694s1.733-9.006,2.155-11.8c.889-5.883,6.635,3.591,3.862,11.053C82.921,109.779,82.177,110.316,81.7,110.932Z" fill="#005a93"/><path d="M81.844,109.031A28.815,28.815,0,0,0,84.7,100.2c.037-.964.012-2.184-.025-3.194-1.111-3.952-3.489-6.139-4.035-2.524-.422,2.794-2.155,11.8-2.155,11.8l-7.867-3.694L69.1,105.642c1.876.984,9.037,4.742,9.54,5.009C79.221,110.96,80.725,111,81.844,109.031Z" fill="#106ebe"/><path d="M43.036,60.315V53.108a3.037,3.037,0,0,1,2.034-3.1c4.633-.056,2.966,1.109,2.966,2.949v7.5c0,1.84,0,3.187-2.966,2.949A3.037,3.037,0,0,1,43.036,60.315Z" fill="#f0ae00"/><path d="M45.036,60.327V53.12a3.037,3.037,0,0,1,2.034-3.1c1.586-.344,2.966,1.109,2.966,2.949v7.5c0,1.84-1.381,3.293-2.966,2.949A3.037,3.037,0,0,1,45.036,60.327Z" fill="#ffcb40"/><path d="M54.036,60.315V44.108a3.037,3.037,0,0,1,2.034-3.1c4.633-.056,2.966,1.109,2.966,2.949v16.5c0,1.84,0,3.187-2.966,2.949A3.037,3.037,0,0,1,54.036,60.315Z" fill="#f0ae00"/><path d="M56.036,60.327V44.12a3.037,3.037,0,0,1,2.034-3.1c1.586-.344,2.966,1.109,2.966,2.949v16.5c0,1.84-1.381,3.293-2.966,2.949A3.037,3.037,0,0,1,56.036,60.327Z" fill="#ffcb40"/><path d="M65.036,60.315V49.108a3.037,3.037,0,0,1,2.034-3.1c4.633-.056,2.966,1.109,2.966,2.949v11.5c0,1.84,0,3.187-2.966,2.949A3.037,3.037,0,0,1,65.036,60.315Z" fill="#f0ae00"/><path d="M67.036,60.327V49.12a3.037,3.037,0,0,1,2.034-3.1c1.586-.344,2.966,1.109,2.966,2.949v11.5c0,1.84-1.381,3.293-2.966,2.949A3.037,3.037,0,0,1,67.036,60.327Z" fill="#ffcb40"/><path d="M76.036,60.315V37.108a3.037,3.037,0,0,1,2.034-3.1c4.633-.056,2.966,1.109,2.966,2.949v23.5c0,1.84,0,3.187-2.966,2.949A3.037,3.037,0,0,1,76.036,60.315Z" fill="#f0ae00"/><path d="M78.036,60.327V37.12a3.037,3.037,0,0,1,2.034-3.1c1.586-.344,2.966,1.109,2.966,2.949v23.5c0,1.84-1.381,3.293-2.966,2.949A3.037,3.037,0,0,1,78.036,60.327Z" fill="#ffcb40"/></svg>