<svg xmlns="http://www.w3.org/2000/svg" viewBox="0 0 280 150"><defs><style>.a{fill:#5b362b;}.b{fill:#8e562e;}.c{fill:#666;}.d{fill:#613d30;}.e{fill:#b27042;}.f{fill:#c78e00;}.g{fill:#ffb900;}.h{fill:#e6e6e6;}.i{fill:#fff;}.j{fill:#939393;}.k{fill:#107c10;}.l{fill:#91a80a;}.m{fill:#3c3c3c;}</style></defs><title>zerodata-you-have-no-project</title><path class="a" d="M256.9,145.5H95.1a7.127,7.127,0,0,1-7.1-7.1V30.6a7.127,7.127,0,0,1,7.1-7.1H256.9a7.127,7.127,0,0,1,7.1,7.1V138.4A7.127,7.127,0,0,1,256.9,145.5Z"/><path class="b" d="M251.9,145.5H90.1a7.127,7.127,0,0,1-7.1-7.1V30.6a7.127,7.127,0,0,1,7.1-7.1H251.9a7.127,7.127,0,0,1,7.1,7.1V138.4A7.127,7.127,0,0,1,251.9,145.5Z"/><path class="b" d="M251.9,145.5H90.1a7.127,7.127,0,0,1-7.1-7.1V30.6a7.127,7.127,0,0,1,7.1-7.1H251.9a7.127,7.127,0,0,1,7.1,7.1V138.4A7.127,7.127,0,0,1,251.9,145.5Z"/><path class="c" d="M143,25.5V14.7a4.225,4.225,0,0,1,4.2-4.2h44.7a4.225,4.225,0,0,1,4.2,4.2V25.5h4V14.7a8.237,8.237,0,0,0-8.2-8.2H147.4a8.237,8.237,0,0,0-8.2,8.2V25.5Z"/><path class="d" d="M190.8,12.5H148.2a2.22,2.22,0,0,1-2.2-2.2V6.7a2.22,2.22,0,0,1,2.2-2.2h42.6A2.22,2.22,0,0,1,193,6.7v3.6A2.22,2.22,0,0,1,190.8,12.5Z"/><path class="e" d="M251.9,23.5H90.1a7.148,7.148,0,0,0-5.8,3H250a5.764,5.764,0,0,1,6,6V144.2a7.148,7.148,0,0,0,3-5.8V30.6A7.127,7.127,0,0,0,251.9,23.5Z"/><path class="d" d="M259,52.5l-88,27-88-27v3.7l87.2,26.7.8.3,88-27Z"/><path class="a" d="M179.7,97.5H166.2a5.335,5.335,0,0,1-5.3-5.3V73.8a5.335,5.335,0,0,1,5.3-5.3h13.5a5.335,5.335,0,0,1,5.3,5.3V92.3A5.316,5.316,0,0,1,179.7,97.5Z"/><path class="f" d="M177.7,97.5H164.2a5.335,5.335,0,0,1-5.3-5.3V73.8a5.335,5.335,0,0,1,5.3-5.3h13.5a5.335,5.335,0,0,1,5.3,5.3V92.3A5.316,5.316,0,0,1,177.7,97.5Z"/><path class="g" d="M177.7,68.5h-2a5.335,5.335,0,0,1,5.3,5.3V92.3a5.335,5.335,0,0,1-5.3,5.3h2a5.335,5.335,0,0,0,5.3-5.3V73.8A5.335,5.335,0,0,0,177.7,68.5Z"/><path class="g" d="M183,82.5V72.8a5.335,5.335,0,0,0-5.3-5.3H164.2a5.335,5.335,0,0,0-5.3,5.3v9.7Z"/><path class="d" d="M130.1,60,115,45.5H72.6A3.585,3.585,0,0,0,69,49.1v92.7a3.585,3.585,0,0,0,3.6,3.6h65.8a3.585,3.585,0,0,0,3.6-3.6V71.5C139.2,68.7,134.8,64.5,130.1,60Z"/><path class="h" d="M114,45.5H71.6A3.585,3.585,0,0,0,68,49.1v92.7a3.585,3.585,0,0,0,3.6,3.6h65.8a3.585,3.585,0,0,0,3.6-3.6V71.5Z"/><path class="i" d="M114,45.5V67.2a4.268,4.268,0,0,0,4.3,4.3H141C135,65.5,121,52.5,114,45.5Z"/><path class="j" d="M129,82.5H80v3h49Z"/><path class="j" d="M129,92.5H80v3h49Z"/><path class="j" d="M129,102.5H80v3h49Z"/><path class="j" d="M129,112.5H80v3h49Z"/><path class="k" d="M7.6,145.5h85a2.433,2.433,0,0,0,2.4-2.4V38.6c0-1.2-3.4-1.7-4.3-.6L6.7,143.6A1.146,1.146,0,0,0,7.6,145.5Zm29.8-14a.529.529,0,0,1-.4-.9L77,81.5a.528.528,0,0,1,1,.2v48.6a1.11,1.11,0,0,1-1.1,1.1H37.4Z"/><path class="l" d="M5.6,145.5h85a2.433,2.433,0,0,0,2.4-2.4V38.4c0-1.2-1.4-1.5-2.2-.5L4.7,143.6A1.146,1.146,0,0,0,5.6,145.5Zm29.8-14a.529.529,0,0,1-.4-.9L75,81.5a.528.528,0,0,1,1,.2v48.6a1.11,1.11,0,0,1-1.1,1.1H35.4Z"/><path class="m" d="M173.1,141.4h-2.7v-1.8h2.8a.876.876,0,0,1,.9.8A1.071,1.071,0,0,1,173.1,141.4Z"/><path class="j" d="M171.1,138.9,160,135.5v10l11.1-3.4Z"/><path class="g" d="M92,133.5H81v1H92Z"/><path class="f" d="M92,134.5H81v1H92Z"/><path class="g" d="M78,135.5v10h82v-10Z"/><path class="f" d="M160,141.5H78v4h82Z"/><path class="g" d="M75,135.5H68.9a.9.9,0,0,0-.9.9v8.1a.9.9,0,0,0,.9.9H75Z"/><path class="f" d="M68,141.5v3.1a.9.9,0,0,0,.9.9H75v-4Z"/><path class="m" d="M78,136.5H75v8h3Z"/></svg>