<svg xmlns="http://www.w3.org/2000/svg" viewBox="0 0 177.6 150"><defs><style>.a{fill:#235a89}.b{fill:#69afe5}.c{fill:#fff}.d{fill:#505050}</style></defs><title>zerodata-this-repository-has-no-tags-yet</title><path class="a" d="M177.6 20.308v122.517c0 3.963-3.488 7.175-7.792 7.175H7.792C3.488 150 0 146.787 0 142.825V7.175C0 3.213 3.488 0 7.792 0h56.127c2.464 0 4.181.3 6.241 2.9s6.025 7.4 6.025 7.4c1.891 2.6 3.776 2.9 6.241 2.9h87.432c4.275 0 7.742 3.182 7.742 7.108z"/><path class="b" d="M177.6 22.775v120.05c0 3.963-3.489 7.175-7.792 7.175H7.792C3.488 150 0 146.787 0 142.825V35.908C0 31.982 3.466 28.8 7.743 28.8h57.432c2.464 0 4.35-.3 6.241-2.9 0 0 3.965-4.8 6.025-7.4s3.776-2.9 6.241-2.9h86.127c4.302 0 7.791 3.213 7.791 7.175z"/><path class="c" d="M44.338 71.8h-2v-2h2zm-4.676 33.6h2v-2h-2zm-3.862-4.138h-2v2h2zm0-4h-2v2h2zm7.862 8.138h2v-2h-2zm12 0h2v-2h-2zm.676-35.6h-2v2h2zm-4.676 35.6h2v-2h-2zm.676-35.6h-2v2h2zm-4 0h-2v2h2zm-.676 35.6h2v-2h-2zm-12 0h2v-2h-2zm66.169-26.533l1.479-1.347-1.347-1.479-1.479 1.347zm-2.693-2.957l1.479-1.347-1.347-1.479-1.479 1.347zm5.386 5.915L106 80.478 104.656 79l-1.479 1.347zM35.8 93.262h-2v2h2zm74.11-5.522l1.479-1.347-1.347-1.479-1.479 1.347zM34.8 71.8h1.538v-2H33.8v1.462h1zm72.417 12.982l1.479-1.347-1.347-1.479-1.478 1.344zm-71.417.48h-2v2h2zm0 4h-2v2h2zm0-16h-2v2h2zm0 4h-2v2h2zm0 4h-2v2h2zM40.338 69.8h-2v2h2zm51.324 35.6h2v-2h-2zm.676-35.6h-2v2h2zm4.107 3.152l1.479-1.347-1.645-1.805h-1.941v2H95.4zM87.662 105.4h2v-2h-2zm7.449-1.687l.551.521v1.166h.607l1.548-1.64-1.454-1.373zM88.338 69.8h-2v2h2zm12.145 28.225l1.454 1.374 1.374-1.454-1.454-1.374zm9.617-10.177l-1.377 1.452 1.454 1.374 1.374-1.454zm-12.36 13.085l1.454 1.374 1.374-1.454-1.458-1.374zm8.24-8.723l1.454 1.373 1.373-1.454-1.454-1.373zM83.662 105.4h2v-2h-2zm19.568-10.282l1.454 1.373 1.374-1.454-1.458-1.373zM84.338 69.8h-2v2h2zm-16 0h-2v2h2zm4 0h-2v2h2zm-4.676 35.6h2v-2h-2zm-4 0h2v-2h-2zm.676-35.6h-2v2h2zm-4.676 35.6h2v-2h-2zm20 0h2v-2h-2zM60.338 69.8h-2v2h2zm20 0h-2v2h2zm-4.676 35.6h2v-2h-2zm-4 0h2v-2h-2zm4.676-35.6h-2v2h2z"/><path class="d" d="M122.4 15.6V150H120V15.6z"/><path class="c" d="M126 87.6a4.8 4.8 0 1 1-4.8-4.8 4.8 4.8 0 0 1 4.8 4.8z"/></svg>