<svg xmlns="http://www.w3.org/2000/svg" viewBox="0 0 150 150"><title>dayzero-keep-an-eye-on-important-work</title><path d="M88.5 97.375c-3.725 0-6.068-.375-11.015-.375l-6.993 2.73-6.23-3.3s-8.667 2.882-11.957 3.9-4.429 1.395-4.429 4.172.124 40.373.124 40.373h41l-.108-23.057s1.818-2 4.358-5.068z" fill="#00188f"/><path d="M111.109 48H85.891A2.89 2.89 0 0 1 83 45.111v-16.22A2.89 2.89 0 0 1 85.889 26h25.22A2.89 2.89 0 0 1 114 28.889v16.22A2.89 2.89 0 0 1 111.111 48z" fill="#5c2d91"/><path d="M83 32v13.549A2.45 2.45 0 0 0 85.449 48h26.1A2.45 2.45 0 0 0 114 45.551V32z" fill="#8562ad"/><path d="M90 32h1v16h-1z" fill="#5c2d91"/><path d="M108 29h3v2h-3zm-5 0h3v2h-3z" fill="#c7b8ff"/><path d="M65 90.4v6.188c0 1.875 1.764 4.125 6.062 4.125S77 98.6 77 96.35v-5.344z" fill="#8e562e"/><path d="M63.469 87.167c3.478 4.86 5.813 8.719 13.531 8.91v-5.146z" fill="#613d30"/><path d="M74.468 70.189s2.769 5.361 3.093 5.711 4.07 4.074 4.07 4.074a.652.652 0 0 1 .08.758c-.244.409-1.621.985-1.676 1.374a18.7 18.7 0 0 0 2.442 4.683c1.232 1.787.644 2.5-1.683 3.429-2.436.975-9 2.769-11.063 2.316s-10.774-7.68-10.774-7.68 2.183-12.016 3.949-13.447 11.562-1.218 11.562-1.218z" fill="#8e562e"/><path d="M71.055 62.346s3.7 1.488 4.79 4.536-.488 4.459-4.548 5.941-4.135 1.681-2.434 4.185a35.021 35.021 0 0 1 2.349 3.839l-1.688 1.074a10.2 10.2 0 0 0-2.048-1.7c-1.305-.722-2.534-.4-2.983.793a3.12 3.12 0 0 0 1.9 3.818 3.81 3.81 0 0 1 2.5 3.389C69.052 89.73 66.6 91.9 66.6 91.9a15.258 15.258 0 0 1-8.981-7c-3.692-5.935-2.171-6.958-.186-8.125-1.452-1.955-.235-6.951 7.421-9.6 6.382-2.203 6.609-3.685 6.201-4.829z" fill="#282828"/><path d="M80.732 83.82c-.528.339-1.277.805-1.838 1.089-.955.484-3.217 1.3-3.217 1.3s3.656.828 5.395-1.741a7 7 0 0 1-.34-.648z" fill="#f3f3f3"/><path d="M114.969 63.953c3.785-3.652 3.16-4.057 4.509-8.464.614-2.626.007-3.672-.97-2.6 1.467-2.337.131-4.784-.969-3.092.245-.757.126-2.092-.849-2.247-.853-.044-1.1 1.447-1.222 2.07-.608-.556-1.827-.444-2.318 1.559a6.052 6.052 0 0 1-1.223 2.56c-.24-1.936-1.092-2.714-2.067-2.135 0 1.958-1.106 4.874-1.477 7.478a11.6 11.6 0 0 1 0 1.468 57.517 57.517 0 0 1-1.752 9.472c6.212 1.131 6.549-1.838 6.549-1.838z" fill="#8e562e"/><path d="M64.824 94.206l6.209 4.828 5.988-4.828 2.579 3.237-1.777 6.357-6.443-3.32-5.605 3.879-3.712-6.916zM44.275 145s.635-26 1.906-35.486 4.306-9.51 5.336-4.67C55.372 122.953 55.372 145 55.372 145zm62.511-79.718s-1.906 12.153-4.7 18.853-6.988 9.5-10.8 11.786a11.808 11.808 0 0 1-4.7 1.522c5.719 10.857 2.918 23.97 2.918 23.97s15.755-17.3 19.439-28.224a235.045 235.045 0 0 0 6.5-25.714z" fill="#0078d7"/><path d="M27.923 103H2.077A2.077 2.077 0 0 1 0 100.923V85.077A2.077 2.077 0 0 1 2.077 83h25.847A2.077 2.077 0 0 1 30 85.077v15.847A2.077 2.077 0 0 1 27.923 103z" fill="#5c2d91"/><path d="M14.9 94.506L29.822 84.2a1.578 1.578 0 0 0-1.53-1.2H1.511a1.58 1.58 0 0 0-1.465.991zM36.061 43H14.939A4.939 4.939 0 0 0 10 47.939v11.123A4.938 4.938 0 0 0 14.938 64h12.454L35 70.5V64h1.061A4.939 4.939 0 0 0 41 59.061V47.939A4.939 4.939 0 0 0 36.061 43z" fill="#8562ad"/><path d="M16 48h17v2H16zm0 4h17v2H16zm0 4h12v2H16zM63.077 16.307a10.253 10.253 0 0 0-.97-.568l-.027-.014c-.1-.051-.2-.1-.3-.147l-.083-.039q-.185-.085-.374-.163-.457-.189-.929-.336c-.06-.019-.12-.038-.181-.055l-.237-.066-.217-.056-.22-.053c-.1-.022-.194-.041-.292-.061-.058-.011-.115-.024-.173-.034q-.214-.039-.43-.069l-.168-.021c-.1-.013-.21-.026-.316-.036l-.177-.016c-.11-.009-.221-.017-.332-.023l-.156-.008a11.31 11.31 0 0 0-4.548.725 10.549 10.549 0 0 0-2.152 1.124q-.395.27-.757.572a8.99 8.99 0 0 0-3.32 6.937 8.794 8.794 0 0 0 1.682 5.18 9.317 9.317 0 0 0 .812.978l.02.02q.084.089.171.174l.054.058.013.014A19.461 19.461 0 0 1 53.658 38h6.718a19.5 19.5 0 0 1 4.161-7.694 8.926 8.926 0 0 0 2.744-6.412 9.086 9.086 0 0 0-4.204-7.587z" fill="#b4a0ff"/><path d="M58.438 46h-2.863l-1.66-2H60.1zM54 38h7v6h-7z" fill="#5c2d91"/><circle cx="135.022" cy="76.895" r="14.726" fill="#8562ad"/><path d="M130.357 79.932l-6.176-2.816v-1.071l6.176-2.956v1.574l-4.4 1.885v.039l4.4 1.772zm7.857-9.065l-4.622 11.057h-1.865l4.6-11.057zm7.723 6.163l-6.176 2.816V78.28l4.417-1.766v-.026l-4.417-1.888v-1.577l6.176 2.936v1.071z" fill="#b4a0ff"/><path d="M53 40h6v1h-6zM53 42h6v1h-6z" fill="#8562ad"/></svg>