<svg xmlns="http://www.w3.org/2000/svg" viewBox="0 0 145.167 150"><title>zerodata-automate-build-definitions</title><path d="M103.167 123h6v4h-6zm30 0h6v4h-6z" fill="#333"/><path d="M106.167 99h39v24h-39z" fill="#9080cf"/><path d="M106.167 123h-10V99h10z" fill="#522882"/><path d="M106.167 126h39v24h-39z" fill="#9080cf"/><path d="M106.167 150h-10v-24h10z" fill="#522882"/><path d="M77.167 50h2V4h-2z" fill="#737373"/><path d="M62.167 83h-10V59h10z" fill="#522882"/><path d="M62.167 126h39v24h-39z" fill="#9080cf"/><path d="M62.167 150h-10v-24h10z" fill="#522882"/><path d="M58.167 83h-2V58.41l21.994-10.305 21.162 11.31-1.987 1.4L78.1 50.534l-19.933 9.249z" fill="#737373"/><path d="M62.167 59h39v24h-39z" fill="#9080cf"/><path d="M68.167 3h15v5h-15z" fill="#505050"/><path d="M12.031 63.611a5.913 5.913 0 0 1-.346-8.355l48.237-53.4a5.913 5.913 0 0 1 8.7 8.009l-48.237 53.4a5.913 5.913 0 0 1-8.354.346z" fill="#ff8c00"/><circle cx="64.275" cy="5.862" r="4.041" transform="rotate(-47.374 64.275 5.862)" fill="#737373"/><path d="M9.167 142.16V58.748a8.721 8.721 0 0 1 7.975-8.816 8.5 8.5 0 0 1 9.025 8.484v83.744c.001 4.693-17 4.693-17 0z" fill="#ffb900"/><circle cx="17.377" cy="57.694" r="5.913" fill="#737373"/><path d="M30.408 139H3.988L0 149h34.4z" fill="#505050"/></svg>