<svg xmlns="http://www.w3.org/2000/svg" viewBox="0 0 285.294 176.471"><defs><clipPath id="a"><circle cx="53.676" cy="59.559" r="44.853" fill="none"/></clipPath><clipPath id="b"><circle cx="226.471" cy="129.412" r="35.294" fill="none"/></clipPath></defs><title>zerodata-mention-someone</title><g clip-path="url(#a)"><path d="M0 0h113.235v111.765H0z" fill="#00b0e3"/></g><g clip-path="url(#a)"><path d="M58.484 30.431s-5.041-8.006-15.284-1.522C23.321 41.5 23.529 68.6 23.529 68.6s5.024 9.7 24.281 16.912c8.41 3.153 22.168-9.921 22.168-9.921s8.3-10.687 5.041-28.64-12.976-21.763-16.535-16.52z" fill="#231f20"/><path d="M88.382 114.706q-.366-6.4-.71-12.807C87.16 92.2 83.5 91.657 77.7 90.315c-5.882-1.362-15.735-4.6-20.506-5.021H50.9c-4.769.419-14.953 3.749-20.5 5.021-5.8 1.324-9.459 1.888-9.971 11.584-.119 2.269-.371 6.946-.688 12.807z" fill="#fff200"/><path d="M61.765 89.179v-9.63a8.418 8.418 0 0 0-8.088-8.713 8.418 8.418 0 0 0-8.088 8.713v9.784c0 4.813 5.676 10.854 8.088 10.854 2.554-.002 8.088-6.196 8.088-11.008z" fill="#d8b094"/><path d="M45.588 77.521l-.026 8.1a17.647 17.647 0 0 0 8.493 2.456 14.019 14.019 0 0 0 7.71-2.574l-.04-10.059zM33.824 62.429A2.4 2.4 0 0 0 36 64.706h35.626a2.168 2.168 0 0 0 1.9-2.276v-4.559a1.9 1.9 0 0 0-1.816-1.986H36a2.137 2.137 0 0 0-2.175 1.993z" fill="#bb9167"/><path d="M52.941 30.2c8.9 0 16.176 7.974 16.176 17.718v6.5H36.765v-6.5c0-9.744 7.279-17.718 16.176-17.718" fill="#231f20"/><path d="M66.131 52.931C62.491 48.557 64 40.206 60.1 40.206c-4.856 11.366-23.335 13.687-23.335 13.618V73.5s7.744 9.8 16.44 9.8c5.8 0 11.818-5.372 15.913-9.8V53.884a4.338 4.338 0 0 1-2.987-.953z" fill="#d8b094"/><path d="M45.543 86.259l8.134 13.684 8.2-13.854 4.394 1.137-12.742 21.962L41.2 87.313z" fill="#939393"/></g><path d="M272.584 45.588H117.122a9.769 9.769 0 0 0-9.769 9.769v14.715l-20.063.556L107.353 90.1v28.069a9.769 9.769 0 0 0 9.769 9.769h155.462a9.769 9.769 0 0 0 9.769-9.769V55.357a9.769 9.769 0 0 0-9.769-9.769z" fill="#fff"/><path d="M272.584 130.882H117.122a12.724 12.724 0 0 1-12.71-12.71V91.347L80.237 67.882l24.175-.676v-11.85a12.724 12.724 0 0 1 12.71-12.709h155.462a12.724 12.724 0 0 1 12.71 12.71v62.816a12.724 12.724 0 0 1-12.71 12.709zm-178.243-57.5l15.953 15.478v29.313a6.835 6.835 0 0 0 6.828 6.827h155.462a6.835 6.835 0 0 0 6.828-6.828V55.357a6.835 6.835 0 0 0-6.828-6.828H117.122a6.835 6.835 0 0 0-6.828 6.828v17.575z" fill="#737373"/><path d="M129.53 72.062a3.324 3.324 0 0 1-3.228 2.65 3.153 3.153 0 0 1-1.47-.329 3.1 3.1 0 0 1-1.051-.886 3.926 3.926 0 0 1-.64-1.314 5.8 5.8 0 0 1-.218-1.6 7.852 7.852 0 0 1 .491-2.72 6.016 6.016 0 0 1 .623-1.224 4.6 4.6 0 0 1 .89-1 3.953 3.953 0 0 1 1.174-.673 4.217 4.217 0 0 1 1.464-.245 2.781 2.781 0 0 1 1.381.372 2.392 2.392 0 0 1 .557.458 1.952 1.952 0 0 1 .378.629h.67l.109-1.471h1.156l-.534 6.016q0 2.313 1.482 2.312a2.171 2.171 0 0 0 .987-.218 2.425 2.425 0 0 0 .751-.588 3.718 3.718 0 0 0 .551-.856 5.735 5.735 0 0 0 .366-1.009 8.408 8.408 0 0 0 .266-2.059 7.528 7.528 0 0 0-.529-2.89 6.241 6.241 0 0 0-1.494-2.2 6.549 6.549 0 0 0-2.316-1.394 8.824 8.824 0 0 0-2.988-.485 7.951 7.951 0 0 0-2.153.282 7.444 7.444 0 0 0-1.859.8 7.131 7.131 0 0 0-1.526 1.25 7.4 7.4 0 0 0-1.144 1.629 8.431 8.431 0 0 0-.719 1.946 9.353 9.353 0 0 0-.25 2.191 8.727 8.727 0 0 0 .534 3.112 6.719 6.719 0 0 0 3.919 3.985 8.5 8.5 0 0 0 3.146.556 13.4 13.4 0 0 0 4.046-.926v1.856a12.538 12.538 0 0 1-4.83.845 9.729 9.729 0 0 1-3.639-.658 8.19 8.19 0 0 1-2.827-1.839 8.283 8.283 0 0 1-1.826-2.817 9.609 9.609 0 0 1-.652-3.585 10.2 10.2 0 0 1 .3-2.486 9.687 9.687 0 0 1 .863-2.243 8.981 8.981 0 0 1 1.369-1.908 8.358 8.358 0 0 1 1.83-1.474 9.158 9.158 0 0 1 2.243-.952 9.689 9.689 0 0 1 2.6-.341 9.931 9.931 0 0 1 2.315.267 9.2 9.2 0 0 1 2.076.764 8.1 8.1 0 0 1 1.754 1.213 7.616 7.616 0 0 1 2.231 3.59 8.258 8.258 0 0 1 .3 2.284 8.953 8.953 0 0 1-.105 1.342 8.321 8.321 0 0 1-.329 1.368 6.964 6.964 0 0 1-.568 1.276 4.626 4.626 0 0 1-1.607 1.651 2.567 2.567 0 0 1-.978.335q-3.187.438-3.308-2.595h-.045zM128.2 65.4a2.579 2.579 0 0 0-1.488.419 3.306 3.306 0 0 0-1 1.09 5.09 5.09 0 0 0-.562 1.494 7.853 7.853 0 0 0-.174 1.629 4.65 4.65 0 0 0 .147 1.244 2.812 2.812 0 0 0 .441.943 1.954 1.954 0 0 0 .7.588 2 2 0 0 0 .921.207 2.279 2.279 0 0 0 1.074-.244 2.75 2.75 0 0 0 .807-.649 3.635 3.635 0 0 0 .572-.932 6.923 6.923 0 0 0 .371-1.1 8.449 8.449 0 0 0 .2-1.15 10.59 10.59 0 0 0 .06-1.079 2.763 2.763 0 0 0-.534-1.843 1.912 1.912 0 0 0-1.535-.617z" fill="#3c3c3c"/><path d="M144.118 64.706h107.353v7.353H144.118z" fill="#b2b2b2"/><circle cx="126.471" cy="94.118" r="5.882" fill="#0078d7"/><circle cx="145.588" cy="94.118" r="5.882" fill="#0078d7"/><circle cx="164.706" cy="94.118" r="5.882" fill="#0078d7"/><g clip-path="url(#b)"><path d="M185.294 88.235h86.765V175h-86.765z" fill="#00b0e3"/></g><g clip-path="url(#b)"><circle cx="214.915" cy="117.565" r="6.722" fill="#613d30"/><circle cx="238.179" cy="115.06" r="6.619" fill="#613d30"/><path d="M222.059 142.647h11.765v20.588h-11.765z" fill="#bb9167"/><path d="M221.912 138.382l.147-.147-.147 9.954c0 .471 3.808.56 6.035.56 2.317 0 5.876-.256 5.876-.766v-9.749z" fill="#8e562e"/><path d="M210.609 130.882h31.722a1.787 1.787 0 0 0 1.787-1.787v-3.779a1.787 1.787 0 0 0-1.787-1.787h-31.722a1.785 1.785 0 0 0-1.785 1.785v3.786a1.787 1.787 0 0 0 1.785 1.782z" fill="#bb9167"/><path d="M242.65 117.482c0-4.876-4.584-14.906-14.459-14.685-.178 0-.353.013-.528.019s-.075-.019-.253-.019c-10.486 0-14.176 11.137-14.176 14.685V140.9s-.181.059-.04.147a25.944 25.944 0 0 0 14.468 4.538h.157a26.382 26.382 0 0 0 14.6-4.54 2.577 2.577 0 0 0 .227-.147z" fill="#bb9167"/><path d="M213.235 121.221c12.312 0 21.546-10.084 21.546-10.084s4.925 2.675 4.925 8.026v10.249h2.941v-11.863c0-3.119-1.85-14.4-14.3-14.4s-15.109 12.024-15.109 14.047z" fill="#613d30"/><path d="M213.235 117.647h2.941v11.765h-2.941zm20.588-19.359s-1.482 6.3-9.315 3.39a7.647 7.647 0 1 0 4.934 6.371c2.571.41 5.121.356 6.44-.984 4.528-4.594-2.059-8.779-2.059-8.779zM236.5 107.069a6.463 6.463 0 0 0 3.978-4.528 4.89 4.89 0 0 1 .96 4.528 6.285 6.285 0 0 1-2.812 2.881z" fill="#613d30"/><path d="M217.647 155.882h19.118v20.588h-19.118z" fill="#fff"/><path d="M258.154 158.29c-1.494-3.89-3.374-6.819-10.021-6.819h-14.248l-6.25 24.694-5.784-24.694h-15.8c-6.649 0-8.529 2.931-10.021 6.819-.85 2.206-4.246 10.5-7.412 18.181h76.951c-3.169-7.686-6.569-15.971-7.415-18.181z" fill="#5c2d91"/></g><path d="M53.481 72.787a30.388 30.388 0 0 1-8.225-1.125 11.585 11.585 0 0 0 16.384.066l.066-.066a30.379 30.379 0 0 1-8.225 1.125zM227.3 138.235a27.115 27.115 0 0 1-7.353-1.006 10.353 10.353 0 0 0 14.641.065l.065-.065a27.115 27.115 0 0 1-7.357 1.006z" fill="#fff"/></svg>