<?xml version="1.0" encoding="utf-8"?>
<!-- Generator: Adobe Illustrator 22.0.2, SVG Export Plug-In . SVG Version: 6.00 Build 0)  -->
<svg version="1.1" id="Layer_1" xmlns="http://www.w3.org/2000/svg" xmlns:xlink="http://www.w3.org/1999/xlink" x="0px" y="0px"
	 viewBox="0 0 564 1080" style="enable-background:new 0 0 564 1080;" xml:space="preserve">
<rect x="113.3" y="77.1" style="fill:#FFF880;" width="20" height="20"/>
<rect x="153.4" y="77.1" style="fill:#FFA940;" width="20" height="20"/>
<rect x="193.4" y="77.1" style="fill:#EA40A9;" width="20" height="20"/>
<rect x="233.5" y="77.1" style="fill:#C7B8FF;" width="20" height="20"/>
<rect x="273.6" y="77.1" style="fill:#40CDF5;" width="20" height="20"/>
<rect x="313.6" y="77.1" style="fill:#40C5AF;" width="20" height="20"/>
<rect x="353.7" y="77.1" style="fill:#D7F04B;" width="20" height="20"/>
<rect x="113.3" y="133.1" style="fill:#FFF100;" width="20" height="20"/>
<rect x="153.4" y="133.1" style="fill:#FF8C00;" width="20" height="20"/>
<rect x="193.4" y="133.1" style="fill:#E3008C;" width="20" height="20"/>
<rect x="233.5" y="133.1" style="fill:#B4A0FF;" width="20" height="20"/>
<rect x="273.6" y="133.1" style="fill:#00BCF2;" width="20" height="20"/>
<rect x="313.6" y="133.1" style="fill:#00B294;" width="20" height="20"/>
<rect x="353.7" y="133.1" style="fill:#BAD80A;" width="20" height="20"/>
<rect x="113.3" y="192.1" style="fill:#F0E300;" width="20" height="20"/>
<rect x="153.4" y="192.1" style="fill:#F08400;" width="20" height="20"/>
<rect x="193.4" y="192.1" style="fill:#D40083;" width="20" height="20"/>
<rect x="233.5" y="192.1" style="fill:#8A79C7;" width="20" height="20"/>
<rect x="273.6" y="192.1" style="fill:#0096C2;" width="20" height="20"/>
<rect x="313.6" y="192.1" style="fill:#008C74;" width="20" height="20"/>
<rect x="353.7" y="192.1" style="fill:#9AB208;" width="20" height="20"/>
<rect x="113.3" y="249.1" style="fill:#CCC000;" width="20" height="20"/>
<rect x="153.4" y="249.1" style="fill:#BA6800;" width="20" height="20"/>
<rect x="193.4" y="249.1" style="fill:#9C005F;" width="20" height="20"/>
<rect x="233.5" y="249.1" style="fill:#625496;" width="20" height="20"/>
<rect x="273.6" y="249.1" style="fill:#007596;" width="20" height="20"/>
<rect x="313.6" y="249.1" style="fill:#006E5B;" width="20" height="20"/>
<rect x="353.7" y="249.1" style="fill:#798C08;" width="20" height="20"/>
<rect x="113.3" y="308.1" style="fill:#FFCB40;" width="20" height="20"/>
<rect x="153.4" y="308.1" style="fill:#E26C41;" width="20" height="20"/>
<rect x="193.4" y="308.1" style="fill:#EE4D5A;" width="20" height="20"/>
<rect x="233.5" y="308.1" style="fill:#C740B6;" width="20" height="20"/>
<rect x="273.6" y="308.1" style="fill:#A579D6;" width="20" height="20"/>
<rect x="313.6" y="308.1" style="fill:#409AE1;" width="20" height="20"/>
<rect x="353.7" y="308.1" style="fill:#40A195;" width="20" height="20"/>
<rect x="393.7" y="308.1" style="fill:#78C578;" width="20" height="20"/>
<rect x="113.3" y="367.1" style="fill:#FFB900;" width="20" height="20"/>
<rect x="153.4" y="367.1" style="fill:#D83B01;" width="20" height="20"/>
<rect x="193.4" y="367.1" style="fill:#E81123;" width="20" height="20"/>
<rect x="233.5" y="367.1" style="fill:#B4009E;" width="20" height="20"/>
<rect x="273.6" y="367.1" style="fill:#5C2D91;" width="20" height="20"/>
<rect x="313.6" y="367.1" style="fill:#0078D7;" width="20" height="20"/>
<rect x="353.7" y="367.1" style="fill:#008272;" width="20" height="20"/>
<rect x="393.7" y="367.1" style="fill:#107C10;" width="20" height="20"/>
<rect x="112.3" y="417.1" style="fill:#E5A600;" width="20" height="20"/>
<rect x="152.4" y="417.1" style="fill:#BD3604;" width="20" height="20"/>
<rect x="192.4" y="417.1" style="fill:#BA0E1C;" width="20" height="20"/>
<rect x="232.5" y="417.1" style="fill:#9E008B;" width="20" height="20"/>
<rect x="272.6" y="417.1" style="fill:#854CC7;" width="20" height="20"/>
<rect x="312.6" y="417.1" style="fill:#0064B5;" width="20" height="20"/>
<rect x="352.7" y="417.1" style="fill:#005248;" width="20" height="20"/>
<rect x="392.7" y="417.1" style="fill:#38A138;" width="20" height="20"/>
<rect x="112.3" y="467.1" style="fill:#C48C00;" width="20" height="20"/>
<rect x="152.4" y="467.1" style="fill:#9C2801;" width="20" height="20"/>
<rect x="192.4" y="467.1" style="fill:#910F1B;" width="20" height="20"/>
<rect x="232.5" y="467.1" style="fill:#850063;" width="20" height="20"/>
<rect x="272.6" y="467.1" style="fill:#401467;" width="20" height="20"/>
<rect x="312.6" y="467.1" style="fill:#004880;" width="20" height="20"/>
<rect x="352.7" y="467.1" style="fill:#003631;" width="20" height="20"/>
<rect x="392.7" y="467.1" style="fill:#0D520D;" width="20" height="20"/>
<rect x="153.3" y="517.1" style="fill:#C43535;" width="20" height="20"/>
<rect x="193.4" y="517.1" style="fill:#A650A6;" width="20" height="20"/>
<rect x="233.4" y="517.1" style="fill:#8757C9;" width="20" height="20"/>
<rect x="273.5" y="517.1" style="fill:#2F60E0;" width="20" height="20"/>
<rect x="313.6" y="517.1" style="fill:#3963A3;" width="20" height="20"/>
<rect x="353.6" y="517.1" style="fill:#4B8D91;" width="20" height="20"/>
<rect x="393.7" y="517.1" style="fill:#22994E;" width="20" height="20"/>
<rect x="153.3" y="573.1" style="fill:#871A1A;" width="20" height="20"/>
<rect x="193.4" y="573.1" style="fill:#7E2685;" width="20" height="20"/>
<rect x="233.4" y="573.1" style="fill:#573894;" width="20" height="20"/>
<rect x="273.5" y="573.1" style="fill:#2139B5;" width="20" height="20"/>
<rect x="313.6" y="573.1" style="fill:#2D3D87;" width="20" height="20"/>
<rect x="353.6" y="573.1" style="fill:#236B70;" width="20" height="20"/>
<rect x="393.7" y="573.1" style="fill:#007029;" width="20" height="20"/>
<rect x="153.3" y="620.1" style="fill:#A80000;" width="20" height="20"/>
<rect x="193.4" y="620.1" style="fill:#5C005C;" width="20" height="20"/>
<rect x="233.4" y="620.1" style="fill:#32145A;" width="20" height="20"/>
<rect x="273.5" y="620.1" style="fill:#00188F;" width="20" height="20"/>
<rect x="313.6" y="620.1" style="fill:#002050;" width="20" height="20"/>
<rect x="353.6" y="620.1" style="fill:#004B50;" width="20" height="20"/>
<rect x="393.7" y="620.1" style="fill:#004B1C;" width="20" height="20"/>
<rect x="152.3" y="670.1" style="fill:#690000;" width="20" height="20"/>
<rect x="192.4" y="670.1" style="fill:#380038;" width="20" height="20"/>
<rect x="232.4" y="670.1" style="fill:#220C3D;" width="20" height="20"/>
<rect x="272.5" y="670.1" style="fill:#001363;" width="20" height="20"/>
<rect x="312.6" y="670.1" style="fill:#001129;" width="20" height="20"/>
<rect x="352.6" y="670.1" style="fill:#002F33;" width="20" height="20"/>
<rect x="392.7" y="670.1" style="fill:#00240D;" width="20" height="20"/>
<rect x="111.3" y="717.1" style="fill:#F3F3F3;" width="20" height="20"/>
<rect x="151.4" y="717.1" style="fill:#E6E6E6;" width="20" height="20"/>
<rect x="191.4" y="717.1" style="fill:#D2D2D2;" width="20" height="20"/>
<rect x="231.5" y="717.1" style="fill:#C2C2C2;" width="20" height="20"/>
<rect x="271.6" y="717.1" style="fill:#B2B2B2;" width="20" height="20"/>
<rect x="311.6" y="717.1" style="fill:#939393;" width="20" height="20"/>
<rect x="351.7" y="717.1" style="fill:#737373;" width="20" height="20"/>
<rect x="391.7" y="717.1" style="fill:#505050;" width="20" height="20"/>
<rect x="431.7" y="717.1" style="fill:#282828;" width="20" height="20"/>
<rect x="111.3" y="767.1" style="fill:#F7E3D6;" width="20" height="20"/>
<rect x="151.4" y="767.1" style="fill:#F8D5B9;" width="20" height="20"/>
<rect x="191.4" y="767.1" style="fill:#EACBC6;" width="20" height="20"/>
<rect x="231.5" y="767.1" style="fill:#DEBDA5;" width="20" height="20"/>
<rect x="271.6" y="767.1" style="fill:#D8B07F;" width="20" height="20"/>
<rect x="311.6" y="767.1" style="fill:#D2B69B;" width="20" height="20"/>
<rect x="351.7" y="767.1" style="fill:#B48F75;" width="20" height="20"/>
<rect x="391.7" y="767.1" style="fill:#8E7A6F;" width="20" height="20"/>
<rect x="431.7" y="767.1" style="fill:#977F76;" width="20" height="20"/>
<rect x="111.3" y="817.1" style="fill:#F7D7C4;" width="20" height="20"/>
<rect x="151.4" y="817.1" style="fill:#F6CAA7;" width="20" height="20"/>
<rect x="191.4" y="817.1" style="fill:#F0BEB4;" width="20" height="20"/>
<rect x="231.5" y="817.1" style="fill:#D8B094;" width="20" height="20"/>
<rect x="271.6" y="817.1" style="fill:#CE9C5F;" width="20" height="20"/>
<rect x="311.6" y="817.1" style="fill:#BB9167;" width="20" height="20"/>
<rect x="351.7" y="817.1" style="fill:#8E562E;" width="20" height="20"/>
<rect x="391.7" y="817.1" style="fill:#72594B;" width="20" height="20"/>
<rect x="431.7" y="817.1" style="fill:#613D30;" width="20" height="20"/>
<rect x="111.3" y="867.1" style="fill:#E3C6B5;" width="20" height="20"/>
<rect x="151.4" y="867.1" style="fill:#DEB695;" width="20" height="20"/>
<rect x="191.4" y="867.1" style="fill:#DB9C94;" width="20" height="20"/>
<rect x="231.5" y="867.1" style="fill:#B8977C;" width="20" height="20"/>
<rect x="271.6" y="867.1" style="fill:#BA8C57;" width="20" height="20"/>
<rect x="311.6" y="867.1" style="fill:#AB845F;" width="20" height="20"/>
<rect x="351.7" y="867.1" style="fill:#704322;" width="20" height="20"/>
<rect x="391.7" y="867.1" style="fill:#665042;" width="20" height="20"/>
<rect x="431.7" y="867.1" style="fill:#4D2F27;" width="20" height="20"/>
<rect x="111.3" y="917.1" style="fill:#BFA899;" width="20" height="20"/>
<rect x="151.4" y="917.1" style="fill:#C2A081;" width="20" height="20"/>
<rect x="191.4" y="917.1" style="fill:#CB8C84;" width="20" height="20"/>
<rect x="231.5" y="917.1" style="fill:#917861;" width="20" height="20"/>
<rect x="271.6" y="917.1" style="fill:#8C6943;" width="20" height="20"/>
<rect x="311.6" y="917.1" style="fill:#7A5E44;" width="20" height="20"/>
<rect x="351.7" y="917.1" style="fill:#543217;" width="20" height="20"/>
<rect x="391.7" y="917.1" style="fill:#4F3E33;" width="20" height="20"/>
<rect x="431.7" y="917.1" style="fill:#301D19;" width="20" height="20"/>
<rect x="111.3" y="967.1" style="fill:#F25022;" width="20" height="20"/>
<rect x="191.4" y="967.1" style="fill:#7FBA00;" width="20" height="20"/>
<rect x="231.5" y="967.1" style="fill:#00A4EF;" width="20" height="20"/>
<rect x="151.4" y="967.1" style="fill:#FFB900;" width="20" height="20"/>
<rect x="271.6" y="967.1" style="fill:#737373;" width="20" height="20"/>
<g>
</g>
<g>
</g>
<g>
</g>
<g>
</g>
<g>
</g>
<g>
</g>
<g>
</g>
<g>
</g>
<g>
</g>
<g>
</g>
<g>
</g>
<g>
</g>
<g>
</g>
<g>
</g>
<g>
</g>
</svg>
